<?xml version="1.0" encoding="utf-8" standalone="no"?>
<!DOCTYPE svg PUBLIC "-//W3C//DTD SVG 1.1//EN"
  "http://www.w3.org/Graphics/SVG/1.1/DTD/svg11.dtd">
<svg xmlns:xlink="http://www.w3.org/1999/xlink" width="615.366094pt" height="381.84375pt" viewBox="0 0 615.366094 381.84375" xmlns="http://www.w3.org/2000/svg" version="1.1">
 <metadata>
  <rdf:RDF xmlns:dc="http://purl.org/dc/elements/1.1/" xmlns:cc="http://creativecommons.org/ns#" xmlns:rdf="http://www.w3.org/1999/02/22-rdf-syntax-ns#">
   <cc:Work>
    <dc:type rdf:resource="http://purl.org/dc/dcmitype/StillImage"/>
    <dc:date>2023-05-14T10:17:57.167418</dc:date>
    <dc:format>image/svg+xml</dc:format>
    <dc:creator>
     <cc:Agent>
      <dc:title>Matplotlib v3.7.1, https://matplotlib.org/</dc:title>
     </cc:Agent>
    </dc:creator>
   </cc:Work>
  </rdf:RDF>
 </metadata>
 <defs>
  <style type="text/css">*{stroke-linejoin: round; stroke-linecap: butt}</style>
 </defs>
 <g id="figure_1">
  <g id="patch_1">
   <path d="M 0 381.84375 
L 615.366094 381.84375 
L 615.366094 0 
L 0 0 
z
" style="fill: #ffffff"/>
  </g>
  <g id="axes_1">
   <g id="patch_2">
    <path d="M 50.166094 339.84 
L 608.166094 339.84 
L 608.166094 7.2 
L 50.166094 7.2 
z
" style="fill: #eaeaf2"/>
   </g>
   <g id="matplotlib.axis_1">
    <g id="xtick_1">
     <g id="text_1">
      <!-- small -->
      <g style="fill: #262626" transform="translate(176.832188 357.213594) scale(0.11 -0.11)">
       <defs>
        <path id="ArialMT-73" d="M 197 991 
L 753 1078 
Q 800 744 1014 566 
Q 1228 388 1613 388 
Q 2000 388 2187 545 
Q 2375 703 2375 916 
Q 2375 1106 2209 1216 
Q 2094 1291 1634 1406 
Q 1016 1563 777 1677 
Q 538 1791 414 1992 
Q 291 2194 291 2438 
Q 291 2659 392 2848 
Q 494 3038 669 3163 
Q 800 3259 1026 3326 
Q 1253 3394 1513 3394 
Q 1903 3394 2198 3281 
Q 2494 3169 2634 2976 
Q 2775 2784 2828 2463 
L 2278 2388 
Q 2241 2644 2061 2787 
Q 1881 2931 1553 2931 
Q 1166 2931 1000 2803 
Q 834 2675 834 2503 
Q 834 2394 903 2306 
Q 972 2216 1119 2156 
Q 1203 2125 1616 2013 
Q 2213 1853 2448 1751 
Q 2684 1650 2818 1456 
Q 2953 1263 2953 975 
Q 2953 694 2789 445 
Q 2625 197 2315 61 
Q 2006 -75 1616 -75 
Q 969 -75 630 194 
Q 291 463 197 991 
z
" transform="scale(0.015625)"/>
        <path id="ArialMT-6d" d="M 422 0 
L 422 3319 
L 925 3319 
L 925 2853 
Q 1081 3097 1340 3245 
Q 1600 3394 1931 3394 
Q 2300 3394 2536 3241 
Q 2772 3088 2869 2813 
Q 3263 3394 3894 3394 
Q 4388 3394 4653 3120 
Q 4919 2847 4919 2278 
L 4919 0 
L 4359 0 
L 4359 2091 
Q 4359 2428 4304 2576 
Q 4250 2725 4106 2815 
Q 3963 2906 3769 2906 
Q 3419 2906 3187 2673 
Q 2956 2441 2956 1928 
L 2956 0 
L 2394 0 
L 2394 2156 
Q 2394 2531 2256 2718 
Q 2119 2906 1806 2906 
Q 1569 2906 1367 2781 
Q 1166 2656 1075 2415 
Q 984 2175 984 1722 
L 984 0 
L 422 0 
z
" transform="scale(0.015625)"/>
        <path id="ArialMT-61" d="M 2588 409 
Q 2275 144 1986 34 
Q 1697 -75 1366 -75 
Q 819 -75 525 192 
Q 231 459 231 875 
Q 231 1119 342 1320 
Q 453 1522 633 1644 
Q 813 1766 1038 1828 
Q 1203 1872 1538 1913 
Q 2219 1994 2541 2106 
Q 2544 2222 2544 2253 
Q 2544 2597 2384 2738 
Q 2169 2928 1744 2928 
Q 1347 2928 1158 2789 
Q 969 2650 878 2297 
L 328 2372 
Q 403 2725 575 2942 
Q 747 3159 1072 3276 
Q 1397 3394 1825 3394 
Q 2250 3394 2515 3294 
Q 2781 3194 2906 3042 
Q 3031 2891 3081 2659 
Q 3109 2516 3109 2141 
L 3109 1391 
Q 3109 606 3145 398 
Q 3181 191 3288 0 
L 2700 0 
Q 2613 175 2588 409 
z
M 2541 1666 
Q 2234 1541 1622 1453 
Q 1275 1403 1131 1340 
Q 988 1278 909 1158 
Q 831 1038 831 891 
Q 831 666 1001 516 
Q 1172 366 1500 366 
Q 1825 366 2078 508 
Q 2331 650 2450 897 
Q 2541 1088 2541 1459 
L 2541 1666 
z
" transform="scale(0.015625)"/>
        <path id="ArialMT-6c" d="M 409 0 
L 409 4581 
L 972 4581 
L 972 0 
L 409 0 
z
" transform="scale(0.015625)"/>
       </defs>
       <use xlink:href="#ArialMT-73"/>
       <use xlink:href="#ArialMT-6d" x="50"/>
       <use xlink:href="#ArialMT-61" x="133.300781"/>
       <use xlink:href="#ArialMT-6c" x="188.916016"/>
       <use xlink:href="#ArialMT-6c" x="211.132812"/>
      </g>
     </g>
    </g>
    <g id="xtick_2">
     <g id="text_2">
      <!-- regular -->
      <g style="fill: #262626" transform="translate(451.547344 357.213594) scale(0.11 -0.11)">
       <defs>
        <path id="ArialMT-72" d="M 416 0 
L 416 3319 
L 922 3319 
L 922 2816 
Q 1116 3169 1280 3281 
Q 1444 3394 1641 3394 
Q 1925 3394 2219 3213 
L 2025 2691 
Q 1819 2813 1613 2813 
Q 1428 2813 1281 2702 
Q 1134 2591 1072 2394 
Q 978 2094 978 1738 
L 978 0 
L 416 0 
z
" transform="scale(0.015625)"/>
        <path id="ArialMT-65" d="M 2694 1069 
L 3275 997 
Q 3138 488 2766 206 
Q 2394 -75 1816 -75 
Q 1088 -75 661 373 
Q 234 822 234 1631 
Q 234 2469 665 2931 
Q 1097 3394 1784 3394 
Q 2450 3394 2872 2941 
Q 3294 2488 3294 1666 
Q 3294 1616 3291 1516 
L 816 1516 
Q 847 969 1125 678 
Q 1403 388 1819 388 
Q 2128 388 2347 550 
Q 2566 713 2694 1069 
z
M 847 1978 
L 2700 1978 
Q 2663 2397 2488 2606 
Q 2219 2931 1791 2931 
Q 1403 2931 1139 2672 
Q 875 2413 847 1978 
z
" transform="scale(0.015625)"/>
        <path id="ArialMT-67" d="M 319 -275 
L 866 -356 
Q 900 -609 1056 -725 
Q 1266 -881 1628 -881 
Q 2019 -881 2231 -725 
Q 2444 -569 2519 -288 
Q 2563 -116 2559 434 
Q 2191 0 1641 0 
Q 956 0 581 494 
Q 206 988 206 1678 
Q 206 2153 378 2554 
Q 550 2956 876 3175 
Q 1203 3394 1644 3394 
Q 2231 3394 2613 2919 
L 2613 3319 
L 3131 3319 
L 3131 450 
Q 3131 -325 2973 -648 
Q 2816 -972 2473 -1159 
Q 2131 -1347 1631 -1347 
Q 1038 -1347 672 -1080 
Q 306 -813 319 -275 
z
M 784 1719 
Q 784 1066 1043 766 
Q 1303 466 1694 466 
Q 2081 466 2343 764 
Q 2606 1063 2606 1700 
Q 2606 2309 2336 2618 
Q 2066 2928 1684 2928 
Q 1309 2928 1046 2623 
Q 784 2319 784 1719 
z
" transform="scale(0.015625)"/>
        <path id="ArialMT-75" d="M 2597 0 
L 2597 488 
Q 2209 -75 1544 -75 
Q 1250 -75 995 37 
Q 741 150 617 320 
Q 494 491 444 738 
Q 409 903 409 1263 
L 409 3319 
L 972 3319 
L 972 1478 
Q 972 1038 1006 884 
Q 1059 663 1231 536 
Q 1403 409 1656 409 
Q 1909 409 2131 539 
Q 2353 669 2445 892 
Q 2538 1116 2538 1541 
L 2538 3319 
L 3100 3319 
L 3100 0 
L 2597 0 
z
" transform="scale(0.015625)"/>
       </defs>
       <use xlink:href="#ArialMT-72"/>
       <use xlink:href="#ArialMT-65" x="33.300781"/>
       <use xlink:href="#ArialMT-67" x="88.916016"/>
       <use xlink:href="#ArialMT-75" x="144.53125"/>
       <use xlink:href="#ArialMT-6c" x="200.146484"/>
       <use xlink:href="#ArialMT-61" x="222.363281"/>
       <use xlink:href="#ArialMT-72" x="277.978516"/>
      </g>
     </g>
    </g>
    <g id="text_3">
     <!-- classtype -->
     <g style="fill: #262626" transform="translate(304.156406 372.118125) scale(0.12 -0.12)">
      <defs>
       <path id="ArialMT-63" d="M 2588 1216 
L 3141 1144 
Q 3050 572 2676 248 
Q 2303 -75 1759 -75 
Q 1078 -75 664 370 
Q 250 816 250 1647 
Q 250 2184 428 2587 
Q 606 2991 970 3192 
Q 1334 3394 1763 3394 
Q 2303 3394 2647 3120 
Q 2991 2847 3088 2344 
L 2541 2259 
Q 2463 2594 2264 2762 
Q 2066 2931 1784 2931 
Q 1359 2931 1093 2626 
Q 828 2322 828 1663 
Q 828 994 1084 691 
Q 1341 388 1753 388 
Q 2084 388 2306 591 
Q 2528 794 2588 1216 
z
" transform="scale(0.015625)"/>
       <path id="ArialMT-74" d="M 1650 503 
L 1731 6 
Q 1494 -44 1306 -44 
Q 1000 -44 831 53 
Q 663 150 594 308 
Q 525 466 525 972 
L 525 2881 
L 113 2881 
L 113 3319 
L 525 3319 
L 525 4141 
L 1084 4478 
L 1084 3319 
L 1650 3319 
L 1650 2881 
L 1084 2881 
L 1084 941 
Q 1084 700 1114 631 
Q 1144 563 1211 522 
Q 1278 481 1403 481 
Q 1497 481 1650 503 
z
" transform="scale(0.015625)"/>
       <path id="ArialMT-79" d="M 397 -1278 
L 334 -750 
Q 519 -800 656 -800 
Q 844 -800 956 -737 
Q 1069 -675 1141 -563 
Q 1194 -478 1313 -144 
Q 1328 -97 1363 -6 
L 103 3319 
L 709 3319 
L 1400 1397 
Q 1534 1031 1641 628 
Q 1738 1016 1872 1384 
L 2581 3319 
L 3144 3319 
L 1881 -56 
Q 1678 -603 1566 -809 
Q 1416 -1088 1222 -1217 
Q 1028 -1347 759 -1347 
Q 597 -1347 397 -1278 
z
" transform="scale(0.015625)"/>
       <path id="ArialMT-70" d="M 422 -1272 
L 422 3319 
L 934 3319 
L 934 2888 
Q 1116 3141 1344 3267 
Q 1572 3394 1897 3394 
Q 2322 3394 2647 3175 
Q 2972 2956 3137 2557 
Q 3303 2159 3303 1684 
Q 3303 1175 3120 767 
Q 2938 359 2589 142 
Q 2241 -75 1856 -75 
Q 1575 -75 1351 44 
Q 1128 163 984 344 
L 984 -1272 
L 422 -1272 
z
M 931 1641 
Q 931 1000 1190 694 
Q 1450 388 1819 388 
Q 2194 388 2461 705 
Q 2728 1022 2728 1688 
Q 2728 2322 2467 2637 
Q 2206 2953 1844 2953 
Q 1484 2953 1207 2617 
Q 931 2281 931 1641 
z
" transform="scale(0.015625)"/>
      </defs>
      <use xlink:href="#ArialMT-63"/>
      <use xlink:href="#ArialMT-6c" x="50"/>
      <use xlink:href="#ArialMT-61" x="72.216797"/>
      <use xlink:href="#ArialMT-73" x="127.832031"/>
      <use xlink:href="#ArialMT-73" x="177.832031"/>
      <use xlink:href="#ArialMT-74" x="227.832031"/>
      <use xlink:href="#ArialMT-79" x="255.615234"/>
      <use xlink:href="#ArialMT-70" x="305.615234"/>
      <use xlink:href="#ArialMT-65" x="361.230469"/>
     </g>
    </g>
   </g>
   <g id="matplotlib.axis_2">
    <g id="ytick_1">
     <g id="line2d_1">
      <path d="M 50.166094 333.330519 
L 608.166094 333.330519 
" clip-path="url(#p5c08052a81)" style="fill: none; stroke: #ffffff; stroke-linecap: round"/>
     </g>
     <g id="text_4">
      <!-- 500 -->
      <g style="fill: #262626" transform="translate(22.315 337.267316) scale(0.11 -0.11)">
       <defs>
        <path id="ArialMT-35" d="M 266 1200 
L 856 1250 
Q 922 819 1161 601 
Q 1400 384 1738 384 
Q 2144 384 2425 690 
Q 2706 997 2706 1503 
Q 2706 1984 2436 2262 
Q 2166 2541 1728 2541 
Q 1456 2541 1237 2417 
Q 1019 2294 894 2097 
L 366 2166 
L 809 4519 
L 3088 4519 
L 3088 3981 
L 1259 3981 
L 1013 2750 
Q 1425 3038 1878 3038 
Q 2478 3038 2890 2622 
Q 3303 2206 3303 1553 
Q 3303 931 2941 478 
Q 2500 -78 1738 -78 
Q 1113 -78 717 272 
Q 322 622 266 1200 
z
" transform="scale(0.015625)"/>
        <path id="ArialMT-30" d="M 266 2259 
Q 266 3072 433 3567 
Q 600 4063 929 4331 
Q 1259 4600 1759 4600 
Q 2128 4600 2406 4451 
Q 2684 4303 2865 4023 
Q 3047 3744 3150 3342 
Q 3253 2941 3253 2259 
Q 3253 1453 3087 958 
Q 2922 463 2592 192 
Q 2263 -78 1759 -78 
Q 1097 -78 719 397 
Q 266 969 266 2259 
z
M 844 2259 
Q 844 1131 1108 757 
Q 1372 384 1759 384 
Q 2147 384 2411 759 
Q 2675 1134 2675 2259 
Q 2675 3391 2411 3762 
Q 2147 4134 1753 4134 
Q 1366 4134 1134 3806 
Q 844 3388 844 2259 
z
" transform="scale(0.015625)"/>
       </defs>
       <use xlink:href="#ArialMT-35"/>
       <use xlink:href="#ArialMT-30" x="55.615234"/>
       <use xlink:href="#ArialMT-30" x="111.230469"/>
      </g>
     </g>
    </g>
    <g id="ytick_2">
     <g id="line2d_2">
      <path d="M 50.166094 276.555462 
L 608.166094 276.555462 
" clip-path="url(#p5c08052a81)" style="fill: none; stroke: #ffffff; stroke-linecap: round"/>
     </g>
     <g id="text_5">
      <!-- 550 -->
      <g style="fill: #262626" transform="translate(22.315 280.492259) scale(0.11 -0.11)">
       <use xlink:href="#ArialMT-35"/>
       <use xlink:href="#ArialMT-35" x="55.615234"/>
       <use xlink:href="#ArialMT-30" x="111.230469"/>
      </g>
     </g>
    </g>
    <g id="ytick_3">
     <g id="line2d_3">
      <path d="M 50.166094 219.780404 
L 608.166094 219.780404 
" clip-path="url(#p5c08052a81)" style="fill: none; stroke: #ffffff; stroke-linecap: round"/>
     </g>
     <g id="text_6">
      <!-- 600 -->
      <g style="fill: #262626" transform="translate(22.315 223.717201) scale(0.11 -0.11)">
       <defs>
        <path id="ArialMT-36" d="M 3184 3459 
L 2625 3416 
Q 2550 3747 2413 3897 
Q 2184 4138 1850 4138 
Q 1581 4138 1378 3988 
Q 1113 3794 959 3422 
Q 806 3050 800 2363 
Q 1003 2672 1297 2822 
Q 1591 2972 1913 2972 
Q 2475 2972 2870 2558 
Q 3266 2144 3266 1488 
Q 3266 1056 3080 686 
Q 2894 316 2569 119 
Q 2244 -78 1831 -78 
Q 1128 -78 684 439 
Q 241 956 241 2144 
Q 241 3472 731 4075 
Q 1159 4600 1884 4600 
Q 2425 4600 2770 4297 
Q 3116 3994 3184 3459 
z
M 888 1484 
Q 888 1194 1011 928 
Q 1134 663 1356 523 
Q 1578 384 1822 384 
Q 2178 384 2434 671 
Q 2691 959 2691 1453 
Q 2691 1928 2437 2201 
Q 2184 2475 1800 2475 
Q 1419 2475 1153 2201 
Q 888 1928 888 1484 
z
" transform="scale(0.015625)"/>
       </defs>
       <use xlink:href="#ArialMT-36"/>
       <use xlink:href="#ArialMT-30" x="55.615234"/>
       <use xlink:href="#ArialMT-30" x="111.230469"/>
      </g>
     </g>
    </g>
    <g id="ytick_4">
     <g id="line2d_4">
      <path d="M 50.166094 163.005346 
L 608.166094 163.005346 
" clip-path="url(#p5c08052a81)" style="fill: none; stroke: #ffffff; stroke-linecap: round"/>
     </g>
     <g id="text_7">
      <!-- 650 -->
      <g style="fill: #262626" transform="translate(22.315 166.942143) scale(0.11 -0.11)">
       <use xlink:href="#ArialMT-36"/>
       <use xlink:href="#ArialMT-35" x="55.615234"/>
       <use xlink:href="#ArialMT-30" x="111.230469"/>
      </g>
     </g>
    </g>
    <g id="ytick_5">
     <g id="line2d_5">
      <path d="M 50.166094 106.230289 
L 608.166094 106.230289 
" clip-path="url(#p5c08052a81)" style="fill: none; stroke: #ffffff; stroke-linecap: round"/>
     </g>
     <g id="text_8">
      <!-- 700 -->
      <g style="fill: #262626" transform="translate(22.315 110.167086) scale(0.11 -0.11)">
       <defs>
        <path id="ArialMT-37" d="M 303 3981 
L 303 4522 
L 3269 4522 
L 3269 4084 
Q 2831 3619 2401 2847 
Q 1972 2075 1738 1259 
Q 1569 684 1522 0 
L 944 0 
Q 953 541 1156 1306 
Q 1359 2072 1739 2783 
Q 2119 3494 2547 3981 
L 303 3981 
z
" transform="scale(0.015625)"/>
       </defs>
       <use xlink:href="#ArialMT-37"/>
       <use xlink:href="#ArialMT-30" x="55.615234"/>
       <use xlink:href="#ArialMT-30" x="111.230469"/>
      </g>
     </g>
    </g>
    <g id="ytick_6">
     <g id="line2d_6">
      <path d="M 50.166094 49.455231 
L 608.166094 49.455231 
" clip-path="url(#p5c08052a81)" style="fill: none; stroke: #ffffff; stroke-linecap: round"/>
     </g>
     <g id="text_9">
      <!-- 750 -->
      <g style="fill: #262626" transform="translate(22.315 53.392028) scale(0.11 -0.11)">
       <use xlink:href="#ArialMT-37"/>
       <use xlink:href="#ArialMT-35" x="55.615234"/>
       <use xlink:href="#ArialMT-30" x="111.230469"/>
      </g>
     </g>
    </g>
    <g id="text_10">
     <!-- reading -->
     <g style="fill: #262626" transform="translate(15.789375 193.53375) rotate(-90) scale(0.12 -0.12)">
      <defs>
       <path id="ArialMT-64" d="M 2575 0 
L 2575 419 
Q 2259 -75 1647 -75 
Q 1250 -75 917 144 
Q 584 363 401 755 
Q 219 1147 219 1656 
Q 219 2153 384 2558 
Q 550 2963 881 3178 
Q 1213 3394 1622 3394 
Q 1922 3394 2156 3267 
Q 2391 3141 2538 2938 
L 2538 4581 
L 3097 4581 
L 3097 0 
L 2575 0 
z
M 797 1656 
Q 797 1019 1065 703 
Q 1334 388 1700 388 
Q 2069 388 2326 689 
Q 2584 991 2584 1609 
Q 2584 2291 2321 2609 
Q 2059 2928 1675 2928 
Q 1300 2928 1048 2622 
Q 797 2316 797 1656 
z
" transform="scale(0.015625)"/>
       <path id="ArialMT-69" d="M 425 3934 
L 425 4581 
L 988 4581 
L 988 3934 
L 425 3934 
z
M 425 0 
L 425 3319 
L 988 3319 
L 988 0 
L 425 0 
z
" transform="scale(0.015625)"/>
       <path id="ArialMT-6e" d="M 422 0 
L 422 3319 
L 928 3319 
L 928 2847 
Q 1294 3394 1984 3394 
Q 2284 3394 2536 3286 
Q 2788 3178 2913 3003 
Q 3038 2828 3088 2588 
Q 3119 2431 3119 2041 
L 3119 0 
L 2556 0 
L 2556 2019 
Q 2556 2363 2490 2533 
Q 2425 2703 2258 2804 
Q 2091 2906 1866 2906 
Q 1506 2906 1245 2678 
Q 984 2450 984 1813 
L 984 0 
L 422 0 
z
" transform="scale(0.015625)"/>
      </defs>
      <use xlink:href="#ArialMT-72"/>
      <use xlink:href="#ArialMT-65" x="33.300781"/>
      <use xlink:href="#ArialMT-61" x="88.916016"/>
      <use xlink:href="#ArialMT-64" x="144.53125"/>
      <use xlink:href="#ArialMT-69" x="200.146484"/>
      <use xlink:href="#ArialMT-6e" x="222.363281"/>
      <use xlink:href="#ArialMT-67" x="277.978516"/>
     </g>
    </g>
   </g>
   <g id="PolyCollection_1">
    <defs>
     <path id="m42c3165697" d="M 190.006636 -57.714036 
L 189.325552 -57.714036 
L 189.101762 -60.762619 
L 188.787972 -63.811202 
L 188.382198 -66.859785 
L 187.900369 -69.908368 
L 187.377975 -72.956951 
L 186.864388 -76.005534 
L 186.409341 -79.054117 
L 186.044694 -82.1027 
L 185.767881 -85.151283 
L 185.534146 -88.199866 
L 185.262031 -91.248449 
L 184.851239 -94.297032 
L 184.206499 -97.345615 
L 183.258271 -100.394198 
L 181.972548 -103.442781 
L 180.347091 -106.491364 
L 178.397538 -109.539947 
L 176.140792 -112.58853 
L 173.583185 -115.637113 
L 170.717369 -118.685696 
L 167.527274 -121.734279 
L 163.99724 -124.782862 
L 160.121265 -127.831445 
L 155.910208 -130.880028 
L 151.397093 -133.928611 
L 146.641286 -136.977193 
L 141.731169 -140.025776 
L 136.782998 -143.074359 
L 131.932908 -146.122942 
L 127.320598 -149.171525 
L 123.066739 -152.220108 
L 119.249884 -155.268691 
L 115.890433 -158.317274 
L 112.947819 -161.365857 
L 110.332827 -164.41444 
L 107.931589 -167.463023 
L 105.633653 -170.511606 
L 103.355162 -173.560189 
L 101.050432 -176.608772 
L 98.710062 -179.657355 
L 96.349355 -182.705938 
L 93.994683 -185.754521 
L 91.675671 -188.803104 
L 89.427394 -191.851687 
L 87.300939 -194.90027 
L 85.375693 -197.948853 
L 83.765063 -200.997436 
L 82.609853 -204.046019 
L 82.058858 -207.094602 
L 82.241814 -210.143185 
L 83.243371 -213.191768 
L 85.086823 -216.240351 
L 87.732962 -219.288934 
L 91.093789 -222.337517 
L 95.055105 -225.386099 
L 99.498735 -228.434682 
L 104.316204 -231.483265 
L 109.410788 -234.531848 
L 114.69139 -237.580431 
L 120.065757 -240.629014 
L 125.439844 -243.677597 
L 130.725149 -246.72618 
L 135.85008 -249.774763 
L 140.768395 -252.823346 
L 145.459262 -255.871929 
L 149.918199 -258.920512 
L 154.143093 -261.969095 
L 158.121983 -265.017678 
L 161.828122 -268.066261 
L 165.224098 -271.114844 
L 168.27246 -274.163427 
L 170.947653 -277.21201 
L 173.244039 -280.260593 
L 175.177245 -283.309176 
L 176.779667 -286.357759 
L 178.093788 -289.406342 
L 179.167546 -292.454925 
L 180.053709 -295.503508 
L 180.811414 -298.552091 
L 181.505199 -301.600674 
L 182.1975 -304.649257 
L 182.934877 -307.69784 
L 183.733621 -310.746423 
L 184.572913 -313.795006 
L 185.401109 -316.843588 
L 186.15423 -319.892171 
L 186.779268 -322.940754 
L 187.252426 -325.989337 
L 187.585085 -329.03792 
L 187.816273 -332.086503 
L 187.996321 -335.135086 
L 188.169312 -338.183669 
L 188.361117 -341.232252 
L 188.576277 -344.280835 
L 188.80281 -347.329418 
L 189.021221 -350.378001 
L 189.213323 -353.426584 
L 189.367853 -356.475167 
L 189.481973 -359.52375 
L 189.850214 -359.52375 
L 189.850214 -359.52375 
L 189.964335 -356.475167 
L 190.118865 -353.426584 
L 190.310967 -350.378001 
L 190.529377 -347.329418 
L 190.755911 -344.280835 
L 190.97107 -341.232252 
L 191.162876 -338.183669 
L 191.335866 -335.135086 
L 191.515914 -332.086503 
L 191.747102 -329.03792 
L 192.079761 -325.989337 
L 192.55292 -322.940754 
L 193.177958 -319.892171 
L 193.931079 -316.843588 
L 194.759275 -313.795006 
L 195.598566 -310.746423 
L 196.39731 -307.69784 
L 197.134687 -304.649257 
L 197.826988 -301.600674 
L 198.520773 -298.552091 
L 199.278478 -295.503508 
L 200.164642 -292.454925 
L 201.2384 -289.406342 
L 202.552521 -286.357759 
L 204.154942 -283.309176 
L 206.088149 -280.260593 
L 208.384535 -277.21201 
L 211.059728 -274.163427 
L 214.10809 -271.114844 
L 217.504066 -268.066261 
L 221.210205 -265.017678 
L 225.189094 -261.969095 
L 229.413988 -258.920512 
L 233.872925 -255.871929 
L 238.563793 -252.823346 
L 243.482107 -249.774763 
L 248.607038 -246.72618 
L 253.892344 -243.677597 
L 259.266431 -240.629014 
L 264.640798 -237.580431 
L 269.921399 -234.531848 
L 275.015984 -231.483265 
L 279.833453 -228.434682 
L 284.277083 -225.386099 
L 288.238398 -222.337517 
L 291.599225 -219.288934 
L 294.245364 -216.240351 
L 296.088817 -213.191768 
L 297.090374 -210.143185 
L 297.273329 -207.094602 
L 296.722334 -204.046019 
L 295.567125 -200.997436 
L 293.956494 -197.948853 
L 292.031249 -194.90027 
L 289.904794 -191.851687 
L 287.656516 -188.803104 
L 285.337504 -185.754521 
L 282.982832 -182.705938 
L 280.622125 -179.657355 
L 278.281755 -176.608772 
L 275.977025 -173.560189 
L 273.698535 -170.511606 
L 271.400599 -167.463023 
L 268.999361 -164.41444 
L 266.384368 -161.365857 
L 263.441755 -158.317274 
L 260.082303 -155.268691 
L 256.265448 -152.220108 
L 252.01159 -149.171525 
L 247.399279 -146.122942 
L 242.549189 -143.074359 
L 237.601018 -140.025776 
L 232.690902 -136.977193 
L 227.935095 -133.928611 
L 223.421979 -130.880028 
L 219.210922 -127.831445 
L 215.334947 -124.782862 
L 211.804914 -121.734279 
L 208.614818 -118.685696 
L 205.749003 -115.637113 
L 203.191395 -112.58853 
L 200.93465 -109.539947 
L 198.985097 -106.491364 
L 197.35964 -103.442781 
L 196.073916 -100.394198 
L 195.125688 -97.345615 
L 194.480949 -94.297032 
L 194.070157 -91.248449 
L 193.798042 -88.199866 
L 193.564306 -85.151283 
L 193.287493 -82.1027 
L 192.922847 -79.054117 
L 192.467799 -76.005534 
L 191.954212 -72.956951 
L 191.431818 -69.908368 
L 190.949989 -66.859785 
L 190.544215 -63.811202 
L 190.230426 -60.762619 
L 190.006636 -57.714036 
z
" style="stroke: #363636; stroke-width: 1.5"/>
    </defs>
    <g clip-path="url(#p5c08052a81)">
     <use xlink:href="#m42c3165697" x="0" y="381.84375" style="fill: #176d9c; stroke: #363636; stroke-width: 1.5"/>
    </g>
   </g>
   <g id="PolyCollection_2">
    <defs>
     <path id="m4f25a79420" d="M 468.766191 -57.12375 
L 468.565997 -57.12375 
L 468.48887 -60.161319 
L 468.369714 -63.198887 
L 468.195407 -66.236456 
L 467.951827 -69.274024 
L 467.623469 -72.311593 
L 467.192472 -75.349161 
L 466.637746 -78.38673 
L 465.935181 -81.424298 
L 465.059578 -84.461867 
L 463.988207 -87.499435 
L 462.705313 -90.537004 
L 461.206852 -93.574572 
L 459.504867 -96.612141 
L 457.630485 -99.649709 
L 455.633192 -102.687278 
L 453.57299 -105.724846 
L 451.50296 -108.762415 
L 449.443846 -111.799983 
L 447.358128 -114.837552 
L 445.135209 -117.875121 
L 442.598419 -120.912689 
L 439.537577 -123.950258 
L 435.760928 -126.987826 
L 431.151909 -130.025395 
L 425.713272 -133.062963 
L 419.58418 -136.100532 
L 413.023237 -139.1381 
L 406.35971 -142.175669 
L 399.924644 -145.213237 
L 393.981459 -148.250806 
L 388.678862 -151.288374 
L 384.043696 -154.325943 
L 380.016176 -157.363511 
L 376.509825 -160.40108 
L 373.464315 -163.438648 
L 370.862008 -166.476217 
L 368.699915 -169.513785 
L 366.937306 -172.551354 
L 365.457709 -175.588923 
L 364.079837 -178.626491 
L 362.62533 -181.66406 
L 361.015988 -184.701628 
L 359.349429 -187.739197 
L 357.905303 -190.776765 
L 357.066094 -193.814334 
L 357.181675 -196.851902 
L 358.43972 -199.889471 
L 360.803974 -202.927039 
L 364.047864 -205.964608 
L 367.861972 -209.002176 
L 371.978866 -212.039745 
L 376.25611 -215.077313 
L 380.685664 -218.114882 
L 385.33717 -221.15245 
L 390.272528 -224.190019 
L 395.47687 -227.227587 
L 400.836707 -230.265156 
L 406.169475 -233.302724 
L 411.283936 -236.340293 
L 416.039219 -239.377862 
L 420.375855 -242.41543 
L 424.310017 -245.452999 
L 427.901689 -248.490567 
L 431.217948 -251.528136 
L 434.30971 -254.565704 
L 437.208035 -257.603273 
L 439.933308 -260.640841 
L 442.505191 -263.67841 
L 444.944874 -266.715978 
L 447.269575 -269.753547 
L 449.485679 -272.791115 
L 451.587374 -275.828684 
L 453.562796 -278.866252 
L 455.403703 -281.903821 
L 457.111863 -284.941389 
L 458.697587 -287.978958 
L 460.171411 -291.016526 
L 461.535022 -294.054095 
L 462.778178 -297.091664 
L 463.884042 -300.129232 
L 464.839157 -303.166801 
L 465.641104 -306.204369 
L 466.299067 -309.241938 
L 466.828052 -312.279506 
L 467.241902 -315.317075 
L 467.550308 -318.354643 
L 467.761362 -321.392212 
L 467.887042 -324.42978 
L 467.947202 -327.467349 
L 467.968989 -330.504917 
L 467.981605 -333.542486 
L 468.009018 -336.580054 
L 468.064168 -339.617623 
L 468.147243 -342.655191 
L 468.248395 -345.69276 
L 468.353236 -348.730328 
L 468.448491 -351.767897 
L 468.525681 -354.805466 
L 468.582076 -357.843034 
L 468.750112 -357.843034 
L 468.750112 -357.843034 
L 468.806507 -354.805466 
L 468.883697 -351.767897 
L 468.978951 -348.730328 
L 469.083793 -345.69276 
L 469.184945 -342.655191 
L 469.26802 -339.617623 
L 469.32317 -336.580054 
L 469.350582 -333.542486 
L 469.363199 -330.504917 
L 469.384985 -327.467349 
L 469.445145 -324.42978 
L 469.570825 -321.392212 
L 469.78188 -318.354643 
L 470.090285 -315.317075 
L 470.504136 -312.279506 
L 471.033121 -309.241938 
L 471.691084 -306.204369 
L 472.493031 -303.166801 
L 473.448145 -300.129232 
L 474.55401 -297.091664 
L 475.797166 -294.054095 
L 477.160776 -291.016526 
L 478.6346 -287.978958 
L 480.220324 -284.941389 
L 481.928485 -281.903821 
L 483.769391 -278.866252 
L 485.744814 -275.828684 
L 487.846508 -272.791115 
L 490.062613 -269.753547 
L 492.387313 -266.715978 
L 494.826996 -263.67841 
L 497.398879 -260.640841 
L 500.124153 -257.603273 
L 503.022478 -254.565704 
L 506.11424 -251.528136 
L 509.430499 -248.490567 
L 513.022171 -245.452999 
L 516.956333 -242.41543 
L 521.292968 -239.377862 
L 526.048252 -236.340293 
L 531.162712 -233.302724 
L 536.49548 -230.265156 
L 541.855317 -227.227587 
L 547.05966 -224.190019 
L 551.995018 -221.15245 
L 556.646524 -218.114882 
L 561.076077 -215.077313 
L 565.353322 -212.039745 
L 569.470216 -209.002176 
L 573.284323 -205.964608 
L 576.528214 -202.927039 
L 578.892467 -199.889471 
L 580.150513 -196.851902 
L 580.266094 -193.814334 
L 579.426885 -190.776765 
L 577.982759 -187.739197 
L 576.316199 -184.701628 
L 574.706858 -181.66406 
L 573.252351 -178.626491 
L 571.874479 -175.588923 
L 570.394882 -172.551354 
L 568.632273 -169.513785 
L 566.47018 -166.476217 
L 563.867872 -163.438648 
L 560.822363 -160.40108 
L 557.316011 -157.363511 
L 553.288491 -154.325943 
L 548.653325 -151.288374 
L 543.350728 -148.250806 
L 537.407543 -145.213237 
L 530.972478 -142.175669 
L 524.30895 -139.1381 
L 517.748007 -136.100532 
L 511.618916 -133.062963 
L 506.180279 -130.025395 
L 501.571259 -126.987826 
L 497.79461 -123.950258 
L 494.733768 -120.912689 
L 492.196978 -117.875121 
L 489.97406 -114.837552 
L 487.888341 -111.799983 
L 485.829228 -108.762415 
L 483.759197 -105.724846 
L 481.698995 -102.687278 
L 479.701702 -99.649709 
L 477.82732 -96.612141 
L 476.125335 -93.574572 
L 474.626874 -90.537004 
L 473.34398 -87.499435 
L 472.272609 -84.461867 
L 471.397007 -81.424298 
L 470.694442 -78.38673 
L 470.139715 -75.349161 
L 469.708718 -72.311593 
L 469.38036 -69.274024 
L 469.136781 -66.236456 
L 468.962474 -63.198887 
L 468.843318 -60.161319 
L 468.766191 -57.12375 
z
" style="stroke: #363636; stroke-width: 1.5"/>
    </defs>
    <g clip-path="url(#p5c08052a81)">
     <use xlink:href="#m4f25a79420" x="0" y="381.84375" style="fill: #c38820; stroke: #363636; stroke-width: 1.5"/>
    </g>
   </g>
   <g id="line2d_7">
    <path d="M 189.666094 295.858981 
L 189.666094 74.436256 
" clip-path="url(#p5c08052a81)" style="fill: none; stroke: #363636; stroke-width: 1.5; stroke-linecap: round"/>
   </g>
   <g id="line2d_8">
    <path d="M 189.666094 212.967397 
L 189.666094 155.056838 
" clip-path="url(#p5c08052a81)" style="fill: none; stroke: #363636; stroke-width: 4.5; stroke-linecap: round"/>
   </g>
   <g id="line2d_9">
    <path d="M 468.666094 292.452478 
L 468.666094 91.468774 
" clip-path="url(#p5c08052a81)" style="fill: none; stroke: #363636; stroke-width: 1.5; stroke-linecap: round"/>
   </g>
   <g id="line2d_10">
    <path d="M 468.666094 217.509402 
L 468.666094 163.005346 
" clip-path="url(#p5c08052a81)" style="fill: none; stroke: #363636; stroke-width: 4.5; stroke-linecap: round"/>
   </g>
   <g id="patch_3">
    <path d="M 50.166094 339.84 
L 50.166094 7.2 
" style="fill: none; stroke: #ffffff; stroke-width: 1.25; stroke-linejoin: miter; stroke-linecap: square"/>
   </g>
   <g id="patch_4">
    <path d="M 608.166094 339.84 
L 608.166094 7.2 
" style="fill: none; stroke: #ffffff; stroke-width: 1.25; stroke-linejoin: miter; stroke-linecap: square"/>
   </g>
   <g id="patch_5">
    <path d="M 50.166094 339.84 
L 608.166094 339.84 
" style="fill: none; stroke: #ffffff; stroke-width: 1.25; stroke-linejoin: miter; stroke-linecap: square"/>
   </g>
   <g id="patch_6">
    <path d="M 50.166094 7.2 
L 608.166094 7.2 
" style="fill: none; stroke: #ffffff; stroke-width: 1.25; stroke-linejoin: miter; stroke-linecap: square"/>
   </g>
   <g id="PathCollection_1">
    <defs>
     <path id="m5015a74d1d" d="M 0 1.5 
C 0.397805 1.5 0.77937 1.341951 1.06066 1.06066 
C 1.341951 0.77937 1.5 0.397805 1.5 0 
C 1.5 -0.397805 1.341951 -0.77937 1.06066 -1.06066 
C 0.77937 -1.341951 0.397805 -1.5 0 -1.5 
C -0.397805 -1.5 -0.77937 -1.341951 -1.06066 -1.06066 
C -1.341951 -0.77937 -1.5 -0.397805 -1.5 0 
C -1.5 0.397805 -1.341951 0.77937 -1.06066 1.06066 
C -0.77937 1.341951 -0.397805 1.5 0 1.5 
z
" style="stroke: #363636"/>
    </defs>
    <g clip-path="url(#p5c08052a81)">
     <use xlink:href="#m5015a74d1d" x="189.666094" y="182.308866" style="fill: #ffffff; stroke: #363636"/>
    </g>
   </g>
   <g id="PathCollection_2">
    <g clip-path="url(#p5c08052a81)">
     <use xlink:href="#m5015a74d1d" x="468.666094" y="190.257374" style="fill: #ffffff; stroke: #363636"/>
    </g>
   </g>
  </g>
 </g>
 <defs>
  <clipPath id="p5c08052a81">
   <rect x="50.166094" y="7.2" width="558" height="332.64"/>
  </clipPath>
 </defs>
</svg>