<?xml version="1.0" encoding="utf-8" standalone="no"?>
<!DOCTYPE svg PUBLIC "-//W3C//DTD SVG 1.1//EN"
  "http://www.w3.org/Graphics/SVG/1.1/DTD/svg11.dtd">
<svg xmlns:xlink="http://www.w3.org/1999/xlink" width="607.612875pt" height="363.387875pt" viewBox="0 0 607.612875 363.387875" xmlns="http://www.w3.org/2000/svg" version="1.1">
 <metadata>
  <rdf:RDF xmlns:dc="http://purl.org/dc/elements/1.1/" xmlns:cc="http://creativecommons.org/ns#" xmlns:rdf="http://www.w3.org/1999/02/22-rdf-syntax-ns#">
   <cc:Work>
    <dc:type rdf:resource="http://purl.org/dc/dcmitype/StillImage"/>
    <dc:date>2023-05-08T00:37:41.321134</dc:date>
    <dc:format>image/svg+xml</dc:format>
    <dc:creator>
     <cc:Agent>
      <dc:title>Matplotlib v3.7.1, https://matplotlib.org/</dc:title>
     </cc:Agent>
    </dc:creator>
   </cc:Work>
  </rdf:RDF>
 </metadata>
 <defs>
  <style type="text/css">*{stroke-linejoin: round; stroke-linecap: butt}</style>
 </defs>
 <g id="figure_1">
  <g id="patch_1">
   <path d="M 0 363.387875 
L 607.612875 363.387875 
L 607.612875 0 
L 0 0 
z
" style="fill: #ffffff"/>
  </g>
  <g id="axes_1">
   <g id="patch_2">
    <path d="M 42.412875 339.84 
L 600.412875 339.84 
L 600.412875 7.2 
L 42.412875 7.2 
z
" style="fill: #eaeaf2"/>
   </g>
   <g id="matplotlib.axis_1">
    <g id="xtick_1">
     <g id="line2d_1">
      <path d="M 67.776511 339.84 
L 67.776511 7.2 
" clip-path="url(#p0cd083b1aa)" style="fill: none; stroke: #ffffff; stroke-width: 0.8; stroke-linecap: round"/>
     </g>
     <g id="text_1">
      <!-- 0 -->
      <g style="fill: #262626" transform="translate(65.329699 354.438875) scale(0.088 -0.088)">
       <defs>
        <path id="ArialMT-30" d="M 266 2259 
Q 266 3072 433 3567 
Q 600 4063 929 4331 
Q 1259 4600 1759 4600 
Q 2128 4600 2406 4451 
Q 2684 4303 2865 4023 
Q 3047 3744 3150 3342 
Q 3253 2941 3253 2259 
Q 3253 1453 3087 958 
Q 2922 463 2592 192 
Q 2263 -78 1759 -78 
Q 1097 -78 719 397 
Q 266 969 266 2259 
z
M 844 2259 
Q 844 1131 1108 757 
Q 1372 384 1759 384 
Q 2147 384 2411 759 
Q 2675 1134 2675 2259 
Q 2675 3391 2411 3762 
Q 2147 4134 1753 4134 
Q 1366 4134 1134 3806 
Q 844 3388 844 2259 
z
" transform="scale(0.015625)"/>
       </defs>
       <use xlink:href="#ArialMT-30"/>
      </g>
     </g>
    </g>
    <g id="xtick_2">
     <g id="line2d_2">
      <path d="M 138.231057 339.84 
L 138.231057 7.2 
" clip-path="url(#p0cd083b1aa)" style="fill: none; stroke: #ffffff; stroke-width: 0.8; stroke-linecap: round"/>
     </g>
     <g id="text_2">
      <!-- 50 -->
      <g style="fill: #262626" transform="translate(133.337432 354.438875) scale(0.088 -0.088)">
       <defs>
        <path id="ArialMT-35" d="M 266 1200 
L 856 1250 
Q 922 819 1161 601 
Q 1400 384 1738 384 
Q 2144 384 2425 690 
Q 2706 997 2706 1503 
Q 2706 1984 2436 2262 
Q 2166 2541 1728 2541 
Q 1456 2541 1237 2417 
Q 1019 2294 894 2097 
L 366 2166 
L 809 4519 
L 3088 4519 
L 3088 3981 
L 1259 3981 
L 1013 2750 
Q 1425 3038 1878 3038 
Q 2478 3038 2890 2622 
Q 3303 2206 3303 1553 
Q 3303 931 2941 478 
Q 2500 -78 1738 -78 
Q 1113 -78 717 272 
Q 322 622 266 1200 
z
" transform="scale(0.015625)"/>
       </defs>
       <use xlink:href="#ArialMT-35"/>
       <use xlink:href="#ArialMT-30" x="55.615234"/>
      </g>
     </g>
    </g>
    <g id="xtick_3">
     <g id="line2d_3">
      <path d="M 208.685602 339.84 
L 208.685602 7.2 
" clip-path="url(#p0cd083b1aa)" style="fill: none; stroke: #ffffff; stroke-width: 0.8; stroke-linecap: round"/>
     </g>
     <g id="text_3">
      <!-- 100 -->
      <g style="fill: #262626" transform="translate(201.345165 354.438875) scale(0.088 -0.088)">
       <defs>
        <path id="ArialMT-31" d="M 2384 0 
L 1822 0 
L 1822 3584 
Q 1619 3391 1289 3197 
Q 959 3003 697 2906 
L 697 3450 
Q 1169 3672 1522 3987 
Q 1875 4303 2022 4600 
L 2384 4600 
L 2384 0 
z
" transform="scale(0.015625)"/>
       </defs>
       <use xlink:href="#ArialMT-31"/>
       <use xlink:href="#ArialMT-30" x="55.615234"/>
       <use xlink:href="#ArialMT-30" x="111.230469"/>
      </g>
     </g>
    </g>
    <g id="xtick_4">
     <g id="line2d_4">
      <path d="M 279.140148 339.84 
L 279.140148 7.2 
" clip-path="url(#p0cd083b1aa)" style="fill: none; stroke: #ffffff; stroke-width: 0.8; stroke-linecap: round"/>
     </g>
     <g id="text_4">
      <!-- 150 -->
      <g style="fill: #262626" transform="translate(271.79971 354.438875) scale(0.088 -0.088)">
       <use xlink:href="#ArialMT-31"/>
       <use xlink:href="#ArialMT-35" x="55.615234"/>
       <use xlink:href="#ArialMT-30" x="111.230469"/>
      </g>
     </g>
    </g>
    <g id="xtick_5">
     <g id="line2d_5">
      <path d="M 349.594693 339.84 
L 349.594693 7.2 
" clip-path="url(#p0cd083b1aa)" style="fill: none; stroke: #ffffff; stroke-width: 0.8; stroke-linecap: round"/>
     </g>
     <g id="text_5">
      <!-- 200 -->
      <g style="fill: #262626" transform="translate(342.254256 354.438875) scale(0.088 -0.088)">
       <defs>
        <path id="ArialMT-32" d="M 3222 541 
L 3222 0 
L 194 0 
Q 188 203 259 391 
Q 375 700 629 1000 
Q 884 1300 1366 1694 
Q 2113 2306 2375 2664 
Q 2638 3022 2638 3341 
Q 2638 3675 2398 3904 
Q 2159 4134 1775 4134 
Q 1369 4134 1125 3890 
Q 881 3647 878 3216 
L 300 3275 
Q 359 3922 746 4261 
Q 1134 4600 1788 4600 
Q 2447 4600 2831 4234 
Q 3216 3869 3216 3328 
Q 3216 3053 3103 2787 
Q 2991 2522 2730 2228 
Q 2469 1934 1863 1422 
Q 1356 997 1212 845 
Q 1069 694 975 541 
L 3222 541 
z
" transform="scale(0.015625)"/>
       </defs>
       <use xlink:href="#ArialMT-32"/>
       <use xlink:href="#ArialMT-30" x="55.615234"/>
       <use xlink:href="#ArialMT-30" x="111.230469"/>
      </g>
     </g>
    </g>
    <g id="xtick_6">
     <g id="line2d_6">
      <path d="M 420.049239 339.84 
L 420.049239 7.2 
" clip-path="url(#p0cd083b1aa)" style="fill: none; stroke: #ffffff; stroke-width: 0.8; stroke-linecap: round"/>
     </g>
     <g id="text_6">
      <!-- 250 -->
      <g style="fill: #262626" transform="translate(412.708801 354.438875) scale(0.088 -0.088)">
       <use xlink:href="#ArialMT-32"/>
       <use xlink:href="#ArialMT-35" x="55.615234"/>
       <use xlink:href="#ArialMT-30" x="111.230469"/>
      </g>
     </g>
    </g>
    <g id="xtick_7">
     <g id="line2d_7">
      <path d="M 490.503784 339.84 
L 490.503784 7.2 
" clip-path="url(#p0cd083b1aa)" style="fill: none; stroke: #ffffff; stroke-width: 0.8; stroke-linecap: round"/>
     </g>
     <g id="text_7">
      <!-- 300 -->
      <g style="fill: #262626" transform="translate(483.163347 354.438875) scale(0.088 -0.088)">
       <defs>
        <path id="ArialMT-33" d="M 269 1209 
L 831 1284 
Q 928 806 1161 595 
Q 1394 384 1728 384 
Q 2125 384 2398 659 
Q 2672 934 2672 1341 
Q 2672 1728 2419 1979 
Q 2166 2231 1775 2231 
Q 1616 2231 1378 2169 
L 1441 2663 
Q 1497 2656 1531 2656 
Q 1891 2656 2178 2843 
Q 2466 3031 2466 3422 
Q 2466 3731 2256 3934 
Q 2047 4138 1716 4138 
Q 1388 4138 1169 3931 
Q 950 3725 888 3313 
L 325 3413 
Q 428 3978 793 4289 
Q 1159 4600 1703 4600 
Q 2078 4600 2393 4439 
Q 2709 4278 2876 4000 
Q 3044 3722 3044 3409 
Q 3044 3113 2884 2869 
Q 2725 2625 2413 2481 
Q 2819 2388 3044 2092 
Q 3269 1797 3269 1353 
Q 3269 753 2831 336 
Q 2394 -81 1725 -81 
Q 1122 -81 723 278 
Q 325 638 269 1209 
z
" transform="scale(0.015625)"/>
       </defs>
       <use xlink:href="#ArialMT-33"/>
       <use xlink:href="#ArialMT-30" x="55.615234"/>
       <use xlink:href="#ArialMT-30" x="111.230469"/>
      </g>
     </g>
    </g>
    <g id="xtick_8">
     <g id="line2d_8">
      <path d="M 560.95833 339.84 
L 560.95833 7.2 
" clip-path="url(#p0cd083b1aa)" style="fill: none; stroke: #ffffff; stroke-width: 0.8; stroke-linecap: round"/>
     </g>
     <g id="text_8">
      <!-- 350 -->
      <g style="fill: #262626" transform="translate(553.617892 354.438875) scale(0.088 -0.088)">
       <use xlink:href="#ArialMT-33"/>
       <use xlink:href="#ArialMT-35" x="55.615234"/>
       <use xlink:href="#ArialMT-30" x="111.230469"/>
      </g>
     </g>
    </g>
   </g>
   <g id="matplotlib.axis_2">
    <g id="ytick_1">
     <g id="line2d_9">
      <path d="M 42.412875 324.72 
L 600.412875 324.72 
" clip-path="url(#p0cd083b1aa)" style="fill: none; stroke: #ffffff; stroke-width: 0.8; stroke-linecap: round"/>
     </g>
     <g id="text_9">
      <!-- 0.0000 -->
      <g style="fill: #262626" transform="translate(7.2 327.869438) scale(0.088 -0.088)">
       <defs>
        <path id="ArialMT-2e" d="M 581 0 
L 581 641 
L 1222 641 
L 1222 0 
L 581 0 
z
" transform="scale(0.015625)"/>
       </defs>
       <use xlink:href="#ArialMT-30"/>
       <use xlink:href="#ArialMT-2e" x="55.615234"/>
       <use xlink:href="#ArialMT-30" x="83.398438"/>
       <use xlink:href="#ArialMT-30" x="139.013672"/>
       <use xlink:href="#ArialMT-30" x="194.628906"/>
       <use xlink:href="#ArialMT-30" x="250.244141"/>
      </g>
     </g>
    </g>
    <g id="ytick_2">
     <g id="line2d_10">
      <path d="M 42.412875 270.288 
L 600.412875 270.288 
" clip-path="url(#p0cd083b1aa)" style="fill: none; stroke: #ffffff; stroke-width: 0.8; stroke-linecap: round"/>
     </g>
     <g id="text_10">
      <!-- 0.0005 -->
      <g style="fill: #262626" transform="translate(7.2 273.437437) scale(0.088 -0.088)">
       <use xlink:href="#ArialMT-30"/>
       <use xlink:href="#ArialMT-2e" x="55.615234"/>
       <use xlink:href="#ArialMT-30" x="83.398438"/>
       <use xlink:href="#ArialMT-30" x="139.013672"/>
       <use xlink:href="#ArialMT-30" x="194.628906"/>
       <use xlink:href="#ArialMT-35" x="250.244141"/>
      </g>
     </g>
    </g>
    <g id="ytick_3">
     <g id="line2d_11">
      <path d="M 42.412875 215.856 
L 600.412875 215.856 
" clip-path="url(#p0cd083b1aa)" style="fill: none; stroke: #ffffff; stroke-width: 0.8; stroke-linecap: round"/>
     </g>
     <g id="text_11">
      <!-- 0.0010 -->
      <g style="fill: #262626" transform="translate(7.2 219.005437) scale(0.088 -0.088)">
       <use xlink:href="#ArialMT-30"/>
       <use xlink:href="#ArialMT-2e" x="55.615234"/>
       <use xlink:href="#ArialMT-30" x="83.398438"/>
       <use xlink:href="#ArialMT-30" x="139.013672"/>
       <use xlink:href="#ArialMT-31" x="194.628906"/>
       <use xlink:href="#ArialMT-30" x="250.244141"/>
      </g>
     </g>
    </g>
    <g id="ytick_4">
     <g id="line2d_12">
      <path d="M 42.412875 161.424 
L 600.412875 161.424 
" clip-path="url(#p0cd083b1aa)" style="fill: none; stroke: #ffffff; stroke-width: 0.8; stroke-linecap: round"/>
     </g>
     <g id="text_12">
      <!-- 0.0015 -->
      <g style="fill: #262626" transform="translate(7.2 164.573438) scale(0.088 -0.088)">
       <use xlink:href="#ArialMT-30"/>
       <use xlink:href="#ArialMT-2e" x="55.615234"/>
       <use xlink:href="#ArialMT-30" x="83.398438"/>
       <use xlink:href="#ArialMT-30" x="139.013672"/>
       <use xlink:href="#ArialMT-31" x="194.628906"/>
       <use xlink:href="#ArialMT-35" x="250.244141"/>
      </g>
     </g>
    </g>
    <g id="ytick_5">
     <g id="line2d_13">
      <path d="M 42.412875 106.992 
L 600.412875 106.992 
" clip-path="url(#p0cd083b1aa)" style="fill: none; stroke: #ffffff; stroke-width: 0.8; stroke-linecap: round"/>
     </g>
     <g id="text_13">
      <!-- 0.0020 -->
      <g style="fill: #262626" transform="translate(7.2 110.141438) scale(0.088 -0.088)">
       <use xlink:href="#ArialMT-30"/>
       <use xlink:href="#ArialMT-2e" x="55.615234"/>
       <use xlink:href="#ArialMT-30" x="83.398438"/>
       <use xlink:href="#ArialMT-30" x="139.013672"/>
       <use xlink:href="#ArialMT-32" x="194.628906"/>
       <use xlink:href="#ArialMT-30" x="250.244141"/>
      </g>
     </g>
    </g>
    <g id="ytick_6">
     <g id="line2d_14">
      <path d="M 42.412875 52.56 
L 600.412875 52.56 
" clip-path="url(#p0cd083b1aa)" style="fill: none; stroke: #ffffff; stroke-width: 0.8; stroke-linecap: round"/>
     </g>
     <g id="text_14">
      <!-- 0.0025 -->
      <g style="fill: #262626" transform="translate(7.2 55.709437) scale(0.088 -0.088)">
       <use xlink:href="#ArialMT-30"/>
       <use xlink:href="#ArialMT-2e" x="55.615234"/>
       <use xlink:href="#ArialMT-30" x="83.398438"/>
       <use xlink:href="#ArialMT-30" x="139.013672"/>
       <use xlink:href="#ArialMT-32" x="194.628906"/>
       <use xlink:href="#ArialMT-35" x="250.244141"/>
      </g>
     </g>
    </g>
   </g>
   <g id="PolyCollection_1">
    <defs>
     <path id="md56a3bd979" d="M 279.520983 -38.667875 
L 279.520983 -341.067875 
L 280.028764 -341.067875 
L 280.536544 -341.067875 
L 281.044325 -341.067875 
L 281.552105 -341.067875 
L 282.059886 -341.067875 
L 282.567666 -341.067875 
L 283.075447 -341.067875 
L 283.583227 -341.067875 
L 284.091008 -341.067875 
L 284.598788 -341.067875 
L 285.106569 -341.067875 
L 285.614349 -341.067875 
L 286.12213 -341.067875 
L 286.62991 -341.067875 
L 287.137691 -341.067875 
L 287.645471 -341.067875 
L 288.153252 -341.067875 
L 288.661032 -341.067875 
L 289.168813 -341.067875 
L 289.676593 -341.067875 
L 290.184374 -341.067875 
L 290.692154 -341.067875 
L 291.199935 -341.067875 
L 291.707715 -341.067875 
L 292.215496 -341.067875 
L 292.723276 -341.067875 
L 293.231057 -341.067875 
L 293.738837 -341.067875 
L 294.246618 -341.067875 
L 294.754398 -341.067875 
L 295.262179 -341.067875 
L 295.769959 -341.067875 
L 296.27774 -341.067875 
L 296.78552 -341.067875 
L 297.293301 -341.067875 
L 297.801081 -341.067875 
L 298.308862 -341.067875 
L 298.816642 -341.067875 
L 299.324423 -341.067875 
L 299.832203 -341.067875 
L 300.339984 -341.067875 
L 300.847764 -341.067875 
L 301.355545 -341.067875 
L 301.863325 -341.067875 
L 302.371106 -341.067875 
L 302.878886 -341.067875 
L 303.386667 -341.067875 
L 303.894447 -341.067875 
L 304.402228 -341.067875 
L 304.910008 -341.067875 
L 305.417789 -341.067875 
L 305.92557 -341.067875 
L 306.43335 -341.067875 
L 306.941131 -341.067875 
L 307.448911 -341.067875 
L 307.956692 -341.067875 
L 308.464472 -341.067875 
L 308.972253 -341.067875 
L 309.480033 -341.067875 
L 309.987814 -341.067875 
L 310.495594 -341.067875 
L 311.003375 -341.067875 
L 311.511155 -341.067875 
L 312.018936 -341.067875 
L 312.526716 -341.067875 
L 313.034497 -341.067875 
L 313.542277 -341.067875 
L 314.050058 -341.067875 
L 314.557838 -341.067875 
L 315.065619 -341.067875 
L 315.573399 -341.067875 
L 316.08118 -341.067875 
L 316.58896 -341.067875 
L 317.096741 -341.067875 
L 317.604521 -341.067875 
L 318.112302 -341.067875 
L 318.620082 -341.067875 
L 319.127863 -341.067875 
L 319.635643 -341.067875 
L 320.143424 -341.067875 
L 320.651204 -341.067875 
L 321.158985 -341.067875 
L 321.666765 -341.067875 
L 322.174546 -341.067875 
L 322.682326 -341.067875 
L 323.190107 -341.067875 
L 323.697887 -341.067875 
L 324.205668 -341.067875 
L 324.713448 -341.067875 
L 325.221229 -341.067875 
L 325.729009 -341.067875 
L 326.23679 -341.067875 
L 326.74457 -341.067875 
L 327.252351 -341.067875 
L 327.760131 -341.067875 
L 328.267912 -341.067875 
L 328.775692 -341.067875 
L 329.283473 -341.067875 
L 329.791253 -341.067875 
L 330.299034 -341.067875 
L 330.806814 -341.067875 
L 331.314595 -341.067875 
L 331.822375 -341.067875 
L 332.330156 -341.067875 
L 332.837936 -341.067875 
L 333.345717 -341.067875 
L 333.853497 -341.067875 
L 334.361278 -341.067875 
L 334.869058 -341.067875 
L 335.376839 -341.067875 
L 335.884619 -341.067875 
L 336.3924 -341.067875 
L 336.90018 -341.067875 
L 337.407961 -341.067875 
L 337.915742 -341.067875 
L 338.423522 -341.067875 
L 338.931303 -341.067875 
L 339.439083 -341.067875 
L 339.946864 -341.067875 
L 340.454644 -341.067875 
L 340.962425 -341.067875 
L 341.470205 -341.067875 
L 341.977986 -341.067875 
L 342.485766 -341.067875 
L 342.993547 -341.067875 
L 343.501327 -341.067875 
L 344.009108 -341.067875 
L 344.516888 -341.067875 
L 345.024669 -341.067875 
L 345.532449 -341.067875 
L 346.04023 -341.067875 
L 346.54801 -341.067875 
L 347.055791 -341.067875 
L 347.563571 -341.067875 
L 348.071352 -341.067875 
L 348.579132 -341.067875 
L 349.086913 -341.067875 
L 349.594693 -341.067875 
L 350.102474 -341.067875 
L 350.610254 -341.067875 
L 351.118035 -341.067875 
L 351.625815 -341.067875 
L 352.133596 -341.067875 
L 352.641376 -341.067875 
L 353.149157 -341.067875 
L 353.656937 -341.067875 
L 354.164718 -341.067875 
L 354.672498 -341.067875 
L 355.180279 -341.067875 
L 355.688059 -341.067875 
L 356.19584 -341.067875 
L 356.70362 -341.067875 
L 357.211401 -341.067875 
L 357.719181 -341.067875 
L 358.226962 -341.067875 
L 358.734742 -341.067875 
L 359.242523 -341.067875 
L 359.750303 -341.067875 
L 360.258084 -341.067875 
L 360.765864 -341.067875 
L 361.273645 -341.067875 
L 361.781425 -341.067875 
L 362.289206 -341.067875 
L 362.796986 -341.067875 
L 363.304767 -341.067875 
L 363.812547 -341.067875 
L 364.320328 -341.067875 
L 364.828108 -341.067875 
L 365.335889 -341.067875 
L 365.843669 -341.067875 
L 366.35145 -341.067875 
L 366.85923 -341.067875 
L 367.367011 -341.067875 
L 367.874791 -341.067875 
L 368.382572 -341.067875 
L 368.890352 -341.067875 
L 369.398133 -341.067875 
L 369.905913 -341.067875 
L 370.413694 -341.067875 
L 370.921475 -341.067875 
L 371.429255 -341.067875 
L 371.937036 -341.067875 
L 372.444816 -341.067875 
L 372.952597 -341.067875 
L 373.460377 -341.067875 
L 373.968158 -341.067875 
L 374.475938 -341.067875 
L 374.983719 -341.067875 
L 375.491499 -341.067875 
L 375.99928 -341.067875 
L 376.50706 -341.067875 
L 377.014841 -341.067875 
L 377.522621 -341.067875 
L 378.030402 -341.067875 
L 378.538182 -341.067875 
L 379.045963 -341.067875 
L 379.553743 -341.067875 
L 380.061524 -341.067875 
L 380.569304 -341.067875 
L 381.077085 -341.067875 
L 381.584865 -341.067875 
L 382.092646 -341.067875 
L 382.600426 -341.067875 
L 383.108207 -341.067875 
L 383.615987 -341.067875 
L 384.123768 -341.067875 
L 384.631548 -341.067875 
L 385.139329 -341.067875 
L 385.647109 -341.067875 
L 386.15489 -341.067875 
L 386.66267 -341.067875 
L 387.170451 -341.067875 
L 387.678231 -341.067875 
L 388.186012 -341.067875 
L 388.693792 -341.067875 
L 389.201573 -341.067875 
L 389.709353 -341.067875 
L 390.217134 -341.067875 
L 390.724914 -341.067875 
L 391.232695 -341.067875 
L 391.740475 -341.067875 
L 392.248256 -341.067875 
L 392.756036 -341.067875 
L 393.263817 -341.067875 
L 393.771597 -341.067875 
L 394.279378 -341.067875 
L 394.787158 -341.067875 
L 395.294939 -341.067875 
L 395.802719 -341.067875 
L 396.3105 -341.067875 
L 396.81828 -341.067875 
L 397.326061 -341.067875 
L 397.833841 -341.067875 
L 398.341622 -341.067875 
L 398.849402 -341.067875 
L 399.357183 -341.067875 
L 399.864963 -341.067875 
L 400.372744 -341.067875 
L 400.880524 -341.067875 
L 401.388305 -341.067875 
L 401.896085 -341.067875 
L 402.403866 -341.067875 
L 402.911646 -341.067875 
L 403.419427 -341.067875 
L 403.927208 -341.067875 
L 404.434988 -341.067875 
L 404.942769 -341.067875 
L 405.450549 -341.067875 
L 405.95833 -341.067875 
L 406.46611 -341.067875 
L 406.973891 -341.067875 
L 407.481671 -341.067875 
L 407.989452 -341.067875 
L 408.497232 -341.067875 
L 409.005013 -341.067875 
L 409.512793 -341.067875 
L 410.020574 -341.067875 
L 410.528354 -341.067875 
L 411.036135 -341.067875 
L 411.543915 -341.067875 
L 412.051696 -341.067875 
L 412.559476 -341.067875 
L 413.067257 -341.067875 
L 413.575037 -341.067875 
L 414.082818 -341.067875 
L 414.590598 -341.067875 
L 415.098379 -341.067875 
L 415.606159 -341.067875 
L 416.11394 -341.067875 
L 416.62172 -341.067875 
L 417.129501 -341.067875 
L 417.637281 -341.067875 
L 418.145062 -341.067875 
L 418.652842 -341.067875 
L 419.160623 -341.067875 
L 419.668403 -341.067875 
L 419.668403 -38.667875 
L 419.668403 -38.667875 
L 419.160623 -38.667875 
L 418.652842 -38.667875 
L 418.145062 -38.667875 
L 417.637281 -38.667875 
L 417.129501 -38.667875 
L 416.62172 -38.667875 
L 416.11394 -38.667875 
L 415.606159 -38.667875 
L 415.098379 -38.667875 
L 414.590598 -38.667875 
L 414.082818 -38.667875 
L 413.575037 -38.667875 
L 413.067257 -38.667875 
L 412.559476 -38.667875 
L 412.051696 -38.667875 
L 411.543915 -38.667875 
L 411.036135 -38.667875 
L 410.528354 -38.667875 
L 410.020574 -38.667875 
L 409.512793 -38.667875 
L 409.005013 -38.667875 
L 408.497232 -38.667875 
L 407.989452 -38.667875 
L 407.481671 -38.667875 
L 406.973891 -38.667875 
L 406.46611 -38.667875 
L 405.95833 -38.667875 
L 405.450549 -38.667875 
L 404.942769 -38.667875 
L 404.434988 -38.667875 
L 403.927208 -38.667875 
L 403.419427 -38.667875 
L 402.911646 -38.667875 
L 402.403866 -38.667875 
L 401.896085 -38.667875 
L 401.388305 -38.667875 
L 400.880524 -38.667875 
L 400.372744 -38.667875 
L 399.864963 -38.667875 
L 399.357183 -38.667875 
L 398.849402 -38.667875 
L 398.341622 -38.667875 
L 397.833841 -38.667875 
L 397.326061 -38.667875 
L 396.81828 -38.667875 
L 396.3105 -38.667875 
L 395.802719 -38.667875 
L 395.294939 -38.667875 
L 394.787158 -38.667875 
L 394.279378 -38.667875 
L 393.771597 -38.667875 
L 393.263817 -38.667875 
L 392.756036 -38.667875 
L 392.248256 -38.667875 
L 391.740475 -38.667875 
L 391.232695 -38.667875 
L 390.724914 -38.667875 
L 390.217134 -38.667875 
L 389.709353 -38.667875 
L 389.201573 -38.667875 
L 388.693792 -38.667875 
L 388.186012 -38.667875 
L 387.678231 -38.667875 
L 387.170451 -38.667875 
L 386.66267 -38.667875 
L 386.15489 -38.667875 
L 385.647109 -38.667875 
L 385.139329 -38.667875 
L 384.631548 -38.667875 
L 384.123768 -38.667875 
L 383.615987 -38.667875 
L 383.108207 -38.667875 
L 382.600426 -38.667875 
L 382.092646 -38.667875 
L 381.584865 -38.667875 
L 381.077085 -38.667875 
L 380.569304 -38.667875 
L 380.061524 -38.667875 
L 379.553743 -38.667875 
L 379.045963 -38.667875 
L 378.538182 -38.667875 
L 378.030402 -38.667875 
L 377.522621 -38.667875 
L 377.014841 -38.667875 
L 376.50706 -38.667875 
L 375.99928 -38.667875 
L 375.491499 -38.667875 
L 374.983719 -38.667875 
L 374.475938 -38.667875 
L 373.968158 -38.667875 
L 373.460377 -38.667875 
L 372.952597 -38.667875 
L 372.444816 -38.667875 
L 371.937036 -38.667875 
L 371.429255 -38.667875 
L 370.921475 -38.667875 
L 370.413694 -38.667875 
L 369.905913 -38.667875 
L 369.398133 -38.667875 
L 368.890352 -38.667875 
L 368.382572 -38.667875 
L 367.874791 -38.667875 
L 367.367011 -38.667875 
L 366.85923 -38.667875 
L 366.35145 -38.667875 
L 365.843669 -38.667875 
L 365.335889 -38.667875 
L 364.828108 -38.667875 
L 364.320328 -38.667875 
L 363.812547 -38.667875 
L 363.304767 -38.667875 
L 362.796986 -38.667875 
L 362.289206 -38.667875 
L 361.781425 -38.667875 
L 361.273645 -38.667875 
L 360.765864 -38.667875 
L 360.258084 -38.667875 
L 359.750303 -38.667875 
L 359.242523 -38.667875 
L 358.734742 -38.667875 
L 358.226962 -38.667875 
L 357.719181 -38.667875 
L 357.211401 -38.667875 
L 356.70362 -38.667875 
L 356.19584 -38.667875 
L 355.688059 -38.667875 
L 355.180279 -38.667875 
L 354.672498 -38.667875 
L 354.164718 -38.667875 
L 353.656937 -38.667875 
L 353.149157 -38.667875 
L 352.641376 -38.667875 
L 352.133596 -38.667875 
L 351.625815 -38.667875 
L 351.118035 -38.667875 
L 350.610254 -38.667875 
L 350.102474 -38.667875 
L 349.594693 -38.667875 
L 349.086913 -38.667875 
L 348.579132 -38.667875 
L 348.071352 -38.667875 
L 347.563571 -38.667875 
L 347.055791 -38.667875 
L 346.54801 -38.667875 
L 346.04023 -38.667875 
L 345.532449 -38.667875 
L 345.024669 -38.667875 
L 344.516888 -38.667875 
L 344.009108 -38.667875 
L 343.501327 -38.667875 
L 342.993547 -38.667875 
L 342.485766 -38.667875 
L 341.977986 -38.667875 
L 341.470205 -38.667875 
L 340.962425 -38.667875 
L 340.454644 -38.667875 
L 339.946864 -38.667875 
L 339.439083 -38.667875 
L 338.931303 -38.667875 
L 338.423522 -38.667875 
L 337.915742 -38.667875 
L 337.407961 -38.667875 
L 336.90018 -38.667875 
L 336.3924 -38.667875 
L 335.884619 -38.667875 
L 335.376839 -38.667875 
L 334.869058 -38.667875 
L 334.361278 -38.667875 
L 333.853497 -38.667875 
L 333.345717 -38.667875 
L 332.837936 -38.667875 
L 332.330156 -38.667875 
L 331.822375 -38.667875 
L 331.314595 -38.667875 
L 330.806814 -38.667875 
L 330.299034 -38.667875 
L 329.791253 -38.667875 
L 329.283473 -38.667875 
L 328.775692 -38.667875 
L 328.267912 -38.667875 
L 327.760131 -38.667875 
L 327.252351 -38.667875 
L 326.74457 -38.667875 
L 326.23679 -38.667875 
L 325.729009 -38.667875 
L 325.221229 -38.667875 
L 324.713448 -38.667875 
L 324.205668 -38.667875 
L 323.697887 -38.667875 
L 323.190107 -38.667875 
L 322.682326 -38.667875 
L 322.174546 -38.667875 
L 321.666765 -38.667875 
L 321.158985 -38.667875 
L 320.651204 -38.667875 
L 320.143424 -38.667875 
L 319.635643 -38.667875 
L 319.127863 -38.667875 
L 318.620082 -38.667875 
L 318.112302 -38.667875 
L 317.604521 -38.667875 
L 317.096741 -38.667875 
L 316.58896 -38.667875 
L 316.08118 -38.667875 
L 315.573399 -38.667875 
L 315.065619 -38.667875 
L 314.557838 -38.667875 
L 314.050058 -38.667875 
L 313.542277 -38.667875 
L 313.034497 -38.667875 
L 312.526716 -38.667875 
L 312.018936 -38.667875 
L 311.511155 -38.667875 
L 311.003375 -38.667875 
L 310.495594 -38.667875 
L 309.987814 -38.667875 
L 309.480033 -38.667875 
L 308.972253 -38.667875 
L 308.464472 -38.667875 
L 307.956692 -38.667875 
L 307.448911 -38.667875 
L 306.941131 -38.667875 
L 306.43335 -38.667875 
L 305.92557 -38.667875 
L 305.417789 -38.667875 
L 304.910008 -38.667875 
L 304.402228 -38.667875 
L 303.894447 -38.667875 
L 303.386667 -38.667875 
L 302.878886 -38.667875 
L 302.371106 -38.667875 
L 301.863325 -38.667875 
L 301.355545 -38.667875 
L 300.847764 -38.667875 
L 300.339984 -38.667875 
L 299.832203 -38.667875 
L 299.324423 -38.667875 
L 298.816642 -38.667875 
L 298.308862 -38.667875 
L 297.801081 -38.667875 
L 297.293301 -38.667875 
L 296.78552 -38.667875 
L 296.27774 -38.667875 
L 295.769959 -38.667875 
L 295.262179 -38.667875 
L 294.754398 -38.667875 
L 294.246618 -38.667875 
L 293.738837 -38.667875 
L 293.231057 -38.667875 
L 292.723276 -38.667875 
L 292.215496 -38.667875 
L 291.707715 -38.667875 
L 291.199935 -38.667875 
L 290.692154 -38.667875 
L 290.184374 -38.667875 
L 289.676593 -38.667875 
L 289.168813 -38.667875 
L 288.661032 -38.667875 
L 288.153252 -38.667875 
L 287.645471 -38.667875 
L 287.137691 -38.667875 
L 286.62991 -38.667875 
L 286.12213 -38.667875 
L 285.614349 -38.667875 
L 285.106569 -38.667875 
L 284.598788 -38.667875 
L 284.091008 -38.667875 
L 283.583227 -38.667875 
L 283.075447 -38.667875 
L 282.567666 -38.667875 
L 282.059886 -38.667875 
L 281.552105 -38.667875 
L 281.044325 -38.667875 
L 280.536544 -38.667875 
L 280.028764 -38.667875 
L 279.520983 -38.667875 
z
" style="stroke: #bfbfbf; stroke-width: 0.8"/>
    </defs>
    <g clip-path="url(#p0cd083b1aa)">
     <use xlink:href="#md56a3bd979" x="0" y="363.387875" style="fill: #bfbfbf; stroke: #bfbfbf; stroke-width: 0.8"/>
    </g>
   </g>
   <g id="line2d_15">
    <path d="M 67.776511 22.32 
L 575.049239 22.32 
L 575.049239 22.32 
" clip-path="url(#p0cd083b1aa)" style="fill: none; stroke: #0173b2; stroke-width: 1.2; stroke-linecap: round"/>
   </g>
   <g id="patch_3">
    <path d="M 42.412875 339.84 
L 42.412875 7.2 
" style="fill: none; stroke: #ffffff; stroke-linejoin: miter; stroke-linecap: square"/>
   </g>
   <g id="patch_4">
    <path d="M 600.412875 339.84 
L 600.412875 7.2 
" style="fill: none; stroke: #ffffff; stroke-linejoin: miter; stroke-linecap: square"/>
   </g>
   <g id="patch_5">
    <path d="M 42.412875 339.84 
L 600.412875 339.84 
" style="fill: none; stroke: #ffffff; stroke-linejoin: miter; stroke-linecap: square"/>
   </g>
   <g id="patch_6">
    <path d="M 42.412875 7.2 
L 600.412875 7.2 
" style="fill: none; stroke: #ffffff; stroke-linejoin: miter; stroke-linecap: square"/>
   </g>
  </g>
 </g>
 <defs>
  <clipPath id="p0cd083b1aa">
   <rect x="42.412875" y="7.2" width="558" height="332.64"/>
  </clipPath>
 </defs>
</svg>