<?xml version="1.0" encoding="utf-8" standalone="no"?>
<!DOCTYPE svg PUBLIC "-//W3C//DTD SVG 1.1//EN"
  "http://www.w3.org/Graphics/SVG/1.1/DTD/svg11.dtd">
<svg xmlns:xlink="http://www.w3.org/1999/xlink" width="572.4pt" height="378.189219pt" viewBox="0 0 572.4 378.189219" xmlns="http://www.w3.org/2000/svg" version="1.1">
 <metadata>
  <rdf:RDF xmlns:dc="http://purl.org/dc/elements/1.1/" xmlns:cc="http://creativecommons.org/ns#" xmlns:rdf="http://www.w3.org/1999/02/22-rdf-syntax-ns#">
   <cc:Work>
    <dc:type rdf:resource="http://purl.org/dc/dcmitype/StillImage"/>
    <dc:date>2023-05-11T20:07:37.275436</dc:date>
    <dc:format>image/svg+xml</dc:format>
    <dc:creator>
     <cc:Agent>
      <dc:title>Matplotlib v3.7.1, https://matplotlib.org/</dc:title>
     </cc:Agent>
    </dc:creator>
   </cc:Work>
  </rdf:RDF>
 </metadata>
 <defs>
  <style type="text/css">*{stroke-linejoin: round; stroke-linecap: butt}</style>
 </defs>
 <g id="figure_1">
  <g id="patch_1">
   <path d="M 0 378.189219 
L 572.4 378.189219 
L 572.4 0 
L 0 0 
z
" style="fill: #ffffff"/>
  </g>
  <g id="axes_1">
   <g id="patch_2">
    <path d="M 7.2 354.429375 
L 565.2 354.429375 
L 565.2 21.789375 
L 7.2 21.789375 
z
" style="fill: #eaeaf2"/>
   </g>
   <g id="matplotlib.axis_1">
    <g id="xtick_1">
     <g id="line2d_1">
      <path d="M 105.090674 354.429375 
L 105.090674 21.789375 
" clip-path="url(#p65ba4eb9a7)" style="fill: none; stroke: #ffffff; stroke-linecap: round"/>
     </g>
     <g id="line2d_2">
      <defs>
       <path id="m745e4ff499" d="M 0 0 
L 0 3 
" style="stroke: #808080"/>
      </defs>
      <g>
       <use xlink:href="#m745e4ff499" x="105.090674" y="354.429375" style="fill: #808080; stroke: #808080"/>
      </g>
     </g>
     <g id="text_1">
      <!-- 5 -->
      <g style="fill: #262626" transform="translate(102.032158 368.802969) scale(0.11 -0.11)">
       <defs>
        <path id="ArialMT-35" d="M 266 1200 
L 856 1250 
Q 922 819 1161 601 
Q 1400 384 1738 384 
Q 2144 384 2425 690 
Q 2706 997 2706 1503 
Q 2706 1984 2436 2262 
Q 2166 2541 1728 2541 
Q 1456 2541 1237 2417 
Q 1019 2294 894 2097 
L 366 2166 
L 809 4519 
L 3088 4519 
L 3088 3981 
L 1259 3981 
L 1013 2750 
Q 1425 3038 1878 3038 
Q 2478 3038 2890 2622 
Q 3303 2206 3303 1553 
Q 3303 931 2941 478 
Q 2500 -78 1738 -78 
Q 1113 -78 717 272 
Q 322 622 266 1200 
z
" transform="scale(0.015625)"/>
       </defs>
       <use xlink:href="#ArialMT-35"/>
      </g>
     </g>
    </g>
    <g id="xtick_2">
     <g id="line2d_3">
      <path d="M 226.726625 354.429375 
L 226.726625 21.789375 
" clip-path="url(#p65ba4eb9a7)" style="fill: none; stroke: #ffffff; stroke-linecap: round"/>
     </g>
     <g id="line2d_4">
      <g>
       <use xlink:href="#m745e4ff499" x="226.726625" y="354.429375" style="fill: #808080; stroke: #808080"/>
      </g>
     </g>
     <g id="text_2">
      <!-- 10 -->
      <g style="fill: #262626" transform="translate(220.609594 368.802969) scale(0.11 -0.11)">
       <defs>
        <path id="ArialMT-31" d="M 2384 0 
L 1822 0 
L 1822 3584 
Q 1619 3391 1289 3197 
Q 959 3003 697 2906 
L 697 3450 
Q 1169 3672 1522 3987 
Q 1875 4303 2022 4600 
L 2384 4600 
L 2384 0 
z
" transform="scale(0.015625)"/>
        <path id="ArialMT-30" d="M 266 2259 
Q 266 3072 433 3567 
Q 600 4063 929 4331 
Q 1259 4600 1759 4600 
Q 2128 4600 2406 4451 
Q 2684 4303 2865 4023 
Q 3047 3744 3150 3342 
Q 3253 2941 3253 2259 
Q 3253 1453 3087 958 
Q 2922 463 2592 192 
Q 2263 -78 1759 -78 
Q 1097 -78 719 397 
Q 266 969 266 2259 
z
M 844 2259 
Q 844 1131 1108 757 
Q 1372 384 1759 384 
Q 2147 384 2411 759 
Q 2675 1134 2675 2259 
Q 2675 3391 2411 3762 
Q 2147 4134 1753 4134 
Q 1366 4134 1134 3806 
Q 844 3388 844 2259 
z
" transform="scale(0.015625)"/>
       </defs>
       <use xlink:href="#ArialMT-31"/>
       <use xlink:href="#ArialMT-30" x="55.615234"/>
      </g>
     </g>
    </g>
    <g id="xtick_3">
     <g id="line2d_5">
      <path d="M 348.362576 354.429375 
L 348.362576 21.789375 
" clip-path="url(#p65ba4eb9a7)" style="fill: none; stroke: #ffffff; stroke-linecap: round"/>
     </g>
     <g id="line2d_6">
      <g>
       <use xlink:href="#m745e4ff499" x="348.362576" y="354.429375" style="fill: #808080; stroke: #808080"/>
      </g>
     </g>
     <g id="text_3">
      <!-- 15 -->
      <g style="fill: #262626" transform="translate(342.245545 368.802969) scale(0.11 -0.11)">
       <use xlink:href="#ArialMT-31"/>
       <use xlink:href="#ArialMT-35" x="55.615234"/>
      </g>
     </g>
    </g>
    <g id="xtick_4">
     <g id="line2d_7">
      <path d="M 469.998527 354.429375 
L 469.998527 21.789375 
" clip-path="url(#p65ba4eb9a7)" style="fill: none; stroke: #ffffff; stroke-linecap: round"/>
     </g>
     <g id="line2d_8">
      <g>
       <use xlink:href="#m745e4ff499" x="469.998527" y="354.429375" style="fill: #808080; stroke: #808080"/>
      </g>
     </g>
     <g id="text_4">
      <!-- 20 -->
      <g style="fill: #262626" transform="translate(463.881496 368.802969) scale(0.11 -0.11)">
       <defs>
        <path id="ArialMT-32" d="M 3222 541 
L 3222 0 
L 194 0 
Q 188 203 259 391 
Q 375 700 629 1000 
Q 884 1300 1366 1694 
Q 2113 2306 2375 2664 
Q 2638 3022 2638 3341 
Q 2638 3675 2398 3904 
Q 2159 4134 1775 4134 
Q 1369 4134 1125 3890 
Q 881 3647 878 3216 
L 300 3275 
Q 359 3922 746 4261 
Q 1134 4600 1788 4600 
Q 2447 4600 2831 4234 
Q 3216 3869 3216 3328 
Q 3216 3053 3103 2787 
Q 2991 2522 2730 2228 
Q 2469 1934 1863 1422 
Q 1356 997 1212 845 
Q 1069 694 975 541 
L 3222 541 
z
" transform="scale(0.015625)"/>
       </defs>
       <use xlink:href="#ArialMT-32"/>
       <use xlink:href="#ArialMT-30" x="55.615234"/>
      </g>
     </g>
    </g>
   </g>
   <g id="matplotlib.axis_2"/>
   <g id="PolyCollection_1">
    <defs>
     <path id="m40ab12b5f7" d="M 32.563636 -38.879844 
L 32.563636 -44.401909 
L 33.556342 -44.44671 
L 34.549048 -44.579816 
L 35.541754 -44.798257 
L 36.53446 -45.100337 
L 37.527166 -45.474912 
L 38.519872 -45.931774 
L 39.512578 -46.466394 
L 40.505284 -47.086943 
L 41.49799 -47.764961 
L 42.490696 -48.517878 
L 43.483402 -49.335597 
L 44.476107 -50.21008 
L 45.468813 -51.138293 
L 46.461519 -52.152256 
L 47.454225 -53.206384 
L 48.446931 -54.312373 
L 49.439637 -55.477067 
L 50.432343 -56.690045 
L 51.425049 -57.958547 
L 52.417755 -59.269654 
L 53.410461 -60.627951 
L 54.403167 -62.044957 
L 55.395873 -63.520264 
L 56.388579 -65.044125 
L 57.381284 -66.636096 
L 58.37399 -68.292869 
L 59.366696 -69.998963 
L 60.359402 -71.774195 
L 61.352108 -73.601769 
L 62.344814 -75.528881 
L 63.33752 -77.489704 
L 64.330226 -79.511871 
L 65.322932 -81.598907 
L 66.315638 -83.733466 
L 67.308344 -85.920369 
L 68.30105 -88.152853 
L 69.293756 -90.448068 
L 70.286461 -92.782014 
L 71.279167 -95.17956 
L 72.271873 -97.628056 
L 73.264579 -100.120147 
L 74.257285 -102.655316 
L 75.249991 -105.246706 
L 76.242697 -107.900835 
L 77.235403 -110.600356 
L 78.228109 -113.345899 
L 79.220815 -116.157148 
L 80.213521 -119.021541 
L 81.206227 -121.949611 
L 82.198933 -124.920491 
L 83.191638 -127.965168 
L 84.184344 -131.062449 
L 85.17705 -134.219967 
L 86.169756 -137.409382 
L 87.162462 -140.657313 
L 88.155168 -143.9326 
L 89.147874 -147.29321 
L 90.14058 -150.65071 
L 91.133286 -154.030763 
L 92.125992 -157.426834 
L 93.118698 -160.886944 
L 94.111404 -164.333793 
L 95.10411 -167.812298 
L 96.096816 -171.304034 
L 97.089521 -174.834919 
L 98.082227 -178.386308 
L 99.074933 -181.988448 
L 100.067639 -185.608334 
L 101.060345 -189.285178 
L 102.053051 -193.032928 
L 103.045757 -196.793627 
L 104.038463 -200.614746 
L 105.031169 -204.491951 
L 106.023875 -208.448056 
L 107.016581 -212.448868 
L 108.009287 -216.483981 
L 109.001993 -220.5678 
L 109.994698 -224.653074 
L 110.987404 -228.811141 
L 111.98011 -232.97768 
L 112.972816 -237.159999 
L 113.965522 -241.328828 
L 114.958228 -245.472266 
L 115.950934 -249.593858 
L 116.94364 -253.655494 
L 117.936346 -257.625809 
L 118.929052 -261.493885 
L 119.921758 -265.301127 
L 120.914464 -268.993654 
L 121.90717 -272.571362 
L 122.899875 -276.01908 
L 123.892581 -279.291257 
L 124.885287 -282.444564 
L 125.877993 -285.406315 
L 126.870699 -288.260925 
L 127.863405 -290.971999 
L 128.856111 -293.474755 
L 129.848817 -295.841111 
L 130.841523 -298.075189 
L 131.834229 -300.158069 
L 132.826935 -302.114385 
L 133.819641 -303.929116 
L 134.812347 -305.650875 
L 135.805052 -307.285219 
L 136.797758 -308.817759 
L 137.790464 -310.278663 
L 138.78317 -311.690248 
L 139.775876 -313.07273 
L 140.768582 -314.420661 
L 141.761288 -315.791766 
L 142.753994 -317.09318 
L 143.7467 -318.427464 
L 144.739406 -319.756079 
L 145.732112 -321.09099 
L 146.724818 -322.398338 
L 147.717524 -323.744462 
L 148.710229 -325.07968 
L 149.702935 -326.418387 
L 150.695641 -327.740851 
L 151.688347 -329.024073 
L 152.681053 -330.258551 
L 153.673759 -331.496382 
L 154.666465 -332.676472 
L 155.659171 -333.833089 
L 156.651877 -334.836404 
L 157.644583 -335.81487 
L 158.637289 -336.7292 
L 159.629995 -337.562773 
L 160.622701 -338.308545 
L 161.615407 -338.989337 
L 162.608112 -339.559085 
L 163.600818 -340.069161 
L 164.593524 -340.46143 
L 165.58623 -340.798198 
L 166.578936 -341.046849 
L 167.571642 -341.211172 
L 168.564348 -341.279844 
L 169.557054 -341.254649 
L 170.54976 -341.134297 
L 171.542466 -340.924586 
L 172.535172 -340.604941 
L 173.527878 -340.167944 
L 174.520584 -339.569367 
L 175.513289 -338.870807 
L 176.505995 -338.004247 
L 177.498701 -337.019868 
L 178.491407 -335.934307 
L 179.484113 -334.661744 
L 180.476819 -333.283386 
L 181.469525 -331.786337 
L 182.462231 -330.200173 
L 183.454937 -328.460228 
L 184.447643 -326.62318 
L 185.440349 -324.714971 
L 186.433055 -322.781816 
L 187.425761 -320.798366 
L 188.418466 -318.748052 
L 189.411172 -316.684963 
L 190.403878 -314.603614 
L 191.396584 -312.504331 
L 192.38929 -310.464539 
L 193.381996 -308.415749 
L 194.374702 -306.356545 
L 195.367408 -304.330551 
L 196.360114 -302.300592 
L 197.35282 -300.312952 
L 198.345526 -298.327896 
L 199.338232 -296.353679 
L 200.330938 -294.423827 
L 201.323643 -292.54106 
L 202.316349 -290.612104 
L 203.309055 -288.701547 
L 204.301761 -286.773887 
L 205.294467 -284.811731 
L 206.287173 -282.900311 
L 207.279879 -280.935571 
L 208.272585 -279.013565 
L 209.265291 -277.06781 
L 210.257997 -275.121017 
L 211.250703 -273.122101 
L 212.243409 -271.121231 
L 213.236115 -269.128085 
L 214.22882 -267.094957 
L 215.221526 -265.075695 
L 216.214232 -263.024614 
L 217.206938 -260.962487 
L 218.199644 -258.881864 
L 219.19235 -256.757465 
L 220.185056 -254.697014 
L 221.177762 -252.589198 
L 222.170468 -250.464988 
L 223.163174 -248.344189 
L 224.15588 -246.227276 
L 225.148586 -244.144513 
L 226.141292 -242.077828 
L 227.133998 -240.026854 
L 228.126703 -237.995485 
L 229.119409 -235.949133 
L 230.112115 -233.93834 
L 231.104821 -231.932876 
L 232.097527 -229.929007 
L 233.090233 -227.907911 
L 234.082939 -225.89106 
L 235.075645 -223.852706 
L 236.068351 -221.782884 
L 237.061057 -219.666171 
L 238.053763 -217.504312 
L 239.046469 -215.280901 
L 240.039175 -213.023866 
L 241.03188 -210.682152 
L 242.024586 -208.263861 
L 243.017292 -205.824476 
L 244.009998 -203.294888 
L 245.002704 -200.703308 
L 245.99541 -198.054547 
L 246.988116 -195.359125 
L 247.980822 -192.637555 
L 248.973528 -189.873676 
L 249.966234 -187.084275 
L 250.95894 -184.325084 
L 251.951646 -181.567622 
L 252.944352 -178.836369 
L 253.937057 -176.130127 
L 254.929763 -173.479767 
L 255.922469 -170.861772 
L 256.915175 -168.317855 
L 257.907881 -165.843777 
L 258.900587 -163.431939 
L 259.893293 -161.104013 
L 260.885999 -158.83875 
L 261.878705 -156.641651 
L 262.871411 -154.528383 
L 263.864117 -152.497552 
L 264.856823 -150.524797 
L 265.849529 -148.669545 
L 266.842234 -146.873799 
L 267.83494 -145.182795 
L 268.827646 -143.56733 
L 269.820352 -142.016205 
L 270.813058 -140.529574 
L 271.805764 -139.055728 
L 272.79847 -137.676303 
L 273.791176 -136.346886 
L 274.783882 -135.062429 
L 275.776588 -133.829399 
L 276.769294 -132.599709 
L 277.762 -131.399893 
L 278.754706 -130.226285 
L 279.747411 -129.068524 
L 280.740117 -127.916381 
L 281.732823 -126.79013 
L 282.725529 -125.658907 
L 283.718235 -124.49616 
L 284.710941 -123.354465 
L 285.703647 -122.189467 
L 286.696353 -121.021744 
L 287.689059 -119.845043 
L 288.681765 -118.650047 
L 289.674471 -117.470484 
L 290.667177 -116.280893 
L 291.659883 -115.087326 
L 292.652589 -113.876693 
L 293.645294 -112.691834 
L 294.638 -111.473219 
L 295.630706 -110.264981 
L 296.623412 -109.045821 
L 297.616118 -107.840096 
L 298.608824 -106.619531 
L 299.60153 -105.405603 
L 300.594236 -104.197271 
L 301.586942 -102.974788 
L 302.579648 -101.737107 
L 303.572354 -100.498071 
L 304.56506 -99.254849 
L 305.557766 -97.993774 
L 306.550471 -96.73583 
L 307.543177 -95.484579 
L 308.535883 -94.233903 
L 309.528589 -92.978938 
L 310.521295 -91.747063 
L 311.514001 -90.508092 
L 312.506707 -89.291619 
L 313.499413 -88.089732 
L 314.492119 -86.909924 
L 315.484825 -85.774545 
L 316.477531 -84.649831 
L 317.470237 -83.563839 
L 318.462943 -82.522481 
L 319.455648 -81.5294 
L 320.448354 -80.561419 
L 321.44106 -79.642219 
L 322.433766 -78.772091 
L 323.426472 -77.938507 
L 324.419178 -77.164862 
L 325.411884 -76.419728 
L 326.40459 -75.711017 
L 327.397296 -75.032349 
L 328.390002 -74.383854 
L 329.382708 -73.765975 
L 330.375414 -73.169578 
L 331.36812 -72.593025 
L 332.360825 -72.02897 
L 333.353531 -71.466349 
L 334.346237 -70.912688 
L 335.338943 -70.368797 
L 336.331649 -69.809023 
L 337.324355 -69.236689 
L 338.317061 -68.650771 
L 339.309767 -68.038861 
L 340.302473 -67.423986 
L 341.295179 -66.788152 
L 342.287885 -66.12079 
L 343.280591 -65.427748 
L 344.273297 -64.715833 
L 345.266002 -63.982263 
L 346.258708 -63.238984 
L 347.251414 -62.486151 
L 348.24412 -61.714044 
L 349.236826 -60.93734 
L 350.229532 -60.153934 
L 351.222238 -59.376996 
L 352.214944 -58.596048 
L 353.20765 -57.821834 
L 354.200356 -57.072787 
L 355.193062 -56.351943 
L 356.185768 -55.652332 
L 357.178474 -54.971664 
L 358.17118 -54.333575 
L 359.163885 -53.725979 
L 360.156591 -53.158125 
L 361.149297 -52.614317 
L 362.142003 -52.117473 
L 363.134709 -51.64987 
L 364.127415 -51.227701 
L 365.120121 -50.848299 
L 366.112827 -50.498161 
L 367.105533 -50.175545 
L 368.098239 -49.890367 
L 369.090945 -49.633157 
L 370.083651 -49.407089 
L 371.076357 -49.210103 
L 372.069062 -49.035409 
L 373.061768 -48.88329 
L 374.054474 -48.755143 
L 375.04718 -48.641613 
L 376.039886 -48.538994 
L 377.032592 -48.443529 
L 378.025298 -48.354382 
L 379.018004 -48.262396 
L 380.01071 -48.179909 
L 381.003416 -48.095481 
L 381.996122 -47.995498 
L 382.988828 -47.900373 
L 383.981534 -47.796044 
L 384.974239 -47.676755 
L 385.966945 -47.544296 
L 386.959651 -47.403906 
L 387.952357 -47.246939 
L 388.945063 -47.086281 
L 389.937769 -46.916398 
L 390.930475 -46.734873 
L 391.923181 -46.544124 
L 392.915887 -46.351248 
L 393.908593 -46.152667 
L 394.901299 -45.954033 
L 395.894005 -45.751071 
L 396.886711 -45.551445 
L 397.879416 -45.36251 
L 398.872122 -45.167831 
L 399.864828 -44.985915 
L 400.857534 -44.807147 
L 401.85024 -44.633507 
L 402.842946 -44.464534 
L 403.835652 -44.301056 
L 404.828358 -44.141723 
L 405.821064 -43.982047 
L 406.81377 -43.823098 
L 407.806476 -43.662294 
L 408.799182 -43.503805 
L 409.791888 -43.346022 
L 410.784593 -43.181955 
L 411.777299 -43.014411 
L 412.770005 -42.850026 
L 413.762711 -42.685691 
L 414.755417 -42.514026 
L 415.748123 -42.34615 
L 416.740829 -42.175879 
L 417.733535 -42.01158 
L 418.726241 -41.853115 
L 419.718947 -41.696889 
L 420.711653 -41.548954 
L 421.704359 -41.410767 
L 422.697065 -41.279147 
L 423.689771 -41.155754 
L 424.682476 -41.051764 
L 425.675182 -40.959873 
L 426.667888 -40.878865 
L 427.660594 -40.812885 
L 428.6533 -40.7586 
L 429.646006 -40.719593 
L 430.638712 -40.693534 
L 431.631418 -40.678361 
L 432.624124 -40.676838 
L 433.61683 -40.684297 
L 434.609536 -40.699926 
L 435.602242 -40.727282 
L 436.594948 -40.759051 
L 437.587653 -40.792412 
L 438.580359 -40.840449 
L 439.573065 -40.885124 
L 440.565771 -40.927941 
L 441.558477 -40.968782 
L 442.551183 -41.00609 
L 443.543889 -41.040029 
L 444.536595 -41.065868 
L 445.529301 -41.088408 
L 446.522007 -41.096766 
L 447.514713 -41.102824 
L 448.507419 -41.100302 
L 449.500125 -41.089509 
L 450.49283 -41.069428 
L 451.485536 -41.044354 
L 452.478242 -41.011574 
L 453.470948 -40.975715 
L 454.463654 -40.935858 
L 455.45636 -40.893211 
L 456.449066 -40.848944 
L 457.441772 -40.804133 
L 458.434478 -40.759711 
L 459.427184 -40.714864 
L 460.41989 -40.675774 
L 461.412596 -40.635588 
L 462.405302 -40.59952 
L 463.398007 -40.565373 
L 464.390713 -40.532847 
L 465.383419 -40.501463 
L 466.376125 -40.470612 
L 467.368831 -40.439599 
L 468.361537 -40.407702 
L 469.354243 -40.374228 
L 470.346949 -40.338557 
L 471.339655 -40.300193 
L 472.332361 -40.258789 
L 473.325067 -40.209494 
L 474.317773 -40.162936 
L 475.310479 -40.113051 
L 476.303184 -40.060265 
L 477.29589 -40.002006 
L 478.288596 -39.945992 
L 479.281302 -39.888753 
L 480.274008 -39.831054 
L 481.266714 -39.773632 
L 482.25942 -39.714044 
L 483.252126 -39.65996 
L 484.244832 -39.607697 
L 485.237538 -39.55611 
L 486.230244 -39.507462 
L 487.22295 -39.463367 
L 488.215656 -39.420249 
L 489.208362 -39.38164 
L 490.201067 -39.34536 
L 491.193773 -39.311281 
L 492.186479 -39.279229 
L 493.179185 -39.249012 
L 494.171891 -39.220438 
L 495.164597 -39.19333 
L 496.157303 -39.167539 
L 497.150009 -39.142951 
L 498.142715 -39.119488 
L 499.135421 -39.097105 
L 500.128127 -39.075794 
L 501.120833 -39.055567 
L 502.113539 -39.031779 
L 503.106244 -39.013527 
L 504.09895 -38.99814 
L 505.091656 -38.983644 
L 506.084362 -38.970147 
L 507.077068 -38.957726 
L 508.069774 -38.946426 
L 509.06248 -38.936817 
L 510.055186 -38.931035 
L 511.047892 -38.92506 
L 512.040598 -38.920513 
L 513.033304 -38.917448 
L 514.02601 -38.915923 
L 515.018716 -38.915996 
L 516.011421 -38.917733 
L 517.004127 -38.92121 
L 517.996833 -38.926508 
L 518.989539 -38.93371 
L 519.982245 -38.942901 
L 520.974951 -38.954156 
L 521.967657 -38.967531 
L 522.960363 -38.983059 
L 523.953069 -38.999173 
L 524.945775 -39.019359 
L 525.938481 -39.041422 
L 526.931187 -39.065209 
L 527.923893 -39.090495 
L 528.916598 -39.116972 
L 529.909304 -39.144261 
L 530.90201 -39.171911 
L 531.894716 -39.199411 
L 532.887422 -39.226204 
L 533.880128 -39.251704 
L 534.872834 -39.275318 
L 535.86554 -39.296466 
L 536.858246 -39.314608 
L 537.850952 -39.329263 
L 538.843658 -39.340032 
L 539.836364 -39.346617 
L 539.836364 -38.879844 
L 539.836364 -38.879844 
L 538.843658 -38.879844 
L 537.850952 -38.879844 
L 536.858246 -38.879844 
L 535.86554 -38.879844 
L 534.872834 -38.879844 
L 533.880128 -38.879844 
L 532.887422 -38.879844 
L 531.894716 -38.879844 
L 530.90201 -38.879844 
L 529.909304 -38.879844 
L 528.916598 -38.879844 
L 527.923893 -38.879844 
L 526.931187 -38.879844 
L 525.938481 -38.879844 
L 524.945775 -38.879844 
L 523.953069 -38.879844 
L 522.960363 -38.879844 
L 521.967657 -38.879844 
L 520.974951 -38.879844 
L 519.982245 -38.879844 
L 518.989539 -38.879844 
L 517.996833 -38.879844 
L 517.004127 -38.879844 
L 516.011421 -38.879844 
L 515.018716 -38.879844 
L 514.02601 -38.879844 
L 513.033304 -38.879844 
L 512.040598 -38.879844 
L 511.047892 -38.879844 
L 510.055186 -38.879844 
L 509.06248 -38.879844 
L 508.069774 -38.879844 
L 507.077068 -38.879844 
L 506.084362 -38.879844 
L 505.091656 -38.879844 
L 504.09895 -38.879844 
L 503.106244 -38.879844 
L 502.113539 -38.879844 
L 501.120833 -38.879844 
L 500.128127 -38.879844 
L 499.135421 -38.879844 
L 498.142715 -38.879844 
L 497.150009 -38.879844 
L 496.157303 -38.879844 
L 495.164597 -38.879844 
L 494.171891 -38.879844 
L 493.179185 -38.879844 
L 492.186479 -38.879844 
L 491.193773 -38.879844 
L 490.201067 -38.879844 
L 489.208362 -38.879844 
L 488.215656 -38.879844 
L 487.22295 -38.879844 
L 486.230244 -38.879844 
L 485.237538 -38.879844 
L 484.244832 -38.879844 
L 483.252126 -38.879844 
L 482.25942 -38.879844 
L 481.266714 -38.879844 
L 480.274008 -38.879844 
L 479.281302 -38.879844 
L 478.288596 -38.879844 
L 477.29589 -38.879844 
L 476.303184 -38.879844 
L 475.310479 -38.879844 
L 474.317773 -38.879844 
L 473.325067 -38.879844 
L 472.332361 -38.879844 
L 471.339655 -38.879844 
L 470.346949 -38.879844 
L 469.354243 -38.879844 
L 468.361537 -38.879844 
L 467.368831 -38.879844 
L 466.376125 -38.879844 
L 465.383419 -38.879844 
L 464.390713 -38.879844 
L 463.398007 -38.879844 
L 462.405302 -38.879844 
L 461.412596 -38.879844 
L 460.41989 -38.879844 
L 459.427184 -38.879844 
L 458.434478 -38.879844 
L 457.441772 -38.879844 
L 456.449066 -38.879844 
L 455.45636 -38.879844 
L 454.463654 -38.879844 
L 453.470948 -38.879844 
L 452.478242 -38.879844 
L 451.485536 -38.879844 
L 450.49283 -38.879844 
L 449.500125 -38.879844 
L 448.507419 -38.879844 
L 447.514713 -38.879844 
L 446.522007 -38.879844 
L 445.529301 -38.879844 
L 444.536595 -38.879844 
L 443.543889 -38.879844 
L 442.551183 -38.879844 
L 441.558477 -38.879844 
L 440.565771 -38.879844 
L 439.573065 -38.879844 
L 438.580359 -38.879844 
L 437.587653 -38.879844 
L 436.594948 -38.879844 
L 435.602242 -38.879844 
L 434.609536 -38.879844 
L 433.61683 -38.879844 
L 432.624124 -38.879844 
L 431.631418 -38.879844 
L 430.638712 -38.879844 
L 429.646006 -38.879844 
L 428.6533 -38.879844 
L 427.660594 -38.879844 
L 426.667888 -38.879844 
L 425.675182 -38.879844 
L 424.682476 -38.879844 
L 423.689771 -38.879844 
L 422.697065 -38.879844 
L 421.704359 -38.879844 
L 420.711653 -38.879844 
L 419.718947 -38.879844 
L 418.726241 -38.879844 
L 417.733535 -38.879844 
L 416.740829 -38.879844 
L 415.748123 -38.879844 
L 414.755417 -38.879844 
L 413.762711 -38.879844 
L 412.770005 -38.879844 
L 411.777299 -38.879844 
L 410.784593 -38.879844 
L 409.791888 -38.879844 
L 408.799182 -38.879844 
L 407.806476 -38.879844 
L 406.81377 -38.879844 
L 405.821064 -38.879844 
L 404.828358 -38.879844 
L 403.835652 -38.879844 
L 402.842946 -38.879844 
L 401.85024 -38.879844 
L 400.857534 -38.879844 
L 399.864828 -38.879844 
L 398.872122 -38.879844 
L 397.879416 -38.879844 
L 396.886711 -38.879844 
L 395.894005 -38.879844 
L 394.901299 -38.879844 
L 393.908593 -38.879844 
L 392.915887 -38.879844 
L 391.923181 -38.879844 
L 390.930475 -38.879844 
L 389.937769 -38.879844 
L 388.945063 -38.879844 
L 387.952357 -38.879844 
L 386.959651 -38.879844 
L 385.966945 -38.879844 
L 384.974239 -38.879844 
L 383.981534 -38.879844 
L 382.988828 -38.879844 
L 381.996122 -38.879844 
L 381.003416 -38.879844 
L 380.01071 -38.879844 
L 379.018004 -38.879844 
L 378.025298 -38.879844 
L 377.032592 -38.879844 
L 376.039886 -38.879844 
L 375.04718 -38.879844 
L 374.054474 -38.879844 
L 373.061768 -38.879844 
L 372.069062 -38.879844 
L 371.076357 -38.879844 
L 370.083651 -38.879844 
L 369.090945 -38.879844 
L 368.098239 -38.879844 
L 367.105533 -38.879844 
L 366.112827 -38.879844 
L 365.120121 -38.879844 
L 364.127415 -38.879844 
L 363.134709 -38.879844 
L 362.142003 -38.879844 
L 361.149297 -38.879844 
L 360.156591 -38.879844 
L 359.163885 -38.879844 
L 358.17118 -38.879844 
L 357.178474 -38.879844 
L 356.185768 -38.879844 
L 355.193062 -38.879844 
L 354.200356 -38.879844 
L 353.20765 -38.879844 
L 352.214944 -38.879844 
L 351.222238 -38.879844 
L 350.229532 -38.879844 
L 349.236826 -38.879844 
L 348.24412 -38.879844 
L 347.251414 -38.879844 
L 346.258708 -38.879844 
L 345.266002 -38.879844 
L 344.273297 -38.879844 
L 343.280591 -38.879844 
L 342.287885 -38.879844 
L 341.295179 -38.879844 
L 340.302473 -38.879844 
L 339.309767 -38.879844 
L 338.317061 -38.879844 
L 337.324355 -38.879844 
L 336.331649 -38.879844 
L 335.338943 -38.879844 
L 334.346237 -38.879844 
L 333.353531 -38.879844 
L 332.360825 -38.879844 
L 331.36812 -38.879844 
L 330.375414 -38.879844 
L 329.382708 -38.879844 
L 328.390002 -38.879844 
L 327.397296 -38.879844 
L 326.40459 -38.879844 
L 325.411884 -38.879844 
L 324.419178 -38.879844 
L 323.426472 -38.879844 
L 322.433766 -38.879844 
L 321.44106 -38.879844 
L 320.448354 -38.879844 
L 319.455648 -38.879844 
L 318.462943 -38.879844 
L 317.470237 -38.879844 
L 316.477531 -38.879844 
L 315.484825 -38.879844 
L 314.492119 -38.879844 
L 313.499413 -38.879844 
L 312.506707 -38.879844 
L 311.514001 -38.879844 
L 310.521295 -38.879844 
L 309.528589 -38.879844 
L 308.535883 -38.879844 
L 307.543177 -38.879844 
L 306.550471 -38.879844 
L 305.557766 -38.879844 
L 304.56506 -38.879844 
L 303.572354 -38.879844 
L 302.579648 -38.879844 
L 301.586942 -38.879844 
L 300.594236 -38.879844 
L 299.60153 -38.879844 
L 298.608824 -38.879844 
L 297.616118 -38.879844 
L 296.623412 -38.879844 
L 295.630706 -38.879844 
L 294.638 -38.879844 
L 293.645294 -38.879844 
L 292.652589 -38.879844 
L 291.659883 -38.879844 
L 290.667177 -38.879844 
L 289.674471 -38.879844 
L 288.681765 -38.879844 
L 287.689059 -38.879844 
L 286.696353 -38.879844 
L 285.703647 -38.879844 
L 284.710941 -38.879844 
L 283.718235 -38.879844 
L 282.725529 -38.879844 
L 281.732823 -38.879844 
L 280.740117 -38.879844 
L 279.747411 -38.879844 
L 278.754706 -38.879844 
L 277.762 -38.879844 
L 276.769294 -38.879844 
L 275.776588 -38.879844 
L 274.783882 -38.879844 
L 273.791176 -38.879844 
L 272.79847 -38.879844 
L 271.805764 -38.879844 
L 270.813058 -38.879844 
L 269.820352 -38.879844 
L 268.827646 -38.879844 
L 267.83494 -38.879844 
L 266.842234 -38.879844 
L 265.849529 -38.879844 
L 264.856823 -38.879844 
L 263.864117 -38.879844 
L 262.871411 -38.879844 
L 261.878705 -38.879844 
L 260.885999 -38.879844 
L 259.893293 -38.879844 
L 258.900587 -38.879844 
L 257.907881 -38.879844 
L 256.915175 -38.879844 
L 255.922469 -38.879844 
L 254.929763 -38.879844 
L 253.937057 -38.879844 
L 252.944352 -38.879844 
L 251.951646 -38.879844 
L 250.95894 -38.879844 
L 249.966234 -38.879844 
L 248.973528 -38.879844 
L 247.980822 -38.879844 
L 246.988116 -38.879844 
L 245.99541 -38.879844 
L 245.002704 -38.879844 
L 244.009998 -38.879844 
L 243.017292 -38.879844 
L 242.024586 -38.879844 
L 241.03188 -38.879844 
L 240.039175 -38.879844 
L 239.046469 -38.879844 
L 238.053763 -38.879844 
L 237.061057 -38.879844 
L 236.068351 -38.879844 
L 235.075645 -38.879844 
L 234.082939 -38.879844 
L 233.090233 -38.879844 
L 232.097527 -38.879844 
L 231.104821 -38.879844 
L 230.112115 -38.879844 
L 229.119409 -38.879844 
L 228.126703 -38.879844 
L 227.133998 -38.879844 
L 226.141292 -38.879844 
L 225.148586 -38.879844 
L 224.15588 -38.879844 
L 223.163174 -38.879844 
L 222.170468 -38.879844 
L 221.177762 -38.879844 
L 220.185056 -38.879844 
L 219.19235 -38.879844 
L 218.199644 -38.879844 
L 217.206938 -38.879844 
L 216.214232 -38.879844 
L 215.221526 -38.879844 
L 214.22882 -38.879844 
L 213.236115 -38.879844 
L 212.243409 -38.879844 
L 211.250703 -38.879844 
L 210.257997 -38.879844 
L 209.265291 -38.879844 
L 208.272585 -38.879844 
L 207.279879 -38.879844 
L 206.287173 -38.879844 
L 205.294467 -38.879844 
L 204.301761 -38.879844 
L 203.309055 -38.879844 
L 202.316349 -38.879844 
L 201.323643 -38.879844 
L 200.330938 -38.879844 
L 199.338232 -38.879844 
L 198.345526 -38.879844 
L 197.35282 -38.879844 
L 196.360114 -38.879844 
L 195.367408 -38.879844 
L 194.374702 -38.879844 
L 193.381996 -38.879844 
L 192.38929 -38.879844 
L 191.396584 -38.879844 
L 190.403878 -38.879844 
L 189.411172 -38.879844 
L 188.418466 -38.879844 
L 187.425761 -38.879844 
L 186.433055 -38.879844 
L 185.440349 -38.879844 
L 184.447643 -38.879844 
L 183.454937 -38.879844 
L 182.462231 -38.879844 
L 181.469525 -38.879844 
L 180.476819 -38.879844 
L 179.484113 -38.879844 
L 178.491407 -38.879844 
L 177.498701 -38.879844 
L 176.505995 -38.879844 
L 175.513289 -38.879844 
L 174.520584 -38.879844 
L 173.527878 -38.879844 
L 172.535172 -38.879844 
L 171.542466 -38.879844 
L 170.54976 -38.879844 
L 169.557054 -38.879844 
L 168.564348 -38.879844 
L 167.571642 -38.879844 
L 166.578936 -38.879844 
L 165.58623 -38.879844 
L 164.593524 -38.879844 
L 163.600818 -38.879844 
L 162.608112 -38.879844 
L 161.615407 -38.879844 
L 160.622701 -38.879844 
L 159.629995 -38.879844 
L 158.637289 -38.879844 
L 157.644583 -38.879844 
L 156.651877 -38.879844 
L 155.659171 -38.879844 
L 154.666465 -38.879844 
L 153.673759 -38.879844 
L 152.681053 -38.879844 
L 151.688347 -38.879844 
L 150.695641 -38.879844 
L 149.702935 -38.879844 
L 148.710229 -38.879844 
L 147.717524 -38.879844 
L 146.724818 -38.879844 
L 145.732112 -38.879844 
L 144.739406 -38.879844 
L 143.7467 -38.879844 
L 142.753994 -38.879844 
L 141.761288 -38.879844 
L 140.768582 -38.879844 
L 139.775876 -38.879844 
L 138.78317 -38.879844 
L 137.790464 -38.879844 
L 136.797758 -38.879844 
L 135.805052 -38.879844 
L 134.812347 -38.879844 
L 133.819641 -38.879844 
L 132.826935 -38.879844 
L 131.834229 -38.879844 
L 130.841523 -38.879844 
L 129.848817 -38.879844 
L 128.856111 -38.879844 
L 127.863405 -38.879844 
L 126.870699 -38.879844 
L 125.877993 -38.879844 
L 124.885287 -38.879844 
L 123.892581 -38.879844 
L 122.899875 -38.879844 
L 121.90717 -38.879844 
L 120.914464 -38.879844 
L 119.921758 -38.879844 
L 118.929052 -38.879844 
L 117.936346 -38.879844 
L 116.94364 -38.879844 
L 115.950934 -38.879844 
L 114.958228 -38.879844 
L 113.965522 -38.879844 
L 112.972816 -38.879844 
L 111.98011 -38.879844 
L 110.987404 -38.879844 
L 109.994698 -38.879844 
L 109.001993 -38.879844 
L 108.009287 -38.879844 
L 107.016581 -38.879844 
L 106.023875 -38.879844 
L 105.031169 -38.879844 
L 104.038463 -38.879844 
L 103.045757 -38.879844 
L 102.053051 -38.879844 
L 101.060345 -38.879844 
L 100.067639 -38.879844 
L 99.074933 -38.879844 
L 98.082227 -38.879844 
L 97.089521 -38.879844 
L 96.096816 -38.879844 
L 95.10411 -38.879844 
L 94.111404 -38.879844 
L 93.118698 -38.879844 
L 92.125992 -38.879844 
L 91.133286 -38.879844 
L 90.14058 -38.879844 
L 89.147874 -38.879844 
L 88.155168 -38.879844 
L 87.162462 -38.879844 
L 86.169756 -38.879844 
L 85.17705 -38.879844 
L 84.184344 -38.879844 
L 83.191638 -38.879844 
L 82.198933 -38.879844 
L 81.206227 -38.879844 
L 80.213521 -38.879844 
L 79.220815 -38.879844 
L 78.228109 -38.879844 
L 77.235403 -38.879844 
L 76.242697 -38.879844 
L 75.249991 -38.879844 
L 74.257285 -38.879844 
L 73.264579 -38.879844 
L 72.271873 -38.879844 
L 71.279167 -38.879844 
L 70.286461 -38.879844 
L 69.293756 -38.879844 
L 68.30105 -38.879844 
L 67.308344 -38.879844 
L 66.315638 -38.879844 
L 65.322932 -38.879844 
L 64.330226 -38.879844 
L 63.33752 -38.879844 
L 62.344814 -38.879844 
L 61.352108 -38.879844 
L 60.359402 -38.879844 
L 59.366696 -38.879844 
L 58.37399 -38.879844 
L 57.381284 -38.879844 
L 56.388579 -38.879844 
L 55.395873 -38.879844 
L 54.403167 -38.879844 
L 53.410461 -38.879844 
L 52.417755 -38.879844 
L 51.425049 -38.879844 
L 50.432343 -38.879844 
L 49.439637 -38.879844 
L 48.446931 -38.879844 
L 47.454225 -38.879844 
L 46.461519 -38.879844 
L 45.468813 -38.879844 
L 44.476107 -38.879844 
L 43.483402 -38.879844 
L 42.490696 -38.879844 
L 41.49799 -38.879844 
L 40.505284 -38.879844 
L 39.512578 -38.879844 
L 38.519872 -38.879844 
L 37.527166 -38.879844 
L 36.53446 -38.879844 
L 35.541754 -38.879844 
L 34.549048 -38.879844 
L 33.556342 -38.879844 
L 32.563636 -38.879844 
z
" style="stroke: #0173b2; stroke-opacity: 0"/>
    </defs>
    <g clip-path="url(#p65ba4eb9a7)">
     <use xlink:href="#m40ab12b5f7" x="0" y="378.189219" style="fill: #0173b2; fill-opacity: 0; stroke: #0173b2; stroke-opacity: 0"/>
    </g>
   </g>
   <g id="line2d_9">
    <path d="M 32.563636 333.78731 
L 34.549048 333.609403 
L 36.53446 333.088882 
L 38.519872 332.257445 
L 40.505284 331.102275 
L 42.490696 329.671341 
L 44.476107 327.979139 
L 46.461519 326.036962 
L 48.446931 323.876845 
L 51.425049 320.230672 
L 54.403167 316.144262 
L 57.381284 311.553123 
L 60.359402 306.415024 
L 62.344814 302.660338 
L 65.322932 296.590312 
L 68.30105 290.036366 
L 71.279167 283.009659 
L 75.249991 272.942513 
L 79.220815 262.032071 
L 82.198933 253.268728 
L 86.169756 240.779836 
L 90.14058 227.538509 
L 96.096816 206.885185 
L 101.060345 188.904041 
L 106.023875 169.741163 
L 110.987404 149.378078 
L 117.936346 120.56341 
L 120.914464 109.195565 
L 122.899875 102.170138 
L 124.885287 95.744655 
L 126.870699 89.928294 
L 128.856111 84.714464 
L 130.841523 80.11403 
L 132.826935 76.074834 
L 134.812347 72.538343 
L 136.797758 69.37146 
L 139.775876 65.116489 
L 150.695641 50.448368 
L 153.673759 46.692837 
L 155.659171 44.35613 
L 158.637289 41.460019 
L 160.622701 39.880673 
L 162.608112 38.630134 
L 164.593524 37.727788 
L 166.578936 37.14237 
L 168.564348 36.909375 
L 170.54976 37.054922 
L 172.535172 37.584278 
L 173.527878 38.021275 
L 175.513289 39.318412 
L 177.498701 41.169351 
L 178.491407 42.254912 
L 180.476819 44.905833 
L 182.462231 47.989046 
L 184.447643 51.566039 
L 187.425761 57.390853 
L 199.338232 81.835539 
L 213.236115 109.061133 
L 220.185056 123.492204 
L 229.119409 142.240086 
L 237.061057 158.523048 
L 240.039175 165.165353 
L 243.017292 172.364743 
L 245.99541 180.134672 
L 251.951646 196.621596 
L 255.922469 207.327447 
L 258.900587 214.757279 
L 261.878705 221.547568 
L 264.856823 227.664421 
L 267.83494 233.006424 
L 270.813058 237.659645 
L 272.79847 240.512916 
L 275.776588 244.359819 
L 279.747411 249.120694 
L 291.659883 263.101893 
L 305.557766 280.195444 
L 313.499413 290.099487 
L 316.477531 293.539387 
L 319.455648 296.659819 
L 322.433766 299.417127 
L 324.419178 301.024357 
L 327.397296 303.15687 
L 330.375414 305.019641 
L 341.295179 311.401067 
L 344.273297 313.473386 
L 349.236826 317.251878 
L 355.193062 321.837275 
L 358.17118 323.855644 
L 361.149297 325.574902 
L 364.127415 326.961518 
L 367.105533 328.013673 
L 370.083651 328.78213 
L 373.061768 329.305929 
L 378.025298 329.834837 
L 385.966945 330.644923 
L 390.930475 331.454346 
L 405.821064 334.207171 
L 424.682476 337.137455 
L 428.6533 337.430619 
L 432.624124 337.51238 
L 437.587653 337.396806 
L 445.529301 337.100811 
L 451.485536 337.144865 
L 472.332361 337.93043 
L 496.157303 339.021679 
L 510.055186 339.258184 
L 521.967657 339.221688 
L 534.872834 338.913901 
L 539.836364 338.842602 
L 539.836364 338.842602 
" clip-path="url(#p65ba4eb9a7)" style="fill: none; stroke: #0173b2; stroke-width: 1.5; stroke-linecap: round"/>
   </g>
   <g id="line2d_10">
    <path d="M 69.695399 332.958975 
L 308.235117 332.958975 
" clip-path="url(#p65ba4eb9a7)" style="fill: none; stroke: #1a1a1a; stroke-width: 3"/>
   </g>
   <g id="patch_3">
    <path d="M 7.2 354.429375 
L 565.2 354.429375 
" style="fill: none; stroke: #808080; stroke-width: 1.25; stroke-linejoin: miter; stroke-linecap: square"/>
   </g>
   <g id="text_5">
    <!-- 3.5  -->
    <g style="fill: #262626" transform="translate(49.681649 317.082975) scale(0.12 -0.12)">
     <defs>
      <path id="ArialMT-33" d="M 269 1209 
L 831 1284 
Q 928 806 1161 595 
Q 1394 384 1728 384 
Q 2125 384 2398 659 
Q 2672 934 2672 1341 
Q 2672 1728 2419 1979 
Q 2166 2231 1775 2231 
Q 1616 2231 1378 2169 
L 1441 2663 
Q 1497 2656 1531 2656 
Q 1891 2656 2178 2843 
Q 2466 3031 2466 3422 
Q 2466 3731 2256 3934 
Q 2047 4138 1716 4138 
Q 1388 4138 1169 3931 
Q 950 3725 888 3313 
L 325 3413 
Q 428 3978 793 4289 
Q 1159 4600 1703 4600 
Q 2078 4600 2393 4439 
Q 2709 4278 2876 4000 
Q 3044 3722 3044 3409 
Q 3044 3113 2884 2869 
Q 2725 2625 2413 2481 
Q 2819 2388 3044 2092 
Q 3269 1797 3269 1353 
Q 3269 753 2831 336 
Q 2394 -81 1725 -81 
Q 1122 -81 723 278 
Q 325 638 269 1209 
z
" transform="scale(0.015625)"/>
      <path id="ArialMT-2e" d="M 581 0 
L 581 641 
L 1222 641 
L 1222 0 
L 581 0 
z
" transform="scale(0.015625)"/>
      <path id="ArialMT-20" transform="scale(0.015625)"/>
     </defs>
     <use xlink:href="#ArialMT-33"/>
     <use xlink:href="#ArialMT-2e" x="55.615234"/>
     <use xlink:href="#ArialMT-35" x="83.398438"/>
     <use xlink:href="#ArialMT-20" x="139.013672"/>
    </g>
   </g>
   <g id="text_6">
    <!--  13 -->
    <g style="fill: #262626" transform="translate(308.235117 317.082975) scale(0.12 -0.12)">
     <use xlink:href="#ArialMT-20"/>
     <use xlink:href="#ArialMT-31" x="27.783203"/>
     <use xlink:href="#ArialMT-33" x="83.398438"/>
    </g>
   </g>
   <g id="text_7">
    <!-- 94% HDI -->
    <g style="fill: #262626" transform="translate(164.956821 244.053375) scale(0.12 -0.12)">
     <defs>
      <path id="ArialMT-39" d="M 350 1059 
L 891 1109 
Q 959 728 1153 556 
Q 1347 384 1650 384 
Q 1909 384 2104 503 
Q 2300 622 2425 820 
Q 2550 1019 2634 1356 
Q 2719 1694 2719 2044 
Q 2719 2081 2716 2156 
Q 2547 1888 2255 1720 
Q 1963 1553 1622 1553 
Q 1053 1553 659 1965 
Q 266 2378 266 3053 
Q 266 3750 677 4175 
Q 1088 4600 1706 4600 
Q 2153 4600 2523 4359 
Q 2894 4119 3086 3673 
Q 3278 3228 3278 2384 
Q 3278 1506 3087 986 
Q 2897 466 2520 194 
Q 2144 -78 1638 -78 
Q 1100 -78 759 220 
Q 419 519 350 1059 
z
M 2653 3081 
Q 2653 3566 2395 3850 
Q 2138 4134 1775 4134 
Q 1400 4134 1122 3828 
Q 844 3522 844 3034 
Q 844 2597 1108 2323 
Q 1372 2050 1759 2050 
Q 2150 2050 2401 2323 
Q 2653 2597 2653 3081 
z
" transform="scale(0.015625)"/>
      <path id="ArialMT-34" d="M 2069 0 
L 2069 1097 
L 81 1097 
L 81 1613 
L 2172 4581 
L 2631 4581 
L 2631 1613 
L 3250 1613 
L 3250 1097 
L 2631 1097 
L 2631 0 
L 2069 0 
z
M 2069 1613 
L 2069 3678 
L 634 1613 
L 2069 1613 
z
" transform="scale(0.015625)"/>
      <path id="ArialMT-25" d="M 372 3481 
Q 372 3972 619 4315 
Q 866 4659 1334 4659 
Q 1766 4659 2048 4351 
Q 2331 4044 2331 3447 
Q 2331 2866 2045 2552 
Q 1759 2238 1341 2238 
Q 925 2238 648 2547 
Q 372 2856 372 3481 
z
M 1350 4272 
Q 1141 4272 1002 4090 
Q 863 3909 863 3425 
Q 863 2984 1003 2804 
Q 1144 2625 1350 2625 
Q 1563 2625 1702 2806 
Q 1841 2988 1841 3469 
Q 1841 3913 1700 4092 
Q 1559 4272 1350 4272 
z
M 1353 -169 
L 3859 4659 
L 4316 4659 
L 1819 -169 
L 1353 -169 
z
M 3334 1075 
Q 3334 1569 3581 1911 
Q 3828 2253 4300 2253 
Q 4731 2253 5014 1945 
Q 5297 1638 5297 1041 
Q 5297 459 5011 145 
Q 4725 -169 4303 -169 
Q 3888 -169 3611 142 
Q 3334 453 3334 1075 
z
M 4316 1866 
Q 4103 1866 3964 1684 
Q 3825 1503 3825 1019 
Q 3825 581 3965 400 
Q 4106 219 4313 219 
Q 4528 219 4667 400 
Q 4806 581 4806 1063 
Q 4806 1506 4665 1686 
Q 4525 1866 4316 1866 
z
" transform="scale(0.015625)"/>
      <path id="ArialMT-48" d="M 513 0 
L 513 4581 
L 1119 4581 
L 1119 2700 
L 3500 2700 
L 3500 4581 
L 4106 4581 
L 4106 0 
L 3500 0 
L 3500 2159 
L 1119 2159 
L 1119 0 
L 513 0 
z
" transform="scale(0.015625)"/>
      <path id="ArialMT-44" d="M 494 0 
L 494 4581 
L 2072 4581 
Q 2606 4581 2888 4516 
Q 3281 4425 3559 4188 
Q 3922 3881 4101 3404 
Q 4281 2928 4281 2316 
Q 4281 1794 4159 1391 
Q 4038 988 3847 723 
Q 3656 459 3429 307 
Q 3203 156 2883 78 
Q 2563 0 2147 0 
L 494 0 
z
M 1100 541 
L 2078 541 
Q 2531 541 2789 625 
Q 3047 709 3200 863 
Q 3416 1078 3536 1442 
Q 3656 1806 3656 2325 
Q 3656 3044 3420 3430 
Q 3184 3816 2847 3947 
Q 2603 4041 2063 4041 
L 1100 4041 
L 1100 541 
z
" transform="scale(0.015625)"/>
      <path id="ArialMT-49" d="M 597 0 
L 597 4581 
L 1203 4581 
L 1203 0 
L 597 0 
z
" transform="scale(0.015625)"/>
     </defs>
     <use xlink:href="#ArialMT-39"/>
     <use xlink:href="#ArialMT-34" x="55.615234"/>
     <use xlink:href="#ArialMT-25" x="111.230469"/>
     <use xlink:href="#ArialMT-20" x="200.146484"/>
     <use xlink:href="#ArialMT-48" x="227.929688"/>
     <use xlink:href="#ArialMT-44" x="300.146484"/>
     <use xlink:href="#ArialMT-49" x="372.363281"/>
    </g>
   </g>
   <g id="text_8">
    <!-- mean=8.3 -->
    <g style="fill: #262626" transform="translate(158.582338 85.293375) scale(0.12 -0.12)">
     <defs>
      <path id="ArialMT-6d" d="M 422 0 
L 422 3319 
L 925 3319 
L 925 2853 
Q 1081 3097 1340 3245 
Q 1600 3394 1931 3394 
Q 2300 3394 2536 3241 
Q 2772 3088 2869 2813 
Q 3263 3394 3894 3394 
Q 4388 3394 4653 3120 
Q 4919 2847 4919 2278 
L 4919 0 
L 4359 0 
L 4359 2091 
Q 4359 2428 4304 2576 
Q 4250 2725 4106 2815 
Q 3963 2906 3769 2906 
Q 3419 2906 3187 2673 
Q 2956 2441 2956 1928 
L 2956 0 
L 2394 0 
L 2394 2156 
Q 2394 2531 2256 2718 
Q 2119 2906 1806 2906 
Q 1569 2906 1367 2781 
Q 1166 2656 1075 2415 
Q 984 2175 984 1722 
L 984 0 
L 422 0 
z
" transform="scale(0.015625)"/>
      <path id="ArialMT-65" d="M 2694 1069 
L 3275 997 
Q 3138 488 2766 206 
Q 2394 -75 1816 -75 
Q 1088 -75 661 373 
Q 234 822 234 1631 
Q 234 2469 665 2931 
Q 1097 3394 1784 3394 
Q 2450 3394 2872 2941 
Q 3294 2488 3294 1666 
Q 3294 1616 3291 1516 
L 816 1516 
Q 847 969 1125 678 
Q 1403 388 1819 388 
Q 2128 388 2347 550 
Q 2566 713 2694 1069 
z
M 847 1978 
L 2700 1978 
Q 2663 2397 2488 2606 
Q 2219 2931 1791 2931 
Q 1403 2931 1139 2672 
Q 875 2413 847 1978 
z
" transform="scale(0.015625)"/>
      <path id="ArialMT-61" d="M 2588 409 
Q 2275 144 1986 34 
Q 1697 -75 1366 -75 
Q 819 -75 525 192 
Q 231 459 231 875 
Q 231 1119 342 1320 
Q 453 1522 633 1644 
Q 813 1766 1038 1828 
Q 1203 1872 1538 1913 
Q 2219 1994 2541 2106 
Q 2544 2222 2544 2253 
Q 2544 2597 2384 2738 
Q 2169 2928 1744 2928 
Q 1347 2928 1158 2789 
Q 969 2650 878 2297 
L 328 2372 
Q 403 2725 575 2942 
Q 747 3159 1072 3276 
Q 1397 3394 1825 3394 
Q 2250 3394 2515 3294 
Q 2781 3194 2906 3042 
Q 3031 2891 3081 2659 
Q 3109 2516 3109 2141 
L 3109 1391 
Q 3109 606 3145 398 
Q 3181 191 3288 0 
L 2700 0 
Q 2613 175 2588 409 
z
M 2541 1666 
Q 2234 1541 1622 1453 
Q 1275 1403 1131 1340 
Q 988 1278 909 1158 
Q 831 1038 831 891 
Q 831 666 1001 516 
Q 1172 366 1500 366 
Q 1825 366 2078 508 
Q 2331 650 2450 897 
Q 2541 1088 2541 1459 
L 2541 1666 
z
" transform="scale(0.015625)"/>
      <path id="ArialMT-6e" d="M 422 0 
L 422 3319 
L 928 3319 
L 928 2847 
Q 1294 3394 1984 3394 
Q 2284 3394 2536 3286 
Q 2788 3178 2913 3003 
Q 3038 2828 3088 2588 
Q 3119 2431 3119 2041 
L 3119 0 
L 2556 0 
L 2556 2019 
Q 2556 2363 2490 2533 
Q 2425 2703 2258 2804 
Q 2091 2906 1866 2906 
Q 1506 2906 1245 2678 
Q 984 2450 984 1813 
L 984 0 
L 422 0 
z
" transform="scale(0.015625)"/>
      <path id="ArialMT-3d" d="M 3381 2694 
L 356 2694 
L 356 3219 
L 3381 3219 
L 3381 2694 
z
M 3381 1303 
L 356 1303 
L 356 1828 
L 3381 1828 
L 3381 1303 
z
" transform="scale(0.015625)"/>
      <path id="ArialMT-38" d="M 1131 2484 
Q 781 2613 612 2850 
Q 444 3088 444 3419 
Q 444 3919 803 4259 
Q 1163 4600 1759 4600 
Q 2359 4600 2725 4251 
Q 3091 3903 3091 3403 
Q 3091 3084 2923 2848 
Q 2756 2613 2416 2484 
Q 2838 2347 3058 2040 
Q 3278 1734 3278 1309 
Q 3278 722 2862 322 
Q 2447 -78 1769 -78 
Q 1091 -78 675 323 
Q 259 725 259 1325 
Q 259 1772 486 2073 
Q 713 2375 1131 2484 
z
M 1019 3438 
Q 1019 3113 1228 2906 
Q 1438 2700 1772 2700 
Q 2097 2700 2305 2904 
Q 2513 3109 2513 3406 
Q 2513 3716 2298 3927 
Q 2084 4138 1766 4138 
Q 1444 4138 1231 3931 
Q 1019 3725 1019 3438 
z
M 838 1322 
Q 838 1081 952 856 
Q 1066 631 1291 507 
Q 1516 384 1775 384 
Q 2178 384 2440 643 
Q 2703 903 2703 1303 
Q 2703 1709 2433 1975 
Q 2163 2241 1756 2241 
Q 1359 2241 1098 1978 
Q 838 1716 838 1322 
z
" transform="scale(0.015625)"/>
     </defs>
     <use xlink:href="#ArialMT-6d"/>
     <use xlink:href="#ArialMT-65" x="83.300781"/>
     <use xlink:href="#ArialMT-61" x="138.916016"/>
     <use xlink:href="#ArialMT-6e" x="194.53125"/>
     <use xlink:href="#ArialMT-3d" x="250.146484"/>
     <use xlink:href="#ArialMT-38" x="308.544922"/>
     <use xlink:href="#ArialMT-2e" x="364.160156"/>
     <use xlink:href="#ArialMT-33" x="391.943359"/>
    </g>
   </g>
   <g id="text_9">
    <!-- mu -->
    <g style="fill: #262626" transform="translate(277.865625 15.789375) scale(0.12 -0.12)">
     <defs>
      <path id="ArialMT-75" d="M 2597 0 
L 2597 488 
Q 2209 -75 1544 -75 
Q 1250 -75 995 37 
Q 741 150 617 320 
Q 494 491 444 738 
Q 409 903 409 1263 
L 409 3319 
L 972 3319 
L 972 1478 
Q 972 1038 1006 884 
Q 1059 663 1231 536 
Q 1403 409 1656 409 
Q 1909 409 2131 539 
Q 2353 669 2445 892 
Q 2538 1116 2538 1541 
L 2538 3319 
L 3100 3319 
L 3100 0 
L 2597 0 
z
" transform="scale(0.015625)"/>
     </defs>
     <use xlink:href="#ArialMT-6d"/>
     <use xlink:href="#ArialMT-75" x="83.300781"/>
    </g>
   </g>
  </g>
 </g>
 <defs>
  <clipPath id="p65ba4eb9a7">
   <rect x="7.2" y="21.789375" width="558" height="332.64"/>
  </clipPath>
 </defs>
</svg>