<?xml version="1.0" encoding="utf-8" standalone="no"?>
<!DOCTYPE svg PUBLIC "-//W3C//DTD SVG 1.1//EN"
  "http://www.w3.org/Graphics/SVG/1.1/DTD/svg11.dtd">
<svg xmlns:xlink="http://www.w3.org/1999/xlink" width="602.71925pt" height="363.387875pt" viewBox="0 0 602.71925 363.387875" xmlns="http://www.w3.org/2000/svg" version="1.1">
 <metadata>
  <rdf:RDF xmlns:dc="http://purl.org/dc/elements/1.1/" xmlns:cc="http://creativecommons.org/ns#" xmlns:rdf="http://www.w3.org/1999/02/22-rdf-syntax-ns#">
   <cc:Work>
    <dc:type rdf:resource="http://purl.org/dc/dcmitype/StillImage"/>
    <dc:date>2023-05-28T12:23:16.247369</dc:date>
    <dc:format>image/svg+xml</dc:format>
    <dc:creator>
     <cc:Agent>
      <dc:title>Matplotlib v3.7.1, https://matplotlib.org/</dc:title>
     </cc:Agent>
    </dc:creator>
   </cc:Work>
  </rdf:RDF>
 </metadata>
 <defs>
  <style type="text/css">*{stroke-linejoin: round; stroke-linecap: butt}</style>
 </defs>
 <g id="figure_1">
  <g id="patch_1">
   <path d="M 0 363.387875 
L 602.71925 363.387875 
L 602.71925 0 
L 0 0 
z
" style="fill: #ffffff"/>
  </g>
  <g id="axes_1">
   <g id="patch_2">
    <path d="M 37.51925 339.84 
L 595.51925 339.84 
L 595.51925 7.2 
L 37.51925 7.2 
z
" style="fill: #eaeaf2"/>
   </g>
   <g id="matplotlib.axis_1">
    <g id="xtick_1">
     <g id="line2d_1">
      <path d="M 60.339311 339.84 
L 60.339311 7.2 
" clip-path="url(#p5624e85fc1)" style="fill: none; stroke: #ffffff; stroke-width: 0.8; stroke-linecap: round"/>
     </g>
     <g id="text_1">
      <!-- −400 -->
      <g style="fill: #262626" transform="translate(50.428998 354.438875) scale(0.088 -0.088)">
       <defs>
        <path id="ArialMT-2212" d="M 3381 1997 
L 356 1997 
L 356 2522 
L 3381 2522 
L 3381 1997 
z
" transform="scale(0.015625)"/>
        <path id="ArialMT-34" d="M 2069 0 
L 2069 1097 
L 81 1097 
L 81 1613 
L 2172 4581 
L 2631 4581 
L 2631 1613 
L 3250 1613 
L 3250 1097 
L 2631 1097 
L 2631 0 
L 2069 0 
z
M 2069 1613 
L 2069 3678 
L 634 1613 
L 2069 1613 
z
" transform="scale(0.015625)"/>
        <path id="ArialMT-30" d="M 266 2259 
Q 266 3072 433 3567 
Q 600 4063 929 4331 
Q 1259 4600 1759 4600 
Q 2128 4600 2406 4451 
Q 2684 4303 2865 4023 
Q 3047 3744 3150 3342 
Q 3253 2941 3253 2259 
Q 3253 1453 3087 958 
Q 2922 463 2592 192 
Q 2263 -78 1759 -78 
Q 1097 -78 719 397 
Q 266 969 266 2259 
z
M 844 2259 
Q 844 1131 1108 757 
Q 1372 384 1759 384 
Q 2147 384 2411 759 
Q 2675 1134 2675 2259 
Q 2675 3391 2411 3762 
Q 2147 4134 1753 4134 
Q 1366 4134 1134 3806 
Q 844 3388 844 2259 
z
" transform="scale(0.015625)"/>
       </defs>
       <use xlink:href="#ArialMT-2212"/>
       <use xlink:href="#ArialMT-34" x="58.398438"/>
       <use xlink:href="#ArialMT-30" x="114.013672"/>
       <use xlink:href="#ArialMT-30" x="169.628906"/>
      </g>
     </g>
    </g>
    <g id="xtick_2">
     <g id="line2d_2">
      <path d="M 157.752673 339.84 
L 157.752673 7.2 
" clip-path="url(#p5624e85fc1)" style="fill: none; stroke: #ffffff; stroke-width: 0.8; stroke-linecap: round"/>
     </g>
     <g id="text_2">
      <!-- −200 -->
      <g style="fill: #262626" transform="translate(147.842361 354.438875) scale(0.088 -0.088)">
       <defs>
        <path id="ArialMT-32" d="M 3222 541 
L 3222 0 
L 194 0 
Q 188 203 259 391 
Q 375 700 629 1000 
Q 884 1300 1366 1694 
Q 2113 2306 2375 2664 
Q 2638 3022 2638 3341 
Q 2638 3675 2398 3904 
Q 2159 4134 1775 4134 
Q 1369 4134 1125 3890 
Q 881 3647 878 3216 
L 300 3275 
Q 359 3922 746 4261 
Q 1134 4600 1788 4600 
Q 2447 4600 2831 4234 
Q 3216 3869 3216 3328 
Q 3216 3053 3103 2787 
Q 2991 2522 2730 2228 
Q 2469 1934 1863 1422 
Q 1356 997 1212 845 
Q 1069 694 975 541 
L 3222 541 
z
" transform="scale(0.015625)"/>
       </defs>
       <use xlink:href="#ArialMT-2212"/>
       <use xlink:href="#ArialMT-32" x="58.398438"/>
       <use xlink:href="#ArialMT-30" x="114.013672"/>
       <use xlink:href="#ArialMT-30" x="169.628906"/>
      </g>
     </g>
    </g>
    <g id="xtick_3">
     <g id="line2d_3">
      <path d="M 255.166036 339.84 
L 255.166036 7.2 
" clip-path="url(#p5624e85fc1)" style="fill: none; stroke: #ffffff; stroke-width: 0.8; stroke-linecap: round"/>
     </g>
     <g id="text_3">
      <!-- 0 -->
      <g style="fill: #262626" transform="translate(252.719223 354.438875) scale(0.088 -0.088)">
       <use xlink:href="#ArialMT-30"/>
      </g>
     </g>
    </g>
    <g id="xtick_4">
     <g id="line2d_4">
      <path d="M 352.579398 339.84 
L 352.579398 7.2 
" clip-path="url(#p5624e85fc1)" style="fill: none; stroke: #ffffff; stroke-width: 0.8; stroke-linecap: round"/>
     </g>
     <g id="text_4">
      <!-- 200 -->
      <g style="fill: #262626" transform="translate(345.238961 354.438875) scale(0.088 -0.088)">
       <use xlink:href="#ArialMT-32"/>
       <use xlink:href="#ArialMT-30" x="55.615234"/>
       <use xlink:href="#ArialMT-30" x="111.230469"/>
      </g>
     </g>
    </g>
    <g id="xtick_5">
     <g id="line2d_5">
      <path d="M 449.992761 339.84 
L 449.992761 7.2 
" clip-path="url(#p5624e85fc1)" style="fill: none; stroke: #ffffff; stroke-width: 0.8; stroke-linecap: round"/>
     </g>
     <g id="text_5">
      <!-- 400 -->
      <g style="fill: #262626" transform="translate(442.652324 354.438875) scale(0.088 -0.088)">
       <use xlink:href="#ArialMT-34"/>
       <use xlink:href="#ArialMT-30" x="55.615234"/>
       <use xlink:href="#ArialMT-30" x="111.230469"/>
      </g>
     </g>
    </g>
    <g id="xtick_6">
     <g id="line2d_6">
      <path d="M 547.406124 339.84 
L 547.406124 7.2 
" clip-path="url(#p5624e85fc1)" style="fill: none; stroke: #ffffff; stroke-width: 0.8; stroke-linecap: round"/>
     </g>
     <g id="text_6">
      <!-- 600 -->
      <g style="fill: #262626" transform="translate(540.065686 354.438875) scale(0.088 -0.088)">
       <defs>
        <path id="ArialMT-36" d="M 3184 3459 
L 2625 3416 
Q 2550 3747 2413 3897 
Q 2184 4138 1850 4138 
Q 1581 4138 1378 3988 
Q 1113 3794 959 3422 
Q 806 3050 800 2363 
Q 1003 2672 1297 2822 
Q 1591 2972 1913 2972 
Q 2475 2972 2870 2558 
Q 3266 2144 3266 1488 
Q 3266 1056 3080 686 
Q 2894 316 2569 119 
Q 2244 -78 1831 -78 
Q 1128 -78 684 439 
Q 241 956 241 2144 
Q 241 3472 731 4075 
Q 1159 4600 1884 4600 
Q 2425 4600 2770 4297 
Q 3116 3994 3184 3459 
z
M 888 1484 
Q 888 1194 1011 928 
Q 1134 663 1356 523 
Q 1578 384 1822 384 
Q 2178 384 2434 671 
Q 2691 959 2691 1453 
Q 2691 1928 2437 2201 
Q 2184 2475 1800 2475 
Q 1419 2475 1153 2201 
Q 888 1928 888 1484 
z
" transform="scale(0.015625)"/>
       </defs>
       <use xlink:href="#ArialMT-36"/>
       <use xlink:href="#ArialMT-30" x="55.615234"/>
       <use xlink:href="#ArialMT-30" x="111.230469"/>
      </g>
     </g>
    </g>
   </g>
   <g id="matplotlib.axis_2">
    <g id="ytick_1">
     <g id="line2d_7">
      <path d="M 37.51925 324.72 
L 595.51925 324.72 
" clip-path="url(#p5624e85fc1)" style="fill: none; stroke: #ffffff; stroke-width: 0.8; stroke-linecap: round"/>
     </g>
     <g id="text_7">
      <!-- 0.000 -->
      <g style="fill: #262626" transform="translate(7.2 327.869438) scale(0.088 -0.088)">
       <defs>
        <path id="ArialMT-2e" d="M 581 0 
L 581 641 
L 1222 641 
L 1222 0 
L 581 0 
z
" transform="scale(0.015625)"/>
       </defs>
       <use xlink:href="#ArialMT-30"/>
       <use xlink:href="#ArialMT-2e" x="55.615234"/>
       <use xlink:href="#ArialMT-30" x="83.398438"/>
       <use xlink:href="#ArialMT-30" x="139.013672"/>
       <use xlink:href="#ArialMT-30" x="194.628906"/>
      </g>
     </g>
    </g>
    <g id="ytick_2">
     <g id="line2d_8">
      <path d="M 37.51925 265.725956 
L 595.51925 265.725956 
" clip-path="url(#p5624e85fc1)" style="fill: none; stroke: #ffffff; stroke-width: 0.8; stroke-linecap: round"/>
     </g>
     <g id="text_8">
      <!-- 0.001 -->
      <g style="fill: #262626" transform="translate(7.2 268.875394) scale(0.088 -0.088)">
       <defs>
        <path id="ArialMT-31" d="M 2384 0 
L 1822 0 
L 1822 3584 
Q 1619 3391 1289 3197 
Q 959 3003 697 2906 
L 697 3450 
Q 1169 3672 1522 3987 
Q 1875 4303 2022 4600 
L 2384 4600 
L 2384 0 
z
" transform="scale(0.015625)"/>
       </defs>
       <use xlink:href="#ArialMT-30"/>
       <use xlink:href="#ArialMT-2e" x="55.615234"/>
       <use xlink:href="#ArialMT-30" x="83.398438"/>
       <use xlink:href="#ArialMT-30" x="139.013672"/>
       <use xlink:href="#ArialMT-31" x="194.628906"/>
      </g>
     </g>
    </g>
    <g id="ytick_3">
     <g id="line2d_9">
      <path d="M 37.51925 206.731913 
L 595.51925 206.731913 
" clip-path="url(#p5624e85fc1)" style="fill: none; stroke: #ffffff; stroke-width: 0.8; stroke-linecap: round"/>
     </g>
     <g id="text_9">
      <!-- 0.002 -->
      <g style="fill: #262626" transform="translate(7.2 209.88135) scale(0.088 -0.088)">
       <use xlink:href="#ArialMT-30"/>
       <use xlink:href="#ArialMT-2e" x="55.615234"/>
       <use xlink:href="#ArialMT-30" x="83.398438"/>
       <use xlink:href="#ArialMT-30" x="139.013672"/>
       <use xlink:href="#ArialMT-32" x="194.628906"/>
      </g>
     </g>
    </g>
    <g id="ytick_4">
     <g id="line2d_10">
      <path d="M 37.51925 147.737869 
L 595.51925 147.737869 
" clip-path="url(#p5624e85fc1)" style="fill: none; stroke: #ffffff; stroke-width: 0.8; stroke-linecap: round"/>
     </g>
     <g id="text_10">
      <!-- 0.003 -->
      <g style="fill: #262626" transform="translate(7.2 150.887307) scale(0.088 -0.088)">
       <defs>
        <path id="ArialMT-33" d="M 269 1209 
L 831 1284 
Q 928 806 1161 595 
Q 1394 384 1728 384 
Q 2125 384 2398 659 
Q 2672 934 2672 1341 
Q 2672 1728 2419 1979 
Q 2166 2231 1775 2231 
Q 1616 2231 1378 2169 
L 1441 2663 
Q 1497 2656 1531 2656 
Q 1891 2656 2178 2843 
Q 2466 3031 2466 3422 
Q 2466 3731 2256 3934 
Q 2047 4138 1716 4138 
Q 1388 4138 1169 3931 
Q 950 3725 888 3313 
L 325 3413 
Q 428 3978 793 4289 
Q 1159 4600 1703 4600 
Q 2078 4600 2393 4439 
Q 2709 4278 2876 4000 
Q 3044 3722 3044 3409 
Q 3044 3113 2884 2869 
Q 2725 2625 2413 2481 
Q 2819 2388 3044 2092 
Q 3269 1797 3269 1353 
Q 3269 753 2831 336 
Q 2394 -81 1725 -81 
Q 1122 -81 723 278 
Q 325 638 269 1209 
z
" transform="scale(0.015625)"/>
       </defs>
       <use xlink:href="#ArialMT-30"/>
       <use xlink:href="#ArialMT-2e" x="55.615234"/>
       <use xlink:href="#ArialMT-30" x="83.398438"/>
       <use xlink:href="#ArialMT-30" x="139.013672"/>
       <use xlink:href="#ArialMT-33" x="194.628906"/>
      </g>
     </g>
    </g>
    <g id="ytick_5">
     <g id="line2d_11">
      <path d="M 37.51925 88.743826 
L 595.51925 88.743826 
" clip-path="url(#p5624e85fc1)" style="fill: none; stroke: #ffffff; stroke-width: 0.8; stroke-linecap: round"/>
     </g>
     <g id="text_11">
      <!-- 0.004 -->
      <g style="fill: #262626" transform="translate(7.2 91.893263) scale(0.088 -0.088)">
       <use xlink:href="#ArialMT-30"/>
       <use xlink:href="#ArialMT-2e" x="55.615234"/>
       <use xlink:href="#ArialMT-30" x="83.398438"/>
       <use xlink:href="#ArialMT-30" x="139.013672"/>
       <use xlink:href="#ArialMT-34" x="194.628906"/>
      </g>
     </g>
    </g>
    <g id="ytick_6">
     <g id="line2d_12">
      <path d="M 37.51925 29.749782 
L 595.51925 29.749782 
" clip-path="url(#p5624e85fc1)" style="fill: none; stroke: #ffffff; stroke-width: 0.8; stroke-linecap: round"/>
     </g>
     <g id="text_12">
      <!-- 0.005 -->
      <g style="fill: #262626" transform="translate(7.2 32.89922) scale(0.088 -0.088)">
       <defs>
        <path id="ArialMT-35" d="M 266 1200 
L 856 1250 
Q 922 819 1161 601 
Q 1400 384 1738 384 
Q 2144 384 2425 690 
Q 2706 997 2706 1503 
Q 2706 1984 2436 2262 
Q 2166 2541 1728 2541 
Q 1456 2541 1237 2417 
Q 1019 2294 894 2097 
L 366 2166 
L 809 4519 
L 3088 4519 
L 3088 3981 
L 1259 3981 
L 1013 2750 
Q 1425 3038 1878 3038 
Q 2478 3038 2890 2622 
Q 3303 2206 3303 1553 
Q 3303 931 2941 478 
Q 2500 -78 1738 -78 
Q 1113 -78 717 272 
Q 322 622 266 1200 
z
" transform="scale(0.015625)"/>
       </defs>
       <use xlink:href="#ArialMT-30"/>
       <use xlink:href="#ArialMT-2e" x="55.615234"/>
       <use xlink:href="#ArialMT-30" x="83.398438"/>
       <use xlink:href="#ArialMT-30" x="139.013672"/>
       <use xlink:href="#ArialMT-35" x="194.628906"/>
      </g>
     </g>
    </g>
   </g>
   <g id="PolyCollection_1">
    <defs>
     <path id="m8de7a49e90" d="M 62.882886 -38.667875 
L 62.882886 -39.042183 
L 63.875592 -39.025445 
L 64.868298 -38.996339 
L 65.861004 -38.961059 
L 66.85371 -38.926725 
L 67.846416 -38.897171 
L 68.839122 -38.875161 
L 69.831828 -38.862512 
L 70.824534 -38.856956 
L 71.81724 -38.857565 
L 72.809946 -38.859453 
L 73.802652 -38.86221 
L 74.795357 -38.865386 
L 75.788063 -38.865731 
L 76.780769 -38.863044 
L 77.773475 -38.860384 
L 78.766181 -38.860521 
L 79.758887 -38.866643 
L 80.751593 -38.878875 
L 81.744299 -38.896679 
L 82.737005 -38.920105 
L 83.729711 -38.943125 
L 84.722417 -38.962421 
L 85.715123 -38.974196 
L 86.707829 -38.977794 
L 87.700534 -38.972354 
L 88.69324 -38.960293 
L 89.685946 -38.943403 
L 90.678652 -38.924291 
L 91.671358 -38.909582 
L 92.664064 -38.902487 
L 93.65677 -38.906647 
L 94.649476 -38.927194 
L 95.642182 -38.965709 
L 96.634888 -39.020524 
L 97.627594 -39.09172 
L 98.6203 -39.172552 
L 99.613006 -39.260234 
L 100.605711 -39.346874 
L 101.598417 -39.43214 
L 102.591123 -39.506539 
L 103.583829 -39.568193 
L 104.576535 -39.613732 
L 105.569241 -39.644974 
L 106.561947 -39.663465 
L 107.554653 -39.679435 
L 108.547359 -39.699959 
L 109.540065 -39.734123 
L 110.532771 -39.78637 
L 111.525477 -39.85513 
L 112.518183 -39.926592 
L 113.510888 -39.993112 
L 114.503594 -40.044498 
L 115.4963 -40.072131 
L 116.489006 -40.083808 
L 117.481712 -40.094374 
L 118.474418 -40.121464 
L 119.467124 -40.184257 
L 120.45983 -40.288359 
L 121.452536 -40.423986 
L 122.445242 -40.575851 
L 123.437948 -40.723291 
L 124.430654 -40.852493 
L 125.42336 -40.965559 
L 126.416066 -41.062705 
L 127.408771 -41.159969 
L 128.401477 -41.262918 
L 129.394183 -41.387141 
L 130.386889 -41.522938 
L 131.379595 -41.663959 
L 132.372301 -41.812706 
L 133.365007 -41.971183 
L 134.357713 -42.145277 
L 135.350419 -42.330219 
L 136.343125 -42.522448 
L 137.335831 -42.710628 
L 138.328537 -42.874236 
L 139.321243 -43.014429 
L 140.313948 -43.134911 
L 141.306654 -43.248076 
L 142.29936 -43.388405 
L 143.292066 -43.575226 
L 144.284772 -43.836643 
L 145.277478 -44.165888 
L 146.270184 -44.576695 
L 147.26289 -45.046706 
L 148.255596 -45.561999 
L 149.248302 -46.090746 
L 150.241008 -46.602528 
L 151.233714 -47.10144 
L 152.22642 -47.575338 
L 153.219125 -48.024655 
L 154.211831 -48.454365 
L 155.204537 -48.894163 
L 156.197243 -49.359267 
L 157.189949 -49.850304 
L 158.182655 -50.38126 
L 159.175361 -50.942602 
L 160.168067 -51.497459 
L 161.160773 -52.047343 
L 162.153479 -52.561833 
L 163.146185 -53.024691 
L 164.138891 -53.466925 
L 165.131597 -53.891636 
L 166.124302 -54.32072 
L 167.117008 -54.778919 
L 168.109714 -55.286065 
L 169.10242 -55.849902 
L 170.095126 -56.507029 
L 171.087832 -57.275286 
L 172.080538 -58.218409 
L 173.073244 -59.405623 
L 174.06595 -60.893901 
L 175.058656 -62.719721 
L 176.051362 -64.834016 
L 177.044068 -67.178322 
L 178.036774 -69.598946 
L 179.029479 -71.886853 
L 180.022185 -73.860244 
L 181.014891 -75.355165 
L 182.007597 -76.245975 
L 183.000303 -76.535412 
L 183.993009 -76.264548 
L 184.985715 -75.539465 
L 185.978421 -74.542458 
L 186.971127 -73.433573 
L 187.963833 -72.374577 
L 188.956539 -71.528282 
L 189.949245 -71.021987 
L 190.941951 -70.936325 
L 191.934657 -71.359766 
L 192.927362 -72.24877 
L 193.920068 -73.568029 
L 194.912774 -75.230879 
L 195.90548 -77.094996 
L 196.898186 -79.053865 
L 197.890892 -81.034893 
L 198.883598 -83.013583 
L 199.876304 -84.99866 
L 200.86901 -87.062371 
L 201.861716 -89.244024 
L 202.854422 -91.592844 
L 203.847128 -94.096313 
L 204.839834 -96.653418 
L 205.832539 -99.156727 
L 206.825245 -101.619271 
L 207.817951 -104.173551 
L 208.810657 -106.745027 
L 209.803363 -109.573117 
L 210.796069 -113.015414 
L 211.788775 -117.339728 
L 212.781481 -122.681483 
L 213.774187 -128.929343 
L 214.766893 -135.662832 
L 215.759599 -142.109202 
L 216.752305 -147.477362 
L 217.745011 -151.040969 
L 218.737716 -152.506973 
L 219.730422 -152.079643 
L 220.723128 -150.422221 
L 221.715834 -148.275867 
L 222.70854 -146.403844 
L 223.701246 -145.287636 
L 224.693952 -145.167284 
L 225.686658 -146.052553 
L 226.679364 -147.698115 
L 227.67207 -149.779473 
L 228.664776 -152.029887 
L 229.657482 -154.427415 
L 230.650188 -156.657672 
L 231.642893 -158.602591 
L 232.635599 -160.358446 
L 233.628305 -162.057543 
L 234.621011 -163.869792 
L 235.613717 -165.89873 
L 236.606423 -168.17479 
L 237.599129 -170.531717 
L 238.591835 -172.825552 
L 239.584541 -174.74594 
L 240.577247 -176.141089 
L 241.569953 -176.951249 
L 242.562659 -177.398087 
L 243.555365 -177.768868 
L 244.54807 -178.373028 
L 245.540776 -179.454682 
L 246.533482 -181.114759 
L 247.526188 -183.19692 
L 248.518894 -185.404143 
L 249.5116 -187.463836 
L 250.504306 -189.109177 
L 251.497012 -190.279563 
L 252.489718 -190.92434 
L 253.482424 -190.967895 
L 254.47513 -190.294385 
L 255.467836 -188.801367 
L 256.460542 -186.379369 
L 257.453248 -183.124492 
L 258.445953 -179.301466 
L 259.438659 -175.262819 
L 260.431365 -171.477286 
L 261.424071 -168.216899 
L 262.416777 -165.784614 
L 263.409483 -164.384691 
L 264.402189 -163.908037 
L 265.394895 -164.558882 
L 266.387601 -166.76155 
L 267.380307 -170.443398 
L 268.373013 -175.862441 
L 269.365719 -182.968427 
L 270.358425 -191.424387 
L 271.35113 -200.603582 
L 272.343836 -209.591115 
L 273.336542 -217.318733 
L 274.329248 -222.84171 
L 275.321954 -225.500248 
L 276.31466 -225.06073 
L 277.307366 -221.915375 
L 278.300072 -216.860922 
L 279.292778 -210.96733 
L 280.285484 -205.300551 
L 281.27819 -200.708354 
L 282.270896 -197.60108 
L 283.263602 -196.035614 
L 284.256307 -195.810052 
L 285.249013 -196.867103 
L 286.241719 -198.826617 
L 287.234425 -201.35954 
L 288.227131 -204.698992 
L 289.219837 -208.463072 
L 290.212543 -212.442437 
L 291.205249 -216.357327 
L 292.197955 -219.931053 
L 293.190661 -222.838103 
L 294.183367 -224.80371 
L 295.176073 -225.73819 
L 296.168779 -225.690701 
L 297.161484 -224.88545 
L 298.15419 -223.64108 
L 299.146896 -222.450619 
L 300.139602 -221.731817 
L 301.132308 -221.970655 
L 302.125014 -223.5265 
L 303.11772 -226.863373 
L 304.110426 -232.156009 
L 305.103132 -239.827842 
L 306.095838 -250.127981 
L 307.088544 -263.216762 
L 308.08125 -278.81788 
L 309.073956 -295.915566 
L 310.066661 -312.903057 
L 311.059367 -327.508585 
L 312.052073 -337.485435 
L 313.044779 -341.067875 
L 314.037485 -337.546119 
L 315.030191 -327.411486 
L 316.022897 -312.07921 
L 317.015603 -293.640244 
L 318.008309 -274.127693 
L 319.001015 -255.272398 
L 319.993721 -238.108117 
L 320.986427 -223.28547 
L 321.979133 -210.907837 
L 322.971839 -200.942487 
L 323.964544 -193.155335 
L 324.95725 -187.314301 
L 325.949956 -183.045749 
L 326.942662 -179.96474 
L 327.935368 -177.65563 
L 328.928074 -175.855899 
L 329.92078 -174.447898 
L 330.913486 -173.240704 
L 331.906192 -172.173234 
L 332.898898 -171.198159 
L 333.891604 -170.276677 
L 334.88431 -169.432667 
L 335.877016 -168.634072 
L 336.869721 -167.881852 
L 337.862427 -167.02331 
L 338.855133 -165.972756 
L 339.847839 -164.512048 
L 340.840545 -162.577651 
L 341.833251 -160.123219 
L 342.825957 -157.240683 
L 343.818663 -154.065565 
L 344.811369 -150.801405 
L 345.804075 -147.678448 
L 346.796781 -144.784068 
L 347.789487 -142.266674 
L 348.782193 -140.234809 
L 349.774898 -138.676749 
L 350.767604 -137.539108 
L 351.76031 -136.776128 
L 352.753016 -136.258714 
L 353.745722 -135.813411 
L 354.738428 -135.320006 
L 355.731134 -134.683404 
L 356.72384 -133.938424 
L 357.716546 -133.062335 
L 358.709252 -132.127875 
L 359.701958 -131.165302 
L 360.694664 -130.25041 
L 361.68737 -129.434306 
L 362.680075 -128.761689 
L 363.672781 -128.328228 
L 364.665487 -128.123925 
L 365.658193 -128.151799 
L 366.650899 -128.299607 
L 367.643605 -128.374724 
L 368.636311 -128.241547 
L 369.629017 -127.744782 
L 370.621723 -126.83431 
L 371.614429 -125.465764 
L 372.607135 -123.652946 
L 373.599841 -121.360445 
L 374.592547 -118.568514 
L 375.585252 -115.277903 
L 376.577958 -111.49768 
L 377.570664 -107.346696 
L 378.56337 -103.091926 
L 379.556076 -98.99207 
L 380.548782 -95.308485 
L 381.541488 -92.183688 
L 382.534194 -89.688972 
L 383.5269 -87.802655 
L 384.519606 -86.620964 
L 385.512312 -86.024561 
L 386.505018 -85.937957 
L 387.497724 -86.59113 
L 388.49043 -88.184343 
L 389.483135 -90.777012 
L 390.475841 -94.337591 
L 391.468547 -98.489349 
L 392.461253 -102.638677 
L 393.453959 -105.997119 
L 394.446665 -107.806194 
L 395.439371 -107.618384 
L 396.432077 -105.449663 
L 397.424783 -101.745352 
L 398.417489 -97.216113 
L 399.410195 -92.577601 
L 400.402901 -88.37156 
L 401.395607 -84.853176 
L 402.388312 -82.064131 
L 403.381018 -79.855823 
L 404.373724 -78.049814 
L 405.36643 -76.423285 
L 406.359136 -75.059922 
L 407.351842 -73.900758 
L 408.344548 -72.820558 
L 409.337254 -71.818408 
L 410.32996 -70.905582 
L 411.322666 -70.036224 
L 412.315372 -69.229467 
L 413.308078 -68.410268 
L 414.300784 -67.544915 
L 415.293489 -66.624791 
L 416.286195 -65.609826 
L 417.278901 -64.509371 
L 418.271607 -63.35981 
L 419.264313 -62.195247 
L 420.257019 -61.067443 
L 421.249725 -60.056483 
L 422.242431 -59.190181 
L 423.235137 -58.484908 
L 424.227843 -57.965499 
L 425.220549 -57.591817 
L 426.213255 -57.324926 
L 427.205961 -57.138051 
L 428.198666 -56.998658 
L 429.191372 -56.868004 
L 430.184078 -56.743858 
L 431.176784 -56.602449 
L 432.16949 -56.468971 
L 433.162196 -56.344498 
L 434.154902 -56.249448 
L 435.147608 -56.216591 
L 436.140314 -56.262844 
L 437.13302 -56.419152 
L 438.125726 -56.648446 
L 439.118432 -56.902346 
L 440.111138 -57.127077 
L 441.103843 -57.259218 
L 442.096549 -57.228153 
L 443.089255 -57.009086 
L 444.081961 -56.606193 
L 445.074667 -56.027466 
L 446.067373 -55.321918 
L 447.060079 -54.520883 
L 448.052785 -53.648949 
L 449.045491 -52.755153 
L 450.038197 -51.862289 
L 451.030903 -50.991252 
L 452.023609 -50.151991 
L 453.016315 -49.361534 
L 454.009021 -48.629483 
L 455.001726 -47.969761 
L 455.994432 -47.375327 
L 456.987138 -46.827267 
L 457.979844 -46.318696 
L 458.97255 -45.835335 
L 459.965256 -45.366812 
L 460.957962 -44.91482 
L 461.950668 -44.498063 
L 462.943374 -44.142894 
L 463.93608 -43.85352 
L 464.928786 -43.611223 
L 465.921492 -43.399999 
L 466.914198 -43.18272 
L 467.906903 -42.935341 
L 468.899609 -42.654289 
L 469.892315 -42.335015 
L 470.885021 -42.001488 
L 471.877727 -41.670248 
L 472.870433 -41.361611 
L 473.863139 -41.079748 
L 474.855845 -40.836096 
L 475.848551 -40.635178 
L 476.841257 -40.47169 
L 477.833963 -40.349973 
L 478.826669 -40.247903 
L 479.819375 -40.16738 
L 480.81208 -40.100904 
L 481.804786 -40.045267 
L 482.797492 -40.000731 
L 483.790198 -39.972813 
L 484.782904 -39.958489 
L 485.77561 -39.952652 
L 486.768316 -39.942414 
L 487.761022 -39.919015 
L 488.753728 -39.876216 
L 489.746434 -39.812625 
L 490.73914 -39.738504 
L 491.731846 -39.659709 
L 492.724552 -39.581475 
L 493.717257 -39.511346 
L 494.709963 -39.44809 
L 495.702669 -39.389504 
L 496.695375 -39.330467 
L 497.688081 -39.270729 
L 498.680787 -39.202283 
L 499.673493 -39.131362 
L 500.666199 -39.056236 
L 501.658905 -38.983646 
L 502.651611 -38.919005 
L 503.644317 -38.867711 
L 504.637023 -38.829718 
L 505.629729 -38.808188 
L 506.622434 -38.798105 
L 507.61514 -38.79655 
L 508.607846 -38.800241 
L 509.600552 -38.806646 
L 510.593258 -38.81387 
L 511.585964 -38.820185 
L 512.57867 -38.824236 
L 513.571376 -38.825756 
L 514.564082 -38.822756 
L 515.556788 -38.816083 
L 516.549494 -38.809143 
L 517.5422 -38.805955 
L 518.534906 -38.809777 
L 519.527612 -38.823801 
L 520.520317 -38.845542 
L 521.513023 -38.870181 
L 522.505729 -38.890627 
L 523.498435 -38.899401 
L 524.491141 -38.893565 
L 525.483847 -38.871962 
L 526.476553 -38.839319 
L 527.469259 -38.802315 
L 528.461965 -38.768618 
L 529.454671 -38.742653 
L 530.447377 -38.728283 
L 531.440083 -38.726358 
L 532.432789 -38.735603 
L 533.425494 -38.753048 
L 534.4182 -38.773396 
L 535.410906 -38.793887 
L 536.403612 -38.810271 
L 537.396318 -38.817184 
L 538.389024 -38.814497 
L 539.38173 -38.804029 
L 540.374436 -38.789485 
L 541.367142 -38.77512 
L 542.359848 -38.764216 
L 543.352554 -38.757997 
L 544.34526 -38.755445 
L 545.337966 -38.754028 
L 546.330671 -38.750963 
L 547.323377 -38.743886 
L 548.316083 -38.73389 
L 549.308789 -38.72059 
L 550.301495 -38.707381 
L 551.294201 -38.69514 
L 552.286907 -38.685204 
L 553.279613 -38.678017 
L 554.272319 -38.673341 
L 555.265025 -38.670588 
L 556.257731 -38.669115 
L 557.250437 -38.667875 
L 558.243143 -38.667875 
L 559.235848 -38.667875 
L 560.228554 -38.669115 
L 561.22126 -38.671828 
L 562.213966 -38.676055 
L 563.206672 -38.683484 
L 564.199378 -38.695346 
L 565.192084 -38.712469 
L 566.18479 -38.734646 
L 567.177496 -38.760096 
L 568.170202 -38.785364 
L 569.162908 -38.805947 
L 570.155614 -38.817554 
L 570.155614 -38.667875 
L 570.155614 -38.667875 
L 569.162908 -38.667875 
L 568.170202 -38.667875 
L 567.177496 -38.667875 
L 566.18479 -38.667875 
L 565.192084 -38.667875 
L 564.199378 -38.667875 
L 563.206672 -38.667875 
L 562.213966 -38.667875 
L 561.22126 -38.667875 
L 560.228554 -38.667875 
L 559.235848 -38.667875 
L 558.243143 -38.667875 
L 557.250437 -38.667875 
L 556.257731 -38.667875 
L 555.265025 -38.667875 
L 554.272319 -38.667875 
L 553.279613 -38.667875 
L 552.286907 -38.667875 
L 551.294201 -38.667875 
L 550.301495 -38.667875 
L 549.308789 -38.667875 
L 548.316083 -38.667875 
L 547.323377 -38.667875 
L 546.330671 -38.667875 
L 545.337966 -38.667875 
L 544.34526 -38.667875 
L 543.352554 -38.667875 
L 542.359848 -38.667875 
L 541.367142 -38.667875 
L 540.374436 -38.667875 
L 539.38173 -38.667875 
L 538.389024 -38.667875 
L 537.396318 -38.667875 
L 536.403612 -38.667875 
L 535.410906 -38.667875 
L 534.4182 -38.667875 
L 533.425494 -38.667875 
L 532.432789 -38.667875 
L 531.440083 -38.667875 
L 530.447377 -38.667875 
L 529.454671 -38.667875 
L 528.461965 -38.667875 
L 527.469259 -38.667875 
L 526.476553 -38.667875 
L 525.483847 -38.667875 
L 524.491141 -38.667875 
L 523.498435 -38.667875 
L 522.505729 -38.667875 
L 521.513023 -38.667875 
L 520.520317 -38.667875 
L 519.527612 -38.667875 
L 518.534906 -38.667875 
L 517.5422 -38.667875 
L 516.549494 -38.667875 
L 515.556788 -38.667875 
L 514.564082 -38.667875 
L 513.571376 -38.667875 
L 512.57867 -38.667875 
L 511.585964 -38.667875 
L 510.593258 -38.667875 
L 509.600552 -38.667875 
L 508.607846 -38.667875 
L 507.61514 -38.667875 
L 506.622434 -38.667875 
L 505.629729 -38.667875 
L 504.637023 -38.667875 
L 503.644317 -38.667875 
L 502.651611 -38.667875 
L 501.658905 -38.667875 
L 500.666199 -38.667875 
L 499.673493 -38.667875 
L 498.680787 -38.667875 
L 497.688081 -38.667875 
L 496.695375 -38.667875 
L 495.702669 -38.667875 
L 494.709963 -38.667875 
L 493.717257 -38.667875 
L 492.724552 -38.667875 
L 491.731846 -38.667875 
L 490.73914 -38.667875 
L 489.746434 -38.667875 
L 488.753728 -38.667875 
L 487.761022 -38.667875 
L 486.768316 -38.667875 
L 485.77561 -38.667875 
L 484.782904 -38.667875 
L 483.790198 -38.667875 
L 482.797492 -38.667875 
L 481.804786 -38.667875 
L 480.81208 -38.667875 
L 479.819375 -38.667875 
L 478.826669 -38.667875 
L 477.833963 -38.667875 
L 476.841257 -38.667875 
L 475.848551 -38.667875 
L 474.855845 -38.667875 
L 473.863139 -38.667875 
L 472.870433 -38.667875 
L 471.877727 -38.667875 
L 470.885021 -38.667875 
L 469.892315 -38.667875 
L 468.899609 -38.667875 
L 467.906903 -38.667875 
L 466.914198 -38.667875 
L 465.921492 -38.667875 
L 464.928786 -38.667875 
L 463.93608 -38.667875 
L 462.943374 -38.667875 
L 461.950668 -38.667875 
L 460.957962 -38.667875 
L 459.965256 -38.667875 
L 458.97255 -38.667875 
L 457.979844 -38.667875 
L 456.987138 -38.667875 
L 455.994432 -38.667875 
L 455.001726 -38.667875 
L 454.009021 -38.667875 
L 453.016315 -38.667875 
L 452.023609 -38.667875 
L 451.030903 -38.667875 
L 450.038197 -38.667875 
L 449.045491 -38.667875 
L 448.052785 -38.667875 
L 447.060079 -38.667875 
L 446.067373 -38.667875 
L 445.074667 -38.667875 
L 444.081961 -38.667875 
L 443.089255 -38.667875 
L 442.096549 -38.667875 
L 441.103843 -38.667875 
L 440.111138 -38.667875 
L 439.118432 -38.667875 
L 438.125726 -38.667875 
L 437.13302 -38.667875 
L 436.140314 -38.667875 
L 435.147608 -38.667875 
L 434.154902 -38.667875 
L 433.162196 -38.667875 
L 432.16949 -38.667875 
L 431.176784 -38.667875 
L 430.184078 -38.667875 
L 429.191372 -38.667875 
L 428.198666 -38.667875 
L 427.205961 -38.667875 
L 426.213255 -38.667875 
L 425.220549 -38.667875 
L 424.227843 -38.667875 
L 423.235137 -38.667875 
L 422.242431 -38.667875 
L 421.249725 -38.667875 
L 420.257019 -38.667875 
L 419.264313 -38.667875 
L 418.271607 -38.667875 
L 417.278901 -38.667875 
L 416.286195 -38.667875 
L 415.293489 -38.667875 
L 414.300784 -38.667875 
L 413.308078 -38.667875 
L 412.315372 -38.667875 
L 411.322666 -38.667875 
L 410.32996 -38.667875 
L 409.337254 -38.667875 
L 408.344548 -38.667875 
L 407.351842 -38.667875 
L 406.359136 -38.667875 
L 405.36643 -38.667875 
L 404.373724 -38.667875 
L 403.381018 -38.667875 
L 402.388312 -38.667875 
L 401.395607 -38.667875 
L 400.402901 -38.667875 
L 399.410195 -38.667875 
L 398.417489 -38.667875 
L 397.424783 -38.667875 
L 396.432077 -38.667875 
L 395.439371 -38.667875 
L 394.446665 -38.667875 
L 393.453959 -38.667875 
L 392.461253 -38.667875 
L 391.468547 -38.667875 
L 390.475841 -38.667875 
L 389.483135 -38.667875 
L 388.49043 -38.667875 
L 387.497724 -38.667875 
L 386.505018 -38.667875 
L 385.512312 -38.667875 
L 384.519606 -38.667875 
L 383.5269 -38.667875 
L 382.534194 -38.667875 
L 381.541488 -38.667875 
L 380.548782 -38.667875 
L 379.556076 -38.667875 
L 378.56337 -38.667875 
L 377.570664 -38.667875 
L 376.577958 -38.667875 
L 375.585252 -38.667875 
L 374.592547 -38.667875 
L 373.599841 -38.667875 
L 372.607135 -38.667875 
L 371.614429 -38.667875 
L 370.621723 -38.667875 
L 369.629017 -38.667875 
L 368.636311 -38.667875 
L 367.643605 -38.667875 
L 366.650899 -38.667875 
L 365.658193 -38.667875 
L 364.665487 -38.667875 
L 363.672781 -38.667875 
L 362.680075 -38.667875 
L 361.68737 -38.667875 
L 360.694664 -38.667875 
L 359.701958 -38.667875 
L 358.709252 -38.667875 
L 357.716546 -38.667875 
L 356.72384 -38.667875 
L 355.731134 -38.667875 
L 354.738428 -38.667875 
L 353.745722 -38.667875 
L 352.753016 -38.667875 
L 351.76031 -38.667875 
L 350.767604 -38.667875 
L 349.774898 -38.667875 
L 348.782193 -38.667875 
L 347.789487 -38.667875 
L 346.796781 -38.667875 
L 345.804075 -38.667875 
L 344.811369 -38.667875 
L 343.818663 -38.667875 
L 342.825957 -38.667875 
L 341.833251 -38.667875 
L 340.840545 -38.667875 
L 339.847839 -38.667875 
L 338.855133 -38.667875 
L 337.862427 -38.667875 
L 336.869721 -38.667875 
L 335.877016 -38.667875 
L 334.88431 -38.667875 
L 333.891604 -38.667875 
L 332.898898 -38.667875 
L 331.906192 -38.667875 
L 330.913486 -38.667875 
L 329.92078 -38.667875 
L 328.928074 -38.667875 
L 327.935368 -38.667875 
L 326.942662 -38.667875 
L 325.949956 -38.667875 
L 324.95725 -38.667875 
L 323.964544 -38.667875 
L 322.971839 -38.667875 
L 321.979133 -38.667875 
L 320.986427 -38.667875 
L 319.993721 -38.667875 
L 319.001015 -38.667875 
L 318.008309 -38.667875 
L 317.015603 -38.667875 
L 316.022897 -38.667875 
L 315.030191 -38.667875 
L 314.037485 -38.667875 
L 313.044779 -38.667875 
L 312.052073 -38.667875 
L 311.059367 -38.667875 
L 310.066661 -38.667875 
L 309.073956 -38.667875 
L 308.08125 -38.667875 
L 307.088544 -38.667875 
L 306.095838 -38.667875 
L 305.103132 -38.667875 
L 304.110426 -38.667875 
L 303.11772 -38.667875 
L 302.125014 -38.667875 
L 301.132308 -38.667875 
L 300.139602 -38.667875 
L 299.146896 -38.667875 
L 298.15419 -38.667875 
L 297.161484 -38.667875 
L 296.168779 -38.667875 
L 295.176073 -38.667875 
L 294.183367 -38.667875 
L 293.190661 -38.667875 
L 292.197955 -38.667875 
L 291.205249 -38.667875 
L 290.212543 -38.667875 
L 289.219837 -38.667875 
L 288.227131 -38.667875 
L 287.234425 -38.667875 
L 286.241719 -38.667875 
L 285.249013 -38.667875 
L 284.256307 -38.667875 
L 283.263602 -38.667875 
L 282.270896 -38.667875 
L 281.27819 -38.667875 
L 280.285484 -38.667875 
L 279.292778 -38.667875 
L 278.300072 -38.667875 
L 277.307366 -38.667875 
L 276.31466 -38.667875 
L 275.321954 -38.667875 
L 274.329248 -38.667875 
L 273.336542 -38.667875 
L 272.343836 -38.667875 
L 271.35113 -38.667875 
L 270.358425 -38.667875 
L 269.365719 -38.667875 
L 268.373013 -38.667875 
L 267.380307 -38.667875 
L 266.387601 -38.667875 
L 265.394895 -38.667875 
L 264.402189 -38.667875 
L 263.409483 -38.667875 
L 262.416777 -38.667875 
L 261.424071 -38.667875 
L 260.431365 -38.667875 
L 259.438659 -38.667875 
L 258.445953 -38.667875 
L 257.453248 -38.667875 
L 256.460542 -38.667875 
L 255.467836 -38.667875 
L 254.47513 -38.667875 
L 253.482424 -38.667875 
L 252.489718 -38.667875 
L 251.497012 -38.667875 
L 250.504306 -38.667875 
L 249.5116 -38.667875 
L 248.518894 -38.667875 
L 247.526188 -38.667875 
L 246.533482 -38.667875 
L 245.540776 -38.667875 
L 244.54807 -38.667875 
L 243.555365 -38.667875 
L 242.562659 -38.667875 
L 241.569953 -38.667875 
L 240.577247 -38.667875 
L 239.584541 -38.667875 
L 238.591835 -38.667875 
L 237.599129 -38.667875 
L 236.606423 -38.667875 
L 235.613717 -38.667875 
L 234.621011 -38.667875 
L 233.628305 -38.667875 
L 232.635599 -38.667875 
L 231.642893 -38.667875 
L 230.650188 -38.667875 
L 229.657482 -38.667875 
L 228.664776 -38.667875 
L 227.67207 -38.667875 
L 226.679364 -38.667875 
L 225.686658 -38.667875 
L 224.693952 -38.667875 
L 223.701246 -38.667875 
L 222.70854 -38.667875 
L 221.715834 -38.667875 
L 220.723128 -38.667875 
L 219.730422 -38.667875 
L 218.737716 -38.667875 
L 217.745011 -38.667875 
L 216.752305 -38.667875 
L 215.759599 -38.667875 
L 214.766893 -38.667875 
L 213.774187 -38.667875 
L 212.781481 -38.667875 
L 211.788775 -38.667875 
L 210.796069 -38.667875 
L 209.803363 -38.667875 
L 208.810657 -38.667875 
L 207.817951 -38.667875 
L 206.825245 -38.667875 
L 205.832539 -38.667875 
L 204.839834 -38.667875 
L 203.847128 -38.667875 
L 202.854422 -38.667875 
L 201.861716 -38.667875 
L 200.86901 -38.667875 
L 199.876304 -38.667875 
L 198.883598 -38.667875 
L 197.890892 -38.667875 
L 196.898186 -38.667875 
L 195.90548 -38.667875 
L 194.912774 -38.667875 
L 193.920068 -38.667875 
L 192.927362 -38.667875 
L 191.934657 -38.667875 
L 190.941951 -38.667875 
L 189.949245 -38.667875 
L 188.956539 -38.667875 
L 187.963833 -38.667875 
L 186.971127 -38.667875 
L 185.978421 -38.667875 
L 184.985715 -38.667875 
L 183.993009 -38.667875 
L 183.000303 -38.667875 
L 182.007597 -38.667875 
L 181.014891 -38.667875 
L 180.022185 -38.667875 
L 179.029479 -38.667875 
L 178.036774 -38.667875 
L 177.044068 -38.667875 
L 176.051362 -38.667875 
L 175.058656 -38.667875 
L 174.06595 -38.667875 
L 173.073244 -38.667875 
L 172.080538 -38.667875 
L 171.087832 -38.667875 
L 170.095126 -38.667875 
L 169.10242 -38.667875 
L 168.109714 -38.667875 
L 167.117008 -38.667875 
L 166.124302 -38.667875 
L 165.131597 -38.667875 
L 164.138891 -38.667875 
L 163.146185 -38.667875 
L 162.153479 -38.667875 
L 161.160773 -38.667875 
L 160.168067 -38.667875 
L 159.175361 -38.667875 
L 158.182655 -38.667875 
L 157.189949 -38.667875 
L 156.197243 -38.667875 
L 155.204537 -38.667875 
L 154.211831 -38.667875 
L 153.219125 -38.667875 
L 152.22642 -38.667875 
L 151.233714 -38.667875 
L 150.241008 -38.667875 
L 149.248302 -38.667875 
L 148.255596 -38.667875 
L 147.26289 -38.667875 
L 146.270184 -38.667875 
L 145.277478 -38.667875 
L 144.284772 -38.667875 
L 143.292066 -38.667875 
L 142.29936 -38.667875 
L 141.306654 -38.667875 
L 140.313948 -38.667875 
L 139.321243 -38.667875 
L 138.328537 -38.667875 
L 137.335831 -38.667875 
L 136.343125 -38.667875 
L 135.350419 -38.667875 
L 134.357713 -38.667875 
L 133.365007 -38.667875 
L 132.372301 -38.667875 
L 131.379595 -38.667875 
L 130.386889 -38.667875 
L 129.394183 -38.667875 
L 128.401477 -38.667875 
L 127.408771 -38.667875 
L 126.416066 -38.667875 
L 125.42336 -38.667875 
L 124.430654 -38.667875 
L 123.437948 -38.667875 
L 122.445242 -38.667875 
L 121.452536 -38.667875 
L 120.45983 -38.667875 
L 119.467124 -38.667875 
L 118.474418 -38.667875 
L 117.481712 -38.667875 
L 116.489006 -38.667875 
L 115.4963 -38.667875 
L 114.503594 -38.667875 
L 113.510888 -38.667875 
L 112.518183 -38.667875 
L 111.525477 -38.667875 
L 110.532771 -38.667875 
L 109.540065 -38.667875 
L 108.547359 -38.667875 
L 107.554653 -38.667875 
L 106.561947 -38.667875 
L 105.569241 -38.667875 
L 104.576535 -38.667875 
L 103.583829 -38.667875 
L 102.591123 -38.667875 
L 101.598417 -38.667875 
L 100.605711 -38.667875 
L 99.613006 -38.667875 
L 98.6203 -38.667875 
L 97.627594 -38.667875 
L 96.634888 -38.667875 
L 95.642182 -38.667875 
L 94.649476 -38.667875 
L 93.65677 -38.667875 
L 92.664064 -38.667875 
L 91.671358 -38.667875 
L 90.678652 -38.667875 
L 89.685946 -38.667875 
L 88.69324 -38.667875 
L 87.700534 -38.667875 
L 86.707829 -38.667875 
L 85.715123 -38.667875 
L 84.722417 -38.667875 
L 83.729711 -38.667875 
L 82.737005 -38.667875 
L 81.744299 -38.667875 
L 80.751593 -38.667875 
L 79.758887 -38.667875 
L 78.766181 -38.667875 
L 77.773475 -38.667875 
L 76.780769 -38.667875 
L 75.788063 -38.667875 
L 74.795357 -38.667875 
L 73.802652 -38.667875 
L 72.809946 -38.667875 
L 71.81724 -38.667875 
L 70.824534 -38.667875 
L 69.831828 -38.667875 
L 68.839122 -38.667875 
L 67.846416 -38.667875 
L 66.85371 -38.667875 
L 65.861004 -38.667875 
L 64.868298 -38.667875 
L 63.875592 -38.667875 
L 62.882886 -38.667875 
z
" style="stroke: #0173b2; stroke-opacity: 0; stroke-width: 0.8"/>
    </defs>
    <g clip-path="url(#p5624e85fc1)">
     <use xlink:href="#m8de7a49e90" x="0" y="363.387875" style="fill: #0173b2; fill-opacity: 0; stroke: #0173b2; stroke-opacity: 0; stroke-width: 0.8"/>
    </g>
   </g>
   <g id="line2d_13">
    <path d="M 62.882886 324.345692 
L 79.758887 324.521232 
L 91.671358 324.478293 
L 95.642182 324.422166 
L 100.605711 324.041001 
L 104.576535 323.774143 
L 113.510888 323.394763 
L 117.481712 323.293501 
L 119.467124 323.203618 
L 122.445242 322.812024 
L 126.416066 322.32517 
L 130.386889 321.864937 
L 135.350419 321.057656 
L 139.321243 320.373446 
L 143.292066 319.812649 
L 145.277478 319.221987 
L 147.26289 318.341169 
L 153.219125 315.36322 
L 157.189949 313.537571 
L 164.138891 309.92095 
L 168.109714 308.10181 
L 170.095126 306.880846 
L 171.087832 306.112589 
L 172.080538 305.169466 
L 173.073244 303.982252 
L 174.06595 302.493974 
L 175.058656 300.668154 
L 177.044068 296.209553 
L 179.029479 291.501022 
L 180.022185 289.527631 
L 181.014891 288.03271 
L 182.007597 287.1419 
L 183.000303 286.852463 
L 183.993009 287.123327 
L 184.985715 287.84841 
L 186.971127 289.954302 
L 187.963833 291.013298 
L 188.956539 291.859593 
L 189.949245 292.365888 
L 190.941951 292.45155 
L 191.934657 292.028109 
L 192.927362 291.139105 
L 193.920068 289.819846 
L 195.90548 286.292879 
L 200.86901 276.325504 
L 202.854422 271.795031 
L 208.810657 256.642848 
L 209.803363 253.814758 
L 210.796069 250.372461 
L 211.788775 246.048147 
L 212.781481 240.706392 
L 216.752305 215.910513 
L 217.745011 212.346906 
L 218.737716 210.880902 
L 219.730422 211.308232 
L 220.723128 212.965654 
L 221.715834 215.112008 
L 222.70854 216.984031 
L 223.701246 218.100239 
L 224.693952 218.220591 
L 225.686658 217.335322 
L 226.679364 215.68976 
L 228.664776 211.357988 
L 230.650188 206.730203 
L 232.635599 203.029429 
L 234.621011 199.518083 
L 236.606423 195.213085 
L 238.591835 190.562323 
L 239.584541 188.641935 
L 240.577247 187.246786 
L 241.569953 186.436626 
L 244.54807 185.014847 
L 245.540776 183.933193 
L 246.533482 182.273116 
L 249.5116 175.924039 
L 250.504306 174.278698 
L 251.497012 173.108312 
L 252.489718 172.463535 
L 253.482424 172.41998 
L 254.47513 173.09349 
L 255.467836 174.586508 
L 256.460542 177.008506 
L 257.453248 180.263383 
L 261.424071 195.170976 
L 262.416777 197.603261 
L 263.409483 199.003184 
L 264.402189 199.479838 
L 265.394895 198.828993 
L 266.387601 196.626325 
L 267.380307 192.944477 
L 268.373013 187.525434 
L 269.365719 180.419448 
L 271.35113 162.784293 
L 272.343836 153.79676 
L 273.336542 146.069142 
L 274.329248 140.546165 
L 275.321954 137.887627 
L 276.31466 138.327145 
L 277.307366 141.4725 
L 278.300072 146.526953 
L 280.285484 158.087324 
L 281.27819 162.679521 
L 282.270896 165.786795 
L 283.263602 167.352261 
L 284.256307 167.577823 
L 285.249013 166.520772 
L 286.241719 164.561258 
L 287.234425 162.028335 
L 288.227131 158.688883 
L 292.197955 143.456822 
L 293.190661 140.549772 
L 294.183367 138.584165 
L 295.176073 137.649685 
L 296.168779 137.697174 
L 297.161484 138.502425 
L 299.146896 140.937256 
L 300.139602 141.656058 
L 301.132308 141.41722 
L 302.125014 139.861375 
L 303.11772 136.524502 
L 304.110426 131.231866 
L 305.103132 123.560033 
L 306.095838 113.259894 
L 307.088544 100.171113 
L 309.073956 67.472309 
L 310.066661 50.484818 
L 311.059367 35.87929 
L 312.052073 25.90244 
L 313.044779 22.32 
L 314.037485 25.841756 
L 315.030191 35.976389 
L 316.022897 51.308665 
L 319.993721 125.279758 
L 320.986427 140.102405 
L 321.979133 152.480038 
L 322.971839 162.445388 
L 323.964544 170.23254 
L 324.95725 176.073574 
L 325.949956 180.342126 
L 326.942662 183.423135 
L 327.935368 185.732245 
L 328.928074 187.531976 
L 329.92078 188.939977 
L 331.906192 191.214641 
L 333.891604 193.111198 
L 338.855133 197.415119 
L 339.847839 198.875827 
L 340.840545 200.810224 
L 341.833251 203.264656 
L 343.818663 209.32231 
L 345.804075 215.709427 
L 346.796781 218.603807 
L 347.789487 221.121201 
L 348.782193 223.153066 
L 349.774898 224.711126 
L 350.767604 225.848767 
L 351.76031 226.611747 
L 355.731134 228.704471 
L 357.716546 230.32554 
L 361.68737 233.953569 
L 362.680075 234.626186 
L 363.672781 235.059647 
L 364.665487 235.26395 
L 365.658193 235.236076 
L 367.643605 235.013151 
L 368.636311 235.146328 
L 369.629017 235.643093 
L 370.621723 236.553565 
L 371.614429 237.922111 
L 372.607135 239.734929 
L 373.599841 242.02743 
L 374.592547 244.819361 
L 375.585252 248.109972 
L 377.570664 256.041179 
L 379.556076 264.395805 
L 380.548782 268.07939 
L 381.541488 271.204187 
L 382.534194 273.698903 
L 383.5269 275.58522 
L 384.519606 276.766911 
L 385.512312 277.363314 
L 386.505018 277.449918 
L 387.497724 276.796745 
L 388.49043 275.203532 
L 389.483135 272.610863 
L 390.475841 269.050284 
L 392.461253 260.749198 
L 393.453959 257.390756 
L 394.446665 255.581681 
L 395.439371 255.769491 
L 396.432077 257.938212 
L 397.424783 261.642523 
L 400.402901 275.016315 
L 401.395607 278.534699 
L 402.388312 281.323744 
L 403.381018 283.532052 
L 405.36643 286.96459 
L 406.359136 288.327953 
L 408.344548 290.567317 
L 410.32996 292.482293 
L 416.286195 297.778049 
L 421.249725 303.331392 
L 422.242431 304.197694 
L 423.235137 304.902967 
L 424.227843 305.422376 
L 426.213255 306.062949 
L 429.191372 306.519871 
L 435.147608 307.171284 
L 437.13302 306.968723 
L 441.103843 306.128657 
L 442.096549 306.159722 
L 443.089255 306.378789 
L 444.081961 306.781682 
L 446.067373 308.065957 
L 448.052785 309.738926 
L 452.023609 313.235884 
L 454.009021 314.758392 
L 455.994432 316.012548 
L 458.97255 317.55254 
L 461.950668 318.889812 
L 463.93608 319.534355 
L 469.892315 321.05286 
L 473.863139 322.308127 
L 475.848551 322.752697 
L 478.826669 323.139972 
L 482.797492 323.387144 
L 491.731846 323.728166 
L 501.658905 324.404229 
L 505.629729 324.579687 
L 515.556788 324.571792 
L 521.513023 324.517694 
L 525.483847 324.515913 
L 532.432789 324.652272 
L 540.374436 324.59839 
L 556.257731 324.71876 
L 567.177496 324.627779 
L 570.155614 324.570321 
L 570.155614 324.570321 
" clip-path="url(#p5624e85fc1)" style="fill: none; stroke: #0173b2; stroke-width: 1.2; stroke-linecap: round"/>
   </g>
   <g id="patch_3">
    <path d="M 37.51925 339.84 
L 37.51925 7.2 
" style="fill: none; stroke: #ffffff; stroke-linejoin: miter; stroke-linecap: square"/>
   </g>
   <g id="patch_4">
    <path d="M 595.51925 339.84 
L 595.51925 7.2 
" style="fill: none; stroke: #ffffff; stroke-linejoin: miter; stroke-linecap: square"/>
   </g>
   <g id="patch_5">
    <path d="M 37.51925 339.84 
L 595.51925 339.84 
" style="fill: none; stroke: #ffffff; stroke-linejoin: miter; stroke-linecap: square"/>
   </g>
   <g id="patch_6">
    <path d="M 37.51925 7.2 
L 595.51925 7.2 
" style="fill: none; stroke: #ffffff; stroke-linejoin: miter; stroke-linecap: square"/>
   </g>
  </g>
 </g>
 <defs>
  <clipPath id="p5624e85fc1">
   <rect x="37.51925" y="7.2" width="558" height="332.64"/>
  </clipPath>
 </defs>
</svg>