<?xml version="1.0" encoding="utf-8" standalone="no"?>
<!DOCTYPE svg PUBLIC "-//W3C//DTD SVG 1.1//EN"
  "http://www.w3.org/Graphics/SVG/1.1/DTD/svg11.dtd">
<svg xmlns:xlink="http://www.w3.org/1999/xlink" width="652.249531pt" height="366.599844pt" viewBox="0 0 652.249531 366.599844" xmlns="http://www.w3.org/2000/svg" version="1.1">
 <metadata>
  <rdf:RDF xmlns:dc="http://purl.org/dc/elements/1.1/" xmlns:cc="http://creativecommons.org/ns#" xmlns:rdf="http://www.w3.org/1999/02/22-rdf-syntax-ns#">
   <cc:Work>
    <dc:type rdf:resource="http://purl.org/dc/dcmitype/StillImage"/>
    <dc:date>2023-05-12T20:11:06.050575</dc:date>
    <dc:format>image/svg+xml</dc:format>
    <dc:creator>
     <cc:Agent>
      <dc:title>Matplotlib v3.7.1, https://matplotlib.org/</dc:title>
     </cc:Agent>
    </dc:creator>
   </cc:Work>
  </rdf:RDF>
 </metadata>
 <defs>
  <style type="text/css">*{stroke-linejoin: round; stroke-linecap: butt}</style>
 </defs>
 <g id="figure_1">
  <g id="patch_1">
   <path d="M 0 366.599844 
L 652.249531 366.599844 
L 652.249531 0 
L 0 0 
z
" style="fill: #ffffff"/>
  </g>
  <g id="axes_1">
   <g id="patch_2">
    <path d="M 50.025469 339.84 
L 608.025469 339.84 
L 608.025469 7.2 
L 50.025469 7.2 
z
" style="fill: #eaeaf2"/>
   </g>
   <g id="matplotlib.axis_1">
    <g id="xtick_1">
     <g id="line2d_1">
      <path d="M 98.239228 339.84 
L 98.239228 7.2 
" clip-path="url(#pacf12e44bd)" style="fill: none; stroke: #ffffff; stroke-linecap: round"/>
     </g>
     <g id="text_1">
      <!-- 60 -->
      <g style="fill: #262626" transform="translate(92.122197 357.213594) scale(0.11 -0.11)">
       <defs>
        <path id="ArialMT-36" d="M 3184 3459 
L 2625 3416 
Q 2550 3747 2413 3897 
Q 2184 4138 1850 4138 
Q 1581 4138 1378 3988 
Q 1113 3794 959 3422 
Q 806 3050 800 2363 
Q 1003 2672 1297 2822 
Q 1591 2972 1913 2972 
Q 2475 2972 2870 2558 
Q 3266 2144 3266 1488 
Q 3266 1056 3080 686 
Q 2894 316 2569 119 
Q 2244 -78 1831 -78 
Q 1128 -78 684 439 
Q 241 956 241 2144 
Q 241 3472 731 4075 
Q 1159 4600 1884 4600 
Q 2425 4600 2770 4297 
Q 3116 3994 3184 3459 
z
M 888 1484 
Q 888 1194 1011 928 
Q 1134 663 1356 523 
Q 1578 384 1822 384 
Q 2178 384 2434 671 
Q 2691 959 2691 1453 
Q 2691 1928 2437 2201 
Q 2184 2475 1800 2475 
Q 1419 2475 1153 2201 
Q 888 1928 888 1484 
z
" transform="scale(0.015625)"/>
        <path id="ArialMT-30" d="M 266 2259 
Q 266 3072 433 3567 
Q 600 4063 929 4331 
Q 1259 4600 1759 4600 
Q 2128 4600 2406 4451 
Q 2684 4303 2865 4023 
Q 3047 3744 3150 3342 
Q 3253 2941 3253 2259 
Q 3253 1453 3087 958 
Q 2922 463 2592 192 
Q 2263 -78 1759 -78 
Q 1097 -78 719 397 
Q 266 969 266 2259 
z
M 844 2259 
Q 844 1131 1108 757 
Q 1372 384 1759 384 
Q 2147 384 2411 759 
Q 2675 1134 2675 2259 
Q 2675 3391 2411 3762 
Q 2147 4134 1753 4134 
Q 1366 4134 1134 3806 
Q 844 3388 844 2259 
z
" transform="scale(0.015625)"/>
       </defs>
       <use xlink:href="#ArialMT-36"/>
       <use xlink:href="#ArialMT-30" x="55.615234"/>
      </g>
     </g>
    </g>
    <g id="xtick_2">
     <g id="line2d_2">
      <path d="M 189.639719 339.84 
L 189.639719 7.2 
" clip-path="url(#pacf12e44bd)" style="fill: none; stroke: #ffffff; stroke-linecap: round"/>
     </g>
     <g id="text_2">
      <!-- 80 -->
      <g style="fill: #262626" transform="translate(183.522688 357.213594) scale(0.11 -0.11)">
       <defs>
        <path id="ArialMT-38" d="M 1131 2484 
Q 781 2613 612 2850 
Q 444 3088 444 3419 
Q 444 3919 803 4259 
Q 1163 4600 1759 4600 
Q 2359 4600 2725 4251 
Q 3091 3903 3091 3403 
Q 3091 3084 2923 2848 
Q 2756 2613 2416 2484 
Q 2838 2347 3058 2040 
Q 3278 1734 3278 1309 
Q 3278 722 2862 322 
Q 2447 -78 1769 -78 
Q 1091 -78 675 323 
Q 259 725 259 1325 
Q 259 1772 486 2073 
Q 713 2375 1131 2484 
z
M 1019 3438 
Q 1019 3113 1228 2906 
Q 1438 2700 1772 2700 
Q 2097 2700 2305 2904 
Q 2513 3109 2513 3406 
Q 2513 3716 2298 3927 
Q 2084 4138 1766 4138 
Q 1444 4138 1231 3931 
Q 1019 3725 1019 3438 
z
M 838 1322 
Q 838 1081 952 856 
Q 1066 631 1291 507 
Q 1516 384 1775 384 
Q 2178 384 2440 643 
Q 2703 903 2703 1303 
Q 2703 1709 2433 1975 
Q 2163 2241 1756 2241 
Q 1359 2241 1098 1978 
Q 838 1716 838 1322 
z
" transform="scale(0.015625)"/>
       </defs>
       <use xlink:href="#ArialMT-38"/>
       <use xlink:href="#ArialMT-30" x="55.615234"/>
      </g>
     </g>
    </g>
    <g id="xtick_3">
     <g id="line2d_3">
      <path d="M 281.040211 339.84 
L 281.040211 7.2 
" clip-path="url(#pacf12e44bd)" style="fill: none; stroke: #ffffff; stroke-linecap: round"/>
     </g>
     <g id="text_3">
      <!-- 100 -->
      <g style="fill: #262626" transform="translate(271.864664 357.213594) scale(0.11 -0.11)">
       <defs>
        <path id="ArialMT-31" d="M 2384 0 
L 1822 0 
L 1822 3584 
Q 1619 3391 1289 3197 
Q 959 3003 697 2906 
L 697 3450 
Q 1169 3672 1522 3987 
Q 1875 4303 2022 4600 
L 2384 4600 
L 2384 0 
z
" transform="scale(0.015625)"/>
       </defs>
       <use xlink:href="#ArialMT-31"/>
       <use xlink:href="#ArialMT-30" x="55.615234"/>
       <use xlink:href="#ArialMT-30" x="111.230469"/>
      </g>
     </g>
    </g>
    <g id="xtick_4">
     <g id="line2d_4">
      <path d="M 372.440702 339.84 
L 372.440702 7.2 
" clip-path="url(#pacf12e44bd)" style="fill: none; stroke: #ffffff; stroke-linecap: round"/>
     </g>
     <g id="text_4">
      <!-- 120 -->
      <g style="fill: #262626" transform="translate(363.265155 357.213594) scale(0.11 -0.11)">
       <defs>
        <path id="ArialMT-32" d="M 3222 541 
L 3222 0 
L 194 0 
Q 188 203 259 391 
Q 375 700 629 1000 
Q 884 1300 1366 1694 
Q 2113 2306 2375 2664 
Q 2638 3022 2638 3341 
Q 2638 3675 2398 3904 
Q 2159 4134 1775 4134 
Q 1369 4134 1125 3890 
Q 881 3647 878 3216 
L 300 3275 
Q 359 3922 746 4261 
Q 1134 4600 1788 4600 
Q 2447 4600 2831 4234 
Q 3216 3869 3216 3328 
Q 3216 3053 3103 2787 
Q 2991 2522 2730 2228 
Q 2469 1934 1863 1422 
Q 1356 997 1212 845 
Q 1069 694 975 541 
L 3222 541 
z
" transform="scale(0.015625)"/>
       </defs>
       <use xlink:href="#ArialMT-31"/>
       <use xlink:href="#ArialMT-32" x="55.615234"/>
       <use xlink:href="#ArialMT-30" x="111.230469"/>
      </g>
     </g>
    </g>
    <g id="xtick_5">
     <g id="line2d_5">
      <path d="M 463.841194 339.84 
L 463.841194 7.2 
" clip-path="url(#pacf12e44bd)" style="fill: none; stroke: #ffffff; stroke-linecap: round"/>
     </g>
     <g id="text_5">
      <!-- 140 -->
      <g style="fill: #262626" transform="translate(454.665647 357.213594) scale(0.11 -0.11)">
       <defs>
        <path id="ArialMT-34" d="M 2069 0 
L 2069 1097 
L 81 1097 
L 81 1613 
L 2172 4581 
L 2631 4581 
L 2631 1613 
L 3250 1613 
L 3250 1097 
L 2631 1097 
L 2631 0 
L 2069 0 
z
M 2069 1613 
L 2069 3678 
L 634 1613 
L 2069 1613 
z
" transform="scale(0.015625)"/>
       </defs>
       <use xlink:href="#ArialMT-31"/>
       <use xlink:href="#ArialMT-34" x="55.615234"/>
       <use xlink:href="#ArialMT-30" x="111.230469"/>
      </g>
     </g>
    </g>
    <g id="xtick_6">
     <g id="line2d_6">
      <path d="M 555.241685 339.84 
L 555.241685 7.2 
" clip-path="url(#pacf12e44bd)" style="fill: none; stroke: #ffffff; stroke-linecap: round"/>
     </g>
     <g id="text_6">
      <!-- 160 -->
      <g style="fill: #262626" transform="translate(546.066138 357.213594) scale(0.11 -0.11)">
       <use xlink:href="#ArialMT-31"/>
       <use xlink:href="#ArialMT-36" x="55.615234"/>
       <use xlink:href="#ArialMT-30" x="111.230469"/>
      </g>
     </g>
    </g>
   </g>
   <g id="matplotlib.axis_2">
    <g id="ytick_1">
     <g id="line2d_7">
      <path d="M 50.025469 339.84 
L 608.025469 339.84 
" clip-path="url(#pacf12e44bd)" style="fill: none; stroke: #ffffff; stroke-linecap: round"/>
     </g>
     <g id="line2d_8">
      <defs>
       <path id="m5c2f36f35b" d="M 0 0 
L -6 0 
" style="stroke: #262626; stroke-width: 1.25"/>
      </defs>
      <g>
       <use xlink:href="#m5c2f36f35b" x="50.025469" y="339.84" style="fill: #262626; stroke: #262626; stroke-width: 1.25"/>
      </g>
     </g>
     <g id="text_7">
      <!-- 0 -->
      <g style="fill: #262626" transform="translate(34.408438 343.776797) scale(0.11 -0.11)">
       <use xlink:href="#ArialMT-30"/>
      </g>
     </g>
    </g>
    <g id="ytick_2">
     <g id="line2d_9">
      <path d="M 50.025469 299.067799 
L 608.025469 299.067799 
" clip-path="url(#pacf12e44bd)" style="fill: none; stroke: #ffffff; stroke-linecap: round"/>
     </g>
     <g id="line2d_10">
      <g>
       <use xlink:href="#m5c2f36f35b" x="50.025469" y="299.067799" style="fill: #262626; stroke: #262626; stroke-width: 1.25"/>
      </g>
     </g>
     <g id="text_8">
      <!-- 100 -->
      <g style="fill: #262626" transform="translate(22.174375 303.004596) scale(0.11 -0.11)">
       <use xlink:href="#ArialMT-31"/>
       <use xlink:href="#ArialMT-30" x="55.615234"/>
       <use xlink:href="#ArialMT-30" x="111.230469"/>
      </g>
     </g>
    </g>
    <g id="ytick_3">
     <g id="line2d_11">
      <path d="M 50.025469 258.295598 
L 608.025469 258.295598 
" clip-path="url(#pacf12e44bd)" style="fill: none; stroke: #ffffff; stroke-linecap: round"/>
     </g>
     <g id="line2d_12">
      <g>
       <use xlink:href="#m5c2f36f35b" x="50.025469" y="258.295598" style="fill: #262626; stroke: #262626; stroke-width: 1.25"/>
      </g>
     </g>
     <g id="text_9">
      <!-- 200 -->
      <g style="fill: #262626" transform="translate(22.174375 262.232395) scale(0.11 -0.11)">
       <use xlink:href="#ArialMT-32"/>
       <use xlink:href="#ArialMT-30" x="55.615234"/>
       <use xlink:href="#ArialMT-30" x="111.230469"/>
      </g>
     </g>
    </g>
    <g id="ytick_4">
     <g id="line2d_13">
      <path d="M 50.025469 217.523398 
L 608.025469 217.523398 
" clip-path="url(#pacf12e44bd)" style="fill: none; stroke: #ffffff; stroke-linecap: round"/>
     </g>
     <g id="line2d_14">
      <g>
       <use xlink:href="#m5c2f36f35b" x="50.025469" y="217.523398" style="fill: #262626; stroke: #262626; stroke-width: 1.25"/>
      </g>
     </g>
     <g id="text_10">
      <!-- 300 -->
      <g style="fill: #262626" transform="translate(22.174375 221.460195) scale(0.11 -0.11)">
       <defs>
        <path id="ArialMT-33" d="M 269 1209 
L 831 1284 
Q 928 806 1161 595 
Q 1394 384 1728 384 
Q 2125 384 2398 659 
Q 2672 934 2672 1341 
Q 2672 1728 2419 1979 
Q 2166 2231 1775 2231 
Q 1616 2231 1378 2169 
L 1441 2663 
Q 1497 2656 1531 2656 
Q 1891 2656 2178 2843 
Q 2466 3031 2466 3422 
Q 2466 3731 2256 3934 
Q 2047 4138 1716 4138 
Q 1388 4138 1169 3931 
Q 950 3725 888 3313 
L 325 3413 
Q 428 3978 793 4289 
Q 1159 4600 1703 4600 
Q 2078 4600 2393 4439 
Q 2709 4278 2876 4000 
Q 3044 3722 3044 3409 
Q 3044 3113 2884 2869 
Q 2725 2625 2413 2481 
Q 2819 2388 3044 2092 
Q 3269 1797 3269 1353 
Q 3269 753 2831 336 
Q 2394 -81 1725 -81 
Q 1122 -81 723 278 
Q 325 638 269 1209 
z
" transform="scale(0.015625)"/>
       </defs>
       <use xlink:href="#ArialMT-33"/>
       <use xlink:href="#ArialMT-30" x="55.615234"/>
       <use xlink:href="#ArialMT-30" x="111.230469"/>
      </g>
     </g>
    </g>
    <g id="ytick_5">
     <g id="line2d_15">
      <path d="M 50.025469 176.751197 
L 608.025469 176.751197 
" clip-path="url(#pacf12e44bd)" style="fill: none; stroke: #ffffff; stroke-linecap: round"/>
     </g>
     <g id="line2d_16">
      <g>
       <use xlink:href="#m5c2f36f35b" x="50.025469" y="176.751197" style="fill: #262626; stroke: #262626; stroke-width: 1.25"/>
      </g>
     </g>
     <g id="text_11">
      <!-- 400 -->
      <g style="fill: #262626" transform="translate(22.174375 180.687994) scale(0.11 -0.11)">
       <use xlink:href="#ArialMT-34"/>
       <use xlink:href="#ArialMT-30" x="55.615234"/>
       <use xlink:href="#ArialMT-30" x="111.230469"/>
      </g>
     </g>
    </g>
    <g id="ytick_6">
     <g id="line2d_17">
      <path d="M 50.025469 135.978996 
L 608.025469 135.978996 
" clip-path="url(#pacf12e44bd)" style="fill: none; stroke: #ffffff; stroke-linecap: round"/>
     </g>
     <g id="line2d_18">
      <g>
       <use xlink:href="#m5c2f36f35b" x="50.025469" y="135.978996" style="fill: #262626; stroke: #262626; stroke-width: 1.25"/>
      </g>
     </g>
     <g id="text_12">
      <!-- 500 -->
      <g style="fill: #262626" transform="translate(22.174375 139.915793) scale(0.11 -0.11)">
       <defs>
        <path id="ArialMT-35" d="M 266 1200 
L 856 1250 
Q 922 819 1161 601 
Q 1400 384 1738 384 
Q 2144 384 2425 690 
Q 2706 997 2706 1503 
Q 2706 1984 2436 2262 
Q 2166 2541 1728 2541 
Q 1456 2541 1237 2417 
Q 1019 2294 894 2097 
L 366 2166 
L 809 4519 
L 3088 4519 
L 3088 3981 
L 1259 3981 
L 1013 2750 
Q 1425 3038 1878 3038 
Q 2478 3038 2890 2622 
Q 3303 2206 3303 1553 
Q 3303 931 2941 478 
Q 2500 -78 1738 -78 
Q 1113 -78 717 272 
Q 322 622 266 1200 
z
" transform="scale(0.015625)"/>
       </defs>
       <use xlink:href="#ArialMT-35"/>
       <use xlink:href="#ArialMT-30" x="55.615234"/>
       <use xlink:href="#ArialMT-30" x="111.230469"/>
      </g>
     </g>
    </g>
    <g id="ytick_7">
     <g id="line2d_19">
      <path d="M 50.025469 95.206795 
L 608.025469 95.206795 
" clip-path="url(#pacf12e44bd)" style="fill: none; stroke: #ffffff; stroke-linecap: round"/>
     </g>
     <g id="line2d_20">
      <g>
       <use xlink:href="#m5c2f36f35b" x="50.025469" y="95.206795" style="fill: #262626; stroke: #262626; stroke-width: 1.25"/>
      </g>
     </g>
     <g id="text_13">
      <!-- 600 -->
      <g style="fill: #262626" transform="translate(22.174375 99.143592) scale(0.11 -0.11)">
       <use xlink:href="#ArialMT-36"/>
       <use xlink:href="#ArialMT-30" x="55.615234"/>
       <use xlink:href="#ArialMT-30" x="111.230469"/>
      </g>
     </g>
    </g>
    <g id="ytick_8">
     <g id="line2d_21">
      <path d="M 50.025469 54.434595 
L 608.025469 54.434595 
" clip-path="url(#pacf12e44bd)" style="fill: none; stroke: #ffffff; stroke-linecap: round"/>
     </g>
     <g id="line2d_22">
      <g>
       <use xlink:href="#m5c2f36f35b" x="50.025469" y="54.434595" style="fill: #262626; stroke: #262626; stroke-width: 1.25"/>
      </g>
     </g>
     <g id="text_14">
      <!-- 700 -->
      <g style="fill: #262626" transform="translate(22.174375 58.371391) scale(0.11 -0.11)">
       <defs>
        <path id="ArialMT-37" d="M 303 3981 
L 303 4522 
L 3269 4522 
L 3269 4084 
Q 2831 3619 2401 2847 
Q 1972 2075 1738 1259 
Q 1569 684 1522 0 
L 944 0 
Q 953 541 1156 1306 
Q 1359 2072 1739 2783 
Q 2119 3494 2547 3981 
L 303 3981 
z
" transform="scale(0.015625)"/>
       </defs>
       <use xlink:href="#ArialMT-37"/>
       <use xlink:href="#ArialMT-30" x="55.615234"/>
       <use xlink:href="#ArialMT-30" x="111.230469"/>
      </g>
     </g>
    </g>
    <g id="ytick_9">
     <g id="line2d_23">
      <path d="M 50.025469 13.662394 
L 608.025469 13.662394 
" clip-path="url(#pacf12e44bd)" style="fill: none; stroke: #ffffff; stroke-linecap: round"/>
     </g>
     <g id="line2d_24">
      <g>
       <use xlink:href="#m5c2f36f35b" x="50.025469" y="13.662394" style="fill: #262626; stroke: #262626; stroke-width: 1.25"/>
      </g>
     </g>
     <g id="text_15">
      <!-- 800 -->
      <g style="fill: #262626" transform="translate(22.174375 17.599191) scale(0.11 -0.11)">
       <use xlink:href="#ArialMT-38"/>
       <use xlink:href="#ArialMT-30" x="55.615234"/>
       <use xlink:href="#ArialMT-30" x="111.230469"/>
      </g>
     </g>
    </g>
    <g id="text_16">
     <!-- Count -->
     <g style="fill: #262626" transform="translate(15.789375 189.529688) rotate(-90) scale(0.12 -0.12)">
      <defs>
       <path id="ArialMT-43" d="M 3763 1606 
L 4369 1453 
Q 4178 706 3683 314 
Q 3188 -78 2472 -78 
Q 1731 -78 1267 223 
Q 803 525 561 1097 
Q 319 1669 319 2325 
Q 319 3041 592 3573 
Q 866 4106 1370 4382 
Q 1875 4659 2481 4659 
Q 3169 4659 3637 4309 
Q 4106 3959 4291 3325 
L 3694 3184 
Q 3534 3684 3231 3912 
Q 2928 4141 2469 4141 
Q 1941 4141 1586 3887 
Q 1231 3634 1087 3207 
Q 944 2781 944 2328 
Q 944 1744 1114 1308 
Q 1284 872 1643 656 
Q 2003 441 2422 441 
Q 2931 441 3284 734 
Q 3638 1028 3763 1606 
z
" transform="scale(0.015625)"/>
       <path id="ArialMT-6f" d="M 213 1659 
Q 213 2581 725 3025 
Q 1153 3394 1769 3394 
Q 2453 3394 2887 2945 
Q 3322 2497 3322 1706 
Q 3322 1066 3130 698 
Q 2938 331 2570 128 
Q 2203 -75 1769 -75 
Q 1072 -75 642 372 
Q 213 819 213 1659 
z
M 791 1659 
Q 791 1022 1069 705 
Q 1347 388 1769 388 
Q 2188 388 2466 706 
Q 2744 1025 2744 1678 
Q 2744 2294 2464 2611 
Q 2184 2928 1769 2928 
Q 1347 2928 1069 2612 
Q 791 2297 791 1659 
z
" transform="scale(0.015625)"/>
       <path id="ArialMT-75" d="M 2597 0 
L 2597 488 
Q 2209 -75 1544 -75 
Q 1250 -75 995 37 
Q 741 150 617 320 
Q 494 491 444 738 
Q 409 903 409 1263 
L 409 3319 
L 972 3319 
L 972 1478 
Q 972 1038 1006 884 
Q 1059 663 1231 536 
Q 1403 409 1656 409 
Q 1909 409 2131 539 
Q 2353 669 2445 892 
Q 2538 1116 2538 1541 
L 2538 3319 
L 3100 3319 
L 3100 0 
L 2597 0 
z
" transform="scale(0.015625)"/>
       <path id="ArialMT-6e" d="M 422 0 
L 422 3319 
L 928 3319 
L 928 2847 
Q 1294 3394 1984 3394 
Q 2284 3394 2536 3286 
Q 2788 3178 2913 3003 
Q 3038 2828 3088 2588 
Q 3119 2431 3119 2041 
L 3119 0 
L 2556 0 
L 2556 2019 
Q 2556 2363 2490 2533 
Q 2425 2703 2258 2804 
Q 2091 2906 1866 2906 
Q 1506 2906 1245 2678 
Q 984 2450 984 1813 
L 984 0 
L 422 0 
z
" transform="scale(0.015625)"/>
       <path id="ArialMT-74" d="M 1650 503 
L 1731 6 
Q 1494 -44 1306 -44 
Q 1000 -44 831 53 
Q 663 150 594 308 
Q 525 466 525 972 
L 525 2881 
L 113 2881 
L 113 3319 
L 525 3319 
L 525 4141 
L 1084 4478 
L 1084 3319 
L 1650 3319 
L 1650 2881 
L 1084 2881 
L 1084 941 
Q 1084 700 1114 631 
Q 1144 563 1211 522 
Q 1278 481 1403 481 
Q 1497 481 1650 503 
z
" transform="scale(0.015625)"/>
      </defs>
      <use xlink:href="#ArialMT-43"/>
      <use xlink:href="#ArialMT-6f" x="72.216797"/>
      <use xlink:href="#ArialMT-75" x="127.832031"/>
      <use xlink:href="#ArialMT-6e" x="183.447266"/>
      <use xlink:href="#ArialMT-74" x="239.0625"/>
     </g>
    </g>
   </g>
   <g id="patch_3">
    <path d="M 203.349793 339.84 
L 208.847069 339.84 
L 208.847069 339.024556 
L 203.349793 339.024556 
z
" clip-path="url(#pacf12e44bd)" style="fill: #0173b2; fill-opacity: 0.75; stroke: #ffffff; stroke-width: 0.735178; stroke-linejoin: miter"/>
   </g>
   <g id="patch_4">
    <path d="M 208.847069 339.84 
L 214.344345 339.84 
L 214.344345 338.616834 
L 208.847069 338.616834 
z
" clip-path="url(#pacf12e44bd)" style="fill: #0173b2; fill-opacity: 0.75; stroke: #ffffff; stroke-width: 0.735178; stroke-linejoin: miter"/>
   </g>
   <g id="patch_5">
    <path d="M 214.344345 339.84 
L 219.841621 339.84 
L 219.841621 339.84 
L 214.344345 339.84 
z
" clip-path="url(#pacf12e44bd)" style="fill: #0173b2; fill-opacity: 0.75; stroke: #ffffff; stroke-width: 0.735178; stroke-linejoin: miter"/>
   </g>
   <g id="patch_6">
    <path d="M 219.841621 339.84 
L 225.338897 339.84 
L 225.338897 339.024556 
L 219.841621 339.024556 
z
" clip-path="url(#pacf12e44bd)" style="fill: #0173b2; fill-opacity: 0.75; stroke: #ffffff; stroke-width: 0.735178; stroke-linejoin: miter"/>
   </g>
   <g id="patch_7">
    <path d="M 225.338897 339.84 
L 230.836173 339.84 
L 230.836173 338.209112 
L 225.338897 338.209112 
z
" clip-path="url(#pacf12e44bd)" style="fill: #0173b2; fill-opacity: 0.75; stroke: #ffffff; stroke-width: 0.735178; stroke-linejoin: miter"/>
   </g>
   <g id="patch_8">
    <path d="M 230.836173 339.84 
L 236.333449 339.84 
L 236.333449 336.578224 
L 230.836173 336.578224 
z
" clip-path="url(#pacf12e44bd)" style="fill: #0173b2; fill-opacity: 0.75; stroke: #ffffff; stroke-width: 0.735178; stroke-linejoin: miter"/>
   </g>
   <g id="patch_9">
    <path d="M 236.333449 339.84 
L 241.830725 339.84 
L 241.830725 336.170502 
L 236.333449 336.170502 
z
" clip-path="url(#pacf12e44bd)" style="fill: #0173b2; fill-opacity: 0.75; stroke: #ffffff; stroke-width: 0.735178; stroke-linejoin: miter"/>
   </g>
   <g id="patch_10">
    <path d="M 241.830725 339.84 
L 247.328001 339.84 
L 247.328001 335.76278 
L 241.830725 335.76278 
z
" clip-path="url(#pacf12e44bd)" style="fill: #0173b2; fill-opacity: 0.75; stroke: #ffffff; stroke-width: 0.735178; stroke-linejoin: miter"/>
   </g>
   <g id="patch_11">
    <path d="M 247.328001 339.84 
L 252.825276 339.84 
L 252.825276 333.316448 
L 247.328001 333.316448 
z
" clip-path="url(#pacf12e44bd)" style="fill: #0173b2; fill-opacity: 0.75; stroke: #ffffff; stroke-width: 0.735178; stroke-linejoin: miter"/>
   </g>
   <g id="patch_12">
    <path d="M 252.825276 339.84 
L 258.322552 339.84 
L 258.322552 319.046178 
L 252.825276 319.046178 
z
" clip-path="url(#pacf12e44bd)" style="fill: #0173b2; fill-opacity: 0.75; stroke: #ffffff; stroke-width: 0.735178; stroke-linejoin: miter"/>
   </g>
   <g id="patch_13">
    <path d="M 258.322552 339.84 
L 263.819828 339.84 
L 263.819828 325.56973 
L 258.322552 325.56973 
z
" clip-path="url(#pacf12e44bd)" style="fill: #0173b2; fill-opacity: 0.75; stroke: #ffffff; stroke-width: 0.735178; stroke-linejoin: miter"/>
   </g>
   <g id="patch_14">
    <path d="M 263.819828 339.84 
L 269.317104 339.84 
L 269.317104 314.968958 
L 263.819828 314.968958 
z
" clip-path="url(#pacf12e44bd)" style="fill: #0173b2; fill-opacity: 0.75; stroke: #ffffff; stroke-width: 0.735178; stroke-linejoin: miter"/>
   </g>
   <g id="patch_15">
    <path d="M 269.317104 339.84 
L 274.81438 339.84 
L 274.81438 312.522625 
L 269.317104 312.522625 
z
" clip-path="url(#pacf12e44bd)" style="fill: #0173b2; fill-opacity: 0.75; stroke: #ffffff; stroke-width: 0.735178; stroke-linejoin: miter"/>
   </g>
   <g id="patch_16">
    <path d="M 274.81438 339.84 
L 280.311656 339.84 
L 280.311656 306.406795 
L 274.81438 306.406795 
z
" clip-path="url(#pacf12e44bd)" style="fill: #0173b2; fill-opacity: 0.75; stroke: #ffffff; stroke-width: 0.735178; stroke-linejoin: miter"/>
   </g>
   <g id="patch_17">
    <path d="M 280.311656 339.84 
L 285.808932 339.84 
L 285.808932 255.441544 
L 280.311656 255.441544 
z
" clip-path="url(#pacf12e44bd)" style="fill: #0173b2; fill-opacity: 0.75; stroke: #ffffff; stroke-width: 0.735178; stroke-linejoin: miter"/>
   </g>
   <g id="patch_18">
    <path d="M 285.808932 339.84 
L 291.306208 339.84 
L 291.306208 282.351197 
L 285.808932 282.351197 
z
" clip-path="url(#pacf12e44bd)" style="fill: #0173b2; fill-opacity: 0.75; stroke: #ffffff; stroke-width: 0.735178; stroke-linejoin: miter"/>
   </g>
   <g id="patch_19">
    <path d="M 291.306208 339.84 
L 296.803484 339.84 
L 296.803484 278.681699 
L 291.306208 278.681699 
z
" clip-path="url(#pacf12e44bd)" style="fill: #0173b2; fill-opacity: 0.75; stroke: #ffffff; stroke-width: 0.735178; stroke-linejoin: miter"/>
   </g>
   <g id="patch_20">
    <path d="M 296.803484 339.84 
L 302.30076 339.84 
L 302.30076 260.741931 
L 296.803484 260.741931 
z
" clip-path="url(#pacf12e44bd)" style="fill: #0173b2; fill-opacity: 0.75; stroke: #ffffff; stroke-width: 0.735178; stroke-linejoin: miter"/>
   </g>
   <g id="patch_21">
    <path d="M 302.30076 339.84 
L 307.798036 339.84 
L 307.798036 253.810656 
L 302.30076 253.810656 
z
" clip-path="url(#pacf12e44bd)" style="fill: #0173b2; fill-opacity: 0.75; stroke: #ffffff; stroke-width: 0.735178; stroke-linejoin: miter"/>
   </g>
   <g id="patch_22">
    <path d="M 307.798036 339.84 
L 313.295312 339.84 
L 313.295312 125.378224 
L 307.798036 125.378224 
z
" clip-path="url(#pacf12e44bd)" style="fill: #0173b2; fill-opacity: 0.75; stroke: #ffffff; stroke-width: 0.735178; stroke-linejoin: miter"/>
   </g>
   <g id="patch_23">
    <path d="M 313.295312 339.84 
L 318.792588 339.84 
L 318.792588 211.407568 
L 313.295312 211.407568 
z
" clip-path="url(#pacf12e44bd)" style="fill: #0173b2; fill-opacity: 0.75; stroke: #ffffff; stroke-width: 0.735178; stroke-linejoin: miter"/>
   </g>
   <g id="patch_24">
    <path d="M 318.792588 339.84 
L 324.289864 339.84 
L 324.289864 213.446178 
L 318.792588 213.446178 
z
" clip-path="url(#pacf12e44bd)" style="fill: #0173b2; fill-opacity: 0.75; stroke: #ffffff; stroke-width: 0.735178; stroke-linejoin: miter"/>
   </g>
   <g id="patch_25">
    <path d="M 324.289864 339.84 
L 329.78714 339.84 
L 329.78714 212.630734 
L 324.289864 212.630734 
z
" clip-path="url(#pacf12e44bd)" style="fill: #0173b2; fill-opacity: 0.75; stroke: #ffffff; stroke-width: 0.735178; stroke-linejoin: miter"/>
   </g>
   <g id="patch_26">
    <path d="M 329.78714 339.84 
L 335.284415 339.84 
L 335.284415 182.459305 
L 329.78714 182.459305 
z
" clip-path="url(#pacf12e44bd)" style="fill: #0173b2; fill-opacity: 0.75; stroke: #ffffff; stroke-width: 0.735178; stroke-linejoin: miter"/>
   </g>
   <g id="patch_27">
    <path d="M 335.284415 339.84 
L 340.781691 339.84 
L 340.781691 36.087104 
L 335.284415 36.087104 
z
" clip-path="url(#pacf12e44bd)" style="fill: #0173b2; fill-opacity: 0.75; stroke: #ffffff; stroke-width: 0.735178; stroke-linejoin: miter"/>
   </g>
   <g id="patch_28">
    <path d="M 340.781691 339.84 
L 346.278967 339.84 
L 346.278967 182.459305 
L 340.781691 182.459305 
z
" clip-path="url(#pacf12e44bd)" style="fill: #0173b2; fill-opacity: 0.75; stroke: #ffffff; stroke-width: 0.735178; stroke-linejoin: miter"/>
   </g>
   <g id="patch_29">
    <path d="M 346.278967 339.84 
L 351.776243 339.84 
L 351.776243 174.712587 
L 346.278967 174.712587 
z
" clip-path="url(#pacf12e44bd)" style="fill: #0173b2; fill-opacity: 0.75; stroke: #ffffff; stroke-width: 0.735178; stroke-linejoin: miter"/>
   </g>
   <g id="patch_30">
    <path d="M 351.776243 339.84 
L 357.273519 339.84 
L 357.273519 182.051583 
L 351.776243 182.051583 
z
" clip-path="url(#pacf12e44bd)" style="fill: #0173b2; fill-opacity: 0.75; stroke: #ffffff; stroke-width: 0.735178; stroke-linejoin: miter"/>
   </g>
   <g id="patch_31">
    <path d="M 357.273519 339.84 
L 362.770795 339.84 
L 362.770795 171.450811 
L 357.273519 171.450811 
z
" clip-path="url(#pacf12e44bd)" style="fill: #0173b2; fill-opacity: 0.75; stroke: #ffffff; stroke-width: 0.735178; stroke-linejoin: miter"/>
   </g>
   <g id="patch_32">
    <path d="M 362.770795 339.84 
L 368.268071 339.84 
L 368.268071 23.04 
L 362.770795 23.04 
z
" clip-path="url(#pacf12e44bd)" style="fill: #0173b2; fill-opacity: 0.75; stroke: #ffffff; stroke-width: 0.735178; stroke-linejoin: miter"/>
   </g>
   <g id="patch_33">
    <path d="M 368.268071 339.84 
L 373.765347 339.84 
L 373.765347 186.536525 
L 368.268071 186.536525 
z
" clip-path="url(#pacf12e44bd)" style="fill: #0173b2; fill-opacity: 0.75; stroke: #ffffff; stroke-width: 0.735178; stroke-linejoin: miter"/>
   </g>
   <g id="patch_34">
    <path d="M 373.765347 339.84 
L 379.262623 339.84 
L 379.262623 204.068571 
L 373.765347 204.068571 
z
" clip-path="url(#pacf12e44bd)" style="fill: #0173b2; fill-opacity: 0.75; stroke: #ffffff; stroke-width: 0.735178; stroke-linejoin: miter"/>
   </g>
   <g id="patch_35">
    <path d="M 379.262623 339.84 
L 384.759899 339.84 
L 384.759899 204.068571 
L 379.262623 204.068571 
z
" clip-path="url(#pacf12e44bd)" style="fill: #0173b2; fill-opacity: 0.75; stroke: #ffffff; stroke-width: 0.735178; stroke-linejoin: miter"/>
   </g>
   <g id="patch_36">
    <path d="M 384.759899 339.84 
L 390.257175 339.84 
L 390.257175 219.154286 
L 384.759899 219.154286 
z
" clip-path="url(#pacf12e44bd)" style="fill: #0173b2; fill-opacity: 0.75; stroke: #ffffff; stroke-width: 0.735178; stroke-linejoin: miter"/>
   </g>
   <g id="patch_37">
    <path d="M 390.257175 339.84 
L 395.754451 339.84 
L 395.754451 137.202162 
L 390.257175 137.202162 
z
" clip-path="url(#pacf12e44bd)" style="fill: #0173b2; fill-opacity: 0.75; stroke: #ffffff; stroke-width: 0.735178; stroke-linejoin: miter"/>
   </g>
   <g id="patch_38">
    <path d="M 395.754451 339.84 
L 401.251727 339.84 
L 401.251727 240.763552 
L 395.754451 240.763552 
z
" clip-path="url(#pacf12e44bd)" style="fill: #0173b2; fill-opacity: 0.75; stroke: #ffffff; stroke-width: 0.735178; stroke-linejoin: miter"/>
   </g>
   <g id="patch_39">
    <path d="M 401.251727 339.84 
L 406.749003 339.84 
L 406.749003 253.810656 
L 401.251727 253.810656 
z
" clip-path="url(#pacf12e44bd)" style="fill: #0173b2; fill-opacity: 0.75; stroke: #ffffff; stroke-width: 0.735178; stroke-linejoin: miter"/>
   </g>
   <g id="patch_40">
    <path d="M 406.749003 339.84 
L 412.246278 339.84 
L 412.246278 266.857761 
L 406.749003 266.857761 
z
" clip-path="url(#pacf12e44bd)" style="fill: #0173b2; fill-opacity: 0.75; stroke: #ffffff; stroke-width: 0.735178; stroke-linejoin: miter"/>
   </g>
   <g id="patch_41">
    <path d="M 412.246278 339.84 
L 417.743554 339.84 
L 417.743554 265.226873 
L 412.246278 265.226873 
z
" clip-path="url(#pacf12e44bd)" style="fill: #0173b2; fill-opacity: 0.75; stroke: #ffffff; stroke-width: 0.735178; stroke-linejoin: miter"/>
   </g>
   <g id="patch_42">
    <path d="M 417.743554 339.84 
L 423.24083 339.84 
L 423.24083 213.8539 
L 417.743554 213.8539 
z
" clip-path="url(#pacf12e44bd)" style="fill: #0173b2; fill-opacity: 0.75; stroke: #ffffff; stroke-width: 0.735178; stroke-linejoin: miter"/>
   </g>
   <g id="patch_43">
    <path d="M 423.24083 339.84 
L 428.738106 339.84 
L 428.738106 297.029189 
L 423.24083 297.029189 
z
" clip-path="url(#pacf12e44bd)" style="fill: #0173b2; fill-opacity: 0.75; stroke: #ffffff; stroke-width: 0.735178; stroke-linejoin: miter"/>
   </g>
   <g id="patch_44">
    <path d="M 428.738106 339.84 
L 434.235382 339.84 
L 434.235382 295.398301 
L 428.738106 295.398301 
z
" clip-path="url(#pacf12e44bd)" style="fill: #0173b2; fill-opacity: 0.75; stroke: #ffffff; stroke-width: 0.735178; stroke-linejoin: miter"/>
   </g>
   <g id="patch_45">
    <path d="M 434.235382 339.84 
L 439.732658 339.84 
L 439.732658 300.698687 
L 434.235382 300.698687 
z
" clip-path="url(#pacf12e44bd)" style="fill: #0173b2; fill-opacity: 0.75; stroke: #ffffff; stroke-width: 0.735178; stroke-linejoin: miter"/>
   </g>
   <g id="patch_46">
    <path d="M 439.732658 339.84 
L 445.229934 339.84 
L 445.229934 304.775907 
L 439.732658 304.775907 
z
" clip-path="url(#pacf12e44bd)" style="fill: #0173b2; fill-opacity: 0.75; stroke: #ffffff; stroke-width: 0.735178; stroke-linejoin: miter"/>
   </g>
   <g id="patch_47">
    <path d="M 445.229934 339.84 
L 450.72721 339.84 
L 450.72721 285.205251 
L 445.229934 285.205251 
z
" clip-path="url(#pacf12e44bd)" style="fill: #0173b2; fill-opacity: 0.75; stroke: #ffffff; stroke-width: 0.735178; stroke-linejoin: miter"/>
   </g>
   <g id="patch_48">
    <path d="M 450.72721 339.84 
L 456.224486 339.84 
L 456.224486 321.49251 
L 450.72721 321.49251 
z
" clip-path="url(#pacf12e44bd)" style="fill: #0173b2; fill-opacity: 0.75; stroke: #ffffff; stroke-width: 0.735178; stroke-linejoin: miter"/>
   </g>
   <g id="patch_49">
    <path d="M 456.224486 339.84 
L 461.721762 339.84 
L 461.721762 321.084788 
L 456.224486 321.084788 
z
" clip-path="url(#pacf12e44bd)" style="fill: #0173b2; fill-opacity: 0.75; stroke: #ffffff; stroke-width: 0.735178; stroke-linejoin: miter"/>
   </g>
   <g id="patch_50">
    <path d="M 461.721762 339.84 
L 467.219038 339.84 
L 467.219038 325.162008 
L 461.721762 325.162008 
z
" clip-path="url(#pacf12e44bd)" style="fill: #0173b2; fill-opacity: 0.75; stroke: #ffffff; stroke-width: 0.735178; stroke-linejoin: miter"/>
   </g>
   <g id="patch_51">
    <path d="M 467.219038 339.84 
L 472.716314 339.84 
L 472.716314 328.831506 
L 467.219038 328.831506 
z
" clip-path="url(#pacf12e44bd)" style="fill: #0173b2; fill-opacity: 0.75; stroke: #ffffff; stroke-width: 0.735178; stroke-linejoin: miter"/>
   </g>
   <g id="patch_52">
    <path d="M 472.716314 339.84 
L 478.21359 339.84 
L 478.21359 319.046178 
L 472.716314 319.046178 
z
" clip-path="url(#pacf12e44bd)" style="fill: #0173b2; fill-opacity: 0.75; stroke: #ffffff; stroke-width: 0.735178; stroke-linejoin: miter"/>
   </g>
   <g id="patch_53">
    <path d="M 478.21359 339.84 
L 483.710866 339.84 
L 483.710866 332.908726 
L 478.21359 332.908726 
z
" clip-path="url(#pacf12e44bd)" style="fill: #0173b2; fill-opacity: 0.75; stroke: #ffffff; stroke-width: 0.735178; stroke-linejoin: miter"/>
   </g>
   <g id="patch_54">
    <path d="M 483.710866 339.84 
L 489.208142 339.84 
L 489.208142 334.539614 
L 483.710866 334.539614 
z
" clip-path="url(#pacf12e44bd)" style="fill: #0173b2; fill-opacity: 0.75; stroke: #ffffff; stroke-width: 0.735178; stroke-linejoin: miter"/>
   </g>
   <g id="patch_55">
    <path d="M 489.208142 339.84 
L 494.705417 339.84 
L 494.705417 334.947336 
L 489.208142 334.947336 
z
" clip-path="url(#pacf12e44bd)" style="fill: #0173b2; fill-opacity: 0.75; stroke: #ffffff; stroke-width: 0.735178; stroke-linejoin: miter"/>
   </g>
   <g id="patch_56">
    <path d="M 494.705417 339.84 
L 500.202693 339.84 
L 500.202693 336.170502 
L 494.705417 336.170502 
z
" clip-path="url(#pacf12e44bd)" style="fill: #0173b2; fill-opacity: 0.75; stroke: #ffffff; stroke-width: 0.735178; stroke-linejoin: miter"/>
   </g>
   <g id="patch_57">
    <path d="M 500.202693 339.84 
L 505.699969 339.84 
L 505.699969 336.985946 
L 500.202693 336.985946 
z
" clip-path="url(#pacf12e44bd)" style="fill: #0173b2; fill-opacity: 0.75; stroke: #ffffff; stroke-width: 0.735178; stroke-linejoin: miter"/>
   </g>
   <g id="patch_58">
    <path d="M 505.699969 339.84 
L 511.197245 339.84 
L 511.197245 338.616834 
L 505.699969 338.616834 
z
" clip-path="url(#pacf12e44bd)" style="fill: #0173b2; fill-opacity: 0.75; stroke: #ffffff; stroke-width: 0.735178; stroke-linejoin: miter"/>
   </g>
   <g id="patch_59">
    <path d="M 511.197245 339.84 
L 516.694521 339.84 
L 516.694521 338.209112 
L 511.197245 338.209112 
z
" clip-path="url(#pacf12e44bd)" style="fill: #0173b2; fill-opacity: 0.75; stroke: #ffffff; stroke-width: 0.735178; stroke-linejoin: miter"/>
   </g>
   <g id="patch_60">
    <path d="M 516.694521 339.84 
L 522.191797 339.84 
L 522.191797 336.170502 
L 516.694521 336.170502 
z
" clip-path="url(#pacf12e44bd)" style="fill: #0173b2; fill-opacity: 0.75; stroke: #ffffff; stroke-width: 0.735178; stroke-linejoin: miter"/>
   </g>
   <g id="patch_61">
    <path d="M 522.191797 339.84 
L 527.689073 339.84 
L 527.689073 337.80139 
L 522.191797 337.80139 
z
" clip-path="url(#pacf12e44bd)" style="fill: #0173b2; fill-opacity: 0.75; stroke: #ffffff; stroke-width: 0.735178; stroke-linejoin: miter"/>
   </g>
   <g id="patch_62">
    <path d="M 527.689073 339.84 
L 533.186349 339.84 
L 533.186349 339.024556 
L 527.689073 339.024556 
z
" clip-path="url(#pacf12e44bd)" style="fill: #0173b2; fill-opacity: 0.75; stroke: #ffffff; stroke-width: 0.735178; stroke-linejoin: miter"/>
   </g>
   <g id="patch_63">
    <path d="M 533.186349 339.84 
L 538.683625 339.84 
L 538.683625 338.616834 
L 533.186349 338.616834 
z
" clip-path="url(#pacf12e44bd)" style="fill: #0173b2; fill-opacity: 0.75; stroke: #ffffff; stroke-width: 0.735178; stroke-linejoin: miter"/>
   </g>
   <g id="patch_64">
    <path d="M 538.683625 339.84 
L 544.180901 339.84 
L 544.180901 339.432278 
L 538.683625 339.432278 
z
" clip-path="url(#pacf12e44bd)" style="fill: #0173b2; fill-opacity: 0.75; stroke: #ffffff; stroke-width: 0.735178; stroke-linejoin: miter"/>
   </g>
   <g id="patch_65">
    <path d="M 544.180901 339.84 
L 549.678177 339.84 
L 549.678177 339.84 
L 544.180901 339.84 
z
" clip-path="url(#pacf12e44bd)" style="fill: #0173b2; fill-opacity: 0.75; stroke: #ffffff; stroke-width: 0.735178; stroke-linejoin: miter"/>
   </g>
   <g id="patch_66">
    <path d="M 549.678177 339.84 
L 555.175453 339.84 
L 555.175453 339.84 
L 549.678177 339.84 
z
" clip-path="url(#pacf12e44bd)" style="fill: #0173b2; fill-opacity: 0.75; stroke: #ffffff; stroke-width: 0.735178; stroke-linejoin: miter"/>
   </g>
   <g id="patch_67">
    <path d="M 555.175453 339.84 
L 560.672729 339.84 
L 560.672729 339.432278 
L 555.175453 339.432278 
z
" clip-path="url(#pacf12e44bd)" style="fill: #0173b2; fill-opacity: 0.75; stroke: #ffffff; stroke-width: 0.735178; stroke-linejoin: miter"/>
   </g>
   <g id="patch_68">
    <path d="M 560.672729 339.84 
L 566.170005 339.84 
L 566.170005 339.024556 
L 560.672729 339.024556 
z
" clip-path="url(#pacf12e44bd)" style="fill: #0173b2; fill-opacity: 0.75; stroke: #ffffff; stroke-width: 0.735178; stroke-linejoin: miter"/>
   </g>
   <g id="patch_69">
    <path d="M 566.170005 339.84 
L 571.667281 339.84 
L 571.667281 339.84 
L 566.170005 339.84 
z
" clip-path="url(#pacf12e44bd)" style="fill: #0173b2; fill-opacity: 0.75; stroke: #ffffff; stroke-width: 0.735178; stroke-linejoin: miter"/>
   </g>
   <g id="patch_70">
    <path d="M 571.667281 339.84 
L 577.164556 339.84 
L 577.164556 339.84 
L 571.667281 339.84 
z
" clip-path="url(#pacf12e44bd)" style="fill: #0173b2; fill-opacity: 0.75; stroke: #ffffff; stroke-width: 0.735178; stroke-linejoin: miter"/>
   </g>
   <g id="patch_71">
    <path d="M 577.164556 339.84 
L 582.661832 339.84 
L 582.661832 339.432278 
L 577.164556 339.432278 
z
" clip-path="url(#pacf12e44bd)" style="fill: #0173b2; fill-opacity: 0.75; stroke: #ffffff; stroke-width: 0.735178; stroke-linejoin: miter"/>
   </g>
   <g id="patch_72">
    <path d="M 50.025469 339.84 
L 50.025469 7.2 
" style="fill: none; stroke: #ffffff; stroke-width: 1.25; stroke-linejoin: miter; stroke-linecap: square"/>
   </g>
   <g id="patch_73">
    <path d="M 608.025469 339.84 
L 608.025469 7.2 
" style="fill: none; stroke: #ffffff; stroke-width: 1.25; stroke-linejoin: miter; stroke-linecap: square"/>
   </g>
   <g id="patch_74">
    <path d="M 50.025469 339.84 
L 608.025469 339.84 
" style="fill: none; stroke: #ffffff; stroke-width: 1.25; stroke-linejoin: miter; stroke-linecap: square"/>
   </g>
   <g id="patch_75">
    <path d="M 50.025469 7.2 
L 608.025469 7.2 
" style="fill: none; stroke: #ffffff; stroke-width: 1.25; stroke-linejoin: miter; stroke-linecap: square"/>
   </g>
  </g>
  <g id="axes_2">
   <g id="matplotlib.axis_3">
    <g id="ytick_10">
     <g id="line2d_25">
      <path d="M 50.025469 328.118677 
L 608.025469 328.118677 
" clip-path="url(#pacf12e44bd)" style="fill: none; stroke: #ffffff; stroke-linecap: round"/>
     </g>
     <g id="line2d_26">
      <defs>
       <path id="m077e5eef2e" d="M 0 0 
L 6 0 
" style="stroke: #262626; stroke-width: 1.25"/>
      </defs>
      <g>
       <use xlink:href="#m077e5eef2e" x="608.025469" y="328.118677" style="fill: #262626; stroke: #262626; stroke-width: 1.25"/>
      </g>
     </g>
     <g id="text_17">
      <!-- 0.000 -->
      <g style="fill: #262626" transform="translate(617.525469 332.055473) scale(0.11 -0.11)">
       <defs>
        <path id="ArialMT-2e" d="M 581 0 
L 581 641 
L 1222 641 
L 1222 0 
L 581 0 
z
" transform="scale(0.015625)"/>
       </defs>
       <use xlink:href="#ArialMT-30"/>
       <use xlink:href="#ArialMT-2e" x="55.615234"/>
       <use xlink:href="#ArialMT-30" x="83.398438"/>
       <use xlink:href="#ArialMT-30" x="139.013672"/>
       <use xlink:href="#ArialMT-30" x="194.628906"/>
      </g>
     </g>
    </g>
    <g id="ytick_11">
     <g id="line2d_27">
      <path d="M 50.025469 270.603004 
L 608.025469 270.603004 
" clip-path="url(#pacf12e44bd)" style="fill: none; stroke: #ffffff; stroke-linecap: round"/>
     </g>
     <g id="line2d_28">
      <g>
       <use xlink:href="#m077e5eef2e" x="608.025469" y="270.603004" style="fill: #262626; stroke: #262626; stroke-width: 1.25"/>
      </g>
     </g>
     <g id="text_18">
      <!-- 0.005 -->
      <g style="fill: #262626" transform="translate(617.525469 274.539801) scale(0.11 -0.11)">
       <use xlink:href="#ArialMT-30"/>
       <use xlink:href="#ArialMT-2e" x="55.615234"/>
       <use xlink:href="#ArialMT-30" x="83.398438"/>
       <use xlink:href="#ArialMT-30" x="139.013672"/>
       <use xlink:href="#ArialMT-35" x="194.628906"/>
      </g>
     </g>
    </g>
    <g id="ytick_12">
     <g id="line2d_29">
      <path d="M 50.025469 213.087332 
L 608.025469 213.087332 
" clip-path="url(#pacf12e44bd)" style="fill: none; stroke: #ffffff; stroke-linecap: round"/>
     </g>
     <g id="line2d_30">
      <g>
       <use xlink:href="#m077e5eef2e" x="608.025469" y="213.087332" style="fill: #262626; stroke: #262626; stroke-width: 1.25"/>
      </g>
     </g>
     <g id="text_19">
      <!-- 0.010 -->
      <g style="fill: #262626" transform="translate(617.525469 217.024129) scale(0.11 -0.11)">
       <use xlink:href="#ArialMT-30"/>
       <use xlink:href="#ArialMT-2e" x="55.615234"/>
       <use xlink:href="#ArialMT-30" x="83.398438"/>
       <use xlink:href="#ArialMT-31" x="139.013672"/>
       <use xlink:href="#ArialMT-30" x="194.628906"/>
      </g>
     </g>
    </g>
    <g id="ytick_13">
     <g id="line2d_31">
      <path d="M 50.025469 155.57166 
L 608.025469 155.57166 
" clip-path="url(#pacf12e44bd)" style="fill: none; stroke: #ffffff; stroke-linecap: round"/>
     </g>
     <g id="line2d_32">
      <g>
       <use xlink:href="#m077e5eef2e" x="608.025469" y="155.57166" style="fill: #262626; stroke: #262626; stroke-width: 1.25"/>
      </g>
     </g>
     <g id="text_20">
      <!-- 0.015 -->
      <g style="fill: #262626" transform="translate(617.525469 159.508457) scale(0.11 -0.11)">
       <use xlink:href="#ArialMT-30"/>
       <use xlink:href="#ArialMT-2e" x="55.615234"/>
       <use xlink:href="#ArialMT-30" x="83.398438"/>
       <use xlink:href="#ArialMT-31" x="139.013672"/>
       <use xlink:href="#ArialMT-35" x="194.628906"/>
      </g>
     </g>
    </g>
    <g id="ytick_14">
     <g id="line2d_33">
      <path d="M 50.025469 98.055988 
L 608.025469 98.055988 
" clip-path="url(#pacf12e44bd)" style="fill: none; stroke: #ffffff; stroke-linecap: round"/>
     </g>
     <g id="line2d_34">
      <g>
       <use xlink:href="#m077e5eef2e" x="608.025469" y="98.055988" style="fill: #262626; stroke: #262626; stroke-width: 1.25"/>
      </g>
     </g>
     <g id="text_21">
      <!-- 0.020 -->
      <g style="fill: #262626" transform="translate(617.525469 101.992785) scale(0.11 -0.11)">
       <use xlink:href="#ArialMT-30"/>
       <use xlink:href="#ArialMT-2e" x="55.615234"/>
       <use xlink:href="#ArialMT-30" x="83.398438"/>
       <use xlink:href="#ArialMT-32" x="139.013672"/>
       <use xlink:href="#ArialMT-30" x="194.628906"/>
      </g>
     </g>
    </g>
    <g id="ytick_15">
     <g id="line2d_35">
      <path d="M 50.025469 40.540316 
L 608.025469 40.540316 
" clip-path="url(#pacf12e44bd)" style="fill: none; stroke: #ffffff; stroke-linecap: round"/>
     </g>
     <g id="line2d_36">
      <g>
       <use xlink:href="#m077e5eef2e" x="608.025469" y="40.540316" style="fill: #262626; stroke: #262626; stroke-width: 1.25"/>
      </g>
     </g>
     <g id="text_22">
      <!-- 0.025 -->
      <g style="fill: #262626" transform="translate(617.525469 44.477113) scale(0.11 -0.11)">
       <use xlink:href="#ArialMT-30"/>
       <use xlink:href="#ArialMT-2e" x="55.615234"/>
       <use xlink:href="#ArialMT-30" x="83.398438"/>
       <use xlink:href="#ArialMT-32" x="139.013672"/>
       <use xlink:href="#ArialMT-35" x="194.628906"/>
      </g>
     </g>
    </g>
   </g>
   <g id="PolyCollection_1"/>
   <g id="line2d_37">
    <path d="M 75.389105 324.72 
L 79.543673 324.049797 
L 83.698241 323.265292 
L 87.852808 322.350755 
L 92.007376 321.289022 
L 96.161944 320.061499 
L 100.316512 318.648197 
L 104.47108 317.027803 
L 108.625647 315.177781 
L 112.780215 313.074524 
L 116.934783 310.69355 
L 121.089351 308.009749 
L 125.243919 304.997672 
L 129.398486 301.63189 
L 133.553054 297.88739 
L 137.707622 293.740028 
L 141.86219 289.167035 
L 146.016758 284.147558 
L 150.171325 278.663237 
L 154.325893 272.698818 
L 158.480461 266.242773 
L 162.635029 259.287928 
L 166.789597 251.832083 
L 170.944164 243.878601 
L 175.098732 235.436959 
L 179.2533 226.523243 
L 183.407868 217.160553 
L 187.562435 207.379333 
L 191.717003 197.217571 
L 195.871571 186.720889 
L 200.026139 175.942486 
L 204.180707 164.942934 
L 208.335274 153.78982 
L 212.489842 142.557225 
L 216.64441 131.325047 
L 220.798978 120.178165 
L 224.953546 109.205465 
L 229.108113 98.498718 
L 233.262681 88.151362 
L 237.417249 78.257177 
L 241.571817 68.908893 
L 245.726385 60.196766 
L 249.880952 52.207134 
L 254.03552 45.021002 
L 258.190088 38.712676 
L 262.344656 33.348491 
L 266.499223 28.985644 
L 270.653791 25.671185 
L 274.808359 23.441167 
L 278.962927 22.32 
L 283.117495 22.32 
L 287.272062 23.441167 
L 291.42663 25.671185 
L 295.581198 28.985644 
L 299.735766 33.348491 
L 303.890334 38.712676 
L 308.044901 45.021002 
L 312.199469 52.207134 
L 316.354037 60.196766 
L 320.508605 68.908893 
L 324.663173 78.257177 
L 328.81774 88.151362 
L 332.972308 98.498718 
L 337.126876 109.205465 
L 341.281444 120.178165 
L 345.436012 131.325047 
L 349.590579 142.557225 
L 353.745147 153.78982 
L 357.899715 164.942934 
L 362.054283 175.942486 
L 366.20885 186.720889 
L 370.363418 197.217571 
L 374.517986 207.379333 
L 378.672554 217.160553 
L 382.827122 226.523243 
L 386.981689 235.436959 
L 391.136257 243.878601 
L 395.290825 251.832083 
L 399.445393 259.287928 
L 403.599961 266.242773 
L 407.754528 272.698818 
L 411.909096 278.663237 
L 416.063664 284.147558 
L 420.218232 289.167035 
L 424.3728 293.740028 
L 428.527367 297.88739 
L 432.681935 301.63189 
L 436.836503 304.997672 
L 440.991071 308.009749 
L 445.145639 310.69355 
L 449.300206 313.074524 
L 453.454774 315.177781 
L 457.609342 317.027803 
L 461.76391 318.648197 
L 465.918477 320.061499 
L 470.073045 321.289022 
L 474.227613 322.350755 
L 478.382181 323.265292 
L 482.536749 324.049797 
L 486.691316 324.72 
" clip-path="url(#pacf12e44bd)" style="fill: none; stroke: #000000; stroke-width: 1.5; stroke-linecap: round"/>
   </g>
   <g id="patch_76">
    <path d="M 50.025469 339.84 
L 50.025469 7.2 
" style="fill: none; stroke: #ffffff; stroke-width: 1.25; stroke-linejoin: miter; stroke-linecap: square"/>
   </g>
   <g id="patch_77">
    <path d="M 608.025469 339.84 
L 608.025469 7.2 
" style="fill: none; stroke: #ffffff; stroke-width: 1.25; stroke-linejoin: miter; stroke-linecap: square"/>
   </g>
   <g id="patch_78">
    <path d="M 50.025469 339.84 
L 608.025469 339.84 
" style="fill: none; stroke: #ffffff; stroke-width: 1.25; stroke-linejoin: miter; stroke-linecap: square"/>
   </g>
   <g id="patch_79">
    <path d="M 50.025469 7.2 
L 608.025469 7.2 
" style="fill: none; stroke: #ffffff; stroke-width: 1.25; stroke-linejoin: miter; stroke-linecap: square"/>
   </g>
  </g>
 </g>
 <defs>
  <clipPath id="pacf12e44bd">
   <rect x="50.025469" y="7.2" width="558" height="332.64"/>
  </clipPath>
 </defs>
</svg>