<?xml version="1.0" encoding="utf-8" standalone="no"?>
<!DOCTYPE svg PUBLIC "-//W3C//DTD SVG 1.1//EN"
  "http://www.w3.org/Graphics/SVG/1.1/DTD/svg11.dtd">
<svg xmlns:xlink="http://www.w3.org/1999/xlink" width="701.053979pt" height="424.779844pt" viewBox="0 0 701.053979 424.779844" xmlns="http://www.w3.org/2000/svg" version="1.1">
 <metadata>
  <rdf:RDF xmlns:dc="http://purl.org/dc/elements/1.1/" xmlns:cc="http://creativecommons.org/ns#" xmlns:rdf="http://www.w3.org/1999/02/22-rdf-syntax-ns#">
   <cc:Work>
    <dc:type rdf:resource="http://purl.org/dc/dcmitype/StillImage"/>
    <dc:date>2023-05-08T00:39:38.118568</dc:date>
    <dc:format>image/svg+xml</dc:format>
    <dc:creator>
     <cc:Agent>
      <dc:title>Matplotlib v3.7.1, https://matplotlib.org/</dc:title>
     </cc:Agent>
    </dc:creator>
   </cc:Work>
  </rdf:RDF>
 </metadata>
 <defs>
  <style type="text/css">*{stroke-linejoin: round; stroke-linecap: butt}</style>
 </defs>
 <g id="figure_1">
  <g id="patch_1">
   <path d="M 0 424.779844 
L 701.053979 424.779844 
L 701.053979 0 
L 0 0 
z
" style="fill: #ffffff"/>
  </g>
  <g id="axes_1">
   <g id="patch_2">
    <path d="M 31.99 398.02 
L 340.333979 398.02 
L 340.333979 55.73625 
L 31.99 55.73625 
z
" style="fill: #eaeaf2"/>
   </g>
   <g id="matplotlib.axis_1">
    <g id="xtick_1">
     <g id="line2d_1">
      <path d="M 46.005635 398.02 
L 46.005635 55.73625 
" clip-path="url(#pefcfdb6d32)" style="fill: none; stroke: #ffffff; stroke-linecap: round"/>
     </g>
     <g id="text_1">
      <!-- −0.2 -->
      <g style="fill: #262626" transform="translate(35.148292 415.393594) scale(0.11 -0.11)">
       <defs>
        <path id="ArialMT-2212" d="M 3381 1997 
L 356 1997 
L 356 2522 
L 3381 2522 
L 3381 1997 
z
" transform="scale(0.015625)"/>
        <path id="ArialMT-30" d="M 266 2259 
Q 266 3072 433 3567 
Q 600 4063 929 4331 
Q 1259 4600 1759 4600 
Q 2128 4600 2406 4451 
Q 2684 4303 2865 4023 
Q 3047 3744 3150 3342 
Q 3253 2941 3253 2259 
Q 3253 1453 3087 958 
Q 2922 463 2592 192 
Q 2263 -78 1759 -78 
Q 1097 -78 719 397 
Q 266 969 266 2259 
z
M 844 2259 
Q 844 1131 1108 757 
Q 1372 384 1759 384 
Q 2147 384 2411 759 
Q 2675 1134 2675 2259 
Q 2675 3391 2411 3762 
Q 2147 4134 1753 4134 
Q 1366 4134 1134 3806 
Q 844 3388 844 2259 
z
" transform="scale(0.015625)"/>
        <path id="ArialMT-2e" d="M 581 0 
L 581 641 
L 1222 641 
L 1222 0 
L 581 0 
z
" transform="scale(0.015625)"/>
        <path id="ArialMT-32" d="M 3222 541 
L 3222 0 
L 194 0 
Q 188 203 259 391 
Q 375 700 629 1000 
Q 884 1300 1366 1694 
Q 2113 2306 2375 2664 
Q 2638 3022 2638 3341 
Q 2638 3675 2398 3904 
Q 2159 4134 1775 4134 
Q 1369 4134 1125 3890 
Q 881 3647 878 3216 
L 300 3275 
Q 359 3922 746 4261 
Q 1134 4600 1788 4600 
Q 2447 4600 2831 4234 
Q 3216 3869 3216 3328 
Q 3216 3053 3103 2787 
Q 2991 2522 2730 2228 
Q 2469 1934 1863 1422 
Q 1356 997 1212 845 
Q 1069 694 975 541 
L 3222 541 
z
" transform="scale(0.015625)"/>
       </defs>
       <use xlink:href="#ArialMT-2212"/>
       <use xlink:href="#ArialMT-30" x="58.398438"/>
       <use xlink:href="#ArialMT-2e" x="114.013672"/>
       <use xlink:href="#ArialMT-32" x="141.796875"/>
      </g>
     </g>
    </g>
    <g id="xtick_2">
     <g id="line2d_2">
      <path d="M 86.050308 398.02 
L 86.050308 55.73625 
" clip-path="url(#pefcfdb6d32)" style="fill: none; stroke: #ffffff; stroke-linecap: round"/>
     </g>
     <g id="text_2">
      <!-- 0.0 -->
      <g style="fill: #262626" transform="translate(78.405308 415.393594) scale(0.11 -0.11)">
       <use xlink:href="#ArialMT-30"/>
       <use xlink:href="#ArialMT-2e" x="55.615234"/>
       <use xlink:href="#ArialMT-30" x="83.398438"/>
      </g>
     </g>
    </g>
    <g id="xtick_3">
     <g id="line2d_3">
      <path d="M 126.094981 398.02 
L 126.094981 55.73625 
" clip-path="url(#pefcfdb6d32)" style="fill: none; stroke: #ffffff; stroke-linecap: round"/>
     </g>
     <g id="text_3">
      <!-- 0.2 -->
      <g style="fill: #262626" transform="translate(118.449981 415.393594) scale(0.11 -0.11)">
       <use xlink:href="#ArialMT-30"/>
       <use xlink:href="#ArialMT-2e" x="55.615234"/>
       <use xlink:href="#ArialMT-32" x="83.398438"/>
      </g>
     </g>
    </g>
    <g id="xtick_4">
     <g id="line2d_4">
      <path d="M 166.139653 398.02 
L 166.139653 55.73625 
" clip-path="url(#pefcfdb6d32)" style="fill: none; stroke: #ffffff; stroke-linecap: round"/>
     </g>
     <g id="text_4">
      <!-- 0.4 -->
      <g style="fill: #262626" transform="translate(158.494653 415.393594) scale(0.11 -0.11)">
       <defs>
        <path id="ArialMT-34" d="M 2069 0 
L 2069 1097 
L 81 1097 
L 81 1613 
L 2172 4581 
L 2631 4581 
L 2631 1613 
L 3250 1613 
L 3250 1097 
L 2631 1097 
L 2631 0 
L 2069 0 
z
M 2069 1613 
L 2069 3678 
L 634 1613 
L 2069 1613 
z
" transform="scale(0.015625)"/>
       </defs>
       <use xlink:href="#ArialMT-30"/>
       <use xlink:href="#ArialMT-2e" x="55.615234"/>
       <use xlink:href="#ArialMT-34" x="83.398438"/>
      </g>
     </g>
    </g>
    <g id="xtick_5">
     <g id="line2d_5">
      <path d="M 206.184326 398.02 
L 206.184326 55.73625 
" clip-path="url(#pefcfdb6d32)" style="fill: none; stroke: #ffffff; stroke-linecap: round"/>
     </g>
     <g id="text_5">
      <!-- 0.6 -->
      <g style="fill: #262626" transform="translate(198.539326 415.393594) scale(0.11 -0.11)">
       <defs>
        <path id="ArialMT-36" d="M 3184 3459 
L 2625 3416 
Q 2550 3747 2413 3897 
Q 2184 4138 1850 4138 
Q 1581 4138 1378 3988 
Q 1113 3794 959 3422 
Q 806 3050 800 2363 
Q 1003 2672 1297 2822 
Q 1591 2972 1913 2972 
Q 2475 2972 2870 2558 
Q 3266 2144 3266 1488 
Q 3266 1056 3080 686 
Q 2894 316 2569 119 
Q 2244 -78 1831 -78 
Q 1128 -78 684 439 
Q 241 956 241 2144 
Q 241 3472 731 4075 
Q 1159 4600 1884 4600 
Q 2425 4600 2770 4297 
Q 3116 3994 3184 3459 
z
M 888 1484 
Q 888 1194 1011 928 
Q 1134 663 1356 523 
Q 1578 384 1822 384 
Q 2178 384 2434 671 
Q 2691 959 2691 1453 
Q 2691 1928 2437 2201 
Q 2184 2475 1800 2475 
Q 1419 2475 1153 2201 
Q 888 1928 888 1484 
z
" transform="scale(0.015625)"/>
       </defs>
       <use xlink:href="#ArialMT-30"/>
       <use xlink:href="#ArialMT-2e" x="55.615234"/>
       <use xlink:href="#ArialMT-36" x="83.398438"/>
      </g>
     </g>
    </g>
    <g id="xtick_6">
     <g id="line2d_6">
      <path d="M 246.228998 398.02 
L 246.228998 55.73625 
" clip-path="url(#pefcfdb6d32)" style="fill: none; stroke: #ffffff; stroke-linecap: round"/>
     </g>
     <g id="text_6">
      <!-- 0.8 -->
      <g style="fill: #262626" transform="translate(238.583998 415.393594) scale(0.11 -0.11)">
       <defs>
        <path id="ArialMT-38" d="M 1131 2484 
Q 781 2613 612 2850 
Q 444 3088 444 3419 
Q 444 3919 803 4259 
Q 1163 4600 1759 4600 
Q 2359 4600 2725 4251 
Q 3091 3903 3091 3403 
Q 3091 3084 2923 2848 
Q 2756 2613 2416 2484 
Q 2838 2347 3058 2040 
Q 3278 1734 3278 1309 
Q 3278 722 2862 322 
Q 2447 -78 1769 -78 
Q 1091 -78 675 323 
Q 259 725 259 1325 
Q 259 1772 486 2073 
Q 713 2375 1131 2484 
z
M 1019 3438 
Q 1019 3113 1228 2906 
Q 1438 2700 1772 2700 
Q 2097 2700 2305 2904 
Q 2513 3109 2513 3406 
Q 2513 3716 2298 3927 
Q 2084 4138 1766 4138 
Q 1444 4138 1231 3931 
Q 1019 3725 1019 3438 
z
M 838 1322 
Q 838 1081 952 856 
Q 1066 631 1291 507 
Q 1516 384 1775 384 
Q 2178 384 2440 643 
Q 2703 903 2703 1303 
Q 2703 1709 2433 1975 
Q 2163 2241 1756 2241 
Q 1359 2241 1098 1978 
Q 838 1716 838 1322 
z
" transform="scale(0.015625)"/>
       </defs>
       <use xlink:href="#ArialMT-30"/>
       <use xlink:href="#ArialMT-2e" x="55.615234"/>
       <use xlink:href="#ArialMT-38" x="83.398438"/>
      </g>
     </g>
    </g>
    <g id="xtick_7">
     <g id="line2d_7">
      <path d="M 286.273671 398.02 
L 286.273671 55.73625 
" clip-path="url(#pefcfdb6d32)" style="fill: none; stroke: #ffffff; stroke-linecap: round"/>
     </g>
     <g id="text_7">
      <!-- 1.0 -->
      <g style="fill: #262626" transform="translate(278.628671 415.393594) scale(0.11 -0.11)">
       <defs>
        <path id="ArialMT-31" d="M 2384 0 
L 1822 0 
L 1822 3584 
Q 1619 3391 1289 3197 
Q 959 3003 697 2906 
L 697 3450 
Q 1169 3672 1522 3987 
Q 1875 4303 2022 4600 
L 2384 4600 
L 2384 0 
z
" transform="scale(0.015625)"/>
       </defs>
       <use xlink:href="#ArialMT-31"/>
       <use xlink:href="#ArialMT-2e" x="55.615234"/>
       <use xlink:href="#ArialMT-30" x="83.398438"/>
      </g>
     </g>
    </g>
    <g id="xtick_8">
     <g id="line2d_8">
      <path d="M 326.318343 398.02 
L 326.318343 55.73625 
" clip-path="url(#pefcfdb6d32)" style="fill: none; stroke: #ffffff; stroke-linecap: round"/>
     </g>
     <g id="text_8">
      <!-- 1.2 -->
      <g style="fill: #262626" transform="translate(318.673343 415.393594) scale(0.11 -0.11)">
       <use xlink:href="#ArialMT-31"/>
       <use xlink:href="#ArialMT-2e" x="55.615234"/>
       <use xlink:href="#ArialMT-32" x="83.398438"/>
      </g>
     </g>
    </g>
   </g>
   <g id="matplotlib.axis_2">
    <g id="ytick_1">
     <g id="line2d_9">
      <path d="M 31.99 382.461648 
L 340.333979 382.461648 
" clip-path="url(#pefcfdb6d32)" style="fill: none; stroke: #ffffff; stroke-linecap: round"/>
     </g>
     <g id="text_9">
      <!-- 0.0 -->
      <g style="fill: #262626" transform="translate(7.2 386.398445) scale(0.11 -0.11)">
       <use xlink:href="#ArialMT-30"/>
       <use xlink:href="#ArialMT-2e" x="55.615234"/>
       <use xlink:href="#ArialMT-30" x="83.398438"/>
      </g>
     </g>
    </g>
    <g id="ytick_2">
     <g id="line2d_10">
      <path d="M 31.99 320.228239 
L 340.333979 320.228239 
" clip-path="url(#pefcfdb6d32)" style="fill: none; stroke: #ffffff; stroke-linecap: round"/>
     </g>
     <g id="text_10">
      <!-- 0.2 -->
      <g style="fill: #262626" transform="translate(7.2 324.165036) scale(0.11 -0.11)">
       <use xlink:href="#ArialMT-30"/>
       <use xlink:href="#ArialMT-2e" x="55.615234"/>
       <use xlink:href="#ArialMT-32" x="83.398438"/>
      </g>
     </g>
    </g>
    <g id="ytick_3">
     <g id="line2d_11">
      <path d="M 31.99 257.99483 
L 340.333979 257.99483 
" clip-path="url(#pefcfdb6d32)" style="fill: none; stroke: #ffffff; stroke-linecap: round"/>
     </g>
     <g id="text_11">
      <!-- 0.4 -->
      <g style="fill: #262626" transform="translate(7.2 261.931626) scale(0.11 -0.11)">
       <use xlink:href="#ArialMT-30"/>
       <use xlink:href="#ArialMT-2e" x="55.615234"/>
       <use xlink:href="#ArialMT-34" x="83.398438"/>
      </g>
     </g>
    </g>
    <g id="ytick_4">
     <g id="line2d_12">
      <path d="M 31.99 195.76142 
L 340.333979 195.76142 
" clip-path="url(#pefcfdb6d32)" style="fill: none; stroke: #ffffff; stroke-linecap: round"/>
     </g>
     <g id="text_12">
      <!-- 0.6 -->
      <g style="fill: #262626" transform="translate(7.2 199.698217) scale(0.11 -0.11)">
       <use xlink:href="#ArialMT-30"/>
       <use xlink:href="#ArialMT-2e" x="55.615234"/>
       <use xlink:href="#ArialMT-36" x="83.398438"/>
      </g>
     </g>
    </g>
    <g id="ytick_5">
     <g id="line2d_13">
      <path d="M 31.99 133.528011 
L 340.333979 133.528011 
" clip-path="url(#pefcfdb6d32)" style="fill: none; stroke: #ffffff; stroke-linecap: round"/>
     </g>
     <g id="text_13">
      <!-- 0.8 -->
      <g style="fill: #262626" transform="translate(7.2 137.464808) scale(0.11 -0.11)">
       <use xlink:href="#ArialMT-30"/>
       <use xlink:href="#ArialMT-2e" x="55.615234"/>
       <use xlink:href="#ArialMT-38" x="83.398438"/>
      </g>
     </g>
    </g>
    <g id="ytick_6">
     <g id="line2d_14">
      <path d="M 31.99 71.294602 
L 340.333979 71.294602 
" clip-path="url(#pefcfdb6d32)" style="fill: none; stroke: #ffffff; stroke-linecap: round"/>
     </g>
     <g id="text_14">
      <!-- 1.0 -->
      <g style="fill: #262626" transform="translate(7.2 75.231399) scale(0.11 -0.11)">
       <use xlink:href="#ArialMT-31"/>
       <use xlink:href="#ArialMT-2e" x="55.615234"/>
       <use xlink:href="#ArialMT-30" x="83.398438"/>
      </g>
     </g>
    </g>
   </g>
   <g id="PolyCollection_1"/>
   <g id="PolyCollection_2">
    <defs>
     <path id="mb4f1969611" d="M 46.005635 -42.318196 
L 46.005635 -42.318196 
L 46.286229 -42.318196 
L 46.566822 -42.318196 
L 46.847415 -42.318196 
L 47.128009 -42.318196 
L 47.408602 -42.318196 
L 47.689195 -42.318196 
L 47.969789 -42.318196 
L 48.250382 -42.318196 
L 48.530975 -42.318196 
L 48.811568 -42.318196 
L 49.092162 -42.318196 
L 49.372755 -42.318196 
L 49.653348 -42.318196 
L 49.933942 -42.318196 
L 50.214535 -42.318196 
L 50.495128 -42.318196 
L 50.775722 -42.318196 
L 51.056315 -42.318196 
L 51.336908 -42.318196 
L 51.617501 -42.318196 
L 51.898095 -42.318196 
L 52.178688 -42.318196 
L 52.459281 -42.318196 
L 52.739875 -42.318196 
L 53.020468 -42.318196 
L 53.301061 -42.318196 
L 53.581655 -42.318196 
L 53.862248 -42.318196 
L 54.142841 -42.318196 
L 54.423434 -42.318196 
L 54.704028 -42.318196 
L 54.984621 -42.318196 
L 55.265214 -42.318196 
L 55.545808 -42.318196 
L 55.826401 -42.318196 
L 56.106994 -42.318196 
L 56.387588 -42.318196 
L 56.668181 -42.318196 
L 56.948774 -42.318196 
L 57.229367 -42.318196 
L 57.509961 -42.318196 
L 57.790554 -42.318196 
L 58.071147 -42.318196 
L 58.351741 -42.318196 
L 58.632334 -42.318196 
L 58.912927 -42.318196 
L 59.193521 -42.318196 
L 59.474114 -42.318196 
L 59.754707 -42.318196 
L 60.0353 -42.318196 
L 60.315894 -42.318196 
L 60.596487 -42.318196 
L 60.87708 -42.318196 
L 61.157674 -42.318196 
L 61.438267 -42.318196 
L 61.71886 -42.318196 
L 61.999454 -42.318196 
L 62.280047 -42.318196 
L 62.56064 -42.318196 
L 62.841233 -42.318196 
L 63.121827 -42.318196 
L 63.40242 -42.318196 
L 63.683013 -42.318196 
L 63.963607 -42.318196 
L 64.2442 -42.318196 
L 64.524793 -42.318196 
L 64.805387 -42.318196 
L 65.08598 -42.318196 
L 65.366573 -42.318196 
L 65.647166 -42.318196 
L 65.92776 -42.318196 
L 66.208353 -42.318196 
L 66.488946 -42.318196 
L 66.76954 -42.318196 
L 67.050133 -42.318196 
L 67.330726 -42.318196 
L 67.61132 -42.318196 
L 67.891913 -42.318196 
L 68.172506 -42.318196 
L 68.453099 -42.318196 
L 68.733693 -42.318196 
L 69.014286 -42.318196 
L 69.294879 -42.318196 
L 69.575473 -42.318196 
L 69.856066 -42.318196 
L 70.136659 -42.318196 
L 70.417253 -42.318196 
L 70.697846 -42.318196 
L 70.978439 -42.318196 
L 71.259033 -42.318196 
L 71.539626 -42.318196 
L 71.820219 -42.318196 
L 72.100812 -42.318196 
L 72.381406 -42.318196 
L 72.661999 -42.318196 
L 72.942592 -42.318196 
L 73.223186 -42.318196 
L 73.503779 -42.318196 
L 73.784372 -42.318196 
L 74.064966 -42.318196 
L 74.345559 -42.318196 
L 74.626152 -42.318196 
L 74.906745 -42.318196 
L 75.187339 -42.318196 
L 75.467932 -42.318196 
L 75.748525 -42.318196 
L 76.029119 -42.318196 
L 76.309712 -42.318196 
L 76.590305 -42.318196 
L 76.870899 -42.318196 
L 77.151492 -42.318196 
L 77.432085 -42.318196 
L 77.712678 -42.318196 
L 77.993272 -42.318196 
L 78.273865 -42.318196 
L 78.554458 -42.318196 
L 78.835052 -42.318196 
L 79.115645 -42.318196 
L 79.396238 -42.318196 
L 79.676832 -42.318196 
L 79.957425 -42.318196 
L 80.238018 -42.318196 
L 80.518611 -42.318196 
L 80.799205 -42.318196 
L 81.079798 -42.318196 
L 81.360391 -42.318196 
L 81.640985 -42.318196 
L 81.921578 -42.318196 
L 82.202171 -42.318196 
L 82.482765 -42.318196 
L 82.763358 -42.318196 
L 83.043951 -42.318196 
L 83.324544 -42.318196 
L 83.605138 -42.318196 
L 83.885731 -42.318196 
L 84.166324 -42.318196 
L 84.446918 -42.318196 
L 84.727511 -42.318196 
L 85.008104 -42.318196 
L 85.288698 -42.318196 
L 85.569291 -42.318196 
L 85.849884 -42.318196 
L 86.130477 -353.485241 
L 86.411071 -353.485241 
L 86.691664 -353.485241 
L 86.972257 -353.485241 
L 87.252851 -353.485241 
L 87.533444 -353.485241 
L 87.814037 -353.485241 
L 88.094631 -353.485241 
L 88.375224 -353.485241 
L 88.655817 -353.485241 
L 88.93641 -353.485241 
L 89.217004 -353.485241 
L 89.497597 -353.485241 
L 89.77819 -353.485241 
L 90.058784 -353.485241 
L 90.339377 -353.485241 
L 90.61997 -353.485241 
L 90.900564 -353.485241 
L 91.181157 -353.485241 
L 91.46175 -353.485241 
L 91.742344 -353.485241 
L 92.022937 -353.485241 
L 92.30353 -353.485241 
L 92.584123 -353.485241 
L 92.864717 -353.485241 
L 93.14531 -353.485241 
L 93.425903 -353.485241 
L 93.706497 -353.485241 
L 93.98709 -353.485241 
L 94.267683 -353.485241 
L 94.548277 -353.485241 
L 94.82887 -353.485241 
L 95.109463 -353.485241 
L 95.390056 -353.485241 
L 95.67065 -353.485241 
L 95.951243 -353.485241 
L 96.231836 -353.485241 
L 96.51243 -353.485241 
L 96.793023 -353.485241 
L 97.073616 -353.485241 
L 97.35421 -353.485241 
L 97.634803 -353.485241 
L 97.915396 -353.485241 
L 98.195989 -353.485241 
L 98.476583 -353.485241 
L 98.757176 -353.485241 
L 99.037769 -353.485241 
L 99.318363 -353.485241 
L 99.598956 -353.485241 
L 99.879549 -353.485241 
L 100.160143 -353.485241 
L 100.440736 -353.485241 
L 100.721329 -353.485241 
L 101.001922 -353.485241 
L 101.282516 -353.485241 
L 101.563109 -353.485241 
L 101.843702 -353.485241 
L 102.124296 -353.485241 
L 102.404889 -353.485241 
L 102.685482 -353.485241 
L 102.966076 -353.485241 
L 103.246669 -353.485241 
L 103.527262 -353.485241 
L 103.807855 -353.485241 
L 104.088449 -353.485241 
L 104.369042 -353.485241 
L 104.649635 -353.485241 
L 104.930229 -353.485241 
L 105.210822 -353.485241 
L 105.491415 -353.485241 
L 105.772009 -353.485241 
L 106.052602 -353.485241 
L 106.333195 -353.485241 
L 106.613788 -353.485241 
L 106.894382 -353.485241 
L 107.174975 -353.485241 
L 107.455568 -353.485241 
L 107.736162 -353.485241 
L 108.016755 -353.485241 
L 108.297348 -353.485241 
L 108.577942 -353.485241 
L 108.858535 -353.485241 
L 109.139128 -353.485241 
L 109.419721 -353.485241 
L 109.700315 -353.485241 
L 109.980908 -353.485241 
L 110.261501 -353.485241 
L 110.542095 -353.485241 
L 110.822688 -353.485241 
L 111.103281 -353.485241 
L 111.383875 -353.485241 
L 111.664468 -353.485241 
L 111.945061 -353.485241 
L 112.225654 -353.485241 
L 112.506248 -353.485241 
L 112.786841 -353.485241 
L 113.067434 -353.485241 
L 113.348028 -353.485241 
L 113.628621 -353.485241 
L 113.909214 -353.485241 
L 114.189808 -353.485241 
L 114.470401 -353.485241 
L 114.750994 -353.485241 
L 115.031588 -353.485241 
L 115.312181 -353.485241 
L 115.592774 -353.485241 
L 115.873367 -353.485241 
L 116.153961 -353.485241 
L 116.434554 -353.485241 
L 116.715147 -353.485241 
L 116.995741 -353.485241 
L 117.276334 -353.485241 
L 117.556927 -353.485241 
L 117.837521 -353.485241 
L 118.118114 -353.485241 
L 118.398707 -353.485241 
L 118.6793 -353.485241 
L 118.959894 -353.485241 
L 119.240487 -353.485241 
L 119.52108 -353.485241 
L 119.801674 -353.485241 
L 120.082267 -353.485241 
L 120.36286 -353.485241 
L 120.643454 -353.485241 
L 120.924047 -353.485241 
L 121.20464 -353.485241 
L 121.485233 -353.485241 
L 121.765827 -353.485241 
L 122.04642 -353.485241 
L 122.327013 -353.485241 
L 122.607607 -353.485241 
L 122.8882 -353.485241 
L 123.168793 -353.485241 
L 123.449387 -353.485241 
L 123.72998 -353.485241 
L 124.010573 -353.485241 
L 124.291166 -353.485241 
L 124.57176 -353.485241 
L 124.852353 -353.485241 
L 125.132946 -353.485241 
L 125.41354 -353.485241 
L 125.694133 -353.485241 
L 125.974726 -353.485241 
L 126.25532 -353.485241 
L 126.535913 -353.485241 
L 126.816506 -353.485241 
L 127.097099 -353.485241 
L 127.377693 -353.485241 
L 127.658286 -353.485241 
L 127.938879 -353.485241 
L 128.219473 -353.485241 
L 128.500066 -353.485241 
L 128.780659 -353.485241 
L 129.061253 -353.485241 
L 129.341846 -353.485241 
L 129.622439 -353.485241 
L 129.903032 -353.485241 
L 130.183626 -353.485241 
L 130.464219 -353.485241 
L 130.744812 -353.485241 
L 131.025406 -353.485241 
L 131.305999 -353.485241 
L 131.586592 -353.485241 
L 131.867186 -353.485241 
L 132.147779 -353.485241 
L 132.428372 -353.485241 
L 132.708965 -353.485241 
L 132.989559 -353.485241 
L 133.270152 -353.485241 
L 133.550745 -353.485241 
L 133.831339 -353.485241 
L 134.111932 -353.485241 
L 134.392525 -353.485241 
L 134.673119 -353.485241 
L 134.953712 -353.485241 
L 135.234305 -353.485241 
L 135.514898 -353.485241 
L 135.795492 -353.485241 
L 136.076085 -353.485241 
L 136.356678 -353.485241 
L 136.637272 -353.485241 
L 136.917865 -353.485241 
L 137.198458 -353.485241 
L 137.479052 -353.485241 
L 137.759645 -353.485241 
L 138.040238 -353.485241 
L 138.320832 -353.485241 
L 138.601425 -353.485241 
L 138.882018 -353.485241 
L 139.162611 -353.485241 
L 139.443205 -353.485241 
L 139.723798 -353.485241 
L 140.004391 -353.485241 
L 140.284985 -353.485241 
L 140.565578 -353.485241 
L 140.846171 -353.485241 
L 141.126765 -353.485241 
L 141.407358 -353.485241 
L 141.687951 -353.485241 
L 141.968544 -353.485241 
L 142.249138 -353.485241 
L 142.529731 -353.485241 
L 142.810324 -353.485241 
L 143.090918 -353.485241 
L 143.371511 -353.485241 
L 143.652104 -353.485241 
L 143.932698 -353.485241 
L 144.213291 -353.485241 
L 144.493884 -353.485241 
L 144.774477 -353.485241 
L 145.055071 -353.485241 
L 145.335664 -353.485241 
L 145.616257 -353.485241 
L 145.896851 -353.485241 
L 146.177444 -353.485241 
L 146.458037 -353.485241 
L 146.738631 -353.485241 
L 147.019224 -353.485241 
L 147.299817 -353.485241 
L 147.58041 -353.485241 
L 147.861004 -353.485241 
L 148.141597 -353.485241 
L 148.42219 -353.485241 
L 148.702784 -353.485241 
L 148.983377 -353.485241 
L 149.26397 -353.485241 
L 149.544564 -353.485241 
L 149.825157 -353.485241 
L 150.10575 -353.485241 
L 150.386343 -353.485241 
L 150.666937 -353.485241 
L 150.94753 -353.485241 
L 151.228123 -353.485241 
L 151.508717 -353.485241 
L 151.78931 -353.485241 
L 152.069903 -353.485241 
L 152.350497 -353.485241 
L 152.63109 -353.485241 
L 152.911683 -353.485241 
L 153.192276 -353.485241 
L 153.47287 -353.485241 
L 153.753463 -353.485241 
L 154.034056 -353.485241 
L 154.31465 -353.485241 
L 154.595243 -353.485241 
L 154.875836 -353.485241 
L 155.15643 -353.485241 
L 155.437023 -353.485241 
L 155.717616 -353.485241 
L 155.998209 -353.485241 
L 156.278803 -353.485241 
L 156.559396 -353.485241 
L 156.839989 -353.485241 
L 157.120583 -353.485241 
L 157.401176 -353.485241 
L 157.681769 -353.485241 
L 157.962363 -353.485241 
L 158.242956 -353.485241 
L 158.523549 -353.485241 
L 158.804143 -353.485241 
L 159.084736 -353.485241 
L 159.365329 -353.485241 
L 159.645922 -353.485241 
L 159.926516 -353.485241 
L 160.207109 -353.485241 
L 160.487702 -353.485241 
L 160.768296 -353.485241 
L 161.048889 -353.485241 
L 161.329482 -353.485241 
L 161.610076 -353.485241 
L 161.890669 -353.485241 
L 162.171262 -353.485241 
L 162.451855 -353.485241 
L 162.732449 -353.485241 
L 163.013042 -353.485241 
L 163.293635 -353.485241 
L 163.574229 -353.485241 
L 163.854822 -353.485241 
L 164.135415 -353.485241 
L 164.416009 -353.485241 
L 164.696602 -353.485241 
L 164.977195 -353.485241 
L 165.257788 -353.485241 
L 165.538382 -353.485241 
L 165.818975 -353.485241 
L 166.099568 -353.485241 
L 166.380162 -353.485241 
L 166.660755 -353.485241 
L 166.941348 -353.485241 
L 167.221942 -353.485241 
L 167.502535 -353.485241 
L 167.783128 -353.485241 
L 168.063721 -353.485241 
L 168.344315 -353.485241 
L 168.624908 -353.485241 
L 168.905501 -353.485241 
L 169.186095 -353.485241 
L 169.466688 -353.485241 
L 169.747281 -353.485241 
L 170.027875 -353.485241 
L 170.308468 -353.485241 
L 170.589061 -353.485241 
L 170.869654 -353.485241 
L 171.150248 -353.485241 
L 171.430841 -353.485241 
L 171.711434 -353.485241 
L 171.992028 -353.485241 
L 172.272621 -353.485241 
L 172.553214 -353.485241 
L 172.833808 -353.485241 
L 173.114401 -353.485241 
L 173.394994 -353.485241 
L 173.675587 -353.485241 
L 173.956181 -353.485241 
L 174.236774 -353.485241 
L 174.517367 -353.485241 
L 174.797961 -353.485241 
L 175.078554 -353.485241 
L 175.359147 -353.485241 
L 175.639741 -353.485241 
L 175.920334 -353.485241 
L 176.200927 -353.485241 
L 176.48152 -353.485241 
L 176.762114 -353.485241 
L 177.042707 -353.485241 
L 177.3233 -353.485241 
L 177.603894 -353.485241 
L 177.884487 -353.485241 
L 178.16508 -353.485241 
L 178.445674 -353.485241 
L 178.726267 -353.485241 
L 179.00686 -353.485241 
L 179.287453 -353.485241 
L 179.568047 -353.485241 
L 179.84864 -353.485241 
L 180.129233 -353.485241 
L 180.409827 -353.485241 
L 180.69042 -353.485241 
L 180.971013 -353.485241 
L 181.251607 -353.485241 
L 181.5322 -353.485241 
L 181.812793 -353.485241 
L 182.093387 -353.485241 
L 182.37398 -353.485241 
L 182.654573 -353.485241 
L 182.935166 -353.485241 
L 183.21576 -353.485241 
L 183.496353 -353.485241 
L 183.776946 -353.485241 
L 184.05754 -353.485241 
L 184.338133 -353.485241 
L 184.618726 -353.485241 
L 184.89932 -353.485241 
L 185.179913 -353.485241 
L 185.460506 -353.485241 
L 185.741099 -353.485241 
L 186.021693 -353.485241 
L 186.302286 -353.485241 
L 186.582879 -353.485241 
L 186.863473 -353.485241 
L 187.144066 -353.485241 
L 187.424659 -353.485241 
L 187.705253 -353.485241 
L 187.985846 -353.485241 
L 188.266439 -353.485241 
L 188.547032 -353.485241 
L 188.827626 -353.485241 
L 189.108219 -353.485241 
L 189.388812 -353.485241 
L 189.669406 -353.485241 
L 189.949999 -353.485241 
L 190.230592 -353.485241 
L 190.511186 -353.485241 
L 190.791779 -353.485241 
L 191.072372 -353.485241 
L 191.352965 -353.485241 
L 191.633559 -353.485241 
L 191.914152 -353.485241 
L 192.194745 -353.485241 
L 192.475339 -353.485241 
L 192.755932 -353.485241 
L 193.036525 -353.485241 
L 193.317119 -353.485241 
L 193.597712 -353.485241 
L 193.878305 -353.485241 
L 194.158898 -353.485241 
L 194.439492 -353.485241 
L 194.720085 -353.485241 
L 195.000678 -353.485241 
L 195.281272 -353.485241 
L 195.561865 -353.485241 
L 195.842458 -353.485241 
L 196.123052 -353.485241 
L 196.403645 -353.485241 
L 196.684238 -353.485241 
L 196.964831 -353.485241 
L 197.245425 -353.485241 
L 197.526018 -353.485241 
L 197.806611 -353.485241 
L 198.087205 -353.485241 
L 198.367798 -353.485241 
L 198.648391 -353.485241 
L 198.928985 -353.485241 
L 199.209578 -353.485241 
L 199.490171 -353.485241 
L 199.770764 -353.485241 
L 200.051358 -353.485241 
L 200.331951 -353.485241 
L 200.612544 -353.485241 
L 200.893138 -353.485241 
L 201.173731 -353.485241 
L 201.454324 -353.485241 
L 201.734918 -353.485241 
L 202.015511 -353.485241 
L 202.296104 -353.485241 
L 202.576697 -353.485241 
L 202.857291 -353.485241 
L 203.137884 -353.485241 
L 203.418477 -353.485241 
L 203.699071 -353.485241 
L 203.979664 -353.485241 
L 204.260257 -353.485241 
L 204.540851 -353.485241 
L 204.821444 -353.485241 
L 205.102037 -353.485241 
L 205.382631 -353.485241 
L 205.663224 -353.485241 
L 205.943817 -353.485241 
L 206.22441 -353.485241 
L 206.505004 -353.485241 
L 206.785597 -353.485241 
L 207.06619 -353.485241 
L 207.346784 -353.485241 
L 207.627377 -353.485241 
L 207.90797 -353.485241 
L 208.188564 -353.485241 
L 208.469157 -353.485241 
L 208.74975 -353.485241 
L 209.030343 -353.485241 
L 209.310937 -353.485241 
L 209.59153 -353.485241 
L 209.872123 -353.485241 
L 210.152717 -353.485241 
L 210.43331 -353.485241 
L 210.713903 -353.485241 
L 210.994497 -353.485241 
L 211.27509 -353.485241 
L 211.555683 -353.485241 
L 211.836276 -353.485241 
L 212.11687 -353.485241 
L 212.397463 -353.485241 
L 212.678056 -353.485241 
L 212.95865 -353.485241 
L 213.239243 -353.485241 
L 213.519836 -353.485241 
L 213.80043 -353.485241 
L 214.081023 -353.485241 
L 214.361616 -353.485241 
L 214.642209 -353.485241 
L 214.922803 -353.485241 
L 215.203396 -353.485241 
L 215.483989 -353.485241 
L 215.764583 -353.485241 
L 216.045176 -353.485241 
L 216.325769 -353.485241 
L 216.606363 -353.485241 
L 216.886956 -353.485241 
L 217.167549 -353.485241 
L 217.448142 -353.485241 
L 217.728736 -353.485241 
L 218.009329 -353.485241 
L 218.289922 -353.485241 
L 218.570516 -353.485241 
L 218.851109 -353.485241 
L 219.131702 -353.485241 
L 219.412296 -353.485241 
L 219.692889 -353.485241 
L 219.973482 -353.485241 
L 220.254075 -353.485241 
L 220.534669 -353.485241 
L 220.815262 -353.485241 
L 221.095855 -353.485241 
L 221.376449 -353.485241 
L 221.657042 -353.485241 
L 221.937635 -353.485241 
L 222.218229 -353.485241 
L 222.498822 -353.485241 
L 222.779415 -353.485241 
L 223.060008 -353.485241 
L 223.340602 -353.485241 
L 223.621195 -353.485241 
L 223.901788 -353.485241 
L 224.182382 -353.485241 
L 224.462975 -353.485241 
L 224.743568 -353.485241 
L 225.024162 -353.485241 
L 225.304755 -353.485241 
L 225.585348 -353.485241 
L 225.865942 -353.485241 
L 226.146535 -353.485241 
L 226.146535 -42.318196 
L 226.146535 -42.318196 
L 225.865942 -42.318196 
L 225.585348 -42.318196 
L 225.304755 -42.318196 
L 225.024162 -42.318196 
L 224.743568 -42.318196 
L 224.462975 -42.318196 
L 224.182382 -42.318196 
L 223.901788 -42.318196 
L 223.621195 -42.318196 
L 223.340602 -42.318196 
L 223.060008 -42.318196 
L 222.779415 -42.318196 
L 222.498822 -42.318196 
L 222.218229 -42.318196 
L 221.937635 -42.318196 
L 221.657042 -42.318196 
L 221.376449 -42.318196 
L 221.095855 -42.318196 
L 220.815262 -42.318196 
L 220.534669 -42.318196 
L 220.254075 -42.318196 
L 219.973482 -42.318196 
L 219.692889 -42.318196 
L 219.412296 -42.318196 
L 219.131702 -42.318196 
L 218.851109 -42.318196 
L 218.570516 -42.318196 
L 218.289922 -42.318196 
L 218.009329 -42.318196 
L 217.728736 -42.318196 
L 217.448142 -42.318196 
L 217.167549 -42.318196 
L 216.886956 -42.318196 
L 216.606363 -42.318196 
L 216.325769 -42.318196 
L 216.045176 -42.318196 
L 215.764583 -42.318196 
L 215.483989 -42.318196 
L 215.203396 -42.318196 
L 214.922803 -42.318196 
L 214.642209 -42.318196 
L 214.361616 -42.318196 
L 214.081023 -42.318196 
L 213.80043 -42.318196 
L 213.519836 -42.318196 
L 213.239243 -42.318196 
L 212.95865 -42.318196 
L 212.678056 -42.318196 
L 212.397463 -42.318196 
L 212.11687 -42.318196 
L 211.836276 -42.318196 
L 211.555683 -42.318196 
L 211.27509 -42.318196 
L 210.994497 -42.318196 
L 210.713903 -42.318196 
L 210.43331 -42.318196 
L 210.152717 -42.318196 
L 209.872123 -42.318196 
L 209.59153 -42.318196 
L 209.310937 -42.318196 
L 209.030343 -42.318196 
L 208.74975 -42.318196 
L 208.469157 -42.318196 
L 208.188564 -42.318196 
L 207.90797 -42.318196 
L 207.627377 -42.318196 
L 207.346784 -42.318196 
L 207.06619 -42.318196 
L 206.785597 -42.318196 
L 206.505004 -42.318196 
L 206.22441 -42.318196 
L 205.943817 -42.318196 
L 205.663224 -42.318196 
L 205.382631 -42.318196 
L 205.102037 -42.318196 
L 204.821444 -42.318196 
L 204.540851 -42.318196 
L 204.260257 -42.318196 
L 203.979664 -42.318196 
L 203.699071 -42.318196 
L 203.418477 -42.318196 
L 203.137884 -42.318196 
L 202.857291 -42.318196 
L 202.576697 -42.318196 
L 202.296104 -42.318196 
L 202.015511 -42.318196 
L 201.734918 -42.318196 
L 201.454324 -42.318196 
L 201.173731 -42.318196 
L 200.893138 -42.318196 
L 200.612544 -42.318196 
L 200.331951 -42.318196 
L 200.051358 -42.318196 
L 199.770764 -42.318196 
L 199.490171 -42.318196 
L 199.209578 -42.318196 
L 198.928985 -42.318196 
L 198.648391 -42.318196 
L 198.367798 -42.318196 
L 198.087205 -42.318196 
L 197.806611 -42.318196 
L 197.526018 -42.318196 
L 197.245425 -42.318196 
L 196.964831 -42.318196 
L 196.684238 -42.318196 
L 196.403645 -42.318196 
L 196.123052 -42.318196 
L 195.842458 -42.318196 
L 195.561865 -42.318196 
L 195.281272 -42.318196 
L 195.000678 -42.318196 
L 194.720085 -42.318196 
L 194.439492 -42.318196 
L 194.158898 -42.318196 
L 193.878305 -42.318196 
L 193.597712 -42.318196 
L 193.317119 -42.318196 
L 193.036525 -42.318196 
L 192.755932 -42.318196 
L 192.475339 -42.318196 
L 192.194745 -42.318196 
L 191.914152 -42.318196 
L 191.633559 -42.318196 
L 191.352965 -42.318196 
L 191.072372 -42.318196 
L 190.791779 -42.318196 
L 190.511186 -42.318196 
L 190.230592 -42.318196 
L 189.949999 -42.318196 
L 189.669406 -42.318196 
L 189.388812 -42.318196 
L 189.108219 -42.318196 
L 188.827626 -42.318196 
L 188.547032 -42.318196 
L 188.266439 -42.318196 
L 187.985846 -42.318196 
L 187.705253 -42.318196 
L 187.424659 -42.318196 
L 187.144066 -42.318196 
L 186.863473 -42.318196 
L 186.582879 -42.318196 
L 186.302286 -42.318196 
L 186.021693 -42.318196 
L 185.741099 -42.318196 
L 185.460506 -42.318196 
L 185.179913 -42.318196 
L 184.89932 -42.318196 
L 184.618726 -42.318196 
L 184.338133 -42.318196 
L 184.05754 -42.318196 
L 183.776946 -42.318196 
L 183.496353 -42.318196 
L 183.21576 -42.318196 
L 182.935166 -42.318196 
L 182.654573 -42.318196 
L 182.37398 -42.318196 
L 182.093387 -42.318196 
L 181.812793 -42.318196 
L 181.5322 -42.318196 
L 181.251607 -42.318196 
L 180.971013 -42.318196 
L 180.69042 -42.318196 
L 180.409827 -42.318196 
L 180.129233 -42.318196 
L 179.84864 -42.318196 
L 179.568047 -42.318196 
L 179.287453 -42.318196 
L 179.00686 -42.318196 
L 178.726267 -42.318196 
L 178.445674 -42.318196 
L 178.16508 -42.318196 
L 177.884487 -42.318196 
L 177.603894 -42.318196 
L 177.3233 -42.318196 
L 177.042707 -42.318196 
L 176.762114 -42.318196 
L 176.48152 -42.318196 
L 176.200927 -42.318196 
L 175.920334 -42.318196 
L 175.639741 -42.318196 
L 175.359147 -42.318196 
L 175.078554 -42.318196 
L 174.797961 -42.318196 
L 174.517367 -42.318196 
L 174.236774 -42.318196 
L 173.956181 -42.318196 
L 173.675587 -42.318196 
L 173.394994 -42.318196 
L 173.114401 -42.318196 
L 172.833808 -42.318196 
L 172.553214 -42.318196 
L 172.272621 -42.318196 
L 171.992028 -42.318196 
L 171.711434 -42.318196 
L 171.430841 -42.318196 
L 171.150248 -42.318196 
L 170.869654 -42.318196 
L 170.589061 -42.318196 
L 170.308468 -42.318196 
L 170.027875 -42.318196 
L 169.747281 -42.318196 
L 169.466688 -42.318196 
L 169.186095 -42.318196 
L 168.905501 -42.318196 
L 168.624908 -42.318196 
L 168.344315 -42.318196 
L 168.063721 -42.318196 
L 167.783128 -42.318196 
L 167.502535 -42.318196 
L 167.221942 -42.318196 
L 166.941348 -42.318196 
L 166.660755 -42.318196 
L 166.380162 -42.318196 
L 166.099568 -42.318196 
L 165.818975 -42.318196 
L 165.538382 -42.318196 
L 165.257788 -42.318196 
L 164.977195 -42.318196 
L 164.696602 -42.318196 
L 164.416009 -42.318196 
L 164.135415 -42.318196 
L 163.854822 -42.318196 
L 163.574229 -42.318196 
L 163.293635 -42.318196 
L 163.013042 -42.318196 
L 162.732449 -42.318196 
L 162.451855 -42.318196 
L 162.171262 -42.318196 
L 161.890669 -42.318196 
L 161.610076 -42.318196 
L 161.329482 -42.318196 
L 161.048889 -42.318196 
L 160.768296 -42.318196 
L 160.487702 -42.318196 
L 160.207109 -42.318196 
L 159.926516 -42.318196 
L 159.645922 -42.318196 
L 159.365329 -42.318196 
L 159.084736 -42.318196 
L 158.804143 -42.318196 
L 158.523549 -42.318196 
L 158.242956 -42.318196 
L 157.962363 -42.318196 
L 157.681769 -42.318196 
L 157.401176 -42.318196 
L 157.120583 -42.318196 
L 156.839989 -42.318196 
L 156.559396 -42.318196 
L 156.278803 -42.318196 
L 155.998209 -42.318196 
L 155.717616 -42.318196 
L 155.437023 -42.318196 
L 155.15643 -42.318196 
L 154.875836 -42.318196 
L 154.595243 -42.318196 
L 154.31465 -42.318196 
L 154.034056 -42.318196 
L 153.753463 -42.318196 
L 153.47287 -42.318196 
L 153.192276 -42.318196 
L 152.911683 -42.318196 
L 152.63109 -42.318196 
L 152.350497 -42.318196 
L 152.069903 -42.318196 
L 151.78931 -42.318196 
L 151.508717 -42.318196 
L 151.228123 -42.318196 
L 150.94753 -42.318196 
L 150.666937 -42.318196 
L 150.386343 -42.318196 
L 150.10575 -42.318196 
L 149.825157 -42.318196 
L 149.544564 -42.318196 
L 149.26397 -42.318196 
L 148.983377 -42.318196 
L 148.702784 -42.318196 
L 148.42219 -42.318196 
L 148.141597 -42.318196 
L 147.861004 -42.318196 
L 147.58041 -42.318196 
L 147.299817 -42.318196 
L 147.019224 -42.318196 
L 146.738631 -42.318196 
L 146.458037 -42.318196 
L 146.177444 -42.318196 
L 145.896851 -42.318196 
L 145.616257 -42.318196 
L 145.335664 -42.318196 
L 145.055071 -42.318196 
L 144.774477 -42.318196 
L 144.493884 -42.318196 
L 144.213291 -42.318196 
L 143.932698 -42.318196 
L 143.652104 -42.318196 
L 143.371511 -42.318196 
L 143.090918 -42.318196 
L 142.810324 -42.318196 
L 142.529731 -42.318196 
L 142.249138 -42.318196 
L 141.968544 -42.318196 
L 141.687951 -42.318196 
L 141.407358 -42.318196 
L 141.126765 -42.318196 
L 140.846171 -42.318196 
L 140.565578 -42.318196 
L 140.284985 -42.318196 
L 140.004391 -42.318196 
L 139.723798 -42.318196 
L 139.443205 -42.318196 
L 139.162611 -42.318196 
L 138.882018 -42.318196 
L 138.601425 -42.318196 
L 138.320832 -42.318196 
L 138.040238 -42.318196 
L 137.759645 -42.318196 
L 137.479052 -42.318196 
L 137.198458 -42.318196 
L 136.917865 -42.318196 
L 136.637272 -42.318196 
L 136.356678 -42.318196 
L 136.076085 -42.318196 
L 135.795492 -42.318196 
L 135.514898 -42.318196 
L 135.234305 -42.318196 
L 134.953712 -42.318196 
L 134.673119 -42.318196 
L 134.392525 -42.318196 
L 134.111932 -42.318196 
L 133.831339 -42.318196 
L 133.550745 -42.318196 
L 133.270152 -42.318196 
L 132.989559 -42.318196 
L 132.708965 -42.318196 
L 132.428372 -42.318196 
L 132.147779 -42.318196 
L 131.867186 -42.318196 
L 131.586592 -42.318196 
L 131.305999 -42.318196 
L 131.025406 -42.318196 
L 130.744812 -42.318196 
L 130.464219 -42.318196 
L 130.183626 -42.318196 
L 129.903032 -42.318196 
L 129.622439 -42.318196 
L 129.341846 -42.318196 
L 129.061253 -42.318196 
L 128.780659 -42.318196 
L 128.500066 -42.318196 
L 128.219473 -42.318196 
L 127.938879 -42.318196 
L 127.658286 -42.318196 
L 127.377693 -42.318196 
L 127.097099 -42.318196 
L 126.816506 -42.318196 
L 126.535913 -42.318196 
L 126.25532 -42.318196 
L 125.974726 -42.318196 
L 125.694133 -42.318196 
L 125.41354 -42.318196 
L 125.132946 -42.318196 
L 124.852353 -42.318196 
L 124.57176 -42.318196 
L 124.291166 -42.318196 
L 124.010573 -42.318196 
L 123.72998 -42.318196 
L 123.449387 -42.318196 
L 123.168793 -42.318196 
L 122.8882 -42.318196 
L 122.607607 -42.318196 
L 122.327013 -42.318196 
L 122.04642 -42.318196 
L 121.765827 -42.318196 
L 121.485233 -42.318196 
L 121.20464 -42.318196 
L 120.924047 -42.318196 
L 120.643454 -42.318196 
L 120.36286 -42.318196 
L 120.082267 -42.318196 
L 119.801674 -42.318196 
L 119.52108 -42.318196 
L 119.240487 -42.318196 
L 118.959894 -42.318196 
L 118.6793 -42.318196 
L 118.398707 -42.318196 
L 118.118114 -42.318196 
L 117.837521 -42.318196 
L 117.556927 -42.318196 
L 117.276334 -42.318196 
L 116.995741 -42.318196 
L 116.715147 -42.318196 
L 116.434554 -42.318196 
L 116.153961 -42.318196 
L 115.873367 -42.318196 
L 115.592774 -42.318196 
L 115.312181 -42.318196 
L 115.031588 -42.318196 
L 114.750994 -42.318196 
L 114.470401 -42.318196 
L 114.189808 -42.318196 
L 113.909214 -42.318196 
L 113.628621 -42.318196 
L 113.348028 -42.318196 
L 113.067434 -42.318196 
L 112.786841 -42.318196 
L 112.506248 -42.318196 
L 112.225654 -42.318196 
L 111.945061 -42.318196 
L 111.664468 -42.318196 
L 111.383875 -42.318196 
L 111.103281 -42.318196 
L 110.822688 -42.318196 
L 110.542095 -42.318196 
L 110.261501 -42.318196 
L 109.980908 -42.318196 
L 109.700315 -42.318196 
L 109.419721 -42.318196 
L 109.139128 -42.318196 
L 108.858535 -42.318196 
L 108.577942 -42.318196 
L 108.297348 -42.318196 
L 108.016755 -42.318196 
L 107.736162 -42.318196 
L 107.455568 -42.318196 
L 107.174975 -42.318196 
L 106.894382 -42.318196 
L 106.613788 -42.318196 
L 106.333195 -42.318196 
L 106.052602 -42.318196 
L 105.772009 -42.318196 
L 105.491415 -42.318196 
L 105.210822 -42.318196 
L 104.930229 -42.318196 
L 104.649635 -42.318196 
L 104.369042 -42.318196 
L 104.088449 -42.318196 
L 103.807855 -42.318196 
L 103.527262 -42.318196 
L 103.246669 -42.318196 
L 102.966076 -42.318196 
L 102.685482 -42.318196 
L 102.404889 -42.318196 
L 102.124296 -42.318196 
L 101.843702 -42.318196 
L 101.563109 -42.318196 
L 101.282516 -42.318196 
L 101.001922 -42.318196 
L 100.721329 -42.318196 
L 100.440736 -42.318196 
L 100.160143 -42.318196 
L 99.879549 -42.318196 
L 99.598956 -42.318196 
L 99.318363 -42.318196 
L 99.037769 -42.318196 
L 98.757176 -42.318196 
L 98.476583 -42.318196 
L 98.195989 -42.318196 
L 97.915396 -42.318196 
L 97.634803 -42.318196 
L 97.35421 -42.318196 
L 97.073616 -42.318196 
L 96.793023 -42.318196 
L 96.51243 -42.318196 
L 96.231836 -42.318196 
L 95.951243 -42.318196 
L 95.67065 -42.318196 
L 95.390056 -42.318196 
L 95.109463 -42.318196 
L 94.82887 -42.318196 
L 94.548277 -42.318196 
L 94.267683 -42.318196 
L 93.98709 -42.318196 
L 93.706497 -42.318196 
L 93.425903 -42.318196 
L 93.14531 -42.318196 
L 92.864717 -42.318196 
L 92.584123 -42.318196 
L 92.30353 -42.318196 
L 92.022937 -42.318196 
L 91.742344 -42.318196 
L 91.46175 -42.318196 
L 91.181157 -42.318196 
L 90.900564 -42.318196 
L 90.61997 -42.318196 
L 90.339377 -42.318196 
L 90.058784 -42.318196 
L 89.77819 -42.318196 
L 89.497597 -42.318196 
L 89.217004 -42.318196 
L 88.93641 -42.318196 
L 88.655817 -42.318196 
L 88.375224 -42.318196 
L 88.094631 -42.318196 
L 87.814037 -42.318196 
L 87.533444 -42.318196 
L 87.252851 -42.318196 
L 86.972257 -42.318196 
L 86.691664 -42.318196 
L 86.411071 -42.318196 
L 86.130477 -42.318196 
L 85.849884 -42.318196 
L 85.569291 -42.318196 
L 85.288698 -42.318196 
L 85.008104 -42.318196 
L 84.727511 -42.318196 
L 84.446918 -42.318196 
L 84.166324 -42.318196 
L 83.885731 -42.318196 
L 83.605138 -42.318196 
L 83.324544 -42.318196 
L 83.043951 -42.318196 
L 82.763358 -42.318196 
L 82.482765 -42.318196 
L 82.202171 -42.318196 
L 81.921578 -42.318196 
L 81.640985 -42.318196 
L 81.360391 -42.318196 
L 81.079798 -42.318196 
L 80.799205 -42.318196 
L 80.518611 -42.318196 
L 80.238018 -42.318196 
L 79.957425 -42.318196 
L 79.676832 -42.318196 
L 79.396238 -42.318196 
L 79.115645 -42.318196 
L 78.835052 -42.318196 
L 78.554458 -42.318196 
L 78.273865 -42.318196 
L 77.993272 -42.318196 
L 77.712678 -42.318196 
L 77.432085 -42.318196 
L 77.151492 -42.318196 
L 76.870899 -42.318196 
L 76.590305 -42.318196 
L 76.309712 -42.318196 
L 76.029119 -42.318196 
L 75.748525 -42.318196 
L 75.467932 -42.318196 
L 75.187339 -42.318196 
L 74.906745 -42.318196 
L 74.626152 -42.318196 
L 74.345559 -42.318196 
L 74.064966 -42.318196 
L 73.784372 -42.318196 
L 73.503779 -42.318196 
L 73.223186 -42.318196 
L 72.942592 -42.318196 
L 72.661999 -42.318196 
L 72.381406 -42.318196 
L 72.100812 -42.318196 
L 71.820219 -42.318196 
L 71.539626 -42.318196 
L 71.259033 -42.318196 
L 70.978439 -42.318196 
L 70.697846 -42.318196 
L 70.417253 -42.318196 
L 70.136659 -42.318196 
L 69.856066 -42.318196 
L 69.575473 -42.318196 
L 69.294879 -42.318196 
L 69.014286 -42.318196 
L 68.733693 -42.318196 
L 68.453099 -42.318196 
L 68.172506 -42.318196 
L 67.891913 -42.318196 
L 67.61132 -42.318196 
L 67.330726 -42.318196 
L 67.050133 -42.318196 
L 66.76954 -42.318196 
L 66.488946 -42.318196 
L 66.208353 -42.318196 
L 65.92776 -42.318196 
L 65.647166 -42.318196 
L 65.366573 -42.318196 
L 65.08598 -42.318196 
L 64.805387 -42.318196 
L 64.524793 -42.318196 
L 64.2442 -42.318196 
L 63.963607 -42.318196 
L 63.683013 -42.318196 
L 63.40242 -42.318196 
L 63.121827 -42.318196 
L 62.841233 -42.318196 
L 62.56064 -42.318196 
L 62.280047 -42.318196 
L 61.999454 -42.318196 
L 61.71886 -42.318196 
L 61.438267 -42.318196 
L 61.157674 -42.318196 
L 60.87708 -42.318196 
L 60.596487 -42.318196 
L 60.315894 -42.318196 
L 60.0353 -42.318196 
L 59.754707 -42.318196 
L 59.474114 -42.318196 
L 59.193521 -42.318196 
L 58.912927 -42.318196 
L 58.632334 -42.318196 
L 58.351741 -42.318196 
L 58.071147 -42.318196 
L 57.790554 -42.318196 
L 57.509961 -42.318196 
L 57.229367 -42.318196 
L 56.948774 -42.318196 
L 56.668181 -42.318196 
L 56.387588 -42.318196 
L 56.106994 -42.318196 
L 55.826401 -42.318196 
L 55.545808 -42.318196 
L 55.265214 -42.318196 
L 54.984621 -42.318196 
L 54.704028 -42.318196 
L 54.423434 -42.318196 
L 54.142841 -42.318196 
L 53.862248 -42.318196 
L 53.581655 -42.318196 
L 53.301061 -42.318196 
L 53.020468 -42.318196 
L 52.739875 -42.318196 
L 52.459281 -42.318196 
L 52.178688 -42.318196 
L 51.898095 -42.318196 
L 51.617501 -42.318196 
L 51.336908 -42.318196 
L 51.056315 -42.318196 
L 50.775722 -42.318196 
L 50.495128 -42.318196 
L 50.214535 -42.318196 
L 49.933942 -42.318196 
L 49.653348 -42.318196 
L 49.372755 -42.318196 
L 49.092162 -42.318196 
L 48.811568 -42.318196 
L 48.530975 -42.318196 
L 48.250382 -42.318196 
L 47.969789 -42.318196 
L 47.689195 -42.318196 
L 47.408602 -42.318196 
L 47.128009 -42.318196 
L 46.847415 -42.318196 
L 46.566822 -42.318196 
L 46.286229 -42.318196 
L 46.005635 -42.318196 
z
" style="stroke: #ffffff; stroke-opacity: 0.2"/>
    </defs>
    <g clip-path="url(#pefcfdb6d32)">
     <use xlink:href="#mb4f1969611" x="0" y="424.779844" style="fill: #0000ff; fill-opacity: 0.2; stroke: #ffffff; stroke-opacity: 0.2"/>
    </g>
   </g>
   <g id="line2d_15">
    <path d="M 46.005635 382.461648 
L 85.849884 382.461648 
L 86.130477 71.294602 
L 286.193501 71.294602 
L 286.474095 382.461648 
L 326.318343 382.461648 
L 326.318343 382.461648 
" clip-path="url(#pefcfdb6d32)" style="fill: none; stroke: #0173b2; stroke-width: 1.5; stroke-linecap: round"/>
   </g>
   <g id="LineCollection_1">
    <path d="M 226.206662 382.461648 
L 226.206662 71.294602 
" clip-path="url(#pefcfdb6d32)" style="fill: none; stroke: #0000ff; stroke-opacity: 0.5; stroke-width: 1.5"/>
   </g>
   <g id="patch_3">
    <path d="M 31.99 398.02 
L 31.99 55.73625 
" style="fill: none; stroke: #ffffff; stroke-width: 1.25; stroke-linejoin: miter; stroke-linecap: square"/>
   </g>
   <g id="patch_4">
    <path d="M 340.333979 398.02 
L 340.333979 55.73625 
" style="fill: none; stroke: #ffffff; stroke-width: 1.25; stroke-linejoin: miter; stroke-linecap: square"/>
   </g>
   <g id="patch_5">
    <path d="M 31.99 398.02 
L 340.333979 398.02 
" style="fill: none; stroke: #ffffff; stroke-width: 1.25; stroke-linejoin: miter; stroke-linecap: square"/>
   </g>
   <g id="patch_6">
    <path d="M 31.99 55.73625 
L 340.333979 55.73625 
" style="fill: none; stroke: #ffffff; stroke-width: 1.25; stroke-linejoin: miter; stroke-linecap: square"/>
   </g>
   <g id="text_15">
    <!-- $b$ -->
    <g style="fill: #262626" transform="translate(223.626662 391.051023) scale(0.12 -0.12)">
     <defs>
      <path id="Cmmi10-62" d="M 1106 -72 
Q 719 -72 503 231 
Q 288 534 288 941 
Q 288 1000 317 1173 
Q 347 1347 347 1388 
L 966 3872 
Q 991 3981 997 4044 
Q 997 4147 581 4147 
Q 519 4147 519 4231 
Q 522 4247 533 4287 
Q 544 4328 561 4350 
Q 578 4372 609 4372 
L 1472 4441 
Q 1550 4441 1550 4359 
L 1075 2472 
Q 1438 2828 1806 2828 
Q 2078 2828 2273 2684 
Q 2469 2541 2566 2306 
Q 2663 2072 2663 1806 
Q 2663 1497 2542 1167 
Q 2422 838 2209 555 
Q 1997 272 1712 100 
Q 1428 -72 1106 -72 
z
M 1119 97 
Q 1338 97 1528 280 
Q 1719 463 1838 691 
Q 1966 947 2077 1386 
Q 2188 1825 2188 2088 
Q 2188 2316 2092 2489 
Q 1997 2663 1791 2663 
Q 1559 2663 1348 2492 
Q 1138 2322 978 2088 
L 800 1363 
Q 697 959 691 716 
Q 691 475 795 286 
Q 900 97 1119 97 
z
" transform="scale(0.015625)"/>
     </defs>
     <use xlink:href="#Cmmi10-62" transform="translate(0 0.609375)"/>
    </g>
   </g>
   <g id="text_16">
    <!-- Pr$(\{U \leq b \})$     -->
    <g style="fill: #262626" transform="translate(150.606662 262.37483) scale(0.12 -0.12)">
     <defs>
      <path id="ArialMT-50" d="M 494 0 
L 494 4581 
L 2222 4581 
Q 2678 4581 2919 4538 
Q 3256 4481 3484 4323 
Q 3713 4166 3852 3881 
Q 3991 3597 3991 3256 
Q 3991 2672 3619 2267 
Q 3247 1863 2275 1863 
L 1100 1863 
L 1100 0 
L 494 0 
z
M 1100 2403 
L 2284 2403 
Q 2872 2403 3119 2622 
Q 3366 2841 3366 3238 
Q 3366 3525 3220 3729 
Q 3075 3934 2838 4000 
Q 2684 4041 2272 4041 
L 1100 4041 
L 1100 2403 
z
" transform="scale(0.015625)"/>
      <path id="ArialMT-72" d="M 416 0 
L 416 3319 
L 922 3319 
L 922 2816 
Q 1116 3169 1280 3281 
Q 1444 3394 1641 3394 
Q 1925 3394 2219 3213 
L 2025 2691 
Q 1819 2813 1613 2813 
Q 1428 2813 1281 2702 
Q 1134 2591 1072 2394 
Q 978 2094 978 1738 
L 978 0 
L 416 0 
z
" transform="scale(0.015625)"/>
      <path id="Cmr10-28" d="M 1984 -1588 
Q 1628 -1306 1370 -942 
Q 1113 -578 948 -165 
Q 784 247 703 697 
Q 622 1147 622 1600 
Q 622 2059 703 2509 
Q 784 2959 951 3375 
Q 1119 3791 1378 4153 
Q 1638 4516 1984 4788 
Q 1984 4800 2016 4800 
L 2075 4800 
Q 2094 4800 2109 4783 
Q 2125 4766 2125 4744 
Q 2125 4716 2113 4703 
Q 1800 4397 1592 4047 
Q 1384 3697 1257 3301 
Q 1131 2906 1075 2482 
Q 1019 2059 1019 1600 
Q 1019 -434 2106 -1491 
Q 2125 -1509 2125 -1544 
Q 2125 -1559 2108 -1579 
Q 2091 -1600 2075 -1600 
L 2016 -1600 
Q 1984 -1600 1984 -1588 
z
" transform="scale(0.015625)"/>
      <path id="Cmex10-a9" d="M 1631 -6425 
L 1631 -4556 
Q 1631 -4338 1503 -4159 
Q 1375 -3981 1184 -3867 
Q 994 -3753 756 -3675 
Q 709 -3650 709 -3622 
L 709 -3547 
Q 709 -3503 756 -3494 
Q 1128 -3366 1379 -3150 
Q 1631 -2934 1631 -2606 
L 1631 -738 
Q 1631 -325 2004 -95 
Q 2378 134 2888 256 
L 2963 256 
Q 2981 256 2998 242 
Q 3016 228 3016 206 
L 3016 128 
Q 3016 91 2975 78 
Q 2619 -31 2359 -232 
Q 2100 -434 2100 -750 
L 2100 -2619 
Q 2100 -2994 1804 -3214 
Q 1509 -3434 1056 -3584 
Q 1497 -3716 1798 -3939 
Q 2100 -4163 2100 -4544 
L 2100 -6413 
Q 2100 -6628 2231 -6790 
Q 2363 -6953 2556 -7059 
Q 2750 -7166 2975 -7238 
Q 3016 -7250 3016 -7291 
L 3016 -7366 
Q 3016 -7384 2998 -7401 
Q 2981 -7419 2963 -7419 
L 2888 -7419 
Q 2559 -7338 2292 -7227 
Q 2025 -7116 1828 -6914 
Q 1631 -6713 1631 -6425 
z
" transform="scale(0.015625)"/>
      <path id="Cmmi10-55" d="M 941 891 
Q 941 656 1033 472 
Q 1125 288 1300 186 
Q 1475 84 1709 84 
Q 1984 84 2245 196 
Q 2506 309 2715 509 
Q 2925 709 3073 965 
Q 3222 1222 3284 1472 
L 3859 3781 
Q 3872 3850 3872 3878 
Q 3872 4147 3378 4147 
Q 3316 4147 3316 4231 
Q 3338 4313 3350 4342 
Q 3363 4372 3425 4372 
L 4813 4372 
Q 4841 4372 4859 4344 
Q 4878 4316 4878 4288 
Q 4878 4284 4865 4239 
Q 4853 4194 4836 4170 
Q 4819 4147 4794 4147 
Q 4181 4147 4084 3756 
L 3506 1447 
Q 3434 1147 3264 864 
Q 3094 581 2845 351 
Q 2597 122 2298 -9 
Q 2000 -141 1691 -141 
Q 1338 -141 1045 14 
Q 753 169 587 447 
Q 422 725 422 1088 
Q 422 1297 469 1472 
L 1088 3956 
Q 1100 4019 1100 4044 
Q 1100 4113 1025 4122 
Q 903 4147 563 4147 
Q 500 4147 500 4231 
Q 522 4313 534 4342 
Q 547 4372 609 4372 
L 2328 4372 
Q 2394 4372 2394 4288 
Q 2391 4272 2381 4234 
Q 2372 4197 2356 4172 
Q 2341 4147 2309 4147 
Q 1919 4147 1766 4103 
Q 1681 4072 1644 3928 
L 1025 1447 
Q 941 1109 941 891 
z
" transform="scale(0.015625)"/>
      <path id="Cmsy10-2219" d="M 653 -878 
Q 600 -878 565 -837 
Q 531 -797 531 -750 
Q 531 -697 565 -659 
Q 600 -622 653 -622 
L 4325 -622 
Q 4375 -622 4408 -659 
Q 4441 -697 4441 -750 
Q 4441 -797 4408 -837 
Q 4375 -878 4325 -878 
L 653 -878 
z
M 594 2113 
Q 531 2131 531 2222 
Q 531 2303 616 2338 
L 4269 4063 
Q 4281 4072 4313 4072 
Q 4366 4072 4403 4034 
Q 4441 3997 4441 3944 
Q 4441 3859 4366 3828 
L 959 2222 
L 4384 603 
Q 4441 572 4441 494 
Q 4441 438 4403 402 
Q 4366 366 4313 366 
Q 4281 366 4269 378 
L 594 2113 
z
" transform="scale(0.015625)"/>
      <path id="Cmex10-aa" d="M 709 -7366 
L 709 -7291 
Q 709 -7247 756 -7238 
Q 1631 -6953 1631 -6413 
L 1631 -4544 
Q 1631 -3909 2669 -3584 
Q 2219 -3431 1925 -3209 
Q 1631 -2988 1631 -2619 
L 1631 -750 
Q 1631 -206 756 78 
Q 709 88 709 128 
L 709 206 
Q 709 256 769 256 
L 844 256 
Q 1359 131 1729 -97 
Q 2100 -325 2100 -738 
L 2100 -2606 
Q 2100 -2925 2354 -3142 
Q 2609 -3359 2975 -3494 
Q 3016 -3506 3016 -3547 
L 3016 -3622 
Q 3016 -3641 2975 -3675 
Q 2769 -3744 2566 -3864 
Q 2363 -3984 2231 -4161 
Q 2100 -4338 2100 -4556 
L 2100 -6425 
Q 2100 -6713 1901 -6914 
Q 1703 -7116 1437 -7227 
Q 1172 -7338 844 -7419 
L 769 -7419 
Q 744 -7419 726 -7401 
Q 709 -7384 709 -7366 
z
" transform="scale(0.015625)"/>
      <path id="Cmr10-29" d="M 416 -1600 
Q 359 -1600 359 -1544 
Q 359 -1516 372 -1503 
Q 1466 -434 1466 1600 
Q 1466 3634 384 4691 
Q 359 4706 359 4744 
Q 359 4766 376 4783 
Q 394 4800 416 4800 
L 475 4800 
Q 494 4800 506 4788 
Q 966 4425 1272 3906 
Q 1578 3388 1720 2800 
Q 1863 2213 1863 1600 
Q 1863 1147 1786 708 
Q 1709 269 1542 -157 
Q 1375 -584 1119 -945 
Q 863 -1306 506 -1588 
Q 494 -1600 475 -1600 
L 416 -1600 
z
" transform="scale(0.015625)"/>
      <path id="ArialMT-20" transform="scale(0.015625)"/>
     </defs>
     <use xlink:href="#ArialMT-50" transform="translate(0 0.705729)"/>
     <use xlink:href="#ArialMT-72" transform="translate(66.699219 0.705729)"/>
     <use xlink:href="#Cmr10-28" transform="translate(100 0.705729)"/>
     <use xlink:href="#Cmex10-a9" transform="translate(138.818359 94)"/>
     <use xlink:href="#Cmmi10-55" transform="translate(197.119141 0.705729)"/>
     <use xlink:href="#Cmsy10-2219" transform="translate(282.890625 0.705729)"/>
     <use xlink:href="#Cmmi10-62" transform="translate(378.134766 0.705729)"/>
     <use xlink:href="#Cmex10-aa" transform="translate(421.054688 94)"/>
     <use xlink:href="#Cmr10-29" transform="translate(479.355469 0.705729)"/>
     <use xlink:href="#ArialMT-20" transform="translate(518.173828 0.705729)"/>
     <use xlink:href="#ArialMT-20" transform="translate(545.957031 0.705729)"/>
     <use xlink:href="#ArialMT-20" transform="translate(573.740234 0.705729)"/>
     <use xlink:href="#ArialMT-20" transform="translate(601.523438 0.705729)"/>
    </g>
   </g>
   <g id="text_17">
    <!-- Funzione di densità di probabilità -->
    <g style="fill: #262626" transform="translate(98.444802 49.73625) scale(0.12 -0.12)">
     <defs>
      <path id="ArialMT-46" d="M 525 0 
L 525 4581 
L 3616 4581 
L 3616 4041 
L 1131 4041 
L 1131 2622 
L 3281 2622 
L 3281 2081 
L 1131 2081 
L 1131 0 
L 525 0 
z
" transform="scale(0.015625)"/>
      <path id="ArialMT-75" d="M 2597 0 
L 2597 488 
Q 2209 -75 1544 -75 
Q 1250 -75 995 37 
Q 741 150 617 320 
Q 494 491 444 738 
Q 409 903 409 1263 
L 409 3319 
L 972 3319 
L 972 1478 
Q 972 1038 1006 884 
Q 1059 663 1231 536 
Q 1403 409 1656 409 
Q 1909 409 2131 539 
Q 2353 669 2445 892 
Q 2538 1116 2538 1541 
L 2538 3319 
L 3100 3319 
L 3100 0 
L 2597 0 
z
" transform="scale(0.015625)"/>
      <path id="ArialMT-6e" d="M 422 0 
L 422 3319 
L 928 3319 
L 928 2847 
Q 1294 3394 1984 3394 
Q 2284 3394 2536 3286 
Q 2788 3178 2913 3003 
Q 3038 2828 3088 2588 
Q 3119 2431 3119 2041 
L 3119 0 
L 2556 0 
L 2556 2019 
Q 2556 2363 2490 2533 
Q 2425 2703 2258 2804 
Q 2091 2906 1866 2906 
Q 1506 2906 1245 2678 
Q 984 2450 984 1813 
L 984 0 
L 422 0 
z
" transform="scale(0.015625)"/>
      <path id="ArialMT-7a" d="M 125 0 
L 125 456 
L 2238 2881 
Q 1878 2863 1603 2863 
L 250 2863 
L 250 3319 
L 2963 3319 
L 2963 2947 
L 1166 841 
L 819 456 
Q 1197 484 1528 484 
L 3063 484 
L 3063 0 
L 125 0 
z
" transform="scale(0.015625)"/>
      <path id="ArialMT-69" d="M 425 3934 
L 425 4581 
L 988 4581 
L 988 3934 
L 425 3934 
z
M 425 0 
L 425 3319 
L 988 3319 
L 988 0 
L 425 0 
z
" transform="scale(0.015625)"/>
      <path id="ArialMT-6f" d="M 213 1659 
Q 213 2581 725 3025 
Q 1153 3394 1769 3394 
Q 2453 3394 2887 2945 
Q 3322 2497 3322 1706 
Q 3322 1066 3130 698 
Q 2938 331 2570 128 
Q 2203 -75 1769 -75 
Q 1072 -75 642 372 
Q 213 819 213 1659 
z
M 791 1659 
Q 791 1022 1069 705 
Q 1347 388 1769 388 
Q 2188 388 2466 706 
Q 2744 1025 2744 1678 
Q 2744 2294 2464 2611 
Q 2184 2928 1769 2928 
Q 1347 2928 1069 2612 
Q 791 2297 791 1659 
z
" transform="scale(0.015625)"/>
      <path id="ArialMT-65" d="M 2694 1069 
L 3275 997 
Q 3138 488 2766 206 
Q 2394 -75 1816 -75 
Q 1088 -75 661 373 
Q 234 822 234 1631 
Q 234 2469 665 2931 
Q 1097 3394 1784 3394 
Q 2450 3394 2872 2941 
Q 3294 2488 3294 1666 
Q 3294 1616 3291 1516 
L 816 1516 
Q 847 969 1125 678 
Q 1403 388 1819 388 
Q 2128 388 2347 550 
Q 2566 713 2694 1069 
z
M 847 1978 
L 2700 1978 
Q 2663 2397 2488 2606 
Q 2219 2931 1791 2931 
Q 1403 2931 1139 2672 
Q 875 2413 847 1978 
z
" transform="scale(0.015625)"/>
      <path id="ArialMT-64" d="M 2575 0 
L 2575 419 
Q 2259 -75 1647 -75 
Q 1250 -75 917 144 
Q 584 363 401 755 
Q 219 1147 219 1656 
Q 219 2153 384 2558 
Q 550 2963 881 3178 
Q 1213 3394 1622 3394 
Q 1922 3394 2156 3267 
Q 2391 3141 2538 2938 
L 2538 4581 
L 3097 4581 
L 3097 0 
L 2575 0 
z
M 797 1656 
Q 797 1019 1065 703 
Q 1334 388 1700 388 
Q 2069 388 2326 689 
Q 2584 991 2584 1609 
Q 2584 2291 2321 2609 
Q 2059 2928 1675 2928 
Q 1300 2928 1048 2622 
Q 797 2316 797 1656 
z
" transform="scale(0.015625)"/>
      <path id="ArialMT-73" d="M 197 991 
L 753 1078 
Q 800 744 1014 566 
Q 1228 388 1613 388 
Q 2000 388 2187 545 
Q 2375 703 2375 916 
Q 2375 1106 2209 1216 
Q 2094 1291 1634 1406 
Q 1016 1563 777 1677 
Q 538 1791 414 1992 
Q 291 2194 291 2438 
Q 291 2659 392 2848 
Q 494 3038 669 3163 
Q 800 3259 1026 3326 
Q 1253 3394 1513 3394 
Q 1903 3394 2198 3281 
Q 2494 3169 2634 2976 
Q 2775 2784 2828 2463 
L 2278 2388 
Q 2241 2644 2061 2787 
Q 1881 2931 1553 2931 
Q 1166 2931 1000 2803 
Q 834 2675 834 2503 
Q 834 2394 903 2306 
Q 972 2216 1119 2156 
Q 1203 2125 1616 2013 
Q 2213 1853 2448 1751 
Q 2684 1650 2818 1456 
Q 2953 1263 2953 975 
Q 2953 694 2789 445 
Q 2625 197 2315 61 
Q 2006 -75 1616 -75 
Q 969 -75 630 194 
Q 291 463 197 991 
z
" transform="scale(0.015625)"/>
      <path id="ArialMT-74" d="M 1650 503 
L 1731 6 
Q 1494 -44 1306 -44 
Q 1000 -44 831 53 
Q 663 150 594 308 
Q 525 466 525 972 
L 525 2881 
L 113 2881 
L 113 3319 
L 525 3319 
L 525 4141 
L 1084 4478 
L 1084 3319 
L 1650 3319 
L 1650 2881 
L 1084 2881 
L 1084 941 
Q 1084 700 1114 631 
Q 1144 563 1211 522 
Q 1278 481 1403 481 
Q 1497 481 1650 503 
z
" transform="scale(0.015625)"/>
      <path id="ArialMT-e0" d="M 2588 409 
Q 2275 144 1986 34 
Q 1697 -75 1366 -75 
Q 819 -75 525 192 
Q 231 459 231 875 
Q 231 1119 342 1320 
Q 453 1522 633 1644 
Q 813 1766 1038 1828 
Q 1203 1872 1538 1913 
Q 2219 1994 2541 2106 
Q 2544 2222 2544 2253 
Q 2544 2597 2384 2738 
Q 2169 2928 1744 2928 
Q 1347 2928 1158 2789 
Q 969 2650 878 2297 
L 328 2372 
Q 403 2725 575 2942 
Q 747 3159 1072 3276 
Q 1397 3394 1825 3394 
Q 2250 3394 2515 3294 
Q 2781 3194 2906 3042 
Q 3031 2891 3081 2659 
Q 3109 2516 3109 2141 
L 3109 1391 
Q 3109 606 3145 398 
Q 3181 191 3288 0 
L 2700 0 
Q 2613 175 2588 409 
z
M 2541 1666 
Q 2234 1541 1622 1453 
Q 1275 1403 1131 1340 
Q 988 1278 909 1158 
Q 831 1038 831 891 
Q 831 666 1001 516 
Q 1172 366 1500 366 
Q 1825 366 2078 508 
Q 2331 650 2450 897 
Q 2541 1088 2541 1459 
L 2541 1666 
z
M 2234 3731 
L 1781 3731 
L 1059 4606 
L 1813 4606 
L 2234 3731 
z
" transform="scale(0.015625)"/>
      <path id="ArialMT-70" d="M 422 -1272 
L 422 3319 
L 934 3319 
L 934 2888 
Q 1116 3141 1344 3267 
Q 1572 3394 1897 3394 
Q 2322 3394 2647 3175 
Q 2972 2956 3137 2557 
Q 3303 2159 3303 1684 
Q 3303 1175 3120 767 
Q 2938 359 2589 142 
Q 2241 -75 1856 -75 
Q 1575 -75 1351 44 
Q 1128 163 984 344 
L 984 -1272 
L 422 -1272 
z
M 931 1641 
Q 931 1000 1190 694 
Q 1450 388 1819 388 
Q 2194 388 2461 705 
Q 2728 1022 2728 1688 
Q 2728 2322 2467 2637 
Q 2206 2953 1844 2953 
Q 1484 2953 1207 2617 
Q 931 2281 931 1641 
z
" transform="scale(0.015625)"/>
      <path id="ArialMT-62" d="M 941 0 
L 419 0 
L 419 4581 
L 981 4581 
L 981 2947 
Q 1338 3394 1891 3394 
Q 2197 3394 2470 3270 
Q 2744 3147 2920 2923 
Q 3097 2700 3197 2384 
Q 3297 2069 3297 1709 
Q 3297 856 2875 390 
Q 2453 -75 1863 -75 
Q 1275 -75 941 416 
L 941 0 
z
M 934 1684 
Q 934 1088 1097 822 
Q 1363 388 1816 388 
Q 2184 388 2453 708 
Q 2722 1028 2722 1663 
Q 2722 2313 2464 2622 
Q 2206 2931 1841 2931 
Q 1472 2931 1203 2611 
Q 934 2291 934 1684 
z
" transform="scale(0.015625)"/>
      <path id="ArialMT-61" d="M 2588 409 
Q 2275 144 1986 34 
Q 1697 -75 1366 -75 
Q 819 -75 525 192 
Q 231 459 231 875 
Q 231 1119 342 1320 
Q 453 1522 633 1644 
Q 813 1766 1038 1828 
Q 1203 1872 1538 1913 
Q 2219 1994 2541 2106 
Q 2544 2222 2544 2253 
Q 2544 2597 2384 2738 
Q 2169 2928 1744 2928 
Q 1347 2928 1158 2789 
Q 969 2650 878 2297 
L 328 2372 
Q 403 2725 575 2942 
Q 747 3159 1072 3276 
Q 1397 3394 1825 3394 
Q 2250 3394 2515 3294 
Q 2781 3194 2906 3042 
Q 3031 2891 3081 2659 
Q 3109 2516 3109 2141 
L 3109 1391 
Q 3109 606 3145 398 
Q 3181 191 3288 0 
L 2700 0 
Q 2613 175 2588 409 
z
M 2541 1666 
Q 2234 1541 1622 1453 
Q 1275 1403 1131 1340 
Q 988 1278 909 1158 
Q 831 1038 831 891 
Q 831 666 1001 516 
Q 1172 366 1500 366 
Q 1825 366 2078 508 
Q 2331 650 2450 897 
Q 2541 1088 2541 1459 
L 2541 1666 
z
" transform="scale(0.015625)"/>
      <path id="ArialMT-6c" d="M 409 0 
L 409 4581 
L 972 4581 
L 972 0 
L 409 0 
z
" transform="scale(0.015625)"/>
     </defs>
     <use xlink:href="#ArialMT-46"/>
     <use xlink:href="#ArialMT-75" x="61.083984"/>
     <use xlink:href="#ArialMT-6e" x="116.699219"/>
     <use xlink:href="#ArialMT-7a" x="172.314453"/>
     <use xlink:href="#ArialMT-69" x="222.314453"/>
     <use xlink:href="#ArialMT-6f" x="244.53125"/>
     <use xlink:href="#ArialMT-6e" x="300.146484"/>
     <use xlink:href="#ArialMT-65" x="355.761719"/>
     <use xlink:href="#ArialMT-20" x="411.376953"/>
     <use xlink:href="#ArialMT-64" x="439.160156"/>
     <use xlink:href="#ArialMT-69" x="494.775391"/>
     <use xlink:href="#ArialMT-20" x="516.992188"/>
     <use xlink:href="#ArialMT-64" x="544.775391"/>
     <use xlink:href="#ArialMT-65" x="600.390625"/>
     <use xlink:href="#ArialMT-6e" x="656.005859"/>
     <use xlink:href="#ArialMT-73" x="711.621094"/>
     <use xlink:href="#ArialMT-69" x="761.621094"/>
     <use xlink:href="#ArialMT-74" x="783.837891"/>
     <use xlink:href="#ArialMT-e0" x="811.621094"/>
     <use xlink:href="#ArialMT-20" x="867.236328"/>
     <use xlink:href="#ArialMT-64" x="895.019531"/>
     <use xlink:href="#ArialMT-69" x="950.634766"/>
     <use xlink:href="#ArialMT-20" x="972.851562"/>
     <use xlink:href="#ArialMT-70" x="1000.634766"/>
     <use xlink:href="#ArialMT-72" x="1056.25"/>
     <use xlink:href="#ArialMT-6f" x="1089.550781"/>
     <use xlink:href="#ArialMT-62" x="1145.166016"/>
     <use xlink:href="#ArialMT-61" x="1200.78125"/>
     <use xlink:href="#ArialMT-62" x="1256.396484"/>
     <use xlink:href="#ArialMT-69" x="1312.011719"/>
     <use xlink:href="#ArialMT-6c" x="1334.228516"/>
     <use xlink:href="#ArialMT-69" x="1356.445312"/>
     <use xlink:href="#ArialMT-74" x="1378.662109"/>
     <use xlink:href="#ArialMT-e0" x="1406.445312"/>
    </g>
   </g>
  </g>
  <g id="axes_2">
   <g id="patch_7">
    <path d="M 385.51 398.02 
L 693.853979 398.02 
L 693.853979 55.73625 
L 385.51 55.73625 
z
" style="fill: #eaeaf2"/>
   </g>
   <g id="matplotlib.axis_3">
    <g id="xtick_9">
     <g id="line2d_16">
      <path d="M 399.525635 398.02 
L 399.525635 55.73625 
" clip-path="url(#p43beaca630)" style="fill: none; stroke: #ffffff; stroke-linecap: round"/>
     </g>
     <g id="text_18">
      <!-- −0.2 -->
      <g style="fill: #262626" transform="translate(388.668292 415.393594) scale(0.11 -0.11)">
       <use xlink:href="#ArialMT-2212"/>
       <use xlink:href="#ArialMT-30" x="58.398438"/>
       <use xlink:href="#ArialMT-2e" x="114.013672"/>
       <use xlink:href="#ArialMT-32" x="141.796875"/>
      </g>
     </g>
    </g>
    <g id="xtick_10">
     <g id="line2d_17">
      <path d="M 439.570308 398.02 
L 439.570308 55.73625 
" clip-path="url(#p43beaca630)" style="fill: none; stroke: #ffffff; stroke-linecap: round"/>
     </g>
     <g id="text_19">
      <!-- 0.0 -->
      <g style="fill: #262626" transform="translate(431.925308 415.393594) scale(0.11 -0.11)">
       <use xlink:href="#ArialMT-30"/>
       <use xlink:href="#ArialMT-2e" x="55.615234"/>
       <use xlink:href="#ArialMT-30" x="83.398438"/>
      </g>
     </g>
    </g>
    <g id="xtick_11">
     <g id="line2d_18">
      <path d="M 479.614981 398.02 
L 479.614981 55.73625 
" clip-path="url(#p43beaca630)" style="fill: none; stroke: #ffffff; stroke-linecap: round"/>
     </g>
     <g id="text_20">
      <!-- 0.2 -->
      <g style="fill: #262626" transform="translate(471.969981 415.393594) scale(0.11 -0.11)">
       <use xlink:href="#ArialMT-30"/>
       <use xlink:href="#ArialMT-2e" x="55.615234"/>
       <use xlink:href="#ArialMT-32" x="83.398438"/>
      </g>
     </g>
    </g>
    <g id="xtick_12">
     <g id="line2d_19">
      <path d="M 519.659653 398.02 
L 519.659653 55.73625 
" clip-path="url(#p43beaca630)" style="fill: none; stroke: #ffffff; stroke-linecap: round"/>
     </g>
     <g id="text_21">
      <!-- 0.4 -->
      <g style="fill: #262626" transform="translate(512.014653 415.393594) scale(0.11 -0.11)">
       <use xlink:href="#ArialMT-30"/>
       <use xlink:href="#ArialMT-2e" x="55.615234"/>
       <use xlink:href="#ArialMT-34" x="83.398438"/>
      </g>
     </g>
    </g>
    <g id="xtick_13">
     <g id="line2d_20">
      <path d="M 559.704326 398.02 
L 559.704326 55.73625 
" clip-path="url(#p43beaca630)" style="fill: none; stroke: #ffffff; stroke-linecap: round"/>
     </g>
     <g id="text_22">
      <!-- 0.6 -->
      <g style="fill: #262626" transform="translate(552.059326 415.393594) scale(0.11 -0.11)">
       <use xlink:href="#ArialMT-30"/>
       <use xlink:href="#ArialMT-2e" x="55.615234"/>
       <use xlink:href="#ArialMT-36" x="83.398438"/>
      </g>
     </g>
    </g>
    <g id="xtick_14">
     <g id="line2d_21">
      <path d="M 599.748998 398.02 
L 599.748998 55.73625 
" clip-path="url(#p43beaca630)" style="fill: none; stroke: #ffffff; stroke-linecap: round"/>
     </g>
     <g id="text_23">
      <!-- 0.8 -->
      <g style="fill: #262626" transform="translate(592.103998 415.393594) scale(0.11 -0.11)">
       <use xlink:href="#ArialMT-30"/>
       <use xlink:href="#ArialMT-2e" x="55.615234"/>
       <use xlink:href="#ArialMT-38" x="83.398438"/>
      </g>
     </g>
    </g>
    <g id="xtick_15">
     <g id="line2d_22">
      <path d="M 639.793671 398.02 
L 639.793671 55.73625 
" clip-path="url(#p43beaca630)" style="fill: none; stroke: #ffffff; stroke-linecap: round"/>
     </g>
     <g id="text_24">
      <!-- 1.0 -->
      <g style="fill: #262626" transform="translate(632.148671 415.393594) scale(0.11 -0.11)">
       <use xlink:href="#ArialMT-31"/>
       <use xlink:href="#ArialMT-2e" x="55.615234"/>
       <use xlink:href="#ArialMT-30" x="83.398438"/>
      </g>
     </g>
    </g>
    <g id="xtick_16">
     <g id="line2d_23">
      <path d="M 679.838343 398.02 
L 679.838343 55.73625 
" clip-path="url(#p43beaca630)" style="fill: none; stroke: #ffffff; stroke-linecap: round"/>
     </g>
     <g id="text_25">
      <!-- 1.2 -->
      <g style="fill: #262626" transform="translate(672.193343 415.393594) scale(0.11 -0.11)">
       <use xlink:href="#ArialMT-31"/>
       <use xlink:href="#ArialMT-2e" x="55.615234"/>
       <use xlink:href="#ArialMT-32" x="83.398438"/>
      </g>
     </g>
    </g>
   </g>
   <g id="matplotlib.axis_4">
    <g id="ytick_7">
     <g id="line2d_24">
      <path d="M 385.51 382.461648 
L 693.853979 382.461648 
" clip-path="url(#p43beaca630)" style="fill: none; stroke: #ffffff; stroke-linecap: round"/>
     </g>
     <g id="text_26">
      <!-- 0.0 -->
      <g style="fill: #262626" transform="translate(360.72 386.398445) scale(0.11 -0.11)">
       <use xlink:href="#ArialMT-30"/>
       <use xlink:href="#ArialMT-2e" x="55.615234"/>
       <use xlink:href="#ArialMT-30" x="83.398438"/>
      </g>
     </g>
    </g>
    <g id="ytick_8">
     <g id="line2d_25">
      <path d="M 385.51 320.228239 
L 693.853979 320.228239 
" clip-path="url(#p43beaca630)" style="fill: none; stroke: #ffffff; stroke-linecap: round"/>
     </g>
     <g id="text_27">
      <!-- 0.2 -->
      <g style="fill: #262626" transform="translate(360.72 324.165036) scale(0.11 -0.11)">
       <use xlink:href="#ArialMT-30"/>
       <use xlink:href="#ArialMT-2e" x="55.615234"/>
       <use xlink:href="#ArialMT-32" x="83.398438"/>
      </g>
     </g>
    </g>
    <g id="ytick_9">
     <g id="line2d_26">
      <path d="M 385.51 257.99483 
L 693.853979 257.99483 
" clip-path="url(#p43beaca630)" style="fill: none; stroke: #ffffff; stroke-linecap: round"/>
     </g>
     <g id="text_28">
      <!-- 0.4 -->
      <g style="fill: #262626" transform="translate(360.72 261.931626) scale(0.11 -0.11)">
       <use xlink:href="#ArialMT-30"/>
       <use xlink:href="#ArialMT-2e" x="55.615234"/>
       <use xlink:href="#ArialMT-34" x="83.398438"/>
      </g>
     </g>
    </g>
    <g id="ytick_10">
     <g id="line2d_27">
      <path d="M 385.51 195.76142 
L 693.853979 195.76142 
" clip-path="url(#p43beaca630)" style="fill: none; stroke: #ffffff; stroke-linecap: round"/>
     </g>
     <g id="text_29">
      <!-- 0.6 -->
      <g style="fill: #262626" transform="translate(360.72 199.698217) scale(0.11 -0.11)">
       <use xlink:href="#ArialMT-30"/>
       <use xlink:href="#ArialMT-2e" x="55.615234"/>
       <use xlink:href="#ArialMT-36" x="83.398438"/>
      </g>
     </g>
    </g>
    <g id="ytick_11">
     <g id="line2d_28">
      <path d="M 385.51 133.528011 
L 693.853979 133.528011 
" clip-path="url(#p43beaca630)" style="fill: none; stroke: #ffffff; stroke-linecap: round"/>
     </g>
     <g id="text_30">
      <!-- 0.8 -->
      <g style="fill: #262626" transform="translate(360.72 137.464808) scale(0.11 -0.11)">
       <use xlink:href="#ArialMT-30"/>
       <use xlink:href="#ArialMT-2e" x="55.615234"/>
       <use xlink:href="#ArialMT-38" x="83.398438"/>
      </g>
     </g>
    </g>
    <g id="ytick_12">
     <g id="line2d_29">
      <path d="M 385.51 71.294602 
L 693.853979 71.294602 
" clip-path="url(#p43beaca630)" style="fill: none; stroke: #ffffff; stroke-linecap: round"/>
     </g>
     <g id="text_31">
      <!-- 1.0 -->
      <g style="fill: #262626" transform="translate(360.72 75.231399) scale(0.11 -0.11)">
       <use xlink:href="#ArialMT-31"/>
       <use xlink:href="#ArialMT-2e" x="55.615234"/>
       <use xlink:href="#ArialMT-30" x="83.398438"/>
      </g>
     </g>
    </g>
   </g>
   <g id="PolyCollection_3"/>
   <g id="line2d_30">
    <path d="M 399.525635 382.461648 
L 439.369884 382.461648 
L 439.650477 382.337056 
L 639.713501 71.419194 
L 639.994095 71.294602 
L 679.838343 71.294602 
L 679.838343 71.294602 
" clip-path="url(#p43beaca630)" style="fill: none; stroke: #0173b2; stroke-width: 1.5; stroke-linecap: round"/>
   </g>
   <g id="LineCollection_2">
    <path d="M 579.726662 382.461648 
L 579.726662 164.644716 
" clip-path="url(#p43beaca630)" style="fill: none; stroke: #0000ff; stroke-width: 1.5"/>
   </g>
   <g id="patch_8">
    <path d="M 385.51 398.02 
L 385.51 55.73625 
" style="fill: none; stroke: #ffffff; stroke-width: 1.25; stroke-linejoin: miter; stroke-linecap: square"/>
   </g>
   <g id="patch_9">
    <path d="M 693.853979 398.02 
L 693.853979 55.73625 
" style="fill: none; stroke: #ffffff; stroke-width: 1.25; stroke-linejoin: miter; stroke-linecap: square"/>
   </g>
   <g id="patch_10">
    <path d="M 385.51 398.02 
L 693.853979 398.02 
" style="fill: none; stroke: #ffffff; stroke-width: 1.25; stroke-linejoin: miter; stroke-linecap: square"/>
   </g>
   <g id="patch_11">
    <path d="M 385.51 55.73625 
L 693.853979 55.73625 
" style="fill: none; stroke: #ffffff; stroke-width: 1.25; stroke-linejoin: miter; stroke-linecap: square"/>
   </g>
   <g id="text_32">
    <!-- $b$ -->
    <g style="fill: #262626" transform="translate(577.146662 391.051023) scale(0.12 -0.12)">
     <use xlink:href="#Cmmi10-62" transform="translate(0 0.609375)"/>
    </g>
   </g>
   <g id="text_33">
    <!-- $(b, F_{U}(b))$ -->
    <g style="fill: #262626" transform="translate(531.126662 161.644716) scale(0.12 -0.12)">
     <defs>
      <path id="Cmmi10-3b" d="M 634 -1153 
Q 634 -1125 659 -1100 
Q 891 -878 1019 -587 
Q 1147 -297 1147 25 
L 1147 103 
Q 1044 0 891 0 
Q 744 0 641 103 
Q 538 206 538 353 
Q 538 503 641 603 
Q 744 703 891 703 
Q 1119 703 1216 492 
Q 1313 281 1313 25 
Q 1313 -331 1170 -651 
Q 1028 -972 769 -1228 
Q 744 -1241 728 -1241 
Q 697 -1241 665 -1212 
Q 634 -1184 634 -1153 
z
" transform="scale(0.015625)"/>
      <path id="Cmmi10-46" d="M 300 0 
Q 238 0 238 84 
Q 241 100 250 139 
Q 259 178 276 201 
Q 294 225 319 225 
Q 709 225 863 269 
Q 947 297 984 441 
L 1863 3956 
Q 1875 4019 1875 4044 
Q 1875 4113 1797 4122 
Q 1678 4147 1338 4147 
Q 1275 4147 1275 4231 
Q 1278 4247 1287 4286 
Q 1297 4325 1314 4348 
Q 1331 4372 1356 4372 
L 4738 4372 
Q 4800 4372 4800 4288 
L 4647 2963 
Q 4647 2944 4625 2925 
Q 4603 2906 4581 2906 
L 4525 2906 
Q 4459 2906 4459 2988 
Q 4500 3278 4500 3463 
Q 4500 3781 4362 3931 
Q 4225 4081 4015 4114 
Q 3806 4147 3438 4147 
L 2753 4147 
Q 2578 4147 2522 4117 
Q 2466 4088 2419 3928 
L 2009 2297 
L 2491 2297 
Q 2728 2297 2875 2322 
Q 3022 2347 3119 2419 
Q 3216 2491 3280 2627 
Q 3344 2763 3397 2988 
Q 3416 3047 3463 3047 
L 3519 3047 
Q 3584 3047 3584 2963 
L 3194 1381 
Q 3166 1325 3128 1325 
L 3072 1325 
Q 3009 1325 3009 1409 
Q 3025 1475 3034 1519 
Q 3044 1563 3058 1645 
Q 3072 1728 3072 1791 
Q 3072 1975 2909 2025 
Q 2747 2075 2484 2075 
L 1959 2075 
L 1544 416 
Q 1528 353 1528 353 
Q 1528 278 1575 269 
Q 1741 225 2228 225 
Q 2291 225 2291 141 
Q 2269 50 2256 25 
Q 2244 0 2181 0 
L 300 0 
z
" transform="scale(0.015625)"/>
     </defs>
     <use xlink:href="#Cmr10-28"/>
     <use xlink:href="#Cmmi10-62" transform="translate(38.818359 0)"/>
     <use xlink:href="#Cmmi10-3b" transform="translate(81.738281 0)"/>
     <use xlink:href="#Cmmi10-46" transform="translate(126.982422 0)"/>
     <use xlink:href="#Cmmi10-55" transform="translate(191.289062 -17.00625) scale(0.7)"/>
     <use xlink:href="#Cmr10-28" transform="translate(245.41543 0)"/>
     <use xlink:href="#Cmmi10-62" transform="translate(284.233789 0)"/>
     <use xlink:href="#Cmr10-29" transform="translate(327.153711 0)"/>
     <use xlink:href="#Cmr10-29" transform="translate(365.97207 0)"/>
    </g>
   </g>
   <g id="text_34">
    <!-- Funzione di ripartizione -->
    <g style="fill: #262626" transform="translate(477.653239 49.73625) scale(0.12 -0.12)">
     <use xlink:href="#ArialMT-46"/>
     <use xlink:href="#ArialMT-75" x="61.083984"/>
     <use xlink:href="#ArialMT-6e" x="116.699219"/>
     <use xlink:href="#ArialMT-7a" x="172.314453"/>
     <use xlink:href="#ArialMT-69" x="222.314453"/>
     <use xlink:href="#ArialMT-6f" x="244.53125"/>
     <use xlink:href="#ArialMT-6e" x="300.146484"/>
     <use xlink:href="#ArialMT-65" x="355.761719"/>
     <use xlink:href="#ArialMT-20" x="411.376953"/>
     <use xlink:href="#ArialMT-64" x="439.160156"/>
     <use xlink:href="#ArialMT-69" x="494.775391"/>
     <use xlink:href="#ArialMT-20" x="516.992188"/>
     <use xlink:href="#ArialMT-72" x="544.775391"/>
     <use xlink:href="#ArialMT-69" x="578.076172"/>
     <use xlink:href="#ArialMT-70" x="600.292969"/>
     <use xlink:href="#ArialMT-61" x="655.908203"/>
     <use xlink:href="#ArialMT-72" x="711.523438"/>
     <use xlink:href="#ArialMT-74" x="744.824219"/>
     <use xlink:href="#ArialMT-69" x="772.607422"/>
     <use xlink:href="#ArialMT-7a" x="794.824219"/>
     <use xlink:href="#ArialMT-69" x="844.824219"/>
     <use xlink:href="#ArialMT-6f" x="867.041016"/>
     <use xlink:href="#ArialMT-6e" x="922.65625"/>
     <use xlink:href="#ArialMT-65" x="978.271484"/>
    </g>
   </g>
  </g>
  <g id="text_35">
   <!-- Distribuzioni di probabilità della variabile casuale $U$ ~ uniform(0,1) -->
   <g style="fill: #262626" transform="translate(145.358 17.712) scale(0.144 -0.144)">
    <defs>
     <path id="ArialMT-44" d="M 494 0 
L 494 4581 
L 2072 4581 
Q 2606 4581 2888 4516 
Q 3281 4425 3559 4188 
Q 3922 3881 4101 3404 
Q 4281 2928 4281 2316 
Q 4281 1794 4159 1391 
Q 4038 988 3847 723 
Q 3656 459 3429 307 
Q 3203 156 2883 78 
Q 2563 0 2147 0 
L 494 0 
z
M 1100 541 
L 2078 541 
Q 2531 541 2789 625 
Q 3047 709 3200 863 
Q 3416 1078 3536 1442 
Q 3656 1806 3656 2325 
Q 3656 3044 3420 3430 
Q 3184 3816 2847 3947 
Q 2603 4041 2063 4041 
L 1100 4041 
L 1100 541 
z
" transform="scale(0.015625)"/>
     <path id="ArialMT-76" d="M 1344 0 
L 81 3319 
L 675 3319 
L 1388 1331 
Q 1503 1009 1600 663 
Q 1675 925 1809 1294 
L 2547 3319 
L 3125 3319 
L 1869 0 
L 1344 0 
z
" transform="scale(0.015625)"/>
     <path id="ArialMT-63" d="M 2588 1216 
L 3141 1144 
Q 3050 572 2676 248 
Q 2303 -75 1759 -75 
Q 1078 -75 664 370 
Q 250 816 250 1647 
Q 250 2184 428 2587 
Q 606 2991 970 3192 
Q 1334 3394 1763 3394 
Q 2303 3394 2647 3120 
Q 2991 2847 3088 2344 
L 2541 2259 
Q 2463 2594 2264 2762 
Q 2066 2931 1784 2931 
Q 1359 2931 1093 2626 
Q 828 2322 828 1663 
Q 828 994 1084 691 
Q 1341 388 1753 388 
Q 2084 388 2306 591 
Q 2528 794 2588 1216 
z
" transform="scale(0.015625)"/>
     <path id="ArialMT-7e" d="M 272 1741 
L 272 2381 
Q 603 2756 1141 2756 
Q 1328 2756 1534 2701 
Q 1741 2647 2122 2484 
Q 2338 2394 2445 2366 
Q 2553 2338 2663 2338 
Q 2866 2338 3083 2459 
Q 3300 2581 3469 2766 
L 3469 2103 
Q 3269 1916 3064 1831 
Q 2859 1747 2603 1747 
Q 2416 1747 2245 1790 
Q 2075 1834 1704 2000 
Q 1334 2166 1088 2166 
Q 888 2166 711 2080 
Q 534 1994 272 1741 
z
" transform="scale(0.015625)"/>
     <path id="ArialMT-66" d="M 556 0 
L 556 2881 
L 59 2881 
L 59 3319 
L 556 3319 
L 556 3672 
Q 556 4006 616 4169 
Q 697 4388 901 4523 
Q 1106 4659 1475 4659 
Q 1713 4659 2000 4603 
L 1916 4113 
Q 1741 4144 1584 4144 
Q 1328 4144 1222 4034 
Q 1116 3925 1116 3625 
L 1116 3319 
L 1763 3319 
L 1763 2881 
L 1116 2881 
L 1116 0 
L 556 0 
z
" transform="scale(0.015625)"/>
     <path id="ArialMT-6d" d="M 422 0 
L 422 3319 
L 925 3319 
L 925 2853 
Q 1081 3097 1340 3245 
Q 1600 3394 1931 3394 
Q 2300 3394 2536 3241 
Q 2772 3088 2869 2813 
Q 3263 3394 3894 3394 
Q 4388 3394 4653 3120 
Q 4919 2847 4919 2278 
L 4919 0 
L 4359 0 
L 4359 2091 
Q 4359 2428 4304 2576 
Q 4250 2725 4106 2815 
Q 3963 2906 3769 2906 
Q 3419 2906 3187 2673 
Q 2956 2441 2956 1928 
L 2956 0 
L 2394 0 
L 2394 2156 
Q 2394 2531 2256 2718 
Q 2119 2906 1806 2906 
Q 1569 2906 1367 2781 
Q 1166 2656 1075 2415 
Q 984 2175 984 1722 
L 984 0 
L 422 0 
z
" transform="scale(0.015625)"/>
     <path id="ArialMT-28" d="M 1497 -1347 
Q 1031 -759 709 28 
Q 388 816 388 1659 
Q 388 2403 628 3084 
Q 909 3875 1497 4659 
L 1900 4659 
Q 1522 4009 1400 3731 
Q 1209 3300 1100 2831 
Q 966 2247 966 1656 
Q 966 153 1900 -1347 
L 1497 -1347 
z
" transform="scale(0.015625)"/>
     <path id="ArialMT-2c" d="M 569 0 
L 569 641 
L 1209 641 
L 1209 0 
Q 1209 -353 1084 -570 
Q 959 -788 688 -906 
L 531 -666 
Q 709 -588 793 -436 
Q 878 -284 888 0 
L 569 0 
z
" transform="scale(0.015625)"/>
     <path id="ArialMT-29" d="M 791 -1347 
L 388 -1347 
Q 1322 153 1322 1656 
Q 1322 2244 1188 2822 
Q 1081 3291 891 3722 
Q 769 4003 388 4659 
L 791 4659 
Q 1378 3875 1659 3084 
Q 1900 2403 1900 1659 
Q 1900 816 1576 28 
Q 1253 -759 791 -1347 
z
" transform="scale(0.015625)"/>
    </defs>
    <use xlink:href="#ArialMT-44" transform="translate(0 0.203125)"/>
    <use xlink:href="#ArialMT-69" transform="translate(72.216797 0.203125)"/>
    <use xlink:href="#ArialMT-73" transform="translate(94.433594 0.203125)"/>
    <use xlink:href="#ArialMT-74" transform="translate(144.433594 0.203125)"/>
    <use xlink:href="#ArialMT-72" transform="translate(172.216797 0.203125)"/>
    <use xlink:href="#ArialMT-69" transform="translate(205.517578 0.203125)"/>
    <use xlink:href="#ArialMT-62" transform="translate(227.734375 0.203125)"/>
    <use xlink:href="#ArialMT-75" transform="translate(283.349609 0.203125)"/>
    <use xlink:href="#ArialMT-7a" transform="translate(338.964844 0.203125)"/>
    <use xlink:href="#ArialMT-69" transform="translate(388.964844 0.203125)"/>
    <use xlink:href="#ArialMT-6f" transform="translate(411.181641 0.203125)"/>
    <use xlink:href="#ArialMT-6e" transform="translate(466.796875 0.203125)"/>
    <use xlink:href="#ArialMT-69" transform="translate(522.412109 0.203125)"/>
    <use xlink:href="#ArialMT-20" transform="translate(544.628906 0.203125)"/>
    <use xlink:href="#ArialMT-64" transform="translate(572.412109 0.203125)"/>
    <use xlink:href="#ArialMT-69" transform="translate(628.027344 0.203125)"/>
    <use xlink:href="#ArialMT-20" transform="translate(650.244141 0.203125)"/>
    <use xlink:href="#ArialMT-70" transform="translate(678.027344 0.203125)"/>
    <use xlink:href="#ArialMT-72" transform="translate(733.642578 0.203125)"/>
    <use xlink:href="#ArialMT-6f" transform="translate(766.943359 0.203125)"/>
    <use xlink:href="#ArialMT-62" transform="translate(822.558594 0.203125)"/>
    <use xlink:href="#ArialMT-61" transform="translate(878.173828 0.203125)"/>
    <use xlink:href="#ArialMT-62" transform="translate(933.789062 0.203125)"/>
    <use xlink:href="#ArialMT-69" transform="translate(989.404297 0.203125)"/>
    <use xlink:href="#ArialMT-6c" transform="translate(1011.621094 0.203125)"/>
    <use xlink:href="#ArialMT-69" transform="translate(1033.837891 0.203125)"/>
    <use xlink:href="#ArialMT-74" transform="translate(1056.054688 0.203125)"/>
    <use xlink:href="#ArialMT-e0" transform="translate(1083.837891 0.203125)"/>
    <use xlink:href="#ArialMT-20" transform="translate(1139.453125 0.203125)"/>
    <use xlink:href="#ArialMT-64" transform="translate(1167.236328 0.203125)"/>
    <use xlink:href="#ArialMT-65" transform="translate(1222.851562 0.203125)"/>
    <use xlink:href="#ArialMT-6c" transform="translate(1278.466797 0.203125)"/>
    <use xlink:href="#ArialMT-6c" transform="translate(1300.683594 0.203125)"/>
    <use xlink:href="#ArialMT-61" transform="translate(1322.900391 0.203125)"/>
    <use xlink:href="#ArialMT-20" transform="translate(1378.515625 0.203125)"/>
    <use xlink:href="#ArialMT-76" transform="translate(1406.298828 0.203125)"/>
    <use xlink:href="#ArialMT-61" transform="translate(1456.298828 0.203125)"/>
    <use xlink:href="#ArialMT-72" transform="translate(1511.914062 0.203125)"/>
    <use xlink:href="#ArialMT-69" transform="translate(1545.214844 0.203125)"/>
    <use xlink:href="#ArialMT-61" transform="translate(1567.431641 0.203125)"/>
    <use xlink:href="#ArialMT-62" transform="translate(1623.046875 0.203125)"/>
    <use xlink:href="#ArialMT-69" transform="translate(1678.662109 0.203125)"/>
    <use xlink:href="#ArialMT-6c" transform="translate(1700.878906 0.203125)"/>
    <use xlink:href="#ArialMT-65" transform="translate(1723.095703 0.203125)"/>
    <use xlink:href="#ArialMT-20" transform="translate(1778.710938 0.203125)"/>
    <use xlink:href="#ArialMT-63" transform="translate(1806.494141 0.203125)"/>
    <use xlink:href="#ArialMT-61" transform="translate(1856.494141 0.203125)"/>
    <use xlink:href="#ArialMT-73" transform="translate(1912.109375 0.203125)"/>
    <use xlink:href="#ArialMT-75" transform="translate(1962.109375 0.203125)"/>
    <use xlink:href="#ArialMT-61" transform="translate(2017.724609 0.203125)"/>
    <use xlink:href="#ArialMT-6c" transform="translate(2073.339844 0.203125)"/>
    <use xlink:href="#ArialMT-65" transform="translate(2095.556641 0.203125)"/>
    <use xlink:href="#ArialMT-20" transform="translate(2151.171875 0.203125)"/>
    <use xlink:href="#Cmmi10-55" transform="translate(2178.955078 0.203125)"/>
    <use xlink:href="#ArialMT-20" transform="translate(2247.167969 0.203125)"/>
    <use xlink:href="#ArialMT-7e" transform="translate(2274.951172 0.203125)"/>
    <use xlink:href="#ArialMT-20" transform="translate(2333.349609 0.203125)"/>
    <use xlink:href="#ArialMT-75" transform="translate(2361.132812 0.203125)"/>
    <use xlink:href="#ArialMT-6e" transform="translate(2416.748047 0.203125)"/>
    <use xlink:href="#ArialMT-69" transform="translate(2472.363281 0.203125)"/>
    <use xlink:href="#ArialMT-66" transform="translate(2494.580078 0.203125)"/>
    <use xlink:href="#ArialMT-6f" transform="translate(2522.363281 0.203125)"/>
    <use xlink:href="#ArialMT-72" transform="translate(2577.978516 0.203125)"/>
    <use xlink:href="#ArialMT-6d" transform="translate(2611.279297 0.203125)"/>
    <use xlink:href="#ArialMT-28" transform="translate(2694.580078 0.203125)"/>
    <use xlink:href="#ArialMT-30" transform="translate(2727.880859 0.203125)"/>
    <use xlink:href="#ArialMT-2c" transform="translate(2783.496094 0.203125)"/>
    <use xlink:href="#ArialMT-31" transform="translate(2811.279297 0.203125)"/>
    <use xlink:href="#ArialMT-29" transform="translate(2866.894531 0.203125)"/>
   </g>
  </g>
 </g>
 <defs>
  <clipPath id="pefcfdb6d32">
   <rect x="31.99" y="55.73625" width="308.343979" height="342.28375"/>
  </clipPath>
  <clipPath id="p43beaca630">
   <rect x="385.51" y="55.73625" width="308.343979" height="342.28375"/>
  </clipPath>
 </defs>
</svg>