<?xml version="1.0" encoding="utf-8" standalone="no"?>
<!DOCTYPE svg PUBLIC "-//W3C//DTD SVG 1.1//EN"
  "http://www.w3.org/Graphics/SVG/1.1/DTD/svg11.dtd">
<svg xmlns:xlink="http://www.w3.org/1999/xlink" width="618.568281pt" height="381.574219pt" viewBox="0 0 618.568281 381.574219" xmlns="http://www.w3.org/2000/svg" version="1.1">
 <metadata>
  <rdf:RDF xmlns:dc="http://purl.org/dc/elements/1.1/" xmlns:cc="http://creativecommons.org/ns#" xmlns:rdf="http://www.w3.org/1999/02/22-rdf-syntax-ns#">
   <cc:Work>
    <dc:type rdf:resource="http://purl.org/dc/dcmitype/StillImage"/>
    <dc:date>2023-05-08T00:39:52.752766</dc:date>
    <dc:format>image/svg+xml</dc:format>
    <dc:creator>
     <cc:Agent>
      <dc:title>Matplotlib v3.7.1, https://matplotlib.org/</dc:title>
     </cc:Agent>
    </dc:creator>
   </cc:Work>
  </rdf:RDF>
 </metadata>
 <defs>
  <style type="text/css">*{stroke-linejoin: round; stroke-linecap: butt}</style>
 </defs>
 <g id="figure_1">
  <g id="patch_1">
   <path d="M 0 381.574219 
L 618.568281 381.574219 
L 618.568281 0 
L 0 0 
z
" style="fill: #ffffff"/>
  </g>
  <g id="axes_1">
   <g id="patch_2">
    <path d="M 53.368281 339.84 
L 611.368281 339.84 
L 611.368281 7.2 
L 53.368281 7.2 
z
" style="fill: #eaeaf2"/>
   </g>
   <g id="matplotlib.axis_1">
    <g id="xtick_1">
     <g id="line2d_1">
      <path d="M 78.731918 339.84 
L 78.731918 7.2 
" clip-path="url(#p5ebca403f4)" style="fill: none; stroke: #ffffff; stroke-linecap: round"/>
     </g>
     <g id="text_1">
      <!-- 0.0 -->
      <g style="fill: #262626" transform="translate(71.086918 357.213594) scale(0.11 -0.11)">
       <defs>
        <path id="ArialMT-30" d="M 266 2259 
Q 266 3072 433 3567 
Q 600 4063 929 4331 
Q 1259 4600 1759 4600 
Q 2128 4600 2406 4451 
Q 2684 4303 2865 4023 
Q 3047 3744 3150 3342 
Q 3253 2941 3253 2259 
Q 3253 1453 3087 958 
Q 2922 463 2592 192 
Q 2263 -78 1759 -78 
Q 1097 -78 719 397 
Q 266 969 266 2259 
z
M 844 2259 
Q 844 1131 1108 757 
Q 1372 384 1759 384 
Q 2147 384 2411 759 
Q 2675 1134 2675 2259 
Q 2675 3391 2411 3762 
Q 2147 4134 1753 4134 
Q 1366 4134 1134 3806 
Q 844 3388 844 2259 
z
" transform="scale(0.015625)"/>
        <path id="ArialMT-2e" d="M 581 0 
L 581 641 
L 1222 641 
L 1222 0 
L 581 0 
z
" transform="scale(0.015625)"/>
       </defs>
       <use xlink:href="#ArialMT-30"/>
       <use xlink:href="#ArialMT-2e" x="55.615234"/>
       <use xlink:href="#ArialMT-30" x="83.398438"/>
      </g>
     </g>
    </g>
    <g id="xtick_2">
     <g id="line2d_2">
      <path d="M 163.277372 339.84 
L 163.277372 7.2 
" clip-path="url(#p5ebca403f4)" style="fill: none; stroke: #ffffff; stroke-linecap: round"/>
     </g>
     <g id="text_2">
      <!-- 0.5 -->
      <g style="fill: #262626" transform="translate(155.632372 357.213594) scale(0.11 -0.11)">
       <defs>
        <path id="ArialMT-35" d="M 266 1200 
L 856 1250 
Q 922 819 1161 601 
Q 1400 384 1738 384 
Q 2144 384 2425 690 
Q 2706 997 2706 1503 
Q 2706 1984 2436 2262 
Q 2166 2541 1728 2541 
Q 1456 2541 1237 2417 
Q 1019 2294 894 2097 
L 366 2166 
L 809 4519 
L 3088 4519 
L 3088 3981 
L 1259 3981 
L 1013 2750 
Q 1425 3038 1878 3038 
Q 2478 3038 2890 2622 
Q 3303 2206 3303 1553 
Q 3303 931 2941 478 
Q 2500 -78 1738 -78 
Q 1113 -78 717 272 
Q 322 622 266 1200 
z
" transform="scale(0.015625)"/>
       </defs>
       <use xlink:href="#ArialMT-30"/>
       <use xlink:href="#ArialMT-2e" x="55.615234"/>
       <use xlink:href="#ArialMT-35" x="83.398438"/>
      </g>
     </g>
    </g>
    <g id="xtick_3">
     <g id="line2d_3">
      <path d="M 247.822827 339.84 
L 247.822827 7.2 
" clip-path="url(#p5ebca403f4)" style="fill: none; stroke: #ffffff; stroke-linecap: round"/>
     </g>
     <g id="text_3">
      <!-- 1.0 -->
      <g style="fill: #262626" transform="translate(240.177827 357.213594) scale(0.11 -0.11)">
       <defs>
        <path id="ArialMT-31" d="M 2384 0 
L 1822 0 
L 1822 3584 
Q 1619 3391 1289 3197 
Q 959 3003 697 2906 
L 697 3450 
Q 1169 3672 1522 3987 
Q 1875 4303 2022 4600 
L 2384 4600 
L 2384 0 
z
" transform="scale(0.015625)"/>
       </defs>
       <use xlink:href="#ArialMT-31"/>
       <use xlink:href="#ArialMT-2e" x="55.615234"/>
       <use xlink:href="#ArialMT-30" x="83.398438"/>
      </g>
     </g>
    </g>
    <g id="xtick_4">
     <g id="line2d_4">
      <path d="M 332.368281 339.84 
L 332.368281 7.2 
" clip-path="url(#p5ebca403f4)" style="fill: none; stroke: #ffffff; stroke-linecap: round"/>
     </g>
     <g id="text_4">
      <!-- 1.5 -->
      <g style="fill: #262626" transform="translate(324.723281 357.213594) scale(0.11 -0.11)">
       <use xlink:href="#ArialMT-31"/>
       <use xlink:href="#ArialMT-2e" x="55.615234"/>
       <use xlink:href="#ArialMT-35" x="83.398438"/>
      </g>
     </g>
    </g>
    <g id="xtick_5">
     <g id="line2d_5">
      <path d="M 416.913736 339.84 
L 416.913736 7.2 
" clip-path="url(#p5ebca403f4)" style="fill: none; stroke: #ffffff; stroke-linecap: round"/>
     </g>
     <g id="text_5">
      <!-- 2.0 -->
      <g style="fill: #262626" transform="translate(409.268736 357.213594) scale(0.11 -0.11)">
       <defs>
        <path id="ArialMT-32" d="M 3222 541 
L 3222 0 
L 194 0 
Q 188 203 259 391 
Q 375 700 629 1000 
Q 884 1300 1366 1694 
Q 2113 2306 2375 2664 
Q 2638 3022 2638 3341 
Q 2638 3675 2398 3904 
Q 2159 4134 1775 4134 
Q 1369 4134 1125 3890 
Q 881 3647 878 3216 
L 300 3275 
Q 359 3922 746 4261 
Q 1134 4600 1788 4600 
Q 2447 4600 2831 4234 
Q 3216 3869 3216 3328 
Q 3216 3053 3103 2787 
Q 2991 2522 2730 2228 
Q 2469 1934 1863 1422 
Q 1356 997 1212 845 
Q 1069 694 975 541 
L 3222 541 
z
" transform="scale(0.015625)"/>
       </defs>
       <use xlink:href="#ArialMT-32"/>
       <use xlink:href="#ArialMT-2e" x="55.615234"/>
       <use xlink:href="#ArialMT-30" x="83.398438"/>
      </g>
     </g>
    </g>
    <g id="xtick_6">
     <g id="line2d_6">
      <path d="M 501.45919 339.84 
L 501.45919 7.2 
" clip-path="url(#p5ebca403f4)" style="fill: none; stroke: #ffffff; stroke-linecap: round"/>
     </g>
     <g id="text_6">
      <!-- 2.5 -->
      <g style="fill: #262626" transform="translate(493.81419 357.213594) scale(0.11 -0.11)">
       <use xlink:href="#ArialMT-32"/>
       <use xlink:href="#ArialMT-2e" x="55.615234"/>
       <use xlink:href="#ArialMT-35" x="83.398438"/>
      </g>
     </g>
    </g>
    <g id="xtick_7">
     <g id="line2d_7">
      <path d="M 586.004645 339.84 
L 586.004645 7.2 
" clip-path="url(#p5ebca403f4)" style="fill: none; stroke: #ffffff; stroke-linecap: round"/>
     </g>
     <g id="text_7">
      <!-- 3.0 -->
      <g style="fill: #262626" transform="translate(578.359645 357.213594) scale(0.11 -0.11)">
       <defs>
        <path id="ArialMT-33" d="M 269 1209 
L 831 1284 
Q 928 806 1161 595 
Q 1394 384 1728 384 
Q 2125 384 2398 659 
Q 2672 934 2672 1341 
Q 2672 1728 2419 1979 
Q 2166 2231 1775 2231 
Q 1616 2231 1378 2169 
L 1441 2663 
Q 1497 2656 1531 2656 
Q 1891 2656 2178 2843 
Q 2466 3031 2466 3422 
Q 2466 3731 2256 3934 
Q 2047 4138 1716 4138 
Q 1388 4138 1169 3931 
Q 950 3725 888 3313 
L 325 3413 
Q 428 3978 793 4289 
Q 1159 4600 1703 4600 
Q 2078 4600 2393 4439 
Q 2709 4278 2876 4000 
Q 3044 3722 3044 3409 
Q 3044 3113 2884 2869 
Q 2725 2625 2413 2481 
Q 2819 2388 3044 2092 
Q 3269 1797 3269 1353 
Q 3269 753 2831 336 
Q 2394 -81 1725 -81 
Q 1122 -81 723 278 
Q 325 638 269 1209 
z
" transform="scale(0.015625)"/>
       </defs>
       <use xlink:href="#ArialMT-33"/>
       <use xlink:href="#ArialMT-2e" x="55.615234"/>
       <use xlink:href="#ArialMT-30" x="83.398438"/>
      </g>
     </g>
    </g>
    <g id="text_8">
     <!-- x -->
     <g style="fill: #262626" transform="translate(329.368281 371.989219) scale(0.12 -0.12)">
      <defs>
       <path id="ArialMT-78" d="M 47 0 
L 1259 1725 
L 138 3319 
L 841 3319 
L 1350 2541 
Q 1494 2319 1581 2169 
Q 1719 2375 1834 2534 
L 2394 3319 
L 3066 3319 
L 1919 1756 
L 3153 0 
L 2463 0 
L 1781 1031 
L 1600 1309 
L 728 0 
L 47 0 
z
" transform="scale(0.015625)"/>
      </defs>
      <use xlink:href="#ArialMT-78"/>
     </g>
    </g>
   </g>
   <g id="matplotlib.axis_2">
    <g id="ytick_1">
     <g id="line2d_8">
      <path d="M 53.368281 324.72 
L 611.368281 324.72 
" clip-path="url(#p5ebca403f4)" style="fill: none; stroke: #ffffff; stroke-linecap: round"/>
     </g>
     <g id="text_9">
      <!-- 0.00 -->
      <g style="fill: #262626" transform="translate(22.46125 328.656797) scale(0.11 -0.11)">
       <use xlink:href="#ArialMT-30"/>
       <use xlink:href="#ArialMT-2e" x="55.615234"/>
       <use xlink:href="#ArialMT-30" x="83.398438"/>
       <use xlink:href="#ArialMT-30" x="139.013672"/>
      </g>
     </g>
    </g>
    <g id="ytick_2">
     <g id="line2d_9">
      <path d="M 53.368281 278.802309 
L 611.368281 278.802309 
" clip-path="url(#p5ebca403f4)" style="fill: none; stroke: #ffffff; stroke-linecap: round"/>
     </g>
     <g id="text_10">
      <!-- 0.25 -->
      <g style="fill: #262626" transform="translate(22.46125 282.739106) scale(0.11 -0.11)">
       <use xlink:href="#ArialMT-30"/>
       <use xlink:href="#ArialMT-2e" x="55.615234"/>
       <use xlink:href="#ArialMT-32" x="83.398438"/>
       <use xlink:href="#ArialMT-35" x="139.013672"/>
      </g>
     </g>
    </g>
    <g id="ytick_3">
     <g id="line2d_10">
      <path d="M 53.368281 232.884619 
L 611.368281 232.884619 
" clip-path="url(#p5ebca403f4)" style="fill: none; stroke: #ffffff; stroke-linecap: round"/>
     </g>
     <g id="text_11">
      <!-- 0.50 -->
      <g style="fill: #262626" transform="translate(22.46125 236.821416) scale(0.11 -0.11)">
       <use xlink:href="#ArialMT-30"/>
       <use xlink:href="#ArialMT-2e" x="55.615234"/>
       <use xlink:href="#ArialMT-35" x="83.398438"/>
       <use xlink:href="#ArialMT-30" x="139.013672"/>
      </g>
     </g>
    </g>
    <g id="ytick_4">
     <g id="line2d_11">
      <path d="M 53.368281 186.966928 
L 611.368281 186.966928 
" clip-path="url(#p5ebca403f4)" style="fill: none; stroke: #ffffff; stroke-linecap: round"/>
     </g>
     <g id="text_12">
      <!-- 0.75 -->
      <g style="fill: #262626" transform="translate(22.46125 190.903725) scale(0.11 -0.11)">
       <defs>
        <path id="ArialMT-37" d="M 303 3981 
L 303 4522 
L 3269 4522 
L 3269 4084 
Q 2831 3619 2401 2847 
Q 1972 2075 1738 1259 
Q 1569 684 1522 0 
L 944 0 
Q 953 541 1156 1306 
Q 1359 2072 1739 2783 
Q 2119 3494 2547 3981 
L 303 3981 
z
" transform="scale(0.015625)"/>
       </defs>
       <use xlink:href="#ArialMT-30"/>
       <use xlink:href="#ArialMT-2e" x="55.615234"/>
       <use xlink:href="#ArialMT-37" x="83.398438"/>
       <use xlink:href="#ArialMT-35" x="139.013672"/>
      </g>
     </g>
    </g>
    <g id="ytick_5">
     <g id="line2d_12">
      <path d="M 53.368281 141.049238 
L 611.368281 141.049238 
" clip-path="url(#p5ebca403f4)" style="fill: none; stroke: #ffffff; stroke-linecap: round"/>
     </g>
     <g id="text_13">
      <!-- 1.00 -->
      <g style="fill: #262626" transform="translate(22.46125 144.986035) scale(0.11 -0.11)">
       <use xlink:href="#ArialMT-31"/>
       <use xlink:href="#ArialMT-2e" x="55.615234"/>
       <use xlink:href="#ArialMT-30" x="83.398438"/>
       <use xlink:href="#ArialMT-30" x="139.013672"/>
      </g>
     </g>
    </g>
    <g id="ytick_6">
     <g id="line2d_13">
      <path d="M 53.368281 95.131547 
L 611.368281 95.131547 
" clip-path="url(#p5ebca403f4)" style="fill: none; stroke: #ffffff; stroke-linecap: round"/>
     </g>
     <g id="text_14">
      <!-- 1.25 -->
      <g style="fill: #262626" transform="translate(22.46125 99.068344) scale(0.11 -0.11)">
       <use xlink:href="#ArialMT-31"/>
       <use xlink:href="#ArialMT-2e" x="55.615234"/>
       <use xlink:href="#ArialMT-32" x="83.398438"/>
       <use xlink:href="#ArialMT-35" x="139.013672"/>
      </g>
     </g>
    </g>
    <g id="ytick_7">
     <g id="line2d_14">
      <path d="M 53.368281 49.213856 
L 611.368281 49.213856 
" clip-path="url(#p5ebca403f4)" style="fill: none; stroke: #ffffff; stroke-linecap: round"/>
     </g>
     <g id="text_15">
      <!-- 1.50 -->
      <g style="fill: #262626" transform="translate(22.46125 53.150653) scale(0.11 -0.11)">
       <use xlink:href="#ArialMT-31"/>
       <use xlink:href="#ArialMT-2e" x="55.615234"/>
       <use xlink:href="#ArialMT-35" x="83.398438"/>
       <use xlink:href="#ArialMT-30" x="139.013672"/>
      </g>
     </g>
    </g>
    <g id="text_16">
     <!-- f(x) -->
     <g style="fill: #262626" transform="translate(15.935625 182.1825) rotate(-90) scale(0.12 -0.12)">
      <defs>
       <path id="ArialMT-66" d="M 556 0 
L 556 2881 
L 59 2881 
L 59 3319 
L 556 3319 
L 556 3672 
Q 556 4006 616 4169 
Q 697 4388 901 4523 
Q 1106 4659 1475 4659 
Q 1713 4659 2000 4603 
L 1916 4113 
Q 1741 4144 1584 4144 
Q 1328 4144 1222 4034 
Q 1116 3925 1116 3625 
L 1116 3319 
L 1763 3319 
L 1763 2881 
L 1116 2881 
L 1116 0 
L 556 0 
z
" transform="scale(0.015625)"/>
       <path id="ArialMT-28" d="M 1497 -1347 
Q 1031 -759 709 28 
Q 388 816 388 1659 
Q 388 2403 628 3084 
Q 909 3875 1497 4659 
L 1900 4659 
Q 1522 4009 1400 3731 
Q 1209 3300 1100 2831 
Q 966 2247 966 1656 
Q 966 153 1900 -1347 
L 1497 -1347 
z
" transform="scale(0.015625)"/>
       <path id="ArialMT-29" d="M 791 -1347 
L 388 -1347 
Q 1322 153 1322 1656 
Q 1322 2244 1188 2822 
Q 1081 3291 891 3722 
Q 769 4003 388 4659 
L 791 4659 
Q 1378 3875 1659 3084 
Q 1900 2403 1900 1659 
Q 1900 816 1576 28 
Q 1253 -759 791 -1347 
z
" transform="scale(0.015625)"/>
      </defs>
      <use xlink:href="#ArialMT-66"/>
      <use xlink:href="#ArialMT-28" x="27.783203"/>
      <use xlink:href="#ArialMT-78" x="61.083984"/>
      <use xlink:href="#ArialMT-29" x="111.083984"/>
     </g>
    </g>
   </g>
   <g id="line2d_15">
    <path d="M 78.731918 324.72 
L 83.855885 324.72 
L 88.979851 324.72 
L 94.103818 324.72 
L 99.227785 324.72 
L 104.351752 324.72 
L 109.475719 324.72 
L 114.599686 324.719994 
L 119.723653 324.719872 
L 124.84762 324.718534 
L 129.971587 324.709211 
L 135.095554 324.663667 
L 140.219521 324.495659 
L 145.343488 324.001325 
L 150.467455 322.792577 
L 155.591422 320.257818 
L 160.715389 315.586476 
L 165.839356 307.873867 
L 170.963323 296.29038 
L 176.08729 280.271489 
L 181.211256 259.675684 
L 186.335223 234.868226 
L 191.45919 206.712271 
L 196.583157 176.474615 
L 201.707124 145.672318 
L 206.831091 115.894842 
L 211.955058 88.634709 
L 217.079025 65.151271 
L 222.202992 46.38101 
L 227.326959 32.897131 
L 232.450926 24.913105 
L 237.574893 22.32 
L 242.69886 24.745597 
L 247.822827 31.623869 
L 252.946794 42.265327 
L 258.070761 55.92137 
L 263.194728 71.83839 
L 268.318694 89.29969 
L 273.442661 107.655036 
L 278.566628 126.338881 
L 283.690595 144.878988 
L 288.814562 162.897485 
L 293.938529 180.106381 
L 299.062496 196.299388 
L 304.186463 211.341614 
L 309.31043 225.158347 
L 314.434397 237.723861 
L 319.558364 249.050862 
L 324.682331 259.180976 
L 329.806298 268.176479 
L 334.930265 276.113341 
L 340.054232 283.075555 
L 345.178199 289.150636 
L 350.302166 294.42619 
L 355.426132 298.98738 
L 360.550099 302.915149 
L 365.674066 306.285063 
L 370.798033 309.166639 
L 375.922 311.623046 
L 381.045967 313.71109 
L 386.169934 315.481394 
L 391.293901 316.978723 
L 396.417868 318.242386 
L 401.541835 319.306694 
L 406.665802 320.201435 
L 411.789769 320.952341 
L 416.913736 321.581549 
L 422.037703 322.108024 
L 427.16167 322.54796 
L 432.285637 322.915138 
L 437.409604 323.221253 
L 442.533571 323.476204 
L 447.657537 323.688346 
L 452.781504 323.864721 
L 457.905471 324.011248 
L 463.029438 324.132895 
L 468.153405 324.233825 
L 473.277372 324.317519 
L 478.401339 324.386886 
L 483.525306 324.444354 
L 488.649273 324.491946 
L 493.77324 324.531345 
L 498.897207 324.563952 
L 504.021174 324.590932 
L 509.145141 324.613251 
L 514.269108 324.631712 
L 519.393075 324.646978 
L 524.517042 324.659602 
L 529.641009 324.67004 
L 534.764975 324.678671 
L 539.888942 324.685807 
L 545.012909 324.691707 
L 550.136876 324.696585 
L 555.260843 324.700619 
L 560.38481 324.703956 
L 565.508777 324.706715 
L 570.632744 324.708997 
L 575.756711 324.710885 
L 580.880678 324.712448 
L 586.004645 324.713741 
" clip-path="url(#p5ebca403f4)" style="fill: none; stroke: #0173b2; stroke-width: 1.5; stroke-linecap: round"/>
   </g>
   <g id="line2d_16">
    <path d="M 78.731918 324.72 
L 83.855885 324.72 
L 88.979851 324.719639 
L 94.103818 324.703667 
L 99.227785 324.556089 
L 104.351752 323.93936 
L 109.475719 322.309656 
L 114.599686 319.083596 
L 119.723653 313.8254 
L 124.84762 306.35652 
L 129.971587 296.771201 
L 135.095554 285.386844 
L 140.219521 272.666004 
L 145.343488 259.137408 
L 150.467455 245.330835 
L 155.591422 231.731037 
L 160.715389 218.750074 
L 165.839356 206.714734 
L 170.963323 195.864961 
L 176.08729 186.359498 
L 181.211256 178.285683 
L 186.335223 171.671099 
L 191.45919 166.495538 
L 196.583157 162.702308 
L 201.707124 160.208309 
L 206.831091 158.912672 
L 211.955058 158.703886 
L 217.079025 159.465501 
L 222.202992 161.08055 
L 227.326959 163.43486 
L 232.450926 166.419427 
L 237.574893 169.932032 
L 242.69886 173.878241 
L 247.822827 178.171934 
L 252.946794 182.73547 
L 258.070761 187.499577 
L 263.194728 192.403057 
L 268.318694 197.392353 
L 273.442661 202.421041 
L 278.566628 207.449264 
L 283.690595 212.443151 
L 288.814562 217.374247 
L 293.938529 222.218941 
L 299.062496 226.957935 
L 304.186463 231.575743 
L 309.31043 236.060217 
L 314.434397 240.402127 
L 319.558364 244.594763 
L 324.682331 248.633591 
L 329.806298 252.51593 
L 334.930265 256.240676 
L 340.054232 259.808049 
L 345.178199 263.219373 
L 350.302166 266.476885 
L 355.426132 269.583562 
L 360.550099 272.542978 
L 365.674066 275.359174 
L 370.798033 278.03655 
L 375.922 280.579769 
L 381.045967 282.993679 
L 386.169934 285.283243 
L 391.293901 287.453483 
L 396.417868 289.509432 
L 401.541835 291.456093 
L 406.665802 293.298409 
L 411.789769 295.04123 
L 416.913736 296.689302 
L 422.037703 298.247241 
L 427.16167 299.719523 
L 432.285637 301.110478 
L 437.409604 302.424278 
L 442.533571 303.664936 
L 447.657537 304.836303 
L 452.781504 305.942067 
L 457.905471 306.985753 
L 463.029438 307.970728 
L 468.153405 308.900199 
L 473.277372 309.777219 
L 478.401339 310.604694 
L 483.525306 311.38538 
L 488.649273 312.121896 
L 493.77324 312.816724 
L 498.897207 313.472216 
L 504.021174 314.090598 
L 509.145141 314.673978 
L 514.269108 315.224348 
L 519.393075 315.743592 
L 524.517042 316.233488 
L 529.641009 316.695718 
L 534.764975 317.131867 
L 539.888942 317.543433 
L 545.012909 317.931827 
L 550.136876 318.298382 
L 555.260843 318.644353 
L 560.38481 318.970923 
L 565.508777 319.27921 
L 570.632744 319.570263 
L 575.756711 319.845074 
L 580.880678 320.104577 
L 586.004645 320.349649 
" clip-path="url(#p5ebca403f4)" style="fill: none; stroke: #de8f05; stroke-width: 1.5; stroke-linecap: round"/>
   </g>
   <g id="line2d_17">
    <path d="M 78.731918 324.72 
L 83.855885 319.365532 
L 88.979851 300.956472 
L 94.103818 279.245547 
L 99.227785 259.489992 
L 104.351752 243.207205 
L 109.475719 230.47749 
L 114.599686 220.903229 
L 119.723653 213.974558 
L 124.84762 209.202604 
L 129.971587 206.161878 
L 135.095554 204.497512 
L 140.219521 203.919673 
L 145.343488 204.194163 
L 150.467455 205.132769 
L 155.591422 206.584633 
L 160.715389 208.428975 
L 165.839356 210.569141 
L 170.963323 212.927801 
L 176.08729 215.443102 
L 181.211256 218.065608 
L 186.335223 220.755849 
L 191.45919 223.482381 
L 196.583157 226.22022 
L 201.707124 228.949603 
L 206.831091 231.654985 
L 211.955058 234.324237 
L 217.079025 236.947993 
L 222.202992 239.519135 
L 227.326959 242.032356 
L 232.450926 244.483827 
L 237.574893 246.870907 
L 242.69886 249.191921 
L 247.822827 251.445967 
L 252.946794 253.632769 
L 258.070761 255.752548 
L 263.194728 257.805919 
L 268.318694 259.793811 
L 273.442661 261.717393 
L 278.566628 263.578022 
L 283.690595 265.377193 
L 288.814562 267.116503 
L 293.938529 268.79762 
L 299.062496 270.422257 
L 304.186463 271.992153 
L 309.31043 273.509053 
L 314.434397 274.974699 
L 319.558364 276.390816 
L 324.682331 277.759104 
L 329.806298 279.081235 
L 334.930265 280.358841 
L 340.054232 281.593515 
L 345.178199 282.78681 
L 350.302166 283.94023 
L 355.426132 285.055235 
L 360.550099 286.133238 
L 365.674066 287.175605 
L 370.798033 288.183653 
L 375.922 289.158655 
L 381.045967 290.101835 
L 386.169934 291.014375 
L 391.293901 291.89741 
L 396.417868 292.752033 
L 401.541835 293.579296 
L 406.665802 294.380209 
L 411.789769 295.155742 
L 416.913736 295.906829 
L 422.037703 296.634366 
L 427.16167 297.339214 
L 432.285637 298.022198 
L 437.409604 298.684113 
L 442.533571 299.32572 
L 447.657537 299.947751 
L 452.781504 300.550908 
L 457.905471 301.135867 
L 463.029438 301.703273 
L 468.153405 302.25375 
L 473.277372 302.787894 
L 478.401339 303.306278 
L 483.525306 303.809454 
L 488.649273 304.29795 
L 493.77324 304.772274 
L 498.897207 305.232915 
L 504.021174 305.680341 
L 509.145141 306.115004 
L 514.269108 306.537335 
L 519.393075 306.947753 
L 524.517042 307.346657 
L 529.641009 307.734432 
L 534.764975 308.111449 
L 539.888942 308.478063 
L 545.012909 308.834617 
L 550.136876 309.18144 
L 555.260843 309.51885 
L 560.38481 309.847151 
L 565.508777 310.166638 
L 570.632744 310.477594 
L 575.756711 310.780291 
L 580.880678 311.07499 
L 586.004645 311.361946 
" clip-path="url(#p5ebca403f4)" style="fill: none; stroke: #029e73; stroke-width: 1.5; stroke-linecap: round"/>
   </g>
   <g id="patch_3">
    <path d="M 53.368281 339.84 
L 53.368281 7.2 
" style="fill: none; stroke: #ffffff; stroke-width: 1.25; stroke-linejoin: miter; stroke-linecap: square"/>
   </g>
   <g id="patch_4">
    <path d="M 611.368281 339.84 
L 611.368281 7.2 
" style="fill: none; stroke: #ffffff; stroke-width: 1.25; stroke-linejoin: miter; stroke-linecap: square"/>
   </g>
   <g id="patch_5">
    <path d="M 53.368281 339.84 
L 611.368281 339.84 
" style="fill: none; stroke: #ffffff; stroke-width: 1.25; stroke-linejoin: miter; stroke-linecap: square"/>
   </g>
   <g id="patch_6">
    <path d="M 53.368281 7.2 
L 611.368281 7.2 
" style="fill: none; stroke: #ffffff; stroke-width: 1.25; stroke-linejoin: miter; stroke-linecap: square"/>
   </g>
   <g id="legend_1">
    <g id="patch_7">
     <path d="M 487.618281 63.52 
L 603.668281 63.52 
Q 605.868281 63.52 605.868281 61.32 
L 605.868281 14.9 
Q 605.868281 12.7 603.668281 12.7 
L 487.618281 12.7 
Q 485.418281 12.7 485.418281 14.9 
L 485.418281 61.32 
Q 485.418281 63.52 487.618281 63.52 
z
" style="fill: #eaeaf2; opacity: 0.8; stroke: #cccccc; stroke-linejoin: miter"/>
    </g>
    <g id="line2d_18">
     <path d="M 489.818281 21.17 
L 500.818281 21.17 
L 511.818281 21.17 
" style="fill: none; stroke: #0173b2; stroke-width: 1.5; stroke-linecap: round"/>
    </g>
    <g id="text_17">
     <!-- $\mu$ = 0.0, $\sigma$ = 0.25 -->
     <g style="fill: #262626" transform="translate(520.618281 25.02) scale(0.11 -0.11)">
      <defs>
       <path id="Cmmi10-b9" d="M 178 -1203 
Q 178 -1166 184 -1153 
L 1125 2625 
Q 1153 2716 1226 2772 
Q 1300 2828 1394 2828 
Q 1475 2828 1531 2779 
Q 1588 2731 1588 2650 
Q 1588 2631 1586 2620 
Q 1584 2609 1581 2597 
L 1203 1100 
Q 1141 834 1141 641 
Q 1141 403 1253 250 
Q 1366 97 1594 97 
Q 2059 97 2413 678 
Q 2416 684 2417 687 
Q 2419 691 2419 697 
L 2881 2553 
Q 2903 2638 2981 2698 
Q 3059 2759 3150 2759 
Q 3225 2759 3283 2709 
Q 3341 2659 3341 2578 
Q 3341 2541 3334 2528 
L 2875 684 
Q 2828 503 2828 372 
Q 2828 97 3016 97 
Q 3216 97 3317 344 
Q 3419 591 3494 941 
Q 3506 978 3547 978 
L 3622 978 
Q 3647 978 3664 958 
Q 3681 938 3681 916 
Q 3569 469 3436 198 
Q 3303 -72 3003 -72 
Q 2791 -72 2627 50 
Q 2463 172 2413 378 
Q 2253 178 2039 53 
Q 1825 -72 1588 -72 
Q 1188 -72 959 116 
L 634 -1178 
Q 616 -1269 541 -1325 
Q 466 -1381 372 -1381 
Q 294 -1381 236 -1332 
Q 178 -1284 178 -1203 
z
" transform="scale(0.015625)"/>
       <path id="ArialMT-20" transform="scale(0.015625)"/>
       <path id="ArialMT-3d" d="M 3381 2694 
L 356 2694 
L 356 3219 
L 3381 3219 
L 3381 2694 
z
M 3381 1303 
L 356 1303 
L 356 1828 
L 3381 1828 
L 3381 1303 
z
" transform="scale(0.015625)"/>
       <path id="ArialMT-2c" d="M 569 0 
L 569 641 
L 1209 641 
L 1209 0 
Q 1209 -353 1084 -570 
Q 959 -788 688 -906 
L 531 -666 
Q 709 -588 793 -436 
Q 878 -284 888 0 
L 569 0 
z
" transform="scale(0.015625)"/>
       <path id="Cmmi10-be" d="M 1197 -72 
Q 913 -72 692 64 
Q 472 200 351 431 
Q 231 663 231 941 
Q 231 1238 365 1566 
Q 500 1894 733 2166 
Q 966 2438 1259 2598 
Q 1553 2759 1863 2759 
L 3475 2759 
Q 3541 2759 3587 2715 
Q 3634 2672 3634 2597 
Q 3634 2503 3567 2433 
Q 3500 2363 3406 2363 
L 2625 2363 
Q 2809 2088 2809 1697 
Q 2809 1375 2684 1062 
Q 2559 750 2337 492 
Q 2116 234 1820 81 
Q 1525 -72 1197 -72 
z
M 1203 97 
Q 1553 97 1823 370 
Q 2094 644 2237 1039 
Q 2381 1434 2381 1772 
Q 2381 2047 2229 2205 
Q 2078 2363 1806 2363 
Q 1434 2363 1173 2113 
Q 913 1863 783 1484 
Q 653 1106 653 756 
Q 653 481 798 289 
Q 944 97 1203 97 
z
" transform="scale(0.015625)"/>
      </defs>
      <use xlink:href="#Cmmi10-b9" transform="translate(0 0.125)"/>
      <use xlink:href="#ArialMT-20" transform="translate(60.205078 0.125)"/>
      <use xlink:href="#ArialMT-3d" transform="translate(87.988281 0.125)"/>
      <use xlink:href="#ArialMT-20" transform="translate(146.386719 0.125)"/>
      <use xlink:href="#ArialMT-30" transform="translate(174.169922 0.125)"/>
      <use xlink:href="#ArialMT-2e" transform="translate(229.785156 0.125)"/>
      <use xlink:href="#ArialMT-30" transform="translate(257.568359 0.125)"/>
      <use xlink:href="#ArialMT-2c" transform="translate(313.183594 0.125)"/>
      <use xlink:href="#ArialMT-20" transform="translate(340.966797 0.125)"/>
      <use xlink:href="#Cmmi10-be" transform="translate(368.75 0.125)"/>
      <use xlink:href="#ArialMT-20" transform="translate(425.830078 0.125)"/>
      <use xlink:href="#ArialMT-3d" transform="translate(453.613281 0.125)"/>
      <use xlink:href="#ArialMT-20" transform="translate(512.011719 0.125)"/>
      <use xlink:href="#ArialMT-30" transform="translate(539.794922 0.125)"/>
      <use xlink:href="#ArialMT-2e" transform="translate(595.410156 0.125)"/>
      <use xlink:href="#ArialMT-32" transform="translate(623.193359 0.125)"/>
      <use xlink:href="#ArialMT-35" transform="translate(678.808594 0.125)"/>
     </g>
    </g>
    <g id="line2d_19">
     <path d="M 489.818281 37.01 
L 500.818281 37.01 
L 511.818281 37.01 
" style="fill: none; stroke: #de8f05; stroke-width: 1.5; stroke-linecap: round"/>
    </g>
    <g id="text_18">
     <!-- $\mu$ = 0.0, $\sigma$ = 0.5 -->
     <g style="fill: #262626" transform="translate(520.618281 40.86) scale(0.11 -0.11)">
      <use xlink:href="#Cmmi10-b9" transform="translate(0 0.125)"/>
      <use xlink:href="#ArialMT-20" transform="translate(60.205078 0.125)"/>
      <use xlink:href="#ArialMT-3d" transform="translate(87.988281 0.125)"/>
      <use xlink:href="#ArialMT-20" transform="translate(146.386719 0.125)"/>
      <use xlink:href="#ArialMT-30" transform="translate(174.169922 0.125)"/>
      <use xlink:href="#ArialMT-2e" transform="translate(229.785156 0.125)"/>
      <use xlink:href="#ArialMT-30" transform="translate(257.568359 0.125)"/>
      <use xlink:href="#ArialMT-2c" transform="translate(313.183594 0.125)"/>
      <use xlink:href="#ArialMT-20" transform="translate(340.966797 0.125)"/>
      <use xlink:href="#Cmmi10-be" transform="translate(368.75 0.125)"/>
      <use xlink:href="#ArialMT-20" transform="translate(425.830078 0.125)"/>
      <use xlink:href="#ArialMT-3d" transform="translate(453.613281 0.125)"/>
      <use xlink:href="#ArialMT-20" transform="translate(512.011719 0.125)"/>
      <use xlink:href="#ArialMT-30" transform="translate(539.794922 0.125)"/>
      <use xlink:href="#ArialMT-2e" transform="translate(595.410156 0.125)"/>
      <use xlink:href="#ArialMT-35" transform="translate(623.193359 0.125)"/>
     </g>
    </g>
    <g id="line2d_20">
     <path d="M 489.818281 52.85 
L 500.818281 52.85 
L 511.818281 52.85 
" style="fill: none; stroke: #029e73; stroke-width: 1.5; stroke-linecap: round"/>
    </g>
    <g id="text_19">
     <!-- $\mu$ = 0.0, $\sigma$ = 1.0 -->
     <g style="fill: #262626" transform="translate(520.618281 56.7) scale(0.11 -0.11)">
      <use xlink:href="#Cmmi10-b9" transform="translate(0 0.125)"/>
      <use xlink:href="#ArialMT-20" transform="translate(60.205078 0.125)"/>
      <use xlink:href="#ArialMT-3d" transform="translate(87.988281 0.125)"/>
      <use xlink:href="#ArialMT-20" transform="translate(146.386719 0.125)"/>
      <use xlink:href="#ArialMT-30" transform="translate(174.169922 0.125)"/>
      <use xlink:href="#ArialMT-2e" transform="translate(229.785156 0.125)"/>
      <use xlink:href="#ArialMT-30" transform="translate(257.568359 0.125)"/>
      <use xlink:href="#ArialMT-2c" transform="translate(313.183594 0.125)"/>
      <use xlink:href="#ArialMT-20" transform="translate(340.966797 0.125)"/>
      <use xlink:href="#Cmmi10-be" transform="translate(368.75 0.125)"/>
      <use xlink:href="#ArialMT-20" transform="translate(425.830078 0.125)"/>
      <use xlink:href="#ArialMT-3d" transform="translate(453.613281 0.125)"/>
      <use xlink:href="#ArialMT-20" transform="translate(512.011719 0.125)"/>
      <use xlink:href="#ArialMT-31" transform="translate(539.794922 0.125)"/>
      <use xlink:href="#ArialMT-2e" transform="translate(595.410156 0.125)"/>
      <use xlink:href="#ArialMT-30" transform="translate(623.193359 0.125)"/>
     </g>
    </g>
   </g>
  </g>
 </g>
 <defs>
  <clipPath id="p5ebca403f4">
   <rect x="53.368281" y="7.2" width="558" height="332.64"/>
  </clipPath>
 </defs>
</svg>