<?xml version="1.0" encoding="utf-8" standalone="no"?>
<!DOCTYPE svg PUBLIC "-//W3C//DTD SVG 1.1//EN"
  "http://www.w3.org/Graphics/SVG/1.1/DTD/svg11.dtd">
<svg xmlns:xlink="http://www.w3.org/1999/xlink" width="615.541094pt" height="366.599844pt" viewBox="0 0 615.541094 366.599844" xmlns="http://www.w3.org/2000/svg" version="1.1">
 <metadata>
  <rdf:RDF xmlns:dc="http://purl.org/dc/elements/1.1/" xmlns:cc="http://creativecommons.org/ns#" xmlns:rdf="http://www.w3.org/1999/02/22-rdf-syntax-ns#">
   <cc:Work>
    <dc:type rdf:resource="http://purl.org/dc/dcmitype/StillImage"/>
    <dc:date>2023-05-29T08:38:49.120944</dc:date>
    <dc:format>image/svg+xml</dc:format>
    <dc:creator>
     <cc:Agent>
      <dc:title>Matplotlib v3.7.1, https://matplotlib.org/</dc:title>
     </cc:Agent>
    </dc:creator>
   </cc:Work>
  </rdf:RDF>
 </metadata>
 <defs>
  <style type="text/css">*{stroke-linejoin: round; stroke-linecap: butt}</style>
 </defs>
 <g id="figure_1">
  <g id="patch_1">
   <path d="M 0 366.599844 
L 615.541094 366.599844 
L 615.541094 0 
L 0 0 
z
" style="fill: #ffffff"/>
  </g>
  <g id="axes_1">
   <g id="patch_2">
    <path d="M 50.341094 339.84 
L 608.341094 339.84 
L 608.341094 7.2 
L 50.341094 7.2 
z
" style="fill: #eaeaf2"/>
   </g>
   <g id="matplotlib.axis_1">
    <g id="xtick_1">
     <g id="line2d_1">
      <path d="M 67.218749 339.84 
L 67.218749 7.2 
" clip-path="url(#paedc95878a)" style="fill: none; stroke: #ffffff; stroke-linecap: round"/>
     </g>
     <g id="text_1">
      <!-- −600 -->
      <g style="fill: #262626" transform="translate(54.830858 357.213594) scale(0.11 -0.11)">
       <defs>
        <path id="ArialMT-2212" d="M 3381 1997 
L 356 1997 
L 356 2522 
L 3381 2522 
L 3381 1997 
z
" transform="scale(0.015625)"/>
        <path id="ArialMT-36" d="M 3184 3459 
L 2625 3416 
Q 2550 3747 2413 3897 
Q 2184 4138 1850 4138 
Q 1581 4138 1378 3988 
Q 1113 3794 959 3422 
Q 806 3050 800 2363 
Q 1003 2672 1297 2822 
Q 1591 2972 1913 2972 
Q 2475 2972 2870 2558 
Q 3266 2144 3266 1488 
Q 3266 1056 3080 686 
Q 2894 316 2569 119 
Q 2244 -78 1831 -78 
Q 1128 -78 684 439 
Q 241 956 241 2144 
Q 241 3472 731 4075 
Q 1159 4600 1884 4600 
Q 2425 4600 2770 4297 
Q 3116 3994 3184 3459 
z
M 888 1484 
Q 888 1194 1011 928 
Q 1134 663 1356 523 
Q 1578 384 1822 384 
Q 2178 384 2434 671 
Q 2691 959 2691 1453 
Q 2691 1928 2437 2201 
Q 2184 2475 1800 2475 
Q 1419 2475 1153 2201 
Q 888 1928 888 1484 
z
" transform="scale(0.015625)"/>
        <path id="ArialMT-30" d="M 266 2259 
Q 266 3072 433 3567 
Q 600 4063 929 4331 
Q 1259 4600 1759 4600 
Q 2128 4600 2406 4451 
Q 2684 4303 2865 4023 
Q 3047 3744 3150 3342 
Q 3253 2941 3253 2259 
Q 3253 1453 3087 958 
Q 2922 463 2592 192 
Q 2263 -78 1759 -78 
Q 1097 -78 719 397 
Q 266 969 266 2259 
z
M 844 2259 
Q 844 1131 1108 757 
Q 1372 384 1759 384 
Q 2147 384 2411 759 
Q 2675 1134 2675 2259 
Q 2675 3391 2411 3762 
Q 2147 4134 1753 4134 
Q 1366 4134 1134 3806 
Q 844 3388 844 2259 
z
" transform="scale(0.015625)"/>
       </defs>
       <use xlink:href="#ArialMT-2212"/>
       <use xlink:href="#ArialMT-36" x="58.398438"/>
       <use xlink:href="#ArialMT-30" x="114.013672"/>
       <use xlink:href="#ArialMT-30" x="169.628906"/>
      </g>
     </g>
    </g>
    <g id="xtick_2">
     <g id="line2d_2">
      <path d="M 149.488178 339.84 
L 149.488178 7.2 
" clip-path="url(#paedc95878a)" style="fill: none; stroke: #ffffff; stroke-linecap: round"/>
     </g>
     <g id="text_2">
      <!-- −400 -->
      <g style="fill: #262626" transform="translate(137.100288 357.213594) scale(0.11 -0.11)">
       <defs>
        <path id="ArialMT-34" d="M 2069 0 
L 2069 1097 
L 81 1097 
L 81 1613 
L 2172 4581 
L 2631 4581 
L 2631 1613 
L 3250 1613 
L 3250 1097 
L 2631 1097 
L 2631 0 
L 2069 0 
z
M 2069 1613 
L 2069 3678 
L 634 1613 
L 2069 1613 
z
" transform="scale(0.015625)"/>
       </defs>
       <use xlink:href="#ArialMT-2212"/>
       <use xlink:href="#ArialMT-34" x="58.398438"/>
       <use xlink:href="#ArialMT-30" x="114.013672"/>
       <use xlink:href="#ArialMT-30" x="169.628906"/>
      </g>
     </g>
    </g>
    <g id="xtick_3">
     <g id="line2d_3">
      <path d="M 231.757608 339.84 
L 231.757608 7.2 
" clip-path="url(#paedc95878a)" style="fill: none; stroke: #ffffff; stroke-linecap: round"/>
     </g>
     <g id="text_3">
      <!-- −200 -->
      <g style="fill: #262626" transform="translate(219.369718 357.213594) scale(0.11 -0.11)">
       <defs>
        <path id="ArialMT-32" d="M 3222 541 
L 3222 0 
L 194 0 
Q 188 203 259 391 
Q 375 700 629 1000 
Q 884 1300 1366 1694 
Q 2113 2306 2375 2664 
Q 2638 3022 2638 3341 
Q 2638 3675 2398 3904 
Q 2159 4134 1775 4134 
Q 1369 4134 1125 3890 
Q 881 3647 878 3216 
L 300 3275 
Q 359 3922 746 4261 
Q 1134 4600 1788 4600 
Q 2447 4600 2831 4234 
Q 3216 3869 3216 3328 
Q 3216 3053 3103 2787 
Q 2991 2522 2730 2228 
Q 2469 1934 1863 1422 
Q 1356 997 1212 845 
Q 1069 694 975 541 
L 3222 541 
z
" transform="scale(0.015625)"/>
       </defs>
       <use xlink:href="#ArialMT-2212"/>
       <use xlink:href="#ArialMT-32" x="58.398438"/>
       <use xlink:href="#ArialMT-30" x="114.013672"/>
       <use xlink:href="#ArialMT-30" x="169.628906"/>
      </g>
     </g>
    </g>
    <g id="xtick_4">
     <g id="line2d_4">
      <path d="M 314.027038 339.84 
L 314.027038 7.2 
" clip-path="url(#paedc95878a)" style="fill: none; stroke: #ffffff; stroke-linecap: round"/>
     </g>
     <g id="text_4">
      <!-- 0 -->
      <g style="fill: #262626" transform="translate(310.968522 357.213594) scale(0.11 -0.11)">
       <use xlink:href="#ArialMT-30"/>
      </g>
     </g>
    </g>
    <g id="xtick_5">
     <g id="line2d_5">
      <path d="M 396.296468 339.84 
L 396.296468 7.2 
" clip-path="url(#paedc95878a)" style="fill: none; stroke: #ffffff; stroke-linecap: round"/>
     </g>
     <g id="text_5">
      <!-- 200 -->
      <g style="fill: #262626" transform="translate(387.120921 357.213594) scale(0.11 -0.11)">
       <use xlink:href="#ArialMT-32"/>
       <use xlink:href="#ArialMT-30" x="55.615234"/>
       <use xlink:href="#ArialMT-30" x="111.230469"/>
      </g>
     </g>
    </g>
    <g id="xtick_6">
     <g id="line2d_6">
      <path d="M 478.565898 339.84 
L 478.565898 7.2 
" clip-path="url(#paedc95878a)" style="fill: none; stroke: #ffffff; stroke-linecap: round"/>
     </g>
     <g id="text_6">
      <!-- 400 -->
      <g style="fill: #262626" transform="translate(469.390351 357.213594) scale(0.11 -0.11)">
       <use xlink:href="#ArialMT-34"/>
       <use xlink:href="#ArialMT-30" x="55.615234"/>
       <use xlink:href="#ArialMT-30" x="111.230469"/>
      </g>
     </g>
    </g>
    <g id="xtick_7">
     <g id="line2d_7">
      <path d="M 560.835327 339.84 
L 560.835327 7.2 
" clip-path="url(#paedc95878a)" style="fill: none; stroke: #ffffff; stroke-linecap: round"/>
     </g>
     <g id="text_7">
      <!-- 600 -->
      <g style="fill: #262626" transform="translate(551.65978 357.213594) scale(0.11 -0.11)">
       <use xlink:href="#ArialMT-36"/>
       <use xlink:href="#ArialMT-30" x="55.615234"/>
       <use xlink:href="#ArialMT-30" x="111.230469"/>
      </g>
     </g>
    </g>
   </g>
   <g id="matplotlib.axis_2">
    <g id="ytick_1">
     <g id="line2d_8">
      <path d="M 50.341094 324.72 
L 608.341094 324.72 
" clip-path="url(#paedc95878a)" style="fill: none; stroke: #ffffff; stroke-linecap: round"/>
     </g>
     <g id="text_8">
      <!-- 0.0000 -->
      <g style="fill: #262626" transform="translate(7.2 328.656797) scale(0.11 -0.11)">
       <defs>
        <path id="ArialMT-2e" d="M 581 0 
L 581 641 
L 1222 641 
L 1222 0 
L 581 0 
z
" transform="scale(0.015625)"/>
       </defs>
       <use xlink:href="#ArialMT-30"/>
       <use xlink:href="#ArialMT-2e" x="55.615234"/>
       <use xlink:href="#ArialMT-30" x="83.398438"/>
       <use xlink:href="#ArialMT-30" x="139.013672"/>
       <use xlink:href="#ArialMT-30" x="194.628906"/>
       <use xlink:href="#ArialMT-30" x="250.244141"/>
      </g>
     </g>
    </g>
    <g id="ytick_2">
     <g id="line2d_9">
      <path d="M 50.341094 287.285266 
L 608.341094 287.285266 
" clip-path="url(#paedc95878a)" style="fill: none; stroke: #ffffff; stroke-linecap: round"/>
     </g>
     <g id="text_9">
      <!-- 0.0005 -->
      <g style="fill: #262626" transform="translate(7.2 291.222063) scale(0.11 -0.11)">
       <defs>
        <path id="ArialMT-35" d="M 266 1200 
L 856 1250 
Q 922 819 1161 601 
Q 1400 384 1738 384 
Q 2144 384 2425 690 
Q 2706 997 2706 1503 
Q 2706 1984 2436 2262 
Q 2166 2541 1728 2541 
Q 1456 2541 1237 2417 
Q 1019 2294 894 2097 
L 366 2166 
L 809 4519 
L 3088 4519 
L 3088 3981 
L 1259 3981 
L 1013 2750 
Q 1425 3038 1878 3038 
Q 2478 3038 2890 2622 
Q 3303 2206 3303 1553 
Q 3303 931 2941 478 
Q 2500 -78 1738 -78 
Q 1113 -78 717 272 
Q 322 622 266 1200 
z
" transform="scale(0.015625)"/>
       </defs>
       <use xlink:href="#ArialMT-30"/>
       <use xlink:href="#ArialMT-2e" x="55.615234"/>
       <use xlink:href="#ArialMT-30" x="83.398438"/>
       <use xlink:href="#ArialMT-30" x="139.013672"/>
       <use xlink:href="#ArialMT-30" x="194.628906"/>
       <use xlink:href="#ArialMT-35" x="250.244141"/>
      </g>
     </g>
    </g>
    <g id="ytick_3">
     <g id="line2d_10">
      <path d="M 50.341094 249.850532 
L 608.341094 249.850532 
" clip-path="url(#paedc95878a)" style="fill: none; stroke: #ffffff; stroke-linecap: round"/>
     </g>
     <g id="text_10">
      <!-- 0.0010 -->
      <g style="fill: #262626" transform="translate(7.2 253.787329) scale(0.11 -0.11)">
       <defs>
        <path id="ArialMT-31" d="M 2384 0 
L 1822 0 
L 1822 3584 
Q 1619 3391 1289 3197 
Q 959 3003 697 2906 
L 697 3450 
Q 1169 3672 1522 3987 
Q 1875 4303 2022 4600 
L 2384 4600 
L 2384 0 
z
" transform="scale(0.015625)"/>
       </defs>
       <use xlink:href="#ArialMT-30"/>
       <use xlink:href="#ArialMT-2e" x="55.615234"/>
       <use xlink:href="#ArialMT-30" x="83.398438"/>
       <use xlink:href="#ArialMT-30" x="139.013672"/>
       <use xlink:href="#ArialMT-31" x="194.628906"/>
       <use xlink:href="#ArialMT-30" x="250.244141"/>
      </g>
     </g>
    </g>
    <g id="ytick_4">
     <g id="line2d_11">
      <path d="M 50.341094 212.415798 
L 608.341094 212.415798 
" clip-path="url(#paedc95878a)" style="fill: none; stroke: #ffffff; stroke-linecap: round"/>
     </g>
     <g id="text_11">
      <!-- 0.0015 -->
      <g style="fill: #262626" transform="translate(7.2 216.352595) scale(0.11 -0.11)">
       <use xlink:href="#ArialMT-30"/>
       <use xlink:href="#ArialMT-2e" x="55.615234"/>
       <use xlink:href="#ArialMT-30" x="83.398438"/>
       <use xlink:href="#ArialMT-30" x="139.013672"/>
       <use xlink:href="#ArialMT-31" x="194.628906"/>
       <use xlink:href="#ArialMT-35" x="250.244141"/>
      </g>
     </g>
    </g>
    <g id="ytick_5">
     <g id="line2d_12">
      <path d="M 50.341094 174.981064 
L 608.341094 174.981064 
" clip-path="url(#paedc95878a)" style="fill: none; stroke: #ffffff; stroke-linecap: round"/>
     </g>
     <g id="text_12">
      <!-- 0.0020 -->
      <g style="fill: #262626" transform="translate(7.2 178.917861) scale(0.11 -0.11)">
       <use xlink:href="#ArialMT-30"/>
       <use xlink:href="#ArialMT-2e" x="55.615234"/>
       <use xlink:href="#ArialMT-30" x="83.398438"/>
       <use xlink:href="#ArialMT-30" x="139.013672"/>
       <use xlink:href="#ArialMT-32" x="194.628906"/>
       <use xlink:href="#ArialMT-30" x="250.244141"/>
      </g>
     </g>
    </g>
    <g id="ytick_6">
     <g id="line2d_13">
      <path d="M 50.341094 137.54633 
L 608.341094 137.54633 
" clip-path="url(#paedc95878a)" style="fill: none; stroke: #ffffff; stroke-linecap: round"/>
     </g>
     <g id="text_13">
      <!-- 0.0025 -->
      <g style="fill: #262626" transform="translate(7.2 141.483127) scale(0.11 -0.11)">
       <use xlink:href="#ArialMT-30"/>
       <use xlink:href="#ArialMT-2e" x="55.615234"/>
       <use xlink:href="#ArialMT-30" x="83.398438"/>
       <use xlink:href="#ArialMT-30" x="139.013672"/>
       <use xlink:href="#ArialMT-32" x="194.628906"/>
       <use xlink:href="#ArialMT-35" x="250.244141"/>
      </g>
     </g>
    </g>
    <g id="ytick_7">
     <g id="line2d_14">
      <path d="M 50.341094 100.111596 
L 608.341094 100.111596 
" clip-path="url(#paedc95878a)" style="fill: none; stroke: #ffffff; stroke-linecap: round"/>
     </g>
     <g id="text_14">
      <!-- 0.0030 -->
      <g style="fill: #262626" transform="translate(7.2 104.048393) scale(0.11 -0.11)">
       <defs>
        <path id="ArialMT-33" d="M 269 1209 
L 831 1284 
Q 928 806 1161 595 
Q 1394 384 1728 384 
Q 2125 384 2398 659 
Q 2672 934 2672 1341 
Q 2672 1728 2419 1979 
Q 2166 2231 1775 2231 
Q 1616 2231 1378 2169 
L 1441 2663 
Q 1497 2656 1531 2656 
Q 1891 2656 2178 2843 
Q 2466 3031 2466 3422 
Q 2466 3731 2256 3934 
Q 2047 4138 1716 4138 
Q 1388 4138 1169 3931 
Q 950 3725 888 3313 
L 325 3413 
Q 428 3978 793 4289 
Q 1159 4600 1703 4600 
Q 2078 4600 2393 4439 
Q 2709 4278 2876 4000 
Q 3044 3722 3044 3409 
Q 3044 3113 2884 2869 
Q 2725 2625 2413 2481 
Q 2819 2388 3044 2092 
Q 3269 1797 3269 1353 
Q 3269 753 2831 336 
Q 2394 -81 1725 -81 
Q 1122 -81 723 278 
Q 325 638 269 1209 
z
" transform="scale(0.015625)"/>
       </defs>
       <use xlink:href="#ArialMT-30"/>
       <use xlink:href="#ArialMT-2e" x="55.615234"/>
       <use xlink:href="#ArialMT-30" x="83.398438"/>
       <use xlink:href="#ArialMT-30" x="139.013672"/>
       <use xlink:href="#ArialMT-33" x="194.628906"/>
       <use xlink:href="#ArialMT-30" x="250.244141"/>
      </g>
     </g>
    </g>
    <g id="ytick_8">
     <g id="line2d_15">
      <path d="M 50.341094 62.676862 
L 608.341094 62.676862 
" clip-path="url(#paedc95878a)" style="fill: none; stroke: #ffffff; stroke-linecap: round"/>
     </g>
     <g id="text_15">
      <!-- 0.0035 -->
      <g style="fill: #262626" transform="translate(7.2 66.613659) scale(0.11 -0.11)">
       <use xlink:href="#ArialMT-30"/>
       <use xlink:href="#ArialMT-2e" x="55.615234"/>
       <use xlink:href="#ArialMT-30" x="83.398438"/>
       <use xlink:href="#ArialMT-30" x="139.013672"/>
       <use xlink:href="#ArialMT-33" x="194.628906"/>
       <use xlink:href="#ArialMT-35" x="250.244141"/>
      </g>
     </g>
    </g>
    <g id="ytick_9">
     <g id="line2d_16">
      <path d="M 50.341094 25.242128 
L 608.341094 25.242128 
" clip-path="url(#paedc95878a)" style="fill: none; stroke: #ffffff; stroke-linecap: round"/>
     </g>
     <g id="text_16">
      <!-- 0.0040 -->
      <g style="fill: #262626" transform="translate(7.2 29.178925) scale(0.11 -0.11)">
       <use xlink:href="#ArialMT-30"/>
       <use xlink:href="#ArialMT-2e" x="55.615234"/>
       <use xlink:href="#ArialMT-30" x="83.398438"/>
       <use xlink:href="#ArialMT-30" x="139.013672"/>
       <use xlink:href="#ArialMT-34" x="194.628906"/>
       <use xlink:href="#ArialMT-30" x="250.244141"/>
      </g>
     </g>
    </g>
   </g>
   <g id="PolyCollection_1">
    <defs>
     <path id="mbc920d33b2" d="M 75.70473 -41.879844 
L 75.70473 -42.082089 
L 76.697436 -42.057466 
L 77.690142 -42.016844 
L 78.682848 -41.972636 
L 79.675554 -41.935028 
L 80.66826 -41.908656 
L 81.660966 -41.893048 
L 82.653672 -41.885154 
L 83.646378 -41.881264 
L 84.639083 -41.879844 
L 85.631789 -41.879844 
L 86.624495 -41.879844 
L 87.617201 -41.879844 
L 88.609907 -41.879844 
L 89.602613 -41.879844 
L 90.595319 -41.879844 
L 91.588025 -41.879844 
L 92.580731 -41.879844 
L 93.573437 -41.879844 
L 94.566143 -41.879844 
L 95.558849 -41.881264 
L 96.551555 -41.883734 
L 97.54426 -41.889158 
L 98.536966 -41.899342 
L 99.529672 -41.91553 
L 100.522378 -41.936949 
L 101.515084 -41.959738 
L 102.50779 -41.977572 
L 103.500496 -41.984361 
L 104.493202 -41.977572 
L 105.485908 -41.959738 
L 106.478614 -41.936949 
L 107.47132 -41.916951 
L 108.464026 -41.903232 
L 109.456732 -41.898472 
L 110.449437 -41.903232 
L 111.442143 -41.916951 
L 112.434849 -41.936949 
L 113.427555 -41.959738 
L 114.420261 -41.977572 
L 115.412967 -41.984361 
L 116.405673 -41.977572 
L 117.398379 -41.959738 
L 118.391085 -41.936949 
L 119.383791 -41.91553 
L 120.376497 -41.899342 
L 121.369203 -41.889158 
L 122.361909 -41.883734 
L 123.354614 -41.881264 
L 124.34732 -41.879844 
L 125.340026 -41.879844 
L 126.332732 -41.881264 
L 127.325438 -41.883734 
L 128.318144 -41.890578 
L 129.31085 -41.904652 
L 130.303556 -41.928734 
L 131.296262 -41.967182 
L 132.288968 -42.018813 
L 133.281674 -42.082519 
L 134.27438 -42.148639 
L 135.267086 -42.209509 
L 136.259791 -42.258085 
L 137.252497 -42.290462 
L 138.245203 -42.305092 
L 139.237909 -42.300648 
L 140.230615 -42.277976 
L 141.223321 -42.235628 
L 142.216027 -42.182687 
L 143.208733 -42.13141 
L 144.201439 -42.09955 
L 145.194145 -42.09566 
L 146.186851 -42.118205 
L 147.179557 -42.152455 
L 148.172263 -42.177973 
L 149.164969 -42.17976 
L 150.157674 -42.154885 
L 151.15038 -42.116592 
L 152.143086 -42.081422 
L 153.135792 -42.065753 
L 154.128498 -42.078552 
L 155.121204 -42.11714 
L 156.11391 -42.169202 
L 157.106616 -42.21619 
L 158.099322 -42.244719 
L 159.092028 -42.240813 
L 160.084734 -42.206984 
L 161.07744 -42.154989 
L 162.070146 -42.102841 
L 163.062851 -42.066334 
L 164.055557 -42.05589 
L 165.048263 -42.07219 
L 166.040969 -42.110293 
L 167.033675 -42.161899 
L 168.026381 -42.225619 
L 169.019087 -42.302054 
L 170.011793 -42.389908 
L 171.004499 -42.491666 
L 171.997205 -42.613453 
L 172.989911 -42.759983 
L 173.982617 -42.933048 
L 174.975323 -43.116987 
L 175.968028 -43.291011 
L 176.960734 -43.419594 
L 177.95344 -43.48125 
L 178.946146 -43.484477 
L 179.938852 -43.464705 
L 180.931558 -43.47225 
L 181.924264 -43.532515 
L 182.91697 -43.641542 
L 183.909676 -43.775082 
L 184.902382 -43.906423 
L 185.895088 -44.030208 
L 186.887794 -44.163031 
L 187.8805 -44.308437 
L 188.873205 -44.44997 
L 189.865911 -44.56081 
L 190.858617 -44.605004 
L 191.851323 -44.579106 
L 192.844029 -44.501368 
L 193.836735 -44.413438 
L 194.829441 -44.354229 
L 195.822147 -44.340182 
L 196.814853 -44.367508 
L 197.807559 -44.418005 
L 198.800265 -44.481593 
L 199.792971 -44.550834 
L 200.785677 -44.630966 
L 201.778382 -44.748313 
L 202.771088 -44.923044 
L 203.763794 -45.166509 
L 204.7565 -45.46237 
L 205.749206 -45.779116 
L 206.741912 -46.061697 
L 207.734618 -46.283453 
L 208.727324 -46.436502 
L 209.72003 -46.565413 
L 210.712736 -46.732372 
L 211.705442 -46.970217 
L 212.698148 -47.282353 
L 213.690854 -47.638764 
L 214.68356 -47.986709 
L 215.676265 -48.304206 
L 216.668971 -48.602342 
L 217.661677 -48.927782 
L 218.654383 -49.295431 
L 219.647089 -49.705213 
L 220.639795 -50.125483 
L 221.632501 -50.520184 
L 222.625207 -50.834826 
L 223.617913 -51.078511 
L 224.610619 -51.269148 
L 225.603325 -51.472422 
L 226.596031 -51.767374 
L 227.588737 -52.213509 
L 228.581442 -52.848448 
L 229.574148 -53.602745 
L 230.566854 -54.373028 
L 231.55956 -55.086752 
L 232.552266 -55.720288 
L 233.544972 -56.29224 
L 234.537678 -56.803667 
L 235.530384 -57.239512 
L 236.52309 -57.582964 
L 237.515796 -57.83202 
L 238.508502 -58.103749 
L 239.501208 -58.518003 
L 240.493914 -59.142695 
L 241.486619 -59.958758 
L 242.479325 -60.846366 
L 243.472031 -61.684077 
L 244.464737 -62.424214 
L 245.457443 -63.066465 
L 246.450149 -63.701004 
L 247.442855 -64.467091 
L 248.435561 -65.473717 
L 249.428267 -66.82187 
L 250.420973 -68.52142 
L 251.413679 -70.529294 
L 252.406385 -72.738215 
L 253.399091 -75.037943 
L 254.391796 -77.407564 
L 255.384502 -79.845447 
L 256.377208 -82.413199 
L 257.369914 -85.105534 
L 258.36262 -87.886277 
L 259.355326 -90.615752 
L 260.348032 -93.126042 
L 261.340738 -95.253773 
L 262.333444 -96.877585 
L 263.32615 -97.883454 
L 264.318856 -98.212286 
L 265.311562 -97.917815 
L 266.304268 -97.194771 
L 267.296973 -96.387549 
L 268.289679 -95.834252 
L 269.282385 -95.793583 
L 270.275091 -96.294109 
L 271.267797 -97.205624 
L 272.260503 -98.342727 
L 273.253209 -99.529655 
L 274.245915 -100.749439 
L 275.238621 -102.053302 
L 276.231327 -103.532368 
L 277.224033 -105.188 
L 278.216739 -106.956338 
L 279.209445 -108.710442 
L 280.202151 -110.330503 
L 281.194856 -111.757244 
L 282.187562 -113.122073 
L 283.180268 -114.522914 
L 284.172974 -116.128838 
L 285.16568 -118.052996 
L 286.158386 -120.397277 
L 287.151092 -123.30083 
L 288.143798 -126.705402 
L 289.136504 -130.498465 
L 290.12921 -134.414392 
L 291.121916 -138.222034 
L 292.114622 -141.914676 
L 293.107328 -145.717039 
L 294.100033 -149.835597 
L 295.092739 -154.839686 
L 296.085445 -160.486813 
L 297.078151 -167.258233 
L 298.070857 -175.669775 
L 299.063563 -186.198739 
L 300.056269 -198.912089 
L 301.048975 -212.551036 
L 302.041681 -225.265376 
L 303.034387 -235.048437 
L 304.027093 -241.046631 
L 305.019799 -243.845387 
L 306.012505 -244.99055 
L 307.00521 -245.55909 
L 307.997916 -246.336033 
L 308.990622 -247.815716 
L 309.983328 -250.568201 
L 310.976034 -255.205568 
L 311.96874 -261.299406 
L 312.961446 -268.357736 
L 313.954152 -274.70187 
L 314.946858 -279.354338 
L 315.939564 -282.421325 
L 316.93227 -285.392089 
L 317.924976 -288.451426 
L 318.917682 -292.440314 
L 319.910387 -297.897936 
L 320.903093 -305.116235 
L 321.895799 -313.964732 
L 322.888505 -322.697538 
L 323.881211 -328.74074 
L 324.873917 -329.115881 
L 325.866623 -323.059362 
L 326.859329 -312.599345 
L 327.852035 -301.308546 
L 328.844741 -292.201452 
L 329.837447 -285.944867 
L 330.830153 -281.427671 
L 331.822859 -277.214506 
L 332.815564 -272.320115 
L 333.80827 -266.78323 
L 334.800976 -262.437968 
L 335.793682 -259.551995 
L 336.786388 -258.613304 
L 337.779094 -259.858299 
L 338.7718 -263.476927 
L 339.764506 -269.690443 
L 340.757212 -278.123739 
L 341.749918 -287.586409 
L 342.742624 -296.069873 
L 343.73533 -301.538511 
L 344.728036 -302.986113 
L 345.720741 -301.137963 
L 346.713447 -298.258485 
L 347.706153 -296.713391 
L 348.698859 -298.218224 
L 349.691565 -303.656983 
L 350.684271 -312.68825 
L 351.676977 -323.954695 
L 352.669683 -335.029837 
L 353.662389 -342.854731 
L 354.655095 -344.279844 
L 355.647801 -337.734924 
L 356.640507 -324.265128 
L 357.633213 -306.97147 
L 358.625919 -289.649174 
L 359.618624 -275.129821 
L 360.61133 -264.429569 
L 361.604036 -257.084521 
L 362.596742 -251.80052 
L 363.589448 -247.203544 
L 364.582154 -242.504677 
L 365.57486 -237.098346 
L 366.567566 -230.662973 
L 367.560272 -223.28751 
L 368.552978 -215.234261 
L 369.545684 -207.013417 
L 370.53839 -199.282563 
L 371.531096 -192.887288 
L 372.523801 -188.696071 
L 373.516507 -187.698894 
L 374.509213 -190.56077 
L 375.501919 -196.961996 
L 376.494625 -205.401273 
L 377.487331 -213.419633 
L 378.480037 -218.332236 
L 379.472743 -218.403078 
L 380.465449 -213.646453 
L 381.458155 -205.699886 
L 382.450861 -197.179857 
L 383.443567 -190.564751 
L 384.436273 -187.550084 
L 385.428978 -188.988322 
L 386.421684 -194.770197 
L 387.41439 -204.037085 
L 388.407096 -215.13941 
L 389.399802 -226.018402 
L 390.392508 -234.415127 
L 391.385214 -238.881438 
L 392.37792 -239.229068 
L 393.370626 -236.244139 
L 394.363332 -231.547037 
L 395.356038 -226.83904 
L 396.348744 -223.515844 
L 397.34145 -222.239792 
L 398.334155 -222.809676 
L 399.326861 -224.060066 
L 400.319567 -224.440149 
L 401.312273 -222.631569 
L 402.304979 -218.156247 
L 403.297685 -211.813932 
L 404.290391 -205.194793 
L 405.283097 -200.054354 
L 406.275803 -197.40168 
L 407.268509 -197.344807 
L 408.261215 -199.072613 
L 409.253921 -201.260756 
L 410.246627 -202.674404 
L 411.239332 -202.260258 
L 412.232038 -199.539598 
L 413.224744 -194.451907 
L 414.21745 -187.481799 
L 415.210156 -179.398136 
L 416.202862 -171.144629 
L 417.195568 -163.513013 
L 418.188274 -156.938946 
L 419.18098 -151.59765 
L 420.173686 -147.305359 
L 421.166392 -143.71307 
L 422.159098 -140.410473 
L 423.151804 -137.048826 
L 424.14451 -133.290935 
L 425.137215 -128.957369 
L 426.129921 -124.057602 
L 427.122627 -118.740092 
L 428.115333 -113.313244 
L 429.108039 -108.06628 
L 430.100745 -103.275624 
L 431.093451 -99.073196 
L 432.086157 -95.522605 
L 433.078863 -92.517222 
L 434.071569 -89.89862 
L 435.064275 -87.531188 
L 436.056981 -85.247844 
L 437.049687 -83.02975 
L 438.042392 -80.879292 
L 439.035098 -78.801558 
L 440.027804 -76.806966 
L 441.02051 -74.927295 
L 442.013216 -73.205586 
L 443.005922 -71.72611 
L 443.998628 -70.553985 
L 444.991334 -69.64385 
L 445.98404 -68.888193 
L 446.976746 -68.137531 
L 447.969452 -67.295738 
L 448.962158 -66.334557 
L 449.954864 -65.305493 
L 450.947569 -64.256104 
L 451.940275 -63.181801 
L 452.932981 -62.045813 
L 453.925687 -60.84757 
L 454.918393 -59.597349 
L 455.911099 -58.371323 
L 456.903805 -57.191789 
L 457.896511 -56.102355 
L 458.889217 -55.091085 
L 459.881923 -54.153224 
L 460.874629 -53.290746 
L 461.867335 -52.528111 
L 462.860041 -51.888324 
L 463.852746 -51.370231 
L 464.845452 -50.963939 
L 465.838158 -50.656954 
L 466.830864 -50.403466 
L 467.82357 -50.165982 
L 468.816276 -49.920838 
L 469.808982 -49.658074 
L 470.801688 -49.379748 
L 471.794394 -49.119665 
L 472.7871 -48.873358 
L 473.779806 -48.65683 
L 474.772512 -48.436733 
L 475.765218 -48.194022 
L 476.757923 -47.907679 
L 477.750629 -47.574571 
L 478.743335 -47.209118 
L 479.736041 -46.836636 
L 480.728747 -46.499233 
L 481.721453 -46.203215 
L 482.714159 -45.956898 
L 483.706865 -45.74794 
L 484.699571 -45.562291 
L 485.692277 -45.373411 
L 486.684983 -45.15414 
L 487.677689 -44.87668 
L 488.670395 -44.533555 
L 489.663101 -44.152621 
L 490.655806 -43.783294 
L 491.648512 -43.494346 
L 492.641218 -43.332573 
L 493.633924 -43.306623 
L 494.62663 -43.398635 
L 495.619336 -43.560609 
L 496.612042 -43.736052 
L 497.604748 -43.871753 
L 498.597454 -43.936257 
L 499.59016 -43.913351 
L 500.582866 -43.817133 
L 501.575572 -43.666686 
L 502.568278 -43.485324 
L 503.560983 -43.293034 
L 504.553689 -43.106754 
L 505.546395 -42.946313 
L 506.539101 -42.834066 
L 507.531807 -42.792798 
L 508.524513 -42.816365 
L 509.517219 -42.886231 
L 510.509925 -42.962508 
L 511.502631 -43.004043 
L 512.495337 -42.991567 
L 513.488043 -42.924986 
L 514.480749 -42.825347 
L 515.473455 -42.710819 
L 516.46616 -42.5962 
L 517.458866 -42.480189 
L 518.451572 -42.365295 
L 519.444278 -42.253478 
L 520.436984 -42.158204 
L 521.42969 -42.089366 
L 522.422396 -42.051515 
L 523.415102 -42.039458 
L 524.407808 -42.041032 
L 525.400514 -42.050723 
L 526.39322 -42.060551 
L 527.385926 -42.070364 
L 528.378632 -42.077153 
L 529.371337 -42.078385 
L 530.364043 -42.072091 
L 531.356749 -42.058561 
L 532.349455 -42.044912 
L 533.342161 -42.039731 
L 534.334867 -42.05226 
L 535.327573 -42.085232 
L 536.320279 -42.13357 
L 537.312985 -42.184195 
L 538.305691 -42.222979 
L 539.298397 -42.23651 
L 540.291103 -42.219089 
L 541.283809 -42.174881 
L 542.276514 -42.112651 
L 543.26922 -42.045656 
L 544.261926 -41.98584 
L 545.254632 -41.940339 
L 546.247338 -41.911497 
L 547.240044 -41.896938 
L 548.23275 -41.894469 
L 549.225456 -41.900762 
L 550.218162 -41.91553 
L 551.210868 -41.936949 
L 552.203574 -41.959738 
L 553.19628 -41.977572 
L 554.188986 -41.984361 
L 555.181692 -41.977572 
L 556.174397 -41.959738 
L 557.167103 -41.936949 
L 558.159809 -41.91553 
L 559.152515 -41.899342 
L 560.145221 -41.889158 
L 561.137927 -41.883734 
L 562.130633 -41.881264 
L 563.123339 -41.879844 
L 564.116045 -41.879844 
L 565.108751 -41.879844 
L 566.101457 -41.879844 
L 567.094163 -41.879844 
L 568.086869 -41.879844 
L 569.079574 -41.879844 
L 570.07228 -41.879844 
L 571.064986 -41.879844 
L 572.057692 -41.879844 
L 573.050398 -41.879844 
L 574.043104 -41.879844 
L 575.03581 -41.881264 
L 576.028516 -41.885154 
L 577.021222 -41.893048 
L 578.013928 -41.908656 
L 579.006634 -41.935028 
L 579.99934 -41.972636 
L 580.992046 -42.016844 
L 581.984751 -42.057466 
L 582.977457 -42.082089 
L 582.977457 -41.879844 
L 582.977457 -41.879844 
L 581.984751 -41.879844 
L 580.992046 -41.879844 
L 579.99934 -41.879844 
L 579.006634 -41.879844 
L 578.013928 -41.879844 
L 577.021222 -41.879844 
L 576.028516 -41.879844 
L 575.03581 -41.879844 
L 574.043104 -41.879844 
L 573.050398 -41.879844 
L 572.057692 -41.879844 
L 571.064986 -41.879844 
L 570.07228 -41.879844 
L 569.079574 -41.879844 
L 568.086869 -41.879844 
L 567.094163 -41.879844 
L 566.101457 -41.879844 
L 565.108751 -41.879844 
L 564.116045 -41.879844 
L 563.123339 -41.879844 
L 562.130633 -41.879844 
L 561.137927 -41.879844 
L 560.145221 -41.879844 
L 559.152515 -41.879844 
L 558.159809 -41.879844 
L 557.167103 -41.879844 
L 556.174397 -41.879844 
L 555.181692 -41.879844 
L 554.188986 -41.879844 
L 553.19628 -41.879844 
L 552.203574 -41.879844 
L 551.210868 -41.879844 
L 550.218162 -41.879844 
L 549.225456 -41.879844 
L 548.23275 -41.879844 
L 547.240044 -41.879844 
L 546.247338 -41.879844 
L 545.254632 -41.879844 
L 544.261926 -41.879844 
L 543.26922 -41.879844 
L 542.276514 -41.879844 
L 541.283809 -41.879844 
L 540.291103 -41.879844 
L 539.298397 -41.879844 
L 538.305691 -41.879844 
L 537.312985 -41.879844 
L 536.320279 -41.879844 
L 535.327573 -41.879844 
L 534.334867 -41.879844 
L 533.342161 -41.879844 
L 532.349455 -41.879844 
L 531.356749 -41.879844 
L 530.364043 -41.879844 
L 529.371337 -41.879844 
L 528.378632 -41.879844 
L 527.385926 -41.879844 
L 526.39322 -41.879844 
L 525.400514 -41.879844 
L 524.407808 -41.879844 
L 523.415102 -41.879844 
L 522.422396 -41.879844 
L 521.42969 -41.879844 
L 520.436984 -41.879844 
L 519.444278 -41.879844 
L 518.451572 -41.879844 
L 517.458866 -41.879844 
L 516.46616 -41.879844 
L 515.473455 -41.879844 
L 514.480749 -41.879844 
L 513.488043 -41.879844 
L 512.495337 -41.879844 
L 511.502631 -41.879844 
L 510.509925 -41.879844 
L 509.517219 -41.879844 
L 508.524513 -41.879844 
L 507.531807 -41.879844 
L 506.539101 -41.879844 
L 505.546395 -41.879844 
L 504.553689 -41.879844 
L 503.560983 -41.879844 
L 502.568278 -41.879844 
L 501.575572 -41.879844 
L 500.582866 -41.879844 
L 499.59016 -41.879844 
L 498.597454 -41.879844 
L 497.604748 -41.879844 
L 496.612042 -41.879844 
L 495.619336 -41.879844 
L 494.62663 -41.879844 
L 493.633924 -41.879844 
L 492.641218 -41.879844 
L 491.648512 -41.879844 
L 490.655806 -41.879844 
L 489.663101 -41.879844 
L 488.670395 -41.879844 
L 487.677689 -41.879844 
L 486.684983 -41.879844 
L 485.692277 -41.879844 
L 484.699571 -41.879844 
L 483.706865 -41.879844 
L 482.714159 -41.879844 
L 481.721453 -41.879844 
L 480.728747 -41.879844 
L 479.736041 -41.879844 
L 478.743335 -41.879844 
L 477.750629 -41.879844 
L 476.757923 -41.879844 
L 475.765218 -41.879844 
L 474.772512 -41.879844 
L 473.779806 -41.879844 
L 472.7871 -41.879844 
L 471.794394 -41.879844 
L 470.801688 -41.879844 
L 469.808982 -41.879844 
L 468.816276 -41.879844 
L 467.82357 -41.879844 
L 466.830864 -41.879844 
L 465.838158 -41.879844 
L 464.845452 -41.879844 
L 463.852746 -41.879844 
L 462.860041 -41.879844 
L 461.867335 -41.879844 
L 460.874629 -41.879844 
L 459.881923 -41.879844 
L 458.889217 -41.879844 
L 457.896511 -41.879844 
L 456.903805 -41.879844 
L 455.911099 -41.879844 
L 454.918393 -41.879844 
L 453.925687 -41.879844 
L 452.932981 -41.879844 
L 451.940275 -41.879844 
L 450.947569 -41.879844 
L 449.954864 -41.879844 
L 448.962158 -41.879844 
L 447.969452 -41.879844 
L 446.976746 -41.879844 
L 445.98404 -41.879844 
L 444.991334 -41.879844 
L 443.998628 -41.879844 
L 443.005922 -41.879844 
L 442.013216 -41.879844 
L 441.02051 -41.879844 
L 440.027804 -41.879844 
L 439.035098 -41.879844 
L 438.042392 -41.879844 
L 437.049687 -41.879844 
L 436.056981 -41.879844 
L 435.064275 -41.879844 
L 434.071569 -41.879844 
L 433.078863 -41.879844 
L 432.086157 -41.879844 
L 431.093451 -41.879844 
L 430.100745 -41.879844 
L 429.108039 -41.879844 
L 428.115333 -41.879844 
L 427.122627 -41.879844 
L 426.129921 -41.879844 
L 425.137215 -41.879844 
L 424.14451 -41.879844 
L 423.151804 -41.879844 
L 422.159098 -41.879844 
L 421.166392 -41.879844 
L 420.173686 -41.879844 
L 419.18098 -41.879844 
L 418.188274 -41.879844 
L 417.195568 -41.879844 
L 416.202862 -41.879844 
L 415.210156 -41.879844 
L 414.21745 -41.879844 
L 413.224744 -41.879844 
L 412.232038 -41.879844 
L 411.239332 -41.879844 
L 410.246627 -41.879844 
L 409.253921 -41.879844 
L 408.261215 -41.879844 
L 407.268509 -41.879844 
L 406.275803 -41.879844 
L 405.283097 -41.879844 
L 404.290391 -41.879844 
L 403.297685 -41.879844 
L 402.304979 -41.879844 
L 401.312273 -41.879844 
L 400.319567 -41.879844 
L 399.326861 -41.879844 
L 398.334155 -41.879844 
L 397.34145 -41.879844 
L 396.348744 -41.879844 
L 395.356038 -41.879844 
L 394.363332 -41.879844 
L 393.370626 -41.879844 
L 392.37792 -41.879844 
L 391.385214 -41.879844 
L 390.392508 -41.879844 
L 389.399802 -41.879844 
L 388.407096 -41.879844 
L 387.41439 -41.879844 
L 386.421684 -41.879844 
L 385.428978 -41.879844 
L 384.436273 -41.879844 
L 383.443567 -41.879844 
L 382.450861 -41.879844 
L 381.458155 -41.879844 
L 380.465449 -41.879844 
L 379.472743 -41.879844 
L 378.480037 -41.879844 
L 377.487331 -41.879844 
L 376.494625 -41.879844 
L 375.501919 -41.879844 
L 374.509213 -41.879844 
L 373.516507 -41.879844 
L 372.523801 -41.879844 
L 371.531096 -41.879844 
L 370.53839 -41.879844 
L 369.545684 -41.879844 
L 368.552978 -41.879844 
L 367.560272 -41.879844 
L 366.567566 -41.879844 
L 365.57486 -41.879844 
L 364.582154 -41.879844 
L 363.589448 -41.879844 
L 362.596742 -41.879844 
L 361.604036 -41.879844 
L 360.61133 -41.879844 
L 359.618624 -41.879844 
L 358.625919 -41.879844 
L 357.633213 -41.879844 
L 356.640507 -41.879844 
L 355.647801 -41.879844 
L 354.655095 -41.879844 
L 353.662389 -41.879844 
L 352.669683 -41.879844 
L 351.676977 -41.879844 
L 350.684271 -41.879844 
L 349.691565 -41.879844 
L 348.698859 -41.879844 
L 347.706153 -41.879844 
L 346.713447 -41.879844 
L 345.720741 -41.879844 
L 344.728036 -41.879844 
L 343.73533 -41.879844 
L 342.742624 -41.879844 
L 341.749918 -41.879844 
L 340.757212 -41.879844 
L 339.764506 -41.879844 
L 338.7718 -41.879844 
L 337.779094 -41.879844 
L 336.786388 -41.879844 
L 335.793682 -41.879844 
L 334.800976 -41.879844 
L 333.80827 -41.879844 
L 332.815564 -41.879844 
L 331.822859 -41.879844 
L 330.830153 -41.879844 
L 329.837447 -41.879844 
L 328.844741 -41.879844 
L 327.852035 -41.879844 
L 326.859329 -41.879844 
L 325.866623 -41.879844 
L 324.873917 -41.879844 
L 323.881211 -41.879844 
L 322.888505 -41.879844 
L 321.895799 -41.879844 
L 320.903093 -41.879844 
L 319.910387 -41.879844 
L 318.917682 -41.879844 
L 317.924976 -41.879844 
L 316.93227 -41.879844 
L 315.939564 -41.879844 
L 314.946858 -41.879844 
L 313.954152 -41.879844 
L 312.961446 -41.879844 
L 311.96874 -41.879844 
L 310.976034 -41.879844 
L 309.983328 -41.879844 
L 308.990622 -41.879844 
L 307.997916 -41.879844 
L 307.00521 -41.879844 
L 306.012505 -41.879844 
L 305.019799 -41.879844 
L 304.027093 -41.879844 
L 303.034387 -41.879844 
L 302.041681 -41.879844 
L 301.048975 -41.879844 
L 300.056269 -41.879844 
L 299.063563 -41.879844 
L 298.070857 -41.879844 
L 297.078151 -41.879844 
L 296.085445 -41.879844 
L 295.092739 -41.879844 
L 294.100033 -41.879844 
L 293.107328 -41.879844 
L 292.114622 -41.879844 
L 291.121916 -41.879844 
L 290.12921 -41.879844 
L 289.136504 -41.879844 
L 288.143798 -41.879844 
L 287.151092 -41.879844 
L 286.158386 -41.879844 
L 285.16568 -41.879844 
L 284.172974 -41.879844 
L 283.180268 -41.879844 
L 282.187562 -41.879844 
L 281.194856 -41.879844 
L 280.202151 -41.879844 
L 279.209445 -41.879844 
L 278.216739 -41.879844 
L 277.224033 -41.879844 
L 276.231327 -41.879844 
L 275.238621 -41.879844 
L 274.245915 -41.879844 
L 273.253209 -41.879844 
L 272.260503 -41.879844 
L 271.267797 -41.879844 
L 270.275091 -41.879844 
L 269.282385 -41.879844 
L 268.289679 -41.879844 
L 267.296973 -41.879844 
L 266.304268 -41.879844 
L 265.311562 -41.879844 
L 264.318856 -41.879844 
L 263.32615 -41.879844 
L 262.333444 -41.879844 
L 261.340738 -41.879844 
L 260.348032 -41.879844 
L 259.355326 -41.879844 
L 258.36262 -41.879844 
L 257.369914 -41.879844 
L 256.377208 -41.879844 
L 255.384502 -41.879844 
L 254.391796 -41.879844 
L 253.399091 -41.879844 
L 252.406385 -41.879844 
L 251.413679 -41.879844 
L 250.420973 -41.879844 
L 249.428267 -41.879844 
L 248.435561 -41.879844 
L 247.442855 -41.879844 
L 246.450149 -41.879844 
L 245.457443 -41.879844 
L 244.464737 -41.879844 
L 243.472031 -41.879844 
L 242.479325 -41.879844 
L 241.486619 -41.879844 
L 240.493914 -41.879844 
L 239.501208 -41.879844 
L 238.508502 -41.879844 
L 237.515796 -41.879844 
L 236.52309 -41.879844 
L 235.530384 -41.879844 
L 234.537678 -41.879844 
L 233.544972 -41.879844 
L 232.552266 -41.879844 
L 231.55956 -41.879844 
L 230.566854 -41.879844 
L 229.574148 -41.879844 
L 228.581442 -41.879844 
L 227.588737 -41.879844 
L 226.596031 -41.879844 
L 225.603325 -41.879844 
L 224.610619 -41.879844 
L 223.617913 -41.879844 
L 222.625207 -41.879844 
L 221.632501 -41.879844 
L 220.639795 -41.879844 
L 219.647089 -41.879844 
L 218.654383 -41.879844 
L 217.661677 -41.879844 
L 216.668971 -41.879844 
L 215.676265 -41.879844 
L 214.68356 -41.879844 
L 213.690854 -41.879844 
L 212.698148 -41.879844 
L 211.705442 -41.879844 
L 210.712736 -41.879844 
L 209.72003 -41.879844 
L 208.727324 -41.879844 
L 207.734618 -41.879844 
L 206.741912 -41.879844 
L 205.749206 -41.879844 
L 204.7565 -41.879844 
L 203.763794 -41.879844 
L 202.771088 -41.879844 
L 201.778382 -41.879844 
L 200.785677 -41.879844 
L 199.792971 -41.879844 
L 198.800265 -41.879844 
L 197.807559 -41.879844 
L 196.814853 -41.879844 
L 195.822147 -41.879844 
L 194.829441 -41.879844 
L 193.836735 -41.879844 
L 192.844029 -41.879844 
L 191.851323 -41.879844 
L 190.858617 -41.879844 
L 189.865911 -41.879844 
L 188.873205 -41.879844 
L 187.8805 -41.879844 
L 186.887794 -41.879844 
L 185.895088 -41.879844 
L 184.902382 -41.879844 
L 183.909676 -41.879844 
L 182.91697 -41.879844 
L 181.924264 -41.879844 
L 180.931558 -41.879844 
L 179.938852 -41.879844 
L 178.946146 -41.879844 
L 177.95344 -41.879844 
L 176.960734 -41.879844 
L 175.968028 -41.879844 
L 174.975323 -41.879844 
L 173.982617 -41.879844 
L 172.989911 -41.879844 
L 171.997205 -41.879844 
L 171.004499 -41.879844 
L 170.011793 -41.879844 
L 169.019087 -41.879844 
L 168.026381 -41.879844 
L 167.033675 -41.879844 
L 166.040969 -41.879844 
L 165.048263 -41.879844 
L 164.055557 -41.879844 
L 163.062851 -41.879844 
L 162.070146 -41.879844 
L 161.07744 -41.879844 
L 160.084734 -41.879844 
L 159.092028 -41.879844 
L 158.099322 -41.879844 
L 157.106616 -41.879844 
L 156.11391 -41.879844 
L 155.121204 -41.879844 
L 154.128498 -41.879844 
L 153.135792 -41.879844 
L 152.143086 -41.879844 
L 151.15038 -41.879844 
L 150.157674 -41.879844 
L 149.164969 -41.879844 
L 148.172263 -41.879844 
L 147.179557 -41.879844 
L 146.186851 -41.879844 
L 145.194145 -41.879844 
L 144.201439 -41.879844 
L 143.208733 -41.879844 
L 142.216027 -41.879844 
L 141.223321 -41.879844 
L 140.230615 -41.879844 
L 139.237909 -41.879844 
L 138.245203 -41.879844 
L 137.252497 -41.879844 
L 136.259791 -41.879844 
L 135.267086 -41.879844 
L 134.27438 -41.879844 
L 133.281674 -41.879844 
L 132.288968 -41.879844 
L 131.296262 -41.879844 
L 130.303556 -41.879844 
L 129.31085 -41.879844 
L 128.318144 -41.879844 
L 127.325438 -41.879844 
L 126.332732 -41.879844 
L 125.340026 -41.879844 
L 124.34732 -41.879844 
L 123.354614 -41.879844 
L 122.361909 -41.879844 
L 121.369203 -41.879844 
L 120.376497 -41.879844 
L 119.383791 -41.879844 
L 118.391085 -41.879844 
L 117.398379 -41.879844 
L 116.405673 -41.879844 
L 115.412967 -41.879844 
L 114.420261 -41.879844 
L 113.427555 -41.879844 
L 112.434849 -41.879844 
L 111.442143 -41.879844 
L 110.449437 -41.879844 
L 109.456732 -41.879844 
L 108.464026 -41.879844 
L 107.47132 -41.879844 
L 106.478614 -41.879844 
L 105.485908 -41.879844 
L 104.493202 -41.879844 
L 103.500496 -41.879844 
L 102.50779 -41.879844 
L 101.515084 -41.879844 
L 100.522378 -41.879844 
L 99.529672 -41.879844 
L 98.536966 -41.879844 
L 97.54426 -41.879844 
L 96.551555 -41.879844 
L 95.558849 -41.879844 
L 94.566143 -41.879844 
L 93.573437 -41.879844 
L 92.580731 -41.879844 
L 91.588025 -41.879844 
L 90.595319 -41.879844 
L 89.602613 -41.879844 
L 88.609907 -41.879844 
L 87.617201 -41.879844 
L 86.624495 -41.879844 
L 85.631789 -41.879844 
L 84.639083 -41.879844 
L 83.646378 -41.879844 
L 82.653672 -41.879844 
L 81.660966 -41.879844 
L 80.66826 -41.879844 
L 79.675554 -41.879844 
L 78.682848 -41.879844 
L 77.690142 -41.879844 
L 76.697436 -41.879844 
L 75.70473 -41.879844 
z
" style="stroke: #0173b2; stroke-opacity: 0"/>
    </defs>
    <g clip-path="url(#paedc95878a)">
     <use xlink:href="#mbc920d33b2" x="0" y="366.599844" style="fill: #0173b2; fill-opacity: 0; stroke: #0173b2; stroke-opacity: 0"/>
    </g>
   </g>
   <g id="line2d_17">
    <path d="M 75.70473 324.517755 
L 87.617201 324.72 
L 131.296262 324.632662 
L 139.237909 324.299196 
L 153.135792 324.534091 
L 157.106616 324.383654 
L 160.084734 324.39286 
L 164.055557 324.543954 
L 168.026381 324.374225 
L 171.997205 323.986391 
L 177.95344 323.118594 
L 181.924264 323.067328 
L 186.887794 322.436813 
L 189.865911 322.039034 
L 191.851323 322.020737 
L 195.822147 322.259662 
L 199.792971 322.049009 
L 201.778382 321.851531 
L 203.763794 321.433334 
L 207.734618 320.316391 
L 211.705442 319.629627 
L 217.661677 317.672062 
L 220.639795 316.474361 
L 222.625207 315.765018 
L 226.596031 314.83247 
L 227.588737 314.386335 
L 229.574148 312.997098 
L 231.55956 311.513091 
L 233.544972 310.307604 
L 235.530384 309.360332 
L 237.515796 308.767823 
L 238.508502 308.496095 
L 239.501208 308.08184 
L 240.493914 307.457148 
L 244.464737 304.17563 
L 247.442855 302.132753 
L 248.435561 301.126127 
L 249.428267 299.777974 
L 250.420973 298.078424 
L 252.406385 293.861629 
L 255.384502 286.754397 
L 257.369914 281.49431 
L 260.348032 273.473802 
L 261.340738 271.34607 
L 262.333444 269.722259 
L 263.32615 268.71639 
L 264.318856 268.387558 
L 265.311562 268.682029 
L 268.289679 270.765592 
L 269.282385 270.806261 
L 270.275091 270.305734 
L 271.267797 269.39422 
L 274.245915 265.850405 
L 276.231327 263.067475 
L 281.194856 254.8426 
L 283.180268 252.07693 
L 284.172974 250.471006 
L 285.16568 248.546848 
L 286.158386 246.202567 
L 287.151092 243.299014 
L 289.136504 236.101379 
L 294.100033 216.764246 
L 295.092739 211.760157 
L 296.085445 206.113031 
L 297.078151 199.341611 
L 298.070857 190.930069 
L 299.063563 180.401104 
L 302.041681 141.334468 
L 303.034387 131.551406 
L 304.027093 125.553212 
L 305.019799 122.754457 
L 306.012505 121.609293 
L 307.00521 121.040754 
L 307.997916 120.263811 
L 308.990622 118.784127 
L 309.983328 116.031643 
L 310.976034 111.394276 
L 311.96874 105.300438 
L 313.954152 91.897973 
L 314.946858 87.245506 
L 317.924976 78.148418 
L 318.917682 74.15953 
L 319.910387 68.701908 
L 320.903093 61.483609 
L 322.888505 43.902306 
L 323.881211 37.859104 
L 324.873917 37.483963 
L 325.866623 43.540482 
L 328.844741 74.398392 
L 329.837447 80.654976 
L 332.815564 94.279729 
L 333.80827 99.816614 
L 334.800976 104.161876 
L 335.793682 107.047849 
L 336.786388 107.98654 
L 337.779094 106.741545 
L 338.7718 103.122916 
L 339.764506 96.9094 
L 340.757212 88.476104 
L 342.742624 70.529971 
L 343.73533 65.061333 
L 344.728036 63.613731 
L 345.720741 65.46188 
L 346.713447 68.341359 
L 347.706153 69.886453 
L 348.698859 68.38162 
L 349.691565 62.94286 
L 350.684271 53.911594 
L 352.669683 31.570007 
L 353.662389 23.745113 
L 354.655095 22.32 
L 355.647801 28.86492 
L 356.640507 42.334716 
L 358.625919 76.95067 
L 359.618624 91.470022 
L 360.61133 102.170275 
L 361.604036 109.515322 
L 362.596742 114.799324 
L 364.582154 124.095167 
L 365.57486 129.501498 
L 366.567566 135.936871 
L 368.552978 151.365583 
L 370.53839 167.317281 
L 371.531096 173.712556 
L 372.523801 177.903773 
L 373.516507 178.900949 
L 374.509213 176.039074 
L 375.501919 169.637848 
L 377.487331 153.18021 
L 378.480037 148.267608 
L 379.472743 148.196766 
L 380.465449 152.95339 
L 383.443567 176.035093 
L 384.436273 179.049759 
L 385.428978 177.611522 
L 386.421684 171.829647 
L 387.41439 162.562759 
L 389.399802 140.581442 
L 390.392508 132.184717 
L 391.385214 127.718405 
L 392.37792 127.370776 
L 393.370626 130.355704 
L 395.356038 139.760804 
L 396.348744 143.084 
L 397.34145 144.360052 
L 398.334155 143.790168 
L 399.326861 142.539778 
L 400.319567 142.159695 
L 401.312273 143.968275 
L 402.304979 148.443597 
L 404.290391 161.405051 
L 405.283097 166.54549 
L 406.275803 169.198164 
L 407.268509 169.255037 
L 408.261215 167.52723 
L 409.253921 165.339088 
L 410.246627 163.925439 
L 411.239332 164.339585 
L 412.232038 167.060246 
L 413.224744 172.147936 
L 414.21745 179.118045 
L 417.195568 203.08683 
L 418.188274 209.660898 
L 419.18098 215.002194 
L 420.173686 219.294485 
L 422.159098 226.18937 
L 423.151804 229.551018 
L 424.14451 233.308908 
L 425.137215 237.642475 
L 427.122627 247.859752 
L 429.108039 258.533564 
L 430.100745 263.32422 
L 431.093451 267.526648 
L 432.086157 271.077238 
L 433.078863 274.082622 
L 435.064275 279.068656 
L 438.042392 285.720552 
L 440.027804 289.792878 
L 442.013216 293.394258 
L 443.005922 294.873734 
L 443.998628 296.045859 
L 444.991334 296.955994 
L 447.969452 299.304106 
L 449.954864 301.29435 
L 452.932981 304.554031 
L 457.896511 310.497488 
L 459.881923 312.44662 
L 461.867335 314.071732 
L 463.852746 315.229613 
L 465.838158 315.94289 
L 477.750629 319.025273 
L 481.721453 320.396629 
L 484.699571 321.037553 
L 486.684983 321.445704 
L 488.670395 322.066289 
L 491.648512 323.105498 
L 492.641218 323.267271 
L 493.633924 323.29322 
L 495.619336 323.039235 
L 497.604748 322.728091 
L 499.59016 322.686493 
L 501.575572 322.933158 
L 506.539101 323.765778 
L 508.524513 323.783479 
L 512.495337 323.608277 
L 515.473455 323.889025 
L 521.42969 324.510477 
L 524.407808 324.558812 
L 542.276514 324.487193 
L 546.247338 324.688347 
L 551.210868 324.662895 
L 556.174397 324.640106 
L 564.116045 324.72 
L 579.99934 324.627208 
L 582.977457 324.517755 
L 582.977457 324.517755 
" clip-path="url(#paedc95878a)" style="fill: none; stroke: #0173b2; stroke-width: 1.5; stroke-linecap: round"/>
   </g>
   <g id="patch_3">
    <path d="M 50.341094 339.84 
L 50.341094 7.2 
" style="fill: none; stroke: #ffffff; stroke-width: 1.25; stroke-linejoin: miter; stroke-linecap: square"/>
   </g>
   <g id="patch_4">
    <path d="M 608.341094 339.84 
L 608.341094 7.2 
" style="fill: none; stroke: #ffffff; stroke-width: 1.25; stroke-linejoin: miter; stroke-linecap: square"/>
   </g>
   <g id="patch_5">
    <path d="M 50.341094 339.84 
L 608.341094 339.84 
" style="fill: none; stroke: #ffffff; stroke-width: 1.25; stroke-linejoin: miter; stroke-linecap: square"/>
   </g>
   <g id="patch_6">
    <path d="M 50.341094 7.2 
L 608.341094 7.2 
" style="fill: none; stroke: #ffffff; stroke-width: 1.25; stroke-linejoin: miter; stroke-linecap: square"/>
   </g>
  </g>
 </g>
 <defs>
  <clipPath id="paedc95878a">
   <rect x="50.341094" y="7.2" width="558" height="332.64"/>
  </clipPath>
 </defs>
</svg>