<?xml version="1.0" encoding="utf-8" standalone="no"?>
<!DOCTYPE svg PUBLIC "-//W3C//DTD SVG 1.1//EN"
  "http://www.w3.org/Graphics/SVG/1.1/DTD/svg11.dtd">
<svg xmlns:xlink="http://www.w3.org/1999/xlink" width="612.45125pt" height="381.574219pt" viewBox="0 0 612.45125 381.574219" xmlns="http://www.w3.org/2000/svg" version="1.1">
 <metadata>
  <rdf:RDF xmlns:dc="http://purl.org/dc/elements/1.1/" xmlns:cc="http://creativecommons.org/ns#" xmlns:rdf="http://www.w3.org/1999/02/22-rdf-syntax-ns#">
   <cc:Work>
    <dc:type rdf:resource="http://purl.org/dc/dcmitype/StillImage"/>
    <dc:date>2023-05-08T00:42:34.011018</dc:date>
    <dc:format>image/svg+xml</dc:format>
    <dc:creator>
     <cc:Agent>
      <dc:title>Matplotlib v3.7.1, https://matplotlib.org/</dc:title>
     </cc:Agent>
    </dc:creator>
   </cc:Work>
  </rdf:RDF>
 </metadata>
 <defs>
  <style type="text/css">*{stroke-linejoin: round; stroke-linecap: butt}</style>
 </defs>
 <g id="figure_1">
  <g id="patch_1">
   <path d="M 0 381.574219 
L 612.45125 381.574219 
L 612.45125 0 
L 0 0 
z
" style="fill: #ffffff"/>
  </g>
  <g id="axes_1">
   <g id="patch_2">
    <path d="M 47.25125 339.84 
L 605.25125 339.84 
L 605.25125 7.2 
L 47.25125 7.2 
z
" style="fill: #eaeaf2"/>
   </g>
   <g id="matplotlib.axis_1">
    <g id="xtick_1">
     <g id="line2d_1">
      <path d="M 72.614886 339.84 
L 72.614886 7.2 
" clip-path="url(#pa78d6c550a)" style="fill: none; stroke: #ffffff; stroke-linecap: round"/>
     </g>
     <g id="text_1">
      <!-- 0 -->
      <g style="fill: #262626" transform="translate(69.556371 357.213594) scale(0.11 -0.11)">
       <defs>
        <path id="ArialMT-30" d="M 266 2259 
Q 266 3072 433 3567 
Q 600 4063 929 4331 
Q 1259 4600 1759 4600 
Q 2128 4600 2406 4451 
Q 2684 4303 2865 4023 
Q 3047 3744 3150 3342 
Q 3253 2941 3253 2259 
Q 3253 1453 3087 958 
Q 2922 463 2592 192 
Q 2263 -78 1759 -78 
Q 1097 -78 719 397 
Q 266 969 266 2259 
z
M 844 2259 
Q 844 1131 1108 757 
Q 1372 384 1759 384 
Q 2147 384 2411 759 
Q 2675 1134 2675 2259 
Q 2675 3391 2411 3762 
Q 2147 4134 1753 4134 
Q 1366 4134 1134 3806 
Q 844 3388 844 2259 
z
" transform="scale(0.015625)"/>
       </defs>
       <use xlink:href="#ArialMT-30"/>
      </g>
     </g>
    </g>
    <g id="xtick_2">
     <g id="line2d_2">
      <path d="M 136.182897 339.84 
L 136.182897 7.2 
" clip-path="url(#pa78d6c550a)" style="fill: none; stroke: #ffffff; stroke-linecap: round"/>
     </g>
     <g id="text_2">
      <!-- 5 -->
      <g style="fill: #262626" transform="translate(133.124382 357.213594) scale(0.11 -0.11)">
       <defs>
        <path id="ArialMT-35" d="M 266 1200 
L 856 1250 
Q 922 819 1161 601 
Q 1400 384 1738 384 
Q 2144 384 2425 690 
Q 2706 997 2706 1503 
Q 2706 1984 2436 2262 
Q 2166 2541 1728 2541 
Q 1456 2541 1237 2417 
Q 1019 2294 894 2097 
L 366 2166 
L 809 4519 
L 3088 4519 
L 3088 3981 
L 1259 3981 
L 1013 2750 
Q 1425 3038 1878 3038 
Q 2478 3038 2890 2622 
Q 3303 2206 3303 1553 
Q 3303 931 2941 478 
Q 2500 -78 1738 -78 
Q 1113 -78 717 272 
Q 322 622 266 1200 
z
" transform="scale(0.015625)"/>
       </defs>
       <use xlink:href="#ArialMT-35"/>
      </g>
     </g>
    </g>
    <g id="xtick_3">
     <g id="line2d_3">
      <path d="M 199.750908 339.84 
L 199.750908 7.2 
" clip-path="url(#pa78d6c550a)" style="fill: none; stroke: #ffffff; stroke-linecap: round"/>
     </g>
     <g id="text_3">
      <!-- 10 -->
      <g style="fill: #262626" transform="translate(193.633877 357.213594) scale(0.11 -0.11)">
       <defs>
        <path id="ArialMT-31" d="M 2384 0 
L 1822 0 
L 1822 3584 
Q 1619 3391 1289 3197 
Q 959 3003 697 2906 
L 697 3450 
Q 1169 3672 1522 3987 
Q 1875 4303 2022 4600 
L 2384 4600 
L 2384 0 
z
" transform="scale(0.015625)"/>
       </defs>
       <use xlink:href="#ArialMT-31"/>
       <use xlink:href="#ArialMT-30" x="55.615234"/>
      </g>
     </g>
    </g>
    <g id="xtick_4">
     <g id="line2d_4">
      <path d="M 263.318919 339.84 
L 263.318919 7.2 
" clip-path="url(#pa78d6c550a)" style="fill: none; stroke: #ffffff; stroke-linecap: round"/>
     </g>
     <g id="text_4">
      <!-- 15 -->
      <g style="fill: #262626" transform="translate(257.201888 357.213594) scale(0.11 -0.11)">
       <use xlink:href="#ArialMT-31"/>
       <use xlink:href="#ArialMT-35" x="55.615234"/>
      </g>
     </g>
    </g>
    <g id="xtick_5">
     <g id="line2d_5">
      <path d="M 326.88693 339.84 
L 326.88693 7.2 
" clip-path="url(#pa78d6c550a)" style="fill: none; stroke: #ffffff; stroke-linecap: round"/>
     </g>
     <g id="text_5">
      <!-- 20 -->
      <g style="fill: #262626" transform="translate(320.769899 357.213594) scale(0.11 -0.11)">
       <defs>
        <path id="ArialMT-32" d="M 3222 541 
L 3222 0 
L 194 0 
Q 188 203 259 391 
Q 375 700 629 1000 
Q 884 1300 1366 1694 
Q 2113 2306 2375 2664 
Q 2638 3022 2638 3341 
Q 2638 3675 2398 3904 
Q 2159 4134 1775 4134 
Q 1369 4134 1125 3890 
Q 881 3647 878 3216 
L 300 3275 
Q 359 3922 746 4261 
Q 1134 4600 1788 4600 
Q 2447 4600 2831 4234 
Q 3216 3869 3216 3328 
Q 3216 3053 3103 2787 
Q 2991 2522 2730 2228 
Q 2469 1934 1863 1422 
Q 1356 997 1212 845 
Q 1069 694 975 541 
L 3222 541 
z
" transform="scale(0.015625)"/>
       </defs>
       <use xlink:href="#ArialMT-32"/>
       <use xlink:href="#ArialMT-30" x="55.615234"/>
      </g>
     </g>
    </g>
    <g id="xtick_6">
     <g id="line2d_6">
      <path d="M 390.454941 339.84 
L 390.454941 7.2 
" clip-path="url(#pa78d6c550a)" style="fill: none; stroke: #ffffff; stroke-linecap: round"/>
     </g>
     <g id="text_6">
      <!-- 25 -->
      <g style="fill: #262626" transform="translate(384.33791 357.213594) scale(0.11 -0.11)">
       <use xlink:href="#ArialMT-32"/>
       <use xlink:href="#ArialMT-35" x="55.615234"/>
      </g>
     </g>
    </g>
    <g id="xtick_7">
     <g id="line2d_7">
      <path d="M 454.022952 339.84 
L 454.022952 7.2 
" clip-path="url(#pa78d6c550a)" style="fill: none; stroke: #ffffff; stroke-linecap: round"/>
     </g>
     <g id="text_7">
      <!-- 30 -->
      <g style="fill: #262626" transform="translate(447.905921 357.213594) scale(0.11 -0.11)">
       <defs>
        <path id="ArialMT-33" d="M 269 1209 
L 831 1284 
Q 928 806 1161 595 
Q 1394 384 1728 384 
Q 2125 384 2398 659 
Q 2672 934 2672 1341 
Q 2672 1728 2419 1979 
Q 2166 2231 1775 2231 
Q 1616 2231 1378 2169 
L 1441 2663 
Q 1497 2656 1531 2656 
Q 1891 2656 2178 2843 
Q 2466 3031 2466 3422 
Q 2466 3731 2256 3934 
Q 2047 4138 1716 4138 
Q 1388 4138 1169 3931 
Q 950 3725 888 3313 
L 325 3413 
Q 428 3978 793 4289 
Q 1159 4600 1703 4600 
Q 2078 4600 2393 4439 
Q 2709 4278 2876 4000 
Q 3044 3722 3044 3409 
Q 3044 3113 2884 2869 
Q 2725 2625 2413 2481 
Q 2819 2388 3044 2092 
Q 3269 1797 3269 1353 
Q 3269 753 2831 336 
Q 2394 -81 1725 -81 
Q 1122 -81 723 278 
Q 325 638 269 1209 
z
" transform="scale(0.015625)"/>
       </defs>
       <use xlink:href="#ArialMT-33"/>
       <use xlink:href="#ArialMT-30" x="55.615234"/>
      </g>
     </g>
    </g>
    <g id="xtick_8">
     <g id="line2d_8">
      <path d="M 517.590963 339.84 
L 517.590963 7.2 
" clip-path="url(#pa78d6c550a)" style="fill: none; stroke: #ffffff; stroke-linecap: round"/>
     </g>
     <g id="text_8">
      <!-- 35 -->
      <g style="fill: #262626" transform="translate(511.473932 357.213594) scale(0.11 -0.11)">
       <use xlink:href="#ArialMT-33"/>
       <use xlink:href="#ArialMT-35" x="55.615234"/>
      </g>
     </g>
    </g>
    <g id="xtick_9">
     <g id="line2d_9">
      <path d="M 581.158974 339.84 
L 581.158974 7.2 
" clip-path="url(#pa78d6c550a)" style="fill: none; stroke: #ffffff; stroke-linecap: round"/>
     </g>
     <g id="text_9">
      <!-- 40 -->
      <g style="fill: #262626" transform="translate(575.041943 357.213594) scale(0.11 -0.11)">
       <defs>
        <path id="ArialMT-34" d="M 2069 0 
L 2069 1097 
L 81 1097 
L 81 1613 
L 2172 4581 
L 2631 4581 
L 2631 1613 
L 3250 1613 
L 3250 1097 
L 2631 1097 
L 2631 0 
L 2069 0 
z
M 2069 1613 
L 2069 3678 
L 634 1613 
L 2069 1613 
z
" transform="scale(0.015625)"/>
       </defs>
       <use xlink:href="#ArialMT-34"/>
       <use xlink:href="#ArialMT-30" x="55.615234"/>
      </g>
     </g>
    </g>
    <g id="text_10">
     <!-- x -->
     <g style="fill: #262626" transform="translate(323.25125 371.989219) scale(0.12 -0.12)">
      <defs>
       <path id="ArialMT-78" d="M 47 0 
L 1259 1725 
L 138 3319 
L 841 3319 
L 1350 2541 
Q 1494 2319 1581 2169 
Q 1719 2375 1834 2534 
L 2394 3319 
L 3066 3319 
L 1919 1756 
L 3153 0 
L 2463 0 
L 1781 1031 
L 1600 1309 
L 728 0 
L 47 0 
z
" transform="scale(0.015625)"/>
      </defs>
      <use xlink:href="#ArialMT-78"/>
     </g>
    </g>
   </g>
   <g id="matplotlib.axis_2">
    <g id="ytick_1">
     <g id="line2d_10">
      <path d="M 47.25125 324.72 
L 605.25125 324.72 
" clip-path="url(#pa78d6c550a)" style="fill: none; stroke: #ffffff; stroke-linecap: round"/>
     </g>
     <g id="text_11">
      <!-- 0.0 -->
      <g style="fill: #262626" transform="translate(22.46125 328.656797) scale(0.11 -0.11)">
       <defs>
        <path id="ArialMT-2e" d="M 581 0 
L 581 641 
L 1222 641 
L 1222 0 
L 581 0 
z
" transform="scale(0.015625)"/>
       </defs>
       <use xlink:href="#ArialMT-30"/>
       <use xlink:href="#ArialMT-2e" x="55.615234"/>
       <use xlink:href="#ArialMT-30" x="83.398438"/>
      </g>
     </g>
    </g>
    <g id="ytick_2">
     <g id="line2d_11">
      <path d="M 47.25125 264.24 
L 605.25125 264.24 
" clip-path="url(#pa78d6c550a)" style="fill: none; stroke: #ffffff; stroke-linecap: round"/>
     </g>
     <g id="text_12">
      <!-- 0.1 -->
      <g style="fill: #262626" transform="translate(22.46125 268.176797) scale(0.11 -0.11)">
       <use xlink:href="#ArialMT-30"/>
       <use xlink:href="#ArialMT-2e" x="55.615234"/>
       <use xlink:href="#ArialMT-31" x="83.398438"/>
      </g>
     </g>
    </g>
    <g id="ytick_3">
     <g id="line2d_12">
      <path d="M 47.25125 203.76 
L 605.25125 203.76 
" clip-path="url(#pa78d6c550a)" style="fill: none; stroke: #ffffff; stroke-linecap: round"/>
     </g>
     <g id="text_13">
      <!-- 0.2 -->
      <g style="fill: #262626" transform="translate(22.46125 207.696797) scale(0.11 -0.11)">
       <use xlink:href="#ArialMT-30"/>
       <use xlink:href="#ArialMT-2e" x="55.615234"/>
       <use xlink:href="#ArialMT-32" x="83.398438"/>
      </g>
     </g>
    </g>
    <g id="ytick_4">
     <g id="line2d_13">
      <path d="M 47.25125 143.28 
L 605.25125 143.28 
" clip-path="url(#pa78d6c550a)" style="fill: none; stroke: #ffffff; stroke-linecap: round"/>
     </g>
     <g id="text_14">
      <!-- 0.3 -->
      <g style="fill: #262626" transform="translate(22.46125 147.216797) scale(0.11 -0.11)">
       <use xlink:href="#ArialMT-30"/>
       <use xlink:href="#ArialMT-2e" x="55.615234"/>
       <use xlink:href="#ArialMT-33" x="83.398438"/>
      </g>
     </g>
    </g>
    <g id="ytick_5">
     <g id="line2d_14">
      <path d="M 47.25125 82.8 
L 605.25125 82.8 
" clip-path="url(#pa78d6c550a)" style="fill: none; stroke: #ffffff; stroke-linecap: round"/>
     </g>
     <g id="text_15">
      <!-- 0.4 -->
      <g style="fill: #262626" transform="translate(22.46125 86.736797) scale(0.11 -0.11)">
       <use xlink:href="#ArialMT-30"/>
       <use xlink:href="#ArialMT-2e" x="55.615234"/>
       <use xlink:href="#ArialMT-34" x="83.398438"/>
      </g>
     </g>
    </g>
    <g id="ytick_6">
     <g id="line2d_15">
      <path d="M 47.25125 22.32 
L 605.25125 22.32 
" clip-path="url(#pa78d6c550a)" style="fill: none; stroke: #ffffff; stroke-linecap: round"/>
     </g>
     <g id="text_16">
      <!-- 0.5 -->
      <g style="fill: #262626" transform="translate(22.46125 26.256797) scale(0.11 -0.11)">
       <use xlink:href="#ArialMT-30"/>
       <use xlink:href="#ArialMT-2e" x="55.615234"/>
       <use xlink:href="#ArialMT-35" x="83.398438"/>
      </g>
     </g>
    </g>
    <g id="text_17">
     <!-- f(x) -->
     <g style="fill: #262626" transform="translate(15.935625 182.1825) rotate(-90) scale(0.12 -0.12)">
      <defs>
       <path id="ArialMT-66" d="M 556 0 
L 556 2881 
L 59 2881 
L 59 3319 
L 556 3319 
L 556 3672 
Q 556 4006 616 4169 
Q 697 4388 901 4523 
Q 1106 4659 1475 4659 
Q 1713 4659 2000 4603 
L 1916 4113 
Q 1741 4144 1584 4144 
Q 1328 4144 1222 4034 
Q 1116 3925 1116 3625 
L 1116 3319 
L 1763 3319 
L 1763 2881 
L 1116 2881 
L 1116 0 
L 556 0 
z
" transform="scale(0.015625)"/>
       <path id="ArialMT-28" d="M 1497 -1347 
Q 1031 -759 709 28 
Q 388 816 388 1659 
Q 388 2403 628 3084 
Q 909 3875 1497 4659 
L 1900 4659 
Q 1522 4009 1400 3731 
Q 1209 3300 1100 2831 
Q 966 2247 966 1656 
Q 966 153 1900 -1347 
L 1497 -1347 
z
" transform="scale(0.015625)"/>
       <path id="ArialMT-29" d="M 791 -1347 
L 388 -1347 
Q 1322 153 1322 1656 
Q 1322 2244 1188 2822 
Q 1081 3291 891 3722 
Q 769 4003 388 4659 
L 791 4659 
Q 1378 3875 1659 3084 
Q 1900 2403 1900 1659 
Q 1900 816 1576 28 
Q 1253 -759 791 -1347 
z
" transform="scale(0.015625)"/>
      </defs>
      <use xlink:href="#ArialMT-66"/>
      <use xlink:href="#ArialMT-28" x="27.783203"/>
      <use xlink:href="#ArialMT-78" x="61.083984"/>
      <use xlink:href="#ArialMT-29" x="111.083984"/>
     </g>
    </g>
   </g>
   <g id="line2d_16">
    <path d="M 72.614886 22.32 
L 75.157607 51.097165 
L 77.700327 77.13582 
L 80.243048 100.69657 
L 82.785768 122.015218 
L 85.328489 141.305129 
L 87.871209 158.759361 
L 90.413929 174.552604 
L 92.95665 188.842921 
L 95.49937 201.773335 
L 98.042091 213.473257 
L 100.584811 224.059784 
L 103.127532 233.63887 
L 105.670252 242.306386 
L 108.212972 250.149078 
L 110.755693 257.24544 
L 113.298413 263.666493 
L 115.841134 269.476502 
L 118.383854 274.733616 
L 120.926575 279.49045 
L 123.469295 283.79461 
L 126.012016 287.689176 
L 128.554736 291.213125 
L 131.097456 294.401726 
L 133.640177 297.286891 
L 136.182897 299.897496 
L 138.725618 302.25967 
L 141.268338 304.397053 
L 143.811059 306.331037 
L 147.625139 308.892473 
L 151.43922 311.097121 
L 155.253301 312.99468 
L 159.067381 314.627923 
L 162.881462 316.033669 
L 166.695543 317.243606 
L 171.780983 318.598846 
L 176.866424 319.708423 
L 181.951865 320.616868 
L 188.308666 321.524477 
L 195.936828 322.352699 
L 204.836349 323.051791 
L 215.007231 323.601766 
L 227.720833 324.041757 
L 244.248516 324.365926 
L 268.40436 324.583065 
L 310.359247 324.693702 
L 446.394791 324.719875 
L 579.887614 324.719999 
L 579.887614 324.719999 
" clip-path="url(#pa78d6c550a)" style="fill: none; stroke: #0173b2; stroke-width: 1.5; stroke-linecap: round"/>
   </g>
   <g id="line2d_17">
    <path d="M 72.614886 324.72 
L 73.886247 310.337411 
L 75.157607 297.357716 
L 76.428967 285.678286 
L 77.700327 275.203164 
L 78.971687 265.842661 
L 80.243048 257.512971 
L 81.514408 250.135813 
L 82.785768 243.638087 
L 84.057128 237.951561 
L 85.328489 233.012564 
L 86.599849 228.761708 
L 87.871209 225.143617 
L 89.142569 222.106682 
L 90.413929 219.602823 
L 91.68529 217.587266 
L 92.95665 216.018337 
L 94.22801 214.857266 
L 95.49937 214.068001 
L 96.770731 213.617039 
L 98.042091 213.473257 
L 99.313451 213.607766 
L 100.584811 213.993763 
L 101.856171 214.606397 
L 103.127532 215.422644 
L 104.398892 216.421187 
L 106.941612 218.887756 
L 109.484333 221.86562 
L 112.027053 225.23513 
L 115.841134 230.806054 
L 120.926575 238.783854 
L 132.368817 256.946859 
L 137.454258 264.509666 
L 141.268338 269.848043 
L 145.082419 274.86745 
L 148.896499 279.553172 
L 152.71058 283.900778 
L 156.524661 287.91355 
L 160.338741 291.600412 
L 164.152822 294.974303 
L 167.966903 298.050876 
L 171.780983 300.847499 
L 175.595064 303.382469 
L 179.409145 305.674418 
L 183.223225 307.741862 
L 187.037306 309.602878 
L 192.122747 311.793065 
L 197.208188 313.685951 
L 202.293629 315.317354 
L 207.37907 316.719873 
L 212.46451 317.922882 
L 218.821312 319.185781 
L 225.178113 320.222552 
L 232.806274 321.221619 
L 240.434435 322.004923 
L 249.333957 322.705256 
L 259.504839 323.291749 
L 272.218441 323.794791 
L 287.474763 324.173425 
L 307.816527 324.451156 
L 338.329172 324.628521 
L 398.083102 324.709314 
L 579.887614 324.719987 
L 579.887614 324.719987 
" clip-path="url(#pa78d6c550a)" style="fill: none; stroke: #de8f05; stroke-width: 1.5; stroke-linecap: round"/>
   </g>
   <g id="line2d_18">
    <path d="M 72.614886 324.72 
L 75.157607 324.674396 
L 77.700327 324.389888 
L 80.243048 323.711895 
L 81.514408 323.19724 
L 82.785768 322.557816 
L 85.328489 320.898857 
L 87.871209 318.745417 
L 90.413929 316.135431 
L 92.95665 313.125156 
L 95.49937 309.78198 
L 99.313451 304.303127 
L 105.670252 294.542882 
L 112.027053 284.8846 
L 115.841134 279.484783 
L 119.655214 274.543435 
L 122.197935 271.550799 
L 124.740655 268.823009 
L 127.283376 266.373773 
L 129.826096 264.211623 
L 132.368817 262.340471 
L 134.911537 260.760169 
L 137.454258 259.46705 
L 139.996978 258.454454 
L 142.539698 257.713213 
L 145.082419 257.232111 
L 147.625139 256.998298 
L 150.16786 256.997671 
L 152.71058 257.215212 
L 155.253301 257.635289 
L 157.796021 258.241924 
L 160.338741 259.019018 
L 164.152822 260.469294 
L 167.966903 262.214241 
L 171.780983 264.203211 
L 176.866424 267.15285 
L 183.223225 271.175199 
L 192.122747 277.127333 
L 204.836349 285.626076 
L 212.46451 290.451195 
L 218.821312 294.224146 
L 225.178113 297.735312 
L 231.534914 300.966365 
L 237.891715 303.910748 
L 244.248516 306.570941 
L 250.605317 308.956114 
L 256.962118 311.080151 
L 263.318919 312.960044 
L 269.67572 314.614602 
L 276.032521 316.063454 
L 283.660683 317.558226 
L 291.288844 318.81808 
L 300.188366 320.032254 
L 309.087887 321.013699 
L 319.258769 321.901038 
L 330.701011 322.660605 
L 343.414613 323.277077 
L 358.670936 323.786584 
L 377.741339 324.184893 
L 403.168543 324.469716 
L 441.30935 324.642507 
L 517.590963 324.713217 
L 579.887614 324.719133 
L 579.887614 324.719133 
" clip-path="url(#pa78d6c550a)" style="fill: none; stroke: #029e73; stroke-width: 1.5; stroke-linecap: round"/>
   </g>
   <g id="line2d_19">
    <path d="M 72.614886 324.72 
L 105.670252 324.617394 
L 114.569774 324.336334 
L 120.926575 323.917829 
L 126.012016 323.396671 
L 131.097456 322.671817 
L 136.182897 321.713958 
L 141.268338 320.50204 
L 146.353779 319.025138 
L 151.43922 317.283472 
L 156.524661 315.288581 
L 161.610102 313.062729 
L 167.966903 310.004812 
L 175.595064 306.037123 
L 199.750908 293.135873 
L 206.107709 290.108506 
L 211.19315 287.905251 
L 216.278591 285.929394 
L 221.364032 284.20465 
L 226.449473 282.748233 
L 231.534914 281.570988 
L 236.620355 280.677715 
L 241.705795 280.067635 
L 246.791236 279.734966 
L 251.876677 279.669567 
L 256.962118 279.857621 
L 262.047559 280.282331 
L 267.133 280.924599 
L 272.218441 281.763671 
L 278.575242 283.055989 
L 284.932043 284.578125 
L 292.560204 286.647032 
L 301.459726 289.304084 
L 314.173328 293.356905 
L 337.057812 300.691757 
L 348.500054 304.11065 
L 358.670936 306.920574 
L 368.841817 309.482911 
L 377.741339 311.510506 
L 386.64086 313.336309 
L 396.811742 315.181768 
L 406.982624 316.782951 
L 417.153506 318.158002 
L 428.595748 319.460739 
L 440.03799 320.535237 
L 452.751592 321.499398 
L 466.736554 322.327188 
L 481.992877 323.006866 
L 499.79192 323.574041 
L 521.405044 324.028063 
L 548.103608 324.357143 
L 579.887614 324.556478 
L 579.887614 324.556478 
" clip-path="url(#pa78d6c550a)" style="fill: none; stroke: #d55e00; stroke-width: 1.5; stroke-linecap: round"/>
   </g>
   <g id="patch_3">
    <path d="M 47.25125 339.84 
L 47.25125 7.2 
" style="fill: none; stroke: #ffffff; stroke-width: 1.25; stroke-linejoin: miter; stroke-linecap: square"/>
   </g>
   <g id="patch_4">
    <path d="M 605.25125 339.84 
L 605.25125 7.2 
" style="fill: none; stroke: #ffffff; stroke-width: 1.25; stroke-linejoin: miter; stroke-linecap: square"/>
   </g>
   <g id="patch_5">
    <path d="M 47.25125 339.84 
L 605.25125 339.84 
" style="fill: none; stroke: #ffffff; stroke-width: 1.25; stroke-linejoin: miter; stroke-linecap: square"/>
   </g>
   <g id="patch_6">
    <path d="M 47.25125 7.2 
L 605.25125 7.2 
" style="fill: none; stroke: #ffffff; stroke-width: 1.25; stroke-linejoin: miter; stroke-linecap: square"/>
   </g>
   <g id="legend_1">
    <g id="patch_7">
     <path d="M 532.10125 78.239375 
L 597.55125 78.239375 
Q 599.75125 78.239375 599.75125 76.039375 
L 599.75125 14.9 
Q 599.75125 12.7 597.55125 12.7 
L 532.10125 12.7 
Q 529.90125 12.7 529.90125 14.9 
L 529.90125 76.039375 
Q 529.90125 78.239375 532.10125 78.239375 
z
" style="fill: #eaeaf2; opacity: 0.8; stroke: #cccccc; stroke-linejoin: miter"/>
    </g>
    <g id="line2d_20">
     <path d="M 534.30125 21.123594 
L 545.30125 21.123594 
L 556.30125 21.123594 
" style="fill: none; stroke: #0173b2; stroke-width: 1.5; stroke-linecap: round"/>
    </g>
    <g id="text_18">
     <!-- $\nu$ = 2 -->
     <g style="fill: #262626" transform="translate(565.10125 24.973594) scale(0.11 -0.11)">
      <defs>
       <path id="Cmmi10-ba" d="M 403 0 
Q 325 0 325 84 
L 872 2259 
Q 897 2369 903 2431 
Q 903 2534 488 2534 
Q 422 2534 422 2619 
Q 425 2634 436 2675 
Q 447 2716 464 2737 
Q 481 2759 513 2759 
L 1375 2828 
Q 1453 2828 1453 2747 
L 825 238 
Q 1331 406 1757 765 
Q 2184 1125 2479 1612 
Q 2775 2100 2906 2625 
Q 2931 2716 3006 2772 
Q 3081 2828 3175 2828 
Q 3259 2828 3312 2778 
Q 3366 2728 3366 2644 
Q 3366 2541 3281 2330 
Q 3197 2119 3116 1953 
Q 2863 1450 2444 1031 
Q 2181 769 1879 566 
Q 1578 363 1250 220 
Q 922 78 556 0 
L 403 0 
z
" transform="scale(0.015625)"/>
       <path id="ArialMT-20" transform="scale(0.015625)"/>
       <path id="ArialMT-3d" d="M 3381 2694 
L 356 2694 
L 356 3219 
L 3381 3219 
L 3381 2694 
z
M 3381 1303 
L 356 1303 
L 356 1828 
L 3381 1828 
L 3381 1303 
z
" transform="scale(0.015625)"/>
      </defs>
      <use xlink:href="#Cmmi10-ba" transform="translate(0 0.125)"/>
      <use xlink:href="#ArialMT-20" transform="translate(49.414062 0.125)"/>
      <use xlink:href="#ArialMT-3d" transform="translate(77.197266 0.125)"/>
      <use xlink:href="#ArialMT-20" transform="translate(135.595703 0.125)"/>
      <use xlink:href="#ArialMT-32" transform="translate(163.378906 0.125)"/>
     </g>
    </g>
    <g id="line2d_21">
     <path d="M 534.30125 36.683437 
L 545.30125 36.683437 
L 556.30125 36.683437 
" style="fill: none; stroke: #de8f05; stroke-width: 1.5; stroke-linecap: round"/>
    </g>
    <g id="text_19">
     <!-- $\nu$ = 4 -->
     <g style="fill: #262626" transform="translate(565.10125 40.533437) scale(0.11 -0.11)">
      <use xlink:href="#Cmmi10-ba" transform="translate(0 0.421875)"/>
      <use xlink:href="#ArialMT-20" transform="translate(49.414062 0.421875)"/>
      <use xlink:href="#ArialMT-3d" transform="translate(77.197266 0.421875)"/>
      <use xlink:href="#ArialMT-20" transform="translate(135.595703 0.421875)"/>
      <use xlink:href="#ArialMT-34" transform="translate(163.378906 0.421875)"/>
     </g>
    </g>
    <g id="line2d_22">
     <path d="M 534.30125 52.243281 
L 545.30125 52.243281 
L 556.30125 52.243281 
" style="fill: none; stroke: #029e73; stroke-width: 1.5; stroke-linecap: round"/>
    </g>
    <g id="text_20">
     <!-- $\nu$ = 8 -->
     <g style="fill: #262626" transform="translate(565.10125 56.093281) scale(0.11 -0.11)">
      <defs>
       <path id="ArialMT-38" d="M 1131 2484 
Q 781 2613 612 2850 
Q 444 3088 444 3419 
Q 444 3919 803 4259 
Q 1163 4600 1759 4600 
Q 2359 4600 2725 4251 
Q 3091 3903 3091 3403 
Q 3091 3084 2923 2848 
Q 2756 2613 2416 2484 
Q 2838 2347 3058 2040 
Q 3278 1734 3278 1309 
Q 3278 722 2862 322 
Q 2447 -78 1769 -78 
Q 1091 -78 675 323 
Q 259 725 259 1325 
Q 259 1772 486 2073 
Q 713 2375 1131 2484 
z
M 1019 3438 
Q 1019 3113 1228 2906 
Q 1438 2700 1772 2700 
Q 2097 2700 2305 2904 
Q 2513 3109 2513 3406 
Q 2513 3716 2298 3927 
Q 2084 4138 1766 4138 
Q 1444 4138 1231 3931 
Q 1019 3725 1019 3438 
z
M 838 1322 
Q 838 1081 952 856 
Q 1066 631 1291 507 
Q 1516 384 1775 384 
Q 2178 384 2440 643 
Q 2703 903 2703 1303 
Q 2703 1709 2433 1975 
Q 2163 2241 1756 2241 
Q 1359 2241 1098 1978 
Q 838 1716 838 1322 
z
" transform="scale(0.015625)"/>
      </defs>
      <use xlink:href="#Cmmi10-ba" transform="translate(0 0.125)"/>
      <use xlink:href="#ArialMT-20" transform="translate(49.414062 0.125)"/>
      <use xlink:href="#ArialMT-3d" transform="translate(77.197266 0.125)"/>
      <use xlink:href="#ArialMT-20" transform="translate(135.595703 0.125)"/>
      <use xlink:href="#ArialMT-38" transform="translate(163.378906 0.125)"/>
     </g>
    </g>
    <g id="line2d_23">
     <path d="M 534.30125 67.803125 
L 545.30125 67.803125 
L 556.30125 67.803125 
" style="fill: none; stroke: #d55e00; stroke-width: 1.5; stroke-linecap: round"/>
    </g>
    <g id="text_21">
     <!-- $\nu$ = 16 -->
     <g style="fill: #262626" transform="translate(565.10125 71.653125) scale(0.11 -0.11)">
      <defs>
       <path id="ArialMT-36" d="M 3184 3459 
L 2625 3416 
Q 2550 3747 2413 3897 
Q 2184 4138 1850 4138 
Q 1581 4138 1378 3988 
Q 1113 3794 959 3422 
Q 806 3050 800 2363 
Q 1003 2672 1297 2822 
Q 1591 2972 1913 2972 
Q 2475 2972 2870 2558 
Q 3266 2144 3266 1488 
Q 3266 1056 3080 686 
Q 2894 316 2569 119 
Q 2244 -78 1831 -78 
Q 1128 -78 684 439 
Q 241 956 241 2144 
Q 241 3472 731 4075 
Q 1159 4600 1884 4600 
Q 2425 4600 2770 4297 
Q 3116 3994 3184 3459 
z
M 888 1484 
Q 888 1194 1011 928 
Q 1134 663 1356 523 
Q 1578 384 1822 384 
Q 2178 384 2434 671 
Q 2691 959 2691 1453 
Q 2691 1928 2437 2201 
Q 2184 2475 1800 2475 
Q 1419 2475 1153 2201 
Q 888 1928 888 1484 
z
" transform="scale(0.015625)"/>
      </defs>
      <use xlink:href="#Cmmi10-ba" transform="translate(0 0.125)"/>
      <use xlink:href="#ArialMT-20" transform="translate(49.414062 0.125)"/>
      <use xlink:href="#ArialMT-3d" transform="translate(77.197266 0.125)"/>
      <use xlink:href="#ArialMT-20" transform="translate(135.595703 0.125)"/>
      <use xlink:href="#ArialMT-31" transform="translate(163.378906 0.125)"/>
      <use xlink:href="#ArialMT-36" transform="translate(218.994141 0.125)"/>
     </g>
    </g>
   </g>
  </g>
 </g>
 <defs>
  <clipPath id="pa78d6c550a">
   <rect x="47.25125" y="7.2" width="558" height="332.64"/>
  </clipPath>
 </defs>
</svg>