<?xml version="1.0" encoding="utf-8" standalone="no"?>
<!DOCTYPE svg PUBLIC "-//W3C//DTD SVG 1.1//EN"
  "http://www.w3.org/Graphics/SVG/1.1/DTD/svg11.dtd">
<svg xmlns:xlink="http://www.w3.org/1999/xlink" width="409.915525pt" height="352.633275pt" viewBox="0 0 409.915525 352.633275" xmlns="http://www.w3.org/2000/svg" version="1.1">
 <metadata>
  <rdf:RDF xmlns:dc="http://purl.org/dc/elements/1.1/" xmlns:cc="http://creativecommons.org/ns#" xmlns:rdf="http://www.w3.org/1999/02/22-rdf-syntax-ns#">
   <cc:Work>
    <dc:type rdf:resource="http://purl.org/dc/dcmitype/StillImage"/>
    <dc:date>2023-05-08T00:28:48.752196</dc:date>
    <dc:format>image/svg+xml</dc:format>
    <dc:creator>
     <cc:Agent>
      <dc:title>Matplotlib v3.7.1, https://matplotlib.org/</dc:title>
     </cc:Agent>
    </dc:creator>
   </cc:Work>
  </rdf:RDF>
 </metadata>
 <defs>
  <style type="text/css">*{stroke-linejoin: round; stroke-linecap: butt}</style>
 </defs>
 <g id="figure_1">
  <g id="patch_1">
   <path d="M 0 352.633275 
L 409.915525 352.633275 
L 409.915525 0 
L 0 0 
z
" style="fill: #ffffff"/>
  </g>
  <g id="axes_1">
   <g id="patch_2">
    <path d="M 44.9449 319.24275 
L 344.703225 319.24275 
L 344.703225 7.2 
L 44.9449 7.2 
z
" style="fill: #eeeeee"/>
   </g>
   <g id="matplotlib.axis_1">
    <g id="xtick_1">
     <g id="text_1">
      <!-- Adelie -->
      <g style="fill: #262626" transform="translate(82.673996 329.041625) scale(0.088 -0.088)">
       <defs>
        <path id="ArialMT-41" d="M -9 0 
L 1750 4581 
L 2403 4581 
L 4278 0 
L 3588 0 
L 3053 1388 
L 1138 1388 
L 634 0 
L -9 0 
z
M 1313 1881 
L 2866 1881 
L 2388 3150 
Q 2169 3728 2063 4100 
Q 1975 3659 1816 3225 
L 1313 1881 
z
" transform="scale(0.015625)"/>
        <path id="ArialMT-64" d="M 2575 0 
L 2575 419 
Q 2259 -75 1647 -75 
Q 1250 -75 917 144 
Q 584 363 401 755 
Q 219 1147 219 1656 
Q 219 2153 384 2558 
Q 550 2963 881 3178 
Q 1213 3394 1622 3394 
Q 1922 3394 2156 3267 
Q 2391 3141 2538 2938 
L 2538 4581 
L 3097 4581 
L 3097 0 
L 2575 0 
z
M 797 1656 
Q 797 1019 1065 703 
Q 1334 388 1700 388 
Q 2069 388 2326 689 
Q 2584 991 2584 1609 
Q 2584 2291 2321 2609 
Q 2059 2928 1675 2928 
Q 1300 2928 1048 2622 
Q 797 2316 797 1656 
z
" transform="scale(0.015625)"/>
        <path id="ArialMT-65" d="M 2694 1069 
L 3275 997 
Q 3138 488 2766 206 
Q 2394 -75 1816 -75 
Q 1088 -75 661 373 
Q 234 822 234 1631 
Q 234 2469 665 2931 
Q 1097 3394 1784 3394 
Q 2450 3394 2872 2941 
Q 3294 2488 3294 1666 
Q 3294 1616 3291 1516 
L 816 1516 
Q 847 969 1125 678 
Q 1403 388 1819 388 
Q 2128 388 2347 550 
Q 2566 713 2694 1069 
z
M 847 1978 
L 2700 1978 
Q 2663 2397 2488 2606 
Q 2219 2931 1791 2931 
Q 1403 2931 1139 2672 
Q 875 2413 847 1978 
z
" transform="scale(0.015625)"/>
        <path id="ArialMT-6c" d="M 409 0 
L 409 4581 
L 972 4581 
L 972 0 
L 409 0 
z
" transform="scale(0.015625)"/>
        <path id="ArialMT-69" d="M 425 3934 
L 425 4581 
L 988 4581 
L 988 3934 
L 425 3934 
z
M 425 0 
L 425 3319 
L 988 3319 
L 988 0 
L 425 0 
z
" transform="scale(0.015625)"/>
       </defs>
       <use xlink:href="#ArialMT-41"/>
       <use xlink:href="#ArialMT-64" x="66.699219"/>
       <use xlink:href="#ArialMT-65" x="122.314453"/>
       <use xlink:href="#ArialMT-6c" x="177.929688"/>
       <use xlink:href="#ArialMT-69" x="200.146484"/>
       <use xlink:href="#ArialMT-65" x="222.363281"/>
      </g>
     </g>
    </g>
    <g id="xtick_2">
     <g id="text_2">
      <!-- Gentoo -->
      <g style="fill: #262626" transform="translate(180.392063 329.041625) scale(0.088 -0.088)">
       <defs>
        <path id="ArialMT-47" d="M 2638 1797 
L 2638 2334 
L 4578 2338 
L 4578 638 
Q 4131 281 3656 101 
Q 3181 -78 2681 -78 
Q 2006 -78 1454 211 
Q 903 500 622 1047 
Q 341 1594 341 2269 
Q 341 2938 620 3517 
Q 900 4097 1425 4378 
Q 1950 4659 2634 4659 
Q 3131 4659 3532 4498 
Q 3934 4338 4162 4050 
Q 4391 3763 4509 3300 
L 3963 3150 
Q 3859 3500 3706 3700 
Q 3553 3900 3268 4020 
Q 2984 4141 2638 4141 
Q 2222 4141 1919 4014 
Q 1616 3888 1430 3681 
Q 1244 3475 1141 3228 
Q 966 2803 966 2306 
Q 966 1694 1177 1281 
Q 1388 869 1791 669 
Q 2194 469 2647 469 
Q 3041 469 3416 620 
Q 3791 772 3984 944 
L 3984 1797 
L 2638 1797 
z
" transform="scale(0.015625)"/>
        <path id="ArialMT-6e" d="M 422 0 
L 422 3319 
L 928 3319 
L 928 2847 
Q 1294 3394 1984 3394 
Q 2284 3394 2536 3286 
Q 2788 3178 2913 3003 
Q 3038 2828 3088 2588 
Q 3119 2431 3119 2041 
L 3119 0 
L 2556 0 
L 2556 2019 
Q 2556 2363 2490 2533 
Q 2425 2703 2258 2804 
Q 2091 2906 1866 2906 
Q 1506 2906 1245 2678 
Q 984 2450 984 1813 
L 984 0 
L 422 0 
z
" transform="scale(0.015625)"/>
        <path id="ArialMT-74" d="M 1650 503 
L 1731 6 
Q 1494 -44 1306 -44 
Q 1000 -44 831 53 
Q 663 150 594 308 
Q 525 466 525 972 
L 525 2881 
L 113 2881 
L 113 3319 
L 525 3319 
L 525 4141 
L 1084 4478 
L 1084 3319 
L 1650 3319 
L 1650 2881 
L 1084 2881 
L 1084 941 
Q 1084 700 1114 631 
Q 1144 563 1211 522 
Q 1278 481 1403 481 
Q 1497 481 1650 503 
z
" transform="scale(0.015625)"/>
        <path id="ArialMT-6f" d="M 213 1659 
Q 213 2581 725 3025 
Q 1153 3394 1769 3394 
Q 2453 3394 2887 2945 
Q 3322 2497 3322 1706 
Q 3322 1066 3130 698 
Q 2938 331 2570 128 
Q 2203 -75 1769 -75 
Q 1072 -75 642 372 
Q 213 819 213 1659 
z
M 791 1659 
Q 791 1022 1069 705 
Q 1347 388 1769 388 
Q 2188 388 2466 706 
Q 2744 1025 2744 1678 
Q 2744 2294 2464 2611 
Q 2184 2928 1769 2928 
Q 1347 2928 1069 2612 
Q 791 2297 791 1659 
z
" transform="scale(0.015625)"/>
       </defs>
       <use xlink:href="#ArialMT-47"/>
       <use xlink:href="#ArialMT-65" x="77.783203"/>
       <use xlink:href="#ArialMT-6e" x="133.398438"/>
       <use xlink:href="#ArialMT-74" x="189.013672"/>
       <use xlink:href="#ArialMT-6f" x="216.796875"/>
       <use xlink:href="#ArialMT-6f" x="272.412109"/>
      </g>
     </g>
    </g>
    <g id="xtick_3">
     <g id="text_3">
      <!-- Chinstrap -->
      <g style="fill: #262626" transform="translate(275.913567 329.148875) scale(0.088 -0.088)">
       <defs>
        <path id="ArialMT-43" d="M 3763 1606 
L 4369 1453 
Q 4178 706 3683 314 
Q 3188 -78 2472 -78 
Q 1731 -78 1267 223 
Q 803 525 561 1097 
Q 319 1669 319 2325 
Q 319 3041 592 3573 
Q 866 4106 1370 4382 
Q 1875 4659 2481 4659 
Q 3169 4659 3637 4309 
Q 4106 3959 4291 3325 
L 3694 3184 
Q 3534 3684 3231 3912 
Q 2928 4141 2469 4141 
Q 1941 4141 1586 3887 
Q 1231 3634 1087 3207 
Q 944 2781 944 2328 
Q 944 1744 1114 1308 
Q 1284 872 1643 656 
Q 2003 441 2422 441 
Q 2931 441 3284 734 
Q 3638 1028 3763 1606 
z
" transform="scale(0.015625)"/>
        <path id="ArialMT-68" d="M 422 0 
L 422 4581 
L 984 4581 
L 984 2938 
Q 1378 3394 1978 3394 
Q 2347 3394 2619 3248 
Q 2891 3103 3008 2847 
Q 3125 2591 3125 2103 
L 3125 0 
L 2563 0 
L 2563 2103 
Q 2563 2525 2380 2717 
Q 2197 2909 1863 2909 
Q 1613 2909 1392 2779 
Q 1172 2650 1078 2428 
Q 984 2206 984 1816 
L 984 0 
L 422 0 
z
" transform="scale(0.015625)"/>
        <path id="ArialMT-73" d="M 197 991 
L 753 1078 
Q 800 744 1014 566 
Q 1228 388 1613 388 
Q 2000 388 2187 545 
Q 2375 703 2375 916 
Q 2375 1106 2209 1216 
Q 2094 1291 1634 1406 
Q 1016 1563 777 1677 
Q 538 1791 414 1992 
Q 291 2194 291 2438 
Q 291 2659 392 2848 
Q 494 3038 669 3163 
Q 800 3259 1026 3326 
Q 1253 3394 1513 3394 
Q 1903 3394 2198 3281 
Q 2494 3169 2634 2976 
Q 2775 2784 2828 2463 
L 2278 2388 
Q 2241 2644 2061 2787 
Q 1881 2931 1553 2931 
Q 1166 2931 1000 2803 
Q 834 2675 834 2503 
Q 834 2394 903 2306 
Q 972 2216 1119 2156 
Q 1203 2125 1616 2013 
Q 2213 1853 2448 1751 
Q 2684 1650 2818 1456 
Q 2953 1263 2953 975 
Q 2953 694 2789 445 
Q 2625 197 2315 61 
Q 2006 -75 1616 -75 
Q 969 -75 630 194 
Q 291 463 197 991 
z
" transform="scale(0.015625)"/>
        <path id="ArialMT-72" d="M 416 0 
L 416 3319 
L 922 3319 
L 922 2816 
Q 1116 3169 1280 3281 
Q 1444 3394 1641 3394 
Q 1925 3394 2219 3213 
L 2025 2691 
Q 1819 2813 1613 2813 
Q 1428 2813 1281 2702 
Q 1134 2591 1072 2394 
Q 978 2094 978 1738 
L 978 0 
L 416 0 
z
" transform="scale(0.015625)"/>
        <path id="ArialMT-61" d="M 2588 409 
Q 2275 144 1986 34 
Q 1697 -75 1366 -75 
Q 819 -75 525 192 
Q 231 459 231 875 
Q 231 1119 342 1320 
Q 453 1522 633 1644 
Q 813 1766 1038 1828 
Q 1203 1872 1538 1913 
Q 2219 1994 2541 2106 
Q 2544 2222 2544 2253 
Q 2544 2597 2384 2738 
Q 2169 2928 1744 2928 
Q 1347 2928 1158 2789 
Q 969 2650 878 2297 
L 328 2372 
Q 403 2725 575 2942 
Q 747 3159 1072 3276 
Q 1397 3394 1825 3394 
Q 2250 3394 2515 3294 
Q 2781 3194 2906 3042 
Q 3031 2891 3081 2659 
Q 3109 2516 3109 2141 
L 3109 1391 
Q 3109 606 3145 398 
Q 3181 191 3288 0 
L 2700 0 
Q 2613 175 2588 409 
z
M 2541 1666 
Q 2234 1541 1622 1453 
Q 1275 1403 1131 1340 
Q 988 1278 909 1158 
Q 831 1038 831 891 
Q 831 666 1001 516 
Q 1172 366 1500 366 
Q 1825 366 2078 508 
Q 2331 650 2450 897 
Q 2541 1088 2541 1459 
L 2541 1666 
z
" transform="scale(0.015625)"/>
        <path id="ArialMT-70" d="M 422 -1272 
L 422 3319 
L 934 3319 
L 934 2888 
Q 1116 3141 1344 3267 
Q 1572 3394 1897 3394 
Q 2322 3394 2647 3175 
Q 2972 2956 3137 2557 
Q 3303 2159 3303 1684 
Q 3303 1175 3120 767 
Q 2938 359 2589 142 
Q 2241 -75 1856 -75 
Q 1575 -75 1351 44 
Q 1128 163 984 344 
L 984 -1272 
L 422 -1272 
z
M 931 1641 
Q 931 1000 1190 694 
Q 1450 388 1819 388 
Q 2194 388 2461 705 
Q 2728 1022 2728 1688 
Q 2728 2322 2467 2637 
Q 2206 2953 1844 2953 
Q 1484 2953 1207 2617 
Q 931 2281 931 1641 
z
" transform="scale(0.015625)"/>
       </defs>
       <use xlink:href="#ArialMT-43"/>
       <use xlink:href="#ArialMT-68" x="72.216797"/>
       <use xlink:href="#ArialMT-69" x="127.832031"/>
       <use xlink:href="#ArialMT-6e" x="150.048828"/>
       <use xlink:href="#ArialMT-73" x="205.664062"/>
       <use xlink:href="#ArialMT-74" x="255.664062"/>
       <use xlink:href="#ArialMT-72" x="283.447266"/>
       <use xlink:href="#ArialMT-61" x="316.748047"/>
       <use xlink:href="#ArialMT-70" x="372.363281"/>
      </g>
     </g>
    </g>
    <g id="text_4">
     <!-- species -->
     <g style="fill: #262626" transform="translate(175.294963 343.143675) scale(0.1152 -0.1152)">
      <defs>
       <path id="ArialMT-63" d="M 2588 1216 
L 3141 1144 
Q 3050 572 2676 248 
Q 2303 -75 1759 -75 
Q 1078 -75 664 370 
Q 250 816 250 1647 
Q 250 2184 428 2587 
Q 606 2991 970 3192 
Q 1334 3394 1763 3394 
Q 2303 3394 2647 3120 
Q 2991 2847 3088 2344 
L 2541 2259 
Q 2463 2594 2264 2762 
Q 2066 2931 1784 2931 
Q 1359 2931 1093 2626 
Q 828 2322 828 1663 
Q 828 994 1084 691 
Q 1341 388 1753 388 
Q 2084 388 2306 591 
Q 2528 794 2588 1216 
z
" transform="scale(0.015625)"/>
      </defs>
      <use xlink:href="#ArialMT-73"/>
      <use xlink:href="#ArialMT-70" x="50"/>
      <use xlink:href="#ArialMT-65" x="105.615234"/>
      <use xlink:href="#ArialMT-63" x="161.230469"/>
      <use xlink:href="#ArialMT-69" x="211.230469"/>
      <use xlink:href="#ArialMT-65" x="233.447266"/>
      <use xlink:href="#ArialMT-73" x="289.0625"/>
     </g>
    </g>
   </g>
   <g id="matplotlib.axis_2">
    <g id="ytick_1">
     <g id="line2d_1">
      <path d="M 44.9449 265.35164 
L 344.703225 265.35164 
" clip-path="url(#p2ce611c934)" style="fill: none; stroke-dasharray: 1.85,0.8; stroke-dashoffset: 0; stroke: #b2b2b2; stroke-width: 0.5"/>
     </g>
     <g id="text_5">
      <!-- 3000 -->
      <g style="fill: #262626" transform="translate(21.8704 268.501077) scale(0.088 -0.088)">
       <defs>
        <path id="ArialMT-33" d="M 269 1209 
L 831 1284 
Q 928 806 1161 595 
Q 1394 384 1728 384 
Q 2125 384 2398 659 
Q 2672 934 2672 1341 
Q 2672 1728 2419 1979 
Q 2166 2231 1775 2231 
Q 1616 2231 1378 2169 
L 1441 2663 
Q 1497 2656 1531 2656 
Q 1891 2656 2178 2843 
Q 2466 3031 2466 3422 
Q 2466 3731 2256 3934 
Q 2047 4138 1716 4138 
Q 1388 4138 1169 3931 
Q 950 3725 888 3313 
L 325 3413 
Q 428 3978 793 4289 
Q 1159 4600 1703 4600 
Q 2078 4600 2393 4439 
Q 2709 4278 2876 4000 
Q 3044 3722 3044 3409 
Q 3044 3113 2884 2869 
Q 2725 2625 2413 2481 
Q 2819 2388 3044 2092 
Q 3269 1797 3269 1353 
Q 3269 753 2831 336 
Q 2394 -81 1725 -81 
Q 1122 -81 723 278 
Q 325 638 269 1209 
z
" transform="scale(0.015625)"/>
        <path id="ArialMT-30" d="M 266 2259 
Q 266 3072 433 3567 
Q 600 4063 929 4331 
Q 1259 4600 1759 4600 
Q 2128 4600 2406 4451 
Q 2684 4303 2865 4023 
Q 3047 3744 3150 3342 
Q 3253 2941 3253 2259 
Q 3253 1453 3087 958 
Q 2922 463 2592 192 
Q 2263 -78 1759 -78 
Q 1097 -78 719 397 
Q 266 969 266 2259 
z
M 844 2259 
Q 844 1131 1108 757 
Q 1372 384 1759 384 
Q 2147 384 2411 759 
Q 2675 1134 2675 2259 
Q 2675 3391 2411 3762 
Q 2147 4134 1753 4134 
Q 1366 4134 1134 3806 
Q 844 3388 844 2259 
z
" transform="scale(0.015625)"/>
       </defs>
       <use xlink:href="#ArialMT-33"/>
       <use xlink:href="#ArialMT-30" x="55.615234"/>
       <use xlink:href="#ArialMT-30" x="111.230469"/>
       <use xlink:href="#ArialMT-30" x="166.845703"/>
      </g>
     </g>
    </g>
    <g id="ytick_2">
     <g id="line2d_2">
      <path d="M 44.9449 197.113661 
L 344.703225 197.113661 
" clip-path="url(#p2ce611c934)" style="fill: none; stroke-dasharray: 1.85,0.8; stroke-dashoffset: 0; stroke: #b2b2b2; stroke-width: 0.5"/>
     </g>
     <g id="text_6">
      <!-- 4000 -->
      <g style="fill: #262626" transform="translate(21.8704 200.263099) scale(0.088 -0.088)">
       <defs>
        <path id="ArialMT-34" d="M 2069 0 
L 2069 1097 
L 81 1097 
L 81 1613 
L 2172 4581 
L 2631 4581 
L 2631 1613 
L 3250 1613 
L 3250 1097 
L 2631 1097 
L 2631 0 
L 2069 0 
z
M 2069 1613 
L 2069 3678 
L 634 1613 
L 2069 1613 
z
" transform="scale(0.015625)"/>
       </defs>
       <use xlink:href="#ArialMT-34"/>
       <use xlink:href="#ArialMT-30" x="55.615234"/>
       <use xlink:href="#ArialMT-30" x="111.230469"/>
       <use xlink:href="#ArialMT-30" x="166.845703"/>
      </g>
     </g>
    </g>
    <g id="ytick_3">
     <g id="line2d_3">
      <path d="M 44.9449 128.875682 
L 344.703225 128.875682 
" clip-path="url(#p2ce611c934)" style="fill: none; stroke-dasharray: 1.85,0.8; stroke-dashoffset: 0; stroke: #b2b2b2; stroke-width: 0.5"/>
     </g>
     <g id="text_7">
      <!-- 5000 -->
      <g style="fill: #262626" transform="translate(21.8704 132.02512) scale(0.088 -0.088)">
       <defs>
        <path id="ArialMT-35" d="M 266 1200 
L 856 1250 
Q 922 819 1161 601 
Q 1400 384 1738 384 
Q 2144 384 2425 690 
Q 2706 997 2706 1503 
Q 2706 1984 2436 2262 
Q 2166 2541 1728 2541 
Q 1456 2541 1237 2417 
Q 1019 2294 894 2097 
L 366 2166 
L 809 4519 
L 3088 4519 
L 3088 3981 
L 1259 3981 
L 1013 2750 
Q 1425 3038 1878 3038 
Q 2478 3038 2890 2622 
Q 3303 2206 3303 1553 
Q 3303 931 2941 478 
Q 2500 -78 1738 -78 
Q 1113 -78 717 272 
Q 322 622 266 1200 
z
" transform="scale(0.015625)"/>
       </defs>
       <use xlink:href="#ArialMT-35"/>
       <use xlink:href="#ArialMT-30" x="55.615234"/>
       <use xlink:href="#ArialMT-30" x="111.230469"/>
       <use xlink:href="#ArialMT-30" x="166.845703"/>
      </g>
     </g>
    </g>
    <g id="ytick_4">
     <g id="line2d_4">
      <path d="M 44.9449 60.637704 
L 344.703225 60.637704 
" clip-path="url(#p2ce611c934)" style="fill: none; stroke-dasharray: 1.85,0.8; stroke-dashoffset: 0; stroke: #b2b2b2; stroke-width: 0.5"/>
     </g>
     <g id="text_8">
      <!-- 6000 -->
      <g style="fill: #262626" transform="translate(21.8704 63.787141) scale(0.088 -0.088)">
       <defs>
        <path id="ArialMT-36" d="M 3184 3459 
L 2625 3416 
Q 2550 3747 2413 3897 
Q 2184 4138 1850 4138 
Q 1581 4138 1378 3988 
Q 1113 3794 959 3422 
Q 806 3050 800 2363 
Q 1003 2672 1297 2822 
Q 1591 2972 1913 2972 
Q 2475 2972 2870 2558 
Q 3266 2144 3266 1488 
Q 3266 1056 3080 686 
Q 2894 316 2569 119 
Q 2244 -78 1831 -78 
Q 1128 -78 684 439 
Q 241 956 241 2144 
Q 241 3472 731 4075 
Q 1159 4600 1884 4600 
Q 2425 4600 2770 4297 
Q 3116 3994 3184 3459 
z
M 888 1484 
Q 888 1194 1011 928 
Q 1134 663 1356 523 
Q 1578 384 1822 384 
Q 2178 384 2434 671 
Q 2691 959 2691 1453 
Q 2691 1928 2437 2201 
Q 2184 2475 1800 2475 
Q 1419 2475 1153 2201 
Q 888 1928 888 1484 
z
" transform="scale(0.015625)"/>
       </defs>
       <use xlink:href="#ArialMT-36"/>
       <use xlink:href="#ArialMT-30" x="55.615234"/>
       <use xlink:href="#ArialMT-30" x="111.230469"/>
       <use xlink:href="#ArialMT-30" x="166.845703"/>
      </g>
     </g>
    </g>
    <g id="text_9">
     <!-- body_mass_g -->
     <g style="fill: #262626" transform="translate(15.4458 199.080975) rotate(-90) scale(0.1152 -0.1152)">
      <defs>
       <path id="ArialMT-62" d="M 941 0 
L 419 0 
L 419 4581 
L 981 4581 
L 981 2947 
Q 1338 3394 1891 3394 
Q 2197 3394 2470 3270 
Q 2744 3147 2920 2923 
Q 3097 2700 3197 2384 
Q 3297 2069 3297 1709 
Q 3297 856 2875 390 
Q 2453 -75 1863 -75 
Q 1275 -75 941 416 
L 941 0 
z
M 934 1684 
Q 934 1088 1097 822 
Q 1363 388 1816 388 
Q 2184 388 2453 708 
Q 2722 1028 2722 1663 
Q 2722 2313 2464 2622 
Q 2206 2931 1841 2931 
Q 1472 2931 1203 2611 
Q 934 2291 934 1684 
z
" transform="scale(0.015625)"/>
       <path id="ArialMT-79" d="M 397 -1278 
L 334 -750 
Q 519 -800 656 -800 
Q 844 -800 956 -737 
Q 1069 -675 1141 -563 
Q 1194 -478 1313 -144 
Q 1328 -97 1363 -6 
L 103 3319 
L 709 3319 
L 1400 1397 
Q 1534 1031 1641 628 
Q 1738 1016 1872 1384 
L 2581 3319 
L 3144 3319 
L 1881 -56 
Q 1678 -603 1566 -809 
Q 1416 -1088 1222 -1217 
Q 1028 -1347 759 -1347 
Q 597 -1347 397 -1278 
z
" transform="scale(0.015625)"/>
       <path id="ArialMT-5f" d="M -97 -1272 
L -97 -866 
L 3631 -866 
L 3631 -1272 
L -97 -1272 
z
" transform="scale(0.015625)"/>
       <path id="ArialMT-6d" d="M 422 0 
L 422 3319 
L 925 3319 
L 925 2853 
Q 1081 3097 1340 3245 
Q 1600 3394 1931 3394 
Q 2300 3394 2536 3241 
Q 2772 3088 2869 2813 
Q 3263 3394 3894 3394 
Q 4388 3394 4653 3120 
Q 4919 2847 4919 2278 
L 4919 0 
L 4359 0 
L 4359 2091 
Q 4359 2428 4304 2576 
Q 4250 2725 4106 2815 
Q 3963 2906 3769 2906 
Q 3419 2906 3187 2673 
Q 2956 2441 2956 1928 
L 2956 0 
L 2394 0 
L 2394 2156 
Q 2394 2531 2256 2718 
Q 2119 2906 1806 2906 
Q 1569 2906 1367 2781 
Q 1166 2656 1075 2415 
Q 984 2175 984 1722 
L 984 0 
L 422 0 
z
" transform="scale(0.015625)"/>
       <path id="ArialMT-67" d="M 319 -275 
L 866 -356 
Q 900 -609 1056 -725 
Q 1266 -881 1628 -881 
Q 2019 -881 2231 -725 
Q 2444 -569 2519 -288 
Q 2563 -116 2559 434 
Q 2191 0 1641 0 
Q 956 0 581 494 
Q 206 988 206 1678 
Q 206 2153 378 2554 
Q 550 2956 876 3175 
Q 1203 3394 1644 3394 
Q 2231 3394 2613 2919 
L 2613 3319 
L 3131 3319 
L 3131 450 
Q 3131 -325 2973 -648 
Q 2816 -972 2473 -1159 
Q 2131 -1347 1631 -1347 
Q 1038 -1347 672 -1080 
Q 306 -813 319 -275 
z
M 784 1719 
Q 784 1066 1043 766 
Q 1303 466 1694 466 
Q 2081 466 2343 764 
Q 2606 1063 2606 1700 
Q 2606 2309 2336 2618 
Q 2066 2928 1684 2928 
Q 1309 2928 1046 2623 
Q 784 2319 784 1719 
z
" transform="scale(0.015625)"/>
      </defs>
      <use xlink:href="#ArialMT-62"/>
      <use xlink:href="#ArialMT-6f" x="55.615234"/>
      <use xlink:href="#ArialMT-64" x="111.230469"/>
      <use xlink:href="#ArialMT-79" x="166.845703"/>
      <use xlink:href="#ArialMT-5f" x="216.845703"/>
      <use xlink:href="#ArialMT-6d" x="272.460938"/>
      <use xlink:href="#ArialMT-61" x="355.761719"/>
      <use xlink:href="#ArialMT-73" x="411.376953"/>
      <use xlink:href="#ArialMT-73" x="461.376953"/>
      <use xlink:href="#ArialMT-5f" x="511.376953"/>
      <use xlink:href="#ArialMT-67" x="566.992188"/>
     </g>
    </g>
   </g>
   <g id="patch_3">
    <path d="M 94.904621 470.065576 
L 94.904621 470.065576 
L 94.904621 470.065576 
L 94.904621 470.065576 
z
" clip-path="url(#p2ce611c934)" style="fill: #4586ac; stroke: #343434; stroke-linejoin: miter"/>
   </g>
   <g id="PolyCollection_1">
    <defs>
     <path id="meb3a0beb93" d="M 75.033237 -89.391854 
L 74.808228 -89.391854 
L 74.766959 -90.796696 
L 74.71364 -92.201537 
L 74.645813 -93.606379 
L 74.560826 -95.011221 
L 74.455892 -96.416062 
L 74.328176 -97.820904 
L 74.1749 -99.225745 
L 73.993469 -100.630587 
L 73.781615 -102.035429 
L 73.53756 -103.44027 
L 73.260175 -104.845112 
L 72.94914 -106.249953 
L 72.605071 -107.654795 
L 72.229608 -109.059637 
L 71.825427 -110.464478 
L 71.396169 -111.86932 
L 70.946262 -113.274161 
L 70.48065 -114.679003 
L 70.004416 -116.083844 
L 69.52236 -117.488686 
L 69.038554 -118.893528 
L 68.555933 -120.298369 
L 68.075992 -121.703211 
L 67.598621 -123.108052 
L 67.122129 -124.512894 
L 66.643471 -125.917736 
L 66.158652 -127.322577 
L 65.663293 -128.727419 
L 65.153293 -130.13226 
L 64.625511 -131.537102 
L 64.07842 -132.941944 
L 63.512644 -134.346785 
L 62.931334 -135.751627 
L 62.340343 -137.156468 
L 61.74818 -138.56131 
L 61.165718 -139.966151 
L 60.605694 -141.370993 
L 60.081992 -142.775835 
L 59.608771 -144.180676 
L 59.19948 -145.585518 
L 58.865849 -146.990359 
L 58.616921 -148.395201 
L 58.458247 -149.800043 
L 58.391315 -151.204884 
L 58.413313 -152.609726 
L 58.517265 -154.014567 
L 58.692554 -155.419409 
L 58.925804 -156.824251 
L 59.202031 -158.229092 
L 59.505949 -159.633934 
L 59.823287 -161.038775 
L 60.141966 -162.443617 
L 60.453005 -163.848458 
L 60.751065 -165.2533 
L 61.034571 -166.658142 
L 61.305432 -168.062983 
L 61.568395 -169.467825 
L 61.830144 -170.872666 
L 62.098259 -172.277508 
L 62.380167 -173.68235 
L 62.68219 -175.087191 
L 63.008813 -176.492033 
L 63.362201 -177.896874 
L 63.742017 -179.301716 
L 64.145521 -180.706558 
L 64.567918 -182.111399 
L 65.002898 -183.516241 
L 65.4433 -184.921082 
L 65.881833 -186.325924 
L 66.311774 -187.730765 
L 66.727585 -189.135607 
L 67.125403 -190.540449 
L 67.503333 -191.94529 
L 67.861552 -193.350132 
L 68.202186 -194.754973 
L 68.528991 -196.159815 
L 68.846861 -197.564657 
L 69.161214 -198.969498 
L 69.477341 -200.37434 
L 69.799763 -201.779181 
L 70.131691 -203.184023 
L 70.474647 -204.588865 
L 70.828272 -205.993706 
L 71.19035 -207.398548 
L 71.557031 -208.803389 
L 71.92322 -210.208231 
L 72.283068 -211.613072 
L 72.630517 -213.017914 
L 72.959819 -214.422756 
L 73.265987 -215.827597 
L 73.545128 -217.232439 
L 73.794643 -218.63728 
L 74.013287 -220.042122 
L 74.201105 -221.446964 
L 74.359269 -222.851805 
L 74.489844 -224.256647 
L 74.595533 -225.661488 
L 74.679409 -227.06633 
L 74.74468 -228.471171 
L 75.096785 -228.471171 
L 75.096785 -228.471171 
L 75.162056 -227.06633 
L 75.245932 -225.661488 
L 75.351621 -224.256647 
L 75.482196 -222.851805 
L 75.64036 -221.446964 
L 75.828178 -220.042122 
L 76.046822 -218.63728 
L 76.296337 -217.232439 
L 76.575478 -215.827597 
L 76.881646 -214.422756 
L 77.210948 -213.017914 
L 77.558397 -211.613072 
L 77.918245 -210.208231 
L 78.284434 -208.803389 
L 78.651115 -207.398548 
L 79.013193 -205.993706 
L 79.366818 -204.588865 
L 79.709774 -203.184023 
L 80.041702 -201.779181 
L 80.364124 -200.37434 
L 80.680251 -198.969498 
L 80.994604 -197.564657 
L 81.312474 -196.159815 
L 81.639279 -194.754973 
L 81.979913 -193.350132 
L 82.338132 -191.94529 
L 82.716062 -190.540449 
L 83.11388 -189.135607 
L 83.529691 -187.730765 
L 83.959632 -186.325924 
L 84.398165 -184.921082 
L 84.838567 -183.516241 
L 85.273547 -182.111399 
L 85.695944 -180.706558 
L 86.099448 -179.301716 
L 86.479264 -177.896874 
L 86.832652 -176.492033 
L 87.159275 -175.087191 
L 87.461298 -173.68235 
L 87.743206 -172.277508 
L 88.011321 -170.872666 
L 88.27307 -169.467825 
L 88.536033 -168.062983 
L 88.806894 -166.658142 
L 89.0904 -165.2533 
L 89.38846 -163.848458 
L 89.699499 -162.443617 
L 90.018178 -161.038775 
L 90.335516 -159.633934 
L 90.639434 -158.229092 
L 90.915661 -156.824251 
L 91.148911 -155.419409 
L 91.3242 -154.014567 
L 91.428152 -152.609726 
L 91.45015 -151.204884 
L 91.383218 -149.800043 
L 91.224544 -148.395201 
L 90.975616 -146.990359 
L 90.641985 -145.585518 
L 90.232694 -144.180676 
L 89.759473 -142.775835 
L 89.235771 -141.370993 
L 88.675747 -139.966151 
L 88.093286 -138.56131 
L 87.501122 -137.156468 
L 86.910131 -135.751627 
L 86.328821 -134.346785 
L 85.763045 -132.941944 
L 85.215954 -131.537102 
L 84.688172 -130.13226 
L 84.178172 -128.727419 
L 83.682813 -127.322577 
L 83.197994 -125.917736 
L 82.719336 -124.512894 
L 82.242844 -123.108052 
L 81.765473 -121.703211 
L 81.285532 -120.298369 
L 80.802911 -118.893528 
L 80.319105 -117.488686 
L 79.837049 -116.083844 
L 79.360815 -114.679003 
L 78.895203 -113.274161 
L 78.445296 -111.86932 
L 78.016038 -110.464478 
L 77.611857 -109.059637 
L 77.236394 -107.654795 
L 76.892325 -106.249953 
L 76.58129 -104.845112 
L 76.303905 -103.44027 
L 76.05985 -102.035429 
L 75.847996 -100.630587 
L 75.666565 -99.225745 
L 75.513289 -97.820904 
L 75.385573 -96.416062 
L 75.280639 -95.011221 
L 75.195652 -93.606379 
L 75.127825 -92.201537 
L 75.074506 -90.796696 
L 75.033237 -89.391854 
z
" style="stroke: #343434; stroke-width: 2"/>
    </defs>
    <g clip-path="url(#p2ce611c934)">
     <use xlink:href="#meb3a0beb93" x="0" y="352.633275" style="fill: #4586ac; stroke: #343434; stroke-width: 2"/>
    </g>
   </g>
   <g id="patch_4">
    <path d="M 94.904621 470.065576 
L 94.904621 470.065576 
L 94.904621 470.065576 
L 94.904621 470.065576 
z
" clip-path="url(#p2ce611c934)" style="fill: #921a33; stroke: #343434; stroke-linejoin: miter"/>
   </g>
   <g id="PolyCollection_2">
    <defs>
     <path id="ma8b921019d" d="M 115.239243 -61.459134 
L 114.537776 -61.459134 
L 114.420444 -62.497755 
L 114.273669 -63.536376 
L 114.093408 -64.574997 
L 113.876049 -65.613618 
L 113.618717 -66.652239 
L 113.319571 -67.69086 
L 112.978058 -68.729481 
L 112.595103 -69.768102 
L 112.173173 -70.806724 
L 111.716229 -71.845345 
L 111.229519 -72.883966 
L 110.719249 -73.922587 
L 110.192134 -74.961208 
L 109.654894 -75.999829 
L 109.113738 -77.03845 
L 108.573902 -78.077071 
L 108.039291 -79.115692 
L 107.512279 -80.154313 
L 106.993687 -81.192934 
L 106.482934 -82.231555 
L 105.978351 -83.270176 
L 105.477599 -84.308798 
L 104.978149 -85.347419 
L 104.477754 -86.38604 
L 103.974857 -87.424661 
L 103.468886 -88.463282 
L 102.960414 -89.501903 
L 102.45116 -90.540524 
L 101.943844 -91.579145 
L 101.44193 -92.617766 
L 100.949265 -93.656387 
L 100.469695 -94.695008 
L 100.006675 -95.733629 
L 99.562931 -96.77225 
L 99.140217 -97.810872 
L 98.739188 -98.849493 
L 98.359415 -99.888114 
L 97.999537 -100.926735 
L 97.657535 -101.965356 
L 97.331115 -103.003977 
L 97.018133 -104.042598 
L 96.717043 -105.081219 
L 96.427295 -106.11984 
L 96.149653 -107.158461 
L 95.886387 -108.197082 
L 95.641321 -109.235703 
L 95.419712 -110.274325 
L 95.227994 -111.312946 
L 95.073366 -112.351567 
L 94.963297 -113.390188 
L 94.904953 -114.428809 
L 94.904621 -115.46743 
L 94.96715 -116.506051 
L 95.095483 -117.544672 
L 95.290304 -118.583293 
L 95.54984 -119.621914 
L 95.869847 -120.660535 
L 96.243786 -121.699156 
L 96.663178 -122.737777 
L 97.118143 -123.776399 
L 97.598046 -124.81502 
L 98.09225 -125.853641 
L 98.590869 -126.892262 
L 99.085492 -127.930883 
L 99.56979 -128.969504 
L 100.039958 -130.008125 
L 100.494946 -131.046746 
L 100.936445 -132.085367 
L 101.368629 -133.123988 
L 101.797678 -134.162609 
L 102.231112 -135.20123 
L 102.677006 -136.239852 
L 103.143163 -137.278473 
L 103.63631 -138.317094 
L 104.161412 -139.355715 
L 104.72114 -140.394336 
L 105.315565 -141.432957 
L 105.942074 -142.471578 
L 106.595518 -143.510199 
L 107.268568 -144.54882 
L 107.952229 -145.587441 
L 108.636458 -146.626062 
L 109.310827 -147.664683 
L 109.965174 -148.703304 
L 110.590174 -149.741926 
L 111.177817 -150.780547 
L 111.721739 -151.819168 
L 112.217408 -152.857789 
L 112.662176 -153.89641 
L 113.055197 -154.935031 
L 113.397247 -155.973652 
L 113.690472 -157.012273 
L 113.938095 -158.050894 
L 114.144102 -159.089515 
L 114.312951 -160.128136 
L 114.449297 -161.166757 
L 114.557768 -162.205379 
L 114.642783 -163.244 
L 114.708422 -164.282621 
L 115.068597 -164.282621 
L 115.068597 -164.282621 
L 115.134236 -163.244 
L 115.219251 -162.205379 
L 115.327722 -161.166757 
L 115.464068 -160.128136 
L 115.632916 -159.089515 
L 115.838924 -158.050894 
L 116.086546 -157.012273 
L 116.379772 -155.973652 
L 116.721821 -154.935031 
L 117.114842 -153.89641 
L 117.55961 -152.857789 
L 118.055279 -151.819168 
L 118.599201 -150.780547 
L 119.186845 -149.741926 
L 119.811845 -148.703304 
L 120.466191 -147.664683 
L 121.14056 -146.626062 
L 121.824789 -145.587441 
L 122.50845 -144.54882 
L 123.181501 -143.510199 
L 123.834944 -142.471578 
L 124.461453 -141.432957 
L 125.055878 -140.394336 
L 125.615607 -139.355715 
L 126.140708 -138.317094 
L 126.633856 -137.278473 
L 127.100012 -136.239852 
L 127.545906 -135.20123 
L 127.97934 -134.162609 
L 128.408389 -133.123988 
L 128.840574 -132.085367 
L 129.282072 -131.046746 
L 129.73706 -130.008125 
L 130.207229 -128.969504 
L 130.691526 -127.930883 
L 131.186149 -126.892262 
L 131.684768 -125.853641 
L 132.178972 -124.81502 
L 132.658876 -123.776399 
L 133.11384 -122.737777 
L 133.533233 -121.699156 
L 133.907171 -120.660535 
L 134.227179 -119.621914 
L 134.486715 -118.583293 
L 134.681535 -117.544672 
L 134.809868 -116.506051 
L 134.872398 -115.46743 
L 134.872065 -114.428809 
L 134.813722 -113.390188 
L 134.703652 -112.351567 
L 134.549024 -111.312946 
L 134.357306 -110.274325 
L 134.135698 -109.235703 
L 133.890631 -108.197082 
L 133.627365 -107.158461 
L 133.349723 -106.11984 
L 133.059975 -105.081219 
L 132.758885 -104.042598 
L 132.445904 -103.003977 
L 132.119483 -101.965356 
L 131.777482 -100.926735 
L 131.417603 -99.888114 
L 131.03783 -98.849493 
L 130.636801 -97.810872 
L 130.214087 -96.77225 
L 129.770343 -95.733629 
L 129.307323 -94.695008 
L 128.827754 -93.656387 
L 128.335089 -92.617766 
L 127.833174 -91.579145 
L 127.325859 -90.540524 
L 126.816604 -89.501903 
L 126.308132 -88.463282 
L 125.802161 -87.424661 
L 125.299264 -86.38604 
L 124.798869 -85.347419 
L 124.299419 -84.308798 
L 123.798667 -83.270176 
L 123.294084 -82.231555 
L 122.783332 -81.192934 
L 122.264739 -80.154313 
L 121.737727 -79.115692 
L 121.203116 -78.077071 
L 120.66328 -77.03845 
L 120.122125 -75.999829 
L 119.584885 -74.961208 
L 119.057769 -73.922587 
L 118.547499 -72.883966 
L 118.06079 -71.845345 
L 117.603846 -70.806724 
L 117.181916 -69.768102 
L 116.79896 -68.729481 
L 116.457448 -67.69086 
L 116.158301 -66.652239 
L 115.90097 -65.613618 
L 115.683611 -64.574997 
L 115.503349 -63.536376 
L 115.356574 -62.497755 
L 115.239243 -61.459134 
z
" style="stroke: #343434; stroke-width: 2"/>
    </defs>
    <g clip-path="url(#p2ce611c934)">
     <use xlink:href="#ma8b921019d" x="0" y="352.633275" style="fill: #921a33; stroke: #343434; stroke-width: 2"/>
    </g>
   </g>
   <g id="PolyCollection_3">
    <defs>
     <path id="me1f1135446" d="M 174.942606 -187.915549 
L 174.737742 -187.915549 
L 174.7006 -189.363367 
L 174.653843 -190.811185 
L 174.596262 -192.259003 
L 174.526785 -193.706821 
L 174.444476 -195.154639 
L 174.348482 -196.602456 
L 174.237909 -198.050274 
L 174.111652 -199.498092 
L 173.968182 -200.94591 
L 173.805359 -202.393728 
L 173.620311 -203.841546 
L 173.409432 -205.289363 
L 173.168562 -206.737181 
L 172.893344 -208.184999 
L 172.579755 -209.632817 
L 172.224744 -211.080635 
L 171.826872 -212.528452 
L 171.386841 -213.97627 
L 170.907792 -215.424088 
L 170.39527 -216.871906 
L 169.856819 -218.319724 
L 169.301228 -219.767542 
L 168.737529 -221.215359 
L 168.173887 -222.663177 
L 167.616577 -224.110995 
L 167.069228 -225.558813 
L 166.532483 -227.006631 
L 166.004138 -228.454448 
L 165.479772 -229.902266 
L 164.953734 -231.350084 
L 164.420352 -232.797902 
L 163.875123 -234.24572 
L 163.315706 -235.693538 
L 162.742537 -237.141355 
L 162.15899 -238.589173 
L 161.571085 -240.036991 
L 160.986839 -241.484809 
L 160.415396 -242.932627 
L 159.866142 -244.380444 
L 159.347957 -245.828262 
L 158.868722 -247.27608 
L 158.43515 -248.723898 
L 158.052888 -250.171716 
L 157.726823 -251.619534 
L 157.461438 -253.067351 
L 157.261104 -254.515169 
L 157.13019 -255.962987 
L 157.072955 -257.410805 
L 157.093222 -258.858623 
L 157.193905 -260.30644 
L 157.376484 -261.754258 
L 157.640546 -263.202076 
L 157.983461 -264.649894 
L 158.400271 -266.097712 
L 158.883802 -267.54553 
L 159.424975 -268.993347 
L 160.013283 -270.441165 
L 160.637378 -271.888983 
L 161.285708 -273.336801 
L 161.947169 -274.784619 
L 162.611706 -276.232436 
L 163.270844 -277.680254 
L 163.918091 -279.128072 
L 164.549181 -280.57589 
L 165.16212 -282.023708 
L 165.757012 -283.471526 
L 166.335661 -284.919343 
L 166.900968 -286.367161 
L 167.456201 -287.814979 
L 168.004199 -289.262797 
L 168.546642 -290.710615 
L 169.083492 -292.158433 
L 169.612682 -293.60625 
L 170.130147 -295.054068 
L 170.630175 -296.501886 
L 171.106045 -297.949704 
L 171.550862 -299.397522 
L 171.958444 -300.845339 
L 172.324137 -302.293157 
L 172.645412 -303.740975 
L 172.922172 -305.188793 
L 173.156723 -306.636611 
L 173.353419 -308.084429 
L 173.518079 -309.532246 
L 173.657246 -310.980064 
L 173.777441 -312.427882 
L 173.884501 -313.8757 
L 173.983097 -315.323518 
L 174.076478 -316.771335 
L 174.166442 -318.219153 
L 174.253504 -319.666971 
L 174.337203 -321.114789 
L 174.416474 -322.562607 
L 174.490018 -324.010425 
L 174.556621 -325.458242 
L 174.61538 -326.90606 
L 174.665822 -328.353878 
L 174.70794 -329.801696 
L 174.742141 -331.249514 
L 174.938208 -331.249514 
L 174.938208 -331.249514 
L 174.972408 -329.801696 
L 175.014526 -328.353878 
L 175.064969 -326.90606 
L 175.123727 -325.458242 
L 175.19033 -324.010425 
L 175.263874 -322.562607 
L 175.343145 -321.114789 
L 175.426844 -319.666971 
L 175.513907 -318.219153 
L 175.603871 -316.771335 
L 175.697251 -315.323518 
L 175.795847 -313.8757 
L 175.902907 -312.427882 
L 176.023102 -310.980064 
L 176.16227 -309.532246 
L 176.326929 -308.084429 
L 176.523626 -306.636611 
L 176.758176 -305.188793 
L 177.034936 -303.740975 
L 177.356211 -302.293157 
L 177.721904 -300.845339 
L 178.129487 -299.397522 
L 178.574303 -297.949704 
L 179.050174 -296.501886 
L 179.550201 -295.054068 
L 180.067667 -293.60625 
L 180.596857 -292.158433 
L 181.133706 -290.710615 
L 181.67615 -289.262797 
L 182.224147 -287.814979 
L 182.77938 -286.367161 
L 183.344688 -284.919343 
L 183.923336 -283.471526 
L 184.518229 -282.023708 
L 185.131168 -280.57589 
L 185.762257 -279.128072 
L 186.409504 -277.680254 
L 187.068642 -276.232436 
L 187.73318 -274.784619 
L 188.39464 -273.336801 
L 189.042971 -271.888983 
L 189.667065 -270.441165 
L 190.255373 -268.993347 
L 190.796547 -267.54553 
L 191.280078 -266.097712 
L 191.696888 -264.649894 
L 192.039802 -263.202076 
L 192.303864 -261.754258 
L 192.486444 -260.30644 
L 192.587126 -258.858623 
L 192.607393 -257.410805 
L 192.550159 -255.962987 
L 192.419245 -254.515169 
L 192.21891 -253.067351 
L 191.953526 -251.619534 
L 191.627461 -250.171716 
L 191.245199 -248.723898 
L 190.811626 -247.27608 
L 190.332391 -245.828262 
L 189.814206 -244.380444 
L 189.264953 -242.932627 
L 188.69351 -241.484809 
L 188.109263 -240.036991 
L 187.521359 -238.589173 
L 186.937811 -237.141355 
L 186.364642 -235.693538 
L 185.805226 -234.24572 
L 185.259997 -232.797902 
L 184.726614 -231.350084 
L 184.200577 -229.902266 
L 183.67621 -228.454448 
L 183.147866 -227.006631 
L 182.61112 -225.558813 
L 182.063771 -224.110995 
L 181.506461 -222.663177 
L 180.942819 -221.215359 
L 180.37912 -219.767542 
L 179.82353 -218.319724 
L 179.285078 -216.871906 
L 178.772556 -215.424088 
L 178.293508 -213.97627 
L 177.853477 -212.528452 
L 177.455604 -211.080635 
L 177.100593 -209.632817 
L 176.787004 -208.184999 
L 176.511786 -206.737181 
L 176.270916 -205.289363 
L 176.060037 -203.841546 
L 175.874989 -202.393728 
L 175.712167 -200.94591 
L 175.568696 -199.498092 
L 175.442439 -198.050274 
L 175.331867 -196.602456 
L 175.235872 -195.154639 
L 175.153563 -193.706821 
L 175.084086 -192.259003 
L 175.026506 -190.811185 
L 174.979749 -189.363367 
L 174.942606 -187.915549 
z
" style="stroke: #343434; stroke-width: 2"/>
    </defs>
    <g clip-path="url(#p2ce611c934)">
     <use xlink:href="#me1f1135446" x="0" y="352.633275" style="fill: #4586ac; stroke: #343434; stroke-width: 2"/>
    </g>
   </g>
   <g id="PolyCollection_4">
    <defs>
     <path id="m4ed7ef0758" d="M 214.922704 -135.04808 
L 214.693198 -135.04808 
L 214.656405 -136.25431 
L 214.611486 -137.46054 
L 214.557817 -138.66677 
L 214.49503 -139.872999 
L 214.423039 -141.079229 
L 214.342031 -142.285459 
L 214.252393 -143.491689 
L 214.154588 -144.697918 
L 214.04898 -145.904148 
L 213.935619 -147.110378 
L 213.814029 -148.316607 
L 213.683029 -149.522837 
L 213.540622 -150.729067 
L 213.383992 -151.935297 
L 213.209633 -153.141526 
L 213.013596 -154.347756 
L 212.791853 -155.553986 
L 212.540719 -156.760215 
L 212.257283 -157.966445 
L 211.939781 -159.172675 
L 211.587845 -160.378905 
L 211.202608 -161.585134 
L 210.786626 -162.791364 
L 210.343656 -163.997594 
L 209.878322 -165.203824 
L 209.39574 -166.410053 
L 208.901169 -167.616283 
L 208.399741 -168.822513 
L 207.896299 -170.028742 
L 207.395353 -171.234972 
L 206.901093 -172.441202 
L 206.417423 -173.647432 
L 205.947927 -174.853661 
L 205.495728 -176.059891 
L 205.0632 -177.266121 
L 204.651551 -178.47235 
L 204.260359 -179.67858 
L 203.887136 -180.88481 
L 203.527059 -182.09104 
L 203.172974 -183.297269 
L 202.815756 -184.503499 
L 202.44504 -185.709729 
L 202.050282 -186.915959 
L 201.622046 -188.122188 
L 201.153327 -189.328418 
L 200.640752 -190.534648 
L 200.085446 -191.740877 
L 199.493437 -192.947107 
L 198.875503 -194.153337 
L 198.24648 -195.359567 
L 197.624095 -196.565796 
L 197.027482 -197.772026 
L 196.475572 -198.978256 
L 195.98557 -200.184485 
L 195.571693 -201.390715 
L 195.244337 -202.596945 
L 195.009724 -203.803175 
L 194.870052 -205.009404 
L 194.824063 -206.215634 
L 194.867915 -207.421864 
L 194.996205 -208.628094 
L 195.202954 -209.834323 
L 195.482432 -211.040553 
L 195.829703 -212.246783 
L 196.240839 -213.453012 
L 196.712808 -214.659242 
L 197.243097 -215.865472 
L 197.82917 -217.071702 
L 198.467872 -218.277931 
L 199.154914 -219.484161 
L 199.88453 -220.690391 
L 200.649368 -221.896621 
L 201.440658 -223.10285 
L 202.248612 -224.30908 
L 203.063004 -225.51531 
L 203.873848 -226.721539 
L 204.672054 -227.927769 
L 205.44998 -229.133999 
L 206.201798 -230.340229 
L 206.923617 -231.546458 
L 207.61338 -232.752688 
L 208.270536 -233.958918 
L 208.895583 -235.165147 
L 209.489534 -236.371377 
L 210.053414 -237.577607 
L 210.58786 -238.783837 
L 211.092864 -239.990066 
L 211.567706 -241.196296 
L 212.011054 -242.402526 
L 212.421193 -243.608756 
L 212.796343 -244.814985 
L 213.134995 -246.021215 
L 213.43621 -247.227445 
L 213.699834 -248.433674 
L 213.926616 -249.639904 
L 214.118202 -250.846134 
L 214.277042 -252.052364 
L 214.406215 -253.258593 
L 214.50921 -254.464823 
L 215.106691 -254.464823 
L 215.106691 -254.464823 
L 215.209687 -253.258593 
L 215.338859 -252.052364 
L 215.4977 -250.846134 
L 215.689286 -249.639904 
L 215.916068 -248.433674 
L 216.179692 -247.227445 
L 216.480907 -246.021215 
L 216.819559 -244.814985 
L 217.194709 -243.608756 
L 217.604848 -242.402526 
L 218.048195 -241.196296 
L 218.523038 -239.990066 
L 219.028042 -238.783837 
L 219.562487 -237.577607 
L 220.126368 -236.371377 
L 220.720319 -235.165147 
L 221.345365 -233.958918 
L 222.002522 -232.752688 
L 222.692284 -231.546458 
L 223.414104 -230.340229 
L 224.165922 -229.133999 
L 224.943848 -227.927769 
L 225.742054 -226.721539 
L 226.552897 -225.51531 
L 227.36729 -224.30908 
L 228.175243 -223.10285 
L 228.966534 -221.896621 
L 229.731372 -220.690391 
L 230.460987 -219.484161 
L 231.14803 -218.277931 
L 231.786732 -217.071702 
L 232.372804 -215.865472 
L 232.903094 -214.659242 
L 233.375063 -213.453012 
L 233.786199 -212.246783 
L 234.13347 -211.040553 
L 234.412948 -209.834323 
L 234.619696 -208.628094 
L 234.747986 -207.421864 
L 234.791839 -206.215634 
L 234.745849 -205.009404 
L 234.606177 -203.803175 
L 234.371565 -202.596945 
L 234.044209 -201.390715 
L 233.630332 -200.184485 
L 233.140329 -198.978256 
L 232.58842 -197.772026 
L 231.991807 -196.565796 
L 231.369422 -195.359567 
L 230.740399 -194.153337 
L 230.122465 -192.947107 
L 229.530456 -191.740877 
L 228.97515 -190.534648 
L 228.462575 -189.328418 
L 227.993856 -188.122188 
L 227.565619 -186.915959 
L 227.170862 -185.709729 
L 226.800145 -184.503499 
L 226.442928 -183.297269 
L 226.088843 -182.09104 
L 225.728766 -180.88481 
L 225.355543 -179.67858 
L 224.964351 -178.47235 
L 224.552702 -177.266121 
L 224.120173 -176.059891 
L 223.667975 -174.853661 
L 223.198479 -173.647432 
L 222.714809 -172.441202 
L 222.220549 -171.234972 
L 221.719603 -170.028742 
L 221.216161 -168.822513 
L 220.714732 -167.616283 
L 220.220161 -166.410053 
L 219.737579 -165.203824 
L 219.272245 -163.997594 
L 218.829276 -162.791364 
L 218.413294 -161.585134 
L 218.028057 -160.378905 
L 217.676121 -159.172675 
L 217.358618 -157.966445 
L 217.075183 -156.760215 
L 216.824049 -155.553986 
L 216.602306 -154.347756 
L 216.406269 -153.141526 
L 216.231909 -151.935297 
L 216.07528 -150.729067 
L 215.932872 -149.522837 
L 215.801873 -148.316607 
L 215.680283 -147.110378 
L 215.566922 -145.904148 
L 215.461313 -144.697918 
L 215.363509 -143.491689 
L 215.27387 -142.285459 
L 215.192862 -141.079229 
L 215.120872 -139.872999 
L 215.058085 -138.66677 
L 215.004416 -137.46054 
L 214.959496 -136.25431 
L 214.922704 -135.04808 
z
" style="stroke: #343434; stroke-width: 2"/>
    </defs>
    <g clip-path="url(#p2ce611c934)">
     <use xlink:href="#m4ed7ef0758" x="0" y="352.633275" style="fill: #921a33; stroke: #343434; stroke-width: 2"/>
    </g>
   </g>
   <g id="PolyCollection_5">
    <defs>
     <path id="m5c77d4657a" d="M 274.981646 -79.927412 
L 274.537586 -79.927412 
L 274.467529 -81.488991 
L 274.380902 -83.050569 
L 274.275563 -84.612148 
L 274.149593 -86.173727 
L 274.001428 -87.735306 
L 273.830007 -89.296885 
L 273.634884 -90.858464 
L 273.416318 -92.420042 
L 273.175306 -93.981621 
L 272.913559 -95.5432 
L 272.633414 -97.104779 
L 272.337666 -98.666358 
L 272.029356 -100.227936 
L 271.711504 -101.789515 
L 271.38682 -103.351094 
L 271.057426 -104.912673 
L 270.724608 -106.474252 
L 270.388634 -108.035831 
L 270.04866 -109.597409 
L 269.70275 -111.158988 
L 269.348 -112.720567 
L 268.980791 -114.282146 
L 268.597128 -115.843725 
L 268.193066 -117.405303 
L 267.765165 -118.966882 
L 267.310947 -120.528461 
L 266.829303 -122.09004 
L 266.32081 -123.651619 
L 265.787917 -125.213198 
L 265.234987 -126.774776 
L 264.668166 -128.336355 
L 264.095113 -129.897934 
L 263.524592 -131.459513 
L 262.965995 -133.021092 
L 262.428831 -134.582671 
L 261.922245 -136.144249 
L 261.454616 -137.705828 
L 261.03329 -139.267407 
L 260.664433 -140.828986 
L 260.353042 -142.390565 
L 260.103052 -143.952143 
L 259.917516 -145.513722 
L 259.798791 -147.075301 
L 259.748678 -148.63688 
L 259.768467 -150.198459 
L 259.858865 -151.760038 
L 260.01981 -153.321616 
L 260.250189 -154.883195 
L 260.547526 -156.444774 
L 260.907688 -158.006353 
L 261.324692 -159.567932 
L 261.790672 -161.12951 
L 262.296032 -162.691089 
L 262.829806 -164.252668 
L 263.38021 -165.814247 
L 263.935317 -167.375826 
L 264.483804 -168.937405 
L 265.015677 -170.498983 
L 265.522894 -172.060562 
L 265.999817 -173.622141 
L 266.443445 -175.18372 
L 266.853403 -176.745299 
L 267.231697 -178.306878 
L 267.582268 -179.868456 
L 267.910406 -181.430035 
L 268.222079 -182.991614 
L 268.523268 -184.553193 
L 268.819358 -186.114772 
L 269.114659 -187.67635 
L 269.412079 -189.237929 
L 269.712988 -190.799508 
L 270.017251 -192.361087 
L 270.323422 -193.922666 
L 270.629054 -195.484245 
L 270.931088 -197.045823 
L 271.226252 -198.607402 
L 271.511444 -200.168981 
L 271.784036 -201.73056 
L 272.042091 -203.292139 
L 272.284464 -204.853717 
L 272.510792 -206.415296 
L 272.7214 -207.976875 
L 272.917134 -209.538454 
L 273.099154 -211.100033 
L 273.268735 -212.661612 
L 273.427079 -214.22319 
L 273.575184 -215.784769 
L 273.713758 -217.346348 
L 273.843204 -218.907927 
L 273.963646 -220.469506 
L 274.075001 -222.031085 
L 274.177069 -223.592663 
L 274.269632 -225.154242 
L 274.352542 -226.715821 
L 274.425788 -228.2774 
L 274.48954 -229.838979 
L 274.54416 -231.400557 
L 274.590197 -232.962136 
L 274.628349 -234.523715 
L 274.890883 -234.523715 
L 274.890883 -234.523715 
L 274.929035 -232.962136 
L 274.975071 -231.400557 
L 275.029692 -229.838979 
L 275.093444 -228.2774 
L 275.16669 -226.715821 
L 275.2496 -225.154242 
L 275.342163 -223.592663 
L 275.444231 -222.031085 
L 275.555586 -220.469506 
L 275.676028 -218.907927 
L 275.805474 -217.346348 
L 275.944048 -215.784769 
L 276.092153 -214.22319 
L 276.250497 -212.661612 
L 276.420078 -211.100033 
L 276.602098 -209.538454 
L 276.797831 -207.976875 
L 277.00844 -206.415296 
L 277.234768 -204.853717 
L 277.477141 -203.292139 
L 277.735196 -201.73056 
L 278.007788 -200.168981 
L 278.292979 -198.607402 
L 278.588143 -197.045823 
L 278.890177 -195.484245 
L 279.19581 -193.922666 
L 279.501981 -192.361087 
L 279.806244 -190.799508 
L 280.107153 -189.237929 
L 280.404573 -187.67635 
L 280.699873 -186.114772 
L 280.995964 -184.553193 
L 281.297153 -182.991614 
L 281.608826 -181.430035 
L 281.936964 -179.868456 
L 282.287535 -178.306878 
L 282.665828 -176.745299 
L 283.075787 -175.18372 
L 283.519415 -173.622141 
L 283.996338 -172.060562 
L 284.503555 -170.498983 
L 285.035428 -168.937405 
L 285.583914 -167.375826 
L 286.139021 -165.814247 
L 286.689425 -164.252668 
L 287.2232 -162.691089 
L 287.728559 -161.12951 
L 288.19454 -159.567932 
L 288.611544 -158.006353 
L 288.971705 -156.444774 
L 289.269042 -154.883195 
L 289.499422 -153.321616 
L 289.660367 -151.760038 
L 289.750765 -150.198459 
L 289.770553 -148.63688 
L 289.72044 -147.075301 
L 289.601716 -145.513722 
L 289.41618 -143.952143 
L 289.16619 -142.390565 
L 288.854799 -140.828986 
L 288.485942 -139.267407 
L 288.064615 -137.705828 
L 287.596987 -136.144249 
L 287.0904 -134.582671 
L 286.553237 -133.021092 
L 285.99464 -131.459513 
L 285.424119 -129.897934 
L 284.851066 -128.336355 
L 284.284245 -126.774776 
L 283.731315 -125.213198 
L 283.198422 -123.651619 
L 282.689928 -122.09004 
L 282.208284 -120.528461 
L 281.754066 -118.966882 
L 281.326166 -117.405303 
L 280.922104 -115.843725 
L 280.538441 -114.282146 
L 280.171232 -112.720567 
L 279.816482 -111.158988 
L 279.470571 -109.597409 
L 279.130598 -108.035831 
L 278.794623 -106.474252 
L 278.461805 -104.912673 
L 278.132411 -103.351094 
L 277.807728 -101.789515 
L 277.489876 -100.227936 
L 277.181566 -98.666358 
L 276.885818 -97.104779 
L 276.605672 -95.5432 
L 276.343926 -93.981621 
L 276.102913 -92.420042 
L 275.884347 -90.858464 
L 275.689225 -89.296885 
L 275.517804 -87.735306 
L 275.369639 -86.173727 
L 275.243668 -84.612148 
L 275.13833 -83.050569 
L 275.051702 -81.488991 
L 274.981646 -79.927412 
z
" style="stroke: #343434; stroke-width: 2"/>
    </defs>
    <g clip-path="url(#p2ce611c934)">
     <use xlink:href="#m5c77d4657a" x="0" y="352.633275" style="fill: #4586ac; stroke: #343434; stroke-width: 2"/>
    </g>
   </g>
   <g id="PolyCollection_6">
    <defs>
     <path id="mb84ccce224" d="M 314.891705 -47.574286 
L 314.56308 -47.574286 
L 314.509338 -48.962337 
L 314.443686 -50.350387 
L 314.365416 -51.738437 
L 314.274374 -53.126488 
L 314.171086 -54.514538 
L 314.056832 -55.902588 
L 313.933648 -57.290638 
L 313.804259 -58.678689 
L 313.67192 -60.066739 
L 313.540207 -61.454789 
L 313.412755 -62.84284 
L 313.293001 -64.23089 
L 313.183942 -65.61894 
L 313.087961 -67.006991 
L 313.006704 -68.395041 
L 312.941038 -69.783091 
L 312.891042 -71.171141 
L 312.856023 -72.559192 
L 312.834506 -73.947242 
L 312.824176 -75.335292 
L 312.821767 -76.723343 
L 312.822879 -78.111393 
L 312.821797 -79.499443 
L 312.811315 -80.887494 
L 312.782668 -82.275544 
L 312.725601 -83.663594 
L 312.628634 -85.051644 
L 312.479538 -86.439695 
L 312.266024 -87.827745 
L 311.976573 -89.215795 
L 311.601376 -90.603846 
L 311.133252 -91.991896 
L 310.568478 -93.379946 
L 309.907403 -94.767997 
L 309.1548 -96.156047 
L 308.31986 -97.544097 
L 307.415845 -98.932147 
L 306.45938 -100.320198 
L 305.469461 -101.708248 
L 304.466238 -103.096298 
L 303.469699 -104.484349 
L 302.498367 -105.872399 
L 301.568142 -107.260449 
L 300.691408 -108.6485 
L 299.876506 -110.03655 
L 299.127631 -111.4246 
L 298.44518 -112.81265 
L 297.82653 -114.200701 
L 297.267158 -115.588751 
L 296.76198 -116.976801 
L 296.306765 -118.364852 
L 295.899422 -119.752902 
L 295.541005 -121.140952 
L 295.236265 -122.529003 
L 294.993671 -123.917053 
L 294.824852 -125.305103 
L 294.743504 -126.693153 
L 294.763893 -128.081204 
L 294.899135 -129.469254 
L 295.159479 -130.857304 
L 295.550822 -132.245355 
L 296.073659 -133.633405 
L 296.722607 -135.021455 
L 297.486554 -136.409505 
L 298.3494 -137.797556 
L 299.291265 -139.185606 
L 300.289979 -140.573656 
L 301.322652 -141.961707 
L 302.367132 -143.349757 
L 303.403179 -144.737807 
L 304.413285 -146.125858 
L 305.383103 -147.513908 
L 306.301545 -148.901958 
L 307.16062 -150.290008 
L 307.955131 -151.678059 
L 308.682313 -153.066109 
L 309.341494 -154.454159 
L 309.933812 -155.84221 
L 310.461974 -157.23026 
L 310.930041 -158.61831 
L 311.343204 -160.006361 
L 311.707499 -161.394411 
L 312.029473 -162.782461 
L 312.31579 -164.170511 
L 312.57282 -165.558562 
L 312.806254 -166.946612 
L 313.020795 -168.334662 
L 313.219969 -169.722713 
L 313.406072 -171.110763 
L 313.58026 -172.498813 
L 313.742759 -173.886864 
L 313.89314 -175.274914 
L 314.030645 -176.662964 
L 314.154475 -178.051014 
L 314.264035 -179.439065 
L 314.359104 -180.827115 
L 314.439906 -182.215165 
L 314.507118 -183.603216 
L 314.561801 -184.991266 
L 314.892984 -184.991266 
L 314.892984 -184.991266 
L 314.947667 -183.603216 
L 315.014879 -182.215165 
L 315.095681 -180.827115 
L 315.19075 -179.439065 
L 315.30031 -178.051014 
L 315.42414 -176.662964 
L 315.561645 -175.274914 
L 315.712027 -173.886864 
L 315.874525 -172.498813 
L 316.048713 -171.110763 
L 316.234816 -169.722713 
L 316.43399 -168.334662 
L 316.648531 -166.946612 
L 316.881965 -165.558562 
L 317.138995 -164.170511 
L 317.425312 -162.782461 
L 317.747286 -161.394411 
L 318.111581 -160.006361 
L 318.524744 -158.61831 
L 318.992811 -157.23026 
L 319.520973 -155.84221 
L 320.113291 -154.454159 
L 320.772472 -153.066109 
L 321.499654 -151.678059 
L 322.294165 -150.290008 
L 323.15324 -148.901958 
L 324.071682 -147.513908 
L 325.0415 -146.125858 
L 326.051606 -144.737807 
L 327.087653 -143.349757 
L 328.132133 -141.961707 
L 329.164807 -140.573656 
L 330.16352 -139.185606 
L 331.105385 -137.797556 
L 331.968231 -136.409505 
L 332.732178 -135.021455 
L 333.381126 -133.633405 
L 333.903963 -132.245355 
L 334.295306 -130.857304 
L 334.55565 -129.469254 
L 334.690892 -128.081204 
L 334.711281 -126.693153 
L 334.629933 -125.305103 
L 334.461114 -123.917053 
L 334.218521 -122.529003 
L 333.91378 -121.140952 
L 333.555363 -119.752902 
L 333.14802 -118.364852 
L 332.692805 -116.976801 
L 332.187627 -115.588751 
L 331.628255 -114.200701 
L 331.009605 -112.81265 
L 330.327154 -111.4246 
L 329.578279 -110.03655 
L 328.763377 -108.6485 
L 327.886644 -107.260449 
L 326.956418 -105.872399 
L 325.985086 -104.484349 
L 324.988547 -103.096298 
L 323.985324 -101.708248 
L 322.995405 -100.320198 
L 322.03894 -98.932147 
L 321.134925 -97.544097 
L 320.299985 -96.156047 
L 319.547382 -94.767997 
L 318.886307 -93.379946 
L 318.321533 -91.991896 
L 317.853409 -90.603846 
L 317.478212 -89.215795 
L 317.188761 -87.827745 
L 316.975247 -86.439695 
L 316.826151 -85.051644 
L 316.729184 -83.663594 
L 316.672117 -82.275544 
L 316.64347 -80.887494 
L 316.632988 -79.499443 
L 316.631906 -78.111393 
L 316.633018 -76.723343 
L 316.630609 -75.335292 
L 316.62028 -73.947242 
L 316.598762 -72.559192 
L 316.563743 -71.171141 
L 316.513747 -69.783091 
L 316.448081 -68.395041 
L 316.366824 -67.006991 
L 316.270843 -65.61894 
L 316.161784 -64.23089 
L 316.04203 -62.84284 
L 315.914578 -61.454789 
L 315.782865 -60.066739 
L 315.650526 -58.678689 
L 315.521137 -57.290638 
L 315.397953 -55.902588 
L 315.283699 -54.514538 
L 315.180411 -53.126488 
L 315.089369 -51.738437 
L 315.011099 -50.350387 
L 314.945447 -48.962337 
L 314.891705 -47.574286 
z
" style="stroke: #343434; stroke-width: 2"/>
    </defs>
    <g clip-path="url(#p2ce611c934)">
     <use xlink:href="#mb84ccce224" x="0" y="352.633275" style="fill: #921a33; stroke: #343434; stroke-width: 2"/>
    </g>
   </g>
   <g id="line2d_5">
    <path d="M 74.920733 243.174297 
L 74.920733 144.229228 
" clip-path="url(#p2ce611c934)" style="fill: none; stroke: #343434; stroke-width: 2; stroke-linecap: round"/>
   </g>
   <g id="line2d_6">
    <path d="M 74.920733 210.761257 
L 74.920733 176.642267 
" clip-path="url(#p2ce611c934)" style="fill: none; stroke: #343434; stroke-width: 6; stroke-linecap: round"/>
   </g>
   <g id="line2d_7">
    <path d="M 114.888509 275.587337 
L 114.888509 203.937459 
" clip-path="url(#p2ce611c934)" style="fill: none; stroke: #343434; stroke-width: 2; stroke-linecap: round"/>
   </g>
   <g id="line2d_8">
    <path d="M 114.888509 253.409994 
L 114.888509 227.820751 
" clip-path="url(#p2ce611c934)" style="fill: none; stroke: #343434; stroke-width: 6; stroke-linecap: round"/>
   </g>
   <g id="line2d_9">
    <path d="M 174.840174 145.935177 
L 174.840174 40.16631 
" clip-path="url(#p2ce611c934)" style="fill: none; stroke: #343434; stroke-width: 2; stroke-linecap: round"/>
   </g>
   <g id="line2d_10">
    <path d="M 174.840174 108.404289 
L 174.840174 81.109097 
" clip-path="url(#p2ce611c934)" style="fill: none; stroke: #343434; stroke-width: 6; stroke-linecap: round"/>
   </g>
   <g id="line2d_11">
    <path d="M 214.807951 200.52556 
L 214.807951 115.228087 
" clip-path="url(#p2ce611c934)" style="fill: none; stroke: #343434; stroke-width: 2; stroke-linecap: round"/>
   </g>
   <g id="line2d_12">
    <path d="M 214.807951 165.553596 
L 214.807951 137.40543 
" clip-path="url(#p2ce611c934)" style="fill: none; stroke: #343434; stroke-width: 6; stroke-linecap: round"/>
   </g>
   <g id="line2d_13">
    <path d="M 274.759616 248.292145 
L 274.759616 159.582773 
" clip-path="url(#p2ce611c934)" style="fill: none; stroke: #343434; stroke-width: 2; stroke-linecap: round"/>
   </g>
   <g id="line2d_14">
    <path d="M 274.759616 215.452618 
L 274.759616 190.289863 
" clip-path="url(#p2ce611c934)" style="fill: none; stroke: #343434; stroke-width: 6; stroke-linecap: round"/>
   </g>
   <g id="line2d_15">
    <path d="M 314.727393 272.175438 
L 314.727393 186.877964 
" clip-path="url(#p2ce611c934)" style="fill: none; stroke: #343434; stroke-width: 2; stroke-linecap: round"/>
   </g>
   <g id="line2d_16">
    <path d="M 314.727393 240.615373 
L 314.727393 218.011542 
" clip-path="url(#p2ce611c934)" style="fill: none; stroke: #343434; stroke-width: 6; stroke-linecap: round"/>
   </g>
   <g id="patch_5">
    <path d="M 44.9449 319.24275 
L 44.9449 7.2 
" style="fill: none; stroke: #bcbcbc; stroke-linejoin: miter; stroke-linecap: square"/>
   </g>
   <g id="patch_6">
    <path d="M 44.9449 319.24275 
L 344.703225 319.24275 
" style="fill: none; stroke: #bcbcbc; stroke-linejoin: miter; stroke-linecap: square"/>
   </g>
   <g id="PathCollection_1">
    <defs>
     <path id="mf9a7eb5411" d="M 0 2 
C 0.530406 2 1.03916 1.789267 1.414214 1.414214 
C 1.789267 1.03916 2 0.530406 2 0 
C 2 -0.530406 1.789267 -1.03916 1.414214 -1.414214 
C 1.03916 -1.789267 0.530406 -2 0 -2 
C -0.530406 -2 -1.03916 -1.789267 -1.414214 -1.414214 
C -1.789267 -1.03916 -2 -0.530406 -2 0 
C -2 0.530406 -1.789267 1.03916 -1.414214 1.414214 
C -1.03916 1.789267 -0.530406 2 0 2 
z
" style="stroke: #343434; stroke-width: 0.5"/>
    </defs>
    <g clip-path="url(#p2ce611c934)">
     <use xlink:href="#mf9a7eb5411" x="74.920733" y="197.113661" style="fill: #ffffff; stroke: #343434; stroke-width: 0.5"/>
    </g>
   </g>
   <g id="PathCollection_2">
    <g clip-path="url(#p2ce611c934)">
     <use xlink:href="#mf9a7eb5411" x="114.888509" y="238.056448" style="fill: #ffffff; stroke: #343434; stroke-width: 0.5"/>
    </g>
   </g>
   <g id="PathCollection_3">
    <g clip-path="url(#p2ce611c934)">
     <use xlink:href="#mf9a7eb5411" x="174.840174" y="94.756693" style="fill: #ffffff; stroke: #343434; stroke-width: 0.5"/>
    </g>
   </g>
   <g id="PathCollection_4">
    <g clip-path="url(#p2ce611c934)">
     <use xlink:href="#mf9a7eb5411" x="214.807951" y="149.347076" style="fill: #ffffff; stroke: #343434; stroke-width: 0.5"/>
    </g>
   </g>
   <g id="PathCollection_5">
    <g clip-path="url(#p2ce611c934)">
     <use xlink:href="#mf9a7eb5411" x="274.759616" y="200.52556" style="fill: #ffffff; stroke: #343434; stroke-width: 0.5"/>
    </g>
   </g>
   <g id="PathCollection_6">
    <g clip-path="url(#p2ce611c934)">
     <use xlink:href="#mf9a7eb5411" x="314.727393" y="227.820751" style="fill: #ffffff; stroke: #343434; stroke-width: 0.5"/>
    </g>
   </g>
  </g>
  <g id="legend_1">
   <g id="text_10">
    <!-- sex -->
    <g style="fill: #262626" transform="translate(369.000775 166.350512) scale(0.096 -0.096)">
     <defs>
      <path id="ArialMT-78" d="M 47 0 
L 1259 1725 
L 138 3319 
L 841 3319 
L 1350 2541 
Q 1494 2319 1581 2169 
Q 1719 2375 1834 2534 
L 2394 3319 
L 3066 3319 
L 1919 1756 
L 3153 0 
L 2463 0 
L 1781 1031 
L 1600 1309 
L 728 0 
L 47 0 
z
" transform="scale(0.015625)"/>
     </defs>
     <use xlink:href="#ArialMT-73"/>
     <use xlink:href="#ArialMT-65" x="50"/>
     <use xlink:href="#ArialMT-78" x="105.615234"/>
    </g>
   </g>
   <g id="patch_7">
    <path d="M 350.944525 178.957387 
L 368.544525 178.957387 
L 368.544525 172.797387 
L 350.944525 172.797387 
z
" style="fill: #4586ac; stroke: #343434; stroke-linejoin: miter"/>
   </g>
   <g id="text_11">
    <!-- male -->
    <g style="fill: #262626" transform="translate(375.584525 178.957387) scale(0.088 -0.088)">
     <use xlink:href="#ArialMT-6d"/>
     <use xlink:href="#ArialMT-61" x="83.300781"/>
     <use xlink:href="#ArialMT-6c" x="138.916016"/>
     <use xlink:href="#ArialMT-65" x="161.132812"/>
    </g>
   </g>
   <g id="patch_8">
    <path d="M 350.944525 191.405262 
L 368.544525 191.405262 
L 368.544525 185.245262 
L 350.944525 185.245262 
z
" style="fill: #921a33; stroke: #343434; stroke-linejoin: miter"/>
   </g>
   <g id="text_12">
    <!-- female -->
    <g style="fill: #262626" transform="translate(375.584525 191.405262) scale(0.088 -0.088)">
     <defs>
      <path id="ArialMT-66" d="M 556 0 
L 556 2881 
L 59 2881 
L 59 3319 
L 556 3319 
L 556 3672 
Q 556 4006 616 4169 
Q 697 4388 901 4523 
Q 1106 4659 1475 4659 
Q 1713 4659 2000 4603 
L 1916 4113 
Q 1741 4144 1584 4144 
Q 1328 4144 1222 4034 
Q 1116 3925 1116 3625 
L 1116 3319 
L 1763 3319 
L 1763 2881 
L 1116 2881 
L 1116 0 
L 556 0 
z
" transform="scale(0.015625)"/>
     </defs>
     <use xlink:href="#ArialMT-66"/>
     <use xlink:href="#ArialMT-65" x="27.783203"/>
     <use xlink:href="#ArialMT-6d" x="83.398438"/>
     <use xlink:href="#ArialMT-61" x="166.699219"/>
     <use xlink:href="#ArialMT-6c" x="222.314453"/>
     <use xlink:href="#ArialMT-65" x="244.53125"/>
    </g>
   </g>
  </g>
 </g>
 <defs>
  <clipPath id="p2ce611c934">
   <rect x="44.9449" y="7.2" width="299.758325" height="312.04275"/>
  </clipPath>
 </defs>
</svg>