<?xml version="1.0" encoding="utf-8" standalone="no"?>
<!DOCTYPE svg PUBLIC "-//W3C//DTD SVG 1.1//EN"
  "http://www.w3.org/Graphics/SVG/1.1/DTD/svg11.dtd">
<svg xmlns:xlink="http://www.w3.org/1999/xlink" width="572.4pt" height="381.224844pt" viewBox="0 0 572.4 381.224844" xmlns="http://www.w3.org/2000/svg" version="1.1">
 <metadata>
  <rdf:RDF xmlns:dc="http://purl.org/dc/elements/1.1/" xmlns:cc="http://creativecommons.org/ns#" xmlns:rdf="http://www.w3.org/1999/02/22-rdf-syntax-ns#">
   <cc:Work>
    <dc:type rdf:resource="http://purl.org/dc/dcmitype/StillImage"/>
    <dc:date>2023-05-12T20:13:17.883549</dc:date>
    <dc:format>image/svg+xml</dc:format>
    <dc:creator>
     <cc:Agent>
      <dc:title>Matplotlib v3.7.1, https://matplotlib.org/</dc:title>
     </cc:Agent>
    </dc:creator>
   </cc:Work>
  </rdf:RDF>
 </metadata>
 <defs>
  <style type="text/css">*{stroke-linejoin: round; stroke-linecap: butt}</style>
 </defs>
 <g id="figure_1">
  <g id="patch_1">
   <path d="M 0 381.224844 
L 572.4 381.224844 
L 572.4 0 
L 0 0 
z
" style="fill: #ffffff"/>
  </g>
  <g id="axes_1">
   <g id="patch_2">
    <path d="M 7.2 354.465 
L 565.2 354.465 
L 565.2 21.825 
L 7.2 21.825 
z
" style="fill: #eaeaf2"/>
   </g>
   <g id="matplotlib.axis_1">
    <g id="xtick_1">
     <g id="line2d_1">
      <path d="M 47.069343 354.465 
L 47.069343 21.825 
" clip-path="url(#p91f75db1ab)" style="fill: none; stroke: #ffffff; stroke-linecap: round"/>
     </g>
     <g id="text_1">
      <!-- 0.0 -->
      <g style="fill: #262626" transform="translate(39.424343 371.838594) scale(0.11 -0.11)">
       <defs>
        <path id="ArialMT-30" d="M 266 2259 
Q 266 3072 433 3567 
Q 600 4063 929 4331 
Q 1259 4600 1759 4600 
Q 2128 4600 2406 4451 
Q 2684 4303 2865 4023 
Q 3047 3744 3150 3342 
Q 3253 2941 3253 2259 
Q 3253 1453 3087 958 
Q 2922 463 2592 192 
Q 2263 -78 1759 -78 
Q 1097 -78 719 397 
Q 266 969 266 2259 
z
M 844 2259 
Q 844 1131 1108 757 
Q 1372 384 1759 384 
Q 2147 384 2411 759 
Q 2675 1134 2675 2259 
Q 2675 3391 2411 3762 
Q 2147 4134 1753 4134 
Q 1366 4134 1134 3806 
Q 844 3388 844 2259 
z
" transform="scale(0.015625)"/>
        <path id="ArialMT-2e" d="M 581 0 
L 581 641 
L 1222 641 
L 1222 0 
L 581 0 
z
" transform="scale(0.015625)"/>
       </defs>
       <use xlink:href="#ArialMT-30"/>
       <use xlink:href="#ArialMT-2e" x="55.615234"/>
       <use xlink:href="#ArialMT-30" x="83.398438"/>
      </g>
     </g>
    </g>
    <g id="xtick_2">
     <g id="line2d_2">
      <path d="M 118.80854 354.465 
L 118.80854 21.825 
" clip-path="url(#p91f75db1ab)" style="fill: none; stroke: #ffffff; stroke-linecap: round"/>
     </g>
     <g id="text_2">
      <!-- 0.2 -->
      <g style="fill: #262626" transform="translate(111.16354 371.838594) scale(0.11 -0.11)">
       <defs>
        <path id="ArialMT-32" d="M 3222 541 
L 3222 0 
L 194 0 
Q 188 203 259 391 
Q 375 700 629 1000 
Q 884 1300 1366 1694 
Q 2113 2306 2375 2664 
Q 2638 3022 2638 3341 
Q 2638 3675 2398 3904 
Q 2159 4134 1775 4134 
Q 1369 4134 1125 3890 
Q 881 3647 878 3216 
L 300 3275 
Q 359 3922 746 4261 
Q 1134 4600 1788 4600 
Q 2447 4600 2831 4234 
Q 3216 3869 3216 3328 
Q 3216 3053 3103 2787 
Q 2991 2522 2730 2228 
Q 2469 1934 1863 1422 
Q 1356 997 1212 845 
Q 1069 694 975 541 
L 3222 541 
z
" transform="scale(0.015625)"/>
       </defs>
       <use xlink:href="#ArialMT-30"/>
       <use xlink:href="#ArialMT-2e" x="55.615234"/>
       <use xlink:href="#ArialMT-32" x="83.398438"/>
      </g>
     </g>
    </g>
    <g id="xtick_3">
     <g id="line2d_3">
      <path d="M 190.547737 354.465 
L 190.547737 21.825 
" clip-path="url(#p91f75db1ab)" style="fill: none; stroke: #ffffff; stroke-linecap: round"/>
     </g>
     <g id="text_3">
      <!-- 0.4 -->
      <g style="fill: #262626" transform="translate(182.902737 371.838594) scale(0.11 -0.11)">
       <defs>
        <path id="ArialMT-34" d="M 2069 0 
L 2069 1097 
L 81 1097 
L 81 1613 
L 2172 4581 
L 2631 4581 
L 2631 1613 
L 3250 1613 
L 3250 1097 
L 2631 1097 
L 2631 0 
L 2069 0 
z
M 2069 1613 
L 2069 3678 
L 634 1613 
L 2069 1613 
z
" transform="scale(0.015625)"/>
       </defs>
       <use xlink:href="#ArialMT-30"/>
       <use xlink:href="#ArialMT-2e" x="55.615234"/>
       <use xlink:href="#ArialMT-34" x="83.398438"/>
      </g>
     </g>
    </g>
    <g id="xtick_4">
     <g id="line2d_4">
      <path d="M 262.286934 354.465 
L 262.286934 21.825 
" clip-path="url(#p91f75db1ab)" style="fill: none; stroke: #ffffff; stroke-linecap: round"/>
     </g>
     <g id="text_4">
      <!-- 0.6 -->
      <g style="fill: #262626" transform="translate(254.641934 371.838594) scale(0.11 -0.11)">
       <defs>
        <path id="ArialMT-36" d="M 3184 3459 
L 2625 3416 
Q 2550 3747 2413 3897 
Q 2184 4138 1850 4138 
Q 1581 4138 1378 3988 
Q 1113 3794 959 3422 
Q 806 3050 800 2363 
Q 1003 2672 1297 2822 
Q 1591 2972 1913 2972 
Q 2475 2972 2870 2558 
Q 3266 2144 3266 1488 
Q 3266 1056 3080 686 
Q 2894 316 2569 119 
Q 2244 -78 1831 -78 
Q 1128 -78 684 439 
Q 241 956 241 2144 
Q 241 3472 731 4075 
Q 1159 4600 1884 4600 
Q 2425 4600 2770 4297 
Q 3116 3994 3184 3459 
z
M 888 1484 
Q 888 1194 1011 928 
Q 1134 663 1356 523 
Q 1578 384 1822 384 
Q 2178 384 2434 671 
Q 2691 959 2691 1453 
Q 2691 1928 2437 2201 
Q 2184 2475 1800 2475 
Q 1419 2475 1153 2201 
Q 888 1928 888 1484 
z
" transform="scale(0.015625)"/>
       </defs>
       <use xlink:href="#ArialMT-30"/>
       <use xlink:href="#ArialMT-2e" x="55.615234"/>
       <use xlink:href="#ArialMT-36" x="83.398438"/>
      </g>
     </g>
    </g>
    <g id="xtick_5">
     <g id="line2d_5">
      <path d="M 334.026131 354.465 
L 334.026131 21.825 
" clip-path="url(#p91f75db1ab)" style="fill: none; stroke: #ffffff; stroke-linecap: round"/>
     </g>
     <g id="text_5">
      <!-- 0.8 -->
      <g style="fill: #262626" transform="translate(326.381131 371.838594) scale(0.11 -0.11)">
       <defs>
        <path id="ArialMT-38" d="M 1131 2484 
Q 781 2613 612 2850 
Q 444 3088 444 3419 
Q 444 3919 803 4259 
Q 1163 4600 1759 4600 
Q 2359 4600 2725 4251 
Q 3091 3903 3091 3403 
Q 3091 3084 2923 2848 
Q 2756 2613 2416 2484 
Q 2838 2347 3058 2040 
Q 3278 1734 3278 1309 
Q 3278 722 2862 322 
Q 2447 -78 1769 -78 
Q 1091 -78 675 323 
Q 259 725 259 1325 
Q 259 1772 486 2073 
Q 713 2375 1131 2484 
z
M 1019 3438 
Q 1019 3113 1228 2906 
Q 1438 2700 1772 2700 
Q 2097 2700 2305 2904 
Q 2513 3109 2513 3406 
Q 2513 3716 2298 3927 
Q 2084 4138 1766 4138 
Q 1444 4138 1231 3931 
Q 1019 3725 1019 3438 
z
M 838 1322 
Q 838 1081 952 856 
Q 1066 631 1291 507 
Q 1516 384 1775 384 
Q 2178 384 2440 643 
Q 2703 903 2703 1303 
Q 2703 1709 2433 1975 
Q 2163 2241 1756 2241 
Q 1359 2241 1098 1978 
Q 838 1716 838 1322 
z
" transform="scale(0.015625)"/>
       </defs>
       <use xlink:href="#ArialMT-30"/>
       <use xlink:href="#ArialMT-2e" x="55.615234"/>
       <use xlink:href="#ArialMT-38" x="83.398438"/>
      </g>
     </g>
    </g>
    <g id="xtick_6">
     <g id="line2d_6">
      <path d="M 405.765328 354.465 
L 405.765328 21.825 
" clip-path="url(#p91f75db1ab)" style="fill: none; stroke: #ffffff; stroke-linecap: round"/>
     </g>
     <g id="text_6">
      <!-- 1.0 -->
      <g style="fill: #262626" transform="translate(398.120328 371.838594) scale(0.11 -0.11)">
       <defs>
        <path id="ArialMT-31" d="M 2384 0 
L 1822 0 
L 1822 3584 
Q 1619 3391 1289 3197 
Q 959 3003 697 2906 
L 697 3450 
Q 1169 3672 1522 3987 
Q 1875 4303 2022 4600 
L 2384 4600 
L 2384 0 
z
" transform="scale(0.015625)"/>
       </defs>
       <use xlink:href="#ArialMT-31"/>
       <use xlink:href="#ArialMT-2e" x="55.615234"/>
       <use xlink:href="#ArialMT-30" x="83.398438"/>
      </g>
     </g>
    </g>
    <g id="xtick_7">
     <g id="line2d_7">
      <path d="M 477.504526 354.465 
L 477.504526 21.825 
" clip-path="url(#p91f75db1ab)" style="fill: none; stroke: #ffffff; stroke-linecap: round"/>
     </g>
     <g id="text_7">
      <!-- 1.2 -->
      <g style="fill: #262626" transform="translate(469.859526 371.838594) scale(0.11 -0.11)">
       <use xlink:href="#ArialMT-31"/>
       <use xlink:href="#ArialMT-2e" x="55.615234"/>
       <use xlink:href="#ArialMT-32" x="83.398438"/>
      </g>
     </g>
    </g>
    <g id="xtick_8">
     <g id="line2d_8">
      <path d="M 549.243723 354.465 
L 549.243723 21.825 
" clip-path="url(#p91f75db1ab)" style="fill: none; stroke: #ffffff; stroke-linecap: round"/>
     </g>
     <g id="text_8">
      <!-- 1.4 -->
      <g style="fill: #262626" transform="translate(541.598723 371.838594) scale(0.11 -0.11)">
       <use xlink:href="#ArialMT-31"/>
       <use xlink:href="#ArialMT-2e" x="55.615234"/>
       <use xlink:href="#ArialMT-34" x="83.398438"/>
      </g>
     </g>
    </g>
   </g>
   <g id="matplotlib.axis_2">
    <g id="ytick_1">
     <g id="line2d_9">
      <path d="M 7.2 354.465 
L 565.2 354.465 
" clip-path="url(#p91f75db1ab)" style="fill: none; stroke: #ffffff; stroke-linecap: round"/>
     </g>
    </g>
    <g id="ytick_2">
     <g id="line2d_10">
      <path d="M 7.2 311.304237 
L 565.2 311.304237 
" clip-path="url(#p91f75db1ab)" style="fill: none; stroke: #ffffff; stroke-linecap: round"/>
     </g>
    </g>
    <g id="ytick_3">
     <g id="line2d_11">
      <path d="M 7.2 268.143474 
L 565.2 268.143474 
" clip-path="url(#p91f75db1ab)" style="fill: none; stroke: #ffffff; stroke-linecap: round"/>
     </g>
    </g>
    <g id="ytick_4">
     <g id="line2d_12">
      <path d="M 7.2 224.982711 
L 565.2 224.982711 
" clip-path="url(#p91f75db1ab)" style="fill: none; stroke: #ffffff; stroke-linecap: round"/>
     </g>
    </g>
    <g id="ytick_5">
     <g id="line2d_13">
      <path d="M 7.2 181.821948 
L 565.2 181.821948 
" clip-path="url(#p91f75db1ab)" style="fill: none; stroke: #ffffff; stroke-linecap: round"/>
     </g>
    </g>
    <g id="ytick_6">
     <g id="line2d_14">
      <path d="M 7.2 138.661185 
L 565.2 138.661185 
" clip-path="url(#p91f75db1ab)" style="fill: none; stroke: #ffffff; stroke-linecap: round"/>
     </g>
    </g>
    <g id="ytick_7">
     <g id="line2d_15">
      <path d="M 7.2 95.500422 
L 565.2 95.500422 
" clip-path="url(#p91f75db1ab)" style="fill: none; stroke: #ffffff; stroke-linecap: round"/>
     </g>
    </g>
    <g id="ytick_8">
     <g id="line2d_16">
      <path d="M 7.2 52.339659 
L 565.2 52.339659 
" clip-path="url(#p91f75db1ab)" style="fill: none; stroke: #ffffff; stroke-linecap: round"/>
     </g>
    </g>
   </g>
   <g id="patch_3">
    <path d="M 68.657369 354.465 
L 73.333663 354.465 
L 73.333663 353.601785 
L 68.657369 353.601785 
z
" clip-path="url(#p91f75db1ab)" style="fill: #0173b2; fill-opacity: 0.75; stroke: #ffffff; stroke-width: 0.704545; stroke-linejoin: miter"/>
   </g>
   <g id="patch_4">
    <path d="M 73.333663 354.465 
L 78.009958 354.465 
L 78.009958 354.249196 
L 73.333663 354.249196 
z
" clip-path="url(#p91f75db1ab)" style="fill: #0173b2; fill-opacity: 0.75; stroke: #ffffff; stroke-width: 0.704545; stroke-linejoin: miter"/>
   </g>
   <g id="patch_5">
    <path d="M 78.009958 354.465 
L 82.686253 354.465 
L 82.686253 352.954373 
L 78.009958 352.954373 
z
" clip-path="url(#p91f75db1ab)" style="fill: #0173b2; fill-opacity: 0.75; stroke: #ffffff; stroke-width: 0.704545; stroke-linejoin: miter"/>
   </g>
   <g id="patch_6">
    <path d="M 82.686253 354.465 
L 87.362548 354.465 
L 87.362548 352.738569 
L 82.686253 352.738569 
z
" clip-path="url(#p91f75db1ab)" style="fill: #0173b2; fill-opacity: 0.75; stroke: #ffffff; stroke-width: 0.704545; stroke-linejoin: miter"/>
   </g>
   <g id="patch_7">
    <path d="M 87.362548 354.465 
L 92.038843 354.465 
L 92.038843 351.227943 
L 87.362548 351.227943 
z
" clip-path="url(#p91f75db1ab)" style="fill: #0173b2; fill-opacity: 0.75; stroke: #ffffff; stroke-width: 0.704545; stroke-linejoin: miter"/>
   </g>
   <g id="patch_8">
    <path d="M 92.038843 354.465 
L 96.715138 354.465 
L 96.715138 350.796335 
L 92.038843 350.796335 
z
" clip-path="url(#p91f75db1ab)" style="fill: #0173b2; fill-opacity: 0.75; stroke: #ffffff; stroke-width: 0.704545; stroke-linejoin: miter"/>
   </g>
   <g id="patch_9">
    <path d="M 96.715138 354.465 
L 101.391433 354.465 
L 101.391433 349.93312 
L 96.715138 349.93312 
z
" clip-path="url(#p91f75db1ab)" style="fill: #0173b2; fill-opacity: 0.75; stroke: #ffffff; stroke-width: 0.704545; stroke-linejoin: miter"/>
   </g>
   <g id="patch_10">
    <path d="M 101.391433 354.465 
L 106.067728 354.465 
L 106.067728 349.069905 
L 101.391433 349.069905 
z
" clip-path="url(#p91f75db1ab)" style="fill: #0173b2; fill-opacity: 0.75; stroke: #ffffff; stroke-width: 0.704545; stroke-linejoin: miter"/>
   </g>
   <g id="patch_11">
    <path d="M 106.067728 354.465 
L 110.744023 354.465 
L 110.744023 346.048651 
L 106.067728 346.048651 
z
" clip-path="url(#p91f75db1ab)" style="fill: #0173b2; fill-opacity: 0.75; stroke: #ffffff; stroke-width: 0.704545; stroke-linejoin: miter"/>
   </g>
   <g id="patch_12">
    <path d="M 110.744023 354.465 
L 115.420317 354.465 
L 115.420317 347.12767 
L 110.744023 347.12767 
z
" clip-path="url(#p91f75db1ab)" style="fill: #0173b2; fill-opacity: 0.75; stroke: #ffffff; stroke-width: 0.704545; stroke-linejoin: miter"/>
   </g>
   <g id="patch_13">
    <path d="M 115.420317 354.465 
L 120.096612 354.465 
L 120.096612 345.832847 
L 115.420317 345.832847 
z
" clip-path="url(#p91f75db1ab)" style="fill: #0173b2; fill-opacity: 0.75; stroke: #ffffff; stroke-width: 0.704545; stroke-linejoin: miter"/>
   </g>
   <g id="patch_14">
    <path d="M 120.096612 354.465 
L 124.772907 354.465 
L 124.772907 338.06391 
L 120.096612 338.06391 
z
" clip-path="url(#p91f75db1ab)" style="fill: #0173b2; fill-opacity: 0.75; stroke: #ffffff; stroke-width: 0.704545; stroke-linejoin: miter"/>
   </g>
   <g id="patch_15">
    <path d="M 124.772907 354.465 
L 129.449202 354.465 
L 129.449202 338.06391 
L 124.772907 338.06391 
z
" clip-path="url(#p91f75db1ab)" style="fill: #0173b2; fill-opacity: 0.75; stroke: #ffffff; stroke-width: 0.704545; stroke-linejoin: miter"/>
   </g>
   <g id="patch_16">
    <path d="M 129.449202 354.465 
L 134.125497 354.465 
L 134.125497 334.826853 
L 129.449202 334.826853 
z
" clip-path="url(#p91f75db1ab)" style="fill: #0173b2; fill-opacity: 0.75; stroke: #ffffff; stroke-width: 0.704545; stroke-linejoin: miter"/>
   </g>
   <g id="patch_17">
    <path d="M 134.125497 354.465 
L 138.801792 354.465 
L 138.801792 335.690068 
L 134.125497 335.690068 
z
" clip-path="url(#p91f75db1ab)" style="fill: #0173b2; fill-opacity: 0.75; stroke: #ffffff; stroke-width: 0.704545; stroke-linejoin: miter"/>
   </g>
   <g id="patch_18">
    <path d="M 138.801792 354.465 
L 143.478087 354.465 
L 143.478087 323.820858 
L 138.801792 323.820858 
z
" clip-path="url(#p91f75db1ab)" style="fill: #0173b2; fill-opacity: 0.75; stroke: #ffffff; stroke-width: 0.704545; stroke-linejoin: miter"/>
   </g>
   <g id="patch_19">
    <path d="M 143.478087 354.465 
L 148.154382 354.465 
L 148.154382 320.152193 
L 143.478087 320.152193 
z
" clip-path="url(#p91f75db1ab)" style="fill: #0173b2; fill-opacity: 0.75; stroke: #ffffff; stroke-width: 0.704545; stroke-linejoin: miter"/>
   </g>
   <g id="patch_20">
    <path d="M 148.154382 354.465 
L 152.830677 354.465 
L 152.830677 315.40451 
L 148.154382 315.40451 
z
" clip-path="url(#p91f75db1ab)" style="fill: #0173b2; fill-opacity: 0.75; stroke: #ffffff; stroke-width: 0.704545; stroke-linejoin: miter"/>
   </g>
   <g id="patch_21">
    <path d="M 152.830677 354.465 
L 157.506971 354.465 
L 157.506971 315.620313 
L 152.830677 315.620313 
z
" clip-path="url(#p91f75db1ab)" style="fill: #0173b2; fill-opacity: 0.75; stroke: #ffffff; stroke-width: 0.704545; stroke-linejoin: miter"/>
   </g>
   <g id="patch_22">
    <path d="M 157.506971 354.465 
L 162.183266 354.465 
L 162.183266 306.772357 
L 157.506971 306.772357 
z
" clip-path="url(#p91f75db1ab)" style="fill: #0173b2; fill-opacity: 0.75; stroke: #ffffff; stroke-width: 0.704545; stroke-linejoin: miter"/>
   </g>
   <g id="patch_23">
    <path d="M 162.183266 354.465 
L 166.859561 354.465 
L 166.859561 295.982166 
L 162.183266 295.982166 
z
" clip-path="url(#p91f75db1ab)" style="fill: #0173b2; fill-opacity: 0.75; stroke: #ffffff; stroke-width: 0.704545; stroke-linejoin: miter"/>
   </g>
   <g id="patch_24">
    <path d="M 166.859561 354.465 
L 171.535856 354.465 
L 171.535856 291.881894 
L 166.859561 291.881894 
z
" clip-path="url(#p91f75db1ab)" style="fill: #0173b2; fill-opacity: 0.75; stroke: #ffffff; stroke-width: 0.704545; stroke-linejoin: miter"/>
   </g>
   <g id="patch_25">
    <path d="M 171.535856 354.465 
L 176.212151 354.465 
L 176.212151 287.350014 
L 171.535856 287.350014 
z
" clip-path="url(#p91f75db1ab)" style="fill: #0173b2; fill-opacity: 0.75; stroke: #ffffff; stroke-width: 0.704545; stroke-linejoin: miter"/>
   </g>
   <g id="patch_26">
    <path d="M 176.212151 354.465 
L 180.888446 354.465 
L 180.888446 279.149469 
L 176.212151 279.149469 
z
" clip-path="url(#p91f75db1ab)" style="fill: #0173b2; fill-opacity: 0.75; stroke: #ffffff; stroke-width: 0.704545; stroke-linejoin: miter"/>
   </g>
   <g id="patch_27">
    <path d="M 180.888446 354.465 
L 185.564741 354.465 
L 185.564741 280.228488 
L 180.888446 280.228488 
z
" clip-path="url(#p91f75db1ab)" style="fill: #0173b2; fill-opacity: 0.75; stroke: #ffffff; stroke-width: 0.704545; stroke-linejoin: miter"/>
   </g>
   <g id="patch_28">
    <path d="M 185.564741 354.465 
L 190.241036 354.465 
L 190.241036 263.827398 
L 185.564741 263.827398 
z
" clip-path="url(#p91f75db1ab)" style="fill: #0173b2; fill-opacity: 0.75; stroke: #ffffff; stroke-width: 0.704545; stroke-linejoin: miter"/>
   </g>
   <g id="patch_29">
    <path d="M 190.241036 354.465 
L 194.917331 354.465 
L 194.917331 248.936935 
L 190.241036 248.936935 
z
" clip-path="url(#p91f75db1ab)" style="fill: #0173b2; fill-opacity: 0.75; stroke: #ffffff; stroke-width: 0.704545; stroke-linejoin: miter"/>
   </g>
   <g id="patch_30">
    <path d="M 194.917331 354.465 
L 199.593625 354.465 
L 199.593625 257.569087 
L 194.917331 257.569087 
z
" clip-path="url(#p91f75db1ab)" style="fill: #0173b2; fill-opacity: 0.75; stroke: #ffffff; stroke-width: 0.704545; stroke-linejoin: miter"/>
   </g>
   <g id="patch_31">
    <path d="M 199.593625 354.465 
L 204.26992 354.465 
L 204.26992 225.414319 
L 199.593625 225.414319 
z
" clip-path="url(#p91f75db1ab)" style="fill: #0173b2; fill-opacity: 0.75; stroke: #ffffff; stroke-width: 0.704545; stroke-linejoin: miter"/>
   </g>
   <g id="patch_32">
    <path d="M 204.26992 354.465 
L 208.946215 354.465 
L 208.946215 226.277534 
L 204.26992 226.277534 
z
" clip-path="url(#p91f75db1ab)" style="fill: #0173b2; fill-opacity: 0.75; stroke: #ffffff; stroke-width: 0.704545; stroke-linejoin: miter"/>
   </g>
   <g id="patch_33">
    <path d="M 208.946215 354.465 
L 213.62251 354.465 
L 213.62251 204.265545 
L 208.946215 204.265545 
z
" clip-path="url(#p91f75db1ab)" style="fill: #0173b2; fill-opacity: 0.75; stroke: #ffffff; stroke-width: 0.704545; stroke-linejoin: miter"/>
   </g>
   <g id="patch_34">
    <path d="M 213.62251 354.465 
L 218.298805 354.465 
L 218.298805 198.654646 
L 213.62251 198.654646 
z
" clip-path="url(#p91f75db1ab)" style="fill: #0173b2; fill-opacity: 0.75; stroke: #ffffff; stroke-width: 0.704545; stroke-linejoin: miter"/>
   </g>
   <g id="patch_35">
    <path d="M 218.298805 354.465 
L 222.9751 354.465 
L 222.9751 198.654646 
L 218.298805 198.654646 
z
" clip-path="url(#p91f75db1ab)" style="fill: #0173b2; fill-opacity: 0.75; stroke: #ffffff; stroke-width: 0.704545; stroke-linejoin: miter"/>
   </g>
   <g id="patch_36">
    <path d="M 222.9751 354.465 
L 227.651395 354.465 
L 227.651395 173.837207 
L 222.9751 173.837207 
z
" clip-path="url(#p91f75db1ab)" style="fill: #0173b2; fill-opacity: 0.75; stroke: #ffffff; stroke-width: 0.704545; stroke-linejoin: miter"/>
   </g>
   <g id="patch_37">
    <path d="M 227.651395 354.465 
L 232.32769 354.465 
L 232.32769 168.657916 
L 227.651395 168.657916 
z
" clip-path="url(#p91f75db1ab)" style="fill: #0173b2; fill-opacity: 0.75; stroke: #ffffff; stroke-width: 0.704545; stroke-linejoin: miter"/>
   </g>
   <g id="patch_38">
    <path d="M 232.32769 354.465 
L 237.003985 354.465 
L 237.003985 137.79797 
L 232.32769 137.79797 
z
" clip-path="url(#p91f75db1ab)" style="fill: #0173b2; fill-opacity: 0.75; stroke: #ffffff; stroke-width: 0.704545; stroke-linejoin: miter"/>
   </g>
   <g id="patch_39">
    <path d="M 237.003985 354.465 
L 241.680279 354.465 
L 241.680279 117.944019 
L 237.003985 117.944019 
z
" clip-path="url(#p91f75db1ab)" style="fill: #0173b2; fill-opacity: 0.75; stroke: #ffffff; stroke-width: 0.704545; stroke-linejoin: miter"/>
   </g>
   <g id="patch_40">
    <path d="M 241.680279 354.465 
L 246.356574 354.465 
L 246.356574 115.785981 
L 241.680279 115.785981 
z
" clip-path="url(#p91f75db1ab)" style="fill: #0173b2; fill-opacity: 0.75; stroke: #ffffff; stroke-width: 0.704545; stroke-linejoin: miter"/>
   </g>
   <g id="patch_41">
    <path d="M 246.356574 354.465 
L 251.032869 354.465 
L 251.032869 97.226853 
L 246.356574 97.226853 
z
" clip-path="url(#p91f75db1ab)" style="fill: #0173b2; fill-opacity: 0.75; stroke: #ffffff; stroke-width: 0.704545; stroke-linejoin: miter"/>
   </g>
   <g id="patch_42">
    <path d="M 251.032869 354.465 
L 255.709164 354.465 
L 255.709164 106.938025 
L 251.032869 106.938025 
z
" clip-path="url(#p91f75db1ab)" style="fill: #0173b2; fill-opacity: 0.75; stroke: #ffffff; stroke-width: 0.704545; stroke-linejoin: miter"/>
   </g>
   <g id="patch_43">
    <path d="M 255.709164 354.465 
L 260.385459 354.465 
L 260.385459 93.342384 
L 255.709164 93.342384 
z
" clip-path="url(#p91f75db1ab)" style="fill: #0173b2; fill-opacity: 0.75; stroke: #ffffff; stroke-width: 0.704545; stroke-linejoin: miter"/>
   </g>
   <g id="patch_44">
    <path d="M 260.385459 354.465 
L 265.061754 354.465 
L 265.061754 68.093338 
L 260.385459 68.093338 
z
" clip-path="url(#p91f75db1ab)" style="fill: #0173b2; fill-opacity: 0.75; stroke: #ffffff; stroke-width: 0.704545; stroke-linejoin: miter"/>
   </g>
   <g id="patch_45">
    <path d="M 265.061754 354.465 
L 269.738049 354.465 
L 269.738049 79.099332 
L 265.061754 79.099332 
z
" clip-path="url(#p91f75db1ab)" style="fill: #0173b2; fill-opacity: 0.75; stroke: #ffffff; stroke-width: 0.704545; stroke-linejoin: miter"/>
   </g>
   <g id="patch_46">
    <path d="M 269.738049 354.465 
L 274.414344 354.465 
L 274.414344 60.756008 
L 269.738049 60.756008 
z
" clip-path="url(#p91f75db1ab)" style="fill: #0173b2; fill-opacity: 0.75; stroke: #ffffff; stroke-width: 0.704545; stroke-linejoin: miter"/>
   </g>
   <g id="patch_47">
    <path d="M 274.414344 354.465 
L 279.090639 354.465 
L 279.090639 53.634482 
L 274.414344 53.634482 
z
" clip-path="url(#p91f75db1ab)" style="fill: #0173b2; fill-opacity: 0.75; stroke: #ffffff; stroke-width: 0.704545; stroke-linejoin: miter"/>
   </g>
   <g id="patch_48">
    <path d="M 279.090639 354.465 
L 283.766933 354.465 
L 283.766933 45.00233 
L 279.090639 45.00233 
z
" clip-path="url(#p91f75db1ab)" style="fill: #0173b2; fill-opacity: 0.75; stroke: #ffffff; stroke-width: 0.704545; stroke-linejoin: miter"/>
   </g>
   <g id="patch_49">
    <path d="M 283.766933 354.465 
L 288.443228 354.465 
L 288.443228 48.670995 
L 283.766933 48.670995 
z
" clip-path="url(#p91f75db1ab)" style="fill: #0173b2; fill-opacity: 0.75; stroke: #ffffff; stroke-width: 0.704545; stroke-linejoin: miter"/>
   </g>
   <g id="patch_50">
    <path d="M 288.443228 354.465 
L 293.119523 354.465 
L 293.119523 37.665 
L 288.443228 37.665 
z
" clip-path="url(#p91f75db1ab)" style="fill: #0173b2; fill-opacity: 0.75; stroke: #ffffff; stroke-width: 0.704545; stroke-linejoin: miter"/>
   </g>
   <g id="patch_51">
    <path d="M 293.119523 354.465 
L 297.795818 354.465 
L 297.795818 51.26064 
L 293.119523 51.26064 
z
" clip-path="url(#p91f75db1ab)" style="fill: #0173b2; fill-opacity: 0.75; stroke: #ffffff; stroke-width: 0.704545; stroke-linejoin: miter"/>
   </g>
   <g id="patch_52">
    <path d="M 297.795818 354.465 
L 302.472113 354.465 
L 302.472113 38.528215 
L 297.795818 38.528215 
z
" clip-path="url(#p91f75db1ab)" style="fill: #0173b2; fill-opacity: 0.75; stroke: #ffffff; stroke-width: 0.704545; stroke-linejoin: miter"/>
   </g>
   <g id="patch_53">
    <path d="M 302.472113 354.465 
L 307.148408 354.465 
L 307.148408 54.281894 
L 302.472113 54.281894 
z
" clip-path="url(#p91f75db1ab)" style="fill: #0173b2; fill-opacity: 0.75; stroke: #ffffff; stroke-width: 0.704545; stroke-linejoin: miter"/>
   </g>
   <g id="patch_54">
    <path d="M 307.148408 354.465 
L 311.824703 354.465 
L 311.824703 56.224128 
L 307.148408 56.224128 
z
" clip-path="url(#p91f75db1ab)" style="fill: #0173b2; fill-opacity: 0.75; stroke: #ffffff; stroke-width: 0.704545; stroke-linejoin: miter"/>
   </g>
   <g id="patch_55">
    <path d="M 311.824703 354.465 
L 316.500998 354.465 
L 316.500998 48.886798 
L 311.824703 48.886798 
z
" clip-path="url(#p91f75db1ab)" style="fill: #0173b2; fill-opacity: 0.75; stroke: #ffffff; stroke-width: 0.704545; stroke-linejoin: miter"/>
   </g>
   <g id="patch_56">
    <path d="M 316.500998 354.465 
L 321.177293 354.465 
L 321.177293 57.734755 
L 316.500998 57.734755 
z
" clip-path="url(#p91f75db1ab)" style="fill: #0173b2; fill-opacity: 0.75; stroke: #ffffff; stroke-width: 0.704545; stroke-linejoin: miter"/>
   </g>
   <g id="patch_57">
    <path d="M 321.177293 354.465 
L 325.853587 354.465 
L 325.853587 52.987071 
L 321.177293 52.987071 
z
" clip-path="url(#p91f75db1ab)" style="fill: #0173b2; fill-opacity: 0.75; stroke: #ffffff; stroke-width: 0.704545; stroke-linejoin: miter"/>
   </g>
   <g id="patch_58">
    <path d="M 325.853587 354.465 
L 330.529882 354.465 
L 330.529882 68.093338 
L 325.853587 68.093338 
z
" clip-path="url(#p91f75db1ab)" style="fill: #0173b2; fill-opacity: 0.75; stroke: #ffffff; stroke-width: 0.704545; stroke-linejoin: miter"/>
   </g>
   <g id="patch_59">
    <path d="M 330.529882 354.465 
L 335.206177 354.465 
L 335.206177 60.324401 
L 330.529882 60.324401 
z
" clip-path="url(#p91f75db1ab)" style="fill: #0173b2; fill-opacity: 0.75; stroke: #ffffff; stroke-width: 0.704545; stroke-linejoin: miter"/>
   </g>
   <g id="patch_60">
    <path d="M 335.206177 354.465 
L 339.882472 354.465 
L 339.882472 75.646471 
L 335.206177 75.646471 
z
" clip-path="url(#p91f75db1ab)" style="fill: #0173b2; fill-opacity: 0.75; stroke: #ffffff; stroke-width: 0.704545; stroke-linejoin: miter"/>
   </g>
   <g id="patch_61">
    <path d="M 339.882472 354.465 
L 344.558767 354.465 
L 344.558767 82.552193 
L 339.882472 82.552193 
z
" clip-path="url(#p91f75db1ab)" style="fill: #0173b2; fill-opacity: 0.75; stroke: #ffffff; stroke-width: 0.704545; stroke-linejoin: miter"/>
   </g>
   <g id="patch_62">
    <path d="M 344.558767 354.465 
L 349.235062 354.465 
L 349.235062 94.637207 
L 344.558767 94.637207 
z
" clip-path="url(#p91f75db1ab)" style="fill: #0173b2; fill-opacity: 0.75; stroke: #ffffff; stroke-width: 0.704545; stroke-linejoin: miter"/>
   </g>
   <g id="patch_63">
    <path d="M 349.235062 354.465 
L 353.911357 354.465 
L 353.911357 116.649196 
L 349.235062 116.649196 
z
" clip-path="url(#p91f75db1ab)" style="fill: #0173b2; fill-opacity: 0.75; stroke: #ffffff; stroke-width: 0.704545; stroke-linejoin: miter"/>
   </g>
   <g id="patch_64">
    <path d="M 353.911357 354.465 
L 358.587652 354.465 
L 358.587652 130.46064 
L 353.911357 130.46064 
z
" clip-path="url(#p91f75db1ab)" style="fill: #0173b2; fill-opacity: 0.75; stroke: #ffffff; stroke-width: 0.704545; stroke-linejoin: miter"/>
   </g>
   <g id="patch_65">
    <path d="M 358.587652 354.465 
L 363.263946 354.465 
L 363.263946 133.050286 
L 358.587652 133.050286 
z
" clip-path="url(#p91f75db1ab)" style="fill: #0173b2; fill-opacity: 0.75; stroke: #ffffff; stroke-width: 0.704545; stroke-linejoin: miter"/>
   </g>
   <g id="patch_66">
    <path d="M 363.263946 354.465 
L 367.940241 354.465 
L 367.940241 157.867725 
L 363.263946 157.867725 
z
" clip-path="url(#p91f75db1ab)" style="fill: #0173b2; fill-opacity: 0.75; stroke: #ffffff; stroke-width: 0.704545; stroke-linejoin: miter"/>
   </g>
   <g id="patch_67">
    <path d="M 367.940241 354.465 
L 372.616536 354.465 
L 372.616536 179.232302 
L 367.940241 179.232302 
z
" clip-path="url(#p91f75db1ab)" style="fill: #0173b2; fill-opacity: 0.75; stroke: #ffffff; stroke-width: 0.704545; stroke-linejoin: miter"/>
   </g>
   <g id="patch_68">
    <path d="M 372.616536 354.465 
L 377.292831 354.465 
L 377.292831 197.359823 
L 372.616536 197.359823 
z
" clip-path="url(#p91f75db1ab)" style="fill: #0173b2; fill-opacity: 0.75; stroke: #ffffff; stroke-width: 0.704545; stroke-linejoin: miter"/>
   </g>
   <g id="patch_69">
    <path d="M 377.292831 354.465 
L 381.969126 354.465 
L 381.969126 211.602875 
L 377.292831 211.602875 
z
" clip-path="url(#p91f75db1ab)" style="fill: #0173b2; fill-opacity: 0.75; stroke: #ffffff; stroke-width: 0.704545; stroke-linejoin: miter"/>
   </g>
   <g id="patch_70">
    <path d="M 381.969126 354.465 
L 386.645421 354.465 
L 386.645421 233.830668 
L 381.969126 233.830668 
z
" clip-path="url(#p91f75db1ab)" style="fill: #0173b2; fill-opacity: 0.75; stroke: #ffffff; stroke-width: 0.704545; stroke-linejoin: miter"/>
   </g>
   <g id="patch_71">
    <path d="M 386.645421 354.465 
L 391.321716 354.465 
L 391.321716 258.648106 
L 386.645421 258.648106 
z
" clip-path="url(#p91f75db1ab)" style="fill: #0173b2; fill-opacity: 0.75; stroke: #ffffff; stroke-width: 0.704545; stroke-linejoin: miter"/>
   </g>
   <g id="patch_72">
    <path d="M 391.321716 354.465 
L 395.998011 354.465 
L 395.998011 279.79688 
L 391.321716 279.79688 
z
" clip-path="url(#p91f75db1ab)" style="fill: #0173b2; fill-opacity: 0.75; stroke: #ffffff; stroke-width: 0.704545; stroke-linejoin: miter"/>
   </g>
   <g id="patch_73">
    <path d="M 395.998011 354.465 
L 400.674306 354.465 
L 400.674306 307.419768 
L 395.998011 307.419768 
z
" clip-path="url(#p91f75db1ab)" style="fill: #0173b2; fill-opacity: 0.75; stroke: #ffffff; stroke-width: 0.704545; stroke-linejoin: miter"/>
   </g>
   <g id="patch_74">
    <path d="M 400.674306 354.465 
L 405.3506 354.465 
L 405.3506 339.574537 
L 400.674306 339.574537 
z
" clip-path="url(#p91f75db1ab)" style="fill: #0173b2; fill-opacity: 0.75; stroke: #ffffff; stroke-width: 0.704545; stroke-linejoin: miter"/>
   </g>
   <g id="patch_75">
    <path d="M 7.2 354.465 
L 7.2 21.825 
" style="fill: none; stroke: #ffffff; stroke-width: 1.25; stroke-linejoin: miter; stroke-linecap: square"/>
   </g>
   <g id="patch_76">
    <path d="M 7.2 354.465 
L 565.2 354.465 
" style="fill: none; stroke: #ffffff; stroke-width: 1.25; stroke-linejoin: miter; stroke-linecap: square"/>
   </g>
   <g id="text_9">
    <!-- Ampiezza campionaria = 2 -->
    <g style="fill: #262626" transform="translate(215.334375 15.825) scale(0.12 -0.12)">
     <defs>
      <path id="ArialMT-41" d="M -9 0 
L 1750 4581 
L 2403 4581 
L 4278 0 
L 3588 0 
L 3053 1388 
L 1138 1388 
L 634 0 
L -9 0 
z
M 1313 1881 
L 2866 1881 
L 2388 3150 
Q 2169 3728 2063 4100 
Q 1975 3659 1816 3225 
L 1313 1881 
z
" transform="scale(0.015625)"/>
      <path id="ArialMT-6d" d="M 422 0 
L 422 3319 
L 925 3319 
L 925 2853 
Q 1081 3097 1340 3245 
Q 1600 3394 1931 3394 
Q 2300 3394 2536 3241 
Q 2772 3088 2869 2813 
Q 3263 3394 3894 3394 
Q 4388 3394 4653 3120 
Q 4919 2847 4919 2278 
L 4919 0 
L 4359 0 
L 4359 2091 
Q 4359 2428 4304 2576 
Q 4250 2725 4106 2815 
Q 3963 2906 3769 2906 
Q 3419 2906 3187 2673 
Q 2956 2441 2956 1928 
L 2956 0 
L 2394 0 
L 2394 2156 
Q 2394 2531 2256 2718 
Q 2119 2906 1806 2906 
Q 1569 2906 1367 2781 
Q 1166 2656 1075 2415 
Q 984 2175 984 1722 
L 984 0 
L 422 0 
z
" transform="scale(0.015625)"/>
      <path id="ArialMT-70" d="M 422 -1272 
L 422 3319 
L 934 3319 
L 934 2888 
Q 1116 3141 1344 3267 
Q 1572 3394 1897 3394 
Q 2322 3394 2647 3175 
Q 2972 2956 3137 2557 
Q 3303 2159 3303 1684 
Q 3303 1175 3120 767 
Q 2938 359 2589 142 
Q 2241 -75 1856 -75 
Q 1575 -75 1351 44 
Q 1128 163 984 344 
L 984 -1272 
L 422 -1272 
z
M 931 1641 
Q 931 1000 1190 694 
Q 1450 388 1819 388 
Q 2194 388 2461 705 
Q 2728 1022 2728 1688 
Q 2728 2322 2467 2637 
Q 2206 2953 1844 2953 
Q 1484 2953 1207 2617 
Q 931 2281 931 1641 
z
" transform="scale(0.015625)"/>
      <path id="ArialMT-69" d="M 425 3934 
L 425 4581 
L 988 4581 
L 988 3934 
L 425 3934 
z
M 425 0 
L 425 3319 
L 988 3319 
L 988 0 
L 425 0 
z
" transform="scale(0.015625)"/>
      <path id="ArialMT-65" d="M 2694 1069 
L 3275 997 
Q 3138 488 2766 206 
Q 2394 -75 1816 -75 
Q 1088 -75 661 373 
Q 234 822 234 1631 
Q 234 2469 665 2931 
Q 1097 3394 1784 3394 
Q 2450 3394 2872 2941 
Q 3294 2488 3294 1666 
Q 3294 1616 3291 1516 
L 816 1516 
Q 847 969 1125 678 
Q 1403 388 1819 388 
Q 2128 388 2347 550 
Q 2566 713 2694 1069 
z
M 847 1978 
L 2700 1978 
Q 2663 2397 2488 2606 
Q 2219 2931 1791 2931 
Q 1403 2931 1139 2672 
Q 875 2413 847 1978 
z
" transform="scale(0.015625)"/>
      <path id="ArialMT-7a" d="M 125 0 
L 125 456 
L 2238 2881 
Q 1878 2863 1603 2863 
L 250 2863 
L 250 3319 
L 2963 3319 
L 2963 2947 
L 1166 841 
L 819 456 
Q 1197 484 1528 484 
L 3063 484 
L 3063 0 
L 125 0 
z
" transform="scale(0.015625)"/>
      <path id="ArialMT-61" d="M 2588 409 
Q 2275 144 1986 34 
Q 1697 -75 1366 -75 
Q 819 -75 525 192 
Q 231 459 231 875 
Q 231 1119 342 1320 
Q 453 1522 633 1644 
Q 813 1766 1038 1828 
Q 1203 1872 1538 1913 
Q 2219 1994 2541 2106 
Q 2544 2222 2544 2253 
Q 2544 2597 2384 2738 
Q 2169 2928 1744 2928 
Q 1347 2928 1158 2789 
Q 969 2650 878 2297 
L 328 2372 
Q 403 2725 575 2942 
Q 747 3159 1072 3276 
Q 1397 3394 1825 3394 
Q 2250 3394 2515 3294 
Q 2781 3194 2906 3042 
Q 3031 2891 3081 2659 
Q 3109 2516 3109 2141 
L 3109 1391 
Q 3109 606 3145 398 
Q 3181 191 3288 0 
L 2700 0 
Q 2613 175 2588 409 
z
M 2541 1666 
Q 2234 1541 1622 1453 
Q 1275 1403 1131 1340 
Q 988 1278 909 1158 
Q 831 1038 831 891 
Q 831 666 1001 516 
Q 1172 366 1500 366 
Q 1825 366 2078 508 
Q 2331 650 2450 897 
Q 2541 1088 2541 1459 
L 2541 1666 
z
" transform="scale(0.015625)"/>
      <path id="ArialMT-20" transform="scale(0.015625)"/>
      <path id="ArialMT-63" d="M 2588 1216 
L 3141 1144 
Q 3050 572 2676 248 
Q 2303 -75 1759 -75 
Q 1078 -75 664 370 
Q 250 816 250 1647 
Q 250 2184 428 2587 
Q 606 2991 970 3192 
Q 1334 3394 1763 3394 
Q 2303 3394 2647 3120 
Q 2991 2847 3088 2344 
L 2541 2259 
Q 2463 2594 2264 2762 
Q 2066 2931 1784 2931 
Q 1359 2931 1093 2626 
Q 828 2322 828 1663 
Q 828 994 1084 691 
Q 1341 388 1753 388 
Q 2084 388 2306 591 
Q 2528 794 2588 1216 
z
" transform="scale(0.015625)"/>
      <path id="ArialMT-6f" d="M 213 1659 
Q 213 2581 725 3025 
Q 1153 3394 1769 3394 
Q 2453 3394 2887 2945 
Q 3322 2497 3322 1706 
Q 3322 1066 3130 698 
Q 2938 331 2570 128 
Q 2203 -75 1769 -75 
Q 1072 -75 642 372 
Q 213 819 213 1659 
z
M 791 1659 
Q 791 1022 1069 705 
Q 1347 388 1769 388 
Q 2188 388 2466 706 
Q 2744 1025 2744 1678 
Q 2744 2294 2464 2611 
Q 2184 2928 1769 2928 
Q 1347 2928 1069 2612 
Q 791 2297 791 1659 
z
" transform="scale(0.015625)"/>
      <path id="ArialMT-6e" d="M 422 0 
L 422 3319 
L 928 3319 
L 928 2847 
Q 1294 3394 1984 3394 
Q 2284 3394 2536 3286 
Q 2788 3178 2913 3003 
Q 3038 2828 3088 2588 
Q 3119 2431 3119 2041 
L 3119 0 
L 2556 0 
L 2556 2019 
Q 2556 2363 2490 2533 
Q 2425 2703 2258 2804 
Q 2091 2906 1866 2906 
Q 1506 2906 1245 2678 
Q 984 2450 984 1813 
L 984 0 
L 422 0 
z
" transform="scale(0.015625)"/>
      <path id="ArialMT-72" d="M 416 0 
L 416 3319 
L 922 3319 
L 922 2816 
Q 1116 3169 1280 3281 
Q 1444 3394 1641 3394 
Q 1925 3394 2219 3213 
L 2025 2691 
Q 1819 2813 1613 2813 
Q 1428 2813 1281 2702 
Q 1134 2591 1072 2394 
Q 978 2094 978 1738 
L 978 0 
L 416 0 
z
" transform="scale(0.015625)"/>
      <path id="ArialMT-3d" d="M 3381 2694 
L 356 2694 
L 356 3219 
L 3381 3219 
L 3381 2694 
z
M 3381 1303 
L 356 1303 
L 356 1828 
L 3381 1828 
L 3381 1303 
z
" transform="scale(0.015625)"/>
     </defs>
     <use xlink:href="#ArialMT-41"/>
     <use xlink:href="#ArialMT-6d" x="66.699219"/>
     <use xlink:href="#ArialMT-70" x="150"/>
     <use xlink:href="#ArialMT-69" x="205.615234"/>
     <use xlink:href="#ArialMT-65" x="227.832031"/>
     <use xlink:href="#ArialMT-7a" x="283.447266"/>
     <use xlink:href="#ArialMT-7a" x="333.447266"/>
     <use xlink:href="#ArialMT-61" x="383.447266"/>
     <use xlink:href="#ArialMT-20" x="439.0625"/>
     <use xlink:href="#ArialMT-63" x="466.845703"/>
     <use xlink:href="#ArialMT-61" x="516.845703"/>
     <use xlink:href="#ArialMT-6d" x="572.460938"/>
     <use xlink:href="#ArialMT-70" x="655.761719"/>
     <use xlink:href="#ArialMT-69" x="711.376953"/>
     <use xlink:href="#ArialMT-6f" x="733.59375"/>
     <use xlink:href="#ArialMT-6e" x="789.208984"/>
     <use xlink:href="#ArialMT-61" x="844.824219"/>
     <use xlink:href="#ArialMT-72" x="900.439453"/>
     <use xlink:href="#ArialMT-69" x="933.740234"/>
     <use xlink:href="#ArialMT-61" x="955.957031"/>
     <use xlink:href="#ArialMT-20" x="1011.572266"/>
     <use xlink:href="#ArialMT-3d" x="1039.355469"/>
     <use xlink:href="#ArialMT-20" x="1097.753906"/>
     <use xlink:href="#ArialMT-32" x="1125.537109"/>
    </g>
   </g>
  </g>
  <g id="axes_2">
   <g id="matplotlib.axis_3">
    <g id="ytick_9">
     <g id="line2d_17">
      <path d="M 7.2 339.382358 
L 565.2 339.382358 
" clip-path="url(#p91f75db1ab)" style="fill: none; stroke: #ffffff; stroke-linecap: round"/>
     </g>
    </g>
    <g id="ytick_10">
     <g id="line2d_18">
      <path d="M 7.2 276.149484 
L 565.2 276.149484 
" clip-path="url(#p91f75db1ab)" style="fill: none; stroke: #ffffff; stroke-linecap: round"/>
     </g>
    </g>
    <g id="ytick_11">
     <g id="line2d_19">
      <path d="M 7.2 212.916609 
L 565.2 212.916609 
" clip-path="url(#p91f75db1ab)" style="fill: none; stroke: #ffffff; stroke-linecap: round"/>
     </g>
    </g>
    <g id="ytick_12">
     <g id="line2d_20">
      <path d="M 7.2 149.683735 
L 565.2 149.683735 
" clip-path="url(#p91f75db1ab)" style="fill: none; stroke: #ffffff; stroke-linecap: round"/>
     </g>
    </g>
    <g id="ytick_13">
     <g id="line2d_21">
      <path d="M 7.2 86.45086 
L 565.2 86.45086 
" clip-path="url(#p91f75db1ab)" style="fill: none; stroke: #ffffff; stroke-linecap: round"/>
     </g>
    </g>
    <g id="ytick_14">
     <g id="line2d_22">
      <path d="M 7.2 23.217985 
L 565.2 23.217985 
" clip-path="url(#p91f75db1ab)" style="fill: none; stroke: #ffffff; stroke-linecap: round"/>
     </g>
    </g>
   </g>
   <g id="PolyCollection_1"/>
   <g id="line2d_23">
    <path d="M 32.563636 339.345 
L 37.687603 339.328814 
L 42.81157 339.306176 
L 47.935537 339.27476 
L 53.059504 339.231502 
L 58.183471 339.172401 
L 63.307438 339.092284 
L 68.431405 338.98453 
L 73.555372 338.84074 
L 78.679339 338.650377 
L 83.803306 338.400348 
L 88.927273 338.074556 
L 94.05124 337.653427 
L 99.175207 337.113419 
L 104.299174 336.426541 
L 109.42314 335.559908 
L 114.547107 334.475361 
L 119.671074 333.129202 
L 124.795041 331.472069 
L 129.919008 329.449024 
L 135.042975 326.999886 
L 140.166942 324.059873 
L 145.290909 320.560579 
L 150.414876 316.431352 
L 155.538843 311.60107 
L 160.66281 306.000338 
L 165.786777 299.564084 
L 170.910744 292.234512 
L 176.034711 283.964357 
L 181.158678 274.72031 
L 186.282645 264.486527 
L 191.406612 253.268028 
L 196.530579 241.093838 
L 201.654545 228.019657 
L 206.778512 214.129886 
L 211.902479 199.538806 
L 217.026446 184.390752 
L 222.150413 168.859147 
L 227.27438 153.144309 
L 232.398347 137.469992 
L 237.522314 122.078713 
L 242.646281 107.225939 
L 247.770248 93.173331 
L 252.894215 80.181259 
L 258.018182 68.50089 
L 263.142149 58.366168 
L 268.266116 49.986055 
L 273.390083 43.537376 
L 278.51405 39.158621 
L 283.638017 36.945 
L 288.761983 36.945 
L 293.88595 39.158621 
L 299.009917 43.537376 
L 304.133884 49.986055 
L 309.257851 58.366168 
L 314.381818 68.50089 
L 319.505785 80.181259 
L 324.629752 93.173331 
L 329.753719 107.225939 
L 334.877686 122.078713 
L 340.001653 137.469992 
L 345.12562 153.144309 
L 350.249587 168.859147 
L 355.373554 184.390752 
L 360.497521 199.538806 
L 365.621488 214.129886 
L 370.745455 228.019657 
L 375.869421 241.093838 
L 380.993388 253.268028 
L 386.117355 264.486527 
L 391.241322 274.72031 
L 396.365289 283.964357 
L 401.489256 292.234512 
L 406.613223 299.564084 
L 411.73719 306.000338 
L 416.861157 311.60107 
L 421.985124 316.431352 
L 427.109091 320.560579 
L 432.233058 324.059873 
L 437.357025 326.999886 
L 442.480992 329.449024 
L 447.604959 331.472069 
L 452.728926 333.129202 
L 457.852893 334.475361 
L 462.97686 335.559908 
L 468.100826 336.426541 
L 473.224793 337.113419 
L 478.34876 337.653427 
L 483.472727 338.074556 
L 488.596694 338.400348 
L 493.720661 338.650377 
L 498.844628 338.84074 
L 503.968595 338.98453 
L 509.092562 339.092284 
L 514.216529 339.172401 
L 519.340496 339.231502 
L 524.464463 339.27476 
L 529.58843 339.306176 
L 534.712397 339.328814 
L 539.836364 339.345 
" clip-path="url(#p91f75db1ab)" style="fill: none; stroke: #000000; stroke-width: 1.5; stroke-linecap: round"/>
   </g>
   <g id="patch_77">
    <path d="M 7.2 354.465 
L 7.2 21.825 
" style="fill: none; stroke: #ffffff; stroke-width: 1.25; stroke-linejoin: miter; stroke-linecap: square"/>
   </g>
   <g id="patch_78">
    <path d="M 7.2 354.465 
L 565.2 354.465 
" style="fill: none; stroke: #ffffff; stroke-width: 1.25; stroke-linejoin: miter; stroke-linecap: square"/>
   </g>
  </g>
 </g>
 <defs>
  <clipPath id="p91f75db1ab">
   <rect x="7.2" y="21.825" width="558" height="332.64"/>
  </clipPath>
 </defs>
</svg>