<?xml version="1.0" encoding="utf-8" standalone="no"?>
<!DOCTYPE svg PUBLIC "-//W3C//DTD SVG 1.1//EN"
  "http://www.w3.org/Graphics/SVG/1.1/DTD/svg11.dtd">
<svg xmlns:xlink="http://www.w3.org/1999/xlink" width="606.255937pt" height="375.831875pt" viewBox="0 0 606.255937 375.831875" xmlns="http://www.w3.org/2000/svg" version="1.1">
 <metadata>
  <rdf:RDF xmlns:dc="http://purl.org/dc/elements/1.1/" xmlns:cc="http://creativecommons.org/ns#" xmlns:rdf="http://www.w3.org/1999/02/22-rdf-syntax-ns#">
   <cc:Work>
    <dc:type rdf:resource="http://purl.org/dc/dcmitype/StillImage"/>
    <dc:date>2023-05-07T23:31:51.545233</dc:date>
    <dc:format>image/svg+xml</dc:format>
    <dc:creator>
     <cc:Agent>
      <dc:title>Matplotlib v3.7.1, https://matplotlib.org/</dc:title>
     </cc:Agent>
    </dc:creator>
   </cc:Work>
  </rdf:RDF>
 </metadata>
 <defs>
  <style type="text/css">*{stroke-linejoin: round; stroke-linecap: butt}</style>
 </defs>
 <g id="figure_1">
  <g id="patch_1">
   <path d="M 0 375.831875 
L 606.255937 375.831875 
L 606.255937 0 
L 0 0 
z
" style="fill: #ffffff"/>
  </g>
  <g id="axes_1">
   <g id="patch_2">
    <path d="M 41.055937 339.84 
L 599.055938 339.84 
L 599.055938 7.2 
L 41.055937 7.2 
z
" style="fill: #eeeeee"/>
   </g>
   <g id="PathCollection_1">
    <defs>
     <path id="m67c532ab65" d="M 0 3 
C 0.795609 3 1.55874 2.683901 2.12132 2.12132 
C 2.683901 1.55874 3 0.795609 3 0 
C 3 -0.795609 2.683901 -1.55874 2.12132 -2.12132 
C 1.55874 -2.683901 0.795609 -3 0 -3 
C -0.795609 -3 -1.55874 -2.683901 -2.12132 -2.12132 
C -2.683901 -1.55874 -3 -0.795609 -3 0 
C -3 0.795609 -2.683901 1.55874 -2.12132 2.12132 
C -1.55874 2.683901 -0.795609 3 0 3 
z
" style="stroke: #348abd; stroke-opacity: 0.8"/>
    </defs>
    <g clip-path="url(#p6e64cf1c5b)">
     <use xlink:href="#m67c532ab65" x="306.087051" y="193.149607" style="fill: #348abd; fill-opacity: 0.8; stroke: #348abd; stroke-opacity: 0.8"/>
     <use xlink:href="#m67c532ab65" x="251.969217" y="186.779354" style="fill: #348abd; fill-opacity: 0.8; stroke: #348abd; stroke-opacity: 0.8"/>
     <use xlink:href="#m67c532ab65" x="457.897832" y="104.425878" style="fill: #348abd; fill-opacity: 0.8; stroke: #348abd; stroke-opacity: 0.8"/>
     <use xlink:href="#m67c532ab65" x="509.615055" y="37.96932" style="fill: #348abd; fill-opacity: 0.8; stroke: #348abd; stroke-opacity: 0.8"/>
     <use xlink:href="#m67c532ab65" x="298.858079" y="161.31537" style="fill: #348abd; fill-opacity: 0.8; stroke: #348abd; stroke-opacity: 0.8"/>
     <use xlink:href="#m67c532ab65" x="177.380293" y="254.638041" style="fill: #348abd; fill-opacity: 0.8; stroke: #348abd; stroke-opacity: 0.8"/>
     <use xlink:href="#m67c532ab65" x="377.083804" y="142.742051" style="fill: #348abd; fill-opacity: 0.8; stroke: #348abd; stroke-opacity: 0.8"/>
     <use xlink:href="#m67c532ab65" x="301.814399" y="239.197407" style="fill: #348abd; fill-opacity: 0.8; stroke: #348abd; stroke-opacity: 0.8"/>
     <use xlink:href="#m67c532ab65" x="557.405504" y="33.140577" style="fill: #348abd; fill-opacity: 0.8; stroke: #348abd; stroke-opacity: 0.8"/>
     <use xlink:href="#m67c532ab65" x="218.592747" y="244.01424" style="fill: #348abd; fill-opacity: 0.8; stroke: #348abd; stroke-opacity: 0.8"/>
     <use xlink:href="#m67c532ab65" x="465.313457" y="67.448435" style="fill: #348abd; fill-opacity: 0.8; stroke: #348abd; stroke-opacity: 0.8"/>
     <use xlink:href="#m67c532ab65" x="375.059412" y="139.653715" style="fill: #348abd; fill-opacity: 0.8; stroke: #348abd; stroke-opacity: 0.8"/>
     <use xlink:href="#m67c532ab65" x="232.036101" y="197.164227" style="fill: #348abd; fill-opacity: 0.8; stroke: #348abd; stroke-opacity: 0.8"/>
     <use xlink:href="#m67c532ab65" x="318.444551" y="157.900273" style="fill: #348abd; fill-opacity: 0.8; stroke: #348abd; stroke-opacity: 0.8"/>
     <use xlink:href="#m67c532ab65" x="410.460817" y="131.228009" style="fill: #348abd; fill-opacity: 0.8; stroke: #348abd; stroke-opacity: 0.8"/>
     <use xlink:href="#m67c532ab65" x="429.21129" y="66.764273" style="fill: #348abd; fill-opacity: 0.8; stroke: #348abd; stroke-opacity: 0.8"/>
     <use xlink:href="#m67c532ab65" x="191.861165" y="320.390424" style="fill: #348abd; fill-opacity: 0.8; stroke: #348abd; stroke-opacity: 0.8"/>
     <use xlink:href="#m67c532ab65" x="312.114675" y="175.781848" style="fill: #348abd; fill-opacity: 0.8; stroke: #348abd; stroke-opacity: 0.8"/>
     <use xlink:href="#m67c532ab65" x="442.694926" y="128.932373" style="fill: #348abd; fill-opacity: 0.8; stroke: #348abd; stroke-opacity: 0.8"/>
     <use xlink:href="#m67c532ab65" x="198.721416" y="221.820642" style="fill: #348abd; fill-opacity: 0.8; stroke: #348abd; stroke-opacity: 0.8"/>
     <use xlink:href="#m67c532ab65" x="321.851189" y="163.349823" style="fill: #348abd; fill-opacity: 0.8; stroke: #348abd; stroke-opacity: 0.8"/>
     <use xlink:href="#m67c532ab65" x="459.197131" y="116.688486" style="fill: #348abd; fill-opacity: 0.8; stroke: #348abd; stroke-opacity: 0.8"/>
     <use xlink:href="#m67c532ab65" x="393.050421" y="133.681315" style="fill: #348abd; fill-opacity: 0.8; stroke: #348abd; stroke-opacity: 0.8"/>
     <use xlink:href="#m67c532ab65" x="107.799005" y="304.849958" style="fill: #348abd; fill-opacity: 0.8; stroke: #348abd; stroke-opacity: 0.8"/>
     <use xlink:href="#m67c532ab65" x="385.812315" y="187.906754" style="fill: #348abd; fill-opacity: 0.8; stroke: #348abd; stroke-opacity: 0.8"/>
     <use xlink:href="#m67c532ab65" x="357.669516" y="144.903066" style="fill: #348abd; fill-opacity: 0.8; stroke: #348abd; stroke-opacity: 0.8"/>
     <use xlink:href="#m67c532ab65" x="448.631639" y="82.43524" style="fill: #348abd; fill-opacity: 0.8; stroke: #348abd; stroke-opacity: 0.8"/>
     <use xlink:href="#m67c532ab65" x="252.397995" y="251.311462" style="fill: #348abd; fill-opacity: 0.8; stroke: #348abd; stroke-opacity: 0.8"/>
     <use xlink:href="#m67c532ab65" x="465.818488" y="97.383911" style="fill: #348abd; fill-opacity: 0.8; stroke: #348abd; stroke-opacity: 0.8"/>
     <use xlink:href="#m67c532ab65" x="214.961213" y="221.60989" style="fill: #348abd; fill-opacity: 0.8; stroke: #348abd; stroke-opacity: 0.8"/>
     <use xlink:href="#m67c532ab65" x="384.524939" y="153.434784" style="fill: #348abd; fill-opacity: 0.8; stroke: #348abd; stroke-opacity: 0.8"/>
     <use xlink:href="#m67c532ab65" x="344.598246" y="148.377643" style="fill: #348abd; fill-opacity: 0.8; stroke: #348abd; stroke-opacity: 0.8"/>
     <use xlink:href="#m67c532ab65" x="362.196056" y="140.770879" style="fill: #348abd; fill-opacity: 0.8; stroke: #348abd; stroke-opacity: 0.8"/>
     <use xlink:href="#m67c532ab65" x="339.295972" y="161.013372" style="fill: #348abd; fill-opacity: 0.8; stroke: #348abd; stroke-opacity: 0.8"/>
     <use xlink:href="#m67c532ab65" x="324.42907" y="195.533176" style="fill: #348abd; fill-opacity: 0.8; stroke: #348abd; stroke-opacity: 0.8"/>
     <use xlink:href="#m67c532ab65" x="543.806769" y="55.859253" style="fill: #348abd; fill-opacity: 0.8; stroke: #348abd; stroke-opacity: 0.8"/>
     <use xlink:href="#m67c532ab65" x="273.836795" y="193.464254" style="fill: #348abd; fill-opacity: 0.8; stroke: #348abd; stroke-opacity: 0.8"/>
     <use xlink:href="#m67c532ab65" x="332.131724" y="135.940904" style="fill: #348abd; fill-opacity: 0.8; stroke: #348abd; stroke-opacity: 0.8"/>
     <use xlink:href="#m67c532ab65" x="235.613889" y="219.454638" style="fill: #348abd; fill-opacity: 0.8; stroke: #348abd; stroke-opacity: 0.8"/>
     <use xlink:href="#m67c532ab65" x="269.063202" y="244.112498" style="fill: #348abd; fill-opacity: 0.8; stroke: #348abd; stroke-opacity: 0.8"/>
     <use xlink:href="#m67c532ab65" x="459.482635" y="115.617835" style="fill: #348abd; fill-opacity: 0.8; stroke: #348abd; stroke-opacity: 0.8"/>
     <use xlink:href="#m67c532ab65" x="474.591672" y="88.761727" style="fill: #348abd; fill-opacity: 0.8; stroke: #348abd; stroke-opacity: 0.8"/>
     <use xlink:href="#m67c532ab65" x="241.776921" y="233.127294" style="fill: #348abd; fill-opacity: 0.8; stroke: #348abd; stroke-opacity: 0.8"/>
     <use xlink:href="#m67c532ab65" x="226.169225" y="238.063098" style="fill: #348abd; fill-opacity: 0.8; stroke: #348abd; stroke-opacity: 0.8"/>
     <use xlink:href="#m67c532ab65" x="259.677857" y="177.36191" style="fill: #348abd; fill-opacity: 0.8; stroke: #348abd; stroke-opacity: 0.8"/>
     <use xlink:href="#m67c532ab65" x="151.882802" y="310.594127" style="fill: #348abd; fill-opacity: 0.8; stroke: #348abd; stroke-opacity: 0.8"/>
     <use xlink:href="#m67c532ab65" x="391.952923" y="142.547868" style="fill: #348abd; fill-opacity: 0.8; stroke: #348abd; stroke-opacity: 0.8"/>
     <use xlink:href="#m67c532ab65" x="291.561584" y="186.701017" style="fill: #348abd; fill-opacity: 0.8; stroke: #348abd; stroke-opacity: 0.8"/>
     <use xlink:href="#m67c532ab65" x="206.445508" y="246.681622" style="fill: #348abd; fill-opacity: 0.8; stroke: #348abd; stroke-opacity: 0.8"/>
     <use xlink:href="#m67c532ab65" x="256.836907" y="182.832721" style="fill: #348abd; fill-opacity: 0.8; stroke: #348abd; stroke-opacity: 0.8"/>
     <use xlink:href="#m67c532ab65" x="209.297655" y="247.940251" style="fill: #348abd; fill-opacity: 0.8; stroke: #348abd; stroke-opacity: 0.8"/>
     <use xlink:href="#m67c532ab65" x="523.125386" y="77.70316" style="fill: #348abd; fill-opacity: 0.8; stroke: #348abd; stroke-opacity: 0.8"/>
     <use xlink:href="#m67c532ab65" x="368.166677" y="114.939937" style="fill: #348abd; fill-opacity: 0.8; stroke: #348abd; stroke-opacity: 0.8"/>
     <use xlink:href="#m67c532ab65" x="345.948799" y="153.633167" style="fill: #348abd; fill-opacity: 0.8; stroke: #348abd; stroke-opacity: 0.8"/>
     <use xlink:href="#m67c532ab65" x="298.171047" y="198.886157" style="fill: #348abd; fill-opacity: 0.8; stroke: #348abd; stroke-opacity: 0.8"/>
     <use xlink:href="#m67c532ab65" x="228.362287" y="214.383393" style="fill: #348abd; fill-opacity: 0.8; stroke: #348abd; stroke-opacity: 0.8"/>
     <use xlink:href="#m67c532ab65" x="409.940582" y="95.130064" style="fill: #348abd; fill-opacity: 0.8; stroke: #348abd; stroke-opacity: 0.8"/>
     <use xlink:href="#m67c532ab65" x="359.228524" y="151.653215" style="fill: #348abd; fill-opacity: 0.8; stroke: #348abd; stroke-opacity: 0.8"/>
     <use xlink:href="#m67c532ab65" x="411.361082" y="150.944968" style="fill: #348abd; fill-opacity: 0.8; stroke: #348abd; stroke-opacity: 0.8"/>
     <use xlink:href="#m67c532ab65" x="404.843039" y="164.158774" style="fill: #348abd; fill-opacity: 0.8; stroke: #348abd; stroke-opacity: 0.8"/>
     <use xlink:href="#m67c532ab65" x="236.245854" y="196.594823" style="fill: #348abd; fill-opacity: 0.8; stroke: #348abd; stroke-opacity: 0.8"/>
     <use xlink:href="#m67c532ab65" x="294.928787" y="183.843366" style="fill: #348abd; fill-opacity: 0.8; stroke: #348abd; stroke-opacity: 0.8"/>
     <use xlink:href="#m67c532ab65" x="389.08605" y="126.427282" style="fill: #348abd; fill-opacity: 0.8; stroke: #348abd; stroke-opacity: 0.8"/>
     <use xlink:href="#m67c532ab65" x="474.066284" y="85.745247" style="fill: #348abd; fill-opacity: 0.8; stroke: #348abd; stroke-opacity: 0.8"/>
     <use xlink:href="#m67c532ab65" x="285.242145" y="186.040098" style="fill: #348abd; fill-opacity: 0.8; stroke: #348abd; stroke-opacity: 0.8"/>
     <use xlink:href="#m67c532ab65" x="237.146865" y="205.928762" style="fill: #348abd; fill-opacity: 0.8; stroke: #348abd; stroke-opacity: 0.8"/>
     <use xlink:href="#m67c532ab65" x="264.591993" y="202.211604" style="fill: #348abd; fill-opacity: 0.8; stroke: #348abd; stroke-opacity: 0.8"/>
     <use xlink:href="#m67c532ab65" x="281.901798" y="181.813275" style="fill: #348abd; fill-opacity: 0.8; stroke: #348abd; stroke-opacity: 0.8"/>
     <use xlink:href="#m67c532ab65" x="409.165197" y="120.352938" style="fill: #348abd; fill-opacity: 0.8; stroke: #348abd; stroke-opacity: 0.8"/>
     <use xlink:href="#m67c532ab65" x="430.430409" y="43.763121" style="fill: #348abd; fill-opacity: 0.8; stroke: #348abd; stroke-opacity: 0.8"/>
     <use xlink:href="#m67c532ab65" x="251.961879" y="218.914658" style="fill: #348abd; fill-opacity: 0.8; stroke: #348abd; stroke-opacity: 0.8"/>
     <use xlink:href="#m67c532ab65" x="315.982681" y="184.086716" style="fill: #348abd; fill-opacity: 0.8; stroke: #348abd; stroke-opacity: 0.8"/>
     <use xlink:href="#m67c532ab65" x="532.736752" y="24.499649" style="fill: #348abd; fill-opacity: 0.8; stroke: #348abd; stroke-opacity: 0.8"/>
     <use xlink:href="#m67c532ab65" x="198.662412" y="228.54907" style="fill: #348abd; fill-opacity: 0.8; stroke: #348abd; stroke-opacity: 0.8"/>
     <use xlink:href="#m67c532ab65" x="342.764799" y="169.363103" style="fill: #348abd; fill-opacity: 0.8; stroke: #348abd; stroke-opacity: 0.8"/>
     <use xlink:href="#m67c532ab65" x="358.624351" y="169.621152" style="fill: #348abd; fill-opacity: 0.8; stroke: #348abd; stroke-opacity: 0.8"/>
     <use xlink:href="#m67c532ab65" x="226.378461" y="178.376792" style="fill: #348abd; fill-opacity: 0.8; stroke: #348abd; stroke-opacity: 0.8"/>
     <use xlink:href="#m67c532ab65" x="190.952223" y="235.523737" style="fill: #348abd; fill-opacity: 0.8; stroke: #348abd; stroke-opacity: 0.8"/>
     <use xlink:href="#m67c532ab65" x="526.217775" y="41.591405" style="fill: #348abd; fill-opacity: 0.8; stroke: #348abd; stroke-opacity: 0.8"/>
     <use xlink:href="#m67c532ab65" x="305.17147" y="201.854452" style="fill: #348abd; fill-opacity: 0.8; stroke: #348abd; stroke-opacity: 0.8"/>
     <use xlink:href="#m67c532ab65" x="260.8505" y="206.481207" style="fill: #348abd; fill-opacity: 0.8; stroke: #348abd; stroke-opacity: 0.8"/>
     <use xlink:href="#m67c532ab65" x="392.085895" y="83.566764" style="fill: #348abd; fill-opacity: 0.8; stroke: #348abd; stroke-opacity: 0.8"/>
     <use xlink:href="#m67c532ab65" x="196.944022" y="275.949681" style="fill: #348abd; fill-opacity: 0.8; stroke: #348abd; stroke-opacity: 0.8"/>
     <use xlink:href="#m67c532ab65" x="287.685038" y="246.265729" style="fill: #348abd; fill-opacity: 0.8; stroke: #348abd; stroke-opacity: 0.8"/>
     <use xlink:href="#m67c532ab65" x="208.71818" y="186.631054" style="fill: #348abd; fill-opacity: 0.8; stroke: #348abd; stroke-opacity: 0.8"/>
     <use xlink:href="#m67c532ab65" x="66.419574" y="324.72" style="fill: #348abd; fill-opacity: 0.8; stroke: #348abd; stroke-opacity: 0.8"/>
     <use xlink:href="#m67c532ab65" x="339.379807" y="182.550629" style="fill: #348abd; fill-opacity: 0.8; stroke: #348abd; stroke-opacity: 0.8"/>
     <use xlink:href="#m67c532ab65" x="490.020855" y="76.040913" style="fill: #348abd; fill-opacity: 0.8; stroke: #348abd; stroke-opacity: 0.8"/>
     <use xlink:href="#m67c532ab65" x="232.444953" y="217.426129" style="fill: #348abd; fill-opacity: 0.8; stroke: #348abd; stroke-opacity: 0.8"/>
     <use xlink:href="#m67c532ab65" x="573.692301" y="24.77964" style="fill: #348abd; fill-opacity: 0.8; stroke: #348abd; stroke-opacity: 0.8"/>
     <use xlink:href="#m67c532ab65" x="270.690092" y="205.866317" style="fill: #348abd; fill-opacity: 0.8; stroke: #348abd; stroke-opacity: 0.8"/>
     <use xlink:href="#m67c532ab65" x="524.397373" y="99.400471" style="fill: #348abd; fill-opacity: 0.8; stroke: #348abd; stroke-opacity: 0.8"/>
     <use xlink:href="#m67c532ab65" x="230.812535" y="263.891891" style="fill: #348abd; fill-opacity: 0.8; stroke: #348abd; stroke-opacity: 0.8"/>
     <use xlink:href="#m67c532ab65" x="450.409086" y="33.264897" style="fill: #348abd; fill-opacity: 0.8; stroke: #348abd; stroke-opacity: 0.8"/>
     <use xlink:href="#m67c532ab65" x="321.121986" y="162.170485" style="fill: #348abd; fill-opacity: 0.8; stroke: #348abd; stroke-opacity: 0.8"/>
     <use xlink:href="#m67c532ab65" x="443.907691" y="137.682087" style="fill: #348abd; fill-opacity: 0.8; stroke: #348abd; stroke-opacity: 0.8"/>
     <use xlink:href="#m67c532ab65" x="429.894871" y="58.042012" style="fill: #348abd; fill-opacity: 0.8; stroke: #348abd; stroke-opacity: 0.8"/>
     <use xlink:href="#m67c532ab65" x="426.602301" y="72.806772" style="fill: #348abd; fill-opacity: 0.8; stroke: #348abd; stroke-opacity: 0.8"/>
     <use xlink:href="#m67c532ab65" x="367.899537" y="139.919205" style="fill: #348abd; fill-opacity: 0.8; stroke: #348abd; stroke-opacity: 0.8"/>
     <use xlink:href="#m67c532ab65" x="376.706947" y="129.035803" style="fill: #348abd; fill-opacity: 0.8; stroke: #348abd; stroke-opacity: 0.8"/>
    </g>
   </g>
   <g id="matplotlib.axis_1">
    <g id="xtick_1">
     <g id="line2d_1">
      <path d="M 41.635907 339.84 
L 41.635907 7.2 
" clip-path="url(#p6e64cf1c5b)" style="fill: none; stroke-dasharray: 1.85,0.8; stroke-dashoffset: 0; stroke: #b2b2b2; stroke-width: 0.5"/>
     </g>
     <g id="line2d_2">
      <defs>
       <path id="m5952fa1886" d="M 0 0 
L 0 -3.5 
" style="stroke: #000000; stroke-width: 0.8"/>
      </defs>
      <g>
       <use xlink:href="#m5952fa1886" x="41.635907" y="339.84" style="stroke: #000000; stroke-width: 0.8"/>
      </g>
     </g>
     <g id="text_1">
      <!-- −3 -->
      <g transform="translate(34.264813 350.938438) scale(0.1 -0.1)">
       <defs>
        <path id="DejaVuSans-2212" d="M 678 2272 
L 4684 2272 
L 4684 1741 
L 678 1741 
L 678 2272 
z
" transform="scale(0.015625)"/>
        <path id="DejaVuSans-33" d="M 2597 2516 
Q 3050 2419 3304 2112 
Q 3559 1806 3559 1356 
Q 3559 666 3084 287 
Q 2609 -91 1734 -91 
Q 1441 -91 1130 -33 
Q 819 25 488 141 
L 488 750 
Q 750 597 1062 519 
Q 1375 441 1716 441 
Q 2309 441 2620 675 
Q 2931 909 2931 1356 
Q 2931 1769 2642 2001 
Q 2353 2234 1838 2234 
L 1294 2234 
L 1294 2753 
L 1863 2753 
Q 2328 2753 2575 2939 
Q 2822 3125 2822 3475 
Q 2822 3834 2567 4026 
Q 2313 4219 1838 4219 
Q 1578 4219 1281 4162 
Q 984 4106 628 3988 
L 628 4550 
Q 988 4650 1302 4700 
Q 1616 4750 1894 4750 
Q 2613 4750 3031 4423 
Q 3450 4097 3450 3541 
Q 3450 3153 3228 2886 
Q 3006 2619 2597 2516 
z
" transform="scale(0.015625)"/>
       </defs>
       <use xlink:href="#DejaVuSans-2212"/>
       <use xlink:href="#DejaVuSans-33" x="83.789062"/>
      </g>
     </g>
    </g>
    <g id="xtick_2">
     <g id="line2d_3">
      <path d="M 144.949366 339.84 
L 144.949366 7.2 
" clip-path="url(#p6e64cf1c5b)" style="fill: none; stroke-dasharray: 1.85,0.8; stroke-dashoffset: 0; stroke: #b2b2b2; stroke-width: 0.5"/>
     </g>
     <g id="line2d_4">
      <g>
       <use xlink:href="#m5952fa1886" x="144.949366" y="339.84" style="stroke: #000000; stroke-width: 0.8"/>
      </g>
     </g>
     <g id="text_2">
      <!-- −2 -->
      <g transform="translate(137.578272 350.938438) scale(0.1 -0.1)">
       <defs>
        <path id="DejaVuSans-32" d="M 1228 531 
L 3431 531 
L 3431 0 
L 469 0 
L 469 531 
Q 828 903 1448 1529 
Q 2069 2156 2228 2338 
Q 2531 2678 2651 2914 
Q 2772 3150 2772 3378 
Q 2772 3750 2511 3984 
Q 2250 4219 1831 4219 
Q 1534 4219 1204 4116 
Q 875 4013 500 3803 
L 500 4441 
Q 881 4594 1212 4672 
Q 1544 4750 1819 4750 
Q 2544 4750 2975 4387 
Q 3406 4025 3406 3419 
Q 3406 3131 3298 2873 
Q 3191 2616 2906 2266 
Q 2828 2175 2409 1742 
Q 1991 1309 1228 531 
z
" transform="scale(0.015625)"/>
       </defs>
       <use xlink:href="#DejaVuSans-2212"/>
       <use xlink:href="#DejaVuSans-32" x="83.789062"/>
      </g>
     </g>
    </g>
    <g id="xtick_3">
     <g id="line2d_5">
      <path d="M 248.262824 339.84 
L 248.262824 7.2 
" clip-path="url(#p6e64cf1c5b)" style="fill: none; stroke-dasharray: 1.85,0.8; stroke-dashoffset: 0; stroke: #b2b2b2; stroke-width: 0.5"/>
     </g>
     <g id="line2d_6">
      <g>
       <use xlink:href="#m5952fa1886" x="248.262824" y="339.84" style="stroke: #000000; stroke-width: 0.8"/>
      </g>
     </g>
     <g id="text_3">
      <!-- −1 -->
      <g transform="translate(240.89173 350.938438) scale(0.1 -0.1)">
       <defs>
        <path id="DejaVuSans-31" d="M 794 531 
L 1825 531 
L 1825 4091 
L 703 3866 
L 703 4441 
L 1819 4666 
L 2450 4666 
L 2450 531 
L 3481 531 
L 3481 0 
L 794 0 
L 794 531 
z
" transform="scale(0.015625)"/>
       </defs>
       <use xlink:href="#DejaVuSans-2212"/>
       <use xlink:href="#DejaVuSans-31" x="83.789062"/>
      </g>
     </g>
    </g>
    <g id="xtick_4">
     <g id="line2d_7">
      <path d="M 351.576283 339.84 
L 351.576283 7.2 
" clip-path="url(#p6e64cf1c5b)" style="fill: none; stroke-dasharray: 1.85,0.8; stroke-dashoffset: 0; stroke: #b2b2b2; stroke-width: 0.5"/>
     </g>
     <g id="line2d_8">
      <g>
       <use xlink:href="#m5952fa1886" x="351.576283" y="339.84" style="stroke: #000000; stroke-width: 0.8"/>
      </g>
     </g>
     <g id="text_4">
      <!-- 0 -->
      <g transform="translate(348.395033 350.938438) scale(0.1 -0.1)">
       <defs>
        <path id="DejaVuSans-30" d="M 2034 4250 
Q 1547 4250 1301 3770 
Q 1056 3291 1056 2328 
Q 1056 1369 1301 889 
Q 1547 409 2034 409 
Q 2525 409 2770 889 
Q 3016 1369 3016 2328 
Q 3016 3291 2770 3770 
Q 2525 4250 2034 4250 
z
M 2034 4750 
Q 2819 4750 3233 4129 
Q 3647 3509 3647 2328 
Q 3647 1150 3233 529 
Q 2819 -91 2034 -91 
Q 1250 -91 836 529 
Q 422 1150 422 2328 
Q 422 3509 836 4129 
Q 1250 4750 2034 4750 
z
" transform="scale(0.015625)"/>
       </defs>
       <use xlink:href="#DejaVuSans-30"/>
      </g>
     </g>
    </g>
    <g id="xtick_5">
     <g id="line2d_9">
      <path d="M 454.889741 339.84 
L 454.889741 7.2 
" clip-path="url(#p6e64cf1c5b)" style="fill: none; stroke-dasharray: 1.85,0.8; stroke-dashoffset: 0; stroke: #b2b2b2; stroke-width: 0.5"/>
     </g>
     <g id="line2d_10">
      <g>
       <use xlink:href="#m5952fa1886" x="454.889741" y="339.84" style="stroke: #000000; stroke-width: 0.8"/>
      </g>
     </g>
     <g id="text_5">
      <!-- 1 -->
      <g transform="translate(451.708491 350.938438) scale(0.1 -0.1)">
       <use xlink:href="#DejaVuSans-31"/>
      </g>
     </g>
    </g>
    <g id="xtick_6">
     <g id="line2d_11">
      <path d="M 558.2032 339.84 
L 558.2032 7.2 
" clip-path="url(#p6e64cf1c5b)" style="fill: none; stroke-dasharray: 1.85,0.8; stroke-dashoffset: 0; stroke: #b2b2b2; stroke-width: 0.5"/>
     </g>
     <g id="line2d_12">
      <g>
       <use xlink:href="#m5952fa1886" x="558.2032" y="339.84" style="stroke: #000000; stroke-width: 0.8"/>
      </g>
     </g>
     <g id="text_6">
      <!-- 2 -->
      <g transform="translate(555.02195 350.938438) scale(0.1 -0.1)">
       <use xlink:href="#DejaVuSans-32"/>
      </g>
     </g>
    </g>
    <g id="text_7">
     <!-- x -->
     <g transform="translate(316.504688 366.13625) scale(0.12 -0.12)">
      <defs>
       <path id="DejaVuSans-78" d="M 3513 3500 
L 2247 1797 
L 3578 0 
L 2900 0 
L 1881 1375 
L 863 0 
L 184 0 
L 1544 1831 
L 300 3500 
L 978 3500 
L 1906 2253 
L 2834 3500 
L 3513 3500 
z
" transform="scale(0.015625)"/>
      </defs>
      <use xlink:href="#DejaVuSans-78"/>
     </g>
    </g>
   </g>
   <g id="matplotlib.axis_2">
    <g id="ytick_1">
     <g id="line2d_13">
      <path d="M 41.055937 291.248876 
L 599.055938 291.248876 
" clip-path="url(#p6e64cf1c5b)" style="fill: none; stroke-dasharray: 1.85,0.8; stroke-dashoffset: 0; stroke: #b2b2b2; stroke-width: 0.5"/>
     </g>
     <g id="line2d_14">
      <defs>
       <path id="ma190103c8e" d="M 0 0 
L 3.5 0 
" style="stroke: #000000; stroke-width: 0.8"/>
      </defs>
      <g>
       <use xlink:href="#ma190103c8e" x="41.055937" y="291.248876" style="stroke: #000000; stroke-width: 0.8"/>
      </g>
     </g>
     <g id="text_8">
      <!-- −4 -->
      <g transform="translate(22.81375 295.048095) scale(0.1 -0.1)">
       <defs>
        <path id="DejaVuSans-34" d="M 2419 4116 
L 825 1625 
L 2419 1625 
L 2419 4116 
z
M 2253 4666 
L 3047 4666 
L 3047 1625 
L 3713 1625 
L 3713 1100 
L 3047 1100 
L 3047 0 
L 2419 0 
L 2419 1100 
L 313 1100 
L 313 1709 
L 2253 4666 
z
" transform="scale(0.015625)"/>
       </defs>
       <use xlink:href="#DejaVuSans-2212"/>
       <use xlink:href="#DejaVuSans-34" x="83.789062"/>
      </g>
     </g>
    </g>
    <g id="ytick_2">
     <g id="line2d_15">
      <path d="M 41.055937 237.884754 
L 599.055938 237.884754 
" clip-path="url(#p6e64cf1c5b)" style="fill: none; stroke-dasharray: 1.85,0.8; stroke-dashoffset: 0; stroke: #b2b2b2; stroke-width: 0.5"/>
     </g>
     <g id="line2d_16">
      <g>
       <use xlink:href="#ma190103c8e" x="41.055937" y="237.884754" style="stroke: #000000; stroke-width: 0.8"/>
      </g>
     </g>
     <g id="text_9">
      <!-- −2 -->
      <g transform="translate(22.81375 241.683973) scale(0.1 -0.1)">
       <use xlink:href="#DejaVuSans-2212"/>
       <use xlink:href="#DejaVuSans-32" x="83.789062"/>
      </g>
     </g>
    </g>
    <g id="ytick_3">
     <g id="line2d_17">
      <path d="M 41.055937 184.520632 
L 599.055938 184.520632 
" clip-path="url(#p6e64cf1c5b)" style="fill: none; stroke-dasharray: 1.85,0.8; stroke-dashoffset: 0; stroke: #b2b2b2; stroke-width: 0.5"/>
     </g>
     <g id="line2d_18">
      <g>
       <use xlink:href="#ma190103c8e" x="41.055937" y="184.520632" style="stroke: #000000; stroke-width: 0.8"/>
      </g>
     </g>
     <g id="text_10">
      <!-- 0 -->
      <g transform="translate(31.193437 188.319851) scale(0.1 -0.1)">
       <use xlink:href="#DejaVuSans-30"/>
      </g>
     </g>
    </g>
    <g id="ytick_4">
     <g id="line2d_19">
      <path d="M 41.055937 131.15651 
L 599.055938 131.15651 
" clip-path="url(#p6e64cf1c5b)" style="fill: none; stroke-dasharray: 1.85,0.8; stroke-dashoffset: 0; stroke: #b2b2b2; stroke-width: 0.5"/>
     </g>
     <g id="line2d_20">
      <g>
       <use xlink:href="#ma190103c8e" x="41.055937" y="131.15651" style="stroke: #000000; stroke-width: 0.8"/>
      </g>
     </g>
     <g id="text_11">
      <!-- 2 -->
      <g transform="translate(31.193437 134.955729) scale(0.1 -0.1)">
       <use xlink:href="#DejaVuSans-32"/>
      </g>
     </g>
    </g>
    <g id="ytick_5">
     <g id="line2d_21">
      <path d="M 41.055937 77.792388 
L 599.055938 77.792388 
" clip-path="url(#p6e64cf1c5b)" style="fill: none; stroke-dasharray: 1.85,0.8; stroke-dashoffset: 0; stroke: #b2b2b2; stroke-width: 0.5"/>
     </g>
     <g id="line2d_22">
      <g>
       <use xlink:href="#ma190103c8e" x="41.055937" y="77.792388" style="stroke: #000000; stroke-width: 0.8"/>
      </g>
     </g>
     <g id="text_12">
      <!-- 4 -->
      <g transform="translate(31.193437 81.591607) scale(0.1 -0.1)">
       <use xlink:href="#DejaVuSans-34"/>
      </g>
     </g>
    </g>
    <g id="ytick_6">
     <g id="line2d_23">
      <path d="M 41.055937 24.428266 
L 599.055938 24.428266 
" clip-path="url(#p6e64cf1c5b)" style="fill: none; stroke-dasharray: 1.85,0.8; stroke-dashoffset: 0; stroke: #b2b2b2; stroke-width: 0.5"/>
     </g>
     <g id="line2d_24">
      <g>
       <use xlink:href="#ma190103c8e" x="41.055937" y="24.428266" style="stroke: #000000; stroke-width: 0.8"/>
      </g>
     </g>
     <g id="text_13">
      <!-- 6 -->
      <g transform="translate(31.193437 28.227485) scale(0.1 -0.1)">
       <defs>
        <path id="DejaVuSans-36" d="M 2113 2584 
Q 1688 2584 1439 2293 
Q 1191 2003 1191 1497 
Q 1191 994 1439 701 
Q 1688 409 2113 409 
Q 2538 409 2786 701 
Q 3034 994 3034 1497 
Q 3034 2003 2786 2293 
Q 2538 2584 2113 2584 
z
M 3366 4563 
L 3366 3988 
Q 3128 4100 2886 4159 
Q 2644 4219 2406 4219 
Q 1781 4219 1451 3797 
Q 1122 3375 1075 2522 
Q 1259 2794 1537 2939 
Q 1816 3084 2150 3084 
Q 2853 3084 3261 2657 
Q 3669 2231 3669 1497 
Q 3669 778 3244 343 
Q 2819 -91 2113 -91 
Q 1303 -91 875 529 
Q 447 1150 447 2328 
Q 447 3434 972 4092 
Q 1497 4750 2381 4750 
Q 2619 4750 2861 4703 
Q 3103 4656 3366 4563 
z
" transform="scale(0.015625)"/>
       </defs>
       <use xlink:href="#DejaVuSans-36"/>
      </g>
     </g>
    </g>
    <g id="text_14">
     <!-- y -->
     <g transform="translate(16.318125 177.07125) rotate(-90) scale(0.12 -0.12)">
      <defs>
       <path id="DejaVuSans-79" d="M 2059 -325 
Q 1816 -950 1584 -1140 
Q 1353 -1331 966 -1331 
L 506 -1331 
L 506 -850 
L 844 -850 
Q 1081 -850 1212 -737 
Q 1344 -625 1503 -206 
L 1606 56 
L 191 3500 
L 800 3500 
L 1894 763 
L 2988 3500 
L 3597 3500 
L 2059 -325 
z
" transform="scale(0.015625)"/>
      </defs>
      <use xlink:href="#DejaVuSans-79"/>
     </g>
    </g>
   </g>
   <g id="line2d_25">
    <path d="M 66.419574 323.969813 
L 71.543541 320.922845 
L 76.667508 317.875877 
L 81.791475 314.82891 
L 86.915442 311.781942 
L 92.039409 308.734974 
L 97.163376 305.688006 
L 102.287342 302.641038 
L 107.411309 299.594071 
L 112.535276 296.547103 
L 117.659243 293.500135 
L 122.78321 290.453167 
L 127.907177 287.406199 
L 133.031144 284.359231 
L 138.155111 281.312264 
L 143.279078 278.265296 
L 148.403045 275.218328 
L 153.527012 272.17136 
L 158.650979 269.124392 
L 163.774946 266.077425 
L 168.898913 263.030457 
L 174.02288 259.983489 
L 179.146847 256.936521 
L 184.270814 253.889553 
L 189.39478 250.842586 
L 194.518747 247.795618 
L 199.642714 244.74865 
L 204.766681 241.701682 
L 209.890648 238.654714 
L 215.014615 235.607747 
L 220.138582 232.560779 
L 225.262549 229.513811 
L 230.386516 226.466843 
L 235.510483 223.419875 
L 240.63445 220.372908 
L 245.758417 217.32594 
L 250.882384 214.278972 
L 256.006351 211.232004 
L 261.130318 208.185036 
L 266.254285 205.138068 
L 271.378252 202.091101 
L 276.502218 199.044133 
L 281.626185 195.997165 
L 286.750152 192.950197 
L 291.874119 189.903229 
L 296.998086 186.856262 
L 302.122053 183.809294 
L 307.24602 180.762326 
L 312.369987 177.715358 
L 317.493954 174.66839 
L 322.617921 171.621423 
L 327.741888 168.574455 
L 332.865855 165.527487 
L 337.989822 162.480519 
L 343.113789 159.433551 
L 348.237756 156.386584 
L 353.361723 153.339616 
L 358.48569 150.292648 
L 363.609657 147.24568 
L 368.733623 144.198712 
L 373.85759 141.151745 
L 378.981557 138.104777 
L 384.105524 135.057809 
L 389.229491 132.010841 
L 394.353458 128.963873 
L 399.477425 125.916905 
L 404.601392 122.869938 
L 409.725359 119.82297 
L 414.849326 116.776002 
L 419.973293 113.729034 
L 425.09726 110.682066 
L 430.221227 107.635099 
L 435.345194 104.588131 
L 440.469161 101.541163 
L 445.593128 98.494195 
L 450.717095 95.447227 
L 455.841061 92.40026 
L 460.965028 89.353292 
L 466.088995 86.306324 
L 471.212962 83.259356 
L 476.336929 80.212388 
L 481.460896 77.165421 
L 486.584863 74.118453 
L 491.70883 71.071485 
L 496.832797 68.024517 
L 501.956764 64.977549 
L 507.080731 61.930582 
L 512.204698 58.883614 
L 517.328665 55.836646 
L 522.452632 52.789678 
L 527.576599 49.74271 
L 532.700566 46.695742 
L 537.824533 43.648775 
L 542.948499 40.601807 
L 548.072466 37.554839 
L 553.196433 34.507871 
L 558.3204 31.460903 
L 563.444367 28.413936 
L 568.568334 25.366968 
L 573.692301 22.32 
" clip-path="url(#p6e64cf1c5b)" style="fill: none; stroke: #348abd; stroke-width: 3; stroke-linecap: square"/>
   </g>
   <g id="patch_3">
    <path d="M 41.055937 339.84 
L 41.055937 7.2 
" style="fill: none; stroke: #bcbcbc; stroke-width: 0.8; stroke-linejoin: miter; stroke-linecap: square"/>
   </g>
   <g id="patch_4">
    <path d="M 599.055938 339.84 
L 599.055938 7.2 
" style="fill: none; stroke: #bcbcbc; stroke-width: 0.8; stroke-linejoin: miter; stroke-linecap: square"/>
   </g>
   <g id="patch_5">
    <path d="M 41.055938 339.84 
L 599.055938 339.84 
" style="fill: none; stroke: #bcbcbc; stroke-width: 0.8; stroke-linejoin: miter; stroke-linecap: square"/>
   </g>
   <g id="patch_6">
    <path d="M 41.055938 7.2 
L 599.055938 7.2 
" style="fill: none; stroke: #bcbcbc; stroke-width: 0.8; stroke-linejoin: miter; stroke-linecap: square"/>
   </g>
  </g>
 </g>
 <defs>
  <clipPath id="p6e64cf1c5b">
   <rect x="41.055937" y="7.2" width="558" height="332.64"/>
  </clipPath>
 </defs>
</svg>