<?xml version="1.0" encoding="utf-8" standalone="no"?>
<!DOCTYPE svg PUBLIC "-//W3C//DTD SVG 1.1//EN"
  "http://www.w3.org/Graphics/SVG/1.1/DTD/svg11.dtd">
<svg xmlns:xlink="http://www.w3.org/1999/xlink" width="608.19325pt" height="378.36225pt" viewBox="0 0 608.19325 378.36225" xmlns="http://www.w3.org/2000/svg" version="1.1">
 <metadata>
  <rdf:RDF xmlns:dc="http://purl.org/dc/elements/1.1/" xmlns:cc="http://creativecommons.org/ns#" xmlns:rdf="http://www.w3.org/1999/02/22-rdf-syntax-ns#">
   <cc:Work>
    <dc:type rdf:resource="http://purl.org/dc/dcmitype/StillImage"/>
    <dc:date>2023-05-08T00:37:56.597659</dc:date>
    <dc:format>image/svg+xml</dc:format>
    <dc:creator>
     <cc:Agent>
      <dc:title>Matplotlib v3.7.1, https://matplotlib.org/</dc:title>
     </cc:Agent>
    </dc:creator>
   </cc:Work>
  </rdf:RDF>
 </metadata>
 <defs>
  <style type="text/css">*{stroke-linejoin: round; stroke-linecap: butt}</style>
 </defs>
 <g id="figure_1">
  <g id="patch_1">
   <path d="M 0 378.36225 
L 608.19325 378.36225 
L 608.19325 0 
L 0 0 
z
" style="fill: #ffffff"/>
  </g>
  <g id="axes_1">
   <g id="patch_2">
    <path d="M 42.99325 339.84 
L 600.99325 339.84 
L 600.99325 7.2 
L 42.99325 7.2 
z
" style="fill: #eaeaf2"/>
   </g>
   <g id="matplotlib.axis_1">
    <g id="xtick_1">
     <g id="line2d_1">
      <path d="M 119.084159 339.84 
L 119.084159 7.2 
" clip-path="url(#p84f63215fb)" style="fill: none; stroke: #ffffff; stroke-width: 0.8; stroke-linecap: round"/>
     </g>
     <g id="text_1">
      <!-- −4 -->
      <g style="fill: #262626" transform="translate(114.067472 354.438875) scale(0.088 -0.088)">
       <defs>
        <path id="ArialMT-2212" d="M 3381 1997 
L 356 1997 
L 356 2522 
L 3381 2522 
L 3381 1997 
z
" transform="scale(0.015625)"/>
        <path id="ArialMT-34" d="M 2069 0 
L 2069 1097 
L 81 1097 
L 81 1613 
L 2172 4581 
L 2631 4581 
L 2631 1613 
L 3250 1613 
L 3250 1097 
L 2631 1097 
L 2631 0 
L 2069 0 
z
M 2069 1613 
L 2069 3678 
L 634 1613 
L 2069 1613 
z
" transform="scale(0.015625)"/>
       </defs>
       <use xlink:href="#ArialMT-2212"/>
       <use xlink:href="#ArialMT-34" x="58.398438"/>
      </g>
     </g>
    </g>
    <g id="xtick_2">
     <g id="line2d_2">
      <path d="M 220.538705 339.84 
L 220.538705 7.2 
" clip-path="url(#p84f63215fb)" style="fill: none; stroke: #ffffff; stroke-width: 0.8; stroke-linecap: round"/>
     </g>
     <g id="text_2">
      <!-- −2 -->
      <g style="fill: #262626" transform="translate(215.522017 354.438875) scale(0.088 -0.088)">
       <defs>
        <path id="ArialMT-32" d="M 3222 541 
L 3222 0 
L 194 0 
Q 188 203 259 391 
Q 375 700 629 1000 
Q 884 1300 1366 1694 
Q 2113 2306 2375 2664 
Q 2638 3022 2638 3341 
Q 2638 3675 2398 3904 
Q 2159 4134 1775 4134 
Q 1369 4134 1125 3890 
Q 881 3647 878 3216 
L 300 3275 
Q 359 3922 746 4261 
Q 1134 4600 1788 4600 
Q 2447 4600 2831 4234 
Q 3216 3869 3216 3328 
Q 3216 3053 3103 2787 
Q 2991 2522 2730 2228 
Q 2469 1934 1863 1422 
Q 1356 997 1212 845 
Q 1069 694 975 541 
L 3222 541 
z
" transform="scale(0.015625)"/>
       </defs>
       <use xlink:href="#ArialMT-2212"/>
       <use xlink:href="#ArialMT-32" x="58.398438"/>
      </g>
     </g>
    </g>
    <g id="xtick_3">
     <g id="line2d_3">
      <path d="M 321.99325 339.84 
L 321.99325 7.2 
" clip-path="url(#p84f63215fb)" style="fill: none; stroke: #ffffff; stroke-width: 0.8; stroke-linecap: round"/>
     </g>
     <g id="text_3">
      <!-- 0 -->
      <g style="fill: #262626" transform="translate(319.546437 354.438875) scale(0.088 -0.088)">
       <defs>
        <path id="ArialMT-30" d="M 266 2259 
Q 266 3072 433 3567 
Q 600 4063 929 4331 
Q 1259 4600 1759 4600 
Q 2128 4600 2406 4451 
Q 2684 4303 2865 4023 
Q 3047 3744 3150 3342 
Q 3253 2941 3253 2259 
Q 3253 1453 3087 958 
Q 2922 463 2592 192 
Q 2263 -78 1759 -78 
Q 1097 -78 719 397 
Q 266 969 266 2259 
z
M 844 2259 
Q 844 1131 1108 757 
Q 1372 384 1759 384 
Q 2147 384 2411 759 
Q 2675 1134 2675 2259 
Q 2675 3391 2411 3762 
Q 2147 4134 1753 4134 
Q 1366 4134 1134 3806 
Q 844 3388 844 2259 
z
" transform="scale(0.015625)"/>
       </defs>
       <use xlink:href="#ArialMT-30"/>
      </g>
     </g>
    </g>
    <g id="xtick_4">
     <g id="line2d_4">
      <path d="M 423.447795 339.84 
L 423.447795 7.2 
" clip-path="url(#p84f63215fb)" style="fill: none; stroke: #ffffff; stroke-width: 0.8; stroke-linecap: round"/>
     </g>
     <g id="text_4">
      <!-- 2 -->
      <g style="fill: #262626" transform="translate(421.000983 354.438875) scale(0.088 -0.088)">
       <use xlink:href="#ArialMT-32"/>
      </g>
     </g>
    </g>
    <g id="xtick_5">
     <g id="line2d_5">
      <path d="M 524.902341 339.84 
L 524.902341 7.2 
" clip-path="url(#p84f63215fb)" style="fill: none; stroke: #ffffff; stroke-width: 0.8; stroke-linecap: round"/>
     </g>
     <g id="text_5">
      <!-- 4 -->
      <g style="fill: #262626" transform="translate(522.455528 354.438875) scale(0.088 -0.088)">
       <use xlink:href="#ArialMT-34"/>
      </g>
     </g>
    </g>
    <g id="text_6">
     <!-- x -->
     <g style="fill: #262626" transform="translate(318.99325 368.77725) scale(0.12 -0.12)">
      <defs>
       <path id="ArialMT-78" d="M 47 0 
L 1259 1725 
L 138 3319 
L 841 3319 
L 1350 2541 
Q 1494 2319 1581 2169 
Q 1719 2375 1834 2534 
L 2394 3319 
L 3066 3319 
L 1919 1756 
L 3153 0 
L 2463 0 
L 1781 1031 
L 1600 1309 
L 728 0 
L 47 0 
z
" transform="scale(0.015625)"/>
      </defs>
      <use xlink:href="#ArialMT-78"/>
     </g>
    </g>
   </g>
   <g id="matplotlib.axis_2">
    <g id="ytick_1">
     <g id="line2d_6">
      <path d="M 42.99325 327.745227 
L 600.99325 327.745227 
" clip-path="url(#p84f63215fb)" style="fill: none; stroke: #ffffff; stroke-width: 0.8; stroke-linecap: round"/>
     </g>
     <g id="text_7">
      <!-- 0.0 -->
      <g style="fill: #262626" transform="translate(22.46125 330.894664) scale(0.088 -0.088)">
       <defs>
        <path id="ArialMT-2e" d="M 581 0 
L 581 641 
L 1222 641 
L 1222 0 
L 581 0 
z
" transform="scale(0.015625)"/>
       </defs>
       <use xlink:href="#ArialMT-30"/>
       <use xlink:href="#ArialMT-2e" x="55.615234"/>
       <use xlink:href="#ArialMT-30" x="83.398438"/>
      </g>
     </g>
    </g>
    <g id="ytick_2">
     <g id="line2d_7">
      <path d="M 42.99325 279.749877 
L 600.99325 279.749877 
" clip-path="url(#p84f63215fb)" style="fill: none; stroke: #ffffff; stroke-width: 0.8; stroke-linecap: round"/>
     </g>
     <g id="text_8">
      <!-- 0.1 -->
      <g style="fill: #262626" transform="translate(22.46125 282.899314) scale(0.088 -0.088)">
       <defs>
        <path id="ArialMT-31" d="M 2384 0 
L 1822 0 
L 1822 3584 
Q 1619 3391 1289 3197 
Q 959 3003 697 2906 
L 697 3450 
Q 1169 3672 1522 3987 
Q 1875 4303 2022 4600 
L 2384 4600 
L 2384 0 
z
" transform="scale(0.015625)"/>
       </defs>
       <use xlink:href="#ArialMT-30"/>
       <use xlink:href="#ArialMT-2e" x="55.615234"/>
       <use xlink:href="#ArialMT-31" x="83.398438"/>
      </g>
     </g>
    </g>
    <g id="ytick_3">
     <g id="line2d_8">
      <path d="M 42.99325 231.754527 
L 600.99325 231.754527 
" clip-path="url(#p84f63215fb)" style="fill: none; stroke: #ffffff; stroke-width: 0.8; stroke-linecap: round"/>
     </g>
     <g id="text_9">
      <!-- 0.2 -->
      <g style="fill: #262626" transform="translate(22.46125 234.903964) scale(0.088 -0.088)">
       <use xlink:href="#ArialMT-30"/>
       <use xlink:href="#ArialMT-2e" x="55.615234"/>
       <use xlink:href="#ArialMT-32" x="83.398438"/>
      </g>
     </g>
    </g>
    <g id="ytick_4">
     <g id="line2d_9">
      <path d="M 42.99325 183.759177 
L 600.99325 183.759177 
" clip-path="url(#p84f63215fb)" style="fill: none; stroke: #ffffff; stroke-width: 0.8; stroke-linecap: round"/>
     </g>
     <g id="text_10">
      <!-- 0.3 -->
      <g style="fill: #262626" transform="translate(22.46125 186.908615) scale(0.088 -0.088)">
       <defs>
        <path id="ArialMT-33" d="M 269 1209 
L 831 1284 
Q 928 806 1161 595 
Q 1394 384 1728 384 
Q 2125 384 2398 659 
Q 2672 934 2672 1341 
Q 2672 1728 2419 1979 
Q 2166 2231 1775 2231 
Q 1616 2231 1378 2169 
L 1441 2663 
Q 1497 2656 1531 2656 
Q 1891 2656 2178 2843 
Q 2466 3031 2466 3422 
Q 2466 3731 2256 3934 
Q 2047 4138 1716 4138 
Q 1388 4138 1169 3931 
Q 950 3725 888 3313 
L 325 3413 
Q 428 3978 793 4289 
Q 1159 4600 1703 4600 
Q 2078 4600 2393 4439 
Q 2709 4278 2876 4000 
Q 3044 3722 3044 3409 
Q 3044 3113 2884 2869 
Q 2725 2625 2413 2481 
Q 2819 2388 3044 2092 
Q 3269 1797 3269 1353 
Q 3269 753 2831 336 
Q 2394 -81 1725 -81 
Q 1122 -81 723 278 
Q 325 638 269 1209 
z
" transform="scale(0.015625)"/>
       </defs>
       <use xlink:href="#ArialMT-30"/>
       <use xlink:href="#ArialMT-2e" x="55.615234"/>
       <use xlink:href="#ArialMT-33" x="83.398438"/>
      </g>
     </g>
    </g>
    <g id="ytick_5">
     <g id="line2d_10">
      <path d="M 42.99325 135.763827 
L 600.99325 135.763827 
" clip-path="url(#p84f63215fb)" style="fill: none; stroke: #ffffff; stroke-width: 0.8; stroke-linecap: round"/>
     </g>
     <g id="text_11">
      <!-- 0.4 -->
      <g style="fill: #262626" transform="translate(22.46125 138.913265) scale(0.088 -0.088)">
       <use xlink:href="#ArialMT-30"/>
       <use xlink:href="#ArialMT-2e" x="55.615234"/>
       <use xlink:href="#ArialMT-34" x="83.398438"/>
      </g>
     </g>
    </g>
    <g id="ytick_6">
     <g id="line2d_11">
      <path d="M 42.99325 87.768477 
L 600.99325 87.768477 
" clip-path="url(#p84f63215fb)" style="fill: none; stroke: #ffffff; stroke-width: 0.8; stroke-linecap: round"/>
     </g>
     <g id="text_12">
      <!-- 0.5 -->
      <g style="fill: #262626" transform="translate(22.46125 90.917915) scale(0.088 -0.088)">
       <defs>
        <path id="ArialMT-35" d="M 266 1200 
L 856 1250 
Q 922 819 1161 601 
Q 1400 384 1738 384 
Q 2144 384 2425 690 
Q 2706 997 2706 1503 
Q 2706 1984 2436 2262 
Q 2166 2541 1728 2541 
Q 1456 2541 1237 2417 
Q 1019 2294 894 2097 
L 366 2166 
L 809 4519 
L 3088 4519 
L 3088 3981 
L 1259 3981 
L 1013 2750 
Q 1425 3038 1878 3038 
Q 2478 3038 2890 2622 
Q 3303 2206 3303 1553 
Q 3303 931 2941 478 
Q 2500 -78 1738 -78 
Q 1113 -78 717 272 
Q 322 622 266 1200 
z
" transform="scale(0.015625)"/>
       </defs>
       <use xlink:href="#ArialMT-30"/>
       <use xlink:href="#ArialMT-2e" x="55.615234"/>
       <use xlink:href="#ArialMT-35" x="83.398438"/>
      </g>
     </g>
    </g>
    <g id="ytick_7">
     <g id="line2d_12">
      <path d="M 42.99325 39.773128 
L 600.99325 39.773128 
" clip-path="url(#p84f63215fb)" style="fill: none; stroke: #ffffff; stroke-width: 0.8; stroke-linecap: round"/>
     </g>
     <g id="text_13">
      <!-- 0.6 -->
      <g style="fill: #262626" transform="translate(22.46125 42.922565) scale(0.088 -0.088)">
       <defs>
        <path id="ArialMT-36" d="M 3184 3459 
L 2625 3416 
Q 2550 3747 2413 3897 
Q 2184 4138 1850 4138 
Q 1581 4138 1378 3988 
Q 1113 3794 959 3422 
Q 806 3050 800 2363 
Q 1003 2672 1297 2822 
Q 1591 2972 1913 2972 
Q 2475 2972 2870 2558 
Q 3266 2144 3266 1488 
Q 3266 1056 3080 686 
Q 2894 316 2569 119 
Q 2244 -78 1831 -78 
Q 1128 -78 684 439 
Q 241 956 241 2144 
Q 241 3472 731 4075 
Q 1159 4600 1884 4600 
Q 2425 4600 2770 4297 
Q 3116 3994 3184 3459 
z
M 888 1484 
Q 888 1194 1011 928 
Q 1134 663 1356 523 
Q 1578 384 1822 384 
Q 2178 384 2434 671 
Q 2691 959 2691 1453 
Q 2691 1928 2437 2201 
Q 2184 2475 1800 2475 
Q 1419 2475 1153 2201 
Q 888 1928 888 1484 
z
" transform="scale(0.015625)"/>
       </defs>
       <use xlink:href="#ArialMT-30"/>
       <use xlink:href="#ArialMT-2e" x="55.615234"/>
       <use xlink:href="#ArialMT-36" x="83.398438"/>
      </g>
     </g>
    </g>
    <g id="text_14">
     <!-- f(x) -->
     <g style="fill: #262626" transform="translate(15.935625 182.1825) rotate(-90) scale(0.12 -0.12)">
      <defs>
       <path id="ArialMT-66" d="M 556 0 
L 556 2881 
L 59 2881 
L 59 3319 
L 556 3319 
L 556 3672 
Q 556 4006 616 4169 
Q 697 4388 901 4523 
Q 1106 4659 1475 4659 
Q 1713 4659 2000 4603 
L 1916 4113 
Q 1741 4144 1584 4144 
Q 1328 4144 1222 4034 
Q 1116 3925 1116 3625 
L 1116 3319 
L 1763 3319 
L 1763 2881 
L 1116 2881 
L 1116 0 
L 556 0 
z
" transform="scale(0.015625)"/>
       <path id="ArialMT-28" d="M 1497 -1347 
Q 1031 -759 709 28 
Q 388 816 388 1659 
Q 388 2403 628 3084 
Q 909 3875 1497 4659 
L 1900 4659 
Q 1522 4009 1400 3731 
Q 1209 3300 1100 2831 
Q 966 2247 966 1656 
Q 966 153 1900 -1347 
L 1497 -1347 
z
" transform="scale(0.015625)"/>
       <path id="ArialMT-29" d="M 791 -1347 
L 388 -1347 
Q 1322 153 1322 1656 
Q 1322 2244 1188 2822 
Q 1081 3291 891 3722 
Q 769 4003 388 4659 
L 791 4659 
Q 1378 3875 1659 3084 
Q 1900 2403 1900 1659 
Q 1900 816 1576 28 
Q 1253 -759 791 -1347 
z
" transform="scale(0.015625)"/>
      </defs>
      <use xlink:href="#ArialMT-66"/>
      <use xlink:href="#ArialMT-28" x="27.783203"/>
      <use xlink:href="#ArialMT-78" x="61.083984"/>
      <use xlink:href="#ArialMT-29" x="111.083984"/>
     </g>
    </g>
   </g>
   <g id="line2d_13">
    <path d="M 68.356886 324.72 
L 94.78793 323.984371 
L 116.136081 323.176165 
L 133.417918 322.315898 
L 148.666597 321.339477 
L 161.882119 320.265335 
L 173.064483 319.132754 
L 182.213691 318.00552 
L 190.34632 316.809389 
L 198.478949 315.382056 
L 205.594999 313.894811 
L 211.694471 312.399674 
L 217.793942 310.653974 
L 222.876835 308.966574 
L 227.959728 307.022985 
L 232.026043 305.248492 
L 236.092357 303.243051 
L 240.158672 300.966267 
L 244.224986 298.368919 
L 247.274722 296.174747 
L 250.324458 293.736154 
L 253.374194 291.0174 
L 256.42393 287.976427 
L 259.473665 284.563612 
L 262.523401 280.720267 
L 265.573137 276.376867 
L 267.606294 273.163352 
L 269.639451 269.663181 
L 271.672609 265.844919 
L 273.705766 261.673439 
L 275.738923 257.109576 
L 277.77208 252.109822 
L 279.805238 246.626079 
L 281.838395 240.605561 
L 283.871552 233.990901 
L 285.904709 226.720624 
L 287.937867 218.730152 
L 289.971024 209.9536 
L 292.004181 200.3267 
L 294.037338 189.791298 
L 296.070495 178.301935 
L 298.103653 165.835102 
L 301.153388 145.339216 
L 304.203124 122.949736 
L 312.335753 60.886361 
L 314.36891 47.518895 
L 316.402068 36.357107 
L 317.418646 31.823665 
L 318.435225 28.094066 
L 319.451803 25.234583 
L 320.468382 23.297748 
L 321.484961 22.32 
L 322.501539 22.32 
L 323.518118 23.297748 
L 324.534697 25.234583 
L 325.551275 28.094066 
L 326.567854 31.823665 
L 327.584432 36.357107 
L 328.601011 41.617196 
L 330.634168 53.972446 
L 332.667325 68.170099 
L 335.717061 91.393897 
L 340.799954 130.591735 
L 343.84969 152.401705 
L 346.899426 172.190997 
L 348.932583 184.167975 
L 350.96574 195.175795 
L 352.998898 205.250287 
L 355.032055 214.444235 
L 357.065212 222.819527 
L 359.098369 230.441694 
L 361.131527 237.376253 
L 363.164684 243.686399 
L 365.197841 249.431638 
L 367.230998 254.667082 
L 369.264155 259.44317 
L 371.297313 263.805681 
L 373.33047 267.795917 
L 375.363627 271.450981 
L 378.413363 276.376867 
L 381.463099 280.720267 
L 384.512835 284.563612 
L 387.56257 287.976427 
L 390.612306 291.0174 
L 393.662042 293.736154 
L 396.711778 296.174747 
L 399.761514 298.368919 
L 403.827828 300.966267 
L 407.894143 303.243051 
L 411.960457 305.248492 
L 416.026772 307.022985 
L 421.109665 308.966574 
L 426.192558 310.653974 
L 431.275451 312.127508 
L 437.374922 313.660976 
L 444.490973 315.184477 
L 451.607023 316.476365 
L 459.739652 317.725377 
L 468.888859 318.899646 
L 479.054646 319.979488 
L 491.253589 321.034837 
L 504.469111 321.953863 
L 520.734369 322.848449 
L 539.032784 323.628673 
L 561.397513 324.353733 
L 575.629614 324.72 
L 575.629614 324.72 
" clip-path="url(#p84f63215fb)" style="fill: none; stroke: #0173b2; stroke-width: 1.2; stroke-linecap: round"/>
   </g>
   <g id="line2d_14">
    <path d="M 68.356886 321.869306 
L 88.688459 320.848801 
L 105.970295 319.761208 
L 121.218974 318.577927 
L 134.434496 317.331705 
L 145.616861 316.073479 
L 155.782647 314.727457 
L 164.931854 313.314085 
L 174.081062 311.667269 
L 182.213691 309.966014 
L 189.329741 308.257338 
L 196.445791 306.304404 
L 202.545263 304.401917 
L 208.644735 302.25253 
L 213.727628 300.243672 
L 218.810521 298.007819 
L 223.893414 295.513379 
L 228.976307 292.724094 
L 233.042621 290.252727 
L 237.108936 287.542501 
L 241.17525 284.567313 
L 245.241565 281.298759 
L 249.307879 277.706337 
L 253.374194 273.757913 
L 257.440508 269.420559 
L 261.506823 264.661936 
L 265.573137 259.452428 
L 269.639451 253.768289 
L 273.705766 247.596089 
L 277.77208 240.938728 
L 281.838395 233.823195 
L 286.921288 224.380615 
L 295.053917 208.579292 
L 300.13681 198.891858 
L 303.186546 193.43247 
L 306.236282 188.414669 
L 308.269439 185.390573 
L 310.302596 182.676222 
L 312.335753 180.314872 
L 314.36891 178.346247 
L 316.402068 176.804988 
L 318.435225 175.719199 
L 319.451803 175.35379 
L 320.468382 175.109207 
L 321.484961 174.98662 
L 322.501539 174.98662 
L 323.518118 175.109207 
L 324.534697 175.35379 
L 325.551275 175.719199 
L 327.584432 176.804988 
L 329.61759 178.346247 
L 331.650747 180.314872 
L 333.683904 182.676222 
L 335.717061 185.390573 
L 337.750218 188.414669 
L 340.799954 193.43247 
L 343.84969 198.891858 
L 348.932583 208.579292 
L 359.098369 228.220692 
L 363.164684 235.642394 
L 367.230998 242.647571 
L 371.297313 249.185082 
L 375.363627 255.234782 
L 379.429942 260.798511 
L 383.496256 265.892777 
L 387.56257 270.543155 
L 391.628885 274.780192 
L 395.695199 278.636541 
L 399.761514 282.145036 
L 403.827828 285.337465 
L 407.894143 288.243838 
L 411.960457 290.891994 
L 416.026772 293.307449 
L 421.109665 296.034623 
L 426.192558 298.474602 
L 431.275451 300.662669 
L 436.358344 302.629545 
L 442.457815 304.735145 
L 448.557287 306.599971 
L 455.673337 308.51544 
L 462.789388 310.192436 
L 470.922017 311.863274 
L 479.054646 313.314085 
L 488.203853 314.727457 
L 498.369639 316.073479 
L 509.552004 317.331705 
L 522.767526 318.577927 
L 536.999626 319.689521 
L 553.264884 320.732602 
L 571.563299 321.683928 
L 575.629614 321.869306 
L 575.629614 321.869306 
" clip-path="url(#p84f63215fb)" style="fill: none; stroke: #de8f05; stroke-width: 1.2; stroke-linecap: round"/>
   </g>
   <g id="line2d_15">
    <path d="M 68.356886 317.209093 
L 85.638723 315.860481 
L 100.887402 314.459622 
L 115.119503 312.93535 
L 128.335024 311.295226 
L 140.533968 309.553557 
L 151.716333 307.732298 
L 161.882119 305.861462 
L 172.047905 303.757008 
L 181.197112 301.638243 
L 190.34632 299.282487 
L 198.478949 296.970679 
L 206.611578 294.437826 
L 214.744206 291.670934 
L 222.876835 288.66139 
L 231.009464 285.407719 
L 239.142093 281.919181 
L 248.291301 277.745043 
L 259.473665 272.382016 
L 277.77208 263.553641 
L 284.888131 260.370293 
L 290.987602 257.88324 
L 296.070495 256.039619 
L 301.153388 254.450811 
L 305.219703 253.390679 
L 309.286017 252.538081 
L 313.352332 251.908374 
L 317.418646 251.513244 
L 321.484961 251.360172 
L 325.551275 251.452089 
L 329.61759 251.787233 
L 333.683904 252.359235 
L 337.750218 253.157416 
L 341.816533 254.167281 
L 346.899426 255.700113 
L 351.982319 257.496203 
L 357.065212 259.512266 
L 363.164684 262.159169 
L 371.297313 265.951905 
L 403.827828 281.467619 
L 411.960457 284.98416 
L 420.093086 288.267962 
L 428.225715 291.308123 
L 436.358344 294.104992 
L 444.490973 296.666457 
L 452.623602 299.005088 
L 461.772809 301.388625 
L 470.922017 303.532564 
L 480.071224 305.460199 
L 490.23701 307.375444 
L 501.419375 309.239391 
L 512.60174 310.881755 
L 524.800683 312.455579 
L 538.016205 313.941371 
L 552.248306 315.326212 
L 568.513563 316.681415 
L 575.629614 317.209093 
L 575.629614 317.209093 
" clip-path="url(#p84f63215fb)" style="fill: none; stroke: #029e73; stroke-width: 1.2; stroke-linecap: round"/>
   </g>
   <g id="line2d_16">
    <path d="M 68.356886 312.467832 
L 76.489515 310.889791 
L 83.605566 309.309305 
L 90.721616 307.507818 
L 96.821087 305.757431 
L 102.920559 303.784741 
L 109.020031 301.55368 
L 114.102924 299.466471 
L 119.185817 297.141398 
L 124.26871 294.54525 
L 128.335024 292.247756 
L 132.401339 289.730592 
L 136.467653 286.969536 
L 140.533968 283.938019 
L 144.600282 280.607193 
L 148.666597 276.946182 
L 152.732911 272.922611 
L 156.799226 268.503539 
L 160.86554 263.656973 
L 164.931854 258.354182 
L 168.998169 252.57308 
L 173.064483 246.302968 
L 177.130798 239.550887 
L 181.197112 232.349724 
L 186.280005 222.825171 
L 200.512106 195.571693 
L 203.561842 190.359027 
L 206.611578 185.67978 
L 208.644735 182.932464 
L 210.677892 180.533955 
L 212.711049 178.524403 
L 214.744206 176.939024 
L 216.777364 175.806637 
L 217.793942 175.417254 
L 218.810521 175.148393 
L 219.8271 175.001341 
L 220.843678 174.976805 
L 221.860257 175.074902 
L 222.876835 175.295162 
L 223.893414 175.636527 
L 225.926571 176.675513 
L 227.959728 178.17237 
L 229.992886 180.09972 
L 232.026043 182.423514 
L 234.0592 185.104465 
L 236.092357 188.099602 
L 239.142093 193.082532 
L 242.191829 198.517164 
L 246.258143 206.212801 
L 259.473665 231.607177 
L 263.53998 238.850163 
L 267.606294 245.649138 
L 271.672609 251.968121 
L 275.738923 257.79788 
L 279.805238 263.147654 
L 283.871552 268.038629 
L 287.937867 272.499043 
L 292.004181 276.560683 
L 296.070495 280.256475 
L 300.13681 283.6189 
L 304.203124 286.679014 
L 308.269439 289.465882 
L 312.335753 292.006306 
L 316.402068 294.324744 
L 321.484961 296.944154 
L 326.567854 299.28963 
L 331.650747 301.394751 
L 336.73364 303.288725 
L 342.833112 305.318248 
L 348.932583 307.117592 
L 356.048633 308.967867 
L 363.164684 310.589687 
L 371.297313 312.207498 
L 380.44652 313.776716 
L 389.595728 315.126225 
L 399.761514 316.413997 
L 411.960457 317.720464 
L 425.175979 318.90092 
L 440.424658 320.025222 
L 457.706495 321.061882 
L 477.021488 321.99412 
L 499.386218 322.851283 
L 525.817262 323.640249 
L 557.331199 324.356276 
L 575.629614 324.689748 
L 575.629614 324.689748 
" clip-path="url(#p84f63215fb)" style="fill: none; stroke: #d55e00; stroke-width: 1.2; stroke-linecap: round"/>
   </g>
   <g id="patch_3">
    <path d="M 42.99325 339.84 
L 42.99325 7.2 
" style="fill: none; stroke: #ffffff; stroke-linejoin: miter; stroke-linecap: square"/>
   </g>
   <g id="patch_4">
    <path d="M 600.99325 339.84 
L 600.99325 7.2 
" style="fill: none; stroke: #ffffff; stroke-linejoin: miter; stroke-linecap: square"/>
   </g>
   <g id="patch_5">
    <path d="M 42.99325 339.84 
L 600.99325 339.84 
" style="fill: none; stroke: #ffffff; stroke-linejoin: miter; stroke-linecap: square"/>
   </g>
   <g id="patch_6">
    <path d="M 42.99325 7.2 
L 600.99325 7.2 
" style="fill: none; stroke: #ffffff; stroke-linejoin: miter; stroke-linecap: square"/>
   </g>
   <g id="legend_1">
    <g id="patch_7">
     <path d="M 503.66525 64.224 
L 594.83325 64.224 
Q 596.59325 64.224 596.59325 62.464 
L 596.59325 13.36 
Q 596.59325 11.6 594.83325 11.6 
L 503.66525 11.6 
Q 501.90525 11.6 501.90525 13.36 
L 501.90525 62.464 
Q 501.90525 64.224 503.66525 64.224 
z
" style="fill: #eaeaf2; opacity: 0.8; stroke: #cccccc; stroke-width: 0.8; stroke-linejoin: miter"/>
    </g>
    <g id="line2d_17">
     <path d="M 505.42525 18.376 
L 514.22525 18.376 
L 523.02525 18.376 
" style="fill: none; stroke: #0173b2; stroke-width: 1.2; stroke-linecap: round"/>
    </g>
    <g id="text_15">
     <!-- $\alpha$ = 0.0, $\beta$ = 0.5 -->
     <g style="fill: #262626" transform="translate(530.06525 21.456) scale(0.088 -0.088)">
      <defs>
       <path id="Cmmi10-ae" d="M 1288 -72 
Q 984 -72 748 72 
Q 513 216 384 459 
Q 256 703 256 1013 
Q 256 1447 498 1872 
Q 741 2297 1142 2562 
Q 1544 2828 1984 2828 
Q 2309 2828 2556 2658 
Q 2803 2488 2931 2205 
Q 3059 1922 3059 1600 
L 3066 1172 
Q 3284 1475 3436 1801 
Q 3588 2128 3669 2478 
Q 3681 2516 3719 2516 
L 3794 2516 
Q 3853 2516 3853 2456 
Q 3853 2450 3847 2438 
Q 3772 2144 3659 1873 
Q 3547 1603 3395 1350 
Q 3244 1097 3066 891 
Q 3066 97 3250 97 
Q 3369 97 3445 167 
Q 3522 238 3580 341 
Q 3638 444 3653 447 
L 3731 447 
Q 3781 447 3781 384 
Q 3781 225 3598 76 
Q 3416 -72 3238 -72 
Q 3006 -72 2853 78 
Q 2700 228 2644 469 
Q 2344 213 1994 70 
Q 1644 -72 1288 -72 
z
M 1300 97 
Q 1984 97 2613 659 
Q 2609 697 2603 751 
Q 2597 806 2597 813 
L 2597 1503 
Q 2597 2663 1972 2663 
Q 1597 2663 1315 2342 
Q 1034 2022 892 1576 
Q 750 1131 750 763 
Q 750 484 892 290 
Q 1034 97 1300 97 
z
" transform="scale(0.015625)"/>
       <path id="ArialMT-20" transform="scale(0.015625)"/>
       <path id="ArialMT-3d" d="M 3381 2694 
L 356 2694 
L 356 3219 
L 3381 3219 
L 3381 2694 
z
M 3381 1303 
L 356 1303 
L 356 1828 
L 3381 1828 
L 3381 1303 
z
" transform="scale(0.015625)"/>
       <path id="ArialMT-2c" d="M 569 0 
L 569 641 
L 1209 641 
L 1209 0 
Q 1209 -353 1084 -570 
Q 959 -788 688 -906 
L 531 -666 
Q 709 -588 793 -436 
Q 878 -284 888 0 
L 569 0 
z
" transform="scale(0.015625)"/>
       <path id="Cmmi10-af" d="M 172 -1241 
Q 153 -1241 137 -1219 
Q 122 -1197 122 -1178 
L 1106 2778 
Q 1191 3097 1353 3397 
Q 1516 3697 1761 3955 
Q 2006 4213 2300 4363 
Q 2594 4513 2925 4513 
Q 3163 4513 3355 4408 
Q 3547 4303 3658 4114 
Q 3769 3925 3769 3688 
Q 3769 3459 3681 3251 
Q 3594 3044 3437 2864 
Q 3281 2684 3103 2572 
Q 3206 2506 3287 2404 
Q 3369 2303 3419 2192 
Q 3469 2081 3497 1945 
Q 3525 1809 3525 1691 
Q 3525 1363 3384 1044 
Q 3244 725 3001 465 
Q 2759 206 2446 54 
Q 2134 -97 1806 -97 
Q 1447 -97 1159 100 
Q 872 297 763 634 
L 300 -1203 
Q 300 -1241 250 -1241 
L 172 -1241 
z
M 1819 78 
Q 2106 78 2339 267 
Q 2572 456 2723 742 
Q 2875 1028 2954 1348 
Q 3034 1669 3034 1931 
Q 3034 2256 2847 2444 
Q 2628 2363 2419 2363 
Q 1913 2363 1913 2534 
Q 1913 2759 2491 2759 
Q 2697 2759 2869 2694 
Q 3006 2800 3118 3006 
Q 3231 3213 3289 3438 
Q 3347 3663 3347 3859 
Q 3347 4069 3236 4208 
Q 3125 4347 2913 4347 
Q 2522 4347 2186 4106 
Q 1850 3866 1619 3498 
Q 1388 3131 1288 2741 
L 934 1325 
Q 900 1178 891 997 
Q 891 597 1153 337 
Q 1416 78 1819 78 
z
M 2106 2553 
Q 2203 2528 2425 2528 
Q 2534 2528 2644 2566 
Q 2638 2572 2619 2572 
Q 2550 2591 2472 2591 
Q 2181 2591 2106 2553 
z
" transform="scale(0.015625)"/>
      </defs>
      <use xlink:href="#Cmmi10-ae" transform="translate(0 0.125)"/>
      <use xlink:href="#ArialMT-20" transform="translate(63.916016 0.125)"/>
      <use xlink:href="#ArialMT-3d" transform="translate(91.699219 0.125)"/>
      <use xlink:href="#ArialMT-20" transform="translate(150.097656 0.125)"/>
      <use xlink:href="#ArialMT-30" transform="translate(177.880859 0.125)"/>
      <use xlink:href="#ArialMT-2e" transform="translate(233.496094 0.125)"/>
      <use xlink:href="#ArialMT-30" transform="translate(261.279297 0.125)"/>
      <use xlink:href="#ArialMT-2c" transform="translate(316.894531 0.125)"/>
      <use xlink:href="#ArialMT-20" transform="translate(344.677734 0.125)"/>
      <use xlink:href="#Cmmi10-af" transform="translate(372.460938 0.125)"/>
      <use xlink:href="#ArialMT-20" transform="translate(428.955078 0.125)"/>
      <use xlink:href="#ArialMT-3d" transform="translate(456.738281 0.125)"/>
      <use xlink:href="#ArialMT-20" transform="translate(515.136719 0.125)"/>
      <use xlink:href="#ArialMT-30" transform="translate(542.919922 0.125)"/>
      <use xlink:href="#ArialMT-2e" transform="translate(598.535156 0.125)"/>
      <use xlink:href="#ArialMT-35" transform="translate(626.318359 0.125)"/>
     </g>
    </g>
    <g id="line2d_18">
     <path d="M 505.42525 30.872 
L 514.22525 30.872 
L 523.02525 30.872 
" style="fill: none; stroke: #de8f05; stroke-width: 1.2; stroke-linecap: round"/>
    </g>
    <g id="text_16">
     <!-- $\alpha$ = 0.0, $\beta$ = 1.0 -->
     <g style="fill: #262626" transform="translate(530.06525 33.952) scale(0.088 -0.088)">
      <use xlink:href="#Cmmi10-ae" transform="translate(0 0.125)"/>
      <use xlink:href="#ArialMT-20" transform="translate(63.916016 0.125)"/>
      <use xlink:href="#ArialMT-3d" transform="translate(91.699219 0.125)"/>
      <use xlink:href="#ArialMT-20" transform="translate(150.097656 0.125)"/>
      <use xlink:href="#ArialMT-30" transform="translate(177.880859 0.125)"/>
      <use xlink:href="#ArialMT-2e" transform="translate(233.496094 0.125)"/>
      <use xlink:href="#ArialMT-30" transform="translate(261.279297 0.125)"/>
      <use xlink:href="#ArialMT-2c" transform="translate(316.894531 0.125)"/>
      <use xlink:href="#ArialMT-20" transform="translate(344.677734 0.125)"/>
      <use xlink:href="#Cmmi10-af" transform="translate(372.460938 0.125)"/>
      <use xlink:href="#ArialMT-20" transform="translate(428.955078 0.125)"/>
      <use xlink:href="#ArialMT-3d" transform="translate(456.738281 0.125)"/>
      <use xlink:href="#ArialMT-20" transform="translate(515.136719 0.125)"/>
      <use xlink:href="#ArialMT-31" transform="translate(542.919922 0.125)"/>
      <use xlink:href="#ArialMT-2e" transform="translate(598.535156 0.125)"/>
      <use xlink:href="#ArialMT-30" transform="translate(626.318359 0.125)"/>
     </g>
    </g>
    <g id="line2d_19">
     <path d="M 505.42525 43.368 
L 514.22525 43.368 
L 523.02525 43.368 
" style="fill: none; stroke: #029e73; stroke-width: 1.2; stroke-linecap: round"/>
    </g>
    <g id="text_17">
     <!-- $\alpha$ = 0.0, $\beta$ = 2.0 -->
     <g style="fill: #262626" transform="translate(530.06525 46.448) scale(0.088 -0.088)">
      <use xlink:href="#Cmmi10-ae" transform="translate(0 0.125)"/>
      <use xlink:href="#ArialMT-20" transform="translate(63.916016 0.125)"/>
      <use xlink:href="#ArialMT-3d" transform="translate(91.699219 0.125)"/>
      <use xlink:href="#ArialMT-20" transform="translate(150.097656 0.125)"/>
      <use xlink:href="#ArialMT-30" transform="translate(177.880859 0.125)"/>
      <use xlink:href="#ArialMT-2e" transform="translate(233.496094 0.125)"/>
      <use xlink:href="#ArialMT-30" transform="translate(261.279297 0.125)"/>
      <use xlink:href="#ArialMT-2c" transform="translate(316.894531 0.125)"/>
      <use xlink:href="#ArialMT-20" transform="translate(344.677734 0.125)"/>
      <use xlink:href="#Cmmi10-af" transform="translate(372.460938 0.125)"/>
      <use xlink:href="#ArialMT-20" transform="translate(428.955078 0.125)"/>
      <use xlink:href="#ArialMT-3d" transform="translate(456.738281 0.125)"/>
      <use xlink:href="#ArialMT-20" transform="translate(515.136719 0.125)"/>
      <use xlink:href="#ArialMT-32" transform="translate(542.919922 0.125)"/>
      <use xlink:href="#ArialMT-2e" transform="translate(598.535156 0.125)"/>
      <use xlink:href="#ArialMT-30" transform="translate(626.318359 0.125)"/>
     </g>
    </g>
    <g id="line2d_20">
     <path d="M 505.42525 55.864 
L 514.22525 55.864 
L 523.02525 55.864 
" style="fill: none; stroke: #d55e00; stroke-width: 1.2; stroke-linecap: round"/>
    </g>
    <g id="text_18">
     <!-- $\alpha$ = -2.0, $\beta$ = 1.0 -->
     <g style="fill: #262626" transform="translate(530.06525 58.944) scale(0.088 -0.088)">
      <defs>
       <path id="ArialMT-2d" d="M 203 1375 
L 203 1941 
L 1931 1941 
L 1931 1375 
L 203 1375 
z
" transform="scale(0.015625)"/>
      </defs>
      <use xlink:href="#Cmmi10-ae" transform="translate(0 0.125)"/>
      <use xlink:href="#ArialMT-20" transform="translate(63.916016 0.125)"/>
      <use xlink:href="#ArialMT-3d" transform="translate(91.699219 0.125)"/>
      <use xlink:href="#ArialMT-20" transform="translate(150.097656 0.125)"/>
      <use xlink:href="#ArialMT-2d" transform="translate(177.880859 0.125)"/>
      <use xlink:href="#ArialMT-32" transform="translate(211.181641 0.125)"/>
      <use xlink:href="#ArialMT-2e" transform="translate(266.796875 0.125)"/>
      <use xlink:href="#ArialMT-30" transform="translate(294.580078 0.125)"/>
      <use xlink:href="#ArialMT-2c" transform="translate(350.195312 0.125)"/>
      <use xlink:href="#ArialMT-20" transform="translate(377.978516 0.125)"/>
      <use xlink:href="#Cmmi10-af" transform="translate(405.761719 0.125)"/>
      <use xlink:href="#ArialMT-20" transform="translate(462.255859 0.125)"/>
      <use xlink:href="#ArialMT-3d" transform="translate(490.039062 0.125)"/>
      <use xlink:href="#ArialMT-20" transform="translate(548.4375 0.125)"/>
      <use xlink:href="#ArialMT-31" transform="translate(576.220703 0.125)"/>
      <use xlink:href="#ArialMT-2e" transform="translate(631.835938 0.125)"/>
      <use xlink:href="#ArialMT-30" transform="translate(659.619141 0.125)"/>
     </g>
    </g>
   </g>
  </g>
 </g>
 <defs>
  <clipPath id="p84f63215fb">
   <rect x="42.99325" y="7.2" width="558" height="332.64"/>
  </clipPath>
 </defs>
</svg>