<?xml version="1.0" encoding="utf-8" standalone="no"?>
<!DOCTYPE svg PUBLIC "-//W3C//DTD SVG 1.1//EN"
  "http://www.w3.org/Graphics/SVG/1.1/DTD/svg11.dtd">
<svg xmlns:xlink="http://www.w3.org/1999/xlink" width="621.650156pt" height="396.450469pt" viewBox="0 0 621.650156 396.450469" xmlns="http://www.w3.org/2000/svg" version="1.1">
 <metadata>
  <rdf:RDF xmlns:dc="http://purl.org/dc/elements/1.1/" xmlns:cc="http://creativecommons.org/ns#" xmlns:rdf="http://www.w3.org/1999/02/22-rdf-syntax-ns#">
   <cc:Work>
    <dc:type rdf:resource="http://purl.org/dc/dcmitype/StillImage"/>
    <dc:date>2023-05-17T06:10:42.286564</dc:date>
    <dc:format>image/svg+xml</dc:format>
    <dc:creator>
     <cc:Agent>
      <dc:title>Matplotlib v3.7.1, https://matplotlib.org/</dc:title>
     </cc:Agent>
    </dc:creator>
   </cc:Work>
  </rdf:RDF>
 </metadata>
 <defs>
  <style type="text/css">*{stroke-linejoin: round; stroke-linecap: butt}</style>
 </defs>
 <g id="figure_1">
  <g id="patch_1">
   <path d="M 0 396.450469 
L 621.650156 396.450469 
L 621.650156 0 
L 0 0 
z
" style="fill: #ffffff"/>
  </g>
  <g id="axes_1">
   <g id="patch_2">
    <path d="M 56.450156 354.429375 
L 614.450156 354.429375 
L 614.450156 21.789375 
L 56.450156 21.789375 
z
" style="fill: #eaeaf2"/>
   </g>
   <g id="matplotlib.axis_1">
    <g id="xtick_1">
     <g id="line2d_1">
      <path d="M 81.813793 354.429375 
L 81.813793 21.789375 
" clip-path="url(#p210f972198)" style="fill: none; stroke: #ffffff; stroke-linecap: round"/>
     </g>
     <g id="text_1">
      <!-- 0.0 -->
      <g style="fill: #262626" transform="translate(74.168793 371.802969) scale(0.11 -0.11)">
       <defs>
        <path id="ArialMT-30" d="M 266 2259 
Q 266 3072 433 3567 
Q 600 4063 929 4331 
Q 1259 4600 1759 4600 
Q 2128 4600 2406 4451 
Q 2684 4303 2865 4023 
Q 3047 3744 3150 3342 
Q 3253 2941 3253 2259 
Q 3253 1453 3087 958 
Q 2922 463 2592 192 
Q 2263 -78 1759 -78 
Q 1097 -78 719 397 
Q 266 969 266 2259 
z
M 844 2259 
Q 844 1131 1108 757 
Q 1372 384 1759 384 
Q 2147 384 2411 759 
Q 2675 1134 2675 2259 
Q 2675 3391 2411 3762 
Q 2147 4134 1753 4134 
Q 1366 4134 1134 3806 
Q 844 3388 844 2259 
z
" transform="scale(0.015625)"/>
        <path id="ArialMT-2e" d="M 581 0 
L 581 641 
L 1222 641 
L 1222 0 
L 581 0 
z
" transform="scale(0.015625)"/>
       </defs>
       <use xlink:href="#ArialMT-30"/>
       <use xlink:href="#ArialMT-2e" x="55.615234"/>
       <use xlink:href="#ArialMT-30" x="83.398438"/>
      </g>
     </g>
    </g>
    <g id="xtick_2">
     <g id="line2d_2">
      <path d="M 183.268338 354.429375 
L 183.268338 21.789375 
" clip-path="url(#p210f972198)" style="fill: none; stroke: #ffffff; stroke-linecap: round"/>
     </g>
     <g id="text_2">
      <!-- 0.2 -->
      <g style="fill: #262626" transform="translate(175.623338 371.802969) scale(0.11 -0.11)">
       <defs>
        <path id="ArialMT-32" d="M 3222 541 
L 3222 0 
L 194 0 
Q 188 203 259 391 
Q 375 700 629 1000 
Q 884 1300 1366 1694 
Q 2113 2306 2375 2664 
Q 2638 3022 2638 3341 
Q 2638 3675 2398 3904 
Q 2159 4134 1775 4134 
Q 1369 4134 1125 3890 
Q 881 3647 878 3216 
L 300 3275 
Q 359 3922 746 4261 
Q 1134 4600 1788 4600 
Q 2447 4600 2831 4234 
Q 3216 3869 3216 3328 
Q 3216 3053 3103 2787 
Q 2991 2522 2730 2228 
Q 2469 1934 1863 1422 
Q 1356 997 1212 845 
Q 1069 694 975 541 
L 3222 541 
z
" transform="scale(0.015625)"/>
       </defs>
       <use xlink:href="#ArialMT-30"/>
       <use xlink:href="#ArialMT-2e" x="55.615234"/>
       <use xlink:href="#ArialMT-32" x="83.398438"/>
      </g>
     </g>
    </g>
    <g id="xtick_3">
     <g id="line2d_3">
      <path d="M 284.722884 354.429375 
L 284.722884 21.789375 
" clip-path="url(#p210f972198)" style="fill: none; stroke: #ffffff; stroke-linecap: round"/>
     </g>
     <g id="text_3">
      <!-- 0.4 -->
      <g style="fill: #262626" transform="translate(277.077884 371.802969) scale(0.11 -0.11)">
       <defs>
        <path id="ArialMT-34" d="M 2069 0 
L 2069 1097 
L 81 1097 
L 81 1613 
L 2172 4581 
L 2631 4581 
L 2631 1613 
L 3250 1613 
L 3250 1097 
L 2631 1097 
L 2631 0 
L 2069 0 
z
M 2069 1613 
L 2069 3678 
L 634 1613 
L 2069 1613 
z
" transform="scale(0.015625)"/>
       </defs>
       <use xlink:href="#ArialMT-30"/>
       <use xlink:href="#ArialMT-2e" x="55.615234"/>
       <use xlink:href="#ArialMT-34" x="83.398438"/>
      </g>
     </g>
    </g>
    <g id="xtick_4">
     <g id="line2d_4">
      <path d="M 386.177429 354.429375 
L 386.177429 21.789375 
" clip-path="url(#p210f972198)" style="fill: none; stroke: #ffffff; stroke-linecap: round"/>
     </g>
     <g id="text_4">
      <!-- 0.6 -->
      <g style="fill: #262626" transform="translate(378.532429 371.802969) scale(0.11 -0.11)">
       <defs>
        <path id="ArialMT-36" d="M 3184 3459 
L 2625 3416 
Q 2550 3747 2413 3897 
Q 2184 4138 1850 4138 
Q 1581 4138 1378 3988 
Q 1113 3794 959 3422 
Q 806 3050 800 2363 
Q 1003 2672 1297 2822 
Q 1591 2972 1913 2972 
Q 2475 2972 2870 2558 
Q 3266 2144 3266 1488 
Q 3266 1056 3080 686 
Q 2894 316 2569 119 
Q 2244 -78 1831 -78 
Q 1128 -78 684 439 
Q 241 956 241 2144 
Q 241 3472 731 4075 
Q 1159 4600 1884 4600 
Q 2425 4600 2770 4297 
Q 3116 3994 3184 3459 
z
M 888 1484 
Q 888 1194 1011 928 
Q 1134 663 1356 523 
Q 1578 384 1822 384 
Q 2178 384 2434 671 
Q 2691 959 2691 1453 
Q 2691 1928 2437 2201 
Q 2184 2475 1800 2475 
Q 1419 2475 1153 2201 
Q 888 1928 888 1484 
z
" transform="scale(0.015625)"/>
       </defs>
       <use xlink:href="#ArialMT-30"/>
       <use xlink:href="#ArialMT-2e" x="55.615234"/>
       <use xlink:href="#ArialMT-36" x="83.398438"/>
      </g>
     </g>
    </g>
    <g id="xtick_5">
     <g id="line2d_5">
      <path d="M 487.631974 354.429375 
L 487.631974 21.789375 
" clip-path="url(#p210f972198)" style="fill: none; stroke: #ffffff; stroke-linecap: round"/>
     </g>
     <g id="text_5">
      <!-- 0.8 -->
      <g style="fill: #262626" transform="translate(479.986974 371.802969) scale(0.11 -0.11)">
       <defs>
        <path id="ArialMT-38" d="M 1131 2484 
Q 781 2613 612 2850 
Q 444 3088 444 3419 
Q 444 3919 803 4259 
Q 1163 4600 1759 4600 
Q 2359 4600 2725 4251 
Q 3091 3903 3091 3403 
Q 3091 3084 2923 2848 
Q 2756 2613 2416 2484 
Q 2838 2347 3058 2040 
Q 3278 1734 3278 1309 
Q 3278 722 2862 322 
Q 2447 -78 1769 -78 
Q 1091 -78 675 323 
Q 259 725 259 1325 
Q 259 1772 486 2073 
Q 713 2375 1131 2484 
z
M 1019 3438 
Q 1019 3113 1228 2906 
Q 1438 2700 1772 2700 
Q 2097 2700 2305 2904 
Q 2513 3109 2513 3406 
Q 2513 3716 2298 3927 
Q 2084 4138 1766 4138 
Q 1444 4138 1231 3931 
Q 1019 3725 1019 3438 
z
M 838 1322 
Q 838 1081 952 856 
Q 1066 631 1291 507 
Q 1516 384 1775 384 
Q 2178 384 2440 643 
Q 2703 903 2703 1303 
Q 2703 1709 2433 1975 
Q 2163 2241 1756 2241 
Q 1359 2241 1098 1978 
Q 838 1716 838 1322 
z
" transform="scale(0.015625)"/>
       </defs>
       <use xlink:href="#ArialMT-30"/>
       <use xlink:href="#ArialMT-2e" x="55.615234"/>
       <use xlink:href="#ArialMT-38" x="83.398438"/>
      </g>
     </g>
    </g>
    <g id="xtick_6">
     <g id="line2d_6">
      <path d="M 589.08652 354.429375 
L 589.08652 21.789375 
" clip-path="url(#p210f972198)" style="fill: none; stroke: #ffffff; stroke-linecap: round"/>
     </g>
     <g id="text_6">
      <!-- 1.0 -->
      <g style="fill: #262626" transform="translate(581.44152 371.802969) scale(0.11 -0.11)">
       <defs>
        <path id="ArialMT-31" d="M 2384 0 
L 1822 0 
L 1822 3584 
Q 1619 3391 1289 3197 
Q 959 3003 697 2906 
L 697 3450 
Q 1169 3672 1522 3987 
Q 1875 4303 2022 4600 
L 2384 4600 
L 2384 0 
z
" transform="scale(0.015625)"/>
       </defs>
       <use xlink:href="#ArialMT-31"/>
       <use xlink:href="#ArialMT-2e" x="55.615234"/>
       <use xlink:href="#ArialMT-30" x="83.398438"/>
      </g>
     </g>
    </g>
    <g id="text_7">
     <!-- Gruppo (codificato con 0 e 1) -->
     <g style="fill: #262626" transform="translate(258.080156 386.724844) scale(0.12 -0.12)">
      <defs>
       <path id="ArialMT-47" d="M 2638 1797 
L 2638 2334 
L 4578 2338 
L 4578 638 
Q 4131 281 3656 101 
Q 3181 -78 2681 -78 
Q 2006 -78 1454 211 
Q 903 500 622 1047 
Q 341 1594 341 2269 
Q 341 2938 620 3517 
Q 900 4097 1425 4378 
Q 1950 4659 2634 4659 
Q 3131 4659 3532 4498 
Q 3934 4338 4162 4050 
Q 4391 3763 4509 3300 
L 3963 3150 
Q 3859 3500 3706 3700 
Q 3553 3900 3268 4020 
Q 2984 4141 2638 4141 
Q 2222 4141 1919 4014 
Q 1616 3888 1430 3681 
Q 1244 3475 1141 3228 
Q 966 2803 966 2306 
Q 966 1694 1177 1281 
Q 1388 869 1791 669 
Q 2194 469 2647 469 
Q 3041 469 3416 620 
Q 3791 772 3984 944 
L 3984 1797 
L 2638 1797 
z
" transform="scale(0.015625)"/>
       <path id="ArialMT-72" d="M 416 0 
L 416 3319 
L 922 3319 
L 922 2816 
Q 1116 3169 1280 3281 
Q 1444 3394 1641 3394 
Q 1925 3394 2219 3213 
L 2025 2691 
Q 1819 2813 1613 2813 
Q 1428 2813 1281 2702 
Q 1134 2591 1072 2394 
Q 978 2094 978 1738 
L 978 0 
L 416 0 
z
" transform="scale(0.015625)"/>
       <path id="ArialMT-75" d="M 2597 0 
L 2597 488 
Q 2209 -75 1544 -75 
Q 1250 -75 995 37 
Q 741 150 617 320 
Q 494 491 444 738 
Q 409 903 409 1263 
L 409 3319 
L 972 3319 
L 972 1478 
Q 972 1038 1006 884 
Q 1059 663 1231 536 
Q 1403 409 1656 409 
Q 1909 409 2131 539 
Q 2353 669 2445 892 
Q 2538 1116 2538 1541 
L 2538 3319 
L 3100 3319 
L 3100 0 
L 2597 0 
z
" transform="scale(0.015625)"/>
       <path id="ArialMT-70" d="M 422 -1272 
L 422 3319 
L 934 3319 
L 934 2888 
Q 1116 3141 1344 3267 
Q 1572 3394 1897 3394 
Q 2322 3394 2647 3175 
Q 2972 2956 3137 2557 
Q 3303 2159 3303 1684 
Q 3303 1175 3120 767 
Q 2938 359 2589 142 
Q 2241 -75 1856 -75 
Q 1575 -75 1351 44 
Q 1128 163 984 344 
L 984 -1272 
L 422 -1272 
z
M 931 1641 
Q 931 1000 1190 694 
Q 1450 388 1819 388 
Q 2194 388 2461 705 
Q 2728 1022 2728 1688 
Q 2728 2322 2467 2637 
Q 2206 2953 1844 2953 
Q 1484 2953 1207 2617 
Q 931 2281 931 1641 
z
" transform="scale(0.015625)"/>
       <path id="ArialMT-6f" d="M 213 1659 
Q 213 2581 725 3025 
Q 1153 3394 1769 3394 
Q 2453 3394 2887 2945 
Q 3322 2497 3322 1706 
Q 3322 1066 3130 698 
Q 2938 331 2570 128 
Q 2203 -75 1769 -75 
Q 1072 -75 642 372 
Q 213 819 213 1659 
z
M 791 1659 
Q 791 1022 1069 705 
Q 1347 388 1769 388 
Q 2188 388 2466 706 
Q 2744 1025 2744 1678 
Q 2744 2294 2464 2611 
Q 2184 2928 1769 2928 
Q 1347 2928 1069 2612 
Q 791 2297 791 1659 
z
" transform="scale(0.015625)"/>
       <path id="ArialMT-20" transform="scale(0.015625)"/>
       <path id="ArialMT-28" d="M 1497 -1347 
Q 1031 -759 709 28 
Q 388 816 388 1659 
Q 388 2403 628 3084 
Q 909 3875 1497 4659 
L 1900 4659 
Q 1522 4009 1400 3731 
Q 1209 3300 1100 2831 
Q 966 2247 966 1656 
Q 966 153 1900 -1347 
L 1497 -1347 
z
" transform="scale(0.015625)"/>
       <path id="ArialMT-63" d="M 2588 1216 
L 3141 1144 
Q 3050 572 2676 248 
Q 2303 -75 1759 -75 
Q 1078 -75 664 370 
Q 250 816 250 1647 
Q 250 2184 428 2587 
Q 606 2991 970 3192 
Q 1334 3394 1763 3394 
Q 2303 3394 2647 3120 
Q 2991 2847 3088 2344 
L 2541 2259 
Q 2463 2594 2264 2762 
Q 2066 2931 1784 2931 
Q 1359 2931 1093 2626 
Q 828 2322 828 1663 
Q 828 994 1084 691 
Q 1341 388 1753 388 
Q 2084 388 2306 591 
Q 2528 794 2588 1216 
z
" transform="scale(0.015625)"/>
       <path id="ArialMT-64" d="M 2575 0 
L 2575 419 
Q 2259 -75 1647 -75 
Q 1250 -75 917 144 
Q 584 363 401 755 
Q 219 1147 219 1656 
Q 219 2153 384 2558 
Q 550 2963 881 3178 
Q 1213 3394 1622 3394 
Q 1922 3394 2156 3267 
Q 2391 3141 2538 2938 
L 2538 4581 
L 3097 4581 
L 3097 0 
L 2575 0 
z
M 797 1656 
Q 797 1019 1065 703 
Q 1334 388 1700 388 
Q 2069 388 2326 689 
Q 2584 991 2584 1609 
Q 2584 2291 2321 2609 
Q 2059 2928 1675 2928 
Q 1300 2928 1048 2622 
Q 797 2316 797 1656 
z
" transform="scale(0.015625)"/>
       <path id="ArialMT-69" d="M 425 3934 
L 425 4581 
L 988 4581 
L 988 3934 
L 425 3934 
z
M 425 0 
L 425 3319 
L 988 3319 
L 988 0 
L 425 0 
z
" transform="scale(0.015625)"/>
       <path id="ArialMT-66" d="M 556 0 
L 556 2881 
L 59 2881 
L 59 3319 
L 556 3319 
L 556 3672 
Q 556 4006 616 4169 
Q 697 4388 901 4523 
Q 1106 4659 1475 4659 
Q 1713 4659 2000 4603 
L 1916 4113 
Q 1741 4144 1584 4144 
Q 1328 4144 1222 4034 
Q 1116 3925 1116 3625 
L 1116 3319 
L 1763 3319 
L 1763 2881 
L 1116 2881 
L 1116 0 
L 556 0 
z
" transform="scale(0.015625)"/>
       <path id="ArialMT-61" d="M 2588 409 
Q 2275 144 1986 34 
Q 1697 -75 1366 -75 
Q 819 -75 525 192 
Q 231 459 231 875 
Q 231 1119 342 1320 
Q 453 1522 633 1644 
Q 813 1766 1038 1828 
Q 1203 1872 1538 1913 
Q 2219 1994 2541 2106 
Q 2544 2222 2544 2253 
Q 2544 2597 2384 2738 
Q 2169 2928 1744 2928 
Q 1347 2928 1158 2789 
Q 969 2650 878 2297 
L 328 2372 
Q 403 2725 575 2942 
Q 747 3159 1072 3276 
Q 1397 3394 1825 3394 
Q 2250 3394 2515 3294 
Q 2781 3194 2906 3042 
Q 3031 2891 3081 2659 
Q 3109 2516 3109 2141 
L 3109 1391 
Q 3109 606 3145 398 
Q 3181 191 3288 0 
L 2700 0 
Q 2613 175 2588 409 
z
M 2541 1666 
Q 2234 1541 1622 1453 
Q 1275 1403 1131 1340 
Q 988 1278 909 1158 
Q 831 1038 831 891 
Q 831 666 1001 516 
Q 1172 366 1500 366 
Q 1825 366 2078 508 
Q 2331 650 2450 897 
Q 2541 1088 2541 1459 
L 2541 1666 
z
" transform="scale(0.015625)"/>
       <path id="ArialMT-74" d="M 1650 503 
L 1731 6 
Q 1494 -44 1306 -44 
Q 1000 -44 831 53 
Q 663 150 594 308 
Q 525 466 525 972 
L 525 2881 
L 113 2881 
L 113 3319 
L 525 3319 
L 525 4141 
L 1084 4478 
L 1084 3319 
L 1650 3319 
L 1650 2881 
L 1084 2881 
L 1084 941 
Q 1084 700 1114 631 
Q 1144 563 1211 522 
Q 1278 481 1403 481 
Q 1497 481 1650 503 
z
" transform="scale(0.015625)"/>
       <path id="ArialMT-6e" d="M 422 0 
L 422 3319 
L 928 3319 
L 928 2847 
Q 1294 3394 1984 3394 
Q 2284 3394 2536 3286 
Q 2788 3178 2913 3003 
Q 3038 2828 3088 2588 
Q 3119 2431 3119 2041 
L 3119 0 
L 2556 0 
L 2556 2019 
Q 2556 2363 2490 2533 
Q 2425 2703 2258 2804 
Q 2091 2906 1866 2906 
Q 1506 2906 1245 2678 
Q 984 2450 984 1813 
L 984 0 
L 422 0 
z
" transform="scale(0.015625)"/>
       <path id="ArialMT-65" d="M 2694 1069 
L 3275 997 
Q 3138 488 2766 206 
Q 2394 -75 1816 -75 
Q 1088 -75 661 373 
Q 234 822 234 1631 
Q 234 2469 665 2931 
Q 1097 3394 1784 3394 
Q 2450 3394 2872 2941 
Q 3294 2488 3294 1666 
Q 3294 1616 3291 1516 
L 816 1516 
Q 847 969 1125 678 
Q 1403 388 1819 388 
Q 2128 388 2347 550 
Q 2566 713 2694 1069 
z
M 847 1978 
L 2700 1978 
Q 2663 2397 2488 2606 
Q 2219 2931 1791 2931 
Q 1403 2931 1139 2672 
Q 875 2413 847 1978 
z
" transform="scale(0.015625)"/>
       <path id="ArialMT-29" d="M 791 -1347 
L 388 -1347 
Q 1322 153 1322 1656 
Q 1322 2244 1188 2822 
Q 1081 3291 891 3722 
Q 769 4003 388 4659 
L 791 4659 
Q 1378 3875 1659 3084 
Q 1900 2403 1900 1659 
Q 1900 816 1576 28 
Q 1253 -759 791 -1347 
z
" transform="scale(0.015625)"/>
      </defs>
      <use xlink:href="#ArialMT-47"/>
      <use xlink:href="#ArialMT-72" x="77.783203"/>
      <use xlink:href="#ArialMT-75" x="111.083984"/>
      <use xlink:href="#ArialMT-70" x="166.699219"/>
      <use xlink:href="#ArialMT-70" x="222.314453"/>
      <use xlink:href="#ArialMT-6f" x="277.929688"/>
      <use xlink:href="#ArialMT-20" x="333.544922"/>
      <use xlink:href="#ArialMT-28" x="361.328125"/>
      <use xlink:href="#ArialMT-63" x="394.628906"/>
      <use xlink:href="#ArialMT-6f" x="444.628906"/>
      <use xlink:href="#ArialMT-64" x="500.244141"/>
      <use xlink:href="#ArialMT-69" x="555.859375"/>
      <use xlink:href="#ArialMT-66" x="578.076172"/>
      <use xlink:href="#ArialMT-69" x="605.859375"/>
      <use xlink:href="#ArialMT-63" x="628.076172"/>
      <use xlink:href="#ArialMT-61" x="678.076172"/>
      <use xlink:href="#ArialMT-74" x="733.691406"/>
      <use xlink:href="#ArialMT-6f" x="761.474609"/>
      <use xlink:href="#ArialMT-20" x="817.089844"/>
      <use xlink:href="#ArialMT-63" x="844.873047"/>
      <use xlink:href="#ArialMT-6f" x="894.873047"/>
      <use xlink:href="#ArialMT-6e" x="950.488281"/>
      <use xlink:href="#ArialMT-20" x="1006.103516"/>
      <use xlink:href="#ArialMT-30" x="1033.886719"/>
      <use xlink:href="#ArialMT-20" x="1089.501953"/>
      <use xlink:href="#ArialMT-65" x="1117.285156"/>
      <use xlink:href="#ArialMT-20" x="1172.900391"/>
      <use xlink:href="#ArialMT-31" x="1200.683594"/>
      <use xlink:href="#ArialMT-29" x="1256.298828"/>
     </g>
    </g>
   </g>
   <g id="matplotlib.axis_2">
    <g id="ytick_1">
     <g id="line2d_7">
      <path d="M 56.450156 312.115184 
L 614.450156 312.115184 
" clip-path="url(#p210f972198)" style="fill: none; stroke: #ffffff; stroke-linecap: round"/>
     </g>
     <g id="text_8">
      <!-- −200 -->
      <g style="fill: #262626" transform="translate(22.174375 316.051981) scale(0.11 -0.11)">
       <defs>
        <path id="ArialMT-2212" d="M 3381 1997 
L 356 1997 
L 356 2522 
L 3381 2522 
L 3381 1997 
z
" transform="scale(0.015625)"/>
       </defs>
       <use xlink:href="#ArialMT-2212"/>
       <use xlink:href="#ArialMT-32" x="58.398438"/>
       <use xlink:href="#ArialMT-30" x="114.013672"/>
       <use xlink:href="#ArialMT-30" x="169.628906"/>
      </g>
     </g>
    </g>
    <g id="ytick_2">
     <g id="line2d_8">
      <path d="M 56.450156 255.215415 
L 614.450156 255.215415 
" clip-path="url(#p210f972198)" style="fill: none; stroke: #ffffff; stroke-linecap: round"/>
     </g>
     <g id="text_9">
      <!-- −100 -->
      <g style="fill: #262626" transform="translate(22.174375 259.152212) scale(0.11 -0.11)">
       <use xlink:href="#ArialMT-2212"/>
       <use xlink:href="#ArialMT-31" x="58.398438"/>
       <use xlink:href="#ArialMT-30" x="114.013672"/>
       <use xlink:href="#ArialMT-30" x="169.628906"/>
      </g>
     </g>
    </g>
    <g id="ytick_3">
     <g id="line2d_9">
      <path d="M 56.450156 198.315646 
L 614.450156 198.315646 
" clip-path="url(#p210f972198)" style="fill: none; stroke: #ffffff; stroke-linecap: round"/>
     </g>
     <g id="text_10">
      <!-- 0 -->
      <g style="fill: #262626" transform="translate(40.833125 202.252443) scale(0.11 -0.11)">
       <use xlink:href="#ArialMT-30"/>
      </g>
     </g>
    </g>
    <g id="ytick_4">
     <g id="line2d_10">
      <path d="M 56.450156 141.415877 
L 614.450156 141.415877 
" clip-path="url(#p210f972198)" style="fill: none; stroke: #ffffff; stroke-linecap: round"/>
     </g>
     <g id="text_11">
      <!-- 100 -->
      <g style="fill: #262626" transform="translate(28.599062 145.352674) scale(0.11 -0.11)">
       <use xlink:href="#ArialMT-31"/>
       <use xlink:href="#ArialMT-30" x="55.615234"/>
       <use xlink:href="#ArialMT-30" x="111.230469"/>
      </g>
     </g>
    </g>
    <g id="ytick_5">
     <g id="line2d_11">
      <path d="M 56.450156 84.516109 
L 614.450156 84.516109 
" clip-path="url(#p210f972198)" style="fill: none; stroke: #ffffff; stroke-linecap: round"/>
     </g>
     <g id="text_12">
      <!-- 200 -->
      <g style="fill: #262626" transform="translate(28.599062 88.452906) scale(0.11 -0.11)">
       <use xlink:href="#ArialMT-32"/>
       <use xlink:href="#ArialMT-30" x="55.615234"/>
       <use xlink:href="#ArialMT-30" x="111.230469"/>
      </g>
     </g>
    </g>
    <g id="ytick_6">
     <g id="line2d_12">
      <path d="M 56.450156 27.61634 
L 614.450156 27.61634 
" clip-path="url(#p210f972198)" style="fill: none; stroke: #ffffff; stroke-linecap: round"/>
     </g>
     <g id="text_13">
      <!-- 300 -->
      <g style="fill: #262626" transform="translate(28.599062 31.553137) scale(0.11 -0.11)">
       <defs>
        <path id="ArialMT-33" d="M 269 1209 
L 831 1284 
Q 928 806 1161 595 
Q 1394 384 1728 384 
Q 2125 384 2398 659 
Q 2672 934 2672 1341 
Q 2672 1728 2419 1979 
Q 2166 2231 1775 2231 
Q 1616 2231 1378 2169 
L 1441 2663 
Q 1497 2656 1531 2656 
Q 1891 2656 2178 2843 
Q 2466 3031 2466 3422 
Q 2466 3731 2256 3934 
Q 2047 4138 1716 4138 
Q 1388 4138 1169 3931 
Q 950 3725 888 3313 
L 325 3413 
Q 428 3978 793 4289 
Q 1159 4600 1703 4600 
Q 2078 4600 2393 4439 
Q 2709 4278 2876 4000 
Q 3044 3722 3044 3409 
Q 3044 3113 2884 2869 
Q 2725 2625 2413 2481 
Q 2819 2388 3044 2092 
Q 3269 1797 3269 1353 
Q 3269 753 2831 336 
Q 2394 -81 1725 -81 
Q 1122 -81 723 278 
Q 325 638 269 1209 
z
" transform="scale(0.015625)"/>
       </defs>
       <use xlink:href="#ArialMT-33"/>
       <use xlink:href="#ArialMT-30" x="55.615234"/>
       <use xlink:href="#ArialMT-30" x="111.230469"/>
      </g>
     </g>
    </g>
    <g id="text_14">
     <!-- Soddisfazione della vita -->
     <g style="fill: #262626" transform="translate(15.789375 251.146875) rotate(-90) scale(0.12 -0.12)">
      <defs>
       <path id="ArialMT-53" d="M 288 1472 
L 859 1522 
Q 900 1178 1048 958 
Q 1197 738 1509 602 
Q 1822 466 2213 466 
Q 2559 466 2825 569 
Q 3091 672 3220 851 
Q 3350 1031 3350 1244 
Q 3350 1459 3225 1620 
Q 3100 1781 2813 1891 
Q 2628 1963 1997 2114 
Q 1366 2266 1113 2400 
Q 784 2572 623 2826 
Q 463 3081 463 3397 
Q 463 3744 659 4045 
Q 856 4347 1234 4503 
Q 1613 4659 2075 4659 
Q 2584 4659 2973 4495 
Q 3363 4331 3572 4012 
Q 3781 3694 3797 3291 
L 3216 3247 
Q 3169 3681 2898 3903 
Q 2628 4125 2100 4125 
Q 1550 4125 1298 3923 
Q 1047 3722 1047 3438 
Q 1047 3191 1225 3031 
Q 1400 2872 2139 2705 
Q 2878 2538 3153 2413 
Q 3553 2228 3743 1945 
Q 3934 1663 3934 1294 
Q 3934 928 3725 604 
Q 3516 281 3123 101 
Q 2731 -78 2241 -78 
Q 1619 -78 1198 103 
Q 778 284 539 648 
Q 300 1013 288 1472 
z
" transform="scale(0.015625)"/>
       <path id="ArialMT-73" d="M 197 991 
L 753 1078 
Q 800 744 1014 566 
Q 1228 388 1613 388 
Q 2000 388 2187 545 
Q 2375 703 2375 916 
Q 2375 1106 2209 1216 
Q 2094 1291 1634 1406 
Q 1016 1563 777 1677 
Q 538 1791 414 1992 
Q 291 2194 291 2438 
Q 291 2659 392 2848 
Q 494 3038 669 3163 
Q 800 3259 1026 3326 
Q 1253 3394 1513 3394 
Q 1903 3394 2198 3281 
Q 2494 3169 2634 2976 
Q 2775 2784 2828 2463 
L 2278 2388 
Q 2241 2644 2061 2787 
Q 1881 2931 1553 2931 
Q 1166 2931 1000 2803 
Q 834 2675 834 2503 
Q 834 2394 903 2306 
Q 972 2216 1119 2156 
Q 1203 2125 1616 2013 
Q 2213 1853 2448 1751 
Q 2684 1650 2818 1456 
Q 2953 1263 2953 975 
Q 2953 694 2789 445 
Q 2625 197 2315 61 
Q 2006 -75 1616 -75 
Q 969 -75 630 194 
Q 291 463 197 991 
z
" transform="scale(0.015625)"/>
       <path id="ArialMT-7a" d="M 125 0 
L 125 456 
L 2238 2881 
Q 1878 2863 1603 2863 
L 250 2863 
L 250 3319 
L 2963 3319 
L 2963 2947 
L 1166 841 
L 819 456 
Q 1197 484 1528 484 
L 3063 484 
L 3063 0 
L 125 0 
z
" transform="scale(0.015625)"/>
       <path id="ArialMT-6c" d="M 409 0 
L 409 4581 
L 972 4581 
L 972 0 
L 409 0 
z
" transform="scale(0.015625)"/>
       <path id="ArialMT-76" d="M 1344 0 
L 81 3319 
L 675 3319 
L 1388 1331 
Q 1503 1009 1600 663 
Q 1675 925 1809 1294 
L 2547 3319 
L 3125 3319 
L 1869 0 
L 1344 0 
z
" transform="scale(0.015625)"/>
      </defs>
      <use xlink:href="#ArialMT-53"/>
      <use xlink:href="#ArialMT-6f" x="66.699219"/>
      <use xlink:href="#ArialMT-64" x="122.314453"/>
      <use xlink:href="#ArialMT-64" x="177.929688"/>
      <use xlink:href="#ArialMT-69" x="233.544922"/>
      <use xlink:href="#ArialMT-73" x="255.761719"/>
      <use xlink:href="#ArialMT-66" x="305.761719"/>
      <use xlink:href="#ArialMT-61" x="333.544922"/>
      <use xlink:href="#ArialMT-7a" x="389.160156"/>
      <use xlink:href="#ArialMT-69" x="439.160156"/>
      <use xlink:href="#ArialMT-6f" x="461.376953"/>
      <use xlink:href="#ArialMT-6e" x="516.992188"/>
      <use xlink:href="#ArialMT-65" x="572.607422"/>
      <use xlink:href="#ArialMT-20" x="628.222656"/>
      <use xlink:href="#ArialMT-64" x="656.005859"/>
      <use xlink:href="#ArialMT-65" x="711.621094"/>
      <use xlink:href="#ArialMT-6c" x="767.236328"/>
      <use xlink:href="#ArialMT-6c" x="789.453125"/>
      <use xlink:href="#ArialMT-61" x="811.669922"/>
      <use xlink:href="#ArialMT-20" x="867.285156"/>
      <use xlink:href="#ArialMT-76" x="895.068359"/>
      <use xlink:href="#ArialMT-69" x="945.068359"/>
      <use xlink:href="#ArialMT-74" x="967.285156"/>
      <use xlink:href="#ArialMT-61" x="995.068359"/>
     </g>
    </g>
   </g>
   <g id="line2d_13">
    <path d="M 81.813793 159.513571 
L 132.541065 158.318462 
L 183.268338 157.123352 
L 233.995611 155.928243 
L 284.722884 154.733133 
L 335.450156 153.538023 
L 386.177429 152.342914 
L 436.904702 151.147804 
L 487.631974 149.952695 
L 538.359247 148.757585 
L 589.08652 147.562476 
" clip-path="url(#p210f972198)" style="fill: none; stroke: #1a1a1a; stroke-opacity: 0.4; stroke-width: 1.5; stroke-linecap: round"/>
   </g>
   <g id="line2d_14">
    <path d="M 81.813793 171.828341 
L 132.541065 171.704244 
L 183.268338 171.580146 
L 233.995611 171.456049 
L 284.722884 171.331951 
L 335.450156 171.207854 
L 386.177429 171.083756 
L 436.904702 170.959659 
L 487.631974 170.835562 
L 538.359247 170.711464 
L 589.08652 170.587367 
" clip-path="url(#p210f972198)" style="fill: none; stroke: #1a1a1a; stroke-opacity: 0.4; stroke-width: 1.5; stroke-linecap: round"/>
   </g>
   <g id="line2d_15">
    <path d="M 81.813793 235.548588 
L 132.541065 229.238527 
L 183.268338 222.928466 
L 233.995611 216.618405 
L 284.722884 210.308344 
L 335.450156 203.998283 
L 386.177429 197.688222 
L 436.904702 191.378161 
L 487.631974 185.0681 
L 538.359247 178.758039 
L 589.08652 172.447978 
" clip-path="url(#p210f972198)" style="fill: none; stroke: #1a1a1a; stroke-opacity: 0.4; stroke-width: 1.5; stroke-linecap: round"/>
   </g>
   <g id="line2d_16">
    <path d="M 81.813793 219.326958 
L 132.541065 225.697344 
L 183.268338 232.06773 
L 233.995611 238.438117 
L 284.722884 244.808503 
L 335.450156 251.17889 
L 386.177429 257.549276 
L 436.904702 263.919663 
L 487.631974 270.290049 
L 538.359247 276.660436 
L 589.08652 283.030822 
" clip-path="url(#p210f972198)" style="fill: none; stroke: #1a1a1a; stroke-opacity: 0.4; stroke-width: 1.5; stroke-linecap: round"/>
   </g>
   <g id="line2d_17">
    <path d="M 81.813793 209.369251 
L 132.541065 198.443721 
L 183.268338 187.518192 
L 233.995611 176.592662 
L 284.722884 165.667132 
L 335.450156 154.741603 
L 386.177429 143.816073 
L 436.904702 132.890543 
L 487.631974 121.965014 
L 538.359247 111.039484 
L 589.08652 100.113954 
" clip-path="url(#p210f972198)" style="fill: none; stroke: #1a1a1a; stroke-opacity: 0.4; stroke-width: 1.5; stroke-linecap: round"/>
   </g>
   <g id="line2d_18">
    <path d="M 81.813793 213.642706 
L 132.541065 224.966738 
L 183.268338 236.290771 
L 233.995611 247.614804 
L 284.722884 258.938836 
L 335.450156 270.262869 
L 386.177429 281.586901 
L 436.904702 292.910934 
L 487.631974 304.234966 
L 538.359247 315.558999 
L 589.08652 326.883031 
" clip-path="url(#p210f972198)" style="fill: none; stroke: #1a1a1a; stroke-opacity: 0.4; stroke-width: 1.5; stroke-linecap: round"/>
   </g>
   <g id="line2d_19">
    <path d="M 81.813793 228.439251 
L 132.541065 226.981665 
L 183.268338 225.524078 
L 233.995611 224.066492 
L 284.722884 222.608905 
L 335.450156 221.151319 
L 386.177429 219.693732 
L 436.904702 218.236146 
L 487.631974 216.778559 
L 538.359247 215.320973 
L 589.08652 213.863386 
" clip-path="url(#p210f972198)" style="fill: none; stroke: #1a1a1a; stroke-opacity: 0.4; stroke-width: 1.5; stroke-linecap: round"/>
   </g>
   <g id="line2d_20">
    <path d="M 81.813793 181.667844 
L 132.541065 172.708076 
L 183.268338 163.748307 
L 233.995611 154.788539 
L 284.722884 145.82877 
L 335.450156 136.869001 
L 386.177429 127.909233 
L 436.904702 118.949464 
L 487.631974 109.989696 
L 538.359247 101.029927 
L 589.08652 92.070159 
" clip-path="url(#p210f972198)" style="fill: none; stroke: #1a1a1a; stroke-opacity: 0.4; stroke-width: 1.5; stroke-linecap: round"/>
   </g>
   <g id="line2d_21">
    <path d="M 81.813793 238.271722 
L 132.541065 240.267027 
L 183.268338 242.262332 
L 233.995611 244.257637 
L 284.722884 246.252942 
L 335.450156 248.248248 
L 386.177429 250.243553 
L 436.904702 252.238858 
L 487.631974 254.234163 
L 538.359247 256.229469 
L 589.08652 258.224774 
" clip-path="url(#p210f972198)" style="fill: none; stroke: #1a1a1a; stroke-opacity: 0.4; stroke-width: 1.5; stroke-linecap: round"/>
   </g>
   <g id="line2d_22">
    <path d="M 81.813793 166.779992 
L 132.541065 161.925413 
L 183.268338 157.070834 
L 233.995611 152.216256 
L 284.722884 147.361677 
L 335.450156 142.507098 
L 386.177429 137.652519 
L 436.904702 132.79794 
L 487.631974 127.943361 
L 538.359247 123.088782 
L 589.08652 118.234204 
" clip-path="url(#p210f972198)" style="fill: none; stroke: #1a1a1a; stroke-opacity: 0.4; stroke-width: 1.5; stroke-linecap: round"/>
   </g>
   <g id="line2d_23">
    <path d="M 81.813793 212.655421 
L 132.541065 209.896194 
L 183.268338 207.136966 
L 233.995611 204.377739 
L 284.722884 201.618511 
L 335.450156 198.859284 
L 386.177429 196.100057 
L 436.904702 193.340829 
L 487.631974 190.581602 
L 538.359247 187.822375 
L 589.08652 185.063147 
" clip-path="url(#p210f972198)" style="fill: none; stroke: #1a1a1a; stroke-opacity: 0.4; stroke-width: 1.5; stroke-linecap: round"/>
   </g>
   <g id="line2d_24">
    <path d="M 81.813793 178.138044 
L 132.541065 184.90533 
L 183.268338 191.672617 
L 233.995611 198.439904 
L 284.722884 205.207191 
L 335.450156 211.974477 
L 386.177429 218.741764 
L 436.904702 225.509051 
L 487.631974 232.276338 
L 538.359247 239.043624 
L 589.08652 245.810911 
" clip-path="url(#p210f972198)" style="fill: none; stroke: #1a1a1a; stroke-opacity: 0.4; stroke-width: 1.5; stroke-linecap: round"/>
   </g>
   <g id="line2d_25">
    <path d="M 81.813793 186.873134 
L 132.541065 178.829915 
L 183.268338 170.786695 
L 233.995611 162.743476 
L 284.722884 154.700256 
L 335.450156 146.657037 
L 386.177429 138.613817 
L 436.904702 130.570598 
L 487.631974 122.527378 
L 538.359247 114.484159 
L 589.08652 106.44094 
" clip-path="url(#p210f972198)" style="fill: none; stroke: #1a1a1a; stroke-opacity: 0.4; stroke-width: 1.5; stroke-linecap: round"/>
   </g>
   <g id="line2d_26">
    <path d="M 81.813793 169.226038 
L 132.541065 174.913939 
L 183.268338 180.60184 
L 233.995611 186.289741 
L 284.722884 191.977643 
L 335.450156 197.665544 
L 386.177429 203.353445 
L 436.904702 209.041346 
L 487.631974 214.729248 
L 538.359247 220.417149 
L 589.08652 226.10505 
" clip-path="url(#p210f972198)" style="fill: none; stroke: #1a1a1a; stroke-opacity: 0.4; stroke-width: 1.5; stroke-linecap: round"/>
   </g>
   <g id="line2d_27">
    <path d="M 81.813793 203.95611 
L 132.541065 196.408786 
L 183.268338 188.861461 
L 233.995611 181.314137 
L 284.722884 173.766813 
L 335.450156 166.219489 
L 386.177429 158.672165 
L 436.904702 151.124841 
L 487.631974 143.577516 
L 538.359247 136.030192 
L 589.08652 128.482868 
" clip-path="url(#p210f972198)" style="fill: none; stroke: #1a1a1a; stroke-opacity: 0.4; stroke-width: 1.5; stroke-linecap: round"/>
   </g>
   <g id="line2d_28">
    <path d="M 81.813793 172.946125 
L 132.541065 173.790003 
L 183.268338 174.633881 
L 233.995611 175.477759 
L 284.722884 176.321637 
L 335.450156 177.165515 
L 386.177429 178.009393 
L 436.904702 178.853271 
L 487.631974 179.697149 
L 538.359247 180.541027 
L 589.08652 181.384905 
" clip-path="url(#p210f972198)" style="fill: none; stroke: #1a1a1a; stroke-opacity: 0.4; stroke-width: 1.5; stroke-linecap: round"/>
   </g>
   <g id="line2d_29">
    <path d="M 81.813793 207.943044 
L 132.541065 201.493507 
L 183.268338 195.04397 
L 233.995611 188.594432 
L 284.722884 182.144895 
L 335.450156 175.695358 
L 386.177429 169.245821 
L 436.904702 162.796284 
L 487.631974 156.346747 
L 538.359247 149.89721 
L 589.08652 143.447672 
" clip-path="url(#p210f972198)" style="fill: none; stroke: #1a1a1a; stroke-opacity: 0.4; stroke-width: 1.5; stroke-linecap: round"/>
   </g>
   <g id="line2d_30">
    <path d="M 81.813793 127.876211 
L 132.541065 130.647277 
L 183.268338 133.418344 
L 233.995611 136.18941 
L 284.722884 138.960476 
L 335.450156 141.731543 
L 386.177429 144.502609 
L 436.904702 147.273675 
L 487.631974 150.044742 
L 538.359247 152.815808 
L 589.08652 155.586874 
" clip-path="url(#p210f972198)" style="fill: none; stroke: #1a1a1a; stroke-opacity: 0.4; stroke-width: 1.5; stroke-linecap: round"/>
   </g>
   <g id="line2d_31">
    <path d="M 81.813793 189.070283 
L 132.541065 197.995622 
L 183.268338 206.920961 
L 233.995611 215.8463 
L 284.722884 224.771638 
L 335.450156 233.696977 
L 386.177429 242.622316 
L 436.904702 251.547655 
L 487.631974 260.472994 
L 538.359247 269.398333 
L 589.08652 278.323672 
" clip-path="url(#p210f972198)" style="fill: none; stroke: #1a1a1a; stroke-opacity: 0.4; stroke-width: 1.5; stroke-linecap: round"/>
   </g>
   <g id="line2d_32">
    <path d="M 81.813793 234.613252 
L 132.541065 233.082691 
L 183.268338 231.55213 
L 233.995611 230.021569 
L 284.722884 228.491008 
L 335.450156 226.960447 
L 386.177429 225.429886 
L 436.904702 223.899325 
L 487.631974 222.368763 
L 538.359247 220.838202 
L 589.08652 219.307641 
" clip-path="url(#p210f972198)" style="fill: none; stroke: #1a1a1a; stroke-opacity: 0.4; stroke-width: 1.5; stroke-linecap: round"/>
   </g>
   <g id="line2d_33">
    <path d="M 81.813793 203.70413 
L 132.541065 205.433681 
L 183.268338 207.163233 
L 233.995611 208.892784 
L 284.722884 210.622336 
L 335.450156 212.351887 
L 386.177429 214.081439 
L 436.904702 215.81099 
L 487.631974 217.540542 
L 538.359247 219.270093 
L 589.08652 220.999645 
" clip-path="url(#p210f972198)" style="fill: none; stroke: #1a1a1a; stroke-opacity: 0.4; stroke-width: 1.5; stroke-linecap: round"/>
   </g>
   <g id="line2d_34">
    <path d="M 81.813793 184.188691 
L 132.541065 199.700759 
L 183.268338 215.212827 
L 233.995611 230.724896 
L 284.722884 246.236964 
L 335.450156 261.749033 
L 386.177429 277.261101 
L 436.904702 292.77317 
L 487.631974 308.285238 
L 538.359247 323.797307 
L 589.08652 339.309375 
" clip-path="url(#p210f972198)" style="fill: none; stroke: #1a1a1a; stroke-opacity: 0.4; stroke-width: 1.5; stroke-linecap: round"/>
   </g>
   <g id="line2d_35">
    <path d="M 81.813793 220.145668 
L 132.541065 219.883445 
L 183.268338 219.621221 
L 233.995611 219.358998 
L 284.722884 219.096774 
L 335.450156 218.834551 
L 386.177429 218.572327 
L 436.904702 218.310104 
L 487.631974 218.04788 
L 538.359247 217.785657 
L 589.08652 217.523433 
" clip-path="url(#p210f972198)" style="fill: none; stroke: #1a1a1a; stroke-opacity: 0.4; stroke-width: 1.5; stroke-linecap: round"/>
   </g>
   <g id="line2d_36">
    <path d="M 81.813793 219.369676 
L 132.541065 205.90716 
L 183.268338 192.444644 
L 233.995611 178.982129 
L 284.722884 165.519613 
L 335.450156 152.057097 
L 386.177429 138.594581 
L 436.904702 125.132065 
L 487.631974 111.66955 
L 538.359247 98.207034 
L 589.08652 84.744518 
" clip-path="url(#p210f972198)" style="fill: none; stroke: #1a1a1a; stroke-opacity: 0.4; stroke-width: 1.5; stroke-linecap: round"/>
   </g>
   <g id="line2d_37">
    <path d="M 81.813793 180.382905 
L 132.541065 176.812149 
L 183.268338 173.241392 
L 233.995611 169.670636 
L 284.722884 166.099879 
L 335.450156 162.529123 
L 386.177429 158.958367 
L 436.904702 155.38761 
L 487.631974 151.816854 
L 538.359247 148.246098 
L 589.08652 144.675341 
" clip-path="url(#p210f972198)" style="fill: none; stroke: #1a1a1a; stroke-opacity: 0.4; stroke-width: 1.5; stroke-linecap: round"/>
   </g>
   <g id="line2d_38">
    <path d="M 81.813793 226.859557 
L 132.541065 224.150615 
L 183.268338 221.441674 
L 233.995611 218.732732 
L 284.722884 216.02379 
L 335.450156 213.314849 
L 386.177429 210.605907 
L 436.904702 207.896965 
L 487.631974 205.188024 
L 538.359247 202.479082 
L 589.08652 199.77014 
" clip-path="url(#p210f972198)" style="fill: none; stroke: #1a1a1a; stroke-opacity: 0.4; stroke-width: 1.5; stroke-linecap: round"/>
   </g>
   <g id="line2d_39">
    <path d="M 81.813793 179.315275 
L 132.541065 167.591977 
L 183.268338 155.86868 
L 233.995611 144.145383 
L 284.722884 132.422086 
L 335.450156 120.698788 
L 386.177429 108.975491 
L 436.904702 97.252194 
L 487.631974 85.528896 
L 538.359247 73.805599 
L 589.08652 62.082302 
" clip-path="url(#p210f972198)" style="fill: none; stroke: #1a1a1a; stroke-opacity: 0.4; stroke-width: 1.5; stroke-linecap: round"/>
   </g>
   <g id="line2d_40">
    <path d="M 81.813793 179.1187 
L 132.541065 184.033667 
L 183.268338 188.948634 
L 233.995611 193.863601 
L 284.722884 198.778569 
L 335.450156 203.693536 
L 386.177429 208.608503 
L 436.904702 213.523471 
L 487.631974 218.438438 
L 538.359247 223.353405 
L 589.08652 228.268373 
" clip-path="url(#p210f972198)" style="fill: none; stroke: #1a1a1a; stroke-opacity: 0.4; stroke-width: 1.5; stroke-linecap: round"/>
   </g>
   <g id="line2d_41">
    <path d="M 81.813793 210.456506 
L 132.541065 211.525483 
L 183.268338 212.594461 
L 233.995611 213.663438 
L 284.722884 214.732416 
L 335.450156 215.801393 
L 386.177429 216.870371 
L 436.904702 217.939349 
L 487.631974 219.008326 
L 538.359247 220.077304 
L 589.08652 221.146281 
" clip-path="url(#p210f972198)" style="fill: none; stroke: #1a1a1a; stroke-opacity: 0.4; stroke-width: 1.5; stroke-linecap: round"/>
   </g>
   <g id="line2d_42">
    <path d="M 81.813793 226.549859 
L 132.541065 230.569707 
L 183.268338 234.589555 
L 233.995611 238.609403 
L 284.722884 242.62925 
L 335.450156 246.649098 
L 386.177429 250.668946 
L 436.904702 254.688794 
L 487.631974 258.708642 
L 538.359247 262.72849 
L 589.08652 266.748338 
" clip-path="url(#p210f972198)" style="fill: none; stroke: #1a1a1a; stroke-opacity: 0.4; stroke-width: 1.5; stroke-linecap: round"/>
   </g>
   <g id="line2d_43">
    <path d="M 81.813793 193.522891 
L 132.541065 194.867953 
L 183.268338 196.213016 
L 233.995611 197.558078 
L 284.722884 198.90314 
L 335.450156 200.248202 
L 386.177429 201.593264 
L 436.904702 202.938326 
L 487.631974 204.283388 
L 538.359247 205.62845 
L 589.08652 206.973512 
" clip-path="url(#p210f972198)" style="fill: none; stroke: #1a1a1a; stroke-opacity: 0.4; stroke-width: 1.5; stroke-linecap: round"/>
   </g>
   <g id="line2d_44">
    <path d="M 81.813793 233.13126 
L 132.541065 241.647111 
L 183.268338 250.162961 
L 233.995611 258.678812 
L 284.722884 267.194663 
L 335.450156 275.710514 
L 386.177429 284.226365 
L 436.904702 292.742216 
L 487.631974 301.258066 
L 538.359247 309.773917 
L 589.08652 318.289768 
" clip-path="url(#p210f972198)" style="fill: none; stroke: #1a1a1a; stroke-opacity: 0.4; stroke-width: 1.5; stroke-linecap: round"/>
   </g>
   <g id="line2d_45">
    <path d="M 81.813793 224.979229 
L 132.541065 225.712542 
L 183.268338 226.445855 
L 233.995611 227.179168 
L 284.722884 227.91248 
L 335.450156 228.645793 
L 386.177429 229.379106 
L 436.904702 230.112419 
L 487.631974 230.845732 
L 538.359247 231.579044 
L 589.08652 232.312357 
" clip-path="url(#p210f972198)" style="fill: none; stroke: #1a1a1a; stroke-opacity: 0.4; stroke-width: 1.5; stroke-linecap: round"/>
   </g>
   <g id="line2d_46">
    <path d="M 81.813793 195.25651 
L 132.541065 204.543074 
L 183.268338 213.829639 
L 233.995611 223.116203 
L 284.722884 232.402767 
L 335.450156 241.689332 
L 386.177429 250.975896 
L 436.904702 260.26246 
L 487.631974 269.549025 
L 538.359247 278.835589 
L 589.08652 288.122153 
" clip-path="url(#p210f972198)" style="fill: none; stroke: #1a1a1a; stroke-opacity: 0.4; stroke-width: 1.5; stroke-linecap: round"/>
   </g>
   <g id="line2d_47">
    <path d="M 81.813793 241.63918 
L 132.541065 240.521915 
L 183.268338 239.40465 
L 233.995611 238.287385 
L 284.722884 237.17012 
L 335.450156 236.052856 
L 386.177429 234.935591 
L 436.904702 233.818326 
L 487.631974 232.701061 
L 538.359247 231.583796 
L 589.08652 230.466532 
" clip-path="url(#p210f972198)" style="fill: none; stroke: #1a1a1a; stroke-opacity: 0.4; stroke-width: 1.5; stroke-linecap: round"/>
   </g>
   <g id="line2d_48">
    <path d="M 81.813793 169.592476 
L 132.541065 176.558108 
L 183.268338 183.523739 
L 233.995611 190.489371 
L 284.722884 197.455003 
L 335.450156 204.420634 
L 386.177429 211.386266 
L 436.904702 218.351898 
L 487.631974 225.317529 
L 538.359247 232.283161 
L 589.08652 239.248793 
" clip-path="url(#p210f972198)" style="fill: none; stroke: #1a1a1a; stroke-opacity: 0.4; stroke-width: 1.5; stroke-linecap: round"/>
   </g>
   <g id="line2d_49">
    <path d="M 81.813793 195.261638 
L 132.541065 191.94443 
L 183.268338 188.627223 
L 233.995611 185.310015 
L 284.722884 181.992807 
L 335.450156 178.675599 
L 386.177429 175.358392 
L 436.904702 172.041184 
L 487.631974 168.723976 
L 538.359247 165.406768 
L 589.08652 162.089561 
" clip-path="url(#p210f972198)" style="fill: none; stroke: #1a1a1a; stroke-opacity: 0.4; stroke-width: 1.5; stroke-linecap: round"/>
   </g>
   <g id="line2d_50">
    <path d="M 81.813793 186.016506 
L 132.541065 178.295324 
L 183.268338 170.574141 
L 233.995611 162.852959 
L 284.722884 155.131776 
L 335.450156 147.410594 
L 386.177429 139.689411 
L 436.904702 131.968229 
L 487.631974 124.247047 
L 538.359247 116.525864 
L 589.08652 108.804682 
" clip-path="url(#p210f972198)" style="fill: none; stroke: #1a1a1a; stroke-opacity: 0.4; stroke-width: 1.5; stroke-linecap: round"/>
   </g>
   <g id="line2d_51">
    <path d="M 81.813793 211.73182 
L 132.541065 204.579707 
L 183.268338 197.427594 
L 233.995611 190.275481 
L 284.722884 183.123368 
L 335.450156 175.971255 
L 386.177429 168.819142 
L 436.904702 161.667029 
L 487.631974 154.514916 
L 538.359247 147.362803 
L 589.08652 140.21069 
" clip-path="url(#p210f972198)" style="fill: none; stroke: #1a1a1a; stroke-opacity: 0.4; stroke-width: 1.5; stroke-linecap: round"/>
   </g>
   <g id="line2d_52">
    <path d="M 81.813793 187.583639 
L 132.541065 191.585083 
L 183.268338 195.586528 
L 233.995611 199.587972 
L 284.722884 203.589416 
L 335.450156 207.590861 
L 386.177429 211.592305 
L 436.904702 215.593749 
L 487.631974 219.595194 
L 538.359247 223.596638 
L 589.08652 227.598083 
" clip-path="url(#p210f972198)" style="fill: none; stroke: #1a1a1a; stroke-opacity: 0.4; stroke-width: 1.5; stroke-linecap: round"/>
   </g>
   <g id="line2d_53">
    <path d="M 81.813793 166.513792 
L 132.541065 156.950247 
L 183.268338 147.386703 
L 233.995611 137.823158 
L 284.722884 128.259614 
L 335.450156 118.696069 
L 386.177429 109.132525 
L 436.904702 99.56898 
L 487.631974 90.005436 
L 538.359247 80.441891 
L 589.08652 70.878347 
" clip-path="url(#p210f972198)" style="fill: none; stroke: #1a1a1a; stroke-opacity: 0.4; stroke-width: 1.5; stroke-linecap: round"/>
   </g>
   <g id="line2d_54">
    <path d="M 81.813793 164.711757 
L 132.541065 151.931519 
L 183.268338 139.151281 
L 233.995611 126.371042 
L 284.722884 113.590804 
L 335.450156 100.810566 
L 386.177429 88.030328 
L 436.904702 75.25009 
L 487.631974 62.469851 
L 538.359247 49.689613 
L 589.08652 36.909375 
" clip-path="url(#p210f972198)" style="fill: none; stroke: #1a1a1a; stroke-opacity: 0.4; stroke-width: 1.5; stroke-linecap: round"/>
   </g>
   <g id="line2d_55">
    <path d="M 81.813793 236.010839 
L 132.541065 245.025465 
L 183.268338 254.040091 
L 233.995611 263.054717 
L 284.722884 272.069343 
L 335.450156 281.083969 
L 386.177429 290.098595 
L 436.904702 299.113221 
L 487.631974 308.127848 
L 538.359247 317.142474 
L 589.08652 326.1571 
" clip-path="url(#p210f972198)" style="fill: none; stroke: #1a1a1a; stroke-opacity: 0.4; stroke-width: 1.5; stroke-linecap: round"/>
   </g>
   <g id="line2d_56">
    <path d="M 81.813793 196.301372 
L 132.541065 199.481444 
L 183.268338 202.661515 
L 233.995611 205.841587 
L 284.722884 209.021659 
L 335.450156 212.20173 
L 386.177429 215.381802 
L 436.904702 218.561873 
L 487.631974 221.741945 
L 538.359247 224.922017 
L 589.08652 228.102088 
" clip-path="url(#p210f972198)" style="fill: none; stroke: #1a1a1a; stroke-opacity: 0.4; stroke-width: 1.5; stroke-linecap: round"/>
   </g>
   <g id="line2d_57">
    <path d="M 81.813793 165.609816 
L 132.541065 161.105554 
L 183.268338 156.601292 
L 233.995611 152.09703 
L 284.722884 147.592768 
L 335.450156 143.088507 
L 386.177429 138.584245 
L 436.904702 134.079983 
L 487.631974 129.575721 
L 538.359247 125.071459 
L 589.08652 120.567197 
" clip-path="url(#p210f972198)" style="fill: none; stroke: #1a1a1a; stroke-opacity: 0.4; stroke-width: 1.5; stroke-linecap: round"/>
   </g>
   <g id="line2d_58">
    <path d="M 81.813793 152.120897 
L 132.541065 155.673971 
L 183.268338 159.227044 
L 233.995611 162.780118 
L 284.722884 166.333192 
L 335.450156 169.886266 
L 386.177429 173.43934 
L 436.904702 176.992414 
L 487.631974 180.545488 
L 538.359247 184.098562 
L 589.08652 187.651636 
" clip-path="url(#p210f972198)" style="fill: none; stroke: #1a1a1a; stroke-opacity: 0.4; stroke-width: 1.5; stroke-linecap: round"/>
   </g>
   <g id="line2d_59">
    <path d="M 81.813793 215.428468 
L 132.541065 225.675206 
L 183.268338 235.921944 
L 233.995611 246.168682 
L 284.722884 256.41542 
L 335.450156 266.662158 
L 386.177429 276.908896 
L 436.904702 287.155634 
L 487.631974 297.402372 
L 538.359247 307.64911 
L 589.08652 317.895848 
" clip-path="url(#p210f972198)" style="fill: none; stroke: #1a1a1a; stroke-opacity: 0.4; stroke-width: 1.5; stroke-linecap: round"/>
   </g>
   <g id="line2d_60">
    <path d="M 81.813793 256.069811 
L 132.541065 246.934019 
L 183.268338 237.798227 
L 233.995611 228.662435 
L 284.722884 219.526643 
L 335.450156 210.39085 
L 386.177429 201.255058 
L 436.904702 192.119266 
L 487.631974 182.983474 
L 538.359247 173.847681 
L 589.08652 164.711889 
" clip-path="url(#p210f972198)" style="fill: none; stroke: #1a1a1a; stroke-opacity: 0.4; stroke-width: 1.5; stroke-linecap: round"/>
   </g>
   <g id="line2d_61">
    <path d="M 81.813793 142.953611 
L 132.541065 145.253171 
L 183.268338 147.552732 
L 233.995611 149.852292 
L 284.722884 152.151853 
L 335.450156 154.451413 
L 386.177429 156.750973 
L 436.904702 159.050534 
L 487.631974 161.350094 
L 538.359247 163.649655 
L 589.08652 165.949215 
" clip-path="url(#p210f972198)" style="fill: none; stroke: #1a1a1a; stroke-opacity: 0.4; stroke-width: 1.5; stroke-linecap: round"/>
   </g>
   <g id="line2d_62">
    <path d="M 81.813793 247.970299 
L 132.541065 254.171237 
L 183.268338 260.372175 
L 233.995611 266.573113 
L 284.722884 272.774051 
L 335.450156 278.974989 
L 386.177429 285.175927 
L 436.904702 291.376865 
L 487.631974 297.577803 
L 538.359247 303.778741 
L 589.08652 309.979679 
" clip-path="url(#p210f972198)" style="fill: none; stroke: #1a1a1a; stroke-opacity: 0.4; stroke-width: 1.5; stroke-linecap: round"/>
   </g>
   <g id="patch_3">
    <path d="M 56.450156 354.429375 
L 56.450156 21.789375 
" style="fill: none; stroke: #ffffff; stroke-width: 1.25; stroke-linejoin: miter; stroke-linecap: square"/>
   </g>
   <g id="patch_4">
    <path d="M 614.450156 354.429375 
L 614.450156 21.789375 
" style="fill: none; stroke: #ffffff; stroke-width: 1.25; stroke-linejoin: miter; stroke-linecap: square"/>
   </g>
   <g id="patch_5">
    <path d="M 56.450156 354.429375 
L 614.450156 354.429375 
" style="fill: none; stroke: #ffffff; stroke-width: 1.25; stroke-linejoin: miter; stroke-linecap: square"/>
   </g>
   <g id="patch_6">
    <path d="M 56.450156 21.789375 
L 614.450156 21.789375 
" style="fill: none; stroke: #ffffff; stroke-width: 1.25; stroke-linejoin: miter; stroke-linecap: square"/>
   </g>
   <g id="text_15">
    <!-- Distribuzioni predittive a priori -->
    <g style="fill: #262626" transform="translate(256.757344 15.789375) scale(0.12 -0.12)">
     <defs>
      <path id="ArialMT-44" d="M 494 0 
L 494 4581 
L 2072 4581 
Q 2606 4581 2888 4516 
Q 3281 4425 3559 4188 
Q 3922 3881 4101 3404 
Q 4281 2928 4281 2316 
Q 4281 1794 4159 1391 
Q 4038 988 3847 723 
Q 3656 459 3429 307 
Q 3203 156 2883 78 
Q 2563 0 2147 0 
L 494 0 
z
M 1100 541 
L 2078 541 
Q 2531 541 2789 625 
Q 3047 709 3200 863 
Q 3416 1078 3536 1442 
Q 3656 1806 3656 2325 
Q 3656 3044 3420 3430 
Q 3184 3816 2847 3947 
Q 2603 4041 2063 4041 
L 1100 4041 
L 1100 541 
z
" transform="scale(0.015625)"/>
      <path id="ArialMT-62" d="M 941 0 
L 419 0 
L 419 4581 
L 981 4581 
L 981 2947 
Q 1338 3394 1891 3394 
Q 2197 3394 2470 3270 
Q 2744 3147 2920 2923 
Q 3097 2700 3197 2384 
Q 3297 2069 3297 1709 
Q 3297 856 2875 390 
Q 2453 -75 1863 -75 
Q 1275 -75 941 416 
L 941 0 
z
M 934 1684 
Q 934 1088 1097 822 
Q 1363 388 1816 388 
Q 2184 388 2453 708 
Q 2722 1028 2722 1663 
Q 2722 2313 2464 2622 
Q 2206 2931 1841 2931 
Q 1472 2931 1203 2611 
Q 934 2291 934 1684 
z
" transform="scale(0.015625)"/>
     </defs>
     <use xlink:href="#ArialMT-44"/>
     <use xlink:href="#ArialMT-69" x="72.216797"/>
     <use xlink:href="#ArialMT-73" x="94.433594"/>
     <use xlink:href="#ArialMT-74" x="144.433594"/>
     <use xlink:href="#ArialMT-72" x="172.216797"/>
     <use xlink:href="#ArialMT-69" x="205.517578"/>
     <use xlink:href="#ArialMT-62" x="227.734375"/>
     <use xlink:href="#ArialMT-75" x="283.349609"/>
     <use xlink:href="#ArialMT-7a" x="338.964844"/>
     <use xlink:href="#ArialMT-69" x="388.964844"/>
     <use xlink:href="#ArialMT-6f" x="411.181641"/>
     <use xlink:href="#ArialMT-6e" x="466.796875"/>
     <use xlink:href="#ArialMT-69" x="522.412109"/>
     <use xlink:href="#ArialMT-20" x="544.628906"/>
     <use xlink:href="#ArialMT-70" x="572.412109"/>
     <use xlink:href="#ArialMT-72" x="628.027344"/>
     <use xlink:href="#ArialMT-65" x="661.328125"/>
     <use xlink:href="#ArialMT-64" x="716.943359"/>
     <use xlink:href="#ArialMT-69" x="772.558594"/>
     <use xlink:href="#ArialMT-74" x="794.775391"/>
     <use xlink:href="#ArialMT-74" x="822.558594"/>
     <use xlink:href="#ArialMT-69" x="850.341797"/>
     <use xlink:href="#ArialMT-76" x="872.558594"/>
     <use xlink:href="#ArialMT-65" x="922.558594"/>
     <use xlink:href="#ArialMT-20" x="978.173828"/>
     <use xlink:href="#ArialMT-61" x="1005.957031"/>
     <use xlink:href="#ArialMT-20" x="1061.572266"/>
     <use xlink:href="#ArialMT-70" x="1089.355469"/>
     <use xlink:href="#ArialMT-72" x="1144.970703"/>
     <use xlink:href="#ArialMT-69" x="1178.271484"/>
     <use xlink:href="#ArialMT-6f" x="1200.488281"/>
     <use xlink:href="#ArialMT-72" x="1256.103516"/>
     <use xlink:href="#ArialMT-69" x="1289.404297"/>
    </g>
   </g>
  </g>
 </g>
 <defs>
  <clipPath id="p210f972198">
   <rect x="56.450156" y="21.789375" width="558" height="332.64"/>
  </clipPath>
 </defs>
</svg>