<?xml version="1.0" encoding="utf-8" standalone="no"?>
<!DOCTYPE svg PUBLIC "-//W3C//DTD SVG 1.1//EN"
  "http://www.w3.org/Graphics/SVG/1.1/DTD/svg11.dtd">
<svg xmlns:xlink="http://www.w3.org/1999/xlink" width="597.825625pt" height="363.387875pt" viewBox="0 0 597.825625 363.387875" xmlns="http://www.w3.org/2000/svg" version="1.1">
 <metadata>
  <rdf:RDF xmlns:dc="http://purl.org/dc/elements/1.1/" xmlns:cc="http://creativecommons.org/ns#" xmlns:rdf="http://www.w3.org/1999/02/22-rdf-syntax-ns#">
   <cc:Work>
    <dc:type rdf:resource="http://purl.org/dc/dcmitype/StillImage"/>
    <dc:date>2023-05-08T00:37:44.028683</dc:date>
    <dc:format>image/svg+xml</dc:format>
    <dc:creator>
     <cc:Agent>
      <dc:title>Matplotlib v3.7.1, https://matplotlib.org/</dc:title>
     </cc:Agent>
    </dc:creator>
   </cc:Work>
  </rdf:RDF>
 </metadata>
 <defs>
  <style type="text/css">*{stroke-linejoin: round; stroke-linecap: butt}</style>
 </defs>
 <g id="figure_1">
  <g id="patch_1">
   <path d="M 0 363.387875 
L 597.825625 363.387875 
L 597.825625 0 
L 0 0 
z
" style="fill: #ffffff"/>
  </g>
  <g id="axes_1">
   <g id="patch_2">
    <path d="M 32.625625 339.84 
L 590.625625 339.84 
L 590.625625 7.2 
L 32.625625 7.2 
z
" style="fill: #eaeaf2"/>
   </g>
   <g id="matplotlib.axis_1">
    <g id="xtick_1">
     <g id="line2d_1">
      <path d="M 57.989261 339.84 
L 57.989261 7.2 
" clip-path="url(#p36072352cd)" style="fill: none; stroke: #ffffff; stroke-width: 0.8; stroke-linecap: round"/>
     </g>
     <g id="text_1">
      <!-- 0.0 -->
      <g style="fill: #262626" transform="translate(51.873261 354.438875) scale(0.088 -0.088)">
       <defs>
        <path id="ArialMT-30" d="M 266 2259 
Q 266 3072 433 3567 
Q 600 4063 929 4331 
Q 1259 4600 1759 4600 
Q 2128 4600 2406 4451 
Q 2684 4303 2865 4023 
Q 3047 3744 3150 3342 
Q 3253 2941 3253 2259 
Q 3253 1453 3087 958 
Q 2922 463 2592 192 
Q 2263 -78 1759 -78 
Q 1097 -78 719 397 
Q 266 969 266 2259 
z
M 844 2259 
Q 844 1131 1108 757 
Q 1372 384 1759 384 
Q 2147 384 2411 759 
Q 2675 1134 2675 2259 
Q 2675 3391 2411 3762 
Q 2147 4134 1753 4134 
Q 1366 4134 1134 3806 
Q 844 3388 844 2259 
z
" transform="scale(0.015625)"/>
        <path id="ArialMT-2e" d="M 581 0 
L 581 641 
L 1222 641 
L 1222 0 
L 581 0 
z
" transform="scale(0.015625)"/>
       </defs>
       <use xlink:href="#ArialMT-30"/>
       <use xlink:href="#ArialMT-2e" x="55.615234"/>
       <use xlink:href="#ArialMT-30" x="83.398438"/>
      </g>
     </g>
    </g>
    <g id="xtick_2">
     <g id="line2d_2">
      <path d="M 121.430073 339.84 
L 121.430073 7.2 
" clip-path="url(#p36072352cd)" style="fill: none; stroke: #ffffff; stroke-width: 0.8; stroke-linecap: round"/>
     </g>
     <g id="text_2">
      <!-- 2.5 -->
      <g style="fill: #262626" transform="translate(115.314073 354.438875) scale(0.088 -0.088)">
       <defs>
        <path id="ArialMT-32" d="M 3222 541 
L 3222 0 
L 194 0 
Q 188 203 259 391 
Q 375 700 629 1000 
Q 884 1300 1366 1694 
Q 2113 2306 2375 2664 
Q 2638 3022 2638 3341 
Q 2638 3675 2398 3904 
Q 2159 4134 1775 4134 
Q 1369 4134 1125 3890 
Q 881 3647 878 3216 
L 300 3275 
Q 359 3922 746 4261 
Q 1134 4600 1788 4600 
Q 2447 4600 2831 4234 
Q 3216 3869 3216 3328 
Q 3216 3053 3103 2787 
Q 2991 2522 2730 2228 
Q 2469 1934 1863 1422 
Q 1356 997 1212 845 
Q 1069 694 975 541 
L 3222 541 
z
" transform="scale(0.015625)"/>
        <path id="ArialMT-35" d="M 266 1200 
L 856 1250 
Q 922 819 1161 601 
Q 1400 384 1738 384 
Q 2144 384 2425 690 
Q 2706 997 2706 1503 
Q 2706 1984 2436 2262 
Q 2166 2541 1728 2541 
Q 1456 2541 1237 2417 
Q 1019 2294 894 2097 
L 366 2166 
L 809 4519 
L 3088 4519 
L 3088 3981 
L 1259 3981 
L 1013 2750 
Q 1425 3038 1878 3038 
Q 2478 3038 2890 2622 
Q 3303 2206 3303 1553 
Q 3303 931 2941 478 
Q 2500 -78 1738 -78 
Q 1113 -78 717 272 
Q 322 622 266 1200 
z
" transform="scale(0.015625)"/>
       </defs>
       <use xlink:href="#ArialMT-32"/>
       <use xlink:href="#ArialMT-2e" x="55.615234"/>
       <use xlink:href="#ArialMT-35" x="83.398438"/>
      </g>
     </g>
    </g>
    <g id="xtick_3">
     <g id="line2d_3">
      <path d="M 184.870884 339.84 
L 184.870884 7.2 
" clip-path="url(#p36072352cd)" style="fill: none; stroke: #ffffff; stroke-width: 0.8; stroke-linecap: round"/>
     </g>
     <g id="text_3">
      <!-- 5.0 -->
      <g style="fill: #262626" transform="translate(178.754884 354.438875) scale(0.088 -0.088)">
       <use xlink:href="#ArialMT-35"/>
       <use xlink:href="#ArialMT-2e" x="55.615234"/>
       <use xlink:href="#ArialMT-30" x="83.398438"/>
      </g>
     </g>
    </g>
    <g id="xtick_4">
     <g id="line2d_4">
      <path d="M 248.311695 339.84 
L 248.311695 7.2 
" clip-path="url(#p36072352cd)" style="fill: none; stroke: #ffffff; stroke-width: 0.8; stroke-linecap: round"/>
     </g>
     <g id="text_4">
      <!-- 7.5 -->
      <g style="fill: #262626" transform="translate(242.195695 354.438875) scale(0.088 -0.088)">
       <defs>
        <path id="ArialMT-37" d="M 303 3981 
L 303 4522 
L 3269 4522 
L 3269 4084 
Q 2831 3619 2401 2847 
Q 1972 2075 1738 1259 
Q 1569 684 1522 0 
L 944 0 
Q 953 541 1156 1306 
Q 1359 2072 1739 2783 
Q 2119 3494 2547 3981 
L 303 3981 
z
" transform="scale(0.015625)"/>
       </defs>
       <use xlink:href="#ArialMT-37"/>
       <use xlink:href="#ArialMT-2e" x="55.615234"/>
       <use xlink:href="#ArialMT-35" x="83.398438"/>
      </g>
     </g>
    </g>
    <g id="xtick_5">
     <g id="line2d_5">
      <path d="M 311.752507 339.84 
L 311.752507 7.2 
" clip-path="url(#p36072352cd)" style="fill: none; stroke: #ffffff; stroke-width: 0.8; stroke-linecap: round"/>
     </g>
     <g id="text_5">
      <!-- 10.0 -->
      <g style="fill: #262626" transform="translate(303.189694 354.438875) scale(0.088 -0.088)">
       <defs>
        <path id="ArialMT-31" d="M 2384 0 
L 1822 0 
L 1822 3584 
Q 1619 3391 1289 3197 
Q 959 3003 697 2906 
L 697 3450 
Q 1169 3672 1522 3987 
Q 1875 4303 2022 4600 
L 2384 4600 
L 2384 0 
z
" transform="scale(0.015625)"/>
       </defs>
       <use xlink:href="#ArialMT-31"/>
       <use xlink:href="#ArialMT-30" x="55.615234"/>
       <use xlink:href="#ArialMT-2e" x="111.230469"/>
       <use xlink:href="#ArialMT-30" x="139.013672"/>
      </g>
     </g>
    </g>
    <g id="xtick_6">
     <g id="line2d_6">
      <path d="M 375.193318 339.84 
L 375.193318 7.2 
" clip-path="url(#p36072352cd)" style="fill: none; stroke: #ffffff; stroke-width: 0.8; stroke-linecap: round"/>
     </g>
     <g id="text_6">
      <!-- 12.5 -->
      <g style="fill: #262626" transform="translate(366.630505 354.438875) scale(0.088 -0.088)">
       <use xlink:href="#ArialMT-31"/>
       <use xlink:href="#ArialMT-32" x="55.615234"/>
       <use xlink:href="#ArialMT-2e" x="111.230469"/>
       <use xlink:href="#ArialMT-35" x="139.013672"/>
      </g>
     </g>
    </g>
    <g id="xtick_7">
     <g id="line2d_7">
      <path d="M 438.634129 339.84 
L 438.634129 7.2 
" clip-path="url(#p36072352cd)" style="fill: none; stroke: #ffffff; stroke-width: 0.8; stroke-linecap: round"/>
     </g>
     <g id="text_7">
      <!-- 15.0 -->
      <g style="fill: #262626" transform="translate(430.071317 354.438875) scale(0.088 -0.088)">
       <use xlink:href="#ArialMT-31"/>
       <use xlink:href="#ArialMT-35" x="55.615234"/>
       <use xlink:href="#ArialMT-2e" x="111.230469"/>
       <use xlink:href="#ArialMT-30" x="139.013672"/>
      </g>
     </g>
    </g>
    <g id="xtick_8">
     <g id="line2d_8">
      <path d="M 502.074941 339.84 
L 502.074941 7.2 
" clip-path="url(#p36072352cd)" style="fill: none; stroke: #ffffff; stroke-width: 0.8; stroke-linecap: round"/>
     </g>
     <g id="text_8">
      <!-- 17.5 -->
      <g style="fill: #262626" transform="translate(493.512128 354.438875) scale(0.088 -0.088)">
       <use xlink:href="#ArialMT-31"/>
       <use xlink:href="#ArialMT-37" x="55.615234"/>
       <use xlink:href="#ArialMT-2e" x="111.230469"/>
       <use xlink:href="#ArialMT-35" x="139.013672"/>
      </g>
     </g>
    </g>
    <g id="xtick_9">
     <g id="line2d_9">
      <path d="M 565.515752 339.84 
L 565.515752 7.2 
" clip-path="url(#p36072352cd)" style="fill: none; stroke: #ffffff; stroke-width: 0.8; stroke-linecap: round"/>
     </g>
     <g id="text_9">
      <!-- 20.0 -->
      <g style="fill: #262626" transform="translate(556.952939 354.438875) scale(0.088 -0.088)">
       <use xlink:href="#ArialMT-32"/>
       <use xlink:href="#ArialMT-30" x="55.615234"/>
       <use xlink:href="#ArialMT-2e" x="111.230469"/>
       <use xlink:href="#ArialMT-30" x="139.013672"/>
      </g>
     </g>
    </g>
   </g>
   <g id="matplotlib.axis_2">
    <g id="ytick_1">
     <g id="line2d_10">
      <path d="M 32.625625 324.72 
L 590.625625 324.72 
" clip-path="url(#p36072352cd)" style="fill: none; stroke: #ffffff; stroke-width: 0.8; stroke-linecap: round"/>
     </g>
     <g id="text_10">
      <!-- 0.00 -->
      <g style="fill: #262626" transform="translate(7.2 327.869438) scale(0.088 -0.088)">
       <use xlink:href="#ArialMT-30"/>
       <use xlink:href="#ArialMT-2e" x="55.615234"/>
       <use xlink:href="#ArialMT-30" x="83.398438"/>
       <use xlink:href="#ArialMT-30" x="139.013672"/>
      </g>
     </g>
    </g>
    <g id="ytick_2">
     <g id="line2d_11">
      <path d="M 32.625625 264.24 
L 590.625625 264.24 
" clip-path="url(#p36072352cd)" style="fill: none; stroke: #ffffff; stroke-width: 0.8; stroke-linecap: round"/>
     </g>
     <g id="text_11">
      <!-- 0.05 -->
      <g style="fill: #262626" transform="translate(7.2 267.389437) scale(0.088 -0.088)">
       <use xlink:href="#ArialMT-30"/>
       <use xlink:href="#ArialMT-2e" x="55.615234"/>
       <use xlink:href="#ArialMT-30" x="83.398438"/>
       <use xlink:href="#ArialMT-35" x="139.013672"/>
      </g>
     </g>
    </g>
    <g id="ytick_3">
     <g id="line2d_12">
      <path d="M 32.625625 203.76 
L 590.625625 203.76 
" clip-path="url(#p36072352cd)" style="fill: none; stroke: #ffffff; stroke-width: 0.8; stroke-linecap: round"/>
     </g>
     <g id="text_12">
      <!-- 0.10 -->
      <g style="fill: #262626" transform="translate(7.2 206.909437) scale(0.088 -0.088)">
       <use xlink:href="#ArialMT-30"/>
       <use xlink:href="#ArialMT-2e" x="55.615234"/>
       <use xlink:href="#ArialMT-31" x="83.398438"/>
       <use xlink:href="#ArialMT-30" x="139.013672"/>
      </g>
     </g>
    </g>
    <g id="ytick_4">
     <g id="line2d_13">
      <path d="M 32.625625 143.28 
L 590.625625 143.28 
" clip-path="url(#p36072352cd)" style="fill: none; stroke: #ffffff; stroke-width: 0.8; stroke-linecap: round"/>
     </g>
     <g id="text_13">
      <!-- 0.15 -->
      <g style="fill: #262626" transform="translate(7.2 146.429437) scale(0.088 -0.088)">
       <use xlink:href="#ArialMT-30"/>
       <use xlink:href="#ArialMT-2e" x="55.615234"/>
       <use xlink:href="#ArialMT-31" x="83.398438"/>
       <use xlink:href="#ArialMT-35" x="139.013672"/>
      </g>
     </g>
    </g>
    <g id="ytick_5">
     <g id="line2d_14">
      <path d="M 32.625625 82.8 
L 590.625625 82.8 
" clip-path="url(#p36072352cd)" style="fill: none; stroke: #ffffff; stroke-width: 0.8; stroke-linecap: round"/>
     </g>
     <g id="text_14">
      <!-- 0.20 -->
      <g style="fill: #262626" transform="translate(7.2 85.949437) scale(0.088 -0.088)">
       <use xlink:href="#ArialMT-30"/>
       <use xlink:href="#ArialMT-2e" x="55.615234"/>
       <use xlink:href="#ArialMT-32" x="83.398438"/>
       <use xlink:href="#ArialMT-30" x="139.013672"/>
      </g>
     </g>
    </g>
    <g id="ytick_6">
     <g id="line2d_15">
      <path d="M 32.625625 22.32 
L 590.625625 22.32 
" clip-path="url(#p36072352cd)" style="fill: none; stroke: #ffffff; stroke-width: 0.8; stroke-linecap: round"/>
     </g>
     <g id="text_15">
      <!-- 0.25 -->
      <g style="fill: #262626" transform="translate(7.2 25.469437) scale(0.088 -0.088)">
       <use xlink:href="#ArialMT-30"/>
       <use xlink:href="#ArialMT-2e" x="55.615234"/>
       <use xlink:href="#ArialMT-32" x="83.398438"/>
       <use xlink:href="#ArialMT-35" x="139.013672"/>
      </g>
     </g>
    </g>
   </g>
   <g id="PolyCollection_1">
    <defs>
     <path id="m1ed3497d25" d="M 83.365586 -38.667875 
L 83.365586 -274.177232 
L 83.619349 -273.589194 
L 83.873112 -273.002624 
L 84.126876 -272.417519 
L 84.380639 -271.833875 
L 84.634402 -271.251688 
L 84.888165 -270.670954 
L 85.141929 -270.091671 
L 85.395692 -269.513834 
L 85.649455 -268.93744 
L 85.903218 -268.362485 
L 86.156982 -267.788966 
L 86.410745 -267.216878 
L 86.664508 -266.64622 
L 86.918271 -266.076986 
L 87.172035 -265.509173 
L 87.425798 -264.942778 
L 87.679561 -264.377797 
L 87.933324 -263.814227 
L 88.187088 -263.252064 
L 88.440851 -262.691305 
L 88.694614 -262.131946 
L 88.948377 -261.573983 
L 89.202141 -261.017414 
L 89.455904 -260.462235 
L 89.709667 -259.908441 
L 89.96343 -259.356031 
L 90.217194 -258.804999 
L 90.470957 -258.255344 
L 90.72472 -257.707061 
L 90.978483 -257.160147 
L 91.232246 -256.614598 
L 91.48601 -256.070412 
L 91.739773 -255.527584 
L 91.993536 -254.986112 
L 92.247299 -254.445992 
L 92.501063 -253.907221 
L 92.754826 -253.369794 
L 93.008589 -252.83371 
L 93.262352 -252.298964 
L 93.516116 -251.765553 
L 93.769879 -251.233475 
L 94.023642 -250.702724 
L 94.277405 -250.173299 
L 94.531169 -249.645196 
L 94.784932 -249.118411 
L 95.038695 -248.592942 
L 95.292458 -248.068785 
L 95.546222 -247.545937 
L 95.799985 -247.024394 
L 96.053748 -246.504153 
L 96.307511 -245.985211 
L 96.561275 -245.467565 
L 96.815038 -244.951212 
L 97.068801 -244.436147 
L 97.322564 -243.922369 
L 97.576328 -243.409874 
L 97.830091 -242.898658 
L 98.083854 -242.388719 
L 98.337617 -241.880053 
L 98.591381 -241.372657 
L 98.845144 -240.866528 
L 99.098907 -240.361663 
L 99.35267 -239.858058 
L 99.606434 -239.355711 
L 99.860197 -238.854618 
L 100.11396 -238.354776 
L 100.367723 -237.856182 
L 100.621487 -237.358833 
L 100.87525 -236.862726 
L 101.129013 -236.367858 
L 101.382776 -235.874225 
L 101.63654 -235.381825 
L 101.890303 -234.890655 
L 102.144066 -234.40071 
L 102.397829 -233.911989 
L 102.651593 -233.424489 
L 102.905356 -232.938205 
L 103.159119 -232.453136 
L 103.412882 -231.969278 
L 103.666646 -231.486628 
L 103.920409 -231.005183 
L 104.174172 -230.524941 
L 104.427935 -230.045897 
L 104.681698 -229.568049 
L 104.935462 -229.091395 
L 105.189225 -228.615931 
L 105.442988 -228.141654 
L 105.696751 -227.668561 
L 105.950515 -227.196649 
L 106.204278 -226.725916 
L 106.458041 -226.256358 
L 106.711804 -225.787973 
L 106.965568 -225.320757 
L 107.219331 -224.854707 
L 107.473094 -224.389822 
L 107.726857 -223.926097 
L 107.980621 -223.463529 
L 108.234384 -223.002117 
L 108.488147 -222.541857 
L 108.74191 -222.082746 
L 108.995674 -221.624782 
L 109.249437 -221.167961 
L 109.5032 -220.712281 
L 109.756963 -220.257738 
L 110.010727 -219.80433 
L 110.26449 -219.352055 
L 110.518253 -218.900909 
L 110.772016 -218.450889 
L 111.02578 -218.001993 
L 111.279543 -217.554217 
L 111.533306 -217.10756 
L 111.787069 -216.662018 
L 112.040833 -216.217588 
L 112.294596 -215.774268 
L 112.548359 -215.332055 
L 112.802122 -214.890947 
L 113.055886 -214.450939 
L 113.309649 -214.01203 
L 113.563412 -213.574217 
L 113.817175 -213.137498 
L 114.070939 -212.701868 
L 114.324702 -212.267327 
L 114.578465 -211.83387 
L 114.832228 -211.401496 
L 115.085992 -210.970201 
L 115.339755 -210.539983 
L 115.593518 -210.11084 
L 115.847281 -209.682768 
L 116.101045 -209.255764 
L 116.354808 -208.829827 
L 116.608571 -208.404954 
L 116.862334 -207.981141 
L 117.116098 -207.558387 
L 117.369861 -207.136688 
L 117.623624 -206.716042 
L 117.877387 -206.296446 
L 118.13115 -205.877898 
L 118.384914 -205.460395 
L 118.638677 -205.043934 
L 118.89244 -204.628514 
L 119.146203 -204.21413 
L 119.399967 -203.800782 
L 119.65373 -203.388465 
L 119.907493 -202.977178 
L 120.161256 -202.566918 
L 120.41502 -202.157682 
L 120.668783 -201.749468 
L 120.922546 -201.342273 
L 121.176309 -200.936095 
L 121.430073 -200.530931 
L 121.683836 -200.126779 
L 121.937599 -199.723636 
L 122.191362 -199.321499 
L 122.445126 -198.920367 
L 122.698889 -198.520236 
L 122.952652 -198.121104 
L 123.206415 -197.722969 
L 123.460179 -197.325828 
L 123.713942 -196.929678 
L 123.967705 -196.534518 
L 124.221468 -196.140344 
L 124.475232 -195.747155 
L 124.728995 -195.354947 
L 124.982758 -194.963719 
L 125.236521 -194.573467 
L 125.490285 -194.18419 
L 125.744048 -193.795885 
L 125.997811 -193.408549 
L 126.251574 -193.02218 
L 126.505338 -192.636777 
L 126.759101 -192.252335 
L 127.012864 -191.868853 
L 127.266627 -191.486329 
L 127.520391 -191.10476 
L 127.774154 -190.724144 
L 128.027917 -190.344478 
L 128.28168 -189.96576 
L 128.535444 -189.587988 
L 128.789207 -189.211159 
L 129.04297 -188.835271 
L 129.296733 -188.460321 
L 129.550497 -188.086308 
L 129.80426 -187.713228 
L 130.058023 -187.34108 
L 130.311786 -186.969862 
L 130.56555 -186.59957 
L 130.819313 -186.230202 
L 131.073076 -185.861757 
L 131.326839 -185.494232 
L 131.580602 -185.127625 
L 131.834366 -184.761933 
L 132.088129 -184.397154 
L 132.341892 -184.033285 
L 132.595655 -183.670326 
L 132.849419 -183.308272 
L 133.103182 -182.947123 
L 133.356945 -182.586875 
L 133.610708 -182.227527 
L 133.864472 -181.869076 
L 134.118235 -181.511521 
L 134.371998 -181.154857 
L 134.625761 -180.799085 
L 134.879525 -180.444201 
L 135.133288 -180.090203 
L 135.387051 -179.737088 
L 135.640814 -179.384856 
L 135.894578 -179.033503 
L 136.148341 -178.683027 
L 136.402104 -178.333426 
L 136.655867 -177.984698 
L 136.909631 -177.636841 
L 137.163394 -177.289853 
L 137.417157 -176.943731 
L 137.67092 -176.598473 
L 137.924684 -176.254077 
L 138.178447 -175.910541 
L 138.43221 -175.567863 
L 138.685973 -175.22604 
L 138.939737 -174.885071 
L 139.1935 -174.544954 
L 139.447263 -174.205685 
L 139.701026 -173.867264 
L 139.95479 -173.529688 
L 140.208553 -173.192954 
L 140.462316 -172.857062 
L 140.716079 -172.522008 
L 140.969843 -172.18779 
L 141.223606 -171.854407 
L 141.477369 -171.521857 
L 141.731132 -171.190137 
L 141.984896 -170.859245 
L 142.238659 -170.529179 
L 142.492422 -170.199938 
L 142.746185 -169.871518 
L 142.999949 -169.543919 
L 143.253712 -169.217137 
L 143.507475 -168.891172 
L 143.761238 -168.56602 
L 144.015002 -168.24168 
L 144.268765 -167.91815 
L 144.522528 -167.595428 
L 144.776291 -167.273512 
L 145.030054 -166.952399 
L 145.283818 -166.632089 
L 145.537581 -166.312578 
L 145.791344 -165.993865 
L 146.045107 -165.675947 
L 146.298871 -165.358823 
L 146.552634 -165.042492 
L 146.806397 -164.72695 
L 147.06016 -164.412196 
L 147.313924 -164.098227 
L 147.567687 -163.785043 
L 147.82145 -163.472641 
L 148.075213 -163.161019 
L 148.328977 -162.850175 
L 148.58274 -162.540107 
L 148.836503 -162.230813 
L 149.090266 -161.922291 
L 149.34403 -161.61454 
L 149.597793 -161.307557 
L 149.851556 -161.001341 
L 150.105319 -160.695889 
L 150.359083 -160.3912 
L 150.612846 -160.087272 
L 150.866609 -159.784103 
L 151.120372 -159.48169 
L 151.374136 -159.180033 
L 151.627899 -158.879129 
L 151.881662 -158.578976 
L 152.135425 -158.279573 
L 152.389189 -157.980917 
L 152.642952 -157.683007 
L 152.896715 -157.385841 
L 153.150478 -157.089417 
L 153.404242 -156.793732 
L 153.658005 -156.498787 
L 153.911768 -156.204577 
L 154.165531 -155.911102 
L 154.419295 -155.61836 
L 154.673058 -155.326349 
L 154.926821 -155.035068 
L 155.180584 -154.744513 
L 155.434348 -154.454684 
L 155.688111 -154.165578 
L 155.941874 -153.877195 
L 156.195637 -153.589531 
L 156.449401 -153.302586 
L 156.703164 -153.016357 
L 156.956927 -152.730843 
L 157.21069 -152.446041 
L 157.464454 -152.161951 
L 157.718217 -151.87857 
L 157.97198 -151.595897 
L 158.225743 -151.31393 
L 158.479506 -151.032666 
L 158.73327 -150.752105 
L 158.987033 -150.472245 
L 159.240796 -150.193083 
L 159.494559 -149.914618 
L 159.748323 -149.636849 
L 160.002086 -149.359773 
L 160.255849 -149.083388 
L 160.509612 -148.807694 
L 160.763376 -148.532689 
L 161.017139 -148.25837 
L 161.270902 -147.984736 
L 161.524665 -147.711785 
L 161.778429 -147.439516 
L 162.032192 -147.167926 
L 162.285955 -146.897015 
L 162.539718 -146.62678 
L 162.793482 -146.35722 
L 163.047245 -146.088333 
L 163.301008 -145.820117 
L 163.554771 -145.552571 
L 163.808535 -145.285693 
L 164.062298 -145.019481 
L 164.316061 -144.753934 
L 164.569824 -144.48905 
L 164.823588 -144.224828 
L 165.077351 -143.961265 
L 165.331114 -143.69836 
L 165.584877 -143.436112 
L 165.838641 -143.174519 
L 166.092404 -142.913578 
L 166.346167 -142.65329 
L 166.59993 -142.393651 
L 166.853694 -142.13466 
L 167.107457 -141.876316 
L 167.36122 -141.618617 
L 167.614983 -141.361562 
L 167.868747 -141.105148 
L 168.12251 -140.849375 
L 168.376273 -140.59424 
L 168.630036 -140.339743 
L 168.8838 -140.08588 
L 169.137563 -139.832652 
L 169.391326 -139.580056 
L 169.645089 -139.328091 
L 169.898853 -139.076754 
L 170.152616 -138.826046 
L 170.406379 -138.575963 
L 170.660142 -138.326505 
L 170.913906 -138.077669 
L 171.167669 -137.829455 
L 171.421432 -137.581861 
L 171.675195 -137.334885 
L 171.928958 -137.088525 
L 172.182722 -136.842781 
L 172.436485 -136.59765 
L 172.690248 -136.353132 
L 172.944011 -136.109224 
L 173.197775 -135.865924 
L 173.451538 -135.623233 
L 173.705301 -135.381147 
L 173.959064 -135.139666 
L 174.212828 -134.898788 
L 174.466591 -134.658511 
L 174.720354 -134.418834 
L 174.974117 -134.179756 
L 175.227881 -133.941274 
L 175.481644 -133.703388 
L 175.735407 -133.466096 
L 175.98917 -133.229397 
L 176.242934 -132.993288 
L 176.496697 -132.757769 
L 176.75046 -132.522838 
L 177.004223 -132.288494 
L 177.257987 -132.054734 
L 177.51175 -131.821559 
L 177.765513 -131.588966 
L 178.019276 -131.356953 
L 178.27304 -131.12552 
L 178.526803 -130.894664 
L 178.780566 -130.664385 
L 179.034329 -130.434681 
L 179.288093 -130.205551 
L 179.541856 -129.976992 
L 179.795619 -129.749005 
L 180.049382 -129.521586 
L 180.303146 -129.294736 
L 180.556909 -129.068451 
L 180.810672 -128.842732 
L 181.064435 -128.617577 
L 181.318199 -128.392983 
L 181.571962 -128.168951 
L 181.825725 -127.945477 
L 182.079488 -127.722562 
L 182.333252 -127.500204 
L 182.587015 -127.2784 
L 182.840778 -127.05715 
L 183.094541 -126.836453 
L 183.348305 -126.616307 
L 183.602068 -126.396711 
L 183.855831 -126.177663 
L 184.109594 -125.959161 
L 184.363358 -125.741206 
L 184.617121 -125.523794 
L 184.870884 -125.306926 
L 185.124647 -125.090598 
L 185.37841 -124.874812 
L 185.632174 -124.659563 
L 185.885937 -124.444853 
L 186.1397 -124.230678 
L 186.393463 -124.017038 
L 186.647227 -123.803932 
L 186.90099 -123.591357 
L 187.154753 -123.379314 
L 187.408516 -123.1678 
L 187.66228 -122.956814 
L 187.916043 -122.746355 
L 188.169806 -122.536421 
L 188.423569 -122.327011 
L 188.677333 -122.118125 
L 188.931096 -121.90976 
L 189.184859 -121.701915 
L 189.438622 -121.494589 
L 189.692386 -121.287781 
L 189.946149 -121.081489 
L 190.199912 -120.875713 
L 190.453675 -120.67045 
L 190.707439 -120.465699 
L 190.961202 -120.26146 
L 191.214965 -120.057731 
L 191.468728 -119.85451 
L 191.722492 -119.651797 
L 191.976255 -119.44959 
L 192.230018 -119.247888 
L 192.483781 -119.04669 
L 192.737545 -118.845994 
L 192.991308 -118.645799 
L 193.245071 -118.446104 
L 193.498834 -118.246907 
L 193.752598 -118.048208 
L 194.006361 -117.850005 
L 194.260124 -117.652297 
L 194.513887 -117.455083 
L 194.767651 -117.258361 
L 195.021414 -117.06213 
L 195.275177 -116.866389 
L 195.52894 -116.671137 
L 195.782704 -116.476372 
L 196.036467 -116.282094 
L 196.29023 -116.088301 
L 196.543993 -115.894991 
L 196.797757 -115.702165 
L 197.05152 -115.50982 
L 197.305283 -115.317955 
L 197.559046 -115.126569 
L 197.81281 -114.935661 
L 198.066573 -114.745229 
L 198.320336 -114.555274 
L 198.574099 -114.365792 
L 198.827862 -114.176784 
L 199.081626 -113.988247 
L 199.335389 -113.800181 
L 199.589152 -113.612585 
L 199.842915 -113.425457 
L 200.096679 -113.238797 
L 200.350442 -113.052602 
L 200.604205 -112.866873 
L 200.857968 -112.681607 
L 201.111732 -112.496804 
L 201.365495 -112.312462 
L 201.619258 -112.128581 
L 201.873021 -111.945158 
L 202.126785 -111.762194 
L 202.380548 -111.579686 
L 202.634311 -111.397634 
L 202.888074 -111.216037 
L 203.141838 -111.034893 
L 203.395601 -110.854201 
L 203.649364 -110.673961 
L 203.903127 -110.494171 
L 204.156891 -110.314829 
L 204.410654 -110.135936 
L 204.664417 -109.957489 
L 204.91818 -109.779487 
L 205.171944 -109.60193 
L 205.425707 -109.424816 
L 205.67947 -109.248145 
L 205.933233 -109.071915 
L 206.186997 -108.896124 
L 206.44076 -108.720773 
L 206.694523 -108.54586 
L 206.948286 -108.371383 
L 207.20205 -108.197342 
L 207.455813 -108.023735 
L 207.709576 -107.850562 
L 207.963339 -107.677821 
L 208.217103 -107.505512 
L 208.470866 -107.333633 
L 208.724629 -107.162183 
L 208.978392 -106.991161 
L 209.232156 -106.820566 
L 209.485919 -106.650397 
L 209.739682 -106.480653 
L 209.993445 -106.311333 
L 210.247209 -106.142435 
L 210.247209 -38.667875 
L 210.247209 -38.667875 
L 209.993445 -38.667875 
L 209.739682 -38.667875 
L 209.485919 -38.667875 
L 209.232156 -38.667875 
L 208.978392 -38.667875 
L 208.724629 -38.667875 
L 208.470866 -38.667875 
L 208.217103 -38.667875 
L 207.963339 -38.667875 
L 207.709576 -38.667875 
L 207.455813 -38.667875 
L 207.20205 -38.667875 
L 206.948286 -38.667875 
L 206.694523 -38.667875 
L 206.44076 -38.667875 
L 206.186997 -38.667875 
L 205.933233 -38.667875 
L 205.67947 -38.667875 
L 205.425707 -38.667875 
L 205.171944 -38.667875 
L 204.91818 -38.667875 
L 204.664417 -38.667875 
L 204.410654 -38.667875 
L 204.156891 -38.667875 
L 203.903127 -38.667875 
L 203.649364 -38.667875 
L 203.395601 -38.667875 
L 203.141838 -38.667875 
L 202.888074 -38.667875 
L 202.634311 -38.667875 
L 202.380548 -38.667875 
L 202.126785 -38.667875 
L 201.873021 -38.667875 
L 201.619258 -38.667875 
L 201.365495 -38.667875 
L 201.111732 -38.667875 
L 200.857968 -38.667875 
L 200.604205 -38.667875 
L 200.350442 -38.667875 
L 200.096679 -38.667875 
L 199.842915 -38.667875 
L 199.589152 -38.667875 
L 199.335389 -38.667875 
L 199.081626 -38.667875 
L 198.827862 -38.667875 
L 198.574099 -38.667875 
L 198.320336 -38.667875 
L 198.066573 -38.667875 
L 197.81281 -38.667875 
L 197.559046 -38.667875 
L 197.305283 -38.667875 
L 197.05152 -38.667875 
L 196.797757 -38.667875 
L 196.543993 -38.667875 
L 196.29023 -38.667875 
L 196.036467 -38.667875 
L 195.782704 -38.667875 
L 195.52894 -38.667875 
L 195.275177 -38.667875 
L 195.021414 -38.667875 
L 194.767651 -38.667875 
L 194.513887 -38.667875 
L 194.260124 -38.667875 
L 194.006361 -38.667875 
L 193.752598 -38.667875 
L 193.498834 -38.667875 
L 193.245071 -38.667875 
L 192.991308 -38.667875 
L 192.737545 -38.667875 
L 192.483781 -38.667875 
L 192.230018 -38.667875 
L 191.976255 -38.667875 
L 191.722492 -38.667875 
L 191.468728 -38.667875 
L 191.214965 -38.667875 
L 190.961202 -38.667875 
L 190.707439 -38.667875 
L 190.453675 -38.667875 
L 190.199912 -38.667875 
L 189.946149 -38.667875 
L 189.692386 -38.667875 
L 189.438622 -38.667875 
L 189.184859 -38.667875 
L 188.931096 -38.667875 
L 188.677333 -38.667875 
L 188.423569 -38.667875 
L 188.169806 -38.667875 
L 187.916043 -38.667875 
L 187.66228 -38.667875 
L 187.408516 -38.667875 
L 187.154753 -38.667875 
L 186.90099 -38.667875 
L 186.647227 -38.667875 
L 186.393463 -38.667875 
L 186.1397 -38.667875 
L 185.885937 -38.667875 
L 185.632174 -38.667875 
L 185.37841 -38.667875 
L 185.124647 -38.667875 
L 184.870884 -38.667875 
L 184.617121 -38.667875 
L 184.363358 -38.667875 
L 184.109594 -38.667875 
L 183.855831 -38.667875 
L 183.602068 -38.667875 
L 183.348305 -38.667875 
L 183.094541 -38.667875 
L 182.840778 -38.667875 
L 182.587015 -38.667875 
L 182.333252 -38.667875 
L 182.079488 -38.667875 
L 181.825725 -38.667875 
L 181.571962 -38.667875 
L 181.318199 -38.667875 
L 181.064435 -38.667875 
L 180.810672 -38.667875 
L 180.556909 -38.667875 
L 180.303146 -38.667875 
L 180.049382 -38.667875 
L 179.795619 -38.667875 
L 179.541856 -38.667875 
L 179.288093 -38.667875 
L 179.034329 -38.667875 
L 178.780566 -38.667875 
L 178.526803 -38.667875 
L 178.27304 -38.667875 
L 178.019276 -38.667875 
L 177.765513 -38.667875 
L 177.51175 -38.667875 
L 177.257987 -38.667875 
L 177.004223 -38.667875 
L 176.75046 -38.667875 
L 176.496697 -38.667875 
L 176.242934 -38.667875 
L 175.98917 -38.667875 
L 175.735407 -38.667875 
L 175.481644 -38.667875 
L 175.227881 -38.667875 
L 174.974117 -38.667875 
L 174.720354 -38.667875 
L 174.466591 -38.667875 
L 174.212828 -38.667875 
L 173.959064 -38.667875 
L 173.705301 -38.667875 
L 173.451538 -38.667875 
L 173.197775 -38.667875 
L 172.944011 -38.667875 
L 172.690248 -38.667875 
L 172.436485 -38.667875 
L 172.182722 -38.667875 
L 171.928958 -38.667875 
L 171.675195 -38.667875 
L 171.421432 -38.667875 
L 171.167669 -38.667875 
L 170.913906 -38.667875 
L 170.660142 -38.667875 
L 170.406379 -38.667875 
L 170.152616 -38.667875 
L 169.898853 -38.667875 
L 169.645089 -38.667875 
L 169.391326 -38.667875 
L 169.137563 -38.667875 
L 168.8838 -38.667875 
L 168.630036 -38.667875 
L 168.376273 -38.667875 
L 168.12251 -38.667875 
L 167.868747 -38.667875 
L 167.614983 -38.667875 
L 167.36122 -38.667875 
L 167.107457 -38.667875 
L 166.853694 -38.667875 
L 166.59993 -38.667875 
L 166.346167 -38.667875 
L 166.092404 -38.667875 
L 165.838641 -38.667875 
L 165.584877 -38.667875 
L 165.331114 -38.667875 
L 165.077351 -38.667875 
L 164.823588 -38.667875 
L 164.569824 -38.667875 
L 164.316061 -38.667875 
L 164.062298 -38.667875 
L 163.808535 -38.667875 
L 163.554771 -38.667875 
L 163.301008 -38.667875 
L 163.047245 -38.667875 
L 162.793482 -38.667875 
L 162.539718 -38.667875 
L 162.285955 -38.667875 
L 162.032192 -38.667875 
L 161.778429 -38.667875 
L 161.524665 -38.667875 
L 161.270902 -38.667875 
L 161.017139 -38.667875 
L 160.763376 -38.667875 
L 160.509612 -38.667875 
L 160.255849 -38.667875 
L 160.002086 -38.667875 
L 159.748323 -38.667875 
L 159.494559 -38.667875 
L 159.240796 -38.667875 
L 158.987033 -38.667875 
L 158.73327 -38.667875 
L 158.479506 -38.667875 
L 158.225743 -38.667875 
L 157.97198 -38.667875 
L 157.718217 -38.667875 
L 157.464454 -38.667875 
L 157.21069 -38.667875 
L 156.956927 -38.667875 
L 156.703164 -38.667875 
L 156.449401 -38.667875 
L 156.195637 -38.667875 
L 155.941874 -38.667875 
L 155.688111 -38.667875 
L 155.434348 -38.667875 
L 155.180584 -38.667875 
L 154.926821 -38.667875 
L 154.673058 -38.667875 
L 154.419295 -38.667875 
L 154.165531 -38.667875 
L 153.911768 -38.667875 
L 153.658005 -38.667875 
L 153.404242 -38.667875 
L 153.150478 -38.667875 
L 152.896715 -38.667875 
L 152.642952 -38.667875 
L 152.389189 -38.667875 
L 152.135425 -38.667875 
L 151.881662 -38.667875 
L 151.627899 -38.667875 
L 151.374136 -38.667875 
L 151.120372 -38.667875 
L 150.866609 -38.667875 
L 150.612846 -38.667875 
L 150.359083 -38.667875 
L 150.105319 -38.667875 
L 149.851556 -38.667875 
L 149.597793 -38.667875 
L 149.34403 -38.667875 
L 149.090266 -38.667875 
L 148.836503 -38.667875 
L 148.58274 -38.667875 
L 148.328977 -38.667875 
L 148.075213 -38.667875 
L 147.82145 -38.667875 
L 147.567687 -38.667875 
L 147.313924 -38.667875 
L 147.06016 -38.667875 
L 146.806397 -38.667875 
L 146.552634 -38.667875 
L 146.298871 -38.667875 
L 146.045107 -38.667875 
L 145.791344 -38.667875 
L 145.537581 -38.667875 
L 145.283818 -38.667875 
L 145.030054 -38.667875 
L 144.776291 -38.667875 
L 144.522528 -38.667875 
L 144.268765 -38.667875 
L 144.015002 -38.667875 
L 143.761238 -38.667875 
L 143.507475 -38.667875 
L 143.253712 -38.667875 
L 142.999949 -38.667875 
L 142.746185 -38.667875 
L 142.492422 -38.667875 
L 142.238659 -38.667875 
L 141.984896 -38.667875 
L 141.731132 -38.667875 
L 141.477369 -38.667875 
L 141.223606 -38.667875 
L 140.969843 -38.667875 
L 140.716079 -38.667875 
L 140.462316 -38.667875 
L 140.208553 -38.667875 
L 139.95479 -38.667875 
L 139.701026 -38.667875 
L 139.447263 -38.667875 
L 139.1935 -38.667875 
L 138.939737 -38.667875 
L 138.685973 -38.667875 
L 138.43221 -38.667875 
L 138.178447 -38.667875 
L 137.924684 -38.667875 
L 137.67092 -38.667875 
L 137.417157 -38.667875 
L 137.163394 -38.667875 
L 136.909631 -38.667875 
L 136.655867 -38.667875 
L 136.402104 -38.667875 
L 136.148341 -38.667875 
L 135.894578 -38.667875 
L 135.640814 -38.667875 
L 135.387051 -38.667875 
L 135.133288 -38.667875 
L 134.879525 -38.667875 
L 134.625761 -38.667875 
L 134.371998 -38.667875 
L 134.118235 -38.667875 
L 133.864472 -38.667875 
L 133.610708 -38.667875 
L 133.356945 -38.667875 
L 133.103182 -38.667875 
L 132.849419 -38.667875 
L 132.595655 -38.667875 
L 132.341892 -38.667875 
L 132.088129 -38.667875 
L 131.834366 -38.667875 
L 131.580602 -38.667875 
L 131.326839 -38.667875 
L 131.073076 -38.667875 
L 130.819313 -38.667875 
L 130.56555 -38.667875 
L 130.311786 -38.667875 
L 130.058023 -38.667875 
L 129.80426 -38.667875 
L 129.550497 -38.667875 
L 129.296733 -38.667875 
L 129.04297 -38.667875 
L 128.789207 -38.667875 
L 128.535444 -38.667875 
L 128.28168 -38.667875 
L 128.027917 -38.667875 
L 127.774154 -38.667875 
L 127.520391 -38.667875 
L 127.266627 -38.667875 
L 127.012864 -38.667875 
L 126.759101 -38.667875 
L 126.505338 -38.667875 
L 126.251574 -38.667875 
L 125.997811 -38.667875 
L 125.744048 -38.667875 
L 125.490285 -38.667875 
L 125.236521 -38.667875 
L 124.982758 -38.667875 
L 124.728995 -38.667875 
L 124.475232 -38.667875 
L 124.221468 -38.667875 
L 123.967705 -38.667875 
L 123.713942 -38.667875 
L 123.460179 -38.667875 
L 123.206415 -38.667875 
L 122.952652 -38.667875 
L 122.698889 -38.667875 
L 122.445126 -38.667875 
L 122.191362 -38.667875 
L 121.937599 -38.667875 
L 121.683836 -38.667875 
L 121.430073 -38.667875 
L 121.176309 -38.667875 
L 120.922546 -38.667875 
L 120.668783 -38.667875 
L 120.41502 -38.667875 
L 120.161256 -38.667875 
L 119.907493 -38.667875 
L 119.65373 -38.667875 
L 119.399967 -38.667875 
L 119.146203 -38.667875 
L 118.89244 -38.667875 
L 118.638677 -38.667875 
L 118.384914 -38.667875 
L 118.13115 -38.667875 
L 117.877387 -38.667875 
L 117.623624 -38.667875 
L 117.369861 -38.667875 
L 117.116098 -38.667875 
L 116.862334 -38.667875 
L 116.608571 -38.667875 
L 116.354808 -38.667875 
L 116.101045 -38.667875 
L 115.847281 -38.667875 
L 115.593518 -38.667875 
L 115.339755 -38.667875 
L 115.085992 -38.667875 
L 114.832228 -38.667875 
L 114.578465 -38.667875 
L 114.324702 -38.667875 
L 114.070939 -38.667875 
L 113.817175 -38.667875 
L 113.563412 -38.667875 
L 113.309649 -38.667875 
L 113.055886 -38.667875 
L 112.802122 -38.667875 
L 112.548359 -38.667875 
L 112.294596 -38.667875 
L 112.040833 -38.667875 
L 111.787069 -38.667875 
L 111.533306 -38.667875 
L 111.279543 -38.667875 
L 111.02578 -38.667875 
L 110.772016 -38.667875 
L 110.518253 -38.667875 
L 110.26449 -38.667875 
L 110.010727 -38.667875 
L 109.756963 -38.667875 
L 109.5032 -38.667875 
L 109.249437 -38.667875 
L 108.995674 -38.667875 
L 108.74191 -38.667875 
L 108.488147 -38.667875 
L 108.234384 -38.667875 
L 107.980621 -38.667875 
L 107.726857 -38.667875 
L 107.473094 -38.667875 
L 107.219331 -38.667875 
L 106.965568 -38.667875 
L 106.711804 -38.667875 
L 106.458041 -38.667875 
L 106.204278 -38.667875 
L 105.950515 -38.667875 
L 105.696751 -38.667875 
L 105.442988 -38.667875 
L 105.189225 -38.667875 
L 104.935462 -38.667875 
L 104.681698 -38.667875 
L 104.427935 -38.667875 
L 104.174172 -38.667875 
L 103.920409 -38.667875 
L 103.666646 -38.667875 
L 103.412882 -38.667875 
L 103.159119 -38.667875 
L 102.905356 -38.667875 
L 102.651593 -38.667875 
L 102.397829 -38.667875 
L 102.144066 -38.667875 
L 101.890303 -38.667875 
L 101.63654 -38.667875 
L 101.382776 -38.667875 
L 101.129013 -38.667875 
L 100.87525 -38.667875 
L 100.621487 -38.667875 
L 100.367723 -38.667875 
L 100.11396 -38.667875 
L 99.860197 -38.667875 
L 99.606434 -38.667875 
L 99.35267 -38.667875 
L 99.098907 -38.667875 
L 98.845144 -38.667875 
L 98.591381 -38.667875 
L 98.337617 -38.667875 
L 98.083854 -38.667875 
L 97.830091 -38.667875 
L 97.576328 -38.667875 
L 97.322564 -38.667875 
L 97.068801 -38.667875 
L 96.815038 -38.667875 
L 96.561275 -38.667875 
L 96.307511 -38.667875 
L 96.053748 -38.667875 
L 95.799985 -38.667875 
L 95.546222 -38.667875 
L 95.292458 -38.667875 
L 95.038695 -38.667875 
L 94.784932 -38.667875 
L 94.531169 -38.667875 
L 94.277405 -38.667875 
L 94.023642 -38.667875 
L 93.769879 -38.667875 
L 93.516116 -38.667875 
L 93.262352 -38.667875 
L 93.008589 -38.667875 
L 92.754826 -38.667875 
L 92.501063 -38.667875 
L 92.247299 -38.667875 
L 91.993536 -38.667875 
L 91.739773 -38.667875 
L 91.48601 -38.667875 
L 91.232246 -38.667875 
L 90.978483 -38.667875 
L 90.72472 -38.667875 
L 90.470957 -38.667875 
L 90.217194 -38.667875 
L 89.96343 -38.667875 
L 89.709667 -38.667875 
L 89.455904 -38.667875 
L 89.202141 -38.667875 
L 88.948377 -38.667875 
L 88.694614 -38.667875 
L 88.440851 -38.667875 
L 88.187088 -38.667875 
L 87.933324 -38.667875 
L 87.679561 -38.667875 
L 87.425798 -38.667875 
L 87.172035 -38.667875 
L 86.918271 -38.667875 
L 86.664508 -38.667875 
L 86.410745 -38.667875 
L 86.156982 -38.667875 
L 85.903218 -38.667875 
L 85.649455 -38.667875 
L 85.395692 -38.667875 
L 85.141929 -38.667875 
L 84.888165 -38.667875 
L 84.634402 -38.667875 
L 84.380639 -38.667875 
L 84.126876 -38.667875 
L 83.873112 -38.667875 
L 83.619349 -38.667875 
L 83.365586 -38.667875 
z
" style="stroke: #bfbfbf; stroke-width: 0.8"/>
    </defs>
    <g clip-path="url(#p36072352cd)">
     <use xlink:href="#m1ed3497d25" x="0" y="363.387875" style="fill: #bfbfbf; stroke: #bfbfbf; stroke-width: 0.8"/>
    </g>
   </g>
   <g id="line2d_16">
    <path d="M 57.989261 22.32 
L 62.810763 36.348193 
L 67.632265 49.725625 
L 72.453766 62.482484 
L 77.529031 75.271958 
L 82.604296 87.437683 
L 87.679561 99.010078 
L 92.754826 110.018081 
L 97.830091 120.489217 
L 102.905356 130.44967 
L 107.980621 139.924346 
L 113.055886 148.936936 
L 118.13115 157.509977 
L 123.206415 165.664906 
L 128.535444 173.799887 
L 133.864472 181.518799 
L 139.1935 188.842921 
L 144.522528 195.792447 
L 149.851556 202.386534 
L 155.434348 208.933191 
L 161.017139 215.129505 
L 166.59993 220.994224 
L 172.182722 226.545094 
L 178.019276 232.030922 
L 183.855831 237.210212 
L 189.692386 242.100094 
L 195.782704 246.911503 
L 201.873021 251.442717 
L 208.217103 255.882363 
L 214.561184 260.053025 
L 221.159028 264.122681 
L 227.756872 267.936224 
L 234.60848 271.642631 
L 241.713851 275.230989 
L 249.072985 278.691966 
L 256.685882 282.017791 
L 264.29878 285.103304 
L 272.16544 288.057639 
L 280.539627 290.960879 
L 289.167578 293.711832 
L 298.049291 296.309732 
L 307.438531 298.819801 
L 317.081535 301.16706 
L 327.232065 303.408419 
L 337.890121 305.532661 
L 349.055704 307.531327 
L 360.982576 309.436854 
L 373.670738 311.232671 
L 387.12019 312.906409 
L 401.330932 314.449757 
L 416.81049 315.902392 
L 433.305101 317.224891 
L 451.322292 318.443888 
L 471.115825 319.555798 
L 492.939464 320.554857 
L 517.300735 321.443582 
L 544.960929 322.225095 
L 565.261989 322.677345 
L 565.261989 322.677345 
" clip-path="url(#p36072352cd)" style="fill: none; stroke: #0173b2; stroke-width: 1.2; stroke-linecap: round"/>
   </g>
   <g id="patch_3">
    <path d="M 32.625625 339.84 
L 32.625625 7.2 
" style="fill: none; stroke: #ffffff; stroke-linejoin: miter; stroke-linecap: square"/>
   </g>
   <g id="patch_4">
    <path d="M 590.625625 339.84 
L 590.625625 7.2 
" style="fill: none; stroke: #ffffff; stroke-linejoin: miter; stroke-linecap: square"/>
   </g>
   <g id="patch_5">
    <path d="M 32.625625 339.84 
L 590.625625 339.84 
" style="fill: none; stroke: #ffffff; stroke-linejoin: miter; stroke-linecap: square"/>
   </g>
   <g id="patch_6">
    <path d="M 32.625625 7.2 
L 590.625625 7.2 
" style="fill: none; stroke: #ffffff; stroke-linejoin: miter; stroke-linecap: square"/>
   </g>
  </g>
 </g>
 <defs>
  <clipPath id="p36072352cd">
   <rect x="32.625625" y="7.2" width="558" height="332.64"/>
  </clipPath>
 </defs>
</svg>