<?xml version="1.0" encoding="utf-8" standalone="no"?>
<!DOCTYPE svg PUBLIC "-//W3C//DTD SVG 1.1//EN"
  "http://www.w3.org/Graphics/SVG/1.1/DTD/svg11.dtd">
<svg xmlns:xlink="http://www.w3.org/1999/xlink" width="603.614687pt" height="366.599844pt" viewBox="0 0 603.614687 366.599844" xmlns="http://www.w3.org/2000/svg" version="1.1">
 <metadata>
  <rdf:RDF xmlns:dc="http://purl.org/dc/elements/1.1/" xmlns:cc="http://creativecommons.org/ns#" xmlns:rdf="http://www.w3.org/1999/02/22-rdf-syntax-ns#">
   <cc:Work>
    <dc:type rdf:resource="http://purl.org/dc/dcmitype/StillImage"/>
    <dc:date>2023-05-08T07:20:56.439971</dc:date>
    <dc:format>image/svg+xml</dc:format>
    <dc:creator>
     <cc:Agent>
      <dc:title>Matplotlib v3.7.1, https://matplotlib.org/</dc:title>
     </cc:Agent>
    </dc:creator>
   </cc:Work>
  </rdf:RDF>
 </metadata>
 <defs>
  <style type="text/css">*{stroke-linejoin: round; stroke-linecap: butt}</style>
 </defs>
 <g id="figure_1">
  <g id="patch_1">
   <path d="M 0 366.599844 
L 603.614687 366.599844 
L 603.614687 0 
L 0 0 
z
" style="fill: #ffffff"/>
  </g>
  <g id="axes_1">
   <g id="patch_2">
    <path d="M 38.414687 339.84 
L 596.414688 339.84 
L 596.414688 7.2 
L 38.414687 7.2 
z
" style="fill: #eaeaf2"/>
   </g>
   <g id="matplotlib.axis_1">
    <g id="xtick_1">
     <g id="line2d_1">
      <path d="M 100.302099 339.84 
L 100.302099 7.2 
" clip-path="url(#p5d05d62a7e)" style="fill: none; stroke: #ffffff; stroke-linecap: round"/>
     </g>
     <g id="text_1">
      <!-- −1.5 -->
      <g style="fill: #262626" transform="translate(89.444755 357.213594) scale(0.11 -0.11)">
       <defs>
        <path id="ArialMT-2212" d="M 3381 1997 
L 356 1997 
L 356 2522 
L 3381 2522 
L 3381 1997 
z
" transform="scale(0.015625)"/>
        <path id="ArialMT-31" d="M 2384 0 
L 1822 0 
L 1822 3584 
Q 1619 3391 1289 3197 
Q 959 3003 697 2906 
L 697 3450 
Q 1169 3672 1522 3987 
Q 1875 4303 2022 4600 
L 2384 4600 
L 2384 0 
z
" transform="scale(0.015625)"/>
        <path id="ArialMT-2e" d="M 581 0 
L 581 641 
L 1222 641 
L 1222 0 
L 581 0 
z
" transform="scale(0.015625)"/>
        <path id="ArialMT-35" d="M 266 1200 
L 856 1250 
Q 922 819 1161 601 
Q 1400 384 1738 384 
Q 2144 384 2425 690 
Q 2706 997 2706 1503 
Q 2706 1984 2436 2262 
Q 2166 2541 1728 2541 
Q 1456 2541 1237 2417 
Q 1019 2294 894 2097 
L 366 2166 
L 809 4519 
L 3088 4519 
L 3088 3981 
L 1259 3981 
L 1013 2750 
Q 1425 3038 1878 3038 
Q 2478 3038 2890 2622 
Q 3303 2206 3303 1553 
Q 3303 931 2941 478 
Q 2500 -78 1738 -78 
Q 1113 -78 717 272 
Q 322 622 266 1200 
z
" transform="scale(0.015625)"/>
       </defs>
       <use xlink:href="#ArialMT-2212"/>
       <use xlink:href="#ArialMT-31" x="58.398438"/>
       <use xlink:href="#ArialMT-2e" x="114.013672"/>
       <use xlink:href="#ArialMT-35" x="141.796875"/>
      </g>
     </g>
    </g>
    <g id="xtick_2">
     <g id="line2d_2">
      <path d="M 178.332814 339.84 
L 178.332814 7.2 
" clip-path="url(#p5d05d62a7e)" style="fill: none; stroke: #ffffff; stroke-linecap: round"/>
     </g>
     <g id="text_2">
      <!-- −1.0 -->
      <g style="fill: #262626" transform="translate(167.47547 357.213594) scale(0.11 -0.11)">
       <defs>
        <path id="ArialMT-30" d="M 266 2259 
Q 266 3072 433 3567 
Q 600 4063 929 4331 
Q 1259 4600 1759 4600 
Q 2128 4600 2406 4451 
Q 2684 4303 2865 4023 
Q 3047 3744 3150 3342 
Q 3253 2941 3253 2259 
Q 3253 1453 3087 958 
Q 2922 463 2592 192 
Q 2263 -78 1759 -78 
Q 1097 -78 719 397 
Q 266 969 266 2259 
z
M 844 2259 
Q 844 1131 1108 757 
Q 1372 384 1759 384 
Q 2147 384 2411 759 
Q 2675 1134 2675 2259 
Q 2675 3391 2411 3762 
Q 2147 4134 1753 4134 
Q 1366 4134 1134 3806 
Q 844 3388 844 2259 
z
" transform="scale(0.015625)"/>
       </defs>
       <use xlink:href="#ArialMT-2212"/>
       <use xlink:href="#ArialMT-31" x="58.398438"/>
       <use xlink:href="#ArialMT-2e" x="114.013672"/>
       <use xlink:href="#ArialMT-30" x="141.796875"/>
      </g>
     </g>
    </g>
    <g id="xtick_3">
     <g id="line2d_3">
      <path d="M 256.363529 339.84 
L 256.363529 7.2 
" clip-path="url(#p5d05d62a7e)" style="fill: none; stroke: #ffffff; stroke-linecap: round"/>
     </g>
     <g id="text_3">
      <!-- −0.5 -->
      <g style="fill: #262626" transform="translate(245.506185 357.213594) scale(0.11 -0.11)">
       <use xlink:href="#ArialMT-2212"/>
       <use xlink:href="#ArialMT-30" x="58.398438"/>
       <use xlink:href="#ArialMT-2e" x="114.013672"/>
       <use xlink:href="#ArialMT-35" x="141.796875"/>
      </g>
     </g>
    </g>
    <g id="xtick_4">
     <g id="line2d_4">
      <path d="M 334.394244 339.84 
L 334.394244 7.2 
" clip-path="url(#p5d05d62a7e)" style="fill: none; stroke: #ffffff; stroke-linecap: round"/>
     </g>
     <g id="text_4">
      <!-- 0.0 -->
      <g style="fill: #262626" transform="translate(326.749244 357.213594) scale(0.11 -0.11)">
       <use xlink:href="#ArialMT-30"/>
       <use xlink:href="#ArialMT-2e" x="55.615234"/>
       <use xlink:href="#ArialMT-30" x="83.398438"/>
      </g>
     </g>
    </g>
    <g id="xtick_5">
     <g id="line2d_5">
      <path d="M 412.424959 339.84 
L 412.424959 7.2 
" clip-path="url(#p5d05d62a7e)" style="fill: none; stroke: #ffffff; stroke-linecap: round"/>
     </g>
     <g id="text_5">
      <!-- 0.5 -->
      <g style="fill: #262626" transform="translate(404.779959 357.213594) scale(0.11 -0.11)">
       <use xlink:href="#ArialMT-30"/>
       <use xlink:href="#ArialMT-2e" x="55.615234"/>
       <use xlink:href="#ArialMT-35" x="83.398438"/>
      </g>
     </g>
    </g>
    <g id="xtick_6">
     <g id="line2d_6">
      <path d="M 490.455674 339.84 
L 490.455674 7.2 
" clip-path="url(#p5d05d62a7e)" style="fill: none; stroke: #ffffff; stroke-linecap: round"/>
     </g>
     <g id="text_6">
      <!-- 1.0 -->
      <g style="fill: #262626" transform="translate(482.810674 357.213594) scale(0.11 -0.11)">
       <use xlink:href="#ArialMT-31"/>
       <use xlink:href="#ArialMT-2e" x="55.615234"/>
       <use xlink:href="#ArialMT-30" x="83.398438"/>
      </g>
     </g>
    </g>
    <g id="xtick_7">
     <g id="line2d_7">
      <path d="M 568.486388 339.84 
L 568.486388 7.2 
" clip-path="url(#p5d05d62a7e)" style="fill: none; stroke: #ffffff; stroke-linecap: round"/>
     </g>
     <g id="text_7">
      <!-- 1.5 -->
      <g style="fill: #262626" transform="translate(560.841388 357.213594) scale(0.11 -0.11)">
       <use xlink:href="#ArialMT-31"/>
       <use xlink:href="#ArialMT-2e" x="55.615234"/>
       <use xlink:href="#ArialMT-35" x="83.398438"/>
      </g>
     </g>
    </g>
   </g>
   <g id="matplotlib.axis_2">
    <g id="ytick_1">
     <g id="line2d_8">
      <path d="M 38.414687 312.972424 
L 596.414688 312.972424 
" clip-path="url(#p5d05d62a7e)" style="fill: none; stroke: #ffffff; stroke-linecap: round"/>
     </g>
     <g id="text_8">
      <!-- −2.5 -->
      <g style="fill: #262626" transform="translate(7.2 316.909221) scale(0.11 -0.11)">
       <defs>
        <path id="ArialMT-32" d="M 3222 541 
L 3222 0 
L 194 0 
Q 188 203 259 391 
Q 375 700 629 1000 
Q 884 1300 1366 1694 
Q 2113 2306 2375 2664 
Q 2638 3022 2638 3341 
Q 2638 3675 2398 3904 
Q 2159 4134 1775 4134 
Q 1369 4134 1125 3890 
Q 881 3647 878 3216 
L 300 3275 
Q 359 3922 746 4261 
Q 1134 4600 1788 4600 
Q 2447 4600 2831 4234 
Q 3216 3869 3216 3328 
Q 3216 3053 3103 2787 
Q 2991 2522 2730 2228 
Q 2469 1934 1863 1422 
Q 1356 997 1212 845 
Q 1069 694 975 541 
L 3222 541 
z
" transform="scale(0.015625)"/>
       </defs>
       <use xlink:href="#ArialMT-2212"/>
       <use xlink:href="#ArialMT-32" x="58.398438"/>
       <use xlink:href="#ArialMT-2e" x="114.013672"/>
       <use xlink:href="#ArialMT-35" x="141.796875"/>
      </g>
     </g>
    </g>
    <g id="ytick_2">
     <g id="line2d_9">
      <path d="M 38.414687 275.245255 
L 596.414688 275.245255 
" clip-path="url(#p5d05d62a7e)" style="fill: none; stroke: #ffffff; stroke-linecap: round"/>
     </g>
     <g id="text_9">
      <!-- −2.0 -->
      <g style="fill: #262626" transform="translate(7.2 279.182052) scale(0.11 -0.11)">
       <use xlink:href="#ArialMT-2212"/>
       <use xlink:href="#ArialMT-32" x="58.398438"/>
       <use xlink:href="#ArialMT-2e" x="114.013672"/>
       <use xlink:href="#ArialMT-30" x="141.796875"/>
      </g>
     </g>
    </g>
    <g id="ytick_3">
     <g id="line2d_10">
      <path d="M 38.414687 237.518085 
L 596.414688 237.518085 
" clip-path="url(#p5d05d62a7e)" style="fill: none; stroke: #ffffff; stroke-linecap: round"/>
     </g>
     <g id="text_10">
      <!-- −1.5 -->
      <g style="fill: #262626" transform="translate(7.2 241.454882) scale(0.11 -0.11)">
       <use xlink:href="#ArialMT-2212"/>
       <use xlink:href="#ArialMT-31" x="58.398438"/>
       <use xlink:href="#ArialMT-2e" x="114.013672"/>
       <use xlink:href="#ArialMT-35" x="141.796875"/>
      </g>
     </g>
    </g>
    <g id="ytick_4">
     <g id="line2d_11">
      <path d="M 38.414687 199.790916 
L 596.414688 199.790916 
" clip-path="url(#p5d05d62a7e)" style="fill: none; stroke: #ffffff; stroke-linecap: round"/>
     </g>
     <g id="text_11">
      <!-- −1.0 -->
      <g style="fill: #262626" transform="translate(7.2 203.727713) scale(0.11 -0.11)">
       <use xlink:href="#ArialMT-2212"/>
       <use xlink:href="#ArialMT-31" x="58.398438"/>
       <use xlink:href="#ArialMT-2e" x="114.013672"/>
       <use xlink:href="#ArialMT-30" x="141.796875"/>
      </g>
     </g>
    </g>
    <g id="ytick_5">
     <g id="line2d_12">
      <path d="M 38.414687 162.063747 
L 596.414688 162.063747 
" clip-path="url(#p5d05d62a7e)" style="fill: none; stroke: #ffffff; stroke-linecap: round"/>
     </g>
     <g id="text_12">
      <!-- −0.5 -->
      <g style="fill: #262626" transform="translate(7.2 166.000543) scale(0.11 -0.11)">
       <use xlink:href="#ArialMT-2212"/>
       <use xlink:href="#ArialMT-30" x="58.398438"/>
       <use xlink:href="#ArialMT-2e" x="114.013672"/>
       <use xlink:href="#ArialMT-35" x="141.796875"/>
      </g>
     </g>
    </g>
    <g id="ytick_6">
     <g id="line2d_13">
      <path d="M 38.414687 124.336577 
L 596.414688 124.336577 
" clip-path="url(#p5d05d62a7e)" style="fill: none; stroke: #ffffff; stroke-linecap: round"/>
     </g>
     <g id="text_13">
      <!-- 0.0 -->
      <g style="fill: #262626" transform="translate(13.624687 128.273374) scale(0.11 -0.11)">
       <use xlink:href="#ArialMT-30"/>
       <use xlink:href="#ArialMT-2e" x="55.615234"/>
       <use xlink:href="#ArialMT-30" x="83.398438"/>
      </g>
     </g>
    </g>
    <g id="ytick_7">
     <g id="line2d_14">
      <path d="M 38.414687 86.609408 
L 596.414688 86.609408 
" clip-path="url(#p5d05d62a7e)" style="fill: none; stroke: #ffffff; stroke-linecap: round"/>
     </g>
     <g id="text_14">
      <!-- 0.5 -->
      <g style="fill: #262626" transform="translate(13.624687 90.546205) scale(0.11 -0.11)">
       <use xlink:href="#ArialMT-30"/>
       <use xlink:href="#ArialMT-2e" x="55.615234"/>
       <use xlink:href="#ArialMT-35" x="83.398438"/>
      </g>
     </g>
    </g>
    <g id="ytick_8">
     <g id="line2d_15">
      <path d="M 38.414687 48.882238 
L 596.414688 48.882238 
" clip-path="url(#p5d05d62a7e)" style="fill: none; stroke: #ffffff; stroke-linecap: round"/>
     </g>
     <g id="text_15">
      <!-- 1.0 -->
      <g style="fill: #262626" transform="translate(13.624687 52.819035) scale(0.11 -0.11)">
       <use xlink:href="#ArialMT-31"/>
       <use xlink:href="#ArialMT-2e" x="55.615234"/>
       <use xlink:href="#ArialMT-30" x="83.398438"/>
      </g>
     </g>
    </g>
    <g id="ytick_9">
     <g id="line2d_16">
      <path d="M 38.414687 11.155069 
L 596.414688 11.155069 
" clip-path="url(#p5d05d62a7e)" style="fill: none; stroke: #ffffff; stroke-linecap: round"/>
     </g>
     <g id="text_16">
      <!-- 1.5 -->
      <g style="fill: #262626" transform="translate(13.624687 15.091866) scale(0.11 -0.11)">
       <use xlink:href="#ArialMT-31"/>
       <use xlink:href="#ArialMT-2e" x="55.615234"/>
       <use xlink:href="#ArialMT-35" x="83.398438"/>
      </g>
     </g>
    </g>
   </g>
   <g id="line2d_17">
    <path d="M 63.778324 307.770308 
L 66.324281 301.199779 
L 67.180696 298.995252 
L 70.974705 289.26325 
L 71.590919 287.687871 
L 73.326921 283.257492 
L 82.819844 259.210895 
L 83.381852 257.795216 
L 88.938918 243.83148 
L 89.325676 242.861643 
L 120.06116 163.516406 
L 132.013466 136.448201 
L 141.480596 121.29556 
L 141.979315 120.614165 
L 143.219933 118.944313 
L 147.675335 112.437005 
L 166.449138 91.888937 
L 177.033914 81.928574 
L 177.56251 81.372209 
L 178.85436 79.997864 
L 185.279288 73.355351 
L 186.366898 72.400649 
L 192.895145 68.726614 
L 204.143481 63.597429 
L 208.185981 62.15907 
L 218.406243 57.824481 
L 219.448608 57.307311 
L 219.686277 57.192801 
L 221.047836 56.561916 
L 225.966103 54.567535 
L 231.749846 52.151281 
L 232.932145 51.872334 
L 233.78814 51.66639 
L 248.532792 47.377918 
L 250.569089 46.838112 
L 252.048701 46.475706 
L 258.847081 44.664982 
L 267.257311 42.824135 
L 274.529482 42.714192 
L 276.400249 42.457246 
L 283.320409 42.049458 
L 283.409736 42.06167 
L 302.65201 44.557064 
L 308.435484 46.057307 
L 311.905119 47.72097 
L 318.359582 50.695779 
L 322.621619 53.080429 
L 328.213777 56.478073 
L 328.944456 57.007248 
L 329.290388 57.226003 
L 331.88306 58.945866 
L 340.825751 65.444867 
L 347.155719 69.93238 
L 352.222281 72.997307 
L 356.314285 74.868114 
L 357.405441 75.136112 
L 363.343996 77.376559 
L 374.8216 80.212816 
L 375.99576 80.586972 
L 381.559139 82.014001 
L 382.268553 82.224365 
L 387.125405 84.048539 
L 395.051932 87.026878 
L 397.481957 88.475612 
L 409.045082 96.741437 
L 430.243466 112.73955 
L 434.66696 116.323021 
L 445.150432 124.71212 
L 448.288269 127.143387 
L 449.284741 127.948504 
L 451.343276 129.548754 
L 454.195246 131.487287 
L 454.570127 131.712971 
L 464.204295 137.684539 
L 469.852152 140.887248 
L 473.55704 142.65119 
L 474.721778 143.165978 
L 489.421527 150.973752 
L 501.495691 157.632835 
L 504.28967 159.467306 
L 505.935409 160.864406 
L 508.43814 163.038802 
L 510.549427 164.552287 
L 511.766475 165.44154 
L 518.95263 171.869311 
L 527.034076 179.121534 
L 545.54915 195.178455 
L 549.830064 199.185305 
L 550.976495 200.230746 
L 553.32409 202.329572 
L 553.419068 202.413222 
L 559.907535 207.899703 
L 560.902571 208.704665 
L 562.690871 210.130834 
L 566.684402 213.237379 
L 567.766829 214.064093 
L 568.096723 214.314974 
L 569.258427 215.194862 
L 570.301176 215.980274 
L 571.051051 216.542659 
" clip-path="url(#p5d05d62a7e)" style="fill: none; stroke: #ff6347; stroke-width: 1.5; stroke-linecap: round"/>
   </g>
   <g id="line2d_18">
    <defs>
     <path id="mcaee8d97c0" d="M 0 1.5 
C 0.397805 1.5 0.77937 1.341951 1.06066 1.06066 
C 1.341951 0.77937 1.5 0.397805 1.5 0 
C 1.5 -0.397805 1.341951 -0.77937 1.06066 -1.06066 
C 0.77937 -1.341951 0.397805 -1.5 0 -1.5 
C -0.397805 -1.5 -0.77937 -1.341951 -1.06066 -1.06066 
C -1.341951 -0.77937 -1.5 -0.397805 -1.5 0 
C -1.5 0.397805 -1.341951 0.77937 -1.06066 1.06066 
C -0.77937 1.341951 -0.397805 1.5 0 1.5 
z
" style="stroke: #1a1a1a"/>
    </defs>
    <g clip-path="url(#p5d05d62a7e)">
     <use xlink:href="#mcaee8d97c0" x="331.88306" y="56.901089" style="fill: #1a1a1a; stroke: #1a1a1a"/>
     <use xlink:href="#mcaee8d97c0" x="141.480596" y="114.277458" style="fill: #1a1a1a; stroke: #1a1a1a"/>
     <use xlink:href="#mcaee8d97c0" x="258.847081" y="54.899835" style="fill: #1a1a1a; stroke: #1a1a1a"/>
     <use xlink:href="#mcaee8d97c0" x="454.195246" y="136.416566" style="fill: #1a1a1a; stroke: #1a1a1a"/>
     <use xlink:href="#mcaee8d97c0" x="363.343996" y="88.701681" style="fill: #1a1a1a; stroke: #1a1a1a"/>
     <use xlink:href="#mcaee8d97c0" x="505.935409" y="167.59063" style="fill: #1a1a1a; stroke: #1a1a1a"/>
     <use xlink:href="#mcaee8d97c0" x="510.549427" y="165.767461" style="fill: #1a1a1a; stroke: #1a1a1a"/>
     <use xlink:href="#mcaee8d97c0" x="568.096723" y="235.395066" style="fill: #1a1a1a; stroke: #1a1a1a"/>
     <use xlink:href="#mcaee8d97c0" x="374.8216" y="109.66453" style="fill: #1a1a1a; stroke: #1a1a1a"/>
     <use xlink:href="#mcaee8d97c0" x="248.532792" y="42.390195" style="fill: #1a1a1a; stroke: #1a1a1a"/>
     <use xlink:href="#mcaee8d97c0" x="328.944456" y="55.550763" style="fill: #1a1a1a; stroke: #1a1a1a"/>
     <use xlink:href="#mcaee8d97c0" x="409.045082" y="94.636122" style="fill: #1a1a1a; stroke: #1a1a1a"/>
     <use xlink:href="#mcaee8d97c0" x="83.381852" y="242.597888" style="fill: #1a1a1a; stroke: #1a1a1a"/>
     <use xlink:href="#mcaee8d97c0" x="166.449138" y="85.992642" style="fill: #1a1a1a; stroke: #1a1a1a"/>
     <use xlink:href="#mcaee8d97c0" x="178.85436" y="74.507089" style="fill: #1a1a1a; stroke: #1a1a1a"/>
     <use xlink:href="#mcaee8d97c0" x="451.343276" y="140.477988" style="fill: #1a1a1a; stroke: #1a1a1a"/>
     <use xlink:href="#mcaee8d97c0" x="70.974705" y="296.701962" style="fill: #1a1a1a; stroke: #1a1a1a"/>
     <use xlink:href="#mcaee8d97c0" x="395.051932" y="90.757932" style="fill: #1a1a1a; stroke: #1a1a1a"/>
     <use xlink:href="#mcaee8d97c0" x="375.99576" y="77.283863" style="fill: #1a1a1a; stroke: #1a1a1a"/>
     <use xlink:href="#mcaee8d97c0" x="445.150432" y="139.070681" style="fill: #1a1a1a; stroke: #1a1a1a"/>
     <use xlink:href="#mcaee8d97c0" x="143.219933" y="124.03099" style="fill: #1a1a1a; stroke: #1a1a1a"/>
     <use xlink:href="#mcaee8d97c0" x="549.830064" y="196.436319" style="fill: #1a1a1a; stroke: #1a1a1a"/>
     <use xlink:href="#mcaee8d97c0" x="448.288269" y="149.270088" style="fill: #1a1a1a; stroke: #1a1a1a"/>
     <use xlink:href="#mcaee8d97c0" x="276.400249" y="44.909163" style="fill: #1a1a1a; stroke: #1a1a1a"/>
     <use xlink:href="#mcaee8d97c0" x="553.32409" y="205.981004" style="fill: #1a1a1a; stroke: #1a1a1a"/>
     <use xlink:href="#mcaee8d97c0" x="527.034076" y="174.476314" style="fill: #1a1a1a; stroke: #1a1a1a"/>
     <use xlink:href="#mcaee8d97c0" x="120.06116" y="136.626321" style="fill: #1a1a1a; stroke: #1a1a1a"/>
     <use xlink:href="#mcaee8d97c0" x="501.495691" y="146.167556" style="fill: #1a1a1a; stroke: #1a1a1a"/>
     <use xlink:href="#mcaee8d97c0" x="328.213777" y="72.96481" style="fill: #1a1a1a; stroke: #1a1a1a"/>
     <use xlink:href="#mcaee8d97c0" x="67.180696" y="293.675119" style="fill: #1a1a1a; stroke: #1a1a1a"/>
     <use xlink:href="#mcaee8d97c0" x="387.125405" y="55.554302" style="fill: #1a1a1a; stroke: #1a1a1a"/>
     <use xlink:href="#mcaee8d97c0" x="382.268553" y="90.891078" style="fill: #1a1a1a; stroke: #1a1a1a"/>
     <use xlink:href="#mcaee8d97c0" x="545.54915" y="221.201634" style="fill: #1a1a1a; stroke: #1a1a1a"/>
     <use xlink:href="#mcaee8d97c0" x="283.409736" y="24.409382" style="fill: #1a1a1a; stroke: #1a1a1a"/>
     <use xlink:href="#mcaee8d97c0" x="82.819844" y="246.087131" style="fill: #1a1a1a; stroke: #1a1a1a"/>
     <use xlink:href="#mcaee8d97c0" x="560.902571" y="191.864733" style="fill: #1a1a1a; stroke: #1a1a1a"/>
     <use xlink:href="#mcaee8d97c0" x="464.204295" y="135.673378" style="fill: #1a1a1a; stroke: #1a1a1a"/>
     <use xlink:href="#mcaee8d97c0" x="322.621619" y="43.385331" style="fill: #1a1a1a; stroke: #1a1a1a"/>
     <use xlink:href="#mcaee8d97c0" x="204.143481" y="77.186461" style="fill: #1a1a1a; stroke: #1a1a1a"/>
     <use xlink:href="#mcaee8d97c0" x="489.421527" y="149.06763" style="fill: #1a1a1a; stroke: #1a1a1a"/>
     <use xlink:href="#mcaee8d97c0" x="73.326921" y="285.689273" style="fill: #1a1a1a; stroke: #1a1a1a"/>
     <use xlink:href="#mcaee8d97c0" x="274.529482" y="22.32" style="fill: #1a1a1a; stroke: #1a1a1a"/>
     <use xlink:href="#mcaee8d97c0" x="308.435484" y="61.508262" style="fill: #1a1a1a; stroke: #1a1a1a"/>
     <use xlink:href="#mcaee8d97c0" x="219.448608" y="57.941791" style="fill: #1a1a1a; stroke: #1a1a1a"/>
     <use xlink:href="#mcaee8d97c0" x="232.932145" y="53.414618" style="fill: #1a1a1a; stroke: #1a1a1a"/>
     <use xlink:href="#mcaee8d97c0" x="430.243466" y="108.828299" style="fill: #1a1a1a; stroke: #1a1a1a"/>
     <use xlink:href="#mcaee8d97c0" x="511.766475" y="172.485205" style="fill: #1a1a1a; stroke: #1a1a1a"/>
     <use xlink:href="#mcaee8d97c0" x="177.033914" y="70.933646" style="fill: #1a1a1a; stroke: #1a1a1a"/>
     <use xlink:href="#mcaee8d97c0" x="504.28967" y="191.151835" style="fill: #1a1a1a; stroke: #1a1a1a"/>
     <use xlink:href="#mcaee8d97c0" x="311.905119" y="34.787795" style="fill: #1a1a1a; stroke: #1a1a1a"/>
     <use xlink:href="#mcaee8d97c0" x="329.290388" y="50.486931" style="fill: #1a1a1a; stroke: #1a1a1a"/>
     <use xlink:href="#mcaee8d97c0" x="186.366898" y="59.166635" style="fill: #1a1a1a; stroke: #1a1a1a"/>
     <use xlink:href="#mcaee8d97c0" x="219.686277" y="54.657438" style="fill: #1a1a1a; stroke: #1a1a1a"/>
     <use xlink:href="#mcaee8d97c0" x="192.895145" y="84.212711" style="fill: #1a1a1a; stroke: #1a1a1a"/>
     <use xlink:href="#mcaee8d97c0" x="434.66696" y="101.019605" style="fill: #1a1a1a; stroke: #1a1a1a"/>
     <use xlink:href="#mcaee8d97c0" x="233.78814" y="60.608362" style="fill: #1a1a1a; stroke: #1a1a1a"/>
     <use xlink:href="#mcaee8d97c0" x="89.325676" y="193.883046" style="fill: #1a1a1a; stroke: #1a1a1a"/>
     <use xlink:href="#mcaee8d97c0" x="221.047836" y="49.354599" style="fill: #1a1a1a; stroke: #1a1a1a"/>
     <use xlink:href="#mcaee8d97c0" x="132.013466" y="144.166068" style="fill: #1a1a1a; stroke: #1a1a1a"/>
     <use xlink:href="#mcaee8d97c0" x="141.979315" y="101.133963" style="fill: #1a1a1a; stroke: #1a1a1a"/>
     <use xlink:href="#mcaee8d97c0" x="357.405441" y="72.93125" style="fill: #1a1a1a; stroke: #1a1a1a"/>
     <use xlink:href="#mcaee8d97c0" x="449.284741" y="134.136542" style="fill: #1a1a1a; stroke: #1a1a1a"/>
     <use xlink:href="#mcaee8d97c0" x="553.419068" y="185.621969" style="fill: #1a1a1a; stroke: #1a1a1a"/>
     <use xlink:href="#mcaee8d97c0" x="566.684402" y="206.742188" style="fill: #1a1a1a; stroke: #1a1a1a"/>
     <use xlink:href="#mcaee8d97c0" x="147.675335" y="119.446487" style="fill: #1a1a1a; stroke: #1a1a1a"/>
     <use xlink:href="#mcaee8d97c0" x="508.43814" y="148.026793" style="fill: #1a1a1a; stroke: #1a1a1a"/>
     <use xlink:href="#mcaee8d97c0" x="518.95263" y="147.239283" style="fill: #1a1a1a; stroke: #1a1a1a"/>
     <use xlink:href="#mcaee8d97c0" x="208.185981" y="63.946861" style="fill: #1a1a1a; stroke: #1a1a1a"/>
     <use xlink:href="#mcaee8d97c0" x="559.907535" y="203.157735" style="fill: #1a1a1a; stroke: #1a1a1a"/>
     <use xlink:href="#mcaee8d97c0" x="397.481957" y="76.280702" style="fill: #1a1a1a; stroke: #1a1a1a"/>
     <use xlink:href="#mcaee8d97c0" x="571.051051" y="215.009615" style="fill: #1a1a1a; stroke: #1a1a1a"/>
     <use xlink:href="#mcaee8d97c0" x="231.749846" y="58.668286" style="fill: #1a1a1a; stroke: #1a1a1a"/>
     <use xlink:href="#mcaee8d97c0" x="474.721778" y="162.190257" style="fill: #1a1a1a; stroke: #1a1a1a"/>
     <use xlink:href="#mcaee8d97c0" x="66.324281" y="307.019912" style="fill: #1a1a1a; stroke: #1a1a1a"/>
     <use xlink:href="#mcaee8d97c0" x="562.690871" y="220.236549" style="fill: #1a1a1a; stroke: #1a1a1a"/>
     <use xlink:href="#mcaee8d97c0" x="356.314285" y="75.604593" style="fill: #1a1a1a; stroke: #1a1a1a"/>
     <use xlink:href="#mcaee8d97c0" x="283.320409" y="43.833713" style="fill: #1a1a1a; stroke: #1a1a1a"/>
     <use xlink:href="#mcaee8d97c0" x="225.966103" y="30.043825" style="fill: #1a1a1a; stroke: #1a1a1a"/>
     <use xlink:href="#mcaee8d97c0" x="252.048701" y="53.512211" style="fill: #1a1a1a; stroke: #1a1a1a"/>
     <use xlink:href="#mcaee8d97c0" x="340.825751" y="78.922434" style="fill: #1a1a1a; stroke: #1a1a1a"/>
     <use xlink:href="#mcaee8d97c0" x="88.938918" y="212.684203" style="fill: #1a1a1a; stroke: #1a1a1a"/>
     <use xlink:href="#mcaee8d97c0" x="567.766829" y="202.06064" style="fill: #1a1a1a; stroke: #1a1a1a"/>
     <use xlink:href="#mcaee8d97c0" x="454.570127" y="118.474553" style="fill: #1a1a1a; stroke: #1a1a1a"/>
     <use xlink:href="#mcaee8d97c0" x="550.976495" y="222.427387" style="fill: #1a1a1a; stroke: #1a1a1a"/>
     <use xlink:href="#mcaee8d97c0" x="473.55704" y="135.408596" style="fill: #1a1a1a; stroke: #1a1a1a"/>
     <use xlink:href="#mcaee8d97c0" x="352.222281" y="77.146255" style="fill: #1a1a1a; stroke: #1a1a1a"/>
     <use xlink:href="#mcaee8d97c0" x="302.65201" y="42.506692" style="fill: #1a1a1a; stroke: #1a1a1a"/>
     <use xlink:href="#mcaee8d97c0" x="185.279288" y="81.598715" style="fill: #1a1a1a; stroke: #1a1a1a"/>
     <use xlink:href="#mcaee8d97c0" x="381.559139" y="72.109152" style="fill: #1a1a1a; stroke: #1a1a1a"/>
     <use xlink:href="#mcaee8d97c0" x="318.359582" y="30.694599" style="fill: #1a1a1a; stroke: #1a1a1a"/>
     <use xlink:href="#mcaee8d97c0" x="250.569089" y="34.434191" style="fill: #1a1a1a; stroke: #1a1a1a"/>
     <use xlink:href="#mcaee8d97c0" x="177.56251" y="52.947549" style="fill: #1a1a1a; stroke: #1a1a1a"/>
     <use xlink:href="#mcaee8d97c0" x="218.406243" y="47.654175" style="fill: #1a1a1a; stroke: #1a1a1a"/>
     <use xlink:href="#mcaee8d97c0" x="347.155719" y="66.509322" style="fill: #1a1a1a; stroke: #1a1a1a"/>
     <use xlink:href="#mcaee8d97c0" x="570.301176" y="205.005859" style="fill: #1a1a1a; stroke: #1a1a1a"/>
     <use xlink:href="#mcaee8d97c0" x="267.257311" y="50.829308" style="fill: #1a1a1a; stroke: #1a1a1a"/>
     <use xlink:href="#mcaee8d97c0" x="71.590919" y="300.56523" style="fill: #1a1a1a; stroke: #1a1a1a"/>
     <use xlink:href="#mcaee8d97c0" x="569.258427" y="233.042669" style="fill: #1a1a1a; stroke: #1a1a1a"/>
     <use xlink:href="#mcaee8d97c0" x="63.778324" y="324.72" style="fill: #1a1a1a; stroke: #1a1a1a"/>
     <use xlink:href="#mcaee8d97c0" x="469.852152" y="113.077146" style="fill: #1a1a1a; stroke: #1a1a1a"/>
    </g>
   </g>
   <g id="patch_3">
    <path d="M 38.414687 339.84 
L 38.414687 7.2 
" style="fill: none; stroke: #ffffff; stroke-width: 1.25; stroke-linejoin: miter; stroke-linecap: square"/>
   </g>
   <g id="patch_4">
    <path d="M 596.414688 339.84 
L 596.414688 7.2 
" style="fill: none; stroke: #ffffff; stroke-width: 1.25; stroke-linejoin: miter; stroke-linecap: square"/>
   </g>
   <g id="patch_5">
    <path d="M 38.414688 339.84 
L 596.414687 339.84 
" style="fill: none; stroke: #ffffff; stroke-width: 1.25; stroke-linejoin: miter; stroke-linecap: square"/>
   </g>
   <g id="patch_6">
    <path d="M 38.414688 7.2 
L 596.414687 7.2 
" style="fill: none; stroke: #ffffff; stroke-width: 1.25; stroke-linejoin: miter; stroke-linecap: square"/>
   </g>
  </g>
 </g>
 <defs>
  <clipPath id="p5d05d62a7e">
   <rect x="38.414687" y="7.2" width="558" height="332.64"/>
  </clipPath>
 </defs>
</svg>