<?xml version="1.0" encoding="utf-8" standalone="no"?>
<!DOCTYPE svg PUBLIC "-//W3C//DTD SVG 1.1//EN"
  "http://www.w3.org/Graphics/SVG/1.1/DTD/svg11.dtd">
<svg xmlns:xlink="http://www.w3.org/1999/xlink" width="606.255937pt" height="375.831875pt" viewBox="0 0 606.255937 375.831875" xmlns="http://www.w3.org/2000/svg" version="1.1">
 <metadata>
  <rdf:RDF xmlns:dc="http://purl.org/dc/elements/1.1/" xmlns:cc="http://creativecommons.org/ns#" xmlns:rdf="http://www.w3.org/1999/02/22-rdf-syntax-ns#">
   <cc:Work>
    <dc:type rdf:resource="http://purl.org/dc/dcmitype/StillImage"/>
    <dc:date>2023-05-07T23:43:42.955866</dc:date>
    <dc:format>image/svg+xml</dc:format>
    <dc:creator>
     <cc:Agent>
      <dc:title>Matplotlib v3.7.1, https://matplotlib.org/</dc:title>
     </cc:Agent>
    </dc:creator>
   </cc:Work>
  </rdf:RDF>
 </metadata>
 <defs>
  <style type="text/css">*{stroke-linejoin: round; stroke-linecap: butt}</style>
 </defs>
 <g id="figure_1">
  <g id="patch_1">
   <path d="M 0 375.831875 
L 606.255937 375.831875 
L 606.255937 0 
L 0 0 
z
" style="fill: #ffffff"/>
  </g>
  <g id="axes_1">
   <g id="patch_2">
    <path d="M 41.055937 339.84 
L 599.055938 339.84 
L 599.055938 7.2 
L 41.055937 7.2 
z
" style="fill: #eeeeee"/>
   </g>
   <g id="PathCollection_1">
    <defs>
     <path id="ma43998b506" d="M 0 3 
C 0.795609 3 1.55874 2.683901 2.12132 2.12132 
C 2.683901 1.55874 3 0.795609 3 0 
C 3 -0.795609 2.683901 -1.55874 2.12132 -2.12132 
C 1.55874 -2.683901 0.795609 -3 0 -3 
C -0.795609 -3 -1.55874 -2.683901 -2.12132 -2.12132 
C -2.683901 -1.55874 -3 -0.795609 -3 0 
C -3 0.795609 -2.683901 1.55874 -2.12132 2.12132 
C -1.55874 2.683901 -0.795609 3 0 3 
z
" style="stroke: #348abd; stroke-opacity: 0.8"/>
    </defs>
    <g clip-path="url(#p15c957e7c2)">
     <use xlink:href="#ma43998b506" x="361.296511" y="157.536965" style="fill: #348abd; fill-opacity: 0.8; stroke: #348abd; stroke-opacity: 0.8"/>
     <use xlink:href="#ma43998b506" x="202.346953" y="204.08654" style="fill: #348abd; fill-opacity: 0.8; stroke: #348abd; stroke-opacity: 0.8"/>
     <use xlink:href="#ma43998b506" x="282.379795" y="202.414317" style="fill: #348abd; fill-opacity: 0.8; stroke: #348abd; stroke-opacity: 0.8"/>
     <use xlink:href="#ma43998b506" x="100.792306" y="265.912925" style="fill: #348abd; fill-opacity: 0.8; stroke: #348abd; stroke-opacity: 0.8"/>
     <use xlink:href="#ma43998b506" x="113.692964" y="250.389179" style="fill: #348abd; fill-opacity: 0.8; stroke: #348abd; stroke-opacity: 0.8"/>
     <use xlink:href="#ma43998b506" x="285.860594" y="178.164075" style="fill: #348abd; fill-opacity: 0.8; stroke: #348abd; stroke-opacity: 0.8"/>
     <use xlink:href="#ma43998b506" x="239.654158" y="212.913155" style="fill: #348abd; fill-opacity: 0.8; stroke: #348abd; stroke-opacity: 0.8"/>
     <use xlink:href="#ma43998b506" x="222.889853" y="255.953713" style="fill: #348abd; fill-opacity: 0.8; stroke: #348abd; stroke-opacity: 0.8"/>
     <use xlink:href="#ma43998b506" x="381.466096" y="149.449922" style="fill: #348abd; fill-opacity: 0.8; stroke: #348abd; stroke-opacity: 0.8"/>
     <use xlink:href="#ma43998b506" x="200.060068" y="231.25046" style="fill: #348abd; fill-opacity: 0.8; stroke: #348abd; stroke-opacity: 0.8"/>
     <use xlink:href="#ma43998b506" x="269.922392" y="184.919677" style="fill: #348abd; fill-opacity: 0.8; stroke: #348abd; stroke-opacity: 0.8"/>
     <use xlink:href="#ma43998b506" x="206.022066" y="225.936193" style="fill: #348abd; fill-opacity: 0.8; stroke: #348abd; stroke-opacity: 0.8"/>
     <use xlink:href="#ma43998b506" x="357.507937" y="127.381504" style="fill: #348abd; fill-opacity: 0.8; stroke: #348abd; stroke-opacity: 0.8"/>
     <use xlink:href="#ma43998b506" x="342.242683" y="146.818317" style="fill: #348abd; fill-opacity: 0.8; stroke: #348abd; stroke-opacity: 0.8"/>
     <use xlink:href="#ma43998b506" x="272.696712" y="204.29395" style="fill: #348abd; fill-opacity: 0.8; stroke: #348abd; stroke-opacity: 0.8"/>
     <use xlink:href="#ma43998b506" x="155.557191" y="222.597134" style="fill: #348abd; fill-opacity: 0.8; stroke: #348abd; stroke-opacity: 0.8"/>
     <use xlink:href="#ma43998b506" x="164.330539" y="291.667506" style="fill: #348abd; fill-opacity: 0.8; stroke: #348abd; stroke-opacity: 0.8"/>
     <use xlink:href="#ma43998b506" x="326.598123" y="164.443297" style="fill: #348abd; fill-opacity: 0.8; stroke: #348abd; stroke-opacity: 0.8"/>
     <use xlink:href="#ma43998b506" x="278.244719" y="215.138429" style="fill: #348abd; fill-opacity: 0.8; stroke: #348abd; stroke-opacity: 0.8"/>
     <use xlink:href="#ma43998b506" x="327.787583" y="144.024216" style="fill: #348abd; fill-opacity: 0.8; stroke: #348abd; stroke-opacity: 0.8"/>
     <use xlink:href="#ma43998b506" x="286.003205" y="179.548909" style="fill: #348abd; fill-opacity: 0.8; stroke: #348abd; stroke-opacity: 0.8"/>
     <use xlink:href="#ma43998b506" x="321.064457" y="193.3105" style="fill: #348abd; fill-opacity: 0.8; stroke: #348abd; stroke-opacity: 0.8"/>
     <use xlink:href="#ma43998b506" x="463.478151" y="105.793518" style="fill: #348abd; fill-opacity: 0.8; stroke: #348abd; stroke-opacity: 0.8"/>
     <use xlink:href="#ma43998b506" x="438.221217" y="108.485899" style="fill: #348abd; fill-opacity: 0.8; stroke: #348abd; stroke-opacity: 0.8"/>
     <use xlink:href="#ma43998b506" x="573.692301" y="88.784326" style="fill: #348abd; fill-opacity: 0.8; stroke: #348abd; stroke-opacity: 0.8"/>
     <use xlink:href="#ma43998b506" x="262.452018" y="194.3336" style="fill: #348abd; fill-opacity: 0.8; stroke: #348abd; stroke-opacity: 0.8"/>
     <use xlink:href="#ma43998b506" x="376.724246" y="136.449449" style="fill: #348abd; fill-opacity: 0.8; stroke: #348abd; stroke-opacity: 0.8"/>
     <use xlink:href="#ma43998b506" x="95.742522" y="302.869086" style="fill: #348abd; fill-opacity: 0.8; stroke: #348abd; stroke-opacity: 0.8"/>
     <use xlink:href="#ma43998b506" x="335.966808" y="175.142004" style="fill: #348abd; fill-opacity: 0.8; stroke: #348abd; stroke-opacity: 0.8"/>
     <use xlink:href="#ma43998b506" x="228.171405" y="199.608438" style="fill: #348abd; fill-opacity: 0.8; stroke: #348abd; stroke-opacity: 0.8"/>
     <use xlink:href="#ma43998b506" x="421.053618" y="136.675911" style="fill: #348abd; fill-opacity: 0.8; stroke: #348abd; stroke-opacity: 0.8"/>
     <use xlink:href="#ma43998b506" x="399.180879" y="124.714021" style="fill: #348abd; fill-opacity: 0.8; stroke: #348abd; stroke-opacity: 0.8"/>
     <use xlink:href="#ma43998b506" x="545.477788" y="56.844647" style="fill: #348abd; fill-opacity: 0.8; stroke: #348abd; stroke-opacity: 0.8"/>
     <use xlink:href="#ma43998b506" x="216.354779" y="219.684663" style="fill: #348abd; fill-opacity: 0.8; stroke: #348abd; stroke-opacity: 0.8"/>
     <use xlink:href="#ma43998b506" x="152.66026" y="268.62677" style="fill: #348abd; fill-opacity: 0.8; stroke: #348abd; stroke-opacity: 0.8"/>
     <use xlink:href="#ma43998b506" x="127.547102" y="282.185862" style="fill: #348abd; fill-opacity: 0.8; stroke: #348abd; stroke-opacity: 0.8"/>
     <use xlink:href="#ma43998b506" x="234.036553" y="203.983854" style="fill: #348abd; fill-opacity: 0.8; stroke: #348abd; stroke-opacity: 0.8"/>
     <use xlink:href="#ma43998b506" x="422.252045" y="98.618048" style="fill: #348abd; fill-opacity: 0.8; stroke: #348abd; stroke-opacity: 0.8"/>
     <use xlink:href="#ma43998b506" x="256.359233" y="194.167293" style="fill: #348abd; fill-opacity: 0.8; stroke: #348abd; stroke-opacity: 0.8"/>
     <use xlink:href="#ma43998b506" x="277.188662" y="217.892611" style="fill: #348abd; fill-opacity: 0.8; stroke: #348abd; stroke-opacity: 0.8"/>
     <use xlink:href="#ma43998b506" x="324.313787" y="191.094918" style="fill: #348abd; fill-opacity: 0.8; stroke: #348abd; stroke-opacity: 0.8"/>
     <use xlink:href="#ma43998b506" x="110.904941" y="281.610722" style="fill: #348abd; fill-opacity: 0.8; stroke: #348abd; stroke-opacity: 0.8"/>
     <use xlink:href="#ma43998b506" x="94.877964" y="284.998878" style="fill: #348abd; fill-opacity: 0.8; stroke: #348abd; stroke-opacity: 0.8"/>
     <use xlink:href="#ma43998b506" x="78.018369" y="289.38167" style="fill: #348abd; fill-opacity: 0.8; stroke: #348abd; stroke-opacity: 0.8"/>
     <use xlink:href="#ma43998b506" x="361.637464" y="123.960497" style="fill: #348abd; fill-opacity: 0.8; stroke: #348abd; stroke-opacity: 0.8"/>
     <use xlink:href="#ma43998b506" x="389.966846" y="156.757281" style="fill: #348abd; fill-opacity: 0.8; stroke: #348abd; stroke-opacity: 0.8"/>
     <use xlink:href="#ma43998b506" x="229.074321" y="224.888782" style="fill: #348abd; fill-opacity: 0.8; stroke: #348abd; stroke-opacity: 0.8"/>
     <use xlink:href="#ma43998b506" x="223.069727" y="212.695497" style="fill: #348abd; fill-opacity: 0.8; stroke: #348abd; stroke-opacity: 0.8"/>
     <use xlink:href="#ma43998b506" x="211.949356" y="221.732336" style="fill: #348abd; fill-opacity: 0.8; stroke: #348abd; stroke-opacity: 0.8"/>
     <use xlink:href="#ma43998b506" x="380.332542" y="117.592791" style="fill: #348abd; fill-opacity: 0.8; stroke: #348abd; stroke-opacity: 0.8"/>
     <use xlink:href="#ma43998b506" x="151.73765" y="253.058174" style="fill: #348abd; fill-opacity: 0.8; stroke: #348abd; stroke-opacity: 0.8"/>
     <use xlink:href="#ma43998b506" x="301.925734" y="204.2207" style="fill: #348abd; fill-opacity: 0.8; stroke: #348abd; stroke-opacity: 0.8"/>
     <use xlink:href="#ma43998b506" x="235.798453" y="190.266292" style="fill: #348abd; fill-opacity: 0.8; stroke: #348abd; stroke-opacity: 0.8"/>
     <use xlink:href="#ma43998b506" x="364.253118" y="146.04711" style="fill: #348abd; fill-opacity: 0.8; stroke: #348abd; stroke-opacity: 0.8"/>
     <use xlink:href="#ma43998b506" x="249.54244" y="211.933145" style="fill: #348abd; fill-opacity: 0.8; stroke: #348abd; stroke-opacity: 0.8"/>
     <use xlink:href="#ma43998b506" x="275.768347" y="177.676621" style="fill: #348abd; fill-opacity: 0.8; stroke: #348abd; stroke-opacity: 0.8"/>
     <use xlink:href="#ma43998b506" x="360.202805" y="135.451221" style="fill: #348abd; fill-opacity: 0.8; stroke: #348abd; stroke-opacity: 0.8"/>
     <use xlink:href="#ma43998b506" x="342.777081" y="161.228384" style="fill: #348abd; fill-opacity: 0.8; stroke: #348abd; stroke-opacity: 0.8"/>
     <use xlink:href="#ma43998b506" x="66.419574" y="318.679352" style="fill: #348abd; fill-opacity: 0.8; stroke: #348abd; stroke-opacity: 0.8"/>
     <use xlink:href="#ma43998b506" x="380.910157" y="173.463341" style="fill: #348abd; fill-opacity: 0.8; stroke: #348abd; stroke-opacity: 0.8"/>
     <use xlink:href="#ma43998b506" x="236.412372" y="187.398779" style="fill: #348abd; fill-opacity: 0.8; stroke: #348abd; stroke-opacity: 0.8"/>
     <use xlink:href="#ma43998b506" x="302.828476" y="173.699816" style="fill: #348abd; fill-opacity: 0.8; stroke: #348abd; stroke-opacity: 0.8"/>
     <use xlink:href="#ma43998b506" x="309.149519" y="173.115267" style="fill: #348abd; fill-opacity: 0.8; stroke: #348abd; stroke-opacity: 0.8"/>
     <use xlink:href="#ma43998b506" x="366.413253" y="155.836122" style="fill: #348abd; fill-opacity: 0.8; stroke: #348abd; stroke-opacity: 0.8"/>
     <use xlink:href="#ma43998b506" x="468.300136" y="90.869903" style="fill: #348abd; fill-opacity: 0.8; stroke: #348abd; stroke-opacity: 0.8"/>
     <use xlink:href="#ma43998b506" x="206.055826" y="209.29194" style="fill: #348abd; fill-opacity: 0.8; stroke: #348abd; stroke-opacity: 0.8"/>
     <use xlink:href="#ma43998b506" x="373.849553" y="138.530507" style="fill: #348abd; fill-opacity: 0.8; stroke: #348abd; stroke-opacity: 0.8"/>
     <use xlink:href="#ma43998b506" x="375.959663" y="130.777308" style="fill: #348abd; fill-opacity: 0.8; stroke: #348abd; stroke-opacity: 0.8"/>
     <use xlink:href="#ma43998b506" x="164.362128" y="248.03012" style="fill: #348abd; fill-opacity: 0.8; stroke: #348abd; stroke-opacity: 0.8"/>
     <use xlink:href="#ma43998b506" x="402.289495" y="87.286518" style="fill: #348abd; fill-opacity: 0.8; stroke: #348abd; stroke-opacity: 0.8"/>
     <use xlink:href="#ma43998b506" x="322.32041" y="169.644305" style="fill: #348abd; fill-opacity: 0.8; stroke: #348abd; stroke-opacity: 0.8"/>
     <use xlink:href="#ma43998b506" x="212.321672" y="227.488818" style="fill: #348abd; fill-opacity: 0.8; stroke: #348abd; stroke-opacity: 0.8"/>
     <use xlink:href="#ma43998b506" x="351.021205" y="146.202601" style="fill: #348abd; fill-opacity: 0.8; stroke: #348abd; stroke-opacity: 0.8"/>
     <use xlink:href="#ma43998b506" x="459.158048" y="85.502582" style="fill: #348abd; fill-opacity: 0.8; stroke: #348abd; stroke-opacity: 0.8"/>
     <use xlink:href="#ma43998b506" x="294.096455" y="189.894993" style="fill: #348abd; fill-opacity: 0.8; stroke: #348abd; stroke-opacity: 0.8"/>
     <use xlink:href="#ma43998b506" x="256.723519" y="215.599872" style="fill: #348abd; fill-opacity: 0.8; stroke: #348abd; stroke-opacity: 0.8"/>
     <use xlink:href="#ma43998b506" x="541.226315" y="22.32" style="fill: #348abd; fill-opacity: 0.8; stroke: #348abd; stroke-opacity: 0.8"/>
     <use xlink:href="#ma43998b506" x="327.367569" y="150.570779" style="fill: #348abd; fill-opacity: 0.8; stroke: #348abd; stroke-opacity: 0.8"/>
     <use xlink:href="#ma43998b506" x="177.613149" y="239.307977" style="fill: #348abd; fill-opacity: 0.8; stroke: #348abd; stroke-opacity: 0.8"/>
     <use xlink:href="#ma43998b506" x="413.603178" y="138.215827" style="fill: #348abd; fill-opacity: 0.8; stroke: #348abd; stroke-opacity: 0.8"/>
     <use xlink:href="#ma43998b506" x="413.415808" y="120.787254" style="fill: #348abd; fill-opacity: 0.8; stroke: #348abd; stroke-opacity: 0.8"/>
     <use xlink:href="#ma43998b506" x="199.918764" y="195.951002" style="fill: #348abd; fill-opacity: 0.8; stroke: #348abd; stroke-opacity: 0.8"/>
     <use xlink:href="#ma43998b506" x="144.940751" y="270.968633" style="fill: #348abd; fill-opacity: 0.8; stroke: #348abd; stroke-opacity: 0.8"/>
     <use xlink:href="#ma43998b506" x="260.686643" y="236.210366" style="fill: #348abd; fill-opacity: 0.8; stroke: #348abd; stroke-opacity: 0.8"/>
     <use xlink:href="#ma43998b506" x="254.513102" y="158.406302" style="fill: #348abd; fill-opacity: 0.8; stroke: #348abd; stroke-opacity: 0.8"/>
     <use xlink:href="#ma43998b506" x="171.950157" y="232.004491" style="fill: #348abd; fill-opacity: 0.8; stroke: #348abd; stroke-opacity: 0.8"/>
     <use xlink:href="#ma43998b506" x="312.783272" y="188.910117" style="fill: #348abd; fill-opacity: 0.8; stroke: #348abd; stroke-opacity: 0.8"/>
     <use xlink:href="#ma43998b506" x="207.260592" y="233.088842" style="fill: #348abd; fill-opacity: 0.8; stroke: #348abd; stroke-opacity: 0.8"/>
     <use xlink:href="#ma43998b506" x="553.119517" y="47.956993" style="fill: #348abd; fill-opacity: 0.8; stroke: #348abd; stroke-opacity: 0.8"/>
     <use xlink:href="#ma43998b506" x="215.562422" y="231.098801" style="fill: #348abd; fill-opacity: 0.8; stroke: #348abd; stroke-opacity: 0.8"/>
     <use xlink:href="#ma43998b506" x="315.373644" y="172.298858" style="fill: #348abd; fill-opacity: 0.8; stroke: #348abd; stroke-opacity: 0.8"/>
     <use xlink:href="#ma43998b506" x="86.341005" y="324.72" style="fill: #348abd; fill-opacity: 0.8; stroke: #348abd; stroke-opacity: 0.8"/>
     <use xlink:href="#ma43998b506" x="144.959919" y="278.1232" style="fill: #348abd; fill-opacity: 0.8; stroke: #348abd; stroke-opacity: 0.8"/>
     <use xlink:href="#ma43998b506" x="157.225435" y="207.323002" style="fill: #348abd; fill-opacity: 0.8; stroke: #348abd; stroke-opacity: 0.8"/>
     <use xlink:href="#ma43998b506" x="324.542965" y="159.74218" style="fill: #348abd; fill-opacity: 0.8; stroke: #348abd; stroke-opacity: 0.8"/>
     <use xlink:href="#ma43998b506" x="242.117766" y="239.53709" style="fill: #348abd; fill-opacity: 0.8; stroke: #348abd; stroke-opacity: 0.8"/>
     <use xlink:href="#ma43998b506" x="309.032283" y="142.473254" style="fill: #348abd; fill-opacity: 0.8; stroke: #348abd; stroke-opacity: 0.8"/>
     <use xlink:href="#ma43998b506" x="300.850593" y="155.65217" style="fill: #348abd; fill-opacity: 0.8; stroke: #348abd; stroke-opacity: 0.8"/>
     <use xlink:href="#ma43998b506" x="293.484234" y="180.539501" style="fill: #348abd; fill-opacity: 0.8; stroke: #348abd; stroke-opacity: 0.8"/>
     <use xlink:href="#ma43998b506" x="348.070932" y="150.397468" style="fill: #348abd; fill-opacity: 0.8; stroke: #348abd; stroke-opacity: 0.8"/>
    </g>
   </g>
   <g id="matplotlib.axis_1">
    <g id="xtick_1">
     <g id="line2d_1">
      <path d="M 90.622868 339.84 
L 90.622868 7.2 
" clip-path="url(#p15c957e7c2)" style="fill: none; stroke-dasharray: 1.85,0.8; stroke-dashoffset: 0; stroke: #b2b2b2; stroke-width: 0.5"/>
     </g>
     <g id="line2d_2">
      <defs>
       <path id="m71a1604584" d="M 0 0 
L 0 -3.5 
" style="stroke: #000000; stroke-width: 0.8"/>
      </defs>
      <g>
       <use xlink:href="#m71a1604584" x="90.622868" y="339.84" style="stroke: #000000; stroke-width: 0.8"/>
      </g>
     </g>
     <g id="text_1">
      <!-- −2 -->
      <g transform="translate(83.251774 350.938438) scale(0.1 -0.1)">
       <defs>
        <path id="DejaVuSans-2212" d="M 678 2272 
L 4684 2272 
L 4684 1741 
L 678 1741 
L 678 2272 
z
" transform="scale(0.015625)"/>
        <path id="DejaVuSans-32" d="M 1228 531 
L 3431 531 
L 3431 0 
L 469 0 
L 469 531 
Q 828 903 1448 1529 
Q 2069 2156 2228 2338 
Q 2531 2678 2651 2914 
Q 2772 3150 2772 3378 
Q 2772 3750 2511 3984 
Q 2250 4219 1831 4219 
Q 1534 4219 1204 4116 
Q 875 4013 500 3803 
L 500 4441 
Q 881 4594 1212 4672 
Q 1544 4750 1819 4750 
Q 2544 4750 2975 4387 
Q 3406 4025 3406 3419 
Q 3406 3131 3298 2873 
Q 3191 2616 2906 2266 
Q 2828 2175 2409 1742 
Q 1991 1309 1228 531 
z
" transform="scale(0.015625)"/>
       </defs>
       <use xlink:href="#DejaVuSans-2212"/>
       <use xlink:href="#DejaVuSans-32" x="83.789062"/>
      </g>
     </g>
    </g>
    <g id="xtick_2">
     <g id="line2d_3">
      <path d="M 191.549649 339.84 
L 191.549649 7.2 
" clip-path="url(#p15c957e7c2)" style="fill: none; stroke-dasharray: 1.85,0.8; stroke-dashoffset: 0; stroke: #b2b2b2; stroke-width: 0.5"/>
     </g>
     <g id="line2d_4">
      <g>
       <use xlink:href="#m71a1604584" x="191.549649" y="339.84" style="stroke: #000000; stroke-width: 0.8"/>
      </g>
     </g>
     <g id="text_2">
      <!-- −1 -->
      <g transform="translate(184.178555 350.938438) scale(0.1 -0.1)">
       <defs>
        <path id="DejaVuSans-31" d="M 794 531 
L 1825 531 
L 1825 4091 
L 703 3866 
L 703 4441 
L 1819 4666 
L 2450 4666 
L 2450 531 
L 3481 531 
L 3481 0 
L 794 0 
L 794 531 
z
" transform="scale(0.015625)"/>
       </defs>
       <use xlink:href="#DejaVuSans-2212"/>
       <use xlink:href="#DejaVuSans-31" x="83.789062"/>
      </g>
     </g>
    </g>
    <g id="xtick_3">
     <g id="line2d_5">
      <path d="M 292.47643 339.84 
L 292.47643 7.2 
" clip-path="url(#p15c957e7c2)" style="fill: none; stroke-dasharray: 1.85,0.8; stroke-dashoffset: 0; stroke: #b2b2b2; stroke-width: 0.5"/>
     </g>
     <g id="line2d_6">
      <g>
       <use xlink:href="#m71a1604584" x="292.47643" y="339.84" style="stroke: #000000; stroke-width: 0.8"/>
      </g>
     </g>
     <g id="text_3">
      <!-- 0 -->
      <g transform="translate(289.29518 350.938438) scale(0.1 -0.1)">
       <defs>
        <path id="DejaVuSans-30" d="M 2034 4250 
Q 1547 4250 1301 3770 
Q 1056 3291 1056 2328 
Q 1056 1369 1301 889 
Q 1547 409 2034 409 
Q 2525 409 2770 889 
Q 3016 1369 3016 2328 
Q 3016 3291 2770 3770 
Q 2525 4250 2034 4250 
z
M 2034 4750 
Q 2819 4750 3233 4129 
Q 3647 3509 3647 2328 
Q 3647 1150 3233 529 
Q 2819 -91 2034 -91 
Q 1250 -91 836 529 
Q 422 1150 422 2328 
Q 422 3509 836 4129 
Q 1250 4750 2034 4750 
z
" transform="scale(0.015625)"/>
       </defs>
       <use xlink:href="#DejaVuSans-30"/>
      </g>
     </g>
    </g>
    <g id="xtick_4">
     <g id="line2d_7">
      <path d="M 393.403211 339.84 
L 393.403211 7.2 
" clip-path="url(#p15c957e7c2)" style="fill: none; stroke-dasharray: 1.85,0.8; stroke-dashoffset: 0; stroke: #b2b2b2; stroke-width: 0.5"/>
     </g>
     <g id="line2d_8">
      <g>
       <use xlink:href="#m71a1604584" x="393.403211" y="339.84" style="stroke: #000000; stroke-width: 0.8"/>
      </g>
     </g>
     <g id="text_4">
      <!-- 1 -->
      <g transform="translate(390.221961 350.938438) scale(0.1 -0.1)">
       <use xlink:href="#DejaVuSans-31"/>
      </g>
     </g>
    </g>
    <g id="xtick_5">
     <g id="line2d_9">
      <path d="M 494.329993 339.84 
L 494.329993 7.2 
" clip-path="url(#p15c957e7c2)" style="fill: none; stroke-dasharray: 1.85,0.8; stroke-dashoffset: 0; stroke: #b2b2b2; stroke-width: 0.5"/>
     </g>
     <g id="line2d_10">
      <g>
       <use xlink:href="#m71a1604584" x="494.329993" y="339.84" style="stroke: #000000; stroke-width: 0.8"/>
      </g>
     </g>
     <g id="text_5">
      <!-- 2 -->
      <g transform="translate(491.148743 350.938438) scale(0.1 -0.1)">
       <use xlink:href="#DejaVuSans-32"/>
      </g>
     </g>
    </g>
    <g id="xtick_6">
     <g id="line2d_11">
      <path d="M 595.256774 339.84 
L 595.256774 7.2 
" clip-path="url(#p15c957e7c2)" style="fill: none; stroke-dasharray: 1.85,0.8; stroke-dashoffset: 0; stroke: #b2b2b2; stroke-width: 0.5"/>
     </g>
     <g id="line2d_12">
      <g>
       <use xlink:href="#m71a1604584" x="595.256774" y="339.84" style="stroke: #000000; stroke-width: 0.8"/>
      </g>
     </g>
     <g id="text_6">
      <!-- 3 -->
      <g transform="translate(592.075524 350.938438) scale(0.1 -0.1)">
       <defs>
        <path id="DejaVuSans-33" d="M 2597 2516 
Q 3050 2419 3304 2112 
Q 3559 1806 3559 1356 
Q 3559 666 3084 287 
Q 2609 -91 1734 -91 
Q 1441 -91 1130 -33 
Q 819 25 488 141 
L 488 750 
Q 750 597 1062 519 
Q 1375 441 1716 441 
Q 2309 441 2620 675 
Q 2931 909 2931 1356 
Q 2931 1769 2642 2001 
Q 2353 2234 1838 2234 
L 1294 2234 
L 1294 2753 
L 1863 2753 
Q 2328 2753 2575 2939 
Q 2822 3125 2822 3475 
Q 2822 3834 2567 4026 
Q 2313 4219 1838 4219 
Q 1578 4219 1281 4162 
Q 984 4106 628 3988 
L 628 4550 
Q 988 4650 1302 4700 
Q 1616 4750 1894 4750 
Q 2613 4750 3031 4423 
Q 3450 4097 3450 3541 
Q 3450 3153 3228 2886 
Q 3006 2619 2597 2516 
z
" transform="scale(0.015625)"/>
       </defs>
       <use xlink:href="#DejaVuSans-33"/>
      </g>
     </g>
    </g>
    <g id="text_7">
     <!-- x -->
     <g transform="translate(316.504688 366.13625) scale(0.12 -0.12)">
      <defs>
       <path id="DejaVuSans-78" d="M 3513 3500 
L 2247 1797 
L 3578 0 
L 2900 0 
L 1881 1375 
L 863 0 
L 184 0 
L 1544 1831 
L 300 3500 
L 978 3500 
L 1906 2253 
L 2834 3500 
L 3513 3500 
z
" transform="scale(0.015625)"/>
      </defs>
      <use xlink:href="#DejaVuSans-78"/>
     </g>
    </g>
   </g>
   <g id="matplotlib.axis_2">
    <g id="ytick_1">
     <g id="line2d_13">
      <path d="M 41.055937 322.81318 
L 599.055938 322.81318 
" clip-path="url(#p15c957e7c2)" style="fill: none; stroke-dasharray: 1.85,0.8; stroke-dashoffset: 0; stroke: #b2b2b2; stroke-width: 0.5"/>
     </g>
     <g id="line2d_14">
      <defs>
       <path id="mb7f89e83a2" d="M 0 0 
L 3.5 0 
" style="stroke: #000000; stroke-width: 0.8"/>
      </defs>
      <g>
       <use xlink:href="#mb7f89e83a2" x="41.055937" y="322.81318" style="stroke: #000000; stroke-width: 0.8"/>
      </g>
     </g>
     <g id="text_8">
      <!-- −6 -->
      <g transform="translate(22.81375 326.612399) scale(0.1 -0.1)">
       <defs>
        <path id="DejaVuSans-36" d="M 2113 2584 
Q 1688 2584 1439 2293 
Q 1191 2003 1191 1497 
Q 1191 994 1439 701 
Q 1688 409 2113 409 
Q 2538 409 2786 701 
Q 3034 994 3034 1497 
Q 3034 2003 2786 2293 
Q 2538 2584 2113 2584 
z
M 3366 4563 
L 3366 3988 
Q 3128 4100 2886 4159 
Q 2644 4219 2406 4219 
Q 1781 4219 1451 3797 
Q 1122 3375 1075 2522 
Q 1259 2794 1537 2939 
Q 1816 3084 2150 3084 
Q 2853 3084 3261 2657 
Q 3669 2231 3669 1497 
Q 3669 778 3244 343 
Q 2819 -91 2113 -91 
Q 1303 -91 875 529 
Q 447 1150 447 2328 
Q 447 3434 972 4092 
Q 1497 4750 2381 4750 
Q 2619 4750 2861 4703 
Q 3103 4656 3366 4563 
z
" transform="scale(0.015625)"/>
       </defs>
       <use xlink:href="#DejaVuSans-2212"/>
       <use xlink:href="#DejaVuSans-36" x="83.789062"/>
      </g>
     </g>
    </g>
    <g id="ytick_2">
     <g id="line2d_15">
      <path d="M 41.055937 283.842412 
L 599.055938 283.842412 
" clip-path="url(#p15c957e7c2)" style="fill: none; stroke-dasharray: 1.85,0.8; stroke-dashoffset: 0; stroke: #b2b2b2; stroke-width: 0.5"/>
     </g>
     <g id="line2d_16">
      <g>
       <use xlink:href="#mb7f89e83a2" x="41.055937" y="283.842412" style="stroke: #000000; stroke-width: 0.8"/>
      </g>
     </g>
     <g id="text_9">
      <!-- −4 -->
      <g transform="translate(22.81375 287.641631) scale(0.1 -0.1)">
       <defs>
        <path id="DejaVuSans-34" d="M 2419 4116 
L 825 1625 
L 2419 1625 
L 2419 4116 
z
M 2253 4666 
L 3047 4666 
L 3047 1625 
L 3713 1625 
L 3713 1100 
L 3047 1100 
L 3047 0 
L 2419 0 
L 2419 1100 
L 313 1100 
L 313 1709 
L 2253 4666 
z
" transform="scale(0.015625)"/>
       </defs>
       <use xlink:href="#DejaVuSans-2212"/>
       <use xlink:href="#DejaVuSans-34" x="83.789062"/>
      </g>
     </g>
    </g>
    <g id="ytick_3">
     <g id="line2d_17">
      <path d="M 41.055937 244.871644 
L 599.055938 244.871644 
" clip-path="url(#p15c957e7c2)" style="fill: none; stroke-dasharray: 1.85,0.8; stroke-dashoffset: 0; stroke: #b2b2b2; stroke-width: 0.5"/>
     </g>
     <g id="line2d_18">
      <g>
       <use xlink:href="#mb7f89e83a2" x="41.055937" y="244.871644" style="stroke: #000000; stroke-width: 0.8"/>
      </g>
     </g>
     <g id="text_10">
      <!-- −2 -->
      <g transform="translate(22.81375 248.670863) scale(0.1 -0.1)">
       <use xlink:href="#DejaVuSans-2212"/>
       <use xlink:href="#DejaVuSans-32" x="83.789062"/>
      </g>
     </g>
    </g>
    <g id="ytick_4">
     <g id="line2d_19">
      <path d="M 41.055937 205.900875 
L 599.055938 205.900875 
" clip-path="url(#p15c957e7c2)" style="fill: none; stroke-dasharray: 1.85,0.8; stroke-dashoffset: 0; stroke: #b2b2b2; stroke-width: 0.5"/>
     </g>
     <g id="line2d_20">
      <g>
       <use xlink:href="#mb7f89e83a2" x="41.055937" y="205.900875" style="stroke: #000000; stroke-width: 0.8"/>
      </g>
     </g>
     <g id="text_11">
      <!-- 0 -->
      <g transform="translate(31.193437 209.700094) scale(0.1 -0.1)">
       <use xlink:href="#DejaVuSans-30"/>
      </g>
     </g>
    </g>
    <g id="ytick_5">
     <g id="line2d_21">
      <path d="M 41.055937 166.930107 
L 599.055938 166.930107 
" clip-path="url(#p15c957e7c2)" style="fill: none; stroke-dasharray: 1.85,0.8; stroke-dashoffset: 0; stroke: #b2b2b2; stroke-width: 0.5"/>
     </g>
     <g id="line2d_22">
      <g>
       <use xlink:href="#mb7f89e83a2" x="41.055937" y="166.930107" style="stroke: #000000; stroke-width: 0.8"/>
      </g>
     </g>
     <g id="text_12">
      <!-- 2 -->
      <g transform="translate(31.193437 170.729326) scale(0.1 -0.1)">
       <use xlink:href="#DejaVuSans-32"/>
      </g>
     </g>
    </g>
    <g id="ytick_6">
     <g id="line2d_23">
      <path d="M 41.055937 127.959339 
L 599.055938 127.959339 
" clip-path="url(#p15c957e7c2)" style="fill: none; stroke-dasharray: 1.85,0.8; stroke-dashoffset: 0; stroke: #b2b2b2; stroke-width: 0.5"/>
     </g>
     <g id="line2d_24">
      <g>
       <use xlink:href="#mb7f89e83a2" x="41.055937" y="127.959339" style="stroke: #000000; stroke-width: 0.8"/>
      </g>
     </g>
     <g id="text_13">
      <!-- 4 -->
      <g transform="translate(31.193437 131.758558) scale(0.1 -0.1)">
       <use xlink:href="#DejaVuSans-34"/>
      </g>
     </g>
    </g>
    <g id="ytick_7">
     <g id="line2d_25">
      <path d="M 41.055937 88.98857 
L 599.055938 88.98857 
" clip-path="url(#p15c957e7c2)" style="fill: none; stroke-dasharray: 1.85,0.8; stroke-dashoffset: 0; stroke: #b2b2b2; stroke-width: 0.5"/>
     </g>
     <g id="line2d_26">
      <g>
       <use xlink:href="#mb7f89e83a2" x="41.055937" y="88.98857" style="stroke: #000000; stroke-width: 0.8"/>
      </g>
     </g>
     <g id="text_14">
      <!-- 6 -->
      <g transform="translate(31.193437 92.787789) scale(0.1 -0.1)">
       <use xlink:href="#DejaVuSans-36"/>
      </g>
     </g>
    </g>
    <g id="ytick_8">
     <g id="line2d_27">
      <path d="M 41.055937 50.017802 
L 599.055938 50.017802 
" clip-path="url(#p15c957e7c2)" style="fill: none; stroke-dasharray: 1.85,0.8; stroke-dashoffset: 0; stroke: #b2b2b2; stroke-width: 0.5"/>
     </g>
     <g id="line2d_28">
      <g>
       <use xlink:href="#mb7f89e83a2" x="41.055937" y="50.017802" style="stroke: #000000; stroke-width: 0.8"/>
      </g>
     </g>
     <g id="text_15">
      <!-- 8 -->
      <g transform="translate(31.193437 53.817021) scale(0.1 -0.1)">
       <defs>
        <path id="DejaVuSans-38" d="M 2034 2216 
Q 1584 2216 1326 1975 
Q 1069 1734 1069 1313 
Q 1069 891 1326 650 
Q 1584 409 2034 409 
Q 2484 409 2743 651 
Q 3003 894 3003 1313 
Q 3003 1734 2745 1975 
Q 2488 2216 2034 2216 
z
M 1403 2484 
Q 997 2584 770 2862 
Q 544 3141 544 3541 
Q 544 4100 942 4425 
Q 1341 4750 2034 4750 
Q 2731 4750 3128 4425 
Q 3525 4100 3525 3541 
Q 3525 3141 3298 2862 
Q 3072 2584 2669 2484 
Q 3125 2378 3379 2068 
Q 3634 1759 3634 1313 
Q 3634 634 3220 271 
Q 2806 -91 2034 -91 
Q 1263 -91 848 271 
Q 434 634 434 1313 
Q 434 1759 690 2068 
Q 947 2378 1403 2484 
z
M 1172 3481 
Q 1172 3119 1398 2916 
Q 1625 2713 2034 2713 
Q 2441 2713 2670 2916 
Q 2900 3119 2900 3481 
Q 2900 3844 2670 4047 
Q 2441 4250 2034 4250 
Q 1625 4250 1398 4047 
Q 1172 3844 1172 3481 
z
" transform="scale(0.015625)"/>
       </defs>
       <use xlink:href="#DejaVuSans-38"/>
      </g>
     </g>
    </g>
    <g id="ytick_9">
     <g id="line2d_29">
      <path d="M 41.055937 11.047034 
L 599.055938 11.047034 
" clip-path="url(#p15c957e7c2)" style="fill: none; stroke-dasharray: 1.85,0.8; stroke-dashoffset: 0; stroke: #b2b2b2; stroke-width: 0.5"/>
     </g>
     <g id="line2d_30">
      <g>
       <use xlink:href="#mb7f89e83a2" x="41.055937" y="11.047034" style="stroke: #000000; stroke-width: 0.8"/>
      </g>
     </g>
     <g id="text_16">
      <!-- 10 -->
      <g transform="translate(24.830937 14.846253) scale(0.1 -0.1)">
       <use xlink:href="#DejaVuSans-31"/>
       <use xlink:href="#DejaVuSans-30" x="63.623047"/>
      </g>
     </g>
    </g>
    <g id="text_17">
     <!-- y -->
     <g transform="translate(16.318125 177.07125) rotate(-90) scale(0.12 -0.12)">
      <defs>
       <path id="DejaVuSans-79" d="M 2059 -325 
Q 1816 -950 1584 -1140 
Q 1353 -1331 966 -1331 
L 506 -1331 
L 506 -850 
L 844 -850 
Q 1081 -850 1212 -737 
Q 1344 -625 1503 -206 
L 1606 56 
L 191 3500 
L 800 3500 
L 1894 763 
L 2988 3500 
L 3597 3500 
L 2059 -325 
z
" transform="scale(0.015625)"/>
      </defs>
      <use xlink:href="#DejaVuSans-79"/>
     </g>
    </g>
   </g>
   <g id="line2d_31">
    <path d="M 66.419574 299.297222 
L 71.543541 296.663112 
L 76.667508 294.029002 
L 81.791475 291.394892 
L 86.915442 288.760781 
L 92.039409 286.126671 
L 97.163376 283.492561 
L 102.287342 280.858451 
L 107.411309 278.22434 
L 112.535276 275.59023 
L 117.659243 272.95612 
L 122.78321 270.322009 
L 127.907177 267.687899 
L 133.031144 265.053789 
L 138.155111 262.419679 
L 143.279078 259.785568 
L 148.403045 257.151458 
L 153.527012 254.517348 
L 158.650979 251.883238 
L 163.774946 249.249127 
L 168.898913 246.615017 
L 174.02288 243.980907 
L 179.146847 241.346796 
L 184.270814 238.712686 
L 189.39478 236.078576 
L 194.518747 233.444466 
L 199.642714 230.810355 
L 204.766681 228.176245 
L 209.890648 225.542135 
L 215.014615 222.908024 
L 220.138582 220.273914 
L 225.262549 217.639804 
L 230.386516 215.005694 
L 235.510483 212.371583 
L 240.63445 209.737473 
L 245.758417 207.103363 
L 250.882384 204.469253 
L 256.006351 201.835142 
L 261.130318 199.201032 
L 266.254285 196.566922 
L 271.378252 193.932811 
L 276.502218 191.298701 
L 281.626185 188.664591 
L 286.750152 186.030481 
L 291.874119 183.39637 
L 296.998086 180.76226 
L 302.122053 178.12815 
L 307.24602 175.49404 
L 312.369987 172.859929 
L 317.493954 170.225819 
L 322.617921 167.591709 
L 327.741888 164.957598 
L 332.865855 162.323488 
L 337.989822 159.689378 
L 343.113789 157.055268 
L 348.237756 154.421157 
L 353.361723 151.787047 
L 358.48569 149.152937 
L 363.609657 146.518826 
L 368.733623 143.884716 
L 373.85759 141.250606 
L 378.981557 138.616496 
L 384.105524 135.982385 
L 389.229491 133.348275 
L 394.353458 130.714165 
L 399.477425 128.080055 
L 404.601392 125.445944 
L 409.725359 122.811834 
L 414.849326 120.177724 
L 419.973293 117.543613 
L 425.09726 114.909503 
L 430.221227 112.275393 
L 435.345194 109.641283 
L 440.469161 107.007172 
L 445.593128 104.373062 
L 450.717095 101.738952 
L 455.841061 99.104842 
L 460.965028 96.470731 
L 466.088995 93.836621 
L 471.212962 91.202511 
L 476.336929 88.5684 
L 481.460896 85.93429 
L 486.584863 83.30018 
L 491.70883 80.66607 
L 496.832797 78.031959 
L 501.956764 75.397849 
L 507.080731 72.763739 
L 512.204698 70.129628 
L 517.328665 67.495518 
L 522.452632 64.861408 
L 527.576599 62.227298 
L 532.700566 59.593187 
L 537.824533 56.959077 
L 542.948499 54.324967 
L 548.072466 51.690857 
L 553.196433 49.056746 
L 558.3204 46.422636 
L 563.444367 43.788526 
L 568.568334 41.154415 
L 573.692301 38.520305 
" clip-path="url(#p15c957e7c2)" style="fill: none; stroke: #348abd; stroke-width: 3; stroke-linecap: square"/>
   </g>
   <g id="patch_3">
    <path d="M 41.055937 339.84 
L 41.055937 7.2 
" style="fill: none; stroke: #bcbcbc; stroke-width: 0.8; stroke-linejoin: miter; stroke-linecap: square"/>
   </g>
   <g id="patch_4">
    <path d="M 599.055938 339.84 
L 599.055938 7.2 
" style="fill: none; stroke: #bcbcbc; stroke-width: 0.8; stroke-linejoin: miter; stroke-linecap: square"/>
   </g>
   <g id="patch_5">
    <path d="M 41.055937 339.84 
L 599.055938 339.84 
" style="fill: none; stroke: #bcbcbc; stroke-width: 0.8; stroke-linejoin: miter; stroke-linecap: square"/>
   </g>
   <g id="patch_6">
    <path d="M 41.055937 7.2 
L 599.055938 7.2 
" style="fill: none; stroke: #bcbcbc; stroke-width: 0.8; stroke-linejoin: miter; stroke-linecap: square"/>
   </g>
  </g>
 </g>
 <defs>
  <clipPath id="p15c957e7c2">
   <rect x="41.055937" y="7.2" width="558" height="332.64"/>
  </clipPath>
 </defs>
</svg>