<?xml version="1.0" encoding="utf-8" standalone="no"?>
<!DOCTYPE svg PUBLIC "-//W3C//DTD SVG 1.1//EN"
  "http://www.w3.org/Graphics/SVG/1.1/DTD/svg11.dtd">
<svg xmlns:xlink="http://www.w3.org/1999/xlink" width="572.4pt" height="378.189219pt" viewBox="0 0 572.4 378.189219" xmlns="http://www.w3.org/2000/svg" version="1.1">
 <metadata>
  <rdf:RDF xmlns:dc="http://purl.org/dc/elements/1.1/" xmlns:cc="http://creativecommons.org/ns#" xmlns:rdf="http://www.w3.org/1999/02/22-rdf-syntax-ns#">
   <cc:Work>
    <dc:type rdf:resource="http://purl.org/dc/dcmitype/StillImage"/>
    <dc:date>2023-05-29T11:57:31.074069</dc:date>
    <dc:format>image/svg+xml</dc:format>
    <dc:creator>
     <cc:Agent>
      <dc:title>Matplotlib v3.7.1, https://matplotlib.org/</dc:title>
     </cc:Agent>
    </dc:creator>
   </cc:Work>
  </rdf:RDF>
 </metadata>
 <defs>
  <style type="text/css">*{stroke-linejoin: round; stroke-linecap: butt}</style>
 </defs>
 <g id="figure_1">
  <g id="patch_1">
   <path d="M 0 378.189219 
L 572.4 378.189219 
L 572.4 0 
L 0 0 
z
" style="fill: #ffffff"/>
  </g>
  <g id="axes_1">
   <g id="patch_2">
    <path d="M 7.2 354.429375 
L 565.2 354.429375 
L 565.2 21.789375 
L 7.2 21.789375 
z
" style="fill: #eaeaf2"/>
   </g>
   <g id="matplotlib.axis_1">
    <g id="xtick_1">
     <g id="line2d_1">
      <path d="M 68.383211 354.429375 
L 68.383211 21.789375 
" clip-path="url(#pf900db5029)" style="fill: none; stroke: #ffffff; stroke-linecap: round"/>
     </g>
     <g id="line2d_2">
      <defs>
       <path id="m6a429a2494" d="M 0 0 
L 0 3 
" style="stroke: #808080"/>
      </defs>
      <g>
       <use xlink:href="#m6a429a2494" x="68.383211" y="354.429375" style="fill: #808080; stroke: #808080"/>
      </g>
     </g>
     <g id="text_1">
      <!-- 5 -->
      <g style="fill: #262626" transform="translate(65.324696 368.802969) scale(0.11 -0.11)">
       <defs>
        <path id="ArialMT-35" d="M 266 1200 
L 856 1250 
Q 922 819 1161 601 
Q 1400 384 1738 384 
Q 2144 384 2425 690 
Q 2706 997 2706 1503 
Q 2706 1984 2436 2262 
Q 2166 2541 1728 2541 
Q 1456 2541 1237 2417 
Q 1019 2294 894 2097 
L 366 2166 
L 809 4519 
L 3088 4519 
L 3088 3981 
L 1259 3981 
L 1013 2750 
Q 1425 3038 1878 3038 
Q 2478 3038 2890 2622 
Q 3303 2206 3303 1553 
Q 3303 931 2941 478 
Q 2500 -78 1738 -78 
Q 1113 -78 717 272 
Q 322 622 266 1200 
z
" transform="scale(0.015625)"/>
       </defs>
       <use xlink:href="#ArialMT-35"/>
      </g>
     </g>
    </g>
    <g id="xtick_2">
     <g id="line2d_3">
      <path d="M 179.347371 354.429375 
L 179.347371 21.789375 
" clip-path="url(#pf900db5029)" style="fill: none; stroke: #ffffff; stroke-linecap: round"/>
     </g>
     <g id="line2d_4">
      <g>
       <use xlink:href="#m6a429a2494" x="179.347371" y="354.429375" style="fill: #808080; stroke: #808080"/>
      </g>
     </g>
     <g id="text_2">
      <!-- 10 -->
      <g style="fill: #262626" transform="translate(173.23034 368.802969) scale(0.11 -0.11)">
       <defs>
        <path id="ArialMT-31" d="M 2384 0 
L 1822 0 
L 1822 3584 
Q 1619 3391 1289 3197 
Q 959 3003 697 2906 
L 697 3450 
Q 1169 3672 1522 3987 
Q 1875 4303 2022 4600 
L 2384 4600 
L 2384 0 
z
" transform="scale(0.015625)"/>
        <path id="ArialMT-30" d="M 266 2259 
Q 266 3072 433 3567 
Q 600 4063 929 4331 
Q 1259 4600 1759 4600 
Q 2128 4600 2406 4451 
Q 2684 4303 2865 4023 
Q 3047 3744 3150 3342 
Q 3253 2941 3253 2259 
Q 3253 1453 3087 958 
Q 2922 463 2592 192 
Q 2263 -78 1759 -78 
Q 1097 -78 719 397 
Q 266 969 266 2259 
z
M 844 2259 
Q 844 1131 1108 757 
Q 1372 384 1759 384 
Q 2147 384 2411 759 
Q 2675 1134 2675 2259 
Q 2675 3391 2411 3762 
Q 2147 4134 1753 4134 
Q 1366 4134 1134 3806 
Q 844 3388 844 2259 
z
" transform="scale(0.015625)"/>
       </defs>
       <use xlink:href="#ArialMT-31"/>
       <use xlink:href="#ArialMT-30" x="55.615234"/>
      </g>
     </g>
    </g>
    <g id="xtick_3">
     <g id="line2d_5">
      <path d="M 290.311531 354.429375 
L 290.311531 21.789375 
" clip-path="url(#pf900db5029)" style="fill: none; stroke: #ffffff; stroke-linecap: round"/>
     </g>
     <g id="line2d_6">
      <g>
       <use xlink:href="#m6a429a2494" x="290.311531" y="354.429375" style="fill: #808080; stroke: #808080"/>
      </g>
     </g>
     <g id="text_3">
      <!-- 15 -->
      <g style="fill: #262626" transform="translate(284.1945 368.802969) scale(0.11 -0.11)">
       <use xlink:href="#ArialMT-31"/>
       <use xlink:href="#ArialMT-35" x="55.615234"/>
      </g>
     </g>
    </g>
    <g id="xtick_4">
     <g id="line2d_7">
      <path d="M 401.275691 354.429375 
L 401.275691 21.789375 
" clip-path="url(#pf900db5029)" style="fill: none; stroke: #ffffff; stroke-linecap: round"/>
     </g>
     <g id="line2d_8">
      <g>
       <use xlink:href="#m6a429a2494" x="401.275691" y="354.429375" style="fill: #808080; stroke: #808080"/>
      </g>
     </g>
     <g id="text_4">
      <!-- 20 -->
      <g style="fill: #262626" transform="translate(395.15866 368.802969) scale(0.11 -0.11)">
       <defs>
        <path id="ArialMT-32" d="M 3222 541 
L 3222 0 
L 194 0 
Q 188 203 259 391 
Q 375 700 629 1000 
Q 884 1300 1366 1694 
Q 2113 2306 2375 2664 
Q 2638 3022 2638 3341 
Q 2638 3675 2398 3904 
Q 2159 4134 1775 4134 
Q 1369 4134 1125 3890 
Q 881 3647 878 3216 
L 300 3275 
Q 359 3922 746 4261 
Q 1134 4600 1788 4600 
Q 2447 4600 2831 4234 
Q 3216 3869 3216 3328 
Q 3216 3053 3103 2787 
Q 2991 2522 2730 2228 
Q 2469 1934 1863 1422 
Q 1356 997 1212 845 
Q 1069 694 975 541 
L 3222 541 
z
" transform="scale(0.015625)"/>
       </defs>
       <use xlink:href="#ArialMT-32"/>
       <use xlink:href="#ArialMT-30" x="55.615234"/>
      </g>
     </g>
    </g>
    <g id="xtick_5">
     <g id="line2d_9">
      <path d="M 512.239851 354.429375 
L 512.239851 21.789375 
" clip-path="url(#pf900db5029)" style="fill: none; stroke: #ffffff; stroke-linecap: round"/>
     </g>
     <g id="line2d_10">
      <g>
       <use xlink:href="#m6a429a2494" x="512.239851" y="354.429375" style="fill: #808080; stroke: #808080"/>
      </g>
     </g>
     <g id="text_5">
      <!-- 25 -->
      <g style="fill: #262626" transform="translate(506.12282 368.802969) scale(0.11 -0.11)">
       <use xlink:href="#ArialMT-32"/>
       <use xlink:href="#ArialMT-35" x="55.615234"/>
      </g>
     </g>
    </g>
   </g>
   <g id="matplotlib.axis_2"/>
   <g id="PolyCollection_1">
    <defs>
     <path id="m215ff39940" d="M 32.563636 -38.879844 
L 32.563636 -42.305407 
L 33.556342 -42.315492 
L 34.549048 -42.343709 
L 35.541754 -42.384504 
L 36.53446 -42.453578 
L 37.527166 -42.538333 
L 38.519872 -42.642986 
L 39.512578 -42.76409 
L 40.505284 -42.901069 
L 41.49799 -43.067274 
L 42.490696 -43.249985 
L 43.483402 -43.448309 
L 44.476107 -43.669461 
L 45.468813 -43.910727 
L 46.461519 -44.162813 
L 47.454225 -44.443686 
L 48.446931 -44.741109 
L 49.439637 -45.058831 
L 50.432343 -45.415018 
L 51.425049 -45.802892 
L 52.417755 -46.209923 
L 53.410461 -46.649983 
L 54.403167 -47.123795 
L 55.395873 -47.628305 
L 56.388579 -48.18406 
L 57.381284 -48.762267 
L 58.37399 -49.378244 
L 59.366696 -50.042359 
L 60.359402 -50.752926 
L 61.352108 -51.506478 
L 62.344814 -52.307121 
L 63.33752 -53.154381 
L 64.330226 -54.043213 
L 65.322932 -54.982128 
L 66.315638 -55.98034 
L 67.308344 -57.015923 
L 68.30105 -58.094573 
L 69.293756 -59.226583 
L 70.286461 -60.403811 
L 71.279167 -61.639839 
L 72.271873 -62.925335 
L 73.264579 -64.270527 
L 74.257285 -65.639689 
L 75.249991 -67.061695 
L 76.242697 -68.522554 
L 77.235403 -70.031384 
L 78.228109 -71.578922 
L 79.220815 -73.173173 
L 80.213521 -74.818394 
L 81.206227 -76.512092 
L 82.198933 -78.234734 
L 83.191638 -79.998297 
L 84.184344 -81.796164 
L 85.17705 -83.652513 
L 86.169756 -85.535082 
L 87.162462 -87.447213 
L 88.155168 -89.413344 
L 89.147874 -91.422158 
L 90.14058 -93.474942 
L 91.133286 -95.564644 
L 92.125992 -97.680322 
L 93.118698 -99.854942 
L 94.111404 -102.070779 
L 95.10411 -104.309516 
L 96.096816 -106.599534 
L 97.089521 -108.926721 
L 98.082227 -111.274999 
L 99.074933 -113.683489 
L 100.067639 -116.108952 
L 101.060345 -118.581042 
L 102.053051 -121.086069 
L 103.045757 -123.644154 
L 104.038463 -126.214664 
L 105.031169 -128.827373 
L 106.023875 -131.484459 
L 107.016581 -134.181304 
L 108.009287 -136.901504 
L 109.001993 -139.647456 
L 109.994698 -142.425674 
L 110.987404 -145.219051 
L 111.98011 -148.035352 
L 112.972816 -150.87841 
L 113.965522 -153.741329 
L 114.958228 -156.60219 
L 115.950934 -159.512604 
L 116.94364 -162.433654 
L 117.936346 -165.368534 
L 118.929052 -168.310738 
L 119.921758 -171.287758 
L 120.914464 -174.269668 
L 121.90717 -177.27608 
L 122.899875 -180.298982 
L 123.892581 -183.311807 
L 124.885287 -186.366662 
L 125.877993 -189.4467 
L 126.870699 -192.547163 
L 127.863405 -195.663687 
L 128.856111 -198.823227 
L 129.848817 -201.980004 
L 130.841523 -205.208667 
L 131.834229 -208.440593 
L 132.826935 -211.689608 
L 133.819641 -214.941726 
L 134.812347 -218.236721 
L 135.805052 -221.540307 
L 136.797758 -224.819138 
L 137.790464 -228.127935 
L 138.78317 -231.414459 
L 139.775876 -234.682899 
L 140.768582 -237.929413 
L 141.761288 -241.145605 
L 142.753994 -244.310865 
L 143.7467 -247.428348 
L 144.739406 -250.464365 
L 145.732112 -253.467761 
L 146.724818 -256.370986 
L 147.717524 -259.232289 
L 148.710229 -262.004284 
L 149.702935 -264.694214 
L 150.695641 -267.321821 
L 151.688347 -269.836928 
L 152.681053 -272.282207 
L 153.673759 -274.63096 
L 154.666465 -276.895795 
L 155.659171 -279.11656 
L 156.651877 -281.276488 
L 157.644583 -283.349205 
L 158.637289 -285.329595 
L 159.629995 -287.247854 
L 160.622701 -289.091395 
L 161.615407 -290.876441 
L 162.608112 -292.586036 
L 163.600818 -294.224281 
L 164.593524 -295.81088 
L 165.58623 -297.321334 
L 166.578936 -298.73996 
L 167.571642 -300.095671 
L 168.564348 -301.385583 
L 169.557054 -302.622742 
L 170.54976 -303.740898 
L 171.542466 -304.831028 
L 172.535172 -305.82815 
L 173.527878 -306.787027 
L 174.520584 -307.662091 
L 175.513289 -308.517408 
L 176.505995 -309.282321 
L 177.498701 -310.034595 
L 178.491407 -310.746921 
L 179.484113 -311.452117 
L 180.476819 -312.122461 
L 181.469525 -312.811931 
L 182.462231 -313.534679 
L 183.454937 -314.235779 
L 184.447643 -314.985205 
L 185.440349 -315.767413 
L 186.433055 -316.599356 
L 187.425761 -317.465696 
L 188.418466 -318.402436 
L 189.411172 -319.346947 
L 190.403878 -320.371249 
L 191.396584 -321.42997 
L 192.38929 -322.536134 
L 193.381996 -323.679028 
L 194.374702 -324.85258 
L 195.367408 -326.064954 
L 196.360114 -327.283859 
L 197.35282 -328.534203 
L 198.345526 -329.77841 
L 199.338232 -331.018178 
L 200.330938 -332.210436 
L 201.323643 -333.397573 
L 202.316349 -334.506756 
L 203.309055 -335.573298 
L 204.301761 -336.541615 
L 205.294467 -337.466356 
L 206.287173 -338.298216 
L 207.279879 -339.05688 
L 208.272585 -339.714714 
L 209.265291 -340.243696 
L 210.257997 -340.684376 
L 211.250703 -340.986874 
L 212.243409 -341.194218 
L 213.236115 -341.279844 
L 214.22882 -341.258712 
L 215.221526 -341.137962 
L 216.214232 -340.884439 
L 217.206938 -340.520155 
L 218.199644 -340.079318 
L 219.19235 -339.494155 
L 220.185056 -338.861316 
L 221.177762 -338.135394 
L 222.170468 -337.357572 
L 223.163174 -336.474989 
L 224.15588 -335.50949 
L 225.148586 -334.513682 
L 226.141292 -333.424148 
L 227.133998 -332.305575 
L 228.126703 -331.108435 
L 229.119409 -329.839967 
L 230.112115 -328.499027 
L 231.104821 -327.114677 
L 232.097527 -325.669489 
L 233.090233 -324.168821 
L 234.082939 -322.590999 
L 235.075645 -320.935943 
L 236.068351 -319.238836 
L 237.061057 -317.482688 
L 238.053763 -315.635206 
L 239.046469 -313.747426 
L 240.039175 -311.801053 
L 241.03188 -309.793153 
L 242.024586 -307.761619 
L 243.017292 -305.642327 
L 244.009998 -303.550673 
L 245.002704 -301.402506 
L 245.99541 -299.23964 
L 246.988116 -297.07328 
L 247.980822 -294.911674 
L 248.973528 -292.728814 
L 249.966234 -290.593489 
L 250.95894 -288.475823 
L 251.951646 -286.364185 
L 252.944352 -284.263645 
L 253.937057 -282.218507 
L 254.929763 -280.167323 
L 255.922469 -278.117781 
L 256.915175 -276.127374 
L 257.907881 -274.114207 
L 258.900587 -272.094741 
L 259.893293 -270.052682 
L 260.885999 -268.023887 
L 261.878705 -265.951265 
L 262.871411 -263.858316 
L 263.864117 -261.729417 
L 264.856823 -259.567471 
L 265.849529 -257.37533 
L 266.842234 -255.120576 
L 267.83494 -252.814841 
L 268.827646 -250.459437 
L 269.820352 -248.07046 
L 270.813058 -245.639498 
L 271.805764 -243.151974 
L 272.79847 -240.654564 
L 273.791176 -238.141089 
L 274.783882 -235.587927 
L 275.776588 -233.041517 
L 276.769294 -230.483291 
L 277.762 -227.933057 
L 278.754706 -225.374509 
L 279.747411 -222.805934 
L 280.740117 -220.251612 
L 281.732823 -217.71287 
L 282.725529 -215.221004 
L 283.718235 -212.746953 
L 284.710941 -210.278397 
L 285.703647 -207.826533 
L 286.696353 -205.406368 
L 287.689059 -203.007692 
L 288.681765 -200.640419 
L 289.674471 -198.313641 
L 290.667177 -196.021997 
L 291.659883 -193.754644 
L 292.652589 -191.534812 
L 293.645294 -189.325922 
L 294.638 -187.16126 
L 295.630706 -185.030369 
L 296.623412 -182.993042 
L 297.616118 -180.991952 
L 298.608824 -179.02154 
L 299.60153 -177.115908 
L 300.594236 -175.240321 
L 301.586942 -173.43574 
L 302.579648 -171.669295 
L 303.572354 -169.956289 
L 304.56506 -168.306735 
L 305.557766 -166.690128 
L 306.550471 -165.096097 
L 307.543177 -163.543004 
L 308.535883 -161.992302 
L 309.528589 -160.463398 
L 310.521295 -158.949368 
L 311.514001 -157.466282 
L 312.506707 -155.976439 
L 313.499413 -154.477299 
L 314.492119 -152.973519 
L 315.484825 -151.44603 
L 316.477531 -149.921484 
L 317.470237 -148.375441 
L 318.462943 -146.82489 
L 319.455648 -145.270593 
L 320.448354 -143.697859 
L 321.44106 -142.139289 
L 322.433766 -140.576436 
L 323.426472 -139.006769 
L 324.419178 -137.43158 
L 325.411884 -135.902834 
L 326.40459 -134.367754 
L 327.397296 -132.836972 
L 328.390002 -131.350721 
L 329.382708 -129.899478 
L 330.375414 -128.454686 
L 331.36812 -127.058374 
L 332.360825 -125.684796 
L 333.353531 -124.347138 
L 334.346237 -123.035374 
L 335.338943 -121.769857 
L 336.331649 -120.533017 
L 337.324355 -119.314092 
L 338.317061 -118.135172 
L 339.309767 -116.974683 
L 340.302473 -115.847816 
L 341.295179 -114.748234 
L 342.287885 -113.665576 
L 343.280591 -112.596436 
L 344.273297 -111.540021 
L 345.266002 -110.508017 
L 346.258708 -109.468925 
L 347.251414 -108.463605 
L 348.24412 -107.458296 
L 349.236826 -106.457123 
L 350.229532 -105.463457 
L 351.222238 -104.466889 
L 352.214944 -103.46585 
L 353.20765 -102.488736 
L 354.200356 -101.487353 
L 355.193062 -100.475658 
L 356.185768 -99.474295 
L 357.178474 -98.476767 
L 358.17118 -97.485548 
L 359.163885 -96.491089 
L 360.156591 -95.500341 
L 361.149297 -94.516435 
L 362.142003 -93.524794 
L 363.134709 -92.545471 
L 364.127415 -91.581843 
L 365.120121 -90.616051 
L 366.112827 -89.66918 
L 367.105533 -88.749293 
L 368.098239 -87.847282 
L 369.090945 -86.954661 
L 370.083651 -86.081415 
L 371.076357 -85.23945 
L 372.069062 -84.440494 
L 373.061768 -83.652924 
L 374.054474 -82.894445 
L 375.04718 -82.156172 
L 376.039886 -81.452901 
L 377.032592 -80.757718 
L 378.025298 -80.075059 
L 379.018004 -79.415835 
L 380.01071 -78.779071 
L 381.003416 -78.157106 
L 381.996122 -77.542332 
L 382.988828 -76.924437 
L 383.981534 -76.320812 
L 384.974239 -75.72378 
L 385.966945 -75.128631 
L 386.959651 -74.546615 
L 387.952357 -73.958305 
L 388.945063 -73.36393 
L 389.937769 -72.775551 
L 390.930475 -72.18587 
L 391.923181 -71.581989 
L 392.915887 -70.973047 
L 393.908593 -70.376439 
L 394.901299 -69.765392 
L 395.894005 -69.162245 
L 396.886711 -68.571269 
L 397.879416 -67.980665 
L 398.872122 -67.383048 
L 399.864828 -66.804566 
L 400.857534 -66.235154 
L 401.85024 -65.662647 
L 402.842946 -65.092165 
L 403.835652 -64.536385 
L 404.828358 -63.986777 
L 405.821064 -63.450297 
L 406.81377 -62.913793 
L 407.806476 -62.374685 
L 408.799182 -61.845869 
L 409.791888 -61.328966 
L 410.784593 -60.812301 
L 411.777299 -60.299882 
L 412.770005 -59.795713 
L 413.762711 -59.292886 
L 414.755417 -58.797143 
L 415.748123 -58.300197 
L 416.740829 -57.817471 
L 417.733535 -57.331894 
L 418.726241 -56.847483 
L 419.718947 -56.375567 
L 420.711653 -55.896217 
L 421.704359 -55.422493 
L 422.697065 -54.957877 
L 423.689771 -54.495904 
L 424.682476 -54.040266 
L 425.675182 -53.602629 
L 426.667888 -53.165542 
L 427.660594 -52.748849 
L 428.6533 -52.332243 
L 429.646006 -51.923175 
L 430.638712 -51.524504 
L 431.631418 -51.137108 
L 432.624124 -50.761804 
L 433.61683 -50.393386 
L 434.609536 -50.047729 
L 435.602242 -49.712856 
L 436.594948 -49.401891 
L 437.587653 -49.094029 
L 438.580359 -48.811603 
L 439.573065 -48.543296 
L 440.565771 -48.282796 
L 441.558477 -48.037312 
L 442.551183 -47.807633 
L 443.543889 -47.593024 
L 444.536595 -47.386334 
L 445.529301 -47.191318 
L 446.522007 -47.011208 
L 447.514713 -46.838178 
L 448.507419 -46.674524 
L 449.500125 -46.511337 
L 450.49283 -46.363877 
L 451.485536 -46.216833 
L 452.478242 -46.073202 
L 453.470948 -45.931739 
L 454.463654 -45.790703 
L 455.45636 -45.656259 
L 456.449066 -45.520427 
L 457.441772 -45.381493 
L 458.434478 -45.243004 
L 459.427184 -45.107727 
L 460.41989 -44.965945 
L 461.412596 -44.828157 
L 462.405302 -44.695029 
L 463.398007 -44.558208 
L 464.390713 -44.417331 
L 465.383419 -44.282602 
L 466.376125 -44.151439 
L 467.368831 -44.014444 
L 468.361537 -43.885713 
L 469.354243 -43.757833 
L 470.346949 -43.627639 
L 471.339655 -43.501948 
L 472.332361 -43.374018 
L 473.325067 -43.249038 
L 474.317773 -43.127345 
L 475.310479 -43.00549 
L 476.303184 -42.886315 
L 477.29589 -42.769796 
L 478.288596 -42.647696 
L 479.281302 -42.528517 
L 480.274008 -42.413182 
L 481.266714 -42.297966 
L 482.25942 -42.180088 
L 483.252126 -42.066441 
L 484.244832 -41.953478 
L 485.237538 -41.840098 
L 486.230244 -41.725604 
L 487.22295 -41.617048 
L 488.215656 -41.51298 
L 489.208362 -41.410609 
L 490.201067 -41.309 
L 491.193773 -41.217289 
L 492.186479 -41.128844 
L 493.179185 -41.04567 
L 494.171891 -40.969702 
L 495.164597 -40.899451 
L 496.157303 -40.833757 
L 497.150009 -40.776135 
L 498.142715 -40.724711 
L 499.135421 -40.67643 
L 500.128127 -40.634747 
L 501.120833 -40.596169 
L 502.113539 -40.569707 
L 503.106244 -40.547141 
L 504.09895 -40.529836 
L 505.091656 -40.515768 
L 506.084362 -40.502424 
L 507.077068 -40.490598 
L 508.069774 -40.478114 
L 509.06248 -40.467642 
L 510.055186 -40.455168 
L 511.047892 -40.442016 
L 512.040598 -40.427673 
L 513.033304 -40.411738 
L 514.02601 -40.395409 
L 515.018716 -40.375186 
L 516.011421 -40.354409 
L 517.004127 -40.328281 
L 517.996833 -40.30558 
L 518.989539 -40.279403 
L 519.982245 -40.251577 
L 520.974951 -40.222927 
L 521.967657 -40.193854 
L 522.960363 -40.162845 
L 523.953069 -40.133634 
L 524.945775 -40.103196 
L 525.938481 -40.075218 
L 526.931187 -40.048094 
L 527.923893 -40.020612 
L 528.916598 -39.994832 
L 529.909304 -39.972319 
L 530.90201 -39.951267 
L 531.894716 -39.933689 
L 532.887422 -39.918234 
L 533.880128 -39.903073 
L 534.872834 -39.893547 
L 535.86554 -39.882988 
L 536.858246 -39.874341 
L 537.850952 -39.86757 
L 538.843658 -39.862634 
L 539.836364 -39.859494 
L 539.836364 -38.879844 
L 539.836364 -38.879844 
L 538.843658 -38.879844 
L 537.850952 -38.879844 
L 536.858246 -38.879844 
L 535.86554 -38.879844 
L 534.872834 -38.879844 
L 533.880128 -38.879844 
L 532.887422 -38.879844 
L 531.894716 -38.879844 
L 530.90201 -38.879844 
L 529.909304 -38.879844 
L 528.916598 -38.879844 
L 527.923893 -38.879844 
L 526.931187 -38.879844 
L 525.938481 -38.879844 
L 524.945775 -38.879844 
L 523.953069 -38.879844 
L 522.960363 -38.879844 
L 521.967657 -38.879844 
L 520.974951 -38.879844 
L 519.982245 -38.879844 
L 518.989539 -38.879844 
L 517.996833 -38.879844 
L 517.004127 -38.879844 
L 516.011421 -38.879844 
L 515.018716 -38.879844 
L 514.02601 -38.879844 
L 513.033304 -38.879844 
L 512.040598 -38.879844 
L 511.047892 -38.879844 
L 510.055186 -38.879844 
L 509.06248 -38.879844 
L 508.069774 -38.879844 
L 507.077068 -38.879844 
L 506.084362 -38.879844 
L 505.091656 -38.879844 
L 504.09895 -38.879844 
L 503.106244 -38.879844 
L 502.113539 -38.879844 
L 501.120833 -38.879844 
L 500.128127 -38.879844 
L 499.135421 -38.879844 
L 498.142715 -38.879844 
L 497.150009 -38.879844 
L 496.157303 -38.879844 
L 495.164597 -38.879844 
L 494.171891 -38.879844 
L 493.179185 -38.879844 
L 492.186479 -38.879844 
L 491.193773 -38.879844 
L 490.201067 -38.879844 
L 489.208362 -38.879844 
L 488.215656 -38.879844 
L 487.22295 -38.879844 
L 486.230244 -38.879844 
L 485.237538 -38.879844 
L 484.244832 -38.879844 
L 483.252126 -38.879844 
L 482.25942 -38.879844 
L 481.266714 -38.879844 
L 480.274008 -38.879844 
L 479.281302 -38.879844 
L 478.288596 -38.879844 
L 477.29589 -38.879844 
L 476.303184 -38.879844 
L 475.310479 -38.879844 
L 474.317773 -38.879844 
L 473.325067 -38.879844 
L 472.332361 -38.879844 
L 471.339655 -38.879844 
L 470.346949 -38.879844 
L 469.354243 -38.879844 
L 468.361537 -38.879844 
L 467.368831 -38.879844 
L 466.376125 -38.879844 
L 465.383419 -38.879844 
L 464.390713 -38.879844 
L 463.398007 -38.879844 
L 462.405302 -38.879844 
L 461.412596 -38.879844 
L 460.41989 -38.879844 
L 459.427184 -38.879844 
L 458.434478 -38.879844 
L 457.441772 -38.879844 
L 456.449066 -38.879844 
L 455.45636 -38.879844 
L 454.463654 -38.879844 
L 453.470948 -38.879844 
L 452.478242 -38.879844 
L 451.485536 -38.879844 
L 450.49283 -38.879844 
L 449.500125 -38.879844 
L 448.507419 -38.879844 
L 447.514713 -38.879844 
L 446.522007 -38.879844 
L 445.529301 -38.879844 
L 444.536595 -38.879844 
L 443.543889 -38.879844 
L 442.551183 -38.879844 
L 441.558477 -38.879844 
L 440.565771 -38.879844 
L 439.573065 -38.879844 
L 438.580359 -38.879844 
L 437.587653 -38.879844 
L 436.594948 -38.879844 
L 435.602242 -38.879844 
L 434.609536 -38.879844 
L 433.61683 -38.879844 
L 432.624124 -38.879844 
L 431.631418 -38.879844 
L 430.638712 -38.879844 
L 429.646006 -38.879844 
L 428.6533 -38.879844 
L 427.660594 -38.879844 
L 426.667888 -38.879844 
L 425.675182 -38.879844 
L 424.682476 -38.879844 
L 423.689771 -38.879844 
L 422.697065 -38.879844 
L 421.704359 -38.879844 
L 420.711653 -38.879844 
L 419.718947 -38.879844 
L 418.726241 -38.879844 
L 417.733535 -38.879844 
L 416.740829 -38.879844 
L 415.748123 -38.879844 
L 414.755417 -38.879844 
L 413.762711 -38.879844 
L 412.770005 -38.879844 
L 411.777299 -38.879844 
L 410.784593 -38.879844 
L 409.791888 -38.879844 
L 408.799182 -38.879844 
L 407.806476 -38.879844 
L 406.81377 -38.879844 
L 405.821064 -38.879844 
L 404.828358 -38.879844 
L 403.835652 -38.879844 
L 402.842946 -38.879844 
L 401.85024 -38.879844 
L 400.857534 -38.879844 
L 399.864828 -38.879844 
L 398.872122 -38.879844 
L 397.879416 -38.879844 
L 396.886711 -38.879844 
L 395.894005 -38.879844 
L 394.901299 -38.879844 
L 393.908593 -38.879844 
L 392.915887 -38.879844 
L 391.923181 -38.879844 
L 390.930475 -38.879844 
L 389.937769 -38.879844 
L 388.945063 -38.879844 
L 387.952357 -38.879844 
L 386.959651 -38.879844 
L 385.966945 -38.879844 
L 384.974239 -38.879844 
L 383.981534 -38.879844 
L 382.988828 -38.879844 
L 381.996122 -38.879844 
L 381.003416 -38.879844 
L 380.01071 -38.879844 
L 379.018004 -38.879844 
L 378.025298 -38.879844 
L 377.032592 -38.879844 
L 376.039886 -38.879844 
L 375.04718 -38.879844 
L 374.054474 -38.879844 
L 373.061768 -38.879844 
L 372.069062 -38.879844 
L 371.076357 -38.879844 
L 370.083651 -38.879844 
L 369.090945 -38.879844 
L 368.098239 -38.879844 
L 367.105533 -38.879844 
L 366.112827 -38.879844 
L 365.120121 -38.879844 
L 364.127415 -38.879844 
L 363.134709 -38.879844 
L 362.142003 -38.879844 
L 361.149297 -38.879844 
L 360.156591 -38.879844 
L 359.163885 -38.879844 
L 358.17118 -38.879844 
L 357.178474 -38.879844 
L 356.185768 -38.879844 
L 355.193062 -38.879844 
L 354.200356 -38.879844 
L 353.20765 -38.879844 
L 352.214944 -38.879844 
L 351.222238 -38.879844 
L 350.229532 -38.879844 
L 349.236826 -38.879844 
L 348.24412 -38.879844 
L 347.251414 -38.879844 
L 346.258708 -38.879844 
L 345.266002 -38.879844 
L 344.273297 -38.879844 
L 343.280591 -38.879844 
L 342.287885 -38.879844 
L 341.295179 -38.879844 
L 340.302473 -38.879844 
L 339.309767 -38.879844 
L 338.317061 -38.879844 
L 337.324355 -38.879844 
L 336.331649 -38.879844 
L 335.338943 -38.879844 
L 334.346237 -38.879844 
L 333.353531 -38.879844 
L 332.360825 -38.879844 
L 331.36812 -38.879844 
L 330.375414 -38.879844 
L 329.382708 -38.879844 
L 328.390002 -38.879844 
L 327.397296 -38.879844 
L 326.40459 -38.879844 
L 325.411884 -38.879844 
L 324.419178 -38.879844 
L 323.426472 -38.879844 
L 322.433766 -38.879844 
L 321.44106 -38.879844 
L 320.448354 -38.879844 
L 319.455648 -38.879844 
L 318.462943 -38.879844 
L 317.470237 -38.879844 
L 316.477531 -38.879844 
L 315.484825 -38.879844 
L 314.492119 -38.879844 
L 313.499413 -38.879844 
L 312.506707 -38.879844 
L 311.514001 -38.879844 
L 310.521295 -38.879844 
L 309.528589 -38.879844 
L 308.535883 -38.879844 
L 307.543177 -38.879844 
L 306.550471 -38.879844 
L 305.557766 -38.879844 
L 304.56506 -38.879844 
L 303.572354 -38.879844 
L 302.579648 -38.879844 
L 301.586942 -38.879844 
L 300.594236 -38.879844 
L 299.60153 -38.879844 
L 298.608824 -38.879844 
L 297.616118 -38.879844 
L 296.623412 -38.879844 
L 295.630706 -38.879844 
L 294.638 -38.879844 
L 293.645294 -38.879844 
L 292.652589 -38.879844 
L 291.659883 -38.879844 
L 290.667177 -38.879844 
L 289.674471 -38.879844 
L 288.681765 -38.879844 
L 287.689059 -38.879844 
L 286.696353 -38.879844 
L 285.703647 -38.879844 
L 284.710941 -38.879844 
L 283.718235 -38.879844 
L 282.725529 -38.879844 
L 281.732823 -38.879844 
L 280.740117 -38.879844 
L 279.747411 -38.879844 
L 278.754706 -38.879844 
L 277.762 -38.879844 
L 276.769294 -38.879844 
L 275.776588 -38.879844 
L 274.783882 -38.879844 
L 273.791176 -38.879844 
L 272.79847 -38.879844 
L 271.805764 -38.879844 
L 270.813058 -38.879844 
L 269.820352 -38.879844 
L 268.827646 -38.879844 
L 267.83494 -38.879844 
L 266.842234 -38.879844 
L 265.849529 -38.879844 
L 264.856823 -38.879844 
L 263.864117 -38.879844 
L 262.871411 -38.879844 
L 261.878705 -38.879844 
L 260.885999 -38.879844 
L 259.893293 -38.879844 
L 258.900587 -38.879844 
L 257.907881 -38.879844 
L 256.915175 -38.879844 
L 255.922469 -38.879844 
L 254.929763 -38.879844 
L 253.937057 -38.879844 
L 252.944352 -38.879844 
L 251.951646 -38.879844 
L 250.95894 -38.879844 
L 249.966234 -38.879844 
L 248.973528 -38.879844 
L 247.980822 -38.879844 
L 246.988116 -38.879844 
L 245.99541 -38.879844 
L 245.002704 -38.879844 
L 244.009998 -38.879844 
L 243.017292 -38.879844 
L 242.024586 -38.879844 
L 241.03188 -38.879844 
L 240.039175 -38.879844 
L 239.046469 -38.879844 
L 238.053763 -38.879844 
L 237.061057 -38.879844 
L 236.068351 -38.879844 
L 235.075645 -38.879844 
L 234.082939 -38.879844 
L 233.090233 -38.879844 
L 232.097527 -38.879844 
L 231.104821 -38.879844 
L 230.112115 -38.879844 
L 229.119409 -38.879844 
L 228.126703 -38.879844 
L 227.133998 -38.879844 
L 226.141292 -38.879844 
L 225.148586 -38.879844 
L 224.15588 -38.879844 
L 223.163174 -38.879844 
L 222.170468 -38.879844 
L 221.177762 -38.879844 
L 220.185056 -38.879844 
L 219.19235 -38.879844 
L 218.199644 -38.879844 
L 217.206938 -38.879844 
L 216.214232 -38.879844 
L 215.221526 -38.879844 
L 214.22882 -38.879844 
L 213.236115 -38.879844 
L 212.243409 -38.879844 
L 211.250703 -38.879844 
L 210.257997 -38.879844 
L 209.265291 -38.879844 
L 208.272585 -38.879844 
L 207.279879 -38.879844 
L 206.287173 -38.879844 
L 205.294467 -38.879844 
L 204.301761 -38.879844 
L 203.309055 -38.879844 
L 202.316349 -38.879844 
L 201.323643 -38.879844 
L 200.330938 -38.879844 
L 199.338232 -38.879844 
L 198.345526 -38.879844 
L 197.35282 -38.879844 
L 196.360114 -38.879844 
L 195.367408 -38.879844 
L 194.374702 -38.879844 
L 193.381996 -38.879844 
L 192.38929 -38.879844 
L 191.396584 -38.879844 
L 190.403878 -38.879844 
L 189.411172 -38.879844 
L 188.418466 -38.879844 
L 187.425761 -38.879844 
L 186.433055 -38.879844 
L 185.440349 -38.879844 
L 184.447643 -38.879844 
L 183.454937 -38.879844 
L 182.462231 -38.879844 
L 181.469525 -38.879844 
L 180.476819 -38.879844 
L 179.484113 -38.879844 
L 178.491407 -38.879844 
L 177.498701 -38.879844 
L 176.505995 -38.879844 
L 175.513289 -38.879844 
L 174.520584 -38.879844 
L 173.527878 -38.879844 
L 172.535172 -38.879844 
L 171.542466 -38.879844 
L 170.54976 -38.879844 
L 169.557054 -38.879844 
L 168.564348 -38.879844 
L 167.571642 -38.879844 
L 166.578936 -38.879844 
L 165.58623 -38.879844 
L 164.593524 -38.879844 
L 163.600818 -38.879844 
L 162.608112 -38.879844 
L 161.615407 -38.879844 
L 160.622701 -38.879844 
L 159.629995 -38.879844 
L 158.637289 -38.879844 
L 157.644583 -38.879844 
L 156.651877 -38.879844 
L 155.659171 -38.879844 
L 154.666465 -38.879844 
L 153.673759 -38.879844 
L 152.681053 -38.879844 
L 151.688347 -38.879844 
L 150.695641 -38.879844 
L 149.702935 -38.879844 
L 148.710229 -38.879844 
L 147.717524 -38.879844 
L 146.724818 -38.879844 
L 145.732112 -38.879844 
L 144.739406 -38.879844 
L 143.7467 -38.879844 
L 142.753994 -38.879844 
L 141.761288 -38.879844 
L 140.768582 -38.879844 
L 139.775876 -38.879844 
L 138.78317 -38.879844 
L 137.790464 -38.879844 
L 136.797758 -38.879844 
L 135.805052 -38.879844 
L 134.812347 -38.879844 
L 133.819641 -38.879844 
L 132.826935 -38.879844 
L 131.834229 -38.879844 
L 130.841523 -38.879844 
L 129.848817 -38.879844 
L 128.856111 -38.879844 
L 127.863405 -38.879844 
L 126.870699 -38.879844 
L 125.877993 -38.879844 
L 124.885287 -38.879844 
L 123.892581 -38.879844 
L 122.899875 -38.879844 
L 121.90717 -38.879844 
L 120.914464 -38.879844 
L 119.921758 -38.879844 
L 118.929052 -38.879844 
L 117.936346 -38.879844 
L 116.94364 -38.879844 
L 115.950934 -38.879844 
L 114.958228 -38.879844 
L 113.965522 -38.879844 
L 112.972816 -38.879844 
L 111.98011 -38.879844 
L 110.987404 -38.879844 
L 109.994698 -38.879844 
L 109.001993 -38.879844 
L 108.009287 -38.879844 
L 107.016581 -38.879844 
L 106.023875 -38.879844 
L 105.031169 -38.879844 
L 104.038463 -38.879844 
L 103.045757 -38.879844 
L 102.053051 -38.879844 
L 101.060345 -38.879844 
L 100.067639 -38.879844 
L 99.074933 -38.879844 
L 98.082227 -38.879844 
L 97.089521 -38.879844 
L 96.096816 -38.879844 
L 95.10411 -38.879844 
L 94.111404 -38.879844 
L 93.118698 -38.879844 
L 92.125992 -38.879844 
L 91.133286 -38.879844 
L 90.14058 -38.879844 
L 89.147874 -38.879844 
L 88.155168 -38.879844 
L 87.162462 -38.879844 
L 86.169756 -38.879844 
L 85.17705 -38.879844 
L 84.184344 -38.879844 
L 83.191638 -38.879844 
L 82.198933 -38.879844 
L 81.206227 -38.879844 
L 80.213521 -38.879844 
L 79.220815 -38.879844 
L 78.228109 -38.879844 
L 77.235403 -38.879844 
L 76.242697 -38.879844 
L 75.249991 -38.879844 
L 74.257285 -38.879844 
L 73.264579 -38.879844 
L 72.271873 -38.879844 
L 71.279167 -38.879844 
L 70.286461 -38.879844 
L 69.293756 -38.879844 
L 68.30105 -38.879844 
L 67.308344 -38.879844 
L 66.315638 -38.879844 
L 65.322932 -38.879844 
L 64.330226 -38.879844 
L 63.33752 -38.879844 
L 62.344814 -38.879844 
L 61.352108 -38.879844 
L 60.359402 -38.879844 
L 59.366696 -38.879844 
L 58.37399 -38.879844 
L 57.381284 -38.879844 
L 56.388579 -38.879844 
L 55.395873 -38.879844 
L 54.403167 -38.879844 
L 53.410461 -38.879844 
L 52.417755 -38.879844 
L 51.425049 -38.879844 
L 50.432343 -38.879844 
L 49.439637 -38.879844 
L 48.446931 -38.879844 
L 47.454225 -38.879844 
L 46.461519 -38.879844 
L 45.468813 -38.879844 
L 44.476107 -38.879844 
L 43.483402 -38.879844 
L 42.490696 -38.879844 
L 41.49799 -38.879844 
L 40.505284 -38.879844 
L 39.512578 -38.879844 
L 38.519872 -38.879844 
L 37.527166 -38.879844 
L 36.53446 -38.879844 
L 35.541754 -38.879844 
L 34.549048 -38.879844 
L 33.556342 -38.879844 
L 32.563636 -38.879844 
z
" style="stroke: #0173b2; stroke-opacity: 0"/>
    </defs>
    <g clip-path="url(#pf900db5029)">
     <use xlink:href="#m215ff39940" x="0" y="378.189219" style="fill: #0173b2; fill-opacity: 0; stroke: #0173b2; stroke-opacity: 0"/>
    </g>
   </g>
   <g id="line2d_11">
    <path d="M 32.563636 335.883811 
L 36.53446 335.735641 
L 40.505284 335.28815 
L 44.476107 334.519758 
L 48.446931 333.44811 
L 51.425049 332.386326 
L 54.403167 331.065424 
L 56.388579 330.005159 
L 59.366696 328.14686 
L 62.344814 325.882097 
L 65.322932 323.207091 
L 68.30105 320.094646 
L 71.279167 316.54938 
L 74.257285 312.549529 
L 77.235403 308.157835 
L 80.213521 303.370825 
L 84.184344 296.393055 
L 88.155168 288.775875 
L 92.125992 280.508897 
L 96.096816 271.589685 
L 100.067639 262.080267 
L 104.038463 251.974555 
L 108.009287 241.287715 
L 112.972816 227.310809 
L 118.929052 209.878481 
L 125.877993 188.742519 
L 130.841523 172.980552 
L 138.78317 146.77476 
L 143.7467 130.760871 
L 147.717524 118.956929 
L 150.695641 110.867397 
L 153.673759 103.558258 
L 156.651877 96.912731 
L 159.629995 90.941365 
L 162.608112 85.603182 
L 165.58623 80.867885 
L 168.564348 76.803635 
L 170.54976 74.448321 
L 172.535172 72.361069 
L 174.520584 70.527128 
L 176.505995 68.906898 
L 179.484113 66.737102 
L 183.454937 63.95344 
L 186.433055 61.589863 
L 188.418466 59.786782 
L 190.403878 57.81797 
L 193.381996 54.51019 
L 197.35282 49.655015 
L 201.323643 44.791646 
L 203.309055 42.615921 
L 205.294467 40.722863 
L 207.279879 39.132339 
L 209.265291 37.945523 
L 210.257997 37.504842 
L 212.243409 36.995 
L 214.22882 36.930507 
L 215.221526 37.051256 
L 217.206938 37.669063 
L 218.199644 38.109901 
L 220.185056 39.327902 
L 222.170468 40.831647 
L 224.15588 42.679729 
L 226.141292 44.765071 
L 228.126703 47.080783 
L 230.112115 49.690192 
L 233.090233 54.020398 
L 236.068351 58.950383 
L 239.046469 64.441793 
L 242.024586 70.4276 
L 257.907881 104.075012 
L 262.871411 114.330902 
L 266.842234 123.068643 
L 270.813058 132.54972 
L 277.762 150.256162 
L 284.710941 167.910822 
L 289.674471 179.875578 
L 293.645294 188.863297 
L 296.623412 195.196177 
L 299.60153 201.07331 
L 302.579648 206.519924 
L 305.557766 211.49909 
L 309.528589 217.72582 
L 321.44106 236.04993 
L 328.390002 246.838498 
L 332.360825 252.504422 
L 335.338943 256.419362 
L 339.309767 261.214535 
L 343.280591 265.592783 
L 348.24412 270.730923 
L 364.127415 286.607376 
L 368.098239 290.341937 
L 371.076357 292.949769 
L 375.04718 296.033047 
L 379.018004 298.773384 
L 384.974239 302.465438 
L 403.835652 313.652833 
L 410.784593 317.376918 
L 417.733535 320.857325 
L 424.682476 324.148953 
L 430.638712 326.664715 
L 434.609536 328.14149 
L 438.580359 329.377616 
L 442.551183 330.381586 
L 447.514713 331.351041 
L 454.463654 332.398515 
L 479.281302 335.660701 
L 492.186479 337.060375 
L 498.142715 337.464507 
L 504.09895 337.659383 
L 522.960363 338.026374 
L 535.86554 338.306231 
L 539.836364 338.329725 
L 539.836364 338.329725 
" clip-path="url(#pf900db5029)" style="fill: none; stroke: #0173b2; stroke-width: 1.5; stroke-linecap: round"/>
   </g>
   <g id="line2d_12">
    <path d="M 85.367007 332.958975 
L 358.788744 332.958975 
" clip-path="url(#pf900db5029)" style="fill: none; stroke: #1a1a1a; stroke-width: 3"/>
   </g>
   <g id="patch_3">
    <path d="M 7.2 354.429375 
L 565.2 354.429375 
" style="fill: none; stroke: #808080; stroke-width: 1.25; stroke-linejoin: miter; stroke-linecap: square"/>
   </g>
   <g id="text_6">
    <!-- 5.8  -->
    <g style="fill: #262626" transform="translate(65.353257 317.082975) scale(0.12 -0.12)">
     <defs>
      <path id="ArialMT-2e" d="M 581 0 
L 581 641 
L 1222 641 
L 1222 0 
L 581 0 
z
" transform="scale(0.015625)"/>
      <path id="ArialMT-38" d="M 1131 2484 
Q 781 2613 612 2850 
Q 444 3088 444 3419 
Q 444 3919 803 4259 
Q 1163 4600 1759 4600 
Q 2359 4600 2725 4251 
Q 3091 3903 3091 3403 
Q 3091 3084 2923 2848 
Q 2756 2613 2416 2484 
Q 2838 2347 3058 2040 
Q 3278 1734 3278 1309 
Q 3278 722 2862 322 
Q 2447 -78 1769 -78 
Q 1091 -78 675 323 
Q 259 725 259 1325 
Q 259 1772 486 2073 
Q 713 2375 1131 2484 
z
M 1019 3438 
Q 1019 3113 1228 2906 
Q 1438 2700 1772 2700 
Q 2097 2700 2305 2904 
Q 2513 3109 2513 3406 
Q 2513 3716 2298 3927 
Q 2084 4138 1766 4138 
Q 1444 4138 1231 3931 
Q 1019 3725 1019 3438 
z
M 838 1322 
Q 838 1081 952 856 
Q 1066 631 1291 507 
Q 1516 384 1775 384 
Q 2178 384 2440 643 
Q 2703 903 2703 1303 
Q 2703 1709 2433 1975 
Q 2163 2241 1756 2241 
Q 1359 2241 1098 1978 
Q 838 1716 838 1322 
z
" transform="scale(0.015625)"/>
      <path id="ArialMT-20" transform="scale(0.015625)"/>
     </defs>
     <use xlink:href="#ArialMT-35"/>
     <use xlink:href="#ArialMT-2e" x="55.615234"/>
     <use xlink:href="#ArialMT-38" x="83.398438"/>
     <use xlink:href="#ArialMT-20" x="139.013672"/>
    </g>
   </g>
   <g id="text_7">
    <!--  18 -->
    <g style="fill: #262626" transform="translate(358.788744 317.082975) scale(0.12 -0.12)">
     <use xlink:href="#ArialMT-20"/>
     <use xlink:href="#ArialMT-31" x="27.783203"/>
     <use xlink:href="#ArialMT-38" x="83.398438"/>
    </g>
   </g>
   <g id="text_8">
    <!-- 94% HDI -->
    <g style="fill: #262626" transform="translate(198.069438 244.053375) scale(0.12 -0.12)">
     <defs>
      <path id="ArialMT-39" d="M 350 1059 
L 891 1109 
Q 959 728 1153 556 
Q 1347 384 1650 384 
Q 1909 384 2104 503 
Q 2300 622 2425 820 
Q 2550 1019 2634 1356 
Q 2719 1694 2719 2044 
Q 2719 2081 2716 2156 
Q 2547 1888 2255 1720 
Q 1963 1553 1622 1553 
Q 1053 1553 659 1965 
Q 266 2378 266 3053 
Q 266 3750 677 4175 
Q 1088 4600 1706 4600 
Q 2153 4600 2523 4359 
Q 2894 4119 3086 3673 
Q 3278 3228 3278 2384 
Q 3278 1506 3087 986 
Q 2897 466 2520 194 
Q 2144 -78 1638 -78 
Q 1100 -78 759 220 
Q 419 519 350 1059 
z
M 2653 3081 
Q 2653 3566 2395 3850 
Q 2138 4134 1775 4134 
Q 1400 4134 1122 3828 
Q 844 3522 844 3034 
Q 844 2597 1108 2323 
Q 1372 2050 1759 2050 
Q 2150 2050 2401 2323 
Q 2653 2597 2653 3081 
z
" transform="scale(0.015625)"/>
      <path id="ArialMT-34" d="M 2069 0 
L 2069 1097 
L 81 1097 
L 81 1613 
L 2172 4581 
L 2631 4581 
L 2631 1613 
L 3250 1613 
L 3250 1097 
L 2631 1097 
L 2631 0 
L 2069 0 
z
M 2069 1613 
L 2069 3678 
L 634 1613 
L 2069 1613 
z
" transform="scale(0.015625)"/>
      <path id="ArialMT-25" d="M 372 3481 
Q 372 3972 619 4315 
Q 866 4659 1334 4659 
Q 1766 4659 2048 4351 
Q 2331 4044 2331 3447 
Q 2331 2866 2045 2552 
Q 1759 2238 1341 2238 
Q 925 2238 648 2547 
Q 372 2856 372 3481 
z
M 1350 4272 
Q 1141 4272 1002 4090 
Q 863 3909 863 3425 
Q 863 2984 1003 2804 
Q 1144 2625 1350 2625 
Q 1563 2625 1702 2806 
Q 1841 2988 1841 3469 
Q 1841 3913 1700 4092 
Q 1559 4272 1350 4272 
z
M 1353 -169 
L 3859 4659 
L 4316 4659 
L 1819 -169 
L 1353 -169 
z
M 3334 1075 
Q 3334 1569 3581 1911 
Q 3828 2253 4300 2253 
Q 4731 2253 5014 1945 
Q 5297 1638 5297 1041 
Q 5297 459 5011 145 
Q 4725 -169 4303 -169 
Q 3888 -169 3611 142 
Q 3334 453 3334 1075 
z
M 4316 1866 
Q 4103 1866 3964 1684 
Q 3825 1503 3825 1019 
Q 3825 581 3965 400 
Q 4106 219 4313 219 
Q 4528 219 4667 400 
Q 4806 581 4806 1063 
Q 4806 1506 4665 1686 
Q 4525 1866 4316 1866 
z
" transform="scale(0.015625)"/>
      <path id="ArialMT-48" d="M 513 0 
L 513 4581 
L 1119 4581 
L 1119 2700 
L 3500 2700 
L 3500 4581 
L 4106 4581 
L 4106 0 
L 3500 0 
L 3500 2159 
L 1119 2159 
L 1119 0 
L 513 0 
z
" transform="scale(0.015625)"/>
      <path id="ArialMT-44" d="M 494 0 
L 494 4581 
L 2072 4581 
Q 2606 4581 2888 4516 
Q 3281 4425 3559 4188 
Q 3922 3881 4101 3404 
Q 4281 2928 4281 2316 
Q 4281 1794 4159 1391 
Q 4038 988 3847 723 
Q 3656 459 3429 307 
Q 3203 156 2883 78 
Q 2563 0 2147 0 
L 494 0 
z
M 1100 541 
L 2078 541 
Q 2531 541 2789 625 
Q 3047 709 3200 863 
Q 3416 1078 3536 1442 
Q 3656 1806 3656 2325 
Q 3656 3044 3420 3430 
Q 3184 3816 2847 3947 
Q 2603 4041 2063 4041 
L 1100 4041 
L 1100 541 
z
" transform="scale(0.015625)"/>
      <path id="ArialMT-49" d="M 597 0 
L 597 4581 
L 1203 4581 
L 1203 0 
L 597 0 
z
" transform="scale(0.015625)"/>
     </defs>
     <use xlink:href="#ArialMT-39"/>
     <use xlink:href="#ArialMT-34" x="55.615234"/>
     <use xlink:href="#ArialMT-25" x="111.230469"/>
     <use xlink:href="#ArialMT-20" x="200.146484"/>
     <use xlink:href="#ArialMT-48" x="227.929688"/>
     <use xlink:href="#ArialMT-44" x="300.146484"/>
     <use xlink:href="#ArialMT-49" x="372.363281"/>
    </g>
   </g>
   <g id="text_9">
    <!-- mean=12 -->
    <g style="fill: #262626" transform="translate(197.046423 85.293375) scale(0.12 -0.12)">
     <defs>
      <path id="ArialMT-6d" d="M 422 0 
L 422 3319 
L 925 3319 
L 925 2853 
Q 1081 3097 1340 3245 
Q 1600 3394 1931 3394 
Q 2300 3394 2536 3241 
Q 2772 3088 2869 2813 
Q 3263 3394 3894 3394 
Q 4388 3394 4653 3120 
Q 4919 2847 4919 2278 
L 4919 0 
L 4359 0 
L 4359 2091 
Q 4359 2428 4304 2576 
Q 4250 2725 4106 2815 
Q 3963 2906 3769 2906 
Q 3419 2906 3187 2673 
Q 2956 2441 2956 1928 
L 2956 0 
L 2394 0 
L 2394 2156 
Q 2394 2531 2256 2718 
Q 2119 2906 1806 2906 
Q 1569 2906 1367 2781 
Q 1166 2656 1075 2415 
Q 984 2175 984 1722 
L 984 0 
L 422 0 
z
" transform="scale(0.015625)"/>
      <path id="ArialMT-65" d="M 2694 1069 
L 3275 997 
Q 3138 488 2766 206 
Q 2394 -75 1816 -75 
Q 1088 -75 661 373 
Q 234 822 234 1631 
Q 234 2469 665 2931 
Q 1097 3394 1784 3394 
Q 2450 3394 2872 2941 
Q 3294 2488 3294 1666 
Q 3294 1616 3291 1516 
L 816 1516 
Q 847 969 1125 678 
Q 1403 388 1819 388 
Q 2128 388 2347 550 
Q 2566 713 2694 1069 
z
M 847 1978 
L 2700 1978 
Q 2663 2397 2488 2606 
Q 2219 2931 1791 2931 
Q 1403 2931 1139 2672 
Q 875 2413 847 1978 
z
" transform="scale(0.015625)"/>
      <path id="ArialMT-61" d="M 2588 409 
Q 2275 144 1986 34 
Q 1697 -75 1366 -75 
Q 819 -75 525 192 
Q 231 459 231 875 
Q 231 1119 342 1320 
Q 453 1522 633 1644 
Q 813 1766 1038 1828 
Q 1203 1872 1538 1913 
Q 2219 1994 2541 2106 
Q 2544 2222 2544 2253 
Q 2544 2597 2384 2738 
Q 2169 2928 1744 2928 
Q 1347 2928 1158 2789 
Q 969 2650 878 2297 
L 328 2372 
Q 403 2725 575 2942 
Q 747 3159 1072 3276 
Q 1397 3394 1825 3394 
Q 2250 3394 2515 3294 
Q 2781 3194 2906 3042 
Q 3031 2891 3081 2659 
Q 3109 2516 3109 2141 
L 3109 1391 
Q 3109 606 3145 398 
Q 3181 191 3288 0 
L 2700 0 
Q 2613 175 2588 409 
z
M 2541 1666 
Q 2234 1541 1622 1453 
Q 1275 1403 1131 1340 
Q 988 1278 909 1158 
Q 831 1038 831 891 
Q 831 666 1001 516 
Q 1172 366 1500 366 
Q 1825 366 2078 508 
Q 2331 650 2450 897 
Q 2541 1088 2541 1459 
L 2541 1666 
z
" transform="scale(0.015625)"/>
      <path id="ArialMT-6e" d="M 422 0 
L 422 3319 
L 928 3319 
L 928 2847 
Q 1294 3394 1984 3394 
Q 2284 3394 2536 3286 
Q 2788 3178 2913 3003 
Q 3038 2828 3088 2588 
Q 3119 2431 3119 2041 
L 3119 0 
L 2556 0 
L 2556 2019 
Q 2556 2363 2490 2533 
Q 2425 2703 2258 2804 
Q 2091 2906 1866 2906 
Q 1506 2906 1245 2678 
Q 984 2450 984 1813 
L 984 0 
L 422 0 
z
" transform="scale(0.015625)"/>
      <path id="ArialMT-3d" d="M 3381 2694 
L 356 2694 
L 356 3219 
L 3381 3219 
L 3381 2694 
z
M 3381 1303 
L 356 1303 
L 356 1828 
L 3381 1828 
L 3381 1303 
z
" transform="scale(0.015625)"/>
     </defs>
     <use xlink:href="#ArialMT-6d"/>
     <use xlink:href="#ArialMT-65" x="83.300781"/>
     <use xlink:href="#ArialMT-61" x="138.916016"/>
     <use xlink:href="#ArialMT-6e" x="194.53125"/>
     <use xlink:href="#ArialMT-3d" x="250.146484"/>
     <use xlink:href="#ArialMT-31" x="308.544922"/>
     <use xlink:href="#ArialMT-32" x="364.160156"/>
    </g>
   </g>
   <g id="text_10">
    <!-- mu_B -->
    <g style="fill: #262626" transform="translate(270.526875 15.789375) scale(0.12 -0.12)">
     <defs>
      <path id="ArialMT-75" d="M 2597 0 
L 2597 488 
Q 2209 -75 1544 -75 
Q 1250 -75 995 37 
Q 741 150 617 320 
Q 494 491 444 738 
Q 409 903 409 1263 
L 409 3319 
L 972 3319 
L 972 1478 
Q 972 1038 1006 884 
Q 1059 663 1231 536 
Q 1403 409 1656 409 
Q 1909 409 2131 539 
Q 2353 669 2445 892 
Q 2538 1116 2538 1541 
L 2538 3319 
L 3100 3319 
L 3100 0 
L 2597 0 
z
" transform="scale(0.015625)"/>
      <path id="ArialMT-5f" d="M -97 -1272 
L -97 -866 
L 3631 -866 
L 3631 -1272 
L -97 -1272 
z
" transform="scale(0.015625)"/>
      <path id="ArialMT-42" d="M 469 0 
L 469 4581 
L 2188 4581 
Q 2713 4581 3030 4442 
Q 3347 4303 3526 4014 
Q 3706 3725 3706 3409 
Q 3706 3116 3547 2856 
Q 3388 2597 3066 2438 
Q 3481 2316 3704 2022 
Q 3928 1728 3928 1328 
Q 3928 1006 3792 729 
Q 3656 453 3456 303 
Q 3256 153 2954 76 
Q 2653 0 2216 0 
L 469 0 
z
M 1075 2656 
L 2066 2656 
Q 2469 2656 2644 2709 
Q 2875 2778 2992 2937 
Q 3109 3097 3109 3338 
Q 3109 3566 3000 3739 
Q 2891 3913 2687 3977 
Q 2484 4041 1991 4041 
L 1075 4041 
L 1075 2656 
z
M 1075 541 
L 2216 541 
Q 2509 541 2628 563 
Q 2838 600 2978 687 
Q 3119 775 3209 942 
Q 3300 1109 3300 1328 
Q 3300 1584 3169 1773 
Q 3038 1963 2805 2039 
Q 2572 2116 2134 2116 
L 1075 2116 
L 1075 541 
z
" transform="scale(0.015625)"/>
     </defs>
     <use xlink:href="#ArialMT-6d"/>
     <use xlink:href="#ArialMT-75" x="83.300781"/>
     <use xlink:href="#ArialMT-5f" x="138.916016"/>
     <use xlink:href="#ArialMT-42" x="194.53125"/>
    </g>
   </g>
  </g>
 </g>
 <defs>
  <clipPath id="pf900db5029">
   <rect x="7.2" y="21.789375" width="558" height="332.64"/>
  </clipPath>
 </defs>
</svg>