<?xml version="1.0" encoding="utf-8" standalone="no"?>
<!DOCTYPE svg PUBLIC "-//W3C//DTD SVG 1.1//EN"
  "http://www.w3.org/Graphics/SVG/1.1/DTD/svg11.dtd">
<svg xmlns:xlink="http://www.w3.org/1999/xlink" width="348.644375pt" height="348.763125pt" viewBox="0 0 348.644375 348.763125" xmlns="http://www.w3.org/2000/svg" version="1.1">
 <metadata>
  <rdf:RDF xmlns:dc="http://purl.org/dc/elements/1.1/" xmlns:cc="http://creativecommons.org/ns#" xmlns:rdf="http://www.w3.org/1999/02/22-rdf-syntax-ns#">
   <cc:Work>
    <dc:type rdf:resource="http://purl.org/dc/dcmitype/StillImage"/>
    <dc:date>2023-05-08T07:10:02.846922</dc:date>
    <dc:format>image/svg+xml</dc:format>
    <dc:creator>
     <cc:Agent>
      <dc:title>Matplotlib v3.7.1, https://matplotlib.org/</dc:title>
     </cc:Agent>
    </dc:creator>
   </cc:Work>
  </rdf:RDF>
 </metadata>
 <defs>
  <style type="text/css">*{stroke-linejoin: round; stroke-linecap: butt}</style>
 </defs>
 <g id="figure_1">
  <g id="patch_1">
   <path d="M 0 348.763125 
L 348.644375 348.763125 
L 348.644375 0 
L 0 0 
z
" style="fill: #ffffff"/>
  </g>
  <g id="axes_1">
   <g id="patch_2">
    <path d="M 46.964375 306.9 
L 341.444375 306.9 
L 341.444375 7.2 
L 46.964375 7.2 
z
" style="fill: #eaeaf2"/>
   </g>
   <g id="matplotlib.axis_1">
    <g id="xtick_1">
     <g id="text_1">
      <!-- congruent -->
      <g style="fill: #262626" transform="translate(71.583984 324.144687) scale(0.11 -0.11)">
       <defs>
        <path id="ArialMT-63" d="M 2588 1216 
L 3141 1144 
Q 3050 572 2676 248 
Q 2303 -75 1759 -75 
Q 1078 -75 664 370 
Q 250 816 250 1647 
Q 250 2184 428 2587 
Q 606 2991 970 3192 
Q 1334 3394 1763 3394 
Q 2303 3394 2647 3120 
Q 2991 2847 3088 2344 
L 2541 2259 
Q 2463 2594 2264 2762 
Q 2066 2931 1784 2931 
Q 1359 2931 1093 2626 
Q 828 2322 828 1663 
Q 828 994 1084 691 
Q 1341 388 1753 388 
Q 2084 388 2306 591 
Q 2528 794 2588 1216 
z
" transform="scale(0.015625)"/>
        <path id="ArialMT-6f" d="M 213 1659 
Q 213 2581 725 3025 
Q 1153 3394 1769 3394 
Q 2453 3394 2887 2945 
Q 3322 2497 3322 1706 
Q 3322 1066 3130 698 
Q 2938 331 2570 128 
Q 2203 -75 1769 -75 
Q 1072 -75 642 372 
Q 213 819 213 1659 
z
M 791 1659 
Q 791 1022 1069 705 
Q 1347 388 1769 388 
Q 2188 388 2466 706 
Q 2744 1025 2744 1678 
Q 2744 2294 2464 2611 
Q 2184 2928 1769 2928 
Q 1347 2928 1069 2612 
Q 791 2297 791 1659 
z
" transform="scale(0.015625)"/>
        <path id="ArialMT-6e" d="M 422 0 
L 422 3319 
L 928 3319 
L 928 2847 
Q 1294 3394 1984 3394 
Q 2284 3394 2536 3286 
Q 2788 3178 2913 3003 
Q 3038 2828 3088 2588 
Q 3119 2431 3119 2041 
L 3119 0 
L 2556 0 
L 2556 2019 
Q 2556 2363 2490 2533 
Q 2425 2703 2258 2804 
Q 2091 2906 1866 2906 
Q 1506 2906 1245 2678 
Q 984 2450 984 1813 
L 984 0 
L 422 0 
z
" transform="scale(0.015625)"/>
        <path id="ArialMT-67" d="M 319 -275 
L 866 -356 
Q 900 -609 1056 -725 
Q 1266 -881 1628 -881 
Q 2019 -881 2231 -725 
Q 2444 -569 2519 -288 
Q 2563 -116 2559 434 
Q 2191 0 1641 0 
Q 956 0 581 494 
Q 206 988 206 1678 
Q 206 2153 378 2554 
Q 550 2956 876 3175 
Q 1203 3394 1644 3394 
Q 2231 3394 2613 2919 
L 2613 3319 
L 3131 3319 
L 3131 450 
Q 3131 -325 2973 -648 
Q 2816 -972 2473 -1159 
Q 2131 -1347 1631 -1347 
Q 1038 -1347 672 -1080 
Q 306 -813 319 -275 
z
M 784 1719 
Q 784 1066 1043 766 
Q 1303 466 1694 466 
Q 2081 466 2343 764 
Q 2606 1063 2606 1700 
Q 2606 2309 2336 2618 
Q 2066 2928 1684 2928 
Q 1309 2928 1046 2623 
Q 784 2319 784 1719 
z
" transform="scale(0.015625)"/>
        <path id="ArialMT-72" d="M 416 0 
L 416 3319 
L 922 3319 
L 922 2816 
Q 1116 3169 1280 3281 
Q 1444 3394 1641 3394 
Q 1925 3394 2219 3213 
L 2025 2691 
Q 1819 2813 1613 2813 
Q 1428 2813 1281 2702 
Q 1134 2591 1072 2394 
Q 978 2094 978 1738 
L 978 0 
L 416 0 
z
" transform="scale(0.015625)"/>
        <path id="ArialMT-75" d="M 2597 0 
L 2597 488 
Q 2209 -75 1544 -75 
Q 1250 -75 995 37 
Q 741 150 617 320 
Q 494 491 444 738 
Q 409 903 409 1263 
L 409 3319 
L 972 3319 
L 972 1478 
Q 972 1038 1006 884 
Q 1059 663 1231 536 
Q 1403 409 1656 409 
Q 1909 409 2131 539 
Q 2353 669 2445 892 
Q 2538 1116 2538 1541 
L 2538 3319 
L 3100 3319 
L 3100 0 
L 2597 0 
z
" transform="scale(0.015625)"/>
        <path id="ArialMT-65" d="M 2694 1069 
L 3275 997 
Q 3138 488 2766 206 
Q 2394 -75 1816 -75 
Q 1088 -75 661 373 
Q 234 822 234 1631 
Q 234 2469 665 2931 
Q 1097 3394 1784 3394 
Q 2450 3394 2872 2941 
Q 3294 2488 3294 1666 
Q 3294 1616 3291 1516 
L 816 1516 
Q 847 969 1125 678 
Q 1403 388 1819 388 
Q 2128 388 2347 550 
Q 2566 713 2694 1069 
z
M 847 1978 
L 2700 1978 
Q 2663 2397 2488 2606 
Q 2219 2931 1791 2931 
Q 1403 2931 1139 2672 
Q 875 2413 847 1978 
z
" transform="scale(0.015625)"/>
        <path id="ArialMT-74" d="M 1650 503 
L 1731 6 
Q 1494 -44 1306 -44 
Q 1000 -44 831 53 
Q 663 150 594 308 
Q 525 466 525 972 
L 525 2881 
L 113 2881 
L 113 3319 
L 525 3319 
L 525 4141 
L 1084 4478 
L 1084 3319 
L 1650 3319 
L 1650 2881 
L 1084 2881 
L 1084 941 
Q 1084 700 1114 631 
Q 1144 563 1211 522 
Q 1278 481 1403 481 
Q 1497 481 1650 503 
z
" transform="scale(0.015625)"/>
       </defs>
       <use xlink:href="#ArialMT-63"/>
       <use xlink:href="#ArialMT-6f" x="50"/>
       <use xlink:href="#ArialMT-6e" x="105.615234"/>
       <use xlink:href="#ArialMT-67" x="161.230469"/>
       <use xlink:href="#ArialMT-72" x="216.845703"/>
       <use xlink:href="#ArialMT-75" x="250.146484"/>
       <use xlink:href="#ArialMT-65" x="305.761719"/>
       <use xlink:href="#ArialMT-6e" x="361.376953"/>
       <use xlink:href="#ArialMT-74" x="416.992188"/>
      </g>
     </g>
    </g>
    <g id="xtick_2">
     <g id="text_2">
      <!-- neutral -->
      <g style="fill: #262626" transform="translate(177.388984 324.273594) scale(0.11 -0.11)">
       <defs>
        <path id="ArialMT-61" d="M 2588 409 
Q 2275 144 1986 34 
Q 1697 -75 1366 -75 
Q 819 -75 525 192 
Q 231 459 231 875 
Q 231 1119 342 1320 
Q 453 1522 633 1644 
Q 813 1766 1038 1828 
Q 1203 1872 1538 1913 
Q 2219 1994 2541 2106 
Q 2544 2222 2544 2253 
Q 2544 2597 2384 2738 
Q 2169 2928 1744 2928 
Q 1347 2928 1158 2789 
Q 969 2650 878 2297 
L 328 2372 
Q 403 2725 575 2942 
Q 747 3159 1072 3276 
Q 1397 3394 1825 3394 
Q 2250 3394 2515 3294 
Q 2781 3194 2906 3042 
Q 3031 2891 3081 2659 
Q 3109 2516 3109 2141 
L 3109 1391 
Q 3109 606 3145 398 
Q 3181 191 3288 0 
L 2700 0 
Q 2613 175 2588 409 
z
M 2541 1666 
Q 2234 1541 1622 1453 
Q 1275 1403 1131 1340 
Q 988 1278 909 1158 
Q 831 1038 831 891 
Q 831 666 1001 516 
Q 1172 366 1500 366 
Q 1825 366 2078 508 
Q 2331 650 2450 897 
Q 2541 1088 2541 1459 
L 2541 1666 
z
" transform="scale(0.015625)"/>
        <path id="ArialMT-6c" d="M 409 0 
L 409 4581 
L 972 4581 
L 972 0 
L 409 0 
z
" transform="scale(0.015625)"/>
       </defs>
       <use xlink:href="#ArialMT-6e"/>
       <use xlink:href="#ArialMT-65" x="55.615234"/>
       <use xlink:href="#ArialMT-75" x="111.230469"/>
       <use xlink:href="#ArialMT-74" x="166.845703"/>
       <use xlink:href="#ArialMT-72" x="194.628906"/>
       <use xlink:href="#ArialMT-61" x="227.929688"/>
       <use xlink:href="#ArialMT-6c" x="283.544922"/>
      </g>
     </g>
    </g>
    <g id="xtick_3">
     <g id="text_3">
      <!-- incongruent -->
      <g style="fill: #262626" transform="translate(263.623437 324.273594) scale(0.11 -0.11)">
       <defs>
        <path id="ArialMT-69" d="M 425 3934 
L 425 4581 
L 988 4581 
L 988 3934 
L 425 3934 
z
M 425 0 
L 425 3319 
L 988 3319 
L 988 0 
L 425 0 
z
" transform="scale(0.015625)"/>
       </defs>
       <use xlink:href="#ArialMT-69"/>
       <use xlink:href="#ArialMT-6e" x="22.216797"/>
       <use xlink:href="#ArialMT-63" x="77.832031"/>
       <use xlink:href="#ArialMT-6f" x="127.832031"/>
       <use xlink:href="#ArialMT-6e" x="183.447266"/>
       <use xlink:href="#ArialMT-67" x="239.0625"/>
       <use xlink:href="#ArialMT-72" x="294.677734"/>
       <use xlink:href="#ArialMT-75" x="327.978516"/>
       <use xlink:href="#ArialMT-65" x="383.59375"/>
       <use xlink:href="#ArialMT-6e" x="439.208984"/>
       <use xlink:href="#ArialMT-74" x="494.824219"/>
      </g>
     </g>
    </g>
    <g id="text_4">
     <!-- flankers -->
     <g style="fill: #262626" transform="translate(173.196875 339.178125) scale(0.12 -0.12)">
      <defs>
       <path id="ArialMT-66" d="M 556 0 
L 556 2881 
L 59 2881 
L 59 3319 
L 556 3319 
L 556 3672 
Q 556 4006 616 4169 
Q 697 4388 901 4523 
Q 1106 4659 1475 4659 
Q 1713 4659 2000 4603 
L 1916 4113 
Q 1741 4144 1584 4144 
Q 1328 4144 1222 4034 
Q 1116 3925 1116 3625 
L 1116 3319 
L 1763 3319 
L 1763 2881 
L 1116 2881 
L 1116 0 
L 556 0 
z
" transform="scale(0.015625)"/>
       <path id="ArialMT-6b" d="M 425 0 
L 425 4581 
L 988 4581 
L 988 1969 
L 2319 3319 
L 3047 3319 
L 1778 2088 
L 3175 0 
L 2481 0 
L 1384 1697 
L 988 1316 
L 988 0 
L 425 0 
z
" transform="scale(0.015625)"/>
       <path id="ArialMT-73" d="M 197 991 
L 753 1078 
Q 800 744 1014 566 
Q 1228 388 1613 388 
Q 2000 388 2187 545 
Q 2375 703 2375 916 
Q 2375 1106 2209 1216 
Q 2094 1291 1634 1406 
Q 1016 1563 777 1677 
Q 538 1791 414 1992 
Q 291 2194 291 2438 
Q 291 2659 392 2848 
Q 494 3038 669 3163 
Q 800 3259 1026 3326 
Q 1253 3394 1513 3394 
Q 1903 3394 2198 3281 
Q 2494 3169 2634 2976 
Q 2775 2784 2828 2463 
L 2278 2388 
Q 2241 2644 2061 2787 
Q 1881 2931 1553 2931 
Q 1166 2931 1000 2803 
Q 834 2675 834 2503 
Q 834 2394 903 2306 
Q 972 2216 1119 2156 
Q 1203 2125 1616 2013 
Q 2213 1853 2448 1751 
Q 2684 1650 2818 1456 
Q 2953 1263 2953 975 
Q 2953 694 2789 445 
Q 2625 197 2315 61 
Q 2006 -75 1616 -75 
Q 969 -75 630 194 
Q 291 463 197 991 
z
" transform="scale(0.015625)"/>
      </defs>
      <use xlink:href="#ArialMT-66"/>
      <use xlink:href="#ArialMT-6c" x="27.783203"/>
      <use xlink:href="#ArialMT-61" x="50"/>
      <use xlink:href="#ArialMT-6e" x="105.615234"/>
      <use xlink:href="#ArialMT-6b" x="161.230469"/>
      <use xlink:href="#ArialMT-65" x="211.230469"/>
      <use xlink:href="#ArialMT-72" x="266.845703"/>
      <use xlink:href="#ArialMT-73" x="300.146484"/>
     </g>
    </g>
   </g>
   <g id="matplotlib.axis_2">
    <g id="ytick_1">
     <g id="line2d_1">
      <path d="M 46.964375 283.246501 
L 341.444375 283.246501 
" clip-path="url(#pf964efe0bc)" style="fill: none; stroke: #ffffff; stroke-linecap: round"/>
     </g>
     <g id="text_5">
      <!-- 0.0 -->
      <g style="fill: #262626" transform="translate(22.174375 287.183298) scale(0.11 -0.11)">
       <defs>
        <path id="ArialMT-30" d="M 266 2259 
Q 266 3072 433 3567 
Q 600 4063 929 4331 
Q 1259 4600 1759 4600 
Q 2128 4600 2406 4451 
Q 2684 4303 2865 4023 
Q 3047 3744 3150 3342 
Q 3253 2941 3253 2259 
Q 3253 1453 3087 958 
Q 2922 463 2592 192 
Q 2263 -78 1759 -78 
Q 1097 -78 719 397 
Q 266 969 266 2259 
z
M 844 2259 
Q 844 1131 1108 757 
Q 1372 384 1759 384 
Q 2147 384 2411 759 
Q 2675 1134 2675 2259 
Q 2675 3391 2411 3762 
Q 2147 4134 1753 4134 
Q 1366 4134 1134 3806 
Q 844 3388 844 2259 
z
" transform="scale(0.015625)"/>
        <path id="ArialMT-2e" d="M 581 0 
L 581 641 
L 1222 641 
L 1222 0 
L 581 0 
z
" transform="scale(0.015625)"/>
       </defs>
       <use xlink:href="#ArialMT-30"/>
       <use xlink:href="#ArialMT-2e" x="55.615234"/>
       <use xlink:href="#ArialMT-30" x="83.398438"/>
      </g>
     </g>
    </g>
    <g id="ytick_2">
     <g id="line2d_2">
      <path d="M 46.964375 231.951071 
L 341.444375 231.951071 
" clip-path="url(#pf964efe0bc)" style="fill: none; stroke: #ffffff; stroke-linecap: round"/>
     </g>
     <g id="text_6">
      <!-- 0.2 -->
      <g style="fill: #262626" transform="translate(22.174375 235.887868) scale(0.11 -0.11)">
       <defs>
        <path id="ArialMT-32" d="M 3222 541 
L 3222 0 
L 194 0 
Q 188 203 259 391 
Q 375 700 629 1000 
Q 884 1300 1366 1694 
Q 2113 2306 2375 2664 
Q 2638 3022 2638 3341 
Q 2638 3675 2398 3904 
Q 2159 4134 1775 4134 
Q 1369 4134 1125 3890 
Q 881 3647 878 3216 
L 300 3275 
Q 359 3922 746 4261 
Q 1134 4600 1788 4600 
Q 2447 4600 2831 4234 
Q 3216 3869 3216 3328 
Q 3216 3053 3103 2787 
Q 2991 2522 2730 2228 
Q 2469 1934 1863 1422 
Q 1356 997 1212 845 
Q 1069 694 975 541 
L 3222 541 
z
" transform="scale(0.015625)"/>
       </defs>
       <use xlink:href="#ArialMT-30"/>
       <use xlink:href="#ArialMT-2e" x="55.615234"/>
       <use xlink:href="#ArialMT-32" x="83.398438"/>
      </g>
     </g>
    </g>
    <g id="ytick_3">
     <g id="line2d_3">
      <path d="M 46.964375 180.655641 
L 341.444375 180.655641 
" clip-path="url(#pf964efe0bc)" style="fill: none; stroke: #ffffff; stroke-linecap: round"/>
     </g>
     <g id="text_7">
      <!-- 0.4 -->
      <g style="fill: #262626" transform="translate(22.174375 184.592438) scale(0.11 -0.11)">
       <defs>
        <path id="ArialMT-34" d="M 2069 0 
L 2069 1097 
L 81 1097 
L 81 1613 
L 2172 4581 
L 2631 4581 
L 2631 1613 
L 3250 1613 
L 3250 1097 
L 2631 1097 
L 2631 0 
L 2069 0 
z
M 2069 1613 
L 2069 3678 
L 634 1613 
L 2069 1613 
z
" transform="scale(0.015625)"/>
       </defs>
       <use xlink:href="#ArialMT-30"/>
       <use xlink:href="#ArialMT-2e" x="55.615234"/>
       <use xlink:href="#ArialMT-34" x="83.398438"/>
      </g>
     </g>
    </g>
    <g id="ytick_4">
     <g id="line2d_4">
      <path d="M 46.964375 129.360212 
L 341.444375 129.360212 
" clip-path="url(#pf964efe0bc)" style="fill: none; stroke: #ffffff; stroke-linecap: round"/>
     </g>
     <g id="text_8">
      <!-- 0.6 -->
      <g style="fill: #262626" transform="translate(22.174375 133.297008) scale(0.11 -0.11)">
       <defs>
        <path id="ArialMT-36" d="M 3184 3459 
L 2625 3416 
Q 2550 3747 2413 3897 
Q 2184 4138 1850 4138 
Q 1581 4138 1378 3988 
Q 1113 3794 959 3422 
Q 806 3050 800 2363 
Q 1003 2672 1297 2822 
Q 1591 2972 1913 2972 
Q 2475 2972 2870 2558 
Q 3266 2144 3266 1488 
Q 3266 1056 3080 686 
Q 2894 316 2569 119 
Q 2244 -78 1831 -78 
Q 1128 -78 684 439 
Q 241 956 241 2144 
Q 241 3472 731 4075 
Q 1159 4600 1884 4600 
Q 2425 4600 2770 4297 
Q 3116 3994 3184 3459 
z
M 888 1484 
Q 888 1194 1011 928 
Q 1134 663 1356 523 
Q 1578 384 1822 384 
Q 2178 384 2434 671 
Q 2691 959 2691 1453 
Q 2691 1928 2437 2201 
Q 2184 2475 1800 2475 
Q 1419 2475 1153 2201 
Q 888 1928 888 1484 
z
" transform="scale(0.015625)"/>
       </defs>
       <use xlink:href="#ArialMT-30"/>
       <use xlink:href="#ArialMT-2e" x="55.615234"/>
       <use xlink:href="#ArialMT-36" x="83.398438"/>
      </g>
     </g>
    </g>
    <g id="ytick_5">
     <g id="line2d_5">
      <path d="M 46.964375 78.064782 
L 341.444375 78.064782 
" clip-path="url(#pf964efe0bc)" style="fill: none; stroke: #ffffff; stroke-linecap: round"/>
     </g>
     <g id="text_9">
      <!-- 0.8 -->
      <g style="fill: #262626" transform="translate(22.174375 82.001579) scale(0.11 -0.11)">
       <defs>
        <path id="ArialMT-38" d="M 1131 2484 
Q 781 2613 612 2850 
Q 444 3088 444 3419 
Q 444 3919 803 4259 
Q 1163 4600 1759 4600 
Q 2359 4600 2725 4251 
Q 3091 3903 3091 3403 
Q 3091 3084 2923 2848 
Q 2756 2613 2416 2484 
Q 2838 2347 3058 2040 
Q 3278 1734 3278 1309 
Q 3278 722 2862 322 
Q 2447 -78 1769 -78 
Q 1091 -78 675 323 
Q 259 725 259 1325 
Q 259 1772 486 2073 
Q 713 2375 1131 2484 
z
M 1019 3438 
Q 1019 3113 1228 2906 
Q 1438 2700 1772 2700 
Q 2097 2700 2305 2904 
Q 2513 3109 2513 3406 
Q 2513 3716 2298 3927 
Q 2084 4138 1766 4138 
Q 1444 4138 1231 3931 
Q 1019 3725 1019 3438 
z
M 838 1322 
Q 838 1081 952 856 
Q 1066 631 1291 507 
Q 1516 384 1775 384 
Q 2178 384 2440 643 
Q 2703 903 2703 1303 
Q 2703 1709 2433 1975 
Q 2163 2241 1756 2241 
Q 1359 2241 1098 1978 
Q 838 1716 838 1322 
z
" transform="scale(0.015625)"/>
       </defs>
       <use xlink:href="#ArialMT-30"/>
       <use xlink:href="#ArialMT-2e" x="55.615234"/>
       <use xlink:href="#ArialMT-38" x="83.398438"/>
      </g>
     </g>
    </g>
    <g id="ytick_6">
     <g id="line2d_6">
      <path d="M 46.964375 26.769352 
L 341.444375 26.769352 
" clip-path="url(#pf964efe0bc)" style="fill: none; stroke: #ffffff; stroke-linecap: round"/>
     </g>
     <g id="text_10">
      <!-- 1.0 -->
      <g style="fill: #262626" transform="translate(22.174375 30.706149) scale(0.11 -0.11)">
       <defs>
        <path id="ArialMT-31" d="M 2384 0 
L 1822 0 
L 1822 3584 
Q 1619 3391 1289 3197 
Q 959 3003 697 2906 
L 697 3450 
Q 1169 3672 1522 3987 
Q 1875 4303 2022 4600 
L 2384 4600 
L 2384 0 
z
" transform="scale(0.015625)"/>
       </defs>
       <use xlink:href="#ArialMT-31"/>
       <use xlink:href="#ArialMT-2e" x="55.615234"/>
       <use xlink:href="#ArialMT-30" x="83.398438"/>
      </g>
     </g>
    </g>
    <g id="text_11">
     <!-- rt -->
     <g style="fill: #262626" transform="translate(15.789375 160.714687) rotate(-90) scale(0.12 -0.12)">
      <use xlink:href="#ArialMT-72"/>
      <use xlink:href="#ArialMT-74" x="33.300781"/>
     </g>
    </g>
   </g>
   <g id="PolyCollection_1">
    <defs>
     <path id="mb6284dcb55" d="M 96.060645 -55.485852 
L 96.028105 -55.485852 
L 96.009153 -58.185457 
L 95.980632 -60.885062 
L 95.947262 -63.584667 
L 95.917987 -66.284271 
L 95.899893 -68.983876 
L 95.892827 -71.683481 
L 95.891641 -74.383086 
L 95.894019 -77.08269 
L 95.903827 -79.782295 
L 95.925487 -82.4819 
L 95.956872 -85.181505 
L 95.989534 -87.88111 
L 96.015008 -90.580714 
L 96.029395 -93.280319 
L 96.032508 -95.979924 
L 96.024625 -98.679529 
L 96.005507 -101.379134 
L 95.977051 -104.078738 
L 95.946437 -106.778343 
L 95.92467 -109.477948 
L 95.919231 -112.177553 
L 95.927023 -114.877157 
L 95.935911 -117.576762 
L 95.935055 -120.276367 
L 95.924146 -122.975972 
L 95.911126 -125.675577 
L 95.897721 -128.375181 
L 95.86211 -131.074786 
L 95.748932 -133.774391 
L 95.469406 -136.473996 
L 94.907022 -139.1736 
L 93.923442 -141.873205 
L 92.365169 -144.57281 
L 90.077969 -147.272415 
L 86.935582 -149.97202 
L 82.886067 -152.671624 
L 78.019941 -155.371229 
L 72.64578 -158.070834 
L 67.306782 -160.770439 
L 62.660904 -163.470043 
L 59.251949 -166.169648 
L 57.320629 -168.869253 
L 56.780375 -171.568858 
L 57.344899 -174.268463 
L 58.699343 -176.968067 
L 60.600187 -179.667672 
L 62.848182 -182.367277 
L 65.197532 -185.066882 
L 67.346431 -187.766486 
L 69.066781 -190.466091 
L 70.352781 -193.165696 
L 71.427343 -195.865301 
L 72.592141 -198.564906 
L 74.055894 -201.26451 
L 75.869481 -203.964115 
L 77.970873 -206.66372 
L 80.245044 -209.363325 
L 82.534337 -212.062929 
L 84.638404 -214.762534 
L 86.369242 -217.462139 
L 87.639553 -220.161744 
L 88.499457 -222.861349 
L 89.090782 -225.560953 
L 89.57035 -228.260558 
L 90.055776 -230.960163 
L 90.601852 -233.659768 
L 91.20076 -236.359372 
L 91.808055 -239.058977 
L 92.383313 -241.758582 
L 92.913065 -244.458187 
L 93.39903 -247.157792 
L 93.834773 -249.857396 
L 94.20245 -252.557001 
L 94.488688 -255.256606 
L 94.695327 -257.956211 
L 94.835031 -260.655815 
L 94.924308 -263.35542 
L 94.983493 -266.055025 
L 95.035757 -268.75463 
L 95.097493 -271.454235 
L 95.16995 -274.153839 
L 95.244061 -276.853444 
L 95.311747 -279.553049 
L 95.370114 -282.252654 
L 95.419763 -284.952258 
L 95.466301 -287.651863 
L 95.522419 -290.351468 
L 95.600588 -293.051073 
L 95.699217 -295.750678 
L 95.798328 -298.450282 
L 95.872457 -301.149887 
L 95.909254 -303.849492 
L 95.917106 -306.549097 
L 95.916915 -309.248701 
L 95.926568 -311.948306 
L 95.950629 -314.647911 
L 95.981692 -317.347516 
L 96.009424 -320.047121 
L 96.028162 -322.746725 
L 96.060588 -322.746725 
L 96.060588 -322.746725 
L 96.079326 -320.047121 
L 96.107058 -317.347516 
L 96.138121 -314.647911 
L 96.162182 -311.948306 
L 96.171835 -309.248701 
L 96.171644 -306.549097 
L 96.179496 -303.849492 
L 96.216293 -301.149887 
L 96.290422 -298.450282 
L 96.389533 -295.750678 
L 96.488162 -293.051073 
L 96.566331 -290.351468 
L 96.622449 -287.651863 
L 96.668987 -284.952258 
L 96.718636 -282.252654 
L 96.777003 -279.553049 
L 96.844689 -276.853444 
L 96.9188 -274.153839 
L 96.991257 -271.454235 
L 97.052993 -268.75463 
L 97.105257 -266.055025 
L 97.164442 -263.35542 
L 97.253719 -260.655815 
L 97.393423 -257.956211 
L 97.600062 -255.256606 
L 97.8863 -252.557001 
L 98.253977 -249.857396 
L 98.68972 -247.157792 
L 99.175685 -244.458187 
L 99.705437 -241.758582 
L 100.280695 -239.058977 
L 100.88799 -236.359372 
L 101.486898 -233.659768 
L 102.032974 -230.960163 
L 102.5184 -228.260558 
L 102.997968 -225.560953 
L 103.589293 -222.861349 
L 104.449197 -220.161744 
L 105.719508 -217.462139 
L 107.450346 -214.762534 
L 109.554413 -212.062929 
L 111.843706 -209.363325 
L 114.117877 -206.66372 
L 116.219269 -203.964115 
L 118.032856 -201.26451 
L 119.496609 -198.564906 
L 120.661407 -195.865301 
L 121.735969 -193.165696 
L 123.021969 -190.466091 
L 124.742319 -187.766486 
L 126.891218 -185.066882 
L 129.240568 -182.367277 
L 131.488563 -179.667672 
L 133.389407 -176.968067 
L 134.743851 -174.268463 
L 135.308375 -171.568858 
L 134.768121 -168.869253 
L 132.836801 -166.169648 
L 129.427846 -163.470043 
L 124.781968 -160.770439 
L 119.44297 -158.070834 
L 114.068809 -155.371229 
L 109.202683 -152.671624 
L 105.153168 -149.97202 
L 102.010781 -147.272415 
L 99.723581 -144.57281 
L 98.165308 -141.873205 
L 97.181728 -139.1736 
L 96.619344 -136.473996 
L 96.339818 -133.774391 
L 96.22664 -131.074786 
L 96.191029 -128.375181 
L 96.177624 -125.675577 
L 96.164604 -122.975972 
L 96.153695 -120.276367 
L 96.152839 -117.576762 
L 96.161727 -114.877157 
L 96.169519 -112.177553 
L 96.16408 -109.477948 
L 96.142313 -106.778343 
L 96.111699 -104.078738 
L 96.083243 -101.379134 
L 96.064125 -98.679529 
L 96.056242 -95.979924 
L 96.059355 -93.280319 
L 96.073742 -90.580714 
L 96.099216 -87.88111 
L 96.131878 -85.181505 
L 96.163263 -82.4819 
L 96.184923 -79.782295 
L 96.194731 -77.08269 
L 96.197109 -74.383086 
L 96.195923 -71.683481 
L 96.188857 -68.983876 
L 96.170763 -66.284271 
L 96.141488 -63.584667 
L 96.108118 -60.885062 
L 96.079597 -58.185457 
L 96.060645 -55.485852 
z
" style="stroke: #303030; stroke-width: 1.5"/>
    </defs>
    <g clip-path="url(#pf964efe0bc)">
     <use xlink:href="#mb6284dcb55" x="0" y="348.763125" style="fill: #176d9c; stroke: #303030; stroke-width: 1.5"/>
    </g>
   </g>
   <g id="PolyCollection_2">
    <defs>
     <path id="m9e42eb576f" d="M 194.225306 -62.666703 
L 194.183444 -62.666703 
L 194.150413 -65.346235 
L 194.092393 -68.025767 
L 194.015755 -70.7053 
L 193.943862 -73.384832 
L 193.906141 -76.064364 
L 193.918835 -78.743896 
L 193.974744 -81.423429 
L 194.04957 -84.102961 
L 194.117542 -86.782493 
L 194.164267 -89.462026 
L 194.189279 -92.141558 
L 194.199786 -94.82109 
L 194.203256 -97.500622 
L 194.204157 -100.180155 
L 194.204341 -102.859687 
L 194.20437 -105.539219 
L 194.204367 -108.218751 
L 194.204318 -110.898284 
L 194.20403 -113.577816 
L 194.202733 -116.257348 
L 194.198177 -118.936881 
L 194.185781 -121.616413 
L 194.159732 -124.295945 
L 194.117231 -126.975477 
L 194.061576 -129.65501 
L 193.996318 -132.334542 
L 193.912944 -135.014074 
L 193.784478 -137.693606 
L 193.560397 -140.373139 
L 193.141886 -143.052671 
L 192.355639 -145.732203 
L 190.992654 -148.411736 
L 188.927704 -151.091268 
L 186.223987 -153.7708 
L 183.118615 -156.450332 
L 179.900676 -159.129865 
L 176.780864 -161.809397 
L 173.827223 -164.488929 
L 170.979658 -167.168461 
L 168.129426 -169.847994 
L 165.246647 -172.527526 
L 162.498593 -175.207058 
L 160.225318 -177.88659 
L 158.708287 -180.566123 
L 157.948879 -183.245655 
L 157.754724 -185.925187 
L 158.036335 -188.60472 
L 158.903492 -191.284252 
L 160.453417 -193.963784 
L 162.576348 -196.643316 
L 165.009991 -199.322849 
L 167.49925 -202.002381 
L 169.852556 -204.681913 
L 171.915654 -207.361445 
L 173.595185 -210.040978 
L 174.941523 -212.72051 
L 176.172057 -215.400042 
L 177.555642 -218.079575 
L 179.227577 -220.759107 
L 181.100842 -223.438639 
L 182.970434 -226.118171 
L 184.703016 -228.797704 
L 186.297514 -231.477236 
L 187.777248 -234.156768 
L 189.092901 -236.8363 
L 190.156292 -239.515833 
L 190.930092 -242.195365 
L 191.459877 -244.874897 
L 191.829712 -247.55443 
L 192.101831 -250.233962 
L 192.301493 -252.913494 
L 192.441444 -255.593026 
L 192.538436 -258.272559 
L 192.611195 -260.952091 
L 192.681153 -263.631623 
L 192.769834 -266.311155 
L 192.88092 -268.990688 
L 192.994799 -271.67022 
L 193.093838 -274.349752 
L 193.18361 -277.029285 
L 193.282595 -279.708817 
L 193.400242 -282.388349 
L 193.527036 -285.067881 
L 193.638047 -287.747414 
L 193.705754 -290.426946 
L 193.717971 -293.106478 
L 193.691339 -295.78601 
L 193.667204 -298.465543 
L 193.685559 -301.145075 
L 193.756607 -303.824607 
L 193.857848 -306.50414 
L 193.956209 -309.183672 
L 194.030193 -311.863204 
L 194.07731 -314.542736 
L 194.108428 -317.222269 
L 194.135208 -319.901801 
L 194.160856 -322.581333 
L 194.181781 -325.260865 
L 194.194956 -327.940398 
L 194.213794 -327.940398 
L 194.213794 -327.940398 
L 194.226969 -325.260865 
L 194.247894 -322.581333 
L 194.273542 -319.901801 
L 194.300322 -317.222269 
L 194.33144 -314.542736 
L 194.378557 -311.863204 
L 194.452541 -309.183672 
L 194.550902 -306.50414 
L 194.652143 -303.824607 
L 194.723191 -301.145075 
L 194.741546 -298.465543 
L 194.717411 -295.78601 
L 194.690779 -293.106478 
L 194.702996 -290.426946 
L 194.770703 -287.747414 
L 194.881714 -285.067881 
L 195.008508 -282.388349 
L 195.126155 -279.708817 
L 195.22514 -277.029285 
L 195.314912 -274.349752 
L 195.413951 -271.67022 
L 195.52783 -268.990688 
L 195.638916 -266.311155 
L 195.727597 -263.631623 
L 195.797555 -260.952091 
L 195.870314 -258.272559 
L 195.967306 -255.593026 
L 196.107257 -252.913494 
L 196.306919 -250.233962 
L 196.579038 -247.55443 
L 196.948873 -244.874897 
L 197.478658 -242.195365 
L 198.252458 -239.515833 
L 199.315849 -236.8363 
L 200.631502 -234.156768 
L 202.111236 -231.477236 
L 203.705734 -228.797704 
L 205.438316 -226.118171 
L 207.307908 -223.438639 
L 209.181173 -220.759107 
L 210.853108 -218.079575 
L 212.236693 -215.400042 
L 213.467227 -212.72051 
L 214.813565 -210.040978 
L 216.493096 -207.361445 
L 218.556194 -204.681913 
L 220.9095 -202.002381 
L 223.398759 -199.322849 
L 225.832402 -196.643316 
L 227.955333 -193.963784 
L 229.505258 -191.284252 
L 230.372415 -188.60472 
L 230.654026 -185.925187 
L 230.459871 -183.245655 
L 229.700463 -180.566123 
L 228.183432 -177.88659 
L 225.910157 -175.207058 
L 223.162103 -172.527526 
L 220.279324 -169.847994 
L 217.429092 -167.168461 
L 214.581527 -164.488929 
L 211.627886 -161.809397 
L 208.508074 -159.129865 
L 205.290135 -156.450332 
L 202.184763 -153.7708 
L 199.481046 -151.091268 
L 197.416096 -148.411736 
L 196.053111 -145.732203 
L 195.266864 -143.052671 
L 194.848353 -140.373139 
L 194.624272 -137.693606 
L 194.495806 -135.014074 
L 194.412432 -132.334542 
L 194.347174 -129.65501 
L 194.291519 -126.975477 
L 194.249018 -124.295945 
L 194.222969 -121.616413 
L 194.210573 -118.936881 
L 194.206017 -116.257348 
L 194.20472 -113.577816 
L 194.204432 -110.898284 
L 194.204383 -108.218751 
L 194.20438 -105.539219 
L 194.204409 -102.859687 
L 194.204593 -100.180155 
L 194.205494 -97.500622 
L 194.208964 -94.82109 
L 194.219471 -92.141558 
L 194.244483 -89.462026 
L 194.291208 -86.782493 
L 194.35918 -84.102961 
L 194.434006 -81.423429 
L 194.489915 -78.743896 
L 194.502609 -76.064364 
L 194.464888 -73.384832 
L 194.392995 -70.7053 
L 194.316357 -68.025767 
L 194.258337 -65.346235 
L 194.225306 -62.666703 
z
" style="stroke: #303030; stroke-width: 1.5"/>
    </defs>
    <g clip-path="url(#pf964efe0bc)">
     <use xlink:href="#m9e42eb576f" x="0" y="348.763125" style="fill: #c38820; stroke: #303030; stroke-width: 1.5"/>
    </g>
   </g>
   <g id="PolyCollection_3">
    <defs>
     <path id="m64bc40f330" d="M 292.379553 -67.686152 
L 292.349197 -67.686152 
L 292.333804 -70.304414 
L 292.310797 -72.922675 
L 292.282197 -75.540936 
L 292.252974 -78.159198 
L 292.228821 -80.777459 
L 292.213175 -83.395721 
L 292.206294 -86.013982 
L 292.207254 -88.632244 
L 292.216241 -91.250505 
L 292.234151 -93.868767 
L 292.260026 -96.487028 
L 292.289654 -99.10529 
L 292.317225 -101.723551 
L 292.338379 -104.341813 
L 292.351902 -106.960074 
L 292.359116 -109.578336 
L 292.362166 -112.196597 
L 292.362558 -114.814859 
L 292.360357 -117.43312 
L 292.353651 -120.051382 
L 292.337805 -122.669643 
L 292.304257 -125.287905 
L 292.238776 -127.906166 
L 292.119636 -130.524427 
L 291.917243 -133.142689 
L 291.597347 -135.76095 
L 291.127353 -138.379212 
L 290.480469 -140.997473 
L 289.632584 -143.615735 
L 288.556568 -146.233996 
L 287.227528 -148.852258 
L 285.644089 -151.470519 
L 283.849671 -154.088781 
L 281.931544 -156.707042 
L 279.995527 -159.325304 
L 278.133953 -161.943565 
L 276.398641 -164.561827 
L 274.776078 -167.180088 
L 273.170456 -169.79835 
L 271.421696 -172.416611 
L 269.378641 -175.034873 
L 267.00241 -177.653134 
L 264.43556 -180.271396 
L 261.984156 -182.889657 
L 260.01496 -185.507918 
L 258.821188 -188.12618 
L 258.521597 -190.744441 
L 259.033482 -193.362703 
L 260.125555 -195.980964 
L 261.526001 -198.599226 
L 263.036341 -201.217487 
L 264.593066 -203.835749 
L 266.243135 -206.45401 
L 268.052419 -209.072272 
L 270.012552 -211.690533 
L 272.013219 -214.308795 
L 273.898945 -216.927056 
L 275.566297 -219.545318 
L 277.025828 -222.163579 
L 278.379055 -224.781841 
L 279.728689 -227.400102 
L 281.096514 -230.018364 
L 282.414901 -232.636625 
L 283.589817 -235.254887 
L 284.573103 -237.873148 
L 285.386981 -240.49141 
L 286.096223 -243.109671 
L 286.762291 -245.727932 
L 287.411855 -248.346194 
L 288.031173 -250.964455 
L 288.582847 -253.582717 
L 289.03378 -256.200978 
L 289.377761 -258.81924 
L 289.638124 -261.437501 
L 289.850221 -264.055763 
L 290.04005 -266.674024 
L 290.217173 -269.292286 
L 290.384031 -271.910547 
L 290.547403 -274.528809 
L 290.718531 -277.14707 
L 290.90338 -279.765332 
L 291.095063 -282.383593 
L 291.276772 -285.001855 
L 291.432752 -287.620116 
L 291.558427 -290.238378 
L 291.662316 -292.856639 
L 291.758868 -295.474901 
L 291.85785 -298.093162 
L 291.958077 -300.711423 
L 292.049523 -303.329685 
L 292.121506 -305.947946 
L 292.170567 -308.566208 
L 292.202507 -311.184469 
L 292.22773 -313.802731 
L 292.25415 -316.420992 
L 292.283219 -319.039254 
L 292.311312 -321.657515 
L 292.334 -324.275777 
L 292.349258 -326.894038 
L 292.379492 -326.894038 
L 292.379492 -326.894038 
L 292.39475 -324.275777 
L 292.417438 -321.657515 
L 292.445531 -319.039254 
L 292.4746 -316.420992 
L 292.50102 -313.802731 
L 292.526243 -311.184469 
L 292.558183 -308.566208 
L 292.607244 -305.947946 
L 292.679227 -303.329685 
L 292.770673 -300.711423 
L 292.8709 -298.093162 
L 292.969882 -295.474901 
L 293.066434 -292.856639 
L 293.170323 -290.238378 
L 293.295998 -287.620116 
L 293.451978 -285.001855 
L 293.633687 -282.383593 
L 293.82537 -279.765332 
L 294.010219 -277.14707 
L 294.181347 -274.528809 
L 294.344719 -271.910547 
L 294.511577 -269.292286 
L 294.6887 -266.674024 
L 294.878529 -264.055763 
L 295.090626 -261.437501 
L 295.350989 -258.81924 
L 295.69497 -256.200978 
L 296.145903 -253.582717 
L 296.697577 -250.964455 
L 297.316895 -248.346194 
L 297.966459 -245.727932 
L 298.632527 -243.109671 
L 299.341769 -240.49141 
L 300.155647 -237.873148 
L 301.138933 -235.254887 
L 302.313849 -232.636625 
L 303.632236 -230.018364 
L 305.000061 -227.400102 
L 306.349695 -224.781841 
L 307.702922 -222.163579 
L 309.162453 -219.545318 
L 310.829805 -216.927056 
L 312.715531 -214.308795 
L 314.716198 -211.690533 
L 316.676331 -209.072272 
L 318.485615 -206.45401 
L 320.135684 -203.835749 
L 321.692409 -201.217487 
L 323.202749 -198.599226 
L 324.603195 -195.980964 
L 325.695268 -193.362703 
L 326.207153 -190.744441 
L 325.907562 -188.12618 
L 324.71379 -185.507918 
L 322.744594 -182.889657 
L 320.29319 -180.271396 
L 317.72634 -177.653134 
L 315.350109 -175.034873 
L 313.307054 -172.416611 
L 311.558294 -169.79835 
L 309.952672 -167.180088 
L 308.330109 -164.561827 
L 306.594797 -161.943565 
L 304.733223 -159.325304 
L 302.797206 -156.707042 
L 300.879079 -154.088781 
L 299.084661 -151.470519 
L 297.501222 -148.852258 
L 296.172182 -146.233996 
L 295.096166 -143.615735 
L 294.248281 -140.997473 
L 293.601397 -138.379212 
L 293.131403 -135.76095 
L 292.811507 -133.142689 
L 292.609114 -130.524427 
L 292.489974 -127.906166 
L 292.424493 -125.287905 
L 292.390945 -122.669643 
L 292.375099 -120.051382 
L 292.368393 -117.43312 
L 292.366192 -114.814859 
L 292.366584 -112.196597 
L 292.369634 -109.578336 
L 292.376848 -106.960074 
L 292.390371 -104.341813 
L 292.411525 -101.723551 
L 292.439096 -99.10529 
L 292.468724 -96.487028 
L 292.494599 -93.868767 
L 292.512509 -91.250505 
L 292.521496 -88.632244 
L 292.522456 -86.013982 
L 292.515575 -83.395721 
L 292.499929 -80.777459 
L 292.475776 -78.159198 
L 292.446553 -75.540936 
L 292.417953 -72.922675 
L 292.394946 -70.304414 
L 292.379553 -67.686152 
z
" style="stroke: #303030; stroke-width: 1.5"/>
    </defs>
    <g clip-path="url(#pf964efe0bc)">
     <use xlink:href="#m64bc40f330" x="0" y="348.763125" style="fill: #158b6a; stroke: #303030; stroke-width: 1.5"/>
    </g>
   </g>
   <g id="line2d_7">
    <path d="M 96.044375 222.004882 
L 96.044375 105.060512 
" clip-path="url(#pf964efe0bc)" style="fill: none; stroke: #303030; stroke-width: 1.5; stroke-linecap: round"/>
   </g>
   <g id="line2d_8">
    <path d="M 96.044375 180.212654 
L 96.044375 149.490077 
" clip-path="url(#pf964efe0bc)" style="fill: none; stroke: #303030; stroke-width: 4.5; stroke-linecap: round"/>
   </g>
   <g id="line2d_9">
    <path d="M 194.204375 216.883782 
L 194.204375 95.884567 
" clip-path="url(#pf964efe0bc)" style="fill: none; stroke: #303030; stroke-width: 1.5; stroke-linecap: round"/>
   </g>
   <g id="line2d_10">
    <path d="M 194.204375 172.058263 
L 194.204375 141.449805 
" clip-path="url(#pf964efe0bc)" style="fill: none; stroke: #303030; stroke-width: 4.5; stroke-linecap: round"/>
   </g>
   <g id="line2d_11">
    <path d="M 292.364375 213.21338 
L 292.364375 88.981221 
" clip-path="url(#pf964efe0bc)" style="fill: none; stroke: #303030; stroke-width: 1.5; stroke-linecap: round"/>
   </g>
   <g id="line2d_12">
    <path d="M 292.364375 167.94875 
L 292.364375 136.280948 
" clip-path="url(#pf964efe0bc)" style="fill: none; stroke: #303030; stroke-width: 4.5; stroke-linecap: round"/>
   </g>
   <g id="patch_3">
    <path d="M 46.964375 306.9 
L 46.964375 7.2 
" style="fill: none; stroke: #ffffff; stroke-width: 1.25; stroke-linejoin: miter; stroke-linecap: square"/>
   </g>
   <g id="patch_4">
    <path d="M 46.964375 306.9 
L 341.444375 306.9 
" style="fill: none; stroke: #ffffff; stroke-width: 1.25; stroke-linejoin: miter; stroke-linecap: square"/>
   </g>
   <g id="PathCollection_1">
    <defs>
     <path id="mbff27686ad" d="M 0 1.5 
C 0.397805 1.5 0.77937 1.341951 1.06066 1.06066 
C 1.341951 0.77937 1.5 0.397805 1.5 0 
C 1.5 -0.397805 1.341951 -0.77937 1.06066 -1.06066 
C 0.77937 -1.341951 0.397805 -1.5 0 -1.5 
C -0.397805 -1.5 -0.77937 -1.341951 -1.06066 -1.06066 
C -1.341951 -0.77937 -1.5 -0.397805 -1.5 0 
C -1.5 0.397805 -1.341951 0.77937 -1.06066 1.06066 
C -0.77937 1.341951 -0.397805 1.5 0 1.5 
z
" style="stroke: #303030"/>
    </defs>
    <g clip-path="url(#pf964efe0bc)">
     <use xlink:href="#mbff27686ad" x="96.044375" y="167.879376" style="fill: #ffffff; stroke: #303030"/>
    </g>
   </g>
   <g id="PathCollection_2">
    <g clip-path="url(#pf964efe0bc)">
     <use xlink:href="#mbff27686ad" x="194.204375" y="158.690375" style="fill: #ffffff; stroke: #303030"/>
    </g>
   </g>
   <g id="PathCollection_3">
    <g clip-path="url(#pf964efe0bc)">
     <use xlink:href="#mbff27686ad" x="292.364375" y="153.82072" style="fill: #ffffff; stroke: #303030"/>
    </g>
   </g>
  </g>
 </g>
 <defs>
  <clipPath id="pf964efe0bc">
   <rect x="46.964375" y="7.2" width="294.48" height="299.7"/>
  </clipPath>
 </defs>
</svg>