<?xml version="1.0" encoding="utf-8" standalone="no"?>
<!DOCTYPE svg PUBLIC "-//W3C//DTD SVG 1.1//EN"
  "http://www.w3.org/Graphics/SVG/1.1/DTD/svg11.dtd">
<svg xmlns:xlink="http://www.w3.org/1999/xlink" width="621.650156pt" height="396.450469pt" viewBox="0 0 621.650156 396.450469" xmlns="http://www.w3.org/2000/svg" version="1.1">
 <metadata>
  <rdf:RDF xmlns:dc="http://purl.org/dc/elements/1.1/" xmlns:cc="http://creativecommons.org/ns#" xmlns:rdf="http://www.w3.org/1999/02/22-rdf-syntax-ns#">
   <cc:Work>
    <dc:type rdf:resource="http://purl.org/dc/dcmitype/StillImage"/>
    <dc:date>2023-05-17T22:19:24.832152</dc:date>
    <dc:format>image/svg+xml</dc:format>
    <dc:creator>
     <cc:Agent>
      <dc:title>Matplotlib v3.7.1, https://matplotlib.org/</dc:title>
     </cc:Agent>
    </dc:creator>
   </cc:Work>
  </rdf:RDF>
 </metadata>
 <defs>
  <style type="text/css">*{stroke-linejoin: round; stroke-linecap: butt}</style>
 </defs>
 <g id="figure_1">
  <g id="patch_1">
   <path d="M 0 396.450469 
L 621.650156 396.450469 
L 621.650156 0 
L 0 0 
z
" style="fill: #ffffff"/>
  </g>
  <g id="axes_1">
   <g id="patch_2">
    <path d="M 56.450156 354.429375 
L 614.450156 354.429375 
L 614.450156 21.789375 
L 56.450156 21.789375 
z
" style="fill: #eaeaf2"/>
   </g>
   <g id="matplotlib.axis_1">
    <g id="xtick_1">
     <g id="line2d_1">
      <path d="M 81.813793 354.429375 
L 81.813793 21.789375 
" clip-path="url(#p743afbbb5c)" style="fill: none; stroke: #ffffff; stroke-linecap: round"/>
     </g>
     <g id="text_1">
      <!-- 0.0 -->
      <g style="fill: #262626" transform="translate(74.168793 371.802969) scale(0.11 -0.11)">
       <defs>
        <path id="ArialMT-30" d="M 266 2259 
Q 266 3072 433 3567 
Q 600 4063 929 4331 
Q 1259 4600 1759 4600 
Q 2128 4600 2406 4451 
Q 2684 4303 2865 4023 
Q 3047 3744 3150 3342 
Q 3253 2941 3253 2259 
Q 3253 1453 3087 958 
Q 2922 463 2592 192 
Q 2263 -78 1759 -78 
Q 1097 -78 719 397 
Q 266 969 266 2259 
z
M 844 2259 
Q 844 1131 1108 757 
Q 1372 384 1759 384 
Q 2147 384 2411 759 
Q 2675 1134 2675 2259 
Q 2675 3391 2411 3762 
Q 2147 4134 1753 4134 
Q 1366 4134 1134 3806 
Q 844 3388 844 2259 
z
" transform="scale(0.015625)"/>
        <path id="ArialMT-2e" d="M 581 0 
L 581 641 
L 1222 641 
L 1222 0 
L 581 0 
z
" transform="scale(0.015625)"/>
       </defs>
       <use xlink:href="#ArialMT-30"/>
       <use xlink:href="#ArialMT-2e" x="55.615234"/>
       <use xlink:href="#ArialMT-30" x="83.398438"/>
      </g>
     </g>
    </g>
    <g id="xtick_2">
     <g id="line2d_2">
      <path d="M 183.268338 354.429375 
L 183.268338 21.789375 
" clip-path="url(#p743afbbb5c)" style="fill: none; stroke: #ffffff; stroke-linecap: round"/>
     </g>
     <g id="text_2">
      <!-- 0.2 -->
      <g style="fill: #262626" transform="translate(175.623338 371.802969) scale(0.11 -0.11)">
       <defs>
        <path id="ArialMT-32" d="M 3222 541 
L 3222 0 
L 194 0 
Q 188 203 259 391 
Q 375 700 629 1000 
Q 884 1300 1366 1694 
Q 2113 2306 2375 2664 
Q 2638 3022 2638 3341 
Q 2638 3675 2398 3904 
Q 2159 4134 1775 4134 
Q 1369 4134 1125 3890 
Q 881 3647 878 3216 
L 300 3275 
Q 359 3922 746 4261 
Q 1134 4600 1788 4600 
Q 2447 4600 2831 4234 
Q 3216 3869 3216 3328 
Q 3216 3053 3103 2787 
Q 2991 2522 2730 2228 
Q 2469 1934 1863 1422 
Q 1356 997 1212 845 
Q 1069 694 975 541 
L 3222 541 
z
" transform="scale(0.015625)"/>
       </defs>
       <use xlink:href="#ArialMT-30"/>
       <use xlink:href="#ArialMT-2e" x="55.615234"/>
       <use xlink:href="#ArialMT-32" x="83.398438"/>
      </g>
     </g>
    </g>
    <g id="xtick_3">
     <g id="line2d_3">
      <path d="M 284.722884 354.429375 
L 284.722884 21.789375 
" clip-path="url(#p743afbbb5c)" style="fill: none; stroke: #ffffff; stroke-linecap: round"/>
     </g>
     <g id="text_3">
      <!-- 0.4 -->
      <g style="fill: #262626" transform="translate(277.077884 371.802969) scale(0.11 -0.11)">
       <defs>
        <path id="ArialMT-34" d="M 2069 0 
L 2069 1097 
L 81 1097 
L 81 1613 
L 2172 4581 
L 2631 4581 
L 2631 1613 
L 3250 1613 
L 3250 1097 
L 2631 1097 
L 2631 0 
L 2069 0 
z
M 2069 1613 
L 2069 3678 
L 634 1613 
L 2069 1613 
z
" transform="scale(0.015625)"/>
       </defs>
       <use xlink:href="#ArialMT-30"/>
       <use xlink:href="#ArialMT-2e" x="55.615234"/>
       <use xlink:href="#ArialMT-34" x="83.398438"/>
      </g>
     </g>
    </g>
    <g id="xtick_4">
     <g id="line2d_4">
      <path d="M 386.177429 354.429375 
L 386.177429 21.789375 
" clip-path="url(#p743afbbb5c)" style="fill: none; stroke: #ffffff; stroke-linecap: round"/>
     </g>
     <g id="text_4">
      <!-- 0.6 -->
      <g style="fill: #262626" transform="translate(378.532429 371.802969) scale(0.11 -0.11)">
       <defs>
        <path id="ArialMT-36" d="M 3184 3459 
L 2625 3416 
Q 2550 3747 2413 3897 
Q 2184 4138 1850 4138 
Q 1581 4138 1378 3988 
Q 1113 3794 959 3422 
Q 806 3050 800 2363 
Q 1003 2672 1297 2822 
Q 1591 2972 1913 2972 
Q 2475 2972 2870 2558 
Q 3266 2144 3266 1488 
Q 3266 1056 3080 686 
Q 2894 316 2569 119 
Q 2244 -78 1831 -78 
Q 1128 -78 684 439 
Q 241 956 241 2144 
Q 241 3472 731 4075 
Q 1159 4600 1884 4600 
Q 2425 4600 2770 4297 
Q 3116 3994 3184 3459 
z
M 888 1484 
Q 888 1194 1011 928 
Q 1134 663 1356 523 
Q 1578 384 1822 384 
Q 2178 384 2434 671 
Q 2691 959 2691 1453 
Q 2691 1928 2437 2201 
Q 2184 2475 1800 2475 
Q 1419 2475 1153 2201 
Q 888 1928 888 1484 
z
" transform="scale(0.015625)"/>
       </defs>
       <use xlink:href="#ArialMT-30"/>
       <use xlink:href="#ArialMT-2e" x="55.615234"/>
       <use xlink:href="#ArialMT-36" x="83.398438"/>
      </g>
     </g>
    </g>
    <g id="xtick_5">
     <g id="line2d_5">
      <path d="M 487.631974 354.429375 
L 487.631974 21.789375 
" clip-path="url(#p743afbbb5c)" style="fill: none; stroke: #ffffff; stroke-linecap: round"/>
     </g>
     <g id="text_5">
      <!-- 0.8 -->
      <g style="fill: #262626" transform="translate(479.986974 371.802969) scale(0.11 -0.11)">
       <defs>
        <path id="ArialMT-38" d="M 1131 2484 
Q 781 2613 612 2850 
Q 444 3088 444 3419 
Q 444 3919 803 4259 
Q 1163 4600 1759 4600 
Q 2359 4600 2725 4251 
Q 3091 3903 3091 3403 
Q 3091 3084 2923 2848 
Q 2756 2613 2416 2484 
Q 2838 2347 3058 2040 
Q 3278 1734 3278 1309 
Q 3278 722 2862 322 
Q 2447 -78 1769 -78 
Q 1091 -78 675 323 
Q 259 725 259 1325 
Q 259 1772 486 2073 
Q 713 2375 1131 2484 
z
M 1019 3438 
Q 1019 3113 1228 2906 
Q 1438 2700 1772 2700 
Q 2097 2700 2305 2904 
Q 2513 3109 2513 3406 
Q 2513 3716 2298 3927 
Q 2084 4138 1766 4138 
Q 1444 4138 1231 3931 
Q 1019 3725 1019 3438 
z
M 838 1322 
Q 838 1081 952 856 
Q 1066 631 1291 507 
Q 1516 384 1775 384 
Q 2178 384 2440 643 
Q 2703 903 2703 1303 
Q 2703 1709 2433 1975 
Q 2163 2241 1756 2241 
Q 1359 2241 1098 1978 
Q 838 1716 838 1322 
z
" transform="scale(0.015625)"/>
       </defs>
       <use xlink:href="#ArialMT-30"/>
       <use xlink:href="#ArialMT-2e" x="55.615234"/>
       <use xlink:href="#ArialMT-38" x="83.398438"/>
      </g>
     </g>
    </g>
    <g id="xtick_6">
     <g id="line2d_6">
      <path d="M 589.08652 354.429375 
L 589.08652 21.789375 
" clip-path="url(#p743afbbb5c)" style="fill: none; stroke: #ffffff; stroke-linecap: round"/>
     </g>
     <g id="text_6">
      <!-- 1.0 -->
      <g style="fill: #262626" transform="translate(581.44152 371.802969) scale(0.11 -0.11)">
       <defs>
        <path id="ArialMT-31" d="M 2384 0 
L 1822 0 
L 1822 3584 
Q 1619 3391 1289 3197 
Q 959 3003 697 2906 
L 697 3450 
Q 1169 3672 1522 3987 
Q 1875 4303 2022 4600 
L 2384 4600 
L 2384 0 
z
" transform="scale(0.015625)"/>
       </defs>
       <use xlink:href="#ArialMT-31"/>
       <use xlink:href="#ArialMT-2e" x="55.615234"/>
       <use xlink:href="#ArialMT-30" x="83.398438"/>
      </g>
     </g>
    </g>
    <g id="text_7">
     <!-- Gruppo (codificato con 0 e 1) -->
     <g style="fill: #262626" transform="translate(258.080156 386.724844) scale(0.12 -0.12)">
      <defs>
       <path id="ArialMT-47" d="M 2638 1797 
L 2638 2334 
L 4578 2338 
L 4578 638 
Q 4131 281 3656 101 
Q 3181 -78 2681 -78 
Q 2006 -78 1454 211 
Q 903 500 622 1047 
Q 341 1594 341 2269 
Q 341 2938 620 3517 
Q 900 4097 1425 4378 
Q 1950 4659 2634 4659 
Q 3131 4659 3532 4498 
Q 3934 4338 4162 4050 
Q 4391 3763 4509 3300 
L 3963 3150 
Q 3859 3500 3706 3700 
Q 3553 3900 3268 4020 
Q 2984 4141 2638 4141 
Q 2222 4141 1919 4014 
Q 1616 3888 1430 3681 
Q 1244 3475 1141 3228 
Q 966 2803 966 2306 
Q 966 1694 1177 1281 
Q 1388 869 1791 669 
Q 2194 469 2647 469 
Q 3041 469 3416 620 
Q 3791 772 3984 944 
L 3984 1797 
L 2638 1797 
z
" transform="scale(0.015625)"/>
       <path id="ArialMT-72" d="M 416 0 
L 416 3319 
L 922 3319 
L 922 2816 
Q 1116 3169 1280 3281 
Q 1444 3394 1641 3394 
Q 1925 3394 2219 3213 
L 2025 2691 
Q 1819 2813 1613 2813 
Q 1428 2813 1281 2702 
Q 1134 2591 1072 2394 
Q 978 2094 978 1738 
L 978 0 
L 416 0 
z
" transform="scale(0.015625)"/>
       <path id="ArialMT-75" d="M 2597 0 
L 2597 488 
Q 2209 -75 1544 -75 
Q 1250 -75 995 37 
Q 741 150 617 320 
Q 494 491 444 738 
Q 409 903 409 1263 
L 409 3319 
L 972 3319 
L 972 1478 
Q 972 1038 1006 884 
Q 1059 663 1231 536 
Q 1403 409 1656 409 
Q 1909 409 2131 539 
Q 2353 669 2445 892 
Q 2538 1116 2538 1541 
L 2538 3319 
L 3100 3319 
L 3100 0 
L 2597 0 
z
" transform="scale(0.015625)"/>
       <path id="ArialMT-70" d="M 422 -1272 
L 422 3319 
L 934 3319 
L 934 2888 
Q 1116 3141 1344 3267 
Q 1572 3394 1897 3394 
Q 2322 3394 2647 3175 
Q 2972 2956 3137 2557 
Q 3303 2159 3303 1684 
Q 3303 1175 3120 767 
Q 2938 359 2589 142 
Q 2241 -75 1856 -75 
Q 1575 -75 1351 44 
Q 1128 163 984 344 
L 984 -1272 
L 422 -1272 
z
M 931 1641 
Q 931 1000 1190 694 
Q 1450 388 1819 388 
Q 2194 388 2461 705 
Q 2728 1022 2728 1688 
Q 2728 2322 2467 2637 
Q 2206 2953 1844 2953 
Q 1484 2953 1207 2617 
Q 931 2281 931 1641 
z
" transform="scale(0.015625)"/>
       <path id="ArialMT-6f" d="M 213 1659 
Q 213 2581 725 3025 
Q 1153 3394 1769 3394 
Q 2453 3394 2887 2945 
Q 3322 2497 3322 1706 
Q 3322 1066 3130 698 
Q 2938 331 2570 128 
Q 2203 -75 1769 -75 
Q 1072 -75 642 372 
Q 213 819 213 1659 
z
M 791 1659 
Q 791 1022 1069 705 
Q 1347 388 1769 388 
Q 2188 388 2466 706 
Q 2744 1025 2744 1678 
Q 2744 2294 2464 2611 
Q 2184 2928 1769 2928 
Q 1347 2928 1069 2612 
Q 791 2297 791 1659 
z
" transform="scale(0.015625)"/>
       <path id="ArialMT-20" transform="scale(0.015625)"/>
       <path id="ArialMT-28" d="M 1497 -1347 
Q 1031 -759 709 28 
Q 388 816 388 1659 
Q 388 2403 628 3084 
Q 909 3875 1497 4659 
L 1900 4659 
Q 1522 4009 1400 3731 
Q 1209 3300 1100 2831 
Q 966 2247 966 1656 
Q 966 153 1900 -1347 
L 1497 -1347 
z
" transform="scale(0.015625)"/>
       <path id="ArialMT-63" d="M 2588 1216 
L 3141 1144 
Q 3050 572 2676 248 
Q 2303 -75 1759 -75 
Q 1078 -75 664 370 
Q 250 816 250 1647 
Q 250 2184 428 2587 
Q 606 2991 970 3192 
Q 1334 3394 1763 3394 
Q 2303 3394 2647 3120 
Q 2991 2847 3088 2344 
L 2541 2259 
Q 2463 2594 2264 2762 
Q 2066 2931 1784 2931 
Q 1359 2931 1093 2626 
Q 828 2322 828 1663 
Q 828 994 1084 691 
Q 1341 388 1753 388 
Q 2084 388 2306 591 
Q 2528 794 2588 1216 
z
" transform="scale(0.015625)"/>
       <path id="ArialMT-64" d="M 2575 0 
L 2575 419 
Q 2259 -75 1647 -75 
Q 1250 -75 917 144 
Q 584 363 401 755 
Q 219 1147 219 1656 
Q 219 2153 384 2558 
Q 550 2963 881 3178 
Q 1213 3394 1622 3394 
Q 1922 3394 2156 3267 
Q 2391 3141 2538 2938 
L 2538 4581 
L 3097 4581 
L 3097 0 
L 2575 0 
z
M 797 1656 
Q 797 1019 1065 703 
Q 1334 388 1700 388 
Q 2069 388 2326 689 
Q 2584 991 2584 1609 
Q 2584 2291 2321 2609 
Q 2059 2928 1675 2928 
Q 1300 2928 1048 2622 
Q 797 2316 797 1656 
z
" transform="scale(0.015625)"/>
       <path id="ArialMT-69" d="M 425 3934 
L 425 4581 
L 988 4581 
L 988 3934 
L 425 3934 
z
M 425 0 
L 425 3319 
L 988 3319 
L 988 0 
L 425 0 
z
" transform="scale(0.015625)"/>
       <path id="ArialMT-66" d="M 556 0 
L 556 2881 
L 59 2881 
L 59 3319 
L 556 3319 
L 556 3672 
Q 556 4006 616 4169 
Q 697 4388 901 4523 
Q 1106 4659 1475 4659 
Q 1713 4659 2000 4603 
L 1916 4113 
Q 1741 4144 1584 4144 
Q 1328 4144 1222 4034 
Q 1116 3925 1116 3625 
L 1116 3319 
L 1763 3319 
L 1763 2881 
L 1116 2881 
L 1116 0 
L 556 0 
z
" transform="scale(0.015625)"/>
       <path id="ArialMT-61" d="M 2588 409 
Q 2275 144 1986 34 
Q 1697 -75 1366 -75 
Q 819 -75 525 192 
Q 231 459 231 875 
Q 231 1119 342 1320 
Q 453 1522 633 1644 
Q 813 1766 1038 1828 
Q 1203 1872 1538 1913 
Q 2219 1994 2541 2106 
Q 2544 2222 2544 2253 
Q 2544 2597 2384 2738 
Q 2169 2928 1744 2928 
Q 1347 2928 1158 2789 
Q 969 2650 878 2297 
L 328 2372 
Q 403 2725 575 2942 
Q 747 3159 1072 3276 
Q 1397 3394 1825 3394 
Q 2250 3394 2515 3294 
Q 2781 3194 2906 3042 
Q 3031 2891 3081 2659 
Q 3109 2516 3109 2141 
L 3109 1391 
Q 3109 606 3145 398 
Q 3181 191 3288 0 
L 2700 0 
Q 2613 175 2588 409 
z
M 2541 1666 
Q 2234 1541 1622 1453 
Q 1275 1403 1131 1340 
Q 988 1278 909 1158 
Q 831 1038 831 891 
Q 831 666 1001 516 
Q 1172 366 1500 366 
Q 1825 366 2078 508 
Q 2331 650 2450 897 
Q 2541 1088 2541 1459 
L 2541 1666 
z
" transform="scale(0.015625)"/>
       <path id="ArialMT-74" d="M 1650 503 
L 1731 6 
Q 1494 -44 1306 -44 
Q 1000 -44 831 53 
Q 663 150 594 308 
Q 525 466 525 972 
L 525 2881 
L 113 2881 
L 113 3319 
L 525 3319 
L 525 4141 
L 1084 4478 
L 1084 3319 
L 1650 3319 
L 1650 2881 
L 1084 2881 
L 1084 941 
Q 1084 700 1114 631 
Q 1144 563 1211 522 
Q 1278 481 1403 481 
Q 1497 481 1650 503 
z
" transform="scale(0.015625)"/>
       <path id="ArialMT-6e" d="M 422 0 
L 422 3319 
L 928 3319 
L 928 2847 
Q 1294 3394 1984 3394 
Q 2284 3394 2536 3286 
Q 2788 3178 2913 3003 
Q 3038 2828 3088 2588 
Q 3119 2431 3119 2041 
L 3119 0 
L 2556 0 
L 2556 2019 
Q 2556 2363 2490 2533 
Q 2425 2703 2258 2804 
Q 2091 2906 1866 2906 
Q 1506 2906 1245 2678 
Q 984 2450 984 1813 
L 984 0 
L 422 0 
z
" transform="scale(0.015625)"/>
       <path id="ArialMT-65" d="M 2694 1069 
L 3275 997 
Q 3138 488 2766 206 
Q 2394 -75 1816 -75 
Q 1088 -75 661 373 
Q 234 822 234 1631 
Q 234 2469 665 2931 
Q 1097 3394 1784 3394 
Q 2450 3394 2872 2941 
Q 3294 2488 3294 1666 
Q 3294 1616 3291 1516 
L 816 1516 
Q 847 969 1125 678 
Q 1403 388 1819 388 
Q 2128 388 2347 550 
Q 2566 713 2694 1069 
z
M 847 1978 
L 2700 1978 
Q 2663 2397 2488 2606 
Q 2219 2931 1791 2931 
Q 1403 2931 1139 2672 
Q 875 2413 847 1978 
z
" transform="scale(0.015625)"/>
       <path id="ArialMT-29" d="M 791 -1347 
L 388 -1347 
Q 1322 153 1322 1656 
Q 1322 2244 1188 2822 
Q 1081 3291 891 3722 
Q 769 4003 388 4659 
L 791 4659 
Q 1378 3875 1659 3084 
Q 1900 2403 1900 1659 
Q 1900 816 1576 28 
Q 1253 -759 791 -1347 
z
" transform="scale(0.015625)"/>
      </defs>
      <use xlink:href="#ArialMT-47"/>
      <use xlink:href="#ArialMT-72" x="77.783203"/>
      <use xlink:href="#ArialMT-75" x="111.083984"/>
      <use xlink:href="#ArialMT-70" x="166.699219"/>
      <use xlink:href="#ArialMT-70" x="222.314453"/>
      <use xlink:href="#ArialMT-6f" x="277.929688"/>
      <use xlink:href="#ArialMT-20" x="333.544922"/>
      <use xlink:href="#ArialMT-28" x="361.328125"/>
      <use xlink:href="#ArialMT-63" x="394.628906"/>
      <use xlink:href="#ArialMT-6f" x="444.628906"/>
      <use xlink:href="#ArialMT-64" x="500.244141"/>
      <use xlink:href="#ArialMT-69" x="555.859375"/>
      <use xlink:href="#ArialMT-66" x="578.076172"/>
      <use xlink:href="#ArialMT-69" x="605.859375"/>
      <use xlink:href="#ArialMT-63" x="628.076172"/>
      <use xlink:href="#ArialMT-61" x="678.076172"/>
      <use xlink:href="#ArialMT-74" x="733.691406"/>
      <use xlink:href="#ArialMT-6f" x="761.474609"/>
      <use xlink:href="#ArialMT-20" x="817.089844"/>
      <use xlink:href="#ArialMT-63" x="844.873047"/>
      <use xlink:href="#ArialMT-6f" x="894.873047"/>
      <use xlink:href="#ArialMT-6e" x="950.488281"/>
      <use xlink:href="#ArialMT-20" x="1006.103516"/>
      <use xlink:href="#ArialMT-30" x="1033.886719"/>
      <use xlink:href="#ArialMT-20" x="1089.501953"/>
      <use xlink:href="#ArialMT-65" x="1117.285156"/>
      <use xlink:href="#ArialMT-20" x="1172.900391"/>
      <use xlink:href="#ArialMT-31" x="1200.683594"/>
      <use xlink:href="#ArialMT-29" x="1256.298828"/>
     </g>
    </g>
   </g>
   <g id="matplotlib.axis_2">
    <g id="ytick_1">
     <g id="line2d_7">
      <path d="M 56.450156 339.540526 
L 614.450156 339.540526 
" clip-path="url(#p743afbbb5c)" style="fill: none; stroke: #ffffff; stroke-linecap: round"/>
     </g>
     <g id="text_8">
      <!-- −200 -->
      <g style="fill: #262626" transform="translate(22.174375 343.477323) scale(0.11 -0.11)">
       <defs>
        <path id="ArialMT-2212" d="M 3381 1997 
L 356 1997 
L 356 2522 
L 3381 2522 
L 3381 1997 
z
" transform="scale(0.015625)"/>
       </defs>
       <use xlink:href="#ArialMT-2212"/>
       <use xlink:href="#ArialMT-32" x="58.398438"/>
       <use xlink:href="#ArialMT-30" x="114.013672"/>
       <use xlink:href="#ArialMT-30" x="169.628906"/>
      </g>
     </g>
    </g>
    <g id="ytick_2">
     <g id="line2d_8">
      <path d="M 56.450156 278.155722 
L 614.450156 278.155722 
" clip-path="url(#p743afbbb5c)" style="fill: none; stroke: #ffffff; stroke-linecap: round"/>
     </g>
     <g id="text_9">
      <!-- −100 -->
      <g style="fill: #262626" transform="translate(22.174375 282.092519) scale(0.11 -0.11)">
       <use xlink:href="#ArialMT-2212"/>
       <use xlink:href="#ArialMT-31" x="58.398438"/>
       <use xlink:href="#ArialMT-30" x="114.013672"/>
       <use xlink:href="#ArialMT-30" x="169.628906"/>
      </g>
     </g>
    </g>
    <g id="ytick_3">
     <g id="line2d_9">
      <path d="M 56.450156 216.770919 
L 614.450156 216.770919 
" clip-path="url(#p743afbbb5c)" style="fill: none; stroke: #ffffff; stroke-linecap: round"/>
     </g>
     <g id="text_10">
      <!-- 0 -->
      <g style="fill: #262626" transform="translate(40.833125 220.707716) scale(0.11 -0.11)">
       <use xlink:href="#ArialMT-30"/>
      </g>
     </g>
    </g>
    <g id="ytick_4">
     <g id="line2d_10">
      <path d="M 56.450156 155.386115 
L 614.450156 155.386115 
" clip-path="url(#p743afbbb5c)" style="fill: none; stroke: #ffffff; stroke-linecap: round"/>
     </g>
     <g id="text_11">
      <!-- 100 -->
      <g style="fill: #262626" transform="translate(28.599062 159.322912) scale(0.11 -0.11)">
       <use xlink:href="#ArialMT-31"/>
       <use xlink:href="#ArialMT-30" x="55.615234"/>
       <use xlink:href="#ArialMT-30" x="111.230469"/>
      </g>
     </g>
    </g>
    <g id="ytick_5">
     <g id="line2d_11">
      <path d="M 56.450156 94.001311 
L 614.450156 94.001311 
" clip-path="url(#p743afbbb5c)" style="fill: none; stroke: #ffffff; stroke-linecap: round"/>
     </g>
     <g id="text_12">
      <!-- 200 -->
      <g style="fill: #262626" transform="translate(28.599062 97.938108) scale(0.11 -0.11)">
       <use xlink:href="#ArialMT-32"/>
       <use xlink:href="#ArialMT-30" x="55.615234"/>
       <use xlink:href="#ArialMT-30" x="111.230469"/>
      </g>
     </g>
    </g>
    <g id="ytick_6">
     <g id="line2d_12">
      <path d="M 56.450156 32.616507 
L 614.450156 32.616507 
" clip-path="url(#p743afbbb5c)" style="fill: none; stroke: #ffffff; stroke-linecap: round"/>
     </g>
     <g id="text_13">
      <!-- 300 -->
      <g style="fill: #262626" transform="translate(28.599062 36.553304) scale(0.11 -0.11)">
       <defs>
        <path id="ArialMT-33" d="M 269 1209 
L 831 1284 
Q 928 806 1161 595 
Q 1394 384 1728 384 
Q 2125 384 2398 659 
Q 2672 934 2672 1341 
Q 2672 1728 2419 1979 
Q 2166 2231 1775 2231 
Q 1616 2231 1378 2169 
L 1441 2663 
Q 1497 2656 1531 2656 
Q 1891 2656 2178 2843 
Q 2466 3031 2466 3422 
Q 2466 3731 2256 3934 
Q 2047 4138 1716 4138 
Q 1388 4138 1169 3931 
Q 950 3725 888 3313 
L 325 3413 
Q 428 3978 793 4289 
Q 1159 4600 1703 4600 
Q 2078 4600 2393 4439 
Q 2709 4278 2876 4000 
Q 3044 3722 3044 3409 
Q 3044 3113 2884 2869 
Q 2725 2625 2413 2481 
Q 2819 2388 3044 2092 
Q 3269 1797 3269 1353 
Q 3269 753 2831 336 
Q 2394 -81 1725 -81 
Q 1122 -81 723 278 
Q 325 638 269 1209 
z
" transform="scale(0.015625)"/>
       </defs>
       <use xlink:href="#ArialMT-33"/>
       <use xlink:href="#ArialMT-30" x="55.615234"/>
       <use xlink:href="#ArialMT-30" x="111.230469"/>
      </g>
     </g>
    </g>
    <g id="text_14">
     <!-- Soddisfazione della vita -->
     <g style="fill: #262626" transform="translate(15.789375 251.146875) rotate(-90) scale(0.12 -0.12)">
      <defs>
       <path id="ArialMT-53" d="M 288 1472 
L 859 1522 
Q 900 1178 1048 958 
Q 1197 738 1509 602 
Q 1822 466 2213 466 
Q 2559 466 2825 569 
Q 3091 672 3220 851 
Q 3350 1031 3350 1244 
Q 3350 1459 3225 1620 
Q 3100 1781 2813 1891 
Q 2628 1963 1997 2114 
Q 1366 2266 1113 2400 
Q 784 2572 623 2826 
Q 463 3081 463 3397 
Q 463 3744 659 4045 
Q 856 4347 1234 4503 
Q 1613 4659 2075 4659 
Q 2584 4659 2973 4495 
Q 3363 4331 3572 4012 
Q 3781 3694 3797 3291 
L 3216 3247 
Q 3169 3681 2898 3903 
Q 2628 4125 2100 4125 
Q 1550 4125 1298 3923 
Q 1047 3722 1047 3438 
Q 1047 3191 1225 3031 
Q 1400 2872 2139 2705 
Q 2878 2538 3153 2413 
Q 3553 2228 3743 1945 
Q 3934 1663 3934 1294 
Q 3934 928 3725 604 
Q 3516 281 3123 101 
Q 2731 -78 2241 -78 
Q 1619 -78 1198 103 
Q 778 284 539 648 
Q 300 1013 288 1472 
z
" transform="scale(0.015625)"/>
       <path id="ArialMT-73" d="M 197 991 
L 753 1078 
Q 800 744 1014 566 
Q 1228 388 1613 388 
Q 2000 388 2187 545 
Q 2375 703 2375 916 
Q 2375 1106 2209 1216 
Q 2094 1291 1634 1406 
Q 1016 1563 777 1677 
Q 538 1791 414 1992 
Q 291 2194 291 2438 
Q 291 2659 392 2848 
Q 494 3038 669 3163 
Q 800 3259 1026 3326 
Q 1253 3394 1513 3394 
Q 1903 3394 2198 3281 
Q 2494 3169 2634 2976 
Q 2775 2784 2828 2463 
L 2278 2388 
Q 2241 2644 2061 2787 
Q 1881 2931 1553 2931 
Q 1166 2931 1000 2803 
Q 834 2675 834 2503 
Q 834 2394 903 2306 
Q 972 2216 1119 2156 
Q 1203 2125 1616 2013 
Q 2213 1853 2448 1751 
Q 2684 1650 2818 1456 
Q 2953 1263 2953 975 
Q 2953 694 2789 445 
Q 2625 197 2315 61 
Q 2006 -75 1616 -75 
Q 969 -75 630 194 
Q 291 463 197 991 
z
" transform="scale(0.015625)"/>
       <path id="ArialMT-7a" d="M 125 0 
L 125 456 
L 2238 2881 
Q 1878 2863 1603 2863 
L 250 2863 
L 250 3319 
L 2963 3319 
L 2963 2947 
L 1166 841 
L 819 456 
Q 1197 484 1528 484 
L 3063 484 
L 3063 0 
L 125 0 
z
" transform="scale(0.015625)"/>
       <path id="ArialMT-6c" d="M 409 0 
L 409 4581 
L 972 4581 
L 972 0 
L 409 0 
z
" transform="scale(0.015625)"/>
       <path id="ArialMT-76" d="M 1344 0 
L 81 3319 
L 675 3319 
L 1388 1331 
Q 1503 1009 1600 663 
Q 1675 925 1809 1294 
L 2547 3319 
L 3125 3319 
L 1869 0 
L 1344 0 
z
" transform="scale(0.015625)"/>
      </defs>
      <use xlink:href="#ArialMT-53"/>
      <use xlink:href="#ArialMT-6f" x="66.699219"/>
      <use xlink:href="#ArialMT-64" x="122.314453"/>
      <use xlink:href="#ArialMT-64" x="177.929688"/>
      <use xlink:href="#ArialMT-69" x="233.544922"/>
      <use xlink:href="#ArialMT-73" x="255.761719"/>
      <use xlink:href="#ArialMT-66" x="305.761719"/>
      <use xlink:href="#ArialMT-61" x="333.544922"/>
      <use xlink:href="#ArialMT-7a" x="389.160156"/>
      <use xlink:href="#ArialMT-69" x="439.160156"/>
      <use xlink:href="#ArialMT-6f" x="461.376953"/>
      <use xlink:href="#ArialMT-6e" x="516.992188"/>
      <use xlink:href="#ArialMT-65" x="572.607422"/>
      <use xlink:href="#ArialMT-20" x="628.222656"/>
      <use xlink:href="#ArialMT-64" x="656.005859"/>
      <use xlink:href="#ArialMT-65" x="711.621094"/>
      <use xlink:href="#ArialMT-6c" x="767.236328"/>
      <use xlink:href="#ArialMT-6c" x="789.453125"/>
      <use xlink:href="#ArialMT-61" x="811.669922"/>
      <use xlink:href="#ArialMT-20" x="867.285156"/>
      <use xlink:href="#ArialMT-76" x="895.068359"/>
      <use xlink:href="#ArialMT-69" x="945.068359"/>
      <use xlink:href="#ArialMT-74" x="967.285156"/>
      <use xlink:href="#ArialMT-61" x="995.068359"/>
     </g>
    </g>
   </g>
   <g id="line2d_13">
    <path d="M 81.813793 221.935975 
L 132.541065 212.899464 
L 183.268338 203.862954 
L 233.995611 194.826443 
L 284.722884 185.789933 
L 335.450156 176.753422 
L 386.177429 167.716912 
L 436.904702 158.680402 
L 487.631974 149.643891 
L 538.359247 140.607381 
L 589.08652 131.57087 
" clip-path="url(#p743afbbb5c)" style="fill: none; stroke: #1a1a1a; stroke-opacity: 0.4; stroke-width: 1.5; stroke-linecap: round"/>
   </g>
   <g id="line2d_14">
    <path d="M 81.813793 234.522017 
L 132.541065 237.811415 
L 183.268338 241.100814 
L 233.995611 244.390213 
L 284.722884 247.679611 
L 335.450156 250.96901 
L 386.177429 254.258409 
L 436.904702 257.547807 
L 487.631974 260.837206 
L 538.359247 264.126605 
L 589.08652 267.416003 
" clip-path="url(#p743afbbb5c)" style="fill: none; stroke: #1a1a1a; stroke-opacity: 0.4; stroke-width: 1.5; stroke-linecap: round"/>
   </g>
   <g id="line2d_15">
    <path d="M 81.813793 208.850351 
L 132.541065 211.805108 
L 183.268338 214.759864 
L 233.995611 217.71462 
L 284.722884 220.669377 
L 335.450156 223.624133 
L 386.177429 226.578889 
L 436.904702 229.533646 
L 487.631974 232.488402 
L 538.359247 235.443158 
L 589.08652 238.397915 
" clip-path="url(#p743afbbb5c)" style="fill: none; stroke: #1a1a1a; stroke-opacity: 0.4; stroke-width: 1.5; stroke-linecap: round"/>
   </g>
   <g id="line2d_16">
    <path d="M 81.813793 191.823979 
L 132.541065 196.229508 
L 183.268338 200.635038 
L 233.995611 205.040567 
L 284.722884 209.446097 
L 335.450156 213.851626 
L 386.177429 218.257156 
L 436.904702 222.662685 
L 487.631974 227.068215 
L 538.359247 231.473744 
L 589.08652 235.879274 
" clip-path="url(#p743afbbb5c)" style="fill: none; stroke: #1a1a1a; stroke-opacity: 0.4; stroke-width: 1.5; stroke-linecap: round"/>
   </g>
   <g id="line2d_17">
    <path d="M 81.813793 199.55722 
L 132.541065 198.419736 
L 183.268338 197.282252 
L 233.995611 196.144768 
L 284.722884 195.007284 
L 335.450156 193.8698 
L 386.177429 192.732316 
L 436.904702 191.594832 
L 487.631974 190.457348 
L 538.359247 189.319864 
L 589.08652 188.18238 
" clip-path="url(#p743afbbb5c)" style="fill: none; stroke: #1a1a1a; stroke-opacity: 0.4; stroke-width: 1.5; stroke-linecap: round"/>
   </g>
   <g id="line2d_18">
    <path d="M 81.813793 191.317486 
L 132.541065 188.57022 
L 183.268338 185.822954 
L 233.995611 183.075688 
L 284.722884 180.328421 
L 335.450156 177.581155 
L 386.177429 174.833889 
L 436.904702 172.086623 
L 487.631974 169.339357 
L 538.359247 166.59209 
L 589.08652 163.844824 
" clip-path="url(#p743afbbb5c)" style="fill: none; stroke: #1a1a1a; stroke-opacity: 0.4; stroke-width: 1.5; stroke-linecap: round"/>
   </g>
   <g id="line2d_19">
    <path d="M 81.813793 237.017274 
L 132.541065 228.925447 
L 183.268338 220.833621 
L 233.995611 212.741795 
L 284.722884 204.649969 
L 335.450156 196.558142 
L 386.177429 188.466316 
L 436.904702 180.37449 
L 487.631974 172.282664 
L 538.359247 164.190837 
L 589.08652 156.099011 
" clip-path="url(#p743afbbb5c)" style="fill: none; stroke: #1a1a1a; stroke-opacity: 0.4; stroke-width: 1.5; stroke-linecap: round"/>
   </g>
   <g id="line2d_20">
    <path d="M 81.813793 171.097521 
L 132.541065 167.557421 
L 183.268338 164.017322 
L 233.995611 160.477222 
L 284.722884 156.937123 
L 335.450156 153.397024 
L 386.177429 149.856924 
L 436.904702 146.316825 
L 487.631974 142.776725 
L 538.359247 139.236626 
L 589.08652 135.696527 
" clip-path="url(#p743afbbb5c)" style="fill: none; stroke: #1a1a1a; stroke-opacity: 0.4; stroke-width: 1.5; stroke-linecap: round"/>
   </g>
   <g id="line2d_21">
    <path d="M 81.813793 264.001783 
L 132.541065 267.111993 
L 183.268338 270.222202 
L 233.995611 273.332412 
L 284.722884 276.442621 
L 335.450156 279.55283 
L 386.177429 282.66304 
L 436.904702 285.773249 
L 487.631974 288.883459 
L 538.359247 291.993668 
L 589.08652 295.103877 
" clip-path="url(#p743afbbb5c)" style="fill: none; stroke: #1a1a1a; stroke-opacity: 0.4; stroke-width: 1.5; stroke-linecap: round"/>
   </g>
   <g id="line2d_22">
    <path d="M 81.813793 218.635129 
L 132.541065 222.774573 
L 183.268338 226.914017 
L 233.995611 231.053461 
L 284.722884 235.192906 
L 335.450156 239.33235 
L 386.177429 243.471794 
L 436.904702 247.611238 
L 487.631974 251.750682 
L 538.359247 255.890127 
L 589.08652 260.029571 
" clip-path="url(#p743afbbb5c)" style="fill: none; stroke: #1a1a1a; stroke-opacity: 0.4; stroke-width: 1.5; stroke-linecap: round"/>
   </g>
   <g id="line2d_23">
    <path d="M 81.813793 229.235082 
L 132.541065 232.368833 
L 183.268338 235.502583 
L 233.995611 238.636334 
L 284.722884 241.770084 
L 335.450156 244.903835 
L 386.177429 248.037585 
L 436.904702 251.171336 
L 487.631974 254.305086 
L 538.359247 257.438836 
L 589.08652 260.572587 
" clip-path="url(#p743afbbb5c)" style="fill: none; stroke: #1a1a1a; stroke-opacity: 0.4; stroke-width: 1.5; stroke-linecap: round"/>
   </g>
   <g id="line2d_24">
    <path d="M 81.813793 210.415518 
L 132.541065 201.337091 
L 183.268338 192.258664 
L 233.995611 183.180238 
L 284.722884 174.101811 
L 335.450156 165.023384 
L 386.177429 155.944958 
L 436.904702 146.866531 
L 487.631974 137.788105 
L 538.359247 128.709678 
L 589.08652 119.631251 
" clip-path="url(#p743afbbb5c)" style="fill: none; stroke: #1a1a1a; stroke-opacity: 0.4; stroke-width: 1.5; stroke-linecap: round"/>
   </g>
   <g id="line2d_25">
    <path d="M 81.813793 161.362584 
L 132.541065 161.040198 
L 183.268338 160.717813 
L 233.995611 160.395427 
L 284.722884 160.073041 
L 335.450156 159.750656 
L 386.177429 159.42827 
L 436.904702 159.105884 
L 487.631974 158.783499 
L 538.359247 158.461113 
L 589.08652 158.138728 
" clip-path="url(#p743afbbb5c)" style="fill: none; stroke: #1a1a1a; stroke-opacity: 0.4; stroke-width: 1.5; stroke-linecap: round"/>
   </g>
   <g id="line2d_26">
    <path d="M 81.813793 235.128473 
L 132.541065 233.469702 
L 183.268338 231.81093 
L 233.995611 230.152159 
L 284.722884 228.493387 
L 335.450156 226.834615 
L 386.177429 225.175844 
L 436.904702 223.517072 
L 487.631974 221.858301 
L 538.359247 220.199529 
L 589.08652 218.540758 
" clip-path="url(#p743afbbb5c)" style="fill: none; stroke: #1a1a1a; stroke-opacity: 0.4; stroke-width: 1.5; stroke-linecap: round"/>
   </g>
   <g id="line2d_27">
    <path d="M 81.813793 220.06729 
L 132.541065 221.34757 
L 183.268338 222.627851 
L 233.995611 223.908131 
L 284.722884 225.188412 
L 335.450156 226.468692 
L 386.177429 227.748973 
L 436.904702 229.029253 
L 487.631974 230.309534 
L 538.359247 231.589814 
L 589.08652 232.870095 
" clip-path="url(#p743afbbb5c)" style="fill: none; stroke: #1a1a1a; stroke-opacity: 0.4; stroke-width: 1.5; stroke-linecap: round"/>
   </g>
   <g id="line2d_28">
    <path d="M 81.813793 226.686805 
L 132.541065 230.671699 
L 183.268338 234.656593 
L 233.995611 238.641486 
L 284.722884 242.62638 
L 335.450156 246.611274 
L 386.177429 250.596168 
L 436.904702 254.581062 
L 487.631974 258.565956 
L 538.359247 262.55085 
L 589.08652 266.535744 
" clip-path="url(#p743afbbb5c)" style="fill: none; stroke: #1a1a1a; stroke-opacity: 0.4; stroke-width: 1.5; stroke-linecap: round"/>
   </g>
   <g id="line2d_29">
    <path d="M 81.813793 283.494418 
L 132.541065 288.536957 
L 183.268338 293.579496 
L 233.995611 298.622035 
L 284.722884 303.664574 
L 335.450156 308.707113 
L 386.177429 313.749652 
L 436.904702 318.792191 
L 487.631974 323.834729 
L 538.359247 328.877268 
L 589.08652 333.919807 
" clip-path="url(#p743afbbb5c)" style="fill: none; stroke: #1a1a1a; stroke-opacity: 0.4; stroke-width: 1.5; stroke-linecap: round"/>
   </g>
   <g id="line2d_30">
    <path d="M 81.813793 183.001065 
L 132.541065 179.640802 
L 183.268338 176.280538 
L 233.995611 172.920275 
L 284.722884 169.560012 
L 335.450156 166.199748 
L 386.177429 162.839485 
L 436.904702 159.479222 
L 487.631974 156.118958 
L 538.359247 152.758695 
L 589.08652 149.398432 
" clip-path="url(#p743afbbb5c)" style="fill: none; stroke: #1a1a1a; stroke-opacity: 0.4; stroke-width: 1.5; stroke-linecap: round"/>
   </g>
   <g id="line2d_31">
    <path d="M 81.813793 180.799866 
L 132.541065 175.874075 
L 183.268338 170.948283 
L 233.995611 166.022492 
L 284.722884 161.096701 
L 335.450156 156.170909 
L 386.177429 151.245118 
L 436.904702 146.319326 
L 487.631974 141.393535 
L 538.359247 136.467744 
L 589.08652 131.541952 
" clip-path="url(#p743afbbb5c)" style="fill: none; stroke: #1a1a1a; stroke-opacity: 0.4; stroke-width: 1.5; stroke-linecap: round"/>
   </g>
   <g id="line2d_32">
    <path d="M 81.813793 203.262934 
L 132.541065 207.056467 
L 183.268338 210.849999 
L 233.995611 214.643532 
L 284.722884 218.437065 
L 335.450156 222.230597 
L 386.177429 226.02413 
L 436.904702 229.817662 
L 487.631974 233.611195 
L 538.359247 237.404728 
L 589.08652 241.19826 
" clip-path="url(#p743afbbb5c)" style="fill: none; stroke: #1a1a1a; stroke-opacity: 0.4; stroke-width: 1.5; stroke-linecap: round"/>
   </g>
   <g id="line2d_33">
    <path d="M 81.813793 244.921607 
L 132.541065 241.149083 
L 183.268338 237.376558 
L 233.995611 233.604034 
L 284.722884 229.83151 
L 335.450156 226.058986 
L 386.177429 222.286462 
L 436.904702 218.513938 
L 487.631974 214.741414 
L 538.359247 210.96889 
L 589.08652 207.196366 
" clip-path="url(#p743afbbb5c)" style="fill: none; stroke: #1a1a1a; stroke-opacity: 0.4; stroke-width: 1.5; stroke-linecap: round"/>
   </g>
   <g id="line2d_34">
    <path d="M 81.813793 237.76491 
L 132.541065 242.50376 
L 183.268338 247.24261 
L 233.995611 251.98146 
L 284.722884 256.72031 
L 335.450156 261.45916 
L 386.177429 266.19801 
L 436.904702 270.936861 
L 487.631974 275.675711 
L 538.359247 280.414561 
L 589.08652 285.153411 
" clip-path="url(#p743afbbb5c)" style="fill: none; stroke: #1a1a1a; stroke-opacity: 0.4; stroke-width: 1.5; stroke-linecap: round"/>
   </g>
   <g id="line2d_35">
    <path d="M 81.813793 186.55115 
L 132.541065 189.557456 
L 183.268338 192.563762 
L 233.995611 195.570068 
L 284.722884 198.576373 
L 335.450156 201.582679 
L 386.177429 204.588985 
L 436.904702 207.595291 
L 487.631974 210.601597 
L 538.359247 213.607903 
L 589.08652 216.614209 
" clip-path="url(#p743afbbb5c)" style="fill: none; stroke: #1a1a1a; stroke-opacity: 0.4; stroke-width: 1.5; stroke-linecap: round"/>
   </g>
   <g id="line2d_36">
    <path d="M 81.813793 180.883848 
L 132.541065 188.918755 
L 183.268338 196.953662 
L 233.995611 204.988569 
L 284.722884 213.023476 
L 335.450156 221.058383 
L 386.177429 229.09329 
L 436.904702 237.128197 
L 487.631974 245.163104 
L 538.359247 253.198011 
L 589.08652 261.232918 
" clip-path="url(#p743afbbb5c)" style="fill: none; stroke: #1a1a1a; stroke-opacity: 0.4; stroke-width: 1.5; stroke-linecap: round"/>
   </g>
   <g id="line2d_37">
    <path d="M 81.813793 197.425027 
L 132.541065 204.447839 
L 183.268338 211.47065 
L 233.995611 218.493462 
L 284.722884 225.516273 
L 335.450156 232.539085 
L 386.177429 239.561896 
L 436.904702 246.584708 
L 487.631974 253.607519 
L 538.359247 260.63033 
L 589.08652 267.653142 
" clip-path="url(#p743afbbb5c)" style="fill: none; stroke: #1a1a1a; stroke-opacity: 0.4; stroke-width: 1.5; stroke-linecap: round"/>
   </g>
   <g id="line2d_38">
    <path d="M 81.813793 213.478334 
L 132.541065 217.573679 
L 183.268338 221.669025 
L 233.995611 225.76437 
L 284.722884 229.859715 
L 335.450156 233.95506 
L 386.177429 238.050405 
L 436.904702 242.14575 
L 487.631974 246.241095 
L 538.359247 250.33644 
L 589.08652 254.431785 
" clip-path="url(#p743afbbb5c)" style="fill: none; stroke: #1a1a1a; stroke-opacity: 0.4; stroke-width: 1.5; stroke-linecap: round"/>
   </g>
   <g id="line2d_39">
    <path d="M 81.813793 174.785893 
L 132.541065 180.321992 
L 183.268338 185.858091 
L 233.995611 191.39419 
L 284.722884 196.930289 
L 335.450156 202.466388 
L 386.177429 208.002487 
L 436.904702 213.538586 
L 487.631974 219.074685 
L 538.359247 224.610784 
L 589.08652 230.146883 
" clip-path="url(#p743afbbb5c)" style="fill: none; stroke: #1a1a1a; stroke-opacity: 0.4; stroke-width: 1.5; stroke-linecap: round"/>
   </g>
   <g id="line2d_40">
    <path d="M 81.813793 242.797761 
L 132.541065 237.791617 
L 183.268338 232.785474 
L 233.995611 227.779331 
L 284.722884 222.773187 
L 335.450156 217.767044 
L 386.177429 212.760901 
L 436.904702 207.754757 
L 487.631974 202.748614 
L 538.359247 197.74247 
L 589.08652 192.736327 
" clip-path="url(#p743afbbb5c)" style="fill: none; stroke: #1a1a1a; stroke-opacity: 0.4; stroke-width: 1.5; stroke-linecap: round"/>
   </g>
   <g id="line2d_41">
    <path d="M 81.813793 199.396702 
L 132.541065 200.600971 
L 183.268338 201.805239 
L 233.995611 203.009507 
L 284.722884 204.213776 
L 335.450156 205.418044 
L 386.177429 206.622312 
L 436.904702 207.826581 
L 487.631974 209.030849 
L 538.359247 210.235117 
L 589.08652 211.439386 
" clip-path="url(#p743afbbb5c)" style="fill: none; stroke: #1a1a1a; stroke-opacity: 0.4; stroke-width: 1.5; stroke-linecap: round"/>
   </g>
   <g id="line2d_42">
    <path d="M 81.813793 191.132062 
L 132.541065 189.594596 
L 183.268338 188.05713 
L 233.995611 186.519664 
L 284.722884 184.982198 
L 335.450156 183.444732 
L 386.177429 181.907266 
L 436.904702 180.3698 
L 487.631974 178.832334 
L 538.359247 177.294868 
L 589.08652 175.757402 
" clip-path="url(#p743afbbb5c)" style="fill: none; stroke: #1a1a1a; stroke-opacity: 0.4; stroke-width: 1.5; stroke-linecap: round"/>
   </g>
   <g id="line2d_43">
    <path d="M 81.813793 206.147512 
L 132.541065 203.563521 
L 183.268338 200.979529 
L 233.995611 198.395538 
L 284.722884 195.811547 
L 335.450156 193.227556 
L 386.177429 190.643565 
L 436.904702 188.059574 
L 487.631974 185.475582 
L 538.359247 182.891591 
L 589.08652 180.3076 
" clip-path="url(#p743afbbb5c)" style="fill: none; stroke: #1a1a1a; stroke-opacity: 0.4; stroke-width: 1.5; stroke-linecap: round"/>
   </g>
   <g id="line2d_44">
    <path d="M 81.813793 203.35781 
L 132.541065 196.582948 
L 183.268338 189.808087 
L 233.995611 183.033226 
L 284.722884 176.258365 
L 335.450156 169.483504 
L 386.177429 162.708643 
L 436.904702 155.933782 
L 487.631974 149.158921 
L 538.359247 142.38406 
L 589.08652 135.609199 
" clip-path="url(#p743afbbb5c)" style="fill: none; stroke: #1a1a1a; stroke-opacity: 0.4; stroke-width: 1.5; stroke-linecap: round"/>
   </g>
   <g id="line2d_45">
    <path d="M 81.813793 173.115767 
L 132.541065 174.008103 
L 183.268338 174.90044 
L 233.995611 175.792776 
L 284.722884 176.685113 
L 335.450156 177.57745 
L 386.177429 178.469786 
L 436.904702 179.362123 
L 487.631974 180.254459 
L 538.359247 181.146796 
L 589.08652 182.039132 
" clip-path="url(#p743afbbb5c)" style="fill: none; stroke: #1a1a1a; stroke-opacity: 0.4; stroke-width: 1.5; stroke-linecap: round"/>
   </g>
   <g id="line2d_46">
    <path d="M 81.813793 253.114839 
L 132.541065 254.111649 
L 183.268338 255.10846 
L 233.995611 256.10527 
L 284.722884 257.10208 
L 335.450156 258.09889 
L 386.177429 259.0957 
L 436.904702 260.09251 
L 487.631974 261.089321 
L 538.359247 262.086131 
L 589.08652 263.082941 
" clip-path="url(#p743afbbb5c)" style="fill: none; stroke: #1a1a1a; stroke-opacity: 0.4; stroke-width: 1.5; stroke-linecap: round"/>
   </g>
   <g id="line2d_47">
    <path d="M 81.813793 229.125725 
L 132.541065 235.249545 
L 183.268338 241.373366 
L 233.995611 247.497186 
L 284.722884 253.621007 
L 335.450156 259.744828 
L 386.177429 265.868648 
L 436.904702 271.992469 
L 487.631974 278.116289 
L 538.359247 284.24011 
L 589.08652 290.36393 
" clip-path="url(#p743afbbb5c)" style="fill: none; stroke: #1a1a1a; stroke-opacity: 0.4; stroke-width: 1.5; stroke-linecap: round"/>
   </g>
   <g id="line2d_48">
    <path d="M 81.813793 261.966861 
L 132.541065 266.767702 
L 183.268338 271.568544 
L 233.995611 276.369386 
L 284.722884 281.170228 
L 335.450156 285.97107 
L 386.177429 290.771912 
L 436.904702 295.572754 
L 487.631974 300.373596 
L 538.359247 305.174438 
L 589.08652 309.97528 
" clip-path="url(#p743afbbb5c)" style="fill: none; stroke: #1a1a1a; stroke-opacity: 0.4; stroke-width: 1.5; stroke-linecap: round"/>
   </g>
   <g id="line2d_49">
    <path d="M 81.813793 187.688266 
L 132.541065 196.131852 
L 183.268338 204.575439 
L 233.995611 213.019025 
L 284.722884 221.462611 
L 335.450156 229.906197 
L 386.177429 238.349783 
L 436.904702 246.793369 
L 487.631974 255.236955 
L 538.359247 263.680541 
L 589.08652 272.124127 
" clip-path="url(#p743afbbb5c)" style="fill: none; stroke: #1a1a1a; stroke-opacity: 0.4; stroke-width: 1.5; stroke-linecap: round"/>
   </g>
   <g id="line2d_50">
    <path d="M 81.813793 196.344875 
L 132.541065 201.472617 
L 183.268338 206.600359 
L 233.995611 211.728102 
L 284.722884 216.855844 
L 335.450156 221.983586 
L 386.177429 227.111328 
L 436.904702 232.23907 
L 487.631974 237.366813 
L 538.359247 242.494555 
L 589.08652 247.622297 
" clip-path="url(#p743afbbb5c)" style="fill: none; stroke: #1a1a1a; stroke-opacity: 0.4; stroke-width: 1.5; stroke-linecap: round"/>
   </g>
   <g id="line2d_51">
    <path d="M 81.813793 223.735073 
L 132.541065 211.605416 
L 183.268338 199.475759 
L 233.995611 187.346102 
L 284.722884 175.216445 
L 335.450156 163.086788 
L 386.177429 150.957132 
L 436.904702 138.827475 
L 487.631974 126.697818 
L 538.359247 114.568161 
L 589.08652 102.438504 
" clip-path="url(#p743afbbb5c)" style="fill: none; stroke: #1a1a1a; stroke-opacity: 0.4; stroke-width: 1.5; stroke-linecap: round"/>
   </g>
   <g id="line2d_52">
    <path d="M 81.813793 256.776238 
L 132.541065 253.021307 
L 183.268338 249.266376 
L 233.995611 245.511445 
L 284.722884 241.756514 
L 335.450156 238.001582 
L 386.177429 234.246651 
L 436.904702 230.49172 
L 487.631974 226.736789 
L 538.359247 222.981858 
L 589.08652 219.226927 
" clip-path="url(#p743afbbb5c)" style="fill: none; stroke: #1a1a1a; stroke-opacity: 0.4; stroke-width: 1.5; stroke-linecap: round"/>
   </g>
   <g id="line2d_53">
    <path d="M 81.813793 203.345535 
L 132.541065 196.402099 
L 183.268338 189.458663 
L 233.995611 182.515227 
L 284.722884 175.571791 
L 335.450156 168.628356 
L 386.177429 161.68492 
L 436.904702 154.741484 
L 487.631974 147.798048 
L 538.359247 140.854612 
L 589.08652 133.911176 
" clip-path="url(#p743afbbb5c)" style="fill: none; stroke: #1a1a1a; stroke-opacity: 0.4; stroke-width: 1.5; stroke-linecap: round"/>
   </g>
   <g id="line2d_54">
    <path d="M 81.813793 228.986614 
L 132.541065 222.294068 
L 183.268338 215.601521 
L 233.995611 208.908974 
L 284.722884 202.216427 
L 335.450156 195.52388 
L 386.177429 188.831333 
L 436.904702 182.138786 
L 487.631974 175.446239 
L 538.359247 168.753692 
L 589.08652 162.061146 
" clip-path="url(#p743afbbb5c)" style="fill: none; stroke: #1a1a1a; stroke-opacity: 0.4; stroke-width: 1.5; stroke-linecap: round"/>
   </g>
   <g id="line2d_55">
    <path d="M 81.813793 271.118306 
L 132.541065 277.937413 
L 183.268338 284.75652 
L 233.995611 291.575627 
L 284.722884 298.394734 
L 335.450156 305.213841 
L 386.177429 312.032948 
L 436.904702 318.852054 
L 487.631974 325.671161 
L 538.359247 332.490268 
L 589.08652 339.309375 
" clip-path="url(#p743afbbb5c)" style="fill: none; stroke: #1a1a1a; stroke-opacity: 0.4; stroke-width: 1.5; stroke-linecap: round"/>
   </g>
   <g id="line2d_56">
    <path d="M 81.813793 266.006792 
L 132.541065 268.55054 
L 183.268338 271.094287 
L 233.995611 273.638035 
L 284.722884 276.181782 
L 335.450156 278.725529 
L 386.177429 281.269277 
L 436.904702 283.813024 
L 487.631974 286.356772 
L 538.359247 288.900519 
L 589.08652 291.444266 
" clip-path="url(#p743afbbb5c)" style="fill: none; stroke: #1a1a1a; stroke-opacity: 0.4; stroke-width: 1.5; stroke-linecap: round"/>
   </g>
   <g id="line2d_57">
    <path d="M 81.813793 230.02325 
L 132.541065 227.691368 
L 183.268338 225.359486 
L 233.995611 223.027604 
L 284.722884 220.695722 
L 335.450156 218.36384 
L 386.177429 216.031958 
L 436.904702 213.700076 
L 487.631974 211.368194 
L 538.359247 209.036312 
L 589.08652 206.70443 
" clip-path="url(#p743afbbb5c)" style="fill: none; stroke: #1a1a1a; stroke-opacity: 0.4; stroke-width: 1.5; stroke-linecap: round"/>
   </g>
   <g id="line2d_58">
    <path d="M 81.813793 233.526349 
L 132.541065 232.786137 
L 183.268338 232.045926 
L 233.995611 231.305715 
L 284.722884 230.565503 
L 335.450156 229.825292 
L 386.177429 229.085081 
L 436.904702 228.34487 
L 487.631974 227.604658 
L 538.359247 226.864447 
L 589.08652 226.124236 
" clip-path="url(#p743afbbb5c)" style="fill: none; stroke: #1a1a1a; stroke-opacity: 0.4; stroke-width: 1.5; stroke-linecap: round"/>
   </g>
   <g id="line2d_59">
    <path d="M 81.813793 195.28475 
L 132.541065 194.41626 
L 183.268338 193.547771 
L 233.995611 192.679281 
L 284.722884 191.810792 
L 335.450156 190.942303 
L 386.177429 190.073813 
L 436.904702 189.205324 
L 487.631974 188.336834 
L 538.359247 187.468345 
L 589.08652 186.599855 
" clip-path="url(#p743afbbb5c)" style="fill: none; stroke: #1a1a1a; stroke-opacity: 0.4; stroke-width: 1.5; stroke-linecap: round"/>
   </g>
   <g id="line2d_60">
    <path d="M 81.813793 219.977105 
L 132.541065 211.465386 
L 183.268338 202.953668 
L 233.995611 194.44195 
L 284.722884 185.930231 
L 335.450156 177.418513 
L 386.177429 168.906794 
L 436.904702 160.395076 
L 487.631974 151.883358 
L 538.359247 143.371639 
L 589.08652 134.859921 
" clip-path="url(#p743afbbb5c)" style="fill: none; stroke: #1a1a1a; stroke-opacity: 0.4; stroke-width: 1.5; stroke-linecap: round"/>
   </g>
   <g id="line2d_61">
    <path d="M 81.813793 205.854466 
L 132.541065 188.959957 
L 183.268338 172.065448 
L 233.995611 155.170939 
L 284.722884 138.27643 
L 335.450156 121.38192 
L 386.177429 104.487411 
L 436.904702 87.592902 
L 487.631974 70.698393 
L 538.359247 53.803884 
L 589.08652 36.909375 
" clip-path="url(#p743afbbb5c)" style="fill: none; stroke: #1a1a1a; stroke-opacity: 0.4; stroke-width: 1.5; stroke-linecap: round"/>
   </g>
   <g id="line2d_62">
    <path d="M 81.813793 228.383295 
L 132.541065 230.106944 
L 183.268338 231.830594 
L 233.995611 233.554243 
L 284.722884 235.277892 
L 335.450156 237.001541 
L 386.177429 238.725191 
L 436.904702 240.44884 
L 487.631974 242.172489 
L 538.359247 243.896138 
L 589.08652 245.619788 
" clip-path="url(#p743afbbb5c)" style="fill: none; stroke: #1a1a1a; stroke-opacity: 0.4; stroke-width: 1.5; stroke-linecap: round"/>
   </g>
   <g id="patch_3">
    <path d="M 56.450156 354.429375 
L 56.450156 21.789375 
" style="fill: none; stroke: #ffffff; stroke-width: 1.25; stroke-linejoin: miter; stroke-linecap: square"/>
   </g>
   <g id="patch_4">
    <path d="M 614.450156 354.429375 
L 614.450156 21.789375 
" style="fill: none; stroke: #ffffff; stroke-width: 1.25; stroke-linejoin: miter; stroke-linecap: square"/>
   </g>
   <g id="patch_5">
    <path d="M 56.450156 354.429375 
L 614.450156 354.429375 
" style="fill: none; stroke: #ffffff; stroke-width: 1.25; stroke-linejoin: miter; stroke-linecap: square"/>
   </g>
   <g id="patch_6">
    <path d="M 56.450156 21.789375 
L 614.450156 21.789375 
" style="fill: none; stroke: #ffffff; stroke-width: 1.25; stroke-linejoin: miter; stroke-linecap: square"/>
   </g>
   <g id="text_15">
    <!-- Distribuzione predittiva a priori -->
    <g style="fill: #262626" transform="translate(254.753906 15.789375) scale(0.12 -0.12)">
     <defs>
      <path id="ArialMT-44" d="M 494 0 
L 494 4581 
L 2072 4581 
Q 2606 4581 2888 4516 
Q 3281 4425 3559 4188 
Q 3922 3881 4101 3404 
Q 4281 2928 4281 2316 
Q 4281 1794 4159 1391 
Q 4038 988 3847 723 
Q 3656 459 3429 307 
Q 3203 156 2883 78 
Q 2563 0 2147 0 
L 494 0 
z
M 1100 541 
L 2078 541 
Q 2531 541 2789 625 
Q 3047 709 3200 863 
Q 3416 1078 3536 1442 
Q 3656 1806 3656 2325 
Q 3656 3044 3420 3430 
Q 3184 3816 2847 3947 
Q 2603 4041 2063 4041 
L 1100 4041 
L 1100 541 
z
" transform="scale(0.015625)"/>
      <path id="ArialMT-62" d="M 941 0 
L 419 0 
L 419 4581 
L 981 4581 
L 981 2947 
Q 1338 3394 1891 3394 
Q 2197 3394 2470 3270 
Q 2744 3147 2920 2923 
Q 3097 2700 3197 2384 
Q 3297 2069 3297 1709 
Q 3297 856 2875 390 
Q 2453 -75 1863 -75 
Q 1275 -75 941 416 
L 941 0 
z
M 934 1684 
Q 934 1088 1097 822 
Q 1363 388 1816 388 
Q 2184 388 2453 708 
Q 2722 1028 2722 1663 
Q 2722 2313 2464 2622 
Q 2206 2931 1841 2931 
Q 1472 2931 1203 2611 
Q 934 2291 934 1684 
z
" transform="scale(0.015625)"/>
     </defs>
     <use xlink:href="#ArialMT-44"/>
     <use xlink:href="#ArialMT-69" x="72.216797"/>
     <use xlink:href="#ArialMT-73" x="94.433594"/>
     <use xlink:href="#ArialMT-74" x="144.433594"/>
     <use xlink:href="#ArialMT-72" x="172.216797"/>
     <use xlink:href="#ArialMT-69" x="205.517578"/>
     <use xlink:href="#ArialMT-62" x="227.734375"/>
     <use xlink:href="#ArialMT-75" x="283.349609"/>
     <use xlink:href="#ArialMT-7a" x="338.964844"/>
     <use xlink:href="#ArialMT-69" x="388.964844"/>
     <use xlink:href="#ArialMT-6f" x="411.181641"/>
     <use xlink:href="#ArialMT-6e" x="466.796875"/>
     <use xlink:href="#ArialMT-65" x="522.412109"/>
     <use xlink:href="#ArialMT-20" x="578.027344"/>
     <use xlink:href="#ArialMT-70" x="605.810547"/>
     <use xlink:href="#ArialMT-72" x="661.425781"/>
     <use xlink:href="#ArialMT-65" x="694.726562"/>
     <use xlink:href="#ArialMT-64" x="750.341797"/>
     <use xlink:href="#ArialMT-69" x="805.957031"/>
     <use xlink:href="#ArialMT-74" x="828.173828"/>
     <use xlink:href="#ArialMT-74" x="855.957031"/>
     <use xlink:href="#ArialMT-69" x="883.740234"/>
     <use xlink:href="#ArialMT-76" x="905.957031"/>
     <use xlink:href="#ArialMT-61" x="955.957031"/>
     <use xlink:href="#ArialMT-20" x="1011.572266"/>
     <use xlink:href="#ArialMT-61" x="1039.355469"/>
     <use xlink:href="#ArialMT-20" x="1094.970703"/>
     <use xlink:href="#ArialMT-70" x="1122.753906"/>
     <use xlink:href="#ArialMT-72" x="1178.369141"/>
     <use xlink:href="#ArialMT-69" x="1211.669922"/>
     <use xlink:href="#ArialMT-6f" x="1233.886719"/>
     <use xlink:href="#ArialMT-72" x="1289.501953"/>
     <use xlink:href="#ArialMT-69" x="1322.802734"/>
    </g>
   </g>
  </g>
 </g>
 <defs>
  <clipPath id="p743afbbb5c">
   <rect x="56.450156" y="21.789375" width="558" height="332.64"/>
  </clipPath>
 </defs>
</svg>