<?xml version="1.0" encoding="utf-8" standalone="no"?>
<!DOCTYPE svg PUBLIC "-//W3C//DTD SVG 1.1//EN"
  "http://www.w3.org/Graphics/SVG/1.1/DTD/svg11.dtd">
<svg xmlns:xlink="http://www.w3.org/1999/xlink" width="620.171165pt" height="396.304219pt" viewBox="0 0 620.171165 396.304219" xmlns="http://www.w3.org/2000/svg" version="1.1">
 <metadata>
  <rdf:RDF xmlns:dc="http://purl.org/dc/elements/1.1/" xmlns:cc="http://creativecommons.org/ns#" xmlns:rdf="http://www.w3.org/1999/02/22-rdf-syntax-ns#">
   <cc:Work>
    <dc:type rdf:resource="http://purl.org/dc/dcmitype/StillImage"/>
    <dc:date>2023-05-28T13:15:59.227901</dc:date>
    <dc:format>image/svg+xml</dc:format>
    <dc:creator>
     <cc:Agent>
      <dc:title>Matplotlib v3.7.1, https://matplotlib.org/</dc:title>
     </cc:Agent>
    </dc:creator>
   </cc:Work>
  </rdf:RDF>
 </metadata>
 <defs>
  <style type="text/css">*{stroke-linejoin: round; stroke-linecap: butt}</style>
 </defs>
 <g id="figure_1">
  <g id="patch_1">
   <path d="M 0 396.304219 
L 620.171165 396.304219 
L 620.171165 0 
L 0 0 
z
" style="fill: #ffffff"/>
  </g>
  <g id="axes_1">
   <g id="patch_2">
    <path d="M 53.081406 354.429375 
L 611.081406 354.429375 
L 611.081406 21.789375 
L 53.081406 21.789375 
z
" style="fill: #eaeaf2"/>
   </g>
   <g id="matplotlib.axis_1">
    <g id="xtick_1">
     <g id="line2d_1">
      <path d="M 78.445043 354.429375 
L 78.445043 21.789375 
" clip-path="url(#pc01b2e3a11)" style="fill: none; stroke: #ffffff; stroke-linecap: round"/>
     </g>
     <g id="text_1">
      <!-- 0 -->
      <g style="fill: #262626" transform="translate(75.386527 371.802969) scale(0.11 -0.11)">
       <defs>
        <path id="ArialMT-30" d="M 266 2259 
Q 266 3072 433 3567 
Q 600 4063 929 4331 
Q 1259 4600 1759 4600 
Q 2128 4600 2406 4451 
Q 2684 4303 2865 4023 
Q 3047 3744 3150 3342 
Q 3253 2941 3253 2259 
Q 3253 1453 3087 958 
Q 2922 463 2592 192 
Q 2263 -78 1759 -78 
Q 1097 -78 719 397 
Q 266 969 266 2259 
z
M 844 2259 
Q 844 1131 1108 757 
Q 1372 384 1759 384 
Q 2147 384 2411 759 
Q 2675 1134 2675 2259 
Q 2675 3391 2411 3762 
Q 2147 4134 1753 4134 
Q 1366 4134 1134 3806 
Q 844 3388 844 2259 
z
" transform="scale(0.015625)"/>
       </defs>
       <use xlink:href="#ArialMT-30"/>
      </g>
     </g>
    </g>
    <g id="xtick_2">
     <g id="line2d_2">
      <path d="M 184.126861 354.429375 
L 184.126861 21.789375 
" clip-path="url(#pc01b2e3a11)" style="fill: none; stroke: #ffffff; stroke-linecap: round"/>
     </g>
     <g id="text_2">
      <!-- 5 -->
      <g style="fill: #262626" transform="translate(181.068345 371.802969) scale(0.11 -0.11)">
       <defs>
        <path id="ArialMT-35" d="M 266 1200 
L 856 1250 
Q 922 819 1161 601 
Q 1400 384 1738 384 
Q 2144 384 2425 690 
Q 2706 997 2706 1503 
Q 2706 1984 2436 2262 
Q 2166 2541 1728 2541 
Q 1456 2541 1237 2417 
Q 1019 2294 894 2097 
L 366 2166 
L 809 4519 
L 3088 4519 
L 3088 3981 
L 1259 3981 
L 1013 2750 
Q 1425 3038 1878 3038 
Q 2478 3038 2890 2622 
Q 3303 2206 3303 1553 
Q 3303 931 2941 478 
Q 2500 -78 1738 -78 
Q 1113 -78 717 272 
Q 322 622 266 1200 
z
" transform="scale(0.015625)"/>
       </defs>
       <use xlink:href="#ArialMT-35"/>
      </g>
     </g>
    </g>
    <g id="xtick_3">
     <g id="line2d_3">
      <path d="M 289.808679 354.429375 
L 289.808679 21.789375 
" clip-path="url(#pc01b2e3a11)" style="fill: none; stroke: #ffffff; stroke-linecap: round"/>
     </g>
     <g id="text_3">
      <!-- 10 -->
      <g style="fill: #262626" transform="translate(283.691648 371.802969) scale(0.11 -0.11)">
       <defs>
        <path id="ArialMT-31" d="M 2384 0 
L 1822 0 
L 1822 3584 
Q 1619 3391 1289 3197 
Q 959 3003 697 2906 
L 697 3450 
Q 1169 3672 1522 3987 
Q 1875 4303 2022 4600 
L 2384 4600 
L 2384 0 
z
" transform="scale(0.015625)"/>
       </defs>
       <use xlink:href="#ArialMT-31"/>
       <use xlink:href="#ArialMT-30" x="55.615234"/>
      </g>
     </g>
    </g>
    <g id="xtick_4">
     <g id="line2d_4">
      <path d="M 395.490497 354.429375 
L 395.490497 21.789375 
" clip-path="url(#pc01b2e3a11)" style="fill: none; stroke: #ffffff; stroke-linecap: round"/>
     </g>
     <g id="text_4">
      <!-- 15 -->
      <g style="fill: #262626" transform="translate(389.373466 371.802969) scale(0.11 -0.11)">
       <use xlink:href="#ArialMT-31"/>
       <use xlink:href="#ArialMT-35" x="55.615234"/>
      </g>
     </g>
    </g>
    <g id="xtick_5">
     <g id="line2d_5">
      <path d="M 501.172315 354.429375 
L 501.172315 21.789375 
" clip-path="url(#pc01b2e3a11)" style="fill: none; stroke: #ffffff; stroke-linecap: round"/>
     </g>
     <g id="text_5">
      <!-- 20 -->
      <g style="fill: #262626" transform="translate(495.055284 371.802969) scale(0.11 -0.11)">
       <defs>
        <path id="ArialMT-32" d="M 3222 541 
L 3222 0 
L 194 0 
Q 188 203 259 391 
Q 375 700 629 1000 
Q 884 1300 1366 1694 
Q 2113 2306 2375 2664 
Q 2638 3022 2638 3341 
Q 2638 3675 2398 3904 
Q 2159 4134 1775 4134 
Q 1369 4134 1125 3890 
Q 881 3647 878 3216 
L 300 3275 
Q 359 3922 746 4261 
Q 1134 4600 1788 4600 
Q 2447 4600 2831 4234 
Q 3216 3869 3216 3328 
Q 3216 3053 3103 2787 
Q 2991 2522 2730 2228 
Q 2469 1934 1863 1422 
Q 1356 997 1212 845 
Q 1069 694 975 541 
L 3222 541 
z
" transform="scale(0.015625)"/>
       </defs>
       <use xlink:href="#ArialMT-32"/>
       <use xlink:href="#ArialMT-30" x="55.615234"/>
      </g>
     </g>
    </g>
    <g id="xtick_6">
     <g id="line2d_6">
      <path d="M 606.854134 354.429375 
L 606.854134 21.789375 
" clip-path="url(#pc01b2e3a11)" style="fill: none; stroke: #ffffff; stroke-linecap: round"/>
     </g>
     <g id="text_6">
      <!-- 25 -->
      <g style="fill: #262626" transform="translate(600.737102 371.802969) scale(0.11 -0.11)">
       <use xlink:href="#ArialMT-32"/>
       <use xlink:href="#ArialMT-35" x="55.615234"/>
      </g>
     </g>
    </g>
    <g id="text_7">
     <!-- Numero y di successi -->
     <g style="fill: #262626" transform="translate(275.066406 386.578594) scale(0.12 -0.12)">
      <defs>
       <path id="ArialMT-4e" d="M 488 0 
L 488 4581 
L 1109 4581 
L 3516 984 
L 3516 4581 
L 4097 4581 
L 4097 0 
L 3475 0 
L 1069 3600 
L 1069 0 
L 488 0 
z
" transform="scale(0.015625)"/>
       <path id="ArialMT-75" d="M 2597 0 
L 2597 488 
Q 2209 -75 1544 -75 
Q 1250 -75 995 37 
Q 741 150 617 320 
Q 494 491 444 738 
Q 409 903 409 1263 
L 409 3319 
L 972 3319 
L 972 1478 
Q 972 1038 1006 884 
Q 1059 663 1231 536 
Q 1403 409 1656 409 
Q 1909 409 2131 539 
Q 2353 669 2445 892 
Q 2538 1116 2538 1541 
L 2538 3319 
L 3100 3319 
L 3100 0 
L 2597 0 
z
" transform="scale(0.015625)"/>
       <path id="ArialMT-6d" d="M 422 0 
L 422 3319 
L 925 3319 
L 925 2853 
Q 1081 3097 1340 3245 
Q 1600 3394 1931 3394 
Q 2300 3394 2536 3241 
Q 2772 3088 2869 2813 
Q 3263 3394 3894 3394 
Q 4388 3394 4653 3120 
Q 4919 2847 4919 2278 
L 4919 0 
L 4359 0 
L 4359 2091 
Q 4359 2428 4304 2576 
Q 4250 2725 4106 2815 
Q 3963 2906 3769 2906 
Q 3419 2906 3187 2673 
Q 2956 2441 2956 1928 
L 2956 0 
L 2394 0 
L 2394 2156 
Q 2394 2531 2256 2718 
Q 2119 2906 1806 2906 
Q 1569 2906 1367 2781 
Q 1166 2656 1075 2415 
Q 984 2175 984 1722 
L 984 0 
L 422 0 
z
" transform="scale(0.015625)"/>
       <path id="ArialMT-65" d="M 2694 1069 
L 3275 997 
Q 3138 488 2766 206 
Q 2394 -75 1816 -75 
Q 1088 -75 661 373 
Q 234 822 234 1631 
Q 234 2469 665 2931 
Q 1097 3394 1784 3394 
Q 2450 3394 2872 2941 
Q 3294 2488 3294 1666 
Q 3294 1616 3291 1516 
L 816 1516 
Q 847 969 1125 678 
Q 1403 388 1819 388 
Q 2128 388 2347 550 
Q 2566 713 2694 1069 
z
M 847 1978 
L 2700 1978 
Q 2663 2397 2488 2606 
Q 2219 2931 1791 2931 
Q 1403 2931 1139 2672 
Q 875 2413 847 1978 
z
" transform="scale(0.015625)"/>
       <path id="ArialMT-72" d="M 416 0 
L 416 3319 
L 922 3319 
L 922 2816 
Q 1116 3169 1280 3281 
Q 1444 3394 1641 3394 
Q 1925 3394 2219 3213 
L 2025 2691 
Q 1819 2813 1613 2813 
Q 1428 2813 1281 2702 
Q 1134 2591 1072 2394 
Q 978 2094 978 1738 
L 978 0 
L 416 0 
z
" transform="scale(0.015625)"/>
       <path id="ArialMT-6f" d="M 213 1659 
Q 213 2581 725 3025 
Q 1153 3394 1769 3394 
Q 2453 3394 2887 2945 
Q 3322 2497 3322 1706 
Q 3322 1066 3130 698 
Q 2938 331 2570 128 
Q 2203 -75 1769 -75 
Q 1072 -75 642 372 
Q 213 819 213 1659 
z
M 791 1659 
Q 791 1022 1069 705 
Q 1347 388 1769 388 
Q 2188 388 2466 706 
Q 2744 1025 2744 1678 
Q 2744 2294 2464 2611 
Q 2184 2928 1769 2928 
Q 1347 2928 1069 2612 
Q 791 2297 791 1659 
z
" transform="scale(0.015625)"/>
       <path id="ArialMT-20" transform="scale(0.015625)"/>
       <path id="ArialMT-79" d="M 397 -1278 
L 334 -750 
Q 519 -800 656 -800 
Q 844 -800 956 -737 
Q 1069 -675 1141 -563 
Q 1194 -478 1313 -144 
Q 1328 -97 1363 -6 
L 103 3319 
L 709 3319 
L 1400 1397 
Q 1534 1031 1641 628 
Q 1738 1016 1872 1384 
L 2581 3319 
L 3144 3319 
L 1881 -56 
Q 1678 -603 1566 -809 
Q 1416 -1088 1222 -1217 
Q 1028 -1347 759 -1347 
Q 597 -1347 397 -1278 
z
" transform="scale(0.015625)"/>
       <path id="ArialMT-64" d="M 2575 0 
L 2575 419 
Q 2259 -75 1647 -75 
Q 1250 -75 917 144 
Q 584 363 401 755 
Q 219 1147 219 1656 
Q 219 2153 384 2558 
Q 550 2963 881 3178 
Q 1213 3394 1622 3394 
Q 1922 3394 2156 3267 
Q 2391 3141 2538 2938 
L 2538 4581 
L 3097 4581 
L 3097 0 
L 2575 0 
z
M 797 1656 
Q 797 1019 1065 703 
Q 1334 388 1700 388 
Q 2069 388 2326 689 
Q 2584 991 2584 1609 
Q 2584 2291 2321 2609 
Q 2059 2928 1675 2928 
Q 1300 2928 1048 2622 
Q 797 2316 797 1656 
z
" transform="scale(0.015625)"/>
       <path id="ArialMT-69" d="M 425 3934 
L 425 4581 
L 988 4581 
L 988 3934 
L 425 3934 
z
M 425 0 
L 425 3319 
L 988 3319 
L 988 0 
L 425 0 
z
" transform="scale(0.015625)"/>
       <path id="ArialMT-73" d="M 197 991 
L 753 1078 
Q 800 744 1014 566 
Q 1228 388 1613 388 
Q 2000 388 2187 545 
Q 2375 703 2375 916 
Q 2375 1106 2209 1216 
Q 2094 1291 1634 1406 
Q 1016 1563 777 1677 
Q 538 1791 414 1992 
Q 291 2194 291 2438 
Q 291 2659 392 2848 
Q 494 3038 669 3163 
Q 800 3259 1026 3326 
Q 1253 3394 1513 3394 
Q 1903 3394 2198 3281 
Q 2494 3169 2634 2976 
Q 2775 2784 2828 2463 
L 2278 2388 
Q 2241 2644 2061 2787 
Q 1881 2931 1553 2931 
Q 1166 2931 1000 2803 
Q 834 2675 834 2503 
Q 834 2394 903 2306 
Q 972 2216 1119 2156 
Q 1203 2125 1616 2013 
Q 2213 1853 2448 1751 
Q 2684 1650 2818 1456 
Q 2953 1263 2953 975 
Q 2953 694 2789 445 
Q 2625 197 2315 61 
Q 2006 -75 1616 -75 
Q 969 -75 630 194 
Q 291 463 197 991 
z
" transform="scale(0.015625)"/>
       <path id="ArialMT-63" d="M 2588 1216 
L 3141 1144 
Q 3050 572 2676 248 
Q 2303 -75 1759 -75 
Q 1078 -75 664 370 
Q 250 816 250 1647 
Q 250 2184 428 2587 
Q 606 2991 970 3192 
Q 1334 3394 1763 3394 
Q 2303 3394 2647 3120 
Q 2991 2847 3088 2344 
L 2541 2259 
Q 2463 2594 2264 2762 
Q 2066 2931 1784 2931 
Q 1359 2931 1093 2626 
Q 828 2322 828 1663 
Q 828 994 1084 691 
Q 1341 388 1753 388 
Q 2084 388 2306 591 
Q 2528 794 2588 1216 
z
" transform="scale(0.015625)"/>
      </defs>
      <use xlink:href="#ArialMT-4e"/>
      <use xlink:href="#ArialMT-75" x="72.216797"/>
      <use xlink:href="#ArialMT-6d" x="127.832031"/>
      <use xlink:href="#ArialMT-65" x="211.132812"/>
      <use xlink:href="#ArialMT-72" x="266.748047"/>
      <use xlink:href="#ArialMT-6f" x="300.048828"/>
      <use xlink:href="#ArialMT-20" x="355.664062"/>
      <use xlink:href="#ArialMT-79" x="383.447266"/>
      <use xlink:href="#ArialMT-20" x="433.447266"/>
      <use xlink:href="#ArialMT-64" x="461.230469"/>
      <use xlink:href="#ArialMT-69" x="516.845703"/>
      <use xlink:href="#ArialMT-20" x="539.0625"/>
      <use xlink:href="#ArialMT-73" x="566.845703"/>
      <use xlink:href="#ArialMT-75" x="616.845703"/>
      <use xlink:href="#ArialMT-63" x="672.460938"/>
      <use xlink:href="#ArialMT-63" x="722.460938"/>
      <use xlink:href="#ArialMT-65" x="772.460938"/>
      <use xlink:href="#ArialMT-73" x="828.076172"/>
      <use xlink:href="#ArialMT-73" x="878.076172"/>
      <use xlink:href="#ArialMT-69" x="928.076172"/>
     </g>
    </g>
   </g>
   <g id="matplotlib.axis_2">
    <g id="ytick_1">
     <g id="line2d_7">
      <path d="M 53.081406 339.309375 
L 611.081406 339.309375 
" clip-path="url(#pc01b2e3a11)" style="fill: none; stroke: #ffffff; stroke-linecap: round"/>
     </g>
     <g id="text_8">
      <!-- 0.00 -->
      <g style="fill: #262626" transform="translate(22.174375 343.246172) scale(0.11 -0.11)">
       <defs>
        <path id="ArialMT-2e" d="M 581 0 
L 581 641 
L 1222 641 
L 1222 0 
L 581 0 
z
" transform="scale(0.015625)"/>
       </defs>
       <use xlink:href="#ArialMT-30"/>
       <use xlink:href="#ArialMT-2e" x="55.615234"/>
       <use xlink:href="#ArialMT-30" x="83.398438"/>
       <use xlink:href="#ArialMT-30" x="139.013672"/>
      </g>
     </g>
    </g>
    <g id="ytick_2">
     <g id="line2d_8">
      <path d="M 53.081406 286.290193 
L 611.081406 286.290193 
" clip-path="url(#pc01b2e3a11)" style="fill: none; stroke: #ffffff; stroke-linecap: round"/>
     </g>
     <g id="text_9">
      <!-- 0.05 -->
      <g style="fill: #262626" transform="translate(22.174375 290.22699) scale(0.11 -0.11)">
       <use xlink:href="#ArialMT-30"/>
       <use xlink:href="#ArialMT-2e" x="55.615234"/>
       <use xlink:href="#ArialMT-30" x="83.398438"/>
       <use xlink:href="#ArialMT-35" x="139.013672"/>
      </g>
     </g>
    </g>
    <g id="ytick_3">
     <g id="line2d_9">
      <path d="M 53.081406 233.271012 
L 611.081406 233.271012 
" clip-path="url(#pc01b2e3a11)" style="fill: none; stroke: #ffffff; stroke-linecap: round"/>
     </g>
     <g id="text_10">
      <!-- 0.10 -->
      <g style="fill: #262626" transform="translate(22.174375 237.207809) scale(0.11 -0.11)">
       <use xlink:href="#ArialMT-30"/>
       <use xlink:href="#ArialMT-2e" x="55.615234"/>
       <use xlink:href="#ArialMT-31" x="83.398438"/>
       <use xlink:href="#ArialMT-30" x="139.013672"/>
      </g>
     </g>
    </g>
    <g id="ytick_4">
     <g id="line2d_10">
      <path d="M 53.081406 180.25183 
L 611.081406 180.25183 
" clip-path="url(#pc01b2e3a11)" style="fill: none; stroke: #ffffff; stroke-linecap: round"/>
     </g>
     <g id="text_11">
      <!-- 0.15 -->
      <g style="fill: #262626" transform="translate(22.174375 184.188627) scale(0.11 -0.11)">
       <use xlink:href="#ArialMT-30"/>
       <use xlink:href="#ArialMT-2e" x="55.615234"/>
       <use xlink:href="#ArialMT-31" x="83.398438"/>
       <use xlink:href="#ArialMT-35" x="139.013672"/>
      </g>
     </g>
    </g>
    <g id="ytick_5">
     <g id="line2d_11">
      <path d="M 53.081406 127.232648 
L 611.081406 127.232648 
" clip-path="url(#pc01b2e3a11)" style="fill: none; stroke: #ffffff; stroke-linecap: round"/>
     </g>
     <g id="text_12">
      <!-- 0.20 -->
      <g style="fill: #262626" transform="translate(22.174375 131.169445) scale(0.11 -0.11)">
       <use xlink:href="#ArialMT-30"/>
       <use xlink:href="#ArialMT-2e" x="55.615234"/>
       <use xlink:href="#ArialMT-32" x="83.398438"/>
       <use xlink:href="#ArialMT-30" x="139.013672"/>
      </g>
     </g>
    </g>
    <g id="ytick_6">
     <g id="line2d_12">
      <path d="M 53.081406 74.213467 
L 611.081406 74.213467 
" clip-path="url(#pc01b2e3a11)" style="fill: none; stroke: #ffffff; stroke-linecap: round"/>
     </g>
     <g id="text_13">
      <!-- 0.25 -->
      <g style="fill: #262626" transform="translate(22.174375 78.150264) scale(0.11 -0.11)">
       <use xlink:href="#ArialMT-30"/>
       <use xlink:href="#ArialMT-2e" x="55.615234"/>
       <use xlink:href="#ArialMT-32" x="83.398438"/>
       <use xlink:href="#ArialMT-35" x="139.013672"/>
      </g>
     </g>
    </g>
    <g id="text_14">
     <!-- Probabilità -->
     <g style="fill: #262626" transform="translate(15.789375 216.458438) rotate(-90) scale(0.12 -0.12)">
      <defs>
       <path id="ArialMT-50" d="M 494 0 
L 494 4581 
L 2222 4581 
Q 2678 4581 2919 4538 
Q 3256 4481 3484 4323 
Q 3713 4166 3852 3881 
Q 3991 3597 3991 3256 
Q 3991 2672 3619 2267 
Q 3247 1863 2275 1863 
L 1100 1863 
L 1100 0 
L 494 0 
z
M 1100 2403 
L 2284 2403 
Q 2872 2403 3119 2622 
Q 3366 2841 3366 3238 
Q 3366 3525 3220 3729 
Q 3075 3934 2838 4000 
Q 2684 4041 2272 4041 
L 1100 4041 
L 1100 2403 
z
" transform="scale(0.015625)"/>
       <path id="ArialMT-62" d="M 941 0 
L 419 0 
L 419 4581 
L 981 4581 
L 981 2947 
Q 1338 3394 1891 3394 
Q 2197 3394 2470 3270 
Q 2744 3147 2920 2923 
Q 3097 2700 3197 2384 
Q 3297 2069 3297 1709 
Q 3297 856 2875 390 
Q 2453 -75 1863 -75 
Q 1275 -75 941 416 
L 941 0 
z
M 934 1684 
Q 934 1088 1097 822 
Q 1363 388 1816 388 
Q 2184 388 2453 708 
Q 2722 1028 2722 1663 
Q 2722 2313 2464 2622 
Q 2206 2931 1841 2931 
Q 1472 2931 1203 2611 
Q 934 2291 934 1684 
z
" transform="scale(0.015625)"/>
       <path id="ArialMT-61" d="M 2588 409 
Q 2275 144 1986 34 
Q 1697 -75 1366 -75 
Q 819 -75 525 192 
Q 231 459 231 875 
Q 231 1119 342 1320 
Q 453 1522 633 1644 
Q 813 1766 1038 1828 
Q 1203 1872 1538 1913 
Q 2219 1994 2541 2106 
Q 2544 2222 2544 2253 
Q 2544 2597 2384 2738 
Q 2169 2928 1744 2928 
Q 1347 2928 1158 2789 
Q 969 2650 878 2297 
L 328 2372 
Q 403 2725 575 2942 
Q 747 3159 1072 3276 
Q 1397 3394 1825 3394 
Q 2250 3394 2515 3294 
Q 2781 3194 2906 3042 
Q 3031 2891 3081 2659 
Q 3109 2516 3109 2141 
L 3109 1391 
Q 3109 606 3145 398 
Q 3181 191 3288 0 
L 2700 0 
Q 2613 175 2588 409 
z
M 2541 1666 
Q 2234 1541 1622 1453 
Q 1275 1403 1131 1340 
Q 988 1278 909 1158 
Q 831 1038 831 891 
Q 831 666 1001 516 
Q 1172 366 1500 366 
Q 1825 366 2078 508 
Q 2331 650 2450 897 
Q 2541 1088 2541 1459 
L 2541 1666 
z
" transform="scale(0.015625)"/>
       <path id="ArialMT-6c" d="M 409 0 
L 409 4581 
L 972 4581 
L 972 0 
L 409 0 
z
" transform="scale(0.015625)"/>
       <path id="ArialMT-74" d="M 1650 503 
L 1731 6 
Q 1494 -44 1306 -44 
Q 1000 -44 831 53 
Q 663 150 594 308 
Q 525 466 525 972 
L 525 2881 
L 113 2881 
L 113 3319 
L 525 3319 
L 525 4141 
L 1084 4478 
L 1084 3319 
L 1650 3319 
L 1650 2881 
L 1084 2881 
L 1084 941 
Q 1084 700 1114 631 
Q 1144 563 1211 522 
Q 1278 481 1403 481 
Q 1497 481 1650 503 
z
" transform="scale(0.015625)"/>
       <path id="ArialMT-e0" d="M 2588 409 
Q 2275 144 1986 34 
Q 1697 -75 1366 -75 
Q 819 -75 525 192 
Q 231 459 231 875 
Q 231 1119 342 1320 
Q 453 1522 633 1644 
Q 813 1766 1038 1828 
Q 1203 1872 1538 1913 
Q 2219 1994 2541 2106 
Q 2544 2222 2544 2253 
Q 2544 2597 2384 2738 
Q 2169 2928 1744 2928 
Q 1347 2928 1158 2789 
Q 969 2650 878 2297 
L 328 2372 
Q 403 2725 575 2942 
Q 747 3159 1072 3276 
Q 1397 3394 1825 3394 
Q 2250 3394 2515 3294 
Q 2781 3194 2906 3042 
Q 3031 2891 3081 2659 
Q 3109 2516 3109 2141 
L 3109 1391 
Q 3109 606 3145 398 
Q 3181 191 3288 0 
L 2700 0 
Q 2613 175 2588 409 
z
M 2541 1666 
Q 2234 1541 1622 1453 
Q 1275 1403 1131 1340 
Q 988 1278 909 1158 
Q 831 1038 831 891 
Q 831 666 1001 516 
Q 1172 366 1500 366 
Q 1825 366 2078 508 
Q 2331 650 2450 897 
Q 2541 1088 2541 1459 
L 2541 1666 
z
M 2234 3731 
L 1781 3731 
L 1059 4606 
L 1813 4606 
L 2234 3731 
z
" transform="scale(0.015625)"/>
      </defs>
      <use xlink:href="#ArialMT-50"/>
      <use xlink:href="#ArialMT-72" x="66.699219"/>
      <use xlink:href="#ArialMT-6f" x="100"/>
      <use xlink:href="#ArialMT-62" x="155.615234"/>
      <use xlink:href="#ArialMT-61" x="211.230469"/>
      <use xlink:href="#ArialMT-62" x="266.845703"/>
      <use xlink:href="#ArialMT-69" x="322.460938"/>
      <use xlink:href="#ArialMT-6c" x="344.677734"/>
      <use xlink:href="#ArialMT-69" x="366.894531"/>
      <use xlink:href="#ArialMT-74" x="389.111328"/>
      <use xlink:href="#ArialMT-e0" x="416.894531"/>
     </g>
    </g>
   </g>
   <g id="line2d_13">
    <path d="M 78.445043 338.463271 
L 99.581406 332.057054 
L 120.71777 309.782068 
L 141.854134 263.382013 
L 162.990497 201.013108 
L 184.126861 149.645924 
L 205.263224 136.098534 
L 226.399588 165.128654 
L 247.535952 218.004944 
L 268.672315 269.992558 
L 289.808679 306.631447 
L 310.945043 326.577715 
L 332.081406 335.217056 
L 353.21777 338.230082 
L 374.354134 339.078098 
L 395.490497 339.269728 
L 416.626861 339.304065 
L 437.763224 339.30884 
L 458.899588 339.309337 
L 480.035952 339.309373 
L 501.172315 339.309375 
L 522.308679 339.309375 
L 543.445043 339.309375 
L 564.581406 339.309375 
L 585.71777 339.309375 
" clip-path="url(#pc01b2e3a11)" style="fill: none; stroke: #0173b2; stroke-width: 1.5; stroke-linecap: round"/>
    <defs>
     <path id="m2605dfb49b" d="M 0 3 
C 0.795609 3 1.55874 2.683901 2.12132 2.12132 
C 2.683901 1.55874 3 0.795609 3 0 
C 3 -0.795609 2.683901 -1.55874 2.12132 -2.12132 
C 1.55874 -2.683901 0.795609 -3 0 -3 
C -0.795609 -3 -1.55874 -2.683901 -2.12132 -2.12132 
C -2.683901 -1.55874 -3 -0.795609 -3 0 
C -3 0.795609 -2.683901 1.55874 -2.12132 2.12132 
C -1.55874 2.683901 -0.795609 3 0 3 
z
" style="stroke: #0173b2"/>
    </defs>
    <g clip-path="url(#pc01b2e3a11)">
     <use xlink:href="#m2605dfb49b" x="78.445043" y="338.463271" style="fill: #0173b2; stroke: #0173b2"/>
     <use xlink:href="#m2605dfb49b" x="99.581406" y="332.057054" style="fill: #0173b2; stroke: #0173b2"/>
     <use xlink:href="#m2605dfb49b" x="120.71777" y="309.782068" style="fill: #0173b2; stroke: #0173b2"/>
     <use xlink:href="#m2605dfb49b" x="141.854134" y="263.382013" style="fill: #0173b2; stroke: #0173b2"/>
     <use xlink:href="#m2605dfb49b" x="162.990497" y="201.013108" style="fill: #0173b2; stroke: #0173b2"/>
     <use xlink:href="#m2605dfb49b" x="184.126861" y="149.645924" style="fill: #0173b2; stroke: #0173b2"/>
     <use xlink:href="#m2605dfb49b" x="205.263224" y="136.098534" style="fill: #0173b2; stroke: #0173b2"/>
     <use xlink:href="#m2605dfb49b" x="226.399588" y="165.128654" style="fill: #0173b2; stroke: #0173b2"/>
     <use xlink:href="#m2605dfb49b" x="247.535952" y="218.004944" style="fill: #0173b2; stroke: #0173b2"/>
     <use xlink:href="#m2605dfb49b" x="268.672315" y="269.992558" style="fill: #0173b2; stroke: #0173b2"/>
     <use xlink:href="#m2605dfb49b" x="289.808679" y="306.631447" style="fill: #0173b2; stroke: #0173b2"/>
     <use xlink:href="#m2605dfb49b" x="310.945043" y="326.577715" style="fill: #0173b2; stroke: #0173b2"/>
     <use xlink:href="#m2605dfb49b" x="332.081406" y="335.217056" style="fill: #0173b2; stroke: #0173b2"/>
     <use xlink:href="#m2605dfb49b" x="353.21777" y="338.230082" style="fill: #0173b2; stroke: #0173b2"/>
     <use xlink:href="#m2605dfb49b" x="374.354134" y="339.078098" style="fill: #0173b2; stroke: #0173b2"/>
     <use xlink:href="#m2605dfb49b" x="395.490497" y="339.269728" style="fill: #0173b2; stroke: #0173b2"/>
     <use xlink:href="#m2605dfb49b" x="416.626861" y="339.304065" style="fill: #0173b2; stroke: #0173b2"/>
     <use xlink:href="#m2605dfb49b" x="437.763224" y="339.30884" style="fill: #0173b2; stroke: #0173b2"/>
     <use xlink:href="#m2605dfb49b" x="458.899588" y="339.309337" style="fill: #0173b2; stroke: #0173b2"/>
     <use xlink:href="#m2605dfb49b" x="480.035952" y="339.309373" style="fill: #0173b2; stroke: #0173b2"/>
     <use xlink:href="#m2605dfb49b" x="501.172315" y="339.309375" style="fill: #0173b2; stroke: #0173b2"/>
     <use xlink:href="#m2605dfb49b" x="522.308679" y="339.309375" style="fill: #0173b2; stroke: #0173b2"/>
     <use xlink:href="#m2605dfb49b" x="543.445043" y="339.309375" style="fill: #0173b2; stroke: #0173b2"/>
     <use xlink:href="#m2605dfb49b" x="564.581406" y="339.309375" style="fill: #0173b2; stroke: #0173b2"/>
     <use xlink:href="#m2605dfb49b" x="585.71777" y="339.309375" style="fill: #0173b2; stroke: #0173b2"/>
    </g>
   </g>
   <g id="line2d_14">
    <path d="M 78.445043 339.309363 
L 99.581406 339.309025 
L 120.71777 339.304391 
L 141.854134 339.264517 
L 162.990497 339.023404 
L 184.126861 337.936715 
L 205.263224 334.161901 
L 226.399588 323.866953 
L 247.535952 301.668471 
L 268.672315 264.027567 
L 289.808679 215.094392 
L 310.945043 169.925307 
L 332.081406 148.752299 
L 353.21777 163.410535 
L 374.354134 207.385245 
L 395.490497 260.154897 
L 416.626861 302.205714 
L 437.763224 326.213965 
L 458.899588 336.035523 
L 480.035952 338.792451 
L 501.172315 339.270606 
L 522.308679 339.309375 
L 543.445043 339.309375 
L 564.581406 339.309375 
L 585.71777 339.309375 
" clip-path="url(#pc01b2e3a11)" style="fill: none; stroke: #de8f05; stroke-width: 1.5; stroke-linecap: round"/>
    <defs>
     <path id="mb928765a9a" d="M 0 3 
C 0.795609 3 1.55874 2.683901 2.12132 2.12132 
C 2.683901 1.55874 3 0.795609 3 0 
C 3 -0.795609 2.683901 -1.55874 2.12132 -2.12132 
C 1.55874 -2.683901 0.795609 -3 0 -3 
C -0.795609 -3 -1.55874 -2.683901 -2.12132 -2.12132 
C -2.683901 -1.55874 -3 -0.795609 -3 0 
C -3 0.795609 -2.683901 1.55874 -2.12132 2.12132 
C -1.55874 2.683901 -0.795609 3 0 3 
z
" style="stroke: #de8f05"/>
    </defs>
    <g clip-path="url(#pc01b2e3a11)">
     <use xlink:href="#mb928765a9a" x="78.445043" y="339.309363" style="fill: #de8f05; stroke: #de8f05"/>
     <use xlink:href="#mb928765a9a" x="99.581406" y="339.309025" style="fill: #de8f05; stroke: #de8f05"/>
     <use xlink:href="#mb928765a9a" x="120.71777" y="339.304391" style="fill: #de8f05; stroke: #de8f05"/>
     <use xlink:href="#mb928765a9a" x="141.854134" y="339.264517" style="fill: #de8f05; stroke: #de8f05"/>
     <use xlink:href="#mb928765a9a" x="162.990497" y="339.023404" style="fill: #de8f05; stroke: #de8f05"/>
     <use xlink:href="#mb928765a9a" x="184.126861" y="337.936715" style="fill: #de8f05; stroke: #de8f05"/>
     <use xlink:href="#mb928765a9a" x="205.263224" y="334.161901" style="fill: #de8f05; stroke: #de8f05"/>
     <use xlink:href="#mb928765a9a" x="226.399588" y="323.866953" style="fill: #de8f05; stroke: #de8f05"/>
     <use xlink:href="#mb928765a9a" x="247.535952" y="301.668471" style="fill: #de8f05; stroke: #de8f05"/>
     <use xlink:href="#mb928765a9a" x="268.672315" y="264.027567" style="fill: #de8f05; stroke: #de8f05"/>
     <use xlink:href="#mb928765a9a" x="289.808679" y="215.094392" style="fill: #de8f05; stroke: #de8f05"/>
     <use xlink:href="#mb928765a9a" x="310.945043" y="169.925307" style="fill: #de8f05; stroke: #de8f05"/>
     <use xlink:href="#mb928765a9a" x="332.081406" y="148.752299" style="fill: #de8f05; stroke: #de8f05"/>
     <use xlink:href="#mb928765a9a" x="353.21777" y="163.410535" style="fill: #de8f05; stroke: #de8f05"/>
     <use xlink:href="#mb928765a9a" x="374.354134" y="207.385245" style="fill: #de8f05; stroke: #de8f05"/>
     <use xlink:href="#mb928765a9a" x="395.490497" y="260.154897" style="fill: #de8f05; stroke: #de8f05"/>
     <use xlink:href="#mb928765a9a" x="416.626861" y="302.205714" style="fill: #de8f05; stroke: #de8f05"/>
     <use xlink:href="#mb928765a9a" x="437.763224" y="326.213965" style="fill: #de8f05; stroke: #de8f05"/>
     <use xlink:href="#mb928765a9a" x="458.899588" y="336.035523" style="fill: #de8f05; stroke: #de8f05"/>
     <use xlink:href="#mb928765a9a" x="480.035952" y="338.792451" style="fill: #de8f05; stroke: #de8f05"/>
     <use xlink:href="#mb928765a9a" x="501.172315" y="339.270606" style="fill: #de8f05; stroke: #de8f05"/>
     <use xlink:href="#mb928765a9a" x="522.308679" y="339.309375" style="fill: #de8f05; stroke: #de8f05"/>
     <use xlink:href="#mb928765a9a" x="543.445043" y="339.309375" style="fill: #de8f05; stroke: #de8f05"/>
     <use xlink:href="#mb928765a9a" x="564.581406" y="339.309375" style="fill: #de8f05; stroke: #de8f05"/>
     <use xlink:href="#mb928765a9a" x="585.71777" y="339.309375" style="fill: #de8f05; stroke: #de8f05"/>
    </g>
   </g>
   <g id="line2d_15">
    <path d="M 78.445043 339.309375 
L 99.581406 339.309375 
L 120.71777 339.309375 
L 141.854134 339.309375 
L 162.990497 339.309375 
L 184.126861 339.309375 
L 205.263224 339.309375 
L 226.399588 339.309371 
L 247.535952 339.309317 
L 268.672315 339.308685 
L 289.808679 339.302544 
L 310.945043 339.253485 
L 332.081406 338.932115 
L 353.21777 337.219937 
L 374.354134 329.906906 
L 395.490497 305.460486 
L 416.626861 244.109375 
L 437.763224 137.709375 
L 458.899588 36.909375 
L 480.035952 52.825164 
L 501.172315 210.39148 
L 522.308679 339.309375 
L 543.445043 339.309375 
L 564.581406 339.309375 
L 585.71777 339.309375 
" clip-path="url(#pc01b2e3a11)" style="fill: none; stroke: #029e73; stroke-width: 1.5; stroke-linecap: round"/>
    <defs>
     <path id="m020d8b196f" d="M 0 3 
C 0.795609 3 1.55874 2.683901 2.12132 2.12132 
C 2.683901 1.55874 3 0.795609 3 0 
C 3 -0.795609 2.683901 -1.55874 2.12132 -2.12132 
C 1.55874 -2.683901 0.795609 -3 0 -3 
C -0.795609 -3 -1.55874 -2.683901 -2.12132 -2.12132 
C -2.683901 -1.55874 -3 -0.795609 -3 0 
C -3 0.795609 -2.683901 1.55874 -2.12132 2.12132 
C -1.55874 2.683901 -0.795609 3 0 3 
z
" style="stroke: #029e73"/>
    </defs>
    <g clip-path="url(#pc01b2e3a11)">
     <use xlink:href="#m020d8b196f" x="78.445043" y="339.309375" style="fill: #029e73; stroke: #029e73"/>
     <use xlink:href="#m020d8b196f" x="99.581406" y="339.309375" style="fill: #029e73; stroke: #029e73"/>
     <use xlink:href="#m020d8b196f" x="120.71777" y="339.309375" style="fill: #029e73; stroke: #029e73"/>
     <use xlink:href="#m020d8b196f" x="141.854134" y="339.309375" style="fill: #029e73; stroke: #029e73"/>
     <use xlink:href="#m020d8b196f" x="162.990497" y="339.309375" style="fill: #029e73; stroke: #029e73"/>
     <use xlink:href="#m020d8b196f" x="184.126861" y="339.309375" style="fill: #029e73; stroke: #029e73"/>
     <use xlink:href="#m020d8b196f" x="205.263224" y="339.309375" style="fill: #029e73; stroke: #029e73"/>
     <use xlink:href="#m020d8b196f" x="226.399588" y="339.309371" style="fill: #029e73; stroke: #029e73"/>
     <use xlink:href="#m020d8b196f" x="247.535952" y="339.309317" style="fill: #029e73; stroke: #029e73"/>
     <use xlink:href="#m020d8b196f" x="268.672315" y="339.308685" style="fill: #029e73; stroke: #029e73"/>
     <use xlink:href="#m020d8b196f" x="289.808679" y="339.302544" style="fill: #029e73; stroke: #029e73"/>
     <use xlink:href="#m020d8b196f" x="310.945043" y="339.253485" style="fill: #029e73; stroke: #029e73"/>
     <use xlink:href="#m020d8b196f" x="332.081406" y="338.932115" style="fill: #029e73; stroke: #029e73"/>
     <use xlink:href="#m020d8b196f" x="353.21777" y="337.219937" style="fill: #029e73; stroke: #029e73"/>
     <use xlink:href="#m020d8b196f" x="374.354134" y="329.906906" style="fill: #029e73; stroke: #029e73"/>
     <use xlink:href="#m020d8b196f" x="395.490497" y="305.460486" style="fill: #029e73; stroke: #029e73"/>
     <use xlink:href="#m020d8b196f" x="416.626861" y="244.109375" style="fill: #029e73; stroke: #029e73"/>
     <use xlink:href="#m020d8b196f" x="437.763224" y="137.709375" style="fill: #029e73; stroke: #029e73"/>
     <use xlink:href="#m020d8b196f" x="458.899588" y="36.909375" style="fill: #029e73; stroke: #029e73"/>
     <use xlink:href="#m020d8b196f" x="480.035952" y="52.825164" style="fill: #029e73; stroke: #029e73"/>
     <use xlink:href="#m020d8b196f" x="501.172315" y="210.39148" style="fill: #029e73; stroke: #029e73"/>
     <use xlink:href="#m020d8b196f" x="522.308679" y="339.309375" style="fill: #029e73; stroke: #029e73"/>
     <use xlink:href="#m020d8b196f" x="543.445043" y="339.309375" style="fill: #029e73; stroke: #029e73"/>
     <use xlink:href="#m020d8b196f" x="564.581406" y="339.309375" style="fill: #029e73; stroke: #029e73"/>
     <use xlink:href="#m020d8b196f" x="585.71777" y="339.309375" style="fill: #029e73; stroke: #029e73"/>
    </g>
   </g>
   <g id="patch_3">
    <path d="M 53.081406 354.429375 
L 53.081406 21.789375 
" style="fill: none; stroke: #ffffff; stroke-width: 1.25; stroke-linejoin: miter; stroke-linecap: square"/>
   </g>
   <g id="patch_4">
    <path d="M 611.081406 354.429375 
L 611.081406 21.789375 
" style="fill: none; stroke: #ffffff; stroke-width: 1.25; stroke-linejoin: miter; stroke-linecap: square"/>
   </g>
   <g id="patch_5">
    <path d="M 53.081406 354.429375 
L 611.081406 354.429375 
" style="fill: none; stroke: #ffffff; stroke-width: 1.25; stroke-linejoin: miter; stroke-linecap: square"/>
   </g>
   <g id="patch_6">
    <path d="M 53.081406 21.789375 
L 611.081406 21.789375 
" style="fill: none; stroke: #ffffff; stroke-width: 1.25; stroke-linejoin: miter; stroke-linecap: square"/>
   </g>
   <g id="text_15">
    <!-- Distribuzione binomiale al variare di $\theta$ -->
    <g style="fill: #262626" transform="translate(232.841406 15.789375) scale(0.12 -0.12)">
     <defs>
      <path id="ArialMT-44" d="M 494 0 
L 494 4581 
L 2072 4581 
Q 2606 4581 2888 4516 
Q 3281 4425 3559 4188 
Q 3922 3881 4101 3404 
Q 4281 2928 4281 2316 
Q 4281 1794 4159 1391 
Q 4038 988 3847 723 
Q 3656 459 3429 307 
Q 3203 156 2883 78 
Q 2563 0 2147 0 
L 494 0 
z
M 1100 541 
L 2078 541 
Q 2531 541 2789 625 
Q 3047 709 3200 863 
Q 3416 1078 3536 1442 
Q 3656 1806 3656 2325 
Q 3656 3044 3420 3430 
Q 3184 3816 2847 3947 
Q 2603 4041 2063 4041 
L 1100 4041 
L 1100 541 
z
" transform="scale(0.015625)"/>
      <path id="ArialMT-7a" d="M 125 0 
L 125 456 
L 2238 2881 
Q 1878 2863 1603 2863 
L 250 2863 
L 250 3319 
L 2963 3319 
L 2963 2947 
L 1166 841 
L 819 456 
Q 1197 484 1528 484 
L 3063 484 
L 3063 0 
L 125 0 
z
" transform="scale(0.015625)"/>
      <path id="ArialMT-6e" d="M 422 0 
L 422 3319 
L 928 3319 
L 928 2847 
Q 1294 3394 1984 3394 
Q 2284 3394 2536 3286 
Q 2788 3178 2913 3003 
Q 3038 2828 3088 2588 
Q 3119 2431 3119 2041 
L 3119 0 
L 2556 0 
L 2556 2019 
Q 2556 2363 2490 2533 
Q 2425 2703 2258 2804 
Q 2091 2906 1866 2906 
Q 1506 2906 1245 2678 
Q 984 2450 984 1813 
L 984 0 
L 422 0 
z
" transform="scale(0.015625)"/>
      <path id="ArialMT-76" d="M 1344 0 
L 81 3319 
L 675 3319 
L 1388 1331 
Q 1503 1009 1600 663 
Q 1675 925 1809 1294 
L 2547 3319 
L 3125 3319 
L 1869 0 
L 1344 0 
z
" transform="scale(0.015625)"/>
      <path id="Cmmi10-b5" d="M 1031 -72 
Q 741 -72 566 140 
Q 391 353 323 653 
Q 256 953 256 1247 
L 256 1253 
Q 256 1572 317 1915 
Q 378 2259 493 2601 
Q 609 2944 744 3213 
Q 838 3400 986 3631 
Q 1134 3863 1317 4064 
Q 1500 4266 1711 4389 
Q 1922 4513 2138 4513 
L 2144 4513 
Q 2375 4513 2529 4384 
Q 2684 4256 2770 4056 
Q 2856 3856 2890 3628 
Q 2925 3400 2925 3194 
Q 2925 2709 2794 2204 
Q 2663 1700 2431 1228 
Q 2344 1050 2189 809 
Q 2034 569 1861 378 
Q 1688 188 1472 58 
Q 1256 -72 1038 -72 
L 1031 -72 
z
M 1044 97 
Q 1256 97 1451 323 
Q 1647 550 1794 873 
Q 1941 1197 2052 1536 
Q 2163 1875 2216 2113 
L 909 2113 
Q 809 1709 753 1417 
Q 697 1125 697 844 
Q 697 97 1044 97 
z
M 959 2338 
L 2272 2338 
Q 2341 2619 2381 2808 
Q 2422 2997 2450 3206 
Q 2478 3416 2478 3597 
Q 2478 4347 2138 4347 
Q 1731 4347 1436 3692 
Q 1141 3038 959 2338 
z
" transform="scale(0.015625)"/>
     </defs>
     <use xlink:href="#ArialMT-44" transform="translate(0 0.421875)"/>
     <use xlink:href="#ArialMT-69" transform="translate(72.216797 0.421875)"/>
     <use xlink:href="#ArialMT-73" transform="translate(94.433594 0.421875)"/>
     <use xlink:href="#ArialMT-74" transform="translate(144.433594 0.421875)"/>
     <use xlink:href="#ArialMT-72" transform="translate(172.216797 0.421875)"/>
     <use xlink:href="#ArialMT-69" transform="translate(205.517578 0.421875)"/>
     <use xlink:href="#ArialMT-62" transform="translate(227.734375 0.421875)"/>
     <use xlink:href="#ArialMT-75" transform="translate(283.349609 0.421875)"/>
     <use xlink:href="#ArialMT-7a" transform="translate(338.964844 0.421875)"/>
     <use xlink:href="#ArialMT-69" transform="translate(388.964844 0.421875)"/>
     <use xlink:href="#ArialMT-6f" transform="translate(411.181641 0.421875)"/>
     <use xlink:href="#ArialMT-6e" transform="translate(466.796875 0.421875)"/>
     <use xlink:href="#ArialMT-65" transform="translate(522.412109 0.421875)"/>
     <use xlink:href="#ArialMT-20" transform="translate(578.027344 0.421875)"/>
     <use xlink:href="#ArialMT-62" transform="translate(605.810547 0.421875)"/>
     <use xlink:href="#ArialMT-69" transform="translate(661.425781 0.421875)"/>
     <use xlink:href="#ArialMT-6e" transform="translate(683.642578 0.421875)"/>
     <use xlink:href="#ArialMT-6f" transform="translate(739.257812 0.421875)"/>
     <use xlink:href="#ArialMT-6d" transform="translate(794.873047 0.421875)"/>
     <use xlink:href="#ArialMT-69" transform="translate(878.173828 0.421875)"/>
     <use xlink:href="#ArialMT-61" transform="translate(900.390625 0.421875)"/>
     <use xlink:href="#ArialMT-6c" transform="translate(956.005859 0.421875)"/>
     <use xlink:href="#ArialMT-65" transform="translate(978.222656 0.421875)"/>
     <use xlink:href="#ArialMT-20" transform="translate(1033.837891 0.421875)"/>
     <use xlink:href="#ArialMT-61" transform="translate(1061.621094 0.421875)"/>
     <use xlink:href="#ArialMT-6c" transform="translate(1117.236328 0.421875)"/>
     <use xlink:href="#ArialMT-20" transform="translate(1139.453125 0.421875)"/>
     <use xlink:href="#ArialMT-76" transform="translate(1167.236328 0.421875)"/>
     <use xlink:href="#ArialMT-61" transform="translate(1217.236328 0.421875)"/>
     <use xlink:href="#ArialMT-72" transform="translate(1272.851562 0.421875)"/>
     <use xlink:href="#ArialMT-69" transform="translate(1306.152344 0.421875)"/>
     <use xlink:href="#ArialMT-61" transform="translate(1328.369141 0.421875)"/>
     <use xlink:href="#ArialMT-72" transform="translate(1383.984375 0.421875)"/>
     <use xlink:href="#ArialMT-65" transform="translate(1417.285156 0.421875)"/>
     <use xlink:href="#ArialMT-20" transform="translate(1472.900391 0.421875)"/>
     <use xlink:href="#ArialMT-64" transform="translate(1500.683594 0.421875)"/>
     <use xlink:href="#ArialMT-69" transform="translate(1556.298828 0.421875)"/>
     <use xlink:href="#ArialMT-20" transform="translate(1578.515625 0.421875)"/>
     <use xlink:href="#Cmmi10-b5" transform="translate(1606.298828 0.421875)"/>
    </g>
   </g>
  </g>
 </g>
 <defs>
  <clipPath id="pc01b2e3a11">
   <rect x="53.081406" y="21.789375" width="558" height="332.64"/>
  </clipPath>
 </defs>
</svg>