<?xml version="1.0" encoding="utf-8" standalone="no"?>
<!DOCTYPE svg PUBLIC "-//W3C//DTD SVG 1.1//EN"
  "http://www.w3.org/Graphics/SVG/1.1/DTD/svg11.dtd">
<svg xmlns:xlink="http://www.w3.org/1999/xlink" width="612.45125pt" height="385.511016pt" viewBox="0 0 612.45125 385.511016" xmlns="http://www.w3.org/2000/svg" version="1.1">
 <metadata>
  <rdf:RDF xmlns:dc="http://purl.org/dc/elements/1.1/" xmlns:cc="http://creativecommons.org/ns#" xmlns:rdf="http://www.w3.org/1999/02/22-rdf-syntax-ns#">
   <cc:Work>
    <dc:type rdf:resource="http://purl.org/dc/dcmitype/StillImage"/>
    <dc:date>2023-05-08T00:42:36.179716</dc:date>
    <dc:format>image/svg+xml</dc:format>
    <dc:creator>
     <cc:Agent>
      <dc:title>Matplotlib v3.7.1, https://matplotlib.org/</dc:title>
     </cc:Agent>
    </dc:creator>
   </cc:Work>
  </rdf:RDF>
 </metadata>
 <defs>
  <style type="text/css">*{stroke-linejoin: round; stroke-linecap: butt}</style>
 </defs>
 <g id="figure_1">
  <g id="patch_1">
   <path d="M 0 385.511016 
L 612.45125 385.511016 
L 612.45125 0 
L 0 0 
z
" style="fill: #ffffff"/>
  </g>
  <g id="axes_1">
   <g id="patch_2">
    <path d="M 47.25125 343.776797 
L 605.25125 343.776797 
L 605.25125 11.136797 
L 47.25125 11.136797 
z
" style="fill: #eaeaf2"/>
   </g>
   <g id="matplotlib.axis_1">
    <g id="xtick_1">
     <g id="line2d_1">
      <path d="M 72.614886 343.776797 
L 72.614886 11.136797 
" clip-path="url(#p3d7a16a784)" style="fill: none; stroke: #ffffff; stroke-linecap: round"/>
     </g>
     <g id="text_1">
      <!-- 0.0 -->
      <g style="fill: #262626" transform="translate(64.969886 361.150391) scale(0.11 -0.11)">
       <defs>
        <path id="ArialMT-30" d="M 266 2259 
Q 266 3072 433 3567 
Q 600 4063 929 4331 
Q 1259 4600 1759 4600 
Q 2128 4600 2406 4451 
Q 2684 4303 2865 4023 
Q 3047 3744 3150 3342 
Q 3253 2941 3253 2259 
Q 3253 1453 3087 958 
Q 2922 463 2592 192 
Q 2263 -78 1759 -78 
Q 1097 -78 719 397 
Q 266 969 266 2259 
z
M 844 2259 
Q 844 1131 1108 757 
Q 1372 384 1759 384 
Q 2147 384 2411 759 
Q 2675 1134 2675 2259 
Q 2675 3391 2411 3762 
Q 2147 4134 1753 4134 
Q 1366 4134 1134 3806 
Q 844 3388 844 2259 
z
" transform="scale(0.015625)"/>
        <path id="ArialMT-2e" d="M 581 0 
L 581 641 
L 1222 641 
L 1222 0 
L 581 0 
z
" transform="scale(0.015625)"/>
       </defs>
       <use xlink:href="#ArialMT-30"/>
       <use xlink:href="#ArialMT-2e" x="55.615234"/>
       <use xlink:href="#ArialMT-30" x="83.398438"/>
      </g>
     </g>
    </g>
    <g id="xtick_2">
     <g id="line2d_2">
      <path d="M 174.069432 343.776797 
L 174.069432 11.136797 
" clip-path="url(#p3d7a16a784)" style="fill: none; stroke: #ffffff; stroke-linecap: round"/>
     </g>
     <g id="text_2">
      <!-- 0.2 -->
      <g style="fill: #262626" transform="translate(166.424432 361.150391) scale(0.11 -0.11)">
       <defs>
        <path id="ArialMT-32" d="M 3222 541 
L 3222 0 
L 194 0 
Q 188 203 259 391 
Q 375 700 629 1000 
Q 884 1300 1366 1694 
Q 2113 2306 2375 2664 
Q 2638 3022 2638 3341 
Q 2638 3675 2398 3904 
Q 2159 4134 1775 4134 
Q 1369 4134 1125 3890 
Q 881 3647 878 3216 
L 300 3275 
Q 359 3922 746 4261 
Q 1134 4600 1788 4600 
Q 2447 4600 2831 4234 
Q 3216 3869 3216 3328 
Q 3216 3053 3103 2787 
Q 2991 2522 2730 2228 
Q 2469 1934 1863 1422 
Q 1356 997 1212 845 
Q 1069 694 975 541 
L 3222 541 
z
" transform="scale(0.015625)"/>
       </defs>
       <use xlink:href="#ArialMT-30"/>
       <use xlink:href="#ArialMT-2e" x="55.615234"/>
       <use xlink:href="#ArialMT-32" x="83.398438"/>
      </g>
     </g>
    </g>
    <g id="xtick_3">
     <g id="line2d_3">
      <path d="M 275.523977 343.776797 
L 275.523977 11.136797 
" clip-path="url(#p3d7a16a784)" style="fill: none; stroke: #ffffff; stroke-linecap: round"/>
     </g>
     <g id="text_3">
      <!-- 0.4 -->
      <g style="fill: #262626" transform="translate(267.878977 361.150391) scale(0.11 -0.11)">
       <defs>
        <path id="ArialMT-34" d="M 2069 0 
L 2069 1097 
L 81 1097 
L 81 1613 
L 2172 4581 
L 2631 4581 
L 2631 1613 
L 3250 1613 
L 3250 1097 
L 2631 1097 
L 2631 0 
L 2069 0 
z
M 2069 1613 
L 2069 3678 
L 634 1613 
L 2069 1613 
z
" transform="scale(0.015625)"/>
       </defs>
       <use xlink:href="#ArialMT-30"/>
       <use xlink:href="#ArialMT-2e" x="55.615234"/>
       <use xlink:href="#ArialMT-34" x="83.398438"/>
      </g>
     </g>
    </g>
    <g id="xtick_4">
     <g id="line2d_4">
      <path d="M 376.978523 343.776797 
L 376.978523 11.136797 
" clip-path="url(#p3d7a16a784)" style="fill: none; stroke: #ffffff; stroke-linecap: round"/>
     </g>
     <g id="text_4">
      <!-- 0.6 -->
      <g style="fill: #262626" transform="translate(369.333523 361.150391) scale(0.11 -0.11)">
       <defs>
        <path id="ArialMT-36" d="M 3184 3459 
L 2625 3416 
Q 2550 3747 2413 3897 
Q 2184 4138 1850 4138 
Q 1581 4138 1378 3988 
Q 1113 3794 959 3422 
Q 806 3050 800 2363 
Q 1003 2672 1297 2822 
Q 1591 2972 1913 2972 
Q 2475 2972 2870 2558 
Q 3266 2144 3266 1488 
Q 3266 1056 3080 686 
Q 2894 316 2569 119 
Q 2244 -78 1831 -78 
Q 1128 -78 684 439 
Q 241 956 241 2144 
Q 241 3472 731 4075 
Q 1159 4600 1884 4600 
Q 2425 4600 2770 4297 
Q 3116 3994 3184 3459 
z
M 888 1484 
Q 888 1194 1011 928 
Q 1134 663 1356 523 
Q 1578 384 1822 384 
Q 2178 384 2434 671 
Q 2691 959 2691 1453 
Q 2691 1928 2437 2201 
Q 2184 2475 1800 2475 
Q 1419 2475 1153 2201 
Q 888 1928 888 1484 
z
" transform="scale(0.015625)"/>
       </defs>
       <use xlink:href="#ArialMT-30"/>
       <use xlink:href="#ArialMT-2e" x="55.615234"/>
       <use xlink:href="#ArialMT-36" x="83.398438"/>
      </g>
     </g>
    </g>
    <g id="xtick_5">
     <g id="line2d_5">
      <path d="M 478.433068 343.776797 
L 478.433068 11.136797 
" clip-path="url(#p3d7a16a784)" style="fill: none; stroke: #ffffff; stroke-linecap: round"/>
     </g>
     <g id="text_5">
      <!-- 0.8 -->
      <g style="fill: #262626" transform="translate(470.788068 361.150391) scale(0.11 -0.11)">
       <defs>
        <path id="ArialMT-38" d="M 1131 2484 
Q 781 2613 612 2850 
Q 444 3088 444 3419 
Q 444 3919 803 4259 
Q 1163 4600 1759 4600 
Q 2359 4600 2725 4251 
Q 3091 3903 3091 3403 
Q 3091 3084 2923 2848 
Q 2756 2613 2416 2484 
Q 2838 2347 3058 2040 
Q 3278 1734 3278 1309 
Q 3278 722 2862 322 
Q 2447 -78 1769 -78 
Q 1091 -78 675 323 
Q 259 725 259 1325 
Q 259 1772 486 2073 
Q 713 2375 1131 2484 
z
M 1019 3438 
Q 1019 3113 1228 2906 
Q 1438 2700 1772 2700 
Q 2097 2700 2305 2904 
Q 2513 3109 2513 3406 
Q 2513 3716 2298 3927 
Q 2084 4138 1766 4138 
Q 1444 4138 1231 3931 
Q 1019 3725 1019 3438 
z
M 838 1322 
Q 838 1081 952 856 
Q 1066 631 1291 507 
Q 1516 384 1775 384 
Q 2178 384 2440 643 
Q 2703 903 2703 1303 
Q 2703 1709 2433 1975 
Q 2163 2241 1756 2241 
Q 1359 2241 1098 1978 
Q 838 1716 838 1322 
z
" transform="scale(0.015625)"/>
       </defs>
       <use xlink:href="#ArialMT-30"/>
       <use xlink:href="#ArialMT-2e" x="55.615234"/>
       <use xlink:href="#ArialMT-38" x="83.398438"/>
      </g>
     </g>
    </g>
    <g id="xtick_6">
     <g id="line2d_6">
      <path d="M 579.887614 343.776797 
L 579.887614 11.136797 
" clip-path="url(#p3d7a16a784)" style="fill: none; stroke: #ffffff; stroke-linecap: round"/>
     </g>
     <g id="text_6">
      <!-- 1.0 -->
      <g style="fill: #262626" transform="translate(572.242614 361.150391) scale(0.11 -0.11)">
       <defs>
        <path id="ArialMT-31" d="M 2384 0 
L 1822 0 
L 1822 3584 
Q 1619 3391 1289 3197 
Q 959 3003 697 2906 
L 697 3450 
Q 1169 3672 1522 3987 
Q 1875 4303 2022 4600 
L 2384 4600 
L 2384 0 
z
" transform="scale(0.015625)"/>
       </defs>
       <use xlink:href="#ArialMT-31"/>
       <use xlink:href="#ArialMT-2e" x="55.615234"/>
       <use xlink:href="#ArialMT-30" x="83.398438"/>
      </g>
     </g>
    </g>
    <g id="text_7">
     <!-- x -->
     <g style="fill: #262626" transform="translate(323.25125 375.926016) scale(0.12 -0.12)">
      <defs>
       <path id="ArialMT-78" d="M 47 0 
L 1259 1725 
L 138 3319 
L 841 3319 
L 1350 2541 
Q 1494 2319 1581 2169 
Q 1719 2375 1834 2534 
L 2394 3319 
L 3066 3319 
L 1919 1756 
L 3153 0 
L 2463 0 
L 1781 1031 
L 1600 1309 
L 728 0 
L 47 0 
z
" transform="scale(0.015625)"/>
      </defs>
      <use xlink:href="#ArialMT-78"/>
     </g>
    </g>
   </g>
   <g id="matplotlib.axis_2">
    <g id="ytick_1">
     <g id="line2d_7">
      <path d="M 47.25125 343.776797 
L 605.25125 343.776797 
" clip-path="url(#p3d7a16a784)" style="fill: none; stroke: #ffffff; stroke-linecap: round"/>
     </g>
     <g id="text_8">
      <!-- 0.0 -->
      <g style="fill: #262626" transform="translate(22.46125 347.713594) scale(0.11 -0.11)">
       <use xlink:href="#ArialMT-30"/>
       <use xlink:href="#ArialMT-2e" x="55.615234"/>
       <use xlink:href="#ArialMT-30" x="83.398438"/>
      </g>
     </g>
    </g>
    <g id="ytick_2">
     <g id="line2d_8">
      <path d="M 47.25125 306.816797 
L 605.25125 306.816797 
" clip-path="url(#p3d7a16a784)" style="fill: none; stroke: #ffffff; stroke-linecap: round"/>
     </g>
     <g id="text_9">
      <!-- 0.5 -->
      <g style="fill: #262626" transform="translate(22.46125 310.753594) scale(0.11 -0.11)">
       <defs>
        <path id="ArialMT-35" d="M 266 1200 
L 856 1250 
Q 922 819 1161 601 
Q 1400 384 1738 384 
Q 2144 384 2425 690 
Q 2706 997 2706 1503 
Q 2706 1984 2436 2262 
Q 2166 2541 1728 2541 
Q 1456 2541 1237 2417 
Q 1019 2294 894 2097 
L 366 2166 
L 809 4519 
L 3088 4519 
L 3088 3981 
L 1259 3981 
L 1013 2750 
Q 1425 3038 1878 3038 
Q 2478 3038 2890 2622 
Q 3303 2206 3303 1553 
Q 3303 931 2941 478 
Q 2500 -78 1738 -78 
Q 1113 -78 717 272 
Q 322 622 266 1200 
z
" transform="scale(0.015625)"/>
       </defs>
       <use xlink:href="#ArialMT-30"/>
       <use xlink:href="#ArialMT-2e" x="55.615234"/>
       <use xlink:href="#ArialMT-35" x="83.398438"/>
      </g>
     </g>
    </g>
    <g id="ytick_3">
     <g id="line2d_9">
      <path d="M 47.25125 269.856797 
L 605.25125 269.856797 
" clip-path="url(#p3d7a16a784)" style="fill: none; stroke: #ffffff; stroke-linecap: round"/>
     </g>
     <g id="text_10">
      <!-- 1.0 -->
      <g style="fill: #262626" transform="translate(22.46125 273.793594) scale(0.11 -0.11)">
       <use xlink:href="#ArialMT-31"/>
       <use xlink:href="#ArialMT-2e" x="55.615234"/>
       <use xlink:href="#ArialMT-30" x="83.398438"/>
      </g>
     </g>
    </g>
    <g id="ytick_4">
     <g id="line2d_10">
      <path d="M 47.25125 232.896797 
L 605.25125 232.896797 
" clip-path="url(#p3d7a16a784)" style="fill: none; stroke: #ffffff; stroke-linecap: round"/>
     </g>
     <g id="text_11">
      <!-- 1.5 -->
      <g style="fill: #262626" transform="translate(22.46125 236.833594) scale(0.11 -0.11)">
       <use xlink:href="#ArialMT-31"/>
       <use xlink:href="#ArialMT-2e" x="55.615234"/>
       <use xlink:href="#ArialMT-35" x="83.398438"/>
      </g>
     </g>
    </g>
    <g id="ytick_5">
     <g id="line2d_11">
      <path d="M 47.25125 195.936797 
L 605.25125 195.936797 
" clip-path="url(#p3d7a16a784)" style="fill: none; stroke: #ffffff; stroke-linecap: round"/>
     </g>
     <g id="text_12">
      <!-- 2.0 -->
      <g style="fill: #262626" transform="translate(22.46125 199.873594) scale(0.11 -0.11)">
       <use xlink:href="#ArialMT-32"/>
       <use xlink:href="#ArialMT-2e" x="55.615234"/>
       <use xlink:href="#ArialMT-30" x="83.398438"/>
      </g>
     </g>
    </g>
    <g id="ytick_6">
     <g id="line2d_12">
      <path d="M 47.25125 158.976797 
L 605.25125 158.976797 
" clip-path="url(#p3d7a16a784)" style="fill: none; stroke: #ffffff; stroke-linecap: round"/>
     </g>
     <g id="text_13">
      <!-- 2.5 -->
      <g style="fill: #262626" transform="translate(22.46125 162.913594) scale(0.11 -0.11)">
       <use xlink:href="#ArialMT-32"/>
       <use xlink:href="#ArialMT-2e" x="55.615234"/>
       <use xlink:href="#ArialMT-35" x="83.398438"/>
      </g>
     </g>
    </g>
    <g id="ytick_7">
     <g id="line2d_13">
      <path d="M 47.25125 122.016797 
L 605.25125 122.016797 
" clip-path="url(#p3d7a16a784)" style="fill: none; stroke: #ffffff; stroke-linecap: round"/>
     </g>
     <g id="text_14">
      <!-- 3.0 -->
      <g style="fill: #262626" transform="translate(22.46125 125.953594) scale(0.11 -0.11)">
       <defs>
        <path id="ArialMT-33" d="M 269 1209 
L 831 1284 
Q 928 806 1161 595 
Q 1394 384 1728 384 
Q 2125 384 2398 659 
Q 2672 934 2672 1341 
Q 2672 1728 2419 1979 
Q 2166 2231 1775 2231 
Q 1616 2231 1378 2169 
L 1441 2663 
Q 1497 2656 1531 2656 
Q 1891 2656 2178 2843 
Q 2466 3031 2466 3422 
Q 2466 3731 2256 3934 
Q 2047 4138 1716 4138 
Q 1388 4138 1169 3931 
Q 950 3725 888 3313 
L 325 3413 
Q 428 3978 793 4289 
Q 1159 4600 1703 4600 
Q 2078 4600 2393 4439 
Q 2709 4278 2876 4000 
Q 3044 3722 3044 3409 
Q 3044 3113 2884 2869 
Q 2725 2625 2413 2481 
Q 2819 2388 3044 2092 
Q 3269 1797 3269 1353 
Q 3269 753 2831 336 
Q 2394 -81 1725 -81 
Q 1122 -81 723 278 
Q 325 638 269 1209 
z
" transform="scale(0.015625)"/>
       </defs>
       <use xlink:href="#ArialMT-33"/>
       <use xlink:href="#ArialMT-2e" x="55.615234"/>
       <use xlink:href="#ArialMT-30" x="83.398438"/>
      </g>
     </g>
    </g>
    <g id="ytick_8">
     <g id="line2d_14">
      <path d="M 47.25125 85.056797 
L 605.25125 85.056797 
" clip-path="url(#p3d7a16a784)" style="fill: none; stroke: #ffffff; stroke-linecap: round"/>
     </g>
     <g id="text_15">
      <!-- 3.5 -->
      <g style="fill: #262626" transform="translate(22.46125 88.993594) scale(0.11 -0.11)">
       <use xlink:href="#ArialMT-33"/>
       <use xlink:href="#ArialMT-2e" x="55.615234"/>
       <use xlink:href="#ArialMT-35" x="83.398438"/>
      </g>
     </g>
    </g>
    <g id="ytick_9">
     <g id="line2d_15">
      <path d="M 47.25125 48.096797 
L 605.25125 48.096797 
" clip-path="url(#p3d7a16a784)" style="fill: none; stroke: #ffffff; stroke-linecap: round"/>
     </g>
     <g id="text_16">
      <!-- 4.0 -->
      <g style="fill: #262626" transform="translate(22.46125 52.033594) scale(0.11 -0.11)">
       <use xlink:href="#ArialMT-34"/>
       <use xlink:href="#ArialMT-2e" x="55.615234"/>
       <use xlink:href="#ArialMT-30" x="83.398438"/>
      </g>
     </g>
    </g>
    <g id="ytick_10">
     <g id="line2d_16">
      <path d="M 47.25125 11.136797 
L 605.25125 11.136797 
" clip-path="url(#p3d7a16a784)" style="fill: none; stroke: #ffffff; stroke-linecap: round"/>
     </g>
     <g id="text_17">
      <!-- 4.5 -->
      <g style="fill: #262626" transform="translate(22.46125 15.073594) scale(0.11 -0.11)">
       <use xlink:href="#ArialMT-34"/>
       <use xlink:href="#ArialMT-2e" x="55.615234"/>
       <use xlink:href="#ArialMT-35" x="83.398438"/>
      </g>
     </g>
    </g>
    <g id="text_18">
     <!-- f(x) -->
     <g style="fill: #262626" transform="translate(15.935625 186.119297) rotate(-90) scale(0.12 -0.12)">
      <defs>
       <path id="ArialMT-66" d="M 556 0 
L 556 2881 
L 59 2881 
L 59 3319 
L 556 3319 
L 556 3672 
Q 556 4006 616 4169 
Q 697 4388 901 4523 
Q 1106 4659 1475 4659 
Q 1713 4659 2000 4603 
L 1916 4113 
Q 1741 4144 1584 4144 
Q 1328 4144 1222 4034 
Q 1116 3925 1116 3625 
L 1116 3319 
L 1763 3319 
L 1763 2881 
L 1116 2881 
L 1116 0 
L 556 0 
z
" transform="scale(0.015625)"/>
       <path id="ArialMT-28" d="M 1497 -1347 
Q 1031 -759 709 28 
Q 388 816 388 1659 
Q 388 2403 628 3084 
Q 909 3875 1497 4659 
L 1900 4659 
Q 1522 4009 1400 3731 
Q 1209 3300 1100 2831 
Q 966 2247 966 1656 
Q 966 153 1900 -1347 
L 1497 -1347 
z
" transform="scale(0.015625)"/>
       <path id="ArialMT-29" d="M 791 -1347 
L 388 -1347 
Q 1322 153 1322 1656 
Q 1322 2244 1188 2822 
Q 1081 3291 891 3722 
Q 769 4003 388 4659 
L 791 4659 
Q 1378 3875 1659 3084 
Q 1900 2403 1900 1659 
Q 1900 816 1576 28 
Q 1253 -759 791 -1347 
z
" transform="scale(0.015625)"/>
      </defs>
      <use xlink:href="#ArialMT-66"/>
      <use xlink:href="#ArialMT-28" x="27.783203"/>
      <use xlink:href="#ArialMT-78" x="61.083984"/>
      <use xlink:href="#ArialMT-29" x="111.083984"/>
     </g>
    </g>
   </g>
   <g id="line2d_17">
    <path d="M 75.163996 11.015685 
L 77.713105 107.882712 
L 80.262214 150.679365 
L 82.811323 176.121275 
L 85.360432 193.435153 
L 87.909541 206.179189 
L 90.458651 216.054851 
L 93.00776 223.991508 
L 95.556869 230.545337 
L 98.105978 236.072195 
L 100.655087 240.811733 
L 103.204197 244.932018 
L 105.753306 248.554859 
L 108.302415 251.770981 
L 110.851524 254.649523 
L 113.400633 257.244222 
L 115.949742 259.597556 
L 118.498852 261.743603 
L 121.047961 263.710064 
L 123.59707 265.519715 
L 128.695288 268.741226 
L 133.793507 271.526353 
L 138.891725 273.960721 
L 143.989943 276.108057 
L 149.088162 278.016891 
L 154.18638 279.724909 
L 161.833708 281.973845 
L 169.481035 283.913528 
L 177.128363 285.600685 
L 184.77569 287.078113 
L 194.972127 288.777635 
L 205.168564 290.221205 
L 215.365001 291.452533 
L 228.110546 292.742669 
L 240.856092 293.80012 
L 256.150747 294.810523 
L 271.445403 295.579223 
L 286.740058 296.136265 
L 304.583822 296.545204 
L 322.427586 296.712515 
L 340.271351 296.645804 
L 358.115115 296.342057 
L 375.958879 295.787246 
L 391.253534 295.091895 
L 406.548189 294.166131 
L 419.293735 293.191368 
L 432.039281 291.999234 
L 442.235718 290.861129 
L 452.432155 289.528385 
L 462.628591 287.963133 
L 470.275919 286.606739 
L 477.923246 285.063482 
L 485.570574 283.297492 
L 493.217901 281.261869 
L 498.31612 279.724909 
L 503.414338 278.016891 
L 508.512557 276.108057 
L 513.610775 273.960721 
L 518.708993 271.526353 
L 523.807212 268.741226 
L 528.90543 265.519715 
L 531.454539 263.710064 
L 534.003648 261.743603 
L 536.552758 259.597556 
L 539.101867 257.244222 
L 541.650976 254.649523 
L 544.200085 251.770981 
L 546.749194 248.554859 
L 549.298303 244.932018 
L 551.847413 240.811733 
L 554.396522 236.072195 
L 556.945631 230.545337 
L 559.49474 223.991508 
L 562.043849 216.054851 
L 564.592959 206.179189 
L 567.142068 193.435153 
L 569.691177 176.121275 
L 572.240286 150.679365 
L 574.789395 107.882712 
L 577.338504 11.015685 
L 577.338504 11.015685 
" clip-path="url(#p3d7a16a784)" style="fill: none; stroke: #0173b2; stroke-width: 1.5; stroke-linecap: round"/>
   </g>
   <g id="line2d_18">
    <path d="M 72.614886 343.776797 
L 138.891725 343.669098 
L 161.833708 343.423132 
L 179.677472 343.043438 
L 194.972127 342.525718 
L 210.266782 341.772811 
L 223.012328 340.920997 
L 235.757874 339.822771 
L 245.954311 338.73767 
L 256.150747 337.443211 
L 266.347184 335.914055 
L 276.543621 334.123412 
L 284.190948 332.591899 
L 291.838276 330.885 
L 299.485604 328.98981 
L 307.132931 326.892967 
L 314.780259 324.580649 
L 322.427586 322.038578 
L 330.074914 319.252015 
L 337.722241 316.205765 
L 345.369569 312.884175 
L 353.016896 309.271132 
L 360.664224 305.350067 
L 368.311552 301.10395 
L 375.958879 296.515297 
L 383.606207 291.566161 
L 391.253534 286.238141 
L 398.900862 280.512376 
L 403.99908 276.464708 
L 409.097298 272.225851 
L 414.195517 267.789875 
L 419.293735 263.150764 
L 424.391954 258.302408 
L 429.490172 253.238609 
L 434.58839 247.953075 
L 439.686609 242.439428 
L 444.784827 236.691195 
L 449.883045 230.701817 
L 454.981264 224.464641 
L 460.079482 217.972925 
L 465.1777 211.219835 
L 470.275919 204.19845 
L 475.374137 196.901755 
L 480.472356 189.322645 
L 485.570574 181.453926 
L 490.668792 173.288313 
L 495.767011 164.818429 
L 500.865229 156.03681 
L 505.963447 146.935897 
L 511.061666 137.508043 
L 516.159884 127.745511 
L 521.258102 117.640473 
L 526.356321 107.185009 
L 531.454539 96.37111 
L 536.552758 85.190677 
L 541.650976 73.63552 
L 546.749194 61.697356 
L 551.847413 49.367816 
L 556.945631 36.638437 
L 562.043849 23.500667 
L 567.142068 9.945864 
L 571.142084 -1 
L 571.142084 -1 
" clip-path="url(#p3d7a16a784)" style="fill: none; stroke: #de8f05; stroke-width: 1.5; stroke-linecap: round"/>
   </g>
   <g id="line2d_19">
    <path d="M 72.614886 122.016797 
L 85.360432 133.020519 
L 98.105978 143.744248 
L 110.851524 154.187984 
L 123.59707 164.351728 
L 136.342616 174.235478 
L 149.088162 183.839236 
L 161.833708 193.163 
L 174.579254 202.206772 
L 187.3248 210.970551 
L 200.070345 219.454336 
L 212.815891 227.658129 
L 225.561437 235.581929 
L 238.306983 243.225736 
L 251.052529 250.58955 
L 263.798075 257.673371 
L 276.543621 264.477199 
L 289.289167 271.001035 
L 302.034713 277.244877 
L 314.780259 283.208726 
L 327.525805 288.892583 
L 340.271351 294.296446 
L 353.016896 299.420317 
L 365.762442 304.264195 
L 378.507988 308.828079 
L 391.253534 313.111971 
L 403.99908 317.11587 
L 416.744626 320.839776 
L 429.490172 324.283689 
L 442.235718 327.447609 
L 454.981264 330.331536 
L 467.72681 332.935471 
L 480.472356 335.259412 
L 493.217901 337.30336 
L 505.963447 339.067316 
L 516.159884 340.276885 
L 526.356321 341.307259 
L 536.552758 342.158438 
L 546.749194 342.830421 
L 556.945631 343.323208 
L 567.142068 343.6368 
L 577.338504 343.771197 
L 579.887614 343.776797 
L 579.887614 343.776797 
" clip-path="url(#p3d7a16a784)" style="fill: none; stroke: #029e73; stroke-width: 1.5; stroke-linecap: round"/>
   </g>
   <g id="line2d_20">
    <path d="M 72.614886 343.776797 
L 82.811323 335.041017 
L 93.00776 326.663629 
L 103.204197 318.644632 
L 113.400633 310.984025 
L 123.59707 303.681809 
L 133.793507 296.737985 
L 141.440834 291.76531 
L 149.088162 286.994231 
L 156.735489 282.424746 
L 164.382817 278.056856 
L 172.030144 273.890562 
L 179.677472 269.925862 
L 187.3248 266.162757 
L 194.972127 262.601247 
L 202.619455 259.241332 
L 210.266782 256.083011 
L 217.91411 253.126286 
L 225.561437 250.371156 
L 233.208765 247.81762 
L 240.856092 245.465679 
L 248.50342 243.315334 
L 256.150747 241.366583 
L 263.798075 239.619427 
L 271.445403 238.073866 
L 279.09273 236.7299 
L 286.740058 235.587529 
L 294.387385 234.646753 
L 302.034713 233.907571 
L 309.68204 233.369985 
L 317.329368 233.033993 
L 324.976695 232.899597 
L 332.624023 232.966795 
L 340.271351 233.235588 
L 347.918678 233.705976 
L 355.566006 234.377959 
L 363.213333 235.251537 
L 370.860661 236.32671 
L 378.507988 237.603478 
L 386.155316 239.081841 
L 393.802643 240.761798 
L 401.449971 242.643351 
L 409.097298 244.726498 
L 416.744626 247.01124 
L 424.391954 249.497578 
L 432.039281 252.18551 
L 439.686609 255.075037 
L 447.333936 258.166159 
L 454.981264 261.458876 
L 462.628591 264.953187 
L 470.275919 268.649094 
L 477.923246 272.546596 
L 485.570574 276.645692 
L 493.217901 280.946384 
L 500.865229 285.44867 
L 508.512557 290.152551 
L 516.159884 295.058027 
L 523.807212 300.165098 
L 534.003648 307.288118 
L 544.200085 314.769529 
L 554.396522 322.609331 
L 564.592959 330.807524 
L 574.789395 339.364108 
L 579.887614 343.776797 
L 579.887614 343.776797 
" clip-path="url(#p3d7a16a784)" style="fill: none; stroke: #d55e00; stroke-width: 1.5; stroke-linecap: round"/>
   </g>
   <g id="line2d_21">
    <path d="M 72.614886 343.776797 
L 77.713105 322.37192 
L 82.811323 302.679215 
L 87.909541 284.620863 
L 93.00776 268.121161 
L 95.556869 260.432719 
L 98.105978 253.106498 
L 100.655087 246.133617 
L 103.204197 239.505325 
L 105.753306 233.212996 
L 108.302415 227.248129 
L 110.851524 221.60235 
L 113.400633 216.267406 
L 115.949742 211.235168 
L 118.498852 206.49763 
L 121.047961 202.046906 
L 123.59707 197.875232 
L 126.146179 193.974961 
L 128.695288 190.338568 
L 131.244398 186.958643 
L 133.793507 183.827893 
L 136.342616 180.939144 
L 138.891725 178.285335 
L 141.440834 175.85952 
L 143.989943 173.654866 
L 146.539053 171.664653 
L 149.088162 169.882274 
L 151.637271 168.301231 
L 154.18638 166.915138 
L 156.735489 165.717718 
L 159.284599 164.702801 
L 161.833708 163.864326 
L 164.382817 163.196339 
L 166.931926 162.692991 
L 169.481035 162.348538 
L 172.030144 162.157342 
L 174.579254 162.113865 
L 177.128363 162.212674 
L 179.677472 162.448438 
L 182.226581 162.815925 
L 184.77569 163.310004 
L 187.3248 163.925643 
L 192.423018 165.501963 
L 197.521236 167.506577 
L 202.619455 169.902707 
L 207.717673 172.655082 
L 212.815891 175.729903 
L 217.91411 179.094823 
L 223.012328 182.718914 
L 228.110546 186.572645 
L 235.757874 192.722571 
L 243.405202 199.236694 
L 251.052529 206.032156 
L 261.248966 215.399093 
L 279.09273 232.185358 
L 294.387385 246.50002 
L 304.583822 255.802816 
L 314.780259 264.804496 
L 322.427586 271.311612 
L 330.074914 277.579004 
L 337.722241 283.583852 
L 345.369569 289.307356 
L 353.016896 294.734529 
L 360.664224 299.853991 
L 368.311552 304.657757 
L 375.958879 309.141035 
L 383.606207 313.302018 
L 391.253534 317.141673 
L 398.900862 320.663537 
L 406.548189 323.873511 
L 414.195517 326.779649 
L 421.842844 329.391953 
L 429.490172 331.722166 
L 437.137499 333.783565 
L 444.784827 335.590751 
L 452.432155 337.159447 
L 460.079482 338.506284 
L 467.72681 339.648602 
L 475.374137 340.604233 
L 485.570574 341.619352 
L 495.767011 342.377913 
L 505.963447 342.922402 
L 518.708993 343.364224 
L 534.003648 343.641781 
L 554.396522 343.763367 
L 579.887614 343.776797 
L 579.887614 343.776797 
" clip-path="url(#p3d7a16a784)" style="fill: none; stroke: #cc78bc; stroke-width: 1.5; stroke-linecap: round"/>
   </g>
   <g id="patch_3">
    <path d="M 47.25125 343.776797 
L 47.25125 11.136797 
" style="fill: none; stroke: #ffffff; stroke-width: 1.25; stroke-linejoin: miter; stroke-linecap: square"/>
   </g>
   <g id="patch_4">
    <path d="M 605.25125 343.776797 
L 605.25125 11.136797 
" style="fill: none; stroke: #ffffff; stroke-width: 1.25; stroke-linejoin: miter; stroke-linecap: square"/>
   </g>
   <g id="patch_5">
    <path d="M 47.25125 343.776797 
L 605.25125 343.776797 
" style="fill: none; stroke: #ffffff; stroke-width: 1.25; stroke-linejoin: miter; stroke-linecap: square"/>
   </g>
   <g id="patch_6">
    <path d="M 47.25125 11.136797 
L 605.25125 11.136797 
" style="fill: none; stroke: #ffffff; stroke-width: 1.25; stroke-linejoin: miter; stroke-linecap: square"/>
   </g>
   <g id="legend_1">
    <g id="patch_7">
     <path d="M 271.14125 98.036797 
L 381.36125 98.036797 
Q 383.56125 98.036797 383.56125 95.836797 
L 383.56125 18.836797 
Q 383.56125 16.636797 381.36125 16.636797 
L 271.14125 16.636797 
Q 268.94125 16.636797 268.94125 18.836797 
L 268.94125 95.836797 
Q 268.94125 98.036797 271.14125 98.036797 
z
" style="fill: #eaeaf2; opacity: 0.8; stroke: #cccccc; stroke-linejoin: miter"/>
    </g>
    <g id="line2d_22">
     <path d="M 273.34125 25.106797 
L 284.34125 25.106797 
L 295.34125 25.106797 
" style="fill: none; stroke: #0173b2; stroke-width: 1.5; stroke-linecap: round"/>
    </g>
    <g id="text_19">
     <!-- $\alpha$ = 0.5, $\beta$ = 0.5 -->
     <g style="fill: #262626" transform="translate(304.14125 28.956797) scale(0.11 -0.11)">
      <defs>
       <path id="Cmmi10-ae" d="M 1288 -72 
Q 984 -72 748 72 
Q 513 216 384 459 
Q 256 703 256 1013 
Q 256 1447 498 1872 
Q 741 2297 1142 2562 
Q 1544 2828 1984 2828 
Q 2309 2828 2556 2658 
Q 2803 2488 2931 2205 
Q 3059 1922 3059 1600 
L 3066 1172 
Q 3284 1475 3436 1801 
Q 3588 2128 3669 2478 
Q 3681 2516 3719 2516 
L 3794 2516 
Q 3853 2516 3853 2456 
Q 3853 2450 3847 2438 
Q 3772 2144 3659 1873 
Q 3547 1603 3395 1350 
Q 3244 1097 3066 891 
Q 3066 97 3250 97 
Q 3369 97 3445 167 
Q 3522 238 3580 341 
Q 3638 444 3653 447 
L 3731 447 
Q 3781 447 3781 384 
Q 3781 225 3598 76 
Q 3416 -72 3238 -72 
Q 3006 -72 2853 78 
Q 2700 228 2644 469 
Q 2344 213 1994 70 
Q 1644 -72 1288 -72 
z
M 1300 97 
Q 1984 97 2613 659 
Q 2609 697 2603 751 
Q 2597 806 2597 813 
L 2597 1503 
Q 2597 2663 1972 2663 
Q 1597 2663 1315 2342 
Q 1034 2022 892 1576 
Q 750 1131 750 763 
Q 750 484 892 290 
Q 1034 97 1300 97 
z
" transform="scale(0.015625)"/>
       <path id="ArialMT-20" transform="scale(0.015625)"/>
       <path id="ArialMT-3d" d="M 3381 2694 
L 356 2694 
L 356 3219 
L 3381 3219 
L 3381 2694 
z
M 3381 1303 
L 356 1303 
L 356 1828 
L 3381 1828 
L 3381 1303 
z
" transform="scale(0.015625)"/>
       <path id="ArialMT-2c" d="M 569 0 
L 569 641 
L 1209 641 
L 1209 0 
Q 1209 -353 1084 -570 
Q 959 -788 688 -906 
L 531 -666 
Q 709 -588 793 -436 
Q 878 -284 888 0 
L 569 0 
z
" transform="scale(0.015625)"/>
       <path id="Cmmi10-af" d="M 172 -1241 
Q 153 -1241 137 -1219 
Q 122 -1197 122 -1178 
L 1106 2778 
Q 1191 3097 1353 3397 
Q 1516 3697 1761 3955 
Q 2006 4213 2300 4363 
Q 2594 4513 2925 4513 
Q 3163 4513 3355 4408 
Q 3547 4303 3658 4114 
Q 3769 3925 3769 3688 
Q 3769 3459 3681 3251 
Q 3594 3044 3437 2864 
Q 3281 2684 3103 2572 
Q 3206 2506 3287 2404 
Q 3369 2303 3419 2192 
Q 3469 2081 3497 1945 
Q 3525 1809 3525 1691 
Q 3525 1363 3384 1044 
Q 3244 725 3001 465 
Q 2759 206 2446 54 
Q 2134 -97 1806 -97 
Q 1447 -97 1159 100 
Q 872 297 763 634 
L 300 -1203 
Q 300 -1241 250 -1241 
L 172 -1241 
z
M 1819 78 
Q 2106 78 2339 267 
Q 2572 456 2723 742 
Q 2875 1028 2954 1348 
Q 3034 1669 3034 1931 
Q 3034 2256 2847 2444 
Q 2628 2363 2419 2363 
Q 1913 2363 1913 2534 
Q 1913 2759 2491 2759 
Q 2697 2759 2869 2694 
Q 3006 2800 3118 3006 
Q 3231 3213 3289 3438 
Q 3347 3663 3347 3859 
Q 3347 4069 3236 4208 
Q 3125 4347 2913 4347 
Q 2522 4347 2186 4106 
Q 1850 3866 1619 3498 
Q 1388 3131 1288 2741 
L 934 1325 
Q 900 1178 891 997 
Q 891 597 1153 337 
Q 1416 78 1819 78 
z
M 2106 2553 
Q 2203 2528 2425 2528 
Q 2534 2528 2644 2566 
Q 2638 2572 2619 2572 
Q 2550 2591 2472 2591 
Q 2181 2591 2106 2553 
z
" transform="scale(0.015625)"/>
      </defs>
      <use xlink:href="#Cmmi10-ae" transform="translate(0 0.125)"/>
      <use xlink:href="#ArialMT-20" transform="translate(63.916016 0.125)"/>
      <use xlink:href="#ArialMT-3d" transform="translate(91.699219 0.125)"/>
      <use xlink:href="#ArialMT-20" transform="translate(150.097656 0.125)"/>
      <use xlink:href="#ArialMT-30" transform="translate(177.880859 0.125)"/>
      <use xlink:href="#ArialMT-2e" transform="translate(233.496094 0.125)"/>
      <use xlink:href="#ArialMT-35" transform="translate(261.279297 0.125)"/>
      <use xlink:href="#ArialMT-2c" transform="translate(316.894531 0.125)"/>
      <use xlink:href="#ArialMT-20" transform="translate(344.677734 0.125)"/>
      <use xlink:href="#Cmmi10-af" transform="translate(372.460938 0.125)"/>
      <use xlink:href="#ArialMT-20" transform="translate(428.955078 0.125)"/>
      <use xlink:href="#ArialMT-3d" transform="translate(456.738281 0.125)"/>
      <use xlink:href="#ArialMT-20" transform="translate(515.136719 0.125)"/>
      <use xlink:href="#ArialMT-30" transform="translate(542.919922 0.125)"/>
      <use xlink:href="#ArialMT-2e" transform="translate(598.535156 0.125)"/>
      <use xlink:href="#ArialMT-35" transform="translate(626.318359 0.125)"/>
     </g>
    </g>
    <g id="line2d_23">
     <path d="M 273.34125 40.726797 
L 284.34125 40.726797 
L 295.34125 40.726797 
" style="fill: none; stroke: #de8f05; stroke-width: 1.5; stroke-linecap: round"/>
    </g>
    <g id="text_20">
     <!-- $\alpha$ = 5.0, $\beta$ = 1.0 -->
     <g style="fill: #262626" transform="translate(304.14125 44.576797) scale(0.11 -0.11)">
      <use xlink:href="#Cmmi10-ae" transform="translate(0 0.125)"/>
      <use xlink:href="#ArialMT-20" transform="translate(63.916016 0.125)"/>
      <use xlink:href="#ArialMT-3d" transform="translate(91.699219 0.125)"/>
      <use xlink:href="#ArialMT-20" transform="translate(150.097656 0.125)"/>
      <use xlink:href="#ArialMT-35" transform="translate(177.880859 0.125)"/>
      <use xlink:href="#ArialMT-2e" transform="translate(233.496094 0.125)"/>
      <use xlink:href="#ArialMT-30" transform="translate(261.279297 0.125)"/>
      <use xlink:href="#ArialMT-2c" transform="translate(316.894531 0.125)"/>
      <use xlink:href="#ArialMT-20" transform="translate(344.677734 0.125)"/>
      <use xlink:href="#Cmmi10-af" transform="translate(372.460938 0.125)"/>
      <use xlink:href="#ArialMT-20" transform="translate(428.955078 0.125)"/>
      <use xlink:href="#ArialMT-3d" transform="translate(456.738281 0.125)"/>
      <use xlink:href="#ArialMT-20" transform="translate(515.136719 0.125)"/>
      <use xlink:href="#ArialMT-31" transform="translate(542.919922 0.125)"/>
      <use xlink:href="#ArialMT-2e" transform="translate(598.535156 0.125)"/>
      <use xlink:href="#ArialMT-30" transform="translate(626.318359 0.125)"/>
     </g>
    </g>
    <g id="line2d_24">
     <path d="M 273.34125 56.346797 
L 284.34125 56.346797 
L 295.34125 56.346797 
" style="fill: none; stroke: #029e73; stroke-width: 1.5; stroke-linecap: round"/>
    </g>
    <g id="text_21">
     <!-- $\alpha$ = 1.0, $\beta$ = 3.0 -->
     <g style="fill: #262626" transform="translate(304.14125 60.196797) scale(0.11 -0.11)">
      <use xlink:href="#Cmmi10-ae" transform="translate(0 0.125)"/>
      <use xlink:href="#ArialMT-20" transform="translate(63.916016 0.125)"/>
      <use xlink:href="#ArialMT-3d" transform="translate(91.699219 0.125)"/>
      <use xlink:href="#ArialMT-20" transform="translate(150.097656 0.125)"/>
      <use xlink:href="#ArialMT-31" transform="translate(177.880859 0.125)"/>
      <use xlink:href="#ArialMT-2e" transform="translate(233.496094 0.125)"/>
      <use xlink:href="#ArialMT-30" transform="translate(261.279297 0.125)"/>
      <use xlink:href="#ArialMT-2c" transform="translate(316.894531 0.125)"/>
      <use xlink:href="#ArialMT-20" transform="translate(344.677734 0.125)"/>
      <use xlink:href="#Cmmi10-af" transform="translate(372.460938 0.125)"/>
      <use xlink:href="#ArialMT-20" transform="translate(428.955078 0.125)"/>
      <use xlink:href="#ArialMT-3d" transform="translate(456.738281 0.125)"/>
      <use xlink:href="#ArialMT-20" transform="translate(515.136719 0.125)"/>
      <use xlink:href="#ArialMT-33" transform="translate(542.919922 0.125)"/>
      <use xlink:href="#ArialMT-2e" transform="translate(598.535156 0.125)"/>
      <use xlink:href="#ArialMT-30" transform="translate(626.318359 0.125)"/>
     </g>
    </g>
    <g id="line2d_25">
     <path d="M 273.34125 71.966797 
L 284.34125 71.966797 
L 295.34125 71.966797 
" style="fill: none; stroke: #d55e00; stroke-width: 1.5; stroke-linecap: round"/>
    </g>
    <g id="text_22">
     <!-- $\alpha$ = 2.0, $\beta$ = 2.0 -->
     <g style="fill: #262626" transform="translate(304.14125 75.816797) scale(0.11 -0.11)">
      <use xlink:href="#Cmmi10-ae" transform="translate(0 0.125)"/>
      <use xlink:href="#ArialMT-20" transform="translate(63.916016 0.125)"/>
      <use xlink:href="#ArialMT-3d" transform="translate(91.699219 0.125)"/>
      <use xlink:href="#ArialMT-20" transform="translate(150.097656 0.125)"/>
      <use xlink:href="#ArialMT-32" transform="translate(177.880859 0.125)"/>
      <use xlink:href="#ArialMT-2e" transform="translate(233.496094 0.125)"/>
      <use xlink:href="#ArialMT-30" transform="translate(261.279297 0.125)"/>
      <use xlink:href="#ArialMT-2c" transform="translate(316.894531 0.125)"/>
      <use xlink:href="#ArialMT-20" transform="translate(344.677734 0.125)"/>
      <use xlink:href="#Cmmi10-af" transform="translate(372.460938 0.125)"/>
      <use xlink:href="#ArialMT-20" transform="translate(428.955078 0.125)"/>
      <use xlink:href="#ArialMT-3d" transform="translate(456.738281 0.125)"/>
      <use xlink:href="#ArialMT-20" transform="translate(515.136719 0.125)"/>
      <use xlink:href="#ArialMT-32" transform="translate(542.919922 0.125)"/>
      <use xlink:href="#ArialMT-2e" transform="translate(598.535156 0.125)"/>
      <use xlink:href="#ArialMT-30" transform="translate(626.318359 0.125)"/>
     </g>
    </g>
    <g id="line2d_26">
     <path d="M 273.34125 87.586797 
L 284.34125 87.586797 
L 295.34125 87.586797 
" style="fill: none; stroke: #cc78bc; stroke-width: 1.5; stroke-linecap: round"/>
    </g>
    <g id="text_23">
     <!-- $\alpha$ = 2.0, $\beta$ = 5.0 -->
     <g style="fill: #262626" transform="translate(304.14125 91.436797) scale(0.11 -0.11)">
      <use xlink:href="#Cmmi10-ae" transform="translate(0 0.125)"/>
      <use xlink:href="#ArialMT-20" transform="translate(63.916016 0.125)"/>
      <use xlink:href="#ArialMT-3d" transform="translate(91.699219 0.125)"/>
      <use xlink:href="#ArialMT-20" transform="translate(150.097656 0.125)"/>
      <use xlink:href="#ArialMT-32" transform="translate(177.880859 0.125)"/>
      <use xlink:href="#ArialMT-2e" transform="translate(233.496094 0.125)"/>
      <use xlink:href="#ArialMT-30" transform="translate(261.279297 0.125)"/>
      <use xlink:href="#ArialMT-2c" transform="translate(316.894531 0.125)"/>
      <use xlink:href="#ArialMT-20" transform="translate(344.677734 0.125)"/>
      <use xlink:href="#Cmmi10-af" transform="translate(372.460938 0.125)"/>
      <use xlink:href="#ArialMT-20" transform="translate(428.955078 0.125)"/>
      <use xlink:href="#ArialMT-3d" transform="translate(456.738281 0.125)"/>
      <use xlink:href="#ArialMT-20" transform="translate(515.136719 0.125)"/>
      <use xlink:href="#ArialMT-35" transform="translate(542.919922 0.125)"/>
      <use xlink:href="#ArialMT-2e" transform="translate(598.535156 0.125)"/>
      <use xlink:href="#ArialMT-30" transform="translate(626.318359 0.125)"/>
     </g>
    </g>
   </g>
  </g>
 </g>
 <defs>
  <clipPath id="p3d7a16a784">
   <rect x="47.25125" y="11.136797" width="558" height="332.64"/>
  </clipPath>
 </defs>
</svg>