<?xml version="1.0" encoding="utf-8" standalone="no"?>
<!DOCTYPE svg PUBLIC "-//W3C//DTD SVG 1.1//EN"
  "http://www.w3.org/Graphics/SVG/1.1/DTD/svg11.dtd">
<svg xmlns:xlink="http://www.w3.org/1999/xlink" width="618.417344pt" height="381.574219pt" viewBox="0 0 618.417344 381.574219" xmlns="http://www.w3.org/2000/svg" version="1.1">
 <metadata>
  <rdf:RDF xmlns:dc="http://purl.org/dc/elements/1.1/" xmlns:cc="http://creativecommons.org/ns#" xmlns:rdf="http://www.w3.org/1999/02/22-rdf-syntax-ns#">
   <cc:Work>
    <dc:type rdf:resource="http://purl.org/dc/dcmitype/StillImage"/>
    <dc:date>2023-05-08T00:44:13.282794</dc:date>
    <dc:format>image/svg+xml</dc:format>
    <dc:creator>
     <cc:Agent>
      <dc:title>Matplotlib v3.7.1, https://matplotlib.org/</dc:title>
     </cc:Agent>
    </dc:creator>
   </cc:Work>
  </rdf:RDF>
 </metadata>
 <defs>
  <style type="text/css">*{stroke-linejoin: round; stroke-linecap: butt}</style>
 </defs>
 <g id="figure_1">
  <g id="patch_1">
   <path d="M 0 381.574219 
L 618.417344 381.574219 
L 618.417344 0 
L 0 0 
z
" style="fill: #ffffff"/>
  </g>
  <g id="axes_1">
   <g id="patch_2">
    <path d="M 53.217344 339.84 
L 611.217344 339.84 
L 611.217344 7.2 
L 53.217344 7.2 
z
" style="fill: #eaeaf2"/>
   </g>
   <g id="matplotlib.axis_1">
    <g id="xtick_1">
     <g id="line2d_1">
      <path d="M 78.58098 339.84 
L 78.58098 7.2 
" clip-path="url(#p4104bd1787)" style="fill: none; stroke: #ffffff; stroke-linecap: round"/>
     </g>
     <g id="text_1">
      <!-- 0 -->
      <g style="fill: #262626" transform="translate(75.522464 357.213594) scale(0.11 -0.11)">
       <defs>
        <path id="ArialMT-30" d="M 266 2259 
Q 266 3072 433 3567 
Q 600 4063 929 4331 
Q 1259 4600 1759 4600 
Q 2128 4600 2406 4451 
Q 2684 4303 2865 4023 
Q 3047 3744 3150 3342 
Q 3253 2941 3253 2259 
Q 3253 1453 3087 958 
Q 2922 463 2592 192 
Q 2263 -78 1759 -78 
Q 1097 -78 719 397 
Q 266 969 266 2259 
z
M 844 2259 
Q 844 1131 1108 757 
Q 1372 384 1759 384 
Q 2147 384 2411 759 
Q 2675 1134 2675 2259 
Q 2675 3391 2411 3762 
Q 2147 4134 1753 4134 
Q 1366 4134 1134 3806 
Q 844 3388 844 2259 
z
" transform="scale(0.015625)"/>
       </defs>
       <use xlink:href="#ArialMT-30"/>
      </g>
     </g>
    </g>
    <g id="xtick_2">
     <g id="line2d_2">
      <path d="M 193.870236 339.84 
L 193.870236 7.2 
" clip-path="url(#p4104bd1787)" style="fill: none; stroke: #ffffff; stroke-linecap: round"/>
     </g>
     <g id="text_2">
      <!-- 10 -->
      <g style="fill: #262626" transform="translate(187.753205 357.213594) scale(0.11 -0.11)">
       <defs>
        <path id="ArialMT-31" d="M 2384 0 
L 1822 0 
L 1822 3584 
Q 1619 3391 1289 3197 
Q 959 3003 697 2906 
L 697 3450 
Q 1169 3672 1522 3987 
Q 1875 4303 2022 4600 
L 2384 4600 
L 2384 0 
z
" transform="scale(0.015625)"/>
       </defs>
       <use xlink:href="#ArialMT-31"/>
       <use xlink:href="#ArialMT-30" x="55.615234"/>
      </g>
     </g>
    </g>
    <g id="xtick_3">
     <g id="line2d_3">
      <path d="M 309.159493 339.84 
L 309.159493 7.2 
" clip-path="url(#p4104bd1787)" style="fill: none; stroke: #ffffff; stroke-linecap: round"/>
     </g>
     <g id="text_3">
      <!-- 20 -->
      <g style="fill: #262626" transform="translate(303.042461 357.213594) scale(0.11 -0.11)">
       <defs>
        <path id="ArialMT-32" d="M 3222 541 
L 3222 0 
L 194 0 
Q 188 203 259 391 
Q 375 700 629 1000 
Q 884 1300 1366 1694 
Q 2113 2306 2375 2664 
Q 2638 3022 2638 3341 
Q 2638 3675 2398 3904 
Q 2159 4134 1775 4134 
Q 1369 4134 1125 3890 
Q 881 3647 878 3216 
L 300 3275 
Q 359 3922 746 4261 
Q 1134 4600 1788 4600 
Q 2447 4600 2831 4234 
Q 3216 3869 3216 3328 
Q 3216 3053 3103 2787 
Q 2991 2522 2730 2228 
Q 2469 1934 1863 1422 
Q 1356 997 1212 845 
Q 1069 694 975 541 
L 3222 541 
z
" transform="scale(0.015625)"/>
       </defs>
       <use xlink:href="#ArialMT-32"/>
       <use xlink:href="#ArialMT-30" x="55.615234"/>
      </g>
     </g>
    </g>
    <g id="xtick_4">
     <g id="line2d_4">
      <path d="M 424.448749 339.84 
L 424.448749 7.2 
" clip-path="url(#p4104bd1787)" style="fill: none; stroke: #ffffff; stroke-linecap: round"/>
     </g>
     <g id="text_4">
      <!-- 30 -->
      <g style="fill: #262626" transform="translate(418.331717 357.213594) scale(0.11 -0.11)">
       <defs>
        <path id="ArialMT-33" d="M 269 1209 
L 831 1284 
Q 928 806 1161 595 
Q 1394 384 1728 384 
Q 2125 384 2398 659 
Q 2672 934 2672 1341 
Q 2672 1728 2419 1979 
Q 2166 2231 1775 2231 
Q 1616 2231 1378 2169 
L 1441 2663 
Q 1497 2656 1531 2656 
Q 1891 2656 2178 2843 
Q 2466 3031 2466 3422 
Q 2466 3731 2256 3934 
Q 2047 4138 1716 4138 
Q 1388 4138 1169 3931 
Q 950 3725 888 3313 
L 325 3413 
Q 428 3978 793 4289 
Q 1159 4600 1703 4600 
Q 2078 4600 2393 4439 
Q 2709 4278 2876 4000 
Q 3044 3722 3044 3409 
Q 3044 3113 2884 2869 
Q 2725 2625 2413 2481 
Q 2819 2388 3044 2092 
Q 3269 1797 3269 1353 
Q 3269 753 2831 336 
Q 2394 -81 1725 -81 
Q 1122 -81 723 278 
Q 325 638 269 1209 
z
" transform="scale(0.015625)"/>
       </defs>
       <use xlink:href="#ArialMT-33"/>
       <use xlink:href="#ArialMT-30" x="55.615234"/>
      </g>
     </g>
    </g>
    <g id="xtick_5">
     <g id="line2d_5">
      <path d="M 539.738005 339.84 
L 539.738005 7.2 
" clip-path="url(#p4104bd1787)" style="fill: none; stroke: #ffffff; stroke-linecap: round"/>
     </g>
     <g id="text_5">
      <!-- 40 -->
      <g style="fill: #262626" transform="translate(533.620974 357.213594) scale(0.11 -0.11)">
       <defs>
        <path id="ArialMT-34" d="M 2069 0 
L 2069 1097 
L 81 1097 
L 81 1613 
L 2172 4581 
L 2631 4581 
L 2631 1613 
L 3250 1613 
L 3250 1097 
L 2631 1097 
L 2631 0 
L 2069 0 
z
M 2069 1613 
L 2069 3678 
L 634 1613 
L 2069 1613 
z
" transform="scale(0.015625)"/>
       </defs>
       <use xlink:href="#ArialMT-34"/>
       <use xlink:href="#ArialMT-30" x="55.615234"/>
      </g>
     </g>
    </g>
    <g id="text_6">
     <!-- BDI-II -->
     <g style="fill: #262626" transform="translate(316.883594 371.989219) scale(0.12 -0.12)">
      <defs>
       <path id="ArialMT-42" d="M 469 0 
L 469 4581 
L 2188 4581 
Q 2713 4581 3030 4442 
Q 3347 4303 3526 4014 
Q 3706 3725 3706 3409 
Q 3706 3116 3547 2856 
Q 3388 2597 3066 2438 
Q 3481 2316 3704 2022 
Q 3928 1728 3928 1328 
Q 3928 1006 3792 729 
Q 3656 453 3456 303 
Q 3256 153 2954 76 
Q 2653 0 2216 0 
L 469 0 
z
M 1075 2656 
L 2066 2656 
Q 2469 2656 2644 2709 
Q 2875 2778 2992 2937 
Q 3109 3097 3109 3338 
Q 3109 3566 3000 3739 
Q 2891 3913 2687 3977 
Q 2484 4041 1991 4041 
L 1075 4041 
L 1075 2656 
z
M 1075 541 
L 2216 541 
Q 2509 541 2628 563 
Q 2838 600 2978 687 
Q 3119 775 3209 942 
Q 3300 1109 3300 1328 
Q 3300 1584 3169 1773 
Q 3038 1963 2805 2039 
Q 2572 2116 2134 2116 
L 1075 2116 
L 1075 541 
z
" transform="scale(0.015625)"/>
       <path id="ArialMT-44" d="M 494 0 
L 494 4581 
L 2072 4581 
Q 2606 4581 2888 4516 
Q 3281 4425 3559 4188 
Q 3922 3881 4101 3404 
Q 4281 2928 4281 2316 
Q 4281 1794 4159 1391 
Q 4038 988 3847 723 
Q 3656 459 3429 307 
Q 3203 156 2883 78 
Q 2563 0 2147 0 
L 494 0 
z
M 1100 541 
L 2078 541 
Q 2531 541 2789 625 
Q 3047 709 3200 863 
Q 3416 1078 3536 1442 
Q 3656 1806 3656 2325 
Q 3656 3044 3420 3430 
Q 3184 3816 2847 3947 
Q 2603 4041 2063 4041 
L 1100 4041 
L 1100 541 
z
" transform="scale(0.015625)"/>
       <path id="ArialMT-49" d="M 597 0 
L 597 4581 
L 1203 4581 
L 1203 0 
L 597 0 
z
" transform="scale(0.015625)"/>
       <path id="ArialMT-2d" d="M 203 1375 
L 203 1941 
L 1931 1941 
L 1931 1375 
L 203 1375 
z
" transform="scale(0.015625)"/>
      </defs>
      <use xlink:href="#ArialMT-42"/>
      <use xlink:href="#ArialMT-44" x="66.699219"/>
      <use xlink:href="#ArialMT-49" x="138.916016"/>
      <use xlink:href="#ArialMT-2d" x="166.699219"/>
      <use xlink:href="#ArialMT-49" x="200"/>
      <use xlink:href="#ArialMT-49" x="227.783203"/>
     </g>
    </g>
   </g>
   <g id="matplotlib.axis_2">
    <g id="ytick_1">
     <g id="text_7">
      <!-- mdd -->
      <g style="fill: #262626" transform="translate(22.320625 94.296797) scale(0.11 -0.11)">
       <defs>
        <path id="ArialMT-6d" d="M 422 0 
L 422 3319 
L 925 3319 
L 925 2853 
Q 1081 3097 1340 3245 
Q 1600 3394 1931 3394 
Q 2300 3394 2536 3241 
Q 2772 3088 2869 2813 
Q 3263 3394 3894 3394 
Q 4388 3394 4653 3120 
Q 4919 2847 4919 2278 
L 4919 0 
L 4359 0 
L 4359 2091 
Q 4359 2428 4304 2576 
Q 4250 2725 4106 2815 
Q 3963 2906 3769 2906 
Q 3419 2906 3187 2673 
Q 2956 2441 2956 1928 
L 2956 0 
L 2394 0 
L 2394 2156 
Q 2394 2531 2256 2718 
Q 2119 2906 1806 2906 
Q 1569 2906 1367 2781 
Q 1166 2656 1075 2415 
Q 984 2175 984 1722 
L 984 0 
L 422 0 
z
" transform="scale(0.015625)"/>
        <path id="ArialMT-64" d="M 2575 0 
L 2575 419 
Q 2259 -75 1647 -75 
Q 1250 -75 917 144 
Q 584 363 401 755 
Q 219 1147 219 1656 
Q 219 2153 384 2558 
Q 550 2963 881 3178 
Q 1213 3394 1622 3394 
Q 1922 3394 2156 3267 
Q 2391 3141 2538 2938 
L 2538 4581 
L 3097 4581 
L 3097 0 
L 2575 0 
z
M 797 1656 
Q 797 1019 1065 703 
Q 1334 388 1700 388 
Q 2069 388 2326 689 
Q 2584 991 2584 1609 
Q 2584 2291 2321 2609 
Q 2059 2928 1675 2928 
Q 1300 2928 1048 2622 
Q 797 2316 797 1656 
z
" transform="scale(0.015625)"/>
       </defs>
       <use xlink:href="#ArialMT-6d"/>
       <use xlink:href="#ArialMT-64" x="83.300781"/>
       <use xlink:href="#ArialMT-64" x="138.916016"/>
      </g>
     </g>
    </g>
    <g id="ytick_2">
     <g id="text_8">
      <!-- ctl -->
      <g style="fill: #262626" transform="translate(32.717344 260.616797) scale(0.11 -0.11)">
       <defs>
        <path id="ArialMT-63" d="M 2588 1216 
L 3141 1144 
Q 3050 572 2676 248 
Q 2303 -75 1759 -75 
Q 1078 -75 664 370 
Q 250 816 250 1647 
Q 250 2184 428 2587 
Q 606 2991 970 3192 
Q 1334 3394 1763 3394 
Q 2303 3394 2647 3120 
Q 2991 2847 3088 2344 
L 2541 2259 
Q 2463 2594 2264 2762 
Q 2066 2931 1784 2931 
Q 1359 2931 1093 2626 
Q 828 2322 828 1663 
Q 828 994 1084 691 
Q 1341 388 1753 388 
Q 2084 388 2306 591 
Q 2528 794 2588 1216 
z
" transform="scale(0.015625)"/>
        <path id="ArialMT-74" d="M 1650 503 
L 1731 6 
Q 1494 -44 1306 -44 
Q 1000 -44 831 53 
Q 663 150 594 308 
Q 525 466 525 972 
L 525 2881 
L 113 2881 
L 113 3319 
L 525 3319 
L 525 4141 
L 1084 4478 
L 1084 3319 
L 1650 3319 
L 1650 2881 
L 1084 2881 
L 1084 941 
Q 1084 700 1114 631 
Q 1144 563 1211 522 
Q 1278 481 1403 481 
Q 1497 481 1650 503 
z
" transform="scale(0.015625)"/>
        <path id="ArialMT-6c" d="M 409 0 
L 409 4581 
L 972 4581 
L 972 0 
L 409 0 
z
" transform="scale(0.015625)"/>
       </defs>
       <use xlink:href="#ArialMT-63"/>
       <use xlink:href="#ArialMT-74" x="50"/>
       <use xlink:href="#ArialMT-6c" x="77.783203"/>
      </g>
     </g>
    </g>
    <g id="text_9">
     <!-- Group -->
     <g style="fill: #262626" transform="translate(15.935625 190.194375) rotate(-90) scale(0.12 -0.12)">
      <defs>
       <path id="ArialMT-47" d="M 2638 1797 
L 2638 2334 
L 4578 2338 
L 4578 638 
Q 4131 281 3656 101 
Q 3181 -78 2681 -78 
Q 2006 -78 1454 211 
Q 903 500 622 1047 
Q 341 1594 341 2269 
Q 341 2938 620 3517 
Q 900 4097 1425 4378 
Q 1950 4659 2634 4659 
Q 3131 4659 3532 4498 
Q 3934 4338 4162 4050 
Q 4391 3763 4509 3300 
L 3963 3150 
Q 3859 3500 3706 3700 
Q 3553 3900 3268 4020 
Q 2984 4141 2638 4141 
Q 2222 4141 1919 4014 
Q 1616 3888 1430 3681 
Q 1244 3475 1141 3228 
Q 966 2803 966 2306 
Q 966 1694 1177 1281 
Q 1388 869 1791 669 
Q 2194 469 2647 469 
Q 3041 469 3416 620 
Q 3791 772 3984 944 
L 3984 1797 
L 2638 1797 
z
" transform="scale(0.015625)"/>
       <path id="ArialMT-72" d="M 416 0 
L 416 3319 
L 922 3319 
L 922 2816 
Q 1116 3169 1280 3281 
Q 1444 3394 1641 3394 
Q 1925 3394 2219 3213 
L 2025 2691 
Q 1819 2813 1613 2813 
Q 1428 2813 1281 2702 
Q 1134 2591 1072 2394 
Q 978 2094 978 1738 
L 978 0 
L 416 0 
z
" transform="scale(0.015625)"/>
       <path id="ArialMT-6f" d="M 213 1659 
Q 213 2581 725 3025 
Q 1153 3394 1769 3394 
Q 2453 3394 2887 2945 
Q 3322 2497 3322 1706 
Q 3322 1066 3130 698 
Q 2938 331 2570 128 
Q 2203 -75 1769 -75 
Q 1072 -75 642 372 
Q 213 819 213 1659 
z
M 791 1659 
Q 791 1022 1069 705 
Q 1347 388 1769 388 
Q 2188 388 2466 706 
Q 2744 1025 2744 1678 
Q 2744 2294 2464 2611 
Q 2184 2928 1769 2928 
Q 1347 2928 1069 2612 
Q 791 2297 791 1659 
z
" transform="scale(0.015625)"/>
       <path id="ArialMT-75" d="M 2597 0 
L 2597 488 
Q 2209 -75 1544 -75 
Q 1250 -75 995 37 
Q 741 150 617 320 
Q 494 491 444 738 
Q 409 903 409 1263 
L 409 3319 
L 972 3319 
L 972 1478 
Q 972 1038 1006 884 
Q 1059 663 1231 536 
Q 1403 409 1656 409 
Q 1909 409 2131 539 
Q 2353 669 2445 892 
Q 2538 1116 2538 1541 
L 2538 3319 
L 3100 3319 
L 3100 0 
L 2597 0 
z
" transform="scale(0.015625)"/>
       <path id="ArialMT-70" d="M 422 -1272 
L 422 3319 
L 934 3319 
L 934 2888 
Q 1116 3141 1344 3267 
Q 1572 3394 1897 3394 
Q 2322 3394 2647 3175 
Q 2972 2956 3137 2557 
Q 3303 2159 3303 1684 
Q 3303 1175 3120 767 
Q 2938 359 2589 142 
Q 2241 -75 1856 -75 
Q 1575 -75 1351 44 
Q 1128 163 984 344 
L 984 -1272 
L 422 -1272 
z
M 931 1641 
Q 931 1000 1190 694 
Q 1450 388 1819 388 
Q 2194 388 2461 705 
Q 2728 1022 2728 1688 
Q 2728 2322 2467 2637 
Q 2206 2953 1844 2953 
Q 1484 2953 1207 2617 
Q 931 2281 931 1641 
z
" transform="scale(0.015625)"/>
      </defs>
      <use xlink:href="#ArialMT-47"/>
      <use xlink:href="#ArialMT-72" x="77.783203"/>
      <use xlink:href="#ArialMT-6f" x="111.083984"/>
      <use xlink:href="#ArialMT-75" x="166.699219"/>
      <use xlink:href="#ArialMT-70" x="222.314453"/>
     </g>
    </g>
   </g>
   <g id="PolyCollection_1">
    <defs>
     <path id="madf1dfb242" d="M 220.471038 -291.006935 
L 220.471038 -291.421503 
L 224.941162 -291.480396 
L 229.411285 -291.552373 
L 233.881408 -291.639344 
L 238.351531 -291.743275 
L 242.821654 -291.86616 
L 247.291778 -292.009977 
L 251.761901 -292.176661 
L 256.232024 -292.368074 
L 260.702147 -292.585985 
L 265.17227 -292.832055 
L 269.642394 -293.10783 
L 274.112517 -293.414738 
L 278.58264 -293.754085 
L 283.052763 -294.127045 
L 287.522887 -294.534639 
L 291.99301 -294.977692 
L 296.463133 -295.456779 
L 300.933256 -295.972133 
L 305.403379 -296.523536 
L 309.873503 -297.110186 
L 314.343626 -297.730554 
L 318.813749 -298.382237 
L 323.283872 -299.061826 
L 327.753995 -299.764808 
L 332.224119 -300.485511 
L 336.694242 -301.21712 
L 341.164365 -301.951757 
L 345.634488 -302.680663 
L 350.104611 -303.394436 
L 354.574735 -304.083362 
L 359.044858 -304.737787 
L 363.514981 -305.348523 
L 367.985104 -305.907257 
L 372.455227 -306.406922 
L 376.925351 -306.842013 
L 381.395474 -307.208811 
L 385.865597 -307.505504 
L 390.33572 -307.732183 
L 394.805843 -307.890727 
L 399.275967 -307.98457 
L 403.74609 -308.01839 
L 408.216213 -307.99772 
L 412.686336 -307.928537 
L 417.15646 -307.816845 
L 421.626583 -307.668287 
L 426.096706 -307.487819 
L 430.566829 -307.279467 
L 435.036952 -307.046188 
L 439.507076 -306.789829 
L 443.977199 -306.511209 
L 448.447322 -306.210297 
L 452.917445 -305.886478 
L 457.387568 -305.538885 
L 461.857692 -305.166767 
L 466.327815 -304.769854 
L 470.797938 -304.348702 
L 475.268061 -303.904954 
L 479.738184 -303.441529 
L 484.208308 -302.962671 
L 488.678431 -302.473884 
L 493.148554 -301.981736 
L 497.618677 -301.493536 
L 502.0888 -301.016921 
L 506.558924 -300.559387 
L 511.029047 -300.127782 
L 515.49917 -299.727835 
L 519.969293 -299.363733 
L 524.439416 -299.037803 
L 528.90954 -298.75032 
L 533.379663 -298.49946 
L 537.849786 -298.281399 
L 542.319909 -298.09056 
L 546.790032 -297.919979 
L 551.260156 -297.761775 
L 555.730279 -297.607671 
L 560.200402 -297.449538 
L 564.670525 -297.279922 
L 569.140649 -297.09251 
L 573.610772 -296.882498 
L 578.080895 -296.646857 
L 582.551018 -296.384452 
L 587.021141 -296.096043 
L 591.491265 -295.784147 
L 595.961388 -295.452794 
L 600.431511 -295.1072 
L 604.901634 -294.753381 
L 609.371757 -294.397743 
L 613.841881 -294.046685 
L 618.312004 -293.706235 
L 622.782127 -293.381749 
L 627.25225 -293.077682 
L 631.722373 -292.797449 
L 636.192497 -292.54336 
L 640.66262 -292.316637 
L 645.132743 -292.117499 
L 649.602866 -291.945285 
L 654.072989 -291.798623 
L 658.543113 -291.6756 
L 663.013236 -291.573941 
L 663.013236 -290.854496 
L 663.013236 -290.854496 
L 658.543113 -290.752837 
L 654.072989 -290.629814 
L 649.602866 -290.483152 
L 645.132743 -290.310939 
L 640.66262 -290.111801 
L 636.192497 -289.885078 
L 631.722373 -289.630988 
L 627.25225 -289.350755 
L 622.782127 -289.046689 
L 618.312004 -288.722203 
L 613.841881 -288.381753 
L 609.371757 -288.030694 
L 604.901634 -287.675056 
L 600.431511 -287.321237 
L 595.961388 -286.975644 
L 591.491265 -286.644291 
L 587.021141 -286.332394 
L 582.551018 -286.043985 
L 578.080895 -285.781581 
L 573.610772 -285.545939 
L 569.140649 -285.335928 
L 564.670525 -285.148515 
L 560.200402 -284.9789 
L 555.730279 -284.820767 
L 551.260156 -284.666662 
L 546.790032 -284.508458 
L 542.319909 -284.337878 
L 537.849786 -284.147038 
L 533.379663 -283.928977 
L 528.90954 -283.678117 
L 524.439416 -283.390635 
L 519.969293 -283.064705 
L 515.49917 -282.700602 
L 511.029047 -282.300655 
L 506.558924 -281.869051 
L 502.0888 -281.411516 
L 497.618677 -280.934902 
L 493.148554 -280.446701 
L 488.678431 -279.954553 
L 484.208308 -279.465767 
L 479.738184 -278.986909 
L 475.268061 -278.523483 
L 470.797938 -278.079736 
L 466.327815 -277.658583 
L 461.857692 -277.261671 
L 457.387568 -276.889552 
L 452.917445 -276.54196 
L 448.447322 -276.218141 
L 443.977199 -275.917229 
L 439.507076 -275.638609 
L 435.036952 -275.382249 
L 430.566829 -275.14897 
L 426.096706 -274.940619 
L 421.626583 -274.76015 
L 417.15646 -274.611592 
L 412.686336 -274.4999 
L 408.216213 -274.430718 
L 403.74609 -274.410048 
L 399.275967 -274.443867 
L 394.805843 -274.537711 
L 390.33572 -274.696254 
L 385.865597 -274.922934 
L 381.395474 -275.219627 
L 376.925351 -275.586425 
L 372.455227 -276.021515 
L 367.985104 -276.52118 
L 363.514981 -277.079914 
L 359.044858 -277.690651 
L 354.574735 -278.345076 
L 350.104611 -279.034002 
L 345.634488 -279.747775 
L 341.164365 -280.47668 
L 336.694242 -281.211318 
L 332.224119 -281.942926 
L 327.753995 -282.66363 
L 323.283872 -283.366612 
L 318.813749 -284.046201 
L 314.343626 -284.697883 
L 309.873503 -285.318251 
L 305.403379 -285.904901 
L 300.933256 -286.456304 
L 296.463133 -286.971658 
L 291.99301 -287.450745 
L 287.522887 -287.893799 
L 283.052763 -288.301392 
L 278.58264 -288.674352 
L 274.112517 -289.0137 
L 269.642394 -289.320608 
L 265.17227 -289.596383 
L 260.702147 -289.842452 
L 256.232024 -290.060363 
L 251.761901 -290.251777 
L 247.291778 -290.418461 
L 242.821654 -290.562278 
L 238.351531 -290.685162 
L 233.881408 -290.789094 
L 229.411285 -290.876064 
L 224.941162 -290.948042 
L 220.471038 -291.006935 
z
" style="stroke: #363636; stroke-width: 1.5"/>
    </defs>
    <g clip-path="url(#p4104bd1787)">
     <use xlink:href="#madf1dfb242" x="0" y="381.574219" style="fill: #176d9c; stroke: #363636; stroke-width: 1.5"/>
    </g>
   </g>
   <g id="PolyCollection_2">
    <defs>
     <path id="m8c1828802d" d="M 48.093957 -118.497322 
L 48.093957 -131.291116 
L 50.107302 -133.221766 
L 52.120647 -135.557119 
L 54.133992 -138.324534 
L 56.147337 -141.535878 
L 58.160682 -145.183137 
L 60.174027 -149.234812 
L 62.187372 -153.633658 
L 64.200717 -158.296229 
L 66.214062 -163.114572 
L 68.227407 -167.960209 
L 70.240752 -172.690267 
L 72.254097 -177.155371 
L 74.267442 -181.208636 
L 76.280787 -184.714968 
L 78.294132 -187.559753 
L 80.307477 -189.656094 
L 82.320822 -190.949878 
L 84.334167 -191.422219 
L 86.347512 -191.089118 
L 88.360857 -189.998498 
L 90.374202 -188.225048 
L 92.387547 -185.863544 
L 94.400892 -183.021391 
L 96.414237 -179.811174 
L 98.427582 -176.343894 
L 100.440927 -172.72341 
L 102.454272 -169.042399 
L 104.467617 -165.379918 
L 106.480962 -161.800487 
L 108.494307 -158.354412 
L 110.507652 -155.079036 
L 112.520997 -152.000522 
L 114.534342 -149.135842 
L 116.547686 -146.494689 
L 118.561031 -144.081118 
L 120.574376 -141.894838 
L 122.587721 -139.932152 
L 124.601066 -138.186577 
L 126.614411 -136.649278 
L 128.627756 -135.30937 
L 130.641101 -134.154209 
L 132.654446 -133.169711 
L 134.667791 -132.34072 
L 136.681136 -131.65143 
L 138.694481 -131.08582 
L 140.707826 -130.628072 
L 142.721171 -130.26294 
L 144.734516 -129.976049 
L 146.747861 -129.754105 
L 148.761206 -129.585034 
L 150.774551 -129.458055 
L 152.787896 -129.363696 
L 154.801241 -129.293773 
L 156.814586 -129.241334 
L 158.827931 -129.200564 
L 160.841276 -129.166662 
L 162.854621 -129.135686 
L 164.867966 -129.104379 
L 166.881311 -129.069995 
L 168.894656 -129.030153 
L 170.908001 -128.982744 
L 172.921346 -128.925917 
L 174.934691 -128.85815 
L 176.948036 -128.778406 
L 178.961381 -128.686337 
L 180.974726 -128.58251 
L 182.988071 -128.468579 
L 185.001416 -128.347373 
L 187.014761 -128.222835 
L 189.028106 -128.099799 
L 191.041451 -127.983607 
L 193.054796 -127.879588 
L 195.068141 -127.792473 
L 197.081486 -127.725795 
L 199.094831 -127.681377 
L 201.108176 -127.658973 
L 203.121521 -127.656122 
L 205.134866 -127.668244 
L 207.148211 -127.688981 
L 209.161556 -127.710751 
L 211.174901 -127.72544 
L 213.188246 -127.725174 
L 215.201591 -127.70306 
L 217.214936 -127.653823 
L 219.228281 -127.57427 
L 221.241626 -127.463526 
L 223.254971 -127.323032 
L 225.268316 -127.156324 
L 227.281661 -126.968624 
L 229.295006 -126.766302 
L 231.308351 -126.556285 
L 233.321696 -126.345473 
L 235.335041 -126.140228 
L 237.348386 -125.945976 
L 239.361731 -125.766942 
L 241.375076 -125.606034 
L 243.388421 -125.464856 
L 245.401766 -125.343828 
L 247.415111 -125.242378 
L 247.415111 -124.54606 
L 247.415111 -124.54606 
L 245.401766 -124.444609 
L 243.388421 -124.323581 
L 241.375076 -124.182404 
L 239.361731 -124.021496 
L 237.348386 -123.842461 
L 235.335041 -123.648209 
L 233.321696 -123.442965 
L 231.308351 -123.232153 
L 229.295006 -123.022135 
L 227.281661 -122.819813 
L 225.268316 -122.632113 
L 223.254971 -122.465406 
L 221.241626 -122.324912 
L 219.228281 -122.214167 
L 217.214936 -122.134614 
L 215.201591 -122.085378 
L 213.188246 -122.063263 
L 211.174901 -122.062997 
L 209.161556 -122.077686 
L 207.148211 -122.099456 
L 205.134866 -122.120194 
L 203.121521 -122.132316 
L 201.108176 -122.129464 
L 199.094831 -122.10706 
L 197.081486 -122.062642 
L 195.068141 -121.995964 
L 193.054796 -121.908849 
L 191.041451 -121.804831 
L 189.028106 -121.688638 
L 187.014761 -121.565602 
L 185.001416 -121.441064 
L 182.988071 -121.319859 
L 180.974726 -121.205928 
L 178.961381 -121.1021 
L 176.948036 -121.010032 
L 174.934691 -120.930287 
L 172.921346 -120.862521 
L 170.908001 -120.805694 
L 168.894656 -120.758285 
L 166.881311 -120.718442 
L 164.867966 -120.684058 
L 162.854621 -120.652751 
L 160.841276 -120.621775 
L 158.827931 -120.587873 
L 156.814586 -120.547103 
L 154.801241 -120.494664 
L 152.787896 -120.424741 
L 150.774551 -120.330382 
L 148.761206 -120.203403 
L 146.747861 -120.034333 
L 144.734516 -119.812389 
L 142.721171 -119.525497 
L 140.707826 -119.160366 
L 138.694481 -118.702617 
L 136.681136 -118.137007 
L 134.667791 -117.447717 
L 132.654446 -116.618727 
L 130.641101 -115.634228 
L 128.627756 -114.479067 
L 126.614411 -113.139159 
L 124.601066 -111.60186 
L 122.587721 -109.856286 
L 120.574376 -107.893599 
L 118.561031 -105.70732 
L 116.547686 -103.293748 
L 114.534342 -100.652595 
L 112.520997 -97.787916 
L 110.507652 -94.709402 
L 108.494307 -91.434025 
L 106.480962 -87.987951 
L 104.467617 -84.408519 
L 102.454272 -80.746039 
L 100.440927 -77.065027 
L 98.427582 -73.444543 
L 96.414237 -69.977263 
L 94.400892 -66.767046 
L 92.387547 -63.924893 
L 90.374202 -61.56339 
L 88.360857 -59.78994 
L 86.347512 -58.699319 
L 84.334167 -58.366219 
L 82.320822 -58.83856 
L 80.307477 -60.132344 
L 78.294132 -62.228685 
L 76.280787 -65.07347 
L 74.267442 -68.579802 
L 72.254097 -72.633067 
L 70.240752 -77.09817 
L 68.227407 -81.828229 
L 66.214062 -86.673865 
L 64.200717 -91.492208 
L 62.187372 -96.154779 
L 60.174027 -100.553626 
L 58.160682 -104.605301 
L 56.147337 -108.252559 
L 54.133992 -111.463904 
L 52.120647 -114.231319 
L 50.107302 -116.566671 
L 48.093957 -118.497322 
z
" style="stroke: #363636; stroke-width: 1.5"/>
    </defs>
    <g clip-path="url(#p4104bd1787)">
     <use xlink:href="#m8c1828802d" x="0" y="381.574219" style="fill: #c38820; stroke: #363636; stroke-width: 1.5"/>
    </g>
   </g>
   <g id="line2d_6">
    <path d="M 297.630567 90.36 
L 585.853707 90.36 
" clip-path="url(#p4104bd1787)" style="fill: none; stroke: #363636; stroke-width: 1.5; stroke-linecap: round"/>
   </g>
   <g id="line2d_7">
    <path d="M 378.333046 90.36 
L 482.093377 90.36 
" clip-path="url(#p4104bd1787)" style="fill: none; stroke: #363636; stroke-width: 4.5; stroke-linecap: round"/>
   </g>
   <g id="line2d_8">
    <path d="M 78.58098 256.68 
L 136.225608 256.68 
" clip-path="url(#p4104bd1787)" style="fill: none; stroke: #363636; stroke-width: 1.5; stroke-linecap: round"/>
   </g>
   <g id="line2d_9">
    <path d="M 78.58098 256.68 
L 101.638831 256.68 
" clip-path="url(#p4104bd1787)" style="fill: none; stroke: #363636; stroke-width: 4.5; stroke-linecap: round"/>
   </g>
   <g id="patch_3">
    <path d="M 53.217344 339.84 
L 53.217344 7.2 
" style="fill: none; stroke: #ffffff; stroke-width: 1.25; stroke-linejoin: miter; stroke-linecap: square"/>
   </g>
   <g id="patch_4">
    <path d="M 611.217344 339.84 
L 611.217344 7.2 
" style="fill: none; stroke: #ffffff; stroke-width: 1.25; stroke-linejoin: miter; stroke-linecap: square"/>
   </g>
   <g id="patch_5">
    <path d="M 53.217344 339.84 
L 611.217344 339.84 
" style="fill: none; stroke: #ffffff; stroke-width: 1.25; stroke-linejoin: miter; stroke-linecap: square"/>
   </g>
   <g id="patch_6">
    <path d="M 53.217344 7.2 
L 611.217344 7.2 
" style="fill: none; stroke: #ffffff; stroke-width: 1.25; stroke-linejoin: miter; stroke-linecap: square"/>
   </g>
   <g id="PathCollection_1">
    <defs>
     <path id="mebb577d88e" d="M 0 1.5 
C 0.397805 1.5 0.77937 1.341951 1.06066 1.06066 
C 1.341951 0.77937 1.5 0.397805 1.5 0 
C 1.5 -0.397805 1.341951 -0.77937 1.06066 -1.06066 
C 0.77937 -1.341951 0.397805 -1.5 0 -1.5 
C -0.397805 -1.5 -0.77937 -1.341951 -1.06066 -1.06066 
C -1.341951 -0.77937 -1.5 -0.397805 -1.5 0 
C -1.5 0.397805 -1.341951 0.77937 -1.06066 1.06066 
C -0.77937 1.341951 -0.397805 1.5 0 1.5 
z
" style="stroke: #363636"/>
    </defs>
    <g clip-path="url(#p4104bd1787)">
     <use xlink:href="#mebb577d88e" x="424.448749" y="90.36" style="fill: #ffffff; stroke: #363636"/>
    </g>
   </g>
   <g id="PathCollection_2">
    <g clip-path="url(#p4104bd1787)">
     <use xlink:href="#mebb577d88e" x="90.109906" y="256.68" style="fill: #ffffff; stroke: #363636"/>
    </g>
   </g>
   <g id="PathCollection_3">
    <defs>
     <path id="m74a41576e6" d="M 0 2.5 
C 0.663008 2.5 1.29895 2.236584 1.767767 1.767767 
C 2.236584 1.29895 2.5 0.663008 2.5 0 
C 2.5 -0.663008 2.236584 -1.29895 1.767767 -1.767767 
C 1.29895 -2.236584 0.663008 -2.5 0 -2.5 
C -0.663008 -2.5 -1.29895 -2.236584 -1.767767 -1.767767 
C -2.236584 -1.29895 -2.5 -0.663008 -2.5 0 
C -2.5 0.663008 -2.236584 1.29895 -1.767767 1.767767 
C -1.29895 2.236584 -0.663008 2.5 0 2.5 
z
"/>
    </defs>
    <g clip-path="url(#p4104bd1787)">
     <use xlink:href="#m74a41576e6" x="366.804121" y="84.452312" style="fill-opacity: 0.3"/>
     <use xlink:href="#m74a41576e6" x="424.448749" y="81.587362" style="fill-opacity: 0.3"/>
     <use xlink:href="#m74a41576e6" x="378.333046" y="83.721281" style="fill-opacity: 0.3"/>
     <use xlink:href="#m74a41576e6" x="482.093377" y="92.20646" style="fill-opacity: 0.3"/>
     <use xlink:href="#m74a41576e6" x="585.853707" y="95.64406" style="fill-opacity: 0.3"/>
     <use xlink:href="#m74a41576e6" x="424.448749" y="75.260626" style="fill-opacity: 0.3"/>
     <use xlink:href="#m74a41576e6" x="332.217344" y="89.616691" style="fill-opacity: 0.3"/>
     <use xlink:href="#m74a41576e6" x="459.035526" y="85.419653" style="fill-opacity: 0.3"/>
     <use xlink:href="#m74a41576e6" x="574.324782" y="96.202048" style="fill-opacity: 0.3"/>
     <use xlink:href="#m74a41576e6" x="574.324782" y="74.308342" style="fill-opacity: 0.3"/>
     <use xlink:href="#m74a41576e6" x="355.275195" y="103.872022" style="fill-opacity: 0.3"/>
     <use xlink:href="#m74a41576e6" x="528.209079" y="88.347999" style="fill-opacity: 0.3"/>
     <use xlink:href="#m74a41576e6" x="297.630567" y="87.803643" style="fill-opacity: 0.3"/>
     <use xlink:href="#m74a41576e6" x="366.804121" y="104.954088" style="fill-opacity: 0.3"/>
     <use xlink:href="#m74a41576e6" x="435.977674" y="101.630813" style="fill-opacity: 0.3"/>
     <use xlink:href="#m74a41576e6" x="401.390897" y="83.042022" style="fill-opacity: 0.3"/>
     <use xlink:href="#m74a41576e6" x="424.448749" y="91.327063" style="fill-opacity: 0.3"/>
     <use xlink:href="#m74a41576e6" x="482.093377" y="91.632976" style="fill-opacity: 0.3"/>
     <use xlink:href="#m74a41576e6" x="435.977674" y="103.308358" style="fill-opacity: 0.3"/>
     <use xlink:href="#m74a41576e6" x="378.333046" y="100.922031" style="fill-opacity: 0.3"/>
     <use xlink:href="#m74a41576e6" x="493.622302" y="88.792965" style="fill-opacity: 0.3"/>
     <use xlink:href="#m74a41576e6" x="551.266931" y="105.890324" style="fill-opacity: 0.3"/>
     <use xlink:href="#m74a41576e6" x="378.333046" y="100.382636" style="fill-opacity: 0.3"/>
     <use xlink:href="#m74a41576e6" x="482.093377" y="99.436993" style="fill-opacity: 0.3"/>
     <use xlink:href="#m74a41576e6" x="459.035526" y="74.00167" style="fill-opacity: 0.3"/>
     <use xlink:href="#m74a41576e6" x="401.390897" y="88.470926" style="fill-opacity: 0.3"/>
     <use xlink:href="#m74a41576e6" x="389.861972" y="106.766859" style="fill-opacity: 0.3"/>
     <use xlink:href="#m74a41576e6" x="470.564451" y="82.856371" style="fill-opacity: 0.3"/>
     <use xlink:href="#m74a41576e6" x="332.217344" y="74.580038" style="fill-opacity: 0.3"/>
     <use xlink:href="#m74a41576e6" x="389.861972" y="91.872745" style="fill-opacity: 0.3"/>
    </g>
   </g>
   <g id="PathCollection_4">
    <g clip-path="url(#p4104bd1787)">
     <use xlink:href="#m74a41576e6" x="113.167757" y="272.065906" style="fill-opacity: 0.3"/>
     <use xlink:href="#m74a41576e6" x="78.58098" y="252.144964" style="fill-opacity: 0.3"/>
     <use xlink:href="#m74a41576e6" x="78.58098" y="246.077539" style="fill-opacity: 0.3"/>
     <use xlink:href="#m74a41576e6" x="90.109906" y="267.153647" style="fill-opacity: 0.3"/>
     <use xlink:href="#m74a41576e6" x="101.638831" y="269.695282" style="fill-opacity: 0.3"/>
     <use xlink:href="#m74a41576e6" x="78.58098" y="250.894977" style="fill-opacity: 0.3"/>
     <use xlink:href="#m74a41576e6" x="78.58098" y="247.18048" style="fill-opacity: 0.3"/>
     <use xlink:href="#m74a41576e6" x="101.638831" y="248.065907" style="fill-opacity: 0.3"/>
     <use xlink:href="#m74a41576e6" x="78.58098" y="250.651182" style="fill-opacity: 0.3"/>
     <use xlink:href="#m74a41576e6" x="78.58098" y="255.99442" style="fill-opacity: 0.3"/>
     <use xlink:href="#m74a41576e6" x="78.58098" y="243.955131" style="fill-opacity: 0.3"/>
     <use xlink:href="#m74a41576e6" x="159.283459" y="268.526075" style="fill-opacity: 0.3"/>
     <use xlink:href="#m74a41576e6" x="78.58098" y="265.548359" style="fill-opacity: 0.3"/>
     <use xlink:href="#m74a41576e6" x="78.58098" y="248.22008" style="fill-opacity: 0.3"/>
     <use xlink:href="#m74a41576e6" x="90.109906" y="254.483745" style="fill-opacity: 0.3"/>
     <use xlink:href="#m74a41576e6" x="78.58098" y="260.473038" style="fill-opacity: 0.3"/>
     <use xlink:href="#m74a41576e6" x="101.638831" y="244.962246" style="fill-opacity: 0.3"/>
     <use xlink:href="#m74a41576e6" x="78.58098" y="253.347546" style="fill-opacity: 0.3"/>
     <use xlink:href="#m74a41576e6" x="90.109906" y="252.321897" style="fill-opacity: 0.3"/>
     <use xlink:href="#m74a41576e6" x="78.58098" y="254.036153" style="fill-opacity: 0.3"/>
     <use xlink:href="#m74a41576e6" x="78.58098" y="243.991061" style="fill-opacity: 0.3"/>
     <use xlink:href="#m74a41576e6" x="78.58098" y="255.344939" style="fill-opacity: 0.3"/>
     <use xlink:href="#m74a41576e6" x="90.109906" y="269.595439" style="fill-opacity: 0.3"/>
     <use xlink:href="#m74a41576e6" x="216.928088" y="257.476588" style="fill-opacity: 0.3"/>
     <use xlink:href="#m74a41576e6" x="90.109906" y="262.847521" style="fill-opacity: 0.3"/>
     <use xlink:href="#m74a41576e6" x="90.109906" y="244.855084" style="fill-opacity: 0.3"/>
     <use xlink:href="#m74a41576e6" x="113.167757" y="245.650621" style="fill-opacity: 0.3"/>
     <use xlink:href="#m74a41576e6" x="90.109906" y="268.610718" style="fill-opacity: 0.3"/>
     <use xlink:href="#m74a41576e6" x="136.225608" y="243.968781" style="fill-opacity: 0.3"/>
     <use xlink:href="#m74a41576e6" x="113.167757" y="263.625663" style="fill-opacity: 0.3"/>
     <use xlink:href="#m74a41576e6" x="182.341311" y="266.16428" style="fill-opacity: 0.3"/>
     <use xlink:href="#m74a41576e6" x="78.58098" y="244.427469" style="fill-opacity: 0.3"/>
     <use xlink:href="#m74a41576e6" x="101.638831" y="257.559161" style="fill-opacity: 0.3"/>
     <use xlink:href="#m74a41576e6" x="78.58098" y="259.97664" style="fill-opacity: 0.3"/>
     <use xlink:href="#m74a41576e6" x="78.58098" y="263.198795" style="fill-opacity: 0.3"/>
     <use xlink:href="#m74a41576e6" x="90.109906" y="254.561689" style="fill-opacity: 0.3"/>
    </g>
   </g>
  </g>
 </g>
 <defs>
  <clipPath id="p4104bd1787">
   <rect x="53.217344" y="7.2" width="558" height="332.64"/>
  </clipPath>
 </defs>
</svg>