<?xml version="1.0" encoding="utf-8" standalone="no"?>
<!DOCTYPE svg PUBLIC "-//W3C//DTD SVG 1.1//EN"
  "http://www.w3.org/Graphics/SVG/1.1/DTD/svg11.dtd">
<svg xmlns:xlink="http://www.w3.org/1999/xlink" width="612.45125pt" height="381.574219pt" viewBox="0 0 612.45125 381.574219" xmlns="http://www.w3.org/2000/svg" version="1.1">
 <metadata>
  <rdf:RDF xmlns:dc="http://purl.org/dc/elements/1.1/" xmlns:cc="http://creativecommons.org/ns#" xmlns:rdf="http://www.w3.org/1999/02/22-rdf-syntax-ns#">
   <cc:Work>
    <dc:type rdf:resource="http://purl.org/dc/dcmitype/StillImage"/>
    <dc:date>2023-05-08T00:39:52.365180</dc:date>
    <dc:format>image/svg+xml</dc:format>
    <dc:creator>
     <cc:Agent>
      <dc:title>Matplotlib v3.7.1, https://matplotlib.org/</dc:title>
     </cc:Agent>
    </dc:creator>
   </cc:Work>
  </rdf:RDF>
 </metadata>
 <defs>
  <style type="text/css">*{stroke-linejoin: round; stroke-linecap: butt}</style>
 </defs>
 <g id="figure_1">
  <g id="patch_1">
   <path d="M 0 381.574219 
L 612.45125 381.574219 
L 612.45125 0 
L 0 0 
z
" style="fill: #ffffff"/>
  </g>
  <g id="axes_1">
   <g id="patch_2">
    <path d="M 47.25125 339.84 
L 605.25125 339.84 
L 605.25125 7.2 
L 47.25125 7.2 
z
" style="fill: #eaeaf2"/>
   </g>
   <g id="matplotlib.axis_1">
    <g id="xtick_1">
     <g id="line2d_1">
      <path d="M 123.342159 339.84 
L 123.342159 7.2 
" clip-path="url(#pd80e80e691)" style="fill: none; stroke: #ffffff; stroke-linecap: round"/>
     </g>
     <g id="text_1">
      <!-- −4 -->
      <g style="fill: #262626" transform="translate(117.0713 357.213594) scale(0.11 -0.11)">
       <defs>
        <path id="ArialMT-2212" d="M 3381 1997 
L 356 1997 
L 356 2522 
L 3381 2522 
L 3381 1997 
z
" transform="scale(0.015625)"/>
        <path id="ArialMT-34" d="M 2069 0 
L 2069 1097 
L 81 1097 
L 81 1613 
L 2172 4581 
L 2631 4581 
L 2631 1613 
L 3250 1613 
L 3250 1097 
L 2631 1097 
L 2631 0 
L 2069 0 
z
M 2069 1613 
L 2069 3678 
L 634 1613 
L 2069 1613 
z
" transform="scale(0.015625)"/>
       </defs>
       <use xlink:href="#ArialMT-2212"/>
       <use xlink:href="#ArialMT-34" x="58.398438"/>
      </g>
     </g>
    </g>
    <g id="xtick_2">
     <g id="line2d_2">
      <path d="M 224.796705 339.84 
L 224.796705 7.2 
" clip-path="url(#pd80e80e691)" style="fill: none; stroke: #ffffff; stroke-linecap: round"/>
     </g>
     <g id="text_2">
      <!-- −2 -->
      <g style="fill: #262626" transform="translate(218.525845 357.213594) scale(0.11 -0.11)">
       <defs>
        <path id="ArialMT-32" d="M 3222 541 
L 3222 0 
L 194 0 
Q 188 203 259 391 
Q 375 700 629 1000 
Q 884 1300 1366 1694 
Q 2113 2306 2375 2664 
Q 2638 3022 2638 3341 
Q 2638 3675 2398 3904 
Q 2159 4134 1775 4134 
Q 1369 4134 1125 3890 
Q 881 3647 878 3216 
L 300 3275 
Q 359 3922 746 4261 
Q 1134 4600 1788 4600 
Q 2447 4600 2831 4234 
Q 3216 3869 3216 3328 
Q 3216 3053 3103 2787 
Q 2991 2522 2730 2228 
Q 2469 1934 1863 1422 
Q 1356 997 1212 845 
Q 1069 694 975 541 
L 3222 541 
z
" transform="scale(0.015625)"/>
       </defs>
       <use xlink:href="#ArialMT-2212"/>
       <use xlink:href="#ArialMT-32" x="58.398438"/>
      </g>
     </g>
    </g>
    <g id="xtick_3">
     <g id="line2d_3">
      <path d="M 326.25125 339.84 
L 326.25125 7.2 
" clip-path="url(#pd80e80e691)" style="fill: none; stroke: #ffffff; stroke-linecap: round"/>
     </g>
     <g id="text_3">
      <!-- 0 -->
      <g style="fill: #262626" transform="translate(323.192734 357.213594) scale(0.11 -0.11)">
       <defs>
        <path id="ArialMT-30" d="M 266 2259 
Q 266 3072 433 3567 
Q 600 4063 929 4331 
Q 1259 4600 1759 4600 
Q 2128 4600 2406 4451 
Q 2684 4303 2865 4023 
Q 3047 3744 3150 3342 
Q 3253 2941 3253 2259 
Q 3253 1453 3087 958 
Q 2922 463 2592 192 
Q 2263 -78 1759 -78 
Q 1097 -78 719 397 
Q 266 969 266 2259 
z
M 844 2259 
Q 844 1131 1108 757 
Q 1372 384 1759 384 
Q 2147 384 2411 759 
Q 2675 1134 2675 2259 
Q 2675 3391 2411 3762 
Q 2147 4134 1753 4134 
Q 1366 4134 1134 3806 
Q 844 3388 844 2259 
z
" transform="scale(0.015625)"/>
       </defs>
       <use xlink:href="#ArialMT-30"/>
      </g>
     </g>
    </g>
    <g id="xtick_4">
     <g id="line2d_4">
      <path d="M 427.705795 339.84 
L 427.705795 7.2 
" clip-path="url(#pd80e80e691)" style="fill: none; stroke: #ffffff; stroke-linecap: round"/>
     </g>
     <g id="text_4">
      <!-- 2 -->
      <g style="fill: #262626" transform="translate(424.64728 357.213594) scale(0.11 -0.11)">
       <use xlink:href="#ArialMT-32"/>
      </g>
     </g>
    </g>
    <g id="xtick_5">
     <g id="line2d_5">
      <path d="M 529.160341 339.84 
L 529.160341 7.2 
" clip-path="url(#pd80e80e691)" style="fill: none; stroke: #ffffff; stroke-linecap: round"/>
     </g>
     <g id="text_5">
      <!-- 4 -->
      <g style="fill: #262626" transform="translate(526.101825 357.213594) scale(0.11 -0.11)">
       <use xlink:href="#ArialMT-34"/>
      </g>
     </g>
    </g>
    <g id="text_6">
     <!-- x -->
     <g style="fill: #262626" transform="translate(323.25125 371.989219) scale(0.12 -0.12)">
      <defs>
       <path id="ArialMT-78" d="M 47 0 
L 1259 1725 
L 138 3319 
L 841 3319 
L 1350 2541 
Q 1494 2319 1581 2169 
Q 1719 2375 1834 2534 
L 2394 3319 
L 3066 3319 
L 1919 1756 
L 3153 0 
L 2463 0 
L 1781 1031 
L 1600 1309 
L 728 0 
L 47 0 
z
" transform="scale(0.015625)"/>
      </defs>
      <use xlink:href="#ArialMT-78"/>
     </g>
    </g>
   </g>
   <g id="matplotlib.axis_2">
    <g id="ytick_1">
     <g id="line2d_6">
      <path d="M 47.25125 327.745227 
L 605.25125 327.745227 
" clip-path="url(#pd80e80e691)" style="fill: none; stroke: #ffffff; stroke-linecap: round"/>
     </g>
     <g id="text_7">
      <!-- 0.0 -->
      <g style="fill: #262626" transform="translate(22.46125 331.682023) scale(0.11 -0.11)">
       <defs>
        <path id="ArialMT-2e" d="M 581 0 
L 581 641 
L 1222 641 
L 1222 0 
L 581 0 
z
" transform="scale(0.015625)"/>
       </defs>
       <use xlink:href="#ArialMT-30"/>
       <use xlink:href="#ArialMT-2e" x="55.615234"/>
       <use xlink:href="#ArialMT-30" x="83.398438"/>
      </g>
     </g>
    </g>
    <g id="ytick_2">
     <g id="line2d_7">
      <path d="M 47.25125 279.749877 
L 605.25125 279.749877 
" clip-path="url(#pd80e80e691)" style="fill: none; stroke: #ffffff; stroke-linecap: round"/>
     </g>
     <g id="text_8">
      <!-- 0.1 -->
      <g style="fill: #262626" transform="translate(22.46125 283.686674) scale(0.11 -0.11)">
       <defs>
        <path id="ArialMT-31" d="M 2384 0 
L 1822 0 
L 1822 3584 
Q 1619 3391 1289 3197 
Q 959 3003 697 2906 
L 697 3450 
Q 1169 3672 1522 3987 
Q 1875 4303 2022 4600 
L 2384 4600 
L 2384 0 
z
" transform="scale(0.015625)"/>
       </defs>
       <use xlink:href="#ArialMT-30"/>
       <use xlink:href="#ArialMT-2e" x="55.615234"/>
       <use xlink:href="#ArialMT-31" x="83.398438"/>
      </g>
     </g>
    </g>
    <g id="ytick_3">
     <g id="line2d_8">
      <path d="M 47.25125 231.754527 
L 605.25125 231.754527 
" clip-path="url(#pd80e80e691)" style="fill: none; stroke: #ffffff; stroke-linecap: round"/>
     </g>
     <g id="text_9">
      <!-- 0.2 -->
      <g style="fill: #262626" transform="translate(22.46125 235.691324) scale(0.11 -0.11)">
       <use xlink:href="#ArialMT-30"/>
       <use xlink:href="#ArialMT-2e" x="55.615234"/>
       <use xlink:href="#ArialMT-32" x="83.398438"/>
      </g>
     </g>
    </g>
    <g id="ytick_4">
     <g id="line2d_9">
      <path d="M 47.25125 183.759177 
L 605.25125 183.759177 
" clip-path="url(#pd80e80e691)" style="fill: none; stroke: #ffffff; stroke-linecap: round"/>
     </g>
     <g id="text_10">
      <!-- 0.3 -->
      <g style="fill: #262626" transform="translate(22.46125 187.695974) scale(0.11 -0.11)">
       <defs>
        <path id="ArialMT-33" d="M 269 1209 
L 831 1284 
Q 928 806 1161 595 
Q 1394 384 1728 384 
Q 2125 384 2398 659 
Q 2672 934 2672 1341 
Q 2672 1728 2419 1979 
Q 2166 2231 1775 2231 
Q 1616 2231 1378 2169 
L 1441 2663 
Q 1497 2656 1531 2656 
Q 1891 2656 2178 2843 
Q 2466 3031 2466 3422 
Q 2466 3731 2256 3934 
Q 2047 4138 1716 4138 
Q 1388 4138 1169 3931 
Q 950 3725 888 3313 
L 325 3413 
Q 428 3978 793 4289 
Q 1159 4600 1703 4600 
Q 2078 4600 2393 4439 
Q 2709 4278 2876 4000 
Q 3044 3722 3044 3409 
Q 3044 3113 2884 2869 
Q 2725 2625 2413 2481 
Q 2819 2388 3044 2092 
Q 3269 1797 3269 1353 
Q 3269 753 2831 336 
Q 2394 -81 1725 -81 
Q 1122 -81 723 278 
Q 325 638 269 1209 
z
" transform="scale(0.015625)"/>
       </defs>
       <use xlink:href="#ArialMT-30"/>
       <use xlink:href="#ArialMT-2e" x="55.615234"/>
       <use xlink:href="#ArialMT-33" x="83.398438"/>
      </g>
     </g>
    </g>
    <g id="ytick_5">
     <g id="line2d_10">
      <path d="M 47.25125 135.763827 
L 605.25125 135.763827 
" clip-path="url(#pd80e80e691)" style="fill: none; stroke: #ffffff; stroke-linecap: round"/>
     </g>
     <g id="text_11">
      <!-- 0.4 -->
      <g style="fill: #262626" transform="translate(22.46125 139.700624) scale(0.11 -0.11)">
       <use xlink:href="#ArialMT-30"/>
       <use xlink:href="#ArialMT-2e" x="55.615234"/>
       <use xlink:href="#ArialMT-34" x="83.398438"/>
      </g>
     </g>
    </g>
    <g id="ytick_6">
     <g id="line2d_11">
      <path d="M 47.25125 87.768477 
L 605.25125 87.768477 
" clip-path="url(#pd80e80e691)" style="fill: none; stroke: #ffffff; stroke-linecap: round"/>
     </g>
     <g id="text_12">
      <!-- 0.5 -->
      <g style="fill: #262626" transform="translate(22.46125 91.705274) scale(0.11 -0.11)">
       <defs>
        <path id="ArialMT-35" d="M 266 1200 
L 856 1250 
Q 922 819 1161 601 
Q 1400 384 1738 384 
Q 2144 384 2425 690 
Q 2706 997 2706 1503 
Q 2706 1984 2436 2262 
Q 2166 2541 1728 2541 
Q 1456 2541 1237 2417 
Q 1019 2294 894 2097 
L 366 2166 
L 809 4519 
L 3088 4519 
L 3088 3981 
L 1259 3981 
L 1013 2750 
Q 1425 3038 1878 3038 
Q 2478 3038 2890 2622 
Q 3303 2206 3303 1553 
Q 3303 931 2941 478 
Q 2500 -78 1738 -78 
Q 1113 -78 717 272 
Q 322 622 266 1200 
z
" transform="scale(0.015625)"/>
       </defs>
       <use xlink:href="#ArialMT-30"/>
       <use xlink:href="#ArialMT-2e" x="55.615234"/>
       <use xlink:href="#ArialMT-35" x="83.398438"/>
      </g>
     </g>
    </g>
    <g id="ytick_7">
     <g id="line2d_12">
      <path d="M 47.25125 39.773128 
L 605.25125 39.773128 
" clip-path="url(#pd80e80e691)" style="fill: none; stroke: #ffffff; stroke-linecap: round"/>
     </g>
     <g id="text_13">
      <!-- 0.6 -->
      <g style="fill: #262626" transform="translate(22.46125 43.709924) scale(0.11 -0.11)">
       <defs>
        <path id="ArialMT-36" d="M 3184 3459 
L 2625 3416 
Q 2550 3747 2413 3897 
Q 2184 4138 1850 4138 
Q 1581 4138 1378 3988 
Q 1113 3794 959 3422 
Q 806 3050 800 2363 
Q 1003 2672 1297 2822 
Q 1591 2972 1913 2972 
Q 2475 2972 2870 2558 
Q 3266 2144 3266 1488 
Q 3266 1056 3080 686 
Q 2894 316 2569 119 
Q 2244 -78 1831 -78 
Q 1128 -78 684 439 
Q 241 956 241 2144 
Q 241 3472 731 4075 
Q 1159 4600 1884 4600 
Q 2425 4600 2770 4297 
Q 3116 3994 3184 3459 
z
M 888 1484 
Q 888 1194 1011 928 
Q 1134 663 1356 523 
Q 1578 384 1822 384 
Q 2178 384 2434 671 
Q 2691 959 2691 1453 
Q 2691 1928 2437 2201 
Q 2184 2475 1800 2475 
Q 1419 2475 1153 2201 
Q 888 1928 888 1484 
z
" transform="scale(0.015625)"/>
       </defs>
       <use xlink:href="#ArialMT-30"/>
       <use xlink:href="#ArialMT-2e" x="55.615234"/>
       <use xlink:href="#ArialMT-36" x="83.398438"/>
      </g>
     </g>
    </g>
    <g id="text_14">
     <!-- f(x) -->
     <g style="fill: #262626" transform="translate(15.935625 182.1825) rotate(-90) scale(0.12 -0.12)">
      <defs>
       <path id="ArialMT-66" d="M 556 0 
L 556 2881 
L 59 2881 
L 59 3319 
L 556 3319 
L 556 3672 
Q 556 4006 616 4169 
Q 697 4388 901 4523 
Q 1106 4659 1475 4659 
Q 1713 4659 2000 4603 
L 1916 4113 
Q 1741 4144 1584 4144 
Q 1328 4144 1222 4034 
Q 1116 3925 1116 3625 
L 1116 3319 
L 1763 3319 
L 1763 2881 
L 1116 2881 
L 1116 0 
L 556 0 
z
" transform="scale(0.015625)"/>
       <path id="ArialMT-28" d="M 1497 -1347 
Q 1031 -759 709 28 
Q 388 816 388 1659 
Q 388 2403 628 3084 
Q 909 3875 1497 4659 
L 1900 4659 
Q 1522 4009 1400 3731 
Q 1209 3300 1100 2831 
Q 966 2247 966 1656 
Q 966 153 1900 -1347 
L 1497 -1347 
z
" transform="scale(0.015625)"/>
       <path id="ArialMT-29" d="M 791 -1347 
L 388 -1347 
Q 1322 153 1322 1656 
Q 1322 2244 1188 2822 
Q 1081 3291 891 3722 
Q 769 4003 388 4659 
L 791 4659 
Q 1378 3875 1659 3084 
Q 1900 2403 1900 1659 
Q 1900 816 1576 28 
Q 1253 -759 791 -1347 
z
" transform="scale(0.015625)"/>
      </defs>
      <use xlink:href="#ArialMT-66"/>
      <use xlink:href="#ArialMT-28" x="27.783203"/>
      <use xlink:href="#ArialMT-78" x="61.083984"/>
      <use xlink:href="#ArialMT-29" x="111.083984"/>
     </g>
    </g>
   </g>
   <g id="line2d_13">
    <path d="M 72.614886 324.72 
L 99.04593 323.984371 
L 120.394081 323.176165 
L 137.675918 322.315898 
L 152.924597 321.339477 
L 166.140119 320.265335 
L 177.322483 319.132754 
L 186.471691 318.00552 
L 194.60432 316.809389 
L 202.736949 315.382056 
L 209.852999 313.894811 
L 215.952471 312.399674 
L 222.051942 310.653974 
L 227.134835 308.966574 
L 232.217728 307.022985 
L 236.284043 305.248492 
L 240.350357 303.243051 
L 244.416672 300.966267 
L 248.482986 298.368919 
L 251.532722 296.174747 
L 254.582458 293.736154 
L 257.632194 291.0174 
L 260.68193 287.976427 
L 263.731665 284.563612 
L 266.781401 280.720267 
L 269.831137 276.376867 
L 271.864294 273.163352 
L 273.897451 269.663181 
L 275.930609 265.844919 
L 277.963766 261.673439 
L 279.996923 257.109576 
L 282.03008 252.109822 
L 284.063238 246.626079 
L 286.096395 240.605561 
L 288.129552 233.990901 
L 290.162709 226.720624 
L 292.195867 218.730152 
L 294.229024 209.9536 
L 296.262181 200.3267 
L 298.295338 189.791298 
L 300.328495 178.301935 
L 302.361653 165.835102 
L 305.411388 145.339216 
L 308.461124 122.949736 
L 316.593753 60.886361 
L 318.62691 47.518895 
L 320.660068 36.357107 
L 321.676646 31.823665 
L 322.693225 28.094066 
L 323.709803 25.234583 
L 324.726382 23.297748 
L 325.742961 22.32 
L 326.759539 22.32 
L 327.776118 23.297748 
L 328.792697 25.234583 
L 329.809275 28.094066 
L 330.825854 31.823665 
L 331.842432 36.357107 
L 332.859011 41.617196 
L 334.892168 53.972446 
L 336.925325 68.170099 
L 339.975061 91.393897 
L 345.057954 130.591735 
L 348.10769 152.401705 
L 351.157426 172.190997 
L 353.190583 184.167975 
L 355.22374 195.175795 
L 357.256898 205.250287 
L 359.290055 214.444235 
L 361.323212 222.819527 
L 363.356369 230.441694 
L 365.389527 237.376253 
L 367.422684 243.686399 
L 369.455841 249.431638 
L 371.488998 254.667082 
L 373.522155 259.44317 
L 375.555313 263.805681 
L 377.58847 267.795917 
L 379.621627 271.450981 
L 382.671363 276.376867 
L 385.721099 280.720267 
L 388.770835 284.563612 
L 391.82057 287.976427 
L 394.870306 291.0174 
L 397.920042 293.736154 
L 400.969778 296.174747 
L 404.019514 298.368919 
L 408.085828 300.966267 
L 412.152143 303.243051 
L 416.218457 305.248492 
L 420.284772 307.022985 
L 425.367665 308.966574 
L 430.450558 310.653974 
L 435.533451 312.127508 
L 441.632922 313.660976 
L 448.748973 315.184477 
L 455.865023 316.476365 
L 463.997652 317.725377 
L 473.146859 318.899646 
L 483.312646 319.979488 
L 495.511589 321.034837 
L 508.727111 321.953863 
L 524.992369 322.848449 
L 543.290784 323.628673 
L 565.655513 324.353733 
L 579.887614 324.72 
L 579.887614 324.72 
" clip-path="url(#pd80e80e691)" style="fill: none; stroke: #0173b2; stroke-width: 1.5; stroke-linecap: round"/>
   </g>
   <g id="line2d_14">
    <path d="M 72.614886 321.869306 
L 92.946459 320.848801 
L 110.228295 319.761208 
L 125.476974 318.577927 
L 138.692496 317.331705 
L 149.874861 316.073479 
L 160.040647 314.727457 
L 169.189854 313.314085 
L 178.339062 311.667269 
L 186.471691 309.966014 
L 193.587741 308.257338 
L 200.703791 306.304404 
L 206.803263 304.401917 
L 212.902735 302.25253 
L 217.985628 300.243672 
L 223.068521 298.007819 
L 228.151414 295.513379 
L 233.234307 292.724094 
L 237.300621 290.252727 
L 241.366936 287.542501 
L 245.43325 284.567313 
L 249.499565 281.298759 
L 253.565879 277.706337 
L 257.632194 273.757913 
L 261.698508 269.420559 
L 265.764823 264.661936 
L 269.831137 259.452428 
L 273.897451 253.768289 
L 277.963766 247.596089 
L 282.03008 240.938728 
L 286.096395 233.823195 
L 291.179288 224.380615 
L 299.311917 208.579292 
L 304.39481 198.891858 
L 307.444546 193.43247 
L 310.494282 188.414669 
L 312.527439 185.390573 
L 314.560596 182.676222 
L 316.593753 180.314872 
L 318.62691 178.346247 
L 320.660068 176.804988 
L 322.693225 175.719199 
L 323.709803 175.35379 
L 324.726382 175.109207 
L 325.742961 174.98662 
L 326.759539 174.98662 
L 327.776118 175.109207 
L 328.792697 175.35379 
L 329.809275 175.719199 
L 331.842432 176.804988 
L 333.87559 178.346247 
L 335.908747 180.314872 
L 337.941904 182.676222 
L 339.975061 185.390573 
L 342.008218 188.414669 
L 345.057954 193.43247 
L 348.10769 198.891858 
L 353.190583 208.579292 
L 363.356369 228.220692 
L 367.422684 235.642394 
L 371.488998 242.647571 
L 375.555313 249.185082 
L 379.621627 255.234782 
L 383.687942 260.798511 
L 387.754256 265.892777 
L 391.82057 270.543155 
L 395.886885 274.780192 
L 399.953199 278.636541 
L 404.019514 282.145036 
L 408.085828 285.337465 
L 412.152143 288.243838 
L 416.218457 290.891994 
L 420.284772 293.307449 
L 425.367665 296.034623 
L 430.450558 298.474602 
L 435.533451 300.662669 
L 440.616344 302.629545 
L 446.715815 304.735145 
L 452.815287 306.599971 
L 459.931337 308.51544 
L 467.047388 310.192436 
L 475.180017 311.863274 
L 483.312646 313.314085 
L 492.461853 314.727457 
L 502.627639 316.073479 
L 513.810004 317.331705 
L 527.025526 318.577927 
L 541.257626 319.689521 
L 557.522884 320.732602 
L 575.821299 321.683928 
L 579.887614 321.869306 
L 579.887614 321.869306 
" clip-path="url(#pd80e80e691)" style="fill: none; stroke: #de8f05; stroke-width: 1.5; stroke-linecap: round"/>
   </g>
   <g id="line2d_15">
    <path d="M 72.614886 317.209093 
L 89.896723 315.860481 
L 105.145402 314.459622 
L 119.377503 312.93535 
L 132.593024 311.295226 
L 144.791968 309.553557 
L 155.974333 307.732298 
L 166.140119 305.861462 
L 176.305905 303.757008 
L 185.455112 301.638243 
L 194.60432 299.282487 
L 202.736949 296.970679 
L 210.869578 294.437826 
L 219.002206 291.670934 
L 227.134835 288.66139 
L 235.267464 285.407719 
L 243.400093 281.919181 
L 252.549301 277.745043 
L 263.731665 272.382016 
L 282.03008 263.553641 
L 289.146131 260.370293 
L 295.245602 257.88324 
L 300.328495 256.039619 
L 305.411388 254.450811 
L 309.477703 253.390679 
L 313.544017 252.538081 
L 317.610332 251.908374 
L 321.676646 251.513244 
L 325.742961 251.360172 
L 329.809275 251.452089 
L 333.87559 251.787233 
L 337.941904 252.359235 
L 342.008218 253.157416 
L 346.074533 254.167281 
L 351.157426 255.700113 
L 356.240319 257.496203 
L 361.323212 259.512266 
L 367.422684 262.159169 
L 375.555313 265.951905 
L 408.085828 281.467619 
L 416.218457 284.98416 
L 424.351086 288.267962 
L 432.483715 291.308123 
L 440.616344 294.104992 
L 448.748973 296.666457 
L 456.881602 299.005088 
L 466.030809 301.388625 
L 475.180017 303.532564 
L 484.329224 305.460199 
L 494.49501 307.375444 
L 505.677375 309.239391 
L 516.85974 310.881755 
L 529.058683 312.455579 
L 542.274205 313.941371 
L 556.506306 315.326212 
L 572.771563 316.681415 
L 579.887614 317.209093 
L 579.887614 317.209093 
" clip-path="url(#pd80e80e691)" style="fill: none; stroke: #029e73; stroke-width: 1.5; stroke-linecap: round"/>
   </g>
   <g id="line2d_16">
    <path d="M 72.614886 312.467832 
L 80.747515 310.889791 
L 87.863566 309.309305 
L 94.979616 307.507818 
L 101.079087 305.757431 
L 107.178559 303.784741 
L 113.278031 301.55368 
L 118.360924 299.466471 
L 123.443817 297.141398 
L 128.52671 294.54525 
L 132.593024 292.247756 
L 136.659339 289.730592 
L 140.725653 286.969536 
L 144.791968 283.938019 
L 148.858282 280.607193 
L 152.924597 276.946182 
L 156.990911 272.922611 
L 161.057226 268.503539 
L 165.12354 263.656973 
L 169.189854 258.354182 
L 173.256169 252.57308 
L 177.322483 246.302968 
L 181.388798 239.550887 
L 185.455112 232.349724 
L 190.538005 222.825171 
L 204.770106 195.571693 
L 207.819842 190.359027 
L 210.869578 185.67978 
L 212.902735 182.932464 
L 214.935892 180.533955 
L 216.969049 178.524403 
L 219.002206 176.939024 
L 221.035364 175.806637 
L 222.051942 175.417254 
L 223.068521 175.148393 
L 224.0851 175.001341 
L 225.101678 174.976805 
L 226.118257 175.074902 
L 227.134835 175.295162 
L 228.151414 175.636527 
L 230.184571 176.675513 
L 232.217728 178.17237 
L 234.250886 180.09972 
L 236.284043 182.423514 
L 238.3172 185.104465 
L 240.350357 188.099602 
L 243.400093 193.082532 
L 246.449829 198.517164 
L 250.516143 206.212801 
L 263.731665 231.607177 
L 267.79798 238.850163 
L 271.864294 245.649138 
L 275.930609 251.968121 
L 279.996923 257.79788 
L 284.063238 263.147654 
L 288.129552 268.038629 
L 292.195867 272.499043 
L 296.262181 276.560683 
L 300.328495 280.256475 
L 304.39481 283.6189 
L 308.461124 286.679014 
L 312.527439 289.465882 
L 316.593753 292.006306 
L 320.660068 294.324744 
L 325.742961 296.944154 
L 330.825854 299.28963 
L 335.908747 301.394751 
L 340.99164 303.288725 
L 347.091112 305.318248 
L 353.190583 307.117592 
L 360.306633 308.967867 
L 367.422684 310.589687 
L 375.555313 312.207498 
L 384.70452 313.776716 
L 393.853728 315.126225 
L 404.019514 316.413997 
L 416.218457 317.720464 
L 429.433979 318.90092 
L 444.682658 320.025222 
L 461.964495 321.061882 
L 481.279488 321.99412 
L 503.644218 322.851283 
L 530.075262 323.640249 
L 561.589199 324.356276 
L 579.887614 324.689748 
L 579.887614 324.689748 
" clip-path="url(#pd80e80e691)" style="fill: none; stroke: #d55e00; stroke-width: 1.5; stroke-linecap: round"/>
   </g>
   <g id="patch_3">
    <path d="M 47.25125 339.84 
L 47.25125 7.2 
" style="fill: none; stroke: #ffffff; stroke-width: 1.25; stroke-linejoin: miter; stroke-linecap: square"/>
   </g>
   <g id="patch_4">
    <path d="M 605.25125 339.84 
L 605.25125 7.2 
" style="fill: none; stroke: #ffffff; stroke-width: 1.25; stroke-linejoin: miter; stroke-linecap: square"/>
   </g>
   <g id="patch_5">
    <path d="M 47.25125 339.84 
L 605.25125 339.84 
" style="fill: none; stroke: #ffffff; stroke-width: 1.25; stroke-linejoin: miter; stroke-linecap: square"/>
   </g>
   <g id="patch_6">
    <path d="M 47.25125 7.2 
L 605.25125 7.2 
" style="fill: none; stroke: #ffffff; stroke-width: 1.25; stroke-linejoin: miter; stroke-linecap: square"/>
   </g>
   <g id="legend_1">
    <g id="patch_7">
     <path d="M 483.59125 78.48 
L 597.55125 78.48 
Q 599.75125 78.48 599.75125 76.28 
L 599.75125 14.9 
Q 599.75125 12.7 597.55125 12.7 
L 483.59125 12.7 
Q 481.39125 12.7 481.39125 14.9 
L 481.39125 76.28 
Q 481.39125 78.48 483.59125 78.48 
z
" style="fill: #eaeaf2; opacity: 0.8; stroke: #cccccc; stroke-linejoin: miter"/>
    </g>
    <g id="line2d_17">
     <path d="M 485.79125 21.17 
L 496.79125 21.17 
L 507.79125 21.17 
" style="fill: none; stroke: #0173b2; stroke-width: 1.5; stroke-linecap: round"/>
    </g>
    <g id="text_15">
     <!-- $\alpha$ = 0.0, $\beta$ = 0.5 -->
     <g style="fill: #262626" transform="translate(516.59125 25.02) scale(0.11 -0.11)">
      <defs>
       <path id="Cmmi10-ae" d="M 1288 -72 
Q 984 -72 748 72 
Q 513 216 384 459 
Q 256 703 256 1013 
Q 256 1447 498 1872 
Q 741 2297 1142 2562 
Q 1544 2828 1984 2828 
Q 2309 2828 2556 2658 
Q 2803 2488 2931 2205 
Q 3059 1922 3059 1600 
L 3066 1172 
Q 3284 1475 3436 1801 
Q 3588 2128 3669 2478 
Q 3681 2516 3719 2516 
L 3794 2516 
Q 3853 2516 3853 2456 
Q 3853 2450 3847 2438 
Q 3772 2144 3659 1873 
Q 3547 1603 3395 1350 
Q 3244 1097 3066 891 
Q 3066 97 3250 97 
Q 3369 97 3445 167 
Q 3522 238 3580 341 
Q 3638 444 3653 447 
L 3731 447 
Q 3781 447 3781 384 
Q 3781 225 3598 76 
Q 3416 -72 3238 -72 
Q 3006 -72 2853 78 
Q 2700 228 2644 469 
Q 2344 213 1994 70 
Q 1644 -72 1288 -72 
z
M 1300 97 
Q 1984 97 2613 659 
Q 2609 697 2603 751 
Q 2597 806 2597 813 
L 2597 1503 
Q 2597 2663 1972 2663 
Q 1597 2663 1315 2342 
Q 1034 2022 892 1576 
Q 750 1131 750 763 
Q 750 484 892 290 
Q 1034 97 1300 97 
z
" transform="scale(0.015625)"/>
       <path id="ArialMT-20" transform="scale(0.015625)"/>
       <path id="ArialMT-3d" d="M 3381 2694 
L 356 2694 
L 356 3219 
L 3381 3219 
L 3381 2694 
z
M 3381 1303 
L 356 1303 
L 356 1828 
L 3381 1828 
L 3381 1303 
z
" transform="scale(0.015625)"/>
       <path id="ArialMT-2c" d="M 569 0 
L 569 641 
L 1209 641 
L 1209 0 
Q 1209 -353 1084 -570 
Q 959 -788 688 -906 
L 531 -666 
Q 709 -588 793 -436 
Q 878 -284 888 0 
L 569 0 
z
" transform="scale(0.015625)"/>
       <path id="Cmmi10-af" d="M 172 -1241 
Q 153 -1241 137 -1219 
Q 122 -1197 122 -1178 
L 1106 2778 
Q 1191 3097 1353 3397 
Q 1516 3697 1761 3955 
Q 2006 4213 2300 4363 
Q 2594 4513 2925 4513 
Q 3163 4513 3355 4408 
Q 3547 4303 3658 4114 
Q 3769 3925 3769 3688 
Q 3769 3459 3681 3251 
Q 3594 3044 3437 2864 
Q 3281 2684 3103 2572 
Q 3206 2506 3287 2404 
Q 3369 2303 3419 2192 
Q 3469 2081 3497 1945 
Q 3525 1809 3525 1691 
Q 3525 1363 3384 1044 
Q 3244 725 3001 465 
Q 2759 206 2446 54 
Q 2134 -97 1806 -97 
Q 1447 -97 1159 100 
Q 872 297 763 634 
L 300 -1203 
Q 300 -1241 250 -1241 
L 172 -1241 
z
M 1819 78 
Q 2106 78 2339 267 
Q 2572 456 2723 742 
Q 2875 1028 2954 1348 
Q 3034 1669 3034 1931 
Q 3034 2256 2847 2444 
Q 2628 2363 2419 2363 
Q 1913 2363 1913 2534 
Q 1913 2759 2491 2759 
Q 2697 2759 2869 2694 
Q 3006 2800 3118 3006 
Q 3231 3213 3289 3438 
Q 3347 3663 3347 3859 
Q 3347 4069 3236 4208 
Q 3125 4347 2913 4347 
Q 2522 4347 2186 4106 
Q 1850 3866 1619 3498 
Q 1388 3131 1288 2741 
L 934 1325 
Q 900 1178 891 997 
Q 891 597 1153 337 
Q 1416 78 1819 78 
z
M 2106 2553 
Q 2203 2528 2425 2528 
Q 2534 2528 2644 2566 
Q 2638 2572 2619 2572 
Q 2550 2591 2472 2591 
Q 2181 2591 2106 2553 
z
" transform="scale(0.015625)"/>
      </defs>
      <use xlink:href="#Cmmi10-ae" transform="translate(0 0.125)"/>
      <use xlink:href="#ArialMT-20" transform="translate(63.916016 0.125)"/>
      <use xlink:href="#ArialMT-3d" transform="translate(91.699219 0.125)"/>
      <use xlink:href="#ArialMT-20" transform="translate(150.097656 0.125)"/>
      <use xlink:href="#ArialMT-30" transform="translate(177.880859 0.125)"/>
      <use xlink:href="#ArialMT-2e" transform="translate(233.496094 0.125)"/>
      <use xlink:href="#ArialMT-30" transform="translate(261.279297 0.125)"/>
      <use xlink:href="#ArialMT-2c" transform="translate(316.894531 0.125)"/>
      <use xlink:href="#ArialMT-20" transform="translate(344.677734 0.125)"/>
      <use xlink:href="#Cmmi10-af" transform="translate(372.460938 0.125)"/>
      <use xlink:href="#ArialMT-20" transform="translate(428.955078 0.125)"/>
      <use xlink:href="#ArialMT-3d" transform="translate(456.738281 0.125)"/>
      <use xlink:href="#ArialMT-20" transform="translate(515.136719 0.125)"/>
      <use xlink:href="#ArialMT-30" transform="translate(542.919922 0.125)"/>
      <use xlink:href="#ArialMT-2e" transform="translate(598.535156 0.125)"/>
      <use xlink:href="#ArialMT-35" transform="translate(626.318359 0.125)"/>
     </g>
    </g>
    <g id="line2d_18">
     <path d="M 485.79125 36.79 
L 496.79125 36.79 
L 507.79125 36.79 
" style="fill: none; stroke: #de8f05; stroke-width: 1.5; stroke-linecap: round"/>
    </g>
    <g id="text_16">
     <!-- $\alpha$ = 0.0, $\beta$ = 1.0 -->
     <g style="fill: #262626" transform="translate(516.59125 40.64) scale(0.11 -0.11)">
      <use xlink:href="#Cmmi10-ae" transform="translate(0 0.125)"/>
      <use xlink:href="#ArialMT-20" transform="translate(63.916016 0.125)"/>
      <use xlink:href="#ArialMT-3d" transform="translate(91.699219 0.125)"/>
      <use xlink:href="#ArialMT-20" transform="translate(150.097656 0.125)"/>
      <use xlink:href="#ArialMT-30" transform="translate(177.880859 0.125)"/>
      <use xlink:href="#ArialMT-2e" transform="translate(233.496094 0.125)"/>
      <use xlink:href="#ArialMT-30" transform="translate(261.279297 0.125)"/>
      <use xlink:href="#ArialMT-2c" transform="translate(316.894531 0.125)"/>
      <use xlink:href="#ArialMT-20" transform="translate(344.677734 0.125)"/>
      <use xlink:href="#Cmmi10-af" transform="translate(372.460938 0.125)"/>
      <use xlink:href="#ArialMT-20" transform="translate(428.955078 0.125)"/>
      <use xlink:href="#ArialMT-3d" transform="translate(456.738281 0.125)"/>
      <use xlink:href="#ArialMT-20" transform="translate(515.136719 0.125)"/>
      <use xlink:href="#ArialMT-31" transform="translate(542.919922 0.125)"/>
      <use xlink:href="#ArialMT-2e" transform="translate(598.535156 0.125)"/>
      <use xlink:href="#ArialMT-30" transform="translate(626.318359 0.125)"/>
     </g>
    </g>
    <g id="line2d_19">
     <path d="M 485.79125 52.41 
L 496.79125 52.41 
L 507.79125 52.41 
" style="fill: none; stroke: #029e73; stroke-width: 1.5; stroke-linecap: round"/>
    </g>
    <g id="text_17">
     <!-- $\alpha$ = 0.0, $\beta$ = 2.0 -->
     <g style="fill: #262626" transform="translate(516.59125 56.26) scale(0.11 -0.11)">
      <use xlink:href="#Cmmi10-ae" transform="translate(0 0.125)"/>
      <use xlink:href="#ArialMT-20" transform="translate(63.916016 0.125)"/>
      <use xlink:href="#ArialMT-3d" transform="translate(91.699219 0.125)"/>
      <use xlink:href="#ArialMT-20" transform="translate(150.097656 0.125)"/>
      <use xlink:href="#ArialMT-30" transform="translate(177.880859 0.125)"/>
      <use xlink:href="#ArialMT-2e" transform="translate(233.496094 0.125)"/>
      <use xlink:href="#ArialMT-30" transform="translate(261.279297 0.125)"/>
      <use xlink:href="#ArialMT-2c" transform="translate(316.894531 0.125)"/>
      <use xlink:href="#ArialMT-20" transform="translate(344.677734 0.125)"/>
      <use xlink:href="#Cmmi10-af" transform="translate(372.460938 0.125)"/>
      <use xlink:href="#ArialMT-20" transform="translate(428.955078 0.125)"/>
      <use xlink:href="#ArialMT-3d" transform="translate(456.738281 0.125)"/>
      <use xlink:href="#ArialMT-20" transform="translate(515.136719 0.125)"/>
      <use xlink:href="#ArialMT-32" transform="translate(542.919922 0.125)"/>
      <use xlink:href="#ArialMT-2e" transform="translate(598.535156 0.125)"/>
      <use xlink:href="#ArialMT-30" transform="translate(626.318359 0.125)"/>
     </g>
    </g>
    <g id="line2d_20">
     <path d="M 485.79125 68.03 
L 496.79125 68.03 
L 507.79125 68.03 
" style="fill: none; stroke: #d55e00; stroke-width: 1.5; stroke-linecap: round"/>
    </g>
    <g id="text_18">
     <!-- $\alpha$ = -2.0, $\beta$ = 1.0 -->
     <g style="fill: #262626" transform="translate(516.59125 71.88) scale(0.11 -0.11)">
      <defs>
       <path id="ArialMT-2d" d="M 203 1375 
L 203 1941 
L 1931 1941 
L 1931 1375 
L 203 1375 
z
" transform="scale(0.015625)"/>
      </defs>
      <use xlink:href="#Cmmi10-ae" transform="translate(0 0.125)"/>
      <use xlink:href="#ArialMT-20" transform="translate(63.916016 0.125)"/>
      <use xlink:href="#ArialMT-3d" transform="translate(91.699219 0.125)"/>
      <use xlink:href="#ArialMT-20" transform="translate(150.097656 0.125)"/>
      <use xlink:href="#ArialMT-2d" transform="translate(177.880859 0.125)"/>
      <use xlink:href="#ArialMT-32" transform="translate(211.181641 0.125)"/>
      <use xlink:href="#ArialMT-2e" transform="translate(266.796875 0.125)"/>
      <use xlink:href="#ArialMT-30" transform="translate(294.580078 0.125)"/>
      <use xlink:href="#ArialMT-2c" transform="translate(350.195312 0.125)"/>
      <use xlink:href="#ArialMT-20" transform="translate(377.978516 0.125)"/>
      <use xlink:href="#Cmmi10-af" transform="translate(405.761719 0.125)"/>
      <use xlink:href="#ArialMT-20" transform="translate(462.255859 0.125)"/>
      <use xlink:href="#ArialMT-3d" transform="translate(490.039062 0.125)"/>
      <use xlink:href="#ArialMT-20" transform="translate(548.4375 0.125)"/>
      <use xlink:href="#ArialMT-31" transform="translate(576.220703 0.125)"/>
      <use xlink:href="#ArialMT-2e" transform="translate(631.835938 0.125)"/>
      <use xlink:href="#ArialMT-30" transform="translate(659.619141 0.125)"/>
     </g>
    </g>
   </g>
  </g>
 </g>
 <defs>
  <clipPath id="pd80e80e691">
   <rect x="47.25125" y="7.2" width="558" height="332.64"/>
  </clipPath>
 </defs>
</svg>