<?xml version="1.0" encoding="UTF-8" standalone="no"?>
<!DOCTYPE svg PUBLIC "-//W3C//DTD SVG 1.1//EN"
 "http://www.w3.org/Graphics/SVG/1.1/DTD/svg11.dtd">
<!-- Generated by graphviz version 7.0.6 (20230106.0513)
 -->
<!-- Pages: 1 -->
<svg width="327pt" height="233pt"
 viewBox="0.00 0.00 327.44 232.91" xmlns="http://www.w3.org/2000/svg" xmlns:xlink="http://www.w3.org/1999/xlink">
<g id="graph0" class="graph" transform="scale(1 1) rotate(0) translate(4 228.91)">
<polygon fill="white" stroke="none" points="-4,4 -4,-228.91 323.44,-228.91 323.44,4 -4,4"/>
<g id="clust1" class="cluster">
<title>cluster100</title>
<path fill="none" stroke="black" d="M121.72,-8C121.72,-8 197.72,-8 197.72,-8 203.72,-8 209.72,-14 209.72,-20 209.72,-20 209.72,-109.95 209.72,-109.95 209.72,-115.95 203.72,-121.95 197.72,-121.95 197.72,-121.95 121.72,-121.95 121.72,-121.95 115.72,-121.95 109.72,-115.95 109.72,-109.95 109.72,-109.95 109.72,-20 109.72,-20 109.72,-14 115.72,-8 121.72,-8"/>
<text text-anchor="middle" x="191.22" y="-15.8" font-family="Times,serif" font-size="14.00">100</text>
</g>
<!-- beta -->
<g id="node1" class="node">
<title>beta</title>
<ellipse fill="none" stroke="black" cx="41.72" cy="-187.43" rx="41.94" ry="37.45"/>
<text text-anchor="middle" x="41.72" y="-198.73" font-family="Times,serif" font-size="14.00">beta</text>
<text text-anchor="middle" x="41.72" y="-183.73" font-family="Times,serif" font-size="14.00">~</text>
<text text-anchor="middle" x="41.72" y="-168.73" font-family="Times,serif" font-size="14.00">Normal</text>
</g>
<!-- Y_obs -->
<g id="node4" class="node">
<title>Y_obs</title>
<ellipse fill="lightgrey" stroke="black" cx="159.72" cy="-76.48" rx="41.94" ry="37.45"/>
<text text-anchor="middle" x="159.72" y="-87.78" font-family="Times,serif" font-size="14.00">Y_obs</text>
<text text-anchor="middle" x="159.72" y="-72.78" font-family="Times,serif" font-size="14.00">~</text>
<text text-anchor="middle" x="159.72" y="-57.78" font-family="Times,serif" font-size="14.00">Normal</text>
</g>
<!-- beta&#45;&gt;Y_obs -->
<g id="edge1" class="edge">
<title>beta&#45;&gt;Y_obs</title>
<path fill="none" stroke="black" d="M70.59,-159.78C86.42,-145.16 106.21,-126.89 123.11,-111.28"/>
<polygon fill="black" stroke="black" points="125.07,-114.24 130.04,-104.88 120.32,-109.09 125.07,-114.24"/>
</g>
<!-- sigma -->
<g id="node2" class="node">
<title>sigma</title>
<ellipse fill="none" stroke="black" cx="159.72" cy="-187.43" rx="58.88" ry="37.45"/>
<text text-anchor="middle" x="159.72" y="-198.73" font-family="Times,serif" font-size="14.00">sigma</text>
<text text-anchor="middle" x="159.72" y="-183.73" font-family="Times,serif" font-size="14.00">~</text>
<text text-anchor="middle" x="159.72" y="-168.73" font-family="Times,serif" font-size="14.00">HalfNormal</text>
</g>
<!-- sigma&#45;&gt;Y_obs -->
<g id="edge2" class="edge">
<title>sigma&#45;&gt;Y_obs</title>
<path fill="none" stroke="black" d="M159.72,-149.54C159.72,-141.91 159.72,-133.76 159.72,-125.79"/>
<polygon fill="black" stroke="black" points="163.22,-125.84 159.72,-115.84 156.22,-125.84 163.22,-125.84"/>
</g>
<!-- alpha -->
<g id="node3" class="node">
<title>alpha</title>
<ellipse fill="none" stroke="black" cx="277.72" cy="-187.43" rx="41.94" ry="37.45"/>
<text text-anchor="middle" x="277.72" y="-198.73" font-family="Times,serif" font-size="14.00">alpha</text>
<text text-anchor="middle" x="277.72" y="-183.73" font-family="Times,serif" font-size="14.00">~</text>
<text text-anchor="middle" x="277.72" y="-168.73" font-family="Times,serif" font-size="14.00">Normal</text>
</g>
<!-- alpha&#45;&gt;Y_obs -->
<g id="edge3" class="edge">
<title>alpha&#45;&gt;Y_obs</title>
<path fill="none" stroke="black" d="M248.85,-159.78C233.02,-145.16 213.23,-126.89 196.33,-111.28"/>
<polygon fill="black" stroke="black" points="199.12,-109.09 189.4,-104.88 194.37,-114.24 199.12,-109.09"/>
</g>
</g>
</svg>
