<?xml version="1.0" encoding="utf-8" standalone="no"?>
<!DOCTYPE svg PUBLIC "-//W3C//DTD SVG 1.1//EN"
  "http://www.w3.org/Graphics/SVG/1.1/DTD/svg11.dtd">
<svg xmlns:xlink="http://www.w3.org/1999/xlink" width="609.424062pt" height="366.599844pt" viewBox="0 0 609.424062 366.599844" xmlns="http://www.w3.org/2000/svg" version="1.1">
 <metadata>
  <rdf:RDF xmlns:dc="http://purl.org/dc/elements/1.1/" xmlns:cc="http://creativecommons.org/ns#" xmlns:rdf="http://www.w3.org/1999/02/22-rdf-syntax-ns#">
   <cc:Work>
    <dc:type rdf:resource="http://purl.org/dc/dcmitype/StillImage"/>
    <dc:date>2023-05-08T00:39:48.568043</dc:date>
    <dc:format>image/svg+xml</dc:format>
    <dc:creator>
     <cc:Agent>
      <dc:title>Matplotlib v3.7.1, https://matplotlib.org/</dc:title>
     </cc:Agent>
    </dc:creator>
   </cc:Work>
  </rdf:RDF>
 </metadata>
 <defs>
  <style type="text/css">*{stroke-linejoin: round; stroke-linecap: butt}</style>
 </defs>
 <g id="figure_1">
  <g id="patch_1">
   <path d="M 0 366.599844 
L 609.424062 366.599844 
L 609.424062 0 
L 0 0 
z
" style="fill: #ffffff"/>
  </g>
  <g id="axes_1">
   <g id="patch_2">
    <path d="M 44.224063 339.84 
L 602.224062 339.84 
L 602.224062 7.2 
L 44.224063 7.2 
z
" style="fill: #eaeaf2"/>
   </g>
   <g id="matplotlib.axis_1">
    <g id="xtick_1">
     <g id="line2d_1">
      <path d="M 97.769517 339.84 
L 97.769517 7.2 
" clip-path="url(#p12769a0122)" style="fill: none; stroke: #ffffff; stroke-linecap: round"/>
     </g>
     <g id="text_1">
      <!-- 60 -->
      <g style="fill: #262626" transform="translate(91.652486 357.213594) scale(0.11 -0.11)">
       <defs>
        <path id="ArialMT-36" d="M 3184 3459 
L 2625 3416 
Q 2550 3747 2413 3897 
Q 2184 4138 1850 4138 
Q 1581 4138 1378 3988 
Q 1113 3794 959 3422 
Q 806 3050 800 2363 
Q 1003 2672 1297 2822 
Q 1591 2972 1913 2972 
Q 2475 2972 2870 2558 
Q 3266 2144 3266 1488 
Q 3266 1056 3080 686 
Q 2894 316 2569 119 
Q 2244 -78 1831 -78 
Q 1128 -78 684 439 
Q 241 956 241 2144 
Q 241 3472 731 4075 
Q 1159 4600 1884 4600 
Q 2425 4600 2770 4297 
Q 3116 3994 3184 3459 
z
M 888 1484 
Q 888 1194 1011 928 
Q 1134 663 1356 523 
Q 1578 384 1822 384 
Q 2178 384 2434 671 
Q 2691 959 2691 1453 
Q 2691 1928 2437 2201 
Q 2184 2475 1800 2475 
Q 1419 2475 1153 2201 
Q 888 1928 888 1484 
z
" transform="scale(0.015625)"/>
        <path id="ArialMT-30" d="M 266 2259 
Q 266 3072 433 3567 
Q 600 4063 929 4331 
Q 1259 4600 1759 4600 
Q 2128 4600 2406 4451 
Q 2684 4303 2865 4023 
Q 3047 3744 3150 3342 
Q 3253 2941 3253 2259 
Q 3253 1453 3087 958 
Q 2922 463 2592 192 
Q 2263 -78 1759 -78 
Q 1097 -78 719 397 
Q 266 969 266 2259 
z
M 844 2259 
Q 844 1131 1108 757 
Q 1372 384 1759 384 
Q 2147 384 2411 759 
Q 2675 1134 2675 2259 
Q 2675 3391 2411 3762 
Q 2147 4134 1753 4134 
Q 1366 4134 1134 3806 
Q 844 3388 844 2259 
z
" transform="scale(0.015625)"/>
       </defs>
       <use xlink:href="#ArialMT-36"/>
       <use xlink:href="#ArialMT-30" x="55.615234"/>
      </g>
     </g>
    </g>
    <g id="xtick_2">
     <g id="line2d_2">
      <path d="M 210.49679 339.84 
L 210.49679 7.2 
" clip-path="url(#p12769a0122)" style="fill: none; stroke: #ffffff; stroke-linecap: round"/>
     </g>
     <g id="text_2">
      <!-- 80 -->
      <g style="fill: #262626" transform="translate(204.379759 357.213594) scale(0.11 -0.11)">
       <defs>
        <path id="ArialMT-38" d="M 1131 2484 
Q 781 2613 612 2850 
Q 444 3088 444 3419 
Q 444 3919 803 4259 
Q 1163 4600 1759 4600 
Q 2359 4600 2725 4251 
Q 3091 3903 3091 3403 
Q 3091 3084 2923 2848 
Q 2756 2613 2416 2484 
Q 2838 2347 3058 2040 
Q 3278 1734 3278 1309 
Q 3278 722 2862 322 
Q 2447 -78 1769 -78 
Q 1091 -78 675 323 
Q 259 725 259 1325 
Q 259 1772 486 2073 
Q 713 2375 1131 2484 
z
M 1019 3438 
Q 1019 3113 1228 2906 
Q 1438 2700 1772 2700 
Q 2097 2700 2305 2904 
Q 2513 3109 2513 3406 
Q 2513 3716 2298 3927 
Q 2084 4138 1766 4138 
Q 1444 4138 1231 3931 
Q 1019 3725 1019 3438 
z
M 838 1322 
Q 838 1081 952 856 
Q 1066 631 1291 507 
Q 1516 384 1775 384 
Q 2178 384 2440 643 
Q 2703 903 2703 1303 
Q 2703 1709 2433 1975 
Q 2163 2241 1756 2241 
Q 1359 2241 1098 1978 
Q 838 1716 838 1322 
z
" transform="scale(0.015625)"/>
       </defs>
       <use xlink:href="#ArialMT-38"/>
       <use xlink:href="#ArialMT-30" x="55.615234"/>
      </g>
     </g>
    </g>
    <g id="xtick_3">
     <g id="line2d_3">
      <path d="M 323.224062 339.84 
L 323.224062 7.2 
" clip-path="url(#p12769a0122)" style="fill: none; stroke: #ffffff; stroke-linecap: round"/>
     </g>
     <g id="text_3">
      <!-- 100 -->
      <g style="fill: #262626" transform="translate(314.048516 357.213594) scale(0.11 -0.11)">
       <defs>
        <path id="ArialMT-31" d="M 2384 0 
L 1822 0 
L 1822 3584 
Q 1619 3391 1289 3197 
Q 959 3003 697 2906 
L 697 3450 
Q 1169 3672 1522 3987 
Q 1875 4303 2022 4600 
L 2384 4600 
L 2384 0 
z
" transform="scale(0.015625)"/>
       </defs>
       <use xlink:href="#ArialMT-31"/>
       <use xlink:href="#ArialMT-30" x="55.615234"/>
       <use xlink:href="#ArialMT-30" x="111.230469"/>
      </g>
     </g>
    </g>
    <g id="xtick_4">
     <g id="line2d_4">
      <path d="M 435.951335 339.84 
L 435.951335 7.2 
" clip-path="url(#p12769a0122)" style="fill: none; stroke: #ffffff; stroke-linecap: round"/>
     </g>
     <g id="text_4">
      <!-- 120 -->
      <g style="fill: #262626" transform="translate(426.775788 357.213594) scale(0.11 -0.11)">
       <defs>
        <path id="ArialMT-32" d="M 3222 541 
L 3222 0 
L 194 0 
Q 188 203 259 391 
Q 375 700 629 1000 
Q 884 1300 1366 1694 
Q 2113 2306 2375 2664 
Q 2638 3022 2638 3341 
Q 2638 3675 2398 3904 
Q 2159 4134 1775 4134 
Q 1369 4134 1125 3890 
Q 881 3647 878 3216 
L 300 3275 
Q 359 3922 746 4261 
Q 1134 4600 1788 4600 
Q 2447 4600 2831 4234 
Q 3216 3869 3216 3328 
Q 3216 3053 3103 2787 
Q 2991 2522 2730 2228 
Q 2469 1934 1863 1422 
Q 1356 997 1212 845 
Q 1069 694 975 541 
L 3222 541 
z
" transform="scale(0.015625)"/>
       </defs>
       <use xlink:href="#ArialMT-31"/>
       <use xlink:href="#ArialMT-32" x="55.615234"/>
       <use xlink:href="#ArialMT-30" x="111.230469"/>
      </g>
     </g>
    </g>
    <g id="xtick_5">
     <g id="line2d_5">
      <path d="M 548.678608 339.84 
L 548.678608 7.2 
" clip-path="url(#p12769a0122)" style="fill: none; stroke: #ffffff; stroke-linecap: round"/>
     </g>
     <g id="text_5">
      <!-- 140 -->
      <g style="fill: #262626" transform="translate(539.503061 357.213594) scale(0.11 -0.11)">
       <defs>
        <path id="ArialMT-34" d="M 2069 0 
L 2069 1097 
L 81 1097 
L 81 1613 
L 2172 4581 
L 2631 4581 
L 2631 1613 
L 3250 1613 
L 3250 1097 
L 2631 1097 
L 2631 0 
L 2069 0 
z
M 2069 1613 
L 2069 3678 
L 634 1613 
L 2069 1613 
z
" transform="scale(0.015625)"/>
       </defs>
       <use xlink:href="#ArialMT-31"/>
       <use xlink:href="#ArialMT-34" x="55.615234"/>
       <use xlink:href="#ArialMT-30" x="111.230469"/>
      </g>
     </g>
    </g>
   </g>
   <g id="matplotlib.axis_2">
    <g id="ytick_1">
     <g id="line2d_6">
      <path d="M 44.224063 324.72 
L 602.224062 324.72 
" clip-path="url(#p12769a0122)" style="fill: none; stroke: #ffffff; stroke-linecap: round"/>
     </g>
     <g id="text_6">
      <!-- 0.000 -->
      <g style="fill: #262626" transform="translate(7.2 328.656797) scale(0.11 -0.11)">
       <defs>
        <path id="ArialMT-2e" d="M 581 0 
L 581 641 
L 1222 641 
L 1222 0 
L 581 0 
z
" transform="scale(0.015625)"/>
       </defs>
       <use xlink:href="#ArialMT-30"/>
       <use xlink:href="#ArialMT-2e" x="55.615234"/>
       <use xlink:href="#ArialMT-30" x="83.398438"/>
       <use xlink:href="#ArialMT-30" x="139.013672"/>
       <use xlink:href="#ArialMT-30" x="194.628906"/>
      </g>
     </g>
    </g>
    <g id="ytick_2">
     <g id="line2d_7">
      <path d="M 44.224063 267.869668 
L 602.224062 267.869668 
" clip-path="url(#p12769a0122)" style="fill: none; stroke: #ffffff; stroke-linecap: round"/>
     </g>
     <g id="text_7">
      <!-- 0.005 -->
      <g style="fill: #262626" transform="translate(7.2 271.806465) scale(0.11 -0.11)">
       <defs>
        <path id="ArialMT-35" d="M 266 1200 
L 856 1250 
Q 922 819 1161 601 
Q 1400 384 1738 384 
Q 2144 384 2425 690 
Q 2706 997 2706 1503 
Q 2706 1984 2436 2262 
Q 2166 2541 1728 2541 
Q 1456 2541 1237 2417 
Q 1019 2294 894 2097 
L 366 2166 
L 809 4519 
L 3088 4519 
L 3088 3981 
L 1259 3981 
L 1013 2750 
Q 1425 3038 1878 3038 
Q 2478 3038 2890 2622 
Q 3303 2206 3303 1553 
Q 3303 931 2941 478 
Q 2500 -78 1738 -78 
Q 1113 -78 717 272 
Q 322 622 266 1200 
z
" transform="scale(0.015625)"/>
       </defs>
       <use xlink:href="#ArialMT-30"/>
       <use xlink:href="#ArialMT-2e" x="55.615234"/>
       <use xlink:href="#ArialMT-30" x="83.398438"/>
       <use xlink:href="#ArialMT-30" x="139.013672"/>
       <use xlink:href="#ArialMT-35" x="194.628906"/>
      </g>
     </g>
    </g>
    <g id="ytick_3">
     <g id="line2d_8">
      <path d="M 44.224063 211.019336 
L 602.224062 211.019336 
" clip-path="url(#p12769a0122)" style="fill: none; stroke: #ffffff; stroke-linecap: round"/>
     </g>
     <g id="text_8">
      <!-- 0.010 -->
      <g style="fill: #262626" transform="translate(7.2 214.956133) scale(0.11 -0.11)">
       <use xlink:href="#ArialMT-30"/>
       <use xlink:href="#ArialMT-2e" x="55.615234"/>
       <use xlink:href="#ArialMT-30" x="83.398438"/>
       <use xlink:href="#ArialMT-31" x="139.013672"/>
       <use xlink:href="#ArialMT-30" x="194.628906"/>
      </g>
     </g>
    </g>
    <g id="ytick_4">
     <g id="line2d_9">
      <path d="M 44.224063 154.169005 
L 602.224062 154.169005 
" clip-path="url(#p12769a0122)" style="fill: none; stroke: #ffffff; stroke-linecap: round"/>
     </g>
     <g id="text_9">
      <!-- 0.015 -->
      <g style="fill: #262626" transform="translate(7.2 158.105801) scale(0.11 -0.11)">
       <use xlink:href="#ArialMT-30"/>
       <use xlink:href="#ArialMT-2e" x="55.615234"/>
       <use xlink:href="#ArialMT-30" x="83.398438"/>
       <use xlink:href="#ArialMT-31" x="139.013672"/>
       <use xlink:href="#ArialMT-35" x="194.628906"/>
      </g>
     </g>
    </g>
    <g id="ytick_5">
     <g id="line2d_10">
      <path d="M 44.224063 97.318673 
L 602.224062 97.318673 
" clip-path="url(#p12769a0122)" style="fill: none; stroke: #ffffff; stroke-linecap: round"/>
     </g>
     <g id="text_10">
      <!-- 0.020 -->
      <g style="fill: #262626" transform="translate(7.2 101.25547) scale(0.11 -0.11)">
       <use xlink:href="#ArialMT-30"/>
       <use xlink:href="#ArialMT-2e" x="55.615234"/>
       <use xlink:href="#ArialMT-30" x="83.398438"/>
       <use xlink:href="#ArialMT-32" x="139.013672"/>
       <use xlink:href="#ArialMT-30" x="194.628906"/>
      </g>
     </g>
    </g>
    <g id="ytick_6">
     <g id="line2d_11">
      <path d="M 44.224063 40.468341 
L 602.224062 40.468341 
" clip-path="url(#p12769a0122)" style="fill: none; stroke: #ffffff; stroke-linecap: round"/>
     </g>
     <g id="text_11">
      <!-- 0.025 -->
      <g style="fill: #262626" transform="translate(7.2 44.405138) scale(0.11 -0.11)">
       <use xlink:href="#ArialMT-30"/>
       <use xlink:href="#ArialMT-2e" x="55.615234"/>
       <use xlink:href="#ArialMT-30" x="83.398438"/>
       <use xlink:href="#ArialMT-32" x="139.013672"/>
       <use xlink:href="#ArialMT-35" x="194.628906"/>
      </g>
     </g>
    </g>
   </g>
   <g id="PolyCollection_1">
    <defs>
     <path id="me04d59cdf2" d="M 492.340338 -41.879844 
L 492.340338 -82.780683 
L 492.39107 -82.731612 
L 492.441802 -82.682585 
L 492.492535 -82.633602 
L 492.543267 -82.584663 
L 492.593999 -82.535769 
L 492.644732 -82.486918 
L 492.695464 -82.438112 
L 492.746197 -82.38935 
L 492.796929 -82.340631 
L 492.847661 -82.291957 
L 492.898394 -82.243327 
L 492.949126 -82.194741 
L 492.999858 -82.146199 
L 493.050591 -82.097701 
L 493.101323 -82.049246 
L 493.152055 -82.000836 
L 493.202788 -81.95247 
L 493.25352 -81.904147 
L 493.304252 -81.855868 
L 493.354985 -81.807634 
L 493.405717 -81.759443 
L 493.456449 -81.711296 
L 493.507182 -81.663192 
L 493.557914 -81.615133 
L 493.608646 -81.567117 
L 493.659379 -81.519145 
L 493.710111 -81.471217 
L 493.760843 -81.423332 
L 493.811576 -81.375491 
L 493.862308 -81.327694 
L 493.91304 -81.27994 
L 493.963773 -81.23223 
L 494.014505 -81.184564 
L 494.065238 -81.136941 
L 494.11597 -81.089362 
L 494.166702 -81.041827 
L 494.217435 -80.994335 
L 494.268167 -80.946886 
L 494.318899 -80.899481 
L 494.369632 -80.85212 
L 494.420364 -80.804802 
L 494.471096 -80.757527 
L 494.521829 -80.710296 
L 494.572561 -80.663108 
L 494.623293 -80.615964 
L 494.674026 -80.568863 
L 494.724758 -80.521806 
L 494.77549 -80.474791 
L 494.826223 -80.427821 
L 494.876955 -80.380893 
L 494.927687 -80.334009 
L 494.97842 -80.287168 
L 495.029152 -80.24037 
L 495.079884 -80.193615 
L 495.130617 -80.146904 
L 495.181349 -80.100236 
L 495.232081 -80.05361 
L 495.282814 -80.007029 
L 495.333546 -79.96049 
L 495.384279 -79.913994 
L 495.435011 -79.867542 
L 495.485743 -79.821132 
L 495.536476 -79.774766 
L 495.587208 -79.728442 
L 495.63794 -79.682162 
L 495.688673 -79.635925 
L 495.739405 -79.58973 
L 495.790137 -79.543579 
L 495.84087 -79.49747 
L 495.891602 -79.451405 
L 495.942334 -79.405382 
L 495.993067 -79.359402 
L 496.043799 -79.313465 
L 496.094531 -79.267571 
L 496.145264 -79.22172 
L 496.195996 -79.175911 
L 496.246728 -79.130146 
L 496.297461 -79.084423 
L 496.348193 -79.038742 
L 496.398925 -78.993105 
L 496.449658 -78.94751 
L 496.50039 -78.901958 
L 496.551122 -78.856449 
L 496.601855 -78.810982 
L 496.652587 -78.765558 
L 496.70332 -78.720176 
L 496.754052 -78.674837 
L 496.804784 -78.629541 
L 496.855517 -78.584287 
L 496.906249 -78.539076 
L 496.956981 -78.493907 
L 497.007714 -78.44878 
L 497.058446 -78.403697 
L 497.109178 -78.358655 
L 497.159911 -78.313656 
L 497.210643 -78.2687 
L 497.261375 -78.223785 
L 497.312108 -78.178913 
L 497.36284 -78.134084 
L 497.413572 -78.089297 
L 497.464305 -78.044552 
L 497.515037 -77.999849 
L 497.565769 -77.955189 
L 497.616502 -77.910571 
L 497.667234 -77.865995 
L 497.717966 -77.821462 
L 497.768699 -77.77697 
L 497.819431 -77.732521 
L 497.870163 -77.688114 
L 497.920896 -77.643749 
L 497.971628 -77.599426 
L 498.022361 -77.555145 
L 498.073093 -77.510906 
L 498.123825 -77.46671 
L 498.174558 -77.422555 
L 498.22529 -77.378442 
L 498.276022 -77.334371 
L 498.326755 -77.290343 
L 498.377487 -77.246356 
L 498.428219 -77.202411 
L 498.478952 -77.158508 
L 498.529684 -77.114647 
L 498.580416 -77.070828 
L 498.631149 -77.02705 
L 498.681881 -76.983315 
L 498.732613 -76.939621 
L 498.783346 -76.895969 
L 498.834078 -76.852359 
L 498.88481 -76.80879 
L 498.935543 -76.765263 
L 498.986275 -76.721778 
L 499.037007 -76.678335 
L 499.08774 -76.634933 
L 499.138472 -76.591573 
L 499.189204 -76.548255 
L 499.239937 -76.504978 
L 499.290669 -76.461742 
L 499.341402 -76.418548 
L 499.392134 -76.375396 
L 499.442866 -76.332285 
L 499.493599 -76.289216 
L 499.544331 -76.246188 
L 499.595063 -76.203202 
L 499.645796 -76.160257 
L 499.696528 -76.117354 
L 499.74726 -76.074491 
L 499.797993 -76.031671 
L 499.848725 -75.988891 
L 499.899457 -75.946153 
L 499.95019 -75.903456 
L 500.000922 -75.860801 
L 500.051654 -75.818186 
L 500.102387 -75.775613 
L 500.153119 -75.733081 
L 500.203851 -75.690591 
L 500.254584 -75.648141 
L 500.305316 -75.605733 
L 500.356048 -75.563366 
L 500.406781 -75.52104 
L 500.457513 -75.478755 
L 500.508245 -75.436511 
L 500.558978 -75.394308 
L 500.60971 -75.352146 
L 500.660443 -75.310025 
L 500.711175 -75.267945 
L 500.761907 -75.225906 
L 500.81264 -75.183908 
L 500.863372 -75.141951 
L 500.914104 -75.100035 
L 500.964837 -75.05816 
L 501.015569 -75.016326 
L 501.066301 -74.974532 
L 501.117034 -74.932779 
L 501.167766 -74.891067 
L 501.218498 -74.849396 
L 501.269231 -74.807765 
L 501.319963 -74.766176 
L 501.370695 -74.724627 
L 501.421428 -74.683118 
L 501.47216 -74.641651 
L 501.522892 -74.600223 
L 501.573625 -74.558837 
L 501.624357 -74.517491 
L 501.675089 -74.476186 
L 501.725822 -74.434921 
L 501.776554 -74.393697 
L 501.827286 -74.352513 
L 501.878019 -74.31137 
L 501.928751 -74.270267 
L 501.979483 -74.229205 
L 502.030216 -74.188183 
L 502.080948 -74.147202 
L 502.131681 -74.106261 
L 502.182413 -74.06536 
L 502.233145 -74.024499 
L 502.283878 -73.983679 
L 502.33461 -73.9429 
L 502.385342 -73.90216 
L 502.436075 -73.861461 
L 502.486807 -73.820802 
L 502.537539 -73.780183 
L 502.588272 -73.739604 
L 502.639004 -73.699066 
L 502.689736 -73.658567 
L 502.740469 -73.618109 
L 502.791201 -73.577691 
L 502.841933 -73.537313 
L 502.892666 -73.496975 
L 502.943398 -73.456677 
L 502.99413 -73.416419 
L 503.044863 -73.376201 
L 503.095595 -73.336023 
L 503.146327 -73.295885 
L 503.19706 -73.255787 
L 503.247792 -73.215728 
L 503.298524 -73.17571 
L 503.349257 -73.135731 
L 503.399989 -73.095793 
L 503.450722 -73.055894 
L 503.501454 -73.016034 
L 503.552186 -72.976215 
L 503.602919 -72.936435 
L 503.653651 -72.896696 
L 503.704383 -72.856995 
L 503.755116 -72.817335 
L 503.805848 -72.777714 
L 503.85658 -72.738133 
L 503.907313 -72.698591 
L 503.958045 -72.659089 
L 504.008777 -72.619626 
L 504.05951 -72.580203 
L 504.110242 -72.54082 
L 504.160974 -72.501476 
L 504.211707 -72.462172 
L 504.262439 -72.422907 
L 504.313171 -72.383681 
L 504.363904 -72.344495 
L 504.414636 -72.305348 
L 504.465368 -72.266241 
L 504.516101 -72.227173 
L 504.566833 -72.188144 
L 504.617565 -72.149154 
L 504.668298 -72.110204 
L 504.71903 -72.071293 
L 504.769763 -72.032421 
L 504.820495 -71.993589 
L 504.871227 -71.954795 
L 504.92196 -71.916041 
L 504.972692 -71.877326 
L 505.023424 -71.83865 
L 505.074157 -71.800013 
L 505.124889 -71.761416 
L 505.175621 -71.722857 
L 505.226354 -71.684337 
L 505.277086 -71.645856 
L 505.327818 -71.607415 
L 505.378551 -71.569012 
L 505.429283 -71.530648 
L 505.480015 -71.492323 
L 505.530748 -71.454037 
L 505.58148 -71.41579 
L 505.632212 -71.377582 
L 505.682945 -71.339412 
L 505.733677 -71.301281 
L 505.784409 -71.26319 
L 505.835142 -71.225136 
L 505.885874 -71.187122 
L 505.936606 -71.149146 
L 505.987339 -71.111209 
L 506.038071 -71.073311 
L 506.088804 -71.035451 
L 506.139536 -70.99763 
L 506.190268 -70.959847 
L 506.241001 -70.922103 
L 506.291733 -70.884398 
L 506.342465 -70.846731 
L 506.393198 -70.809102 
L 506.44393 -70.771512 
L 506.494662 -70.733961 
L 506.545395 -70.696448 
L 506.596127 -70.658973 
L 506.646859 -70.621537 
L 506.697592 -70.584139 
L 506.748324 -70.546779 
L 506.799056 -70.509458 
L 506.849789 -70.472175 
L 506.900521 -70.43493 
L 506.951253 -70.397724 
L 507.001986 -70.360556 
L 507.052718 -70.323426 
L 507.10345 -70.286334 
L 507.154183 -70.24928 
L 507.204915 -70.212265 
L 507.255647 -70.175287 
L 507.30638 -70.138348 
L 507.357112 -70.101446 
L 507.407845 -70.064583 
L 507.458577 -70.027758 
L 507.509309 -69.990971 
L 507.560042 -69.954221 
L 507.610774 -69.91751 
L 507.661506 -69.880837 
L 507.712239 -69.844201 
L 507.762971 -69.807603 
L 507.813703 -69.771044 
L 507.864436 -69.734522 
L 507.915168 -69.698037 
L 507.9659 -69.661591 
L 508.016633 -69.625182 
L 508.067365 -69.588812 
L 508.118097 -69.552478 
L 508.16883 -69.516183 
L 508.219562 -69.479925 
L 508.270294 -69.443705 
L 508.321027 -69.407522 
L 508.371759 -69.371378 
L 508.422491 -69.33527 
L 508.473224 -69.2992 
L 508.523956 -69.263168 
L 508.574688 -69.227173 
L 508.625421 -69.191216 
L 508.676153 -69.155296 
L 508.726886 -69.119414 
L 508.777618 -69.083569 
L 508.82835 -69.047761 
L 508.879083 -69.011991 
L 508.929815 -68.976258 
L 508.980547 -68.940562 
L 509.03128 -68.904904 
L 509.082012 -68.869283 
L 509.132744 -68.833699 
L 509.183477 -68.798153 
L 509.234209 -68.762643 
L 509.284941 -68.727171 
L 509.335674 -68.691736 
L 509.386406 -68.656338 
L 509.437138 -68.620977 
L 509.487871 -68.585653 
L 509.538603 -68.550367 
L 509.589335 -68.515117 
L 509.640068 -68.479905 
L 509.6908 -68.444729 
L 509.741532 -68.40959 
L 509.792265 -68.374488 
L 509.842997 -68.339424 
L 509.893729 -68.304396 
L 509.944462 -68.269405 
L 509.995194 -68.23445 
L 510.045927 -68.199533 
L 510.096659 -68.164652 
L 510.147391 -68.129809 
L 510.198124 -68.095002 
L 510.248856 -68.060231 
L 510.299588 -68.025498 
L 510.350321 -67.990801 
L 510.401053 -67.95614 
L 510.451785 -67.921517 
L 510.502518 -67.88693 
L 510.55325 -67.852379 
L 510.603982 -67.817865 
L 510.654715 -67.783388 
L 510.705447 -67.748947 
L 510.756179 -67.714543 
L 510.806912 -67.680175 
L 510.857644 -67.645843 
L 510.908376 -67.611548 
L 510.959109 -67.577289 
L 511.009841 -67.543067 
L 511.060573 -67.508881 
L 511.111306 -67.474732 
L 511.162038 -67.440618 
L 511.21277 -67.406541 
L 511.263503 -67.3725 
L 511.314235 -67.338496 
L 511.364967 -67.304527 
L 511.4157 -67.270595 
L 511.466432 -67.236699 
L 511.517165 -67.202839 
L 511.567897 -67.169016 
L 511.618629 -67.135228 
L 511.669362 -67.101476 
L 511.720094 -67.067761 
L 511.770826 -67.034081 
L 511.821559 -67.000437 
L 511.872291 -66.96683 
L 511.923023 -66.933258 
L 511.973756 -66.899722 
L 512.024488 -66.866222 
L 512.07522 -66.832758 
L 512.125953 -66.79933 
L 512.176685 -66.765938 
L 512.227417 -66.732581 
L 512.27815 -66.699261 
L 512.328882 -66.665976 
L 512.379614 -66.632726 
L 512.430347 -66.599513 
L 512.481079 -66.566335 
L 512.531811 -66.533192 
L 512.582544 -66.500086 
L 512.633276 -66.467015 
L 512.684008 -66.433979 
L 512.734741 -66.400979 
L 512.785473 -66.368015 
L 512.836206 -66.335086 
L 512.886938 -66.302193 
L 512.93767 -66.269335 
L 512.988403 -66.236512 
L 513.039135 -66.203725 
L 513.089867 -66.170974 
L 513.1406 -66.138257 
L 513.191332 -66.105576 
L 513.242064 -66.072931 
L 513.292797 -66.04032 
L 513.343529 -66.007745 
L 513.394261 -65.975205 
L 513.444994 -65.942701 
L 513.495726 -65.910231 
L 513.546458 -65.877797 
L 513.597191 -65.845398 
L 513.647923 -65.813034 
L 513.698655 -65.780705 
L 513.749388 -65.748411 
L 513.80012 -65.716153 
L 513.850852 -65.683929 
L 513.901585 -65.65174 
L 513.952317 -65.619586 
L 514.003049 -65.587468 
L 514.053782 -65.555384 
L 514.104514 -65.523335 
L 514.155247 -65.491321 
L 514.205979 -65.459342 
L 514.256711 -65.427397 
L 514.307444 -65.395488 
L 514.358176 -65.363613 
L 514.408908 -65.331773 
L 514.459641 -65.299967 
L 514.510373 -65.268197 
L 514.561105 -65.236461 
L 514.611838 -65.20476 
L 514.66257 -65.173093 
L 514.713302 -65.141461 
L 514.764035 -65.109864 
L 514.814767 -65.078301 
L 514.865499 -65.046773 
L 514.916232 -65.015279 
L 514.966964 -64.98382 
L 515.017696 -64.952395 
L 515.068429 -64.921005 
L 515.119161 -64.889649 
L 515.169893 -64.858327 
L 515.220626 -64.82704 
L 515.271358 -64.795787 
L 515.32209 -64.764569 
L 515.372823 -64.733384 
L 515.423555 -64.702235 
L 515.474288 -64.671119 
L 515.52502 -64.640038 
L 515.575752 -64.60899 
L 515.626485 -64.577977 
L 515.677217 -64.546998 
L 515.727949 -64.516054 
L 515.778682 -64.485143 
L 515.829414 -64.454266 
L 515.880146 -64.423424 
L 515.930879 -64.392615 
L 515.981611 -64.361841 
L 516.032343 -64.3311 
L 516.083076 -64.300394 
L 516.133808 -64.269721 
L 516.18454 -64.239083 
L 516.235273 -64.208478 
L 516.286005 -64.177907 
L 516.336737 -64.14737 
L 516.38747 -64.116867 
L 516.438202 -64.086397 
L 516.488934 -64.055961 
L 516.539667 -64.025559 
L 516.590399 -63.995191 
L 516.641131 -63.964856 
L 516.691864 -63.934556 
L 516.742596 -63.904288 
L 516.793329 -63.874055 
L 516.844061 -63.843855 
L 516.894793 -63.813688 
L 516.945526 -63.783555 
L 516.996258 -63.753456 
L 517.04699 -63.72339 
L 517.097723 -63.693357 
L 517.148455 -63.663358 
L 517.199187 -63.633393 
L 517.24992 -63.603461 
L 517.300652 -63.573562 
L 517.351384 -63.543696 
L 517.402117 -63.513864 
L 517.452849 -63.484065 
L 517.503581 -63.4543 
L 517.554314 -63.424567 
L 517.605046 -63.394868 
L 517.655778 -63.365203 
L 517.706511 -63.33557 
L 517.757243 -63.30597 
L 517.807975 -63.276404 
L 517.858708 -63.246871 
L 517.90944 -63.21737 
L 517.960172 -63.187903 
L 518.010905 -63.158469 
L 518.061637 -63.129068 
L 518.11237 -63.0997 
L 518.163102 -63.070365 
L 518.213834 -63.041062 
L 518.264567 -63.011793 
L 518.315299 -62.982557 
L 518.366031 -62.953353 
L 518.416764 -62.924182 
L 518.467496 -62.895044 
L 518.518228 -62.865939 
L 518.568961 -62.836867 
L 518.619693 -62.807827 
L 518.670425 -62.77882 
L 518.721158 -62.749846 
L 518.77189 -62.720904 
L 518.822622 -62.691995 
L 518.873355 -62.663119 
L 518.924087 -62.634275 
L 518.974819 -62.605464 
L 519.025552 -62.576686 
L 519.076284 -62.547939 
L 519.127016 -62.519226 
L 519.177749 -62.490545 
L 519.228481 -62.461896 
L 519.279213 -62.43328 
L 519.329946 -62.404696 
L 519.380678 -62.376144 
L 519.431411 -62.347625 
L 519.482143 -62.319138 
L 519.532875 -62.290684 
L 519.583608 -62.262262 
L 519.63434 -62.233872 
L 519.685072 -62.205514 
L 519.735805 -62.177188 
L 519.786537 -62.148895 
L 519.837269 -62.120633 
L 519.888002 -62.092404 
L 519.938734 -62.064207 
L 519.989466 -62.036042 
L 520.040199 -62.007909 
L 520.090931 -61.979809 
L 520.141663 -61.95174 
L 520.192396 -61.923703 
L 520.243128 -61.895698 
L 520.29386 -61.867725 
L 520.344593 -61.839784 
L 520.395325 -61.811875 
L 520.446057 -61.783997 
L 520.49679 -61.756152 
L 520.547522 -61.728338 
L 520.598254 -61.700556 
L 520.648987 -61.672806 
L 520.699719 -61.645087 
L 520.750452 -61.617401 
L 520.801184 -61.589746 
L 520.851916 -61.562122 
L 520.902649 -61.534531 
L 520.953381 -61.50697 
L 521.004113 -61.479442 
L 521.054846 -61.451945 
L 521.105578 -61.424479 
L 521.15631 -61.397046 
L 521.207043 -61.369643 
L 521.257775 -61.342272 
L 521.308507 -61.314933 
L 521.35924 -61.287625 
L 521.409972 -61.260348 
L 521.460704 -61.233102 
L 521.511437 -61.205888 
L 521.562169 -61.178706 
L 521.612901 -61.151554 
L 521.663634 -61.124434 
L 521.714366 -61.097345 
L 521.765098 -61.070288 
L 521.815831 -61.043261 
L 521.866563 -61.016266 
L 521.917295 -60.989302 
L 521.968028 -60.962369 
L 522.01876 -60.935467 
L 522.069492 -60.908596 
L 522.120225 -60.881756 
L 522.170957 -60.854947 
L 522.22169 -60.82817 
L 522.272422 -60.801423 
L 522.323154 -60.774707 
L 522.373887 -60.748022 
L 522.424619 -60.721368 
L 522.475351 -60.694745 
L 522.526084 -60.668153 
L 522.576816 -60.641591 
L 522.627548 -60.615061 
L 522.678281 -60.588561 
L 522.729013 -60.562092 
L 522.779745 -60.535653 
L 522.830478 -60.509245 
L 522.88121 -60.482868 
L 522.931942 -60.456522 
L 522.982675 -60.430206 
L 523.033407 -60.403921 
L 523.084139 -60.377667 
L 523.134872 -60.351443 
L 523.185604 -60.325249 
L 523.236336 -60.299087 
L 523.287069 -60.272954 
L 523.337801 -60.246852 
L 523.388533 -60.220781 
L 523.439266 -60.19474 
L 523.489998 -60.168729 
L 523.540731 -60.142748 
L 523.591463 -60.116798 
L 523.642195 -60.090879 
L 523.692928 -60.064989 
L 523.74366 -60.03913 
L 523.794392 -60.013301 
L 523.845125 -59.987503 
L 523.895857 -59.961734 
L 523.946589 -59.935996 
L 523.997322 -59.910288 
L 524.048054 -59.88461 
L 524.098786 -59.858962 
L 524.149519 -59.833344 
L 524.200251 -59.807756 
L 524.250983 -59.782198 
L 524.301716 -59.75667 
L 524.352448 -59.731172 
L 524.40318 -59.705704 
L 524.453913 -59.680266 
L 524.504645 -59.654858 
L 524.555377 -59.62948 
L 524.60611 -59.604132 
L 524.656842 -59.578813 
L 524.707574 -59.553525 
L 524.758307 -59.528266 
L 524.809039 -59.503037 
L 524.859772 -59.477837 
L 524.910504 -59.452667 
L 524.961236 -59.427527 
L 525.011969 -59.402417 
L 525.062701 -59.377336 
L 525.113433 -59.352285 
L 525.164166 -59.327263 
L 525.214898 -59.302271 
L 525.26563 -59.277309 
L 525.316363 -59.252376 
L 525.367095 -59.227472 
L 525.417827 -59.202598 
L 525.46856 -59.177754 
L 525.519292 -59.152938 
L 525.570024 -59.128153 
L 525.620757 -59.103396 
L 525.671489 -59.078669 
L 525.722221 -59.053971 
L 525.772954 -59.029303 
L 525.823686 -59.004664 
L 525.874418 -58.980054 
L 525.925151 -58.955473 
L 525.975883 -58.930921 
L 526.026615 -58.906399 
L 526.077348 -58.881906 
L 526.12808 -58.857442 
L 526.178813 -58.833007 
L 526.229545 -58.808601 
L 526.280277 -58.784224 
L 526.33101 -58.759876 
L 526.381742 -58.735557 
L 526.432474 -58.711267 
L 526.483207 -58.687006 
L 526.533939 -58.662774 
L 526.584671 -58.638571 
L 526.635404 -58.614397 
L 526.686136 -58.590251 
L 526.736868 -58.566135 
L 526.787601 -58.542047 
L 526.838333 -58.517988 
L 526.889065 -58.493958 
L 526.939798 -58.469956 
L 526.99053 -58.445983 
L 527.041262 -58.422039 
L 527.091995 -58.398124 
L 527.142727 -58.374237 
L 527.193459 -58.350379 
L 527.244192 -58.326549 
L 527.294924 -58.302748 
L 527.345656 -58.278976 
L 527.396389 -58.255232 
L 527.447121 -58.231516 
L 527.497854 -58.207829 
L 527.548586 -58.184171 
L 527.599318 -58.160541 
L 527.650051 -58.136939 
L 527.700783 -58.113365 
L 527.751515 -58.08982 
L 527.802248 -58.066304 
L 527.85298 -58.042815 
L 527.903712 -58.019355 
L 527.954445 -57.995923 
L 528.005177 -57.972519 
L 528.055909 -57.949144 
L 528.106642 -57.925797 
L 528.157374 -57.902477 
L 528.208106 -57.879186 
L 528.258839 -57.855923 
L 528.309571 -57.832689 
L 528.360303 -57.809482 
L 528.411036 -57.786303 
L 528.461768 -57.763152 
L 528.5125 -57.740029 
L 528.563233 -57.716935 
L 528.613965 -57.693868 
L 528.664697 -57.670829 
L 528.71543 -57.647818 
L 528.766162 -57.624835 
L 528.816895 -57.601879 
L 528.867627 -57.578952 
L 528.918359 -57.556052 
L 528.969092 -57.53318 
L 529.019824 -57.510336 
L 529.070556 -57.487519 
L 529.121289 -57.46473 
L 529.172021 -57.441969 
L 529.222753 -57.419235 
L 529.273486 -57.39653 
L 529.324218 -57.373851 
L 529.37495 -57.3512 
L 529.425683 -57.328577 
L 529.476415 -57.305982 
L 529.527147 -57.283413 
L 529.57788 -57.260873 
L 529.628612 -57.23836 
L 529.679344 -57.215874 
L 529.730077 -57.193415 
L 529.780809 -57.170984 
L 529.831541 -57.148581 
L 529.882274 -57.126204 
L 529.933006 -57.103855 
L 529.983738 -57.081534 
L 530.034471 -57.059239 
L 530.085203 -57.036972 
L 530.135936 -57.014732 
L 530.186668 -56.992519 
L 530.2374 -56.970334 
L 530.288133 -56.948175 
L 530.338865 -56.926044 
L 530.389597 -56.903939 
L 530.44033 -56.881862 
L 530.491062 -56.859812 
L 530.541794 -56.837789 
L 530.592527 -56.815793 
L 530.643259 -56.793824 
L 530.693991 -56.771881 
L 530.744724 -56.749966 
L 530.795456 -56.728078 
L 530.846188 -56.706216 
L 530.896921 -56.684382 
L 530.947653 -56.662574 
L 530.998385 -56.640793 
L 531.049118 -56.619039 
L 531.09985 -56.597311 
L 531.150582 -56.575611 
L 531.201315 -56.553937 
L 531.252047 -56.532289 
L 531.302779 -56.510669 
L 531.353512 -56.489075 
L 531.404244 -56.467507 
L 531.454977 -56.445966 
L 531.505709 -56.424452 
L 531.556441 -56.402964 
L 531.607174 -56.381503 
L 531.657906 -56.360069 
L 531.708638 -56.338661 
L 531.759371 -56.317279 
L 531.810103 -56.295924 
L 531.860835 -56.274595 
L 531.911568 -56.253292 
L 531.9623 -56.232016 
L 532.013032 -56.210766 
L 532.063765 -56.189543 
L 532.114497 -56.168345 
L 532.165229 -56.147174 
L 532.215962 -56.12603 
L 532.266694 -56.104911 
L 532.317426 -56.083819 
L 532.368159 -56.062753 
L 532.418891 -56.041713 
L 532.469623 -56.020699 
L 532.520356 -55.999711 
L 532.571088 -55.978749 
L 532.62182 -55.957814 
L 532.672553 -55.936904 
L 532.723285 -55.916021 
L 532.774017 -55.895163 
L 532.82475 -55.874331 
L 532.875482 -55.853525 
L 532.926215 -55.832746 
L 532.976947 -55.811992 
L 533.027679 -55.791263 
L 533.078412 -55.770561 
L 533.129144 -55.749885 
L 533.179876 -55.729234 
L 533.230609 -55.708609 
L 533.281341 -55.68801 
L 533.332073 -55.667437 
L 533.382806 -55.646889 
L 533.433538 -55.626367 
L 533.48427 -55.60587 
L 533.535003 -55.5854 
L 533.585735 -55.564954 
L 533.636467 -55.544535 
L 533.6872 -55.524141 
L 533.737932 -55.503772 
L 533.788664 -55.483429 
L 533.839397 -55.463112 
L 533.890129 -55.44282 
L 533.940861 -55.422553 
L 533.991594 -55.402312 
L 534.042326 -55.382096 
L 534.093058 -55.361905 
L 534.143791 -55.34174 
L 534.194523 -55.321601 
L 534.245256 -55.301486 
L 534.295988 -55.281397 
L 534.34672 -55.261333 
L 534.397453 -55.241294 
L 534.448185 -55.221281 
L 534.498917 -55.201292 
L 534.54965 -55.181329 
L 534.600382 -55.161391 
L 534.651114 -55.141478 
L 534.701847 -55.12159 
L 534.752579 -55.101727 
L 534.803311 -55.08189 
L 534.854044 -55.062077 
L 534.904776 -55.042289 
L 534.955508 -55.022526 
L 535.006241 -55.002788 
L 535.056973 -54.983075 
L 535.107705 -54.963387 
L 535.158438 -54.943724 
L 535.20917 -54.924086 
L 535.259902 -54.904473 
L 535.310635 -54.884884 
L 535.361367 -54.86532 
L 535.412099 -54.845781 
L 535.462832 -54.826267 
L 535.513564 -54.806777 
L 535.564297 -54.787312 
L 535.615029 -54.767872 
L 535.665761 -54.748456 
L 535.716494 -54.729065 
L 535.767226 -54.709699 
L 535.817958 -54.690357 
L 535.868691 -54.67104 
L 535.919423 -54.651747 
L 535.970155 -54.632479 
L 536.020888 -54.613235 
L 536.07162 -54.594016 
L 536.122352 -54.574821 
L 536.173085 -54.55565 
L 536.223817 -54.536504 
L 536.274549 -54.517383 
L 536.325282 -54.498285 
L 536.376014 -54.479212 
L 536.426746 -54.460164 
L 536.477479 -54.441139 
L 536.528211 -54.422139 
L 536.578943 -54.403163 
L 536.629676 -54.384211 
L 536.680408 -54.365284 
L 536.73114 -54.34638 
L 536.781873 -54.327501 
L 536.832605 -54.308646 
L 536.883338 -54.289815 
L 536.93407 -54.271008 
L 536.984802 -54.252225 
L 537.035535 -54.233466 
L 537.086267 -54.214731 
L 537.136999 -54.19602 
L 537.187732 -54.177333 
L 537.238464 -54.15867 
L 537.289196 -54.140031 
L 537.339929 -54.121416 
L 537.390661 -54.102824 
L 537.441393 -54.084257 
L 537.492126 -54.065713 
L 537.542858 -54.047193 
L 537.59359 -54.028697 
L 537.644323 -54.010224 
L 537.695055 -53.991776 
L 537.745787 -53.973351 
L 537.79652 -53.954949 
L 537.847252 -53.936572 
L 537.897984 -53.918218 
L 537.948717 -53.899887 
L 537.999449 -53.881581 
L 538.050181 -53.863297 
L 538.100914 -53.845038 
L 538.151646 -53.826801 
L 538.202379 -53.808589 
L 538.253111 -53.7904 
L 538.303843 -53.772234 
L 538.354576 -53.754092 
L 538.405308 -53.735973 
L 538.45604 -53.717877 
L 538.506773 -53.699805 
L 538.557505 -53.681756 
L 538.608237 -53.663731 
L 538.65897 -53.645728 
L 538.709702 -53.627749 
L 538.760434 -53.609794 
L 538.811167 -53.591861 
L 538.861899 -53.573952 
L 538.912631 -53.556066 
L 538.963364 -53.538203 
L 539.014096 -53.520363 
L 539.064828 -53.502546 
L 539.115561 -53.484753 
L 539.166293 -53.466982 
L 539.217025 -53.449235 
L 539.267758 -53.43151 
L 539.31849 -53.413809 
L 539.369222 -53.396131 
L 539.419955 -53.378475 
L 539.470687 -53.360842 
L 539.52142 -53.343233 
L 539.572152 -53.325646 
L 539.622884 -53.308082 
L 539.673617 -53.290541 
L 539.724349 -53.273023 
L 539.775081 -53.255527 
L 539.825814 -53.238055 
L 539.876546 -53.220605 
L 539.927278 -53.203178 
L 539.978011 -53.185773 
L 540.028743 -53.168391 
L 540.079475 -53.151032 
L 540.130208 -53.133696 
L 540.18094 -53.116382 
L 540.231672 -53.099091 
L 540.282405 -53.081822 
L 540.333137 -53.064576 
L 540.383869 -53.047352 
L 540.434602 -53.030151 
L 540.485334 -53.012972 
L 540.536066 -52.995816 
L 540.586799 -52.978683 
L 540.637531 -52.961571 
L 540.688263 -52.944482 
L 540.738996 -52.927416 
L 540.789728 -52.910372 
L 540.840461 -52.89335 
L 540.891193 -52.87635 
L 540.941925 -52.859373 
L 540.992658 -52.842418 
L 541.04339 -52.825485 
L 541.094122 -52.808575 
L 541.144855 -52.791687 
L 541.195587 -52.77482 
L 541.246319 -52.757976 
L 541.297052 -52.741155 
L 541.347784 -52.724355 
L 541.398516 -52.707577 
L 541.449249 -52.690822 
L 541.499981 -52.674088 
L 541.550713 -52.657376 
L 541.601446 -52.640687 
L 541.652178 -52.624019 
L 541.70291 -52.607374 
L 541.753643 -52.59075 
L 541.804375 -52.574148 
L 541.855107 -52.557568 
L 541.90584 -52.54101 
L 541.956572 -52.524474 
L 542.007304 -52.50796 
L 542.058037 -52.491467 
L 542.108769 -52.474996 
L 542.159501 -52.458547 
L 542.210234 -52.44212 
L 542.260966 -52.425715 
L 542.311699 -52.409331 
L 542.362431 -52.392968 
L 542.413163 -52.376628 
L 542.463896 -52.360309 
L 542.514628 -52.344012 
L 542.56536 -52.327736 
L 542.616093 -52.311482 
L 542.666825 -52.295249 
L 542.717557 -52.279038 
L 542.76829 -52.262848 
L 542.819022 -52.24668 
L 542.869754 -52.230533 
L 542.920487 -52.214408 
L 542.971219 -52.198304 
L 543.021951 -52.182222 
L 543.072684 -52.16616 
L 543.123416 -52.150121 
L 543.174148 -52.134102 
L 543.224881 -52.118105 
L 543.275613 -52.102129 
L 543.326345 -52.086174 
L 543.377078 -52.070241 
L 543.42781 -52.054329 
L 543.478542 -52.038438 
L 543.529275 -52.022568 
L 543.580007 -52.006719 
L 543.63074 -51.990891 
L 543.681472 -51.975085 
L 543.732204 -51.959299 
L 543.782937 -51.943535 
L 543.833669 -51.927792 
L 543.884401 -51.91207 
L 543.935134 -51.896368 
L 543.985866 -51.880688 
L 544.036598 -51.865028 
L 544.087331 -51.84939 
L 544.138063 -51.833772 
L 544.188795 -51.818176 
L 544.239528 -51.8026 
L 544.29026 -51.787045 
L 544.340992 -51.771511 
L 544.391725 -51.755998 
L 544.442457 -51.740505 
L 544.493189 -51.725033 
L 544.543922 -51.709582 
L 544.594654 -51.694152 
L 544.645386 -51.678742 
L 544.696119 -51.663353 
L 544.746851 -51.647985 
L 544.797583 -51.632637 
L 544.848316 -51.61731 
L 544.899048 -51.602004 
L 544.949781 -51.586718 
L 545.000513 -51.571452 
L 545.051245 -51.556208 
L 545.101978 -51.540983 
L 545.15271 -51.525779 
L 545.203442 -51.510596 
L 545.254175 -51.495433 
L 545.304907 -51.48029 
L 545.355639 -51.465168 
L 545.406372 -51.450066 
L 545.457104 -51.434985 
L 545.507836 -51.419924 
L 545.558569 -51.404883 
L 545.609301 -51.389862 
L 545.660033 -51.374862 
L 545.710766 -51.359882 
L 545.761498 -51.344922 
L 545.81223 -51.329983 
L 545.862963 -51.315063 
L 545.913695 -51.300164 
L 545.964427 -51.285285 
L 546.01516 -51.270426 
L 546.065892 -51.255587 
L 546.116624 -51.240768 
L 546.167357 -51.22597 
L 546.218089 -51.211191 
L 546.268822 -51.196432 
L 546.319554 -51.181694 
L 546.370286 -51.166975 
L 546.421019 -51.152276 
L 546.471751 -51.137597 
L 546.522483 -51.122938 
L 546.573216 -51.108299 
L 546.623948 -51.09368 
L 546.67468 -51.079081 
L 546.725413 -51.064501 
L 546.776145 -51.049942 
L 546.826877 -51.035402 
L 546.87761 -51.020882 
L 546.928342 -51.006381 
L 546.979074 -50.9919 
L 547.029807 -50.977439 
L 547.080539 -50.962998 
L 547.131271 -50.948577 
L 547.182004 -50.934174 
L 547.232736 -50.919792 
L 547.283468 -50.905429 
L 547.334201 -50.891086 
L 547.384933 -50.876762 
L 547.435665 -50.862458 
L 547.486398 -50.848174 
L 547.53713 -50.833908 
L 547.587863 -50.819663 
L 547.638595 -50.805437 
L 547.689327 -50.79123 
L 547.74006 -50.777042 
L 547.790792 -50.762874 
L 547.841524 -50.748726 
L 547.892257 -50.734597 
L 547.942989 -50.720487 
L 547.993721 -50.706396 
L 548.044454 -50.692325 
L 548.095186 -50.678273 
L 548.145918 -50.66424 
L 548.196651 -50.650226 
L 548.247383 -50.636232 
L 548.298115 -50.622256 
L 548.348848 -50.6083 
L 548.39958 -50.594363 
L 548.450312 -50.580446 
L 548.501045 -50.566547 
L 548.551777 -50.552667 
L 548.602509 -50.538807 
L 548.653242 -50.524965 
L 548.703974 -50.511143 
L 548.754706 -50.497339 
L 548.805439 -50.483555 
L 548.856171 -50.469789 
L 548.906904 -50.456042 
L 548.957636 -50.442315 
L 549.008368 -50.428606 
L 549.059101 -50.414916 
L 549.109833 -50.401245 
L 549.160565 -50.387592 
L 549.211298 -50.373959 
L 549.26203 -50.360344 
L 549.312762 -50.346748 
L 549.363495 -50.333171 
L 549.414227 -50.319613 
L 549.464959 -50.306073 
L 549.515692 -50.292552 
L 549.566424 -50.27905 
L 549.617156 -50.265566 
L 549.667889 -50.252101 
L 549.718621 -50.238655 
L 549.769353 -50.225227 
L 549.820086 -50.211818 
L 549.870818 -50.198427 
L 549.92155 -50.185055 
L 549.972283 -50.171701 
L 550.023015 -50.158366 
L 550.073747 -50.145049 
L 550.12448 -50.131751 
L 550.175212 -50.118471 
L 550.225945 -50.10521 
L 550.276677 -50.091967 
L 550.327409 -50.078742 
L 550.378142 -50.065536 
L 550.428874 -50.052348 
L 550.479606 -50.039178 
L 550.530339 -50.026026 
L 550.581071 -50.012893 
L 550.631803 -49.999778 
L 550.682536 -49.986682 
L 550.733268 -49.973603 
L 550.784 -49.960543 
L 550.834733 -49.947501 
L 550.885465 -49.934477 
L 550.936197 -49.921471 
L 550.98693 -49.908484 
L 551.037662 -49.895514 
L 551.088394 -49.882562 
L 551.139127 -49.869629 
L 551.189859 -49.856714 
L 551.240591 -49.843816 
L 551.291324 -49.830937 
L 551.342056 -49.818075 
L 551.392788 -49.805232 
L 551.443521 -49.792406 
L 551.494253 -49.779598 
L 551.544986 -49.766809 
L 551.595718 -49.754037 
L 551.64645 -49.741283 
L 551.697183 -49.728546 
L 551.747915 -49.715828 
L 551.798647 -49.703127 
L 551.84938 -49.690444 
L 551.900112 -49.677779 
L 551.950844 -49.665132 
L 552.001577 -49.652502 
L 552.052309 -49.63989 
L 552.103041 -49.627296 
L 552.153774 -49.614719 
L 552.204506 -49.60216 
L 552.255238 -49.589619 
L 552.305971 -49.577095 
L 552.356703 -49.564589 
L 552.407435 -49.5521 
L 552.458168 -49.539629 
L 552.5089 -49.527176 
L 552.559632 -49.514739 
L 552.610365 -49.502321 
L 552.661097 -49.48992 
L 552.711829 -49.477536 
L 552.762562 -49.46517 
L 552.813294 -49.452821 
L 552.864026 -49.440489 
L 552.914759 -49.428175 
L 552.965491 -49.415878 
L 553.016224 -49.403599 
L 553.066956 -49.391337 
L 553.117688 -49.379092 
L 553.168421 -49.366864 
L 553.219153 -49.354654 
L 553.269885 -49.34246 
L 553.320618 -49.330284 
L 553.37135 -49.318126 
L 553.422082 -49.305984 
L 553.472815 -49.29386 
L 553.523547 -49.281752 
L 553.574279 -49.269662 
L 553.625012 -49.257589 
L 553.675744 -49.245533 
L 553.726476 -49.233494 
L 553.777209 -49.221472 
L 553.827941 -49.209467 
L 553.878673 -49.197479 
L 553.929406 -49.185508 
L 553.980138 -49.173554 
L 554.03087 -49.161617 
L 554.081603 -49.149697 
L 554.132335 -49.137794 
L 554.183067 -49.125907 
L 554.2338 -49.114038 
L 554.284532 -49.102185 
L 554.335265 -49.090349 
L 554.385997 -49.07853 
L 554.436729 -49.066728 
L 554.487462 -49.054942 
L 554.538194 -49.043174 
L 554.588926 -49.031422 
L 554.639659 -49.019686 
L 554.690391 -49.007968 
L 554.741123 -48.996266 
L 554.791856 -48.98458 
L 554.842588 -48.972912 
L 554.89332 -48.96126 
L 554.944053 -48.949624 
L 554.994785 -48.938005 
L 555.045517 -48.926403 
L 555.09625 -48.914817 
L 555.146982 -48.903248 
L 555.197714 -48.891695 
L 555.248447 -48.880159 
L 555.299179 -48.868639 
L 555.349911 -48.857136 
L 555.400644 -48.845649 
L 555.451376 -48.834178 
L 555.502108 -48.822724 
L 555.552841 -48.811286 
L 555.603573 -48.799865 
L 555.654306 -48.78846 
L 555.705038 -48.777071 
L 555.75577 -48.765698 
L 555.806503 -48.754342 
L 555.857235 -48.743002 
L 555.907967 -48.731679 
L 555.9587 -48.720371 
L 556.009432 -48.70908 
L 556.060164 -48.697805 
L 556.110897 -48.686546 
L 556.161629 -48.675303 
L 556.212361 -48.664076 
L 556.263094 -48.652866 
L 556.313826 -48.641671 
L 556.364558 -48.630493 
L 556.415291 -48.61933 
L 556.466023 -48.608184 
L 556.516755 -48.597054 
L 556.567488 -48.58594 
L 556.61822 -48.574841 
L 556.668952 -48.563759 
L 556.719685 -48.552692 
L 556.770417 -48.541642 
L 556.821149 -48.530607 
L 556.871882 -48.519589 
L 556.922614 -48.508586 
L 556.973347 -48.497599 
L 557.024079 -48.486628 
L 557.074811 -48.475672 
L 557.125544 -48.464733 
L 557.176276 -48.453809 
L 557.227008 -48.442901 
L 557.277741 -48.432009 
L 557.328473 -48.421132 
L 557.379205 -48.410271 
L 557.429938 -48.399426 
L 557.48067 -48.388597 
L 557.531402 -48.377783 
L 557.582135 -48.366985 
L 557.632867 -48.356202 
L 557.683599 -48.345435 
L 557.734332 -48.334684 
L 557.785064 -48.323948 
L 557.835796 -48.313227 
L 557.886529 -48.302523 
L 557.937261 -48.291833 
L 557.987993 -48.281159 
L 558.038726 -48.270501 
L 558.089458 -48.259858 
L 558.14019 -48.249231 
L 558.190923 -48.238619 
L 558.241655 -48.228022 
L 558.292388 -48.217441 
L 558.34312 -48.206875 
L 558.393852 -48.196324 
L 558.444585 -48.185789 
L 558.495317 -48.175269 
L 558.546049 -48.164764 
L 558.596782 -48.154275 
L 558.647514 -48.143801 
L 558.698246 -48.133342 
L 558.748979 -48.122898 
L 558.799711 -48.11247 
L 558.850443 -48.102056 
L 558.901176 -48.091658 
L 558.951908 -48.081275 
L 559.00264 -48.070907 
L 559.053373 -48.060554 
L 559.104105 -48.050217 
L 559.154837 -48.039894 
L 559.20557 -48.029587 
L 559.256302 -48.019294 
L 559.307034 -48.009016 
L 559.357767 -47.998754 
L 559.408499 -47.988506 
L 559.459231 -47.978274 
L 559.509964 -47.968056 
L 559.560696 -47.957854 
L 559.611429 -47.947666 
L 559.662161 -47.937493 
L 559.712893 -47.927335 
L 559.763626 -47.917192 
L 559.814358 -47.907063 
L 559.86509 -47.89695 
L 559.915823 -47.886851 
L 559.966555 -47.876767 
L 560.017287 -47.866698 
L 560.06802 -47.856644 
L 560.118752 -47.846604 
L 560.169484 -47.836579 
L 560.220217 -47.826569 
L 560.270949 -47.816574 
L 560.321681 -47.806593 
L 560.372414 -47.796627 
L 560.423146 -47.786675 
L 560.473878 -47.776738 
L 560.524611 -47.766816 
L 560.575343 -47.756908 
L 560.626075 -47.747015 
L 560.676808 -47.737136 
L 560.72754 -47.727272 
L 560.778272 -47.717423 
L 560.829005 -47.707587 
L 560.879737 -47.697767 
L 560.93047 -47.687961 
L 560.981202 -47.678169 
L 561.031934 -47.668391 
L 561.082667 -47.658629 
L 561.133399 -47.64888 
L 561.184131 -47.639146 
L 561.234864 -47.629426 
L 561.285596 -47.619721 
L 561.336328 -47.610029 
L 561.387061 -47.600353 
L 561.437793 -47.59069 
L 561.488525 -47.581042 
L 561.539258 -47.571408 
L 561.58999 -47.561788 
L 561.640722 -47.552182 
L 561.691455 -47.542591 
L 561.742187 -47.533014 
L 561.792919 -47.523451 
L 561.843652 -47.513902 
L 561.894384 -47.504367 
L 561.945116 -47.494846 
L 561.995849 -47.48534 
L 562.046581 -47.475847 
L 562.097313 -47.466369 
L 562.148046 -47.456904 
L 562.198778 -47.447454 
L 562.24951 -47.438018 
L 562.300243 -47.428595 
L 562.350975 -47.419187 
L 562.401708 -47.409793 
L 562.45244 -47.400412 
L 562.503172 -47.391046 
L 562.553905 -47.381693 
L 562.604637 -47.372354 
L 562.655369 -47.363029 
L 562.706102 -47.353719 
L 562.756834 -47.344421 
L 562.807566 -47.335138 
L 562.858299 -47.325869 
L 562.909031 -47.316613 
L 562.959763 -47.307371 
L 563.010496 -47.298143 
L 563.061228 -47.288928 
L 563.11196 -47.279728 
L 563.162693 -47.270541 
L 563.213425 -47.261367 
L 563.264157 -47.252208 
L 563.31489 -47.243062 
L 563.365622 -47.233929 
L 563.416354 -47.224811 
L 563.467087 -47.215706 
L 563.517819 -47.206614 
L 563.568551 -47.197536 
L 563.619284 -47.188472 
L 563.670016 -47.179421 
L 563.720749 -47.170384 
L 563.771481 -47.16136 
L 563.822213 -47.15235 
L 563.872946 -47.143353 
L 563.923678 -47.134369 
L 563.97441 -47.1254 
L 564.025143 -47.116443 
L 564.075875 -47.1075 
L 564.126607 -47.09857 
L 564.17734 -47.089654 
L 564.228072 -47.080751 
L 564.278804 -47.071862 
L 564.329537 -47.062985 
L 564.380269 -47.054122 
L 564.431001 -47.045273 
L 564.481734 -47.036436 
L 564.532466 -47.027613 
L 564.583198 -47.018803 
L 564.633931 -47.010007 
L 564.684663 -47.001223 
L 564.735395 -46.992453 
L 564.786128 -46.983696 
L 564.83686 -46.974952 
L 564.887592 -46.966221 
L 564.938325 -46.957504 
L 564.989057 -46.948799 
L 565.03979 -46.940108 
L 565.090522 -46.931429 
L 565.141254 -46.922764 
L 565.191987 -46.914112 
L 565.242719 -46.905473 
L 565.293451 -46.896847 
L 565.344184 -46.888234 
L 565.394916 -46.879633 
L 565.445648 -46.871046 
L 565.496381 -46.862472 
L 565.547113 -46.853911 
L 565.597845 -46.845362 
L 565.648578 -46.836827 
L 565.69931 -46.828304 
L 565.750042 -46.819795 
L 565.800775 -46.811298 
L 565.851507 -46.802814 
L 565.902239 -46.794343 
L 565.952972 -46.785884 
L 566.003704 -46.777439 
L 566.054436 -46.769006 
L 566.105169 -46.760586 
L 566.155901 -46.752179 
L 566.206633 -46.743784 
L 566.257366 -46.735402 
L 566.308098 -46.727033 
L 566.358831 -46.718677 
L 566.409563 -46.710333 
L 566.460295 -46.702002 
L 566.511028 -46.693683 
L 566.56176 -46.685378 
L 566.612492 -46.677084 
L 566.663225 -46.668804 
L 566.713957 -46.660535 
L 566.764689 -46.65228 
L 566.815422 -46.644037 
L 566.866154 -46.635806 
L 566.916886 -46.627588 
L 566.967619 -46.619383 
L 567.018351 -46.61119 
L 567.069083 -46.603009 
L 567.119816 -46.594841 
L 567.170548 -46.586686 
L 567.22128 -46.578542 
L 567.272013 -46.570412 
L 567.322745 -46.562293 
L 567.373477 -46.554187 
L 567.42421 -46.546093 
L 567.474942 -46.538012 
L 567.525674 -46.529943 
L 567.576407 -46.521886 
L 567.627139 -46.513841 
L 567.677872 -46.505809 
L 567.728604 -46.497789 
L 567.779336 -46.489782 
L 567.830069 -46.481786 
L 567.880801 -46.473803 
L 567.931533 -46.465832 
L 567.982266 -46.457873 
L 568.032998 -46.449926 
L 568.08373 -46.441992 
L 568.134463 -46.434069 
L 568.185195 -46.426159 
L 568.235927 -46.418261 
L 568.28666 -46.410375 
L 568.337392 -46.4025 
L 568.388124 -46.394639 
L 568.438857 -46.386789 
L 568.489589 -46.378951 
L 568.540321 -46.371125 
L 568.591054 -46.363311 
L 568.641786 -46.355509 
L 568.692518 -46.347719 
L 568.743251 -46.339941 
L 568.793983 -46.332175 
L 568.844715 -46.324421 
L 568.895448 -46.316679 
L 568.94618 -46.308948 
L 568.996913 -46.30123 
L 569.047645 -46.293523 
L 569.098377 -46.285828 
L 569.14911 -46.278145 
L 569.199842 -46.270474 
L 569.250574 -46.262815 
L 569.301307 -46.255168 
L 569.352039 -46.247532 
L 569.402771 -46.239908 
L 569.453504 -46.232296 
L 569.504236 -46.224695 
L 569.554968 -46.217106 
L 569.605701 -46.209529 
L 569.656433 -46.201964 
L 569.707165 -46.19441 
L 569.757898 -46.186868 
L 569.80863 -46.179337 
L 569.859362 -46.171818 
L 569.910095 -46.164311 
L 569.960827 -46.156816 
L 570.011559 -46.149331 
L 570.062292 -46.141859 
L 570.113024 -46.134398 
L 570.163756 -46.126948 
L 570.214489 -46.119511 
L 570.265221 -46.112084 
L 570.315954 -46.104669 
L 570.366686 -46.097266 
L 570.417418 -46.089874 
L 570.468151 -46.082493 
L 570.518883 -46.075124 
L 570.569615 -46.067766 
L 570.620348 -46.06042 
L 570.67108 -46.053085 
L 570.721812 -46.045761 
L 570.772545 -46.038449 
L 570.823277 -46.031148 
L 570.874009 -46.023859 
L 570.924742 -46.01658 
L 570.975474 -46.009313 
L 571.026206 -46.002058 
L 571.076939 -45.994813 
L 571.127671 -45.98758 
L 571.178403 -45.980358 
L 571.229136 -45.973148 
L 571.279868 -45.965948 
L 571.3306 -45.95876 
L 571.381333 -45.951583 
L 571.432065 -45.944417 
L 571.482797 -45.937262 
L 571.53353 -45.930118 
L 571.584262 -45.922986 
L 571.634995 -45.915864 
L 571.685727 -45.908754 
L 571.736459 -45.901655 
L 571.787192 -45.894567 
L 571.837924 -45.88749 
L 571.888656 -45.880423 
L 571.939389 -45.873368 
L 571.990121 -45.866324 
L 572.040853 -45.859291 
L 572.091586 -45.852269 
L 572.142318 -45.845258 
L 572.19305 -45.838258 
L 572.243783 -45.831268 
L 572.294515 -45.82429 
L 572.345247 -45.817323 
L 572.39598 -45.810366 
L 572.446712 -45.80342 
L 572.497444 -45.796486 
L 572.548177 -45.789562 
L 572.598909 -45.782649 
L 572.649641 -45.775746 
L 572.700374 -45.768855 
L 572.751106 -45.761974 
L 572.801838 -45.755104 
L 572.852571 -45.748245 
L 572.903303 -45.741397 
L 572.954035 -45.734559 
L 573.004768 -45.727732 
L 573.0555 -45.720916 
L 573.106233 -45.71411 
L 573.156965 -45.707315 
L 573.207697 -45.700531 
L 573.25843 -45.693758 
L 573.309162 -45.686995 
L 573.359894 -45.680242 
L 573.410627 -45.673501 
L 573.461359 -45.66677 
L 573.512091 -45.660049 
L 573.562824 -45.653339 
L 573.613556 -45.64664 
L 573.664288 -45.639951 
L 573.715021 -45.633273 
L 573.765753 -45.626605 
L 573.816485 -45.619948 
L 573.867218 -45.613301 
L 573.91795 -45.606664 
L 573.968682 -45.600038 
L 574.019415 -45.593423 
L 574.070147 -45.586818 
L 574.120879 -45.580223 
L 574.171612 -45.573639 
L 574.222344 -45.567065 
L 574.273076 -45.560502 
L 574.323809 -45.553949 
L 574.374541 -45.547406 
L 574.425274 -45.540874 
L 574.476006 -45.534352 
L 574.526738 -45.52784 
L 574.577471 -45.521338 
L 574.628203 -45.514847 
L 574.678935 -45.508366 
L 574.729668 -45.501896 
L 574.7804 -45.495435 
L 574.831132 -45.488985 
L 574.881865 -45.482545 
L 574.932597 -45.476115 
L 574.983329 -45.469695 
L 575.034062 -45.463286 
L 575.084794 -45.456887 
L 575.135526 -45.450497 
L 575.186259 -45.444118 
L 575.236991 -45.437749 
L 575.287723 -45.431391 
L 575.338456 -45.425042 
L 575.389188 -45.418703 
L 575.43992 -45.412375 
L 575.490653 -45.406056 
L 575.541385 -45.399748 
L 575.592117 -45.393449 
L 575.64285 -45.387161 
L 575.693582 -45.380882 
L 575.744315 -45.374614 
L 575.795047 -45.368355 
L 575.845779 -45.362106 
L 575.896512 -45.355868 
L 575.947244 -45.349639 
L 575.997976 -45.34342 
L 576.048709 -45.337211 
L 576.099441 -45.331012 
L 576.150173 -45.324823 
L 576.200906 -45.318644 
L 576.251638 -45.312474 
L 576.30237 -45.306315 
L 576.353103 -45.300165 
L 576.403835 -45.294025 
L 576.454567 -45.287895 
L 576.5053 -45.281774 
L 576.556032 -45.275664 
L 576.606764 -45.269563 
L 576.657497 -45.263472 
L 576.708229 -45.25739 
L 576.758961 -45.251319 
L 576.809694 -45.245257 
L 576.860426 -45.239204 
L 576.860426 -41.879844 
L 576.860426 -41.879844 
L 576.809694 -41.879844 
L 576.758961 -41.879844 
L 576.708229 -41.879844 
L 576.657497 -41.879844 
L 576.606764 -41.879844 
L 576.556032 -41.879844 
L 576.5053 -41.879844 
L 576.454567 -41.879844 
L 576.403835 -41.879844 
L 576.353103 -41.879844 
L 576.30237 -41.879844 
L 576.251638 -41.879844 
L 576.200906 -41.879844 
L 576.150173 -41.879844 
L 576.099441 -41.879844 
L 576.048709 -41.879844 
L 575.997976 -41.879844 
L 575.947244 -41.879844 
L 575.896512 -41.879844 
L 575.845779 -41.879844 
L 575.795047 -41.879844 
L 575.744315 -41.879844 
L 575.693582 -41.879844 
L 575.64285 -41.879844 
L 575.592117 -41.879844 
L 575.541385 -41.879844 
L 575.490653 -41.879844 
L 575.43992 -41.879844 
L 575.389188 -41.879844 
L 575.338456 -41.879844 
L 575.287723 -41.879844 
L 575.236991 -41.879844 
L 575.186259 -41.879844 
L 575.135526 -41.879844 
L 575.084794 -41.879844 
L 575.034062 -41.879844 
L 574.983329 -41.879844 
L 574.932597 -41.879844 
L 574.881865 -41.879844 
L 574.831132 -41.879844 
L 574.7804 -41.879844 
L 574.729668 -41.879844 
L 574.678935 -41.879844 
L 574.628203 -41.879844 
L 574.577471 -41.879844 
L 574.526738 -41.879844 
L 574.476006 -41.879844 
L 574.425274 -41.879844 
L 574.374541 -41.879844 
L 574.323809 -41.879844 
L 574.273076 -41.879844 
L 574.222344 -41.879844 
L 574.171612 -41.879844 
L 574.120879 -41.879844 
L 574.070147 -41.879844 
L 574.019415 -41.879844 
L 573.968682 -41.879844 
L 573.91795 -41.879844 
L 573.867218 -41.879844 
L 573.816485 -41.879844 
L 573.765753 -41.879844 
L 573.715021 -41.879844 
L 573.664288 -41.879844 
L 573.613556 -41.879844 
L 573.562824 -41.879844 
L 573.512091 -41.879844 
L 573.461359 -41.879844 
L 573.410627 -41.879844 
L 573.359894 -41.879844 
L 573.309162 -41.879844 
L 573.25843 -41.879844 
L 573.207697 -41.879844 
L 573.156965 -41.879844 
L 573.106233 -41.879844 
L 573.0555 -41.879844 
L 573.004768 -41.879844 
L 572.954035 -41.879844 
L 572.903303 -41.879844 
L 572.852571 -41.879844 
L 572.801838 -41.879844 
L 572.751106 -41.879844 
L 572.700374 -41.879844 
L 572.649641 -41.879844 
L 572.598909 -41.879844 
L 572.548177 -41.879844 
L 572.497444 -41.879844 
L 572.446712 -41.879844 
L 572.39598 -41.879844 
L 572.345247 -41.879844 
L 572.294515 -41.879844 
L 572.243783 -41.879844 
L 572.19305 -41.879844 
L 572.142318 -41.879844 
L 572.091586 -41.879844 
L 572.040853 -41.879844 
L 571.990121 -41.879844 
L 571.939389 -41.879844 
L 571.888656 -41.879844 
L 571.837924 -41.879844 
L 571.787192 -41.879844 
L 571.736459 -41.879844 
L 571.685727 -41.879844 
L 571.634995 -41.879844 
L 571.584262 -41.879844 
L 571.53353 -41.879844 
L 571.482797 -41.879844 
L 571.432065 -41.879844 
L 571.381333 -41.879844 
L 571.3306 -41.879844 
L 571.279868 -41.879844 
L 571.229136 -41.879844 
L 571.178403 -41.879844 
L 571.127671 -41.879844 
L 571.076939 -41.879844 
L 571.026206 -41.879844 
L 570.975474 -41.879844 
L 570.924742 -41.879844 
L 570.874009 -41.879844 
L 570.823277 -41.879844 
L 570.772545 -41.879844 
L 570.721812 -41.879844 
L 570.67108 -41.879844 
L 570.620348 -41.879844 
L 570.569615 -41.879844 
L 570.518883 -41.879844 
L 570.468151 -41.879844 
L 570.417418 -41.879844 
L 570.366686 -41.879844 
L 570.315954 -41.879844 
L 570.265221 -41.879844 
L 570.214489 -41.879844 
L 570.163756 -41.879844 
L 570.113024 -41.879844 
L 570.062292 -41.879844 
L 570.011559 -41.879844 
L 569.960827 -41.879844 
L 569.910095 -41.879844 
L 569.859362 -41.879844 
L 569.80863 -41.879844 
L 569.757898 -41.879844 
L 569.707165 -41.879844 
L 569.656433 -41.879844 
L 569.605701 -41.879844 
L 569.554968 -41.879844 
L 569.504236 -41.879844 
L 569.453504 -41.879844 
L 569.402771 -41.879844 
L 569.352039 -41.879844 
L 569.301307 -41.879844 
L 569.250574 -41.879844 
L 569.199842 -41.879844 
L 569.14911 -41.879844 
L 569.098377 -41.879844 
L 569.047645 -41.879844 
L 568.996913 -41.879844 
L 568.94618 -41.879844 
L 568.895448 -41.879844 
L 568.844715 -41.879844 
L 568.793983 -41.879844 
L 568.743251 -41.879844 
L 568.692518 -41.879844 
L 568.641786 -41.879844 
L 568.591054 -41.879844 
L 568.540321 -41.879844 
L 568.489589 -41.879844 
L 568.438857 -41.879844 
L 568.388124 -41.879844 
L 568.337392 -41.879844 
L 568.28666 -41.879844 
L 568.235927 -41.879844 
L 568.185195 -41.879844 
L 568.134463 -41.879844 
L 568.08373 -41.879844 
L 568.032998 -41.879844 
L 567.982266 -41.879844 
L 567.931533 -41.879844 
L 567.880801 -41.879844 
L 567.830069 -41.879844 
L 567.779336 -41.879844 
L 567.728604 -41.879844 
L 567.677872 -41.879844 
L 567.627139 -41.879844 
L 567.576407 -41.879844 
L 567.525674 -41.879844 
L 567.474942 -41.879844 
L 567.42421 -41.879844 
L 567.373477 -41.879844 
L 567.322745 -41.879844 
L 567.272013 -41.879844 
L 567.22128 -41.879844 
L 567.170548 -41.879844 
L 567.119816 -41.879844 
L 567.069083 -41.879844 
L 567.018351 -41.879844 
L 566.967619 -41.879844 
L 566.916886 -41.879844 
L 566.866154 -41.879844 
L 566.815422 -41.879844 
L 566.764689 -41.879844 
L 566.713957 -41.879844 
L 566.663225 -41.879844 
L 566.612492 -41.879844 
L 566.56176 -41.879844 
L 566.511028 -41.879844 
L 566.460295 -41.879844 
L 566.409563 -41.879844 
L 566.358831 -41.879844 
L 566.308098 -41.879844 
L 566.257366 -41.879844 
L 566.206633 -41.879844 
L 566.155901 -41.879844 
L 566.105169 -41.879844 
L 566.054436 -41.879844 
L 566.003704 -41.879844 
L 565.952972 -41.879844 
L 565.902239 -41.879844 
L 565.851507 -41.879844 
L 565.800775 -41.879844 
L 565.750042 -41.879844 
L 565.69931 -41.879844 
L 565.648578 -41.879844 
L 565.597845 -41.879844 
L 565.547113 -41.879844 
L 565.496381 -41.879844 
L 565.445648 -41.879844 
L 565.394916 -41.879844 
L 565.344184 -41.879844 
L 565.293451 -41.879844 
L 565.242719 -41.879844 
L 565.191987 -41.879844 
L 565.141254 -41.879844 
L 565.090522 -41.879844 
L 565.03979 -41.879844 
L 564.989057 -41.879844 
L 564.938325 -41.879844 
L 564.887592 -41.879844 
L 564.83686 -41.879844 
L 564.786128 -41.879844 
L 564.735395 -41.879844 
L 564.684663 -41.879844 
L 564.633931 -41.879844 
L 564.583198 -41.879844 
L 564.532466 -41.879844 
L 564.481734 -41.879844 
L 564.431001 -41.879844 
L 564.380269 -41.879844 
L 564.329537 -41.879844 
L 564.278804 -41.879844 
L 564.228072 -41.879844 
L 564.17734 -41.879844 
L 564.126607 -41.879844 
L 564.075875 -41.879844 
L 564.025143 -41.879844 
L 563.97441 -41.879844 
L 563.923678 -41.879844 
L 563.872946 -41.879844 
L 563.822213 -41.879844 
L 563.771481 -41.879844 
L 563.720749 -41.879844 
L 563.670016 -41.879844 
L 563.619284 -41.879844 
L 563.568551 -41.879844 
L 563.517819 -41.879844 
L 563.467087 -41.879844 
L 563.416354 -41.879844 
L 563.365622 -41.879844 
L 563.31489 -41.879844 
L 563.264157 -41.879844 
L 563.213425 -41.879844 
L 563.162693 -41.879844 
L 563.11196 -41.879844 
L 563.061228 -41.879844 
L 563.010496 -41.879844 
L 562.959763 -41.879844 
L 562.909031 -41.879844 
L 562.858299 -41.879844 
L 562.807566 -41.879844 
L 562.756834 -41.879844 
L 562.706102 -41.879844 
L 562.655369 -41.879844 
L 562.604637 -41.879844 
L 562.553905 -41.879844 
L 562.503172 -41.879844 
L 562.45244 -41.879844 
L 562.401708 -41.879844 
L 562.350975 -41.879844 
L 562.300243 -41.879844 
L 562.24951 -41.879844 
L 562.198778 -41.879844 
L 562.148046 -41.879844 
L 562.097313 -41.879844 
L 562.046581 -41.879844 
L 561.995849 -41.879844 
L 561.945116 -41.879844 
L 561.894384 -41.879844 
L 561.843652 -41.879844 
L 561.792919 -41.879844 
L 561.742187 -41.879844 
L 561.691455 -41.879844 
L 561.640722 -41.879844 
L 561.58999 -41.879844 
L 561.539258 -41.879844 
L 561.488525 -41.879844 
L 561.437793 -41.879844 
L 561.387061 -41.879844 
L 561.336328 -41.879844 
L 561.285596 -41.879844 
L 561.234864 -41.879844 
L 561.184131 -41.879844 
L 561.133399 -41.879844 
L 561.082667 -41.879844 
L 561.031934 -41.879844 
L 560.981202 -41.879844 
L 560.93047 -41.879844 
L 560.879737 -41.879844 
L 560.829005 -41.879844 
L 560.778272 -41.879844 
L 560.72754 -41.879844 
L 560.676808 -41.879844 
L 560.626075 -41.879844 
L 560.575343 -41.879844 
L 560.524611 -41.879844 
L 560.473878 -41.879844 
L 560.423146 -41.879844 
L 560.372414 -41.879844 
L 560.321681 -41.879844 
L 560.270949 -41.879844 
L 560.220217 -41.879844 
L 560.169484 -41.879844 
L 560.118752 -41.879844 
L 560.06802 -41.879844 
L 560.017287 -41.879844 
L 559.966555 -41.879844 
L 559.915823 -41.879844 
L 559.86509 -41.879844 
L 559.814358 -41.879844 
L 559.763626 -41.879844 
L 559.712893 -41.879844 
L 559.662161 -41.879844 
L 559.611429 -41.879844 
L 559.560696 -41.879844 
L 559.509964 -41.879844 
L 559.459231 -41.879844 
L 559.408499 -41.879844 
L 559.357767 -41.879844 
L 559.307034 -41.879844 
L 559.256302 -41.879844 
L 559.20557 -41.879844 
L 559.154837 -41.879844 
L 559.104105 -41.879844 
L 559.053373 -41.879844 
L 559.00264 -41.879844 
L 558.951908 -41.879844 
L 558.901176 -41.879844 
L 558.850443 -41.879844 
L 558.799711 -41.879844 
L 558.748979 -41.879844 
L 558.698246 -41.879844 
L 558.647514 -41.879844 
L 558.596782 -41.879844 
L 558.546049 -41.879844 
L 558.495317 -41.879844 
L 558.444585 -41.879844 
L 558.393852 -41.879844 
L 558.34312 -41.879844 
L 558.292388 -41.879844 
L 558.241655 -41.879844 
L 558.190923 -41.879844 
L 558.14019 -41.879844 
L 558.089458 -41.879844 
L 558.038726 -41.879844 
L 557.987993 -41.879844 
L 557.937261 -41.879844 
L 557.886529 -41.879844 
L 557.835796 -41.879844 
L 557.785064 -41.879844 
L 557.734332 -41.879844 
L 557.683599 -41.879844 
L 557.632867 -41.879844 
L 557.582135 -41.879844 
L 557.531402 -41.879844 
L 557.48067 -41.879844 
L 557.429938 -41.879844 
L 557.379205 -41.879844 
L 557.328473 -41.879844 
L 557.277741 -41.879844 
L 557.227008 -41.879844 
L 557.176276 -41.879844 
L 557.125544 -41.879844 
L 557.074811 -41.879844 
L 557.024079 -41.879844 
L 556.973347 -41.879844 
L 556.922614 -41.879844 
L 556.871882 -41.879844 
L 556.821149 -41.879844 
L 556.770417 -41.879844 
L 556.719685 -41.879844 
L 556.668952 -41.879844 
L 556.61822 -41.879844 
L 556.567488 -41.879844 
L 556.516755 -41.879844 
L 556.466023 -41.879844 
L 556.415291 -41.879844 
L 556.364558 -41.879844 
L 556.313826 -41.879844 
L 556.263094 -41.879844 
L 556.212361 -41.879844 
L 556.161629 -41.879844 
L 556.110897 -41.879844 
L 556.060164 -41.879844 
L 556.009432 -41.879844 
L 555.9587 -41.879844 
L 555.907967 -41.879844 
L 555.857235 -41.879844 
L 555.806503 -41.879844 
L 555.75577 -41.879844 
L 555.705038 -41.879844 
L 555.654306 -41.879844 
L 555.603573 -41.879844 
L 555.552841 -41.879844 
L 555.502108 -41.879844 
L 555.451376 -41.879844 
L 555.400644 -41.879844 
L 555.349911 -41.879844 
L 555.299179 -41.879844 
L 555.248447 -41.879844 
L 555.197714 -41.879844 
L 555.146982 -41.879844 
L 555.09625 -41.879844 
L 555.045517 -41.879844 
L 554.994785 -41.879844 
L 554.944053 -41.879844 
L 554.89332 -41.879844 
L 554.842588 -41.879844 
L 554.791856 -41.879844 
L 554.741123 -41.879844 
L 554.690391 -41.879844 
L 554.639659 -41.879844 
L 554.588926 -41.879844 
L 554.538194 -41.879844 
L 554.487462 -41.879844 
L 554.436729 -41.879844 
L 554.385997 -41.879844 
L 554.335265 -41.879844 
L 554.284532 -41.879844 
L 554.2338 -41.879844 
L 554.183067 -41.879844 
L 554.132335 -41.879844 
L 554.081603 -41.879844 
L 554.03087 -41.879844 
L 553.980138 -41.879844 
L 553.929406 -41.879844 
L 553.878673 -41.879844 
L 553.827941 -41.879844 
L 553.777209 -41.879844 
L 553.726476 -41.879844 
L 553.675744 -41.879844 
L 553.625012 -41.879844 
L 553.574279 -41.879844 
L 553.523547 -41.879844 
L 553.472815 -41.879844 
L 553.422082 -41.879844 
L 553.37135 -41.879844 
L 553.320618 -41.879844 
L 553.269885 -41.879844 
L 553.219153 -41.879844 
L 553.168421 -41.879844 
L 553.117688 -41.879844 
L 553.066956 -41.879844 
L 553.016224 -41.879844 
L 552.965491 -41.879844 
L 552.914759 -41.879844 
L 552.864026 -41.879844 
L 552.813294 -41.879844 
L 552.762562 -41.879844 
L 552.711829 -41.879844 
L 552.661097 -41.879844 
L 552.610365 -41.879844 
L 552.559632 -41.879844 
L 552.5089 -41.879844 
L 552.458168 -41.879844 
L 552.407435 -41.879844 
L 552.356703 -41.879844 
L 552.305971 -41.879844 
L 552.255238 -41.879844 
L 552.204506 -41.879844 
L 552.153774 -41.879844 
L 552.103041 -41.879844 
L 552.052309 -41.879844 
L 552.001577 -41.879844 
L 551.950844 -41.879844 
L 551.900112 -41.879844 
L 551.84938 -41.879844 
L 551.798647 -41.879844 
L 551.747915 -41.879844 
L 551.697183 -41.879844 
L 551.64645 -41.879844 
L 551.595718 -41.879844 
L 551.544986 -41.879844 
L 551.494253 -41.879844 
L 551.443521 -41.879844 
L 551.392788 -41.879844 
L 551.342056 -41.879844 
L 551.291324 -41.879844 
L 551.240591 -41.879844 
L 551.189859 -41.879844 
L 551.139127 -41.879844 
L 551.088394 -41.879844 
L 551.037662 -41.879844 
L 550.98693 -41.879844 
L 550.936197 -41.879844 
L 550.885465 -41.879844 
L 550.834733 -41.879844 
L 550.784 -41.879844 
L 550.733268 -41.879844 
L 550.682536 -41.879844 
L 550.631803 -41.879844 
L 550.581071 -41.879844 
L 550.530339 -41.879844 
L 550.479606 -41.879844 
L 550.428874 -41.879844 
L 550.378142 -41.879844 
L 550.327409 -41.879844 
L 550.276677 -41.879844 
L 550.225945 -41.879844 
L 550.175212 -41.879844 
L 550.12448 -41.879844 
L 550.073747 -41.879844 
L 550.023015 -41.879844 
L 549.972283 -41.879844 
L 549.92155 -41.879844 
L 549.870818 -41.879844 
L 549.820086 -41.879844 
L 549.769353 -41.879844 
L 549.718621 -41.879844 
L 549.667889 -41.879844 
L 549.617156 -41.879844 
L 549.566424 -41.879844 
L 549.515692 -41.879844 
L 549.464959 -41.879844 
L 549.414227 -41.879844 
L 549.363495 -41.879844 
L 549.312762 -41.879844 
L 549.26203 -41.879844 
L 549.211298 -41.879844 
L 549.160565 -41.879844 
L 549.109833 -41.879844 
L 549.059101 -41.879844 
L 549.008368 -41.879844 
L 548.957636 -41.879844 
L 548.906904 -41.879844 
L 548.856171 -41.879844 
L 548.805439 -41.879844 
L 548.754706 -41.879844 
L 548.703974 -41.879844 
L 548.653242 -41.879844 
L 548.602509 -41.879844 
L 548.551777 -41.879844 
L 548.501045 -41.879844 
L 548.450312 -41.879844 
L 548.39958 -41.879844 
L 548.348848 -41.879844 
L 548.298115 -41.879844 
L 548.247383 -41.879844 
L 548.196651 -41.879844 
L 548.145918 -41.879844 
L 548.095186 -41.879844 
L 548.044454 -41.879844 
L 547.993721 -41.879844 
L 547.942989 -41.879844 
L 547.892257 -41.879844 
L 547.841524 -41.879844 
L 547.790792 -41.879844 
L 547.74006 -41.879844 
L 547.689327 -41.879844 
L 547.638595 -41.879844 
L 547.587863 -41.879844 
L 547.53713 -41.879844 
L 547.486398 -41.879844 
L 547.435665 -41.879844 
L 547.384933 -41.879844 
L 547.334201 -41.879844 
L 547.283468 -41.879844 
L 547.232736 -41.879844 
L 547.182004 -41.879844 
L 547.131271 -41.879844 
L 547.080539 -41.879844 
L 547.029807 -41.879844 
L 546.979074 -41.879844 
L 546.928342 -41.879844 
L 546.87761 -41.879844 
L 546.826877 -41.879844 
L 546.776145 -41.879844 
L 546.725413 -41.879844 
L 546.67468 -41.879844 
L 546.623948 -41.879844 
L 546.573216 -41.879844 
L 546.522483 -41.879844 
L 546.471751 -41.879844 
L 546.421019 -41.879844 
L 546.370286 -41.879844 
L 546.319554 -41.879844 
L 546.268822 -41.879844 
L 546.218089 -41.879844 
L 546.167357 -41.879844 
L 546.116624 -41.879844 
L 546.065892 -41.879844 
L 546.01516 -41.879844 
L 545.964427 -41.879844 
L 545.913695 -41.879844 
L 545.862963 -41.879844 
L 545.81223 -41.879844 
L 545.761498 -41.879844 
L 545.710766 -41.879844 
L 545.660033 -41.879844 
L 545.609301 -41.879844 
L 545.558569 -41.879844 
L 545.507836 -41.879844 
L 545.457104 -41.879844 
L 545.406372 -41.879844 
L 545.355639 -41.879844 
L 545.304907 -41.879844 
L 545.254175 -41.879844 
L 545.203442 -41.879844 
L 545.15271 -41.879844 
L 545.101978 -41.879844 
L 545.051245 -41.879844 
L 545.000513 -41.879844 
L 544.949781 -41.879844 
L 544.899048 -41.879844 
L 544.848316 -41.879844 
L 544.797583 -41.879844 
L 544.746851 -41.879844 
L 544.696119 -41.879844 
L 544.645386 -41.879844 
L 544.594654 -41.879844 
L 544.543922 -41.879844 
L 544.493189 -41.879844 
L 544.442457 -41.879844 
L 544.391725 -41.879844 
L 544.340992 -41.879844 
L 544.29026 -41.879844 
L 544.239528 -41.879844 
L 544.188795 -41.879844 
L 544.138063 -41.879844 
L 544.087331 -41.879844 
L 544.036598 -41.879844 
L 543.985866 -41.879844 
L 543.935134 -41.879844 
L 543.884401 -41.879844 
L 543.833669 -41.879844 
L 543.782937 -41.879844 
L 543.732204 -41.879844 
L 543.681472 -41.879844 
L 543.63074 -41.879844 
L 543.580007 -41.879844 
L 543.529275 -41.879844 
L 543.478542 -41.879844 
L 543.42781 -41.879844 
L 543.377078 -41.879844 
L 543.326345 -41.879844 
L 543.275613 -41.879844 
L 543.224881 -41.879844 
L 543.174148 -41.879844 
L 543.123416 -41.879844 
L 543.072684 -41.879844 
L 543.021951 -41.879844 
L 542.971219 -41.879844 
L 542.920487 -41.879844 
L 542.869754 -41.879844 
L 542.819022 -41.879844 
L 542.76829 -41.879844 
L 542.717557 -41.879844 
L 542.666825 -41.879844 
L 542.616093 -41.879844 
L 542.56536 -41.879844 
L 542.514628 -41.879844 
L 542.463896 -41.879844 
L 542.413163 -41.879844 
L 542.362431 -41.879844 
L 542.311699 -41.879844 
L 542.260966 -41.879844 
L 542.210234 -41.879844 
L 542.159501 -41.879844 
L 542.108769 -41.879844 
L 542.058037 -41.879844 
L 542.007304 -41.879844 
L 541.956572 -41.879844 
L 541.90584 -41.879844 
L 541.855107 -41.879844 
L 541.804375 -41.879844 
L 541.753643 -41.879844 
L 541.70291 -41.879844 
L 541.652178 -41.879844 
L 541.601446 -41.879844 
L 541.550713 -41.879844 
L 541.499981 -41.879844 
L 541.449249 -41.879844 
L 541.398516 -41.879844 
L 541.347784 -41.879844 
L 541.297052 -41.879844 
L 541.246319 -41.879844 
L 541.195587 -41.879844 
L 541.144855 -41.879844 
L 541.094122 -41.879844 
L 541.04339 -41.879844 
L 540.992658 -41.879844 
L 540.941925 -41.879844 
L 540.891193 -41.879844 
L 540.840461 -41.879844 
L 540.789728 -41.879844 
L 540.738996 -41.879844 
L 540.688263 -41.879844 
L 540.637531 -41.879844 
L 540.586799 -41.879844 
L 540.536066 -41.879844 
L 540.485334 -41.879844 
L 540.434602 -41.879844 
L 540.383869 -41.879844 
L 540.333137 -41.879844 
L 540.282405 -41.879844 
L 540.231672 -41.879844 
L 540.18094 -41.879844 
L 540.130208 -41.879844 
L 540.079475 -41.879844 
L 540.028743 -41.879844 
L 539.978011 -41.879844 
L 539.927278 -41.879844 
L 539.876546 -41.879844 
L 539.825814 -41.879844 
L 539.775081 -41.879844 
L 539.724349 -41.879844 
L 539.673617 -41.879844 
L 539.622884 -41.879844 
L 539.572152 -41.879844 
L 539.52142 -41.879844 
L 539.470687 -41.879844 
L 539.419955 -41.879844 
L 539.369222 -41.879844 
L 539.31849 -41.879844 
L 539.267758 -41.879844 
L 539.217025 -41.879844 
L 539.166293 -41.879844 
L 539.115561 -41.879844 
L 539.064828 -41.879844 
L 539.014096 -41.879844 
L 538.963364 -41.879844 
L 538.912631 -41.879844 
L 538.861899 -41.879844 
L 538.811167 -41.879844 
L 538.760434 -41.879844 
L 538.709702 -41.879844 
L 538.65897 -41.879844 
L 538.608237 -41.879844 
L 538.557505 -41.879844 
L 538.506773 -41.879844 
L 538.45604 -41.879844 
L 538.405308 -41.879844 
L 538.354576 -41.879844 
L 538.303843 -41.879844 
L 538.253111 -41.879844 
L 538.202379 -41.879844 
L 538.151646 -41.879844 
L 538.100914 -41.879844 
L 538.050181 -41.879844 
L 537.999449 -41.879844 
L 537.948717 -41.879844 
L 537.897984 -41.879844 
L 537.847252 -41.879844 
L 537.79652 -41.879844 
L 537.745787 -41.879844 
L 537.695055 -41.879844 
L 537.644323 -41.879844 
L 537.59359 -41.879844 
L 537.542858 -41.879844 
L 537.492126 -41.879844 
L 537.441393 -41.879844 
L 537.390661 -41.879844 
L 537.339929 -41.879844 
L 537.289196 -41.879844 
L 537.238464 -41.879844 
L 537.187732 -41.879844 
L 537.136999 -41.879844 
L 537.086267 -41.879844 
L 537.035535 -41.879844 
L 536.984802 -41.879844 
L 536.93407 -41.879844 
L 536.883338 -41.879844 
L 536.832605 -41.879844 
L 536.781873 -41.879844 
L 536.73114 -41.879844 
L 536.680408 -41.879844 
L 536.629676 -41.879844 
L 536.578943 -41.879844 
L 536.528211 -41.879844 
L 536.477479 -41.879844 
L 536.426746 -41.879844 
L 536.376014 -41.879844 
L 536.325282 -41.879844 
L 536.274549 -41.879844 
L 536.223817 -41.879844 
L 536.173085 -41.879844 
L 536.122352 -41.879844 
L 536.07162 -41.879844 
L 536.020888 -41.879844 
L 535.970155 -41.879844 
L 535.919423 -41.879844 
L 535.868691 -41.879844 
L 535.817958 -41.879844 
L 535.767226 -41.879844 
L 535.716494 -41.879844 
L 535.665761 -41.879844 
L 535.615029 -41.879844 
L 535.564297 -41.879844 
L 535.513564 -41.879844 
L 535.462832 -41.879844 
L 535.412099 -41.879844 
L 535.361367 -41.879844 
L 535.310635 -41.879844 
L 535.259902 -41.879844 
L 535.20917 -41.879844 
L 535.158438 -41.879844 
L 535.107705 -41.879844 
L 535.056973 -41.879844 
L 535.006241 -41.879844 
L 534.955508 -41.879844 
L 534.904776 -41.879844 
L 534.854044 -41.879844 
L 534.803311 -41.879844 
L 534.752579 -41.879844 
L 534.701847 -41.879844 
L 534.651114 -41.879844 
L 534.600382 -41.879844 
L 534.54965 -41.879844 
L 534.498917 -41.879844 
L 534.448185 -41.879844 
L 534.397453 -41.879844 
L 534.34672 -41.879844 
L 534.295988 -41.879844 
L 534.245256 -41.879844 
L 534.194523 -41.879844 
L 534.143791 -41.879844 
L 534.093058 -41.879844 
L 534.042326 -41.879844 
L 533.991594 -41.879844 
L 533.940861 -41.879844 
L 533.890129 -41.879844 
L 533.839397 -41.879844 
L 533.788664 -41.879844 
L 533.737932 -41.879844 
L 533.6872 -41.879844 
L 533.636467 -41.879844 
L 533.585735 -41.879844 
L 533.535003 -41.879844 
L 533.48427 -41.879844 
L 533.433538 -41.879844 
L 533.382806 -41.879844 
L 533.332073 -41.879844 
L 533.281341 -41.879844 
L 533.230609 -41.879844 
L 533.179876 -41.879844 
L 533.129144 -41.879844 
L 533.078412 -41.879844 
L 533.027679 -41.879844 
L 532.976947 -41.879844 
L 532.926215 -41.879844 
L 532.875482 -41.879844 
L 532.82475 -41.879844 
L 532.774017 -41.879844 
L 532.723285 -41.879844 
L 532.672553 -41.879844 
L 532.62182 -41.879844 
L 532.571088 -41.879844 
L 532.520356 -41.879844 
L 532.469623 -41.879844 
L 532.418891 -41.879844 
L 532.368159 -41.879844 
L 532.317426 -41.879844 
L 532.266694 -41.879844 
L 532.215962 -41.879844 
L 532.165229 -41.879844 
L 532.114497 -41.879844 
L 532.063765 -41.879844 
L 532.013032 -41.879844 
L 531.9623 -41.879844 
L 531.911568 -41.879844 
L 531.860835 -41.879844 
L 531.810103 -41.879844 
L 531.759371 -41.879844 
L 531.708638 -41.879844 
L 531.657906 -41.879844 
L 531.607174 -41.879844 
L 531.556441 -41.879844 
L 531.505709 -41.879844 
L 531.454977 -41.879844 
L 531.404244 -41.879844 
L 531.353512 -41.879844 
L 531.302779 -41.879844 
L 531.252047 -41.879844 
L 531.201315 -41.879844 
L 531.150582 -41.879844 
L 531.09985 -41.879844 
L 531.049118 -41.879844 
L 530.998385 -41.879844 
L 530.947653 -41.879844 
L 530.896921 -41.879844 
L 530.846188 -41.879844 
L 530.795456 -41.879844 
L 530.744724 -41.879844 
L 530.693991 -41.879844 
L 530.643259 -41.879844 
L 530.592527 -41.879844 
L 530.541794 -41.879844 
L 530.491062 -41.879844 
L 530.44033 -41.879844 
L 530.389597 -41.879844 
L 530.338865 -41.879844 
L 530.288133 -41.879844 
L 530.2374 -41.879844 
L 530.186668 -41.879844 
L 530.135936 -41.879844 
L 530.085203 -41.879844 
L 530.034471 -41.879844 
L 529.983738 -41.879844 
L 529.933006 -41.879844 
L 529.882274 -41.879844 
L 529.831541 -41.879844 
L 529.780809 -41.879844 
L 529.730077 -41.879844 
L 529.679344 -41.879844 
L 529.628612 -41.879844 
L 529.57788 -41.879844 
L 529.527147 -41.879844 
L 529.476415 -41.879844 
L 529.425683 -41.879844 
L 529.37495 -41.879844 
L 529.324218 -41.879844 
L 529.273486 -41.879844 
L 529.222753 -41.879844 
L 529.172021 -41.879844 
L 529.121289 -41.879844 
L 529.070556 -41.879844 
L 529.019824 -41.879844 
L 528.969092 -41.879844 
L 528.918359 -41.879844 
L 528.867627 -41.879844 
L 528.816895 -41.879844 
L 528.766162 -41.879844 
L 528.71543 -41.879844 
L 528.664697 -41.879844 
L 528.613965 -41.879844 
L 528.563233 -41.879844 
L 528.5125 -41.879844 
L 528.461768 -41.879844 
L 528.411036 -41.879844 
L 528.360303 -41.879844 
L 528.309571 -41.879844 
L 528.258839 -41.879844 
L 528.208106 -41.879844 
L 528.157374 -41.879844 
L 528.106642 -41.879844 
L 528.055909 -41.879844 
L 528.005177 -41.879844 
L 527.954445 -41.879844 
L 527.903712 -41.879844 
L 527.85298 -41.879844 
L 527.802248 -41.879844 
L 527.751515 -41.879844 
L 527.700783 -41.879844 
L 527.650051 -41.879844 
L 527.599318 -41.879844 
L 527.548586 -41.879844 
L 527.497854 -41.879844 
L 527.447121 -41.879844 
L 527.396389 -41.879844 
L 527.345656 -41.879844 
L 527.294924 -41.879844 
L 527.244192 -41.879844 
L 527.193459 -41.879844 
L 527.142727 -41.879844 
L 527.091995 -41.879844 
L 527.041262 -41.879844 
L 526.99053 -41.879844 
L 526.939798 -41.879844 
L 526.889065 -41.879844 
L 526.838333 -41.879844 
L 526.787601 -41.879844 
L 526.736868 -41.879844 
L 526.686136 -41.879844 
L 526.635404 -41.879844 
L 526.584671 -41.879844 
L 526.533939 -41.879844 
L 526.483207 -41.879844 
L 526.432474 -41.879844 
L 526.381742 -41.879844 
L 526.33101 -41.879844 
L 526.280277 -41.879844 
L 526.229545 -41.879844 
L 526.178813 -41.879844 
L 526.12808 -41.879844 
L 526.077348 -41.879844 
L 526.026615 -41.879844 
L 525.975883 -41.879844 
L 525.925151 -41.879844 
L 525.874418 -41.879844 
L 525.823686 -41.879844 
L 525.772954 -41.879844 
L 525.722221 -41.879844 
L 525.671489 -41.879844 
L 525.620757 -41.879844 
L 525.570024 -41.879844 
L 525.519292 -41.879844 
L 525.46856 -41.879844 
L 525.417827 -41.879844 
L 525.367095 -41.879844 
L 525.316363 -41.879844 
L 525.26563 -41.879844 
L 525.214898 -41.879844 
L 525.164166 -41.879844 
L 525.113433 -41.879844 
L 525.062701 -41.879844 
L 525.011969 -41.879844 
L 524.961236 -41.879844 
L 524.910504 -41.879844 
L 524.859772 -41.879844 
L 524.809039 -41.879844 
L 524.758307 -41.879844 
L 524.707574 -41.879844 
L 524.656842 -41.879844 
L 524.60611 -41.879844 
L 524.555377 -41.879844 
L 524.504645 -41.879844 
L 524.453913 -41.879844 
L 524.40318 -41.879844 
L 524.352448 -41.879844 
L 524.301716 -41.879844 
L 524.250983 -41.879844 
L 524.200251 -41.879844 
L 524.149519 -41.879844 
L 524.098786 -41.879844 
L 524.048054 -41.879844 
L 523.997322 -41.879844 
L 523.946589 -41.879844 
L 523.895857 -41.879844 
L 523.845125 -41.879844 
L 523.794392 -41.879844 
L 523.74366 -41.879844 
L 523.692928 -41.879844 
L 523.642195 -41.879844 
L 523.591463 -41.879844 
L 523.540731 -41.879844 
L 523.489998 -41.879844 
L 523.439266 -41.879844 
L 523.388533 -41.879844 
L 523.337801 -41.879844 
L 523.287069 -41.879844 
L 523.236336 -41.879844 
L 523.185604 -41.879844 
L 523.134872 -41.879844 
L 523.084139 -41.879844 
L 523.033407 -41.879844 
L 522.982675 -41.879844 
L 522.931942 -41.879844 
L 522.88121 -41.879844 
L 522.830478 -41.879844 
L 522.779745 -41.879844 
L 522.729013 -41.879844 
L 522.678281 -41.879844 
L 522.627548 -41.879844 
L 522.576816 -41.879844 
L 522.526084 -41.879844 
L 522.475351 -41.879844 
L 522.424619 -41.879844 
L 522.373887 -41.879844 
L 522.323154 -41.879844 
L 522.272422 -41.879844 
L 522.22169 -41.879844 
L 522.170957 -41.879844 
L 522.120225 -41.879844 
L 522.069492 -41.879844 
L 522.01876 -41.879844 
L 521.968028 -41.879844 
L 521.917295 -41.879844 
L 521.866563 -41.879844 
L 521.815831 -41.879844 
L 521.765098 -41.879844 
L 521.714366 -41.879844 
L 521.663634 -41.879844 
L 521.612901 -41.879844 
L 521.562169 -41.879844 
L 521.511437 -41.879844 
L 521.460704 -41.879844 
L 521.409972 -41.879844 
L 521.35924 -41.879844 
L 521.308507 -41.879844 
L 521.257775 -41.879844 
L 521.207043 -41.879844 
L 521.15631 -41.879844 
L 521.105578 -41.879844 
L 521.054846 -41.879844 
L 521.004113 -41.879844 
L 520.953381 -41.879844 
L 520.902649 -41.879844 
L 520.851916 -41.879844 
L 520.801184 -41.879844 
L 520.750452 -41.879844 
L 520.699719 -41.879844 
L 520.648987 -41.879844 
L 520.598254 -41.879844 
L 520.547522 -41.879844 
L 520.49679 -41.879844 
L 520.446057 -41.879844 
L 520.395325 -41.879844 
L 520.344593 -41.879844 
L 520.29386 -41.879844 
L 520.243128 -41.879844 
L 520.192396 -41.879844 
L 520.141663 -41.879844 
L 520.090931 -41.879844 
L 520.040199 -41.879844 
L 519.989466 -41.879844 
L 519.938734 -41.879844 
L 519.888002 -41.879844 
L 519.837269 -41.879844 
L 519.786537 -41.879844 
L 519.735805 -41.879844 
L 519.685072 -41.879844 
L 519.63434 -41.879844 
L 519.583608 -41.879844 
L 519.532875 -41.879844 
L 519.482143 -41.879844 
L 519.431411 -41.879844 
L 519.380678 -41.879844 
L 519.329946 -41.879844 
L 519.279213 -41.879844 
L 519.228481 -41.879844 
L 519.177749 -41.879844 
L 519.127016 -41.879844 
L 519.076284 -41.879844 
L 519.025552 -41.879844 
L 518.974819 -41.879844 
L 518.924087 -41.879844 
L 518.873355 -41.879844 
L 518.822622 -41.879844 
L 518.77189 -41.879844 
L 518.721158 -41.879844 
L 518.670425 -41.879844 
L 518.619693 -41.879844 
L 518.568961 -41.879844 
L 518.518228 -41.879844 
L 518.467496 -41.879844 
L 518.416764 -41.879844 
L 518.366031 -41.879844 
L 518.315299 -41.879844 
L 518.264567 -41.879844 
L 518.213834 -41.879844 
L 518.163102 -41.879844 
L 518.11237 -41.879844 
L 518.061637 -41.879844 
L 518.010905 -41.879844 
L 517.960172 -41.879844 
L 517.90944 -41.879844 
L 517.858708 -41.879844 
L 517.807975 -41.879844 
L 517.757243 -41.879844 
L 517.706511 -41.879844 
L 517.655778 -41.879844 
L 517.605046 -41.879844 
L 517.554314 -41.879844 
L 517.503581 -41.879844 
L 517.452849 -41.879844 
L 517.402117 -41.879844 
L 517.351384 -41.879844 
L 517.300652 -41.879844 
L 517.24992 -41.879844 
L 517.199187 -41.879844 
L 517.148455 -41.879844 
L 517.097723 -41.879844 
L 517.04699 -41.879844 
L 516.996258 -41.879844 
L 516.945526 -41.879844 
L 516.894793 -41.879844 
L 516.844061 -41.879844 
L 516.793329 -41.879844 
L 516.742596 -41.879844 
L 516.691864 -41.879844 
L 516.641131 -41.879844 
L 516.590399 -41.879844 
L 516.539667 -41.879844 
L 516.488934 -41.879844 
L 516.438202 -41.879844 
L 516.38747 -41.879844 
L 516.336737 -41.879844 
L 516.286005 -41.879844 
L 516.235273 -41.879844 
L 516.18454 -41.879844 
L 516.133808 -41.879844 
L 516.083076 -41.879844 
L 516.032343 -41.879844 
L 515.981611 -41.879844 
L 515.930879 -41.879844 
L 515.880146 -41.879844 
L 515.829414 -41.879844 
L 515.778682 -41.879844 
L 515.727949 -41.879844 
L 515.677217 -41.879844 
L 515.626485 -41.879844 
L 515.575752 -41.879844 
L 515.52502 -41.879844 
L 515.474288 -41.879844 
L 515.423555 -41.879844 
L 515.372823 -41.879844 
L 515.32209 -41.879844 
L 515.271358 -41.879844 
L 515.220626 -41.879844 
L 515.169893 -41.879844 
L 515.119161 -41.879844 
L 515.068429 -41.879844 
L 515.017696 -41.879844 
L 514.966964 -41.879844 
L 514.916232 -41.879844 
L 514.865499 -41.879844 
L 514.814767 -41.879844 
L 514.764035 -41.879844 
L 514.713302 -41.879844 
L 514.66257 -41.879844 
L 514.611838 -41.879844 
L 514.561105 -41.879844 
L 514.510373 -41.879844 
L 514.459641 -41.879844 
L 514.408908 -41.879844 
L 514.358176 -41.879844 
L 514.307444 -41.879844 
L 514.256711 -41.879844 
L 514.205979 -41.879844 
L 514.155247 -41.879844 
L 514.104514 -41.879844 
L 514.053782 -41.879844 
L 514.003049 -41.879844 
L 513.952317 -41.879844 
L 513.901585 -41.879844 
L 513.850852 -41.879844 
L 513.80012 -41.879844 
L 513.749388 -41.879844 
L 513.698655 -41.879844 
L 513.647923 -41.879844 
L 513.597191 -41.879844 
L 513.546458 -41.879844 
L 513.495726 -41.879844 
L 513.444994 -41.879844 
L 513.394261 -41.879844 
L 513.343529 -41.879844 
L 513.292797 -41.879844 
L 513.242064 -41.879844 
L 513.191332 -41.879844 
L 513.1406 -41.879844 
L 513.089867 -41.879844 
L 513.039135 -41.879844 
L 512.988403 -41.879844 
L 512.93767 -41.879844 
L 512.886938 -41.879844 
L 512.836206 -41.879844 
L 512.785473 -41.879844 
L 512.734741 -41.879844 
L 512.684008 -41.879844 
L 512.633276 -41.879844 
L 512.582544 -41.879844 
L 512.531811 -41.879844 
L 512.481079 -41.879844 
L 512.430347 -41.879844 
L 512.379614 -41.879844 
L 512.328882 -41.879844 
L 512.27815 -41.879844 
L 512.227417 -41.879844 
L 512.176685 -41.879844 
L 512.125953 -41.879844 
L 512.07522 -41.879844 
L 512.024488 -41.879844 
L 511.973756 -41.879844 
L 511.923023 -41.879844 
L 511.872291 -41.879844 
L 511.821559 -41.879844 
L 511.770826 -41.879844 
L 511.720094 -41.879844 
L 511.669362 -41.879844 
L 511.618629 -41.879844 
L 511.567897 -41.879844 
L 511.517165 -41.879844 
L 511.466432 -41.879844 
L 511.4157 -41.879844 
L 511.364967 -41.879844 
L 511.314235 -41.879844 
L 511.263503 -41.879844 
L 511.21277 -41.879844 
L 511.162038 -41.879844 
L 511.111306 -41.879844 
L 511.060573 -41.879844 
L 511.009841 -41.879844 
L 510.959109 -41.879844 
L 510.908376 -41.879844 
L 510.857644 -41.879844 
L 510.806912 -41.879844 
L 510.756179 -41.879844 
L 510.705447 -41.879844 
L 510.654715 -41.879844 
L 510.603982 -41.879844 
L 510.55325 -41.879844 
L 510.502518 -41.879844 
L 510.451785 -41.879844 
L 510.401053 -41.879844 
L 510.350321 -41.879844 
L 510.299588 -41.879844 
L 510.248856 -41.879844 
L 510.198124 -41.879844 
L 510.147391 -41.879844 
L 510.096659 -41.879844 
L 510.045927 -41.879844 
L 509.995194 -41.879844 
L 509.944462 -41.879844 
L 509.893729 -41.879844 
L 509.842997 -41.879844 
L 509.792265 -41.879844 
L 509.741532 -41.879844 
L 509.6908 -41.879844 
L 509.640068 -41.879844 
L 509.589335 -41.879844 
L 509.538603 -41.879844 
L 509.487871 -41.879844 
L 509.437138 -41.879844 
L 509.386406 -41.879844 
L 509.335674 -41.879844 
L 509.284941 -41.879844 
L 509.234209 -41.879844 
L 509.183477 -41.879844 
L 509.132744 -41.879844 
L 509.082012 -41.879844 
L 509.03128 -41.879844 
L 508.980547 -41.879844 
L 508.929815 -41.879844 
L 508.879083 -41.879844 
L 508.82835 -41.879844 
L 508.777618 -41.879844 
L 508.726886 -41.879844 
L 508.676153 -41.879844 
L 508.625421 -41.879844 
L 508.574688 -41.879844 
L 508.523956 -41.879844 
L 508.473224 -41.879844 
L 508.422491 -41.879844 
L 508.371759 -41.879844 
L 508.321027 -41.879844 
L 508.270294 -41.879844 
L 508.219562 -41.879844 
L 508.16883 -41.879844 
L 508.118097 -41.879844 
L 508.067365 -41.879844 
L 508.016633 -41.879844 
L 507.9659 -41.879844 
L 507.915168 -41.879844 
L 507.864436 -41.879844 
L 507.813703 -41.879844 
L 507.762971 -41.879844 
L 507.712239 -41.879844 
L 507.661506 -41.879844 
L 507.610774 -41.879844 
L 507.560042 -41.879844 
L 507.509309 -41.879844 
L 507.458577 -41.879844 
L 507.407845 -41.879844 
L 507.357112 -41.879844 
L 507.30638 -41.879844 
L 507.255647 -41.879844 
L 507.204915 -41.879844 
L 507.154183 -41.879844 
L 507.10345 -41.879844 
L 507.052718 -41.879844 
L 507.001986 -41.879844 
L 506.951253 -41.879844 
L 506.900521 -41.879844 
L 506.849789 -41.879844 
L 506.799056 -41.879844 
L 506.748324 -41.879844 
L 506.697592 -41.879844 
L 506.646859 -41.879844 
L 506.596127 -41.879844 
L 506.545395 -41.879844 
L 506.494662 -41.879844 
L 506.44393 -41.879844 
L 506.393198 -41.879844 
L 506.342465 -41.879844 
L 506.291733 -41.879844 
L 506.241001 -41.879844 
L 506.190268 -41.879844 
L 506.139536 -41.879844 
L 506.088804 -41.879844 
L 506.038071 -41.879844 
L 505.987339 -41.879844 
L 505.936606 -41.879844 
L 505.885874 -41.879844 
L 505.835142 -41.879844 
L 505.784409 -41.879844 
L 505.733677 -41.879844 
L 505.682945 -41.879844 
L 505.632212 -41.879844 
L 505.58148 -41.879844 
L 505.530748 -41.879844 
L 505.480015 -41.879844 
L 505.429283 -41.879844 
L 505.378551 -41.879844 
L 505.327818 -41.879844 
L 505.277086 -41.879844 
L 505.226354 -41.879844 
L 505.175621 -41.879844 
L 505.124889 -41.879844 
L 505.074157 -41.879844 
L 505.023424 -41.879844 
L 504.972692 -41.879844 
L 504.92196 -41.879844 
L 504.871227 -41.879844 
L 504.820495 -41.879844 
L 504.769763 -41.879844 
L 504.71903 -41.879844 
L 504.668298 -41.879844 
L 504.617565 -41.879844 
L 504.566833 -41.879844 
L 504.516101 -41.879844 
L 504.465368 -41.879844 
L 504.414636 -41.879844 
L 504.363904 -41.879844 
L 504.313171 -41.879844 
L 504.262439 -41.879844 
L 504.211707 -41.879844 
L 504.160974 -41.879844 
L 504.110242 -41.879844 
L 504.05951 -41.879844 
L 504.008777 -41.879844 
L 503.958045 -41.879844 
L 503.907313 -41.879844 
L 503.85658 -41.879844 
L 503.805848 -41.879844 
L 503.755116 -41.879844 
L 503.704383 -41.879844 
L 503.653651 -41.879844 
L 503.602919 -41.879844 
L 503.552186 -41.879844 
L 503.501454 -41.879844 
L 503.450722 -41.879844 
L 503.399989 -41.879844 
L 503.349257 -41.879844 
L 503.298524 -41.879844 
L 503.247792 -41.879844 
L 503.19706 -41.879844 
L 503.146327 -41.879844 
L 503.095595 -41.879844 
L 503.044863 -41.879844 
L 502.99413 -41.879844 
L 502.943398 -41.879844 
L 502.892666 -41.879844 
L 502.841933 -41.879844 
L 502.791201 -41.879844 
L 502.740469 -41.879844 
L 502.689736 -41.879844 
L 502.639004 -41.879844 
L 502.588272 -41.879844 
L 502.537539 -41.879844 
L 502.486807 -41.879844 
L 502.436075 -41.879844 
L 502.385342 -41.879844 
L 502.33461 -41.879844 
L 502.283878 -41.879844 
L 502.233145 -41.879844 
L 502.182413 -41.879844 
L 502.131681 -41.879844 
L 502.080948 -41.879844 
L 502.030216 -41.879844 
L 501.979483 -41.879844 
L 501.928751 -41.879844 
L 501.878019 -41.879844 
L 501.827286 -41.879844 
L 501.776554 -41.879844 
L 501.725822 -41.879844 
L 501.675089 -41.879844 
L 501.624357 -41.879844 
L 501.573625 -41.879844 
L 501.522892 -41.879844 
L 501.47216 -41.879844 
L 501.421428 -41.879844 
L 501.370695 -41.879844 
L 501.319963 -41.879844 
L 501.269231 -41.879844 
L 501.218498 -41.879844 
L 501.167766 -41.879844 
L 501.117034 -41.879844 
L 501.066301 -41.879844 
L 501.015569 -41.879844 
L 500.964837 -41.879844 
L 500.914104 -41.879844 
L 500.863372 -41.879844 
L 500.81264 -41.879844 
L 500.761907 -41.879844 
L 500.711175 -41.879844 
L 500.660443 -41.879844 
L 500.60971 -41.879844 
L 500.558978 -41.879844 
L 500.508245 -41.879844 
L 500.457513 -41.879844 
L 500.406781 -41.879844 
L 500.356048 -41.879844 
L 500.305316 -41.879844 
L 500.254584 -41.879844 
L 500.203851 -41.879844 
L 500.153119 -41.879844 
L 500.102387 -41.879844 
L 500.051654 -41.879844 
L 500.000922 -41.879844 
L 499.95019 -41.879844 
L 499.899457 -41.879844 
L 499.848725 -41.879844 
L 499.797993 -41.879844 
L 499.74726 -41.879844 
L 499.696528 -41.879844 
L 499.645796 -41.879844 
L 499.595063 -41.879844 
L 499.544331 -41.879844 
L 499.493599 -41.879844 
L 499.442866 -41.879844 
L 499.392134 -41.879844 
L 499.341402 -41.879844 
L 499.290669 -41.879844 
L 499.239937 -41.879844 
L 499.189204 -41.879844 
L 499.138472 -41.879844 
L 499.08774 -41.879844 
L 499.037007 -41.879844 
L 498.986275 -41.879844 
L 498.935543 -41.879844 
L 498.88481 -41.879844 
L 498.834078 -41.879844 
L 498.783346 -41.879844 
L 498.732613 -41.879844 
L 498.681881 -41.879844 
L 498.631149 -41.879844 
L 498.580416 -41.879844 
L 498.529684 -41.879844 
L 498.478952 -41.879844 
L 498.428219 -41.879844 
L 498.377487 -41.879844 
L 498.326755 -41.879844 
L 498.276022 -41.879844 
L 498.22529 -41.879844 
L 498.174558 -41.879844 
L 498.123825 -41.879844 
L 498.073093 -41.879844 
L 498.022361 -41.879844 
L 497.971628 -41.879844 
L 497.920896 -41.879844 
L 497.870163 -41.879844 
L 497.819431 -41.879844 
L 497.768699 -41.879844 
L 497.717966 -41.879844 
L 497.667234 -41.879844 
L 497.616502 -41.879844 
L 497.565769 -41.879844 
L 497.515037 -41.879844 
L 497.464305 -41.879844 
L 497.413572 -41.879844 
L 497.36284 -41.879844 
L 497.312108 -41.879844 
L 497.261375 -41.879844 
L 497.210643 -41.879844 
L 497.159911 -41.879844 
L 497.109178 -41.879844 
L 497.058446 -41.879844 
L 497.007714 -41.879844 
L 496.956981 -41.879844 
L 496.906249 -41.879844 
L 496.855517 -41.879844 
L 496.804784 -41.879844 
L 496.754052 -41.879844 
L 496.70332 -41.879844 
L 496.652587 -41.879844 
L 496.601855 -41.879844 
L 496.551122 -41.879844 
L 496.50039 -41.879844 
L 496.449658 -41.879844 
L 496.398925 -41.879844 
L 496.348193 -41.879844 
L 496.297461 -41.879844 
L 496.246728 -41.879844 
L 496.195996 -41.879844 
L 496.145264 -41.879844 
L 496.094531 -41.879844 
L 496.043799 -41.879844 
L 495.993067 -41.879844 
L 495.942334 -41.879844 
L 495.891602 -41.879844 
L 495.84087 -41.879844 
L 495.790137 -41.879844 
L 495.739405 -41.879844 
L 495.688673 -41.879844 
L 495.63794 -41.879844 
L 495.587208 -41.879844 
L 495.536476 -41.879844 
L 495.485743 -41.879844 
L 495.435011 -41.879844 
L 495.384279 -41.879844 
L 495.333546 -41.879844 
L 495.282814 -41.879844 
L 495.232081 -41.879844 
L 495.181349 -41.879844 
L 495.130617 -41.879844 
L 495.079884 -41.879844 
L 495.029152 -41.879844 
L 494.97842 -41.879844 
L 494.927687 -41.879844 
L 494.876955 -41.879844 
L 494.826223 -41.879844 
L 494.77549 -41.879844 
L 494.724758 -41.879844 
L 494.674026 -41.879844 
L 494.623293 -41.879844 
L 494.572561 -41.879844 
L 494.521829 -41.879844 
L 494.471096 -41.879844 
L 494.420364 -41.879844 
L 494.369632 -41.879844 
L 494.318899 -41.879844 
L 494.268167 -41.879844 
L 494.217435 -41.879844 
L 494.166702 -41.879844 
L 494.11597 -41.879844 
L 494.065238 -41.879844 
L 494.014505 -41.879844 
L 493.963773 -41.879844 
L 493.91304 -41.879844 
L 493.862308 -41.879844 
L 493.811576 -41.879844 
L 493.760843 -41.879844 
L 493.710111 -41.879844 
L 493.659379 -41.879844 
L 493.608646 -41.879844 
L 493.557914 -41.879844 
L 493.507182 -41.879844 
L 493.456449 -41.879844 
L 493.405717 -41.879844 
L 493.354985 -41.879844 
L 493.304252 -41.879844 
L 493.25352 -41.879844 
L 493.202788 -41.879844 
L 493.152055 -41.879844 
L 493.101323 -41.879844 
L 493.050591 -41.879844 
L 492.999858 -41.879844 
L 492.949126 -41.879844 
L 492.898394 -41.879844 
L 492.847661 -41.879844 
L 492.796929 -41.879844 
L 492.746197 -41.879844 
L 492.695464 -41.879844 
L 492.644732 -41.879844 
L 492.593999 -41.879844 
L 492.543267 -41.879844 
L 492.492535 -41.879844 
L 492.441802 -41.879844 
L 492.39107 -41.879844 
L 492.340338 -41.879844 
z
" style="stroke: #bfbfbf"/>
    </defs>
    <g clip-path="url(#p12769a0122)">
     <use xlink:href="#me04d59cdf2" x="0" y="366.599844" style="fill: #bfbfbf; stroke: #bfbfbf"/>
    </g>
   </g>
   <g id="line2d_12">
    <path d="M 69.587699 321.360639 
L 77.045354 320.359936 
L 83.843488 319.227489 
L 90.134299 317.958173 
L 96.019251 316.547496 
L 101.599809 314.982534 
L 106.875973 313.274198 
L 111.949208 311.398552 
L 116.819513 309.361484 
L 121.537621 307.147176 
L 126.103532 304.76006 
L 130.567979 302.17642 
L 134.981693 299.363144 
L 139.293942 296.350564 
L 143.555459 293.102869 
L 147.816976 289.572793 
L 152.027761 285.795042 
L 156.238546 281.718044 
L 160.44933 277.331716 
L 164.710848 272.568698 
L 169.023097 267.409881 
L 173.386079 261.837532 
L 177.799793 255.8358 
L 182.314972 249.315889 
L 186.931615 242.2545 
L 191.700456 234.548035 
L 196.621493 226.169134 
L 201.796192 216.911898 
L 207.275286 206.64373 
L 213.160238 195.130757 
L 219.653978 181.924916 
L 227.26383 165.923602 
L 238.120552 142.515762 
L 252.325609 111.96543 
L 259.377405 97.343858 
L 265.160893 85.84866 
L 270.234127 76.246807 
L 274.800038 68.066933 
L 279.010823 60.967507 
L 282.917214 54.805156 
L 286.569943 49.444953 
L 290.019742 44.765071 
L 293.317345 40.659759 
L 296.46275 37.095864 
L 299.455958 34.036751 
L 302.29697 31.443328 
L 305.036516 29.236778 
L 307.674598 27.391466 
L 310.211216 25.880776 
L 312.697101 24.655031 
L 315.132253 23.70186 
L 317.516674 23.008245 
L 319.850361 22.560651 
L 322.133317 22.345152 
L 324.416273 22.350051 
L 326.699228 22.575338 
L 329.032916 23.032905 
L 331.366604 23.719202 
L 333.751024 24.655031 
L 336.186177 25.853228 
L 338.672062 27.326046 
L 341.259411 29.122807 
L 343.897493 31.226766 
L 346.63704 33.695861 
L 349.528784 36.607968 
L 352.521992 39.942676 
L 355.667398 43.785058 
L 358.965 48.169022 
L 362.465532 53.200288 
L 366.168993 58.920123 
L 370.126116 65.448994 
L 374.387633 72.918504 
L 379.004277 81.466255 
L 384.128244 91.429898 
L 390.013196 103.376171 
L 397.166457 118.426672 
L 408.073911 141.965477 
L 421.771645 171.416486 
L 429.432229 187.347079 
L 435.925969 200.3499 
L 441.810921 211.645054 
L 447.290015 221.686857 
L 452.464714 230.713785 
L 457.436484 238.944102 
L 462.205324 246.415456 
L 466.8727 253.317605 
L 471.387879 259.604283 
L 475.852325 265.442382 
L 480.215307 270.78722 
L 484.527556 275.724569 
L 488.839806 280.325564 
L 493.101323 284.550597 
L 497.36284 288.46576 
L 501.624357 292.082353 
L 505.936606 295.450698 
L 510.248856 298.539613 
L 514.611838 301.395084 
L 519.076284 304.051904 
L 523.642195 306.508965 
L 528.309571 308.767155 
L 533.129144 310.849959 
L 538.100914 312.754806 
L 543.275613 314.497715 
L 548.703974 316.088701 
L 554.385997 317.521314 
L 560.423146 318.813169 
L 566.916886 319.972255 
L 573.91795 320.993179 
L 576.860426 321.360639 
L 576.860426 321.360639 
" clip-path="url(#p12769a0122)" style="fill: none; stroke: #0173b2; stroke-width: 1.5; stroke-linecap: round"/>
   </g>
   <g id="patch_3">
    <path d="M 44.224063 339.84 
L 44.224063 7.2 
" style="fill: none; stroke: #ffffff; stroke-width: 1.25; stroke-linejoin: miter; stroke-linecap: square"/>
   </g>
   <g id="patch_4">
    <path d="M 602.224062 339.84 
L 602.224062 7.2 
" style="fill: none; stroke: #ffffff; stroke-width: 1.25; stroke-linejoin: miter; stroke-linecap: square"/>
   </g>
   <g id="patch_5">
    <path d="M 44.224062 339.84 
L 602.224063 339.84 
" style="fill: none; stroke: #ffffff; stroke-width: 1.25; stroke-linejoin: miter; stroke-linecap: square"/>
   </g>
   <g id="patch_6">
    <path d="M 44.224062 7.2 
L 602.224063 7.2 
" style="fill: none; stroke: #ffffff; stroke-width: 1.25; stroke-linejoin: miter; stroke-linecap: square"/>
   </g>
  </g>
 </g>
 <defs>
  <clipPath id="p12769a0122">
   <rect x="44.224063" y="7.2" width="558" height="332.64"/>
  </clipPath>
 </defs>
</svg>