<?xml version="1.0" encoding="UTF-8" standalone="no"?>
<!DOCTYPE svg PUBLIC "-//W3C//DTD SVG 1.1//EN"
 "http://www.w3.org/Graphics/SVG/1.1/DTD/svg11.dtd">
<!-- Generated by graphviz version 8.0.5 (20230430.1635)
 -->
<!-- Pages: 1 -->
<svg width="322pt" height="247pt"
 viewBox="0.00 0.00 322.46 247.13" xmlns="http://www.w3.org/2000/svg" xmlns:xlink="http://www.w3.org/1999/xlink">
<g id="graph0" class="graph" transform="scale(1 1) rotate(0) translate(4 243.13)">
<polygon fill="white" stroke="none" points="-4,4 -4,-243.13 318.46,-243.13 318.46,4 -4,4"/>
<g id="clust1" class="cluster">
<title>cluster100</title>
<path fill="none" stroke="black" d="M136.45,-8C136.45,-8 210.45,-8 210.45,-8 216.45,-8 222.45,-14 222.45,-20 222.45,-20 222.45,-117.82 222.45,-117.82 222.45,-123.82 216.45,-129.82 210.45,-129.82 210.45,-129.82 136.45,-129.82 136.45,-129.82 130.45,-129.82 124.45,-123.82 124.45,-117.82 124.45,-117.82 124.45,-20 124.45,-20 124.45,-14 130.45,-8 136.45,-8"/>
<text text-anchor="middle" x="204.33" y="-15.2" font-family="Times,serif" font-size="14.00">100</text>
</g>
<!-- sigma -->
<g id="node1" class="node">
<title>sigma</title>
<ellipse fill="none" stroke="black" cx="57.45" cy="-198.48" rx="57.45" ry="40.66"/>
<text text-anchor="middle" x="57.45" y="-209.93" font-family="Times,serif" font-size="14.00">sigma</text>
<text text-anchor="middle" x="57.45" y="-193.43" font-family="Times,serif" font-size="14.00">~</text>
<text text-anchor="middle" x="57.45" y="-176.93" font-family="Times,serif" font-size="14.00">HalfCauchy</text>
</g>
<!-- y -->
<g id="node4" class="node">
<title>y</title>
<ellipse fill="lightgrey" stroke="black" cx="173.45" cy="-81.16" rx="41.01" ry="40.66"/>
<text text-anchor="middle" x="173.45" y="-92.61" font-family="Times,serif" font-size="14.00">y</text>
<text text-anchor="middle" x="173.45" y="-76.11" font-family="Times,serif" font-size="14.00">~</text>
<text text-anchor="middle" x="173.45" y="-59.61" font-family="Times,serif" font-size="14.00">Normal</text>
</g>
<!-- sigma&#45;&gt;y -->
<g id="edge1" class="edge">
<title>sigma&#45;&gt;y</title>
<path fill="none" stroke="black" d="M90.38,-164.74C104.99,-150.22 122.21,-133.1 137.18,-118.22"/>
<polygon fill="black" stroke="black" points="139.15,-121.2 143.78,-111.66 134.22,-116.23 139.15,-121.2"/>
</g>
<!-- alpha -->
<g id="node2" class="node">
<title>alpha</title>
<ellipse fill="none" stroke="black" cx="173.45" cy="-198.48" rx="41.01" ry="40.66"/>
<text text-anchor="middle" x="173.45" y="-209.93" font-family="Times,serif" font-size="14.00">alpha</text>
<text text-anchor="middle" x="173.45" y="-193.43" font-family="Times,serif" font-size="14.00">~</text>
<text text-anchor="middle" x="173.45" y="-176.93" font-family="Times,serif" font-size="14.00">Normal</text>
</g>
<!-- alpha&#45;&gt;y -->
<g id="edge2" class="edge">
<title>alpha&#45;&gt;y</title>
<path fill="none" stroke="black" d="M173.45,-157.47C173.45,-149.6 173.45,-141.24 173.45,-133.07"/>
<polygon fill="black" stroke="black" points="176.95,-133.1 173.45,-123.1 169.95,-133.1 176.95,-133.1"/>
</g>
<!-- beta -->
<g id="node3" class="node">
<title>beta</title>
<ellipse fill="none" stroke="black" cx="273.45" cy="-198.48" rx="41.01" ry="40.66"/>
<text text-anchor="middle" x="273.45" y="-209.93" font-family="Times,serif" font-size="14.00">beta</text>
<text text-anchor="middle" x="273.45" y="-193.43" font-family="Times,serif" font-size="14.00">~</text>
<text text-anchor="middle" x="273.45" y="-176.93" font-family="Times,serif" font-size="14.00">Normal</text>
</g>
<!-- beta&#45;&gt;y -->
<g id="edge3" class="edge">
<title>beta&#45;&gt;y</title>
<path fill="none" stroke="black" d="M246.92,-166.88C234.61,-152.69 219.86,-135.67 206.81,-120.63"/>
<polygon fill="black" stroke="black" points="208.96,-118.76 199.77,-113.5 203.67,-123.35 208.96,-118.76"/>
</g>
</g>
</svg>