<?xml version="1.0" encoding="utf-8" standalone="no"?>
<!DOCTYPE svg PUBLIC "-//W3C//DTD SVG 1.1//EN"
  "http://www.w3.org/Graphics/SVG/1.1/DTD/svg11.dtd">
<svg xmlns:xlink="http://www.w3.org/1999/xlink" width="572.4pt" height="381.189219pt" viewBox="0 0 572.4 381.189219" xmlns="http://www.w3.org/2000/svg" version="1.1">
 <metadata>
  <rdf:RDF xmlns:dc="http://purl.org/dc/elements/1.1/" xmlns:cc="http://creativecommons.org/ns#" xmlns:rdf="http://www.w3.org/1999/02/22-rdf-syntax-ns#">
   <cc:Work>
    <dc:type rdf:resource="http://purl.org/dc/dcmitype/StillImage"/>
    <dc:date>2023-06-17T10:54:29.046922</dc:date>
    <dc:format>image/svg+xml</dc:format>
    <dc:creator>
     <cc:Agent>
      <dc:title>Matplotlib v3.7.1, https://matplotlib.org/</dc:title>
     </cc:Agent>
    </dc:creator>
   </cc:Work>
  </rdf:RDF>
 </metadata>
 <defs>
  <style type="text/css">*{stroke-linejoin: round; stroke-linecap: butt}</style>
 </defs>
 <g id="figure_1">
  <g id="patch_1">
   <path d="M 0 381.189219 
L 572.4 381.189219 
L 572.4 0 
L 0 0 
z
" style="fill: #ffffff"/>
  </g>
  <g id="axes_1">
   <g id="patch_2">
    <path d="M 7.2 354.429375 
L 565.2 354.429375 
L 565.2 21.789375 
L 7.2 21.789375 
z
" style="fill: #eaeaf2"/>
   </g>
   <g id="matplotlib.axis_1">
    <g id="xtick_1">
     <g id="line2d_1">
      <path d="M 47.069343 354.429375 
L 47.069343 21.789375 
" clip-path="url(#pfe5d990d82)" style="fill: none; stroke: #ffffff; stroke-linecap: round"/>
     </g>
     <g id="text_1">
      <!-- 0.0 -->
      <g style="fill: #262626" transform="translate(39.424343 371.802969) scale(0.11 -0.11)">
       <defs>
        <path id="ArialMT-30" d="M 266 2259 
Q 266 3072 433 3567 
Q 600 4063 929 4331 
Q 1259 4600 1759 4600 
Q 2128 4600 2406 4451 
Q 2684 4303 2865 4023 
Q 3047 3744 3150 3342 
Q 3253 2941 3253 2259 
Q 3253 1453 3087 958 
Q 2922 463 2592 192 
Q 2263 -78 1759 -78 
Q 1097 -78 719 397 
Q 266 969 266 2259 
z
M 844 2259 
Q 844 1131 1108 757 
Q 1372 384 1759 384 
Q 2147 384 2411 759 
Q 2675 1134 2675 2259 
Q 2675 3391 2411 3762 
Q 2147 4134 1753 4134 
Q 1366 4134 1134 3806 
Q 844 3388 844 2259 
z
" transform="scale(0.015625)"/>
        <path id="ArialMT-2e" d="M 581 0 
L 581 641 
L 1222 641 
L 1222 0 
L 581 0 
z
" transform="scale(0.015625)"/>
       </defs>
       <use xlink:href="#ArialMT-30"/>
       <use xlink:href="#ArialMT-2e" x="55.615234"/>
       <use xlink:href="#ArialMT-30" x="83.398438"/>
      </g>
     </g>
    </g>
    <g id="xtick_2">
     <g id="line2d_2">
      <path d="M 118.80854 354.429375 
L 118.80854 21.789375 
" clip-path="url(#pfe5d990d82)" style="fill: none; stroke: #ffffff; stroke-linecap: round"/>
     </g>
     <g id="text_2">
      <!-- 0.2 -->
      <g style="fill: #262626" transform="translate(111.16354 371.802969) scale(0.11 -0.11)">
       <defs>
        <path id="ArialMT-32" d="M 3222 541 
L 3222 0 
L 194 0 
Q 188 203 259 391 
Q 375 700 629 1000 
Q 884 1300 1366 1694 
Q 2113 2306 2375 2664 
Q 2638 3022 2638 3341 
Q 2638 3675 2398 3904 
Q 2159 4134 1775 4134 
Q 1369 4134 1125 3890 
Q 881 3647 878 3216 
L 300 3275 
Q 359 3922 746 4261 
Q 1134 4600 1788 4600 
Q 2447 4600 2831 4234 
Q 3216 3869 3216 3328 
Q 3216 3053 3103 2787 
Q 2991 2522 2730 2228 
Q 2469 1934 1863 1422 
Q 1356 997 1212 845 
Q 1069 694 975 541 
L 3222 541 
z
" transform="scale(0.015625)"/>
       </defs>
       <use xlink:href="#ArialMT-30"/>
       <use xlink:href="#ArialMT-2e" x="55.615234"/>
       <use xlink:href="#ArialMT-32" x="83.398438"/>
      </g>
     </g>
    </g>
    <g id="xtick_3">
     <g id="line2d_3">
      <path d="M 190.547737 354.429375 
L 190.547737 21.789375 
" clip-path="url(#pfe5d990d82)" style="fill: none; stroke: #ffffff; stroke-linecap: round"/>
     </g>
     <g id="text_3">
      <!-- 0.4 -->
      <g style="fill: #262626" transform="translate(182.902737 371.802969) scale(0.11 -0.11)">
       <defs>
        <path id="ArialMT-34" d="M 2069 0 
L 2069 1097 
L 81 1097 
L 81 1613 
L 2172 4581 
L 2631 4581 
L 2631 1613 
L 3250 1613 
L 3250 1097 
L 2631 1097 
L 2631 0 
L 2069 0 
z
M 2069 1613 
L 2069 3678 
L 634 1613 
L 2069 1613 
z
" transform="scale(0.015625)"/>
       </defs>
       <use xlink:href="#ArialMT-30"/>
       <use xlink:href="#ArialMT-2e" x="55.615234"/>
       <use xlink:href="#ArialMT-34" x="83.398438"/>
      </g>
     </g>
    </g>
    <g id="xtick_4">
     <g id="line2d_4">
      <path d="M 262.286934 354.429375 
L 262.286934 21.789375 
" clip-path="url(#pfe5d990d82)" style="fill: none; stroke: #ffffff; stroke-linecap: round"/>
     </g>
     <g id="text_4">
      <!-- 0.6 -->
      <g style="fill: #262626" transform="translate(254.641934 371.802969) scale(0.11 -0.11)">
       <defs>
        <path id="ArialMT-36" d="M 3184 3459 
L 2625 3416 
Q 2550 3747 2413 3897 
Q 2184 4138 1850 4138 
Q 1581 4138 1378 3988 
Q 1113 3794 959 3422 
Q 806 3050 800 2363 
Q 1003 2672 1297 2822 
Q 1591 2972 1913 2972 
Q 2475 2972 2870 2558 
Q 3266 2144 3266 1488 
Q 3266 1056 3080 686 
Q 2894 316 2569 119 
Q 2244 -78 1831 -78 
Q 1128 -78 684 439 
Q 241 956 241 2144 
Q 241 3472 731 4075 
Q 1159 4600 1884 4600 
Q 2425 4600 2770 4297 
Q 3116 3994 3184 3459 
z
M 888 1484 
Q 888 1194 1011 928 
Q 1134 663 1356 523 
Q 1578 384 1822 384 
Q 2178 384 2434 671 
Q 2691 959 2691 1453 
Q 2691 1928 2437 2201 
Q 2184 2475 1800 2475 
Q 1419 2475 1153 2201 
Q 888 1928 888 1484 
z
" transform="scale(0.015625)"/>
       </defs>
       <use xlink:href="#ArialMT-30"/>
       <use xlink:href="#ArialMT-2e" x="55.615234"/>
       <use xlink:href="#ArialMT-36" x="83.398438"/>
      </g>
     </g>
    </g>
    <g id="xtick_5">
     <g id="line2d_5">
      <path d="M 334.026131 354.429375 
L 334.026131 21.789375 
" clip-path="url(#pfe5d990d82)" style="fill: none; stroke: #ffffff; stroke-linecap: round"/>
     </g>
     <g id="text_5">
      <!-- 0.8 -->
      <g style="fill: #262626" transform="translate(326.381131 371.802969) scale(0.11 -0.11)">
       <defs>
        <path id="ArialMT-38" d="M 1131 2484 
Q 781 2613 612 2850 
Q 444 3088 444 3419 
Q 444 3919 803 4259 
Q 1163 4600 1759 4600 
Q 2359 4600 2725 4251 
Q 3091 3903 3091 3403 
Q 3091 3084 2923 2848 
Q 2756 2613 2416 2484 
Q 2838 2347 3058 2040 
Q 3278 1734 3278 1309 
Q 3278 722 2862 322 
Q 2447 -78 1769 -78 
Q 1091 -78 675 323 
Q 259 725 259 1325 
Q 259 1772 486 2073 
Q 713 2375 1131 2484 
z
M 1019 3438 
Q 1019 3113 1228 2906 
Q 1438 2700 1772 2700 
Q 2097 2700 2305 2904 
Q 2513 3109 2513 3406 
Q 2513 3716 2298 3927 
Q 2084 4138 1766 4138 
Q 1444 4138 1231 3931 
Q 1019 3725 1019 3438 
z
M 838 1322 
Q 838 1081 952 856 
Q 1066 631 1291 507 
Q 1516 384 1775 384 
Q 2178 384 2440 643 
Q 2703 903 2703 1303 
Q 2703 1709 2433 1975 
Q 2163 2241 1756 2241 
Q 1359 2241 1098 1978 
Q 838 1716 838 1322 
z
" transform="scale(0.015625)"/>
       </defs>
       <use xlink:href="#ArialMT-30"/>
       <use xlink:href="#ArialMT-2e" x="55.615234"/>
       <use xlink:href="#ArialMT-38" x="83.398438"/>
      </g>
     </g>
    </g>
    <g id="xtick_6">
     <g id="line2d_6">
      <path d="M 405.765328 354.429375 
L 405.765328 21.789375 
" clip-path="url(#pfe5d990d82)" style="fill: none; stroke: #ffffff; stroke-linecap: round"/>
     </g>
     <g id="text_6">
      <!-- 1.0 -->
      <g style="fill: #262626" transform="translate(398.120328 371.802969) scale(0.11 -0.11)">
       <defs>
        <path id="ArialMT-31" d="M 2384 0 
L 1822 0 
L 1822 3584 
Q 1619 3391 1289 3197 
Q 959 3003 697 2906 
L 697 3450 
Q 1169 3672 1522 3987 
Q 1875 4303 2022 4600 
L 2384 4600 
L 2384 0 
z
" transform="scale(0.015625)"/>
       </defs>
       <use xlink:href="#ArialMT-31"/>
       <use xlink:href="#ArialMT-2e" x="55.615234"/>
       <use xlink:href="#ArialMT-30" x="83.398438"/>
      </g>
     </g>
    </g>
    <g id="xtick_7">
     <g id="line2d_7">
      <path d="M 477.504526 354.429375 
L 477.504526 21.789375 
" clip-path="url(#pfe5d990d82)" style="fill: none; stroke: #ffffff; stroke-linecap: round"/>
     </g>
     <g id="text_7">
      <!-- 1.2 -->
      <g style="fill: #262626" transform="translate(469.859526 371.802969) scale(0.11 -0.11)">
       <use xlink:href="#ArialMT-31"/>
       <use xlink:href="#ArialMT-2e" x="55.615234"/>
       <use xlink:href="#ArialMT-32" x="83.398438"/>
      </g>
     </g>
    </g>
    <g id="xtick_8">
     <g id="line2d_8">
      <path d="M 549.243723 354.429375 
L 549.243723 21.789375 
" clip-path="url(#pfe5d990d82)" style="fill: none; stroke: #ffffff; stroke-linecap: round"/>
     </g>
     <g id="text_8">
      <!-- 1.4 -->
      <g style="fill: #262626" transform="translate(541.598723 371.802969) scale(0.11 -0.11)">
       <use xlink:href="#ArialMT-31"/>
       <use xlink:href="#ArialMT-2e" x="55.615234"/>
       <use xlink:href="#ArialMT-34" x="83.398438"/>
      </g>
     </g>
    </g>
   </g>
   <g id="matplotlib.axis_2">
    <g id="ytick_1">
     <g id="line2d_9">
      <path d="M 7.2 354.429375 
L 565.2 354.429375 
" clip-path="url(#pfe5d990d82)" style="fill: none; stroke: #ffffff; stroke-linecap: round"/>
     </g>
    </g>
    <g id="ytick_2">
     <g id="line2d_10">
      <path d="M 7.2 311.473443 
L 565.2 311.473443 
" clip-path="url(#pfe5d990d82)" style="fill: none; stroke: #ffffff; stroke-linecap: round"/>
     </g>
    </g>
    <g id="ytick_3">
     <g id="line2d_11">
      <path d="M 7.2 268.517511 
L 565.2 268.517511 
" clip-path="url(#pfe5d990d82)" style="fill: none; stroke: #ffffff; stroke-linecap: round"/>
     </g>
    </g>
    <g id="ytick_4">
     <g id="line2d_12">
      <path d="M 7.2 225.561578 
L 565.2 225.561578 
" clip-path="url(#pfe5d990d82)" style="fill: none; stroke: #ffffff; stroke-linecap: round"/>
     </g>
    </g>
    <g id="ytick_5">
     <g id="line2d_13">
      <path d="M 7.2 182.605646 
L 565.2 182.605646 
" clip-path="url(#pfe5d990d82)" style="fill: none; stroke: #ffffff; stroke-linecap: round"/>
     </g>
    </g>
    <g id="ytick_6">
     <g id="line2d_14">
      <path d="M 7.2 139.649714 
L 565.2 139.649714 
" clip-path="url(#pfe5d990d82)" style="fill: none; stroke: #ffffff; stroke-linecap: round"/>
     </g>
    </g>
    <g id="ytick_7">
     <g id="line2d_15">
      <path d="M 7.2 96.693782 
L 565.2 96.693782 
" clip-path="url(#pfe5d990d82)" style="fill: none; stroke: #ffffff; stroke-linecap: round"/>
     </g>
    </g>
    <g id="ytick_8">
     <g id="line2d_16">
      <path d="M 7.2 53.73785 
L 565.2 53.73785 
" clip-path="url(#pfe5d990d82)" style="fill: none; stroke: #ffffff; stroke-linecap: round"/>
     </g>
    </g>
   </g>
   <g id="patch_3">
    <path d="M 112.788184 354.429375 
L 115.960409 354.429375 
L 115.960409 354.214595 
L 112.788184 354.214595 
z
" clip-path="url(#pfe5d990d82)" style="fill: #0173b2; fill-opacity: 0.75; stroke: #ffffff; stroke-width: 0.563636; stroke-linejoin: miter"/>
   </g>
   <g id="patch_4">
    <path d="M 115.960409 354.429375 
L 119.132634 354.429375 
L 119.132634 354.214595 
L 115.960409 354.214595 
z
" clip-path="url(#pfe5d990d82)" style="fill: #0173b2; fill-opacity: 0.75; stroke: #ffffff; stroke-width: 0.563636; stroke-linejoin: miter"/>
   </g>
   <g id="patch_5">
    <path d="M 119.132634 354.429375 
L 122.304858 354.429375 
L 122.304858 353.999816 
L 119.132634 353.999816 
z
" clip-path="url(#pfe5d990d82)" style="fill: #0173b2; fill-opacity: 0.75; stroke: #ffffff; stroke-width: 0.563636; stroke-linejoin: miter"/>
   </g>
   <g id="patch_6">
    <path d="M 122.304858 354.429375 
L 125.477083 354.429375 
L 125.477083 353.570256 
L 122.304858 353.570256 
z
" clip-path="url(#pfe5d990d82)" style="fill: #0173b2; fill-opacity: 0.75; stroke: #ffffff; stroke-width: 0.563636; stroke-linejoin: miter"/>
   </g>
   <g id="patch_7">
    <path d="M 125.477083 354.429375 
L 128.649308 354.429375 
L 128.649308 353.999816 
L 125.477083 353.999816 
z
" clip-path="url(#pfe5d990d82)" style="fill: #0173b2; fill-opacity: 0.75; stroke: #ffffff; stroke-width: 0.563636; stroke-linejoin: miter"/>
   </g>
   <g id="patch_8">
    <path d="M 128.649308 354.429375 
L 131.821533 354.429375 
L 131.821533 353.785036 
L 128.649308 353.785036 
z
" clip-path="url(#pfe5d990d82)" style="fill: #0173b2; fill-opacity: 0.75; stroke: #ffffff; stroke-width: 0.563636; stroke-linejoin: miter"/>
   </g>
   <g id="patch_9">
    <path d="M 131.821533 354.429375 
L 134.993757 354.429375 
L 134.993757 353.785036 
L 131.821533 353.785036 
z
" clip-path="url(#pfe5d990d82)" style="fill: #0173b2; fill-opacity: 0.75; stroke: #ffffff; stroke-width: 0.563636; stroke-linejoin: miter"/>
   </g>
   <g id="patch_10">
    <path d="M 134.993757 354.429375 
L 138.165982 354.429375 
L 138.165982 352.925917 
L 134.993757 352.925917 
z
" clip-path="url(#pfe5d990d82)" style="fill: #0173b2; fill-opacity: 0.75; stroke: #ffffff; stroke-width: 0.563636; stroke-linejoin: miter"/>
   </g>
   <g id="patch_11">
    <path d="M 138.165982 354.429375 
L 141.338207 354.429375 
L 141.338207 354.214595 
L 138.165982 354.214595 
z
" clip-path="url(#pfe5d990d82)" style="fill: #0173b2; fill-opacity: 0.75; stroke: #ffffff; stroke-width: 0.563636; stroke-linejoin: miter"/>
   </g>
   <g id="patch_12">
    <path d="M 141.338207 354.429375 
L 144.510432 354.429375 
L 144.510432 352.496358 
L 141.338207 352.496358 
z
" clip-path="url(#pfe5d990d82)" style="fill: #0173b2; fill-opacity: 0.75; stroke: #ffffff; stroke-width: 0.563636; stroke-linejoin: miter"/>
   </g>
   <g id="patch_13">
    <path d="M 144.510432 354.429375 
L 147.682657 354.429375 
L 147.682657 352.496358 
L 144.510432 352.496358 
z
" clip-path="url(#pfe5d990d82)" style="fill: #0173b2; fill-opacity: 0.75; stroke: #ffffff; stroke-width: 0.563636; stroke-linejoin: miter"/>
   </g>
   <g id="patch_14">
    <path d="M 147.682657 354.429375 
L 150.854881 354.429375 
L 150.854881 352.496358 
L 147.682657 352.496358 
z
" clip-path="url(#pfe5d990d82)" style="fill: #0173b2; fill-opacity: 0.75; stroke: #ffffff; stroke-width: 0.563636; stroke-linejoin: miter"/>
   </g>
   <g id="patch_15">
    <path d="M 150.854881 354.429375 
L 154.027106 354.429375 
L 154.027106 350.563341 
L 150.854881 350.563341 
z
" clip-path="url(#pfe5d990d82)" style="fill: #0173b2; fill-opacity: 0.75; stroke: #ffffff; stroke-width: 0.563636; stroke-linejoin: miter"/>
   </g>
   <g id="patch_16">
    <path d="M 154.027106 354.429375 
L 157.199331 354.429375 
L 157.199331 349.489443 
L 154.027106 349.489443 
z
" clip-path="url(#pfe5d990d82)" style="fill: #0173b2; fill-opacity: 0.75; stroke: #ffffff; stroke-width: 0.563636; stroke-linejoin: miter"/>
   </g>
   <g id="patch_17">
    <path d="M 157.199331 354.429375 
L 160.371556 354.429375 
L 160.371556 348.415544 
L 157.199331 348.415544 
z
" clip-path="url(#pfe5d990d82)" style="fill: #0173b2; fill-opacity: 0.75; stroke: #ffffff; stroke-width: 0.563636; stroke-linejoin: miter"/>
   </g>
   <g id="patch_18">
    <path d="M 160.371556 354.429375 
L 163.54378 354.429375 
L 163.54378 347.556426 
L 160.371556 347.556426 
z
" clip-path="url(#pfe5d990d82)" style="fill: #0173b2; fill-opacity: 0.75; stroke: #ffffff; stroke-width: 0.563636; stroke-linejoin: miter"/>
   </g>
   <g id="patch_19">
    <path d="M 163.54378 354.429375 
L 166.716005 354.429375 
L 166.716005 347.126867 
L 163.54378 347.126867 
z
" clip-path="url(#pfe5d990d82)" style="fill: #0173b2; fill-opacity: 0.75; stroke: #ffffff; stroke-width: 0.563636; stroke-linejoin: miter"/>
   </g>
   <g id="patch_20">
    <path d="M 166.716005 354.429375 
L 169.88823 354.429375 
L 169.88823 344.97907 
L 166.716005 344.97907 
z
" clip-path="url(#pfe5d990d82)" style="fill: #0173b2; fill-opacity: 0.75; stroke: #ffffff; stroke-width: 0.563636; stroke-linejoin: miter"/>
   </g>
   <g id="patch_21">
    <path d="M 169.88823 354.429375 
L 173.060455 354.429375 
L 173.060455 341.972155 
L 169.88823 341.972155 
z
" clip-path="url(#pfe5d990d82)" style="fill: #0173b2; fill-opacity: 0.75; stroke: #ffffff; stroke-width: 0.563636; stroke-linejoin: miter"/>
   </g>
   <g id="patch_22">
    <path d="M 173.060455 354.429375 
L 176.232679 354.429375 
L 176.232679 340.468697 
L 173.060455 340.468697 
z
" clip-path="url(#pfe5d990d82)" style="fill: #0173b2; fill-opacity: 0.75; stroke: #ffffff; stroke-width: 0.563636; stroke-linejoin: miter"/>
   </g>
   <g id="patch_23">
    <path d="M 176.232679 354.429375 
L 179.404904 354.429375 
L 179.404904 337.676561 
L 176.232679 337.676561 
z
" clip-path="url(#pfe5d990d82)" style="fill: #0173b2; fill-opacity: 0.75; stroke: #ffffff; stroke-width: 0.563636; stroke-linejoin: miter"/>
   </g>
   <g id="patch_24">
    <path d="M 179.404904 354.429375 
L 182.577129 354.429375 
L 182.577129 335.313985 
L 179.404904 335.313985 
z
" clip-path="url(#pfe5d990d82)" style="fill: #0173b2; fill-opacity: 0.75; stroke: #ffffff; stroke-width: 0.563636; stroke-linejoin: miter"/>
   </g>
   <g id="patch_25">
    <path d="M 182.577129 354.429375 
L 185.749354 354.429375 
L 185.749354 333.166189 
L 182.577129 333.166189 
z
" clip-path="url(#pfe5d990d82)" style="fill: #0173b2; fill-opacity: 0.75; stroke: #ffffff; stroke-width: 0.563636; stroke-linejoin: miter"/>
   </g>
   <g id="patch_26">
    <path d="M 185.749354 354.429375 
L 188.921579 354.429375 
L 188.921579 323.286324 
L 185.749354 323.286324 
z
" clip-path="url(#pfe5d990d82)" style="fill: #0173b2; fill-opacity: 0.75; stroke: #ffffff; stroke-width: 0.563636; stroke-linejoin: miter"/>
   </g>
   <g id="patch_27">
    <path d="M 188.921579 354.429375 
L 192.093803 354.429375 
L 192.093803 320.279409 
L 188.921579 320.279409 
z
" clip-path="url(#pfe5d990d82)" style="fill: #0173b2; fill-opacity: 0.75; stroke: #ffffff; stroke-width: 0.563636; stroke-linejoin: miter"/>
   </g>
   <g id="patch_28">
    <path d="M 192.093803 354.429375 
L 195.266028 354.429375 
L 195.266028 318.990731 
L 192.093803 318.990731 
z
" clip-path="url(#pfe5d990d82)" style="fill: #0173b2; fill-opacity: 0.75; stroke: #ffffff; stroke-width: 0.563636; stroke-linejoin: miter"/>
   </g>
   <g id="patch_29">
    <path d="M 195.266028 354.429375 
L 198.438253 354.429375 
L 198.438253 310.614324 
L 195.266028 310.614324 
z
" clip-path="url(#pfe5d990d82)" style="fill: #0173b2; fill-opacity: 0.75; stroke: #ffffff; stroke-width: 0.563636; stroke-linejoin: miter"/>
   </g>
   <g id="patch_30">
    <path d="M 198.438253 354.429375 
L 201.610478 354.429375 
L 201.610478 305.244833 
L 198.438253 305.244833 
z
" clip-path="url(#pfe5d990d82)" style="fill: #0173b2; fill-opacity: 0.75; stroke: #ffffff; stroke-width: 0.563636; stroke-linejoin: miter"/>
   </g>
   <g id="patch_31">
    <path d="M 201.610478 354.429375 
L 204.782702 354.429375 
L 204.782702 302.882256 
L 201.610478 302.882256 
z
" clip-path="url(#pfe5d990d82)" style="fill: #0173b2; fill-opacity: 0.75; stroke: #ffffff; stroke-width: 0.563636; stroke-linejoin: miter"/>
   </g>
   <g id="patch_32">
    <path d="M 204.782702 354.429375 
L 207.954927 354.429375 
L 207.954927 295.579748 
L 204.782702 295.579748 
z
" clip-path="url(#pfe5d990d82)" style="fill: #0173b2; fill-opacity: 0.75; stroke: #ffffff; stroke-width: 0.563636; stroke-linejoin: miter"/>
   </g>
   <g id="patch_33">
    <path d="M 207.954927 354.429375 
L 211.127152 354.429375 
L 211.127152 288.277239 
L 207.954927 288.277239 
z
" clip-path="url(#pfe5d990d82)" style="fill: #0173b2; fill-opacity: 0.75; stroke: #ffffff; stroke-width: 0.563636; stroke-linejoin: miter"/>
   </g>
   <g id="patch_34">
    <path d="M 211.127152 354.429375 
L 214.299377 354.429375 
L 214.299377 278.612155 
L 211.127152 278.612155 
z
" clip-path="url(#pfe5d990d82)" style="fill: #0173b2; fill-opacity: 0.75; stroke: #ffffff; stroke-width: 0.563636; stroke-linejoin: miter"/>
   </g>
   <g id="patch_35">
    <path d="M 214.299377 354.429375 
L 217.471602 354.429375 
L 217.471602 275.39046 
L 214.299377 275.39046 
z
" clip-path="url(#pfe5d990d82)" style="fill: #0173b2; fill-opacity: 0.75; stroke: #ffffff; stroke-width: 0.563636; stroke-linejoin: miter"/>
   </g>
   <g id="patch_36">
    <path d="M 217.471602 354.429375 
L 220.643826 354.429375 
L 220.643826 266.369714 
L 217.471602 266.369714 
z
" clip-path="url(#pfe5d990d82)" style="fill: #0173b2; fill-opacity: 0.75; stroke: #ffffff; stroke-width: 0.563636; stroke-linejoin: miter"/>
   </g>
   <g id="patch_37">
    <path d="M 220.643826 354.429375 
L 223.816051 354.429375 
L 223.816051 253.697714 
L 220.643826 253.697714 
z
" clip-path="url(#pfe5d990d82)" style="fill: #0173b2; fill-opacity: 0.75; stroke: #ffffff; stroke-width: 0.563636; stroke-linejoin: miter"/>
   </g>
   <g id="patch_38">
    <path d="M 223.816051 354.429375 
L 226.988276 354.429375 
L 226.988276 238.448358 
L 223.816051 238.448358 
z
" clip-path="url(#pfe5d990d82)" style="fill: #0173b2; fill-opacity: 0.75; stroke: #ffffff; stroke-width: 0.563636; stroke-linejoin: miter"/>
   </g>
   <g id="patch_39">
    <path d="M 226.988276 354.429375 
L 230.160501 354.429375 
L 230.160501 225.346799 
L 226.988276 225.346799 
z
" clip-path="url(#pfe5d990d82)" style="fill: #0173b2; fill-opacity: 0.75; stroke: #ffffff; stroke-width: 0.563636; stroke-linejoin: miter"/>
   </g>
   <g id="patch_40">
    <path d="M 230.160501 354.429375 
L 233.332725 354.429375 
L 233.332725 218.25907 
L 230.160501 218.25907 
z
" clip-path="url(#pfe5d990d82)" style="fill: #0173b2; fill-opacity: 0.75; stroke: #ffffff; stroke-width: 0.563636; stroke-linejoin: miter"/>
   </g>
   <g id="patch_41">
    <path d="M 233.332725 354.429375 
L 236.50495 354.429375 
L 236.50495 204.083612 
L 233.332725 204.083612 
z
" clip-path="url(#pfe5d990d82)" style="fill: #0173b2; fill-opacity: 0.75; stroke: #ffffff; stroke-width: 0.563636; stroke-linejoin: miter"/>
   </g>
   <g id="patch_42">
    <path d="M 236.50495 354.429375 
L 239.677175 354.429375 
L 239.677175 196.136765 
L 236.50495 196.136765 
z
" clip-path="url(#pfe5d990d82)" style="fill: #0173b2; fill-opacity: 0.75; stroke: #ffffff; stroke-width: 0.563636; stroke-linejoin: miter"/>
   </g>
   <g id="patch_43">
    <path d="M 239.677175 354.429375 
L 242.8494 354.429375 
L 242.8494 186.901239 
L 239.677175 186.901239 
z
" clip-path="url(#pfe5d990d82)" style="fill: #0173b2; fill-opacity: 0.75; stroke: #ffffff; stroke-width: 0.563636; stroke-linejoin: miter"/>
   </g>
   <g id="patch_44">
    <path d="M 242.8494 354.429375 
L 246.021625 354.429375 
L 246.021625 176.162256 
L 242.8494 176.162256 
z
" clip-path="url(#pfe5d990d82)" style="fill: #0173b2; fill-opacity: 0.75; stroke: #ffffff; stroke-width: 0.563636; stroke-linejoin: miter"/>
   </g>
   <g id="patch_45">
    <path d="M 246.021625 354.429375 
L 249.193849 354.429375 
L 249.193849 165.423273 
L 246.021625 165.423273 
z
" clip-path="url(#pfe5d990d82)" style="fill: #0173b2; fill-opacity: 0.75; stroke: #ffffff; stroke-width: 0.563636; stroke-linejoin: miter"/>
   </g>
   <g id="patch_46">
    <path d="M 249.193849 354.429375 
L 252.366074 354.429375 
L 252.366074 137.287138 
L 249.193849 137.287138 
z
" clip-path="url(#pfe5d990d82)" style="fill: #0173b2; fill-opacity: 0.75; stroke: #ffffff; stroke-width: 0.563636; stroke-linejoin: miter"/>
   </g>
   <g id="patch_47">
    <path d="M 252.366074 354.429375 
L 255.538299 354.429375 
L 255.538299 135.78368 
L 252.366074 135.78368 
z
" clip-path="url(#pfe5d990d82)" style="fill: #0173b2; fill-opacity: 0.75; stroke: #ffffff; stroke-width: 0.563636; stroke-linejoin: miter"/>
   </g>
   <g id="patch_48">
    <path d="M 255.538299 354.429375 
L 258.710524 354.429375 
L 258.710524 131.058528 
L 255.538299 131.058528 
z
" clip-path="url(#pfe5d990d82)" style="fill: #0173b2; fill-opacity: 0.75; stroke: #ffffff; stroke-width: 0.563636; stroke-linejoin: miter"/>
   </g>
   <g id="patch_49">
    <path d="M 258.710524 354.429375 
L 261.882748 354.429375 
L 261.882748 109.580561 
L 258.710524 109.580561 
z
" clip-path="url(#pfe5d990d82)" style="fill: #0173b2; fill-opacity: 0.75; stroke: #ffffff; stroke-width: 0.563636; stroke-linejoin: miter"/>
   </g>
   <g id="patch_50">
    <path d="M 261.882748 354.429375 
L 265.054973 354.429375 
L 265.054973 105.929307 
L 261.882748 105.929307 
z
" clip-path="url(#pfe5d990d82)" style="fill: #0173b2; fill-opacity: 0.75; stroke: #ffffff; stroke-width: 0.563636; stroke-linejoin: miter"/>
   </g>
   <g id="patch_51">
    <path d="M 265.054973 354.429375 
L 268.227198 354.429375 
L 268.227198 89.820833 
L 265.054973 89.820833 
z
" clip-path="url(#pfe5d990d82)" style="fill: #0173b2; fill-opacity: 0.75; stroke: #ffffff; stroke-width: 0.563636; stroke-linejoin: miter"/>
   </g>
   <g id="patch_52">
    <path d="M 268.227198 354.429375 
L 271.399423 354.429375 
L 271.399423 80.370528 
L 268.227198 80.370528 
z
" clip-path="url(#pfe5d990d82)" style="fill: #0173b2; fill-opacity: 0.75; stroke: #ffffff; stroke-width: 0.563636; stroke-linejoin: miter"/>
   </g>
   <g id="patch_53">
    <path d="M 271.399423 354.429375 
L 274.571647 354.429375 
L 274.571647 60.181239 
L 271.399423 60.181239 
z
" clip-path="url(#pfe5d990d82)" style="fill: #0173b2; fill-opacity: 0.75; stroke: #ffffff; stroke-width: 0.563636; stroke-linejoin: miter"/>
   </g>
   <g id="patch_54">
    <path d="M 274.571647 354.429375 
L 277.743872 354.429375 
L 277.743872 59.96646 
L 274.571647 59.96646 
z
" clip-path="url(#pfe5d990d82)" style="fill: #0173b2; fill-opacity: 0.75; stroke: #ffffff; stroke-width: 0.563636; stroke-linejoin: miter"/>
   </g>
   <g id="patch_55">
    <path d="M 277.743872 354.429375 
L 280.916097 354.429375 
L 280.916097 68.772426 
L 277.743872 68.772426 
z
" clip-path="url(#pfe5d990d82)" style="fill: #0173b2; fill-opacity: 0.75; stroke: #ffffff; stroke-width: 0.563636; stroke-linejoin: miter"/>
   </g>
   <g id="patch_56">
    <path d="M 280.916097 354.429375 
L 284.088322 354.429375 
L 284.088322 59.5369 
L 280.916097 59.5369 
z
" clip-path="url(#pfe5d990d82)" style="fill: #0173b2; fill-opacity: 0.75; stroke: #ffffff; stroke-width: 0.563636; stroke-linejoin: miter"/>
   </g>
   <g id="patch_57">
    <path d="M 284.088322 354.429375 
L 287.260547 354.429375 
L 287.260547 41.710189 
L 284.088322 41.710189 
z
" clip-path="url(#pfe5d990d82)" style="fill: #0173b2; fill-opacity: 0.75; stroke: #ffffff; stroke-width: 0.563636; stroke-linejoin: miter"/>
   </g>
   <g id="patch_58">
    <path d="M 287.260547 354.429375 
L 290.432771 354.429375 
L 290.432771 38.273714 
L 287.260547 38.273714 
z
" clip-path="url(#pfe5d990d82)" style="fill: #0173b2; fill-opacity: 0.75; stroke: #ffffff; stroke-width: 0.563636; stroke-linejoin: miter"/>
   </g>
   <g id="patch_59">
    <path d="M 290.432771 354.429375 
L 293.604996 354.429375 
L 293.604996 37.629375 
L 290.432771 37.629375 
z
" clip-path="url(#pfe5d990d82)" style="fill: #0173b2; fill-opacity: 0.75; stroke: #ffffff; stroke-width: 0.563636; stroke-linejoin: miter"/>
   </g>
   <g id="patch_60">
    <path d="M 293.604996 354.429375 
L 296.777221 354.429375 
L 296.777221 38.918053 
L 293.604996 38.918053 
z
" clip-path="url(#pfe5d990d82)" style="fill: #0173b2; fill-opacity: 0.75; stroke: #ffffff; stroke-width: 0.563636; stroke-linejoin: miter"/>
   </g>
   <g id="patch_61">
    <path d="M 296.777221 354.429375 
L 299.949446 354.429375 
L 299.949446 53.093511 
L 296.777221 53.093511 
z
" clip-path="url(#pfe5d990d82)" style="fill: #0173b2; fill-opacity: 0.75; stroke: #ffffff; stroke-width: 0.563636; stroke-linejoin: miter"/>
   </g>
   <g id="patch_62">
    <path d="M 299.949446 354.429375 
L 303.12167 354.429375 
L 303.12167 45.576222 
L 299.949446 45.576222 
z
" clip-path="url(#pfe5d990d82)" style="fill: #0173b2; fill-opacity: 0.75; stroke: #ffffff; stroke-width: 0.563636; stroke-linejoin: miter"/>
   </g>
   <g id="patch_63">
    <path d="M 303.12167 354.429375 
L 306.293895 354.429375 
L 306.293895 59.96646 
L 303.12167 59.96646 
z
" clip-path="url(#pfe5d990d82)" style="fill: #0173b2; fill-opacity: 0.75; stroke: #ffffff; stroke-width: 0.563636; stroke-linejoin: miter"/>
   </g>
   <g id="patch_64">
    <path d="M 306.293895 354.429375 
L 309.46612 354.429375 
L 309.46612 52.878731 
L 306.293895 52.878731 
z
" clip-path="url(#pfe5d990d82)" style="fill: #0173b2; fill-opacity: 0.75; stroke: #ffffff; stroke-width: 0.563636; stroke-linejoin: miter"/>
   </g>
   <g id="patch_65">
    <path d="M 309.46612 354.429375 
L 312.638345 354.429375 
L 312.638345 61.040358 
L 309.46612 61.040358 
z
" clip-path="url(#pfe5d990d82)" style="fill: #0173b2; fill-opacity: 0.75; stroke: #ffffff; stroke-width: 0.563636; stroke-linejoin: miter"/>
   </g>
   <g id="patch_66">
    <path d="M 312.638345 354.429375 
L 315.81057 354.429375 
L 315.81057 78.437511 
L 312.638345 78.437511 
z
" clip-path="url(#pfe5d990d82)" style="fill: #0173b2; fill-opacity: 0.75; stroke: #ffffff; stroke-width: 0.563636; stroke-linejoin: miter"/>
   </g>
   <g id="patch_67">
    <path d="M 315.81057 354.429375 
L 318.982794 354.429375 
L 318.982794 72.853239 
L 315.81057 72.853239 
z
" clip-path="url(#pfe5d990d82)" style="fill: #0173b2; fill-opacity: 0.75; stroke: #ffffff; stroke-width: 0.563636; stroke-linejoin: miter"/>
   </g>
   <g id="patch_68">
    <path d="M 318.982794 354.429375 
L 322.155019 354.429375 
L 322.155019 108.506663 
L 318.982794 108.506663 
z
" clip-path="url(#pfe5d990d82)" style="fill: #0173b2; fill-opacity: 0.75; stroke: #ffffff; stroke-width: 0.563636; stroke-linejoin: miter"/>
   </g>
   <g id="patch_69">
    <path d="M 322.155019 354.429375 
L 325.327244 354.429375 
L 325.327244 112.587477 
L 322.155019 112.587477 
z
" clip-path="url(#pfe5d990d82)" style="fill: #0173b2; fill-opacity: 0.75; stroke: #ffffff; stroke-width: 0.563636; stroke-linejoin: miter"/>
   </g>
   <g id="patch_70">
    <path d="M 325.327244 354.429375 
L 328.499469 354.429375 
L 328.499469 115.594392 
L 325.327244 115.594392 
z
" clip-path="url(#pfe5d990d82)" style="fill: #0173b2; fill-opacity: 0.75; stroke: #ffffff; stroke-width: 0.563636; stroke-linejoin: miter"/>
   </g>
   <g id="patch_71">
    <path d="M 328.499469 354.429375 
L 331.671693 354.429375 
L 331.671693 146.522663 
L 328.499469 146.522663 
z
" clip-path="url(#pfe5d990d82)" style="fill: #0173b2; fill-opacity: 0.75; stroke: #ffffff; stroke-width: 0.563636; stroke-linejoin: miter"/>
   </g>
   <g id="patch_72">
    <path d="M 331.671693 354.429375 
L 334.843918 354.429375 
L 334.843918 145.448765 
L 331.671693 145.448765 
z
" clip-path="url(#pfe5d990d82)" style="fill: #0173b2; fill-opacity: 0.75; stroke: #ffffff; stroke-width: 0.563636; stroke-linejoin: miter"/>
   </g>
   <g id="patch_73">
    <path d="M 334.843918 354.429375 
L 338.016143 354.429375 
L 338.016143 177.665714 
L 334.843918 177.665714 
z
" clip-path="url(#pfe5d990d82)" style="fill: #0173b2; fill-opacity: 0.75; stroke: #ffffff; stroke-width: 0.563636; stroke-linejoin: miter"/>
   </g>
   <g id="patch_74">
    <path d="M 338.016143 354.429375 
L 341.188368 354.429375 
L 341.188368 192.485511 
L 338.016143 192.485511 
z
" clip-path="url(#pfe5d990d82)" style="fill: #0173b2; fill-opacity: 0.75; stroke: #ffffff; stroke-width: 0.563636; stroke-linejoin: miter"/>
   </g>
   <g id="patch_75">
    <path d="M 341.188368 354.429375 
L 344.360593 354.429375 
L 344.360593 206.016629 
L 341.188368 206.016629 
z
" clip-path="url(#pfe5d990d82)" style="fill: #0173b2; fill-opacity: 0.75; stroke: #ffffff; stroke-width: 0.563636; stroke-linejoin: miter"/>
   </g>
   <g id="patch_76">
    <path d="M 344.360593 354.429375 
L 347.532817 354.429375 
L 347.532817 215.896494 
L 344.360593 215.896494 
z
" clip-path="url(#pfe5d990d82)" style="fill: #0173b2; fill-opacity: 0.75; stroke: #ffffff; stroke-width: 0.563636; stroke-linejoin: miter"/>
   </g>
   <g id="patch_77">
    <path d="M 347.532817 354.429375 
L 350.705042 354.429375 
L 350.705042 226.420697 
L 347.532817 226.420697 
z
" clip-path="url(#pfe5d990d82)" style="fill: #0173b2; fill-opacity: 0.75; stroke: #ffffff; stroke-width: 0.563636; stroke-linejoin: miter"/>
   </g>
   <g id="patch_78">
    <path d="M 350.705042 354.429375 
L 353.877267 354.429375 
L 353.877267 246.824765 
L 350.705042 246.824765 
z
" clip-path="url(#pfe5d990d82)" style="fill: #0173b2; fill-opacity: 0.75; stroke: #ffffff; stroke-width: 0.563636; stroke-linejoin: miter"/>
   </g>
   <g id="patch_79">
    <path d="M 353.877267 354.429375 
L 357.049492 354.429375 
L 357.049492 261.215002 
L 353.877267 261.215002 
z
" clip-path="url(#pfe5d990d82)" style="fill: #0173b2; fill-opacity: 0.75; stroke: #ffffff; stroke-width: 0.563636; stroke-linejoin: miter"/>
   </g>
   <g id="patch_80">
    <path d="M 357.049492 354.429375 
L 360.221716 354.429375 
L 360.221716 270.880087 
L 357.049492 270.880087 
z
" clip-path="url(#pfe5d990d82)" style="fill: #0173b2; fill-opacity: 0.75; stroke: #ffffff; stroke-width: 0.563636; stroke-linejoin: miter"/>
   </g>
   <g id="patch_81">
    <path d="M 360.221716 354.429375 
L 363.393941 354.429375 
L 363.393941 285.270324 
L 360.221716 285.270324 
z
" clip-path="url(#pfe5d990d82)" style="fill: #0173b2; fill-opacity: 0.75; stroke: #ffffff; stroke-width: 0.563636; stroke-linejoin: miter"/>
   </g>
   <g id="patch_82">
    <path d="M 363.393941 354.429375 
L 366.566166 354.429375 
L 366.566166 293.217172 
L 363.393941 293.217172 
z
" clip-path="url(#pfe5d990d82)" style="fill: #0173b2; fill-opacity: 0.75; stroke: #ffffff; stroke-width: 0.563636; stroke-linejoin: miter"/>
   </g>
   <g id="patch_83">
    <path d="M 366.566166 354.429375 
L 369.738391 354.429375 
L 369.738391 309.540426 
L 366.566166 309.540426 
z
" clip-path="url(#pfe5d990d82)" style="fill: #0173b2; fill-opacity: 0.75; stroke: #ffffff; stroke-width: 0.563636; stroke-linejoin: miter"/>
   </g>
   <g id="patch_84">
    <path d="M 369.738391 354.429375 
L 372.910615 354.429375 
L 372.910615 313.40646 
L 369.738391 313.40646 
z
" clip-path="url(#pfe5d990d82)" style="fill: #0173b2; fill-opacity: 0.75; stroke: #ffffff; stroke-width: 0.563636; stroke-linejoin: miter"/>
   </g>
   <g id="patch_85">
    <path d="M 372.910615 354.429375 
L 376.08284 354.429375 
L 376.08284 327.581917 
L 372.910615 327.581917 
z
" clip-path="url(#pfe5d990d82)" style="fill: #0173b2; fill-opacity: 0.75; stroke: #ffffff; stroke-width: 0.563636; stroke-linejoin: miter"/>
   </g>
   <g id="patch_86">
    <path d="M 376.08284 354.429375 
L 379.255065 354.429375 
L 379.255065 334.454867 
L 376.08284 334.454867 
z
" clip-path="url(#pfe5d990d82)" style="fill: #0173b2; fill-opacity: 0.75; stroke: #ffffff; stroke-width: 0.563636; stroke-linejoin: miter"/>
   </g>
   <g id="patch_87">
    <path d="M 379.255065 354.429375 
L 382.42729 354.429375 
L 382.42729 336.173104 
L 379.255065 336.173104 
z
" clip-path="url(#pfe5d990d82)" style="fill: #0173b2; fill-opacity: 0.75; stroke: #ffffff; stroke-width: 0.563636; stroke-linejoin: miter"/>
   </g>
   <g id="patch_88">
    <path d="M 382.42729 354.429375 
L 385.599515 354.429375 
L 385.599515 345.19385 
L 382.42729 345.19385 
z
" clip-path="url(#pfe5d990d82)" style="fill: #0173b2; fill-opacity: 0.75; stroke: #ffffff; stroke-width: 0.563636; stroke-linejoin: miter"/>
   </g>
   <g id="patch_89">
    <path d="M 385.599515 354.429375 
L 388.771739 354.429375 
L 388.771739 347.771206 
L 385.599515 347.771206 
z
" clip-path="url(#pfe5d990d82)" style="fill: #0173b2; fill-opacity: 0.75; stroke: #ffffff; stroke-width: 0.563636; stroke-linejoin: miter"/>
   </g>
   <g id="patch_90">
    <path d="M 388.771739 354.429375 
L 391.943964 354.429375 
L 391.943964 347.341646 
L 388.771739 347.341646 
z
" clip-path="url(#pfe5d990d82)" style="fill: #0173b2; fill-opacity: 0.75; stroke: #ffffff; stroke-width: 0.563636; stroke-linejoin: miter"/>
   </g>
   <g id="patch_91">
    <path d="M 391.943964 354.429375 
L 395.116189 354.429375 
L 395.116189 352.496358 
L 391.943964 352.496358 
z
" clip-path="url(#pfe5d990d82)" style="fill: #0173b2; fill-opacity: 0.75; stroke: #ffffff; stroke-width: 0.563636; stroke-linejoin: miter"/>
   </g>
   <g id="patch_92">
    <path d="M 395.116189 354.429375 
L 398.288414 354.429375 
L 398.288414 353.570256 
L 395.116189 353.570256 
z
" clip-path="url(#pfe5d990d82)" style="fill: #0173b2; fill-opacity: 0.75; stroke: #ffffff; stroke-width: 0.563636; stroke-linejoin: miter"/>
   </g>
   <g id="patch_93">
    <path d="M 7.2 354.429375 
L 7.2 21.789375 
" style="fill: none; stroke: #ffffff; stroke-width: 1.25; stroke-linejoin: miter; stroke-linecap: square"/>
   </g>
   <g id="patch_94">
    <path d="M 7.2 354.429375 
L 565.2 354.429375 
" style="fill: none; stroke: #ffffff; stroke-width: 1.25; stroke-linejoin: miter; stroke-linecap: square"/>
   </g>
   <g id="text_9">
    <!-- Ampiezza campionaria = 4 -->
    <g style="fill: #262626" transform="translate(215.334375 15.789375) scale(0.12 -0.12)">
     <defs>
      <path id="ArialMT-41" d="M -9 0 
L 1750 4581 
L 2403 4581 
L 4278 0 
L 3588 0 
L 3053 1388 
L 1138 1388 
L 634 0 
L -9 0 
z
M 1313 1881 
L 2866 1881 
L 2388 3150 
Q 2169 3728 2063 4100 
Q 1975 3659 1816 3225 
L 1313 1881 
z
" transform="scale(0.015625)"/>
      <path id="ArialMT-6d" d="M 422 0 
L 422 3319 
L 925 3319 
L 925 2853 
Q 1081 3097 1340 3245 
Q 1600 3394 1931 3394 
Q 2300 3394 2536 3241 
Q 2772 3088 2869 2813 
Q 3263 3394 3894 3394 
Q 4388 3394 4653 3120 
Q 4919 2847 4919 2278 
L 4919 0 
L 4359 0 
L 4359 2091 
Q 4359 2428 4304 2576 
Q 4250 2725 4106 2815 
Q 3963 2906 3769 2906 
Q 3419 2906 3187 2673 
Q 2956 2441 2956 1928 
L 2956 0 
L 2394 0 
L 2394 2156 
Q 2394 2531 2256 2718 
Q 2119 2906 1806 2906 
Q 1569 2906 1367 2781 
Q 1166 2656 1075 2415 
Q 984 2175 984 1722 
L 984 0 
L 422 0 
z
" transform="scale(0.015625)"/>
      <path id="ArialMT-70" d="M 422 -1272 
L 422 3319 
L 934 3319 
L 934 2888 
Q 1116 3141 1344 3267 
Q 1572 3394 1897 3394 
Q 2322 3394 2647 3175 
Q 2972 2956 3137 2557 
Q 3303 2159 3303 1684 
Q 3303 1175 3120 767 
Q 2938 359 2589 142 
Q 2241 -75 1856 -75 
Q 1575 -75 1351 44 
Q 1128 163 984 344 
L 984 -1272 
L 422 -1272 
z
M 931 1641 
Q 931 1000 1190 694 
Q 1450 388 1819 388 
Q 2194 388 2461 705 
Q 2728 1022 2728 1688 
Q 2728 2322 2467 2637 
Q 2206 2953 1844 2953 
Q 1484 2953 1207 2617 
Q 931 2281 931 1641 
z
" transform="scale(0.015625)"/>
      <path id="ArialMT-69" d="M 425 3934 
L 425 4581 
L 988 4581 
L 988 3934 
L 425 3934 
z
M 425 0 
L 425 3319 
L 988 3319 
L 988 0 
L 425 0 
z
" transform="scale(0.015625)"/>
      <path id="ArialMT-65" d="M 2694 1069 
L 3275 997 
Q 3138 488 2766 206 
Q 2394 -75 1816 -75 
Q 1088 -75 661 373 
Q 234 822 234 1631 
Q 234 2469 665 2931 
Q 1097 3394 1784 3394 
Q 2450 3394 2872 2941 
Q 3294 2488 3294 1666 
Q 3294 1616 3291 1516 
L 816 1516 
Q 847 969 1125 678 
Q 1403 388 1819 388 
Q 2128 388 2347 550 
Q 2566 713 2694 1069 
z
M 847 1978 
L 2700 1978 
Q 2663 2397 2488 2606 
Q 2219 2931 1791 2931 
Q 1403 2931 1139 2672 
Q 875 2413 847 1978 
z
" transform="scale(0.015625)"/>
      <path id="ArialMT-7a" d="M 125 0 
L 125 456 
L 2238 2881 
Q 1878 2863 1603 2863 
L 250 2863 
L 250 3319 
L 2963 3319 
L 2963 2947 
L 1166 841 
L 819 456 
Q 1197 484 1528 484 
L 3063 484 
L 3063 0 
L 125 0 
z
" transform="scale(0.015625)"/>
      <path id="ArialMT-61" d="M 2588 409 
Q 2275 144 1986 34 
Q 1697 -75 1366 -75 
Q 819 -75 525 192 
Q 231 459 231 875 
Q 231 1119 342 1320 
Q 453 1522 633 1644 
Q 813 1766 1038 1828 
Q 1203 1872 1538 1913 
Q 2219 1994 2541 2106 
Q 2544 2222 2544 2253 
Q 2544 2597 2384 2738 
Q 2169 2928 1744 2928 
Q 1347 2928 1158 2789 
Q 969 2650 878 2297 
L 328 2372 
Q 403 2725 575 2942 
Q 747 3159 1072 3276 
Q 1397 3394 1825 3394 
Q 2250 3394 2515 3294 
Q 2781 3194 2906 3042 
Q 3031 2891 3081 2659 
Q 3109 2516 3109 2141 
L 3109 1391 
Q 3109 606 3145 398 
Q 3181 191 3288 0 
L 2700 0 
Q 2613 175 2588 409 
z
M 2541 1666 
Q 2234 1541 1622 1453 
Q 1275 1403 1131 1340 
Q 988 1278 909 1158 
Q 831 1038 831 891 
Q 831 666 1001 516 
Q 1172 366 1500 366 
Q 1825 366 2078 508 
Q 2331 650 2450 897 
Q 2541 1088 2541 1459 
L 2541 1666 
z
" transform="scale(0.015625)"/>
      <path id="ArialMT-20" transform="scale(0.015625)"/>
      <path id="ArialMT-63" d="M 2588 1216 
L 3141 1144 
Q 3050 572 2676 248 
Q 2303 -75 1759 -75 
Q 1078 -75 664 370 
Q 250 816 250 1647 
Q 250 2184 428 2587 
Q 606 2991 970 3192 
Q 1334 3394 1763 3394 
Q 2303 3394 2647 3120 
Q 2991 2847 3088 2344 
L 2541 2259 
Q 2463 2594 2264 2762 
Q 2066 2931 1784 2931 
Q 1359 2931 1093 2626 
Q 828 2322 828 1663 
Q 828 994 1084 691 
Q 1341 388 1753 388 
Q 2084 388 2306 591 
Q 2528 794 2588 1216 
z
" transform="scale(0.015625)"/>
      <path id="ArialMT-6f" d="M 213 1659 
Q 213 2581 725 3025 
Q 1153 3394 1769 3394 
Q 2453 3394 2887 2945 
Q 3322 2497 3322 1706 
Q 3322 1066 3130 698 
Q 2938 331 2570 128 
Q 2203 -75 1769 -75 
Q 1072 -75 642 372 
Q 213 819 213 1659 
z
M 791 1659 
Q 791 1022 1069 705 
Q 1347 388 1769 388 
Q 2188 388 2466 706 
Q 2744 1025 2744 1678 
Q 2744 2294 2464 2611 
Q 2184 2928 1769 2928 
Q 1347 2928 1069 2612 
Q 791 2297 791 1659 
z
" transform="scale(0.015625)"/>
      <path id="ArialMT-6e" d="M 422 0 
L 422 3319 
L 928 3319 
L 928 2847 
Q 1294 3394 1984 3394 
Q 2284 3394 2536 3286 
Q 2788 3178 2913 3003 
Q 3038 2828 3088 2588 
Q 3119 2431 3119 2041 
L 3119 0 
L 2556 0 
L 2556 2019 
Q 2556 2363 2490 2533 
Q 2425 2703 2258 2804 
Q 2091 2906 1866 2906 
Q 1506 2906 1245 2678 
Q 984 2450 984 1813 
L 984 0 
L 422 0 
z
" transform="scale(0.015625)"/>
      <path id="ArialMT-72" d="M 416 0 
L 416 3319 
L 922 3319 
L 922 2816 
Q 1116 3169 1280 3281 
Q 1444 3394 1641 3394 
Q 1925 3394 2219 3213 
L 2025 2691 
Q 1819 2813 1613 2813 
Q 1428 2813 1281 2702 
Q 1134 2591 1072 2394 
Q 978 2094 978 1738 
L 978 0 
L 416 0 
z
" transform="scale(0.015625)"/>
      <path id="ArialMT-3d" d="M 3381 2694 
L 356 2694 
L 356 3219 
L 3381 3219 
L 3381 2694 
z
M 3381 1303 
L 356 1303 
L 356 1828 
L 3381 1828 
L 3381 1303 
z
" transform="scale(0.015625)"/>
     </defs>
     <use xlink:href="#ArialMT-41"/>
     <use xlink:href="#ArialMT-6d" x="66.699219"/>
     <use xlink:href="#ArialMT-70" x="150"/>
     <use xlink:href="#ArialMT-69" x="205.615234"/>
     <use xlink:href="#ArialMT-65" x="227.832031"/>
     <use xlink:href="#ArialMT-7a" x="283.447266"/>
     <use xlink:href="#ArialMT-7a" x="333.447266"/>
     <use xlink:href="#ArialMT-61" x="383.447266"/>
     <use xlink:href="#ArialMT-20" x="439.0625"/>
     <use xlink:href="#ArialMT-63" x="466.845703"/>
     <use xlink:href="#ArialMT-61" x="516.845703"/>
     <use xlink:href="#ArialMT-6d" x="572.460938"/>
     <use xlink:href="#ArialMT-70" x="655.761719"/>
     <use xlink:href="#ArialMT-69" x="711.376953"/>
     <use xlink:href="#ArialMT-6f" x="733.59375"/>
     <use xlink:href="#ArialMT-6e" x="789.208984"/>
     <use xlink:href="#ArialMT-61" x="844.824219"/>
     <use xlink:href="#ArialMT-72" x="900.439453"/>
     <use xlink:href="#ArialMT-69" x="933.740234"/>
     <use xlink:href="#ArialMT-61" x="955.957031"/>
     <use xlink:href="#ArialMT-20" x="1011.572266"/>
     <use xlink:href="#ArialMT-3d" x="1039.355469"/>
     <use xlink:href="#ArialMT-20" x="1097.753906"/>
     <use xlink:href="#ArialMT-34" x="1125.537109"/>
    </g>
   </g>
  </g>
  <g id="axes_2">
   <g id="matplotlib.axis_3">
    <g id="ytick_9">
     <g id="line2d_17">
      <path d="M 7.2 339.30938 
L 565.2 339.30938 
" clip-path="url(#pfe5d990d82)" style="fill: none; stroke: #ffffff; stroke-linecap: round"/>
     </g>
    </g>
    <g id="ytick_10">
     <g id="line2d_18">
      <path d="M 7.2 294.561436 
L 565.2 294.561436 
" clip-path="url(#pfe5d990d82)" style="fill: none; stroke: #ffffff; stroke-linecap: round"/>
     </g>
    </g>
    <g id="ytick_11">
     <g id="line2d_19">
      <path d="M 7.2 249.813492 
L 565.2 249.813492 
" clip-path="url(#pfe5d990d82)" style="fill: none; stroke: #ffffff; stroke-linecap: round"/>
     </g>
    </g>
    <g id="ytick_12">
     <g id="line2d_20">
      <path d="M 7.2 205.065548 
L 565.2 205.065548 
" clip-path="url(#pfe5d990d82)" style="fill: none; stroke: #ffffff; stroke-linecap: round"/>
     </g>
    </g>
    <g id="ytick_13">
     <g id="line2d_21">
      <path d="M 7.2 160.317604 
L 565.2 160.317604 
" clip-path="url(#pfe5d990d82)" style="fill: none; stroke: #ffffff; stroke-linecap: round"/>
     </g>
    </g>
    <g id="ytick_14">
     <g id="line2d_22">
      <path d="M 7.2 115.56966 
L 565.2 115.56966 
" clip-path="url(#pfe5d990d82)" style="fill: none; stroke: #ffffff; stroke-linecap: round"/>
     </g>
    </g>
    <g id="ytick_15">
     <g id="line2d_23">
      <path d="M 7.2 70.821715 
L 565.2 70.821715 
" clip-path="url(#pfe5d990d82)" style="fill: none; stroke: #ffffff; stroke-linecap: round"/>
     </g>
    </g>
    <g id="ytick_16">
     <g id="line2d_24">
      <path d="M 7.2 26.073771 
L 565.2 26.073771 
" clip-path="url(#pfe5d990d82)" style="fill: none; stroke: #ffffff; stroke-linecap: round"/>
     </g>
    </g>
   </g>
   <g id="PolyCollection_1"/>
   <g id="line2d_25">
    <path d="M 32.563636 339.309375 
L 37.687603 339.30937 
L 42.81157 339.30936 
L 47.935537 339.309341 
L 53.059504 339.309304 
L 58.183471 339.309234 
L 63.307438 339.309101 
L 68.431405 339.308856 
L 73.555372 339.30841 
L 78.679339 339.307608 
L 83.803306 339.306191 
L 88.927273 339.303725 
L 94.05124 339.299497 
L 99.175207 339.29236 
L 104.299174 339.280495 
L 109.42314 339.261074 
L 114.547107 339.229774 
L 119.671074 339.180106 
L 124.795041 339.102511 
L 129.919008 338.983167 
L 135.042975 338.802476 
L 140.166942 338.533187 
L 145.290909 338.138176 
L 150.414876 337.567916 
L 155.538843 336.757762 
L 160.66281 335.625239 
L 165.786777 334.067636 
L 170.910744 331.960272 
L 176.034711 329.155953 
L 181.158678 325.48614 
L 186.282645 320.764406 
L 191.406612 314.792693 
L 196.530579 307.370733 
L 201.654545 298.308759 
L 206.778512 287.443287 
L 211.902479 274.655318 
L 217.026446 259.889856 
L 222.150413 243.175178 
L 227.27438 224.639924 
L 232.398347 204.525871 
L 237.522314 183.194267 
L 242.646281 161.123898 
L 247.770248 138.89962 
L 252.894215 117.190948 
L 258.018182 96.72127 
L 263.142149 78.229379 
L 268.266116 62.426004 
L 273.390083 49.948819 
L 278.51405 41.319871 
L 283.638017 36.909375 
L 288.761983 36.909375 
L 293.88595 41.319871 
L 299.009917 49.948819 
L 304.133884 62.426004 
L 309.257851 78.229379 
L 314.381818 96.72127 
L 319.505785 117.190948 
L 324.629752 138.89962 
L 329.753719 161.123898 
L 334.877686 183.194267 
L 340.001653 204.525871 
L 345.12562 224.639924 
L 350.249587 243.175178 
L 355.373554 259.889856 
L 360.497521 274.655318 
L 365.621488 287.443287 
L 370.745455 298.308759 
L 375.869421 307.370733 
L 380.993388 314.792693 
L 386.117355 320.764406 
L 391.241322 325.48614 
L 396.365289 329.155953 
L 401.489256 331.960272 
L 406.613223 334.067636 
L 411.73719 335.625239 
L 416.861157 336.757762 
L 421.985124 337.567916 
L 427.109091 338.138176 
L 432.233058 338.533187 
L 437.357025 338.802476 
L 442.480992 338.983167 
L 447.604959 339.102511 
L 452.728926 339.180106 
L 457.852893 339.229774 
L 462.97686 339.261074 
L 468.100826 339.280495 
L 473.224793 339.29236 
L 478.34876 339.299497 
L 483.472727 339.303725 
L 488.596694 339.306191 
L 493.720661 339.307608 
L 498.844628 339.30841 
L 503.968595 339.308856 
L 509.092562 339.309101 
L 514.216529 339.309234 
L 519.340496 339.309304 
L 524.464463 339.309341 
L 529.58843 339.30936 
L 534.712397 339.30937 
L 539.836364 339.309375 
" clip-path="url(#pfe5d990d82)" style="fill: none; stroke: #000000; stroke-width: 1.5; stroke-linecap: round"/>
   </g>
   <g id="patch_95">
    <path d="M 7.2 354.429375 
L 7.2 21.789375 
" style="fill: none; stroke: #ffffff; stroke-width: 1.25; stroke-linejoin: miter; stroke-linecap: square"/>
   </g>
   <g id="patch_96">
    <path d="M 7.2 354.429375 
L 565.2 354.429375 
" style="fill: none; stroke: #ffffff; stroke-width: 1.25; stroke-linejoin: miter; stroke-linecap: square"/>
   </g>
  </g>
 </g>
 <defs>
  <clipPath id="pfe5d990d82">
   <rect x="7.2" y="21.789375" width="558" height="332.64"/>
  </clipPath>
 </defs>
</svg>