<?xml version="1.0" encoding="utf-8" standalone="no"?>
<!DOCTYPE svg PUBLIC "-//W3C//DTD SVG 1.1//EN"
  "http://www.w3.org/Graphics/SVG/1.1/DTD/svg11.dtd">
<svg xmlns:xlink="http://www.w3.org/1999/xlink" width="409.915525pt" height="352.633275pt" viewBox="0 0 409.915525 352.633275" xmlns="http://www.w3.org/2000/svg" version="1.1">
 <metadata>
  <rdf:RDF xmlns:dc="http://purl.org/dc/elements/1.1/" xmlns:cc="http://creativecommons.org/ns#" xmlns:rdf="http://www.w3.org/1999/02/22-rdf-syntax-ns#">
   <cc:Work>
    <dc:type rdf:resource="http://purl.org/dc/dcmitype/StillImage"/>
    <dc:date>2023-05-08T00:28:49.284051</dc:date>
    <dc:format>image/svg+xml</dc:format>
    <dc:creator>
     <cc:Agent>
      <dc:title>Matplotlib v3.7.1, https://matplotlib.org/</dc:title>
     </cc:Agent>
    </dc:creator>
   </cc:Work>
  </rdf:RDF>
 </metadata>
 <defs>
  <style type="text/css">*{stroke-linejoin: round; stroke-linecap: butt}</style>
 </defs>
 <g id="figure_1">
  <g id="patch_1">
   <path d="M 0 352.633275 
L 409.915525 352.633275 
L 409.915525 0 
L 0 0 
z
" style="fill: #ffffff"/>
  </g>
  <g id="axes_1">
   <g id="patch_2">
    <path d="M 44.9449 319.24275 
L 344.703225 319.24275 
L 344.703225 7.2 
L 44.9449 7.2 
z
" style="fill: #eeeeee"/>
   </g>
   <g id="matplotlib.axis_1">
    <g id="xtick_1">
     <g id="text_1">
      <!-- Adelie -->
      <g style="fill: #262626" transform="translate(82.673996 329.041625) scale(0.088 -0.088)">
       <defs>
        <path id="ArialMT-41" d="M -9 0 
L 1750 4581 
L 2403 4581 
L 4278 0 
L 3588 0 
L 3053 1388 
L 1138 1388 
L 634 0 
L -9 0 
z
M 1313 1881 
L 2866 1881 
L 2388 3150 
Q 2169 3728 2063 4100 
Q 1975 3659 1816 3225 
L 1313 1881 
z
" transform="scale(0.015625)"/>
        <path id="ArialMT-64" d="M 2575 0 
L 2575 419 
Q 2259 -75 1647 -75 
Q 1250 -75 917 144 
Q 584 363 401 755 
Q 219 1147 219 1656 
Q 219 2153 384 2558 
Q 550 2963 881 3178 
Q 1213 3394 1622 3394 
Q 1922 3394 2156 3267 
Q 2391 3141 2538 2938 
L 2538 4581 
L 3097 4581 
L 3097 0 
L 2575 0 
z
M 797 1656 
Q 797 1019 1065 703 
Q 1334 388 1700 388 
Q 2069 388 2326 689 
Q 2584 991 2584 1609 
Q 2584 2291 2321 2609 
Q 2059 2928 1675 2928 
Q 1300 2928 1048 2622 
Q 797 2316 797 1656 
z
" transform="scale(0.015625)"/>
        <path id="ArialMT-65" d="M 2694 1069 
L 3275 997 
Q 3138 488 2766 206 
Q 2394 -75 1816 -75 
Q 1088 -75 661 373 
Q 234 822 234 1631 
Q 234 2469 665 2931 
Q 1097 3394 1784 3394 
Q 2450 3394 2872 2941 
Q 3294 2488 3294 1666 
Q 3294 1616 3291 1516 
L 816 1516 
Q 847 969 1125 678 
Q 1403 388 1819 388 
Q 2128 388 2347 550 
Q 2566 713 2694 1069 
z
M 847 1978 
L 2700 1978 
Q 2663 2397 2488 2606 
Q 2219 2931 1791 2931 
Q 1403 2931 1139 2672 
Q 875 2413 847 1978 
z
" transform="scale(0.015625)"/>
        <path id="ArialMT-6c" d="M 409 0 
L 409 4581 
L 972 4581 
L 972 0 
L 409 0 
z
" transform="scale(0.015625)"/>
        <path id="ArialMT-69" d="M 425 3934 
L 425 4581 
L 988 4581 
L 988 3934 
L 425 3934 
z
M 425 0 
L 425 3319 
L 988 3319 
L 988 0 
L 425 0 
z
" transform="scale(0.015625)"/>
       </defs>
       <use xlink:href="#ArialMT-41"/>
       <use xlink:href="#ArialMT-64" x="66.699219"/>
       <use xlink:href="#ArialMT-65" x="122.314453"/>
       <use xlink:href="#ArialMT-6c" x="177.929688"/>
       <use xlink:href="#ArialMT-69" x="200.146484"/>
       <use xlink:href="#ArialMT-65" x="222.363281"/>
      </g>
     </g>
    </g>
    <g id="xtick_2">
     <g id="text_2">
      <!-- Gentoo -->
      <g style="fill: #262626" transform="translate(180.392063 329.041625) scale(0.088 -0.088)">
       <defs>
        <path id="ArialMT-47" d="M 2638 1797 
L 2638 2334 
L 4578 2338 
L 4578 638 
Q 4131 281 3656 101 
Q 3181 -78 2681 -78 
Q 2006 -78 1454 211 
Q 903 500 622 1047 
Q 341 1594 341 2269 
Q 341 2938 620 3517 
Q 900 4097 1425 4378 
Q 1950 4659 2634 4659 
Q 3131 4659 3532 4498 
Q 3934 4338 4162 4050 
Q 4391 3763 4509 3300 
L 3963 3150 
Q 3859 3500 3706 3700 
Q 3553 3900 3268 4020 
Q 2984 4141 2638 4141 
Q 2222 4141 1919 4014 
Q 1616 3888 1430 3681 
Q 1244 3475 1141 3228 
Q 966 2803 966 2306 
Q 966 1694 1177 1281 
Q 1388 869 1791 669 
Q 2194 469 2647 469 
Q 3041 469 3416 620 
Q 3791 772 3984 944 
L 3984 1797 
L 2638 1797 
z
" transform="scale(0.015625)"/>
        <path id="ArialMT-6e" d="M 422 0 
L 422 3319 
L 928 3319 
L 928 2847 
Q 1294 3394 1984 3394 
Q 2284 3394 2536 3286 
Q 2788 3178 2913 3003 
Q 3038 2828 3088 2588 
Q 3119 2431 3119 2041 
L 3119 0 
L 2556 0 
L 2556 2019 
Q 2556 2363 2490 2533 
Q 2425 2703 2258 2804 
Q 2091 2906 1866 2906 
Q 1506 2906 1245 2678 
Q 984 2450 984 1813 
L 984 0 
L 422 0 
z
" transform="scale(0.015625)"/>
        <path id="ArialMT-74" d="M 1650 503 
L 1731 6 
Q 1494 -44 1306 -44 
Q 1000 -44 831 53 
Q 663 150 594 308 
Q 525 466 525 972 
L 525 2881 
L 113 2881 
L 113 3319 
L 525 3319 
L 525 4141 
L 1084 4478 
L 1084 3319 
L 1650 3319 
L 1650 2881 
L 1084 2881 
L 1084 941 
Q 1084 700 1114 631 
Q 1144 563 1211 522 
Q 1278 481 1403 481 
Q 1497 481 1650 503 
z
" transform="scale(0.015625)"/>
        <path id="ArialMT-6f" d="M 213 1659 
Q 213 2581 725 3025 
Q 1153 3394 1769 3394 
Q 2453 3394 2887 2945 
Q 3322 2497 3322 1706 
Q 3322 1066 3130 698 
Q 2938 331 2570 128 
Q 2203 -75 1769 -75 
Q 1072 -75 642 372 
Q 213 819 213 1659 
z
M 791 1659 
Q 791 1022 1069 705 
Q 1347 388 1769 388 
Q 2188 388 2466 706 
Q 2744 1025 2744 1678 
Q 2744 2294 2464 2611 
Q 2184 2928 1769 2928 
Q 1347 2928 1069 2612 
Q 791 2297 791 1659 
z
" transform="scale(0.015625)"/>
       </defs>
       <use xlink:href="#ArialMT-47"/>
       <use xlink:href="#ArialMT-65" x="77.783203"/>
       <use xlink:href="#ArialMT-6e" x="133.398438"/>
       <use xlink:href="#ArialMT-74" x="189.013672"/>
       <use xlink:href="#ArialMT-6f" x="216.796875"/>
       <use xlink:href="#ArialMT-6f" x="272.412109"/>
      </g>
     </g>
    </g>
    <g id="xtick_3">
     <g id="text_3">
      <!-- Chinstrap -->
      <g style="fill: #262626" transform="translate(275.913567 329.148875) scale(0.088 -0.088)">
       <defs>
        <path id="ArialMT-43" d="M 3763 1606 
L 4369 1453 
Q 4178 706 3683 314 
Q 3188 -78 2472 -78 
Q 1731 -78 1267 223 
Q 803 525 561 1097 
Q 319 1669 319 2325 
Q 319 3041 592 3573 
Q 866 4106 1370 4382 
Q 1875 4659 2481 4659 
Q 3169 4659 3637 4309 
Q 4106 3959 4291 3325 
L 3694 3184 
Q 3534 3684 3231 3912 
Q 2928 4141 2469 4141 
Q 1941 4141 1586 3887 
Q 1231 3634 1087 3207 
Q 944 2781 944 2328 
Q 944 1744 1114 1308 
Q 1284 872 1643 656 
Q 2003 441 2422 441 
Q 2931 441 3284 734 
Q 3638 1028 3763 1606 
z
" transform="scale(0.015625)"/>
        <path id="ArialMT-68" d="M 422 0 
L 422 4581 
L 984 4581 
L 984 2938 
Q 1378 3394 1978 3394 
Q 2347 3394 2619 3248 
Q 2891 3103 3008 2847 
Q 3125 2591 3125 2103 
L 3125 0 
L 2563 0 
L 2563 2103 
Q 2563 2525 2380 2717 
Q 2197 2909 1863 2909 
Q 1613 2909 1392 2779 
Q 1172 2650 1078 2428 
Q 984 2206 984 1816 
L 984 0 
L 422 0 
z
" transform="scale(0.015625)"/>
        <path id="ArialMT-73" d="M 197 991 
L 753 1078 
Q 800 744 1014 566 
Q 1228 388 1613 388 
Q 2000 388 2187 545 
Q 2375 703 2375 916 
Q 2375 1106 2209 1216 
Q 2094 1291 1634 1406 
Q 1016 1563 777 1677 
Q 538 1791 414 1992 
Q 291 2194 291 2438 
Q 291 2659 392 2848 
Q 494 3038 669 3163 
Q 800 3259 1026 3326 
Q 1253 3394 1513 3394 
Q 1903 3394 2198 3281 
Q 2494 3169 2634 2976 
Q 2775 2784 2828 2463 
L 2278 2388 
Q 2241 2644 2061 2787 
Q 1881 2931 1553 2931 
Q 1166 2931 1000 2803 
Q 834 2675 834 2503 
Q 834 2394 903 2306 
Q 972 2216 1119 2156 
Q 1203 2125 1616 2013 
Q 2213 1853 2448 1751 
Q 2684 1650 2818 1456 
Q 2953 1263 2953 975 
Q 2953 694 2789 445 
Q 2625 197 2315 61 
Q 2006 -75 1616 -75 
Q 969 -75 630 194 
Q 291 463 197 991 
z
" transform="scale(0.015625)"/>
        <path id="ArialMT-72" d="M 416 0 
L 416 3319 
L 922 3319 
L 922 2816 
Q 1116 3169 1280 3281 
Q 1444 3394 1641 3394 
Q 1925 3394 2219 3213 
L 2025 2691 
Q 1819 2813 1613 2813 
Q 1428 2813 1281 2702 
Q 1134 2591 1072 2394 
Q 978 2094 978 1738 
L 978 0 
L 416 0 
z
" transform="scale(0.015625)"/>
        <path id="ArialMT-61" d="M 2588 409 
Q 2275 144 1986 34 
Q 1697 -75 1366 -75 
Q 819 -75 525 192 
Q 231 459 231 875 
Q 231 1119 342 1320 
Q 453 1522 633 1644 
Q 813 1766 1038 1828 
Q 1203 1872 1538 1913 
Q 2219 1994 2541 2106 
Q 2544 2222 2544 2253 
Q 2544 2597 2384 2738 
Q 2169 2928 1744 2928 
Q 1347 2928 1158 2789 
Q 969 2650 878 2297 
L 328 2372 
Q 403 2725 575 2942 
Q 747 3159 1072 3276 
Q 1397 3394 1825 3394 
Q 2250 3394 2515 3294 
Q 2781 3194 2906 3042 
Q 3031 2891 3081 2659 
Q 3109 2516 3109 2141 
L 3109 1391 
Q 3109 606 3145 398 
Q 3181 191 3288 0 
L 2700 0 
Q 2613 175 2588 409 
z
M 2541 1666 
Q 2234 1541 1622 1453 
Q 1275 1403 1131 1340 
Q 988 1278 909 1158 
Q 831 1038 831 891 
Q 831 666 1001 516 
Q 1172 366 1500 366 
Q 1825 366 2078 508 
Q 2331 650 2450 897 
Q 2541 1088 2541 1459 
L 2541 1666 
z
" transform="scale(0.015625)"/>
        <path id="ArialMT-70" d="M 422 -1272 
L 422 3319 
L 934 3319 
L 934 2888 
Q 1116 3141 1344 3267 
Q 1572 3394 1897 3394 
Q 2322 3394 2647 3175 
Q 2972 2956 3137 2557 
Q 3303 2159 3303 1684 
Q 3303 1175 3120 767 
Q 2938 359 2589 142 
Q 2241 -75 1856 -75 
Q 1575 -75 1351 44 
Q 1128 163 984 344 
L 984 -1272 
L 422 -1272 
z
M 931 1641 
Q 931 1000 1190 694 
Q 1450 388 1819 388 
Q 2194 388 2461 705 
Q 2728 1022 2728 1688 
Q 2728 2322 2467 2637 
Q 2206 2953 1844 2953 
Q 1484 2953 1207 2617 
Q 931 2281 931 1641 
z
" transform="scale(0.015625)"/>
       </defs>
       <use xlink:href="#ArialMT-43"/>
       <use xlink:href="#ArialMT-68" x="72.216797"/>
       <use xlink:href="#ArialMT-69" x="127.832031"/>
       <use xlink:href="#ArialMT-6e" x="150.048828"/>
       <use xlink:href="#ArialMT-73" x="205.664062"/>
       <use xlink:href="#ArialMT-74" x="255.664062"/>
       <use xlink:href="#ArialMT-72" x="283.447266"/>
       <use xlink:href="#ArialMT-61" x="316.748047"/>
       <use xlink:href="#ArialMT-70" x="372.363281"/>
      </g>
     </g>
    </g>
    <g id="text_4">
     <!-- species -->
     <g style="fill: #262626" transform="translate(175.294963 343.143675) scale(0.1152 -0.1152)">
      <defs>
       <path id="ArialMT-63" d="M 2588 1216 
L 3141 1144 
Q 3050 572 2676 248 
Q 2303 -75 1759 -75 
Q 1078 -75 664 370 
Q 250 816 250 1647 
Q 250 2184 428 2587 
Q 606 2991 970 3192 
Q 1334 3394 1763 3394 
Q 2303 3394 2647 3120 
Q 2991 2847 3088 2344 
L 2541 2259 
Q 2463 2594 2264 2762 
Q 2066 2931 1784 2931 
Q 1359 2931 1093 2626 
Q 828 2322 828 1663 
Q 828 994 1084 691 
Q 1341 388 1753 388 
Q 2084 388 2306 591 
Q 2528 794 2588 1216 
z
" transform="scale(0.015625)"/>
      </defs>
      <use xlink:href="#ArialMT-73"/>
      <use xlink:href="#ArialMT-70" x="50"/>
      <use xlink:href="#ArialMT-65" x="105.615234"/>
      <use xlink:href="#ArialMT-63" x="161.230469"/>
      <use xlink:href="#ArialMT-69" x="211.230469"/>
      <use xlink:href="#ArialMT-65" x="233.447266"/>
      <use xlink:href="#ArialMT-73" x="289.0625"/>
     </g>
    </g>
   </g>
   <g id="matplotlib.axis_2">
    <g id="ytick_1">
     <g id="line2d_1">
      <path d="M 44.9449 265.35164 
L 344.703225 265.35164 
" clip-path="url(#p5eac11312e)" style="fill: none; stroke-dasharray: 1.85,0.8; stroke-dashoffset: 0; stroke: #b2b2b2; stroke-width: 0.5"/>
     </g>
     <g id="text_5">
      <!-- 3000 -->
      <g style="fill: #262626" transform="translate(21.8704 268.501077) scale(0.088 -0.088)">
       <defs>
        <path id="ArialMT-33" d="M 269 1209 
L 831 1284 
Q 928 806 1161 595 
Q 1394 384 1728 384 
Q 2125 384 2398 659 
Q 2672 934 2672 1341 
Q 2672 1728 2419 1979 
Q 2166 2231 1775 2231 
Q 1616 2231 1378 2169 
L 1441 2663 
Q 1497 2656 1531 2656 
Q 1891 2656 2178 2843 
Q 2466 3031 2466 3422 
Q 2466 3731 2256 3934 
Q 2047 4138 1716 4138 
Q 1388 4138 1169 3931 
Q 950 3725 888 3313 
L 325 3413 
Q 428 3978 793 4289 
Q 1159 4600 1703 4600 
Q 2078 4600 2393 4439 
Q 2709 4278 2876 4000 
Q 3044 3722 3044 3409 
Q 3044 3113 2884 2869 
Q 2725 2625 2413 2481 
Q 2819 2388 3044 2092 
Q 3269 1797 3269 1353 
Q 3269 753 2831 336 
Q 2394 -81 1725 -81 
Q 1122 -81 723 278 
Q 325 638 269 1209 
z
" transform="scale(0.015625)"/>
        <path id="ArialMT-30" d="M 266 2259 
Q 266 3072 433 3567 
Q 600 4063 929 4331 
Q 1259 4600 1759 4600 
Q 2128 4600 2406 4451 
Q 2684 4303 2865 4023 
Q 3047 3744 3150 3342 
Q 3253 2941 3253 2259 
Q 3253 1453 3087 958 
Q 2922 463 2592 192 
Q 2263 -78 1759 -78 
Q 1097 -78 719 397 
Q 266 969 266 2259 
z
M 844 2259 
Q 844 1131 1108 757 
Q 1372 384 1759 384 
Q 2147 384 2411 759 
Q 2675 1134 2675 2259 
Q 2675 3391 2411 3762 
Q 2147 4134 1753 4134 
Q 1366 4134 1134 3806 
Q 844 3388 844 2259 
z
" transform="scale(0.015625)"/>
       </defs>
       <use xlink:href="#ArialMT-33"/>
       <use xlink:href="#ArialMT-30" x="55.615234"/>
       <use xlink:href="#ArialMT-30" x="111.230469"/>
       <use xlink:href="#ArialMT-30" x="166.845703"/>
      </g>
     </g>
    </g>
    <g id="ytick_2">
     <g id="line2d_2">
      <path d="M 44.9449 197.113661 
L 344.703225 197.113661 
" clip-path="url(#p5eac11312e)" style="fill: none; stroke-dasharray: 1.85,0.8; stroke-dashoffset: 0; stroke: #b2b2b2; stroke-width: 0.5"/>
     </g>
     <g id="text_6">
      <!-- 4000 -->
      <g style="fill: #262626" transform="translate(21.8704 200.263099) scale(0.088 -0.088)">
       <defs>
        <path id="ArialMT-34" d="M 2069 0 
L 2069 1097 
L 81 1097 
L 81 1613 
L 2172 4581 
L 2631 4581 
L 2631 1613 
L 3250 1613 
L 3250 1097 
L 2631 1097 
L 2631 0 
L 2069 0 
z
M 2069 1613 
L 2069 3678 
L 634 1613 
L 2069 1613 
z
" transform="scale(0.015625)"/>
       </defs>
       <use xlink:href="#ArialMT-34"/>
       <use xlink:href="#ArialMT-30" x="55.615234"/>
       <use xlink:href="#ArialMT-30" x="111.230469"/>
       <use xlink:href="#ArialMT-30" x="166.845703"/>
      </g>
     </g>
    </g>
    <g id="ytick_3">
     <g id="line2d_3">
      <path d="M 44.9449 128.875682 
L 344.703225 128.875682 
" clip-path="url(#p5eac11312e)" style="fill: none; stroke-dasharray: 1.85,0.8; stroke-dashoffset: 0; stroke: #b2b2b2; stroke-width: 0.5"/>
     </g>
     <g id="text_7">
      <!-- 5000 -->
      <g style="fill: #262626" transform="translate(21.8704 132.02512) scale(0.088 -0.088)">
       <defs>
        <path id="ArialMT-35" d="M 266 1200 
L 856 1250 
Q 922 819 1161 601 
Q 1400 384 1738 384 
Q 2144 384 2425 690 
Q 2706 997 2706 1503 
Q 2706 1984 2436 2262 
Q 2166 2541 1728 2541 
Q 1456 2541 1237 2417 
Q 1019 2294 894 2097 
L 366 2166 
L 809 4519 
L 3088 4519 
L 3088 3981 
L 1259 3981 
L 1013 2750 
Q 1425 3038 1878 3038 
Q 2478 3038 2890 2622 
Q 3303 2206 3303 1553 
Q 3303 931 2941 478 
Q 2500 -78 1738 -78 
Q 1113 -78 717 272 
Q 322 622 266 1200 
z
" transform="scale(0.015625)"/>
       </defs>
       <use xlink:href="#ArialMT-35"/>
       <use xlink:href="#ArialMT-30" x="55.615234"/>
       <use xlink:href="#ArialMT-30" x="111.230469"/>
       <use xlink:href="#ArialMT-30" x="166.845703"/>
      </g>
     </g>
    </g>
    <g id="ytick_4">
     <g id="line2d_4">
      <path d="M 44.9449 60.637704 
L 344.703225 60.637704 
" clip-path="url(#p5eac11312e)" style="fill: none; stroke-dasharray: 1.85,0.8; stroke-dashoffset: 0; stroke: #b2b2b2; stroke-width: 0.5"/>
     </g>
     <g id="text_8">
      <!-- 6000 -->
      <g style="fill: #262626" transform="translate(21.8704 63.787141) scale(0.088 -0.088)">
       <defs>
        <path id="ArialMT-36" d="M 3184 3459 
L 2625 3416 
Q 2550 3747 2413 3897 
Q 2184 4138 1850 4138 
Q 1581 4138 1378 3988 
Q 1113 3794 959 3422 
Q 806 3050 800 2363 
Q 1003 2672 1297 2822 
Q 1591 2972 1913 2972 
Q 2475 2972 2870 2558 
Q 3266 2144 3266 1488 
Q 3266 1056 3080 686 
Q 2894 316 2569 119 
Q 2244 -78 1831 -78 
Q 1128 -78 684 439 
Q 241 956 241 2144 
Q 241 3472 731 4075 
Q 1159 4600 1884 4600 
Q 2425 4600 2770 4297 
Q 3116 3994 3184 3459 
z
M 888 1484 
Q 888 1194 1011 928 
Q 1134 663 1356 523 
Q 1578 384 1822 384 
Q 2178 384 2434 671 
Q 2691 959 2691 1453 
Q 2691 1928 2437 2201 
Q 2184 2475 1800 2475 
Q 1419 2475 1153 2201 
Q 888 1928 888 1484 
z
" transform="scale(0.015625)"/>
       </defs>
       <use xlink:href="#ArialMT-36"/>
       <use xlink:href="#ArialMT-30" x="55.615234"/>
       <use xlink:href="#ArialMT-30" x="111.230469"/>
       <use xlink:href="#ArialMT-30" x="166.845703"/>
      </g>
     </g>
    </g>
    <g id="text_9">
     <!-- body_mass_g -->
     <g style="fill: #262626" transform="translate(15.4458 199.080975) rotate(-90) scale(0.1152 -0.1152)">
      <defs>
       <path id="ArialMT-62" d="M 941 0 
L 419 0 
L 419 4581 
L 981 4581 
L 981 2947 
Q 1338 3394 1891 3394 
Q 2197 3394 2470 3270 
Q 2744 3147 2920 2923 
Q 3097 2700 3197 2384 
Q 3297 2069 3297 1709 
Q 3297 856 2875 390 
Q 2453 -75 1863 -75 
Q 1275 -75 941 416 
L 941 0 
z
M 934 1684 
Q 934 1088 1097 822 
Q 1363 388 1816 388 
Q 2184 388 2453 708 
Q 2722 1028 2722 1663 
Q 2722 2313 2464 2622 
Q 2206 2931 1841 2931 
Q 1472 2931 1203 2611 
Q 934 2291 934 1684 
z
" transform="scale(0.015625)"/>
       <path id="ArialMT-79" d="M 397 -1278 
L 334 -750 
Q 519 -800 656 -800 
Q 844 -800 956 -737 
Q 1069 -675 1141 -563 
Q 1194 -478 1313 -144 
Q 1328 -97 1363 -6 
L 103 3319 
L 709 3319 
L 1400 1397 
Q 1534 1031 1641 628 
Q 1738 1016 1872 1384 
L 2581 3319 
L 3144 3319 
L 1881 -56 
Q 1678 -603 1566 -809 
Q 1416 -1088 1222 -1217 
Q 1028 -1347 759 -1347 
Q 597 -1347 397 -1278 
z
" transform="scale(0.015625)"/>
       <path id="ArialMT-5f" d="M -97 -1272 
L -97 -866 
L 3631 -866 
L 3631 -1272 
L -97 -1272 
z
" transform="scale(0.015625)"/>
       <path id="ArialMT-6d" d="M 422 0 
L 422 3319 
L 925 3319 
L 925 2853 
Q 1081 3097 1340 3245 
Q 1600 3394 1931 3394 
Q 2300 3394 2536 3241 
Q 2772 3088 2869 2813 
Q 3263 3394 3894 3394 
Q 4388 3394 4653 3120 
Q 4919 2847 4919 2278 
L 4919 0 
L 4359 0 
L 4359 2091 
Q 4359 2428 4304 2576 
Q 4250 2725 4106 2815 
Q 3963 2906 3769 2906 
Q 3419 2906 3187 2673 
Q 2956 2441 2956 1928 
L 2956 0 
L 2394 0 
L 2394 2156 
Q 2394 2531 2256 2718 
Q 2119 2906 1806 2906 
Q 1569 2906 1367 2781 
Q 1166 2656 1075 2415 
Q 984 2175 984 1722 
L 984 0 
L 422 0 
z
" transform="scale(0.015625)"/>
       <path id="ArialMT-67" d="M 319 -275 
L 866 -356 
Q 900 -609 1056 -725 
Q 1266 -881 1628 -881 
Q 2019 -881 2231 -725 
Q 2444 -569 2519 -288 
Q 2563 -116 2559 434 
Q 2191 0 1641 0 
Q 956 0 581 494 
Q 206 988 206 1678 
Q 206 2153 378 2554 
Q 550 2956 876 3175 
Q 1203 3394 1644 3394 
Q 2231 3394 2613 2919 
L 2613 3319 
L 3131 3319 
L 3131 450 
Q 3131 -325 2973 -648 
Q 2816 -972 2473 -1159 
Q 2131 -1347 1631 -1347 
Q 1038 -1347 672 -1080 
Q 306 -813 319 -275 
z
M 784 1719 
Q 784 1066 1043 766 
Q 1303 466 1694 466 
Q 2081 466 2343 764 
Q 2606 1063 2606 1700 
Q 2606 2309 2336 2618 
Q 2066 2928 1684 2928 
Q 1309 2928 1046 2623 
Q 784 2319 784 1719 
z
" transform="scale(0.015625)"/>
      </defs>
      <use xlink:href="#ArialMT-62"/>
      <use xlink:href="#ArialMT-6f" x="55.615234"/>
      <use xlink:href="#ArialMT-64" x="111.230469"/>
      <use xlink:href="#ArialMT-79" x="166.845703"/>
      <use xlink:href="#ArialMT-5f" x="216.845703"/>
      <use xlink:href="#ArialMT-6d" x="272.460938"/>
      <use xlink:href="#ArialMT-61" x="355.761719"/>
      <use xlink:href="#ArialMT-73" x="411.376953"/>
      <use xlink:href="#ArialMT-73" x="461.376953"/>
      <use xlink:href="#ArialMT-5f" x="511.376953"/>
      <use xlink:href="#ArialMT-67" x="566.992188"/>
     </g>
    </g>
   </g>
   <g id="patch_3">
    <path d="M 94.904621 470.065576 
L 94.904621 470.065576 
L 94.904621 470.065576 
L 94.904621 470.065576 
z
" clip-path="url(#p5eac11312e)" style="fill: #4586ac; stroke: #343434; stroke-linejoin: miter"/>
   </g>
   <g id="PolyCollection_1">
    <defs>
     <path id="m88cd33b3ca" d="M 94.904621 -89.391854 
L 94.679611 -89.391854 
L 94.597074 -90.796696 
L 94.490435 -92.201537 
L 94.354782 -93.606379 
L 94.184808 -95.011221 
L 93.97494 -96.416062 
L 93.719509 -97.820904 
L 93.412957 -99.225745 
L 93.050094 -100.630587 
L 92.626386 -102.035429 
L 92.138276 -103.44027 
L 91.583506 -104.845112 
L 90.961436 -106.249953 
L 90.273299 -107.654795 
L 89.522373 -109.059637 
L 88.714011 -110.464478 
L 87.855493 -111.86932 
L 86.955681 -113.274161 
L 86.024456 -114.679003 
L 85.071988 -116.083844 
L 84.107877 -117.488686 
L 83.140264 -118.893528 
L 82.175023 -120.298369 
L 81.21514 -121.703211 
L 80.260397 -123.108052 
L 79.307414 -124.512894 
L 78.350098 -125.917736 
L 77.380459 -127.322577 
L 76.389743 -128.727419 
L 75.369741 -130.13226 
L 74.314177 -131.537102 
L 73.219996 -132.941944 
L 72.088444 -134.346785 
L 70.925823 -135.751627 
L 69.743842 -137.156468 
L 68.559515 -138.56131 
L 67.394592 -139.966151 
L 66.274545 -141.370993 
L 65.227141 -142.775835 
L 64.280697 -144.180676 
L 63.462116 -145.585518 
L 62.794853 -146.990359 
L 62.296998 -148.395201 
L 61.979649 -149.800043 
L 61.845786 -151.204884 
L 61.889783 -152.609726 
L 62.097687 -154.014567 
L 62.448265 -155.419409 
L 62.914764 -156.824251 
L 63.467217 -158.229092 
L 64.075053 -159.633934 
L 64.70973 -161.038775 
L 65.347087 -162.443617 
L 65.969166 -163.848458 
L 66.565285 -165.2533 
L 67.132298 -166.658142 
L 67.674021 -168.062983 
L 68.199946 -169.467825 
L 68.723444 -170.872666 
L 69.259675 -172.277508 
L 69.823489 -173.68235 
L 70.427536 -175.087191 
L 71.080782 -176.492033 
L 71.787558 -177.896874 
L 72.54719 -179.301716 
L 73.354198 -180.706558 
L 74.198992 -182.111399 
L 75.068951 -183.516241 
L 75.949756 -184.921082 
L 76.826823 -186.325924 
L 77.686703 -187.730765 
L 78.518327 -189.135607 
L 79.313961 -190.540449 
L 80.069821 -191.94529 
L 80.786259 -193.350132 
L 81.467527 -194.754973 
L 82.121138 -196.159815 
L 82.756877 -197.564657 
L 83.385585 -198.969498 
L 84.017839 -200.37434 
L 84.662681 -201.779181 
L 85.326538 -203.184023 
L 86.01245 -204.588865 
L 86.7197 -205.993706 
L 87.443855 -207.398548 
L 88.177218 -208.803389 
L 88.909595 -210.208231 
L 89.629292 -211.613072 
L 90.32419 -213.017914 
L 90.982794 -214.422756 
L 91.595129 -215.827597 
L 92.153411 -217.232439 
L 92.652441 -218.63728 
L 93.08973 -220.042122 
L 93.465366 -221.446964 
L 93.781693 -222.851805 
L 94.042843 -224.256647 
L 94.254221 -225.661488 
L 94.421974 -227.06633 
L 94.552515 -228.471171 
L 94.904621 -228.471171 
L 94.904621 -228.471171 
L 94.904621 -227.06633 
L 94.904621 -225.661488 
L 94.904621 -224.256647 
L 94.904621 -222.851805 
L 94.904621 -221.446964 
L 94.904621 -220.042122 
L 94.904621 -218.63728 
L 94.904621 -217.232439 
L 94.904621 -215.827597 
L 94.904621 -214.422756 
L 94.904621 -213.017914 
L 94.904621 -211.613072 
L 94.904621 -210.208231 
L 94.904621 -208.803389 
L 94.904621 -207.398548 
L 94.904621 -205.993706 
L 94.904621 -204.588865 
L 94.904621 -203.184023 
L 94.904621 -201.779181 
L 94.904621 -200.37434 
L 94.904621 -198.969498 
L 94.904621 -197.564657 
L 94.904621 -196.159815 
L 94.904621 -194.754973 
L 94.904621 -193.350132 
L 94.904621 -191.94529 
L 94.904621 -190.540449 
L 94.904621 -189.135607 
L 94.904621 -187.730765 
L 94.904621 -186.325924 
L 94.904621 -184.921082 
L 94.904621 -183.516241 
L 94.904621 -182.111399 
L 94.904621 -180.706558 
L 94.904621 -179.301716 
L 94.904621 -177.896874 
L 94.904621 -176.492033 
L 94.904621 -175.087191 
L 94.904621 -173.68235 
L 94.904621 -172.277508 
L 94.904621 -170.872666 
L 94.904621 -169.467825 
L 94.904621 -168.062983 
L 94.904621 -166.658142 
L 94.904621 -165.2533 
L 94.904621 -163.848458 
L 94.904621 -162.443617 
L 94.904621 -161.038775 
L 94.904621 -159.633934 
L 94.904621 -158.229092 
L 94.904621 -156.824251 
L 94.904621 -155.419409 
L 94.904621 -154.014567 
L 94.904621 -152.609726 
L 94.904621 -151.204884 
L 94.904621 -149.800043 
L 94.904621 -148.395201 
L 94.904621 -146.990359 
L 94.904621 -145.585518 
L 94.904621 -144.180676 
L 94.904621 -142.775835 
L 94.904621 -141.370993 
L 94.904621 -139.966151 
L 94.904621 -138.56131 
L 94.904621 -137.156468 
L 94.904621 -135.751627 
L 94.904621 -134.346785 
L 94.904621 -132.941944 
L 94.904621 -131.537102 
L 94.904621 -130.13226 
L 94.904621 -128.727419 
L 94.904621 -127.322577 
L 94.904621 -125.917736 
L 94.904621 -124.512894 
L 94.904621 -123.108052 
L 94.904621 -121.703211 
L 94.904621 -120.298369 
L 94.904621 -118.893528 
L 94.904621 -117.488686 
L 94.904621 -116.083844 
L 94.904621 -114.679003 
L 94.904621 -113.274161 
L 94.904621 -111.86932 
L 94.904621 -110.464478 
L 94.904621 -109.059637 
L 94.904621 -107.654795 
L 94.904621 -106.249953 
L 94.904621 -104.845112 
L 94.904621 -103.44027 
L 94.904621 -102.035429 
L 94.904621 -100.630587 
L 94.904621 -99.225745 
L 94.904621 -97.820904 
L 94.904621 -96.416062 
L 94.904621 -95.011221 
L 94.904621 -93.606379 
L 94.904621 -92.201537 
L 94.904621 -90.796696 
L 94.904621 -89.391854 
z
" style="stroke: #343434; stroke-width: 2"/>
    </defs>
    <g clip-path="url(#p5eac11312e)">
     <use xlink:href="#m88cd33b3ca" x="0" y="352.633275" style="fill: #4586ac; stroke: #343434; stroke-width: 2"/>
    </g>
   </g>
   <g id="patch_4">
    <path d="M 94.904621 470.065576 
L 94.904621 470.065576 
L 94.904621 470.065576 
L 94.904621 470.065576 
z
" clip-path="url(#p5eac11312e)" style="fill: #921a33; stroke: #343434; stroke-linejoin: miter"/>
   </g>
   <g id="PolyCollection_2">
    <defs>
     <path id="m444ae8ba1a" d="M 95.606088 -61.459134 
L 94.904621 -61.459134 
L 94.904621 -62.497755 
L 94.904621 -63.536376 
L 94.904621 -64.574997 
L 94.904621 -65.613618 
L 94.904621 -66.652239 
L 94.904621 -67.69086 
L 94.904621 -68.729481 
L 94.904621 -69.768102 
L 94.904621 -70.806724 
L 94.904621 -71.845345 
L 94.904621 -72.883966 
L 94.904621 -73.922587 
L 94.904621 -74.961208 
L 94.904621 -75.999829 
L 94.904621 -77.03845 
L 94.904621 -78.077071 
L 94.904621 -79.115692 
L 94.904621 -80.154313 
L 94.904621 -81.192934 
L 94.904621 -82.231555 
L 94.904621 -83.270176 
L 94.904621 -84.308798 
L 94.904621 -85.347419 
L 94.904621 -86.38604 
L 94.904621 -87.424661 
L 94.904621 -88.463282 
L 94.904621 -89.501903 
L 94.904621 -90.540524 
L 94.904621 -91.579145 
L 94.904621 -92.617766 
L 94.904621 -93.656387 
L 94.904621 -94.695008 
L 94.904621 -95.733629 
L 94.904621 -96.77225 
L 94.904621 -97.810872 
L 94.904621 -98.849493 
L 94.904621 -99.888114 
L 94.904621 -100.926735 
L 94.904621 -101.965356 
L 94.904621 -103.003977 
L 94.904621 -104.042598 
L 94.904621 -105.081219 
L 94.904621 -106.11984 
L 94.904621 -107.158461 
L 94.904621 -108.197082 
L 94.904621 -109.235703 
L 94.904621 -110.274325 
L 94.904621 -111.312946 
L 94.904621 -112.351567 
L 94.904621 -113.390188 
L 94.904621 -114.428809 
L 94.904621 -115.46743 
L 94.904621 -116.506051 
L 94.904621 -117.544672 
L 94.904621 -118.583293 
L 94.904621 -119.621914 
L 94.904621 -120.660535 
L 94.904621 -121.699156 
L 94.904621 -122.737777 
L 94.904621 -123.776399 
L 94.904621 -124.81502 
L 94.904621 -125.853641 
L 94.904621 -126.892262 
L 94.904621 -127.930883 
L 94.904621 -128.969504 
L 94.904621 -130.008125 
L 94.904621 -131.046746 
L 94.904621 -132.085367 
L 94.904621 -133.123988 
L 94.904621 -134.162609 
L 94.904621 -135.20123 
L 94.904621 -136.239852 
L 94.904621 -137.278473 
L 94.904621 -138.317094 
L 94.904621 -139.355715 
L 94.904621 -140.394336 
L 94.904621 -141.432957 
L 94.904621 -142.471578 
L 94.904621 -143.510199 
L 94.904621 -144.54882 
L 94.904621 -145.587441 
L 94.904621 -146.626062 
L 94.904621 -147.664683 
L 94.904621 -148.703304 
L 94.904621 -149.741926 
L 94.904621 -150.780547 
L 94.904621 -151.819168 
L 94.904621 -152.857789 
L 94.904621 -153.89641 
L 94.904621 -154.935031 
L 94.904621 -155.973652 
L 94.904621 -157.012273 
L 94.904621 -158.050894 
L 94.904621 -159.089515 
L 94.904621 -160.128136 
L 94.904621 -161.166757 
L 94.904621 -162.205379 
L 94.904621 -163.244 
L 94.904621 -164.282621 
L 95.264796 -164.282621 
L 95.264796 -164.282621 
L 95.396074 -163.244 
L 95.566104 -162.205379 
L 95.783046 -161.166757 
L 96.055738 -160.128136 
L 96.393435 -159.089515 
L 96.80545 -158.050894 
L 97.300695 -157.012273 
L 97.887146 -155.973652 
L 98.571245 -154.935031 
L 99.357287 -153.89641 
L 100.246823 -152.857789 
L 101.238161 -151.819168 
L 102.326005 -150.780547 
L 103.501292 -149.741926 
L 104.751292 -148.703304 
L 106.059984 -147.664683 
L 107.408723 -146.626062 
L 108.777181 -145.587441 
L 110.144503 -144.54882 
L 111.490604 -143.510199 
L 112.797491 -142.471578 
L 114.050508 -141.432957 
L 115.239359 -140.394336 
L 116.358816 -139.355715 
L 117.409019 -138.317094 
L 118.395314 -137.278473 
L 119.327626 -136.239852 
L 120.219415 -135.20123 
L 121.086282 -134.162609 
L 121.944381 -133.123988 
L 122.80875 -132.085367 
L 123.691747 -131.046746 
L 124.601723 -130.008125 
L 125.54206 -128.969504 
L 126.510655 -127.930883 
L 127.4999 -126.892262 
L 128.497139 -125.853641 
L 129.485546 -124.81502 
L 130.445354 -123.776399 
L 131.355282 -122.737777 
L 132.194068 -121.699156 
L 132.941945 -120.660535 
L 133.581959 -119.621914 
L 134.101032 -118.583293 
L 134.490673 -117.544672 
L 134.747339 -116.506051 
L 134.872398 -115.46743 
L 134.871733 -114.428809 
L 134.755046 -113.390188 
L 134.534907 -112.351567 
L 134.225651 -111.312946 
L 133.842214 -110.274325 
L 133.398998 -109.235703 
L 132.908864 -108.197082 
L 132.382333 -107.158461 
L 131.827049 -106.11984 
L 131.247553 -105.081219 
L 130.645373 -104.042598 
L 130.01941 -103.003977 
L 129.366569 -101.965356 
L 128.682566 -100.926735 
L 127.962808 -99.888114 
L 127.203263 -98.849493 
L 126.401205 -97.810872 
L 125.555777 -96.77225 
L 124.668289 -95.733629 
L 123.742249 -94.695008 
L 122.78311 -93.656387 
L 121.79778 -92.617766 
L 120.79395 -91.579145 
L 119.77932 -90.540524 
L 118.76081 -89.501903 
L 117.743867 -88.463282 
L 116.731925 -87.424661 
L 115.726131 -86.38604 
L 114.725341 -85.347419 
L 113.726441 -84.308798 
L 112.724937 -83.270176 
L 111.715771 -82.231555 
L 110.694266 -81.192934 
L 109.657081 -80.154313 
L 108.603057 -79.115692 
L 107.533835 -78.077071 
L 106.454163 -77.03845 
L 105.371852 -75.999829 
L 104.297372 -74.961208 
L 103.243141 -73.922587 
L 102.222601 -72.883966 
L 101.249182 -71.845345 
L 100.335294 -70.806724 
L 99.491434 -69.768102 
L 98.725522 -68.729481 
L 98.042498 -67.69086 
L 97.444205 -66.652239 
L 96.929542 -65.613618 
L 96.494824 -64.574997 
L 96.1343 -63.536376 
L 95.840751 -62.497755 
L 95.606088 -61.459134 
z
" style="stroke: #343434; stroke-width: 2"/>
    </defs>
    <g clip-path="url(#p5eac11312e)">
     <use xlink:href="#m444ae8ba1a" x="0" y="352.633275" style="fill: #921a33; stroke: #343434; stroke-width: 2"/>
    </g>
   </g>
   <g id="PolyCollection_3">
    <defs>
     <path id="m4b06c680df" d="M 194.824063 -187.915549 
L 194.619199 -187.915549 
L 194.544914 -189.363367 
L 194.4514 -190.811185 
L 194.336239 -192.259003 
L 194.197284 -193.706821 
L 194.032667 -195.154639 
L 193.840678 -196.602456 
L 193.619533 -198.050274 
L 193.367018 -199.498092 
L 193.080077 -200.94591 
L 192.754433 -202.393728 
L 192.384336 -203.841546 
L 191.962579 -205.289363 
L 191.480839 -206.737181 
L 190.930402 -208.184999 
L 190.303225 -209.632817 
L 189.593203 -211.080635 
L 188.797458 -212.528452 
L 187.917396 -213.97627 
L 186.959299 -215.424088 
L 185.934255 -216.871906 
L 184.857352 -218.319724 
L 183.74617 -219.767542 
L 182.618772 -221.215359 
L 181.491488 -222.663177 
L 180.376868 -224.110995 
L 179.282171 -225.558813 
L 178.208679 -227.006631 
L 177.151991 -228.454448 
L 176.103257 -229.902266 
L 175.051182 -231.350084 
L 173.984417 -232.797902 
L 172.89396 -234.24572 
L 171.775126 -235.693538 
L 170.628788 -237.141355 
L 169.461693 -238.589173 
L 168.285885 -240.036991 
L 167.117391 -241.484809 
L 165.974505 -242.932627 
L 164.875999 -244.380444 
L 163.839629 -245.828262 
L 162.881159 -247.27608 
L 162.014014 -248.723898 
L 161.24949 -250.171716 
L 160.59736 -251.619534 
L 160.066591 -253.067351 
L 159.665922 -254.515169 
L 159.404094 -255.962987 
L 159.289624 -257.410805 
L 159.330158 -258.858623 
L 159.531523 -260.30644 
L 159.896683 -261.754258 
L 160.424807 -263.202076 
L 161.110635 -264.649894 
L 161.944256 -266.097712 
L 162.911318 -267.54553 
L 163.993664 -268.993347 
L 165.170281 -270.441165 
L 166.41847 -271.888983 
L 167.71513 -273.336801 
L 169.038052 -274.784619 
L 170.367126 -276.232436 
L 171.685403 -277.680254 
L 172.979896 -279.128072 
L 174.242075 -280.57589 
L 175.467953 -282.023708 
L 176.657738 -283.471526 
L 177.815036 -284.919343 
L 178.945651 -286.367161 
L 180.056116 -287.814979 
L 181.152111 -289.262797 
L 182.236999 -290.710615 
L 183.310697 -292.158433 
L 184.369078 -293.60625 
L 185.404008 -295.054068 
L 186.404064 -296.501886 
L 187.355804 -297.949704 
L 188.245438 -299.397522 
L 189.060603 -300.845339 
L 189.791988 -302.293157 
L 190.434538 -303.740975 
L 190.988059 -305.188793 
L 191.457159 -306.636611 
L 191.850552 -308.084429 
L 192.179871 -309.532246 
L 192.458206 -310.980064 
L 192.698597 -312.427882 
L 192.912716 -313.8757 
L 193.109908 -315.323518 
L 193.29667 -316.771335 
L 193.476598 -318.219153 
L 193.650722 -319.666971 
L 193.818121 -321.114789 
L 193.976662 -322.562607 
L 194.12375 -324.010425 
L 194.256957 -325.458242 
L 194.374474 -326.90606 
L 194.475359 -328.353878 
L 194.559595 -329.801696 
L 194.627995 -331.249514 
L 194.824063 -331.249514 
L 194.824063 -331.249514 
L 194.824063 -329.801696 
L 194.824063 -328.353878 
L 194.824063 -326.90606 
L 194.824063 -325.458242 
L 194.824063 -324.010425 
L 194.824063 -322.562607 
L 194.824063 -321.114789 
L 194.824063 -319.666971 
L 194.824063 -318.219153 
L 194.824063 -316.771335 
L 194.824063 -315.323518 
L 194.824063 -313.8757 
L 194.824063 -312.427882 
L 194.824063 -310.980064 
L 194.824063 -309.532246 
L 194.824063 -308.084429 
L 194.824063 -306.636611 
L 194.824063 -305.188793 
L 194.824063 -303.740975 
L 194.824063 -302.293157 
L 194.824063 -300.845339 
L 194.824063 -299.397522 
L 194.824063 -297.949704 
L 194.824063 -296.501886 
L 194.824063 -295.054068 
L 194.824063 -293.60625 
L 194.824063 -292.158433 
L 194.824063 -290.710615 
L 194.824063 -289.262797 
L 194.824063 -287.814979 
L 194.824063 -286.367161 
L 194.824063 -284.919343 
L 194.824063 -283.471526 
L 194.824063 -282.023708 
L 194.824063 -280.57589 
L 194.824063 -279.128072 
L 194.824063 -277.680254 
L 194.824063 -276.232436 
L 194.824063 -274.784619 
L 194.824063 -273.336801 
L 194.824063 -271.888983 
L 194.824063 -270.441165 
L 194.824063 -268.993347 
L 194.824063 -267.54553 
L 194.824063 -266.097712 
L 194.824063 -264.649894 
L 194.824063 -263.202076 
L 194.824063 -261.754258 
L 194.824063 -260.30644 
L 194.824063 -258.858623 
L 194.824063 -257.410805 
L 194.824063 -255.962987 
L 194.824063 -254.515169 
L 194.824063 -253.067351 
L 194.824063 -251.619534 
L 194.824063 -250.171716 
L 194.824063 -248.723898 
L 194.824063 -247.27608 
L 194.824063 -245.828262 
L 194.824063 -244.380444 
L 194.824063 -242.932627 
L 194.824063 -241.484809 
L 194.824063 -240.036991 
L 194.824063 -238.589173 
L 194.824063 -237.141355 
L 194.824063 -235.693538 
L 194.824063 -234.24572 
L 194.824063 -232.797902 
L 194.824063 -231.350084 
L 194.824063 -229.902266 
L 194.824063 -228.454448 
L 194.824063 -227.006631 
L 194.824063 -225.558813 
L 194.824063 -224.110995 
L 194.824063 -222.663177 
L 194.824063 -221.215359 
L 194.824063 -219.767542 
L 194.824063 -218.319724 
L 194.824063 -216.871906 
L 194.824063 -215.424088 
L 194.824063 -213.97627 
L 194.824063 -212.528452 
L 194.824063 -211.080635 
L 194.824063 -209.632817 
L 194.824063 -208.184999 
L 194.824063 -206.737181 
L 194.824063 -205.289363 
L 194.824063 -203.841546 
L 194.824063 -202.393728 
L 194.824063 -200.94591 
L 194.824063 -199.498092 
L 194.824063 -198.050274 
L 194.824063 -196.602456 
L 194.824063 -195.154639 
L 194.824063 -193.706821 
L 194.824063 -192.259003 
L 194.824063 -190.811185 
L 194.824063 -189.363367 
L 194.824063 -187.915549 
z
" style="stroke: #343434; stroke-width: 2"/>
    </defs>
    <g clip-path="url(#p5eac11312e)">
     <use xlink:href="#m4b06c680df" x="0" y="352.633275" style="fill: #4586ac; stroke: #343434; stroke-width: 2"/>
    </g>
   </g>
   <g id="PolyCollection_4">
    <defs>
     <path id="m345ef23593" d="M 195.053568 -135.04808 
L 194.824063 -135.04808 
L 194.824063 -136.25431 
L 194.824063 -137.46054 
L 194.824063 -138.66677 
L 194.824063 -139.872999 
L 194.824063 -141.079229 
L 194.824063 -142.285459 
L 194.824063 -143.491689 
L 194.824063 -144.697918 
L 194.824063 -145.904148 
L 194.824063 -147.110378 
L 194.824063 -148.316607 
L 194.824063 -149.522837 
L 194.824063 -150.729067 
L 194.824063 -151.935297 
L 194.824063 -153.141526 
L 194.824063 -154.347756 
L 194.824063 -155.553986 
L 194.824063 -156.760215 
L 194.824063 -157.966445 
L 194.824063 -159.172675 
L 194.824063 -160.378905 
L 194.824063 -161.585134 
L 194.824063 -162.791364 
L 194.824063 -163.997594 
L 194.824063 -165.203824 
L 194.824063 -166.410053 
L 194.824063 -167.616283 
L 194.824063 -168.822513 
L 194.824063 -170.028742 
L 194.824063 -171.234972 
L 194.824063 -172.441202 
L 194.824063 -173.647432 
L 194.824063 -174.853661 
L 194.824063 -176.059891 
L 194.824063 -177.266121 
L 194.824063 -178.47235 
L 194.824063 -179.67858 
L 194.824063 -180.88481 
L 194.824063 -182.09104 
L 194.824063 -183.297269 
L 194.824063 -184.503499 
L 194.824063 -185.709729 
L 194.824063 -186.915959 
L 194.824063 -188.122188 
L 194.824063 -189.328418 
L 194.824063 -190.534648 
L 194.824063 -191.740877 
L 194.824063 -192.947107 
L 194.824063 -194.153337 
L 194.824063 -195.359567 
L 194.824063 -196.565796 
L 194.824063 -197.772026 
L 194.824063 -198.978256 
L 194.824063 -200.184485 
L 194.824063 -201.390715 
L 194.824063 -202.596945 
L 194.824063 -203.803175 
L 194.824063 -205.009404 
L 194.824063 -206.215634 
L 194.824063 -207.421864 
L 194.824063 -208.628094 
L 194.824063 -209.834323 
L 194.824063 -211.040553 
L 194.824063 -212.246783 
L 194.824063 -213.453012 
L 194.824063 -214.659242 
L 194.824063 -215.865472 
L 194.824063 -217.071702 
L 194.824063 -218.277931 
L 194.824063 -219.484161 
L 194.824063 -220.690391 
L 194.824063 -221.896621 
L 194.824063 -223.10285 
L 194.824063 -224.30908 
L 194.824063 -225.51531 
L 194.824063 -226.721539 
L 194.824063 -227.927769 
L 194.824063 -229.133999 
L 194.824063 -230.340229 
L 194.824063 -231.546458 
L 194.824063 -232.752688 
L 194.824063 -233.958918 
L 194.824063 -235.165147 
L 194.824063 -236.371377 
L 194.824063 -237.577607 
L 194.824063 -238.783837 
L 194.824063 -239.990066 
L 194.824063 -241.196296 
L 194.824063 -242.402526 
L 194.824063 -243.608756 
L 194.824063 -244.814985 
L 194.824063 -246.021215 
L 194.824063 -247.227445 
L 194.824063 -248.433674 
L 194.824063 -249.639904 
L 194.824063 -250.846134 
L 194.824063 -252.052364 
L 194.824063 -253.258593 
L 194.824063 -254.464823 
L 195.421543 -254.464823 
L 195.421543 -254.464823 
L 195.627535 -253.258593 
L 195.88588 -252.052364 
L 196.20356 -250.846134 
L 196.586733 -249.639904 
L 197.040296 -248.433674 
L 197.567545 -247.227445 
L 198.169974 -246.021215 
L 198.847279 -244.814985 
L 199.597579 -243.608756 
L 200.417856 -242.402526 
L 201.304551 -241.196296 
L 202.254237 -239.990066 
L 203.264244 -238.783837 
L 204.333136 -237.577607 
L 205.460897 -236.371377 
L 206.648798 -235.165147 
L 207.898892 -233.958918 
L 209.213204 -232.752688 
L 210.592729 -231.546458 
L 212.036369 -230.340229 
L 213.540004 -229.133999 
L 215.095857 -227.927769 
L 216.692268 -226.721539 
L 218.313955 -225.51531 
L 219.94274 -224.30908 
L 221.558648 -223.10285 
L 223.141229 -221.896621 
L 224.670905 -220.690391 
L 226.130135 -219.484161 
L 227.50422 -218.277931 
L 228.781624 -217.071702 
L 229.953769 -215.865472 
L 231.014348 -214.659242 
L 231.958286 -213.453012 
L 232.780558 -212.246783 
L 233.4751 -211.040553 
L 234.034056 -209.834323 
L 234.447554 -208.628094 
L 234.704134 -207.421864 
L 234.791839 -206.215634 
L 234.69986 -205.009404 
L 234.420516 -203.803175 
L 233.951291 -202.596945 
L 233.296579 -201.390715 
L 232.468825 -200.184485 
L 231.488819 -198.978256 
L 230.385001 -197.772026 
L 229.191775 -196.565796 
L 227.947005 -195.359567 
L 226.688959 -194.153337 
L 225.453091 -192.947107 
L 224.269072 -191.740877 
L 223.158461 -190.534648 
L 222.133311 -189.328418 
L 221.195873 -188.122188 
L 220.339399 -186.915959 
L 219.549885 -185.709729 
L 218.808452 -184.503499 
L 218.094016 -183.297269 
L 217.385847 -182.09104 
L 216.665692 -180.88481 
L 215.919246 -179.67858 
L 215.136862 -178.47235 
L 214.313565 -177.266121 
L 213.448507 -176.059891 
L 212.544111 -174.853661 
L 211.605119 -173.647432 
L 210.637778 -172.441202 
L 209.649259 -171.234972 
L 208.647366 -170.028742 
L 207.640483 -168.822513 
L 206.637625 -167.616283 
L 205.648483 -166.410053 
L 204.68332 -165.203824 
L 203.752652 -163.997594 
L 202.866712 -162.791364 
L 202.034749 -161.585134 
L 201.264275 -160.378905 
L 200.560403 -159.172675 
L 199.925398 -157.966445 
L 199.358527 -156.760215 
L 198.856259 -155.553986 
L 198.412773 -154.347756 
L 198.020699 -153.141526 
L 197.67198 -151.935297 
L 197.358721 -150.729067 
L 197.073906 -149.522837 
L 196.811906 -148.316607 
L 196.568727 -147.110378 
L 196.342004 -145.904148 
L 196.130788 -144.697918 
L 195.935178 -143.491689 
L 195.755902 -142.285459 
L 195.593885 -141.079229 
L 195.449905 -139.872999 
L 195.324331 -138.66677 
L 195.216993 -137.46054 
L 195.127153 -136.25431 
L 195.053568 -135.04808 
z
" style="stroke: #343434; stroke-width: 2"/>
    </defs>
    <g clip-path="url(#p5eac11312e)">
     <use xlink:href="#m345ef23593" x="0" y="352.633275" style="fill: #921a33; stroke: #343434; stroke-width: 2"/>
    </g>
   </g>
   <g id="PolyCollection_5">
    <defs>
     <path id="m7384becc07" d="M 294.743504 -79.927412 
L 294.299445 -79.927412 
L 294.159331 -81.488991 
L 293.986076 -83.050569 
L 293.775399 -84.612148 
L 293.523457 -86.173727 
L 293.227128 -87.735306 
L 292.884287 -89.296885 
L 292.494041 -90.858464 
L 292.056909 -92.420042 
L 291.574884 -93.981621 
L 291.051391 -95.5432 
L 290.491099 -97.104779 
L 289.899604 -98.666358 
L 289.282985 -100.227936 
L 288.647281 -101.789515 
L 287.997913 -103.351094 
L 287.339125 -104.912673 
L 286.673489 -106.474252 
L 286.00154 -108.035831 
L 285.321593 -109.597409 
L 284.629772 -111.158988 
L 283.920273 -112.720567 
L 283.185853 -114.282146 
L 282.418528 -115.843725 
L 281.610405 -117.405303 
L 280.754603 -118.966882 
L 279.846167 -120.528461 
L 278.882879 -122.09004 
L 277.865892 -123.651619 
L 276.800106 -125.213198 
L 275.694246 -126.774776 
L 274.560605 -128.336355 
L 273.414498 -129.897934 
L 272.273456 -131.459513 
L 271.156263 -133.021092 
L 270.081935 -134.582671 
L 269.068762 -136.144249 
L 268.133505 -137.705828 
L 267.290852 -139.267407 
L 266.553139 -140.828986 
L 265.930356 -142.390565 
L 265.430376 -143.952143 
L 265.059305 -145.513722 
L 264.821855 -147.075301 
L 264.721629 -148.63688 
L 264.761206 -150.198459 
L 264.942002 -151.760038 
L 265.263892 -153.321616 
L 265.724651 -154.883195 
L 266.319325 -156.444774 
L 267.039648 -158.006353 
L 267.873657 -159.567932 
L 268.805617 -161.12951 
L 269.816336 -162.691089 
L 270.883885 -164.252668 
L 271.984693 -165.814247 
L 273.094907 -167.375826 
L 274.191881 -168.937405 
L 275.255626 -170.498983 
L 276.27006 -172.060562 
L 277.223906 -173.622141 
L 278.111163 -175.18372 
L 278.931079 -176.745299 
L 279.687666 -178.306878 
L 280.388809 -179.868456 
L 281.045084 -181.430035 
L 281.668431 -182.991614 
L 282.270809 -184.553193 
L 282.862989 -186.114772 
L 283.45359 -187.67635 
L 284.04843 -189.237929 
L 284.650248 -190.799508 
L 285.258774 -192.361087 
L 285.871116 -193.922666 
L 286.482381 -195.484245 
L 287.086449 -197.045823 
L 287.676777 -198.607402 
L 288.24716 -200.168981 
L 288.792344 -201.73056 
L 289.308455 -203.292139 
L 289.7932 -204.853717 
L 290.245856 -206.415296 
L 290.667073 -207.976875 
L 291.05854 -209.538454 
L 291.422581 -211.100033 
L 291.761742 -212.661612 
L 292.078431 -214.22319 
L 292.37464 -215.784769 
L 292.651788 -217.346348 
L 292.91068 -218.907927 
L 293.151564 -220.469506 
L 293.374274 -222.031085 
L 293.57841 -223.592663 
L 293.763536 -225.154242 
L 293.929356 -226.715821 
L 294.075848 -228.2774 
L 294.203352 -229.838979 
L 294.312593 -231.400557 
L 294.404666 -232.962136 
L 294.48097 -234.523715 
L 294.743504 -234.523715 
L 294.743504 -234.523715 
L 294.743504 -232.962136 
L 294.743504 -231.400557 
L 294.743504 -229.838979 
L 294.743504 -228.2774 
L 294.743504 -226.715821 
L 294.743504 -225.154242 
L 294.743504 -223.592663 
L 294.743504 -222.031085 
L 294.743504 -220.469506 
L 294.743504 -218.907927 
L 294.743504 -217.346348 
L 294.743504 -215.784769 
L 294.743504 -214.22319 
L 294.743504 -212.661612 
L 294.743504 -211.100033 
L 294.743504 -209.538454 
L 294.743504 -207.976875 
L 294.743504 -206.415296 
L 294.743504 -204.853717 
L 294.743504 -203.292139 
L 294.743504 -201.73056 
L 294.743504 -200.168981 
L 294.743504 -198.607402 
L 294.743504 -197.045823 
L 294.743504 -195.484245 
L 294.743504 -193.922666 
L 294.743504 -192.361087 
L 294.743504 -190.799508 
L 294.743504 -189.237929 
L 294.743504 -187.67635 
L 294.743504 -186.114772 
L 294.743504 -184.553193 
L 294.743504 -182.991614 
L 294.743504 -181.430035 
L 294.743504 -179.868456 
L 294.743504 -178.306878 
L 294.743504 -176.745299 
L 294.743504 -175.18372 
L 294.743504 -173.622141 
L 294.743504 -172.060562 
L 294.743504 -170.498983 
L 294.743504 -168.937405 
L 294.743504 -167.375826 
L 294.743504 -165.814247 
L 294.743504 -164.252668 
L 294.743504 -162.691089 
L 294.743504 -161.12951 
L 294.743504 -159.567932 
L 294.743504 -158.006353 
L 294.743504 -156.444774 
L 294.743504 -154.883195 
L 294.743504 -153.321616 
L 294.743504 -151.760038 
L 294.743504 -150.198459 
L 294.743504 -148.63688 
L 294.743504 -147.075301 
L 294.743504 -145.513722 
L 294.743504 -143.952143 
L 294.743504 -142.390565 
L 294.743504 -140.828986 
L 294.743504 -139.267407 
L 294.743504 -137.705828 
L 294.743504 -136.144249 
L 294.743504 -134.582671 
L 294.743504 -133.021092 
L 294.743504 -131.459513 
L 294.743504 -129.897934 
L 294.743504 -128.336355 
L 294.743504 -126.774776 
L 294.743504 -125.213198 
L 294.743504 -123.651619 
L 294.743504 -122.09004 
L 294.743504 -120.528461 
L 294.743504 -118.966882 
L 294.743504 -117.405303 
L 294.743504 -115.843725 
L 294.743504 -114.282146 
L 294.743504 -112.720567 
L 294.743504 -111.158988 
L 294.743504 -109.597409 
L 294.743504 -108.035831 
L 294.743504 -106.474252 
L 294.743504 -104.912673 
L 294.743504 -103.351094 
L 294.743504 -101.789515 
L 294.743504 -100.227936 
L 294.743504 -98.666358 
L 294.743504 -97.104779 
L 294.743504 -95.5432 
L 294.743504 -93.981621 
L 294.743504 -92.420042 
L 294.743504 -90.858464 
L 294.743504 -89.296885 
L 294.743504 -87.735306 
L 294.743504 -86.173727 
L 294.743504 -84.612148 
L 294.743504 -83.050569 
L 294.743504 -81.488991 
L 294.743504 -79.927412 
z
" style="stroke: #343434; stroke-width: 2"/>
    </defs>
    <g clip-path="url(#p5eac11312e)">
     <use xlink:href="#m7384becc07" x="0" y="352.633275" style="fill: #4586ac; stroke: #343434; stroke-width: 2"/>
    </g>
   </g>
   <g id="PolyCollection_6">
    <defs>
     <path id="mc95b92aacb" d="M 295.07213 -47.574286 
L 294.743504 -47.574286 
L 294.743504 -48.962337 
L 294.743504 -50.350387 
L 294.743504 -51.738437 
L 294.743504 -53.126488 
L 294.743504 -54.514538 
L 294.743504 -55.902588 
L 294.743504 -57.290638 
L 294.743504 -58.678689 
L 294.743504 -60.066739 
L 294.743504 -61.454789 
L 294.743504 -62.84284 
L 294.743504 -64.23089 
L 294.743504 -65.61894 
L 294.743504 -67.006991 
L 294.743504 -68.395041 
L 294.743504 -69.783091 
L 294.743504 -71.171141 
L 294.743504 -72.559192 
L 294.743504 -73.947242 
L 294.743504 -75.335292 
L 294.743504 -76.723343 
L 294.743504 -78.111393 
L 294.743504 -79.499443 
L 294.743504 -80.887494 
L 294.743504 -82.275544 
L 294.743504 -83.663594 
L 294.743504 -85.051644 
L 294.743504 -86.439695 
L 294.743504 -87.827745 
L 294.743504 -89.215795 
L 294.743504 -90.603846 
L 294.743504 -91.991896 
L 294.743504 -93.379946 
L 294.743504 -94.767997 
L 294.743504 -96.156047 
L 294.743504 -97.544097 
L 294.743504 -98.932147 
L 294.743504 -100.320198 
L 294.743504 -101.708248 
L 294.743504 -103.096298 
L 294.743504 -104.484349 
L 294.743504 -105.872399 
L 294.743504 -107.260449 
L 294.743504 -108.6485 
L 294.743504 -110.03655 
L 294.743504 -111.4246 
L 294.743504 -112.81265 
L 294.743504 -114.200701 
L 294.743504 -115.588751 
L 294.743504 -116.976801 
L 294.743504 -118.364852 
L 294.743504 -119.752902 
L 294.743504 -121.140952 
L 294.743504 -122.529003 
L 294.743504 -123.917053 
L 294.743504 -125.305103 
L 294.743504 -126.693153 
L 294.743504 -128.081204 
L 294.743504 -129.469254 
L 294.743504 -130.857304 
L 294.743504 -132.245355 
L 294.743504 -133.633405 
L 294.743504 -135.021455 
L 294.743504 -136.409505 
L 294.743504 -137.797556 
L 294.743504 -139.185606 
L 294.743504 -140.573656 
L 294.743504 -141.961707 
L 294.743504 -143.349757 
L 294.743504 -144.737807 
L 294.743504 -146.125858 
L 294.743504 -147.513908 
L 294.743504 -148.901958 
L 294.743504 -150.290008 
L 294.743504 -151.678059 
L 294.743504 -153.066109 
L 294.743504 -154.454159 
L 294.743504 -155.84221 
L 294.743504 -157.23026 
L 294.743504 -158.61831 
L 294.743504 -160.006361 
L 294.743504 -161.394411 
L 294.743504 -162.782461 
L 294.743504 -164.170511 
L 294.743504 -165.558562 
L 294.743504 -166.946612 
L 294.743504 -168.334662 
L 294.743504 -169.722713 
L 294.743504 -171.110763 
L 294.743504 -172.498813 
L 294.743504 -173.886864 
L 294.743504 -175.274914 
L 294.743504 -176.662964 
L 294.743504 -178.051014 
L 294.743504 -179.439065 
L 294.743504 -180.827115 
L 294.743504 -182.215165 
L 294.743504 -183.603216 
L 294.743504 -184.991266 
L 295.074687 -184.991266 
L 295.074687 -184.991266 
L 295.184053 -183.603216 
L 295.318477 -182.215165 
L 295.480082 -180.827115 
L 295.670219 -179.439065 
L 295.88934 -178.051014 
L 296.136999 -176.662964 
L 296.412008 -175.274914 
L 296.712772 -173.886864 
L 297.037769 -172.498813 
L 297.386146 -171.110763 
L 297.758352 -169.722713 
L 298.156699 -168.334662 
L 298.585782 -166.946612 
L 299.05265 -165.558562 
L 299.566709 -164.170511 
L 300.139343 -162.782461 
L 300.783291 -161.394411 
L 301.511881 -160.006361 
L 302.338207 -158.61831 
L 303.274342 -157.23026 
L 304.330665 -155.84221 
L 305.515301 -154.454159 
L 306.833664 -153.066109 
L 308.288027 -151.678059 
L 309.877049 -150.290008 
L 311.5952 -148.901958 
L 313.432084 -147.513908 
L 315.37172 -146.125858 
L 317.391931 -144.737807 
L 319.464026 -143.349757 
L 321.552986 -141.961707 
L 323.618332 -140.573656 
L 325.615758 -139.185606 
L 327.499488 -137.797556 
L 329.225182 -136.409505 
L 330.753076 -135.021455 
L 332.050972 -133.633405 
L 333.096646 -132.245355 
L 333.879332 -130.857304 
L 334.40002 -129.469254 
L 334.670504 -128.081204 
L 334.711281 -126.693153 
L 334.548584 -125.305103 
L 334.210947 -123.917053 
L 333.72576 -122.529003 
L 333.11628 -121.140952 
L 332.399444 -119.752902 
L 331.58476 -118.364852 
L 330.67433 -116.976801 
L 329.663974 -115.588751 
L 328.545228 -114.200701 
L 327.307929 -112.81265 
L 325.943028 -111.4246 
L 324.445277 -110.03655 
L 322.815474 -108.6485 
L 321.062006 -107.260449 
L 319.201555 -105.872399 
L 317.258891 -104.484349 
L 315.265813 -103.096298 
L 313.259367 -101.708248 
L 311.279529 -100.320198 
L 309.3666 -98.932147 
L 307.558569 -97.544097 
L 305.88869 -96.156047 
L 304.383483 -94.767997 
L 303.061334 -93.379946 
L 301.931784 -91.991896 
L 300.995537 -90.603846 
L 300.245143 -89.215795 
L 299.666242 -87.827745 
L 299.239213 -86.439695 
L 298.941022 -85.051644 
L 298.747087 -83.663594 
L 298.632953 -82.275544 
L 298.575659 -80.887494 
L 298.554696 -79.499443 
L 298.552531 -78.111393 
L 298.554756 -76.723343 
L 298.549936 -75.335292 
L 298.529278 -73.947242 
L 298.486243 -72.559192 
L 298.416205 -71.171141 
L 298.316213 -69.783091 
L 298.184881 -68.395041 
L 298.022367 -67.006991 
L 297.830405 -65.61894 
L 297.612288 -64.23089 
L 297.372778 -62.84284 
L 297.117875 -61.454789 
L 296.854448 -60.066739 
L 296.589772 -58.678689 
L 296.330993 -57.290638 
L 296.084626 -55.902588 
L 295.856117 -54.514538 
L 295.649541 -53.126488 
L 295.467458 -51.738437 
L 295.310917 -50.350387 
L 295.179613 -48.962337 
L 295.07213 -47.574286 
z
" style="stroke: #343434; stroke-width: 2"/>
    </defs>
    <g clip-path="url(#p5eac11312e)">
     <use xlink:href="#mc95b92aacb" x="0" y="352.633275" style="fill: #921a33; stroke: #343434; stroke-width: 2"/>
    </g>
   </g>
   <g id="line2d_5">
    <path d="M 94.904621 275.587337 
L 94.904621 144.229228 
" clip-path="url(#p5eac11312e)" style="fill: none; stroke: #343434; stroke-width: 2; stroke-linecap: round"/>
   </g>
   <g id="line2d_6">
    <path d="M 94.904621 241.468347 
L 94.904621 197.113661 
" clip-path="url(#p5eac11312e)" style="fill: none; stroke: #343434; stroke-width: 6; stroke-linecap: round"/>
   </g>
   <g id="line2d_7">
    <path d="M 194.824063 200.52556 
L 194.824063 40.16631 
" clip-path="url(#p5eac11312e)" style="fill: none; stroke: #343434; stroke-width: 2; stroke-linecap: round"/>
   </g>
   <g id="line2d_8">
    <path d="M 194.824063 149.347076 
L 194.824063 94.756693 
" clip-path="url(#p5eac11312e)" style="fill: none; stroke: #343434; stroke-width: 6; stroke-linecap: round"/>
   </g>
   <g id="line2d_9">
    <path d="M 294.743504 272.175438 
L 294.743504 159.582773 
" clip-path="url(#p5eac11312e)" style="fill: none; stroke: #343434; stroke-width: 2; stroke-linecap: round"/>
   </g>
   <g id="line2d_10">
    <path d="M 294.743504 232.085625 
L 294.743504 200.52556 
" clip-path="url(#p5eac11312e)" style="fill: none; stroke: #343434; stroke-width: 6; stroke-linecap: round"/>
   </g>
   <g id="patch_5">
    <path d="M 44.9449 319.24275 
L 44.9449 7.2 
" style="fill: none; stroke: #bcbcbc; stroke-linejoin: miter; stroke-linecap: square"/>
   </g>
   <g id="patch_6">
    <path d="M 44.9449 319.24275 
L 344.703225 319.24275 
" style="fill: none; stroke: #bcbcbc; stroke-linejoin: miter; stroke-linecap: square"/>
   </g>
   <g id="PathCollection_1">
    <defs>
     <path id="mf8b4e28a8c" d="M 0 2 
C 0.530406 2 1.03916 1.789267 1.414214 1.414214 
C 1.789267 1.03916 2 0.530406 2 0 
C 2 -0.530406 1.789267 -1.03916 1.414214 -1.414214 
C 1.03916 -1.789267 0.530406 -2 0 -2 
C -0.530406 -2 -1.03916 -1.789267 -1.414214 -1.414214 
C -1.789267 -1.03916 -2 -0.530406 -2 0 
C -2 0.530406 -1.789267 1.03916 -1.414214 1.414214 
C -1.03916 1.789267 -0.530406 2 0 2 
z
" style="stroke: #343434; stroke-width: 0.5"/>
    </defs>
    <g clip-path="url(#p5eac11312e)">
     <use xlink:href="#mf8b4e28a8c" x="94.904621" y="217.585055" style="fill: #ffffff; stroke: #343434; stroke-width: 0.5"/>
    </g>
   </g>
   <g id="PathCollection_2">
    <g clip-path="url(#p5eac11312e)">
     <use xlink:href="#mf8b4e28a8c" x="194.824063" y="128.875682" style="fill: #ffffff; stroke: #343434; stroke-width: 0.5"/>
    </g>
   </g>
   <g id="PathCollection_3">
    <g clip-path="url(#p5eac11312e)">
     <use xlink:href="#mf8b4e28a8c" x="294.743504" y="217.585055" style="fill: #ffffff; stroke: #343434; stroke-width: 0.5"/>
    </g>
   </g>
  </g>
  <g id="legend_1">
   <g id="text_10">
    <!-- sex -->
    <g style="fill: #262626" transform="translate(369.000775 166.350512) scale(0.096 -0.096)">
     <defs>
      <path id="ArialMT-78" d="M 47 0 
L 1259 1725 
L 138 3319 
L 841 3319 
L 1350 2541 
Q 1494 2319 1581 2169 
Q 1719 2375 1834 2534 
L 2394 3319 
L 3066 3319 
L 1919 1756 
L 3153 0 
L 2463 0 
L 1781 1031 
L 1600 1309 
L 728 0 
L 47 0 
z
" transform="scale(0.015625)"/>
     </defs>
     <use xlink:href="#ArialMT-73"/>
     <use xlink:href="#ArialMT-65" x="50"/>
     <use xlink:href="#ArialMT-78" x="105.615234"/>
    </g>
   </g>
   <g id="patch_7">
    <path d="M 350.944525 178.957387 
L 368.544525 178.957387 
L 368.544525 172.797387 
L 350.944525 172.797387 
z
" style="fill: #4586ac; stroke: #343434; stroke-linejoin: miter"/>
   </g>
   <g id="text_11">
    <!-- male -->
    <g style="fill: #262626" transform="translate(375.584525 178.957387) scale(0.088 -0.088)">
     <use xlink:href="#ArialMT-6d"/>
     <use xlink:href="#ArialMT-61" x="83.300781"/>
     <use xlink:href="#ArialMT-6c" x="138.916016"/>
     <use xlink:href="#ArialMT-65" x="161.132812"/>
    </g>
   </g>
   <g id="patch_8">
    <path d="M 350.944525 191.405262 
L 368.544525 191.405262 
L 368.544525 185.245262 
L 350.944525 185.245262 
z
" style="fill: #921a33; stroke: #343434; stroke-linejoin: miter"/>
   </g>
   <g id="text_12">
    <!-- female -->
    <g style="fill: #262626" transform="translate(375.584525 191.405262) scale(0.088 -0.088)">
     <defs>
      <path id="ArialMT-66" d="M 556 0 
L 556 2881 
L 59 2881 
L 59 3319 
L 556 3319 
L 556 3672 
Q 556 4006 616 4169 
Q 697 4388 901 4523 
Q 1106 4659 1475 4659 
Q 1713 4659 2000 4603 
L 1916 4113 
Q 1741 4144 1584 4144 
Q 1328 4144 1222 4034 
Q 1116 3925 1116 3625 
L 1116 3319 
L 1763 3319 
L 1763 2881 
L 1116 2881 
L 1116 0 
L 556 0 
z
" transform="scale(0.015625)"/>
     </defs>
     <use xlink:href="#ArialMT-66"/>
     <use xlink:href="#ArialMT-65" x="27.783203"/>
     <use xlink:href="#ArialMT-6d" x="83.398438"/>
     <use xlink:href="#ArialMT-61" x="166.699219"/>
     <use xlink:href="#ArialMT-6c" x="222.314453"/>
     <use xlink:href="#ArialMT-65" x="244.53125"/>
    </g>
   </g>
  </g>
 </g>
 <defs>
  <clipPath id="p5eac11312e">
   <rect x="44.9449" y="7.2" width="299.758325" height="312.04275"/>
  </clipPath>
 </defs>
</svg>