<?xml version="1.0" encoding="utf-8" standalone="no"?>
<!DOCTYPE svg PUBLIC "-//W3C//DTD SVG 1.1//EN"
  "http://www.w3.org/Graphics/SVG/1.1/DTD/svg11.dtd">
<svg xmlns:xlink="http://www.w3.org/1999/xlink" width="594.441719pt" height="366.599844pt" viewBox="0 0 594.441719 366.599844" xmlns="http://www.w3.org/2000/svg" version="1.1">
 <metadata>
  <rdf:RDF xmlns:dc="http://purl.org/dc/elements/1.1/" xmlns:cc="http://creativecommons.org/ns#" xmlns:rdf="http://www.w3.org/1999/02/22-rdf-syntax-ns#">
   <cc:Work>
    <dc:type rdf:resource="http://purl.org/dc/dcmitype/StillImage"/>
    <dc:date>2023-06-17T10:53:46.106127</dc:date>
    <dc:format>image/svg+xml</dc:format>
    <dc:creator>
     <cc:Agent>
      <dc:title>Matplotlib v3.7.1, https://matplotlib.org/</dc:title>
     </cc:Agent>
    </dc:creator>
   </cc:Work>
  </rdf:RDF>
 </metadata>
 <defs>
  <style type="text/css">*{stroke-linejoin: round; stroke-linecap: butt}</style>
 </defs>
 <g id="figure_1">
  <g id="patch_1">
   <path d="M 0 366.599844 
L 594.441719 366.599844 
L 594.441719 0 
L 0 0 
z
" style="fill: #ffffff"/>
  </g>
  <g id="axes_1">
   <g id="patch_2">
    <path d="M 29.241719 339.84 
L 587.241719 339.84 
L 587.241719 7.2 
L 29.241719 7.2 
z
" style="fill: #eaeaf2"/>
   </g>
   <g id="matplotlib.axis_1">
    <g id="xtick_1">
     <g id="line2d_1">
      <path d="M 54.73809 339.84 
L 54.73809 7.2 
" clip-path="url(#p0254970bf8)" style="fill: none; stroke: #ffffff; stroke-linecap: round"/>
     </g>
     <g id="text_1">
      <!-- −2.0 -->
      <g style="fill: #262626" transform="translate(43.880746 357.213594) scale(0.11 -0.11)">
       <defs>
        <path id="ArialMT-2212" d="M 3381 1997 
L 356 1997 
L 356 2522 
L 3381 2522 
L 3381 1997 
z
" transform="scale(0.015625)"/>
        <path id="ArialMT-32" d="M 3222 541 
L 3222 0 
L 194 0 
Q 188 203 259 391 
Q 375 700 629 1000 
Q 884 1300 1366 1694 
Q 2113 2306 2375 2664 
Q 2638 3022 2638 3341 
Q 2638 3675 2398 3904 
Q 2159 4134 1775 4134 
Q 1369 4134 1125 3890 
Q 881 3647 878 3216 
L 300 3275 
Q 359 3922 746 4261 
Q 1134 4600 1788 4600 
Q 2447 4600 2831 4234 
Q 3216 3869 3216 3328 
Q 3216 3053 3103 2787 
Q 2991 2522 2730 2228 
Q 2469 1934 1863 1422 
Q 1356 997 1212 845 
Q 1069 694 975 541 
L 3222 541 
z
" transform="scale(0.015625)"/>
        <path id="ArialMT-2e" d="M 581 0 
L 581 641 
L 1222 641 
L 1222 0 
L 581 0 
z
" transform="scale(0.015625)"/>
        <path id="ArialMT-30" d="M 266 2259 
Q 266 3072 433 3567 
Q 600 4063 929 4331 
Q 1259 4600 1759 4600 
Q 2128 4600 2406 4451 
Q 2684 4303 2865 4023 
Q 3047 3744 3150 3342 
Q 3253 2941 3253 2259 
Q 3253 1453 3087 958 
Q 2922 463 2592 192 
Q 2263 -78 1759 -78 
Q 1097 -78 719 397 
Q 266 969 266 2259 
z
M 844 2259 
Q 844 1131 1108 757 
Q 1372 384 1759 384 
Q 2147 384 2411 759 
Q 2675 1134 2675 2259 
Q 2675 3391 2411 3762 
Q 2147 4134 1753 4134 
Q 1366 4134 1134 3806 
Q 844 3388 844 2259 
z
" transform="scale(0.015625)"/>
       </defs>
       <use xlink:href="#ArialMT-2212"/>
       <use xlink:href="#ArialMT-32" x="58.398438"/>
       <use xlink:href="#ArialMT-2e" x="114.013672"/>
       <use xlink:href="#ArialMT-30" x="141.796875"/>
      </g>
     </g>
    </g>
    <g id="xtick_2">
     <g id="line2d_2">
      <path d="M 127.401744 339.84 
L 127.401744 7.2 
" clip-path="url(#p0254970bf8)" style="fill: none; stroke: #ffffff; stroke-linecap: round"/>
     </g>
     <g id="text_2">
      <!-- −1.5 -->
      <g style="fill: #262626" transform="translate(116.5444 357.213594) scale(0.11 -0.11)">
       <defs>
        <path id="ArialMT-31" d="M 2384 0 
L 1822 0 
L 1822 3584 
Q 1619 3391 1289 3197 
Q 959 3003 697 2906 
L 697 3450 
Q 1169 3672 1522 3987 
Q 1875 4303 2022 4600 
L 2384 4600 
L 2384 0 
z
" transform="scale(0.015625)"/>
        <path id="ArialMT-35" d="M 266 1200 
L 856 1250 
Q 922 819 1161 601 
Q 1400 384 1738 384 
Q 2144 384 2425 690 
Q 2706 997 2706 1503 
Q 2706 1984 2436 2262 
Q 2166 2541 1728 2541 
Q 1456 2541 1237 2417 
Q 1019 2294 894 2097 
L 366 2166 
L 809 4519 
L 3088 4519 
L 3088 3981 
L 1259 3981 
L 1013 2750 
Q 1425 3038 1878 3038 
Q 2478 3038 2890 2622 
Q 3303 2206 3303 1553 
Q 3303 931 2941 478 
Q 2500 -78 1738 -78 
Q 1113 -78 717 272 
Q 322 622 266 1200 
z
" transform="scale(0.015625)"/>
       </defs>
       <use xlink:href="#ArialMT-2212"/>
       <use xlink:href="#ArialMT-31" x="58.398438"/>
       <use xlink:href="#ArialMT-2e" x="114.013672"/>
       <use xlink:href="#ArialMT-35" x="141.796875"/>
      </g>
     </g>
    </g>
    <g id="xtick_3">
     <g id="line2d_3">
      <path d="M 200.065397 339.84 
L 200.065397 7.2 
" clip-path="url(#p0254970bf8)" style="fill: none; stroke: #ffffff; stroke-linecap: round"/>
     </g>
     <g id="text_3">
      <!-- −1.0 -->
      <g style="fill: #262626" transform="translate(189.208054 357.213594) scale(0.11 -0.11)">
       <use xlink:href="#ArialMT-2212"/>
       <use xlink:href="#ArialMT-31" x="58.398438"/>
       <use xlink:href="#ArialMT-2e" x="114.013672"/>
       <use xlink:href="#ArialMT-30" x="141.796875"/>
      </g>
     </g>
    </g>
    <g id="xtick_4">
     <g id="line2d_4">
      <path d="M 272.729051 339.84 
L 272.729051 7.2 
" clip-path="url(#p0254970bf8)" style="fill: none; stroke: #ffffff; stroke-linecap: round"/>
     </g>
     <g id="text_4">
      <!-- −0.5 -->
      <g style="fill: #262626" transform="translate(261.871707 357.213594) scale(0.11 -0.11)">
       <use xlink:href="#ArialMT-2212"/>
       <use xlink:href="#ArialMT-30" x="58.398438"/>
       <use xlink:href="#ArialMT-2e" x="114.013672"/>
       <use xlink:href="#ArialMT-35" x="141.796875"/>
      </g>
     </g>
    </g>
    <g id="xtick_5">
     <g id="line2d_5">
      <path d="M 345.392705 339.84 
L 345.392705 7.2 
" clip-path="url(#p0254970bf8)" style="fill: none; stroke: #ffffff; stroke-linecap: round"/>
     </g>
     <g id="text_5">
      <!-- 0.0 -->
      <g style="fill: #262626" transform="translate(337.747705 357.213594) scale(0.11 -0.11)">
       <use xlink:href="#ArialMT-30"/>
       <use xlink:href="#ArialMT-2e" x="55.615234"/>
       <use xlink:href="#ArialMT-30" x="83.398438"/>
      </g>
     </g>
    </g>
    <g id="xtick_6">
     <g id="line2d_6">
      <path d="M 418.056358 339.84 
L 418.056358 7.2 
" clip-path="url(#p0254970bf8)" style="fill: none; stroke: #ffffff; stroke-linecap: round"/>
     </g>
     <g id="text_6">
      <!-- 0.5 -->
      <g style="fill: #262626" transform="translate(410.411358 357.213594) scale(0.11 -0.11)">
       <use xlink:href="#ArialMT-30"/>
       <use xlink:href="#ArialMT-2e" x="55.615234"/>
       <use xlink:href="#ArialMT-35" x="83.398438"/>
      </g>
     </g>
    </g>
    <g id="xtick_7">
     <g id="line2d_7">
      <path d="M 490.720012 339.84 
L 490.720012 7.2 
" clip-path="url(#p0254970bf8)" style="fill: none; stroke: #ffffff; stroke-linecap: round"/>
     </g>
     <g id="text_7">
      <!-- 1.0 -->
      <g style="fill: #262626" transform="translate(483.075012 357.213594) scale(0.11 -0.11)">
       <use xlink:href="#ArialMT-31"/>
       <use xlink:href="#ArialMT-2e" x="55.615234"/>
       <use xlink:href="#ArialMT-30" x="83.398438"/>
      </g>
     </g>
    </g>
    <g id="xtick_8">
     <g id="line2d_8">
      <path d="M 563.383665 339.84 
L 563.383665 7.2 
" clip-path="url(#p0254970bf8)" style="fill: none; stroke: #ffffff; stroke-linecap: round"/>
     </g>
     <g id="text_8">
      <!-- 1.5 -->
      <g style="fill: #262626" transform="translate(555.738665 357.213594) scale(0.11 -0.11)">
       <use xlink:href="#ArialMT-31"/>
       <use xlink:href="#ArialMT-2e" x="55.615234"/>
       <use xlink:href="#ArialMT-35" x="83.398438"/>
      </g>
     </g>
    </g>
   </g>
   <g id="matplotlib.axis_2">
    <g id="ytick_1">
     <g id="line2d_9">
      <path d="M 29.241719 336.911585 
L 587.241719 336.911585 
" clip-path="url(#p0254970bf8)" style="fill: none; stroke: #ffffff; stroke-linecap: round"/>
     </g>
     <g id="text_9">
      <!-- −3 -->
      <g style="fill: #262626" transform="translate(7.2 340.848382) scale(0.11 -0.11)">
       <defs>
        <path id="ArialMT-33" d="M 269 1209 
L 831 1284 
Q 928 806 1161 595 
Q 1394 384 1728 384 
Q 2125 384 2398 659 
Q 2672 934 2672 1341 
Q 2672 1728 2419 1979 
Q 2166 2231 1775 2231 
Q 1616 2231 1378 2169 
L 1441 2663 
Q 1497 2656 1531 2656 
Q 1891 2656 2178 2843 
Q 2466 3031 2466 3422 
Q 2466 3731 2256 3934 
Q 2047 4138 1716 4138 
Q 1388 4138 1169 3931 
Q 950 3725 888 3313 
L 325 3413 
Q 428 3978 793 4289 
Q 1159 4600 1703 4600 
Q 2078 4600 2393 4439 
Q 2709 4278 2876 4000 
Q 3044 3722 3044 3409 
Q 3044 3113 2884 2869 
Q 2725 2625 2413 2481 
Q 2819 2388 3044 2092 
Q 3269 1797 3269 1353 
Q 3269 753 2831 336 
Q 2394 -81 1725 -81 
Q 1122 -81 723 278 
Q 325 638 269 1209 
z
" transform="scale(0.015625)"/>
       </defs>
       <use xlink:href="#ArialMT-2212"/>
       <use xlink:href="#ArialMT-33" x="58.398438"/>
      </g>
     </g>
    </g>
    <g id="ytick_2">
     <g id="line2d_10">
      <path d="M 29.241719 270.038287 
L 587.241719 270.038287 
" clip-path="url(#p0254970bf8)" style="fill: none; stroke: #ffffff; stroke-linecap: round"/>
     </g>
     <g id="text_10">
      <!-- −2 -->
      <g style="fill: #262626" transform="translate(7.2 273.975084) scale(0.11 -0.11)">
       <use xlink:href="#ArialMT-2212"/>
       <use xlink:href="#ArialMT-32" x="58.398438"/>
      </g>
     </g>
    </g>
    <g id="ytick_3">
     <g id="line2d_11">
      <path d="M 29.241719 203.164989 
L 587.241719 203.164989 
" clip-path="url(#p0254970bf8)" style="fill: none; stroke: #ffffff; stroke-linecap: round"/>
     </g>
     <g id="text_11">
      <!-- −1 -->
      <g style="fill: #262626" transform="translate(7.2 207.101786) scale(0.11 -0.11)">
       <use xlink:href="#ArialMT-2212"/>
       <use xlink:href="#ArialMT-31" x="58.398438"/>
      </g>
     </g>
    </g>
    <g id="ytick_4">
     <g id="line2d_12">
      <path d="M 29.241719 136.291691 
L 587.241719 136.291691 
" clip-path="url(#p0254970bf8)" style="fill: none; stroke: #ffffff; stroke-linecap: round"/>
     </g>
     <g id="text_12">
      <!-- 0 -->
      <g style="fill: #262626" transform="translate(13.624688 140.228487) scale(0.11 -0.11)">
       <use xlink:href="#ArialMT-30"/>
      </g>
     </g>
    </g>
    <g id="ytick_5">
     <g id="line2d_13">
      <path d="M 29.241719 69.418392 
L 587.241719 69.418392 
" clip-path="url(#p0254970bf8)" style="fill: none; stroke: #ffffff; stroke-linecap: round"/>
     </g>
     <g id="text_13">
      <!-- 1 -->
      <g style="fill: #262626" transform="translate(13.624688 73.355189) scale(0.11 -0.11)">
       <use xlink:href="#ArialMT-31"/>
      </g>
     </g>
    </g>
   </g>
   <g id="line2d_14">
    <path d="M 54.605355 285.348425 
L 57.22451 279.606775 
L 76.600631 237.342309 
L 87.849064 212.843942 
L 89.911768 208.349299 
L 95.11929 197.004129 
L 105.428109 174.654105 
L 107.97242 169.202325 
L 111.058612 162.662341 
L 111.285098 162.186484 
L 116.846562 150.741642 
L 127.77713 130.534421 
L 136.314942 116.99116 
L 136.663057 116.385843 
L 140.63282 109.54791 
L 153.247599 94.175357 
L 157.932909 91.097712 
L 161.642284 88.75474 
L 185.065878 72.76146 
L 186.133283 72.20647 
L 195.735522 68.165601 
L 206.020187 64.199266 
L 215.395659 61.695647 
L 247.431189 54.04222 
L 251.795087 52.801922 
L 255.471431 51.350231 
L 256.210703 51.390924 
L 261.773578 50.513412 
L 261.793419 50.513327 
L 267.919122 51.97924 
L 273.230185 53.904251 
L 281.480195 57.017127 
L 288.532088 59.53903 
L 289.751109 59.936574 
L 289.782412 59.950178 
L 295.27863 62.136588 
L 298.225603 63.930109 
L 311.315569 71.962125 
L 312.224609 72.536926 
L 314.169733 73.766315 
L 319.044062 76.737289 
L 324.472561 79.981532 
L 332.062294 84.530058 
L 332.63391 84.783978 
L 335.852647 86.753348 
L 340.285988 88.542339 
L 344.299836 90.564507 
L 350.536061 92.641708 
L 353.289885 93.733714 
L 356.119217 94.990363 
L 365.665813 99.029422 
L 367.921072 100.097111 
L 370.233883 101.101388 
L 373.96773 102.968556 
L 375.527662 103.702123 
L 382.944182 108.161946 
L 384.769795 109.451963 
L 385.987098 110.188849 
L 387.727102 111.366159 
L 403.019498 122.590606 
L 415.373409 131.769172 
L 419.467634 134.755904 
L 421.654004 136.332864 
L 423.141298 137.334173 
L 424.250339 138.154277 
L 424.582239 138.39638 
L 428.814819 141.040677 
L 434.974505 145.265197 
L 443.658665 151.830403 
L 445.428156 153.314531 
L 451.650293 158.254713 
L 454.775532 160.865659 
L 465.819076 170.91527 
L 467.200839 172.343067 
L 469.937344 174.951406 
L 474.465888 179.616902 
L 481.645568 187.839042 
L 485.897002 191.585286 
L 486.674003 192.401735 
L 489.346984 194.941727 
L 492.575596 197.326809 
L 495.982973 199.886132 
L 497.420717 200.792071 
L 501.756289 204.24782 
L 510.455465 210.694909 
L 512.824531 212.331631 
L 513.78805 212.975422 
L 517.610872 215.207418 
L 523.994842 218.455879 
L 526.528937 219.927588 
L 531.008238 222.015438 
L 531.025961 222.023174 
L 538.009982 225.03086 
L 548.430781 229.1913 
L 549.044591 229.426027 
L 550.099943 229.827551 
L 552.204307 230.620862 
L 556.291642 232.136097 
L 560.373419 233.61863 
L 561.878082 234.159809 
" clip-path="url(#p0254970bf8)" style="fill: none; stroke: #ff6347; stroke-width: 1.5; stroke-linecap: round"/>
   </g>
   <g id="line2d_15">
    <defs>
     <path id="meb28d145b1" d="M 0 1.5 
C 0.397805 1.5 0.77937 1.341951 1.06066 1.06066 
C 1.341951 0.77937 1.5 0.397805 1.5 0 
C 1.5 -0.397805 1.341951 -0.77937 1.06066 -1.06066 
C 0.77937 -1.341951 0.397805 -1.5 0 -1.5 
C -0.397805 -1.5 -0.77937 -1.341951 -1.06066 -1.06066 
C -1.341951 -0.77937 -1.5 -0.397805 -1.5 0 
C -1.5 0.397805 -1.341951 0.77937 -1.06066 1.06066 
C -0.77937 1.341951 -0.397805 1.5 0 1.5 
z
" style="stroke: #1a1a1a"/>
    </defs>
    <g clip-path="url(#p0254970bf8)">
     <use xlink:href="#meb28d145b1" x="517.610872" y="227.450252" style="fill: #1a1a1a; stroke: #1a1a1a"/>
     <use xlink:href="#meb28d145b1" x="382.944182" y="131.774983" style="fill: #1a1a1a; stroke: #1a1a1a"/>
     <use xlink:href="#meb28d145b1" x="538.009982" y="218.672436" style="fill: #1a1a1a; stroke: #1a1a1a"/>
     <use xlink:href="#meb28d145b1" x="105.428109" y="181.085329" style="fill: #1a1a1a; stroke: #1a1a1a"/>
     <use xlink:href="#meb28d145b1" x="289.751109" y="54.171918" style="fill: #1a1a1a; stroke: #1a1a1a"/>
     <use xlink:href="#meb28d145b1" x="512.824531" y="189.164225" style="fill: #1a1a1a; stroke: #1a1a1a"/>
     <use xlink:href="#meb28d145b1" x="424.250339" y="133.17857" style="fill: #1a1a1a; stroke: #1a1a1a"/>
     <use xlink:href="#meb28d145b1" x="76.600631" y="222.901684" style="fill: #1a1a1a; stroke: #1a1a1a"/>
     <use xlink:href="#meb28d145b1" x="373.96773" y="113.273577" style="fill: #1a1a1a; stroke: #1a1a1a"/>
     <use xlink:href="#meb28d145b1" x="526.528937" y="240.508452" style="fill: #1a1a1a; stroke: #1a1a1a"/>
     <use xlink:href="#meb28d145b1" x="486.674003" y="189.387592" style="fill: #1a1a1a; stroke: #1a1a1a"/>
     <use xlink:href="#meb28d145b1" x="256.210703" y="56.04796" style="fill: #1a1a1a; stroke: #1a1a1a"/>
     <use xlink:href="#meb28d145b1" x="497.420717" y="167.769878" style="fill: #1a1a1a; stroke: #1a1a1a"/>
     <use xlink:href="#meb28d145b1" x="288.532088" y="87.228778" style="fill: #1a1a1a; stroke: #1a1a1a"/>
     <use xlink:href="#meb28d145b1" x="492.575596" y="202.448152" style="fill: #1a1a1a; stroke: #1a1a1a"/>
     <use xlink:href="#meb28d145b1" x="474.465888" y="201.417309" style="fill: #1a1a1a; stroke: #1a1a1a"/>
     <use xlink:href="#meb28d145b1" x="485.897002" y="202.047539" style="fill: #1a1a1a; stroke: #1a1a1a"/>
     <use xlink:href="#meb28d145b1" x="87.849064" y="210.388789" style="fill: #1a1a1a; stroke: #1a1a1a"/>
     <use xlink:href="#meb28d145b1" x="428.814819" y="146.673752" style="fill: #1a1a1a; stroke: #1a1a1a"/>
     <use xlink:href="#meb28d145b1" x="281.480195" y="43.316406" style="fill: #1a1a1a; stroke: #1a1a1a"/>
     <use xlink:href="#meb28d145b1" x="335.852647" y="69.765603" style="fill: #1a1a1a; stroke: #1a1a1a"/>
     <use xlink:href="#meb28d145b1" x="127.77713" y="126.295507" style="fill: #1a1a1a; stroke: #1a1a1a"/>
     <use xlink:href="#meb28d145b1" x="312.224609" y="62.776246" style="fill: #1a1a1a; stroke: #1a1a1a"/>
     <use xlink:href="#meb28d145b1" x="531.025961" y="235.962853" style="fill: #1a1a1a; stroke: #1a1a1a"/>
     <use xlink:href="#meb28d145b1" x="161.642284" y="75.676367" style="fill: #1a1a1a; stroke: #1a1a1a"/>
     <use xlink:href="#meb28d145b1" x="469.937344" y="202.337004" style="fill: #1a1a1a; stroke: #1a1a1a"/>
     <use xlink:href="#meb28d145b1" x="186.133283" y="85.769218" style="fill: #1a1a1a; stroke: #1a1a1a"/>
     <use xlink:href="#meb28d145b1" x="423.141298" y="121.589599" style="fill: #1a1a1a; stroke: #1a1a1a"/>
     <use xlink:href="#meb28d145b1" x="489.346984" y="205.748928" style="fill: #1a1a1a; stroke: #1a1a1a"/>
     <use xlink:href="#meb28d145b1" x="523.994842" y="231.121511" style="fill: #1a1a1a; stroke: #1a1a1a"/>
     <use xlink:href="#meb28d145b1" x="319.044062" y="25.193383" style="fill: #1a1a1a; stroke: #1a1a1a"/>
     <use xlink:href="#meb28d145b1" x="384.769795" y="95.780428" style="fill: #1a1a1a; stroke: #1a1a1a"/>
     <use xlink:href="#meb28d145b1" x="548.430781" y="224.802016" style="fill: #1a1a1a; stroke: #1a1a1a"/>
     <use xlink:href="#meb28d145b1" x="467.200839" y="159.602586" style="fill: #1a1a1a; stroke: #1a1a1a"/>
     <use xlink:href="#meb28d145b1" x="95.11929" y="197.889909" style="fill: #1a1a1a; stroke: #1a1a1a"/>
     <use xlink:href="#meb28d145b1" x="350.536061" y="103.479621" style="fill: #1a1a1a; stroke: #1a1a1a"/>
     <use xlink:href="#meb28d145b1" x="370.233883" y="102.001837" style="fill: #1a1a1a; stroke: #1a1a1a"/>
     <use xlink:href="#meb28d145b1" x="495.982973" y="206.172408" style="fill: #1a1a1a; stroke: #1a1a1a"/>
     <use xlink:href="#meb28d145b1" x="445.428156" y="172.168017" style="fill: #1a1a1a; stroke: #1a1a1a"/>
     <use xlink:href="#meb28d145b1" x="298.225603" y="68.788149" style="fill: #1a1a1a; stroke: #1a1a1a"/>
     <use xlink:href="#meb28d145b1" x="255.471431" y="59.811797" style="fill: #1a1a1a; stroke: #1a1a1a"/>
     <use xlink:href="#meb28d145b1" x="481.645568" y="152.684181" style="fill: #1a1a1a; stroke: #1a1a1a"/>
     <use xlink:href="#meb28d145b1" x="561.878082" y="232.834592" style="fill: #1a1a1a; stroke: #1a1a1a"/>
     <use xlink:href="#meb28d145b1" x="247.431189" y="41.875073" style="fill: #1a1a1a; stroke: #1a1a1a"/>
     <use xlink:href="#meb28d145b1" x="215.395659" y="70.869998" style="fill: #1a1a1a; stroke: #1a1a1a"/>
     <use xlink:href="#meb28d145b1" x="434.974505" y="159.393303" style="fill: #1a1a1a; stroke: #1a1a1a"/>
     <use xlink:href="#meb28d145b1" x="443.658665" y="133.960025" style="fill: #1a1a1a; stroke: #1a1a1a"/>
     <use xlink:href="#meb28d145b1" x="261.793419" y="55.953698" style="fill: #1a1a1a; stroke: #1a1a1a"/>
     <use xlink:href="#meb28d145b1" x="332.062294" y="94.940729" style="fill: #1a1a1a; stroke: #1a1a1a"/>
     <use xlink:href="#meb28d145b1" x="289.782412" y="49.297843" style="fill: #1a1a1a; stroke: #1a1a1a"/>
     <use xlink:href="#meb28d145b1" x="387.727102" y="122.21569" style="fill: #1a1a1a; stroke: #1a1a1a"/>
     <use xlink:href="#meb28d145b1" x="344.299836" y="102.575473" style="fill: #1a1a1a; stroke: #1a1a1a"/>
     <use xlink:href="#meb28d145b1" x="356.119217" y="97.379602" style="fill: #1a1a1a; stroke: #1a1a1a"/>
     <use xlink:href="#meb28d145b1" x="454.775532" y="135.767322" style="fill: #1a1a1a; stroke: #1a1a1a"/>
     <use xlink:href="#meb28d145b1" x="531.008238" y="199.887434" style="fill: #1a1a1a; stroke: #1a1a1a"/>
     <use xlink:href="#meb28d145b1" x="89.911768" y="196.617787" style="fill: #1a1a1a; stroke: #1a1a1a"/>
     <use xlink:href="#meb28d145b1" x="136.663057" y="121.621439" style="fill: #1a1a1a; stroke: #1a1a1a"/>
     <use xlink:href="#meb28d145b1" x="332.63391" y="91.235781" style="fill: #1a1a1a; stroke: #1a1a1a"/>
     <use xlink:href="#meb28d145b1" x="353.289885" y="88.204971" style="fill: #1a1a1a; stroke: #1a1a1a"/>
     <use xlink:href="#meb28d145b1" x="57.22451" y="277.746487" style="fill: #1a1a1a; stroke: #1a1a1a"/>
     <use xlink:href="#meb28d145b1" x="251.795087" y="31.413707" style="fill: #1a1a1a; stroke: #1a1a1a"/>
     <use xlink:href="#meb28d145b1" x="415.373409" y="124.316324" style="fill: #1a1a1a; stroke: #1a1a1a"/>
     <use xlink:href="#meb28d145b1" x="136.314942" y="91.589305" style="fill: #1a1a1a; stroke: #1a1a1a"/>
     <use xlink:href="#meb28d145b1" x="140.63282" y="93.60573" style="fill: #1a1a1a; stroke: #1a1a1a"/>
     <use xlink:href="#meb28d145b1" x="375.527662" y="103.410544" style="fill: #1a1a1a; stroke: #1a1a1a"/>
     <use xlink:href="#meb28d145b1" x="267.919122" y="58.744916" style="fill: #1a1a1a; stroke: #1a1a1a"/>
     <use xlink:href="#meb28d145b1" x="421.654004" y="141.558817" style="fill: #1a1a1a; stroke: #1a1a1a"/>
     <use xlink:href="#meb28d145b1" x="340.285988" y="80.60037" style="fill: #1a1a1a; stroke: #1a1a1a"/>
     <use xlink:href="#meb28d145b1" x="111.285098" y="159.301751" style="fill: #1a1a1a; stroke: #1a1a1a"/>
     <use xlink:href="#meb28d145b1" x="54.605355" y="324.72" style="fill: #1a1a1a; stroke: #1a1a1a"/>
     <use xlink:href="#meb28d145b1" x="385.987098" y="83.263081" style="fill: #1a1a1a; stroke: #1a1a1a"/>
     <use xlink:href="#meb28d145b1" x="311.315569" y="71.383225" style="fill: #1a1a1a; stroke: #1a1a1a"/>
     <use xlink:href="#meb28d145b1" x="549.044591" y="238.235273" style="fill: #1a1a1a; stroke: #1a1a1a"/>
     <use xlink:href="#meb28d145b1" x="185.065878" y="61.913628" style="fill: #1a1a1a; stroke: #1a1a1a"/>
     <use xlink:href="#meb28d145b1" x="107.97242" y="178.074021" style="fill: #1a1a1a; stroke: #1a1a1a"/>
     <use xlink:href="#meb28d145b1" x="206.020187" y="74.001382" style="fill: #1a1a1a; stroke: #1a1a1a"/>
     <use xlink:href="#meb28d145b1" x="273.230185" y="60.471828" style="fill: #1a1a1a; stroke: #1a1a1a"/>
     <use xlink:href="#meb28d145b1" x="513.78805" y="178.327335" style="fill: #1a1a1a; stroke: #1a1a1a"/>
     <use xlink:href="#meb28d145b1" x="424.582239" y="152.908414" style="fill: #1a1a1a; stroke: #1a1a1a"/>
     <use xlink:href="#meb28d145b1" x="314.169733" y="70.898034" style="fill: #1a1a1a; stroke: #1a1a1a"/>
     <use xlink:href="#meb28d145b1" x="465.819076" y="163.65027" style="fill: #1a1a1a; stroke: #1a1a1a"/>
     <use xlink:href="#meb28d145b1" x="153.247599" y="77.684183" style="fill: #1a1a1a; stroke: #1a1a1a"/>
     <use xlink:href="#meb28d145b1" x="552.204307" y="237.065041" style="fill: #1a1a1a; stroke: #1a1a1a"/>
     <use xlink:href="#meb28d145b1" x="365.665813" y="56.289934" style="fill: #1a1a1a; stroke: #1a1a1a"/>
     <use xlink:href="#meb28d145b1" x="451.650293" y="153.063807" style="fill: #1a1a1a; stroke: #1a1a1a"/>
     <use xlink:href="#meb28d145b1" x="367.921072" y="85.417248" style="fill: #1a1a1a; stroke: #1a1a1a"/>
     <use xlink:href="#meb28d145b1" x="111.058612" y="183.193246" style="fill: #1a1a1a; stroke: #1a1a1a"/>
     <use xlink:href="#meb28d145b1" x="501.756289" y="217.369805" style="fill: #1a1a1a; stroke: #1a1a1a"/>
     <use xlink:href="#meb28d145b1" x="324.472561" y="115.013114" style="fill: #1a1a1a; stroke: #1a1a1a"/>
     <use xlink:href="#meb28d145b1" x="157.932909" y="71.473051" style="fill: #1a1a1a; stroke: #1a1a1a"/>
     <use xlink:href="#meb28d145b1" x="403.019498" y="127.622879" style="fill: #1a1a1a; stroke: #1a1a1a"/>
     <use xlink:href="#meb28d145b1" x="419.467634" y="130.933049" style="fill: #1a1a1a; stroke: #1a1a1a"/>
     <use xlink:href="#meb28d145b1" x="550.099943" y="226.550946" style="fill: #1a1a1a; stroke: #1a1a1a"/>
     <use xlink:href="#meb28d145b1" x="295.27863" y="58.005755" style="fill: #1a1a1a; stroke: #1a1a1a"/>
     <use xlink:href="#meb28d145b1" x="556.291642" y="219.389972" style="fill: #1a1a1a; stroke: #1a1a1a"/>
     <use xlink:href="#meb28d145b1" x="116.846562" y="122.109779" style="fill: #1a1a1a; stroke: #1a1a1a"/>
     <use xlink:href="#meb28d145b1" x="510.455465" y="217.394856" style="fill: #1a1a1a; stroke: #1a1a1a"/>
     <use xlink:href="#meb28d145b1" x="560.373419" y="239.671349" style="fill: #1a1a1a; stroke: #1a1a1a"/>
     <use xlink:href="#meb28d145b1" x="261.773578" y="22.32" style="fill: #1a1a1a; stroke: #1a1a1a"/>
     <use xlink:href="#meb28d145b1" x="195.735522" y="49.51109" style="fill: #1a1a1a; stroke: #1a1a1a"/>
    </g>
   </g>
   <g id="patch_3">
    <path d="M 29.241719 339.84 
L 29.241719 7.2 
" style="fill: none; stroke: #ffffff; stroke-width: 1.25; stroke-linejoin: miter; stroke-linecap: square"/>
   </g>
   <g id="patch_4">
    <path d="M 587.241719 339.84 
L 587.241719 7.2 
" style="fill: none; stroke: #ffffff; stroke-width: 1.25; stroke-linejoin: miter; stroke-linecap: square"/>
   </g>
   <g id="patch_5">
    <path d="M 29.241719 339.84 
L 587.241719 339.84 
" style="fill: none; stroke: #ffffff; stroke-width: 1.25; stroke-linejoin: miter; stroke-linecap: square"/>
   </g>
   <g id="patch_6">
    <path d="M 29.241719 7.2 
L 587.241719 7.2 
" style="fill: none; stroke: #ffffff; stroke-width: 1.25; stroke-linejoin: miter; stroke-linecap: square"/>
   </g>
  </g>
 </g>
 <defs>
  <clipPath id="p0254970bf8">
   <rect x="29.241719" y="7.2" width="558" height="332.64"/>
  </clipPath>
 </defs>
</svg>