<?xml version="1.0" encoding="utf-8" standalone="no"?>
<!DOCTYPE svg PUBLIC "-//W3C//DTD SVG 1.1//EN"
  "http://www.w3.org/Graphics/SVG/1.1/DTD/svg11.dtd">
<svg xmlns:xlink="http://www.w3.org/1999/xlink" width="603.307031pt" height="366.599844pt" viewBox="0 0 603.307031 366.599844" xmlns="http://www.w3.org/2000/svg" version="1.1">
 <metadata>
  <rdf:RDF xmlns:dc="http://purl.org/dc/elements/1.1/" xmlns:cc="http://creativecommons.org/ns#" xmlns:rdf="http://www.w3.org/1999/02/22-rdf-syntax-ns#">
   <cc:Work>
    <dc:type rdf:resource="http://purl.org/dc/dcmitype/StillImage"/>
    <dc:date>2023-05-08T07:07:12.443332</dc:date>
    <dc:format>image/svg+xml</dc:format>
    <dc:creator>
     <cc:Agent>
      <dc:title>Matplotlib v3.7.1, https://matplotlib.org/</dc:title>
     </cc:Agent>
    </dc:creator>
   </cc:Work>
  </rdf:RDF>
 </metadata>
 <defs>
  <style type="text/css">*{stroke-linejoin: round; stroke-linecap: butt}</style>
 </defs>
 <g id="figure_1">
  <g id="patch_1">
   <path d="M 0 366.599844 
L 603.307031 366.599844 
L 603.307031 0 
L 0 0 
z
" style="fill: #ffffff"/>
  </g>
  <g id="axes_1">
   <g id="patch_2">
    <path d="M 38.107031 339.84 
L 596.107031 339.84 
L 596.107031 7.2 
L 38.107031 7.2 
z
" style="fill: #eaeaf2"/>
   </g>
   <g id="matplotlib.axis_1">
    <g id="xtick_1">
     <g id="line2d_1">
      <path d="M 63.470668 339.84 
L 63.470668 7.2 
" clip-path="url(#p1523aaa235)" style="fill: none; stroke: #ffffff; stroke-linecap: round"/>
     </g>
     <g id="text_1">
      <!-- 0 -->
      <g style="fill: #262626" transform="translate(60.412152 357.213594) scale(0.11 -0.11)">
       <defs>
        <path id="ArialMT-30" d="M 266 2259 
Q 266 3072 433 3567 
Q 600 4063 929 4331 
Q 1259 4600 1759 4600 
Q 2128 4600 2406 4451 
Q 2684 4303 2865 4023 
Q 3047 3744 3150 3342 
Q 3253 2941 3253 2259 
Q 3253 1453 3087 958 
Q 2922 463 2592 192 
Q 2263 -78 1759 -78 
Q 1097 -78 719 397 
Q 266 969 266 2259 
z
M 844 2259 
Q 844 1131 1108 757 
Q 1372 384 1759 384 
Q 2147 384 2411 759 
Q 2675 1134 2675 2259 
Q 2675 3391 2411 3762 
Q 2147 4134 1753 4134 
Q 1366 4134 1134 3806 
Q 844 3388 844 2259 
z
" transform="scale(0.015625)"/>
       </defs>
       <use xlink:href="#ArialMT-30"/>
      </g>
     </g>
    </g>
    <g id="xtick_2">
     <g id="line2d_2">
      <path d="M 148.016122 339.84 
L 148.016122 7.2 
" clip-path="url(#p1523aaa235)" style="fill: none; stroke: #ffffff; stroke-linecap: round"/>
     </g>
     <g id="text_2">
      <!-- 5 -->
      <g style="fill: #262626" transform="translate(144.957607 357.213594) scale(0.11 -0.11)">
       <defs>
        <path id="ArialMT-35" d="M 266 1200 
L 856 1250 
Q 922 819 1161 601 
Q 1400 384 1738 384 
Q 2144 384 2425 690 
Q 2706 997 2706 1503 
Q 2706 1984 2436 2262 
Q 2166 2541 1728 2541 
Q 1456 2541 1237 2417 
Q 1019 2294 894 2097 
L 366 2166 
L 809 4519 
L 3088 4519 
L 3088 3981 
L 1259 3981 
L 1013 2750 
Q 1425 3038 1878 3038 
Q 2478 3038 2890 2622 
Q 3303 2206 3303 1553 
Q 3303 931 2941 478 
Q 2500 -78 1738 -78 
Q 1113 -78 717 272 
Q 322 622 266 1200 
z
" transform="scale(0.015625)"/>
       </defs>
       <use xlink:href="#ArialMT-35"/>
      </g>
     </g>
    </g>
    <g id="xtick_3">
     <g id="line2d_3">
      <path d="M 232.561577 339.84 
L 232.561577 7.2 
" clip-path="url(#p1523aaa235)" style="fill: none; stroke: #ffffff; stroke-linecap: round"/>
     </g>
     <g id="text_3">
      <!-- 10 -->
      <g style="fill: #262626" transform="translate(226.444545 357.213594) scale(0.11 -0.11)">
       <defs>
        <path id="ArialMT-31" d="M 2384 0 
L 1822 0 
L 1822 3584 
Q 1619 3391 1289 3197 
Q 959 3003 697 2906 
L 697 3450 
Q 1169 3672 1522 3987 
Q 1875 4303 2022 4600 
L 2384 4600 
L 2384 0 
z
" transform="scale(0.015625)"/>
       </defs>
       <use xlink:href="#ArialMT-31"/>
       <use xlink:href="#ArialMT-30" x="55.615234"/>
      </g>
     </g>
    </g>
    <g id="xtick_4">
     <g id="line2d_4">
      <path d="M 317.107031 339.84 
L 317.107031 7.2 
" clip-path="url(#p1523aaa235)" style="fill: none; stroke: #ffffff; stroke-linecap: round"/>
     </g>
     <g id="text_4">
      <!-- 15 -->
      <g style="fill: #262626" transform="translate(310.99 357.213594) scale(0.11 -0.11)">
       <use xlink:href="#ArialMT-31"/>
       <use xlink:href="#ArialMT-35" x="55.615234"/>
      </g>
     </g>
    </g>
    <g id="xtick_5">
     <g id="line2d_5">
      <path d="M 401.652486 339.84 
L 401.652486 7.2 
" clip-path="url(#p1523aaa235)" style="fill: none; stroke: #ffffff; stroke-linecap: round"/>
     </g>
     <g id="text_5">
      <!-- 20 -->
      <g style="fill: #262626" transform="translate(395.535455 357.213594) scale(0.11 -0.11)">
       <defs>
        <path id="ArialMT-32" d="M 3222 541 
L 3222 0 
L 194 0 
Q 188 203 259 391 
Q 375 700 629 1000 
Q 884 1300 1366 1694 
Q 2113 2306 2375 2664 
Q 2638 3022 2638 3341 
Q 2638 3675 2398 3904 
Q 2159 4134 1775 4134 
Q 1369 4134 1125 3890 
Q 881 3647 878 3216 
L 300 3275 
Q 359 3922 746 4261 
Q 1134 4600 1788 4600 
Q 2447 4600 2831 4234 
Q 3216 3869 3216 3328 
Q 3216 3053 3103 2787 
Q 2991 2522 2730 2228 
Q 2469 1934 1863 1422 
Q 1356 997 1212 845 
Q 1069 694 975 541 
L 3222 541 
z
" transform="scale(0.015625)"/>
       </defs>
       <use xlink:href="#ArialMT-32"/>
       <use xlink:href="#ArialMT-30" x="55.615234"/>
      </g>
     </g>
    </g>
    <g id="xtick_6">
     <g id="line2d_6">
      <path d="M 486.19794 339.84 
L 486.19794 7.2 
" clip-path="url(#p1523aaa235)" style="fill: none; stroke: #ffffff; stroke-linecap: round"/>
     </g>
     <g id="text_6">
      <!-- 25 -->
      <g style="fill: #262626" transform="translate(480.080909 357.213594) scale(0.11 -0.11)">
       <use xlink:href="#ArialMT-32"/>
       <use xlink:href="#ArialMT-35" x="55.615234"/>
      </g>
     </g>
    </g>
    <g id="xtick_7">
     <g id="line2d_7">
      <path d="M 570.743395 339.84 
L 570.743395 7.2 
" clip-path="url(#p1523aaa235)" style="fill: none; stroke: #ffffff; stroke-linecap: round"/>
     </g>
     <g id="text_7">
      <!-- 30 -->
      <g style="fill: #262626" transform="translate(564.626364 357.213594) scale(0.11 -0.11)">
       <defs>
        <path id="ArialMT-33" d="M 269 1209 
L 831 1284 
Q 928 806 1161 595 
Q 1394 384 1728 384 
Q 2125 384 2398 659 
Q 2672 934 2672 1341 
Q 2672 1728 2419 1979 
Q 2166 2231 1775 2231 
Q 1616 2231 1378 2169 
L 1441 2663 
Q 1497 2656 1531 2656 
Q 1891 2656 2178 2843 
Q 2466 3031 2466 3422 
Q 2466 3731 2256 3934 
Q 2047 4138 1716 4138 
Q 1388 4138 1169 3931 
Q 950 3725 888 3313 
L 325 3413 
Q 428 3978 793 4289 
Q 1159 4600 1703 4600 
Q 2078 4600 2393 4439 
Q 2709 4278 2876 4000 
Q 3044 3722 3044 3409 
Q 3044 3113 2884 2869 
Q 2725 2625 2413 2481 
Q 2819 2388 3044 2092 
Q 3269 1797 3269 1353 
Q 3269 753 2831 336 
Q 2394 -81 1725 -81 
Q 1122 -81 723 278 
Q 325 638 269 1209 
z
" transform="scale(0.015625)"/>
       </defs>
       <use xlink:href="#ArialMT-33"/>
       <use xlink:href="#ArialMT-30" x="55.615234"/>
      </g>
     </g>
    </g>
   </g>
   <g id="matplotlib.axis_2">
    <g id="ytick_1">
     <g id="line2d_8">
      <path d="M 38.107031 339.84 
L 596.107031 339.84 
" clip-path="url(#p1523aaa235)" style="fill: none; stroke: #ffffff; stroke-linecap: round"/>
     </g>
     <g id="text_8">
      <!-- 0.00 -->
      <g style="fill: #262626" transform="translate(7.2 343.776797) scale(0.11 -0.11)">
       <defs>
        <path id="ArialMT-2e" d="M 581 0 
L 581 641 
L 1222 641 
L 1222 0 
L 581 0 
z
" transform="scale(0.015625)"/>
       </defs>
       <use xlink:href="#ArialMT-30"/>
       <use xlink:href="#ArialMT-2e" x="55.615234"/>
       <use xlink:href="#ArialMT-30" x="83.398438"/>
       <use xlink:href="#ArialMT-30" x="139.013672"/>
      </g>
     </g>
    </g>
    <g id="ytick_2">
     <g id="line2d_9">
      <path d="M 38.107031 283.401721 
L 596.107031 283.401721 
" clip-path="url(#p1523aaa235)" style="fill: none; stroke: #ffffff; stroke-linecap: round"/>
     </g>
     <g id="text_9">
      <!-- 0.02 -->
      <g style="fill: #262626" transform="translate(7.2 287.338518) scale(0.11 -0.11)">
       <use xlink:href="#ArialMT-30"/>
       <use xlink:href="#ArialMT-2e" x="55.615234"/>
       <use xlink:href="#ArialMT-30" x="83.398438"/>
       <use xlink:href="#ArialMT-32" x="139.013672"/>
      </g>
     </g>
    </g>
    <g id="ytick_3">
     <g id="line2d_10">
      <path d="M 38.107031 226.963442 
L 596.107031 226.963442 
" clip-path="url(#p1523aaa235)" style="fill: none; stroke: #ffffff; stroke-linecap: round"/>
     </g>
     <g id="text_10">
      <!-- 0.04 -->
      <g style="fill: #262626" transform="translate(7.2 230.900238) scale(0.11 -0.11)">
       <defs>
        <path id="ArialMT-34" d="M 2069 0 
L 2069 1097 
L 81 1097 
L 81 1613 
L 2172 4581 
L 2631 4581 
L 2631 1613 
L 3250 1613 
L 3250 1097 
L 2631 1097 
L 2631 0 
L 2069 0 
z
M 2069 1613 
L 2069 3678 
L 634 1613 
L 2069 1613 
z
" transform="scale(0.015625)"/>
       </defs>
       <use xlink:href="#ArialMT-30"/>
       <use xlink:href="#ArialMT-2e" x="55.615234"/>
       <use xlink:href="#ArialMT-30" x="83.398438"/>
       <use xlink:href="#ArialMT-34" x="139.013672"/>
      </g>
     </g>
    </g>
    <g id="ytick_4">
     <g id="line2d_11">
      <path d="M 38.107031 170.525162 
L 596.107031 170.525162 
" clip-path="url(#p1523aaa235)" style="fill: none; stroke: #ffffff; stroke-linecap: round"/>
     </g>
     <g id="text_11">
      <!-- 0.06 -->
      <g style="fill: #262626" transform="translate(7.2 174.461959) scale(0.11 -0.11)">
       <defs>
        <path id="ArialMT-36" d="M 3184 3459 
L 2625 3416 
Q 2550 3747 2413 3897 
Q 2184 4138 1850 4138 
Q 1581 4138 1378 3988 
Q 1113 3794 959 3422 
Q 806 3050 800 2363 
Q 1003 2672 1297 2822 
Q 1591 2972 1913 2972 
Q 2475 2972 2870 2558 
Q 3266 2144 3266 1488 
Q 3266 1056 3080 686 
Q 2894 316 2569 119 
Q 2244 -78 1831 -78 
Q 1128 -78 684 439 
Q 241 956 241 2144 
Q 241 3472 731 4075 
Q 1159 4600 1884 4600 
Q 2425 4600 2770 4297 
Q 3116 3994 3184 3459 
z
M 888 1484 
Q 888 1194 1011 928 
Q 1134 663 1356 523 
Q 1578 384 1822 384 
Q 2178 384 2434 671 
Q 2691 959 2691 1453 
Q 2691 1928 2437 2201 
Q 2184 2475 1800 2475 
Q 1419 2475 1153 2201 
Q 888 1928 888 1484 
z
" transform="scale(0.015625)"/>
       </defs>
       <use xlink:href="#ArialMT-30"/>
       <use xlink:href="#ArialMT-2e" x="55.615234"/>
       <use xlink:href="#ArialMT-30" x="83.398438"/>
       <use xlink:href="#ArialMT-36" x="139.013672"/>
      </g>
     </g>
    </g>
    <g id="ytick_5">
     <g id="line2d_12">
      <path d="M 38.107031 114.086883 
L 596.107031 114.086883 
" clip-path="url(#p1523aaa235)" style="fill: none; stroke: #ffffff; stroke-linecap: round"/>
     </g>
     <g id="text_12">
      <!-- 0.08 -->
      <g style="fill: #262626" transform="translate(7.2 118.02368) scale(0.11 -0.11)">
       <defs>
        <path id="ArialMT-38" d="M 1131 2484 
Q 781 2613 612 2850 
Q 444 3088 444 3419 
Q 444 3919 803 4259 
Q 1163 4600 1759 4600 
Q 2359 4600 2725 4251 
Q 3091 3903 3091 3403 
Q 3091 3084 2923 2848 
Q 2756 2613 2416 2484 
Q 2838 2347 3058 2040 
Q 3278 1734 3278 1309 
Q 3278 722 2862 322 
Q 2447 -78 1769 -78 
Q 1091 -78 675 323 
Q 259 725 259 1325 
Q 259 1772 486 2073 
Q 713 2375 1131 2484 
z
M 1019 3438 
Q 1019 3113 1228 2906 
Q 1438 2700 1772 2700 
Q 2097 2700 2305 2904 
Q 2513 3109 2513 3406 
Q 2513 3716 2298 3927 
Q 2084 4138 1766 4138 
Q 1444 4138 1231 3931 
Q 1019 3725 1019 3438 
z
M 838 1322 
Q 838 1081 952 856 
Q 1066 631 1291 507 
Q 1516 384 1775 384 
Q 2178 384 2440 643 
Q 2703 903 2703 1303 
Q 2703 1709 2433 1975 
Q 2163 2241 1756 2241 
Q 1359 2241 1098 1978 
Q 838 1716 838 1322 
z
" transform="scale(0.015625)"/>
       </defs>
       <use xlink:href="#ArialMT-30"/>
       <use xlink:href="#ArialMT-2e" x="55.615234"/>
       <use xlink:href="#ArialMT-30" x="83.398438"/>
       <use xlink:href="#ArialMT-38" x="139.013672"/>
      </g>
     </g>
    </g>
    <g id="ytick_6">
     <g id="line2d_13">
      <path d="M 38.107031 57.648604 
L 596.107031 57.648604 
" clip-path="url(#p1523aaa235)" style="fill: none; stroke: #ffffff; stroke-linecap: round"/>
     </g>
     <g id="text_13">
      <!-- 0.10 -->
      <g style="fill: #262626" transform="translate(7.2 61.585401) scale(0.11 -0.11)">
       <use xlink:href="#ArialMT-30"/>
       <use xlink:href="#ArialMT-2e" x="55.615234"/>
       <use xlink:href="#ArialMT-31" x="83.398438"/>
       <use xlink:href="#ArialMT-30" x="139.013672"/>
      </g>
     </g>
    </g>
   </g>
   <g id="patch_3">
    <path d="M 63.470668 339.84 
L 80.379759 339.84 
L 80.379759 339.84 
L 63.470668 339.84 
z
" clip-path="url(#p1523aaa235)" style="fill: #0173b2; stroke: #ffffff; stroke-linejoin: miter"/>
   </g>
   <g id="patch_4">
    <path d="M 80.379759 339.84 
L 97.288849 339.84 
L 97.288849 339.84 
L 80.379759 339.84 
z
" clip-path="url(#p1523aaa235)" style="fill: #0173b2; stroke: #ffffff; stroke-linejoin: miter"/>
   </g>
   <g id="patch_5">
    <path d="M 97.288849 339.84 
L 114.19794 339.84 
L 114.19794 339.84 
L 97.288849 339.84 
z
" clip-path="url(#p1523aaa235)" style="fill: #0173b2; stroke: #ffffff; stroke-linejoin: miter"/>
   </g>
   <g id="patch_6">
    <path d="M 114.19794 339.84 
L 131.107031 339.84 
L 131.107031 339.84 
L 114.19794 339.84 
z
" clip-path="url(#p1523aaa235)" style="fill: #0173b2; stroke: #ffffff; stroke-linejoin: miter"/>
   </g>
   <g id="patch_7">
    <path d="M 131.107031 339.84 
L 148.016122 339.84 
L 148.016122 339.670685 
L 131.107031 339.670685 
z
" clip-path="url(#p1523aaa235)" style="fill: #0173b2; stroke: #ffffff; stroke-linejoin: miter"/>
   </g>
   <g id="patch_8">
    <path d="M 148.016122 339.84 
L 164.925213 339.84 
L 164.925213 339.698904 
L 148.016122 339.698904 
z
" clip-path="url(#p1523aaa235)" style="fill: #0173b2; stroke: #ffffff; stroke-linejoin: miter"/>
   </g>
   <g id="patch_9">
    <path d="M 164.925213 339.84 
L 181.834304 339.84 
L 181.834304 338.5137 
L 164.925213 338.5137 
z
" clip-path="url(#p1523aaa235)" style="fill: #0173b2; stroke: #ffffff; stroke-linejoin: miter"/>
   </g>
   <g id="patch_10">
    <path d="M 181.834304 339.84 
L 198.743395 339.84 
L 198.743395 336.961648 
L 181.834304 336.961648 
z
" clip-path="url(#p1523aaa235)" style="fill: #0173b2; stroke: #ffffff; stroke-linejoin: miter"/>
   </g>
   <g id="patch_11">
    <path d="M 198.743395 339.84 
L 215.652486 339.84 
L 215.652486 333.688228 
L 198.743395 333.688228 
z
" clip-path="url(#p1523aaa235)" style="fill: #0173b2; stroke: #ffffff; stroke-linejoin: miter"/>
   </g>
   <g id="patch_12">
    <path d="M 215.652486 339.84 
L 232.561577 339.84 
L 232.561577 325.222486 
L 215.652486 325.222486 
z
" clip-path="url(#p1523aaa235)" style="fill: #0173b2; stroke: #ffffff; stroke-linejoin: miter"/>
   </g>
   <g id="patch_13">
    <path d="M 232.561577 339.84 
L 249.470668 339.84 
L 249.470668 311.451546 
L 232.561577 311.451546 
z
" clip-path="url(#p1523aaa235)" style="fill: #0173b2; stroke: #ffffff; stroke-linejoin: miter"/>
   </g>
   <g id="patch_14">
    <path d="M 249.470668 339.84 
L 266.379759 339.84 
L 266.379759 290.992669 
L 249.470668 290.992669 
z
" clip-path="url(#p1523aaa235)" style="fill: #0173b2; stroke: #ffffff; stroke-linejoin: miter"/>
   </g>
   <g id="patch_15">
    <path d="M 266.379759 339.84 
L 283.288849 339.84 
L 283.288849 259.133261 
L 266.379759 259.133261 
z
" clip-path="url(#p1523aaa235)" style="fill: #0173b2; stroke: #ffffff; stroke-linejoin: miter"/>
   </g>
   <g id="patch_16">
    <path d="M 283.288849 339.84 
L 300.19794 339.84 
L 300.19794 217.848659 
L 283.288849 217.848659 
z
" clip-path="url(#p1523aaa235)" style="fill: #0173b2; stroke: #ffffff; stroke-linejoin: miter"/>
   </g>
   <g id="patch_17">
    <path d="M 300.19794 339.84 
L 317.107031 339.84 
L 317.107031 166.179415 
L 300.19794 166.179415 
z
" clip-path="url(#p1523aaa235)" style="fill: #0173b2; stroke: #ffffff; stroke-linejoin: miter"/>
   </g>
   <g id="patch_18">
    <path d="M 317.107031 339.84 
L 334.016122 339.84 
L 334.016122 116.287976 
L 317.107031 116.287976 
z
" clip-path="url(#p1523aaa235)" style="fill: #0173b2; stroke: #ffffff; stroke-linejoin: miter"/>
   </g>
   <g id="patch_19">
    <path d="M 334.016122 339.84 
L 350.925213 339.84 
L 350.925213 71.052695 
L 334.016122 71.052695 
z
" clip-path="url(#p1523aaa235)" style="fill: #0173b2; stroke: #ffffff; stroke-linejoin: miter"/>
   </g>
   <g id="patch_20">
    <path d="M 350.925213 339.84 
L 367.834304 339.84 
L 367.834304 34.847539 
L 350.925213 34.847539 
z
" clip-path="url(#p1523aaa235)" style="fill: #0173b2; stroke: #ffffff; stroke-linejoin: miter"/>
   </g>
   <g id="patch_21">
    <path d="M 367.834304 339.84 
L 384.743395 339.84 
L 384.743395 23.503445 
L 367.834304 23.503445 
z
" clip-path="url(#p1523aaa235)" style="fill: #0173b2; stroke: #ffffff; stroke-linejoin: miter"/>
   </g>
   <g id="patch_22">
    <path d="M 384.743395 339.84 
L 401.652486 339.84 
L 401.652486 35.214388 
L 384.743395 35.214388 
z
" clip-path="url(#p1523aaa235)" style="fill: #0173b2; stroke: #ffffff; stroke-linejoin: miter"/>
   </g>
   <g id="patch_23">
    <path d="M 401.652486 339.84 
L 418.561577 339.84 
L 418.561577 64.731608 
L 401.652486 64.731608 
z
" clip-path="url(#p1523aaa235)" style="fill: #0173b2; stroke: #ffffff; stroke-linejoin: miter"/>
   </g>
   <g id="patch_24">
    <path d="M 418.561577 339.84 
L 435.470668 339.84 
L 435.470668 109.458944 
L 418.561577 109.458944 
z
" clip-path="url(#p1523aaa235)" style="fill: #0173b2; stroke: #ffffff; stroke-linejoin: miter"/>
   </g>
   <g id="patch_25">
    <path d="M 435.470668 339.84 
L 452.379759 339.84 
L 452.379759 168.182974 
L 435.470668 168.182974 
z
" clip-path="url(#p1523aaa235)" style="fill: #0173b2; stroke: #ffffff; stroke-linejoin: miter"/>
   </g>
   <g id="patch_26">
    <path d="M 452.379759 339.84 
L 469.288849 339.84 
L 469.288849 227.838235 
L 452.379759 227.838235 
z
" clip-path="url(#p1523aaa235)" style="fill: #0173b2; stroke: #ffffff; stroke-linejoin: miter"/>
   </g>
   <g id="patch_27">
    <path d="M 469.288849 339.84 
L 486.19794 339.84 
L 486.19794 269.715438 
L 469.288849 269.715438 
z
" clip-path="url(#p1523aaa235)" style="fill: #0173b2; stroke: #ffffff; stroke-linejoin: miter"/>
   </g>
   <g id="patch_28">
    <path d="M 486.19794 339.84 
L 503.107031 339.84 
L 503.107031 301.095121 
L 486.19794 301.095121 
z
" clip-path="url(#p1523aaa235)" style="fill: #0173b2; stroke: #ffffff; stroke-linejoin: miter"/>
   </g>
   <g id="patch_29">
    <path d="M 503.107031 339.84 
L 520.016122 339.84 
L 520.016122 322.146599 
L 503.107031 322.146599 
z
" clip-path="url(#p1523aaa235)" style="fill: #0173b2; stroke: #ffffff; stroke-linejoin: miter"/>
   </g>
   <g id="patch_30">
    <path d="M 520.016122 339.84 
L 536.925213 339.84 
L 536.925213 332.898092 
L 520.016122 332.898092 
z
" clip-path="url(#p1523aaa235)" style="fill: #0173b2; stroke: #ffffff; stroke-linejoin: miter"/>
   </g>
   <g id="patch_31">
    <path d="M 536.925213 339.84 
L 553.834304 339.84 
L 553.834304 338.090413 
L 536.925213 338.090413 
z
" clip-path="url(#p1523aaa235)" style="fill: #0173b2; stroke: #ffffff; stroke-linejoin: miter"/>
   </g>
   <g id="patch_32">
    <path d="M 553.834304 339.84 
L 570.743395 339.84 
L 570.743395 339.50137 
L 553.834304 339.50137 
z
" clip-path="url(#p1523aaa235)" style="fill: #0173b2; stroke: #ffffff; stroke-linejoin: miter"/>
   </g>
   <g id="line2d_14">
    <defs>
     <path id="maa7c025ad7" d="M -2 2 
L 2 -2 
M -2 -2 
L 2 2 
" style="stroke: #0173b2"/>
    </defs>
    <g clip-path="url(#p1523aaa235)">
     <use xlink:href="#maa7c025ad7" x="63.470668" y="339.839971" style="fill: #0173b2; stroke: #0173b2"/>
     <use xlink:href="#maa7c025ad7" x="80.379759" y="339.839524" style="fill: #0173b2; stroke: #0173b2"/>
     <use xlink:href="#maa7c025ad7" x="97.288849" y="339.836013" style="fill: #0173b2; stroke: #0173b2"/>
     <use xlink:href="#maa7c025ad7" x="114.19794" y="339.817163" style="fill: #0173b2; stroke: #0173b2"/>
     <use xlink:href="#maa7c025ad7" x="131.107031" y="339.739623" style="fill: #0173b2; stroke: #0173b2"/>
     <use xlink:href="#maa7c025ad7" x="148.016122" y="339.4796" style="fill: #0173b2; stroke: #0173b2"/>
     <use xlink:href="#maa7c025ad7" x="164.925213" y="338.741219" style="fill: #0173b2; stroke: #0173b2"/>
     <use xlink:href="#maa7c025ad7" x="181.834304" y="336.920382" style="fill: #0173b2; stroke: #0173b2"/>
     <use xlink:href="#maa7c025ad7" x="198.743395" y="332.952697" style="fill: #0173b2; stroke: #0173b2"/>
     <use xlink:href="#maa7c025ad7" x="215.652486" y="325.219584" style="fill: #0173b2; stroke: #0173b2"/>
     <use xlink:href="#maa7c025ad7" x="232.561577" y="311.626548" style="fill: #0173b2; stroke: #0173b2"/>
     <use xlink:href="#maa7c025ad7" x="249.470668" y="289.967737" style="fill: #0173b2; stroke: #0173b2"/>
     <use xlink:href="#maa7c025ad7" x="266.379759" y="258.619457" style="fill: #0173b2; stroke: #0173b2"/>
     <use xlink:href="#maa7c025ad7" x="283.288849" y="217.457915" style="fill: #0173b2; stroke: #0173b2"/>
     <use xlink:href="#maa7c025ad7" x="300.19794" y="168.716998" style="fill: #0173b2; stroke: #0173b2"/>
     <use xlink:href="#maa7c025ad7" x="317.107031" y="117.380097" style="fill: #0173b2; stroke: #0173b2"/>
     <use xlink:href="#maa7c025ad7" x="334.016122" y="70.735279" style="fill: #0173b2; stroke: #0173b2"/>
     <use xlink:href="#maa7c025ad7" x="350.925213" y="36.965275" style="fill: #0173b2; stroke: #0173b2"/>
     <use xlink:href="#maa7c025ad7" x="367.834304" y="23.04" style="fill: #0173b2; stroke: #0173b2"/>
     <use xlink:href="#maa7c025ad7" x="384.743395" y="32.56782" style="fill: #0173b2; stroke: #0173b2"/>
     <use xlink:href="#maa7c025ad7" x="401.652486" y="64.433083" style="fill: #0173b2; stroke: #0173b2"/>
     <use xlink:href="#maa7c025ad7" x="418.561577" y="112.856277" style="fill: #0173b2; stroke: #0173b2"/>
     <use xlink:href="#maa7c025ad7" x="435.470668" y="168.983161" style="fill: #0173b2; stroke: #0173b2"/>
     <use xlink:href="#maa7c025ad7" x="452.379759" y="223.459255" style="fill: #0173b2; stroke: #0173b2"/>
     <use xlink:href="#maa7c025ad7" x="469.288849" y="268.999546" style="fill: #0173b2; stroke: #0173b2"/>
     <use xlink:href="#maa7c025ad7" x="486.19794" y="301.972558" style="fill: #0173b2; stroke: #0173b2"/>
     <use xlink:href="#maa7c025ad7" x="503.107031" y="322.501427" style="fill: #0173b2; stroke: #0173b2"/>
     <use xlink:href="#maa7c025ad7" x="520.016122" y="333.289873" style="fill: #0173b2; stroke: #0173b2"/>
     <use xlink:href="#maa7c025ad7" x="536.925213" y="337.919286" style="fill: #0173b2; stroke: #0173b2"/>
     <use xlink:href="#maa7c025ad7" x="553.834304" y="339.44997" style="fill: #0173b2; stroke: #0173b2"/>
    </g>
   </g>
   <g id="patch_33">
    <path d="M 38.107031 339.84 
L 38.107031 7.2 
" style="fill: none; stroke: #ffffff; stroke-width: 1.25; stroke-linejoin: miter; stroke-linecap: square"/>
   </g>
   <g id="patch_34">
    <path d="M 596.107031 339.84 
L 596.107031 7.2 
" style="fill: none; stroke: #ffffff; stroke-width: 1.25; stroke-linejoin: miter; stroke-linecap: square"/>
   </g>
   <g id="patch_35">
    <path d="M 38.107031 339.84 
L 596.107031 339.84 
" style="fill: none; stroke: #ffffff; stroke-width: 1.25; stroke-linejoin: miter; stroke-linecap: square"/>
   </g>
   <g id="patch_36">
    <path d="M 38.107031 7.2 
L 596.107031 7.2 
" style="fill: none; stroke: #ffffff; stroke-width: 1.25; stroke-linejoin: miter; stroke-linecap: square"/>
   </g>
  </g>
 </g>
 <defs>
  <clipPath id="p1523aaa235">
   <rect x="38.107031" y="7.2" width="558" height="332.64"/>
  </clipPath>
 </defs>
</svg>