<?xml version="1.0" encoding="utf-8" standalone="no"?>
<!DOCTYPE svg PUBLIC "-//W3C//DTD SVG 1.1//EN"
  "http://www.w3.org/Graphics/SVG/1.1/DTD/svg11.dtd">
<svg xmlns:xlink="http://www.w3.org/1999/xlink" width="621.650156pt" height="396.450469pt" viewBox="0 0 621.650156 396.450469" xmlns="http://www.w3.org/2000/svg" version="1.1">
 <metadata>
  <rdf:RDF xmlns:dc="http://purl.org/dc/elements/1.1/" xmlns:cc="http://creativecommons.org/ns#" xmlns:rdf="http://www.w3.org/1999/02/22-rdf-syntax-ns#">
   <cc:Work>
    <dc:type rdf:resource="http://purl.org/dc/dcmitype/StillImage"/>
    <dc:date>2023-05-17T06:23:19.500021</dc:date>
    <dc:format>image/svg+xml</dc:format>
    <dc:creator>
     <cc:Agent>
      <dc:title>Matplotlib v3.7.1, https://matplotlib.org/</dc:title>
     </cc:Agent>
    </dc:creator>
   </cc:Work>
  </rdf:RDF>
 </metadata>
 <defs>
  <style type="text/css">*{stroke-linejoin: round; stroke-linecap: butt}</style>
 </defs>
 <g id="figure_1">
  <g id="patch_1">
   <path d="M 0 396.450469 
L 621.650156 396.450469 
L 621.650156 0 
L 0 0 
z
" style="fill: #ffffff"/>
  </g>
  <g id="axes_1">
   <g id="patch_2">
    <path d="M 56.450156 354.429375 
L 614.450156 354.429375 
L 614.450156 21.789375 
L 56.450156 21.789375 
z
" style="fill: #eaeaf2"/>
   </g>
   <g id="matplotlib.axis_1">
    <g id="xtick_1">
     <g id="line2d_1">
      <path d="M 81.813793 354.429375 
L 81.813793 21.789375 
" clip-path="url(#p174847220a)" style="fill: none; stroke: #ffffff; stroke-linecap: round"/>
     </g>
     <g id="text_1">
      <!-- 0.0 -->
      <g style="fill: #262626" transform="translate(74.168793 371.802969) scale(0.11 -0.11)">
       <defs>
        <path id="ArialMT-30" d="M 266 2259 
Q 266 3072 433 3567 
Q 600 4063 929 4331 
Q 1259 4600 1759 4600 
Q 2128 4600 2406 4451 
Q 2684 4303 2865 4023 
Q 3047 3744 3150 3342 
Q 3253 2941 3253 2259 
Q 3253 1453 3087 958 
Q 2922 463 2592 192 
Q 2263 -78 1759 -78 
Q 1097 -78 719 397 
Q 266 969 266 2259 
z
M 844 2259 
Q 844 1131 1108 757 
Q 1372 384 1759 384 
Q 2147 384 2411 759 
Q 2675 1134 2675 2259 
Q 2675 3391 2411 3762 
Q 2147 4134 1753 4134 
Q 1366 4134 1134 3806 
Q 844 3388 844 2259 
z
" transform="scale(0.015625)"/>
        <path id="ArialMT-2e" d="M 581 0 
L 581 641 
L 1222 641 
L 1222 0 
L 581 0 
z
" transform="scale(0.015625)"/>
       </defs>
       <use xlink:href="#ArialMT-30"/>
       <use xlink:href="#ArialMT-2e" x="55.615234"/>
       <use xlink:href="#ArialMT-30" x="83.398438"/>
      </g>
     </g>
    </g>
    <g id="xtick_2">
     <g id="line2d_2">
      <path d="M 183.268338 354.429375 
L 183.268338 21.789375 
" clip-path="url(#p174847220a)" style="fill: none; stroke: #ffffff; stroke-linecap: round"/>
     </g>
     <g id="text_2">
      <!-- 0.2 -->
      <g style="fill: #262626" transform="translate(175.623338 371.802969) scale(0.11 -0.11)">
       <defs>
        <path id="ArialMT-32" d="M 3222 541 
L 3222 0 
L 194 0 
Q 188 203 259 391 
Q 375 700 629 1000 
Q 884 1300 1366 1694 
Q 2113 2306 2375 2664 
Q 2638 3022 2638 3341 
Q 2638 3675 2398 3904 
Q 2159 4134 1775 4134 
Q 1369 4134 1125 3890 
Q 881 3647 878 3216 
L 300 3275 
Q 359 3922 746 4261 
Q 1134 4600 1788 4600 
Q 2447 4600 2831 4234 
Q 3216 3869 3216 3328 
Q 3216 3053 3103 2787 
Q 2991 2522 2730 2228 
Q 2469 1934 1863 1422 
Q 1356 997 1212 845 
Q 1069 694 975 541 
L 3222 541 
z
" transform="scale(0.015625)"/>
       </defs>
       <use xlink:href="#ArialMT-30"/>
       <use xlink:href="#ArialMT-2e" x="55.615234"/>
       <use xlink:href="#ArialMT-32" x="83.398438"/>
      </g>
     </g>
    </g>
    <g id="xtick_3">
     <g id="line2d_3">
      <path d="M 284.722884 354.429375 
L 284.722884 21.789375 
" clip-path="url(#p174847220a)" style="fill: none; stroke: #ffffff; stroke-linecap: round"/>
     </g>
     <g id="text_3">
      <!-- 0.4 -->
      <g style="fill: #262626" transform="translate(277.077884 371.802969) scale(0.11 -0.11)">
       <defs>
        <path id="ArialMT-34" d="M 2069 0 
L 2069 1097 
L 81 1097 
L 81 1613 
L 2172 4581 
L 2631 4581 
L 2631 1613 
L 3250 1613 
L 3250 1097 
L 2631 1097 
L 2631 0 
L 2069 0 
z
M 2069 1613 
L 2069 3678 
L 634 1613 
L 2069 1613 
z
" transform="scale(0.015625)"/>
       </defs>
       <use xlink:href="#ArialMT-30"/>
       <use xlink:href="#ArialMT-2e" x="55.615234"/>
       <use xlink:href="#ArialMT-34" x="83.398438"/>
      </g>
     </g>
    </g>
    <g id="xtick_4">
     <g id="line2d_4">
      <path d="M 386.177429 354.429375 
L 386.177429 21.789375 
" clip-path="url(#p174847220a)" style="fill: none; stroke: #ffffff; stroke-linecap: round"/>
     </g>
     <g id="text_4">
      <!-- 0.6 -->
      <g style="fill: #262626" transform="translate(378.532429 371.802969) scale(0.11 -0.11)">
       <defs>
        <path id="ArialMT-36" d="M 3184 3459 
L 2625 3416 
Q 2550 3747 2413 3897 
Q 2184 4138 1850 4138 
Q 1581 4138 1378 3988 
Q 1113 3794 959 3422 
Q 806 3050 800 2363 
Q 1003 2672 1297 2822 
Q 1591 2972 1913 2972 
Q 2475 2972 2870 2558 
Q 3266 2144 3266 1488 
Q 3266 1056 3080 686 
Q 2894 316 2569 119 
Q 2244 -78 1831 -78 
Q 1128 -78 684 439 
Q 241 956 241 2144 
Q 241 3472 731 4075 
Q 1159 4600 1884 4600 
Q 2425 4600 2770 4297 
Q 3116 3994 3184 3459 
z
M 888 1484 
Q 888 1194 1011 928 
Q 1134 663 1356 523 
Q 1578 384 1822 384 
Q 2178 384 2434 671 
Q 2691 959 2691 1453 
Q 2691 1928 2437 2201 
Q 2184 2475 1800 2475 
Q 1419 2475 1153 2201 
Q 888 1928 888 1484 
z
" transform="scale(0.015625)"/>
       </defs>
       <use xlink:href="#ArialMT-30"/>
       <use xlink:href="#ArialMT-2e" x="55.615234"/>
       <use xlink:href="#ArialMT-36" x="83.398438"/>
      </g>
     </g>
    </g>
    <g id="xtick_5">
     <g id="line2d_5">
      <path d="M 487.631974 354.429375 
L 487.631974 21.789375 
" clip-path="url(#p174847220a)" style="fill: none; stroke: #ffffff; stroke-linecap: round"/>
     </g>
     <g id="text_5">
      <!-- 0.8 -->
      <g style="fill: #262626" transform="translate(479.986974 371.802969) scale(0.11 -0.11)">
       <defs>
        <path id="ArialMT-38" d="M 1131 2484 
Q 781 2613 612 2850 
Q 444 3088 444 3419 
Q 444 3919 803 4259 
Q 1163 4600 1759 4600 
Q 2359 4600 2725 4251 
Q 3091 3903 3091 3403 
Q 3091 3084 2923 2848 
Q 2756 2613 2416 2484 
Q 2838 2347 3058 2040 
Q 3278 1734 3278 1309 
Q 3278 722 2862 322 
Q 2447 -78 1769 -78 
Q 1091 -78 675 323 
Q 259 725 259 1325 
Q 259 1772 486 2073 
Q 713 2375 1131 2484 
z
M 1019 3438 
Q 1019 3113 1228 2906 
Q 1438 2700 1772 2700 
Q 2097 2700 2305 2904 
Q 2513 3109 2513 3406 
Q 2513 3716 2298 3927 
Q 2084 4138 1766 4138 
Q 1444 4138 1231 3931 
Q 1019 3725 1019 3438 
z
M 838 1322 
Q 838 1081 952 856 
Q 1066 631 1291 507 
Q 1516 384 1775 384 
Q 2178 384 2440 643 
Q 2703 903 2703 1303 
Q 2703 1709 2433 1975 
Q 2163 2241 1756 2241 
Q 1359 2241 1098 1978 
Q 838 1716 838 1322 
z
" transform="scale(0.015625)"/>
       </defs>
       <use xlink:href="#ArialMT-30"/>
       <use xlink:href="#ArialMT-2e" x="55.615234"/>
       <use xlink:href="#ArialMT-38" x="83.398438"/>
      </g>
     </g>
    </g>
    <g id="xtick_6">
     <g id="line2d_6">
      <path d="M 589.08652 354.429375 
L 589.08652 21.789375 
" clip-path="url(#p174847220a)" style="fill: none; stroke: #ffffff; stroke-linecap: round"/>
     </g>
     <g id="text_6">
      <!-- 1.0 -->
      <g style="fill: #262626" transform="translate(581.44152 371.802969) scale(0.11 -0.11)">
       <defs>
        <path id="ArialMT-31" d="M 2384 0 
L 1822 0 
L 1822 3584 
Q 1619 3391 1289 3197 
Q 959 3003 697 2906 
L 697 3450 
Q 1169 3672 1522 3987 
Q 1875 4303 2022 4600 
L 2384 4600 
L 2384 0 
z
" transform="scale(0.015625)"/>
       </defs>
       <use xlink:href="#ArialMT-31"/>
       <use xlink:href="#ArialMT-2e" x="55.615234"/>
       <use xlink:href="#ArialMT-30" x="83.398438"/>
      </g>
     </g>
    </g>
    <g id="text_7">
     <!-- Gruppo (codificato con 0 e 1) -->
     <g style="fill: #262626" transform="translate(258.080156 386.724844) scale(0.12 -0.12)">
      <defs>
       <path id="ArialMT-47" d="M 2638 1797 
L 2638 2334 
L 4578 2338 
L 4578 638 
Q 4131 281 3656 101 
Q 3181 -78 2681 -78 
Q 2006 -78 1454 211 
Q 903 500 622 1047 
Q 341 1594 341 2269 
Q 341 2938 620 3517 
Q 900 4097 1425 4378 
Q 1950 4659 2634 4659 
Q 3131 4659 3532 4498 
Q 3934 4338 4162 4050 
Q 4391 3763 4509 3300 
L 3963 3150 
Q 3859 3500 3706 3700 
Q 3553 3900 3268 4020 
Q 2984 4141 2638 4141 
Q 2222 4141 1919 4014 
Q 1616 3888 1430 3681 
Q 1244 3475 1141 3228 
Q 966 2803 966 2306 
Q 966 1694 1177 1281 
Q 1388 869 1791 669 
Q 2194 469 2647 469 
Q 3041 469 3416 620 
Q 3791 772 3984 944 
L 3984 1797 
L 2638 1797 
z
" transform="scale(0.015625)"/>
       <path id="ArialMT-72" d="M 416 0 
L 416 3319 
L 922 3319 
L 922 2816 
Q 1116 3169 1280 3281 
Q 1444 3394 1641 3394 
Q 1925 3394 2219 3213 
L 2025 2691 
Q 1819 2813 1613 2813 
Q 1428 2813 1281 2702 
Q 1134 2591 1072 2394 
Q 978 2094 978 1738 
L 978 0 
L 416 0 
z
" transform="scale(0.015625)"/>
       <path id="ArialMT-75" d="M 2597 0 
L 2597 488 
Q 2209 -75 1544 -75 
Q 1250 -75 995 37 
Q 741 150 617 320 
Q 494 491 444 738 
Q 409 903 409 1263 
L 409 3319 
L 972 3319 
L 972 1478 
Q 972 1038 1006 884 
Q 1059 663 1231 536 
Q 1403 409 1656 409 
Q 1909 409 2131 539 
Q 2353 669 2445 892 
Q 2538 1116 2538 1541 
L 2538 3319 
L 3100 3319 
L 3100 0 
L 2597 0 
z
" transform="scale(0.015625)"/>
       <path id="ArialMT-70" d="M 422 -1272 
L 422 3319 
L 934 3319 
L 934 2888 
Q 1116 3141 1344 3267 
Q 1572 3394 1897 3394 
Q 2322 3394 2647 3175 
Q 2972 2956 3137 2557 
Q 3303 2159 3303 1684 
Q 3303 1175 3120 767 
Q 2938 359 2589 142 
Q 2241 -75 1856 -75 
Q 1575 -75 1351 44 
Q 1128 163 984 344 
L 984 -1272 
L 422 -1272 
z
M 931 1641 
Q 931 1000 1190 694 
Q 1450 388 1819 388 
Q 2194 388 2461 705 
Q 2728 1022 2728 1688 
Q 2728 2322 2467 2637 
Q 2206 2953 1844 2953 
Q 1484 2953 1207 2617 
Q 931 2281 931 1641 
z
" transform="scale(0.015625)"/>
       <path id="ArialMT-6f" d="M 213 1659 
Q 213 2581 725 3025 
Q 1153 3394 1769 3394 
Q 2453 3394 2887 2945 
Q 3322 2497 3322 1706 
Q 3322 1066 3130 698 
Q 2938 331 2570 128 
Q 2203 -75 1769 -75 
Q 1072 -75 642 372 
Q 213 819 213 1659 
z
M 791 1659 
Q 791 1022 1069 705 
Q 1347 388 1769 388 
Q 2188 388 2466 706 
Q 2744 1025 2744 1678 
Q 2744 2294 2464 2611 
Q 2184 2928 1769 2928 
Q 1347 2928 1069 2612 
Q 791 2297 791 1659 
z
" transform="scale(0.015625)"/>
       <path id="ArialMT-20" transform="scale(0.015625)"/>
       <path id="ArialMT-28" d="M 1497 -1347 
Q 1031 -759 709 28 
Q 388 816 388 1659 
Q 388 2403 628 3084 
Q 909 3875 1497 4659 
L 1900 4659 
Q 1522 4009 1400 3731 
Q 1209 3300 1100 2831 
Q 966 2247 966 1656 
Q 966 153 1900 -1347 
L 1497 -1347 
z
" transform="scale(0.015625)"/>
       <path id="ArialMT-63" d="M 2588 1216 
L 3141 1144 
Q 3050 572 2676 248 
Q 2303 -75 1759 -75 
Q 1078 -75 664 370 
Q 250 816 250 1647 
Q 250 2184 428 2587 
Q 606 2991 970 3192 
Q 1334 3394 1763 3394 
Q 2303 3394 2647 3120 
Q 2991 2847 3088 2344 
L 2541 2259 
Q 2463 2594 2264 2762 
Q 2066 2931 1784 2931 
Q 1359 2931 1093 2626 
Q 828 2322 828 1663 
Q 828 994 1084 691 
Q 1341 388 1753 388 
Q 2084 388 2306 591 
Q 2528 794 2588 1216 
z
" transform="scale(0.015625)"/>
       <path id="ArialMT-64" d="M 2575 0 
L 2575 419 
Q 2259 -75 1647 -75 
Q 1250 -75 917 144 
Q 584 363 401 755 
Q 219 1147 219 1656 
Q 219 2153 384 2558 
Q 550 2963 881 3178 
Q 1213 3394 1622 3394 
Q 1922 3394 2156 3267 
Q 2391 3141 2538 2938 
L 2538 4581 
L 3097 4581 
L 3097 0 
L 2575 0 
z
M 797 1656 
Q 797 1019 1065 703 
Q 1334 388 1700 388 
Q 2069 388 2326 689 
Q 2584 991 2584 1609 
Q 2584 2291 2321 2609 
Q 2059 2928 1675 2928 
Q 1300 2928 1048 2622 
Q 797 2316 797 1656 
z
" transform="scale(0.015625)"/>
       <path id="ArialMT-69" d="M 425 3934 
L 425 4581 
L 988 4581 
L 988 3934 
L 425 3934 
z
M 425 0 
L 425 3319 
L 988 3319 
L 988 0 
L 425 0 
z
" transform="scale(0.015625)"/>
       <path id="ArialMT-66" d="M 556 0 
L 556 2881 
L 59 2881 
L 59 3319 
L 556 3319 
L 556 3672 
Q 556 4006 616 4169 
Q 697 4388 901 4523 
Q 1106 4659 1475 4659 
Q 1713 4659 2000 4603 
L 1916 4113 
Q 1741 4144 1584 4144 
Q 1328 4144 1222 4034 
Q 1116 3925 1116 3625 
L 1116 3319 
L 1763 3319 
L 1763 2881 
L 1116 2881 
L 1116 0 
L 556 0 
z
" transform="scale(0.015625)"/>
       <path id="ArialMT-61" d="M 2588 409 
Q 2275 144 1986 34 
Q 1697 -75 1366 -75 
Q 819 -75 525 192 
Q 231 459 231 875 
Q 231 1119 342 1320 
Q 453 1522 633 1644 
Q 813 1766 1038 1828 
Q 1203 1872 1538 1913 
Q 2219 1994 2541 2106 
Q 2544 2222 2544 2253 
Q 2544 2597 2384 2738 
Q 2169 2928 1744 2928 
Q 1347 2928 1158 2789 
Q 969 2650 878 2297 
L 328 2372 
Q 403 2725 575 2942 
Q 747 3159 1072 3276 
Q 1397 3394 1825 3394 
Q 2250 3394 2515 3294 
Q 2781 3194 2906 3042 
Q 3031 2891 3081 2659 
Q 3109 2516 3109 2141 
L 3109 1391 
Q 3109 606 3145 398 
Q 3181 191 3288 0 
L 2700 0 
Q 2613 175 2588 409 
z
M 2541 1666 
Q 2234 1541 1622 1453 
Q 1275 1403 1131 1340 
Q 988 1278 909 1158 
Q 831 1038 831 891 
Q 831 666 1001 516 
Q 1172 366 1500 366 
Q 1825 366 2078 508 
Q 2331 650 2450 897 
Q 2541 1088 2541 1459 
L 2541 1666 
z
" transform="scale(0.015625)"/>
       <path id="ArialMT-74" d="M 1650 503 
L 1731 6 
Q 1494 -44 1306 -44 
Q 1000 -44 831 53 
Q 663 150 594 308 
Q 525 466 525 972 
L 525 2881 
L 113 2881 
L 113 3319 
L 525 3319 
L 525 4141 
L 1084 4478 
L 1084 3319 
L 1650 3319 
L 1650 2881 
L 1084 2881 
L 1084 941 
Q 1084 700 1114 631 
Q 1144 563 1211 522 
Q 1278 481 1403 481 
Q 1497 481 1650 503 
z
" transform="scale(0.015625)"/>
       <path id="ArialMT-6e" d="M 422 0 
L 422 3319 
L 928 3319 
L 928 2847 
Q 1294 3394 1984 3394 
Q 2284 3394 2536 3286 
Q 2788 3178 2913 3003 
Q 3038 2828 3088 2588 
Q 3119 2431 3119 2041 
L 3119 0 
L 2556 0 
L 2556 2019 
Q 2556 2363 2490 2533 
Q 2425 2703 2258 2804 
Q 2091 2906 1866 2906 
Q 1506 2906 1245 2678 
Q 984 2450 984 1813 
L 984 0 
L 422 0 
z
" transform="scale(0.015625)"/>
       <path id="ArialMT-65" d="M 2694 1069 
L 3275 997 
Q 3138 488 2766 206 
Q 2394 -75 1816 -75 
Q 1088 -75 661 373 
Q 234 822 234 1631 
Q 234 2469 665 2931 
Q 1097 3394 1784 3394 
Q 2450 3394 2872 2941 
Q 3294 2488 3294 1666 
Q 3294 1616 3291 1516 
L 816 1516 
Q 847 969 1125 678 
Q 1403 388 1819 388 
Q 2128 388 2347 550 
Q 2566 713 2694 1069 
z
M 847 1978 
L 2700 1978 
Q 2663 2397 2488 2606 
Q 2219 2931 1791 2931 
Q 1403 2931 1139 2672 
Q 875 2413 847 1978 
z
" transform="scale(0.015625)"/>
       <path id="ArialMT-29" d="M 791 -1347 
L 388 -1347 
Q 1322 153 1322 1656 
Q 1322 2244 1188 2822 
Q 1081 3291 891 3722 
Q 769 4003 388 4659 
L 791 4659 
Q 1378 3875 1659 3084 
Q 1900 2403 1900 1659 
Q 1900 816 1576 28 
Q 1253 -759 791 -1347 
z
" transform="scale(0.015625)"/>
      </defs>
      <use xlink:href="#ArialMT-47"/>
      <use xlink:href="#ArialMT-72" x="77.783203"/>
      <use xlink:href="#ArialMT-75" x="111.083984"/>
      <use xlink:href="#ArialMT-70" x="166.699219"/>
      <use xlink:href="#ArialMT-70" x="222.314453"/>
      <use xlink:href="#ArialMT-6f" x="277.929688"/>
      <use xlink:href="#ArialMT-20" x="333.544922"/>
      <use xlink:href="#ArialMT-28" x="361.328125"/>
      <use xlink:href="#ArialMT-63" x="394.628906"/>
      <use xlink:href="#ArialMT-6f" x="444.628906"/>
      <use xlink:href="#ArialMT-64" x="500.244141"/>
      <use xlink:href="#ArialMT-69" x="555.859375"/>
      <use xlink:href="#ArialMT-66" x="578.076172"/>
      <use xlink:href="#ArialMT-69" x="605.859375"/>
      <use xlink:href="#ArialMT-63" x="628.076172"/>
      <use xlink:href="#ArialMT-61" x="678.076172"/>
      <use xlink:href="#ArialMT-74" x="733.691406"/>
      <use xlink:href="#ArialMT-6f" x="761.474609"/>
      <use xlink:href="#ArialMT-20" x="817.089844"/>
      <use xlink:href="#ArialMT-63" x="844.873047"/>
      <use xlink:href="#ArialMT-6f" x="894.873047"/>
      <use xlink:href="#ArialMT-6e" x="950.488281"/>
      <use xlink:href="#ArialMT-20" x="1006.103516"/>
      <use xlink:href="#ArialMT-30" x="1033.886719"/>
      <use xlink:href="#ArialMT-20" x="1089.501953"/>
      <use xlink:href="#ArialMT-65" x="1117.285156"/>
      <use xlink:href="#ArialMT-20" x="1172.900391"/>
      <use xlink:href="#ArialMT-31" x="1200.683594"/>
      <use xlink:href="#ArialMT-29" x="1256.298828"/>
     </g>
    </g>
   </g>
   <g id="matplotlib.axis_2">
    <g id="ytick_1">
     <g id="line2d_7">
      <path d="M 56.450156 347.326494 
L 614.450156 347.326494 
" clip-path="url(#p174847220a)" style="fill: none; stroke: #ffffff; stroke-linecap: round"/>
     </g>
     <g id="text_8">
      <!-- −200 -->
      <g style="fill: #262626" transform="translate(22.174375 351.263291) scale(0.11 -0.11)">
       <defs>
        <path id="ArialMT-2212" d="M 3381 1997 
L 356 1997 
L 356 2522 
L 3381 2522 
L 3381 1997 
z
" transform="scale(0.015625)"/>
       </defs>
       <use xlink:href="#ArialMT-2212"/>
       <use xlink:href="#ArialMT-32" x="58.398438"/>
       <use xlink:href="#ArialMT-30" x="114.013672"/>
       <use xlink:href="#ArialMT-30" x="169.628906"/>
      </g>
     </g>
    </g>
    <g id="ytick_2">
     <g id="line2d_8">
      <path d="M 56.450156 310.234306 
L 614.450156 310.234306 
" clip-path="url(#p174847220a)" style="fill: none; stroke: #ffffff; stroke-linecap: round"/>
     </g>
     <g id="text_9">
      <!-- −150 -->
      <g style="fill: #262626" transform="translate(22.174375 314.171103) scale(0.11 -0.11)">
       <defs>
        <path id="ArialMT-35" d="M 266 1200 
L 856 1250 
Q 922 819 1161 601 
Q 1400 384 1738 384 
Q 2144 384 2425 690 
Q 2706 997 2706 1503 
Q 2706 1984 2436 2262 
Q 2166 2541 1728 2541 
Q 1456 2541 1237 2417 
Q 1019 2294 894 2097 
L 366 2166 
L 809 4519 
L 3088 4519 
L 3088 3981 
L 1259 3981 
L 1013 2750 
Q 1425 3038 1878 3038 
Q 2478 3038 2890 2622 
Q 3303 2206 3303 1553 
Q 3303 931 2941 478 
Q 2500 -78 1738 -78 
Q 1113 -78 717 272 
Q 322 622 266 1200 
z
" transform="scale(0.015625)"/>
       </defs>
       <use xlink:href="#ArialMT-2212"/>
       <use xlink:href="#ArialMT-31" x="58.398438"/>
       <use xlink:href="#ArialMT-35" x="114.013672"/>
       <use xlink:href="#ArialMT-30" x="169.628906"/>
      </g>
     </g>
    </g>
    <g id="ytick_3">
     <g id="line2d_9">
      <path d="M 56.450156 273.142118 
L 614.450156 273.142118 
" clip-path="url(#p174847220a)" style="fill: none; stroke: #ffffff; stroke-linecap: round"/>
     </g>
     <g id="text_10">
      <!-- −100 -->
      <g style="fill: #262626" transform="translate(22.174375 277.078915) scale(0.11 -0.11)">
       <use xlink:href="#ArialMT-2212"/>
       <use xlink:href="#ArialMT-31" x="58.398438"/>
       <use xlink:href="#ArialMT-30" x="114.013672"/>
       <use xlink:href="#ArialMT-30" x="169.628906"/>
      </g>
     </g>
    </g>
    <g id="ytick_4">
     <g id="line2d_10">
      <path d="M 56.450156 236.04993 
L 614.450156 236.04993 
" clip-path="url(#p174847220a)" style="fill: none; stroke: #ffffff; stroke-linecap: round"/>
     </g>
     <g id="text_11">
      <!-- −50 -->
      <g style="fill: #262626" transform="translate(28.291406 239.986726) scale(0.11 -0.11)">
       <use xlink:href="#ArialMT-2212"/>
       <use xlink:href="#ArialMT-35" x="58.398438"/>
       <use xlink:href="#ArialMT-30" x="114.013672"/>
      </g>
     </g>
    </g>
    <g id="ytick_5">
     <g id="line2d_11">
      <path d="M 56.450156 198.957741 
L 614.450156 198.957741 
" clip-path="url(#p174847220a)" style="fill: none; stroke: #ffffff; stroke-linecap: round"/>
     </g>
     <g id="text_12">
      <!-- 0 -->
      <g style="fill: #262626" transform="translate(40.833125 202.894538) scale(0.11 -0.11)">
       <use xlink:href="#ArialMT-30"/>
      </g>
     </g>
    </g>
    <g id="ytick_6">
     <g id="line2d_12">
      <path d="M 56.450156 161.865553 
L 614.450156 161.865553 
" clip-path="url(#p174847220a)" style="fill: none; stroke: #ffffff; stroke-linecap: round"/>
     </g>
     <g id="text_13">
      <!-- 50 -->
      <g style="fill: #262626" transform="translate(34.716094 165.80235) scale(0.11 -0.11)">
       <use xlink:href="#ArialMT-35"/>
       <use xlink:href="#ArialMT-30" x="55.615234"/>
      </g>
     </g>
    </g>
    <g id="ytick_7">
     <g id="line2d_13">
      <path d="M 56.450156 124.773365 
L 614.450156 124.773365 
" clip-path="url(#p174847220a)" style="fill: none; stroke: #ffffff; stroke-linecap: round"/>
     </g>
     <g id="text_14">
      <!-- 100 -->
      <g style="fill: #262626" transform="translate(28.599062 128.710162) scale(0.11 -0.11)">
       <use xlink:href="#ArialMT-31"/>
       <use xlink:href="#ArialMT-30" x="55.615234"/>
       <use xlink:href="#ArialMT-30" x="111.230469"/>
      </g>
     </g>
    </g>
    <g id="ytick_8">
     <g id="line2d_14">
      <path d="M 56.450156 87.681177 
L 614.450156 87.681177 
" clip-path="url(#p174847220a)" style="fill: none; stroke: #ffffff; stroke-linecap: round"/>
     </g>
     <g id="text_15">
      <!-- 150 -->
      <g style="fill: #262626" transform="translate(28.599062 91.617974) scale(0.11 -0.11)">
       <use xlink:href="#ArialMT-31"/>
       <use xlink:href="#ArialMT-35" x="55.615234"/>
       <use xlink:href="#ArialMT-30" x="111.230469"/>
      </g>
     </g>
    </g>
    <g id="ytick_9">
     <g id="line2d_15">
      <path d="M 56.450156 50.588989 
L 614.450156 50.588989 
" clip-path="url(#p174847220a)" style="fill: none; stroke: #ffffff; stroke-linecap: round"/>
     </g>
     <g id="text_16">
      <!-- 200 -->
      <g style="fill: #262626" transform="translate(28.599062 54.525786) scale(0.11 -0.11)">
       <use xlink:href="#ArialMT-32"/>
       <use xlink:href="#ArialMT-30" x="55.615234"/>
       <use xlink:href="#ArialMT-30" x="111.230469"/>
      </g>
     </g>
    </g>
    <g id="text_17">
     <!-- Soddisfazione della vita -->
     <g style="fill: #262626" transform="translate(15.789375 251.146875) rotate(-90) scale(0.12 -0.12)">
      <defs>
       <path id="ArialMT-53" d="M 288 1472 
L 859 1522 
Q 900 1178 1048 958 
Q 1197 738 1509 602 
Q 1822 466 2213 466 
Q 2559 466 2825 569 
Q 3091 672 3220 851 
Q 3350 1031 3350 1244 
Q 3350 1459 3225 1620 
Q 3100 1781 2813 1891 
Q 2628 1963 1997 2114 
Q 1366 2266 1113 2400 
Q 784 2572 623 2826 
Q 463 3081 463 3397 
Q 463 3744 659 4045 
Q 856 4347 1234 4503 
Q 1613 4659 2075 4659 
Q 2584 4659 2973 4495 
Q 3363 4331 3572 4012 
Q 3781 3694 3797 3291 
L 3216 3247 
Q 3169 3681 2898 3903 
Q 2628 4125 2100 4125 
Q 1550 4125 1298 3923 
Q 1047 3722 1047 3438 
Q 1047 3191 1225 3031 
Q 1400 2872 2139 2705 
Q 2878 2538 3153 2413 
Q 3553 2228 3743 1945 
Q 3934 1663 3934 1294 
Q 3934 928 3725 604 
Q 3516 281 3123 101 
Q 2731 -78 2241 -78 
Q 1619 -78 1198 103 
Q 778 284 539 648 
Q 300 1013 288 1472 
z
" transform="scale(0.015625)"/>
       <path id="ArialMT-73" d="M 197 991 
L 753 1078 
Q 800 744 1014 566 
Q 1228 388 1613 388 
Q 2000 388 2187 545 
Q 2375 703 2375 916 
Q 2375 1106 2209 1216 
Q 2094 1291 1634 1406 
Q 1016 1563 777 1677 
Q 538 1791 414 1992 
Q 291 2194 291 2438 
Q 291 2659 392 2848 
Q 494 3038 669 3163 
Q 800 3259 1026 3326 
Q 1253 3394 1513 3394 
Q 1903 3394 2198 3281 
Q 2494 3169 2634 2976 
Q 2775 2784 2828 2463 
L 2278 2388 
Q 2241 2644 2061 2787 
Q 1881 2931 1553 2931 
Q 1166 2931 1000 2803 
Q 834 2675 834 2503 
Q 834 2394 903 2306 
Q 972 2216 1119 2156 
Q 1203 2125 1616 2013 
Q 2213 1853 2448 1751 
Q 2684 1650 2818 1456 
Q 2953 1263 2953 975 
Q 2953 694 2789 445 
Q 2625 197 2315 61 
Q 2006 -75 1616 -75 
Q 969 -75 630 194 
Q 291 463 197 991 
z
" transform="scale(0.015625)"/>
       <path id="ArialMT-7a" d="M 125 0 
L 125 456 
L 2238 2881 
Q 1878 2863 1603 2863 
L 250 2863 
L 250 3319 
L 2963 3319 
L 2963 2947 
L 1166 841 
L 819 456 
Q 1197 484 1528 484 
L 3063 484 
L 3063 0 
L 125 0 
z
" transform="scale(0.015625)"/>
       <path id="ArialMT-6c" d="M 409 0 
L 409 4581 
L 972 4581 
L 972 0 
L 409 0 
z
" transform="scale(0.015625)"/>
       <path id="ArialMT-76" d="M 1344 0 
L 81 3319 
L 675 3319 
L 1388 1331 
Q 1503 1009 1600 663 
Q 1675 925 1809 1294 
L 2547 3319 
L 3125 3319 
L 1869 0 
L 1344 0 
z
" transform="scale(0.015625)"/>
      </defs>
      <use xlink:href="#ArialMT-53"/>
      <use xlink:href="#ArialMT-6f" x="66.699219"/>
      <use xlink:href="#ArialMT-64" x="122.314453"/>
      <use xlink:href="#ArialMT-64" x="177.929688"/>
      <use xlink:href="#ArialMT-69" x="233.544922"/>
      <use xlink:href="#ArialMT-73" x="255.761719"/>
      <use xlink:href="#ArialMT-66" x="305.761719"/>
      <use xlink:href="#ArialMT-61" x="333.544922"/>
      <use xlink:href="#ArialMT-7a" x="389.160156"/>
      <use xlink:href="#ArialMT-69" x="439.160156"/>
      <use xlink:href="#ArialMT-6f" x="461.376953"/>
      <use xlink:href="#ArialMT-6e" x="516.992188"/>
      <use xlink:href="#ArialMT-65" x="572.607422"/>
      <use xlink:href="#ArialMT-20" x="628.222656"/>
      <use xlink:href="#ArialMT-64" x="656.005859"/>
      <use xlink:href="#ArialMT-65" x="711.621094"/>
      <use xlink:href="#ArialMT-6c" x="767.236328"/>
      <use xlink:href="#ArialMT-6c" x="789.453125"/>
      <use xlink:href="#ArialMT-61" x="811.669922"/>
      <use xlink:href="#ArialMT-20" x="867.285156"/>
      <use xlink:href="#ArialMT-76" x="895.068359"/>
      <use xlink:href="#ArialMT-69" x="945.068359"/>
      <use xlink:href="#ArialMT-74" x="967.285156"/>
      <use xlink:href="#ArialMT-61" x="995.068359"/>
     </g>
    </g>
   </g>
   <g id="line2d_16">
    <path d="M 81.813793 183.018663 
L 132.541065 174.818493 
L 183.268338 166.618324 
L 233.995611 158.418155 
L 284.722884 150.217986 
L 335.450156 142.017817 
L 386.177429 133.817648 
L 436.904702 125.617479 
L 487.631974 117.41731 
L 538.359247 109.21714 
L 589.08652 101.016971 
" clip-path="url(#p174847220a)" style="fill: none; stroke: #1a1a1a; stroke-opacity: 0.4; stroke-width: 1.5; stroke-linecap: round"/>
   </g>
   <g id="line2d_17">
    <path d="M 81.813793 198.138005 
L 132.541065 208.541479 
L 183.268338 218.944953 
L 233.995611 229.348427 
L 284.722884 239.751901 
L 335.450156 250.155374 
L 386.177429 260.558848 
L 436.904702 270.962322 
L 487.631974 281.365796 
L 538.359247 291.76927 
L 589.08652 302.172744 
" clip-path="url(#p174847220a)" style="fill: none; stroke: #1a1a1a; stroke-opacity: 0.4; stroke-width: 1.5; stroke-linecap: round"/>
   </g>
   <g id="line2d_18">
    <path d="M 81.813793 196.39341 
L 132.541065 198.082744 
L 183.268338 199.772077 
L 233.995611 201.461411 
L 284.722884 203.150745 
L 335.450156 204.840079 
L 386.177429 206.529413 
L 436.904702 208.218747 
L 487.631974 209.908081 
L 538.359247 211.597414 
L 589.08652 213.286748 
" clip-path="url(#p174847220a)" style="fill: none; stroke: #1a1a1a; stroke-opacity: 0.4; stroke-width: 1.5; stroke-linecap: round"/>
   </g>
   <g id="line2d_19">
    <path d="M 81.813793 144.396284 
L 132.541065 149.551476 
L 183.268338 154.706668 
L 233.995611 159.86186 
L 284.722884 165.017053 
L 335.450156 170.172245 
L 386.177429 175.327437 
L 436.904702 180.482629 
L 487.631974 185.637821 
L 538.359247 190.793013 
L 589.08652 195.948205 
" clip-path="url(#p174847220a)" style="fill: none; stroke: #1a1a1a; stroke-opacity: 0.4; stroke-width: 1.5; stroke-linecap: round"/>
   </g>
   <g id="line2d_20">
    <path d="M 81.813793 173.003397 
L 132.541065 166.886889 
L 183.268338 160.770382 
L 233.995611 154.653874 
L 284.722884 148.537367 
L 335.450156 142.420859 
L 386.177429 136.304352 
L 436.904702 130.187844 
L 487.631974 124.071336 
L 538.359247 117.954829 
L 589.08652 111.838321 
" clip-path="url(#p174847220a)" style="fill: none; stroke: #1a1a1a; stroke-opacity: 0.4; stroke-width: 1.5; stroke-linecap: round"/>
   </g>
   <g id="line2d_21">
    <path d="M 81.813793 205.497887 
L 132.541065 207.094454 
L 183.268338 208.691021 
L 233.995611 210.287587 
L 284.722884 211.884154 
L 335.450156 213.480721 
L 386.177429 215.077288 
L 436.904702 216.673855 
L 487.631974 218.270422 
L 538.359247 219.866989 
L 589.08652 221.463555 
" clip-path="url(#p174847220a)" style="fill: none; stroke: #1a1a1a; stroke-opacity: 0.4; stroke-width: 1.5; stroke-linecap: round"/>
   </g>
   <g id="line2d_22">
    <path d="M 81.813793 185.742253 
L 132.541065 184.894203 
L 183.268338 184.046153 
L 233.995611 183.198102 
L 284.722884 182.350052 
L 335.450156 181.502002 
L 386.177429 180.653952 
L 436.904702 179.805902 
L 487.631974 178.957852 
L 538.359247 178.109802 
L 589.08652 177.261752 
" clip-path="url(#p174847220a)" style="fill: none; stroke: #1a1a1a; stroke-opacity: 0.4; stroke-width: 1.5; stroke-linecap: round"/>
   </g>
   <g id="line2d_23">
    <path d="M 81.813793 233.02904 
L 132.541065 230.914364 
L 183.268338 228.799688 
L 233.995611 226.685012 
L 284.722884 224.570336 
L 335.450156 222.45566 
L 386.177429 220.340983 
L 436.904702 218.226307 
L 487.631974 216.111631 
L 538.359247 213.996955 
L 589.08652 211.882279 
" clip-path="url(#p174847220a)" style="fill: none; stroke: #1a1a1a; stroke-opacity: 0.4; stroke-width: 1.5; stroke-linecap: round"/>
   </g>
   <g id="line2d_24">
    <path d="M 81.813793 178.466009 
L 132.541065 191.127278 
L 183.268338 203.788547 
L 233.995611 216.449817 
L 284.722884 229.111086 
L 335.450156 241.772355 
L 386.177429 254.433624 
L 436.904702 267.094893 
L 487.631974 279.756163 
L 538.359247 292.417432 
L 589.08652 305.078701 
" clip-path="url(#p174847220a)" style="fill: none; stroke: #1a1a1a; stroke-opacity: 0.4; stroke-width: 1.5; stroke-linecap: round"/>
   </g>
   <g id="line2d_25">
    <path d="M 81.813793 218.188364 
L 132.541065 216.469522 
L 183.268338 214.75068 
L 233.995611 213.031837 
L 284.722884 211.312995 
L 335.450156 209.594152 
L 386.177429 207.87531 
L 436.904702 206.156467 
L 487.631974 204.437625 
L 538.359247 202.718782 
L 589.08652 200.99994 
" clip-path="url(#p174847220a)" style="fill: none; stroke: #1a1a1a; stroke-opacity: 0.4; stroke-width: 1.5; stroke-linecap: round"/>
   </g>
   <g id="line2d_26">
    <path d="M 81.813793 181.49299 
L 132.541065 190.692254 
L 183.268338 199.891518 
L 233.995611 209.090782 
L 284.722884 218.290046 
L 335.450156 227.48931 
L 386.177429 236.688574 
L 436.904702 245.887838 
L 487.631974 255.087102 
L 538.359247 264.286365 
L 589.08652 273.485629 
" clip-path="url(#p174847220a)" style="fill: none; stroke: #1a1a1a; stroke-opacity: 0.4; stroke-width: 1.5; stroke-linecap: round"/>
   </g>
   <g id="line2d_27">
    <path d="M 81.813793 169.037355 
L 132.541065 175.983816 
L 183.268338 182.930277 
L 233.995611 189.876738 
L 284.722884 196.823199 
L 335.450156 203.76966 
L 386.177429 210.716121 
L 436.904702 217.662582 
L 487.631974 224.609043 
L 538.359247 231.555504 
L 589.08652 238.501965 
" clip-path="url(#p174847220a)" style="fill: none; stroke: #1a1a1a; stroke-opacity: 0.4; stroke-width: 1.5; stroke-linecap: round"/>
   </g>
   <g id="line2d_28">
    <path d="M 81.813793 178.132778 
L 132.541065 186.581354 
L 183.268338 195.029929 
L 233.995611 203.478505 
L 284.722884 211.927081 
L 335.450156 220.375657 
L 386.177429 228.824233 
L 436.904702 237.272809 
L 487.631974 245.721385 
L 538.359247 254.169961 
L 589.08652 262.618537 
" clip-path="url(#p174847220a)" style="fill: none; stroke: #1a1a1a; stroke-opacity: 0.4; stroke-width: 1.5; stroke-linecap: round"/>
   </g>
   <g id="line2d_29">
    <path d="M 81.813793 171.605284 
L 132.541065 176.434954 
L 183.268338 181.264624 
L 233.995611 186.094295 
L 284.722884 190.923965 
L 335.450156 195.753636 
L 386.177429 200.583306 
L 436.904702 205.412976 
L 487.631974 210.242647 
L 538.359247 215.072317 
L 589.08652 219.901988 
" clip-path="url(#p174847220a)" style="fill: none; stroke: #1a1a1a; stroke-opacity: 0.4; stroke-width: 1.5; stroke-linecap: round"/>
   </g>
   <g id="line2d_30">
    <path d="M 81.813793 212.084963 
L 132.541065 216.470357 
L 183.268338 220.855751 
L 233.995611 225.241145 
L 284.722884 229.62654 
L 335.450156 234.011934 
L 386.177429 238.397328 
L 436.904702 242.782723 
L 487.631974 247.168117 
L 538.359247 251.553511 
L 589.08652 255.938906 
" clip-path="url(#p174847220a)" style="fill: none; stroke: #1a1a1a; stroke-opacity: 0.4; stroke-width: 1.5; stroke-linecap: round"/>
   </g>
   <g id="line2d_31">
    <path d="M 81.813793 224.608938 
L 132.541065 213.712871 
L 183.268338 202.816803 
L 233.995611 191.920736 
L 284.722884 181.024668 
L 335.450156 170.128601 
L 386.177429 159.232533 
L 436.904702 148.336466 
L 487.631974 137.440398 
L 538.359247 126.544331 
L 589.08652 115.648263 
" clip-path="url(#p174847220a)" style="fill: none; stroke: #1a1a1a; stroke-opacity: 0.4; stroke-width: 1.5; stroke-linecap: round"/>
   </g>
   <g id="line2d_32">
    <path d="M 81.813793 233.716742 
L 132.541065 236.755119 
L 183.268338 239.793496 
L 233.995611 242.831873 
L 284.722884 245.87025 
L 335.450156 248.908627 
L 386.177429 251.947004 
L 436.904702 254.985382 
L 487.631974 258.023759 
L 538.359247 261.062136 
L 589.08652 264.100513 
" clip-path="url(#p174847220a)" style="fill: none; stroke: #1a1a1a; stroke-opacity: 0.4; stroke-width: 1.5; stroke-linecap: round"/>
   </g>
   <g id="line2d_33">
    <path d="M 81.813793 172.328407 
L 132.541065 176.895065 
L 183.268338 181.461723 
L 233.995611 186.028381 
L 284.722884 190.595039 
L 335.450156 195.161697 
L 386.177429 199.728355 
L 436.904702 204.295013 
L 487.631974 208.861671 
L 538.359247 213.428329 
L 589.08652 217.994987 
" clip-path="url(#p174847220a)" style="fill: none; stroke: #1a1a1a; stroke-opacity: 0.4; stroke-width: 1.5; stroke-linecap: round"/>
   </g>
   <g id="line2d_34">
    <path d="M 81.813793 200.018005 
L 132.541065 197.771995 
L 183.268338 195.525986 
L 233.995611 193.279977 
L 284.722884 191.033967 
L 335.450156 188.787958 
L 386.177429 186.541949 
L 436.904702 184.295939 
L 487.631974 182.04993 
L 538.359247 179.803921 
L 589.08652 177.557911 
" clip-path="url(#p174847220a)" style="fill: none; stroke: #1a1a1a; stroke-opacity: 0.4; stroke-width: 1.5; stroke-linecap: round"/>
   </g>
   <g id="line2d_35">
    <path d="M 81.813793 198.881516 
L 132.541065 194.750792 
L 183.268338 190.620067 
L 233.995611 186.489343 
L 284.722884 182.358619 
L 335.450156 178.227894 
L 386.177429 174.09717 
L 436.904702 169.966446 
L 487.631974 165.835721 
L 538.359247 161.704997 
L 589.08652 157.574273 
" clip-path="url(#p174847220a)" style="fill: none; stroke: #1a1a1a; stroke-opacity: 0.4; stroke-width: 1.5; stroke-linecap: round"/>
   </g>
   <g id="line2d_36">
    <path d="M 81.813793 136.617122 
L 132.541065 132.376784 
L 183.268338 128.136447 
L 233.995611 123.896109 
L 284.722884 119.655771 
L 335.450156 115.415434 
L 386.177429 111.175096 
L 436.904702 106.934758 
L 487.631974 102.694421 
L 538.359247 98.454083 
L 589.08652 94.213745 
" clip-path="url(#p174847220a)" style="fill: none; stroke: #1a1a1a; stroke-opacity: 0.4; stroke-width: 1.5; stroke-linecap: round"/>
   </g>
   <g id="line2d_37">
    <path d="M 81.813793 182.220062 
L 132.541065 189.276277 
L 183.268338 196.332492 
L 233.995611 203.388707 
L 284.722884 210.444922 
L 335.450156 217.501136 
L 386.177429 224.557351 
L 436.904702 231.613566 
L 487.631974 238.669781 
L 538.359247 245.725996 
L 589.08652 252.782211 
" clip-path="url(#p174847220a)" style="fill: none; stroke: #1a1a1a; stroke-opacity: 0.4; stroke-width: 1.5; stroke-linecap: round"/>
   </g>
   <g id="line2d_38">
    <path d="M 81.813793 204.846635 
L 132.541065 211.615493 
L 183.268338 218.38435 
L 233.995611 225.153208 
L 284.722884 231.922065 
L 335.450156 238.690923 
L 386.177429 245.45978 
L 436.904702 252.228637 
L 487.631974 258.997495 
L 538.359247 265.766352 
L 589.08652 272.53521 
" clip-path="url(#p174847220a)" style="fill: none; stroke: #1a1a1a; stroke-opacity: 0.4; stroke-width: 1.5; stroke-linecap: round"/>
   </g>
   <g id="line2d_39">
    <path d="M 81.813793 157.617976 
L 132.541065 159.846064 
L 183.268338 162.074152 
L 233.995611 164.30224 
L 284.722884 166.530328 
L 335.450156 168.758416 
L 386.177429 170.986504 
L 436.904702 173.214592 
L 487.631974 175.442681 
L 538.359247 177.670769 
L 589.08652 179.898857 
" clip-path="url(#p174847220a)" style="fill: none; stroke: #1a1a1a; stroke-opacity: 0.4; stroke-width: 1.5; stroke-linecap: round"/>
   </g>
   <g id="line2d_40">
    <path d="M 81.813793 207.715288 
L 132.541065 201.133244 
L 183.268338 194.551199 
L 233.995611 187.969155 
L 284.722884 181.387111 
L 335.450156 174.805067 
L 386.177429 168.223022 
L 436.904702 161.640978 
L 487.631974 155.058934 
L 538.359247 148.476889 
L 589.08652 141.894845 
" clip-path="url(#p174847220a)" style="fill: none; stroke: #1a1a1a; stroke-opacity: 0.4; stroke-width: 1.5; stroke-linecap: round"/>
   </g>
   <g id="line2d_41">
    <path d="M 81.813793 182.484041 
L 132.541065 178.840037 
L 183.268338 175.196034 
L 233.995611 171.55203 
L 284.722884 167.908026 
L 335.450156 164.264023 
L 386.177429 160.620019 
L 436.904702 156.976015 
L 487.631974 153.332012 
L 538.359247 149.688008 
L 589.08652 146.044005 
" clip-path="url(#p174847220a)" style="fill: none; stroke: #1a1a1a; stroke-opacity: 0.4; stroke-width: 1.5; stroke-linecap: round"/>
   </g>
   <g id="line2d_42">
    <path d="M 81.813793 189.781607 
L 132.541065 194.223098 
L 183.268338 198.664589 
L 233.995611 203.10608 
L 284.722884 207.547571 
L 335.450156 211.989062 
L 386.177429 216.430553 
L 436.904702 220.872044 
L 487.631974 225.313535 
L 538.359247 229.755026 
L 589.08652 234.196516 
" clip-path="url(#p174847220a)" style="fill: none; stroke: #1a1a1a; stroke-opacity: 0.4; stroke-width: 1.5; stroke-linecap: round"/>
   </g>
   <g id="line2d_43">
    <path d="M 81.813793 179.093217 
L 132.541065 175.4406 
L 183.268338 171.787983 
L 233.995611 168.135366 
L 284.722884 164.482749 
L 335.450156 160.830132 
L 386.177429 157.177515 
L 436.904702 153.524898 
L 487.631974 149.872281 
L 538.359247 146.219664 
L 589.08652 142.567047 
" clip-path="url(#p174847220a)" style="fill: none; stroke: #1a1a1a; stroke-opacity: 0.4; stroke-width: 1.5; stroke-linecap: round"/>
   </g>
   <g id="line2d_44">
    <path d="M 81.813793 235.530354 
L 132.541065 229.551986 
L 183.268338 223.573618 
L 233.995611 217.59525 
L 284.722884 211.616882 
L 335.450156 205.638514 
L 386.177429 199.660146 
L 436.904702 193.681778 
L 487.631974 187.70341 
L 538.359247 181.725042 
L 589.08652 175.746674 
" clip-path="url(#p174847220a)" style="fill: none; stroke: #1a1a1a; stroke-opacity: 0.4; stroke-width: 1.5; stroke-linecap: round"/>
   </g>
   <g id="line2d_45">
    <path d="M 81.813793 172.190036 
L 132.541065 171.102444 
L 183.268338 170.014852 
L 233.995611 168.92726 
L 284.722884 167.839668 
L 335.450156 166.752075 
L 386.177429 165.664483 
L 436.904702 164.576891 
L 487.631974 163.489299 
L 538.359247 162.401707 
L 589.08652 161.314115 
" clip-path="url(#p174847220a)" style="fill: none; stroke: #1a1a1a; stroke-opacity: 0.4; stroke-width: 1.5; stroke-linecap: round"/>
   </g>
   <g id="line2d_46">
    <path d="M 81.813793 210.8957 
L 132.541065 210.245301 
L 183.268338 209.594902 
L 233.995611 208.944503 
L 284.722884 208.294104 
L 335.450156 207.643704 
L 386.177429 206.993305 
L 436.904702 206.342906 
L 487.631974 205.692507 
L 538.359247 205.042108 
L 589.08652 204.391709 
" clip-path="url(#p174847220a)" style="fill: none; stroke: #1a1a1a; stroke-opacity: 0.4; stroke-width: 1.5; stroke-linecap: round"/>
   </g>
   <g id="line2d_47">
    <path d="M 81.813793 127.231829 
L 132.541065 123.553413 
L 183.268338 119.874997 
L 233.995611 116.196581 
L 284.722884 112.518166 
L 335.450156 108.83975 
L 386.177429 105.161334 
L 436.904702 101.482918 
L 487.631974 97.804502 
L 538.359247 94.126086 
L 589.08652 90.447671 
" clip-path="url(#p174847220a)" style="fill: none; stroke: #1a1a1a; stroke-opacity: 0.4; stroke-width: 1.5; stroke-linecap: round"/>
   </g>
   <g id="line2d_48">
    <path d="M 81.813793 226.019254 
L 132.541065 222.27905 
L 183.268338 218.538845 
L 233.995611 214.79864 
L 284.722884 211.058436 
L 335.450156 207.318231 
L 386.177429 203.578026 
L 436.904702 199.837821 
L 487.631974 196.097617 
L 538.359247 192.357412 
L 589.08652 188.617207 
" clip-path="url(#p174847220a)" style="fill: none; stroke: #1a1a1a; stroke-opacity: 0.4; stroke-width: 1.5; stroke-linecap: round"/>
   </g>
   <g id="line2d_49">
    <path d="M 81.813793 158.258729 
L 132.541065 148.625985 
L 183.268338 138.993241 
L 233.995611 129.360496 
L 284.722884 119.727752 
L 335.450156 110.095008 
L 386.177429 100.462264 
L 436.904702 90.829519 
L 487.631974 81.196775 
L 538.359247 71.564031 
L 589.08652 61.931287 
" clip-path="url(#p174847220a)" style="fill: none; stroke: #1a1a1a; stroke-opacity: 0.4; stroke-width: 1.5; stroke-linecap: round"/>
   </g>
   <g id="line2d_50">
    <path d="M 81.813793 206.041461 
L 132.541065 192.553807 
L 183.268338 179.066153 
L 233.995611 165.5785 
L 284.722884 152.090846 
L 335.450156 138.603192 
L 386.177429 125.115538 
L 436.904702 111.627884 
L 487.631974 98.140231 
L 538.359247 84.652577 
L 589.08652 71.164923 
" clip-path="url(#p174847220a)" style="fill: none; stroke: #1a1a1a; stroke-opacity: 0.4; stroke-width: 1.5; stroke-linecap: round"/>
   </g>
   <g id="line2d_51">
    <path d="M 81.813793 205.385242 
L 132.541065 213.158459 
L 183.268338 220.931677 
L 233.995611 228.704895 
L 284.722884 236.478112 
L 335.450156 244.25133 
L 386.177429 252.024547 
L 436.904702 259.797765 
L 487.631974 267.570982 
L 538.359247 275.3442 
L 589.08652 283.117418 
" clip-path="url(#p174847220a)" style="fill: none; stroke: #1a1a1a; stroke-opacity: 0.4; stroke-width: 1.5; stroke-linecap: round"/>
   </g>
   <g id="line2d_52">
    <path d="M 81.813793 242.472751 
L 132.541065 252.156413 
L 183.268338 261.840076 
L 233.995611 271.523738 
L 284.722884 281.2074 
L 335.450156 290.891063 
L 386.177429 300.574725 
L 436.904702 310.258388 
L 487.631974 319.94205 
L 538.359247 329.625713 
L 589.08652 339.309375 
" clip-path="url(#p174847220a)" style="fill: none; stroke: #1a1a1a; stroke-opacity: 0.4; stroke-width: 1.5; stroke-linecap: round"/>
   </g>
   <g id="line2d_53">
    <path d="M 81.813793 206.682693 
L 132.541065 198.40745 
L 183.268338 190.132206 
L 233.995611 181.856963 
L 284.722884 173.581719 
L 335.450156 165.306476 
L 386.177429 157.031232 
L 436.904702 148.755989 
L 487.631974 140.480745 
L 538.359247 132.205502 
L 589.08652 123.930258 
" clip-path="url(#p174847220a)" style="fill: none; stroke: #1a1a1a; stroke-opacity: 0.4; stroke-width: 1.5; stroke-linecap: round"/>
   </g>
   <g id="line2d_54">
    <path d="M 81.813793 175.590745 
L 132.541065 168.264332 
L 183.268338 160.93792 
L 233.995611 153.611507 
L 284.722884 146.285095 
L 335.450156 138.958682 
L 386.177429 131.63227 
L 436.904702 124.305857 
L 487.631974 116.979445 
L 538.359247 109.653032 
L 589.08652 102.326619 
" clip-path="url(#p174847220a)" style="fill: none; stroke: #1a1a1a; stroke-opacity: 0.4; stroke-width: 1.5; stroke-linecap: round"/>
   </g>
   <g id="line2d_55">
    <path d="M 81.813793 182.637799 
L 132.541065 189.628043 
L 183.268338 196.618287 
L 233.995611 203.608531 
L 284.722884 210.598776 
L 335.450156 217.58902 
L 386.177429 224.579264 
L 436.904702 231.569508 
L 487.631974 238.559752 
L 538.359247 245.549996 
L 589.08652 252.54024 
" clip-path="url(#p174847220a)" style="fill: none; stroke: #1a1a1a; stroke-opacity: 0.4; stroke-width: 1.5; stroke-linecap: round"/>
   </g>
   <g id="line2d_56">
    <path d="M 81.813793 167.151366 
L 132.541065 156.366025 
L 183.268338 145.580684 
L 233.995611 134.795343 
L 284.722884 124.010001 
L 335.450156 113.22466 
L 386.177429 102.439319 
L 436.904702 91.653978 
L 487.631974 80.868637 
L 538.359247 70.083296 
L 589.08652 59.297955 
" clip-path="url(#p174847220a)" style="fill: none; stroke: #1a1a1a; stroke-opacity: 0.4; stroke-width: 1.5; stroke-linecap: round"/>
   </g>
   <g id="line2d_57">
    <path d="M 81.813793 188.821796 
L 132.541065 190.709878 
L 183.268338 192.59796 
L 233.995611 194.486042 
L 284.722884 196.374124 
L 335.450156 198.262206 
L 386.177429 200.150288 
L 436.904702 202.03837 
L 487.631974 203.926453 
L 538.359247 205.814535 
L 589.08652 207.702617 
" clip-path="url(#p174847220a)" style="fill: none; stroke: #1a1a1a; stroke-opacity: 0.4; stroke-width: 1.5; stroke-linecap: round"/>
   </g>
   <g id="line2d_58">
    <path d="M 81.813793 190.470037 
L 132.541065 187.783343 
L 183.268338 185.096649 
L 233.995611 182.409956 
L 284.722884 179.723262 
L 335.450156 177.036568 
L 386.177429 174.349875 
L 436.904702 171.663181 
L 487.631974 168.976488 
L 538.359247 166.289794 
L 589.08652 163.6031 
" clip-path="url(#p174847220a)" style="fill: none; stroke: #1a1a1a; stroke-opacity: 0.4; stroke-width: 1.5; stroke-linecap: round"/>
   </g>
   <g id="line2d_59">
    <path d="M 81.813793 147.885896 
L 132.541065 145.661844 
L 183.268338 143.437792 
L 233.995611 141.21374 
L 284.722884 138.989688 
L 335.450156 136.765636 
L 386.177429 134.541584 
L 436.904702 132.317532 
L 487.631974 130.09348 
L 538.359247 127.869428 
L 589.08652 125.645376 
" clip-path="url(#p174847220a)" style="fill: none; stroke: #1a1a1a; stroke-opacity: 0.4; stroke-width: 1.5; stroke-linecap: round"/>
   </g>
   <g id="line2d_60">
    <path d="M 81.813793 170.587906 
L 132.541065 159.993791 
L 183.268338 149.399677 
L 233.995611 138.805562 
L 284.722884 128.211448 
L 335.450156 117.617333 
L 386.177429 107.023219 
L 436.904702 96.429105 
L 487.631974 85.83499 
L 538.359247 75.240876 
L 589.08652 64.646761 
" clip-path="url(#p174847220a)" style="fill: none; stroke: #1a1a1a; stroke-opacity: 0.4; stroke-width: 1.5; stroke-linecap: round"/>
   </g>
   <g id="line2d_61">
    <path d="M 81.813793 139.823288 
L 132.541065 141.303976 
L 183.268338 142.784665 
L 233.995611 144.265354 
L 284.722884 145.746042 
L 335.450156 147.226731 
L 386.177429 148.70742 
L 436.904702 150.188109 
L 487.631974 151.668797 
L 538.359247 153.149486 
L 589.08652 154.630175 
" clip-path="url(#p174847220a)" style="fill: none; stroke: #1a1a1a; stroke-opacity: 0.4; stroke-width: 1.5; stroke-linecap: round"/>
   </g>
   <g id="line2d_62">
    <path d="M 81.813793 182.844042 
L 132.541065 190.728127 
L 183.268338 198.612211 
L 233.995611 206.496296 
L 284.722884 214.38038 
L 335.450156 222.264464 
L 386.177429 230.148549 
L 436.904702 238.032633 
L 487.631974 245.916717 
L 538.359247 253.800802 
L 589.08652 261.684886 
" clip-path="url(#p174847220a)" style="fill: none; stroke: #1a1a1a; stroke-opacity: 0.4; stroke-width: 1.5; stroke-linecap: round"/>
   </g>
   <g id="line2d_63">
    <path d="M 81.813793 176.649916 
L 132.541065 162.675862 
L 183.268338 148.701808 
L 233.995611 134.727754 
L 284.722884 120.753699 
L 335.450156 106.779645 
L 386.177429 92.805591 
L 436.904702 78.831537 
L 487.631974 64.857483 
L 538.359247 50.883429 
L 589.08652 36.909375 
" clip-path="url(#p174847220a)" style="fill: none; stroke: #1a1a1a; stroke-opacity: 0.4; stroke-width: 1.5; stroke-linecap: round"/>
   </g>
   <g id="line2d_64">
    <path d="M 81.813793 148.852761 
L 132.541065 155.539818 
L 183.268338 162.226875 
L 233.995611 168.913932 
L 284.722884 175.60099 
L 335.450156 182.288047 
L 386.177429 188.975104 
L 436.904702 195.662161 
L 487.631974 202.349218 
L 538.359247 209.036275 
L 589.08652 215.723332 
" clip-path="url(#p174847220a)" style="fill: none; stroke: #1a1a1a; stroke-opacity: 0.4; stroke-width: 1.5; stroke-linecap: round"/>
   </g>
   <g id="line2d_65">
    <path d="M 81.813793 227.641304 
L 132.541065 212.83333 
L 183.268338 198.025356 
L 233.995611 183.217381 
L 284.722884 168.409407 
L 335.450156 153.601433 
L 386.177429 138.793459 
L 436.904702 123.985485 
L 487.631974 109.177511 
L 538.359247 94.369537 
L 589.08652 79.561563 
" clip-path="url(#p174847220a)" style="fill: none; stroke: #1a1a1a; stroke-opacity: 0.4; stroke-width: 1.5; stroke-linecap: round"/>
   </g>
   <g id="patch_3">
    <path d="M 56.450156 354.429375 
L 56.450156 21.789375 
" style="fill: none; stroke: #ffffff; stroke-width: 1.25; stroke-linejoin: miter; stroke-linecap: square"/>
   </g>
   <g id="patch_4">
    <path d="M 614.450156 354.429375 
L 614.450156 21.789375 
" style="fill: none; stroke: #ffffff; stroke-width: 1.25; stroke-linejoin: miter; stroke-linecap: square"/>
   </g>
   <g id="patch_5">
    <path d="M 56.450156 354.429375 
L 614.450156 354.429375 
" style="fill: none; stroke: #ffffff; stroke-width: 1.25; stroke-linejoin: miter; stroke-linecap: square"/>
   </g>
   <g id="patch_6">
    <path d="M 56.450156 21.789375 
L 614.450156 21.789375 
" style="fill: none; stroke: #ffffff; stroke-width: 1.25; stroke-linejoin: miter; stroke-linecap: square"/>
   </g>
   <g id="text_18">
    <!-- Distribuzioni predittive a priori -->
    <g style="fill: #262626" transform="translate(256.757344 15.789375) scale(0.12 -0.12)">
     <defs>
      <path id="ArialMT-44" d="M 494 0 
L 494 4581 
L 2072 4581 
Q 2606 4581 2888 4516 
Q 3281 4425 3559 4188 
Q 3922 3881 4101 3404 
Q 4281 2928 4281 2316 
Q 4281 1794 4159 1391 
Q 4038 988 3847 723 
Q 3656 459 3429 307 
Q 3203 156 2883 78 
Q 2563 0 2147 0 
L 494 0 
z
M 1100 541 
L 2078 541 
Q 2531 541 2789 625 
Q 3047 709 3200 863 
Q 3416 1078 3536 1442 
Q 3656 1806 3656 2325 
Q 3656 3044 3420 3430 
Q 3184 3816 2847 3947 
Q 2603 4041 2063 4041 
L 1100 4041 
L 1100 541 
z
" transform="scale(0.015625)"/>
      <path id="ArialMT-62" d="M 941 0 
L 419 0 
L 419 4581 
L 981 4581 
L 981 2947 
Q 1338 3394 1891 3394 
Q 2197 3394 2470 3270 
Q 2744 3147 2920 2923 
Q 3097 2700 3197 2384 
Q 3297 2069 3297 1709 
Q 3297 856 2875 390 
Q 2453 -75 1863 -75 
Q 1275 -75 941 416 
L 941 0 
z
M 934 1684 
Q 934 1088 1097 822 
Q 1363 388 1816 388 
Q 2184 388 2453 708 
Q 2722 1028 2722 1663 
Q 2722 2313 2464 2622 
Q 2206 2931 1841 2931 
Q 1472 2931 1203 2611 
Q 934 2291 934 1684 
z
" transform="scale(0.015625)"/>
     </defs>
     <use xlink:href="#ArialMT-44"/>
     <use xlink:href="#ArialMT-69" x="72.216797"/>
     <use xlink:href="#ArialMT-73" x="94.433594"/>
     <use xlink:href="#ArialMT-74" x="144.433594"/>
     <use xlink:href="#ArialMT-72" x="172.216797"/>
     <use xlink:href="#ArialMT-69" x="205.517578"/>
     <use xlink:href="#ArialMT-62" x="227.734375"/>
     <use xlink:href="#ArialMT-75" x="283.349609"/>
     <use xlink:href="#ArialMT-7a" x="338.964844"/>
     <use xlink:href="#ArialMT-69" x="388.964844"/>
     <use xlink:href="#ArialMT-6f" x="411.181641"/>
     <use xlink:href="#ArialMT-6e" x="466.796875"/>
     <use xlink:href="#ArialMT-69" x="522.412109"/>
     <use xlink:href="#ArialMT-20" x="544.628906"/>
     <use xlink:href="#ArialMT-70" x="572.412109"/>
     <use xlink:href="#ArialMT-72" x="628.027344"/>
     <use xlink:href="#ArialMT-65" x="661.328125"/>
     <use xlink:href="#ArialMT-64" x="716.943359"/>
     <use xlink:href="#ArialMT-69" x="772.558594"/>
     <use xlink:href="#ArialMT-74" x="794.775391"/>
     <use xlink:href="#ArialMT-74" x="822.558594"/>
     <use xlink:href="#ArialMT-69" x="850.341797"/>
     <use xlink:href="#ArialMT-76" x="872.558594"/>
     <use xlink:href="#ArialMT-65" x="922.558594"/>
     <use xlink:href="#ArialMT-20" x="978.173828"/>
     <use xlink:href="#ArialMT-61" x="1005.957031"/>
     <use xlink:href="#ArialMT-20" x="1061.572266"/>
     <use xlink:href="#ArialMT-70" x="1089.355469"/>
     <use xlink:href="#ArialMT-72" x="1144.970703"/>
     <use xlink:href="#ArialMT-69" x="1178.271484"/>
     <use xlink:href="#ArialMT-6f" x="1200.488281"/>
     <use xlink:href="#ArialMT-72" x="1256.103516"/>
     <use xlink:href="#ArialMT-69" x="1289.404297"/>
    </g>
   </g>
  </g>
 </g>
 <defs>
  <clipPath id="p174847220a">
   <rect x="56.450156" y="21.789375" width="558" height="332.64"/>
  </clipPath>
 </defs>
</svg>