<?xml version="1.0" encoding="utf-8" standalone="no"?>
<!DOCTYPE svg PUBLIC "-//W3C//DTD SVG 1.1//EN"
  "http://www.w3.org/Graphics/SVG/1.1/DTD/svg11.dtd">
<svg xmlns:xlink="http://www.w3.org/1999/xlink" width="652.249531pt" height="366.599844pt" viewBox="0 0 652.249531 366.599844" xmlns="http://www.w3.org/2000/svg" version="1.1">
 <metadata>
  <rdf:RDF xmlns:dc="http://purl.org/dc/elements/1.1/" xmlns:cc="http://creativecommons.org/ns#" xmlns:rdf="http://www.w3.org/1999/02/22-rdf-syntax-ns#">
   <cc:Work>
    <dc:type rdf:resource="http://purl.org/dc/dcmitype/StillImage"/>
    <dc:date>2023-05-12T20:19:16.683063</dc:date>
    <dc:format>image/svg+xml</dc:format>
    <dc:creator>
     <cc:Agent>
      <dc:title>Matplotlib v3.7.1, https://matplotlib.org/</dc:title>
     </cc:Agent>
    </dc:creator>
   </cc:Work>
  </rdf:RDF>
 </metadata>
 <defs>
  <style type="text/css">*{stroke-linejoin: round; stroke-linecap: butt}</style>
 </defs>
 <g id="figure_1">
  <g id="patch_1">
   <path d="M 0 366.599844 
L 652.249531 366.599844 
L 652.249531 0 
L 0 0 
z
" style="fill: #ffffff"/>
  </g>
  <g id="axes_1">
   <g id="patch_2">
    <path d="M 50.025469 339.84 
L 608.025469 339.84 
L 608.025469 7.2 
L 50.025469 7.2 
z
" style="fill: #eaeaf2"/>
   </g>
   <g id="matplotlib.axis_1">
    <g id="xtick_1">
     <g id="line2d_1">
      <path d="M 98.658496 339.84 
L 98.658496 7.2 
" clip-path="url(#pcd34f1c03c)" style="fill: none; stroke: #ffffff; stroke-linecap: round"/>
     </g>
     <g id="text_1">
      <!-- 60 -->
      <g style="fill: #262626" transform="translate(92.541465 357.213594) scale(0.11 -0.11)">
       <defs>
        <path id="ArialMT-36" d="M 3184 3459 
L 2625 3416 
Q 2550 3747 2413 3897 
Q 2184 4138 1850 4138 
Q 1581 4138 1378 3988 
Q 1113 3794 959 3422 
Q 806 3050 800 2363 
Q 1003 2672 1297 2822 
Q 1591 2972 1913 2972 
Q 2475 2972 2870 2558 
Q 3266 2144 3266 1488 
Q 3266 1056 3080 686 
Q 2894 316 2569 119 
Q 2244 -78 1831 -78 
Q 1128 -78 684 439 
Q 241 956 241 2144 
Q 241 3472 731 4075 
Q 1159 4600 1884 4600 
Q 2425 4600 2770 4297 
Q 3116 3994 3184 3459 
z
M 888 1484 
Q 888 1194 1011 928 
Q 1134 663 1356 523 
Q 1578 384 1822 384 
Q 2178 384 2434 671 
Q 2691 959 2691 1453 
Q 2691 1928 2437 2201 
Q 2184 2475 1800 2475 
Q 1419 2475 1153 2201 
Q 888 1928 888 1484 
z
" transform="scale(0.015625)"/>
        <path id="ArialMT-30" d="M 266 2259 
Q 266 3072 433 3567 
Q 600 4063 929 4331 
Q 1259 4600 1759 4600 
Q 2128 4600 2406 4451 
Q 2684 4303 2865 4023 
Q 3047 3744 3150 3342 
Q 3253 2941 3253 2259 
Q 3253 1453 3087 958 
Q 2922 463 2592 192 
Q 2263 -78 1759 -78 
Q 1097 -78 719 397 
Q 266 969 266 2259 
z
M 844 2259 
Q 844 1131 1108 757 
Q 1372 384 1759 384 
Q 2147 384 2411 759 
Q 2675 1134 2675 2259 
Q 2675 3391 2411 3762 
Q 2147 4134 1753 4134 
Q 1366 4134 1134 3806 
Q 844 3388 844 2259 
z
" transform="scale(0.015625)"/>
       </defs>
       <use xlink:href="#ArialMT-36"/>
       <use xlink:href="#ArialMT-30" x="55.615234"/>
      </g>
     </g>
    </g>
    <g id="xtick_2">
     <g id="line2d_2">
      <path d="M 191.736061 339.84 
L 191.736061 7.2 
" clip-path="url(#pcd34f1c03c)" style="fill: none; stroke: #ffffff; stroke-linecap: round"/>
     </g>
     <g id="text_2">
      <!-- 80 -->
      <g style="fill: #262626" transform="translate(185.61903 357.213594) scale(0.11 -0.11)">
       <defs>
        <path id="ArialMT-38" d="M 1131 2484 
Q 781 2613 612 2850 
Q 444 3088 444 3419 
Q 444 3919 803 4259 
Q 1163 4600 1759 4600 
Q 2359 4600 2725 4251 
Q 3091 3903 3091 3403 
Q 3091 3084 2923 2848 
Q 2756 2613 2416 2484 
Q 2838 2347 3058 2040 
Q 3278 1734 3278 1309 
Q 3278 722 2862 322 
Q 2447 -78 1769 -78 
Q 1091 -78 675 323 
Q 259 725 259 1325 
Q 259 1772 486 2073 
Q 713 2375 1131 2484 
z
M 1019 3438 
Q 1019 3113 1228 2906 
Q 1438 2700 1772 2700 
Q 2097 2700 2305 2904 
Q 2513 3109 2513 3406 
Q 2513 3716 2298 3927 
Q 2084 4138 1766 4138 
Q 1444 4138 1231 3931 
Q 1019 3725 1019 3438 
z
M 838 1322 
Q 838 1081 952 856 
Q 1066 631 1291 507 
Q 1516 384 1775 384 
Q 2178 384 2440 643 
Q 2703 903 2703 1303 
Q 2703 1709 2433 1975 
Q 2163 2241 1756 2241 
Q 1359 2241 1098 1978 
Q 838 1716 838 1322 
z
" transform="scale(0.015625)"/>
       </defs>
       <use xlink:href="#ArialMT-38"/>
       <use xlink:href="#ArialMT-30" x="55.615234"/>
      </g>
     </g>
    </g>
    <g id="xtick_3">
     <g id="line2d_3">
      <path d="M 284.813626 339.84 
L 284.813626 7.2 
" clip-path="url(#pcd34f1c03c)" style="fill: none; stroke: #ffffff; stroke-linecap: round"/>
     </g>
     <g id="text_3">
      <!-- 100 -->
      <g style="fill: #262626" transform="translate(275.638079 357.213594) scale(0.11 -0.11)">
       <defs>
        <path id="ArialMT-31" d="M 2384 0 
L 1822 0 
L 1822 3584 
Q 1619 3391 1289 3197 
Q 959 3003 697 2906 
L 697 3450 
Q 1169 3672 1522 3987 
Q 1875 4303 2022 4600 
L 2384 4600 
L 2384 0 
z
" transform="scale(0.015625)"/>
       </defs>
       <use xlink:href="#ArialMT-31"/>
       <use xlink:href="#ArialMT-30" x="55.615234"/>
       <use xlink:href="#ArialMT-30" x="111.230469"/>
      </g>
     </g>
    </g>
    <g id="xtick_4">
     <g id="line2d_4">
      <path d="M 377.89119 339.84 
L 377.89119 7.2 
" clip-path="url(#pcd34f1c03c)" style="fill: none; stroke: #ffffff; stroke-linecap: round"/>
     </g>
     <g id="text_4">
      <!-- 120 -->
      <g style="fill: #262626" transform="translate(368.715643 357.213594) scale(0.11 -0.11)">
       <defs>
        <path id="ArialMT-32" d="M 3222 541 
L 3222 0 
L 194 0 
Q 188 203 259 391 
Q 375 700 629 1000 
Q 884 1300 1366 1694 
Q 2113 2306 2375 2664 
Q 2638 3022 2638 3341 
Q 2638 3675 2398 3904 
Q 2159 4134 1775 4134 
Q 1369 4134 1125 3890 
Q 881 3647 878 3216 
L 300 3275 
Q 359 3922 746 4261 
Q 1134 4600 1788 4600 
Q 2447 4600 2831 4234 
Q 3216 3869 3216 3328 
Q 3216 3053 3103 2787 
Q 2991 2522 2730 2228 
Q 2469 1934 1863 1422 
Q 1356 997 1212 845 
Q 1069 694 975 541 
L 3222 541 
z
" transform="scale(0.015625)"/>
       </defs>
       <use xlink:href="#ArialMT-31"/>
       <use xlink:href="#ArialMT-32" x="55.615234"/>
       <use xlink:href="#ArialMT-30" x="111.230469"/>
      </g>
     </g>
    </g>
    <g id="xtick_5">
     <g id="line2d_5">
      <path d="M 470.968755 339.84 
L 470.968755 7.2 
" clip-path="url(#pcd34f1c03c)" style="fill: none; stroke: #ffffff; stroke-linecap: round"/>
     </g>
     <g id="text_5">
      <!-- 140 -->
      <g style="fill: #262626" transform="translate(461.793208 357.213594) scale(0.11 -0.11)">
       <defs>
        <path id="ArialMT-34" d="M 2069 0 
L 2069 1097 
L 81 1097 
L 81 1613 
L 2172 4581 
L 2631 4581 
L 2631 1613 
L 3250 1613 
L 3250 1097 
L 2631 1097 
L 2631 0 
L 2069 0 
z
M 2069 1613 
L 2069 3678 
L 634 1613 
L 2069 1613 
z
" transform="scale(0.015625)"/>
       </defs>
       <use xlink:href="#ArialMT-31"/>
       <use xlink:href="#ArialMT-34" x="55.615234"/>
       <use xlink:href="#ArialMT-30" x="111.230469"/>
      </g>
     </g>
    </g>
    <g id="xtick_6">
     <g id="line2d_6">
      <path d="M 564.046319 339.84 
L 564.046319 7.2 
" clip-path="url(#pcd34f1c03c)" style="fill: none; stroke: #ffffff; stroke-linecap: round"/>
     </g>
     <g id="text_6">
      <!-- 160 -->
      <g style="fill: #262626" transform="translate(554.870773 357.213594) scale(0.11 -0.11)">
       <use xlink:href="#ArialMT-31"/>
       <use xlink:href="#ArialMT-36" x="55.615234"/>
       <use xlink:href="#ArialMT-30" x="111.230469"/>
      </g>
     </g>
    </g>
   </g>
   <g id="matplotlib.axis_2">
    <g id="ytick_1">
     <g id="line2d_7">
      <path d="M 50.025469 339.84 
L 608.025469 339.84 
" clip-path="url(#pcd34f1c03c)" style="fill: none; stroke: #ffffff; stroke-linecap: round"/>
     </g>
     <g id="line2d_8">
      <defs>
       <path id="m648cb5fad4" d="M 0 0 
L -6 0 
" style="stroke: #262626; stroke-width: 1.25"/>
      </defs>
      <g>
       <use xlink:href="#m648cb5fad4" x="50.025469" y="339.84" style="fill: #262626; stroke: #262626; stroke-width: 1.25"/>
      </g>
     </g>
     <g id="text_7">
      <!-- 0 -->
      <g style="fill: #262626" transform="translate(34.408438 343.776797) scale(0.11 -0.11)">
       <use xlink:href="#ArialMT-30"/>
      </g>
     </g>
    </g>
    <g id="ytick_2">
     <g id="line2d_9">
      <path d="M 50.025469 301.205854 
L 608.025469 301.205854 
" clip-path="url(#pcd34f1c03c)" style="fill: none; stroke: #ffffff; stroke-linecap: round"/>
     </g>
     <g id="line2d_10">
      <g>
       <use xlink:href="#m648cb5fad4" x="50.025469" y="301.205854" style="fill: #262626; stroke: #262626; stroke-width: 1.25"/>
      </g>
     </g>
     <g id="text_8">
      <!-- 100 -->
      <g style="fill: #262626" transform="translate(22.174375 305.142651) scale(0.11 -0.11)">
       <use xlink:href="#ArialMT-31"/>
       <use xlink:href="#ArialMT-30" x="55.615234"/>
       <use xlink:href="#ArialMT-30" x="111.230469"/>
      </g>
     </g>
    </g>
    <g id="ytick_3">
     <g id="line2d_11">
      <path d="M 50.025469 262.571707 
L 608.025469 262.571707 
" clip-path="url(#pcd34f1c03c)" style="fill: none; stroke: #ffffff; stroke-linecap: round"/>
     </g>
     <g id="line2d_12">
      <g>
       <use xlink:href="#m648cb5fad4" x="50.025469" y="262.571707" style="fill: #262626; stroke: #262626; stroke-width: 1.25"/>
      </g>
     </g>
     <g id="text_9">
      <!-- 200 -->
      <g style="fill: #262626" transform="translate(22.174375 266.508504) scale(0.11 -0.11)">
       <use xlink:href="#ArialMT-32"/>
       <use xlink:href="#ArialMT-30" x="55.615234"/>
       <use xlink:href="#ArialMT-30" x="111.230469"/>
      </g>
     </g>
    </g>
    <g id="ytick_4">
     <g id="line2d_13">
      <path d="M 50.025469 223.937561 
L 608.025469 223.937561 
" clip-path="url(#pcd34f1c03c)" style="fill: none; stroke: #ffffff; stroke-linecap: round"/>
     </g>
     <g id="line2d_14">
      <g>
       <use xlink:href="#m648cb5fad4" x="50.025469" y="223.937561" style="fill: #262626; stroke: #262626; stroke-width: 1.25"/>
      </g>
     </g>
     <g id="text_10">
      <!-- 300 -->
      <g style="fill: #262626" transform="translate(22.174375 227.874358) scale(0.11 -0.11)">
       <defs>
        <path id="ArialMT-33" d="M 269 1209 
L 831 1284 
Q 928 806 1161 595 
Q 1394 384 1728 384 
Q 2125 384 2398 659 
Q 2672 934 2672 1341 
Q 2672 1728 2419 1979 
Q 2166 2231 1775 2231 
Q 1616 2231 1378 2169 
L 1441 2663 
Q 1497 2656 1531 2656 
Q 1891 2656 2178 2843 
Q 2466 3031 2466 3422 
Q 2466 3731 2256 3934 
Q 2047 4138 1716 4138 
Q 1388 4138 1169 3931 
Q 950 3725 888 3313 
L 325 3413 
Q 428 3978 793 4289 
Q 1159 4600 1703 4600 
Q 2078 4600 2393 4439 
Q 2709 4278 2876 4000 
Q 3044 3722 3044 3409 
Q 3044 3113 2884 2869 
Q 2725 2625 2413 2481 
Q 2819 2388 3044 2092 
Q 3269 1797 3269 1353 
Q 3269 753 2831 336 
Q 2394 -81 1725 -81 
Q 1122 -81 723 278 
Q 325 638 269 1209 
z
" transform="scale(0.015625)"/>
       </defs>
       <use xlink:href="#ArialMT-33"/>
       <use xlink:href="#ArialMT-30" x="55.615234"/>
       <use xlink:href="#ArialMT-30" x="111.230469"/>
      </g>
     </g>
    </g>
    <g id="ytick_5">
     <g id="line2d_15">
      <path d="M 50.025469 185.303415 
L 608.025469 185.303415 
" clip-path="url(#pcd34f1c03c)" style="fill: none; stroke: #ffffff; stroke-linecap: round"/>
     </g>
     <g id="line2d_16">
      <g>
       <use xlink:href="#m648cb5fad4" x="50.025469" y="185.303415" style="fill: #262626; stroke: #262626; stroke-width: 1.25"/>
      </g>
     </g>
     <g id="text_11">
      <!-- 400 -->
      <g style="fill: #262626" transform="translate(22.174375 189.240212) scale(0.11 -0.11)">
       <use xlink:href="#ArialMT-34"/>
       <use xlink:href="#ArialMT-30" x="55.615234"/>
       <use xlink:href="#ArialMT-30" x="111.230469"/>
      </g>
     </g>
    </g>
    <g id="ytick_6">
     <g id="line2d_17">
      <path d="M 50.025469 146.669268 
L 608.025469 146.669268 
" clip-path="url(#pcd34f1c03c)" style="fill: none; stroke: #ffffff; stroke-linecap: round"/>
     </g>
     <g id="line2d_18">
      <g>
       <use xlink:href="#m648cb5fad4" x="50.025469" y="146.669268" style="fill: #262626; stroke: #262626; stroke-width: 1.25"/>
      </g>
     </g>
     <g id="text_12">
      <!-- 500 -->
      <g style="fill: #262626" transform="translate(22.174375 150.606065) scale(0.11 -0.11)">
       <defs>
        <path id="ArialMT-35" d="M 266 1200 
L 856 1250 
Q 922 819 1161 601 
Q 1400 384 1738 384 
Q 2144 384 2425 690 
Q 2706 997 2706 1503 
Q 2706 1984 2436 2262 
Q 2166 2541 1728 2541 
Q 1456 2541 1237 2417 
Q 1019 2294 894 2097 
L 366 2166 
L 809 4519 
L 3088 4519 
L 3088 3981 
L 1259 3981 
L 1013 2750 
Q 1425 3038 1878 3038 
Q 2478 3038 2890 2622 
Q 3303 2206 3303 1553 
Q 3303 931 2941 478 
Q 2500 -78 1738 -78 
Q 1113 -78 717 272 
Q 322 622 266 1200 
z
" transform="scale(0.015625)"/>
       </defs>
       <use xlink:href="#ArialMT-35"/>
       <use xlink:href="#ArialMT-30" x="55.615234"/>
       <use xlink:href="#ArialMT-30" x="111.230469"/>
      </g>
     </g>
    </g>
    <g id="ytick_7">
     <g id="line2d_19">
      <path d="M 50.025469 108.035122 
L 608.025469 108.035122 
" clip-path="url(#pcd34f1c03c)" style="fill: none; stroke: #ffffff; stroke-linecap: round"/>
     </g>
     <g id="line2d_20">
      <g>
       <use xlink:href="#m648cb5fad4" x="50.025469" y="108.035122" style="fill: #262626; stroke: #262626; stroke-width: 1.25"/>
      </g>
     </g>
     <g id="text_13">
      <!-- 600 -->
      <g style="fill: #262626" transform="translate(22.174375 111.971919) scale(0.11 -0.11)">
       <use xlink:href="#ArialMT-36"/>
       <use xlink:href="#ArialMT-30" x="55.615234"/>
       <use xlink:href="#ArialMT-30" x="111.230469"/>
      </g>
     </g>
    </g>
    <g id="ytick_8">
     <g id="line2d_21">
      <path d="M 50.025469 69.400976 
L 608.025469 69.400976 
" clip-path="url(#pcd34f1c03c)" style="fill: none; stroke: #ffffff; stroke-linecap: round"/>
     </g>
     <g id="line2d_22">
      <g>
       <use xlink:href="#m648cb5fad4" x="50.025469" y="69.400976" style="fill: #262626; stroke: #262626; stroke-width: 1.25"/>
      </g>
     </g>
     <g id="text_14">
      <!-- 700 -->
      <g style="fill: #262626" transform="translate(22.174375 73.337772) scale(0.11 -0.11)">
       <defs>
        <path id="ArialMT-37" d="M 303 3981 
L 303 4522 
L 3269 4522 
L 3269 4084 
Q 2831 3619 2401 2847 
Q 1972 2075 1738 1259 
Q 1569 684 1522 0 
L 944 0 
Q 953 541 1156 1306 
Q 1359 2072 1739 2783 
Q 2119 3494 2547 3981 
L 303 3981 
z
" transform="scale(0.015625)"/>
       </defs>
       <use xlink:href="#ArialMT-37"/>
       <use xlink:href="#ArialMT-30" x="55.615234"/>
       <use xlink:href="#ArialMT-30" x="111.230469"/>
      </g>
     </g>
    </g>
    <g id="ytick_9">
     <g id="line2d_23">
      <path d="M 50.025469 30.766829 
L 608.025469 30.766829 
" clip-path="url(#pcd34f1c03c)" style="fill: none; stroke: #ffffff; stroke-linecap: round"/>
     </g>
     <g id="line2d_24">
      <g>
       <use xlink:href="#m648cb5fad4" x="50.025469" y="30.766829" style="fill: #262626; stroke: #262626; stroke-width: 1.25"/>
      </g>
     </g>
     <g id="text_15">
      <!-- 800 -->
      <g style="fill: #262626" transform="translate(22.174375 34.703626) scale(0.11 -0.11)">
       <use xlink:href="#ArialMT-38"/>
       <use xlink:href="#ArialMT-30" x="55.615234"/>
       <use xlink:href="#ArialMT-30" x="111.230469"/>
      </g>
     </g>
    </g>
    <g id="text_16">
     <!-- Count -->
     <g style="fill: #262626" transform="translate(15.789375 189.529688) rotate(-90) scale(0.12 -0.12)">
      <defs>
       <path id="ArialMT-43" d="M 3763 1606 
L 4369 1453 
Q 4178 706 3683 314 
Q 3188 -78 2472 -78 
Q 1731 -78 1267 223 
Q 803 525 561 1097 
Q 319 1669 319 2325 
Q 319 3041 592 3573 
Q 866 4106 1370 4382 
Q 1875 4659 2481 4659 
Q 3169 4659 3637 4309 
Q 4106 3959 4291 3325 
L 3694 3184 
Q 3534 3684 3231 3912 
Q 2928 4141 2469 4141 
Q 1941 4141 1586 3887 
Q 1231 3634 1087 3207 
Q 944 2781 944 2328 
Q 944 1744 1114 1308 
Q 1284 872 1643 656 
Q 2003 441 2422 441 
Q 2931 441 3284 734 
Q 3638 1028 3763 1606 
z
" transform="scale(0.015625)"/>
       <path id="ArialMT-6f" d="M 213 1659 
Q 213 2581 725 3025 
Q 1153 3394 1769 3394 
Q 2453 3394 2887 2945 
Q 3322 2497 3322 1706 
Q 3322 1066 3130 698 
Q 2938 331 2570 128 
Q 2203 -75 1769 -75 
Q 1072 -75 642 372 
Q 213 819 213 1659 
z
M 791 1659 
Q 791 1022 1069 705 
Q 1347 388 1769 388 
Q 2188 388 2466 706 
Q 2744 1025 2744 1678 
Q 2744 2294 2464 2611 
Q 2184 2928 1769 2928 
Q 1347 2928 1069 2612 
Q 791 2297 791 1659 
z
" transform="scale(0.015625)"/>
       <path id="ArialMT-75" d="M 2597 0 
L 2597 488 
Q 2209 -75 1544 -75 
Q 1250 -75 995 37 
Q 741 150 617 320 
Q 494 491 444 738 
Q 409 903 409 1263 
L 409 3319 
L 972 3319 
L 972 1478 
Q 972 1038 1006 884 
Q 1059 663 1231 536 
Q 1403 409 1656 409 
Q 1909 409 2131 539 
Q 2353 669 2445 892 
Q 2538 1116 2538 1541 
L 2538 3319 
L 3100 3319 
L 3100 0 
L 2597 0 
z
" transform="scale(0.015625)"/>
       <path id="ArialMT-6e" d="M 422 0 
L 422 3319 
L 928 3319 
L 928 2847 
Q 1294 3394 1984 3394 
Q 2284 3394 2536 3286 
Q 2788 3178 2913 3003 
Q 3038 2828 3088 2588 
Q 3119 2431 3119 2041 
L 3119 0 
L 2556 0 
L 2556 2019 
Q 2556 2363 2490 2533 
Q 2425 2703 2258 2804 
Q 2091 2906 1866 2906 
Q 1506 2906 1245 2678 
Q 984 2450 984 1813 
L 984 0 
L 422 0 
z
" transform="scale(0.015625)"/>
       <path id="ArialMT-74" d="M 1650 503 
L 1731 6 
Q 1494 -44 1306 -44 
Q 1000 -44 831 53 
Q 663 150 594 308 
Q 525 466 525 972 
L 525 2881 
L 113 2881 
L 113 3319 
L 525 3319 
L 525 4141 
L 1084 4478 
L 1084 3319 
L 1650 3319 
L 1650 2881 
L 1084 2881 
L 1084 941 
Q 1084 700 1114 631 
Q 1144 563 1211 522 
Q 1278 481 1403 481 
Q 1497 481 1650 503 
z
" transform="scale(0.015625)"/>
      </defs>
      <use xlink:href="#ArialMT-43"/>
      <use xlink:href="#ArialMT-6f" x="72.216797"/>
      <use xlink:href="#ArialMT-75" x="127.832031"/>
      <use xlink:href="#ArialMT-6e" x="183.447266"/>
      <use xlink:href="#ArialMT-74" x="239.0625"/>
     </g>
    </g>
   </g>
   <g id="patch_3">
    <path d="M 210.351574 339.84 
L 215.908443 339.84 
L 215.908443 338.680976 
L 210.351574 338.680976 
z
" clip-path="url(#pcd34f1c03c)" style="fill: #0173b2; fill-opacity: 0.75; stroke: #ffffff; stroke-width: 0.757123; stroke-linejoin: miter"/>
   </g>
   <g id="patch_4">
    <path d="M 215.908443 339.84 
L 221.465313 339.84 
L 221.465313 339.84 
L 215.908443 339.84 
z
" clip-path="url(#pcd34f1c03c)" style="fill: #0173b2; fill-opacity: 0.75; stroke: #ffffff; stroke-width: 0.757123; stroke-linejoin: miter"/>
   </g>
   <g id="patch_5">
    <path d="M 221.465313 339.84 
L 227.022182 339.84 
L 227.022182 339.453659 
L 221.465313 339.453659 
z
" clip-path="url(#pcd34f1c03c)" style="fill: #0173b2; fill-opacity: 0.75; stroke: #ffffff; stroke-width: 0.757123; stroke-linejoin: miter"/>
   </g>
   <g id="patch_6">
    <path d="M 227.022182 339.84 
L 232.579052 339.84 
L 232.579052 339.453659 
L 227.022182 339.453659 
z
" clip-path="url(#pcd34f1c03c)" style="fill: #0173b2; fill-opacity: 0.75; stroke: #ffffff; stroke-width: 0.757123; stroke-linejoin: miter"/>
   </g>
   <g id="patch_7">
    <path d="M 232.579052 339.84 
L 238.135921 339.84 
L 238.135921 337.13561 
L 232.579052 337.13561 
z
" clip-path="url(#pcd34f1c03c)" style="fill: #0173b2; fill-opacity: 0.75; stroke: #ffffff; stroke-width: 0.757123; stroke-linejoin: miter"/>
   </g>
   <g id="patch_8">
    <path d="M 238.135921 339.84 
L 243.692791 339.84 
L 243.692791 334.43122 
L 238.135921 334.43122 
z
" clip-path="url(#pcd34f1c03c)" style="fill: #0173b2; fill-opacity: 0.75; stroke: #ffffff; stroke-width: 0.757123; stroke-linejoin: miter"/>
   </g>
   <g id="patch_9">
    <path d="M 243.692791 339.84 
L 249.249661 339.84 
L 249.249661 334.43122 
L 243.692791 334.43122 
z
" clip-path="url(#pcd34f1c03c)" style="fill: #0173b2; fill-opacity: 0.75; stroke: #ffffff; stroke-width: 0.757123; stroke-linejoin: miter"/>
   </g>
   <g id="patch_10">
    <path d="M 249.249661 339.84 
L 254.80653 339.84 
L 254.80653 332.499512 
L 249.249661 332.499512 
z
" clip-path="url(#pcd34f1c03c)" style="fill: #0173b2; fill-opacity: 0.75; stroke: #ffffff; stroke-width: 0.757123; stroke-linejoin: miter"/>
   </g>
   <g id="patch_11">
    <path d="M 254.80653 339.84 
L 260.3634 339.84 
L 260.3634 333.272195 
L 254.80653 333.272195 
z
" clip-path="url(#pcd34f1c03c)" style="fill: #0173b2; fill-opacity: 0.75; stroke: #ffffff; stroke-width: 0.757123; stroke-linejoin: miter"/>
   </g>
   <g id="patch_12">
    <path d="M 260.3634 339.84 
L 265.920269 339.84 
L 265.920269 329.022439 
L 260.3634 329.022439 
z
" clip-path="url(#pcd34f1c03c)" style="fill: #0173b2; fill-opacity: 0.75; stroke: #ffffff; stroke-width: 0.757123; stroke-linejoin: miter"/>
   </g>
   <g id="patch_13">
    <path d="M 265.920269 339.84 
L 271.477139 339.84 
L 271.477139 311.637073 
L 265.920269 311.637073 
z
" clip-path="url(#pcd34f1c03c)" style="fill: #0173b2; fill-opacity: 0.75; stroke: #ffffff; stroke-width: 0.757123; stroke-linejoin: miter"/>
   </g>
   <g id="patch_14">
    <path d="M 271.477139 339.84 
L 277.034008 339.84 
L 277.034008 318.59122 
L 271.477139 318.59122 
z
" clip-path="url(#pcd34f1c03c)" style="fill: #0173b2; fill-opacity: 0.75; stroke: #ffffff; stroke-width: 0.757123; stroke-linejoin: miter"/>
   </g>
   <g id="patch_15">
    <path d="M 277.034008 339.84 
L 282.590878 339.84 
L 282.590878 311.637073 
L 277.034008 311.637073 
z
" clip-path="url(#pcd34f1c03c)" style="fill: #0173b2; fill-opacity: 0.75; stroke: #ffffff; stroke-width: 0.757123; stroke-linejoin: miter"/>
   </g>
   <g id="patch_16">
    <path d="M 282.590878 339.84 
L 288.147747 339.84 
L 288.147747 303.523902 
L 282.590878 303.523902 
z
" clip-path="url(#pcd34f1c03c)" style="fill: #0173b2; fill-opacity: 0.75; stroke: #ffffff; stroke-width: 0.757123; stroke-linejoin: miter"/>
   </g>
   <g id="patch_17">
    <path d="M 288.147747 339.84 
L 293.704617 339.84 
L 293.704617 300.819512 
L 288.147747 300.819512 
z
" clip-path="url(#pcd34f1c03c)" style="fill: #0173b2; fill-opacity: 0.75; stroke: #ffffff; stroke-width: 0.757123; stroke-linejoin: miter"/>
   </g>
   <g id="patch_18">
    <path d="M 293.704617 339.84 
L 299.261486 339.84 
L 299.261486 228.187317 
L 293.704617 228.187317 
z
" clip-path="url(#pcd34f1c03c)" style="fill: #0173b2; fill-opacity: 0.75; stroke: #ffffff; stroke-width: 0.757123; stroke-linejoin: miter"/>
   </g>
   <g id="patch_19">
    <path d="M 299.261486 339.84 
L 304.818356 339.84 
L 304.818356 260.253659 
L 299.261486 260.253659 
z
" clip-path="url(#pcd34f1c03c)" style="fill: #0173b2; fill-opacity: 0.75; stroke: #ffffff; stroke-width: 0.757123; stroke-linejoin: miter"/>
   </g>
   <g id="patch_20">
    <path d="M 304.818356 339.84 
L 310.375225 339.84 
L 310.375225 258.708293 
L 304.818356 258.708293 
z
" clip-path="url(#pcd34f1c03c)" style="fill: #0173b2; fill-opacity: 0.75; stroke: #ffffff; stroke-width: 0.757123; stroke-linejoin: miter"/>
   </g>
   <g id="patch_21">
    <path d="M 310.375225 339.84 
L 315.932095 339.84 
L 315.932095 252.140488 
L 310.375225 252.140488 
z
" clip-path="url(#pcd34f1c03c)" style="fill: #0173b2; fill-opacity: 0.75; stroke: #ffffff; stroke-width: 0.757123; stroke-linejoin: miter"/>
   </g>
   <g id="patch_22">
    <path d="M 315.932095 339.84 
L 321.488964 339.84 
L 321.488964 233.982439 
L 315.932095 233.982439 
z
" clip-path="url(#pcd34f1c03c)" style="fill: #0173b2; fill-opacity: 0.75; stroke: #ffffff; stroke-width: 0.757123; stroke-linejoin: miter"/>
   </g>
   <g id="patch_23">
    <path d="M 321.488964 339.84 
L 327.045834 339.84 
L 327.045834 106.876098 
L 321.488964 106.876098 
z
" clip-path="url(#pcd34f1c03c)" style="fill: #0173b2; fill-opacity: 0.75; stroke: #ffffff; stroke-width: 0.757123; stroke-linejoin: miter"/>
   </g>
   <g id="patch_24">
    <path d="M 327.045834 339.84 
L 332.602704 339.84 
L 332.602704 214.279024 
L 327.045834 214.279024 
z
" clip-path="url(#pcd34f1c03c)" style="fill: #0173b2; fill-opacity: 0.75; stroke: #ffffff; stroke-width: 0.757123; stroke-linejoin: miter"/>
   </g>
   <g id="patch_25">
    <path d="M 332.602704 339.84 
L 338.159573 339.84 
L 338.159573 203.075122 
L 332.602704 203.075122 
z
" clip-path="url(#pcd34f1c03c)" style="fill: #0173b2; fill-opacity: 0.75; stroke: #ffffff; stroke-width: 0.757123; stroke-linejoin: miter"/>
   </g>
   <g id="patch_26">
    <path d="M 338.159573 339.84 
L 343.716443 339.84 
L 343.716443 192.643902 
L 338.159573 192.643902 
z
" clip-path="url(#pcd34f1c03c)" style="fill: #0173b2; fill-opacity: 0.75; stroke: #ffffff; stroke-width: 0.757123; stroke-linejoin: miter"/>
   </g>
   <g id="patch_27">
    <path d="M 343.716443 339.84 
L 349.273312 339.84 
L 349.273312 180.280976 
L 343.716443 180.280976 
z
" clip-path="url(#pcd34f1c03c)" style="fill: #0173b2; fill-opacity: 0.75; stroke: #ffffff; stroke-width: 0.757123; stroke-linejoin: miter"/>
   </g>
   <g id="patch_28">
    <path d="M 349.273312 339.84 
L 354.830182 339.84 
L 354.830182 23.04 
L 349.273312 23.04 
z
" clip-path="url(#pcd34f1c03c)" style="fill: #0173b2; fill-opacity: 0.75; stroke: #ffffff; stroke-width: 0.757123; stroke-linejoin: miter"/>
   </g>
   <g id="patch_29">
    <path d="M 354.830182 339.84 
L 360.387051 339.84 
L 360.387051 174.485854 
L 354.830182 174.485854 
z
" clip-path="url(#pcd34f1c03c)" style="fill: #0173b2; fill-opacity: 0.75; stroke: #ffffff; stroke-width: 0.757123; stroke-linejoin: miter"/>
   </g>
   <g id="patch_30">
    <path d="M 360.387051 339.84 
L 365.943921 339.84 
L 365.943921 183.758049 
L 360.387051 183.758049 
z
" clip-path="url(#pcd34f1c03c)" style="fill: #0173b2; fill-opacity: 0.75; stroke: #ffffff; stroke-width: 0.757123; stroke-linejoin: miter"/>
   </g>
   <g id="patch_31">
    <path d="M 365.943921 339.84 
L 371.50079 339.84 
L 371.50079 196.893659 
L 365.943921 196.893659 
z
" clip-path="url(#pcd34f1c03c)" style="fill: #0173b2; fill-opacity: 0.75; stroke: #ffffff; stroke-width: 0.757123; stroke-linejoin: miter"/>
   </g>
   <g id="patch_32">
    <path d="M 371.50079 339.84 
L 377.05766 339.84 
L 377.05766 192.257561 
L 371.50079 192.257561 
z
" clip-path="url(#pcd34f1c03c)" style="fill: #0173b2; fill-opacity: 0.75; stroke: #ffffff; stroke-width: 0.757123; stroke-linejoin: miter"/>
   </g>
   <g id="patch_33">
    <path d="M 377.05766 339.84 
L 382.614529 339.84 
L 382.614529 68.241951 
L 377.05766 68.241951 
z
" clip-path="url(#pcd34f1c03c)" style="fill: #0173b2; fill-opacity: 0.75; stroke: #ffffff; stroke-width: 0.757123; stroke-linejoin: miter"/>
   </g>
   <g id="patch_34">
    <path d="M 382.614529 339.84 
L 388.171399 339.84 
L 388.171399 213.892683 
L 382.614529 213.892683 
z
" clip-path="url(#pcd34f1c03c)" style="fill: #0173b2; fill-opacity: 0.75; stroke: #ffffff; stroke-width: 0.757123; stroke-linejoin: miter"/>
   </g>
   <g id="patch_35">
    <path d="M 388.171399 339.84 
L 393.728268 339.84 
L 393.728268 222.392195 
L 388.171399 222.392195 
z
" clip-path="url(#pcd34f1c03c)" style="fill: #0173b2; fill-opacity: 0.75; stroke: #ffffff; stroke-width: 0.757123; stroke-linejoin: miter"/>
   </g>
   <g id="patch_36">
    <path d="M 393.728268 339.84 
L 399.285138 339.84 
L 399.285138 224.323902 
L 393.728268 224.323902 
z
" clip-path="url(#pcd34f1c03c)" style="fill: #0173b2; fill-opacity: 0.75; stroke: #ffffff; stroke-width: 0.757123; stroke-linejoin: miter"/>
   </g>
   <g id="patch_37">
    <path d="M 399.285138 339.84 
L 404.842007 339.84 
L 404.842007 244.413659 
L 399.285138 244.413659 
z
" clip-path="url(#pcd34f1c03c)" style="fill: #0173b2; fill-opacity: 0.75; stroke: #ffffff; stroke-width: 0.757123; stroke-linejoin: miter"/>
   </g>
   <g id="patch_38">
    <path d="M 404.842007 339.84 
L 410.398877 339.84 
L 410.398877 249.822439 
L 404.842007 249.822439 
z
" clip-path="url(#pcd34f1c03c)" style="fill: #0173b2; fill-opacity: 0.75; stroke: #ffffff; stroke-width: 0.757123; stroke-linejoin: miter"/>
   </g>
   <g id="patch_39">
    <path d="M 410.398877 339.84 
L 415.955746 339.84 
L 415.955746 170.236098 
L 410.398877 170.236098 
z
" clip-path="url(#pcd34f1c03c)" style="fill: #0173b2; fill-opacity: 0.75; stroke: #ffffff; stroke-width: 0.757123; stroke-linejoin: miter"/>
   </g>
   <g id="patch_40">
    <path d="M 415.955746 339.84 
L 421.512616 339.84 
L 421.512616 279.570732 
L 415.955746 279.570732 
z
" clip-path="url(#pcd34f1c03c)" style="fill: #0173b2; fill-opacity: 0.75; stroke: #ffffff; stroke-width: 0.757123; stroke-linejoin: miter"/>
   </g>
   <g id="patch_41">
    <path d="M 421.512616 339.84 
L 427.069486 339.84 
L 427.069486 285.365854 
L 421.512616 285.365854 
z
" clip-path="url(#pcd34f1c03c)" style="fill: #0173b2; fill-opacity: 0.75; stroke: #ffffff; stroke-width: 0.757123; stroke-linejoin: miter"/>
   </g>
   <g id="patch_42">
    <path d="M 427.069486 339.84 
L 432.626355 339.84 
L 432.626355 277.252683 
L 427.069486 277.252683 
z
" clip-path="url(#pcd34f1c03c)" style="fill: #0173b2; fill-opacity: 0.75; stroke: #ffffff; stroke-width: 0.757123; stroke-linejoin: miter"/>
   </g>
   <g id="patch_43">
    <path d="M 432.626355 339.84 
L 438.183225 339.84 
L 438.183225 296.956098 
L 432.626355 296.956098 
z
" clip-path="url(#pcd34f1c03c)" style="fill: #0173b2; fill-opacity: 0.75; stroke: #ffffff; stroke-width: 0.757123; stroke-linejoin: miter"/>
   </g>
   <g id="patch_44">
    <path d="M 438.183225 339.84 
L 443.740094 339.84 
L 443.740094 256.776585 
L 438.183225 256.776585 
z
" clip-path="url(#pcd34f1c03c)" style="fill: #0173b2; fill-opacity: 0.75; stroke: #ffffff; stroke-width: 0.757123; stroke-linejoin: miter"/>
   </g>
   <g id="patch_45">
    <path d="M 443.740094 339.84 
L 449.296964 339.84 
L 449.296964 313.955122 
L 443.740094 313.955122 
z
" clip-path="url(#pcd34f1c03c)" style="fill: #0173b2; fill-opacity: 0.75; stroke: #ffffff; stroke-width: 0.757123; stroke-linejoin: miter"/>
   </g>
   <g id="patch_46">
    <path d="M 449.296964 339.84 
L 454.853833 339.84 
L 454.853833 310.478049 
L 449.296964 310.478049 
z
" clip-path="url(#pcd34f1c03c)" style="fill: #0173b2; fill-opacity: 0.75; stroke: #ffffff; stroke-width: 0.757123; stroke-linejoin: miter"/>
   </g>
   <g id="patch_47">
    <path d="M 454.853833 339.84 
L 460.410703 339.84 
L 460.410703 318.204878 
L 454.853833 318.204878 
z
" clip-path="url(#pcd34f1c03c)" style="fill: #0173b2; fill-opacity: 0.75; stroke: #ffffff; stroke-width: 0.757123; stroke-linejoin: miter"/>
   </g>
   <g id="patch_48">
    <path d="M 460.410703 339.84 
L 465.967572 339.84 
L 465.967572 323.227317 
L 460.410703 323.227317 
z
" clip-path="url(#pcd34f1c03c)" style="fill: #0173b2; fill-opacity: 0.75; stroke: #ffffff; stroke-width: 0.757123; stroke-linejoin: miter"/>
   </g>
   <g id="patch_49">
    <path d="M 465.967572 339.84 
L 471.524442 339.84 
L 471.524442 315.114146 
L 465.967572 315.114146 
z
" clip-path="url(#pcd34f1c03c)" style="fill: #0173b2; fill-opacity: 0.75; stroke: #ffffff; stroke-width: 0.757123; stroke-linejoin: miter"/>
   </g>
   <g id="patch_50">
    <path d="M 471.524442 339.84 
L 477.081311 339.84 
L 477.081311 329.795122 
L 471.524442 329.795122 
z
" clip-path="url(#pcd34f1c03c)" style="fill: #0173b2; fill-opacity: 0.75; stroke: #ffffff; stroke-width: 0.757123; stroke-linejoin: miter"/>
   </g>
   <g id="patch_51">
    <path d="M 477.081311 339.84 
L 482.638181 339.84 
L 482.638181 332.499512 
L 477.081311 332.499512 
z
" clip-path="url(#pcd34f1c03c)" style="fill: #0173b2; fill-opacity: 0.75; stroke: #ffffff; stroke-width: 0.757123; stroke-linejoin: miter"/>
   </g>
   <g id="patch_52">
    <path d="M 482.638181 339.84 
L 488.19505 339.84 
L 488.19505 330.954146 
L 482.638181 330.954146 
z
" clip-path="url(#pcd34f1c03c)" style="fill: #0173b2; fill-opacity: 0.75; stroke: #ffffff; stroke-width: 0.757123; stroke-linejoin: miter"/>
   </g>
   <g id="patch_53">
    <path d="M 488.19505 339.84 
L 493.75192 339.84 
L 493.75192 333.272195 
L 488.19505 333.272195 
z
" clip-path="url(#pcd34f1c03c)" style="fill: #0173b2; fill-opacity: 0.75; stroke: #ffffff; stroke-width: 0.757123; stroke-linejoin: miter"/>
   </g>
   <g id="patch_54">
    <path d="M 493.75192 339.84 
L 499.308789 339.84 
L 499.308789 324.772683 
L 493.75192 324.772683 
z
" clip-path="url(#pcd34f1c03c)" style="fill: #0173b2; fill-opacity: 0.75; stroke: #ffffff; stroke-width: 0.757123; stroke-linejoin: miter"/>
   </g>
   <g id="patch_55">
    <path d="M 499.308789 339.84 
L 504.865659 339.84 
L 504.865659 334.044878 
L 499.308789 334.044878 
z
" clip-path="url(#pcd34f1c03c)" style="fill: #0173b2; fill-opacity: 0.75; stroke: #ffffff; stroke-width: 0.757123; stroke-linejoin: miter"/>
   </g>
   <g id="patch_56">
    <path d="M 504.865659 339.84 
L 510.422528 339.84 
L 510.422528 337.13561 
L 504.865659 337.13561 
z
" clip-path="url(#pcd34f1c03c)" style="fill: #0173b2; fill-opacity: 0.75; stroke: #ffffff; stroke-width: 0.757123; stroke-linejoin: miter"/>
   </g>
   <g id="patch_57">
    <path d="M 510.422528 339.84 
L 515.979398 339.84 
L 515.979398 337.13561 
L 510.422528 337.13561 
z
" clip-path="url(#pcd34f1c03c)" style="fill: #0173b2; fill-opacity: 0.75; stroke: #ffffff; stroke-width: 0.757123; stroke-linejoin: miter"/>
   </g>
   <g id="patch_58">
    <path d="M 515.979398 339.84 
L 521.536268 339.84 
L 521.536268 337.908293 
L 515.979398 337.908293 
z
" clip-path="url(#pcd34f1c03c)" style="fill: #0173b2; fill-opacity: 0.75; stroke: #ffffff; stroke-width: 0.757123; stroke-linejoin: miter"/>
   </g>
   <g id="patch_59">
    <path d="M 521.536268 339.84 
L 527.093137 339.84 
L 527.093137 337.13561 
L 521.536268 337.13561 
z
" clip-path="url(#pcd34f1c03c)" style="fill: #0173b2; fill-opacity: 0.75; stroke: #ffffff; stroke-width: 0.757123; stroke-linejoin: miter"/>
   </g>
   <g id="patch_60">
    <path d="M 527.093137 339.84 
L 532.650007 339.84 
L 532.650007 339.453659 
L 527.093137 339.453659 
z
" clip-path="url(#pcd34f1c03c)" style="fill: #0173b2; fill-opacity: 0.75; stroke: #ffffff; stroke-width: 0.757123; stroke-linejoin: miter"/>
   </g>
   <g id="patch_61">
    <path d="M 532.650007 339.84 
L 538.206876 339.84 
L 538.206876 339.453659 
L 532.650007 339.453659 
z
" clip-path="url(#pcd34f1c03c)" style="fill: #0173b2; fill-opacity: 0.75; stroke: #ffffff; stroke-width: 0.757123; stroke-linejoin: miter"/>
   </g>
   <g id="patch_62">
    <path d="M 538.206876 339.84 
L 543.763746 339.84 
L 543.763746 339.453659 
L 538.206876 339.453659 
z
" clip-path="url(#pcd34f1c03c)" style="fill: #0173b2; fill-opacity: 0.75; stroke: #ffffff; stroke-width: 0.757123; stroke-linejoin: miter"/>
   </g>
   <g id="patch_63">
    <path d="M 543.763746 339.84 
L 549.320615 339.84 
L 549.320615 339.453659 
L 543.763746 339.453659 
z
" clip-path="url(#pcd34f1c03c)" style="fill: #0173b2; fill-opacity: 0.75; stroke: #ffffff; stroke-width: 0.757123; stroke-linejoin: miter"/>
   </g>
   <g id="patch_64">
    <path d="M 549.320615 339.84 
L 554.877485 339.84 
L 554.877485 339.84 
L 549.320615 339.84 
z
" clip-path="url(#pcd34f1c03c)" style="fill: #0173b2; fill-opacity: 0.75; stroke: #ffffff; stroke-width: 0.757123; stroke-linejoin: miter"/>
   </g>
   <g id="patch_65">
    <path d="M 554.877485 339.84 
L 560.434354 339.84 
L 560.434354 339.84 
L 554.877485 339.84 
z
" clip-path="url(#pcd34f1c03c)" style="fill: #0173b2; fill-opacity: 0.75; stroke: #ffffff; stroke-width: 0.757123; stroke-linejoin: miter"/>
   </g>
   <g id="patch_66">
    <path d="M 560.434354 339.84 
L 565.991224 339.84 
L 565.991224 339.84 
L 560.434354 339.84 
z
" clip-path="url(#pcd34f1c03c)" style="fill: #0173b2; fill-opacity: 0.75; stroke: #ffffff; stroke-width: 0.757123; stroke-linejoin: miter"/>
   </g>
   <g id="patch_67">
    <path d="M 565.991224 339.84 
L 571.548093 339.84 
L 571.548093 339.84 
L 565.991224 339.84 
z
" clip-path="url(#pcd34f1c03c)" style="fill: #0173b2; fill-opacity: 0.75; stroke: #ffffff; stroke-width: 0.757123; stroke-linejoin: miter"/>
   </g>
   <g id="patch_68">
    <path d="M 571.548093 339.84 
L 577.104963 339.84 
L 577.104963 339.84 
L 571.548093 339.84 
z
" clip-path="url(#pcd34f1c03c)" style="fill: #0173b2; fill-opacity: 0.75; stroke: #ffffff; stroke-width: 0.757123; stroke-linejoin: miter"/>
   </g>
   <g id="patch_69">
    <path d="M 577.104963 339.84 
L 582.661832 339.84 
L 582.661832 339.067317 
L 577.104963 339.067317 
z
" clip-path="url(#pcd34f1c03c)" style="fill: #0173b2; fill-opacity: 0.75; stroke: #ffffff; stroke-width: 0.757123; stroke-linejoin: miter"/>
   </g>
   <g id="patch_70">
    <path d="M 50.025469 339.84 
L 50.025469 7.2 
" style="fill: none; stroke: #ffffff; stroke-width: 1.25; stroke-linejoin: miter; stroke-linecap: square"/>
   </g>
   <g id="patch_71">
    <path d="M 608.025469 339.84 
L 608.025469 7.2 
" style="fill: none; stroke: #ffffff; stroke-width: 1.25; stroke-linejoin: miter; stroke-linecap: square"/>
   </g>
   <g id="patch_72">
    <path d="M 50.025469 339.84 
L 608.025469 339.84 
" style="fill: none; stroke: #ffffff; stroke-width: 1.25; stroke-linejoin: miter; stroke-linecap: square"/>
   </g>
   <g id="patch_73">
    <path d="M 50.025469 7.2 
L 608.025469 7.2 
" style="fill: none; stroke: #ffffff; stroke-width: 1.25; stroke-linejoin: miter; stroke-linecap: square"/>
   </g>
  </g>
  <g id="axes_2">
   <g id="matplotlib.axis_3">
    <g id="ytick_10">
     <g id="line2d_25">
      <path d="M 50.025469 328.118677 
L 608.025469 328.118677 
" clip-path="url(#pcd34f1c03c)" style="fill: none; stroke: #ffffff; stroke-linecap: round"/>
     </g>
     <g id="line2d_26">
      <defs>
       <path id="m6567f98cd3" d="M 0 0 
L 6 0 
" style="stroke: #262626; stroke-width: 1.25"/>
      </defs>
      <g>
       <use xlink:href="#m6567f98cd3" x="608.025469" y="328.118677" style="fill: #262626; stroke: #262626; stroke-width: 1.25"/>
      </g>
     </g>
     <g id="text_17">
      <!-- 0.000 -->
      <g style="fill: #262626" transform="translate(617.525469 332.055473) scale(0.11 -0.11)">
       <defs>
        <path id="ArialMT-2e" d="M 581 0 
L 581 641 
L 1222 641 
L 1222 0 
L 581 0 
z
" transform="scale(0.015625)"/>
       </defs>
       <use xlink:href="#ArialMT-30"/>
       <use xlink:href="#ArialMT-2e" x="55.615234"/>
       <use xlink:href="#ArialMT-30" x="83.398438"/>
       <use xlink:href="#ArialMT-30" x="139.013672"/>
       <use xlink:href="#ArialMT-30" x="194.628906"/>
      </g>
     </g>
    </g>
    <g id="ytick_11">
     <g id="line2d_27">
      <path d="M 50.025469 270.603004 
L 608.025469 270.603004 
" clip-path="url(#pcd34f1c03c)" style="fill: none; stroke: #ffffff; stroke-linecap: round"/>
     </g>
     <g id="line2d_28">
      <g>
       <use xlink:href="#m6567f98cd3" x="608.025469" y="270.603004" style="fill: #262626; stroke: #262626; stroke-width: 1.25"/>
      </g>
     </g>
     <g id="text_18">
      <!-- 0.005 -->
      <g style="fill: #262626" transform="translate(617.525469 274.539801) scale(0.11 -0.11)">
       <use xlink:href="#ArialMT-30"/>
       <use xlink:href="#ArialMT-2e" x="55.615234"/>
       <use xlink:href="#ArialMT-30" x="83.398438"/>
       <use xlink:href="#ArialMT-30" x="139.013672"/>
       <use xlink:href="#ArialMT-35" x="194.628906"/>
      </g>
     </g>
    </g>
    <g id="ytick_12">
     <g id="line2d_29">
      <path d="M 50.025469 213.087332 
L 608.025469 213.087332 
" clip-path="url(#pcd34f1c03c)" style="fill: none; stroke: #ffffff; stroke-linecap: round"/>
     </g>
     <g id="line2d_30">
      <g>
       <use xlink:href="#m6567f98cd3" x="608.025469" y="213.087332" style="fill: #262626; stroke: #262626; stroke-width: 1.25"/>
      </g>
     </g>
     <g id="text_19">
      <!-- 0.010 -->
      <g style="fill: #262626" transform="translate(617.525469 217.024129) scale(0.11 -0.11)">
       <use xlink:href="#ArialMT-30"/>
       <use xlink:href="#ArialMT-2e" x="55.615234"/>
       <use xlink:href="#ArialMT-30" x="83.398438"/>
       <use xlink:href="#ArialMT-31" x="139.013672"/>
       <use xlink:href="#ArialMT-30" x="194.628906"/>
      </g>
     </g>
    </g>
    <g id="ytick_13">
     <g id="line2d_31">
      <path d="M 50.025469 155.57166 
L 608.025469 155.57166 
" clip-path="url(#pcd34f1c03c)" style="fill: none; stroke: #ffffff; stroke-linecap: round"/>
     </g>
     <g id="line2d_32">
      <g>
       <use xlink:href="#m6567f98cd3" x="608.025469" y="155.57166" style="fill: #262626; stroke: #262626; stroke-width: 1.25"/>
      </g>
     </g>
     <g id="text_20">
      <!-- 0.015 -->
      <g style="fill: #262626" transform="translate(617.525469 159.508457) scale(0.11 -0.11)">
       <use xlink:href="#ArialMT-30"/>
       <use xlink:href="#ArialMT-2e" x="55.615234"/>
       <use xlink:href="#ArialMT-30" x="83.398438"/>
       <use xlink:href="#ArialMT-31" x="139.013672"/>
       <use xlink:href="#ArialMT-35" x="194.628906"/>
      </g>
     </g>
    </g>
    <g id="ytick_14">
     <g id="line2d_33">
      <path d="M 50.025469 98.055988 
L 608.025469 98.055988 
" clip-path="url(#pcd34f1c03c)" style="fill: none; stroke: #ffffff; stroke-linecap: round"/>
     </g>
     <g id="line2d_34">
      <g>
       <use xlink:href="#m6567f98cd3" x="608.025469" y="98.055988" style="fill: #262626; stroke: #262626; stroke-width: 1.25"/>
      </g>
     </g>
     <g id="text_21">
      <!-- 0.020 -->
      <g style="fill: #262626" transform="translate(617.525469 101.992785) scale(0.11 -0.11)">
       <use xlink:href="#ArialMT-30"/>
       <use xlink:href="#ArialMT-2e" x="55.615234"/>
       <use xlink:href="#ArialMT-30" x="83.398438"/>
       <use xlink:href="#ArialMT-32" x="139.013672"/>
       <use xlink:href="#ArialMT-30" x="194.628906"/>
      </g>
     </g>
    </g>
    <g id="ytick_15">
     <g id="line2d_35">
      <path d="M 50.025469 40.540316 
L 608.025469 40.540316 
" clip-path="url(#pcd34f1c03c)" style="fill: none; stroke: #ffffff; stroke-linecap: round"/>
     </g>
     <g id="line2d_36">
      <g>
       <use xlink:href="#m6567f98cd3" x="608.025469" y="40.540316" style="fill: #262626; stroke: #262626; stroke-width: 1.25"/>
      </g>
     </g>
     <g id="text_22">
      <!-- 0.025 -->
      <g style="fill: #262626" transform="translate(617.525469 44.477113) scale(0.11 -0.11)">
       <use xlink:href="#ArialMT-30"/>
       <use xlink:href="#ArialMT-2e" x="55.615234"/>
       <use xlink:href="#ArialMT-30" x="83.398438"/>
       <use xlink:href="#ArialMT-32" x="139.013672"/>
       <use xlink:href="#ArialMT-35" x="194.628906"/>
      </g>
     </g>
    </g>
   </g>
   <g id="PolyCollection_1"/>
   <g id="line2d_37">
    <path d="M 75.389105 324.72 
L 79.619904 324.049797 
L 83.850702 323.265292 
L 88.0815 322.350755 
L 92.312299 321.289022 
L 96.543097 320.061499 
L 100.773895 318.648197 
L 105.004694 317.027803 
L 109.235492 315.177781 
L 113.466291 313.074524 
L 117.697089 310.69355 
L 121.927887 308.009749 
L 126.158686 304.997672 
L 130.389484 301.63189 
L 134.620283 297.88739 
L 138.851081 293.740028 
L 143.081879 289.167035 
L 147.312678 284.147558 
L 151.543476 278.663237 
L 155.774275 272.698818 
L 160.005073 266.242773 
L 164.235871 259.287928 
L 168.46667 251.832083 
L 172.697468 243.878601 
L 176.928267 235.436959 
L 181.159065 226.523243 
L 185.389863 217.160553 
L 189.620662 207.379333 
L 193.85146 197.217571 
L 198.082258 186.720889 
L 202.313057 175.942486 
L 206.543855 164.942934 
L 210.774654 153.78982 
L 215.005452 142.557225 
L 219.23625 131.325047 
L 223.467049 120.178165 
L 227.697847 109.205465 
L 231.928646 98.498718 
L 236.159444 88.151362 
L 240.390242 78.257177 
L 244.621041 68.908893 
L 248.851839 60.196766 
L 253.082638 52.207134 
L 257.313436 45.021002 
L 261.544234 38.712676 
L 265.775033 33.348491 
L 270.005831 28.985644 
L 274.23663 25.671185 
L 278.467428 23.441167 
L 282.698226 22.32 
L 286.929025 22.32 
L 291.159823 23.441167 
L 295.390622 25.671185 
L 299.62142 28.985644 
L 303.852218 33.348491 
L 308.083017 38.712676 
L 312.313815 45.021002 
L 316.544613 52.207134 
L 320.775412 60.196766 
L 325.00621 68.908893 
L 329.237009 78.257177 
L 333.467807 88.151362 
L 337.698605 98.498718 
L 341.929404 109.205465 
L 346.160202 120.178165 
L 350.391001 131.325047 
L 354.621799 142.557225 
L 358.852597 153.78982 
L 363.083396 164.942934 
L 367.314194 175.942486 
L 371.544993 186.720889 
L 375.775791 197.217571 
L 380.006589 207.379333 
L 384.237388 217.160553 
L 388.468186 226.523243 
L 392.698985 235.436959 
L 396.929783 243.878601 
L 401.160581 251.832083 
L 405.39138 259.287928 
L 409.622178 266.242773 
L 413.852977 272.698818 
L 418.083775 278.663237 
L 422.314573 284.147558 
L 426.545372 289.167035 
L 430.77617 293.740028 
L 435.006968 297.88739 
L 439.237767 301.63189 
L 443.468565 304.997672 
L 447.699364 308.009749 
L 451.930162 310.69355 
L 456.16096 313.074524 
L 460.391759 315.177781 
L 464.622557 317.027803 
L 468.853356 318.648197 
L 473.084154 320.061499 
L 477.314952 321.289022 
L 481.545751 322.350755 
L 485.776549 323.265292 
L 490.007348 324.049797 
L 494.238146 324.72 
" clip-path="url(#pcd34f1c03c)" style="fill: none; stroke: #000000; stroke-width: 1.5; stroke-linecap: round"/>
   </g>
   <g id="patch_74">
    <path d="M 50.025469 339.84 
L 50.025469 7.2 
" style="fill: none; stroke: #ffffff; stroke-width: 1.25; stroke-linejoin: miter; stroke-linecap: square"/>
   </g>
   <g id="patch_75">
    <path d="M 608.025469 339.84 
L 608.025469 7.2 
" style="fill: none; stroke: #ffffff; stroke-width: 1.25; stroke-linejoin: miter; stroke-linecap: square"/>
   </g>
   <g id="patch_76">
    <path d="M 50.025469 339.84 
L 608.025469 339.84 
" style="fill: none; stroke: #ffffff; stroke-width: 1.25; stroke-linejoin: miter; stroke-linecap: square"/>
   </g>
   <g id="patch_77">
    <path d="M 50.025469 7.2 
L 608.025469 7.2 
" style="fill: none; stroke: #ffffff; stroke-width: 1.25; stroke-linejoin: miter; stroke-linecap: square"/>
   </g>
  </g>
 </g>
 <defs>
  <clipPath id="pcd34f1c03c">
   <rect x="50.025469" y="7.2" width="558" height="332.64"/>
  </clipPath>
 </defs>
</svg>