<?xml version="1.0" encoding="utf-8" standalone="no"?>
<!DOCTYPE svg PUBLIC "-//W3C//DTD SVG 1.1//EN"
  "http://www.w3.org/Graphics/SVG/1.1/DTD/svg11.dtd">
<svg xmlns:xlink="http://www.w3.org/1999/xlink" width="417.762105pt" height="353.211875pt" viewBox="0 0 417.762105 353.211875" xmlns="http://www.w3.org/2000/svg" version="1.1">
 <metadata>
  <rdf:RDF xmlns:dc="http://purl.org/dc/elements/1.1/" xmlns:cc="http://creativecommons.org/ns#" xmlns:rdf="http://www.w3.org/1999/02/22-rdf-syntax-ns#">
   <cc:Work>
    <dc:type rdf:resource="http://purl.org/dc/dcmitype/StillImage"/>
    <dc:date>2023-05-08T00:23:27.508250</dc:date>
    <dc:format>image/svg+xml</dc:format>
    <dc:creator>
     <cc:Agent>
      <dc:title>Matplotlib v3.7.1, https://matplotlib.org/</dc:title>
     </cc:Agent>
    </dc:creator>
   </cc:Work>
  </rdf:RDF>
 </metadata>
 <defs>
  <style type="text/css">*{stroke-linejoin: round; stroke-linecap: butt}</style>
 </defs>
 <g id="figure_1">
  <g id="patch_1">
   <path d="M -0 353.211875 
L 417.762105 353.211875 
L 417.762105 0 
L -0 0 
z
" style="fill: #ffffff"/>
  </g>
  <g id="axes_1">
   <g id="patch_2">
    <path d="M 55.5975 313.72 
L 340.696505 313.72 
L 340.696505 7.2 
L 55.5975 7.2 
z
" style="fill: #e5e5e5"/>
   </g>
   <g id="matplotlib.axis_1">
    <g id="xtick_1">
     <g id="line2d_1">
      <defs>
       <path id="m4e9400f670" d="M 0 0 
L 0 3.5 
" style="stroke: #555555; stroke-width: 0.8"/>
      </defs>
      <g>
       <use xlink:href="#m4e9400f670" x="103.114001" y="313.72" style="fill: #555555; stroke: #555555; stroke-width: 0.8"/>
      </g>
     </g>
     <g id="text_1">
      <!-- Adelie -->
      <g style="fill: #555555" transform="translate(87.67572 328.318437) scale(0.1 -0.1)">
       <defs>
        <path id="DejaVuSans-41" d="M 2188 4044 
L 1331 1722 
L 3047 1722 
L 2188 4044 
z
M 1831 4666 
L 2547 4666 
L 4325 0 
L 3669 0 
L 3244 1197 
L 1141 1197 
L 716 0 
L 50 0 
L 1831 4666 
z
" transform="scale(0.015625)"/>
        <path id="DejaVuSans-64" d="M 2906 2969 
L 2906 4863 
L 3481 4863 
L 3481 0 
L 2906 0 
L 2906 525 
Q 2725 213 2448 61 
Q 2172 -91 1784 -91 
Q 1150 -91 751 415 
Q 353 922 353 1747 
Q 353 2572 751 3078 
Q 1150 3584 1784 3584 
Q 2172 3584 2448 3432 
Q 2725 3281 2906 2969 
z
M 947 1747 
Q 947 1113 1208 752 
Q 1469 391 1925 391 
Q 2381 391 2643 752 
Q 2906 1113 2906 1747 
Q 2906 2381 2643 2742 
Q 2381 3103 1925 3103 
Q 1469 3103 1208 2742 
Q 947 2381 947 1747 
z
" transform="scale(0.015625)"/>
        <path id="DejaVuSans-65" d="M 3597 1894 
L 3597 1613 
L 953 1613 
Q 991 1019 1311 708 
Q 1631 397 2203 397 
Q 2534 397 2845 478 
Q 3156 559 3463 722 
L 3463 178 
Q 3153 47 2828 -22 
Q 2503 -91 2169 -91 
Q 1331 -91 842 396 
Q 353 884 353 1716 
Q 353 2575 817 3079 
Q 1281 3584 2069 3584 
Q 2775 3584 3186 3129 
Q 3597 2675 3597 1894 
z
M 3022 2063 
Q 3016 2534 2758 2815 
Q 2500 3097 2075 3097 
Q 1594 3097 1305 2825 
Q 1016 2553 972 2059 
L 3022 2063 
z
" transform="scale(0.015625)"/>
        <path id="DejaVuSans-6c" d="M 603 4863 
L 1178 4863 
L 1178 0 
L 603 0 
L 603 4863 
z
" transform="scale(0.015625)"/>
        <path id="DejaVuSans-69" d="M 603 3500 
L 1178 3500 
L 1178 0 
L 603 0 
L 603 3500 
z
M 603 4863 
L 1178 4863 
L 1178 4134 
L 603 4134 
L 603 4863 
z
" transform="scale(0.015625)"/>
       </defs>
       <use xlink:href="#DejaVuSans-41"/>
       <use xlink:href="#DejaVuSans-64" x="66.658203"/>
       <use xlink:href="#DejaVuSans-65" x="130.134766"/>
       <use xlink:href="#DejaVuSans-6c" x="191.658203"/>
       <use xlink:href="#DejaVuSans-69" x="219.441406"/>
       <use xlink:href="#DejaVuSans-65" x="247.224609"/>
      </g>
     </g>
    </g>
    <g id="xtick_2">
     <g id="line2d_2">
      <g>
       <use xlink:href="#m4e9400f670" x="198.147003" y="313.72" style="fill: #555555; stroke: #555555; stroke-width: 0.8"/>
      </g>
     </g>
     <g id="text_2">
      <!-- Gentoo -->
      <g style="fill: #555555" transform="translate(179.948565 328.318437) scale(0.1 -0.1)">
       <defs>
        <path id="DejaVuSans-47" d="M 3809 666 
L 3809 1919 
L 2778 1919 
L 2778 2438 
L 4434 2438 
L 4434 434 
Q 4069 175 3628 42 
Q 3188 -91 2688 -91 
Q 1594 -91 976 548 
Q 359 1188 359 2328 
Q 359 3472 976 4111 
Q 1594 4750 2688 4750 
Q 3144 4750 3555 4637 
Q 3966 4525 4313 4306 
L 4313 3634 
Q 3963 3931 3569 4081 
Q 3175 4231 2741 4231 
Q 1884 4231 1454 3753 
Q 1025 3275 1025 2328 
Q 1025 1384 1454 906 
Q 1884 428 2741 428 
Q 3075 428 3337 486 
Q 3600 544 3809 666 
z
" transform="scale(0.015625)"/>
        <path id="DejaVuSans-6e" d="M 3513 2113 
L 3513 0 
L 2938 0 
L 2938 2094 
Q 2938 2591 2744 2837 
Q 2550 3084 2163 3084 
Q 1697 3084 1428 2787 
Q 1159 2491 1159 1978 
L 1159 0 
L 581 0 
L 581 3500 
L 1159 3500 
L 1159 2956 
Q 1366 3272 1645 3428 
Q 1925 3584 2291 3584 
Q 2894 3584 3203 3211 
Q 3513 2838 3513 2113 
z
" transform="scale(0.015625)"/>
        <path id="DejaVuSans-74" d="M 1172 4494 
L 1172 3500 
L 2356 3500 
L 2356 3053 
L 1172 3053 
L 1172 1153 
Q 1172 725 1289 603 
Q 1406 481 1766 481 
L 2356 481 
L 2356 0 
L 1766 0 
Q 1100 0 847 248 
Q 594 497 594 1153 
L 594 3053 
L 172 3053 
L 172 3500 
L 594 3500 
L 594 4494 
L 1172 4494 
z
" transform="scale(0.015625)"/>
        <path id="DejaVuSans-6f" d="M 1959 3097 
Q 1497 3097 1228 2736 
Q 959 2375 959 1747 
Q 959 1119 1226 758 
Q 1494 397 1959 397 
Q 2419 397 2687 759 
Q 2956 1122 2956 1747 
Q 2956 2369 2687 2733 
Q 2419 3097 1959 3097 
z
M 1959 3584 
Q 2709 3584 3137 3096 
Q 3566 2609 3566 1747 
Q 3566 888 3137 398 
Q 2709 -91 1959 -91 
Q 1206 -91 779 398 
Q 353 888 353 1747 
Q 353 2609 779 3096 
Q 1206 3584 1959 3584 
z
" transform="scale(0.015625)"/>
       </defs>
       <use xlink:href="#DejaVuSans-47"/>
       <use xlink:href="#DejaVuSans-65" x="77.490234"/>
       <use xlink:href="#DejaVuSans-6e" x="139.013672"/>
       <use xlink:href="#DejaVuSans-74" x="202.392578"/>
       <use xlink:href="#DejaVuSans-6f" x="241.601562"/>
       <use xlink:href="#DejaVuSans-6f" x="302.783203"/>
      </g>
     </g>
    </g>
    <g id="xtick_3">
     <g id="line2d_3">
      <g>
       <use xlink:href="#m4e9400f670" x="293.180004" y="313.72" style="fill: #555555; stroke: #555555; stroke-width: 0.8"/>
      </g>
     </g>
     <g id="text_3">
      <!-- Chinstrap -->
      <g style="fill: #555555" transform="translate(269.103442 328.318437) scale(0.1 -0.1)">
       <defs>
        <path id="DejaVuSans-43" d="M 4122 4306 
L 4122 3641 
Q 3803 3938 3442 4084 
Q 3081 4231 2675 4231 
Q 1875 4231 1450 3742 
Q 1025 3253 1025 2328 
Q 1025 1406 1450 917 
Q 1875 428 2675 428 
Q 3081 428 3442 575 
Q 3803 722 4122 1019 
L 4122 359 
Q 3791 134 3420 21 
Q 3050 -91 2638 -91 
Q 1578 -91 968 557 
Q 359 1206 359 2328 
Q 359 3453 968 4101 
Q 1578 4750 2638 4750 
Q 3056 4750 3426 4639 
Q 3797 4528 4122 4306 
z
" transform="scale(0.015625)"/>
        <path id="DejaVuSans-68" d="M 3513 2113 
L 3513 0 
L 2938 0 
L 2938 2094 
Q 2938 2591 2744 2837 
Q 2550 3084 2163 3084 
Q 1697 3084 1428 2787 
Q 1159 2491 1159 1978 
L 1159 0 
L 581 0 
L 581 4863 
L 1159 4863 
L 1159 2956 
Q 1366 3272 1645 3428 
Q 1925 3584 2291 3584 
Q 2894 3584 3203 3211 
Q 3513 2838 3513 2113 
z
" transform="scale(0.015625)"/>
        <path id="DejaVuSans-73" d="M 2834 3397 
L 2834 2853 
Q 2591 2978 2328 3040 
Q 2066 3103 1784 3103 
Q 1356 3103 1142 2972 
Q 928 2841 928 2578 
Q 928 2378 1081 2264 
Q 1234 2150 1697 2047 
L 1894 2003 
Q 2506 1872 2764 1633 
Q 3022 1394 3022 966 
Q 3022 478 2636 193 
Q 2250 -91 1575 -91 
Q 1294 -91 989 -36 
Q 684 19 347 128 
L 347 722 
Q 666 556 975 473 
Q 1284 391 1588 391 
Q 1994 391 2212 530 
Q 2431 669 2431 922 
Q 2431 1156 2273 1281 
Q 2116 1406 1581 1522 
L 1381 1569 
Q 847 1681 609 1914 
Q 372 2147 372 2553 
Q 372 3047 722 3315 
Q 1072 3584 1716 3584 
Q 2034 3584 2315 3537 
Q 2597 3491 2834 3397 
z
" transform="scale(0.015625)"/>
        <path id="DejaVuSans-72" d="M 2631 2963 
Q 2534 3019 2420 3045 
Q 2306 3072 2169 3072 
Q 1681 3072 1420 2755 
Q 1159 2438 1159 1844 
L 1159 0 
L 581 0 
L 581 3500 
L 1159 3500 
L 1159 2956 
Q 1341 3275 1631 3429 
Q 1922 3584 2338 3584 
Q 2397 3584 2469 3576 
Q 2541 3569 2628 3553 
L 2631 2963 
z
" transform="scale(0.015625)"/>
        <path id="DejaVuSans-61" d="M 2194 1759 
Q 1497 1759 1228 1600 
Q 959 1441 959 1056 
Q 959 750 1161 570 
Q 1363 391 1709 391 
Q 2188 391 2477 730 
Q 2766 1069 2766 1631 
L 2766 1759 
L 2194 1759 
z
M 3341 1997 
L 3341 0 
L 2766 0 
L 2766 531 
Q 2569 213 2275 61 
Q 1981 -91 1556 -91 
Q 1019 -91 701 211 
Q 384 513 384 1019 
Q 384 1609 779 1909 
Q 1175 2209 1959 2209 
L 2766 2209 
L 2766 2266 
Q 2766 2663 2505 2880 
Q 2244 3097 1772 3097 
Q 1472 3097 1187 3025 
Q 903 2953 641 2809 
L 641 3341 
Q 956 3463 1253 3523 
Q 1550 3584 1831 3584 
Q 2591 3584 2966 3190 
Q 3341 2797 3341 1997 
z
" transform="scale(0.015625)"/>
        <path id="DejaVuSans-70" d="M 1159 525 
L 1159 -1331 
L 581 -1331 
L 581 3500 
L 1159 3500 
L 1159 2969 
Q 1341 3281 1617 3432 
Q 1894 3584 2278 3584 
Q 2916 3584 3314 3078 
Q 3713 2572 3713 1747 
Q 3713 922 3314 415 
Q 2916 -91 2278 -91 
Q 1894 -91 1617 61 
Q 1341 213 1159 525 
z
M 3116 1747 
Q 3116 2381 2855 2742 
Q 2594 3103 2138 3103 
Q 1681 3103 1420 2742 
Q 1159 2381 1159 1747 
Q 1159 1113 1420 752 
Q 1681 391 2138 391 
Q 2594 391 2855 752 
Q 3116 1113 3116 1747 
z
" transform="scale(0.015625)"/>
       </defs>
       <use xlink:href="#DejaVuSans-43"/>
       <use xlink:href="#DejaVuSans-68" x="69.824219"/>
       <use xlink:href="#DejaVuSans-69" x="133.203125"/>
       <use xlink:href="#DejaVuSans-6e" x="160.986328"/>
       <use xlink:href="#DejaVuSans-73" x="224.365234"/>
       <use xlink:href="#DejaVuSans-74" x="276.464844"/>
       <use xlink:href="#DejaVuSans-72" x="315.673828"/>
       <use xlink:href="#DejaVuSans-61" x="356.787109"/>
       <use xlink:href="#DejaVuSans-70" x="418.066406"/>
      </g>
     </g>
    </g>
    <g id="text_4">
     <!-- species -->
     <g style="fill: #555555" transform="translate(175.737003 343.51625) scale(0.12 -0.12)">
      <defs>
       <path id="DejaVuSans-63" d="M 3122 3366 
L 3122 2828 
Q 2878 2963 2633 3030 
Q 2388 3097 2138 3097 
Q 1578 3097 1268 2742 
Q 959 2388 959 1747 
Q 959 1106 1268 751 
Q 1578 397 2138 397 
Q 2388 397 2633 464 
Q 2878 531 3122 666 
L 3122 134 
Q 2881 22 2623 -34 
Q 2366 -91 2075 -91 
Q 1284 -91 818 406 
Q 353 903 353 1747 
Q 353 2603 823 3093 
Q 1294 3584 2113 3584 
Q 2378 3584 2631 3529 
Q 2884 3475 3122 3366 
z
" transform="scale(0.015625)"/>
      </defs>
      <use xlink:href="#DejaVuSans-73"/>
      <use xlink:href="#DejaVuSans-70" x="52.099609"/>
      <use xlink:href="#DejaVuSans-65" x="115.576172"/>
      <use xlink:href="#DejaVuSans-63" x="177.099609"/>
      <use xlink:href="#DejaVuSans-69" x="232.080078"/>
      <use xlink:href="#DejaVuSans-65" x="259.863281"/>
      <use xlink:href="#DejaVuSans-73" x="321.386719"/>
     </g>
    </g>
   </g>
   <g id="matplotlib.axis_2">
    <g id="ytick_1">
     <g id="line2d_4">
      <path d="M 55.5975 260.782692 
L 340.696505 260.782692 
" clip-path="url(#pbbb692f682)" style="fill: none; stroke: #ffffff; stroke-width: 0.8; stroke-linecap: square"/>
     </g>
     <g id="line2d_5">
      <defs>
       <path id="m697d352fc6" d="M 0 0 
L -3.5 0 
" style="stroke: #555555; stroke-width: 0.8"/>
      </defs>
      <g>
       <use xlink:href="#m697d352fc6" x="55.5975" y="260.782692" style="fill: #555555; stroke: #555555; stroke-width: 0.8"/>
      </g>
     </g>
     <g id="text_5">
      <!-- 3000 -->
      <g style="fill: #555555" transform="translate(23.1475 264.581911) scale(0.1 -0.1)">
       <defs>
        <path id="DejaVuSans-33" d="M 2597 2516 
Q 3050 2419 3304 2112 
Q 3559 1806 3559 1356 
Q 3559 666 3084 287 
Q 2609 -91 1734 -91 
Q 1441 -91 1130 -33 
Q 819 25 488 141 
L 488 750 
Q 750 597 1062 519 
Q 1375 441 1716 441 
Q 2309 441 2620 675 
Q 2931 909 2931 1356 
Q 2931 1769 2642 2001 
Q 2353 2234 1838 2234 
L 1294 2234 
L 1294 2753 
L 1863 2753 
Q 2328 2753 2575 2939 
Q 2822 3125 2822 3475 
Q 2822 3834 2567 4026 
Q 2313 4219 1838 4219 
Q 1578 4219 1281 4162 
Q 984 4106 628 3988 
L 628 4550 
Q 988 4650 1302 4700 
Q 1616 4750 1894 4750 
Q 2613 4750 3031 4423 
Q 3450 4097 3450 3541 
Q 3450 3153 3228 2886 
Q 3006 2619 2597 2516 
z
" transform="scale(0.015625)"/>
        <path id="DejaVuSans-30" d="M 2034 4250 
Q 1547 4250 1301 3770 
Q 1056 3291 1056 2328 
Q 1056 1369 1301 889 
Q 1547 409 2034 409 
Q 2525 409 2770 889 
Q 3016 1369 3016 2328 
Q 3016 3291 2770 3770 
Q 2525 4250 2034 4250 
z
M 2034 4750 
Q 2819 4750 3233 4129 
Q 3647 3509 3647 2328 
Q 3647 1150 3233 529 
Q 2819 -91 2034 -91 
Q 1250 -91 836 529 
Q 422 1150 422 2328 
Q 422 3509 836 4129 
Q 1250 4750 2034 4750 
z
" transform="scale(0.015625)"/>
       </defs>
       <use xlink:href="#DejaVuSans-33"/>
       <use xlink:href="#DejaVuSans-30" x="63.623047"/>
       <use xlink:href="#DejaVuSans-30" x="127.246094"/>
       <use xlink:href="#DejaVuSans-30" x="190.869141"/>
      </g>
     </g>
    </g>
    <g id="ytick_2">
     <g id="line2d_6">
      <path d="M 55.5975 193.752437 
L 340.696505 193.752437 
" clip-path="url(#pbbb692f682)" style="fill: none; stroke: #ffffff; stroke-width: 0.8; stroke-linecap: square"/>
     </g>
     <g id="line2d_7">
      <g>
       <use xlink:href="#m697d352fc6" x="55.5975" y="193.752437" style="fill: #555555; stroke: #555555; stroke-width: 0.8"/>
      </g>
     </g>
     <g id="text_6">
      <!-- 4000 -->
      <g style="fill: #555555" transform="translate(23.1475 197.551656) scale(0.1 -0.1)">
       <defs>
        <path id="DejaVuSans-34" d="M 2419 4116 
L 825 1625 
L 2419 1625 
L 2419 4116 
z
M 2253 4666 
L 3047 4666 
L 3047 1625 
L 3713 1625 
L 3713 1100 
L 3047 1100 
L 3047 0 
L 2419 0 
L 2419 1100 
L 313 1100 
L 313 1709 
L 2253 4666 
z
" transform="scale(0.015625)"/>
       </defs>
       <use xlink:href="#DejaVuSans-34"/>
       <use xlink:href="#DejaVuSans-30" x="63.623047"/>
       <use xlink:href="#DejaVuSans-30" x="127.246094"/>
       <use xlink:href="#DejaVuSans-30" x="190.869141"/>
      </g>
     </g>
    </g>
    <g id="ytick_3">
     <g id="line2d_8">
      <path d="M 55.5975 126.722181 
L 340.696505 126.722181 
" clip-path="url(#pbbb692f682)" style="fill: none; stroke: #ffffff; stroke-width: 0.8; stroke-linecap: square"/>
     </g>
     <g id="line2d_9">
      <g>
       <use xlink:href="#m697d352fc6" x="55.5975" y="126.722181" style="fill: #555555; stroke: #555555; stroke-width: 0.8"/>
      </g>
     </g>
     <g id="text_7">
      <!-- 5000 -->
      <g style="fill: #555555" transform="translate(23.1475 130.5214) scale(0.1 -0.1)">
       <defs>
        <path id="DejaVuSans-35" d="M 691 4666 
L 3169 4666 
L 3169 4134 
L 1269 4134 
L 1269 2991 
Q 1406 3038 1543 3061 
Q 1681 3084 1819 3084 
Q 2600 3084 3056 2656 
Q 3513 2228 3513 1497 
Q 3513 744 3044 326 
Q 2575 -91 1722 -91 
Q 1428 -91 1123 -41 
Q 819 9 494 109 
L 494 744 
Q 775 591 1075 516 
Q 1375 441 1709 441 
Q 2250 441 2565 725 
Q 2881 1009 2881 1497 
Q 2881 1984 2565 2268 
Q 2250 2553 1709 2553 
Q 1456 2553 1204 2497 
Q 953 2441 691 2322 
L 691 4666 
z
" transform="scale(0.015625)"/>
       </defs>
       <use xlink:href="#DejaVuSans-35"/>
       <use xlink:href="#DejaVuSans-30" x="63.623047"/>
       <use xlink:href="#DejaVuSans-30" x="127.246094"/>
       <use xlink:href="#DejaVuSans-30" x="190.869141"/>
      </g>
     </g>
    </g>
    <g id="ytick_4">
     <g id="line2d_10">
      <path d="M 55.5975 59.691926 
L 340.696505 59.691926 
" clip-path="url(#pbbb692f682)" style="fill: none; stroke: #ffffff; stroke-width: 0.8; stroke-linecap: square"/>
     </g>
     <g id="line2d_11">
      <g>
       <use xlink:href="#m697d352fc6" x="55.5975" y="59.691926" style="fill: #555555; stroke: #555555; stroke-width: 0.8"/>
      </g>
     </g>
     <g id="text_8">
      <!-- 6000 -->
      <g style="fill: #555555" transform="translate(23.1475 63.491145) scale(0.1 -0.1)">
       <defs>
        <path id="DejaVuSans-36" d="M 2113 2584 
Q 1688 2584 1439 2293 
Q 1191 2003 1191 1497 
Q 1191 994 1439 701 
Q 1688 409 2113 409 
Q 2538 409 2786 701 
Q 3034 994 3034 1497 
Q 3034 2003 2786 2293 
Q 2538 2584 2113 2584 
z
M 3366 4563 
L 3366 3988 
Q 3128 4100 2886 4159 
Q 2644 4219 2406 4219 
Q 1781 4219 1451 3797 
Q 1122 3375 1075 2522 
Q 1259 2794 1537 2939 
Q 1816 3084 2150 3084 
Q 2853 3084 3261 2657 
Q 3669 2231 3669 1497 
Q 3669 778 3244 343 
Q 2819 -91 2113 -91 
Q 1303 -91 875 529 
Q 447 1150 447 2328 
Q 447 3434 972 4092 
Q 1497 4750 2381 4750 
Q 2619 4750 2861 4703 
Q 3103 4656 3366 4563 
z
" transform="scale(0.015625)"/>
       </defs>
       <use xlink:href="#DejaVuSans-36"/>
       <use xlink:href="#DejaVuSans-30" x="63.623047"/>
       <use xlink:href="#DejaVuSans-30" x="127.246094"/>
       <use xlink:href="#DejaVuSans-30" x="190.869141"/>
      </g>
     </g>
    </g>
    <g id="text_9">
     <!-- body_mass_g -->
     <g style="fill: #555555" transform="translate(16.318125 200.882187) rotate(-90) scale(0.12 -0.12)">
      <defs>
       <path id="DejaVuSans-62" d="M 3116 1747 
Q 3116 2381 2855 2742 
Q 2594 3103 2138 3103 
Q 1681 3103 1420 2742 
Q 1159 2381 1159 1747 
Q 1159 1113 1420 752 
Q 1681 391 2138 391 
Q 2594 391 2855 752 
Q 3116 1113 3116 1747 
z
M 1159 2969 
Q 1341 3281 1617 3432 
Q 1894 3584 2278 3584 
Q 2916 3584 3314 3078 
Q 3713 2572 3713 1747 
Q 3713 922 3314 415 
Q 2916 -91 2278 -91 
Q 1894 -91 1617 61 
Q 1341 213 1159 525 
L 1159 0 
L 581 0 
L 581 4863 
L 1159 4863 
L 1159 2969 
z
" transform="scale(0.015625)"/>
       <path id="DejaVuSans-79" d="M 2059 -325 
Q 1816 -950 1584 -1140 
Q 1353 -1331 966 -1331 
L 506 -1331 
L 506 -850 
L 844 -850 
Q 1081 -850 1212 -737 
Q 1344 -625 1503 -206 
L 1606 56 
L 191 3500 
L 800 3500 
L 1894 763 
L 2988 3500 
L 3597 3500 
L 2059 -325 
z
" transform="scale(0.015625)"/>
       <path id="DejaVuSans-5f" d="M 3263 -1063 
L 3263 -1509 
L -63 -1509 
L -63 -1063 
L 3263 -1063 
z
" transform="scale(0.015625)"/>
       <path id="DejaVuSans-6d" d="M 3328 2828 
Q 3544 3216 3844 3400 
Q 4144 3584 4550 3584 
Q 5097 3584 5394 3201 
Q 5691 2819 5691 2113 
L 5691 0 
L 5113 0 
L 5113 2094 
Q 5113 2597 4934 2840 
Q 4756 3084 4391 3084 
Q 3944 3084 3684 2787 
Q 3425 2491 3425 1978 
L 3425 0 
L 2847 0 
L 2847 2094 
Q 2847 2600 2669 2842 
Q 2491 3084 2119 3084 
Q 1678 3084 1418 2786 
Q 1159 2488 1159 1978 
L 1159 0 
L 581 0 
L 581 3500 
L 1159 3500 
L 1159 2956 
Q 1356 3278 1631 3431 
Q 1906 3584 2284 3584 
Q 2666 3584 2933 3390 
Q 3200 3197 3328 2828 
z
" transform="scale(0.015625)"/>
       <path id="DejaVuSans-67" d="M 2906 1791 
Q 2906 2416 2648 2759 
Q 2391 3103 1925 3103 
Q 1463 3103 1205 2759 
Q 947 2416 947 1791 
Q 947 1169 1205 825 
Q 1463 481 1925 481 
Q 2391 481 2648 825 
Q 2906 1169 2906 1791 
z
M 3481 434 
Q 3481 -459 3084 -895 
Q 2688 -1331 1869 -1331 
Q 1566 -1331 1297 -1286 
Q 1028 -1241 775 -1147 
L 775 -588 
Q 1028 -725 1275 -790 
Q 1522 -856 1778 -856 
Q 2344 -856 2625 -561 
Q 2906 -266 2906 331 
L 2906 616 
Q 2728 306 2450 153 
Q 2172 0 1784 0 
Q 1141 0 747 490 
Q 353 981 353 1791 
Q 353 2603 747 3093 
Q 1141 3584 1784 3584 
Q 2172 3584 2450 3431 
Q 2728 3278 2906 2969 
L 2906 3500 
L 3481 3500 
L 3481 434 
z
" transform="scale(0.015625)"/>
      </defs>
      <use xlink:href="#DejaVuSans-62"/>
      <use xlink:href="#DejaVuSans-6f" x="63.476562"/>
      <use xlink:href="#DejaVuSans-64" x="124.658203"/>
      <use xlink:href="#DejaVuSans-79" x="188.134766"/>
      <use xlink:href="#DejaVuSans-5f" x="247.314453"/>
      <use xlink:href="#DejaVuSans-6d" x="297.314453"/>
      <use xlink:href="#DejaVuSans-61" x="394.726562"/>
      <use xlink:href="#DejaVuSans-73" x="456.005859"/>
      <use xlink:href="#DejaVuSans-73" x="508.105469"/>
      <use xlink:href="#DejaVuSans-5f" x="560.205078"/>
      <use xlink:href="#DejaVuSans-67" x="610.205078"/>
     </g>
    </g>
   </g>
   <g id="patch_3">
    <path d="M 103.114001 461.873459 
L 103.114001 461.873459 
L 103.114001 461.873459 
L 103.114001 461.873459 
z
" clip-path="url(#pbbb692f682)" style="fill: #cc5a49; stroke: #484848; stroke-width: 0.75; stroke-linejoin: miter"/>
   </g>
   <g id="PolyCollection_1">
    <defs>
     <path id="m3f6f847715" d="M 103.114001 -94.502054 
L 102.899995 -94.502054 
L 102.821494 -95.882031 
L 102.720071 -97.262009 
L 102.591051 -98.641987 
L 102.429389 -100.021965 
L 102.229785 -101.401942 
L 101.986845 -102.78192 
L 101.695285 -104.161898 
L 101.350167 -105.541876 
L 100.947181 -106.921853 
L 100.482941 -108.301831 
L 99.955301 -109.681809 
L 99.363653 -111.061786 
L 98.709168 -112.441764 
L 97.994965 -113.821742 
L 97.226135 -115.20172 
L 96.409602 -116.581697 
L 95.553794 -117.961675 
L 94.66811 -119.341653 
L 93.762221 -120.72163 
L 92.845259 -122.101608 
L 91.924966 -123.481586 
L 91.006928 -124.861564 
L 90.093988 -126.241541 
L 89.185935 -127.621519 
L 88.279557 -129.001497 
L 87.369057 -130.381475 
L 86.446837 -131.761452 
L 85.50457 -133.14143 
L 84.534451 -134.521408 
L 83.530508 -135.901385 
L 82.489837 -137.281363 
L 81.413621 -138.661341 
L 80.307857 -140.041319 
L 79.18368 -141.421296 
L 78.057271 -142.801274 
L 76.949317 -144.181252 
L 75.884044 -145.561229 
L 74.887862 -146.941207 
L 73.987703 -148.321185 
L 73.209154 -149.701163 
L 72.574523 -151.08114 
L 72.101014 -152.461118 
L 71.799185 -153.841096 
L 71.671868 -155.221074 
L 71.713714 -156.601051 
L 71.91145 -157.981029 
L 72.244884 -159.361007 
L 72.688569 -160.740984 
L 73.214005 -162.120962 
L 73.792116 -163.50094 
L 74.395754 -164.880918 
L 75.001943 -166.260895 
L 75.593599 -167.640873 
L 76.160566 -169.020851 
L 76.69985 -170.400828 
L 77.21508 -171.780806 
L 77.715286 -173.160784 
L 78.213183 -174.540762 
L 78.72319 -175.920739 
L 79.259432 -177.300717 
L 79.833939 -178.680695 
L 80.455239 -180.060673 
L 81.12745 -181.44065 
L 81.849933 -182.820628 
L 82.617475 -184.200606 
L 83.420956 -185.580583 
L 84.248371 -186.960561 
L 85.086101 -188.340539 
L 85.920276 -189.720517 
L 86.738105 -191.100494 
L 87.529059 -192.480472 
L 88.285784 -193.86045 
L 89.004679 -195.240428 
L 89.68608 -196.620405 
L 90.334032 -198.000383 
L 90.955679 -199.380361 
L 91.560328 -200.760338 
L 92.158289 -202.140316 
L 92.759624 -203.520294 
L 93.372931 -204.900272 
L 94.004323 -206.280249 
L 94.656691 -207.660227 
L 95.329354 -209.040205 
L 96.018095 -210.420182 
L 96.715593 -211.80016 
L 97.412155 -213.180138 
L 98.096655 -214.560116 
L 98.75757 -215.940093 
L 99.383966 -217.320071 
L 99.966356 -218.700049 
L 100.497336 -220.080027 
L 100.971961 -221.460004 
L 101.387865 -222.839982 
L 101.745131 -224.21996 
L 102.045988 -225.599937 
L 102.294368 -226.979915 
L 102.495408 -228.359893 
L 102.654957 -229.739871 
L 102.779115 -231.119848 
L 103.114001 -231.119848 
L 103.114001 -231.119848 
L 103.114001 -229.739871 
L 103.114001 -228.359893 
L 103.114001 -226.979915 
L 103.114001 -225.599937 
L 103.114001 -224.21996 
L 103.114001 -222.839982 
L 103.114001 -221.460004 
L 103.114001 -220.080027 
L 103.114001 -218.700049 
L 103.114001 -217.320071 
L 103.114001 -215.940093 
L 103.114001 -214.560116 
L 103.114001 -213.180138 
L 103.114001 -211.80016 
L 103.114001 -210.420182 
L 103.114001 -209.040205 
L 103.114001 -207.660227 
L 103.114001 -206.280249 
L 103.114001 -204.900272 
L 103.114001 -203.520294 
L 103.114001 -202.140316 
L 103.114001 -200.760338 
L 103.114001 -199.380361 
L 103.114001 -198.000383 
L 103.114001 -196.620405 
L 103.114001 -195.240428 
L 103.114001 -193.86045 
L 103.114001 -192.480472 
L 103.114001 -191.100494 
L 103.114001 -189.720517 
L 103.114001 -188.340539 
L 103.114001 -186.960561 
L 103.114001 -185.580583 
L 103.114001 -184.200606 
L 103.114001 -182.820628 
L 103.114001 -181.44065 
L 103.114001 -180.060673 
L 103.114001 -178.680695 
L 103.114001 -177.300717 
L 103.114001 -175.920739 
L 103.114001 -174.540762 
L 103.114001 -173.160784 
L 103.114001 -171.780806 
L 103.114001 -170.400828 
L 103.114001 -169.020851 
L 103.114001 -167.640873 
L 103.114001 -166.260895 
L 103.114001 -164.880918 
L 103.114001 -163.50094 
L 103.114001 -162.120962 
L 103.114001 -160.740984 
L 103.114001 -159.361007 
L 103.114001 -157.981029 
L 103.114001 -156.601051 
L 103.114001 -155.221074 
L 103.114001 -153.841096 
L 103.114001 -152.461118 
L 103.114001 -151.08114 
L 103.114001 -149.701163 
L 103.114001 -148.321185 
L 103.114001 -146.941207 
L 103.114001 -145.561229 
L 103.114001 -144.181252 
L 103.114001 -142.801274 
L 103.114001 -141.421296 
L 103.114001 -140.041319 
L 103.114001 -138.661341 
L 103.114001 -137.281363 
L 103.114001 -135.901385 
L 103.114001 -134.521408 
L 103.114001 -133.14143 
L 103.114001 -131.761452 
L 103.114001 -130.381475 
L 103.114001 -129.001497 
L 103.114001 -127.621519 
L 103.114001 -126.241541 
L 103.114001 -124.861564 
L 103.114001 -123.481586 
L 103.114001 -122.101608 
L 103.114001 -120.72163 
L 103.114001 -119.341653 
L 103.114001 -117.961675 
L 103.114001 -116.581697 
L 103.114001 -115.20172 
L 103.114001 -113.821742 
L 103.114001 -112.441764 
L 103.114001 -111.061786 
L 103.114001 -109.681809 
L 103.114001 -108.301831 
L 103.114001 -106.921853 
L 103.114001 -105.541876 
L 103.114001 -104.161898 
L 103.114001 -102.78192 
L 103.114001 -101.401942 
L 103.114001 -100.021965 
L 103.114001 -98.641987 
L 103.114001 -97.262009 
L 103.114001 -95.882031 
L 103.114001 -94.502054 
z
" style="stroke: #484848; stroke-width: 1.5"/>
    </defs>
    <g clip-path="url(#pbbb692f682)">
     <use xlink:href="#m3f6f847715" x="0" y="353.211875" style="fill: #cc5a49; stroke: #484848; stroke-width: 1.5"/>
    </g>
   </g>
   <g id="patch_4">
    <path d="M 103.114001 461.873459 
L 103.114001 461.873459 
L 103.114001 461.873459 
L 103.114001 461.873459 
z
" clip-path="url(#pbbb692f682)" style="fill: #4586ac; stroke: #484848; stroke-width: 0.75; stroke-linejoin: miter"/>
   </g>
   <g id="PolyCollection_2">
    <defs>
     <path id="mb83a9aa617" d="M 103.781163 -67.063706 
L 103.114001 -67.063706 
L 103.114001 -68.083945 
L 103.114001 -69.104184 
L 103.114001 -70.124423 
L 103.114001 -71.144661 
L 103.114001 -72.1649 
L 103.114001 -73.185139 
L 103.114001 -74.205378 
L 103.114001 -75.225617 
L 103.114001 -76.245856 
L 103.114001 -77.266094 
L 103.114001 -78.286333 
L 103.114001 -79.306572 
L 103.114001 -80.326811 
L 103.114001 -81.34705 
L 103.114001 -82.367289 
L 103.114001 -83.387527 
L 103.114001 -84.407766 
L 103.114001 -85.428005 
L 103.114001 -86.448244 
L 103.114001 -87.468483 
L 103.114001 -88.488722 
L 103.114001 -89.50896 
L 103.114001 -90.529199 
L 103.114001 -91.549438 
L 103.114001 -92.569677 
L 103.114001 -93.589916 
L 103.114001 -94.610155 
L 103.114001 -95.630394 
L 103.114001 -96.650632 
L 103.114001 -97.670871 
L 103.114001 -98.69111 
L 103.114001 -99.711349 
L 103.114001 -100.731588 
L 103.114001 -101.751827 
L 103.114001 -102.772065 
L 103.114001 -103.792304 
L 103.114001 -104.812543 
L 103.114001 -105.832782 
L 103.114001 -106.853021 
L 103.114001 -107.87326 
L 103.114001 -108.893498 
L 103.114001 -109.913737 
L 103.114001 -110.933976 
L 103.114001 -111.954215 
L 103.114001 -112.974454 
L 103.114001 -113.994693 
L 103.114001 -115.014931 
L 103.114001 -116.03517 
L 103.114001 -117.055409 
L 103.114001 -118.075648 
L 103.114001 -119.095887 
L 103.114001 -120.116126 
L 103.114001 -121.136365 
L 103.114001 -122.156603 
L 103.114001 -123.176842 
L 103.114001 -124.197081 
L 103.114001 -125.21732 
L 103.114001 -126.237559 
L 103.114001 -127.257798 
L 103.114001 -128.278036 
L 103.114001 -129.298275 
L 103.114001 -130.318514 
L 103.114001 -131.338753 
L 103.114001 -132.358992 
L 103.114001 -133.379231 
L 103.114001 -134.399469 
L 103.114001 -135.419708 
L 103.114001 -136.439947 
L 103.114001 -137.460186 
L 103.114001 -138.480425 
L 103.114001 -139.500664 
L 103.114001 -140.520902 
L 103.114001 -141.541141 
L 103.114001 -142.56138 
L 103.114001 -143.581619 
L 103.114001 -144.601858 
L 103.114001 -145.622097 
L 103.114001 -146.642336 
L 103.114001 -147.662574 
L 103.114001 -148.682813 
L 103.114001 -149.703052 
L 103.114001 -150.723291 
L 103.114001 -151.74353 
L 103.114001 -152.763769 
L 103.114001 -153.784007 
L 103.114001 -154.804246 
L 103.114001 -155.824485 
L 103.114001 -156.844724 
L 103.114001 -157.864963 
L 103.114001 -158.885202 
L 103.114001 -159.90544 
L 103.114001 -160.925679 
L 103.114001 -161.945918 
L 103.114001 -162.966157 
L 103.114001 -163.986396 
L 103.114001 -165.006635 
L 103.114001 -166.026873 
L 103.114001 -167.047112 
L 103.114001 -168.067351 
L 103.456562 -168.067351 
L 103.456562 -168.067351 
L 103.58142 -167.047112 
L 103.743135 -166.026873 
L 103.949467 -165.006635 
L 104.208824 -163.986396 
L 104.530007 -162.966157 
L 104.921872 -161.945918 
L 105.392898 -160.925679 
L 105.950669 -159.90544 
L 106.601313 -158.885202 
L 107.348914 -157.864963 
L 108.194949 -156.844724 
L 109.137807 -155.824485 
L 110.172451 -154.804246 
L 111.290262 -153.784007 
L 112.479133 -152.763769 
L 113.723825 -151.74353 
L 115.006605 -150.723291 
L 116.30814 -149.703052 
L 117.608595 -148.682813 
L 118.888866 -147.662574 
L 120.131842 -146.642336 
L 121.323582 -145.622097 
L 122.454293 -144.601858 
L 123.519004 -143.581619 
L 124.517848 -142.56138 
L 125.45591 -141.541141 
L 126.342629 -140.520902 
L 127.190805 -139.500664 
L 128.01528 -138.480425 
L 128.831414 -137.460186 
L 129.653512 -136.439947 
L 130.493327 -135.419708 
L 131.358802 -134.399469 
L 132.253153 -133.379231 
L 133.17438 -132.358992 
L 134.115248 -131.338753 
L 135.063717 -130.318514 
L 136.003788 -129.298275 
L 136.916657 -128.278036 
L 137.782087 -127.257798 
L 138.579853 -126.237559 
L 139.291155 -125.21732 
L 139.899871 -124.197081 
L 140.393558 -123.176842 
L 140.764145 -122.156603 
L 141.008259 -121.136365 
L 141.127202 -120.116126 
L 141.126569 -119.095887 
L 141.015589 -118.075648 
L 140.806216 -117.055409 
L 140.512084 -116.03517 
L 140.147398 -115.014931 
L 139.725857 -113.994693 
L 139.259693 -112.974454 
L 138.758911 -111.954215 
L 138.230782 -110.933976 
L 137.679625 -109.913737 
L 137.106894 -108.893498 
L 136.511543 -107.87326 
L 135.890629 -106.853021 
L 135.240076 -105.832782 
L 134.555518 -104.812543 
L 133.833117 -103.792304 
L 133.070283 -102.772065 
L 132.266199 -101.751827 
L 131.422113 -100.731588 
L 130.54136 -99.711349 
L 129.629126 -98.69111 
L 128.691983 -97.670871 
L 127.737244 -96.650632 
L 126.772232 -95.630394 
L 125.803532 -94.610155 
L 124.836321 -93.589916 
L 123.873867 -92.569677 
L 122.91726 -91.549438 
L 121.965413 -90.529199 
L 121.015363 -89.50896 
L 120.062836 -88.488722 
L 119.103022 -87.468483 
L 118.131472 -86.448244 
L 117.14501 -85.428005 
L 116.142532 -84.407766 
L 115.125598 -83.387527 
L 114.098726 -82.367289 
L 113.069345 -81.34705 
L 112.047411 -80.326811 
L 111.044736 -79.306572 
L 110.074104 -78.286333 
L 109.148289 -77.266094 
L 108.279093 -76.245856 
L 107.476502 -75.225617 
L 106.748046 -74.205378 
L 106.098424 -73.185139 
L 105.52939 -72.1649 
L 105.039896 -71.144661 
L 104.626437 -70.124423 
L 104.283544 -69.104184 
L 104.004351 -68.083945 
L 103.781163 -67.063706 
z
" style="stroke: #484848; stroke-width: 1.5"/>
    </defs>
    <g clip-path="url(#pbbb692f682)">
     <use xlink:href="#mb83a9aa617" x="0" y="353.211875" style="fill: #4586ac; stroke: #484848; stroke-width: 1.5"/>
    </g>
   </g>
   <g id="PolyCollection_3">
    <defs>
     <path id="m0f2f865db8" d="M 198.147003 -191.282008 
L 197.952157 -191.282008 
L 197.881505 -192.704201 
L 197.792564 -194.126395 
L 197.683035 -195.548588 
L 197.550876 -196.970781 
L 197.394309 -198.392975 
L 197.211709 -199.815168 
L 197.001379 -201.237361 
L 196.761213 -202.659555 
L 196.488305 -204.081748 
L 196.178585 -205.503941 
L 195.826588 -206.926135 
L 195.425456 -208.348328 
L 194.967275 -209.770521 
L 194.443757 -211.192715 
L 193.847251 -212.614908 
L 193.171952 -214.037101 
L 192.415121 -215.459295 
L 191.578098 -216.881488 
L 190.666855 -218.303681 
L 189.69194 -219.725875 
L 188.667702 -221.148068 
L 187.610861 -222.570261 
L 186.538597 -223.992455 
L 185.466442 -225.414648 
L 184.406331 -226.836841 
L 183.365168 -228.259035 
L 182.344175 -229.681228 
L 181.339162 -231.103421 
L 180.341716 -232.525615 
L 179.341091 -233.947808 
L 178.326495 -235.370001 
L 177.289365 -236.792195 
L 176.225247 -238.214388 
L 175.134969 -239.636581 
L 174.02495 -241.058775 
L 172.906642 -242.480968 
L 171.795293 -243.903161 
L 170.708298 -245.325355 
L 169.663513 -246.747548 
L 168.677825 -248.169741 
L 167.766228 -249.591935 
L 166.941489 -251.014128 
L 166.214354 -252.436321 
L 165.594116 -253.858515 
L 165.089303 -255.280708 
L 164.708228 -256.702901 
L 164.459205 -258.125095 
L 164.350333 -259.547288 
L 164.388885 -260.969481 
L 164.580402 -262.391674 
L 164.927704 -263.813868 
L 165.430001 -265.236061 
L 166.08229 -266.658254 
L 166.875143 -268.080448 
L 167.794912 -269.502641 
L 168.824328 -270.924834 
L 169.943403 -272.347028 
L 171.130551 -273.769221 
L 172.3638 -275.191414 
L 173.622025 -276.613608 
L 174.886103 -278.035801 
L 176.139911 -279.457994 
L 177.371099 -280.880188 
L 178.571553 -282.302381 
L 179.73748 -283.724574 
L 180.869081 -285.146768 
L 181.969782 -286.568961 
L 183.045106 -287.991154 
L 184.101265 -289.413348 
L 185.143662 -290.835541 
L 186.175494 -292.257734 
L 187.196685 -293.679928 
L 188.203306 -295.102121 
L 189.187625 -296.524314 
L 190.138774 -297.946508 
L 191.04397 -299.368701 
L 191.890097 -300.790894 
L 192.665398 -302.213088 
L 193.361016 -303.635281 
L 193.972142 -305.057474 
L 194.498594 -306.479668 
L 194.944754 -307.901861 
L 195.318908 -309.324054 
L 195.632122 -310.746248 
L 195.896845 -312.168441 
L 196.12548 -313.590634 
L 196.329128 -315.012828 
L 196.516677 -316.435021 
L 196.694305 -317.857214 
L 196.865434 -319.279408 
L 197.031043 -320.701601 
L 197.190255 -322.123794 
L 197.341043 -323.545988 
L 197.480938 -324.968181 
L 197.607631 -326.390374 
L 197.7194 -327.812568 
L 197.815352 -329.234761 
L 197.895468 -330.656954 
L 197.960524 -332.079148 
L 198.147003 -332.079148 
L 198.147003 -332.079148 
L 198.147003 -330.656954 
L 198.147003 -329.234761 
L 198.147003 -327.812568 
L 198.147003 -326.390374 
L 198.147003 -324.968181 
L 198.147003 -323.545988 
L 198.147003 -322.123794 
L 198.147003 -320.701601 
L 198.147003 -319.279408 
L 198.147003 -317.857214 
L 198.147003 -316.435021 
L 198.147003 -315.012828 
L 198.147003 -313.590634 
L 198.147003 -312.168441 
L 198.147003 -310.746248 
L 198.147003 -309.324054 
L 198.147003 -307.901861 
L 198.147003 -306.479668 
L 198.147003 -305.057474 
L 198.147003 -303.635281 
L 198.147003 -302.213088 
L 198.147003 -300.790894 
L 198.147003 -299.368701 
L 198.147003 -297.946508 
L 198.147003 -296.524314 
L 198.147003 -295.102121 
L 198.147003 -293.679928 
L 198.147003 -292.257734 
L 198.147003 -290.835541 
L 198.147003 -289.413348 
L 198.147003 -287.991154 
L 198.147003 -286.568961 
L 198.147003 -285.146768 
L 198.147003 -283.724574 
L 198.147003 -282.302381 
L 198.147003 -280.880188 
L 198.147003 -279.457994 
L 198.147003 -278.035801 
L 198.147003 -276.613608 
L 198.147003 -275.191414 
L 198.147003 -273.769221 
L 198.147003 -272.347028 
L 198.147003 -270.924834 
L 198.147003 -269.502641 
L 198.147003 -268.080448 
L 198.147003 -266.658254 
L 198.147003 -265.236061 
L 198.147003 -263.813868 
L 198.147003 -262.391674 
L 198.147003 -260.969481 
L 198.147003 -259.547288 
L 198.147003 -258.125095 
L 198.147003 -256.702901 
L 198.147003 -255.280708 
L 198.147003 -253.858515 
L 198.147003 -252.436321 
L 198.147003 -251.014128 
L 198.147003 -249.591935 
L 198.147003 -248.169741 
L 198.147003 -246.747548 
L 198.147003 -245.325355 
L 198.147003 -243.903161 
L 198.147003 -242.480968 
L 198.147003 -241.058775 
L 198.147003 -239.636581 
L 198.147003 -238.214388 
L 198.147003 -236.792195 
L 198.147003 -235.370001 
L 198.147003 -233.947808 
L 198.147003 -232.525615 
L 198.147003 -231.103421 
L 198.147003 -229.681228 
L 198.147003 -228.259035 
L 198.147003 -226.836841 
L 198.147003 -225.414648 
L 198.147003 -223.992455 
L 198.147003 -222.570261 
L 198.147003 -221.148068 
L 198.147003 -219.725875 
L 198.147003 -218.303681 
L 198.147003 -216.881488 
L 198.147003 -215.459295 
L 198.147003 -214.037101 
L 198.147003 -212.614908 
L 198.147003 -211.192715 
L 198.147003 -209.770521 
L 198.147003 -208.348328 
L 198.147003 -206.926135 
L 198.147003 -205.503941 
L 198.147003 -204.081748 
L 198.147003 -202.659555 
L 198.147003 -201.237361 
L 198.147003 -199.815168 
L 198.147003 -198.392975 
L 198.147003 -196.970781 
L 198.147003 -195.548588 
L 198.147003 -194.126395 
L 198.147003 -192.704201 
L 198.147003 -191.282008 
z
" style="stroke: #484848; stroke-width: 1.5"/>
    </defs>
    <g clip-path="url(#pbbb692f682)">
     <use xlink:href="#m0f2f865db8" x="0" y="353.211875" style="fill: #cc5a49; stroke: #484848; stroke-width: 1.5"/>
    </g>
   </g>
   <g id="PolyCollection_4">
    <defs>
     <path id="me36c55762c" d="M 198.365285 -139.350224 
L 198.147003 -139.350224 
L 198.147003 -140.535105 
L 198.147003 -141.719986 
L 198.147003 -142.904867 
L 198.147003 -144.089748 
L 198.147003 -145.274629 
L 198.147003 -146.45951 
L 198.147003 -147.644391 
L 198.147003 -148.829272 
L 198.147003 -150.014153 
L 198.147003 -151.199034 
L 198.147003 -152.383916 
L 198.147003 -153.568797 
L 198.147003 -154.753678 
L 198.147003 -155.938559 
L 198.147003 -157.12344 
L 198.147003 -158.308321 
L 198.147003 -159.493202 
L 198.147003 -160.678083 
L 198.147003 -161.862964 
L 198.147003 -163.047845 
L 198.147003 -164.232726 
L 198.147003 -165.417607 
L 198.147003 -166.602488 
L 198.147003 -167.787369 
L 198.147003 -168.97225 
L 198.147003 -170.157131 
L 198.147003 -171.342012 
L 198.147003 -172.526893 
L 198.147003 -173.711774 
L 198.147003 -174.896655 
L 198.147003 -176.081536 
L 198.147003 -177.266417 
L 198.147003 -178.451298 
L 198.147003 -179.636179 
L 198.147003 -180.82106 
L 198.147003 -182.005941 
L 198.147003 -183.190822 
L 198.147003 -184.375703 
L 198.147003 -185.560584 
L 198.147003 -186.745465 
L 198.147003 -187.930346 
L 198.147003 -189.115227 
L 198.147003 -190.300108 
L 198.147003 -191.484989 
L 198.147003 -192.669871 
L 198.147003 -193.854752 
L 198.147003 -195.039633 
L 198.147003 -196.224514 
L 198.147003 -197.409395 
L 198.147003 -198.594276 
L 198.147003 -199.779157 
L 198.147003 -200.964038 
L 198.147003 -202.148919 
L 198.147003 -203.3338 
L 198.147003 -204.518681 
L 198.147003 -205.703562 
L 198.147003 -206.888443 
L 198.147003 -208.073324 
L 198.147003 -209.258205 
L 198.147003 -210.443086 
L 198.147003 -211.627967 
L 198.147003 -212.812848 
L 198.147003 -213.997729 
L 198.147003 -215.18261 
L 198.147003 -216.367491 
L 198.147003 -217.552372 
L 198.147003 -218.737253 
L 198.147003 -219.922134 
L 198.147003 -221.107015 
L 198.147003 -222.291896 
L 198.147003 -223.476777 
L 198.147003 -224.661658 
L 198.147003 -225.846539 
L 198.147003 -227.03142 
L 198.147003 -228.216301 
L 198.147003 -229.401182 
L 198.147003 -230.586063 
L 198.147003 -231.770944 
L 198.147003 -232.955825 
L 198.147003 -234.140707 
L 198.147003 -235.325588 
L 198.147003 -236.510469 
L 198.147003 -237.69535 
L 198.147003 -238.880231 
L 198.147003 -240.065112 
L 198.147003 -241.249993 
L 198.147003 -242.434874 
L 198.147003 -243.619755 
L 198.147003 -244.804636 
L 198.147003 -245.989517 
L 198.147003 -247.174398 
L 198.147003 -248.359279 
L 198.147003 -249.54416 
L 198.147003 -250.729041 
L 198.147003 -251.913922 
L 198.147003 -253.098803 
L 198.147003 -254.283684 
L 198.147003 -255.468565 
L 198.147003 -256.653446 
L 198.715264 -256.653446 
L 198.715264 -256.653446 
L 198.911182 -255.468565 
L 199.156893 -254.283684 
L 199.459038 -253.098803 
L 199.823472 -251.913922 
L 200.254854 -250.729041 
L 200.756318 -249.54416 
L 201.329286 -248.359279 
L 201.973468 -247.174398 
L 202.687076 -245.989517 
L 203.467238 -244.804636 
L 204.310571 -243.619755 
L 205.213813 -242.434874 
L 206.174427 -241.249993 
L 207.191046 -240.065112 
L 208.263655 -238.880231 
L 209.393464 -237.69535 
L 210.582423 -236.510469 
L 211.832461 -235.325588 
L 213.144522 -234.140707 
L 214.517562 -232.955825 
L 215.947664 -231.770944 
L 217.427429 -230.586063 
L 218.94577 -229.401182 
L 220.48815 -228.216301 
L 222.037281 -227.03142 
L 223.574165 -225.846539 
L 225.079352 -224.661658 
L 226.534221 -223.476777 
L 227.92209 -222.291896 
L 229.228976 -221.107015 
L 230.44391 -219.922134 
L 231.558733 -218.737253 
L 232.567446 -217.552372 
L 233.465222 -216.367491 
L 234.247281 -215.18261 
L 234.907858 -213.997729 
L 235.439479 -212.812848 
L 235.832754 -211.627967 
L 236.076787 -210.443086 
L 236.160203 -209.258205 
L 236.072722 -208.073324 
L 235.807039 -206.888443 
L 235.360761 -205.703562 
L 234.738067 -204.518681 
L 233.950793 -203.3338 
L 233.018714 -202.148919 
L 231.968876 -200.964038 
L 230.834003 -199.779157 
L 229.650107 -198.594276 
L 228.453584 -197.409395 
L 227.278155 -196.224514 
L 226.152039 -195.039633 
L 225.095741 -193.854752 
L 224.120725 -192.669871 
L 223.229131 -191.484989 
L 222.414543 -190.300108 
L 221.663638 -189.115227 
L 220.958464 -187.930346 
L 220.278967 -186.745465 
L 219.60543 -185.560584 
L 218.920494 -184.375703 
L 218.210551 -183.190822 
L 217.466429 -182.005941 
L 216.683394 -180.82106 
L 215.860641 -179.636179 
L 215.000473 -178.451298 
L 214.107402 -177.266417 
L 213.187367 -176.081536 
L 212.24719 -174.896655 
L 211.294294 -173.711774 
L 210.336652 -172.526893 
L 209.382837 -171.342012 
L 208.442068 -170.157131 
L 207.524104 -168.97225 
L 206.63895 -167.787369 
L 205.796336 -166.602488 
L 205.005059 -165.417607 
L 204.272264 -164.232726 
L 203.602814 -163.047845 
L 202.998863 -161.862964 
L 202.459714 -160.678083 
L 201.982009 -159.493202 
L 201.560211 -158.308321 
L 201.187311 -157.12344 
L 200.855646 -155.938559 
L 200.557706 -154.753678 
L 200.28682 -153.568797 
L 200.037633 -152.383916 
L 199.806346 -151.199034 
L 199.590711 -150.014153 
L 199.389824 -148.829272 
L 199.20378 -147.644391 
L 199.033271 -146.45951 
L 198.879178 -145.274629 
L 198.742239 -144.089748 
L 198.622806 -142.904867 
L 198.520717 -141.719986 
L 198.435271 -140.535105 
L 198.365285 -139.350224 
z
" style="stroke: #484848; stroke-width: 1.5"/>
    </defs>
    <g clip-path="url(#pbbb692f682)">
     <use xlink:href="#me36c55762c" x="0" y="353.211875" style="fill: #4586ac; stroke: #484848; stroke-width: 1.5"/>
    </g>
   </g>
   <g id="PolyCollection_5">
    <defs>
     <path id="ma57ec8bf3d" d="M 293.180004 -85.20512 
L 292.757661 -85.20512 
L 292.6244 -86.73906 
L 292.459617 -88.273001 
L 292.259243 -89.806942 
L 292.019622 -91.340883 
L 291.737785 -92.874824 
L 291.411709 -94.408765 
L 291.040549 -95.942706 
L 290.624794 -97.476647 
L 290.166342 -99.010588 
L 289.66845 -100.544529 
L 289.135558 -102.07847 
L 288.572989 -103.61241 
L 287.986525 -105.146351 
L 287.381909 -106.680292 
L 286.764298 -108.214233 
L 286.137728 -109.748174 
L 285.504643 -111.282115 
L 284.865555 -112.816056 
L 284.218861 -114.349997 
L 283.560872 -115.883938 
L 282.88607 -117.417879 
L 282.187566 -118.95182 
L 281.457766 -120.48576 
L 280.689163 -122.019701 
L 279.875214 -123.553642 
L 279.011204 -125.087583 
L 278.095024 -126.621524 
L 277.127771 -128.155465 
L 276.114106 -129.689406 
L 275.062327 -131.223347 
L 273.984125 -132.757288 
L 272.894067 -134.291229 
L 271.808826 -135.82517 
L 270.746268 -137.359111 
L 269.72448 -138.893051 
L 268.760854 -140.426992 
L 267.871335 -141.960933 
L 267.069891 -143.494874 
L 266.368254 -145.028815 
L 265.775929 -146.562756 
L 265.300399 -148.096697 
L 264.947475 -149.630638 
L 264.721637 -151.164579 
L 264.626313 -152.69852 
L 264.663954 -154.232461 
L 264.835908 -155.766401 
L 265.142056 -157.300342 
L 265.580283 -158.834283 
L 266.145876 -160.368224 
L 266.830972 -161.902165 
L 267.624194 -163.436106 
L 268.510578 -164.970047 
L 269.471869 -166.503988 
L 270.487211 -168.037929 
L 271.534185 -169.57187 
L 272.590106 -171.105811 
L 273.633433 -172.639751 
L 274.645157 -174.173692 
L 275.609981 -175.707633 
L 276.517181 -177.241574 
L 277.361048 -178.775515 
L 278.140867 -180.309456 
L 278.860454 -181.843397 
L 279.527308 -183.377338 
L 280.151489 -184.911279 
L 280.744351 -186.44522 
L 281.317271 -187.979161 
L 281.880491 -189.513101 
L 282.442209 -191.047042 
L 283.007959 -192.580983 
L 283.580346 -194.114924 
L 284.159113 -195.648865 
L 284.741509 -197.182806 
L 285.322882 -198.716747 
L 285.897408 -200.250688 
L 286.458867 -201.784629 
L 287.001356 -203.31857 
L 287.519878 -204.852511 
L 288.010749 -206.386452 
L 288.471788 -207.920392 
L 288.902308 -209.454333 
L 289.302926 -210.988274 
L 289.675249 -212.522215 
L 290.021487 -214.056156 
L 290.344062 -215.590097 
L 290.645263 -217.124038 
L 290.926986 -218.657979 
L 291.190581 -220.19192 
L 291.436812 -221.725861 
L 291.665916 -223.259802 
L 291.877734 -224.793742 
L 292.071887 -226.327683 
L 292.24796 -227.861624 
L 292.405671 -229.395565 
L 292.544999 -230.929506 
L 292.666267 -232.463447 
L 292.770166 -233.997388 
L 292.857736 -235.531329 
L 292.930309 -237.06527 
L 293.180004 -237.06527 
L 293.180004 -237.06527 
L 293.180004 -235.531329 
L 293.180004 -233.997388 
L 293.180004 -232.463447 
L 293.180004 -230.929506 
L 293.180004 -229.395565 
L 293.180004 -227.861624 
L 293.180004 -226.327683 
L 293.180004 -224.793742 
L 293.180004 -223.259802 
L 293.180004 -221.725861 
L 293.180004 -220.19192 
L 293.180004 -218.657979 
L 293.180004 -217.124038 
L 293.180004 -215.590097 
L 293.180004 -214.056156 
L 293.180004 -212.522215 
L 293.180004 -210.988274 
L 293.180004 -209.454333 
L 293.180004 -207.920392 
L 293.180004 -206.386452 
L 293.180004 -204.852511 
L 293.180004 -203.31857 
L 293.180004 -201.784629 
L 293.180004 -200.250688 
L 293.180004 -198.716747 
L 293.180004 -197.182806 
L 293.180004 -195.648865 
L 293.180004 -194.114924 
L 293.180004 -192.580983 
L 293.180004 -191.047042 
L 293.180004 -189.513101 
L 293.180004 -187.979161 
L 293.180004 -186.44522 
L 293.180004 -184.911279 
L 293.180004 -183.377338 
L 293.180004 -181.843397 
L 293.180004 -180.309456 
L 293.180004 -178.775515 
L 293.180004 -177.241574 
L 293.180004 -175.707633 
L 293.180004 -174.173692 
L 293.180004 -172.639751 
L 293.180004 -171.105811 
L 293.180004 -169.57187 
L 293.180004 -168.037929 
L 293.180004 -166.503988 
L 293.180004 -164.970047 
L 293.180004 -163.436106 
L 293.180004 -161.902165 
L 293.180004 -160.368224 
L 293.180004 -158.834283 
L 293.180004 -157.300342 
L 293.180004 -155.766401 
L 293.180004 -154.232461 
L 293.180004 -152.69852 
L 293.180004 -151.164579 
L 293.180004 -149.630638 
L 293.180004 -148.096697 
L 293.180004 -146.562756 
L 293.180004 -145.028815 
L 293.180004 -143.494874 
L 293.180004 -141.960933 
L 293.180004 -140.426992 
L 293.180004 -138.893051 
L 293.180004 -137.359111 
L 293.180004 -135.82517 
L 293.180004 -134.291229 
L 293.180004 -132.757288 
L 293.180004 -131.223347 
L 293.180004 -129.689406 
L 293.180004 -128.155465 
L 293.180004 -126.621524 
L 293.180004 -125.087583 
L 293.180004 -123.553642 
L 293.180004 -122.019701 
L 293.180004 -120.48576 
L 293.180004 -118.95182 
L 293.180004 -117.417879 
L 293.180004 -115.883938 
L 293.180004 -114.349997 
L 293.180004 -112.816056 
L 293.180004 -111.282115 
L 293.180004 -109.748174 
L 293.180004 -108.214233 
L 293.180004 -106.680292 
L 293.180004 -105.146351 
L 293.180004 -103.61241 
L 293.180004 -102.07847 
L 293.180004 -100.544529 
L 293.180004 -99.010588 
L 293.180004 -97.476647 
L 293.180004 -95.942706 
L 293.180004 -94.408765 
L 293.180004 -92.874824 
L 293.180004 -91.340883 
L 293.180004 -89.806942 
L 293.180004 -88.273001 
L 293.180004 -86.73906 
L 293.180004 -85.20512 
z
" style="stroke: #484848; stroke-width: 1.5"/>
    </defs>
    <g clip-path="url(#pbbb692f682)">
     <use xlink:href="#ma57ec8bf3d" x="0" y="353.211875" style="fill: #cc5a49; stroke: #484848; stroke-width: 1.5"/>
    </g>
   </g>
   <g id="PolyCollection_6">
    <defs>
     <path id="m6e3090b53d" d="M 293.492559 -53.424602 
L 293.180004 -53.424602 
L 293.180004 -54.788086 
L 293.180004 -56.15157 
L 293.180004 -57.515053 
L 293.180004 -58.878537 
L 293.180004 -60.24202 
L 293.180004 -61.605504 
L 293.180004 -62.968988 
L 293.180004 -64.332471 
L 293.180004 -65.695955 
L 293.180004 -67.059438 
L 293.180004 -68.422922 
L 293.180004 -69.786406 
L 293.180004 -71.149889 
L 293.180004 -72.513373 
L 293.180004 -73.876857 
L 293.180004 -75.24034 
L 293.180004 -76.603824 
L 293.180004 -77.967307 
L 293.180004 -79.330791 
L 293.180004 -80.694275 
L 293.180004 -82.057758 
L 293.180004 -83.421242 
L 293.180004 -84.784725 
L 293.180004 -86.148209 
L 293.180004 -87.511693 
L 293.180004 -88.875176 
L 293.180004 -90.23866 
L 293.180004 -91.602144 
L 293.180004 -92.965627 
L 293.180004 -94.329111 
L 293.180004 -95.692594 
L 293.180004 -97.056078 
L 293.180004 -98.419562 
L 293.180004 -99.783045 
L 293.180004 -101.146529 
L 293.180004 -102.510013 
L 293.180004 -103.873496 
L 293.180004 -105.23698 
L 293.180004 -106.600463 
L 293.180004 -107.963947 
L 293.180004 -109.327431 
L 293.180004 -110.690914 
L 293.180004 -112.054398 
L 293.180004 -113.417881 
L 293.180004 -114.781365 
L 293.180004 -116.144849 
L 293.180004 -117.508332 
L 293.180004 -118.871816 
L 293.180004 -120.2353 
L 293.180004 -121.598783 
L 293.180004 -122.962267 
L 293.180004 -124.32575 
L 293.180004 -125.689234 
L 293.180004 -127.052718 
L 293.180004 -128.416201 
L 293.180004 -129.779685 
L 293.180004 -131.143168 
L 293.180004 -132.506652 
L 293.180004 -133.870136 
L 293.180004 -135.233619 
L 293.180004 -136.597103 
L 293.180004 -137.960587 
L 293.180004 -139.32407 
L 293.180004 -140.687554 
L 293.180004 -142.051037 
L 293.180004 -143.414521 
L 293.180004 -144.778005 
L 293.180004 -146.141488 
L 293.180004 -147.504972 
L 293.180004 -148.868456 
L 293.180004 -150.231939 
L 293.180004 -151.595423 
L 293.180004 -152.958906 
L 293.180004 -154.32239 
L 293.180004 -155.685874 
L 293.180004 -157.049357 
L 293.180004 -158.412841 
L 293.180004 -159.776324 
L 293.180004 -161.139808 
L 293.180004 -162.503292 
L 293.180004 -163.866775 
L 293.180004 -165.230259 
L 293.180004 -166.593743 
L 293.180004 -167.957226 
L 293.180004 -169.32071 
L 293.180004 -170.684193 
L 293.180004 -172.047677 
L 293.180004 -173.411161 
L 293.180004 -174.774644 
L 293.180004 -176.138128 
L 293.180004 -177.501611 
L 293.180004 -178.865095 
L 293.180004 -180.228579 
L 293.180004 -181.592062 
L 293.180004 -182.955546 
L 293.180004 -184.31903 
L 293.180004 -185.682513 
L 293.180004 -187.045997 
L 293.180004 -188.40948 
L 293.494991 -188.40948 
L 293.494991 -188.40948 
L 293.599009 -187.045997 
L 293.726858 -185.682513 
L 293.88056 -184.31903 
L 294.061399 -182.955546 
L 294.269804 -181.592062 
L 294.505351 -180.228579 
L 294.766912 -178.865095 
L 295.052968 -177.501611 
L 295.36207 -176.138128 
L 295.693411 -174.774644 
L 296.047414 -173.411161 
L 296.426281 -172.047677 
L 296.83438 -170.684193 
L 297.278416 -169.32071 
L 297.767336 -167.957226 
L 298.311966 -166.593743 
L 298.924423 -165.230259 
L 299.617382 -163.866775 
L 300.403297 -162.503292 
L 301.293652 -161.139808 
L 302.298316 -159.776324 
L 303.425019 -158.412841 
L 304.678909 -157.049357 
L 306.062148 -155.685874 
L 307.573461 -154.32239 
L 309.207588 -152.958906 
L 310.954641 -151.595423 
L 312.799422 -150.231939 
L 314.720837 -148.868456 
L 316.691599 -147.504972 
L 318.6784 -146.141488 
L 320.642743 -144.778005 
L 322.542488 -143.414521 
L 324.334096 -142.051037 
L 325.975397 -140.687554 
L 327.428571 -139.32407 
L 328.662995 -137.960587 
L 329.657531 -136.597103 
L 330.401941 -135.233619 
L 330.897165 -133.870136 
L 331.154422 -132.506652 
L 331.193205 -131.143168 
L 331.038465 -129.779685 
L 330.717339 -128.416201 
L 330.25588 -127.052718 
L 329.676205 -125.689234 
L 328.994426 -124.32575 
L 328.219583 -122.962267 
L 327.353676 -121.598783 
L 326.39273 -120.2353 
L 325.328696 -118.871816 
L 324.151905 -117.508332 
L 322.853753 -116.144849 
L 321.429248 -114.781365 
L 319.879148 -113.417881 
L 318.211432 -112.054398 
L 316.441964 -110.690914 
L 314.594303 -109.327431 
L 312.698694 -107.963947 
L 310.790371 -106.600463 
L 308.907355 -105.23698 
L 307.087975 -103.873496 
L 305.368364 -102.510013 
L 303.780148 -101.146529 
L 302.348551 -99.783045 
L 301.091061 -98.419562 
L 300.01675 -97.056078 
L 299.126289 -95.692594 
L 298.412592 -94.329111 
L 297.862001 -92.965627 
L 297.455855 -91.602144 
L 297.172247 -90.23866 
L 296.987796 -88.875176 
L 296.879244 -87.511693 
L 296.824752 -86.148209 
L 296.804814 -84.784725 
L 296.802755 -83.421242 
L 296.804871 -82.057758 
L 296.800287 -80.694275 
L 296.780639 -79.330791 
L 296.739709 -77.967307 
L 296.673096 -76.603824 
L 296.577994 -75.24034 
L 296.453084 -73.876857 
L 296.298518 -72.513373 
L 296.115943 -71.149889 
L 295.908493 -69.786406 
L 295.680697 -68.422922 
L 295.438259 -67.059438 
L 295.187715 -65.695955 
L 294.935982 -64.332471 
L 294.689859 -62.968988 
L 294.45554 -61.605504 
L 294.238206 -60.24202 
L 294.041733 -58.878537 
L 293.868553 -57.515053 
L 293.719668 -56.15157 
L 293.594786 -54.788086 
L 293.492559 -53.424602 
z
" style="stroke: #484848; stroke-width: 1.5"/>
    </defs>
    <g clip-path="url(#pbbb692f682)">
     <use xlink:href="#m6e3090b53d" x="0" y="353.211875" style="fill: #4586ac; stroke: #484848; stroke-width: 1.5"/>
    </g>
   </g>
   <g id="line2d_12">
    <path d="M 103.114001 270.837231 
L 103.114001 141.803989 
" clip-path="url(#pbbb692f682)" style="fill: none; stroke: #484848; stroke-width: 1.5; stroke-linecap: square"/>
   </g>
   <g id="line2d_13">
    <path d="M 103.114001 237.322103 
L 103.114001 193.752437 
" clip-path="url(#pbbb692f682)" style="fill: none; stroke: #484848; stroke-width: 4.5; stroke-linecap: square"/>
   </g>
   <g id="line2d_14">
    <path d="M 198.147003 197.10395 
L 198.147003 39.582849 
" clip-path="url(#pbbb692f682)" style="fill: none; stroke: #484848; stroke-width: 1.5; stroke-linecap: square"/>
   </g>
   <g id="line2d_15">
    <path d="M 198.147003 146.831258 
L 198.147003 93.207054 
" clip-path="url(#pbbb692f682)" style="fill: none; stroke: #484848; stroke-width: 4.5; stroke-linecap: square"/>
   </g>
   <g id="line2d_16">
    <path d="M 293.180004 267.485718 
L 293.180004 156.885796 
" clip-path="url(#pbbb692f682)" style="fill: none; stroke: #484848; stroke-width: 1.5; stroke-linecap: square"/>
   </g>
   <g id="line2d_17">
    <path d="M 293.180004 228.105443 
L 293.180004 197.10395 
" clip-path="url(#pbbb692f682)" style="fill: none; stroke: #484848; stroke-width: 4.5; stroke-linecap: square"/>
   </g>
   <g id="patch_5">
    <path d="M 55.5975 313.72 
L 55.5975 7.2 
" style="fill: none; stroke: #ffffff; stroke-linejoin: miter; stroke-linecap: square"/>
   </g>
   <g id="patch_6">
    <path d="M 55.5975 313.72 
L 340.696505 313.72 
" style="fill: none; stroke: #ffffff; stroke-linejoin: miter; stroke-linecap: square"/>
   </g>
   <g id="PathCollection_1">
    <defs>
     <path id="m6117cd7cf5" d="M 0 1.5 
C 0.397805 1.5 0.77937 1.341951 1.06066 1.06066 
C 1.341951 0.77937 1.5 0.397805 1.5 0 
C 1.5 -0.397805 1.341951 -0.77937 1.06066 -1.06066 
C 0.77937 -1.341951 0.397805 -1.5 0 -1.5 
C -0.397805 -1.5 -0.77937 -1.341951 -1.06066 -1.06066 
C -1.341951 -0.77937 -1.5 -0.397805 -1.5 0 
C -1.5 0.397805 -1.341951 0.77937 -1.06066 1.06066 
C -0.77937 1.341951 -0.397805 1.5 0 1.5 
z
" style="stroke: #484848; stroke-width: 0.5"/>
    </defs>
    <g clip-path="url(#pbbb692f682)">
     <use xlink:href="#m6117cd7cf5" x="103.114001" y="213.861513" style="fill: #ffffff; stroke: #484848; stroke-width: 0.5"/>
    </g>
   </g>
   <g id="PathCollection_2">
    <g clip-path="url(#pbbb692f682)">
     <use xlink:href="#m6117cd7cf5" x="198.147003" y="126.722181" style="fill: #ffffff; stroke: #484848; stroke-width: 0.5"/>
    </g>
   </g>
   <g id="PathCollection_3">
    <g clip-path="url(#pbbb692f682)">
     <use xlink:href="#m6117cd7cf5" x="293.180004" y="213.861513" style="fill: #ffffff; stroke: #484848; stroke-width: 0.5"/>
    </g>
   </g>
  </g>
  <g id="legend_1">
   <g id="text_10">
    <!-- sex -->
    <g transform="translate(368.972261 164.687187) scale(0.1 -0.1)">
     <defs>
      <path id="DejaVuSans-78" d="M 3513 3500 
L 2247 1797 
L 3578 0 
L 2900 0 
L 1881 1375 
L 863 0 
L 184 0 
L 1544 1831 
L 300 3500 
L 978 3500 
L 1906 2253 
L 2834 3500 
L 3513 3500 
z
" transform="scale(0.015625)"/>
     </defs>
     <use xlink:href="#DejaVuSans-73"/>
     <use xlink:href="#DejaVuSans-65" x="52.099609"/>
     <use xlink:href="#DejaVuSans-78" x="111.873047"/>
    </g>
   </g>
   <g id="patch_7">
    <path d="M 346.288667 179.365312 
L 366.288667 179.365312 
L 366.288667 172.365312 
L 346.288667 172.365312 
z
" style="fill: #cc5a49; stroke: #484848; stroke-width: 0.75; stroke-linejoin: miter"/>
   </g>
   <g id="text_11">
    <!-- male -->
    <g transform="translate(374.288667 179.365312) scale(0.1 -0.1)">
     <use xlink:href="#DejaVuSans-6d"/>
     <use xlink:href="#DejaVuSans-61" x="97.412109"/>
     <use xlink:href="#DejaVuSans-6c" x="158.691406"/>
     <use xlink:href="#DejaVuSans-65" x="186.474609"/>
    </g>
   </g>
   <g id="patch_8">
    <path d="M 346.288667 194.043437 
L 366.288667 194.043437 
L 366.288667 187.043437 
L 346.288667 187.043437 
z
" style="fill: #4586ac; stroke: #484848; stroke-width: 0.75; stroke-linejoin: miter"/>
   </g>
   <g id="text_12">
    <!-- female -->
    <g transform="translate(374.288667 194.043437) scale(0.1 -0.1)">
     <defs>
      <path id="DejaVuSans-66" d="M 2375 4863 
L 2375 4384 
L 1825 4384 
Q 1516 4384 1395 4259 
Q 1275 4134 1275 3809 
L 1275 3500 
L 2222 3500 
L 2222 3053 
L 1275 3053 
L 1275 0 
L 697 0 
L 697 3053 
L 147 3053 
L 147 3500 
L 697 3500 
L 697 3744 
Q 697 4328 969 4595 
Q 1241 4863 1831 4863 
L 2375 4863 
z
" transform="scale(0.015625)"/>
     </defs>
     <use xlink:href="#DejaVuSans-66"/>
     <use xlink:href="#DejaVuSans-65" x="35.205078"/>
     <use xlink:href="#DejaVuSans-6d" x="96.728516"/>
     <use xlink:href="#DejaVuSans-61" x="194.140625"/>
     <use xlink:href="#DejaVuSans-6c" x="255.419922"/>
     <use xlink:href="#DejaVuSans-65" x="283.203125"/>
    </g>
   </g>
  </g>
 </g>
 <defs>
  <clipPath id="pbbb692f682">
   <rect x="55.5975" y="7.2" width="285.099005" height="306.52"/>
  </clipPath>
 </defs>
</svg>