<?xml version="1.0" encoding="utf-8" standalone="no"?>
<!DOCTYPE svg PUBLIC "-//W3C//DTD SVG 1.1//EN"
  "http://www.w3.org/Graphics/SVG/1.1/DTD/svg11.dtd">
<svg xmlns:xlink="http://www.w3.org/1999/xlink" width="627.046534pt" height="364.089375pt" viewBox="0 0 627.046534 364.089375" xmlns="http://www.w3.org/2000/svg" version="1.1">
 <metadata>
  <rdf:RDF xmlns:dc="http://purl.org/dc/elements/1.1/" xmlns:cc="http://creativecommons.org/ns#" xmlns:rdf="http://www.w3.org/1999/02/22-rdf-syntax-ns#">
   <cc:Work>
    <dc:type rdf:resource="http://purl.org/dc/dcmitype/StillImage"/>
    <dc:date>2023-05-08T00:08:57.749233</dc:date>
    <dc:format>image/svg+xml</dc:format>
    <dc:creator>
     <cc:Agent>
      <dc:title>Matplotlib v3.7.1, https://matplotlib.org/</dc:title>
     </cc:Agent>
    </dc:creator>
   </cc:Work>
  </rdf:RDF>
 </metadata>
 <defs>
  <style type="text/css">*{stroke-linejoin: round; stroke-linecap: butt}</style>
 </defs>
 <g id="figure_1">
  <g id="patch_1">
   <path d="M 0 364.089375 
L 627.046534 364.089375 
L 627.046534 0 
L 0 0 
z
" style="fill: #ffffff"/>
  </g>
  <g id="axes_1">
   <g id="patch_2">
    <path d="M 59.686875 339.84 
L 617.686875 339.84 
L 617.686875 7.2 
L 59.686875 7.2 
z
" style="fill: #eeeeee"/>
   </g>
   <g id="PolyCollection_1">
    <defs>
     <path id="m14f3bddd98" d="M 85.050511 -39.369375 
L 85.050511 -39.678668 
L 86.043217 -39.674641 
L 87.035923 -39.66495 
L 88.028629 -39.652117 
L 89.021335 -39.637922 
L 90.014041 -39.626771 
L 91.006747 -39.619456 
L 91.999453 -39.619012 
L 92.992159 -39.622821 
L 93.984865 -39.632829 
L 94.977571 -39.645457 
L 95.970277 -39.658164 
L 96.962982 -39.671638 
L 97.955688 -39.68582 
L 98.948394 -39.70295 
L 99.9411 -39.722802 
L 100.933806 -39.745191 
L 101.926512 -39.770287 
L 102.919218 -39.794913 
L 103.911924 -39.815722 
L 104.90463 -39.830977 
L 105.897336 -39.839471 
L 106.890042 -39.845071 
L 107.882748 -39.849221 
L 108.875454 -39.859038 
L 109.868159 -39.876465 
L 110.860865 -39.908454 
L 111.853571 -39.948491 
L 112.846277 -39.99371 
L 113.838983 -40.041362 
L 114.831689 -40.094709 
L 115.824395 -40.151135 
L 116.817101 -40.213033 
L 117.809807 -40.2857 
L 118.802513 -40.370406 
L 119.795219 -40.465348 
L 120.787925 -40.567113 
L 121.780631 -40.671845 
L 122.773336 -40.769728 
L 123.766042 -40.8591 
L 124.758748 -40.930701 
L 125.751454 -40.985306 
L 126.74416 -41.026092 
L 127.736866 -41.053285 
L 128.729572 -41.070838 
L 129.722278 -41.092034 
L 130.714984 -41.123091 
L 131.70769 -41.175027 
L 132.700396 -41.253971 
L 133.693102 -41.365399 
L 134.685808 -41.502626 
L 135.678513 -41.672619 
L 136.671219 -41.864436 
L 137.663925 -42.080292 
L 138.656631 -42.31932 
L 139.649337 -42.57712 
L 140.642043 -42.863945 
L 141.634749 -43.169819 
L 142.627455 -43.499795 
L 143.620161 -43.842242 
L 144.612867 -44.185849 
L 145.605573 -44.518001 
L 146.598279 -44.838731 
L 147.590985 -45.135992 
L 148.583691 -45.425285 
L 149.576396 -45.700925 
L 150.569102 -45.969793 
L 151.561808 -46.257281 
L 152.554514 -46.561154 
L 153.54722 -46.895889 
L 154.539926 -47.265401 
L 155.532632 -47.670782 
L 156.525338 -48.121703 
L 157.518044 -48.606673 
L 158.51075 -49.12657 
L 159.503456 -49.679321 
L 160.496162 -50.270626 
L 161.488868 -50.879298 
L 162.481573 -51.514045 
L 163.474279 -52.174391 
L 164.466985 -52.823497 
L 165.459691 -53.462258 
L 166.452397 -54.07228 
L 167.445103 -54.648791 
L 168.437809 -55.189229 
L 169.430515 -55.681995 
L 170.423221 -56.136516 
L 171.415927 -56.553978 
L 172.408633 -56.917539 
L 173.401339 -57.244893 
L 174.394045 -57.535346 
L 175.38675 -57.767244 
L 176.379456 -57.962841 
L 177.372162 -58.115405 
L 178.364868 -58.258119 
L 179.357574 -58.404302 
L 180.35028 -58.561757 
L 181.342986 -58.786114 
L 182.335692 -59.076081 
L 183.328398 -59.4426 
L 184.321104 -59.882599 
L 185.31381 -60.39078 
L 186.306516 -60.942577 
L 187.299222 -61.52662 
L 188.291927 -62.124879 
L 189.284633 -62.72024 
L 190.277339 -63.304 
L 191.270045 -63.871737 
L 192.262751 -64.404851 
L 193.255457 -64.879153 
L 194.248163 -65.27039 
L 195.240869 -65.562142 
L 196.233575 -65.737008 
L 197.226281 -65.789157 
L 198.218987 -65.722458 
L 199.211693 -65.55275 
L 200.204399 -65.311845 
L 201.197104 -65.031542 
L 202.18981 -64.731662 
L 203.182516 -64.446997 
L 204.175222 -64.220907 
L 205.167928 -64.05357 
L 206.160634 -64.026576 
L 207.15334 -64.125398 
L 208.146046 -64.391105 
L 209.138752 -64.824487 
L 210.131458 -65.393711 
L 211.124164 -66.07553 
L 212.11687 -66.854246 
L 213.109576 -67.680552 
L 214.102282 -68.525361 
L 215.094987 -69.360717 
L 216.087693 -70.152071 
L 217.080399 -70.928137 
L 218.073105 -71.647656 
L 219.065811 -72.313179 
L 220.058517 -72.935383 
L 221.051223 -73.484532 
L 222.043929 -73.984188 
L 223.036635 -74.453264 
L 224.029341 -74.915659 
L 225.022047 -75.405831 
L 226.014753 -75.995735 
L 227.007459 -76.761536 
L 228.000164 -77.768769 
L 228.99287 -79.065388 
L 229.985576 -80.681631 
L 230.978282 -82.679203 
L 231.970988 -85.15584 
L 232.963694 -88.073413 
L 233.9564 -91.331924 
L 234.949106 -95.004039 
L 235.941812 -99.1369 
L 236.934518 -103.828747 
L 237.927224 -109.093818 
L 238.91993 -114.837389 
L 239.912636 -120.893908 
L 240.905341 -126.88161 
L 241.898047 -132.391483 
L 242.890753 -136.931577 
L 243.883459 -140.086942 
L 244.876165 -141.718557 
L 245.868871 -141.862052 
L 246.861577 -140.767324 
L 247.854283 -138.809933 
L 248.846989 -136.464974 
L 249.839695 -134.065962 
L 250.832401 -131.897959 
L 251.825107 -130.163236 
L 252.817813 -129.029085 
L 253.810518 -128.577126 
L 254.803224 -128.858934 
L 255.79593 -129.881268 
L 256.788636 -131.798243 
L 257.781342 -134.655403 
L 258.774048 -138.289884 
L 259.766754 -142.746466 
L 260.75946 -147.920059 
L 261.752166 -153.794767 
L 262.744872 -160.325161 
L 263.737578 -167.373542 
L 264.730284 -174.791151 
L 265.72299 -182.282319 
L 266.715695 -189.571385 
L 267.708401 -196.317795 
L 268.701107 -202.126482 
L 269.693813 -206.716891 
L 270.686519 -209.962931 
L 271.679225 -211.827941 
L 272.671931 -212.419 
L 273.664637 -212.03328 
L 274.657343 -211.025209 
L 275.650049 -209.749125 
L 276.642755 -208.535221 
L 277.635461 -207.60546 
L 278.628167 -207.126379 
L 279.620873 -207.117479 
L 280.613578 -207.709803 
L 281.606284 -208.885466 
L 282.59899 -210.402169 
L 283.591696 -212.381668 
L 284.584402 -215.03566 
L 285.577108 -218.530066 
L 286.569814 -222.972478 
L 287.56252 -228.354034 
L 288.555226 -234.367894 
L 289.547932 -240.551734 
L 290.540638 -246.139121 
L 291.533344 -250.300411 
L 292.52605 -252.47406 
L 293.518755 -252.51294 
L 294.511461 -250.790213 
L 295.504167 -248.017667 
L 296.496873 -245.08062 
L 297.489579 -242.738318 
L 298.482285 -241.442512 
L 299.474991 -241.225998 
L 300.467697 -241.810985 
L 301.460403 -242.750308 
L 302.453109 -243.590017 
L 303.445815 -244.080419 
L 304.438521 -244.060916 
L 305.431227 -243.757663 
L 306.423932 -243.459117 
L 307.416638 -243.054042 
L 308.409344 -242.617613 
L 309.40205 -242.116762 
L 310.394756 -241.57909 
L 311.387462 -240.925074 
L 312.380168 -240.223396 
L 313.372874 -239.529436 
L 314.36558 -239.108776 
L 315.358286 -239.210662 
L 316.350992 -240.006829 
L 317.343698 -241.565107 
L 318.336404 -243.921496 
L 319.329109 -247.012992 
L 320.321815 -250.662784 
L 321.314521 -254.61573 
L 322.307227 -258.588679 
L 323.299933 -262.467807 
L 324.292639 -266.13095 
L 325.285345 -269.647763 
L 326.278051 -273.17748 
L 327.270757 -276.84222 
L 328.263463 -280.976259 
L 329.256169 -285.698732 
L 330.248875 -291.215774 
L 331.241581 -297.521891 
L 332.234286 -304.561145 
L 333.226992 -312.070657 
L 334.219698 -319.690556 
L 335.212404 -326.958858 
L 336.20511 -333.305033 
L 337.197816 -338.137388 
L 338.190522 -341.043529 
L 339.183228 -341.769375 
L 340.175934 -340.375573 
L 341.16864 -337.143565 
L 342.161346 -332.569888 
L 343.154052 -327.25917 
L 344.146758 -321.799167 
L 345.139464 -316.780807 
L 346.132169 -312.598489 
L 347.124875 -309.471588 
L 348.117581 -307.579749 
L 349.110287 -306.855802 
L 350.102993 -307.126224 
L 351.095699 -308.040993 
L 352.088405 -308.946336 
L 353.081111 -309.264181 
L 354.073817 -308.229478 
L 355.066523 -305.346015 
L 356.059229 -300.201788 
L 357.051935 -292.859729 
L 358.044641 -283.678103 
L 359.037346 -273.287001 
L 360.030052 -262.537822 
L 361.022758 -252.20111 
L 362.015464 -242.898828 
L 363.00817 -235.177637 
L 364.000876 -229.25718 
L 364.993582 -225.185403 
L 365.986288 -222.886648 
L 366.978994 -222.240557 
L 367.9717 -222.8207 
L 368.964406 -224.521093 
L 369.957112 -227.239996 
L 370.949818 -230.920901 
L 371.942523 -235.484448 
L 372.935229 -240.741126 
L 373.927935 -246.305233 
L 374.920641 -251.65356 
L 375.913347 -256.067641 
L 376.906053 -259.082761 
L 377.898759 -260.106899 
L 378.891465 -259.183375 
L 379.884171 -256.943028 
L 380.876877 -254.332209 
L 381.869583 -252.573543 
L 382.862289 -252.644738 
L 383.854995 -255.039701 
L 384.8477 -259.797212 
L 385.840406 -266.22549 
L 386.833112 -273.143293 
L 387.825818 -279.177267 
L 388.818524 -283.112356 
L 389.81123 -284.008355 
L 390.803936 -281.516796 
L 391.796642 -275.822151 
L 392.789348 -267.265391 
L 393.782054 -256.593654 
L 394.77476 -244.603615 
L 395.767466 -232.03028 
L 396.760172 -219.598626 
L 397.752877 -207.774893 
L 398.745583 -196.889989 
L 399.738289 -187.220307 
L 400.730995 -178.739416 
L 401.723701 -171.823261 
L 402.716407 -166.300003 
L 403.709113 -162.156542 
L 404.701819 -159.395383 
L 405.694525 -157.901602 
L 406.687231 -157.777223 
L 407.679937 -158.888985 
L 408.672643 -161.145829 
L 409.665349 -164.440555 
L 410.658055 -168.735787 
L 411.65076 -173.864099 
L 412.643466 -179.598194 
L 413.636172 -185.627074 
L 414.628878 -191.403669 
L 415.621584 -196.398843 
L 416.61429 -199.985923 
L 417.606996 -201.673687 
L 418.599702 -201.191738 
L 419.592408 -198.577617 
L 420.585114 -194.10952 
L 421.57782 -188.389215 
L 422.570526 -182.054665 
L 423.563232 -175.717666 
L 424.555937 -169.901738 
L 425.548643 -164.833731 
L 426.541349 -160.630699 
L 427.534055 -157.170822 
L 428.526761 -154.256969 
L 429.519467 -151.714876 
L 430.512173 -149.305779 
L 431.504879 -146.909609 
L 432.497585 -144.368875 
L 433.490291 -141.640587 
L 434.482997 -138.68058 
L 435.475703 -135.56838 
L 436.468409 -132.354007 
L 437.461114 -129.138698 
L 438.45382 -126.100123 
L 439.446526 -123.310762 
L 440.439232 -120.812238 
L 441.431938 -118.668797 
L 442.424644 -116.839028 
L 443.41735 -115.253446 
L 444.410056 -113.851129 
L 445.402762 -112.514893 
L 446.395468 -111.223421 
L 447.388174 -109.878095 
L 448.38088 -108.47498 
L 449.373586 -107.001274 
L 450.366291 -105.462776 
L 451.358997 -103.870565 
L 452.351703 -102.236548 
L 453.344409 -100.561706 
L 454.337115 -98.847033 
L 455.329821 -97.094433 
L 456.322527 -95.322229 
L 457.315233 -93.502619 
L 458.307939 -91.630539 
L 459.300645 -89.707174 
L 460.293351 -87.78294 
L 461.286057 -85.886747 
L 462.278763 -84.07345 
L 463.271468 -82.384701 
L 464.264174 -80.892926 
L 465.25688 -79.575646 
L 466.249586 -78.445715 
L 467.242292 -77.464742 
L 468.234998 -76.582613 
L 469.227704 -75.781768 
L 470.22041 -75.028667 
L 471.213116 -74.349957 
L 472.205822 -73.716808 
L 473.198528 -73.135369 
L 474.191234 -72.576974 
L 475.18394 -71.981942 
L 476.176646 -71.319389 
L 477.169351 -70.53736 
L 478.162057 -69.615092 
L 479.154763 -68.533136 
L 480.147469 -67.29817 
L 481.140175 -65.959833 
L 482.132881 -64.5646 
L 483.125587 -63.158004 
L 484.118293 -61.792862 
L 485.110999 -60.517166 
L 486.103705 -59.383915 
L 487.096411 -58.424077 
L 488.089117 -57.667002 
L 489.081823 -57.161263 
L 490.074528 -56.903027 
L 491.067234 -56.920876 
L 492.05994 -57.269596 
L 493.052646 -57.968805 
L 494.045352 -59.058953 
L 495.038058 -60.547361 
L 496.030764 -62.40351 
L 497.02347 -64.540146 
L 498.016176 -66.806969 
L 499.008882 -68.990764 
L 500.001588 -70.842979 
L 500.994294 -72.125018 
L 501.987 -72.650681 
L 502.979705 -72.31655 
L 503.972411 -71.122903 
L 504.965117 -69.171823 
L 505.957823 -66.640069 
L 506.950529 -63.756708 
L 507.943235 -60.753893 
L 508.935941 -57.84043 
L 509.928647 -55.172224 
L 510.921353 -52.862766 
L 511.914059 -50.932779 
L 512.906765 -49.361778 
L 513.899471 -48.129268 
L 514.892177 -47.162256 
L 515.884882 -46.368787 
L 516.877588 -45.719331 
L 517.870294 -45.150357 
L 518.863 -44.643449 
L 519.855706 -44.18953 
L 520.848412 -43.788928 
L 521.841118 -43.444353 
L 522.833824 -43.15958 
L 523.82653 -42.941934 
L 524.819236 -42.783851 
L 525.811942 -42.675645 
L 526.804648 -42.610355 
L 527.797354 -42.572291 
L 528.790059 -42.545938 
L 529.782765 -42.52548 
L 530.775471 -42.498576 
L 531.768177 -42.448569 
L 532.760883 -42.382374 
L 533.753589 -42.293882 
L 534.746295 -42.196145 
L 535.739001 -42.098924 
L 536.731707 -42.007638 
L 537.724413 -41.925348 
L 538.717119 -41.855792 
L 539.709825 -41.793532 
L 540.702531 -41.72682 
L 541.695237 -41.651436 
L 542.687942 -41.570075 
L 543.680648 -41.486373 
L 544.673354 -41.405528 
L 545.66606 -41.340807 
L 546.658766 -41.288321 
L 547.651472 -41.248664 
L 548.644178 -41.211671 
L 549.636884 -41.168123 
L 550.62959 -41.112537 
L 551.622296 -41.036646 
L 552.615002 -40.942814 
L 553.607708 -40.829156 
L 554.600414 -40.711726 
L 555.593119 -40.60368 
L 556.585825 -40.511184 
L 557.578531 -40.445418 
L 558.571237 -40.40927 
L 559.563943 -40.3961 
L 560.556649 -40.398041 
L 561.549355 -40.402031 
L 562.542061 -40.392798 
L 563.534767 -40.362451 
L 564.527473 -40.312099 
L 565.520179 -40.244269 
L 566.512885 -40.166612 
L 567.505591 -40.087879 
L 568.498296 -40.016296 
L 569.491002 -39.953453 
L 570.483708 -39.896507 
L 571.476414 -39.840305 
L 572.46912 -39.785723 
L 573.461826 -39.727314 
L 574.454532 -39.666043 
L 575.447238 -39.607629 
L 576.439944 -39.554929 
L 577.43265 -39.517498 
L 578.425356 -39.4916 
L 579.418062 -39.478684 
L 580.410768 -39.477326 
L 581.403473 -39.485951 
L 582.396179 -39.499682 
L 583.388885 -39.517908 
L 584.381591 -39.536191 
L 585.374297 -39.554659 
L 586.367003 -39.574913 
L 587.359709 -39.594511 
L 588.352415 -39.614312 
L 589.345121 -39.63383 
L 590.337827 -39.651748 
L 591.330533 -39.667479 
L 592.323239 -39.677504 
L 592.323239 -39.369375 
L 592.323239 -39.369375 
L 591.330533 -39.369375 
L 590.337827 -39.369375 
L 589.345121 -39.369375 
L 588.352415 -39.369375 
L 587.359709 -39.369375 
L 586.367003 -39.369375 
L 585.374297 -39.369375 
L 584.381591 -39.369375 
L 583.388885 -39.369375 
L 582.396179 -39.369375 
L 581.403473 -39.369375 
L 580.410768 -39.369375 
L 579.418062 -39.369375 
L 578.425356 -39.369375 
L 577.43265 -39.369375 
L 576.439944 -39.369375 
L 575.447238 -39.369375 
L 574.454532 -39.369375 
L 573.461826 -39.369375 
L 572.46912 -39.369375 
L 571.476414 -39.369375 
L 570.483708 -39.369375 
L 569.491002 -39.369375 
L 568.498296 -39.369375 
L 567.505591 -39.369375 
L 566.512885 -39.369375 
L 565.520179 -39.369375 
L 564.527473 -39.369375 
L 563.534767 -39.369375 
L 562.542061 -39.369375 
L 561.549355 -39.369375 
L 560.556649 -39.369375 
L 559.563943 -39.369375 
L 558.571237 -39.369375 
L 557.578531 -39.369375 
L 556.585825 -39.369375 
L 555.593119 -39.369375 
L 554.600414 -39.369375 
L 553.607708 -39.369375 
L 552.615002 -39.369375 
L 551.622296 -39.369375 
L 550.62959 -39.369375 
L 549.636884 -39.369375 
L 548.644178 -39.369375 
L 547.651472 -39.369375 
L 546.658766 -39.369375 
L 545.66606 -39.369375 
L 544.673354 -39.369375 
L 543.680648 -39.369375 
L 542.687942 -39.369375 
L 541.695237 -39.369375 
L 540.702531 -39.369375 
L 539.709825 -39.369375 
L 538.717119 -39.369375 
L 537.724413 -39.369375 
L 536.731707 -39.369375 
L 535.739001 -39.369375 
L 534.746295 -39.369375 
L 533.753589 -39.369375 
L 532.760883 -39.369375 
L 531.768177 -39.369375 
L 530.775471 -39.369375 
L 529.782765 -39.369375 
L 528.790059 -39.369375 
L 527.797354 -39.369375 
L 526.804648 -39.369375 
L 525.811942 -39.369375 
L 524.819236 -39.369375 
L 523.82653 -39.369375 
L 522.833824 -39.369375 
L 521.841118 -39.369375 
L 520.848412 -39.369375 
L 519.855706 -39.369375 
L 518.863 -39.369375 
L 517.870294 -39.369375 
L 516.877588 -39.369375 
L 515.884882 -39.369375 
L 514.892177 -39.369375 
L 513.899471 -39.369375 
L 512.906765 -39.369375 
L 511.914059 -39.369375 
L 510.921353 -39.369375 
L 509.928647 -39.369375 
L 508.935941 -39.369375 
L 507.943235 -39.369375 
L 506.950529 -39.369375 
L 505.957823 -39.369375 
L 504.965117 -39.369375 
L 503.972411 -39.369375 
L 502.979705 -39.369375 
L 501.987 -39.369375 
L 500.994294 -39.369375 
L 500.001588 -39.369375 
L 499.008882 -39.369375 
L 498.016176 -39.369375 
L 497.02347 -39.369375 
L 496.030764 -39.369375 
L 495.038058 -39.369375 
L 494.045352 -39.369375 
L 493.052646 -39.369375 
L 492.05994 -39.369375 
L 491.067234 -39.369375 
L 490.074528 -39.369375 
L 489.081823 -39.369375 
L 488.089117 -39.369375 
L 487.096411 -39.369375 
L 486.103705 -39.369375 
L 485.110999 -39.369375 
L 484.118293 -39.369375 
L 483.125587 -39.369375 
L 482.132881 -39.369375 
L 481.140175 -39.369375 
L 480.147469 -39.369375 
L 479.154763 -39.369375 
L 478.162057 -39.369375 
L 477.169351 -39.369375 
L 476.176646 -39.369375 
L 475.18394 -39.369375 
L 474.191234 -39.369375 
L 473.198528 -39.369375 
L 472.205822 -39.369375 
L 471.213116 -39.369375 
L 470.22041 -39.369375 
L 469.227704 -39.369375 
L 468.234998 -39.369375 
L 467.242292 -39.369375 
L 466.249586 -39.369375 
L 465.25688 -39.369375 
L 464.264174 -39.369375 
L 463.271468 -39.369375 
L 462.278763 -39.369375 
L 461.286057 -39.369375 
L 460.293351 -39.369375 
L 459.300645 -39.369375 
L 458.307939 -39.369375 
L 457.315233 -39.369375 
L 456.322527 -39.369375 
L 455.329821 -39.369375 
L 454.337115 -39.369375 
L 453.344409 -39.369375 
L 452.351703 -39.369375 
L 451.358997 -39.369375 
L 450.366291 -39.369375 
L 449.373586 -39.369375 
L 448.38088 -39.369375 
L 447.388174 -39.369375 
L 446.395468 -39.369375 
L 445.402762 -39.369375 
L 444.410056 -39.369375 
L 443.41735 -39.369375 
L 442.424644 -39.369375 
L 441.431938 -39.369375 
L 440.439232 -39.369375 
L 439.446526 -39.369375 
L 438.45382 -39.369375 
L 437.461114 -39.369375 
L 436.468409 -39.369375 
L 435.475703 -39.369375 
L 434.482997 -39.369375 
L 433.490291 -39.369375 
L 432.497585 -39.369375 
L 431.504879 -39.369375 
L 430.512173 -39.369375 
L 429.519467 -39.369375 
L 428.526761 -39.369375 
L 427.534055 -39.369375 
L 426.541349 -39.369375 
L 425.548643 -39.369375 
L 424.555937 -39.369375 
L 423.563232 -39.369375 
L 422.570526 -39.369375 
L 421.57782 -39.369375 
L 420.585114 -39.369375 
L 419.592408 -39.369375 
L 418.599702 -39.369375 
L 417.606996 -39.369375 
L 416.61429 -39.369375 
L 415.621584 -39.369375 
L 414.628878 -39.369375 
L 413.636172 -39.369375 
L 412.643466 -39.369375 
L 411.65076 -39.369375 
L 410.658055 -39.369375 
L 409.665349 -39.369375 
L 408.672643 -39.369375 
L 407.679937 -39.369375 
L 406.687231 -39.369375 
L 405.694525 -39.369375 
L 404.701819 -39.369375 
L 403.709113 -39.369375 
L 402.716407 -39.369375 
L 401.723701 -39.369375 
L 400.730995 -39.369375 
L 399.738289 -39.369375 
L 398.745583 -39.369375 
L 397.752877 -39.369375 
L 396.760172 -39.369375 
L 395.767466 -39.369375 
L 394.77476 -39.369375 
L 393.782054 -39.369375 
L 392.789348 -39.369375 
L 391.796642 -39.369375 
L 390.803936 -39.369375 
L 389.81123 -39.369375 
L 388.818524 -39.369375 
L 387.825818 -39.369375 
L 386.833112 -39.369375 
L 385.840406 -39.369375 
L 384.8477 -39.369375 
L 383.854995 -39.369375 
L 382.862289 -39.369375 
L 381.869583 -39.369375 
L 380.876877 -39.369375 
L 379.884171 -39.369375 
L 378.891465 -39.369375 
L 377.898759 -39.369375 
L 376.906053 -39.369375 
L 375.913347 -39.369375 
L 374.920641 -39.369375 
L 373.927935 -39.369375 
L 372.935229 -39.369375 
L 371.942523 -39.369375 
L 370.949818 -39.369375 
L 369.957112 -39.369375 
L 368.964406 -39.369375 
L 367.9717 -39.369375 
L 366.978994 -39.369375 
L 365.986288 -39.369375 
L 364.993582 -39.369375 
L 364.000876 -39.369375 
L 363.00817 -39.369375 
L 362.015464 -39.369375 
L 361.022758 -39.369375 
L 360.030052 -39.369375 
L 359.037346 -39.369375 
L 358.044641 -39.369375 
L 357.051935 -39.369375 
L 356.059229 -39.369375 
L 355.066523 -39.369375 
L 354.073817 -39.369375 
L 353.081111 -39.369375 
L 352.088405 -39.369375 
L 351.095699 -39.369375 
L 350.102993 -39.369375 
L 349.110287 -39.369375 
L 348.117581 -39.369375 
L 347.124875 -39.369375 
L 346.132169 -39.369375 
L 345.139464 -39.369375 
L 344.146758 -39.369375 
L 343.154052 -39.369375 
L 342.161346 -39.369375 
L 341.16864 -39.369375 
L 340.175934 -39.369375 
L 339.183228 -39.369375 
L 338.190522 -39.369375 
L 337.197816 -39.369375 
L 336.20511 -39.369375 
L 335.212404 -39.369375 
L 334.219698 -39.369375 
L 333.226992 -39.369375 
L 332.234286 -39.369375 
L 331.241581 -39.369375 
L 330.248875 -39.369375 
L 329.256169 -39.369375 
L 328.263463 -39.369375 
L 327.270757 -39.369375 
L 326.278051 -39.369375 
L 325.285345 -39.369375 
L 324.292639 -39.369375 
L 323.299933 -39.369375 
L 322.307227 -39.369375 
L 321.314521 -39.369375 
L 320.321815 -39.369375 
L 319.329109 -39.369375 
L 318.336404 -39.369375 
L 317.343698 -39.369375 
L 316.350992 -39.369375 
L 315.358286 -39.369375 
L 314.36558 -39.369375 
L 313.372874 -39.369375 
L 312.380168 -39.369375 
L 311.387462 -39.369375 
L 310.394756 -39.369375 
L 309.40205 -39.369375 
L 308.409344 -39.369375 
L 307.416638 -39.369375 
L 306.423932 -39.369375 
L 305.431227 -39.369375 
L 304.438521 -39.369375 
L 303.445815 -39.369375 
L 302.453109 -39.369375 
L 301.460403 -39.369375 
L 300.467697 -39.369375 
L 299.474991 -39.369375 
L 298.482285 -39.369375 
L 297.489579 -39.369375 
L 296.496873 -39.369375 
L 295.504167 -39.369375 
L 294.511461 -39.369375 
L 293.518755 -39.369375 
L 292.52605 -39.369375 
L 291.533344 -39.369375 
L 290.540638 -39.369375 
L 289.547932 -39.369375 
L 288.555226 -39.369375 
L 287.56252 -39.369375 
L 286.569814 -39.369375 
L 285.577108 -39.369375 
L 284.584402 -39.369375 
L 283.591696 -39.369375 
L 282.59899 -39.369375 
L 281.606284 -39.369375 
L 280.613578 -39.369375 
L 279.620873 -39.369375 
L 278.628167 -39.369375 
L 277.635461 -39.369375 
L 276.642755 -39.369375 
L 275.650049 -39.369375 
L 274.657343 -39.369375 
L 273.664637 -39.369375 
L 272.671931 -39.369375 
L 271.679225 -39.369375 
L 270.686519 -39.369375 
L 269.693813 -39.369375 
L 268.701107 -39.369375 
L 267.708401 -39.369375 
L 266.715695 -39.369375 
L 265.72299 -39.369375 
L 264.730284 -39.369375 
L 263.737578 -39.369375 
L 262.744872 -39.369375 
L 261.752166 -39.369375 
L 260.75946 -39.369375 
L 259.766754 -39.369375 
L 258.774048 -39.369375 
L 257.781342 -39.369375 
L 256.788636 -39.369375 
L 255.79593 -39.369375 
L 254.803224 -39.369375 
L 253.810518 -39.369375 
L 252.817813 -39.369375 
L 251.825107 -39.369375 
L 250.832401 -39.369375 
L 249.839695 -39.369375 
L 248.846989 -39.369375 
L 247.854283 -39.369375 
L 246.861577 -39.369375 
L 245.868871 -39.369375 
L 244.876165 -39.369375 
L 243.883459 -39.369375 
L 242.890753 -39.369375 
L 241.898047 -39.369375 
L 240.905341 -39.369375 
L 239.912636 -39.369375 
L 238.91993 -39.369375 
L 237.927224 -39.369375 
L 236.934518 -39.369375 
L 235.941812 -39.369375 
L 234.949106 -39.369375 
L 233.9564 -39.369375 
L 232.963694 -39.369375 
L 231.970988 -39.369375 
L 230.978282 -39.369375 
L 229.985576 -39.369375 
L 228.99287 -39.369375 
L 228.000164 -39.369375 
L 227.007459 -39.369375 
L 226.014753 -39.369375 
L 225.022047 -39.369375 
L 224.029341 -39.369375 
L 223.036635 -39.369375 
L 222.043929 -39.369375 
L 221.051223 -39.369375 
L 220.058517 -39.369375 
L 219.065811 -39.369375 
L 218.073105 -39.369375 
L 217.080399 -39.369375 
L 216.087693 -39.369375 
L 215.094987 -39.369375 
L 214.102282 -39.369375 
L 213.109576 -39.369375 
L 212.11687 -39.369375 
L 211.124164 -39.369375 
L 210.131458 -39.369375 
L 209.138752 -39.369375 
L 208.146046 -39.369375 
L 207.15334 -39.369375 
L 206.160634 -39.369375 
L 205.167928 -39.369375 
L 204.175222 -39.369375 
L 203.182516 -39.369375 
L 202.18981 -39.369375 
L 201.197104 -39.369375 
L 200.204399 -39.369375 
L 199.211693 -39.369375 
L 198.218987 -39.369375 
L 197.226281 -39.369375 
L 196.233575 -39.369375 
L 195.240869 -39.369375 
L 194.248163 -39.369375 
L 193.255457 -39.369375 
L 192.262751 -39.369375 
L 191.270045 -39.369375 
L 190.277339 -39.369375 
L 189.284633 -39.369375 
L 188.291927 -39.369375 
L 187.299222 -39.369375 
L 186.306516 -39.369375 
L 185.31381 -39.369375 
L 184.321104 -39.369375 
L 183.328398 -39.369375 
L 182.335692 -39.369375 
L 181.342986 -39.369375 
L 180.35028 -39.369375 
L 179.357574 -39.369375 
L 178.364868 -39.369375 
L 177.372162 -39.369375 
L 176.379456 -39.369375 
L 175.38675 -39.369375 
L 174.394045 -39.369375 
L 173.401339 -39.369375 
L 172.408633 -39.369375 
L 171.415927 -39.369375 
L 170.423221 -39.369375 
L 169.430515 -39.369375 
L 168.437809 -39.369375 
L 167.445103 -39.369375 
L 166.452397 -39.369375 
L 165.459691 -39.369375 
L 164.466985 -39.369375 
L 163.474279 -39.369375 
L 162.481573 -39.369375 
L 161.488868 -39.369375 
L 160.496162 -39.369375 
L 159.503456 -39.369375 
L 158.51075 -39.369375 
L 157.518044 -39.369375 
L 156.525338 -39.369375 
L 155.532632 -39.369375 
L 154.539926 -39.369375 
L 153.54722 -39.369375 
L 152.554514 -39.369375 
L 151.561808 -39.369375 
L 150.569102 -39.369375 
L 149.576396 -39.369375 
L 148.583691 -39.369375 
L 147.590985 -39.369375 
L 146.598279 -39.369375 
L 145.605573 -39.369375 
L 144.612867 -39.369375 
L 143.620161 -39.369375 
L 142.627455 -39.369375 
L 141.634749 -39.369375 
L 140.642043 -39.369375 
L 139.649337 -39.369375 
L 138.656631 -39.369375 
L 137.663925 -39.369375 
L 136.671219 -39.369375 
L 135.678513 -39.369375 
L 134.685808 -39.369375 
L 133.693102 -39.369375 
L 132.700396 -39.369375 
L 131.70769 -39.369375 
L 130.714984 -39.369375 
L 129.722278 -39.369375 
L 128.729572 -39.369375 
L 127.736866 -39.369375 
L 126.74416 -39.369375 
L 125.751454 -39.369375 
L 124.758748 -39.369375 
L 123.766042 -39.369375 
L 122.773336 -39.369375 
L 121.780631 -39.369375 
L 120.787925 -39.369375 
L 119.795219 -39.369375 
L 118.802513 -39.369375 
L 117.809807 -39.369375 
L 116.817101 -39.369375 
L 115.824395 -39.369375 
L 114.831689 -39.369375 
L 113.838983 -39.369375 
L 112.846277 -39.369375 
L 111.853571 -39.369375 
L 110.860865 -39.369375 
L 109.868159 -39.369375 
L 108.875454 -39.369375 
L 107.882748 -39.369375 
L 106.890042 -39.369375 
L 105.897336 -39.369375 
L 104.90463 -39.369375 
L 103.911924 -39.369375 
L 102.919218 -39.369375 
L 101.926512 -39.369375 
L 100.933806 -39.369375 
L 99.9411 -39.369375 
L 98.948394 -39.369375 
L 97.955688 -39.369375 
L 96.962982 -39.369375 
L 95.970277 -39.369375 
L 94.977571 -39.369375 
L 93.984865 -39.369375 
L 92.992159 -39.369375 
L 91.999453 -39.369375 
L 91.006747 -39.369375 
L 90.014041 -39.369375 
L 89.021335 -39.369375 
L 88.028629 -39.369375 
L 87.035923 -39.369375 
L 86.043217 -39.369375 
L 85.050511 -39.369375 
z
" style="stroke: #348abd; stroke-opacity: 0; stroke-width: 0.5"/>
    </defs>
    <g clip-path="url(#pa6832699e5)">
     <use xlink:href="#m14f3bddd98" x="0" y="364.089375" style="fill: #348abd; fill-opacity: 0; stroke: #348abd; stroke-opacity: 0; stroke-width: 0.5"/>
    </g>
   </g>
   <g id="matplotlib.axis_1">
    <g id="xtick_1">
     <g id="line2d_1">
      <path d="M 105.248194 339.84 
L 105.248194 7.2 
" clip-path="url(#pa6832699e5)" style="fill: none; stroke-dasharray: 1.85,0.8; stroke-dashoffset: 0; stroke: #b2b2b2; stroke-width: 0.5"/>
     </g>
     <g id="line2d_2">
      <defs>
       <path id="md964c83ca9" d="M 0 0 
L 0 -3.5 
" style="stroke: #000000; stroke-width: 0.8"/>
      </defs>
      <g>
       <use xlink:href="#md964c83ca9" x="105.248194" y="339.84" style="stroke: #000000; stroke-width: 0.8"/>
      </g>
     </g>
     <g id="text_1">
      <!-- −400 -->
      <g transform="translate(86.021163 353.977813) scale(0.14 -0.14)">
       <defs>
        <path id="DejaVuSans-2212" d="M 678 2272 
L 4684 2272 
L 4684 1741 
L 678 1741 
L 678 2272 
z
" transform="scale(0.015625)"/>
        <path id="DejaVuSans-34" d="M 2419 4116 
L 825 1625 
L 2419 1625 
L 2419 4116 
z
M 2253 4666 
L 3047 4666 
L 3047 1625 
L 3713 1625 
L 3713 1100 
L 3047 1100 
L 3047 0 
L 2419 0 
L 2419 1100 
L 313 1100 
L 313 1709 
L 2253 4666 
z
" transform="scale(0.015625)"/>
        <path id="DejaVuSans-30" d="M 2034 4250 
Q 1547 4250 1301 3770 
Q 1056 3291 1056 2328 
Q 1056 1369 1301 889 
Q 1547 409 2034 409 
Q 2525 409 2770 889 
Q 3016 1369 3016 2328 
Q 3016 3291 2770 3770 
Q 2525 4250 2034 4250 
z
M 2034 4750 
Q 2819 4750 3233 4129 
Q 3647 3509 3647 2328 
Q 3647 1150 3233 529 
Q 2819 -91 2034 -91 
Q 1250 -91 836 529 
Q 422 1150 422 2328 
Q 422 3509 836 4129 
Q 1250 4750 2034 4750 
z
" transform="scale(0.015625)"/>
       </defs>
       <use xlink:href="#DejaVuSans-2212"/>
       <use xlink:href="#DejaVuSans-34" x="83.789062"/>
       <use xlink:href="#DejaVuSans-30" x="147.412109"/>
       <use xlink:href="#DejaVuSans-30" x="211.035156"/>
      </g>
     </g>
    </g>
    <g id="xtick_2">
     <g id="line2d_3">
      <path d="M 205.495612 339.84 
L 205.495612 7.2 
" clip-path="url(#pa6832699e5)" style="fill: none; stroke-dasharray: 1.85,0.8; stroke-dashoffset: 0; stroke: #b2b2b2; stroke-width: 0.5"/>
     </g>
     <g id="line2d_4">
      <g>
       <use xlink:href="#md964c83ca9" x="205.495612" y="339.84" style="stroke: #000000; stroke-width: 0.8"/>
      </g>
     </g>
     <g id="text_2">
      <!-- −200 -->
      <g transform="translate(186.268581 353.977813) scale(0.14 -0.14)">
       <defs>
        <path id="DejaVuSans-32" d="M 1228 531 
L 3431 531 
L 3431 0 
L 469 0 
L 469 531 
Q 828 903 1448 1529 
Q 2069 2156 2228 2338 
Q 2531 2678 2651 2914 
Q 2772 3150 2772 3378 
Q 2772 3750 2511 3984 
Q 2250 4219 1831 4219 
Q 1534 4219 1204 4116 
Q 875 4013 500 3803 
L 500 4441 
Q 881 4594 1212 4672 
Q 1544 4750 1819 4750 
Q 2544 4750 2975 4387 
Q 3406 4025 3406 3419 
Q 3406 3131 3298 2873 
Q 3191 2616 2906 2266 
Q 2828 2175 2409 1742 
Q 1991 1309 1228 531 
z
" transform="scale(0.015625)"/>
       </defs>
       <use xlink:href="#DejaVuSans-2212"/>
       <use xlink:href="#DejaVuSans-32" x="83.789062"/>
       <use xlink:href="#DejaVuSans-30" x="147.412109"/>
       <use xlink:href="#DejaVuSans-30" x="211.035156"/>
      </g>
     </g>
    </g>
    <g id="xtick_3">
     <g id="line2d_5">
      <path d="M 305.74303 339.84 
L 305.74303 7.2 
" clip-path="url(#pa6832699e5)" style="fill: none; stroke-dasharray: 1.85,0.8; stroke-dashoffset: 0; stroke: #b2b2b2; stroke-width: 0.5"/>
     </g>
     <g id="line2d_6">
      <g>
       <use xlink:href="#md964c83ca9" x="305.74303" y="339.84" style="stroke: #000000; stroke-width: 0.8"/>
      </g>
     </g>
     <g id="text_3">
      <!-- 0 -->
      <g transform="translate(301.28928 353.977813) scale(0.14 -0.14)">
       <use xlink:href="#DejaVuSans-30"/>
      </g>
     </g>
    </g>
    <g id="xtick_4">
     <g id="line2d_7">
      <path d="M 405.990448 339.84 
L 405.990448 7.2 
" clip-path="url(#pa6832699e5)" style="fill: none; stroke-dasharray: 1.85,0.8; stroke-dashoffset: 0; stroke: #b2b2b2; stroke-width: 0.5"/>
     </g>
     <g id="line2d_8">
      <g>
       <use xlink:href="#md964c83ca9" x="405.990448" y="339.84" style="stroke: #000000; stroke-width: 0.8"/>
      </g>
     </g>
     <g id="text_4">
      <!-- 200 -->
      <g transform="translate(392.629198 353.977813) scale(0.14 -0.14)">
       <use xlink:href="#DejaVuSans-32"/>
       <use xlink:href="#DejaVuSans-30" x="63.623047"/>
       <use xlink:href="#DejaVuSans-30" x="127.246094"/>
      </g>
     </g>
    </g>
    <g id="xtick_5">
     <g id="line2d_9">
      <path d="M 506.237866 339.84 
L 506.237866 7.2 
" clip-path="url(#pa6832699e5)" style="fill: none; stroke-dasharray: 1.85,0.8; stroke-dashoffset: 0; stroke: #b2b2b2; stroke-width: 0.5"/>
     </g>
     <g id="line2d_10">
      <g>
       <use xlink:href="#md964c83ca9" x="506.237866" y="339.84" style="stroke: #000000; stroke-width: 0.8"/>
      </g>
     </g>
     <g id="text_5">
      <!-- 400 -->
      <g transform="translate(492.876616 353.977813) scale(0.14 -0.14)">
       <use xlink:href="#DejaVuSans-34"/>
       <use xlink:href="#DejaVuSans-30" x="63.623047"/>
       <use xlink:href="#DejaVuSans-30" x="127.246094"/>
      </g>
     </g>
    </g>
    <g id="xtick_6">
     <g id="line2d_11">
      <path d="M 606.485284 339.84 
L 606.485284 7.2 
" clip-path="url(#pa6832699e5)" style="fill: none; stroke-dasharray: 1.85,0.8; stroke-dashoffset: 0; stroke: #b2b2b2; stroke-width: 0.5"/>
     </g>
     <g id="line2d_12">
      <g>
       <use xlink:href="#md964c83ca9" x="606.485284" y="339.84" style="stroke: #000000; stroke-width: 0.8"/>
      </g>
     </g>
     <g id="text_6">
      <!-- 600 -->
      <g transform="translate(593.124034 353.977813) scale(0.14 -0.14)">
       <defs>
        <path id="DejaVuSans-36" d="M 2113 2584 
Q 1688 2584 1439 2293 
Q 1191 2003 1191 1497 
Q 1191 994 1439 701 
Q 1688 409 2113 409 
Q 2538 409 2786 701 
Q 3034 994 3034 1497 
Q 3034 2003 2786 2293 
Q 2538 2584 2113 2584 
z
M 3366 4563 
L 3366 3988 
Q 3128 4100 2886 4159 
Q 2644 4219 2406 4219 
Q 1781 4219 1451 3797 
Q 1122 3375 1075 2522 
Q 1259 2794 1537 2939 
Q 1816 3084 2150 3084 
Q 2853 3084 3261 2657 
Q 3669 2231 3669 1497 
Q 3669 778 3244 343 
Q 2819 -91 2113 -91 
Q 1303 -91 875 529 
Q 447 1150 447 2328 
Q 447 3434 972 4092 
Q 1497 4750 2381 4750 
Q 2619 4750 2861 4703 
Q 3103 4656 3366 4563 
z
" transform="scale(0.015625)"/>
       </defs>
       <use xlink:href="#DejaVuSans-36"/>
       <use xlink:href="#DejaVuSans-30" x="63.623047"/>
       <use xlink:href="#DejaVuSans-30" x="127.246094"/>
      </g>
     </g>
    </g>
   </g>
   <g id="matplotlib.axis_2">
    <g id="ytick_1">
     <g id="line2d_13">
      <path d="M 59.686875 324.72 
L 617.686875 324.72 
" clip-path="url(#pa6832699e5)" style="fill: none; stroke-dasharray: 1.85,0.8; stroke-dashoffset: 0; stroke: #b2b2b2; stroke-width: 0.5"/>
     </g>
     <g id="line2d_14">
      <defs>
       <path id="m7715f0fe5e" d="M 0 0 
L 3.5 0 
" style="stroke: #000000; stroke-width: 0.8"/>
      </defs>
      <g>
       <use xlink:href="#m7715f0fe5e" x="59.686875" y="324.72" style="stroke: #000000; stroke-width: 0.8"/>
      </g>
     </g>
     <g id="text_7">
      <!-- 0.0000 -->
      <g transform="translate(7.2 330.038906) scale(0.14 -0.14)">
       <defs>
        <path id="DejaVuSans-2e" d="M 684 794 
L 1344 794 
L 1344 0 
L 684 0 
L 684 794 
z
" transform="scale(0.015625)"/>
       </defs>
       <use xlink:href="#DejaVuSans-30"/>
       <use xlink:href="#DejaVuSans-2e" x="63.623047"/>
       <use xlink:href="#DejaVuSans-30" x="95.410156"/>
       <use xlink:href="#DejaVuSans-30" x="159.033203"/>
       <use xlink:href="#DejaVuSans-30" x="222.65625"/>
       <use xlink:href="#DejaVuSans-30" x="286.279297"/>
      </g>
     </g>
    </g>
    <g id="ytick_2">
     <g id="line2d_15">
      <path d="M 59.686875 282.560166 
L 617.686875 282.560166 
" clip-path="url(#pa6832699e5)" style="fill: none; stroke-dasharray: 1.85,0.8; stroke-dashoffset: 0; stroke: #b2b2b2; stroke-width: 0.5"/>
     </g>
     <g id="line2d_16">
      <g>
       <use xlink:href="#m7715f0fe5e" x="59.686875" y="282.560166" style="stroke: #000000; stroke-width: 0.8"/>
      </g>
     </g>
     <g id="text_8">
      <!-- 0.0005 -->
      <g transform="translate(7.2 287.879073) scale(0.14 -0.14)">
       <defs>
        <path id="DejaVuSans-35" d="M 691 4666 
L 3169 4666 
L 3169 4134 
L 1269 4134 
L 1269 2991 
Q 1406 3038 1543 3061 
Q 1681 3084 1819 3084 
Q 2600 3084 3056 2656 
Q 3513 2228 3513 1497 
Q 3513 744 3044 326 
Q 2575 -91 1722 -91 
Q 1428 -91 1123 -41 
Q 819 9 494 109 
L 494 744 
Q 775 591 1075 516 
Q 1375 441 1709 441 
Q 2250 441 2565 725 
Q 2881 1009 2881 1497 
Q 2881 1984 2565 2268 
Q 2250 2553 1709 2553 
Q 1456 2553 1204 2497 
Q 953 2441 691 2322 
L 691 4666 
z
" transform="scale(0.015625)"/>
       </defs>
       <use xlink:href="#DejaVuSans-30"/>
       <use xlink:href="#DejaVuSans-2e" x="63.623047"/>
       <use xlink:href="#DejaVuSans-30" x="95.410156"/>
       <use xlink:href="#DejaVuSans-30" x="159.033203"/>
       <use xlink:href="#DejaVuSans-30" x="222.65625"/>
       <use xlink:href="#DejaVuSans-35" x="286.279297"/>
      </g>
     </g>
    </g>
    <g id="ytick_3">
     <g id="line2d_17">
      <path d="M 59.686875 240.400333 
L 617.686875 240.400333 
" clip-path="url(#pa6832699e5)" style="fill: none; stroke-dasharray: 1.85,0.8; stroke-dashoffset: 0; stroke: #b2b2b2; stroke-width: 0.5"/>
     </g>
     <g id="line2d_18">
      <g>
       <use xlink:href="#m7715f0fe5e" x="59.686875" y="240.400333" style="stroke: #000000; stroke-width: 0.8"/>
      </g>
     </g>
     <g id="text_9">
      <!-- 0.0010 -->
      <g transform="translate(7.2 245.719239) scale(0.14 -0.14)">
       <defs>
        <path id="DejaVuSans-31" d="M 794 531 
L 1825 531 
L 1825 4091 
L 703 3866 
L 703 4441 
L 1819 4666 
L 2450 4666 
L 2450 531 
L 3481 531 
L 3481 0 
L 794 0 
L 794 531 
z
" transform="scale(0.015625)"/>
       </defs>
       <use xlink:href="#DejaVuSans-30"/>
       <use xlink:href="#DejaVuSans-2e" x="63.623047"/>
       <use xlink:href="#DejaVuSans-30" x="95.410156"/>
       <use xlink:href="#DejaVuSans-30" x="159.033203"/>
       <use xlink:href="#DejaVuSans-31" x="222.65625"/>
       <use xlink:href="#DejaVuSans-30" x="286.279297"/>
      </g>
     </g>
    </g>
    <g id="ytick_4">
     <g id="line2d_19">
      <path d="M 59.686875 198.240499 
L 617.686875 198.240499 
" clip-path="url(#pa6832699e5)" style="fill: none; stroke-dasharray: 1.85,0.8; stroke-dashoffset: 0; stroke: #b2b2b2; stroke-width: 0.5"/>
     </g>
     <g id="line2d_20">
      <g>
       <use xlink:href="#m7715f0fe5e" x="59.686875" y="198.240499" style="stroke: #000000; stroke-width: 0.8"/>
      </g>
     </g>
     <g id="text_10">
      <!-- 0.0015 -->
      <g transform="translate(7.2 203.559406) scale(0.14 -0.14)">
       <use xlink:href="#DejaVuSans-30"/>
       <use xlink:href="#DejaVuSans-2e" x="63.623047"/>
       <use xlink:href="#DejaVuSans-30" x="95.410156"/>
       <use xlink:href="#DejaVuSans-30" x="159.033203"/>
       <use xlink:href="#DejaVuSans-31" x="222.65625"/>
       <use xlink:href="#DejaVuSans-35" x="286.279297"/>
      </g>
     </g>
    </g>
    <g id="ytick_5">
     <g id="line2d_21">
      <path d="M 59.686875 156.080666 
L 617.686875 156.080666 
" clip-path="url(#pa6832699e5)" style="fill: none; stroke-dasharray: 1.85,0.8; stroke-dashoffset: 0; stroke: #b2b2b2; stroke-width: 0.5"/>
     </g>
     <g id="line2d_22">
      <g>
       <use xlink:href="#m7715f0fe5e" x="59.686875" y="156.080666" style="stroke: #000000; stroke-width: 0.8"/>
      </g>
     </g>
     <g id="text_11">
      <!-- 0.0020 -->
      <g transform="translate(7.2 161.399572) scale(0.14 -0.14)">
       <use xlink:href="#DejaVuSans-30"/>
       <use xlink:href="#DejaVuSans-2e" x="63.623047"/>
       <use xlink:href="#DejaVuSans-30" x="95.410156"/>
       <use xlink:href="#DejaVuSans-30" x="159.033203"/>
       <use xlink:href="#DejaVuSans-32" x="222.65625"/>
       <use xlink:href="#DejaVuSans-30" x="286.279297"/>
      </g>
     </g>
    </g>
    <g id="ytick_6">
     <g id="line2d_23">
      <path d="M 59.686875 113.920832 
L 617.686875 113.920832 
" clip-path="url(#pa6832699e5)" style="fill: none; stroke-dasharray: 1.85,0.8; stroke-dashoffset: 0; stroke: #b2b2b2; stroke-width: 0.5"/>
     </g>
     <g id="line2d_24">
      <g>
       <use xlink:href="#m7715f0fe5e" x="59.686875" y="113.920832" style="stroke: #000000; stroke-width: 0.8"/>
      </g>
     </g>
     <g id="text_12">
      <!-- 0.0025 -->
      <g transform="translate(7.2 119.239739) scale(0.14 -0.14)">
       <use xlink:href="#DejaVuSans-30"/>
       <use xlink:href="#DejaVuSans-2e" x="63.623047"/>
       <use xlink:href="#DejaVuSans-30" x="95.410156"/>
       <use xlink:href="#DejaVuSans-30" x="159.033203"/>
       <use xlink:href="#DejaVuSans-32" x="222.65625"/>
       <use xlink:href="#DejaVuSans-35" x="286.279297"/>
      </g>
     </g>
    </g>
    <g id="ytick_7">
     <g id="line2d_25">
      <path d="M 59.686875 71.760999 
L 617.686875 71.760999 
" clip-path="url(#pa6832699e5)" style="fill: none; stroke-dasharray: 1.85,0.8; stroke-dashoffset: 0; stroke: #b2b2b2; stroke-width: 0.5"/>
     </g>
     <g id="line2d_26">
      <g>
       <use xlink:href="#m7715f0fe5e" x="59.686875" y="71.760999" style="stroke: #000000; stroke-width: 0.8"/>
      </g>
     </g>
     <g id="text_13">
      <!-- 0.0030 -->
      <g transform="translate(7.2 77.079905) scale(0.14 -0.14)">
       <defs>
        <path id="DejaVuSans-33" d="M 2597 2516 
Q 3050 2419 3304 2112 
Q 3559 1806 3559 1356 
Q 3559 666 3084 287 
Q 2609 -91 1734 -91 
Q 1441 -91 1130 -33 
Q 819 25 488 141 
L 488 750 
Q 750 597 1062 519 
Q 1375 441 1716 441 
Q 2309 441 2620 675 
Q 2931 909 2931 1356 
Q 2931 1769 2642 2001 
Q 2353 2234 1838 2234 
L 1294 2234 
L 1294 2753 
L 1863 2753 
Q 2328 2753 2575 2939 
Q 2822 3125 2822 3475 
Q 2822 3834 2567 4026 
Q 2313 4219 1838 4219 
Q 1578 4219 1281 4162 
Q 984 4106 628 3988 
L 628 4550 
Q 988 4650 1302 4700 
Q 1616 4750 1894 4750 
Q 2613 4750 3031 4423 
Q 3450 4097 3450 3541 
Q 3450 3153 3228 2886 
Q 3006 2619 2597 2516 
z
" transform="scale(0.015625)"/>
       </defs>
       <use xlink:href="#DejaVuSans-30"/>
       <use xlink:href="#DejaVuSans-2e" x="63.623047"/>
       <use xlink:href="#DejaVuSans-30" x="95.410156"/>
       <use xlink:href="#DejaVuSans-30" x="159.033203"/>
       <use xlink:href="#DejaVuSans-33" x="222.65625"/>
       <use xlink:href="#DejaVuSans-30" x="286.279297"/>
      </g>
     </g>
    </g>
    <g id="ytick_8">
     <g id="line2d_27">
      <path d="M 59.686875 29.601165 
L 617.686875 29.601165 
" clip-path="url(#pa6832699e5)" style="fill: none; stroke-dasharray: 1.85,0.8; stroke-dashoffset: 0; stroke: #b2b2b2; stroke-width: 0.5"/>
     </g>
     <g id="line2d_28">
      <g>
       <use xlink:href="#m7715f0fe5e" x="59.686875" y="29.601165" style="stroke: #000000; stroke-width: 0.8"/>
      </g>
     </g>
     <g id="text_14">
      <!-- 0.0035 -->
      <g transform="translate(7.2 34.920072) scale(0.14 -0.14)">
       <use xlink:href="#DejaVuSans-30"/>
       <use xlink:href="#DejaVuSans-2e" x="63.623047"/>
       <use xlink:href="#DejaVuSans-30" x="95.410156"/>
       <use xlink:href="#DejaVuSans-30" x="159.033203"/>
       <use xlink:href="#DejaVuSans-33" x="222.65625"/>
       <use xlink:href="#DejaVuSans-35" x="286.279297"/>
      </g>
     </g>
    </g>
   </g>
   <g id="line2d_29">
    <path d="M 85.050511 324.410707 
L 99.9411 324.366573 
L 116.817101 323.876342 
L 121.780631 323.41753 
L 125.751454 323.104069 
L 133.693102 322.723976 
L 136.671219 322.224939 
L 139.649337 321.512255 
L 142.627455 320.58958 
L 147.590985 318.953383 
L 154.539926 316.823974 
L 156.525338 315.967672 
L 159.503456 314.410054 
L 162.481573 312.57533 
L 166.452397 310.017095 
L 169.430515 308.40738 
L 171.415927 307.535397 
L 174.394045 306.554029 
L 176.379456 306.126534 
L 181.342986 305.303261 
L 183.328398 304.646775 
L 185.31381 303.698595 
L 189.284633 301.369135 
L 192.262751 299.684524 
L 194.248163 298.818985 
L 195.240869 298.527233 
L 196.233575 298.352367 
L 197.226281 298.300218 
L 199.211693 298.536625 
L 202.18981 299.357713 
L 204.175222 299.868468 
L 205.167928 300.035805 
L 206.160634 300.062799 
L 207.15334 299.963977 
L 208.146046 299.69827 
L 209.138752 299.264888 
L 211.124164 298.013845 
L 214.102282 295.564014 
L 217.080399 293.161238 
L 219.065811 291.776196 
L 221.051223 290.604843 
L 226.014753 288.09364 
L 227.007459 287.327839 
L 228.000164 286.320606 
L 228.99287 285.023987 
L 229.985576 283.407744 
L 230.978282 281.410172 
L 231.970988 278.933535 
L 233.9564 272.757451 
L 234.949106 269.085336 
L 235.941812 264.952475 
L 236.934518 260.260628 
L 238.91993 249.251986 
L 241.898047 231.697892 
L 242.890753 227.157798 
L 243.883459 224.002433 
L 244.876165 222.370818 
L 245.868871 222.227323 
L 246.861577 223.322051 
L 247.854283 225.279442 
L 250.832401 232.191416 
L 251.825107 233.926139 
L 252.817813 235.06029 
L 253.810518 235.512249 
L 254.803224 235.230441 
L 255.79593 234.208107 
L 256.788636 232.291132 
L 257.781342 229.433972 
L 258.774048 225.799491 
L 259.766754 221.342909 
L 260.75946 216.169316 
L 262.744872 203.764214 
L 264.730284 189.298224 
L 266.715695 174.51799 
L 267.708401 167.77158 
L 268.701107 161.962893 
L 269.693813 157.372484 
L 270.686519 154.126444 
L 271.679225 152.261434 
L 272.671931 151.670375 
L 273.664637 152.056095 
L 274.657343 153.064166 
L 276.642755 155.554154 
L 277.635461 156.483915 
L 278.628167 156.962996 
L 279.620873 156.971896 
L 280.613578 156.379572 
L 281.606284 155.203909 
L 282.59899 153.687206 
L 283.591696 151.707707 
L 284.584402 149.053715 
L 285.577108 145.559309 
L 286.569814 141.116897 
L 287.56252 135.735341 
L 290.540638 117.950254 
L 291.533344 113.788964 
L 292.52605 111.615315 
L 293.518755 111.576435 
L 294.511461 113.299162 
L 297.489579 121.351057 
L 298.482285 122.646863 
L 299.474991 122.863377 
L 300.467697 122.27839 
L 302.453109 120.499358 
L 303.445815 120.008956 
L 304.438521 120.028459 
L 307.416638 121.035333 
L 309.40205 121.972613 
L 311.387462 123.164301 
L 313.372874 124.559939 
L 314.36558 124.980599 
L 315.358286 124.878713 
L 316.350992 124.082546 
L 317.343698 122.524268 
L 318.336404 120.167879 
L 319.329109 117.076383 
L 321.314521 109.473645 
L 324.292639 97.958425 
L 327.270757 87.247155 
L 328.263463 83.113116 
L 329.256169 78.390643 
L 330.248875 72.873601 
L 331.241581 66.567484 
L 333.226992 52.018718 
L 335.212404 37.130517 
L 336.20511 30.784342 
L 337.197816 25.951987 
L 338.190522 23.045846 
L 339.183228 22.32 
L 340.175934 23.713802 
L 341.16864 26.94581 
L 342.161346 31.519487 
L 345.139464 47.308568 
L 346.132169 51.490886 
L 347.124875 54.617787 
L 348.117581 56.509626 
L 349.110287 57.233573 
L 350.102993 56.963151 
L 352.088405 55.143039 
L 353.081111 54.825194 
L 354.073817 55.859897 
L 355.066523 58.74336 
L 356.059229 63.887587 
L 357.051935 71.229646 
L 358.044641 80.411272 
L 362.015464 121.190547 
L 363.00817 128.911738 
L 364.000876 134.832195 
L 364.993582 138.903972 
L 365.986288 141.202727 
L 366.978994 141.848818 
L 367.9717 141.268675 
L 368.964406 139.568282 
L 369.957112 136.849379 
L 370.949818 133.168474 
L 371.942523 128.604927 
L 375.913347 108.021734 
L 376.906053 105.006614 
L 377.898759 103.982476 
L 378.891465 104.906 
L 379.884171 107.146347 
L 380.876877 109.757166 
L 381.869583 111.515832 
L 382.862289 111.444637 
L 383.854995 109.049674 
L 384.8477 104.292163 
L 387.825818 84.912108 
L 388.818524 80.977019 
L 389.81123 80.08102 
L 390.803936 82.572579 
L 391.796642 88.267224 
L 392.789348 96.823984 
L 393.782054 107.495721 
L 398.745583 167.199386 
L 399.738289 176.869068 
L 400.730995 185.349959 
L 401.723701 192.266114 
L 402.716407 197.789372 
L 403.709113 201.932833 
L 404.701819 204.693992 
L 405.694525 206.187773 
L 406.687231 206.312152 
L 407.679937 205.20039 
L 408.672643 202.943546 
L 409.665349 199.64882 
L 410.658055 195.353588 
L 411.65076 190.225276 
L 415.621584 167.690532 
L 416.61429 164.103452 
L 417.606996 162.415688 
L 418.599702 162.897637 
L 419.592408 165.511758 
L 420.585114 169.979855 
L 422.570526 182.03471 
L 424.555937 194.187637 
L 425.548643 199.255644 
L 426.541349 203.458676 
L 427.534055 206.918553 
L 428.526761 209.832406 
L 433.490291 222.448788 
L 435.475703 228.520995 
L 438.45382 237.989252 
L 440.439232 243.277137 
L 441.431938 245.420578 
L 442.424644 247.250347 
L 444.410056 250.238246 
L 449.373586 257.088101 
L 452.351703 261.852827 
L 456.322527 268.767146 
L 459.300645 274.382201 
L 462.278763 280.015925 
L 464.264174 283.196449 
L 465.25688 284.513729 
L 467.242292 286.624633 
L 469.227704 288.307607 
L 471.213116 289.739418 
L 474.191234 291.512401 
L 476.176646 292.769986 
L 478.162057 294.474283 
L 480.147469 296.791205 
L 486.103705 304.70546 
L 487.096411 305.665298 
L 488.089117 306.422373 
L 489.081823 306.928112 
L 490.074528 307.186348 
L 491.067234 307.168499 
L 492.05994 306.819779 
L 493.052646 306.12057 
L 494.045352 305.030422 
L 495.038058 303.542014 
L 496.030764 301.685865 
L 500.001588 293.246396 
L 500.994294 291.964357 
L 501.987 291.438694 
L 502.979705 291.772825 
L 503.972411 292.966472 
L 504.965117 294.917552 
L 505.957823 297.449306 
L 509.928647 308.917151 
L 510.921353 311.226609 
L 511.914059 313.156596 
L 512.906765 314.727597 
L 513.899471 315.960107 
L 514.892177 316.927119 
L 515.884882 317.720588 
L 517.870294 318.939018 
L 519.855706 319.899845 
L 521.841118 320.645022 
L 523.82653 321.147441 
L 525.811942 321.41373 
L 529.782765 321.563895 
L 532.760883 321.707001 
L 545.66606 322.748568 
L 553.607708 323.260219 
L 557.578531 323.643957 
L 561.549355 323.687344 
L 564.527473 323.777276 
L 577.43265 324.571877 
L 581.403473 324.603424 
L 592.323239 324.411871 
L 592.323239 324.411871 
" clip-path="url(#pa6832699e5)" style="fill: none; stroke: #348abd; stroke-width: 2; stroke-linecap: square"/>
   </g>
   <g id="patch_3">
    <path d="M 59.686875 339.84 
L 59.686875 7.2 
" style="fill: none; stroke: #bcbcbc; stroke-width: 0.8; stroke-linejoin: miter; stroke-linecap: square"/>
   </g>
   <g id="patch_4">
    <path d="M 617.686875 339.84 
L 617.686875 7.2 
" style="fill: none; stroke: #bcbcbc; stroke-width: 0.8; stroke-linejoin: miter; stroke-linecap: square"/>
   </g>
   <g id="patch_5">
    <path d="M 59.686875 339.84 
L 617.686875 339.84 
" style="fill: none; stroke: #bcbcbc; stroke-width: 0.8; stroke-linejoin: miter; stroke-linecap: square"/>
   </g>
   <g id="patch_6">
    <path d="M 59.686875 7.2 
L 617.686875 7.2 
" style="fill: none; stroke: #bcbcbc; stroke-width: 0.8; stroke-linejoin: miter; stroke-linecap: square"/>
   </g>
  </g>
 </g>
 <defs>
  <clipPath id="pa6832699e5">
   <rect x="59.686875" y="7.2" width="558" height="332.64"/>
  </clipPath>
 </defs>
</svg>