<?xml version="1.0" encoding="utf-8" standalone="no"?>
<!DOCTYPE svg PUBLIC "-//W3C//DTD SVG 1.1//EN"
  "http://www.w3.org/Graphics/SVG/1.1/DTD/svg11.dtd">
<svg xmlns:xlink="http://www.w3.org/1999/xlink" width="613.086875pt" height="378.36225pt" viewBox="0 0 613.086875 378.36225" xmlns="http://www.w3.org/2000/svg" version="1.1">
 <metadata>
  <rdf:RDF xmlns:dc="http://purl.org/dc/elements/1.1/" xmlns:cc="http://creativecommons.org/ns#" xmlns:rdf="http://www.w3.org/1999/02/22-rdf-syntax-ns#">
   <cc:Work>
    <dc:type rdf:resource="http://purl.org/dc/dcmitype/StillImage"/>
    <dc:date>2023-05-08T00:37:56.988200</dc:date>
    <dc:format>image/svg+xml</dc:format>
    <dc:creator>
     <cc:Agent>
      <dc:title>Matplotlib v3.7.1, https://matplotlib.org/</dc:title>
     </cc:Agent>
    </dc:creator>
   </cc:Work>
  </rdf:RDF>
 </metadata>
 <defs>
  <style type="text/css">*{stroke-linejoin: round; stroke-linecap: butt}</style>
 </defs>
 <g id="figure_1">
  <g id="patch_1">
   <path d="M 0 378.36225 
L 613.086875 378.36225 
L 613.086875 0 
L 0 0 
z
" style="fill: #ffffff"/>
  </g>
  <g id="axes_1">
   <g id="patch_2">
    <path d="M 47.886875 339.84 
L 605.886875 339.84 
L 605.886875 7.2 
L 47.886875 7.2 
z
" style="fill: #eaeaf2"/>
   </g>
   <g id="matplotlib.axis_1">
    <g id="xtick_1">
     <g id="line2d_1">
      <path d="M 73.250511 339.84 
L 73.250511 7.2 
" clip-path="url(#pdef473890b)" style="fill: none; stroke: #ffffff; stroke-width: 0.8; stroke-linecap: round"/>
     </g>
     <g id="text_1">
      <!-- 0.0 -->
      <g style="fill: #262626" transform="translate(67.134511 354.438875) scale(0.088 -0.088)">
       <defs>
        <path id="ArialMT-30" d="M 266 2259 
Q 266 3072 433 3567 
Q 600 4063 929 4331 
Q 1259 4600 1759 4600 
Q 2128 4600 2406 4451 
Q 2684 4303 2865 4023 
Q 3047 3744 3150 3342 
Q 3253 2941 3253 2259 
Q 3253 1453 3087 958 
Q 2922 463 2592 192 
Q 2263 -78 1759 -78 
Q 1097 -78 719 397 
Q 266 969 266 2259 
z
M 844 2259 
Q 844 1131 1108 757 
Q 1372 384 1759 384 
Q 2147 384 2411 759 
Q 2675 1134 2675 2259 
Q 2675 3391 2411 3762 
Q 2147 4134 1753 4134 
Q 1366 4134 1134 3806 
Q 844 3388 844 2259 
z
" transform="scale(0.015625)"/>
        <path id="ArialMT-2e" d="M 581 0 
L 581 641 
L 1222 641 
L 1222 0 
L 581 0 
z
" transform="scale(0.015625)"/>
       </defs>
       <use xlink:href="#ArialMT-30"/>
       <use xlink:href="#ArialMT-2e" x="55.615234"/>
       <use xlink:href="#ArialMT-30" x="83.398438"/>
      </g>
     </g>
    </g>
    <g id="xtick_2">
     <g id="line2d_2">
      <path d="M 157.795966 339.84 
L 157.795966 7.2 
" clip-path="url(#pdef473890b)" style="fill: none; stroke: #ffffff; stroke-width: 0.8; stroke-linecap: round"/>
     </g>
     <g id="text_2">
      <!-- 0.5 -->
      <g style="fill: #262626" transform="translate(151.679966 354.438875) scale(0.088 -0.088)">
       <defs>
        <path id="ArialMT-35" d="M 266 1200 
L 856 1250 
Q 922 819 1161 601 
Q 1400 384 1738 384 
Q 2144 384 2425 690 
Q 2706 997 2706 1503 
Q 2706 1984 2436 2262 
Q 2166 2541 1728 2541 
Q 1456 2541 1237 2417 
Q 1019 2294 894 2097 
L 366 2166 
L 809 4519 
L 3088 4519 
L 3088 3981 
L 1259 3981 
L 1013 2750 
Q 1425 3038 1878 3038 
Q 2478 3038 2890 2622 
Q 3303 2206 3303 1553 
Q 3303 931 2941 478 
Q 2500 -78 1738 -78 
Q 1113 -78 717 272 
Q 322 622 266 1200 
z
" transform="scale(0.015625)"/>
       </defs>
       <use xlink:href="#ArialMT-30"/>
       <use xlink:href="#ArialMT-2e" x="55.615234"/>
       <use xlink:href="#ArialMT-35" x="83.398438"/>
      </g>
     </g>
    </g>
    <g id="xtick_3">
     <g id="line2d_3">
      <path d="M 242.34142 339.84 
L 242.34142 7.2 
" clip-path="url(#pdef473890b)" style="fill: none; stroke: #ffffff; stroke-width: 0.8; stroke-linecap: round"/>
     </g>
     <g id="text_3">
      <!-- 1.0 -->
      <g style="fill: #262626" transform="translate(236.22542 354.438875) scale(0.088 -0.088)">
       <defs>
        <path id="ArialMT-31" d="M 2384 0 
L 1822 0 
L 1822 3584 
Q 1619 3391 1289 3197 
Q 959 3003 697 2906 
L 697 3450 
Q 1169 3672 1522 3987 
Q 1875 4303 2022 4600 
L 2384 4600 
L 2384 0 
z
" transform="scale(0.015625)"/>
       </defs>
       <use xlink:href="#ArialMT-31"/>
       <use xlink:href="#ArialMT-2e" x="55.615234"/>
       <use xlink:href="#ArialMT-30" x="83.398438"/>
      </g>
     </g>
    </g>
    <g id="xtick_4">
     <g id="line2d_4">
      <path d="M 326.886875 339.84 
L 326.886875 7.2 
" clip-path="url(#pdef473890b)" style="fill: none; stroke: #ffffff; stroke-width: 0.8; stroke-linecap: round"/>
     </g>
     <g id="text_4">
      <!-- 1.5 -->
      <g style="fill: #262626" transform="translate(320.770875 354.438875) scale(0.088 -0.088)">
       <use xlink:href="#ArialMT-31"/>
       <use xlink:href="#ArialMT-2e" x="55.615234"/>
       <use xlink:href="#ArialMT-35" x="83.398438"/>
      </g>
     </g>
    </g>
    <g id="xtick_5">
     <g id="line2d_5">
      <path d="M 411.43233 339.84 
L 411.43233 7.2 
" clip-path="url(#pdef473890b)" style="fill: none; stroke: #ffffff; stroke-width: 0.8; stroke-linecap: round"/>
     </g>
     <g id="text_5">
      <!-- 2.0 -->
      <g style="fill: #262626" transform="translate(405.31633 354.438875) scale(0.088 -0.088)">
       <defs>
        <path id="ArialMT-32" d="M 3222 541 
L 3222 0 
L 194 0 
Q 188 203 259 391 
Q 375 700 629 1000 
Q 884 1300 1366 1694 
Q 2113 2306 2375 2664 
Q 2638 3022 2638 3341 
Q 2638 3675 2398 3904 
Q 2159 4134 1775 4134 
Q 1369 4134 1125 3890 
Q 881 3647 878 3216 
L 300 3275 
Q 359 3922 746 4261 
Q 1134 4600 1788 4600 
Q 2447 4600 2831 4234 
Q 3216 3869 3216 3328 
Q 3216 3053 3103 2787 
Q 2991 2522 2730 2228 
Q 2469 1934 1863 1422 
Q 1356 997 1212 845 
Q 1069 694 975 541 
L 3222 541 
z
" transform="scale(0.015625)"/>
       </defs>
       <use xlink:href="#ArialMT-32"/>
       <use xlink:href="#ArialMT-2e" x="55.615234"/>
       <use xlink:href="#ArialMT-30" x="83.398438"/>
      </g>
     </g>
    </g>
    <g id="xtick_6">
     <g id="line2d_6">
      <path d="M 495.977784 339.84 
L 495.977784 7.2 
" clip-path="url(#pdef473890b)" style="fill: none; stroke: #ffffff; stroke-width: 0.8; stroke-linecap: round"/>
     </g>
     <g id="text_6">
      <!-- 2.5 -->
      <g style="fill: #262626" transform="translate(489.861784 354.438875) scale(0.088 -0.088)">
       <use xlink:href="#ArialMT-32"/>
       <use xlink:href="#ArialMT-2e" x="55.615234"/>
       <use xlink:href="#ArialMT-35" x="83.398438"/>
      </g>
     </g>
    </g>
    <g id="xtick_7">
     <g id="line2d_7">
      <path d="M 580.523239 339.84 
L 580.523239 7.2 
" clip-path="url(#pdef473890b)" style="fill: none; stroke: #ffffff; stroke-width: 0.8; stroke-linecap: round"/>
     </g>
     <g id="text_7">
      <!-- 3.0 -->
      <g style="fill: #262626" transform="translate(574.407239 354.438875) scale(0.088 -0.088)">
       <defs>
        <path id="ArialMT-33" d="M 269 1209 
L 831 1284 
Q 928 806 1161 595 
Q 1394 384 1728 384 
Q 2125 384 2398 659 
Q 2672 934 2672 1341 
Q 2672 1728 2419 1979 
Q 2166 2231 1775 2231 
Q 1616 2231 1378 2169 
L 1441 2663 
Q 1497 2656 1531 2656 
Q 1891 2656 2178 2843 
Q 2466 3031 2466 3422 
Q 2466 3731 2256 3934 
Q 2047 4138 1716 4138 
Q 1388 4138 1169 3931 
Q 950 3725 888 3313 
L 325 3413 
Q 428 3978 793 4289 
Q 1159 4600 1703 4600 
Q 2078 4600 2393 4439 
Q 2709 4278 2876 4000 
Q 3044 3722 3044 3409 
Q 3044 3113 2884 2869 
Q 2725 2625 2413 2481 
Q 2819 2388 3044 2092 
Q 3269 1797 3269 1353 
Q 3269 753 2831 336 
Q 2394 -81 1725 -81 
Q 1122 -81 723 278 
Q 325 638 269 1209 
z
" transform="scale(0.015625)"/>
       </defs>
       <use xlink:href="#ArialMT-33"/>
       <use xlink:href="#ArialMT-2e" x="55.615234"/>
       <use xlink:href="#ArialMT-30" x="83.398438"/>
      </g>
     </g>
    </g>
    <g id="text_8">
     <!-- x -->
     <g style="fill: #262626" transform="translate(323.886875 368.77725) scale(0.12 -0.12)">
      <defs>
       <path id="ArialMT-78" d="M 47 0 
L 1259 1725 
L 138 3319 
L 841 3319 
L 1350 2541 
Q 1494 2319 1581 2169 
Q 1719 2375 1834 2534 
L 2394 3319 
L 3066 3319 
L 1919 1756 
L 3153 0 
L 2463 0 
L 1781 1031 
L 1600 1309 
L 728 0 
L 47 0 
z
" transform="scale(0.015625)"/>
      </defs>
      <use xlink:href="#ArialMT-78"/>
     </g>
    </g>
   </g>
   <g id="matplotlib.axis_2">
    <g id="ytick_1">
     <g id="line2d_8">
      <path d="M 47.886875 324.72 
L 605.886875 324.72 
" clip-path="url(#pdef473890b)" style="fill: none; stroke: #ffffff; stroke-width: 0.8; stroke-linecap: round"/>
     </g>
     <g id="text_9">
      <!-- 0.00 -->
      <g style="fill: #262626" transform="translate(22.46125 327.869438) scale(0.088 -0.088)">
       <use xlink:href="#ArialMT-30"/>
       <use xlink:href="#ArialMT-2e" x="55.615234"/>
       <use xlink:href="#ArialMT-30" x="83.398438"/>
       <use xlink:href="#ArialMT-30" x="139.013672"/>
      </g>
     </g>
    </g>
    <g id="ytick_2">
     <g id="line2d_9">
      <path d="M 47.886875 278.802309 
L 605.886875 278.802309 
" clip-path="url(#pdef473890b)" style="fill: none; stroke: #ffffff; stroke-width: 0.8; stroke-linecap: round"/>
     </g>
     <g id="text_10">
      <!-- 0.25 -->
      <g style="fill: #262626" transform="translate(22.46125 281.951747) scale(0.088 -0.088)">
       <use xlink:href="#ArialMT-30"/>
       <use xlink:href="#ArialMT-2e" x="55.615234"/>
       <use xlink:href="#ArialMT-32" x="83.398438"/>
       <use xlink:href="#ArialMT-35" x="139.013672"/>
      </g>
     </g>
    </g>
    <g id="ytick_3">
     <g id="line2d_10">
      <path d="M 47.886875 232.884619 
L 605.886875 232.884619 
" clip-path="url(#pdef473890b)" style="fill: none; stroke: #ffffff; stroke-width: 0.8; stroke-linecap: round"/>
     </g>
     <g id="text_11">
      <!-- 0.50 -->
      <g style="fill: #262626" transform="translate(22.46125 236.034056) scale(0.088 -0.088)">
       <use xlink:href="#ArialMT-30"/>
       <use xlink:href="#ArialMT-2e" x="55.615234"/>
       <use xlink:href="#ArialMT-35" x="83.398438"/>
       <use xlink:href="#ArialMT-30" x="139.013672"/>
      </g>
     </g>
    </g>
    <g id="ytick_4">
     <g id="line2d_11">
      <path d="M 47.886875 186.966928 
L 605.886875 186.966928 
" clip-path="url(#pdef473890b)" style="fill: none; stroke: #ffffff; stroke-width: 0.8; stroke-linecap: round"/>
     </g>
     <g id="text_12">
      <!-- 0.75 -->
      <g style="fill: #262626" transform="translate(22.46125 190.116366) scale(0.088 -0.088)">
       <defs>
        <path id="ArialMT-37" d="M 303 3981 
L 303 4522 
L 3269 4522 
L 3269 4084 
Q 2831 3619 2401 2847 
Q 1972 2075 1738 1259 
Q 1569 684 1522 0 
L 944 0 
Q 953 541 1156 1306 
Q 1359 2072 1739 2783 
Q 2119 3494 2547 3981 
L 303 3981 
z
" transform="scale(0.015625)"/>
       </defs>
       <use xlink:href="#ArialMT-30"/>
       <use xlink:href="#ArialMT-2e" x="55.615234"/>
       <use xlink:href="#ArialMT-37" x="83.398438"/>
       <use xlink:href="#ArialMT-35" x="139.013672"/>
      </g>
     </g>
    </g>
    <g id="ytick_5">
     <g id="line2d_12">
      <path d="M 47.886875 141.049238 
L 605.886875 141.049238 
" clip-path="url(#pdef473890b)" style="fill: none; stroke: #ffffff; stroke-width: 0.8; stroke-linecap: round"/>
     </g>
     <g id="text_13">
      <!-- 1.00 -->
      <g style="fill: #262626" transform="translate(22.46125 144.198675) scale(0.088 -0.088)">
       <use xlink:href="#ArialMT-31"/>
       <use xlink:href="#ArialMT-2e" x="55.615234"/>
       <use xlink:href="#ArialMT-30" x="83.398438"/>
       <use xlink:href="#ArialMT-30" x="139.013672"/>
      </g>
     </g>
    </g>
    <g id="ytick_6">
     <g id="line2d_13">
      <path d="M 47.886875 95.131547 
L 605.886875 95.131547 
" clip-path="url(#pdef473890b)" style="fill: none; stroke: #ffffff; stroke-width: 0.8; stroke-linecap: round"/>
     </g>
     <g id="text_14">
      <!-- 1.25 -->
      <g style="fill: #262626" transform="translate(22.46125 98.280985) scale(0.088 -0.088)">
       <use xlink:href="#ArialMT-31"/>
       <use xlink:href="#ArialMT-2e" x="55.615234"/>
       <use xlink:href="#ArialMT-32" x="83.398438"/>
       <use xlink:href="#ArialMT-35" x="139.013672"/>
      </g>
     </g>
    </g>
    <g id="ytick_7">
     <g id="line2d_14">
      <path d="M 47.886875 49.213856 
L 605.886875 49.213856 
" clip-path="url(#pdef473890b)" style="fill: none; stroke: #ffffff; stroke-width: 0.8; stroke-linecap: round"/>
     </g>
     <g id="text_15">
      <!-- 1.50 -->
      <g style="fill: #262626" transform="translate(22.46125 52.363294) scale(0.088 -0.088)">
       <use xlink:href="#ArialMT-31"/>
       <use xlink:href="#ArialMT-2e" x="55.615234"/>
       <use xlink:href="#ArialMT-35" x="83.398438"/>
       <use xlink:href="#ArialMT-30" x="139.013672"/>
      </g>
     </g>
    </g>
    <g id="text_16">
     <!-- f(x) -->
     <g style="fill: #262626" transform="translate(15.935625 182.1825) rotate(-90) scale(0.12 -0.12)">
      <defs>
       <path id="ArialMT-66" d="M 556 0 
L 556 2881 
L 59 2881 
L 59 3319 
L 556 3319 
L 556 3672 
Q 556 4006 616 4169 
Q 697 4388 901 4523 
Q 1106 4659 1475 4659 
Q 1713 4659 2000 4603 
L 1916 4113 
Q 1741 4144 1584 4144 
Q 1328 4144 1222 4034 
Q 1116 3925 1116 3625 
L 1116 3319 
L 1763 3319 
L 1763 2881 
L 1116 2881 
L 1116 0 
L 556 0 
z
" transform="scale(0.015625)"/>
       <path id="ArialMT-28" d="M 1497 -1347 
Q 1031 -759 709 28 
Q 388 816 388 1659 
Q 388 2403 628 3084 
Q 909 3875 1497 4659 
L 1900 4659 
Q 1522 4009 1400 3731 
Q 1209 3300 1100 2831 
Q 966 2247 966 1656 
Q 966 153 1900 -1347 
L 1497 -1347 
z
" transform="scale(0.015625)"/>
       <path id="ArialMT-29" d="M 791 -1347 
L 388 -1347 
Q 1322 153 1322 1656 
Q 1322 2244 1188 2822 
Q 1081 3291 891 3722 
Q 769 4003 388 4659 
L 791 4659 
Q 1378 3875 1659 3084 
Q 1900 2403 1900 1659 
Q 1900 816 1576 28 
Q 1253 -759 791 -1347 
z
" transform="scale(0.015625)"/>
      </defs>
      <use xlink:href="#ArialMT-66"/>
      <use xlink:href="#ArialMT-28" x="27.783203"/>
      <use xlink:href="#ArialMT-78" x="61.083984"/>
      <use xlink:href="#ArialMT-29" x="111.083984"/>
     </g>
    </g>
   </g>
   <g id="line2d_15">
    <path d="M 73.250511 324.72 
L 78.374478 324.72 
L 83.498445 324.72 
L 88.622412 324.72 
L 93.746379 324.72 
L 98.870346 324.72 
L 103.994313 324.72 
L 109.11828 324.719994 
L 114.242247 324.719872 
L 119.366214 324.718534 
L 124.490181 324.709211 
L 129.614148 324.663667 
L 134.738115 324.495659 
L 139.862082 324.001325 
L 144.986049 322.792577 
L 150.110015 320.257818 
L 155.233982 315.586476 
L 160.357949 307.873867 
L 165.481916 296.29038 
L 170.605883 280.271489 
L 175.72985 259.675684 
L 180.853817 234.868226 
L 185.977784 206.712271 
L 191.101751 176.474615 
L 196.225718 145.672318 
L 201.349685 115.894842 
L 206.473652 88.634709 
L 211.597619 65.151271 
L 216.721586 46.38101 
L 221.845553 32.897131 
L 226.96952 24.913105 
L 232.093487 22.32 
L 237.217454 24.745597 
L 242.34142 31.623869 
L 247.465387 42.265327 
L 252.589354 55.92137 
L 257.713321 71.83839 
L 262.837288 89.29969 
L 267.961255 107.655036 
L 273.085222 126.338881 
L 278.209189 144.878988 
L 283.333156 162.897485 
L 288.457123 180.106381 
L 293.58109 196.299388 
L 298.705057 211.341614 
L 303.829024 225.158347 
L 308.952991 237.723861 
L 314.076958 249.050862 
L 319.200925 259.180976 
L 324.324892 268.176479 
L 329.448858 276.113341 
L 334.572825 283.075555 
L 339.696792 289.150636 
L 344.820759 294.42619 
L 349.944726 298.98738 
L 355.068693 302.915149 
L 360.19266 306.285063 
L 365.316627 309.166639 
L 370.440594 311.623046 
L 375.564561 313.71109 
L 380.688528 315.481394 
L 385.812495 316.978723 
L 390.936462 318.242386 
L 396.060429 319.306694 
L 401.184396 320.201435 
L 406.308363 320.952341 
L 411.43233 321.581549 
L 416.556296 322.108024 
L 421.680263 322.54796 
L 426.80423 322.915138 
L 431.928197 323.221253 
L 437.052164 323.476204 
L 442.176131 323.688346 
L 447.300098 323.864721 
L 452.424065 324.011248 
L 457.548032 324.132895 
L 462.671999 324.233825 
L 467.795966 324.317519 
L 472.919933 324.386886 
L 478.0439 324.444354 
L 483.167867 324.491946 
L 488.291834 324.531345 
L 493.415801 324.563952 
L 498.539768 324.590932 
L 503.663735 324.613251 
L 508.787701 324.631712 
L 513.911668 324.646978 
L 519.035635 324.659602 
L 524.159602 324.67004 
L 529.283569 324.678671 
L 534.407536 324.685807 
L 539.531503 324.691707 
L 544.65547 324.696585 
L 549.779437 324.700619 
L 554.903404 324.703956 
L 560.027371 324.706715 
L 565.151338 324.708997 
L 570.275305 324.710885 
L 575.399272 324.712448 
L 580.523239 324.713741 
" clip-path="url(#pdef473890b)" style="fill: none; stroke: #0173b2; stroke-width: 1.2; stroke-linecap: round"/>
   </g>
   <g id="line2d_16">
    <path d="M 73.250511 324.72 
L 78.374478 324.72 
L 83.498445 324.719639 
L 88.622412 324.703667 
L 93.746379 324.556089 
L 98.870346 323.93936 
L 103.994313 322.309656 
L 109.11828 319.083596 
L 114.242247 313.8254 
L 119.366214 306.35652 
L 124.490181 296.771201 
L 129.614148 285.386844 
L 134.738115 272.666004 
L 139.862082 259.137408 
L 144.986049 245.330835 
L 150.110015 231.731037 
L 155.233982 218.750074 
L 160.357949 206.714734 
L 165.481916 195.864961 
L 170.605883 186.359498 
L 175.72985 178.285683 
L 180.853817 171.671099 
L 185.977784 166.495538 
L 191.101751 162.702308 
L 196.225718 160.208309 
L 201.349685 158.912672 
L 206.473652 158.703886 
L 211.597619 159.465501 
L 216.721586 161.08055 
L 221.845553 163.43486 
L 226.96952 166.419427 
L 232.093487 169.932032 
L 237.217454 173.878241 
L 242.34142 178.171934 
L 247.465387 182.73547 
L 252.589354 187.499577 
L 257.713321 192.403057 
L 262.837288 197.392353 
L 267.961255 202.421041 
L 273.085222 207.449264 
L 278.209189 212.443151 
L 283.333156 217.374247 
L 288.457123 222.218941 
L 293.58109 226.957935 
L 298.705057 231.575743 
L 303.829024 236.060217 
L 308.952991 240.402127 
L 314.076958 244.594763 
L 319.200925 248.633591 
L 324.324892 252.51593 
L 329.448858 256.240676 
L 334.572825 259.808049 
L 339.696792 263.219373 
L 344.820759 266.476885 
L 349.944726 269.583562 
L 355.068693 272.542978 
L 360.19266 275.359174 
L 365.316627 278.03655 
L 370.440594 280.579769 
L 375.564561 282.993679 
L 380.688528 285.283243 
L 385.812495 287.453483 
L 390.936462 289.509432 
L 396.060429 291.456093 
L 401.184396 293.298409 
L 406.308363 295.04123 
L 411.43233 296.689302 
L 416.556296 298.247241 
L 421.680263 299.719523 
L 426.80423 301.110478 
L 431.928197 302.424278 
L 437.052164 303.664936 
L 442.176131 304.836303 
L 447.300098 305.942067 
L 452.424065 306.985753 
L 457.548032 307.970728 
L 462.671999 308.900199 
L 467.795966 309.777219 
L 472.919933 310.604694 
L 478.0439 311.38538 
L 483.167867 312.121896 
L 488.291834 312.816724 
L 493.415801 313.472216 
L 498.539768 314.090598 
L 503.663735 314.673978 
L 508.787701 315.224348 
L 513.911668 315.743592 
L 519.035635 316.233488 
L 524.159602 316.695718 
L 529.283569 317.131867 
L 534.407536 317.543433 
L 539.531503 317.931827 
L 544.65547 318.298382 
L 549.779437 318.644353 
L 554.903404 318.970923 
L 560.027371 319.27921 
L 565.151338 319.570263 
L 570.275305 319.845074 
L 575.399272 320.104577 
L 580.523239 320.349649 
" clip-path="url(#pdef473890b)" style="fill: none; stroke: #de8f05; stroke-width: 1.2; stroke-linecap: round"/>
   </g>
   <g id="line2d_17">
    <path d="M 73.250511 324.72 
L 78.374478 319.365532 
L 83.498445 300.956472 
L 88.622412 279.245547 
L 93.746379 259.489992 
L 98.870346 243.207205 
L 103.994313 230.47749 
L 109.11828 220.903229 
L 114.242247 213.974558 
L 119.366214 209.202604 
L 124.490181 206.161878 
L 129.614148 204.497512 
L 134.738115 203.919673 
L 139.862082 204.194163 
L 144.986049 205.132769 
L 150.110015 206.584633 
L 155.233982 208.428975 
L 160.357949 210.569141 
L 165.481916 212.927801 
L 170.605883 215.443102 
L 175.72985 218.065608 
L 180.853817 220.755849 
L 185.977784 223.482381 
L 191.101751 226.22022 
L 196.225718 228.949603 
L 201.349685 231.654985 
L 206.473652 234.324237 
L 211.597619 236.947993 
L 216.721586 239.519135 
L 221.845553 242.032356 
L 226.96952 244.483827 
L 232.093487 246.870907 
L 237.217454 249.191921 
L 242.34142 251.445967 
L 247.465387 253.632769 
L 252.589354 255.752548 
L 257.713321 257.805919 
L 262.837288 259.793811 
L 267.961255 261.717393 
L 273.085222 263.578022 
L 278.209189 265.377193 
L 283.333156 267.116503 
L 288.457123 268.79762 
L 293.58109 270.422257 
L 298.705057 271.992153 
L 303.829024 273.509053 
L 308.952991 274.974699 
L 314.076958 276.390816 
L 319.200925 277.759104 
L 324.324892 279.081235 
L 329.448858 280.358841 
L 334.572825 281.593515 
L 339.696792 282.78681 
L 344.820759 283.94023 
L 349.944726 285.055235 
L 355.068693 286.133238 
L 360.19266 287.175605 
L 365.316627 288.183653 
L 370.440594 289.158655 
L 375.564561 290.101835 
L 380.688528 291.014375 
L 385.812495 291.89741 
L 390.936462 292.752033 
L 396.060429 293.579296 
L 401.184396 294.380209 
L 406.308363 295.155742 
L 411.43233 295.906829 
L 416.556296 296.634366 
L 421.680263 297.339214 
L 426.80423 298.022198 
L 431.928197 298.684113 
L 437.052164 299.32572 
L 442.176131 299.947751 
L 447.300098 300.550908 
L 452.424065 301.135867 
L 457.548032 301.703273 
L 462.671999 302.25375 
L 467.795966 302.787894 
L 472.919933 303.306278 
L 478.0439 303.809454 
L 483.167867 304.29795 
L 488.291834 304.772274 
L 493.415801 305.232915 
L 498.539768 305.680341 
L 503.663735 306.115004 
L 508.787701 306.537335 
L 513.911668 306.947753 
L 519.035635 307.346657 
L 524.159602 307.734432 
L 529.283569 308.111449 
L 534.407536 308.478063 
L 539.531503 308.834617 
L 544.65547 309.18144 
L 549.779437 309.51885 
L 554.903404 309.847151 
L 560.027371 310.166638 
L 565.151338 310.477594 
L 570.275305 310.780291 
L 575.399272 311.07499 
L 580.523239 311.361946 
" clip-path="url(#pdef473890b)" style="fill: none; stroke: #029e73; stroke-width: 1.2; stroke-linecap: round"/>
   </g>
   <g id="patch_3">
    <path d="M 47.886875 339.84 
L 47.886875 7.2 
" style="fill: none; stroke: #ffffff; stroke-linejoin: miter; stroke-linecap: square"/>
   </g>
   <g id="patch_4">
    <path d="M 605.886875 339.84 
L 605.886875 7.2 
" style="fill: none; stroke: #ffffff; stroke-linejoin: miter; stroke-linecap: square"/>
   </g>
   <g id="patch_5">
    <path d="M 47.886875 339.84 
L 605.886875 339.84 
" style="fill: none; stroke: #ffffff; stroke-linejoin: miter; stroke-linecap: square"/>
   </g>
   <g id="patch_6">
    <path d="M 47.886875 7.2 
L 605.886875 7.2 
" style="fill: none; stroke: #ffffff; stroke-linejoin: miter; stroke-linecap: square"/>
   </g>
   <g id="legend_1">
    <g id="patch_7">
     <path d="M 506.886875 52.256 
L 599.726875 52.256 
Q 601.486875 52.256 601.486875 50.496 
L 601.486875 13.36 
Q 601.486875 11.6 599.726875 11.6 
L 506.886875 11.6 
Q 505.126875 11.6 505.126875 13.36 
L 505.126875 50.496 
Q 505.126875 52.256 506.886875 52.256 
z
" style="fill: #eaeaf2; opacity: 0.8; stroke: #cccccc; stroke-width: 0.8; stroke-linejoin: miter"/>
    </g>
    <g id="line2d_18">
     <path d="M 508.646875 18.376 
L 517.446875 18.376 
L 526.246875 18.376 
" style="fill: none; stroke: #0173b2; stroke-width: 1.2; stroke-linecap: round"/>
    </g>
    <g id="text_17">
     <!-- $\mu$ = 0.0, $\sigma$ = 0.25 -->
     <g style="fill: #262626" transform="translate(533.286875 21.456) scale(0.088 -0.088)">
      <defs>
       <path id="Cmmi10-b9" d="M 178 -1203 
Q 178 -1166 184 -1153 
L 1125 2625 
Q 1153 2716 1226 2772 
Q 1300 2828 1394 2828 
Q 1475 2828 1531 2779 
Q 1588 2731 1588 2650 
Q 1588 2631 1586 2620 
Q 1584 2609 1581 2597 
L 1203 1100 
Q 1141 834 1141 641 
Q 1141 403 1253 250 
Q 1366 97 1594 97 
Q 2059 97 2413 678 
Q 2416 684 2417 687 
Q 2419 691 2419 697 
L 2881 2553 
Q 2903 2638 2981 2698 
Q 3059 2759 3150 2759 
Q 3225 2759 3283 2709 
Q 3341 2659 3341 2578 
Q 3341 2541 3334 2528 
L 2875 684 
Q 2828 503 2828 372 
Q 2828 97 3016 97 
Q 3216 97 3317 344 
Q 3419 591 3494 941 
Q 3506 978 3547 978 
L 3622 978 
Q 3647 978 3664 958 
Q 3681 938 3681 916 
Q 3569 469 3436 198 
Q 3303 -72 3003 -72 
Q 2791 -72 2627 50 
Q 2463 172 2413 378 
Q 2253 178 2039 53 
Q 1825 -72 1588 -72 
Q 1188 -72 959 116 
L 634 -1178 
Q 616 -1269 541 -1325 
Q 466 -1381 372 -1381 
Q 294 -1381 236 -1332 
Q 178 -1284 178 -1203 
z
" transform="scale(0.015625)"/>
       <path id="ArialMT-20" transform="scale(0.015625)"/>
       <path id="ArialMT-3d" d="M 3381 2694 
L 356 2694 
L 356 3219 
L 3381 3219 
L 3381 2694 
z
M 3381 1303 
L 356 1303 
L 356 1828 
L 3381 1828 
L 3381 1303 
z
" transform="scale(0.015625)"/>
       <path id="ArialMT-2c" d="M 569 0 
L 569 641 
L 1209 641 
L 1209 0 
Q 1209 -353 1084 -570 
Q 959 -788 688 -906 
L 531 -666 
Q 709 -588 793 -436 
Q 878 -284 888 0 
L 569 0 
z
" transform="scale(0.015625)"/>
       <path id="Cmmi10-be" d="M 1197 -72 
Q 913 -72 692 64 
Q 472 200 351 431 
Q 231 663 231 941 
Q 231 1238 365 1566 
Q 500 1894 733 2166 
Q 966 2438 1259 2598 
Q 1553 2759 1863 2759 
L 3475 2759 
Q 3541 2759 3587 2715 
Q 3634 2672 3634 2597 
Q 3634 2503 3567 2433 
Q 3500 2363 3406 2363 
L 2625 2363 
Q 2809 2088 2809 1697 
Q 2809 1375 2684 1062 
Q 2559 750 2337 492 
Q 2116 234 1820 81 
Q 1525 -72 1197 -72 
z
M 1203 97 
Q 1553 97 1823 370 
Q 2094 644 2237 1039 
Q 2381 1434 2381 1772 
Q 2381 2047 2229 2205 
Q 2078 2363 1806 2363 
Q 1434 2363 1173 2113 
Q 913 1863 783 1484 
Q 653 1106 653 756 
Q 653 481 798 289 
Q 944 97 1203 97 
z
" transform="scale(0.015625)"/>
      </defs>
      <use xlink:href="#Cmmi10-b9" transform="translate(0 0.125)"/>
      <use xlink:href="#ArialMT-20" transform="translate(60.205078 0.125)"/>
      <use xlink:href="#ArialMT-3d" transform="translate(87.988281 0.125)"/>
      <use xlink:href="#ArialMT-20" transform="translate(146.386719 0.125)"/>
      <use xlink:href="#ArialMT-30" transform="translate(174.169922 0.125)"/>
      <use xlink:href="#ArialMT-2e" transform="translate(229.785156 0.125)"/>
      <use xlink:href="#ArialMT-30" transform="translate(257.568359 0.125)"/>
      <use xlink:href="#ArialMT-2c" transform="translate(313.183594 0.125)"/>
      <use xlink:href="#ArialMT-20" transform="translate(340.966797 0.125)"/>
      <use xlink:href="#Cmmi10-be" transform="translate(368.75 0.125)"/>
      <use xlink:href="#ArialMT-20" transform="translate(425.830078 0.125)"/>
      <use xlink:href="#ArialMT-3d" transform="translate(453.613281 0.125)"/>
      <use xlink:href="#ArialMT-20" transform="translate(512.011719 0.125)"/>
      <use xlink:href="#ArialMT-30" transform="translate(539.794922 0.125)"/>
      <use xlink:href="#ArialMT-2e" transform="translate(595.410156 0.125)"/>
      <use xlink:href="#ArialMT-32" transform="translate(623.193359 0.125)"/>
      <use xlink:href="#ArialMT-35" transform="translate(678.808594 0.125)"/>
     </g>
    </g>
    <g id="line2d_19">
     <path d="M 508.646875 31.048 
L 517.446875 31.048 
L 526.246875 31.048 
" style="fill: none; stroke: #de8f05; stroke-width: 1.2; stroke-linecap: round"/>
    </g>
    <g id="text_18">
     <!-- $\mu$ = 0.0, $\sigma$ = 0.5 -->
     <g style="fill: #262626" transform="translate(533.286875 34.128) scale(0.088 -0.088)">
      <use xlink:href="#Cmmi10-b9" transform="translate(0 0.125)"/>
      <use xlink:href="#ArialMT-20" transform="translate(60.205078 0.125)"/>
      <use xlink:href="#ArialMT-3d" transform="translate(87.988281 0.125)"/>
      <use xlink:href="#ArialMT-20" transform="translate(146.386719 0.125)"/>
      <use xlink:href="#ArialMT-30" transform="translate(174.169922 0.125)"/>
      <use xlink:href="#ArialMT-2e" transform="translate(229.785156 0.125)"/>
      <use xlink:href="#ArialMT-30" transform="translate(257.568359 0.125)"/>
      <use xlink:href="#ArialMT-2c" transform="translate(313.183594 0.125)"/>
      <use xlink:href="#ArialMT-20" transform="translate(340.966797 0.125)"/>
      <use xlink:href="#Cmmi10-be" transform="translate(368.75 0.125)"/>
      <use xlink:href="#ArialMT-20" transform="translate(425.830078 0.125)"/>
      <use xlink:href="#ArialMT-3d" transform="translate(453.613281 0.125)"/>
      <use xlink:href="#ArialMT-20" transform="translate(512.011719 0.125)"/>
      <use xlink:href="#ArialMT-30" transform="translate(539.794922 0.125)"/>
      <use xlink:href="#ArialMT-2e" transform="translate(595.410156 0.125)"/>
      <use xlink:href="#ArialMT-35" transform="translate(623.193359 0.125)"/>
     </g>
    </g>
    <g id="line2d_20">
     <path d="M 508.646875 43.72 
L 517.446875 43.72 
L 526.246875 43.72 
" style="fill: none; stroke: #029e73; stroke-width: 1.2; stroke-linecap: round"/>
    </g>
    <g id="text_19">
     <!-- $\mu$ = 0.0, $\sigma$ = 1.0 -->
     <g style="fill: #262626" transform="translate(533.286875 46.8) scale(0.088 -0.088)">
      <use xlink:href="#Cmmi10-b9" transform="translate(0 0.125)"/>
      <use xlink:href="#ArialMT-20" transform="translate(60.205078 0.125)"/>
      <use xlink:href="#ArialMT-3d" transform="translate(87.988281 0.125)"/>
      <use xlink:href="#ArialMT-20" transform="translate(146.386719 0.125)"/>
      <use xlink:href="#ArialMT-30" transform="translate(174.169922 0.125)"/>
      <use xlink:href="#ArialMT-2e" transform="translate(229.785156 0.125)"/>
      <use xlink:href="#ArialMT-30" transform="translate(257.568359 0.125)"/>
      <use xlink:href="#ArialMT-2c" transform="translate(313.183594 0.125)"/>
      <use xlink:href="#ArialMT-20" transform="translate(340.966797 0.125)"/>
      <use xlink:href="#Cmmi10-be" transform="translate(368.75 0.125)"/>
      <use xlink:href="#ArialMT-20" transform="translate(425.830078 0.125)"/>
      <use xlink:href="#ArialMT-3d" transform="translate(453.613281 0.125)"/>
      <use xlink:href="#ArialMT-20" transform="translate(512.011719 0.125)"/>
      <use xlink:href="#ArialMT-31" transform="translate(539.794922 0.125)"/>
      <use xlink:href="#ArialMT-2e" transform="translate(595.410156 0.125)"/>
      <use xlink:href="#ArialMT-30" transform="translate(623.193359 0.125)"/>
     </g>
    </g>
   </g>
  </g>
 </g>
 <defs>
  <clipPath id="pdef473890b">
   <rect x="47.886875" y="7.2" width="558" height="332.64"/>
  </clipPath>
 </defs>
</svg>