<?xml version="1.0" encoding="utf-8" standalone="no"?>
<!DOCTYPE svg PUBLIC "-//W3C//DTD SVG 1.1//EN"
  "http://www.w3.org/Graphics/SVG/1.1/DTD/svg11.dtd">
<svg xmlns:xlink="http://www.w3.org/1999/xlink" width="618.568281pt" height="381.574219pt" viewBox="0 0 618.568281 381.574219" xmlns="http://www.w3.org/2000/svg" version="1.1">
 <metadata>
  <rdf:RDF xmlns:dc="http://purl.org/dc/elements/1.1/" xmlns:cc="http://creativecommons.org/ns#" xmlns:rdf="http://www.w3.org/1999/02/22-rdf-syntax-ns#">
   <cc:Work>
    <dc:type rdf:resource="http://purl.org/dc/dcmitype/StillImage"/>
    <dc:date>2023-05-08T00:39:50.656497</dc:date>
    <dc:format>image/svg+xml</dc:format>
    <dc:creator>
     <cc:Agent>
      <dc:title>Matplotlib v3.7.1, https://matplotlib.org/</dc:title>
     </cc:Agent>
    </dc:creator>
   </cc:Work>
  </rdf:RDF>
 </metadata>
 <defs>
  <style type="text/css">*{stroke-linejoin: round; stroke-linecap: butt}</style>
 </defs>
 <g id="figure_1">
  <g id="patch_1">
   <path d="M 0 381.574219 
L 618.568281 381.574219 
L 618.568281 0 
L 0 0 
z
" style="fill: #ffffff"/>
  </g>
  <g id="axes_1">
   <g id="patch_2">
    <path d="M 53.368281 339.84 
L 611.368281 339.84 
L 611.368281 7.2 
L 53.368281 7.2 
z
" style="fill: #eaeaf2"/>
   </g>
   <g id="matplotlib.axis_1">
    <g id="xtick_1">
     <g id="line2d_1">
      <path d="M 129.971587 339.84 
L 129.971587 7.2 
" clip-path="url(#p147593fc26)" style="fill: none; stroke: #ffffff; stroke-linecap: round"/>
     </g>
     <g id="text_1">
      <!-- −4 -->
      <g style="fill: #262626" transform="translate(123.700728 357.213594) scale(0.11 -0.11)">
       <defs>
        <path id="ArialMT-2212" d="M 3381 1997 
L 356 1997 
L 356 2522 
L 3381 2522 
L 3381 1997 
z
" transform="scale(0.015625)"/>
        <path id="ArialMT-34" d="M 2069 0 
L 2069 1097 
L 81 1097 
L 81 1613 
L 2172 4581 
L 2631 4581 
L 2631 1613 
L 3250 1613 
L 3250 1097 
L 2631 1097 
L 2631 0 
L 2069 0 
z
M 2069 1613 
L 2069 3678 
L 634 1613 
L 2069 1613 
z
" transform="scale(0.015625)"/>
       </defs>
       <use xlink:href="#ArialMT-2212"/>
       <use xlink:href="#ArialMT-34" x="58.398438"/>
      </g>
     </g>
    </g>
    <g id="xtick_2">
     <g id="line2d_2">
      <path d="M 232.450926 339.84 
L 232.450926 7.2 
" clip-path="url(#p147593fc26)" style="fill: none; stroke: #ffffff; stroke-linecap: round"/>
     </g>
     <g id="text_2">
      <!-- −2 -->
      <g style="fill: #262626" transform="translate(226.180067 357.213594) scale(0.11 -0.11)">
       <defs>
        <path id="ArialMT-32" d="M 3222 541 
L 3222 0 
L 194 0 
Q 188 203 259 391 
Q 375 700 629 1000 
Q 884 1300 1366 1694 
Q 2113 2306 2375 2664 
Q 2638 3022 2638 3341 
Q 2638 3675 2398 3904 
Q 2159 4134 1775 4134 
Q 1369 4134 1125 3890 
Q 881 3647 878 3216 
L 300 3275 
Q 359 3922 746 4261 
Q 1134 4600 1788 4600 
Q 2447 4600 2831 4234 
Q 3216 3869 3216 3328 
Q 3216 3053 3103 2787 
Q 2991 2522 2730 2228 
Q 2469 1934 1863 1422 
Q 1356 997 1212 845 
Q 1069 694 975 541 
L 3222 541 
z
" transform="scale(0.015625)"/>
       </defs>
       <use xlink:href="#ArialMT-2212"/>
       <use xlink:href="#ArialMT-32" x="58.398438"/>
      </g>
     </g>
    </g>
    <g id="xtick_3">
     <g id="line2d_3">
      <path d="M 334.930265 339.84 
L 334.930265 7.2 
" clip-path="url(#p147593fc26)" style="fill: none; stroke: #ffffff; stroke-linecap: round"/>
     </g>
     <g id="text_3">
      <!-- 0 -->
      <g style="fill: #262626" transform="translate(331.871749 357.213594) scale(0.11 -0.11)">
       <defs>
        <path id="ArialMT-30" d="M 266 2259 
Q 266 3072 433 3567 
Q 600 4063 929 4331 
Q 1259 4600 1759 4600 
Q 2128 4600 2406 4451 
Q 2684 4303 2865 4023 
Q 3047 3744 3150 3342 
Q 3253 2941 3253 2259 
Q 3253 1453 3087 958 
Q 2922 463 2592 192 
Q 2263 -78 1759 -78 
Q 1097 -78 719 397 
Q 266 969 266 2259 
z
M 844 2259 
Q 844 1131 1108 757 
Q 1372 384 1759 384 
Q 2147 384 2411 759 
Q 2675 1134 2675 2259 
Q 2675 3391 2411 3762 
Q 2147 4134 1753 4134 
Q 1366 4134 1134 3806 
Q 844 3388 844 2259 
z
" transform="scale(0.015625)"/>
       </defs>
       <use xlink:href="#ArialMT-30"/>
      </g>
     </g>
    </g>
    <g id="xtick_4">
     <g id="line2d_4">
      <path d="M 437.409604 339.84 
L 437.409604 7.2 
" clip-path="url(#p147593fc26)" style="fill: none; stroke: #ffffff; stroke-linecap: round"/>
     </g>
     <g id="text_4">
      <!-- 2 -->
      <g style="fill: #262626" transform="translate(434.351088 357.213594) scale(0.11 -0.11)">
       <use xlink:href="#ArialMT-32"/>
      </g>
     </g>
    </g>
    <g id="xtick_5">
     <g id="line2d_5">
      <path d="M 539.888942 339.84 
L 539.888942 7.2 
" clip-path="url(#p147593fc26)" style="fill: none; stroke: #ffffff; stroke-linecap: round"/>
     </g>
     <g id="text_5">
      <!-- 4 -->
      <g style="fill: #262626" transform="translate(536.830427 357.213594) scale(0.11 -0.11)">
       <use xlink:href="#ArialMT-34"/>
      </g>
     </g>
    </g>
    <g id="text_6">
     <!-- x -->
     <g style="fill: #262626" transform="translate(329.368281 371.989219) scale(0.12 -0.12)">
      <defs>
       <path id="ArialMT-78" d="M 47 0 
L 1259 1725 
L 138 3319 
L 841 3319 
L 1350 2541 
Q 1494 2319 1581 2169 
Q 1719 2375 1834 2534 
L 2394 3319 
L 3066 3319 
L 1919 1756 
L 3153 0 
L 2463 0 
L 1781 1031 
L 1600 1309 
L 728 0 
L 47 0 
z
" transform="scale(0.015625)"/>
      </defs>
      <use xlink:href="#ArialMT-78"/>
     </g>
    </g>
   </g>
   <g id="matplotlib.axis_2">
    <g id="ytick_1">
     <g id="line2d_6">
      <path d="M 53.368281 324.721127 
L 611.368281 324.721127 
" clip-path="url(#p147593fc26)" style="fill: none; stroke: #ffffff; stroke-linecap: round"/>
     </g>
     <g id="text_7">
      <!-- 0.00 -->
      <g style="fill: #262626" transform="translate(22.46125 328.657924) scale(0.11 -0.11)">
       <defs>
        <path id="ArialMT-2e" d="M 581 0 
L 581 641 
L 1222 641 
L 1222 0 
L 581 0 
z
" transform="scale(0.015625)"/>
       </defs>
       <use xlink:href="#ArialMT-30"/>
       <use xlink:href="#ArialMT-2e" x="55.615234"/>
       <use xlink:href="#ArialMT-30" x="83.398438"/>
       <use xlink:href="#ArialMT-30" x="139.013672"/>
      </g>
     </g>
    </g>
    <g id="ytick_2">
     <g id="line2d_7">
      <path d="M 53.368281 286.820766 
L 611.368281 286.820766 
" clip-path="url(#p147593fc26)" style="fill: none; stroke: #ffffff; stroke-linecap: round"/>
     </g>
     <g id="text_8">
      <!-- 0.05 -->
      <g style="fill: #262626" transform="translate(22.46125 290.757563) scale(0.11 -0.11)">
       <defs>
        <path id="ArialMT-35" d="M 266 1200 
L 856 1250 
Q 922 819 1161 601 
Q 1400 384 1738 384 
Q 2144 384 2425 690 
Q 2706 997 2706 1503 
Q 2706 1984 2436 2262 
Q 2166 2541 1728 2541 
Q 1456 2541 1237 2417 
Q 1019 2294 894 2097 
L 366 2166 
L 809 4519 
L 3088 4519 
L 3088 3981 
L 1259 3981 
L 1013 2750 
Q 1425 3038 1878 3038 
Q 2478 3038 2890 2622 
Q 3303 2206 3303 1553 
Q 3303 931 2941 478 
Q 2500 -78 1738 -78 
Q 1113 -78 717 272 
Q 322 622 266 1200 
z
" transform="scale(0.015625)"/>
       </defs>
       <use xlink:href="#ArialMT-30"/>
       <use xlink:href="#ArialMT-2e" x="55.615234"/>
       <use xlink:href="#ArialMT-30" x="83.398438"/>
       <use xlink:href="#ArialMT-35" x="139.013672"/>
      </g>
     </g>
    </g>
    <g id="ytick_3">
     <g id="line2d_8">
      <path d="M 53.368281 248.920405 
L 611.368281 248.920405 
" clip-path="url(#p147593fc26)" style="fill: none; stroke: #ffffff; stroke-linecap: round"/>
     </g>
     <g id="text_9">
      <!-- 0.10 -->
      <g style="fill: #262626" transform="translate(22.46125 252.857202) scale(0.11 -0.11)">
       <defs>
        <path id="ArialMT-31" d="M 2384 0 
L 1822 0 
L 1822 3584 
Q 1619 3391 1289 3197 
Q 959 3003 697 2906 
L 697 3450 
Q 1169 3672 1522 3987 
Q 1875 4303 2022 4600 
L 2384 4600 
L 2384 0 
z
" transform="scale(0.015625)"/>
       </defs>
       <use xlink:href="#ArialMT-30"/>
       <use xlink:href="#ArialMT-2e" x="55.615234"/>
       <use xlink:href="#ArialMT-31" x="83.398438"/>
       <use xlink:href="#ArialMT-30" x="139.013672"/>
      </g>
     </g>
    </g>
    <g id="ytick_4">
     <g id="line2d_9">
      <path d="M 53.368281 211.020045 
L 611.368281 211.020045 
" clip-path="url(#p147593fc26)" style="fill: none; stroke: #ffffff; stroke-linecap: round"/>
     </g>
     <g id="text_10">
      <!-- 0.15 -->
      <g style="fill: #262626" transform="translate(22.46125 214.956842) scale(0.11 -0.11)">
       <use xlink:href="#ArialMT-30"/>
       <use xlink:href="#ArialMT-2e" x="55.615234"/>
       <use xlink:href="#ArialMT-31" x="83.398438"/>
       <use xlink:href="#ArialMT-35" x="139.013672"/>
      </g>
     </g>
    </g>
    <g id="ytick_5">
     <g id="line2d_10">
      <path d="M 53.368281 173.119684 
L 611.368281 173.119684 
" clip-path="url(#p147593fc26)" style="fill: none; stroke: #ffffff; stroke-linecap: round"/>
     </g>
     <g id="text_11">
      <!-- 0.20 -->
      <g style="fill: #262626" transform="translate(22.46125 177.056481) scale(0.11 -0.11)">
       <use xlink:href="#ArialMT-30"/>
       <use xlink:href="#ArialMT-2e" x="55.615234"/>
       <use xlink:href="#ArialMT-32" x="83.398438"/>
       <use xlink:href="#ArialMT-30" x="139.013672"/>
      </g>
     </g>
    </g>
    <g id="ytick_6">
     <g id="line2d_11">
      <path d="M 53.368281 135.219323 
L 611.368281 135.219323 
" clip-path="url(#p147593fc26)" style="fill: none; stroke: #ffffff; stroke-linecap: round"/>
     </g>
     <g id="text_12">
      <!-- 0.25 -->
      <g style="fill: #262626" transform="translate(22.46125 139.15612) scale(0.11 -0.11)">
       <use xlink:href="#ArialMT-30"/>
       <use xlink:href="#ArialMT-2e" x="55.615234"/>
       <use xlink:href="#ArialMT-32" x="83.398438"/>
       <use xlink:href="#ArialMT-35" x="139.013672"/>
      </g>
     </g>
    </g>
    <g id="ytick_7">
     <g id="line2d_12">
      <path d="M 53.368281 97.318962 
L 611.368281 97.318962 
" clip-path="url(#p147593fc26)" style="fill: none; stroke: #ffffff; stroke-linecap: round"/>
     </g>
     <g id="text_13">
      <!-- 0.30 -->
      <g style="fill: #262626" transform="translate(22.46125 101.255759) scale(0.11 -0.11)">
       <defs>
        <path id="ArialMT-33" d="M 269 1209 
L 831 1284 
Q 928 806 1161 595 
Q 1394 384 1728 384 
Q 2125 384 2398 659 
Q 2672 934 2672 1341 
Q 2672 1728 2419 1979 
Q 2166 2231 1775 2231 
Q 1616 2231 1378 2169 
L 1441 2663 
Q 1497 2656 1531 2656 
Q 1891 2656 2178 2843 
Q 2466 3031 2466 3422 
Q 2466 3731 2256 3934 
Q 2047 4138 1716 4138 
Q 1388 4138 1169 3931 
Q 950 3725 888 3313 
L 325 3413 
Q 428 3978 793 4289 
Q 1159 4600 1703 4600 
Q 2078 4600 2393 4439 
Q 2709 4278 2876 4000 
Q 3044 3722 3044 3409 
Q 3044 3113 2884 2869 
Q 2725 2625 2413 2481 
Q 2819 2388 3044 2092 
Q 3269 1797 3269 1353 
Q 3269 753 2831 336 
Q 2394 -81 1725 -81 
Q 1122 -81 723 278 
Q 325 638 269 1209 
z
" transform="scale(0.015625)"/>
       </defs>
       <use xlink:href="#ArialMT-30"/>
       <use xlink:href="#ArialMT-2e" x="55.615234"/>
       <use xlink:href="#ArialMT-33" x="83.398438"/>
       <use xlink:href="#ArialMT-30" x="139.013672"/>
      </g>
     </g>
    </g>
    <g id="ytick_8">
     <g id="line2d_13">
      <path d="M 53.368281 59.418602 
L 611.368281 59.418602 
" clip-path="url(#p147593fc26)" style="fill: none; stroke: #ffffff; stroke-linecap: round"/>
     </g>
     <g id="text_14">
      <!-- 0.35 -->
      <g style="fill: #262626" transform="translate(22.46125 63.355399) scale(0.11 -0.11)">
       <use xlink:href="#ArialMT-30"/>
       <use xlink:href="#ArialMT-2e" x="55.615234"/>
       <use xlink:href="#ArialMT-33" x="83.398438"/>
       <use xlink:href="#ArialMT-35" x="139.013672"/>
      </g>
     </g>
    </g>
    <g id="ytick_9">
     <g id="line2d_14">
      <path d="M 53.368281 21.518241 
L 611.368281 21.518241 
" clip-path="url(#p147593fc26)" style="fill: none; stroke: #ffffff; stroke-linecap: round"/>
     </g>
     <g id="text_15">
      <!-- 0.40 -->
      <g style="fill: #262626" transform="translate(22.46125 25.455038) scale(0.11 -0.11)">
       <use xlink:href="#ArialMT-30"/>
       <use xlink:href="#ArialMT-2e" x="55.615234"/>
       <use xlink:href="#ArialMT-34" x="83.398438"/>
       <use xlink:href="#ArialMT-30" x="139.013672"/>
      </g>
     </g>
    </g>
    <g id="text_16">
     <!-- f(x) -->
     <g style="fill: #262626" transform="translate(15.935625 182.1825) rotate(-90) scale(0.12 -0.12)">
      <defs>
       <path id="ArialMT-66" d="M 556 0 
L 556 2881 
L 59 2881 
L 59 3319 
L 556 3319 
L 556 3672 
Q 556 4006 616 4169 
Q 697 4388 901 4523 
Q 1106 4659 1475 4659 
Q 1713 4659 2000 4603 
L 1916 4113 
Q 1741 4144 1584 4144 
Q 1328 4144 1222 4034 
Q 1116 3925 1116 3625 
L 1116 3319 
L 1763 3319 
L 1763 2881 
L 1116 2881 
L 1116 0 
L 556 0 
z
" transform="scale(0.015625)"/>
       <path id="ArialMT-28" d="M 1497 -1347 
Q 1031 -759 709 28 
Q 388 816 388 1659 
Q 388 2403 628 3084 
Q 909 3875 1497 4659 
L 1900 4659 
Q 1522 4009 1400 3731 
Q 1209 3300 1100 2831 
Q 966 2247 966 1656 
Q 966 153 1900 -1347 
L 1497 -1347 
z
" transform="scale(0.015625)"/>
       <path id="ArialMT-29" d="M 791 -1347 
L 388 -1347 
Q 1322 153 1322 1656 
Q 1322 2244 1188 2822 
Q 1081 3291 891 3722 
Q 769 4003 388 4659 
L 791 4659 
Q 1378 3875 1659 3084 
Q 1900 2403 1900 1659 
Q 1900 816 1576 28 
Q 1253 -759 791 -1347 
z
" transform="scale(0.015625)"/>
      </defs>
      <use xlink:href="#ArialMT-66"/>
      <use xlink:href="#ArialMT-28" x="27.783203"/>
      <use xlink:href="#ArialMT-78" x="61.083984"/>
      <use xlink:href="#ArialMT-29" x="111.083984"/>
     </g>
    </g>
   </g>
   <g id="line2d_15">
    <path d="M 78.731918 315.441081 
L 83.855885 315.073738 
L 88.979851 314.684472 
L 94.103818 314.27153 
L 99.227785 313.832987 
L 104.351752 313.366718 
L 109.475719 312.870381 
L 114.599686 312.341384 
L 119.723653 311.776857 
L 124.84762 311.173615 
L 129.971587 310.528116 
L 135.095554 309.836414 
L 140.219521 309.094107 
L 145.343488 308.296267 
L 150.467455 307.437374 
L 155.591422 306.511226 
L 160.715389 305.510841 
L 165.839356 304.428344 
L 170.963323 303.254829 
L 176.08729 301.980204 
L 181.211256 300.593008 
L 186.335223 299.080193 
L 191.45919 297.426875 
L 196.583157 295.616038 
L 201.707124 293.62819 
L 206.831091 291.440963 
L 211.955058 289.028643 
L 217.079025 286.361637 
L 222.202992 283.405855 
L 227.326959 280.122016 
L 232.450926 276.464889 
L 237.574893 272.382474 
L 242.69886 267.815186 
L 247.822827 262.695114 
L 252.946794 256.945512 
L 258.070761 250.480761 
L 263.194728 243.207211 
L 268.318694 235.025517 
L 273.442661 225.835393 
L 278.566628 215.544118 
L 283.690595 204.080532 
L 288.814562 191.416602 
L 293.938529 177.59845 
L 299.062496 162.787442 
L 304.186463 147.308487 
L 309.31043 131.696175 
L 314.434397 116.720101 
L 319.558364 103.362237 
L 324.682331 92.719982 
L 329.806298 85.828859 
L 334.930265 83.439937 
L 340.054232 85.828859 
L 345.178199 92.719982 
L 350.302166 103.362237 
L 355.426132 116.720101 
L 360.550099 131.696175 
L 365.674066 147.308487 
L 370.798033 162.787442 
L 375.922 177.59845 
L 381.045967 191.416602 
L 386.169934 204.080532 
L 391.293901 215.544118 
L 396.417868 225.835393 
L 401.541835 235.025517 
L 406.665802 243.207211 
L 411.789769 250.480761 
L 416.913736 256.945512 
L 422.037703 262.695114 
L 427.16167 267.815186 
L 432.285637 272.382474 
L 437.409604 276.464889 
L 442.533571 280.122016 
L 447.657537 283.405855 
L 452.781504 286.361637 
L 457.905471 289.028643 
L 463.029438 291.440963 
L 468.153405 293.62819 
L 473.277372 295.616038 
L 478.401339 297.426875 
L 483.525306 299.080193 
L 488.649273 300.593008 
L 493.77324 301.980204 
L 498.897207 303.254829 
L 504.021174 304.428344 
L 509.145141 305.510841 
L 514.269108 306.511226 
L 519.393075 307.437374 
L 524.517042 308.296267 
L 529.641009 309.094107 
L 534.764975 309.836414 
L 539.888942 310.528116 
L 545.012909 311.173615 
L 550.136876 311.776857 
L 555.260843 312.341384 
L 560.38481 312.870381 
L 565.508777 313.366718 
L 570.632744 313.832987 
L 575.756711 314.27153 
L 580.880678 314.684472 
L 586.004645 315.073738 
" clip-path="url(#p147593fc26)" style="fill: none; stroke: #0173b2; stroke-width: 1.5; stroke-linecap: round"/>
   </g>
   <g id="line2d_16">
    <path d="M 78.731918 319.318217 
L 83.855885 319.00683 
L 88.979851 318.671594 
L 94.103818 318.31024 
L 99.227785 317.920241 
L 104.351752 317.498781 
L 109.475719 317.042714 
L 114.599686 316.548524 
L 119.723653 316.012271 
L 124.84762 315.429535 
L 129.971587 314.795348 
L 135.095554 314.104122 
L 140.219521 313.349552 
L 145.343488 312.524523 
L 150.467455 311.620987 
L 155.591422 310.629828 
L 160.715389 309.540706 
L 165.839356 308.341879 
L 170.963323 307.019988 
L 176.08729 305.559825 
L 181.211256 303.944057 
L 186.335223 302.15291 
L 191.45919 300.163823 
L 196.583157 297.951041 
L 201.707124 295.485179 
L 206.831091 292.732734 
L 211.955058 289.655569 
L 217.079025 286.210371 
L 222.202992 282.348129 
L 227.326959 278.013662 
L 232.450926 273.145269 
L 237.574893 267.674621 
L 242.69886 261.527045 
L 247.822827 254.622413 
L 252.946794 246.87696 
L 258.070761 238.206419 
L 263.194728 228.530986 
L 268.318694 217.7827 
L 273.442661 205.915865 
L 278.566628 192.921011 
L 283.690595 178.84257 
L 288.814562 163.799706 
L 293.938529 148.008554 
L 299.062496 131.80243 
L 304.186463 115.644572 
L 309.31043 100.126397 
L 314.434397 85.944005 
L 319.558364 73.848134 
L 324.682331 64.568576 
L 329.806298 58.722587 
L 334.930265 56.725106 
L 340.054232 58.722587 
L 345.178199 64.568576 
L 350.302166 73.848134 
L 355.426132 85.944005 
L 360.550099 100.126397 
L 365.674066 115.644572 
L 370.798033 131.80243 
L 375.922 148.008554 
L 381.045967 163.799706 
L 386.169934 178.84257 
L 391.293901 192.921011 
L 396.417868 205.915865 
L 401.541835 217.7827 
L 406.665802 228.530986 
L 411.789769 238.206419 
L 416.913736 246.87696 
L 422.037703 254.622413 
L 427.16167 261.527045 
L 432.285637 267.674621 
L 437.409604 273.145269 
L 442.533571 278.013662 
L 447.657537 282.348129 
L 452.781504 286.210371 
L 457.905471 289.655569 
L 463.029438 292.732734 
L 468.153405 295.485179 
L 473.277372 297.951041 
L 478.401339 300.163823 
L 483.525306 302.15291 
L 488.649273 303.944057 
L 493.77324 305.559825 
L 498.897207 307.019988 
L 504.021174 308.341879 
L 509.145141 309.540706 
L 514.269108 310.629828 
L 519.393075 311.620987 
L 524.517042 312.524523 
L 529.641009 313.349552 
L 534.764975 314.104122 
L 539.888942 314.795348 
L 545.012909 315.429535 
L 550.136876 316.012271 
L 555.260843 316.548524 
L 560.38481 317.042714 
L 565.508777 317.498781 
L 570.632744 317.920241 
L 575.756711 318.31024 
L 580.880678 318.671594 
L 586.004645 319.00683 
" clip-path="url(#p147593fc26)" style="fill: none; stroke: #de8f05; stroke-width: 1.5; stroke-linecap: round"/>
   </g>
   <g id="line2d_17">
    <path d="M 78.731918 323.388976 
L 83.855885 323.247885 
L 88.979851 323.089642 
L 94.103818 322.911912 
L 99.227785 322.712016 
L 104.351752 322.48687 
L 109.475719 322.232927 
L 114.599686 321.946094 
L 119.723653 321.621653 
L 124.84762 321.254156 
L 129.971587 320.837305 
L 135.095554 320.363819 
L 140.219521 319.825273 
L 145.343488 319.211917 
L 150.467455 318.512462 
L 155.591422 317.71384 
L 160.715389 316.800926 
L 165.839356 315.756226 
L 170.963323 314.559522 
L 176.08729 313.187482 
L 181.211256 311.613227 
L 186.335223 309.805865 
L 191.45919 307.730002 
L 196.583157 305.345241 
L 201.707124 302.605704 
L 206.831091 299.459597 
L 211.955058 295.848892 
L 217.079025 291.709184 
L 222.202992 286.969827 
L 227.326959 281.554478 
L 232.450926 275.382202 
L 237.574893 268.369332 
L 242.69886 260.432289 
L 247.822827 251.491605 
L 252.946794 241.477341 
L 258.070761 230.336081 
L 263.194728 218.039534 
L 268.318694 204.594618 
L 273.442661 190.054616 
L 278.566628 174.530646 
L 283.690595 158.202256 
L 288.814562 141.325569 
L 293.938529 124.237044 
L 299.062496 107.350841 
L 304.186463 91.148018 
L 309.31043 76.156514 
L 314.434397 62.922054 
L 319.558364 51.97169 
L 324.682331 43.77335 
L 329.806298 38.696102 
L 334.930265 36.976517 
L 340.054232 38.696102 
L 345.178199 43.77335 
L 350.302166 51.97169 
L 355.426132 62.922054 
L 360.550099 76.156514 
L 365.674066 91.148018 
L 370.798033 107.350841 
L 375.922 124.237044 
L 381.045967 141.325569 
L 386.169934 158.202256 
L 391.293901 174.530646 
L 396.417868 190.054616 
L 401.541835 204.594618 
L 406.665802 218.039534 
L 411.789769 230.336081 
L 416.913736 241.477341 
L 422.037703 251.491605 
L 427.16167 260.432289 
L 432.285637 268.369332 
L 437.409604 275.382202 
L 442.533571 281.554478 
L 447.657537 286.969827 
L 452.781504 291.709184 
L 457.905471 295.848892 
L 463.029438 299.459597 
L 468.153405 302.605704 
L 473.277372 305.345241 
L 478.401339 307.730002 
L 483.525306 309.805865 
L 488.649273 311.613227 
L 493.77324 313.187482 
L 498.897207 314.559522 
L 504.021174 315.756226 
L 509.145141 316.800926 
L 514.269108 317.71384 
L 519.393075 318.512462 
L 524.517042 319.211917 
L 529.641009 319.825273 
L 534.764975 320.363819 
L 539.888942 320.837305 
L 545.012909 321.254156 
L 550.136876 321.621653 
L 555.260843 321.946094 
L 560.38481 322.232927 
L 565.508777 322.48687 
L 570.632744 322.712016 
L 575.756711 322.911912 
L 580.880678 323.089642 
L 586.004645 323.247885 
" clip-path="url(#p147593fc26)" style="fill: none; stroke: #029e73; stroke-width: 1.5; stroke-linecap: round"/>
   </g>
   <g id="line2d_18">
    <path d="M 78.731918 324.696197 
L 83.855885 324.68809 
L 88.979851 324.677376 
L 94.103818 324.663231 
L 99.227785 324.644581 
L 104.351752 324.620031 
L 109.475719 324.587766 
L 114.599686 324.545442 
L 119.723653 324.490036 
L 124.84762 324.417671 
L 129.971587 324.323388 
L 135.095554 324.20088 
L 140.219521 324.042163 
L 145.343488 323.837187 
L 150.467455 323.573375 
L 155.591422 323.235087 
L 160.715389 322.803017 
L 165.839356 322.253502 
L 170.963323 321.557787 
L 176.08729 320.681239 
L 181.211256 319.582548 
L 186.335223 318.212976 
L 191.45919 316.515686 
L 196.583157 314.425271 
L 201.707124 311.867547 
L 206.831091 308.759754 
L 211.955058 305.011292 
L 217.079025 300.52512 
L 222.202992 295.199986 
L 227.326959 288.933576 
L 232.450926 281.626692 
L 237.574893 273.188479 
L 242.69886 263.542649 
L 247.822827 252.634557 
L 252.946794 240.43885 
L 258.070761 226.967302 
L 263.194728 212.276306 
L 268.318694 196.473395 
L 273.442661 179.722105 
L 278.566628 162.244465 
L 283.690595 144.320456 
L 288.814562 126.283933 
L 293.938529 108.514696 
L 299.062496 91.426721 
L 304.186463 75.452851 
L 309.31043 61.026654 
L 314.434397 48.562461 
L 319.558364 38.434875 
L 324.682331 30.959197 
L 329.806298 26.374266 
L 334.930265 24.829076 
L 340.054232 26.374266 
L 345.178199 30.959197 
L 350.302166 38.434875 
L 355.426132 48.562461 
L 360.550099 61.026654 
L 365.674066 75.452851 
L 370.798033 91.426721 
L 375.922 108.514696 
L 381.045967 126.283933 
L 386.169934 144.320456 
L 391.293901 162.244465 
L 396.417868 179.722105 
L 401.541835 196.473395 
L 406.665802 212.276306 
L 411.789769 226.967302 
L 416.913736 240.43885 
L 422.037703 252.634557 
L 427.16167 263.542649 
L 432.285637 273.188479 
L 437.409604 281.626692 
L 442.533571 288.933576 
L 447.657537 295.199986 
L 452.781504 300.52512 
L 457.905471 305.011292 
L 463.029438 308.759754 
L 468.153405 311.867547 
L 473.277372 314.425271 
L 478.401339 316.515686 
L 483.525306 318.212976 
L 488.649273 319.582548 
L 493.77324 320.681239 
L 498.897207 321.557787 
L 504.021174 322.253502 
L 509.145141 322.803017 
L 514.269108 323.235087 
L 519.393075 323.573375 
L 524.517042 323.837187 
L 529.641009 324.042163 
L 534.764975 324.20088 
L 539.888942 324.323388 
L 545.012909 324.417671 
L 550.136876 324.490036 
L 555.260843 324.545442 
L 560.38481 324.587766 
L 565.508777 324.620031 
L 570.632744 324.644581 
L 575.756711 324.663231 
L 580.880678 324.677376 
L 586.004645 324.68809 
" clip-path="url(#p147593fc26)" style="fill: none; stroke: #d55e00; stroke-width: 1.5; stroke-linecap: round"/>
   </g>
   <g id="line2d_19">
    <path d="M 78.731918 324.72 
L 83.855885 324.719278 
L 88.979851 324.718124 
L 94.103818 324.716299 
L 99.227785 324.71344 
L 104.351752 324.709011 
L 109.475719 324.70222 
L 114.599686 324.691917 
L 119.723653 324.676448 
L 124.84762 324.653466 
L 129.971587 324.619683 
L 135.095554 324.570545 
L 140.219521 324.499829 
L 145.343488 324.39914 
L 150.467455 324.257301 
L 155.591422 324.059627 
L 160.715389 323.787096 
L 165.839356 323.415407 
L 170.963323 322.913971 
L 176.08729 322.244855 
L 181.211256 321.361754 
L 186.335223 320.209064 
L 191.45919 318.721158 
L 196.583157 316.821983 
L 201.707124 314.425138 
L 206.831091 311.434549 
L 211.955058 307.745911 
L 217.079025 303.249028 
L 222.202992 297.83113 
L 227.326959 291.381244 
L 232.450926 283.795585 
L 237.574893 274.983866 
L 242.69886 264.876337 
L 247.822827 253.431248 
L 252.946794 240.642334 
L 258.070761 226.545855 
L 263.194728 211.226628 
L 268.318694 194.822498 
L 273.442661 177.526696 
L 278.566628 159.587605 
L 283.690595 141.305572 
L 288.814562 123.026588 
L 293.938529 105.13284 
L 299.062496 88.030393 
L 304.186463 72.134474 
L 309.31043 57.853069 
L 314.434397 45.569703 
L 319.558364 35.626411 
L 324.682331 28.307944 
L 329.806298 23.828232 
L 334.930265 22.32 
L 340.054232 23.828232 
L 345.178199 28.307944 
L 350.302166 35.626411 
L 355.426132 45.569703 
L 360.550099 57.853069 
L 365.674066 72.134474 
L 370.798033 88.030393 
L 375.922 105.13284 
L 381.045967 123.026588 
L 386.169934 141.305572 
L 391.293901 159.587605 
L 396.417868 177.526696 
L 401.541835 194.822498 
L 406.665802 211.226628 
L 411.789769 226.545855 
L 416.913736 240.642334 
L 422.037703 253.431248 
L 427.16167 264.876337 
L 432.285637 274.983866 
L 437.409604 283.795585 
L 442.533571 291.381244 
L 447.657537 297.83113 
L 452.781504 303.249028 
L 457.905471 307.745911 
L 463.029438 311.434549 
L 468.153405 314.425138 
L 473.277372 316.821983 
L 478.401339 318.721158 
L 483.525306 320.209064 
L 488.649273 321.361754 
L 493.77324 322.244855 
L 498.897207 322.913971 
L 504.021174 323.415407 
L 509.145141 323.787096 
L 514.269108 324.059627 
L 519.393075 324.257301 
L 524.517042 324.39914 
L 529.641009 324.499829 
L 534.764975 324.570545 
L 539.888942 324.619683 
L 545.012909 324.653466 
L 550.136876 324.676448 
L 555.260843 324.691917 
L 560.38481 324.70222 
L 565.508777 324.709011 
L 570.632744 324.71344 
L 575.756711 324.716299 
L 580.880678 324.718124 
L 586.004645 324.719278 
" clip-path="url(#p147593fc26)" style="fill: none; stroke: #cc78bc; stroke-width: 1.5; stroke-linecap: round"/>
   </g>
   <g id="patch_3">
    <path d="M 53.368281 339.84 
L 53.368281 7.2 
" style="fill: none; stroke: #ffffff; stroke-width: 1.25; stroke-linejoin: miter; stroke-linecap: square"/>
   </g>
   <g id="patch_4">
    <path d="M 611.368281 339.84 
L 611.368281 7.2 
" style="fill: none; stroke: #ffffff; stroke-width: 1.25; stroke-linejoin: miter; stroke-linecap: square"/>
   </g>
   <g id="patch_5">
    <path d="M 53.368281 339.84 
L 611.368281 339.84 
" style="fill: none; stroke: #ffffff; stroke-width: 1.25; stroke-linejoin: miter; stroke-linecap: square"/>
   </g>
   <g id="patch_6">
    <path d="M 53.368281 7.2 
L 611.368281 7.2 
" style="fill: none; stroke: #ffffff; stroke-width: 1.25; stroke-linejoin: miter; stroke-linecap: square"/>
   </g>
   <g id="legend_1">
    <g id="patch_7">
     <path d="M 496.652031 94.062188 
L 603.668281 94.062188 
Q 605.868281 94.062188 605.868281 91.862188 
L 605.868281 14.9 
Q 605.868281 12.7 603.668281 12.7 
L 496.652031 12.7 
Q 494.452031 12.7 494.452031 14.9 
L 494.452031 91.862188 
Q 494.452031 94.062188 496.652031 94.062188 
z
" style="fill: #eaeaf2; opacity: 0.8; stroke: #cccccc; stroke-linejoin: miter"/>
    </g>
    <g id="line2d_20">
     <path d="M 498.852031 21.123594 
L 509.852031 21.123594 
L 520.852031 21.123594 
" style="fill: none; stroke: #0173b2; stroke-width: 1.5; stroke-linecap: round"/>
    </g>
    <g id="text_17">
     <!-- $\nu$ = 1 -->
     <g style="fill: #262626" transform="translate(529.652031 24.973594) scale(0.11 -0.11)">
      <defs>
       <path id="Cmmi10-ba" d="M 403 0 
Q 325 0 325 84 
L 872 2259 
Q 897 2369 903 2431 
Q 903 2534 488 2534 
Q 422 2534 422 2619 
Q 425 2634 436 2675 
Q 447 2716 464 2737 
Q 481 2759 513 2759 
L 1375 2828 
Q 1453 2828 1453 2747 
L 825 238 
Q 1331 406 1757 765 
Q 2184 1125 2479 1612 
Q 2775 2100 2906 2625 
Q 2931 2716 3006 2772 
Q 3081 2828 3175 2828 
Q 3259 2828 3312 2778 
Q 3366 2728 3366 2644 
Q 3366 2541 3281 2330 
Q 3197 2119 3116 1953 
Q 2863 1450 2444 1031 
Q 2181 769 1879 566 
Q 1578 363 1250 220 
Q 922 78 556 0 
L 403 0 
z
" transform="scale(0.015625)"/>
       <path id="ArialMT-20" transform="scale(0.015625)"/>
       <path id="ArialMT-3d" d="M 3381 2694 
L 356 2694 
L 356 3219 
L 3381 3219 
L 3381 2694 
z
M 3381 1303 
L 356 1303 
L 356 1828 
L 3381 1828 
L 3381 1303 
z
" transform="scale(0.015625)"/>
      </defs>
      <use xlink:href="#Cmmi10-ba" transform="translate(0 0.125)"/>
      <use xlink:href="#ArialMT-20" transform="translate(49.414062 0.125)"/>
      <use xlink:href="#ArialMT-3d" transform="translate(77.197266 0.125)"/>
      <use xlink:href="#ArialMT-20" transform="translate(135.595703 0.125)"/>
      <use xlink:href="#ArialMT-31" transform="translate(163.378906 0.125)"/>
     </g>
    </g>
    <g id="line2d_21">
     <path d="M 498.852031 36.683438 
L 509.852031 36.683438 
L 520.852031 36.683438 
" style="fill: none; stroke: #de8f05; stroke-width: 1.5; stroke-linecap: round"/>
    </g>
    <g id="text_18">
     <!-- $\nu$ = 2 -->
     <g style="fill: #262626" transform="translate(529.652031 40.533438) scale(0.11 -0.11)">
      <use xlink:href="#Cmmi10-ba" transform="translate(0 0.125)"/>
      <use xlink:href="#ArialMT-20" transform="translate(49.414062 0.125)"/>
      <use xlink:href="#ArialMT-3d" transform="translate(77.197266 0.125)"/>
      <use xlink:href="#ArialMT-20" transform="translate(135.595703 0.125)"/>
      <use xlink:href="#ArialMT-32" transform="translate(163.378906 0.125)"/>
     </g>
    </g>
    <g id="line2d_22">
     <path d="M 498.852031 52.243281 
L 509.852031 52.243281 
L 520.852031 52.243281 
" style="fill: none; stroke: #029e73; stroke-width: 1.5; stroke-linecap: round"/>
    </g>
    <g id="text_19">
     <!-- $\nu$ = 5 -->
     <g style="fill: #262626" transform="translate(529.652031 56.093281) scale(0.11 -0.11)">
      <use xlink:href="#Cmmi10-ba" transform="translate(0 0.390625)"/>
      <use xlink:href="#ArialMT-20" transform="translate(49.414062 0.390625)"/>
      <use xlink:href="#ArialMT-3d" transform="translate(77.197266 0.390625)"/>
      <use xlink:href="#ArialMT-20" transform="translate(135.595703 0.390625)"/>
      <use xlink:href="#ArialMT-35" transform="translate(163.378906 0.390625)"/>
     </g>
    </g>
    <g id="line2d_23">
     <path d="M 498.852031 67.803125 
L 509.852031 67.803125 
L 520.852031 67.803125 
" style="fill: none; stroke: #d55e00; stroke-width: 1.5; stroke-linecap: round"/>
    </g>
    <g id="text_20">
     <!-- $\nu$ = 30 -->
     <g style="fill: #262626" transform="translate(529.652031 71.653125) scale(0.11 -0.11)">
      <use xlink:href="#Cmmi10-ba" transform="translate(0 0.125)"/>
      <use xlink:href="#ArialMT-20" transform="translate(49.414062 0.125)"/>
      <use xlink:href="#ArialMT-3d" transform="translate(77.197266 0.125)"/>
      <use xlink:href="#ArialMT-20" transform="translate(135.595703 0.125)"/>
      <use xlink:href="#ArialMT-33" transform="translate(163.378906 0.125)"/>
      <use xlink:href="#ArialMT-30" transform="translate(218.994141 0.125)"/>
     </g>
    </g>
    <g id="line2d_24">
     <path d="M 498.852031 83.497031 
L 509.852031 83.497031 
L 520.852031 83.497031 
" style="fill: none; stroke: #cc78bc; stroke-width: 1.5; stroke-linecap: round"/>
    </g>
    <g id="text_21">
     <!-- N(μ = 0, σ = 1) -->
     <g style="fill: #262626" transform="translate(529.652031 87.347031) scale(0.11 -0.11)">
      <defs>
       <path id="ArialMT-4e" d="M 488 0 
L 488 4581 
L 1109 4581 
L 3516 984 
L 3516 4581 
L 4097 4581 
L 4097 0 
L 3475 0 
L 1069 3600 
L 1069 0 
L 488 0 
z
" transform="scale(0.015625)"/>
       <path id="ArialMT-3bc" d="M 3181 3319 
L 3181 0 
L 2678 0 
L 2678 394 
Q 2516 144 2356 50 
Q 2138 -78 1847 -78 
Q 1588 -78 1388 25 
Q 1238 103 1056 334 
L 1056 -1272 
L 500 -1272 
L 500 3319 
L 1056 3319 
L 1056 1913 
Q 1056 1147 1137 920 
Q 1219 694 1401 562 
Q 1584 431 1822 431 
Q 2072 431 2269 568 
Q 2466 706 2547 923 
Q 2628 1141 2628 1903 
L 2628 3319 
L 3181 3319 
z
" transform="scale(0.015625)"/>
       <path id="ArialMT-2c" d="M 569 0 
L 569 641 
L 1209 641 
L 1209 0 
Q 1209 -353 1084 -570 
Q 959 -788 688 -906 
L 531 -666 
Q 709 -588 793 -436 
Q 878 -284 888 0 
L 569 0 
z
" transform="scale(0.015625)"/>
       <path id="ArialMT-3c3" d="M 3809 3319 
L 3809 2863 
L 2906 2863 
Q 3322 2475 3322 1656 
Q 3322 766 2867 345 
Q 2413 -75 1763 -75 
Q 1088 -75 650 362 
Q 213 800 213 1659 
Q 213 2544 667 2969 
Q 1122 3394 1763 3394 
Q 1997 3394 2294 3319 
L 3809 3319 
z
M 1753 2928 
Q 1344 2928 1067 2609 
Q 791 2291 791 1656 
Q 791 1025 1061 706 
Q 1331 388 1763 388 
Q 2216 388 2483 720 
Q 2750 1053 2750 1659 
Q 2750 2213 2504 2570 
Q 2259 2928 1753 2928 
z
" transform="scale(0.015625)"/>
      </defs>
      <use xlink:href="#ArialMT-4e"/>
      <use xlink:href="#ArialMT-28" x="72.216797"/>
      <use xlink:href="#ArialMT-3bc" x="105.517578"/>
      <use xlink:href="#ArialMT-20" x="163.134766"/>
      <use xlink:href="#ArialMT-3d" x="190.917969"/>
      <use xlink:href="#ArialMT-20" x="249.316406"/>
      <use xlink:href="#ArialMT-30" x="277.099609"/>
      <use xlink:href="#ArialMT-2c" x="332.714844"/>
      <use xlink:href="#ArialMT-20" x="360.498047"/>
      <use xlink:href="#ArialMT-3c3" x="388.28125"/>
      <use xlink:href="#ArialMT-20" x="450"/>
      <use xlink:href="#ArialMT-3d" x="477.783203"/>
      <use xlink:href="#ArialMT-20" x="536.181641"/>
      <use xlink:href="#ArialMT-31" x="563.964844"/>
      <use xlink:href="#ArialMT-29" x="619.580078"/>
     </g>
    </g>
   </g>
  </g>
 </g>
 <defs>
  <clipPath id="p147593fc26">
   <rect x="53.368281" y="7.2" width="558" height="332.64"/>
  </clipPath>
 </defs>
</svg>