<?xml version="1.0" encoding="utf-8" standalone="no"?>
<!DOCTYPE svg PUBLIC "-//W3C//DTD SVG 1.1//EN"
  "http://www.w3.org/Graphics/SVG/1.1/DTD/svg11.dtd">
<svg xmlns:xlink="http://www.w3.org/1999/xlink" width="880.001211pt" height="477.479844pt" viewBox="0 0 880.001211 477.479844" xmlns="http://www.w3.org/2000/svg" version="1.1">
 <metadata>
  <rdf:RDF xmlns:dc="http://purl.org/dc/elements/1.1/" xmlns:cc="http://creativecommons.org/ns#" xmlns:rdf="http://www.w3.org/1999/02/22-rdf-syntax-ns#">
   <cc:Work>
    <dc:type rdf:resource="http://purl.org/dc/dcmitype/StillImage"/>
    <dc:date>2023-05-29T07:27:29.463225</dc:date>
    <dc:format>image/svg+xml</dc:format>
    <dc:creator>
     <cc:Agent>
      <dc:title>Matplotlib v3.7.1, https://matplotlib.org/</dc:title>
     </cc:Agent>
    </dc:creator>
   </cc:Work>
  </rdf:RDF>
 </metadata>
 <defs>
  <style type="text/css">*{stroke-linejoin: round; stroke-linecap: butt}</style>
 </defs>
 <g id="figure_1">
  <g id="patch_1">
   <path d="M 0 477.479844 
L 880.001211 477.479844 
L 880.001211 0 
L 0 0 
z
" style="fill: #ffffff"/>
  </g>
  <g id="axes_1">
   <g id="patch_2">
    <path d="M 35.051094 208.8 
L 415.505639 208.8 
L 415.505639 7.2 
L 35.051094 7.2 
z
" style="fill: #e5e5e5"/>
   </g>
   <g id="matplotlib.axis_1">
    <g id="xtick_1">
     <g id="line2d_1">
      <path d="M 52.344482 208.8 
L 52.344482 7.2 
" clip-path="url(#pbca2f4f36f)" style="fill: none; stroke: #ffffff; stroke-linecap: round"/>
     </g>
     <g id="text_1">
      <!-- 0 -->
      <g style="fill: #555555" transform="translate(49.285967 226.173594) scale(0.11 -0.11)">
       <defs>
        <path id="ArialMT-30" d="M 266 2259 
Q 266 3072 433 3567 
Q 600 4063 929 4331 
Q 1259 4600 1759 4600 
Q 2128 4600 2406 4451 
Q 2684 4303 2865 4023 
Q 3047 3744 3150 3342 
Q 3253 2941 3253 2259 
Q 3253 1453 3087 958 
Q 2922 463 2592 192 
Q 2263 -78 1759 -78 
Q 1097 -78 719 397 
Q 266 969 266 2259 
z
M 844 2259 
Q 844 1131 1108 757 
Q 1372 384 1759 384 
Q 2147 384 2411 759 
Q 2675 1134 2675 2259 
Q 2675 3391 2411 3762 
Q 2147 4134 1753 4134 
Q 1366 4134 1134 3806 
Q 844 3388 844 2259 
z
" transform="scale(0.015625)"/>
       </defs>
       <use xlink:href="#ArialMT-30"/>
      </g>
     </g>
    </g>
    <g id="xtick_2">
     <g id="line2d_2">
      <path d="M 111.976856 208.8 
L 111.976856 7.2 
" clip-path="url(#pbca2f4f36f)" style="fill: none; stroke: #ffffff; stroke-linecap: round"/>
     </g>
     <g id="text_2">
      <!-- 5 -->
      <g style="fill: #555555" transform="translate(108.91834 226.173594) scale(0.11 -0.11)">
       <defs>
        <path id="ArialMT-35" d="M 266 1200 
L 856 1250 
Q 922 819 1161 601 
Q 1400 384 1738 384 
Q 2144 384 2425 690 
Q 2706 997 2706 1503 
Q 2706 1984 2436 2262 
Q 2166 2541 1728 2541 
Q 1456 2541 1237 2417 
Q 1019 2294 894 2097 
L 366 2166 
L 809 4519 
L 3088 4519 
L 3088 3981 
L 1259 3981 
L 1013 2750 
Q 1425 3038 1878 3038 
Q 2478 3038 2890 2622 
Q 3303 2206 3303 1553 
Q 3303 931 2941 478 
Q 2500 -78 1738 -78 
Q 1113 -78 717 272 
Q 322 622 266 1200 
z
" transform="scale(0.015625)"/>
       </defs>
       <use xlink:href="#ArialMT-35"/>
      </g>
     </g>
    </g>
    <g id="xtick_3">
     <g id="line2d_3">
      <path d="M 171.60923 208.8 
L 171.60923 7.2 
" clip-path="url(#pbca2f4f36f)" style="fill: none; stroke: #ffffff; stroke-linecap: round"/>
     </g>
     <g id="text_3">
      <!-- 10 -->
      <g style="fill: #555555" transform="translate(165.492199 226.173594) scale(0.11 -0.11)">
       <defs>
        <path id="ArialMT-31" d="M 2384 0 
L 1822 0 
L 1822 3584 
Q 1619 3391 1289 3197 
Q 959 3003 697 2906 
L 697 3450 
Q 1169 3672 1522 3987 
Q 1875 4303 2022 4600 
L 2384 4600 
L 2384 0 
z
" transform="scale(0.015625)"/>
       </defs>
       <use xlink:href="#ArialMT-31"/>
       <use xlink:href="#ArialMT-30" x="55.615234"/>
      </g>
     </g>
    </g>
    <g id="xtick_4">
     <g id="line2d_4">
      <path d="M 231.241604 208.8 
L 231.241604 7.2 
" clip-path="url(#pbca2f4f36f)" style="fill: none; stroke: #ffffff; stroke-linecap: round"/>
     </g>
     <g id="text_4">
      <!-- 15 -->
      <g style="fill: #555555" transform="translate(225.124573 226.173594) scale(0.11 -0.11)">
       <use xlink:href="#ArialMT-31"/>
       <use xlink:href="#ArialMT-35" x="55.615234"/>
      </g>
     </g>
    </g>
    <g id="xtick_5">
     <g id="line2d_5">
      <path d="M 290.873978 208.8 
L 290.873978 7.2 
" clip-path="url(#pbca2f4f36f)" style="fill: none; stroke: #ffffff; stroke-linecap: round"/>
     </g>
     <g id="text_5">
      <!-- 20 -->
      <g style="fill: #555555" transform="translate(284.756947 226.173594) scale(0.11 -0.11)">
       <defs>
        <path id="ArialMT-32" d="M 3222 541 
L 3222 0 
L 194 0 
Q 188 203 259 391 
Q 375 700 629 1000 
Q 884 1300 1366 1694 
Q 2113 2306 2375 2664 
Q 2638 3022 2638 3341 
Q 2638 3675 2398 3904 
Q 2159 4134 1775 4134 
Q 1369 4134 1125 3890 
Q 881 3647 878 3216 
L 300 3275 
Q 359 3922 746 4261 
Q 1134 4600 1788 4600 
Q 2447 4600 2831 4234 
Q 3216 3869 3216 3328 
Q 3216 3053 3103 2787 
Q 2991 2522 2730 2228 
Q 2469 1934 1863 1422 
Q 1356 997 1212 845 
Q 1069 694 975 541 
L 3222 541 
z
" transform="scale(0.015625)"/>
       </defs>
       <use xlink:href="#ArialMT-32"/>
       <use xlink:href="#ArialMT-30" x="55.615234"/>
      </g>
     </g>
    </g>
    <g id="xtick_6">
     <g id="line2d_6">
      <path d="M 350.506352 208.8 
L 350.506352 7.2 
" clip-path="url(#pbca2f4f36f)" style="fill: none; stroke: #ffffff; stroke-linecap: round"/>
     </g>
     <g id="text_6">
      <!-- 25 -->
      <g style="fill: #555555" transform="translate(344.38932 226.173594) scale(0.11 -0.11)">
       <use xlink:href="#ArialMT-32"/>
       <use xlink:href="#ArialMT-35" x="55.615234"/>
      </g>
     </g>
    </g>
    <g id="xtick_7">
     <g id="line2d_7">
      <path d="M 410.138726 208.8 
L 410.138726 7.2 
" clip-path="url(#pbca2f4f36f)" style="fill: none; stroke: #ffffff; stroke-linecap: round"/>
     </g>
     <g id="text_7">
      <!-- 30 -->
      <g style="fill: #555555" transform="translate(404.021694 226.173594) scale(0.11 -0.11)">
       <defs>
        <path id="ArialMT-33" d="M 269 1209 
L 831 1284 
Q 928 806 1161 595 
Q 1394 384 1728 384 
Q 2125 384 2398 659 
Q 2672 934 2672 1341 
Q 2672 1728 2419 1979 
Q 2166 2231 1775 2231 
Q 1616 2231 1378 2169 
L 1441 2663 
Q 1497 2656 1531 2656 
Q 1891 2656 2178 2843 
Q 2466 3031 2466 3422 
Q 2466 3731 2256 3934 
Q 2047 4138 1716 4138 
Q 1388 4138 1169 3931 
Q 950 3725 888 3313 
L 325 3413 
Q 428 3978 793 4289 
Q 1159 4600 1703 4600 
Q 2078 4600 2393 4439 
Q 2709 4278 2876 4000 
Q 3044 3722 3044 3409 
Q 3044 3113 2884 2869 
Q 2725 2625 2413 2481 
Q 2819 2388 3044 2092 
Q 3269 1797 3269 1353 
Q 3269 753 2831 336 
Q 2394 -81 1725 -81 
Q 1122 -81 723 278 
Q 325 638 269 1209 
z
" transform="scale(0.015625)"/>
       </defs>
       <use xlink:href="#ArialMT-33"/>
       <use xlink:href="#ArialMT-30" x="55.615234"/>
      </g>
     </g>
    </g>
   </g>
   <g id="matplotlib.axis_2">
    <g id="ytick_1">
     <g id="line2d_8">
      <path d="M 35.051094 197.316456 
L 415.505639 197.316456 
" clip-path="url(#pbca2f4f36f)" style="fill: none; stroke: #ffffff; stroke-linecap: round"/>
     </g>
     <g id="text_8">
      <!-- 10 -->
      <g style="fill: #555555" transform="translate(13.317031 201.253253) scale(0.11 -0.11)">
       <use xlink:href="#ArialMT-31"/>
       <use xlink:href="#ArialMT-30" x="55.615234"/>
      </g>
     </g>
    </g>
    <g id="ytick_2">
     <g id="line2d_9">
      <path d="M 35.051094 174.117376 
L 415.505639 174.117376 
" clip-path="url(#pbca2f4f36f)" style="fill: none; stroke: #ffffff; stroke-linecap: round"/>
     </g>
     <g id="text_9">
      <!-- 20 -->
      <g style="fill: #555555" transform="translate(13.317031 178.054173) scale(0.11 -0.11)">
       <use xlink:href="#ArialMT-32"/>
       <use xlink:href="#ArialMT-30" x="55.615234"/>
      </g>
     </g>
    </g>
    <g id="ytick_3">
     <g id="line2d_10">
      <path d="M 35.051094 150.918297 
L 415.505639 150.918297 
" clip-path="url(#pbca2f4f36f)" style="fill: none; stroke: #ffffff; stroke-linecap: round"/>
     </g>
     <g id="text_10">
      <!-- 30 -->
      <g style="fill: #555555" transform="translate(13.317031 154.855094) scale(0.11 -0.11)">
       <use xlink:href="#ArialMT-33"/>
       <use xlink:href="#ArialMT-30" x="55.615234"/>
      </g>
     </g>
    </g>
    <g id="ytick_4">
     <g id="line2d_11">
      <path d="M 35.051094 127.719217 
L 415.505639 127.719217 
" clip-path="url(#pbca2f4f36f)" style="fill: none; stroke: #ffffff; stroke-linecap: round"/>
     </g>
     <g id="text_11">
      <!-- 40 -->
      <g style="fill: #555555" transform="translate(13.317031 131.656014) scale(0.11 -0.11)">
       <defs>
        <path id="ArialMT-34" d="M 2069 0 
L 2069 1097 
L 81 1097 
L 81 1613 
L 2172 4581 
L 2631 4581 
L 2631 1613 
L 3250 1613 
L 3250 1097 
L 2631 1097 
L 2631 0 
L 2069 0 
z
M 2069 1613 
L 2069 3678 
L 634 1613 
L 2069 1613 
z
" transform="scale(0.015625)"/>
       </defs>
       <use xlink:href="#ArialMT-34"/>
       <use xlink:href="#ArialMT-30" x="55.615234"/>
      </g>
     </g>
    </g>
    <g id="ytick_5">
     <g id="line2d_12">
      <path d="M 35.051094 104.520138 
L 415.505639 104.520138 
" clip-path="url(#pbca2f4f36f)" style="fill: none; stroke: #ffffff; stroke-linecap: round"/>
     </g>
     <g id="text_12">
      <!-- 50 -->
      <g style="fill: #555555" transform="translate(13.317031 108.456935) scale(0.11 -0.11)">
       <use xlink:href="#ArialMT-35"/>
       <use xlink:href="#ArialMT-30" x="55.615234"/>
      </g>
     </g>
    </g>
    <g id="ytick_6">
     <g id="line2d_13">
      <path d="M 35.051094 81.321059 
L 415.505639 81.321059 
" clip-path="url(#pbca2f4f36f)" style="fill: none; stroke: #ffffff; stroke-linecap: round"/>
     </g>
     <g id="text_13">
      <!-- 60 -->
      <g style="fill: #555555" transform="translate(13.317031 85.257856) scale(0.11 -0.11)">
       <defs>
        <path id="ArialMT-36" d="M 3184 3459 
L 2625 3416 
Q 2550 3747 2413 3897 
Q 2184 4138 1850 4138 
Q 1581 4138 1378 3988 
Q 1113 3794 959 3422 
Q 806 3050 800 2363 
Q 1003 2672 1297 2822 
Q 1591 2972 1913 2972 
Q 2475 2972 2870 2558 
Q 3266 2144 3266 1488 
Q 3266 1056 3080 686 
Q 2894 316 2569 119 
Q 2244 -78 1831 -78 
Q 1128 -78 684 439 
Q 241 956 241 2144 
Q 241 3472 731 4075 
Q 1159 4600 1884 4600 
Q 2425 4600 2770 4297 
Q 3116 3994 3184 3459 
z
M 888 1484 
Q 888 1194 1011 928 
Q 1134 663 1356 523 
Q 1578 384 1822 384 
Q 2178 384 2434 671 
Q 2691 959 2691 1453 
Q 2691 1928 2437 2201 
Q 2184 2475 1800 2475 
Q 1419 2475 1153 2201 
Q 888 1928 888 1484 
z
" transform="scale(0.015625)"/>
       </defs>
       <use xlink:href="#ArialMT-36"/>
       <use xlink:href="#ArialMT-30" x="55.615234"/>
      </g>
     </g>
    </g>
    <g id="ytick_7">
     <g id="line2d_14">
      <path d="M 35.051094 58.121979 
L 415.505639 58.121979 
" clip-path="url(#pbca2f4f36f)" style="fill: none; stroke: #ffffff; stroke-linecap: round"/>
     </g>
     <g id="text_14">
      <!-- 70 -->
      <g style="fill: #555555" transform="translate(13.317031 62.058776) scale(0.11 -0.11)">
       <defs>
        <path id="ArialMT-37" d="M 303 3981 
L 303 4522 
L 3269 4522 
L 3269 4084 
Q 2831 3619 2401 2847 
Q 1972 2075 1738 1259 
Q 1569 684 1522 0 
L 944 0 
Q 953 541 1156 1306 
Q 1359 2072 1739 2783 
Q 2119 3494 2547 3981 
L 303 3981 
z
" transform="scale(0.015625)"/>
       </defs>
       <use xlink:href="#ArialMT-37"/>
       <use xlink:href="#ArialMT-30" x="55.615234"/>
      </g>
     </g>
    </g>
    <g id="ytick_8">
     <g id="line2d_15">
      <path d="M 35.051094 34.9229 
L 415.505639 34.9229 
" clip-path="url(#pbca2f4f36f)" style="fill: none; stroke: #ffffff; stroke-linecap: round"/>
     </g>
     <g id="text_15">
      <!-- 80 -->
      <g style="fill: #555555" transform="translate(13.317031 38.859697) scale(0.11 -0.11)">
       <defs>
        <path id="ArialMT-38" d="M 1131 2484 
Q 781 2613 612 2850 
Q 444 3088 444 3419 
Q 444 3919 803 4259 
Q 1163 4600 1759 4600 
Q 2359 4600 2725 4251 
Q 3091 3903 3091 3403 
Q 3091 3084 2923 2848 
Q 2756 2613 2416 2484 
Q 2838 2347 3058 2040 
Q 3278 1734 3278 1309 
Q 3278 722 2862 322 
Q 2447 -78 1769 -78 
Q 1091 -78 675 323 
Q 259 725 259 1325 
Q 259 1772 486 2073 
Q 713 2375 1131 2484 
z
M 1019 3438 
Q 1019 3113 1228 2906 
Q 1438 2700 1772 2700 
Q 2097 2700 2305 2904 
Q 2513 3109 2513 3406 
Q 2513 3716 2298 3927 
Q 2084 4138 1766 4138 
Q 1444 4138 1231 3931 
Q 1019 3725 1019 3438 
z
M 838 1322 
Q 838 1081 952 856 
Q 1066 631 1291 507 
Q 1516 384 1775 384 
Q 2178 384 2440 643 
Q 2703 903 2703 1303 
Q 2703 1709 2433 1975 
Q 2163 2241 1756 2241 
Q 1359 2241 1098 1978 
Q 838 1716 838 1322 
z
" transform="scale(0.015625)"/>
       </defs>
       <use xlink:href="#ArialMT-38"/>
       <use xlink:href="#ArialMT-30" x="55.615234"/>
      </g>
     </g>
    </g>
    <g id="ytick_9">
     <g id="line2d_16">
      <path d="M 35.051094 11.72382 
L 415.505639 11.72382 
" clip-path="url(#pbca2f4f36f)" style="fill: none; stroke: #ffffff; stroke-linecap: round"/>
     </g>
     <g id="text_16">
      <!-- 90 -->
      <g style="fill: #555555" transform="translate(13.317031 15.660617) scale(0.11 -0.11)">
       <defs>
        <path id="ArialMT-39" d="M 350 1059 
L 891 1109 
Q 959 728 1153 556 
Q 1347 384 1650 384 
Q 1909 384 2104 503 
Q 2300 622 2425 820 
Q 2550 1019 2634 1356 
Q 2719 1694 2719 2044 
Q 2719 2081 2716 2156 
Q 2547 1888 2255 1720 
Q 1963 1553 1622 1553 
Q 1053 1553 659 1965 
Q 266 2378 266 3053 
Q 266 3750 677 4175 
Q 1088 4600 1706 4600 
Q 2153 4600 2523 4359 
Q 2894 4119 3086 3673 
Q 3278 3228 3278 2384 
Q 3278 1506 3087 986 
Q 2897 466 2520 194 
Q 2144 -78 1638 -78 
Q 1100 -78 759 220 
Q 419 519 350 1059 
z
M 2653 3081 
Q 2653 3566 2395 3850 
Q 2138 4134 1775 4134 
Q 1400 4134 1122 3828 
Q 844 3522 844 3034 
Q 844 2597 1108 2323 
Q 1372 2050 1759 2050 
Q 2150 2050 2401 2323 
Q 2653 2597 2653 3081 
z
" transform="scale(0.015625)"/>
       </defs>
       <use xlink:href="#ArialMT-39"/>
       <use xlink:href="#ArialMT-30" x="55.615234"/>
      </g>
     </g>
    </g>
   </g>
   <g id="line2d_17">
    <path d="M 52.344482 118.439586 
L 64.270957 111.479862 
L 76.197432 72.041427 
L 88.123907 65.081703 
L 100.050381 65.081703 
L 111.976856 199.636364 
L 123.903331 27.963176 
L 135.829806 171.797468 
L 147.75628 136.998849 
L 159.682755 18.683544 
L 171.60923 58.121979 
L 183.535705 16.363636 
L 195.46218 16.363636 
L 207.388654 192.67664 
L 219.315129 85.960875 
L 231.241604 69.721519 
L 243.168079 130.039125 
L 255.094553 18.683544 
L 267.021028 113.79977 
L 278.947503 16.363636 
L 290.873978 32.602992 
L 302.800453 134.678941 
L 314.726927 162.517837 
L 326.653402 41.882624 
L 338.579877 53.482163 
L 350.506352 199.636364 
L 362.432826 174.117376 
L 374.359301 34.9229 
L 386.285776 60.441887 
L 398.212251 37.242808 
" clip-path="url(#pbca2f4f36f)" style="fill: none; stroke: #e24a33; stroke-width: 1.5; stroke-linecap: round"/>
   </g>
   <g id="patch_3">
    <path d="M 35.051094 208.8 
L 35.051094 7.2 
" style="fill: none; stroke: #ffffff; stroke-linejoin: miter; stroke-linecap: square"/>
   </g>
   <g id="patch_4">
    <path d="M 415.505639 208.8 
L 415.505639 7.2 
" style="fill: none; stroke: #ffffff; stroke-linejoin: miter; stroke-linecap: square"/>
   </g>
   <g id="patch_5">
    <path d="M 35.051094 208.8 
L 415.505639 208.8 
" style="fill: none; stroke: #ffffff; stroke-linejoin: miter; stroke-linecap: square"/>
   </g>
   <g id="patch_6">
    <path d="M 35.051094 7.2 
L 415.505639 7.2 
" style="fill: none; stroke: #ffffff; stroke-linejoin: miter; stroke-linecap: square"/>
   </g>
  </g>
  <g id="axes_2">
   <g id="patch_7">
    <path d="M 491.596548 208.8 
L 872.051094 208.8 
L 872.051094 7.2 
L 491.596548 7.2 
z
" style="fill: #e5e5e5"/>
   </g>
   <g id="matplotlib.axis_3">
    <g id="xtick_8">
     <g id="line2d_18">
      <path d="M 508.889937 208.8 
L 508.889937 7.2 
" clip-path="url(#pfd60428a8e)" style="fill: none; stroke: #ffffff; stroke-linecap: round"/>
     </g>
     <g id="text_17">
      <!-- 0 -->
      <g style="fill: #555555" transform="translate(505.831421 226.173594) scale(0.11 -0.11)">
       <use xlink:href="#ArialMT-30"/>
      </g>
     </g>
    </g>
    <g id="xtick_9">
     <g id="line2d_19">
      <path d="M 568.522311 208.8 
L 568.522311 7.2 
" clip-path="url(#pfd60428a8e)" style="fill: none; stroke: #ffffff; stroke-linecap: round"/>
     </g>
     <g id="text_18">
      <!-- 5 -->
      <g style="fill: #555555" transform="translate(565.463795 226.173594) scale(0.11 -0.11)">
       <use xlink:href="#ArialMT-35"/>
      </g>
     </g>
    </g>
    <g id="xtick_10">
     <g id="line2d_20">
      <path d="M 628.154685 208.8 
L 628.154685 7.2 
" clip-path="url(#pfd60428a8e)" style="fill: none; stroke: #ffffff; stroke-linecap: round"/>
     </g>
     <g id="text_19">
      <!-- 10 -->
      <g style="fill: #555555" transform="translate(622.037653 226.173594) scale(0.11 -0.11)">
       <use xlink:href="#ArialMT-31"/>
       <use xlink:href="#ArialMT-30" x="55.615234"/>
      </g>
     </g>
    </g>
    <g id="xtick_11">
     <g id="line2d_21">
      <path d="M 687.787058 208.8 
L 687.787058 7.2 
" clip-path="url(#pfd60428a8e)" style="fill: none; stroke: #ffffff; stroke-linecap: round"/>
     </g>
     <g id="text_20">
      <!-- 15 -->
      <g style="fill: #555555" transform="translate(681.670027 226.173594) scale(0.11 -0.11)">
       <use xlink:href="#ArialMT-31"/>
       <use xlink:href="#ArialMT-35" x="55.615234"/>
      </g>
     </g>
    </g>
    <g id="xtick_12">
     <g id="line2d_22">
      <path d="M 747.419432 208.8 
L 747.419432 7.2 
" clip-path="url(#pfd60428a8e)" style="fill: none; stroke: #ffffff; stroke-linecap: round"/>
     </g>
     <g id="text_21">
      <!-- 20 -->
      <g style="fill: #555555" transform="translate(741.302401 226.173594) scale(0.11 -0.11)">
       <use xlink:href="#ArialMT-32"/>
       <use xlink:href="#ArialMT-30" x="55.615234"/>
      </g>
     </g>
    </g>
    <g id="xtick_13">
     <g id="line2d_23">
      <path d="M 807.051806 208.8 
L 807.051806 7.2 
" clip-path="url(#pfd60428a8e)" style="fill: none; stroke: #ffffff; stroke-linecap: round"/>
     </g>
     <g id="text_22">
      <!-- 25 -->
      <g style="fill: #555555" transform="translate(800.934775 226.173594) scale(0.11 -0.11)">
       <use xlink:href="#ArialMT-32"/>
       <use xlink:href="#ArialMT-35" x="55.615234"/>
      </g>
     </g>
    </g>
    <g id="xtick_14">
     <g id="line2d_24">
      <path d="M 866.68418 208.8 
L 866.68418 7.2 
" clip-path="url(#pfd60428a8e)" style="fill: none; stroke: #ffffff; stroke-linecap: round"/>
     </g>
     <g id="text_23">
      <!-- 30 -->
      <g style="fill: #555555" transform="translate(860.567149 226.173594) scale(0.11 -0.11)">
       <use xlink:href="#ArialMT-33"/>
       <use xlink:href="#ArialMT-30" x="55.615234"/>
      </g>
     </g>
    </g>
   </g>
   <g id="matplotlib.axis_4">
    <g id="ytick_10">
     <g id="line2d_25">
      <path d="M 491.596548 199.636364 
L 872.051094 199.636364 
" clip-path="url(#pfd60428a8e)" style="fill: none; stroke: #ffffff; stroke-linecap: round"/>
     </g>
     <g id="text_24">
      <!-- 0 -->
      <g style="fill: #555555" transform="translate(475.979517 203.573161) scale(0.11 -0.11)">
       <use xlink:href="#ArialMT-30"/>
      </g>
     </g>
    </g>
    <g id="ytick_11">
     <g id="line2d_26">
      <path d="M 491.596548 162.61157 
L 872.051094 162.61157 
" clip-path="url(#pfd60428a8e)" style="fill: none; stroke: #ffffff; stroke-linecap: round"/>
     </g>
     <g id="text_25">
      <!-- 20 -->
      <g style="fill: #555555" transform="translate(469.862486 166.548367) scale(0.11 -0.11)">
       <use xlink:href="#ArialMT-32"/>
       <use xlink:href="#ArialMT-30" x="55.615234"/>
      </g>
     </g>
    </g>
    <g id="ytick_12">
     <g id="line2d_27">
      <path d="M 491.596548 125.586777 
L 872.051094 125.586777 
" clip-path="url(#pfd60428a8e)" style="fill: none; stroke: #ffffff; stroke-linecap: round"/>
     </g>
     <g id="text_26">
      <!-- 40 -->
      <g style="fill: #555555" transform="translate(469.862486 129.523574) scale(0.11 -0.11)">
       <use xlink:href="#ArialMT-34"/>
       <use xlink:href="#ArialMT-30" x="55.615234"/>
      </g>
     </g>
    </g>
    <g id="ytick_13">
     <g id="line2d_28">
      <path d="M 491.596548 88.561983 
L 872.051094 88.561983 
" clip-path="url(#pfd60428a8e)" style="fill: none; stroke: #ffffff; stroke-linecap: round"/>
     </g>
     <g id="text_27">
      <!-- 60 -->
      <g style="fill: #555555" transform="translate(469.862486 92.49878) scale(0.11 -0.11)">
       <use xlink:href="#ArialMT-36"/>
       <use xlink:href="#ArialMT-30" x="55.615234"/>
      </g>
     </g>
    </g>
    <g id="ytick_14">
     <g id="line2d_29">
      <path d="M 491.596548 51.53719 
L 872.051094 51.53719 
" clip-path="url(#pfd60428a8e)" style="fill: none; stroke: #ffffff; stroke-linecap: round"/>
     </g>
     <g id="text_28">
      <!-- 80 -->
      <g style="fill: #555555" transform="translate(469.862486 55.473987) scale(0.11 -0.11)">
       <use xlink:href="#ArialMT-38"/>
       <use xlink:href="#ArialMT-30" x="55.615234"/>
      </g>
     </g>
    </g>
    <g id="ytick_15">
     <g id="line2d_30">
      <path d="M 491.596548 14.512397 
L 872.051094 14.512397 
" clip-path="url(#pfd60428a8e)" style="fill: none; stroke: #ffffff; stroke-linecap: round"/>
     </g>
     <g id="text_29">
      <!-- 100 -->
      <g style="fill: #555555" transform="translate(463.745455 18.449194) scale(0.11 -0.11)">
       <use xlink:href="#ArialMT-31"/>
       <use xlink:href="#ArialMT-30" x="55.615234"/>
       <use xlink:href="#ArialMT-30" x="111.230469"/>
      </g>
     </g>
    </g>
   </g>
   <g id="line2d_31">
    <path d="M 508.889937 112.628099 
L 520.816412 81.157025 
L 532.742886 47.834711 
L 544.669361 16.363636 
L 556.595836 36.727273 
L 568.522311 108.92562 
L 580.448785 145.950413 
L 592.37526 164.46281 
L 604.301735 164.46281 
L 616.22821 173.719008 
L 628.154685 127.438017 
L 640.081159 140.396694 
L 652.007634 79.305785 
L 663.934109 182.975207 
L 675.860584 94.115702 
L 687.787058 140.396694 
L 699.713533 142.247934 
L 711.640008 62.644628 
L 723.566483 157.057851 
L 735.492958 134.842975 
L 747.419432 60.793388 
L 759.345907 97.818182 
L 771.272382 147.801653 
L 783.198857 136.694215 
L 795.125331 199.636364 
L 807.051806 199.636364 
L 818.978281 132.991736 
L 830.904756 101.520661 
L 842.831231 190.380165 
L 854.757705 129.289256 
" clip-path="url(#pfd60428a8e)" style="fill: none; stroke: #e24a33; stroke-width: 1.5; stroke-linecap: round"/>
   </g>
   <g id="patch_8">
    <path d="M 491.596548 208.8 
L 491.596548 7.2 
" style="fill: none; stroke: #ffffff; stroke-linejoin: miter; stroke-linecap: square"/>
   </g>
   <g id="patch_9">
    <path d="M 872.051094 208.8 
L 872.051094 7.2 
" style="fill: none; stroke: #ffffff; stroke-linejoin: miter; stroke-linecap: square"/>
   </g>
   <g id="patch_10">
    <path d="M 491.596548 208.8 
L 872.051094 208.8 
" style="fill: none; stroke: #ffffff; stroke-linejoin: miter; stroke-linecap: square"/>
   </g>
   <g id="patch_11">
    <path d="M 491.596548 7.2 
L 872.051094 7.2 
" style="fill: none; stroke: #ffffff; stroke-linejoin: miter; stroke-linecap: square"/>
   </g>
  </g>
  <g id="axes_3">
   <g id="patch_12">
    <path d="M 35.051094 450.72 
L 415.505639 450.72 
L 415.505639 249.12 
L 35.051094 249.12 
z
" style="fill: #e5e5e5"/>
   </g>
   <g id="matplotlib.axis_5">
    <g id="xtick_15">
     <g id="line2d_32">
      <path d="M 52.344482 450.72 
L 52.344482 249.12 
" clip-path="url(#pa2776fdf72)" style="fill: none; stroke: #ffffff; stroke-linecap: round"/>
     </g>
     <g id="text_30">
      <!-- 0 -->
      <g style="fill: #555555" transform="translate(49.285967 468.093594) scale(0.11 -0.11)">
       <use xlink:href="#ArialMT-30"/>
      </g>
     </g>
    </g>
    <g id="xtick_16">
     <g id="line2d_33">
      <path d="M 111.976856 450.72 
L 111.976856 249.12 
" clip-path="url(#pa2776fdf72)" style="fill: none; stroke: #ffffff; stroke-linecap: round"/>
     </g>
     <g id="text_31">
      <!-- 5 -->
      <g style="fill: #555555" transform="translate(108.91834 468.093594) scale(0.11 -0.11)">
       <use xlink:href="#ArialMT-35"/>
      </g>
     </g>
    </g>
    <g id="xtick_17">
     <g id="line2d_34">
      <path d="M 171.60923 450.72 
L 171.60923 249.12 
" clip-path="url(#pa2776fdf72)" style="fill: none; stroke: #ffffff; stroke-linecap: round"/>
     </g>
     <g id="text_32">
      <!-- 10 -->
      <g style="fill: #555555" transform="translate(165.492199 468.093594) scale(0.11 -0.11)">
       <use xlink:href="#ArialMT-31"/>
       <use xlink:href="#ArialMT-30" x="55.615234"/>
      </g>
     </g>
    </g>
    <g id="xtick_18">
     <g id="line2d_35">
      <path d="M 231.241604 450.72 
L 231.241604 249.12 
" clip-path="url(#pa2776fdf72)" style="fill: none; stroke: #ffffff; stroke-linecap: round"/>
     </g>
     <g id="text_33">
      <!-- 15 -->
      <g style="fill: #555555" transform="translate(225.124573 468.093594) scale(0.11 -0.11)">
       <use xlink:href="#ArialMT-31"/>
       <use xlink:href="#ArialMT-35" x="55.615234"/>
      </g>
     </g>
    </g>
    <g id="xtick_19">
     <g id="line2d_36">
      <path d="M 290.873978 450.72 
L 290.873978 249.12 
" clip-path="url(#pa2776fdf72)" style="fill: none; stroke: #ffffff; stroke-linecap: round"/>
     </g>
     <g id="text_34">
      <!-- 20 -->
      <g style="fill: #555555" transform="translate(284.756947 468.093594) scale(0.11 -0.11)">
       <use xlink:href="#ArialMT-32"/>
       <use xlink:href="#ArialMT-30" x="55.615234"/>
      </g>
     </g>
    </g>
    <g id="xtick_20">
     <g id="line2d_37">
      <path d="M 350.506352 450.72 
L 350.506352 249.12 
" clip-path="url(#pa2776fdf72)" style="fill: none; stroke: #ffffff; stroke-linecap: round"/>
     </g>
     <g id="text_35">
      <!-- 25 -->
      <g style="fill: #555555" transform="translate(344.38932 468.093594) scale(0.11 -0.11)">
       <use xlink:href="#ArialMT-32"/>
       <use xlink:href="#ArialMT-35" x="55.615234"/>
      </g>
     </g>
    </g>
    <g id="xtick_21">
     <g id="line2d_38">
      <path d="M 410.138726 450.72 
L 410.138726 249.12 
" clip-path="url(#pa2776fdf72)" style="fill: none; stroke: #ffffff; stroke-linecap: round"/>
     </g>
     <g id="text_36">
      <!-- 30 -->
      <g style="fill: #555555" transform="translate(404.021694 468.093594) scale(0.11 -0.11)">
       <use xlink:href="#ArialMT-33"/>
       <use xlink:href="#ArialMT-30" x="55.615234"/>
      </g>
     </g>
    </g>
   </g>
   <g id="matplotlib.axis_6">
    <g id="ytick_16">
     <g id="line2d_39">
      <path d="M 35.051094 441.556364 
L 415.505639 441.556364 
" clip-path="url(#pa2776fdf72)" style="fill: none; stroke: #ffffff; stroke-linecap: round"/>
     </g>
     <g id="text_37">
      <!-- 0 -->
      <g style="fill: #555555" transform="translate(19.434063 445.493161) scale(0.11 -0.11)">
       <use xlink:href="#ArialMT-30"/>
      </g>
     </g>
    </g>
    <g id="ytick_17">
     <g id="line2d_40">
      <path d="M 35.051094 404.53157 
L 415.505639 404.53157 
" clip-path="url(#pa2776fdf72)" style="fill: none; stroke: #ffffff; stroke-linecap: round"/>
     </g>
     <g id="text_38">
      <!-- 20 -->
      <g style="fill: #555555" transform="translate(13.317031 408.468367) scale(0.11 -0.11)">
       <use xlink:href="#ArialMT-32"/>
       <use xlink:href="#ArialMT-30" x="55.615234"/>
      </g>
     </g>
    </g>
    <g id="ytick_18">
     <g id="line2d_41">
      <path d="M 35.051094 367.506777 
L 415.505639 367.506777 
" clip-path="url(#pa2776fdf72)" style="fill: none; stroke: #ffffff; stroke-linecap: round"/>
     </g>
     <g id="text_39">
      <!-- 40 -->
      <g style="fill: #555555" transform="translate(13.317031 371.443574) scale(0.11 -0.11)">
       <use xlink:href="#ArialMT-34"/>
       <use xlink:href="#ArialMT-30" x="55.615234"/>
      </g>
     </g>
    </g>
    <g id="ytick_19">
     <g id="line2d_42">
      <path d="M 35.051094 330.481983 
L 415.505639 330.481983 
" clip-path="url(#pa2776fdf72)" style="fill: none; stroke: #ffffff; stroke-linecap: round"/>
     </g>
     <g id="text_40">
      <!-- 60 -->
      <g style="fill: #555555" transform="translate(13.317031 334.41878) scale(0.11 -0.11)">
       <use xlink:href="#ArialMT-36"/>
       <use xlink:href="#ArialMT-30" x="55.615234"/>
      </g>
     </g>
    </g>
    <g id="ytick_20">
     <g id="line2d_43">
      <path d="M 35.051094 293.45719 
L 415.505639 293.45719 
" clip-path="url(#pa2776fdf72)" style="fill: none; stroke: #ffffff; stroke-linecap: round"/>
     </g>
     <g id="text_41">
      <!-- 80 -->
      <g style="fill: #555555" transform="translate(13.317031 297.393987) scale(0.11 -0.11)">
       <use xlink:href="#ArialMT-38"/>
       <use xlink:href="#ArialMT-30" x="55.615234"/>
      </g>
     </g>
    </g>
    <g id="ytick_21">
     <g id="line2d_44">
      <path d="M 35.051094 256.432397 
L 415.505639 256.432397 
" clip-path="url(#pa2776fdf72)" style="fill: none; stroke: #ffffff; stroke-linecap: round"/>
     </g>
     <g id="text_42">
      <!-- 100 -->
      <g style="fill: #555555" transform="translate(7.2 260.369194) scale(0.11 -0.11)">
       <use xlink:href="#ArialMT-31"/>
       <use xlink:href="#ArialMT-30" x="55.615234"/>
       <use xlink:href="#ArialMT-30" x="111.230469"/>
      </g>
     </g>
    </g>
   </g>
   <g id="line2d_45">
    <path d="M 52.344482 410.085289 
L 64.270957 295.30843 
L 76.197432 434.151405 
L 88.123907 363.804298 
L 100.050381 334.184463 
L 111.976856 384.167934 
L 123.903331 439.705124 
L 135.829806 321.225785 
L 147.75628 365.655537 
L 159.682755 336.035702 
L 171.60923 376.762975 
L 183.535705 421.192727 
L 195.46218 356.399339 
L 207.388654 289.754711 
L 219.315129 273.093554 
L 231.241604 441.556364 
L 243.168079 415.639008 
L 255.094553 258.283636 
L 267.021028 343.440661 
L 278.947503 419.341488 
L 290.873978 363.804298 
L 302.800453 286.052231 
L 314.726927 302.713388 
L 326.653402 315.672066 
L 338.579877 430.448926 
L 350.506352 315.672066 
L 362.432826 354.548099 
L 374.359301 436.002645 
L 386.285776 300.862149 
L 398.212251 345.291901 
" clip-path="url(#pa2776fdf72)" style="fill: none; stroke: #e24a33; stroke-width: 1.5; stroke-linecap: round"/>
   </g>
   <g id="patch_13">
    <path d="M 35.051094 450.72 
L 35.051094 249.12 
" style="fill: none; stroke: #ffffff; stroke-linejoin: miter; stroke-linecap: square"/>
   </g>
   <g id="patch_14">
    <path d="M 415.505639 450.72 
L 415.505639 249.12 
" style="fill: none; stroke: #ffffff; stroke-linejoin: miter; stroke-linecap: square"/>
   </g>
   <g id="patch_15">
    <path d="M 35.051094 450.72 
L 415.505639 450.72 
" style="fill: none; stroke: #ffffff; stroke-linejoin: miter; stroke-linecap: square"/>
   </g>
   <g id="patch_16">
    <path d="M 35.051094 249.12 
L 415.505639 249.12 
" style="fill: none; stroke: #ffffff; stroke-linejoin: miter; stroke-linecap: square"/>
   </g>
  </g>
  <g id="axes_4">
   <g id="patch_17">
    <path d="M 491.596548 450.72 
L 872.051094 450.72 
L 872.051094 249.12 
L 491.596548 249.12 
z
" style="fill: #e5e5e5"/>
   </g>
   <g id="matplotlib.axis_7">
    <g id="xtick_22">
     <g id="line2d_46">
      <path d="M 513.26801 450.72 
L 513.26801 249.12 
" clip-path="url(#pd5cc217ab9)" style="fill: none; stroke: #ffffff; stroke-linecap: round"/>
     </g>
     <g id="text_43">
      <!-- 10 -->
      <g style="fill: #555555" transform="translate(507.150978 468.093594) scale(0.11 -0.11)">
       <use xlink:href="#ArialMT-31"/>
       <use xlink:href="#ArialMT-30" x="55.615234"/>
      </g>
     </g>
    </g>
    <g id="xtick_23">
     <g id="line2d_47">
      <path d="M 557.04874 450.72 
L 557.04874 249.12 
" clip-path="url(#pd5cc217ab9)" style="fill: none; stroke: #ffffff; stroke-linecap: round"/>
     </g>
     <g id="text_44">
      <!-- 20 -->
      <g style="fill: #555555" transform="translate(550.931709 468.093594) scale(0.11 -0.11)">
       <use xlink:href="#ArialMT-32"/>
       <use xlink:href="#ArialMT-30" x="55.615234"/>
      </g>
     </g>
    </g>
    <g id="xtick_24">
     <g id="line2d_48">
      <path d="M 600.82947 450.72 
L 600.82947 249.12 
" clip-path="url(#pd5cc217ab9)" style="fill: none; stroke: #ffffff; stroke-linecap: round"/>
     </g>
     <g id="text_45">
      <!-- 30 -->
      <g style="fill: #555555" transform="translate(594.712439 468.093594) scale(0.11 -0.11)">
       <use xlink:href="#ArialMT-33"/>
       <use xlink:href="#ArialMT-30" x="55.615234"/>
      </g>
     </g>
    </g>
    <g id="xtick_25">
     <g id="line2d_49">
      <path d="M 644.6102 450.72 
L 644.6102 249.12 
" clip-path="url(#pd5cc217ab9)" style="fill: none; stroke: #ffffff; stroke-linecap: round"/>
     </g>
     <g id="text_46">
      <!-- 40 -->
      <g style="fill: #555555" transform="translate(638.493169 468.093594) scale(0.11 -0.11)">
       <use xlink:href="#ArialMT-34"/>
       <use xlink:href="#ArialMT-30" x="55.615234"/>
      </g>
     </g>
    </g>
    <g id="xtick_26">
     <g id="line2d_50">
      <path d="M 688.390931 450.72 
L 688.390931 249.12 
" clip-path="url(#pd5cc217ab9)" style="fill: none; stroke: #ffffff; stroke-linecap: round"/>
     </g>
     <g id="text_47">
      <!-- 50 -->
      <g style="fill: #555555" transform="translate(682.273899 468.093594) scale(0.11 -0.11)">
       <use xlink:href="#ArialMT-35"/>
       <use xlink:href="#ArialMT-30" x="55.615234"/>
      </g>
     </g>
    </g>
    <g id="xtick_27">
     <g id="line2d_51">
      <path d="M 732.171661 450.72 
L 732.171661 249.12 
" clip-path="url(#pd5cc217ab9)" style="fill: none; stroke: #ffffff; stroke-linecap: round"/>
     </g>
     <g id="text_48">
      <!-- 60 -->
      <g style="fill: #555555" transform="translate(726.05463 468.093594) scale(0.11 -0.11)">
       <use xlink:href="#ArialMT-36"/>
       <use xlink:href="#ArialMT-30" x="55.615234"/>
      </g>
     </g>
    </g>
    <g id="xtick_28">
     <g id="line2d_52">
      <path d="M 775.952391 450.72 
L 775.952391 249.12 
" clip-path="url(#pd5cc217ab9)" style="fill: none; stroke: #ffffff; stroke-linecap: round"/>
     </g>
     <g id="text_49">
      <!-- 70 -->
      <g style="fill: #555555" transform="translate(769.83536 468.093594) scale(0.11 -0.11)">
       <use xlink:href="#ArialMT-37"/>
       <use xlink:href="#ArialMT-30" x="55.615234"/>
      </g>
     </g>
    </g>
    <g id="xtick_29">
     <g id="line2d_53">
      <path d="M 819.733121 450.72 
L 819.733121 249.12 
" clip-path="url(#pd5cc217ab9)" style="fill: none; stroke: #ffffff; stroke-linecap: round"/>
     </g>
     <g id="text_50">
      <!-- 80 -->
      <g style="fill: #555555" transform="translate(813.61609 468.093594) scale(0.11 -0.11)">
       <use xlink:href="#ArialMT-38"/>
       <use xlink:href="#ArialMT-30" x="55.615234"/>
      </g>
     </g>
    </g>
    <g id="xtick_30">
     <g id="line2d_54">
      <path d="M 863.513851 450.72 
L 863.513851 249.12 
" clip-path="url(#pd5cc217ab9)" style="fill: none; stroke: #ffffff; stroke-linecap: round"/>
     </g>
     <g id="text_51">
      <!-- 90 -->
      <g style="fill: #555555" transform="translate(857.39682 468.093594) scale(0.11 -0.11)">
       <use xlink:href="#ArialMT-39"/>
       <use xlink:href="#ArialMT-30" x="55.615234"/>
      </g>
     </g>
    </g>
   </g>
   <g id="matplotlib.axis_8">
    <g id="ytick_22">
     <g id="line2d_55">
      <path d="M 491.596548 441.556364 
L 872.051094 441.556364 
" clip-path="url(#pd5cc217ab9)" style="fill: none; stroke: #ffffff; stroke-linecap: round"/>
     </g>
     <g id="text_52">
      <!-- 0 -->
      <g style="fill: #555555" transform="translate(475.979517 445.493161) scale(0.11 -0.11)">
       <use xlink:href="#ArialMT-30"/>
      </g>
     </g>
    </g>
    <g id="ytick_23">
     <g id="line2d_56">
      <path d="M 491.596548 404.53157 
L 872.051094 404.53157 
" clip-path="url(#pd5cc217ab9)" style="fill: none; stroke: #ffffff; stroke-linecap: round"/>
     </g>
     <g id="text_53">
      <!-- 20 -->
      <g style="fill: #555555" transform="translate(469.862486 408.468367) scale(0.11 -0.11)">
       <use xlink:href="#ArialMT-32"/>
       <use xlink:href="#ArialMT-30" x="55.615234"/>
      </g>
     </g>
    </g>
    <g id="ytick_24">
     <g id="line2d_57">
      <path d="M 491.596548 367.506777 
L 872.051094 367.506777 
" clip-path="url(#pd5cc217ab9)" style="fill: none; stroke: #ffffff; stroke-linecap: round"/>
     </g>
     <g id="text_54">
      <!-- 40 -->
      <g style="fill: #555555" transform="translate(469.862486 371.443574) scale(0.11 -0.11)">
       <use xlink:href="#ArialMT-34"/>
       <use xlink:href="#ArialMT-30" x="55.615234"/>
      </g>
     </g>
    </g>
    <g id="ytick_25">
     <g id="line2d_58">
      <path d="M 491.596548 330.481983 
L 872.051094 330.481983 
" clip-path="url(#pd5cc217ab9)" style="fill: none; stroke: #ffffff; stroke-linecap: round"/>
     </g>
     <g id="text_55">
      <!-- 60 -->
      <g style="fill: #555555" transform="translate(469.862486 334.41878) scale(0.11 -0.11)">
       <use xlink:href="#ArialMT-36"/>
       <use xlink:href="#ArialMT-30" x="55.615234"/>
      </g>
     </g>
    </g>
    <g id="ytick_26">
     <g id="line2d_59">
      <path d="M 491.596548 293.45719 
L 872.051094 293.45719 
" clip-path="url(#pd5cc217ab9)" style="fill: none; stroke: #ffffff; stroke-linecap: round"/>
     </g>
     <g id="text_56">
      <!-- 80 -->
      <g style="fill: #555555" transform="translate(469.862486 297.393987) scale(0.11 -0.11)">
       <use xlink:href="#ArialMT-38"/>
       <use xlink:href="#ArialMT-30" x="55.615234"/>
      </g>
     </g>
    </g>
    <g id="ytick_27">
     <g id="line2d_60">
      <path d="M 491.596548 256.432397 
L 872.051094 256.432397 
" clip-path="url(#pd5cc217ab9)" style="fill: none; stroke: #ffffff; stroke-linecap: round"/>
     </g>
     <g id="text_57">
      <!-- 100 -->
      <g style="fill: #555555" transform="translate(463.745455 260.369194) scale(0.11 -0.11)">
       <use xlink:href="#ArialMT-31"/>
       <use xlink:href="#ArialMT-30" x="55.615234"/>
       <use xlink:href="#ArialMT-30" x="111.230469"/>
      </g>
     </g>
    </g>
   </g>
   <g id="line2d_61">
    <defs>
     <path id="m3b31e1c9ca" d="M 0 3 
C 0.795609 3 1.55874 2.683901 2.12132 2.12132 
C 2.683901 1.55874 3 0.795609 3 0 
C 3 -0.795609 2.683901 -1.55874 2.12132 -2.12132 
C 1.55874 -2.683901 0.795609 -3 0 -3 
C -0.795609 -3 -1.55874 -2.683901 -2.12132 -2.12132 
C -2.683901 -1.55874 -3 -0.795609 -3 0 
C -3 0.795609 -2.683901 1.55874 -2.12132 2.12132 
C -1.55874 2.683901 -0.795609 3 0 3 
z
" style="stroke: #e24a33"/>
    </defs>
    <g clip-path="url(#pd5cc217ab9)">
     <use xlink:href="#m3b31e1c9ca" x="662.122492" y="354.548099" style="fill: #e24a33; stroke: #e24a33"/>
     <use xlink:href="#m3b31e1c9ca" x="675.256711" y="323.077025" style="fill: #e24a33; stroke: #e24a33"/>
     <use xlink:href="#m3b31e1c9ca" x="749.683953" y="289.754711" style="fill: #e24a33; stroke: #e24a33"/>
     <use xlink:href="#m3b31e1c9ca" x="762.818172" y="258.283636" style="fill: #e24a33; stroke: #e24a33"/>
     <use xlink:href="#m3b31e1c9ca" x="762.818172" y="278.647273" style="fill: #e24a33; stroke: #e24a33"/>
     <use xlink:href="#m3b31e1c9ca" x="508.889937" y="350.84562" style="fill: #e24a33; stroke: #e24a33"/>
     <use xlink:href="#m3b31e1c9ca" x="832.86734" y="387.870413" style="fill: #e24a33; stroke: #e24a33"/>
     <use xlink:href="#m3b31e1c9ca" x="561.426813" y="406.38281" style="fill: #e24a33; stroke: #e24a33"/>
     <use xlink:href="#m3b31e1c9ca" x="627.097908" y="406.38281" style="fill: #e24a33; stroke: #e24a33"/>
     <use xlink:href="#m3b31e1c9ca" x="850.379632" y="415.639008" style="fill: #e24a33; stroke: #e24a33"/>
     <use xlink:href="#m3b31e1c9ca" x="775.952391" y="369.358017" style="fill: #e24a33; stroke: #e24a33"/>
     <use xlink:href="#m3b31e1c9ca" x="854.757705" y="382.316694" style="fill: #e24a33; stroke: #e24a33"/>
     <use xlink:href="#m3b31e1c9ca" x="854.757705" y="321.225785" style="fill: #e24a33; stroke: #e24a33"/>
     <use xlink:href="#m3b31e1c9ca" x="522.024156" y="424.895207" style="fill: #e24a33; stroke: #e24a33"/>
     <use xlink:href="#m3b31e1c9ca" x="723.415515" y="336.035702" style="fill: #e24a33; stroke: #e24a33"/>
     <use xlink:href="#m3b31e1c9ca" x="754.062026" y="382.316694" style="fill: #e24a33; stroke: #e24a33"/>
     <use xlink:href="#m3b31e1c9ca" x="640.232127" y="384.167934" style="fill: #e24a33; stroke: #e24a33"/>
     <use xlink:href="#m3b31e1c9ca" x="850.379632" y="304.564628" style="fill: #e24a33; stroke: #e24a33"/>
     <use xlink:href="#m3b31e1c9ca" x="670.878638" y="398.977851" style="fill: #e24a33; stroke: #e24a33"/>
     <use xlink:href="#m3b31e1c9ca" x="854.757705" y="376.762975" style="fill: #e24a33; stroke: #e24a33"/>
     <use xlink:href="#m3b31e1c9ca" x="824.111194" y="302.713388" style="fill: #e24a33; stroke: #e24a33"/>
     <use xlink:href="#m3b31e1c9ca" x="631.475981" y="339.738182" style="fill: #e24a33; stroke: #e24a33"/>
     <use xlink:href="#m3b31e1c9ca" x="578.939105" y="389.721653" style="fill: #e24a33; stroke: #e24a33"/>
     <use xlink:href="#m3b31e1c9ca" x="806.598902" y="378.614215" style="fill: #e24a33; stroke: #e24a33"/>
     <use xlink:href="#m3b31e1c9ca" x="784.708537" y="441.556364" style="fill: #e24a33; stroke: #e24a33"/>
     <use xlink:href="#m3b31e1c9ca" x="508.889937" y="441.556364" style="fill: #e24a33; stroke: #e24a33"/>
     <use xlink:href="#m3b31e1c9ca" x="557.04874" y="374.911736" style="fill: #e24a33; stroke: #e24a33"/>
     <use xlink:href="#m3b31e1c9ca" x="819.733121" y="343.440661" style="fill: #e24a33; stroke: #e24a33"/>
     <use xlink:href="#m3b31e1c9ca" x="771.574318" y="432.300165" style="fill: #e24a33; stroke: #e24a33"/>
     <use xlink:href="#m3b31e1c9ca" x="815.355048" y="371.209256" style="fill: #e24a33; stroke: #e24a33"/>
    </g>
   </g>
   <g id="patch_18">
    <path d="M 491.596548 450.72 
L 491.596548 249.12 
" style="fill: none; stroke: #ffffff; stroke-linejoin: miter; stroke-linecap: square"/>
   </g>
   <g id="patch_19">
    <path d="M 872.051094 450.72 
L 872.051094 249.12 
" style="fill: none; stroke: #ffffff; stroke-linejoin: miter; stroke-linecap: square"/>
   </g>
   <g id="patch_20">
    <path d="M 491.596548 450.72 
L 872.051094 450.72 
" style="fill: none; stroke: #ffffff; stroke-linejoin: miter; stroke-linecap: square"/>
   </g>
   <g id="patch_21">
    <path d="M 491.596548 249.12 
L 872.051094 249.12 
" style="fill: none; stroke: #ffffff; stroke-linejoin: miter; stroke-linecap: square"/>
   </g>
  </g>
 </g>
 <defs>
  <clipPath id="pbca2f4f36f">
   <rect x="35.051094" y="7.2" width="380.454545" height="201.6"/>
  </clipPath>
  <clipPath id="pfd60428a8e">
   <rect x="491.596548" y="7.2" width="380.454545" height="201.6"/>
  </clipPath>
  <clipPath id="pa2776fdf72">
   <rect x="35.051094" y="249.12" width="380.454545" height="201.6"/>
  </clipPath>
  <clipPath id="pd5cc217ab9">
   <rect x="491.596548" y="249.12" width="380.454545" height="201.6"/>
  </clipPath>
 </defs>
</svg>