<?xml version="1.0" encoding="utf-8" standalone="no"?>
<!DOCTYPE svg PUBLIC "-//W3C//DTD SVG 1.1//EN"
  "http://www.w3.org/Graphics/SVG/1.1/DTD/svg11.dtd">
<svg xmlns:xlink="http://www.w3.org/1999/xlink" width="418.448105pt" height="353.211875pt" viewBox="0 0 418.448105 353.211875" xmlns="http://www.w3.org/2000/svg" version="1.1">
 <metadata>
  <rdf:RDF xmlns:dc="http://purl.org/dc/elements/1.1/" xmlns:cc="http://creativecommons.org/ns#" xmlns:rdf="http://www.w3.org/1999/02/22-rdf-syntax-ns#">
   <cc:Work>
    <dc:type rdf:resource="http://purl.org/dc/dcmitype/StillImage"/>
    <dc:date>2023-05-08T00:11:12.609564</dc:date>
    <dc:format>image/svg+xml</dc:format>
    <dc:creator>
     <cc:Agent>
      <dc:title>Matplotlib v3.7.1, https://matplotlib.org/</dc:title>
     </cc:Agent>
    </dc:creator>
   </cc:Work>
  </rdf:RDF>
 </metadata>
 <defs>
  <style type="text/css">*{stroke-linejoin: round; stroke-linecap: butt}</style>
 </defs>
 <g id="figure_1">
  <g id="patch_1">
   <path d="M 0 353.211875 
L 418.448105 353.211875 
L 418.448105 0 
L 0 0 
z
" style="fill: #ffffff"/>
  </g>
  <g id="axes_1">
   <g id="patch_2">
    <path d="M 52.0975 317.22 
L 341.382505 317.22 
L 341.382505 7.2 
L 52.0975 7.2 
z
" style="fill: #eeeeee"/>
   </g>
   <g id="patch_3">
    <path d="M 100.311667 467.06515 
L 100.311667 467.06515 
L 100.311667 467.06515 
L 100.311667 467.06515 
z
" clip-path="url(#p3e63adf630)" style="fill: #4586ac; stroke: #343434; stroke-linejoin: miter"/>
   </g>
   <g id="PolyCollection_1">
    <defs>
     <path id="m6488032d52" d="M 100.311667 -91.630188 
L 100.09452 -91.630188 
L 100.014866 -93.025923 
L 99.911953 -94.421658 
L 99.78104 -95.817393 
L 99.617004 -97.213128 
L 99.414469 -98.608863 
L 99.167962 -100.004598 
L 98.872121 -101.400333 
L 98.521936 -102.796068 
L 98.113033 -104.191803 
L 97.641977 -105.587538 
L 97.10659 -106.983273 
L 96.506254 -108.379008 
L 95.84216 -109.774743 
L 95.117471 -111.170478 
L 94.337352 -112.566213 
L 93.508831 -113.961948 
L 92.640457 -115.357683 
L 91.741768 -116.753418 
L 90.822579 -118.149153 
L 89.892153 -119.544888 
L 88.958348 -120.940623 
L 88.026832 -122.336358 
L 87.100487 -123.732093 
L 86.179102 -125.127828 
L 85.259415 -126.523563 
L 84.335546 -127.919298 
L 83.399786 -129.315033 
L 82.443685 -130.710768 
L 81.459321 -132.106503 
L 80.440638 -133.502238 
L 79.384686 -134.897973 
L 78.29267 -136.293708 
L 77.17067 -137.689443 
L 76.029987 -139.085178 
L 74.887039 -140.480913 
L 73.762817 -141.876648 
L 72.681904 -143.272383 
L 71.671095 -144.668118 
L 70.75772 -146.063853 
L 69.967739 -147.459588 
L 69.32379 -148.855323 
L 68.843329 -150.251058 
L 68.537069 -151.646793 
L 68.407882 -153.042528 
L 68.450342 -154.438263 
L 68.650982 -155.833998 
L 68.989311 -157.229733 
L 69.439511 -158.625468 
L 69.972662 -160.021203 
L 70.55926 -161.416938 
L 71.171762 -162.812673 
L 71.786851 -164.208408 
L 72.387194 -165.604143 
L 72.962486 -166.999878 
L 73.509688 -168.395613 
L 74.032483 -169.791348 
L 74.540033 -171.187083 
L 75.04524 -172.582818 
L 75.562736 -173.978553 
L 76.106851 -175.374288 
L 76.689793 -176.770023 
L 77.320215 -178.165758 
L 78.002297 -179.561493 
L 78.735388 -180.957228 
L 79.514199 -182.352963 
L 80.329477 -183.748698 
L 81.169041 -185.144433 
L 82.019071 -186.540168 
L 82.865493 -187.935903 
L 83.69533 -189.331638 
L 84.497897 -190.727373 
L 85.265733 -192.123108 
L 85.995184 -193.518843 
L 86.68659 -194.914578 
L 87.344056 -196.310313 
L 87.97483 -197.706048 
L 88.588356 -199.101783 
L 89.195097 -200.497518 
L 89.805261 -201.893253 
L 90.427573 -203.288988 
L 91.068235 -204.684723 
L 91.730182 -206.080458 
L 92.412721 -207.476193 
L 93.111575 -208.871928 
L 93.819314 -210.267663 
L 94.526103 -211.663398 
L 95.220654 -213.059133 
L 95.891273 -214.454868 
L 96.526866 -215.850603 
L 97.117807 -217.246338 
L 97.656583 -218.642073 
L 98.138177 -220.037808 
L 98.560187 -221.433543 
L 98.922699 -222.829278 
L 99.227974 -224.225013 
L 99.48 -225.620748 
L 99.683992 -227.016483 
L 99.845884 -228.412218 
L 99.971864 -229.807953 
L 100.311667 -229.807953 
L 100.311667 -229.807953 
L 100.311667 -228.412218 
L 100.311667 -227.016483 
L 100.311667 -225.620748 
L 100.311667 -224.225013 
L 100.311667 -222.829278 
L 100.311667 -221.433543 
L 100.311667 -220.037808 
L 100.311667 -218.642073 
L 100.311667 -217.246338 
L 100.311667 -215.850603 
L 100.311667 -214.454868 
L 100.311667 -213.059133 
L 100.311667 -211.663398 
L 100.311667 -210.267663 
L 100.311667 -208.871928 
L 100.311667 -207.476193 
L 100.311667 -206.080458 
L 100.311667 -204.684723 
L 100.311667 -203.288988 
L 100.311667 -201.893253 
L 100.311667 -200.497518 
L 100.311667 -199.101783 
L 100.311667 -197.706048 
L 100.311667 -196.310313 
L 100.311667 -194.914578 
L 100.311667 -193.518843 
L 100.311667 -192.123108 
L 100.311667 -190.727373 
L 100.311667 -189.331638 
L 100.311667 -187.935903 
L 100.311667 -186.540168 
L 100.311667 -185.144433 
L 100.311667 -183.748698 
L 100.311667 -182.352963 
L 100.311667 -180.957228 
L 100.311667 -179.561493 
L 100.311667 -178.165758 
L 100.311667 -176.770023 
L 100.311667 -175.374288 
L 100.311667 -173.978553 
L 100.311667 -172.582818 
L 100.311667 -171.187083 
L 100.311667 -169.791348 
L 100.311667 -168.395613 
L 100.311667 -166.999878 
L 100.311667 -165.604143 
L 100.311667 -164.208408 
L 100.311667 -162.812673 
L 100.311667 -161.416938 
L 100.311667 -160.021203 
L 100.311667 -158.625468 
L 100.311667 -157.229733 
L 100.311667 -155.833998 
L 100.311667 -154.438263 
L 100.311667 -153.042528 
L 100.311667 -151.646793 
L 100.311667 -150.251058 
L 100.311667 -148.855323 
L 100.311667 -147.459588 
L 100.311667 -146.063853 
L 100.311667 -144.668118 
L 100.311667 -143.272383 
L 100.311667 -141.876648 
L 100.311667 -140.480913 
L 100.311667 -139.085178 
L 100.311667 -137.689443 
L 100.311667 -136.293708 
L 100.311667 -134.897973 
L 100.311667 -133.502238 
L 100.311667 -132.106503 
L 100.311667 -130.710768 
L 100.311667 -129.315033 
L 100.311667 -127.919298 
L 100.311667 -126.523563 
L 100.311667 -125.127828 
L 100.311667 -123.732093 
L 100.311667 -122.336358 
L 100.311667 -120.940623 
L 100.311667 -119.544888 
L 100.311667 -118.149153 
L 100.311667 -116.753418 
L 100.311667 -115.357683 
L 100.311667 -113.961948 
L 100.311667 -112.566213 
L 100.311667 -111.170478 
L 100.311667 -109.774743 
L 100.311667 -108.379008 
L 100.311667 -106.983273 
L 100.311667 -105.587538 
L 100.311667 -104.191803 
L 100.311667 -102.796068 
L 100.311667 -101.400333 
L 100.311667 -100.004598 
L 100.311667 -98.608863 
L 100.311667 -97.213128 
L 100.311667 -95.817393 
L 100.311667 -94.421658 
L 100.311667 -93.025923 
L 100.311667 -91.630188 
z
" style="stroke: #343434; stroke-width: 2"/>
    </defs>
    <g clip-path="url(#p3e63adf630)">
     <use xlink:href="#m6488032d52" x="0" y="353.211875" style="fill: #4586ac; stroke: #343434; stroke-width: 2"/>
    </g>
   </g>
   <g id="patch_4">
    <path d="M 100.311667 467.06515 
L 100.311667 467.06515 
L 100.311667 467.06515 
L 100.311667 467.06515 
z
" clip-path="url(#p3e63adf630)" style="fill: #921a33; stroke: #343434; stroke-linejoin: miter"/>
   </g>
   <g id="PolyCollection_2">
    <defs>
     <path id="m3c47b65883" d="M 100.988626 -63.878535 
L 100.311667 -63.878535 
L 100.311667 -64.910424 
L 100.311667 -65.942312 
L 100.311667 -66.9742 
L 100.311667 -68.006089 
L 100.311667 -69.037977 
L 100.311667 -70.069866 
L 100.311667 -71.101754 
L 100.311667 -72.133643 
L 100.311667 -73.165531 
L 100.311667 -74.197419 
L 100.311667 -75.229308 
L 100.311667 -76.261196 
L 100.311667 -77.293085 
L 100.311667 -78.324973 
L 100.311667 -79.356862 
L 100.311667 -80.38875 
L 100.311667 -81.420639 
L 100.311667 -82.452527 
L 100.311667 -83.484415 
L 100.311667 -84.516304 
L 100.311667 -85.548192 
L 100.311667 -86.580081 
L 100.311667 -87.611969 
L 100.311667 -88.643858 
L 100.311667 -89.675746 
L 100.311667 -90.707635 
L 100.311667 -91.739523 
L 100.311667 -92.771411 
L 100.311667 -93.8033 
L 100.311667 -94.835188 
L 100.311667 -95.867077 
L 100.311667 -96.898965 
L 100.311667 -97.930854 
L 100.311667 -98.962742 
L 100.311667 -99.994631 
L 100.311667 -101.026519 
L 100.311667 -102.058407 
L 100.311667 -103.090296 
L 100.311667 -104.122184 
L 100.311667 -105.154073 
L 100.311667 -106.185961 
L 100.311667 -107.21785 
L 100.311667 -108.249738 
L 100.311667 -109.281627 
L 100.311667 -110.313515 
L 100.311667 -111.345403 
L 100.311667 -112.377292 
L 100.311667 -113.40918 
L 100.311667 -114.441069 
L 100.311667 -115.472957 
L 100.311667 -116.504846 
L 100.311667 -117.536734 
L 100.311667 -118.568622 
L 100.311667 -119.600511 
L 100.311667 -120.632399 
L 100.311667 -121.664288 
L 100.311667 -122.696176 
L 100.311667 -123.728065 
L 100.311667 -124.759953 
L 100.311667 -125.791842 
L 100.311667 -126.82373 
L 100.311667 -127.855618 
L 100.311667 -128.887507 
L 100.311667 -129.919395 
L 100.311667 -130.951284 
L 100.311667 -131.983172 
L 100.311667 -133.015061 
L 100.311667 -134.046949 
L 100.311667 -135.078838 
L 100.311667 -136.110726 
L 100.311667 -137.142614 
L 100.311667 -138.174503 
L 100.311667 -139.206391 
L 100.311667 -140.23828 
L 100.311667 -141.270168 
L 100.311667 -142.302057 
L 100.311667 -143.333945 
L 100.311667 -144.365834 
L 100.311667 -145.397722 
L 100.311667 -146.42961 
L 100.311667 -147.461499 
L 100.311667 -148.493387 
L 100.311667 -149.525276 
L 100.311667 -150.557164 
L 100.311667 -151.589053 
L 100.311667 -152.620941 
L 100.311667 -153.65283 
L 100.311667 -154.684718 
L 100.311667 -155.716606 
L 100.311667 -156.748495 
L 100.311667 -157.780383 
L 100.311667 -158.812272 
L 100.311667 -159.84416 
L 100.311667 -160.876049 
L 100.311667 -161.907937 
L 100.311667 -162.939825 
L 100.311667 -163.971714 
L 100.311667 -165.003602 
L 100.311667 -166.035491 
L 100.659258 -166.035491 
L 100.659258 -166.035491 
L 100.78595 -165.003602 
L 100.950039 -163.971714 
L 101.159401 -162.939825 
L 101.422565 -161.907937 
L 101.748464 -160.876049 
L 102.146083 -159.84416 
L 102.624024 -158.812272 
L 103.189985 -157.780383 
L 103.850183 -156.748495 
L 104.608761 -155.716606 
L 105.467217 -154.684718 
L 106.423919 -153.65283 
L 107.473754 -152.620941 
L 108.607977 -151.589053 
L 109.814304 -150.557164 
L 111.077271 -149.525276 
L 112.378886 -148.493387 
L 113.699531 -147.461499 
L 115.01908 -146.42961 
L 116.318149 -145.397722 
L 117.579375 -144.365834 
L 118.788613 -143.333945 
L 119.935926 -142.302057 
L 121.01627 -141.270168 
L 122.029779 -140.23828 
L 122.981614 -139.206391 
L 123.881353 -138.174503 
L 124.741983 -137.142614 
L 125.578562 -136.110726 
L 126.40668 -135.078838 
L 127.240848 -134.046949 
L 128.092994 -133.015061 
L 128.971177 -131.983172 
L 129.878659 -130.951284 
L 130.813412 -129.919395 
L 131.768094 -128.887507 
L 132.730489 -127.855618 
L 133.684363 -126.82373 
L 134.610635 -125.791842 
L 135.488772 -124.759953 
L 136.298251 -123.728065 
L 137.019997 -122.696176 
L 137.63765 -121.664288 
L 138.138586 -120.632399 
L 138.514614 -119.600511 
L 138.762313 -118.568622 
L 138.883002 -117.536734 
L 138.88236 -116.504846 
L 138.76975 -115.472957 
L 138.557303 -114.441069 
L 138.258852 -113.40918 
L 137.888812 -112.377292 
L 137.461081 -111.345403 
L 136.988073 -110.313515 
L 136.479938 -109.281627 
L 135.944055 -108.249738 
L 135.384806 -107.21785 
L 134.803666 -106.185961 
L 134.199573 -105.154073 
L 133.569543 -104.122184 
L 132.909438 -103.090296 
L 132.214828 -102.058407 
L 131.48182 -101.026519 
L 130.707786 -99.994631 
L 129.891896 -98.962742 
L 129.035417 -97.930854 
L 128.141732 -96.898965 
L 127.216104 -95.867077 
L 126.265201 -94.835188 
L 125.296444 -93.8033 
L 124.317264 -92.771411 
L 123.334341 -91.739523 
L 122.352928 -90.707635 
L 121.376343 -89.675746 
L 120.40569 -88.643858 
L 119.439867 -87.611969 
L 118.475869 -86.580081 
L 117.509356 -85.548192 
L 116.535449 -84.516304 
L 115.549635 -83.484415 
L 114.548688 -82.452527 
L 113.531491 -81.420639 
L 112.499626 -80.38875 
L 111.457677 -79.356862 
L 110.413182 -78.324973 
L 109.376243 -77.293085 
L 108.358846 -76.261196 
L 107.373963 -75.229308 
L 106.434555 -74.197419 
L 105.552597 -73.165531 
L 104.738221 -72.133643 
L 103.99907 -71.101754 
L 103.33991 -70.069866 
L 102.762521 -69.037977 
L 102.265839 -68.006089 
L 101.84631 -66.9742 
L 101.498383 -65.942312 
L 101.21509 -64.910424 
L 100.988626 -63.878535 
z
" style="stroke: #343434; stroke-width: 2"/>
    </defs>
    <g clip-path="url(#p3e63adf630)">
     <use xlink:href="#m3c47b65883" x="0" y="353.211875" style="fill: #921a33; stroke: #343434; stroke-width: 2"/>
    </g>
   </g>
   <g id="PolyCollection_3">
    <defs>
     <path id="mb0039cc0db" d="M 196.740003 -189.515224 
L 196.542296 -189.515224 
L 196.470607 -190.953657 
L 196.38036 -192.39209 
L 196.269223 -193.830522 
L 196.135123 -195.268955 
L 195.976257 -196.707388 
L 195.790976 -198.14582 
L 195.577558 -199.584253 
L 195.333866 -201.022685 
L 195.056951 -202.461118 
L 194.742684 -203.899551 
L 194.385518 -205.337983 
L 193.978497 -206.776416 
L 193.513588 -208.214849 
L 192.982383 -209.653281 
L 192.377119 -211.091714 
L 191.691905 -212.530147 
L 190.923962 -213.968579 
L 190.074649 -215.407012 
L 189.150027 -216.845445 
L 188.160798 -218.283877 
L 187.121521 -219.72231 
L 186.049163 -221.160743 
L 184.961156 -222.599175 
L 183.873258 -224.037608 
L 182.797582 -225.476041 
L 181.741132 -226.914473 
L 180.705148 -228.352906 
L 179.685379 -229.791339 
L 178.673288 -231.229771 
L 177.657971 -232.668204 
L 176.628478 -234.106636 
L 175.57612 -235.545069 
L 174.496378 -236.983502 
L 173.390092 -238.421934 
L 172.263775 -239.860367 
L 171.129048 -241.2988 
L 170.001381 -242.737232 
L 168.898426 -244.175665 
L 167.838301 -245.614098 
L 166.83814 -247.05253 
L 165.913159 -248.490963 
L 165.076311 -249.929396 
L 164.338499 -251.367828 
L 163.709154 -252.806261 
L 163.196929 -254.244694 
L 162.81026 -255.683126 
L 162.55758 -257.121559 
L 162.447109 -258.559992 
L 162.486227 -259.998424 
L 162.680557 -261.436857 
L 163.032958 -262.87529 
L 163.542629 -264.313722 
L 164.204496 -265.752155 
L 165.00899 -267.190587 
L 165.942264 -268.62902 
L 166.986794 -270.067453 
L 168.122301 -271.505885 
L 169.326879 -272.944318 
L 170.578235 -274.382751 
L 171.854934 -275.821183 
L 173.137572 -277.259616 
L 174.409789 -278.698049 
L 175.659054 -280.136481 
L 176.877134 -281.574914 
L 178.06018 -283.013347 
L 179.208395 -284.451779 
L 180.325258 -285.890212 
L 181.41637 -287.328645 
L 182.488037 -288.767077 
L 183.545739 -290.20551 
L 184.592721 -291.643943 
L 185.628905 -293.082375 
L 186.650307 -294.520808 
L 187.649078 -295.959241 
L 188.614192 -297.397673 
L 189.532679 -298.836106 
L 190.39123 -300.274538 
L 191.177914 -301.712971 
L 191.883745 -303.151404 
L 192.503844 -304.589836 
L 193.038026 -306.028269 
L 193.490736 -307.466702 
L 193.870384 -308.905134 
L 194.188197 -310.343567 
L 194.456807 -311.782 
L 194.688799 -313.220432 
L 194.895437 -314.658865 
L 195.085739 -316.097298 
L 195.265976 -317.53573 
L 195.439617 -318.974163 
L 195.607658 -320.412596 
L 195.769208 -321.851028 
L 195.92221 -323.289461 
L 196.064159 -324.727894 
L 196.192711 -326.166326 
L 196.306122 -327.604759 
L 196.403482 -329.043192 
L 196.484775 -330.481624 
L 196.550786 -331.920057 
L 196.740003 -331.920057 
L 196.740003 -331.920057 
L 196.740003 -330.481624 
L 196.740003 -329.043192 
L 196.740003 -327.604759 
L 196.740003 -326.166326 
L 196.740003 -324.727894 
L 196.740003 -323.289461 
L 196.740003 -321.851028 
L 196.740003 -320.412596 
L 196.740003 -318.974163 
L 196.740003 -317.53573 
L 196.740003 -316.097298 
L 196.740003 -314.658865 
L 196.740003 -313.220432 
L 196.740003 -311.782 
L 196.740003 -310.343567 
L 196.740003 -308.905134 
L 196.740003 -307.466702 
L 196.740003 -306.028269 
L 196.740003 -304.589836 
L 196.740003 -303.151404 
L 196.740003 -301.712971 
L 196.740003 -300.274538 
L 196.740003 -298.836106 
L 196.740003 -297.397673 
L 196.740003 -295.959241 
L 196.740003 -294.520808 
L 196.740003 -293.082375 
L 196.740003 -291.643943 
L 196.740003 -290.20551 
L 196.740003 -288.767077 
L 196.740003 -287.328645 
L 196.740003 -285.890212 
L 196.740003 -284.451779 
L 196.740003 -283.013347 
L 196.740003 -281.574914 
L 196.740003 -280.136481 
L 196.740003 -278.698049 
L 196.740003 -277.259616 
L 196.740003 -275.821183 
L 196.740003 -274.382751 
L 196.740003 -272.944318 
L 196.740003 -271.505885 
L 196.740003 -270.067453 
L 196.740003 -268.62902 
L 196.740003 -267.190587 
L 196.740003 -265.752155 
L 196.740003 -264.313722 
L 196.740003 -262.87529 
L 196.740003 -261.436857 
L 196.740003 -259.998424 
L 196.740003 -258.559992 
L 196.740003 -257.121559 
L 196.740003 -255.683126 
L 196.740003 -254.244694 
L 196.740003 -252.806261 
L 196.740003 -251.367828 
L 196.740003 -249.929396 
L 196.740003 -248.490963 
L 196.740003 -247.05253 
L 196.740003 -245.614098 
L 196.740003 -244.175665 
L 196.740003 -242.737232 
L 196.740003 -241.2988 
L 196.740003 -239.860367 
L 196.740003 -238.421934 
L 196.740003 -236.983502 
L 196.740003 -235.545069 
L 196.740003 -234.106636 
L 196.740003 -232.668204 
L 196.740003 -231.229771 
L 196.740003 -229.791339 
L 196.740003 -228.352906 
L 196.740003 -226.914473 
L 196.740003 -225.476041 
L 196.740003 -224.037608 
L 196.740003 -222.599175 
L 196.740003 -221.160743 
L 196.740003 -219.72231 
L 196.740003 -218.283877 
L 196.740003 -216.845445 
L 196.740003 -215.407012 
L 196.740003 -213.968579 
L 196.740003 -212.530147 
L 196.740003 -211.091714 
L 196.740003 -209.653281 
L 196.740003 -208.214849 
L 196.740003 -206.776416 
L 196.740003 -205.337983 
L 196.740003 -203.899551 
L 196.740003 -202.461118 
L 196.740003 -201.022685 
L 196.740003 -199.584253 
L 196.740003 -198.14582 
L 196.740003 -196.707388 
L 196.740003 -195.268955 
L 196.740003 -193.830522 
L 196.740003 -192.39209 
L 196.740003 -190.953657 
L 196.740003 -189.515224 
z
" style="stroke: #343434; stroke-width: 2"/>
    </defs>
    <g clip-path="url(#p3e63adf630)">
     <use xlink:href="#mb0039cc0db" x="0" y="353.211875" style="fill: #4586ac; stroke: #343434; stroke-width: 2"/>
    </g>
   </g>
   <g id="PolyCollection_4">
    <defs>
     <path id="md507f88b5e" d="M 196.96149 -136.990457 
L 196.740003 -136.990457 
L 196.740003 -138.188868 
L 196.740003 -139.387278 
L 196.740003 -140.585689 
L 196.740003 -141.7841 
L 196.740003 -142.98251 
L 196.740003 -144.180921 
L 196.740003 -145.379331 
L 196.740003 -146.577742 
L 196.740003 -147.776153 
L 196.740003 -148.974563 
L 196.740003 -150.172974 
L 196.740003 -151.371384 
L 196.740003 -152.569795 
L 196.740003 -153.768206 
L 196.740003 -154.966616 
L 196.740003 -156.165027 
L 196.740003 -157.363437 
L 196.740003 -158.561848 
L 196.740003 -159.760259 
L 196.740003 -160.958669 
L 196.740003 -162.15708 
L 196.740003 -163.35549 
L 196.740003 -164.553901 
L 196.740003 -165.752312 
L 196.740003 -166.950722 
L 196.740003 -168.149133 
L 196.740003 -169.347543 
L 196.740003 -170.545954 
L 196.740003 -171.744365 
L 196.740003 -172.942775 
L 196.740003 -174.141186 
L 196.740003 -175.339596 
L 196.740003 -176.538007 
L 196.740003 -177.736418 
L 196.740003 -178.934828 
L 196.740003 -180.133239 
L 196.740003 -181.331649 
L 196.740003 -182.53006 
L 196.740003 -183.728471 
L 196.740003 -184.926881 
L 196.740003 -186.125292 
L 196.740003 -187.323702 
L 196.740003 -188.522113 
L 196.740003 -189.720524 
L 196.740003 -190.918934 
L 196.740003 -192.117345 
L 196.740003 -193.315755 
L 196.740003 -194.514166 
L 196.740003 -195.712577 
L 196.740003 -196.910987 
L 196.740003 -198.109398 
L 196.740003 -199.307808 
L 196.740003 -200.506219 
L 196.740003 -201.70463 
L 196.740003 -202.90304 
L 196.740003 -204.101451 
L 196.740003 -205.299861 
L 196.740003 -206.498272 
L 196.740003 -207.696683 
L 196.740003 -208.895093 
L 196.740003 -210.093504 
L 196.740003 -211.291914 
L 196.740003 -212.490325 
L 196.740003 -213.688736 
L 196.740003 -214.887146 
L 196.740003 -216.085557 
L 196.740003 -217.283967 
L 196.740003 -218.482378 
L 196.740003 -219.680789 
L 196.740003 -220.879199 
L 196.740003 -222.07761 
L 196.740003 -223.27602 
L 196.740003 -224.474431 
L 196.740003 -225.672841 
L 196.740003 -226.871252 
L 196.740003 -228.069663 
L 196.740003 -229.268073 
L 196.740003 -230.466484 
L 196.740003 -231.664894 
L 196.740003 -232.863305 
L 196.740003 -234.061716 
L 196.740003 -235.260126 
L 196.740003 -236.458537 
L 196.740003 -237.656947 
L 196.740003 -238.855358 
L 196.740003 -240.053769 
L 196.740003 -241.252179 
L 196.740003 -242.45059 
L 196.740003 -243.649 
L 196.740003 -244.847411 
L 196.740003 -246.045822 
L 196.740003 -247.244232 
L 196.740003 -248.442643 
L 196.740003 -249.641053 
L 196.740003 -250.839464 
L 196.740003 -252.037875 
L 196.740003 -253.236285 
L 196.740003 -254.434696 
L 196.740003 -255.633106 
L 197.316608 -255.633106 
L 197.316608 -255.633106 
L 197.515402 -254.434696 
L 197.76472 -253.236285 
L 198.071302 -252.037875 
L 198.441087 -250.839464 
L 198.878803 -249.641053 
L 199.38763 -248.442643 
L 199.969011 -247.244232 
L 200.622651 -246.045822 
L 201.346736 -244.847411 
L 202.138353 -243.649 
L 202.994068 -242.45059 
L 203.910572 -241.252179 
L 204.885291 -240.053769 
L 205.916836 -238.855358 
L 207.005194 -237.656947 
L 208.151591 -236.458537 
L 209.358007 -235.260126 
L 210.626399 -234.061716 
L 211.957724 -232.863305 
L 213.350924 -231.664894 
L 214.802024 -230.466484 
L 216.303517 -229.268073 
L 217.84415 -228.069663 
L 219.409177 -226.871252 
L 220.981053 -225.672841 
L 222.540502 -224.474431 
L 224.067789 -223.27602 
L 225.54402 -222.07761 
L 226.952266 -220.879199 
L 228.278341 -219.680789 
L 229.511114 -218.482378 
L 230.642305 -217.283967 
L 231.665828 -216.085557 
L 232.576786 -214.887146 
L 233.370328 -213.688736 
L 234.040603 -212.490325 
L 234.58003 -211.291914 
L 234.97908 -210.093504 
L 235.226695 -208.895093 
L 235.311336 -207.696683 
L 235.222571 -206.498272 
L 234.952987 -205.299861 
L 234.500156 -204.101451 
L 233.868319 -202.90304 
L 233.069486 -201.70463 
L 232.123722 -200.506219 
L 231.05847 -199.307808 
L 229.906934 -198.109398 
L 228.705655 -196.910987 
L 227.491564 -195.712577 
L 226.298876 -194.514166 
L 225.156226 -193.315755 
L 224.08442 -192.117345 
L 223.095088 -190.918934 
L 222.190403 -189.720524 
L 221.363854 -188.522113 
L 220.601924 -187.323702 
L 219.886396 -186.125292 
L 219.196922 -184.926881 
L 218.513496 -183.728471 
L 217.818503 -182.53006 
L 217.098137 -181.331649 
L 216.343089 -180.133239 
L 215.548557 -178.934828 
L 214.713724 -177.736418 
L 213.840926 -176.538007 
L 212.934742 -175.339596 
L 212.001199 -174.141186 
L 211.047218 -172.942775 
L 210.080331 -171.744365 
L 209.108628 -170.545954 
L 208.140809 -169.347543 
L 207.186227 -168.149133 
L 206.254785 -166.950722 
L 205.356634 -165.752312 
L 204.501648 -164.553901 
L 203.698753 -163.35549 
L 202.955199 -162.15708 
L 202.27592 -160.958669 
L 201.663101 -159.760259 
L 201.116036 -158.561848 
L 200.631317 -157.363437 
L 200.203326 -156.165027 
L 199.824951 -154.966616 
L 199.488416 -153.768206 
L 199.186102 -152.569795 
L 198.911238 -151.371384 
L 198.658392 -150.172974 
L 198.42371 -148.974563 
L 198.204909 -147.776153 
L 198.001072 -146.577742 
L 197.812297 -145.379331 
L 197.639284 -144.180921 
L 197.482928 -142.98251 
L 197.343978 -141.7841 
L 197.222792 -140.585689 
L 197.119204 -139.387278 
L 197.032504 -138.188868 
L 196.96149 -136.990457 
z
" style="stroke: #343434; stroke-width: 2"/>
    </defs>
    <g clip-path="url(#p3e63adf630)">
     <use xlink:href="#md507f88b5e" x="0" y="353.211875" style="fill: #921a33; stroke: #343434; stroke-width: 2"/>
    </g>
   </g>
   <g id="PolyCollection_5">
    <defs>
     <path id="m87bd2e12ef" d="M 293.168338 -82.227096 
L 292.739793 -82.227096 
L 292.604575 -83.778553 
L 292.437374 -85.330009 
L 292.234057 -86.881465 
L 291.990918 -88.432921 
L 291.704943 -89.984378 
L 291.374079 -91.535834 
L 290.997469 -93.08729 
L 290.57561 -94.638746 
L 290.110427 -96.190202 
L 289.605224 -97.741659 
L 289.064508 -99.293115 
L 288.493679 -100.844571 
L 287.898604 -102.396027 
L 287.285111 -103.947484 
L 286.658432 -105.49894 
L 286.022662 -107.050396 
L 285.380282 -108.601852 
L 284.731811 -110.153308 
L 284.075621 -111.704765 
L 283.407972 -113.256221 
L 282.723261 -114.807677 
L 282.014502 -116.359133 
L 281.273986 -117.91059 
L 280.494098 -119.462046 
L 279.668198 -121.013502 
L 278.791502 -122.564958 
L 277.86187 -124.116414 
L 276.880415 -125.667871 
L 275.851868 -127.219327 
L 274.784645 -128.770783 
L 273.690613 -130.322239 
L 272.58455 -131.873696 
L 271.483375 -133.425152 
L 270.405216 -134.976608 
L 269.368424 -136.528064 
L 268.39065 -138.07952 
L 267.488071 -139.630977 
L 266.674859 -141.182433 
L 265.962921 -142.733889 
L 265.361898 -144.285345 
L 264.879387 -145.836802 
L 264.52128 -147.388258 
L 264.292127 -148.939714 
L 264.195403 -150.49117 
L 264.233597 -152.042626 
L 264.408076 -153.594083 
L 264.718719 -155.145539 
L 265.16338 -156.696995 
L 265.737277 -158.248451 
L 266.432432 -159.799908 
L 267.237301 -161.351364 
L 268.1367 -162.90282 
L 269.112105 -164.454276 
L 270.142355 -166.005732 
L 271.204701 -167.557189 
L 272.276125 -169.108645 
L 273.334772 -170.660101 
L 274.361351 -172.211557 
L 275.340341 -173.763014 
L 276.26086 -175.31447 
L 277.117117 -176.865926 
L 277.908386 -178.417382 
L 278.638539 -179.968838 
L 279.315184 -181.520295 
L 279.948529 -183.071751 
L 280.550097 -184.623207 
L 281.131428 -186.174663 
L 281.702918 -187.72612 
L 282.272884 -189.277576 
L 282.846941 -190.829032 
L 283.427732 -192.380488 
L 284.014996 -193.931944 
L 284.605943 -195.483401 
L 285.195852 -197.034857 
L 285.778814 -198.586313 
L 286.348516 -200.137769 
L 286.89897 -201.689226 
L 287.425106 -203.240682 
L 287.923184 -204.792138 
L 288.390993 -206.343594 
L 288.827834 -207.89505 
L 289.234334 -209.446507 
L 289.612123 -210.997963 
L 289.963445 -212.549419 
L 290.290756 -214.100875 
L 290.59638 -215.652332 
L 290.882239 -217.203788 
L 291.149704 -218.755244 
L 291.399551 -220.3067 
L 291.632019 -221.858156 
L 291.846947 -223.409613 
L 292.043951 -224.961069 
L 292.222609 -226.512525 
L 292.382635 -228.063981 
L 292.524009 -229.615438 
L 292.647058 -231.166894 
L 292.752482 -232.71835 
L 292.841338 -234.269806 
L 292.914976 -235.821262 
L 293.168338 -235.821262 
L 293.168338 -235.821262 
L 293.168338 -234.269806 
L 293.168338 -232.71835 
L 293.168338 -231.166894 
L 293.168338 -229.615438 
L 293.168338 -228.063981 
L 293.168338 -226.512525 
L 293.168338 -224.961069 
L 293.168338 -223.409613 
L 293.168338 -221.858156 
L 293.168338 -220.3067 
L 293.168338 -218.755244 
L 293.168338 -217.203788 
L 293.168338 -215.652332 
L 293.168338 -214.100875 
L 293.168338 -212.549419 
L 293.168338 -210.997963 
L 293.168338 -209.446507 
L 293.168338 -207.89505 
L 293.168338 -206.343594 
L 293.168338 -204.792138 
L 293.168338 -203.240682 
L 293.168338 -201.689226 
L 293.168338 -200.137769 
L 293.168338 -198.586313 
L 293.168338 -197.034857 
L 293.168338 -195.483401 
L 293.168338 -193.931944 
L 293.168338 -192.380488 
L 293.168338 -190.829032 
L 293.168338 -189.277576 
L 293.168338 -187.72612 
L 293.168338 -186.174663 
L 293.168338 -184.623207 
L 293.168338 -183.071751 
L 293.168338 -181.520295 
L 293.168338 -179.968838 
L 293.168338 -178.417382 
L 293.168338 -176.865926 
L 293.168338 -175.31447 
L 293.168338 -173.763014 
L 293.168338 -172.211557 
L 293.168338 -170.660101 
L 293.168338 -169.108645 
L 293.168338 -167.557189 
L 293.168338 -166.005732 
L 293.168338 -164.454276 
L 293.168338 -162.90282 
L 293.168338 -161.351364 
L 293.168338 -159.799908 
L 293.168338 -158.248451 
L 293.168338 -156.696995 
L 293.168338 -155.145539 
L 293.168338 -153.594083 
L 293.168338 -152.042626 
L 293.168338 -150.49117 
L 293.168338 -148.939714 
L 293.168338 -147.388258 
L 293.168338 -145.836802 
L 293.168338 -144.285345 
L 293.168338 -142.733889 
L 293.168338 -141.182433 
L 293.168338 -139.630977 
L 293.168338 -138.07952 
L 293.168338 -136.528064 
L 293.168338 -134.976608 
L 293.168338 -133.425152 
L 293.168338 -131.873696 
L 293.168338 -130.322239 
L 293.168338 -128.770783 
L 293.168338 -127.219327 
L 293.168338 -125.667871 
L 293.168338 -124.116414 
L 293.168338 -122.564958 
L 293.168338 -121.013502 
L 293.168338 -119.462046 
L 293.168338 -117.91059 
L 293.168338 -116.359133 
L 293.168338 -114.807677 
L 293.168338 -113.256221 
L 293.168338 -111.704765 
L 293.168338 -110.153308 
L 293.168338 -108.601852 
L 293.168338 -107.050396 
L 293.168338 -105.49894 
L 293.168338 -103.947484 
L 293.168338 -102.396027 
L 293.168338 -100.844571 
L 293.168338 -99.293115 
L 293.168338 -97.741659 
L 293.168338 -96.190202 
L 293.168338 -94.638746 
L 293.168338 -93.08729 
L 293.168338 -91.535834 
L 293.168338 -89.984378 
L 293.168338 -88.432921 
L 293.168338 -86.881465 
L 293.168338 -85.330009 
L 293.168338 -83.778553 
L 293.168338 -82.227096 
z
" style="stroke: #343434; stroke-width: 2"/>
    </defs>
    <g clip-path="url(#p3e63adf630)">
     <use xlink:href="#m87bd2e12ef" x="0" y="353.211875" style="fill: #4586ac; stroke: #343434; stroke-width: 2"/>
    </g>
   </g>
   <g id="PolyCollection_6">
    <defs>
     <path id="m9a80b21d27" d="M 293.485481 -50.083693 
L 293.168338 -50.083693 
L 293.168338 -51.462746 
L 293.168338 -52.841798 
L 293.168338 -54.220851 
L 293.168338 -55.599903 
L 293.168338 -56.978956 
L 293.168338 -58.358009 
L 293.168338 -59.737061 
L 293.168338 -61.116114 
L 293.168338 -62.495166 
L 293.168338 -63.874219 
L 293.168338 -65.253271 
L 293.168338 -66.632324 
L 293.168338 -68.011376 
L 293.168338 -69.390429 
L 293.168338 -70.769482 
L 293.168338 -72.148534 
L 293.168338 -73.527587 
L 293.168338 -74.906639 
L 293.168338 -76.285692 
L 293.168338 -77.664744 
L 293.168338 -79.043797 
L 293.168338 -80.42285 
L 293.168338 -81.801902 
L 293.168338 -83.180955 
L 293.168338 -84.560007 
L 293.168338 -85.93906 
L 293.168338 -87.318112 
L 293.168338 -88.697165 
L 293.168338 -90.076217 
L 293.168338 -91.45527 
L 293.168338 -92.834323 
L 293.168338 -94.213375 
L 293.168338 -95.592428 
L 293.168338 -96.97148 
L 293.168338 -98.350533 
L 293.168338 -99.729585 
L 293.168338 -101.108638 
L 293.168338 -102.487691 
L 293.168338 -103.866743 
L 293.168338 -105.245796 
L 293.168338 -106.624848 
L 293.168338 -108.003901 
L 293.168338 -109.382953 
L 293.168338 -110.762006 
L 293.168338 -112.141058 
L 293.168338 -113.520111 
L 293.168338 -114.899164 
L 293.168338 -116.278216 
L 293.168338 -117.657269 
L 293.168338 -119.036321 
L 293.168338 -120.415374 
L 293.168338 -121.794426 
L 293.168338 -123.173479 
L 293.168338 -124.552532 
L 293.168338 -125.931584 
L 293.168338 -127.310637 
L 293.168338 -128.689689 
L 293.168338 -130.068742 
L 293.168338 -131.447794 
L 293.168338 -132.826847 
L 293.168338 -134.205899 
L 293.168338 -135.584952 
L 293.168338 -136.964005 
L 293.168338 -138.343057 
L 293.168338 -139.72211 
L 293.168338 -141.101162 
L 293.168338 -142.480215 
L 293.168338 -143.859267 
L 293.168338 -145.23832 
L 293.168338 -146.617372 
L 293.168338 -147.996425 
L 293.168338 -149.375478 
L 293.168338 -150.75453 
L 293.168338 -152.133583 
L 293.168338 -153.512635 
L 293.168338 -154.891688 
L 293.168338 -156.27074 
L 293.168338 -157.649793 
L 293.168338 -159.028846 
L 293.168338 -160.407898 
L 293.168338 -161.786951 
L 293.168338 -163.166003 
L 293.168338 -164.545056 
L 293.168338 -165.924108 
L 293.168338 -167.303161 
L 293.168338 -168.682213 
L 293.168338 -170.061266 
L 293.168338 -171.440319 
L 293.168338 -172.819371 
L 293.168338 -174.198424 
L 293.168338 -175.577476 
L 293.168338 -176.956529 
L 293.168338 -178.335581 
L 293.168338 -179.714634 
L 293.168338 -181.093687 
L 293.168338 -182.472739 
L 293.168338 -183.851792 
L 293.168338 -185.230844 
L 293.168338 -186.609897 
L 293.487949 -186.609897 
L 293.487949 -186.609897 
L 293.593494 -185.230844 
L 293.723221 -183.851792 
L 293.87918 -182.472739 
L 294.062673 -181.093687 
L 294.274138 -179.714634 
L 294.513144 -178.335581 
L 294.778546 -176.956529 
L 295.068801 -175.577476 
L 295.382442 -174.198424 
L 295.718647 -172.819371 
L 296.077849 -171.440319 
L 296.462278 -170.061266 
L 296.876369 -168.682213 
L 297.326925 -167.303161 
L 297.823024 -165.924108 
L 298.37565 -164.545056 
L 298.997099 -163.166003 
L 299.700233 -161.786951 
L 300.497687 -160.407898 
L 301.401114 -159.028846 
L 302.42053 -157.649793 
L 303.563776 -156.27074 
L 304.836077 -154.891688 
L 306.239625 -153.512635 
L 307.773128 -152.133583 
L 309.431248 -150.75453 
L 311.203953 -149.375478 
L 313.075819 -147.996425 
L 315.025446 -146.617372 
L 317.025144 -145.23832 
L 319.041117 -143.859267 
L 321.034302 -142.480215 
L 322.961939 -141.101162 
L 324.779853 -139.72211 
L 326.445252 -138.343057 
L 327.919763 -136.964005 
L 329.172311 -135.584952 
L 330.18145 -134.205899 
L 330.93679 -132.826847 
L 331.439285 -131.447794 
L 331.700319 -130.068742 
L 331.739671 -128.689689 
L 331.58266 -127.310637 
L 331.256819 -125.931584 
L 330.788584 -124.552532 
L 330.200398 -123.173479 
L 329.508609 -121.794426 
L 328.722389 -120.415374 
L 327.843769 -119.036321 
L 326.868714 -117.657269 
L 325.789056 -116.278216 
L 324.594987 -114.899164 
L 323.277774 -113.520111 
L 321.832354 -112.141058 
L 320.259495 -110.762006 
L 318.567292 -109.382953 
L 316.771843 -108.003901 
L 314.897054 -106.624848 
L 312.973613 -105.245796 
L 311.037271 -103.866743 
L 309.126607 -102.487691 
L 307.280514 -101.108638 
L 305.535654 -99.729585 
L 303.924119 -98.350533 
L 302.471503 -96.97148 
L 301.195549 -95.592428 
L 300.105465 -94.213375 
L 299.20193 -92.834323 
L 298.477753 -91.45527 
L 297.919079 -90.076217 
L 297.506969 -88.697165 
L 297.219197 -87.318112 
L 297.032038 -85.93906 
L 296.921892 -84.560007 
L 296.8666 -83.180955 
L 296.846369 -81.801902 
L 296.844279 -80.42285 
L 296.846427 -79.043797 
L 296.841776 -77.664744 
L 296.82184 -76.285692 
L 296.780308 -74.906639 
L 296.712717 -73.527587 
L 296.616219 -72.148534 
L 296.489475 -70.769482 
L 296.33264 -69.390429 
L 296.147384 -68.011376 
L 295.936888 -66.632324 
L 295.705747 -65.253271 
L 295.45975 -63.874219 
L 295.205527 -62.495166 
L 294.950098 -61.116114 
L 294.700361 -59.737061 
L 294.462601 -58.358009 
L 294.242076 -56.978956 
L 294.042719 -55.599903 
L 293.866996 -54.220851 
L 293.715925 -52.841798 
L 293.589209 -51.462746 
L 293.485481 -50.083693 
z
" style="stroke: #343434; stroke-width: 2"/>
    </defs>
    <g clip-path="url(#p3e63adf630)">
     <use xlink:href="#m9a80b21d27" x="0" y="353.211875" style="fill: #921a33; stroke: #343434; stroke-width: 2"/>
    </g>
   </g>
   <g id="matplotlib.axis_1">
    <g id="xtick_1">
     <g id="line2d_1">
      <defs>
       <path id="mc4b6429c07" d="M 0 0 
L 0 -3.5 
" style="stroke: #000000; stroke-width: 0.8"/>
      </defs>
      <g>
       <use xlink:href="#mc4b6429c07" x="100.311667" y="317.22" style="stroke: #000000; stroke-width: 0.8"/>
      </g>
     </g>
     <g id="text_1">
      <!-- Adelie -->
      <g transform="translate(84.873386 328.318437) scale(0.1 -0.1)">
       <defs>
        <path id="DejaVuSans-41" d="M 2188 4044 
L 1331 1722 
L 3047 1722 
L 2188 4044 
z
M 1831 4666 
L 2547 4666 
L 4325 0 
L 3669 0 
L 3244 1197 
L 1141 1197 
L 716 0 
L 50 0 
L 1831 4666 
z
" transform="scale(0.015625)"/>
        <path id="DejaVuSans-64" d="M 2906 2969 
L 2906 4863 
L 3481 4863 
L 3481 0 
L 2906 0 
L 2906 525 
Q 2725 213 2448 61 
Q 2172 -91 1784 -91 
Q 1150 -91 751 415 
Q 353 922 353 1747 
Q 353 2572 751 3078 
Q 1150 3584 1784 3584 
Q 2172 3584 2448 3432 
Q 2725 3281 2906 2969 
z
M 947 1747 
Q 947 1113 1208 752 
Q 1469 391 1925 391 
Q 2381 391 2643 752 
Q 2906 1113 2906 1747 
Q 2906 2381 2643 2742 
Q 2381 3103 1925 3103 
Q 1469 3103 1208 2742 
Q 947 2381 947 1747 
z
" transform="scale(0.015625)"/>
        <path id="DejaVuSans-65" d="M 3597 1894 
L 3597 1613 
L 953 1613 
Q 991 1019 1311 708 
Q 1631 397 2203 397 
Q 2534 397 2845 478 
Q 3156 559 3463 722 
L 3463 178 
Q 3153 47 2828 -22 
Q 2503 -91 2169 -91 
Q 1331 -91 842 396 
Q 353 884 353 1716 
Q 353 2575 817 3079 
Q 1281 3584 2069 3584 
Q 2775 3584 3186 3129 
Q 3597 2675 3597 1894 
z
M 3022 2063 
Q 3016 2534 2758 2815 
Q 2500 3097 2075 3097 
Q 1594 3097 1305 2825 
Q 1016 2553 972 2059 
L 3022 2063 
z
" transform="scale(0.015625)"/>
        <path id="DejaVuSans-6c" d="M 603 4863 
L 1178 4863 
L 1178 0 
L 603 0 
L 603 4863 
z
" transform="scale(0.015625)"/>
        <path id="DejaVuSans-69" d="M 603 3500 
L 1178 3500 
L 1178 0 
L 603 0 
L 603 3500 
z
M 603 4863 
L 1178 4863 
L 1178 4134 
L 603 4134 
L 603 4863 
z
" transform="scale(0.015625)"/>
       </defs>
       <use xlink:href="#DejaVuSans-41"/>
       <use xlink:href="#DejaVuSans-64" x="66.658203"/>
       <use xlink:href="#DejaVuSans-65" x="130.134766"/>
       <use xlink:href="#DejaVuSans-6c" x="191.658203"/>
       <use xlink:href="#DejaVuSans-69" x="219.441406"/>
       <use xlink:href="#DejaVuSans-65" x="247.224609"/>
      </g>
     </g>
    </g>
    <g id="xtick_2">
     <g id="line2d_2">
      <g>
       <use xlink:href="#mc4b6429c07" x="196.740003" y="317.22" style="stroke: #000000; stroke-width: 0.8"/>
      </g>
     </g>
     <g id="text_2">
      <!-- Gentoo -->
      <g transform="translate(178.541565 328.318437) scale(0.1 -0.1)">
       <defs>
        <path id="DejaVuSans-47" d="M 3809 666 
L 3809 1919 
L 2778 1919 
L 2778 2438 
L 4434 2438 
L 4434 434 
Q 4069 175 3628 42 
Q 3188 -91 2688 -91 
Q 1594 -91 976 548 
Q 359 1188 359 2328 
Q 359 3472 976 4111 
Q 1594 4750 2688 4750 
Q 3144 4750 3555 4637 
Q 3966 4525 4313 4306 
L 4313 3634 
Q 3963 3931 3569 4081 
Q 3175 4231 2741 4231 
Q 1884 4231 1454 3753 
Q 1025 3275 1025 2328 
Q 1025 1384 1454 906 
Q 1884 428 2741 428 
Q 3075 428 3337 486 
Q 3600 544 3809 666 
z
" transform="scale(0.015625)"/>
        <path id="DejaVuSans-6e" d="M 3513 2113 
L 3513 0 
L 2938 0 
L 2938 2094 
Q 2938 2591 2744 2837 
Q 2550 3084 2163 3084 
Q 1697 3084 1428 2787 
Q 1159 2491 1159 1978 
L 1159 0 
L 581 0 
L 581 3500 
L 1159 3500 
L 1159 2956 
Q 1366 3272 1645 3428 
Q 1925 3584 2291 3584 
Q 2894 3584 3203 3211 
Q 3513 2838 3513 2113 
z
" transform="scale(0.015625)"/>
        <path id="DejaVuSans-74" d="M 1172 4494 
L 1172 3500 
L 2356 3500 
L 2356 3053 
L 1172 3053 
L 1172 1153 
Q 1172 725 1289 603 
Q 1406 481 1766 481 
L 2356 481 
L 2356 0 
L 1766 0 
Q 1100 0 847 248 
Q 594 497 594 1153 
L 594 3053 
L 172 3053 
L 172 3500 
L 594 3500 
L 594 4494 
L 1172 4494 
z
" transform="scale(0.015625)"/>
        <path id="DejaVuSans-6f" d="M 1959 3097 
Q 1497 3097 1228 2736 
Q 959 2375 959 1747 
Q 959 1119 1226 758 
Q 1494 397 1959 397 
Q 2419 397 2687 759 
Q 2956 1122 2956 1747 
Q 2956 2369 2687 2733 
Q 2419 3097 1959 3097 
z
M 1959 3584 
Q 2709 3584 3137 3096 
Q 3566 2609 3566 1747 
Q 3566 888 3137 398 
Q 2709 -91 1959 -91 
Q 1206 -91 779 398 
Q 353 888 353 1747 
Q 353 2609 779 3096 
Q 1206 3584 1959 3584 
z
" transform="scale(0.015625)"/>
       </defs>
       <use xlink:href="#DejaVuSans-47"/>
       <use xlink:href="#DejaVuSans-65" x="77.490234"/>
       <use xlink:href="#DejaVuSans-6e" x="139.013672"/>
       <use xlink:href="#DejaVuSans-74" x="202.392578"/>
       <use xlink:href="#DejaVuSans-6f" x="241.601562"/>
       <use xlink:href="#DejaVuSans-6f" x="302.783203"/>
      </g>
     </g>
    </g>
    <g id="xtick_3">
     <g id="line2d_3">
      <g>
       <use xlink:href="#mc4b6429c07" x="293.168338" y="317.22" style="stroke: #000000; stroke-width: 0.8"/>
      </g>
     </g>
     <g id="text_3">
      <!-- Chinstrap -->
      <g transform="translate(269.091775 328.318437) scale(0.1 -0.1)">
       <defs>
        <path id="DejaVuSans-43" d="M 4122 4306 
L 4122 3641 
Q 3803 3938 3442 4084 
Q 3081 4231 2675 4231 
Q 1875 4231 1450 3742 
Q 1025 3253 1025 2328 
Q 1025 1406 1450 917 
Q 1875 428 2675 428 
Q 3081 428 3442 575 
Q 3803 722 4122 1019 
L 4122 359 
Q 3791 134 3420 21 
Q 3050 -91 2638 -91 
Q 1578 -91 968 557 
Q 359 1206 359 2328 
Q 359 3453 968 4101 
Q 1578 4750 2638 4750 
Q 3056 4750 3426 4639 
Q 3797 4528 4122 4306 
z
" transform="scale(0.015625)"/>
        <path id="DejaVuSans-68" d="M 3513 2113 
L 3513 0 
L 2938 0 
L 2938 2094 
Q 2938 2591 2744 2837 
Q 2550 3084 2163 3084 
Q 1697 3084 1428 2787 
Q 1159 2491 1159 1978 
L 1159 0 
L 581 0 
L 581 4863 
L 1159 4863 
L 1159 2956 
Q 1366 3272 1645 3428 
Q 1925 3584 2291 3584 
Q 2894 3584 3203 3211 
Q 3513 2838 3513 2113 
z
" transform="scale(0.015625)"/>
        <path id="DejaVuSans-73" d="M 2834 3397 
L 2834 2853 
Q 2591 2978 2328 3040 
Q 2066 3103 1784 3103 
Q 1356 3103 1142 2972 
Q 928 2841 928 2578 
Q 928 2378 1081 2264 
Q 1234 2150 1697 2047 
L 1894 2003 
Q 2506 1872 2764 1633 
Q 3022 1394 3022 966 
Q 3022 478 2636 193 
Q 2250 -91 1575 -91 
Q 1294 -91 989 -36 
Q 684 19 347 128 
L 347 722 
Q 666 556 975 473 
Q 1284 391 1588 391 
Q 1994 391 2212 530 
Q 2431 669 2431 922 
Q 2431 1156 2273 1281 
Q 2116 1406 1581 1522 
L 1381 1569 
Q 847 1681 609 1914 
Q 372 2147 372 2553 
Q 372 3047 722 3315 
Q 1072 3584 1716 3584 
Q 2034 3584 2315 3537 
Q 2597 3491 2834 3397 
z
" transform="scale(0.015625)"/>
        <path id="DejaVuSans-72" d="M 2631 2963 
Q 2534 3019 2420 3045 
Q 2306 3072 2169 3072 
Q 1681 3072 1420 2755 
Q 1159 2438 1159 1844 
L 1159 0 
L 581 0 
L 581 3500 
L 1159 3500 
L 1159 2956 
Q 1341 3275 1631 3429 
Q 1922 3584 2338 3584 
Q 2397 3584 2469 3576 
Q 2541 3569 2628 3553 
L 2631 2963 
z
" transform="scale(0.015625)"/>
        <path id="DejaVuSans-61" d="M 2194 1759 
Q 1497 1759 1228 1600 
Q 959 1441 959 1056 
Q 959 750 1161 570 
Q 1363 391 1709 391 
Q 2188 391 2477 730 
Q 2766 1069 2766 1631 
L 2766 1759 
L 2194 1759 
z
M 3341 1997 
L 3341 0 
L 2766 0 
L 2766 531 
Q 2569 213 2275 61 
Q 1981 -91 1556 -91 
Q 1019 -91 701 211 
Q 384 513 384 1019 
Q 384 1609 779 1909 
Q 1175 2209 1959 2209 
L 2766 2209 
L 2766 2266 
Q 2766 2663 2505 2880 
Q 2244 3097 1772 3097 
Q 1472 3097 1187 3025 
Q 903 2953 641 2809 
L 641 3341 
Q 956 3463 1253 3523 
Q 1550 3584 1831 3584 
Q 2591 3584 2966 3190 
Q 3341 2797 3341 1997 
z
" transform="scale(0.015625)"/>
        <path id="DejaVuSans-70" d="M 1159 525 
L 1159 -1331 
L 581 -1331 
L 581 3500 
L 1159 3500 
L 1159 2969 
Q 1341 3281 1617 3432 
Q 1894 3584 2278 3584 
Q 2916 3584 3314 3078 
Q 3713 2572 3713 1747 
Q 3713 922 3314 415 
Q 2916 -91 2278 -91 
Q 1894 -91 1617 61 
Q 1341 213 1159 525 
z
M 3116 1747 
Q 3116 2381 2855 2742 
Q 2594 3103 2138 3103 
Q 1681 3103 1420 2742 
Q 1159 2381 1159 1747 
Q 1159 1113 1420 752 
Q 1681 391 2138 391 
Q 2594 391 2855 752 
Q 3116 1113 3116 1747 
z
" transform="scale(0.015625)"/>
       </defs>
       <use xlink:href="#DejaVuSans-43"/>
       <use xlink:href="#DejaVuSans-68" x="69.824219"/>
       <use xlink:href="#DejaVuSans-69" x="133.203125"/>
       <use xlink:href="#DejaVuSans-6e" x="160.986328"/>
       <use xlink:href="#DejaVuSans-73" x="224.365234"/>
       <use xlink:href="#DejaVuSans-74" x="276.464844"/>
       <use xlink:href="#DejaVuSans-72" x="315.673828"/>
       <use xlink:href="#DejaVuSans-61" x="356.787109"/>
       <use xlink:href="#DejaVuSans-70" x="418.066406"/>
      </g>
     </g>
    </g>
    <g id="text_4">
     <!-- species -->
     <g transform="translate(174.330003 343.51625) scale(0.12 -0.12)">
      <defs>
       <path id="DejaVuSans-63" d="M 3122 3366 
L 3122 2828 
Q 2878 2963 2633 3030 
Q 2388 3097 2138 3097 
Q 1578 3097 1268 2742 
Q 959 2388 959 1747 
Q 959 1106 1268 751 
Q 1578 397 2138 397 
Q 2388 397 2633 464 
Q 2878 531 3122 666 
L 3122 134 
Q 2881 22 2623 -34 
Q 2366 -91 2075 -91 
Q 1284 -91 818 406 
Q 353 903 353 1747 
Q 353 2603 823 3093 
Q 1294 3584 2113 3584 
Q 2378 3584 2631 3529 
Q 2884 3475 3122 3366 
z
" transform="scale(0.015625)"/>
      </defs>
      <use xlink:href="#DejaVuSans-73"/>
      <use xlink:href="#DejaVuSans-70" x="52.099609"/>
      <use xlink:href="#DejaVuSans-65" x="115.576172"/>
      <use xlink:href="#DejaVuSans-63" x="177.099609"/>
      <use xlink:href="#DejaVuSans-69" x="232.080078"/>
      <use xlink:href="#DejaVuSans-65" x="259.863281"/>
      <use xlink:href="#DejaVuSans-73" x="321.386719"/>
     </g>
    </g>
   </g>
   <g id="matplotlib.axis_2">
    <g id="ytick_1">
     <g id="line2d_4">
      <path d="M 52.0975 263.678227 
L 341.382505 263.678227 
" clip-path="url(#p3e63adf630)" style="fill: none; stroke-dasharray: 1.85,0.8; stroke-dashoffset: 0; stroke: #b2b2b2; stroke-width: 0.5"/>
     </g>
     <g id="line2d_5">
      <defs>
       <path id="mf624044898" d="M 0 0 
L 3.5 0 
" style="stroke: #000000; stroke-width: 0.8"/>
      </defs>
      <g>
       <use xlink:href="#mf624044898" x="52.0975" y="263.678227" style="stroke: #000000; stroke-width: 0.8"/>
      </g>
     </g>
     <g id="text_5">
      <!-- 3000 -->
      <g transform="translate(23.1475 267.477446) scale(0.1 -0.1)">
       <defs>
        <path id="DejaVuSans-33" d="M 2597 2516 
Q 3050 2419 3304 2112 
Q 3559 1806 3559 1356 
Q 3559 666 3084 287 
Q 2609 -91 1734 -91 
Q 1441 -91 1130 -33 
Q 819 25 488 141 
L 488 750 
Q 750 597 1062 519 
Q 1375 441 1716 441 
Q 2309 441 2620 675 
Q 2931 909 2931 1356 
Q 2931 1769 2642 2001 
Q 2353 2234 1838 2234 
L 1294 2234 
L 1294 2753 
L 1863 2753 
Q 2328 2753 2575 2939 
Q 2822 3125 2822 3475 
Q 2822 3834 2567 4026 
Q 2313 4219 1838 4219 
Q 1578 4219 1281 4162 
Q 984 4106 628 3988 
L 628 4550 
Q 988 4650 1302 4700 
Q 1616 4750 1894 4750 
Q 2613 4750 3031 4423 
Q 3450 4097 3450 3541 
Q 3450 3153 3228 2886 
Q 3006 2619 2597 2516 
z
" transform="scale(0.015625)"/>
        <path id="DejaVuSans-30" d="M 2034 4250 
Q 1547 4250 1301 3770 
Q 1056 3291 1056 2328 
Q 1056 1369 1301 889 
Q 1547 409 2034 409 
Q 2525 409 2770 889 
Q 3016 1369 3016 2328 
Q 3016 3291 2770 3770 
Q 2525 4250 2034 4250 
z
M 2034 4750 
Q 2819 4750 3233 4129 
Q 3647 3509 3647 2328 
Q 3647 1150 3233 529 
Q 2819 -91 2034 -91 
Q 1250 -91 836 529 
Q 422 1150 422 2328 
Q 422 3509 836 4129 
Q 1250 4750 2034 4750 
z
" transform="scale(0.015625)"/>
       </defs>
       <use xlink:href="#DejaVuSans-33"/>
       <use xlink:href="#DejaVuSans-30" x="63.623047"/>
       <use xlink:href="#DejaVuSans-30" x="127.246094"/>
       <use xlink:href="#DejaVuSans-30" x="190.869141"/>
      </g>
     </g>
    </g>
    <g id="ytick_2">
     <g id="line2d_6">
      <path d="M 52.0975 195.882587 
L 341.382505 195.882587 
" clip-path="url(#p3e63adf630)" style="fill: none; stroke-dasharray: 1.85,0.8; stroke-dashoffset: 0; stroke: #b2b2b2; stroke-width: 0.5"/>
     </g>
     <g id="line2d_7">
      <g>
       <use xlink:href="#mf624044898" x="52.0975" y="195.882587" style="stroke: #000000; stroke-width: 0.8"/>
      </g>
     </g>
     <g id="text_6">
      <!-- 4000 -->
      <g transform="translate(23.1475 199.681805) scale(0.1 -0.1)">
       <defs>
        <path id="DejaVuSans-34" d="M 2419 4116 
L 825 1625 
L 2419 1625 
L 2419 4116 
z
M 2253 4666 
L 3047 4666 
L 3047 1625 
L 3713 1625 
L 3713 1100 
L 3047 1100 
L 3047 0 
L 2419 0 
L 2419 1100 
L 313 1100 
L 313 1709 
L 2253 4666 
z
" transform="scale(0.015625)"/>
       </defs>
       <use xlink:href="#DejaVuSans-34"/>
       <use xlink:href="#DejaVuSans-30" x="63.623047"/>
       <use xlink:href="#DejaVuSans-30" x="127.246094"/>
       <use xlink:href="#DejaVuSans-30" x="190.869141"/>
      </g>
     </g>
    </g>
    <g id="ytick_3">
     <g id="line2d_8">
      <path d="M 52.0975 128.086946 
L 341.382505 128.086946 
" clip-path="url(#p3e63adf630)" style="fill: none; stroke-dasharray: 1.85,0.8; stroke-dashoffset: 0; stroke: #b2b2b2; stroke-width: 0.5"/>
     </g>
     <g id="line2d_9">
      <g>
       <use xlink:href="#mf624044898" x="52.0975" y="128.086946" style="stroke: #000000; stroke-width: 0.8"/>
      </g>
     </g>
     <g id="text_7">
      <!-- 5000 -->
      <g transform="translate(23.1475 131.886165) scale(0.1 -0.1)">
       <defs>
        <path id="DejaVuSans-35" d="M 691 4666 
L 3169 4666 
L 3169 4134 
L 1269 4134 
L 1269 2991 
Q 1406 3038 1543 3061 
Q 1681 3084 1819 3084 
Q 2600 3084 3056 2656 
Q 3513 2228 3513 1497 
Q 3513 744 3044 326 
Q 2575 -91 1722 -91 
Q 1428 -91 1123 -41 
Q 819 9 494 109 
L 494 744 
Q 775 591 1075 516 
Q 1375 441 1709 441 
Q 2250 441 2565 725 
Q 2881 1009 2881 1497 
Q 2881 1984 2565 2268 
Q 2250 2553 1709 2553 
Q 1456 2553 1204 2497 
Q 953 2441 691 2322 
L 691 4666 
z
" transform="scale(0.015625)"/>
       </defs>
       <use xlink:href="#DejaVuSans-35"/>
       <use xlink:href="#DejaVuSans-30" x="63.623047"/>
       <use xlink:href="#DejaVuSans-30" x="127.246094"/>
       <use xlink:href="#DejaVuSans-30" x="190.869141"/>
      </g>
     </g>
    </g>
    <g id="ytick_4">
     <g id="line2d_10">
      <path d="M 52.0975 60.291305 
L 341.382505 60.291305 
" clip-path="url(#p3e63adf630)" style="fill: none; stroke-dasharray: 1.85,0.8; stroke-dashoffset: 0; stroke: #b2b2b2; stroke-width: 0.5"/>
     </g>
     <g id="line2d_11">
      <g>
       <use xlink:href="#mf624044898" x="52.0975" y="60.291305" style="stroke: #000000; stroke-width: 0.8"/>
      </g>
     </g>
     <g id="text_8">
      <!-- 6000 -->
      <g transform="translate(23.1475 64.090524) scale(0.1 -0.1)">
       <defs>
        <path id="DejaVuSans-36" d="M 2113 2584 
Q 1688 2584 1439 2293 
Q 1191 2003 1191 1497 
Q 1191 994 1439 701 
Q 1688 409 2113 409 
Q 2538 409 2786 701 
Q 3034 994 3034 1497 
Q 3034 2003 2786 2293 
Q 2538 2584 2113 2584 
z
M 3366 4563 
L 3366 3988 
Q 3128 4100 2886 4159 
Q 2644 4219 2406 4219 
Q 1781 4219 1451 3797 
Q 1122 3375 1075 2522 
Q 1259 2794 1537 2939 
Q 1816 3084 2150 3084 
Q 2853 3084 3261 2657 
Q 3669 2231 3669 1497 
Q 3669 778 3244 343 
Q 2819 -91 2113 -91 
Q 1303 -91 875 529 
Q 447 1150 447 2328 
Q 447 3434 972 4092 
Q 1497 4750 2381 4750 
Q 2619 4750 2861 4703 
Q 3103 4656 3366 4563 
z
" transform="scale(0.015625)"/>
       </defs>
       <use xlink:href="#DejaVuSans-36"/>
       <use xlink:href="#DejaVuSans-30" x="63.623047"/>
       <use xlink:href="#DejaVuSans-30" x="127.246094"/>
       <use xlink:href="#DejaVuSans-30" x="190.869141"/>
      </g>
     </g>
    </g>
    <g id="text_9">
     <!-- body_mass_g -->
     <g transform="translate(16.318125 202.632187) rotate(-90) scale(0.12 -0.12)">
      <defs>
       <path id="DejaVuSans-62" d="M 3116 1747 
Q 3116 2381 2855 2742 
Q 2594 3103 2138 3103 
Q 1681 3103 1420 2742 
Q 1159 2381 1159 1747 
Q 1159 1113 1420 752 
Q 1681 391 2138 391 
Q 2594 391 2855 752 
Q 3116 1113 3116 1747 
z
M 1159 2969 
Q 1341 3281 1617 3432 
Q 1894 3584 2278 3584 
Q 2916 3584 3314 3078 
Q 3713 2572 3713 1747 
Q 3713 922 3314 415 
Q 2916 -91 2278 -91 
Q 1894 -91 1617 61 
Q 1341 213 1159 525 
L 1159 0 
L 581 0 
L 581 4863 
L 1159 4863 
L 1159 2969 
z
" transform="scale(0.015625)"/>
       <path id="DejaVuSans-79" d="M 2059 -325 
Q 1816 -950 1584 -1140 
Q 1353 -1331 966 -1331 
L 506 -1331 
L 506 -850 
L 844 -850 
Q 1081 -850 1212 -737 
Q 1344 -625 1503 -206 
L 1606 56 
L 191 3500 
L 800 3500 
L 1894 763 
L 2988 3500 
L 3597 3500 
L 2059 -325 
z
" transform="scale(0.015625)"/>
       <path id="DejaVuSans-5f" d="M 3263 -1063 
L 3263 -1509 
L -63 -1509 
L -63 -1063 
L 3263 -1063 
z
" transform="scale(0.015625)"/>
       <path id="DejaVuSans-6d" d="M 3328 2828 
Q 3544 3216 3844 3400 
Q 4144 3584 4550 3584 
Q 5097 3584 5394 3201 
Q 5691 2819 5691 2113 
L 5691 0 
L 5113 0 
L 5113 2094 
Q 5113 2597 4934 2840 
Q 4756 3084 4391 3084 
Q 3944 3084 3684 2787 
Q 3425 2491 3425 1978 
L 3425 0 
L 2847 0 
L 2847 2094 
Q 2847 2600 2669 2842 
Q 2491 3084 2119 3084 
Q 1678 3084 1418 2786 
Q 1159 2488 1159 1978 
L 1159 0 
L 581 0 
L 581 3500 
L 1159 3500 
L 1159 2956 
Q 1356 3278 1631 3431 
Q 1906 3584 2284 3584 
Q 2666 3584 2933 3390 
Q 3200 3197 3328 2828 
z
" transform="scale(0.015625)"/>
       <path id="DejaVuSans-67" d="M 2906 1791 
Q 2906 2416 2648 2759 
Q 2391 3103 1925 3103 
Q 1463 3103 1205 2759 
Q 947 2416 947 1791 
Q 947 1169 1205 825 
Q 1463 481 1925 481 
Q 2391 481 2648 825 
Q 2906 1169 2906 1791 
z
M 3481 434 
Q 3481 -459 3084 -895 
Q 2688 -1331 1869 -1331 
Q 1566 -1331 1297 -1286 
Q 1028 -1241 775 -1147 
L 775 -588 
Q 1028 -725 1275 -790 
Q 1522 -856 1778 -856 
Q 2344 -856 2625 -561 
Q 2906 -266 2906 331 
L 2906 616 
Q 2728 306 2450 153 
Q 2172 0 1784 0 
Q 1141 0 747 490 
Q 353 981 353 1791 
Q 353 2603 747 3093 
Q 1141 3584 1784 3584 
Q 2172 3584 2450 3431 
Q 2728 3278 2906 2969 
L 2906 3500 
L 3481 3500 
L 3481 434 
z
" transform="scale(0.015625)"/>
      </defs>
      <use xlink:href="#DejaVuSans-62"/>
      <use xlink:href="#DejaVuSans-6f" x="63.476562"/>
      <use xlink:href="#DejaVuSans-64" x="124.658203"/>
      <use xlink:href="#DejaVuSans-79" x="188.134766"/>
      <use xlink:href="#DejaVuSans-5f" x="247.314453"/>
      <use xlink:href="#DejaVuSans-6d" x="297.314453"/>
      <use xlink:href="#DejaVuSans-61" x="394.726562"/>
      <use xlink:href="#DejaVuSans-73" x="456.005859"/>
      <use xlink:href="#DejaVuSans-73" x="508.105469"/>
      <use xlink:href="#DejaVuSans-5f" x="560.205078"/>
      <use xlink:href="#DejaVuSans-67" x="610.205078"/>
     </g>
    </g>
   </g>
   <g id="line2d_12">
    <path d="M 100.311667 273.847573 
L 100.311667 143.340965 
" clip-path="url(#p3e63adf630)" style="fill: none; stroke: #343434; stroke-width: 2; stroke-linecap: square"/>
   </g>
   <g id="line2d_13">
    <path d="M 100.311667 239.949753 
L 100.311667 195.882587 
" clip-path="url(#p3e63adf630)" style="fill: none; stroke: #343434; stroke-width: 6; stroke-linecap: square"/>
   </g>
   <g id="line2d_14">
    <path d="M 196.740003 199.272369 
L 196.740003 39.952613 
" clip-path="url(#p3e63adf630)" style="fill: none; stroke: #343434; stroke-width: 2; stroke-linecap: square"/>
   </g>
   <g id="line2d_15">
    <path d="M 196.740003 148.425638 
L 196.740003 94.189125 
" clip-path="url(#p3e63adf630)" style="fill: none; stroke: #343434; stroke-width: 6; stroke-linecap: square"/>
   </g>
   <g id="line2d_16">
    <path d="M 293.168338 270.457791 
L 293.168338 158.594984 
" clip-path="url(#p3e63adf630)" style="fill: none; stroke: #343434; stroke-width: 2; stroke-linecap: square"/>
   </g>
   <g id="line2d_17">
    <path d="M 293.168338 230.627852 
L 293.168338 199.272369 
" clip-path="url(#p3e63adf630)" style="fill: none; stroke: #343434; stroke-width: 6; stroke-linecap: square"/>
   </g>
   <g id="patch_5">
    <path d="M 52.0975 317.22 
L 52.0975 7.2 
" style="fill: none; stroke: #bcbcbc; stroke-width: 0.8; stroke-linejoin: miter; stroke-linecap: square"/>
   </g>
   <g id="patch_6">
    <path d="M 52.0975 317.22 
L 341.382505 317.22 
" style="fill: none; stroke: #bcbcbc; stroke-width: 0.8; stroke-linejoin: miter; stroke-linecap: square"/>
   </g>
   <g id="PathCollection_1">
    <defs>
     <path id="me2f20b6b6e" d="M 0 2 
C 0.530406 2 1.03916 1.789267 1.414214 1.414214 
C 1.789267 1.03916 2 0.530406 2 0 
C 2 -0.530406 1.789267 -1.03916 1.414214 -1.414214 
C 1.03916 -1.789267 0.530406 -2 0 -2 
C -0.530406 -2 -1.03916 -1.789267 -1.414214 -1.414214 
C -1.789267 -1.03916 -2 -0.530406 -2 0 
C -2 0.530406 -1.789267 1.03916 -1.414214 1.414214 
C -1.03916 1.789267 -0.530406 2 0 2 
z
" style="stroke: #343434; stroke-width: 0.5"/>
    </defs>
    <g clip-path="url(#p3e63adf630)">
     <use xlink:href="#me2f20b6b6e" x="100.311667" y="216.221279" style="fill: #ffffff; stroke: #343434; stroke-width: 0.5"/>
    </g>
   </g>
   <g id="PathCollection_2">
    <g clip-path="url(#p3e63adf630)">
     <use xlink:href="#me2f20b6b6e" x="196.740003" y="128.086946" style="fill: #ffffff; stroke: #343434; stroke-width: 0.5"/>
    </g>
   </g>
   <g id="PathCollection_3">
    <g clip-path="url(#p3e63adf630)">
     <use xlink:href="#me2f20b6b6e" x="293.168338" y="216.221279" style="fill: #ffffff; stroke: #343434; stroke-width: 0.5"/>
    </g>
   </g>
  </g>
  <g id="legend_1">
   <g id="text_10">
    <!-- sex -->
    <g transform="translate(369.658261 164.687187) scale(0.1 -0.1)">
     <defs>
      <path id="DejaVuSans-78" d="M 3513 3500 
L 2247 1797 
L 3578 0 
L 2900 0 
L 1881 1375 
L 863 0 
L 184 0 
L 1544 1831 
L 300 3500 
L 978 3500 
L 1906 2253 
L 2834 3500 
L 3513 3500 
z
" transform="scale(0.015625)"/>
     </defs>
     <use xlink:href="#DejaVuSans-73"/>
     <use xlink:href="#DejaVuSans-65" x="52.099609"/>
     <use xlink:href="#DejaVuSans-78" x="111.873047"/>
    </g>
   </g>
   <g id="patch_7">
    <path d="M 346.974667 179.365312 
L 366.974667 179.365312 
L 366.974667 172.365312 
L 346.974667 172.365312 
z
" style="fill: #4586ac; stroke: #343434; stroke-linejoin: miter"/>
   </g>
   <g id="text_11">
    <!-- male -->
    <g transform="translate(374.974667 179.365312) scale(0.1 -0.1)">
     <use xlink:href="#DejaVuSans-6d"/>
     <use xlink:href="#DejaVuSans-61" x="97.412109"/>
     <use xlink:href="#DejaVuSans-6c" x="158.691406"/>
     <use xlink:href="#DejaVuSans-65" x="186.474609"/>
    </g>
   </g>
   <g id="patch_8">
    <path d="M 346.974667 194.043437 
L 366.974667 194.043437 
L 366.974667 187.043437 
L 346.974667 187.043437 
z
" style="fill: #921a33; stroke: #343434; stroke-linejoin: miter"/>
   </g>
   <g id="text_12">
    <!-- female -->
    <g transform="translate(374.974667 194.043437) scale(0.1 -0.1)">
     <defs>
      <path id="DejaVuSans-66" d="M 2375 4863 
L 2375 4384 
L 1825 4384 
Q 1516 4384 1395 4259 
Q 1275 4134 1275 3809 
L 1275 3500 
L 2222 3500 
L 2222 3053 
L 1275 3053 
L 1275 0 
L 697 0 
L 697 3053 
L 147 3053 
L 147 3500 
L 697 3500 
L 697 3744 
Q 697 4328 969 4595 
Q 1241 4863 1831 4863 
L 2375 4863 
z
" transform="scale(0.015625)"/>
     </defs>
     <use xlink:href="#DejaVuSans-66"/>
     <use xlink:href="#DejaVuSans-65" x="35.205078"/>
     <use xlink:href="#DejaVuSans-6d" x="96.728516"/>
     <use xlink:href="#DejaVuSans-61" x="194.140625"/>
     <use xlink:href="#DejaVuSans-6c" x="255.419922"/>
     <use xlink:href="#DejaVuSans-65" x="283.203125"/>
    </g>
   </g>
  </g>
 </g>
 <defs>
  <clipPath id="p3e63adf630">
   <rect x="52.0975" y="7.2" width="289.285005" height="310.02"/>
  </clipPath>
 </defs>
</svg>