<?xml version="1.0" encoding="utf-8" standalone="no"?>
<!DOCTYPE svg PUBLIC "-//W3C//DTD SVG 1.1//EN"
  "http://www.w3.org/Graphics/SVG/1.1/DTD/svg11.dtd">
<svg xmlns:xlink="http://www.w3.org/1999/xlink" width="597.825625pt" height="363.387875pt" viewBox="0 0 597.825625 363.387875" xmlns="http://www.w3.org/2000/svg" version="1.1">
 <metadata>
  <rdf:RDF xmlns:dc="http://purl.org/dc/elements/1.1/" xmlns:cc="http://creativecommons.org/ns#" xmlns:rdf="http://www.w3.org/1999/02/22-rdf-syntax-ns#">
   <cc:Work>
    <dc:type rdf:resource="http://purl.org/dc/dcmitype/StillImage"/>
    <dc:date>2023-05-08T00:37:43.618909</dc:date>
    <dc:format>image/svg+xml</dc:format>
    <dc:creator>
     <cc:Agent>
      <dc:title>Matplotlib v3.7.1, https://matplotlib.org/</dc:title>
     </cc:Agent>
    </dc:creator>
   </cc:Work>
  </rdf:RDF>
 </metadata>
 <defs>
  <style type="text/css">*{stroke-linejoin: round; stroke-linecap: butt}</style>
 </defs>
 <g id="figure_1">
  <g id="patch_1">
   <path d="M 0 363.387875 
L 597.825625 363.387875 
L 597.825625 0 
L 0 0 
z
" style="fill: #ffffff"/>
  </g>
  <g id="axes_1">
   <g id="patch_2">
    <path d="M 32.625625 339.84 
L 590.625625 339.84 
L 590.625625 7.2 
L 32.625625 7.2 
z
" style="fill: #eaeaf2"/>
   </g>
   <g id="matplotlib.axis_1">
    <g id="xtick_1">
     <g id="line2d_1">
      <path d="M 57.989261 339.84 
L 57.989261 7.2 
" clip-path="url(#pb0eb023566)" style="fill: none; stroke: #ffffff; stroke-width: 0.8; stroke-linecap: round"/>
     </g>
     <g id="text_1">
      <!-- 0.0 -->
      <g style="fill: #262626" transform="translate(51.873261 354.438875) scale(0.088 -0.088)">
       <defs>
        <path id="ArialMT-30" d="M 266 2259 
Q 266 3072 433 3567 
Q 600 4063 929 4331 
Q 1259 4600 1759 4600 
Q 2128 4600 2406 4451 
Q 2684 4303 2865 4023 
Q 3047 3744 3150 3342 
Q 3253 2941 3253 2259 
Q 3253 1453 3087 958 
Q 2922 463 2592 192 
Q 2263 -78 1759 -78 
Q 1097 -78 719 397 
Q 266 969 266 2259 
z
M 844 2259 
Q 844 1131 1108 757 
Q 1372 384 1759 384 
Q 2147 384 2411 759 
Q 2675 1134 2675 2259 
Q 2675 3391 2411 3762 
Q 2147 4134 1753 4134 
Q 1366 4134 1134 3806 
Q 844 3388 844 2259 
z
" transform="scale(0.015625)"/>
        <path id="ArialMT-2e" d="M 581 0 
L 581 641 
L 1222 641 
L 1222 0 
L 581 0 
z
" transform="scale(0.015625)"/>
       </defs>
       <use xlink:href="#ArialMT-30"/>
       <use xlink:href="#ArialMT-2e" x="55.615234"/>
       <use xlink:href="#ArialMT-30" x="83.398438"/>
      </g>
     </g>
    </g>
    <g id="xtick_2">
     <g id="line2d_2">
      <path d="M 121.430073 339.84 
L 121.430073 7.2 
" clip-path="url(#pb0eb023566)" style="fill: none; stroke: #ffffff; stroke-width: 0.8; stroke-linecap: round"/>
     </g>
     <g id="text_2">
      <!-- 2.5 -->
      <g style="fill: #262626" transform="translate(115.314073 354.438875) scale(0.088 -0.088)">
       <defs>
        <path id="ArialMT-32" d="M 3222 541 
L 3222 0 
L 194 0 
Q 188 203 259 391 
Q 375 700 629 1000 
Q 884 1300 1366 1694 
Q 2113 2306 2375 2664 
Q 2638 3022 2638 3341 
Q 2638 3675 2398 3904 
Q 2159 4134 1775 4134 
Q 1369 4134 1125 3890 
Q 881 3647 878 3216 
L 300 3275 
Q 359 3922 746 4261 
Q 1134 4600 1788 4600 
Q 2447 4600 2831 4234 
Q 3216 3869 3216 3328 
Q 3216 3053 3103 2787 
Q 2991 2522 2730 2228 
Q 2469 1934 1863 1422 
Q 1356 997 1212 845 
Q 1069 694 975 541 
L 3222 541 
z
" transform="scale(0.015625)"/>
        <path id="ArialMT-35" d="M 266 1200 
L 856 1250 
Q 922 819 1161 601 
Q 1400 384 1738 384 
Q 2144 384 2425 690 
Q 2706 997 2706 1503 
Q 2706 1984 2436 2262 
Q 2166 2541 1728 2541 
Q 1456 2541 1237 2417 
Q 1019 2294 894 2097 
L 366 2166 
L 809 4519 
L 3088 4519 
L 3088 3981 
L 1259 3981 
L 1013 2750 
Q 1425 3038 1878 3038 
Q 2478 3038 2890 2622 
Q 3303 2206 3303 1553 
Q 3303 931 2941 478 
Q 2500 -78 1738 -78 
Q 1113 -78 717 272 
Q 322 622 266 1200 
z
" transform="scale(0.015625)"/>
       </defs>
       <use xlink:href="#ArialMT-32"/>
       <use xlink:href="#ArialMT-2e" x="55.615234"/>
       <use xlink:href="#ArialMT-35" x="83.398438"/>
      </g>
     </g>
    </g>
    <g id="xtick_3">
     <g id="line2d_3">
      <path d="M 184.870884 339.84 
L 184.870884 7.2 
" clip-path="url(#pb0eb023566)" style="fill: none; stroke: #ffffff; stroke-width: 0.8; stroke-linecap: round"/>
     </g>
     <g id="text_3">
      <!-- 5.0 -->
      <g style="fill: #262626" transform="translate(178.754884 354.438875) scale(0.088 -0.088)">
       <use xlink:href="#ArialMT-35"/>
       <use xlink:href="#ArialMT-2e" x="55.615234"/>
       <use xlink:href="#ArialMT-30" x="83.398438"/>
      </g>
     </g>
    </g>
    <g id="xtick_4">
     <g id="line2d_4">
      <path d="M 248.311695 339.84 
L 248.311695 7.2 
" clip-path="url(#pb0eb023566)" style="fill: none; stroke: #ffffff; stroke-width: 0.8; stroke-linecap: round"/>
     </g>
     <g id="text_4">
      <!-- 7.5 -->
      <g style="fill: #262626" transform="translate(242.195695 354.438875) scale(0.088 -0.088)">
       <defs>
        <path id="ArialMT-37" d="M 303 3981 
L 303 4522 
L 3269 4522 
L 3269 4084 
Q 2831 3619 2401 2847 
Q 1972 2075 1738 1259 
Q 1569 684 1522 0 
L 944 0 
Q 953 541 1156 1306 
Q 1359 2072 1739 2783 
Q 2119 3494 2547 3981 
L 303 3981 
z
" transform="scale(0.015625)"/>
       </defs>
       <use xlink:href="#ArialMT-37"/>
       <use xlink:href="#ArialMT-2e" x="55.615234"/>
       <use xlink:href="#ArialMT-35" x="83.398438"/>
      </g>
     </g>
    </g>
    <g id="xtick_5">
     <g id="line2d_5">
      <path d="M 311.752507 339.84 
L 311.752507 7.2 
" clip-path="url(#pb0eb023566)" style="fill: none; stroke: #ffffff; stroke-width: 0.8; stroke-linecap: round"/>
     </g>
     <g id="text_5">
      <!-- 10.0 -->
      <g style="fill: #262626" transform="translate(303.189694 354.438875) scale(0.088 -0.088)">
       <defs>
        <path id="ArialMT-31" d="M 2384 0 
L 1822 0 
L 1822 3584 
Q 1619 3391 1289 3197 
Q 959 3003 697 2906 
L 697 3450 
Q 1169 3672 1522 3987 
Q 1875 4303 2022 4600 
L 2384 4600 
L 2384 0 
z
" transform="scale(0.015625)"/>
       </defs>
       <use xlink:href="#ArialMT-31"/>
       <use xlink:href="#ArialMT-30" x="55.615234"/>
       <use xlink:href="#ArialMT-2e" x="111.230469"/>
       <use xlink:href="#ArialMT-30" x="139.013672"/>
      </g>
     </g>
    </g>
    <g id="xtick_6">
     <g id="line2d_6">
      <path d="M 375.193318 339.84 
L 375.193318 7.2 
" clip-path="url(#pb0eb023566)" style="fill: none; stroke: #ffffff; stroke-width: 0.8; stroke-linecap: round"/>
     </g>
     <g id="text_6">
      <!-- 12.5 -->
      <g style="fill: #262626" transform="translate(366.630505 354.438875) scale(0.088 -0.088)">
       <use xlink:href="#ArialMT-31"/>
       <use xlink:href="#ArialMT-32" x="55.615234"/>
       <use xlink:href="#ArialMT-2e" x="111.230469"/>
       <use xlink:href="#ArialMT-35" x="139.013672"/>
      </g>
     </g>
    </g>
    <g id="xtick_7">
     <g id="line2d_7">
      <path d="M 438.634129 339.84 
L 438.634129 7.2 
" clip-path="url(#pb0eb023566)" style="fill: none; stroke: #ffffff; stroke-width: 0.8; stroke-linecap: round"/>
     </g>
     <g id="text_7">
      <!-- 15.0 -->
      <g style="fill: #262626" transform="translate(430.071317 354.438875) scale(0.088 -0.088)">
       <use xlink:href="#ArialMT-31"/>
       <use xlink:href="#ArialMT-35" x="55.615234"/>
       <use xlink:href="#ArialMT-2e" x="111.230469"/>
       <use xlink:href="#ArialMT-30" x="139.013672"/>
      </g>
     </g>
    </g>
    <g id="xtick_8">
     <g id="line2d_8">
      <path d="M 502.074941 339.84 
L 502.074941 7.2 
" clip-path="url(#pb0eb023566)" style="fill: none; stroke: #ffffff; stroke-width: 0.8; stroke-linecap: round"/>
     </g>
     <g id="text_8">
      <!-- 17.5 -->
      <g style="fill: #262626" transform="translate(493.512128 354.438875) scale(0.088 -0.088)">
       <use xlink:href="#ArialMT-31"/>
       <use xlink:href="#ArialMT-37" x="55.615234"/>
       <use xlink:href="#ArialMT-2e" x="111.230469"/>
       <use xlink:href="#ArialMT-35" x="139.013672"/>
      </g>
     </g>
    </g>
    <g id="xtick_9">
     <g id="line2d_9">
      <path d="M 565.515752 339.84 
L 565.515752 7.2 
" clip-path="url(#pb0eb023566)" style="fill: none; stroke: #ffffff; stroke-width: 0.8; stroke-linecap: round"/>
     </g>
     <g id="text_9">
      <!-- 20.0 -->
      <g style="fill: #262626" transform="translate(556.952939 354.438875) scale(0.088 -0.088)">
       <use xlink:href="#ArialMT-32"/>
       <use xlink:href="#ArialMT-30" x="55.615234"/>
       <use xlink:href="#ArialMT-2e" x="111.230469"/>
       <use xlink:href="#ArialMT-30" x="139.013672"/>
      </g>
     </g>
    </g>
   </g>
   <g id="matplotlib.axis_2">
    <g id="ytick_1">
     <g id="line2d_10">
      <path d="M 32.625625 324.72 
L 590.625625 324.72 
" clip-path="url(#pb0eb023566)" style="fill: none; stroke: #ffffff; stroke-width: 0.8; stroke-linecap: round"/>
     </g>
     <g id="text_10">
      <!-- 0.00 -->
      <g style="fill: #262626" transform="translate(7.2 327.869438) scale(0.088 -0.088)">
       <use xlink:href="#ArialMT-30"/>
       <use xlink:href="#ArialMT-2e" x="55.615234"/>
       <use xlink:href="#ArialMT-30" x="83.398438"/>
       <use xlink:href="#ArialMT-30" x="139.013672"/>
      </g>
     </g>
    </g>
    <g id="ytick_2">
     <g id="line2d_11">
      <path d="M 32.625625 264.24 
L 590.625625 264.24 
" clip-path="url(#pb0eb023566)" style="fill: none; stroke: #ffffff; stroke-width: 0.8; stroke-linecap: round"/>
     </g>
     <g id="text_11">
      <!-- 0.05 -->
      <g style="fill: #262626" transform="translate(7.2 267.389437) scale(0.088 -0.088)">
       <use xlink:href="#ArialMT-30"/>
       <use xlink:href="#ArialMT-2e" x="55.615234"/>
       <use xlink:href="#ArialMT-30" x="83.398438"/>
       <use xlink:href="#ArialMT-35" x="139.013672"/>
      </g>
     </g>
    </g>
    <g id="ytick_3">
     <g id="line2d_12">
      <path d="M 32.625625 203.76 
L 590.625625 203.76 
" clip-path="url(#pb0eb023566)" style="fill: none; stroke: #ffffff; stroke-width: 0.8; stroke-linecap: round"/>
     </g>
     <g id="text_12">
      <!-- 0.10 -->
      <g style="fill: #262626" transform="translate(7.2 206.909437) scale(0.088 -0.088)">
       <use xlink:href="#ArialMT-30"/>
       <use xlink:href="#ArialMT-2e" x="55.615234"/>
       <use xlink:href="#ArialMT-31" x="83.398438"/>
       <use xlink:href="#ArialMT-30" x="139.013672"/>
      </g>
     </g>
    </g>
    <g id="ytick_4">
     <g id="line2d_13">
      <path d="M 32.625625 143.28 
L 590.625625 143.28 
" clip-path="url(#pb0eb023566)" style="fill: none; stroke: #ffffff; stroke-width: 0.8; stroke-linecap: round"/>
     </g>
     <g id="text_13">
      <!-- 0.15 -->
      <g style="fill: #262626" transform="translate(7.2 146.429437) scale(0.088 -0.088)">
       <use xlink:href="#ArialMT-30"/>
       <use xlink:href="#ArialMT-2e" x="55.615234"/>
       <use xlink:href="#ArialMT-31" x="83.398438"/>
       <use xlink:href="#ArialMT-35" x="139.013672"/>
      </g>
     </g>
    </g>
    <g id="ytick_5">
     <g id="line2d_14">
      <path d="M 32.625625 82.8 
L 590.625625 82.8 
" clip-path="url(#pb0eb023566)" style="fill: none; stroke: #ffffff; stroke-width: 0.8; stroke-linecap: round"/>
     </g>
     <g id="text_14">
      <!-- 0.20 -->
      <g style="fill: #262626" transform="translate(7.2 85.949437) scale(0.088 -0.088)">
       <use xlink:href="#ArialMT-30"/>
       <use xlink:href="#ArialMT-2e" x="55.615234"/>
       <use xlink:href="#ArialMT-32" x="83.398438"/>
       <use xlink:href="#ArialMT-30" x="139.013672"/>
      </g>
     </g>
    </g>
    <g id="ytick_6">
     <g id="line2d_15">
      <path d="M 32.625625 22.32 
L 590.625625 22.32 
" clip-path="url(#pb0eb023566)" style="fill: none; stroke: #ffffff; stroke-width: 0.8; stroke-linecap: round"/>
     </g>
     <g id="text_15">
      <!-- 0.25 -->
      <g style="fill: #262626" transform="translate(7.2 25.469437) scale(0.088 -0.088)">
       <use xlink:href="#ArialMT-30"/>
       <use xlink:href="#ArialMT-2e" x="55.615234"/>
       <use xlink:href="#ArialMT-32" x="83.398438"/>
       <use xlink:href="#ArialMT-35" x="139.013672"/>
      </g>
     </g>
    </g>
   </g>
   <g id="PolyCollection_1">
    <defs>
     <path id="m7c8c433176" d="M 57.989261 -38.667875 
L 57.989261 -341.067875 
L 58.243025 -340.312819 
L 58.496788 -339.559649 
L 58.750551 -338.808359 
L 59.004314 -338.058945 
L 59.258078 -337.311402 
L 59.511841 -336.565726 
L 59.765604 -335.821911 
L 60.019367 -335.079954 
L 60.273131 -334.339849 
L 60.526894 -333.601592 
L 60.780657 -332.865179 
L 61.03442 -332.130604 
L 61.288184 -331.397864 
L 61.541947 -330.666953 
L 61.79571 -329.937867 
L 62.049473 -329.210601 
L 62.303237 -328.485152 
L 62.557 -327.761514 
L 62.810763 -327.039682 
L 63.064526 -326.319653 
L 63.31829 -325.601422 
L 63.572053 -324.884984 
L 63.825816 -324.170335 
L 64.079579 -323.45747 
L 64.333342 -322.746385 
L 64.587106 -322.037076 
L 64.840869 -321.329538 
L 65.094632 -320.623766 
L 65.348395 -319.919757 
L 65.602159 -319.217505 
L 65.855922 -318.517007 
L 66.109685 -317.818258 
L 66.363448 -317.121254 
L 66.617212 -316.42599 
L 66.870975 -315.732462 
L 67.124738 -315.040665 
L 67.378501 -314.350596 
L 67.632265 -313.66225 
L 67.886028 -312.975623 
L 68.139791 -312.29071 
L 68.393554 -311.607507 
L 68.647318 -310.926011 
L 68.901081 -310.246215 
L 69.154844 -309.568118 
L 69.408607 -308.891713 
L 69.662371 -308.216997 
L 69.916134 -307.543966 
L 70.169897 -306.872615 
L 70.42366 -306.202941 
L 70.677424 -305.534938 
L 70.931187 -304.868604 
L 71.18495 -304.203933 
L 71.438713 -303.540922 
L 71.692477 -302.879567 
L 71.94624 -302.219862 
L 72.200003 -301.561805 
L 72.453766 -300.905391 
L 72.70753 -300.250616 
L 72.961293 -299.597476 
L 73.215056 -298.945967 
L 73.468819 -298.296085 
L 73.722583 -297.647825 
L 73.976346 -297.001183 
L 74.230109 -296.356157 
L 74.483872 -295.712741 
L 74.737636 -295.070931 
L 74.991399 -294.430724 
L 75.245162 -293.792116 
L 75.498925 -293.155102 
L 75.752689 -292.519678 
L 76.006452 -291.885841 
L 76.260215 -291.253587 
L 76.513978 -290.622911 
L 76.767742 -289.99381 
L 77.021505 -289.36628 
L 77.275268 -288.740317 
L 77.529031 -288.115917 
L 77.782794 -287.493076 
L 78.036558 -286.87179 
L 78.290321 -286.252055 
L 78.544084 -285.633867 
L 78.797847 -285.017223 
L 79.051611 -284.402119 
L 79.305374 -283.788551 
L 79.559137 -283.176515 
L 79.8129 -282.566007 
L 80.066664 -281.957023 
L 80.320427 -281.34956 
L 80.57419 -280.743613 
L 80.827953 -280.13918 
L 81.081717 -279.536255 
L 81.33548 -278.934836 
L 81.589243 -278.334919 
L 81.843006 -277.7365 
L 82.09677 -277.139575 
L 82.350533 -276.54414 
L 82.604296 -275.950192 
L 82.858059 -275.357727 
L 83.111823 -274.766742 
L 83.365586 -274.177232 
L 83.619349 -273.589194 
L 83.873112 -273.002624 
L 84.126876 -272.417519 
L 84.380639 -271.833875 
L 84.634402 -271.251688 
L 84.888165 -270.670954 
L 85.141929 -270.091671 
L 85.395692 -269.513834 
L 85.649455 -268.93744 
L 85.903218 -268.362485 
L 86.156982 -267.788966 
L 86.410745 -267.216878 
L 86.664508 -266.64622 
L 86.918271 -266.076986 
L 87.172035 -265.509173 
L 87.425798 -264.942778 
L 87.679561 -264.377797 
L 87.933324 -263.814227 
L 88.187088 -263.252064 
L 88.440851 -262.691305 
L 88.694614 -262.131946 
L 88.948377 -261.573983 
L 89.202141 -261.017414 
L 89.455904 -260.462235 
L 89.709667 -259.908441 
L 89.96343 -259.356031 
L 90.217194 -258.804999 
L 90.470957 -258.255344 
L 90.72472 -257.707061 
L 90.978483 -257.160147 
L 91.232246 -256.614598 
L 91.48601 -256.070412 
L 91.739773 -255.527584 
L 91.993536 -254.986112 
L 92.247299 -254.445992 
L 92.501063 -253.907221 
L 92.754826 -253.369794 
L 93.008589 -252.83371 
L 93.262352 -252.298964 
L 93.516116 -251.765553 
L 93.769879 -251.233475 
L 94.023642 -250.702724 
L 94.277405 -250.173299 
L 94.531169 -249.645196 
L 94.784932 -249.118411 
L 95.038695 -248.592942 
L 95.292458 -248.068785 
L 95.546222 -247.545937 
L 95.799985 -247.024394 
L 96.053748 -246.504153 
L 96.053748 -38.667875 
L 96.053748 -38.667875 
L 95.799985 -38.667875 
L 95.546222 -38.667875 
L 95.292458 -38.667875 
L 95.038695 -38.667875 
L 94.784932 -38.667875 
L 94.531169 -38.667875 
L 94.277405 -38.667875 
L 94.023642 -38.667875 
L 93.769879 -38.667875 
L 93.516116 -38.667875 
L 93.262352 -38.667875 
L 93.008589 -38.667875 
L 92.754826 -38.667875 
L 92.501063 -38.667875 
L 92.247299 -38.667875 
L 91.993536 -38.667875 
L 91.739773 -38.667875 
L 91.48601 -38.667875 
L 91.232246 -38.667875 
L 90.978483 -38.667875 
L 90.72472 -38.667875 
L 90.470957 -38.667875 
L 90.217194 -38.667875 
L 89.96343 -38.667875 
L 89.709667 -38.667875 
L 89.455904 -38.667875 
L 89.202141 -38.667875 
L 88.948377 -38.667875 
L 88.694614 -38.667875 
L 88.440851 -38.667875 
L 88.187088 -38.667875 
L 87.933324 -38.667875 
L 87.679561 -38.667875 
L 87.425798 -38.667875 
L 87.172035 -38.667875 
L 86.918271 -38.667875 
L 86.664508 -38.667875 
L 86.410745 -38.667875 
L 86.156982 -38.667875 
L 85.903218 -38.667875 
L 85.649455 -38.667875 
L 85.395692 -38.667875 
L 85.141929 -38.667875 
L 84.888165 -38.667875 
L 84.634402 -38.667875 
L 84.380639 -38.667875 
L 84.126876 -38.667875 
L 83.873112 -38.667875 
L 83.619349 -38.667875 
L 83.365586 -38.667875 
L 83.111823 -38.667875 
L 82.858059 -38.667875 
L 82.604296 -38.667875 
L 82.350533 -38.667875 
L 82.09677 -38.667875 
L 81.843006 -38.667875 
L 81.589243 -38.667875 
L 81.33548 -38.667875 
L 81.081717 -38.667875 
L 80.827953 -38.667875 
L 80.57419 -38.667875 
L 80.320427 -38.667875 
L 80.066664 -38.667875 
L 79.8129 -38.667875 
L 79.559137 -38.667875 
L 79.305374 -38.667875 
L 79.051611 -38.667875 
L 78.797847 -38.667875 
L 78.544084 -38.667875 
L 78.290321 -38.667875 
L 78.036558 -38.667875 
L 77.782794 -38.667875 
L 77.529031 -38.667875 
L 77.275268 -38.667875 
L 77.021505 -38.667875 
L 76.767742 -38.667875 
L 76.513978 -38.667875 
L 76.260215 -38.667875 
L 76.006452 -38.667875 
L 75.752689 -38.667875 
L 75.498925 -38.667875 
L 75.245162 -38.667875 
L 74.991399 -38.667875 
L 74.737636 -38.667875 
L 74.483872 -38.667875 
L 74.230109 -38.667875 
L 73.976346 -38.667875 
L 73.722583 -38.667875 
L 73.468819 -38.667875 
L 73.215056 -38.667875 
L 72.961293 -38.667875 
L 72.70753 -38.667875 
L 72.453766 -38.667875 
L 72.200003 -38.667875 
L 71.94624 -38.667875 
L 71.692477 -38.667875 
L 71.438713 -38.667875 
L 71.18495 -38.667875 
L 70.931187 -38.667875 
L 70.677424 -38.667875 
L 70.42366 -38.667875 
L 70.169897 -38.667875 
L 69.916134 -38.667875 
L 69.662371 -38.667875 
L 69.408607 -38.667875 
L 69.154844 -38.667875 
L 68.901081 -38.667875 
L 68.647318 -38.667875 
L 68.393554 -38.667875 
L 68.139791 -38.667875 
L 67.886028 -38.667875 
L 67.632265 -38.667875 
L 67.378501 -38.667875 
L 67.124738 -38.667875 
L 66.870975 -38.667875 
L 66.617212 -38.667875 
L 66.363448 -38.667875 
L 66.109685 -38.667875 
L 65.855922 -38.667875 
L 65.602159 -38.667875 
L 65.348395 -38.667875 
L 65.094632 -38.667875 
L 64.840869 -38.667875 
L 64.587106 -38.667875 
L 64.333342 -38.667875 
L 64.079579 -38.667875 
L 63.825816 -38.667875 
L 63.572053 -38.667875 
L 63.31829 -38.667875 
L 63.064526 -38.667875 
L 62.810763 -38.667875 
L 62.557 -38.667875 
L 62.303237 -38.667875 
L 62.049473 -38.667875 
L 61.79571 -38.667875 
L 61.541947 -38.667875 
L 61.288184 -38.667875 
L 61.03442 -38.667875 
L 60.780657 -38.667875 
L 60.526894 -38.667875 
L 60.273131 -38.667875 
L 60.019367 -38.667875 
L 59.765604 -38.667875 
L 59.511841 -38.667875 
L 59.258078 -38.667875 
L 59.004314 -38.667875 
L 58.750551 -38.667875 
L 58.496788 -38.667875 
L 58.243025 -38.667875 
L 57.989261 -38.667875 
z
" style="stroke: #bfbfbf; stroke-width: 0.8"/>
    </defs>
    <g clip-path="url(#pb0eb023566)">
     <use xlink:href="#m7c8c433176" x="0" y="363.387875" style="fill: #bfbfbf; stroke: #bfbfbf; stroke-width: 0.8"/>
    </g>
   </g>
   <g id="line2d_16">
    <path d="M 57.989261 22.32 
L 62.810763 36.348193 
L 67.632265 49.725625 
L 72.453766 62.482484 
L 77.529031 75.271958 
L 82.604296 87.437683 
L 87.679561 99.010078 
L 92.754826 110.018081 
L 97.830091 120.489217 
L 102.905356 130.44967 
L 107.980621 139.924346 
L 113.055886 148.936936 
L 118.13115 157.509977 
L 123.206415 165.664906 
L 128.535444 173.799887 
L 133.864472 181.518799 
L 139.1935 188.842921 
L 144.522528 195.792447 
L 149.851556 202.386534 
L 155.434348 208.933191 
L 161.017139 215.129505 
L 166.59993 220.994224 
L 172.182722 226.545094 
L 178.019276 232.030922 
L 183.855831 237.210212 
L 189.692386 242.100094 
L 195.782704 246.911503 
L 201.873021 251.442717 
L 208.217103 255.882363 
L 214.561184 260.053025 
L 221.159028 264.122681 
L 227.756872 267.936224 
L 234.60848 271.642631 
L 241.713851 275.230989 
L 249.072985 278.691966 
L 256.685882 282.017791 
L 264.29878 285.103304 
L 272.16544 288.057639 
L 280.539627 290.960879 
L 289.167578 293.711832 
L 298.049291 296.309732 
L 307.438531 298.819801 
L 317.081535 301.16706 
L 327.232065 303.408419 
L 337.890121 305.532661 
L 349.055704 307.531327 
L 360.982576 309.436854 
L 373.670738 311.232671 
L 387.12019 312.906409 
L 401.330932 314.449757 
L 416.81049 315.902392 
L 433.305101 317.224891 
L 451.322292 318.443888 
L 471.115825 319.555798 
L 492.939464 320.554857 
L 517.300735 321.443582 
L 544.960929 322.225095 
L 565.261989 322.677345 
L 565.261989 322.677345 
" clip-path="url(#pb0eb023566)" style="fill: none; stroke: #0173b2; stroke-width: 1.2; stroke-linecap: round"/>
   </g>
   <g id="patch_3">
    <path d="M 32.625625 339.84 
L 32.625625 7.2 
" style="fill: none; stroke: #ffffff; stroke-linejoin: miter; stroke-linecap: square"/>
   </g>
   <g id="patch_4">
    <path d="M 590.625625 339.84 
L 590.625625 7.2 
" style="fill: none; stroke: #ffffff; stroke-linejoin: miter; stroke-linecap: square"/>
   </g>
   <g id="patch_5">
    <path d="M 32.625625 339.84 
L 590.625625 339.84 
" style="fill: none; stroke: #ffffff; stroke-linejoin: miter; stroke-linecap: square"/>
   </g>
   <g id="patch_6">
    <path d="M 32.625625 7.2 
L 590.625625 7.2 
" style="fill: none; stroke: #ffffff; stroke-linejoin: miter; stroke-linecap: square"/>
   </g>
  </g>
 </g>
 <defs>
  <clipPath id="pb0eb023566">
   <rect x="32.625625" y="7.2" width="558" height="332.64"/>
  </clipPath>
 </defs>
</svg>