<?xml version="1.0" encoding="utf-8" standalone="no"?>
<!DOCTYPE svg PUBLIC "-//W3C//DTD SVG 1.1//EN"
  "http://www.w3.org/Graphics/SVG/1.1/DTD/svg11.dtd">
<svg xmlns:xlink="http://www.w3.org/1999/xlink" width="615.979375pt" height="364.089375pt" viewBox="0 0 615.979375 364.089375" xmlns="http://www.w3.org/2000/svg" version="1.1">
 <metadata>
  <rdf:RDF xmlns:dc="http://purl.org/dc/elements/1.1/" xmlns:cc="http://creativecommons.org/ns#" xmlns:rdf="http://www.w3.org/1999/02/22-rdf-syntax-ns#">
   <cc:Work>
    <dc:type rdf:resource="http://purl.org/dc/dcmitype/StillImage"/>
    <dc:date>2023-05-08T00:01:22.476805</dc:date>
    <dc:format>image/svg+xml</dc:format>
    <dc:creator>
     <cc:Agent>
      <dc:title>Matplotlib v3.7.1, https://matplotlib.org/</dc:title>
     </cc:Agent>
    </dc:creator>
   </cc:Work>
  </rdf:RDF>
 </metadata>
 <defs>
  <style type="text/css">*{stroke-linejoin: round; stroke-linecap: butt}</style>
 </defs>
 <g id="figure_1">
  <g id="patch_1">
   <path d="M 0 364.089375 
L 615.979375 364.089375 
L 615.979375 0 
L 0 0 
z
" style="fill: #ffffff"/>
  </g>
  <g id="axes_1">
   <g id="patch_2">
    <path d="M 50.779375 339.84 
L 608.779375 339.84 
L 608.779375 7.2 
L 50.779375 7.2 
z
" style="fill: #eeeeee"/>
   </g>
   <g id="PolyCollection_1">
    <defs>
     <path id="mdd052caee0" d="M 76.143011 -39.369375 
L 76.143011 -39.554087 
L 77.135717 -39.546087 
L 78.128423 -39.526225 
L 79.121129 -39.500177 
L 80.113835 -39.475897 
L 81.106541 -39.459493 
L 82.099247 -39.453246 
L 83.091953 -39.455286 
L 84.084659 -39.460852 
L 85.077365 -39.464475 
L 86.070071 -39.461731 
L 87.062777 -39.452129 
L 88.055482 -39.437492 
L 89.048188 -39.420244 
L 90.040894 -39.403841 
L 91.0336 -39.390561 
L 92.026306 -39.382334 
L 93.019012 -39.378098 
L 94.011718 -39.378098 
L 95.004424 -39.382334 
L 95.99713 -39.390561 
L 96.989836 -39.403841 
L 97.982542 -39.420244 
L 98.975248 -39.438635 
L 99.967954 -39.45716 
L 100.960659 -39.473198 
L 101.953365 -39.487105 
L 102.946071 -39.502925 
L 103.938777 -39.527289 
L 104.931483 -39.563976 
L 105.924189 -39.615284 
L 106.916895 -39.676122 
L 107.909601 -39.735938 
L 108.902307 -39.784007 
L 109.895013 -39.813527 
L 110.887719 -39.823013 
L 111.880425 -39.816045 
L 112.873131 -39.80169 
L 113.865836 -39.786592 
L 114.858542 -39.77429 
L 115.851248 -39.767058 
L 116.843954 -39.762998 
L 117.83666 -39.764296 
L 118.829366 -39.770573 
L 119.822072 -39.783781 
L 120.814778 -39.806993 
L 121.807484 -39.835278 
L 122.80019 -39.865066 
L 123.792896 -39.890899 
L 124.785602 -39.908408 
L 125.778308 -39.91502 
L 126.771013 -39.917698 
L 127.763719 -39.921258 
L 128.756425 -39.933003 
L 129.749131 -39.954835 
L 130.741837 -39.986076 
L 131.734543 -40.021042 
L 132.727249 -40.05122 
L 133.719955 -40.076858 
L 134.712661 -40.098776 
L 135.705367 -40.122777 
L 136.698073 -40.156474 
L 137.690779 -40.201659 
L 138.683485 -40.260444 
L 139.676191 -40.327999 
L 140.668896 -40.390967 
L 141.661602 -40.444017 
L 142.654308 -40.480346 
L 143.647014 -40.494525 
L 144.63972 -40.498235 
L 145.632426 -40.506899 
L 146.625132 -40.540946 
L 147.617838 -40.619264 
L 148.610544 -40.755299 
L 149.60325 -40.94588 
L 150.595956 -41.183989 
L 151.588662 -41.437138 
L 152.581368 -41.684093 
L 153.574073 -41.891411 
L 154.566779 -42.045046 
L 155.559485 -42.142478 
L 156.552191 -42.191418 
L 157.544897 -42.215032 
L 158.537603 -42.225382 
L 159.530309 -42.255574 
L 160.523015 -42.317994 
L 161.515721 -42.435962 
L 162.508427 -42.62304 
L 163.501133 -42.899867 
L 164.493839 -43.261491 
L 165.486545 -43.687383 
L 166.47925 -44.141885 
L 167.471956 -44.586761 
L 168.464662 -44.971563 
L 169.457368 -45.287811 
L 170.450074 -45.517418 
L 171.44278 -45.684832 
L 172.435486 -45.783505 
L 173.428192 -45.825207 
L 174.420898 -45.806004 
L 175.413604 -45.726749 
L 176.40631 -45.601549 
L 177.399016 -45.46132 
L 178.391722 -45.361373 
L 179.384427 -45.33475 
L 180.377133 -45.42434 
L 181.369839 -45.630047 
L 182.362545 -45.961236 
L 183.355251 -46.398211 
L 184.347957 -46.92618 
L 185.340663 -47.534841 
L 186.333369 -48.209656 
L 187.326075 -48.929657 
L 188.318781 -49.664088 
L 189.311487 -50.360149 
L 190.304193 -50.990055 
L 191.296899 -51.531204 
L 192.289604 -52.012338 
L 193.28231 -52.468789 
L 194.275016 -52.963477 
L 195.267722 -53.532413 
L 196.260428 -54.171165 
L 197.253134 -54.855778 
L 198.24584 -55.526328 
L 199.238546 -56.160207 
L 200.231252 -56.754759 
L 201.223958 -57.36844 
L 202.216664 -58.029014 
L 203.20937 -58.815356 
L 204.202076 -59.756019 
L 205.194782 -60.862306 
L 206.187487 -62.11305 
L 207.180193 -63.492388 
L 208.172899 -64.977744 
L 209.165605 -66.647228 
L 210.158311 -68.687836 
L 211.151017 -71.134347 
L 212.143723 -74.32426 
L 213.136429 -78.603619 
L 214.129135 -84.161309 
L 215.121841 -90.942634 
L 216.114547 -98.464866 
L 217.107253 -105.8275 
L 218.099959 -111.933394 
L 219.092664 -115.809382 
L 220.08537 -116.986169 
L 221.078076 -115.69925 
L 222.070782 -112.791609 
L 223.063488 -109.297512 
L 224.056194 -106.196948 
L 225.0489 -104.009373 
L 226.041606 -102.86176 
L 227.034312 -102.56266 
L 228.027018 -102.77833 
L 229.019724 -103.187508 
L 230.01243 -103.618934 
L 231.005136 -104.096915 
L 231.997841 -104.499331 
L 232.990547 -104.819242 
L 233.983253 -105.133453 
L 234.975959 -105.472082 
L 235.968665 -105.873375 
L 236.961371 -106.452222 
L 237.954077 -107.406664 
L 238.946783 -108.855158 
L 239.939489 -110.86866 
L 240.932195 -113.367273 
L 241.924901 -116.061559 
L 242.917607 -118.745672 
L 243.910313 -121.345119 
L 244.903018 -123.920001 
L 245.895724 -126.878654 
L 246.88843 -130.805194 
L 247.881136 -136.20423 
L 248.873842 -143.215577 
L 249.866548 -151.406925 
L 250.859254 -159.887612 
L 251.85196 -167.371572 
L 252.844666 -172.720243 
L 253.837372 -175.194186 
L 254.830078 -174.904326 
L 255.822784 -172.746427 
L 256.81549 -169.813329 
L 257.808195 -167.567842 
L 258.800901 -167.230111 
L 259.793607 -169.472562 
L 260.786313 -174.204334 
L 261.779019 -180.719823 
L 262.771725 -187.564393 
L 263.764431 -193.113743 
L 264.757137 -196.128147 
L 265.749843 -195.879762 
L 266.742549 -192.663475 
L 267.735255 -187.552609 
L 268.727961 -181.930546 
L 269.720667 -177.038717 
L 270.713373 -173.575579 
L 271.706078 -171.691326 
L 272.698784 -171.129971 
L 273.69149 -171.471501 
L 274.684196 -172.210895 
L 275.676902 -172.998033 
L 276.669608 -173.746047 
L 277.662314 -174.189685 
L 278.65502 -174.376019 
L 279.647726 -174.450916 
L 280.640432 -174.674603 
L 281.633138 -175.216984 
L 282.625844 -176.25617 
L 283.61855 -177.845673 
L 284.611255 -179.996311 
L 285.603961 -182.660294 
L 286.596667 -185.763227 
L 287.589373 -189.275476 
L 288.582079 -193.123989 
L 289.574785 -197.235159 
L 290.567491 -201.46235 
L 291.560197 -205.69767 
L 292.552903 -209.673536 
L 293.545609 -213.233161 
L 294.538315 -216.311274 
L 295.531021 -218.934904 
L 296.523727 -221.258086 
L 297.516432 -223.581198 
L 298.509138 -226.099241 
L 299.501844 -228.853833 
L 300.49455 -231.707016 
L 301.487256 -234.267827 
L 302.479962 -236.111771 
L 303.472668 -236.853119 
L 304.465374 -236.37892 
L 305.45808 -234.848024 
L 306.450786 -232.696392 
L 307.443492 -230.394587 
L 308.436198 -228.441681 
L 309.428904 -227.167329 
L 310.421609 -226.805841 
L 311.414315 -227.474262 
L 312.407021 -229.425116 
L 313.399727 -232.877469 
L 314.392433 -238.050239 
L 315.385139 -245.267637 
L 316.377845 -254.628562 
L 317.370551 -266.053647 
L 318.363257 -279.121724 
L 319.355963 -293.215863 
L 320.348669 -307.283227 
L 321.341375 -320.126018 
L 322.334081 -330.48871 
L 323.326786 -337.589477 
L 324.319492 -341.166219 
L 325.312198 -341.769375 
L 326.304904 -340.354856 
L 327.29761 -338.128714 
L 328.290316 -335.914846 
L 329.283022 -333.999257 
L 330.275728 -332.100869 
L 331.268434 -329.594935 
L 332.26114 -325.820889 
L 333.253846 -320.550341 
L 334.246552 -314.009312 
L 335.239258 -306.70547 
L 336.231964 -299.319155 
L 337.224669 -292.267092 
L 338.217375 -285.677018 
L 339.210081 -279.263721 
L 340.202787 -272.760893 
L 341.195493 -266.156296 
L 342.188199 -259.8049 
L 343.180905 -254.630904 
L 344.173611 -251.697182 
L 345.166317 -251.756319 
L 346.159023 -254.795305 
L 347.151729 -259.823616 
L 348.144435 -265.092845 
L 349.137141 -268.628851 
L 350.129846 -268.895772 
L 351.122552 -265.374446 
L 352.115258 -258.718273 
L 353.107964 -250.309922 
L 354.10067 -241.883088 
L 355.093376 -234.888196 
L 356.086082 -230.124314 
L 357.078788 -227.731274 
L 358.071494 -227.229199 
L 359.0642 -227.920594 
L 360.056906 -229.078151 
L 361.049612 -230.053256 
L 362.042318 -230.549892 
L 363.035023 -230.327752 
L 364.027729 -229.609172 
L 365.020435 -228.683289 
L 366.013141 -228.052246 
L 367.005847 -227.989829 
L 367.998553 -228.553802 
L 368.991259 -229.481819 
L 369.983965 -230.283651 
L 370.976671 -230.345347 
L 371.969377 -229.12953 
L 372.962083 -226.321654 
L 373.954789 -221.971479 
L 374.947495 -216.36665 
L 375.9402 -210.102649 
L 376.932906 -203.825502 
L 377.925612 -198.283219 
L 378.918318 -193.937221 
L 379.911024 -191.008298 
L 380.90373 -189.311651 
L 381.896436 -188.295294 
L 382.889142 -187.234876 
L 383.881848 -185.363027 
L 384.874554 -182.195441 
L 385.86726 -177.448236 
L 386.859966 -171.225361 
L 387.852672 -163.850612 
L 388.845377 -155.717948 
L 389.838083 -147.241261 
L 390.830789 -138.814435 
L 391.823495 -130.754741 
L 392.816201 -123.393496 
L 393.808907 -116.85948 
L 394.801613 -111.28189 
L 395.794319 -106.626833 
L 396.787025 -102.804238 
L 397.779731 -99.618126 
L 398.772437 -96.897103 
L 399.765143 -94.496251 
L 400.757849 -92.311058 
L 401.750555 -90.27246 
L 402.74326 -88.366362 
L 403.735966 -86.526224 
L 404.728672 -84.713061 
L 405.721378 -82.881847 
L 406.714084 -80.968409 
L 407.70679 -78.923917 
L 408.699496 -76.830089 
L 409.692202 -74.800227 
L 410.684908 -72.945309 
L 411.677614 -71.380399 
L 412.67032 -70.084786 
L 413.663026 -69.042803 
L 414.655732 -68.138735 
L 415.648437 -67.328996 
L 416.641143 -66.573429 
L 417.633849 -65.961849 
L 418.626555 -65.579941 
L 419.619261 -65.508842 
L 420.611967 -65.81491 
L 421.604673 -66.501114 
L 422.597379 -67.489378 
L 423.590085 -68.709431 
L 424.582791 -70.013903 
L 425.575497 -71.277854 
L 426.568203 -72.388433 
L 427.560909 -73.22613 
L 428.553614 -73.682826 
L 429.54632 -73.663684 
L 430.539026 -73.113478 
L 431.531732 -71.981148 
L 432.524438 -70.282778 
L 433.517144 -68.103768 
L 434.50985 -65.586995 
L 435.502556 -62.908784 
L 436.495262 -60.2769 
L 437.487968 -57.825578 
L 438.480674 -55.675352 
L 439.47338 -53.871959 
L 440.466086 -52.404762 
L 441.458791 -51.244262 
L 442.451497 -50.368775 
L 443.444203 -49.712717 
L 444.436909 -49.243982 
L 445.429615 -48.905733 
L 446.422321 -48.633989 
L 447.415027 -48.373368 
L 448.407733 -48.071684 
L 449.400439 -47.715307 
L 450.393145 -47.307701 
L 451.385851 -46.880227 
L 452.378557 -46.480693 
L 453.371263 -46.117418 
L 454.363968 -45.813771 
L 455.356674 -45.538703 
L 456.34938 -45.279009 
L 457.342086 -45.010161 
L 458.334792 -44.725385 
L 459.327498 -44.435748 
L 460.320204 -44.162013 
L 461.31291 -43.919708 
L 462.305616 -43.728035 
L 463.298322 -43.597183 
L 464.291028 -43.525973 
L 465.283734 -43.502435 
L 466.27644 -43.50143 
L 467.269146 -43.494642 
L 468.261851 -43.45511 
L 469.254557 -43.365606 
L 470.247263 -43.224837 
L 471.239969 -43.043273 
L 472.232675 -42.839863 
L 473.225381 -42.635073 
L 474.218087 -42.432684 
L 475.210793 -42.241882 
L 476.203499 -42.064906 
L 477.196205 -41.908857 
L 478.188911 -41.772429 
L 479.181617 -41.656607 
L 480.174323 -41.560695 
L 481.167028 -41.482221 
L 482.159734 -41.412178 
L 483.15244 -41.347691 
L 484.145146 -41.282396 
L 485.137852 -41.218794 
L 486.130558 -41.156044 
L 487.123264 -41.098342 
L 488.11597 -41.057726 
L 489.108676 -41.035644 
L 490.101382 -41.028252 
L 491.094088 -41.02947 
L 492.086794 -41.024538 
L 493.0795 -41.002986 
L 494.072205 -40.958707 
L 495.064911 -40.893498 
L 496.057617 -40.813512 
L 497.050323 -40.740615 
L 498.043029 -40.692075 
L 499.035735 -40.682837 
L 500.028441 -40.718719 
L 501.021147 -40.790353 
L 502.013853 -40.876092 
L 503.006559 -40.948971 
L 503.999265 -40.978034 
L 504.991971 -40.951051 
L 505.984677 -40.872829 
L 506.977382 -40.756755 
L 507.970088 -40.624169 
L 508.962794 -40.500326 
L 509.9555 -40.403114 
L 510.948206 -40.342778 
L 511.940912 -40.319726 
L 512.933618 -40.323946 
L 513.926324 -40.341931 
L 514.91903 -40.351264 
L 515.911736 -40.337717 
L 516.904442 -40.29474 
L 517.897148 -40.229309 
L 518.889854 -40.154529 
L 519.882559 -40.084335 
L 520.875265 -40.027067 
L 521.867971 -39.978173 
L 522.860677 -39.930026 
L 523.853383 -39.877671 
L 524.846089 -39.816585 
L 525.838795 -39.755657 
L 526.831501 -39.70492 
L 527.824207 -39.673195 
L 528.816913 -39.664328 
L 529.809619 -39.679075 
L 530.802325 -39.710243 
L 531.795031 -39.749849 
L 532.787737 -39.789372 
L 533.780442 -39.819126 
L 534.773148 -39.833763 
L 535.765854 -39.82743 
L 536.75856 -39.799965 
L 537.751266 -39.755967 
L 538.743972 -39.705309 
L 539.736678 -39.654541 
L 540.729384 -39.613796 
L 541.72209 -39.587316 
L 542.714796 -39.57841 
L 543.707502 -39.584176 
L 544.700208 -39.602102 
L 545.692914 -39.626096 
L 546.685619 -39.651352 
L 547.678325 -39.674347 
L 548.671031 -39.689149 
L 549.663737 -39.692304 
L 550.656443 -39.682933 
L 551.649149 -39.659518 
L 552.641855 -39.623477 
L 553.634561 -39.578399 
L 554.627267 -39.530383 
L 555.619973 -39.485815 
L 556.612679 -39.449774 
L 557.605385 -39.425849 
L 558.598091 -39.414192 
L 559.590796 -39.415798 
L 560.583502 -39.425733 
L 561.576208 -39.439778 
L 562.568914 -39.452129 
L 563.56162 -39.460588 
L 564.554326 -39.460588 
L 565.547032 -39.452129 
L 566.539738 -39.437492 
L 567.532444 -39.420244 
L 568.52515 -39.403841 
L 569.517856 -39.390561 
L 570.510562 -39.381191 
L 571.503268 -39.375353 
L 572.495973 -39.372119 
L 573.488679 -39.370518 
L 574.481385 -39.371661 
L 575.474091 -39.37715 
L 576.466797 -39.386821 
L 577.459503 -39.404963 
L 578.452209 -39.435379 
L 579.444915 -39.480679 
L 580.437621 -39.540045 
L 581.430327 -39.607348 
L 582.423033 -39.671118 
L 583.415739 -39.71731 
L 583.415739 -39.369375 
L 583.415739 -39.369375 
L 582.423033 -39.369375 
L 581.430327 -39.369375 
L 580.437621 -39.369375 
L 579.444915 -39.369375 
L 578.452209 -39.369375 
L 577.459503 -39.369375 
L 576.466797 -39.369375 
L 575.474091 -39.369375 
L 574.481385 -39.369375 
L 573.488679 -39.369375 
L 572.495973 -39.369375 
L 571.503268 -39.369375 
L 570.510562 -39.369375 
L 569.517856 -39.369375 
L 568.52515 -39.369375 
L 567.532444 -39.369375 
L 566.539738 -39.369375 
L 565.547032 -39.369375 
L 564.554326 -39.369375 
L 563.56162 -39.369375 
L 562.568914 -39.369375 
L 561.576208 -39.369375 
L 560.583502 -39.369375 
L 559.590796 -39.369375 
L 558.598091 -39.369375 
L 557.605385 -39.369375 
L 556.612679 -39.369375 
L 555.619973 -39.369375 
L 554.627267 -39.369375 
L 553.634561 -39.369375 
L 552.641855 -39.369375 
L 551.649149 -39.369375 
L 550.656443 -39.369375 
L 549.663737 -39.369375 
L 548.671031 -39.369375 
L 547.678325 -39.369375 
L 546.685619 -39.369375 
L 545.692914 -39.369375 
L 544.700208 -39.369375 
L 543.707502 -39.369375 
L 542.714796 -39.369375 
L 541.72209 -39.369375 
L 540.729384 -39.369375 
L 539.736678 -39.369375 
L 538.743972 -39.369375 
L 537.751266 -39.369375 
L 536.75856 -39.369375 
L 535.765854 -39.369375 
L 534.773148 -39.369375 
L 533.780442 -39.369375 
L 532.787737 -39.369375 
L 531.795031 -39.369375 
L 530.802325 -39.369375 
L 529.809619 -39.369375 
L 528.816913 -39.369375 
L 527.824207 -39.369375 
L 526.831501 -39.369375 
L 525.838795 -39.369375 
L 524.846089 -39.369375 
L 523.853383 -39.369375 
L 522.860677 -39.369375 
L 521.867971 -39.369375 
L 520.875265 -39.369375 
L 519.882559 -39.369375 
L 518.889854 -39.369375 
L 517.897148 -39.369375 
L 516.904442 -39.369375 
L 515.911736 -39.369375 
L 514.91903 -39.369375 
L 513.926324 -39.369375 
L 512.933618 -39.369375 
L 511.940912 -39.369375 
L 510.948206 -39.369375 
L 509.9555 -39.369375 
L 508.962794 -39.369375 
L 507.970088 -39.369375 
L 506.977382 -39.369375 
L 505.984677 -39.369375 
L 504.991971 -39.369375 
L 503.999265 -39.369375 
L 503.006559 -39.369375 
L 502.013853 -39.369375 
L 501.021147 -39.369375 
L 500.028441 -39.369375 
L 499.035735 -39.369375 
L 498.043029 -39.369375 
L 497.050323 -39.369375 
L 496.057617 -39.369375 
L 495.064911 -39.369375 
L 494.072205 -39.369375 
L 493.0795 -39.369375 
L 492.086794 -39.369375 
L 491.094088 -39.369375 
L 490.101382 -39.369375 
L 489.108676 -39.369375 
L 488.11597 -39.369375 
L 487.123264 -39.369375 
L 486.130558 -39.369375 
L 485.137852 -39.369375 
L 484.145146 -39.369375 
L 483.15244 -39.369375 
L 482.159734 -39.369375 
L 481.167028 -39.369375 
L 480.174323 -39.369375 
L 479.181617 -39.369375 
L 478.188911 -39.369375 
L 477.196205 -39.369375 
L 476.203499 -39.369375 
L 475.210793 -39.369375 
L 474.218087 -39.369375 
L 473.225381 -39.369375 
L 472.232675 -39.369375 
L 471.239969 -39.369375 
L 470.247263 -39.369375 
L 469.254557 -39.369375 
L 468.261851 -39.369375 
L 467.269146 -39.369375 
L 466.27644 -39.369375 
L 465.283734 -39.369375 
L 464.291028 -39.369375 
L 463.298322 -39.369375 
L 462.305616 -39.369375 
L 461.31291 -39.369375 
L 460.320204 -39.369375 
L 459.327498 -39.369375 
L 458.334792 -39.369375 
L 457.342086 -39.369375 
L 456.34938 -39.369375 
L 455.356674 -39.369375 
L 454.363968 -39.369375 
L 453.371263 -39.369375 
L 452.378557 -39.369375 
L 451.385851 -39.369375 
L 450.393145 -39.369375 
L 449.400439 -39.369375 
L 448.407733 -39.369375 
L 447.415027 -39.369375 
L 446.422321 -39.369375 
L 445.429615 -39.369375 
L 444.436909 -39.369375 
L 443.444203 -39.369375 
L 442.451497 -39.369375 
L 441.458791 -39.369375 
L 440.466086 -39.369375 
L 439.47338 -39.369375 
L 438.480674 -39.369375 
L 437.487968 -39.369375 
L 436.495262 -39.369375 
L 435.502556 -39.369375 
L 434.50985 -39.369375 
L 433.517144 -39.369375 
L 432.524438 -39.369375 
L 431.531732 -39.369375 
L 430.539026 -39.369375 
L 429.54632 -39.369375 
L 428.553614 -39.369375 
L 427.560909 -39.369375 
L 426.568203 -39.369375 
L 425.575497 -39.369375 
L 424.582791 -39.369375 
L 423.590085 -39.369375 
L 422.597379 -39.369375 
L 421.604673 -39.369375 
L 420.611967 -39.369375 
L 419.619261 -39.369375 
L 418.626555 -39.369375 
L 417.633849 -39.369375 
L 416.641143 -39.369375 
L 415.648437 -39.369375 
L 414.655732 -39.369375 
L 413.663026 -39.369375 
L 412.67032 -39.369375 
L 411.677614 -39.369375 
L 410.684908 -39.369375 
L 409.692202 -39.369375 
L 408.699496 -39.369375 
L 407.70679 -39.369375 
L 406.714084 -39.369375 
L 405.721378 -39.369375 
L 404.728672 -39.369375 
L 403.735966 -39.369375 
L 402.74326 -39.369375 
L 401.750555 -39.369375 
L 400.757849 -39.369375 
L 399.765143 -39.369375 
L 398.772437 -39.369375 
L 397.779731 -39.369375 
L 396.787025 -39.369375 
L 395.794319 -39.369375 
L 394.801613 -39.369375 
L 393.808907 -39.369375 
L 392.816201 -39.369375 
L 391.823495 -39.369375 
L 390.830789 -39.369375 
L 389.838083 -39.369375 
L 388.845377 -39.369375 
L 387.852672 -39.369375 
L 386.859966 -39.369375 
L 385.86726 -39.369375 
L 384.874554 -39.369375 
L 383.881848 -39.369375 
L 382.889142 -39.369375 
L 381.896436 -39.369375 
L 380.90373 -39.369375 
L 379.911024 -39.369375 
L 378.918318 -39.369375 
L 377.925612 -39.369375 
L 376.932906 -39.369375 
L 375.9402 -39.369375 
L 374.947495 -39.369375 
L 373.954789 -39.369375 
L 372.962083 -39.369375 
L 371.969377 -39.369375 
L 370.976671 -39.369375 
L 369.983965 -39.369375 
L 368.991259 -39.369375 
L 367.998553 -39.369375 
L 367.005847 -39.369375 
L 366.013141 -39.369375 
L 365.020435 -39.369375 
L 364.027729 -39.369375 
L 363.035023 -39.369375 
L 362.042318 -39.369375 
L 361.049612 -39.369375 
L 360.056906 -39.369375 
L 359.0642 -39.369375 
L 358.071494 -39.369375 
L 357.078788 -39.369375 
L 356.086082 -39.369375 
L 355.093376 -39.369375 
L 354.10067 -39.369375 
L 353.107964 -39.369375 
L 352.115258 -39.369375 
L 351.122552 -39.369375 
L 350.129846 -39.369375 
L 349.137141 -39.369375 
L 348.144435 -39.369375 
L 347.151729 -39.369375 
L 346.159023 -39.369375 
L 345.166317 -39.369375 
L 344.173611 -39.369375 
L 343.180905 -39.369375 
L 342.188199 -39.369375 
L 341.195493 -39.369375 
L 340.202787 -39.369375 
L 339.210081 -39.369375 
L 338.217375 -39.369375 
L 337.224669 -39.369375 
L 336.231964 -39.369375 
L 335.239258 -39.369375 
L 334.246552 -39.369375 
L 333.253846 -39.369375 
L 332.26114 -39.369375 
L 331.268434 -39.369375 
L 330.275728 -39.369375 
L 329.283022 -39.369375 
L 328.290316 -39.369375 
L 327.29761 -39.369375 
L 326.304904 -39.369375 
L 325.312198 -39.369375 
L 324.319492 -39.369375 
L 323.326786 -39.369375 
L 322.334081 -39.369375 
L 321.341375 -39.369375 
L 320.348669 -39.369375 
L 319.355963 -39.369375 
L 318.363257 -39.369375 
L 317.370551 -39.369375 
L 316.377845 -39.369375 
L 315.385139 -39.369375 
L 314.392433 -39.369375 
L 313.399727 -39.369375 
L 312.407021 -39.369375 
L 311.414315 -39.369375 
L 310.421609 -39.369375 
L 309.428904 -39.369375 
L 308.436198 -39.369375 
L 307.443492 -39.369375 
L 306.450786 -39.369375 
L 305.45808 -39.369375 
L 304.465374 -39.369375 
L 303.472668 -39.369375 
L 302.479962 -39.369375 
L 301.487256 -39.369375 
L 300.49455 -39.369375 
L 299.501844 -39.369375 
L 298.509138 -39.369375 
L 297.516432 -39.369375 
L 296.523727 -39.369375 
L 295.531021 -39.369375 
L 294.538315 -39.369375 
L 293.545609 -39.369375 
L 292.552903 -39.369375 
L 291.560197 -39.369375 
L 290.567491 -39.369375 
L 289.574785 -39.369375 
L 288.582079 -39.369375 
L 287.589373 -39.369375 
L 286.596667 -39.369375 
L 285.603961 -39.369375 
L 284.611255 -39.369375 
L 283.61855 -39.369375 
L 282.625844 -39.369375 
L 281.633138 -39.369375 
L 280.640432 -39.369375 
L 279.647726 -39.369375 
L 278.65502 -39.369375 
L 277.662314 -39.369375 
L 276.669608 -39.369375 
L 275.676902 -39.369375 
L 274.684196 -39.369375 
L 273.69149 -39.369375 
L 272.698784 -39.369375 
L 271.706078 -39.369375 
L 270.713373 -39.369375 
L 269.720667 -39.369375 
L 268.727961 -39.369375 
L 267.735255 -39.369375 
L 266.742549 -39.369375 
L 265.749843 -39.369375 
L 264.757137 -39.369375 
L 263.764431 -39.369375 
L 262.771725 -39.369375 
L 261.779019 -39.369375 
L 260.786313 -39.369375 
L 259.793607 -39.369375 
L 258.800901 -39.369375 
L 257.808195 -39.369375 
L 256.81549 -39.369375 
L 255.822784 -39.369375 
L 254.830078 -39.369375 
L 253.837372 -39.369375 
L 252.844666 -39.369375 
L 251.85196 -39.369375 
L 250.859254 -39.369375 
L 249.866548 -39.369375 
L 248.873842 -39.369375 
L 247.881136 -39.369375 
L 246.88843 -39.369375 
L 245.895724 -39.369375 
L 244.903018 -39.369375 
L 243.910313 -39.369375 
L 242.917607 -39.369375 
L 241.924901 -39.369375 
L 240.932195 -39.369375 
L 239.939489 -39.369375 
L 238.946783 -39.369375 
L 237.954077 -39.369375 
L 236.961371 -39.369375 
L 235.968665 -39.369375 
L 234.975959 -39.369375 
L 233.983253 -39.369375 
L 232.990547 -39.369375 
L 231.997841 -39.369375 
L 231.005136 -39.369375 
L 230.01243 -39.369375 
L 229.019724 -39.369375 
L 228.027018 -39.369375 
L 227.034312 -39.369375 
L 226.041606 -39.369375 
L 225.0489 -39.369375 
L 224.056194 -39.369375 
L 223.063488 -39.369375 
L 222.070782 -39.369375 
L 221.078076 -39.369375 
L 220.08537 -39.369375 
L 219.092664 -39.369375 
L 218.099959 -39.369375 
L 217.107253 -39.369375 
L 216.114547 -39.369375 
L 215.121841 -39.369375 
L 214.129135 -39.369375 
L 213.136429 -39.369375 
L 212.143723 -39.369375 
L 211.151017 -39.369375 
L 210.158311 -39.369375 
L 209.165605 -39.369375 
L 208.172899 -39.369375 
L 207.180193 -39.369375 
L 206.187487 -39.369375 
L 205.194782 -39.369375 
L 204.202076 -39.369375 
L 203.20937 -39.369375 
L 202.216664 -39.369375 
L 201.223958 -39.369375 
L 200.231252 -39.369375 
L 199.238546 -39.369375 
L 198.24584 -39.369375 
L 197.253134 -39.369375 
L 196.260428 -39.369375 
L 195.267722 -39.369375 
L 194.275016 -39.369375 
L 193.28231 -39.369375 
L 192.289604 -39.369375 
L 191.296899 -39.369375 
L 190.304193 -39.369375 
L 189.311487 -39.369375 
L 188.318781 -39.369375 
L 187.326075 -39.369375 
L 186.333369 -39.369375 
L 185.340663 -39.369375 
L 184.347957 -39.369375 
L 183.355251 -39.369375 
L 182.362545 -39.369375 
L 181.369839 -39.369375 
L 180.377133 -39.369375 
L 179.384427 -39.369375 
L 178.391722 -39.369375 
L 177.399016 -39.369375 
L 176.40631 -39.369375 
L 175.413604 -39.369375 
L 174.420898 -39.369375 
L 173.428192 -39.369375 
L 172.435486 -39.369375 
L 171.44278 -39.369375 
L 170.450074 -39.369375 
L 169.457368 -39.369375 
L 168.464662 -39.369375 
L 167.471956 -39.369375 
L 166.47925 -39.369375 
L 165.486545 -39.369375 
L 164.493839 -39.369375 
L 163.501133 -39.369375 
L 162.508427 -39.369375 
L 161.515721 -39.369375 
L 160.523015 -39.369375 
L 159.530309 -39.369375 
L 158.537603 -39.369375 
L 157.544897 -39.369375 
L 156.552191 -39.369375 
L 155.559485 -39.369375 
L 154.566779 -39.369375 
L 153.574073 -39.369375 
L 152.581368 -39.369375 
L 151.588662 -39.369375 
L 150.595956 -39.369375 
L 149.60325 -39.369375 
L 148.610544 -39.369375 
L 147.617838 -39.369375 
L 146.625132 -39.369375 
L 145.632426 -39.369375 
L 144.63972 -39.369375 
L 143.647014 -39.369375 
L 142.654308 -39.369375 
L 141.661602 -39.369375 
L 140.668896 -39.369375 
L 139.676191 -39.369375 
L 138.683485 -39.369375 
L 137.690779 -39.369375 
L 136.698073 -39.369375 
L 135.705367 -39.369375 
L 134.712661 -39.369375 
L 133.719955 -39.369375 
L 132.727249 -39.369375 
L 131.734543 -39.369375 
L 130.741837 -39.369375 
L 129.749131 -39.369375 
L 128.756425 -39.369375 
L 127.763719 -39.369375 
L 126.771013 -39.369375 
L 125.778308 -39.369375 
L 124.785602 -39.369375 
L 123.792896 -39.369375 
L 122.80019 -39.369375 
L 121.807484 -39.369375 
L 120.814778 -39.369375 
L 119.822072 -39.369375 
L 118.829366 -39.369375 
L 117.83666 -39.369375 
L 116.843954 -39.369375 
L 115.851248 -39.369375 
L 114.858542 -39.369375 
L 113.865836 -39.369375 
L 112.873131 -39.369375 
L 111.880425 -39.369375 
L 110.887719 -39.369375 
L 109.895013 -39.369375 
L 108.902307 -39.369375 
L 107.909601 -39.369375 
L 106.916895 -39.369375 
L 105.924189 -39.369375 
L 104.931483 -39.369375 
L 103.938777 -39.369375 
L 102.946071 -39.369375 
L 101.953365 -39.369375 
L 100.960659 -39.369375 
L 99.967954 -39.369375 
L 98.975248 -39.369375 
L 97.982542 -39.369375 
L 96.989836 -39.369375 
L 95.99713 -39.369375 
L 95.004424 -39.369375 
L 94.011718 -39.369375 
L 93.019012 -39.369375 
L 92.026306 -39.369375 
L 91.0336 -39.369375 
L 90.040894 -39.369375 
L 89.048188 -39.369375 
L 88.055482 -39.369375 
L 87.062777 -39.369375 
L 86.070071 -39.369375 
L 85.077365 -39.369375 
L 84.084659 -39.369375 
L 83.091953 -39.369375 
L 82.099247 -39.369375 
L 81.106541 -39.369375 
L 80.113835 -39.369375 
L 79.121129 -39.369375 
L 78.128423 -39.369375 
L 77.135717 -39.369375 
L 76.143011 -39.369375 
z
" style="stroke: #348abd; stroke-opacity: 0; stroke-width: 0.5"/>
    </defs>
    <g clip-path="url(#p53f44b7acf)">
     <use xlink:href="#mdd052caee0" x="0" y="364.089375" style="fill: #348abd; fill-opacity: 0; stroke: #348abd; stroke-opacity: 0; stroke-width: 0.5"/>
    </g>
   </g>
   <g id="matplotlib.axis_1">
    <g id="xtick_1">
     <g id="line2d_1">
      <path d="M 106.721297 339.84 
L 106.721297 7.2 
" clip-path="url(#p53f44b7acf)" style="fill: none; stroke-dasharray: 1.85,0.8; stroke-dashoffset: 0; stroke: #b2b2b2; stroke-width: 0.5"/>
     </g>
     <g id="line2d_2">
      <defs>
       <path id="m413a9c75f1" d="M 0 0 
L 0 -3.5 
" style="stroke: #000000; stroke-width: 0.8"/>
      </defs>
      <g>
       <use xlink:href="#m413a9c75f1" x="106.721297" y="339.84" style="stroke: #000000; stroke-width: 0.8"/>
      </g>
     </g>
     <g id="text_1">
      <!-- −400 -->
      <g transform="translate(87.494266 353.977813) scale(0.14 -0.14)">
       <defs>
        <path id="DejaVuSans-2212" d="M 678 2272 
L 4684 2272 
L 4684 1741 
L 678 1741 
L 678 2272 
z
" transform="scale(0.015625)"/>
        <path id="DejaVuSans-34" d="M 2419 4116 
L 825 1625 
L 2419 1625 
L 2419 4116 
z
M 2253 4666 
L 3047 4666 
L 3047 1625 
L 3713 1625 
L 3713 1100 
L 3047 1100 
L 3047 0 
L 2419 0 
L 2419 1100 
L 313 1100 
L 313 1709 
L 2253 4666 
z
" transform="scale(0.015625)"/>
        <path id="DejaVuSans-30" d="M 2034 4250 
Q 1547 4250 1301 3770 
Q 1056 3291 1056 2328 
Q 1056 1369 1301 889 
Q 1547 409 2034 409 
Q 2525 409 2770 889 
Q 3016 1369 3016 2328 
Q 3016 3291 2770 3770 
Q 2525 4250 2034 4250 
z
M 2034 4750 
Q 2819 4750 3233 4129 
Q 3647 3509 3647 2328 
Q 3647 1150 3233 529 
Q 2819 -91 2034 -91 
Q 1250 -91 836 529 
Q 422 1150 422 2328 
Q 422 3509 836 4129 
Q 1250 4750 2034 4750 
z
" transform="scale(0.015625)"/>
       </defs>
       <use xlink:href="#DejaVuSans-2212"/>
       <use xlink:href="#DejaVuSans-34" x="83.789062"/>
       <use xlink:href="#DejaVuSans-30" x="147.412109"/>
       <use xlink:href="#DejaVuSans-30" x="211.035156"/>
      </g>
     </g>
    </g>
    <g id="xtick_2">
     <g id="line2d_3">
      <path d="M 195.388956 339.84 
L 195.388956 7.2 
" clip-path="url(#p53f44b7acf)" style="fill: none; stroke-dasharray: 1.85,0.8; stroke-dashoffset: 0; stroke: #b2b2b2; stroke-width: 0.5"/>
     </g>
     <g id="line2d_4">
      <g>
       <use xlink:href="#m413a9c75f1" x="195.388956" y="339.84" style="stroke: #000000; stroke-width: 0.8"/>
      </g>
     </g>
     <g id="text_2">
      <!-- −200 -->
      <g transform="translate(176.161925 353.977813) scale(0.14 -0.14)">
       <defs>
        <path id="DejaVuSans-32" d="M 1228 531 
L 3431 531 
L 3431 0 
L 469 0 
L 469 531 
Q 828 903 1448 1529 
Q 2069 2156 2228 2338 
Q 2531 2678 2651 2914 
Q 2772 3150 2772 3378 
Q 2772 3750 2511 3984 
Q 2250 4219 1831 4219 
Q 1534 4219 1204 4116 
Q 875 4013 500 3803 
L 500 4441 
Q 881 4594 1212 4672 
Q 1544 4750 1819 4750 
Q 2544 4750 2975 4387 
Q 3406 4025 3406 3419 
Q 3406 3131 3298 2873 
Q 3191 2616 2906 2266 
Q 2828 2175 2409 1742 
Q 1991 1309 1228 531 
z
" transform="scale(0.015625)"/>
       </defs>
       <use xlink:href="#DejaVuSans-2212"/>
       <use xlink:href="#DejaVuSans-32" x="83.789062"/>
       <use xlink:href="#DejaVuSans-30" x="147.412109"/>
       <use xlink:href="#DejaVuSans-30" x="211.035156"/>
      </g>
     </g>
    </g>
    <g id="xtick_3">
     <g id="line2d_5">
      <path d="M 284.056615 339.84 
L 284.056615 7.2 
" clip-path="url(#p53f44b7acf)" style="fill: none; stroke-dasharray: 1.85,0.8; stroke-dashoffset: 0; stroke: #b2b2b2; stroke-width: 0.5"/>
     </g>
     <g id="line2d_6">
      <g>
       <use xlink:href="#m413a9c75f1" x="284.056615" y="339.84" style="stroke: #000000; stroke-width: 0.8"/>
      </g>
     </g>
     <g id="text_3">
      <!-- 0 -->
      <g transform="translate(279.602865 353.977813) scale(0.14 -0.14)">
       <use xlink:href="#DejaVuSans-30"/>
      </g>
     </g>
    </g>
    <g id="xtick_4">
     <g id="line2d_7">
      <path d="M 372.724274 339.84 
L 372.724274 7.2 
" clip-path="url(#p53f44b7acf)" style="fill: none; stroke-dasharray: 1.85,0.8; stroke-dashoffset: 0; stroke: #b2b2b2; stroke-width: 0.5"/>
     </g>
     <g id="line2d_8">
      <g>
       <use xlink:href="#m413a9c75f1" x="372.724274" y="339.84" style="stroke: #000000; stroke-width: 0.8"/>
      </g>
     </g>
     <g id="text_4">
      <!-- 200 -->
      <g transform="translate(359.363024 353.977813) scale(0.14 -0.14)">
       <use xlink:href="#DejaVuSans-32"/>
       <use xlink:href="#DejaVuSans-30" x="63.623047"/>
       <use xlink:href="#DejaVuSans-30" x="127.246094"/>
      </g>
     </g>
    </g>
    <g id="xtick_5">
     <g id="line2d_9">
      <path d="M 461.391933 339.84 
L 461.391933 7.2 
" clip-path="url(#p53f44b7acf)" style="fill: none; stroke-dasharray: 1.85,0.8; stroke-dashoffset: 0; stroke: #b2b2b2; stroke-width: 0.5"/>
     </g>
     <g id="line2d_10">
      <g>
       <use xlink:href="#m413a9c75f1" x="461.391933" y="339.84" style="stroke: #000000; stroke-width: 0.8"/>
      </g>
     </g>
     <g id="text_5">
      <!-- 400 -->
      <g transform="translate(448.030683 353.977813) scale(0.14 -0.14)">
       <use xlink:href="#DejaVuSans-34"/>
       <use xlink:href="#DejaVuSans-30" x="63.623047"/>
       <use xlink:href="#DejaVuSans-30" x="127.246094"/>
      </g>
     </g>
    </g>
    <g id="xtick_6">
     <g id="line2d_11">
      <path d="M 550.059592 339.84 
L 550.059592 7.2 
" clip-path="url(#p53f44b7acf)" style="fill: none; stroke-dasharray: 1.85,0.8; stroke-dashoffset: 0; stroke: #b2b2b2; stroke-width: 0.5"/>
     </g>
     <g id="line2d_12">
      <g>
       <use xlink:href="#m413a9c75f1" x="550.059592" y="339.84" style="stroke: #000000; stroke-width: 0.8"/>
      </g>
     </g>
     <g id="text_6">
      <!-- 600 -->
      <g transform="translate(536.698342 353.977813) scale(0.14 -0.14)">
       <defs>
        <path id="DejaVuSans-36" d="M 2113 2584 
Q 1688 2584 1439 2293 
Q 1191 2003 1191 1497 
Q 1191 994 1439 701 
Q 1688 409 2113 409 
Q 2538 409 2786 701 
Q 3034 994 3034 1497 
Q 3034 2003 2786 2293 
Q 2538 2584 2113 2584 
z
M 3366 4563 
L 3366 3988 
Q 3128 4100 2886 4159 
Q 2644 4219 2406 4219 
Q 1781 4219 1451 3797 
Q 1122 3375 1075 2522 
Q 1259 2794 1537 2939 
Q 1816 3084 2150 3084 
Q 2853 3084 3261 2657 
Q 3669 2231 3669 1497 
Q 3669 778 3244 343 
Q 2819 -91 2113 -91 
Q 1303 -91 875 529 
Q 447 1150 447 2328 
Q 447 3434 972 4092 
Q 1497 4750 2381 4750 
Q 2619 4750 2861 4703 
Q 3103 4656 3366 4563 
z
" transform="scale(0.015625)"/>
       </defs>
       <use xlink:href="#DejaVuSans-36"/>
       <use xlink:href="#DejaVuSans-30" x="63.623047"/>
       <use xlink:href="#DejaVuSans-30" x="127.246094"/>
      </g>
     </g>
    </g>
   </g>
   <g id="matplotlib.axis_2">
    <g id="ytick_1">
     <g id="line2d_13">
      <path d="M 50.779375 324.72 
L 608.779375 324.72 
" clip-path="url(#p53f44b7acf)" style="fill: none; stroke-dasharray: 1.85,0.8; stroke-dashoffset: 0; stroke: #b2b2b2; stroke-width: 0.5"/>
     </g>
     <g id="line2d_14">
      <defs>
       <path id="mf2aed6744e" d="M 0 0 
L 3.5 0 
" style="stroke: #000000; stroke-width: 0.8"/>
      </defs>
      <g>
       <use xlink:href="#mf2aed6744e" x="50.779375" y="324.72" style="stroke: #000000; stroke-width: 0.8"/>
      </g>
     </g>
     <g id="text_7">
      <!-- 0.000 -->
      <g transform="translate(7.2 330.038906) scale(0.14 -0.14)">
       <defs>
        <path id="DejaVuSans-2e" d="M 684 794 
L 1344 794 
L 1344 0 
L 684 0 
L 684 794 
z
" transform="scale(0.015625)"/>
       </defs>
       <use xlink:href="#DejaVuSans-30"/>
       <use xlink:href="#DejaVuSans-2e" x="63.623047"/>
       <use xlink:href="#DejaVuSans-30" x="95.410156"/>
       <use xlink:href="#DejaVuSans-30" x="159.033203"/>
       <use xlink:href="#DejaVuSans-30" x="222.65625"/>
      </g>
     </g>
    </g>
    <g id="ytick_2">
     <g id="line2d_15">
      <path d="M 50.779375 252.626214 
L 608.779375 252.626214 
" clip-path="url(#p53f44b7acf)" style="fill: none; stroke-dasharray: 1.85,0.8; stroke-dashoffset: 0; stroke: #b2b2b2; stroke-width: 0.5"/>
     </g>
     <g id="line2d_16">
      <g>
       <use xlink:href="#mf2aed6744e" x="50.779375" y="252.626214" style="stroke: #000000; stroke-width: 0.8"/>
      </g>
     </g>
     <g id="text_8">
      <!-- 0.001 -->
      <g transform="translate(7.2 257.94512) scale(0.14 -0.14)">
       <defs>
        <path id="DejaVuSans-31" d="M 794 531 
L 1825 531 
L 1825 4091 
L 703 3866 
L 703 4441 
L 1819 4666 
L 2450 4666 
L 2450 531 
L 3481 531 
L 3481 0 
L 794 0 
L 794 531 
z
" transform="scale(0.015625)"/>
       </defs>
       <use xlink:href="#DejaVuSans-30"/>
       <use xlink:href="#DejaVuSans-2e" x="63.623047"/>
       <use xlink:href="#DejaVuSans-30" x="95.410156"/>
       <use xlink:href="#DejaVuSans-30" x="159.033203"/>
       <use xlink:href="#DejaVuSans-31" x="222.65625"/>
      </g>
     </g>
    </g>
    <g id="ytick_3">
     <g id="line2d_17">
      <path d="M 50.779375 180.532428 
L 608.779375 180.532428 
" clip-path="url(#p53f44b7acf)" style="fill: none; stroke-dasharray: 1.85,0.8; stroke-dashoffset: 0; stroke: #b2b2b2; stroke-width: 0.5"/>
     </g>
     <g id="line2d_18">
      <g>
       <use xlink:href="#mf2aed6744e" x="50.779375" y="180.532428" style="stroke: #000000; stroke-width: 0.8"/>
      </g>
     </g>
     <g id="text_9">
      <!-- 0.002 -->
      <g transform="translate(7.2 185.851334) scale(0.14 -0.14)">
       <use xlink:href="#DejaVuSans-30"/>
       <use xlink:href="#DejaVuSans-2e" x="63.623047"/>
       <use xlink:href="#DejaVuSans-30" x="95.410156"/>
       <use xlink:href="#DejaVuSans-30" x="159.033203"/>
       <use xlink:href="#DejaVuSans-32" x="222.65625"/>
      </g>
     </g>
    </g>
    <g id="ytick_4">
     <g id="line2d_19">
      <path d="M 50.779375 108.438642 
L 608.779375 108.438642 
" clip-path="url(#p53f44b7acf)" style="fill: none; stroke-dasharray: 1.85,0.8; stroke-dashoffset: 0; stroke: #b2b2b2; stroke-width: 0.5"/>
     </g>
     <g id="line2d_20">
      <g>
       <use xlink:href="#mf2aed6744e" x="50.779375" y="108.438642" style="stroke: #000000; stroke-width: 0.8"/>
      </g>
     </g>
     <g id="text_10">
      <!-- 0.003 -->
      <g transform="translate(7.2 113.757548) scale(0.14 -0.14)">
       <defs>
        <path id="DejaVuSans-33" d="M 2597 2516 
Q 3050 2419 3304 2112 
Q 3559 1806 3559 1356 
Q 3559 666 3084 287 
Q 2609 -91 1734 -91 
Q 1441 -91 1130 -33 
Q 819 25 488 141 
L 488 750 
Q 750 597 1062 519 
Q 1375 441 1716 441 
Q 2309 441 2620 675 
Q 2931 909 2931 1356 
Q 2931 1769 2642 2001 
Q 2353 2234 1838 2234 
L 1294 2234 
L 1294 2753 
L 1863 2753 
Q 2328 2753 2575 2939 
Q 2822 3125 2822 3475 
Q 2822 3834 2567 4026 
Q 2313 4219 1838 4219 
Q 1578 4219 1281 4162 
Q 984 4106 628 3988 
L 628 4550 
Q 988 4650 1302 4700 
Q 1616 4750 1894 4750 
Q 2613 4750 3031 4423 
Q 3450 4097 3450 3541 
Q 3450 3153 3228 2886 
Q 3006 2619 2597 2516 
z
" transform="scale(0.015625)"/>
       </defs>
       <use xlink:href="#DejaVuSans-30"/>
       <use xlink:href="#DejaVuSans-2e" x="63.623047"/>
       <use xlink:href="#DejaVuSans-30" x="95.410156"/>
       <use xlink:href="#DejaVuSans-30" x="159.033203"/>
       <use xlink:href="#DejaVuSans-33" x="222.65625"/>
      </g>
     </g>
    </g>
    <g id="ytick_5">
     <g id="line2d_21">
      <path d="M 50.779375 36.344856 
L 608.779375 36.344856 
" clip-path="url(#p53f44b7acf)" style="fill: none; stroke-dasharray: 1.85,0.8; stroke-dashoffset: 0; stroke: #b2b2b2; stroke-width: 0.5"/>
     </g>
     <g id="line2d_22">
      <g>
       <use xlink:href="#mf2aed6744e" x="50.779375" y="36.344856" style="stroke: #000000; stroke-width: 0.8"/>
      </g>
     </g>
     <g id="text_11">
      <!-- 0.004 -->
      <g transform="translate(7.2 41.663762) scale(0.14 -0.14)">
       <use xlink:href="#DejaVuSans-30"/>
       <use xlink:href="#DejaVuSans-2e" x="63.623047"/>
       <use xlink:href="#DejaVuSans-30" x="95.410156"/>
       <use xlink:href="#DejaVuSans-30" x="159.033203"/>
       <use xlink:href="#DejaVuSans-34" x="222.65625"/>
      </g>
     </g>
    </g>
   </g>
   <g id="line2d_23">
    <path d="M 76.143011 324.535288 
L 99.967954 324.632215 
L 106.916895 324.413253 
L 110.887719 324.266362 
L 121.807484 324.254097 
L 128.756425 324.156372 
L 138.683485 323.828931 
L 143.647014 323.59485 
L 147.617838 323.470111 
L 149.60325 323.143495 
L 154.566779 322.044329 
L 156.552191 321.897957 
L 160.523015 321.771381 
L 162.508427 321.466335 
L 164.493839 320.827884 
L 169.457368 318.801564 
L 171.44278 318.404543 
L 173.428192 318.264168 
L 175.413604 318.362626 
L 179.384427 318.754625 
L 180.377133 318.665035 
L 181.369839 318.459328 
L 183.355251 317.691164 
L 185.340663 316.554534 
L 191.296899 312.558171 
L 195.267722 310.556962 
L 202.216664 306.060361 
L 203.20937 305.274019 
L 204.202076 304.333356 
L 206.187487 301.976325 
L 208.172899 299.111631 
L 209.165605 297.442147 
L 210.158311 295.401539 
L 211.151017 292.955028 
L 212.143723 289.765115 
L 213.136429 285.485756 
L 214.129135 279.928066 
L 216.114547 265.624509 
L 217.107253 258.261875 
L 218.099959 252.155981 
L 219.092664 248.279993 
L 220.08537 247.103206 
L 221.078076 248.390125 
L 222.070782 251.297766 
L 224.056194 257.892427 
L 225.0489 260.080002 
L 226.041606 261.227615 
L 227.034312 261.526715 
L 228.027018 261.311045 
L 233.983253 258.955922 
L 235.968665 258.216 
L 236.961371 257.637153 
L 237.954077 256.682711 
L 238.946783 255.234217 
L 239.939489 253.220715 
L 241.924901 248.027816 
L 245.895724 237.210721 
L 246.88843 233.284181 
L 247.881136 227.885145 
L 248.873842 220.873798 
L 251.85196 196.717803 
L 252.844666 191.369132 
L 253.837372 188.895189 
L 254.830078 189.185049 
L 255.822784 191.342948 
L 256.81549 194.276046 
L 257.808195 196.521533 
L 258.800901 196.859264 
L 259.793607 194.616813 
L 260.786313 189.885041 
L 263.764431 170.975632 
L 264.757137 167.961228 
L 265.749843 168.209613 
L 266.742549 171.4259 
L 269.720667 187.050658 
L 270.713373 190.513796 
L 271.706078 192.398049 
L 272.698784 192.959404 
L 273.69149 192.617874 
L 276.669608 190.343328 
L 277.662314 189.89969 
L 280.640432 189.414772 
L 281.633138 188.872391 
L 282.625844 187.833205 
L 283.61855 186.243702 
L 284.611255 184.093064 
L 285.603961 181.429081 
L 286.596667 178.326148 
L 288.582079 170.965386 
L 293.545609 150.856214 
L 294.538315 147.778101 
L 296.523727 142.831289 
L 298.509138 137.990134 
L 301.487256 129.821548 
L 302.479962 127.977604 
L 303.472668 127.236256 
L 304.465374 127.710455 
L 305.45808 129.241351 
L 308.436198 135.647694 
L 309.428904 136.922046 
L 310.421609 137.283534 
L 311.414315 136.615113 
L 312.407021 134.664259 
L 313.399727 131.211906 
L 314.392433 126.039136 
L 315.385139 118.821738 
L 316.377845 109.460813 
L 317.370551 98.035728 
L 319.355963 70.873512 
L 321.341375 43.963357 
L 322.334081 33.600665 
L 323.326786 26.499898 
L 324.319492 22.923156 
L 325.312198 22.32 
L 326.304904 23.734519 
L 328.290316 28.174529 
L 330.275728 31.988506 
L 331.268434 34.49444 
L 332.26114 38.268486 
L 333.253846 43.539034 
L 334.246552 50.080063 
L 337.224669 71.822283 
L 342.188199 104.284475 
L 343.180905 109.458471 
L 344.173611 112.392193 
L 345.166317 112.333056 
L 346.159023 109.29407 
L 348.144435 98.99653 
L 349.137141 95.460524 
L 350.129846 95.193603 
L 351.122552 98.714929 
L 352.115258 105.371102 
L 354.10067 122.206287 
L 355.093376 129.201179 
L 356.086082 133.965061 
L 357.078788 136.358101 
L 358.071494 136.860176 
L 359.0642 136.168781 
L 360.056906 135.011224 
L 361.049612 134.036119 
L 362.042318 133.539483 
L 363.035023 133.761623 
L 364.027729 134.480203 
L 365.020435 135.406086 
L 366.013141 136.037129 
L 367.005847 136.099546 
L 367.998553 135.535573 
L 369.983965 133.805724 
L 370.976671 133.744028 
L 371.969377 134.959845 
L 372.962083 137.767721 
L 373.954789 142.117896 
L 374.947495 147.722725 
L 377.925612 165.806156 
L 378.918318 170.152154 
L 379.911024 173.081077 
L 380.90373 174.777724 
L 382.889142 176.854499 
L 383.881848 178.726348 
L 384.874554 181.893934 
L 385.86726 186.641139 
L 386.859966 192.864014 
L 388.845377 208.371427 
L 391.823495 233.334634 
L 393.808907 247.229895 
L 394.801613 252.807485 
L 395.794319 257.462542 
L 396.787025 261.285137 
L 397.779731 264.471249 
L 399.765143 269.593124 
L 401.750555 273.816915 
L 411.677614 292.708976 
L 412.67032 294.004589 
L 414.655732 295.95064 
L 416.641143 297.515946 
L 417.633849 298.127526 
L 418.626555 298.509434 
L 419.619261 298.580533 
L 420.611967 298.274465 
L 421.604673 297.588261 
L 422.597379 296.599997 
L 426.568203 291.700942 
L 427.560909 290.863245 
L 428.553614 290.406549 
L 429.54632 290.425691 
L 430.539026 290.975897 
L 431.531732 292.108227 
L 432.524438 293.806597 
L 433.517144 295.985607 
L 438.480674 308.414023 
L 439.47338 310.217416 
L 440.466086 311.684613 
L 441.458791 312.845113 
L 442.451497 313.7206 
L 443.444203 314.376658 
L 444.436909 314.845393 
L 446.422321 315.455386 
L 448.407733 316.017691 
L 450.393145 316.781674 
L 453.371263 317.971957 
L 457.342086 319.079214 
L 461.31291 320.169667 
L 463.298322 320.492192 
L 465.283734 320.58694 
L 468.261851 320.634265 
L 470.247263 320.864538 
L 479.181617 322.432768 
L 484.145146 322.806979 
L 489.108676 323.053731 
L 495.064911 323.195877 
L 499.035735 323.406538 
L 502.013853 323.213283 
L 503.999265 323.111341 
L 505.984677 323.216546 
L 510.948206 323.746597 
L 521.867971 324.111202 
L 529.809619 324.4103 
L 536.75856 324.28941 
L 543.707502 324.505199 
L 551.649149 324.429857 
L 560.583502 324.663642 
L 567.532444 324.669131 
L 575.474091 324.712225 
L 579.444915 324.608696 
L 583.415739 324.372065 
L 583.415739 324.372065 
" clip-path="url(#p53f44b7acf)" style="fill: none; stroke: #348abd; stroke-width: 2; stroke-linecap: square"/>
   </g>
   <g id="patch_3">
    <path d="M 50.779375 339.84 
L 50.779375 7.2 
" style="fill: none; stroke: #bcbcbc; stroke-width: 0.8; stroke-linejoin: miter; stroke-linecap: square"/>
   </g>
   <g id="patch_4">
    <path d="M 608.779375 339.84 
L 608.779375 7.2 
" style="fill: none; stroke: #bcbcbc; stroke-width: 0.8; stroke-linejoin: miter; stroke-linecap: square"/>
   </g>
   <g id="patch_5">
    <path d="M 50.779375 339.84 
L 608.779375 339.84 
" style="fill: none; stroke: #bcbcbc; stroke-width: 0.8; stroke-linejoin: miter; stroke-linecap: square"/>
   </g>
   <g id="patch_6">
    <path d="M 50.779375 7.2 
L 608.779375 7.2 
" style="fill: none; stroke: #bcbcbc; stroke-width: 0.8; stroke-linejoin: miter; stroke-linecap: square"/>
   </g>
  </g>
 </g>
 <defs>
  <clipPath id="p53f44b7acf">
   <rect x="50.779375" y="7.2" width="558" height="332.64"/>
  </clipPath>
 </defs>
</svg>