<?xml version="1.0" encoding="utf-8" standalone="no"?>
<!DOCTYPE svg PUBLIC "-//W3C//DTD SVG 1.1//EN"
  "http://www.w3.org/Graphics/SVG/1.1/DTD/svg11.dtd">
<svg xmlns:xlink="http://www.w3.org/1999/xlink" width="713.656pt" height="426.799875pt" viewBox="0 0 713.656 426.799875" xmlns="http://www.w3.org/2000/svg" version="1.1">
 <metadata>
  <rdf:RDF xmlns:dc="http://purl.org/dc/elements/1.1/" xmlns:cc="http://creativecommons.org/ns#" xmlns:rdf="http://www.w3.org/1999/02/22-rdf-syntax-ns#">
   <cc:Work>
    <dc:type rdf:resource="http://purl.org/dc/dcmitype/StillImage"/>
    <dc:date>2023-05-08T00:37:42.202153</dc:date>
    <dc:format>image/svg+xml</dc:format>
    <dc:creator>
     <cc:Agent>
      <dc:title>Matplotlib v3.7.1, https://matplotlib.org/</dc:title>
     </cc:Agent>
    </dc:creator>
   </cc:Work>
  </rdf:RDF>
 </metadata>
 <defs>
  <style type="text/css">*{stroke-linejoin: round; stroke-linecap: butt}</style>
 </defs>
 <g id="figure_1">
  <g id="patch_1">
   <path d="M -0 426.799875 
L 713.656 426.799875 
L 713.656 0 
L -0 0 
z
" style="fill: #ffffff"/>
  </g>
  <g id="axes_1">
   <g id="patch_2">
    <path d="M 27.732 403.252 
L 351.64 403.252 
L 351.64 46.4685 
L 27.732 46.4685 
z
" style="fill: #eaeaf2"/>
   </g>
   <g id="matplotlib.axis_1">
    <g id="xtick_1">
     <g id="line2d_1">
      <path d="M 42.455091 403.252 
L 42.455091 46.4685 
" clip-path="url(#pbb700fd6e6)" style="fill: none; stroke: #ffffff; stroke-width: 0.8; stroke-linecap: round"/>
     </g>
     <g id="text_1">
      <!-- −0.2 -->
      <g style="fill: #262626" transform="translate(33.769216 417.850875) scale(0.088 -0.088)">
       <defs>
        <path id="ArialMT-2212" d="M 3381 1997 
L 356 1997 
L 356 2522 
L 3381 2522 
L 3381 1997 
z
" transform="scale(0.015625)"/>
        <path id="ArialMT-30" d="M 266 2259 
Q 266 3072 433 3567 
Q 600 4063 929 4331 
Q 1259 4600 1759 4600 
Q 2128 4600 2406 4451 
Q 2684 4303 2865 4023 
Q 3047 3744 3150 3342 
Q 3253 2941 3253 2259 
Q 3253 1453 3087 958 
Q 2922 463 2592 192 
Q 2263 -78 1759 -78 
Q 1097 -78 719 397 
Q 266 969 266 2259 
z
M 844 2259 
Q 844 1131 1108 757 
Q 1372 384 1759 384 
Q 2147 384 2411 759 
Q 2675 1134 2675 2259 
Q 2675 3391 2411 3762 
Q 2147 4134 1753 4134 
Q 1366 4134 1134 3806 
Q 844 3388 844 2259 
z
" transform="scale(0.015625)"/>
        <path id="ArialMT-2e" d="M 581 0 
L 581 641 
L 1222 641 
L 1222 0 
L 581 0 
z
" transform="scale(0.015625)"/>
        <path id="ArialMT-32" d="M 3222 541 
L 3222 0 
L 194 0 
Q 188 203 259 391 
Q 375 700 629 1000 
Q 884 1300 1366 1694 
Q 2113 2306 2375 2664 
Q 2638 3022 2638 3341 
Q 2638 3675 2398 3904 
Q 2159 4134 1775 4134 
Q 1369 4134 1125 3890 
Q 881 3647 878 3216 
L 300 3275 
Q 359 3922 746 4261 
Q 1134 4600 1788 4600 
Q 2447 4600 2831 4234 
Q 3216 3869 3216 3328 
Q 3216 3053 3103 2787 
Q 2991 2522 2730 2228 
Q 2469 1934 1863 1422 
Q 1356 997 1212 845 
Q 1069 694 975 541 
L 3222 541 
z
" transform="scale(0.015625)"/>
       </defs>
       <use xlink:href="#ArialMT-2212"/>
       <use xlink:href="#ArialMT-30" x="58.398438"/>
       <use xlink:href="#ArialMT-2e" x="114.013672"/>
       <use xlink:href="#ArialMT-32" x="141.796875"/>
      </g>
     </g>
    </g>
    <g id="xtick_2">
     <g id="line2d_2">
      <path d="M 84.521065 403.252 
L 84.521065 46.4685 
" clip-path="url(#pbb700fd6e6)" style="fill: none; stroke: #ffffff; stroke-width: 0.8; stroke-linecap: round"/>
     </g>
     <g id="text_2">
      <!-- 0.0 -->
      <g style="fill: #262626" transform="translate(78.405065 417.850875) scale(0.088 -0.088)">
       <use xlink:href="#ArialMT-30"/>
       <use xlink:href="#ArialMT-2e" x="55.615234"/>
       <use xlink:href="#ArialMT-30" x="83.398438"/>
      </g>
     </g>
    </g>
    <g id="xtick_3">
     <g id="line2d_3">
      <path d="M 126.587039 403.252 
L 126.587039 46.4685 
" clip-path="url(#pbb700fd6e6)" style="fill: none; stroke: #ffffff; stroke-width: 0.8; stroke-linecap: round"/>
     </g>
     <g id="text_3">
      <!-- 0.2 -->
      <g style="fill: #262626" transform="translate(120.471039 417.850875) scale(0.088 -0.088)">
       <use xlink:href="#ArialMT-30"/>
       <use xlink:href="#ArialMT-2e" x="55.615234"/>
       <use xlink:href="#ArialMT-32" x="83.398438"/>
      </g>
     </g>
    </g>
    <g id="xtick_4">
     <g id="line2d_4">
      <path d="M 168.653013 403.252 
L 168.653013 46.4685 
" clip-path="url(#pbb700fd6e6)" style="fill: none; stroke: #ffffff; stroke-width: 0.8; stroke-linecap: round"/>
     </g>
     <g id="text_4">
      <!-- 0.4 -->
      <g style="fill: #262626" transform="translate(162.537013 417.850875) scale(0.088 -0.088)">
       <defs>
        <path id="ArialMT-34" d="M 2069 0 
L 2069 1097 
L 81 1097 
L 81 1613 
L 2172 4581 
L 2631 4581 
L 2631 1613 
L 3250 1613 
L 3250 1097 
L 2631 1097 
L 2631 0 
L 2069 0 
z
M 2069 1613 
L 2069 3678 
L 634 1613 
L 2069 1613 
z
" transform="scale(0.015625)"/>
       </defs>
       <use xlink:href="#ArialMT-30"/>
       <use xlink:href="#ArialMT-2e" x="55.615234"/>
       <use xlink:href="#ArialMT-34" x="83.398438"/>
      </g>
     </g>
    </g>
    <g id="xtick_5">
     <g id="line2d_5">
      <path d="M 210.718987 403.252 
L 210.718987 46.4685 
" clip-path="url(#pbb700fd6e6)" style="fill: none; stroke: #ffffff; stroke-width: 0.8; stroke-linecap: round"/>
     </g>
     <g id="text_5">
      <!-- 0.6 -->
      <g style="fill: #262626" transform="translate(204.602987 417.850875) scale(0.088 -0.088)">
       <defs>
        <path id="ArialMT-36" d="M 3184 3459 
L 2625 3416 
Q 2550 3747 2413 3897 
Q 2184 4138 1850 4138 
Q 1581 4138 1378 3988 
Q 1113 3794 959 3422 
Q 806 3050 800 2363 
Q 1003 2672 1297 2822 
Q 1591 2972 1913 2972 
Q 2475 2972 2870 2558 
Q 3266 2144 3266 1488 
Q 3266 1056 3080 686 
Q 2894 316 2569 119 
Q 2244 -78 1831 -78 
Q 1128 -78 684 439 
Q 241 956 241 2144 
Q 241 3472 731 4075 
Q 1159 4600 1884 4600 
Q 2425 4600 2770 4297 
Q 3116 3994 3184 3459 
z
M 888 1484 
Q 888 1194 1011 928 
Q 1134 663 1356 523 
Q 1578 384 1822 384 
Q 2178 384 2434 671 
Q 2691 959 2691 1453 
Q 2691 1928 2437 2201 
Q 2184 2475 1800 2475 
Q 1419 2475 1153 2201 
Q 888 1928 888 1484 
z
" transform="scale(0.015625)"/>
       </defs>
       <use xlink:href="#ArialMT-30"/>
       <use xlink:href="#ArialMT-2e" x="55.615234"/>
       <use xlink:href="#ArialMT-36" x="83.398438"/>
      </g>
     </g>
    </g>
    <g id="xtick_6">
     <g id="line2d_6">
      <path d="M 252.784961 403.252 
L 252.784961 46.4685 
" clip-path="url(#pbb700fd6e6)" style="fill: none; stroke: #ffffff; stroke-width: 0.8; stroke-linecap: round"/>
     </g>
     <g id="text_6">
      <!-- 0.8 -->
      <g style="fill: #262626" transform="translate(246.668961 417.850875) scale(0.088 -0.088)">
       <defs>
        <path id="ArialMT-38" d="M 1131 2484 
Q 781 2613 612 2850 
Q 444 3088 444 3419 
Q 444 3919 803 4259 
Q 1163 4600 1759 4600 
Q 2359 4600 2725 4251 
Q 3091 3903 3091 3403 
Q 3091 3084 2923 2848 
Q 2756 2613 2416 2484 
Q 2838 2347 3058 2040 
Q 3278 1734 3278 1309 
Q 3278 722 2862 322 
Q 2447 -78 1769 -78 
Q 1091 -78 675 323 
Q 259 725 259 1325 
Q 259 1772 486 2073 
Q 713 2375 1131 2484 
z
M 1019 3438 
Q 1019 3113 1228 2906 
Q 1438 2700 1772 2700 
Q 2097 2700 2305 2904 
Q 2513 3109 2513 3406 
Q 2513 3716 2298 3927 
Q 2084 4138 1766 4138 
Q 1444 4138 1231 3931 
Q 1019 3725 1019 3438 
z
M 838 1322 
Q 838 1081 952 856 
Q 1066 631 1291 507 
Q 1516 384 1775 384 
Q 2178 384 2440 643 
Q 2703 903 2703 1303 
Q 2703 1709 2433 1975 
Q 2163 2241 1756 2241 
Q 1359 2241 1098 1978 
Q 838 1716 838 1322 
z
" transform="scale(0.015625)"/>
       </defs>
       <use xlink:href="#ArialMT-30"/>
       <use xlink:href="#ArialMT-2e" x="55.615234"/>
       <use xlink:href="#ArialMT-38" x="83.398438"/>
      </g>
     </g>
    </g>
    <g id="xtick_7">
     <g id="line2d_7">
      <path d="M 294.850935 403.252 
L 294.850935 46.4685 
" clip-path="url(#pbb700fd6e6)" style="fill: none; stroke: #ffffff; stroke-width: 0.8; stroke-linecap: round"/>
     </g>
     <g id="text_7">
      <!-- 1.0 -->
      <g style="fill: #262626" transform="translate(288.734935 417.850875) scale(0.088 -0.088)">
       <defs>
        <path id="ArialMT-31" d="M 2384 0 
L 1822 0 
L 1822 3584 
Q 1619 3391 1289 3197 
Q 959 3003 697 2906 
L 697 3450 
Q 1169 3672 1522 3987 
Q 1875 4303 2022 4600 
L 2384 4600 
L 2384 0 
z
" transform="scale(0.015625)"/>
       </defs>
       <use xlink:href="#ArialMT-31"/>
       <use xlink:href="#ArialMT-2e" x="55.615234"/>
       <use xlink:href="#ArialMT-30" x="83.398438"/>
      </g>
     </g>
    </g>
    <g id="xtick_8">
     <g id="line2d_8">
      <path d="M 336.916909 403.252 
L 336.916909 46.4685 
" clip-path="url(#pbb700fd6e6)" style="fill: none; stroke: #ffffff; stroke-width: 0.8; stroke-linecap: round"/>
     </g>
     <g id="text_8">
      <!-- 1.2 -->
      <g style="fill: #262626" transform="translate(330.800909 417.850875) scale(0.088 -0.088)">
       <use xlink:href="#ArialMT-31"/>
       <use xlink:href="#ArialMT-2e" x="55.615234"/>
       <use xlink:href="#ArialMT-32" x="83.398438"/>
      </g>
     </g>
    </g>
   </g>
   <g id="matplotlib.axis_2">
    <g id="ytick_1">
     <g id="line2d_9">
      <path d="M 27.732 387.034568 
L 351.64 387.034568 
" clip-path="url(#pbb700fd6e6)" style="fill: none; stroke: #ffffff; stroke-width: 0.8; stroke-linecap: round"/>
     </g>
     <g id="text_9">
      <!-- 0.0 -->
      <g style="fill: #262626" transform="translate(7.2 390.184006) scale(0.088 -0.088)">
       <use xlink:href="#ArialMT-30"/>
       <use xlink:href="#ArialMT-2e" x="55.615234"/>
       <use xlink:href="#ArialMT-30" x="83.398438"/>
      </g>
     </g>
    </g>
    <g id="ytick_2">
     <g id="line2d_10">
      <path d="M 27.732 322.164841 
L 351.64 322.164841 
" clip-path="url(#pbb700fd6e6)" style="fill: none; stroke: #ffffff; stroke-width: 0.8; stroke-linecap: round"/>
     </g>
     <g id="text_10">
      <!-- 0.2 -->
      <g style="fill: #262626" transform="translate(7.2 325.314278) scale(0.088 -0.088)">
       <use xlink:href="#ArialMT-30"/>
       <use xlink:href="#ArialMT-2e" x="55.615234"/>
       <use xlink:href="#ArialMT-32" x="83.398438"/>
      </g>
     </g>
    </g>
    <g id="ytick_3">
     <g id="line2d_11">
      <path d="M 27.732 257.295114 
L 351.64 257.295114 
" clip-path="url(#pbb700fd6e6)" style="fill: none; stroke: #ffffff; stroke-width: 0.8; stroke-linecap: round"/>
     </g>
     <g id="text_11">
      <!-- 0.4 -->
      <g style="fill: #262626" transform="translate(7.2 260.444551) scale(0.088 -0.088)">
       <use xlink:href="#ArialMT-30"/>
       <use xlink:href="#ArialMT-2e" x="55.615234"/>
       <use xlink:href="#ArialMT-34" x="83.398438"/>
      </g>
     </g>
    </g>
    <g id="ytick_4">
     <g id="line2d_12">
      <path d="M 27.732 192.425386 
L 351.64 192.425386 
" clip-path="url(#pbb700fd6e6)" style="fill: none; stroke: #ffffff; stroke-width: 0.8; stroke-linecap: round"/>
     </g>
     <g id="text_12">
      <!-- 0.6 -->
      <g style="fill: #262626" transform="translate(7.2 195.574824) scale(0.088 -0.088)">
       <use xlink:href="#ArialMT-30"/>
       <use xlink:href="#ArialMT-2e" x="55.615234"/>
       <use xlink:href="#ArialMT-36" x="83.398438"/>
      </g>
     </g>
    </g>
    <g id="ytick_5">
     <g id="line2d_13">
      <path d="M 27.732 127.555659 
L 351.64 127.555659 
" clip-path="url(#pbb700fd6e6)" style="fill: none; stroke: #ffffff; stroke-width: 0.8; stroke-linecap: round"/>
     </g>
     <g id="text_13">
      <!-- 0.8 -->
      <g style="fill: #262626" transform="translate(7.2 130.705097) scale(0.088 -0.088)">
       <use xlink:href="#ArialMT-30"/>
       <use xlink:href="#ArialMT-2e" x="55.615234"/>
       <use xlink:href="#ArialMT-38" x="83.398438"/>
      </g>
     </g>
    </g>
    <g id="ytick_6">
     <g id="line2d_14">
      <path d="M 27.732 62.685932 
L 351.64 62.685932 
" clip-path="url(#pbb700fd6e6)" style="fill: none; stroke: #ffffff; stroke-width: 0.8; stroke-linecap: round"/>
     </g>
     <g id="text_14">
      <!-- 1.0 -->
      <g style="fill: #262626" transform="translate(7.2 65.835369) scale(0.088 -0.088)">
       <use xlink:href="#ArialMT-31"/>
       <use xlink:href="#ArialMT-2e" x="55.615234"/>
       <use xlink:href="#ArialMT-30" x="83.398438"/>
      </g>
     </g>
    </g>
   </g>
   <g id="PolyCollection_1"/>
   <g id="PolyCollection_2">
    <defs>
     <path id="me369fb94f6" d="M 42.455091 -39.765307 
L 42.455091 -39.765307 
L 42.749847 -39.765307 
L 43.044604 -39.765307 
L 43.339361 -39.765307 
L 43.634117 -39.765307 
L 43.928874 -39.765307 
L 44.22363 -39.765307 
L 44.518387 -39.765307 
L 44.813144 -39.765307 
L 45.1079 -39.765307 
L 45.402657 -39.765307 
L 45.697413 -39.765307 
L 45.99217 -39.765307 
L 46.286926 -39.765307 
L 46.581683 -39.765307 
L 46.87644 -39.765307 
L 47.171196 -39.765307 
L 47.465953 -39.765307 
L 47.760709 -39.765307 
L 48.055466 -39.765307 
L 48.350222 -39.765307 
L 48.644979 -39.765307 
L 48.939736 -39.765307 
L 49.234492 -39.765307 
L 49.529249 -39.765307 
L 49.824005 -39.765307 
L 50.118762 -39.765307 
L 50.413518 -39.765307 
L 50.708275 -39.765307 
L 51.003032 -39.765307 
L 51.297788 -39.765307 
L 51.592545 -39.765307 
L 51.887301 -39.765307 
L 52.182058 -39.765307 
L 52.476814 -39.765307 
L 52.771571 -39.765307 
L 53.066328 -39.765307 
L 53.361084 -39.765307 
L 53.655841 -39.765307 
L 53.950597 -39.765307 
L 54.245354 -39.765307 
L 54.54011 -39.765307 
L 54.834867 -39.765307 
L 55.129624 -39.765307 
L 55.42438 -39.765307 
L 55.719137 -39.765307 
L 56.013893 -39.765307 
L 56.30865 -39.765307 
L 56.603406 -39.765307 
L 56.898163 -39.765307 
L 57.19292 -39.765307 
L 57.487676 -39.765307 
L 57.782433 -39.765307 
L 58.077189 -39.765307 
L 58.371946 -39.765307 
L 58.666703 -39.765307 
L 58.961459 -39.765307 
L 59.256216 -39.765307 
L 59.550972 -39.765307 
L 59.845729 -39.765307 
L 60.140485 -39.765307 
L 60.435242 -39.765307 
L 60.729999 -39.765307 
L 61.024755 -39.765307 
L 61.319512 -39.765307 
L 61.614268 -39.765307 
L 61.909025 -39.765307 
L 62.203781 -39.765307 
L 62.498538 -39.765307 
L 62.793295 -39.765307 
L 63.088051 -39.765307 
L 63.382808 -39.765307 
L 63.677564 -39.765307 
L 63.972321 -39.765307 
L 64.267077 -39.765307 
L 64.561834 -39.765307 
L 64.856591 -39.765307 
L 65.151347 -39.765307 
L 65.446104 -39.765307 
L 65.74086 -39.765307 
L 66.035617 -39.765307 
L 66.330373 -39.765307 
L 66.62513 -39.765307 
L 66.919887 -39.765307 
L 67.214643 -39.765307 
L 67.5094 -39.765307 
L 67.804156 -39.765307 
L 68.098913 -39.765307 
L 68.393669 -39.765307 
L 68.688426 -39.765307 
L 68.983183 -39.765307 
L 69.277939 -39.765307 
L 69.572696 -39.765307 
L 69.867452 -39.765307 
L 70.162209 -39.765307 
L 70.456966 -39.765307 
L 70.751722 -39.765307 
L 71.046479 -39.765307 
L 71.341235 -39.765307 
L 71.635992 -39.765307 
L 71.930748 -39.765307 
L 72.225505 -39.765307 
L 72.520262 -39.765307 
L 72.815018 -39.765307 
L 73.109775 -39.765307 
L 73.404531 -39.765307 
L 73.699288 -39.765307 
L 73.994044 -39.765307 
L 74.288801 -39.765307 
L 74.583558 -39.765307 
L 74.878314 -39.765307 
L 75.173071 -39.765307 
L 75.467827 -39.765307 
L 75.762584 -39.765307 
L 76.05734 -39.765307 
L 76.352097 -39.765307 
L 76.646854 -39.765307 
L 76.94161 -39.765307 
L 77.236367 -39.765307 
L 77.531123 -39.765307 
L 77.82588 -39.765307 
L 78.120636 -39.765307 
L 78.415393 -39.765307 
L 78.71015 -39.765307 
L 79.004906 -39.765307 
L 79.299663 -39.765307 
L 79.594419 -39.765307 
L 79.889176 -39.765307 
L 80.183932 -39.765307 
L 80.478689 -39.765307 
L 80.773446 -39.765307 
L 81.068202 -39.765307 
L 81.362959 -39.765307 
L 81.657715 -39.765307 
L 81.952472 -39.765307 
L 82.247229 -39.765307 
L 82.541985 -39.765307 
L 82.836742 -39.765307 
L 83.131498 -39.765307 
L 83.426255 -39.765307 
L 83.721011 -39.765307 
L 84.015768 -39.765307 
L 84.310525 -39.765307 
L 84.605281 -364.113943 
L 84.900038 -364.113943 
L 85.194794 -364.113943 
L 85.489551 -364.113943 
L 85.784307 -364.113943 
L 86.079064 -364.113943 
L 86.373821 -364.113943 
L 86.668577 -364.113943 
L 86.963334 -364.113943 
L 87.25809 -364.113943 
L 87.552847 -364.113943 
L 87.847603 -364.113943 
L 88.14236 -364.113943 
L 88.437117 -364.113943 
L 88.731873 -364.113943 
L 89.02663 -364.113943 
L 89.321386 -364.113943 
L 89.616143 -364.113943 
L 89.910899 -364.113943 
L 90.205656 -364.113943 
L 90.500413 -364.113943 
L 90.795169 -364.113943 
L 91.089926 -364.113943 
L 91.384682 -364.113943 
L 91.679439 -364.113943 
L 91.974195 -364.113943 
L 92.268952 -364.113943 
L 92.563709 -364.113943 
L 92.858465 -364.113943 
L 93.153222 -364.113943 
L 93.447978 -364.113943 
L 93.742735 -364.113943 
L 94.037491 -364.113943 
L 94.332248 -364.113943 
L 94.627005 -364.113943 
L 94.921761 -364.113943 
L 95.216518 -364.113943 
L 95.511274 -364.113943 
L 95.806031 -364.113943 
L 96.100788 -364.113943 
L 96.395544 -364.113943 
L 96.690301 -364.113943 
L 96.985057 -364.113943 
L 97.279814 -364.113943 
L 97.57457 -364.113943 
L 97.869327 -364.113943 
L 98.164084 -364.113943 
L 98.45884 -364.113943 
L 98.753597 -364.113943 
L 99.048353 -364.113943 
L 99.34311 -364.113943 
L 99.637866 -364.113943 
L 99.932623 -364.113943 
L 100.22738 -364.113943 
L 100.522136 -364.113943 
L 100.816893 -364.113943 
L 101.111649 -364.113943 
L 101.406406 -364.113943 
L 101.701162 -364.113943 
L 101.995919 -364.113943 
L 102.290676 -364.113943 
L 102.585432 -364.113943 
L 102.880189 -364.113943 
L 103.174945 -364.113943 
L 103.469702 -364.113943 
L 103.764458 -364.113943 
L 104.059215 -364.113943 
L 104.353972 -364.113943 
L 104.648728 -364.113943 
L 104.943485 -364.113943 
L 105.238241 -364.113943 
L 105.532998 -364.113943 
L 105.827754 -364.113943 
L 106.122511 -364.113943 
L 106.417268 -364.113943 
L 106.712024 -364.113943 
L 107.006781 -364.113943 
L 107.301537 -364.113943 
L 107.596294 -364.113943 
L 107.891051 -364.113943 
L 108.185807 -364.113943 
L 108.480564 -364.113943 
L 108.77532 -364.113943 
L 109.070077 -364.113943 
L 109.364833 -364.113943 
L 109.65959 -364.113943 
L 109.954347 -364.113943 
L 110.249103 -364.113943 
L 110.54386 -364.113943 
L 110.838616 -364.113943 
L 111.133373 -364.113943 
L 111.428129 -364.113943 
L 111.722886 -364.113943 
L 112.017643 -364.113943 
L 112.312399 -364.113943 
L 112.607156 -364.113943 
L 112.901912 -364.113943 
L 113.196669 -364.113943 
L 113.491425 -364.113943 
L 113.786182 -364.113943 
L 114.080939 -364.113943 
L 114.375695 -364.113943 
L 114.670452 -364.113943 
L 114.965208 -364.113943 
L 115.259965 -364.113943 
L 115.554721 -364.113943 
L 115.849478 -364.113943 
L 116.144235 -364.113943 
L 116.438991 -364.113943 
L 116.733748 -364.113943 
L 117.028504 -364.113943 
L 117.323261 -364.113943 
L 117.618017 -364.113943 
L 117.912774 -364.113943 
L 118.207531 -364.113943 
L 118.502287 -364.113943 
L 118.797044 -364.113943 
L 119.0918 -364.113943 
L 119.386557 -364.113943 
L 119.681313 -364.113943 
L 119.97607 -364.113943 
L 120.270827 -364.113943 
L 120.565583 -364.113943 
L 120.86034 -364.113943 
L 121.155096 -364.113943 
L 121.449853 -364.113943 
L 121.74461 -364.113943 
L 122.039366 -364.113943 
L 122.334123 -364.113943 
L 122.628879 -364.113943 
L 122.923636 -364.113943 
L 123.218392 -364.113943 
L 123.513149 -364.113943 
L 123.807906 -364.113943 
L 124.102662 -364.113943 
L 124.397419 -364.113943 
L 124.692175 -364.113943 
L 124.986932 -364.113943 
L 125.281688 -364.113943 
L 125.576445 -364.113943 
L 125.871202 -364.113943 
L 126.165958 -364.113943 
L 126.460715 -364.113943 
L 126.755471 -364.113943 
L 127.050228 -364.113943 
L 127.344984 -364.113943 
L 127.639741 -364.113943 
L 127.934498 -364.113943 
L 128.229254 -364.113943 
L 128.524011 -364.113943 
L 128.818767 -364.113943 
L 129.113524 -364.113943 
L 129.40828 -364.113943 
L 129.703037 -364.113943 
L 129.997794 -364.113943 
L 130.29255 -364.113943 
L 130.587307 -364.113943 
L 130.882063 -364.113943 
L 131.17682 -364.113943 
L 131.471576 -364.113943 
L 131.766333 -364.113943 
L 132.06109 -364.113943 
L 132.355846 -364.113943 
L 132.650603 -364.113943 
L 132.945359 -364.113943 
L 133.240116 -364.113943 
L 133.534873 -364.113943 
L 133.829629 -364.113943 
L 134.124386 -364.113943 
L 134.419142 -364.113943 
L 134.713899 -364.113943 
L 135.008655 -364.113943 
L 135.303412 -364.113943 
L 135.598169 -364.113943 
L 135.892925 -364.113943 
L 136.187682 -364.113943 
L 136.482438 -364.113943 
L 136.777195 -364.113943 
L 137.071951 -364.113943 
L 137.366708 -364.113943 
L 137.661465 -364.113943 
L 137.956221 -364.113943 
L 138.250978 -364.113943 
L 138.545734 -364.113943 
L 138.840491 -364.113943 
L 139.135247 -364.113943 
L 139.430004 -364.113943 
L 139.724761 -364.113943 
L 140.019517 -364.113943 
L 140.314274 -364.113943 
L 140.60903 -364.113943 
L 140.903787 -364.113943 
L 141.198543 -364.113943 
L 141.4933 -364.113943 
L 141.788057 -364.113943 
L 142.082813 -364.113943 
L 142.37757 -364.113943 
L 142.672326 -364.113943 
L 142.967083 -364.113943 
L 143.261839 -364.113943 
L 143.556596 -364.113943 
L 143.851353 -364.113943 
L 144.146109 -364.113943 
L 144.440866 -364.113943 
L 144.735622 -364.113943 
L 145.030379 -364.113943 
L 145.325135 -364.113943 
L 145.619892 -364.113943 
L 145.914649 -364.113943 
L 146.209405 -364.113943 
L 146.504162 -364.113943 
L 146.798918 -364.113943 
L 147.093675 -364.113943 
L 147.388432 -364.113943 
L 147.683188 -364.113943 
L 147.977945 -364.113943 
L 148.272701 -364.113943 
L 148.567458 -364.113943 
L 148.862214 -364.113943 
L 149.156971 -364.113943 
L 149.451728 -364.113943 
L 149.746484 -364.113943 
L 150.041241 -364.113943 
L 150.335997 -364.113943 
L 150.630754 -364.113943 
L 150.92551 -364.113943 
L 151.220267 -364.113943 
L 151.515024 -364.113943 
L 151.80978 -364.113943 
L 152.104537 -364.113943 
L 152.399293 -364.113943 
L 152.69405 -364.113943 
L 152.988806 -364.113943 
L 153.283563 -364.113943 
L 153.57832 -364.113943 
L 153.873076 -364.113943 
L 154.167833 -364.113943 
L 154.462589 -364.113943 
L 154.757346 -364.113943 
L 155.052102 -364.113943 
L 155.346859 -364.113943 
L 155.641616 -364.113943 
L 155.936372 -364.113943 
L 156.231129 -364.113943 
L 156.525885 -364.113943 
L 156.820642 -364.113943 
L 157.115398 -364.113943 
L 157.410155 -364.113943 
L 157.704912 -364.113943 
L 157.999668 -364.113943 
L 158.294425 -364.113943 
L 158.589181 -364.113943 
L 158.883938 -364.113943 
L 159.178695 -364.113943 
L 159.473451 -364.113943 
L 159.768208 -364.113943 
L 160.062964 -364.113943 
L 160.357721 -364.113943 
L 160.652477 -364.113943 
L 160.947234 -364.113943 
L 161.241991 -364.113943 
L 161.536747 -364.113943 
L 161.831504 -364.113943 
L 162.12626 -364.113943 
L 162.421017 -364.113943 
L 162.715773 -364.113943 
L 163.01053 -364.113943 
L 163.305287 -364.113943 
L 163.600043 -364.113943 
L 163.8948 -364.113943 
L 164.189556 -364.113943 
L 164.484313 -364.113943 
L 164.779069 -364.113943 
L 165.073826 -364.113943 
L 165.368583 -364.113943 
L 165.663339 -364.113943 
L 165.958096 -364.113943 
L 166.252852 -364.113943 
L 166.547609 -364.113943 
L 166.842365 -364.113943 
L 167.137122 -364.113943 
L 167.431879 -364.113943 
L 167.726635 -364.113943 
L 168.021392 -364.113943 
L 168.316148 -364.113943 
L 168.610905 -364.113943 
L 168.905661 -364.113943 
L 169.200418 -364.113943 
L 169.495175 -364.113943 
L 169.789931 -364.113943 
L 170.084688 -364.113943 
L 170.379444 -364.113943 
L 170.674201 -364.113943 
L 170.968958 -364.113943 
L 171.263714 -364.113943 
L 171.558471 -364.113943 
L 171.853227 -364.113943 
L 172.147984 -364.113943 
L 172.44274 -364.113943 
L 172.737497 -364.113943 
L 173.032254 -364.113943 
L 173.32701 -364.113943 
L 173.621767 -364.113943 
L 173.916523 -364.113943 
L 174.21128 -364.113943 
L 174.506036 -364.113943 
L 174.800793 -364.113943 
L 175.09555 -364.113943 
L 175.390306 -364.113943 
L 175.685063 -364.113943 
L 175.979819 -364.113943 
L 176.274576 -364.113943 
L 176.569332 -364.113943 
L 176.864089 -364.113943 
L 177.158846 -364.113943 
L 177.453602 -364.113943 
L 177.748359 -364.113943 
L 178.043115 -364.113943 
L 178.337872 -364.113943 
L 178.632628 -364.113943 
L 178.927385 -364.113943 
L 179.222142 -364.113943 
L 179.516898 -364.113943 
L 179.811655 -364.113943 
L 180.106411 -364.113943 
L 180.401168 -364.113943 
L 180.695924 -364.113943 
L 180.990681 -364.113943 
L 181.285438 -364.113943 
L 181.580194 -364.113943 
L 181.874951 -364.113943 
L 182.169707 -364.113943 
L 182.464464 -364.113943 
L 182.75922 -364.113943 
L 183.053977 -364.113943 
L 183.348734 -364.113943 
L 183.64349 -364.113943 
L 183.938247 -364.113943 
L 184.233003 -364.113943 
L 184.52776 -364.113943 
L 184.822517 -364.113943 
L 185.117273 -364.113943 
L 185.41203 -364.113943 
L 185.706786 -364.113943 
L 186.001543 -364.113943 
L 186.296299 -364.113943 
L 186.591056 -364.113943 
L 186.885813 -364.113943 
L 187.180569 -364.113943 
L 187.475326 -364.113943 
L 187.770082 -364.113943 
L 188.064839 -364.113943 
L 188.359595 -364.113943 
L 188.654352 -364.113943 
L 188.949109 -364.113943 
L 189.243865 -364.113943 
L 189.538622 -364.113943 
L 189.833378 -364.113943 
L 190.128135 -364.113943 
L 190.422891 -364.113943 
L 190.717648 -364.113943 
L 191.012405 -364.113943 
L 191.307161 -364.113943 
L 191.601918 -364.113943 
L 191.896674 -364.113943 
L 192.191431 -364.113943 
L 192.486187 -364.113943 
L 192.780944 -364.113943 
L 193.075701 -364.113943 
L 193.370457 -364.113943 
L 193.665214 -364.113943 
L 193.95997 -364.113943 
L 194.254727 -364.113943 
L 194.549483 -364.113943 
L 194.84424 -364.113943 
L 195.138997 -364.113943 
L 195.433753 -364.113943 
L 195.72851 -364.113943 
L 196.023266 -364.113943 
L 196.318023 -364.113943 
L 196.61278 -364.113943 
L 196.907536 -364.113943 
L 197.202293 -364.113943 
L 197.497049 -364.113943 
L 197.791806 -364.113943 
L 198.086562 -364.113943 
L 198.381319 -364.113943 
L 198.676076 -364.113943 
L 198.970832 -364.113943 
L 199.265589 -364.113943 
L 199.560345 -364.113943 
L 199.855102 -364.113943 
L 200.149858 -364.113943 
L 200.444615 -364.113943 
L 200.739372 -364.113943 
L 201.034128 -364.113943 
L 201.328885 -364.113943 
L 201.623641 -364.113943 
L 201.918398 -364.113943 
L 202.213154 -364.113943 
L 202.507911 -364.113943 
L 202.802668 -364.113943 
L 203.097424 -364.113943 
L 203.392181 -364.113943 
L 203.686937 -364.113943 
L 203.981694 -364.113943 
L 204.27645 -364.113943 
L 204.571207 -364.113943 
L 204.865964 -364.113943 
L 205.16072 -364.113943 
L 205.455477 -364.113943 
L 205.750233 -364.113943 
L 206.04499 -364.113943 
L 206.339746 -364.113943 
L 206.634503 -364.113943 
L 206.92926 -364.113943 
L 207.224016 -364.113943 
L 207.518773 -364.113943 
L 207.813529 -364.113943 
L 208.108286 -364.113943 
L 208.403042 -364.113943 
L 208.697799 -364.113943 
L 208.992556 -364.113943 
L 209.287312 -364.113943 
L 209.582069 -364.113943 
L 209.876825 -364.113943 
L 210.171582 -364.113943 
L 210.466339 -364.113943 
L 210.761095 -364.113943 
L 211.055852 -364.113943 
L 211.350608 -364.113943 
L 211.645365 -364.113943 
L 211.940121 -364.113943 
L 212.234878 -364.113943 
L 212.529635 -364.113943 
L 212.824391 -364.113943 
L 213.119148 -364.113943 
L 213.413904 -364.113943 
L 213.708661 -364.113943 
L 214.003417 -364.113943 
L 214.298174 -364.113943 
L 214.592931 -364.113943 
L 214.887687 -364.113943 
L 215.182444 -364.113943 
L 215.4772 -364.113943 
L 215.771957 -364.113943 
L 216.066713 -364.113943 
L 216.36147 -364.113943 
L 216.656227 -364.113943 
L 216.950983 -364.113943 
L 217.24574 -364.113943 
L 217.540496 -364.113943 
L 217.835253 -364.113943 
L 218.130009 -364.113943 
L 218.424766 -364.113943 
L 218.719523 -364.113943 
L 219.014279 -364.113943 
L 219.309036 -364.113943 
L 219.603792 -364.113943 
L 219.898549 -364.113943 
L 220.193305 -364.113943 
L 220.488062 -364.113943 
L 220.782819 -364.113943 
L 221.077575 -364.113943 
L 221.372332 -364.113943 
L 221.667088 -364.113943 
L 221.961845 -364.113943 
L 222.256602 -364.113943 
L 222.551358 -364.113943 
L 222.846115 -364.113943 
L 223.140871 -364.113943 
L 223.435628 -364.113943 
L 223.730384 -364.113943 
L 224.025141 -364.113943 
L 224.319898 -364.113943 
L 224.614654 -364.113943 
L 224.909411 -364.113943 
L 225.204167 -364.113943 
L 225.498924 -364.113943 
L 225.79368 -364.113943 
L 226.088437 -364.113943 
L 226.383194 -364.113943 
L 226.67795 -364.113943 
L 226.972707 -364.113943 
L 227.267463 -364.113943 
L 227.56222 -364.113943 
L 227.856976 -364.113943 
L 228.151733 -364.113943 
L 228.44649 -364.113943 
L 228.741246 -364.113943 
L 229.036003 -364.113943 
L 229.330759 -364.113943 
L 229.625516 -364.113943 
L 229.920272 -364.113943 
L 230.215029 -364.113943 
L 230.509786 -364.113943 
L 230.804542 -364.113943 
L 231.099299 -364.113943 
L 231.394055 -364.113943 
L 231.688812 -364.113943 
L 231.688812 -39.765307 
L 231.688812 -39.765307 
L 231.394055 -39.765307 
L 231.099299 -39.765307 
L 230.804542 -39.765307 
L 230.509786 -39.765307 
L 230.215029 -39.765307 
L 229.920272 -39.765307 
L 229.625516 -39.765307 
L 229.330759 -39.765307 
L 229.036003 -39.765307 
L 228.741246 -39.765307 
L 228.44649 -39.765307 
L 228.151733 -39.765307 
L 227.856976 -39.765307 
L 227.56222 -39.765307 
L 227.267463 -39.765307 
L 226.972707 -39.765307 
L 226.67795 -39.765307 
L 226.383194 -39.765307 
L 226.088437 -39.765307 
L 225.79368 -39.765307 
L 225.498924 -39.765307 
L 225.204167 -39.765307 
L 224.909411 -39.765307 
L 224.614654 -39.765307 
L 224.319898 -39.765307 
L 224.025141 -39.765307 
L 223.730384 -39.765307 
L 223.435628 -39.765307 
L 223.140871 -39.765307 
L 222.846115 -39.765307 
L 222.551358 -39.765307 
L 222.256602 -39.765307 
L 221.961845 -39.765307 
L 221.667088 -39.765307 
L 221.372332 -39.765307 
L 221.077575 -39.765307 
L 220.782819 -39.765307 
L 220.488062 -39.765307 
L 220.193305 -39.765307 
L 219.898549 -39.765307 
L 219.603792 -39.765307 
L 219.309036 -39.765307 
L 219.014279 -39.765307 
L 218.719523 -39.765307 
L 218.424766 -39.765307 
L 218.130009 -39.765307 
L 217.835253 -39.765307 
L 217.540496 -39.765307 
L 217.24574 -39.765307 
L 216.950983 -39.765307 
L 216.656227 -39.765307 
L 216.36147 -39.765307 
L 216.066713 -39.765307 
L 215.771957 -39.765307 
L 215.4772 -39.765307 
L 215.182444 -39.765307 
L 214.887687 -39.765307 
L 214.592931 -39.765307 
L 214.298174 -39.765307 
L 214.003417 -39.765307 
L 213.708661 -39.765307 
L 213.413904 -39.765307 
L 213.119148 -39.765307 
L 212.824391 -39.765307 
L 212.529635 -39.765307 
L 212.234878 -39.765307 
L 211.940121 -39.765307 
L 211.645365 -39.765307 
L 211.350608 -39.765307 
L 211.055852 -39.765307 
L 210.761095 -39.765307 
L 210.466339 -39.765307 
L 210.171582 -39.765307 
L 209.876825 -39.765307 
L 209.582069 -39.765307 
L 209.287312 -39.765307 
L 208.992556 -39.765307 
L 208.697799 -39.765307 
L 208.403042 -39.765307 
L 208.108286 -39.765307 
L 207.813529 -39.765307 
L 207.518773 -39.765307 
L 207.224016 -39.765307 
L 206.92926 -39.765307 
L 206.634503 -39.765307 
L 206.339746 -39.765307 
L 206.04499 -39.765307 
L 205.750233 -39.765307 
L 205.455477 -39.765307 
L 205.16072 -39.765307 
L 204.865964 -39.765307 
L 204.571207 -39.765307 
L 204.27645 -39.765307 
L 203.981694 -39.765307 
L 203.686937 -39.765307 
L 203.392181 -39.765307 
L 203.097424 -39.765307 
L 202.802668 -39.765307 
L 202.507911 -39.765307 
L 202.213154 -39.765307 
L 201.918398 -39.765307 
L 201.623641 -39.765307 
L 201.328885 -39.765307 
L 201.034128 -39.765307 
L 200.739372 -39.765307 
L 200.444615 -39.765307 
L 200.149858 -39.765307 
L 199.855102 -39.765307 
L 199.560345 -39.765307 
L 199.265589 -39.765307 
L 198.970832 -39.765307 
L 198.676076 -39.765307 
L 198.381319 -39.765307 
L 198.086562 -39.765307 
L 197.791806 -39.765307 
L 197.497049 -39.765307 
L 197.202293 -39.765307 
L 196.907536 -39.765307 
L 196.61278 -39.765307 
L 196.318023 -39.765307 
L 196.023266 -39.765307 
L 195.72851 -39.765307 
L 195.433753 -39.765307 
L 195.138997 -39.765307 
L 194.84424 -39.765307 
L 194.549483 -39.765307 
L 194.254727 -39.765307 
L 193.95997 -39.765307 
L 193.665214 -39.765307 
L 193.370457 -39.765307 
L 193.075701 -39.765307 
L 192.780944 -39.765307 
L 192.486187 -39.765307 
L 192.191431 -39.765307 
L 191.896674 -39.765307 
L 191.601918 -39.765307 
L 191.307161 -39.765307 
L 191.012405 -39.765307 
L 190.717648 -39.765307 
L 190.422891 -39.765307 
L 190.128135 -39.765307 
L 189.833378 -39.765307 
L 189.538622 -39.765307 
L 189.243865 -39.765307 
L 188.949109 -39.765307 
L 188.654352 -39.765307 
L 188.359595 -39.765307 
L 188.064839 -39.765307 
L 187.770082 -39.765307 
L 187.475326 -39.765307 
L 187.180569 -39.765307 
L 186.885813 -39.765307 
L 186.591056 -39.765307 
L 186.296299 -39.765307 
L 186.001543 -39.765307 
L 185.706786 -39.765307 
L 185.41203 -39.765307 
L 185.117273 -39.765307 
L 184.822517 -39.765307 
L 184.52776 -39.765307 
L 184.233003 -39.765307 
L 183.938247 -39.765307 
L 183.64349 -39.765307 
L 183.348734 -39.765307 
L 183.053977 -39.765307 
L 182.75922 -39.765307 
L 182.464464 -39.765307 
L 182.169707 -39.765307 
L 181.874951 -39.765307 
L 181.580194 -39.765307 
L 181.285438 -39.765307 
L 180.990681 -39.765307 
L 180.695924 -39.765307 
L 180.401168 -39.765307 
L 180.106411 -39.765307 
L 179.811655 -39.765307 
L 179.516898 -39.765307 
L 179.222142 -39.765307 
L 178.927385 -39.765307 
L 178.632628 -39.765307 
L 178.337872 -39.765307 
L 178.043115 -39.765307 
L 177.748359 -39.765307 
L 177.453602 -39.765307 
L 177.158846 -39.765307 
L 176.864089 -39.765307 
L 176.569332 -39.765307 
L 176.274576 -39.765307 
L 175.979819 -39.765307 
L 175.685063 -39.765307 
L 175.390306 -39.765307 
L 175.09555 -39.765307 
L 174.800793 -39.765307 
L 174.506036 -39.765307 
L 174.21128 -39.765307 
L 173.916523 -39.765307 
L 173.621767 -39.765307 
L 173.32701 -39.765307 
L 173.032254 -39.765307 
L 172.737497 -39.765307 
L 172.44274 -39.765307 
L 172.147984 -39.765307 
L 171.853227 -39.765307 
L 171.558471 -39.765307 
L 171.263714 -39.765307 
L 170.968958 -39.765307 
L 170.674201 -39.765307 
L 170.379444 -39.765307 
L 170.084688 -39.765307 
L 169.789931 -39.765307 
L 169.495175 -39.765307 
L 169.200418 -39.765307 
L 168.905661 -39.765307 
L 168.610905 -39.765307 
L 168.316148 -39.765307 
L 168.021392 -39.765307 
L 167.726635 -39.765307 
L 167.431879 -39.765307 
L 167.137122 -39.765307 
L 166.842365 -39.765307 
L 166.547609 -39.765307 
L 166.252852 -39.765307 
L 165.958096 -39.765307 
L 165.663339 -39.765307 
L 165.368583 -39.765307 
L 165.073826 -39.765307 
L 164.779069 -39.765307 
L 164.484313 -39.765307 
L 164.189556 -39.765307 
L 163.8948 -39.765307 
L 163.600043 -39.765307 
L 163.305287 -39.765307 
L 163.01053 -39.765307 
L 162.715773 -39.765307 
L 162.421017 -39.765307 
L 162.12626 -39.765307 
L 161.831504 -39.765307 
L 161.536747 -39.765307 
L 161.241991 -39.765307 
L 160.947234 -39.765307 
L 160.652477 -39.765307 
L 160.357721 -39.765307 
L 160.062964 -39.765307 
L 159.768208 -39.765307 
L 159.473451 -39.765307 
L 159.178695 -39.765307 
L 158.883938 -39.765307 
L 158.589181 -39.765307 
L 158.294425 -39.765307 
L 157.999668 -39.765307 
L 157.704912 -39.765307 
L 157.410155 -39.765307 
L 157.115398 -39.765307 
L 156.820642 -39.765307 
L 156.525885 -39.765307 
L 156.231129 -39.765307 
L 155.936372 -39.765307 
L 155.641616 -39.765307 
L 155.346859 -39.765307 
L 155.052102 -39.765307 
L 154.757346 -39.765307 
L 154.462589 -39.765307 
L 154.167833 -39.765307 
L 153.873076 -39.765307 
L 153.57832 -39.765307 
L 153.283563 -39.765307 
L 152.988806 -39.765307 
L 152.69405 -39.765307 
L 152.399293 -39.765307 
L 152.104537 -39.765307 
L 151.80978 -39.765307 
L 151.515024 -39.765307 
L 151.220267 -39.765307 
L 150.92551 -39.765307 
L 150.630754 -39.765307 
L 150.335997 -39.765307 
L 150.041241 -39.765307 
L 149.746484 -39.765307 
L 149.451728 -39.765307 
L 149.156971 -39.765307 
L 148.862214 -39.765307 
L 148.567458 -39.765307 
L 148.272701 -39.765307 
L 147.977945 -39.765307 
L 147.683188 -39.765307 
L 147.388432 -39.765307 
L 147.093675 -39.765307 
L 146.798918 -39.765307 
L 146.504162 -39.765307 
L 146.209405 -39.765307 
L 145.914649 -39.765307 
L 145.619892 -39.765307 
L 145.325135 -39.765307 
L 145.030379 -39.765307 
L 144.735622 -39.765307 
L 144.440866 -39.765307 
L 144.146109 -39.765307 
L 143.851353 -39.765307 
L 143.556596 -39.765307 
L 143.261839 -39.765307 
L 142.967083 -39.765307 
L 142.672326 -39.765307 
L 142.37757 -39.765307 
L 142.082813 -39.765307 
L 141.788057 -39.765307 
L 141.4933 -39.765307 
L 141.198543 -39.765307 
L 140.903787 -39.765307 
L 140.60903 -39.765307 
L 140.314274 -39.765307 
L 140.019517 -39.765307 
L 139.724761 -39.765307 
L 139.430004 -39.765307 
L 139.135247 -39.765307 
L 138.840491 -39.765307 
L 138.545734 -39.765307 
L 138.250978 -39.765307 
L 137.956221 -39.765307 
L 137.661465 -39.765307 
L 137.366708 -39.765307 
L 137.071951 -39.765307 
L 136.777195 -39.765307 
L 136.482438 -39.765307 
L 136.187682 -39.765307 
L 135.892925 -39.765307 
L 135.598169 -39.765307 
L 135.303412 -39.765307 
L 135.008655 -39.765307 
L 134.713899 -39.765307 
L 134.419142 -39.765307 
L 134.124386 -39.765307 
L 133.829629 -39.765307 
L 133.534873 -39.765307 
L 133.240116 -39.765307 
L 132.945359 -39.765307 
L 132.650603 -39.765307 
L 132.355846 -39.765307 
L 132.06109 -39.765307 
L 131.766333 -39.765307 
L 131.471576 -39.765307 
L 131.17682 -39.765307 
L 130.882063 -39.765307 
L 130.587307 -39.765307 
L 130.29255 -39.765307 
L 129.997794 -39.765307 
L 129.703037 -39.765307 
L 129.40828 -39.765307 
L 129.113524 -39.765307 
L 128.818767 -39.765307 
L 128.524011 -39.765307 
L 128.229254 -39.765307 
L 127.934498 -39.765307 
L 127.639741 -39.765307 
L 127.344984 -39.765307 
L 127.050228 -39.765307 
L 126.755471 -39.765307 
L 126.460715 -39.765307 
L 126.165958 -39.765307 
L 125.871202 -39.765307 
L 125.576445 -39.765307 
L 125.281688 -39.765307 
L 124.986932 -39.765307 
L 124.692175 -39.765307 
L 124.397419 -39.765307 
L 124.102662 -39.765307 
L 123.807906 -39.765307 
L 123.513149 -39.765307 
L 123.218392 -39.765307 
L 122.923636 -39.765307 
L 122.628879 -39.765307 
L 122.334123 -39.765307 
L 122.039366 -39.765307 
L 121.74461 -39.765307 
L 121.449853 -39.765307 
L 121.155096 -39.765307 
L 120.86034 -39.765307 
L 120.565583 -39.765307 
L 120.270827 -39.765307 
L 119.97607 -39.765307 
L 119.681313 -39.765307 
L 119.386557 -39.765307 
L 119.0918 -39.765307 
L 118.797044 -39.765307 
L 118.502287 -39.765307 
L 118.207531 -39.765307 
L 117.912774 -39.765307 
L 117.618017 -39.765307 
L 117.323261 -39.765307 
L 117.028504 -39.765307 
L 116.733748 -39.765307 
L 116.438991 -39.765307 
L 116.144235 -39.765307 
L 115.849478 -39.765307 
L 115.554721 -39.765307 
L 115.259965 -39.765307 
L 114.965208 -39.765307 
L 114.670452 -39.765307 
L 114.375695 -39.765307 
L 114.080939 -39.765307 
L 113.786182 -39.765307 
L 113.491425 -39.765307 
L 113.196669 -39.765307 
L 112.901912 -39.765307 
L 112.607156 -39.765307 
L 112.312399 -39.765307 
L 112.017643 -39.765307 
L 111.722886 -39.765307 
L 111.428129 -39.765307 
L 111.133373 -39.765307 
L 110.838616 -39.765307 
L 110.54386 -39.765307 
L 110.249103 -39.765307 
L 109.954347 -39.765307 
L 109.65959 -39.765307 
L 109.364833 -39.765307 
L 109.070077 -39.765307 
L 108.77532 -39.765307 
L 108.480564 -39.765307 
L 108.185807 -39.765307 
L 107.891051 -39.765307 
L 107.596294 -39.765307 
L 107.301537 -39.765307 
L 107.006781 -39.765307 
L 106.712024 -39.765307 
L 106.417268 -39.765307 
L 106.122511 -39.765307 
L 105.827754 -39.765307 
L 105.532998 -39.765307 
L 105.238241 -39.765307 
L 104.943485 -39.765307 
L 104.648728 -39.765307 
L 104.353972 -39.765307 
L 104.059215 -39.765307 
L 103.764458 -39.765307 
L 103.469702 -39.765307 
L 103.174945 -39.765307 
L 102.880189 -39.765307 
L 102.585432 -39.765307 
L 102.290676 -39.765307 
L 101.995919 -39.765307 
L 101.701162 -39.765307 
L 101.406406 -39.765307 
L 101.111649 -39.765307 
L 100.816893 -39.765307 
L 100.522136 -39.765307 
L 100.22738 -39.765307 
L 99.932623 -39.765307 
L 99.637866 -39.765307 
L 99.34311 -39.765307 
L 99.048353 -39.765307 
L 98.753597 -39.765307 
L 98.45884 -39.765307 
L 98.164084 -39.765307 
L 97.869327 -39.765307 
L 97.57457 -39.765307 
L 97.279814 -39.765307 
L 96.985057 -39.765307 
L 96.690301 -39.765307 
L 96.395544 -39.765307 
L 96.100788 -39.765307 
L 95.806031 -39.765307 
L 95.511274 -39.765307 
L 95.216518 -39.765307 
L 94.921761 -39.765307 
L 94.627005 -39.765307 
L 94.332248 -39.765307 
L 94.037491 -39.765307 
L 93.742735 -39.765307 
L 93.447978 -39.765307 
L 93.153222 -39.765307 
L 92.858465 -39.765307 
L 92.563709 -39.765307 
L 92.268952 -39.765307 
L 91.974195 -39.765307 
L 91.679439 -39.765307 
L 91.384682 -39.765307 
L 91.089926 -39.765307 
L 90.795169 -39.765307 
L 90.500413 -39.765307 
L 90.205656 -39.765307 
L 89.910899 -39.765307 
L 89.616143 -39.765307 
L 89.321386 -39.765307 
L 89.02663 -39.765307 
L 88.731873 -39.765307 
L 88.437117 -39.765307 
L 88.14236 -39.765307 
L 87.847603 -39.765307 
L 87.552847 -39.765307 
L 87.25809 -39.765307 
L 86.963334 -39.765307 
L 86.668577 -39.765307 
L 86.373821 -39.765307 
L 86.079064 -39.765307 
L 85.784307 -39.765307 
L 85.489551 -39.765307 
L 85.194794 -39.765307 
L 84.900038 -39.765307 
L 84.605281 -39.765307 
L 84.310525 -39.765307 
L 84.015768 -39.765307 
L 83.721011 -39.765307 
L 83.426255 -39.765307 
L 83.131498 -39.765307 
L 82.836742 -39.765307 
L 82.541985 -39.765307 
L 82.247229 -39.765307 
L 81.952472 -39.765307 
L 81.657715 -39.765307 
L 81.362959 -39.765307 
L 81.068202 -39.765307 
L 80.773446 -39.765307 
L 80.478689 -39.765307 
L 80.183932 -39.765307 
L 79.889176 -39.765307 
L 79.594419 -39.765307 
L 79.299663 -39.765307 
L 79.004906 -39.765307 
L 78.71015 -39.765307 
L 78.415393 -39.765307 
L 78.120636 -39.765307 
L 77.82588 -39.765307 
L 77.531123 -39.765307 
L 77.236367 -39.765307 
L 76.94161 -39.765307 
L 76.646854 -39.765307 
L 76.352097 -39.765307 
L 76.05734 -39.765307 
L 75.762584 -39.765307 
L 75.467827 -39.765307 
L 75.173071 -39.765307 
L 74.878314 -39.765307 
L 74.583558 -39.765307 
L 74.288801 -39.765307 
L 73.994044 -39.765307 
L 73.699288 -39.765307 
L 73.404531 -39.765307 
L 73.109775 -39.765307 
L 72.815018 -39.765307 
L 72.520262 -39.765307 
L 72.225505 -39.765307 
L 71.930748 -39.765307 
L 71.635992 -39.765307 
L 71.341235 -39.765307 
L 71.046479 -39.765307 
L 70.751722 -39.765307 
L 70.456966 -39.765307 
L 70.162209 -39.765307 
L 69.867452 -39.765307 
L 69.572696 -39.765307 
L 69.277939 -39.765307 
L 68.983183 -39.765307 
L 68.688426 -39.765307 
L 68.393669 -39.765307 
L 68.098913 -39.765307 
L 67.804156 -39.765307 
L 67.5094 -39.765307 
L 67.214643 -39.765307 
L 66.919887 -39.765307 
L 66.62513 -39.765307 
L 66.330373 -39.765307 
L 66.035617 -39.765307 
L 65.74086 -39.765307 
L 65.446104 -39.765307 
L 65.151347 -39.765307 
L 64.856591 -39.765307 
L 64.561834 -39.765307 
L 64.267077 -39.765307 
L 63.972321 -39.765307 
L 63.677564 -39.765307 
L 63.382808 -39.765307 
L 63.088051 -39.765307 
L 62.793295 -39.765307 
L 62.498538 -39.765307 
L 62.203781 -39.765307 
L 61.909025 -39.765307 
L 61.614268 -39.765307 
L 61.319512 -39.765307 
L 61.024755 -39.765307 
L 60.729999 -39.765307 
L 60.435242 -39.765307 
L 60.140485 -39.765307 
L 59.845729 -39.765307 
L 59.550972 -39.765307 
L 59.256216 -39.765307 
L 58.961459 -39.765307 
L 58.666703 -39.765307 
L 58.371946 -39.765307 
L 58.077189 -39.765307 
L 57.782433 -39.765307 
L 57.487676 -39.765307 
L 57.19292 -39.765307 
L 56.898163 -39.765307 
L 56.603406 -39.765307 
L 56.30865 -39.765307 
L 56.013893 -39.765307 
L 55.719137 -39.765307 
L 55.42438 -39.765307 
L 55.129624 -39.765307 
L 54.834867 -39.765307 
L 54.54011 -39.765307 
L 54.245354 -39.765307 
L 53.950597 -39.765307 
L 53.655841 -39.765307 
L 53.361084 -39.765307 
L 53.066328 -39.765307 
L 52.771571 -39.765307 
L 52.476814 -39.765307 
L 52.182058 -39.765307 
L 51.887301 -39.765307 
L 51.592545 -39.765307 
L 51.297788 -39.765307 
L 51.003032 -39.765307 
L 50.708275 -39.765307 
L 50.413518 -39.765307 
L 50.118762 -39.765307 
L 49.824005 -39.765307 
L 49.529249 -39.765307 
L 49.234492 -39.765307 
L 48.939736 -39.765307 
L 48.644979 -39.765307 
L 48.350222 -39.765307 
L 48.055466 -39.765307 
L 47.760709 -39.765307 
L 47.465953 -39.765307 
L 47.171196 -39.765307 
L 46.87644 -39.765307 
L 46.581683 -39.765307 
L 46.286926 -39.765307 
L 45.99217 -39.765307 
L 45.697413 -39.765307 
L 45.402657 -39.765307 
L 45.1079 -39.765307 
L 44.813144 -39.765307 
L 44.518387 -39.765307 
L 44.22363 -39.765307 
L 43.928874 -39.765307 
L 43.634117 -39.765307 
L 43.339361 -39.765307 
L 43.044604 -39.765307 
L 42.749847 -39.765307 
L 42.455091 -39.765307 
z
" style="stroke: #ffffff; stroke-opacity: 0.2; stroke-width: 0.8"/>
    </defs>
    <g clip-path="url(#pbb700fd6e6)">
     <use xlink:href="#me369fb94f6" x="0" y="426.799875" style="fill: #0000ff; fill-opacity: 0.2; stroke: #ffffff; stroke-opacity: 0.2; stroke-width: 0.8"/>
    </g>
   </g>
   <g id="line2d_15">
    <path d="M 42.455091 387.034568 
L 84.310525 387.034568 
L 84.605281 62.685932 
L 294.766719 62.685932 
L 295.061475 387.034568 
L 336.916909 387.034568 
L 336.916909 387.034568 
" clip-path="url(#pbb700fd6e6)" style="fill: none; stroke: #0173b2; stroke-width: 1.2; stroke-linecap: round"/>
   </g>
   <g id="LineCollection_1">
    <path d="M 231.751974 387.034568 
L 231.751974 62.685932 
" clip-path="url(#pbb700fd6e6)" style="fill: none; stroke: #0000ff; stroke-opacity: 0.5; stroke-width: 1.2"/>
   </g>
   <g id="patch_3">
    <path d="M 27.732 403.252 
L 27.732 46.4685 
" style="fill: none; stroke: #ffffff; stroke-linejoin: miter; stroke-linecap: square"/>
   </g>
   <g id="patch_4">
    <path d="M 351.64 403.252 
L 351.64 46.4685 
" style="fill: none; stroke: #ffffff; stroke-linejoin: miter; stroke-linecap: square"/>
   </g>
   <g id="patch_5">
    <path d="M 27.732 403.252 
L 351.64 403.252 
" style="fill: none; stroke: #ffffff; stroke-linejoin: miter; stroke-linecap: square"/>
   </g>
   <g id="patch_6">
    <path d="M 27.732 46.4685 
L 351.64 46.4685 
" style="fill: none; stroke: #ffffff; stroke-linejoin: miter; stroke-linecap: square"/>
   </g>
   <g id="text_15">
    <!-- $b$ -->
    <g style="fill: #262626" transform="translate(229.687974 393.906068) scale(0.096 -0.096)">
     <defs>
      <path id="Cmmi10-62" d="M 1106 -72 
Q 719 -72 503 231 
Q 288 534 288 941 
Q 288 1000 317 1173 
Q 347 1347 347 1388 
L 966 3872 
Q 991 3981 997 4044 
Q 997 4147 581 4147 
Q 519 4147 519 4231 
Q 522 4247 533 4287 
Q 544 4328 561 4350 
Q 578 4372 609 4372 
L 1472 4441 
Q 1550 4441 1550 4359 
L 1075 2472 
Q 1438 2828 1806 2828 
Q 2078 2828 2273 2684 
Q 2469 2541 2566 2306 
Q 2663 2072 2663 1806 
Q 2663 1497 2542 1167 
Q 2422 838 2209 555 
Q 1997 272 1712 100 
Q 1428 -72 1106 -72 
z
M 1119 97 
Q 1338 97 1528 280 
Q 1719 463 1838 691 
Q 1966 947 2077 1386 
Q 2188 1825 2188 2088 
Q 2188 2316 2092 2489 
Q 1997 2663 1791 2663 
Q 1559 2663 1348 2492 
Q 1138 2322 978 2088 
L 800 1363 
Q 697 959 691 716 
Q 691 475 795 286 
Q 900 97 1119 97 
z
" transform="scale(0.015625)"/>
     </defs>
     <use xlink:href="#Cmmi10-62" transform="translate(0 0.609375)"/>
    </g>
   </g>
   <g id="text_16">
    <!-- Pr$(\{U \leq b \})$     -->
    <g style="fill: #262626" transform="translate(171.271974 260.799114) scale(0.096 -0.096)">
     <defs>
      <path id="ArialMT-50" d="M 494 0 
L 494 4581 
L 2222 4581 
Q 2678 4581 2919 4538 
Q 3256 4481 3484 4323 
Q 3713 4166 3852 3881 
Q 3991 3597 3991 3256 
Q 3991 2672 3619 2267 
Q 3247 1863 2275 1863 
L 1100 1863 
L 1100 0 
L 494 0 
z
M 1100 2403 
L 2284 2403 
Q 2872 2403 3119 2622 
Q 3366 2841 3366 3238 
Q 3366 3525 3220 3729 
Q 3075 3934 2838 4000 
Q 2684 4041 2272 4041 
L 1100 4041 
L 1100 2403 
z
" transform="scale(0.015625)"/>
      <path id="ArialMT-72" d="M 416 0 
L 416 3319 
L 922 3319 
L 922 2816 
Q 1116 3169 1280 3281 
Q 1444 3394 1641 3394 
Q 1925 3394 2219 3213 
L 2025 2691 
Q 1819 2813 1613 2813 
Q 1428 2813 1281 2702 
Q 1134 2591 1072 2394 
Q 978 2094 978 1738 
L 978 0 
L 416 0 
z
" transform="scale(0.015625)"/>
      <path id="Cmr10-28" d="M 1984 -1588 
Q 1628 -1306 1370 -942 
Q 1113 -578 948 -165 
Q 784 247 703 697 
Q 622 1147 622 1600 
Q 622 2059 703 2509 
Q 784 2959 951 3375 
Q 1119 3791 1378 4153 
Q 1638 4516 1984 4788 
Q 1984 4800 2016 4800 
L 2075 4800 
Q 2094 4800 2109 4783 
Q 2125 4766 2125 4744 
Q 2125 4716 2113 4703 
Q 1800 4397 1592 4047 
Q 1384 3697 1257 3301 
Q 1131 2906 1075 2482 
Q 1019 2059 1019 1600 
Q 1019 -434 2106 -1491 
Q 2125 -1509 2125 -1544 
Q 2125 -1559 2108 -1579 
Q 2091 -1600 2075 -1600 
L 2016 -1600 
Q 1984 -1600 1984 -1588 
z
" transform="scale(0.015625)"/>
      <path id="Cmex10-a9" d="M 1631 -6425 
L 1631 -4556 
Q 1631 -4338 1503 -4159 
Q 1375 -3981 1184 -3867 
Q 994 -3753 756 -3675 
Q 709 -3650 709 -3622 
L 709 -3547 
Q 709 -3503 756 -3494 
Q 1128 -3366 1379 -3150 
Q 1631 -2934 1631 -2606 
L 1631 -738 
Q 1631 -325 2004 -95 
Q 2378 134 2888 256 
L 2963 256 
Q 2981 256 2998 242 
Q 3016 228 3016 206 
L 3016 128 
Q 3016 91 2975 78 
Q 2619 -31 2359 -232 
Q 2100 -434 2100 -750 
L 2100 -2619 
Q 2100 -2994 1804 -3214 
Q 1509 -3434 1056 -3584 
Q 1497 -3716 1798 -3939 
Q 2100 -4163 2100 -4544 
L 2100 -6413 
Q 2100 -6628 2231 -6790 
Q 2363 -6953 2556 -7059 
Q 2750 -7166 2975 -7238 
Q 3016 -7250 3016 -7291 
L 3016 -7366 
Q 3016 -7384 2998 -7401 
Q 2981 -7419 2963 -7419 
L 2888 -7419 
Q 2559 -7338 2292 -7227 
Q 2025 -7116 1828 -6914 
Q 1631 -6713 1631 -6425 
z
" transform="scale(0.015625)"/>
      <path id="Cmmi10-55" d="M 941 891 
Q 941 656 1033 472 
Q 1125 288 1300 186 
Q 1475 84 1709 84 
Q 1984 84 2245 196 
Q 2506 309 2715 509 
Q 2925 709 3073 965 
Q 3222 1222 3284 1472 
L 3859 3781 
Q 3872 3850 3872 3878 
Q 3872 4147 3378 4147 
Q 3316 4147 3316 4231 
Q 3338 4313 3350 4342 
Q 3363 4372 3425 4372 
L 4813 4372 
Q 4841 4372 4859 4344 
Q 4878 4316 4878 4288 
Q 4878 4284 4865 4239 
Q 4853 4194 4836 4170 
Q 4819 4147 4794 4147 
Q 4181 4147 4084 3756 
L 3506 1447 
Q 3434 1147 3264 864 
Q 3094 581 2845 351 
Q 2597 122 2298 -9 
Q 2000 -141 1691 -141 
Q 1338 -141 1045 14 
Q 753 169 587 447 
Q 422 725 422 1088 
Q 422 1297 469 1472 
L 1088 3956 
Q 1100 4019 1100 4044 
Q 1100 4113 1025 4122 
Q 903 4147 563 4147 
Q 500 4147 500 4231 
Q 522 4313 534 4342 
Q 547 4372 609 4372 
L 2328 4372 
Q 2394 4372 2394 4288 
Q 2391 4272 2381 4234 
Q 2372 4197 2356 4172 
Q 2341 4147 2309 4147 
Q 1919 4147 1766 4103 
Q 1681 4072 1644 3928 
L 1025 1447 
Q 941 1109 941 891 
z
" transform="scale(0.015625)"/>
      <path id="Cmsy10-2219" d="M 653 -878 
Q 600 -878 565 -837 
Q 531 -797 531 -750 
Q 531 -697 565 -659 
Q 600 -622 653 -622 
L 4325 -622 
Q 4375 -622 4408 -659 
Q 4441 -697 4441 -750 
Q 4441 -797 4408 -837 
Q 4375 -878 4325 -878 
L 653 -878 
z
M 594 2113 
Q 531 2131 531 2222 
Q 531 2303 616 2338 
L 4269 4063 
Q 4281 4072 4313 4072 
Q 4366 4072 4403 4034 
Q 4441 3997 4441 3944 
Q 4441 3859 4366 3828 
L 959 2222 
L 4384 603 
Q 4441 572 4441 494 
Q 4441 438 4403 402 
Q 4366 366 4313 366 
Q 4281 366 4269 378 
L 594 2113 
z
" transform="scale(0.015625)"/>
      <path id="Cmex10-aa" d="M 709 -7366 
L 709 -7291 
Q 709 -7247 756 -7238 
Q 1631 -6953 1631 -6413 
L 1631 -4544 
Q 1631 -3909 2669 -3584 
Q 2219 -3431 1925 -3209 
Q 1631 -2988 1631 -2619 
L 1631 -750 
Q 1631 -206 756 78 
Q 709 88 709 128 
L 709 206 
Q 709 256 769 256 
L 844 256 
Q 1359 131 1729 -97 
Q 2100 -325 2100 -738 
L 2100 -2606 
Q 2100 -2925 2354 -3142 
Q 2609 -3359 2975 -3494 
Q 3016 -3506 3016 -3547 
L 3016 -3622 
Q 3016 -3641 2975 -3675 
Q 2769 -3744 2566 -3864 
Q 2363 -3984 2231 -4161 
Q 2100 -4338 2100 -4556 
L 2100 -6425 
Q 2100 -6713 1901 -6914 
Q 1703 -7116 1437 -7227 
Q 1172 -7338 844 -7419 
L 769 -7419 
Q 744 -7419 726 -7401 
Q 709 -7384 709 -7366 
z
" transform="scale(0.015625)"/>
      <path id="Cmr10-29" d="M 416 -1600 
Q 359 -1600 359 -1544 
Q 359 -1516 372 -1503 
Q 1466 -434 1466 1600 
Q 1466 3634 384 4691 
Q 359 4706 359 4744 
Q 359 4766 376 4783 
Q 394 4800 416 4800 
L 475 4800 
Q 494 4800 506 4788 
Q 966 4425 1272 3906 
Q 1578 3388 1720 2800 
Q 1863 2213 1863 1600 
Q 1863 1147 1786 708 
Q 1709 269 1542 -157 
Q 1375 -584 1119 -945 
Q 863 -1306 506 -1588 
Q 494 -1600 475 -1600 
L 416 -1600 
z
" transform="scale(0.015625)"/>
      <path id="ArialMT-20" transform="scale(0.015625)"/>
     </defs>
     <use xlink:href="#ArialMT-50" transform="translate(0 0.705729)"/>
     <use xlink:href="#ArialMT-72" transform="translate(66.699219 0.705729)"/>
     <use xlink:href="#Cmr10-28" transform="translate(100 0.705729)"/>
     <use xlink:href="#Cmex10-a9" transform="translate(138.818359 94)"/>
     <use xlink:href="#Cmmi10-55" transform="translate(197.119141 0.705729)"/>
     <use xlink:href="#Cmsy10-2219" transform="translate(282.890625 0.705729)"/>
     <use xlink:href="#Cmmi10-62" transform="translate(378.134766 0.705729)"/>
     <use xlink:href="#Cmex10-aa" transform="translate(421.054688 94)"/>
     <use xlink:href="#Cmr10-29" transform="translate(479.355469 0.705729)"/>
     <use xlink:href="#ArialMT-20" transform="translate(518.173828 0.705729)"/>
     <use xlink:href="#ArialMT-20" transform="translate(545.957031 0.705729)"/>
     <use xlink:href="#ArialMT-20" transform="translate(573.740234 0.705729)"/>
     <use xlink:href="#ArialMT-20" transform="translate(601.523438 0.705729)"/>
    </g>
   </g>
   <g id="text_17">
    <!-- Funzione di densità di probabilità -->
    <g style="fill: #262626" transform="translate(119.51225 40.4685) scale(0.096 -0.096)">
     <defs>
      <path id="ArialMT-46" d="M 525 0 
L 525 4581 
L 3616 4581 
L 3616 4041 
L 1131 4041 
L 1131 2622 
L 3281 2622 
L 3281 2081 
L 1131 2081 
L 1131 0 
L 525 0 
z
" transform="scale(0.015625)"/>
      <path id="ArialMT-75" d="M 2597 0 
L 2597 488 
Q 2209 -75 1544 -75 
Q 1250 -75 995 37 
Q 741 150 617 320 
Q 494 491 444 738 
Q 409 903 409 1263 
L 409 3319 
L 972 3319 
L 972 1478 
Q 972 1038 1006 884 
Q 1059 663 1231 536 
Q 1403 409 1656 409 
Q 1909 409 2131 539 
Q 2353 669 2445 892 
Q 2538 1116 2538 1541 
L 2538 3319 
L 3100 3319 
L 3100 0 
L 2597 0 
z
" transform="scale(0.015625)"/>
      <path id="ArialMT-6e" d="M 422 0 
L 422 3319 
L 928 3319 
L 928 2847 
Q 1294 3394 1984 3394 
Q 2284 3394 2536 3286 
Q 2788 3178 2913 3003 
Q 3038 2828 3088 2588 
Q 3119 2431 3119 2041 
L 3119 0 
L 2556 0 
L 2556 2019 
Q 2556 2363 2490 2533 
Q 2425 2703 2258 2804 
Q 2091 2906 1866 2906 
Q 1506 2906 1245 2678 
Q 984 2450 984 1813 
L 984 0 
L 422 0 
z
" transform="scale(0.015625)"/>
      <path id="ArialMT-7a" d="M 125 0 
L 125 456 
L 2238 2881 
Q 1878 2863 1603 2863 
L 250 2863 
L 250 3319 
L 2963 3319 
L 2963 2947 
L 1166 841 
L 819 456 
Q 1197 484 1528 484 
L 3063 484 
L 3063 0 
L 125 0 
z
" transform="scale(0.015625)"/>
      <path id="ArialMT-69" d="M 425 3934 
L 425 4581 
L 988 4581 
L 988 3934 
L 425 3934 
z
M 425 0 
L 425 3319 
L 988 3319 
L 988 0 
L 425 0 
z
" transform="scale(0.015625)"/>
      <path id="ArialMT-6f" d="M 213 1659 
Q 213 2581 725 3025 
Q 1153 3394 1769 3394 
Q 2453 3394 2887 2945 
Q 3322 2497 3322 1706 
Q 3322 1066 3130 698 
Q 2938 331 2570 128 
Q 2203 -75 1769 -75 
Q 1072 -75 642 372 
Q 213 819 213 1659 
z
M 791 1659 
Q 791 1022 1069 705 
Q 1347 388 1769 388 
Q 2188 388 2466 706 
Q 2744 1025 2744 1678 
Q 2744 2294 2464 2611 
Q 2184 2928 1769 2928 
Q 1347 2928 1069 2612 
Q 791 2297 791 1659 
z
" transform="scale(0.015625)"/>
      <path id="ArialMT-65" d="M 2694 1069 
L 3275 997 
Q 3138 488 2766 206 
Q 2394 -75 1816 -75 
Q 1088 -75 661 373 
Q 234 822 234 1631 
Q 234 2469 665 2931 
Q 1097 3394 1784 3394 
Q 2450 3394 2872 2941 
Q 3294 2488 3294 1666 
Q 3294 1616 3291 1516 
L 816 1516 
Q 847 969 1125 678 
Q 1403 388 1819 388 
Q 2128 388 2347 550 
Q 2566 713 2694 1069 
z
M 847 1978 
L 2700 1978 
Q 2663 2397 2488 2606 
Q 2219 2931 1791 2931 
Q 1403 2931 1139 2672 
Q 875 2413 847 1978 
z
" transform="scale(0.015625)"/>
      <path id="ArialMT-64" d="M 2575 0 
L 2575 419 
Q 2259 -75 1647 -75 
Q 1250 -75 917 144 
Q 584 363 401 755 
Q 219 1147 219 1656 
Q 219 2153 384 2558 
Q 550 2963 881 3178 
Q 1213 3394 1622 3394 
Q 1922 3394 2156 3267 
Q 2391 3141 2538 2938 
L 2538 4581 
L 3097 4581 
L 3097 0 
L 2575 0 
z
M 797 1656 
Q 797 1019 1065 703 
Q 1334 388 1700 388 
Q 2069 388 2326 689 
Q 2584 991 2584 1609 
Q 2584 2291 2321 2609 
Q 2059 2928 1675 2928 
Q 1300 2928 1048 2622 
Q 797 2316 797 1656 
z
" transform="scale(0.015625)"/>
      <path id="ArialMT-73" d="M 197 991 
L 753 1078 
Q 800 744 1014 566 
Q 1228 388 1613 388 
Q 2000 388 2187 545 
Q 2375 703 2375 916 
Q 2375 1106 2209 1216 
Q 2094 1291 1634 1406 
Q 1016 1563 777 1677 
Q 538 1791 414 1992 
Q 291 2194 291 2438 
Q 291 2659 392 2848 
Q 494 3038 669 3163 
Q 800 3259 1026 3326 
Q 1253 3394 1513 3394 
Q 1903 3394 2198 3281 
Q 2494 3169 2634 2976 
Q 2775 2784 2828 2463 
L 2278 2388 
Q 2241 2644 2061 2787 
Q 1881 2931 1553 2931 
Q 1166 2931 1000 2803 
Q 834 2675 834 2503 
Q 834 2394 903 2306 
Q 972 2216 1119 2156 
Q 1203 2125 1616 2013 
Q 2213 1853 2448 1751 
Q 2684 1650 2818 1456 
Q 2953 1263 2953 975 
Q 2953 694 2789 445 
Q 2625 197 2315 61 
Q 2006 -75 1616 -75 
Q 969 -75 630 194 
Q 291 463 197 991 
z
" transform="scale(0.015625)"/>
      <path id="ArialMT-74" d="M 1650 503 
L 1731 6 
Q 1494 -44 1306 -44 
Q 1000 -44 831 53 
Q 663 150 594 308 
Q 525 466 525 972 
L 525 2881 
L 113 2881 
L 113 3319 
L 525 3319 
L 525 4141 
L 1084 4478 
L 1084 3319 
L 1650 3319 
L 1650 2881 
L 1084 2881 
L 1084 941 
Q 1084 700 1114 631 
Q 1144 563 1211 522 
Q 1278 481 1403 481 
Q 1497 481 1650 503 
z
" transform="scale(0.015625)"/>
      <path id="ArialMT-e0" d="M 2588 409 
Q 2275 144 1986 34 
Q 1697 -75 1366 -75 
Q 819 -75 525 192 
Q 231 459 231 875 
Q 231 1119 342 1320 
Q 453 1522 633 1644 
Q 813 1766 1038 1828 
Q 1203 1872 1538 1913 
Q 2219 1994 2541 2106 
Q 2544 2222 2544 2253 
Q 2544 2597 2384 2738 
Q 2169 2928 1744 2928 
Q 1347 2928 1158 2789 
Q 969 2650 878 2297 
L 328 2372 
Q 403 2725 575 2942 
Q 747 3159 1072 3276 
Q 1397 3394 1825 3394 
Q 2250 3394 2515 3294 
Q 2781 3194 2906 3042 
Q 3031 2891 3081 2659 
Q 3109 2516 3109 2141 
L 3109 1391 
Q 3109 606 3145 398 
Q 3181 191 3288 0 
L 2700 0 
Q 2613 175 2588 409 
z
M 2541 1666 
Q 2234 1541 1622 1453 
Q 1275 1403 1131 1340 
Q 988 1278 909 1158 
Q 831 1038 831 891 
Q 831 666 1001 516 
Q 1172 366 1500 366 
Q 1825 366 2078 508 
Q 2331 650 2450 897 
Q 2541 1088 2541 1459 
L 2541 1666 
z
M 2234 3731 
L 1781 3731 
L 1059 4606 
L 1813 4606 
L 2234 3731 
z
" transform="scale(0.015625)"/>
      <path id="ArialMT-70" d="M 422 -1272 
L 422 3319 
L 934 3319 
L 934 2888 
Q 1116 3141 1344 3267 
Q 1572 3394 1897 3394 
Q 2322 3394 2647 3175 
Q 2972 2956 3137 2557 
Q 3303 2159 3303 1684 
Q 3303 1175 3120 767 
Q 2938 359 2589 142 
Q 2241 -75 1856 -75 
Q 1575 -75 1351 44 
Q 1128 163 984 344 
L 984 -1272 
L 422 -1272 
z
M 931 1641 
Q 931 1000 1190 694 
Q 1450 388 1819 388 
Q 2194 388 2461 705 
Q 2728 1022 2728 1688 
Q 2728 2322 2467 2637 
Q 2206 2953 1844 2953 
Q 1484 2953 1207 2617 
Q 931 2281 931 1641 
z
" transform="scale(0.015625)"/>
      <path id="ArialMT-62" d="M 941 0 
L 419 0 
L 419 4581 
L 981 4581 
L 981 2947 
Q 1338 3394 1891 3394 
Q 2197 3394 2470 3270 
Q 2744 3147 2920 2923 
Q 3097 2700 3197 2384 
Q 3297 2069 3297 1709 
Q 3297 856 2875 390 
Q 2453 -75 1863 -75 
Q 1275 -75 941 416 
L 941 0 
z
M 934 1684 
Q 934 1088 1097 822 
Q 1363 388 1816 388 
Q 2184 388 2453 708 
Q 2722 1028 2722 1663 
Q 2722 2313 2464 2622 
Q 2206 2931 1841 2931 
Q 1472 2931 1203 2611 
Q 934 2291 934 1684 
z
" transform="scale(0.015625)"/>
      <path id="ArialMT-61" d="M 2588 409 
Q 2275 144 1986 34 
Q 1697 -75 1366 -75 
Q 819 -75 525 192 
Q 231 459 231 875 
Q 231 1119 342 1320 
Q 453 1522 633 1644 
Q 813 1766 1038 1828 
Q 1203 1872 1538 1913 
Q 2219 1994 2541 2106 
Q 2544 2222 2544 2253 
Q 2544 2597 2384 2738 
Q 2169 2928 1744 2928 
Q 1347 2928 1158 2789 
Q 969 2650 878 2297 
L 328 2372 
Q 403 2725 575 2942 
Q 747 3159 1072 3276 
Q 1397 3394 1825 3394 
Q 2250 3394 2515 3294 
Q 2781 3194 2906 3042 
Q 3031 2891 3081 2659 
Q 3109 2516 3109 2141 
L 3109 1391 
Q 3109 606 3145 398 
Q 3181 191 3288 0 
L 2700 0 
Q 2613 175 2588 409 
z
M 2541 1666 
Q 2234 1541 1622 1453 
Q 1275 1403 1131 1340 
Q 988 1278 909 1158 
Q 831 1038 831 891 
Q 831 666 1001 516 
Q 1172 366 1500 366 
Q 1825 366 2078 508 
Q 2331 650 2450 897 
Q 2541 1088 2541 1459 
L 2541 1666 
z
" transform="scale(0.015625)"/>
      <path id="ArialMT-6c" d="M 409 0 
L 409 4581 
L 972 4581 
L 972 0 
L 409 0 
z
" transform="scale(0.015625)"/>
     </defs>
     <use xlink:href="#ArialMT-46"/>
     <use xlink:href="#ArialMT-75" x="61.083984"/>
     <use xlink:href="#ArialMT-6e" x="116.699219"/>
     <use xlink:href="#ArialMT-7a" x="172.314453"/>
     <use xlink:href="#ArialMT-69" x="222.314453"/>
     <use xlink:href="#ArialMT-6f" x="244.53125"/>
     <use xlink:href="#ArialMT-6e" x="300.146484"/>
     <use xlink:href="#ArialMT-65" x="355.761719"/>
     <use xlink:href="#ArialMT-20" x="411.376953"/>
     <use xlink:href="#ArialMT-64" x="439.160156"/>
     <use xlink:href="#ArialMT-69" x="494.775391"/>
     <use xlink:href="#ArialMT-20" x="516.992188"/>
     <use xlink:href="#ArialMT-64" x="544.775391"/>
     <use xlink:href="#ArialMT-65" x="600.390625"/>
     <use xlink:href="#ArialMT-6e" x="656.005859"/>
     <use xlink:href="#ArialMT-73" x="711.621094"/>
     <use xlink:href="#ArialMT-69" x="761.621094"/>
     <use xlink:href="#ArialMT-74" x="783.837891"/>
     <use xlink:href="#ArialMT-e0" x="811.621094"/>
     <use xlink:href="#ArialMT-20" x="867.236328"/>
     <use xlink:href="#ArialMT-64" x="895.019531"/>
     <use xlink:href="#ArialMT-69" x="950.634766"/>
     <use xlink:href="#ArialMT-20" x="972.851562"/>
     <use xlink:href="#ArialMT-70" x="1000.634766"/>
     <use xlink:href="#ArialMT-72" x="1056.25"/>
     <use xlink:href="#ArialMT-6f" x="1089.550781"/>
     <use xlink:href="#ArialMT-62" x="1145.166016"/>
     <use xlink:href="#ArialMT-61" x="1200.78125"/>
     <use xlink:href="#ArialMT-62" x="1256.396484"/>
     <use xlink:href="#ArialMT-69" x="1312.011719"/>
     <use xlink:href="#ArialMT-6c" x="1334.228516"/>
     <use xlink:href="#ArialMT-69" x="1356.445312"/>
     <use xlink:href="#ArialMT-74" x="1378.662109"/>
     <use xlink:href="#ArialMT-e0" x="1406.445312"/>
    </g>
   </g>
  </g>
  <g id="axes_2">
   <g id="patch_7">
    <path d="M 382.548 403.252 
L 706.456 403.252 
L 706.456 46.4685 
L 382.548 46.4685 
z
" style="fill: #eaeaf2"/>
   </g>
   <g id="matplotlib.axis_3">
    <g id="xtick_9">
     <g id="line2d_16">
      <path d="M 397.271091 403.252 
L 397.271091 46.4685 
" clip-path="url(#p3d165e97d7)" style="fill: none; stroke: #ffffff; stroke-width: 0.8; stroke-linecap: round"/>
     </g>
     <g id="text_18">
      <!-- −0.2 -->
      <g style="fill: #262626" transform="translate(388.585216 417.850875) scale(0.088 -0.088)">
       <use xlink:href="#ArialMT-2212"/>
       <use xlink:href="#ArialMT-30" x="58.398438"/>
       <use xlink:href="#ArialMT-2e" x="114.013672"/>
       <use xlink:href="#ArialMT-32" x="141.796875"/>
      </g>
     </g>
    </g>
    <g id="xtick_10">
     <g id="line2d_17">
      <path d="M 439.337065 403.252 
L 439.337065 46.4685 
" clip-path="url(#p3d165e97d7)" style="fill: none; stroke: #ffffff; stroke-width: 0.8; stroke-linecap: round"/>
     </g>
     <g id="text_19">
      <!-- 0.0 -->
      <g style="fill: #262626" transform="translate(433.221065 417.850875) scale(0.088 -0.088)">
       <use xlink:href="#ArialMT-30"/>
       <use xlink:href="#ArialMT-2e" x="55.615234"/>
       <use xlink:href="#ArialMT-30" x="83.398438"/>
      </g>
     </g>
    </g>
    <g id="xtick_11">
     <g id="line2d_18">
      <path d="M 481.403039 403.252 
L 481.403039 46.4685 
" clip-path="url(#p3d165e97d7)" style="fill: none; stroke: #ffffff; stroke-width: 0.8; stroke-linecap: round"/>
     </g>
     <g id="text_20">
      <!-- 0.2 -->
      <g style="fill: #262626" transform="translate(475.287039 417.850875) scale(0.088 -0.088)">
       <use xlink:href="#ArialMT-30"/>
       <use xlink:href="#ArialMT-2e" x="55.615234"/>
       <use xlink:href="#ArialMT-32" x="83.398438"/>
      </g>
     </g>
    </g>
    <g id="xtick_12">
     <g id="line2d_19">
      <path d="M 523.469013 403.252 
L 523.469013 46.4685 
" clip-path="url(#p3d165e97d7)" style="fill: none; stroke: #ffffff; stroke-width: 0.8; stroke-linecap: round"/>
     </g>
     <g id="text_21">
      <!-- 0.4 -->
      <g style="fill: #262626" transform="translate(517.353013 417.850875) scale(0.088 -0.088)">
       <use xlink:href="#ArialMT-30"/>
       <use xlink:href="#ArialMT-2e" x="55.615234"/>
       <use xlink:href="#ArialMT-34" x="83.398438"/>
      </g>
     </g>
    </g>
    <g id="xtick_13">
     <g id="line2d_20">
      <path d="M 565.534987 403.252 
L 565.534987 46.4685 
" clip-path="url(#p3d165e97d7)" style="fill: none; stroke: #ffffff; stroke-width: 0.8; stroke-linecap: round"/>
     </g>
     <g id="text_22">
      <!-- 0.6 -->
      <g style="fill: #262626" transform="translate(559.418987 417.850875) scale(0.088 -0.088)">
       <use xlink:href="#ArialMT-30"/>
       <use xlink:href="#ArialMT-2e" x="55.615234"/>
       <use xlink:href="#ArialMT-36" x="83.398438"/>
      </g>
     </g>
    </g>
    <g id="xtick_14">
     <g id="line2d_21">
      <path d="M 607.600961 403.252 
L 607.600961 46.4685 
" clip-path="url(#p3d165e97d7)" style="fill: none; stroke: #ffffff; stroke-width: 0.8; stroke-linecap: round"/>
     </g>
     <g id="text_23">
      <!-- 0.8 -->
      <g style="fill: #262626" transform="translate(601.484961 417.850875) scale(0.088 -0.088)">
       <use xlink:href="#ArialMT-30"/>
       <use xlink:href="#ArialMT-2e" x="55.615234"/>
       <use xlink:href="#ArialMT-38" x="83.398438"/>
      </g>
     </g>
    </g>
    <g id="xtick_15">
     <g id="line2d_22">
      <path d="M 649.666935 403.252 
L 649.666935 46.4685 
" clip-path="url(#p3d165e97d7)" style="fill: none; stroke: #ffffff; stroke-width: 0.8; stroke-linecap: round"/>
     </g>
     <g id="text_24">
      <!-- 1.0 -->
      <g style="fill: #262626" transform="translate(643.550935 417.850875) scale(0.088 -0.088)">
       <use xlink:href="#ArialMT-31"/>
       <use xlink:href="#ArialMT-2e" x="55.615234"/>
       <use xlink:href="#ArialMT-30" x="83.398438"/>
      </g>
     </g>
    </g>
    <g id="xtick_16">
     <g id="line2d_23">
      <path d="M 691.732909 403.252 
L 691.732909 46.4685 
" clip-path="url(#p3d165e97d7)" style="fill: none; stroke: #ffffff; stroke-width: 0.8; stroke-linecap: round"/>
     </g>
     <g id="text_25">
      <!-- 1.2 -->
      <g style="fill: #262626" transform="translate(685.616909 417.850875) scale(0.088 -0.088)">
       <use xlink:href="#ArialMT-31"/>
       <use xlink:href="#ArialMT-2e" x="55.615234"/>
       <use xlink:href="#ArialMT-32" x="83.398438"/>
      </g>
     </g>
    </g>
   </g>
   <g id="matplotlib.axis_4">
    <g id="ytick_7">
     <g id="line2d_24">
      <path d="M 382.548 387.034568 
L 706.456 387.034568 
" clip-path="url(#p3d165e97d7)" style="fill: none; stroke: #ffffff; stroke-width: 0.8; stroke-linecap: round"/>
     </g>
     <g id="text_26">
      <!-- 0.0 -->
      <g style="fill: #262626" transform="translate(362.016 390.184006) scale(0.088 -0.088)">
       <use xlink:href="#ArialMT-30"/>
       <use xlink:href="#ArialMT-2e" x="55.615234"/>
       <use xlink:href="#ArialMT-30" x="83.398438"/>
      </g>
     </g>
    </g>
    <g id="ytick_8">
     <g id="line2d_25">
      <path d="M 382.548 322.164841 
L 706.456 322.164841 
" clip-path="url(#p3d165e97d7)" style="fill: none; stroke: #ffffff; stroke-width: 0.8; stroke-linecap: round"/>
     </g>
     <g id="text_27">
      <!-- 0.2 -->
      <g style="fill: #262626" transform="translate(362.016 325.314278) scale(0.088 -0.088)">
       <use xlink:href="#ArialMT-30"/>
       <use xlink:href="#ArialMT-2e" x="55.615234"/>
       <use xlink:href="#ArialMT-32" x="83.398438"/>
      </g>
     </g>
    </g>
    <g id="ytick_9">
     <g id="line2d_26">
      <path d="M 382.548 257.295114 
L 706.456 257.295114 
" clip-path="url(#p3d165e97d7)" style="fill: none; stroke: #ffffff; stroke-width: 0.8; stroke-linecap: round"/>
     </g>
     <g id="text_28">
      <!-- 0.4 -->
      <g style="fill: #262626" transform="translate(362.016 260.444551) scale(0.088 -0.088)">
       <use xlink:href="#ArialMT-30"/>
       <use xlink:href="#ArialMT-2e" x="55.615234"/>
       <use xlink:href="#ArialMT-34" x="83.398438"/>
      </g>
     </g>
    </g>
    <g id="ytick_10">
     <g id="line2d_27">
      <path d="M 382.548 192.425386 
L 706.456 192.425386 
" clip-path="url(#p3d165e97d7)" style="fill: none; stroke: #ffffff; stroke-width: 0.8; stroke-linecap: round"/>
     </g>
     <g id="text_29">
      <!-- 0.6 -->
      <g style="fill: #262626" transform="translate(362.016 195.574824) scale(0.088 -0.088)">
       <use xlink:href="#ArialMT-30"/>
       <use xlink:href="#ArialMT-2e" x="55.615234"/>
       <use xlink:href="#ArialMT-36" x="83.398438"/>
      </g>
     </g>
    </g>
    <g id="ytick_11">
     <g id="line2d_28">
      <path d="M 382.548 127.555659 
L 706.456 127.555659 
" clip-path="url(#p3d165e97d7)" style="fill: none; stroke: #ffffff; stroke-width: 0.8; stroke-linecap: round"/>
     </g>
     <g id="text_30">
      <!-- 0.8 -->
      <g style="fill: #262626" transform="translate(362.016 130.705097) scale(0.088 -0.088)">
       <use xlink:href="#ArialMT-30"/>
       <use xlink:href="#ArialMT-2e" x="55.615234"/>
       <use xlink:href="#ArialMT-38" x="83.398438"/>
      </g>
     </g>
    </g>
    <g id="ytick_12">
     <g id="line2d_29">
      <path d="M 382.548 62.685932 
L 706.456 62.685932 
" clip-path="url(#p3d165e97d7)" style="fill: none; stroke: #ffffff; stroke-width: 0.8; stroke-linecap: round"/>
     </g>
     <g id="text_31">
      <!-- 1.0 -->
      <g style="fill: #262626" transform="translate(362.016 65.835369) scale(0.088 -0.088)">
       <use xlink:href="#ArialMT-31"/>
       <use xlink:href="#ArialMT-2e" x="55.615234"/>
       <use xlink:href="#ArialMT-30" x="83.398438"/>
      </g>
     </g>
    </g>
   </g>
   <g id="PolyCollection_3"/>
   <g id="line2d_30">
    <path d="M 397.271091 387.034568 
L 439.126525 387.034568 
L 439.421281 386.904699 
L 649.582719 62.815801 
L 649.877475 62.685932 
L 691.732909 62.685932 
L 691.732909 62.685932 
" clip-path="url(#p3d165e97d7)" style="fill: none; stroke: #0173b2; stroke-width: 1.2; stroke-linecap: round"/>
   </g>
   <g id="LineCollection_2">
    <path d="M 586.567974 387.034568 
L 586.567974 159.990523 
" clip-path="url(#p3d165e97d7)" style="fill: none; stroke: #0000ff; stroke-width: 1.2"/>
   </g>
   <g id="patch_8">
    <path d="M 382.548 403.252 
L 382.548 46.4685 
" style="fill: none; stroke: #ffffff; stroke-linejoin: miter; stroke-linecap: square"/>
   </g>
   <g id="patch_9">
    <path d="M 706.456 403.252 
L 706.456 46.4685 
" style="fill: none; stroke: #ffffff; stroke-linejoin: miter; stroke-linecap: square"/>
   </g>
   <g id="patch_10">
    <path d="M 382.548 403.252 
L 706.456 403.252 
" style="fill: none; stroke: #ffffff; stroke-linejoin: miter; stroke-linecap: square"/>
   </g>
   <g id="patch_11">
    <path d="M 382.548 46.4685 
L 706.456 46.4685 
" style="fill: none; stroke: #ffffff; stroke-linejoin: miter; stroke-linecap: square"/>
   </g>
   <g id="text_32">
    <!-- $b$ -->
    <g style="fill: #262626" transform="translate(584.503974 393.906068) scale(0.096 -0.096)">
     <use xlink:href="#Cmmi10-62" transform="translate(0 0.609375)"/>
    </g>
   </g>
   <g id="text_33">
    <!-- $(b, F_{U}(b))$ -->
    <g style="fill: #262626" transform="translate(547.687974 157.590523) scale(0.096 -0.096)">
     <defs>
      <path id="Cmmi10-3b" d="M 634 -1153 
Q 634 -1125 659 -1100 
Q 891 -878 1019 -587 
Q 1147 -297 1147 25 
L 1147 103 
Q 1044 0 891 0 
Q 744 0 641 103 
Q 538 206 538 353 
Q 538 503 641 603 
Q 744 703 891 703 
Q 1119 703 1216 492 
Q 1313 281 1313 25 
Q 1313 -331 1170 -651 
Q 1028 -972 769 -1228 
Q 744 -1241 728 -1241 
Q 697 -1241 665 -1212 
Q 634 -1184 634 -1153 
z
" transform="scale(0.015625)"/>
      <path id="Cmmi10-46" d="M 300 0 
Q 238 0 238 84 
Q 241 100 250 139 
Q 259 178 276 201 
Q 294 225 319 225 
Q 709 225 863 269 
Q 947 297 984 441 
L 1863 3956 
Q 1875 4019 1875 4044 
Q 1875 4113 1797 4122 
Q 1678 4147 1338 4147 
Q 1275 4147 1275 4231 
Q 1278 4247 1287 4286 
Q 1297 4325 1314 4348 
Q 1331 4372 1356 4372 
L 4738 4372 
Q 4800 4372 4800 4288 
L 4647 2963 
Q 4647 2944 4625 2925 
Q 4603 2906 4581 2906 
L 4525 2906 
Q 4459 2906 4459 2988 
Q 4500 3278 4500 3463 
Q 4500 3781 4362 3931 
Q 4225 4081 4015 4114 
Q 3806 4147 3438 4147 
L 2753 4147 
Q 2578 4147 2522 4117 
Q 2466 4088 2419 3928 
L 2009 2297 
L 2491 2297 
Q 2728 2297 2875 2322 
Q 3022 2347 3119 2419 
Q 3216 2491 3280 2627 
Q 3344 2763 3397 2988 
Q 3416 3047 3463 3047 
L 3519 3047 
Q 3584 3047 3584 2963 
L 3194 1381 
Q 3166 1325 3128 1325 
L 3072 1325 
Q 3009 1325 3009 1409 
Q 3025 1475 3034 1519 
Q 3044 1563 3058 1645 
Q 3072 1728 3072 1791 
Q 3072 1975 2909 2025 
Q 2747 2075 2484 2075 
L 1959 2075 
L 1544 416 
Q 1528 353 1528 353 
Q 1528 278 1575 269 
Q 1741 225 2228 225 
Q 2291 225 2291 141 
Q 2269 50 2256 25 
Q 2244 0 2181 0 
L 300 0 
z
" transform="scale(0.015625)"/>
     </defs>
     <use xlink:href="#Cmr10-28"/>
     <use xlink:href="#Cmmi10-62" transform="translate(38.818359 0)"/>
     <use xlink:href="#Cmmi10-3b" transform="translate(81.738281 0)"/>
     <use xlink:href="#Cmmi10-46" transform="translate(126.982422 0)"/>
     <use xlink:href="#Cmmi10-55" transform="translate(191.289062 -17.00625) scale(0.7)"/>
     <use xlink:href="#Cmr10-28" transform="translate(245.41543 0)"/>
     <use xlink:href="#Cmmi10-62" transform="translate(284.233789 0)"/>
     <use xlink:href="#Cmr10-29" transform="translate(327.153711 0)"/>
     <use xlink:href="#Cmr10-29" transform="translate(365.97207 0)"/>
    </g>
   </g>
   <g id="text_34">
    <!-- Funzione di ripartizione -->
    <g style="fill: #262626" transform="translate(494.879 40.4685) scale(0.096 -0.096)">
     <use xlink:href="#ArialMT-46"/>
     <use xlink:href="#ArialMT-75" x="61.083984"/>
     <use xlink:href="#ArialMT-6e" x="116.699219"/>
     <use xlink:href="#ArialMT-7a" x="172.314453"/>
     <use xlink:href="#ArialMT-69" x="222.314453"/>
     <use xlink:href="#ArialMT-6f" x="244.53125"/>
     <use xlink:href="#ArialMT-6e" x="300.146484"/>
     <use xlink:href="#ArialMT-65" x="355.761719"/>
     <use xlink:href="#ArialMT-20" x="411.376953"/>
     <use xlink:href="#ArialMT-64" x="439.160156"/>
     <use xlink:href="#ArialMT-69" x="494.775391"/>
     <use xlink:href="#ArialMT-20" x="516.992188"/>
     <use xlink:href="#ArialMT-72" x="544.775391"/>
     <use xlink:href="#ArialMT-69" x="578.076172"/>
     <use xlink:href="#ArialMT-70" x="600.292969"/>
     <use xlink:href="#ArialMT-61" x="655.908203"/>
     <use xlink:href="#ArialMT-72" x="711.523438"/>
     <use xlink:href="#ArialMT-74" x="744.824219"/>
     <use xlink:href="#ArialMT-69" x="772.607422"/>
     <use xlink:href="#ArialMT-7a" x="794.824219"/>
     <use xlink:href="#ArialMT-69" x="844.824219"/>
     <use xlink:href="#ArialMT-6f" x="867.041016"/>
     <use xlink:href="#ArialMT-6e" x="922.65625"/>
     <use xlink:href="#ArialMT-65" x="978.271484"/>
    </g>
   </g>
  </g>
  <g id="text_35">
   <!-- Distribuzioni di probabilità della variabile casuale $U$ ~ uniform(0,1) -->
   <g style="fill: #262626" transform="translate(189.7264 15.6096) scale(0.1152 -0.1152)">
    <defs>
     <path id="ArialMT-44" d="M 494 0 
L 494 4581 
L 2072 4581 
Q 2606 4581 2888 4516 
Q 3281 4425 3559 4188 
Q 3922 3881 4101 3404 
Q 4281 2928 4281 2316 
Q 4281 1794 4159 1391 
Q 4038 988 3847 723 
Q 3656 459 3429 307 
Q 3203 156 2883 78 
Q 2563 0 2147 0 
L 494 0 
z
M 1100 541 
L 2078 541 
Q 2531 541 2789 625 
Q 3047 709 3200 863 
Q 3416 1078 3536 1442 
Q 3656 1806 3656 2325 
Q 3656 3044 3420 3430 
Q 3184 3816 2847 3947 
Q 2603 4041 2063 4041 
L 1100 4041 
L 1100 541 
z
" transform="scale(0.015625)"/>
     <path id="ArialMT-76" d="M 1344 0 
L 81 3319 
L 675 3319 
L 1388 1331 
Q 1503 1009 1600 663 
Q 1675 925 1809 1294 
L 2547 3319 
L 3125 3319 
L 1869 0 
L 1344 0 
z
" transform="scale(0.015625)"/>
     <path id="ArialMT-63" d="M 2588 1216 
L 3141 1144 
Q 3050 572 2676 248 
Q 2303 -75 1759 -75 
Q 1078 -75 664 370 
Q 250 816 250 1647 
Q 250 2184 428 2587 
Q 606 2991 970 3192 
Q 1334 3394 1763 3394 
Q 2303 3394 2647 3120 
Q 2991 2847 3088 2344 
L 2541 2259 
Q 2463 2594 2264 2762 
Q 2066 2931 1784 2931 
Q 1359 2931 1093 2626 
Q 828 2322 828 1663 
Q 828 994 1084 691 
Q 1341 388 1753 388 
Q 2084 388 2306 591 
Q 2528 794 2588 1216 
z
" transform="scale(0.015625)"/>
     <path id="ArialMT-7e" d="M 272 1741 
L 272 2381 
Q 603 2756 1141 2756 
Q 1328 2756 1534 2701 
Q 1741 2647 2122 2484 
Q 2338 2394 2445 2366 
Q 2553 2338 2663 2338 
Q 2866 2338 3083 2459 
Q 3300 2581 3469 2766 
L 3469 2103 
Q 3269 1916 3064 1831 
Q 2859 1747 2603 1747 
Q 2416 1747 2245 1790 
Q 2075 1834 1704 2000 
Q 1334 2166 1088 2166 
Q 888 2166 711 2080 
Q 534 1994 272 1741 
z
" transform="scale(0.015625)"/>
     <path id="ArialMT-66" d="M 556 0 
L 556 2881 
L 59 2881 
L 59 3319 
L 556 3319 
L 556 3672 
Q 556 4006 616 4169 
Q 697 4388 901 4523 
Q 1106 4659 1475 4659 
Q 1713 4659 2000 4603 
L 1916 4113 
Q 1741 4144 1584 4144 
Q 1328 4144 1222 4034 
Q 1116 3925 1116 3625 
L 1116 3319 
L 1763 3319 
L 1763 2881 
L 1116 2881 
L 1116 0 
L 556 0 
z
" transform="scale(0.015625)"/>
     <path id="ArialMT-6d" d="M 422 0 
L 422 3319 
L 925 3319 
L 925 2853 
Q 1081 3097 1340 3245 
Q 1600 3394 1931 3394 
Q 2300 3394 2536 3241 
Q 2772 3088 2869 2813 
Q 3263 3394 3894 3394 
Q 4388 3394 4653 3120 
Q 4919 2847 4919 2278 
L 4919 0 
L 4359 0 
L 4359 2091 
Q 4359 2428 4304 2576 
Q 4250 2725 4106 2815 
Q 3963 2906 3769 2906 
Q 3419 2906 3187 2673 
Q 2956 2441 2956 1928 
L 2956 0 
L 2394 0 
L 2394 2156 
Q 2394 2531 2256 2718 
Q 2119 2906 1806 2906 
Q 1569 2906 1367 2781 
Q 1166 2656 1075 2415 
Q 984 2175 984 1722 
L 984 0 
L 422 0 
z
" transform="scale(0.015625)"/>
     <path id="ArialMT-28" d="M 1497 -1347 
Q 1031 -759 709 28 
Q 388 816 388 1659 
Q 388 2403 628 3084 
Q 909 3875 1497 4659 
L 1900 4659 
Q 1522 4009 1400 3731 
Q 1209 3300 1100 2831 
Q 966 2247 966 1656 
Q 966 153 1900 -1347 
L 1497 -1347 
z
" transform="scale(0.015625)"/>
     <path id="ArialMT-2c" d="M 569 0 
L 569 641 
L 1209 641 
L 1209 0 
Q 1209 -353 1084 -570 
Q 959 -788 688 -906 
L 531 -666 
Q 709 -588 793 -436 
Q 878 -284 888 0 
L 569 0 
z
" transform="scale(0.015625)"/>
     <path id="ArialMT-29" d="M 791 -1347 
L 388 -1347 
Q 1322 153 1322 1656 
Q 1322 2244 1188 2822 
Q 1081 3291 891 3722 
Q 769 4003 388 4659 
L 791 4659 
Q 1378 3875 1659 3084 
Q 1900 2403 1900 1659 
Q 1900 816 1576 28 
Q 1253 -759 791 -1347 
z
" transform="scale(0.015625)"/>
    </defs>
    <use xlink:href="#ArialMT-44" transform="translate(0 0.203125)"/>
    <use xlink:href="#ArialMT-69" transform="translate(72.216797 0.203125)"/>
    <use xlink:href="#ArialMT-73" transform="translate(94.433594 0.203125)"/>
    <use xlink:href="#ArialMT-74" transform="translate(144.433594 0.203125)"/>
    <use xlink:href="#ArialMT-72" transform="translate(172.216797 0.203125)"/>
    <use xlink:href="#ArialMT-69" transform="translate(205.517578 0.203125)"/>
    <use xlink:href="#ArialMT-62" transform="translate(227.734375 0.203125)"/>
    <use xlink:href="#ArialMT-75" transform="translate(283.349609 0.203125)"/>
    <use xlink:href="#ArialMT-7a" transform="translate(338.964844 0.203125)"/>
    <use xlink:href="#ArialMT-69" transform="translate(388.964844 0.203125)"/>
    <use xlink:href="#ArialMT-6f" transform="translate(411.181641 0.203125)"/>
    <use xlink:href="#ArialMT-6e" transform="translate(466.796875 0.203125)"/>
    <use xlink:href="#ArialMT-69" transform="translate(522.412109 0.203125)"/>
    <use xlink:href="#ArialMT-20" transform="translate(544.628906 0.203125)"/>
    <use xlink:href="#ArialMT-64" transform="translate(572.412109 0.203125)"/>
    <use xlink:href="#ArialMT-69" transform="translate(628.027344 0.203125)"/>
    <use xlink:href="#ArialMT-20" transform="translate(650.244141 0.203125)"/>
    <use xlink:href="#ArialMT-70" transform="translate(678.027344 0.203125)"/>
    <use xlink:href="#ArialMT-72" transform="translate(733.642578 0.203125)"/>
    <use xlink:href="#ArialMT-6f" transform="translate(766.943359 0.203125)"/>
    <use xlink:href="#ArialMT-62" transform="translate(822.558594 0.203125)"/>
    <use xlink:href="#ArialMT-61" transform="translate(878.173828 0.203125)"/>
    <use xlink:href="#ArialMT-62" transform="translate(933.789062 0.203125)"/>
    <use xlink:href="#ArialMT-69" transform="translate(989.404297 0.203125)"/>
    <use xlink:href="#ArialMT-6c" transform="translate(1011.621094 0.203125)"/>
    <use xlink:href="#ArialMT-69" transform="translate(1033.837891 0.203125)"/>
    <use xlink:href="#ArialMT-74" transform="translate(1056.054688 0.203125)"/>
    <use xlink:href="#ArialMT-e0" transform="translate(1083.837891 0.203125)"/>
    <use xlink:href="#ArialMT-20" transform="translate(1139.453125 0.203125)"/>
    <use xlink:href="#ArialMT-64" transform="translate(1167.236328 0.203125)"/>
    <use xlink:href="#ArialMT-65" transform="translate(1222.851562 0.203125)"/>
    <use xlink:href="#ArialMT-6c" transform="translate(1278.466797 0.203125)"/>
    <use xlink:href="#ArialMT-6c" transform="translate(1300.683594 0.203125)"/>
    <use xlink:href="#ArialMT-61" transform="translate(1322.900391 0.203125)"/>
    <use xlink:href="#ArialMT-20" transform="translate(1378.515625 0.203125)"/>
    <use xlink:href="#ArialMT-76" transform="translate(1406.298828 0.203125)"/>
    <use xlink:href="#ArialMT-61" transform="translate(1456.298828 0.203125)"/>
    <use xlink:href="#ArialMT-72" transform="translate(1511.914062 0.203125)"/>
    <use xlink:href="#ArialMT-69" transform="translate(1545.214844 0.203125)"/>
    <use xlink:href="#ArialMT-61" transform="translate(1567.431641 0.203125)"/>
    <use xlink:href="#ArialMT-62" transform="translate(1623.046875 0.203125)"/>
    <use xlink:href="#ArialMT-69" transform="translate(1678.662109 0.203125)"/>
    <use xlink:href="#ArialMT-6c" transform="translate(1700.878906 0.203125)"/>
    <use xlink:href="#ArialMT-65" transform="translate(1723.095703 0.203125)"/>
    <use xlink:href="#ArialMT-20" transform="translate(1778.710938 0.203125)"/>
    <use xlink:href="#ArialMT-63" transform="translate(1806.494141 0.203125)"/>
    <use xlink:href="#ArialMT-61" transform="translate(1856.494141 0.203125)"/>
    <use xlink:href="#ArialMT-73" transform="translate(1912.109375 0.203125)"/>
    <use xlink:href="#ArialMT-75" transform="translate(1962.109375 0.203125)"/>
    <use xlink:href="#ArialMT-61" transform="translate(2017.724609 0.203125)"/>
    <use xlink:href="#ArialMT-6c" transform="translate(2073.339844 0.203125)"/>
    <use xlink:href="#ArialMT-65" transform="translate(2095.556641 0.203125)"/>
    <use xlink:href="#ArialMT-20" transform="translate(2151.171875 0.203125)"/>
    <use xlink:href="#Cmmi10-55" transform="translate(2178.955078 0.203125)"/>
    <use xlink:href="#ArialMT-20" transform="translate(2247.167969 0.203125)"/>
    <use xlink:href="#ArialMT-7e" transform="translate(2274.951172 0.203125)"/>
    <use xlink:href="#ArialMT-20" transform="translate(2333.349609 0.203125)"/>
    <use xlink:href="#ArialMT-75" transform="translate(2361.132812 0.203125)"/>
    <use xlink:href="#ArialMT-6e" transform="translate(2416.748047 0.203125)"/>
    <use xlink:href="#ArialMT-69" transform="translate(2472.363281 0.203125)"/>
    <use xlink:href="#ArialMT-66" transform="translate(2494.580078 0.203125)"/>
    <use xlink:href="#ArialMT-6f" transform="translate(2522.363281 0.203125)"/>
    <use xlink:href="#ArialMT-72" transform="translate(2577.978516 0.203125)"/>
    <use xlink:href="#ArialMT-6d" transform="translate(2611.279297 0.203125)"/>
    <use xlink:href="#ArialMT-28" transform="translate(2694.580078 0.203125)"/>
    <use xlink:href="#ArialMT-30" transform="translate(2727.880859 0.203125)"/>
    <use xlink:href="#ArialMT-2c" transform="translate(2783.496094 0.203125)"/>
    <use xlink:href="#ArialMT-31" transform="translate(2811.279297 0.203125)"/>
    <use xlink:href="#ArialMT-29" transform="translate(2866.894531 0.203125)"/>
   </g>
  </g>
 </g>
 <defs>
  <clipPath id="pbb700fd6e6">
   <rect x="27.732" y="46.4685" width="323.908" height="356.7835"/>
  </clipPath>
  <clipPath id="p3d165e97d7">
   <rect x="382.548" y="46.4685" width="323.908" height="356.7835"/>
  </clipPath>
 </defs>
</svg>