<?xml version="1.0" encoding="utf-8" standalone="no"?>
<!DOCTYPE svg PUBLIC "-//W3C//DTD SVG 1.1//EN"
  "http://www.w3.org/Graphics/SVG/1.1/DTD/svg11.dtd">
<svg xmlns:xlink="http://www.w3.org/1999/xlink" width="603.307031pt" height="366.599844pt" viewBox="0 0 603.307031 366.599844" xmlns="http://www.w3.org/2000/svg" version="1.1">
 <metadata>
  <rdf:RDF xmlns:dc="http://purl.org/dc/elements/1.1/" xmlns:cc="http://creativecommons.org/ns#" xmlns:rdf="http://www.w3.org/1999/02/22-rdf-syntax-ns#">
   <cc:Work>
    <dc:type rdf:resource="http://purl.org/dc/dcmitype/StillImage"/>
    <dc:date>2023-05-08T00:42:24.374832</dc:date>
    <dc:format>image/svg+xml</dc:format>
    <dc:creator>
     <cc:Agent>
      <dc:title>Matplotlib v3.7.1, https://matplotlib.org/</dc:title>
     </cc:Agent>
    </dc:creator>
   </cc:Work>
  </rdf:RDF>
 </metadata>
 <defs>
  <style type="text/css">*{stroke-linejoin: round; stroke-linecap: butt}</style>
 </defs>
 <g id="figure_1">
  <g id="patch_1">
   <path d="M 0 366.599844 
L 603.307031 366.599844 
L 603.307031 0 
L 0 0 
z
" style="fill: #ffffff"/>
  </g>
  <g id="axes_1">
   <g id="patch_2">
    <path d="M 38.107031 339.84 
L 596.107031 339.84 
L 596.107031 7.2 
L 38.107031 7.2 
z
" style="fill: #eaeaf2"/>
   </g>
   <g id="matplotlib.axis_1">
    <g id="xtick_1">
     <g id="line2d_1">
      <path d="M 63.470668 339.84 
L 63.470668 7.2 
" clip-path="url(#p0f36d3dc5b)" style="fill: none; stroke: #ffffff; stroke-linecap: round"/>
     </g>
     <g id="text_1">
      <!-- 0.0 -->
      <g style="fill: #262626" transform="translate(55.825668 357.213594) scale(0.11 -0.11)">
       <defs>
        <path id="ArialMT-30" d="M 266 2259 
Q 266 3072 433 3567 
Q 600 4063 929 4331 
Q 1259 4600 1759 4600 
Q 2128 4600 2406 4451 
Q 2684 4303 2865 4023 
Q 3047 3744 3150 3342 
Q 3253 2941 3253 2259 
Q 3253 1453 3087 958 
Q 2922 463 2592 192 
Q 2263 -78 1759 -78 
Q 1097 -78 719 397 
Q 266 969 266 2259 
z
M 844 2259 
Q 844 1131 1108 757 
Q 1372 384 1759 384 
Q 2147 384 2411 759 
Q 2675 1134 2675 2259 
Q 2675 3391 2411 3762 
Q 2147 4134 1753 4134 
Q 1366 4134 1134 3806 
Q 844 3388 844 2259 
z
" transform="scale(0.015625)"/>
        <path id="ArialMT-2e" d="M 581 0 
L 581 641 
L 1222 641 
L 1222 0 
L 581 0 
z
" transform="scale(0.015625)"/>
       </defs>
       <use xlink:href="#ArialMT-30"/>
       <use xlink:href="#ArialMT-2e" x="55.615234"/>
       <use xlink:href="#ArialMT-30" x="83.398438"/>
      </g>
     </g>
    </g>
    <g id="xtick_2">
     <g id="line2d_2">
      <path d="M 126.911479 339.84 
L 126.911479 7.2 
" clip-path="url(#p0f36d3dc5b)" style="fill: none; stroke: #ffffff; stroke-linecap: round"/>
     </g>
     <g id="text_2">
      <!-- 2.5 -->
      <g style="fill: #262626" transform="translate(119.266479 357.213594) scale(0.11 -0.11)">
       <defs>
        <path id="ArialMT-32" d="M 3222 541 
L 3222 0 
L 194 0 
Q 188 203 259 391 
Q 375 700 629 1000 
Q 884 1300 1366 1694 
Q 2113 2306 2375 2664 
Q 2638 3022 2638 3341 
Q 2638 3675 2398 3904 
Q 2159 4134 1775 4134 
Q 1369 4134 1125 3890 
Q 881 3647 878 3216 
L 300 3275 
Q 359 3922 746 4261 
Q 1134 4600 1788 4600 
Q 2447 4600 2831 4234 
Q 3216 3869 3216 3328 
Q 3216 3053 3103 2787 
Q 2991 2522 2730 2228 
Q 2469 1934 1863 1422 
Q 1356 997 1212 845 
Q 1069 694 975 541 
L 3222 541 
z
" transform="scale(0.015625)"/>
        <path id="ArialMT-35" d="M 266 1200 
L 856 1250 
Q 922 819 1161 601 
Q 1400 384 1738 384 
Q 2144 384 2425 690 
Q 2706 997 2706 1503 
Q 2706 1984 2436 2262 
Q 2166 2541 1728 2541 
Q 1456 2541 1237 2417 
Q 1019 2294 894 2097 
L 366 2166 
L 809 4519 
L 3088 4519 
L 3088 3981 
L 1259 3981 
L 1013 2750 
Q 1425 3038 1878 3038 
Q 2478 3038 2890 2622 
Q 3303 2206 3303 1553 
Q 3303 931 2941 478 
Q 2500 -78 1738 -78 
Q 1113 -78 717 272 
Q 322 622 266 1200 
z
" transform="scale(0.015625)"/>
       </defs>
       <use xlink:href="#ArialMT-32"/>
       <use xlink:href="#ArialMT-2e" x="55.615234"/>
       <use xlink:href="#ArialMT-35" x="83.398438"/>
      </g>
     </g>
    </g>
    <g id="xtick_3">
     <g id="line2d_3">
      <path d="M 190.35229 339.84 
L 190.35229 7.2 
" clip-path="url(#p0f36d3dc5b)" style="fill: none; stroke: #ffffff; stroke-linecap: round"/>
     </g>
     <g id="text_3">
      <!-- 5.0 -->
      <g style="fill: #262626" transform="translate(182.70729 357.213594) scale(0.11 -0.11)">
       <use xlink:href="#ArialMT-35"/>
       <use xlink:href="#ArialMT-2e" x="55.615234"/>
       <use xlink:href="#ArialMT-30" x="83.398438"/>
      </g>
     </g>
    </g>
    <g id="xtick_4">
     <g id="line2d_4">
      <path d="M 253.793102 339.84 
L 253.793102 7.2 
" clip-path="url(#p0f36d3dc5b)" style="fill: none; stroke: #ffffff; stroke-linecap: round"/>
     </g>
     <g id="text_4">
      <!-- 7.5 -->
      <g style="fill: #262626" transform="translate(246.148102 357.213594) scale(0.11 -0.11)">
       <defs>
        <path id="ArialMT-37" d="M 303 3981 
L 303 4522 
L 3269 4522 
L 3269 4084 
Q 2831 3619 2401 2847 
Q 1972 2075 1738 1259 
Q 1569 684 1522 0 
L 944 0 
Q 953 541 1156 1306 
Q 1359 2072 1739 2783 
Q 2119 3494 2547 3981 
L 303 3981 
z
" transform="scale(0.015625)"/>
       </defs>
       <use xlink:href="#ArialMT-37"/>
       <use xlink:href="#ArialMT-2e" x="55.615234"/>
       <use xlink:href="#ArialMT-35" x="83.398438"/>
      </g>
     </g>
    </g>
    <g id="xtick_5">
     <g id="line2d_5">
      <path d="M 317.233913 339.84 
L 317.233913 7.2 
" clip-path="url(#p0f36d3dc5b)" style="fill: none; stroke: #ffffff; stroke-linecap: round"/>
     </g>
     <g id="text_5">
      <!-- 10.0 -->
      <g style="fill: #262626" transform="translate(306.530397 357.213594) scale(0.11 -0.11)">
       <defs>
        <path id="ArialMT-31" d="M 2384 0 
L 1822 0 
L 1822 3584 
Q 1619 3391 1289 3197 
Q 959 3003 697 2906 
L 697 3450 
Q 1169 3672 1522 3987 
Q 1875 4303 2022 4600 
L 2384 4600 
L 2384 0 
z
" transform="scale(0.015625)"/>
       </defs>
       <use xlink:href="#ArialMT-31"/>
       <use xlink:href="#ArialMT-30" x="55.615234"/>
       <use xlink:href="#ArialMT-2e" x="111.230469"/>
       <use xlink:href="#ArialMT-30" x="139.013672"/>
      </g>
     </g>
    </g>
    <g id="xtick_6">
     <g id="line2d_6">
      <path d="M 380.674724 339.84 
L 380.674724 7.2 
" clip-path="url(#p0f36d3dc5b)" style="fill: none; stroke: #ffffff; stroke-linecap: round"/>
     </g>
     <g id="text_6">
      <!-- 12.5 -->
      <g style="fill: #262626" transform="translate(369.971209 357.213594) scale(0.11 -0.11)">
       <use xlink:href="#ArialMT-31"/>
       <use xlink:href="#ArialMT-32" x="55.615234"/>
       <use xlink:href="#ArialMT-2e" x="111.230469"/>
       <use xlink:href="#ArialMT-35" x="139.013672"/>
      </g>
     </g>
    </g>
    <g id="xtick_7">
     <g id="line2d_7">
      <path d="M 444.115536 339.84 
L 444.115536 7.2 
" clip-path="url(#p0f36d3dc5b)" style="fill: none; stroke: #ffffff; stroke-linecap: round"/>
     </g>
     <g id="text_7">
      <!-- 15.0 -->
      <g style="fill: #262626" transform="translate(433.41202 357.213594) scale(0.11 -0.11)">
       <use xlink:href="#ArialMT-31"/>
       <use xlink:href="#ArialMT-35" x="55.615234"/>
       <use xlink:href="#ArialMT-2e" x="111.230469"/>
       <use xlink:href="#ArialMT-30" x="139.013672"/>
      </g>
     </g>
    </g>
    <g id="xtick_8">
     <g id="line2d_8">
      <path d="M 507.556347 339.84 
L 507.556347 7.2 
" clip-path="url(#p0f36d3dc5b)" style="fill: none; stroke: #ffffff; stroke-linecap: round"/>
     </g>
     <g id="text_8">
      <!-- 17.5 -->
      <g style="fill: #262626" transform="translate(496.852831 357.213594) scale(0.11 -0.11)">
       <use xlink:href="#ArialMT-31"/>
       <use xlink:href="#ArialMT-37" x="55.615234"/>
       <use xlink:href="#ArialMT-2e" x="111.230469"/>
       <use xlink:href="#ArialMT-35" x="139.013672"/>
      </g>
     </g>
    </g>
    <g id="xtick_9">
     <g id="line2d_9">
      <path d="M 570.997158 339.84 
L 570.997158 7.2 
" clip-path="url(#p0f36d3dc5b)" style="fill: none; stroke: #ffffff; stroke-linecap: round"/>
     </g>
     <g id="text_9">
      <!-- 20.0 -->
      <g style="fill: #262626" transform="translate(560.293643 357.213594) scale(0.11 -0.11)">
       <use xlink:href="#ArialMT-32"/>
       <use xlink:href="#ArialMT-30" x="55.615234"/>
       <use xlink:href="#ArialMT-2e" x="111.230469"/>
       <use xlink:href="#ArialMT-30" x="139.013672"/>
      </g>
     </g>
    </g>
   </g>
   <g id="matplotlib.axis_2">
    <g id="ytick_1">
     <g id="line2d_10">
      <path d="M 38.107031 324.72 
L 596.107031 324.72 
" clip-path="url(#p0f36d3dc5b)" style="fill: none; stroke: #ffffff; stroke-linecap: round"/>
     </g>
     <g id="text_10">
      <!-- 0.00 -->
      <g style="fill: #262626" transform="translate(7.2 328.656797) scale(0.11 -0.11)">
       <use xlink:href="#ArialMT-30"/>
       <use xlink:href="#ArialMT-2e" x="55.615234"/>
       <use xlink:href="#ArialMT-30" x="83.398438"/>
       <use xlink:href="#ArialMT-30" x="139.013672"/>
      </g>
     </g>
    </g>
    <g id="ytick_2">
     <g id="line2d_11">
      <path d="M 38.107031 264.24 
L 596.107031 264.24 
" clip-path="url(#p0f36d3dc5b)" style="fill: none; stroke: #ffffff; stroke-linecap: round"/>
     </g>
     <g id="text_11">
      <!-- 0.05 -->
      <g style="fill: #262626" transform="translate(7.2 268.176797) scale(0.11 -0.11)">
       <use xlink:href="#ArialMT-30"/>
       <use xlink:href="#ArialMT-2e" x="55.615234"/>
       <use xlink:href="#ArialMT-30" x="83.398438"/>
       <use xlink:href="#ArialMT-35" x="139.013672"/>
      </g>
     </g>
    </g>
    <g id="ytick_3">
     <g id="line2d_12">
      <path d="M 38.107031 203.76 
L 596.107031 203.76 
" clip-path="url(#p0f36d3dc5b)" style="fill: none; stroke: #ffffff; stroke-linecap: round"/>
     </g>
     <g id="text_12">
      <!-- 0.10 -->
      <g style="fill: #262626" transform="translate(7.2 207.696797) scale(0.11 -0.11)">
       <use xlink:href="#ArialMT-30"/>
       <use xlink:href="#ArialMT-2e" x="55.615234"/>
       <use xlink:href="#ArialMT-31" x="83.398438"/>
       <use xlink:href="#ArialMT-30" x="139.013672"/>
      </g>
     </g>
    </g>
    <g id="ytick_4">
     <g id="line2d_13">
      <path d="M 38.107031 143.28 
L 596.107031 143.28 
" clip-path="url(#p0f36d3dc5b)" style="fill: none; stroke: #ffffff; stroke-linecap: round"/>
     </g>
     <g id="text_13">
      <!-- 0.15 -->
      <g style="fill: #262626" transform="translate(7.2 147.216797) scale(0.11 -0.11)">
       <use xlink:href="#ArialMT-30"/>
       <use xlink:href="#ArialMT-2e" x="55.615234"/>
       <use xlink:href="#ArialMT-31" x="83.398438"/>
       <use xlink:href="#ArialMT-35" x="139.013672"/>
      </g>
     </g>
    </g>
    <g id="ytick_5">
     <g id="line2d_14">
      <path d="M 38.107031 82.8 
L 596.107031 82.8 
" clip-path="url(#p0f36d3dc5b)" style="fill: none; stroke: #ffffff; stroke-linecap: round"/>
     </g>
     <g id="text_14">
      <!-- 0.20 -->
      <g style="fill: #262626" transform="translate(7.2 86.736797) scale(0.11 -0.11)">
       <use xlink:href="#ArialMT-30"/>
       <use xlink:href="#ArialMT-2e" x="55.615234"/>
       <use xlink:href="#ArialMT-32" x="83.398438"/>
       <use xlink:href="#ArialMT-30" x="139.013672"/>
      </g>
     </g>
    </g>
    <g id="ytick_6">
     <g id="line2d_15">
      <path d="M 38.107031 22.32 
L 596.107031 22.32 
" clip-path="url(#p0f36d3dc5b)" style="fill: none; stroke: #ffffff; stroke-linecap: round"/>
     </g>
     <g id="text_15">
      <!-- 0.25 -->
      <g style="fill: #262626" transform="translate(7.2 26.256797) scale(0.11 -0.11)">
       <use xlink:href="#ArialMT-30"/>
       <use xlink:href="#ArialMT-2e" x="55.615234"/>
       <use xlink:href="#ArialMT-32" x="83.398438"/>
       <use xlink:href="#ArialMT-35" x="139.013672"/>
      </g>
     </g>
    </g>
   </g>
   <g id="PolyCollection_1">
    <defs>
     <path id="mc3a244560e" d="M 88.846992 -41.879844 
L 88.846992 -277.389201 
L 89.100755 -276.801163 
L 89.354519 -276.214593 
L 89.608282 -275.629488 
L 89.862045 -275.045843 
L 90.115808 -274.463656 
L 90.369572 -273.882923 
L 90.623335 -273.30364 
L 90.877098 -272.725803 
L 91.130861 -272.149409 
L 91.384625 -271.574454 
L 91.638388 -271.000934 
L 91.892151 -270.428847 
L 92.145914 -269.858188 
L 92.399678 -269.288954 
L 92.653441 -268.721142 
L 92.907204 -268.154747 
L 93.160967 -267.589766 
L 93.414731 -267.026196 
L 93.668494 -266.464033 
L 93.922257 -265.903274 
L 94.17602 -265.343915 
L 94.429784 -264.785952 
L 94.683547 -264.229383 
L 94.93731 -263.674203 
L 95.191073 -263.12041 
L 95.444837 -262.567999 
L 95.6986 -262.016968 
L 95.952363 -261.467313 
L 96.206126 -260.91903 
L 96.459889 -260.372115 
L 96.713653 -259.826567 
L 96.967416 -259.282381 
L 97.221179 -258.739553 
L 97.474942 -258.198081 
L 97.728706 -257.657961 
L 97.982469 -257.119189 
L 98.236232 -256.581763 
L 98.489995 -256.045679 
L 98.743759 -255.510933 
L 98.997522 -254.977522 
L 99.251285 -254.445443 
L 99.505048 -253.914693 
L 99.758812 -253.385268 
L 100.012575 -252.857165 
L 100.266338 -252.33038 
L 100.520101 -251.804911 
L 100.773865 -251.280754 
L 101.027628 -250.757905 
L 101.281391 -250.236362 
L 101.535154 -249.716122 
L 101.788918 -249.19718 
L 102.042681 -248.679534 
L 102.296444 -248.16318 
L 102.550207 -247.648116 
L 102.803971 -247.134338 
L 103.057734 -246.621843 
L 103.311497 -246.110627 
L 103.56526 -245.600688 
L 103.819024 -245.092022 
L 104.072787 -244.584626 
L 104.32655 -244.078497 
L 104.580313 -243.573631 
L 104.834077 -243.070027 
L 105.08784 -242.567679 
L 105.341603 -242.066586 
L 105.595366 -241.566745 
L 105.84913 -241.068151 
L 106.102893 -240.570802 
L 106.356656 -240.074695 
L 106.610419 -239.579827 
L 106.864183 -239.086194 
L 107.117946 -238.593794 
L 107.371709 -238.102623 
L 107.625472 -237.612679 
L 107.879236 -237.123958 
L 108.132999 -236.636457 
L 108.386762 -236.150174 
L 108.640525 -235.665105 
L 108.894289 -235.181247 
L 109.148052 -234.698597 
L 109.401815 -234.217152 
L 109.655578 -233.736909 
L 109.909341 -233.257866 
L 110.163105 -232.780018 
L 110.416868 -232.303364 
L 110.670631 -231.8279 
L 110.924394 -231.353623 
L 111.178158 -230.88053 
L 111.431921 -230.408618 
L 111.685684 -229.937885 
L 111.939447 -229.468327 
L 112.193211 -228.999941 
L 112.446974 -228.532725 
L 112.700737 -228.066676 
L 112.9545 -227.60179 
L 113.208264 -227.138065 
L 113.462027 -226.675498 
L 113.71579 -226.214086 
L 113.969553 -225.753826 
L 114.223317 -225.294715 
L 114.47708 -224.836751 
L 114.730843 -224.37993 
L 114.984606 -223.924249 
L 115.23837 -223.469707 
L 115.492133 -223.016299 
L 115.745896 -222.564024 
L 115.999659 -222.112877 
L 116.253423 -221.662857 
L 116.507186 -221.213961 
L 116.760949 -220.766186 
L 117.014712 -220.319529 
L 117.268476 -219.873987 
L 117.522239 -219.429557 
L 117.776002 -218.986237 
L 118.029765 -218.544024 
L 118.283529 -218.102915 
L 118.537292 -217.662908 
L 118.791055 -217.223999 
L 119.044818 -216.786186 
L 119.298582 -216.349466 
L 119.552345 -215.913837 
L 119.806108 -215.479296 
L 120.059871 -215.045839 
L 120.313635 -214.613465 
L 120.567398 -214.18217 
L 120.821161 -213.751952 
L 121.074924 -213.322809 
L 121.328688 -212.894736 
L 121.582451 -212.467733 
L 121.836214 -212.041796 
L 122.089977 -211.616923 
L 122.343741 -211.19311 
L 122.597504 -210.770355 
L 122.851267 -210.348656 
L 123.10503 -209.92801 
L 123.358793 -209.508415 
L 123.612557 -209.089867 
L 123.86632 -208.672364 
L 124.120083 -208.255903 
L 124.373846 -207.840483 
L 124.62761 -207.426099 
L 124.881373 -207.01275 
L 125.135136 -206.600434 
L 125.388899 -206.189147 
L 125.642663 -205.778886 
L 125.896426 -205.36965 
L 126.150189 -204.961436 
L 126.403952 -204.554242 
L 126.657716 -204.148064 
L 126.911479 -203.7429 
L 127.165242 -203.338747 
L 127.419005 -202.935604 
L 127.672769 -202.533468 
L 127.926532 -202.132335 
L 128.180295 -201.732205 
L 128.434058 -201.333073 
L 128.687822 -200.934938 
L 128.941585 -200.537796 
L 129.195348 -200.141647 
L 129.449111 -199.746487 
L 129.702875 -199.352313 
L 129.956638 -198.959123 
L 130.210401 -198.566916 
L 130.464164 -198.175687 
L 130.717928 -197.785436 
L 130.971691 -197.396159 
L 131.225454 -197.007853 
L 131.479217 -196.620518 
L 131.732981 -196.234149 
L 131.986744 -195.848745 
L 132.240507 -195.464304 
L 132.49427 -195.080822 
L 132.748034 -194.698298 
L 133.001797 -194.316729 
L 133.25556 -193.936113 
L 133.509323 -193.556447 
L 133.763087 -193.177729 
L 134.01685 -192.799957 
L 134.270613 -192.423128 
L 134.524376 -192.04724 
L 134.77814 -191.67229 
L 135.031903 -191.298277 
L 135.285666 -190.925197 
L 135.539429 -190.553049 
L 135.793193 -190.18183 
L 136.046956 -189.811538 
L 136.300719 -189.442171 
L 136.554482 -189.073726 
L 136.808245 -188.706201 
L 137.062009 -188.339593 
L 137.315772 -187.973901 
L 137.569535 -187.609122 
L 137.823298 -187.245254 
L 138.077062 -186.882295 
L 138.330825 -186.520241 
L 138.584588 -186.159092 
L 138.838351 -185.798844 
L 139.092115 -185.439496 
L 139.345878 -185.081045 
L 139.599641 -184.723489 
L 139.853404 -184.366826 
L 140.107168 -184.011054 
L 140.360931 -183.656169 
L 140.614694 -183.302171 
L 140.868457 -182.949057 
L 141.122221 -182.596824 
L 141.375984 -182.245471 
L 141.629747 -181.894996 
L 141.88351 -181.545395 
L 142.137274 -181.196667 
L 142.391037 -180.84881 
L 142.6448 -180.501822 
L 142.898563 -180.155699 
L 143.152327 -179.810442 
L 143.40609 -179.466046 
L 143.659853 -179.12251 
L 143.913616 -178.779832 
L 144.16738 -178.438009 
L 144.421143 -178.09704 
L 144.674906 -177.756922 
L 144.928669 -177.417654 
L 145.182433 -177.079233 
L 145.436196 -176.741656 
L 145.689959 -176.404923 
L 145.943722 -176.06903 
L 146.197486 -175.733976 
L 146.451249 -175.399759 
L 146.705012 -175.066376 
L 146.958775 -174.733826 
L 147.212539 -174.402105 
L 147.466302 -174.071214 
L 147.720065 -173.741148 
L 147.973828 -173.411906 
L 148.227592 -173.083487 
L 148.481355 -172.755887 
L 148.735118 -172.429106 
L 148.988881 -172.103141 
L 149.242645 -171.777989 
L 149.496408 -171.453649 
L 149.750171 -171.130119 
L 150.003934 -170.807397 
L 150.257697 -170.485481 
L 150.511461 -170.164368 
L 150.765224 -169.844057 
L 151.018987 -169.524546 
L 151.27275 -169.205833 
L 151.526514 -168.887916 
L 151.780277 -168.570792 
L 152.03404 -168.25446 
L 152.287803 -167.938919 
L 152.541567 -167.624164 
L 152.79533 -167.310196 
L 153.049093 -166.997012 
L 153.302856 -166.68461 
L 153.55662 -166.372988 
L 153.810383 -166.062143 
L 154.064146 -165.752075 
L 154.317909 -165.442782 
L 154.571673 -165.13426 
L 154.825436 -164.826509 
L 155.079199 -164.519526 
L 155.332962 -164.21331 
L 155.586726 -163.907858 
L 155.840489 -163.603169 
L 156.094252 -163.299241 
L 156.348015 -162.996071 
L 156.601779 -162.693659 
L 156.855542 -162.392002 
L 157.109305 -162.091098 
L 157.363068 -161.790945 
L 157.616832 -161.491542 
L 157.870595 -161.192886 
L 158.124358 -160.894976 
L 158.378121 -160.597809 
L 158.631885 -160.301385 
L 158.885648 -160.005701 
L 159.139411 -159.710755 
L 159.393174 -159.416546 
L 159.646938 -159.123071 
L 159.900701 -158.830329 
L 160.154464 -158.538318 
L 160.408227 -158.247036 
L 160.661991 -157.956482 
L 160.915754 -157.666652 
L 161.169517 -157.377547 
L 161.42328 -157.089163 
L 161.677044 -156.8015 
L 161.930807 -156.514554 
L 162.18457 -156.228326 
L 162.438333 -155.942811 
L 162.692097 -155.65801 
L 162.94586 -155.37392 
L 163.199623 -155.090539 
L 163.453386 -154.807866 
L 163.707149 -154.525899 
L 163.960913 -154.244635 
L 164.214676 -153.964074 
L 164.468439 -153.684213 
L 164.722202 -153.405052 
L 164.975966 -153.126587 
L 165.229729 -152.848817 
L 165.483492 -152.571741 
L 165.737255 -152.295357 
L 165.991019 -152.019663 
L 166.244782 -151.744658 
L 166.498545 -151.470339 
L 166.752308 -151.196704 
L 167.006072 -150.923754 
L 167.259835 -150.651484 
L 167.513598 -150.379895 
L 167.767361 -150.108984 
L 168.021125 -149.838749 
L 168.274888 -149.569188 
L 168.528651 -149.300301 
L 168.782414 -149.032086 
L 169.036178 -148.76454 
L 169.289941 -148.497662 
L 169.543704 -148.23145 
L 169.797467 -147.965903 
L 170.051231 -147.701019 
L 170.304994 -147.436797 
L 170.558757 -147.173234 
L 170.81252 -146.910329 
L 171.066284 -146.648081 
L 171.320047 -146.386487 
L 171.57381 -146.125547 
L 171.827573 -145.865258 
L 172.081337 -145.605619 
L 172.3351 -145.346629 
L 172.588863 -145.088285 
L 172.842626 -144.830586 
L 173.09639 -144.573531 
L 173.350153 -144.317117 
L 173.603916 -144.061344 
L 173.857679 -143.806209 
L 174.111443 -143.551711 
L 174.365206 -143.297849 
L 174.618969 -143.044621 
L 174.872732 -142.792025 
L 175.126496 -142.540059 
L 175.380259 -142.288723 
L 175.634022 -142.038015 
L 175.887785 -141.787932 
L 176.141549 -141.538474 
L 176.395312 -141.289638 
L 176.649075 -141.041424 
L 176.902838 -140.79383 
L 177.156601 -140.546854 
L 177.410365 -140.300494 
L 177.664128 -140.05475 
L 177.917891 -139.809619 
L 178.171654 -139.5651 
L 178.425418 -139.321192 
L 178.679181 -139.077893 
L 178.932944 -138.835202 
L 179.186707 -138.593116 
L 179.440471 -138.351635 
L 179.694234 -138.110756 
L 179.947997 -137.87048 
L 180.20176 -137.630803 
L 180.455524 -137.391724 
L 180.709287 -137.153243 
L 180.96305 -136.915357 
L 181.216813 -136.678065 
L 181.470577 -136.441365 
L 181.72434 -136.205257 
L 181.978103 -135.969738 
L 182.231866 -135.734807 
L 182.48563 -135.500462 
L 182.739393 -135.266703 
L 182.993156 -135.033528 
L 183.246919 -134.800934 
L 183.500683 -134.568922 
L 183.754446 -134.337488 
L 184.008209 -134.106633 
L 184.261972 -133.876354 
L 184.515736 -133.64665 
L 184.769499 -133.417519 
L 185.023262 -133.188961 
L 185.277025 -132.960973 
L 185.530789 -132.733555 
L 185.784552 -132.506704 
L 186.038315 -132.28042 
L 186.292078 -132.054701 
L 186.545842 -131.829545 
L 186.799605 -131.604952 
L 187.053368 -131.380919 
L 187.307131 -131.157446 
L 187.560895 -130.934531 
L 187.814658 -130.712172 
L 188.068421 -130.490369 
L 188.322184 -130.269119 
L 188.575948 -130.048422 
L 188.829711 -129.828276 
L 189.083474 -129.608679 
L 189.337237 -129.389631 
L 189.591001 -129.17113 
L 189.844764 -128.953174 
L 190.098527 -128.735763 
L 190.35229 -128.518894 
L 190.606053 -128.302567 
L 190.859817 -128.08678 
L 191.11358 -127.871532 
L 191.367343 -127.656821 
L 191.621106 -127.442647 
L 191.87487 -127.229007 
L 192.128633 -127.0159 
L 192.382396 -126.803326 
L 192.636159 -126.591283 
L 192.889923 -126.379769 
L 193.143686 -126.168783 
L 193.397449 -125.958323 
L 193.651212 -125.74839 
L 193.904976 -125.53898 
L 194.158739 -125.330094 
L 194.412502 -125.121729 
L 194.666265 -124.913884 
L 194.920029 -124.706558 
L 195.173792 -124.49975 
L 195.427555 -124.293458 
L 195.681318 -124.087681 
L 195.935082 -123.882418 
L 196.188845 -123.677668 
L 196.442608 -123.473429 
L 196.696371 -123.2697 
L 196.950135 -123.066479 
L 197.203898 -122.863766 
L 197.457661 -122.661559 
L 197.711424 -122.459857 
L 197.965188 -122.258659 
L 198.218951 -122.057963 
L 198.472714 -121.857768 
L 198.726477 -121.658072 
L 198.980241 -121.458876 
L 199.234004 -121.260177 
L 199.487767 -121.061974 
L 199.74153 -120.864266 
L 199.995294 -120.667051 
L 200.249057 -120.470329 
L 200.50282 -120.274099 
L 200.756583 -120.078358 
L 201.010347 -119.883106 
L 201.26411 -119.688341 
L 201.517873 -119.494063 
L 201.771636 -119.300269 
L 202.0254 -119.10696 
L 202.279163 -118.914134 
L 202.532926 -118.721788 
L 202.786689 -118.529923 
L 203.040453 -118.338538 
L 203.294216 -118.14763 
L 203.547979 -117.957198 
L 203.801742 -117.767242 
L 204.055505 -117.577761 
L 204.309269 -117.388752 
L 204.563032 -117.200216 
L 204.816795 -117.01215 
L 205.070558 -116.824554 
L 205.324322 -116.637426 
L 205.578085 -116.450766 
L 205.831848 -116.264571 
L 206.085611 -116.078842 
L 206.339375 -115.893576 
L 206.593138 -115.708773 
L 206.846901 -115.524431 
L 207.100664 -115.340549 
L 207.354428 -115.157127 
L 207.608191 -114.974162 
L 207.861954 -114.791655 
L 208.115717 -114.609603 
L 208.369481 -114.428006 
L 208.623244 -114.246862 
L 208.877007 -114.06617 
L 209.13077 -113.88593 
L 209.384534 -113.706139 
L 209.638297 -113.526798 
L 209.89206 -113.347904 
L 210.145823 -113.169457 
L 210.399587 -112.991456 
L 210.65335 -112.813899 
L 210.907113 -112.636785 
L 211.160876 -112.460114 
L 211.41464 -112.283883 
L 211.668403 -112.108093 
L 211.922166 -111.932742 
L 212.175929 -111.757828 
L 212.429693 -111.583352 
L 212.683456 -111.40931 
L 212.937219 -111.235704 
L 213.190982 -111.062531 
L 213.444746 -110.88979 
L 213.698509 -110.717481 
L 213.952272 -110.545602 
L 214.206035 -110.374152 
L 214.459799 -110.20313 
L 214.713562 -110.032535 
L 214.967325 -109.862366 
L 215.221088 -109.692622 
L 215.474852 -109.523302 
L 215.728615 -109.354404 
L 215.728615 -41.879844 
L 215.728615 -41.879844 
L 215.474852 -41.879844 
L 215.221088 -41.879844 
L 214.967325 -41.879844 
L 214.713562 -41.879844 
L 214.459799 -41.879844 
L 214.206035 -41.879844 
L 213.952272 -41.879844 
L 213.698509 -41.879844 
L 213.444746 -41.879844 
L 213.190982 -41.879844 
L 212.937219 -41.879844 
L 212.683456 -41.879844 
L 212.429693 -41.879844 
L 212.175929 -41.879844 
L 211.922166 -41.879844 
L 211.668403 -41.879844 
L 211.41464 -41.879844 
L 211.160876 -41.879844 
L 210.907113 -41.879844 
L 210.65335 -41.879844 
L 210.399587 -41.879844 
L 210.145823 -41.879844 
L 209.89206 -41.879844 
L 209.638297 -41.879844 
L 209.384534 -41.879844 
L 209.13077 -41.879844 
L 208.877007 -41.879844 
L 208.623244 -41.879844 
L 208.369481 -41.879844 
L 208.115717 -41.879844 
L 207.861954 -41.879844 
L 207.608191 -41.879844 
L 207.354428 -41.879844 
L 207.100664 -41.879844 
L 206.846901 -41.879844 
L 206.593138 -41.879844 
L 206.339375 -41.879844 
L 206.085611 -41.879844 
L 205.831848 -41.879844 
L 205.578085 -41.879844 
L 205.324322 -41.879844 
L 205.070558 -41.879844 
L 204.816795 -41.879844 
L 204.563032 -41.879844 
L 204.309269 -41.879844 
L 204.055505 -41.879844 
L 203.801742 -41.879844 
L 203.547979 -41.879844 
L 203.294216 -41.879844 
L 203.040453 -41.879844 
L 202.786689 -41.879844 
L 202.532926 -41.879844 
L 202.279163 -41.879844 
L 202.0254 -41.879844 
L 201.771636 -41.879844 
L 201.517873 -41.879844 
L 201.26411 -41.879844 
L 201.010347 -41.879844 
L 200.756583 -41.879844 
L 200.50282 -41.879844 
L 200.249057 -41.879844 
L 199.995294 -41.879844 
L 199.74153 -41.879844 
L 199.487767 -41.879844 
L 199.234004 -41.879844 
L 198.980241 -41.879844 
L 198.726477 -41.879844 
L 198.472714 -41.879844 
L 198.218951 -41.879844 
L 197.965188 -41.879844 
L 197.711424 -41.879844 
L 197.457661 -41.879844 
L 197.203898 -41.879844 
L 196.950135 -41.879844 
L 196.696371 -41.879844 
L 196.442608 -41.879844 
L 196.188845 -41.879844 
L 195.935082 -41.879844 
L 195.681318 -41.879844 
L 195.427555 -41.879844 
L 195.173792 -41.879844 
L 194.920029 -41.879844 
L 194.666265 -41.879844 
L 194.412502 -41.879844 
L 194.158739 -41.879844 
L 193.904976 -41.879844 
L 193.651212 -41.879844 
L 193.397449 -41.879844 
L 193.143686 -41.879844 
L 192.889923 -41.879844 
L 192.636159 -41.879844 
L 192.382396 -41.879844 
L 192.128633 -41.879844 
L 191.87487 -41.879844 
L 191.621106 -41.879844 
L 191.367343 -41.879844 
L 191.11358 -41.879844 
L 190.859817 -41.879844 
L 190.606053 -41.879844 
L 190.35229 -41.879844 
L 190.098527 -41.879844 
L 189.844764 -41.879844 
L 189.591001 -41.879844 
L 189.337237 -41.879844 
L 189.083474 -41.879844 
L 188.829711 -41.879844 
L 188.575948 -41.879844 
L 188.322184 -41.879844 
L 188.068421 -41.879844 
L 187.814658 -41.879844 
L 187.560895 -41.879844 
L 187.307131 -41.879844 
L 187.053368 -41.879844 
L 186.799605 -41.879844 
L 186.545842 -41.879844 
L 186.292078 -41.879844 
L 186.038315 -41.879844 
L 185.784552 -41.879844 
L 185.530789 -41.879844 
L 185.277025 -41.879844 
L 185.023262 -41.879844 
L 184.769499 -41.879844 
L 184.515736 -41.879844 
L 184.261972 -41.879844 
L 184.008209 -41.879844 
L 183.754446 -41.879844 
L 183.500683 -41.879844 
L 183.246919 -41.879844 
L 182.993156 -41.879844 
L 182.739393 -41.879844 
L 182.48563 -41.879844 
L 182.231866 -41.879844 
L 181.978103 -41.879844 
L 181.72434 -41.879844 
L 181.470577 -41.879844 
L 181.216813 -41.879844 
L 180.96305 -41.879844 
L 180.709287 -41.879844 
L 180.455524 -41.879844 
L 180.20176 -41.879844 
L 179.947997 -41.879844 
L 179.694234 -41.879844 
L 179.440471 -41.879844 
L 179.186707 -41.879844 
L 178.932944 -41.879844 
L 178.679181 -41.879844 
L 178.425418 -41.879844 
L 178.171654 -41.879844 
L 177.917891 -41.879844 
L 177.664128 -41.879844 
L 177.410365 -41.879844 
L 177.156601 -41.879844 
L 176.902838 -41.879844 
L 176.649075 -41.879844 
L 176.395312 -41.879844 
L 176.141549 -41.879844 
L 175.887785 -41.879844 
L 175.634022 -41.879844 
L 175.380259 -41.879844 
L 175.126496 -41.879844 
L 174.872732 -41.879844 
L 174.618969 -41.879844 
L 174.365206 -41.879844 
L 174.111443 -41.879844 
L 173.857679 -41.879844 
L 173.603916 -41.879844 
L 173.350153 -41.879844 
L 173.09639 -41.879844 
L 172.842626 -41.879844 
L 172.588863 -41.879844 
L 172.3351 -41.879844 
L 172.081337 -41.879844 
L 171.827573 -41.879844 
L 171.57381 -41.879844 
L 171.320047 -41.879844 
L 171.066284 -41.879844 
L 170.81252 -41.879844 
L 170.558757 -41.879844 
L 170.304994 -41.879844 
L 170.051231 -41.879844 
L 169.797467 -41.879844 
L 169.543704 -41.879844 
L 169.289941 -41.879844 
L 169.036178 -41.879844 
L 168.782414 -41.879844 
L 168.528651 -41.879844 
L 168.274888 -41.879844 
L 168.021125 -41.879844 
L 167.767361 -41.879844 
L 167.513598 -41.879844 
L 167.259835 -41.879844 
L 167.006072 -41.879844 
L 166.752308 -41.879844 
L 166.498545 -41.879844 
L 166.244782 -41.879844 
L 165.991019 -41.879844 
L 165.737255 -41.879844 
L 165.483492 -41.879844 
L 165.229729 -41.879844 
L 164.975966 -41.879844 
L 164.722202 -41.879844 
L 164.468439 -41.879844 
L 164.214676 -41.879844 
L 163.960913 -41.879844 
L 163.707149 -41.879844 
L 163.453386 -41.879844 
L 163.199623 -41.879844 
L 162.94586 -41.879844 
L 162.692097 -41.879844 
L 162.438333 -41.879844 
L 162.18457 -41.879844 
L 161.930807 -41.879844 
L 161.677044 -41.879844 
L 161.42328 -41.879844 
L 161.169517 -41.879844 
L 160.915754 -41.879844 
L 160.661991 -41.879844 
L 160.408227 -41.879844 
L 160.154464 -41.879844 
L 159.900701 -41.879844 
L 159.646938 -41.879844 
L 159.393174 -41.879844 
L 159.139411 -41.879844 
L 158.885648 -41.879844 
L 158.631885 -41.879844 
L 158.378121 -41.879844 
L 158.124358 -41.879844 
L 157.870595 -41.879844 
L 157.616832 -41.879844 
L 157.363068 -41.879844 
L 157.109305 -41.879844 
L 156.855542 -41.879844 
L 156.601779 -41.879844 
L 156.348015 -41.879844 
L 156.094252 -41.879844 
L 155.840489 -41.879844 
L 155.586726 -41.879844 
L 155.332962 -41.879844 
L 155.079199 -41.879844 
L 154.825436 -41.879844 
L 154.571673 -41.879844 
L 154.317909 -41.879844 
L 154.064146 -41.879844 
L 153.810383 -41.879844 
L 153.55662 -41.879844 
L 153.302856 -41.879844 
L 153.049093 -41.879844 
L 152.79533 -41.879844 
L 152.541567 -41.879844 
L 152.287803 -41.879844 
L 152.03404 -41.879844 
L 151.780277 -41.879844 
L 151.526514 -41.879844 
L 151.27275 -41.879844 
L 151.018987 -41.879844 
L 150.765224 -41.879844 
L 150.511461 -41.879844 
L 150.257697 -41.879844 
L 150.003934 -41.879844 
L 149.750171 -41.879844 
L 149.496408 -41.879844 
L 149.242645 -41.879844 
L 148.988881 -41.879844 
L 148.735118 -41.879844 
L 148.481355 -41.879844 
L 148.227592 -41.879844 
L 147.973828 -41.879844 
L 147.720065 -41.879844 
L 147.466302 -41.879844 
L 147.212539 -41.879844 
L 146.958775 -41.879844 
L 146.705012 -41.879844 
L 146.451249 -41.879844 
L 146.197486 -41.879844 
L 145.943722 -41.879844 
L 145.689959 -41.879844 
L 145.436196 -41.879844 
L 145.182433 -41.879844 
L 144.928669 -41.879844 
L 144.674906 -41.879844 
L 144.421143 -41.879844 
L 144.16738 -41.879844 
L 143.913616 -41.879844 
L 143.659853 -41.879844 
L 143.40609 -41.879844 
L 143.152327 -41.879844 
L 142.898563 -41.879844 
L 142.6448 -41.879844 
L 142.391037 -41.879844 
L 142.137274 -41.879844 
L 141.88351 -41.879844 
L 141.629747 -41.879844 
L 141.375984 -41.879844 
L 141.122221 -41.879844 
L 140.868457 -41.879844 
L 140.614694 -41.879844 
L 140.360931 -41.879844 
L 140.107168 -41.879844 
L 139.853404 -41.879844 
L 139.599641 -41.879844 
L 139.345878 -41.879844 
L 139.092115 -41.879844 
L 138.838351 -41.879844 
L 138.584588 -41.879844 
L 138.330825 -41.879844 
L 138.077062 -41.879844 
L 137.823298 -41.879844 
L 137.569535 -41.879844 
L 137.315772 -41.879844 
L 137.062009 -41.879844 
L 136.808245 -41.879844 
L 136.554482 -41.879844 
L 136.300719 -41.879844 
L 136.046956 -41.879844 
L 135.793193 -41.879844 
L 135.539429 -41.879844 
L 135.285666 -41.879844 
L 135.031903 -41.879844 
L 134.77814 -41.879844 
L 134.524376 -41.879844 
L 134.270613 -41.879844 
L 134.01685 -41.879844 
L 133.763087 -41.879844 
L 133.509323 -41.879844 
L 133.25556 -41.879844 
L 133.001797 -41.879844 
L 132.748034 -41.879844 
L 132.49427 -41.879844 
L 132.240507 -41.879844 
L 131.986744 -41.879844 
L 131.732981 -41.879844 
L 131.479217 -41.879844 
L 131.225454 -41.879844 
L 130.971691 -41.879844 
L 130.717928 -41.879844 
L 130.464164 -41.879844 
L 130.210401 -41.879844 
L 129.956638 -41.879844 
L 129.702875 -41.879844 
L 129.449111 -41.879844 
L 129.195348 -41.879844 
L 128.941585 -41.879844 
L 128.687822 -41.879844 
L 128.434058 -41.879844 
L 128.180295 -41.879844 
L 127.926532 -41.879844 
L 127.672769 -41.879844 
L 127.419005 -41.879844 
L 127.165242 -41.879844 
L 126.911479 -41.879844 
L 126.657716 -41.879844 
L 126.403952 -41.879844 
L 126.150189 -41.879844 
L 125.896426 -41.879844 
L 125.642663 -41.879844 
L 125.388899 -41.879844 
L 125.135136 -41.879844 
L 124.881373 -41.879844 
L 124.62761 -41.879844 
L 124.373846 -41.879844 
L 124.120083 -41.879844 
L 123.86632 -41.879844 
L 123.612557 -41.879844 
L 123.358793 -41.879844 
L 123.10503 -41.879844 
L 122.851267 -41.879844 
L 122.597504 -41.879844 
L 122.343741 -41.879844 
L 122.089977 -41.879844 
L 121.836214 -41.879844 
L 121.582451 -41.879844 
L 121.328688 -41.879844 
L 121.074924 -41.879844 
L 120.821161 -41.879844 
L 120.567398 -41.879844 
L 120.313635 -41.879844 
L 120.059871 -41.879844 
L 119.806108 -41.879844 
L 119.552345 -41.879844 
L 119.298582 -41.879844 
L 119.044818 -41.879844 
L 118.791055 -41.879844 
L 118.537292 -41.879844 
L 118.283529 -41.879844 
L 118.029765 -41.879844 
L 117.776002 -41.879844 
L 117.522239 -41.879844 
L 117.268476 -41.879844 
L 117.014712 -41.879844 
L 116.760949 -41.879844 
L 116.507186 -41.879844 
L 116.253423 -41.879844 
L 115.999659 -41.879844 
L 115.745896 -41.879844 
L 115.492133 -41.879844 
L 115.23837 -41.879844 
L 114.984606 -41.879844 
L 114.730843 -41.879844 
L 114.47708 -41.879844 
L 114.223317 -41.879844 
L 113.969553 -41.879844 
L 113.71579 -41.879844 
L 113.462027 -41.879844 
L 113.208264 -41.879844 
L 112.9545 -41.879844 
L 112.700737 -41.879844 
L 112.446974 -41.879844 
L 112.193211 -41.879844 
L 111.939447 -41.879844 
L 111.685684 -41.879844 
L 111.431921 -41.879844 
L 111.178158 -41.879844 
L 110.924394 -41.879844 
L 110.670631 -41.879844 
L 110.416868 -41.879844 
L 110.163105 -41.879844 
L 109.909341 -41.879844 
L 109.655578 -41.879844 
L 109.401815 -41.879844 
L 109.148052 -41.879844 
L 108.894289 -41.879844 
L 108.640525 -41.879844 
L 108.386762 -41.879844 
L 108.132999 -41.879844 
L 107.879236 -41.879844 
L 107.625472 -41.879844 
L 107.371709 -41.879844 
L 107.117946 -41.879844 
L 106.864183 -41.879844 
L 106.610419 -41.879844 
L 106.356656 -41.879844 
L 106.102893 -41.879844 
L 105.84913 -41.879844 
L 105.595366 -41.879844 
L 105.341603 -41.879844 
L 105.08784 -41.879844 
L 104.834077 -41.879844 
L 104.580313 -41.879844 
L 104.32655 -41.879844 
L 104.072787 -41.879844 
L 103.819024 -41.879844 
L 103.56526 -41.879844 
L 103.311497 -41.879844 
L 103.057734 -41.879844 
L 102.803971 -41.879844 
L 102.550207 -41.879844 
L 102.296444 -41.879844 
L 102.042681 -41.879844 
L 101.788918 -41.879844 
L 101.535154 -41.879844 
L 101.281391 -41.879844 
L 101.027628 -41.879844 
L 100.773865 -41.879844 
L 100.520101 -41.879844 
L 100.266338 -41.879844 
L 100.012575 -41.879844 
L 99.758812 -41.879844 
L 99.505048 -41.879844 
L 99.251285 -41.879844 
L 98.997522 -41.879844 
L 98.743759 -41.879844 
L 98.489995 -41.879844 
L 98.236232 -41.879844 
L 97.982469 -41.879844 
L 97.728706 -41.879844 
L 97.474942 -41.879844 
L 97.221179 -41.879844 
L 96.967416 -41.879844 
L 96.713653 -41.879844 
L 96.459889 -41.879844 
L 96.206126 -41.879844 
L 95.952363 -41.879844 
L 95.6986 -41.879844 
L 95.444837 -41.879844 
L 95.191073 -41.879844 
L 94.93731 -41.879844 
L 94.683547 -41.879844 
L 94.429784 -41.879844 
L 94.17602 -41.879844 
L 93.922257 -41.879844 
L 93.668494 -41.879844 
L 93.414731 -41.879844 
L 93.160967 -41.879844 
L 92.907204 -41.879844 
L 92.653441 -41.879844 
L 92.399678 -41.879844 
L 92.145914 -41.879844 
L 91.892151 -41.879844 
L 91.638388 -41.879844 
L 91.384625 -41.879844 
L 91.130861 -41.879844 
L 90.877098 -41.879844 
L 90.623335 -41.879844 
L 90.369572 -41.879844 
L 90.115808 -41.879844 
L 89.862045 -41.879844 
L 89.608282 -41.879844 
L 89.354519 -41.879844 
L 89.100755 -41.879844 
L 88.846992 -41.879844 
z
" style="stroke: #bfbfbf"/>
    </defs>
    <g clip-path="url(#p0f36d3dc5b)">
     <use xlink:href="#mc3a244560e" x="0" y="366.599844" style="fill: #bfbfbf; stroke: #bfbfbf"/>
    </g>
   </g>
   <g id="line2d_16">
    <path d="M 63.470668 22.32 
L 68.292169 36.348193 
L 73.113671 49.725625 
L 77.935173 62.482484 
L 83.010437 75.271958 
L 88.085702 87.437683 
L 93.160967 99.010078 
L 98.236232 110.018081 
L 103.311497 120.489217 
L 108.386762 130.44967 
L 113.462027 139.924346 
L 118.537292 148.936936 
L 123.612557 157.509977 
L 128.687822 165.664906 
L 134.01685 173.799887 
L 139.345878 181.518799 
L 144.674906 188.842921 
L 150.003934 195.792447 
L 155.332962 202.386534 
L 160.915754 208.933191 
L 166.498545 215.129505 
L 172.081337 220.994224 
L 177.664128 226.545094 
L 183.500683 232.030922 
L 189.337237 237.210212 
L 195.173792 242.100094 
L 201.26411 246.911503 
L 207.354428 251.442717 
L 213.698509 255.882363 
L 220.04259 260.053025 
L 226.640434 264.122681 
L 233.238279 267.936224 
L 240.089886 271.642631 
L 247.195257 275.230989 
L 254.554391 278.691966 
L 262.167289 282.017791 
L 269.780186 285.103304 
L 277.646847 288.057639 
L 286.021034 290.960879 
L 294.648984 293.711832 
L 303.530698 296.309732 
L 312.919938 298.819801 
L 322.562941 301.16706 
L 332.713471 303.408419 
L 343.371527 305.532661 
L 354.53711 307.531327 
L 366.463982 309.436854 
L 379.152145 311.232671 
L 392.601597 312.906409 
L 406.812338 314.449757 
L 422.291896 315.902392 
L 438.786507 317.224891 
L 456.803698 318.443888 
L 476.597231 319.555798 
L 498.42087 320.554857 
L 522.782142 321.443582 
L 550.442335 322.225095 
L 570.743395 322.677345 
L 570.743395 322.677345 
" clip-path="url(#p0f36d3dc5b)" style="fill: none; stroke: #0173b2; stroke-width: 1.5; stroke-linecap: round"/>
   </g>
   <g id="patch_3">
    <path d="M 38.107031 339.84 
L 38.107031 7.2 
" style="fill: none; stroke: #ffffff; stroke-width: 1.25; stroke-linejoin: miter; stroke-linecap: square"/>
   </g>
   <g id="patch_4">
    <path d="M 596.107031 339.84 
L 596.107031 7.2 
" style="fill: none; stroke: #ffffff; stroke-width: 1.25; stroke-linejoin: miter; stroke-linecap: square"/>
   </g>
   <g id="patch_5">
    <path d="M 38.107031 339.84 
L 596.107031 339.84 
" style="fill: none; stroke: #ffffff; stroke-width: 1.25; stroke-linejoin: miter; stroke-linecap: square"/>
   </g>
   <g id="patch_6">
    <path d="M 38.107031 7.2 
L 596.107031 7.2 
" style="fill: none; stroke: #ffffff; stroke-width: 1.25; stroke-linejoin: miter; stroke-linecap: square"/>
   </g>
  </g>
 </g>
 <defs>
  <clipPath id="p0f36d3dc5b">
   <rect x="38.107031" y="7.2" width="558" height="332.64"/>
  </clipPath>
 </defs>
</svg>