<?xml version="1.0" encoding="utf-8" standalone="no"?>
<!DOCTYPE svg PUBLIC "-//W3C//DTD SVG 1.1//EN"
  "http://www.w3.org/Graphics/SVG/1.1/DTD/svg11.dtd">
<svg xmlns:xlink="http://www.w3.org/1999/xlink" width="628.984922pt" height="381.574219pt" viewBox="0 0 628.984922 381.574219" xmlns="http://www.w3.org/2000/svg" version="1.1">
 <metadata>
  <rdf:RDF xmlns:dc="http://purl.org/dc/elements/1.1/" xmlns:cc="http://creativecommons.org/ns#" xmlns:rdf="http://www.w3.org/1999/02/22-rdf-syntax-ns#">
   <cc:Work>
    <dc:type rdf:resource="http://purl.org/dc/dcmitype/StillImage"/>
    <dc:date>2023-05-08T00:39:40.959203</dc:date>
    <dc:format>image/svg+xml</dc:format>
    <dc:creator>
     <cc:Agent>
      <dc:title>Matplotlib v3.7.1, https://matplotlib.org/</dc:title>
     </cc:Agent>
    </dc:creator>
   </cc:Work>
  </rdf:RDF>
 </metadata>
 <defs>
  <style type="text/css">*{stroke-linejoin: round; stroke-linecap: butt}</style>
 </defs>
 <g id="figure_1">
  <g id="patch_1">
   <path d="M 0 381.574219 
L 628.984922 381.574219 
L 628.984922 0 
L 0 0 
z
" style="fill: #ffffff"/>
  </g>
  <g id="axes_1">
   <g id="patch_2">
    <path d="M 53.081406 339.84 
L 611.081406 339.84 
L 611.081406 7.2 
L 53.081406 7.2 
z
" style="fill: #eaeaf2"/>
   </g>
   <g id="matplotlib.axis_1">
    <g id="xtick_1">
     <g id="line2d_1">
      <path d="M 53.081406 339.84 
L 53.081406 7.2 
" clip-path="url(#pe836ef0151)" style="fill: none; stroke: #ffffff; stroke-linecap: round"/>
     </g>
     <g id="text_1">
      <!-- 0.0 -->
      <g style="fill: #262626" transform="translate(45.436406 357.213594) scale(0.11 -0.11)">
       <defs>
        <path id="ArialMT-30" d="M 266 2259 
Q 266 3072 433 3567 
Q 600 4063 929 4331 
Q 1259 4600 1759 4600 
Q 2128 4600 2406 4451 
Q 2684 4303 2865 4023 
Q 3047 3744 3150 3342 
Q 3253 2941 3253 2259 
Q 3253 1453 3087 958 
Q 2922 463 2592 192 
Q 2263 -78 1759 -78 
Q 1097 -78 719 397 
Q 266 969 266 2259 
z
M 844 2259 
Q 844 1131 1108 757 
Q 1372 384 1759 384 
Q 2147 384 2411 759 
Q 2675 1134 2675 2259 
Q 2675 3391 2411 3762 
Q 2147 4134 1753 4134 
Q 1366 4134 1134 3806 
Q 844 3388 844 2259 
z
" transform="scale(0.015625)"/>
        <path id="ArialMT-2e" d="M 581 0 
L 581 641 
L 1222 641 
L 1222 0 
L 581 0 
z
" transform="scale(0.015625)"/>
       </defs>
       <use xlink:href="#ArialMT-30"/>
       <use xlink:href="#ArialMT-2e" x="55.615234"/>
       <use xlink:href="#ArialMT-30" x="83.398438"/>
      </g>
     </g>
    </g>
    <g id="xtick_2">
     <g id="line2d_2">
      <path d="M 122.831406 339.84 
L 122.831406 7.2 
" clip-path="url(#pe836ef0151)" style="fill: none; stroke: #ffffff; stroke-linecap: round"/>
     </g>
     <g id="text_2">
      <!-- 2.5 -->
      <g style="fill: #262626" transform="translate(115.186406 357.213594) scale(0.11 -0.11)">
       <defs>
        <path id="ArialMT-32" d="M 3222 541 
L 3222 0 
L 194 0 
Q 188 203 259 391 
Q 375 700 629 1000 
Q 884 1300 1366 1694 
Q 2113 2306 2375 2664 
Q 2638 3022 2638 3341 
Q 2638 3675 2398 3904 
Q 2159 4134 1775 4134 
Q 1369 4134 1125 3890 
Q 881 3647 878 3216 
L 300 3275 
Q 359 3922 746 4261 
Q 1134 4600 1788 4600 
Q 2447 4600 2831 4234 
Q 3216 3869 3216 3328 
Q 3216 3053 3103 2787 
Q 2991 2522 2730 2228 
Q 2469 1934 1863 1422 
Q 1356 997 1212 845 
Q 1069 694 975 541 
L 3222 541 
z
" transform="scale(0.015625)"/>
        <path id="ArialMT-35" d="M 266 1200 
L 856 1250 
Q 922 819 1161 601 
Q 1400 384 1738 384 
Q 2144 384 2425 690 
Q 2706 997 2706 1503 
Q 2706 1984 2436 2262 
Q 2166 2541 1728 2541 
Q 1456 2541 1237 2417 
Q 1019 2294 894 2097 
L 366 2166 
L 809 4519 
L 3088 4519 
L 3088 3981 
L 1259 3981 
L 1013 2750 
Q 1425 3038 1878 3038 
Q 2478 3038 2890 2622 
Q 3303 2206 3303 1553 
Q 3303 931 2941 478 
Q 2500 -78 1738 -78 
Q 1113 -78 717 272 
Q 322 622 266 1200 
z
" transform="scale(0.015625)"/>
       </defs>
       <use xlink:href="#ArialMT-32"/>
       <use xlink:href="#ArialMT-2e" x="55.615234"/>
       <use xlink:href="#ArialMT-35" x="83.398438"/>
      </g>
     </g>
    </g>
    <g id="xtick_3">
     <g id="line2d_3">
      <path d="M 192.581406 339.84 
L 192.581406 7.2 
" clip-path="url(#pe836ef0151)" style="fill: none; stroke: #ffffff; stroke-linecap: round"/>
     </g>
     <g id="text_3">
      <!-- 5.0 -->
      <g style="fill: #262626" transform="translate(184.936406 357.213594) scale(0.11 -0.11)">
       <use xlink:href="#ArialMT-35"/>
       <use xlink:href="#ArialMT-2e" x="55.615234"/>
       <use xlink:href="#ArialMT-30" x="83.398438"/>
      </g>
     </g>
    </g>
    <g id="xtick_4">
     <g id="line2d_4">
      <path d="M 262.331406 339.84 
L 262.331406 7.2 
" clip-path="url(#pe836ef0151)" style="fill: none; stroke: #ffffff; stroke-linecap: round"/>
     </g>
     <g id="text_4">
      <!-- 7.5 -->
      <g style="fill: #262626" transform="translate(254.686406 357.213594) scale(0.11 -0.11)">
       <defs>
        <path id="ArialMT-37" d="M 303 3981 
L 303 4522 
L 3269 4522 
L 3269 4084 
Q 2831 3619 2401 2847 
Q 1972 2075 1738 1259 
Q 1569 684 1522 0 
L 944 0 
Q 953 541 1156 1306 
Q 1359 2072 1739 2783 
Q 2119 3494 2547 3981 
L 303 3981 
z
" transform="scale(0.015625)"/>
       </defs>
       <use xlink:href="#ArialMT-37"/>
       <use xlink:href="#ArialMT-2e" x="55.615234"/>
       <use xlink:href="#ArialMT-35" x="83.398438"/>
      </g>
     </g>
    </g>
    <g id="xtick_5">
     <g id="line2d_5">
      <path d="M 332.081406 339.84 
L 332.081406 7.2 
" clip-path="url(#pe836ef0151)" style="fill: none; stroke: #ffffff; stroke-linecap: round"/>
     </g>
     <g id="text_5">
      <!-- 10.0 -->
      <g style="fill: #262626" transform="translate(321.377891 357.213594) scale(0.11 -0.11)">
       <defs>
        <path id="ArialMT-31" d="M 2384 0 
L 1822 0 
L 1822 3584 
Q 1619 3391 1289 3197 
Q 959 3003 697 2906 
L 697 3450 
Q 1169 3672 1522 3987 
Q 1875 4303 2022 4600 
L 2384 4600 
L 2384 0 
z
" transform="scale(0.015625)"/>
       </defs>
       <use xlink:href="#ArialMT-31"/>
       <use xlink:href="#ArialMT-30" x="55.615234"/>
       <use xlink:href="#ArialMT-2e" x="111.230469"/>
       <use xlink:href="#ArialMT-30" x="139.013672"/>
      </g>
     </g>
    </g>
    <g id="xtick_6">
     <g id="line2d_6">
      <path d="M 401.831406 339.84 
L 401.831406 7.2 
" clip-path="url(#pe836ef0151)" style="fill: none; stroke: #ffffff; stroke-linecap: round"/>
     </g>
     <g id="text_6">
      <!-- 12.5 -->
      <g style="fill: #262626" transform="translate(391.127891 357.213594) scale(0.11 -0.11)">
       <use xlink:href="#ArialMT-31"/>
       <use xlink:href="#ArialMT-32" x="55.615234"/>
       <use xlink:href="#ArialMT-2e" x="111.230469"/>
       <use xlink:href="#ArialMT-35" x="139.013672"/>
      </g>
     </g>
    </g>
    <g id="xtick_7">
     <g id="line2d_7">
      <path d="M 471.581406 339.84 
L 471.581406 7.2 
" clip-path="url(#pe836ef0151)" style="fill: none; stroke: #ffffff; stroke-linecap: round"/>
     </g>
     <g id="text_7">
      <!-- 15.0 -->
      <g style="fill: #262626" transform="translate(460.877891 357.213594) scale(0.11 -0.11)">
       <use xlink:href="#ArialMT-31"/>
       <use xlink:href="#ArialMT-35" x="55.615234"/>
       <use xlink:href="#ArialMT-2e" x="111.230469"/>
       <use xlink:href="#ArialMT-30" x="139.013672"/>
      </g>
     </g>
    </g>
    <g id="xtick_8">
     <g id="line2d_8">
      <path d="M 541.331406 339.84 
L 541.331406 7.2 
" clip-path="url(#pe836ef0151)" style="fill: none; stroke: #ffffff; stroke-linecap: round"/>
     </g>
     <g id="text_8">
      <!-- 17.5 -->
      <g style="fill: #262626" transform="translate(530.627891 357.213594) scale(0.11 -0.11)">
       <use xlink:href="#ArialMT-31"/>
       <use xlink:href="#ArialMT-37" x="55.615234"/>
       <use xlink:href="#ArialMT-2e" x="111.230469"/>
       <use xlink:href="#ArialMT-35" x="139.013672"/>
      </g>
     </g>
    </g>
    <g id="xtick_9">
     <g id="line2d_9">
      <path d="M 611.081406 339.84 
L 611.081406 7.2 
" clip-path="url(#pe836ef0151)" style="fill: none; stroke: #ffffff; stroke-linecap: round"/>
     </g>
     <g id="text_9">
      <!-- 20.0 -->
      <g style="fill: #262626" transform="translate(600.377891 357.213594) scale(0.11 -0.11)">
       <use xlink:href="#ArialMT-32"/>
       <use xlink:href="#ArialMT-30" x="55.615234"/>
       <use xlink:href="#ArialMT-2e" x="111.230469"/>
       <use xlink:href="#ArialMT-30" x="139.013672"/>
      </g>
     </g>
    </g>
    <g id="text_10">
     <!-- Tempo di attesa -->
     <g style="fill: #262626" transform="translate(289.729844 371.989219) scale(0.12 -0.12)">
      <defs>
       <path id="ArialMT-54" d="M 1659 0 
L 1659 4041 
L 150 4041 
L 150 4581 
L 3781 4581 
L 3781 4041 
L 2266 4041 
L 2266 0 
L 1659 0 
z
" transform="scale(0.015625)"/>
       <path id="ArialMT-65" d="M 2694 1069 
L 3275 997 
Q 3138 488 2766 206 
Q 2394 -75 1816 -75 
Q 1088 -75 661 373 
Q 234 822 234 1631 
Q 234 2469 665 2931 
Q 1097 3394 1784 3394 
Q 2450 3394 2872 2941 
Q 3294 2488 3294 1666 
Q 3294 1616 3291 1516 
L 816 1516 
Q 847 969 1125 678 
Q 1403 388 1819 388 
Q 2128 388 2347 550 
Q 2566 713 2694 1069 
z
M 847 1978 
L 2700 1978 
Q 2663 2397 2488 2606 
Q 2219 2931 1791 2931 
Q 1403 2931 1139 2672 
Q 875 2413 847 1978 
z
" transform="scale(0.015625)"/>
       <path id="ArialMT-6d" d="M 422 0 
L 422 3319 
L 925 3319 
L 925 2853 
Q 1081 3097 1340 3245 
Q 1600 3394 1931 3394 
Q 2300 3394 2536 3241 
Q 2772 3088 2869 2813 
Q 3263 3394 3894 3394 
Q 4388 3394 4653 3120 
Q 4919 2847 4919 2278 
L 4919 0 
L 4359 0 
L 4359 2091 
Q 4359 2428 4304 2576 
Q 4250 2725 4106 2815 
Q 3963 2906 3769 2906 
Q 3419 2906 3187 2673 
Q 2956 2441 2956 1928 
L 2956 0 
L 2394 0 
L 2394 2156 
Q 2394 2531 2256 2718 
Q 2119 2906 1806 2906 
Q 1569 2906 1367 2781 
Q 1166 2656 1075 2415 
Q 984 2175 984 1722 
L 984 0 
L 422 0 
z
" transform="scale(0.015625)"/>
       <path id="ArialMT-70" d="M 422 -1272 
L 422 3319 
L 934 3319 
L 934 2888 
Q 1116 3141 1344 3267 
Q 1572 3394 1897 3394 
Q 2322 3394 2647 3175 
Q 2972 2956 3137 2557 
Q 3303 2159 3303 1684 
Q 3303 1175 3120 767 
Q 2938 359 2589 142 
Q 2241 -75 1856 -75 
Q 1575 -75 1351 44 
Q 1128 163 984 344 
L 984 -1272 
L 422 -1272 
z
M 931 1641 
Q 931 1000 1190 694 
Q 1450 388 1819 388 
Q 2194 388 2461 705 
Q 2728 1022 2728 1688 
Q 2728 2322 2467 2637 
Q 2206 2953 1844 2953 
Q 1484 2953 1207 2617 
Q 931 2281 931 1641 
z
" transform="scale(0.015625)"/>
       <path id="ArialMT-6f" d="M 213 1659 
Q 213 2581 725 3025 
Q 1153 3394 1769 3394 
Q 2453 3394 2887 2945 
Q 3322 2497 3322 1706 
Q 3322 1066 3130 698 
Q 2938 331 2570 128 
Q 2203 -75 1769 -75 
Q 1072 -75 642 372 
Q 213 819 213 1659 
z
M 791 1659 
Q 791 1022 1069 705 
Q 1347 388 1769 388 
Q 2188 388 2466 706 
Q 2744 1025 2744 1678 
Q 2744 2294 2464 2611 
Q 2184 2928 1769 2928 
Q 1347 2928 1069 2612 
Q 791 2297 791 1659 
z
" transform="scale(0.015625)"/>
       <path id="ArialMT-20" transform="scale(0.015625)"/>
       <path id="ArialMT-64" d="M 2575 0 
L 2575 419 
Q 2259 -75 1647 -75 
Q 1250 -75 917 144 
Q 584 363 401 755 
Q 219 1147 219 1656 
Q 219 2153 384 2558 
Q 550 2963 881 3178 
Q 1213 3394 1622 3394 
Q 1922 3394 2156 3267 
Q 2391 3141 2538 2938 
L 2538 4581 
L 3097 4581 
L 3097 0 
L 2575 0 
z
M 797 1656 
Q 797 1019 1065 703 
Q 1334 388 1700 388 
Q 2069 388 2326 689 
Q 2584 991 2584 1609 
Q 2584 2291 2321 2609 
Q 2059 2928 1675 2928 
Q 1300 2928 1048 2622 
Q 797 2316 797 1656 
z
" transform="scale(0.015625)"/>
       <path id="ArialMT-69" d="M 425 3934 
L 425 4581 
L 988 4581 
L 988 3934 
L 425 3934 
z
M 425 0 
L 425 3319 
L 988 3319 
L 988 0 
L 425 0 
z
" transform="scale(0.015625)"/>
       <path id="ArialMT-61" d="M 2588 409 
Q 2275 144 1986 34 
Q 1697 -75 1366 -75 
Q 819 -75 525 192 
Q 231 459 231 875 
Q 231 1119 342 1320 
Q 453 1522 633 1644 
Q 813 1766 1038 1828 
Q 1203 1872 1538 1913 
Q 2219 1994 2541 2106 
Q 2544 2222 2544 2253 
Q 2544 2597 2384 2738 
Q 2169 2928 1744 2928 
Q 1347 2928 1158 2789 
Q 969 2650 878 2297 
L 328 2372 
Q 403 2725 575 2942 
Q 747 3159 1072 3276 
Q 1397 3394 1825 3394 
Q 2250 3394 2515 3294 
Q 2781 3194 2906 3042 
Q 3031 2891 3081 2659 
Q 3109 2516 3109 2141 
L 3109 1391 
Q 3109 606 3145 398 
Q 3181 191 3288 0 
L 2700 0 
Q 2613 175 2588 409 
z
M 2541 1666 
Q 2234 1541 1622 1453 
Q 1275 1403 1131 1340 
Q 988 1278 909 1158 
Q 831 1038 831 891 
Q 831 666 1001 516 
Q 1172 366 1500 366 
Q 1825 366 2078 508 
Q 2331 650 2450 897 
Q 2541 1088 2541 1459 
L 2541 1666 
z
" transform="scale(0.015625)"/>
       <path id="ArialMT-74" d="M 1650 503 
L 1731 6 
Q 1494 -44 1306 -44 
Q 1000 -44 831 53 
Q 663 150 594 308 
Q 525 466 525 972 
L 525 2881 
L 113 2881 
L 113 3319 
L 525 3319 
L 525 4141 
L 1084 4478 
L 1084 3319 
L 1650 3319 
L 1650 2881 
L 1084 2881 
L 1084 941 
Q 1084 700 1114 631 
Q 1144 563 1211 522 
Q 1278 481 1403 481 
Q 1497 481 1650 503 
z
" transform="scale(0.015625)"/>
       <path id="ArialMT-73" d="M 197 991 
L 753 1078 
Q 800 744 1014 566 
Q 1228 388 1613 388 
Q 2000 388 2187 545 
Q 2375 703 2375 916 
Q 2375 1106 2209 1216 
Q 2094 1291 1634 1406 
Q 1016 1563 777 1677 
Q 538 1791 414 1992 
Q 291 2194 291 2438 
Q 291 2659 392 2848 
Q 494 3038 669 3163 
Q 800 3259 1026 3326 
Q 1253 3394 1513 3394 
Q 1903 3394 2198 3281 
Q 2494 3169 2634 2976 
Q 2775 2784 2828 2463 
L 2278 2388 
Q 2241 2644 2061 2787 
Q 1881 2931 1553 2931 
Q 1166 2931 1000 2803 
Q 834 2675 834 2503 
Q 834 2394 903 2306 
Q 972 2216 1119 2156 
Q 1203 2125 1616 2013 
Q 2213 1853 2448 1751 
Q 2684 1650 2818 1456 
Q 2953 1263 2953 975 
Q 2953 694 2789 445 
Q 2625 197 2315 61 
Q 2006 -75 1616 -75 
Q 969 -75 630 194 
Q 291 463 197 991 
z
" transform="scale(0.015625)"/>
      </defs>
      <use xlink:href="#ArialMT-54"/>
      <use xlink:href="#ArialMT-65" x="49.958984"/>
      <use xlink:href="#ArialMT-6d" x="105.574219"/>
      <use xlink:href="#ArialMT-70" x="188.875"/>
      <use xlink:href="#ArialMT-6f" x="244.490234"/>
      <use xlink:href="#ArialMT-20" x="300.105469"/>
      <use xlink:href="#ArialMT-64" x="327.888672"/>
      <use xlink:href="#ArialMT-69" x="383.503906"/>
      <use xlink:href="#ArialMT-20" x="405.720703"/>
      <use xlink:href="#ArialMT-61" x="433.503906"/>
      <use xlink:href="#ArialMT-74" x="489.119141"/>
      <use xlink:href="#ArialMT-74" x="516.902344"/>
      <use xlink:href="#ArialMT-65" x="544.685547"/>
      <use xlink:href="#ArialMT-73" x="600.300781"/>
      <use xlink:href="#ArialMT-61" x="650.300781"/>
     </g>
    </g>
   </g>
   <g id="matplotlib.axis_2">
    <g id="ytick_1">
     <g id="line2d_10">
      <path d="M 53.081406 339.84 
L 611.081406 339.84 
" clip-path="url(#pe836ef0151)" style="fill: none; stroke: #ffffff; stroke-linecap: round"/>
     </g>
     <g id="text_11">
      <!-- 0.00 -->
      <g style="fill: #262626" transform="translate(22.174375 343.776797) scale(0.11 -0.11)">
       <use xlink:href="#ArialMT-30"/>
       <use xlink:href="#ArialMT-2e" x="55.615234"/>
       <use xlink:href="#ArialMT-30" x="83.398438"/>
       <use xlink:href="#ArialMT-30" x="139.013672"/>
      </g>
     </g>
    </g>
    <g id="ytick_2">
     <g id="line2d_11">
      <path d="M 53.081406 276.48 
L 611.081406 276.48 
" clip-path="url(#pe836ef0151)" style="fill: none; stroke: #ffffff; stroke-linecap: round"/>
     </g>
     <g id="text_12">
      <!-- 0.05 -->
      <g style="fill: #262626" transform="translate(22.174375 280.416797) scale(0.11 -0.11)">
       <use xlink:href="#ArialMT-30"/>
       <use xlink:href="#ArialMT-2e" x="55.615234"/>
       <use xlink:href="#ArialMT-30" x="83.398438"/>
       <use xlink:href="#ArialMT-35" x="139.013672"/>
      </g>
     </g>
    </g>
    <g id="ytick_3">
     <g id="line2d_12">
      <path d="M 53.081406 213.12 
L 611.081406 213.12 
" clip-path="url(#pe836ef0151)" style="fill: none; stroke: #ffffff; stroke-linecap: round"/>
     </g>
     <g id="text_13">
      <!-- 0.10 -->
      <g style="fill: #262626" transform="translate(22.174375 217.056797) scale(0.11 -0.11)">
       <use xlink:href="#ArialMT-30"/>
       <use xlink:href="#ArialMT-2e" x="55.615234"/>
       <use xlink:href="#ArialMT-31" x="83.398438"/>
       <use xlink:href="#ArialMT-30" x="139.013672"/>
      </g>
     </g>
    </g>
    <g id="ytick_4">
     <g id="line2d_13">
      <path d="M 53.081406 149.76 
L 611.081406 149.76 
" clip-path="url(#pe836ef0151)" style="fill: none; stroke: #ffffff; stroke-linecap: round"/>
     </g>
     <g id="text_14">
      <!-- 0.15 -->
      <g style="fill: #262626" transform="translate(22.174375 153.696797) scale(0.11 -0.11)">
       <use xlink:href="#ArialMT-30"/>
       <use xlink:href="#ArialMT-2e" x="55.615234"/>
       <use xlink:href="#ArialMT-31" x="83.398438"/>
       <use xlink:href="#ArialMT-35" x="139.013672"/>
      </g>
     </g>
    </g>
    <g id="ytick_5">
     <g id="line2d_14">
      <path d="M 53.081406 86.4 
L 611.081406 86.4 
" clip-path="url(#pe836ef0151)" style="fill: none; stroke: #ffffff; stroke-linecap: round"/>
     </g>
     <g id="text_15">
      <!-- 0.20 -->
      <g style="fill: #262626" transform="translate(22.174375 90.336797) scale(0.11 -0.11)">
       <use xlink:href="#ArialMT-30"/>
       <use xlink:href="#ArialMT-2e" x="55.615234"/>
       <use xlink:href="#ArialMT-32" x="83.398438"/>
       <use xlink:href="#ArialMT-30" x="139.013672"/>
      </g>
     </g>
    </g>
    <g id="ytick_6">
     <g id="line2d_15">
      <path d="M 53.081406 23.04 
L 611.081406 23.04 
" clip-path="url(#pe836ef0151)" style="fill: none; stroke: #ffffff; stroke-linecap: round"/>
     </g>
     <g id="text_16">
      <!-- 0.25 -->
      <g style="fill: #262626" transform="translate(22.174375 26.976797) scale(0.11 -0.11)">
       <use xlink:href="#ArialMT-30"/>
       <use xlink:href="#ArialMT-2e" x="55.615234"/>
       <use xlink:href="#ArialMT-32" x="83.398438"/>
       <use xlink:href="#ArialMT-35" x="139.013672"/>
      </g>
     </g>
    </g>
    <g id="text_17">
     <!-- Frequenza relativa -->
     <g style="fill: #262626" transform="translate(15.789375 223.209375) rotate(-90) scale(0.12 -0.12)">
      <defs>
       <path id="ArialMT-46" d="M 525 0 
L 525 4581 
L 3616 4581 
L 3616 4041 
L 1131 4041 
L 1131 2622 
L 3281 2622 
L 3281 2081 
L 1131 2081 
L 1131 0 
L 525 0 
z
" transform="scale(0.015625)"/>
       <path id="ArialMT-72" d="M 416 0 
L 416 3319 
L 922 3319 
L 922 2816 
Q 1116 3169 1280 3281 
Q 1444 3394 1641 3394 
Q 1925 3394 2219 3213 
L 2025 2691 
Q 1819 2813 1613 2813 
Q 1428 2813 1281 2702 
Q 1134 2591 1072 2394 
Q 978 2094 978 1738 
L 978 0 
L 416 0 
z
" transform="scale(0.015625)"/>
       <path id="ArialMT-71" d="M 2538 -1272 
L 2538 353 
Q 2406 169 2170 47 
Q 1934 -75 1669 -75 
Q 1078 -75 651 397 
Q 225 869 225 1691 
Q 225 2191 398 2587 
Q 572 2984 901 3189 
Q 1231 3394 1625 3394 
Q 2241 3394 2594 2875 
L 2594 3319 
L 3100 3319 
L 3100 -1272 
L 2538 -1272 
z
M 803 1669 
Q 803 1028 1072 708 
Q 1341 388 1716 388 
Q 2075 388 2334 692 
Q 2594 997 2594 1619 
Q 2594 2281 2320 2615 
Q 2047 2950 1678 2950 
Q 1313 2950 1058 2639 
Q 803 2328 803 1669 
z
" transform="scale(0.015625)"/>
       <path id="ArialMT-75" d="M 2597 0 
L 2597 488 
Q 2209 -75 1544 -75 
Q 1250 -75 995 37 
Q 741 150 617 320 
Q 494 491 444 738 
Q 409 903 409 1263 
L 409 3319 
L 972 3319 
L 972 1478 
Q 972 1038 1006 884 
Q 1059 663 1231 536 
Q 1403 409 1656 409 
Q 1909 409 2131 539 
Q 2353 669 2445 892 
Q 2538 1116 2538 1541 
L 2538 3319 
L 3100 3319 
L 3100 0 
L 2597 0 
z
" transform="scale(0.015625)"/>
       <path id="ArialMT-6e" d="M 422 0 
L 422 3319 
L 928 3319 
L 928 2847 
Q 1294 3394 1984 3394 
Q 2284 3394 2536 3286 
Q 2788 3178 2913 3003 
Q 3038 2828 3088 2588 
Q 3119 2431 3119 2041 
L 3119 0 
L 2556 0 
L 2556 2019 
Q 2556 2363 2490 2533 
Q 2425 2703 2258 2804 
Q 2091 2906 1866 2906 
Q 1506 2906 1245 2678 
Q 984 2450 984 1813 
L 984 0 
L 422 0 
z
" transform="scale(0.015625)"/>
       <path id="ArialMT-7a" d="M 125 0 
L 125 456 
L 2238 2881 
Q 1878 2863 1603 2863 
L 250 2863 
L 250 3319 
L 2963 3319 
L 2963 2947 
L 1166 841 
L 819 456 
Q 1197 484 1528 484 
L 3063 484 
L 3063 0 
L 125 0 
z
" transform="scale(0.015625)"/>
       <path id="ArialMT-6c" d="M 409 0 
L 409 4581 
L 972 4581 
L 972 0 
L 409 0 
z
" transform="scale(0.015625)"/>
       <path id="ArialMT-76" d="M 1344 0 
L 81 3319 
L 675 3319 
L 1388 1331 
Q 1503 1009 1600 663 
Q 1675 925 1809 1294 
L 2547 3319 
L 3125 3319 
L 1869 0 
L 1344 0 
z
" transform="scale(0.015625)"/>
      </defs>
      <use xlink:href="#ArialMT-46"/>
      <use xlink:href="#ArialMT-72" x="61.083984"/>
      <use xlink:href="#ArialMT-65" x="94.384766"/>
      <use xlink:href="#ArialMT-71" x="150"/>
      <use xlink:href="#ArialMT-75" x="205.615234"/>
      <use xlink:href="#ArialMT-65" x="261.230469"/>
      <use xlink:href="#ArialMT-6e" x="316.845703"/>
      <use xlink:href="#ArialMT-7a" x="372.460938"/>
      <use xlink:href="#ArialMT-61" x="422.460938"/>
      <use xlink:href="#ArialMT-20" x="478.076172"/>
      <use xlink:href="#ArialMT-72" x="505.859375"/>
      <use xlink:href="#ArialMT-65" x="539.160156"/>
      <use xlink:href="#ArialMT-6c" x="594.775391"/>
      <use xlink:href="#ArialMT-61" x="616.992188"/>
      <use xlink:href="#ArialMT-74" x="672.607422"/>
      <use xlink:href="#ArialMT-69" x="700.390625"/>
      <use xlink:href="#ArialMT-76" x="722.607422"/>
      <use xlink:href="#ArialMT-61" x="772.607422"/>
     </g>
    </g>
   </g>
   <g id="patch_3">
    <path d="M 53.081469 339.84 
L 72.076253 339.84 
L 72.076253 49.325492 
L 53.081469 49.325492 
z
" clip-path="url(#pe836ef0151)" style="fill: #0173b2; stroke: #ffffff; stroke-linejoin: miter"/>
   </g>
   <g id="patch_4">
    <path d="M 72.076253 339.84 
L 91.071038 339.84 
L 91.071038 93.657796 
L 72.076253 93.657796 
z
" clip-path="url(#pe836ef0151)" style="fill: #0173b2; stroke: #ffffff; stroke-linejoin: miter"/>
   </g>
   <g id="patch_5">
    <path d="M 91.071038 339.84 
L 110.065822 339.84 
L 110.065822 132.3541 
L 91.071038 132.3541 
z
" clip-path="url(#pe836ef0151)" style="fill: #0173b2; stroke: #ffffff; stroke-linejoin: miter"/>
   </g>
   <g id="patch_6">
    <path d="M 110.065822 339.84 
L 129.060606 339.84 
L 129.060606 164.247375 
L 110.065822 164.247375 
z
" clip-path="url(#pe836ef0151)" style="fill: #0173b2; stroke: #ffffff; stroke-linejoin: miter"/>
   </g>
   <g id="patch_7">
    <path d="M 129.060606 339.84 
L 148.05539 339.84 
L 148.05539 192.777291 
L 129.060606 192.777291 
z
" clip-path="url(#pe836ef0151)" style="fill: #0173b2; stroke: #ffffff; stroke-linejoin: miter"/>
   </g>
   <g id="patch_8">
    <path d="M 148.05539 339.84 
L 167.050174 339.84 
L 167.050174 215.161214 
L 148.05539 215.161214 
z
" clip-path="url(#pe836ef0151)" style="fill: #0173b2; stroke: #ffffff; stroke-linejoin: miter"/>
   </g>
   <g id="patch_9">
    <path d="M 167.050174 339.84 
L 186.044959 339.84 
L 186.044959 234.732722 
L 167.050174 234.732722 
z
" clip-path="url(#pe836ef0151)" style="fill: #0173b2; stroke: #ffffff; stroke-linejoin: miter"/>
   </g>
   <g id="patch_10">
    <path d="M 186.044959 339.84 
L 205.039743 339.84 
L 205.039743 251.192145 
L 186.044959 251.192145 
z
" clip-path="url(#pe836ef0151)" style="fill: #0173b2; stroke: #ffffff; stroke-linejoin: miter"/>
   </g>
   <g id="patch_11">
    <path d="M 205.039743 339.84 
L 224.034527 339.84 
L 224.034527 266.101111 
L 205.039743 266.101111 
z
" clip-path="url(#pe836ef0151)" style="fill: #0173b2; stroke: #ffffff; stroke-linejoin: miter"/>
   </g>
   <g id="patch_12">
    <path d="M 224.034527 339.84 
L 243.029311 339.84 
L 243.029311 276.896617 
L 224.034527 276.896617 
z
" clip-path="url(#pe836ef0151)" style="fill: #0173b2; stroke: #ffffff; stroke-linejoin: miter"/>
   </g>
   <g id="patch_13">
    <path d="M 243.029311 339.84 
L 262.024095 339.84 
L 262.024095 286.539982 
L 243.029311 286.539982 
z
" clip-path="url(#pe836ef0151)" style="fill: #0173b2; stroke: #ffffff; stroke-linejoin: miter"/>
   </g>
   <g id="patch_14">
    <path d="M 262.024095 339.84 
L 281.01888 339.84 
L 281.01888 295.070293 
L 262.024095 295.070293 
z
" clip-path="url(#pe836ef0151)" style="fill: #0173b2; stroke: #ffffff; stroke-linejoin: miter"/>
   </g>
   <g id="patch_15">
    <path d="M 281.01888 339.84 
L 300.013664 339.84 
L 300.013664 302.102262 
L 281.01888 302.102262 
z
" clip-path="url(#pe836ef0151)" style="fill: #0173b2; stroke: #ffffff; stroke-linejoin: miter"/>
   </g>
   <g id="patch_16">
    <path d="M 300.013664 339.84 
L 319.008448 339.84 
L 319.008448 308.008148 
L 300.013664 308.008148 
z
" clip-path="url(#pe836ef0151)" style="fill: #0173b2; stroke: #ffffff; stroke-linejoin: miter"/>
   </g>
   <g id="patch_17">
    <path d="M 319.008448 339.84 
L 338.003232 339.84 
L 338.003232 312.568319 
L 319.008448 312.568319 
z
" clip-path="url(#pe836ef0151)" style="fill: #0173b2; stroke: #ffffff; stroke-linejoin: miter"/>
   </g>
   <g id="patch_18">
    <path d="M 338.003232 339.84 
L 356.998016 339.84 
L 356.998016 317.23086 
L 338.003232 317.23086 
z
" clip-path="url(#pe836ef0151)" style="fill: #0173b2; stroke: #ffffff; stroke-linejoin: miter"/>
   </g>
   <g id="patch_19">
    <path d="M 356.998016 339.84 
L 375.992801 339.84 
L 375.992801 320.741261 
L 356.998016 320.741261 
z
" clip-path="url(#pe836ef0151)" style="fill: #0173b2; stroke: #ffffff; stroke-linejoin: miter"/>
   </g>
   <g id="patch_20">
    <path d="M 375.992801 339.84 
L 394.987585 339.84 
L 394.987585 323.724916 
L 375.992801 323.724916 
z
" clip-path="url(#pe836ef0151)" style="fill: #0173b2; stroke: #ffffff; stroke-linejoin: miter"/>
   </g>
   <g id="patch_21">
    <path d="M 394.987585 339.84 
L 413.982369 339.84 
L 413.982369 326.142737 
L 394.987585 326.142737 
z
" clip-path="url(#pe836ef0151)" style="fill: #0173b2; stroke: #ffffff; stroke-linejoin: miter"/>
   </g>
   <g id="patch_22">
    <path d="M 413.982369 339.84 
L 432.977153 339.84 
L 432.977153 328.337202 
L 413.982369 328.337202 
z
" clip-path="url(#pe836ef0151)" style="fill: #0173b2; stroke: #ffffff; stroke-linejoin: miter"/>
   </g>
   <g id="patch_23">
    <path d="M 432.977153 339.84 
L 451.971938 339.84 
L 451.971938 330.239445 
L 432.977153 330.239445 
z
" clip-path="url(#pe836ef0151)" style="fill: #0173b2; stroke: #ffffff; stroke-linejoin: miter"/>
   </g>
   <g id="patch_24">
    <path d="M 451.971938 339.84 
L 470.966722 339.84 
L 470.966722 331.588883 
L 451.971938 331.588883 
z
" clip-path="url(#pe836ef0151)" style="fill: #0173b2; stroke: #ffffff; stroke-linejoin: miter"/>
   </g>
   <g id="patch_25">
    <path d="M 470.966722 339.84 
L 489.961506 339.84 
L 489.961506 332.97927 
L 470.966722 332.97927 
z
" clip-path="url(#pe836ef0151)" style="fill: #0173b2; stroke: #ffffff; stroke-linejoin: miter"/>
   </g>
   <g id="patch_26">
    <path d="M 489.961506 339.84 
L 508.95629 339.84 
L 508.95629 334.176082 
L 489.961506 334.176082 
z
" clip-path="url(#pe836ef0151)" style="fill: #0173b2; stroke: #ffffff; stroke-linejoin: miter"/>
   </g>
   <g id="patch_27">
    <path d="M 508.95629 339.84 
L 527.951074 339.84 
L 527.951074 335.060197 
L 508.95629 335.060197 
z
" clip-path="url(#pe836ef0151)" style="fill: #0173b2; stroke: #ffffff; stroke-linejoin: miter"/>
   </g>
   <g id="patch_28">
    <path d="M 527.951074 339.84 
L 546.945859 339.84 
L 546.945859 335.659533 
L 527.951074 335.659533 
z
" clip-path="url(#pe836ef0151)" style="fill: #0173b2; stroke: #ffffff; stroke-linejoin: miter"/>
   </g>
   <g id="patch_29">
    <path d="M 546.945859 339.84 
L 565.940643 339.84 
L 565.940643 336.400328 
L 546.945859 336.400328 
z
" clip-path="url(#pe836ef0151)" style="fill: #0173b2; stroke: #ffffff; stroke-linejoin: miter"/>
   </g>
   <g id="patch_30">
    <path d="M 565.940643 339.84 
L 584.935427 339.84 
L 584.935427 336.953133 
L 565.940643 336.953133 
z
" clip-path="url(#pe836ef0151)" style="fill: #0173b2; stroke: #ffffff; stroke-linejoin: miter"/>
   </g>
   <g id="patch_31">
    <path d="M 584.935427 339.84 
L 603.930211 339.84 
L 603.930211 337.470573 
L 584.935427 337.470573 
z
" clip-path="url(#pe836ef0151)" style="fill: #0173b2; stroke: #ffffff; stroke-linejoin: miter"/>
   </g>
   <g id="patch_32">
    <path d="M 603.930211 339.84 
L 622.924995 339.84 
L 622.924995 337.794438 
L 603.930211 337.794438 
z
" clip-path="url(#pe836ef0151)" style="fill: #0173b2; stroke: #ffffff; stroke-linejoin: miter"/>
   </g>
   <g id="patch_33">
    <path d="M 622.924995 339.84 
L 641.91978 339.84 
L 641.91978 338.118303 
L 622.924995 338.118303 
z
" clip-path="url(#pe836ef0151)" style="fill: #0173b2; stroke: #ffffff; stroke-linejoin: miter"/>
   </g>
   <g id="patch_34">
    <path d="M 641.91978 339.84 
L 660.914564 339.84 
L 660.914564 338.319323 
L 641.91978 338.319323 
z
" clip-path="url(#pe836ef0151)" style="fill: #0173b2; stroke: #ffffff; stroke-linejoin: miter"/>
   </g>
   <g id="patch_35">
    <path d="M 660.914564 339.84 
L 679.909348 339.84 
L 679.909348 338.542678 
L 660.914564 338.542678 
z
" clip-path="url(#pe836ef0151)" style="fill: #0173b2; stroke: #ffffff; stroke-linejoin: miter"/>
   </g>
   <g id="patch_36">
    <path d="M 679.909348 339.84 
L 698.904132 339.84 
L 698.904132 338.793953 
L 679.909348 338.793953 
z
" clip-path="url(#pe836ef0151)" style="fill: #0173b2; stroke: #ffffff; stroke-linejoin: miter"/>
   </g>
   <g id="patch_37">
    <path d="M 698.904132 339.84 
L 717.898916 339.84 
L 717.898916 338.957747 
L 698.904132 338.957747 
z
" clip-path="url(#pe836ef0151)" style="fill: #0173b2; stroke: #ffffff; stroke-linejoin: miter"/>
   </g>
   <g id="patch_38">
    <path d="M 717.898916 339.84 
L 736.893701 339.84 
L 736.893701 339.011724 
L 717.898916 339.011724 
z
" clip-path="url(#pe836ef0151)" style="fill: #0173b2; stroke: #ffffff; stroke-linejoin: miter"/>
   </g>
   <g id="patch_39">
    <path d="M 736.893701 339.84 
L 755.888485 339.84 
L 755.888485 339.190408 
L 736.893701 339.190408 
z
" clip-path="url(#pe836ef0151)" style="fill: #0173b2; stroke: #ffffff; stroke-linejoin: miter"/>
   </g>
   <g id="patch_40">
    <path d="M 755.888485 339.84 
L 774.883269 339.84 
L 774.883269 339.315115 
L 755.888485 339.315115 
z
" clip-path="url(#pe836ef0151)" style="fill: #0173b2; stroke: #ffffff; stroke-linejoin: miter"/>
   </g>
   <g id="patch_41">
    <path d="M 774.883269 339.84 
L 793.878053 339.84 
L 793.878053 339.363509 
L 774.883269 339.363509 
z
" clip-path="url(#pe836ef0151)" style="fill: #0173b2; stroke: #ffffff; stroke-linejoin: miter"/>
   </g>
   <g id="patch_42">
    <path d="M 793.878053 339.84 
L 812.872837 339.84 
L 812.872837 339.456573 
L 793.878053 339.456573 
z
" clip-path="url(#pe836ef0151)" style="fill: #0173b2; stroke: #ffffff; stroke-linejoin: miter"/>
   </g>
   <g id="patch_43">
    <path d="M 812.872837 339.84 
L 831.867622 339.84 
L 831.867622 339.50869 
L 812.872837 339.50869 
z
" clip-path="url(#pe836ef0151)" style="fill: #0173b2; stroke: #ffffff; stroke-linejoin: miter"/>
   </g>
   <g id="patch_44">
    <path d="M 831.867622 339.84 
L 850.862406 339.84 
L 850.862406 339.603616 
L 831.867622 339.603616 
z
" clip-path="url(#pe836ef0151)" style="fill: #0173b2; stroke: #ffffff; stroke-linejoin: miter"/>
   </g>
   <g id="patch_45">
    <path d="M 850.862406 339.84 
L 869.85719 339.84 
L 869.85719 339.616645 
L 850.862406 339.616645 
z
" clip-path="url(#pe836ef0151)" style="fill: #0173b2; stroke: #ffffff; stroke-linejoin: miter"/>
   </g>
   <g id="patch_46">
    <path d="M 869.85719 339.84 
L 888.851974 339.84 
L 888.851974 339.670622 
L 869.85719 339.670622 
z
" clip-path="url(#pe836ef0151)" style="fill: #0173b2; stroke: #ffffff; stroke-linejoin: miter"/>
   </g>
   <g id="patch_47">
    <path d="M 888.851974 339.84 
L 907.846759 339.84 
L 907.846759 339.68179 
L 888.851974 339.68179 
z
" clip-path="url(#pe836ef0151)" style="fill: #0173b2; stroke: #ffffff; stroke-linejoin: miter"/>
   </g>
   <g id="patch_48">
    <path d="M 907.846759 339.84 
L 926.841543 339.84 
L 926.841543 339.69668 
L 907.846759 339.69668 
z
" clip-path="url(#pe836ef0151)" style="fill: #0173b2; stroke: #ffffff; stroke-linejoin: miter"/>
   </g>
   <g id="patch_49">
    <path d="M 926.841543 339.84 
L 945.836327 339.84 
L 945.836327 339.732045 
L 926.841543 339.732045 
z
" clip-path="url(#pe836ef0151)" style="fill: #0173b2; stroke: #ffffff; stroke-linejoin: miter"/>
   </g>
   <g id="patch_50">
    <path d="M 945.836327 339.84 
L 964.831111 339.84 
L 964.831111 339.771132 
L 945.836327 339.771132 
z
" clip-path="url(#pe836ef0151)" style="fill: #0173b2; stroke: #ffffff; stroke-linejoin: miter"/>
   </g>
   <g id="patch_51">
    <path d="M 964.831111 339.84 
L 983.825895 339.84 
L 983.825895 339.745074 
L 964.831111 339.745074 
z
" clip-path="url(#pe836ef0151)" style="fill: #0173b2; stroke: #ffffff; stroke-linejoin: miter"/>
   </g>
   <g id="patch_52">
    <path d="M 983.825895 339.84 
L 1002.82068 339.84 
L 1002.82068 339.772993 
L 983.825895 339.772993 
z
" clip-path="url(#pe836ef0151)" style="fill: #0173b2; stroke: #ffffff; stroke-linejoin: miter"/>
   </g>
   <g id="patch_53">
    <path d="M 1002.82068 339.84 
L 1021.815464 339.84 
L 1021.815464 339.758103 
L 1002.82068 339.758103 
z
" clip-path="url(#pe836ef0151)" style="fill: #0173b2; stroke: #ffffff; stroke-linejoin: miter"/>
   </g>
   <g id="patch_54">
    <path d="M 1021.815464 339.84 
L 1040.810248 339.84 
L 1040.810248 339.799052 
L 1021.815464 339.799052 
z
" clip-path="url(#pe836ef0151)" style="fill: #0173b2; stroke: #ffffff; stroke-linejoin: miter"/>
   </g>
   <g id="patch_55">
    <path d="M 1040.810248 339.84 
L 1059.805032 339.84 
L 1059.805032 339.795329 
L 1040.810248 339.795329 
z
" clip-path="url(#pe836ef0151)" style="fill: #0173b2; stroke: #ffffff; stroke-linejoin: miter"/>
   </g>
   <g id="patch_56">
    <path d="M 1059.805032 339.84 
L 1078.799816 339.84 
L 1078.799816 339.808358 
L 1059.805032 339.808358 
z
" clip-path="url(#pe836ef0151)" style="fill: #0173b2; stroke: #ffffff; stroke-linejoin: miter"/>
   </g>
   <g id="patch_57">
    <path d="M 1078.799816 339.84 
L 1097.794601 339.84 
L 1097.794601 339.817664 
L 1078.799816 339.817664 
z
" clip-path="url(#pe836ef0151)" style="fill: #0173b2; stroke: #ffffff; stroke-linejoin: miter"/>
   </g>
   <g id="patch_58">
    <path d="M 1097.794601 339.84 
L 1116.789385 339.84 
L 1116.789385 339.813942 
L 1097.794601 339.813942 
z
" clip-path="url(#pe836ef0151)" style="fill: #0173b2; stroke: #ffffff; stroke-linejoin: miter"/>
   </g>
   <g id="patch_59">
    <path d="M 1116.789385 339.84 
L 1135.784169 339.84 
L 1135.784169 339.806497 
L 1116.789385 339.806497 
z
" clip-path="url(#pe836ef0151)" style="fill: #0173b2; stroke: #ffffff; stroke-linejoin: miter"/>
   </g>
   <g id="patch_60">
    <path d="M 1135.784169 339.84 
L 1154.778953 339.84 
L 1154.778953 339.82511 
L 1135.784169 339.82511 
z
" clip-path="url(#pe836ef0151)" style="fill: #0173b2; stroke: #ffffff; stroke-linejoin: miter"/>
   </g>
   <g id="patch_61">
    <path d="M 1154.778953 339.84 
L 1173.773737 339.84 
L 1173.773737 339.828832 
L 1154.778953 339.828832 
z
" clip-path="url(#pe836ef0151)" style="fill: #0173b2; stroke: #ffffff; stroke-linejoin: miter"/>
   </g>
   <g id="patch_62">
    <path d="M 1173.773737 339.84 
L 1192.768522 339.84 
L 1192.768522 339.826971 
L 1173.773737 339.826971 
z
" clip-path="url(#pe836ef0151)" style="fill: #0173b2; stroke: #ffffff; stroke-linejoin: miter"/>
   </g>
   <g id="patch_63">
    <path d="M 1192.768522 339.84 
L 1211.763306 339.84 
L 1211.763306 339.834416 
L 1192.768522 339.834416 
z
" clip-path="url(#pe836ef0151)" style="fill: #0173b2; stroke: #ffffff; stroke-linejoin: miter"/>
   </g>
   <g id="patch_64">
    <path d="M 1211.763306 339.84 
L 1230.75809 339.84 
L 1230.75809 339.834416 
L 1211.763306 339.834416 
z
" clip-path="url(#pe836ef0151)" style="fill: #0173b2; stroke: #ffffff; stroke-linejoin: miter"/>
   </g>
   <g id="patch_65">
    <path d="M 1230.75809 339.84 
L 1249.752874 339.84 
L 1249.752874 339.826971 
L 1230.75809 339.826971 
z
" clip-path="url(#pe836ef0151)" style="fill: #0173b2; stroke: #ffffff; stroke-linejoin: miter"/>
   </g>
   <g id="patch_66">
    <path d="M 1249.752874 339.84 
L 1268.747658 339.84 
L 1268.747658 339.830694 
L 1249.752874 339.830694 
z
" clip-path="url(#pe836ef0151)" style="fill: #0173b2; stroke: #ffffff; stroke-linejoin: miter"/>
   </g>
   <g id="patch_67">
    <path d="M 1268.747658 339.84 
L 1287.742443 339.84 
L 1287.742443 339.832555 
L 1268.747658 339.832555 
z
" clip-path="url(#pe836ef0151)" style="fill: #0173b2; stroke: #ffffff; stroke-linejoin: miter"/>
   </g>
   <g id="patch_68">
    <path d="M 1287.742443 339.84 
L 1306.737227 339.84 
L 1306.737227 339.834416 
L 1287.742443 339.834416 
z
" clip-path="url(#pe836ef0151)" style="fill: #0173b2; stroke: #ffffff; stroke-linejoin: miter"/>
   </g>
   <g id="patch_69">
    <path d="M 1306.737227 339.84 
L 1325.732011 339.84 
L 1325.732011 339.836277 
L 1306.737227 339.836277 
z
" clip-path="url(#pe836ef0151)" style="fill: #0173b2; stroke: #ffffff; stroke-linejoin: miter"/>
   </g>
   <g id="patch_70">
    <path d="M 1325.732011 339.84 
L 1344.726795 339.84 
L 1344.726795 339.836277 
L 1325.732011 339.836277 
z
" clip-path="url(#pe836ef0151)" style="fill: #0173b2; stroke: #ffffff; stroke-linejoin: miter"/>
   </g>
   <g id="patch_71">
    <path d="M 1344.726795 339.84 
L 1363.72158 339.84 
L 1363.72158 339.838139 
L 1344.726795 339.838139 
z
" clip-path="url(#pe836ef0151)" style="fill: #0173b2; stroke: #ffffff; stroke-linejoin: miter"/>
   </g>
   <g id="patch_72">
    <path d="M 1363.72158 339.84 
L 1382.716364 339.84 
L 1382.716364 339.834416 
L 1363.72158 339.834416 
z
" clip-path="url(#pe836ef0151)" style="fill: #0173b2; stroke: #ffffff; stroke-linejoin: miter"/>
   </g>
   <g id="patch_73">
    <path d="M 1382.716364 339.84 
L 1401.711148 339.84 
L 1401.711148 339.836277 
L 1382.716364 339.836277 
z
" clip-path="url(#pe836ef0151)" style="fill: #0173b2; stroke: #ffffff; stroke-linejoin: miter"/>
   </g>
   <g id="patch_74">
    <path d="M 1401.711148 339.84 
L 1420.705932 339.84 
L 1420.705932 339.84 
L 1401.711148 339.84 
z
" clip-path="url(#pe836ef0151)" style="fill: #0173b2; stroke: #ffffff; stroke-linejoin: miter"/>
   </g>
   <g id="patch_75">
    <path d="M 1420.705932 339.84 
L 1439.700716 339.84 
L 1439.700716 339.838139 
L 1420.705932 339.838139 
z
" clip-path="url(#pe836ef0151)" style="fill: #0173b2; stroke: #ffffff; stroke-linejoin: miter"/>
   </g>
   <g id="patch_76">
    <path d="M 1439.700716 339.84 
L 1458.695501 339.84 
L 1458.695501 339.84 
L 1439.700716 339.84 
z
" clip-path="url(#pe836ef0151)" style="fill: #0173b2; stroke: #ffffff; stroke-linejoin: miter"/>
   </g>
   <g id="patch_77">
    <path d="M 1458.695501 339.84 
L 1477.690285 339.84 
L 1477.690285 339.84 
L 1458.695501 339.84 
z
" clip-path="url(#pe836ef0151)" style="fill: #0173b2; stroke: #ffffff; stroke-linejoin: miter"/>
   </g>
   <g id="patch_78">
    <path d="M 1477.690285 339.84 
L 1496.685069 339.84 
L 1496.685069 339.836277 
L 1477.690285 339.836277 
z
" clip-path="url(#pe836ef0151)" style="fill: #0173b2; stroke: #ffffff; stroke-linejoin: miter"/>
   </g>
   <g id="patch_79">
    <path d="M 1496.685069 339.84 
L 1515.679853 339.84 
L 1515.679853 339.84 
L 1496.685069 339.84 
z
" clip-path="url(#pe836ef0151)" style="fill: #0173b2; stroke: #ffffff; stroke-linejoin: miter"/>
   </g>
   <g id="patch_80">
    <path d="M 1515.679853 339.84 
L 1534.674637 339.84 
L 1534.674637 339.84 
L 1515.679853 339.84 
z
" clip-path="url(#pe836ef0151)" style="fill: #0173b2; stroke: #ffffff; stroke-linejoin: miter"/>
   </g>
   <g id="patch_81">
    <path d="M 1534.674637 339.84 
L 1553.669422 339.84 
L 1553.669422 339.838139 
L 1534.674637 339.838139 
z
" clip-path="url(#pe836ef0151)" style="fill: #0173b2; stroke: #ffffff; stroke-linejoin: miter"/>
   </g>
   <g id="patch_82">
    <path d="M 1553.669422 339.84 
L 1572.664206 339.84 
L 1572.664206 339.84 
L 1553.669422 339.84 
z
" clip-path="url(#pe836ef0151)" style="fill: #0173b2; stroke: #ffffff; stroke-linejoin: miter"/>
   </g>
   <g id="patch_83">
    <path d="M 1572.664206 339.84 
L 1591.65899 339.84 
L 1591.65899 339.84 
L 1572.664206 339.84 
z
" clip-path="url(#pe836ef0151)" style="fill: #0173b2; stroke: #ffffff; stroke-linejoin: miter"/>
   </g>
   <g id="patch_84">
    <path d="M 1591.65899 339.84 
L 1610.653774 339.84 
L 1610.653774 339.838139 
L 1591.65899 339.838139 
z
" clip-path="url(#pe836ef0151)" style="fill: #0173b2; stroke: #ffffff; stroke-linejoin: miter"/>
   </g>
   <g id="patch_85">
    <path d="M 1610.653774 339.84 
L 1629.648558 339.84 
L 1629.648558 339.84 
L 1610.653774 339.84 
z
" clip-path="url(#pe836ef0151)" style="fill: #0173b2; stroke: #ffffff; stroke-linejoin: miter"/>
   </g>
   <g id="patch_86">
    <path d="M 1629.648558 339.84 
L 1648.643343 339.84 
L 1648.643343 339.84 
L 1629.648558 339.84 
z
" clip-path="url(#pe836ef0151)" style="fill: #0173b2; stroke: #ffffff; stroke-linejoin: miter"/>
   </g>
   <g id="patch_87">
    <path d="M 1648.643343 339.84 
L 1667.638127 339.84 
L 1667.638127 339.84 
L 1648.643343 339.84 
z
" clip-path="url(#pe836ef0151)" style="fill: #0173b2; stroke: #ffffff; stroke-linejoin: miter"/>
   </g>
   <g id="patch_88">
    <path d="M 1667.638127 339.84 
L 1686.632911 339.84 
L 1686.632911 339.84 
L 1667.638127 339.84 
z
" clip-path="url(#pe836ef0151)" style="fill: #0173b2; stroke: #ffffff; stroke-linejoin: miter"/>
   </g>
   <g id="patch_89">
    <path d="M 1686.632911 339.84 
L 1705.627695 339.84 
L 1705.627695 339.84 
L 1686.632911 339.84 
z
" clip-path="url(#pe836ef0151)" style="fill: #0173b2; stroke: #ffffff; stroke-linejoin: miter"/>
   </g>
   <g id="patch_90">
    <path d="M 1705.627695 339.84 
L 1724.622479 339.84 
L 1724.622479 339.84 
L 1705.627695 339.84 
z
" clip-path="url(#pe836ef0151)" style="fill: #0173b2; stroke: #ffffff; stroke-linejoin: miter"/>
   </g>
   <g id="patch_91">
    <path d="M 1724.622479 339.84 
L 1743.617264 339.84 
L 1743.617264 339.84 
L 1724.622479 339.84 
z
" clip-path="url(#pe836ef0151)" style="fill: #0173b2; stroke: #ffffff; stroke-linejoin: miter"/>
   </g>
   <g id="patch_92">
    <path d="M 1743.617264 339.84 
L 1762.612048 339.84 
L 1762.612048 339.84 
L 1743.617264 339.84 
z
" clip-path="url(#pe836ef0151)" style="fill: #0173b2; stroke: #ffffff; stroke-linejoin: miter"/>
   </g>
   <g id="patch_93">
    <path d="M 1762.612048 339.84 
L 1781.606832 339.84 
L 1781.606832 339.84 
L 1762.612048 339.84 
z
" clip-path="url(#pe836ef0151)" style="fill: #0173b2; stroke: #ffffff; stroke-linejoin: miter"/>
   </g>
   <g id="patch_94">
    <path d="M 1781.606832 339.84 
L 1800.601616 339.84 
L 1800.601616 339.84 
L 1781.606832 339.84 
z
" clip-path="url(#pe836ef0151)" style="fill: #0173b2; stroke: #ffffff; stroke-linejoin: miter"/>
   </g>
   <g id="patch_95">
    <path d="M 1800.601616 339.84 
L 1819.596401 339.84 
L 1819.596401 339.84 
L 1800.601616 339.84 
z
" clip-path="url(#pe836ef0151)" style="fill: #0173b2; stroke: #ffffff; stroke-linejoin: miter"/>
   </g>
   <g id="patch_96">
    <path d="M 1819.596401 339.84 
L 1838.591185 339.84 
L 1838.591185 339.84 
L 1819.596401 339.84 
z
" clip-path="url(#pe836ef0151)" style="fill: #0173b2; stroke: #ffffff; stroke-linejoin: miter"/>
   </g>
   <g id="patch_97">
    <path d="M 1838.591185 339.84 
L 1857.585969 339.84 
L 1857.585969 339.84 
L 1838.591185 339.84 
z
" clip-path="url(#pe836ef0151)" style="fill: #0173b2; stroke: #ffffff; stroke-linejoin: miter"/>
   </g>
   <g id="patch_98">
    <path d="M 1857.585969 339.84 
L 1876.580753 339.84 
L 1876.580753 339.84 
L 1857.585969 339.84 
z
" clip-path="url(#pe836ef0151)" style="fill: #0173b2; stroke: #ffffff; stroke-linejoin: miter"/>
   </g>
   <g id="patch_99">
    <path d="M 1876.580753 339.84 
L 1895.575537 339.84 
L 1895.575537 339.84 
L 1876.580753 339.84 
z
" clip-path="url(#pe836ef0151)" style="fill: #0173b2; stroke: #ffffff; stroke-linejoin: miter"/>
   </g>
   <g id="patch_100">
    <path d="M 1895.575537 339.84 
L 1914.570322 339.84 
L 1914.570322 339.84 
L 1895.575537 339.84 
z
" clip-path="url(#pe836ef0151)" style="fill: #0173b2; stroke: #ffffff; stroke-linejoin: miter"/>
   </g>
   <g id="patch_101">
    <path d="M 1914.570322 339.84 
L 1933.565106 339.84 
L 1933.565106 339.84 
L 1914.570322 339.84 
z
" clip-path="url(#pe836ef0151)" style="fill: #0173b2; stroke: #ffffff; stroke-linejoin: miter"/>
   </g>
   <g id="patch_102">
    <path d="M 1933.565106 339.84 
L 1952.55989 339.84 
L 1952.55989 339.838139 
L 1933.565106 339.838139 
z
" clip-path="url(#pe836ef0151)" style="fill: #0173b2; stroke: #ffffff; stroke-linejoin: miter"/>
   </g>
   <g id="line2d_16">
    <path d="M 53.081406 23.04 
L 58.382406 37.736202 
L 63.683406 51.750654 
L 68.984406 65.114983 
L 74.285406 77.859346 
L 79.586406 90.012505 
L 84.887406 101.601884 
L 90.188406 112.653638 
L 95.489406 123.192706 
L 100.790406 133.242871 
L 106.091406 142.826814 
L 111.392406 151.966163 
L 116.693406 160.681541 
L 122.273406 169.419202 
L 127.853406 177.730723 
L 133.433406 185.636885 
L 139.013406 193.15746 
L 144.593406 200.311252 
L 150.173406 207.116149 
L 156.032406 213.904401 
L 161.891406 220.345462 
L 167.750406 226.457092 
L 173.609406 232.256137 
L 179.747406 238.013472 
L 185.885406 243.462704 
L 192.023406 248.62032 
L 198.440406 253.717504 
L 204.857406 258.529866 
L 211.553406 263.264999 
L 218.249406 267.72438 
L 224.945406 271.924067 
L 231.920406 276.038885 
L 239.174406 280.054051 
L 246.428406 283.816533 
L 253.961406 287.473312 
L 261.773406 291.013624 
L 269.864406 294.42826 
L 277.955406 297.604096 
L 286.325406 300.655915 
L 294.974406 303.577989 
L 304.181406 306.449526 
L 313.667406 309.170439 
L 323.432406 311.73997 
L 333.755406 314.222629 
L 344.357406 316.544257 
L 355.517406 318.76114 
L 367.235406 320.862185 
L 379.511406 322.839026 
L 392.624406 324.723745 
L 406.574406 326.499952 
L 421.361406 328.155413 
L 437.264406 329.707271 
L 454.283406 331.140456 
L 472.697406 332.463711 
L 492.785406 333.678806 
L 514.826406 334.783014 
L 539.099406 335.771515 
L 566.162406 336.647607 
L 596.852406 337.415148 
L 610.802406 337.700075 
L 610.802406 337.700075 
" clip-path="url(#pe836ef0151)" style="fill: none; stroke: #de8f05; stroke-width: 1.5; stroke-linecap: round"/>
   </g>
   <g id="patch_103">
    <path d="M 53.081406 339.84 
L 53.081406 7.2 
" style="fill: none; stroke: #ffffff; stroke-width: 1.25; stroke-linejoin: miter; stroke-linecap: square"/>
   </g>
   <g id="patch_104">
    <path d="M 611.081406 339.84 
L 611.081406 7.2 
" style="fill: none; stroke: #ffffff; stroke-width: 1.25; stroke-linejoin: miter; stroke-linecap: square"/>
   </g>
   <g id="patch_105">
    <path d="M 53.081406 339.84 
L 611.081406 339.84 
" style="fill: none; stroke: #ffffff; stroke-width: 1.25; stroke-linejoin: miter; stroke-linecap: square"/>
   </g>
   <g id="patch_106">
    <path d="M 53.081406 7.2 
L 611.081406 7.2 
" style="fill: none; stroke: #ffffff; stroke-width: 1.25; stroke-linejoin: miter; stroke-linecap: square"/>
   </g>
  </g>
 </g>
 <defs>
  <clipPath id="pe836ef0151">
   <rect x="53.081406" y="7.2" width="558" height="332.64"/>
  </clipPath>
 </defs>
</svg>