<?xml version="1.0" encoding="utf-8" standalone="no"?>
<!DOCTYPE svg PUBLIC "-//W3C//DTD SVG 1.1//EN"
  "http://www.w3.org/Graphics/SVG/1.1/DTD/svg11.dtd">
<svg xmlns:xlink="http://www.w3.org/1999/xlink" width="610.834625pt" height="376.167375pt" viewBox="0 0 610.834625 376.167375" xmlns="http://www.w3.org/2000/svg" version="1.1">
 <metadata>
  <rdf:RDF xmlns:dc="http://purl.org/dc/elements/1.1/" xmlns:cc="http://creativecommons.org/ns#" xmlns:rdf="http://www.w3.org/1999/02/22-rdf-syntax-ns#">
   <cc:Work>
    <dc:type rdf:resource="http://purl.org/dc/dcmitype/StillImage"/>
    <dc:date>2023-05-08T00:37:54.889271</dc:date>
    <dc:format>image/svg+xml</dc:format>
    <dc:creator>
     <cc:Agent>
      <dc:title>Matplotlib v3.7.1, https://matplotlib.org/</dc:title>
     </cc:Agent>
    </dc:creator>
   </cc:Work>
  </rdf:RDF>
 </metadata>
 <defs>
  <style type="text/css">*{stroke-linejoin: round; stroke-linecap: butt}</style>
 </defs>
 <g id="figure_1">
  <g id="patch_1">
   <path d="M 0 376.167375 
L 610.834625 376.167375 
L 610.834625 0 
L 0 0 
z
" style="fill: #ffffff"/>
  </g>
  <g id="axes_1">
   <g id="patch_2">
    <path d="M 45.634625 339.84 
L 603.634625 339.84 
L 603.634625 7.2 
L 45.634625 7.2 
z
" style="fill: #eaeaf2"/>
   </g>
   <g id="matplotlib.axis_1">
    <g id="xtick_1">
     <g id="line2d_1">
      <path d="M 122.237931 339.84 
L 122.237931 7.2 
" clip-path="url(#pe90fcc36d1)" style="fill: none; stroke: #ffffff; stroke-width: 0.8; stroke-linecap: round"/>
     </g>
     <g id="text_1">
      <!-- −4 -->
      <g style="fill: #262626" transform="translate(117.221243 354.438875) scale(0.088 -0.088)">
       <defs>
        <path id="ArialMT-2212" d="M 3381 1997 
L 356 1997 
L 356 2522 
L 3381 2522 
L 3381 1997 
z
" transform="scale(0.015625)"/>
        <path id="ArialMT-34" d="M 2069 0 
L 2069 1097 
L 81 1097 
L 81 1613 
L 2172 4581 
L 2631 4581 
L 2631 1613 
L 3250 1613 
L 3250 1097 
L 2631 1097 
L 2631 0 
L 2069 0 
z
M 2069 1613 
L 2069 3678 
L 634 1613 
L 2069 1613 
z
" transform="scale(0.015625)"/>
       </defs>
       <use xlink:href="#ArialMT-2212"/>
       <use xlink:href="#ArialMT-34" x="58.398438"/>
      </g>
     </g>
    </g>
    <g id="xtick_2">
     <g id="line2d_2">
      <path d="M 224.71727 339.84 
L 224.71727 7.2 
" clip-path="url(#pe90fcc36d1)" style="fill: none; stroke: #ffffff; stroke-width: 0.8; stroke-linecap: round"/>
     </g>
     <g id="text_2">
      <!-- −2 -->
      <g style="fill: #262626" transform="translate(219.700582 354.438875) scale(0.088 -0.088)">
       <defs>
        <path id="ArialMT-32" d="M 3222 541 
L 3222 0 
L 194 0 
Q 188 203 259 391 
Q 375 700 629 1000 
Q 884 1300 1366 1694 
Q 2113 2306 2375 2664 
Q 2638 3022 2638 3341 
Q 2638 3675 2398 3904 
Q 2159 4134 1775 4134 
Q 1369 4134 1125 3890 
Q 881 3647 878 3216 
L 300 3275 
Q 359 3922 746 4261 
Q 1134 4600 1788 4600 
Q 2447 4600 2831 4234 
Q 3216 3869 3216 3328 
Q 3216 3053 3103 2787 
Q 2991 2522 2730 2228 
Q 2469 1934 1863 1422 
Q 1356 997 1212 845 
Q 1069 694 975 541 
L 3222 541 
z
" transform="scale(0.015625)"/>
       </defs>
       <use xlink:href="#ArialMT-2212"/>
       <use xlink:href="#ArialMT-32" x="58.398438"/>
      </g>
     </g>
    </g>
    <g id="xtick_3">
     <g id="line2d_3">
      <path d="M 327.196608 339.84 
L 327.196608 7.2 
" clip-path="url(#pe90fcc36d1)" style="fill: none; stroke: #ffffff; stroke-width: 0.8; stroke-linecap: round"/>
     </g>
     <g id="text_3">
      <!-- 0 -->
      <g style="fill: #262626" transform="translate(324.749796 354.438875) scale(0.088 -0.088)">
       <defs>
        <path id="ArialMT-30" d="M 266 2259 
Q 266 3072 433 3567 
Q 600 4063 929 4331 
Q 1259 4600 1759 4600 
Q 2128 4600 2406 4451 
Q 2684 4303 2865 4023 
Q 3047 3744 3150 3342 
Q 3253 2941 3253 2259 
Q 3253 1453 3087 958 
Q 2922 463 2592 192 
Q 2263 -78 1759 -78 
Q 1097 -78 719 397 
Q 266 969 266 2259 
z
M 844 2259 
Q 844 1131 1108 757 
Q 1372 384 1759 384 
Q 2147 384 2411 759 
Q 2675 1134 2675 2259 
Q 2675 3391 2411 3762 
Q 2147 4134 1753 4134 
Q 1366 4134 1134 3806 
Q 844 3388 844 2259 
z
" transform="scale(0.015625)"/>
       </defs>
       <use xlink:href="#ArialMT-30"/>
      </g>
     </g>
    </g>
    <g id="xtick_4">
     <g id="line2d_4">
      <path d="M 429.675947 339.84 
L 429.675947 7.2 
" clip-path="url(#pe90fcc36d1)" style="fill: none; stroke: #ffffff; stroke-width: 0.8; stroke-linecap: round"/>
     </g>
     <g id="text_4">
      <!-- 2 -->
      <g style="fill: #262626" transform="translate(427.229135 354.438875) scale(0.088 -0.088)">
       <use xlink:href="#ArialMT-32"/>
      </g>
     </g>
    </g>
    <g id="xtick_5">
     <g id="line2d_5">
      <path d="M 532.155286 339.84 
L 532.155286 7.2 
" clip-path="url(#pe90fcc36d1)" style="fill: none; stroke: #ffffff; stroke-width: 0.8; stroke-linecap: round"/>
     </g>
     <g id="text_5">
      <!-- 4 -->
      <g style="fill: #262626" transform="translate(529.708474 354.438875) scale(0.088 -0.088)">
       <use xlink:href="#ArialMT-34"/>
      </g>
     </g>
    </g>
    <g id="text_6">
     <!-- x -->
     <g style="fill: #262626" transform="translate(322.234625 367.059375) scale(0.096 -0.096)">
      <defs>
       <path id="ArialMT-78" d="M 47 0 
L 1259 1725 
L 138 3319 
L 841 3319 
L 1350 2541 
Q 1494 2319 1581 2169 
Q 1719 2375 1834 2534 
L 2394 3319 
L 3066 3319 
L 1919 1756 
L 3153 0 
L 2463 0 
L 1781 1031 
L 1600 1309 
L 728 0 
L 47 0 
z
" transform="scale(0.015625)"/>
      </defs>
      <use xlink:href="#ArialMT-78"/>
     </g>
    </g>
   </g>
   <g id="matplotlib.axis_2">
    <g id="ytick_1">
     <g id="line2d_6">
      <path d="M 45.634625 324.721127 
L 603.634625 324.721127 
" clip-path="url(#pe90fcc36d1)" style="fill: none; stroke: #ffffff; stroke-width: 0.8; stroke-linecap: round"/>
     </g>
     <g id="text_7">
      <!-- 0.00 -->
      <g style="fill: #262626" transform="translate(20.209 327.870564) scale(0.088 -0.088)">
       <defs>
        <path id="ArialMT-2e" d="M 581 0 
L 581 641 
L 1222 641 
L 1222 0 
L 581 0 
z
" transform="scale(0.015625)"/>
       </defs>
       <use xlink:href="#ArialMT-30"/>
       <use xlink:href="#ArialMT-2e" x="55.615234"/>
       <use xlink:href="#ArialMT-30" x="83.398438"/>
       <use xlink:href="#ArialMT-30" x="139.013672"/>
      </g>
     </g>
    </g>
    <g id="ytick_2">
     <g id="line2d_7">
      <path d="M 45.634625 286.820766 
L 603.634625 286.820766 
" clip-path="url(#pe90fcc36d1)" style="fill: none; stroke: #ffffff; stroke-width: 0.8; stroke-linecap: round"/>
     </g>
     <g id="text_8">
      <!-- 0.05 -->
      <g style="fill: #262626" transform="translate(20.209 289.970204) scale(0.088 -0.088)">
       <defs>
        <path id="ArialMT-35" d="M 266 1200 
L 856 1250 
Q 922 819 1161 601 
Q 1400 384 1738 384 
Q 2144 384 2425 690 
Q 2706 997 2706 1503 
Q 2706 1984 2436 2262 
Q 2166 2541 1728 2541 
Q 1456 2541 1237 2417 
Q 1019 2294 894 2097 
L 366 2166 
L 809 4519 
L 3088 4519 
L 3088 3981 
L 1259 3981 
L 1013 2750 
Q 1425 3038 1878 3038 
Q 2478 3038 2890 2622 
Q 3303 2206 3303 1553 
Q 3303 931 2941 478 
Q 2500 -78 1738 -78 
Q 1113 -78 717 272 
Q 322 622 266 1200 
z
" transform="scale(0.015625)"/>
       </defs>
       <use xlink:href="#ArialMT-30"/>
       <use xlink:href="#ArialMT-2e" x="55.615234"/>
       <use xlink:href="#ArialMT-30" x="83.398438"/>
       <use xlink:href="#ArialMT-35" x="139.013672"/>
      </g>
     </g>
    </g>
    <g id="ytick_3">
     <g id="line2d_8">
      <path d="M 45.634625 248.920405 
L 603.634625 248.920405 
" clip-path="url(#pe90fcc36d1)" style="fill: none; stroke: #ffffff; stroke-width: 0.8; stroke-linecap: round"/>
     </g>
     <g id="text_9">
      <!-- 0.10 -->
      <g style="fill: #262626" transform="translate(20.209 252.069843) scale(0.088 -0.088)">
       <defs>
        <path id="ArialMT-31" d="M 2384 0 
L 1822 0 
L 1822 3584 
Q 1619 3391 1289 3197 
Q 959 3003 697 2906 
L 697 3450 
Q 1169 3672 1522 3987 
Q 1875 4303 2022 4600 
L 2384 4600 
L 2384 0 
z
" transform="scale(0.015625)"/>
       </defs>
       <use xlink:href="#ArialMT-30"/>
       <use xlink:href="#ArialMT-2e" x="55.615234"/>
       <use xlink:href="#ArialMT-31" x="83.398438"/>
       <use xlink:href="#ArialMT-30" x="139.013672"/>
      </g>
     </g>
    </g>
    <g id="ytick_4">
     <g id="line2d_9">
      <path d="M 45.634625 211.020045 
L 603.634625 211.020045 
" clip-path="url(#pe90fcc36d1)" style="fill: none; stroke: #ffffff; stroke-width: 0.8; stroke-linecap: round"/>
     </g>
     <g id="text_10">
      <!-- 0.15 -->
      <g style="fill: #262626" transform="translate(20.209 214.169482) scale(0.088 -0.088)">
       <use xlink:href="#ArialMT-30"/>
       <use xlink:href="#ArialMT-2e" x="55.615234"/>
       <use xlink:href="#ArialMT-31" x="83.398438"/>
       <use xlink:href="#ArialMT-35" x="139.013672"/>
      </g>
     </g>
    </g>
    <g id="ytick_5">
     <g id="line2d_10">
      <path d="M 45.634625 173.119684 
L 603.634625 173.119684 
" clip-path="url(#pe90fcc36d1)" style="fill: none; stroke: #ffffff; stroke-width: 0.8; stroke-linecap: round"/>
     </g>
     <g id="text_11">
      <!-- 0.20 -->
      <g style="fill: #262626" transform="translate(20.209 176.269121) scale(0.088 -0.088)">
       <use xlink:href="#ArialMT-30"/>
       <use xlink:href="#ArialMT-2e" x="55.615234"/>
       <use xlink:href="#ArialMT-32" x="83.398438"/>
       <use xlink:href="#ArialMT-30" x="139.013672"/>
      </g>
     </g>
    </g>
    <g id="ytick_6">
     <g id="line2d_11">
      <path d="M 45.634625 135.219323 
L 603.634625 135.219323 
" clip-path="url(#pe90fcc36d1)" style="fill: none; stroke: #ffffff; stroke-width: 0.8; stroke-linecap: round"/>
     </g>
     <g id="text_12">
      <!-- 0.25 -->
      <g style="fill: #262626" transform="translate(20.209 138.368761) scale(0.088 -0.088)">
       <use xlink:href="#ArialMT-30"/>
       <use xlink:href="#ArialMT-2e" x="55.615234"/>
       <use xlink:href="#ArialMT-32" x="83.398438"/>
       <use xlink:href="#ArialMT-35" x="139.013672"/>
      </g>
     </g>
    </g>
    <g id="ytick_7">
     <g id="line2d_12">
      <path d="M 45.634625 97.318962 
L 603.634625 97.318962 
" clip-path="url(#pe90fcc36d1)" style="fill: none; stroke: #ffffff; stroke-width: 0.8; stroke-linecap: round"/>
     </g>
     <g id="text_13">
      <!-- 0.30 -->
      <g style="fill: #262626" transform="translate(20.209 100.4684) scale(0.088 -0.088)">
       <defs>
        <path id="ArialMT-33" d="M 269 1209 
L 831 1284 
Q 928 806 1161 595 
Q 1394 384 1728 384 
Q 2125 384 2398 659 
Q 2672 934 2672 1341 
Q 2672 1728 2419 1979 
Q 2166 2231 1775 2231 
Q 1616 2231 1378 2169 
L 1441 2663 
Q 1497 2656 1531 2656 
Q 1891 2656 2178 2843 
Q 2466 3031 2466 3422 
Q 2466 3731 2256 3934 
Q 2047 4138 1716 4138 
Q 1388 4138 1169 3931 
Q 950 3725 888 3313 
L 325 3413 
Q 428 3978 793 4289 
Q 1159 4600 1703 4600 
Q 2078 4600 2393 4439 
Q 2709 4278 2876 4000 
Q 3044 3722 3044 3409 
Q 3044 3113 2884 2869 
Q 2725 2625 2413 2481 
Q 2819 2388 3044 2092 
Q 3269 1797 3269 1353 
Q 3269 753 2831 336 
Q 2394 -81 1725 -81 
Q 1122 -81 723 278 
Q 325 638 269 1209 
z
" transform="scale(0.015625)"/>
       </defs>
       <use xlink:href="#ArialMT-30"/>
       <use xlink:href="#ArialMT-2e" x="55.615234"/>
       <use xlink:href="#ArialMT-33" x="83.398438"/>
       <use xlink:href="#ArialMT-30" x="139.013672"/>
      </g>
     </g>
    </g>
    <g id="ytick_8">
     <g id="line2d_13">
      <path d="M 45.634625 59.418602 
L 603.634625 59.418602 
" clip-path="url(#pe90fcc36d1)" style="fill: none; stroke: #ffffff; stroke-width: 0.8; stroke-linecap: round"/>
     </g>
     <g id="text_14">
      <!-- 0.35 -->
      <g style="fill: #262626" transform="translate(20.209 62.568039) scale(0.088 -0.088)">
       <use xlink:href="#ArialMT-30"/>
       <use xlink:href="#ArialMT-2e" x="55.615234"/>
       <use xlink:href="#ArialMT-33" x="83.398438"/>
       <use xlink:href="#ArialMT-35" x="139.013672"/>
      </g>
     </g>
    </g>
    <g id="ytick_9">
     <g id="line2d_14">
      <path d="M 45.634625 21.518241 
L 603.634625 21.518241 
" clip-path="url(#pe90fcc36d1)" style="fill: none; stroke: #ffffff; stroke-width: 0.8; stroke-linecap: round"/>
     </g>
     <g id="text_15">
      <!-- 0.40 -->
      <g style="fill: #262626" transform="translate(20.209 24.667678) scale(0.088 -0.088)">
       <use xlink:href="#ArialMT-30"/>
       <use xlink:href="#ArialMT-2e" x="55.615234"/>
       <use xlink:href="#ArialMT-34" x="83.398438"/>
       <use xlink:href="#ArialMT-30" x="139.013672"/>
      </g>
     </g>
    </g>
    <g id="text_16">
     <!-- f(x) -->
     <g style="fill: #262626" transform="translate(14.1885 180.45) rotate(-90) scale(0.096 -0.096)">
      <defs>
       <path id="ArialMT-66" d="M 556 0 
L 556 2881 
L 59 2881 
L 59 3319 
L 556 3319 
L 556 3672 
Q 556 4006 616 4169 
Q 697 4388 901 4523 
Q 1106 4659 1475 4659 
Q 1713 4659 2000 4603 
L 1916 4113 
Q 1741 4144 1584 4144 
Q 1328 4144 1222 4034 
Q 1116 3925 1116 3625 
L 1116 3319 
L 1763 3319 
L 1763 2881 
L 1116 2881 
L 1116 0 
L 556 0 
z
" transform="scale(0.015625)"/>
       <path id="ArialMT-28" d="M 1497 -1347 
Q 1031 -759 709 28 
Q 388 816 388 1659 
Q 388 2403 628 3084 
Q 909 3875 1497 4659 
L 1900 4659 
Q 1522 4009 1400 3731 
Q 1209 3300 1100 2831 
Q 966 2247 966 1656 
Q 966 153 1900 -1347 
L 1497 -1347 
z
" transform="scale(0.015625)"/>
       <path id="ArialMT-29" d="M 791 -1347 
L 388 -1347 
Q 1322 153 1322 1656 
Q 1322 2244 1188 2822 
Q 1081 3291 891 3722 
Q 769 4003 388 4659 
L 791 4659 
Q 1378 3875 1659 3084 
Q 1900 2403 1900 1659 
Q 1900 816 1576 28 
Q 1253 -759 791 -1347 
z
" transform="scale(0.015625)"/>
      </defs>
      <use xlink:href="#ArialMT-66"/>
      <use xlink:href="#ArialMT-28" x="27.783203"/>
      <use xlink:href="#ArialMT-78" x="61.083984"/>
      <use xlink:href="#ArialMT-29" x="111.083984"/>
     </g>
    </g>
   </g>
   <g id="line2d_15">
    <path d="M 70.998261 315.441081 
L 76.122228 315.073738 
L 81.246195 314.684472 
L 86.370162 314.27153 
L 91.494129 313.832987 
L 96.618096 313.366718 
L 101.742063 312.870381 
L 106.86603 312.341384 
L 111.989997 311.776857 
L 117.113964 311.173615 
L 122.237931 310.528116 
L 127.361898 309.836414 
L 132.485865 309.094107 
L 137.609832 308.296267 
L 142.733799 307.437374 
L 147.857765 306.511226 
L 152.981732 305.510841 
L 158.105699 304.428344 
L 163.229666 303.254829 
L 168.353633 301.980204 
L 173.4776 300.593008 
L 178.601567 299.080193 
L 183.725534 297.426875 
L 188.849501 295.616038 
L 193.973468 293.62819 
L 199.097435 291.440963 
L 204.221402 289.028643 
L 209.345369 286.361637 
L 214.469336 283.405855 
L 219.593303 280.122016 
L 224.71727 276.464889 
L 229.841237 272.382474 
L 234.965204 267.815186 
L 240.08917 262.695114 
L 245.213137 256.945512 
L 250.337104 250.480761 
L 255.461071 243.207211 
L 260.585038 235.025517 
L 265.709005 225.835393 
L 270.832972 215.544118 
L 275.956939 204.080532 
L 281.080906 191.416602 
L 286.204873 177.59845 
L 291.32884 162.787442 
L 296.452807 147.308487 
L 301.576774 131.696175 
L 306.700741 116.720101 
L 311.824708 103.362237 
L 316.948675 92.719982 
L 322.072642 85.828859 
L 327.196608 83.439937 
L 332.320575 85.828859 
L 337.444542 92.719982 
L 342.568509 103.362237 
L 347.692476 116.720101 
L 352.816443 131.696175 
L 357.94041 147.308487 
L 363.064377 162.787442 
L 368.188344 177.59845 
L 373.312311 191.416602 
L 378.436278 204.080532 
L 383.560245 215.544118 
L 388.684212 225.835393 
L 393.808179 235.025517 
L 398.932146 243.207211 
L 404.056113 250.480761 
L 409.18008 256.945512 
L 414.304046 262.695114 
L 419.428013 267.815186 
L 424.55198 272.382474 
L 429.675947 276.464889 
L 434.799914 280.122016 
L 439.923881 283.405855 
L 445.047848 286.361637 
L 450.171815 289.028643 
L 455.295782 291.440963 
L 460.419749 293.62819 
L 465.543716 295.616038 
L 470.667683 297.426875 
L 475.79165 299.080193 
L 480.915617 300.593008 
L 486.039584 301.980204 
L 491.163551 303.254829 
L 496.287518 304.428344 
L 501.411485 305.510841 
L 506.535451 306.511226 
L 511.659418 307.437374 
L 516.783385 308.296267 
L 521.907352 309.094107 
L 527.031319 309.836414 
L 532.155286 310.528116 
L 537.279253 311.173615 
L 542.40322 311.776857 
L 547.527187 312.341384 
L 552.651154 312.870381 
L 557.775121 313.366718 
L 562.899088 313.832987 
L 568.023055 314.27153 
L 573.147022 314.684472 
L 578.270989 315.073738 
" clip-path="url(#pe90fcc36d1)" style="fill: none; stroke: #0173b2; stroke-width: 1.2; stroke-linecap: round"/>
   </g>
   <g id="line2d_16">
    <path d="M 70.998261 319.318217 
L 76.122228 319.00683 
L 81.246195 318.671594 
L 86.370162 318.31024 
L 91.494129 317.920241 
L 96.618096 317.498781 
L 101.742063 317.042714 
L 106.86603 316.548524 
L 111.989997 316.012271 
L 117.113964 315.429535 
L 122.237931 314.795348 
L 127.361898 314.104122 
L 132.485865 313.349552 
L 137.609832 312.524523 
L 142.733799 311.620987 
L 147.857765 310.629828 
L 152.981732 309.540706 
L 158.105699 308.341879 
L 163.229666 307.019988 
L 168.353633 305.559825 
L 173.4776 303.944057 
L 178.601567 302.15291 
L 183.725534 300.163823 
L 188.849501 297.951041 
L 193.973468 295.485179 
L 199.097435 292.732734 
L 204.221402 289.655569 
L 209.345369 286.210371 
L 214.469336 282.348129 
L 219.593303 278.013662 
L 224.71727 273.145269 
L 229.841237 267.674621 
L 234.965204 261.527045 
L 240.08917 254.622413 
L 245.213137 246.87696 
L 250.337104 238.206419 
L 255.461071 228.530986 
L 260.585038 217.7827 
L 265.709005 205.915865 
L 270.832972 192.921011 
L 275.956939 178.84257 
L 281.080906 163.799706 
L 286.204873 148.008554 
L 291.32884 131.80243 
L 296.452807 115.644572 
L 301.576774 100.126397 
L 306.700741 85.944005 
L 311.824708 73.848134 
L 316.948675 64.568576 
L 322.072642 58.722587 
L 327.196608 56.725106 
L 332.320575 58.722587 
L 337.444542 64.568576 
L 342.568509 73.848134 
L 347.692476 85.944005 
L 352.816443 100.126397 
L 357.94041 115.644572 
L 363.064377 131.80243 
L 368.188344 148.008554 
L 373.312311 163.799706 
L 378.436278 178.84257 
L 383.560245 192.921011 
L 388.684212 205.915865 
L 393.808179 217.7827 
L 398.932146 228.530986 
L 404.056113 238.206419 
L 409.18008 246.87696 
L 414.304046 254.622413 
L 419.428013 261.527045 
L 424.55198 267.674621 
L 429.675947 273.145269 
L 434.799914 278.013662 
L 439.923881 282.348129 
L 445.047848 286.210371 
L 450.171815 289.655569 
L 455.295782 292.732734 
L 460.419749 295.485179 
L 465.543716 297.951041 
L 470.667683 300.163823 
L 475.79165 302.15291 
L 480.915617 303.944057 
L 486.039584 305.559825 
L 491.163551 307.019988 
L 496.287518 308.341879 
L 501.411485 309.540706 
L 506.535451 310.629828 
L 511.659418 311.620987 
L 516.783385 312.524523 
L 521.907352 313.349552 
L 527.031319 314.104122 
L 532.155286 314.795348 
L 537.279253 315.429535 
L 542.40322 316.012271 
L 547.527187 316.548524 
L 552.651154 317.042714 
L 557.775121 317.498781 
L 562.899088 317.920241 
L 568.023055 318.31024 
L 573.147022 318.671594 
L 578.270989 319.00683 
" clip-path="url(#pe90fcc36d1)" style="fill: none; stroke: #de8f05; stroke-width: 1.2; stroke-linecap: round"/>
   </g>
   <g id="line2d_17">
    <path d="M 70.998261 323.388976 
L 76.122228 323.247885 
L 81.246195 323.089642 
L 86.370162 322.911912 
L 91.494129 322.712016 
L 96.618096 322.48687 
L 101.742063 322.232927 
L 106.86603 321.946094 
L 111.989997 321.621653 
L 117.113964 321.254156 
L 122.237931 320.837305 
L 127.361898 320.363819 
L 132.485865 319.825273 
L 137.609832 319.211917 
L 142.733799 318.512462 
L 147.857765 317.71384 
L 152.981732 316.800926 
L 158.105699 315.756226 
L 163.229666 314.559522 
L 168.353633 313.187482 
L 173.4776 311.613227 
L 178.601567 309.805865 
L 183.725534 307.730002 
L 188.849501 305.345241 
L 193.973468 302.605704 
L 199.097435 299.459597 
L 204.221402 295.848892 
L 209.345369 291.709184 
L 214.469336 286.969827 
L 219.593303 281.554478 
L 224.71727 275.382202 
L 229.841237 268.369332 
L 234.965204 260.432289 
L 240.08917 251.491605 
L 245.213137 241.477341 
L 250.337104 230.336081 
L 255.461071 218.039534 
L 260.585038 204.594618 
L 265.709005 190.054616 
L 270.832972 174.530646 
L 275.956939 158.202256 
L 281.080906 141.325569 
L 286.204873 124.237044 
L 291.32884 107.350841 
L 296.452807 91.148018 
L 301.576774 76.156514 
L 306.700741 62.922054 
L 311.824708 51.97169 
L 316.948675 43.77335 
L 322.072642 38.696102 
L 327.196608 36.976517 
L 332.320575 38.696102 
L 337.444542 43.77335 
L 342.568509 51.97169 
L 347.692476 62.922054 
L 352.816443 76.156514 
L 357.94041 91.148018 
L 363.064377 107.350841 
L 368.188344 124.237044 
L 373.312311 141.325569 
L 378.436278 158.202256 
L 383.560245 174.530646 
L 388.684212 190.054616 
L 393.808179 204.594618 
L 398.932146 218.039534 
L 404.056113 230.336081 
L 409.18008 241.477341 
L 414.304046 251.491605 
L 419.428013 260.432289 
L 424.55198 268.369332 
L 429.675947 275.382202 
L 434.799914 281.554478 
L 439.923881 286.969827 
L 445.047848 291.709184 
L 450.171815 295.848892 
L 455.295782 299.459597 
L 460.419749 302.605704 
L 465.543716 305.345241 
L 470.667683 307.730002 
L 475.79165 309.805865 
L 480.915617 311.613227 
L 486.039584 313.187482 
L 491.163551 314.559522 
L 496.287518 315.756226 
L 501.411485 316.800926 
L 506.535451 317.71384 
L 511.659418 318.512462 
L 516.783385 319.211917 
L 521.907352 319.825273 
L 527.031319 320.363819 
L 532.155286 320.837305 
L 537.279253 321.254156 
L 542.40322 321.621653 
L 547.527187 321.946094 
L 552.651154 322.232927 
L 557.775121 322.48687 
L 562.899088 322.712016 
L 568.023055 322.911912 
L 573.147022 323.089642 
L 578.270989 323.247885 
" clip-path="url(#pe90fcc36d1)" style="fill: none; stroke: #029e73; stroke-width: 1.2; stroke-linecap: round"/>
   </g>
   <g id="line2d_18">
    <path d="M 70.998261 324.696197 
L 76.122228 324.68809 
L 81.246195 324.677376 
L 86.370162 324.663231 
L 91.494129 324.644581 
L 96.618096 324.620031 
L 101.742063 324.587766 
L 106.86603 324.545442 
L 111.989997 324.490036 
L 117.113964 324.417671 
L 122.237931 324.323388 
L 127.361898 324.20088 
L 132.485865 324.042163 
L 137.609832 323.837187 
L 142.733799 323.573375 
L 147.857765 323.235087 
L 152.981732 322.803017 
L 158.105699 322.253502 
L 163.229666 321.557787 
L 168.353633 320.681239 
L 173.4776 319.582548 
L 178.601567 318.212976 
L 183.725534 316.515686 
L 188.849501 314.425271 
L 193.973468 311.867547 
L 199.097435 308.759754 
L 204.221402 305.011292 
L 209.345369 300.52512 
L 214.469336 295.199986 
L 219.593303 288.933576 
L 224.71727 281.626692 
L 229.841237 273.188479 
L 234.965204 263.542649 
L 240.08917 252.634557 
L 245.213137 240.43885 
L 250.337104 226.967302 
L 255.461071 212.276306 
L 260.585038 196.473395 
L 265.709005 179.722105 
L 270.832972 162.244465 
L 275.956939 144.320456 
L 281.080906 126.283933 
L 286.204873 108.514696 
L 291.32884 91.426721 
L 296.452807 75.452851 
L 301.576774 61.026654 
L 306.700741 48.562461 
L 311.824708 38.434875 
L 316.948675 30.959197 
L 322.072642 26.374266 
L 327.196608 24.829076 
L 332.320575 26.374266 
L 337.444542 30.959197 
L 342.568509 38.434875 
L 347.692476 48.562461 
L 352.816443 61.026654 
L 357.94041 75.452851 
L 363.064377 91.426721 
L 368.188344 108.514696 
L 373.312311 126.283933 
L 378.436278 144.320456 
L 383.560245 162.244465 
L 388.684212 179.722105 
L 393.808179 196.473395 
L 398.932146 212.276306 
L 404.056113 226.967302 
L 409.18008 240.43885 
L 414.304046 252.634557 
L 419.428013 263.542649 
L 424.55198 273.188479 
L 429.675947 281.626692 
L 434.799914 288.933576 
L 439.923881 295.199986 
L 445.047848 300.52512 
L 450.171815 305.011292 
L 455.295782 308.759754 
L 460.419749 311.867547 
L 465.543716 314.425271 
L 470.667683 316.515686 
L 475.79165 318.212976 
L 480.915617 319.582548 
L 486.039584 320.681239 
L 491.163551 321.557787 
L 496.287518 322.253502 
L 501.411485 322.803017 
L 506.535451 323.235087 
L 511.659418 323.573375 
L 516.783385 323.837187 
L 521.907352 324.042163 
L 527.031319 324.20088 
L 532.155286 324.323388 
L 537.279253 324.417671 
L 542.40322 324.490036 
L 547.527187 324.545442 
L 552.651154 324.587766 
L 557.775121 324.620031 
L 562.899088 324.644581 
L 568.023055 324.663231 
L 573.147022 324.677376 
L 578.270989 324.68809 
" clip-path="url(#pe90fcc36d1)" style="fill: none; stroke: #d55e00; stroke-width: 1.2; stroke-linecap: round"/>
   </g>
   <g id="line2d_19">
    <path d="M 70.998261 324.72 
L 76.122228 324.719278 
L 81.246195 324.718124 
L 86.370162 324.716299 
L 91.494129 324.71344 
L 96.618096 324.709011 
L 101.742063 324.70222 
L 106.86603 324.691917 
L 111.989997 324.676448 
L 117.113964 324.653466 
L 122.237931 324.619683 
L 127.361898 324.570545 
L 132.485865 324.499829 
L 137.609832 324.39914 
L 142.733799 324.257301 
L 147.857765 324.059627 
L 152.981732 323.787096 
L 158.105699 323.415407 
L 163.229666 322.913971 
L 168.353633 322.244855 
L 173.4776 321.361754 
L 178.601567 320.209064 
L 183.725534 318.721158 
L 188.849501 316.821983 
L 193.973468 314.425138 
L 199.097435 311.434549 
L 204.221402 307.745911 
L 209.345369 303.249028 
L 214.469336 297.83113 
L 219.593303 291.381244 
L 224.71727 283.795585 
L 229.841237 274.983866 
L 234.965204 264.876337 
L 240.08917 253.431248 
L 245.213137 240.642334 
L 250.337104 226.545855 
L 255.461071 211.226628 
L 260.585038 194.822498 
L 265.709005 177.526696 
L 270.832972 159.587605 
L 275.956939 141.305572 
L 281.080906 123.026588 
L 286.204873 105.13284 
L 291.32884 88.030393 
L 296.452807 72.134474 
L 301.576774 57.853069 
L 306.700741 45.569703 
L 311.824708 35.626411 
L 316.948675 28.307944 
L 322.072642 23.828232 
L 327.196608 22.32 
L 332.320575 23.828232 
L 337.444542 28.307944 
L 342.568509 35.626411 
L 347.692476 45.569703 
L 352.816443 57.853069 
L 357.94041 72.134474 
L 363.064377 88.030393 
L 368.188344 105.13284 
L 373.312311 123.026588 
L 378.436278 141.305572 
L 383.560245 159.587605 
L 388.684212 177.526696 
L 393.808179 194.822498 
L 398.932146 211.226628 
L 404.056113 226.545855 
L 409.18008 240.642334 
L 414.304046 253.431248 
L 419.428013 264.876337 
L 424.55198 274.983866 
L 429.675947 283.795585 
L 434.799914 291.381244 
L 439.923881 297.83113 
L 445.047848 303.249028 
L 450.171815 307.745911 
L 455.295782 311.434549 
L 460.419749 314.425138 
L 465.543716 316.821983 
L 470.667683 318.721158 
L 475.79165 320.209064 
L 480.915617 321.361754 
L 486.039584 322.244855 
L 491.163551 322.913971 
L 496.287518 323.415407 
L 501.411485 323.787096 
L 506.535451 324.059627 
L 511.659418 324.257301 
L 516.783385 324.39914 
L 521.907352 324.499829 
L 527.031319 324.570545 
L 532.155286 324.619683 
L 537.279253 324.653466 
L 542.40322 324.676448 
L 547.527187 324.691917 
L 552.651154 324.70222 
L 557.775121 324.709011 
L 562.899088 324.71344 
L 568.023055 324.716299 
L 573.147022 324.718124 
L 578.270989 324.719278 
" clip-path="url(#pe90fcc36d1)" style="fill: none; stroke: #cc78bc; stroke-width: 1.2; stroke-linecap: round"/>
   </g>
   <g id="patch_3">
    <path d="M 45.634625 339.84 
L 45.634625 7.2 
" style="fill: none; stroke: #ffffff; stroke-linejoin: miter; stroke-linecap: square"/>
   </g>
   <g id="patch_4">
    <path d="M 603.634625 339.84 
L 603.634625 7.2 
" style="fill: none; stroke: #ffffff; stroke-linejoin: miter; stroke-linecap: square"/>
   </g>
   <g id="patch_5">
    <path d="M 45.634625 339.84 
L 603.634625 339.84 
" style="fill: none; stroke: #ffffff; stroke-linejoin: miter; stroke-linecap: square"/>
   </g>
   <g id="patch_6">
    <path d="M 45.634625 7.2 
L 603.634625 7.2 
" style="fill: none; stroke: #ffffff; stroke-linejoin: miter; stroke-linecap: square"/>
   </g>
   <g id="legend_1">
    <g id="patch_7">
     <path d="M 511.861625 76.68975 
L 597.474625 76.68975 
Q 599.234625 76.68975 599.234625 74.92975 
L 599.234625 13.36 
Q 599.234625 11.6 597.474625 11.6 
L 511.861625 11.6 
Q 510.101625 11.6 510.101625 13.36 
L 510.101625 74.92975 
Q 510.101625 76.68975 511.861625 76.68975 
z
" style="fill: #eaeaf2; opacity: 0.8; stroke: #cccccc; stroke-width: 0.8; stroke-linejoin: miter"/>
    </g>
    <g id="line2d_20">
     <path d="M 513.621625 18.338875 
L 522.421625 18.338875 
L 531.221625 18.338875 
" style="fill: none; stroke: #0173b2; stroke-width: 1.2; stroke-linecap: round"/>
    </g>
    <g id="text_17">
     <!-- $\nu$ = 1 -->
     <g style="fill: #262626" transform="translate(538.261625 21.418875) scale(0.088 -0.088)">
      <defs>
       <path id="Cmmi10-ba" d="M 403 0 
Q 325 0 325 84 
L 872 2259 
Q 897 2369 903 2431 
Q 903 2534 488 2534 
Q 422 2534 422 2619 
Q 425 2634 436 2675 
Q 447 2716 464 2737 
Q 481 2759 513 2759 
L 1375 2828 
Q 1453 2828 1453 2747 
L 825 238 
Q 1331 406 1757 765 
Q 2184 1125 2479 1612 
Q 2775 2100 2906 2625 
Q 2931 2716 3006 2772 
Q 3081 2828 3175 2828 
Q 3259 2828 3312 2778 
Q 3366 2728 3366 2644 
Q 3366 2541 3281 2330 
Q 3197 2119 3116 1953 
Q 2863 1450 2444 1031 
Q 2181 769 1879 566 
Q 1578 363 1250 220 
Q 922 78 556 0 
L 403 0 
z
" transform="scale(0.015625)"/>
       <path id="ArialMT-20" transform="scale(0.015625)"/>
       <path id="ArialMT-3d" d="M 3381 2694 
L 356 2694 
L 356 3219 
L 3381 3219 
L 3381 2694 
z
M 3381 1303 
L 356 1303 
L 356 1828 
L 3381 1828 
L 3381 1303 
z
" transform="scale(0.015625)"/>
      </defs>
      <use xlink:href="#Cmmi10-ba" transform="translate(0 0.125)"/>
      <use xlink:href="#ArialMT-20" transform="translate(49.414062 0.125)"/>
      <use xlink:href="#ArialMT-3d" transform="translate(77.197266 0.125)"/>
      <use xlink:href="#ArialMT-20" transform="translate(135.595703 0.125)"/>
      <use xlink:href="#ArialMT-31" transform="translate(163.378906 0.125)"/>
     </g>
    </g>
    <g id="line2d_21">
     <path d="M 513.621625 30.78675 
L 522.421625 30.78675 
L 531.221625 30.78675 
" style="fill: none; stroke: #de8f05; stroke-width: 1.2; stroke-linecap: round"/>
    </g>
    <g id="text_18">
     <!-- $\nu$ = 2 -->
     <g style="fill: #262626" transform="translate(538.261625 33.86675) scale(0.088 -0.088)">
      <use xlink:href="#Cmmi10-ba" transform="translate(0 0.125)"/>
      <use xlink:href="#ArialMT-20" transform="translate(49.414062 0.125)"/>
      <use xlink:href="#ArialMT-3d" transform="translate(77.197266 0.125)"/>
      <use xlink:href="#ArialMT-20" transform="translate(135.595703 0.125)"/>
      <use xlink:href="#ArialMT-32" transform="translate(163.378906 0.125)"/>
     </g>
    </g>
    <g id="line2d_22">
     <path d="M 513.621625 43.234625 
L 522.421625 43.234625 
L 531.221625 43.234625 
" style="fill: none; stroke: #029e73; stroke-width: 1.2; stroke-linecap: round"/>
    </g>
    <g id="text_19">
     <!-- $\nu$ = 5 -->
     <g style="fill: #262626" transform="translate(538.261625 46.314625) scale(0.088 -0.088)">
      <use xlink:href="#Cmmi10-ba" transform="translate(0 0.390625)"/>
      <use xlink:href="#ArialMT-20" transform="translate(49.414062 0.390625)"/>
      <use xlink:href="#ArialMT-3d" transform="translate(77.197266 0.390625)"/>
      <use xlink:href="#ArialMT-20" transform="translate(135.595703 0.390625)"/>
      <use xlink:href="#ArialMT-35" transform="translate(163.378906 0.390625)"/>
     </g>
    </g>
    <g id="line2d_23">
     <path d="M 513.621625 55.6825 
L 522.421625 55.6825 
L 531.221625 55.6825 
" style="fill: none; stroke: #d55e00; stroke-width: 1.2; stroke-linecap: round"/>
    </g>
    <g id="text_20">
     <!-- $\nu$ = 30 -->
     <g style="fill: #262626" transform="translate(538.261625 58.7625) scale(0.088 -0.088)">
      <use xlink:href="#Cmmi10-ba" transform="translate(0 0.125)"/>
      <use xlink:href="#ArialMT-20" transform="translate(49.414062 0.125)"/>
      <use xlink:href="#ArialMT-3d" transform="translate(77.197266 0.125)"/>
      <use xlink:href="#ArialMT-20" transform="translate(135.595703 0.125)"/>
      <use xlink:href="#ArialMT-33" transform="translate(163.378906 0.125)"/>
      <use xlink:href="#ArialMT-30" transform="translate(218.994141 0.125)"/>
     </g>
    </g>
    <g id="line2d_24">
     <path d="M 513.621625 68.237625 
L 522.421625 68.237625 
L 531.221625 68.237625 
" style="fill: none; stroke: #cc78bc; stroke-width: 1.2; stroke-linecap: round"/>
    </g>
    <g id="text_21">
     <!-- N(μ = 0, σ = 1) -->
     <g style="fill: #262626" transform="translate(538.261625 71.317625) scale(0.088 -0.088)">
      <defs>
       <path id="ArialMT-4e" d="M 488 0 
L 488 4581 
L 1109 4581 
L 3516 984 
L 3516 4581 
L 4097 4581 
L 4097 0 
L 3475 0 
L 1069 3600 
L 1069 0 
L 488 0 
z
" transform="scale(0.015625)"/>
       <path id="ArialMT-3bc" d="M 3181 3319 
L 3181 0 
L 2678 0 
L 2678 394 
Q 2516 144 2356 50 
Q 2138 -78 1847 -78 
Q 1588 -78 1388 25 
Q 1238 103 1056 334 
L 1056 -1272 
L 500 -1272 
L 500 3319 
L 1056 3319 
L 1056 1913 
Q 1056 1147 1137 920 
Q 1219 694 1401 562 
Q 1584 431 1822 431 
Q 2072 431 2269 568 
Q 2466 706 2547 923 
Q 2628 1141 2628 1903 
L 2628 3319 
L 3181 3319 
z
" transform="scale(0.015625)"/>
       <path id="ArialMT-2c" d="M 569 0 
L 569 641 
L 1209 641 
L 1209 0 
Q 1209 -353 1084 -570 
Q 959 -788 688 -906 
L 531 -666 
Q 709 -588 793 -436 
Q 878 -284 888 0 
L 569 0 
z
" transform="scale(0.015625)"/>
       <path id="ArialMT-3c3" d="M 3809 3319 
L 3809 2863 
L 2906 2863 
Q 3322 2475 3322 1656 
Q 3322 766 2867 345 
Q 2413 -75 1763 -75 
Q 1088 -75 650 362 
Q 213 800 213 1659 
Q 213 2544 667 2969 
Q 1122 3394 1763 3394 
Q 1997 3394 2294 3319 
L 3809 3319 
z
M 1753 2928 
Q 1344 2928 1067 2609 
Q 791 2291 791 1656 
Q 791 1025 1061 706 
Q 1331 388 1763 388 
Q 2216 388 2483 720 
Q 2750 1053 2750 1659 
Q 2750 2213 2504 2570 
Q 2259 2928 1753 2928 
z
" transform="scale(0.015625)"/>
      </defs>
      <use xlink:href="#ArialMT-4e"/>
      <use xlink:href="#ArialMT-28" x="72.216797"/>
      <use xlink:href="#ArialMT-3bc" x="105.517578"/>
      <use xlink:href="#ArialMT-20" x="163.134766"/>
      <use xlink:href="#ArialMT-3d" x="190.917969"/>
      <use xlink:href="#ArialMT-20" x="249.316406"/>
      <use xlink:href="#ArialMT-30" x="277.099609"/>
      <use xlink:href="#ArialMT-2c" x="332.714844"/>
      <use xlink:href="#ArialMT-20" x="360.498047"/>
      <use xlink:href="#ArialMT-3c3" x="388.28125"/>
      <use xlink:href="#ArialMT-20" x="450"/>
      <use xlink:href="#ArialMT-3d" x="477.783203"/>
      <use xlink:href="#ArialMT-20" x="536.181641"/>
      <use xlink:href="#ArialMT-31" x="563.964844"/>
      <use xlink:href="#ArialMT-29" x="619.580078"/>
     </g>
    </g>
   </g>
  </g>
 </g>
 <defs>
  <clipPath id="pe90fcc36d1">
   <rect x="45.634625" y="7.2" width="558" height="332.64"/>
  </clipPath>
 </defs>
</svg>