<?xml version="1.0" encoding="utf-8" standalone="no"?>
<!DOCTYPE svg PUBLIC "-//W3C//DTD SVG 1.1//EN"
  "http://www.w3.org/Graphics/SVG/1.1/DTD/svg11.dtd">
<svg xmlns:xlink="http://www.w3.org/1999/xlink" width="572.4pt" height="381.224844pt" viewBox="0 0 572.4 381.224844" xmlns="http://www.w3.org/2000/svg" version="1.1">
 <metadata>
  <rdf:RDF xmlns:dc="http://purl.org/dc/elements/1.1/" xmlns:cc="http://creativecommons.org/ns#" xmlns:rdf="http://www.w3.org/1999/02/22-rdf-syntax-ns#">
   <cc:Work>
    <dc:type rdf:resource="http://purl.org/dc/dcmitype/StillImage"/>
    <dc:date>2023-05-12T20:16:38.860866</dc:date>
    <dc:format>image/svg+xml</dc:format>
    <dc:creator>
     <cc:Agent>
      <dc:title>Matplotlib v3.7.1, https://matplotlib.org/</dc:title>
     </cc:Agent>
    </dc:creator>
   </cc:Work>
  </rdf:RDF>
 </metadata>
 <defs>
  <style type="text/css">*{stroke-linejoin: round; stroke-linecap: butt}</style>
 </defs>
 <g id="figure_1">
  <g id="patch_1">
   <path d="M 0 381.224844 
L 572.4 381.224844 
L 572.4 0 
L 0 0 
z
" style="fill: #ffffff"/>
  </g>
  <g id="axes_1">
   <g id="patch_2">
    <path d="M 7.2 354.465 
L 565.2 354.465 
L 565.2 21.825 
L 7.2 21.825 
z
" style="fill: #eaeaf2"/>
   </g>
   <g id="matplotlib.axis_1">
    <g id="xtick_1">
     <g id="line2d_1">
      <path d="M 47.069343 354.465 
L 47.069343 21.825 
" clip-path="url(#p2e44ab0a12)" style="fill: none; stroke: #ffffff; stroke-linecap: round"/>
     </g>
     <g id="text_1">
      <!-- 0.0 -->
      <g style="fill: #262626" transform="translate(39.424343 371.838594) scale(0.11 -0.11)">
       <defs>
        <path id="ArialMT-30" d="M 266 2259 
Q 266 3072 433 3567 
Q 600 4063 929 4331 
Q 1259 4600 1759 4600 
Q 2128 4600 2406 4451 
Q 2684 4303 2865 4023 
Q 3047 3744 3150 3342 
Q 3253 2941 3253 2259 
Q 3253 1453 3087 958 
Q 2922 463 2592 192 
Q 2263 -78 1759 -78 
Q 1097 -78 719 397 
Q 266 969 266 2259 
z
M 844 2259 
Q 844 1131 1108 757 
Q 1372 384 1759 384 
Q 2147 384 2411 759 
Q 2675 1134 2675 2259 
Q 2675 3391 2411 3762 
Q 2147 4134 1753 4134 
Q 1366 4134 1134 3806 
Q 844 3388 844 2259 
z
" transform="scale(0.015625)"/>
        <path id="ArialMT-2e" d="M 581 0 
L 581 641 
L 1222 641 
L 1222 0 
L 581 0 
z
" transform="scale(0.015625)"/>
       </defs>
       <use xlink:href="#ArialMT-30"/>
       <use xlink:href="#ArialMT-2e" x="55.615234"/>
       <use xlink:href="#ArialMT-30" x="83.398438"/>
      </g>
     </g>
    </g>
    <g id="xtick_2">
     <g id="line2d_2">
      <path d="M 118.80854 354.465 
L 118.80854 21.825 
" clip-path="url(#p2e44ab0a12)" style="fill: none; stroke: #ffffff; stroke-linecap: round"/>
     </g>
     <g id="text_2">
      <!-- 0.2 -->
      <g style="fill: #262626" transform="translate(111.16354 371.838594) scale(0.11 -0.11)">
       <defs>
        <path id="ArialMT-32" d="M 3222 541 
L 3222 0 
L 194 0 
Q 188 203 259 391 
Q 375 700 629 1000 
Q 884 1300 1366 1694 
Q 2113 2306 2375 2664 
Q 2638 3022 2638 3341 
Q 2638 3675 2398 3904 
Q 2159 4134 1775 4134 
Q 1369 4134 1125 3890 
Q 881 3647 878 3216 
L 300 3275 
Q 359 3922 746 4261 
Q 1134 4600 1788 4600 
Q 2447 4600 2831 4234 
Q 3216 3869 3216 3328 
Q 3216 3053 3103 2787 
Q 2991 2522 2730 2228 
Q 2469 1934 1863 1422 
Q 1356 997 1212 845 
Q 1069 694 975 541 
L 3222 541 
z
" transform="scale(0.015625)"/>
       </defs>
       <use xlink:href="#ArialMT-30"/>
       <use xlink:href="#ArialMT-2e" x="55.615234"/>
       <use xlink:href="#ArialMT-32" x="83.398438"/>
      </g>
     </g>
    </g>
    <g id="xtick_3">
     <g id="line2d_3">
      <path d="M 190.547737 354.465 
L 190.547737 21.825 
" clip-path="url(#p2e44ab0a12)" style="fill: none; stroke: #ffffff; stroke-linecap: round"/>
     </g>
     <g id="text_3">
      <!-- 0.4 -->
      <g style="fill: #262626" transform="translate(182.902737 371.838594) scale(0.11 -0.11)">
       <defs>
        <path id="ArialMT-34" d="M 2069 0 
L 2069 1097 
L 81 1097 
L 81 1613 
L 2172 4581 
L 2631 4581 
L 2631 1613 
L 3250 1613 
L 3250 1097 
L 2631 1097 
L 2631 0 
L 2069 0 
z
M 2069 1613 
L 2069 3678 
L 634 1613 
L 2069 1613 
z
" transform="scale(0.015625)"/>
       </defs>
       <use xlink:href="#ArialMT-30"/>
       <use xlink:href="#ArialMT-2e" x="55.615234"/>
       <use xlink:href="#ArialMT-34" x="83.398438"/>
      </g>
     </g>
    </g>
    <g id="xtick_4">
     <g id="line2d_4">
      <path d="M 262.286934 354.465 
L 262.286934 21.825 
" clip-path="url(#p2e44ab0a12)" style="fill: none; stroke: #ffffff; stroke-linecap: round"/>
     </g>
     <g id="text_4">
      <!-- 0.6 -->
      <g style="fill: #262626" transform="translate(254.641934 371.838594) scale(0.11 -0.11)">
       <defs>
        <path id="ArialMT-36" d="M 3184 3459 
L 2625 3416 
Q 2550 3747 2413 3897 
Q 2184 4138 1850 4138 
Q 1581 4138 1378 3988 
Q 1113 3794 959 3422 
Q 806 3050 800 2363 
Q 1003 2672 1297 2822 
Q 1591 2972 1913 2972 
Q 2475 2972 2870 2558 
Q 3266 2144 3266 1488 
Q 3266 1056 3080 686 
Q 2894 316 2569 119 
Q 2244 -78 1831 -78 
Q 1128 -78 684 439 
Q 241 956 241 2144 
Q 241 3472 731 4075 
Q 1159 4600 1884 4600 
Q 2425 4600 2770 4297 
Q 3116 3994 3184 3459 
z
M 888 1484 
Q 888 1194 1011 928 
Q 1134 663 1356 523 
Q 1578 384 1822 384 
Q 2178 384 2434 671 
Q 2691 959 2691 1453 
Q 2691 1928 2437 2201 
Q 2184 2475 1800 2475 
Q 1419 2475 1153 2201 
Q 888 1928 888 1484 
z
" transform="scale(0.015625)"/>
       </defs>
       <use xlink:href="#ArialMT-30"/>
       <use xlink:href="#ArialMT-2e" x="55.615234"/>
       <use xlink:href="#ArialMT-36" x="83.398438"/>
      </g>
     </g>
    </g>
    <g id="xtick_5">
     <g id="line2d_5">
      <path d="M 334.026131 354.465 
L 334.026131 21.825 
" clip-path="url(#p2e44ab0a12)" style="fill: none; stroke: #ffffff; stroke-linecap: round"/>
     </g>
     <g id="text_5">
      <!-- 0.8 -->
      <g style="fill: #262626" transform="translate(326.381131 371.838594) scale(0.11 -0.11)">
       <defs>
        <path id="ArialMT-38" d="M 1131 2484 
Q 781 2613 612 2850 
Q 444 3088 444 3419 
Q 444 3919 803 4259 
Q 1163 4600 1759 4600 
Q 2359 4600 2725 4251 
Q 3091 3903 3091 3403 
Q 3091 3084 2923 2848 
Q 2756 2613 2416 2484 
Q 2838 2347 3058 2040 
Q 3278 1734 3278 1309 
Q 3278 722 2862 322 
Q 2447 -78 1769 -78 
Q 1091 -78 675 323 
Q 259 725 259 1325 
Q 259 1772 486 2073 
Q 713 2375 1131 2484 
z
M 1019 3438 
Q 1019 3113 1228 2906 
Q 1438 2700 1772 2700 
Q 2097 2700 2305 2904 
Q 2513 3109 2513 3406 
Q 2513 3716 2298 3927 
Q 2084 4138 1766 4138 
Q 1444 4138 1231 3931 
Q 1019 3725 1019 3438 
z
M 838 1322 
Q 838 1081 952 856 
Q 1066 631 1291 507 
Q 1516 384 1775 384 
Q 2178 384 2440 643 
Q 2703 903 2703 1303 
Q 2703 1709 2433 1975 
Q 2163 2241 1756 2241 
Q 1359 2241 1098 1978 
Q 838 1716 838 1322 
z
" transform="scale(0.015625)"/>
       </defs>
       <use xlink:href="#ArialMT-30"/>
       <use xlink:href="#ArialMT-2e" x="55.615234"/>
       <use xlink:href="#ArialMT-38" x="83.398438"/>
      </g>
     </g>
    </g>
    <g id="xtick_6">
     <g id="line2d_6">
      <path d="M 405.765328 354.465 
L 405.765328 21.825 
" clip-path="url(#p2e44ab0a12)" style="fill: none; stroke: #ffffff; stroke-linecap: round"/>
     </g>
     <g id="text_6">
      <!-- 1.0 -->
      <g style="fill: #262626" transform="translate(398.120328 371.838594) scale(0.11 -0.11)">
       <defs>
        <path id="ArialMT-31" d="M 2384 0 
L 1822 0 
L 1822 3584 
Q 1619 3391 1289 3197 
Q 959 3003 697 2906 
L 697 3450 
Q 1169 3672 1522 3987 
Q 1875 4303 2022 4600 
L 2384 4600 
L 2384 0 
z
" transform="scale(0.015625)"/>
       </defs>
       <use xlink:href="#ArialMT-31"/>
       <use xlink:href="#ArialMT-2e" x="55.615234"/>
       <use xlink:href="#ArialMT-30" x="83.398438"/>
      </g>
     </g>
    </g>
    <g id="xtick_7">
     <g id="line2d_7">
      <path d="M 477.504526 354.465 
L 477.504526 21.825 
" clip-path="url(#p2e44ab0a12)" style="fill: none; stroke: #ffffff; stroke-linecap: round"/>
     </g>
     <g id="text_7">
      <!-- 1.2 -->
      <g style="fill: #262626" transform="translate(469.859526 371.838594) scale(0.11 -0.11)">
       <use xlink:href="#ArialMT-31"/>
       <use xlink:href="#ArialMT-2e" x="55.615234"/>
       <use xlink:href="#ArialMT-32" x="83.398438"/>
      </g>
     </g>
    </g>
    <g id="xtick_8">
     <g id="line2d_8">
      <path d="M 549.243723 354.465 
L 549.243723 21.825 
" clip-path="url(#p2e44ab0a12)" style="fill: none; stroke: #ffffff; stroke-linecap: round"/>
     </g>
     <g id="text_8">
      <!-- 1.4 -->
      <g style="fill: #262626" transform="translate(541.598723 371.838594) scale(0.11 -0.11)">
       <use xlink:href="#ArialMT-31"/>
       <use xlink:href="#ArialMT-2e" x="55.615234"/>
       <use xlink:href="#ArialMT-34" x="83.398438"/>
      </g>
     </g>
    </g>
   </g>
   <g id="matplotlib.axis_2">
    <g id="ytick_1">
     <g id="line2d_9">
      <path d="M 7.2 354.465 
L 565.2 354.465 
" clip-path="url(#p2e44ab0a12)" style="fill: none; stroke: #ffffff; stroke-linecap: round"/>
     </g>
    </g>
    <g id="ytick_2">
     <g id="line2d_10">
      <path d="M 7.2 311.711964 
L 565.2 311.711964 
" clip-path="url(#p2e44ab0a12)" style="fill: none; stroke: #ffffff; stroke-linecap: round"/>
     </g>
    </g>
    <g id="ytick_3">
     <g id="line2d_11">
      <path d="M 7.2 268.958927 
L 565.2 268.958927 
" clip-path="url(#p2e44ab0a12)" style="fill: none; stroke: #ffffff; stroke-linecap: round"/>
     </g>
    </g>
    <g id="ytick_4">
     <g id="line2d_12">
      <path d="M 7.2 226.205891 
L 565.2 226.205891 
" clip-path="url(#p2e44ab0a12)" style="fill: none; stroke: #ffffff; stroke-linecap: round"/>
     </g>
    </g>
    <g id="ytick_5">
     <g id="line2d_13">
      <path d="M 7.2 183.452854 
L 565.2 183.452854 
" clip-path="url(#p2e44ab0a12)" style="fill: none; stroke: #ffffff; stroke-linecap: round"/>
     </g>
    </g>
    <g id="ytick_6">
     <g id="line2d_14">
      <path d="M 7.2 140.699818 
L 565.2 140.699818 
" clip-path="url(#p2e44ab0a12)" style="fill: none; stroke: #ffffff; stroke-linecap: round"/>
     </g>
    </g>
    <g id="ytick_7">
     <g id="line2d_15">
      <path d="M 7.2 97.946781 
L 565.2 97.946781 
" clip-path="url(#p2e44ab0a12)" style="fill: none; stroke: #ffffff; stroke-linecap: round"/>
     </g>
    </g>
    <g id="ytick_8">
     <g id="line2d_16">
      <path d="M 7.2 55.193745 
L 565.2 55.193745 
" clip-path="url(#p2e44ab0a12)" style="fill: none; stroke: #ffffff; stroke-linecap: round"/>
     </g>
    </g>
   </g>
   <g id="patch_3">
    <path d="M 222.417824 354.465 
L 223.558161 354.465 
L 223.558161 353.609939 
L 222.417824 353.609939 
z
" clip-path="url(#p2e44ab0a12)" style="fill: #0173b2; fill-opacity: 0.75; stroke: #ffffff; stroke-width: 0.469697; stroke-linejoin: miter"/>
   </g>
   <g id="patch_4">
    <path d="M 223.558161 354.465 
L 224.698498 354.465 
L 224.698498 353.823704 
L 223.558161 353.823704 
z
" clip-path="url(#p2e44ab0a12)" style="fill: #0173b2; fill-opacity: 0.75; stroke: #ffffff; stroke-width: 0.469697; stroke-linejoin: miter"/>
   </g>
   <g id="patch_5">
    <path d="M 224.698498 354.465 
L 225.838834 354.465 
L 225.838834 354.465 
L 224.698498 354.465 
z
" clip-path="url(#p2e44ab0a12)" style="fill: #0173b2; fill-opacity: 0.75; stroke: #ffffff; stroke-width: 0.469697; stroke-linejoin: miter"/>
   </g>
   <g id="patch_6">
    <path d="M 225.838834 354.465 
L 226.979171 354.465 
L 226.979171 354.251235 
L 225.838834 354.251235 
z
" clip-path="url(#p2e44ab0a12)" style="fill: #0173b2; fill-opacity: 0.75; stroke: #ffffff; stroke-width: 0.469697; stroke-linejoin: miter"/>
   </g>
   <g id="patch_7">
    <path d="M 226.979171 354.465 
L 228.119508 354.465 
L 228.119508 353.396174 
L 226.979171 353.396174 
z
" clip-path="url(#p2e44ab0a12)" style="fill: #0173b2; fill-opacity: 0.75; stroke: #ffffff; stroke-width: 0.469697; stroke-linejoin: miter"/>
   </g>
   <g id="patch_8">
    <path d="M 228.119508 354.465 
L 229.259845 354.465 
L 229.259845 354.465 
L 228.119508 354.465 
z
" clip-path="url(#p2e44ab0a12)" style="fill: #0173b2; fill-opacity: 0.75; stroke: #ffffff; stroke-width: 0.469697; stroke-linejoin: miter"/>
   </g>
   <g id="patch_9">
    <path d="M 229.259845 354.465 
L 230.400182 354.465 
L 230.400182 354.03747 
L 229.259845 354.03747 
z
" clip-path="url(#p2e44ab0a12)" style="fill: #0173b2; fill-opacity: 0.75; stroke: #ffffff; stroke-width: 0.469697; stroke-linejoin: miter"/>
   </g>
   <g id="patch_10">
    <path d="M 230.400182 354.465 
L 231.540519 354.465 
L 231.540519 354.03747 
L 230.400182 354.03747 
z
" clip-path="url(#p2e44ab0a12)" style="fill: #0173b2; fill-opacity: 0.75; stroke: #ffffff; stroke-width: 0.469697; stroke-linejoin: miter"/>
   </g>
   <g id="patch_11">
    <path d="M 231.540519 354.465 
L 232.680855 354.465 
L 232.680855 353.396174 
L 231.540519 353.396174 
z
" clip-path="url(#p2e44ab0a12)" style="fill: #0173b2; fill-opacity: 0.75; stroke: #ffffff; stroke-width: 0.469697; stroke-linejoin: miter"/>
   </g>
   <g id="patch_12">
    <path d="M 232.680855 354.465 
L 233.821192 354.465 
L 233.821192 352.754879 
L 232.680855 352.754879 
z
" clip-path="url(#p2e44ab0a12)" style="fill: #0173b2; fill-opacity: 0.75; stroke: #ffffff; stroke-width: 0.469697; stroke-linejoin: miter"/>
   </g>
   <g id="patch_13">
    <path d="M 233.821192 354.465 
L 234.961529 354.465 
L 234.961529 353.823704 
L 233.821192 353.823704 
z
" clip-path="url(#p2e44ab0a12)" style="fill: #0173b2; fill-opacity: 0.75; stroke: #ffffff; stroke-width: 0.469697; stroke-linejoin: miter"/>
   </g>
   <g id="patch_14">
    <path d="M 234.961529 354.465 
L 236.101866 354.465 
L 236.101866 351.899818 
L 234.961529 351.899818 
z
" clip-path="url(#p2e44ab0a12)" style="fill: #0173b2; fill-opacity: 0.75; stroke: #ffffff; stroke-width: 0.469697; stroke-linejoin: miter"/>
   </g>
   <g id="patch_15">
    <path d="M 236.101866 354.465 
L 237.242203 354.465 
L 237.242203 352.327348 
L 236.101866 352.327348 
z
" clip-path="url(#p2e44ab0a12)" style="fill: #0173b2; fill-opacity: 0.75; stroke: #ffffff; stroke-width: 0.469697; stroke-linejoin: miter"/>
   </g>
   <g id="patch_16">
    <path d="M 237.242203 354.465 
L 238.382539 354.465 
L 238.382539 350.617227 
L 237.242203 350.617227 
z
" clip-path="url(#p2e44ab0a12)" style="fill: #0173b2; fill-opacity: 0.75; stroke: #ffffff; stroke-width: 0.469697; stroke-linejoin: miter"/>
   </g>
   <g id="patch_17">
    <path d="M 238.382539 354.465 
L 239.522876 354.465 
L 239.522876 349.12087 
L 238.382539 349.12087 
z
" clip-path="url(#p2e44ab0a12)" style="fill: #0173b2; fill-opacity: 0.75; stroke: #ffffff; stroke-width: 0.469697; stroke-linejoin: miter"/>
   </g>
   <g id="patch_18">
    <path d="M 239.522876 354.465 
L 240.663213 354.465 
L 240.663213 349.12087 
L 239.522876 349.12087 
z
" clip-path="url(#p2e44ab0a12)" style="fill: #0173b2; fill-opacity: 0.75; stroke: #ffffff; stroke-width: 0.469697; stroke-linejoin: miter"/>
   </g>
   <g id="patch_19">
    <path d="M 240.663213 354.465 
L 241.80355 354.465 
L 241.80355 348.69334 
L 240.663213 348.69334 
z
" clip-path="url(#p2e44ab0a12)" style="fill: #0173b2; fill-opacity: 0.75; stroke: #ffffff; stroke-width: 0.469697; stroke-linejoin: miter"/>
   </g>
   <g id="patch_20">
    <path d="M 241.80355 354.465 
L 242.943887 354.465 
L 242.943887 349.762166 
L 241.80355 349.762166 
z
" clip-path="url(#p2e44ab0a12)" style="fill: #0173b2; fill-opacity: 0.75; stroke: #ffffff; stroke-width: 0.469697; stroke-linejoin: miter"/>
   </g>
   <g id="patch_21">
    <path d="M 242.943887 354.465 
L 244.084224 354.465 
L 244.084224 347.410749 
L 242.943887 347.410749 
z
" clip-path="url(#p2e44ab0a12)" style="fill: #0173b2; fill-opacity: 0.75; stroke: #ffffff; stroke-width: 0.469697; stroke-linejoin: miter"/>
   </g>
   <g id="patch_22">
    <path d="M 244.084224 354.465 
L 245.22456 354.465 
L 245.22456 343.990506 
L 244.084224 343.990506 
z
" clip-path="url(#p2e44ab0a12)" style="fill: #0173b2; fill-opacity: 0.75; stroke: #ffffff; stroke-width: 0.469697; stroke-linejoin: miter"/>
   </g>
   <g id="patch_23">
    <path d="M 245.22456 354.465 
L 246.364897 354.465 
L 246.364897 344.204271 
L 245.22456 344.204271 
z
" clip-path="url(#p2e44ab0a12)" style="fill: #0173b2; fill-opacity: 0.75; stroke: #ffffff; stroke-width: 0.469697; stroke-linejoin: miter"/>
   </g>
   <g id="patch_24">
    <path d="M 246.364897 354.465 
L 247.505234 354.465 
L 247.505234 340.142733 
L 246.364897 340.142733 
z
" clip-path="url(#p2e44ab0a12)" style="fill: #0173b2; fill-opacity: 0.75; stroke: #ffffff; stroke-width: 0.469697; stroke-linejoin: miter"/>
   </g>
   <g id="patch_25">
    <path d="M 247.505234 354.465 
L 248.645571 354.465 
L 248.645571 337.363785 
L 247.505234 337.363785 
z
" clip-path="url(#p2e44ab0a12)" style="fill: #0173b2; fill-opacity: 0.75; stroke: #ffffff; stroke-width: 0.469697; stroke-linejoin: miter"/>
   </g>
   <g id="patch_26">
    <path d="M 248.645571 354.465 
L 249.785908 354.465 
L 249.785908 335.867429 
L 248.645571 335.867429 
z
" clip-path="url(#p2e44ab0a12)" style="fill: #0173b2; fill-opacity: 0.75; stroke: #ffffff; stroke-width: 0.469697; stroke-linejoin: miter"/>
   </g>
   <g id="patch_27">
    <path d="M 249.785908 354.465 
L 250.926244 354.465 
L 250.926244 333.516012 
L 249.785908 333.516012 
z
" clip-path="url(#p2e44ab0a12)" style="fill: #0173b2; fill-opacity: 0.75; stroke: #ffffff; stroke-width: 0.469697; stroke-linejoin: miter"/>
   </g>
   <g id="patch_28">
    <path d="M 250.926244 354.465 
L 252.066581 354.465 
L 252.066581 327.530587 
L 250.926244 327.530587 
z
" clip-path="url(#p2e44ab0a12)" style="fill: #0173b2; fill-opacity: 0.75; stroke: #ffffff; stroke-width: 0.469697; stroke-linejoin: miter"/>
   </g>
   <g id="patch_29">
    <path d="M 252.066581 354.465 
L 253.206918 354.465 
L 253.206918 318.766215 
L 252.066581 318.766215 
z
" clip-path="url(#p2e44ab0a12)" style="fill: #0173b2; fill-opacity: 0.75; stroke: #ffffff; stroke-width: 0.469697; stroke-linejoin: miter"/>
   </g>
   <g id="patch_30">
    <path d="M 253.206918 354.465 
L 254.347255 354.465 
L 254.347255 318.552449 
L 253.206918 318.552449 
z
" clip-path="url(#p2e44ab0a12)" style="fill: #0173b2; fill-opacity: 0.75; stroke: #ffffff; stroke-width: 0.469697; stroke-linejoin: miter"/>
   </g>
   <g id="patch_31">
    <path d="M 254.347255 354.465 
L 255.487592 354.465 
L 255.487592 306.581599 
L 254.347255 306.581599 
z
" clip-path="url(#p2e44ab0a12)" style="fill: #0173b2; fill-opacity: 0.75; stroke: #ffffff; stroke-width: 0.469697; stroke-linejoin: miter"/>
   </g>
   <g id="patch_32">
    <path d="M 255.487592 354.465 
L 256.627928 354.465 
L 256.627928 309.360547 
L 255.487592 309.360547 
z
" clip-path="url(#p2e44ab0a12)" style="fill: #0173b2; fill-opacity: 0.75; stroke: #ffffff; stroke-width: 0.469697; stroke-linejoin: miter"/>
   </g>
   <g id="patch_33">
    <path d="M 256.627928 354.465 
L 257.768265 354.465 
L 257.768265 299.527348 
L 256.627928 299.527348 
z
" clip-path="url(#p2e44ab0a12)" style="fill: #0173b2; fill-opacity: 0.75; stroke: #ffffff; stroke-width: 0.469697; stroke-linejoin: miter"/>
   </g>
   <g id="patch_34">
    <path d="M 257.768265 354.465 
L 258.908602 354.465 
L 258.908602 289.907915 
L 257.768265 289.907915 
z
" clip-path="url(#p2e44ab0a12)" style="fill: #0173b2; fill-opacity: 0.75; stroke: #ffffff; stroke-width: 0.469697; stroke-linejoin: miter"/>
   </g>
   <g id="patch_35">
    <path d="M 258.908602 354.465 
L 260.048939 354.465 
L 260.048939 280.502247 
L 258.908602 280.502247 
z
" clip-path="url(#p2e44ab0a12)" style="fill: #0173b2; fill-opacity: 0.75; stroke: #ffffff; stroke-width: 0.469697; stroke-linejoin: miter"/>
   </g>
   <g id="patch_36">
    <path d="M 260.048939 354.465 
L 261.189276 354.465 
L 261.189276 274.944352 
L 260.048939 274.944352 
z
" clip-path="url(#p2e44ab0a12)" style="fill: #0173b2; fill-opacity: 0.75; stroke: #ffffff; stroke-width: 0.469697; stroke-linejoin: miter"/>
   </g>
   <g id="patch_37">
    <path d="M 261.189276 354.465 
L 262.329613 354.465 
L 262.329613 263.187267 
L 261.189276 263.187267 
z
" clip-path="url(#p2e44ab0a12)" style="fill: #0173b2; fill-opacity: 0.75; stroke: #ffffff; stroke-width: 0.469697; stroke-linejoin: miter"/>
   </g>
   <g id="patch_38">
    <path d="M 262.329613 354.465 
L 263.469949 354.465 
L 263.469949 260.83585 
L 262.329613 260.83585 
z
" clip-path="url(#p2e44ab0a12)" style="fill: #0173b2; fill-opacity: 0.75; stroke: #ffffff; stroke-width: 0.469697; stroke-linejoin: miter"/>
   </g>
   <g id="patch_39">
    <path d="M 263.469949 354.465 
L 264.610286 354.465 
L 264.610286 251.216417 
L 263.469949 251.216417 
z
" clip-path="url(#p2e44ab0a12)" style="fill: #0173b2; fill-opacity: 0.75; stroke: #ffffff; stroke-width: 0.469697; stroke-linejoin: miter"/>
   </g>
   <g id="patch_40">
    <path d="M 264.610286 354.465 
L 265.750623 354.465 
L 265.750623 236.466619 
L 264.610286 236.466619 
z
" clip-path="url(#p2e44ab0a12)" style="fill: #0173b2; fill-opacity: 0.75; stroke: #ffffff; stroke-width: 0.469697; stroke-linejoin: miter"/>
   </g>
   <g id="patch_41">
    <path d="M 265.750623 354.465 
L 266.89096 354.465 
L 266.89096 225.137065 
L 265.750623 225.137065 
z
" clip-path="url(#p2e44ab0a12)" style="fill: #0173b2; fill-opacity: 0.75; stroke: #ffffff; stroke-width: 0.469697; stroke-linejoin: miter"/>
   </g>
   <g id="patch_42">
    <path d="M 266.89096 354.465 
L 268.031297 354.465 
L 268.031297 215.517632 
L 266.89096 215.517632 
z
" clip-path="url(#p2e44ab0a12)" style="fill: #0173b2; fill-opacity: 0.75; stroke: #ffffff; stroke-width: 0.469697; stroke-linejoin: miter"/>
   </g>
   <g id="patch_43">
    <path d="M 268.031297 354.465 
L 269.171633 354.465 
L 269.171633 185.162976 
L 268.031297 185.162976 
z
" clip-path="url(#p2e44ab0a12)" style="fill: #0173b2; fill-opacity: 0.75; stroke: #ffffff; stroke-width: 0.469697; stroke-linejoin: miter"/>
   </g>
   <g id="patch_44">
    <path d="M 269.171633 354.465 
L 270.31197 354.465 
L 270.31197 174.902247 
L 269.171633 174.902247 
z
" clip-path="url(#p2e44ab0a12)" style="fill: #0173b2; fill-opacity: 0.75; stroke: #ffffff; stroke-width: 0.469697; stroke-linejoin: miter"/>
   </g>
   <g id="patch_45">
    <path d="M 270.31197 354.465 
L 271.452307 354.465 
L 271.452307 166.992935 
L 270.31197 166.992935 
z
" clip-path="url(#p2e44ab0a12)" style="fill: #0173b2; fill-opacity: 0.75; stroke: #ffffff; stroke-width: 0.469697; stroke-linejoin: miter"/>
   </g>
   <g id="patch_46">
    <path d="M 271.452307 354.465 
L 272.592644 354.465 
L 272.592644 153.953259 
L 271.452307 153.953259 
z
" clip-path="url(#p2e44ab0a12)" style="fill: #0173b2; fill-opacity: 0.75; stroke: #ffffff; stroke-width: 0.469697; stroke-linejoin: miter"/>
   </g>
   <g id="patch_47">
    <path d="M 272.592644 354.465 
L 273.732981 354.465 
L 273.732981 139.203462 
L 272.592644 139.203462 
z
" clip-path="url(#p2e44ab0a12)" style="fill: #0173b2; fill-opacity: 0.75; stroke: #ffffff; stroke-width: 0.469697; stroke-linejoin: miter"/>
   </g>
   <g id="patch_48">
    <path d="M 273.732981 354.465 
L 274.873318 354.465 
L 274.873318 122.957308 
L 273.732981 122.957308 
z
" clip-path="url(#p2e44ab0a12)" style="fill: #0173b2; fill-opacity: 0.75; stroke: #ffffff; stroke-width: 0.469697; stroke-linejoin: miter"/>
   </g>
   <g id="patch_49">
    <path d="M 274.873318 354.465 
L 276.013654 354.465 
L 276.013654 114.834231 
L 274.873318 114.834231 
z
" clip-path="url(#p2e44ab0a12)" style="fill: #0173b2; fill-opacity: 0.75; stroke: #ffffff; stroke-width: 0.469697; stroke-linejoin: miter"/>
   </g>
   <g id="patch_50">
    <path d="M 276.013654 354.465 
L 277.153991 354.465 
L 277.153991 107.138684 
L 276.013654 107.138684 
z
" clip-path="url(#p2e44ab0a12)" style="fill: #0173b2; fill-opacity: 0.75; stroke: #ffffff; stroke-width: 0.469697; stroke-linejoin: miter"/>
   </g>
   <g id="patch_51">
    <path d="M 277.153991 354.465 
L 278.294328 354.465 
L 278.294328 86.617227 
L 277.153991 86.617227 
z
" clip-path="url(#p2e44ab0a12)" style="fill: #0173b2; fill-opacity: 0.75; stroke: #ffffff; stroke-width: 0.469697; stroke-linejoin: miter"/>
   </g>
   <g id="patch_52">
    <path d="M 278.294328 354.465 
L 279.434665 354.465 
L 279.434665 90.89253 
L 278.294328 90.89253 
z
" clip-path="url(#p2e44ab0a12)" style="fill: #0173b2; fill-opacity: 0.75; stroke: #ffffff; stroke-width: 0.469697; stroke-linejoin: miter"/>
   </g>
   <g id="patch_53">
    <path d="M 279.434665 354.465 
L 280.575002 354.465 
L 280.575002 67.164595 
L 279.434665 67.164595 
z
" clip-path="url(#p2e44ab0a12)" style="fill: #0173b2; fill-opacity: 0.75; stroke: #ffffff; stroke-width: 0.469697; stroke-linejoin: miter"/>
   </g>
   <g id="patch_54">
    <path d="M 280.575002 354.465 
L 281.715338 354.465 
L 281.715338 60.324109 
L 280.575002 60.324109 
z
" clip-path="url(#p2e44ab0a12)" style="fill: #0173b2; fill-opacity: 0.75; stroke: #ffffff; stroke-width: 0.469697; stroke-linejoin: miter"/>
   </g>
   <g id="patch_55">
    <path d="M 281.715338 354.465 
L 282.855675 354.465 
L 282.855675 54.338684 
L 281.715338 54.338684 
z
" clip-path="url(#p2e44ab0a12)" style="fill: #0173b2; fill-opacity: 0.75; stroke: #ffffff; stroke-width: 0.469697; stroke-linejoin: miter"/>
   </g>
   <g id="patch_56">
    <path d="M 282.855675 354.465 
L 283.996012 354.465 
L 283.996012 39.802652 
L 282.855675 39.802652 
z
" clip-path="url(#p2e44ab0a12)" style="fill: #0173b2; fill-opacity: 0.75; stroke: #ffffff; stroke-width: 0.469697; stroke-linejoin: miter"/>
   </g>
   <g id="patch_57">
    <path d="M 283.996012 354.465 
L 285.136349 354.465 
L 285.136349 48.139494 
L 283.996012 48.139494 
z
" clip-path="url(#p2e44ab0a12)" style="fill: #0173b2; fill-opacity: 0.75; stroke: #ffffff; stroke-width: 0.469697; stroke-linejoin: miter"/>
   </g>
   <g id="patch_58">
    <path d="M 285.136349 354.465 
L 286.276686 354.465 
L 286.276686 40.230182 
L 285.136349 40.230182 
z
" clip-path="url(#p2e44ab0a12)" style="fill: #0173b2; fill-opacity: 0.75; stroke: #ffffff; stroke-width: 0.469697; stroke-linejoin: miter"/>
   </g>
   <g id="patch_59">
    <path d="M 286.276686 354.465 
L 287.417023 354.465 
L 287.417023 37.665 
L 286.276686 37.665 
z
" clip-path="url(#p2e44ab0a12)" style="fill: #0173b2; fill-opacity: 0.75; stroke: #ffffff; stroke-width: 0.469697; stroke-linejoin: miter"/>
   </g>
   <g id="patch_60">
    <path d="M 287.417023 354.465 
L 288.557359 354.465 
L 288.557359 48.780789 
L 287.417023 48.780789 
z
" clip-path="url(#p2e44ab0a12)" style="fill: #0173b2; fill-opacity: 0.75; stroke: #ffffff; stroke-width: 0.469697; stroke-linejoin: miter"/>
   </g>
   <g id="patch_61">
    <path d="M 288.557359 354.465 
L 289.697696 354.465 
L 289.697696 40.871478 
L 288.557359 40.871478 
z
" clip-path="url(#p2e44ab0a12)" style="fill: #0173b2; fill-opacity: 0.75; stroke: #ffffff; stroke-width: 0.469697; stroke-linejoin: miter"/>
   </g>
   <g id="patch_62">
    <path d="M 289.697696 354.465 
L 290.838033 354.465 
L 290.838033 68.874717 
L 289.697696 68.874717 
z
" clip-path="url(#p2e44ab0a12)" style="fill: #0173b2; fill-opacity: 0.75; stroke: #ffffff; stroke-width: 0.469697; stroke-linejoin: miter"/>
   </g>
   <g id="patch_63">
    <path d="M 290.838033 354.465 
L 291.97837 354.465 
L 291.97837 48.353259 
L 290.838033 48.353259 
z
" clip-path="url(#p2e44ab0a12)" style="fill: #0173b2; fill-opacity: 0.75; stroke: #ffffff; stroke-width: 0.469697; stroke-linejoin: miter"/>
   </g>
   <g id="patch_64">
    <path d="M 291.97837 354.465 
L 293.118707 354.465 
L 293.118707 62.461761 
L 291.97837 62.461761 
z
" clip-path="url(#p2e44ab0a12)" style="fill: #0173b2; fill-opacity: 0.75; stroke: #ffffff; stroke-width: 0.469697; stroke-linejoin: miter"/>
   </g>
   <g id="patch_65">
    <path d="M 293.118707 354.465 
L 294.259043 354.465 
L 294.259043 76.784028 
L 293.118707 76.784028 
z
" clip-path="url(#p2e44ab0a12)" style="fill: #0173b2; fill-opacity: 0.75; stroke: #ffffff; stroke-width: 0.469697; stroke-linejoin: miter"/>
   </g>
   <g id="patch_66">
    <path d="M 294.259043 354.465 
L 295.39938 354.465 
L 295.39938 70.371073 
L 294.259043 70.371073 
z
" clip-path="url(#p2e44ab0a12)" style="fill: #0173b2; fill-opacity: 0.75; stroke: #ffffff; stroke-width: 0.469697; stroke-linejoin: miter"/>
   </g>
   <g id="patch_67">
    <path d="M 295.39938 354.465 
L 296.539717 354.465 
L 296.539717 95.167834 
L 295.39938 95.167834 
z
" clip-path="url(#p2e44ab0a12)" style="fill: #0173b2; fill-opacity: 0.75; stroke: #ffffff; stroke-width: 0.469697; stroke-linejoin: miter"/>
   </g>
   <g id="patch_68">
    <path d="M 296.539717 354.465 
L 297.680054 354.465 
L 297.680054 98.588077 
L 296.539717 98.588077 
z
" clip-path="url(#p2e44ab0a12)" style="fill: #0173b2; fill-opacity: 0.75; stroke: #ffffff; stroke-width: 0.469697; stroke-linejoin: miter"/>
   </g>
   <g id="patch_69">
    <path d="M 297.680054 354.465 
L 298.820391 354.465 
L 298.820391 103.504676 
L 297.680054 103.504676 
z
" clip-path="url(#p2e44ab0a12)" style="fill: #0173b2; fill-opacity: 0.75; stroke: #ffffff; stroke-width: 0.469697; stroke-linejoin: miter"/>
   </g>
   <g id="patch_70">
    <path d="M 298.820391 354.465 
L 299.960727 354.465 
L 299.960727 129.797794 
L 298.820391 129.797794 
z
" clip-path="url(#p2e44ab0a12)" style="fill: #0173b2; fill-opacity: 0.75; stroke: #ffffff; stroke-width: 0.469697; stroke-linejoin: miter"/>
   </g>
   <g id="patch_71">
    <path d="M 299.960727 354.465 
L 301.101064 354.465 
L 301.101064 140.913583 
L 299.960727 140.913583 
z
" clip-path="url(#p2e44ab0a12)" style="fill: #0173b2; fill-opacity: 0.75; stroke: #ffffff; stroke-width: 0.469697; stroke-linejoin: miter"/>
   </g>
   <g id="patch_72">
    <path d="M 301.101064 354.465 
L 302.241401 354.465 
L 302.241401 151.174312 
L 301.101064 151.174312 
z
" clip-path="url(#p2e44ab0a12)" style="fill: #0173b2; fill-opacity: 0.75; stroke: #ffffff; stroke-width: 0.469697; stroke-linejoin: miter"/>
   </g>
   <g id="patch_73">
    <path d="M 302.241401 354.465 
L 303.381738 354.465 
L 303.381738 174.260951 
L 302.241401 174.260951 
z
" clip-path="url(#p2e44ab0a12)" style="fill: #0173b2; fill-opacity: 0.75; stroke: #ffffff; stroke-width: 0.469697; stroke-linejoin: miter"/>
   </g>
   <g id="patch_74">
    <path d="M 303.381738 354.465 
L 304.522075 354.465 
L 304.522075 196.920061 
L 303.381738 196.920061 
z
" clip-path="url(#p2e44ab0a12)" style="fill: #0173b2; fill-opacity: 0.75; stroke: #ffffff; stroke-width: 0.469697; stroke-linejoin: miter"/>
   </g>
   <g id="patch_75">
    <path d="M 304.522075 354.465 
L 305.662412 354.465 
L 305.662412 200.767834 
L 304.522075 200.767834 
z
" clip-path="url(#p2e44ab0a12)" style="fill: #0173b2; fill-opacity: 0.75; stroke: #ffffff; stroke-width: 0.469697; stroke-linejoin: miter"/>
   </g>
   <g id="patch_76">
    <path d="M 305.662412 354.465 
L 306.802748 354.465 
L 306.802748 209.318441 
L 305.662412 209.318441 
z
" clip-path="url(#p2e44ab0a12)" style="fill: #0173b2; fill-opacity: 0.75; stroke: #ffffff; stroke-width: 0.469697; stroke-linejoin: miter"/>
   </g>
   <g id="patch_77">
    <path d="M 306.802748 354.465 
L 307.943085 354.465 
L 307.943085 225.137065 
L 306.802748 225.137065 
z
" clip-path="url(#p2e44ab0a12)" style="fill: #0173b2; fill-opacity: 0.75; stroke: #ffffff; stroke-width: 0.469697; stroke-linejoin: miter"/>
   </g>
   <g id="patch_78">
    <path d="M 307.943085 354.465 
L 309.083422 354.465 
L 309.083422 234.328968 
L 307.943085 234.328968 
z
" clip-path="url(#p2e44ab0a12)" style="fill: #0173b2; fill-opacity: 0.75; stroke: #ffffff; stroke-width: 0.469697; stroke-linejoin: miter"/>
   </g>
   <g id="patch_79">
    <path d="M 309.083422 354.465 
L 310.223759 354.465 
L 310.223759 253.354069 
L 309.083422 253.354069 
z
" clip-path="url(#p2e44ab0a12)" style="fill: #0173b2; fill-opacity: 0.75; stroke: #ffffff; stroke-width: 0.469697; stroke-linejoin: miter"/>
   </g>
   <g id="patch_80">
    <path d="M 310.223759 354.465 
L 311.364096 354.465 
L 311.364096 260.83585 
L 310.223759 260.83585 
z
" clip-path="url(#p2e44ab0a12)" style="fill: #0173b2; fill-opacity: 0.75; stroke: #ffffff; stroke-width: 0.469697; stroke-linejoin: miter"/>
   </g>
   <g id="patch_81">
    <path d="M 311.364096 354.465 
L 312.504432 354.465 
L 312.504432 268.531397 
L 311.364096 268.531397 
z
" clip-path="url(#p2e44ab0a12)" style="fill: #0173b2; fill-opacity: 0.75; stroke: #ffffff; stroke-width: 0.469697; stroke-linejoin: miter"/>
   </g>
   <g id="patch_82">
    <path d="M 312.504432 354.465 
L 313.644769 354.465 
L 313.644769 282.426134 
L 312.504432 282.426134 
z
" clip-path="url(#p2e44ab0a12)" style="fill: #0173b2; fill-opacity: 0.75; stroke: #ffffff; stroke-width: 0.469697; stroke-linejoin: miter"/>
   </g>
   <g id="patch_83">
    <path d="M 313.644769 354.465 
L 314.785106 354.465 
L 314.785106 287.770263 
L 313.644769 287.770263 
z
" clip-path="url(#p2e44ab0a12)" style="fill: #0173b2; fill-opacity: 0.75; stroke: #ffffff; stroke-width: 0.469697; stroke-linejoin: miter"/>
   </g>
   <g id="patch_84">
    <path d="M 314.785106 354.465 
L 315.925443 354.465 
L 315.925443 305.299008 
L 314.785106 305.299008 
z
" clip-path="url(#p2e44ab0a12)" style="fill: #0173b2; fill-opacity: 0.75; stroke: #ffffff; stroke-width: 0.469697; stroke-linejoin: miter"/>
   </g>
   <g id="patch_85">
    <path d="M 315.925443 354.465 
L 317.06578 354.465 
L 317.06578 307.86419 
L 315.925443 307.86419 
z
" clip-path="url(#p2e44ab0a12)" style="fill: #0173b2; fill-opacity: 0.75; stroke: #ffffff; stroke-width: 0.469697; stroke-linejoin: miter"/>
   </g>
   <g id="patch_86">
    <path d="M 317.06578 354.465 
L 318.206117 354.465 
L 318.206117 317.697389 
L 317.06578 317.697389 
z
" clip-path="url(#p2e44ab0a12)" style="fill: #0173b2; fill-opacity: 0.75; stroke: #ffffff; stroke-width: 0.469697; stroke-linejoin: miter"/>
   </g>
   <g id="patch_87">
    <path d="M 318.206117 354.465 
L 319.346453 354.465 
L 319.346453 325.6067 
L 318.206117 325.6067 
z
" clip-path="url(#p2e44ab0a12)" style="fill: #0173b2; fill-opacity: 0.75; stroke: #ffffff; stroke-width: 0.469697; stroke-linejoin: miter"/>
   </g>
   <g id="patch_88">
    <path d="M 319.346453 354.465 
L 320.48679 354.465 
L 320.48679 329.240709 
L 319.346453 329.240709 
z
" clip-path="url(#p2e44ab0a12)" style="fill: #0173b2; fill-opacity: 0.75; stroke: #ffffff; stroke-width: 0.469697; stroke-linejoin: miter"/>
   </g>
   <g id="patch_89">
    <path d="M 320.48679 354.465 
L 321.627127 354.465 
L 321.627127 329.668239 
L 320.48679 329.668239 
z
" clip-path="url(#p2e44ab0a12)" style="fill: #0173b2; fill-opacity: 0.75; stroke: #ffffff; stroke-width: 0.469697; stroke-linejoin: miter"/>
   </g>
   <g id="patch_90">
    <path d="M 321.627127 354.465 
L 322.767464 354.465 
L 322.767464 336.72249 
L 321.627127 336.72249 
z
" clip-path="url(#p2e44ab0a12)" style="fill: #0173b2; fill-opacity: 0.75; stroke: #ffffff; stroke-width: 0.469697; stroke-linejoin: miter"/>
   </g>
   <g id="patch_91">
    <path d="M 322.767464 354.465 
L 323.907801 354.465 
L 323.907801 338.860142 
L 322.767464 338.860142 
z
" clip-path="url(#p2e44ab0a12)" style="fill: #0173b2; fill-opacity: 0.75; stroke: #ffffff; stroke-width: 0.469697; stroke-linejoin: miter"/>
   </g>
   <g id="patch_92">
    <path d="M 323.907801 354.465 
L 325.048137 354.465 
L 325.048137 339.501437 
L 323.907801 339.501437 
z
" clip-path="url(#p2e44ab0a12)" style="fill: #0173b2; fill-opacity: 0.75; stroke: #ffffff; stroke-width: 0.469697; stroke-linejoin: miter"/>
   </g>
   <g id="patch_93">
    <path d="M 325.048137 354.465 
L 326.188474 354.465 
L 326.188474 344.418036 
L 325.048137 344.418036 
z
" clip-path="url(#p2e44ab0a12)" style="fill: #0173b2; fill-opacity: 0.75; stroke: #ffffff; stroke-width: 0.469697; stroke-linejoin: miter"/>
   </g>
   <g id="patch_94">
    <path d="M 326.188474 354.465 
L 327.328811 354.465 
L 327.328811 348.479575 
L 326.188474 348.479575 
z
" clip-path="url(#p2e44ab0a12)" style="fill: #0173b2; fill-opacity: 0.75; stroke: #ffffff; stroke-width: 0.469697; stroke-linejoin: miter"/>
   </g>
   <g id="patch_95">
    <path d="M 327.328811 354.465 
L 328.469148 354.465 
L 328.469148 348.479575 
L 327.328811 348.479575 
z
" clip-path="url(#p2e44ab0a12)" style="fill: #0173b2; fill-opacity: 0.75; stroke: #ffffff; stroke-width: 0.469697; stroke-linejoin: miter"/>
   </g>
   <g id="patch_96">
    <path d="M 328.469148 354.465 
L 329.609485 354.465 
L 329.609485 349.762166 
L 328.469148 349.762166 
z
" clip-path="url(#p2e44ab0a12)" style="fill: #0173b2; fill-opacity: 0.75; stroke: #ffffff; stroke-width: 0.469697; stroke-linejoin: miter"/>
   </g>
   <g id="patch_97">
    <path d="M 329.609485 354.465 
L 330.749822 354.465 
L 330.749822 351.044757 
L 329.609485 351.044757 
z
" clip-path="url(#p2e44ab0a12)" style="fill: #0173b2; fill-opacity: 0.75; stroke: #ffffff; stroke-width: 0.469697; stroke-linejoin: miter"/>
   </g>
   <g id="patch_98">
    <path d="M 330.749822 354.465 
L 331.890158 354.465 
L 331.890158 352.113583 
L 330.749822 352.113583 
z
" clip-path="url(#p2e44ab0a12)" style="fill: #0173b2; fill-opacity: 0.75; stroke: #ffffff; stroke-width: 0.469697; stroke-linejoin: miter"/>
   </g>
   <g id="patch_99">
    <path d="M 331.890158 354.465 
L 333.030495 354.465 
L 333.030495 351.686053 
L 331.890158 351.686053 
z
" clip-path="url(#p2e44ab0a12)" style="fill: #0173b2; fill-opacity: 0.75; stroke: #ffffff; stroke-width: 0.469697; stroke-linejoin: miter"/>
   </g>
   <g id="patch_100">
    <path d="M 333.030495 354.465 
L 334.170832 354.465 
L 334.170832 353.609939 
L 333.030495 353.609939 
z
" clip-path="url(#p2e44ab0a12)" style="fill: #0173b2; fill-opacity: 0.75; stroke: #ffffff; stroke-width: 0.469697; stroke-linejoin: miter"/>
   </g>
   <g id="patch_101">
    <path d="M 334.170832 354.465 
L 335.311169 354.465 
L 335.311169 352.754879 
L 334.170832 352.754879 
z
" clip-path="url(#p2e44ab0a12)" style="fill: #0173b2; fill-opacity: 0.75; stroke: #ffffff; stroke-width: 0.469697; stroke-linejoin: miter"/>
   </g>
   <g id="patch_102">
    <path d="M 335.311169 354.465 
L 336.451506 354.465 
L 336.451506 353.609939 
L 335.311169 353.609939 
z
" clip-path="url(#p2e44ab0a12)" style="fill: #0173b2; fill-opacity: 0.75; stroke: #ffffff; stroke-width: 0.469697; stroke-linejoin: miter"/>
   </g>
   <g id="patch_103">
    <path d="M 336.451506 354.465 
L 337.591842 354.465 
L 337.591842 354.251235 
L 336.451506 354.251235 
z
" clip-path="url(#p2e44ab0a12)" style="fill: #0173b2; fill-opacity: 0.75; stroke: #ffffff; stroke-width: 0.469697; stroke-linejoin: miter"/>
   </g>
   <g id="patch_104">
    <path d="M 337.591842 354.465 
L 338.732179 354.465 
L 338.732179 354.03747 
L 337.591842 354.03747 
z
" clip-path="url(#p2e44ab0a12)" style="fill: #0173b2; fill-opacity: 0.75; stroke: #ffffff; stroke-width: 0.469697; stroke-linejoin: miter"/>
   </g>
   <g id="patch_105">
    <path d="M 338.732179 354.465 
L 339.872516 354.465 
L 339.872516 354.251235 
L 338.732179 354.251235 
z
" clip-path="url(#p2e44ab0a12)" style="fill: #0173b2; fill-opacity: 0.75; stroke: #ffffff; stroke-width: 0.469697; stroke-linejoin: miter"/>
   </g>
   <g id="patch_106">
    <path d="M 339.872516 354.465 
L 341.012853 354.465 
L 341.012853 354.03747 
L 339.872516 354.03747 
z
" clip-path="url(#p2e44ab0a12)" style="fill: #0173b2; fill-opacity: 0.75; stroke: #ffffff; stroke-width: 0.469697; stroke-linejoin: miter"/>
   </g>
   <g id="patch_107">
    <path d="M 341.012853 354.465 
L 342.15319 354.465 
L 342.15319 354.251235 
L 341.012853 354.251235 
z
" clip-path="url(#p2e44ab0a12)" style="fill: #0173b2; fill-opacity: 0.75; stroke: #ffffff; stroke-width: 0.469697; stroke-linejoin: miter"/>
   </g>
   <g id="patch_108">
    <path d="M 342.15319 354.465 
L 343.293526 354.465 
L 343.293526 354.251235 
L 342.15319 354.251235 
z
" clip-path="url(#p2e44ab0a12)" style="fill: #0173b2; fill-opacity: 0.75; stroke: #ffffff; stroke-width: 0.469697; stroke-linejoin: miter"/>
   </g>
   <g id="patch_109">
    <path d="M 343.293526 354.465 
L 344.433863 354.465 
L 344.433863 354.465 
L 343.293526 354.465 
z
" clip-path="url(#p2e44ab0a12)" style="fill: #0173b2; fill-opacity: 0.75; stroke: #ffffff; stroke-width: 0.469697; stroke-linejoin: miter"/>
   </g>
   <g id="patch_110">
    <path d="M 344.433863 354.465 
L 345.5742 354.465 
L 345.5742 354.251235 
L 344.433863 354.251235 
z
" clip-path="url(#p2e44ab0a12)" style="fill: #0173b2; fill-opacity: 0.75; stroke: #ffffff; stroke-width: 0.469697; stroke-linejoin: miter"/>
   </g>
   <g id="patch_111">
    <path d="M 7.2 354.465 
L 7.2 21.825 
" style="fill: none; stroke: #ffffff; stroke-width: 1.25; stroke-linejoin: miter; stroke-linecap: square"/>
   </g>
   <g id="patch_112">
    <path d="M 7.2 354.465 
L 565.2 354.465 
" style="fill: none; stroke: #ffffff; stroke-width: 1.25; stroke-linejoin: miter; stroke-linecap: square"/>
   </g>
   <g id="text_9">
    <!-- Ampiezza campionaria = 30 -->
    <g style="fill: #262626" transform="translate(211.997813 15.825) scale(0.12 -0.12)">
     <defs>
      <path id="ArialMT-41" d="M -9 0 
L 1750 4581 
L 2403 4581 
L 4278 0 
L 3588 0 
L 3053 1388 
L 1138 1388 
L 634 0 
L -9 0 
z
M 1313 1881 
L 2866 1881 
L 2388 3150 
Q 2169 3728 2063 4100 
Q 1975 3659 1816 3225 
L 1313 1881 
z
" transform="scale(0.015625)"/>
      <path id="ArialMT-6d" d="M 422 0 
L 422 3319 
L 925 3319 
L 925 2853 
Q 1081 3097 1340 3245 
Q 1600 3394 1931 3394 
Q 2300 3394 2536 3241 
Q 2772 3088 2869 2813 
Q 3263 3394 3894 3394 
Q 4388 3394 4653 3120 
Q 4919 2847 4919 2278 
L 4919 0 
L 4359 0 
L 4359 2091 
Q 4359 2428 4304 2576 
Q 4250 2725 4106 2815 
Q 3963 2906 3769 2906 
Q 3419 2906 3187 2673 
Q 2956 2441 2956 1928 
L 2956 0 
L 2394 0 
L 2394 2156 
Q 2394 2531 2256 2718 
Q 2119 2906 1806 2906 
Q 1569 2906 1367 2781 
Q 1166 2656 1075 2415 
Q 984 2175 984 1722 
L 984 0 
L 422 0 
z
" transform="scale(0.015625)"/>
      <path id="ArialMT-70" d="M 422 -1272 
L 422 3319 
L 934 3319 
L 934 2888 
Q 1116 3141 1344 3267 
Q 1572 3394 1897 3394 
Q 2322 3394 2647 3175 
Q 2972 2956 3137 2557 
Q 3303 2159 3303 1684 
Q 3303 1175 3120 767 
Q 2938 359 2589 142 
Q 2241 -75 1856 -75 
Q 1575 -75 1351 44 
Q 1128 163 984 344 
L 984 -1272 
L 422 -1272 
z
M 931 1641 
Q 931 1000 1190 694 
Q 1450 388 1819 388 
Q 2194 388 2461 705 
Q 2728 1022 2728 1688 
Q 2728 2322 2467 2637 
Q 2206 2953 1844 2953 
Q 1484 2953 1207 2617 
Q 931 2281 931 1641 
z
" transform="scale(0.015625)"/>
      <path id="ArialMT-69" d="M 425 3934 
L 425 4581 
L 988 4581 
L 988 3934 
L 425 3934 
z
M 425 0 
L 425 3319 
L 988 3319 
L 988 0 
L 425 0 
z
" transform="scale(0.015625)"/>
      <path id="ArialMT-65" d="M 2694 1069 
L 3275 997 
Q 3138 488 2766 206 
Q 2394 -75 1816 -75 
Q 1088 -75 661 373 
Q 234 822 234 1631 
Q 234 2469 665 2931 
Q 1097 3394 1784 3394 
Q 2450 3394 2872 2941 
Q 3294 2488 3294 1666 
Q 3294 1616 3291 1516 
L 816 1516 
Q 847 969 1125 678 
Q 1403 388 1819 388 
Q 2128 388 2347 550 
Q 2566 713 2694 1069 
z
M 847 1978 
L 2700 1978 
Q 2663 2397 2488 2606 
Q 2219 2931 1791 2931 
Q 1403 2931 1139 2672 
Q 875 2413 847 1978 
z
" transform="scale(0.015625)"/>
      <path id="ArialMT-7a" d="M 125 0 
L 125 456 
L 2238 2881 
Q 1878 2863 1603 2863 
L 250 2863 
L 250 3319 
L 2963 3319 
L 2963 2947 
L 1166 841 
L 819 456 
Q 1197 484 1528 484 
L 3063 484 
L 3063 0 
L 125 0 
z
" transform="scale(0.015625)"/>
      <path id="ArialMT-61" d="M 2588 409 
Q 2275 144 1986 34 
Q 1697 -75 1366 -75 
Q 819 -75 525 192 
Q 231 459 231 875 
Q 231 1119 342 1320 
Q 453 1522 633 1644 
Q 813 1766 1038 1828 
Q 1203 1872 1538 1913 
Q 2219 1994 2541 2106 
Q 2544 2222 2544 2253 
Q 2544 2597 2384 2738 
Q 2169 2928 1744 2928 
Q 1347 2928 1158 2789 
Q 969 2650 878 2297 
L 328 2372 
Q 403 2725 575 2942 
Q 747 3159 1072 3276 
Q 1397 3394 1825 3394 
Q 2250 3394 2515 3294 
Q 2781 3194 2906 3042 
Q 3031 2891 3081 2659 
Q 3109 2516 3109 2141 
L 3109 1391 
Q 3109 606 3145 398 
Q 3181 191 3288 0 
L 2700 0 
Q 2613 175 2588 409 
z
M 2541 1666 
Q 2234 1541 1622 1453 
Q 1275 1403 1131 1340 
Q 988 1278 909 1158 
Q 831 1038 831 891 
Q 831 666 1001 516 
Q 1172 366 1500 366 
Q 1825 366 2078 508 
Q 2331 650 2450 897 
Q 2541 1088 2541 1459 
L 2541 1666 
z
" transform="scale(0.015625)"/>
      <path id="ArialMT-20" transform="scale(0.015625)"/>
      <path id="ArialMT-63" d="M 2588 1216 
L 3141 1144 
Q 3050 572 2676 248 
Q 2303 -75 1759 -75 
Q 1078 -75 664 370 
Q 250 816 250 1647 
Q 250 2184 428 2587 
Q 606 2991 970 3192 
Q 1334 3394 1763 3394 
Q 2303 3394 2647 3120 
Q 2991 2847 3088 2344 
L 2541 2259 
Q 2463 2594 2264 2762 
Q 2066 2931 1784 2931 
Q 1359 2931 1093 2626 
Q 828 2322 828 1663 
Q 828 994 1084 691 
Q 1341 388 1753 388 
Q 2084 388 2306 591 
Q 2528 794 2588 1216 
z
" transform="scale(0.015625)"/>
      <path id="ArialMT-6f" d="M 213 1659 
Q 213 2581 725 3025 
Q 1153 3394 1769 3394 
Q 2453 3394 2887 2945 
Q 3322 2497 3322 1706 
Q 3322 1066 3130 698 
Q 2938 331 2570 128 
Q 2203 -75 1769 -75 
Q 1072 -75 642 372 
Q 213 819 213 1659 
z
M 791 1659 
Q 791 1022 1069 705 
Q 1347 388 1769 388 
Q 2188 388 2466 706 
Q 2744 1025 2744 1678 
Q 2744 2294 2464 2611 
Q 2184 2928 1769 2928 
Q 1347 2928 1069 2612 
Q 791 2297 791 1659 
z
" transform="scale(0.015625)"/>
      <path id="ArialMT-6e" d="M 422 0 
L 422 3319 
L 928 3319 
L 928 2847 
Q 1294 3394 1984 3394 
Q 2284 3394 2536 3286 
Q 2788 3178 2913 3003 
Q 3038 2828 3088 2588 
Q 3119 2431 3119 2041 
L 3119 0 
L 2556 0 
L 2556 2019 
Q 2556 2363 2490 2533 
Q 2425 2703 2258 2804 
Q 2091 2906 1866 2906 
Q 1506 2906 1245 2678 
Q 984 2450 984 1813 
L 984 0 
L 422 0 
z
" transform="scale(0.015625)"/>
      <path id="ArialMT-72" d="M 416 0 
L 416 3319 
L 922 3319 
L 922 2816 
Q 1116 3169 1280 3281 
Q 1444 3394 1641 3394 
Q 1925 3394 2219 3213 
L 2025 2691 
Q 1819 2813 1613 2813 
Q 1428 2813 1281 2702 
Q 1134 2591 1072 2394 
Q 978 2094 978 1738 
L 978 0 
L 416 0 
z
" transform="scale(0.015625)"/>
      <path id="ArialMT-3d" d="M 3381 2694 
L 356 2694 
L 356 3219 
L 3381 3219 
L 3381 2694 
z
M 3381 1303 
L 356 1303 
L 356 1828 
L 3381 1828 
L 3381 1303 
z
" transform="scale(0.015625)"/>
      <path id="ArialMT-33" d="M 269 1209 
L 831 1284 
Q 928 806 1161 595 
Q 1394 384 1728 384 
Q 2125 384 2398 659 
Q 2672 934 2672 1341 
Q 2672 1728 2419 1979 
Q 2166 2231 1775 2231 
Q 1616 2231 1378 2169 
L 1441 2663 
Q 1497 2656 1531 2656 
Q 1891 2656 2178 2843 
Q 2466 3031 2466 3422 
Q 2466 3731 2256 3934 
Q 2047 4138 1716 4138 
Q 1388 4138 1169 3931 
Q 950 3725 888 3313 
L 325 3413 
Q 428 3978 793 4289 
Q 1159 4600 1703 4600 
Q 2078 4600 2393 4439 
Q 2709 4278 2876 4000 
Q 3044 3722 3044 3409 
Q 3044 3113 2884 2869 
Q 2725 2625 2413 2481 
Q 2819 2388 3044 2092 
Q 3269 1797 3269 1353 
Q 3269 753 2831 336 
Q 2394 -81 1725 -81 
Q 1122 -81 723 278 
Q 325 638 269 1209 
z
" transform="scale(0.015625)"/>
     </defs>
     <use xlink:href="#ArialMT-41"/>
     <use xlink:href="#ArialMT-6d" x="66.699219"/>
     <use xlink:href="#ArialMT-70" x="150"/>
     <use xlink:href="#ArialMT-69" x="205.615234"/>
     <use xlink:href="#ArialMT-65" x="227.832031"/>
     <use xlink:href="#ArialMT-7a" x="283.447266"/>
     <use xlink:href="#ArialMT-7a" x="333.447266"/>
     <use xlink:href="#ArialMT-61" x="383.447266"/>
     <use xlink:href="#ArialMT-20" x="439.0625"/>
     <use xlink:href="#ArialMT-63" x="466.845703"/>
     <use xlink:href="#ArialMT-61" x="516.845703"/>
     <use xlink:href="#ArialMT-6d" x="572.460938"/>
     <use xlink:href="#ArialMT-70" x="655.761719"/>
     <use xlink:href="#ArialMT-69" x="711.376953"/>
     <use xlink:href="#ArialMT-6f" x="733.59375"/>
     <use xlink:href="#ArialMT-6e" x="789.208984"/>
     <use xlink:href="#ArialMT-61" x="844.824219"/>
     <use xlink:href="#ArialMT-72" x="900.439453"/>
     <use xlink:href="#ArialMT-69" x="933.740234"/>
     <use xlink:href="#ArialMT-61" x="955.957031"/>
     <use xlink:href="#ArialMT-20" x="1011.572266"/>
     <use xlink:href="#ArialMT-3d" x="1039.355469"/>
     <use xlink:href="#ArialMT-20" x="1097.753906"/>
     <use xlink:href="#ArialMT-33" x="1125.537109"/>
     <use xlink:href="#ArialMT-30" x="1181.152344"/>
    </g>
   </g>
  </g>
  <g id="axes_2">
   <g id="matplotlib.axis_3">
    <g id="ytick_9">
     <g id="line2d_17">
      <path d="M 7.2 339.345 
L 565.2 339.345 
" clip-path="url(#p2e44ab0a12)" style="fill: none; stroke: #ffffff; stroke-linecap: round"/>
     </g>
    </g>
    <g id="ytick_10">
     <g id="line2d_18">
      <path d="M 7.2 273.201548 
L 565.2 273.201548 
" clip-path="url(#p2e44ab0a12)" style="fill: none; stroke: #ffffff; stroke-linecap: round"/>
     </g>
    </g>
    <g id="ytick_11">
     <g id="line2d_19">
      <path d="M 7.2 207.058097 
L 565.2 207.058097 
" clip-path="url(#p2e44ab0a12)" style="fill: none; stroke: #ffffff; stroke-linecap: round"/>
     </g>
    </g>
    <g id="ytick_12">
     <g id="line2d_20">
      <path d="M 7.2 140.914645 
L 565.2 140.914645 
" clip-path="url(#p2e44ab0a12)" style="fill: none; stroke: #ffffff; stroke-linecap: round"/>
     </g>
    </g>
    <g id="ytick_13">
     <g id="line2d_21">
      <path d="M 7.2 74.771193 
L 565.2 74.771193 
" clip-path="url(#p2e44ab0a12)" style="fill: none; stroke: #ffffff; stroke-linecap: round"/>
     </g>
    </g>
   </g>
   <g id="PolyCollection_1"/>
   <g id="line2d_22">
    <path d="M 32.563636 339.345 
L 37.687603 339.345 
L 42.81157 339.345 
L 47.935537 339.345 
L 53.059504 339.345 
L 58.183471 339.345 
L 63.307438 339.345 
L 68.431405 339.345 
L 73.555372 339.345 
L 78.679339 339.345 
L 83.803306 339.345 
L 88.927273 339.345 
L 94.05124 339.345 
L 99.175207 339.345 
L 104.299174 339.345 
L 109.42314 339.345 
L 114.547107 339.345 
L 119.671074 339.345 
L 124.795041 339.345 
L 129.919008 339.345 
L 135.042975 339.345 
L 140.166942 339.345 
L 145.290909 339.345 
L 150.414876 339.345 
L 155.538843 339.345 
L 160.66281 339.345 
L 165.786777 339.345 
L 170.910744 339.345 
L 176.034711 339.345 
L 181.158678 339.345 
L 186.282645 339.345 
L 191.406612 339.344998 
L 196.530579 339.344986 
L 201.654545 339.344906 
L 206.778512 339.344453 
L 211.902479 339.342144 
L 217.026446 339.331644 
L 222.150413 339.28905 
L 227.27438 339.135069 
L 232.398347 338.639505 
L 237.522314 337.221485 
L 242.646281 333.620195 
L 247.770248 325.521761 
L 252.894215 309.449707 
L 258.018182 281.436853 
L 263.142149 238.878708 
L 268.266116 183.22989 
L 273.390083 122.068197 
L 278.51405 68.496992 
L 283.638017 36.945 
L 288.761983 36.945 
L 293.88595 68.496992 
L 299.009917 122.068197 
L 304.133884 183.22989 
L 309.257851 238.878708 
L 314.381818 281.436853 
L 319.505785 309.449707 
L 324.629752 325.521761 
L 329.753719 333.620195 
L 334.877686 337.221485 
L 340.001653 338.639505 
L 345.12562 339.135069 
L 350.249587 339.28905 
L 355.373554 339.331644 
L 360.497521 339.342144 
L 365.621488 339.344453 
L 370.745455 339.344906 
L 375.869421 339.344986 
L 380.993388 339.344998 
L 386.117355 339.345 
L 391.241322 339.345 
L 396.365289 339.345 
L 401.489256 339.345 
L 406.613223 339.345 
L 411.73719 339.345 
L 416.861157 339.345 
L 421.985124 339.345 
L 427.109091 339.345 
L 432.233058 339.345 
L 437.357025 339.345 
L 442.480992 339.345 
L 447.604959 339.345 
L 452.728926 339.345 
L 457.852893 339.345 
L 462.97686 339.345 
L 468.100826 339.345 
L 473.224793 339.345 
L 478.34876 339.345 
L 483.472727 339.345 
L 488.596694 339.345 
L 493.720661 339.345 
L 498.844628 339.345 
L 503.968595 339.345 
L 509.092562 339.345 
L 514.216529 339.345 
L 519.340496 339.345 
L 524.464463 339.345 
L 529.58843 339.345 
L 534.712397 339.345 
L 539.836364 339.345 
" clip-path="url(#p2e44ab0a12)" style="fill: none; stroke: #000000; stroke-width: 1.5; stroke-linecap: round"/>
   </g>
   <g id="patch_113">
    <path d="M 7.2 354.465 
L 7.2 21.825 
" style="fill: none; stroke: #ffffff; stroke-width: 1.25; stroke-linejoin: miter; stroke-linecap: square"/>
   </g>
   <g id="patch_114">
    <path d="M 7.2 354.465 
L 565.2 354.465 
" style="fill: none; stroke: #ffffff; stroke-width: 1.25; stroke-linejoin: miter; stroke-linecap: square"/>
   </g>
  </g>
 </g>
 <defs>
  <clipPath id="p2e44ab0a12">
   <rect x="7.2" y="21.825" width="558" height="332.64"/>
  </clipPath>
 </defs>
</svg>