<?xml version="1.0" encoding="utf-8" standalone="no"?>
<!DOCTYPE svg PUBLIC "-//W3C//DTD SVG 1.1//EN"
  "http://www.w3.org/Graphics/SVG/1.1/DTD/svg11.dtd">
<svg xmlns:xlink="http://www.w3.org/1999/xlink" width="572.4pt" height="378.189219pt" viewBox="0 0 572.4 378.189219" xmlns="http://www.w3.org/2000/svg" version="1.1">
 <metadata>
  <rdf:RDF xmlns:dc="http://purl.org/dc/elements/1.1/" xmlns:cc="http://creativecommons.org/ns#" xmlns:rdf="http://www.w3.org/1999/02/22-rdf-syntax-ns#">
   <cc:Work>
    <dc:type rdf:resource="http://purl.org/dc/dcmitype/StillImage"/>
    <dc:date>2023-05-29T12:01:09.434199</dc:date>
    <dc:format>image/svg+xml</dc:format>
    <dc:creator>
     <cc:Agent>
      <dc:title>Matplotlib v3.7.1, https://matplotlib.org/</dc:title>
     </cc:Agent>
    </dc:creator>
   </cc:Work>
  </rdf:RDF>
 </metadata>
 <defs>
  <style type="text/css">*{stroke-linejoin: round; stroke-linecap: butt}</style>
 </defs>
 <g id="figure_1">
  <g id="patch_1">
   <path d="M 0 378.189219 
L 572.4 378.189219 
L 572.4 0 
L 0 0 
z
" style="fill: #ffffff"/>
  </g>
  <g id="axes_1">
   <g id="patch_2">
    <path d="M 7.2 354.429375 
L 565.2 354.429375 
L 565.2 21.789375 
L 7.2 21.789375 
z
" style="fill: #eaeaf2"/>
   </g>
   <g id="matplotlib.axis_1">
    <g id="xtick_1">
     <g id="line2d_1">
      <path d="M 114.69237 354.429375 
L 114.69237 21.789375 
" clip-path="url(#p433f980a37)" style="fill: none; stroke: #ffffff; stroke-linecap: round"/>
     </g>
     <g id="line2d_2">
      <defs>
       <path id="m112ac78822" d="M 0 0 
L 0 3 
" style="stroke: #808080"/>
      </defs>
      <g>
       <use xlink:href="#m112ac78822" x="114.69237" y="354.429375" style="fill: #808080; stroke: #808080"/>
      </g>
     </g>
     <g id="text_1">
      <!-- 5 -->
      <g style="fill: #262626" transform="translate(111.633855 368.802969) scale(0.11 -0.11)">
       <defs>
        <path id="ArialMT-35" d="M 266 1200 
L 856 1250 
Q 922 819 1161 601 
Q 1400 384 1738 384 
Q 2144 384 2425 690 
Q 2706 997 2706 1503 
Q 2706 1984 2436 2262 
Q 2166 2541 1728 2541 
Q 1456 2541 1237 2417 
Q 1019 2294 894 2097 
L 366 2166 
L 809 4519 
L 3088 4519 
L 3088 3981 
L 1259 3981 
L 1013 2750 
Q 1425 3038 1878 3038 
Q 2478 3038 2890 2622 
Q 3303 2206 3303 1553 
Q 3303 931 2941 478 
Q 2500 -78 1738 -78 
Q 1113 -78 717 272 
Q 322 622 266 1200 
z
" transform="scale(0.015625)"/>
       </defs>
       <use xlink:href="#ArialMT-35"/>
      </g>
     </g>
    </g>
    <g id="xtick_2">
     <g id="line2d_3">
      <path d="M 230.815998 354.429375 
L 230.815998 21.789375 
" clip-path="url(#p433f980a37)" style="fill: none; stroke: #ffffff; stroke-linecap: round"/>
     </g>
     <g id="line2d_4">
      <g>
       <use xlink:href="#m112ac78822" x="230.815998" y="354.429375" style="fill: #808080; stroke: #808080"/>
      </g>
     </g>
     <g id="text_2">
      <!-- 10 -->
      <g style="fill: #262626" transform="translate(224.698967 368.802969) scale(0.11 -0.11)">
       <defs>
        <path id="ArialMT-31" d="M 2384 0 
L 1822 0 
L 1822 3584 
Q 1619 3391 1289 3197 
Q 959 3003 697 2906 
L 697 3450 
Q 1169 3672 1522 3987 
Q 1875 4303 2022 4600 
L 2384 4600 
L 2384 0 
z
" transform="scale(0.015625)"/>
        <path id="ArialMT-30" d="M 266 2259 
Q 266 3072 433 3567 
Q 600 4063 929 4331 
Q 1259 4600 1759 4600 
Q 2128 4600 2406 4451 
Q 2684 4303 2865 4023 
Q 3047 3744 3150 3342 
Q 3253 2941 3253 2259 
Q 3253 1453 3087 958 
Q 2922 463 2592 192 
Q 2263 -78 1759 -78 
Q 1097 -78 719 397 
Q 266 969 266 2259 
z
M 844 2259 
Q 844 1131 1108 757 
Q 1372 384 1759 384 
Q 2147 384 2411 759 
Q 2675 1134 2675 2259 
Q 2675 3391 2411 3762 
Q 2147 4134 1753 4134 
Q 1366 4134 1134 3806 
Q 844 3388 844 2259 
z
" transform="scale(0.015625)"/>
       </defs>
       <use xlink:href="#ArialMT-31"/>
       <use xlink:href="#ArialMT-30" x="55.615234"/>
      </g>
     </g>
    </g>
    <g id="xtick_3">
     <g id="line2d_5">
      <path d="M 346.939627 354.429375 
L 346.939627 21.789375 
" clip-path="url(#p433f980a37)" style="fill: none; stroke: #ffffff; stroke-linecap: round"/>
     </g>
     <g id="line2d_6">
      <g>
       <use xlink:href="#m112ac78822" x="346.939627" y="354.429375" style="fill: #808080; stroke: #808080"/>
      </g>
     </g>
     <g id="text_3">
      <!-- 15 -->
      <g style="fill: #262626" transform="translate(340.822595 368.802969) scale(0.11 -0.11)">
       <use xlink:href="#ArialMT-31"/>
       <use xlink:href="#ArialMT-35" x="55.615234"/>
      </g>
     </g>
    </g>
    <g id="xtick_4">
     <g id="line2d_7">
      <path d="M 463.063255 354.429375 
L 463.063255 21.789375 
" clip-path="url(#p433f980a37)" style="fill: none; stroke: #ffffff; stroke-linecap: round"/>
     </g>
     <g id="line2d_8">
      <g>
       <use xlink:href="#m112ac78822" x="463.063255" y="354.429375" style="fill: #808080; stroke: #808080"/>
      </g>
     </g>
     <g id="text_4">
      <!-- 20 -->
      <g style="fill: #262626" transform="translate(456.946223 368.802969) scale(0.11 -0.11)">
       <defs>
        <path id="ArialMT-32" d="M 3222 541 
L 3222 0 
L 194 0 
Q 188 203 259 391 
Q 375 700 629 1000 
Q 884 1300 1366 1694 
Q 2113 2306 2375 2664 
Q 2638 3022 2638 3341 
Q 2638 3675 2398 3904 
Q 2159 4134 1775 4134 
Q 1369 4134 1125 3890 
Q 881 3647 878 3216 
L 300 3275 
Q 359 3922 746 4261 
Q 1134 4600 1788 4600 
Q 2447 4600 2831 4234 
Q 3216 3869 3216 3328 
Q 3216 3053 3103 2787 
Q 2991 2522 2730 2228 
Q 2469 1934 1863 1422 
Q 1356 997 1212 845 
Q 1069 694 975 541 
L 3222 541 
z
" transform="scale(0.015625)"/>
       </defs>
       <use xlink:href="#ArialMT-32"/>
       <use xlink:href="#ArialMT-30" x="55.615234"/>
      </g>
     </g>
    </g>
   </g>
   <g id="matplotlib.axis_2"/>
   <g id="PolyCollection_1">
    <defs>
     <path id="m5f6b9cd1de" d="M 32.563636 -38.879844 
L 32.563636 -40.112366 
L 33.556342 -40.132144 
L 34.549048 -40.170005 
L 35.541754 -40.232159 
L 36.53446 -40.312604 
L 37.527166 -40.410838 
L 38.519872 -40.547008 
L 39.512578 -40.707375 
L 40.505284 -40.889949 
L 41.49799 -41.106426 
L 42.490696 -41.361174 
L 43.483402 -41.656309 
L 44.476107 -41.995719 
L 45.468813 -42.374655 
L 46.461519 -42.805712 
L 47.454225 -43.301208 
L 48.446931 -43.854735 
L 49.439637 -44.454571 
L 50.432343 -45.131613 
L 51.425049 -45.865152 
L 52.417755 -46.661216 
L 53.410461 -47.519515 
L 54.403167 -48.462229 
L 55.395873 -49.464573 
L 56.388579 -50.531412 
L 57.381284 -51.668979 
L 58.37399 -52.867986 
L 59.366696 -54.117991 
L 60.359402 -55.440332 
L 61.352108 -56.814323 
L 62.344814 -58.228575 
L 63.33752 -59.688478 
L 64.330226 -61.195121 
L 65.322932 -62.721251 
L 66.315638 -64.300574 
L 67.308344 -65.895583 
L 68.30105 -67.512052 
L 69.293756 -69.151372 
L 70.286461 -70.804402 
L 71.279167 -72.46502 
L 72.271873 -74.137664 
L 73.264579 -75.839277 
L 74.257285 -77.549231 
L 75.249991 -79.3007 
L 76.242697 -81.089056 
L 77.235403 -82.931012 
L 78.228109 -84.799174 
L 79.220815 -86.733251 
L 80.213521 -88.742384 
L 81.206227 -90.855582 
L 82.198933 -93.073299 
L 83.191638 -95.421446 
L 84.184344 -97.883435 
L 85.17705 -100.482347 
L 86.169756 -103.246214 
L 87.162462 -106.144222 
L 88.155168 -109.219099 
L 89.147874 -112.466366 
L 90.14058 -115.87592 
L 91.133286 -119.444123 
L 92.125992 -123.147938 
L 93.118698 -126.981855 
L 94.111404 -130.93364 
L 95.10411 -135.028667 
L 96.096816 -139.181188 
L 97.089521 -143.426259 
L 98.082227 -147.717109 
L 99.074933 -152.068876 
L 100.067639 -156.458391 
L 101.060345 -160.861725 
L 102.053051 -165.292456 
L 103.045757 -169.730525 
L 104.038463 -174.14523 
L 105.031169 -178.567764 
L 106.023875 -182.984152 
L 107.016581 -187.381363 
L 108.009287 -191.736465 
L 109.001993 -196.067668 
L 109.994698 -200.386707 
L 110.987404 -204.675157 
L 111.98011 -208.879123 
L 112.972816 -213.048291 
L 113.965522 -217.169563 
L 114.958228 -221.181374 
L 115.950934 -225.141209 
L 116.94364 -228.999869 
L 117.936346 -232.750944 
L 118.929052 -236.35715 
L 119.921758 -239.845082 
L 120.914464 -243.210361 
L 121.90717 -246.419344 
L 122.899875 -249.513963 
L 123.892581 -252.458778 
L 124.885287 -255.258198 
L 125.877993 -257.924925 
L 126.870699 -260.439317 
L 127.863405 -262.852416 
L 128.856111 -265.177404 
L 129.848817 -267.356599 
L 130.841523 -269.482351 
L 131.834229 -271.531025 
L 132.826935 -273.553389 
L 133.819641 -275.461112 
L 134.812347 -277.341076 
L 135.805052 -279.168142 
L 136.797758 -280.978785 
L 137.790464 -282.766217 
L 138.78317 -284.588865 
L 139.775876 -286.370958 
L 140.768582 -288.14836 
L 141.761288 -289.946731 
L 142.753994 -291.720519 
L 143.7467 -293.516749 
L 144.739406 -295.398172 
L 145.732112 -297.270339 
L 146.724818 -299.157636 
L 147.717524 -301.067899 
L 148.710229 -302.972607 
L 149.702935 -304.908392 
L 150.695641 -306.848012 
L 151.688347 -308.798904 
L 152.681053 -310.788393 
L 153.673759 -312.724165 
L 154.666465 -314.652075 
L 155.659171 -316.55101 
L 156.651877 -318.456514 
L 157.644583 -320.279833 
L 158.637289 -322.076259 
L 159.629995 -323.799125 
L 160.622701 -325.432378 
L 161.615407 -327.01252 
L 162.608112 -328.515716 
L 163.600818 -329.942149 
L 164.593524 -331.305441 
L 165.58623 -332.578419 
L 166.578936 -333.787712 
L 167.571642 -334.929893 
L 168.564348 -335.991009 
L 169.557054 -336.973478 
L 170.54976 -337.85926 
L 171.542466 -338.647637 
L 172.535172 -339.359467 
L 173.527878 -339.947829 
L 174.520584 -340.45965 
L 175.513289 -340.84067 
L 176.505995 -341.131187 
L 177.498701 -341.279844 
L 178.491407 -341.260425 
L 179.484113 -341.123463 
L 180.476819 -340.835925 
L 181.469525 -340.353734 
L 182.462231 -339.760481 
L 183.454937 -338.988046 
L 184.447643 -338.095166 
L 185.440349 -337.058027 
L 186.433055 -335.896945 
L 187.425761 -334.618548 
L 188.418466 -333.202234 
L 189.411172 -331.682897 
L 190.403878 -330.123555 
L 191.396584 -328.467658 
L 192.38929 -326.734619 
L 193.381996 -324.927842 
L 194.374702 -323.103232 
L 195.367408 -321.228806 
L 196.360114 -319.325686 
L 197.35282 -317.401818 
L 198.345526 -315.44579 
L 199.338232 -313.440884 
L 200.330938 -311.445238 
L 201.323643 -309.426217 
L 202.316349 -307.352894 
L 203.309055 -305.272917 
L 204.301761 -303.158176 
L 205.294467 -300.952323 
L 206.287173 -298.768906 
L 207.279879 -296.561433 
L 208.272585 -294.301377 
L 209.265291 -291.996452 
L 210.257997 -289.648346 
L 211.250703 -287.284486 
L 212.243409 -284.914651 
L 213.236115 -282.479464 
L 214.22882 -280.083085 
L 215.221526 -277.665293 
L 216.214232 -275.199588 
L 217.206938 -272.748775 
L 218.199644 -270.317114 
L 219.19235 -267.865705 
L 220.185056 -265.40794 
L 221.177762 -263.012916 
L 222.170468 -260.596642 
L 223.163174 -258.188815 
L 224.15588 -255.798461 
L 225.148586 -253.406607 
L 226.141292 -251.000839 
L 227.133998 -248.587474 
L 228.126703 -246.153416 
L 229.119409 -243.722864 
L 230.112115 -241.265194 
L 231.104821 -238.801183 
L 232.097527 -236.289511 
L 233.090233 -233.766392 
L 234.082939 -231.213079 
L 235.075645 -228.579819 
L 236.068351 -225.972301 
L 237.061057 -223.307054 
L 238.053763 -220.684321 
L 239.046469 -218.100242 
L 240.039175 -215.493533 
L 241.03188 -212.907943 
L 242.024586 -210.368904 
L 243.017292 -207.847349 
L 244.009998 -205.385846 
L 245.002704 -202.965973 
L 245.99541 -200.606877 
L 246.988116 -198.29119 
L 247.980822 -196.014919 
L 248.973528 -193.816303 
L 249.966234 -191.637517 
L 250.95894 -189.459559 
L 251.951646 -187.297764 
L 252.944352 -185.176761 
L 253.937057 -183.080015 
L 254.929763 -180.983925 
L 255.922469 -178.874843 
L 256.915175 -176.754111 
L 257.907881 -174.635049 
L 258.900587 -172.525439 
L 259.893293 -170.439973 
L 260.885999 -168.370282 
L 261.878705 -166.334272 
L 262.871411 -164.340488 
L 263.864117 -162.391332 
L 264.856823 -160.501934 
L 265.849529 -158.695701 
L 266.842234 -156.959425 
L 267.83494 -155.295427 
L 268.827646 -153.738131 
L 269.820352 -152.255332 
L 270.813058 -150.838834 
L 271.805764 -149.466334 
L 272.79847 -148.118358 
L 273.791176 -146.857226 
L 274.783882 -145.59586 
L 275.776588 -144.345335 
L 276.769294 -143.126943 
L 277.762 -141.858992 
L 278.754706 -140.573455 
L 279.747411 -139.25077 
L 280.740117 -137.878304 
L 281.732823 -136.422178 
L 282.725529 -134.916269 
L 283.718235 -133.32525 
L 284.710941 -131.674572 
L 285.703647 -129.980208 
L 286.696353 -128.245767 
L 287.689059 -126.437836 
L 288.681765 -124.604014 
L 289.674471 -122.726421 
L 290.667177 -120.836132 
L 291.659883 -118.924193 
L 292.652589 -117.044842 
L 293.645294 -115.157807 
L 294.638 -113.272456 
L 295.630706 -111.423179 
L 296.623412 -109.599038 
L 297.616118 -107.8081 
L 298.608824 -106.04191 
L 299.60153 -104.324122 
L 300.594236 -102.681462 
L 301.586942 -101.061706 
L 302.579648 -99.503674 
L 303.572354 -97.995571 
L 304.56506 -96.530173 
L 305.557766 -95.118684 
L 306.550471 -93.765911 
L 307.543177 -92.486824 
L 308.535883 -91.250308 
L 309.528589 -90.046021 
L 310.521295 -88.90524 
L 311.514001 -87.834665 
L 312.506707 -86.801042 
L 313.499413 -85.806934 
L 314.492119 -84.832499 
L 315.484825 -83.916227 
L 316.477531 -83.033332 
L 317.470237 -82.16552 
L 318.462943 -81.303612 
L 319.455648 -80.466005 
L 320.448354 -79.636548 
L 321.44106 -78.809758 
L 322.433766 -77.970569 
L 323.426472 -77.127096 
L 324.419178 -76.292874 
L 325.411884 -75.418303 
L 326.40459 -74.539187 
L 327.397296 -73.638364 
L 328.390002 -72.729185 
L 329.382708 -71.822762 
L 330.375414 -70.902695 
L 331.36812 -69.973329 
L 332.360825 -69.057666 
L 333.353531 -68.15338 
L 334.346237 -67.242626 
L 335.338943 -66.357732 
L 336.331649 -65.487224 
L 337.324355 -64.621976 
L 338.317061 -63.812606 
L 339.309767 -63.024792 
L 340.302473 -62.271702 
L 341.295179 -61.553588 
L 342.287885 -60.861844 
L 343.280591 -60.210152 
L 344.273297 -59.593058 
L 345.266002 -58.998239 
L 346.258708 -58.429029 
L 347.251414 -57.879856 
L 348.24412 -57.369522 
L 349.236826 -56.876027 
L 350.229532 -56.402745 
L 351.222238 -55.930171 
L 352.214944 -55.472236 
L 353.20765 -55.012126 
L 354.200356 -54.581908 
L 355.193062 -54.161134 
L 356.185768 -53.745432 
L 357.178474 -53.33133 
L 358.17118 -52.923468 
L 359.163885 -52.525943 
L 360.156591 -52.128394 
L 361.149297 -51.736901 
L 362.142003 -51.362033 
L 363.134709 -50.982734 
L 364.127415 -50.619065 
L 365.120121 -50.269628 
L 366.112827 -49.923216 
L 367.105533 -49.58596 
L 368.098239 -49.258697 
L 369.090945 -48.950624 
L 370.083651 -48.654562 
L 371.076357 -48.366111 
L 372.069062 -48.088807 
L 373.061768 -47.82499 
L 374.054474 -47.570155 
L 375.04718 -47.327047 
L 376.039886 -47.099238 
L 377.032592 -46.885581 
L 378.025298 -46.686434 
L 379.018004 -46.503629 
L 380.01071 -46.334201 
L 381.003416 -46.17868 
L 381.996122 -46.033533 
L 382.988828 -45.908058 
L 383.981534 -45.796725 
L 384.974239 -45.694138 
L 385.966945 -45.610017 
L 386.959651 -45.533415 
L 387.952357 -45.463998 
L 388.945063 -45.404339 
L 389.937769 -45.344673 
L 390.930475 -45.297712 
L 391.923181 -45.253988 
L 392.915887 -45.213721 
L 393.908593 -45.169609 
L 394.901299 -45.122711 
L 395.894005 -45.07812 
L 396.886711 -45.023034 
L 397.879416 -44.966951 
L 398.872122 -44.895565 
L 399.864828 -44.823396 
L 400.857534 -44.737533 
L 401.85024 -44.636979 
L 402.842946 -44.531496 
L 403.835652 -44.409031 
L 404.828358 -44.275451 
L 405.821064 -44.128915 
L 406.81377 -43.972269 
L 407.806476 -43.804447 
L 408.799182 -43.626252 
L 409.791888 -43.434491 
L 410.784593 -43.240274 
L 411.777299 -43.042651 
L 412.770005 -42.839899 
L 413.762711 -42.636121 
L 414.755417 -42.433195 
L 415.748123 -42.234096 
L 416.740829 -42.040549 
L 417.733535 -41.851384 
L 418.726241 -41.673848 
L 419.718947 -41.507134 
L 420.711653 -41.346577 
L 421.704359 -41.19892 
L 422.697065 -41.063274 
L 423.689771 -40.937985 
L 424.682476 -40.824861 
L 425.675182 -40.723953 
L 426.667888 -40.636774 
L 427.660594 -40.561074 
L 428.6533 -40.490273 
L 429.646006 -40.439262 
L 430.638712 -40.399046 
L 431.631418 -40.365548 
L 432.624124 -40.344071 
L 433.61683 -40.33024 
L 434.609536 -40.327027 
L 435.602242 -40.331494 
L 436.594948 -40.344375 
L 437.587653 -40.359425 
L 438.580359 -40.385123 
L 439.573065 -40.411366 
L 440.565771 -40.440643 
L 441.558477 -40.469418 
L 442.551183 -40.501556 
L 443.543889 -40.531465 
L 444.536595 -40.557952 
L 445.529301 -40.578287 
L 446.522007 -40.595099 
L 447.514713 -40.603775 
L 448.507419 -40.607343 
L 449.500125 -40.601651 
L 450.49283 -40.590226 
L 451.485536 -40.571029 
L 452.478242 -40.542841 
L 453.470948 -40.509884 
L 454.463654 -40.470739 
L 455.45636 -40.42629 
L 456.449066 -40.377487 
L 457.441772 -40.325293 
L 458.434478 -40.270636 
L 459.427184 -40.214368 
L 460.41989 -40.154034 
L 461.412596 -40.097538 
L 462.405302 -40.041026 
L 463.398007 -39.984879 
L 464.390713 -39.929339 
L 465.383419 -39.874525 
L 466.376125 -39.820461 
L 467.368831 -39.765513 
L 468.361537 -39.71326 
L 469.354243 -39.661472 
L 470.346949 -39.610133 
L 471.339655 -39.559266 
L 472.332361 -39.508946 
L 473.325067 -39.459305 
L 474.317773 -39.410531 
L 475.310479 -39.362859 
L 476.303184 -39.31336 
L 477.29589 -39.269621 
L 478.288596 -39.227609 
L 479.281302 -39.186057 
L 480.274008 -39.147302 
L 481.266714 -39.113065 
L 482.25942 -39.079786 
L 483.252126 -39.049669 
L 484.244832 -39.024279 
L 485.237538 -39.00149 
L 486.230244 -38.981295 
L 487.22295 -38.963622 
L 488.215656 -38.948345 
L 489.208362 -38.9353 
L 490.201067 -38.922693 
L 491.193773 -38.913962 
L 492.186479 -38.90673 
L 493.179185 -38.900812 
L 494.171891 -38.896029 
L 495.164597 -38.892208 
L 496.157303 -38.889192 
L 497.150009 -38.886838 
L 498.142715 -38.885024 
L 499.135421 -38.88204 
L 500.128127 -38.879844 
L 501.120833 -38.879844 
L 502.113539 -38.879844 
L 503.106244 -38.879844 
L 504.09895 -38.879844 
L 505.091656 -38.879844 
L 506.084362 -38.879844 
L 507.077068 -38.879844 
L 508.069774 -38.879844 
L 509.06248 -38.879844 
L 510.055186 -38.88204 
L 511.047892 -38.885024 
L 512.040598 -38.886838 
L 513.033304 -38.889192 
L 514.02601 -38.892208 
L 515.018716 -38.896029 
L 516.011421 -38.900812 
L 517.004127 -38.90673 
L 517.996833 -38.913962 
L 518.989539 -38.922693 
L 519.982245 -38.933103 
L 520.974951 -38.945362 
L 521.967657 -38.959611 
L 522.960363 -38.975958 
L 523.953069 -38.994462 
L 524.945775 -39.015121 
L 525.938481 -39.037858 
L 526.931187 -39.062514 
L 527.923893 -39.088842 
L 528.916598 -39.116501 
L 529.909304 -39.145059 
L 530.90201 -39.174 
L 531.894716 -39.202738 
L 532.887422 -39.230632 
L 533.880128 -39.257009 
L 534.872834 -39.28119 
L 535.86554 -39.302522 
L 536.858246 -39.3204 
L 537.850952 -39.334304 
L 538.843658 -39.343816 
L 539.836364 -39.348646 
L 539.836364 -38.879844 
L 539.836364 -38.879844 
L 538.843658 -38.879844 
L 537.850952 -38.879844 
L 536.858246 -38.879844 
L 535.86554 -38.879844 
L 534.872834 -38.879844 
L 533.880128 -38.879844 
L 532.887422 -38.879844 
L 531.894716 -38.879844 
L 530.90201 -38.879844 
L 529.909304 -38.879844 
L 528.916598 -38.879844 
L 527.923893 -38.879844 
L 526.931187 -38.879844 
L 525.938481 -38.879844 
L 524.945775 -38.879844 
L 523.953069 -38.879844 
L 522.960363 -38.879844 
L 521.967657 -38.879844 
L 520.974951 -38.879844 
L 519.982245 -38.879844 
L 518.989539 -38.879844 
L 517.996833 -38.879844 
L 517.004127 -38.879844 
L 516.011421 -38.879844 
L 515.018716 -38.879844 
L 514.02601 -38.879844 
L 513.033304 -38.879844 
L 512.040598 -38.879844 
L 511.047892 -38.879844 
L 510.055186 -38.879844 
L 509.06248 -38.879844 
L 508.069774 -38.879844 
L 507.077068 -38.879844 
L 506.084362 -38.879844 
L 505.091656 -38.879844 
L 504.09895 -38.879844 
L 503.106244 -38.879844 
L 502.113539 -38.879844 
L 501.120833 -38.879844 
L 500.128127 -38.879844 
L 499.135421 -38.879844 
L 498.142715 -38.879844 
L 497.150009 -38.879844 
L 496.157303 -38.879844 
L 495.164597 -38.879844 
L 494.171891 -38.879844 
L 493.179185 -38.879844 
L 492.186479 -38.879844 
L 491.193773 -38.879844 
L 490.201067 -38.879844 
L 489.208362 -38.879844 
L 488.215656 -38.879844 
L 487.22295 -38.879844 
L 486.230244 -38.879844 
L 485.237538 -38.879844 
L 484.244832 -38.879844 
L 483.252126 -38.879844 
L 482.25942 -38.879844 
L 481.266714 -38.879844 
L 480.274008 -38.879844 
L 479.281302 -38.879844 
L 478.288596 -38.879844 
L 477.29589 -38.879844 
L 476.303184 -38.879844 
L 475.310479 -38.879844 
L 474.317773 -38.879844 
L 473.325067 -38.879844 
L 472.332361 -38.879844 
L 471.339655 -38.879844 
L 470.346949 -38.879844 
L 469.354243 -38.879844 
L 468.361537 -38.879844 
L 467.368831 -38.879844 
L 466.376125 -38.879844 
L 465.383419 -38.879844 
L 464.390713 -38.879844 
L 463.398007 -38.879844 
L 462.405302 -38.879844 
L 461.412596 -38.879844 
L 460.41989 -38.879844 
L 459.427184 -38.879844 
L 458.434478 -38.879844 
L 457.441772 -38.879844 
L 456.449066 -38.879844 
L 455.45636 -38.879844 
L 454.463654 -38.879844 
L 453.470948 -38.879844 
L 452.478242 -38.879844 
L 451.485536 -38.879844 
L 450.49283 -38.879844 
L 449.500125 -38.879844 
L 448.507419 -38.879844 
L 447.514713 -38.879844 
L 446.522007 -38.879844 
L 445.529301 -38.879844 
L 444.536595 -38.879844 
L 443.543889 -38.879844 
L 442.551183 -38.879844 
L 441.558477 -38.879844 
L 440.565771 -38.879844 
L 439.573065 -38.879844 
L 438.580359 -38.879844 
L 437.587653 -38.879844 
L 436.594948 -38.879844 
L 435.602242 -38.879844 
L 434.609536 -38.879844 
L 433.61683 -38.879844 
L 432.624124 -38.879844 
L 431.631418 -38.879844 
L 430.638712 -38.879844 
L 429.646006 -38.879844 
L 428.6533 -38.879844 
L 427.660594 -38.879844 
L 426.667888 -38.879844 
L 425.675182 -38.879844 
L 424.682476 -38.879844 
L 423.689771 -38.879844 
L 422.697065 -38.879844 
L 421.704359 -38.879844 
L 420.711653 -38.879844 
L 419.718947 -38.879844 
L 418.726241 -38.879844 
L 417.733535 -38.879844 
L 416.740829 -38.879844 
L 415.748123 -38.879844 
L 414.755417 -38.879844 
L 413.762711 -38.879844 
L 412.770005 -38.879844 
L 411.777299 -38.879844 
L 410.784593 -38.879844 
L 409.791888 -38.879844 
L 408.799182 -38.879844 
L 407.806476 -38.879844 
L 406.81377 -38.879844 
L 405.821064 -38.879844 
L 404.828358 -38.879844 
L 403.835652 -38.879844 
L 402.842946 -38.879844 
L 401.85024 -38.879844 
L 400.857534 -38.879844 
L 399.864828 -38.879844 
L 398.872122 -38.879844 
L 397.879416 -38.879844 
L 396.886711 -38.879844 
L 395.894005 -38.879844 
L 394.901299 -38.879844 
L 393.908593 -38.879844 
L 392.915887 -38.879844 
L 391.923181 -38.879844 
L 390.930475 -38.879844 
L 389.937769 -38.879844 
L 388.945063 -38.879844 
L 387.952357 -38.879844 
L 386.959651 -38.879844 
L 385.966945 -38.879844 
L 384.974239 -38.879844 
L 383.981534 -38.879844 
L 382.988828 -38.879844 
L 381.996122 -38.879844 
L 381.003416 -38.879844 
L 380.01071 -38.879844 
L 379.018004 -38.879844 
L 378.025298 -38.879844 
L 377.032592 -38.879844 
L 376.039886 -38.879844 
L 375.04718 -38.879844 
L 374.054474 -38.879844 
L 373.061768 -38.879844 
L 372.069062 -38.879844 
L 371.076357 -38.879844 
L 370.083651 -38.879844 
L 369.090945 -38.879844 
L 368.098239 -38.879844 
L 367.105533 -38.879844 
L 366.112827 -38.879844 
L 365.120121 -38.879844 
L 364.127415 -38.879844 
L 363.134709 -38.879844 
L 362.142003 -38.879844 
L 361.149297 -38.879844 
L 360.156591 -38.879844 
L 359.163885 -38.879844 
L 358.17118 -38.879844 
L 357.178474 -38.879844 
L 356.185768 -38.879844 
L 355.193062 -38.879844 
L 354.200356 -38.879844 
L 353.20765 -38.879844 
L 352.214944 -38.879844 
L 351.222238 -38.879844 
L 350.229532 -38.879844 
L 349.236826 -38.879844 
L 348.24412 -38.879844 
L 347.251414 -38.879844 
L 346.258708 -38.879844 
L 345.266002 -38.879844 
L 344.273297 -38.879844 
L 343.280591 -38.879844 
L 342.287885 -38.879844 
L 341.295179 -38.879844 
L 340.302473 -38.879844 
L 339.309767 -38.879844 
L 338.317061 -38.879844 
L 337.324355 -38.879844 
L 336.331649 -38.879844 
L 335.338943 -38.879844 
L 334.346237 -38.879844 
L 333.353531 -38.879844 
L 332.360825 -38.879844 
L 331.36812 -38.879844 
L 330.375414 -38.879844 
L 329.382708 -38.879844 
L 328.390002 -38.879844 
L 327.397296 -38.879844 
L 326.40459 -38.879844 
L 325.411884 -38.879844 
L 324.419178 -38.879844 
L 323.426472 -38.879844 
L 322.433766 -38.879844 
L 321.44106 -38.879844 
L 320.448354 -38.879844 
L 319.455648 -38.879844 
L 318.462943 -38.879844 
L 317.470237 -38.879844 
L 316.477531 -38.879844 
L 315.484825 -38.879844 
L 314.492119 -38.879844 
L 313.499413 -38.879844 
L 312.506707 -38.879844 
L 311.514001 -38.879844 
L 310.521295 -38.879844 
L 309.528589 -38.879844 
L 308.535883 -38.879844 
L 307.543177 -38.879844 
L 306.550471 -38.879844 
L 305.557766 -38.879844 
L 304.56506 -38.879844 
L 303.572354 -38.879844 
L 302.579648 -38.879844 
L 301.586942 -38.879844 
L 300.594236 -38.879844 
L 299.60153 -38.879844 
L 298.608824 -38.879844 
L 297.616118 -38.879844 
L 296.623412 -38.879844 
L 295.630706 -38.879844 
L 294.638 -38.879844 
L 293.645294 -38.879844 
L 292.652589 -38.879844 
L 291.659883 -38.879844 
L 290.667177 -38.879844 
L 289.674471 -38.879844 
L 288.681765 -38.879844 
L 287.689059 -38.879844 
L 286.696353 -38.879844 
L 285.703647 -38.879844 
L 284.710941 -38.879844 
L 283.718235 -38.879844 
L 282.725529 -38.879844 
L 281.732823 -38.879844 
L 280.740117 -38.879844 
L 279.747411 -38.879844 
L 278.754706 -38.879844 
L 277.762 -38.879844 
L 276.769294 -38.879844 
L 275.776588 -38.879844 
L 274.783882 -38.879844 
L 273.791176 -38.879844 
L 272.79847 -38.879844 
L 271.805764 -38.879844 
L 270.813058 -38.879844 
L 269.820352 -38.879844 
L 268.827646 -38.879844 
L 267.83494 -38.879844 
L 266.842234 -38.879844 
L 265.849529 -38.879844 
L 264.856823 -38.879844 
L 263.864117 -38.879844 
L 262.871411 -38.879844 
L 261.878705 -38.879844 
L 260.885999 -38.879844 
L 259.893293 -38.879844 
L 258.900587 -38.879844 
L 257.907881 -38.879844 
L 256.915175 -38.879844 
L 255.922469 -38.879844 
L 254.929763 -38.879844 
L 253.937057 -38.879844 
L 252.944352 -38.879844 
L 251.951646 -38.879844 
L 250.95894 -38.879844 
L 249.966234 -38.879844 
L 248.973528 -38.879844 
L 247.980822 -38.879844 
L 246.988116 -38.879844 
L 245.99541 -38.879844 
L 245.002704 -38.879844 
L 244.009998 -38.879844 
L 243.017292 -38.879844 
L 242.024586 -38.879844 
L 241.03188 -38.879844 
L 240.039175 -38.879844 
L 239.046469 -38.879844 
L 238.053763 -38.879844 
L 237.061057 -38.879844 
L 236.068351 -38.879844 
L 235.075645 -38.879844 
L 234.082939 -38.879844 
L 233.090233 -38.879844 
L 232.097527 -38.879844 
L 231.104821 -38.879844 
L 230.112115 -38.879844 
L 229.119409 -38.879844 
L 228.126703 -38.879844 
L 227.133998 -38.879844 
L 226.141292 -38.879844 
L 225.148586 -38.879844 
L 224.15588 -38.879844 
L 223.163174 -38.879844 
L 222.170468 -38.879844 
L 221.177762 -38.879844 
L 220.185056 -38.879844 
L 219.19235 -38.879844 
L 218.199644 -38.879844 
L 217.206938 -38.879844 
L 216.214232 -38.879844 
L 215.221526 -38.879844 
L 214.22882 -38.879844 
L 213.236115 -38.879844 
L 212.243409 -38.879844 
L 211.250703 -38.879844 
L 210.257997 -38.879844 
L 209.265291 -38.879844 
L 208.272585 -38.879844 
L 207.279879 -38.879844 
L 206.287173 -38.879844 
L 205.294467 -38.879844 
L 204.301761 -38.879844 
L 203.309055 -38.879844 
L 202.316349 -38.879844 
L 201.323643 -38.879844 
L 200.330938 -38.879844 
L 199.338232 -38.879844 
L 198.345526 -38.879844 
L 197.35282 -38.879844 
L 196.360114 -38.879844 
L 195.367408 -38.879844 
L 194.374702 -38.879844 
L 193.381996 -38.879844 
L 192.38929 -38.879844 
L 191.396584 -38.879844 
L 190.403878 -38.879844 
L 189.411172 -38.879844 
L 188.418466 -38.879844 
L 187.425761 -38.879844 
L 186.433055 -38.879844 
L 185.440349 -38.879844 
L 184.447643 -38.879844 
L 183.454937 -38.879844 
L 182.462231 -38.879844 
L 181.469525 -38.879844 
L 180.476819 -38.879844 
L 179.484113 -38.879844 
L 178.491407 -38.879844 
L 177.498701 -38.879844 
L 176.505995 -38.879844 
L 175.513289 -38.879844 
L 174.520584 -38.879844 
L 173.527878 -38.879844 
L 172.535172 -38.879844 
L 171.542466 -38.879844 
L 170.54976 -38.879844 
L 169.557054 -38.879844 
L 168.564348 -38.879844 
L 167.571642 -38.879844 
L 166.578936 -38.879844 
L 165.58623 -38.879844 
L 164.593524 -38.879844 
L 163.600818 -38.879844 
L 162.608112 -38.879844 
L 161.615407 -38.879844 
L 160.622701 -38.879844 
L 159.629995 -38.879844 
L 158.637289 -38.879844 
L 157.644583 -38.879844 
L 156.651877 -38.879844 
L 155.659171 -38.879844 
L 154.666465 -38.879844 
L 153.673759 -38.879844 
L 152.681053 -38.879844 
L 151.688347 -38.879844 
L 150.695641 -38.879844 
L 149.702935 -38.879844 
L 148.710229 -38.879844 
L 147.717524 -38.879844 
L 146.724818 -38.879844 
L 145.732112 -38.879844 
L 144.739406 -38.879844 
L 143.7467 -38.879844 
L 142.753994 -38.879844 
L 141.761288 -38.879844 
L 140.768582 -38.879844 
L 139.775876 -38.879844 
L 138.78317 -38.879844 
L 137.790464 -38.879844 
L 136.797758 -38.879844 
L 135.805052 -38.879844 
L 134.812347 -38.879844 
L 133.819641 -38.879844 
L 132.826935 -38.879844 
L 131.834229 -38.879844 
L 130.841523 -38.879844 
L 129.848817 -38.879844 
L 128.856111 -38.879844 
L 127.863405 -38.879844 
L 126.870699 -38.879844 
L 125.877993 -38.879844 
L 124.885287 -38.879844 
L 123.892581 -38.879844 
L 122.899875 -38.879844 
L 121.90717 -38.879844 
L 120.914464 -38.879844 
L 119.921758 -38.879844 
L 118.929052 -38.879844 
L 117.936346 -38.879844 
L 116.94364 -38.879844 
L 115.950934 -38.879844 
L 114.958228 -38.879844 
L 113.965522 -38.879844 
L 112.972816 -38.879844 
L 111.98011 -38.879844 
L 110.987404 -38.879844 
L 109.994698 -38.879844 
L 109.001993 -38.879844 
L 108.009287 -38.879844 
L 107.016581 -38.879844 
L 106.023875 -38.879844 
L 105.031169 -38.879844 
L 104.038463 -38.879844 
L 103.045757 -38.879844 
L 102.053051 -38.879844 
L 101.060345 -38.879844 
L 100.067639 -38.879844 
L 99.074933 -38.879844 
L 98.082227 -38.879844 
L 97.089521 -38.879844 
L 96.096816 -38.879844 
L 95.10411 -38.879844 
L 94.111404 -38.879844 
L 93.118698 -38.879844 
L 92.125992 -38.879844 
L 91.133286 -38.879844 
L 90.14058 -38.879844 
L 89.147874 -38.879844 
L 88.155168 -38.879844 
L 87.162462 -38.879844 
L 86.169756 -38.879844 
L 85.17705 -38.879844 
L 84.184344 -38.879844 
L 83.191638 -38.879844 
L 82.198933 -38.879844 
L 81.206227 -38.879844 
L 80.213521 -38.879844 
L 79.220815 -38.879844 
L 78.228109 -38.879844 
L 77.235403 -38.879844 
L 76.242697 -38.879844 
L 75.249991 -38.879844 
L 74.257285 -38.879844 
L 73.264579 -38.879844 
L 72.271873 -38.879844 
L 71.279167 -38.879844 
L 70.286461 -38.879844 
L 69.293756 -38.879844 
L 68.30105 -38.879844 
L 67.308344 -38.879844 
L 66.315638 -38.879844 
L 65.322932 -38.879844 
L 64.330226 -38.879844 
L 63.33752 -38.879844 
L 62.344814 -38.879844 
L 61.352108 -38.879844 
L 60.359402 -38.879844 
L 59.366696 -38.879844 
L 58.37399 -38.879844 
L 57.381284 -38.879844 
L 56.388579 -38.879844 
L 55.395873 -38.879844 
L 54.403167 -38.879844 
L 53.410461 -38.879844 
L 52.417755 -38.879844 
L 51.425049 -38.879844 
L 50.432343 -38.879844 
L 49.439637 -38.879844 
L 48.446931 -38.879844 
L 47.454225 -38.879844 
L 46.461519 -38.879844 
L 45.468813 -38.879844 
L 44.476107 -38.879844 
L 43.483402 -38.879844 
L 42.490696 -38.879844 
L 41.49799 -38.879844 
L 40.505284 -38.879844 
L 39.512578 -38.879844 
L 38.519872 -38.879844 
L 37.527166 -38.879844 
L 36.53446 -38.879844 
L 35.541754 -38.879844 
L 34.549048 -38.879844 
L 33.556342 -38.879844 
L 32.563636 -38.879844 
z
" style="stroke: #0173b2; stroke-opacity: 0"/>
    </defs>
    <g clip-path="url(#p433f980a37)">
     <use xlink:href="#m5f6b9cd1de" x="0" y="378.189219" style="fill: #0173b2; fill-opacity: 0; stroke: #0173b2; stroke-opacity: 0"/>
    </g>
   </g>
   <g id="line2d_9">
    <path d="M 32.563636 338.076852 
L 35.541754 337.95706 
L 38.519872 337.642211 
L 41.49799 337.082793 
L 43.483402 336.532909 
L 45.468813 335.814563 
L 47.454225 334.888011 
L 49.439637 333.734648 
L 51.425049 332.324066 
L 53.410461 330.669704 
L 55.395873 328.724646 
L 57.381284 326.52024 
L 59.366696 324.071227 
L 62.344814 319.960644 
L 65.322932 315.467968 
L 70.286461 307.384817 
L 75.249991 298.888519 
L 78.228109 293.390045 
L 80.213521 289.446835 
L 82.198933 285.11592 
L 84.184344 280.305784 
L 86.169756 274.943005 
L 88.155168 268.97012 
L 90.14058 262.313299 
L 93.118698 251.207363 
L 96.096816 239.008031 
L 101.060345 217.327493 
L 110.987404 173.514062 
L 114.958228 157.007845 
L 117.936346 145.438275 
L 120.914464 134.978858 
L 122.899875 128.675256 
L 124.885287 122.931021 
L 126.870699 117.749902 
L 128.856111 113.011815 
L 131.834229 106.658193 
L 133.819641 102.728107 
L 137.790464 95.423002 
L 148.710229 75.216611 
L 157.644583 57.909386 
L 159.629995 54.390094 
L 162.608112 49.673503 
L 164.593524 46.883778 
L 166.578936 44.401506 
L 168.564348 42.19821 
L 170.54976 40.329959 
L 172.535172 38.829752 
L 174.520584 37.729568 
L 176.505995 37.058032 
L 177.498701 36.909375 
L 178.491407 36.928793 
L 179.484113 37.065756 
L 180.476819 37.353294 
L 182.462231 38.428737 
L 184.447643 40.094053 
L 186.433055 42.292274 
L 188.418466 44.986984 
L 191.396584 49.72156 
L 194.374702 55.085987 
L 198.345526 62.743428 
L 203.309055 72.916302 
L 207.279879 81.627786 
L 211.250703 90.904733 
L 216.214232 102.989631 
L 225.148586 124.782611 
L 232.097527 141.899708 
L 236.068351 152.216917 
L 241.03188 165.281276 
L 245.002704 175.223245 
L 247.980822 182.174299 
L 253.937057 195.109204 
L 262.871411 213.84873 
L 265.849529 219.493518 
L 267.83494 222.893792 
L 269.820352 225.933887 
L 272.79847 230.070861 
L 280.740117 240.310915 
L 283.718235 244.863969 
L 286.696353 249.943452 
L 290.667177 257.353087 
L 296.623412 268.590181 
L 299.60153 273.865097 
L 302.579648 278.685545 
L 305.557766 283.070535 
L 307.543177 285.702394 
L 310.521295 289.283979 
L 313.499413 292.382284 
L 316.477531 295.155887 
L 322.433766 300.21865 
L 327.397296 304.550855 
L 337.324355 313.567242 
L 340.302473 315.917517 
L 343.280591 317.979066 
L 346.258708 319.76019 
L 349.236826 321.313192 
L 354.200356 323.607311 
L 361.149297 326.452317 
L 367.105533 328.603259 
L 371.076357 329.823107 
L 375.04718 330.862171 
L 379.018004 331.68559 
L 382.988828 332.28116 
L 386.959651 332.655804 
L 392.915887 332.975498 
L 399.864828 333.365823 
L 403.835652 333.780188 
L 407.806476 334.384772 
L 413.762711 335.553097 
L 419.718947 336.682085 
L 423.689771 337.251234 
L 427.660594 337.628145 
L 431.631418 337.823671 
L 436.594948 337.844844 
L 453.470948 337.679335 
L 461.412596 338.091681 
L 479.281302 339.003162 
L 488.215656 339.240873 
L 501.120833 339.309375 
L 522.960363 339.213261 
L 539.836364 338.840572 
L 539.836364 338.840572 
" clip-path="url(#p433f980a37)" style="fill: none; stroke: #0173b2; stroke-width: 1.5; stroke-linecap: round"/>
   </g>
   <g id="line2d_10">
    <path d="M 83.567683 332.958975 
L 310.413646 332.958975 
" clip-path="url(#p433f980a37)" style="fill: none; stroke: #1a1a1a; stroke-width: 3"/>
   </g>
   <g id="patch_3">
    <path d="M 7.2 354.429375 
L 565.2 354.429375 
" style="fill: none; stroke: #808080; stroke-width: 1.25; stroke-linejoin: miter; stroke-linecap: square"/>
   </g>
   <g id="text_5">
    <!-- 3.7  -->
    <g style="fill: #262626" transform="translate(63.553933 317.082975) scale(0.12 -0.12)">
     <defs>
      <path id="ArialMT-33" d="M 269 1209 
L 831 1284 
Q 928 806 1161 595 
Q 1394 384 1728 384 
Q 2125 384 2398 659 
Q 2672 934 2672 1341 
Q 2672 1728 2419 1979 
Q 2166 2231 1775 2231 
Q 1616 2231 1378 2169 
L 1441 2663 
Q 1497 2656 1531 2656 
Q 1891 2656 2178 2843 
Q 2466 3031 2466 3422 
Q 2466 3731 2256 3934 
Q 2047 4138 1716 4138 
Q 1388 4138 1169 3931 
Q 950 3725 888 3313 
L 325 3413 
Q 428 3978 793 4289 
Q 1159 4600 1703 4600 
Q 2078 4600 2393 4439 
Q 2709 4278 2876 4000 
Q 3044 3722 3044 3409 
Q 3044 3113 2884 2869 
Q 2725 2625 2413 2481 
Q 2819 2388 3044 2092 
Q 3269 1797 3269 1353 
Q 3269 753 2831 336 
Q 2394 -81 1725 -81 
Q 1122 -81 723 278 
Q 325 638 269 1209 
z
" transform="scale(0.015625)"/>
      <path id="ArialMT-2e" d="M 581 0 
L 581 641 
L 1222 641 
L 1222 0 
L 581 0 
z
" transform="scale(0.015625)"/>
      <path id="ArialMT-37" d="M 303 3981 
L 303 4522 
L 3269 4522 
L 3269 4084 
Q 2831 3619 2401 2847 
Q 1972 2075 1738 1259 
Q 1569 684 1522 0 
L 944 0 
Q 953 541 1156 1306 
Q 1359 2072 1739 2783 
Q 2119 3494 2547 3981 
L 303 3981 
z
" transform="scale(0.015625)"/>
      <path id="ArialMT-20" transform="scale(0.015625)"/>
     </defs>
     <use xlink:href="#ArialMT-33"/>
     <use xlink:href="#ArialMT-2e" x="55.615234"/>
     <use xlink:href="#ArialMT-37" x="83.398438"/>
     <use xlink:href="#ArialMT-20" x="139.013672"/>
    </g>
   </g>
   <g id="text_6">
    <!--  13 -->
    <g style="fill: #262626" transform="translate(310.413646 317.082975) scale(0.12 -0.12)">
     <use xlink:href="#ArialMT-20"/>
     <use xlink:href="#ArialMT-31" x="27.783203"/>
     <use xlink:href="#ArialMT-33" x="83.398438"/>
    </g>
   </g>
   <g id="text_7">
    <!-- 94% HDI -->
    <g style="fill: #262626" transform="translate(172.982227 244.053375) scale(0.12 -0.12)">
     <defs>
      <path id="ArialMT-39" d="M 350 1059 
L 891 1109 
Q 959 728 1153 556 
Q 1347 384 1650 384 
Q 1909 384 2104 503 
Q 2300 622 2425 820 
Q 2550 1019 2634 1356 
Q 2719 1694 2719 2044 
Q 2719 2081 2716 2156 
Q 2547 1888 2255 1720 
Q 1963 1553 1622 1553 
Q 1053 1553 659 1965 
Q 266 2378 266 3053 
Q 266 3750 677 4175 
Q 1088 4600 1706 4600 
Q 2153 4600 2523 4359 
Q 2894 4119 3086 3673 
Q 3278 3228 3278 2384 
Q 3278 1506 3087 986 
Q 2897 466 2520 194 
Q 2144 -78 1638 -78 
Q 1100 -78 759 220 
Q 419 519 350 1059 
z
M 2653 3081 
Q 2653 3566 2395 3850 
Q 2138 4134 1775 4134 
Q 1400 4134 1122 3828 
Q 844 3522 844 3034 
Q 844 2597 1108 2323 
Q 1372 2050 1759 2050 
Q 2150 2050 2401 2323 
Q 2653 2597 2653 3081 
z
" transform="scale(0.015625)"/>
      <path id="ArialMT-34" d="M 2069 0 
L 2069 1097 
L 81 1097 
L 81 1613 
L 2172 4581 
L 2631 4581 
L 2631 1613 
L 3250 1613 
L 3250 1097 
L 2631 1097 
L 2631 0 
L 2069 0 
z
M 2069 1613 
L 2069 3678 
L 634 1613 
L 2069 1613 
z
" transform="scale(0.015625)"/>
      <path id="ArialMT-25" d="M 372 3481 
Q 372 3972 619 4315 
Q 866 4659 1334 4659 
Q 1766 4659 2048 4351 
Q 2331 4044 2331 3447 
Q 2331 2866 2045 2552 
Q 1759 2238 1341 2238 
Q 925 2238 648 2547 
Q 372 2856 372 3481 
z
M 1350 4272 
Q 1141 4272 1002 4090 
Q 863 3909 863 3425 
Q 863 2984 1003 2804 
Q 1144 2625 1350 2625 
Q 1563 2625 1702 2806 
Q 1841 2988 1841 3469 
Q 1841 3913 1700 4092 
Q 1559 4272 1350 4272 
z
M 1353 -169 
L 3859 4659 
L 4316 4659 
L 1819 -169 
L 1353 -169 
z
M 3334 1075 
Q 3334 1569 3581 1911 
Q 3828 2253 4300 2253 
Q 4731 2253 5014 1945 
Q 5297 1638 5297 1041 
Q 5297 459 5011 145 
Q 4725 -169 4303 -169 
Q 3888 -169 3611 142 
Q 3334 453 3334 1075 
z
M 4316 1866 
Q 4103 1866 3964 1684 
Q 3825 1503 3825 1019 
Q 3825 581 3965 400 
Q 4106 219 4313 219 
Q 4528 219 4667 400 
Q 4806 581 4806 1063 
Q 4806 1506 4665 1686 
Q 4525 1866 4316 1866 
z
" transform="scale(0.015625)"/>
      <path id="ArialMT-48" d="M 513 0 
L 513 4581 
L 1119 4581 
L 1119 2700 
L 3500 2700 
L 3500 4581 
L 4106 4581 
L 4106 0 
L 3500 0 
L 3500 2159 
L 1119 2159 
L 1119 0 
L 513 0 
z
" transform="scale(0.015625)"/>
      <path id="ArialMT-44" d="M 494 0 
L 494 4581 
L 2072 4581 
Q 2606 4581 2888 4516 
Q 3281 4425 3559 4188 
Q 3922 3881 4101 3404 
Q 4281 2928 4281 2316 
Q 4281 1794 4159 1391 
Q 4038 988 3847 723 
Q 3656 459 3429 307 
Q 3203 156 2883 78 
Q 2563 0 2147 0 
L 494 0 
z
M 1100 541 
L 2078 541 
Q 2531 541 2789 625 
Q 3047 709 3200 863 
Q 3416 1078 3536 1442 
Q 3656 1806 3656 2325 
Q 3656 3044 3420 3430 
Q 3184 3816 2847 3947 
Q 2603 4041 2063 4041 
L 1100 4041 
L 1100 541 
z
" transform="scale(0.015625)"/>
      <path id="ArialMT-49" d="M 597 0 
L 597 4581 
L 1203 4581 
L 1203 0 
L 597 0 
z
" transform="scale(0.015625)"/>
     </defs>
     <use xlink:href="#ArialMT-39"/>
     <use xlink:href="#ArialMT-34" x="55.615234"/>
     <use xlink:href="#ArialMT-25" x="111.230469"/>
     <use xlink:href="#ArialMT-20" x="200.146484"/>
     <use xlink:href="#ArialMT-48" x="227.929688"/>
     <use xlink:href="#ArialMT-44" x="300.146484"/>
     <use xlink:href="#ArialMT-49" x="372.363281"/>
    </g>
   </g>
   <g id="text_8">
    <!-- mean=8.3 -->
    <g style="fill: #262626" transform="translate(164.305082 85.293375) scale(0.12 -0.12)">
     <defs>
      <path id="ArialMT-6d" d="M 422 0 
L 422 3319 
L 925 3319 
L 925 2853 
Q 1081 3097 1340 3245 
Q 1600 3394 1931 3394 
Q 2300 3394 2536 3241 
Q 2772 3088 2869 2813 
Q 3263 3394 3894 3394 
Q 4388 3394 4653 3120 
Q 4919 2847 4919 2278 
L 4919 0 
L 4359 0 
L 4359 2091 
Q 4359 2428 4304 2576 
Q 4250 2725 4106 2815 
Q 3963 2906 3769 2906 
Q 3419 2906 3187 2673 
Q 2956 2441 2956 1928 
L 2956 0 
L 2394 0 
L 2394 2156 
Q 2394 2531 2256 2718 
Q 2119 2906 1806 2906 
Q 1569 2906 1367 2781 
Q 1166 2656 1075 2415 
Q 984 2175 984 1722 
L 984 0 
L 422 0 
z
" transform="scale(0.015625)"/>
      <path id="ArialMT-65" d="M 2694 1069 
L 3275 997 
Q 3138 488 2766 206 
Q 2394 -75 1816 -75 
Q 1088 -75 661 373 
Q 234 822 234 1631 
Q 234 2469 665 2931 
Q 1097 3394 1784 3394 
Q 2450 3394 2872 2941 
Q 3294 2488 3294 1666 
Q 3294 1616 3291 1516 
L 816 1516 
Q 847 969 1125 678 
Q 1403 388 1819 388 
Q 2128 388 2347 550 
Q 2566 713 2694 1069 
z
M 847 1978 
L 2700 1978 
Q 2663 2397 2488 2606 
Q 2219 2931 1791 2931 
Q 1403 2931 1139 2672 
Q 875 2413 847 1978 
z
" transform="scale(0.015625)"/>
      <path id="ArialMT-61" d="M 2588 409 
Q 2275 144 1986 34 
Q 1697 -75 1366 -75 
Q 819 -75 525 192 
Q 231 459 231 875 
Q 231 1119 342 1320 
Q 453 1522 633 1644 
Q 813 1766 1038 1828 
Q 1203 1872 1538 1913 
Q 2219 1994 2541 2106 
Q 2544 2222 2544 2253 
Q 2544 2597 2384 2738 
Q 2169 2928 1744 2928 
Q 1347 2928 1158 2789 
Q 969 2650 878 2297 
L 328 2372 
Q 403 2725 575 2942 
Q 747 3159 1072 3276 
Q 1397 3394 1825 3394 
Q 2250 3394 2515 3294 
Q 2781 3194 2906 3042 
Q 3031 2891 3081 2659 
Q 3109 2516 3109 2141 
L 3109 1391 
Q 3109 606 3145 398 
Q 3181 191 3288 0 
L 2700 0 
Q 2613 175 2588 409 
z
M 2541 1666 
Q 2234 1541 1622 1453 
Q 1275 1403 1131 1340 
Q 988 1278 909 1158 
Q 831 1038 831 891 
Q 831 666 1001 516 
Q 1172 366 1500 366 
Q 1825 366 2078 508 
Q 2331 650 2450 897 
Q 2541 1088 2541 1459 
L 2541 1666 
z
" transform="scale(0.015625)"/>
      <path id="ArialMT-6e" d="M 422 0 
L 422 3319 
L 928 3319 
L 928 2847 
Q 1294 3394 1984 3394 
Q 2284 3394 2536 3286 
Q 2788 3178 2913 3003 
Q 3038 2828 3088 2588 
Q 3119 2431 3119 2041 
L 3119 0 
L 2556 0 
L 2556 2019 
Q 2556 2363 2490 2533 
Q 2425 2703 2258 2804 
Q 2091 2906 1866 2906 
Q 1506 2906 1245 2678 
Q 984 2450 984 1813 
L 984 0 
L 422 0 
z
" transform="scale(0.015625)"/>
      <path id="ArialMT-3d" d="M 3381 2694 
L 356 2694 
L 356 3219 
L 3381 3219 
L 3381 2694 
z
M 3381 1303 
L 356 1303 
L 356 1828 
L 3381 1828 
L 3381 1303 
z
" transform="scale(0.015625)"/>
      <path id="ArialMT-38" d="M 1131 2484 
Q 781 2613 612 2850 
Q 444 3088 444 3419 
Q 444 3919 803 4259 
Q 1163 4600 1759 4600 
Q 2359 4600 2725 4251 
Q 3091 3903 3091 3403 
Q 3091 3084 2923 2848 
Q 2756 2613 2416 2484 
Q 2838 2347 3058 2040 
Q 3278 1734 3278 1309 
Q 3278 722 2862 322 
Q 2447 -78 1769 -78 
Q 1091 -78 675 323 
Q 259 725 259 1325 
Q 259 1772 486 2073 
Q 713 2375 1131 2484 
z
M 1019 3438 
Q 1019 3113 1228 2906 
Q 1438 2700 1772 2700 
Q 2097 2700 2305 2904 
Q 2513 3109 2513 3406 
Q 2513 3716 2298 3927 
Q 2084 4138 1766 4138 
Q 1444 4138 1231 3931 
Q 1019 3725 1019 3438 
z
M 838 1322 
Q 838 1081 952 856 
Q 1066 631 1291 507 
Q 1516 384 1775 384 
Q 2178 384 2440 643 
Q 2703 903 2703 1303 
Q 2703 1709 2433 1975 
Q 2163 2241 1756 2241 
Q 1359 2241 1098 1978 
Q 838 1716 838 1322 
z
" transform="scale(0.015625)"/>
     </defs>
     <use xlink:href="#ArialMT-6d"/>
     <use xlink:href="#ArialMT-65" x="83.300781"/>
     <use xlink:href="#ArialMT-61" x="138.916016"/>
     <use xlink:href="#ArialMT-6e" x="194.53125"/>
     <use xlink:href="#ArialMT-3d" x="250.146484"/>
     <use xlink:href="#ArialMT-38" x="308.544922"/>
     <use xlink:href="#ArialMT-2e" x="364.160156"/>
     <use xlink:href="#ArialMT-33" x="391.943359"/>
    </g>
   </g>
   <g id="text_9">
    <!-- mu_A -->
    <g style="fill: #262626" transform="translate(270.526875 15.789375) scale(0.12 -0.12)">
     <defs>
      <path id="ArialMT-75" d="M 2597 0 
L 2597 488 
Q 2209 -75 1544 -75 
Q 1250 -75 995 37 
Q 741 150 617 320 
Q 494 491 444 738 
Q 409 903 409 1263 
L 409 3319 
L 972 3319 
L 972 1478 
Q 972 1038 1006 884 
Q 1059 663 1231 536 
Q 1403 409 1656 409 
Q 1909 409 2131 539 
Q 2353 669 2445 892 
Q 2538 1116 2538 1541 
L 2538 3319 
L 3100 3319 
L 3100 0 
L 2597 0 
z
" transform="scale(0.015625)"/>
      <path id="ArialMT-5f" d="M -97 -1272 
L -97 -866 
L 3631 -866 
L 3631 -1272 
L -97 -1272 
z
" transform="scale(0.015625)"/>
      <path id="ArialMT-41" d="M -9 0 
L 1750 4581 
L 2403 4581 
L 4278 0 
L 3588 0 
L 3053 1388 
L 1138 1388 
L 634 0 
L -9 0 
z
M 1313 1881 
L 2866 1881 
L 2388 3150 
Q 2169 3728 2063 4100 
Q 1975 3659 1816 3225 
L 1313 1881 
z
" transform="scale(0.015625)"/>
     </defs>
     <use xlink:href="#ArialMT-6d"/>
     <use xlink:href="#ArialMT-75" x="83.300781"/>
     <use xlink:href="#ArialMT-5f" x="138.916016"/>
     <use xlink:href="#ArialMT-41" x="194.53125"/>
    </g>
   </g>
  </g>
 </g>
 <defs>
  <clipPath id="p433f980a37">
   <rect x="7.2" y="21.789375" width="558" height="332.64"/>
  </clipPath>
 </defs>
</svg>