<?xml version="1.0" encoding="utf-8" standalone="no"?>
<!DOCTYPE svg PUBLIC "-//W3C//DTD SVG 1.1//EN"
  "http://www.w3.org/Graphics/SVG/1.1/DTD/svg11.dtd">
<svg xmlns:xlink="http://www.w3.org/1999/xlink" width="609.108437pt" height="382.991016pt" viewBox="0 0 609.108437 382.991016" xmlns="http://www.w3.org/2000/svg" version="1.1">
 <metadata>
  <rdf:RDF xmlns:dc="http://purl.org/dc/elements/1.1/" xmlns:cc="http://creativecommons.org/ns#" xmlns:rdf="http://www.w3.org/1999/02/22-rdf-syntax-ns#">
   <cc:Work>
    <dc:type rdf:resource="http://purl.org/dc/dcmitype/StillImage"/>
    <dc:date>2023-05-29T06:59:48.915253</dc:date>
    <dc:format>image/svg+xml</dc:format>
    <dc:creator>
     <cc:Agent>
      <dc:title>Matplotlib v3.7.1, https://matplotlib.org/</dc:title>
     </cc:Agent>
    </dc:creator>
   </cc:Work>
  </rdf:RDF>
 </metadata>
 <defs>
  <style type="text/css">*{stroke-linejoin: round; stroke-linecap: butt}</style>
 </defs>
 <g id="figure_1">
  <g id="patch_1">
   <path d="M 0 382.991016 
L 609.108437 382.991016 
L 609.108437 0 
L 0 0 
z
" style="fill: #ffffff"/>
  </g>
  <g id="axes_1">
   <g id="patch_2">
    <path d="M 43.908437 341.256797 
L 601.908437 341.256797 
L 601.908437 8.616797 
L 43.908437 8.616797 
z
" style="fill: #eaeaf2"/>
   </g>
   <g id="matplotlib.axis_1">
    <g id="xtick_1">
     <g id="line2d_1">
      <path d="M 69.272074 341.256797 
L 69.272074 8.616797 
" clip-path="url(#p4674ae08f3)" style="fill: none; stroke: #ffffff; stroke-linecap: round"/>
     </g>
     <g id="text_1">
      <!-- 0 -->
      <g style="fill: #262626" transform="translate(66.213558 358.630391) scale(0.11 -0.11)">
       <defs>
        <path id="ArialMT-30" d="M 266 2259 
Q 266 3072 433 3567 
Q 600 4063 929 4331 
Q 1259 4600 1759 4600 
Q 2128 4600 2406 4451 
Q 2684 4303 2865 4023 
Q 3047 3744 3150 3342 
Q 3253 2941 3253 2259 
Q 3253 1453 3087 958 
Q 2922 463 2592 192 
Q 2263 -78 1759 -78 
Q 1097 -78 719 397 
Q 266 969 266 2259 
z
M 844 2259 
Q 844 1131 1108 757 
Q 1372 384 1759 384 
Q 2147 384 2411 759 
Q 2675 1134 2675 2259 
Q 2675 3391 2411 3762 
Q 2147 4134 1753 4134 
Q 1366 4134 1134 3806 
Q 844 3388 844 2259 
z
" transform="scale(0.015625)"/>
       </defs>
       <use xlink:href="#ArialMT-30"/>
      </g>
     </g>
    </g>
    <g id="xtick_2">
     <g id="line2d_2">
      <path d="M 184.56133 341.256797 
L 184.56133 8.616797 
" clip-path="url(#p4674ae08f3)" style="fill: none; stroke: #ffffff; stroke-linecap: round"/>
     </g>
     <g id="text_2">
      <!-- 10 -->
      <g style="fill: #262626" transform="translate(178.444299 358.630391) scale(0.11 -0.11)">
       <defs>
        <path id="ArialMT-31" d="M 2384 0 
L 1822 0 
L 1822 3584 
Q 1619 3391 1289 3197 
Q 959 3003 697 2906 
L 697 3450 
Q 1169 3672 1522 3987 
Q 1875 4303 2022 4600 
L 2384 4600 
L 2384 0 
z
" transform="scale(0.015625)"/>
       </defs>
       <use xlink:href="#ArialMT-31"/>
       <use xlink:href="#ArialMT-30" x="55.615234"/>
      </g>
     </g>
    </g>
    <g id="xtick_3">
     <g id="line2d_3">
      <path d="M 299.850586 341.256797 
L 299.850586 8.616797 
" clip-path="url(#p4674ae08f3)" style="fill: none; stroke: #ffffff; stroke-linecap: round"/>
     </g>
     <g id="text_3">
      <!-- 20 -->
      <g style="fill: #262626" transform="translate(293.733555 358.630391) scale(0.11 -0.11)">
       <defs>
        <path id="ArialMT-32" d="M 3222 541 
L 3222 0 
L 194 0 
Q 188 203 259 391 
Q 375 700 629 1000 
Q 884 1300 1366 1694 
Q 2113 2306 2375 2664 
Q 2638 3022 2638 3341 
Q 2638 3675 2398 3904 
Q 2159 4134 1775 4134 
Q 1369 4134 1125 3890 
Q 881 3647 878 3216 
L 300 3275 
Q 359 3922 746 4261 
Q 1134 4600 1788 4600 
Q 2447 4600 2831 4234 
Q 3216 3869 3216 3328 
Q 3216 3053 3103 2787 
Q 2991 2522 2730 2228 
Q 2469 1934 1863 1422 
Q 1356 997 1212 845 
Q 1069 694 975 541 
L 3222 541 
z
" transform="scale(0.015625)"/>
       </defs>
       <use xlink:href="#ArialMT-32"/>
       <use xlink:href="#ArialMT-30" x="55.615234"/>
      </g>
     </g>
    </g>
    <g id="xtick_4">
     <g id="line2d_4">
      <path d="M 415.139842 341.256797 
L 415.139842 8.616797 
" clip-path="url(#p4674ae08f3)" style="fill: none; stroke: #ffffff; stroke-linecap: round"/>
     </g>
     <g id="text_4">
      <!-- 30 -->
      <g style="fill: #262626" transform="translate(409.022811 358.630391) scale(0.11 -0.11)">
       <defs>
        <path id="ArialMT-33" d="M 269 1209 
L 831 1284 
Q 928 806 1161 595 
Q 1394 384 1728 384 
Q 2125 384 2398 659 
Q 2672 934 2672 1341 
Q 2672 1728 2419 1979 
Q 2166 2231 1775 2231 
Q 1616 2231 1378 2169 
L 1441 2663 
Q 1497 2656 1531 2656 
Q 1891 2656 2178 2843 
Q 2466 3031 2466 3422 
Q 2466 3731 2256 3934 
Q 2047 4138 1716 4138 
Q 1388 4138 1169 3931 
Q 950 3725 888 3313 
L 325 3413 
Q 428 3978 793 4289 
Q 1159 4600 1703 4600 
Q 2078 4600 2393 4439 
Q 2709 4278 2876 4000 
Q 3044 3722 3044 3409 
Q 3044 3113 2884 2869 
Q 2725 2625 2413 2481 
Q 2819 2388 3044 2092 
Q 3269 1797 3269 1353 
Q 3269 753 2831 336 
Q 2394 -81 1725 -81 
Q 1122 -81 723 278 
Q 325 638 269 1209 
z
" transform="scale(0.015625)"/>
       </defs>
       <use xlink:href="#ArialMT-33"/>
       <use xlink:href="#ArialMT-30" x="55.615234"/>
      </g>
     </g>
    </g>
    <g id="xtick_5">
     <g id="line2d_5">
      <path d="M 530.429099 341.256797 
L 530.429099 8.616797 
" clip-path="url(#p4674ae08f3)" style="fill: none; stroke: #ffffff; stroke-linecap: round"/>
     </g>
     <g id="text_5">
      <!-- 40 -->
      <g style="fill: #262626" transform="translate(524.312067 358.630391) scale(0.11 -0.11)">
       <defs>
        <path id="ArialMT-34" d="M 2069 0 
L 2069 1097 
L 81 1097 
L 81 1613 
L 2172 4581 
L 2631 4581 
L 2631 1613 
L 3250 1613 
L 3250 1097 
L 2631 1097 
L 2631 0 
L 2069 0 
z
M 2069 1613 
L 2069 3678 
L 634 1613 
L 2069 1613 
z
" transform="scale(0.015625)"/>
       </defs>
       <use xlink:href="#ArialMT-34"/>
       <use xlink:href="#ArialMT-30" x="55.615234"/>
      </g>
     </g>
    </g>
    <g id="text_6">
     <!-- BDI-II -->
     <g style="fill: #262626" transform="translate(307.574687 373.406016) scale(0.12 -0.12)">
      <defs>
       <path id="ArialMT-42" d="M 469 0 
L 469 4581 
L 2188 4581 
Q 2713 4581 3030 4442 
Q 3347 4303 3526 4014 
Q 3706 3725 3706 3409 
Q 3706 3116 3547 2856 
Q 3388 2597 3066 2438 
Q 3481 2316 3704 2022 
Q 3928 1728 3928 1328 
Q 3928 1006 3792 729 
Q 3656 453 3456 303 
Q 3256 153 2954 76 
Q 2653 0 2216 0 
L 469 0 
z
M 1075 2656 
L 2066 2656 
Q 2469 2656 2644 2709 
Q 2875 2778 2992 2937 
Q 3109 3097 3109 3338 
Q 3109 3566 3000 3739 
Q 2891 3913 2687 3977 
Q 2484 4041 1991 4041 
L 1075 4041 
L 1075 2656 
z
M 1075 541 
L 2216 541 
Q 2509 541 2628 563 
Q 2838 600 2978 687 
Q 3119 775 3209 942 
Q 3300 1109 3300 1328 
Q 3300 1584 3169 1773 
Q 3038 1963 2805 2039 
Q 2572 2116 2134 2116 
L 1075 2116 
L 1075 541 
z
" transform="scale(0.015625)"/>
       <path id="ArialMT-44" d="M 494 0 
L 494 4581 
L 2072 4581 
Q 2606 4581 2888 4516 
Q 3281 4425 3559 4188 
Q 3922 3881 4101 3404 
Q 4281 2928 4281 2316 
Q 4281 1794 4159 1391 
Q 4038 988 3847 723 
Q 3656 459 3429 307 
Q 3203 156 2883 78 
Q 2563 0 2147 0 
L 494 0 
z
M 1100 541 
L 2078 541 
Q 2531 541 2789 625 
Q 3047 709 3200 863 
Q 3416 1078 3536 1442 
Q 3656 1806 3656 2325 
Q 3656 3044 3420 3430 
Q 3184 3816 2847 3947 
Q 2603 4041 2063 4041 
L 1100 4041 
L 1100 541 
z
" transform="scale(0.015625)"/>
       <path id="ArialMT-49" d="M 597 0 
L 597 4581 
L 1203 4581 
L 1203 0 
L 597 0 
z
" transform="scale(0.015625)"/>
       <path id="ArialMT-2d" d="M 203 1375 
L 203 1941 
L 1931 1941 
L 1931 1375 
L 203 1375 
z
" transform="scale(0.015625)"/>
      </defs>
      <use xlink:href="#ArialMT-42"/>
      <use xlink:href="#ArialMT-44" x="66.699219"/>
      <use xlink:href="#ArialMT-49" x="138.916016"/>
      <use xlink:href="#ArialMT-2d" x="166.699219"/>
      <use xlink:href="#ArialMT-49" x="200"/>
      <use xlink:href="#ArialMT-49" x="227.783203"/>
     </g>
    </g>
   </g>
   <g id="matplotlib.axis_2">
    <g id="ytick_1">
     <g id="line2d_6">
      <path d="M 43.908437 326.136797 
L 601.908437 326.136797 
" clip-path="url(#p4674ae08f3)" style="fill: none; stroke: #ffffff; stroke-linecap: round"/>
     </g>
     <g id="text_7">
      <!-- 0 -->
      <g style="fill: #262626" transform="translate(28.291406 330.073594) scale(0.11 -0.11)">
       <use xlink:href="#ArialMT-30"/>
      </g>
     </g>
    </g>
    <g id="ytick_2">
     <g id="line2d_7">
      <path d="M 43.908437 263.136797 
L 601.908437 263.136797 
" clip-path="url(#p4674ae08f3)" style="fill: none; stroke: #ffffff; stroke-linecap: round"/>
     </g>
     <g id="text_8">
      <!-- 10 -->
      <g style="fill: #262626" transform="translate(22.174375 267.073594) scale(0.11 -0.11)">
       <use xlink:href="#ArialMT-31"/>
       <use xlink:href="#ArialMT-30" x="55.615234"/>
      </g>
     </g>
    </g>
    <g id="ytick_3">
     <g id="line2d_8">
      <path d="M 43.908437 200.136797 
L 601.908437 200.136797 
" clip-path="url(#p4674ae08f3)" style="fill: none; stroke: #ffffff; stroke-linecap: round"/>
     </g>
     <g id="text_9">
      <!-- 20 -->
      <g style="fill: #262626" transform="translate(22.174375 204.073594) scale(0.11 -0.11)">
       <use xlink:href="#ArialMT-32"/>
       <use xlink:href="#ArialMT-30" x="55.615234"/>
      </g>
     </g>
    </g>
    <g id="ytick_4">
     <g id="line2d_9">
      <path d="M 43.908437 137.136797 
L 601.908437 137.136797 
" clip-path="url(#p4674ae08f3)" style="fill: none; stroke: #ffffff; stroke-linecap: round"/>
     </g>
     <g id="text_10">
      <!-- 30 -->
      <g style="fill: #262626" transform="translate(22.174375 141.073594) scale(0.11 -0.11)">
       <use xlink:href="#ArialMT-33"/>
       <use xlink:href="#ArialMT-30" x="55.615234"/>
      </g>
     </g>
    </g>
    <g id="ytick_5">
     <g id="line2d_10">
      <path d="M 43.908437 74.136797 
L 601.908437 74.136797 
" clip-path="url(#p4674ae08f3)" style="fill: none; stroke: #ffffff; stroke-linecap: round"/>
     </g>
     <g id="text_11">
      <!-- 40 -->
      <g style="fill: #262626" transform="translate(22.174375 78.073594) scale(0.11 -0.11)">
       <use xlink:href="#ArialMT-34"/>
       <use xlink:href="#ArialMT-30" x="55.615234"/>
      </g>
     </g>
    </g>
    <g id="ytick_6">
     <g id="line2d_11">
      <path d="M 43.908437 11.136797 
L 601.908437 11.136797 
" clip-path="url(#p4674ae08f3)" style="fill: none; stroke: #ffffff; stroke-linecap: round"/>
     </g>
     <g id="text_12">
      <!-- 50 -->
      <g style="fill: #262626" transform="translate(22.174375 15.073594) scale(0.11 -0.11)">
       <defs>
        <path id="ArialMT-35" d="M 266 1200 
L 856 1250 
Q 922 819 1161 601 
Q 1400 384 1738 384 
Q 2144 384 2425 690 
Q 2706 997 2706 1503 
Q 2706 1984 2436 2262 
Q 2166 2541 1728 2541 
Q 1456 2541 1237 2417 
Q 1019 2294 894 2097 
L 366 2166 
L 809 4519 
L 3088 4519 
L 3088 3981 
L 1259 3981 
L 1013 2750 
Q 1425 3038 1878 3038 
Q 2478 3038 2890 2622 
Q 3303 2206 3303 1553 
Q 3303 931 2941 478 
Q 2500 -78 1738 -78 
Q 1113 -78 717 272 
Q 322 622 266 1200 
z
" transform="scale(0.015625)"/>
       </defs>
       <use xlink:href="#ArialMT-35"/>
       <use xlink:href="#ArialMT-30" x="55.615234"/>
      </g>
     </g>
    </g>
    <g id="text_13">
     <!-- CESD -->
     <g style="fill: #262626" transform="translate(15.789375 191.607422) rotate(-90) scale(0.12 -0.12)">
      <defs>
       <path id="ArialMT-43" d="M 3763 1606 
L 4369 1453 
Q 4178 706 3683 314 
Q 3188 -78 2472 -78 
Q 1731 -78 1267 223 
Q 803 525 561 1097 
Q 319 1669 319 2325 
Q 319 3041 592 3573 
Q 866 4106 1370 4382 
Q 1875 4659 2481 4659 
Q 3169 4659 3637 4309 
Q 4106 3959 4291 3325 
L 3694 3184 
Q 3534 3684 3231 3912 
Q 2928 4141 2469 4141 
Q 1941 4141 1586 3887 
Q 1231 3634 1087 3207 
Q 944 2781 944 2328 
Q 944 1744 1114 1308 
Q 1284 872 1643 656 
Q 2003 441 2422 441 
Q 2931 441 3284 734 
Q 3638 1028 3763 1606 
z
" transform="scale(0.015625)"/>
       <path id="ArialMT-45" d="M 506 0 
L 506 4581 
L 3819 4581 
L 3819 4041 
L 1113 4041 
L 1113 2638 
L 3647 2638 
L 3647 2100 
L 1113 2100 
L 1113 541 
L 3925 541 
L 3925 0 
L 506 0 
z
" transform="scale(0.015625)"/>
       <path id="ArialMT-53" d="M 288 1472 
L 859 1522 
Q 900 1178 1048 958 
Q 1197 738 1509 602 
Q 1822 466 2213 466 
Q 2559 466 2825 569 
Q 3091 672 3220 851 
Q 3350 1031 3350 1244 
Q 3350 1459 3225 1620 
Q 3100 1781 2813 1891 
Q 2628 1963 1997 2114 
Q 1366 2266 1113 2400 
Q 784 2572 623 2826 
Q 463 3081 463 3397 
Q 463 3744 659 4045 
Q 856 4347 1234 4503 
Q 1613 4659 2075 4659 
Q 2584 4659 2973 4495 
Q 3363 4331 3572 4012 
Q 3781 3694 3797 3291 
L 3216 3247 
Q 3169 3681 2898 3903 
Q 2628 4125 2100 4125 
Q 1550 4125 1298 3923 
Q 1047 3722 1047 3438 
Q 1047 3191 1225 3031 
Q 1400 2872 2139 2705 
Q 2878 2538 3153 2413 
Q 3553 2228 3743 1945 
Q 3934 1663 3934 1294 
Q 3934 928 3725 604 
Q 3516 281 3123 101 
Q 2731 -78 2241 -78 
Q 1619 -78 1198 103 
Q 778 284 539 648 
Q 300 1013 288 1472 
z
" transform="scale(0.015625)"/>
      </defs>
      <use xlink:href="#ArialMT-43"/>
      <use xlink:href="#ArialMT-45" x="72.216797"/>
      <use xlink:href="#ArialMT-53" x="138.916016"/>
      <use xlink:href="#ArialMT-44" x="205.615234"/>
     </g>
    </g>
   </g>
   <g id="PathCollection_1">
    <defs>
     <path id="m7f2c87199e" d="M 0 3 
C 0.795609 3 1.55874 2.683901 2.12132 2.12132 
C 2.683901 1.55874 3 0.795609 3 0 
C 3 -0.795609 2.683901 -1.55874 2.12132 -2.12132 
C 1.55874 -2.683901 0.795609 -3 0 -3 
C -0.795609 -3 -1.55874 -2.683901 -2.12132 -2.12132 
C -2.683901 -1.55874 -3 -0.795609 -3 0 
C -3 0.795609 -2.683901 1.55874 -2.12132 2.12132 
C -1.55874 2.683901 -0.795609 3 0 3 
z
" style="stroke: #0173b2"/>
    </defs>
    <g clip-path="url(#p4674ae08f3)">
     <use xlink:href="#m7f2c87199e" x="357.495214" y="168.636797" style="fill: #0173b2; stroke: #0173b2"/>
     <use xlink:href="#m7f2c87199e" x="415.139842" y="143.436797" style="fill: #0173b2; stroke: #0173b2"/>
     <use xlink:href="#m7f2c87199e" x="369.02414" y="30.036797" style="fill: #0173b2; stroke: #0173b2"/>
     <use xlink:href="#m7f2c87199e" x="472.784471" y="105.636797" style="fill: #0173b2; stroke: #0173b2"/>
     <use xlink:href="#m7f2c87199e" x="576.544801" y="93.036797" style="fill: #0173b2; stroke: #0173b2"/>
     <use xlink:href="#m7f2c87199e" x="415.139842" y="86.736797" style="fill: #0173b2; stroke: #0173b2"/>
     <use xlink:href="#m7f2c87199e" x="322.908437" y="111.936797" style="fill: #0173b2; stroke: #0173b2"/>
     <use xlink:href="#m7f2c87199e" x="449.726619" y="86.736797" style="fill: #0173b2; stroke: #0173b2"/>
     <use xlink:href="#m7f2c87199e" x="565.015876" y="48.936797" style="fill: #0173b2; stroke: #0173b2"/>
     <use xlink:href="#m7f2c87199e" x="565.015876" y="23.736797" style="fill: #0173b2; stroke: #0173b2"/>
     <use xlink:href="#m7f2c87199e" x="345.966289" y="206.436797" style="fill: #0173b2; stroke: #0173b2"/>
     <use xlink:href="#m7f2c87199e" x="518.900173" y="99.336797" style="fill: #0173b2; stroke: #0173b2"/>
     <use xlink:href="#m7f2c87199e" x="288.321661" y="143.436797" style="fill: #0173b2; stroke: #0173b2"/>
     <use xlink:href="#m7f2c87199e" x="103.858851" y="225.336797" style="fill: #0173b2; stroke: #0173b2"/>
     <use xlink:href="#m7f2c87199e" x="69.272074" y="275.736797" style="fill: #0173b2; stroke: #0173b2"/>
     <use xlink:href="#m7f2c87199e" x="357.495214" y="86.736797" style="fill: #0173b2; stroke: #0173b2"/>
     <use xlink:href="#m7f2c87199e" x="69.272074" y="250.536797" style="fill: #0173b2; stroke: #0173b2"/>
     <use xlink:href="#m7f2c87199e" x="80.800999" y="294.636797" style="fill: #0173b2; stroke: #0173b2"/>
     <use xlink:href="#m7f2c87199e" x="426.668768" y="231.636797" style="fill: #0173b2; stroke: #0173b2"/>
     <use xlink:href="#m7f2c87199e" x="392.081991" y="111.936797" style="fill: #0173b2; stroke: #0173b2"/>
     <use xlink:href="#m7f2c87199e" x="92.329925" y="225.336797" style="fill: #0173b2; stroke: #0173b2"/>
     <use xlink:href="#m7f2c87199e" x="69.272074" y="326.136797" style="fill: #0173b2; stroke: #0173b2"/>
     <use xlink:href="#m7f2c87199e" x="69.272074" y="294.636797" style="fill: #0173b2; stroke: #0173b2"/>
     <use xlink:href="#m7f2c87199e" x="92.329925" y="275.736797" style="fill: #0173b2; stroke: #0173b2"/>
     <use xlink:href="#m7f2c87199e" x="69.272074" y="294.636797" style="fill: #0173b2; stroke: #0173b2"/>
     <use xlink:href="#m7f2c87199e" x="69.272074" y="269.436797" style="fill: #0173b2; stroke: #0173b2"/>
     <use xlink:href="#m7f2c87199e" x="69.272074" y="288.336797" style="fill: #0173b2; stroke: #0173b2"/>
     <use xlink:href="#m7f2c87199e" x="149.974553" y="212.736797" style="fill: #0173b2; stroke: #0173b2"/>
     <use xlink:href="#m7f2c87199e" x="415.139842" y="67.836797" style="fill: #0173b2; stroke: #0173b2"/>
     <use xlink:href="#m7f2c87199e" x="69.272074" y="294.636797" style="fill: #0173b2; stroke: #0173b2"/>
     <use xlink:href="#m7f2c87199e" x="472.784471" y="36.336797" style="fill: #0173b2; stroke: #0173b2"/>
     <use xlink:href="#m7f2c87199e" x="69.272074" y="282.036797" style="fill: #0173b2; stroke: #0173b2"/>
     <use xlink:href="#m7f2c87199e" x="80.800999" y="313.536797" style="fill: #0173b2; stroke: #0173b2"/>
     <use xlink:href="#m7f2c87199e" x="69.272074" y="307.236797" style="fill: #0173b2; stroke: #0173b2"/>
     <use xlink:href="#m7f2c87199e" x="92.329925" y="250.536797" style="fill: #0173b2; stroke: #0173b2"/>
     <use xlink:href="#m7f2c87199e" x="426.668768" y="111.936797" style="fill: #0173b2; stroke: #0173b2"/>
     <use xlink:href="#m7f2c87199e" x="369.02414" y="99.336797" style="fill: #0173b2; stroke: #0173b2"/>
     <use xlink:href="#m7f2c87199e" x="69.272074" y="294.636797" style="fill: #0173b2; stroke: #0173b2"/>
     <use xlink:href="#m7f2c87199e" x="80.800999" y="269.436797" style="fill: #0173b2; stroke: #0173b2"/>
     <use xlink:href="#m7f2c87199e" x="69.272074" y="288.336797" style="fill: #0173b2; stroke: #0173b2"/>
     <use xlink:href="#m7f2c87199e" x="69.272074" y="313.536797" style="fill: #0173b2; stroke: #0173b2"/>
     <use xlink:href="#m7f2c87199e" x="69.272074" y="288.336797" style="fill: #0173b2; stroke: #0173b2"/>
     <use xlink:href="#m7f2c87199e" x="80.800999" y="263.136797" style="fill: #0173b2; stroke: #0173b2"/>
     <use xlink:href="#m7f2c87199e" x="484.313396" y="30.036797" style="fill: #0173b2; stroke: #0173b2"/>
     <use xlink:href="#m7f2c87199e" x="541.958024" y="130.836797" style="fill: #0173b2; stroke: #0173b2"/>
     <use xlink:href="#m7f2c87199e" x="369.02414" y="48.936797" style="fill: #0173b2; stroke: #0173b2"/>
     <use xlink:href="#m7f2c87199e" x="472.784471" y="187.536797" style="fill: #0173b2; stroke: #0173b2"/>
     <use xlink:href="#m7f2c87199e" x="449.726619" y="80.436797" style="fill: #0173b2; stroke: #0173b2"/>
     <use xlink:href="#m7f2c87199e" x="207.619181" y="206.436797" style="fill: #0173b2; stroke: #0173b2"/>
     <use xlink:href="#m7f2c87199e" x="392.081991" y="168.636797" style="fill: #0173b2; stroke: #0173b2"/>
     <use xlink:href="#m7f2c87199e" x="80.800999" y="288.336797" style="fill: #0173b2; stroke: #0173b2"/>
     <use xlink:href="#m7f2c87199e" x="380.553066" y="149.736797" style="fill: #0173b2; stroke: #0173b2"/>
     <use xlink:href="#m7f2c87199e" x="461.255545" y="143.436797" style="fill: #0173b2; stroke: #0173b2"/>
     <use xlink:href="#m7f2c87199e" x="322.908437" y="156.036797" style="fill: #0173b2; stroke: #0173b2"/>
     <use xlink:href="#m7f2c87199e" x="380.553066" y="80.436797" style="fill: #0173b2; stroke: #0173b2"/>
     <use xlink:href="#m7f2c87199e" x="80.800999" y="326.136797" style="fill: #0173b2; stroke: #0173b2"/>
     <use xlink:href="#m7f2c87199e" x="103.858851" y="300.936797" style="fill: #0173b2; stroke: #0173b2"/>
     <use xlink:href="#m7f2c87199e" x="80.800999" y="288.336797" style="fill: #0173b2; stroke: #0173b2"/>
     <use xlink:href="#m7f2c87199e" x="126.916702" y="263.136797" style="fill: #0173b2; stroke: #0173b2"/>
     <use xlink:href="#m7f2c87199e" x="103.858851" y="275.736797" style="fill: #0173b2; stroke: #0173b2"/>
     <use xlink:href="#m7f2c87199e" x="173.032404" y="282.036797" style="fill: #0173b2; stroke: #0173b2"/>
     <use xlink:href="#m7f2c87199e" x="69.272074" y="244.236797" style="fill: #0173b2; stroke: #0173b2"/>
     <use xlink:href="#m7f2c87199e" x="92.329925" y="307.236797" style="fill: #0173b2; stroke: #0173b2"/>
     <use xlink:href="#m7f2c87199e" x="69.272074" y="263.136797" style="fill: #0173b2; stroke: #0173b2"/>
     <use xlink:href="#m7f2c87199e" x="69.272074" y="288.336797" style="fill: #0173b2; stroke: #0173b2"/>
     <use xlink:href="#m7f2c87199e" x="80.800999" y="294.636797" style="fill: #0173b2; stroke: #0173b2"/>
    </g>
   </g>
   <g id="line2d_12">
    <path d="M 241.507235 341.256797 
L 241.507235 8.616797 
" clip-path="url(#p4674ae08f3)" style="fill: none; stroke: #0173b2; stroke-opacity: 0.2; stroke-width: 1.5; stroke-linecap: round"/>
   </g>
   <g id="line2d_13">
    <path d="M 43.908437 201.473161 
L 601.908437 201.473161 
" clip-path="url(#p4674ae08f3)" style="fill: none; stroke: #0173b2; stroke-opacity: 0.2; stroke-width: 1.5; stroke-linecap: round"/>
   </g>
   <g id="patch_3">
    <path d="M 43.908437 341.256797 
L 43.908437 8.616797 
" style="fill: none; stroke: #ffffff; stroke-width: 1.25; stroke-linejoin: miter; stroke-linecap: square"/>
   </g>
   <g id="patch_4">
    <path d="M 601.908437 341.256797 
L 601.908437 8.616797 
" style="fill: none; stroke: #ffffff; stroke-width: 1.25; stroke-linejoin: miter; stroke-linecap: square"/>
   </g>
   <g id="patch_5">
    <path d="M 43.908438 341.256797 
L 601.908437 341.256797 
" style="fill: none; stroke: #ffffff; stroke-width: 1.25; stroke-linejoin: miter; stroke-linecap: square"/>
   </g>
   <g id="patch_6">
    <path d="M 43.908438 8.616797 
L 601.908437 8.616797 
" style="fill: none; stroke: #ffffff; stroke-width: 1.25; stroke-linejoin: miter; stroke-linecap: square"/>
   </g>
  </g>
 </g>
 <defs>
  <clipPath id="p4674ae08f3">
   <rect x="43.908437" y="8.616797" width="558" height="332.64"/>
  </clipPath>
 </defs>
</svg>