<?xml version="1.0" encoding="UTF-8" standalone="no"?>
<!DOCTYPE svg PUBLIC "-//W3C//DTD SVG 1.1//EN"
 "http://www.w3.org/Graphics/SVG/1.1/DTD/svg11.dtd">
<!-- Generated by graphviz version 8.0.5 (20230430.1635)
 -->
<!-- Pages: 1 -->
<svg width="224pt" height="247pt"
 viewBox="0.00 0.00 223.99 247.13" xmlns="http://www.w3.org/2000/svg" xmlns:xlink="http://www.w3.org/1999/xlink">
<g id="graph0" class="graph" transform="scale(1 1) rotate(0) translate(4 243.13)">
<polygon fill="white" stroke="none" points="-4,4 -4,-243.13 219.99,-243.13 219.99,4 -4,4"/>
<g id="clust1" class="cluster">
<title>cluster146</title>
<path fill="none" stroke="black" d="M78.98,-8C78.98,-8 152.98,-8 152.98,-8 158.98,-8 164.98,-14 164.98,-20 164.98,-20 164.98,-117.82 164.98,-117.82 164.98,-123.82 158.98,-129.82 152.98,-129.82 152.98,-129.82 78.98,-129.82 78.98,-129.82 72.98,-129.82 66.98,-123.82 66.98,-117.82 66.98,-117.82 66.98,-20 66.98,-20 66.98,-14 72.98,-8 78.98,-8"/>
<text text-anchor="middle" x="146.86" y="-15.2" font-family="Times,serif" font-size="14.00">146</text>
</g>
<!-- sigma -->
<g id="node1" class="node">
<title>sigma</title>
<ellipse fill="none" stroke="black" cx="57.98" cy="-198.48" rx="57.98" ry="40.66"/>
<text text-anchor="middle" x="57.98" y="-209.93" font-family="Times,serif" font-size="14.00">sigma</text>
<text text-anchor="middle" x="57.98" y="-193.43" font-family="Times,serif" font-size="14.00">~</text>
<text text-anchor="middle" x="57.98" y="-176.93" font-family="Times,serif" font-size="14.00">HalfNormal</text>
</g>
<!-- mass -->
<g id="node3" class="node">
<title>mass</title>
<ellipse fill="lightgrey" stroke="black" cx="115.98" cy="-81.16" rx="41.01" ry="40.66"/>
<text text-anchor="middle" x="115.98" y="-92.61" font-family="Times,serif" font-size="14.00">mass</text>
<text text-anchor="middle" x="115.98" y="-76.11" font-family="Times,serif" font-size="14.00">~</text>
<text text-anchor="middle" x="115.98" y="-59.61" font-family="Times,serif" font-size="14.00">Normal</text>
</g>
<!-- sigma&#45;&gt;mass -->
<g id="edge1" class="edge">
<title>sigma&#45;&gt;mass</title>
<path fill="none" stroke="black" d="M76.97,-159.72C82.13,-149.46 87.78,-138.24 93.13,-127.6"/>
<polygon fill="black" stroke="black" points="96.57,-129.55 97.93,-119.04 90.31,-126.4 96.57,-129.55"/>
</g>
<!-- mu -->
<g id="node2" class="node">
<title>mu</title>
<ellipse fill="none" stroke="black" cx="174.98" cy="-198.48" rx="41.01" ry="40.66"/>
<text text-anchor="middle" x="174.98" y="-209.93" font-family="Times,serif" font-size="14.00">mu</text>
<text text-anchor="middle" x="174.98" y="-193.43" font-family="Times,serif" font-size="14.00">~</text>
<text text-anchor="middle" x="174.98" y="-176.93" font-family="Times,serif" font-size="14.00">Normal</text>
</g>
<!-- mu&#45;&gt;mass -->
<g id="edge2" class="edge">
<title>mu&#45;&gt;mass</title>
<path fill="none" stroke="black" d="M156.64,-161.62C151.14,-150.88 145.04,-138.96 139.28,-127.69"/>
<polygon fill="black" stroke="black" points="141.99,-126.3 134.32,-118.99 135.75,-129.49 141.99,-126.3"/>
</g>
</g>
</svg>