<?xml version="1.0" encoding="utf-8" standalone="no"?>
<!DOCTYPE svg PUBLIC "-//W3C//DTD SVG 1.1//EN"
  "http://www.w3.org/Graphics/SVG/1.1/DTD/svg11.dtd">
<svg xmlns:xlink="http://www.w3.org/1999/xlink" width="652.249531pt" height="366.599844pt" viewBox="0 0 652.249531 366.599844" xmlns="http://www.w3.org/2000/svg" version="1.1">
 <metadata>
  <rdf:RDF xmlns:dc="http://purl.org/dc/elements/1.1/" xmlns:cc="http://creativecommons.org/ns#" xmlns:rdf="http://www.w3.org/1999/02/22-rdf-syntax-ns#">
   <cc:Work>
    <dc:type rdf:resource="http://purl.org/dc/dcmitype/StillImage"/>
    <dc:date>2023-05-08T07:12:51.397372</dc:date>
    <dc:format>image/svg+xml</dc:format>
    <dc:creator>
     <cc:Agent>
      <dc:title>Matplotlib v3.7.1, https://matplotlib.org/</dc:title>
     </cc:Agent>
    </dc:creator>
   </cc:Work>
  </rdf:RDF>
 </metadata>
 <defs>
  <style type="text/css">*{stroke-linejoin: round; stroke-linecap: butt}</style>
 </defs>
 <g id="figure_1">
  <g id="patch_1">
   <path d="M 0 366.599844 
L 652.249531 366.599844 
L 652.249531 0 
L 0 0 
z
" style="fill: #ffffff"/>
  </g>
  <g id="axes_1">
   <g id="patch_2">
    <path d="M 50.025469 339.84 
L 608.025469 339.84 
L 608.025469 7.2 
L 50.025469 7.2 
z
" style="fill: #eaeaf2"/>
   </g>
   <g id="matplotlib.axis_1">
    <g id="xtick_1">
     <g id="line2d_1">
      <path d="M 103.570923 339.84 
L 103.570923 7.2 
" clip-path="url(#p5fda2899b1)" style="fill: none; stroke: #ffffff; stroke-linecap: round"/>
     </g>
     <g id="text_1">
      <!-- 60 -->
      <g style="fill: #262626" transform="translate(97.453892 357.213594) scale(0.11 -0.11)">
       <defs>
        <path id="ArialMT-36" d="M 3184 3459 
L 2625 3416 
Q 2550 3747 2413 3897 
Q 2184 4138 1850 4138 
Q 1581 4138 1378 3988 
Q 1113 3794 959 3422 
Q 806 3050 800 2363 
Q 1003 2672 1297 2822 
Q 1591 2972 1913 2972 
Q 2475 2972 2870 2558 
Q 3266 2144 3266 1488 
Q 3266 1056 3080 686 
Q 2894 316 2569 119 
Q 2244 -78 1831 -78 
Q 1128 -78 684 439 
Q 241 956 241 2144 
Q 241 3472 731 4075 
Q 1159 4600 1884 4600 
Q 2425 4600 2770 4297 
Q 3116 3994 3184 3459 
z
M 888 1484 
Q 888 1194 1011 928 
Q 1134 663 1356 523 
Q 1578 384 1822 384 
Q 2178 384 2434 671 
Q 2691 959 2691 1453 
Q 2691 1928 2437 2201 
Q 2184 2475 1800 2475 
Q 1419 2475 1153 2201 
Q 888 1928 888 1484 
z
" transform="scale(0.015625)"/>
        <path id="ArialMT-30" d="M 266 2259 
Q 266 3072 433 3567 
Q 600 4063 929 4331 
Q 1259 4600 1759 4600 
Q 2128 4600 2406 4451 
Q 2684 4303 2865 4023 
Q 3047 3744 3150 3342 
Q 3253 2941 3253 2259 
Q 3253 1453 3087 958 
Q 2922 463 2592 192 
Q 2263 -78 1759 -78 
Q 1097 -78 719 397 
Q 266 969 266 2259 
z
M 844 2259 
Q 844 1131 1108 757 
Q 1372 384 1759 384 
Q 2147 384 2411 759 
Q 2675 1134 2675 2259 
Q 2675 3391 2411 3762 
Q 2147 4134 1753 4134 
Q 1366 4134 1134 3806 
Q 844 3388 844 2259 
z
" transform="scale(0.015625)"/>
       </defs>
       <use xlink:href="#ArialMT-36"/>
       <use xlink:href="#ArialMT-30" x="55.615234"/>
      </g>
     </g>
    </g>
    <g id="xtick_2">
     <g id="line2d_2">
      <path d="M 216.298196 339.84 
L 216.298196 7.2 
" clip-path="url(#p5fda2899b1)" style="fill: none; stroke: #ffffff; stroke-linecap: round"/>
     </g>
     <g id="text_2">
      <!-- 80 -->
      <g style="fill: #262626" transform="translate(210.181165 357.213594) scale(0.11 -0.11)">
       <defs>
        <path id="ArialMT-38" d="M 1131 2484 
Q 781 2613 612 2850 
Q 444 3088 444 3419 
Q 444 3919 803 4259 
Q 1163 4600 1759 4600 
Q 2359 4600 2725 4251 
Q 3091 3903 3091 3403 
Q 3091 3084 2923 2848 
Q 2756 2613 2416 2484 
Q 2838 2347 3058 2040 
Q 3278 1734 3278 1309 
Q 3278 722 2862 322 
Q 2447 -78 1769 -78 
Q 1091 -78 675 323 
Q 259 725 259 1325 
Q 259 1772 486 2073 
Q 713 2375 1131 2484 
z
M 1019 3438 
Q 1019 3113 1228 2906 
Q 1438 2700 1772 2700 
Q 2097 2700 2305 2904 
Q 2513 3109 2513 3406 
Q 2513 3716 2298 3927 
Q 2084 4138 1766 4138 
Q 1444 4138 1231 3931 
Q 1019 3725 1019 3438 
z
M 838 1322 
Q 838 1081 952 856 
Q 1066 631 1291 507 
Q 1516 384 1775 384 
Q 2178 384 2440 643 
Q 2703 903 2703 1303 
Q 2703 1709 2433 1975 
Q 2163 2241 1756 2241 
Q 1359 2241 1098 1978 
Q 838 1716 838 1322 
z
" transform="scale(0.015625)"/>
       </defs>
       <use xlink:href="#ArialMT-38"/>
       <use xlink:href="#ArialMT-30" x="55.615234"/>
      </g>
     </g>
    </g>
    <g id="xtick_3">
     <g id="line2d_3">
      <path d="M 329.025469 339.84 
L 329.025469 7.2 
" clip-path="url(#p5fda2899b1)" style="fill: none; stroke: #ffffff; stroke-linecap: round"/>
     </g>
     <g id="text_3">
      <!-- 100 -->
      <g style="fill: #262626" transform="translate(319.849922 357.213594) scale(0.11 -0.11)">
       <defs>
        <path id="ArialMT-31" d="M 2384 0 
L 1822 0 
L 1822 3584 
Q 1619 3391 1289 3197 
Q 959 3003 697 2906 
L 697 3450 
Q 1169 3672 1522 3987 
Q 1875 4303 2022 4600 
L 2384 4600 
L 2384 0 
z
" transform="scale(0.015625)"/>
       </defs>
       <use xlink:href="#ArialMT-31"/>
       <use xlink:href="#ArialMT-30" x="55.615234"/>
       <use xlink:href="#ArialMT-30" x="111.230469"/>
      </g>
     </g>
    </g>
    <g id="xtick_4">
     <g id="line2d_4">
      <path d="M 441.752741 339.84 
L 441.752741 7.2 
" clip-path="url(#p5fda2899b1)" style="fill: none; stroke: #ffffff; stroke-linecap: round"/>
     </g>
     <g id="text_4">
      <!-- 120 -->
      <g style="fill: #262626" transform="translate(432.577195 357.213594) scale(0.11 -0.11)">
       <defs>
        <path id="ArialMT-32" d="M 3222 541 
L 3222 0 
L 194 0 
Q 188 203 259 391 
Q 375 700 629 1000 
Q 884 1300 1366 1694 
Q 2113 2306 2375 2664 
Q 2638 3022 2638 3341 
Q 2638 3675 2398 3904 
Q 2159 4134 1775 4134 
Q 1369 4134 1125 3890 
Q 881 3647 878 3216 
L 300 3275 
Q 359 3922 746 4261 
Q 1134 4600 1788 4600 
Q 2447 4600 2831 4234 
Q 3216 3869 3216 3328 
Q 3216 3053 3103 2787 
Q 2991 2522 2730 2228 
Q 2469 1934 1863 1422 
Q 1356 997 1212 845 
Q 1069 694 975 541 
L 3222 541 
z
" transform="scale(0.015625)"/>
       </defs>
       <use xlink:href="#ArialMT-31"/>
       <use xlink:href="#ArialMT-32" x="55.615234"/>
       <use xlink:href="#ArialMT-30" x="111.230469"/>
      </g>
     </g>
    </g>
    <g id="xtick_5">
     <g id="line2d_5">
      <path d="M 554.480014 339.84 
L 554.480014 7.2 
" clip-path="url(#p5fda2899b1)" style="fill: none; stroke: #ffffff; stroke-linecap: round"/>
     </g>
     <g id="text_5">
      <!-- 140 -->
      <g style="fill: #262626" transform="translate(545.304467 357.213594) scale(0.11 -0.11)">
       <defs>
        <path id="ArialMT-34" d="M 2069 0 
L 2069 1097 
L 81 1097 
L 81 1613 
L 2172 4581 
L 2631 4581 
L 2631 1613 
L 3250 1613 
L 3250 1097 
L 2631 1097 
L 2631 0 
L 2069 0 
z
M 2069 1613 
L 2069 3678 
L 634 1613 
L 2069 1613 
z
" transform="scale(0.015625)"/>
       </defs>
       <use xlink:href="#ArialMT-31"/>
       <use xlink:href="#ArialMT-34" x="55.615234"/>
       <use xlink:href="#ArialMT-30" x="111.230469"/>
      </g>
     </g>
    </g>
   </g>
   <g id="matplotlib.axis_2">
    <g id="ytick_1">
     <g id="line2d_6">
      <path d="M 50.025469 339.84 
L 608.025469 339.84 
" clip-path="url(#p5fda2899b1)" style="fill: none; stroke: #ffffff; stroke-linecap: round"/>
     </g>
     <g id="line2d_7">
      <defs>
       <path id="m82f8ddec85" d="M 0 0 
L -6 0 
" style="stroke: #262626; stroke-width: 1.25"/>
      </defs>
      <g>
       <use xlink:href="#m82f8ddec85" x="50.025469" y="339.84" style="fill: #262626; stroke: #262626; stroke-width: 1.25"/>
      </g>
     </g>
     <g id="text_6">
      <!-- 0 -->
      <g style="fill: #262626" transform="translate(34.408438 343.776797) scale(0.11 -0.11)">
       <use xlink:href="#ArialMT-30"/>
      </g>
     </g>
    </g>
    <g id="ytick_2">
     <g id="line2d_8">
      <path d="M 50.025469 286.951853 
L 608.025469 286.951853 
" clip-path="url(#p5fda2899b1)" style="fill: none; stroke: #ffffff; stroke-linecap: round"/>
     </g>
     <g id="line2d_9">
      <g>
       <use xlink:href="#m82f8ddec85" x="50.025469" y="286.951853" style="fill: #262626; stroke: #262626; stroke-width: 1.25"/>
      </g>
     </g>
     <g id="text_7">
      <!-- 100 -->
      <g style="fill: #262626" transform="translate(22.174375 290.88865) scale(0.11 -0.11)">
       <use xlink:href="#ArialMT-31"/>
       <use xlink:href="#ArialMT-30" x="55.615234"/>
       <use xlink:href="#ArialMT-30" x="111.230469"/>
      </g>
     </g>
    </g>
    <g id="ytick_3">
     <g id="line2d_10">
      <path d="M 50.025469 234.063706 
L 608.025469 234.063706 
" clip-path="url(#p5fda2899b1)" style="fill: none; stroke: #ffffff; stroke-linecap: round"/>
     </g>
     <g id="line2d_11">
      <g>
       <use xlink:href="#m82f8ddec85" x="50.025469" y="234.063706" style="fill: #262626; stroke: #262626; stroke-width: 1.25"/>
      </g>
     </g>
     <g id="text_8">
      <!-- 200 -->
      <g style="fill: #262626" transform="translate(22.174375 238.000503) scale(0.11 -0.11)">
       <use xlink:href="#ArialMT-32"/>
       <use xlink:href="#ArialMT-30" x="55.615234"/>
       <use xlink:href="#ArialMT-30" x="111.230469"/>
      </g>
     </g>
    </g>
    <g id="ytick_4">
     <g id="line2d_12">
      <path d="M 50.025469 181.175559 
L 608.025469 181.175559 
" clip-path="url(#p5fda2899b1)" style="fill: none; stroke: #ffffff; stroke-linecap: round"/>
     </g>
     <g id="line2d_13">
      <g>
       <use xlink:href="#m82f8ddec85" x="50.025469" y="181.175559" style="fill: #262626; stroke: #262626; stroke-width: 1.25"/>
      </g>
     </g>
     <g id="text_9">
      <!-- 300 -->
      <g style="fill: #262626" transform="translate(22.174375 185.112356) scale(0.11 -0.11)">
       <defs>
        <path id="ArialMT-33" d="M 269 1209 
L 831 1284 
Q 928 806 1161 595 
Q 1394 384 1728 384 
Q 2125 384 2398 659 
Q 2672 934 2672 1341 
Q 2672 1728 2419 1979 
Q 2166 2231 1775 2231 
Q 1616 2231 1378 2169 
L 1441 2663 
Q 1497 2656 1531 2656 
Q 1891 2656 2178 2843 
Q 2466 3031 2466 3422 
Q 2466 3731 2256 3934 
Q 2047 4138 1716 4138 
Q 1388 4138 1169 3931 
Q 950 3725 888 3313 
L 325 3413 
Q 428 3978 793 4289 
Q 1159 4600 1703 4600 
Q 2078 4600 2393 4439 
Q 2709 4278 2876 4000 
Q 3044 3722 3044 3409 
Q 3044 3113 2884 2869 
Q 2725 2625 2413 2481 
Q 2819 2388 3044 2092 
Q 3269 1797 3269 1353 
Q 3269 753 2831 336 
Q 2394 -81 1725 -81 
Q 1122 -81 723 278 
Q 325 638 269 1209 
z
" transform="scale(0.015625)"/>
       </defs>
       <use xlink:href="#ArialMT-33"/>
       <use xlink:href="#ArialMT-30" x="55.615234"/>
       <use xlink:href="#ArialMT-30" x="111.230469"/>
      </g>
     </g>
    </g>
    <g id="ytick_5">
     <g id="line2d_14">
      <path d="M 50.025469 128.287412 
L 608.025469 128.287412 
" clip-path="url(#p5fda2899b1)" style="fill: none; stroke: #ffffff; stroke-linecap: round"/>
     </g>
     <g id="line2d_15">
      <g>
       <use xlink:href="#m82f8ddec85" x="50.025469" y="128.287412" style="fill: #262626; stroke: #262626; stroke-width: 1.25"/>
      </g>
     </g>
     <g id="text_10">
      <!-- 400 -->
      <g style="fill: #262626" transform="translate(22.174375 132.224209) scale(0.11 -0.11)">
       <use xlink:href="#ArialMT-34"/>
       <use xlink:href="#ArialMT-30" x="55.615234"/>
       <use xlink:href="#ArialMT-30" x="111.230469"/>
      </g>
     </g>
    </g>
    <g id="ytick_6">
     <g id="line2d_16">
      <path d="M 50.025469 75.399265 
L 608.025469 75.399265 
" clip-path="url(#p5fda2899b1)" style="fill: none; stroke: #ffffff; stroke-linecap: round"/>
     </g>
     <g id="line2d_17">
      <g>
       <use xlink:href="#m82f8ddec85" x="50.025469" y="75.399265" style="fill: #262626; stroke: #262626; stroke-width: 1.25"/>
      </g>
     </g>
     <g id="text_11">
      <!-- 500 -->
      <g style="fill: #262626" transform="translate(22.174375 79.336062) scale(0.11 -0.11)">
       <defs>
        <path id="ArialMT-35" d="M 266 1200 
L 856 1250 
Q 922 819 1161 601 
Q 1400 384 1738 384 
Q 2144 384 2425 690 
Q 2706 997 2706 1503 
Q 2706 1984 2436 2262 
Q 2166 2541 1728 2541 
Q 1456 2541 1237 2417 
Q 1019 2294 894 2097 
L 366 2166 
L 809 4519 
L 3088 4519 
L 3088 3981 
L 1259 3981 
L 1013 2750 
Q 1425 3038 1878 3038 
Q 2478 3038 2890 2622 
Q 3303 2206 3303 1553 
Q 3303 931 2941 478 
Q 2500 -78 1738 -78 
Q 1113 -78 717 272 
Q 322 622 266 1200 
z
" transform="scale(0.015625)"/>
       </defs>
       <use xlink:href="#ArialMT-35"/>
       <use xlink:href="#ArialMT-30" x="55.615234"/>
       <use xlink:href="#ArialMT-30" x="111.230469"/>
      </g>
     </g>
    </g>
    <g id="ytick_7">
     <g id="line2d_18">
      <path d="M 50.025469 22.511119 
L 608.025469 22.511119 
" clip-path="url(#p5fda2899b1)" style="fill: none; stroke: #ffffff; stroke-linecap: round"/>
     </g>
     <g id="line2d_19">
      <g>
       <use xlink:href="#m82f8ddec85" x="50.025469" y="22.511119" style="fill: #262626; stroke: #262626; stroke-width: 1.25"/>
      </g>
     </g>
     <g id="text_12">
      <!-- 600 -->
      <g style="fill: #262626" transform="translate(22.174375 26.447915) scale(0.11 -0.11)">
       <use xlink:href="#ArialMT-36"/>
       <use xlink:href="#ArialMT-30" x="55.615234"/>
       <use xlink:href="#ArialMT-30" x="111.230469"/>
      </g>
     </g>
    </g>
    <g id="text_13">
     <!-- Count -->
     <g style="fill: #262626" transform="translate(15.789375 189.529688) rotate(-90) scale(0.12 -0.12)">
      <defs>
       <path id="ArialMT-43" d="M 3763 1606 
L 4369 1453 
Q 4178 706 3683 314 
Q 3188 -78 2472 -78 
Q 1731 -78 1267 223 
Q 803 525 561 1097 
Q 319 1669 319 2325 
Q 319 3041 592 3573 
Q 866 4106 1370 4382 
Q 1875 4659 2481 4659 
Q 3169 4659 3637 4309 
Q 4106 3959 4291 3325 
L 3694 3184 
Q 3534 3684 3231 3912 
Q 2928 4141 2469 4141 
Q 1941 4141 1586 3887 
Q 1231 3634 1087 3207 
Q 944 2781 944 2328 
Q 944 1744 1114 1308 
Q 1284 872 1643 656 
Q 2003 441 2422 441 
Q 2931 441 3284 734 
Q 3638 1028 3763 1606 
z
" transform="scale(0.015625)"/>
       <path id="ArialMT-6f" d="M 213 1659 
Q 213 2581 725 3025 
Q 1153 3394 1769 3394 
Q 2453 3394 2887 2945 
Q 3322 2497 3322 1706 
Q 3322 1066 3130 698 
Q 2938 331 2570 128 
Q 2203 -75 1769 -75 
Q 1072 -75 642 372 
Q 213 819 213 1659 
z
M 791 1659 
Q 791 1022 1069 705 
Q 1347 388 1769 388 
Q 2188 388 2466 706 
Q 2744 1025 2744 1678 
Q 2744 2294 2464 2611 
Q 2184 2928 1769 2928 
Q 1347 2928 1069 2612 
Q 791 2297 791 1659 
z
" transform="scale(0.015625)"/>
       <path id="ArialMT-75" d="M 2597 0 
L 2597 488 
Q 2209 -75 1544 -75 
Q 1250 -75 995 37 
Q 741 150 617 320 
Q 494 491 444 738 
Q 409 903 409 1263 
L 409 3319 
L 972 3319 
L 972 1478 
Q 972 1038 1006 884 
Q 1059 663 1231 536 
Q 1403 409 1656 409 
Q 1909 409 2131 539 
Q 2353 669 2445 892 
Q 2538 1116 2538 1541 
L 2538 3319 
L 3100 3319 
L 3100 0 
L 2597 0 
z
" transform="scale(0.015625)"/>
       <path id="ArialMT-6e" d="M 422 0 
L 422 3319 
L 928 3319 
L 928 2847 
Q 1294 3394 1984 3394 
Q 2284 3394 2536 3286 
Q 2788 3178 2913 3003 
Q 3038 2828 3088 2588 
Q 3119 2431 3119 2041 
L 3119 0 
L 2556 0 
L 2556 2019 
Q 2556 2363 2490 2533 
Q 2425 2703 2258 2804 
Q 2091 2906 1866 2906 
Q 1506 2906 1245 2678 
Q 984 2450 984 1813 
L 984 0 
L 422 0 
z
" transform="scale(0.015625)"/>
       <path id="ArialMT-74" d="M 1650 503 
L 1731 6 
Q 1494 -44 1306 -44 
Q 1000 -44 831 53 
Q 663 150 594 308 
Q 525 466 525 972 
L 525 2881 
L 113 2881 
L 113 3319 
L 525 3319 
L 525 4141 
L 1084 4478 
L 1084 3319 
L 1650 3319 
L 1650 2881 
L 1084 2881 
L 1084 941 
Q 1084 700 1114 631 
Q 1144 563 1211 522 
Q 1278 481 1403 481 
Q 1497 481 1650 503 
z
" transform="scale(0.015625)"/>
      </defs>
      <use xlink:href="#ArialMT-43"/>
      <use xlink:href="#ArialMT-6f" x="72.216797"/>
      <use xlink:href="#ArialMT-75" x="127.832031"/>
      <use xlink:href="#ArialMT-6e" x="183.447266"/>
      <use xlink:href="#ArialMT-74" x="239.0625"/>
     </g>
    </g>
   </g>
   <g id="patch_3">
    <path d="M 146.407287 339.84 
L 151.0886 339.84 
L 151.0886 339.311119 
L 146.407287 339.311119 
z
" clip-path="url(#p5fda2899b1)" style="fill: #0173b2; fill-opacity: 0.75; stroke: #ffffff; stroke-width: 0.704545; stroke-linejoin: miter"/>
   </g>
   <g id="patch_4">
    <path d="M 151.0886 339.84 
L 155.769913 339.84 
L 155.769913 339.84 
L 151.0886 339.84 
z
" clip-path="url(#p5fda2899b1)" style="fill: #0173b2; fill-opacity: 0.75; stroke: #ffffff; stroke-width: 0.704545; stroke-linejoin: miter"/>
   </g>
   <g id="patch_5">
    <path d="M 155.769913 339.84 
L 160.451226 339.84 
L 160.451226 339.84 
L 155.769913 339.84 
z
" clip-path="url(#p5fda2899b1)" style="fill: #0173b2; fill-opacity: 0.75; stroke: #ffffff; stroke-width: 0.704545; stroke-linejoin: miter"/>
   </g>
   <g id="patch_6">
    <path d="M 160.451226 339.84 
L 165.132539 339.84 
L 165.132539 339.84 
L 160.451226 339.84 
z
" clip-path="url(#p5fda2899b1)" style="fill: #0173b2; fill-opacity: 0.75; stroke: #ffffff; stroke-width: 0.704545; stroke-linejoin: miter"/>
   </g>
   <g id="patch_7">
    <path d="M 165.132539 339.84 
L 169.813853 339.84 
L 169.813853 339.84 
L 165.132539 339.84 
z
" clip-path="url(#p5fda2899b1)" style="fill: #0173b2; fill-opacity: 0.75; stroke: #ffffff; stroke-width: 0.704545; stroke-linejoin: miter"/>
   </g>
   <g id="patch_8">
    <path d="M 169.813853 339.84 
L 174.495166 339.84 
L 174.495166 339.84 
L 169.813853 339.84 
z
" clip-path="url(#p5fda2899b1)" style="fill: #0173b2; fill-opacity: 0.75; stroke: #ffffff; stroke-width: 0.704545; stroke-linejoin: miter"/>
   </g>
   <g id="patch_9">
    <path d="M 174.495166 339.84 
L 179.176479 339.84 
L 179.176479 339.84 
L 174.495166 339.84 
z
" clip-path="url(#p5fda2899b1)" style="fill: #0173b2; fill-opacity: 0.75; stroke: #ffffff; stroke-width: 0.704545; stroke-linejoin: miter"/>
   </g>
   <g id="patch_10">
    <path d="M 179.176479 339.84 
L 183.857792 339.84 
L 183.857792 339.84 
L 179.176479 339.84 
z
" clip-path="url(#p5fda2899b1)" style="fill: #0173b2; fill-opacity: 0.75; stroke: #ffffff; stroke-width: 0.704545; stroke-linejoin: miter"/>
   </g>
   <g id="patch_11">
    <path d="M 183.857792 339.84 
L 188.539105 339.84 
L 188.539105 339.84 
L 183.857792 339.84 
z
" clip-path="url(#p5fda2899b1)" style="fill: #0173b2; fill-opacity: 0.75; stroke: #ffffff; stroke-width: 0.704545; stroke-linejoin: miter"/>
   </g>
   <g id="patch_12">
    <path d="M 188.539105 339.84 
L 193.220418 339.84 
L 193.220418 339.311119 
L 188.539105 339.311119 
z
" clip-path="url(#p5fda2899b1)" style="fill: #0173b2; fill-opacity: 0.75; stroke: #ffffff; stroke-width: 0.704545; stroke-linejoin: miter"/>
   </g>
   <g id="patch_13">
    <path d="M 193.220418 339.84 
L 197.901731 339.84 
L 197.901731 339.311119 
L 193.220418 339.311119 
z
" clip-path="url(#p5fda2899b1)" style="fill: #0173b2; fill-opacity: 0.75; stroke: #ffffff; stroke-width: 0.704545; stroke-linejoin: miter"/>
   </g>
   <g id="patch_14">
    <path d="M 197.901731 339.84 
L 202.583045 339.84 
L 202.583045 337.724474 
L 197.901731 337.724474 
z
" clip-path="url(#p5fda2899b1)" style="fill: #0173b2; fill-opacity: 0.75; stroke: #ffffff; stroke-width: 0.704545; stroke-linejoin: miter"/>
   </g>
   <g id="patch_15">
    <path d="M 202.583045 339.84 
L 207.264358 339.84 
L 207.264358 339.311119 
L 202.583045 339.311119 
z
" clip-path="url(#p5fda2899b1)" style="fill: #0173b2; fill-opacity: 0.75; stroke: #ffffff; stroke-width: 0.704545; stroke-linejoin: miter"/>
   </g>
   <g id="patch_16">
    <path d="M 207.264358 339.84 
L 211.945671 339.84 
L 211.945671 332.964541 
L 207.264358 332.964541 
z
" clip-path="url(#p5fda2899b1)" style="fill: #0173b2; fill-opacity: 0.75; stroke: #ffffff; stroke-width: 0.704545; stroke-linejoin: miter"/>
   </g>
   <g id="patch_17">
    <path d="M 211.945671 339.84 
L 216.626984 339.84 
L 216.626984 336.666711 
L 211.945671 336.666711 
z
" clip-path="url(#p5fda2899b1)" style="fill: #0173b2; fill-opacity: 0.75; stroke: #ffffff; stroke-width: 0.704545; stroke-linejoin: miter"/>
   </g>
   <g id="patch_18">
    <path d="M 216.626984 339.84 
L 221.308297 339.84 
L 221.308297 333.493422 
L 216.626984 333.493422 
z
" clip-path="url(#p5fda2899b1)" style="fill: #0173b2; fill-opacity: 0.75; stroke: #ffffff; stroke-width: 0.704545; stroke-linejoin: miter"/>
   </g>
   <g id="patch_19">
    <path d="M 221.308297 339.84 
L 225.98961 339.84 
L 225.98961 333.493422 
L 221.308297 333.493422 
z
" clip-path="url(#p5fda2899b1)" style="fill: #0173b2; fill-opacity: 0.75; stroke: #ffffff; stroke-width: 0.704545; stroke-linejoin: miter"/>
   </g>
   <g id="patch_20">
    <path d="M 225.98961 339.84 
L 230.670923 339.84 
L 230.670923 332.435659 
L 225.98961 332.435659 
z
" clip-path="url(#p5fda2899b1)" style="fill: #0173b2; fill-opacity: 0.75; stroke: #ffffff; stroke-width: 0.704545; stroke-linejoin: miter"/>
   </g>
   <g id="patch_21">
    <path d="M 230.670923 339.84 
L 235.352236 339.84 
L 235.352236 330.320134 
L 230.670923 330.320134 
z
" clip-path="url(#p5fda2899b1)" style="fill: #0173b2; fill-opacity: 0.75; stroke: #ffffff; stroke-width: 0.704545; stroke-linejoin: miter"/>
   </g>
   <g id="patch_22">
    <path d="M 235.352236 339.84 
L 240.03355 339.84 
L 240.03355 327.675726 
L 235.352236 327.675726 
z
" clip-path="url(#p5fda2899b1)" style="fill: #0173b2; fill-opacity: 0.75; stroke: #ffffff; stroke-width: 0.704545; stroke-linejoin: miter"/>
   </g>
   <g id="patch_23">
    <path d="M 240.03355 339.84 
L 244.714863 339.84 
L 244.714863 319.742504 
L 240.03355 319.742504 
z
" clip-path="url(#p5fda2899b1)" style="fill: #0173b2; fill-opacity: 0.75; stroke: #ffffff; stroke-width: 0.704545; stroke-linejoin: miter"/>
   </g>
   <g id="patch_24">
    <path d="M 244.714863 339.84 
L 249.396176 339.84 
L 249.396176 307.049349 
L 244.714863 307.049349 
z
" clip-path="url(#p5fda2899b1)" style="fill: #0173b2; fill-opacity: 0.75; stroke: #ffffff; stroke-width: 0.704545; stroke-linejoin: miter"/>
   </g>
   <g id="patch_25">
    <path d="M 249.396176 339.84 
L 254.077489 339.84 
L 254.077489 303.87606 
L 249.396176 303.87606 
z
" clip-path="url(#p5fda2899b1)" style="fill: #0173b2; fill-opacity: 0.75; stroke: #ffffff; stroke-width: 0.704545; stroke-linejoin: miter"/>
   </g>
   <g id="patch_26">
    <path d="M 254.077489 339.84 
L 258.758802 339.84 
L 258.758802 300.17389 
L 254.077489 300.17389 
z
" clip-path="url(#p5fda2899b1)" style="fill: #0173b2; fill-opacity: 0.75; stroke: #ffffff; stroke-width: 0.704545; stroke-linejoin: miter"/>
   </g>
   <g id="patch_27">
    <path d="M 258.758802 339.84 
L 263.440115 339.84 
L 263.440115 279.547513 
L 258.758802 279.547513 
z
" clip-path="url(#p5fda2899b1)" style="fill: #0173b2; fill-opacity: 0.75; stroke: #ffffff; stroke-width: 0.704545; stroke-linejoin: miter"/>
   </g>
   <g id="patch_28">
    <path d="M 263.440115 339.84 
L 268.121428 339.84 
L 268.121428 267.91212 
L 263.440115 267.91212 
z
" clip-path="url(#p5fda2899b1)" style="fill: #0173b2; fill-opacity: 0.75; stroke: #ffffff; stroke-width: 0.704545; stroke-linejoin: miter"/>
   </g>
   <g id="patch_29">
    <path d="M 268.121428 339.84 
L 272.802741 339.84 
L 272.802741 230.890417 
L 268.121428 230.890417 
z
" clip-path="url(#p5fda2899b1)" style="fill: #0173b2; fill-opacity: 0.75; stroke: #ffffff; stroke-width: 0.704545; stroke-linejoin: miter"/>
   </g>
   <g id="patch_30">
    <path d="M 272.802741 339.84 
L 277.484055 339.84 
L 277.484055 236.708114 
L 272.802741 236.708114 
z
" clip-path="url(#p5fda2899b1)" style="fill: #0173b2; fill-opacity: 0.75; stroke: #ffffff; stroke-width: 0.704545; stroke-linejoin: miter"/>
   </g>
   <g id="patch_31">
    <path d="M 277.484055 339.84 
L 282.165368 339.84 
L 282.165368 207.619633 
L 277.484055 207.619633 
z
" clip-path="url(#p5fda2899b1)" style="fill: #0173b2; fill-opacity: 0.75; stroke: #ffffff; stroke-width: 0.704545; stroke-linejoin: miter"/>
   </g>
   <g id="patch_32">
    <path d="M 282.165368 339.84 
L 286.846681 339.84 
L 286.846681 208.148514 
L 282.165368 208.148514 
z
" clip-path="url(#p5fda2899b1)" style="fill: #0173b2; fill-opacity: 0.75; stroke: #ffffff; stroke-width: 0.704545; stroke-linejoin: miter"/>
   </g>
   <g id="patch_33">
    <path d="M 286.846681 339.84 
L 291.527994 339.84 
L 291.527994 173.771219 
L 286.846681 173.771219 
z
" clip-path="url(#p5fda2899b1)" style="fill: #0173b2; fill-opacity: 0.75; stroke: #ffffff; stroke-width: 0.704545; stroke-linejoin: miter"/>
   </g>
   <g id="patch_34">
    <path d="M 291.527994 339.84 
L 296.209307 339.84 
L 296.209307 166.89576 
L 291.527994 166.89576 
z
" clip-path="url(#p5fda2899b1)" style="fill: #0173b2; fill-opacity: 0.75; stroke: #ffffff; stroke-width: 0.704545; stroke-linejoin: miter"/>
   </g>
   <g id="patch_35">
    <path d="M 296.209307 339.84 
L 300.89062 339.84 
L 300.89062 118.767546 
L 296.209307 118.767546 
z
" clip-path="url(#p5fda2899b1)" style="fill: #0173b2; fill-opacity: 0.75; stroke: #ffffff; stroke-width: 0.704545; stroke-linejoin: miter"/>
   </g>
   <g id="patch_36">
    <path d="M 300.89062 339.84 
L 305.571933 339.84 
L 305.571933 135.162871 
L 300.89062 135.162871 
z
" clip-path="url(#p5fda2899b1)" style="fill: #0173b2; fill-opacity: 0.75; stroke: #ffffff; stroke-width: 0.704545; stroke-linejoin: miter"/>
   </g>
   <g id="patch_37">
    <path d="M 305.571933 339.84 
L 310.253247 339.84 
L 310.253247 130.402938 
L 305.571933 130.402938 
z
" clip-path="url(#p5fda2899b1)" style="fill: #0173b2; fill-opacity: 0.75; stroke: #ffffff; stroke-width: 0.704545; stroke-linejoin: miter"/>
   </g>
   <g id="patch_38">
    <path d="M 310.253247 339.84 
L 314.93456 339.84 
L 314.93456 91.794591 
L 310.253247 91.794591 
z
" clip-path="url(#p5fda2899b1)" style="fill: #0173b2; fill-opacity: 0.75; stroke: #ffffff; stroke-width: 0.704545; stroke-linejoin: miter"/>
   </g>
   <g id="patch_39">
    <path d="M 314.93456 339.84 
L 319.615873 339.84 
L 319.615873 116.65202 
L 314.93456 116.65202 
z
" clip-path="url(#p5fda2899b1)" style="fill: #0173b2; fill-opacity: 0.75; stroke: #ffffff; stroke-width: 0.704545; stroke-linejoin: miter"/>
   </g>
   <g id="patch_40">
    <path d="M 319.615873 339.84 
L 324.297186 339.84 
L 324.297186 76.457028 
L 319.615873 76.457028 
z
" clip-path="url(#p5fda2899b1)" style="fill: #0173b2; fill-opacity: 0.75; stroke: #ffffff; stroke-width: 0.704545; stroke-linejoin: miter"/>
   </g>
   <g id="patch_41">
    <path d="M 324.297186 339.84 
L 328.978499 339.84 
L 328.978499 88.092421 
L 324.297186 88.092421 
z
" clip-path="url(#p5fda2899b1)" style="fill: #0173b2; fill-opacity: 0.75; stroke: #ffffff; stroke-width: 0.704545; stroke-linejoin: miter"/>
   </g>
   <g id="patch_42">
    <path d="M 328.978499 339.84 
L 333.659812 339.84 
L 333.659812 23.04 
L 328.978499 23.04 
z
" clip-path="url(#p5fda2899b1)" style="fill: #0173b2; fill-opacity: 0.75; stroke: #ffffff; stroke-width: 0.704545; stroke-linejoin: miter"/>
   </g>
   <g id="patch_43">
    <path d="M 333.659812 339.84 
L 338.341125 339.84 
L 338.341125 90.207947 
L 333.659812 90.207947 
z
" clip-path="url(#p5fda2899b1)" style="fill: #0173b2; fill-opacity: 0.75; stroke: #ffffff; stroke-width: 0.704545; stroke-linejoin: miter"/>
   </g>
   <g id="patch_44">
    <path d="M 338.341125 339.84 
L 343.022438 339.84 
L 343.022438 99.727813 
L 338.341125 99.727813 
z
" clip-path="url(#p5fda2899b1)" style="fill: #0173b2; fill-opacity: 0.75; stroke: #ffffff; stroke-width: 0.704545; stroke-linejoin: miter"/>
   </g>
   <g id="patch_45">
    <path d="M 343.022438 339.84 
L 347.703752 339.84 
L 347.703752 102.37222 
L 343.022438 102.37222 
z
" clip-path="url(#p5fda2899b1)" style="fill: #0173b2; fill-opacity: 0.75; stroke: #ffffff; stroke-width: 0.704545; stroke-linejoin: miter"/>
   </g>
   <g id="patch_46">
    <path d="M 347.703752 339.84 
L 352.385065 339.84 
L 352.385065 126.171886 
L 347.703752 126.171886 
z
" clip-path="url(#p5fda2899b1)" style="fill: #0173b2; fill-opacity: 0.75; stroke: #ffffff; stroke-width: 0.704545; stroke-linejoin: miter"/>
   </g>
   <g id="patch_47">
    <path d="M 352.385065 339.84 
L 357.066378 339.84 
L 357.066378 167.424641 
L 352.385065 167.424641 
z
" clip-path="url(#p5fda2899b1)" style="fill: #0173b2; fill-opacity: 0.75; stroke: #ffffff; stroke-width: 0.704545; stroke-linejoin: miter"/>
   </g>
   <g id="patch_48">
    <path d="M 357.066378 339.84 
L 361.747691 339.84 
L 361.747691 124.056361 
L 357.066378 124.056361 
z
" clip-path="url(#p5fda2899b1)" style="fill: #0173b2; fill-opacity: 0.75; stroke: #ffffff; stroke-width: 0.704545; stroke-linejoin: miter"/>
   </g>
   <g id="patch_49">
    <path d="M 361.747691 339.84 
L 366.429004 339.84 
L 366.429004 182.233322 
L 361.747691 182.233322 
z
" clip-path="url(#p5fda2899b1)" style="fill: #0173b2; fill-opacity: 0.75; stroke: #ffffff; stroke-width: 0.704545; stroke-linejoin: miter"/>
   </g>
   <g id="patch_50">
    <path d="M 366.429004 339.84 
L 371.110317 339.84 
L 371.110317 212.379566 
L 366.429004 212.379566 
z
" clip-path="url(#p5fda2899b1)" style="fill: #0173b2; fill-opacity: 0.75; stroke: #ffffff; stroke-width: 0.704545; stroke-linejoin: miter"/>
   </g>
   <g id="patch_51">
    <path d="M 371.110317 339.84 
L 375.79163 339.84 
L 375.79163 230.890417 
L 371.110317 230.890417 
z
" clip-path="url(#p5fda2899b1)" style="fill: #0173b2; fill-opacity: 0.75; stroke: #ffffff; stroke-width: 0.704545; stroke-linejoin: miter"/>
   </g>
   <g id="patch_52">
    <path d="M 375.79163 339.84 
L 380.472943 339.84 
L 380.472943 246.22798 
L 375.79163 246.22798 
z
" clip-path="url(#p5fda2899b1)" style="fill: #0173b2; fill-opacity: 0.75; stroke: #ffffff; stroke-width: 0.704545; stroke-linejoin: miter"/>
   </g>
   <g id="patch_53">
    <path d="M 380.472943 339.84 
L 385.154257 339.84 
L 385.154257 259.450017 
L 380.472943 259.450017 
z
" clip-path="url(#p5fda2899b1)" style="fill: #0173b2; fill-opacity: 0.75; stroke: #ffffff; stroke-width: 0.704545; stroke-linejoin: miter"/>
   </g>
   <g id="patch_54">
    <path d="M 385.154257 339.84 
L 389.83557 339.84 
L 389.83557 265.267713 
L 385.154257 265.267713 
z
" clip-path="url(#p5fda2899b1)" style="fill: #0173b2; fill-opacity: 0.75; stroke: #ffffff; stroke-width: 0.704545; stroke-linejoin: miter"/>
   </g>
   <g id="patch_55">
    <path d="M 389.83557 339.84 
L 394.516883 339.84 
L 394.516883 280.076394 
L 389.83557 280.076394 
z
" clip-path="url(#p5fda2899b1)" style="fill: #0173b2; fill-opacity: 0.75; stroke: #ffffff; stroke-width: 0.704545; stroke-linejoin: miter"/>
   </g>
   <g id="patch_56">
    <path d="M 394.516883 339.84 
L 399.198196 339.84 
L 399.198196 292.769549 
L 394.516883 292.769549 
z
" clip-path="url(#p5fda2899b1)" style="fill: #0173b2; fill-opacity: 0.75; stroke: #ffffff; stroke-width: 0.704545; stroke-linejoin: miter"/>
   </g>
   <g id="patch_57">
    <path d="M 399.198196 339.84 
L 403.879509 339.84 
L 403.879509 301.760534 
L 399.198196 301.760534 
z
" clip-path="url(#p5fda2899b1)" style="fill: #0173b2; fill-opacity: 0.75; stroke: #ffffff; stroke-width: 0.704545; stroke-linejoin: miter"/>
   </g>
   <g id="patch_58">
    <path d="M 403.879509 339.84 
L 408.560822 339.84 
L 408.560822 310.222638 
L 403.879509 310.222638 
z
" clip-path="url(#p5fda2899b1)" style="fill: #0173b2; fill-opacity: 0.75; stroke: #ffffff; stroke-width: 0.704545; stroke-linejoin: miter"/>
   </g>
   <g id="patch_59">
    <path d="M 408.560822 339.84 
L 413.242135 339.84 
L 413.242135 318.15586 
L 408.560822 318.15586 
z
" clip-path="url(#p5fda2899b1)" style="fill: #0173b2; fill-opacity: 0.75; stroke: #ffffff; stroke-width: 0.704545; stroke-linejoin: miter"/>
   </g>
   <g id="patch_60">
    <path d="M 413.242135 339.84 
L 417.923449 339.84 
L 417.923449 323.444674 
L 413.242135 323.444674 
z
" clip-path="url(#p5fda2899b1)" style="fill: #0173b2; fill-opacity: 0.75; stroke: #ffffff; stroke-width: 0.704545; stroke-linejoin: miter"/>
   </g>
   <g id="patch_61">
    <path d="M 417.923449 339.84 
L 422.604762 339.84 
L 422.604762 322.915793 
L 417.923449 322.915793 
z
" clip-path="url(#p5fda2899b1)" style="fill: #0173b2; fill-opacity: 0.75; stroke: #ffffff; stroke-width: 0.704545; stroke-linejoin: miter"/>
   </g>
   <g id="patch_62">
    <path d="M 422.604762 339.84 
L 427.286075 339.84 
L 427.286075 335.608948 
L 422.604762 335.608948 
z
" clip-path="url(#p5fda2899b1)" style="fill: #0173b2; fill-opacity: 0.75; stroke: #ffffff; stroke-width: 0.704545; stroke-linejoin: miter"/>
   </g>
   <g id="patch_63">
    <path d="M 427.286075 339.84 
L 431.967388 339.84 
L 431.967388 335.608948 
L 427.286075 335.608948 
z
" clip-path="url(#p5fda2899b1)" style="fill: #0173b2; fill-opacity: 0.75; stroke: #ffffff; stroke-width: 0.704545; stroke-linejoin: miter"/>
   </g>
   <g id="patch_64">
    <path d="M 431.967388 339.84 
L 436.648701 339.84 
L 436.648701 336.666711 
L 431.967388 336.666711 
z
" clip-path="url(#p5fda2899b1)" style="fill: #0173b2; fill-opacity: 0.75; stroke: #ffffff; stroke-width: 0.704545; stroke-linejoin: miter"/>
   </g>
   <g id="patch_65">
    <path d="M 436.648701 339.84 
L 441.330014 339.84 
L 441.330014 337.724474 
L 436.648701 337.724474 
z
" clip-path="url(#p5fda2899b1)" style="fill: #0173b2; fill-opacity: 0.75; stroke: #ffffff; stroke-width: 0.704545; stroke-linejoin: miter"/>
   </g>
   <g id="patch_66">
    <path d="M 441.330014 339.84 
L 446.011327 339.84 
L 446.011327 339.311119 
L 441.330014 339.311119 
z
" clip-path="url(#p5fda2899b1)" style="fill: #0173b2; fill-opacity: 0.75; stroke: #ffffff; stroke-width: 0.704545; stroke-linejoin: miter"/>
   </g>
   <g id="patch_67">
    <path d="M 446.011327 339.84 
L 450.69264 339.84 
L 450.69264 339.84 
L 446.011327 339.84 
z
" clip-path="url(#p5fda2899b1)" style="fill: #0173b2; fill-opacity: 0.75; stroke: #ffffff; stroke-width: 0.704545; stroke-linejoin: miter"/>
   </g>
   <g id="patch_68">
    <path d="M 450.69264 339.84 
L 455.373954 339.84 
L 455.373954 339.84 
L 450.69264 339.84 
z
" clip-path="url(#p5fda2899b1)" style="fill: #0173b2; fill-opacity: 0.75; stroke: #ffffff; stroke-width: 0.704545; stroke-linejoin: miter"/>
   </g>
   <g id="patch_69">
    <path d="M 455.373954 339.84 
L 460.055267 339.84 
L 460.055267 339.84 
L 455.373954 339.84 
z
" clip-path="url(#p5fda2899b1)" style="fill: #0173b2; fill-opacity: 0.75; stroke: #ffffff; stroke-width: 0.704545; stroke-linejoin: miter"/>
   </g>
   <g id="patch_70">
    <path d="M 460.055267 339.84 
L 464.73658 339.84 
L 464.73658 338.782237 
L 460.055267 338.782237 
z
" clip-path="url(#p5fda2899b1)" style="fill: #0173b2; fill-opacity: 0.75; stroke: #ffffff; stroke-width: 0.704545; stroke-linejoin: miter"/>
   </g>
   <g id="patch_71">
    <path d="M 464.73658 339.84 
L 469.417893 339.84 
L 469.417893 338.782237 
L 464.73658 338.782237 
z
" clip-path="url(#p5fda2899b1)" style="fill: #0173b2; fill-opacity: 0.75; stroke: #ffffff; stroke-width: 0.704545; stroke-linejoin: miter"/>
   </g>
   <g id="patch_72">
    <path d="M 469.417893 339.84 
L 474.099206 339.84 
L 474.099206 339.84 
L 469.417893 339.84 
z
" clip-path="url(#p5fda2899b1)" style="fill: #0173b2; fill-opacity: 0.75; stroke: #ffffff; stroke-width: 0.704545; stroke-linejoin: miter"/>
   </g>
   <g id="patch_73">
    <path d="M 474.099206 339.84 
L 478.780519 339.84 
L 478.780519 339.84 
L 474.099206 339.84 
z
" clip-path="url(#p5fda2899b1)" style="fill: #0173b2; fill-opacity: 0.75; stroke: #ffffff; stroke-width: 0.704545; stroke-linejoin: miter"/>
   </g>
   <g id="patch_74">
    <path d="M 478.780519 339.84 
L 483.461832 339.84 
L 483.461832 339.311119 
L 478.780519 339.311119 
z
" clip-path="url(#p5fda2899b1)" style="fill: #0173b2; fill-opacity: 0.75; stroke: #ffffff; stroke-width: 0.704545; stroke-linejoin: miter"/>
   </g>
   <g id="patch_75">
    <path d="M 50.025469 339.84 
L 50.025469 7.2 
" style="fill: none; stroke: #ffffff; stroke-width: 1.25; stroke-linejoin: miter; stroke-linecap: square"/>
   </g>
   <g id="patch_76">
    <path d="M 608.025469 339.84 
L 608.025469 7.2 
" style="fill: none; stroke: #ffffff; stroke-width: 1.25; stroke-linejoin: miter; stroke-linecap: square"/>
   </g>
   <g id="patch_77">
    <path d="M 50.025469 339.84 
L 608.025469 339.84 
" style="fill: none; stroke: #ffffff; stroke-width: 1.25; stroke-linejoin: miter; stroke-linecap: square"/>
   </g>
   <g id="patch_78">
    <path d="M 50.025469 7.2 
L 608.025469 7.2 
" style="fill: none; stroke: #ffffff; stroke-width: 1.25; stroke-linejoin: miter; stroke-linecap: square"/>
   </g>
  </g>
  <g id="axes_2">
   <g id="matplotlib.axis_3">
    <g id="ytick_8">
     <g id="line2d_20">
      <path d="M 50.025469 328.118677 
L 608.025469 328.118677 
" clip-path="url(#p5fda2899b1)" style="fill: none; stroke: #ffffff; stroke-linecap: round"/>
     </g>
     <g id="line2d_21">
      <defs>
       <path id="mced5673b8d" d="M 0 0 
L 6 0 
" style="stroke: #262626; stroke-width: 1.25"/>
      </defs>
      <g>
       <use xlink:href="#mced5673b8d" x="608.025469" y="328.118677" style="fill: #262626; stroke: #262626; stroke-width: 1.25"/>
      </g>
     </g>
     <g id="text_14">
      <!-- 0.000 -->
      <g style="fill: #262626" transform="translate(617.525469 332.055473) scale(0.11 -0.11)">
       <defs>
        <path id="ArialMT-2e" d="M 581 0 
L 581 641 
L 1222 641 
L 1222 0 
L 581 0 
z
" transform="scale(0.015625)"/>
       </defs>
       <use xlink:href="#ArialMT-30"/>
       <use xlink:href="#ArialMT-2e" x="55.615234"/>
       <use xlink:href="#ArialMT-30" x="83.398438"/>
       <use xlink:href="#ArialMT-30" x="139.013672"/>
       <use xlink:href="#ArialMT-30" x="194.628906"/>
      </g>
     </g>
    </g>
    <g id="ytick_9">
     <g id="line2d_22">
      <path d="M 50.025469 270.603004 
L 608.025469 270.603004 
" clip-path="url(#p5fda2899b1)" style="fill: none; stroke: #ffffff; stroke-linecap: round"/>
     </g>
     <g id="line2d_23">
      <g>
       <use xlink:href="#mced5673b8d" x="608.025469" y="270.603004" style="fill: #262626; stroke: #262626; stroke-width: 1.25"/>
      </g>
     </g>
     <g id="text_15">
      <!-- 0.005 -->
      <g style="fill: #262626" transform="translate(617.525469 274.539801) scale(0.11 -0.11)">
       <use xlink:href="#ArialMT-30"/>
       <use xlink:href="#ArialMT-2e" x="55.615234"/>
       <use xlink:href="#ArialMT-30" x="83.398438"/>
       <use xlink:href="#ArialMT-30" x="139.013672"/>
       <use xlink:href="#ArialMT-35" x="194.628906"/>
      </g>
     </g>
    </g>
    <g id="ytick_10">
     <g id="line2d_24">
      <path d="M 50.025469 213.087332 
L 608.025469 213.087332 
" clip-path="url(#p5fda2899b1)" style="fill: none; stroke: #ffffff; stroke-linecap: round"/>
     </g>
     <g id="line2d_25">
      <g>
       <use xlink:href="#mced5673b8d" x="608.025469" y="213.087332" style="fill: #262626; stroke: #262626; stroke-width: 1.25"/>
      </g>
     </g>
     <g id="text_16">
      <!-- 0.010 -->
      <g style="fill: #262626" transform="translate(617.525469 217.024129) scale(0.11 -0.11)">
       <use xlink:href="#ArialMT-30"/>
       <use xlink:href="#ArialMT-2e" x="55.615234"/>
       <use xlink:href="#ArialMT-30" x="83.398438"/>
       <use xlink:href="#ArialMT-31" x="139.013672"/>
       <use xlink:href="#ArialMT-30" x="194.628906"/>
      </g>
     </g>
    </g>
    <g id="ytick_11">
     <g id="line2d_26">
      <path d="M 50.025469 155.57166 
L 608.025469 155.57166 
" clip-path="url(#p5fda2899b1)" style="fill: none; stroke: #ffffff; stroke-linecap: round"/>
     </g>
     <g id="line2d_27">
      <g>
       <use xlink:href="#mced5673b8d" x="608.025469" y="155.57166" style="fill: #262626; stroke: #262626; stroke-width: 1.25"/>
      </g>
     </g>
     <g id="text_17">
      <!-- 0.015 -->
      <g style="fill: #262626" transform="translate(617.525469 159.508457) scale(0.11 -0.11)">
       <use xlink:href="#ArialMT-30"/>
       <use xlink:href="#ArialMT-2e" x="55.615234"/>
       <use xlink:href="#ArialMT-30" x="83.398438"/>
       <use xlink:href="#ArialMT-31" x="139.013672"/>
       <use xlink:href="#ArialMT-35" x="194.628906"/>
      </g>
     </g>
    </g>
    <g id="ytick_12">
     <g id="line2d_28">
      <path d="M 50.025469 98.055988 
L 608.025469 98.055988 
" clip-path="url(#p5fda2899b1)" style="fill: none; stroke: #ffffff; stroke-linecap: round"/>
     </g>
     <g id="line2d_29">
      <g>
       <use xlink:href="#mced5673b8d" x="608.025469" y="98.055988" style="fill: #262626; stroke: #262626; stroke-width: 1.25"/>
      </g>
     </g>
     <g id="text_18">
      <!-- 0.020 -->
      <g style="fill: #262626" transform="translate(617.525469 101.992785) scale(0.11 -0.11)">
       <use xlink:href="#ArialMT-30"/>
       <use xlink:href="#ArialMT-2e" x="55.615234"/>
       <use xlink:href="#ArialMT-30" x="83.398438"/>
       <use xlink:href="#ArialMT-32" x="139.013672"/>
       <use xlink:href="#ArialMT-30" x="194.628906"/>
      </g>
     </g>
    </g>
    <g id="ytick_13">
     <g id="line2d_30">
      <path d="M 50.025469 40.540316 
L 608.025469 40.540316 
" clip-path="url(#p5fda2899b1)" style="fill: none; stroke: #ffffff; stroke-linecap: round"/>
     </g>
     <g id="line2d_31">
      <g>
       <use xlink:href="#mced5673b8d" x="608.025469" y="40.540316" style="fill: #262626; stroke: #262626; stroke-width: 1.25"/>
      </g>
     </g>
     <g id="text_19">
      <!-- 0.025 -->
      <g style="fill: #262626" transform="translate(617.525469 44.477113) scale(0.11 -0.11)">
       <use xlink:href="#ArialMT-30"/>
       <use xlink:href="#ArialMT-2e" x="55.615234"/>
       <use xlink:href="#ArialMT-30" x="83.398438"/>
       <use xlink:href="#ArialMT-32" x="139.013672"/>
       <use xlink:href="#ArialMT-35" x="194.628906"/>
      </g>
     </g>
    </g>
   </g>
   <g id="PolyCollection_1"/>
   <g id="line2d_32">
    <path d="M 75.389105 324.72 
L 80.513072 324.049797 
L 85.637039 323.265292 
L 90.761006 322.350755 
L 95.884973 321.289022 
L 101.00894 320.061499 
L 106.132907 318.648197 
L 111.256874 317.027803 
L 116.380841 315.177781 
L 121.504808 313.074524 
L 126.628775 310.69355 
L 131.752741 308.009749 
L 136.876708 304.997672 
L 142.000675 301.63189 
L 147.124642 297.88739 
L 152.248609 293.740028 
L 157.372576 289.167035 
L 162.496543 284.147558 
L 167.62051 278.663237 
L 172.744477 272.698818 
L 177.868444 266.242773 
L 182.992411 259.287928 
L 188.116378 251.832083 
L 193.240345 243.878601 
L 198.364312 235.436959 
L 203.488279 226.523243 
L 208.612246 217.160553 
L 213.736213 207.379333 
L 218.860179 197.217571 
L 223.984146 186.720889 
L 229.108113 175.942486 
L 234.23208 164.942934 
L 239.356047 153.78982 
L 244.480014 142.557225 
L 249.603981 131.325047 
L 254.727948 120.178165 
L 259.851915 109.205465 
L 264.975882 98.498718 
L 270.099849 88.151362 
L 275.223816 78.257177 
L 280.347783 68.908893 
L 285.47175 60.196766 
L 290.595717 52.207134 
L 295.719684 45.021002 
L 300.843651 38.712676 
L 305.967618 33.348491 
L 311.091584 28.985644 
L 316.215551 25.671185 
L 321.339518 23.441167 
L 326.463485 22.32 
L 331.587452 22.32 
L 336.711419 23.441167 
L 341.835386 25.671185 
L 346.959353 28.985644 
L 352.08332 33.348491 
L 357.207287 38.712676 
L 362.331254 45.021002 
L 367.455221 52.207134 
L 372.579188 60.196766 
L 377.703155 68.908893 
L 382.827122 78.257177 
L 387.951089 88.151362 
L 393.075056 98.498718 
L 398.199022 109.205465 
L 403.322989 120.178165 
L 408.446956 131.325047 
L 413.570923 142.557225 
L 418.69489 153.78982 
L 423.818857 164.942934 
L 428.942824 175.942486 
L 434.066791 186.720889 
L 439.190758 197.217571 
L 444.314725 207.379333 
L 449.438692 217.160553 
L 454.562659 226.523243 
L 459.686626 235.436959 
L 464.810593 243.878601 
L 469.93456 251.832083 
L 475.058527 259.287928 
L 480.182494 266.242773 
L 485.30646 272.698818 
L 490.430427 278.663237 
L 495.554394 284.147558 
L 500.678361 289.167035 
L 505.802328 293.740028 
L 510.926295 297.88739 
L 516.050262 301.63189 
L 521.174229 304.997672 
L 526.298196 308.009749 
L 531.422163 310.69355 
L 536.54613 313.074524 
L 541.670097 315.177781 
L 546.794064 317.027803 
L 551.918031 318.648197 
L 557.041998 320.061499 
L 562.165965 321.289022 
L 567.289932 322.350755 
L 572.413899 323.265292 
L 577.537865 324.049797 
L 582.661832 324.72 
" clip-path="url(#p5fda2899b1)" style="fill: none; stroke: #000000; stroke-width: 1.5; stroke-linecap: round"/>
   </g>
   <g id="patch_79">
    <path d="M 50.025469 339.84 
L 50.025469 7.2 
" style="fill: none; stroke: #ffffff; stroke-width: 1.25; stroke-linejoin: miter; stroke-linecap: square"/>
   </g>
   <g id="patch_80">
    <path d="M 608.025469 339.84 
L 608.025469 7.2 
" style="fill: none; stroke: #ffffff; stroke-width: 1.25; stroke-linejoin: miter; stroke-linecap: square"/>
   </g>
   <g id="patch_81">
    <path d="M 50.025469 339.84 
L 608.025469 339.84 
" style="fill: none; stroke: #ffffff; stroke-width: 1.25; stroke-linejoin: miter; stroke-linecap: square"/>
   </g>
   <g id="patch_82">
    <path d="M 50.025469 7.2 
L 608.025469 7.2 
" style="fill: none; stroke: #ffffff; stroke-width: 1.25; stroke-linejoin: miter; stroke-linecap: square"/>
   </g>
  </g>
 </g>
 <defs>
  <clipPath id="p5fda2899b1">
   <rect x="50.025469" y="7.2" width="558" height="332.64"/>
  </clipPath>
 </defs>
</svg>