<?xml version="1.0" encoding="utf-8" standalone="no"?>
<!DOCTYPE svg PUBLIC "-//W3C//DTD SVG 1.1//EN"
  "http://www.w3.org/Graphics/SVG/1.1/DTD/svg11.dtd">
<svg xmlns:xlink="http://www.w3.org/1999/xlink" width="410.040011pt" height="353.037375pt" viewBox="0 0 410.040011 353.037375" xmlns="http://www.w3.org/2000/svg" version="1.1">
 <metadata>
  <rdf:RDF xmlns:dc="http://purl.org/dc/elements/1.1/" xmlns:cc="http://creativecommons.org/ns#" xmlns:rdf="http://www.w3.org/1999/02/22-rdf-syntax-ns#">
   <cc:Work>
    <dc:type rdf:resource="http://purl.org/dc/dcmitype/StillImage"/>
    <dc:date>2023-05-08T00:30:12.962301</dc:date>
    <dc:format>image/svg+xml</dc:format>
    <dc:creator>
     <cc:Agent>
      <dc:title>Matplotlib v3.7.1, https://matplotlib.org/</dc:title>
     </cc:Agent>
    </dc:creator>
   </cc:Work>
  </rdf:RDF>
 </metadata>
 <defs>
  <style type="text/css">*{stroke-linejoin: round; stroke-linecap: butt}</style>
 </defs>
 <g id="figure_1">
  <g id="patch_1">
   <path d="M 0 353.037375 
L 410.040011 353.037375 
L 410.040011 0 
L 0 0 
z
" style="fill: #ffffff"/>
  </g>
  <g id="axes_1">
   <g id="patch_2">
    <path d="M 47.9665 316.60275 
L 344.827711 316.60275 
L 344.827711 7.2 
L 47.9665 7.2 
z
" style="fill: #eaeaf2"/>
   </g>
   <g id="matplotlib.axis_1">
    <g id="xtick_1">
     <g id="text_1">
      <!-- Adelie -->
      <g style="fill: #262626" transform="translate(85.212744 331.201625) scale(0.088 -0.088)">
       <defs>
        <path id="ArialMT-41" d="M -9 0 
L 1750 4581 
L 2403 4581 
L 4278 0 
L 3588 0 
L 3053 1388 
L 1138 1388 
L 634 0 
L -9 0 
z
M 1313 1881 
L 2866 1881 
L 2388 3150 
Q 2169 3728 2063 4100 
Q 1975 3659 1816 3225 
L 1313 1881 
z
" transform="scale(0.015625)"/>
        <path id="ArialMT-64" d="M 2575 0 
L 2575 419 
Q 2259 -75 1647 -75 
Q 1250 -75 917 144 
Q 584 363 401 755 
Q 219 1147 219 1656 
Q 219 2153 384 2558 
Q 550 2963 881 3178 
Q 1213 3394 1622 3394 
Q 1922 3394 2156 3267 
Q 2391 3141 2538 2938 
L 2538 4581 
L 3097 4581 
L 3097 0 
L 2575 0 
z
M 797 1656 
Q 797 1019 1065 703 
Q 1334 388 1700 388 
Q 2069 388 2326 689 
Q 2584 991 2584 1609 
Q 2584 2291 2321 2609 
Q 2059 2928 1675 2928 
Q 1300 2928 1048 2622 
Q 797 2316 797 1656 
z
" transform="scale(0.015625)"/>
        <path id="ArialMT-65" d="M 2694 1069 
L 3275 997 
Q 3138 488 2766 206 
Q 2394 -75 1816 -75 
Q 1088 -75 661 373 
Q 234 822 234 1631 
Q 234 2469 665 2931 
Q 1097 3394 1784 3394 
Q 2450 3394 2872 2941 
Q 3294 2488 3294 1666 
Q 3294 1616 3291 1516 
L 816 1516 
Q 847 969 1125 678 
Q 1403 388 1819 388 
Q 2128 388 2347 550 
Q 2566 713 2694 1069 
z
M 847 1978 
L 2700 1978 
Q 2663 2397 2488 2606 
Q 2219 2931 1791 2931 
Q 1403 2931 1139 2672 
Q 875 2413 847 1978 
z
" transform="scale(0.015625)"/>
        <path id="ArialMT-6c" d="M 409 0 
L 409 4581 
L 972 4581 
L 972 0 
L 409 0 
z
" transform="scale(0.015625)"/>
        <path id="ArialMT-69" d="M 425 3934 
L 425 4581 
L 988 4581 
L 988 3934 
L 425 3934 
z
M 425 0 
L 425 3319 
L 988 3319 
L 988 0 
L 425 0 
z
" transform="scale(0.015625)"/>
       </defs>
       <use xlink:href="#ArialMT-41"/>
       <use xlink:href="#ArialMT-64" x="66.699219"/>
       <use xlink:href="#ArialMT-65" x="122.314453"/>
       <use xlink:href="#ArialMT-6c" x="177.929688"/>
       <use xlink:href="#ArialMT-69" x="200.146484"/>
       <use xlink:href="#ArialMT-65" x="222.363281"/>
      </g>
     </g>
    </g>
    <g id="xtick_2">
     <g id="text_2">
      <!-- Gentoo -->
      <g style="fill: #262626" transform="translate(181.965105 331.201625) scale(0.088 -0.088)">
       <defs>
        <path id="ArialMT-47" d="M 2638 1797 
L 2638 2334 
L 4578 2338 
L 4578 638 
Q 4131 281 3656 101 
Q 3181 -78 2681 -78 
Q 2006 -78 1454 211 
Q 903 500 622 1047 
Q 341 1594 341 2269 
Q 341 2938 620 3517 
Q 900 4097 1425 4378 
Q 1950 4659 2634 4659 
Q 3131 4659 3532 4498 
Q 3934 4338 4162 4050 
Q 4391 3763 4509 3300 
L 3963 3150 
Q 3859 3500 3706 3700 
Q 3553 3900 3268 4020 
Q 2984 4141 2638 4141 
Q 2222 4141 1919 4014 
Q 1616 3888 1430 3681 
Q 1244 3475 1141 3228 
Q 966 2803 966 2306 
Q 966 1694 1177 1281 
Q 1388 869 1791 669 
Q 2194 469 2647 469 
Q 3041 469 3416 620 
Q 3791 772 3984 944 
L 3984 1797 
L 2638 1797 
z
" transform="scale(0.015625)"/>
        <path id="ArialMT-6e" d="M 422 0 
L 422 3319 
L 928 3319 
L 928 2847 
Q 1294 3394 1984 3394 
Q 2284 3394 2536 3286 
Q 2788 3178 2913 3003 
Q 3038 2828 3088 2588 
Q 3119 2431 3119 2041 
L 3119 0 
L 2556 0 
L 2556 2019 
Q 2556 2363 2490 2533 
Q 2425 2703 2258 2804 
Q 2091 2906 1866 2906 
Q 1506 2906 1245 2678 
Q 984 2450 984 1813 
L 984 0 
L 422 0 
z
" transform="scale(0.015625)"/>
        <path id="ArialMT-74" d="M 1650 503 
L 1731 6 
Q 1494 -44 1306 -44 
Q 1000 -44 831 53 
Q 663 150 594 308 
Q 525 466 525 972 
L 525 2881 
L 113 2881 
L 113 3319 
L 525 3319 
L 525 4141 
L 1084 4478 
L 1084 3319 
L 1650 3319 
L 1650 2881 
L 1084 2881 
L 1084 941 
Q 1084 700 1114 631 
Q 1144 563 1211 522 
Q 1278 481 1403 481 
Q 1497 481 1650 503 
z
" transform="scale(0.015625)"/>
        <path id="ArialMT-6f" d="M 213 1659 
Q 213 2581 725 3025 
Q 1153 3394 1769 3394 
Q 2453 3394 2887 2945 
Q 3322 2497 3322 1706 
Q 3322 1066 3130 698 
Q 2938 331 2570 128 
Q 2203 -75 1769 -75 
Q 1072 -75 642 372 
Q 213 819 213 1659 
z
M 791 1659 
Q 791 1022 1069 705 
Q 1347 388 1769 388 
Q 2188 388 2466 706 
Q 2744 1025 2744 1678 
Q 2744 2294 2464 2611 
Q 2184 2928 1769 2928 
Q 1347 2928 1069 2612 
Q 791 2297 791 1659 
z
" transform="scale(0.015625)"/>
       </defs>
       <use xlink:href="#ArialMT-47"/>
       <use xlink:href="#ArialMT-65" x="77.783203"/>
       <use xlink:href="#ArialMT-6e" x="133.398438"/>
       <use xlink:href="#ArialMT-74" x="189.013672"/>
       <use xlink:href="#ArialMT-6f" x="216.796875"/>
       <use xlink:href="#ArialMT-6f" x="272.412109"/>
      </g>
     </g>
    </g>
    <g id="xtick_3">
     <g id="text_3">
      <!-- Chinstrap -->
      <g style="fill: #262626" transform="translate(276.520905 331.308875) scale(0.088 -0.088)">
       <defs>
        <path id="ArialMT-43" d="M 3763 1606 
L 4369 1453 
Q 4178 706 3683 314 
Q 3188 -78 2472 -78 
Q 1731 -78 1267 223 
Q 803 525 561 1097 
Q 319 1669 319 2325 
Q 319 3041 592 3573 
Q 866 4106 1370 4382 
Q 1875 4659 2481 4659 
Q 3169 4659 3637 4309 
Q 4106 3959 4291 3325 
L 3694 3184 
Q 3534 3684 3231 3912 
Q 2928 4141 2469 4141 
Q 1941 4141 1586 3887 
Q 1231 3634 1087 3207 
Q 944 2781 944 2328 
Q 944 1744 1114 1308 
Q 1284 872 1643 656 
Q 2003 441 2422 441 
Q 2931 441 3284 734 
Q 3638 1028 3763 1606 
z
" transform="scale(0.015625)"/>
        <path id="ArialMT-68" d="M 422 0 
L 422 4581 
L 984 4581 
L 984 2938 
Q 1378 3394 1978 3394 
Q 2347 3394 2619 3248 
Q 2891 3103 3008 2847 
Q 3125 2591 3125 2103 
L 3125 0 
L 2563 0 
L 2563 2103 
Q 2563 2525 2380 2717 
Q 2197 2909 1863 2909 
Q 1613 2909 1392 2779 
Q 1172 2650 1078 2428 
Q 984 2206 984 1816 
L 984 0 
L 422 0 
z
" transform="scale(0.015625)"/>
        <path id="ArialMT-73" d="M 197 991 
L 753 1078 
Q 800 744 1014 566 
Q 1228 388 1613 388 
Q 2000 388 2187 545 
Q 2375 703 2375 916 
Q 2375 1106 2209 1216 
Q 2094 1291 1634 1406 
Q 1016 1563 777 1677 
Q 538 1791 414 1992 
Q 291 2194 291 2438 
Q 291 2659 392 2848 
Q 494 3038 669 3163 
Q 800 3259 1026 3326 
Q 1253 3394 1513 3394 
Q 1903 3394 2198 3281 
Q 2494 3169 2634 2976 
Q 2775 2784 2828 2463 
L 2278 2388 
Q 2241 2644 2061 2787 
Q 1881 2931 1553 2931 
Q 1166 2931 1000 2803 
Q 834 2675 834 2503 
Q 834 2394 903 2306 
Q 972 2216 1119 2156 
Q 1203 2125 1616 2013 
Q 2213 1853 2448 1751 
Q 2684 1650 2818 1456 
Q 2953 1263 2953 975 
Q 2953 694 2789 445 
Q 2625 197 2315 61 
Q 2006 -75 1616 -75 
Q 969 -75 630 194 
Q 291 463 197 991 
z
" transform="scale(0.015625)"/>
        <path id="ArialMT-72" d="M 416 0 
L 416 3319 
L 922 3319 
L 922 2816 
Q 1116 3169 1280 3281 
Q 1444 3394 1641 3394 
Q 1925 3394 2219 3213 
L 2025 2691 
Q 1819 2813 1613 2813 
Q 1428 2813 1281 2702 
Q 1134 2591 1072 2394 
Q 978 2094 978 1738 
L 978 0 
L 416 0 
z
" transform="scale(0.015625)"/>
        <path id="ArialMT-61" d="M 2588 409 
Q 2275 144 1986 34 
Q 1697 -75 1366 -75 
Q 819 -75 525 192 
Q 231 459 231 875 
Q 231 1119 342 1320 
Q 453 1522 633 1644 
Q 813 1766 1038 1828 
Q 1203 1872 1538 1913 
Q 2219 1994 2541 2106 
Q 2544 2222 2544 2253 
Q 2544 2597 2384 2738 
Q 2169 2928 1744 2928 
Q 1347 2928 1158 2789 
Q 969 2650 878 2297 
L 328 2372 
Q 403 2725 575 2942 
Q 747 3159 1072 3276 
Q 1397 3394 1825 3394 
Q 2250 3394 2515 3294 
Q 2781 3194 2906 3042 
Q 3031 2891 3081 2659 
Q 3109 2516 3109 2141 
L 3109 1391 
Q 3109 606 3145 398 
Q 3181 191 3288 0 
L 2700 0 
Q 2613 175 2588 409 
z
M 2541 1666 
Q 2234 1541 1622 1453 
Q 1275 1403 1131 1340 
Q 988 1278 909 1158 
Q 831 1038 831 891 
Q 831 666 1001 516 
Q 1172 366 1500 366 
Q 1825 366 2078 508 
Q 2331 650 2450 897 
Q 2541 1088 2541 1459 
L 2541 1666 
z
" transform="scale(0.015625)"/>
        <path id="ArialMT-70" d="M 422 -1272 
L 422 3319 
L 934 3319 
L 934 2888 
Q 1116 3141 1344 3267 
Q 1572 3394 1897 3394 
Q 2322 3394 2647 3175 
Q 2972 2956 3137 2557 
Q 3303 2159 3303 1684 
Q 3303 1175 3120 767 
Q 2938 359 2589 142 
Q 2241 -75 1856 -75 
Q 1575 -75 1351 44 
Q 1128 163 984 344 
L 984 -1272 
L 422 -1272 
z
M 931 1641 
Q 931 1000 1190 694 
Q 1450 388 1819 388 
Q 2194 388 2461 705 
Q 2728 1022 2728 1688 
Q 2728 2322 2467 2637 
Q 2206 2953 1844 2953 
Q 1484 2953 1207 2617 
Q 931 2281 931 1641 
z
" transform="scale(0.015625)"/>
       </defs>
       <use xlink:href="#ArialMT-43"/>
       <use xlink:href="#ArialMT-68" x="72.216797"/>
       <use xlink:href="#ArialMT-69" x="127.832031"/>
       <use xlink:href="#ArialMT-6e" x="150.048828"/>
       <use xlink:href="#ArialMT-73" x="205.664062"/>
       <use xlink:href="#ArialMT-74" x="255.664062"/>
       <use xlink:href="#ArialMT-72" x="283.447266"/>
       <use xlink:href="#ArialMT-61" x="316.748047"/>
       <use xlink:href="#ArialMT-70" x="372.363281"/>
      </g>
     </g>
    </g>
    <g id="text_4">
     <!-- species -->
     <g style="fill: #262626" transform="translate(180.122856 343.929375) scale(0.096 -0.096)">
      <defs>
       <path id="ArialMT-63" d="M 2588 1216 
L 3141 1144 
Q 3050 572 2676 248 
Q 2303 -75 1759 -75 
Q 1078 -75 664 370 
Q 250 816 250 1647 
Q 250 2184 428 2587 
Q 606 2991 970 3192 
Q 1334 3394 1763 3394 
Q 2303 3394 2647 3120 
Q 2991 2847 3088 2344 
L 2541 2259 
Q 2463 2594 2264 2762 
Q 2066 2931 1784 2931 
Q 1359 2931 1093 2626 
Q 828 2322 828 1663 
Q 828 994 1084 691 
Q 1341 388 1753 388 
Q 2084 388 2306 591 
Q 2528 794 2588 1216 
z
" transform="scale(0.015625)"/>
      </defs>
      <use xlink:href="#ArialMT-73"/>
      <use xlink:href="#ArialMT-70" x="50"/>
      <use xlink:href="#ArialMT-65" x="105.615234"/>
      <use xlink:href="#ArialMT-63" x="161.230469"/>
      <use xlink:href="#ArialMT-69" x="211.230469"/>
      <use xlink:href="#ArialMT-65" x="233.447266"/>
      <use xlink:href="#ArialMT-73" x="289.0625"/>
     </g>
    </g>
   </g>
   <g id="matplotlib.axis_2">
    <g id="ytick_1">
     <g id="line2d_1">
      <path d="M 47.9665 263.167579 
L 344.827711 263.167579 
" clip-path="url(#p0687db936f)" style="fill: none; stroke: #ffffff; stroke-width: 0.8; stroke-linecap: round"/>
     </g>
     <g id="text_5">
      <!-- 3000 -->
      <g style="fill: #262626" transform="translate(20.092 266.317017) scale(0.088 -0.088)">
       <defs>
        <path id="ArialMT-33" d="M 269 1209 
L 831 1284 
Q 928 806 1161 595 
Q 1394 384 1728 384 
Q 2125 384 2398 659 
Q 2672 934 2672 1341 
Q 2672 1728 2419 1979 
Q 2166 2231 1775 2231 
Q 1616 2231 1378 2169 
L 1441 2663 
Q 1497 2656 1531 2656 
Q 1891 2656 2178 2843 
Q 2466 3031 2466 3422 
Q 2466 3731 2256 3934 
Q 2047 4138 1716 4138 
Q 1388 4138 1169 3931 
Q 950 3725 888 3313 
L 325 3413 
Q 428 3978 793 4289 
Q 1159 4600 1703 4600 
Q 2078 4600 2393 4439 
Q 2709 4278 2876 4000 
Q 3044 3722 3044 3409 
Q 3044 3113 2884 2869 
Q 2725 2625 2413 2481 
Q 2819 2388 3044 2092 
Q 3269 1797 3269 1353 
Q 3269 753 2831 336 
Q 2394 -81 1725 -81 
Q 1122 -81 723 278 
Q 325 638 269 1209 
z
" transform="scale(0.015625)"/>
        <path id="ArialMT-30" d="M 266 2259 
Q 266 3072 433 3567 
Q 600 4063 929 4331 
Q 1259 4600 1759 4600 
Q 2128 4600 2406 4451 
Q 2684 4303 2865 4023 
Q 3047 3744 3150 3342 
Q 3253 2941 3253 2259 
Q 3253 1453 3087 958 
Q 2922 463 2592 192 
Q 2263 -78 1759 -78 
Q 1097 -78 719 397 
Q 266 969 266 2259 
z
M 844 2259 
Q 844 1131 1108 757 
Q 1372 384 1759 384 
Q 2147 384 2411 759 
Q 2675 1134 2675 2259 
Q 2675 3391 2411 3762 
Q 2147 4134 1753 4134 
Q 1366 4134 1134 3806 
Q 844 3388 844 2259 
z
" transform="scale(0.015625)"/>
       </defs>
       <use xlink:href="#ArialMT-33"/>
       <use xlink:href="#ArialMT-30" x="55.615234"/>
       <use xlink:href="#ArialMT-30" x="111.230469"/>
       <use xlink:href="#ArialMT-30" x="166.845703"/>
      </g>
     </g>
    </g>
    <g id="ytick_2">
     <g id="line2d_2">
      <path d="M 47.9665 195.506919 
L 344.827711 195.506919 
" clip-path="url(#p0687db936f)" style="fill: none; stroke: #ffffff; stroke-width: 0.8; stroke-linecap: round"/>
     </g>
     <g id="text_6">
      <!-- 4000 -->
      <g style="fill: #262626" transform="translate(20.092 198.656357) scale(0.088 -0.088)">
       <defs>
        <path id="ArialMT-34" d="M 2069 0 
L 2069 1097 
L 81 1097 
L 81 1613 
L 2172 4581 
L 2631 4581 
L 2631 1613 
L 3250 1613 
L 3250 1097 
L 2631 1097 
L 2631 0 
L 2069 0 
z
M 2069 1613 
L 2069 3678 
L 634 1613 
L 2069 1613 
z
" transform="scale(0.015625)"/>
       </defs>
       <use xlink:href="#ArialMT-34"/>
       <use xlink:href="#ArialMT-30" x="55.615234"/>
       <use xlink:href="#ArialMT-30" x="111.230469"/>
       <use xlink:href="#ArialMT-30" x="166.845703"/>
      </g>
     </g>
    </g>
    <g id="ytick_3">
     <g id="line2d_3">
      <path d="M 47.9665 127.84626 
L 344.827711 127.84626 
" clip-path="url(#p0687db936f)" style="fill: none; stroke: #ffffff; stroke-width: 0.8; stroke-linecap: round"/>
     </g>
     <g id="text_7">
      <!-- 5000 -->
      <g style="fill: #262626" transform="translate(20.092 130.995697) scale(0.088 -0.088)">
       <defs>
        <path id="ArialMT-35" d="M 266 1200 
L 856 1250 
Q 922 819 1161 601 
Q 1400 384 1738 384 
Q 2144 384 2425 690 
Q 2706 997 2706 1503 
Q 2706 1984 2436 2262 
Q 2166 2541 1728 2541 
Q 1456 2541 1237 2417 
Q 1019 2294 894 2097 
L 366 2166 
L 809 4519 
L 3088 4519 
L 3088 3981 
L 1259 3981 
L 1013 2750 
Q 1425 3038 1878 3038 
Q 2478 3038 2890 2622 
Q 3303 2206 3303 1553 
Q 3303 931 2941 478 
Q 2500 -78 1738 -78 
Q 1113 -78 717 272 
Q 322 622 266 1200 
z
" transform="scale(0.015625)"/>
       </defs>
       <use xlink:href="#ArialMT-35"/>
       <use xlink:href="#ArialMT-30" x="55.615234"/>
       <use xlink:href="#ArialMT-30" x="111.230469"/>
       <use xlink:href="#ArialMT-30" x="166.845703"/>
      </g>
     </g>
    </g>
    <g id="ytick_4">
     <g id="line2d_4">
      <path d="M 47.9665 60.1856 
L 344.827711 60.1856 
" clip-path="url(#p0687db936f)" style="fill: none; stroke: #ffffff; stroke-width: 0.8; stroke-linecap: round"/>
     </g>
     <g id="text_8">
      <!-- 6000 -->
      <g style="fill: #262626" transform="translate(20.092 63.335038) scale(0.088 -0.088)">
       <defs>
        <path id="ArialMT-36" d="M 3184 3459 
L 2625 3416 
Q 2550 3747 2413 3897 
Q 2184 4138 1850 4138 
Q 1581 4138 1378 3988 
Q 1113 3794 959 3422 
Q 806 3050 800 2363 
Q 1003 2672 1297 2822 
Q 1591 2972 1913 2972 
Q 2475 2972 2870 2558 
Q 3266 2144 3266 1488 
Q 3266 1056 3080 686 
Q 2894 316 2569 119 
Q 2244 -78 1831 -78 
Q 1128 -78 684 439 
Q 241 956 241 2144 
Q 241 3472 731 4075 
Q 1159 4600 1884 4600 
Q 2425 4600 2770 4297 
Q 3116 3994 3184 3459 
z
M 888 1484 
Q 888 1194 1011 928 
Q 1134 663 1356 523 
Q 1578 384 1822 384 
Q 2178 384 2434 671 
Q 2691 959 2691 1453 
Q 2691 1928 2437 2201 
Q 2184 2475 1800 2475 
Q 1419 2475 1153 2201 
Q 888 1928 888 1484 
z
" transform="scale(0.015625)"/>
       </defs>
       <use xlink:href="#ArialMT-36"/>
       <use xlink:href="#ArialMT-30" x="55.615234"/>
       <use xlink:href="#ArialMT-30" x="111.230469"/>
       <use xlink:href="#ArialMT-30" x="166.845703"/>
      </g>
     </g>
    </g>
    <g id="text_9">
     <!-- body_mass_g -->
     <g style="fill: #262626" transform="translate(14.0715 191.784375) rotate(-90) scale(0.096 -0.096)">
      <defs>
       <path id="ArialMT-62" d="M 941 0 
L 419 0 
L 419 4581 
L 981 4581 
L 981 2947 
Q 1338 3394 1891 3394 
Q 2197 3394 2470 3270 
Q 2744 3147 2920 2923 
Q 3097 2700 3197 2384 
Q 3297 2069 3297 1709 
Q 3297 856 2875 390 
Q 2453 -75 1863 -75 
Q 1275 -75 941 416 
L 941 0 
z
M 934 1684 
Q 934 1088 1097 822 
Q 1363 388 1816 388 
Q 2184 388 2453 708 
Q 2722 1028 2722 1663 
Q 2722 2313 2464 2622 
Q 2206 2931 1841 2931 
Q 1472 2931 1203 2611 
Q 934 2291 934 1684 
z
" transform="scale(0.015625)"/>
       <path id="ArialMT-79" d="M 397 -1278 
L 334 -750 
Q 519 -800 656 -800 
Q 844 -800 956 -737 
Q 1069 -675 1141 -563 
Q 1194 -478 1313 -144 
Q 1328 -97 1363 -6 
L 103 3319 
L 709 3319 
L 1400 1397 
Q 1534 1031 1641 628 
Q 1738 1016 1872 1384 
L 2581 3319 
L 3144 3319 
L 1881 -56 
Q 1678 -603 1566 -809 
Q 1416 -1088 1222 -1217 
Q 1028 -1347 759 -1347 
Q 597 -1347 397 -1278 
z
" transform="scale(0.015625)"/>
       <path id="ArialMT-5f" d="M -97 -1272 
L -97 -866 
L 3631 -866 
L 3631 -1272 
L -97 -1272 
z
" transform="scale(0.015625)"/>
       <path id="ArialMT-6d" d="M 422 0 
L 422 3319 
L 925 3319 
L 925 2853 
Q 1081 3097 1340 3245 
Q 1600 3394 1931 3394 
Q 2300 3394 2536 3241 
Q 2772 3088 2869 2813 
Q 3263 3394 3894 3394 
Q 4388 3394 4653 3120 
Q 4919 2847 4919 2278 
L 4919 0 
L 4359 0 
L 4359 2091 
Q 4359 2428 4304 2576 
Q 4250 2725 4106 2815 
Q 3963 2906 3769 2906 
Q 3419 2906 3187 2673 
Q 2956 2441 2956 1928 
L 2956 0 
L 2394 0 
L 2394 2156 
Q 2394 2531 2256 2718 
Q 2119 2906 1806 2906 
Q 1569 2906 1367 2781 
Q 1166 2656 1075 2415 
Q 984 2175 984 1722 
L 984 0 
L 422 0 
z
" transform="scale(0.015625)"/>
       <path id="ArialMT-67" d="M 319 -275 
L 866 -356 
Q 900 -609 1056 -725 
Q 1266 -881 1628 -881 
Q 2019 -881 2231 -725 
Q 2444 -569 2519 -288 
Q 2563 -116 2559 434 
Q 2191 0 1641 0 
Q 956 0 581 494 
Q 206 988 206 1678 
Q 206 2153 378 2554 
Q 550 2956 876 3175 
Q 1203 3394 1644 3394 
Q 2231 3394 2613 2919 
L 2613 3319 
L 3131 3319 
L 3131 450 
Q 3131 -325 2973 -648 
Q 2816 -972 2473 -1159 
Q 2131 -1347 1631 -1347 
Q 1038 -1347 672 -1080 
Q 306 -813 319 -275 
z
M 784 1719 
Q 784 1066 1043 766 
Q 1303 466 1694 466 
Q 2081 466 2343 764 
Q 2606 1063 2606 1700 
Q 2606 2309 2336 2618 
Q 2066 2928 1684 2928 
Q 1309 2928 1046 2623 
Q 784 2319 784 1719 
z
" transform="scale(0.015625)"/>
      </defs>
      <use xlink:href="#ArialMT-62"/>
      <use xlink:href="#ArialMT-6f" x="55.615234"/>
      <use xlink:href="#ArialMT-64" x="111.230469"/>
      <use xlink:href="#ArialMT-79" x="166.845703"/>
      <use xlink:href="#ArialMT-5f" x="216.845703"/>
      <use xlink:href="#ArialMT-6d" x="272.460938"/>
      <use xlink:href="#ArialMT-61" x="355.761719"/>
      <use xlink:href="#ArialMT-73" x="411.376953"/>
      <use xlink:href="#ArialMT-73" x="461.376953"/>
      <use xlink:href="#ArialMT-5f" x="511.376953"/>
      <use xlink:href="#ArialMT-67" x="566.992188"/>
     </g>
    </g>
   </g>
   <g id="patch_3">
    <path d="M 97.443369 466.149558 
L 97.443369 466.149558 
L 97.443369 466.149558 
L 97.443369 466.149558 
z
" clip-path="url(#p0687db936f)" style="fill: #176d9c; stroke: #363636; stroke-width: 0.6; stroke-linejoin: miter"/>
   </g>
   <g id="PolyCollection_1">
    <defs>
     <path id="m1bf3ff3615" d="M 77.764038 -91.962162 
L 77.541204 -91.962162 
L 77.500334 -93.355118 
L 77.44753 -94.748074 
L 77.380359 -96.14103 
L 77.296193 -97.533986 
L 77.192273 -98.926942 
L 77.065792 -100.319898 
L 76.913997 -101.712854 
L 76.734319 -103.105811 
L 76.524513 -104.498767 
L 76.282817 -105.891723 
L 76.008113 -107.284679 
L 75.700084 -108.677635 
L 75.359341 -110.070591 
L 74.987506 -111.463547 
L 74.587232 -112.856503 
L 74.162122 -114.249459 
L 73.716564 -115.642415 
L 73.255451 -117.035372 
L 72.78382 -118.428328 
L 72.306423 -119.821284 
L 71.827293 -121.21424 
L 71.349337 -122.607196 
L 70.874034 -124.000152 
L 70.401276 -125.393108 
L 69.92939 -126.786064 
L 69.455358 -128.17902 
L 68.975224 -129.571976 
L 68.484654 -130.964932 
L 67.979582 -132.357889 
L 67.456901 -133.750845 
L 66.915098 -135.143801 
L 66.35479 -136.536757 
L 65.779098 -137.929713 
L 65.193819 -139.322669 
L 64.607379 -140.715625 
L 64.030547 -142.108581 
L 63.475935 -143.501537 
L 62.957295 -144.894493 
L 62.488647 -146.28745 
L 62.083312 -147.680406 
L 61.752905 -149.073362 
L 61.506383 -150.466318 
L 61.349243 -151.859274 
L 61.282958 -153.25223 
L 61.304744 -154.645186 
L 61.407691 -156.038142 
L 61.581286 -157.431098 
L 61.812281 -158.824054 
L 62.085838 -160.21701 
L 62.386818 -161.609967 
L 62.70109 -163.002923 
L 63.016689 -164.395879 
L 63.324722 -165.788835 
L 63.619901 -167.181791 
L 63.900667 -168.574747 
L 64.168911 -169.967703 
L 64.429332 -171.360659 
L 64.688551 -172.753615 
L 64.954075 -174.146571 
L 65.233258 -175.539528 
L 65.532362 -176.932484 
L 65.855829 -178.32544 
L 66.205801 -179.718396 
L 66.581946 -181.111352 
L 66.98155 -182.504308 
L 67.399865 -183.897264 
L 67.830641 -185.29022 
L 68.266787 -186.683176 
L 68.701081 -188.076132 
L 69.126866 -189.469088 
L 69.538659 -190.862045 
L 69.932632 -192.255001 
L 70.306909 -193.647957 
L 70.661666 -195.040913 
L 70.999008 -196.433869 
L 71.322655 -197.826825 
L 71.637452 -199.219781 
L 71.948768 -200.612737 
L 72.26184 -202.005693 
L 72.581145 -203.398649 
L 72.909865 -204.791606 
L 73.249507 -206.184562 
L 73.599714 -207.577518 
L 73.958292 -208.970474 
L 74.321429 -210.36343 
L 74.684079 -211.756386 
L 75.040449 -213.149342 
L 75.38454 -214.542298 
L 75.71066 -215.935254 
L 76.013868 -217.32821 
L 76.290311 -218.721166 
L 76.537415 -220.114123 
L 76.753946 -221.507079 
L 76.939949 -222.900035 
L 77.096584 -224.292991 
L 77.225897 -225.685947 
L 77.330564 -227.078903 
L 77.41363 -228.471859 
L 77.47827 -229.864815 
L 77.826972 -229.864815 
L 77.826972 -229.864815 
L 77.891612 -228.471859 
L 77.974678 -227.078903 
L 78.079345 -225.685947 
L 78.208659 -224.292991 
L 78.365293 -222.900035 
L 78.551296 -221.507079 
L 78.767828 -220.114123 
L 79.014931 -218.721166 
L 79.291374 -217.32821 
L 79.594583 -215.935254 
L 79.920702 -214.542298 
L 80.264793 -213.149342 
L 80.621163 -211.756386 
L 80.983813 -210.36343 
L 81.346951 -208.970474 
L 81.705529 -207.577518 
L 82.055736 -206.184562 
L 82.395377 -204.791606 
L 82.724098 -203.398649 
L 83.043403 -202.005693 
L 83.356474 -200.612737 
L 83.66779 -199.219781 
L 83.982587 -197.826825 
L 84.306234 -196.433869 
L 84.643576 -195.040913 
L 84.998333 -193.647957 
L 85.37261 -192.255001 
L 85.766583 -190.862045 
L 86.178376 -189.469088 
L 86.604161 -188.076132 
L 87.038456 -186.683176 
L 87.474602 -185.29022 
L 87.905377 -183.897264 
L 88.323692 -182.504308 
L 88.723296 -181.111352 
L 89.099441 -179.718396 
L 89.449414 -178.32544 
L 89.77288 -176.932484 
L 90.071984 -175.539528 
L 90.351167 -174.146571 
L 90.616691 -172.753615 
L 90.87591 -171.360659 
L 91.136332 -169.967703 
L 91.404575 -168.574747 
L 91.685342 -167.181791 
L 91.980521 -165.788835 
L 92.288554 -164.395879 
L 92.604152 -163.002923 
L 92.918424 -161.609967 
L 93.219404 -160.21701 
L 93.492961 -158.824054 
L 93.723957 -157.431098 
L 93.897551 -156.038142 
L 94.000499 -154.645186 
L 94.022285 -153.25223 
L 93.956 -151.859274 
L 93.798859 -150.466318 
L 93.552337 -149.073362 
L 93.22193 -147.680406 
L 92.816595 -146.28745 
L 92.347947 -144.894493 
L 91.829307 -143.501537 
L 91.274696 -142.108581 
L 90.697864 -140.715625 
L 90.111423 -139.322669 
L 89.526145 -137.929713 
L 88.950452 -136.536757 
L 88.390144 -135.143801 
L 87.848341 -133.750845 
L 87.32566 -132.357889 
L 86.820589 -130.964932 
L 86.330018 -129.571976 
L 85.849884 -128.17902 
L 85.375852 -126.786064 
L 84.903966 -125.393108 
L 84.431208 -124.000152 
L 83.955905 -122.607196 
L 83.477949 -121.21424 
L 82.998819 -119.821284 
L 82.521422 -118.428328 
L 82.049791 -117.035372 
L 81.588679 -115.642415 
L 81.143121 -114.249459 
L 80.718011 -112.856503 
L 80.317736 -111.463547 
L 79.945902 -110.070591 
L 79.605158 -108.677635 
L 79.297129 -107.284679 
L 79.022425 -105.891723 
L 78.780729 -104.498767 
L 78.570923 -103.105811 
L 78.391245 -101.712854 
L 78.23945 -100.319898 
L 78.112969 -98.926942 
L 78.009049 -97.533986 
L 77.924883 -96.14103 
L 77.857712 -94.748074 
L 77.804908 -93.355118 
L 77.764038 -91.962162 
z
" style="stroke: #363636; stroke-width: 1.2"/>
    </defs>
    <g clip-path="url(#p0687db936f)">
     <use xlink:href="#m1bf3ff3615" x="0" y="353.037375" style="fill: #176d9c; stroke: #363636; stroke-width: 1.2"/>
    </g>
   </g>
   <g id="patch_4">
    <path d="M 97.443369 466.149558 
L 97.443369 466.149558 
L 97.443369 466.149558 
L 97.443369 466.149558 
z
" clip-path="url(#p0687db936f)" style="fill: #c38820; stroke: #363636; stroke-width: 0.6; stroke-linejoin: miter"/>
   </g>
   <g id="PolyCollection_2">
    <defs>
     <path id="ma21858abb2" d="M 117.58146 -64.265763 
L 116.886772 -64.265763 
L 116.770574 -65.295597 
L 116.625218 -66.325431 
L 116.446699 -67.355265 
L 116.231441 -68.385099 
L 115.976596 -69.414932 
L 115.680341 -70.444766 
L 115.342129 -71.4746 
L 114.962875 -72.504434 
L 114.545023 -73.534268 
L 114.092495 -74.564102 
L 113.61049 -75.593936 
L 113.105151 -76.62377 
L 112.58313 -77.653604 
L 112.051082 -78.683438 
L 111.515157 -79.713272 
L 110.980539 -80.743106 
L 110.451094 -81.77294 
L 109.929176 -82.802774 
L 109.415596 -83.832608 
L 108.909779 -84.862442 
L 108.410073 -85.892276 
L 107.91416 -86.92211 
L 107.419538 -87.951944 
L 106.923979 -88.981778 
L 106.425942 -90.011611 
L 105.924862 -91.041445 
L 105.421304 -92.071279 
L 104.916971 -93.101113 
L 104.414559 -94.130947 
L 103.917495 -95.160781 
L 103.429592 -96.190615 
L 102.954657 -97.220449 
L 102.496112 -98.250283 
L 102.056657 -99.280117 
L 101.638028 -100.309951 
L 101.240875 -101.339785 
L 100.864773 -102.369619 
L 100.508372 -103.399453 
L 100.169676 -104.429287 
L 99.846411 -105.459121 
L 99.536454 -106.488955 
L 99.238274 -107.518789 
L 98.951326 -108.548623 
L 98.676368 -109.578457 
L 98.415646 -110.608291 
L 98.172948 -111.638124 
L 97.953482 -112.667958 
L 97.763616 -113.697792 
L 97.610483 -114.727626 
L 97.501477 -115.75746 
L 97.443698 -116.787294 
L 97.443369 -117.817128 
L 97.505293 -118.846962 
L 97.632386 -119.876796 
L 97.825324 -120.90663 
L 98.082352 -121.936464 
L 98.399266 -122.966298 
L 98.76959 -123.996132 
L 99.18493 -125.025966 
L 99.635497 -126.0558 
L 100.110763 -127.085634 
L 100.60019 -128.115468 
L 101.09399 -129.145302 
L 101.583832 -130.175136 
L 102.063449 -131.20497 
L 102.529073 -132.234804 
L 102.979664 -133.264637 
L 103.416896 -134.294471 
L 103.844903 -135.324305 
L 104.269806 -136.354139 
L 104.69905 -137.383973 
L 105.140635 -138.413807 
L 105.602286 -139.443641 
L 106.090668 -140.473475 
L 106.610694 -141.503309 
L 107.165013 -142.533143 
L 107.753693 -143.562977 
L 108.374146 -144.592811 
L 109.021275 -145.622645 
L 109.68782 -146.652479 
L 110.364874 -147.682313 
L 111.04249 -148.712147 
L 111.710342 -149.741981 
L 112.358363 -150.771815 
L 112.977323 -151.801649 
L 113.559287 -152.831483 
L 114.097952 -153.861316 
L 114.588831 -154.89115 
L 115.0293 -155.920984 
L 115.418522 -156.950818 
L 115.757266 -157.980652 
L 116.047658 -159.010486 
L 116.292887 -160.04032 
L 116.496903 -161.070154 
L 116.66412 -162.099988 
L 116.799148 -163.129822 
L 116.906571 -164.159656 
L 116.990764 -165.18949 
L 117.055769 -166.219324 
L 117.412463 -166.219324 
L 117.412463 -166.219324 
L 117.477468 -165.18949 
L 117.561661 -164.159656 
L 117.669083 -163.129822 
L 117.804112 -162.099988 
L 117.971329 -161.070154 
L 118.175345 -160.04032 
L 118.420574 -159.010486 
L 118.710965 -157.980652 
L 119.04971 -156.950818 
L 119.438932 -155.920984 
L 119.879401 -154.89115 
L 120.37028 -153.861316 
L 120.908945 -152.831483 
L 121.490909 -151.801649 
L 122.109868 -150.771815 
L 122.75789 -149.741981 
L 123.425742 -148.712147 
L 124.103358 -147.682313 
L 124.780412 -146.652479 
L 125.446957 -145.622645 
L 126.094085 -144.592811 
L 126.714539 -143.562977 
L 127.303219 -142.533143 
L 127.857538 -141.503309 
L 128.377564 -140.473475 
L 128.865945 -139.443641 
L 129.327597 -138.413807 
L 129.769181 -137.383973 
L 130.198426 -136.354139 
L 130.623329 -135.324305 
L 131.051336 -134.294471 
L 131.488568 -133.264637 
L 131.939158 -132.234804 
L 132.404783 -131.20497 
L 132.884399 -130.175136 
L 133.374242 -129.145302 
L 133.868042 -128.115468 
L 134.357469 -127.085634 
L 134.832735 -126.0558 
L 135.283302 -125.025966 
L 135.698641 -123.996132 
L 136.068966 -122.966298 
L 136.38588 -121.936464 
L 136.642908 -120.90663 
L 136.835846 -119.876796 
L 136.962939 -118.846962 
L 137.024863 -117.817128 
L 137.024534 -116.787294 
L 136.966755 -115.75746 
L 136.857749 -114.727626 
L 136.704616 -113.697792 
L 136.51475 -112.667958 
L 136.295284 -111.638124 
L 136.052585 -110.608291 
L 135.791864 -109.578457 
L 135.516905 -108.548623 
L 135.229958 -107.518789 
L 134.931778 -106.488955 
L 134.621821 -105.459121 
L 134.298556 -104.429287 
L 133.959859 -103.399453 
L 133.603459 -102.369619 
L 133.227356 -101.339785 
L 132.830203 -100.309951 
L 132.411575 -99.280117 
L 131.97212 -98.250283 
L 131.513575 -97.220449 
L 131.03864 -96.190615 
L 130.550737 -95.160781 
L 130.053673 -94.130947 
L 129.55126 -93.101113 
L 129.046928 -92.071279 
L 128.54337 -91.041445 
L 128.04229 -90.011611 
L 127.544253 -88.981778 
L 127.048694 -87.951944 
L 126.554071 -86.92211 
L 126.058159 -85.892276 
L 125.558453 -84.862442 
L 125.052636 -83.832608 
L 124.539056 -82.802774 
L 124.017138 -81.77294 
L 123.487693 -80.743106 
L 122.953075 -79.713272 
L 122.417149 -78.683438 
L 121.885102 -77.653604 
L 121.363081 -76.62377 
L 120.857742 -75.593936 
L 120.375737 -74.564102 
L 119.923209 -73.534268 
L 119.505357 -72.504434 
L 119.126102 -71.4746 
L 118.787891 -70.444766 
L 118.491636 -69.414932 
L 118.236791 -68.385099 
L 118.021533 -67.355265 
L 117.843013 -66.325431 
L 117.697657 -65.295597 
L 117.58146 -64.265763 
z
" style="stroke: #363636; stroke-width: 1.2"/>
    </defs>
    <g clip-path="url(#p0687db936f)">
     <use xlink:href="#ma21858abb2" x="0" y="353.037375" style="fill: #c38820; stroke: #363636; stroke-width: 1.2"/>
    </g>
   </g>
   <g id="PolyCollection_3">
    <defs>
     <path id="m8746ac7b78" d="M 176.7078 -189.652309 
L 176.504916 -189.652309 
L 176.468133 -191.087878 
L 176.421828 -192.523447 
L 176.364804 -193.959015 
L 176.295998 -195.394584 
L 176.214484 -196.830153 
L 176.119418 -198.265722 
L 176.009914 -199.70129 
L 175.884877 -201.136859 
L 175.742793 -202.572428 
L 175.581544 -204.007996 
L 175.398285 -205.443565 
L 175.189444 -206.879134 
L 174.950902 -208.314703 
L 174.678344 -209.750271 
L 174.367786 -211.18584 
L 174.016206 -212.621409 
L 173.622179 -214.056978 
L 173.186401 -215.492546 
L 172.711982 -216.928115 
L 172.204413 -218.363684 
L 171.671166 -219.799253 
L 171.120945 -221.234821 
L 170.562694 -222.67039 
L 170.0045 -224.105959 
L 169.452576 -225.541527 
L 168.910517 -226.977096 
L 168.378959 -228.412665 
L 167.855721 -229.848234 
L 167.336422 -231.283802 
L 166.815469 -232.719371 
L 166.287241 -234.15494 
L 165.747282 -235.590509 
L 165.193272 -237.026077 
L 164.625643 -238.461646 
L 164.047735 -239.897215 
L 163.465513 -241.332784 
L 162.886913 -242.768352 
L 162.320992 -244.203921 
L 161.777048 -245.63949 
L 161.263871 -247.075058 
L 160.789268 -248.510627 
L 160.359885 -249.946196 
L 159.981318 -251.381765 
L 159.658404 -252.817333 
L 159.395585 -254.252902 
L 159.197187 -255.688471 
L 159.067538 -257.12404 
L 159.010856 -258.559608 
L 159.030927 -259.995177 
L 159.130637 -261.430746 
L 159.311452 -262.866315 
L 159.572962 -264.301883 
L 159.912562 -265.737452 
L 160.325344 -267.173021 
L 160.804201 -268.608589 
L 161.340144 -270.044158 
L 161.922767 -271.479727 
L 162.540829 -272.915296 
L 163.182894 -274.350864 
L 163.837961 -275.786433 
L 164.496076 -277.222002 
L 165.148844 -278.657571 
L 165.789835 -280.093139 
L 166.414825 -281.528708 
L 167.02184 -282.964277 
L 167.610983 -284.399845 
L 168.184039 -285.835414 
L 168.743883 -287.270983 
L 169.29375 -288.706552 
L 169.836451 -290.14212 
L 170.373652 -291.577689 
L 170.905313 -293.013258 
L 171.429389 -294.448827 
L 171.941853 -295.884395 
L 172.437048 -297.319964 
L 172.908319 -298.755533 
L 173.348836 -300.191102 
L 173.75248 -301.62667 
L 174.114638 -303.062239 
L 174.432808 -304.497808 
L 174.706894 -305.933376 
L 174.939177 -307.368945 
L 175.133972 -308.804514 
L 175.29704 -310.240083 
L 175.434863 -311.675651 
L 175.553896 -313.11122 
L 175.659921 -314.546789 
L 175.757564 -315.982358 
L 175.850043 -317.417926 
L 175.939137 -318.853495 
L 176.025358 -320.289064 
L 176.108248 -321.724633 
L 176.186753 -323.160201 
L 176.259586 -324.59577 
L 176.325546 -326.031339 
L 176.383736 -327.466907 
L 176.433691 -328.902476 
L 176.475402 -330.338045 
L 176.509272 -331.773614 
L 176.703444 -331.773614 
L 176.703444 -331.773614 
L 176.737314 -330.338045 
L 176.779025 -328.902476 
L 176.82898 -327.466907 
L 176.88717 -326.031339 
L 176.95313 -324.59577 
L 177.025963 -323.160201 
L 177.104468 -321.724633 
L 177.187358 -320.289064 
L 177.273579 -318.853495 
L 177.362673 -317.417926 
L 177.455152 -315.982358 
L 177.552795 -314.546789 
L 177.65882 -313.11122 
L 177.777854 -311.675651 
L 177.915676 -310.240083 
L 178.078744 -308.804514 
L 178.273539 -307.368945 
L 178.505823 -305.933376 
L 178.779908 -304.497808 
L 179.098078 -303.062239 
L 179.460237 -301.62667 
L 179.86388 -300.191102 
L 180.304398 -298.755533 
L 180.775669 -297.319964 
L 181.270864 -295.884395 
L 181.783328 -294.448827 
L 182.307403 -293.013258 
L 182.839064 -291.577689 
L 183.376265 -290.14212 
L 183.918966 -288.706552 
L 184.468833 -287.270983 
L 185.028677 -285.835414 
L 185.601733 -284.399845 
L 186.190876 -282.964277 
L 186.797891 -281.528708 
L 187.422881 -280.093139 
L 188.063872 -278.657571 
L 188.71664 -277.222002 
L 189.374755 -275.786433 
L 190.029823 -274.350864 
L 190.671887 -272.915296 
L 191.28995 -271.479727 
L 191.872572 -270.044158 
L 192.408515 -268.608589 
L 192.887373 -267.173021 
L 193.300154 -265.737452 
L 193.639755 -264.301883 
L 193.901264 -262.866315 
L 194.08208 -261.430746 
L 194.181789 -259.995177 
L 194.20186 -258.559608 
L 194.145178 -257.12404 
L 194.01553 -255.688471 
L 193.817131 -254.252902 
L 193.554312 -252.817333 
L 193.231398 -251.381765 
L 192.852831 -249.946196 
L 192.423448 -248.510627 
L 191.948845 -247.075058 
L 191.435668 -245.63949 
L 190.891724 -244.203921 
L 190.325803 -242.768352 
L 189.747203 -241.332784 
L 189.164981 -239.897215 
L 188.587074 -238.461646 
L 188.019444 -237.026077 
L 187.465434 -235.590509 
L 186.925475 -234.15494 
L 186.397248 -232.719371 
L 185.876294 -231.283802 
L 185.356995 -229.848234 
L 184.833757 -228.412665 
L 184.302199 -226.977096 
L 183.76014 -225.541527 
L 183.208217 -224.105959 
L 182.650022 -222.67039 
L 182.091771 -221.234821 
L 181.54155 -219.799253 
L 181.008303 -218.363684 
L 180.500734 -216.928115 
L 180.026316 -215.492546 
L 179.590538 -214.056978 
L 179.19651 -212.621409 
L 178.84493 -211.18584 
L 178.534373 -209.750271 
L 178.261814 -208.314703 
L 178.023272 -206.879134 
L 177.814432 -205.443565 
L 177.631172 -204.007996 
L 177.469923 -202.572428 
L 177.327839 -201.136859 
L 177.202802 -199.70129 
L 177.093298 -198.265722 
L 176.998232 -196.830153 
L 176.916718 -195.394584 
L 176.847913 -193.959015 
L 176.790889 -192.523447 
L 176.744584 -191.087878 
L 176.7078 -189.652309 
z
" style="stroke: #363636; stroke-width: 1.2"/>
    </defs>
    <g clip-path="url(#p0687db936f)">
     <use xlink:href="#m8746ac7b78" x="0" y="353.037375" style="fill: #176d9c; stroke: #363636; stroke-width: 1.2"/>
    </g>
   </g>
   <g id="PolyCollection_4">
    <defs>
     <path id="mee86813c47" d="M 216.301497 -137.232119 
L 216.074209 -137.232119 
L 216.037772 -138.428144 
L 215.993287 -139.624168 
L 215.940136 -140.820193 
L 215.877956 -142.016217 
L 215.806662 -143.212242 
L 215.726436 -144.408266 
L 215.637664 -145.604291 
L 215.540805 -146.800315 
L 215.436217 -147.99634 
L 215.323952 -149.192365 
L 215.203537 -150.388389 
L 215.073803 -151.584414 
L 214.932772 -152.780438 
L 214.777657 -153.976463 
L 214.604982 -155.172487 
L 214.41084 -156.368512 
L 214.19124 -157.564537 
L 213.942533 -158.760561 
L 213.661837 -159.956586 
L 213.347403 -161.15261 
L 212.998869 -162.348635 
L 212.617355 -163.544659 
L 212.205394 -164.740684 
L 211.766705 -165.936708 
L 211.305868 -167.132733 
L 210.827951 -168.328758 
L 210.33816 -169.524782 
L 209.841577 -170.720807 
L 209.343001 -171.916831 
L 208.846896 -173.112856 
L 208.357414 -174.30888 
L 207.878418 -175.504905 
L 207.41346 -176.70093 
L 206.965632 -177.896954 
L 206.537283 -179.092979 
L 206.129613 -180.289003 
L 205.742202 -181.485028 
L 205.372586 -182.681052 
L 205.015989 -183.877077 
L 204.665326 -185.073101 
L 204.311561 -186.269126 
L 203.944427 -187.465151 
L 203.553485 -188.661175 
L 203.129387 -189.8572 
L 202.665198 -191.053224 
L 202.157577 -192.249249 
L 201.607639 -193.445273 
L 201.021351 -194.641298 
L 200.409389 -195.837323 
L 199.786446 -197.033347 
L 199.170076 -198.229372 
L 198.579229 -199.425396 
L 198.032654 -200.621421 
L 197.547387 -201.817445 
L 197.13751 -203.01347 
L 196.813318 -204.209494 
L 196.580973 -205.405519 
L 196.442651 -206.601544 
L 196.397106 -207.797568 
L 196.440534 -208.993593 
L 196.567585 -210.189617 
L 196.772335 -211.385642 
L 197.049112 -212.581666 
L 197.393027 -213.777691 
L 197.800189 -214.973716 
L 198.267597 -216.16974 
L 198.792761 -217.365765 
L 199.373169 -218.561789 
L 200.005698 -219.757814 
L 200.6861 -220.953838 
L 201.408664 -222.149863 
L 202.16611 -223.345887 
L 202.949753 -224.541912 
L 203.749898 -225.737937 
L 204.556419 -226.933961 
L 205.359426 -228.129986 
L 206.149917 -229.32601 
L 206.920325 -230.522035 
L 207.664877 -231.718059 
L 208.37972 -232.914084 
L 209.062816 -234.110109 
L 209.713621 -235.306133 
L 210.332627 -236.502158 
L 210.920837 -237.698182 
L 211.479268 -238.894207 
L 212.008548 -240.090231 
L 212.508672 -241.286256 
L 212.978925 -242.48228 
L 213.417988 -243.678305 
L 213.824162 -244.87433 
L 214.195687 -246.070354 
L 214.531066 -247.266379 
L 214.829369 -248.462403 
L 215.090446 -249.658428 
L 215.315036 -250.854452 
L 215.50477 -252.050477 
L 215.662076 -253.246502 
L 215.789999 -254.442526 
L 215.892 -255.638551 
L 216.483706 -255.638551 
L 216.483706 -255.638551 
L 216.585706 -254.442526 
L 216.71363 -253.246502 
L 216.870935 -252.050477 
L 217.06067 -250.854452 
L 217.28526 -249.658428 
L 217.546337 -248.462403 
L 217.84464 -247.266379 
L 218.180019 -246.070354 
L 218.551543 -244.87433 
L 218.957718 -243.678305 
L 219.396781 -242.48228 
L 219.867034 -241.286256 
L 220.367157 -240.090231 
L 220.896438 -238.894207 
L 221.454869 -237.698182 
L 222.043079 -236.502158 
L 222.662084 -235.306133 
L 223.312889 -234.110109 
L 223.995986 -232.914084 
L 224.710829 -231.718059 
L 225.455381 -230.522035 
L 226.225789 -229.32601 
L 227.016279 -228.129986 
L 227.819286 -226.933961 
L 228.625808 -225.737937 
L 229.425953 -224.541912 
L 230.209596 -223.345887 
L 230.967042 -222.149863 
L 231.689605 -220.953838 
L 232.370008 -219.757814 
L 233.002537 -218.561789 
L 233.582945 -217.365765 
L 234.108109 -216.16974 
L 234.575517 -214.973716 
L 234.982679 -213.777691 
L 235.326594 -212.581666 
L 235.603371 -211.385642 
L 235.808121 -210.189617 
L 235.935171 -208.993593 
L 235.9786 -207.797568 
L 235.933055 -206.601544 
L 235.794733 -205.405519 
L 235.562388 -204.209494 
L 235.238196 -203.01347 
L 234.828319 -201.817445 
L 234.343052 -200.621421 
L 233.796477 -199.425396 
L 233.20563 -198.229372 
L 232.58926 -197.033347 
L 231.966317 -195.837323 
L 231.354355 -194.641298 
L 230.768067 -193.445273 
L 230.218129 -192.249249 
L 229.710508 -191.053224 
L 229.246319 -189.8572 
L 228.822221 -188.661175 
L 228.431278 -187.465151 
L 228.064145 -186.269126 
L 227.71038 -185.073101 
L 227.359717 -183.877077 
L 227.00312 -182.681052 
L 226.633504 -181.485028 
L 226.246093 -180.289003 
L 225.838423 -179.092979 
L 225.410074 -177.896954 
L 224.962246 -176.70093 
L 224.497288 -175.504905 
L 224.018292 -174.30888 
L 223.528809 -173.112856 
L 223.032705 -171.916831 
L 222.534129 -170.720807 
L 222.037546 -169.524782 
L 221.547755 -168.328758 
L 221.069837 -167.132733 
L 220.609001 -165.936708 
L 220.170312 -164.740684 
L 219.758351 -163.544659 
L 219.376837 -162.348635 
L 219.028303 -161.15261 
L 218.713869 -159.956586 
L 218.433173 -158.760561 
L 218.184466 -157.564537 
L 217.964866 -156.368512 
L 217.770723 -155.172487 
L 217.598049 -153.976463 
L 217.442933 -152.780438 
L 217.301902 -151.584414 
L 217.172169 -150.388389 
L 217.051754 -149.192365 
L 216.939488 -147.99634 
L 216.834901 -146.800315 
L 216.738041 -145.604291 
L 216.649269 -144.408266 
L 216.569044 -143.212242 
L 216.49775 -142.016217 
L 216.435569 -140.820193 
L 216.382419 -139.624168 
L 216.337934 -138.428144 
L 216.301497 -137.232119 
z
" style="stroke: #363636; stroke-width: 1.2"/>
    </defs>
    <g clip-path="url(#p0687db936f)">
     <use xlink:href="#mee86813c47" x="0" y="353.037375" style="fill: #c38820; stroke: #363636; stroke-width: 1.2"/>
    </g>
   </g>
   <g id="PolyCollection_5">
    <defs>
     <path id="m48b437a7fd" d="M 275.779979 -82.577792 
L 275.340211 -82.577792 
L 275.270832 -84.126159 
L 275.185041 -85.674527 
L 275.080721 -87.222894 
L 274.955968 -88.771261 
L 274.809235 -90.319628 
L 274.639471 -91.867996 
L 274.446234 -93.416363 
L 274.22978 -94.96473 
L 273.991097 -96.513098 
L 273.73188 -98.061465 
L 273.454442 -99.609832 
L 273.161553 -101.158199 
L 272.856223 -102.706567 
L 272.541443 -104.254934 
L 272.219897 -105.803301 
L 271.893687 -107.351668 
L 271.564085 -108.900036 
L 271.231358 -110.448403 
L 270.89467 -111.99677 
L 270.552103 -113.545138 
L 270.200782 -115.093505 
L 269.837121 -116.641872 
L 269.457166 -118.190239 
L 269.05701 -119.738607 
L 268.633245 -121.286974 
L 268.183417 -122.835341 
L 267.706428 -124.383708 
L 267.202848 -125.932076 
L 266.675106 -127.480443 
L 266.12752 -129.02881 
L 265.566178 -130.577177 
L 264.998662 -132.125545 
L 264.433655 -133.673912 
L 263.880458 -135.222279 
L 263.348486 -136.770647 
L 262.846795 -138.319014 
L 262.383686 -139.867381 
L 261.966432 -141.415748 
L 261.60114 -142.964116 
L 261.292758 -144.512483 
L 261.045184 -146.06085 
L 260.861442 -147.609217 
L 260.743864 -149.157585 
L 260.694236 -150.705952 
L 260.713833 -152.254319 
L 260.803357 -153.802687 
L 260.962747 -155.351054 
L 261.1909 -156.899421 
L 261.485363 -158.447788 
L 261.842044 -159.996156 
L 262.255018 -161.544523 
L 262.716494 -163.09289 
L 263.216969 -164.641257 
L 263.745585 -166.189625 
L 264.29067 -167.737992 
L 264.840412 -169.286359 
L 265.383597 -170.834727 
L 265.91033 -172.383094 
L 266.412644 -173.931461 
L 266.884958 -175.479828 
L 267.324299 -177.028196 
L 267.730295 -178.576563 
L 268.104932 -180.12493 
L 268.452115 -181.673297 
L 268.777081 -183.221665 
L 269.085743 -184.770032 
L 269.384021 -186.318399 
L 269.677249 -187.866767 
L 269.969695 -189.415134 
L 270.264241 -190.963501 
L 270.562242 -192.511868 
L 270.863564 -194.060236 
L 271.166776 -195.608603 
L 271.469455 -197.15697 
L 271.76857 -198.705337 
L 272.060881 -200.253705 
L 272.343316 -201.802072 
L 272.613273 -203.350439 
L 272.868835 -204.898807 
L 273.108865 -206.447174 
L 273.333006 -207.995541 
L 273.541579 -209.543908 
L 273.73542 -211.092276 
L 273.915682 -212.640643 
L 274.083623 -214.18901 
L 274.240437 -215.737377 
L 274.38711 -217.285745 
L 274.524345 -218.834112 
L 274.65254 -220.382479 
L 274.771818 -221.930847 
L 274.882097 -223.479214 
L 274.983178 -225.027581 
L 275.074847 -226.575948 
L 275.156955 -228.124316 
L 275.229494 -229.672683 
L 275.292629 -231.22105 
L 275.346722 -232.769417 
L 275.392313 -234.317785 
L 275.430097 -235.866152 
L 275.690093 -235.866152 
L 275.690093 -235.866152 
L 275.727877 -234.317785 
L 275.773468 -232.769417 
L 275.827561 -231.22105 
L 275.890697 -229.672683 
L 275.963235 -228.124316 
L 276.045344 -226.575948 
L 276.137012 -225.027581 
L 276.238094 -223.479214 
L 276.348372 -221.930847 
L 276.46765 -220.382479 
L 276.595845 -218.834112 
L 276.73308 -217.285745 
L 276.879753 -215.737377 
L 277.036567 -214.18901 
L 277.204509 -212.640643 
L 277.38477 -211.092276 
L 277.578612 -209.543908 
L 277.787185 -207.995541 
L 278.011325 -206.447174 
L 278.251355 -204.898807 
L 278.506917 -203.350439 
L 278.776874 -201.802072 
L 279.059309 -200.253705 
L 279.351621 -198.705337 
L 279.650735 -197.15697 
L 279.953414 -195.608603 
L 280.256626 -194.060236 
L 280.557948 -192.511868 
L 280.855949 -190.963501 
L 281.150495 -189.415134 
L 281.442941 -187.866767 
L 281.73617 -186.318399 
L 282.034448 -184.770032 
L 282.343109 -183.221665 
L 282.668075 -181.673297 
L 283.015258 -180.12493 
L 283.389895 -178.576563 
L 283.795891 -177.028196 
L 284.235232 -175.479828 
L 284.707546 -173.931461 
L 285.209861 -172.383094 
L 285.736593 -170.834727 
L 286.279779 -169.286359 
L 286.829521 -167.737992 
L 287.374605 -166.189625 
L 287.903221 -164.641257 
L 288.403696 -163.09289 
L 288.865173 -161.544523 
L 289.278147 -159.996156 
L 289.634827 -158.447788 
L 289.92929 -156.899421 
L 290.157444 -155.351054 
L 290.316833 -153.802687 
L 290.406357 -152.254319 
L 290.425954 -150.705952 
L 290.376326 -149.157585 
L 290.258749 -147.609217 
L 290.075006 -146.06085 
L 289.827432 -144.512483 
L 289.51905 -142.964116 
L 289.153759 -141.415748 
L 288.736504 -139.867381 
L 288.273395 -138.319014 
L 287.771705 -136.770647 
L 287.239733 -135.222279 
L 286.686535 -133.673912 
L 286.121528 -132.125545 
L 285.554013 -130.577177 
L 284.99267 -129.02881 
L 284.445084 -127.480443 
L 283.917342 -125.932076 
L 283.413763 -124.383708 
L 282.936773 -122.835341 
L 282.486945 -121.286974 
L 282.06318 -119.738607 
L 281.663024 -118.190239 
L 281.283069 -116.641872 
L 280.919408 -115.093505 
L 280.568087 -113.545138 
L 280.22552 -111.99677 
L 279.888832 -110.448403 
L 279.556105 -108.900036 
L 279.226503 -107.351668 
L 278.900293 -105.803301 
L 278.578747 -104.254934 
L 278.263967 -102.706567 
L 277.958638 -101.158199 
L 277.665748 -99.609832 
L 277.38831 -98.061465 
L 277.129093 -96.513098 
L 276.89041 -94.96473 
L 276.673956 -93.416363 
L 276.480719 -91.867996 
L 276.310955 -90.319628 
L 276.164223 -88.771261 
L 276.039469 -87.222894 
L 275.935149 -85.674527 
L 275.849359 -84.126159 
L 275.779979 -82.577792 
z
" style="stroke: #363636; stroke-width: 1.2"/>
    </defs>
    <g clip-path="url(#p0687db936f)">
     <use xlink:href="#m48b437a7fd" x="0" y="353.037375" style="fill: #176d9c; stroke: #363636; stroke-width: 1.2"/>
    </g>
   </g>
   <g id="PolyCollection_6">
    <defs>
     <path id="m3e10793d73" d="M 315.304315 -50.498386 
L 314.978865 -50.498386 
L 314.925643 -51.874693 
L 314.860626 -53.251 
L 314.783112 -54.627307 
L 314.69295 -56.003614 
L 314.59066 -57.379921 
L 314.47751 -58.756228 
L 314.355517 -60.132534 
L 314.227378 -61.508841 
L 314.096319 -62.885148 
L 313.965879 -64.261455 
L 313.839659 -65.637762 
L 313.721061 -67.014069 
L 313.613057 -68.390376 
L 313.518003 -69.766683 
L 313.437532 -71.142989 
L 313.3725 -72.519296 
L 313.322988 -73.895603 
L 313.288307 -75.27191 
L 313.266997 -76.648217 
L 313.256768 -78.024524 
L 313.254382 -79.400831 
L 313.255484 -80.777137 
L 313.254411 -82.153444 
L 313.244031 -83.529751 
L 313.215661 -84.906058 
L 313.159146 -86.282365 
L 313.063115 -87.658672 
L 312.915461 -89.034979 
L 312.70401 -90.411286 
L 312.417357 -91.787592 
L 312.045786 -93.163899 
L 311.582187 -94.540206 
L 311.02287 -95.916513 
L 310.368185 -97.29282 
L 309.622855 -98.669127 
L 308.795985 -100.045434 
L 307.900707 -101.42174 
L 306.953486 -102.798047 
L 305.973135 -104.174354 
L 304.979608 -105.550661 
L 303.9927 -106.926968 
L 303.030756 -108.303275 
L 302.109521 -109.679582 
L 301.241261 -111.055889 
L 300.434235 -112.432195 
L 299.692597 -113.808502 
L 299.016742 -115.184809 
L 298.404072 -116.561116 
L 297.850105 -117.937423 
L 297.34981 -119.31373 
L 296.898994 -120.690037 
L 296.495589 -122.066343 
L 296.140635 -123.44265 
L 295.83884 -124.818957 
L 295.598592 -126.195264 
L 295.431405 -127.571571 
L 295.350842 -128.947878 
L 295.371034 -130.324185 
L 295.504969 -131.700492 
L 295.762797 -133.076798 
L 296.150358 -134.453105 
L 296.668141 -135.829412 
L 297.310817 -137.205719 
L 298.067381 -138.582026 
L 298.921888 -139.958333 
L 299.85465 -141.33464 
L 300.843711 -142.710946 
L 301.866404 -144.087253 
L 302.900789 -145.46356 
L 303.926823 -146.839867 
L 304.927166 -148.216174 
L 305.887611 -149.592481 
L 306.797176 -150.968788 
L 307.647949 -152.345095 
L 308.434781 -153.721401 
L 309.154935 -155.097708 
L 309.807745 -156.474015 
L 310.394339 -157.850322 
L 310.917396 -159.226629 
L 311.38094 -160.602936 
L 311.790109 -161.979243 
L 312.150883 -163.355549 
L 312.469745 -164.731856 
L 312.753295 -166.108163 
L 313.007841 -167.48447 
L 313.239019 -168.860777 
L 313.451486 -170.237084 
L 313.648735 -171.613391 
L 313.833039 -172.989698 
L 314.005545 -174.366004 
L 314.166472 -175.742311 
L 314.315401 -177.118618 
L 314.451577 -178.494925 
L 314.574209 -179.871232 
L 314.682711 -181.247539 
L 314.776861 -182.623846 
L 314.856882 -184.000152 
L 314.923444 -185.376459 
L 314.977599 -186.752766 
L 315.305581 -186.752766 
L 315.305581 -186.752766 
L 315.359735 -185.376459 
L 315.426298 -184.000152 
L 315.506319 -182.623846 
L 315.600469 -181.247539 
L 315.708971 -179.871232 
L 315.831603 -178.494925 
L 315.967779 -177.118618 
L 316.116708 -175.742311 
L 316.277635 -174.366004 
L 316.45014 -172.989698 
L 316.634445 -171.613391 
L 316.831694 -170.237084 
L 317.044161 -168.860777 
L 317.275339 -167.48447 
L 317.529885 -166.108163 
L 317.813434 -164.731856 
L 318.132297 -163.355549 
L 318.493071 -161.979243 
L 318.90224 -160.602936 
L 319.365784 -159.226629 
L 319.888841 -157.850322 
L 320.475434 -156.474015 
L 321.128245 -155.097708 
L 321.848398 -153.721401 
L 322.635231 -152.345095 
L 323.486003 -150.968788 
L 324.395569 -149.592481 
L 325.356014 -148.216174 
L 326.356357 -146.839867 
L 327.382391 -145.46356 
L 328.416776 -144.087253 
L 329.439469 -142.710946 
L 330.428529 -141.33464 
L 331.361291 -139.958333 
L 332.215799 -138.582026 
L 332.972363 -137.205719 
L 333.615038 -135.829412 
L 334.132822 -134.453105 
L 334.520383 -133.076798 
L 334.778211 -131.700492 
L 334.912146 -130.324185 
L 334.932337 -128.947878 
L 334.851775 -127.571571 
L 334.684588 -126.195264 
L 334.444339 -124.818957 
L 334.142544 -123.44265 
L 333.787591 -122.066343 
L 333.384186 -120.690037 
L 332.93337 -119.31373 
L 332.433075 -117.937423 
L 331.879108 -116.561116 
L 331.266438 -115.184809 
L 330.590583 -113.808502 
L 329.848945 -112.432195 
L 329.041919 -111.055889 
L 328.173659 -109.679582 
L 327.252424 -108.303275 
L 326.290479 -106.926968 
L 325.303572 -105.550661 
L 324.310045 -104.174354 
L 323.329693 -102.798047 
L 322.382473 -101.42174 
L 321.487195 -100.045434 
L 320.660324 -98.669127 
L 319.914995 -97.29282 
L 319.26031 -95.916513 
L 318.700993 -94.540206 
L 318.237394 -93.163899 
L 317.865823 -91.787592 
L 317.57917 -90.411286 
L 317.367719 -89.034979 
L 317.220065 -87.658672 
L 317.124034 -86.282365 
L 317.067519 -84.906058 
L 317.039149 -83.529751 
L 317.028768 -82.153444 
L 317.027696 -80.777137 
L 317.028798 -79.400831 
L 317.026412 -78.024524 
L 317.016182 -76.648217 
L 316.994873 -75.27191 
L 316.960192 -73.895603 
L 316.91068 -72.519296 
L 316.845648 -71.142989 
L 316.765177 -69.766683 
L 316.670123 -68.390376 
L 316.562119 -67.014069 
L 316.443521 -65.637762 
L 316.317301 -64.261455 
L 316.186861 -62.885148 
L 316.055802 -61.508841 
L 315.927663 -60.132534 
L 315.80567 -58.756228 
L 315.69252 -57.379921 
L 315.59023 -56.003614 
L 315.500068 -54.627307 
L 315.422554 -53.251 
L 315.357537 -51.874693 
L 315.304315 -50.498386 
z
" style="stroke: #363636; stroke-width: 1.2"/>
    </defs>
    <g clip-path="url(#p0687db936f)">
     <use xlink:href="#m3e10793d73" x="0" y="353.037375" style="fill: #c38820; stroke: #363636; stroke-width: 1.2"/>
    </g>
   </g>
   <g id="line2d_5">
    <path d="M 77.652621 241.177865 
L 77.652621 143.069908 
" clip-path="url(#p0687db936f)" style="fill: none; stroke: #363636; stroke-width: 1.2; stroke-linecap: round"/>
   </g>
   <g id="line2d_6">
    <path d="M 77.652621 209.039051 
L 77.652621 175.208722 
" clip-path="url(#p0687db936f)" style="fill: none; stroke: #363636; stroke-width: 3.6; stroke-linecap: round"/>
   </g>
   <g id="line2d_7">
    <path d="M 117.234116 273.316678 
L 117.234116 202.272985 
" clip-path="url(#p0687db936f)" style="fill: none; stroke: #363636; stroke-width: 1.2; stroke-linecap: round"/>
   </g>
   <g id="line2d_8">
    <path d="M 117.234116 251.326964 
L 117.234116 225.954216 
" clip-path="url(#p0687db936f)" style="fill: none; stroke: #363636; stroke-width: 3.6; stroke-linecap: round"/>
   </g>
   <g id="line2d_9">
    <path d="M 176.606358 144.761425 
L 176.606358 39.887402 
" clip-path="url(#p0687db936f)" style="fill: none; stroke: #363636; stroke-width: 1.2; stroke-linecap: round"/>
   </g>
   <g id="line2d_10">
    <path d="M 176.606358 107.548062 
L 176.606358 80.483798 
" clip-path="url(#p0687db936f)" style="fill: none; stroke: #363636; stroke-width: 3.6; stroke-linecap: round"/>
   </g>
   <g id="line2d_11">
    <path d="M 216.187853 198.889952 
L 216.187853 114.314128 
" clip-path="url(#p0687db936f)" style="fill: none; stroke: #363636; stroke-width: 1.2; stroke-linecap: round"/>
   </g>
   <g id="line2d_12">
    <path d="M 216.187853 164.213864 
L 216.187853 136.303842 
" clip-path="url(#p0687db936f)" style="fill: none; stroke: #363636; stroke-width: 3.6; stroke-linecap: round"/>
   </g>
   <g id="line2d_13">
    <path d="M 275.560095 246.252414 
L 275.560095 158.293557 
" clip-path="url(#p0687db936f)" style="fill: none; stroke: #363636; stroke-width: 1.2; stroke-linecap: round"/>
   </g>
   <g id="line2d_14">
    <path d="M 275.560095 213.690722 
L 275.560095 188.740853 
" clip-path="url(#p0687db936f)" style="fill: none; stroke: #363636; stroke-width: 3.6; stroke-linecap: round"/>
   </g>
   <g id="line2d_15">
    <path d="M 315.14159 269.933645 
L 315.14159 185.357821 
" clip-path="url(#p0687db936f)" style="fill: none; stroke: #363636; stroke-width: 1.2; stroke-linecap: round"/>
   </g>
   <g id="line2d_16">
    <path d="M 315.14159 238.64059 
L 315.14159 216.227996 
" clip-path="url(#p0687db936f)" style="fill: none; stroke: #363636; stroke-width: 3.6; stroke-linecap: round"/>
   </g>
   <g id="patch_5">
    <path d="M 47.9665 316.60275 
L 47.9665 7.2 
" style="fill: none; stroke: #ffffff; stroke-linejoin: miter; stroke-linecap: square"/>
   </g>
   <g id="patch_6">
    <path d="M 47.9665 316.60275 
L 344.827711 316.60275 
" style="fill: none; stroke: #ffffff; stroke-linejoin: miter; stroke-linecap: square"/>
   </g>
   <g id="PathCollection_1">
    <defs>
     <path id="m26ab90f656" d="M 0 1.2 
C 0.318244 1.2 0.623496 1.07356 0.848528 0.848528 
C 1.07356 0.623496 1.2 0.318244 1.2 0 
C 1.2 -0.318244 1.07356 -0.623496 0.848528 -0.848528 
C 0.623496 -1.07356 0.318244 -1.2 0 -1.2 
C -0.318244 -1.2 -0.623496 -1.07356 -0.848528 -0.848528 
C -1.07356 -0.623496 -1.2 -0.318244 -1.2 0 
C -1.2 0.318244 -1.07356 0.623496 -0.848528 0.848528 
C -0.623496 1.07356 -0.318244 1.2 0 1.2 
z
" style="stroke: #363636; stroke-width: 0.8"/>
    </defs>
    <g clip-path="url(#p0687db936f)">
     <use xlink:href="#m26ab90f656" x="77.652621" y="195.506919" style="fill: #ffffff; stroke: #363636; stroke-width: 0.8"/>
    </g>
   </g>
   <g id="PathCollection_2">
    <g clip-path="url(#p0687db936f)">
     <use xlink:href="#m26ab90f656" x="117.234116" y="236.103315" style="fill: #ffffff; stroke: #363636; stroke-width: 0.8"/>
    </g>
   </g>
   <g id="PathCollection_3">
    <g clip-path="url(#p0687db936f)">
     <use xlink:href="#m26ab90f656" x="176.606358" y="94.01593" style="fill: #ffffff; stroke: #363636; stroke-width: 0.8"/>
    </g>
   </g>
   <g id="PathCollection_4">
    <g clip-path="url(#p0687db936f)">
     <use xlink:href="#m26ab90f656" x="216.187853" y="148.144458" style="fill: #ffffff; stroke: #363636; stroke-width: 0.8"/>
    </g>
   </g>
   <g id="PathCollection_5">
    <g clip-path="url(#p0687db936f)">
     <use xlink:href="#m26ab90f656" x="275.560095" y="198.889952" style="fill: #ffffff; stroke: #363636; stroke-width: 0.8"/>
    </g>
   </g>
   <g id="PathCollection_6">
    <g clip-path="url(#p0687db936f)">
     <use xlink:href="#m26ab90f656" x="315.14159" y="225.954216" style="fill: #ffffff; stroke: #363636; stroke-width: 0.8"/>
    </g>
   </g>
  </g>
  <g id="legend_1">
   <g id="text_10">
    <!-- sex -->
    <g style="fill: #262626" transform="translate(369.125261 166.552562) scale(0.096 -0.096)">
     <defs>
      <path id="ArialMT-78" d="M 47 0 
L 1259 1725 
L 138 3319 
L 841 3319 
L 1350 2541 
Q 1494 2319 1581 2169 
Q 1719 2375 1834 2534 
L 2394 3319 
L 3066 3319 
L 1919 1756 
L 3153 0 
L 2463 0 
L 1781 1031 
L 1600 1309 
L 728 0 
L 47 0 
z
" transform="scale(0.015625)"/>
     </defs>
     <use xlink:href="#ArialMT-73"/>
     <use xlink:href="#ArialMT-65" x="50"/>
     <use xlink:href="#ArialMT-78" x="105.615234"/>
    </g>
   </g>
   <g id="patch_7">
    <path d="M 351.069011 179.159437 
L 368.669011 179.159437 
L 368.669011 172.999437 
L 351.069011 172.999437 
z
" style="fill: #176d9c; stroke: #363636; stroke-width: 0.6; stroke-linejoin: miter"/>
   </g>
   <g id="text_11">
    <!-- male -->
    <g style="fill: #262626" transform="translate(375.709011 179.159437) scale(0.088 -0.088)">
     <use xlink:href="#ArialMT-6d"/>
     <use xlink:href="#ArialMT-61" x="83.300781"/>
     <use xlink:href="#ArialMT-6c" x="138.916016"/>
     <use xlink:href="#ArialMT-65" x="161.132812"/>
    </g>
   </g>
   <g id="patch_8">
    <path d="M 351.069011 191.607312 
L 368.669011 191.607312 
L 368.669011 185.447312 
L 351.069011 185.447312 
z
" style="fill: #c38820; stroke: #363636; stroke-width: 0.6; stroke-linejoin: miter"/>
   </g>
   <g id="text_12">
    <!-- female -->
    <g style="fill: #262626" transform="translate(375.709011 191.607312) scale(0.088 -0.088)">
     <defs>
      <path id="ArialMT-66" d="M 556 0 
L 556 2881 
L 59 2881 
L 59 3319 
L 556 3319 
L 556 3672 
Q 556 4006 616 4169 
Q 697 4388 901 4523 
Q 1106 4659 1475 4659 
Q 1713 4659 2000 4603 
L 1916 4113 
Q 1741 4144 1584 4144 
Q 1328 4144 1222 4034 
Q 1116 3925 1116 3625 
L 1116 3319 
L 1763 3319 
L 1763 2881 
L 1116 2881 
L 1116 0 
L 556 0 
z
" transform="scale(0.015625)"/>
     </defs>
     <use xlink:href="#ArialMT-66"/>
     <use xlink:href="#ArialMT-65" x="27.783203"/>
     <use xlink:href="#ArialMT-6d" x="83.398438"/>
     <use xlink:href="#ArialMT-61" x="166.699219"/>
     <use xlink:href="#ArialMT-6c" x="222.314453"/>
     <use xlink:href="#ArialMT-65" x="244.53125"/>
    </g>
   </g>
  </g>
 </g>
 <defs>
  <clipPath id="p0687db936f">
   <rect x="47.9665" y="7.2" width="296.861211" height="309.40275"/>
  </clipPath>
 </defs>
</svg>