<?xml version="1.0" encoding="UTF-8" standalone="no"?>
<!DOCTYPE svg PUBLIC "-//W3C//DTD SVG 1.1//EN"
 "http://www.w3.org/Graphics/SVG/1.1/DTD/svg11.dtd">
<!-- Generated by graphviz version 8.0.5 (20230430.1635)
 -->
<!-- Pages: 1 -->
<svg width="322pt" height="247pt"
 viewBox="0.00 0.00 322.02 247.13" xmlns="http://www.w3.org/2000/svg" xmlns:xlink="http://www.w3.org/1999/xlink">
<g id="graph0" class="graph" transform="scale(1 1) rotate(0) translate(4 243.13)">
<polygon fill="white" stroke="none" points="-4,4 -4,-243.13 318.02,-243.13 318.02,4 -4,4"/>
<g id="clust1" class="cluster">
<title>cluster100</title>
<path fill="none" stroke="black" d="M120.01,-8C120.01,-8 194.01,-8 194.01,-8 200.01,-8 206.01,-14 206.01,-20 206.01,-20 206.01,-117.82 206.01,-117.82 206.01,-123.82 200.01,-129.82 194.01,-129.82 194.01,-129.82 120.01,-129.82 120.01,-129.82 114.01,-129.82 108.01,-123.82 108.01,-117.82 108.01,-117.82 108.01,-20 108.01,-20 108.01,-14 114.01,-8 120.01,-8"/>
<text text-anchor="middle" x="187.89" y="-15.2" font-family="Times,serif" font-size="14.00">100</text>
</g>
<!-- alpha -->
<g id="node1" class="node">
<title>alpha</title>
<ellipse fill="none" stroke="black" cx="41.01" cy="-198.48" rx="41.01" ry="40.66"/>
<text text-anchor="middle" x="41.01" y="-209.93" font-family="Times,serif" font-size="14.00">alpha</text>
<text text-anchor="middle" x="41.01" y="-193.43" font-family="Times,serif" font-size="14.00">~</text>
<text text-anchor="middle" x="41.01" y="-176.93" font-family="Times,serif" font-size="14.00">Normal</text>
</g>
<!-- y -->
<g id="node4" class="node">
<title>y</title>
<ellipse fill="lightgrey" stroke="black" cx="157.01" cy="-81.16" rx="41.01" ry="40.66"/>
<text text-anchor="middle" x="157.01" y="-92.61" font-family="Times,serif" font-size="14.00">y</text>
<text text-anchor="middle" x="157.01" y="-76.11" font-family="Times,serif" font-size="14.00">~</text>
<text text-anchor="middle" x="157.01" y="-59.61" font-family="Times,serif" font-size="14.00">Normal</text>
</g>
<!-- alpha&#45;&gt;y -->
<g id="edge1" class="edge">
<title>alpha&#45;&gt;y</title>
<path fill="none" stroke="black" d="M69.69,-168.97C85.16,-153.59 104.42,-134.44 120.91,-118.05"/>
<polygon fill="black" stroke="black" points="122.64,-121.27 127.27,-111.74 117.71,-116.3 122.64,-121.27"/>
</g>
<!-- sigma -->
<g id="node2" class="node">
<title>sigma</title>
<ellipse fill="none" stroke="black" cx="157.01" cy="-198.48" rx="57.45" ry="40.66"/>
<text text-anchor="middle" x="157.01" y="-209.93" font-family="Times,serif" font-size="14.00">sigma</text>
<text text-anchor="middle" x="157.01" y="-193.43" font-family="Times,serif" font-size="14.00">~</text>
<text text-anchor="middle" x="157.01" y="-176.93" font-family="Times,serif" font-size="14.00">HalfCauchy</text>
</g>
<!-- sigma&#45;&gt;y -->
<g id="edge2" class="edge">
<title>sigma&#45;&gt;y</title>
<path fill="none" stroke="black" d="M157.01,-157.47C157.01,-149.6 157.01,-141.24 157.01,-133.07"/>
<polygon fill="black" stroke="black" points="160.51,-133.1 157.01,-123.1 153.51,-133.1 160.51,-133.1"/>
</g>
<!-- beta -->
<g id="node3" class="node">
<title>beta</title>
<ellipse fill="none" stroke="black" cx="273.01" cy="-198.48" rx="41.01" ry="40.66"/>
<text text-anchor="middle" x="273.01" y="-209.93" font-family="Times,serif" font-size="14.00">beta</text>
<text text-anchor="middle" x="273.01" y="-193.43" font-family="Times,serif" font-size="14.00">~</text>
<text text-anchor="middle" x="273.01" y="-176.93" font-family="Times,serif" font-size="14.00">Normal</text>
</g>
<!-- beta&#45;&gt;y -->
<g id="edge3" class="edge">
<title>beta&#45;&gt;y</title>
<path fill="none" stroke="black" d="M244.34,-168.97C228.86,-153.59 209.61,-134.44 193.12,-118.05"/>
<polygon fill="black" stroke="black" points="196.32,-116.3 186.76,-111.74 191.38,-121.27 196.32,-116.3"/>
</g>
</g>
</svg>