<?xml version="1.0" encoding="utf-8" standalone="no"?>
<!DOCTYPE svg PUBLIC "-//W3C//DTD SVG 1.1//EN"
  "http://www.w3.org/Graphics/SVG/1.1/DTD/svg11.dtd">
<svg xmlns:xlink="http://www.w3.org/1999/xlink" width="605.941pt" height="376.167375pt" viewBox="0 0 605.941 376.167375" xmlns="http://www.w3.org/2000/svg" version="1.1">
 <metadata>
  <rdf:RDF xmlns:dc="http://purl.org/dc/elements/1.1/" xmlns:cc="http://creativecommons.org/ns#" xmlns:rdf="http://www.w3.org/1999/02/22-rdf-syntax-ns#">
   <cc:Work>
    <dc:type rdf:resource="http://purl.org/dc/dcmitype/StillImage"/>
    <dc:date>2023-05-08T00:37:50.795846</dc:date>
    <dc:format>image/svg+xml</dc:format>
    <dc:creator>
     <cc:Agent>
      <dc:title>Matplotlib v3.7.1, https://matplotlib.org/</dc:title>
     </cc:Agent>
    </dc:creator>
   </cc:Work>
  </rdf:RDF>
 </metadata>
 <defs>
  <style type="text/css">*{stroke-linejoin: round; stroke-linecap: butt}</style>
 </defs>
 <g id="figure_1">
  <g id="patch_1">
   <path d="M 0 376.167375 
L 605.941 376.167375 
L 605.941 0 
L 0 0 
z
" style="fill: #ffffff"/>
  </g>
  <g id="axes_1">
   <g id="patch_2">
    <path d="M 40.741 339.84 
L 598.741 339.84 
L 598.741 7.2 
L 40.741 7.2 
z
" style="fill: #eaeaf2"/>
   </g>
   <g id="matplotlib.axis_1">
    <g id="xtick_1">
     <g id="line2d_1">
      <path d="M 112.224532 339.84 
L 112.224532 7.2 
" clip-path="url(#pd61955ddc3)" style="fill: none; stroke: #ffffff; stroke-width: 0.8; stroke-linecap: round"/>
     </g>
     <g id="text_1">
      <!-- −4 -->
      <g style="fill: #262626" transform="translate(107.207844 354.438875) scale(0.088 -0.088)">
       <defs>
        <path id="ArialMT-2212" d="M 3381 1997 
L 356 1997 
L 356 2522 
L 3381 2522 
L 3381 1997 
z
" transform="scale(0.015625)"/>
        <path id="ArialMT-34" d="M 2069 0 
L 2069 1097 
L 81 1097 
L 81 1613 
L 2172 4581 
L 2631 4581 
L 2631 1613 
L 3250 1613 
L 3250 1097 
L 2631 1097 
L 2631 0 
L 2069 0 
z
M 2069 1613 
L 2069 3678 
L 634 1613 
L 2069 1613 
z
" transform="scale(0.015625)"/>
       </defs>
       <use xlink:href="#ArialMT-2212"/>
       <use xlink:href="#ArialMT-34" x="58.398438"/>
      </g>
     </g>
    </g>
    <g id="xtick_2">
     <g id="line2d_2">
      <path d="M 204.464322 339.84 
L 204.464322 7.2 
" clip-path="url(#pd61955ddc3)" style="fill: none; stroke: #ffffff; stroke-width: 0.8; stroke-linecap: round"/>
     </g>
     <g id="text_2">
      <!-- −2 -->
      <g style="fill: #262626" transform="translate(199.447634 354.438875) scale(0.088 -0.088)">
       <defs>
        <path id="ArialMT-32" d="M 3222 541 
L 3222 0 
L 194 0 
Q 188 203 259 391 
Q 375 700 629 1000 
Q 884 1300 1366 1694 
Q 2113 2306 2375 2664 
Q 2638 3022 2638 3341 
Q 2638 3675 2398 3904 
Q 2159 4134 1775 4134 
Q 1369 4134 1125 3890 
Q 881 3647 878 3216 
L 300 3275 
Q 359 3922 746 4261 
Q 1134 4600 1788 4600 
Q 2447 4600 2831 4234 
Q 3216 3869 3216 3328 
Q 3216 3053 3103 2787 
Q 2991 2522 2730 2228 
Q 2469 1934 1863 1422 
Q 1356 997 1212 845 
Q 1069 694 975 541 
L 3222 541 
z
" transform="scale(0.015625)"/>
       </defs>
       <use xlink:href="#ArialMT-2212"/>
       <use xlink:href="#ArialMT-32" x="58.398438"/>
      </g>
     </g>
    </g>
    <g id="xtick_3">
     <g id="line2d_3">
      <path d="M 296.704112 339.84 
L 296.704112 7.2 
" clip-path="url(#pd61955ddc3)" style="fill: none; stroke: #ffffff; stroke-width: 0.8; stroke-linecap: round"/>
     </g>
     <g id="text_3">
      <!-- 0 -->
      <g style="fill: #262626" transform="translate(294.2573 354.438875) scale(0.088 -0.088)">
       <defs>
        <path id="ArialMT-30" d="M 266 2259 
Q 266 3072 433 3567 
Q 600 4063 929 4331 
Q 1259 4600 1759 4600 
Q 2128 4600 2406 4451 
Q 2684 4303 2865 4023 
Q 3047 3744 3150 3342 
Q 3253 2941 3253 2259 
Q 3253 1453 3087 958 
Q 2922 463 2592 192 
Q 2263 -78 1759 -78 
Q 1097 -78 719 397 
Q 266 969 266 2259 
z
M 844 2259 
Q 844 1131 1108 757 
Q 1372 384 1759 384 
Q 2147 384 2411 759 
Q 2675 1134 2675 2259 
Q 2675 3391 2411 3762 
Q 2147 4134 1753 4134 
Q 1366 4134 1134 3806 
Q 844 3388 844 2259 
z
" transform="scale(0.015625)"/>
       </defs>
       <use xlink:href="#ArialMT-30"/>
      </g>
     </g>
    </g>
    <g id="xtick_4">
     <g id="line2d_4">
      <path d="M 388.943903 339.84 
L 388.943903 7.2 
" clip-path="url(#pd61955ddc3)" style="fill: none; stroke: #ffffff; stroke-width: 0.8; stroke-linecap: round"/>
     </g>
     <g id="text_4">
      <!-- 2 -->
      <g style="fill: #262626" transform="translate(386.49709 354.438875) scale(0.088 -0.088)">
       <use xlink:href="#ArialMT-32"/>
      </g>
     </g>
    </g>
    <g id="xtick_5">
     <g id="line2d_5">
      <path d="M 481.183693 339.84 
L 481.183693 7.2 
" clip-path="url(#pd61955ddc3)" style="fill: none; stroke: #ffffff; stroke-width: 0.8; stroke-linecap: round"/>
     </g>
     <g id="text_5">
      <!-- 4 -->
      <g style="fill: #262626" transform="translate(478.736881 354.438875) scale(0.088 -0.088)">
       <use xlink:href="#ArialMT-34"/>
      </g>
     </g>
    </g>
    <g id="xtick_6">
     <g id="line2d_6">
      <path d="M 573.423484 339.84 
L 573.423484 7.2 
" clip-path="url(#pd61955ddc3)" style="fill: none; stroke: #ffffff; stroke-width: 0.8; stroke-linecap: round"/>
     </g>
     <g id="text_6">
      <!-- 6 -->
      <g style="fill: #262626" transform="translate(570.976671 354.438875) scale(0.088 -0.088)">
       <defs>
        <path id="ArialMT-36" d="M 3184 3459 
L 2625 3416 
Q 2550 3747 2413 3897 
Q 2184 4138 1850 4138 
Q 1581 4138 1378 3988 
Q 1113 3794 959 3422 
Q 806 3050 800 2363 
Q 1003 2672 1297 2822 
Q 1591 2972 1913 2972 
Q 2475 2972 2870 2558 
Q 3266 2144 3266 1488 
Q 3266 1056 3080 686 
Q 2894 316 2569 119 
Q 2244 -78 1831 -78 
Q 1128 -78 684 439 
Q 241 956 241 2144 
Q 241 3472 731 4075 
Q 1159 4600 1884 4600 
Q 2425 4600 2770 4297 
Q 3116 3994 3184 3459 
z
M 888 1484 
Q 888 1194 1011 928 
Q 1134 663 1356 523 
Q 1578 384 1822 384 
Q 2178 384 2434 671 
Q 2691 959 2691 1453 
Q 2691 1928 2437 2201 
Q 2184 2475 1800 2475 
Q 1419 2475 1153 2201 
Q 888 1928 888 1484 
z
" transform="scale(0.015625)"/>
       </defs>
       <use xlink:href="#ArialMT-36"/>
      </g>
     </g>
    </g>
    <g id="text_7">
     <!-- x -->
     <g style="fill: #262626" transform="translate(317.341 367.059375) scale(0.096 -0.096)">
      <defs>
       <path id="ArialMT-78" d="M 47 0 
L 1259 1725 
L 138 3319 
L 841 3319 
L 1350 2541 
Q 1494 2319 1581 2169 
Q 1719 2375 1834 2534 
L 2394 3319 
L 3066 3319 
L 1919 1756 
L 3153 0 
L 2463 0 
L 1781 1031 
L 1600 1309 
L 728 0 
L 47 0 
z
" transform="scale(0.015625)"/>
      </defs>
      <use xlink:href="#ArialMT-78"/>
     </g>
    </g>
   </g>
   <g id="matplotlib.axis_2">
    <g id="ytick_1">
     <g id="line2d_7">
      <path d="M 40.741 324.72 
L 598.741 324.72 
" clip-path="url(#pd61955ddc3)" style="fill: none; stroke: #ffffff; stroke-width: 0.8; stroke-linecap: round"/>
     </g>
     <g id="text_8">
      <!-- 0.0 -->
      <g style="fill: #262626" transform="translate(20.209 327.869438) scale(0.088 -0.088)">
       <defs>
        <path id="ArialMT-2e" d="M 581 0 
L 581 641 
L 1222 641 
L 1222 0 
L 581 0 
z
" transform="scale(0.015625)"/>
       </defs>
       <use xlink:href="#ArialMT-30"/>
       <use xlink:href="#ArialMT-2e" x="55.615234"/>
       <use xlink:href="#ArialMT-30" x="83.398438"/>
      </g>
     </g>
    </g>
    <g id="ytick_2">
     <g id="line2d_8">
      <path d="M 40.741 286.81978 
L 598.741 286.81978 
" clip-path="url(#pd61955ddc3)" style="fill: none; stroke: #ffffff; stroke-width: 0.8; stroke-linecap: round"/>
     </g>
     <g id="text_9">
      <!-- 0.2 -->
      <g style="fill: #262626" transform="translate(20.209 289.969218) scale(0.088 -0.088)">
       <use xlink:href="#ArialMT-30"/>
       <use xlink:href="#ArialMT-2e" x="55.615234"/>
       <use xlink:href="#ArialMT-32" x="83.398438"/>
      </g>
     </g>
    </g>
    <g id="ytick_3">
     <g id="line2d_9">
      <path d="M 40.741 248.919561 
L 598.741 248.919561 
" clip-path="url(#pd61955ddc3)" style="fill: none; stroke: #ffffff; stroke-width: 0.8; stroke-linecap: round"/>
     </g>
     <g id="text_10">
      <!-- 0.4 -->
      <g style="fill: #262626" transform="translate(20.209 252.068998) scale(0.088 -0.088)">
       <use xlink:href="#ArialMT-30"/>
       <use xlink:href="#ArialMT-2e" x="55.615234"/>
       <use xlink:href="#ArialMT-34" x="83.398438"/>
      </g>
     </g>
    </g>
    <g id="ytick_4">
     <g id="line2d_10">
      <path d="M 40.741 211.019341 
L 598.741 211.019341 
" clip-path="url(#pd61955ddc3)" style="fill: none; stroke: #ffffff; stroke-width: 0.8; stroke-linecap: round"/>
     </g>
     <g id="text_11">
      <!-- 0.6 -->
      <g style="fill: #262626" transform="translate(20.209 214.168779) scale(0.088 -0.088)">
       <use xlink:href="#ArialMT-30"/>
       <use xlink:href="#ArialMT-2e" x="55.615234"/>
       <use xlink:href="#ArialMT-36" x="83.398438"/>
      </g>
     </g>
    </g>
    <g id="ytick_5">
     <g id="line2d_11">
      <path d="M 40.741 173.119122 
L 598.741 173.119122 
" clip-path="url(#pd61955ddc3)" style="fill: none; stroke: #ffffff; stroke-width: 0.8; stroke-linecap: round"/>
     </g>
     <g id="text_12">
      <!-- 0.8 -->
      <g style="fill: #262626" transform="translate(20.209 176.268559) scale(0.088 -0.088)">
       <defs>
        <path id="ArialMT-38" d="M 1131 2484 
Q 781 2613 612 2850 
Q 444 3088 444 3419 
Q 444 3919 803 4259 
Q 1163 4600 1759 4600 
Q 2359 4600 2725 4251 
Q 3091 3903 3091 3403 
Q 3091 3084 2923 2848 
Q 2756 2613 2416 2484 
Q 2838 2347 3058 2040 
Q 3278 1734 3278 1309 
Q 3278 722 2862 322 
Q 2447 -78 1769 -78 
Q 1091 -78 675 323 
Q 259 725 259 1325 
Q 259 1772 486 2073 
Q 713 2375 1131 2484 
z
M 1019 3438 
Q 1019 3113 1228 2906 
Q 1438 2700 1772 2700 
Q 2097 2700 2305 2904 
Q 2513 3109 2513 3406 
Q 2513 3716 2298 3927 
Q 2084 4138 1766 4138 
Q 1444 4138 1231 3931 
Q 1019 3725 1019 3438 
z
M 838 1322 
Q 838 1081 952 856 
Q 1066 631 1291 507 
Q 1516 384 1775 384 
Q 2178 384 2440 643 
Q 2703 903 2703 1303 
Q 2703 1709 2433 1975 
Q 2163 2241 1756 2241 
Q 1359 2241 1098 1978 
Q 838 1716 838 1322 
z
" transform="scale(0.015625)"/>
       </defs>
       <use xlink:href="#ArialMT-30"/>
       <use xlink:href="#ArialMT-2e" x="55.615234"/>
       <use xlink:href="#ArialMT-38" x="83.398438"/>
      </g>
     </g>
    </g>
    <g id="ytick_6">
     <g id="line2d_12">
      <path d="M 40.741 135.218902 
L 598.741 135.218902 
" clip-path="url(#pd61955ddc3)" style="fill: none; stroke: #ffffff; stroke-width: 0.8; stroke-linecap: round"/>
     </g>
     <g id="text_13">
      <!-- 1.0 -->
      <g style="fill: #262626" transform="translate(20.209 138.36834) scale(0.088 -0.088)">
       <defs>
        <path id="ArialMT-31" d="M 2384 0 
L 1822 0 
L 1822 3584 
Q 1619 3391 1289 3197 
Q 959 3003 697 2906 
L 697 3450 
Q 1169 3672 1522 3987 
Q 1875 4303 2022 4600 
L 2384 4600 
L 2384 0 
z
" transform="scale(0.015625)"/>
       </defs>
       <use xlink:href="#ArialMT-31"/>
       <use xlink:href="#ArialMT-2e" x="55.615234"/>
       <use xlink:href="#ArialMT-30" x="83.398438"/>
      </g>
     </g>
    </g>
    <g id="ytick_7">
     <g id="line2d_13">
      <path d="M 40.741 97.318683 
L 598.741 97.318683 
" clip-path="url(#pd61955ddc3)" style="fill: none; stroke: #ffffff; stroke-width: 0.8; stroke-linecap: round"/>
     </g>
     <g id="text_14">
      <!-- 1.2 -->
      <g style="fill: #262626" transform="translate(20.209 100.46812) scale(0.088 -0.088)">
       <use xlink:href="#ArialMT-31"/>
       <use xlink:href="#ArialMT-2e" x="55.615234"/>
       <use xlink:href="#ArialMT-32" x="83.398438"/>
      </g>
     </g>
    </g>
    <g id="ytick_8">
     <g id="line2d_14">
      <path d="M 40.741 59.418463 
L 598.741 59.418463 
" clip-path="url(#pd61955ddc3)" style="fill: none; stroke: #ffffff; stroke-width: 0.8; stroke-linecap: round"/>
     </g>
     <g id="text_15">
      <!-- 1.4 -->
      <g style="fill: #262626" transform="translate(20.209 62.567901) scale(0.088 -0.088)">
       <use xlink:href="#ArialMT-31"/>
       <use xlink:href="#ArialMT-2e" x="55.615234"/>
       <use xlink:href="#ArialMT-34" x="83.398438"/>
      </g>
     </g>
    </g>
    <g id="ytick_9">
     <g id="line2d_15">
      <path d="M 40.741 21.518244 
L 598.741 21.518244 
" clip-path="url(#pd61955ddc3)" style="fill: none; stroke: #ffffff; stroke-width: 0.8; stroke-linecap: round"/>
     </g>
     <g id="text_16">
      <!-- 1.6 -->
      <g style="fill: #262626" transform="translate(20.209 24.667681) scale(0.088 -0.088)">
       <use xlink:href="#ArialMT-31"/>
       <use xlink:href="#ArialMT-2e" x="55.615234"/>
       <use xlink:href="#ArialMT-36" x="83.398438"/>
      </g>
     </g>
    </g>
    <g id="text_17">
     <!-- f(x) -->
     <g style="fill: #262626" transform="translate(14.1885 180.45) rotate(-90) scale(0.096 -0.096)">
      <defs>
       <path id="ArialMT-66" d="M 556 0 
L 556 2881 
L 59 2881 
L 59 3319 
L 556 3319 
L 556 3672 
Q 556 4006 616 4169 
Q 697 4388 901 4523 
Q 1106 4659 1475 4659 
Q 1713 4659 2000 4603 
L 1916 4113 
Q 1741 4144 1584 4144 
Q 1328 4144 1222 4034 
Q 1116 3925 1116 3625 
L 1116 3319 
L 1763 3319 
L 1763 2881 
L 1116 2881 
L 1116 0 
L 556 0 
z
" transform="scale(0.015625)"/>
       <path id="ArialMT-28" d="M 1497 -1347 
Q 1031 -759 709 28 
Q 388 816 388 1659 
Q 388 2403 628 3084 
Q 909 3875 1497 4659 
L 1900 4659 
Q 1522 4009 1400 3731 
Q 1209 3300 1100 2831 
Q 966 2247 966 1656 
Q 966 153 1900 -1347 
L 1497 -1347 
z
" transform="scale(0.015625)"/>
       <path id="ArialMT-29" d="M 791 -1347 
L 388 -1347 
Q 1322 153 1322 1656 
Q 1322 2244 1188 2822 
Q 1081 3291 891 3722 
Q 769 4003 388 4659 
L 791 4659 
Q 1378 3875 1659 3084 
Q 1900 2403 1900 1659 
Q 1900 816 1576 28 
Q 1253 -759 791 -1347 
z
" transform="scale(0.015625)"/>
      </defs>
      <use xlink:href="#ArialMT-66"/>
      <use xlink:href="#ArialMT-28" x="27.783203"/>
      <use xlink:href="#ArialMT-78" x="61.083984"/>
      <use xlink:href="#ArialMT-29" x="111.083984"/>
     </g>
    </g>
   </g>
   <g id="line2d_16">
    <path d="M 66.104636 324.72 
L 204.694921 324.610129 
L 208.200033 324.368216 
L 210.506028 324.000744 
L 212.304704 323.497924 
L 213.826661 322.842242 
L 215.164138 322.020251 
L 216.363255 321.024046 
L 217.516252 319.771727 
L 218.62313 318.233269 
L 219.730007 316.294501 
L 220.836885 313.876665 
L 221.943762 310.893008 
L 223.05064 307.250113 
L 224.203637 302.648688 
L 225.356634 297.112744 
L 226.555752 290.245406 
L 227.800989 281.794646 
L 229.092346 271.496361 
L 230.475943 258.6323 
L 231.951779 242.777102 
L 233.565976 222.975716 
L 235.410772 197.512114 
L 237.809006 161.039126 
L 242.974434 81.503828 
L 244.588631 60.561145 
L 245.879988 46.470374 
L 246.986865 36.685967 
L 247.909263 30.349657 
L 248.693301 26.359453 
L 249.33898 24.078464 
L 249.892419 22.86383 
L 250.307498 22.407079 
L 250.630337 22.322419 
L 250.953176 22.474789 
L 251.322135 22.938681 
L 251.783334 23.950965 
L 252.336773 25.793225 
L 252.982452 28.791271 
L 253.76649 33.621224 
L 254.642768 40.485772 
L 255.703526 50.705056 
L 256.948763 65.053363 
L 258.470719 85.394956 
L 260.499995 115.800159 
L 266.72618 211.225924 
L 268.570976 235.156252 
L 270.231293 253.914078 
L 271.753249 268.666721 
L 273.182966 280.421508 
L 274.520443 289.666949 
L 275.8118 297.112744 
L 277.057037 303.0497 
L 278.256154 307.744848 
L 279.455272 311.56578 
L 280.608269 314.530654 
L 281.761266 316.9058 
L 282.914264 318.786925 
L 284.067261 320.260027 
L 285.266378 321.440409 
L 286.511616 322.363865 
L 287.895212 323.110534 
L 289.463289 323.693086 
L 291.308085 324.128895 
L 293.614079 324.434114 
L 296.888592 324.624857 
L 302.838058 324.709514 
L 332.585391 324.72 
L 573.377364 324.72 
L 573.377364 324.72 
" clip-path="url(#pd61955ddc3)" style="fill: none; stroke: #0173b2; stroke-width: 1.2; stroke-linecap: round"/>
   </g>
   <g id="line2d_17">
    <path d="M 66.104636 324.72 
L 186.016364 324.609351 
L 193.441667 324.362864 
L 198.376496 323.985264 
L 202.158327 323.481868 
L 205.3406 322.838853 
L 208.107794 322.05522 
L 210.598268 321.11895 
L 212.858143 320.035049 
L 214.979658 318.774495 
L 217.008933 317.311445 
L 218.992089 315.602885 
L 220.929125 313.633752 
L 222.82004 311.392955 
L 224.710956 308.806601 
L 226.647992 305.768531 
L 228.585027 302.309144 
L 230.568183 298.306072 
L 232.597458 293.707093 
L 234.718973 288.343191 
L 236.978848 282.004858 
L 239.377083 274.595723 
L 242.005917 265.727432 
L 245.00371 254.802116 
L 248.923901 239.604304 
L 256.672043 209.394858 
L 259.393117 199.804006 
L 261.606872 192.778128 
L 263.543908 187.349526 
L 265.250344 183.212112 
L 266.7723 180.086716 
L 268.155897 177.742213 
L 269.401134 176.057972 
L 270.508012 174.911852 
L 271.52265 174.158526 
L 272.491167 173.708882 
L 273.413565 173.52756 
L 274.289843 173.579259 
L 275.166121 173.848955 
L 276.088519 174.36706 
L 277.057037 175.166907 
L 278.117795 176.338677 
L 279.270792 177.95459 
L 280.562149 180.173181 
L 281.945746 183.00706 
L 283.513822 186.753423 
L 285.266378 191.554134 
L 287.249534 197.673462 
L 289.555529 205.549712 
L 292.414962 216.159734 
L 296.888592 233.746208 
L 302.515219 255.668579 
L 305.743612 267.335659 
L 308.464686 276.365782 
L 310.95516 283.880838 
L 313.261155 290.155005 
L 315.47491 295.545196 
L 317.596425 300.133796 
L 319.6257 304.010646 
L 321.608856 307.338551 
L 323.592011 310.239174 
L 325.529047 312.690602 
L 327.512202 314.843527 
L 329.495358 316.670891 
L 331.524633 318.241082 
L 333.646148 319.598735 
L 335.859903 320.749065 
L 338.212018 321.720026 
L 340.794732 322.541293 
L 343.654166 323.213249 
L 346.928678 323.750756 
L 350.894989 324.167138 
L 355.922058 324.459905 
L 363.162881 324.639247 
L 376.81437 324.713193 
L 466.471447 324.72 
L 573.377364 324.72 
L 573.377364 324.72 
" clip-path="url(#pd61955ddc3)" style="fill: none; stroke: #de8f05; stroke-width: 1.2; stroke-linecap: round"/>
   </g>
   <g id="line2d_18">
    <path d="M 66.104636 324.719718 
L 130.34965 324.606932 
L 145.984295 324.3574 
L 156.499631 323.975724 
L 164.708972 323.461483 
L 171.580837 322.813495 
L 177.576423 322.030079 
L 182.972451 321.105772 
L 187.953399 320.030273 
L 192.611509 318.799436 
L 197.039019 317.400838 
L 201.282049 315.828678 
L 205.43284 314.052137 
L 209.491391 312.071789 
L 213.503821 309.866311 
L 217.516252 307.407794 
L 221.620923 304.629154 
L 225.817833 301.517227 
L 230.245343 297.951769 
L 234.995693 293.833034 
L 240.3456 288.88897 
L 247.125225 282.298989 
L 261.745232 267.997311 
L 266.587821 263.635889 
L 270.646372 260.272961 
L 274.243723 257.573837 
L 277.518236 255.386494 
L 280.608269 253.586686 
L 283.513822 252.149516 
L 286.281016 251.026229 
L 288.95597 250.179375 
L 291.538684 249.592679 
L 294.075278 249.242712 
L 296.565753 249.12034 
L 299.056227 249.218254 
L 301.592821 249.54353 
L 304.129415 250.093492 
L 306.75825 250.895232 
L 309.433203 251.945306 
L 312.246517 253.293298 
L 315.19819 254.960349 
L 318.334343 256.993619 
L 321.701096 259.447274 
L 325.390687 262.416707 
L 329.587598 266.088518 
L 334.660786 270.838253 
L 342.086089 278.132685 
L 353.108744 288.932746 
L 358.781491 294.162863 
L 363.6702 298.374321 
L 368.18995 301.978163 
L 372.4791 305.116036 
L 376.629891 307.879078 
L 380.688442 310.317011 
L 384.746992 312.497044 
L 388.805543 314.427126 
L 392.956334 316.155106 
L 397.199364 317.681213 
L 401.626874 319.036065 
L 406.284983 320.225887 
L 411.219812 321.254656 
L 416.56972 322.139313 
L 422.473067 322.88473 
L 429.114331 323.493535 
L 436.862474 323.973459 
L 446.363172 324.329199 
L 459.000024 324.565293 
L 478.923818 324.689185 
L 532.699616 324.719844 
L 573.377364 324.719999 
L 573.377364 324.719999 
" clip-path="url(#pd61955ddc3)" style="fill: none; stroke: #029e73; stroke-width: 1.2; stroke-linecap: round"/>
   </g>
   <g id="line2d_19">
    <path d="M 66.104636 324.30008 
L 87.827107 323.892148 
L 105.260427 323.348769 
L 120.249393 322.663461 
L 133.624163 321.832483 
L 145.892055 320.850224 
L 157.422029 319.705874 
L 168.444684 318.389913 
L 179.190619 316.883666 
L 189.844315 315.165636 
L 200.636371 313.198694 
L 211.843505 310.927719 
L 224.019158 308.228632 
L 238.500805 304.779983 
L 280.10095 294.722648 
L 290.477926 292.542065 
L 299.563546 290.856809 
L 307.865127 289.539618 
L 315.705509 288.518842 
L 323.223052 287.763891 
L 330.509996 287.255344 
L 337.658579 286.979224 
L 344.761043 286.928334 
L 351.863507 287.10108 
L 359.012091 287.497665 
L 366.299034 288.124548 
L 373.862697 289.000635 
L 381.749199 290.14029 
L 390.14302 291.580544 
L 399.320879 293.385147 
L 409.790095 295.677186 
L 422.934266 298.796161 
L 467.347725 309.523592 
L 479.338897 312.076932 
L 490.453792 314.218596 
L 501.199728 316.063897 
L 511.853423 317.668214 
L 522.645479 319.067861 
L 533.760374 320.28353 
L 545.382587 321.329081 
L 557.788839 322.218992 
L 571.301968 322.961353 
L 573.377364 323.057107 
L 573.377364 323.057107 
" clip-path="url(#pd61955ddc3)" style="fill: none; stroke: #d55e00; stroke-width: 1.2; stroke-linecap: round"/>
   </g>
   <g id="patch_3">
    <path d="M 40.741 339.84 
L 40.741 7.2 
" style="fill: none; stroke: #ffffff; stroke-linejoin: miter; stroke-linecap: square"/>
   </g>
   <g id="patch_4">
    <path d="M 598.741 339.84 
L 598.741 7.2 
" style="fill: none; stroke: #ffffff; stroke-linejoin: miter; stroke-linecap: square"/>
   </g>
   <g id="patch_5">
    <path d="M 40.741 339.84 
L 598.741 339.84 
" style="fill: none; stroke: #ffffff; stroke-linejoin: miter; stroke-linecap: square"/>
   </g>
   <g id="patch_6">
    <path d="M 40.741 7.2 
L 598.741 7.2 
" style="fill: none; stroke: #ffffff; stroke-linejoin: miter; stroke-linecap: square"/>
   </g>
   <g id="legend_1">
    <g id="patch_7">
     <path d="M 496.837 64.928 
L 592.581 64.928 
Q 594.341 64.928 594.341 63.168 
L 594.341 13.36 
Q 594.341 11.6 592.581 11.6 
L 496.837 11.6 
Q 495.077 11.6 495.077 13.36 
L 495.077 63.168 
Q 495.077 64.928 496.837 64.928 
z
" style="fill: #eaeaf2; opacity: 0.8; stroke: #cccccc; stroke-width: 0.8; stroke-linejoin: miter"/>
    </g>
    <g id="line2d_20">
     <path d="M 498.597 18.376 
L 507.397 18.376 
L 516.197 18.376 
" style="fill: none; stroke: #0173b2; stroke-width: 1.2; stroke-linecap: round"/>
    </g>
    <g id="text_18">
     <!-- $\mu$ = -1.0, $\sigma$ = 0.25 -->
     <g style="fill: #262626" transform="translate(523.237 21.456) scale(0.088 -0.088)">
      <defs>
       <path id="Cmmi10-b9" d="M 178 -1203 
Q 178 -1166 184 -1153 
L 1125 2625 
Q 1153 2716 1226 2772 
Q 1300 2828 1394 2828 
Q 1475 2828 1531 2779 
Q 1588 2731 1588 2650 
Q 1588 2631 1586 2620 
Q 1584 2609 1581 2597 
L 1203 1100 
Q 1141 834 1141 641 
Q 1141 403 1253 250 
Q 1366 97 1594 97 
Q 2059 97 2413 678 
Q 2416 684 2417 687 
Q 2419 691 2419 697 
L 2881 2553 
Q 2903 2638 2981 2698 
Q 3059 2759 3150 2759 
Q 3225 2759 3283 2709 
Q 3341 2659 3341 2578 
Q 3341 2541 3334 2528 
L 2875 684 
Q 2828 503 2828 372 
Q 2828 97 3016 97 
Q 3216 97 3317 344 
Q 3419 591 3494 941 
Q 3506 978 3547 978 
L 3622 978 
Q 3647 978 3664 958 
Q 3681 938 3681 916 
Q 3569 469 3436 198 
Q 3303 -72 3003 -72 
Q 2791 -72 2627 50 
Q 2463 172 2413 378 
Q 2253 178 2039 53 
Q 1825 -72 1588 -72 
Q 1188 -72 959 116 
L 634 -1178 
Q 616 -1269 541 -1325 
Q 466 -1381 372 -1381 
Q 294 -1381 236 -1332 
Q 178 -1284 178 -1203 
z
" transform="scale(0.015625)"/>
       <path id="ArialMT-20" transform="scale(0.015625)"/>
       <path id="ArialMT-3d" d="M 3381 2694 
L 356 2694 
L 356 3219 
L 3381 3219 
L 3381 2694 
z
M 3381 1303 
L 356 1303 
L 356 1828 
L 3381 1828 
L 3381 1303 
z
" transform="scale(0.015625)"/>
       <path id="ArialMT-2d" d="M 203 1375 
L 203 1941 
L 1931 1941 
L 1931 1375 
L 203 1375 
z
" transform="scale(0.015625)"/>
       <path id="ArialMT-2c" d="M 569 0 
L 569 641 
L 1209 641 
L 1209 0 
Q 1209 -353 1084 -570 
Q 959 -788 688 -906 
L 531 -666 
Q 709 -588 793 -436 
Q 878 -284 888 0 
L 569 0 
z
" transform="scale(0.015625)"/>
       <path id="Cmmi10-be" d="M 1197 -72 
Q 913 -72 692 64 
Q 472 200 351 431 
Q 231 663 231 941 
Q 231 1238 365 1566 
Q 500 1894 733 2166 
Q 966 2438 1259 2598 
Q 1553 2759 1863 2759 
L 3475 2759 
Q 3541 2759 3587 2715 
Q 3634 2672 3634 2597 
Q 3634 2503 3567 2433 
Q 3500 2363 3406 2363 
L 2625 2363 
Q 2809 2088 2809 1697 
Q 2809 1375 2684 1062 
Q 2559 750 2337 492 
Q 2116 234 1820 81 
Q 1525 -72 1197 -72 
z
M 1203 97 
Q 1553 97 1823 370 
Q 2094 644 2237 1039 
Q 2381 1434 2381 1772 
Q 2381 2047 2229 2205 
Q 2078 2363 1806 2363 
Q 1434 2363 1173 2113 
Q 913 1863 783 1484 
Q 653 1106 653 756 
Q 653 481 798 289 
Q 944 97 1203 97 
z
" transform="scale(0.015625)"/>
       <path id="ArialMT-35" d="M 266 1200 
L 856 1250 
Q 922 819 1161 601 
Q 1400 384 1738 384 
Q 2144 384 2425 690 
Q 2706 997 2706 1503 
Q 2706 1984 2436 2262 
Q 2166 2541 1728 2541 
Q 1456 2541 1237 2417 
Q 1019 2294 894 2097 
L 366 2166 
L 809 4519 
L 3088 4519 
L 3088 3981 
L 1259 3981 
L 1013 2750 
Q 1425 3038 1878 3038 
Q 2478 3038 2890 2622 
Q 3303 2206 3303 1553 
Q 3303 931 2941 478 
Q 2500 -78 1738 -78 
Q 1113 -78 717 272 
Q 322 622 266 1200 
z
" transform="scale(0.015625)"/>
      </defs>
      <use xlink:href="#Cmmi10-b9" transform="translate(0 0.125)"/>
      <use xlink:href="#ArialMT-20" transform="translate(60.205078 0.125)"/>
      <use xlink:href="#ArialMT-3d" transform="translate(87.988281 0.125)"/>
      <use xlink:href="#ArialMT-20" transform="translate(146.386719 0.125)"/>
      <use xlink:href="#ArialMT-2d" transform="translate(174.169922 0.125)"/>
      <use xlink:href="#ArialMT-31" transform="translate(207.470703 0.125)"/>
      <use xlink:href="#ArialMT-2e" transform="translate(263.085938 0.125)"/>
      <use xlink:href="#ArialMT-30" transform="translate(290.869141 0.125)"/>
      <use xlink:href="#ArialMT-2c" transform="translate(346.484375 0.125)"/>
      <use xlink:href="#ArialMT-20" transform="translate(374.267578 0.125)"/>
      <use xlink:href="#Cmmi10-be" transform="translate(402.050781 0.125)"/>
      <use xlink:href="#ArialMT-20" transform="translate(459.130859 0.125)"/>
      <use xlink:href="#ArialMT-3d" transform="translate(486.914062 0.125)"/>
      <use xlink:href="#ArialMT-20" transform="translate(545.3125 0.125)"/>
      <use xlink:href="#ArialMT-30" transform="translate(573.095703 0.125)"/>
      <use xlink:href="#ArialMT-2e" transform="translate(628.710938 0.125)"/>
      <use xlink:href="#ArialMT-32" transform="translate(656.494141 0.125)"/>
      <use xlink:href="#ArialMT-35" transform="translate(712.109375 0.125)"/>
     </g>
    </g>
    <g id="line2d_21">
     <path d="M 498.597 31.048 
L 507.397 31.048 
L 516.197 31.048 
" style="fill: none; stroke: #de8f05; stroke-width: 1.2; stroke-linecap: round"/>
    </g>
    <g id="text_19">
     <!-- $\mu$ = -0.5, $\sigma$ = 0.5 -->
     <g style="fill: #262626" transform="translate(523.237 34.128) scale(0.088 -0.088)">
      <use xlink:href="#Cmmi10-b9" transform="translate(0 0.125)"/>
      <use xlink:href="#ArialMT-20" transform="translate(60.205078 0.125)"/>
      <use xlink:href="#ArialMT-3d" transform="translate(87.988281 0.125)"/>
      <use xlink:href="#ArialMT-20" transform="translate(146.386719 0.125)"/>
      <use xlink:href="#ArialMT-2d" transform="translate(174.169922 0.125)"/>
      <use xlink:href="#ArialMT-30" transform="translate(207.470703 0.125)"/>
      <use xlink:href="#ArialMT-2e" transform="translate(263.085938 0.125)"/>
      <use xlink:href="#ArialMT-35" transform="translate(290.869141 0.125)"/>
      <use xlink:href="#ArialMT-2c" transform="translate(346.484375 0.125)"/>
      <use xlink:href="#ArialMT-20" transform="translate(374.267578 0.125)"/>
      <use xlink:href="#Cmmi10-be" transform="translate(402.050781 0.125)"/>
      <use xlink:href="#ArialMT-20" transform="translate(459.130859 0.125)"/>
      <use xlink:href="#ArialMT-3d" transform="translate(486.914062 0.125)"/>
      <use xlink:href="#ArialMT-20" transform="translate(545.3125 0.125)"/>
      <use xlink:href="#ArialMT-30" transform="translate(573.095703 0.125)"/>
      <use xlink:href="#ArialMT-2e" transform="translate(628.710938 0.125)"/>
      <use xlink:href="#ArialMT-35" transform="translate(656.494141 0.125)"/>
     </g>
    </g>
    <g id="line2d_22">
     <path d="M 498.597 43.72 
L 507.397 43.72 
L 516.197 43.72 
" style="fill: none; stroke: #029e73; stroke-width: 1.2; stroke-linecap: round"/>
    </g>
    <g id="text_20">
     <!-- $\mu$ = 0.0, $\sigma$ = 1 -->
     <g style="fill: #262626" transform="translate(523.237 46.8) scale(0.088 -0.088)">
      <use xlink:href="#Cmmi10-b9" transform="translate(0 0.125)"/>
      <use xlink:href="#ArialMT-20" transform="translate(60.205078 0.125)"/>
      <use xlink:href="#ArialMT-3d" transform="translate(87.988281 0.125)"/>
      <use xlink:href="#ArialMT-20" transform="translate(146.386719 0.125)"/>
      <use xlink:href="#ArialMT-30" transform="translate(174.169922 0.125)"/>
      <use xlink:href="#ArialMT-2e" transform="translate(229.785156 0.125)"/>
      <use xlink:href="#ArialMT-30" transform="translate(257.568359 0.125)"/>
      <use xlink:href="#ArialMT-2c" transform="translate(313.183594 0.125)"/>
      <use xlink:href="#ArialMT-20" transform="translate(340.966797 0.125)"/>
      <use xlink:href="#Cmmi10-be" transform="translate(368.75 0.125)"/>
      <use xlink:href="#ArialMT-20" transform="translate(425.830078 0.125)"/>
      <use xlink:href="#ArialMT-3d" transform="translate(453.613281 0.125)"/>
      <use xlink:href="#ArialMT-20" transform="translate(512.011719 0.125)"/>
      <use xlink:href="#ArialMT-31" transform="translate(539.794922 0.125)"/>
     </g>
    </g>
    <g id="line2d_23">
     <path d="M 498.597 56.392 
L 507.397 56.392 
L 516.197 56.392 
" style="fill: none; stroke: #d55e00; stroke-width: 1.2; stroke-linecap: round"/>
    </g>
    <g id="text_21">
     <!-- $\mu$ = 1.0, $\sigma$ = 2 -->
     <g style="fill: #262626" transform="translate(523.237 59.472) scale(0.088 -0.088)">
      <use xlink:href="#Cmmi10-b9" transform="translate(0 0.125)"/>
      <use xlink:href="#ArialMT-20" transform="translate(60.205078 0.125)"/>
      <use xlink:href="#ArialMT-3d" transform="translate(87.988281 0.125)"/>
      <use xlink:href="#ArialMT-20" transform="translate(146.386719 0.125)"/>
      <use xlink:href="#ArialMT-31" transform="translate(174.169922 0.125)"/>
      <use xlink:href="#ArialMT-2e" transform="translate(229.785156 0.125)"/>
      <use xlink:href="#ArialMT-30" transform="translate(257.568359 0.125)"/>
      <use xlink:href="#ArialMT-2c" transform="translate(313.183594 0.125)"/>
      <use xlink:href="#ArialMT-20" transform="translate(340.966797 0.125)"/>
      <use xlink:href="#Cmmi10-be" transform="translate(368.75 0.125)"/>
      <use xlink:href="#ArialMT-20" transform="translate(425.830078 0.125)"/>
      <use xlink:href="#ArialMT-3d" transform="translate(453.613281 0.125)"/>
      <use xlink:href="#ArialMT-20" transform="translate(512.011719 0.125)"/>
      <use xlink:href="#ArialMT-32" transform="translate(539.794922 0.125)"/>
     </g>
    </g>
   </g>
  </g>
 </g>
 <defs>
  <clipPath id="pd61955ddc3">
   <rect x="40.741" y="7.2" width="558" height="332.64"/>
  </clipPath>
 </defs>
</svg>