<?xml version="1.0" encoding="utf-8" standalone="no"?>
<!DOCTYPE svg PUBLIC "-//W3C//DTD SVG 1.1//EN"
  "http://www.w3.org/Graphics/SVG/1.1/DTD/svg11.dtd">
<svg xmlns:xlink="http://www.w3.org/1999/xlink" width="652.249531pt" height="366.599844pt" viewBox="0 0 652.249531 366.599844" xmlns="http://www.w3.org/2000/svg" version="1.1">
 <metadata>
  <rdf:RDF xmlns:dc="http://purl.org/dc/elements/1.1/" xmlns:cc="http://creativecommons.org/ns#" xmlns:rdf="http://www.w3.org/1999/02/22-rdf-syntax-ns#">
   <cc:Work>
    <dc:type rdf:resource="http://purl.org/dc/dcmitype/StillImage"/>
    <dc:date>2023-05-28T12:24:38.731401</dc:date>
    <dc:format>image/svg+xml</dc:format>
    <dc:creator>
     <cc:Agent>
      <dc:title>Matplotlib v3.7.1, https://matplotlib.org/</dc:title>
     </cc:Agent>
    </dc:creator>
   </cc:Work>
  </rdf:RDF>
 </metadata>
 <defs>
  <style type="text/css">*{stroke-linejoin: round; stroke-linecap: butt}</style>
 </defs>
 <g id="figure_1">
  <g id="patch_1">
   <path d="M 0 366.599844 
L 652.249531 366.599844 
L 652.249531 0 
L 0 0 
z
" style="fill: #ffffff"/>
  </g>
  <g id="axes_1">
   <g id="patch_2">
    <path d="M 50.025469 339.84 
L 608.025469 339.84 
L 608.025469 7.2 
L 50.025469 7.2 
z
" style="fill: #eaeaf2"/>
   </g>
   <g id="matplotlib.axis_1">
    <g id="xtick_1">
     <g id="line2d_1">
      <path d="M 98.446956 339.84 
L 98.446956 7.2 
" clip-path="url(#p131230ff9f)" style="fill: none; stroke: #ffffff; stroke-linecap: round"/>
     </g>
     <g id="text_1">
      <!-- 60 -->
      <g style="fill: #262626" transform="translate(92.329925 357.213594) scale(0.11 -0.11)">
       <defs>
        <path id="ArialMT-36" d="M 3184 3459 
L 2625 3416 
Q 2550 3747 2413 3897 
Q 2184 4138 1850 4138 
Q 1581 4138 1378 3988 
Q 1113 3794 959 3422 
Q 806 3050 800 2363 
Q 1003 2672 1297 2822 
Q 1591 2972 1913 2972 
Q 2475 2972 2870 2558 
Q 3266 2144 3266 1488 
Q 3266 1056 3080 686 
Q 2894 316 2569 119 
Q 2244 -78 1831 -78 
Q 1128 -78 684 439 
Q 241 956 241 2144 
Q 241 3472 731 4075 
Q 1159 4600 1884 4600 
Q 2425 4600 2770 4297 
Q 3116 3994 3184 3459 
z
M 888 1484 
Q 888 1194 1011 928 
Q 1134 663 1356 523 
Q 1578 384 1822 384 
Q 2178 384 2434 671 
Q 2691 959 2691 1453 
Q 2691 1928 2437 2201 
Q 2184 2475 1800 2475 
Q 1419 2475 1153 2201 
Q 888 1928 888 1484 
z
" transform="scale(0.015625)"/>
        <path id="ArialMT-30" d="M 266 2259 
Q 266 3072 433 3567 
Q 600 4063 929 4331 
Q 1259 4600 1759 4600 
Q 2128 4600 2406 4451 
Q 2684 4303 2865 4023 
Q 3047 3744 3150 3342 
Q 3253 2941 3253 2259 
Q 3253 1453 3087 958 
Q 2922 463 2592 192 
Q 2263 -78 1759 -78 
Q 1097 -78 719 397 
Q 266 969 266 2259 
z
M 844 2259 
Q 844 1131 1108 757 
Q 1372 384 1759 384 
Q 2147 384 2411 759 
Q 2675 1134 2675 2259 
Q 2675 3391 2411 3762 
Q 2147 4134 1753 4134 
Q 1366 4134 1134 3806 
Q 844 3388 844 2259 
z
" transform="scale(0.015625)"/>
       </defs>
       <use xlink:href="#ArialMT-36"/>
       <use xlink:href="#ArialMT-30" x="55.615234"/>
      </g>
     </g>
    </g>
    <g id="xtick_2">
     <g id="line2d_2">
      <path d="M 190.678361 339.84 
L 190.678361 7.2 
" clip-path="url(#p131230ff9f)" style="fill: none; stroke: #ffffff; stroke-linecap: round"/>
     </g>
     <g id="text_2">
      <!-- 80 -->
      <g style="fill: #262626" transform="translate(184.56133 357.213594) scale(0.11 -0.11)">
       <defs>
        <path id="ArialMT-38" d="M 1131 2484 
Q 781 2613 612 2850 
Q 444 3088 444 3419 
Q 444 3919 803 4259 
Q 1163 4600 1759 4600 
Q 2359 4600 2725 4251 
Q 3091 3903 3091 3403 
Q 3091 3084 2923 2848 
Q 2756 2613 2416 2484 
Q 2838 2347 3058 2040 
Q 3278 1734 3278 1309 
Q 3278 722 2862 322 
Q 2447 -78 1769 -78 
Q 1091 -78 675 323 
Q 259 725 259 1325 
Q 259 1772 486 2073 
Q 713 2375 1131 2484 
z
M 1019 3438 
Q 1019 3113 1228 2906 
Q 1438 2700 1772 2700 
Q 2097 2700 2305 2904 
Q 2513 3109 2513 3406 
Q 2513 3716 2298 3927 
Q 2084 4138 1766 4138 
Q 1444 4138 1231 3931 
Q 1019 3725 1019 3438 
z
M 838 1322 
Q 838 1081 952 856 
Q 1066 631 1291 507 
Q 1516 384 1775 384 
Q 2178 384 2440 643 
Q 2703 903 2703 1303 
Q 2703 1709 2433 1975 
Q 2163 2241 1756 2241 
Q 1359 2241 1098 1978 
Q 838 1716 838 1322 
z
" transform="scale(0.015625)"/>
       </defs>
       <use xlink:href="#ArialMT-38"/>
       <use xlink:href="#ArialMT-30" x="55.615234"/>
      </g>
     </g>
    </g>
    <g id="xtick_3">
     <g id="line2d_3">
      <path d="M 282.909766 339.84 
L 282.909766 7.2 
" clip-path="url(#p131230ff9f)" style="fill: none; stroke: #ffffff; stroke-linecap: round"/>
     </g>
     <g id="text_3">
      <!-- 100 -->
      <g style="fill: #262626" transform="translate(273.734219 357.213594) scale(0.11 -0.11)">
       <defs>
        <path id="ArialMT-31" d="M 2384 0 
L 1822 0 
L 1822 3584 
Q 1619 3391 1289 3197 
Q 959 3003 697 2906 
L 697 3450 
Q 1169 3672 1522 3987 
Q 1875 4303 2022 4600 
L 2384 4600 
L 2384 0 
z
" transform="scale(0.015625)"/>
       </defs>
       <use xlink:href="#ArialMT-31"/>
       <use xlink:href="#ArialMT-30" x="55.615234"/>
       <use xlink:href="#ArialMT-30" x="111.230469"/>
      </g>
     </g>
    </g>
    <g id="xtick_4">
     <g id="line2d_4">
      <path d="M 375.141171 339.84 
L 375.141171 7.2 
" clip-path="url(#p131230ff9f)" style="fill: none; stroke: #ffffff; stroke-linecap: round"/>
     </g>
     <g id="text_4">
      <!-- 120 -->
      <g style="fill: #262626" transform="translate(365.965624 357.213594) scale(0.11 -0.11)">
       <defs>
        <path id="ArialMT-32" d="M 3222 541 
L 3222 0 
L 194 0 
Q 188 203 259 391 
Q 375 700 629 1000 
Q 884 1300 1366 1694 
Q 2113 2306 2375 2664 
Q 2638 3022 2638 3341 
Q 2638 3675 2398 3904 
Q 2159 4134 1775 4134 
Q 1369 4134 1125 3890 
Q 881 3647 878 3216 
L 300 3275 
Q 359 3922 746 4261 
Q 1134 4600 1788 4600 
Q 2447 4600 2831 4234 
Q 3216 3869 3216 3328 
Q 3216 3053 3103 2787 
Q 2991 2522 2730 2228 
Q 2469 1934 1863 1422 
Q 1356 997 1212 845 
Q 1069 694 975 541 
L 3222 541 
z
" transform="scale(0.015625)"/>
       </defs>
       <use xlink:href="#ArialMT-31"/>
       <use xlink:href="#ArialMT-32" x="55.615234"/>
       <use xlink:href="#ArialMT-30" x="111.230469"/>
      </g>
     </g>
    </g>
    <g id="xtick_5">
     <g id="line2d_5">
      <path d="M 467.372576 339.84 
L 467.372576 7.2 
" clip-path="url(#p131230ff9f)" style="fill: none; stroke: #ffffff; stroke-linecap: round"/>
     </g>
     <g id="text_5">
      <!-- 140 -->
      <g style="fill: #262626" transform="translate(458.197029 357.213594) scale(0.11 -0.11)">
       <defs>
        <path id="ArialMT-34" d="M 2069 0 
L 2069 1097 
L 81 1097 
L 81 1613 
L 2172 4581 
L 2631 4581 
L 2631 1613 
L 3250 1613 
L 3250 1097 
L 2631 1097 
L 2631 0 
L 2069 0 
z
M 2069 1613 
L 2069 3678 
L 634 1613 
L 2069 1613 
z
" transform="scale(0.015625)"/>
       </defs>
       <use xlink:href="#ArialMT-31"/>
       <use xlink:href="#ArialMT-34" x="55.615234"/>
       <use xlink:href="#ArialMT-30" x="111.230469"/>
      </g>
     </g>
    </g>
    <g id="xtick_6">
     <g id="line2d_6">
      <path d="M 559.603981 339.84 
L 559.603981 7.2 
" clip-path="url(#p131230ff9f)" style="fill: none; stroke: #ffffff; stroke-linecap: round"/>
     </g>
     <g id="text_6">
      <!-- 160 -->
      <g style="fill: #262626" transform="translate(550.428434 357.213594) scale(0.11 -0.11)">
       <use xlink:href="#ArialMT-31"/>
       <use xlink:href="#ArialMT-36" x="55.615234"/>
       <use xlink:href="#ArialMT-30" x="111.230469"/>
      </g>
     </g>
    </g>
   </g>
   <g id="matplotlib.axis_2">
    <g id="ytick_1">
     <g id="line2d_7">
      <path d="M 50.025469 339.84 
L 608.025469 339.84 
" clip-path="url(#p131230ff9f)" style="fill: none; stroke: #ffffff; stroke-linecap: round"/>
     </g>
     <g id="line2d_8">
      <defs>
       <path id="m9b064ea4b8" d="M 0 0 
L -6 0 
" style="stroke: #262626; stroke-width: 1.25"/>
      </defs>
      <g>
       <use xlink:href="#m9b064ea4b8" x="50.025469" y="339.84" style="fill: #262626; stroke: #262626; stroke-width: 1.25"/>
      </g>
     </g>
     <g id="text_7">
      <!-- 0 -->
      <g style="fill: #262626" transform="translate(34.408438 343.776797) scale(0.11 -0.11)">
       <use xlink:href="#ArialMT-30"/>
      </g>
     </g>
    </g>
    <g id="ytick_2">
     <g id="line2d_9">
      <path d="M 50.025469 299.27662 
L 608.025469 299.27662 
" clip-path="url(#p131230ff9f)" style="fill: none; stroke: #ffffff; stroke-linecap: round"/>
     </g>
     <g id="line2d_10">
      <g>
       <use xlink:href="#m9b064ea4b8" x="50.025469" y="299.27662" style="fill: #262626; stroke: #262626; stroke-width: 1.25"/>
      </g>
     </g>
     <g id="text_8">
      <!-- 100 -->
      <g style="fill: #262626" transform="translate(22.174375 303.213417) scale(0.11 -0.11)">
       <use xlink:href="#ArialMT-31"/>
       <use xlink:href="#ArialMT-30" x="55.615234"/>
       <use xlink:href="#ArialMT-30" x="111.230469"/>
      </g>
     </g>
    </g>
    <g id="ytick_3">
     <g id="line2d_11">
      <path d="M 50.025469 258.713239 
L 608.025469 258.713239 
" clip-path="url(#p131230ff9f)" style="fill: none; stroke: #ffffff; stroke-linecap: round"/>
     </g>
     <g id="line2d_12">
      <g>
       <use xlink:href="#m9b064ea4b8" x="50.025469" y="258.713239" style="fill: #262626; stroke: #262626; stroke-width: 1.25"/>
      </g>
     </g>
     <g id="text_9">
      <!-- 200 -->
      <g style="fill: #262626" transform="translate(22.174375 262.650036) scale(0.11 -0.11)">
       <use xlink:href="#ArialMT-32"/>
       <use xlink:href="#ArialMT-30" x="55.615234"/>
       <use xlink:href="#ArialMT-30" x="111.230469"/>
      </g>
     </g>
    </g>
    <g id="ytick_4">
     <g id="line2d_13">
      <path d="M 50.025469 218.149859 
L 608.025469 218.149859 
" clip-path="url(#p131230ff9f)" style="fill: none; stroke: #ffffff; stroke-linecap: round"/>
     </g>
     <g id="line2d_14">
      <g>
       <use xlink:href="#m9b064ea4b8" x="50.025469" y="218.149859" style="fill: #262626; stroke: #262626; stroke-width: 1.25"/>
      </g>
     </g>
     <g id="text_10">
      <!-- 300 -->
      <g style="fill: #262626" transform="translate(22.174375 222.086656) scale(0.11 -0.11)">
       <defs>
        <path id="ArialMT-33" d="M 269 1209 
L 831 1284 
Q 928 806 1161 595 
Q 1394 384 1728 384 
Q 2125 384 2398 659 
Q 2672 934 2672 1341 
Q 2672 1728 2419 1979 
Q 2166 2231 1775 2231 
Q 1616 2231 1378 2169 
L 1441 2663 
Q 1497 2656 1531 2656 
Q 1891 2656 2178 2843 
Q 2466 3031 2466 3422 
Q 2466 3731 2256 3934 
Q 2047 4138 1716 4138 
Q 1388 4138 1169 3931 
Q 950 3725 888 3313 
L 325 3413 
Q 428 3978 793 4289 
Q 1159 4600 1703 4600 
Q 2078 4600 2393 4439 
Q 2709 4278 2876 4000 
Q 3044 3722 3044 3409 
Q 3044 3113 2884 2869 
Q 2725 2625 2413 2481 
Q 2819 2388 3044 2092 
Q 3269 1797 3269 1353 
Q 3269 753 2831 336 
Q 2394 -81 1725 -81 
Q 1122 -81 723 278 
Q 325 638 269 1209 
z
" transform="scale(0.015625)"/>
       </defs>
       <use xlink:href="#ArialMT-33"/>
       <use xlink:href="#ArialMT-30" x="55.615234"/>
       <use xlink:href="#ArialMT-30" x="111.230469"/>
      </g>
     </g>
    </g>
    <g id="ytick_5">
     <g id="line2d_15">
      <path d="M 50.025469 177.586479 
L 608.025469 177.586479 
" clip-path="url(#p131230ff9f)" style="fill: none; stroke: #ffffff; stroke-linecap: round"/>
     </g>
     <g id="line2d_16">
      <g>
       <use xlink:href="#m9b064ea4b8" x="50.025469" y="177.586479" style="fill: #262626; stroke: #262626; stroke-width: 1.25"/>
      </g>
     </g>
     <g id="text_11">
      <!-- 400 -->
      <g style="fill: #262626" transform="translate(22.174375 181.523276) scale(0.11 -0.11)">
       <use xlink:href="#ArialMT-34"/>
       <use xlink:href="#ArialMT-30" x="55.615234"/>
       <use xlink:href="#ArialMT-30" x="111.230469"/>
      </g>
     </g>
    </g>
    <g id="ytick_6">
     <g id="line2d_17">
      <path d="M 50.025469 137.023099 
L 608.025469 137.023099 
" clip-path="url(#p131230ff9f)" style="fill: none; stroke: #ffffff; stroke-linecap: round"/>
     </g>
     <g id="line2d_18">
      <g>
       <use xlink:href="#m9b064ea4b8" x="50.025469" y="137.023099" style="fill: #262626; stroke: #262626; stroke-width: 1.25"/>
      </g>
     </g>
     <g id="text_12">
      <!-- 500 -->
      <g style="fill: #262626" transform="translate(22.174375 140.959895) scale(0.11 -0.11)">
       <defs>
        <path id="ArialMT-35" d="M 266 1200 
L 856 1250 
Q 922 819 1161 601 
Q 1400 384 1738 384 
Q 2144 384 2425 690 
Q 2706 997 2706 1503 
Q 2706 1984 2436 2262 
Q 2166 2541 1728 2541 
Q 1456 2541 1237 2417 
Q 1019 2294 894 2097 
L 366 2166 
L 809 4519 
L 3088 4519 
L 3088 3981 
L 1259 3981 
L 1013 2750 
Q 1425 3038 1878 3038 
Q 2478 3038 2890 2622 
Q 3303 2206 3303 1553 
Q 3303 931 2941 478 
Q 2500 -78 1738 -78 
Q 1113 -78 717 272 
Q 322 622 266 1200 
z
" transform="scale(0.015625)"/>
       </defs>
       <use xlink:href="#ArialMT-35"/>
       <use xlink:href="#ArialMT-30" x="55.615234"/>
       <use xlink:href="#ArialMT-30" x="111.230469"/>
      </g>
     </g>
    </g>
    <g id="ytick_7">
     <g id="line2d_19">
      <path d="M 50.025469 96.459718 
L 608.025469 96.459718 
" clip-path="url(#p131230ff9f)" style="fill: none; stroke: #ffffff; stroke-linecap: round"/>
     </g>
     <g id="line2d_20">
      <g>
       <use xlink:href="#m9b064ea4b8" x="50.025469" y="96.459718" style="fill: #262626; stroke: #262626; stroke-width: 1.25"/>
      </g>
     </g>
     <g id="text_13">
      <!-- 600 -->
      <g style="fill: #262626" transform="translate(22.174375 100.396515) scale(0.11 -0.11)">
       <use xlink:href="#ArialMT-36"/>
       <use xlink:href="#ArialMT-30" x="55.615234"/>
       <use xlink:href="#ArialMT-30" x="111.230469"/>
      </g>
     </g>
    </g>
    <g id="ytick_8">
     <g id="line2d_21">
      <path d="M 50.025469 55.896338 
L 608.025469 55.896338 
" clip-path="url(#p131230ff9f)" style="fill: none; stroke: #ffffff; stroke-linecap: round"/>
     </g>
     <g id="line2d_22">
      <g>
       <use xlink:href="#m9b064ea4b8" x="50.025469" y="55.896338" style="fill: #262626; stroke: #262626; stroke-width: 1.25"/>
      </g>
     </g>
     <g id="text_14">
      <!-- 700 -->
      <g style="fill: #262626" transform="translate(22.174375 59.833135) scale(0.11 -0.11)">
       <defs>
        <path id="ArialMT-37" d="M 303 3981 
L 303 4522 
L 3269 4522 
L 3269 4084 
Q 2831 3619 2401 2847 
Q 1972 2075 1738 1259 
Q 1569 684 1522 0 
L 944 0 
Q 953 541 1156 1306 
Q 1359 2072 1739 2783 
Q 2119 3494 2547 3981 
L 303 3981 
z
" transform="scale(0.015625)"/>
       </defs>
       <use xlink:href="#ArialMT-37"/>
       <use xlink:href="#ArialMT-30" x="55.615234"/>
       <use xlink:href="#ArialMT-30" x="111.230469"/>
      </g>
     </g>
    </g>
    <g id="ytick_9">
     <g id="line2d_23">
      <path d="M 50.025469 15.332958 
L 608.025469 15.332958 
" clip-path="url(#p131230ff9f)" style="fill: none; stroke: #ffffff; stroke-linecap: round"/>
     </g>
     <g id="line2d_24">
      <g>
       <use xlink:href="#m9b064ea4b8" x="50.025469" y="15.332958" style="fill: #262626; stroke: #262626; stroke-width: 1.25"/>
      </g>
     </g>
     <g id="text_15">
      <!-- 800 -->
      <g style="fill: #262626" transform="translate(22.174375 19.269755) scale(0.11 -0.11)">
       <use xlink:href="#ArialMT-38"/>
       <use xlink:href="#ArialMT-30" x="55.615234"/>
       <use xlink:href="#ArialMT-30" x="111.230469"/>
      </g>
     </g>
    </g>
    <g id="text_16">
     <!-- Count -->
     <g style="fill: #262626" transform="translate(15.789375 189.529688) rotate(-90) scale(0.12 -0.12)">
      <defs>
       <path id="ArialMT-43" d="M 3763 1606 
L 4369 1453 
Q 4178 706 3683 314 
Q 3188 -78 2472 -78 
Q 1731 -78 1267 223 
Q 803 525 561 1097 
Q 319 1669 319 2325 
Q 319 3041 592 3573 
Q 866 4106 1370 4382 
Q 1875 4659 2481 4659 
Q 3169 4659 3637 4309 
Q 4106 3959 4291 3325 
L 3694 3184 
Q 3534 3684 3231 3912 
Q 2928 4141 2469 4141 
Q 1941 4141 1586 3887 
Q 1231 3634 1087 3207 
Q 944 2781 944 2328 
Q 944 1744 1114 1308 
Q 1284 872 1643 656 
Q 2003 441 2422 441 
Q 2931 441 3284 734 
Q 3638 1028 3763 1606 
z
" transform="scale(0.015625)"/>
       <path id="ArialMT-6f" d="M 213 1659 
Q 213 2581 725 3025 
Q 1153 3394 1769 3394 
Q 2453 3394 2887 2945 
Q 3322 2497 3322 1706 
Q 3322 1066 3130 698 
Q 2938 331 2570 128 
Q 2203 -75 1769 -75 
Q 1072 -75 642 372 
Q 213 819 213 1659 
z
M 791 1659 
Q 791 1022 1069 705 
Q 1347 388 1769 388 
Q 2188 388 2466 706 
Q 2744 1025 2744 1678 
Q 2744 2294 2464 2611 
Q 2184 2928 1769 2928 
Q 1347 2928 1069 2612 
Q 791 2297 791 1659 
z
" transform="scale(0.015625)"/>
       <path id="ArialMT-75" d="M 2597 0 
L 2597 488 
Q 2209 -75 1544 -75 
Q 1250 -75 995 37 
Q 741 150 617 320 
Q 494 491 444 738 
Q 409 903 409 1263 
L 409 3319 
L 972 3319 
L 972 1478 
Q 972 1038 1006 884 
Q 1059 663 1231 536 
Q 1403 409 1656 409 
Q 1909 409 2131 539 
Q 2353 669 2445 892 
Q 2538 1116 2538 1541 
L 2538 3319 
L 3100 3319 
L 3100 0 
L 2597 0 
z
" transform="scale(0.015625)"/>
       <path id="ArialMT-6e" d="M 422 0 
L 422 3319 
L 928 3319 
L 928 2847 
Q 1294 3394 1984 3394 
Q 2284 3394 2536 3286 
Q 2788 3178 2913 3003 
Q 3038 2828 3088 2588 
Q 3119 2431 3119 2041 
L 3119 0 
L 2556 0 
L 2556 2019 
Q 2556 2363 2490 2533 
Q 2425 2703 2258 2804 
Q 2091 2906 1866 2906 
Q 1506 2906 1245 2678 
Q 984 2450 984 1813 
L 984 0 
L 422 0 
z
" transform="scale(0.015625)"/>
       <path id="ArialMT-74" d="M 1650 503 
L 1731 6 
Q 1494 -44 1306 -44 
Q 1000 -44 831 53 
Q 663 150 594 308 
Q 525 466 525 972 
L 525 2881 
L 113 2881 
L 113 3319 
L 525 3319 
L 525 4141 
L 1084 4478 
L 1084 3319 
L 1650 3319 
L 1650 2881 
L 1084 2881 
L 1084 941 
Q 1084 700 1114 631 
Q 1144 563 1211 522 
Q 1278 481 1403 481 
Q 1497 481 1650 503 
z
" transform="scale(0.015625)"/>
      </defs>
      <use xlink:href="#ArialMT-43"/>
      <use xlink:href="#ArialMT-6f" x="72.216797"/>
      <use xlink:href="#ArialMT-75" x="127.832031"/>
      <use xlink:href="#ArialMT-6e" x="183.447266"/>
      <use xlink:href="#ArialMT-74" x="239.0625"/>
     </g>
    </g>
   </g>
   <g id="patch_3">
    <path d="M 199.901502 339.84 
L 205.448753 339.84 
L 205.448753 339.434366 
L 199.901502 339.434366 
z
" clip-path="url(#p131230ff9f)" style="fill: #0173b2; fill-opacity: 0.75; stroke: #ffffff; stroke-width: 0.735178; stroke-linejoin: miter"/>
   </g>
   <g id="patch_4">
    <path d="M 205.448753 339.84 
L 210.996004 339.84 
L 210.996004 339.434366 
L 205.448753 339.434366 
z
" clip-path="url(#p131230ff9f)" style="fill: #0173b2; fill-opacity: 0.75; stroke: #ffffff; stroke-width: 0.735178; stroke-linejoin: miter"/>
   </g>
   <g id="patch_5">
    <path d="M 210.996004 339.84 
L 216.543255 339.84 
L 216.543255 339.84 
L 210.996004 339.84 
z
" clip-path="url(#p131230ff9f)" style="fill: #0173b2; fill-opacity: 0.75; stroke: #ffffff; stroke-width: 0.735178; stroke-linejoin: miter"/>
   </g>
   <g id="patch_6">
    <path d="M 216.543255 339.84 
L 222.090506 339.84 
L 222.090506 339.84 
L 216.543255 339.84 
z
" clip-path="url(#p131230ff9f)" style="fill: #0173b2; fill-opacity: 0.75; stroke: #ffffff; stroke-width: 0.735178; stroke-linejoin: miter"/>
   </g>
   <g id="patch_7">
    <path d="M 222.090506 339.84 
L 227.637758 339.84 
L 227.637758 338.217465 
L 222.090506 338.217465 
z
" clip-path="url(#p131230ff9f)" style="fill: #0173b2; fill-opacity: 0.75; stroke: #ffffff; stroke-width: 0.735178; stroke-linejoin: miter"/>
   </g>
   <g id="patch_8">
    <path d="M 227.637758 339.84 
L 233.185009 339.84 
L 233.185009 338.623099 
L 227.637758 338.623099 
z
" clip-path="url(#p131230ff9f)" style="fill: #0173b2; fill-opacity: 0.75; stroke: #ffffff; stroke-width: 0.735178; stroke-linejoin: miter"/>
   </g>
   <g id="patch_9">
    <path d="M 233.185009 339.84 
L 238.73226 339.84 
L 238.73226 337.406197 
L 233.185009 337.406197 
z
" clip-path="url(#p131230ff9f)" style="fill: #0173b2; fill-opacity: 0.75; stroke: #ffffff; stroke-width: 0.735178; stroke-linejoin: miter"/>
   </g>
   <g id="patch_10">
    <path d="M 238.73226 339.84 
L 244.279511 339.84 
L 244.279511 337.406197 
L 238.73226 337.406197 
z
" clip-path="url(#p131230ff9f)" style="fill: #0173b2; fill-opacity: 0.75; stroke: #ffffff; stroke-width: 0.735178; stroke-linejoin: miter"/>
   </g>
   <g id="patch_11">
    <path d="M 244.279511 339.84 
L 249.826762 339.84 
L 249.826762 337.000563 
L 244.279511 337.000563 
z
" clip-path="url(#p131230ff9f)" style="fill: #0173b2; fill-opacity: 0.75; stroke: #ffffff; stroke-width: 0.735178; stroke-linejoin: miter"/>
   </g>
   <g id="patch_12">
    <path d="M 249.826762 339.84 
L 255.374013 339.84 
L 255.374013 324.425915 
L 249.826762 324.425915 
z
" clip-path="url(#p131230ff9f)" style="fill: #0173b2; fill-opacity: 0.75; stroke: #ffffff; stroke-width: 0.735178; stroke-linejoin: miter"/>
   </g>
   <g id="patch_13">
    <path d="M 255.374013 339.84 
L 260.921265 339.84 
L 260.921265 329.293521 
L 255.374013 329.293521 
z
" clip-path="url(#p131230ff9f)" style="fill: #0173b2; fill-opacity: 0.75; stroke: #ffffff; stroke-width: 0.735178; stroke-linejoin: miter"/>
   </g>
   <g id="patch_14">
    <path d="M 260.921265 339.84 
L 266.468516 339.84 
L 266.468516 324.831549 
L 260.921265 324.831549 
z
" clip-path="url(#p131230ff9f)" style="fill: #0173b2; fill-opacity: 0.75; stroke: #ffffff; stroke-width: 0.735178; stroke-linejoin: miter"/>
   </g>
   <g id="patch_15">
    <path d="M 266.468516 339.84 
L 272.015767 339.84 
L 272.015767 324.831549 
L 266.468516 324.831549 
z
" clip-path="url(#p131230ff9f)" style="fill: #0173b2; fill-opacity: 0.75; stroke: #ffffff; stroke-width: 0.735178; stroke-linejoin: miter"/>
   </g>
   <g id="patch_16">
    <path d="M 272.015767 339.84 
L 277.563018 339.84 
L 277.563018 310.634366 
L 272.015767 310.634366 
z
" clip-path="url(#p131230ff9f)" style="fill: #0173b2; fill-opacity: 0.75; stroke: #ffffff; stroke-width: 0.735178; stroke-linejoin: miter"/>
   </g>
   <g id="patch_17">
    <path d="M 277.563018 339.84 
L 283.110269 339.84 
L 283.110269 268.854085 
L 277.563018 268.854085 
z
" clip-path="url(#p131230ff9f)" style="fill: #0173b2; fill-opacity: 0.75; stroke: #ffffff; stroke-width: 0.735178; stroke-linejoin: miter"/>
   </g>
   <g id="patch_18">
    <path d="M 283.110269 339.84 
L 288.65752 339.84 
L 288.65752 289.947042 
L 283.110269 289.947042 
z
" clip-path="url(#p131230ff9f)" style="fill: #0173b2; fill-opacity: 0.75; stroke: #ffffff; stroke-width: 0.735178; stroke-linejoin: miter"/>
   </g>
   <g id="patch_19">
    <path d="M 288.65752 339.84 
L 294.204772 339.84 
L 294.204772 283.051268 
L 288.65752 283.051268 
z
" clip-path="url(#p131230ff9f)" style="fill: #0173b2; fill-opacity: 0.75; stroke: #ffffff; stroke-width: 0.735178; stroke-linejoin: miter"/>
   </g>
   <g id="patch_20">
    <path d="M 294.204772 339.84 
L 299.752023 339.84 
L 299.752023 281.428732 
L 294.204772 281.428732 
z
" clip-path="url(#p131230ff9f)" style="fill: #0173b2; fill-opacity: 0.75; stroke: #ffffff; stroke-width: 0.735178; stroke-linejoin: miter"/>
   </g>
   <g id="patch_21">
    <path d="M 299.752023 339.84 
L 305.299274 339.84 
L 305.299274 261.552676 
L 299.752023 261.552676 
z
" clip-path="url(#p131230ff9f)" style="fill: #0173b2; fill-opacity: 0.75; stroke: #ffffff; stroke-width: 0.735178; stroke-linejoin: miter"/>
   </g>
   <g id="patch_22">
    <path d="M 305.299274 339.84 
L 310.846525 339.84 
L 310.846525 158.52169 
L 305.299274 158.52169 
z
" clip-path="url(#p131230ff9f)" style="fill: #0173b2; fill-opacity: 0.75; stroke: #ffffff; stroke-width: 0.735178; stroke-linejoin: miter"/>
   </g>
   <g id="patch_23">
    <path d="M 310.846525 339.84 
L 316.393776 339.84 
L 316.393776 232.347042 
L 310.846525 232.347042 
z
" clip-path="url(#p131230ff9f)" style="fill: #0173b2; fill-opacity: 0.75; stroke: #ffffff; stroke-width: 0.735178; stroke-linejoin: miter"/>
   </g>
   <g id="patch_24">
    <path d="M 316.393776 339.84 
L 321.941027 339.84 
L 321.941027 226.668169 
L 316.393776 226.668169 
z
" clip-path="url(#p131230ff9f)" style="fill: #0173b2; fill-opacity: 0.75; stroke: #ffffff; stroke-width: 0.735178; stroke-linejoin: miter"/>
   </g>
   <g id="patch_25">
    <path d="M 321.941027 339.84 
L 327.488279 339.84 
L 327.488279 203.141408 
L 321.941027 203.141408 
z
" clip-path="url(#p131230ff9f)" style="fill: #0173b2; fill-opacity: 0.75; stroke: #ffffff; stroke-width: 0.735178; stroke-linejoin: miter"/>
   </g>
   <g id="patch_26">
    <path d="M 327.488279 339.84 
L 333.03553 339.84 
L 333.03553 196.651268 
L 327.488279 196.651268 
z
" clip-path="url(#p131230ff9f)" style="fill: #0173b2; fill-opacity: 0.75; stroke: #ffffff; stroke-width: 0.735178; stroke-linejoin: miter"/>
   </g>
   <g id="patch_27">
    <path d="M 333.03553 339.84 
L 338.582781 339.84 
L 338.582781 52.245634 
L 333.03553 52.245634 
z
" clip-path="url(#p131230ff9f)" style="fill: #0173b2; fill-opacity: 0.75; stroke: #ffffff; stroke-width: 0.735178; stroke-linejoin: miter"/>
   </g>
   <g id="patch_28">
    <path d="M 338.582781 339.84 
L 344.130032 339.84 
L 344.130032 189.755493 
L 338.582781 189.755493 
z
" clip-path="url(#p131230ff9f)" style="fill: #0173b2; fill-opacity: 0.75; stroke: #ffffff; stroke-width: 0.735178; stroke-linejoin: miter"/>
   </g>
   <g id="patch_29">
    <path d="M 344.130032 339.84 
L 349.677283 339.84 
L 349.677283 165.011831 
L 344.130032 165.011831 
z
" clip-path="url(#p131230ff9f)" style="fill: #0173b2; fill-opacity: 0.75; stroke: #ffffff; stroke-width: 0.735178; stroke-linejoin: miter"/>
   </g>
   <g id="patch_30">
    <path d="M 349.677283 339.84 
L 355.224535 339.84 
L 355.224535 172.718873 
L 349.677283 172.718873 
z
" clip-path="url(#p131230ff9f)" style="fill: #0173b2; fill-opacity: 0.75; stroke: #ffffff; stroke-width: 0.735178; stroke-linejoin: miter"/>
   </g>
   <g id="patch_31">
    <path d="M 355.224535 339.84 
L 360.771786 339.84 
L 360.771786 178.397746 
L 355.224535 178.397746 
z
" clip-path="url(#p131230ff9f)" style="fill: #0173b2; fill-opacity: 0.75; stroke: #ffffff; stroke-width: 0.735178; stroke-linejoin: miter"/>
   </g>
   <g id="patch_32">
    <path d="M 360.771786 339.84 
L 366.319037 339.84 
L 366.319037 23.04 
L 360.771786 23.04 
z
" clip-path="url(#p131230ff9f)" style="fill: #0173b2; fill-opacity: 0.75; stroke: #ffffff; stroke-width: 0.735178; stroke-linejoin: miter"/>
   </g>
   <g id="patch_33">
    <path d="M 366.319037 339.84 
L 371.866288 339.84 
L 371.866288 182.859718 
L 366.319037 182.859718 
z
" clip-path="url(#p131230ff9f)" style="fill: #0173b2; fill-opacity: 0.75; stroke: #ffffff; stroke-width: 0.735178; stroke-linejoin: miter"/>
   </g>
   <g id="patch_34">
    <path d="M 371.866288 339.84 
L 377.413539 339.84 
L 377.413539 193.000563 
L 371.866288 193.000563 
z
" clip-path="url(#p131230ff9f)" style="fill: #0173b2; fill-opacity: 0.75; stroke: #ffffff; stroke-width: 0.735178; stroke-linejoin: miter"/>
   </g>
   <g id="patch_35">
    <path d="M 377.413539 339.84 
L 382.96079 339.84 
L 382.96079 193.406197 
L 377.413539 193.406197 
z
" clip-path="url(#p131230ff9f)" style="fill: #0173b2; fill-opacity: 0.75; stroke: #ffffff; stroke-width: 0.735178; stroke-linejoin: miter"/>
   </g>
   <g id="patch_36">
    <path d="M 382.96079 339.84 
L 388.508042 339.84 
L 388.508042 207.197746 
L 382.96079 207.197746 
z
" clip-path="url(#p131230ff9f)" style="fill: #0173b2; fill-opacity: 0.75; stroke: #ffffff; stroke-width: 0.735178; stroke-linejoin: miter"/>
   </g>
   <g id="patch_37">
    <path d="M 388.508042 339.84 
L 394.055293 339.84 
L 394.055293 110.656901 
L 388.508042 110.656901 
z
" clip-path="url(#p131230ff9f)" style="fill: #0173b2; fill-opacity: 0.75; stroke: #ffffff; stroke-width: 0.735178; stroke-linejoin: miter"/>
   </g>
   <g id="patch_38">
    <path d="M 394.055293 339.84 
L 399.602544 339.84 
L 399.602544 231.941408 
L 394.055293 231.941408 
z
" clip-path="url(#p131230ff9f)" style="fill: #0173b2; fill-opacity: 0.75; stroke: #ffffff; stroke-width: 0.735178; stroke-linejoin: miter"/>
   </g>
   <g id="patch_39">
    <path d="M 399.602544 339.84 
L 405.149795 339.84 
L 405.149795 239.242817 
L 399.602544 239.242817 
z
" clip-path="url(#p131230ff9f)" style="fill: #0173b2; fill-opacity: 0.75; stroke: #ffffff; stroke-width: 0.735178; stroke-linejoin: miter"/>
   </g>
   <g id="patch_40">
    <path d="M 405.149795 339.84 
L 410.697046 339.84 
L 410.697046 249.789296 
L 405.149795 249.789296 
z
" clip-path="url(#p131230ff9f)" style="fill: #0173b2; fill-opacity: 0.75; stroke: #ffffff; stroke-width: 0.735178; stroke-linejoin: miter"/>
   </g>
   <g id="patch_41">
    <path d="M 410.697046 339.84 
L 416.244297 339.84 
L 416.244297 261.552676 
L 410.697046 261.552676 
z
" clip-path="url(#p131230ff9f)" style="fill: #0173b2; fill-opacity: 0.75; stroke: #ffffff; stroke-width: 0.735178; stroke-linejoin: miter"/>
   </g>
   <g id="patch_42">
    <path d="M 416.244297 339.84 
L 421.791549 339.84 
L 421.791549 206.386479 
L 416.244297 206.386479 
z
" clip-path="url(#p131230ff9f)" style="fill: #0173b2; fill-opacity: 0.75; stroke: #ffffff; stroke-width: 0.735178; stroke-linejoin: miter"/>
   </g>
   <g id="patch_43">
    <path d="M 421.791549 339.84 
L 427.3388 339.84 
L 427.3388 286.296338 
L 421.791549 286.296338 
z
" clip-path="url(#p131230ff9f)" style="fill: #0173b2; fill-opacity: 0.75; stroke: #ffffff; stroke-width: 0.735178; stroke-linejoin: miter"/>
   </g>
   <g id="patch_44">
    <path d="M 427.3388 339.84 
L 432.886051 339.84 
L 432.886051 291.569577 
L 427.3388 291.569577 
z
" clip-path="url(#p131230ff9f)" style="fill: #0173b2; fill-opacity: 0.75; stroke: #ffffff; stroke-width: 0.735178; stroke-linejoin: miter"/>
   </g>
   <g id="patch_45">
    <path d="M 432.886051 339.84 
L 438.433302 339.84 
L 438.433302 300.087887 
L 432.886051 300.087887 
z
" clip-path="url(#p131230ff9f)" style="fill: #0173b2; fill-opacity: 0.75; stroke: #ffffff; stroke-width: 0.735178; stroke-linejoin: miter"/>
   </g>
   <g id="patch_46">
    <path d="M 438.433302 339.84 
L 443.980553 339.84 
L 443.980553 301.304789 
L 438.433302 301.304789 
z
" clip-path="url(#p131230ff9f)" style="fill: #0173b2; fill-opacity: 0.75; stroke: #ffffff; stroke-width: 0.735178; stroke-linejoin: miter"/>
   </g>
   <g id="patch_47">
    <path d="M 443.980553 339.84 
L 449.527804 339.84 
L 449.527804 278.183662 
L 443.980553 278.183662 
z
" clip-path="url(#p131230ff9f)" style="fill: #0173b2; fill-opacity: 0.75; stroke: #ffffff; stroke-width: 0.735178; stroke-linejoin: miter"/>
   </g>
   <g id="patch_48">
    <path d="M 449.527804 339.84 
L 455.075056 339.84 
L 455.075056 313.473803 
L 449.527804 313.473803 
z
" clip-path="url(#p131230ff9f)" style="fill: #0173b2; fill-opacity: 0.75; stroke: #ffffff; stroke-width: 0.735178; stroke-linejoin: miter"/>
   </g>
   <g id="patch_49">
    <path d="M 455.075056 339.84 
L 460.622307 339.84 
L 460.622307 320.369577 
L 455.075056 320.369577 
z
" clip-path="url(#p131230ff9f)" style="fill: #0173b2; fill-opacity: 0.75; stroke: #ffffff; stroke-width: 0.735178; stroke-linejoin: miter"/>
   </g>
   <g id="patch_50">
    <path d="M 460.622307 339.84 
L 466.169558 339.84 
L 466.169558 321.586479 
L 460.622307 321.586479 
z
" clip-path="url(#p131230ff9f)" style="fill: #0173b2; fill-opacity: 0.75; stroke: #ffffff; stroke-width: 0.735178; stroke-linejoin: miter"/>
   </g>
   <g id="patch_51">
    <path d="M 466.169558 339.84 
L 471.716809 339.84 
L 471.716809 326.048451 
L 466.169558 326.048451 
z
" clip-path="url(#p131230ff9f)" style="fill: #0173b2; fill-opacity: 0.75; stroke: #ffffff; stroke-width: 0.735178; stroke-linejoin: miter"/>
   </g>
   <g id="patch_52">
    <path d="M 471.716809 339.84 
L 477.26406 339.84 
L 477.26406 319.152676 
L 471.716809 319.152676 
z
" clip-path="url(#p131230ff9f)" style="fill: #0173b2; fill-opacity: 0.75; stroke: #ffffff; stroke-width: 0.735178; stroke-linejoin: miter"/>
   </g>
   <g id="patch_53">
    <path d="M 477.26406 339.84 
L 482.811311 339.84 
L 482.811311 330.510423 
L 477.26406 330.510423 
z
" clip-path="url(#p131230ff9f)" style="fill: #0173b2; fill-opacity: 0.75; stroke: #ffffff; stroke-width: 0.735178; stroke-linejoin: miter"/>
   </g>
   <g id="patch_54">
    <path d="M 482.811311 339.84 
L 488.358563 339.84 
L 488.358563 334.161127 
L 482.811311 334.161127 
z
" clip-path="url(#p131230ff9f)" style="fill: #0173b2; fill-opacity: 0.75; stroke: #ffffff; stroke-width: 0.735178; stroke-linejoin: miter"/>
   </g>
   <g id="patch_55">
    <path d="M 488.358563 339.84 
L 493.905814 339.84 
L 493.905814 333.349859 
L 488.358563 333.349859 
z
" clip-path="url(#p131230ff9f)" style="fill: #0173b2; fill-opacity: 0.75; stroke: #ffffff; stroke-width: 0.735178; stroke-linejoin: miter"/>
   </g>
   <g id="patch_56">
    <path d="M 493.905814 339.84 
L 499.453065 339.84 
L 499.453065 335.783662 
L 493.905814 335.783662 
z
" clip-path="url(#p131230ff9f)" style="fill: #0173b2; fill-opacity: 0.75; stroke: #ffffff; stroke-width: 0.735178; stroke-linejoin: miter"/>
   </g>
   <g id="patch_57">
    <path d="M 499.453065 339.84 
L 505.000316 339.84 
L 505.000316 332.944225 
L 499.453065 332.944225 
z
" clip-path="url(#p131230ff9f)" style="fill: #0173b2; fill-opacity: 0.75; stroke: #ffffff; stroke-width: 0.735178; stroke-linejoin: miter"/>
   </g>
   <g id="patch_58">
    <path d="M 505.000316 339.84 
L 510.547567 339.84 
L 510.547567 337.811831 
L 505.000316 337.811831 
z
" clip-path="url(#p131230ff9f)" style="fill: #0173b2; fill-opacity: 0.75; stroke: #ffffff; stroke-width: 0.735178; stroke-linejoin: miter"/>
   </g>
   <g id="patch_59">
    <path d="M 510.547567 339.84 
L 516.094818 339.84 
L 516.094818 337.406197 
L 510.547567 337.406197 
z
" clip-path="url(#p131230ff9f)" style="fill: #0173b2; fill-opacity: 0.75; stroke: #ffffff; stroke-width: 0.735178; stroke-linejoin: miter"/>
   </g>
   <g id="patch_60">
    <path d="M 516.094818 339.84 
L 521.64207 339.84 
L 521.64207 338.623099 
L 516.094818 338.623099 
z
" clip-path="url(#p131230ff9f)" style="fill: #0173b2; fill-opacity: 0.75; stroke: #ffffff; stroke-width: 0.735178; stroke-linejoin: miter"/>
   </g>
   <g id="patch_61">
    <path d="M 521.64207 339.84 
L 527.189321 339.84 
L 527.189321 339.84 
L 521.64207 339.84 
z
" clip-path="url(#p131230ff9f)" style="fill: #0173b2; fill-opacity: 0.75; stroke: #ffffff; stroke-width: 0.735178; stroke-linejoin: miter"/>
   </g>
   <g id="patch_62">
    <path d="M 527.189321 339.84 
L 532.736572 339.84 
L 532.736572 339.028732 
L 527.189321 339.028732 
z
" clip-path="url(#p131230ff9f)" style="fill: #0173b2; fill-opacity: 0.75; stroke: #ffffff; stroke-width: 0.735178; stroke-linejoin: miter"/>
   </g>
   <g id="patch_63">
    <path d="M 532.736572 339.84 
L 538.283823 339.84 
L 538.283823 339.434366 
L 532.736572 339.434366 
z
" clip-path="url(#p131230ff9f)" style="fill: #0173b2; fill-opacity: 0.75; stroke: #ffffff; stroke-width: 0.735178; stroke-linejoin: miter"/>
   </g>
   <g id="patch_64">
    <path d="M 538.283823 339.84 
L 543.831074 339.84 
L 543.831074 339.028732 
L 538.283823 339.028732 
z
" clip-path="url(#p131230ff9f)" style="fill: #0173b2; fill-opacity: 0.75; stroke: #ffffff; stroke-width: 0.735178; stroke-linejoin: miter"/>
   </g>
   <g id="patch_65">
    <path d="M 543.831074 339.84 
L 549.378325 339.84 
L 549.378325 339.84 
L 543.831074 339.84 
z
" clip-path="url(#p131230ff9f)" style="fill: #0173b2; fill-opacity: 0.75; stroke: #ffffff; stroke-width: 0.735178; stroke-linejoin: miter"/>
   </g>
   <g id="patch_66">
    <path d="M 549.378325 339.84 
L 554.925577 339.84 
L 554.925577 339.84 
L 549.378325 339.84 
z
" clip-path="url(#p131230ff9f)" style="fill: #0173b2; fill-opacity: 0.75; stroke: #ffffff; stroke-width: 0.735178; stroke-linejoin: miter"/>
   </g>
   <g id="patch_67">
    <path d="M 554.925577 339.84 
L 560.472828 339.84 
L 560.472828 339.028732 
L 554.925577 339.028732 
z
" clip-path="url(#p131230ff9f)" style="fill: #0173b2; fill-opacity: 0.75; stroke: #ffffff; stroke-width: 0.735178; stroke-linejoin: miter"/>
   </g>
   <g id="patch_68">
    <path d="M 560.472828 339.84 
L 566.020079 339.84 
L 566.020079 339.434366 
L 560.472828 339.434366 
z
" clip-path="url(#p131230ff9f)" style="fill: #0173b2; fill-opacity: 0.75; stroke: #ffffff; stroke-width: 0.735178; stroke-linejoin: miter"/>
   </g>
   <g id="patch_69">
    <path d="M 566.020079 339.84 
L 571.56733 339.84 
L 571.56733 339.028732 
L 566.020079 339.028732 
z
" clip-path="url(#p131230ff9f)" style="fill: #0173b2; fill-opacity: 0.75; stroke: #ffffff; stroke-width: 0.735178; stroke-linejoin: miter"/>
   </g>
   <g id="patch_70">
    <path d="M 571.56733 339.84 
L 577.114581 339.84 
L 577.114581 339.84 
L 571.56733 339.84 
z
" clip-path="url(#p131230ff9f)" style="fill: #0173b2; fill-opacity: 0.75; stroke: #ffffff; stroke-width: 0.735178; stroke-linejoin: miter"/>
   </g>
   <g id="patch_71">
    <path d="M 577.114581 339.84 
L 582.661832 339.84 
L 582.661832 339.434366 
L 577.114581 339.434366 
z
" clip-path="url(#p131230ff9f)" style="fill: #0173b2; fill-opacity: 0.75; stroke: #ffffff; stroke-width: 0.735178; stroke-linejoin: miter"/>
   </g>
   <g id="patch_72">
    <path d="M 50.025469 339.84 
L 50.025469 7.2 
" style="fill: none; stroke: #ffffff; stroke-width: 1.25; stroke-linejoin: miter; stroke-linecap: square"/>
   </g>
   <g id="patch_73">
    <path d="M 608.025469 339.84 
L 608.025469 7.2 
" style="fill: none; stroke: #ffffff; stroke-width: 1.25; stroke-linejoin: miter; stroke-linecap: square"/>
   </g>
   <g id="patch_74">
    <path d="M 50.025469 339.84 
L 608.025469 339.84 
" style="fill: none; stroke: #ffffff; stroke-width: 1.25; stroke-linejoin: miter; stroke-linecap: square"/>
   </g>
   <g id="patch_75">
    <path d="M 50.025469 7.2 
L 608.025469 7.2 
" style="fill: none; stroke: #ffffff; stroke-width: 1.25; stroke-linejoin: miter; stroke-linecap: square"/>
   </g>
  </g>
  <g id="axes_2">
   <g id="matplotlib.axis_3">
    <g id="ytick_10">
     <g id="line2d_25">
      <path d="M 50.025469 328.118677 
L 608.025469 328.118677 
" clip-path="url(#p131230ff9f)" style="fill: none; stroke: #ffffff; stroke-linecap: round"/>
     </g>
     <g id="line2d_26">
      <defs>
       <path id="ma427ee4656" d="M 0 0 
L 6 0 
" style="stroke: #262626; stroke-width: 1.25"/>
      </defs>
      <g>
       <use xlink:href="#ma427ee4656" x="608.025469" y="328.118677" style="fill: #262626; stroke: #262626; stroke-width: 1.25"/>
      </g>
     </g>
     <g id="text_17">
      <!-- 0.000 -->
      <g style="fill: #262626" transform="translate(617.525469 332.055473) scale(0.11 -0.11)">
       <defs>
        <path id="ArialMT-2e" d="M 581 0 
L 581 641 
L 1222 641 
L 1222 0 
L 581 0 
z
" transform="scale(0.015625)"/>
       </defs>
       <use xlink:href="#ArialMT-30"/>
       <use xlink:href="#ArialMT-2e" x="55.615234"/>
       <use xlink:href="#ArialMT-30" x="83.398438"/>
       <use xlink:href="#ArialMT-30" x="139.013672"/>
       <use xlink:href="#ArialMT-30" x="194.628906"/>
      </g>
     </g>
    </g>
    <g id="ytick_11">
     <g id="line2d_27">
      <path d="M 50.025469 270.603004 
L 608.025469 270.603004 
" clip-path="url(#p131230ff9f)" style="fill: none; stroke: #ffffff; stroke-linecap: round"/>
     </g>
     <g id="line2d_28">
      <g>
       <use xlink:href="#ma427ee4656" x="608.025469" y="270.603004" style="fill: #262626; stroke: #262626; stroke-width: 1.25"/>
      </g>
     </g>
     <g id="text_18">
      <!-- 0.005 -->
      <g style="fill: #262626" transform="translate(617.525469 274.539801) scale(0.11 -0.11)">
       <use xlink:href="#ArialMT-30"/>
       <use xlink:href="#ArialMT-2e" x="55.615234"/>
       <use xlink:href="#ArialMT-30" x="83.398438"/>
       <use xlink:href="#ArialMT-30" x="139.013672"/>
       <use xlink:href="#ArialMT-35" x="194.628906"/>
      </g>
     </g>
    </g>
    <g id="ytick_12">
     <g id="line2d_29">
      <path d="M 50.025469 213.087332 
L 608.025469 213.087332 
" clip-path="url(#p131230ff9f)" style="fill: none; stroke: #ffffff; stroke-linecap: round"/>
     </g>
     <g id="line2d_30">
      <g>
       <use xlink:href="#ma427ee4656" x="608.025469" y="213.087332" style="fill: #262626; stroke: #262626; stroke-width: 1.25"/>
      </g>
     </g>
     <g id="text_19">
      <!-- 0.010 -->
      <g style="fill: #262626" transform="translate(617.525469 217.024129) scale(0.11 -0.11)">
       <use xlink:href="#ArialMT-30"/>
       <use xlink:href="#ArialMT-2e" x="55.615234"/>
       <use xlink:href="#ArialMT-30" x="83.398438"/>
       <use xlink:href="#ArialMT-31" x="139.013672"/>
       <use xlink:href="#ArialMT-30" x="194.628906"/>
      </g>
     </g>
    </g>
    <g id="ytick_13">
     <g id="line2d_31">
      <path d="M 50.025469 155.57166 
L 608.025469 155.57166 
" clip-path="url(#p131230ff9f)" style="fill: none; stroke: #ffffff; stroke-linecap: round"/>
     </g>
     <g id="line2d_32">
      <g>
       <use xlink:href="#ma427ee4656" x="608.025469" y="155.57166" style="fill: #262626; stroke: #262626; stroke-width: 1.25"/>
      </g>
     </g>
     <g id="text_20">
      <!-- 0.015 -->
      <g style="fill: #262626" transform="translate(617.525469 159.508457) scale(0.11 -0.11)">
       <use xlink:href="#ArialMT-30"/>
       <use xlink:href="#ArialMT-2e" x="55.615234"/>
       <use xlink:href="#ArialMT-30" x="83.398438"/>
       <use xlink:href="#ArialMT-31" x="139.013672"/>
       <use xlink:href="#ArialMT-35" x="194.628906"/>
      </g>
     </g>
    </g>
    <g id="ytick_14">
     <g id="line2d_33">
      <path d="M 50.025469 98.055988 
L 608.025469 98.055988 
" clip-path="url(#p131230ff9f)" style="fill: none; stroke: #ffffff; stroke-linecap: round"/>
     </g>
     <g id="line2d_34">
      <g>
       <use xlink:href="#ma427ee4656" x="608.025469" y="98.055988" style="fill: #262626; stroke: #262626; stroke-width: 1.25"/>
      </g>
     </g>
     <g id="text_21">
      <!-- 0.020 -->
      <g style="fill: #262626" transform="translate(617.525469 101.992785) scale(0.11 -0.11)">
       <use xlink:href="#ArialMT-30"/>
       <use xlink:href="#ArialMT-2e" x="55.615234"/>
       <use xlink:href="#ArialMT-30" x="83.398438"/>
       <use xlink:href="#ArialMT-32" x="139.013672"/>
       <use xlink:href="#ArialMT-30" x="194.628906"/>
      </g>
     </g>
    </g>
    <g id="ytick_15">
     <g id="line2d_35">
      <path d="M 50.025469 40.540316 
L 608.025469 40.540316 
" clip-path="url(#p131230ff9f)" style="fill: none; stroke: #ffffff; stroke-linecap: round"/>
     </g>
     <g id="line2d_36">
      <g>
       <use xlink:href="#ma427ee4656" x="608.025469" y="40.540316" style="fill: #262626; stroke: #262626; stroke-width: 1.25"/>
      </g>
     </g>
     <g id="text_22">
      <!-- 0.025 -->
      <g style="fill: #262626" transform="translate(617.525469 44.477113) scale(0.11 -0.11)">
       <use xlink:href="#ArialMT-30"/>
       <use xlink:href="#ArialMT-2e" x="55.615234"/>
       <use xlink:href="#ArialMT-30" x="83.398438"/>
       <use xlink:href="#ArialMT-32" x="139.013672"/>
       <use xlink:href="#ArialMT-35" x="194.628906"/>
      </g>
     </g>
    </g>
   </g>
   <g id="PolyCollection_1"/>
   <g id="line2d_37">
    <path d="M 75.389105 324.72 
L 79.581442 324.049797 
L 83.773778 323.265292 
L 87.966115 322.350755 
L 92.158451 321.289022 
L 96.350788 320.061499 
L 100.543125 318.648197 
L 104.735461 317.027803 
L 108.927798 315.177781 
L 113.120134 313.074524 
L 117.312471 310.69355 
L 121.504808 308.009749 
L 125.697144 304.997672 
L 129.889481 301.63189 
L 134.081817 297.88739 
L 138.274154 293.740028 
L 142.466491 289.167035 
L 146.658827 284.147558 
L 150.851164 278.663237 
L 155.0435 272.698818 
L 159.235837 266.242773 
L 163.428173 259.287928 
L 167.62051 251.832083 
L 171.812847 243.878601 
L 176.005183 235.436959 
L 180.19752 226.523243 
L 184.389856 217.160553 
L 188.582193 207.379333 
L 192.77453 197.217571 
L 196.966866 186.720889 
L 201.159203 175.942486 
L 205.351539 164.942934 
L 209.543876 153.78982 
L 213.736213 142.557225 
L 217.928549 131.325047 
L 222.120886 120.178165 
L 226.313222 109.205465 
L 230.505559 98.498718 
L 234.697895 88.151362 
L 238.890232 78.257177 
L 243.082569 68.908893 
L 247.274905 60.196766 
L 251.467242 52.207134 
L 255.659578 45.021002 
L 259.851915 38.712676 
L 264.044252 33.348491 
L 268.236588 28.985644 
L 272.428925 25.671185 
L 276.621261 23.441167 
L 280.813598 22.32 
L 285.005935 22.32 
L 289.198271 23.441167 
L 293.390608 25.671185 
L 297.582944 28.985644 
L 301.775281 33.348491 
L 305.967618 38.712676 
L 310.159954 45.021002 
L 314.352291 52.207134 
L 318.544627 60.196766 
L 322.736964 68.908893 
L 326.9293 78.257177 
L 331.121637 88.151362 
L 335.313974 98.498718 
L 339.50631 109.205465 
L 343.698647 120.178165 
L 347.890983 131.325047 
L 352.08332 142.557225 
L 356.275657 153.78982 
L 360.467993 164.942934 
L 364.66033 175.942486 
L 368.852666 186.720889 
L 373.045003 197.217571 
L 377.23734 207.379333 
L 381.429676 217.160553 
L 385.622013 226.523243 
L 389.814349 235.436959 
L 394.006686 243.878601 
L 398.199022 251.832083 
L 402.391359 259.287928 
L 406.583696 266.242773 
L 410.776032 272.698818 
L 414.968369 278.663237 
L 419.160705 284.147558 
L 423.353042 289.167035 
L 427.545379 293.740028 
L 431.737715 297.88739 
L 435.930052 301.63189 
L 440.122388 304.997672 
L 444.314725 308.009749 
L 448.507062 310.69355 
L 452.699398 313.074524 
L 456.891735 315.177781 
L 461.084071 317.027803 
L 465.276408 318.648197 
L 469.468744 320.061499 
L 473.661081 321.289022 
L 477.853418 322.350755 
L 482.045754 323.265292 
L 486.238091 324.049797 
L 490.430427 324.72 
" clip-path="url(#p131230ff9f)" style="fill: none; stroke: #000000; stroke-width: 1.5; stroke-linecap: round"/>
   </g>
   <g id="patch_76">
    <path d="M 50.025469 339.84 
L 50.025469 7.2 
" style="fill: none; stroke: #ffffff; stroke-width: 1.25; stroke-linejoin: miter; stroke-linecap: square"/>
   </g>
   <g id="patch_77">
    <path d="M 608.025469 339.84 
L 608.025469 7.2 
" style="fill: none; stroke: #ffffff; stroke-width: 1.25; stroke-linejoin: miter; stroke-linecap: square"/>
   </g>
   <g id="patch_78">
    <path d="M 50.025469 339.84 
L 608.025469 339.84 
" style="fill: none; stroke: #ffffff; stroke-width: 1.25; stroke-linejoin: miter; stroke-linecap: square"/>
   </g>
   <g id="patch_79">
    <path d="M 50.025469 7.2 
L 608.025469 7.2 
" style="fill: none; stroke: #ffffff; stroke-width: 1.25; stroke-linejoin: miter; stroke-linecap: square"/>
   </g>
  </g>
 </g>
 <defs>
  <clipPath id="p131230ff9f">
   <rect x="50.025469" y="7.2" width="558" height="332.64"/>
  </clipPath>
 </defs>
</svg>