<?xml version="1.0" encoding="utf-8" standalone="no"?>
<!DOCTYPE svg PUBLIC "-//W3C//DTD SVG 1.1//EN"
  "http://www.w3.org/Graphics/SVG/1.1/DTD/svg11.dtd">
<svg xmlns:xlink="http://www.w3.org/1999/xlink" width="618.417344pt" height="381.574219pt" viewBox="0 0 618.417344 381.574219" xmlns="http://www.w3.org/2000/svg" version="1.1">
 <metadata>
  <rdf:RDF xmlns:dc="http://purl.org/dc/elements/1.1/" xmlns:cc="http://creativecommons.org/ns#" xmlns:rdf="http://www.w3.org/1999/02/22-rdf-syntax-ns#">
   <cc:Work>
    <dc:type rdf:resource="http://purl.org/dc/dcmitype/StillImage"/>
    <dc:date>2023-06-17T10:44:36.181299</dc:date>
    <dc:format>image/svg+xml</dc:format>
    <dc:creator>
     <cc:Agent>
      <dc:title>Matplotlib v3.7.1, https://matplotlib.org/</dc:title>
     </cc:Agent>
    </dc:creator>
   </cc:Work>
  </rdf:RDF>
 </metadata>
 <defs>
  <style type="text/css">*{stroke-linejoin: round; stroke-linecap: butt}</style>
 </defs>
 <g id="figure_1">
  <g id="patch_1">
   <path d="M 0 381.574219 
L 618.417344 381.574219 
L 618.417344 0 
L 0 0 
z
" style="fill: #ffffff"/>
  </g>
  <g id="axes_1">
   <g id="patch_2">
    <path d="M 53.217344 339.84 
L 611.217344 339.84 
L 611.217344 7.2 
L 53.217344 7.2 
z
" style="fill: #eaeaf2"/>
   </g>
   <g id="matplotlib.axis_1">
    <g id="xtick_1">
     <g id="line2d_1">
      <path d="M 78.58098 339.84 
L 78.58098 7.2 
" clip-path="url(#pc4564cb076)" style="fill: none; stroke: #ffffff; stroke-linecap: round"/>
     </g>
     <g id="text_1">
      <!-- 0 -->
      <g style="fill: #262626" transform="translate(75.522464 357.213594) scale(0.11 -0.11)">
       <defs>
        <path id="ArialMT-30" d="M 266 2259 
Q 266 3072 433 3567 
Q 600 4063 929 4331 
Q 1259 4600 1759 4600 
Q 2128 4600 2406 4451 
Q 2684 4303 2865 4023 
Q 3047 3744 3150 3342 
Q 3253 2941 3253 2259 
Q 3253 1453 3087 958 
Q 2922 463 2592 192 
Q 2263 -78 1759 -78 
Q 1097 -78 719 397 
Q 266 969 266 2259 
z
M 844 2259 
Q 844 1131 1108 757 
Q 1372 384 1759 384 
Q 2147 384 2411 759 
Q 2675 1134 2675 2259 
Q 2675 3391 2411 3762 
Q 2147 4134 1753 4134 
Q 1366 4134 1134 3806 
Q 844 3388 844 2259 
z
" transform="scale(0.015625)"/>
       </defs>
       <use xlink:href="#ArialMT-30"/>
      </g>
     </g>
    </g>
    <g id="xtick_2">
     <g id="line2d_2">
      <path d="M 193.870236 339.84 
L 193.870236 7.2 
" clip-path="url(#pc4564cb076)" style="fill: none; stroke: #ffffff; stroke-linecap: round"/>
     </g>
     <g id="text_2">
      <!-- 10 -->
      <g style="fill: #262626" transform="translate(187.753205 357.213594) scale(0.11 -0.11)">
       <defs>
        <path id="ArialMT-31" d="M 2384 0 
L 1822 0 
L 1822 3584 
Q 1619 3391 1289 3197 
Q 959 3003 697 2906 
L 697 3450 
Q 1169 3672 1522 3987 
Q 1875 4303 2022 4600 
L 2384 4600 
L 2384 0 
z
" transform="scale(0.015625)"/>
       </defs>
       <use xlink:href="#ArialMT-31"/>
       <use xlink:href="#ArialMT-30" x="55.615234"/>
      </g>
     </g>
    </g>
    <g id="xtick_3">
     <g id="line2d_3">
      <path d="M 309.159493 339.84 
L 309.159493 7.2 
" clip-path="url(#pc4564cb076)" style="fill: none; stroke: #ffffff; stroke-linecap: round"/>
     </g>
     <g id="text_3">
      <!-- 20 -->
      <g style="fill: #262626" transform="translate(303.042461 357.213594) scale(0.11 -0.11)">
       <defs>
        <path id="ArialMT-32" d="M 3222 541 
L 3222 0 
L 194 0 
Q 188 203 259 391 
Q 375 700 629 1000 
Q 884 1300 1366 1694 
Q 2113 2306 2375 2664 
Q 2638 3022 2638 3341 
Q 2638 3675 2398 3904 
Q 2159 4134 1775 4134 
Q 1369 4134 1125 3890 
Q 881 3647 878 3216 
L 300 3275 
Q 359 3922 746 4261 
Q 1134 4600 1788 4600 
Q 2447 4600 2831 4234 
Q 3216 3869 3216 3328 
Q 3216 3053 3103 2787 
Q 2991 2522 2730 2228 
Q 2469 1934 1863 1422 
Q 1356 997 1212 845 
Q 1069 694 975 541 
L 3222 541 
z
" transform="scale(0.015625)"/>
       </defs>
       <use xlink:href="#ArialMT-32"/>
       <use xlink:href="#ArialMT-30" x="55.615234"/>
      </g>
     </g>
    </g>
    <g id="xtick_4">
     <g id="line2d_4">
      <path d="M 424.448749 339.84 
L 424.448749 7.2 
" clip-path="url(#pc4564cb076)" style="fill: none; stroke: #ffffff; stroke-linecap: round"/>
     </g>
     <g id="text_4">
      <!-- 30 -->
      <g style="fill: #262626" transform="translate(418.331717 357.213594) scale(0.11 -0.11)">
       <defs>
        <path id="ArialMT-33" d="M 269 1209 
L 831 1284 
Q 928 806 1161 595 
Q 1394 384 1728 384 
Q 2125 384 2398 659 
Q 2672 934 2672 1341 
Q 2672 1728 2419 1979 
Q 2166 2231 1775 2231 
Q 1616 2231 1378 2169 
L 1441 2663 
Q 1497 2656 1531 2656 
Q 1891 2656 2178 2843 
Q 2466 3031 2466 3422 
Q 2466 3731 2256 3934 
Q 2047 4138 1716 4138 
Q 1388 4138 1169 3931 
Q 950 3725 888 3313 
L 325 3413 
Q 428 3978 793 4289 
Q 1159 4600 1703 4600 
Q 2078 4600 2393 4439 
Q 2709 4278 2876 4000 
Q 3044 3722 3044 3409 
Q 3044 3113 2884 2869 
Q 2725 2625 2413 2481 
Q 2819 2388 3044 2092 
Q 3269 1797 3269 1353 
Q 3269 753 2831 336 
Q 2394 -81 1725 -81 
Q 1122 -81 723 278 
Q 325 638 269 1209 
z
" transform="scale(0.015625)"/>
       </defs>
       <use xlink:href="#ArialMT-33"/>
       <use xlink:href="#ArialMT-30" x="55.615234"/>
      </g>
     </g>
    </g>
    <g id="xtick_5">
     <g id="line2d_5">
      <path d="M 539.738005 339.84 
L 539.738005 7.2 
" clip-path="url(#pc4564cb076)" style="fill: none; stroke: #ffffff; stroke-linecap: round"/>
     </g>
     <g id="text_5">
      <!-- 40 -->
      <g style="fill: #262626" transform="translate(533.620974 357.213594) scale(0.11 -0.11)">
       <defs>
        <path id="ArialMT-34" d="M 2069 0 
L 2069 1097 
L 81 1097 
L 81 1613 
L 2172 4581 
L 2631 4581 
L 2631 1613 
L 3250 1613 
L 3250 1097 
L 2631 1097 
L 2631 0 
L 2069 0 
z
M 2069 1613 
L 2069 3678 
L 634 1613 
L 2069 1613 
z
" transform="scale(0.015625)"/>
       </defs>
       <use xlink:href="#ArialMT-34"/>
       <use xlink:href="#ArialMT-30" x="55.615234"/>
      </g>
     </g>
    </g>
    <g id="text_6">
     <!-- BDI-II -->
     <g style="fill: #262626" transform="translate(316.883594 371.989219) scale(0.12 -0.12)">
      <defs>
       <path id="ArialMT-42" d="M 469 0 
L 469 4581 
L 2188 4581 
Q 2713 4581 3030 4442 
Q 3347 4303 3526 4014 
Q 3706 3725 3706 3409 
Q 3706 3116 3547 2856 
Q 3388 2597 3066 2438 
Q 3481 2316 3704 2022 
Q 3928 1728 3928 1328 
Q 3928 1006 3792 729 
Q 3656 453 3456 303 
Q 3256 153 2954 76 
Q 2653 0 2216 0 
L 469 0 
z
M 1075 2656 
L 2066 2656 
Q 2469 2656 2644 2709 
Q 2875 2778 2992 2937 
Q 3109 3097 3109 3338 
Q 3109 3566 3000 3739 
Q 2891 3913 2687 3977 
Q 2484 4041 1991 4041 
L 1075 4041 
L 1075 2656 
z
M 1075 541 
L 2216 541 
Q 2509 541 2628 563 
Q 2838 600 2978 687 
Q 3119 775 3209 942 
Q 3300 1109 3300 1328 
Q 3300 1584 3169 1773 
Q 3038 1963 2805 2039 
Q 2572 2116 2134 2116 
L 1075 2116 
L 1075 541 
z
" transform="scale(0.015625)"/>
       <path id="ArialMT-44" d="M 494 0 
L 494 4581 
L 2072 4581 
Q 2606 4581 2888 4516 
Q 3281 4425 3559 4188 
Q 3922 3881 4101 3404 
Q 4281 2928 4281 2316 
Q 4281 1794 4159 1391 
Q 4038 988 3847 723 
Q 3656 459 3429 307 
Q 3203 156 2883 78 
Q 2563 0 2147 0 
L 494 0 
z
M 1100 541 
L 2078 541 
Q 2531 541 2789 625 
Q 3047 709 3200 863 
Q 3416 1078 3536 1442 
Q 3656 1806 3656 2325 
Q 3656 3044 3420 3430 
Q 3184 3816 2847 3947 
Q 2603 4041 2063 4041 
L 1100 4041 
L 1100 541 
z
" transform="scale(0.015625)"/>
       <path id="ArialMT-49" d="M 597 0 
L 597 4581 
L 1203 4581 
L 1203 0 
L 597 0 
z
" transform="scale(0.015625)"/>
       <path id="ArialMT-2d" d="M 203 1375 
L 203 1941 
L 1931 1941 
L 1931 1375 
L 203 1375 
z
" transform="scale(0.015625)"/>
      </defs>
      <use xlink:href="#ArialMT-42"/>
      <use xlink:href="#ArialMT-44" x="66.699219"/>
      <use xlink:href="#ArialMT-49" x="138.916016"/>
      <use xlink:href="#ArialMT-2d" x="166.699219"/>
      <use xlink:href="#ArialMT-49" x="200"/>
      <use xlink:href="#ArialMT-49" x="227.783203"/>
     </g>
    </g>
   </g>
   <g id="matplotlib.axis_2">
    <g id="ytick_1">
     <g id="text_7">
      <!-- mdd -->
      <g style="fill: #262626" transform="translate(22.320625 94.296797) scale(0.11 -0.11)">
       <defs>
        <path id="ArialMT-6d" d="M 422 0 
L 422 3319 
L 925 3319 
L 925 2853 
Q 1081 3097 1340 3245 
Q 1600 3394 1931 3394 
Q 2300 3394 2536 3241 
Q 2772 3088 2869 2813 
Q 3263 3394 3894 3394 
Q 4388 3394 4653 3120 
Q 4919 2847 4919 2278 
L 4919 0 
L 4359 0 
L 4359 2091 
Q 4359 2428 4304 2576 
Q 4250 2725 4106 2815 
Q 3963 2906 3769 2906 
Q 3419 2906 3187 2673 
Q 2956 2441 2956 1928 
L 2956 0 
L 2394 0 
L 2394 2156 
Q 2394 2531 2256 2718 
Q 2119 2906 1806 2906 
Q 1569 2906 1367 2781 
Q 1166 2656 1075 2415 
Q 984 2175 984 1722 
L 984 0 
L 422 0 
z
" transform="scale(0.015625)"/>
        <path id="ArialMT-64" d="M 2575 0 
L 2575 419 
Q 2259 -75 1647 -75 
Q 1250 -75 917 144 
Q 584 363 401 755 
Q 219 1147 219 1656 
Q 219 2153 384 2558 
Q 550 2963 881 3178 
Q 1213 3394 1622 3394 
Q 1922 3394 2156 3267 
Q 2391 3141 2538 2938 
L 2538 4581 
L 3097 4581 
L 3097 0 
L 2575 0 
z
M 797 1656 
Q 797 1019 1065 703 
Q 1334 388 1700 388 
Q 2069 388 2326 689 
Q 2584 991 2584 1609 
Q 2584 2291 2321 2609 
Q 2059 2928 1675 2928 
Q 1300 2928 1048 2622 
Q 797 2316 797 1656 
z
" transform="scale(0.015625)"/>
       </defs>
       <use xlink:href="#ArialMT-6d"/>
       <use xlink:href="#ArialMT-64" x="83.300781"/>
       <use xlink:href="#ArialMT-64" x="138.916016"/>
      </g>
     </g>
    </g>
    <g id="ytick_2">
     <g id="text_8">
      <!-- ctl -->
      <g style="fill: #262626" transform="translate(32.717344 260.616797) scale(0.11 -0.11)">
       <defs>
        <path id="ArialMT-63" d="M 2588 1216 
L 3141 1144 
Q 3050 572 2676 248 
Q 2303 -75 1759 -75 
Q 1078 -75 664 370 
Q 250 816 250 1647 
Q 250 2184 428 2587 
Q 606 2991 970 3192 
Q 1334 3394 1763 3394 
Q 2303 3394 2647 3120 
Q 2991 2847 3088 2344 
L 2541 2259 
Q 2463 2594 2264 2762 
Q 2066 2931 1784 2931 
Q 1359 2931 1093 2626 
Q 828 2322 828 1663 
Q 828 994 1084 691 
Q 1341 388 1753 388 
Q 2084 388 2306 591 
Q 2528 794 2588 1216 
z
" transform="scale(0.015625)"/>
        <path id="ArialMT-74" d="M 1650 503 
L 1731 6 
Q 1494 -44 1306 -44 
Q 1000 -44 831 53 
Q 663 150 594 308 
Q 525 466 525 972 
L 525 2881 
L 113 2881 
L 113 3319 
L 525 3319 
L 525 4141 
L 1084 4478 
L 1084 3319 
L 1650 3319 
L 1650 2881 
L 1084 2881 
L 1084 941 
Q 1084 700 1114 631 
Q 1144 563 1211 522 
Q 1278 481 1403 481 
Q 1497 481 1650 503 
z
" transform="scale(0.015625)"/>
        <path id="ArialMT-6c" d="M 409 0 
L 409 4581 
L 972 4581 
L 972 0 
L 409 0 
z
" transform="scale(0.015625)"/>
       </defs>
       <use xlink:href="#ArialMT-63"/>
       <use xlink:href="#ArialMT-74" x="50"/>
       <use xlink:href="#ArialMT-6c" x="77.783203"/>
      </g>
     </g>
    </g>
    <g id="text_9">
     <!-- Group -->
     <g style="fill: #262626" transform="translate(15.935625 190.194375) rotate(-90) scale(0.12 -0.12)">
      <defs>
       <path id="ArialMT-47" d="M 2638 1797 
L 2638 2334 
L 4578 2338 
L 4578 638 
Q 4131 281 3656 101 
Q 3181 -78 2681 -78 
Q 2006 -78 1454 211 
Q 903 500 622 1047 
Q 341 1594 341 2269 
Q 341 2938 620 3517 
Q 900 4097 1425 4378 
Q 1950 4659 2634 4659 
Q 3131 4659 3532 4498 
Q 3934 4338 4162 4050 
Q 4391 3763 4509 3300 
L 3963 3150 
Q 3859 3500 3706 3700 
Q 3553 3900 3268 4020 
Q 2984 4141 2638 4141 
Q 2222 4141 1919 4014 
Q 1616 3888 1430 3681 
Q 1244 3475 1141 3228 
Q 966 2803 966 2306 
Q 966 1694 1177 1281 
Q 1388 869 1791 669 
Q 2194 469 2647 469 
Q 3041 469 3416 620 
Q 3791 772 3984 944 
L 3984 1797 
L 2638 1797 
z
" transform="scale(0.015625)"/>
       <path id="ArialMT-72" d="M 416 0 
L 416 3319 
L 922 3319 
L 922 2816 
Q 1116 3169 1280 3281 
Q 1444 3394 1641 3394 
Q 1925 3394 2219 3213 
L 2025 2691 
Q 1819 2813 1613 2813 
Q 1428 2813 1281 2702 
Q 1134 2591 1072 2394 
Q 978 2094 978 1738 
L 978 0 
L 416 0 
z
" transform="scale(0.015625)"/>
       <path id="ArialMT-6f" d="M 213 1659 
Q 213 2581 725 3025 
Q 1153 3394 1769 3394 
Q 2453 3394 2887 2945 
Q 3322 2497 3322 1706 
Q 3322 1066 3130 698 
Q 2938 331 2570 128 
Q 2203 -75 1769 -75 
Q 1072 -75 642 372 
Q 213 819 213 1659 
z
M 791 1659 
Q 791 1022 1069 705 
Q 1347 388 1769 388 
Q 2188 388 2466 706 
Q 2744 1025 2744 1678 
Q 2744 2294 2464 2611 
Q 2184 2928 1769 2928 
Q 1347 2928 1069 2612 
Q 791 2297 791 1659 
z
" transform="scale(0.015625)"/>
       <path id="ArialMT-75" d="M 2597 0 
L 2597 488 
Q 2209 -75 1544 -75 
Q 1250 -75 995 37 
Q 741 150 617 320 
Q 494 491 444 738 
Q 409 903 409 1263 
L 409 3319 
L 972 3319 
L 972 1478 
Q 972 1038 1006 884 
Q 1059 663 1231 536 
Q 1403 409 1656 409 
Q 1909 409 2131 539 
Q 2353 669 2445 892 
Q 2538 1116 2538 1541 
L 2538 3319 
L 3100 3319 
L 3100 0 
L 2597 0 
z
" transform="scale(0.015625)"/>
       <path id="ArialMT-70" d="M 422 -1272 
L 422 3319 
L 934 3319 
L 934 2888 
Q 1116 3141 1344 3267 
Q 1572 3394 1897 3394 
Q 2322 3394 2647 3175 
Q 2972 2956 3137 2557 
Q 3303 2159 3303 1684 
Q 3303 1175 3120 767 
Q 2938 359 2589 142 
Q 2241 -75 1856 -75 
Q 1575 -75 1351 44 
Q 1128 163 984 344 
L 984 -1272 
L 422 -1272 
z
M 931 1641 
Q 931 1000 1190 694 
Q 1450 388 1819 388 
Q 2194 388 2461 705 
Q 2728 1022 2728 1688 
Q 2728 2322 2467 2637 
Q 2206 2953 1844 2953 
Q 1484 2953 1207 2617 
Q 931 2281 931 1641 
z
" transform="scale(0.015625)"/>
      </defs>
      <use xlink:href="#ArialMT-47"/>
      <use xlink:href="#ArialMT-72" x="77.783203"/>
      <use xlink:href="#ArialMT-6f" x="111.083984"/>
      <use xlink:href="#ArialMT-75" x="166.699219"/>
      <use xlink:href="#ArialMT-70" x="222.314453"/>
     </g>
    </g>
   </g>
   <g id="patch_3">
    <path d="M 378.333046 23.832 
L 378.333046 156.888 
L 482.093377 156.888 
L 482.093377 23.832 
L 378.333046 23.832 
z
" clip-path="url(#pc4564cb076)" style="fill: #176d9c; stroke: #363636; stroke-width: 1.5; stroke-linejoin: miter"/>
   </g>
   <g id="patch_4">
    <path d="M 78.58098 190.152 
L 78.58098 323.208 
L 101.638831 323.208 
L 101.638831 190.152 
L 78.58098 190.152 
z
" clip-path="url(#pc4564cb076)" style="fill: #c38820; stroke: #363636; stroke-width: 1.5; stroke-linejoin: miter"/>
   </g>
   <g id="line2d_6">
    <path d="M 378.333046 90.36 
L 297.630567 90.36 
" clip-path="url(#pc4564cb076)" style="fill: none; stroke: #363636; stroke-width: 1.5; stroke-linecap: round"/>
   </g>
   <g id="line2d_7">
    <path d="M 482.093377 90.36 
L 585.853707 90.36 
" clip-path="url(#pc4564cb076)" style="fill: none; stroke: #363636; stroke-width: 1.5; stroke-linecap: round"/>
   </g>
   <g id="line2d_8">
    <path d="M 297.630567 57.096 
L 297.630567 123.624 
" clip-path="url(#pc4564cb076)" style="fill: none; stroke: #363636; stroke-width: 1.5; stroke-linecap: round"/>
   </g>
   <g id="line2d_9">
    <path d="M 585.853707 57.096 
L 585.853707 123.624 
" clip-path="url(#pc4564cb076)" style="fill: none; stroke: #363636; stroke-width: 1.5; stroke-linecap: round"/>
   </g>
   <g id="line2d_10"/>
   <g id="line2d_11">
    <path d="M 78.58098 256.68 
L 78.58098 256.68 
" clip-path="url(#pc4564cb076)" style="fill: none; stroke: #363636; stroke-width: 1.5; stroke-linecap: round"/>
   </g>
   <g id="line2d_12">
    <path d="M 101.638831 256.68 
L 136.225608 256.68 
" clip-path="url(#pc4564cb076)" style="fill: none; stroke: #363636; stroke-width: 1.5; stroke-linecap: round"/>
   </g>
   <g id="line2d_13">
    <path d="M 78.58098 223.416 
L 78.58098 289.944 
" clip-path="url(#pc4564cb076)" style="fill: none; stroke: #363636; stroke-width: 1.5; stroke-linecap: round"/>
   </g>
   <g id="line2d_14">
    <path d="M 136.225608 223.416 
L 136.225608 289.944 
" clip-path="url(#pc4564cb076)" style="fill: none; stroke: #363636; stroke-width: 1.5; stroke-linecap: round"/>
   </g>
   <g id="line2d_15">
    <defs>
     <path id="m3c0e966aed" d="M -0 3.535534 
L 2.12132 0 
L -0 -3.535534 
L -2.12132 -0 
z
" style="stroke: #363636; stroke-linejoin: miter"/>
    </defs>
    <g clip-path="url(#pc4564cb076)">
     <use xlink:href="#m3c0e966aed" x="159.283459" y="256.68" style="fill: #363636; stroke: #363636; stroke-linejoin: miter"/>
     <use xlink:href="#m3c0e966aed" x="216.928088" y="256.68" style="fill: #363636; stroke: #363636; stroke-linejoin: miter"/>
     <use xlink:href="#m3c0e966aed" x="182.341311" y="256.68" style="fill: #363636; stroke: #363636; stroke-linejoin: miter"/>
    </g>
   </g>
   <g id="line2d_16">
    <path d="M 424.448749 23.832 
L 424.448749 156.888 
" clip-path="url(#pc4564cb076)" style="fill: none; stroke: #363636; stroke-width: 1.5; stroke-linecap: round"/>
   </g>
   <g id="line2d_17">
    <path d="M 90.109906 190.152 
L 90.109906 323.208 
" clip-path="url(#pc4564cb076)" style="fill: none; stroke: #363636; stroke-width: 1.5; stroke-linecap: round"/>
   </g>
   <g id="patch_5">
    <path d="M 53.217344 339.84 
L 53.217344 7.2 
" style="fill: none; stroke: #ffffff; stroke-width: 1.25; stroke-linejoin: miter; stroke-linecap: square"/>
   </g>
   <g id="patch_6">
    <path d="M 611.217344 339.84 
L 611.217344 7.2 
" style="fill: none; stroke: #ffffff; stroke-width: 1.25; stroke-linejoin: miter; stroke-linecap: square"/>
   </g>
   <g id="patch_7">
    <path d="M 53.217344 339.84 
L 611.217344 339.84 
" style="fill: none; stroke: #ffffff; stroke-width: 1.25; stroke-linejoin: miter; stroke-linecap: square"/>
   </g>
   <g id="patch_8">
    <path d="M 53.217344 7.2 
L 611.217344 7.2 
" style="fill: none; stroke: #ffffff; stroke-width: 1.25; stroke-linejoin: miter; stroke-linecap: square"/>
   </g>
   <g id="PathCollection_1">
    <defs>
     <path id="m3715fd0236" d="M 0 2.5 
C 0.663008 2.5 1.29895 2.236584 1.767767 1.767767 
C 2.236584 1.29895 2.5 0.663008 2.5 0 
C 2.5 -0.663008 2.236584 -1.29895 1.767767 -1.767767 
C 1.29895 -2.236584 0.663008 -2.5 0 -2.5 
C -0.663008 -2.5 -1.29895 -2.236584 -1.767767 -1.767767 
C -2.236584 -1.29895 -2.5 -0.663008 -2.5 0 
C -2.5 0.663008 -2.236584 1.29895 -1.767767 1.767767 
C -1.29895 2.236584 -0.663008 2.5 0 2.5 
z
"/>
    </defs>
    <g clip-path="url(#pc4564cb076)">
     <use xlink:href="#m3715fd0236" x="366.804121" y="73.768565" style="fill-opacity: 0.3"/>
     <use xlink:href="#m3715fd0236" x="424.448749" y="84.664476" style="fill-opacity: 0.3"/>
     <use xlink:href="#m3715fd0236" x="378.333046" y="74.134777" style="fill-opacity: 0.3"/>
     <use xlink:href="#m3715fd0236" x="482.093377" y="104.819434" style="fill-opacity: 0.3"/>
     <use xlink:href="#m3715fd0236" x="585.853707" y="80.809637" style="fill-opacity: 0.3"/>
     <use xlink:href="#m3715fd0236" x="424.448749" y="79.608026" style="fill-opacity: 0.3"/>
     <use xlink:href="#m3715fd0236" x="332.217344" y="81.057374" style="fill-opacity: 0.3"/>
     <use xlink:href="#m3715fd0236" x="459.035526" y="92.478701" style="fill-opacity: 0.3"/>
     <use xlink:href="#m3715fd0236" x="574.324782" y="95.304746" style="fill-opacity: 0.3"/>
     <use xlink:href="#m3715fd0236" x="574.324782" y="99.236669" style="fill-opacity: 0.3"/>
     <use xlink:href="#m3715fd0236" x="355.275195" y="94.002153" style="fill-opacity: 0.3"/>
     <use xlink:href="#m3715fd0236" x="528.209079" y="74.984484" style="fill-opacity: 0.3"/>
     <use xlink:href="#m3715fd0236" x="297.630567" y="88.58167" style="fill-opacity: 0.3"/>
     <use xlink:href="#m3715fd0236" x="366.804121" y="101.678163" style="fill-opacity: 0.3"/>
     <use xlink:href="#m3715fd0236" x="435.977674" y="92.558491" style="fill-opacity: 0.3"/>
     <use xlink:href="#m3715fd0236" x="401.390897" y="101.078868" style="fill-opacity: 0.3"/>
     <use xlink:href="#m3715fd0236" x="424.448749" y="105.690919" style="fill-opacity: 0.3"/>
     <use xlink:href="#m3715fd0236" x="482.093377" y="78.007132" style="fill-opacity: 0.3"/>
     <use xlink:href="#m3715fd0236" x="435.977674" y="82.352477" style="fill-opacity: 0.3"/>
     <use xlink:href="#m3715fd0236" x="378.333046" y="103.241835" style="fill-opacity: 0.3"/>
     <use xlink:href="#m3715fd0236" x="493.622302" y="88.003969" style="fill-opacity: 0.3"/>
     <use xlink:href="#m3715fd0236" x="551.266931" y="99.110544" style="fill-opacity: 0.3"/>
     <use xlink:href="#m3715fd0236" x="378.333046" y="94.893712" style="fill-opacity: 0.3"/>
     <use xlink:href="#m3715fd0236" x="482.093377" y="78.568549" style="fill-opacity: 0.3"/>
     <use xlink:href="#m3715fd0236" x="459.035526" y="82.721739" style="fill-opacity: 0.3"/>
     <use xlink:href="#m3715fd0236" x="401.390897" y="96.575571" style="fill-opacity: 0.3"/>
     <use xlink:href="#m3715fd0236" x="389.861972" y="83.274119" style="fill-opacity: 0.3"/>
     <use xlink:href="#m3715fd0236" x="470.564451" y="83.000769" style="fill-opacity: 0.3"/>
     <use xlink:href="#m3715fd0236" x="332.217344" y="75.79968" style="fill-opacity: 0.3"/>
     <use xlink:href="#m3715fd0236" x="389.861972" y="77.438572" style="fill-opacity: 0.3"/>
    </g>
   </g>
   <g id="PathCollection_2">
    <g clip-path="url(#pc4564cb076)">
     <use xlink:href="#m3715fd0236" x="113.167757" y="269.684883" style="fill-opacity: 0.3"/>
     <use xlink:href="#m3715fd0236" x="78.58098" y="254.160034" style="fill-opacity: 0.3"/>
     <use xlink:href="#m3715fd0236" x="78.58098" y="259.466477" style="fill-opacity: 0.3"/>
     <use xlink:href="#m3715fd0236" x="90.109906" y="273.236714" style="fill-opacity: 0.3"/>
     <use xlink:href="#m3715fd0236" x="101.638831" y="259.579548" style="fill-opacity: 0.3"/>
     <use xlink:href="#m3715fd0236" x="78.58098" y="265.918755" style="fill-opacity: 0.3"/>
     <use xlink:href="#m3715fd0236" x="78.58098" y="241.739715" style="fill-opacity: 0.3"/>
     <use xlink:href="#m3715fd0236" x="101.638831" y="250.884996" style="fill-opacity: 0.3"/>
     <use xlink:href="#m3715fd0236" x="78.58098" y="270.472517" style="fill-opacity: 0.3"/>
     <use xlink:href="#m3715fd0236" x="78.58098" y="269.177265" style="fill-opacity: 0.3"/>
     <use xlink:href="#m3715fd0236" x="78.58098" y="245.312048" style="fill-opacity: 0.3"/>
     <use xlink:href="#m3715fd0236" x="159.283459" y="263.146055" style="fill-opacity: 0.3"/>
     <use xlink:href="#m3715fd0236" x="78.58098" y="260.609142" style="fill-opacity: 0.3"/>
     <use xlink:href="#m3715fd0236" x="78.58098" y="245.988619" style="fill-opacity: 0.3"/>
     <use xlink:href="#m3715fd0236" x="90.109906" y="257.379559" style="fill-opacity: 0.3"/>
     <use xlink:href="#m3715fd0236" x="78.58098" y="242.862951" style="fill-opacity: 0.3"/>
     <use xlink:href="#m3715fd0236" x="101.638831" y="240.536182" style="fill-opacity: 0.3"/>
     <use xlink:href="#m3715fd0236" x="78.58098" y="271.844893" style="fill-opacity: 0.3"/>
     <use xlink:href="#m3715fd0236" x="90.109906" y="250.547387" style="fill-opacity: 0.3"/>
     <use xlink:href="#m3715fd0236" x="78.58098" y="270.109068" style="fill-opacity: 0.3"/>
     <use xlink:href="#m3715fd0236" x="78.58098" y="254.60806" style="fill-opacity: 0.3"/>
     <use xlink:href="#m3715fd0236" x="78.58098" y="258.149161" style="fill-opacity: 0.3"/>
     <use xlink:href="#m3715fd0236" x="90.109906" y="271.879026" style="fill-opacity: 0.3"/>
     <use xlink:href="#m3715fd0236" x="216.928088" y="268.212742" style="fill-opacity: 0.3"/>
     <use xlink:href="#m3715fd0236" x="90.109906" y="265.892381" style="fill-opacity: 0.3"/>
     <use xlink:href="#m3715fd0236" x="90.109906" y="254.736244" style="fill-opacity: 0.3"/>
     <use xlink:href="#m3715fd0236" x="113.167757" y="244.864327" style="fill-opacity: 0.3"/>
     <use xlink:href="#m3715fd0236" x="90.109906" y="248.312703" style="fill-opacity: 0.3"/>
     <use xlink:href="#m3715fd0236" x="136.225608" y="268.689795" style="fill-opacity: 0.3"/>
     <use xlink:href="#m3715fd0236" x="113.167757" y="251.610468" style="fill-opacity: 0.3"/>
     <use xlink:href="#m3715fd0236" x="182.341311" y="261.222823" style="fill-opacity: 0.3"/>
     <use xlink:href="#m3715fd0236" x="78.58098" y="240.957811" style="fill-opacity: 0.3"/>
     <use xlink:href="#m3715fd0236" x="101.638831" y="256.345304" style="fill-opacity: 0.3"/>
     <use xlink:href="#m3715fd0236" x="78.58098" y="262.368518" style="fill-opacity: 0.3"/>
     <use xlink:href="#m3715fd0236" x="78.58098" y="248.226487" style="fill-opacity: 0.3"/>
     <use xlink:href="#m3715fd0236" x="90.109906" y="243.959957" style="fill-opacity: 0.3"/>
    </g>
   </g>
  </g>
 </g>
 <defs>
  <clipPath id="pc4564cb076">
   <rect x="53.217344" y="7.2" width="558" height="332.64"/>
  </clipPath>
 </defs>
</svg>