<?xml version="1.0" encoding="utf-8" standalone="no"?>
<!DOCTYPE svg PUBLIC "-//W3C//DTD SVG 1.1//EN"
  "http://www.w3.org/Graphics/SVG/1.1/DTD/svg11.dtd">
<svg xmlns:xlink="http://www.w3.org/1999/xlink" width="615.225469pt" height="366.599844pt" viewBox="0 0 615.225469 366.599844" xmlns="http://www.w3.org/2000/svg" version="1.1">
 <metadata>
  <rdf:RDF xmlns:dc="http://purl.org/dc/elements/1.1/" xmlns:cc="http://creativecommons.org/ns#" xmlns:rdf="http://www.w3.org/1999/02/22-rdf-syntax-ns#">
   <cc:Work>
    <dc:type rdf:resource="http://purl.org/dc/dcmitype/StillImage"/>
    <dc:date>2023-05-28T12:24:39.884308</dc:date>
    <dc:format>image/svg+xml</dc:format>
    <dc:creator>
     <cc:Agent>
      <dc:title>Matplotlib v3.7.1, https://matplotlib.org/</dc:title>
     </cc:Agent>
    </dc:creator>
   </cc:Work>
  </rdf:RDF>
 </metadata>
 <defs>
  <style type="text/css">*{stroke-linejoin: round; stroke-linecap: butt}</style>
 </defs>
 <g id="figure_1">
  <g id="patch_1">
   <path d="M 0 366.599844 
L 615.225469 366.599844 
L 615.225469 0 
L 0 0 
z
" style="fill: #ffffff"/>
  </g>
  <g id="axes_1">
   <g id="patch_2">
    <path d="M 50.025469 339.84 
L 608.025469 339.84 
L 608.025469 7.2 
L 50.025469 7.2 
z
" style="fill: #eaeaf2"/>
   </g>
   <g id="matplotlib.axis_1">
    <g id="xtick_1">
     <g id="line2d_1">
      <path d="M 74.958013 339.84 
L 74.958013 7.2 
" clip-path="url(#p0987012cb7)" style="fill: none; stroke: #ffffff; stroke-linecap: round"/>
     </g>
     <g id="text_1">
      <!-- 0 -->
      <g style="fill: #262626" transform="translate(71.899497 357.213594) scale(0.11 -0.11)">
       <defs>
        <path id="ArialMT-30" d="M 266 2259 
Q 266 3072 433 3567 
Q 600 4063 929 4331 
Q 1259 4600 1759 4600 
Q 2128 4600 2406 4451 
Q 2684 4303 2865 4023 
Q 3047 3744 3150 3342 
Q 3253 2941 3253 2259 
Q 3253 1453 3087 958 
Q 2922 463 2592 192 
Q 2263 -78 1759 -78 
Q 1097 -78 719 397 
Q 266 969 266 2259 
z
M 844 2259 
Q 844 1131 1108 757 
Q 1372 384 1759 384 
Q 2147 384 2411 759 
Q 2675 1134 2675 2259 
Q 2675 3391 2411 3762 
Q 2147 4134 1753 4134 
Q 1366 4134 1134 3806 
Q 844 3388 844 2259 
z
" transform="scale(0.015625)"/>
       </defs>
       <use xlink:href="#ArialMT-30"/>
      </g>
     </g>
    </g>
    <g id="xtick_2">
     <g id="line2d_2">
      <path d="M 151.192261 339.84 
L 151.192261 7.2 
" clip-path="url(#p0987012cb7)" style="fill: none; stroke: #ffffff; stroke-linecap: round"/>
     </g>
     <g id="text_2">
      <!-- 250 -->
      <g style="fill: #262626" transform="translate(142.016714 357.213594) scale(0.11 -0.11)">
       <defs>
        <path id="ArialMT-32" d="M 3222 541 
L 3222 0 
L 194 0 
Q 188 203 259 391 
Q 375 700 629 1000 
Q 884 1300 1366 1694 
Q 2113 2306 2375 2664 
Q 2638 3022 2638 3341 
Q 2638 3675 2398 3904 
Q 2159 4134 1775 4134 
Q 1369 4134 1125 3890 
Q 881 3647 878 3216 
L 300 3275 
Q 359 3922 746 4261 
Q 1134 4600 1788 4600 
Q 2447 4600 2831 4234 
Q 3216 3869 3216 3328 
Q 3216 3053 3103 2787 
Q 2991 2522 2730 2228 
Q 2469 1934 1863 1422 
Q 1356 997 1212 845 
Q 1069 694 975 541 
L 3222 541 
z
" transform="scale(0.015625)"/>
        <path id="ArialMT-35" d="M 266 1200 
L 856 1250 
Q 922 819 1161 601 
Q 1400 384 1738 384 
Q 2144 384 2425 690 
Q 2706 997 2706 1503 
Q 2706 1984 2436 2262 
Q 2166 2541 1728 2541 
Q 1456 2541 1237 2417 
Q 1019 2294 894 2097 
L 366 2166 
L 809 4519 
L 3088 4519 
L 3088 3981 
L 1259 3981 
L 1013 2750 
Q 1425 3038 1878 3038 
Q 2478 3038 2890 2622 
Q 3303 2206 3303 1553 
Q 3303 931 2941 478 
Q 2500 -78 1738 -78 
Q 1113 -78 717 272 
Q 322 622 266 1200 
z
" transform="scale(0.015625)"/>
       </defs>
       <use xlink:href="#ArialMT-32"/>
       <use xlink:href="#ArialMT-35" x="55.615234"/>
       <use xlink:href="#ArialMT-30" x="111.230469"/>
      </g>
     </g>
    </g>
    <g id="xtick_3">
     <g id="line2d_3">
      <path d="M 227.426508 339.84 
L 227.426508 7.2 
" clip-path="url(#p0987012cb7)" style="fill: none; stroke: #ffffff; stroke-linecap: round"/>
     </g>
     <g id="text_3">
      <!-- 500 -->
      <g style="fill: #262626" transform="translate(218.250961 357.213594) scale(0.11 -0.11)">
       <use xlink:href="#ArialMT-35"/>
       <use xlink:href="#ArialMT-30" x="55.615234"/>
       <use xlink:href="#ArialMT-30" x="111.230469"/>
      </g>
     </g>
    </g>
    <g id="xtick_4">
     <g id="line2d_4">
      <path d="M 303.660755 339.84 
L 303.660755 7.2 
" clip-path="url(#p0987012cb7)" style="fill: none; stroke: #ffffff; stroke-linecap: round"/>
     </g>
     <g id="text_4">
      <!-- 750 -->
      <g style="fill: #262626" transform="translate(294.485209 357.213594) scale(0.11 -0.11)">
       <defs>
        <path id="ArialMT-37" d="M 303 3981 
L 303 4522 
L 3269 4522 
L 3269 4084 
Q 2831 3619 2401 2847 
Q 1972 2075 1738 1259 
Q 1569 684 1522 0 
L 944 0 
Q 953 541 1156 1306 
Q 1359 2072 1739 2783 
Q 2119 3494 2547 3981 
L 303 3981 
z
" transform="scale(0.015625)"/>
       </defs>
       <use xlink:href="#ArialMT-37"/>
       <use xlink:href="#ArialMT-35" x="55.615234"/>
       <use xlink:href="#ArialMT-30" x="111.230469"/>
      </g>
     </g>
    </g>
    <g id="xtick_5">
     <g id="line2d_5">
      <path d="M 379.895003 339.84 
L 379.895003 7.2 
" clip-path="url(#p0987012cb7)" style="fill: none; stroke: #ffffff; stroke-linecap: round"/>
     </g>
     <g id="text_5">
      <!-- 1000 -->
      <g style="fill: #262626" transform="translate(367.66094 357.213594) scale(0.11 -0.11)">
       <defs>
        <path id="ArialMT-31" d="M 2384 0 
L 1822 0 
L 1822 3584 
Q 1619 3391 1289 3197 
Q 959 3003 697 2906 
L 697 3450 
Q 1169 3672 1522 3987 
Q 1875 4303 2022 4600 
L 2384 4600 
L 2384 0 
z
" transform="scale(0.015625)"/>
       </defs>
       <use xlink:href="#ArialMT-31"/>
       <use xlink:href="#ArialMT-30" x="55.615234"/>
       <use xlink:href="#ArialMT-30" x="111.230469"/>
       <use xlink:href="#ArialMT-30" x="166.845703"/>
      </g>
     </g>
    </g>
    <g id="xtick_6">
     <g id="line2d_6">
      <path d="M 456.12925 339.84 
L 456.12925 7.2 
" clip-path="url(#p0987012cb7)" style="fill: none; stroke: #ffffff; stroke-linecap: round"/>
     </g>
     <g id="text_6">
      <!-- 1250 -->
      <g style="fill: #262626" transform="translate(443.895188 357.213594) scale(0.11 -0.11)">
       <use xlink:href="#ArialMT-31"/>
       <use xlink:href="#ArialMT-32" x="55.615234"/>
       <use xlink:href="#ArialMT-35" x="111.230469"/>
       <use xlink:href="#ArialMT-30" x="166.845703"/>
      </g>
     </g>
    </g>
    <g id="xtick_7">
     <g id="line2d_7">
      <path d="M 532.363498 339.84 
L 532.363498 7.2 
" clip-path="url(#p0987012cb7)" style="fill: none; stroke: #ffffff; stroke-linecap: round"/>
     </g>
     <g id="text_7">
      <!-- 1500 -->
      <g style="fill: #262626" transform="translate(520.129435 357.213594) scale(0.11 -0.11)">
       <use xlink:href="#ArialMT-31"/>
       <use xlink:href="#ArialMT-35" x="55.615234"/>
       <use xlink:href="#ArialMT-30" x="111.230469"/>
       <use xlink:href="#ArialMT-30" x="166.845703"/>
      </g>
     </g>
    </g>
   </g>
   <g id="matplotlib.axis_2">
    <g id="ytick_1">
     <g id="line2d_8">
      <path d="M 50.025469 339.84 
L 608.025469 339.84 
" clip-path="url(#p0987012cb7)" style="fill: none; stroke: #ffffff; stroke-linecap: round"/>
     </g>
     <g id="text_8">
      <!-- 0 -->
      <g style="fill: #262626" transform="translate(34.408438 343.776797) scale(0.11 -0.11)">
       <use xlink:href="#ArialMT-30"/>
      </g>
     </g>
    </g>
    <g id="ytick_2">
     <g id="line2d_9">
      <path d="M 50.025469 287.04 
L 608.025469 287.04 
" clip-path="url(#p0987012cb7)" style="fill: none; stroke: #ffffff; stroke-linecap: round"/>
     </g>
     <g id="text_9">
      <!-- 100 -->
      <g style="fill: #262626" transform="translate(22.174375 290.976797) scale(0.11 -0.11)">
       <use xlink:href="#ArialMT-31"/>
       <use xlink:href="#ArialMT-30" x="55.615234"/>
       <use xlink:href="#ArialMT-30" x="111.230469"/>
      </g>
     </g>
    </g>
    <g id="ytick_3">
     <g id="line2d_10">
      <path d="M 50.025469 234.24 
L 608.025469 234.24 
" clip-path="url(#p0987012cb7)" style="fill: none; stroke: #ffffff; stroke-linecap: round"/>
     </g>
     <g id="text_10">
      <!-- 200 -->
      <g style="fill: #262626" transform="translate(22.174375 238.176797) scale(0.11 -0.11)">
       <use xlink:href="#ArialMT-32"/>
       <use xlink:href="#ArialMT-30" x="55.615234"/>
       <use xlink:href="#ArialMT-30" x="111.230469"/>
      </g>
     </g>
    </g>
    <g id="ytick_4">
     <g id="line2d_11">
      <path d="M 50.025469 181.44 
L 608.025469 181.44 
" clip-path="url(#p0987012cb7)" style="fill: none; stroke: #ffffff; stroke-linecap: round"/>
     </g>
     <g id="text_11">
      <!-- 300 -->
      <g style="fill: #262626" transform="translate(22.174375 185.376797) scale(0.11 -0.11)">
       <defs>
        <path id="ArialMT-33" d="M 269 1209 
L 831 1284 
Q 928 806 1161 595 
Q 1394 384 1728 384 
Q 2125 384 2398 659 
Q 2672 934 2672 1341 
Q 2672 1728 2419 1979 
Q 2166 2231 1775 2231 
Q 1616 2231 1378 2169 
L 1441 2663 
Q 1497 2656 1531 2656 
Q 1891 2656 2178 2843 
Q 2466 3031 2466 3422 
Q 2466 3731 2256 3934 
Q 2047 4138 1716 4138 
Q 1388 4138 1169 3931 
Q 950 3725 888 3313 
L 325 3413 
Q 428 3978 793 4289 
Q 1159 4600 1703 4600 
Q 2078 4600 2393 4439 
Q 2709 4278 2876 4000 
Q 3044 3722 3044 3409 
Q 3044 3113 2884 2869 
Q 2725 2625 2413 2481 
Q 2819 2388 3044 2092 
Q 3269 1797 3269 1353 
Q 3269 753 2831 336 
Q 2394 -81 1725 -81 
Q 1122 -81 723 278 
Q 325 638 269 1209 
z
" transform="scale(0.015625)"/>
       </defs>
       <use xlink:href="#ArialMT-33"/>
       <use xlink:href="#ArialMT-30" x="55.615234"/>
       <use xlink:href="#ArialMT-30" x="111.230469"/>
      </g>
     </g>
    </g>
    <g id="ytick_5">
     <g id="line2d_12">
      <path d="M 50.025469 128.64 
L 608.025469 128.64 
" clip-path="url(#p0987012cb7)" style="fill: none; stroke: #ffffff; stroke-linecap: round"/>
     </g>
     <g id="text_12">
      <!-- 400 -->
      <g style="fill: #262626" transform="translate(22.174375 132.576797) scale(0.11 -0.11)">
       <defs>
        <path id="ArialMT-34" d="M 2069 0 
L 2069 1097 
L 81 1097 
L 81 1613 
L 2172 4581 
L 2631 4581 
L 2631 1613 
L 3250 1613 
L 3250 1097 
L 2631 1097 
L 2631 0 
L 2069 0 
z
M 2069 1613 
L 2069 3678 
L 634 1613 
L 2069 1613 
z
" transform="scale(0.015625)"/>
       </defs>
       <use xlink:href="#ArialMT-34"/>
       <use xlink:href="#ArialMT-30" x="55.615234"/>
       <use xlink:href="#ArialMT-30" x="111.230469"/>
      </g>
     </g>
    </g>
    <g id="ytick_6">
     <g id="line2d_13">
      <path d="M 50.025469 75.84 
L 608.025469 75.84 
" clip-path="url(#p0987012cb7)" style="fill: none; stroke: #ffffff; stroke-linecap: round"/>
     </g>
     <g id="text_13">
      <!-- 500 -->
      <g style="fill: #262626" transform="translate(22.174375 79.776797) scale(0.11 -0.11)">
       <use xlink:href="#ArialMT-35"/>
       <use xlink:href="#ArialMT-30" x="55.615234"/>
       <use xlink:href="#ArialMT-30" x="111.230469"/>
      </g>
     </g>
    </g>
    <g id="ytick_7">
     <g id="line2d_14">
      <path d="M 50.025469 23.04 
L 608.025469 23.04 
" clip-path="url(#p0987012cb7)" style="fill: none; stroke: #ffffff; stroke-linecap: round"/>
     </g>
     <g id="text_14">
      <!-- 600 -->
      <g style="fill: #262626" transform="translate(22.174375 26.976797) scale(0.11 -0.11)">
       <defs>
        <path id="ArialMT-36" d="M 3184 3459 
L 2625 3416 
Q 2550 3747 2413 3897 
Q 2184 4138 1850 4138 
Q 1581 4138 1378 3988 
Q 1113 3794 959 3422 
Q 806 3050 800 2363 
Q 1003 2672 1297 2822 
Q 1591 2972 1913 2972 
Q 2475 2972 2870 2558 
Q 3266 2144 3266 1488 
Q 3266 1056 3080 686 
Q 2894 316 2569 119 
Q 2244 -78 1831 -78 
Q 1128 -78 684 439 
Q 241 956 241 2144 
Q 241 3472 731 4075 
Q 1159 4600 1884 4600 
Q 2425 4600 2770 4297 
Q 3116 3994 3184 3459 
z
M 888 1484 
Q 888 1194 1011 928 
Q 1134 663 1356 523 
Q 1578 384 1822 384 
Q 2178 384 2434 671 
Q 2691 959 2691 1453 
Q 2691 1928 2437 2201 
Q 2184 2475 1800 2475 
Q 1419 2475 1153 2201 
Q 888 1928 888 1484 
z
" transform="scale(0.015625)"/>
       </defs>
       <use xlink:href="#ArialMT-36"/>
       <use xlink:href="#ArialMT-30" x="55.615234"/>
       <use xlink:href="#ArialMT-30" x="111.230469"/>
      </g>
     </g>
    </g>
    <g id="text_15">
     <!-- Count -->
     <g style="fill: #262626" transform="translate(15.789375 189.529687) rotate(-90) scale(0.12 -0.12)">
      <defs>
       <path id="ArialMT-43" d="M 3763 1606 
L 4369 1453 
Q 4178 706 3683 314 
Q 3188 -78 2472 -78 
Q 1731 -78 1267 223 
Q 803 525 561 1097 
Q 319 1669 319 2325 
Q 319 3041 592 3573 
Q 866 4106 1370 4382 
Q 1875 4659 2481 4659 
Q 3169 4659 3637 4309 
Q 4106 3959 4291 3325 
L 3694 3184 
Q 3534 3684 3231 3912 
Q 2928 4141 2469 4141 
Q 1941 4141 1586 3887 
Q 1231 3634 1087 3207 
Q 944 2781 944 2328 
Q 944 1744 1114 1308 
Q 1284 872 1643 656 
Q 2003 441 2422 441 
Q 2931 441 3284 734 
Q 3638 1028 3763 1606 
z
" transform="scale(0.015625)"/>
       <path id="ArialMT-6f" d="M 213 1659 
Q 213 2581 725 3025 
Q 1153 3394 1769 3394 
Q 2453 3394 2887 2945 
Q 3322 2497 3322 1706 
Q 3322 1066 3130 698 
Q 2938 331 2570 128 
Q 2203 -75 1769 -75 
Q 1072 -75 642 372 
Q 213 819 213 1659 
z
M 791 1659 
Q 791 1022 1069 705 
Q 1347 388 1769 388 
Q 2188 388 2466 706 
Q 2744 1025 2744 1678 
Q 2744 2294 2464 2611 
Q 2184 2928 1769 2928 
Q 1347 2928 1069 2612 
Q 791 2297 791 1659 
z
" transform="scale(0.015625)"/>
       <path id="ArialMT-75" d="M 2597 0 
L 2597 488 
Q 2209 -75 1544 -75 
Q 1250 -75 995 37 
Q 741 150 617 320 
Q 494 491 444 738 
Q 409 903 409 1263 
L 409 3319 
L 972 3319 
L 972 1478 
Q 972 1038 1006 884 
Q 1059 663 1231 536 
Q 1403 409 1656 409 
Q 1909 409 2131 539 
Q 2353 669 2445 892 
Q 2538 1116 2538 1541 
L 2538 3319 
L 3100 3319 
L 3100 0 
L 2597 0 
z
" transform="scale(0.015625)"/>
       <path id="ArialMT-6e" d="M 422 0 
L 422 3319 
L 928 3319 
L 928 2847 
Q 1294 3394 1984 3394 
Q 2284 3394 2536 3286 
Q 2788 3178 2913 3003 
Q 3038 2828 3088 2588 
Q 3119 2431 3119 2041 
L 3119 0 
L 2556 0 
L 2556 2019 
Q 2556 2363 2490 2533 
Q 2425 2703 2258 2804 
Q 2091 2906 1866 2906 
Q 1506 2906 1245 2678 
Q 984 2450 984 1813 
L 984 0 
L 422 0 
z
" transform="scale(0.015625)"/>
       <path id="ArialMT-74" d="M 1650 503 
L 1731 6 
Q 1494 -44 1306 -44 
Q 1000 -44 831 53 
Q 663 150 594 308 
Q 525 466 525 972 
L 525 2881 
L 113 2881 
L 113 3319 
L 525 3319 
L 525 4141 
L 1084 4478 
L 1084 3319 
L 1650 3319 
L 1650 2881 
L 1084 2881 
L 1084 941 
Q 1084 700 1114 631 
Q 1144 563 1211 522 
Q 1278 481 1403 481 
Q 1497 481 1650 503 
z
" transform="scale(0.015625)"/>
      </defs>
      <use xlink:href="#ArialMT-43"/>
      <use xlink:href="#ArialMT-6f" x="72.216797"/>
      <use xlink:href="#ArialMT-75" x="127.832031"/>
      <use xlink:href="#ArialMT-6e" x="183.447266"/>
      <use xlink:href="#ArialMT-74" x="239.0625"/>
     </g>
    </g>
   </g>
   <g id="patch_3">
    <path d="M 75.389105 339.84 
L 80.785623 339.84 
L 80.785623 278.592 
L 75.389105 278.592 
z
" clip-path="url(#p0987012cb7)" style="fill: #0173b2; fill-opacity: 0.75; stroke: #ffffff; stroke-width: 0.539652; stroke-linejoin: miter"/>
   </g>
   <g id="patch_4">
    <path d="M 80.785623 339.84 
L 86.182142 339.84 
L 86.182142 186.72 
L 80.785623 186.72 
z
" clip-path="url(#p0987012cb7)" style="fill: #0173b2; fill-opacity: 0.75; stroke: #ffffff; stroke-width: 0.539652; stroke-linejoin: miter"/>
   </g>
   <g id="patch_5">
    <path d="M 86.182142 339.84 
L 91.57866 339.84 
L 91.57866 120.192 
L 86.182142 120.192 
z
" clip-path="url(#p0987012cb7)" style="fill: #0173b2; fill-opacity: 0.75; stroke: #ffffff; stroke-width: 0.539652; stroke-linejoin: miter"/>
   </g>
   <g id="patch_6">
    <path d="M 91.57866 339.84 
L 96.975179 339.84 
L 96.975179 83.76 
L 91.57866 83.76 
z
" clip-path="url(#p0987012cb7)" style="fill: #0173b2; fill-opacity: 0.75; stroke: #ffffff; stroke-width: 0.539652; stroke-linejoin: miter"/>
   </g>
   <g id="patch_7">
    <path d="M 96.975179 339.84 
L 102.371697 339.84 
L 102.371697 54.72 
L 96.975179 54.72 
z
" clip-path="url(#p0987012cb7)" style="fill: #0173b2; fill-opacity: 0.75; stroke: #ffffff; stroke-width: 0.539652; stroke-linejoin: miter"/>
   </g>
   <g id="patch_8">
    <path d="M 102.371697 339.84 
L 107.768215 339.84 
L 107.768215 65.808 
L 102.371697 65.808 
z
" clip-path="url(#p0987012cb7)" style="fill: #0173b2; fill-opacity: 0.75; stroke: #ffffff; stroke-width: 0.539652; stroke-linejoin: miter"/>
   </g>
   <g id="patch_9">
    <path d="M 107.768215 339.84 
L 113.164734 339.84 
L 113.164734 41.52 
L 107.768215 41.52 
z
" clip-path="url(#p0987012cb7)" style="fill: #0173b2; fill-opacity: 0.75; stroke: #ffffff; stroke-width: 0.539652; stroke-linejoin: miter"/>
   </g>
   <g id="patch_10">
    <path d="M 113.164734 339.84 
L 118.561252 339.84 
L 118.561252 23.04 
L 113.164734 23.04 
z
" clip-path="url(#p0987012cb7)" style="fill: #0173b2; fill-opacity: 0.75; stroke: #ffffff; stroke-width: 0.539652; stroke-linejoin: miter"/>
   </g>
   <g id="patch_11">
    <path d="M 118.561252 339.84 
L 123.95777 339.84 
L 123.95777 38.352 
L 118.561252 38.352 
z
" clip-path="url(#p0987012cb7)" style="fill: #0173b2; fill-opacity: 0.75; stroke: #ffffff; stroke-width: 0.539652; stroke-linejoin: miter"/>
   </g>
   <g id="patch_12">
    <path d="M 123.95777 339.84 
L 129.354289 339.84 
L 129.354289 65.808 
L 123.95777 65.808 
z
" clip-path="url(#p0987012cb7)" style="fill: #0173b2; fill-opacity: 0.75; stroke: #ffffff; stroke-width: 0.539652; stroke-linejoin: miter"/>
   </g>
   <g id="patch_13">
    <path d="M 129.354289 339.84 
L 134.750807 339.84 
L 134.750807 70.56 
L 129.354289 70.56 
z
" clip-path="url(#p0987012cb7)" style="fill: #0173b2; fill-opacity: 0.75; stroke: #ffffff; stroke-width: 0.539652; stroke-linejoin: miter"/>
   </g>
   <g id="patch_14">
    <path d="M 134.750807 339.84 
L 140.147326 339.84 
L 140.147326 90.096 
L 134.750807 90.096 
z
" clip-path="url(#p0987012cb7)" style="fill: #0173b2; fill-opacity: 0.75; stroke: #ffffff; stroke-width: 0.539652; stroke-linejoin: miter"/>
   </g>
   <g id="patch_15">
    <path d="M 140.147326 339.84 
L 145.543844 339.84 
L 145.543844 120.72 
L 140.147326 120.72 
z
" clip-path="url(#p0987012cb7)" style="fill: #0173b2; fill-opacity: 0.75; stroke: #ffffff; stroke-width: 0.539652; stroke-linejoin: miter"/>
   </g>
   <g id="patch_16">
    <path d="M 145.543844 339.84 
L 150.940362 339.84 
L 150.940362 123.888 
L 145.543844 123.888 
z
" clip-path="url(#p0987012cb7)" style="fill: #0173b2; fill-opacity: 0.75; stroke: #ffffff; stroke-width: 0.539652; stroke-linejoin: miter"/>
   </g>
   <g id="patch_17">
    <path d="M 150.940362 339.84 
L 156.336881 339.84 
L 156.336881 137.616 
L 150.940362 137.616 
z
" clip-path="url(#p0987012cb7)" style="fill: #0173b2; fill-opacity: 0.75; stroke: #ffffff; stroke-width: 0.539652; stroke-linejoin: miter"/>
   </g>
   <g id="patch_18">
    <path d="M 156.336881 339.84 
L 161.733399 339.84 
L 161.733399 159.792 
L 156.336881 159.792 
z
" clip-path="url(#p0987012cb7)" style="fill: #0173b2; fill-opacity: 0.75; stroke: #ffffff; stroke-width: 0.539652; stroke-linejoin: miter"/>
   </g>
   <g id="patch_19">
    <path d="M 161.733399 339.84 
L 167.129917 339.84 
L 167.129917 162.432 
L 161.733399 162.432 
z
" clip-path="url(#p0987012cb7)" style="fill: #0173b2; fill-opacity: 0.75; stroke: #ffffff; stroke-width: 0.539652; stroke-linejoin: miter"/>
   </g>
   <g id="patch_20">
    <path d="M 167.129917 339.84 
L 172.526436 339.84 
L 172.526436 195.168 
L 167.129917 195.168 
z
" clip-path="url(#p0987012cb7)" style="fill: #0173b2; fill-opacity: 0.75; stroke: #ffffff; stroke-width: 0.539652; stroke-linejoin: miter"/>
   </g>
   <g id="patch_21">
    <path d="M 172.526436 339.84 
L 177.922954 339.84 
L 177.922954 210.48 
L 172.526436 210.48 
z
" clip-path="url(#p0987012cb7)" style="fill: #0173b2; fill-opacity: 0.75; stroke: #ffffff; stroke-width: 0.539652; stroke-linejoin: miter"/>
   </g>
   <g id="patch_22">
    <path d="M 177.922954 339.84 
L 183.319473 339.84 
L 183.319473 221.04 
L 177.922954 221.04 
z
" clip-path="url(#p0987012cb7)" style="fill: #0173b2; fill-opacity: 0.75; stroke: #ffffff; stroke-width: 0.539652; stroke-linejoin: miter"/>
   </g>
   <g id="patch_23">
    <path d="M 183.319473 339.84 
L 188.715991 339.84 
L 188.715991 230.544 
L 183.319473 230.544 
z
" clip-path="url(#p0987012cb7)" style="fill: #0173b2; fill-opacity: 0.75; stroke: #ffffff; stroke-width: 0.539652; stroke-linejoin: miter"/>
   </g>
   <g id="patch_24">
    <path d="M 188.715991 339.84 
L 194.112509 339.84 
L 194.112509 256.944 
L 188.715991 256.944 
z
" clip-path="url(#p0987012cb7)" style="fill: #0173b2; fill-opacity: 0.75; stroke: #ffffff; stroke-width: 0.539652; stroke-linejoin: miter"/>
   </g>
   <g id="patch_25">
    <path d="M 194.112509 339.84 
L 199.509028 339.84 
L 199.509028 257.472 
L 194.112509 257.472 
z
" clip-path="url(#p0987012cb7)" style="fill: #0173b2; fill-opacity: 0.75; stroke: #ffffff; stroke-width: 0.539652; stroke-linejoin: miter"/>
   </g>
   <g id="patch_26">
    <path d="M 199.509028 339.84 
L 204.905546 339.84 
L 204.905546 277.536 
L 199.509028 277.536 
z
" clip-path="url(#p0987012cb7)" style="fill: #0173b2; fill-opacity: 0.75; stroke: #ffffff; stroke-width: 0.539652; stroke-linejoin: miter"/>
   </g>
   <g id="patch_27">
    <path d="M 204.905546 339.84 
L 210.302064 339.84 
L 210.302064 262.224 
L 204.905546 262.224 
z
" clip-path="url(#p0987012cb7)" style="fill: #0173b2; fill-opacity: 0.75; stroke: #ffffff; stroke-width: 0.539652; stroke-linejoin: miter"/>
   </g>
   <g id="patch_28">
    <path d="M 210.302064 339.84 
L 215.698583 339.84 
L 215.698583 279.648 
L 210.302064 279.648 
z
" clip-path="url(#p0987012cb7)" style="fill: #0173b2; fill-opacity: 0.75; stroke: #ffffff; stroke-width: 0.539652; stroke-linejoin: miter"/>
   </g>
   <g id="patch_29">
    <path d="M 215.698583 339.84 
L 221.095101 339.84 
L 221.095101 286.512 
L 215.698583 286.512 
z
" clip-path="url(#p0987012cb7)" style="fill: #0173b2; fill-opacity: 0.75; stroke: #ffffff; stroke-width: 0.539652; stroke-linejoin: miter"/>
   </g>
   <g id="patch_30">
    <path d="M 221.095101 339.84 
L 226.49162 339.84 
L 226.49162 296.016 
L 221.095101 296.016 
z
" clip-path="url(#p0987012cb7)" style="fill: #0173b2; fill-opacity: 0.75; stroke: #ffffff; stroke-width: 0.539652; stroke-linejoin: miter"/>
   </g>
   <g id="patch_31">
    <path d="M 226.49162 339.84 
L 231.888138 339.84 
L 231.888138 298.656 
L 226.49162 298.656 
z
" clip-path="url(#p0987012cb7)" style="fill: #0173b2; fill-opacity: 0.75; stroke: #ffffff; stroke-width: 0.539652; stroke-linejoin: miter"/>
   </g>
   <g id="patch_32">
    <path d="M 231.888138 339.84 
L 237.284656 339.84 
L 237.284656 294.96 
L 231.888138 294.96 
z
" clip-path="url(#p0987012cb7)" style="fill: #0173b2; fill-opacity: 0.75; stroke: #ffffff; stroke-width: 0.539652; stroke-linejoin: miter"/>
   </g>
   <g id="patch_33">
    <path d="M 237.284656 339.84 
L 242.681175 339.84 
L 242.681175 306.048 
L 237.284656 306.048 
z
" clip-path="url(#p0987012cb7)" style="fill: #0173b2; fill-opacity: 0.75; stroke: #ffffff; stroke-width: 0.539652; stroke-linejoin: miter"/>
   </g>
   <g id="patch_34">
    <path d="M 242.681175 339.84 
L 248.077693 339.84 
L 248.077693 309.744 
L 242.681175 309.744 
z
" clip-path="url(#p0987012cb7)" style="fill: #0173b2; fill-opacity: 0.75; stroke: #ffffff; stroke-width: 0.539652; stroke-linejoin: miter"/>
   </g>
   <g id="patch_35">
    <path d="M 248.077693 339.84 
L 253.474211 339.84 
L 253.474211 309.744 
L 248.077693 309.744 
z
" clip-path="url(#p0987012cb7)" style="fill: #0173b2; fill-opacity: 0.75; stroke: #ffffff; stroke-width: 0.539652; stroke-linejoin: miter"/>
   </g>
   <g id="patch_36">
    <path d="M 253.474211 339.84 
L 258.87073 339.84 
L 258.87073 316.608 
L 253.474211 316.608 
z
" clip-path="url(#p0987012cb7)" style="fill: #0173b2; fill-opacity: 0.75; stroke: #ffffff; stroke-width: 0.539652; stroke-linejoin: miter"/>
   </g>
   <g id="patch_37">
    <path d="M 258.87073 339.84 
L 264.267248 339.84 
L 264.267248 318.192 
L 258.87073 318.192 
z
" clip-path="url(#p0987012cb7)" style="fill: #0173b2; fill-opacity: 0.75; stroke: #ffffff; stroke-width: 0.539652; stroke-linejoin: miter"/>
   </g>
   <g id="patch_38">
    <path d="M 264.267248 339.84 
L 269.663767 339.84 
L 269.663767 323.472 
L 264.267248 323.472 
z
" clip-path="url(#p0987012cb7)" style="fill: #0173b2; fill-opacity: 0.75; stroke: #ffffff; stroke-width: 0.539652; stroke-linejoin: miter"/>
   </g>
   <g id="patch_39">
    <path d="M 269.663767 339.84 
L 275.060285 339.84 
L 275.060285 322.944 
L 269.663767 322.944 
z
" clip-path="url(#p0987012cb7)" style="fill: #0173b2; fill-opacity: 0.75; stroke: #ffffff; stroke-width: 0.539652; stroke-linejoin: miter"/>
   </g>
   <g id="patch_40">
    <path d="M 275.060285 339.84 
L 280.456803 339.84 
L 280.456803 329.808 
L 275.060285 329.808 
z
" clip-path="url(#p0987012cb7)" style="fill: #0173b2; fill-opacity: 0.75; stroke: #ffffff; stroke-width: 0.539652; stroke-linejoin: miter"/>
   </g>
   <g id="patch_41">
    <path d="M 280.456803 339.84 
L 285.853322 339.84 
L 285.853322 326.64 
L 280.456803 326.64 
z
" clip-path="url(#p0987012cb7)" style="fill: #0173b2; fill-opacity: 0.75; stroke: #ffffff; stroke-width: 0.539652; stroke-linejoin: miter"/>
   </g>
   <g id="patch_42">
    <path d="M 285.853322 339.84 
L 291.24984 339.84 
L 291.24984 326.64 
L 285.853322 326.64 
z
" clip-path="url(#p0987012cb7)" style="fill: #0173b2; fill-opacity: 0.75; stroke: #ffffff; stroke-width: 0.539652; stroke-linejoin: miter"/>
   </g>
   <g id="patch_43">
    <path d="M 291.24984 339.84 
L 296.646358 339.84 
L 296.646358 326.64 
L 291.24984 326.64 
z
" clip-path="url(#p0987012cb7)" style="fill: #0173b2; fill-opacity: 0.75; stroke: #ffffff; stroke-width: 0.539652; stroke-linejoin: miter"/>
   </g>
   <g id="patch_44">
    <path d="M 296.646358 339.84 
L 302.042877 339.84 
L 302.042877 329.808 
L 296.646358 329.808 
z
" clip-path="url(#p0987012cb7)" style="fill: #0173b2; fill-opacity: 0.75; stroke: #ffffff; stroke-width: 0.539652; stroke-linejoin: miter"/>
   </g>
   <g id="patch_45">
    <path d="M 302.042877 339.84 
L 307.439395 339.84 
L 307.439395 335.088 
L 302.042877 335.088 
z
" clip-path="url(#p0987012cb7)" style="fill: #0173b2; fill-opacity: 0.75; stroke: #ffffff; stroke-width: 0.539652; stroke-linejoin: miter"/>
   </g>
   <g id="patch_46">
    <path d="M 307.439395 339.84 
L 312.835914 339.84 
L 312.835914 335.088 
L 307.439395 335.088 
z
" clip-path="url(#p0987012cb7)" style="fill: #0173b2; fill-opacity: 0.75; stroke: #ffffff; stroke-width: 0.539652; stroke-linejoin: miter"/>
   </g>
   <g id="patch_47">
    <path d="M 312.835914 339.84 
L 318.232432 339.84 
L 318.232432 335.616 
L 312.835914 335.616 
z
" clip-path="url(#p0987012cb7)" style="fill: #0173b2; fill-opacity: 0.75; stroke: #ffffff; stroke-width: 0.539652; stroke-linejoin: miter"/>
   </g>
   <g id="patch_48">
    <path d="M 318.232432 339.84 
L 323.62895 339.84 
L 323.62895 334.56 
L 318.232432 334.56 
z
" clip-path="url(#p0987012cb7)" style="fill: #0173b2; fill-opacity: 0.75; stroke: #ffffff; stroke-width: 0.539652; stroke-linejoin: miter"/>
   </g>
   <g id="patch_49">
    <path d="M 323.62895 339.84 
L 329.025469 339.84 
L 329.025469 337.728 
L 323.62895 337.728 
z
" clip-path="url(#p0987012cb7)" style="fill: #0173b2; fill-opacity: 0.75; stroke: #ffffff; stroke-width: 0.539652; stroke-linejoin: miter"/>
   </g>
   <g id="patch_50">
    <path d="M 329.025469 339.84 
L 334.421987 339.84 
L 334.421987 336.144 
L 329.025469 336.144 
z
" clip-path="url(#p0987012cb7)" style="fill: #0173b2; fill-opacity: 0.75; stroke: #ffffff; stroke-width: 0.539652; stroke-linejoin: miter"/>
   </g>
   <g id="patch_51">
    <path d="M 334.421987 339.84 
L 339.818506 339.84 
L 339.818506 337.2 
L 334.421987 337.2 
z
" clip-path="url(#p0987012cb7)" style="fill: #0173b2; fill-opacity: 0.75; stroke: #ffffff; stroke-width: 0.539652; stroke-linejoin: miter"/>
   </g>
   <g id="patch_52">
    <path d="M 339.818506 339.84 
L 345.215024 339.84 
L 345.215024 338.256 
L 339.818506 338.256 
z
" clip-path="url(#p0987012cb7)" style="fill: #0173b2; fill-opacity: 0.75; stroke: #ffffff; stroke-width: 0.539652; stroke-linejoin: miter"/>
   </g>
   <g id="patch_53">
    <path d="M 345.215024 339.84 
L 350.611542 339.84 
L 350.611542 339.84 
L 345.215024 339.84 
z
" clip-path="url(#p0987012cb7)" style="fill: #0173b2; fill-opacity: 0.75; stroke: #ffffff; stroke-width: 0.539652; stroke-linejoin: miter"/>
   </g>
   <g id="patch_54">
    <path d="M 350.611542 339.84 
L 356.008061 339.84 
L 356.008061 338.256 
L 350.611542 338.256 
z
" clip-path="url(#p0987012cb7)" style="fill: #0173b2; fill-opacity: 0.75; stroke: #ffffff; stroke-width: 0.539652; stroke-linejoin: miter"/>
   </g>
   <g id="patch_55">
    <path d="M 356.008061 339.84 
L 361.404579 339.84 
L 361.404579 338.784 
L 356.008061 338.784 
z
" clip-path="url(#p0987012cb7)" style="fill: #0173b2; fill-opacity: 0.75; stroke: #ffffff; stroke-width: 0.539652; stroke-linejoin: miter"/>
   </g>
   <g id="patch_56">
    <path d="M 361.404579 339.84 
L 366.801097 339.84 
L 366.801097 339.312 
L 361.404579 339.312 
z
" clip-path="url(#p0987012cb7)" style="fill: #0173b2; fill-opacity: 0.75; stroke: #ffffff; stroke-width: 0.539652; stroke-linejoin: miter"/>
   </g>
   <g id="patch_57">
    <path d="M 366.801097 339.84 
L 372.197616 339.84 
L 372.197616 338.784 
L 366.801097 338.784 
z
" clip-path="url(#p0987012cb7)" style="fill: #0173b2; fill-opacity: 0.75; stroke: #ffffff; stroke-width: 0.539652; stroke-linejoin: miter"/>
   </g>
   <g id="patch_58">
    <path d="M 372.197616 339.84 
L 377.594134 339.84 
L 377.594134 338.256 
L 372.197616 338.256 
z
" clip-path="url(#p0987012cb7)" style="fill: #0173b2; fill-opacity: 0.75; stroke: #ffffff; stroke-width: 0.539652; stroke-linejoin: miter"/>
   </g>
   <g id="patch_59">
    <path d="M 377.594134 339.84 
L 382.990653 339.84 
L 382.990653 339.312 
L 377.594134 339.312 
z
" clip-path="url(#p0987012cb7)" style="fill: #0173b2; fill-opacity: 0.75; stroke: #ffffff; stroke-width: 0.539652; stroke-linejoin: miter"/>
   </g>
   <g id="patch_60">
    <path d="M 382.990653 339.84 
L 388.387171 339.84 
L 388.387171 339.312 
L 382.990653 339.312 
z
" clip-path="url(#p0987012cb7)" style="fill: #0173b2; fill-opacity: 0.75; stroke: #ffffff; stroke-width: 0.539652; stroke-linejoin: miter"/>
   </g>
   <g id="patch_61">
    <path d="M 388.387171 339.84 
L 393.783689 339.84 
L 393.783689 339.84 
L 388.387171 339.84 
z
" clip-path="url(#p0987012cb7)" style="fill: #0173b2; fill-opacity: 0.75; stroke: #ffffff; stroke-width: 0.539652; stroke-linejoin: miter"/>
   </g>
   <g id="patch_62">
    <path d="M 393.783689 339.84 
L 399.180208 339.84 
L 399.180208 339.312 
L 393.783689 339.312 
z
" clip-path="url(#p0987012cb7)" style="fill: #0173b2; fill-opacity: 0.75; stroke: #ffffff; stroke-width: 0.539652; stroke-linejoin: miter"/>
   </g>
   <g id="patch_63">
    <path d="M 399.180208 339.84 
L 404.576726 339.84 
L 404.576726 339.84 
L 399.180208 339.84 
z
" clip-path="url(#p0987012cb7)" style="fill: #0173b2; fill-opacity: 0.75; stroke: #ffffff; stroke-width: 0.539652; stroke-linejoin: miter"/>
   </g>
   <g id="patch_64">
    <path d="M 404.576726 339.84 
L 409.973244 339.84 
L 409.973244 337.728 
L 404.576726 337.728 
z
" clip-path="url(#p0987012cb7)" style="fill: #0173b2; fill-opacity: 0.75; stroke: #ffffff; stroke-width: 0.539652; stroke-linejoin: miter"/>
   </g>
   <g id="patch_65">
    <path d="M 409.973244 339.84 
L 415.369763 339.84 
L 415.369763 339.84 
L 409.973244 339.84 
z
" clip-path="url(#p0987012cb7)" style="fill: #0173b2; fill-opacity: 0.75; stroke: #ffffff; stroke-width: 0.539652; stroke-linejoin: miter"/>
   </g>
   <g id="patch_66">
    <path d="M 415.369763 339.84 
L 420.766281 339.84 
L 420.766281 339.84 
L 415.369763 339.84 
z
" clip-path="url(#p0987012cb7)" style="fill: #0173b2; fill-opacity: 0.75; stroke: #ffffff; stroke-width: 0.539652; stroke-linejoin: miter"/>
   </g>
   <g id="patch_67">
    <path d="M 420.766281 339.84 
L 426.1628 339.84 
L 426.1628 338.256 
L 420.766281 338.256 
z
" clip-path="url(#p0987012cb7)" style="fill: #0173b2; fill-opacity: 0.75; stroke: #ffffff; stroke-width: 0.539652; stroke-linejoin: miter"/>
   </g>
   <g id="patch_68">
    <path d="M 426.1628 339.84 
L 431.559318 339.84 
L 431.559318 339.312 
L 426.1628 339.312 
z
" clip-path="url(#p0987012cb7)" style="fill: #0173b2; fill-opacity: 0.75; stroke: #ffffff; stroke-width: 0.539652; stroke-linejoin: miter"/>
   </g>
   <g id="patch_69">
    <path d="M 431.559318 339.84 
L 436.955836 339.84 
L 436.955836 339.84 
L 431.559318 339.84 
z
" clip-path="url(#p0987012cb7)" style="fill: #0173b2; fill-opacity: 0.75; stroke: #ffffff; stroke-width: 0.539652; stroke-linejoin: miter"/>
   </g>
   <g id="patch_70">
    <path d="M 436.955836 339.84 
L 442.352355 339.84 
L 442.352355 339.312 
L 436.955836 339.312 
z
" clip-path="url(#p0987012cb7)" style="fill: #0173b2; fill-opacity: 0.75; stroke: #ffffff; stroke-width: 0.539652; stroke-linejoin: miter"/>
   </g>
   <g id="patch_71">
    <path d="M 442.352355 339.84 
L 447.748873 339.84 
L 447.748873 339.312 
L 442.352355 339.312 
z
" clip-path="url(#p0987012cb7)" style="fill: #0173b2; fill-opacity: 0.75; stroke: #ffffff; stroke-width: 0.539652; stroke-linejoin: miter"/>
   </g>
   <g id="patch_72">
    <path d="M 447.748873 339.84 
L 453.145391 339.84 
L 453.145391 339.312 
L 447.748873 339.312 
z
" clip-path="url(#p0987012cb7)" style="fill: #0173b2; fill-opacity: 0.75; stroke: #ffffff; stroke-width: 0.539652; stroke-linejoin: miter"/>
   </g>
   <g id="patch_73">
    <path d="M 453.145391 339.84 
L 458.54191 339.84 
L 458.54191 339.84 
L 453.145391 339.84 
z
" clip-path="url(#p0987012cb7)" style="fill: #0173b2; fill-opacity: 0.75; stroke: #ffffff; stroke-width: 0.539652; stroke-linejoin: miter"/>
   </g>
   <g id="patch_74">
    <path d="M 458.54191 339.84 
L 463.938428 339.84 
L 463.938428 339.84 
L 458.54191 339.84 
z
" clip-path="url(#p0987012cb7)" style="fill: #0173b2; fill-opacity: 0.75; stroke: #ffffff; stroke-width: 0.539652; stroke-linejoin: miter"/>
   </g>
   <g id="patch_75">
    <path d="M 463.938428 339.84 
L 469.334947 339.84 
L 469.334947 339.312 
L 463.938428 339.312 
z
" clip-path="url(#p0987012cb7)" style="fill: #0173b2; fill-opacity: 0.75; stroke: #ffffff; stroke-width: 0.539652; stroke-linejoin: miter"/>
   </g>
   <g id="patch_76">
    <path d="M 469.334947 339.84 
L 474.731465 339.84 
L 474.731465 339.84 
L 469.334947 339.84 
z
" clip-path="url(#p0987012cb7)" style="fill: #0173b2; fill-opacity: 0.75; stroke: #ffffff; stroke-width: 0.539652; stroke-linejoin: miter"/>
   </g>
   <g id="patch_77">
    <path d="M 474.731465 339.84 
L 480.127983 339.84 
L 480.127983 339.84 
L 474.731465 339.84 
z
" clip-path="url(#p0987012cb7)" style="fill: #0173b2; fill-opacity: 0.75; stroke: #ffffff; stroke-width: 0.539652; stroke-linejoin: miter"/>
   </g>
   <g id="patch_78">
    <path d="M 480.127983 339.84 
L 485.524502 339.84 
L 485.524502 339.84 
L 480.127983 339.84 
z
" clip-path="url(#p0987012cb7)" style="fill: #0173b2; fill-opacity: 0.75; stroke: #ffffff; stroke-width: 0.539652; stroke-linejoin: miter"/>
   </g>
   <g id="patch_79">
    <path d="M 485.524502 339.84 
L 490.92102 339.84 
L 490.92102 339.84 
L 485.524502 339.84 
z
" clip-path="url(#p0987012cb7)" style="fill: #0173b2; fill-opacity: 0.75; stroke: #ffffff; stroke-width: 0.539652; stroke-linejoin: miter"/>
   </g>
   <g id="patch_80">
    <path d="M 490.92102 339.84 
L 496.317538 339.84 
L 496.317538 339.84 
L 490.92102 339.84 
z
" clip-path="url(#p0987012cb7)" style="fill: #0173b2; fill-opacity: 0.75; stroke: #ffffff; stroke-width: 0.539652; stroke-linejoin: miter"/>
   </g>
   <g id="patch_81">
    <path d="M 496.317538 339.84 
L 501.714057 339.84 
L 501.714057 339.84 
L 496.317538 339.84 
z
" clip-path="url(#p0987012cb7)" style="fill: #0173b2; fill-opacity: 0.75; stroke: #ffffff; stroke-width: 0.539652; stroke-linejoin: miter"/>
   </g>
   <g id="patch_82">
    <path d="M 501.714057 339.84 
L 507.110575 339.84 
L 507.110575 339.84 
L 501.714057 339.84 
z
" clip-path="url(#p0987012cb7)" style="fill: #0173b2; fill-opacity: 0.75; stroke: #ffffff; stroke-width: 0.539652; stroke-linejoin: miter"/>
   </g>
   <g id="patch_83">
    <path d="M 507.110575 339.84 
L 512.507094 339.84 
L 512.507094 339.84 
L 507.110575 339.84 
z
" clip-path="url(#p0987012cb7)" style="fill: #0173b2; fill-opacity: 0.75; stroke: #ffffff; stroke-width: 0.539652; stroke-linejoin: miter"/>
   </g>
   <g id="patch_84">
    <path d="M 512.507094 339.84 
L 517.903612 339.84 
L 517.903612 339.84 
L 512.507094 339.84 
z
" clip-path="url(#p0987012cb7)" style="fill: #0173b2; fill-opacity: 0.75; stroke: #ffffff; stroke-width: 0.539652; stroke-linejoin: miter"/>
   </g>
   <g id="patch_85">
    <path d="M 517.903612 339.84 
L 523.30013 339.84 
L 523.30013 339.84 
L 517.903612 339.84 
z
" clip-path="url(#p0987012cb7)" style="fill: #0173b2; fill-opacity: 0.75; stroke: #ffffff; stroke-width: 0.539652; stroke-linejoin: miter"/>
   </g>
   <g id="patch_86">
    <path d="M 523.30013 339.84 
L 528.696649 339.84 
L 528.696649 339.84 
L 523.30013 339.84 
z
" clip-path="url(#p0987012cb7)" style="fill: #0173b2; fill-opacity: 0.75; stroke: #ffffff; stroke-width: 0.539652; stroke-linejoin: miter"/>
   </g>
   <g id="patch_87">
    <path d="M 528.696649 339.84 
L 534.093167 339.84 
L 534.093167 339.84 
L 528.696649 339.84 
z
" clip-path="url(#p0987012cb7)" style="fill: #0173b2; fill-opacity: 0.75; stroke: #ffffff; stroke-width: 0.539652; stroke-linejoin: miter"/>
   </g>
   <g id="patch_88">
    <path d="M 534.093167 339.84 
L 539.489685 339.84 
L 539.489685 339.84 
L 534.093167 339.84 
z
" clip-path="url(#p0987012cb7)" style="fill: #0173b2; fill-opacity: 0.75; stroke: #ffffff; stroke-width: 0.539652; stroke-linejoin: miter"/>
   </g>
   <g id="patch_89">
    <path d="M 539.489685 339.84 
L 544.886204 339.84 
L 544.886204 339.84 
L 539.489685 339.84 
z
" clip-path="url(#p0987012cb7)" style="fill: #0173b2; fill-opacity: 0.75; stroke: #ffffff; stroke-width: 0.539652; stroke-linejoin: miter"/>
   </g>
   <g id="patch_90">
    <path d="M 544.886204 339.84 
L 550.282722 339.84 
L 550.282722 339.84 
L 544.886204 339.84 
z
" clip-path="url(#p0987012cb7)" style="fill: #0173b2; fill-opacity: 0.75; stroke: #ffffff; stroke-width: 0.539652; stroke-linejoin: miter"/>
   </g>
   <g id="patch_91">
    <path d="M 550.282722 339.84 
L 555.679241 339.84 
L 555.679241 339.84 
L 550.282722 339.84 
z
" clip-path="url(#p0987012cb7)" style="fill: #0173b2; fill-opacity: 0.75; stroke: #ffffff; stroke-width: 0.539652; stroke-linejoin: miter"/>
   </g>
   <g id="patch_92">
    <path d="M 555.679241 339.84 
L 561.075759 339.84 
L 561.075759 339.84 
L 555.679241 339.84 
z
" clip-path="url(#p0987012cb7)" style="fill: #0173b2; fill-opacity: 0.75; stroke: #ffffff; stroke-width: 0.539652; stroke-linejoin: miter"/>
   </g>
   <g id="patch_93">
    <path d="M 561.075759 339.84 
L 566.472277 339.84 
L 566.472277 339.84 
L 561.075759 339.84 
z
" clip-path="url(#p0987012cb7)" style="fill: #0173b2; fill-opacity: 0.75; stroke: #ffffff; stroke-width: 0.539652; stroke-linejoin: miter"/>
   </g>
   <g id="patch_94">
    <path d="M 566.472277 339.84 
L 571.868796 339.84 
L 571.868796 339.84 
L 566.472277 339.84 
z
" clip-path="url(#p0987012cb7)" style="fill: #0173b2; fill-opacity: 0.75; stroke: #ffffff; stroke-width: 0.539652; stroke-linejoin: miter"/>
   </g>
   <g id="patch_95">
    <path d="M 571.868796 339.84 
L 577.265314 339.84 
L 577.265314 339.84 
L 571.868796 339.84 
z
" clip-path="url(#p0987012cb7)" style="fill: #0173b2; fill-opacity: 0.75; stroke: #ffffff; stroke-width: 0.539652; stroke-linejoin: miter"/>
   </g>
   <g id="patch_96">
    <path d="M 577.265314 339.84 
L 582.661832 339.84 
L 582.661832 339.312 
L 577.265314 339.312 
z
" clip-path="url(#p0987012cb7)" style="fill: #0173b2; fill-opacity: 0.75; stroke: #ffffff; stroke-width: 0.539652; stroke-linejoin: miter"/>
   </g>
   <g id="patch_97">
    <path d="M 50.025469 339.84 
L 50.025469 7.2 
" style="fill: none; stroke: #ffffff; stroke-width: 1.25; stroke-linejoin: miter; stroke-linecap: square"/>
   </g>
   <g id="patch_98">
    <path d="M 608.025469 339.84 
L 608.025469 7.2 
" style="fill: none; stroke: #ffffff; stroke-width: 1.25; stroke-linejoin: miter; stroke-linecap: square"/>
   </g>
   <g id="patch_99">
    <path d="M 50.025469 339.84 
L 608.025469 339.84 
" style="fill: none; stroke: #ffffff; stroke-width: 1.25; stroke-linejoin: miter; stroke-linecap: square"/>
   </g>
   <g id="patch_100">
    <path d="M 50.025469 7.2 
L 608.025469 7.2 
" style="fill: none; stroke: #ffffff; stroke-width: 1.25; stroke-linejoin: miter; stroke-linecap: square"/>
   </g>
  </g>
 </g>
 <defs>
  <clipPath id="p0987012cb7">
   <rect x="50.025469" y="7.2" width="558" height="332.64"/>
  </clipPath>
 </defs>
</svg>