<?xml version="1.0" encoding="utf-8" standalone="no"?>
<!DOCTYPE svg PUBLIC "-//W3C//DTD SVG 1.1//EN"
  "http://www.w3.org/Graphics/SVG/1.1/DTD/svg11.dtd">
<svg xmlns:xlink="http://www.w3.org/1999/xlink" width="607.612875pt" height="363.387875pt" viewBox="0 0 607.612875 363.387875" xmlns="http://www.w3.org/2000/svg" version="1.1">
 <metadata>
  <rdf:RDF xmlns:dc="http://purl.org/dc/elements/1.1/" xmlns:cc="http://creativecommons.org/ns#" xmlns:rdf="http://www.w3.org/1999/02/22-rdf-syntax-ns#">
   <cc:Work>
    <dc:type rdf:resource="http://purl.org/dc/dcmitype/StillImage"/>
    <dc:date>2023-05-08T00:33:23.379463</dc:date>
    <dc:format>image/svg+xml</dc:format>
    <dc:creator>
     <cc:Agent>
      <dc:title>Matplotlib v3.7.1, https://matplotlib.org/</dc:title>
     </cc:Agent>
    </dc:creator>
   </cc:Work>
  </rdf:RDF>
 </metadata>
 <defs>
  <style type="text/css">*{stroke-linejoin: round; stroke-linecap: butt}</style>
 </defs>
 <g id="figure_1">
  <g id="patch_1">
   <path d="M 0 363.387875 
L 607.612875 363.387875 
L 607.612875 0 
L 0 0 
z
" style="fill: #ffffff"/>
  </g>
  <g id="axes_1">
   <g id="patch_2">
    <path d="M 42.412875 339.84 
L 600.412875 339.84 
L 600.412875 7.2 
L 42.412875 7.2 
z
" style="fill: #eaeaf2"/>
   </g>
   <g id="matplotlib.axis_1">
    <g id="xtick_1">
     <g id="line2d_1">
      <path d="M 64.1315 339.84 
L 64.1315 7.2 
" clip-path="url(#p1ede00e385)" style="fill: none; stroke: #ffffff; stroke-width: 0.8; stroke-linecap: round"/>
     </g>
     <g id="text_1">
      <!-- −400 -->
      <g style="fill: #262626" transform="translate(54.221188 354.438875) scale(0.088 -0.088)">
       <defs>
        <path id="ArialMT-2212" d="M 3381 1997 
L 356 1997 
L 356 2522 
L 3381 2522 
L 3381 1997 
z
" transform="scale(0.015625)"/>
        <path id="ArialMT-34" d="M 2069 0 
L 2069 1097 
L 81 1097 
L 81 1613 
L 2172 4581 
L 2631 4581 
L 2631 1613 
L 3250 1613 
L 3250 1097 
L 2631 1097 
L 2631 0 
L 2069 0 
z
M 2069 1613 
L 2069 3678 
L 634 1613 
L 2069 1613 
z
" transform="scale(0.015625)"/>
        <path id="ArialMT-30" d="M 266 2259 
Q 266 3072 433 3567 
Q 600 4063 929 4331 
Q 1259 4600 1759 4600 
Q 2128 4600 2406 4451 
Q 2684 4303 2865 4023 
Q 3047 3744 3150 3342 
Q 3253 2941 3253 2259 
Q 3253 1453 3087 958 
Q 2922 463 2592 192 
Q 2263 -78 1759 -78 
Q 1097 -78 719 397 
Q 266 969 266 2259 
z
M 844 2259 
Q 844 1131 1108 757 
Q 1372 384 1759 384 
Q 2147 384 2411 759 
Q 2675 1134 2675 2259 
Q 2675 3391 2411 3762 
Q 2147 4134 1753 4134 
Q 1366 4134 1134 3806 
Q 844 3388 844 2259 
z
" transform="scale(0.015625)"/>
       </defs>
       <use xlink:href="#ArialMT-2212"/>
       <use xlink:href="#ArialMT-34" x="58.398438"/>
       <use xlink:href="#ArialMT-30" x="114.013672"/>
       <use xlink:href="#ArialMT-30" x="169.628906"/>
      </g>
     </g>
    </g>
    <g id="xtick_2">
     <g id="line2d_2">
      <path d="M 166.040913 339.84 
L 166.040913 7.2 
" clip-path="url(#p1ede00e385)" style="fill: none; stroke: #ffffff; stroke-width: 0.8; stroke-linecap: round"/>
     </g>
     <g id="text_2">
      <!-- −200 -->
      <g style="fill: #262626" transform="translate(156.130601 354.438875) scale(0.088 -0.088)">
       <defs>
        <path id="ArialMT-32" d="M 3222 541 
L 3222 0 
L 194 0 
Q 188 203 259 391 
Q 375 700 629 1000 
Q 884 1300 1366 1694 
Q 2113 2306 2375 2664 
Q 2638 3022 2638 3341 
Q 2638 3675 2398 3904 
Q 2159 4134 1775 4134 
Q 1369 4134 1125 3890 
Q 881 3647 878 3216 
L 300 3275 
Q 359 3922 746 4261 
Q 1134 4600 1788 4600 
Q 2447 4600 2831 4234 
Q 3216 3869 3216 3328 
Q 3216 3053 3103 2787 
Q 2991 2522 2730 2228 
Q 2469 1934 1863 1422 
Q 1356 997 1212 845 
Q 1069 694 975 541 
L 3222 541 
z
" transform="scale(0.015625)"/>
       </defs>
       <use xlink:href="#ArialMT-2212"/>
       <use xlink:href="#ArialMT-32" x="58.398438"/>
       <use xlink:href="#ArialMT-30" x="114.013672"/>
       <use xlink:href="#ArialMT-30" x="169.628906"/>
      </g>
     </g>
    </g>
    <g id="xtick_3">
     <g id="line2d_3">
      <path d="M 267.950326 339.84 
L 267.950326 7.2 
" clip-path="url(#p1ede00e385)" style="fill: none; stroke: #ffffff; stroke-width: 0.8; stroke-linecap: round"/>
     </g>
     <g id="text_3">
      <!-- 0 -->
      <g style="fill: #262626" transform="translate(265.503513 354.438875) scale(0.088 -0.088)">
       <use xlink:href="#ArialMT-30"/>
      </g>
     </g>
    </g>
    <g id="xtick_4">
     <g id="line2d_4">
      <path d="M 369.859739 339.84 
L 369.859739 7.2 
" clip-path="url(#p1ede00e385)" style="fill: none; stroke: #ffffff; stroke-width: 0.8; stroke-linecap: round"/>
     </g>
     <g id="text_4">
      <!-- 200 -->
      <g style="fill: #262626" transform="translate(362.519301 354.438875) scale(0.088 -0.088)">
       <use xlink:href="#ArialMT-32"/>
       <use xlink:href="#ArialMT-30" x="55.615234"/>
       <use xlink:href="#ArialMT-30" x="111.230469"/>
      </g>
     </g>
    </g>
    <g id="xtick_5">
     <g id="line2d_5">
      <path d="M 471.769151 339.84 
L 471.769151 7.2 
" clip-path="url(#p1ede00e385)" style="fill: none; stroke: #ffffff; stroke-width: 0.8; stroke-linecap: round"/>
     </g>
     <g id="text_5">
      <!-- 400 -->
      <g style="fill: #262626" transform="translate(464.428714 354.438875) scale(0.088 -0.088)">
       <use xlink:href="#ArialMT-34"/>
       <use xlink:href="#ArialMT-30" x="55.615234"/>
       <use xlink:href="#ArialMT-30" x="111.230469"/>
      </g>
     </g>
    </g>
    <g id="xtick_6">
     <g id="line2d_6">
      <path d="M 573.678564 339.84 
L 573.678564 7.2 
" clip-path="url(#p1ede00e385)" style="fill: none; stroke: #ffffff; stroke-width: 0.8; stroke-linecap: round"/>
     </g>
     <g id="text_6">
      <!-- 600 -->
      <g style="fill: #262626" transform="translate(566.338127 354.438875) scale(0.088 -0.088)">
       <defs>
        <path id="ArialMT-36" d="M 3184 3459 
L 2625 3416 
Q 2550 3747 2413 3897 
Q 2184 4138 1850 4138 
Q 1581 4138 1378 3988 
Q 1113 3794 959 3422 
Q 806 3050 800 2363 
Q 1003 2672 1297 2822 
Q 1591 2972 1913 2972 
Q 2475 2972 2870 2558 
Q 3266 2144 3266 1488 
Q 3266 1056 3080 686 
Q 2894 316 2569 119 
Q 2244 -78 1831 -78 
Q 1128 -78 684 439 
Q 241 956 241 2144 
Q 241 3472 731 4075 
Q 1159 4600 1884 4600 
Q 2425 4600 2770 4297 
Q 3116 3994 3184 3459 
z
M 888 1484 
Q 888 1194 1011 928 
Q 1134 663 1356 523 
Q 1578 384 1822 384 
Q 2178 384 2434 671 
Q 2691 959 2691 1453 
Q 2691 1928 2437 2201 
Q 2184 2475 1800 2475 
Q 1419 2475 1153 2201 
Q 888 1928 888 1484 
z
" transform="scale(0.015625)"/>
       </defs>
       <use xlink:href="#ArialMT-36"/>
       <use xlink:href="#ArialMT-30" x="55.615234"/>
       <use xlink:href="#ArialMT-30" x="111.230469"/>
      </g>
     </g>
    </g>
   </g>
   <g id="matplotlib.axis_2">
    <g id="ytick_1">
     <g id="line2d_7">
      <path d="M 42.412875 324.72 
L 600.412875 324.72 
" clip-path="url(#p1ede00e385)" style="fill: none; stroke: #ffffff; stroke-width: 0.8; stroke-linecap: round"/>
     </g>
     <g id="text_7">
      <!-- 0.0000 -->
      <g style="fill: #262626" transform="translate(7.2 327.869438) scale(0.088 -0.088)">
       <defs>
        <path id="ArialMT-2e" d="M 581 0 
L 581 641 
L 1222 641 
L 1222 0 
L 581 0 
z
" transform="scale(0.015625)"/>
       </defs>
       <use xlink:href="#ArialMT-30"/>
       <use xlink:href="#ArialMT-2e" x="55.615234"/>
       <use xlink:href="#ArialMT-30" x="83.398438"/>
       <use xlink:href="#ArialMT-30" x="139.013672"/>
       <use xlink:href="#ArialMT-30" x="194.628906"/>
       <use xlink:href="#ArialMT-30" x="250.244141"/>
      </g>
     </g>
    </g>
    <g id="ytick_2">
     <g id="line2d_8">
      <path d="M 42.412875 281.884586 
L 600.412875 281.884586 
" clip-path="url(#p1ede00e385)" style="fill: none; stroke: #ffffff; stroke-width: 0.8; stroke-linecap: round"/>
     </g>
     <g id="text_8">
      <!-- 0.0005 -->
      <g style="fill: #262626" transform="translate(7.2 285.034024) scale(0.088 -0.088)">
       <defs>
        <path id="ArialMT-35" d="M 266 1200 
L 856 1250 
Q 922 819 1161 601 
Q 1400 384 1738 384 
Q 2144 384 2425 690 
Q 2706 997 2706 1503 
Q 2706 1984 2436 2262 
Q 2166 2541 1728 2541 
Q 1456 2541 1237 2417 
Q 1019 2294 894 2097 
L 366 2166 
L 809 4519 
L 3088 4519 
L 3088 3981 
L 1259 3981 
L 1013 2750 
Q 1425 3038 1878 3038 
Q 2478 3038 2890 2622 
Q 3303 2206 3303 1553 
Q 3303 931 2941 478 
Q 2500 -78 1738 -78 
Q 1113 -78 717 272 
Q 322 622 266 1200 
z
" transform="scale(0.015625)"/>
       </defs>
       <use xlink:href="#ArialMT-30"/>
       <use xlink:href="#ArialMT-2e" x="55.615234"/>
       <use xlink:href="#ArialMT-30" x="83.398438"/>
       <use xlink:href="#ArialMT-30" x="139.013672"/>
       <use xlink:href="#ArialMT-30" x="194.628906"/>
       <use xlink:href="#ArialMT-35" x="250.244141"/>
      </g>
     </g>
    </g>
    <g id="ytick_3">
     <g id="line2d_9">
      <path d="M 42.412875 239.049172 
L 600.412875 239.049172 
" clip-path="url(#p1ede00e385)" style="fill: none; stroke: #ffffff; stroke-width: 0.8; stroke-linecap: round"/>
     </g>
     <g id="text_9">
      <!-- 0.0010 -->
      <g style="fill: #262626" transform="translate(7.2 242.19861) scale(0.088 -0.088)">
       <defs>
        <path id="ArialMT-31" d="M 2384 0 
L 1822 0 
L 1822 3584 
Q 1619 3391 1289 3197 
Q 959 3003 697 2906 
L 697 3450 
Q 1169 3672 1522 3987 
Q 1875 4303 2022 4600 
L 2384 4600 
L 2384 0 
z
" transform="scale(0.015625)"/>
       </defs>
       <use xlink:href="#ArialMT-30"/>
       <use xlink:href="#ArialMT-2e" x="55.615234"/>
       <use xlink:href="#ArialMT-30" x="83.398438"/>
       <use xlink:href="#ArialMT-30" x="139.013672"/>
       <use xlink:href="#ArialMT-31" x="194.628906"/>
       <use xlink:href="#ArialMT-30" x="250.244141"/>
      </g>
     </g>
    </g>
    <g id="ytick_4">
     <g id="line2d_10">
      <path d="M 42.412875 196.213759 
L 600.412875 196.213759 
" clip-path="url(#p1ede00e385)" style="fill: none; stroke: #ffffff; stroke-width: 0.8; stroke-linecap: round"/>
     </g>
     <g id="text_10">
      <!-- 0.0015 -->
      <g style="fill: #262626" transform="translate(7.2 199.363196) scale(0.088 -0.088)">
       <use xlink:href="#ArialMT-30"/>
       <use xlink:href="#ArialMT-2e" x="55.615234"/>
       <use xlink:href="#ArialMT-30" x="83.398438"/>
       <use xlink:href="#ArialMT-30" x="139.013672"/>
       <use xlink:href="#ArialMT-31" x="194.628906"/>
       <use xlink:href="#ArialMT-35" x="250.244141"/>
      </g>
     </g>
    </g>
    <g id="ytick_5">
     <g id="line2d_11">
      <path d="M 42.412875 153.378345 
L 600.412875 153.378345 
" clip-path="url(#p1ede00e385)" style="fill: none; stroke: #ffffff; stroke-width: 0.8; stroke-linecap: round"/>
     </g>
     <g id="text_11">
      <!-- 0.0020 -->
      <g style="fill: #262626" transform="translate(7.2 156.527782) scale(0.088 -0.088)">
       <use xlink:href="#ArialMT-30"/>
       <use xlink:href="#ArialMT-2e" x="55.615234"/>
       <use xlink:href="#ArialMT-30" x="83.398438"/>
       <use xlink:href="#ArialMT-30" x="139.013672"/>
       <use xlink:href="#ArialMT-32" x="194.628906"/>
       <use xlink:href="#ArialMT-30" x="250.244141"/>
      </g>
     </g>
    </g>
    <g id="ytick_6">
     <g id="line2d_12">
      <path d="M 42.412875 110.542931 
L 600.412875 110.542931 
" clip-path="url(#p1ede00e385)" style="fill: none; stroke: #ffffff; stroke-width: 0.8; stroke-linecap: round"/>
     </g>
     <g id="text_12">
      <!-- 0.0025 -->
      <g style="fill: #262626" transform="translate(7.2 113.692369) scale(0.088 -0.088)">
       <use xlink:href="#ArialMT-30"/>
       <use xlink:href="#ArialMT-2e" x="55.615234"/>
       <use xlink:href="#ArialMT-30" x="83.398438"/>
       <use xlink:href="#ArialMT-30" x="139.013672"/>
       <use xlink:href="#ArialMT-32" x="194.628906"/>
       <use xlink:href="#ArialMT-35" x="250.244141"/>
      </g>
     </g>
    </g>
    <g id="ytick_7">
     <g id="line2d_13">
      <path d="M 42.412875 67.707517 
L 600.412875 67.707517 
" clip-path="url(#p1ede00e385)" style="fill: none; stroke: #ffffff; stroke-width: 0.8; stroke-linecap: round"/>
     </g>
     <g id="text_13">
      <!-- 0.0030 -->
      <g style="fill: #262626" transform="translate(7.2 70.856955) scale(0.088 -0.088)">
       <defs>
        <path id="ArialMT-33" d="M 269 1209 
L 831 1284 
Q 928 806 1161 595 
Q 1394 384 1728 384 
Q 2125 384 2398 659 
Q 2672 934 2672 1341 
Q 2672 1728 2419 1979 
Q 2166 2231 1775 2231 
Q 1616 2231 1378 2169 
L 1441 2663 
Q 1497 2656 1531 2656 
Q 1891 2656 2178 2843 
Q 2466 3031 2466 3422 
Q 2466 3731 2256 3934 
Q 2047 4138 1716 4138 
Q 1388 4138 1169 3931 
Q 950 3725 888 3313 
L 325 3413 
Q 428 3978 793 4289 
Q 1159 4600 1703 4600 
Q 2078 4600 2393 4439 
Q 2709 4278 2876 4000 
Q 3044 3722 3044 3409 
Q 3044 3113 2884 2869 
Q 2725 2625 2413 2481 
Q 2819 2388 3044 2092 
Q 3269 1797 3269 1353 
Q 3269 753 2831 336 
Q 2394 -81 1725 -81 
Q 1122 -81 723 278 
Q 325 638 269 1209 
z
" transform="scale(0.015625)"/>
       </defs>
       <use xlink:href="#ArialMT-30"/>
       <use xlink:href="#ArialMT-2e" x="55.615234"/>
       <use xlink:href="#ArialMT-30" x="83.398438"/>
       <use xlink:href="#ArialMT-30" x="139.013672"/>
       <use xlink:href="#ArialMT-33" x="194.628906"/>
       <use xlink:href="#ArialMT-30" x="250.244141"/>
      </g>
     </g>
    </g>
    <g id="ytick_8">
     <g id="line2d_14">
      <path d="M 42.412875 24.872104 
L 600.412875 24.872104 
" clip-path="url(#p1ede00e385)" style="fill: none; stroke: #ffffff; stroke-width: 0.8; stroke-linecap: round"/>
     </g>
     <g id="text_14">
      <!-- 0.0035 -->
      <g style="fill: #262626" transform="translate(7.2 28.021541) scale(0.088 -0.088)">
       <use xlink:href="#ArialMT-30"/>
       <use xlink:href="#ArialMT-2e" x="55.615234"/>
       <use xlink:href="#ArialMT-30" x="83.398438"/>
       <use xlink:href="#ArialMT-30" x="139.013672"/>
       <use xlink:href="#ArialMT-33" x="194.628906"/>
       <use xlink:href="#ArialMT-35" x="250.244141"/>
      </g>
     </g>
    </g>
   </g>
   <g id="PolyCollection_1">
    <defs>
     <path id="md1fb76fad1" d="M 67.776511 -38.667875 
L 67.776511 -38.894674 
L 68.769217 -38.877177 
L 69.761923 -38.846129 
L 70.754629 -38.807973 
L 71.747335 -38.769487 
L 72.740041 -38.735884 
L 73.732747 -38.709879 
L 74.725453 -38.691813 
L 75.718159 -38.680463 
L 76.710865 -38.673983 
L 77.703571 -38.669797 
L 78.696277 -38.669797 
L 79.688982 -38.672061 
L 80.681688 -38.676277 
L 81.674394 -38.683411 
L 82.6671 -38.694342 
L 83.659806 -38.711338 
L 84.652512 -38.732132 
L 85.645218 -38.758227 
L 86.637924 -38.785824 
L 87.63063 -38.813821 
L 88.623336 -38.840675 
L 89.616042 -38.865489 
L 90.608748 -38.887671 
L 91.601454 -38.908121 
L 92.594159 -38.925157 
L 93.586865 -38.939797 
L 94.579571 -38.948805 
L 95.572277 -38.960011 
L 96.564983 -38.976757 
L 97.557689 -39.007817 
L 98.550395 -39.062052 
L 99.543101 -39.139975 
L 100.535807 -39.24231 
L 101.528513 -39.357806 
L 102.521219 -39.478933 
L 103.513925 -39.590878 
L 104.506631 -39.693544 
L 105.499336 -39.775277 
L 106.492042 -39.847723 
L 107.484748 -39.913706 
L 108.477454 -39.987209 
L 109.47016 -40.08205 
L 110.462866 -40.210669 
L 111.455572 -40.366599 
L 112.448278 -40.548899 
L 113.440984 -40.740163 
L 114.43369 -40.924427 
L 115.426396 -41.097927 
L 116.419102 -41.257404 
L 117.411808 -41.422074 
L 118.404513 -41.596629 
L 119.397219 -41.79464 
L 120.389925 -42.010487 
L 121.382631 -42.232339 
L 122.375337 -42.445223 
L 123.368043 -42.631953 
L 124.360749 -42.807746 
L 125.353455 -42.978504 
L 126.346161 -43.177527 
L 127.338867 -43.410149 
L 128.331573 -43.682832 
L 129.324279 -43.987646 
L 130.316985 -44.294741 
L 131.309691 -44.580687 
L 132.302396 -44.850672 
L 133.295102 -45.082866 
L 134.287808 -45.297398 
L 135.280514 -45.514432 
L 136.27322 -45.760462 
L 137.265926 -46.031579 
L 138.258632 -46.346073 
L 139.251338 -46.702826 
L 140.244044 -47.083608 
L 141.23675 -47.473696 
L 142.229456 -47.859611 
L 143.222162 -48.21833 
L 144.214868 -48.544614 
L 145.207573 -48.828343 
L 146.200279 -49.084209 
L 147.192985 -49.323866 
L 148.185691 -49.591859 
L 149.178397 -49.904487 
L 150.171103 -50.263675 
L 151.163809 -50.693151 
L 152.156515 -51.174425 
L 153.149221 -51.679125 
L 154.141927 -52.183444 
L 155.134633 -52.643459 
L 156.127339 -53.006514 
L 157.120045 -53.270782 
L 158.11275 -53.463048 
L 159.105456 -53.594452 
L 160.098162 -53.707184 
L 161.090868 -53.837149 
L 162.083574 -54.02886 
L 163.07628 -54.268496 
L 164.068986 -54.591458 
L 165.061692 -54.972327 
L 166.054398 -55.423777 
L 167.047104 -55.924924 
L 168.03981 -56.456159 
L 169.032516 -56.985191 
L 170.025222 -57.463619 
L 171.017927 -57.896964 
L 172.010633 -58.30673 
L 173.003339 -58.762717 
L 173.996045 -59.356772 
L 174.988751 -60.280691 
L 175.981457 -61.73904 
L 176.974163 -63.914914 
L 177.966869 -67.004126 
L 178.959575 -71.131364 
L 179.952281 -76.591256 
L 180.944987 -83.530184 
L 181.937693 -91.832867 
L 182.930399 -101.475074 
L 183.923104 -112.138874 
L 184.91581 -123.2109 
L 185.908516 -133.737392 
L 186.901222 -142.54025 
L 187.893928 -148.465373 
L 188.886634 -150.607687 
L 189.87934 -148.53631 
L 190.872046 -142.599941 
L 191.864752 -133.742975 
L 192.857458 -123.381898 
L 193.850164 -113.009596 
L 194.84287 -103.946818 
L 195.835576 -96.994631 
L 196.828282 -92.587995 
L 197.820987 -90.74624 
L 198.813693 -91.264398 
L 199.806399 -93.95154 
L 200.799105 -98.463273 
L 201.791811 -104.643127 
L 202.784517 -112.186182 
L 203.777223 -120.35816 
L 204.769929 -128.453152 
L 205.762635 -135.634424 
L 206.755341 -141.154605 
L 207.748047 -144.555713 
L 208.740753 -145.707139 
L 209.733459 -144.95733 
L 210.726164 -142.960376 
L 211.71887 -140.461329 
L 212.711576 -138.262183 
L 213.704282 -136.869154 
L 214.696988 -136.608998 
L 215.689694 -137.49305 
L 216.6824 -139.479679 
L 217.675106 -142.307053 
L 218.667812 -145.817315 
L 219.660518 -149.833476 
L 220.653224 -154.198324 
L 221.64593 -158.784485 
L 222.638636 -163.362393 
L 223.631341 -167.770991 
L 224.624047 -171.806435 
L 225.616753 -175.335762 
L 226.609459 -178.399087 
L 227.602165 -181.260651 
L 228.594871 -184.133345 
L 229.587577 -187.469309 
L 230.580283 -191.608402 
L 231.572989 -196.758818 
L 232.565695 -202.806578 
L 233.558401 -209.546971 
L 234.551107 -216.510489 
L 235.543813 -223.302462 
L 236.536518 -229.470193 
L 237.529224 -234.6571 
L 238.52193 -238.789334 
L 239.514636 -241.772217 
L 240.507342 -243.687977 
L 241.500048 -244.806174 
L 242.492754 -245.404881 
L 243.48546 -245.884944 
L 244.478166 -246.739021 
L 245.470872 -248.269578 
L 246.463578 -251.555891 
L 247.456284 -256.19785 
L 248.44899 -262.756718 
L 249.441695 -271.3362 
L 250.434401 -281.482953 
L 251.427107 -292.340506 
L 252.419813 -302.566523 
L 253.412519 -310.608861 
L 254.405225 -314.735719 
L 255.397931 -313.907695 
L 256.390637 -307.690175 
L 257.383343 -296.883803 
L 258.376049 -283.251269 
L 259.368755 -268.618565 
L 260.361461 -255.03693 
L 261.354167 -243.822002 
L 262.346873 -235.647083 
L 263.339578 -230.578088 
L 264.332284 -228.090475 
L 265.32499 -227.44753 
L 266.317696 -227.876796 
L 267.310402 -228.254292 
L 268.303108 -228.753107 
L 269.295814 -228.401227 
L 270.28852 -227.22851 
L 271.281226 -225.537416 
L 272.273932 -223.620086 
L 273.266638 -221.872474 
L 274.259344 -220.425679 
L 275.25205 -219.55583 
L 276.244755 -219.353262 
L 277.237461 -219.884344 
L 278.230167 -221.382791 
L 279.222873 -224.13448 
L 280.215579 -228.789067 
L 281.208285 -235.353569 
L 282.200991 -243.729193 
L 283.193697 -253.343452 
L 284.186403 -263.387575 
L 285.179109 -272.980855 
L 286.171815 -281.088097 
L 287.164521 -287.282286 
L 288.157227 -291.318087 
L 289.149932 -293.449944 
L 290.142638 -294.113206 
L 291.135344 -293.987413 
L 292.12805 -293.475378 
L 293.120756 -293.223032 
L 294.113462 -293.744679 
L 295.106168 -295.777821 
L 296.098874 -299.713716 
L 297.09158 -305.862818 
L 298.084286 -313.929173 
L 299.076992 -322.854786 
L 300.069698 -331.14078 
L 301.062404 -337.789024 
L 302.055109 -341.067875 
L 303.047815 -341.017213 
L 304.040521 -338.365294 
L 305.033227 -334.588035 
L 306.025933 -331.289384 
L 307.018639 -329.7623 
L 308.011345 -330.177337 
L 309.004051 -331.852416 
L 309.996757 -333.364986 
L 310.989463 -333.399703 
L 311.982169 -331.0512 
L 312.974875 -326.666696 
L 313.967581 -320.974641 
L 314.960286 -315.160623 
L 315.952992 -310.0876 
L 316.945698 -306.19463 
L 317.938404 -303.287842 
L 318.93111 -300.845406 
L 319.923816 -298.252329 
L 320.916522 -295.063123 
L 321.909228 -290.859656 
L 322.901934 -286.489314 
L 323.89464 -281.605592 
L 324.887346 -276.481225 
L 325.880052 -271.305477 
L 326.872758 -266.138756 
L 327.865464 -261.03059 
L 328.858169 -255.961479 
L 329.850875 -251.01955 
L 330.843581 -246.288754 
L 331.836287 -241.808077 
L 332.828993 -237.727666 
L 333.821699 -234.098184 
L 334.814405 -231.163119 
L 335.807111 -228.999501 
L 336.799817 -227.669881 
L 337.792523 -227.115356 
L 338.785229 -227.154828 
L 339.777935 -227.633378 
L 340.770641 -228.255324 
L 341.763346 -229.158136 
L 342.756052 -230.650549 
L 343.748758 -233.074779 
L 344.741464 -236.860318 
L 345.73417 -242.600456 
L 346.726876 -250.532859 
L 347.719582 -260.485379 
L 348.712288 -271.900632 
L 349.704994 -283.792287 
L 350.6977 -294.86413 
L 351.690406 -303.777414 
L 352.683112 -309.679469 
L 353.675818 -312.155113 
L 354.668523 -311.538815 
L 355.661229 -308.528723 
L 356.653935 -304.083929 
L 357.646641 -299.079715 
L 358.639347 -294.043473 
L 359.632053 -289.134187 
L 360.624759 -284.412787 
L 361.617465 -279.917815 
L 362.610171 -275.554026 
L 363.602877 -271.587402 
L 364.595583 -268.364627 
L 365.588289 -266.050359 
L 366.580995 -264.497231 
L 367.5737 -263.292746 
L 368.566406 -261.811657 
L 369.559112 -259.106606 
L 370.551818 -254.392831 
L 371.544524 -247.254081 
L 372.53723 -237.840814 
L 373.529936 -226.779062 
L 374.522642 -215.134927 
L 375.515348 -203.886331 
L 376.508054 -193.892877 
L 377.50076 -185.582712 
L 378.493466 -178.821271 
L 379.486172 -173.395863 
L 380.478877 -169.053258 
L 381.471583 -165.524538 
L 382.464289 -162.727047 
L 383.456995 -160.485827 
L 384.449701 -158.584869 
L 385.442407 -156.725825 
L 386.435113 -154.460563 
L 387.427819 -151.445308 
L 388.420525 -147.575807 
L 389.413231 -142.85136 
L 390.405937 -137.511297 
L 391.398643 -131.942356 
L 392.391349 -126.490012 
L 393.384055 -121.473734 
L 394.37676 -117.068982 
L 395.369466 -113.384111 
L 396.362172 -110.462962 
L 397.354878 -108.20462 
L 398.347584 -106.489877 
L 399.34029 -105.211874 
L 400.332996 -104.116386 
L 401.325702 -102.98829 
L 402.318408 -101.685081 
L 403.311114 -100.172051 
L 404.30382 -98.522884 
L 405.296526 -96.828731 
L 406.289232 -95.203476 
L 407.281937 -93.761297 
L 408.274643 -92.488197 
L 409.267349 -91.384618 
L 410.260055 -90.406196 
L 411.252761 -89.515551 
L 412.245467 -88.745608 
L 413.238173 -88.084258 
L 414.230879 -87.535419 
L 415.223585 -87.077007 
L 416.216291 -86.648065 
L 417.208997 -86.145978 
L 418.201703 -85.473775 
L 419.194409 -84.555572 
L 420.187114 -83.369824 
L 421.17982 -81.903614 
L 422.172526 -80.185137 
L 423.165232 -78.278195 
L 424.157938 -76.246086 
L 425.150644 -74.175609 
L 426.14335 -72.120505 
L 427.136056 -70.175129 
L 428.128762 -68.381546 
L 429.121468 -66.783038 
L 430.114174 -65.412733 
L 431.10688 -64.279723 
L 432.099586 -63.356721 
L 433.092291 -62.584117 
L 434.084997 -61.918493 
L 435.077703 -61.259148 
L 436.070409 -60.537921 
L 437.063115 -59.731503 
L 438.055821 -58.814102 
L 439.048527 -57.842529 
L 440.041233 -56.868726 
L 441.033939 -55.943451 
L 442.026645 -55.136615 
L 443.019351 -54.461892 
L 444.012057 -53.887625 
L 445.004763 -53.382813 
L 445.997468 -52.871959 
L 446.990174 -52.334026 
L 447.98288 -51.737977 
L 448.975586 -51.106142 
L 449.968292 -50.475777 
L 450.960998 -49.903034 
L 451.953704 -49.414184 
L 452.94641 -49.03837 
L 453.939116 -48.751113 
L 454.931822 -48.534265 
L 455.924528 -48.357853 
L 456.917234 -48.16228 
L 457.90994 -47.906034 
L 458.902646 -47.561395 
L 459.895351 -47.094189 
L 460.888057 -46.512903 
L 461.880763 -45.850363 
L 462.873469 -45.144165 
L 463.866175 -44.443399 
L 464.858881 -43.790934 
L 465.851587 -43.202452 
L 466.844293 -42.706372 
L 467.836999 -42.271026 
L 468.829705 -41.904607 
L 469.822411 -41.597731 
L 470.815117 -41.356792 
L 471.807823 -41.180538 
L 472.800528 -41.083915 
L 473.793234 -41.052798 
L 474.78594 -41.073477 
L 475.778646 -41.111625 
L 476.771352 -41.127873 
L 477.764058 -41.087699 
L 478.756764 -40.972811 
L 479.74947 -40.790132 
L 480.742176 -40.553932 
L 481.734882 -40.30489 
L 482.727588 -40.080382 
L 483.720294 -39.904426 
L 484.713 -39.793876 
L 485.705705 -39.733636 
L 486.698411 -39.710376 
L 487.691117 -39.706355 
L 488.683823 -39.709012 
L 489.676529 -39.698421 
L 490.669235 -39.682402 
L 491.661941 -39.654043 
L 492.654647 -39.607351 
L 493.647353 -39.544291 
L 494.640059 -39.467622 
L 495.632765 -39.380026 
L 496.625471 -39.287686 
L 497.618177 -39.193673 
L 498.610882 -39.106168 
L 499.603588 -39.025223 
L 500.596294 -38.954924 
L 501.589 -38.906418 
L 502.581706 -38.876672 
L 503.574412 -38.865826 
L 504.567118 -38.872019 
L 505.559824 -38.882917 
L 506.55253 -38.896334 
L 507.545236 -38.900321 
L 508.537942 -38.892148 
L 509.530648 -38.874515 
L 510.523354 -38.852639 
L 511.516059 -38.830986 
L 512.508765 -38.814483 
L 513.501471 -38.804981 
L 514.494177 -38.800971 
L 515.486883 -38.798674 
L 516.479589 -38.793921 
L 517.472295 -38.783137 
L 518.465001 -38.768023 
L 519.457707 -38.747903 
L 520.450413 -38.727945 
L 521.443119 -38.709417 
L 522.435825 -38.694342 
L 523.428531 -38.683411 
L 524.421237 -38.676277 
L 525.413942 -38.672061 
L 526.406648 -38.669797 
L 527.399354 -38.667875 
L 528.39206 -38.667875 
L 529.384766 -38.667875 
L 530.377472 -38.667875 
L 531.370178 -38.667875 
L 532.362884 -38.667875 
L 533.35559 -38.667875 
L 534.348296 -38.667875 
L 535.341002 -38.667875 
L 536.333708 -38.667875 
L 537.326414 -38.667875 
L 538.319119 -38.667875 
L 539.311825 -38.667875 
L 540.304531 -38.667875 
L 541.297237 -38.667875 
L 542.289943 -38.667875 
L 543.282649 -38.667875 
L 544.275355 -38.667875 
L 545.268061 -38.667875 
L 546.260767 -38.667875 
L 547.253473 -38.667875 
L 548.246179 -38.667875 
L 549.238885 -38.667875 
L 550.231591 -38.667875 
L 551.224296 -38.667875 
L 552.217002 -38.667875 
L 553.209708 -38.667875 
L 554.202414 -38.667875 
L 555.19512 -38.667875 
L 556.187826 -38.667875 
L 557.180532 -38.667875 
L 558.173238 -38.667875 
L 559.165944 -38.667875 
L 560.15865 -38.667875 
L 561.151356 -38.667875 
L 562.144062 -38.667875 
L 563.136768 -38.667875 
L 564.129473 -38.667875 
L 565.122179 -38.669797 
L 566.114885 -38.673983 
L 567.107591 -38.680463 
L 568.100297 -38.691813 
L 569.093003 -38.709879 
L 570.085709 -38.735884 
L 571.078415 -38.769487 
L 572.071121 -38.807973 
L 573.063827 -38.846129 
L 574.056533 -38.877177 
L 575.049239 -38.894674 
L 575.049239 -38.667875 
L 575.049239 -38.667875 
L 574.056533 -38.667875 
L 573.063827 -38.667875 
L 572.071121 -38.667875 
L 571.078415 -38.667875 
L 570.085709 -38.667875 
L 569.093003 -38.667875 
L 568.100297 -38.667875 
L 567.107591 -38.667875 
L 566.114885 -38.667875 
L 565.122179 -38.667875 
L 564.129473 -38.667875 
L 563.136768 -38.667875 
L 562.144062 -38.667875 
L 561.151356 -38.667875 
L 560.15865 -38.667875 
L 559.165944 -38.667875 
L 558.173238 -38.667875 
L 557.180532 -38.667875 
L 556.187826 -38.667875 
L 555.19512 -38.667875 
L 554.202414 -38.667875 
L 553.209708 -38.667875 
L 552.217002 -38.667875 
L 551.224296 -38.667875 
L 550.231591 -38.667875 
L 549.238885 -38.667875 
L 548.246179 -38.667875 
L 547.253473 -38.667875 
L 546.260767 -38.667875 
L 545.268061 -38.667875 
L 544.275355 -38.667875 
L 543.282649 -38.667875 
L 542.289943 -38.667875 
L 541.297237 -38.667875 
L 540.304531 -38.667875 
L 539.311825 -38.667875 
L 538.319119 -38.667875 
L 537.326414 -38.667875 
L 536.333708 -38.667875 
L 535.341002 -38.667875 
L 534.348296 -38.667875 
L 533.35559 -38.667875 
L 532.362884 -38.667875 
L 531.370178 -38.667875 
L 530.377472 -38.667875 
L 529.384766 -38.667875 
L 528.39206 -38.667875 
L 527.399354 -38.667875 
L 526.406648 -38.667875 
L 525.413942 -38.667875 
L 524.421237 -38.667875 
L 523.428531 -38.667875 
L 522.435825 -38.667875 
L 521.443119 -38.667875 
L 520.450413 -38.667875 
L 519.457707 -38.667875 
L 518.465001 -38.667875 
L 517.472295 -38.667875 
L 516.479589 -38.667875 
L 515.486883 -38.667875 
L 514.494177 -38.667875 
L 513.501471 -38.667875 
L 512.508765 -38.667875 
L 511.516059 -38.667875 
L 510.523354 -38.667875 
L 509.530648 -38.667875 
L 508.537942 -38.667875 
L 507.545236 -38.667875 
L 506.55253 -38.667875 
L 505.559824 -38.667875 
L 504.567118 -38.667875 
L 503.574412 -38.667875 
L 502.581706 -38.667875 
L 501.589 -38.667875 
L 500.596294 -38.667875 
L 499.603588 -38.667875 
L 498.610882 -38.667875 
L 497.618177 -38.667875 
L 496.625471 -38.667875 
L 495.632765 -38.667875 
L 494.640059 -38.667875 
L 493.647353 -38.667875 
L 492.654647 -38.667875 
L 491.661941 -38.667875 
L 490.669235 -38.667875 
L 489.676529 -38.667875 
L 488.683823 -38.667875 
L 487.691117 -38.667875 
L 486.698411 -38.667875 
L 485.705705 -38.667875 
L 484.713 -38.667875 
L 483.720294 -38.667875 
L 482.727588 -38.667875 
L 481.734882 -38.667875 
L 480.742176 -38.667875 
L 479.74947 -38.667875 
L 478.756764 -38.667875 
L 477.764058 -38.667875 
L 476.771352 -38.667875 
L 475.778646 -38.667875 
L 474.78594 -38.667875 
L 473.793234 -38.667875 
L 472.800528 -38.667875 
L 471.807823 -38.667875 
L 470.815117 -38.667875 
L 469.822411 -38.667875 
L 468.829705 -38.667875 
L 467.836999 -38.667875 
L 466.844293 -38.667875 
L 465.851587 -38.667875 
L 464.858881 -38.667875 
L 463.866175 -38.667875 
L 462.873469 -38.667875 
L 461.880763 -38.667875 
L 460.888057 -38.667875 
L 459.895351 -38.667875 
L 458.902646 -38.667875 
L 457.90994 -38.667875 
L 456.917234 -38.667875 
L 455.924528 -38.667875 
L 454.931822 -38.667875 
L 453.939116 -38.667875 
L 452.94641 -38.667875 
L 451.953704 -38.667875 
L 450.960998 -38.667875 
L 449.968292 -38.667875 
L 448.975586 -38.667875 
L 447.98288 -38.667875 
L 446.990174 -38.667875 
L 445.997468 -38.667875 
L 445.004763 -38.667875 
L 444.012057 -38.667875 
L 443.019351 -38.667875 
L 442.026645 -38.667875 
L 441.033939 -38.667875 
L 440.041233 -38.667875 
L 439.048527 -38.667875 
L 438.055821 -38.667875 
L 437.063115 -38.667875 
L 436.070409 -38.667875 
L 435.077703 -38.667875 
L 434.084997 -38.667875 
L 433.092291 -38.667875 
L 432.099586 -38.667875 
L 431.10688 -38.667875 
L 430.114174 -38.667875 
L 429.121468 -38.667875 
L 428.128762 -38.667875 
L 427.136056 -38.667875 
L 426.14335 -38.667875 
L 425.150644 -38.667875 
L 424.157938 -38.667875 
L 423.165232 -38.667875 
L 422.172526 -38.667875 
L 421.17982 -38.667875 
L 420.187114 -38.667875 
L 419.194409 -38.667875 
L 418.201703 -38.667875 
L 417.208997 -38.667875 
L 416.216291 -38.667875 
L 415.223585 -38.667875 
L 414.230879 -38.667875 
L 413.238173 -38.667875 
L 412.245467 -38.667875 
L 411.252761 -38.667875 
L 410.260055 -38.667875 
L 409.267349 -38.667875 
L 408.274643 -38.667875 
L 407.281937 -38.667875 
L 406.289232 -38.667875 
L 405.296526 -38.667875 
L 404.30382 -38.667875 
L 403.311114 -38.667875 
L 402.318408 -38.667875 
L 401.325702 -38.667875 
L 400.332996 -38.667875 
L 399.34029 -38.667875 
L 398.347584 -38.667875 
L 397.354878 -38.667875 
L 396.362172 -38.667875 
L 395.369466 -38.667875 
L 394.37676 -38.667875 
L 393.384055 -38.667875 
L 392.391349 -38.667875 
L 391.398643 -38.667875 
L 390.405937 -38.667875 
L 389.413231 -38.667875 
L 388.420525 -38.667875 
L 387.427819 -38.667875 
L 386.435113 -38.667875 
L 385.442407 -38.667875 
L 384.449701 -38.667875 
L 383.456995 -38.667875 
L 382.464289 -38.667875 
L 381.471583 -38.667875 
L 380.478877 -38.667875 
L 379.486172 -38.667875 
L 378.493466 -38.667875 
L 377.50076 -38.667875 
L 376.508054 -38.667875 
L 375.515348 -38.667875 
L 374.522642 -38.667875 
L 373.529936 -38.667875 
L 372.53723 -38.667875 
L 371.544524 -38.667875 
L 370.551818 -38.667875 
L 369.559112 -38.667875 
L 368.566406 -38.667875 
L 367.5737 -38.667875 
L 366.580995 -38.667875 
L 365.588289 -38.667875 
L 364.595583 -38.667875 
L 363.602877 -38.667875 
L 362.610171 -38.667875 
L 361.617465 -38.667875 
L 360.624759 -38.667875 
L 359.632053 -38.667875 
L 358.639347 -38.667875 
L 357.646641 -38.667875 
L 356.653935 -38.667875 
L 355.661229 -38.667875 
L 354.668523 -38.667875 
L 353.675818 -38.667875 
L 352.683112 -38.667875 
L 351.690406 -38.667875 
L 350.6977 -38.667875 
L 349.704994 -38.667875 
L 348.712288 -38.667875 
L 347.719582 -38.667875 
L 346.726876 -38.667875 
L 345.73417 -38.667875 
L 344.741464 -38.667875 
L 343.748758 -38.667875 
L 342.756052 -38.667875 
L 341.763346 -38.667875 
L 340.770641 -38.667875 
L 339.777935 -38.667875 
L 338.785229 -38.667875 
L 337.792523 -38.667875 
L 336.799817 -38.667875 
L 335.807111 -38.667875 
L 334.814405 -38.667875 
L 333.821699 -38.667875 
L 332.828993 -38.667875 
L 331.836287 -38.667875 
L 330.843581 -38.667875 
L 329.850875 -38.667875 
L 328.858169 -38.667875 
L 327.865464 -38.667875 
L 326.872758 -38.667875 
L 325.880052 -38.667875 
L 324.887346 -38.667875 
L 323.89464 -38.667875 
L 322.901934 -38.667875 
L 321.909228 -38.667875 
L 320.916522 -38.667875 
L 319.923816 -38.667875 
L 318.93111 -38.667875 
L 317.938404 -38.667875 
L 316.945698 -38.667875 
L 315.952992 -38.667875 
L 314.960286 -38.667875 
L 313.967581 -38.667875 
L 312.974875 -38.667875 
L 311.982169 -38.667875 
L 310.989463 -38.667875 
L 309.996757 -38.667875 
L 309.004051 -38.667875 
L 308.011345 -38.667875 
L 307.018639 -38.667875 
L 306.025933 -38.667875 
L 305.033227 -38.667875 
L 304.040521 -38.667875 
L 303.047815 -38.667875 
L 302.055109 -38.667875 
L 301.062404 -38.667875 
L 300.069698 -38.667875 
L 299.076992 -38.667875 
L 298.084286 -38.667875 
L 297.09158 -38.667875 
L 296.098874 -38.667875 
L 295.106168 -38.667875 
L 294.113462 -38.667875 
L 293.120756 -38.667875 
L 292.12805 -38.667875 
L 291.135344 -38.667875 
L 290.142638 -38.667875 
L 289.149932 -38.667875 
L 288.157227 -38.667875 
L 287.164521 -38.667875 
L 286.171815 -38.667875 
L 285.179109 -38.667875 
L 284.186403 -38.667875 
L 283.193697 -38.667875 
L 282.200991 -38.667875 
L 281.208285 -38.667875 
L 280.215579 -38.667875 
L 279.222873 -38.667875 
L 278.230167 -38.667875 
L 277.237461 -38.667875 
L 276.244755 -38.667875 
L 275.25205 -38.667875 
L 274.259344 -38.667875 
L 273.266638 -38.667875 
L 272.273932 -38.667875 
L 271.281226 -38.667875 
L 270.28852 -38.667875 
L 269.295814 -38.667875 
L 268.303108 -38.667875 
L 267.310402 -38.667875 
L 266.317696 -38.667875 
L 265.32499 -38.667875 
L 264.332284 -38.667875 
L 263.339578 -38.667875 
L 262.346873 -38.667875 
L 261.354167 -38.667875 
L 260.361461 -38.667875 
L 259.368755 -38.667875 
L 258.376049 -38.667875 
L 257.383343 -38.667875 
L 256.390637 -38.667875 
L 255.397931 -38.667875 
L 254.405225 -38.667875 
L 253.412519 -38.667875 
L 252.419813 -38.667875 
L 251.427107 -38.667875 
L 250.434401 -38.667875 
L 249.441695 -38.667875 
L 248.44899 -38.667875 
L 247.456284 -38.667875 
L 246.463578 -38.667875 
L 245.470872 -38.667875 
L 244.478166 -38.667875 
L 243.48546 -38.667875 
L 242.492754 -38.667875 
L 241.500048 -38.667875 
L 240.507342 -38.667875 
L 239.514636 -38.667875 
L 238.52193 -38.667875 
L 237.529224 -38.667875 
L 236.536518 -38.667875 
L 235.543813 -38.667875 
L 234.551107 -38.667875 
L 233.558401 -38.667875 
L 232.565695 -38.667875 
L 231.572989 -38.667875 
L 230.580283 -38.667875 
L 229.587577 -38.667875 
L 228.594871 -38.667875 
L 227.602165 -38.667875 
L 226.609459 -38.667875 
L 225.616753 -38.667875 
L 224.624047 -38.667875 
L 223.631341 -38.667875 
L 222.638636 -38.667875 
L 221.64593 -38.667875 
L 220.653224 -38.667875 
L 219.660518 -38.667875 
L 218.667812 -38.667875 
L 217.675106 -38.667875 
L 216.6824 -38.667875 
L 215.689694 -38.667875 
L 214.696988 -38.667875 
L 213.704282 -38.667875 
L 212.711576 -38.667875 
L 211.71887 -38.667875 
L 210.726164 -38.667875 
L 209.733459 -38.667875 
L 208.740753 -38.667875 
L 207.748047 -38.667875 
L 206.755341 -38.667875 
L 205.762635 -38.667875 
L 204.769929 -38.667875 
L 203.777223 -38.667875 
L 202.784517 -38.667875 
L 201.791811 -38.667875 
L 200.799105 -38.667875 
L 199.806399 -38.667875 
L 198.813693 -38.667875 
L 197.820987 -38.667875 
L 196.828282 -38.667875 
L 195.835576 -38.667875 
L 194.84287 -38.667875 
L 193.850164 -38.667875 
L 192.857458 -38.667875 
L 191.864752 -38.667875 
L 190.872046 -38.667875 
L 189.87934 -38.667875 
L 188.886634 -38.667875 
L 187.893928 -38.667875 
L 186.901222 -38.667875 
L 185.908516 -38.667875 
L 184.91581 -38.667875 
L 183.923104 -38.667875 
L 182.930399 -38.667875 
L 181.937693 -38.667875 
L 180.944987 -38.667875 
L 179.952281 -38.667875 
L 178.959575 -38.667875 
L 177.966869 -38.667875 
L 176.974163 -38.667875 
L 175.981457 -38.667875 
L 174.988751 -38.667875 
L 173.996045 -38.667875 
L 173.003339 -38.667875 
L 172.010633 -38.667875 
L 171.017927 -38.667875 
L 170.025222 -38.667875 
L 169.032516 -38.667875 
L 168.03981 -38.667875 
L 167.047104 -38.667875 
L 166.054398 -38.667875 
L 165.061692 -38.667875 
L 164.068986 -38.667875 
L 163.07628 -38.667875 
L 162.083574 -38.667875 
L 161.090868 -38.667875 
L 160.098162 -38.667875 
L 159.105456 -38.667875 
L 158.11275 -38.667875 
L 157.120045 -38.667875 
L 156.127339 -38.667875 
L 155.134633 -38.667875 
L 154.141927 -38.667875 
L 153.149221 -38.667875 
L 152.156515 -38.667875 
L 151.163809 -38.667875 
L 150.171103 -38.667875 
L 149.178397 -38.667875 
L 148.185691 -38.667875 
L 147.192985 -38.667875 
L 146.200279 -38.667875 
L 145.207573 -38.667875 
L 144.214868 -38.667875 
L 143.222162 -38.667875 
L 142.229456 -38.667875 
L 141.23675 -38.667875 
L 140.244044 -38.667875 
L 139.251338 -38.667875 
L 138.258632 -38.667875 
L 137.265926 -38.667875 
L 136.27322 -38.667875 
L 135.280514 -38.667875 
L 134.287808 -38.667875 
L 133.295102 -38.667875 
L 132.302396 -38.667875 
L 131.309691 -38.667875 
L 130.316985 -38.667875 
L 129.324279 -38.667875 
L 128.331573 -38.667875 
L 127.338867 -38.667875 
L 126.346161 -38.667875 
L 125.353455 -38.667875 
L 124.360749 -38.667875 
L 123.368043 -38.667875 
L 122.375337 -38.667875 
L 121.382631 -38.667875 
L 120.389925 -38.667875 
L 119.397219 -38.667875 
L 118.404513 -38.667875 
L 117.411808 -38.667875 
L 116.419102 -38.667875 
L 115.426396 -38.667875 
L 114.43369 -38.667875 
L 113.440984 -38.667875 
L 112.448278 -38.667875 
L 111.455572 -38.667875 
L 110.462866 -38.667875 
L 109.47016 -38.667875 
L 108.477454 -38.667875 
L 107.484748 -38.667875 
L 106.492042 -38.667875 
L 105.499336 -38.667875 
L 104.506631 -38.667875 
L 103.513925 -38.667875 
L 102.521219 -38.667875 
L 101.528513 -38.667875 
L 100.535807 -38.667875 
L 99.543101 -38.667875 
L 98.550395 -38.667875 
L 97.557689 -38.667875 
L 96.564983 -38.667875 
L 95.572277 -38.667875 
L 94.579571 -38.667875 
L 93.586865 -38.667875 
L 92.594159 -38.667875 
L 91.601454 -38.667875 
L 90.608748 -38.667875 
L 89.616042 -38.667875 
L 88.623336 -38.667875 
L 87.63063 -38.667875 
L 86.637924 -38.667875 
L 85.645218 -38.667875 
L 84.652512 -38.667875 
L 83.659806 -38.667875 
L 82.6671 -38.667875 
L 81.674394 -38.667875 
L 80.681688 -38.667875 
L 79.688982 -38.667875 
L 78.696277 -38.667875 
L 77.703571 -38.667875 
L 76.710865 -38.667875 
L 75.718159 -38.667875 
L 74.725453 -38.667875 
L 73.732747 -38.667875 
L 72.740041 -38.667875 
L 71.747335 -38.667875 
L 70.754629 -38.667875 
L 69.761923 -38.667875 
L 68.769217 -38.667875 
L 67.776511 -38.667875 
z
" style="stroke: #0173b2; stroke-opacity: 0; stroke-width: 0.8"/>
    </defs>
    <g clip-path="url(#p1ede00e385)">
     <use xlink:href="#md1fb76fad1" x="0" y="363.387875" style="fill: #0173b2; fill-opacity: 0; stroke: #0173b2; stroke-opacity: 0; stroke-width: 0.8"/>
    </g>
   </g>
   <g id="line2d_15">
    <path d="M 67.776511 324.493201 
L 83.659806 324.676537 
L 99.543101 324.2479 
L 112.448278 322.838976 
L 128.331573 319.705043 
L 132.302396 318.537203 
L 138.258632 317.041802 
L 146.200279 314.303666 
L 149.178397 313.483388 
L 151.163809 312.694724 
L 156.127339 310.381361 
L 158.11275 309.924827 
L 162.083574 309.359015 
L 164.068986 308.796417 
L 166.054398 307.964098 
L 172.010633 305.081145 
L 173.003339 304.625158 
L 173.996045 304.031103 
L 174.988751 303.107184 
L 175.981457 301.648835 
L 176.974163 299.472961 
L 177.966869 296.383749 
L 178.959575 292.256511 
L 179.952281 286.796619 
L 180.944987 279.857691 
L 181.937693 271.555008 
L 183.923104 251.249001 
L 185.908516 229.650483 
L 186.901222 220.847625 
L 187.893928 214.922502 
L 188.886634 212.780188 
L 189.87934 214.851565 
L 190.872046 220.787934 
L 191.864752 229.6449 
L 193.850164 250.378279 
L 194.84287 259.441057 
L 195.835576 266.393244 
L 196.828282 270.79988 
L 197.820987 272.641635 
L 198.813693 272.123477 
L 199.806399 269.436335 
L 200.799105 264.924602 
L 201.791811 258.744748 
L 203.777223 243.029715 
L 204.769929 234.934723 
L 205.762635 227.753451 
L 206.755341 222.23327 
L 207.748047 218.832162 
L 208.740753 217.680736 
L 209.733459 218.430545 
L 210.726164 220.427499 
L 212.711576 225.125692 
L 213.704282 226.518721 
L 214.696988 226.778877 
L 215.689694 225.894825 
L 216.6824 223.908196 
L 217.675106 221.080822 
L 218.667812 217.57056 
L 220.653224 209.189551 
L 223.631341 195.616884 
L 224.624047 191.58144 
L 225.616753 188.052113 
L 227.602165 182.127224 
L 228.594871 179.25453 
L 229.587577 175.918566 
L 230.580283 171.779473 
L 231.572989 166.629057 
L 232.565695 160.581297 
L 236.536518 133.917682 
L 237.529224 128.730775 
L 238.52193 124.598541 
L 239.514636 121.615658 
L 240.507342 119.699898 
L 241.500048 118.581701 
L 243.48546 117.502931 
L 244.478166 116.648854 
L 245.470872 115.118297 
L 246.463578 111.831984 
L 247.456284 107.190025 
L 248.44899 100.631157 
L 249.441695 92.051675 
L 252.419813 60.821352 
L 253.412519 52.779014 
L 254.405225 48.652156 
L 255.397931 49.48018 
L 256.390637 55.6977 
L 257.383343 66.504072 
L 261.354167 119.565873 
L 262.346873 127.740792 
L 263.339578 132.809787 
L 264.332284 135.2974 
L 265.32499 135.940345 
L 268.303108 134.634768 
L 269.295814 134.986648 
L 270.28852 136.159365 
L 271.281226 137.850459 
L 273.266638 141.515401 
L 274.259344 142.962196 
L 275.25205 143.832045 
L 276.244755 144.034613 
L 277.237461 143.503531 
L 278.230167 142.005084 
L 279.222873 139.253395 
L 280.215579 134.598808 
L 281.208285 128.034306 
L 282.200991 119.658682 
L 285.179109 90.40702 
L 286.171815 82.299778 
L 287.164521 76.105589 
L 288.157227 72.069788 
L 289.149932 69.937931 
L 290.142638 69.274669 
L 291.135344 69.400462 
L 292.12805 69.912497 
L 293.120756 70.164843 
L 294.113462 69.643196 
L 295.106168 67.610054 
L 296.098874 63.674159 
L 297.09158 57.525057 
L 299.076992 40.533089 
L 300.069698 32.247095 
L 301.062404 25.598851 
L 302.055109 22.32 
L 303.047815 22.370662 
L 304.040521 25.022581 
L 305.033227 28.79984 
L 306.025933 32.098491 
L 307.018639 33.625575 
L 308.011345 33.210538 
L 309.996757 30.022889 
L 310.989463 29.988172 
L 311.982169 32.336675 
L 312.974875 36.721179 
L 315.952992 53.300275 
L 316.945698 57.193245 
L 317.938404 60.100033 
L 319.923816 65.135546 
L 320.916522 68.324752 
L 322.901934 76.898561 
L 325.880052 92.082398 
L 329.850875 112.368325 
L 331.836287 121.579798 
L 333.821699 129.289691 
L 334.814405 132.224756 
L 335.807111 134.388374 
L 336.799817 135.717994 
L 337.792523 136.272519 
L 338.785229 136.233047 
L 339.777935 135.754497 
L 340.770641 135.132551 
L 341.763346 134.229739 
L 342.756052 132.737326 
L 343.748758 130.313096 
L 344.741464 126.527557 
L 345.73417 120.787419 
L 346.726876 112.855016 
L 347.719582 102.902496 
L 350.6977 68.523745 
L 351.690406 59.610461 
L 352.683112 53.708406 
L 353.675818 51.232762 
L 354.668523 51.84906 
L 355.661229 54.859152 
L 356.653935 59.303946 
L 360.624759 78.975088 
L 362.610171 87.833849 
L 363.602877 91.800473 
L 364.595583 95.023248 
L 365.588289 97.337516 
L 366.580995 98.890644 
L 367.5737 100.095129 
L 368.566406 101.576218 
L 369.559112 104.281269 
L 370.551818 108.995044 
L 371.544524 116.133794 
L 372.53723 125.547061 
L 376.508054 169.494998 
L 377.50076 177.805163 
L 378.493466 184.566604 
L 379.486172 189.992012 
L 380.478877 194.334617 
L 381.471583 197.863337 
L 382.464289 200.660828 
L 383.456995 202.902048 
L 385.442407 206.66205 
L 386.435113 208.927312 
L 387.427819 211.942567 
L 388.420525 215.812068 
L 389.413231 220.536515 
L 393.384055 241.914141 
L 394.37676 246.318893 
L 395.369466 250.003764 
L 396.362172 252.924913 
L 397.354878 255.183255 
L 398.347584 256.897998 
L 399.34029 258.176001 
L 401.325702 260.399585 
L 402.318408 261.702794 
L 404.30382 264.864991 
L 406.289232 268.184399 
L 408.274643 270.899678 
L 410.260055 272.981679 
L 412.245467 274.642267 
L 414.230879 275.852456 
L 417.208997 277.241897 
L 418.201703 277.9141 
L 419.194409 278.832303 
L 420.187114 280.018051 
L 421.17982 281.484261 
L 423.165232 285.10968 
L 427.136056 293.212746 
L 429.121468 296.604837 
L 430.114174 297.975142 
L 431.10688 299.108152 
L 433.092291 300.803758 
L 436.070409 302.849954 
L 438.055821 304.573773 
L 441.033939 307.444424 
L 443.019351 308.925983 
L 445.004763 310.005062 
L 447.98288 311.649898 
L 450.960998 313.484841 
L 452.94641 314.349505 
L 454.931822 314.85361 
L 457.90994 315.481841 
L 458.902646 315.82648 
L 460.888057 316.874972 
L 465.851587 320.185423 
L 467.836999 321.116849 
L 469.822411 321.790144 
L 471.807823 322.207337 
L 473.793234 322.335077 
L 477.764058 322.300176 
L 479.74947 322.597743 
L 483.720294 323.483449 
L 485.705705 323.654239 
L 494.640059 323.920253 
L 502.581706 324.511203 
L 531.370178 324.72 
L 571.078415 324.618388 
L 575.049239 324.493201 
L 575.049239 324.493201 
" clip-path="url(#p1ede00e385)" style="fill: none; stroke: #0173b2; stroke-width: 1.2; stroke-linecap: round"/>
   </g>
   <g id="patch_3">
    <path d="M 42.412875 339.84 
L 42.412875 7.2 
" style="fill: none; stroke: #ffffff; stroke-linejoin: miter; stroke-linecap: square"/>
   </g>
   <g id="patch_4">
    <path d="M 600.412875 339.84 
L 600.412875 7.2 
" style="fill: none; stroke: #ffffff; stroke-linejoin: miter; stroke-linecap: square"/>
   </g>
   <g id="patch_5">
    <path d="M 42.412875 339.84 
L 600.412875 339.84 
" style="fill: none; stroke: #ffffff; stroke-linejoin: miter; stroke-linecap: square"/>
   </g>
   <g id="patch_6">
    <path d="M 42.412875 7.2 
L 600.412875 7.2 
" style="fill: none; stroke: #ffffff; stroke-linejoin: miter; stroke-linecap: square"/>
   </g>
  </g>
 </g>
 <defs>
  <clipPath id="p1ede00e385">
   <rect x="42.412875" y="7.2" width="558" height="332.64"/>
  </clipPath>
 </defs>
</svg>