<?xml version="1.0" encoding="utf-8" standalone="no"?>
<!DOCTYPE svg PUBLIC "-//W3C//DTD SVG 1.1//EN"
  "http://www.w3.org/Graphics/SVG/1.1/DTD/svg11.dtd">
<svg xmlns:xlink="http://www.w3.org/1999/xlink" width="608.19325pt" height="381.511687pt" viewBox="0 0 608.19325 381.511687" xmlns="http://www.w3.org/2000/svg" version="1.1">
 <metadata>
  <rdf:RDF xmlns:dc="http://purl.org/dc/elements/1.1/" xmlns:cc="http://creativecommons.org/ns#" xmlns:rdf="http://www.w3.org/1999/02/22-rdf-syntax-ns#">
   <cc:Work>
    <dc:type rdf:resource="http://purl.org/dc/dcmitype/StillImage"/>
    <dc:date>2023-05-08T00:37:56.052084</dc:date>
    <dc:format>image/svg+xml</dc:format>
    <dc:creator>
     <cc:Agent>
      <dc:title>Matplotlib v3.7.1, https://matplotlib.org/</dc:title>
     </cc:Agent>
    </dc:creator>
   </cc:Work>
  </rdf:RDF>
 </metadata>
 <defs>
  <style type="text/css">*{stroke-linejoin: round; stroke-linecap: butt}</style>
 </defs>
 <g id="figure_1">
  <g id="patch_1">
   <path d="M 0 381.511687 
L 608.19325 381.511687 
L 608.19325 0 
L 0 0 
z
" style="fill: #ffffff"/>
  </g>
  <g id="axes_1">
   <g id="patch_2">
    <path d="M 42.99325 342.989437 
L 600.99325 342.989437 
L 600.99325 10.349437 
L 42.99325 10.349437 
z
" style="fill: #eaeaf2"/>
   </g>
   <g id="matplotlib.axis_1">
    <g id="xtick_1">
     <g id="line2d_1">
      <path d="M 68.356886 342.989437 
L 68.356886 10.349437 
" clip-path="url(#p716d0d5bcc)" style="fill: none; stroke: #ffffff; stroke-width: 0.8; stroke-linecap: round"/>
     </g>
     <g id="text_1">
      <!-- 0.0 -->
      <g style="fill: #262626" transform="translate(62.240886 357.588312) scale(0.088 -0.088)">
       <defs>
        <path id="ArialMT-30" d="M 266 2259 
Q 266 3072 433 3567 
Q 600 4063 929 4331 
Q 1259 4600 1759 4600 
Q 2128 4600 2406 4451 
Q 2684 4303 2865 4023 
Q 3047 3744 3150 3342 
Q 3253 2941 3253 2259 
Q 3253 1453 3087 958 
Q 2922 463 2592 192 
Q 2263 -78 1759 -78 
Q 1097 -78 719 397 
Q 266 969 266 2259 
z
M 844 2259 
Q 844 1131 1108 757 
Q 1372 384 1759 384 
Q 2147 384 2411 759 
Q 2675 1134 2675 2259 
Q 2675 3391 2411 3762 
Q 2147 4134 1753 4134 
Q 1366 4134 1134 3806 
Q 844 3388 844 2259 
z
" transform="scale(0.015625)"/>
        <path id="ArialMT-2e" d="M 581 0 
L 581 641 
L 1222 641 
L 1222 0 
L 581 0 
z
" transform="scale(0.015625)"/>
       </defs>
       <use xlink:href="#ArialMT-30"/>
       <use xlink:href="#ArialMT-2e" x="55.615234"/>
       <use xlink:href="#ArialMT-30" x="83.398438"/>
      </g>
     </g>
    </g>
    <g id="xtick_2">
     <g id="line2d_2">
      <path d="M 169.811432 342.989437 
L 169.811432 10.349437 
" clip-path="url(#p716d0d5bcc)" style="fill: none; stroke: #ffffff; stroke-width: 0.8; stroke-linecap: round"/>
     </g>
     <g id="text_2">
      <!-- 0.2 -->
      <g style="fill: #262626" transform="translate(163.695432 357.588312) scale(0.088 -0.088)">
       <defs>
        <path id="ArialMT-32" d="M 3222 541 
L 3222 0 
L 194 0 
Q 188 203 259 391 
Q 375 700 629 1000 
Q 884 1300 1366 1694 
Q 2113 2306 2375 2664 
Q 2638 3022 2638 3341 
Q 2638 3675 2398 3904 
Q 2159 4134 1775 4134 
Q 1369 4134 1125 3890 
Q 881 3647 878 3216 
L 300 3275 
Q 359 3922 746 4261 
Q 1134 4600 1788 4600 
Q 2447 4600 2831 4234 
Q 3216 3869 3216 3328 
Q 3216 3053 3103 2787 
Q 2991 2522 2730 2228 
Q 2469 1934 1863 1422 
Q 1356 997 1212 845 
Q 1069 694 975 541 
L 3222 541 
z
" transform="scale(0.015625)"/>
       </defs>
       <use xlink:href="#ArialMT-30"/>
       <use xlink:href="#ArialMT-2e" x="55.615234"/>
       <use xlink:href="#ArialMT-32" x="83.398438"/>
      </g>
     </g>
    </g>
    <g id="xtick_3">
     <g id="line2d_3">
      <path d="M 271.265977 342.989437 
L 271.265977 10.349437 
" clip-path="url(#p716d0d5bcc)" style="fill: none; stroke: #ffffff; stroke-width: 0.8; stroke-linecap: round"/>
     </g>
     <g id="text_3">
      <!-- 0.4 -->
      <g style="fill: #262626" transform="translate(265.149977 357.588312) scale(0.088 -0.088)">
       <defs>
        <path id="ArialMT-34" d="M 2069 0 
L 2069 1097 
L 81 1097 
L 81 1613 
L 2172 4581 
L 2631 4581 
L 2631 1613 
L 3250 1613 
L 3250 1097 
L 2631 1097 
L 2631 0 
L 2069 0 
z
M 2069 1613 
L 2069 3678 
L 634 1613 
L 2069 1613 
z
" transform="scale(0.015625)"/>
       </defs>
       <use xlink:href="#ArialMT-30"/>
       <use xlink:href="#ArialMT-2e" x="55.615234"/>
       <use xlink:href="#ArialMT-34" x="83.398438"/>
      </g>
     </g>
    </g>
    <g id="xtick_4">
     <g id="line2d_4">
      <path d="M 372.720523 342.989437 
L 372.720523 10.349437 
" clip-path="url(#p716d0d5bcc)" style="fill: none; stroke: #ffffff; stroke-width: 0.8; stroke-linecap: round"/>
     </g>
     <g id="text_4">
      <!-- 0.6 -->
      <g style="fill: #262626" transform="translate(366.604523 357.588312) scale(0.088 -0.088)">
       <defs>
        <path id="ArialMT-36" d="M 3184 3459 
L 2625 3416 
Q 2550 3747 2413 3897 
Q 2184 4138 1850 4138 
Q 1581 4138 1378 3988 
Q 1113 3794 959 3422 
Q 806 3050 800 2363 
Q 1003 2672 1297 2822 
Q 1591 2972 1913 2972 
Q 2475 2972 2870 2558 
Q 3266 2144 3266 1488 
Q 3266 1056 3080 686 
Q 2894 316 2569 119 
Q 2244 -78 1831 -78 
Q 1128 -78 684 439 
Q 241 956 241 2144 
Q 241 3472 731 4075 
Q 1159 4600 1884 4600 
Q 2425 4600 2770 4297 
Q 3116 3994 3184 3459 
z
M 888 1484 
Q 888 1194 1011 928 
Q 1134 663 1356 523 
Q 1578 384 1822 384 
Q 2178 384 2434 671 
Q 2691 959 2691 1453 
Q 2691 1928 2437 2201 
Q 2184 2475 1800 2475 
Q 1419 2475 1153 2201 
Q 888 1928 888 1484 
z
" transform="scale(0.015625)"/>
       </defs>
       <use xlink:href="#ArialMT-30"/>
       <use xlink:href="#ArialMT-2e" x="55.615234"/>
       <use xlink:href="#ArialMT-36" x="83.398438"/>
      </g>
     </g>
    </g>
    <g id="xtick_5">
     <g id="line2d_5">
      <path d="M 474.175068 342.989437 
L 474.175068 10.349437 
" clip-path="url(#p716d0d5bcc)" style="fill: none; stroke: #ffffff; stroke-width: 0.8; stroke-linecap: round"/>
     </g>
     <g id="text_5">
      <!-- 0.8 -->
      <g style="fill: #262626" transform="translate(468.059068 357.588312) scale(0.088 -0.088)">
       <defs>
        <path id="ArialMT-38" d="M 1131 2484 
Q 781 2613 612 2850 
Q 444 3088 444 3419 
Q 444 3919 803 4259 
Q 1163 4600 1759 4600 
Q 2359 4600 2725 4251 
Q 3091 3903 3091 3403 
Q 3091 3084 2923 2848 
Q 2756 2613 2416 2484 
Q 2838 2347 3058 2040 
Q 3278 1734 3278 1309 
Q 3278 722 2862 322 
Q 2447 -78 1769 -78 
Q 1091 -78 675 323 
Q 259 725 259 1325 
Q 259 1772 486 2073 
Q 713 2375 1131 2484 
z
M 1019 3438 
Q 1019 3113 1228 2906 
Q 1438 2700 1772 2700 
Q 2097 2700 2305 2904 
Q 2513 3109 2513 3406 
Q 2513 3716 2298 3927 
Q 2084 4138 1766 4138 
Q 1444 4138 1231 3931 
Q 1019 3725 1019 3438 
z
M 838 1322 
Q 838 1081 952 856 
Q 1066 631 1291 507 
Q 1516 384 1775 384 
Q 2178 384 2440 643 
Q 2703 903 2703 1303 
Q 2703 1709 2433 1975 
Q 2163 2241 1756 2241 
Q 1359 2241 1098 1978 
Q 838 1716 838 1322 
z
" transform="scale(0.015625)"/>
       </defs>
       <use xlink:href="#ArialMT-30"/>
       <use xlink:href="#ArialMT-2e" x="55.615234"/>
       <use xlink:href="#ArialMT-38" x="83.398438"/>
      </g>
     </g>
    </g>
    <g id="xtick_6">
     <g id="line2d_6">
      <path d="M 575.629614 342.989437 
L 575.629614 10.349437 
" clip-path="url(#p716d0d5bcc)" style="fill: none; stroke: #ffffff; stroke-width: 0.8; stroke-linecap: round"/>
     </g>
     <g id="text_6">
      <!-- 1.0 -->
      <g style="fill: #262626" transform="translate(569.513614 357.588312) scale(0.088 -0.088)">
       <defs>
        <path id="ArialMT-31" d="M 2384 0 
L 1822 0 
L 1822 3584 
Q 1619 3391 1289 3197 
Q 959 3003 697 2906 
L 697 3450 
Q 1169 3672 1522 3987 
Q 1875 4303 2022 4600 
L 2384 4600 
L 2384 0 
z
" transform="scale(0.015625)"/>
       </defs>
       <use xlink:href="#ArialMT-31"/>
       <use xlink:href="#ArialMT-2e" x="55.615234"/>
       <use xlink:href="#ArialMT-30" x="83.398438"/>
      </g>
     </g>
    </g>
    <g id="text_7">
     <!-- x -->
     <g style="fill: #262626" transform="translate(318.99325 371.926687) scale(0.12 -0.12)">
      <defs>
       <path id="ArialMT-78" d="M 47 0 
L 1259 1725 
L 138 3319 
L 841 3319 
L 1350 2541 
Q 1494 2319 1581 2169 
Q 1719 2375 1834 2534 
L 2394 3319 
L 3066 3319 
L 1919 1756 
L 3153 0 
L 2463 0 
L 1781 1031 
L 1600 1309 
L 728 0 
L 47 0 
z
" transform="scale(0.015625)"/>
      </defs>
      <use xlink:href="#ArialMT-78"/>
     </g>
    </g>
   </g>
   <g id="matplotlib.axis_2">
    <g id="ytick_1">
     <g id="line2d_7">
      <path d="M 42.99325 342.989437 
L 600.99325 342.989437 
" clip-path="url(#p716d0d5bcc)" style="fill: none; stroke: #ffffff; stroke-width: 0.8; stroke-linecap: round"/>
     </g>
     <g id="text_8">
      <!-- 0.0 -->
      <g style="fill: #262626" transform="translate(22.46125 346.138875) scale(0.088 -0.088)">
       <use xlink:href="#ArialMT-30"/>
       <use xlink:href="#ArialMT-2e" x="55.615234"/>
       <use xlink:href="#ArialMT-30" x="83.398438"/>
      </g>
     </g>
    </g>
    <g id="ytick_2">
     <g id="line2d_8">
      <path d="M 42.99325 306.029437 
L 600.99325 306.029437 
" clip-path="url(#p716d0d5bcc)" style="fill: none; stroke: #ffffff; stroke-width: 0.8; stroke-linecap: round"/>
     </g>
     <g id="text_9">
      <!-- 0.5 -->
      <g style="fill: #262626" transform="translate(22.46125 309.178875) scale(0.088 -0.088)">
       <defs>
        <path id="ArialMT-35" d="M 266 1200 
L 856 1250 
Q 922 819 1161 601 
Q 1400 384 1738 384 
Q 2144 384 2425 690 
Q 2706 997 2706 1503 
Q 2706 1984 2436 2262 
Q 2166 2541 1728 2541 
Q 1456 2541 1237 2417 
Q 1019 2294 894 2097 
L 366 2166 
L 809 4519 
L 3088 4519 
L 3088 3981 
L 1259 3981 
L 1013 2750 
Q 1425 3038 1878 3038 
Q 2478 3038 2890 2622 
Q 3303 2206 3303 1553 
Q 3303 931 2941 478 
Q 2500 -78 1738 -78 
Q 1113 -78 717 272 
Q 322 622 266 1200 
z
" transform="scale(0.015625)"/>
       </defs>
       <use xlink:href="#ArialMT-30"/>
       <use xlink:href="#ArialMT-2e" x="55.615234"/>
       <use xlink:href="#ArialMT-35" x="83.398438"/>
      </g>
     </g>
    </g>
    <g id="ytick_3">
     <g id="line2d_9">
      <path d="M 42.99325 269.069437 
L 600.99325 269.069437 
" clip-path="url(#p716d0d5bcc)" style="fill: none; stroke: #ffffff; stroke-width: 0.8; stroke-linecap: round"/>
     </g>
     <g id="text_10">
      <!-- 1.0 -->
      <g style="fill: #262626" transform="translate(22.46125 272.218875) scale(0.088 -0.088)">
       <use xlink:href="#ArialMT-31"/>
       <use xlink:href="#ArialMT-2e" x="55.615234"/>
       <use xlink:href="#ArialMT-30" x="83.398438"/>
      </g>
     </g>
    </g>
    <g id="ytick_4">
     <g id="line2d_10">
      <path d="M 42.99325 232.109437 
L 600.99325 232.109437 
" clip-path="url(#p716d0d5bcc)" style="fill: none; stroke: #ffffff; stroke-width: 0.8; stroke-linecap: round"/>
     </g>
     <g id="text_11">
      <!-- 1.5 -->
      <g style="fill: #262626" transform="translate(22.46125 235.258875) scale(0.088 -0.088)">
       <use xlink:href="#ArialMT-31"/>
       <use xlink:href="#ArialMT-2e" x="55.615234"/>
       <use xlink:href="#ArialMT-35" x="83.398438"/>
      </g>
     </g>
    </g>
    <g id="ytick_5">
     <g id="line2d_11">
      <path d="M 42.99325 195.149437 
L 600.99325 195.149437 
" clip-path="url(#p716d0d5bcc)" style="fill: none; stroke: #ffffff; stroke-width: 0.8; stroke-linecap: round"/>
     </g>
     <g id="text_12">
      <!-- 2.0 -->
      <g style="fill: #262626" transform="translate(22.46125 198.298875) scale(0.088 -0.088)">
       <use xlink:href="#ArialMT-32"/>
       <use xlink:href="#ArialMT-2e" x="55.615234"/>
       <use xlink:href="#ArialMT-30" x="83.398438"/>
      </g>
     </g>
    </g>
    <g id="ytick_6">
     <g id="line2d_12">
      <path d="M 42.99325 158.189437 
L 600.99325 158.189437 
" clip-path="url(#p716d0d5bcc)" style="fill: none; stroke: #ffffff; stroke-width: 0.8; stroke-linecap: round"/>
     </g>
     <g id="text_13">
      <!-- 2.5 -->
      <g style="fill: #262626" transform="translate(22.46125 161.338875) scale(0.088 -0.088)">
       <use xlink:href="#ArialMT-32"/>
       <use xlink:href="#ArialMT-2e" x="55.615234"/>
       <use xlink:href="#ArialMT-35" x="83.398438"/>
      </g>
     </g>
    </g>
    <g id="ytick_7">
     <g id="line2d_13">
      <path d="M 42.99325 121.229437 
L 600.99325 121.229437 
" clip-path="url(#p716d0d5bcc)" style="fill: none; stroke: #ffffff; stroke-width: 0.8; stroke-linecap: round"/>
     </g>
     <g id="text_14">
      <!-- 3.0 -->
      <g style="fill: #262626" transform="translate(22.46125 124.378875) scale(0.088 -0.088)">
       <defs>
        <path id="ArialMT-33" d="M 269 1209 
L 831 1284 
Q 928 806 1161 595 
Q 1394 384 1728 384 
Q 2125 384 2398 659 
Q 2672 934 2672 1341 
Q 2672 1728 2419 1979 
Q 2166 2231 1775 2231 
Q 1616 2231 1378 2169 
L 1441 2663 
Q 1497 2656 1531 2656 
Q 1891 2656 2178 2843 
Q 2466 3031 2466 3422 
Q 2466 3731 2256 3934 
Q 2047 4138 1716 4138 
Q 1388 4138 1169 3931 
Q 950 3725 888 3313 
L 325 3413 
Q 428 3978 793 4289 
Q 1159 4600 1703 4600 
Q 2078 4600 2393 4439 
Q 2709 4278 2876 4000 
Q 3044 3722 3044 3409 
Q 3044 3113 2884 2869 
Q 2725 2625 2413 2481 
Q 2819 2388 3044 2092 
Q 3269 1797 3269 1353 
Q 3269 753 2831 336 
Q 2394 -81 1725 -81 
Q 1122 -81 723 278 
Q 325 638 269 1209 
z
" transform="scale(0.015625)"/>
       </defs>
       <use xlink:href="#ArialMT-33"/>
       <use xlink:href="#ArialMT-2e" x="55.615234"/>
       <use xlink:href="#ArialMT-30" x="83.398438"/>
      </g>
     </g>
    </g>
    <g id="ytick_8">
     <g id="line2d_14">
      <path d="M 42.99325 84.269437 
L 600.99325 84.269437 
" clip-path="url(#p716d0d5bcc)" style="fill: none; stroke: #ffffff; stroke-width: 0.8; stroke-linecap: round"/>
     </g>
     <g id="text_15">
      <!-- 3.5 -->
      <g style="fill: #262626" transform="translate(22.46125 87.418875) scale(0.088 -0.088)">
       <use xlink:href="#ArialMT-33"/>
       <use xlink:href="#ArialMT-2e" x="55.615234"/>
       <use xlink:href="#ArialMT-35" x="83.398438"/>
      </g>
     </g>
    </g>
    <g id="ytick_9">
     <g id="line2d_15">
      <path d="M 42.99325 47.309437 
L 600.99325 47.309437 
" clip-path="url(#p716d0d5bcc)" style="fill: none; stroke: #ffffff; stroke-width: 0.8; stroke-linecap: round"/>
     </g>
     <g id="text_16">
      <!-- 4.0 -->
      <g style="fill: #262626" transform="translate(22.46125 50.458875) scale(0.088 -0.088)">
       <use xlink:href="#ArialMT-34"/>
       <use xlink:href="#ArialMT-2e" x="55.615234"/>
       <use xlink:href="#ArialMT-30" x="83.398438"/>
      </g>
     </g>
    </g>
    <g id="ytick_10">
     <g id="line2d_16">
      <path d="M 42.99325 10.349437 
L 600.99325 10.349437 
" clip-path="url(#p716d0d5bcc)" style="fill: none; stroke: #ffffff; stroke-width: 0.8; stroke-linecap: round"/>
     </g>
     <g id="text_17">
      <!-- 4.5 -->
      <g style="fill: #262626" transform="translate(22.46125 13.498875) scale(0.088 -0.088)">
       <use xlink:href="#ArialMT-34"/>
       <use xlink:href="#ArialMT-2e" x="55.615234"/>
       <use xlink:href="#ArialMT-35" x="83.398438"/>
      </g>
     </g>
    </g>
    <g id="text_18">
     <!-- f(x) -->
     <g style="fill: #262626" transform="translate(15.935625 185.331937) rotate(-90) scale(0.12 -0.12)">
      <defs>
       <path id="ArialMT-66" d="M 556 0 
L 556 2881 
L 59 2881 
L 59 3319 
L 556 3319 
L 556 3672 
Q 556 4006 616 4169 
Q 697 4388 901 4523 
Q 1106 4659 1475 4659 
Q 1713 4659 2000 4603 
L 1916 4113 
Q 1741 4144 1584 4144 
Q 1328 4144 1222 4034 
Q 1116 3925 1116 3625 
L 1116 3319 
L 1763 3319 
L 1763 2881 
L 1116 2881 
L 1116 0 
L 556 0 
z
" transform="scale(0.015625)"/>
       <path id="ArialMT-28" d="M 1497 -1347 
Q 1031 -759 709 28 
Q 388 816 388 1659 
Q 388 2403 628 3084 
Q 909 3875 1497 4659 
L 1900 4659 
Q 1522 4009 1400 3731 
Q 1209 3300 1100 2831 
Q 966 2247 966 1656 
Q 966 153 1900 -1347 
L 1497 -1347 
z
" transform="scale(0.015625)"/>
       <path id="ArialMT-29" d="M 791 -1347 
L 388 -1347 
Q 1322 153 1322 1656 
Q 1322 2244 1188 2822 
Q 1081 3291 891 3722 
Q 769 4003 388 4659 
L 791 4659 
Q 1378 3875 1659 3084 
Q 1900 2403 1900 1659 
Q 1900 816 1576 28 
Q 1253 -759 791 -1347 
z
" transform="scale(0.015625)"/>
      </defs>
      <use xlink:href="#ArialMT-66"/>
      <use xlink:href="#ArialMT-28" x="27.783203"/>
      <use xlink:href="#ArialMT-78" x="61.083984"/>
      <use xlink:href="#ArialMT-29" x="111.083984"/>
     </g>
    </g>
   </g>
   <g id="line2d_17">
    <path d="M 70.905996 10.228326 
L 73.455105 107.095353 
L 76.004214 149.892005 
L 78.553323 175.333916 
L 81.102432 192.647794 
L 83.651541 205.39183 
L 86.200651 215.267491 
L 88.74976 223.204149 
L 91.298869 229.757978 
L 93.847978 235.284836 
L 96.397087 240.024373 
L 98.946197 244.144658 
L 101.495306 247.7675 
L 104.044415 250.983622 
L 106.593524 253.862164 
L 109.142633 256.456863 
L 111.691742 258.810196 
L 114.240852 260.956243 
L 116.789961 262.922704 
L 119.33907 264.732356 
L 124.437288 267.953867 
L 129.535507 270.738994 
L 134.633725 273.173361 
L 139.731943 275.320697 
L 144.830162 277.229532 
L 149.92838 278.937549 
L 157.575708 281.186486 
L 165.223035 283.126169 
L 172.870363 284.813326 
L 180.51769 286.290754 
L 190.714127 287.990276 
L 200.910564 289.433846 
L 211.107001 290.665173 
L 223.852546 291.955309 
L 236.598092 293.012761 
L 251.892747 294.023164 
L 267.187403 294.791864 
L 282.482058 295.348906 
L 300.325822 295.757845 
L 318.169586 295.925156 
L 336.013351 295.858445 
L 353.857115 295.554698 
L 371.700879 294.999886 
L 386.995534 294.304536 
L 402.290189 293.378771 
L 415.035735 292.404009 
L 427.781281 291.211874 
L 437.977718 290.07377 
L 448.174155 288.741026 
L 458.370591 287.175774 
L 466.017919 285.819379 
L 473.665246 284.276122 
L 481.312574 282.510132 
L 488.959901 280.47451 
L 494.05812 278.937549 
L 499.156338 277.229532 
L 504.254557 275.320697 
L 509.352775 273.173361 
L 514.450993 270.738994 
L 519.549212 267.953867 
L 524.64743 264.732356 
L 527.196539 262.922704 
L 529.745648 260.956243 
L 532.294758 258.810196 
L 534.843867 256.456863 
L 537.392976 253.862164 
L 539.942085 250.983622 
L 542.491194 247.7675 
L 545.040303 244.144658 
L 547.589413 240.024373 
L 550.138522 235.284836 
L 552.687631 229.757978 
L 555.23674 223.204149 
L 557.785849 215.267491 
L 560.334959 205.39183 
L 562.884068 192.647794 
L 565.433177 175.333916 
L 567.982286 149.892005 
L 570.531395 107.095353 
L 573.080504 10.228326 
L 573.080504 10.228326 
" clip-path="url(#p716d0d5bcc)" style="fill: none; stroke: #0173b2; stroke-width: 1.2; stroke-linecap: round"/>
   </g>
   <g id="line2d_18">
    <path d="M 68.356886 342.989437 
L 134.633725 342.881738 
L 157.575708 342.635773 
L 175.419472 342.256078 
L 190.714127 341.738359 
L 206.008782 340.985451 
L 218.754328 340.133638 
L 231.499874 339.035411 
L 241.696311 337.95031 
L 251.892747 336.655852 
L 262.089184 335.126695 
L 272.285621 333.336053 
L 279.932948 331.80454 
L 287.580276 330.09764 
L 295.227604 328.202451 
L 302.874931 326.105608 
L 310.522259 323.79329 
L 318.169586 321.251219 
L 325.816914 318.464656 
L 333.464241 315.418406 
L 341.111569 312.096816 
L 348.758896 308.483773 
L 356.406224 304.562707 
L 364.053552 300.316591 
L 371.700879 295.727937 
L 379.348207 290.778802 
L 386.995534 285.450782 
L 394.642862 279.725017 
L 399.74108 275.677349 
L 404.839298 271.438491 
L 409.937517 267.002516 
L 415.035735 262.363405 
L 420.133954 257.515049 
L 425.232172 252.451249 
L 430.33039 247.165716 
L 435.428609 241.652068 
L 440.526827 235.903836 
L 445.625045 229.914458 
L 450.723264 223.677282 
L 455.821482 217.185565 
L 460.9197 210.432476 
L 466.017919 203.411091 
L 471.116137 196.114395 
L 476.214356 188.535285 
L 481.312574 180.666567 
L 486.410792 172.500953 
L 491.509011 164.03107 
L 496.607229 155.24945 
L 501.705447 146.148537 
L 506.803666 136.720684 
L 511.901884 126.958152 
L 517.000102 116.853113 
L 522.098321 106.39765 
L 527.196539 95.583751 
L 532.294758 84.403318 
L 537.392976 72.84816 
L 542.491194 60.909997 
L 547.589413 48.580457 
L 552.687631 35.851078 
L 557.785849 22.713308 
L 562.884068 9.158504 
L 566.599153 -1 
L 566.599153 -1 
" clip-path="url(#p716d0d5bcc)" style="fill: none; stroke: #de8f05; stroke-width: 1.2; stroke-linecap: round"/>
   </g>
   <g id="line2d_19">
    <path d="M 68.356886 121.229437 
L 81.102432 132.23316 
L 93.847978 142.956889 
L 106.593524 153.400625 
L 119.33907 163.564368 
L 132.084616 173.448119 
L 144.830162 183.051876 
L 157.575708 192.375641 
L 170.321254 201.419413 
L 183.0668 210.183191 
L 195.812345 218.666977 
L 208.557891 226.87077 
L 221.303437 234.79457 
L 234.048983 242.438377 
L 246.794529 249.802191 
L 259.540075 256.886012 
L 272.285621 263.68984 
L 285.031167 270.213675 
L 297.776713 276.457518 
L 310.522259 282.421367 
L 323.267805 288.105223 
L 336.013351 293.509087 
L 348.758896 298.632958 
L 361.504442 303.476835 
L 374.249988 308.04072 
L 386.995534 312.324612 
L 399.74108 316.328511 
L 412.486626 320.052417 
L 425.232172 323.49633 
L 437.977718 326.66025 
L 450.723264 329.544177 
L 463.46881 332.148111 
L 476.214356 334.472053 
L 488.959901 336.516001 
L 501.705447 338.279956 
L 511.901884 339.489526 
L 522.098321 340.5199 
L 532.294758 341.371078 
L 542.491194 342.043061 
L 552.687631 342.535849 
L 562.884068 342.849441 
L 573.080504 342.983838 
L 575.629614 342.989437 
L 575.629614 342.989437 
" clip-path="url(#p716d0d5bcc)" style="fill: none; stroke: #029e73; stroke-width: 1.2; stroke-linecap: round"/>
   </g>
   <g id="line2d_20">
    <path d="M 68.356886 342.989437 
L 78.553323 334.253658 
L 88.74976 325.87627 
L 98.946197 317.857272 
L 109.142633 310.196666 
L 119.33907 302.89445 
L 129.535507 295.950625 
L 137.182834 290.977951 
L 144.830162 286.206871 
L 152.477489 281.637387 
L 160.124817 277.269497 
L 167.772144 273.103202 
L 175.419472 269.138502 
L 183.0668 265.375397 
L 190.714127 261.813887 
L 198.361455 258.453972 
L 206.008782 255.295652 
L 213.65611 252.338927 
L 221.303437 249.583796 
L 228.950765 247.030261 
L 236.598092 244.67832 
L 244.24542 242.527974 
L 251.892747 240.579224 
L 259.540075 238.832068 
L 267.187403 237.286507 
L 274.83473 235.942541 
L 282.482058 234.80017 
L 290.129385 233.859393 
L 297.776713 233.120212 
L 305.42404 232.582626 
L 313.071368 232.246634 
L 320.718695 232.112237 
L 328.366023 232.179436 
L 336.013351 232.448229 
L 343.660678 232.918617 
L 351.308006 233.5906 
L 358.955333 234.464178 
L 366.602661 235.539351 
L 374.249988 236.816119 
L 381.897316 238.294481 
L 389.544643 239.974439 
L 397.191971 241.855991 
L 404.839298 243.939139 
L 412.486626 246.223881 
L 420.133954 248.710218 
L 427.781281 251.39815 
L 435.428609 254.287677 
L 443.075936 257.378799 
L 450.723264 260.671516 
L 458.370591 264.165828 
L 466.017919 267.861735 
L 473.665246 271.759236 
L 481.312574 275.858333 
L 488.959901 280.159024 
L 496.607229 284.66131 
L 504.254557 289.365192 
L 511.901884 294.270668 
L 519.549212 299.377739 
L 529.745648 306.500759 
L 539.942085 313.98217 
L 550.138522 321.821972 
L 560.334959 330.020165 
L 570.531395 338.576749 
L 575.629614 342.989437 
L 575.629614 342.989437 
" clip-path="url(#p716d0d5bcc)" style="fill: none; stroke: #d55e00; stroke-width: 1.2; stroke-linecap: round"/>
   </g>
   <g id="line2d_21">
    <path d="M 68.356886 342.989437 
L 73.455105 321.584561 
L 78.553323 301.891856 
L 83.651541 283.833503 
L 88.74976 267.333801 
L 91.298869 259.64536 
L 93.847978 252.319139 
L 96.397087 245.346258 
L 98.946197 238.717966 
L 101.495306 232.425637 
L 104.044415 226.46077 
L 106.593524 220.81499 
L 109.142633 215.480046 
L 111.691742 210.447808 
L 114.240852 205.71027 
L 116.789961 201.259547 
L 119.33907 197.087872 
L 121.888179 193.187602 
L 124.437288 189.551209 
L 126.986398 186.171283 
L 129.535507 183.040534 
L 132.084616 180.151785 
L 134.633725 177.497976 
L 137.182834 175.072161 
L 139.731943 172.867506 
L 142.281053 170.877294 
L 144.830162 169.094914 
L 147.379271 167.513872 
L 149.92838 166.127779 
L 152.477489 164.930358 
L 155.026599 163.915442 
L 157.575708 163.076967 
L 160.124817 162.40898 
L 162.673926 161.905632 
L 165.223035 161.561179 
L 167.772144 161.369982 
L 170.321254 161.326505 
L 172.870363 161.425315 
L 175.419472 161.661079 
L 177.968581 162.028566 
L 180.51769 162.522645 
L 183.0668 163.138284 
L 188.165018 164.714604 
L 193.263236 166.719217 
L 198.361455 169.115348 
L 203.459673 171.867723 
L 208.557891 174.942544 
L 213.65611 178.307464 
L 218.754328 181.931555 
L 223.852546 185.785286 
L 231.499874 191.935212 
L 239.147202 198.449335 
L 246.794529 205.244796 
L 256.990966 214.611734 
L 274.83473 231.397998 
L 290.129385 245.71266 
L 300.325822 255.015456 
L 310.522259 264.017136 
L 318.169586 270.524253 
L 325.816914 276.791645 
L 333.464241 282.796493 
L 341.111569 288.519997 
L 348.758896 293.94717 
L 356.406224 299.066631 
L 364.053552 303.870397 
L 371.700879 308.353676 
L 379.348207 312.514659 
L 386.995534 316.354314 
L 394.642862 319.876178 
L 402.290189 323.086152 
L 409.937517 325.99229 
L 417.584844 328.604594 
L 425.232172 330.934807 
L 432.879499 332.996205 
L 440.526827 334.803392 
L 448.174155 336.372087 
L 455.821482 337.718925 
L 463.46881 338.861242 
L 471.116137 339.816874 
L 481.312574 340.831992 
L 491.509011 341.590554 
L 501.705447 342.135042 
L 514.450993 342.576864 
L 529.745648 342.854421 
L 550.138522 342.976007 
L 575.629614 342.989437 
L 575.629614 342.989437 
" clip-path="url(#p716d0d5bcc)" style="fill: none; stroke: #cc78bc; stroke-width: 1.2; stroke-linecap: round"/>
   </g>
   <g id="patch_3">
    <path d="M 42.99325 342.989437 
L 42.99325 10.349437 
" style="fill: none; stroke: #ffffff; stroke-linejoin: miter; stroke-linecap: square"/>
   </g>
   <g id="patch_4">
    <path d="M 600.99325 342.989437 
L 600.99325 10.349437 
" style="fill: none; stroke: #ffffff; stroke-linejoin: miter; stroke-linecap: square"/>
   </g>
   <g id="patch_5">
    <path d="M 42.99325 342.989437 
L 600.99325 342.989437 
" style="fill: none; stroke: #ffffff; stroke-linejoin: miter; stroke-linecap: square"/>
   </g>
   <g id="patch_6">
    <path d="M 42.99325 10.349437 
L 600.99325 10.349437 
" style="fill: none; stroke: #ffffff; stroke-linejoin: miter; stroke-linecap: square"/>
   </g>
   <g id="legend_1">
    <g id="patch_7">
     <path d="M 277.90525 79.869437 
L 366.08125 79.869437 
Q 367.84125 79.869437 367.84125 78.109437 
L 367.84125 16.509437 
Q 367.84125 14.749437 366.08125 14.749437 
L 277.90525 14.749437 
Q 276.14525 14.749437 276.14525 16.509437 
L 276.14525 78.109437 
Q 276.14525 79.869437 277.90525 79.869437 
z
" style="fill: #eaeaf2; opacity: 0.8; stroke: #cccccc; stroke-width: 0.8; stroke-linejoin: miter"/>
    </g>
    <g id="line2d_22">
     <path d="M 279.66525 21.525437 
L 288.46525 21.525437 
L 297.26525 21.525437 
" style="fill: none; stroke: #0173b2; stroke-width: 1.2; stroke-linecap: round"/>
    </g>
    <g id="text_19">
     <!-- $\alpha$ = 0.5, $\beta$ = 0.5 -->
     <g style="fill: #262626" transform="translate(304.30525 24.605437) scale(0.088 -0.088)">
      <defs>
       <path id="Cmmi10-ae" d="M 1288 -72 
Q 984 -72 748 72 
Q 513 216 384 459 
Q 256 703 256 1013 
Q 256 1447 498 1872 
Q 741 2297 1142 2562 
Q 1544 2828 1984 2828 
Q 2309 2828 2556 2658 
Q 2803 2488 2931 2205 
Q 3059 1922 3059 1600 
L 3066 1172 
Q 3284 1475 3436 1801 
Q 3588 2128 3669 2478 
Q 3681 2516 3719 2516 
L 3794 2516 
Q 3853 2516 3853 2456 
Q 3853 2450 3847 2438 
Q 3772 2144 3659 1873 
Q 3547 1603 3395 1350 
Q 3244 1097 3066 891 
Q 3066 97 3250 97 
Q 3369 97 3445 167 
Q 3522 238 3580 341 
Q 3638 444 3653 447 
L 3731 447 
Q 3781 447 3781 384 
Q 3781 225 3598 76 
Q 3416 -72 3238 -72 
Q 3006 -72 2853 78 
Q 2700 228 2644 469 
Q 2344 213 1994 70 
Q 1644 -72 1288 -72 
z
M 1300 97 
Q 1984 97 2613 659 
Q 2609 697 2603 751 
Q 2597 806 2597 813 
L 2597 1503 
Q 2597 2663 1972 2663 
Q 1597 2663 1315 2342 
Q 1034 2022 892 1576 
Q 750 1131 750 763 
Q 750 484 892 290 
Q 1034 97 1300 97 
z
" transform="scale(0.015625)"/>
       <path id="ArialMT-20" transform="scale(0.015625)"/>
       <path id="ArialMT-3d" d="M 3381 2694 
L 356 2694 
L 356 3219 
L 3381 3219 
L 3381 2694 
z
M 3381 1303 
L 356 1303 
L 356 1828 
L 3381 1828 
L 3381 1303 
z
" transform="scale(0.015625)"/>
       <path id="ArialMT-2c" d="M 569 0 
L 569 641 
L 1209 641 
L 1209 0 
Q 1209 -353 1084 -570 
Q 959 -788 688 -906 
L 531 -666 
Q 709 -588 793 -436 
Q 878 -284 888 0 
L 569 0 
z
" transform="scale(0.015625)"/>
       <path id="Cmmi10-af" d="M 172 -1241 
Q 153 -1241 137 -1219 
Q 122 -1197 122 -1178 
L 1106 2778 
Q 1191 3097 1353 3397 
Q 1516 3697 1761 3955 
Q 2006 4213 2300 4363 
Q 2594 4513 2925 4513 
Q 3163 4513 3355 4408 
Q 3547 4303 3658 4114 
Q 3769 3925 3769 3688 
Q 3769 3459 3681 3251 
Q 3594 3044 3437 2864 
Q 3281 2684 3103 2572 
Q 3206 2506 3287 2404 
Q 3369 2303 3419 2192 
Q 3469 2081 3497 1945 
Q 3525 1809 3525 1691 
Q 3525 1363 3384 1044 
Q 3244 725 3001 465 
Q 2759 206 2446 54 
Q 2134 -97 1806 -97 
Q 1447 -97 1159 100 
Q 872 297 763 634 
L 300 -1203 
Q 300 -1241 250 -1241 
L 172 -1241 
z
M 1819 78 
Q 2106 78 2339 267 
Q 2572 456 2723 742 
Q 2875 1028 2954 1348 
Q 3034 1669 3034 1931 
Q 3034 2256 2847 2444 
Q 2628 2363 2419 2363 
Q 1913 2363 1913 2534 
Q 1913 2759 2491 2759 
Q 2697 2759 2869 2694 
Q 3006 2800 3118 3006 
Q 3231 3213 3289 3438 
Q 3347 3663 3347 3859 
Q 3347 4069 3236 4208 
Q 3125 4347 2913 4347 
Q 2522 4347 2186 4106 
Q 1850 3866 1619 3498 
Q 1388 3131 1288 2741 
L 934 1325 
Q 900 1178 891 997 
Q 891 597 1153 337 
Q 1416 78 1819 78 
z
M 2106 2553 
Q 2203 2528 2425 2528 
Q 2534 2528 2644 2566 
Q 2638 2572 2619 2572 
Q 2550 2591 2472 2591 
Q 2181 2591 2106 2553 
z
" transform="scale(0.015625)"/>
      </defs>
      <use xlink:href="#Cmmi10-ae" transform="translate(0 0.125)"/>
      <use xlink:href="#ArialMT-20" transform="translate(63.916016 0.125)"/>
      <use xlink:href="#ArialMT-3d" transform="translate(91.699219 0.125)"/>
      <use xlink:href="#ArialMT-20" transform="translate(150.097656 0.125)"/>
      <use xlink:href="#ArialMT-30" transform="translate(177.880859 0.125)"/>
      <use xlink:href="#ArialMT-2e" transform="translate(233.496094 0.125)"/>
      <use xlink:href="#ArialMT-35" transform="translate(261.279297 0.125)"/>
      <use xlink:href="#ArialMT-2c" transform="translate(316.894531 0.125)"/>
      <use xlink:href="#ArialMT-20" transform="translate(344.677734 0.125)"/>
      <use xlink:href="#Cmmi10-af" transform="translate(372.460938 0.125)"/>
      <use xlink:href="#ArialMT-20" transform="translate(428.955078 0.125)"/>
      <use xlink:href="#ArialMT-3d" transform="translate(456.738281 0.125)"/>
      <use xlink:href="#ArialMT-20" transform="translate(515.136719 0.125)"/>
      <use xlink:href="#ArialMT-30" transform="translate(542.919922 0.125)"/>
      <use xlink:href="#ArialMT-2e" transform="translate(598.535156 0.125)"/>
      <use xlink:href="#ArialMT-35" transform="translate(626.318359 0.125)"/>
     </g>
    </g>
    <g id="line2d_23">
     <path d="M 279.66525 34.021437 
L 288.46525 34.021437 
L 297.26525 34.021437 
" style="fill: none; stroke: #de8f05; stroke-width: 1.2; stroke-linecap: round"/>
    </g>
    <g id="text_20">
     <!-- $\alpha$ = 5.0, $\beta$ = 1.0 -->
     <g style="fill: #262626" transform="translate(304.30525 37.101437) scale(0.088 -0.088)">
      <use xlink:href="#Cmmi10-ae" transform="translate(0 0.125)"/>
      <use xlink:href="#ArialMT-20" transform="translate(63.916016 0.125)"/>
      <use xlink:href="#ArialMT-3d" transform="translate(91.699219 0.125)"/>
      <use xlink:href="#ArialMT-20" transform="translate(150.097656 0.125)"/>
      <use xlink:href="#ArialMT-35" transform="translate(177.880859 0.125)"/>
      <use xlink:href="#ArialMT-2e" transform="translate(233.496094 0.125)"/>
      <use xlink:href="#ArialMT-30" transform="translate(261.279297 0.125)"/>
      <use xlink:href="#ArialMT-2c" transform="translate(316.894531 0.125)"/>
      <use xlink:href="#ArialMT-20" transform="translate(344.677734 0.125)"/>
      <use xlink:href="#Cmmi10-af" transform="translate(372.460938 0.125)"/>
      <use xlink:href="#ArialMT-20" transform="translate(428.955078 0.125)"/>
      <use xlink:href="#ArialMT-3d" transform="translate(456.738281 0.125)"/>
      <use xlink:href="#ArialMT-20" transform="translate(515.136719 0.125)"/>
      <use xlink:href="#ArialMT-31" transform="translate(542.919922 0.125)"/>
      <use xlink:href="#ArialMT-2e" transform="translate(598.535156 0.125)"/>
      <use xlink:href="#ArialMT-30" transform="translate(626.318359 0.125)"/>
     </g>
    </g>
    <g id="line2d_24">
     <path d="M 279.66525 46.517437 
L 288.46525 46.517437 
L 297.26525 46.517437 
" style="fill: none; stroke: #029e73; stroke-width: 1.2; stroke-linecap: round"/>
    </g>
    <g id="text_21">
     <!-- $\alpha$ = 1.0, $\beta$ = 3.0 -->
     <g style="fill: #262626" transform="translate(304.30525 49.597437) scale(0.088 -0.088)">
      <use xlink:href="#Cmmi10-ae" transform="translate(0 0.125)"/>
      <use xlink:href="#ArialMT-20" transform="translate(63.916016 0.125)"/>
      <use xlink:href="#ArialMT-3d" transform="translate(91.699219 0.125)"/>
      <use xlink:href="#ArialMT-20" transform="translate(150.097656 0.125)"/>
      <use xlink:href="#ArialMT-31" transform="translate(177.880859 0.125)"/>
      <use xlink:href="#ArialMT-2e" transform="translate(233.496094 0.125)"/>
      <use xlink:href="#ArialMT-30" transform="translate(261.279297 0.125)"/>
      <use xlink:href="#ArialMT-2c" transform="translate(316.894531 0.125)"/>
      <use xlink:href="#ArialMT-20" transform="translate(344.677734 0.125)"/>
      <use xlink:href="#Cmmi10-af" transform="translate(372.460938 0.125)"/>
      <use xlink:href="#ArialMT-20" transform="translate(428.955078 0.125)"/>
      <use xlink:href="#ArialMT-3d" transform="translate(456.738281 0.125)"/>
      <use xlink:href="#ArialMT-20" transform="translate(515.136719 0.125)"/>
      <use xlink:href="#ArialMT-33" transform="translate(542.919922 0.125)"/>
      <use xlink:href="#ArialMT-2e" transform="translate(598.535156 0.125)"/>
      <use xlink:href="#ArialMT-30" transform="translate(626.318359 0.125)"/>
     </g>
    </g>
    <g id="line2d_25">
     <path d="M 279.66525 59.013437 
L 288.46525 59.013437 
L 297.26525 59.013437 
" style="fill: none; stroke: #d55e00; stroke-width: 1.2; stroke-linecap: round"/>
    </g>
    <g id="text_22">
     <!-- $\alpha$ = 2.0, $\beta$ = 2.0 -->
     <g style="fill: #262626" transform="translate(304.30525 62.093437) scale(0.088 -0.088)">
      <use xlink:href="#Cmmi10-ae" transform="translate(0 0.125)"/>
      <use xlink:href="#ArialMT-20" transform="translate(63.916016 0.125)"/>
      <use xlink:href="#ArialMT-3d" transform="translate(91.699219 0.125)"/>
      <use xlink:href="#ArialMT-20" transform="translate(150.097656 0.125)"/>
      <use xlink:href="#ArialMT-32" transform="translate(177.880859 0.125)"/>
      <use xlink:href="#ArialMT-2e" transform="translate(233.496094 0.125)"/>
      <use xlink:href="#ArialMT-30" transform="translate(261.279297 0.125)"/>
      <use xlink:href="#ArialMT-2c" transform="translate(316.894531 0.125)"/>
      <use xlink:href="#ArialMT-20" transform="translate(344.677734 0.125)"/>
      <use xlink:href="#Cmmi10-af" transform="translate(372.460938 0.125)"/>
      <use xlink:href="#ArialMT-20" transform="translate(428.955078 0.125)"/>
      <use xlink:href="#ArialMT-3d" transform="translate(456.738281 0.125)"/>
      <use xlink:href="#ArialMT-20" transform="translate(515.136719 0.125)"/>
      <use xlink:href="#ArialMT-32" transform="translate(542.919922 0.125)"/>
      <use xlink:href="#ArialMT-2e" transform="translate(598.535156 0.125)"/>
      <use xlink:href="#ArialMT-30" transform="translate(626.318359 0.125)"/>
     </g>
    </g>
    <g id="line2d_26">
     <path d="M 279.66525 71.509437 
L 288.46525 71.509437 
L 297.26525 71.509437 
" style="fill: none; stroke: #cc78bc; stroke-width: 1.2; stroke-linecap: round"/>
    </g>
    <g id="text_23">
     <!-- $\alpha$ = 2.0, $\beta$ = 5.0 -->
     <g style="fill: #262626" transform="translate(304.30525 74.589437) scale(0.088 -0.088)">
      <use xlink:href="#Cmmi10-ae" transform="translate(0 0.125)"/>
      <use xlink:href="#ArialMT-20" transform="translate(63.916016 0.125)"/>
      <use xlink:href="#ArialMT-3d" transform="translate(91.699219 0.125)"/>
      <use xlink:href="#ArialMT-20" transform="translate(150.097656 0.125)"/>
      <use xlink:href="#ArialMT-32" transform="translate(177.880859 0.125)"/>
      <use xlink:href="#ArialMT-2e" transform="translate(233.496094 0.125)"/>
      <use xlink:href="#ArialMT-30" transform="translate(261.279297 0.125)"/>
      <use xlink:href="#ArialMT-2c" transform="translate(316.894531 0.125)"/>
      <use xlink:href="#ArialMT-20" transform="translate(344.677734 0.125)"/>
      <use xlink:href="#Cmmi10-af" transform="translate(372.460938 0.125)"/>
      <use xlink:href="#ArialMT-20" transform="translate(428.955078 0.125)"/>
      <use xlink:href="#ArialMT-3d" transform="translate(456.738281 0.125)"/>
      <use xlink:href="#ArialMT-20" transform="translate(515.136719 0.125)"/>
      <use xlink:href="#ArialMT-35" transform="translate(542.919922 0.125)"/>
      <use xlink:href="#ArialMT-2e" transform="translate(598.535156 0.125)"/>
      <use xlink:href="#ArialMT-30" transform="translate(626.318359 0.125)"/>
     </g>
    </g>
   </g>
  </g>
 </g>
 <defs>
  <clipPath id="p716d0d5bcc">
   <rect x="42.99325" y="10.349437" width="558" height="332.64"/>
  </clipPath>
 </defs>
</svg>