<?xml version="1.0" encoding="utf-8" standalone="no"?>
<!DOCTYPE svg PUBLIC "-//W3C//DTD SVG 1.1//EN"
  "http://www.w3.org/Graphics/SVG/1.1/DTD/svg11.dtd">
<svg xmlns:xlink="http://www.w3.org/1999/xlink" width="1970.091406pt" height="446.382094pt" viewBox="0 0 1970.091406 446.382094" xmlns="http://www.w3.org/2000/svg" version="1.1">
 <metadata>
  <rdf:RDF xmlns:dc="http://purl.org/dc/elements/1.1/" xmlns:cc="http://creativecommons.org/ns#" xmlns:rdf="http://www.w3.org/1999/02/22-rdf-syntax-ns#">
   <cc:Work>
    <dc:type rdf:resource="http://purl.org/dc/dcmitype/StillImage"/>
    <dc:date>2023-05-30T23:16:43.894386</dc:date>
    <dc:format>image/svg+xml</dc:format>
    <dc:creator>
     <cc:Agent>
      <dc:title>Matplotlib v3.7.1, https://matplotlib.org/</dc:title>
     </cc:Agent>
    </dc:creator>
   </cc:Work>
  </rdf:RDF>
 </metadata>
 <defs>
  <style type="text/css">*{stroke-linejoin: round; stroke-linecap: butt}</style>
 </defs>
 <g id="figure_1">
  <g id="patch_1">
   <path d="M 0 446.382094 
L 1970.091406 446.382094 
L 1970.091406 0 
L 0 0 
z
" style="fill: #ffffff"/>
  </g>
  <g id="axes_1">
   <g id="patch_2">
    <path d="M 37.791406 404.361 
L 603.997289 404.361 
L 603.997289 21.825 
L 37.791406 21.825 
z
" style="fill: #eaeaf2"/>
   </g>
   <g id="matplotlib.axis_1">
    <g id="xtick_1">
     <g id="line2d_1">
      <path d="M 63.528037 404.361 
L 63.528037 21.825 
" clip-path="url(#pdacaa56323)" style="fill: none; stroke: #ffffff; stroke-linecap: round"/>
     </g>
     <g id="text_1">
      <!-- 0 -->
      <g style="fill: #262626" transform="translate(60.469522 421.734594) scale(0.11 -0.11)">
       <defs>
        <path id="ArialMT-30" d="M 266 2259 
Q 266 3072 433 3567 
Q 600 4063 929 4331 
Q 1259 4600 1759 4600 
Q 2128 4600 2406 4451 
Q 2684 4303 2865 4023 
Q 3047 3744 3150 3342 
Q 3253 2941 3253 2259 
Q 3253 1453 3087 958 
Q 2922 463 2592 192 
Q 2263 -78 1759 -78 
Q 1097 -78 719 397 
Q 266 969 266 2259 
z
M 844 2259 
Q 844 1131 1108 757 
Q 1372 384 1759 384 
Q 2147 384 2411 759 
Q 2675 1134 2675 2259 
Q 2675 3391 2411 3762 
Q 2147 4134 1753 4134 
Q 1366 4134 1134 3806 
Q 844 3388 844 2259 
z
" transform="scale(0.015625)"/>
       </defs>
       <use xlink:href="#ArialMT-30"/>
      </g>
     </g>
    </g>
    <g id="xtick_2">
     <g id="line2d_2">
      <path d="M 127.869615 404.361 
L 127.869615 21.825 
" clip-path="url(#pdacaa56323)" style="fill: none; stroke: #ffffff; stroke-linecap: round"/>
     </g>
     <g id="text_2">
      <!-- 500 -->
      <g style="fill: #262626" transform="translate(118.694068 421.734594) scale(0.11 -0.11)">
       <defs>
        <path id="ArialMT-35" d="M 266 1200 
L 856 1250 
Q 922 819 1161 601 
Q 1400 384 1738 384 
Q 2144 384 2425 690 
Q 2706 997 2706 1503 
Q 2706 1984 2436 2262 
Q 2166 2541 1728 2541 
Q 1456 2541 1237 2417 
Q 1019 2294 894 2097 
L 366 2166 
L 809 4519 
L 3088 4519 
L 3088 3981 
L 1259 3981 
L 1013 2750 
Q 1425 3038 1878 3038 
Q 2478 3038 2890 2622 
Q 3303 2206 3303 1553 
Q 3303 931 2941 478 
Q 2500 -78 1738 -78 
Q 1113 -78 717 272 
Q 322 622 266 1200 
z
" transform="scale(0.015625)"/>
       </defs>
       <use xlink:href="#ArialMT-35"/>
       <use xlink:href="#ArialMT-30" x="55.615234"/>
       <use xlink:href="#ArialMT-30" x="111.230469"/>
      </g>
     </g>
    </g>
    <g id="xtick_3">
     <g id="line2d_3">
      <path d="M 192.211192 404.361 
L 192.211192 21.825 
" clip-path="url(#pdacaa56323)" style="fill: none; stroke: #ffffff; stroke-linecap: round"/>
     </g>
     <g id="text_3">
      <!-- 1000 -->
      <g style="fill: #262626" transform="translate(179.97713 421.734594) scale(0.11 -0.11)">
       <defs>
        <path id="ArialMT-31" d="M 2384 0 
L 1822 0 
L 1822 3584 
Q 1619 3391 1289 3197 
Q 959 3003 697 2906 
L 697 3450 
Q 1169 3672 1522 3987 
Q 1875 4303 2022 4600 
L 2384 4600 
L 2384 0 
z
" transform="scale(0.015625)"/>
       </defs>
       <use xlink:href="#ArialMT-31"/>
       <use xlink:href="#ArialMT-30" x="55.615234"/>
       <use xlink:href="#ArialMT-30" x="111.230469"/>
       <use xlink:href="#ArialMT-30" x="166.845703"/>
      </g>
     </g>
    </g>
    <g id="xtick_4">
     <g id="line2d_4">
      <path d="M 256.55277 404.361 
L 256.55277 21.825 
" clip-path="url(#pdacaa56323)" style="fill: none; stroke: #ffffff; stroke-linecap: round"/>
     </g>
     <g id="text_4">
      <!-- 1500 -->
      <g style="fill: #262626" transform="translate(244.318707 421.734594) scale(0.11 -0.11)">
       <use xlink:href="#ArialMT-31"/>
       <use xlink:href="#ArialMT-35" x="55.615234"/>
       <use xlink:href="#ArialMT-30" x="111.230469"/>
       <use xlink:href="#ArialMT-30" x="166.845703"/>
      </g>
     </g>
    </g>
    <g id="xtick_5">
     <g id="line2d_5">
      <path d="M 320.894347 404.361 
L 320.894347 21.825 
" clip-path="url(#pdacaa56323)" style="fill: none; stroke: #ffffff; stroke-linecap: round"/>
     </g>
     <g id="text_5">
      <!-- 2000 -->
      <g style="fill: #262626" transform="translate(308.660285 421.734594) scale(0.11 -0.11)">
       <defs>
        <path id="ArialMT-32" d="M 3222 541 
L 3222 0 
L 194 0 
Q 188 203 259 391 
Q 375 700 629 1000 
Q 884 1300 1366 1694 
Q 2113 2306 2375 2664 
Q 2638 3022 2638 3341 
Q 2638 3675 2398 3904 
Q 2159 4134 1775 4134 
Q 1369 4134 1125 3890 
Q 881 3647 878 3216 
L 300 3275 
Q 359 3922 746 4261 
Q 1134 4600 1788 4600 
Q 2447 4600 2831 4234 
Q 3216 3869 3216 3328 
Q 3216 3053 3103 2787 
Q 2991 2522 2730 2228 
Q 2469 1934 1863 1422 
Q 1356 997 1212 845 
Q 1069 694 975 541 
L 3222 541 
z
" transform="scale(0.015625)"/>
       </defs>
       <use xlink:href="#ArialMT-32"/>
       <use xlink:href="#ArialMT-30" x="55.615234"/>
       <use xlink:href="#ArialMT-30" x="111.230469"/>
       <use xlink:href="#ArialMT-30" x="166.845703"/>
      </g>
     </g>
    </g>
    <g id="xtick_6">
     <g id="line2d_6">
      <path d="M 385.235925 404.361 
L 385.235925 21.825 
" clip-path="url(#pdacaa56323)" style="fill: none; stroke: #ffffff; stroke-linecap: round"/>
     </g>
     <g id="text_6">
      <!-- 2500 -->
      <g style="fill: #262626" transform="translate(373.001862 421.734594) scale(0.11 -0.11)">
       <use xlink:href="#ArialMT-32"/>
       <use xlink:href="#ArialMT-35" x="55.615234"/>
       <use xlink:href="#ArialMT-30" x="111.230469"/>
       <use xlink:href="#ArialMT-30" x="166.845703"/>
      </g>
     </g>
    </g>
    <g id="xtick_7">
     <g id="line2d_7">
      <path d="M 449.577503 404.361 
L 449.577503 21.825 
" clip-path="url(#pdacaa56323)" style="fill: none; stroke: #ffffff; stroke-linecap: round"/>
     </g>
     <g id="text_7">
      <!-- 3000 -->
      <g style="fill: #262626" transform="translate(437.34344 421.734594) scale(0.11 -0.11)">
       <defs>
        <path id="ArialMT-33" d="M 269 1209 
L 831 1284 
Q 928 806 1161 595 
Q 1394 384 1728 384 
Q 2125 384 2398 659 
Q 2672 934 2672 1341 
Q 2672 1728 2419 1979 
Q 2166 2231 1775 2231 
Q 1616 2231 1378 2169 
L 1441 2663 
Q 1497 2656 1531 2656 
Q 1891 2656 2178 2843 
Q 2466 3031 2466 3422 
Q 2466 3731 2256 3934 
Q 2047 4138 1716 4138 
Q 1388 4138 1169 3931 
Q 950 3725 888 3313 
L 325 3413 
Q 428 3978 793 4289 
Q 1159 4600 1703 4600 
Q 2078 4600 2393 4439 
Q 2709 4278 2876 4000 
Q 3044 3722 3044 3409 
Q 3044 3113 2884 2869 
Q 2725 2625 2413 2481 
Q 2819 2388 3044 2092 
Q 3269 1797 3269 1353 
Q 3269 753 2831 336 
Q 2394 -81 1725 -81 
Q 1122 -81 723 278 
Q 325 638 269 1209 
z
" transform="scale(0.015625)"/>
       </defs>
       <use xlink:href="#ArialMT-33"/>
       <use xlink:href="#ArialMT-30" x="55.615234"/>
       <use xlink:href="#ArialMT-30" x="111.230469"/>
       <use xlink:href="#ArialMT-30" x="166.845703"/>
      </g>
     </g>
    </g>
    <g id="xtick_8">
     <g id="line2d_8">
      <path d="M 513.91908 404.361 
L 513.91908 21.825 
" clip-path="url(#pdacaa56323)" style="fill: none; stroke: #ffffff; stroke-linecap: round"/>
     </g>
     <g id="text_8">
      <!-- 3500 -->
      <g style="fill: #262626" transform="translate(501.685018 421.734594) scale(0.11 -0.11)">
       <use xlink:href="#ArialMT-33"/>
       <use xlink:href="#ArialMT-35" x="55.615234"/>
       <use xlink:href="#ArialMT-30" x="111.230469"/>
       <use xlink:href="#ArialMT-30" x="166.845703"/>
      </g>
     </g>
    </g>
    <g id="xtick_9">
     <g id="line2d_9">
      <path d="M 578.260658 404.361 
L 578.260658 21.825 
" clip-path="url(#pdacaa56323)" style="fill: none; stroke: #ffffff; stroke-linecap: round"/>
     </g>
     <g id="text_9">
      <!-- 4000 -->
      <g style="fill: #262626" transform="translate(566.026595 421.734594) scale(0.11 -0.11)">
       <defs>
        <path id="ArialMT-34" d="M 2069 0 
L 2069 1097 
L 81 1097 
L 81 1613 
L 2172 4581 
L 2631 4581 
L 2631 1613 
L 3250 1613 
L 3250 1097 
L 2631 1097 
L 2631 0 
L 2069 0 
z
M 2069 1613 
L 2069 3678 
L 634 1613 
L 2069 1613 
z
" transform="scale(0.015625)"/>
       </defs>
       <use xlink:href="#ArialMT-34"/>
       <use xlink:href="#ArialMT-30" x="55.615234"/>
       <use xlink:href="#ArialMT-30" x="111.230469"/>
       <use xlink:href="#ArialMT-30" x="166.845703"/>
      </g>
     </g>
    </g>
    <g id="text_10">
     <!-- Rank (all chains) -->
     <g style="fill: #262626" transform="translate(276.213097 436.656469) scale(0.12 -0.12)">
      <defs>
       <path id="ArialMT-52" d="M 503 0 
L 503 4581 
L 2534 4581 
Q 3147 4581 3465 4457 
Q 3784 4334 3975 4021 
Q 4166 3709 4166 3331 
Q 4166 2844 3850 2509 
Q 3534 2175 2875 2084 
Q 3116 1969 3241 1856 
Q 3506 1613 3744 1247 
L 4541 0 
L 3778 0 
L 3172 953 
Q 2906 1366 2734 1584 
Q 2563 1803 2427 1890 
Q 2291 1978 2150 2013 
Q 2047 2034 1813 2034 
L 1109 2034 
L 1109 0 
L 503 0 
z
M 1109 2559 
L 2413 2559 
Q 2828 2559 3062 2645 
Q 3297 2731 3419 2920 
Q 3541 3109 3541 3331 
Q 3541 3656 3305 3865 
Q 3069 4075 2559 4075 
L 1109 4075 
L 1109 2559 
z
" transform="scale(0.015625)"/>
       <path id="ArialMT-61" d="M 2588 409 
Q 2275 144 1986 34 
Q 1697 -75 1366 -75 
Q 819 -75 525 192 
Q 231 459 231 875 
Q 231 1119 342 1320 
Q 453 1522 633 1644 
Q 813 1766 1038 1828 
Q 1203 1872 1538 1913 
Q 2219 1994 2541 2106 
Q 2544 2222 2544 2253 
Q 2544 2597 2384 2738 
Q 2169 2928 1744 2928 
Q 1347 2928 1158 2789 
Q 969 2650 878 2297 
L 328 2372 
Q 403 2725 575 2942 
Q 747 3159 1072 3276 
Q 1397 3394 1825 3394 
Q 2250 3394 2515 3294 
Q 2781 3194 2906 3042 
Q 3031 2891 3081 2659 
Q 3109 2516 3109 2141 
L 3109 1391 
Q 3109 606 3145 398 
Q 3181 191 3288 0 
L 2700 0 
Q 2613 175 2588 409 
z
M 2541 1666 
Q 2234 1541 1622 1453 
Q 1275 1403 1131 1340 
Q 988 1278 909 1158 
Q 831 1038 831 891 
Q 831 666 1001 516 
Q 1172 366 1500 366 
Q 1825 366 2078 508 
Q 2331 650 2450 897 
Q 2541 1088 2541 1459 
L 2541 1666 
z
" transform="scale(0.015625)"/>
       <path id="ArialMT-6e" d="M 422 0 
L 422 3319 
L 928 3319 
L 928 2847 
Q 1294 3394 1984 3394 
Q 2284 3394 2536 3286 
Q 2788 3178 2913 3003 
Q 3038 2828 3088 2588 
Q 3119 2431 3119 2041 
L 3119 0 
L 2556 0 
L 2556 2019 
Q 2556 2363 2490 2533 
Q 2425 2703 2258 2804 
Q 2091 2906 1866 2906 
Q 1506 2906 1245 2678 
Q 984 2450 984 1813 
L 984 0 
L 422 0 
z
" transform="scale(0.015625)"/>
       <path id="ArialMT-6b" d="M 425 0 
L 425 4581 
L 988 4581 
L 988 1969 
L 2319 3319 
L 3047 3319 
L 1778 2088 
L 3175 0 
L 2481 0 
L 1384 1697 
L 988 1316 
L 988 0 
L 425 0 
z
" transform="scale(0.015625)"/>
       <path id="ArialMT-20" transform="scale(0.015625)"/>
       <path id="ArialMT-28" d="M 1497 -1347 
Q 1031 -759 709 28 
Q 388 816 388 1659 
Q 388 2403 628 3084 
Q 909 3875 1497 4659 
L 1900 4659 
Q 1522 4009 1400 3731 
Q 1209 3300 1100 2831 
Q 966 2247 966 1656 
Q 966 153 1900 -1347 
L 1497 -1347 
z
" transform="scale(0.015625)"/>
       <path id="ArialMT-6c" d="M 409 0 
L 409 4581 
L 972 4581 
L 972 0 
L 409 0 
z
" transform="scale(0.015625)"/>
       <path id="ArialMT-63" d="M 2588 1216 
L 3141 1144 
Q 3050 572 2676 248 
Q 2303 -75 1759 -75 
Q 1078 -75 664 370 
Q 250 816 250 1647 
Q 250 2184 428 2587 
Q 606 2991 970 3192 
Q 1334 3394 1763 3394 
Q 2303 3394 2647 3120 
Q 2991 2847 3088 2344 
L 2541 2259 
Q 2463 2594 2264 2762 
Q 2066 2931 1784 2931 
Q 1359 2931 1093 2626 
Q 828 2322 828 1663 
Q 828 994 1084 691 
Q 1341 388 1753 388 
Q 2084 388 2306 591 
Q 2528 794 2588 1216 
z
" transform="scale(0.015625)"/>
       <path id="ArialMT-68" d="M 422 0 
L 422 4581 
L 984 4581 
L 984 2938 
Q 1378 3394 1978 3394 
Q 2347 3394 2619 3248 
Q 2891 3103 3008 2847 
Q 3125 2591 3125 2103 
L 3125 0 
L 2563 0 
L 2563 2103 
Q 2563 2525 2380 2717 
Q 2197 2909 1863 2909 
Q 1613 2909 1392 2779 
Q 1172 2650 1078 2428 
Q 984 2206 984 1816 
L 984 0 
L 422 0 
z
" transform="scale(0.015625)"/>
       <path id="ArialMT-69" d="M 425 3934 
L 425 4581 
L 988 4581 
L 988 3934 
L 425 3934 
z
M 425 0 
L 425 3319 
L 988 3319 
L 988 0 
L 425 0 
z
" transform="scale(0.015625)"/>
       <path id="ArialMT-73" d="M 197 991 
L 753 1078 
Q 800 744 1014 566 
Q 1228 388 1613 388 
Q 2000 388 2187 545 
Q 2375 703 2375 916 
Q 2375 1106 2209 1216 
Q 2094 1291 1634 1406 
Q 1016 1563 777 1677 
Q 538 1791 414 1992 
Q 291 2194 291 2438 
Q 291 2659 392 2848 
Q 494 3038 669 3163 
Q 800 3259 1026 3326 
Q 1253 3394 1513 3394 
Q 1903 3394 2198 3281 
Q 2494 3169 2634 2976 
Q 2775 2784 2828 2463 
L 2278 2388 
Q 2241 2644 2061 2787 
Q 1881 2931 1553 2931 
Q 1166 2931 1000 2803 
Q 834 2675 834 2503 
Q 834 2394 903 2306 
Q 972 2216 1119 2156 
Q 1203 2125 1616 2013 
Q 2213 1853 2448 1751 
Q 2684 1650 2818 1456 
Q 2953 1263 2953 975 
Q 2953 694 2789 445 
Q 2625 197 2315 61 
Q 2006 -75 1616 -75 
Q 969 -75 630 194 
Q 291 463 197 991 
z
" transform="scale(0.015625)"/>
       <path id="ArialMT-29" d="M 791 -1347 
L 388 -1347 
Q 1322 153 1322 1656 
Q 1322 2244 1188 2822 
Q 1081 3291 891 3722 
Q 769 4003 388 4659 
L 791 4659 
Q 1378 3875 1659 3084 
Q 1900 2403 1900 1659 
Q 1900 816 1576 28 
Q 1253 -759 791 -1347 
z
" transform="scale(0.015625)"/>
      </defs>
      <use xlink:href="#ArialMT-52"/>
      <use xlink:href="#ArialMT-61" x="72.216797"/>
      <use xlink:href="#ArialMT-6e" x="127.832031"/>
      <use xlink:href="#ArialMT-6b" x="183.447266"/>
      <use xlink:href="#ArialMT-20" x="233.447266"/>
      <use xlink:href="#ArialMT-28" x="261.230469"/>
      <use xlink:href="#ArialMT-61" x="294.53125"/>
      <use xlink:href="#ArialMT-6c" x="350.146484"/>
      <use xlink:href="#ArialMT-6c" x="372.363281"/>
      <use xlink:href="#ArialMT-20" x="394.580078"/>
      <use xlink:href="#ArialMT-63" x="422.363281"/>
      <use xlink:href="#ArialMT-68" x="472.363281"/>
      <use xlink:href="#ArialMT-61" x="527.978516"/>
      <use xlink:href="#ArialMT-69" x="583.59375"/>
      <use xlink:href="#ArialMT-6e" x="605.810547"/>
      <use xlink:href="#ArialMT-73" x="661.425781"/>
      <use xlink:href="#ArialMT-29" x="711.425781"/>
     </g>
    </g>
   </g>
   <g id="matplotlib.axis_2">
    <g id="ytick_1">
     <g id="line2d_10">
      <path d="M 37.791406 404.361 
L 603.997289 404.361 
" clip-path="url(#pdacaa56323)" style="fill: none; stroke: #ffffff; stroke-linecap: round"/>
     </g>
     <g id="text_11">
      <!-- 0 -->
      <g style="fill: #262626" transform="translate(22.174375 408.297797) scale(0.11 -0.11)">
       <use xlink:href="#ArialMT-30"/>
      </g>
     </g>
    </g>
    <g id="ytick_2">
     <g id="line2d_11">
      <path d="M 37.791406 173.046714 
L 603.997289 173.046714 
" clip-path="url(#pdacaa56323)" style="fill: none; stroke: #ffffff; stroke-linecap: round"/>
     </g>
     <g id="text_12">
      <!-- 1 -->
      <g style="fill: #262626" transform="translate(22.174375 176.983511) scale(0.11 -0.11)">
       <use xlink:href="#ArialMT-31"/>
      </g>
     </g>
    </g>
    <g id="text_13">
     <!-- Chain -->
     <g style="fill: #262626" transform="translate(15.789375 228.768937) rotate(-90) scale(0.12 -0.12)">
      <defs>
       <path id="ArialMT-43" d="M 3763 1606 
L 4369 1453 
Q 4178 706 3683 314 
Q 3188 -78 2472 -78 
Q 1731 -78 1267 223 
Q 803 525 561 1097 
Q 319 1669 319 2325 
Q 319 3041 592 3573 
Q 866 4106 1370 4382 
Q 1875 4659 2481 4659 
Q 3169 4659 3637 4309 
Q 4106 3959 4291 3325 
L 3694 3184 
Q 3534 3684 3231 3912 
Q 2928 4141 2469 4141 
Q 1941 4141 1586 3887 
Q 1231 3634 1087 3207 
Q 944 2781 944 2328 
Q 944 1744 1114 1308 
Q 1284 872 1643 656 
Q 2003 441 2422 441 
Q 2931 441 3284 734 
Q 3638 1028 3763 1606 
z
" transform="scale(0.015625)"/>
      </defs>
      <use xlink:href="#ArialMT-43"/>
      <use xlink:href="#ArialMT-68" x="72.216797"/>
      <use xlink:href="#ArialMT-61" x="127.832031"/>
      <use xlink:href="#ArialMT-69" x="183.447266"/>
      <use xlink:href="#ArialMT-6e" x="205.664062"/>
     </g>
    </g>
   </g>
   <g id="patch_3">
    <path d="M 63.528037 404.361 
L 85.907716 404.361 
L 85.907716 289.976086 
L 63.528037 289.976086 
z
" clip-path="url(#pdacaa56323)" style="fill: #0173b2; stroke: #eaeaf2; stroke-linejoin: miter"/>
   </g>
   <g id="patch_4">
    <path d="M 85.907716 404.361 
L 108.287396 404.361 
L 108.287396 274.0154 
L 85.907716 274.0154 
z
" clip-path="url(#pdacaa56323)" style="fill: #0173b2; stroke: #eaeaf2; stroke-linejoin: miter"/>
   </g>
   <g id="patch_5">
    <path d="M 108.287396 404.361 
L 130.667075 404.361 
L 130.667075 283.3258 
L 108.287396 283.3258 
z
" clip-path="url(#pdacaa56323)" style="fill: #0173b2; stroke: #eaeaf2; stroke-linejoin: miter"/>
   </g>
   <g id="patch_6">
    <path d="M 130.667075 404.361 
L 153.046754 404.361 
L 153.046754 304.606714 
L 130.667075 304.606714 
z
" clip-path="url(#pdacaa56323)" style="fill: #0173b2; stroke: #eaeaf2; stroke-linejoin: miter"/>
   </g>
   <g id="patch_7">
    <path d="M 153.046754 404.361 
L 175.426433 404.361 
L 175.426433 289.976086 
L 153.046754 289.976086 
z
" clip-path="url(#pdacaa56323)" style="fill: #0173b2; stroke: #eaeaf2; stroke-linejoin: miter"/>
   </g>
   <g id="patch_8">
    <path d="M 175.426433 404.361 
L 197.806112 404.361 
L 197.806112 283.3258 
L 175.426433 283.3258 
z
" clip-path="url(#pdacaa56323)" style="fill: #0173b2; stroke: #eaeaf2; stroke-linejoin: miter"/>
   </g>
   <g id="patch_9">
    <path d="M 197.806112 404.361 
L 220.185791 404.361 
L 220.185791 278.005571 
L 197.806112 278.005571 
z
" clip-path="url(#pdacaa56323)" style="fill: #0173b2; stroke: #eaeaf2; stroke-linejoin: miter"/>
   </g>
   <g id="patch_10">
    <path d="M 220.185791 404.361 
L 242.56547 404.361 
L 242.56547 271.355286 
L 220.185791 271.355286 
z
" clip-path="url(#pdacaa56323)" style="fill: #0173b2; stroke: #eaeaf2; stroke-linejoin: miter"/>
   </g>
   <g id="patch_11">
    <path d="M 242.56547 404.361 
L 264.94515 404.361 
L 264.94515 299.286486 
L 242.56547 299.286486 
z
" clip-path="url(#pdacaa56323)" style="fill: #0173b2; stroke: #eaeaf2; stroke-linejoin: miter"/>
   </g>
   <g id="patch_12">
    <path d="M 264.94515 404.361 
L 287.324829 404.361 
L 287.324829 304.606714 
L 264.94515 304.606714 
z
" clip-path="url(#pdacaa56323)" style="fill: #0173b2; stroke: #eaeaf2; stroke-linejoin: miter"/>
   </g>
   <g id="patch_13">
    <path d="M 287.324829 404.361 
L 309.704508 404.361 
L 309.704508 283.3258 
L 287.324829 283.3258 
z
" clip-path="url(#pdacaa56323)" style="fill: #0173b2; stroke: #eaeaf2; stroke-linejoin: miter"/>
   </g>
   <g id="patch_14">
    <path d="M 309.704508 404.361 
L 332.084187 404.361 
L 332.084187 305.936771 
L 309.704508 305.936771 
z
" clip-path="url(#pdacaa56323)" style="fill: #0173b2; stroke: #eaeaf2; stroke-linejoin: miter"/>
   </g>
   <g id="patch_15">
    <path d="M 332.084187 404.361 
L 354.463866 404.361 
L 354.463866 297.956429 
L 332.084187 297.956429 
z
" clip-path="url(#pdacaa56323)" style="fill: #0173b2; stroke: #eaeaf2; stroke-linejoin: miter"/>
   </g>
   <g id="patch_16">
    <path d="M 354.463866 404.361 
L 376.843545 404.361 
L 376.843545 304.606714 
L 354.463866 304.606714 
z
" clip-path="url(#pdacaa56323)" style="fill: #0173b2; stroke: #eaeaf2; stroke-linejoin: miter"/>
   </g>
   <g id="patch_17">
    <path d="M 376.843545 404.361 
L 399.223224 404.361 
L 399.223224 291.306143 
L 376.843545 291.306143 
z
" clip-path="url(#pdacaa56323)" style="fill: #0173b2; stroke: #eaeaf2; stroke-linejoin: miter"/>
   </g>
   <g id="patch_18">
    <path d="M 399.223224 404.361 
L 421.602904 404.361 
L 421.602904 287.315971 
L 399.223224 287.315971 
z
" clip-path="url(#pdacaa56323)" style="fill: #0173b2; stroke: #eaeaf2; stroke-linejoin: miter"/>
   </g>
   <g id="patch_19">
    <path d="M 421.602904 404.361 
L 443.982583 404.361 
L 443.982583 287.315971 
L 421.602904 287.315971 
z
" clip-path="url(#pdacaa56323)" style="fill: #0173b2; stroke: #eaeaf2; stroke-linejoin: miter"/>
   </g>
   <g id="patch_20">
    <path d="M 443.982583 404.361 
L 466.362262 404.361 
L 466.362262 279.335629 
L 443.982583 279.335629 
z
" clip-path="url(#pdacaa56323)" style="fill: #0173b2; stroke: #eaeaf2; stroke-linejoin: miter"/>
   </g>
   <g id="patch_21">
    <path d="M 466.362262 404.361 
L 488.741941 404.361 
L 488.741941 287.315971 
L 466.362262 287.315971 
z
" clip-path="url(#pdacaa56323)" style="fill: #0173b2; stroke: #eaeaf2; stroke-linejoin: miter"/>
   </g>
   <g id="patch_22">
    <path d="M 488.741941 404.361 
L 511.12162 404.361 
L 511.12162 283.3258 
L 488.741941 283.3258 
z
" clip-path="url(#pdacaa56323)" style="fill: #0173b2; stroke: #eaeaf2; stroke-linejoin: miter"/>
   </g>
   <g id="patch_23">
    <path d="M 511.12162 404.361 
L 533.501299 404.361 
L 533.501299 305.936771 
L 511.12162 305.936771 
z
" clip-path="url(#pdacaa56323)" style="fill: #0173b2; stroke: #eaeaf2; stroke-linejoin: miter"/>
   </g>
   <g id="patch_24">
    <path d="M 533.501299 404.361 
L 555.880978 404.361 
L 555.880978 270.025229 
L 533.501299 270.025229 
z
" clip-path="url(#pdacaa56323)" style="fill: #0173b2; stroke: #eaeaf2; stroke-linejoin: miter"/>
   </g>
   <g id="patch_25">
    <path d="M 555.880978 404.361 
L 578.260658 404.361 
L 578.260658 278.005571 
L 555.880978 278.005571 
z
" clip-path="url(#pdacaa56323)" style="fill: #0173b2; stroke: #eaeaf2; stroke-linejoin: miter"/>
   </g>
   <g id="patch_26">
    <path d="M 63.528037 173.046714 
L 85.907716 173.046714 
L 85.907716 57.331743 
L 63.528037 57.331743 
z
" clip-path="url(#pdacaa56323)" style="fill: #de8f05; stroke: #eaeaf2; stroke-linejoin: miter"/>
   </g>
   <g id="patch_27">
    <path d="M 85.907716 173.046714 
L 108.287396 173.046714 
L 108.287396 71.962371 
L 85.907716 71.962371 
z
" clip-path="url(#pdacaa56323)" style="fill: #de8f05; stroke: #eaeaf2; stroke-linejoin: miter"/>
   </g>
   <g id="patch_28">
    <path d="M 108.287396 173.046714 
L 130.667075 173.046714 
L 130.667075 62.651971 
L 108.287396 62.651971 
z
" clip-path="url(#pdacaa56323)" style="fill: #de8f05; stroke: #eaeaf2; stroke-linejoin: miter"/>
   </g>
   <g id="patch_29">
    <path d="M 130.667075 173.046714 
L 153.046754 173.046714 
L 153.046754 41.371057 
L 130.667075 41.371057 
z
" clip-path="url(#pdacaa56323)" style="fill: #de8f05; stroke: #eaeaf2; stroke-linejoin: miter"/>
   </g>
   <g id="patch_30">
    <path d="M 153.046754 173.046714 
L 175.426433 173.046714 
L 175.426433 56.001686 
L 153.046754 56.001686 
z
" clip-path="url(#pdacaa56323)" style="fill: #de8f05; stroke: #eaeaf2; stroke-linejoin: miter"/>
   </g>
   <g id="patch_31">
    <path d="M 175.426433 173.046714 
L 197.806112 173.046714 
L 197.806112 62.651971 
L 175.426433 62.651971 
z
" clip-path="url(#pdacaa56323)" style="fill: #de8f05; stroke: #eaeaf2; stroke-linejoin: miter"/>
   </g>
   <g id="patch_32">
    <path d="M 197.806112 173.046714 
L 220.185791 173.046714 
L 220.185791 67.9722 
L 197.806112 67.9722 
z
" clip-path="url(#pdacaa56323)" style="fill: #de8f05; stroke: #eaeaf2; stroke-linejoin: miter"/>
   </g>
   <g id="patch_33">
    <path d="M 220.185791 173.046714 
L 242.56547 173.046714 
L 242.56547 74.622486 
L 220.185791 74.622486 
z
" clip-path="url(#pdacaa56323)" style="fill: #de8f05; stroke: #eaeaf2; stroke-linejoin: miter"/>
   </g>
   <g id="patch_34">
    <path d="M 242.56547 173.046714 
L 264.94515 173.046714 
L 264.94515 46.691286 
L 242.56547 46.691286 
z
" clip-path="url(#pdacaa56323)" style="fill: #de8f05; stroke: #eaeaf2; stroke-linejoin: miter"/>
   </g>
   <g id="patch_35">
    <path d="M 264.94515 173.046714 
L 287.324829 173.046714 
L 287.324829 41.371057 
L 264.94515 41.371057 
z
" clip-path="url(#pdacaa56323)" style="fill: #de8f05; stroke: #eaeaf2; stroke-linejoin: miter"/>
   </g>
   <g id="patch_36">
    <path d="M 287.324829 173.046714 
L 309.704508 173.046714 
L 309.704508 62.651971 
L 287.324829 62.651971 
z
" clip-path="url(#pdacaa56323)" style="fill: #de8f05; stroke: #eaeaf2; stroke-linejoin: miter"/>
   </g>
   <g id="patch_37">
    <path d="M 309.704508 173.046714 
L 332.084187 173.046714 
L 332.084187 41.371057 
L 309.704508 41.371057 
z
" clip-path="url(#pdacaa56323)" style="fill: #de8f05; stroke: #eaeaf2; stroke-linejoin: miter"/>
   </g>
   <g id="patch_38">
    <path d="M 332.084187 173.046714 
L 354.463866 173.046714 
L 354.463866 48.021343 
L 332.084187 48.021343 
z
" clip-path="url(#pdacaa56323)" style="fill: #de8f05; stroke: #eaeaf2; stroke-linejoin: miter"/>
   </g>
   <g id="patch_39">
    <path d="M 354.463866 173.046714 
L 376.843545 173.046714 
L 376.843545 41.371057 
L 354.463866 41.371057 
z
" clip-path="url(#pdacaa56323)" style="fill: #de8f05; stroke: #eaeaf2; stroke-linejoin: miter"/>
   </g>
   <g id="patch_40">
    <path d="M 376.843545 173.046714 
L 399.223224 173.046714 
L 399.223224 54.671629 
L 376.843545 54.671629 
z
" clip-path="url(#pdacaa56323)" style="fill: #de8f05; stroke: #eaeaf2; stroke-linejoin: miter"/>
   </g>
   <g id="patch_41">
    <path d="M 399.223224 173.046714 
L 421.602904 173.046714 
L 421.602904 58.6618 
L 399.223224 58.6618 
z
" clip-path="url(#pdacaa56323)" style="fill: #de8f05; stroke: #eaeaf2; stroke-linejoin: miter"/>
   </g>
   <g id="patch_42">
    <path d="M 421.602904 173.046714 
L 443.982583 173.046714 
L 443.982583 58.6618 
L 421.602904 58.6618 
z
" clip-path="url(#pdacaa56323)" style="fill: #de8f05; stroke: #eaeaf2; stroke-linejoin: miter"/>
   </g>
   <g id="patch_43">
    <path d="M 443.982583 173.046714 
L 466.362262 173.046714 
L 466.362262 66.642143 
L 443.982583 66.642143 
z
" clip-path="url(#pdacaa56323)" style="fill: #de8f05; stroke: #eaeaf2; stroke-linejoin: miter"/>
   </g>
   <g id="patch_44">
    <path d="M 466.362262 173.046714 
L 488.741941 173.046714 
L 488.741941 58.6618 
L 466.362262 58.6618 
z
" clip-path="url(#pdacaa56323)" style="fill: #de8f05; stroke: #eaeaf2; stroke-linejoin: miter"/>
   </g>
   <g id="patch_45">
    <path d="M 488.741941 173.046714 
L 511.12162 173.046714 
L 511.12162 62.651971 
L 488.741941 62.651971 
z
" clip-path="url(#pdacaa56323)" style="fill: #de8f05; stroke: #eaeaf2; stroke-linejoin: miter"/>
   </g>
   <g id="patch_46">
    <path d="M 511.12162 173.046714 
L 533.501299 173.046714 
L 533.501299 40.041 
L 511.12162 40.041 
z
" clip-path="url(#pdacaa56323)" style="fill: #de8f05; stroke: #eaeaf2; stroke-linejoin: miter"/>
   </g>
   <g id="patch_47">
    <path d="M 533.501299 173.046714 
L 555.880978 173.046714 
L 555.880978 75.952543 
L 533.501299 75.952543 
z
" clip-path="url(#pdacaa56323)" style="fill: #de8f05; stroke: #eaeaf2; stroke-linejoin: miter"/>
   </g>
   <g id="patch_48">
    <path d="M 555.880978 173.046714 
L 578.260658 173.046714 
L 578.260658 67.9722 
L 555.880978 67.9722 
z
" clip-path="url(#pdacaa56323)" style="fill: #de8f05; stroke: #eaeaf2; stroke-linejoin: miter"/>
   </g>
   <g id="line2d_12">
    <path d="M 37.791406 288.703857 
L 603.997289 288.703857 
" clip-path="url(#pdacaa56323)" style="fill: none; stroke-dasharray: 5.55,2.4; stroke-dashoffset: 0; stroke: #1a1a1a; stroke-width: 1.5"/>
   </g>
   <g id="line2d_13">
    <path d="M 37.791406 57.389571 
L 603.997289 57.389571 
" clip-path="url(#pdacaa56323)" style="fill: none; stroke-dasharray: 5.55,2.4; stroke-dashoffset: 0; stroke: #1a1a1a; stroke-width: 1.5"/>
   </g>
   <g id="patch_49">
    <path d="M 37.791406 404.361 
L 37.791406 21.825 
" style="fill: none; stroke: #ffffff; stroke-width: 1.25; stroke-linejoin: miter; stroke-linecap: square"/>
   </g>
   <g id="patch_50">
    <path d="M 603.997289 404.361 
L 603.997289 21.825 
" style="fill: none; stroke: #ffffff; stroke-width: 1.25; stroke-linejoin: miter; stroke-linecap: square"/>
   </g>
   <g id="patch_51">
    <path d="M 37.791406 404.361 
L 603.997289 404.361 
" style="fill: none; stroke: #ffffff; stroke-width: 1.25; stroke-linejoin: miter; stroke-linecap: square"/>
   </g>
   <g id="patch_52">
    <path d="M 37.791406 21.825 
L 603.997289 21.825 
" style="fill: none; stroke: #ffffff; stroke-width: 1.25; stroke-linejoin: miter; stroke-linecap: square"/>
   </g>
   <g id="text_14">
    <!-- good_chains -->
    <g style="fill: #262626" transform="translate(286.868722 15.825) scale(0.12 -0.12)">
     <defs>
      <path id="ArialMT-67" d="M 319 -275 
L 866 -356 
Q 900 -609 1056 -725 
Q 1266 -881 1628 -881 
Q 2019 -881 2231 -725 
Q 2444 -569 2519 -288 
Q 2563 -116 2559 434 
Q 2191 0 1641 0 
Q 956 0 581 494 
Q 206 988 206 1678 
Q 206 2153 378 2554 
Q 550 2956 876 3175 
Q 1203 3394 1644 3394 
Q 2231 3394 2613 2919 
L 2613 3319 
L 3131 3319 
L 3131 450 
Q 3131 -325 2973 -648 
Q 2816 -972 2473 -1159 
Q 2131 -1347 1631 -1347 
Q 1038 -1347 672 -1080 
Q 306 -813 319 -275 
z
M 784 1719 
Q 784 1066 1043 766 
Q 1303 466 1694 466 
Q 2081 466 2343 764 
Q 2606 1063 2606 1700 
Q 2606 2309 2336 2618 
Q 2066 2928 1684 2928 
Q 1309 2928 1046 2623 
Q 784 2319 784 1719 
z
" transform="scale(0.015625)"/>
      <path id="ArialMT-6f" d="M 213 1659 
Q 213 2581 725 3025 
Q 1153 3394 1769 3394 
Q 2453 3394 2887 2945 
Q 3322 2497 3322 1706 
Q 3322 1066 3130 698 
Q 2938 331 2570 128 
Q 2203 -75 1769 -75 
Q 1072 -75 642 372 
Q 213 819 213 1659 
z
M 791 1659 
Q 791 1022 1069 705 
Q 1347 388 1769 388 
Q 2188 388 2466 706 
Q 2744 1025 2744 1678 
Q 2744 2294 2464 2611 
Q 2184 2928 1769 2928 
Q 1347 2928 1069 2612 
Q 791 2297 791 1659 
z
" transform="scale(0.015625)"/>
      <path id="ArialMT-64" d="M 2575 0 
L 2575 419 
Q 2259 -75 1647 -75 
Q 1250 -75 917 144 
Q 584 363 401 755 
Q 219 1147 219 1656 
Q 219 2153 384 2558 
Q 550 2963 881 3178 
Q 1213 3394 1622 3394 
Q 1922 3394 2156 3267 
Q 2391 3141 2538 2938 
L 2538 4581 
L 3097 4581 
L 3097 0 
L 2575 0 
z
M 797 1656 
Q 797 1019 1065 703 
Q 1334 388 1700 388 
Q 2069 388 2326 689 
Q 2584 991 2584 1609 
Q 2584 2291 2321 2609 
Q 2059 2928 1675 2928 
Q 1300 2928 1048 2622 
Q 797 2316 797 1656 
z
" transform="scale(0.015625)"/>
      <path id="ArialMT-5f" d="M -97 -1272 
L -97 -866 
L 3631 -866 
L 3631 -1272 
L -97 -1272 
z
" transform="scale(0.015625)"/>
     </defs>
     <use xlink:href="#ArialMT-67"/>
     <use xlink:href="#ArialMT-6f" x="55.615234"/>
     <use xlink:href="#ArialMT-6f" x="111.230469"/>
     <use xlink:href="#ArialMT-64" x="166.845703"/>
     <use xlink:href="#ArialMT-5f" x="222.460938"/>
     <use xlink:href="#ArialMT-63" x="278.076172"/>
     <use xlink:href="#ArialMT-68" x="328.076172"/>
     <use xlink:href="#ArialMT-61" x="383.691406"/>
     <use xlink:href="#ArialMT-69" x="439.306641"/>
     <use xlink:href="#ArialMT-6e" x="461.523438"/>
     <use xlink:href="#ArialMT-73" x="517.138672"/>
    </g>
   </g>
  </g>
  <g id="axes_2">
   <g id="patch_53">
    <path d="M 717.238465 404.361 
L 1283.444347 404.361 
L 1283.444347 21.825 
L 717.238465 21.825 
z
" style="fill: #eaeaf2"/>
   </g>
   <g id="matplotlib.axis_3">
    <g id="xtick_10">
     <g id="line2d_14">
      <path d="M 742.975096 404.361 
L 742.975096 21.825 
" clip-path="url(#pa55fef19c3)" style="fill: none; stroke: #ffffff; stroke-linecap: round"/>
     </g>
     <g id="text_15">
      <!-- 0 -->
      <g style="fill: #262626" transform="translate(739.91658 421.734594) scale(0.11 -0.11)">
       <use xlink:href="#ArialMT-30"/>
      </g>
     </g>
    </g>
    <g id="xtick_11">
     <g id="line2d_15">
      <path d="M 807.316674 404.361 
L 807.316674 21.825 
" clip-path="url(#pa55fef19c3)" style="fill: none; stroke: #ffffff; stroke-linecap: round"/>
     </g>
     <g id="text_16">
      <!-- 500 -->
      <g style="fill: #262626" transform="translate(798.141127 421.734594) scale(0.11 -0.11)">
       <use xlink:href="#ArialMT-35"/>
       <use xlink:href="#ArialMT-30" x="55.615234"/>
       <use xlink:href="#ArialMT-30" x="111.230469"/>
      </g>
     </g>
    </g>
    <g id="xtick_12">
     <g id="line2d_16">
      <path d="M 871.658251 404.361 
L 871.658251 21.825 
" clip-path="url(#pa55fef19c3)" style="fill: none; stroke: #ffffff; stroke-linecap: round"/>
     </g>
     <g id="text_17">
      <!-- 1000 -->
      <g style="fill: #262626" transform="translate(859.424189 421.734594) scale(0.11 -0.11)">
       <use xlink:href="#ArialMT-31"/>
       <use xlink:href="#ArialMT-30" x="55.615234"/>
       <use xlink:href="#ArialMT-30" x="111.230469"/>
       <use xlink:href="#ArialMT-30" x="166.845703"/>
      </g>
     </g>
    </g>
    <g id="xtick_13">
     <g id="line2d_17">
      <path d="M 935.999829 404.361 
L 935.999829 21.825 
" clip-path="url(#pa55fef19c3)" style="fill: none; stroke: #ffffff; stroke-linecap: round"/>
     </g>
     <g id="text_18">
      <!-- 1500 -->
      <g style="fill: #262626" transform="translate(923.765766 421.734594) scale(0.11 -0.11)">
       <use xlink:href="#ArialMT-31"/>
       <use xlink:href="#ArialMT-35" x="55.615234"/>
       <use xlink:href="#ArialMT-30" x="111.230469"/>
       <use xlink:href="#ArialMT-30" x="166.845703"/>
      </g>
     </g>
    </g>
    <g id="xtick_14">
     <g id="line2d_18">
      <path d="M 1000.341406 404.361 
L 1000.341406 21.825 
" clip-path="url(#pa55fef19c3)" style="fill: none; stroke: #ffffff; stroke-linecap: round"/>
     </g>
     <g id="text_19">
      <!-- 2000 -->
      <g style="fill: #262626" transform="translate(988.107344 421.734594) scale(0.11 -0.11)">
       <use xlink:href="#ArialMT-32"/>
       <use xlink:href="#ArialMT-30" x="55.615234"/>
       <use xlink:href="#ArialMT-30" x="111.230469"/>
       <use xlink:href="#ArialMT-30" x="166.845703"/>
      </g>
     </g>
    </g>
    <g id="xtick_15">
     <g id="line2d_19">
      <path d="M 1064.682984 404.361 
L 1064.682984 21.825 
" clip-path="url(#pa55fef19c3)" style="fill: none; stroke: #ffffff; stroke-linecap: round"/>
     </g>
     <g id="text_20">
      <!-- 2500 -->
      <g style="fill: #262626" transform="translate(1052.448921 421.734594) scale(0.11 -0.11)">
       <use xlink:href="#ArialMT-32"/>
       <use xlink:href="#ArialMT-35" x="55.615234"/>
       <use xlink:href="#ArialMT-30" x="111.230469"/>
       <use xlink:href="#ArialMT-30" x="166.845703"/>
      </g>
     </g>
    </g>
    <g id="xtick_16">
     <g id="line2d_20">
      <path d="M 1129.024561 404.361 
L 1129.024561 21.825 
" clip-path="url(#pa55fef19c3)" style="fill: none; stroke: #ffffff; stroke-linecap: round"/>
     </g>
     <g id="text_21">
      <!-- 3000 -->
      <g style="fill: #262626" transform="translate(1116.790499 421.734594) scale(0.11 -0.11)">
       <use xlink:href="#ArialMT-33"/>
       <use xlink:href="#ArialMT-30" x="55.615234"/>
       <use xlink:href="#ArialMT-30" x="111.230469"/>
       <use xlink:href="#ArialMT-30" x="166.845703"/>
      </g>
     </g>
    </g>
    <g id="xtick_17">
     <g id="line2d_21">
      <path d="M 1193.366139 404.361 
L 1193.366139 21.825 
" clip-path="url(#pa55fef19c3)" style="fill: none; stroke: #ffffff; stroke-linecap: round"/>
     </g>
     <g id="text_22">
      <!-- 3500 -->
      <g style="fill: #262626" transform="translate(1181.132076 421.734594) scale(0.11 -0.11)">
       <use xlink:href="#ArialMT-33"/>
       <use xlink:href="#ArialMT-35" x="55.615234"/>
       <use xlink:href="#ArialMT-30" x="111.230469"/>
       <use xlink:href="#ArialMT-30" x="166.845703"/>
      </g>
     </g>
    </g>
    <g id="xtick_18">
     <g id="line2d_22">
      <path d="M 1257.707716 404.361 
L 1257.707716 21.825 
" clip-path="url(#pa55fef19c3)" style="fill: none; stroke: #ffffff; stroke-linecap: round"/>
     </g>
     <g id="text_23">
      <!-- 4000 -->
      <g style="fill: #262626" transform="translate(1245.473654 421.734594) scale(0.11 -0.11)">
       <use xlink:href="#ArialMT-34"/>
       <use xlink:href="#ArialMT-30" x="55.615234"/>
       <use xlink:href="#ArialMT-30" x="111.230469"/>
       <use xlink:href="#ArialMT-30" x="166.845703"/>
      </g>
     </g>
    </g>
    <g id="text_24">
     <!-- Rank (all chains) -->
     <g style="fill: #262626" transform="translate(955.660156 436.656469) scale(0.12 -0.12)">
      <use xlink:href="#ArialMT-52"/>
      <use xlink:href="#ArialMT-61" x="72.216797"/>
      <use xlink:href="#ArialMT-6e" x="127.832031"/>
      <use xlink:href="#ArialMT-6b" x="183.447266"/>
      <use xlink:href="#ArialMT-20" x="233.447266"/>
      <use xlink:href="#ArialMT-28" x="261.230469"/>
      <use xlink:href="#ArialMT-61" x="294.53125"/>
      <use xlink:href="#ArialMT-6c" x="350.146484"/>
      <use xlink:href="#ArialMT-6c" x="372.363281"/>
      <use xlink:href="#ArialMT-20" x="394.580078"/>
      <use xlink:href="#ArialMT-63" x="422.363281"/>
      <use xlink:href="#ArialMT-68" x="472.363281"/>
      <use xlink:href="#ArialMT-61" x="527.978516"/>
      <use xlink:href="#ArialMT-69" x="583.59375"/>
      <use xlink:href="#ArialMT-6e" x="605.810547"/>
      <use xlink:href="#ArialMT-73" x="661.425781"/>
      <use xlink:href="#ArialMT-29" x="711.425781"/>
     </g>
    </g>
   </g>
   <g id="matplotlib.axis_4">
    <g id="ytick_3">
     <g id="line2d_23">
      <path d="M 717.238465 404.361 
L 1283.444347 404.361 
" clip-path="url(#pa55fef19c3)" style="fill: none; stroke: #ffffff; stroke-linecap: round"/>
     </g>
     <g id="text_25">
      <!-- 0 -->
      <g style="fill: #262626" transform="translate(701.621434 408.297797) scale(0.11 -0.11)">
       <use xlink:href="#ArialMT-30"/>
      </g>
     </g>
    </g>
    <g id="ytick_4">
     <g id="line2d_24">
      <path d="M 717.238465 222.246529 
L 1283.444347 222.246529 
" clip-path="url(#pa55fef19c3)" style="fill: none; stroke: #ffffff; stroke-linecap: round"/>
     </g>
     <g id="text_26">
      <!-- 1 -->
      <g style="fill: #262626" transform="translate(701.621434 226.183325) scale(0.11 -0.11)">
       <use xlink:href="#ArialMT-31"/>
      </g>
     </g>
    </g>
    <g id="text_27">
     <!-- Chain -->
     <g style="fill: #262626" transform="translate(695.236434 228.768937) rotate(-90) scale(0.12 -0.12)">
      <use xlink:href="#ArialMT-43"/>
      <use xlink:href="#ArialMT-68" x="72.216797"/>
      <use xlink:href="#ArialMT-61" x="127.832031"/>
      <use xlink:href="#ArialMT-69" x="183.447266"/>
      <use xlink:href="#ArialMT-6e" x="205.664062"/>
     </g>
    </g>
   </g>
   <g id="patch_54">
    <path d="M 742.975096 404.361 
L 765.354775 404.361 
L 765.354775 223.20263 
L 742.975096 223.20263 
z
" clip-path="url(#pa55fef19c3)" style="fill: #0173b2; stroke: #eaeaf2; stroke-linejoin: miter"/>
   </g>
   <g id="patch_55">
    <path d="M 765.354775 404.361 
L 787.734454 404.361 
L 787.734454 222.155471 
L 765.354775 222.155471 
z
" clip-path="url(#pa55fef19c3)" style="fill: #0173b2; stroke: #eaeaf2; stroke-linejoin: miter"/>
   </g>
   <g id="patch_56">
    <path d="M 787.734454 404.361 
L 810.114134 404.361 
L 810.114134 222.155471 
L 787.734454 222.155471 
z
" clip-path="url(#pa55fef19c3)" style="fill: #0173b2; stroke: #eaeaf2; stroke-linejoin: miter"/>
   </g>
   <g id="patch_57">
    <path d="M 810.114134 404.361 
L 832.493813 404.361 
L 832.493813 224.249788 
L 810.114134 224.249788 
z
" clip-path="url(#pa55fef19c3)" style="fill: #0173b2; stroke: #eaeaf2; stroke-linejoin: miter"/>
   </g>
   <g id="patch_58">
    <path d="M 832.493813 404.361 
L 854.873492 404.361 
L 854.873492 222.155471 
L 832.493813 222.155471 
z
" clip-path="url(#pa55fef19c3)" style="fill: #0173b2; stroke: #eaeaf2; stroke-linejoin: miter"/>
   </g>
   <g id="patch_59">
    <path d="M 854.873492 404.361 
L 877.253171 404.361 
L 877.253171 223.20263 
L 854.873492 223.20263 
z
" clip-path="url(#pa55fef19c3)" style="fill: #0173b2; stroke: #eaeaf2; stroke-linejoin: miter"/>
   </g>
   <g id="patch_60">
    <path d="M 877.253171 404.361 
L 899.63285 404.361 
L 899.63285 230.532737 
L 877.253171 230.532737 
z
" clip-path="url(#pa55fef19c3)" style="fill: #0173b2; stroke: #eaeaf2; stroke-linejoin: miter"/>
   </g>
   <g id="patch_61">
    <path d="M 899.63285 404.361 
L 922.012529 404.361 
L 922.012529 232.627053 
L 899.63285 232.627053 
z
" clip-path="url(#pa55fef19c3)" style="fill: #0173b2; stroke: #eaeaf2; stroke-linejoin: miter"/>
   </g>
   <g id="patch_62">
    <path d="M 922.012529 404.361 
L 944.392208 404.361 
L 944.392208 251.475901 
L 922.012529 251.475901 
z
" clip-path="url(#pa55fef19c3)" style="fill: #0173b2; stroke: #eaeaf2; stroke-linejoin: miter"/>
   </g>
   <g id="patch_63">
    <path d="M 944.392208 404.361 
L 966.771888 404.361 
L 966.771888 258.806009 
L 944.392208 258.806009 
z
" clip-path="url(#pa55fef19c3)" style="fill: #0173b2; stroke: #eaeaf2; stroke-linejoin: miter"/>
   </g>
   <g id="patch_64">
    <path d="M 966.771888 404.361 
L 989.151567 404.361 
L 989.151567 286.032122 
L 966.771888 286.032122 
z
" clip-path="url(#pa55fef19c3)" style="fill: #0173b2; stroke: #eaeaf2; stroke-linejoin: miter"/>
   </g>
   <g id="patch_65">
    <path d="M 989.151567 404.361 
L 1011.531246 404.361 
L 1011.531246 305.928128 
L 989.151567 305.928128 
z
" clip-path="url(#pa55fef19c3)" style="fill: #0173b2; stroke: #eaeaf2; stroke-linejoin: miter"/>
   </g>
   <g id="patch_66">
    <path d="M 1011.531246 404.361 
L 1033.910925 404.361 
L 1033.910925 335.248558 
L 1011.531246 335.248558 
z
" clip-path="url(#pa55fef19c3)" style="fill: #0173b2; stroke: #eaeaf2; stroke-linejoin: miter"/>
   </g>
   <g id="patch_67">
    <path d="M 1033.910925 404.361 
L 1056.290604 404.361 
L 1056.290604 367.710463 
L 1033.910925 367.710463 
z
" clip-path="url(#pa55fef19c3)" style="fill: #0173b2; stroke: #eaeaf2; stroke-linejoin: miter"/>
   </g>
   <g id="patch_68">
    <path d="M 1056.290604 404.361 
L 1078.670283 404.361 
L 1078.670283 379.229203 
L 1056.290604 379.229203 
z
" clip-path="url(#pa55fef19c3)" style="fill: #0173b2; stroke: #eaeaf2; stroke-linejoin: miter"/>
   </g>
   <g id="patch_69">
    <path d="M 1078.670283 404.361 
L 1101.049962 404.361 
L 1101.049962 397.030893 
L 1078.670283 397.030893 
z
" clip-path="url(#pa55fef19c3)" style="fill: #0173b2; stroke: #eaeaf2; stroke-linejoin: miter"/>
   </g>
   <g id="patch_70">
    <path d="M 1101.049962 404.361 
L 1123.429642 404.361 
L 1123.429642 398.078051 
L 1101.049962 398.078051 
z
" clip-path="url(#pa55fef19c3)" style="fill: #0173b2; stroke: #eaeaf2; stroke-linejoin: miter"/>
   </g>
   <g id="patch_71">
    <path d="M 1123.429642 404.361 
L 1145.809321 404.361 
L 1145.809321 404.361 
L 1123.429642 404.361 
z
" clip-path="url(#pa55fef19c3)" style="fill: #0173b2; stroke: #eaeaf2; stroke-linejoin: miter"/>
   </g>
   <g id="patch_72">
    <path d="M 1145.809321 404.361 
L 1168.189 404.361 
L 1168.189 404.361 
L 1145.809321 404.361 
z
" clip-path="url(#pa55fef19c3)" style="fill: #0173b2; stroke: #eaeaf2; stroke-linejoin: miter"/>
   </g>
   <g id="patch_73">
    <path d="M 1168.189 404.361 
L 1190.568679 404.361 
L 1190.568679 404.361 
L 1168.189 404.361 
z
" clip-path="url(#pa55fef19c3)" style="fill: #0173b2; stroke: #eaeaf2; stroke-linejoin: miter"/>
   </g>
   <g id="patch_74">
    <path d="M 1190.568679 404.361 
L 1212.948358 404.361 
L 1212.948358 404.361 
L 1190.568679 404.361 
z
" clip-path="url(#pa55fef19c3)" style="fill: #0173b2; stroke: #eaeaf2; stroke-linejoin: miter"/>
   </g>
   <g id="patch_75">
    <path d="M 1212.948358 404.361 
L 1235.328037 404.361 
L 1235.328037 404.361 
L 1212.948358 404.361 
z
" clip-path="url(#pa55fef19c3)" style="fill: #0173b2; stroke: #eaeaf2; stroke-linejoin: miter"/>
   </g>
   <g id="patch_76">
    <path d="M 1235.328037 404.361 
L 1257.707716 404.361 
L 1257.707716 404.361 
L 1235.328037 404.361 
z
" clip-path="url(#pa55fef19c3)" style="fill: #0173b2; stroke: #eaeaf2; stroke-linejoin: miter"/>
   </g>
   <g id="patch_77">
    <path d="M 742.975096 222.246529 
L 765.354775 222.246529 
L 765.354775 222.246529 
L 742.975096 222.246529 
z
" clip-path="url(#pa55fef19c3)" style="fill: #de8f05; stroke: #eaeaf2; stroke-linejoin: miter"/>
   </g>
   <g id="patch_78">
    <path d="M 765.354775 222.246529 
L 787.734454 222.246529 
L 787.734454 222.246529 
L 765.354775 222.246529 
z
" clip-path="url(#pa55fef19c3)" style="fill: #de8f05; stroke: #eaeaf2; stroke-linejoin: miter"/>
   </g>
   <g id="patch_79">
    <path d="M 787.734454 222.246529 
L 810.114134 222.246529 
L 810.114134 222.246529 
L 787.734454 222.246529 
z
" clip-path="url(#pa55fef19c3)" style="fill: #de8f05; stroke: #eaeaf2; stroke-linejoin: miter"/>
   </g>
   <g id="patch_80">
    <path d="M 810.114134 222.246529 
L 832.493813 222.246529 
L 832.493813 220.152212 
L 810.114134 220.152212 
z
" clip-path="url(#pa55fef19c3)" style="fill: #de8f05; stroke: #eaeaf2; stroke-linejoin: miter"/>
   </g>
   <g id="patch_81">
    <path d="M 832.493813 222.246529 
L 854.873492 222.246529 
L 854.873492 222.246529 
L 832.493813 222.246529 
z
" clip-path="url(#pa55fef19c3)" style="fill: #de8f05; stroke: #eaeaf2; stroke-linejoin: miter"/>
   </g>
   <g id="patch_82">
    <path d="M 854.873492 222.246529 
L 877.253171 222.246529 
L 877.253171 221.19937 
L 854.873492 221.19937 
z
" clip-path="url(#pa55fef19c3)" style="fill: #de8f05; stroke: #eaeaf2; stroke-linejoin: miter"/>
   </g>
   <g id="patch_83">
    <path d="M 877.253171 222.246529 
L 899.63285 222.246529 
L 899.63285 213.869263 
L 877.253171 213.869263 
z
" clip-path="url(#pa55fef19c3)" style="fill: #de8f05; stroke: #eaeaf2; stroke-linejoin: miter"/>
   </g>
   <g id="patch_84">
    <path d="M 899.63285 222.246529 
L 922.012529 222.246529 
L 922.012529 211.774947 
L 899.63285 211.774947 
z
" clip-path="url(#pa55fef19c3)" style="fill: #de8f05; stroke: #eaeaf2; stroke-linejoin: miter"/>
   </g>
   <g id="patch_85">
    <path d="M 922.012529 222.246529 
L 944.392208 222.246529 
L 944.392208 192.926099 
L 922.012529 192.926099 
z
" clip-path="url(#pa55fef19c3)" style="fill: #de8f05; stroke: #eaeaf2; stroke-linejoin: miter"/>
   </g>
   <g id="patch_86">
    <path d="M 944.392208 222.246529 
L 966.771888 222.246529 
L 966.771888 185.595991 
L 944.392208 185.595991 
z
" clip-path="url(#pa55fef19c3)" style="fill: #de8f05; stroke: #eaeaf2; stroke-linejoin: miter"/>
   </g>
   <g id="patch_87">
    <path d="M 966.771888 222.246529 
L 989.151567 222.246529 
L 989.151567 158.369878 
L 966.771888 158.369878 
z
" clip-path="url(#pa55fef19c3)" style="fill: #de8f05; stroke: #eaeaf2; stroke-linejoin: miter"/>
   </g>
   <g id="patch_88">
    <path d="M 989.151567 222.246529 
L 1011.531246 222.246529 
L 1011.531246 139.52103 
L 989.151567 139.52103 
z
" clip-path="url(#pa55fef19c3)" style="fill: #de8f05; stroke: #eaeaf2; stroke-linejoin: miter"/>
   </g>
   <g id="patch_89">
    <path d="M 1011.531246 222.246529 
L 1033.910925 222.246529 
L 1033.910925 109.153442 
L 1011.531246 109.153442 
z
" clip-path="url(#pa55fef19c3)" style="fill: #de8f05; stroke: #eaeaf2; stroke-linejoin: miter"/>
   </g>
   <g id="patch_90">
    <path d="M 1033.910925 222.246529 
L 1056.290604 222.246529 
L 1056.290604 76.691537 
L 1033.910925 76.691537 
z
" clip-path="url(#pa55fef19c3)" style="fill: #de8f05; stroke: #eaeaf2; stroke-linejoin: miter"/>
   </g>
   <g id="patch_91">
    <path d="M 1056.290604 222.246529 
L 1078.670283 222.246529 
L 1078.670283 65.172797 
L 1056.290604 65.172797 
z
" clip-path="url(#pa55fef19c3)" style="fill: #de8f05; stroke: #eaeaf2; stroke-linejoin: miter"/>
   </g>
   <g id="patch_92">
    <path d="M 1078.670283 222.246529 
L 1101.049962 222.246529 
L 1101.049962 47.371107 
L 1078.670283 47.371107 
z
" clip-path="url(#pa55fef19c3)" style="fill: #de8f05; stroke: #eaeaf2; stroke-linejoin: miter"/>
   </g>
   <g id="patch_93">
    <path d="M 1101.049962 222.246529 
L 1123.429642 222.246529 
L 1123.429642 46.323949 
L 1101.049962 46.323949 
z
" clip-path="url(#pa55fef19c3)" style="fill: #de8f05; stroke: #eaeaf2; stroke-linejoin: miter"/>
   </g>
   <g id="patch_94">
    <path d="M 1123.429642 222.246529 
L 1145.809321 222.246529 
L 1145.809321 40.041 
L 1123.429642 40.041 
z
" clip-path="url(#pa55fef19c3)" style="fill: #de8f05; stroke: #eaeaf2; stroke-linejoin: miter"/>
   </g>
   <g id="patch_95">
    <path d="M 1145.809321 222.246529 
L 1168.189 222.246529 
L 1168.189 40.041 
L 1145.809321 40.041 
z
" clip-path="url(#pa55fef19c3)" style="fill: #de8f05; stroke: #eaeaf2; stroke-linejoin: miter"/>
   </g>
   <g id="patch_96">
    <path d="M 1168.189 222.246529 
L 1190.568679 222.246529 
L 1190.568679 40.041 
L 1168.189 40.041 
z
" clip-path="url(#pa55fef19c3)" style="fill: #de8f05; stroke: #eaeaf2; stroke-linejoin: miter"/>
   </g>
   <g id="patch_97">
    <path d="M 1190.568679 222.246529 
L 1212.948358 222.246529 
L 1212.948358 40.041 
L 1190.568679 40.041 
z
" clip-path="url(#pa55fef19c3)" style="fill: #de8f05; stroke: #eaeaf2; stroke-linejoin: miter"/>
   </g>
   <g id="patch_98">
    <path d="M 1212.948358 222.246529 
L 1235.328037 222.246529 
L 1235.328037 40.041 
L 1212.948358 40.041 
z
" clip-path="url(#pa55fef19c3)" style="fill: #de8f05; stroke: #eaeaf2; stroke-linejoin: miter"/>
   </g>
   <g id="patch_99">
    <path d="M 1235.328037 222.246529 
L 1257.707716 222.246529 
L 1257.707716 40.041 
L 1235.328037 40.041 
z
" clip-path="url(#pa55fef19c3)" style="fill: #de8f05; stroke: #eaeaf2; stroke-linejoin: miter"/>
   </g>
   <g id="line2d_25">
    <path d="M 717.238465 313.303764 
L 1283.444347 313.303764 
" clip-path="url(#pa55fef19c3)" style="fill: none; stroke-dasharray: 5.55,2.4; stroke-dashoffset: 0; stroke: #1a1a1a; stroke-width: 1.5"/>
   </g>
   <g id="line2d_26">
    <path d="M 717.238465 131.189293 
L 1283.444347 131.189293 
" clip-path="url(#pa55fef19c3)" style="fill: none; stroke-dasharray: 5.55,2.4; stroke-dashoffset: 0; stroke: #1a1a1a; stroke-width: 1.5"/>
   </g>
   <g id="patch_100">
    <path d="M 717.238465 404.361 
L 717.238465 21.825 
" style="fill: none; stroke: #ffffff; stroke-width: 1.25; stroke-linejoin: miter; stroke-linecap: square"/>
   </g>
   <g id="patch_101">
    <path d="M 1283.444347 404.361 
L 1283.444347 21.825 
" style="fill: none; stroke: #ffffff; stroke-width: 1.25; stroke-linejoin: miter; stroke-linecap: square"/>
   </g>
   <g id="patch_102">
    <path d="M 717.238465 404.361 
L 1283.444347 404.361 
" style="fill: none; stroke: #ffffff; stroke-width: 1.25; stroke-linejoin: miter; stroke-linecap: square"/>
   </g>
   <g id="patch_103">
    <path d="M 717.238465 21.825 
L 1283.444347 21.825 
" style="fill: none; stroke: #ffffff; stroke-width: 1.25; stroke-linejoin: miter; stroke-linecap: square"/>
   </g>
   <g id="text_28">
    <!-- bad_chains0 -->
    <g style="fill: #262626" transform="translate(966.315781 15.825) scale(0.12 -0.12)">
     <defs>
      <path id="ArialMT-62" d="M 941 0 
L 419 0 
L 419 4581 
L 981 4581 
L 981 2947 
Q 1338 3394 1891 3394 
Q 2197 3394 2470 3270 
Q 2744 3147 2920 2923 
Q 3097 2700 3197 2384 
Q 3297 2069 3297 1709 
Q 3297 856 2875 390 
Q 2453 -75 1863 -75 
Q 1275 -75 941 416 
L 941 0 
z
M 934 1684 
Q 934 1088 1097 822 
Q 1363 388 1816 388 
Q 2184 388 2453 708 
Q 2722 1028 2722 1663 
Q 2722 2313 2464 2622 
Q 2206 2931 1841 2931 
Q 1472 2931 1203 2611 
Q 934 2291 934 1684 
z
" transform="scale(0.015625)"/>
     </defs>
     <use xlink:href="#ArialMT-62"/>
     <use xlink:href="#ArialMT-61" x="55.615234"/>
     <use xlink:href="#ArialMT-64" x="111.230469"/>
     <use xlink:href="#ArialMT-5f" x="166.845703"/>
     <use xlink:href="#ArialMT-63" x="222.460938"/>
     <use xlink:href="#ArialMT-68" x="272.460938"/>
     <use xlink:href="#ArialMT-61" x="328.076172"/>
     <use xlink:href="#ArialMT-69" x="383.691406"/>
     <use xlink:href="#ArialMT-6e" x="405.908203"/>
     <use xlink:href="#ArialMT-73" x="461.523438"/>
     <use xlink:href="#ArialMT-30" x="511.523438"/>
    </g>
   </g>
  </g>
  <g id="axes_3">
   <g id="patch_104">
    <path d="M 1396.685524 404.361 
L 1962.891406 404.361 
L 1962.891406 21.825 
L 1396.685524 21.825 
z
" style="fill: #eaeaf2"/>
   </g>
   <g id="matplotlib.axis_5">
    <g id="xtick_19">
     <g id="line2d_27">
      <path d="M 1422.422155 404.361 
L 1422.422155 21.825 
" clip-path="url(#p0559c58cf6)" style="fill: none; stroke: #ffffff; stroke-linecap: round"/>
     </g>
     <g id="text_29">
      <!-- 0 -->
      <g style="fill: #262626" transform="translate(1419.363639 421.734594) scale(0.11 -0.11)">
       <use xlink:href="#ArialMT-30"/>
      </g>
     </g>
    </g>
    <g id="xtick_20">
     <g id="line2d_28">
      <path d="M 1486.763732 404.361 
L 1486.763732 21.825 
" clip-path="url(#p0559c58cf6)" style="fill: none; stroke: #ffffff; stroke-linecap: round"/>
     </g>
     <g id="text_30">
      <!-- 500 -->
      <g style="fill: #262626" transform="translate(1477.588186 421.734594) scale(0.11 -0.11)">
       <use xlink:href="#ArialMT-35"/>
       <use xlink:href="#ArialMT-30" x="55.615234"/>
       <use xlink:href="#ArialMT-30" x="111.230469"/>
      </g>
     </g>
    </g>
    <g id="xtick_21">
     <g id="line2d_29">
      <path d="M 1551.10531 404.361 
L 1551.10531 21.825 
" clip-path="url(#p0559c58cf6)" style="fill: none; stroke: #ffffff; stroke-linecap: round"/>
     </g>
     <g id="text_31">
      <!-- 1000 -->
      <g style="fill: #262626" transform="translate(1538.871247 421.734594) scale(0.11 -0.11)">
       <use xlink:href="#ArialMT-31"/>
       <use xlink:href="#ArialMT-30" x="55.615234"/>
       <use xlink:href="#ArialMT-30" x="111.230469"/>
       <use xlink:href="#ArialMT-30" x="166.845703"/>
      </g>
     </g>
    </g>
    <g id="xtick_22">
     <g id="line2d_30">
      <path d="M 1615.446888 404.361 
L 1615.446888 21.825 
" clip-path="url(#p0559c58cf6)" style="fill: none; stroke: #ffffff; stroke-linecap: round"/>
     </g>
     <g id="text_32">
      <!-- 1500 -->
      <g style="fill: #262626" transform="translate(1603.212825 421.734594) scale(0.11 -0.11)">
       <use xlink:href="#ArialMT-31"/>
       <use xlink:href="#ArialMT-35" x="55.615234"/>
       <use xlink:href="#ArialMT-30" x="111.230469"/>
       <use xlink:href="#ArialMT-30" x="166.845703"/>
      </g>
     </g>
    </g>
    <g id="xtick_23">
     <g id="line2d_31">
      <path d="M 1679.788465 404.361 
L 1679.788465 21.825 
" clip-path="url(#p0559c58cf6)" style="fill: none; stroke: #ffffff; stroke-linecap: round"/>
     </g>
     <g id="text_33">
      <!-- 2000 -->
      <g style="fill: #262626" transform="translate(1667.554403 421.734594) scale(0.11 -0.11)">
       <use xlink:href="#ArialMT-32"/>
       <use xlink:href="#ArialMT-30" x="55.615234"/>
       <use xlink:href="#ArialMT-30" x="111.230469"/>
       <use xlink:href="#ArialMT-30" x="166.845703"/>
      </g>
     </g>
    </g>
    <g id="xtick_24">
     <g id="line2d_32">
      <path d="M 1744.130043 404.361 
L 1744.130043 21.825 
" clip-path="url(#p0559c58cf6)" style="fill: none; stroke: #ffffff; stroke-linecap: round"/>
     </g>
     <g id="text_34">
      <!-- 2500 -->
      <g style="fill: #262626" transform="translate(1731.89598 421.734594) scale(0.11 -0.11)">
       <use xlink:href="#ArialMT-32"/>
       <use xlink:href="#ArialMT-35" x="55.615234"/>
       <use xlink:href="#ArialMT-30" x="111.230469"/>
       <use xlink:href="#ArialMT-30" x="166.845703"/>
      </g>
     </g>
    </g>
    <g id="xtick_25">
     <g id="line2d_33">
      <path d="M 1808.47162 404.361 
L 1808.47162 21.825 
" clip-path="url(#p0559c58cf6)" style="fill: none; stroke: #ffffff; stroke-linecap: round"/>
     </g>
     <g id="text_35">
      <!-- 3000 -->
      <g style="fill: #262626" transform="translate(1796.237558 421.734594) scale(0.11 -0.11)">
       <use xlink:href="#ArialMT-33"/>
       <use xlink:href="#ArialMT-30" x="55.615234"/>
       <use xlink:href="#ArialMT-30" x="111.230469"/>
       <use xlink:href="#ArialMT-30" x="166.845703"/>
      </g>
     </g>
    </g>
    <g id="xtick_26">
     <g id="line2d_34">
      <path d="M 1872.813198 404.361 
L 1872.813198 21.825 
" clip-path="url(#p0559c58cf6)" style="fill: none; stroke: #ffffff; stroke-linecap: round"/>
     </g>
     <g id="text_36">
      <!-- 3500 -->
      <g style="fill: #262626" transform="translate(1860.579135 421.734594) scale(0.11 -0.11)">
       <use xlink:href="#ArialMT-33"/>
       <use xlink:href="#ArialMT-35" x="55.615234"/>
       <use xlink:href="#ArialMT-30" x="111.230469"/>
       <use xlink:href="#ArialMT-30" x="166.845703"/>
      </g>
     </g>
    </g>
    <g id="xtick_27">
     <g id="line2d_35">
      <path d="M 1937.154775 404.361 
L 1937.154775 21.825 
" clip-path="url(#p0559c58cf6)" style="fill: none; stroke: #ffffff; stroke-linecap: round"/>
     </g>
     <g id="text_37">
      <!-- 4000 -->
      <g style="fill: #262626" transform="translate(1924.920713 421.734594) scale(0.11 -0.11)">
       <use xlink:href="#ArialMT-34"/>
       <use xlink:href="#ArialMT-30" x="55.615234"/>
       <use xlink:href="#ArialMT-30" x="111.230469"/>
       <use xlink:href="#ArialMT-30" x="166.845703"/>
      </g>
     </g>
    </g>
    <g id="text_38">
     <!-- Rank (all chains) -->
     <g style="fill: #262626" transform="translate(1635.107215 436.656469) scale(0.12 -0.12)">
      <use xlink:href="#ArialMT-52"/>
      <use xlink:href="#ArialMT-61" x="72.216797"/>
      <use xlink:href="#ArialMT-6e" x="127.832031"/>
      <use xlink:href="#ArialMT-6b" x="183.447266"/>
      <use xlink:href="#ArialMT-20" x="233.447266"/>
      <use xlink:href="#ArialMT-28" x="261.230469"/>
      <use xlink:href="#ArialMT-61" x="294.53125"/>
      <use xlink:href="#ArialMT-6c" x="350.146484"/>
      <use xlink:href="#ArialMT-6c" x="372.363281"/>
      <use xlink:href="#ArialMT-20" x="394.580078"/>
      <use xlink:href="#ArialMT-63" x="422.363281"/>
      <use xlink:href="#ArialMT-68" x="472.363281"/>
      <use xlink:href="#ArialMT-61" x="527.978516"/>
      <use xlink:href="#ArialMT-69" x="583.59375"/>
      <use xlink:href="#ArialMT-6e" x="605.810547"/>
      <use xlink:href="#ArialMT-73" x="661.425781"/>
      <use xlink:href="#ArialMT-29" x="711.425781"/>
     </g>
    </g>
   </g>
   <g id="matplotlib.axis_6">
    <g id="ytick_5">
     <g id="line2d_36">
      <path d="M 1396.685524 404.361 
L 1962.891406 404.361 
" clip-path="url(#p0559c58cf6)" style="fill: none; stroke: #ffffff; stroke-linecap: round"/>
     </g>
     <g id="text_39">
      <!-- 0 -->
      <g style="fill: #262626" transform="translate(1381.068493 408.297797) scale(0.11 -0.11)">
       <use xlink:href="#ArialMT-30"/>
      </g>
     </g>
    </g>
    <g id="ytick_6">
     <g id="line2d_37">
      <path d="M 1396.685524 184.294555 
L 1962.891406 184.294555 
" clip-path="url(#p0559c58cf6)" style="fill: none; stroke: #ffffff; stroke-linecap: round"/>
     </g>
     <g id="text_40">
      <!-- 1 -->
      <g style="fill: #262626" transform="translate(1381.068493 188.231352) scale(0.11 -0.11)">
       <use xlink:href="#ArialMT-31"/>
      </g>
     </g>
    </g>
    <g id="text_41">
     <!-- Chain -->
     <g style="fill: #262626" transform="translate(1374.683493 228.768937) rotate(-90) scale(0.12 -0.12)">
      <use xlink:href="#ArialMT-43"/>
      <use xlink:href="#ArialMT-68" x="72.216797"/>
      <use xlink:href="#ArialMT-61" x="127.832031"/>
      <use xlink:href="#ArialMT-69" x="183.447266"/>
      <use xlink:href="#ArialMT-6e" x="205.664062"/>
     </g>
    </g>
   </g>
   <g id="patch_105">
    <path d="M 1422.422155 404.361 
L 1444.801834 404.361 
L 1444.801834 287.94585 
L 1422.422155 287.94585 
z
" clip-path="url(#p0559c58cf6)" style="fill: #0173b2; stroke: #eaeaf2; stroke-linejoin: miter"/>
   </g>
   <g id="patch_106">
    <path d="M 1444.801834 404.361 
L 1467.181513 404.361 
L 1467.181513 268.96512 
L 1444.801834 268.96512 
z
" clip-path="url(#p0559c58cf6)" style="fill: #0173b2; stroke: #eaeaf2; stroke-linejoin: miter"/>
   </g>
   <g id="patch_107">
    <path d="M 1467.181513 404.361 
L 1489.561192 404.361 
L 1489.561192 294.272761 
L 1467.181513 294.272761 
z
" clip-path="url(#p0559c58cf6)" style="fill: #0173b2; stroke: #eaeaf2; stroke-linejoin: miter"/>
   </g>
   <g id="patch_108">
    <path d="M 1489.561192 404.361 
L 1511.940871 404.361 
L 1511.940871 310.722728 
L 1489.561192 310.722728 
z
" clip-path="url(#p0559c58cf6)" style="fill: #0173b2; stroke: #eaeaf2; stroke-linejoin: miter"/>
   </g>
   <g id="patch_109">
    <path d="M 1511.940871 404.361 
L 1534.320551 404.361 
L 1534.320551 282.884322 
L 1511.940871 282.884322 
z
" clip-path="url(#p0559c58cf6)" style="fill: #0173b2; stroke: #eaeaf2; stroke-linejoin: miter"/>
   </g>
   <g id="patch_110">
    <path d="M 1534.320551 404.361 
L 1556.70023 404.361 
L 1556.70023 293.007379 
L 1534.320551 293.007379 
z
" clip-path="url(#p0559c58cf6)" style="fill: #0173b2; stroke: #eaeaf2; stroke-linejoin: miter"/>
   </g>
   <g id="patch_111">
    <path d="M 1556.70023 404.361 
L 1579.079909 404.361 
L 1579.079909 268.96512 
L 1556.70023 268.96512 
z
" clip-path="url(#p0559c58cf6)" style="fill: #0173b2; stroke: #eaeaf2; stroke-linejoin: miter"/>
   </g>
   <g id="patch_112">
    <path d="M 1579.079909 404.361 
L 1601.459588 404.361 
L 1601.459588 296.803525 
L 1579.079909 296.803525 
z
" clip-path="url(#p0559c58cf6)" style="fill: #0173b2; stroke: #eaeaf2; stroke-linejoin: miter"/>
   </g>
   <g id="patch_113">
    <path d="M 1601.459588 404.361 
L 1623.839267 404.361 
L 1623.839267 309.457346 
L 1601.459588 309.457346 
z
" clip-path="url(#p0559c58cf6)" style="fill: #0173b2; stroke: #eaeaf2; stroke-linejoin: miter"/>
   </g>
   <g id="patch_114">
    <path d="M 1623.839267 404.361 
L 1646.218946 404.361 
L 1646.218946 291.741997 
L 1623.839267 291.741997 
z
" clip-path="url(#p0559c58cf6)" style="fill: #0173b2; stroke: #eaeaf2; stroke-linejoin: miter"/>
   </g>
   <g id="patch_115">
    <path d="M 1646.218946 404.361 
L 1668.598626 404.361 
L 1668.598626 298.068907 
L 1646.218946 298.068907 
z
" clip-path="url(#p0559c58cf6)" style="fill: #0173b2; stroke: #eaeaf2; stroke-linejoin: miter"/>
   </g>
   <g id="patch_116">
    <path d="M 1668.598626 404.361 
L 1690.978305 404.361 
L 1690.978305 310.722728 
L 1668.598626 310.722728 
z
" clip-path="url(#p0559c58cf6)" style="fill: #0173b2; stroke: #eaeaf2; stroke-linejoin: miter"/>
   </g>
   <g id="patch_117">
    <path d="M 1690.978305 404.361 
L 1713.357984 404.361 
L 1713.357984 291.741997 
L 1690.978305 291.741997 
z
" clip-path="url(#p0559c58cf6)" style="fill: #0173b2; stroke: #eaeaf2; stroke-linejoin: miter"/>
   </g>
   <g id="patch_118">
    <path d="M 1713.357984 404.361 
L 1735.737663 404.361 
L 1735.737663 289.211233 
L 1713.357984 289.211233 
z
" clip-path="url(#p0559c58cf6)" style="fill: #0173b2; stroke: #eaeaf2; stroke-linejoin: miter"/>
   </g>
   <g id="patch_119">
    <path d="M 1735.737663 404.361 
L 1758.117342 404.361 
L 1758.117342 285.415086 
L 1735.737663 285.415086 
z
" clip-path="url(#p0559c58cf6)" style="fill: #0173b2; stroke: #eaeaf2; stroke-linejoin: miter"/>
   </g>
   <g id="patch_120">
    <path d="M 1758.117342 404.361 
L 1780.497021 404.361 
L 1780.497021 317.049638 
L 1758.117342 317.049638 
z
" clip-path="url(#p0559c58cf6)" style="fill: #0173b2; stroke: #eaeaf2; stroke-linejoin: miter"/>
   </g>
   <g id="patch_121">
    <path d="M 1780.497021 404.361 
L 1802.8767 404.361 
L 1802.8767 328.438076 
L 1780.497021 328.438076 
z
" clip-path="url(#p0559c58cf6)" style="fill: #0173b2; stroke: #eaeaf2; stroke-linejoin: miter"/>
   </g>
   <g id="patch_122">
    <path d="M 1802.8767 404.361 
L 1825.25638 404.361 
L 1825.25638 291.741997 
L 1802.8767 291.741997 
z
" clip-path="url(#p0559c58cf6)" style="fill: #0173b2; stroke: #eaeaf2; stroke-linejoin: miter"/>
   </g>
   <g id="patch_123">
    <path d="M 1825.25638 404.361 
L 1847.636059 404.361 
L 1847.636059 296.803525 
L 1825.25638 296.803525 
z
" clip-path="url(#p0559c58cf6)" style="fill: #0173b2; stroke: #eaeaf2; stroke-linejoin: miter"/>
   </g>
   <g id="patch_124">
    <path d="M 1847.636059 404.361 
L 1870.015738 404.361 
L 1870.015738 286.680468 
L 1847.636059 286.680468 
z
" clip-path="url(#p0559c58cf6)" style="fill: #0173b2; stroke: #eaeaf2; stroke-linejoin: miter"/>
   </g>
   <g id="patch_125">
    <path d="M 1870.015738 404.361 
L 1892.395417 404.361 
L 1892.395417 281.61894 
L 1870.015738 281.61894 
z
" clip-path="url(#p0559c58cf6)" style="fill: #0173b2; stroke: #eaeaf2; stroke-linejoin: miter"/>
   </g>
   <g id="patch_126">
    <path d="M 1892.395417 404.361 
L 1914.775096 404.361 
L 1914.775096 298.068907 
L 1892.395417 298.068907 
z
" clip-path="url(#p0559c58cf6)" style="fill: #0173b2; stroke: #eaeaf2; stroke-linejoin: miter"/>
   </g>
   <g id="patch_127">
    <path d="M 1914.775096 404.361 
L 1937.154775 404.361 
L 1937.154775 289.211233 
L 1914.775096 289.211233 
z
" clip-path="url(#p0559c58cf6)" style="fill: #0173b2; stroke: #eaeaf2; stroke-linejoin: miter"/>
   </g>
   <g id="patch_128">
    <path d="M 1422.422155 184.294555 
L 1444.801834 184.294555 
L 1444.801834 81.798608 
L 1422.422155 81.798608 
z
" clip-path="url(#p0559c58cf6)" style="fill: #de8f05; stroke: #eaeaf2; stroke-linejoin: miter"/>
   </g>
   <g id="patch_129">
    <path d="M 1444.801834 184.294555 
L 1467.181513 184.294555 
L 1467.181513 99.513957 
L 1444.801834 99.513957 
z
" clip-path="url(#p0559c58cf6)" style="fill: #de8f05; stroke: #eaeaf2; stroke-linejoin: miter"/>
   </g>
   <g id="patch_130">
    <path d="M 1467.181513 184.294555 
L 1489.561192 184.294555 
L 1489.561192 74.206316 
L 1467.181513 74.206316 
z
" clip-path="url(#p0559c58cf6)" style="fill: #de8f05; stroke: #eaeaf2; stroke-linejoin: miter"/>
   </g>
   <g id="patch_131">
    <path d="M 1489.561192 184.294555 
L 1511.940871 184.294555 
L 1511.940871 57.756349 
L 1489.561192 57.756349 
z
" clip-path="url(#p0559c58cf6)" style="fill: #de8f05; stroke: #eaeaf2; stroke-linejoin: miter"/>
   </g>
   <g id="patch_132">
    <path d="M 1511.940871 184.294555 
L 1534.320551 184.294555 
L 1534.320551 85.594754 
L 1511.940871 85.594754 
z
" clip-path="url(#p0559c58cf6)" style="fill: #de8f05; stroke: #eaeaf2; stroke-linejoin: miter"/>
   </g>
   <g id="patch_133">
    <path d="M 1534.320551 184.294555 
L 1556.70023 184.294555 
L 1556.70023 75.471698 
L 1534.320551 75.471698 
z
" clip-path="url(#p0559c58cf6)" style="fill: #de8f05; stroke: #eaeaf2; stroke-linejoin: miter"/>
   </g>
   <g id="patch_134">
    <path d="M 1556.70023 184.294555 
L 1579.079909 184.294555 
L 1579.079909 99.513957 
L 1556.70023 99.513957 
z
" clip-path="url(#p0559c58cf6)" style="fill: #de8f05; stroke: #eaeaf2; stroke-linejoin: miter"/>
   </g>
   <g id="patch_135">
    <path d="M 1579.079909 184.294555 
L 1601.459588 184.294555 
L 1601.459588 71.675551 
L 1579.079909 71.675551 
z
" clip-path="url(#p0559c58cf6)" style="fill: #de8f05; stroke: #eaeaf2; stroke-linejoin: miter"/>
   </g>
   <g id="patch_136">
    <path d="M 1601.459588 184.294555 
L 1623.839267 184.294555 
L 1623.839267 59.021731 
L 1601.459588 59.021731 
z
" clip-path="url(#p0559c58cf6)" style="fill: #de8f05; stroke: #eaeaf2; stroke-linejoin: miter"/>
   </g>
   <g id="patch_137">
    <path d="M 1623.839267 184.294555 
L 1646.218946 184.294555 
L 1646.218946 76.73708 
L 1623.839267 76.73708 
z
" clip-path="url(#p0559c58cf6)" style="fill: #de8f05; stroke: #eaeaf2; stroke-linejoin: miter"/>
   </g>
   <g id="patch_138">
    <path d="M 1646.218946 184.294555 
L 1668.598626 184.294555 
L 1668.598626 70.410169 
L 1646.218946 70.410169 
z
" clip-path="url(#p0559c58cf6)" style="fill: #de8f05; stroke: #eaeaf2; stroke-linejoin: miter"/>
   </g>
   <g id="patch_139">
    <path d="M 1668.598626 184.294555 
L 1690.978305 184.294555 
L 1690.978305 59.021731 
L 1668.598626 59.021731 
z
" clip-path="url(#p0559c58cf6)" style="fill: #de8f05; stroke: #eaeaf2; stroke-linejoin: miter"/>
   </g>
   <g id="patch_140">
    <path d="M 1690.978305 184.294555 
L 1713.357984 184.294555 
L 1713.357984 76.73708 
L 1690.978305 76.73708 
z
" clip-path="url(#p0559c58cf6)" style="fill: #de8f05; stroke: #eaeaf2; stroke-linejoin: miter"/>
   </g>
   <g id="patch_141">
    <path d="M 1713.357984 184.294555 
L 1735.737663 184.294555 
L 1735.737663 79.267844 
L 1713.357984 79.267844 
z
" clip-path="url(#p0559c58cf6)" style="fill: #de8f05; stroke: #eaeaf2; stroke-linejoin: miter"/>
   </g>
   <g id="patch_142">
    <path d="M 1735.737663 184.294555 
L 1758.117342 184.294555 
L 1758.117342 83.06399 
L 1735.737663 83.06399 
z
" clip-path="url(#p0559c58cf6)" style="fill: #de8f05; stroke: #eaeaf2; stroke-linejoin: miter"/>
   </g>
   <g id="patch_143">
    <path d="M 1758.117342 184.294555 
L 1780.497021 184.294555 
L 1780.497021 51.429439 
L 1758.117342 51.429439 
z
" clip-path="url(#p0559c58cf6)" style="fill: #de8f05; stroke: #eaeaf2; stroke-linejoin: miter"/>
   </g>
   <g id="patch_144">
    <path d="M 1780.497021 184.294555 
L 1802.8767 184.294555 
L 1802.8767 40.041 
L 1780.497021 40.041 
z
" clip-path="url(#p0559c58cf6)" style="fill: #de8f05; stroke: #eaeaf2; stroke-linejoin: miter"/>
   </g>
   <g id="patch_145">
    <path d="M 1802.8767 184.294555 
L 1825.25638 184.294555 
L 1825.25638 76.73708 
L 1802.8767 76.73708 
z
" clip-path="url(#p0559c58cf6)" style="fill: #de8f05; stroke: #eaeaf2; stroke-linejoin: miter"/>
   </g>
   <g id="patch_146">
    <path d="M 1825.25638 184.294555 
L 1847.636059 184.294555 
L 1847.636059 71.675551 
L 1825.25638 71.675551 
z
" clip-path="url(#p0559c58cf6)" style="fill: #de8f05; stroke: #eaeaf2; stroke-linejoin: miter"/>
   </g>
   <g id="patch_147">
    <path d="M 1847.636059 184.294555 
L 1870.015738 184.294555 
L 1870.015738 81.798608 
L 1847.636059 81.798608 
z
" clip-path="url(#p0559c58cf6)" style="fill: #de8f05; stroke: #eaeaf2; stroke-linejoin: miter"/>
   </g>
   <g id="patch_148">
    <path d="M 1870.015738 184.294555 
L 1892.395417 184.294555 
L 1892.395417 86.860136 
L 1870.015738 86.860136 
z
" clip-path="url(#p0559c58cf6)" style="fill: #de8f05; stroke: #eaeaf2; stroke-linejoin: miter"/>
   </g>
   <g id="patch_149">
    <path d="M 1892.395417 184.294555 
L 1914.775096 184.294555 
L 1914.775096 71.675551 
L 1892.395417 71.675551 
z
" clip-path="url(#p0559c58cf6)" style="fill: #de8f05; stroke: #eaeaf2; stroke-linejoin: miter"/>
   </g>
   <g id="patch_150">
    <path d="M 1914.775096 184.294555 
L 1937.154775 184.294555 
L 1937.154775 78.002462 
L 1914.775096 78.002462 
z
" clip-path="url(#p0559c58cf6)" style="fill: #de8f05; stroke: #eaeaf2; stroke-linejoin: miter"/>
   </g>
   <g id="line2d_38">
    <path d="M 1396.685524 294.327777 
L 1962.891406 294.327777 
" clip-path="url(#p0559c58cf6)" style="fill: none; stroke-dasharray: 5.55,2.4; stroke-dashoffset: 0; stroke: #1a1a1a; stroke-width: 1.5"/>
   </g>
   <g id="line2d_39">
    <path d="M 1396.685524 74.261332 
L 1962.891406 74.261332 
" clip-path="url(#p0559c58cf6)" style="fill: none; stroke-dasharray: 5.55,2.4; stroke-dashoffset: 0; stroke: #1a1a1a; stroke-width: 1.5"/>
   </g>
   <g id="patch_151">
    <path d="M 1396.685524 404.361 
L 1396.685524 21.825 
" style="fill: none; stroke: #ffffff; stroke-width: 1.25; stroke-linejoin: miter; stroke-linecap: square"/>
   </g>
   <g id="patch_152">
    <path d="M 1962.891406 404.361 
L 1962.891406 21.825 
" style="fill: none; stroke: #ffffff; stroke-width: 1.25; stroke-linejoin: miter; stroke-linecap: square"/>
   </g>
   <g id="patch_153">
    <path d="M 1396.685524 404.361 
L 1962.891406 404.361 
" style="fill: none; stroke: #ffffff; stroke-width: 1.25; stroke-linejoin: miter; stroke-linecap: square"/>
   </g>
   <g id="patch_154">
    <path d="M 1396.685524 21.825 
L 1962.891406 21.825 
" style="fill: none; stroke: #ffffff; stroke-width: 1.25; stroke-linejoin: miter; stroke-linecap: square"/>
   </g>
   <g id="text_42">
    <!-- bad_chains1 -->
    <g style="fill: #262626" transform="translate(1645.76284 15.825) scale(0.12 -0.12)">
     <use xlink:href="#ArialMT-62"/>
     <use xlink:href="#ArialMT-61" x="55.615234"/>
     <use xlink:href="#ArialMT-64" x="111.230469"/>
     <use xlink:href="#ArialMT-5f" x="166.845703"/>
     <use xlink:href="#ArialMT-63" x="222.460938"/>
     <use xlink:href="#ArialMT-68" x="272.460938"/>
     <use xlink:href="#ArialMT-61" x="328.076172"/>
     <use xlink:href="#ArialMT-69" x="383.691406"/>
     <use xlink:href="#ArialMT-6e" x="405.908203"/>
     <use xlink:href="#ArialMT-73" x="461.523438"/>
     <use xlink:href="#ArialMT-31" x="511.523438"/>
    </g>
   </g>
  </g>
 </g>
 <defs>
  <clipPath id="pdacaa56323">
   <rect x="37.791406" y="21.825" width="566.205882" height="382.536"/>
  </clipPath>
  <clipPath id="pa55fef19c3">
   <rect x="717.238465" y="21.825" width="566.205882" height="382.536"/>
  </clipPath>
  <clipPath id="p0559c58cf6">
   <rect x="1396.685524" y="21.825" width="566.205882" height="382.536"/>
  </clipPath>
 </defs>
</svg>