<?xml version="1.0" encoding="utf-8" standalone="no"?>
<!DOCTYPE svg PUBLIC "-//W3C//DTD SVG 1.1//EN"
  "http://www.w3.org/Graphics/SVG/1.1/DTD/svg11.dtd">
<svg xmlns:xlink="http://www.w3.org/1999/xlink" width="603.132031pt" height="381.574219pt" viewBox="0 0 603.132031 381.574219" xmlns="http://www.w3.org/2000/svg" version="1.1">
 <metadata>
  <rdf:RDF xmlns:dc="http://purl.org/dc/elements/1.1/" xmlns:cc="http://creativecommons.org/ns#" xmlns:rdf="http://www.w3.org/1999/02/22-rdf-syntax-ns#">
   <cc:Work>
    <dc:type rdf:resource="http://purl.org/dc/dcmitype/StillImage"/>
    <dc:date>2023-05-30T23:15:12.570227</dc:date>
    <dc:format>image/svg+xml</dc:format>
    <dc:creator>
     <cc:Agent>
      <dc:title>Matplotlib v3.7.1, https://matplotlib.org/</dc:title>
     </cc:Agent>
    </dc:creator>
   </cc:Work>
  </rdf:RDF>
 </metadata>
 <defs>
  <style type="text/css">*{stroke-linejoin: round; stroke-linecap: butt}</style>
 </defs>
 <g id="figure_1">
  <g id="patch_1">
   <path d="M 0 381.574219 
L 603.132031 381.574219 
L 603.132031 0 
L 0 0 
z
" style="fill: #ffffff"/>
  </g>
  <g id="axes_1">
   <g id="patch_2">
    <path d="M 37.932031 339.84 
L 595.932031 339.84 
L 595.932031 7.2 
L 37.932031 7.2 
z
" style="fill: #eaeaf2"/>
   </g>
   <g id="matplotlib.axis_1">
    <g id="xtick_1">
     <g id="line2d_1">
      <path d="M 63.295668 339.84 
L 63.295668 7.2 
" clip-path="url(#pb3b9c5e6cb)" style="fill: none; stroke: #ffffff; stroke-linecap: round"/>
     </g>
     <g id="text_1">
      <!-- 0.0 -->
      <g style="fill: #262626" transform="translate(55.650668 357.213594) scale(0.11 -0.11)">
       <defs>
        <path id="ArialMT-30" d="M 266 2259 
Q 266 3072 433 3567 
Q 600 4063 929 4331 
Q 1259 4600 1759 4600 
Q 2128 4600 2406 4451 
Q 2684 4303 2865 4023 
Q 3047 3744 3150 3342 
Q 3253 2941 3253 2259 
Q 3253 1453 3087 958 
Q 2922 463 2592 192 
Q 2263 -78 1759 -78 
Q 1097 -78 719 397 
Q 266 969 266 2259 
z
M 844 2259 
Q 844 1131 1108 757 
Q 1372 384 1759 384 
Q 2147 384 2411 759 
Q 2675 1134 2675 2259 
Q 2675 3391 2411 3762 
Q 2147 4134 1753 4134 
Q 1366 4134 1134 3806 
Q 844 3388 844 2259 
z
" transform="scale(0.015625)"/>
        <path id="ArialMT-2e" d="M 581 0 
L 581 641 
L 1222 641 
L 1222 0 
L 581 0 
z
" transform="scale(0.015625)"/>
       </defs>
       <use xlink:href="#ArialMT-30"/>
       <use xlink:href="#ArialMT-2e" x="55.615234"/>
       <use xlink:href="#ArialMT-30" x="83.398438"/>
      </g>
     </g>
    </g>
    <g id="xtick_2">
     <g id="line2d_2">
      <path d="M 164.750213 339.84 
L 164.750213 7.2 
" clip-path="url(#pb3b9c5e6cb)" style="fill: none; stroke: #ffffff; stroke-linecap: round"/>
     </g>
     <g id="text_2">
      <!-- 0.2 -->
      <g style="fill: #262626" transform="translate(157.105213 357.213594) scale(0.11 -0.11)">
       <defs>
        <path id="ArialMT-32" d="M 3222 541 
L 3222 0 
L 194 0 
Q 188 203 259 391 
Q 375 700 629 1000 
Q 884 1300 1366 1694 
Q 2113 2306 2375 2664 
Q 2638 3022 2638 3341 
Q 2638 3675 2398 3904 
Q 2159 4134 1775 4134 
Q 1369 4134 1125 3890 
Q 881 3647 878 3216 
L 300 3275 
Q 359 3922 746 4261 
Q 1134 4600 1788 4600 
Q 2447 4600 2831 4234 
Q 3216 3869 3216 3328 
Q 3216 3053 3103 2787 
Q 2991 2522 2730 2228 
Q 2469 1934 1863 1422 
Q 1356 997 1212 845 
Q 1069 694 975 541 
L 3222 541 
z
" transform="scale(0.015625)"/>
       </defs>
       <use xlink:href="#ArialMT-30"/>
       <use xlink:href="#ArialMT-2e" x="55.615234"/>
       <use xlink:href="#ArialMT-32" x="83.398438"/>
      </g>
     </g>
    </g>
    <g id="xtick_3">
     <g id="line2d_3">
      <path d="M 266.204759 339.84 
L 266.204759 7.2 
" clip-path="url(#pb3b9c5e6cb)" style="fill: none; stroke: #ffffff; stroke-linecap: round"/>
     </g>
     <g id="text_3">
      <!-- 0.4 -->
      <g style="fill: #262626" transform="translate(258.559759 357.213594) scale(0.11 -0.11)">
       <defs>
        <path id="ArialMT-34" d="M 2069 0 
L 2069 1097 
L 81 1097 
L 81 1613 
L 2172 4581 
L 2631 4581 
L 2631 1613 
L 3250 1613 
L 3250 1097 
L 2631 1097 
L 2631 0 
L 2069 0 
z
M 2069 1613 
L 2069 3678 
L 634 1613 
L 2069 1613 
z
" transform="scale(0.015625)"/>
       </defs>
       <use xlink:href="#ArialMT-30"/>
       <use xlink:href="#ArialMT-2e" x="55.615234"/>
       <use xlink:href="#ArialMT-34" x="83.398438"/>
      </g>
     </g>
    </g>
    <g id="xtick_4">
     <g id="line2d_4">
      <path d="M 367.659304 339.84 
L 367.659304 7.2 
" clip-path="url(#pb3b9c5e6cb)" style="fill: none; stroke: #ffffff; stroke-linecap: round"/>
     </g>
     <g id="text_4">
      <!-- 0.6 -->
      <g style="fill: #262626" transform="translate(360.014304 357.213594) scale(0.11 -0.11)">
       <defs>
        <path id="ArialMT-36" d="M 3184 3459 
L 2625 3416 
Q 2550 3747 2413 3897 
Q 2184 4138 1850 4138 
Q 1581 4138 1378 3988 
Q 1113 3794 959 3422 
Q 806 3050 800 2363 
Q 1003 2672 1297 2822 
Q 1591 2972 1913 2972 
Q 2475 2972 2870 2558 
Q 3266 2144 3266 1488 
Q 3266 1056 3080 686 
Q 2894 316 2569 119 
Q 2244 -78 1831 -78 
Q 1128 -78 684 439 
Q 241 956 241 2144 
Q 241 3472 731 4075 
Q 1159 4600 1884 4600 
Q 2425 4600 2770 4297 
Q 3116 3994 3184 3459 
z
M 888 1484 
Q 888 1194 1011 928 
Q 1134 663 1356 523 
Q 1578 384 1822 384 
Q 2178 384 2434 671 
Q 2691 959 2691 1453 
Q 2691 1928 2437 2201 
Q 2184 2475 1800 2475 
Q 1419 2475 1153 2201 
Q 888 1928 888 1484 
z
" transform="scale(0.015625)"/>
       </defs>
       <use xlink:href="#ArialMT-30"/>
       <use xlink:href="#ArialMT-2e" x="55.615234"/>
       <use xlink:href="#ArialMT-36" x="83.398438"/>
      </g>
     </g>
    </g>
    <g id="xtick_5">
     <g id="line2d_5">
      <path d="M 469.113849 339.84 
L 469.113849 7.2 
" clip-path="url(#pb3b9c5e6cb)" style="fill: none; stroke: #ffffff; stroke-linecap: round"/>
     </g>
     <g id="text_5">
      <!-- 0.8 -->
      <g style="fill: #262626" transform="translate(461.468849 357.213594) scale(0.11 -0.11)">
       <defs>
        <path id="ArialMT-38" d="M 1131 2484 
Q 781 2613 612 2850 
Q 444 3088 444 3419 
Q 444 3919 803 4259 
Q 1163 4600 1759 4600 
Q 2359 4600 2725 4251 
Q 3091 3903 3091 3403 
Q 3091 3084 2923 2848 
Q 2756 2613 2416 2484 
Q 2838 2347 3058 2040 
Q 3278 1734 3278 1309 
Q 3278 722 2862 322 
Q 2447 -78 1769 -78 
Q 1091 -78 675 323 
Q 259 725 259 1325 
Q 259 1772 486 2073 
Q 713 2375 1131 2484 
z
M 1019 3438 
Q 1019 3113 1228 2906 
Q 1438 2700 1772 2700 
Q 2097 2700 2305 2904 
Q 2513 3109 2513 3406 
Q 2513 3716 2298 3927 
Q 2084 4138 1766 4138 
Q 1444 4138 1231 3931 
Q 1019 3725 1019 3438 
z
M 838 1322 
Q 838 1081 952 856 
Q 1066 631 1291 507 
Q 1516 384 1775 384 
Q 2178 384 2440 643 
Q 2703 903 2703 1303 
Q 2703 1709 2433 1975 
Q 2163 2241 1756 2241 
Q 1359 2241 1098 1978 
Q 838 1716 838 1322 
z
" transform="scale(0.015625)"/>
       </defs>
       <use xlink:href="#ArialMT-30"/>
       <use xlink:href="#ArialMT-2e" x="55.615234"/>
       <use xlink:href="#ArialMT-38" x="83.398438"/>
      </g>
     </g>
    </g>
    <g id="xtick_6">
     <g id="line2d_6">
      <path d="M 570.568395 339.84 
L 570.568395 7.2 
" clip-path="url(#pb3b9c5e6cb)" style="fill: none; stroke: #ffffff; stroke-linecap: round"/>
     </g>
     <g id="text_6">
      <!-- 1.0 -->
      <g style="fill: #262626" transform="translate(562.923395 357.213594) scale(0.11 -0.11)">
       <defs>
        <path id="ArialMT-31" d="M 2384 0 
L 1822 0 
L 1822 3584 
Q 1619 3391 1289 3197 
Q 959 3003 697 2906 
L 697 3450 
Q 1169 3672 1522 3987 
Q 1875 4303 2022 4600 
L 2384 4600 
L 2384 0 
z
" transform="scale(0.015625)"/>
       </defs>
       <use xlink:href="#ArialMT-31"/>
       <use xlink:href="#ArialMT-2e" x="55.615234"/>
       <use xlink:href="#ArialMT-30" x="83.398438"/>
      </g>
     </g>
    </g>
    <g id="text_7">
     <!-- $\pi$ -->
     <g style="fill: #262626" transform="translate(313.512031 371.989219) scale(0.12 -0.12)">
      <defs>
       <path id="Cmmi10-bc" d="M 647 109 
Q 647 144 672 213 
Q 850 584 1004 942 
Q 1159 1300 1282 1639 
Q 1406 1978 1509 2363 
L 1100 2363 
Q 866 2363 662 2216 
Q 459 2069 325 1844 
Q 313 1819 288 1819 
L 213 1819 
Q 153 1819 153 1881 
Q 153 1894 166 1919 
Q 375 2275 614 2517 
Q 853 2759 1153 2759 
L 3475 2759 
Q 3541 2759 3587 2715 
Q 3634 2672 3634 2597 
Q 3634 2503 3567 2433 
Q 3500 2363 3406 2363 
L 2591 2363 
Q 2488 1859 2478 1381 
Q 2478 766 2694 269 
Q 2713 231 2713 191 
Q 2713 122 2672 62 
Q 2631 3 2567 -34 
Q 2503 -72 2431 -72 
Q 2263 -72 2200 203 
Q 2138 478 2138 738 
Q 2138 1103 2200 1442 
Q 2263 1781 2400 2363 
L 1703 2363 
Q 1197 313 1094 103 
Q 1003 -72 844 -72 
Q 766 -72 706 -20 
Q 647 31 647 109 
z
" transform="scale(0.015625)"/>
      </defs>
      <use xlink:href="#Cmmi10-bc" transform="translate(0 0.890625)"/>
     </g>
    </g>
   </g>
   <g id="matplotlib.axis_2">
    <g id="ytick_1">
     <g id="line2d_7">
      <path d="M 37.932031 324.72 
L 595.932031 324.72 
" clip-path="url(#pb3b9c5e6cb)" style="fill: none; stroke: #ffffff; stroke-linecap: round"/>
     </g>
     <g id="text_8">
      <!-- 0 -->
      <g style="fill: #262626" transform="translate(22.315 328.656797) scale(0.11 -0.11)">
       <use xlink:href="#ArialMT-30"/>
      </g>
     </g>
    </g>
    <g id="ytick_2">
     <g id="line2d_8">
      <path d="M 37.932031 254.814523 
L 595.932031 254.814523 
" clip-path="url(#pb3b9c5e6cb)" style="fill: none; stroke: #ffffff; stroke-linecap: round"/>
     </g>
     <g id="text_9">
      <!-- 1 -->
      <g style="fill: #262626" transform="translate(22.315 258.75132) scale(0.11 -0.11)">
       <use xlink:href="#ArialMT-31"/>
      </g>
     </g>
    </g>
    <g id="ytick_3">
     <g id="line2d_9">
      <path d="M 37.932031 184.909047 
L 595.932031 184.909047 
" clip-path="url(#pb3b9c5e6cb)" style="fill: none; stroke: #ffffff; stroke-linecap: round"/>
     </g>
     <g id="text_10">
      <!-- 2 -->
      <g style="fill: #262626" transform="translate(22.315 188.845843) scale(0.11 -0.11)">
       <use xlink:href="#ArialMT-32"/>
      </g>
     </g>
    </g>
    <g id="ytick_4">
     <g id="line2d_10">
      <path d="M 37.932031 115.00357 
L 595.932031 115.00357 
" clip-path="url(#pb3b9c5e6cb)" style="fill: none; stroke: #ffffff; stroke-linecap: round"/>
     </g>
     <g id="text_11">
      <!-- 3 -->
      <g style="fill: #262626" transform="translate(22.315 118.940367) scale(0.11 -0.11)">
       <defs>
        <path id="ArialMT-33" d="M 269 1209 
L 831 1284 
Q 928 806 1161 595 
Q 1394 384 1728 384 
Q 2125 384 2398 659 
Q 2672 934 2672 1341 
Q 2672 1728 2419 1979 
Q 2166 2231 1775 2231 
Q 1616 2231 1378 2169 
L 1441 2663 
Q 1497 2656 1531 2656 
Q 1891 2656 2178 2843 
Q 2466 3031 2466 3422 
Q 2466 3731 2256 3934 
Q 2047 4138 1716 4138 
Q 1388 4138 1169 3931 
Q 950 3725 888 3313 
L 325 3413 
Q 428 3978 793 4289 
Q 1159 4600 1703 4600 
Q 2078 4600 2393 4439 
Q 2709 4278 2876 4000 
Q 3044 3722 3044 3409 
Q 3044 3113 2884 2869 
Q 2725 2625 2413 2481 
Q 2819 2388 3044 2092 
Q 3269 1797 3269 1353 
Q 3269 753 2831 336 
Q 2394 -81 1725 -81 
Q 1122 -81 723 278 
Q 325 638 269 1209 
z
" transform="scale(0.015625)"/>
       </defs>
       <use xlink:href="#ArialMT-33"/>
      </g>
     </g>
    </g>
    <g id="ytick_5">
     <g id="line2d_11">
      <path d="M 37.932031 45.098093 
L 595.932031 45.098093 
" clip-path="url(#pb3b9c5e6cb)" style="fill: none; stroke: #ffffff; stroke-linecap: round"/>
     </g>
     <g id="text_12">
      <!-- 4 -->
      <g style="fill: #262626" transform="translate(22.315 49.03489) scale(0.11 -0.11)">
       <use xlink:href="#ArialMT-34"/>
      </g>
     </g>
    </g>
    <g id="text_13">
     <!-- density -->
     <g style="fill: #262626" transform="translate(15.789375 192.529688) rotate(-90) scale(0.12 -0.12)">
      <defs>
       <path id="ArialMT-64" d="M 2575 0 
L 2575 419 
Q 2259 -75 1647 -75 
Q 1250 -75 917 144 
Q 584 363 401 755 
Q 219 1147 219 1656 
Q 219 2153 384 2558 
Q 550 2963 881 3178 
Q 1213 3394 1622 3394 
Q 1922 3394 2156 3267 
Q 2391 3141 2538 2938 
L 2538 4581 
L 3097 4581 
L 3097 0 
L 2575 0 
z
M 797 1656 
Q 797 1019 1065 703 
Q 1334 388 1700 388 
Q 2069 388 2326 689 
Q 2584 991 2584 1609 
Q 2584 2291 2321 2609 
Q 2059 2928 1675 2928 
Q 1300 2928 1048 2622 
Q 797 2316 797 1656 
z
" transform="scale(0.015625)"/>
       <path id="ArialMT-65" d="M 2694 1069 
L 3275 997 
Q 3138 488 2766 206 
Q 2394 -75 1816 -75 
Q 1088 -75 661 373 
Q 234 822 234 1631 
Q 234 2469 665 2931 
Q 1097 3394 1784 3394 
Q 2450 3394 2872 2941 
Q 3294 2488 3294 1666 
Q 3294 1616 3291 1516 
L 816 1516 
Q 847 969 1125 678 
Q 1403 388 1819 388 
Q 2128 388 2347 550 
Q 2566 713 2694 1069 
z
M 847 1978 
L 2700 1978 
Q 2663 2397 2488 2606 
Q 2219 2931 1791 2931 
Q 1403 2931 1139 2672 
Q 875 2413 847 1978 
z
" transform="scale(0.015625)"/>
       <path id="ArialMT-6e" d="M 422 0 
L 422 3319 
L 928 3319 
L 928 2847 
Q 1294 3394 1984 3394 
Q 2284 3394 2536 3286 
Q 2788 3178 2913 3003 
Q 3038 2828 3088 2588 
Q 3119 2431 3119 2041 
L 3119 0 
L 2556 0 
L 2556 2019 
Q 2556 2363 2490 2533 
Q 2425 2703 2258 2804 
Q 2091 2906 1866 2906 
Q 1506 2906 1245 2678 
Q 984 2450 984 1813 
L 984 0 
L 422 0 
z
" transform="scale(0.015625)"/>
       <path id="ArialMT-73" d="M 197 991 
L 753 1078 
Q 800 744 1014 566 
Q 1228 388 1613 388 
Q 2000 388 2187 545 
Q 2375 703 2375 916 
Q 2375 1106 2209 1216 
Q 2094 1291 1634 1406 
Q 1016 1563 777 1677 
Q 538 1791 414 1992 
Q 291 2194 291 2438 
Q 291 2659 392 2848 
Q 494 3038 669 3163 
Q 800 3259 1026 3326 
Q 1253 3394 1513 3394 
Q 1903 3394 2198 3281 
Q 2494 3169 2634 2976 
Q 2775 2784 2828 2463 
L 2278 2388 
Q 2241 2644 2061 2787 
Q 1881 2931 1553 2931 
Q 1166 2931 1000 2803 
Q 834 2675 834 2503 
Q 834 2394 903 2306 
Q 972 2216 1119 2156 
Q 1203 2125 1616 2013 
Q 2213 1853 2448 1751 
Q 2684 1650 2818 1456 
Q 2953 1263 2953 975 
Q 2953 694 2789 445 
Q 2625 197 2315 61 
Q 2006 -75 1616 -75 
Q 969 -75 630 194 
Q 291 463 197 991 
z
" transform="scale(0.015625)"/>
       <path id="ArialMT-69" d="M 425 3934 
L 425 4581 
L 988 4581 
L 988 3934 
L 425 3934 
z
M 425 0 
L 425 3319 
L 988 3319 
L 988 0 
L 425 0 
z
" transform="scale(0.015625)"/>
       <path id="ArialMT-74" d="M 1650 503 
L 1731 6 
Q 1494 -44 1306 -44 
Q 1000 -44 831 53 
Q 663 150 594 308 
Q 525 466 525 972 
L 525 2881 
L 113 2881 
L 113 3319 
L 525 3319 
L 525 4141 
L 1084 4478 
L 1084 3319 
L 1650 3319 
L 1650 2881 
L 1084 2881 
L 1084 941 
Q 1084 700 1114 631 
Q 1144 563 1211 522 
Q 1278 481 1403 481 
Q 1497 481 1650 503 
z
" transform="scale(0.015625)"/>
       <path id="ArialMT-79" d="M 397 -1278 
L 334 -750 
Q 519 -800 656 -800 
Q 844 -800 956 -737 
Q 1069 -675 1141 -563 
Q 1194 -478 1313 -144 
Q 1328 -97 1363 -6 
L 103 3319 
L 709 3319 
L 1400 1397 
Q 1534 1031 1641 628 
Q 1738 1016 1872 1384 
L 2581 3319 
L 3144 3319 
L 1881 -56 
Q 1678 -603 1566 -809 
Q 1416 -1088 1222 -1217 
Q 1028 -1347 759 -1347 
Q 597 -1347 397 -1278 
z
" transform="scale(0.015625)"/>
      </defs>
      <use xlink:href="#ArialMT-64"/>
      <use xlink:href="#ArialMT-65" x="55.615234"/>
      <use xlink:href="#ArialMT-6e" x="111.230469"/>
      <use xlink:href="#ArialMT-73" x="166.845703"/>
      <use xlink:href="#ArialMT-69" x="216.845703"/>
      <use xlink:href="#ArialMT-74" x="239.0625"/>
      <use xlink:href="#ArialMT-79" x="266.845703"/>
     </g>
    </g>
   </g>
   <g id="PolyCollection_1">
    <defs>
     <path id="m1cd0ffd586" d="M 63.295668 -56.854219 
L 63.295668 -56.854219 
L 68.419635 -61.048119 
L 73.543601 -65.15643 
L 78.667568 -69.179151 
L 83.791535 -73.116283 
L 88.915502 -76.967824 
L 94.039469 -80.733776 
L 99.163436 -84.414137 
L 104.287403 -88.008909 
L 109.41137 -91.518092 
L 114.535337 -94.941684 
L 119.659304 -98.279686 
L 124.783271 -101.532099 
L 129.907238 -104.698922 
L 135.031205 -107.780155 
L 140.155172 -110.775799 
L 145.279139 -113.685852 
L 150.403106 -116.510316 
L 155.527073 -119.24919 
L 160.65104 -121.902474 
L 165.775006 -124.470168 
L 170.898973 -126.952273 
L 176.02294 -129.348787 
L 181.146907 -131.659712 
L 186.270874 -133.885047 
L 191.394841 -136.024792 
L 196.518808 -138.078948 
L 201.642775 -140.047513 
L 206.766742 -141.930489 
L 211.890709 -143.727875 
L 217.014676 -145.439671 
L 222.138643 -147.065878 
L 227.26261 -148.606494 
L 232.386577 -150.061521 
L 237.510544 -151.430958 
L 242.634511 -152.714805 
L 247.758478 -153.913062 
L 252.882444 -155.02573 
L 258.006411 -156.052808 
L 263.130378 -156.994296 
L 268.254345 -157.850194 
L 273.378312 -158.620502 
L 278.502279 -159.30522 
L 283.626246 -159.904349 
L 288.750213 -160.417888 
L 293.87418 -160.845837 
L 298.998147 -161.188196 
L 304.122114 -161.444966 
L 309.246081 -161.616145 
L 314.370048 -161.701735 
L 319.494015 -161.701735 
L 324.617982 -161.616145 
L 329.741949 -161.444966 
L 334.865916 -161.188196 
L 339.989882 -160.845837 
L 345.113849 -160.417888 
L 350.237816 -159.904349 
L 355.361783 -159.30522 
L 360.48575 -158.620502 
L 365.609717 -157.850194 
L 370.733684 -156.994296 
L 375.857651 -156.052808 
L 380.981618 -155.02573 
L 386.105585 -153.913062 
L 391.229552 -152.714805 
L 396.353519 -151.430958 
L 401.477486 -150.061521 
L 406.601453 -148.606494 
L 411.72542 -147.065878 
L 416.849387 -145.439671 
L 421.973354 -143.727875 
L 427.097321 -141.930489 
L 432.221287 -140.047513 
L 437.345254 -138.078948 
L 442.469221 -136.024792 
L 447.593188 -133.885047 
L 452.717155 -131.659712 
L 457.841122 -129.348787 
L 462.965089 -126.952273 
L 468.089056 -124.470168 
L 473.213023 -121.902474 
L 478.33699 -119.24919 
L 483.460957 -116.510316 
L 488.584924 -113.685852 
L 493.708891 -110.775799 
L 498.832858 -107.780155 
L 503.956825 -104.698922 
L 509.080792 -101.532099 
L 514.204759 -98.279686 
L 519.328725 -94.941684 
L 524.452692 -91.518092 
L 529.576659 -88.008909 
L 534.700626 -84.414137 
L 539.824593 -80.733776 
L 544.94856 -76.967824 
L 550.072527 -73.116283 
L 555.196494 -69.179151 
L 560.320461 -65.15643 
L 565.444428 -61.048119 
L 570.568395 -56.854219 
L 570.568395 -56.854219 
L 570.568395 -56.854219 
L 565.444428 -56.854219 
L 560.320461 -56.854219 
L 555.196494 -56.854219 
L 550.072527 -56.854219 
L 544.94856 -56.854219 
L 539.824593 -56.854219 
L 534.700626 -56.854219 
L 529.576659 -56.854219 
L 524.452692 -56.854219 
L 519.328725 -56.854219 
L 514.204759 -56.854219 
L 509.080792 -56.854219 
L 503.956825 -56.854219 
L 498.832858 -56.854219 
L 493.708891 -56.854219 
L 488.584924 -56.854219 
L 483.460957 -56.854219 
L 478.33699 -56.854219 
L 473.213023 -56.854219 
L 468.089056 -56.854219 
L 462.965089 -56.854219 
L 457.841122 -56.854219 
L 452.717155 -56.854219 
L 447.593188 -56.854219 
L 442.469221 -56.854219 
L 437.345254 -56.854219 
L 432.221287 -56.854219 
L 427.097321 -56.854219 
L 421.973354 -56.854219 
L 416.849387 -56.854219 
L 411.72542 -56.854219 
L 406.601453 -56.854219 
L 401.477486 -56.854219 
L 396.353519 -56.854219 
L 391.229552 -56.854219 
L 386.105585 -56.854219 
L 380.981618 -56.854219 
L 375.857651 -56.854219 
L 370.733684 -56.854219 
L 365.609717 -56.854219 
L 360.48575 -56.854219 
L 355.361783 -56.854219 
L 350.237816 -56.854219 
L 345.113849 -56.854219 
L 339.989882 -56.854219 
L 334.865916 -56.854219 
L 329.741949 -56.854219 
L 324.617982 -56.854219 
L 319.494015 -56.854219 
L 314.370048 -56.854219 
L 309.246081 -56.854219 
L 304.122114 -56.854219 
L 298.998147 -56.854219 
L 293.87418 -56.854219 
L 288.750213 -56.854219 
L 283.626246 -56.854219 
L 278.502279 -56.854219 
L 273.378312 -56.854219 
L 268.254345 -56.854219 
L 263.130378 -56.854219 
L 258.006411 -56.854219 
L 252.882444 -56.854219 
L 247.758478 -56.854219 
L 242.634511 -56.854219 
L 237.510544 -56.854219 
L 232.386577 -56.854219 
L 227.26261 -56.854219 
L 222.138643 -56.854219 
L 217.014676 -56.854219 
L 211.890709 -56.854219 
L 206.766742 -56.854219 
L 201.642775 -56.854219 
L 196.518808 -56.854219 
L 191.394841 -56.854219 
L 186.270874 -56.854219 
L 181.146907 -56.854219 
L 176.02294 -56.854219 
L 170.898973 -56.854219 
L 165.775006 -56.854219 
L 160.65104 -56.854219 
L 155.527073 -56.854219 
L 150.403106 -56.854219 
L 145.279139 -56.854219 
L 140.155172 -56.854219 
L 135.031205 -56.854219 
L 129.907238 -56.854219 
L 124.783271 -56.854219 
L 119.659304 -56.854219 
L 114.535337 -56.854219 
L 109.41137 -56.854219 
L 104.287403 -56.854219 
L 99.163436 -56.854219 
L 94.039469 -56.854219 
L 88.915502 -56.854219 
L 83.791535 -56.854219 
L 78.667568 -56.854219 
L 73.543601 -56.854219 
L 68.419635 -56.854219 
L 63.295668 -56.854219 
z
" style="stroke: #1a1a1a; stroke-opacity: 0.2; stroke-width: 4"/>
    </defs>
    <g clip-path="url(#pb3b9c5e6cb)">
     <use xlink:href="#m1cd0ffd586" x="0" y="381.574219" style="fill: #1a1a1a; fill-opacity: 0.2; stroke: #1a1a1a; stroke-opacity: 0.2; stroke-width: 4"/>
    </g>
   </g>
   <g id="PolyCollection_2">
    <defs>
     <path id="m4af6e3b678" d="M 63.295668 -56.854219 
L 63.295668 -56.854219 
L 68.419635 -56.854219 
L 73.543601 -56.854219 
L 78.667568 -56.854219 
L 83.791535 -56.854219 
L 88.915502 -56.854219 
L 94.039469 -56.854219 
L 99.163436 -56.854219 
L 104.287403 -56.854219 
L 109.41137 -56.854219 
L 114.535337 -56.854219 
L 119.659304 -56.854219 
L 124.783271 -56.854219 
L 129.907238 -56.854219 
L 135.031205 -56.85422 
L 140.155172 -56.854222 
L 145.279139 -56.854228 
L 150.403106 -56.854241 
L 155.527073 -56.85427 
L 160.65104 -56.854332 
L 165.775006 -56.854457 
L 170.898973 -56.854701 
L 176.02294 -56.855158 
L 181.146907 -56.855987 
L 186.270874 -56.857446 
L 191.394841 -56.85994 
L 196.518808 -56.864095 
L 201.642775 -56.870849 
L 206.766742 -56.881581 
L 211.890709 -56.898278 
L 217.014676 -56.923739 
L 222.138643 -56.961845 
L 227.26261 -57.017873 
L 232.386577 -57.09888 
L 237.510544 -57.214152 
L 242.634511 -57.375711 
L 247.758478 -57.598887 
L 252.882444 -57.902933 
L 258.006411 -58.311676 
L 263.130378 -58.854175 
L 268.254345 -59.565354 
L 273.378312 -60.486579 
L 278.502279 -61.666124 
L 283.626246 -63.159475 
L 288.750213 -65.029416 
L 293.87418 -67.345826 
L 298.998147 -70.185128 
L 304.122114 -73.629316 
L 309.246081 -77.764512 
L 314.370048 -82.678995 
L 319.494015 -88.460675 
L 324.617982 -95.193989 
L 329.741949 -102.956233 
L 334.865916 -111.813388 
L 339.989882 -121.815488 
L 345.113849 -132.991673 
L 350.237816 -145.345081 
L 355.361783 -158.847765 
L 360.48575 -173.435895 
L 365.609717 -189.005505 
L 370.733684 -205.409093 
L 375.857651 -222.453405 
L 380.981618 -239.898698 
L 386.105585 -257.45982 
L 391.229552 -274.809355 
L 396.353519 -291.583067 
L 401.477486 -307.387754 
L 406.601453 -321.811569 
L 411.72542 -334.436682 
L 416.849387 -344.854054 
L 421.973354 -352.679909 
L 427.097321 -357.573328 
L 432.221287 -359.254219 
L 437.345254 -357.520765 
L 442.469221 -352.26533 
L 447.593188 -343.487703 
L 452.717155 -331.304545 
L 457.841122 -315.953941 
L 462.965089 -297.794088 
L 468.089056 -277.295382 
L 473.213023 -255.025472 
L 478.33699 -231.62732 
L 483.460957 -207.790771 
L 488.584924 -184.218789 
L 493.708891 -161.590076 
L 498.832858 -140.520465 
L 503.956825 -121.525966 
L 509.080792 -104.990748 
L 514.204759 -91.14348 
L 519.328725 -80.045213 
L 524.452692 -71.591401 
L 529.576659 -65.529458 
L 534.700626 -61.491599 
L 539.824593 -59.04054 
L 544.94856 -57.723069 
L 550.072527 -57.124003 
L 555.196494 -56.910992 
L 560.320461 -56.860102 
L 565.444428 -56.854327 
L 570.568395 -56.854219 
L 570.568395 -56.854219 
L 570.568395 -56.854219 
L 565.444428 -56.854219 
L 560.320461 -56.854219 
L 555.196494 -56.854219 
L 550.072527 -56.854219 
L 544.94856 -56.854219 
L 539.824593 -56.854219 
L 534.700626 -56.854219 
L 529.576659 -56.854219 
L 524.452692 -56.854219 
L 519.328725 -56.854219 
L 514.204759 -56.854219 
L 509.080792 -56.854219 
L 503.956825 -56.854219 
L 498.832858 -56.854219 
L 493.708891 -56.854219 
L 488.584924 -56.854219 
L 483.460957 -56.854219 
L 478.33699 -56.854219 
L 473.213023 -56.854219 
L 468.089056 -56.854219 
L 462.965089 -56.854219 
L 457.841122 -56.854219 
L 452.717155 -56.854219 
L 447.593188 -56.854219 
L 442.469221 -56.854219 
L 437.345254 -56.854219 
L 432.221287 -56.854219 
L 427.097321 -56.854219 
L 421.973354 -56.854219 
L 416.849387 -56.854219 
L 411.72542 -56.854219 
L 406.601453 -56.854219 
L 401.477486 -56.854219 
L 396.353519 -56.854219 
L 391.229552 -56.854219 
L 386.105585 -56.854219 
L 380.981618 -56.854219 
L 375.857651 -56.854219 
L 370.733684 -56.854219 
L 365.609717 -56.854219 
L 360.48575 -56.854219 
L 355.361783 -56.854219 
L 350.237816 -56.854219 
L 345.113849 -56.854219 
L 339.989882 -56.854219 
L 334.865916 -56.854219 
L 329.741949 -56.854219 
L 324.617982 -56.854219 
L 319.494015 -56.854219 
L 314.370048 -56.854219 
L 309.246081 -56.854219 
L 304.122114 -56.854219 
L 298.998147 -56.854219 
L 293.87418 -56.854219 
L 288.750213 -56.854219 
L 283.626246 -56.854219 
L 278.502279 -56.854219 
L 273.378312 -56.854219 
L 268.254345 -56.854219 
L 263.130378 -56.854219 
L 258.006411 -56.854219 
L 252.882444 -56.854219 
L 247.758478 -56.854219 
L 242.634511 -56.854219 
L 237.510544 -56.854219 
L 232.386577 -56.854219 
L 227.26261 -56.854219 
L 222.138643 -56.854219 
L 217.014676 -56.854219 
L 211.890709 -56.854219 
L 206.766742 -56.854219 
L 201.642775 -56.854219 
L 196.518808 -56.854219 
L 191.394841 -56.854219 
L 186.270874 -56.854219 
L 181.146907 -56.854219 
L 176.02294 -56.854219 
L 170.898973 -56.854219 
L 165.775006 -56.854219 
L 160.65104 -56.854219 
L 155.527073 -56.854219 
L 150.403106 -56.854219 
L 145.279139 -56.854219 
L 140.155172 -56.854219 
L 135.031205 -56.854219 
L 129.907238 -56.854219 
L 124.783271 -56.854219 
L 119.659304 -56.854219 
L 114.535337 -56.854219 
L 109.41137 -56.854219 
L 104.287403 -56.854219 
L 99.163436 -56.854219 
L 94.039469 -56.854219 
L 88.915502 -56.854219 
L 83.791535 -56.854219 
L 78.667568 -56.854219 
L 73.543601 -56.854219 
L 68.419635 -56.854219 
L 63.295668 -56.854219 
z
" style="stroke: #d55e00; stroke-opacity: 0.2; stroke-width: 4"/>
    </defs>
    <g clip-path="url(#pb3b9c5e6cb)">
     <use xlink:href="#m4af6e3b678" x="0" y="381.574219" style="fill: #d55e00; fill-opacity: 0.2; stroke: #d55e00; stroke-opacity: 0.2; stroke-width: 4"/>
    </g>
   </g>
   <g id="PolyCollection_3">
    <defs>
     <path id="mb1c01864d6" d="M 63.295668 -56.854219 
L 63.295668 -56.854219 
L 68.419635 -56.854219 
L 73.543601 -56.854219 
L 78.667568 -56.854219 
L 83.791535 -56.854219 
L 88.915502 -56.854219 
L 94.039469 -56.854219 
L 99.163436 -56.854219 
L 104.287403 -56.854219 
L 109.41137 -56.854219 
L 114.535337 -56.854219 
L 119.659304 -56.854219 
L 124.783271 -56.854219 
L 129.907238 -56.854219 
L 135.031205 -56.854221 
L 140.155172 -56.854224 
L 145.279139 -56.854231 
L 150.403106 -56.854248 
L 155.527073 -56.854284 
L 160.65104 -56.854357 
L 165.775006 -56.854499 
L 170.898973 -56.854766 
L 176.02294 -56.85525 
L 181.146907 -56.8561 
L 186.270874 -56.857553 
L 191.394841 -56.85997 
L 196.518808 -56.863895 
L 201.642775 -56.870126 
L 206.766742 -56.879812 
L 211.890709 -56.894577 
L 217.014676 -56.916669 
L 222.138643 -56.949157 
L 227.26261 -56.996155 
L 232.386577 -57.0631 
L 237.510544 -57.157064 
L 242.634511 -57.287122 
L 247.758478 -57.464754 
L 252.882444 -57.704289 
L 258.006411 -58.023377 
L 263.130378 -58.443482 
L 268.254345 -58.990362 
L 273.378312 -59.694545 
L 278.502279 -60.591743 
L 283.626246 -61.723191 
L 288.750213 -63.135872 
L 293.87418 -64.882579 
L 298.998147 -67.021789 
L 304.122114 -69.617283 
L 309.246081 -72.737484 
L 314.370048 -76.454467 
L 319.494015 -80.842593 
L 324.617982 -85.976754 
L 329.741949 -91.930198 
L 334.865916 -98.77193 
L 339.989882 -106.56371 
L 345.113849 -115.356672 
L 350.237816 -125.18762 
L 355.361783 -136.075095 
L 360.48575 -148.015315 
L 365.609717 -160.978133 
L 370.733684 -174.903173 
L 375.857651 -189.696359 
L 380.981618 -205.227027 
L 386.105585 -221.325888 
L 391.229552 -237.784053 
L 396.353519 -254.353395 
L 401.477486 -270.748457 
L 406.601453 -286.650124 
L 411.72542 -301.711213 
L 416.849387 -315.564083 
L 421.973354 -327.830291 
L 427.097321 -338.132203 
L 432.221287 -346.106386 
L 437.345254 -351.418441 
L 442.469221 -353.778828 
L 447.593188 -352.959064 
L 452.717155 -348.807539 
L 457.841122 -341.26407 
L 462.965089 -330.372191 
L 468.089056 -316.288105 
L 473.213023 -299.285225 
L 478.33699 -279.753241 
L 483.460957 -258.190826 
L 488.584924 -235.191299 
L 493.708891 -211.420921 
L 498.832858 -187.589986 
L 503.956825 -164.417461 
L 509.080792 -142.590644 
L 514.204759 -122.722126 
L 519.328725 -105.307194 
L 524.452692 -90.685663 
L 529.576659 -79.01276 
L 534.700626 -70.244138 
L 539.824593 -64.139911 
L 544.94856 -60.291683 
L 550.072527 -58.174372 
L 555.196494 -57.220779 
L 560.320461 -56.910608 
L 565.444428 -56.856274 
L 570.568395 -56.854219 
L 570.568395 -56.854219 
L 570.568395 -56.854219 
L 565.444428 -56.854219 
L 560.320461 -56.854219 
L 555.196494 -56.854219 
L 550.072527 -56.854219 
L 544.94856 -56.854219 
L 539.824593 -56.854219 
L 534.700626 -56.854219 
L 529.576659 -56.854219 
L 524.452692 -56.854219 
L 519.328725 -56.854219 
L 514.204759 -56.854219 
L 509.080792 -56.854219 
L 503.956825 -56.854219 
L 498.832858 -56.854219 
L 493.708891 -56.854219 
L 488.584924 -56.854219 
L 483.460957 -56.854219 
L 478.33699 -56.854219 
L 473.213023 -56.854219 
L 468.089056 -56.854219 
L 462.965089 -56.854219 
L 457.841122 -56.854219 
L 452.717155 -56.854219 
L 447.593188 -56.854219 
L 442.469221 -56.854219 
L 437.345254 -56.854219 
L 432.221287 -56.854219 
L 427.097321 -56.854219 
L 421.973354 -56.854219 
L 416.849387 -56.854219 
L 411.72542 -56.854219 
L 406.601453 -56.854219 
L 401.477486 -56.854219 
L 396.353519 -56.854219 
L 391.229552 -56.854219 
L 386.105585 -56.854219 
L 380.981618 -56.854219 
L 375.857651 -56.854219 
L 370.733684 -56.854219 
L 365.609717 -56.854219 
L 360.48575 -56.854219 
L 355.361783 -56.854219 
L 350.237816 -56.854219 
L 345.113849 -56.854219 
L 339.989882 -56.854219 
L 334.865916 -56.854219 
L 329.741949 -56.854219 
L 324.617982 -56.854219 
L 319.494015 -56.854219 
L 314.370048 -56.854219 
L 309.246081 -56.854219 
L 304.122114 -56.854219 
L 298.998147 -56.854219 
L 293.87418 -56.854219 
L 288.750213 -56.854219 
L 283.626246 -56.854219 
L 278.502279 -56.854219 
L 273.378312 -56.854219 
L 268.254345 -56.854219 
L 263.130378 -56.854219 
L 258.006411 -56.854219 
L 252.882444 -56.854219 
L 247.758478 -56.854219 
L 242.634511 -56.854219 
L 237.510544 -56.854219 
L 232.386577 -56.854219 
L 227.26261 -56.854219 
L 222.138643 -56.854219 
L 217.014676 -56.854219 
L 211.890709 -56.854219 
L 206.766742 -56.854219 
L 201.642775 -56.854219 
L 196.518808 -56.854219 
L 191.394841 -56.854219 
L 186.270874 -56.854219 
L 181.146907 -56.854219 
L 176.02294 -56.854219 
L 170.898973 -56.854219 
L 165.775006 -56.854219 
L 160.65104 -56.854219 
L 155.527073 -56.854219 
L 150.403106 -56.854219 
L 145.279139 -56.854219 
L 140.155172 -56.854219 
L 135.031205 -56.854219 
L 129.907238 -56.854219 
L 124.783271 -56.854219 
L 119.659304 -56.854219 
L 114.535337 -56.854219 
L 109.41137 -56.854219 
L 104.287403 -56.854219 
L 99.163436 -56.854219 
L 94.039469 -56.854219 
L 88.915502 -56.854219 
L 83.791535 -56.854219 
L 78.667568 -56.854219 
L 73.543601 -56.854219 
L 68.419635 -56.854219 
L 63.295668 -56.854219 
z
" style="stroke: #0173b2; stroke-opacity: 0.2; stroke-width: 4"/>
    </defs>
    <g clip-path="url(#pb3b9c5e6cb)">
     <use xlink:href="#mb1c01864d6" x="0" y="381.574219" style="fill: #0173b2; fill-opacity: 0.2; stroke: #0173b2; stroke-opacity: 0.2; stroke-width: 4"/>
    </g>
   </g>
   <g id="patch_3">
    <path d="M 37.932031 339.84 
L 37.932031 7.2 
" style="fill: none; stroke: #ffffff; stroke-width: 1.25; stroke-linejoin: miter; stroke-linecap: square"/>
   </g>
   <g id="patch_4">
    <path d="M 595.932031 339.84 
L 595.932031 7.2 
" style="fill: none; stroke: #ffffff; stroke-width: 1.25; stroke-linejoin: miter; stroke-linecap: square"/>
   </g>
   <g id="patch_5">
    <path d="M 37.932031 339.84 
L 595.932031 339.84 
" style="fill: none; stroke: #ffffff; stroke-width: 1.25; stroke-linejoin: miter; stroke-linecap: square"/>
   </g>
   <g id="patch_6">
    <path d="M 37.932031 7.2 
L 595.932031 7.2 
" style="fill: none; stroke: #ffffff; stroke-width: 1.25; stroke-linejoin: miter; stroke-linecap: square"/>
   </g>
   <g id="legend_1">
    <g id="patch_7">
     <path d="M 472.319531 62.679531 
L 588.232031 62.679531 
Q 590.432031 62.679531 590.432031 60.479531 
L 590.432031 14.9 
Q 590.432031 12.7 588.232031 12.7 
L 472.319531 12.7 
Q 470.119531 12.7 470.119531 14.9 
L 470.119531 60.479531 
Q 470.119531 62.679531 472.319531 62.679531 
z
" style="fill: #eaeaf2; opacity: 0.8; stroke: #cccccc; stroke-linejoin: miter"/>
    </g>
    <g id="patch_8">
     <path d="M 474.519531 24.973594 
L 496.519531 24.973594 
L 496.519531 17.273594 
L 474.519531 17.273594 
z
" style="fill: #1a1a1a; fill-opacity: 0.2; stroke: #1a1a1a; stroke-opacity: 0.2; stroke-width: 4; stroke-linejoin: miter"/>
    </g>
    <g id="text_14">
     <!-- prior -->
     <g style="fill: #262626" transform="translate(505.319531 24.973594) scale(0.11 -0.11)">
      <defs>
       <path id="ArialMT-70" d="M 422 -1272 
L 422 3319 
L 934 3319 
L 934 2888 
Q 1116 3141 1344 3267 
Q 1572 3394 1897 3394 
Q 2322 3394 2647 3175 
Q 2972 2956 3137 2557 
Q 3303 2159 3303 1684 
Q 3303 1175 3120 767 
Q 2938 359 2589 142 
Q 2241 -75 1856 -75 
Q 1575 -75 1351 44 
Q 1128 163 984 344 
L 984 -1272 
L 422 -1272 
z
M 931 1641 
Q 931 1000 1190 694 
Q 1450 388 1819 388 
Q 2194 388 2461 705 
Q 2728 1022 2728 1688 
Q 2728 2322 2467 2637 
Q 2206 2953 1844 2953 
Q 1484 2953 1207 2617 
Q 931 2281 931 1641 
z
" transform="scale(0.015625)"/>
       <path id="ArialMT-72" d="M 416 0 
L 416 3319 
L 922 3319 
L 922 2816 
Q 1116 3169 1280 3281 
Q 1444 3394 1641 3394 
Q 1925 3394 2219 3213 
L 2025 2691 
Q 1819 2813 1613 2813 
Q 1428 2813 1281 2702 
Q 1134 2591 1072 2394 
Q 978 2094 978 1738 
L 978 0 
L 416 0 
z
" transform="scale(0.015625)"/>
       <path id="ArialMT-6f" d="M 213 1659 
Q 213 2581 725 3025 
Q 1153 3394 1769 3394 
Q 2453 3394 2887 2945 
Q 3322 2497 3322 1706 
Q 3322 1066 3130 698 
Q 2938 331 2570 128 
Q 2203 -75 1769 -75 
Q 1072 -75 642 372 
Q 213 819 213 1659 
z
M 791 1659 
Q 791 1022 1069 705 
Q 1347 388 1769 388 
Q 2188 388 2466 706 
Q 2744 1025 2744 1678 
Q 2744 2294 2464 2611 
Q 2184 2928 1769 2928 
Q 1347 2928 1069 2612 
Q 791 2297 791 1659 
z
" transform="scale(0.015625)"/>
      </defs>
      <use xlink:href="#ArialMT-70"/>
      <use xlink:href="#ArialMT-72" x="55.615234"/>
      <use xlink:href="#ArialMT-69" x="88.916016"/>
      <use xlink:href="#ArialMT-6f" x="111.132812"/>
      <use xlink:href="#ArialMT-72" x="166.748047"/>
     </g>
    </g>
    <g id="patch_9">
     <path d="M 474.519531 40.533437 
L 496.519531 40.533437 
L 496.519531 32.833437 
L 474.519531 32.833437 
z
" style="fill: #d55e00; fill-opacity: 0.2; stroke: #d55e00; stroke-opacity: 0.2; stroke-width: 4; stroke-linejoin: miter"/>
    </g>
    <g id="text_15">
     <!-- posterior -->
     <g style="fill: #262626" transform="translate(505.319531 40.533437) scale(0.11 -0.11)">
      <use xlink:href="#ArialMT-70"/>
      <use xlink:href="#ArialMT-6f" x="55.615234"/>
      <use xlink:href="#ArialMT-73" x="111.230469"/>
      <use xlink:href="#ArialMT-74" x="161.230469"/>
      <use xlink:href="#ArialMT-65" x="189.013672"/>
      <use xlink:href="#ArialMT-72" x="244.628906"/>
      <use xlink:href="#ArialMT-69" x="277.929688"/>
      <use xlink:href="#ArialMT-6f" x="300.146484"/>
      <use xlink:href="#ArialMT-72" x="355.761719"/>
     </g>
    </g>
    <g id="patch_10">
     <path d="M 474.519531 56.093281 
L 496.519531 56.093281 
L 496.519531 48.393281 
L 474.519531 48.393281 
z
" style="fill: #0173b2; fill-opacity: 0.2; stroke: #0173b2; stroke-opacity: 0.2; stroke-width: 4; stroke-linejoin: miter"/>
    </g>
    <g id="text_16">
     <!-- likelihood scaled -->
     <g style="fill: #262626" transform="translate(505.319531 56.093281) scale(0.11 -0.11)">
      <defs>
       <path id="ArialMT-6c" d="M 409 0 
L 409 4581 
L 972 4581 
L 972 0 
L 409 0 
z
" transform="scale(0.015625)"/>
       <path id="ArialMT-6b" d="M 425 0 
L 425 4581 
L 988 4581 
L 988 1969 
L 2319 3319 
L 3047 3319 
L 1778 2088 
L 3175 0 
L 2481 0 
L 1384 1697 
L 988 1316 
L 988 0 
L 425 0 
z
" transform="scale(0.015625)"/>
       <path id="ArialMT-68" d="M 422 0 
L 422 4581 
L 984 4581 
L 984 2938 
Q 1378 3394 1978 3394 
Q 2347 3394 2619 3248 
Q 2891 3103 3008 2847 
Q 3125 2591 3125 2103 
L 3125 0 
L 2563 0 
L 2563 2103 
Q 2563 2525 2380 2717 
Q 2197 2909 1863 2909 
Q 1613 2909 1392 2779 
Q 1172 2650 1078 2428 
Q 984 2206 984 1816 
L 984 0 
L 422 0 
z
" transform="scale(0.015625)"/>
       <path id="ArialMT-20" transform="scale(0.015625)"/>
       <path id="ArialMT-63" d="M 2588 1216 
L 3141 1144 
Q 3050 572 2676 248 
Q 2303 -75 1759 -75 
Q 1078 -75 664 370 
Q 250 816 250 1647 
Q 250 2184 428 2587 
Q 606 2991 970 3192 
Q 1334 3394 1763 3394 
Q 2303 3394 2647 3120 
Q 2991 2847 3088 2344 
L 2541 2259 
Q 2463 2594 2264 2762 
Q 2066 2931 1784 2931 
Q 1359 2931 1093 2626 
Q 828 2322 828 1663 
Q 828 994 1084 691 
Q 1341 388 1753 388 
Q 2084 388 2306 591 
Q 2528 794 2588 1216 
z
" transform="scale(0.015625)"/>
       <path id="ArialMT-61" d="M 2588 409 
Q 2275 144 1986 34 
Q 1697 -75 1366 -75 
Q 819 -75 525 192 
Q 231 459 231 875 
Q 231 1119 342 1320 
Q 453 1522 633 1644 
Q 813 1766 1038 1828 
Q 1203 1872 1538 1913 
Q 2219 1994 2541 2106 
Q 2544 2222 2544 2253 
Q 2544 2597 2384 2738 
Q 2169 2928 1744 2928 
Q 1347 2928 1158 2789 
Q 969 2650 878 2297 
L 328 2372 
Q 403 2725 575 2942 
Q 747 3159 1072 3276 
Q 1397 3394 1825 3394 
Q 2250 3394 2515 3294 
Q 2781 3194 2906 3042 
Q 3031 2891 3081 2659 
Q 3109 2516 3109 2141 
L 3109 1391 
Q 3109 606 3145 398 
Q 3181 191 3288 0 
L 2700 0 
Q 2613 175 2588 409 
z
M 2541 1666 
Q 2234 1541 1622 1453 
Q 1275 1403 1131 1340 
Q 988 1278 909 1158 
Q 831 1038 831 891 
Q 831 666 1001 516 
Q 1172 366 1500 366 
Q 1825 366 2078 508 
Q 2331 650 2450 897 
Q 2541 1088 2541 1459 
L 2541 1666 
z
" transform="scale(0.015625)"/>
      </defs>
      <use xlink:href="#ArialMT-6c"/>
      <use xlink:href="#ArialMT-69" x="22.216797"/>
      <use xlink:href="#ArialMT-6b" x="44.433594"/>
      <use xlink:href="#ArialMT-65" x="94.433594"/>
      <use xlink:href="#ArialMT-6c" x="150.048828"/>
      <use xlink:href="#ArialMT-69" x="172.265625"/>
      <use xlink:href="#ArialMT-68" x="194.482422"/>
      <use xlink:href="#ArialMT-6f" x="250.097656"/>
      <use xlink:href="#ArialMT-6f" x="305.712891"/>
      <use xlink:href="#ArialMT-64" x="361.328125"/>
      <use xlink:href="#ArialMT-20" x="416.943359"/>
      <use xlink:href="#ArialMT-73" x="444.726562"/>
      <use xlink:href="#ArialMT-63" x="494.726562"/>
      <use xlink:href="#ArialMT-61" x="544.726562"/>
      <use xlink:href="#ArialMT-6c" x="600.341797"/>
      <use xlink:href="#ArialMT-65" x="622.558594"/>
      <use xlink:href="#ArialMT-64" x="678.173828"/>
     </g>
    </g>
   </g>
  </g>
 </g>
 <defs>
  <clipPath id="pb3b9c5e6cb">
   <rect x="37.932031" y="7.2" width="558" height="332.64"/>
  </clipPath>
 </defs>
</svg>