<?xml version="1.0" encoding="utf-8" standalone="no"?>
<!DOCTYPE svg PUBLIC "-//W3C//DTD SVG 1.1//EN"
  "http://www.w3.org/Graphics/SVG/1.1/DTD/svg11.dtd">
<svg xmlns:xlink="http://www.w3.org/1999/xlink" width="615.225469pt" height="381.574219pt" viewBox="0 0 615.225469 381.574219" xmlns="http://www.w3.org/2000/svg" version="1.1">
 <metadata>
  <rdf:RDF xmlns:dc="http://purl.org/dc/elements/1.1/" xmlns:cc="http://creativecommons.org/ns#" xmlns:rdf="http://www.w3.org/1999/02/22-rdf-syntax-ns#">
   <cc:Work>
    <dc:type rdf:resource="http://purl.org/dc/dcmitype/StillImage"/>
    <dc:date>2023-05-13T08:06:37.340167</dc:date>
    <dc:format>image/svg+xml</dc:format>
    <dc:creator>
     <cc:Agent>
      <dc:title>Matplotlib v3.7.1, https://matplotlib.org/</dc:title>
     </cc:Agent>
    </dc:creator>
   </cc:Work>
  </rdf:RDF>
 </metadata>
 <defs>
  <style type="text/css">*{stroke-linejoin: round; stroke-linecap: butt}</style>
 </defs>
 <g id="figure_1">
  <g id="patch_1">
   <path d="M 0 381.574219 
L 615.225469 381.574219 
L 615.225469 0 
L 0 0 
z
" style="fill: #ffffff"/>
  </g>
  <g id="axes_1">
   <g id="patch_2">
    <path d="M 50.025469 339.84 
L 608.025469 339.84 
L 608.025469 7.2 
L 50.025469 7.2 
z
" style="fill: #eaeaf2"/>
   </g>
   <g id="matplotlib.axis_1">
    <g id="xtick_1">
     <g id="text_1">
      <!-- 0.0 -->
      <g style="fill: #262626" transform="translate(181.880469 357.213594) scale(0.11 -0.11)">
       <defs>
        <path id="ArialMT-30" d="M 266 2259 
Q 266 3072 433 3567 
Q 600 4063 929 4331 
Q 1259 4600 1759 4600 
Q 2128 4600 2406 4451 
Q 2684 4303 2865 4023 
Q 3047 3744 3150 3342 
Q 3253 2941 3253 2259 
Q 3253 1453 3087 958 
Q 2922 463 2592 192 
Q 2263 -78 1759 -78 
Q 1097 -78 719 397 
Q 266 969 266 2259 
z
M 844 2259 
Q 844 1131 1108 757 
Q 1372 384 1759 384 
Q 2147 384 2411 759 
Q 2675 1134 2675 2259 
Q 2675 3391 2411 3762 
Q 2147 4134 1753 4134 
Q 1366 4134 1134 3806 
Q 844 3388 844 2259 
z
" transform="scale(0.015625)"/>
        <path id="ArialMT-2e" d="M 581 0 
L 581 641 
L 1222 641 
L 1222 0 
L 581 0 
z
" transform="scale(0.015625)"/>
       </defs>
       <use xlink:href="#ArialMT-30"/>
       <use xlink:href="#ArialMT-2e" x="55.615234"/>
       <use xlink:href="#ArialMT-30" x="83.398438"/>
      </g>
     </g>
    </g>
    <g id="xtick_2">
     <g id="text_2">
      <!-- 1.0 -->
      <g style="fill: #262626" transform="translate(460.880469 357.213594) scale(0.11 -0.11)">
       <defs>
        <path id="ArialMT-31" d="M 2384 0 
L 1822 0 
L 1822 3584 
Q 1619 3391 1289 3197 
Q 959 3003 697 2906 
L 697 3450 
Q 1169 3672 1522 3987 
Q 1875 4303 2022 4600 
L 2384 4600 
L 2384 0 
z
" transform="scale(0.015625)"/>
       </defs>
       <use xlink:href="#ArialMT-31"/>
       <use xlink:href="#ArialMT-2e" x="55.615234"/>
       <use xlink:href="#ArialMT-30" x="83.398438"/>
      </g>
     </g>
    </g>
    <g id="text_3">
     <!-- leave -->
     <g style="fill: #262626" transform="translate(314.682656 371.989219) scale(0.12 -0.12)">
      <defs>
       <path id="ArialMT-6c" d="M 409 0 
L 409 4581 
L 972 4581 
L 972 0 
L 409 0 
z
" transform="scale(0.015625)"/>
       <path id="ArialMT-65" d="M 2694 1069 
L 3275 997 
Q 3138 488 2766 206 
Q 2394 -75 1816 -75 
Q 1088 -75 661 373 
Q 234 822 234 1631 
Q 234 2469 665 2931 
Q 1097 3394 1784 3394 
Q 2450 3394 2872 2941 
Q 3294 2488 3294 1666 
Q 3294 1616 3291 1516 
L 816 1516 
Q 847 969 1125 678 
Q 1403 388 1819 388 
Q 2128 388 2347 550 
Q 2566 713 2694 1069 
z
M 847 1978 
L 2700 1978 
Q 2663 2397 2488 2606 
Q 2219 2931 1791 2931 
Q 1403 2931 1139 2672 
Q 875 2413 847 1978 
z
" transform="scale(0.015625)"/>
       <path id="ArialMT-61" d="M 2588 409 
Q 2275 144 1986 34 
Q 1697 -75 1366 -75 
Q 819 -75 525 192 
Q 231 459 231 875 
Q 231 1119 342 1320 
Q 453 1522 633 1644 
Q 813 1766 1038 1828 
Q 1203 1872 1538 1913 
Q 2219 1994 2541 2106 
Q 2544 2222 2544 2253 
Q 2544 2597 2384 2738 
Q 2169 2928 1744 2928 
Q 1347 2928 1158 2789 
Q 969 2650 878 2297 
L 328 2372 
Q 403 2725 575 2942 
Q 747 3159 1072 3276 
Q 1397 3394 1825 3394 
Q 2250 3394 2515 3294 
Q 2781 3194 2906 3042 
Q 3031 2891 3081 2659 
Q 3109 2516 3109 2141 
L 3109 1391 
Q 3109 606 3145 398 
Q 3181 191 3288 0 
L 2700 0 
Q 2613 175 2588 409 
z
M 2541 1666 
Q 2234 1541 1622 1453 
Q 1275 1403 1131 1340 
Q 988 1278 909 1158 
Q 831 1038 831 891 
Q 831 666 1001 516 
Q 1172 366 1500 366 
Q 1825 366 2078 508 
Q 2331 650 2450 897 
Q 2541 1088 2541 1459 
L 2541 1666 
z
" transform="scale(0.015625)"/>
       <path id="ArialMT-76" d="M 1344 0 
L 81 3319 
L 675 3319 
L 1388 1331 
Q 1503 1009 1600 663 
Q 1675 925 1809 1294 
L 2547 3319 
L 3125 3319 
L 1869 0 
L 1344 0 
z
" transform="scale(0.015625)"/>
      </defs>
      <use xlink:href="#ArialMT-6c"/>
      <use xlink:href="#ArialMT-65" x="22.216797"/>
      <use xlink:href="#ArialMT-61" x="77.832031"/>
      <use xlink:href="#ArialMT-76" x="133.447266"/>
      <use xlink:href="#ArialMT-65" x="183.447266"/>
     </g>
    </g>
   </g>
   <g id="matplotlib.axis_2">
    <g id="ytick_1">
     <g id="line2d_1">
      <path d="M 50.025469 300.444381 
L 608.025469 300.444381 
" clip-path="url(#p0449c5253a)" style="fill: none; stroke: #ffffff; stroke-linecap: round"/>
     </g>
     <g id="text_4">
      <!-- 20 -->
      <g style="fill: #262626" transform="translate(28.291406 304.381177) scale(0.11 -0.11)">
       <defs>
        <path id="ArialMT-32" d="M 3222 541 
L 3222 0 
L 194 0 
Q 188 203 259 391 
Q 375 700 629 1000 
Q 884 1300 1366 1694 
Q 2113 2306 2375 2664 
Q 2638 3022 2638 3341 
Q 2638 3675 2398 3904 
Q 2159 4134 1775 4134 
Q 1369 4134 1125 3890 
Q 881 3647 878 3216 
L 300 3275 
Q 359 3922 746 4261 
Q 1134 4600 1788 4600 
Q 2447 4600 2831 4234 
Q 3216 3869 3216 3328 
Q 3216 3053 3103 2787 
Q 2991 2522 2730 2228 
Q 2469 1934 1863 1422 
Q 1356 997 1212 845 
Q 1069 694 975 541 
L 3222 541 
z
" transform="scale(0.015625)"/>
       </defs>
       <use xlink:href="#ArialMT-32"/>
       <use xlink:href="#ArialMT-30" x="55.615234"/>
      </g>
     </g>
    </g>
    <g id="ytick_2">
     <g id="line2d_2">
      <path d="M 50.025469 232.132025 
L 608.025469 232.132025 
" clip-path="url(#p0449c5253a)" style="fill: none; stroke: #ffffff; stroke-linecap: round"/>
     </g>
     <g id="text_5">
      <!-- 40 -->
      <g style="fill: #262626" transform="translate(28.291406 236.068822) scale(0.11 -0.11)">
       <defs>
        <path id="ArialMT-34" d="M 2069 0 
L 2069 1097 
L 81 1097 
L 81 1613 
L 2172 4581 
L 2631 4581 
L 2631 1613 
L 3250 1613 
L 3250 1097 
L 2631 1097 
L 2631 0 
L 2069 0 
z
M 2069 1613 
L 2069 3678 
L 634 1613 
L 2069 1613 
z
" transform="scale(0.015625)"/>
       </defs>
       <use xlink:href="#ArialMT-34"/>
       <use xlink:href="#ArialMT-30" x="55.615234"/>
      </g>
     </g>
    </g>
    <g id="ytick_3">
     <g id="line2d_3">
      <path d="M 50.025469 163.81967 
L 608.025469 163.81967 
" clip-path="url(#p0449c5253a)" style="fill: none; stroke: #ffffff; stroke-linecap: round"/>
     </g>
     <g id="text_6">
      <!-- 60 -->
      <g style="fill: #262626" transform="translate(28.291406 167.756467) scale(0.11 -0.11)">
       <defs>
        <path id="ArialMT-36" d="M 3184 3459 
L 2625 3416 
Q 2550 3747 2413 3897 
Q 2184 4138 1850 4138 
Q 1581 4138 1378 3988 
Q 1113 3794 959 3422 
Q 806 3050 800 2363 
Q 1003 2672 1297 2822 
Q 1591 2972 1913 2972 
Q 2475 2972 2870 2558 
Q 3266 2144 3266 1488 
Q 3266 1056 3080 686 
Q 2894 316 2569 119 
Q 2244 -78 1831 -78 
Q 1128 -78 684 439 
Q 241 956 241 2144 
Q 241 3472 731 4075 
Q 1159 4600 1884 4600 
Q 2425 4600 2770 4297 
Q 3116 3994 3184 3459 
z
M 888 1484 
Q 888 1194 1011 928 
Q 1134 663 1356 523 
Q 1578 384 1822 384 
Q 2178 384 2434 671 
Q 2691 959 2691 1453 
Q 2691 1928 2437 2201 
Q 2184 2475 1800 2475 
Q 1419 2475 1153 2201 
Q 888 1928 888 1484 
z
" transform="scale(0.015625)"/>
       </defs>
       <use xlink:href="#ArialMT-36"/>
       <use xlink:href="#ArialMT-30" x="55.615234"/>
      </g>
     </g>
    </g>
    <g id="ytick_4">
     <g id="line2d_4">
      <path d="M 50.025469 95.507315 
L 608.025469 95.507315 
" clip-path="url(#p0449c5253a)" style="fill: none; stroke: #ffffff; stroke-linecap: round"/>
     </g>
     <g id="text_7">
      <!-- 80 -->
      <g style="fill: #262626" transform="translate(28.291406 99.444112) scale(0.11 -0.11)">
       <defs>
        <path id="ArialMT-38" d="M 1131 2484 
Q 781 2613 612 2850 
Q 444 3088 444 3419 
Q 444 3919 803 4259 
Q 1163 4600 1759 4600 
Q 2359 4600 2725 4251 
Q 3091 3903 3091 3403 
Q 3091 3084 2923 2848 
Q 2756 2613 2416 2484 
Q 2838 2347 3058 2040 
Q 3278 1734 3278 1309 
Q 3278 722 2862 322 
Q 2447 -78 1769 -78 
Q 1091 -78 675 323 
Q 259 725 259 1325 
Q 259 1772 486 2073 
Q 713 2375 1131 2484 
z
M 1019 3438 
Q 1019 3113 1228 2906 
Q 1438 2700 1772 2700 
Q 2097 2700 2305 2904 
Q 2513 3109 2513 3406 
Q 2513 3716 2298 3927 
Q 2084 4138 1766 4138 
Q 1444 4138 1231 3931 
Q 1019 3725 1019 3438 
z
M 838 1322 
Q 838 1081 952 856 
Q 1066 631 1291 507 
Q 1516 384 1775 384 
Q 2178 384 2440 643 
Q 2703 903 2703 1303 
Q 2703 1709 2433 1975 
Q 2163 2241 1756 2241 
Q 1359 2241 1098 1978 
Q 838 1716 838 1322 
z
" transform="scale(0.015625)"/>
       </defs>
       <use xlink:href="#ArialMT-38"/>
       <use xlink:href="#ArialMT-30" x="55.615234"/>
      </g>
     </g>
    </g>
    <g id="ytick_5">
     <g id="line2d_5">
      <path d="M 50.025469 27.19496 
L 608.025469 27.19496 
" clip-path="url(#p0449c5253a)" style="fill: none; stroke: #ffffff; stroke-linecap: round"/>
     </g>
     <g id="text_8">
      <!-- 100 -->
      <g style="fill: #262626" transform="translate(22.174375 31.131757) scale(0.11 -0.11)">
       <use xlink:href="#ArialMT-31"/>
       <use xlink:href="#ArialMT-30" x="55.615234"/>
       <use xlink:href="#ArialMT-30" x="111.230469"/>
      </g>
     </g>
    </g>
    <g id="text_9">
     <!-- age -->
     <g style="fill: #262626" transform="translate(15.64875 183.529688) rotate(-90) scale(0.12 -0.12)">
      <defs>
       <path id="ArialMT-67" d="M 319 -275 
L 866 -356 
Q 900 -609 1056 -725 
Q 1266 -881 1628 -881 
Q 2019 -881 2231 -725 
Q 2444 -569 2519 -288 
Q 2563 -116 2559 434 
Q 2191 0 1641 0 
Q 956 0 581 494 
Q 206 988 206 1678 
Q 206 2153 378 2554 
Q 550 2956 876 3175 
Q 1203 3394 1644 3394 
Q 2231 3394 2613 2919 
L 2613 3319 
L 3131 3319 
L 3131 450 
Q 3131 -325 2973 -648 
Q 2816 -972 2473 -1159 
Q 2131 -1347 1631 -1347 
Q 1038 -1347 672 -1080 
Q 306 -813 319 -275 
z
M 784 1719 
Q 784 1066 1043 766 
Q 1303 466 1694 466 
Q 2081 466 2343 764 
Q 2606 1063 2606 1700 
Q 2606 2309 2336 2618 
Q 2066 2928 1684 2928 
Q 1309 2928 1046 2623 
Q 784 2319 784 1719 
z
" transform="scale(0.015625)"/>
      </defs>
      <use xlink:href="#ArialMT-61"/>
      <use xlink:href="#ArialMT-67" x="55.615234"/>
      <use xlink:href="#ArialMT-65" x="111.230469"/>
     </g>
    </g>
   </g>
   <g id="PolyCollection_1">
    <defs>
     <path id="mce9525436f" d="M 191.673265 -56.854219 
L 187.377673 -56.854219 
L 185.21174 -59.725217 
L 181.613712 -62.596216 
L 176.225633 -65.467215 
L 168.943103 -68.338213 
L 160.046966 -71.209212 
L 150.213241 -74.080211 
L 140.375368 -76.951209 
L 131.497609 -79.822208 
L 124.366639 -82.693206 
L 119.480614 -85.564205 
L 117.037915 -88.435204 
L 116.969902 -91.306202 
L 118.967644 -94.177201 
L 122.50276 -97.0482 
L 126.879436 -99.919198 
L 131.342277 -102.790197 
L 135.219088 -105.661195 
L 138.044442 -108.532194 
L 139.617006 -111.403193 
L 139.980267 -114.274191 
L 139.351708 -117.14519 
L 138.03831 -120.016189 
L 136.367481 -122.887187 
L 134.644705 -125.758186 
L 133.133088 -128.629184 
L 132.041009 -131.500183 
L 131.50529 -134.371182 
L 131.568604 -137.24218 
L 132.163908 -140.113179 
L 133.123778 -142.984178 
L 134.222374 -145.855176 
L 135.238663 -148.726175 
L 136.015346 -151.597173 
L 136.488446 -154.468172 
L 136.677185 -157.339171 
L 136.643706 -160.210169 
L 136.446483 -163.081168 
L 136.111987 -165.952167 
L 135.635354 -168.823165 
L 135.000926 -171.694164 
L 134.201696 -174.565162 
L 133.242132 -177.436161 
L 132.12646 -180.30716 
L 130.84855 -183.178158 
L 129.39727 -186.049157 
L 127.775593 -188.920156 
L 126.017743 -191.791154 
L 124.189328 -194.662153 
L 122.369873 -197.533151 
L 120.63235 -200.40415 
L 119.036642 -203.275149 
L 117.640596 -206.146147 
L 116.514212 -209.017146 
L 115.735524 -211.888145 
L 115.358833 -214.759143 
L 115.369655 -217.630142 
L 115.657624 -220.50114 
L 116.033771 -223.372139 
L 116.293618 -226.243138 
L 116.300083 -229.114136 
L 116.049951 -231.985135 
L 115.699132 -234.856134 
L 115.541959 -237.727132 
L 115.95236 -240.598131 
L 117.29816 -243.469129 
L 119.844714 -246.340128 
L 123.675154 -249.211127 
L 128.659565 -252.082125 
L 134.489481 -254.953124 
L 140.76197 -257.824123 
L 147.073785 -260.695121 
L 153.089714 -263.56612 
L 158.573434 -266.437118 
L 163.390663 -269.308117 
L 167.498729 -272.179116 
L 170.929311 -275.050114 
L 173.765631 -277.921113 
L 176.116674 -280.792112 
L 178.093899 -283.66311 
L 179.794718 -286.534109 
L 181.293169 -289.405107 
L 182.636348 -292.276106 
L 183.846181 -295.147105 
L 184.926587 -298.018103 
L 185.873845 -300.889102 
L 186.68554 -303.760101 
L 187.36443 -306.631099 
L 187.917711 -309.502098 
L 188.355216 -312.373096 
L 188.689205 -315.244095 
L 188.935242 -318.115094 
L 189.111818 -320.986092 
L 189.237734 -323.857091 
L 189.328684 -326.72809 
L 189.395326 -329.599088 
L 189.443778 -332.470087 
L 189.47759 -335.341085 
L 189.499587 -338.212084 
L 189.512674 -341.083083 
L 189.538264 -341.083083 
L 189.538264 -341.083083 
L 189.55135 -338.212084 
L 189.573348 -335.341085 
L 189.60716 -332.470087 
L 189.655612 -329.599088 
L 189.722254 -326.72809 
L 189.813203 -323.857091 
L 189.939119 -320.986092 
L 190.115695 -318.115094 
L 190.361732 -315.244095 
L 190.695722 -312.373096 
L 191.133226 -309.502098 
L 191.686508 -306.631099 
L 192.365397 -303.760101 
L 193.177092 -300.889102 
L 194.124351 -298.018103 
L 195.204756 -295.147105 
L 196.414589 -292.276106 
L 197.757768 -289.405107 
L 199.256219 -286.534109 
L 200.957038 -283.66311 
L 202.934263 -280.792112 
L 205.285306 -277.921113 
L 208.121626 -275.050114 
L 211.552208 -272.179116 
L 215.660274 -269.308117 
L 220.477504 -266.437118 
L 225.961224 -263.56612 
L 231.977153 -260.695121 
L 238.288968 -257.824123 
L 244.561457 -254.953124 
L 250.391373 -252.082125 
L 255.375783 -249.211127 
L 259.206224 -246.340128 
L 261.752778 -243.469129 
L 263.098577 -240.598131 
L 263.508978 -237.727132 
L 263.351806 -234.856134 
L 263.000987 -231.985135 
L 262.750854 -229.114136 
L 262.75732 -226.243138 
L 263.017167 -223.372139 
L 263.393313 -220.50114 
L 263.681282 -217.630142 
L 263.692105 -214.759143 
L 263.315414 -211.888145 
L 262.536726 -209.017146 
L 261.410341 -206.146147 
L 260.014295 -203.275149 
L 258.418587 -200.40415 
L 256.681064 -197.533151 
L 254.861609 -194.662153 
L 253.033195 -191.791154 
L 251.275344 -188.920156 
L 249.653668 -186.049157 
L 248.202388 -183.178158 
L 246.924477 -180.30716 
L 245.808806 -177.436161 
L 244.849241 -174.565162 
L 244.050012 -171.694164 
L 243.415583 -168.823165 
L 242.938951 -165.952167 
L 242.604454 -163.081168 
L 242.407231 -160.210169 
L 242.373752 -157.339171 
L 242.562492 -154.468172 
L 243.035592 -151.597173 
L 243.812275 -148.726175 
L 244.828564 -145.855176 
L 245.927159 -142.984178 
L 246.88703 -140.113179 
L 247.482334 -137.24218 
L 247.545648 -134.371182 
L 247.009929 -131.500183 
L 245.917849 -128.629184 
L 244.406232 -125.758186 
L 242.683456 -122.887187 
L 241.012627 -120.016189 
L 239.699229 -117.14519 
L 239.07067 -114.274191 
L 239.433931 -111.403193 
L 241.006495 -108.532194 
L 243.83185 -105.661195 
L 247.70866 -102.790197 
L 252.171502 -99.919198 
L 256.548178 -97.0482 
L 260.083293 -94.177201 
L 262.081035 -91.306202 
L 262.013022 -88.435204 
L 259.570324 -85.564205 
L 254.684298 -82.693206 
L 247.553329 -79.822208 
L 238.67557 -76.951209 
L 228.837697 -74.080211 
L 219.003972 -71.209212 
L 210.107834 -68.338213 
L 202.825304 -65.467215 
L 197.437225 -62.596216 
L 193.839197 -59.725217 
L 191.673265 -56.854219 
z
" style="stroke: #363636; stroke-width: 1.5"/>
    </defs>
    <g clip-path="url(#p0449c5253a)">
     <use xlink:href="#mce9525436f" x="0" y="381.574219" style="fill: #176d9c; stroke: #363636; stroke-width: 1.5"/>
    </g>
   </g>
   <g id="PolyCollection_2">
    <defs>
     <path id="m708ec46760" d="M 469.228366 -59.176789 
L 467.822571 -59.176789 
L 466.923323 -62.207874 
L 465.336112 -65.23896 
L 462.939324 -68.270045 
L 459.831772 -71.30113 
L 456.348636 -74.332215 
L 452.931522 -77.3633 
L 449.939766 -80.394385 
L 447.551207 -83.42547 
L 445.808987 -86.456556 
L 444.724638 -89.487641 
L 444.311179 -92.518726 
L 444.519954 -95.549811 
L 445.163422 -98.580896 
L 445.912293 -101.611981 
L 446.382636 -104.643066 
L 446.266324 -107.674152 
L 445.440761 -110.705237 
L 443.999113 -113.736322 
L 442.169167 -116.767407 
L 440.159361 -119.798492 
L 438.048802 -122.829577 
L 435.826021 -125.860662 
L 433.545721 -128.891748 
L 431.435697 -131.922833 
L 429.814208 -134.953918 
L 428.869097 -137.985003 
L 428.501144 -141.016088 
L 428.371767 -144.047173 
L 428.091929 -147.078259 
L 427.377232 -150.109344 
L 426.079908 -153.140429 
L 424.157299 -156.171514 
L 421.665225 -159.202599 
L 418.772019 -162.233684 
L 415.724682 -165.264769 
L 412.748228 -168.295855 
L 409.949186 -171.32694 
L 407.308035 -174.358025 
L 404.761465 -177.38911 
L 402.281502 -180.420195 
L 399.863431 -183.45128 
L 397.446991 -186.482365 
L 394.887328 -189.513451 
L 392.039144 -192.544536 
L 388.874633 -195.575621 
L 385.507796 -198.606706 
L 382.112573 -201.637791 
L 378.846701 -204.668876 
L 375.85744 -207.699961 
L 373.305549 -210.731047 
L 371.307164 -213.762132 
L 369.817949 -216.793217 
L 368.593005 -219.824302 
L 367.293861 -222.855387 
L 365.66212 -225.886472 
L 363.630402 -228.917557 
L 361.335977 -231.948643 
L 359.099516 -234.979728 
L 357.416044 -238.010813 
L 356.925469 -241.041898 
L 358.2987 -244.072983 
L 362.027614 -247.104068 
L 368.199094 -250.135153 
L 376.392834 -253.166239 
L 385.798084 -256.197324 
L 395.501498 -259.228409 
L 404.77865 -262.259494 
L 413.238824 -265.290579 
L 420.794056 -268.321664 
L 427.528575 -271.35275 
L 433.567088 -274.383835 
L 438.999231 -277.41492 
L 443.864379 -280.446005 
L 448.171335 -283.47709 
L 451.924892 -286.508175 
L 455.141498 -289.53926 
L 457.850108 -292.570346 
L 460.087625 -295.601431 
L 461.900283 -298.632516 
L 463.349831 -301.663601 
L 464.512241 -304.694686 
L 465.462436 -307.725771 
L 466.254274 -310.756856 
L 466.911872 -313.787942 
L 467.438607 -316.819027 
L 467.834726 -319.850112 
L 468.109534 -322.881197 
L 468.282543 -325.912282 
L 468.378256 -328.943367 
L 468.421294 -331.974452 
L 468.433932 -335.005538 
L 468.434569 -338.036623 
L 468.436064 -341.067708 
L 468.444616 -344.098793 
L 468.460266 -347.129878 
L 468.479189 -350.160963 
L 468.496769 -353.192048 
L 468.510005 -356.223134 
L 468.518262 -359.254219 
L 468.532675 -359.254219 
L 468.532675 -359.254219 
L 468.540933 -356.223134 
L 468.554169 -353.192048 
L 468.571749 -350.160963 
L 468.590671 -347.129878 
L 468.606322 -344.098793 
L 468.614874 -341.067708 
L 468.616369 -338.036623 
L 468.617005 -335.005538 
L 468.629643 -331.974452 
L 468.672682 -328.943367 
L 468.768395 -325.912282 
L 468.941403 -322.881197 
L 469.216212 -319.850112 
L 469.61233 -316.819027 
L 470.139066 -313.787942 
L 470.796663 -310.756856 
L 471.588501 -307.725771 
L 472.538697 -304.694686 
L 473.701106 -301.663601 
L 475.150654 -298.632516 
L 476.963313 -295.601431 
L 479.200829 -292.570346 
L 481.90944 -289.53926 
L 485.126046 -286.508175 
L 488.879603 -283.47709 
L 493.186558 -280.446005 
L 498.051707 -277.41492 
L 503.483849 -274.383835 
L 509.522363 -271.35275 
L 516.256881 -268.321664 
L 523.812113 -265.290579 
L 532.272288 -262.259494 
L 541.549439 -259.228409 
L 551.252854 -256.197324 
L 560.658103 -253.166239 
L 568.851843 -250.135153 
L 575.023324 -247.104068 
L 578.752237 -244.072983 
L 580.125469 -241.041898 
L 579.634893 -238.010813 
L 577.951422 -234.979728 
L 575.714961 -231.948643 
L 573.420535 -228.917557 
L 571.388818 -225.886472 
L 569.757076 -222.855387 
L 568.457932 -219.824302 
L 567.232988 -216.793217 
L 565.743773 -213.762132 
L 563.745388 -210.731047 
L 561.193497 -207.699961 
L 558.204237 -204.668876 
L 554.938364 -201.637791 
L 551.543142 -198.606706 
L 548.176304 -195.575621 
L 545.011794 -192.544536 
L 542.16361 -189.513451 
L 539.603947 -186.482365 
L 537.187506 -183.45128 
L 534.769435 -180.420195 
L 532.289473 -177.38911 
L 529.742903 -174.358025 
L 527.101752 -171.32694 
L 524.30271 -168.295855 
L 521.326255 -165.264769 
L 518.278918 -162.233684 
L 515.385713 -159.202599 
L 512.893639 -156.171514 
L 510.971029 -153.140429 
L 509.673706 -150.109344 
L 508.959008 -147.078259 
L 508.679171 -144.047173 
L 508.549793 -141.016088 
L 508.181841 -137.985003 
L 507.23673 -134.953918 
L 505.615241 -131.922833 
L 503.505217 -128.891748 
L 501.224916 -125.860662 
L 499.002136 -122.829577 
L 496.891576 -119.798492 
L 494.881771 -116.767407 
L 493.051824 -113.736322 
L 491.610177 -110.705237 
L 490.784614 -107.674152 
L 490.668302 -104.643066 
L 491.138645 -101.611981 
L 491.887515 -98.580896 
L 492.530984 -95.549811 
L 492.739759 -92.518726 
L 492.3263 -89.487641 
L 491.24195 -86.456556 
L 489.49973 -83.42547 
L 487.111171 -80.394385 
L 484.119415 -77.3633 
L 480.702301 -74.332215 
L 477.219166 -71.30113 
L 474.111613 -68.270045 
L 471.714825 -65.23896 
L 470.127615 -62.207874 
L 469.228366 -59.176789 
z
" style="stroke: #363636; stroke-width: 1.5"/>
    </defs>
    <g clip-path="url(#p0449c5253a)">
     <use xlink:href="#m708ec46760" x="0" y="381.574219" style="fill: #c38820; stroke: #363636; stroke-width: 1.5"/>
    </g>
   </g>
   <g id="line2d_6">
    <path d="M 189.525469 307.275616 
L 189.525469 57.93552 
" clip-path="url(#p0449c5253a)" style="fill: none; stroke: #363636; stroke-width: 1.5; stroke-linecap: round"/>
   </g>
   <g id="line2d_7">
    <path d="M 189.525469 259.456968 
L 189.525469 156.988435 
" clip-path="url(#p0449c5253a)" style="fill: none; stroke: #363636; stroke-width: 4.5; stroke-linecap: round"/>
   </g>
   <g id="line2d_8">
    <path d="M 468.525469 307.275616 
L 468.525469 37.441813 
" clip-path="url(#p0449c5253a)" style="fill: none; stroke: #363636; stroke-width: 1.5; stroke-linecap: round"/>
   </g>
   <g id="line2d_9">
    <path d="M 468.525469 211.638319 
L 468.525469 139.910346 
" clip-path="url(#p0449c5253a)" style="fill: none; stroke: #363636; stroke-width: 4.5; stroke-linecap: round"/>
   </g>
   <g id="patch_3">
    <path d="M 50.025469 339.84 
L 50.025469 7.2 
" style="fill: none; stroke: #ffffff; stroke-width: 1.25; stroke-linejoin: miter; stroke-linecap: square"/>
   </g>
   <g id="patch_4">
    <path d="M 608.025469 339.84 
L 608.025469 7.2 
" style="fill: none; stroke: #ffffff; stroke-width: 1.25; stroke-linejoin: miter; stroke-linecap: square"/>
   </g>
   <g id="patch_5">
    <path d="M 50.025469 339.84 
L 608.025469 339.84 
" style="fill: none; stroke: #ffffff; stroke-width: 1.25; stroke-linejoin: miter; stroke-linecap: square"/>
   </g>
   <g id="patch_6">
    <path d="M 50.025469 7.2 
L 608.025469 7.2 
" style="fill: none; stroke: #ffffff; stroke-width: 1.25; stroke-linejoin: miter; stroke-linecap: square"/>
   </g>
   <g id="PathCollection_1">
    <defs>
     <path id="m787f0faa54" d="M 0 1.5 
C 0.397805 1.5 0.77937 1.341951 1.06066 1.06066 
C 1.341951 0.77937 1.5 0.397805 1.5 0 
C 1.5 -0.397805 1.341951 -0.77937 1.06066 -1.06066 
C 0.77937 -1.341951 0.397805 -1.5 0 -1.5 
C -0.397805 -1.5 -0.77937 -1.341951 -1.06066 -1.06066 
C -1.341951 -0.77937 -1.5 -0.397805 -1.5 0 
C -1.5 0.397805 -1.341951 0.77937 -1.06066 1.06066 
C -0.77937 1.341951 -0.397805 1.5 0 1.5 
z
" style="stroke: #363636"/>
    </defs>
    <g clip-path="url(#p0449c5253a)">
     <use xlink:href="#m787f0faa54" x="189.525469" y="201.391466" style="fill: #ffffff; stroke: #363636"/>
    </g>
   </g>
   <g id="PathCollection_2">
    <g clip-path="url(#p0449c5253a)">
     <use xlink:href="#m787f0faa54" x="468.525469" y="170.650906" style="fill: #ffffff; stroke: #363636"/>
    </g>
   </g>
  </g>
 </g>
 <defs>
  <clipPath id="p0449c5253a">
   <rect x="50.025469" y="7.2" width="558" height="332.64"/>
  </clipPath>
 </defs>
</svg>