<?xml version="1.0" encoding="utf-8" standalone="no"?>
<!DOCTYPE svg PUBLIC "-//W3C//DTD SVG 1.1//EN"
  "http://www.w3.org/Graphics/SVG/1.1/DTD/svg11.dtd">
<svg xmlns:xlink="http://www.w3.org/1999/xlink" width="572.4pt" height="378.189219pt" viewBox="0 0 572.4 378.189219" xmlns="http://www.w3.org/2000/svg" version="1.1">
 <metadata>
  <rdf:RDF xmlns:dc="http://purl.org/dc/elements/1.1/" xmlns:cc="http://creativecommons.org/ns#" xmlns:rdf="http://www.w3.org/1999/02/22-rdf-syntax-ns#">
   <cc:Work>
    <dc:type rdf:resource="http://purl.org/dc/dcmitype/StillImage"/>
    <dc:date>2023-05-29T11:56:37.795294</dc:date>
    <dc:format>image/svg+xml</dc:format>
    <dc:creator>
     <cc:Agent>
      <dc:title>Matplotlib v3.7.1, https://matplotlib.org/</dc:title>
     </cc:Agent>
    </dc:creator>
   </cc:Work>
  </rdf:RDF>
 </metadata>
 <defs>
  <style type="text/css">*{stroke-linejoin: round; stroke-linecap: butt}</style>
 </defs>
 <g id="figure_1">
  <g id="patch_1">
   <path d="M 0 378.189219 
L 572.4 378.189219 
L 572.4 0 
L 0 0 
z
" style="fill: #ffffff"/>
  </g>
  <g id="axes_1">
   <g id="patch_2">
    <path d="M 7.2 354.429375 
L 565.2 354.429375 
L 565.2 21.789375 
L 7.2 21.789375 
z
" style="fill: #eaeaf2"/>
   </g>
   <g id="matplotlib.axis_1">
    <g id="xtick_1">
     <g id="line2d_1">
      <path d="M 47.04485 354.429375 
L 47.04485 21.789375 
" clip-path="url(#pcb01628ca5)" style="fill: none; stroke: #ffffff; stroke-linecap: round"/>
     </g>
     <g id="line2d_2">
      <defs>
       <path id="m8f292a552e" d="M 0 0 
L 0 3 
" style="stroke: #808080"/>
      </defs>
      <g>
       <use xlink:href="#m8f292a552e" x="47.04485" y="354.429375" style="fill: #808080; stroke: #808080"/>
      </g>
     </g>
     <g id="text_1">
      <!-- 2.5 -->
      <g style="fill: #262626" transform="translate(39.39985 368.802969) scale(0.11 -0.11)">
       <defs>
        <path id="ArialMT-32" d="M 3222 541 
L 3222 0 
L 194 0 
Q 188 203 259 391 
Q 375 700 629 1000 
Q 884 1300 1366 1694 
Q 2113 2306 2375 2664 
Q 2638 3022 2638 3341 
Q 2638 3675 2398 3904 
Q 2159 4134 1775 4134 
Q 1369 4134 1125 3890 
Q 881 3647 878 3216 
L 300 3275 
Q 359 3922 746 4261 
Q 1134 4600 1788 4600 
Q 2447 4600 2831 4234 
Q 3216 3869 3216 3328 
Q 3216 3053 3103 2787 
Q 2991 2522 2730 2228 
Q 2469 1934 1863 1422 
Q 1356 997 1212 845 
Q 1069 694 975 541 
L 3222 541 
z
" transform="scale(0.015625)"/>
        <path id="ArialMT-2e" d="M 581 0 
L 581 641 
L 1222 641 
L 1222 0 
L 581 0 
z
" transform="scale(0.015625)"/>
        <path id="ArialMT-35" d="M 266 1200 
L 856 1250 
Q 922 819 1161 601 
Q 1400 384 1738 384 
Q 2144 384 2425 690 
Q 2706 997 2706 1503 
Q 2706 1984 2436 2262 
Q 2166 2541 1728 2541 
Q 1456 2541 1237 2417 
Q 1019 2294 894 2097 
L 366 2166 
L 809 4519 
L 3088 4519 
L 3088 3981 
L 1259 3981 
L 1013 2750 
Q 1425 3038 1878 3038 
Q 2478 3038 2890 2622 
Q 3303 2206 3303 1553 
Q 3303 931 2941 478 
Q 2500 -78 1738 -78 
Q 1113 -78 717 272 
Q 322 622 266 1200 
z
" transform="scale(0.015625)"/>
       </defs>
       <use xlink:href="#ArialMT-32"/>
       <use xlink:href="#ArialMT-2e" x="55.615234"/>
       <use xlink:href="#ArialMT-35" x="83.398438"/>
      </g>
     </g>
    </g>
    <g id="xtick_2">
     <g id="line2d_3">
      <path d="M 111.895089 354.429375 
L 111.895089 21.789375 
" clip-path="url(#pcb01628ca5)" style="fill: none; stroke: #ffffff; stroke-linecap: round"/>
     </g>
     <g id="line2d_4">
      <g>
       <use xlink:href="#m8f292a552e" x="111.895089" y="354.429375" style="fill: #808080; stroke: #808080"/>
      </g>
     </g>
     <g id="text_2">
      <!-- 5.0 -->
      <g style="fill: #262626" transform="translate(104.250089 368.802969) scale(0.11 -0.11)">
       <defs>
        <path id="ArialMT-30" d="M 266 2259 
Q 266 3072 433 3567 
Q 600 4063 929 4331 
Q 1259 4600 1759 4600 
Q 2128 4600 2406 4451 
Q 2684 4303 2865 4023 
Q 3047 3744 3150 3342 
Q 3253 2941 3253 2259 
Q 3253 1453 3087 958 
Q 2922 463 2592 192 
Q 2263 -78 1759 -78 
Q 1097 -78 719 397 
Q 266 969 266 2259 
z
M 844 2259 
Q 844 1131 1108 757 
Q 1372 384 1759 384 
Q 2147 384 2411 759 
Q 2675 1134 2675 2259 
Q 2675 3391 2411 3762 
Q 2147 4134 1753 4134 
Q 1366 4134 1134 3806 
Q 844 3388 844 2259 
z
" transform="scale(0.015625)"/>
       </defs>
       <use xlink:href="#ArialMT-35"/>
       <use xlink:href="#ArialMT-2e" x="55.615234"/>
       <use xlink:href="#ArialMT-30" x="83.398438"/>
      </g>
     </g>
    </g>
    <g id="xtick_3">
     <g id="line2d_5">
      <path d="M 176.745328 354.429375 
L 176.745328 21.789375 
" clip-path="url(#pcb01628ca5)" style="fill: none; stroke: #ffffff; stroke-linecap: round"/>
     </g>
     <g id="line2d_6">
      <g>
       <use xlink:href="#m8f292a552e" x="176.745328" y="354.429375" style="fill: #808080; stroke: #808080"/>
      </g>
     </g>
     <g id="text_3">
      <!-- 7.5 -->
      <g style="fill: #262626" transform="translate(169.100328 368.802969) scale(0.11 -0.11)">
       <defs>
        <path id="ArialMT-37" d="M 303 3981 
L 303 4522 
L 3269 4522 
L 3269 4084 
Q 2831 3619 2401 2847 
Q 1972 2075 1738 1259 
Q 1569 684 1522 0 
L 944 0 
Q 953 541 1156 1306 
Q 1359 2072 1739 2783 
Q 2119 3494 2547 3981 
L 303 3981 
z
" transform="scale(0.015625)"/>
       </defs>
       <use xlink:href="#ArialMT-37"/>
       <use xlink:href="#ArialMT-2e" x="55.615234"/>
       <use xlink:href="#ArialMT-35" x="83.398438"/>
      </g>
     </g>
    </g>
    <g id="xtick_4">
     <g id="line2d_7">
      <path d="M 241.595567 354.429375 
L 241.595567 21.789375 
" clip-path="url(#pcb01628ca5)" style="fill: none; stroke: #ffffff; stroke-linecap: round"/>
     </g>
     <g id="line2d_8">
      <g>
       <use xlink:href="#m8f292a552e" x="241.595567" y="354.429375" style="fill: #808080; stroke: #808080"/>
      </g>
     </g>
     <g id="text_4">
      <!-- 10.0 -->
      <g style="fill: #262626" transform="translate(230.892052 368.802969) scale(0.11 -0.11)">
       <defs>
        <path id="ArialMT-31" d="M 2384 0 
L 1822 0 
L 1822 3584 
Q 1619 3391 1289 3197 
Q 959 3003 697 2906 
L 697 3450 
Q 1169 3672 1522 3987 
Q 1875 4303 2022 4600 
L 2384 4600 
L 2384 0 
z
" transform="scale(0.015625)"/>
       </defs>
       <use xlink:href="#ArialMT-31"/>
       <use xlink:href="#ArialMT-30" x="55.615234"/>
       <use xlink:href="#ArialMT-2e" x="111.230469"/>
       <use xlink:href="#ArialMT-30" x="139.013672"/>
      </g>
     </g>
    </g>
    <g id="xtick_5">
     <g id="line2d_9">
      <path d="M 306.445806 354.429375 
L 306.445806 21.789375 
" clip-path="url(#pcb01628ca5)" style="fill: none; stroke: #ffffff; stroke-linecap: round"/>
     </g>
     <g id="line2d_10">
      <g>
       <use xlink:href="#m8f292a552e" x="306.445806" y="354.429375" style="fill: #808080; stroke: #808080"/>
      </g>
     </g>
     <g id="text_5">
      <!-- 12.5 -->
      <g style="fill: #262626" transform="translate(295.742291 368.802969) scale(0.11 -0.11)">
       <use xlink:href="#ArialMT-31"/>
       <use xlink:href="#ArialMT-32" x="55.615234"/>
       <use xlink:href="#ArialMT-2e" x="111.230469"/>
       <use xlink:href="#ArialMT-35" x="139.013672"/>
      </g>
     </g>
    </g>
    <g id="xtick_6">
     <g id="line2d_11">
      <path d="M 371.296045 354.429375 
L 371.296045 21.789375 
" clip-path="url(#pcb01628ca5)" style="fill: none; stroke: #ffffff; stroke-linecap: round"/>
     </g>
     <g id="line2d_12">
      <g>
       <use xlink:href="#m8f292a552e" x="371.296045" y="354.429375" style="fill: #808080; stroke: #808080"/>
      </g>
     </g>
     <g id="text_6">
      <!-- 15.0 -->
      <g style="fill: #262626" transform="translate(360.59253 368.802969) scale(0.11 -0.11)">
       <use xlink:href="#ArialMT-31"/>
       <use xlink:href="#ArialMT-35" x="55.615234"/>
       <use xlink:href="#ArialMT-2e" x="111.230469"/>
       <use xlink:href="#ArialMT-30" x="139.013672"/>
      </g>
     </g>
    </g>
    <g id="xtick_7">
     <g id="line2d_13">
      <path d="M 436.146284 354.429375 
L 436.146284 21.789375 
" clip-path="url(#pcb01628ca5)" style="fill: none; stroke: #ffffff; stroke-linecap: round"/>
     </g>
     <g id="line2d_14">
      <g>
       <use xlink:href="#m8f292a552e" x="436.146284" y="354.429375" style="fill: #808080; stroke: #808080"/>
      </g>
     </g>
     <g id="text_7">
      <!-- 17.5 -->
      <g style="fill: #262626" transform="translate(425.442769 368.802969) scale(0.11 -0.11)">
       <use xlink:href="#ArialMT-31"/>
       <use xlink:href="#ArialMT-37" x="55.615234"/>
       <use xlink:href="#ArialMT-2e" x="111.230469"/>
       <use xlink:href="#ArialMT-35" x="139.013672"/>
      </g>
     </g>
    </g>
    <g id="xtick_8">
     <g id="line2d_15">
      <path d="M 500.996523 354.429375 
L 500.996523 21.789375 
" clip-path="url(#pcb01628ca5)" style="fill: none; stroke: #ffffff; stroke-linecap: round"/>
     </g>
     <g id="line2d_16">
      <g>
       <use xlink:href="#m8f292a552e" x="500.996523" y="354.429375" style="fill: #808080; stroke: #808080"/>
      </g>
     </g>
     <g id="text_8">
      <!-- 20.0 -->
      <g style="fill: #262626" transform="translate(490.293008 368.802969) scale(0.11 -0.11)">
       <use xlink:href="#ArialMT-32"/>
       <use xlink:href="#ArialMT-30" x="55.615234"/>
       <use xlink:href="#ArialMT-2e" x="111.230469"/>
       <use xlink:href="#ArialMT-30" x="139.013672"/>
      </g>
     </g>
    </g>
   </g>
   <g id="matplotlib.axis_2"/>
   <g id="PolyCollection_1">
    <defs>
     <path id="m24f9f16883" d="M 32.563636 -38.879844 
L 32.563636 -44.274533 
L 33.556342 -44.308233 
L 34.549048 -44.383472 
L 35.541754 -44.526977 
L 36.53446 -44.725493 
L 37.527166 -44.991271 
L 38.519872 -45.304681 
L 39.512578 -45.665993 
L 40.505284 -46.110181 
L 41.49799 -46.595269 
L 42.490696 -47.138874 
L 43.483402 -47.742896 
L 44.476107 -48.409392 
L 45.468813 -49.130406 
L 46.461519 -49.904247 
L 47.454225 -50.72779 
L 48.446931 -51.623336 
L 49.439637 -52.583698 
L 50.432343 -53.576934 
L 51.425049 -54.641621 
L 52.417755 -55.767242 
L 53.410461 -56.935738 
L 54.403167 -58.142491 
L 55.395873 -59.402329 
L 56.388579 -60.705328 
L 57.381284 -62.049957 
L 58.37399 -63.453465 
L 59.366696 -64.885838 
L 60.359402 -66.372036 
L 61.352108 -67.916092 
L 62.344814 -69.473922 
L 63.33752 -71.097891 
L 64.330226 -72.765886 
L 65.322932 -74.468264 
L 66.315638 -76.221839 
L 67.308344 -78.012202 
L 68.30105 -79.846693 
L 69.293756 -81.734268 
L 70.286461 -83.692312 
L 71.279167 -85.653142 
L 72.271873 -87.660295 
L 73.264579 -89.718136 
L 74.257285 -91.816544 
L 75.249991 -93.93223 
L 76.242697 -96.093957 
L 77.235403 -98.294574 
L 78.228109 -100.531833 
L 79.220815 -102.814325 
L 80.213521 -105.130299 
L 81.206227 -107.472191 
L 82.198933 -109.877352 
L 83.191638 -112.331216 
L 84.184344 -114.846652 
L 85.17705 -117.424711 
L 86.169756 -120.067952 
L 87.162462 -122.76765 
L 88.155168 -125.556451 
L 89.147874 -128.421298 
L 90.14058 -131.344436 
L 91.133286 -134.355971 
L 92.125992 -137.420736 
L 93.118698 -140.56655 
L 94.111404 -143.788446 
L 95.10411 -147.084981 
L 96.096816 -150.444023 
L 97.089521 -153.826553 
L 98.082227 -157.244101 
L 99.074933 -160.709292 
L 100.067639 -164.186123 
L 101.060345 -167.673937 
L 102.053051 -171.167299 
L 103.045757 -174.670149 
L 104.038463 -178.194019 
L 105.031169 -181.724871 
L 106.023875 -185.247011 
L 107.016581 -188.743135 
L 108.009287 -192.234119 
L 109.001993 -195.720616 
L 109.994698 -199.223307 
L 110.987404 -202.761305 
L 111.98011 -206.31698 
L 112.972816 -209.864874 
L 113.965522 -213.472552 
L 114.958228 -217.069157 
L 115.950934 -220.7288 
L 116.94364 -224.418717 
L 117.936346 -228.107756 
L 118.929052 -231.835397 
L 119.921758 -235.566401 
L 120.914464 -239.282381 
L 121.90717 -242.965227 
L 122.899875 -246.626406 
L 123.892581 -250.199301 
L 124.885287 -253.697659 
L 125.877993 -257.07689 
L 126.870699 -260.308688 
L 127.863405 -263.384758 
L 128.856111 -266.359475 
L 129.848817 -269.195809 
L 130.841523 -271.861148 
L 131.834229 -274.362414 
L 132.826935 -276.758627 
L 133.819641 -279.025374 
L 134.812347 -281.173257 
L 135.805052 -283.305601 
L 136.797758 -285.38742 
L 137.790464 -287.49313 
L 138.78317 -289.584863 
L 139.775876 -291.733945 
L 140.768582 -293.884831 
L 141.761288 -296.102155 
L 142.753994 -298.431258 
L 143.7467 -300.84098 
L 144.739406 -303.316433 
L 145.732112 -305.837741 
L 146.724818 -308.376251 
L 147.717524 -310.928443 
L 148.710229 -313.459476 
L 149.702935 -315.939696 
L 150.695641 -318.322308 
L 151.688347 -320.598982 
L 152.681053 -322.721498 
L 153.673759 -324.693332 
L 154.666465 -326.507763 
L 155.659171 -328.08931 
L 156.651877 -329.449896 
L 157.644583 -330.606416 
L 158.637289 -331.507444 
L 159.629995 -332.181344 
L 160.622701 -332.664713 
L 161.615407 -332.905424 
L 162.608112 -332.946016 
L 163.600818 -332.81953 
L 164.593524 -332.536962 
L 165.58623 -332.163967 
L 166.578936 -331.695231 
L 167.571642 -331.207634 
L 168.564348 -330.675546 
L 169.557054 -330.199918 
L 170.54976 -329.789224 
L 171.542466 -329.473407 
L 172.535172 -329.298244 
L 173.527878 -329.24578 
L 174.520584 -329.380594 
L 175.513289 -329.718682 
L 176.505995 -330.214542 
L 177.498701 -330.942119 
L 178.491407 -331.832829 
L 179.484113 -332.869685 
L 180.476819 -334.00012 
L 181.469525 -335.246189 
L 182.462231 -336.481934 
L 183.454937 -337.655238 
L 184.447643 -338.76517 
L 185.440349 -339.756396 
L 186.433055 -340.524112 
L 187.425761 -341.035925 
L 188.418466 -341.279844 
L 189.411172 -341.249414 
L 190.403878 -340.862847 
L 191.396584 -340.118628 
L 192.38929 -339.05223 
L 193.381996 -337.577345 
L 194.374702 -335.794775 
L 195.367408 -333.694439 
L 196.360114 -331.336012 
L 197.35282 -328.684747 
L 198.345526 -325.865229 
L 199.338232 -322.861404 
L 200.330938 -319.669804 
L 201.323643 -316.337256 
L 202.316349 -312.912722 
L 203.309055 -309.452951 
L 204.301761 -305.950249 
L 205.294467 -302.481581 
L 206.287173 -299.005871 
L 207.279879 -295.551687 
L 208.272585 -292.142256 
L 209.265291 -288.801472 
L 210.257997 -285.517543 
L 211.250703 -282.318842 
L 212.243409 -279.224685 
L 213.236115 -276.269363 
L 214.22882 -273.440506 
L 215.221526 -270.697602 
L 216.214232 -268.114979 
L 217.206938 -265.700532 
L 218.199644 -263.409564 
L 219.19235 -261.280797 
L 220.185056 -259.321503 
L 221.177762 -257.513029 
L 222.170468 -255.871694 
L 223.163174 -254.32459 
L 224.15588 -252.886932 
L 225.148586 -251.513739 
L 226.141292 -250.280952 
L 227.133998 -249.11755 
L 228.126703 -248.021103 
L 229.119409 -246.916525 
L 230.112115 -245.8602 
L 231.104821 -244.78122 
L 232.097527 -243.715648 
L 233.090233 -242.641961 
L 234.082939 -241.520646 
L 235.075645 -240.386874 
L 236.068351 -239.193562 
L 237.061057 -237.991855 
L 238.053763 -236.762649 
L 239.046469 -235.458997 
L 240.039175 -234.177807 
L 241.03188 -232.903007 
L 242.024586 -231.583147 
L 243.017292 -230.206954 
L 244.009998 -228.832678 
L 245.002704 -227.44687 
L 245.99541 -226.023841 
L 246.988116 -224.583101 
L 247.980822 -223.074759 
L 248.973528 -221.557834 
L 249.966234 -219.962182 
L 250.95894 -218.320463 
L 251.951646 -216.59569 
L 252.944352 -214.779627 
L 253.937057 -212.891099 
L 254.929763 -210.922513 
L 255.922469 -208.872404 
L 256.915175 -206.709863 
L 257.907881 -204.464863 
L 258.900587 -202.189205 
L 259.893293 -199.834387 
L 260.885999 -197.381347 
L 261.878705 -194.914802 
L 262.871411 -192.389558 
L 263.864117 -189.843988 
L 264.856823 -187.328806 
L 265.849529 -184.810298 
L 266.842234 -182.316044 
L 267.83494 -179.879701 
L 268.827646 -177.490244 
L 269.820352 -175.170188 
L 270.813058 -172.900558 
L 271.805764 -170.733211 
L 272.79847 -168.673516 
L 273.791176 -166.672948 
L 274.783882 -164.747889 
L 275.776588 -162.922042 
L 276.769294 -161.203904 
L 277.762 -159.515539 
L 278.754706 -157.880929 
L 279.747411 -156.296183 
L 280.740117 -154.764065 
L 281.732823 -153.240597 
L 282.725529 -151.734938 
L 283.718235 -150.212078 
L 284.710941 -148.673508 
L 285.703647 -147.121441 
L 286.696353 -145.572655 
L 287.689059 -143.977564 
L 288.681765 -142.345191 
L 289.674471 -140.679738 
L 290.667177 -138.96312 
L 291.659883 -137.260316 
L 292.652589 -135.497837 
L 293.645294 -133.767986 
L 294.638 -132.03597 
L 295.630706 -130.310426 
L 296.623412 -128.615822 
L 297.616118 -126.92565 
L 298.608824 -125.256345 
L 299.60153 -123.625643 
L 300.594236 -122.029291 
L 301.586942 -120.476203 
L 302.579648 -118.926474 
L 303.572354 -117.430273 
L 304.56506 -115.947841 
L 305.557766 -114.522623 
L 306.550471 -113.067108 
L 307.543177 -111.649893 
L 308.535883 -110.236989 
L 309.528589 -108.842216 
L 310.521295 -107.452933 
L 311.514001 -106.076328 
L 312.506707 -104.686052 
L 313.499413 -103.293356 
L 314.492119 -101.927029 
L 315.484825 -100.578414 
L 316.477531 -99.23336 
L 317.470237 -97.929822 
L 318.462943 -96.652066 
L 319.455648 -95.39292 
L 320.448354 -94.155824 
L 321.44106 -92.966248 
L 322.433766 -91.81803 
L 323.426472 -90.711128 
L 324.419178 -89.659924 
L 325.411884 -88.657765 
L 326.40459 -87.689546 
L 327.397296 -86.758726 
L 328.390002 -85.86546 
L 329.382708 -85.003781 
L 330.375414 -84.195606 
L 331.36812 -83.43501 
L 332.360825 -82.688435 
L 333.353531 -81.970431 
L 334.346237 -81.26892 
L 335.338943 -80.625179 
L 336.331649 -80.008534 
L 337.324355 -79.410404 
L 338.317061 -78.823855 
L 339.309767 -78.261757 
L 340.302473 -77.713244 
L 341.295179 -77.188233 
L 342.287885 -76.674892 
L 343.280591 -76.184447 
L 344.273297 -75.68979 
L 345.266002 -75.212805 
L 346.258708 -74.740999 
L 347.251414 -74.252886 
L 348.24412 -73.762685 
L 349.236826 -73.252968 
L 350.229532 -72.739524 
L 351.222238 -72.183611 
L 352.214944 -71.593315 
L 353.20765 -70.983526 
L 354.200356 -70.347578 
L 355.193062 -69.666879 
L 356.185768 -68.956456 
L 357.178474 -68.208876 
L 358.17118 -67.439825 
L 359.163885 -66.631626 
L 360.156591 -65.818882 
L 361.149297 -64.981548 
L 362.142003 -64.131117 
L 363.134709 -63.284707 
L 364.127415 -62.462082 
L 365.120121 -61.639508 
L 366.112827 -60.840348 
L 367.105533 -60.059841 
L 368.098239 -59.311606 
L 369.090945 -58.590499 
L 370.083651 -57.908778 
L 371.076357 -57.268037 
L 372.069062 -56.654586 
L 373.061768 -56.082716 
L 374.054474 -55.535008 
L 375.04718 -55.010579 
L 376.039886 -54.517473 
L 377.032592 -54.050243 
L 378.025298 -53.618976 
L 379.018004 -53.206446 
L 380.01071 -52.810128 
L 381.003416 -52.434888 
L 381.996122 -52.073001 
L 382.988828 -51.746128 
L 383.981534 -51.448075 
L 384.974239 -51.169068 
L 385.966945 -50.918144 
L 386.959651 -50.696787 
L 387.952357 -50.485779 
L 388.945063 -50.306398 
L 389.937769 -50.14779 
L 390.930475 -50.015233 
L 391.923181 -49.909852 
L 392.915887 -49.818684 
L 393.908593 -49.740068 
L 394.901299 -49.681708 
L 395.894005 -49.645437 
L 396.886711 -49.616917 
L 397.879416 -49.587601 
L 398.872122 -49.56254 
L 399.864828 -49.533473 
L 400.857534 -49.497167 
L 401.85024 -49.465693 
L 402.842946 -49.42128 
L 403.835652 -49.368153 
L 404.828358 -49.305004 
L 405.821064 -49.234228 
L 406.81377 -49.145464 
L 407.806476 -49.043384 
L 408.799182 -48.930695 
L 409.791888 -48.808135 
L 410.784593 -48.671849 
L 411.777299 -48.515372 
L 412.770005 -48.354266 
L 413.762711 -48.179696 
L 414.755417 -47.993135 
L 415.748123 -47.793709 
L 416.740829 -47.587242 
L 417.733535 -47.368257 
L 418.726241 -47.139879 
L 419.718947 -46.902733 
L 420.711653 -46.657339 
L 421.704359 -46.402404 
L 422.697065 -46.140488 
L 423.689771 -45.876555 
L 424.682476 -45.603049 
L 425.675182 -45.327927 
L 426.667888 -45.043951 
L 427.660594 -44.75603 
L 428.6533 -44.463495 
L 429.646006 -44.176391 
L 430.638712 -43.88275 
L 431.631418 -43.597542 
L 432.624124 -43.315997 
L 433.61683 -43.04233 
L 434.609536 -42.776821 
L 435.602242 -42.516884 
L 436.594948 -42.273237 
L 437.587653 -42.049427 
L 438.580359 -41.842604 
L 439.573065 -41.648488 
L 440.565771 -41.479579 
L 441.558477 -41.328218 
L 442.551183 -41.199346 
L 443.543889 -41.093556 
L 444.536595 -40.996961 
L 445.529301 -40.930611 
L 446.522007 -40.878104 
L 447.514713 -40.842087 
L 448.507419 -40.814601 
L 449.500125 -40.799513 
L 450.49283 -40.792633 
L 451.485536 -40.788767 
L 452.478242 -40.792404 
L 453.470948 -40.794406 
L 454.463654 -40.805201 
L 455.45636 -40.820707 
L 456.449066 -40.828898 
L 457.441772 -40.842885 
L 458.434478 -40.85773 
L 459.427184 -40.873256 
L 460.41989 -40.885707 
L 461.412596 -40.899643 
L 462.405302 -40.911251 
L 463.398007 -40.924699 
L 464.390713 -40.936062 
L 465.383419 -40.949357 
L 466.376125 -40.96221 
L 467.368831 -40.974548 
L 468.361537 -40.984502 
L 469.354243 -40.995791 
L 470.346949 -41.005805 
L 471.339655 -41.014304 
L 472.332361 -41.019318 
L 473.325067 -41.024503 
L 474.317773 -41.027209 
L 475.310479 -41.029549 
L 476.303184 -41.027304 
L 477.29589 -41.021847 
L 478.288596 -41.01278 
L 479.281302 -40.999638 
L 480.274008 -40.984307 
L 481.266714 -40.958933 
L 482.25942 -40.932609 
L 483.252126 -40.898472 
L 484.244832 -40.860192 
L 485.237538 -40.815275 
L 486.230244 -40.7638 
L 487.22295 -40.702621 
L 488.215656 -40.640113 
L 489.208362 -40.574699 
L 490.201067 -40.503524 
L 491.193773 -40.429547 
L 492.186479 -40.354136 
L 493.179185 -40.278719 
L 494.171891 -40.204705 
L 495.164597 -40.131705 
L 496.157303 -40.064815 
L 497.150009 -40.002628 
L 498.142715 -39.94244 
L 499.135421 -39.892546 
L 500.128127 -39.848366 
L 501.120833 -39.809816 
L 502.113539 -39.776546 
L 503.106244 -39.746268 
L 504.09895 -39.72046 
L 505.091656 -39.69813 
L 506.084362 -39.679988 
L 507.077068 -39.662837 
L 508.069774 -39.645913 
L 509.06248 -39.628518 
L 510.055186 -39.610053 
L 511.047892 -39.590041 
L 512.040598 -39.570535 
L 513.033304 -39.548131 
L 514.02601 -39.524576 
L 515.018716 -39.499405 
L 516.011421 -39.471245 
L 517.004127 -39.439334 
L 517.996833 -39.413651 
L 518.989539 -39.387765 
L 519.982245 -39.362463 
L 520.974951 -39.338525 
L 521.967657 -39.316701 
L 522.960363 -39.297689 
L 523.953069 -39.282107 
L 524.945775 -39.270467 
L 525.938481 -39.263151 
L 526.931187 -39.26038 
L 527.923893 -39.262202 
L 528.916598 -39.268474 
L 529.909304 -39.278857 
L 530.90201 -39.29282 
L 531.894716 -39.309654 
L 532.887422 -39.326784 
L 533.880128 -39.34716 
L 534.872834 -39.367366 
L 535.86554 -39.388754 
L 536.858246 -39.406412 
L 537.850952 -39.419442 
L 538.843658 -39.431013 
L 539.836364 -39.438183 
L 539.836364 -38.879844 
L 539.836364 -38.879844 
L 538.843658 -38.879844 
L 537.850952 -38.879844 
L 536.858246 -38.879844 
L 535.86554 -38.879844 
L 534.872834 -38.879844 
L 533.880128 -38.879844 
L 532.887422 -38.879844 
L 531.894716 -38.879844 
L 530.90201 -38.879844 
L 529.909304 -38.879844 
L 528.916598 -38.879844 
L 527.923893 -38.879844 
L 526.931187 -38.879844 
L 525.938481 -38.879844 
L 524.945775 -38.879844 
L 523.953069 -38.879844 
L 522.960363 -38.879844 
L 521.967657 -38.879844 
L 520.974951 -38.879844 
L 519.982245 -38.879844 
L 518.989539 -38.879844 
L 517.996833 -38.879844 
L 517.004127 -38.879844 
L 516.011421 -38.879844 
L 515.018716 -38.879844 
L 514.02601 -38.879844 
L 513.033304 -38.879844 
L 512.040598 -38.879844 
L 511.047892 -38.879844 
L 510.055186 -38.879844 
L 509.06248 -38.879844 
L 508.069774 -38.879844 
L 507.077068 -38.879844 
L 506.084362 -38.879844 
L 505.091656 -38.879844 
L 504.09895 -38.879844 
L 503.106244 -38.879844 
L 502.113539 -38.879844 
L 501.120833 -38.879844 
L 500.128127 -38.879844 
L 499.135421 -38.879844 
L 498.142715 -38.879844 
L 497.150009 -38.879844 
L 496.157303 -38.879844 
L 495.164597 -38.879844 
L 494.171891 -38.879844 
L 493.179185 -38.879844 
L 492.186479 -38.879844 
L 491.193773 -38.879844 
L 490.201067 -38.879844 
L 489.208362 -38.879844 
L 488.215656 -38.879844 
L 487.22295 -38.879844 
L 486.230244 -38.879844 
L 485.237538 -38.879844 
L 484.244832 -38.879844 
L 483.252126 -38.879844 
L 482.25942 -38.879844 
L 481.266714 -38.879844 
L 480.274008 -38.879844 
L 479.281302 -38.879844 
L 478.288596 -38.879844 
L 477.29589 -38.879844 
L 476.303184 -38.879844 
L 475.310479 -38.879844 
L 474.317773 -38.879844 
L 473.325067 -38.879844 
L 472.332361 -38.879844 
L 471.339655 -38.879844 
L 470.346949 -38.879844 
L 469.354243 -38.879844 
L 468.361537 -38.879844 
L 467.368831 -38.879844 
L 466.376125 -38.879844 
L 465.383419 -38.879844 
L 464.390713 -38.879844 
L 463.398007 -38.879844 
L 462.405302 -38.879844 
L 461.412596 -38.879844 
L 460.41989 -38.879844 
L 459.427184 -38.879844 
L 458.434478 -38.879844 
L 457.441772 -38.879844 
L 456.449066 -38.879844 
L 455.45636 -38.879844 
L 454.463654 -38.879844 
L 453.470948 -38.879844 
L 452.478242 -38.879844 
L 451.485536 -38.879844 
L 450.49283 -38.879844 
L 449.500125 -38.879844 
L 448.507419 -38.879844 
L 447.514713 -38.879844 
L 446.522007 -38.879844 
L 445.529301 -38.879844 
L 444.536595 -38.879844 
L 443.543889 -38.879844 
L 442.551183 -38.879844 
L 441.558477 -38.879844 
L 440.565771 -38.879844 
L 439.573065 -38.879844 
L 438.580359 -38.879844 
L 437.587653 -38.879844 
L 436.594948 -38.879844 
L 435.602242 -38.879844 
L 434.609536 -38.879844 
L 433.61683 -38.879844 
L 432.624124 -38.879844 
L 431.631418 -38.879844 
L 430.638712 -38.879844 
L 429.646006 -38.879844 
L 428.6533 -38.879844 
L 427.660594 -38.879844 
L 426.667888 -38.879844 
L 425.675182 -38.879844 
L 424.682476 -38.879844 
L 423.689771 -38.879844 
L 422.697065 -38.879844 
L 421.704359 -38.879844 
L 420.711653 -38.879844 
L 419.718947 -38.879844 
L 418.726241 -38.879844 
L 417.733535 -38.879844 
L 416.740829 -38.879844 
L 415.748123 -38.879844 
L 414.755417 -38.879844 
L 413.762711 -38.879844 
L 412.770005 -38.879844 
L 411.777299 -38.879844 
L 410.784593 -38.879844 
L 409.791888 -38.879844 
L 408.799182 -38.879844 
L 407.806476 -38.879844 
L 406.81377 -38.879844 
L 405.821064 -38.879844 
L 404.828358 -38.879844 
L 403.835652 -38.879844 
L 402.842946 -38.879844 
L 401.85024 -38.879844 
L 400.857534 -38.879844 
L 399.864828 -38.879844 
L 398.872122 -38.879844 
L 397.879416 -38.879844 
L 396.886711 -38.879844 
L 395.894005 -38.879844 
L 394.901299 -38.879844 
L 393.908593 -38.879844 
L 392.915887 -38.879844 
L 391.923181 -38.879844 
L 390.930475 -38.879844 
L 389.937769 -38.879844 
L 388.945063 -38.879844 
L 387.952357 -38.879844 
L 386.959651 -38.879844 
L 385.966945 -38.879844 
L 384.974239 -38.879844 
L 383.981534 -38.879844 
L 382.988828 -38.879844 
L 381.996122 -38.879844 
L 381.003416 -38.879844 
L 380.01071 -38.879844 
L 379.018004 -38.879844 
L 378.025298 -38.879844 
L 377.032592 -38.879844 
L 376.039886 -38.879844 
L 375.04718 -38.879844 
L 374.054474 -38.879844 
L 373.061768 -38.879844 
L 372.069062 -38.879844 
L 371.076357 -38.879844 
L 370.083651 -38.879844 
L 369.090945 -38.879844 
L 368.098239 -38.879844 
L 367.105533 -38.879844 
L 366.112827 -38.879844 
L 365.120121 -38.879844 
L 364.127415 -38.879844 
L 363.134709 -38.879844 
L 362.142003 -38.879844 
L 361.149297 -38.879844 
L 360.156591 -38.879844 
L 359.163885 -38.879844 
L 358.17118 -38.879844 
L 357.178474 -38.879844 
L 356.185768 -38.879844 
L 355.193062 -38.879844 
L 354.200356 -38.879844 
L 353.20765 -38.879844 
L 352.214944 -38.879844 
L 351.222238 -38.879844 
L 350.229532 -38.879844 
L 349.236826 -38.879844 
L 348.24412 -38.879844 
L 347.251414 -38.879844 
L 346.258708 -38.879844 
L 345.266002 -38.879844 
L 344.273297 -38.879844 
L 343.280591 -38.879844 
L 342.287885 -38.879844 
L 341.295179 -38.879844 
L 340.302473 -38.879844 
L 339.309767 -38.879844 
L 338.317061 -38.879844 
L 337.324355 -38.879844 
L 336.331649 -38.879844 
L 335.338943 -38.879844 
L 334.346237 -38.879844 
L 333.353531 -38.879844 
L 332.360825 -38.879844 
L 331.36812 -38.879844 
L 330.375414 -38.879844 
L 329.382708 -38.879844 
L 328.390002 -38.879844 
L 327.397296 -38.879844 
L 326.40459 -38.879844 
L 325.411884 -38.879844 
L 324.419178 -38.879844 
L 323.426472 -38.879844 
L 322.433766 -38.879844 
L 321.44106 -38.879844 
L 320.448354 -38.879844 
L 319.455648 -38.879844 
L 318.462943 -38.879844 
L 317.470237 -38.879844 
L 316.477531 -38.879844 
L 315.484825 -38.879844 
L 314.492119 -38.879844 
L 313.499413 -38.879844 
L 312.506707 -38.879844 
L 311.514001 -38.879844 
L 310.521295 -38.879844 
L 309.528589 -38.879844 
L 308.535883 -38.879844 
L 307.543177 -38.879844 
L 306.550471 -38.879844 
L 305.557766 -38.879844 
L 304.56506 -38.879844 
L 303.572354 -38.879844 
L 302.579648 -38.879844 
L 301.586942 -38.879844 
L 300.594236 -38.879844 
L 299.60153 -38.879844 
L 298.608824 -38.879844 
L 297.616118 -38.879844 
L 296.623412 -38.879844 
L 295.630706 -38.879844 
L 294.638 -38.879844 
L 293.645294 -38.879844 
L 292.652589 -38.879844 
L 291.659883 -38.879844 
L 290.667177 -38.879844 
L 289.674471 -38.879844 
L 288.681765 -38.879844 
L 287.689059 -38.879844 
L 286.696353 -38.879844 
L 285.703647 -38.879844 
L 284.710941 -38.879844 
L 283.718235 -38.879844 
L 282.725529 -38.879844 
L 281.732823 -38.879844 
L 280.740117 -38.879844 
L 279.747411 -38.879844 
L 278.754706 -38.879844 
L 277.762 -38.879844 
L 276.769294 -38.879844 
L 275.776588 -38.879844 
L 274.783882 -38.879844 
L 273.791176 -38.879844 
L 272.79847 -38.879844 
L 271.805764 -38.879844 
L 270.813058 -38.879844 
L 269.820352 -38.879844 
L 268.827646 -38.879844 
L 267.83494 -38.879844 
L 266.842234 -38.879844 
L 265.849529 -38.879844 
L 264.856823 -38.879844 
L 263.864117 -38.879844 
L 262.871411 -38.879844 
L 261.878705 -38.879844 
L 260.885999 -38.879844 
L 259.893293 -38.879844 
L 258.900587 -38.879844 
L 257.907881 -38.879844 
L 256.915175 -38.879844 
L 255.922469 -38.879844 
L 254.929763 -38.879844 
L 253.937057 -38.879844 
L 252.944352 -38.879844 
L 251.951646 -38.879844 
L 250.95894 -38.879844 
L 249.966234 -38.879844 
L 248.973528 -38.879844 
L 247.980822 -38.879844 
L 246.988116 -38.879844 
L 245.99541 -38.879844 
L 245.002704 -38.879844 
L 244.009998 -38.879844 
L 243.017292 -38.879844 
L 242.024586 -38.879844 
L 241.03188 -38.879844 
L 240.039175 -38.879844 
L 239.046469 -38.879844 
L 238.053763 -38.879844 
L 237.061057 -38.879844 
L 236.068351 -38.879844 
L 235.075645 -38.879844 
L 234.082939 -38.879844 
L 233.090233 -38.879844 
L 232.097527 -38.879844 
L 231.104821 -38.879844 
L 230.112115 -38.879844 
L 229.119409 -38.879844 
L 228.126703 -38.879844 
L 227.133998 -38.879844 
L 226.141292 -38.879844 
L 225.148586 -38.879844 
L 224.15588 -38.879844 
L 223.163174 -38.879844 
L 222.170468 -38.879844 
L 221.177762 -38.879844 
L 220.185056 -38.879844 
L 219.19235 -38.879844 
L 218.199644 -38.879844 
L 217.206938 -38.879844 
L 216.214232 -38.879844 
L 215.221526 -38.879844 
L 214.22882 -38.879844 
L 213.236115 -38.879844 
L 212.243409 -38.879844 
L 211.250703 -38.879844 
L 210.257997 -38.879844 
L 209.265291 -38.879844 
L 208.272585 -38.879844 
L 207.279879 -38.879844 
L 206.287173 -38.879844 
L 205.294467 -38.879844 
L 204.301761 -38.879844 
L 203.309055 -38.879844 
L 202.316349 -38.879844 
L 201.323643 -38.879844 
L 200.330938 -38.879844 
L 199.338232 -38.879844 
L 198.345526 -38.879844 
L 197.35282 -38.879844 
L 196.360114 -38.879844 
L 195.367408 -38.879844 
L 194.374702 -38.879844 
L 193.381996 -38.879844 
L 192.38929 -38.879844 
L 191.396584 -38.879844 
L 190.403878 -38.879844 
L 189.411172 -38.879844 
L 188.418466 -38.879844 
L 187.425761 -38.879844 
L 186.433055 -38.879844 
L 185.440349 -38.879844 
L 184.447643 -38.879844 
L 183.454937 -38.879844 
L 182.462231 -38.879844 
L 181.469525 -38.879844 
L 180.476819 -38.879844 
L 179.484113 -38.879844 
L 178.491407 -38.879844 
L 177.498701 -38.879844 
L 176.505995 -38.879844 
L 175.513289 -38.879844 
L 174.520584 -38.879844 
L 173.527878 -38.879844 
L 172.535172 -38.879844 
L 171.542466 -38.879844 
L 170.54976 -38.879844 
L 169.557054 -38.879844 
L 168.564348 -38.879844 
L 167.571642 -38.879844 
L 166.578936 -38.879844 
L 165.58623 -38.879844 
L 164.593524 -38.879844 
L 163.600818 -38.879844 
L 162.608112 -38.879844 
L 161.615407 -38.879844 
L 160.622701 -38.879844 
L 159.629995 -38.879844 
L 158.637289 -38.879844 
L 157.644583 -38.879844 
L 156.651877 -38.879844 
L 155.659171 -38.879844 
L 154.666465 -38.879844 
L 153.673759 -38.879844 
L 152.681053 -38.879844 
L 151.688347 -38.879844 
L 150.695641 -38.879844 
L 149.702935 -38.879844 
L 148.710229 -38.879844 
L 147.717524 -38.879844 
L 146.724818 -38.879844 
L 145.732112 -38.879844 
L 144.739406 -38.879844 
L 143.7467 -38.879844 
L 142.753994 -38.879844 
L 141.761288 -38.879844 
L 140.768582 -38.879844 
L 139.775876 -38.879844 
L 138.78317 -38.879844 
L 137.790464 -38.879844 
L 136.797758 -38.879844 
L 135.805052 -38.879844 
L 134.812347 -38.879844 
L 133.819641 -38.879844 
L 132.826935 -38.879844 
L 131.834229 -38.879844 
L 130.841523 -38.879844 
L 129.848817 -38.879844 
L 128.856111 -38.879844 
L 127.863405 -38.879844 
L 126.870699 -38.879844 
L 125.877993 -38.879844 
L 124.885287 -38.879844 
L 123.892581 -38.879844 
L 122.899875 -38.879844 
L 121.90717 -38.879844 
L 120.914464 -38.879844 
L 119.921758 -38.879844 
L 118.929052 -38.879844 
L 117.936346 -38.879844 
L 116.94364 -38.879844 
L 115.950934 -38.879844 
L 114.958228 -38.879844 
L 113.965522 -38.879844 
L 112.972816 -38.879844 
L 111.98011 -38.879844 
L 110.987404 -38.879844 
L 109.994698 -38.879844 
L 109.001993 -38.879844 
L 108.009287 -38.879844 
L 107.016581 -38.879844 
L 106.023875 -38.879844 
L 105.031169 -38.879844 
L 104.038463 -38.879844 
L 103.045757 -38.879844 
L 102.053051 -38.879844 
L 101.060345 -38.879844 
L 100.067639 -38.879844 
L 99.074933 -38.879844 
L 98.082227 -38.879844 
L 97.089521 -38.879844 
L 96.096816 -38.879844 
L 95.10411 -38.879844 
L 94.111404 -38.879844 
L 93.118698 -38.879844 
L 92.125992 -38.879844 
L 91.133286 -38.879844 
L 90.14058 -38.879844 
L 89.147874 -38.879844 
L 88.155168 -38.879844 
L 87.162462 -38.879844 
L 86.169756 -38.879844 
L 85.17705 -38.879844 
L 84.184344 -38.879844 
L 83.191638 -38.879844 
L 82.198933 -38.879844 
L 81.206227 -38.879844 
L 80.213521 -38.879844 
L 79.220815 -38.879844 
L 78.228109 -38.879844 
L 77.235403 -38.879844 
L 76.242697 -38.879844 
L 75.249991 -38.879844 
L 74.257285 -38.879844 
L 73.264579 -38.879844 
L 72.271873 -38.879844 
L 71.279167 -38.879844 
L 70.286461 -38.879844 
L 69.293756 -38.879844 
L 68.30105 -38.879844 
L 67.308344 -38.879844 
L 66.315638 -38.879844 
L 65.322932 -38.879844 
L 64.330226 -38.879844 
L 63.33752 -38.879844 
L 62.344814 -38.879844 
L 61.352108 -38.879844 
L 60.359402 -38.879844 
L 59.366696 -38.879844 
L 58.37399 -38.879844 
L 57.381284 -38.879844 
L 56.388579 -38.879844 
L 55.395873 -38.879844 
L 54.403167 -38.879844 
L 53.410461 -38.879844 
L 52.417755 -38.879844 
L 51.425049 -38.879844 
L 50.432343 -38.879844 
L 49.439637 -38.879844 
L 48.446931 -38.879844 
L 47.454225 -38.879844 
L 46.461519 -38.879844 
L 45.468813 -38.879844 
L 44.476107 -38.879844 
L 43.483402 -38.879844 
L 42.490696 -38.879844 
L 41.49799 -38.879844 
L 40.505284 -38.879844 
L 39.512578 -38.879844 
L 38.519872 -38.879844 
L 37.527166 -38.879844 
L 36.53446 -38.879844 
L 35.541754 -38.879844 
L 34.549048 -38.879844 
L 33.556342 -38.879844 
L 32.563636 -38.879844 
z
" style="stroke: #0173b2; stroke-opacity: 0"/>
    </defs>
    <g clip-path="url(#pcb01628ca5)">
     <use xlink:href="#m24f9f16883" x="0" y="378.189219" style="fill: #0173b2; fill-opacity: 0; stroke: #0173b2; stroke-opacity: 0"/>
    </g>
   </g>
   <g id="line2d_17">
    <path d="M 32.563636 333.914686 
L 34.549048 333.805747 
L 36.53446 333.463725 
L 38.519872 332.884538 
L 40.505284 332.079037 
L 42.490696 331.050345 
L 44.476107 329.779827 
L 46.461519 328.284972 
L 48.446931 326.565882 
L 51.425049 323.547598 
L 54.403167 320.046728 
L 57.381284 316.139261 
L 60.359402 311.817183 
L 63.33752 307.091328 
L 66.315638 301.96738 
L 69.293756 296.454951 
L 73.264579 288.471082 
L 77.235403 279.894645 
L 81.206227 270.717028 
L 84.184344 263.342567 
L 87.162462 255.421569 
L 90.14058 246.844783 
L 93.118698 237.622669 
L 97.089521 224.362665 
L 103.045757 203.51907 
L 115.950934 157.460418 
L 124.885287 124.49156 
L 126.870699 117.880531 
L 129.848817 108.993409 
L 131.834229 103.826805 
L 133.819641 99.163845 
L 142.753994 79.757961 
L 145.732112 72.351478 
L 150.695641 59.866911 
L 152.681053 55.467721 
L 154.666465 51.681456 
L 155.659171 50.099909 
L 156.651877 48.739322 
L 157.644583 47.582803 
L 158.637289 46.681775 
L 159.629995 46.007875 
L 160.622701 45.524506 
L 161.615407 45.283794 
L 162.608112 45.243203 
L 163.600818 45.369689 
L 165.58623 46.025252 
L 171.542466 48.715812 
L 172.535172 48.890975 
L 173.527878 48.943438 
L 174.520584 48.808625 
L 175.513289 48.470537 
L 176.505995 47.974677 
L 177.498701 47.2471 
L 179.484113 45.319533 
L 181.469525 42.943029 
L 183.454937 40.53398 
L 185.440349 38.432822 
L 186.433055 37.665107 
L 187.425761 37.153294 
L 188.418466 36.909375 
L 189.411172 36.939805 
L 190.403878 37.326372 
L 191.396584 38.07059 
L 192.38929 39.136989 
L 193.381996 40.611874 
L 194.374702 42.394444 
L 196.360114 46.853207 
L 198.345526 52.32399 
L 200.330938 58.519415 
L 203.309055 68.736267 
L 209.265291 89.387746 
L 212.243409 98.964533 
L 215.221526 107.491616 
L 217.206938 112.488687 
L 219.19235 116.908422 
L 221.177762 120.67619 
L 223.163174 123.864629 
L 225.148586 126.675479 
L 227.133998 129.071669 
L 237.061057 140.197364 
L 241.03188 145.286211 
L 245.002704 150.742349 
L 247.980822 155.11446 
L 249.966234 158.227037 
L 251.951646 161.593529 
L 254.929763 167.266706 
L 256.915175 171.479356 
L 259.893293 178.354832 
L 264.856823 190.860413 
L 268.827646 200.698975 
L 271.805764 207.456008 
L 274.783882 213.44133 
L 276.769294 216.985315 
L 279.747411 221.893036 
L 288.681765 235.844027 
L 292.652589 242.691382 
L 298.608824 252.932874 
L 302.579648 259.262744 
L 306.550471 265.122111 
L 313.499413 274.895863 
L 317.470237 280.259397 
L 321.44106 285.222971 
L 324.419178 288.529295 
L 327.397296 291.430493 
L 330.375414 293.993612 
L 334.346237 296.920299 
L 338.317061 299.365364 
L 342.287885 301.514327 
L 351.222238 306.005608 
L 354.200356 307.841641 
L 357.178474 309.980343 
L 360.156591 312.370337 
L 367.105533 318.129378 
L 370.083651 320.280441 
L 373.061768 322.106503 
L 376.039886 323.671746 
L 379.018004 324.982772 
L 381.996122 326.116217 
L 384.974239 327.020151 
L 387.952357 327.70344 
L 390.930475 328.173986 
L 394.901299 328.507511 
L 406.81377 329.043755 
L 410.784593 329.51737 
L 415.748123 330.39551 
L 420.711653 331.531879 
L 426.667888 333.145268 
L 436.594948 335.915982 
L 440.565771 336.70964 
L 443.543889 337.095663 
L 446.522007 337.311115 
L 451.485536 337.400452 
L 465.383419 337.239862 
L 478.288596 337.176439 
L 485.237538 337.373944 
L 492.186479 337.835082 
L 500.128127 338.340853 
L 508.069774 338.543305 
L 531.894716 338.879565 
L 539.836364 338.751036 
L 539.836364 338.751036 
" clip-path="url(#pcb01628ca5)" style="fill: none; stroke: #0173b2; stroke-width: 1.5; stroke-linecap: round"/>
   </g>
   <g id="line2d_18">
    <path d="M 70.891553 332.958975 
L 324.561756 332.958975 
" clip-path="url(#pcb01628ca5)" style="fill: none; stroke: #1a1a1a; stroke-width: 3"/>
   </g>
   <g id="patch_3">
    <path d="M 7.2 354.429375 
L 565.2 354.429375 
" style="fill: none; stroke: #808080; stroke-width: 1.25; stroke-linejoin: miter; stroke-linecap: square"/>
   </g>
   <g id="text_9">
    <!-- 3.4  -->
    <g style="fill: #262626" transform="translate(50.877803 317.082975) scale(0.12 -0.12)">
     <defs>
      <path id="ArialMT-33" d="M 269 1209 
L 831 1284 
Q 928 806 1161 595 
Q 1394 384 1728 384 
Q 2125 384 2398 659 
Q 2672 934 2672 1341 
Q 2672 1728 2419 1979 
Q 2166 2231 1775 2231 
Q 1616 2231 1378 2169 
L 1441 2663 
Q 1497 2656 1531 2656 
Q 1891 2656 2178 2843 
Q 2466 3031 2466 3422 
Q 2466 3731 2256 3934 
Q 2047 4138 1716 4138 
Q 1388 4138 1169 3931 
Q 950 3725 888 3313 
L 325 3413 
Q 428 3978 793 4289 
Q 1159 4600 1703 4600 
Q 2078 4600 2393 4439 
Q 2709 4278 2876 4000 
Q 3044 3722 3044 3409 
Q 3044 3113 2884 2869 
Q 2725 2625 2413 2481 
Q 2819 2388 3044 2092 
Q 3269 1797 3269 1353 
Q 3269 753 2831 336 
Q 2394 -81 1725 -81 
Q 1122 -81 723 278 
Q 325 638 269 1209 
z
" transform="scale(0.015625)"/>
      <path id="ArialMT-34" d="M 2069 0 
L 2069 1097 
L 81 1097 
L 81 1613 
L 2172 4581 
L 2631 4581 
L 2631 1613 
L 3250 1613 
L 3250 1097 
L 2631 1097 
L 2631 0 
L 2069 0 
z
M 2069 1613 
L 2069 3678 
L 634 1613 
L 2069 1613 
z
" transform="scale(0.015625)"/>
      <path id="ArialMT-20" transform="scale(0.015625)"/>
     </defs>
     <use xlink:href="#ArialMT-33"/>
     <use xlink:href="#ArialMT-2e" x="55.615234"/>
     <use xlink:href="#ArialMT-34" x="83.398438"/>
     <use xlink:href="#ArialMT-20" x="139.013672"/>
    </g>
   </g>
   <g id="text_10">
    <!--  13 -->
    <g style="fill: #262626" transform="translate(324.561756 317.082975) scale(0.12 -0.12)">
     <use xlink:href="#ArialMT-20"/>
     <use xlink:href="#ArialMT-31" x="27.783203"/>
     <use xlink:href="#ArialMT-33" x="83.398438"/>
    </g>
   </g>
   <g id="text_11">
    <!-- 94% HDI -->
    <g style="fill: #262626" transform="translate(173.718217 244.053375) scale(0.12 -0.12)">
     <defs>
      <path id="ArialMT-39" d="M 350 1059 
L 891 1109 
Q 959 728 1153 556 
Q 1347 384 1650 384 
Q 1909 384 2104 503 
Q 2300 622 2425 820 
Q 2550 1019 2634 1356 
Q 2719 1694 2719 2044 
Q 2719 2081 2716 2156 
Q 2547 1888 2255 1720 
Q 1963 1553 1622 1553 
Q 1053 1553 659 1965 
Q 266 2378 266 3053 
Q 266 3750 677 4175 
Q 1088 4600 1706 4600 
Q 2153 4600 2523 4359 
Q 2894 4119 3086 3673 
Q 3278 3228 3278 2384 
Q 3278 1506 3087 986 
Q 2897 466 2520 194 
Q 2144 -78 1638 -78 
Q 1100 -78 759 220 
Q 419 519 350 1059 
z
M 2653 3081 
Q 2653 3566 2395 3850 
Q 2138 4134 1775 4134 
Q 1400 4134 1122 3828 
Q 844 3522 844 3034 
Q 844 2597 1108 2323 
Q 1372 2050 1759 2050 
Q 2150 2050 2401 2323 
Q 2653 2597 2653 3081 
z
" transform="scale(0.015625)"/>
      <path id="ArialMT-25" d="M 372 3481 
Q 372 3972 619 4315 
Q 866 4659 1334 4659 
Q 1766 4659 2048 4351 
Q 2331 4044 2331 3447 
Q 2331 2866 2045 2552 
Q 1759 2238 1341 2238 
Q 925 2238 648 2547 
Q 372 2856 372 3481 
z
M 1350 4272 
Q 1141 4272 1002 4090 
Q 863 3909 863 3425 
Q 863 2984 1003 2804 
Q 1144 2625 1350 2625 
Q 1563 2625 1702 2806 
Q 1841 2988 1841 3469 
Q 1841 3913 1700 4092 
Q 1559 4272 1350 4272 
z
M 1353 -169 
L 3859 4659 
L 4316 4659 
L 1819 -169 
L 1353 -169 
z
M 3334 1075 
Q 3334 1569 3581 1911 
Q 3828 2253 4300 2253 
Q 4731 2253 5014 1945 
Q 5297 1638 5297 1041 
Q 5297 459 5011 145 
Q 4725 -169 4303 -169 
Q 3888 -169 3611 142 
Q 3334 453 3334 1075 
z
M 4316 1866 
Q 4103 1866 3964 1684 
Q 3825 1503 3825 1019 
Q 3825 581 3965 400 
Q 4106 219 4313 219 
Q 4528 219 4667 400 
Q 4806 581 4806 1063 
Q 4806 1506 4665 1686 
Q 4525 1866 4316 1866 
z
" transform="scale(0.015625)"/>
      <path id="ArialMT-48" d="M 513 0 
L 513 4581 
L 1119 4581 
L 1119 2700 
L 3500 2700 
L 3500 4581 
L 4106 4581 
L 4106 0 
L 3500 0 
L 3500 2159 
L 1119 2159 
L 1119 0 
L 513 0 
z
" transform="scale(0.015625)"/>
      <path id="ArialMT-44" d="M 494 0 
L 494 4581 
L 2072 4581 
Q 2606 4581 2888 4516 
Q 3281 4425 3559 4188 
Q 3922 3881 4101 3404 
Q 4281 2928 4281 2316 
Q 4281 1794 4159 1391 
Q 4038 988 3847 723 
Q 3656 459 3429 307 
Q 3203 156 2883 78 
Q 2563 0 2147 0 
L 494 0 
z
M 1100 541 
L 2078 541 
Q 2531 541 2789 625 
Q 3047 709 3200 863 
Q 3416 1078 3536 1442 
Q 3656 1806 3656 2325 
Q 3656 3044 3420 3430 
Q 3184 3816 2847 3947 
Q 2603 4041 2063 4041 
L 1100 4041 
L 1100 541 
z
" transform="scale(0.015625)"/>
      <path id="ArialMT-49" d="M 597 0 
L 597 4581 
L 1203 4581 
L 1203 0 
L 597 0 
z
" transform="scale(0.015625)"/>
     </defs>
     <use xlink:href="#ArialMT-39"/>
     <use xlink:href="#ArialMT-34" x="55.615234"/>
     <use xlink:href="#ArialMT-25" x="111.230469"/>
     <use xlink:href="#ArialMT-20" x="200.146484"/>
     <use xlink:href="#ArialMT-48" x="227.929688"/>
     <use xlink:href="#ArialMT-44" x="300.146484"/>
     <use xlink:href="#ArialMT-49" x="372.363281"/>
    </g>
   </g>
   <g id="text_12">
    <!-- mean=8.2 -->
    <g style="fill: #262626" transform="translate(169.041201 85.293375) scale(0.12 -0.12)">
     <defs>
      <path id="ArialMT-6d" d="M 422 0 
L 422 3319 
L 925 3319 
L 925 2853 
Q 1081 3097 1340 3245 
Q 1600 3394 1931 3394 
Q 2300 3394 2536 3241 
Q 2772 3088 2869 2813 
Q 3263 3394 3894 3394 
Q 4388 3394 4653 3120 
Q 4919 2847 4919 2278 
L 4919 0 
L 4359 0 
L 4359 2091 
Q 4359 2428 4304 2576 
Q 4250 2725 4106 2815 
Q 3963 2906 3769 2906 
Q 3419 2906 3187 2673 
Q 2956 2441 2956 1928 
L 2956 0 
L 2394 0 
L 2394 2156 
Q 2394 2531 2256 2718 
Q 2119 2906 1806 2906 
Q 1569 2906 1367 2781 
Q 1166 2656 1075 2415 
Q 984 2175 984 1722 
L 984 0 
L 422 0 
z
" transform="scale(0.015625)"/>
      <path id="ArialMT-65" d="M 2694 1069 
L 3275 997 
Q 3138 488 2766 206 
Q 2394 -75 1816 -75 
Q 1088 -75 661 373 
Q 234 822 234 1631 
Q 234 2469 665 2931 
Q 1097 3394 1784 3394 
Q 2450 3394 2872 2941 
Q 3294 2488 3294 1666 
Q 3294 1616 3291 1516 
L 816 1516 
Q 847 969 1125 678 
Q 1403 388 1819 388 
Q 2128 388 2347 550 
Q 2566 713 2694 1069 
z
M 847 1978 
L 2700 1978 
Q 2663 2397 2488 2606 
Q 2219 2931 1791 2931 
Q 1403 2931 1139 2672 
Q 875 2413 847 1978 
z
" transform="scale(0.015625)"/>
      <path id="ArialMT-61" d="M 2588 409 
Q 2275 144 1986 34 
Q 1697 -75 1366 -75 
Q 819 -75 525 192 
Q 231 459 231 875 
Q 231 1119 342 1320 
Q 453 1522 633 1644 
Q 813 1766 1038 1828 
Q 1203 1872 1538 1913 
Q 2219 1994 2541 2106 
Q 2544 2222 2544 2253 
Q 2544 2597 2384 2738 
Q 2169 2928 1744 2928 
Q 1347 2928 1158 2789 
Q 969 2650 878 2297 
L 328 2372 
Q 403 2725 575 2942 
Q 747 3159 1072 3276 
Q 1397 3394 1825 3394 
Q 2250 3394 2515 3294 
Q 2781 3194 2906 3042 
Q 3031 2891 3081 2659 
Q 3109 2516 3109 2141 
L 3109 1391 
Q 3109 606 3145 398 
Q 3181 191 3288 0 
L 2700 0 
Q 2613 175 2588 409 
z
M 2541 1666 
Q 2234 1541 1622 1453 
Q 1275 1403 1131 1340 
Q 988 1278 909 1158 
Q 831 1038 831 891 
Q 831 666 1001 516 
Q 1172 366 1500 366 
Q 1825 366 2078 508 
Q 2331 650 2450 897 
Q 2541 1088 2541 1459 
L 2541 1666 
z
" transform="scale(0.015625)"/>
      <path id="ArialMT-6e" d="M 422 0 
L 422 3319 
L 928 3319 
L 928 2847 
Q 1294 3394 1984 3394 
Q 2284 3394 2536 3286 
Q 2788 3178 2913 3003 
Q 3038 2828 3088 2588 
Q 3119 2431 3119 2041 
L 3119 0 
L 2556 0 
L 2556 2019 
Q 2556 2363 2490 2533 
Q 2425 2703 2258 2804 
Q 2091 2906 1866 2906 
Q 1506 2906 1245 2678 
Q 984 2450 984 1813 
L 984 0 
L 422 0 
z
" transform="scale(0.015625)"/>
      <path id="ArialMT-3d" d="M 3381 2694 
L 356 2694 
L 356 3219 
L 3381 3219 
L 3381 2694 
z
M 3381 1303 
L 356 1303 
L 356 1828 
L 3381 1828 
L 3381 1303 
z
" transform="scale(0.015625)"/>
      <path id="ArialMT-38" d="M 1131 2484 
Q 781 2613 612 2850 
Q 444 3088 444 3419 
Q 444 3919 803 4259 
Q 1163 4600 1759 4600 
Q 2359 4600 2725 4251 
Q 3091 3903 3091 3403 
Q 3091 3084 2923 2848 
Q 2756 2613 2416 2484 
Q 2838 2347 3058 2040 
Q 3278 1734 3278 1309 
Q 3278 722 2862 322 
Q 2447 -78 1769 -78 
Q 1091 -78 675 323 
Q 259 725 259 1325 
Q 259 1772 486 2073 
Q 713 2375 1131 2484 
z
M 1019 3438 
Q 1019 3113 1228 2906 
Q 1438 2700 1772 2700 
Q 2097 2700 2305 2904 
Q 2513 3109 2513 3406 
Q 2513 3716 2298 3927 
Q 2084 4138 1766 4138 
Q 1444 4138 1231 3931 
Q 1019 3725 1019 3438 
z
M 838 1322 
Q 838 1081 952 856 
Q 1066 631 1291 507 
Q 1516 384 1775 384 
Q 2178 384 2440 643 
Q 2703 903 2703 1303 
Q 2703 1709 2433 1975 
Q 2163 2241 1756 2241 
Q 1359 2241 1098 1978 
Q 838 1716 838 1322 
z
" transform="scale(0.015625)"/>
     </defs>
     <use xlink:href="#ArialMT-6d"/>
     <use xlink:href="#ArialMT-65" x="83.300781"/>
     <use xlink:href="#ArialMT-61" x="138.916016"/>
     <use xlink:href="#ArialMT-6e" x="194.53125"/>
     <use xlink:href="#ArialMT-3d" x="250.146484"/>
     <use xlink:href="#ArialMT-38" x="308.544922"/>
     <use xlink:href="#ArialMT-2e" x="364.160156"/>
     <use xlink:href="#ArialMT-32" x="391.943359"/>
    </g>
   </g>
   <g id="text_13">
    <!-- mu -->
    <g style="fill: #262626" transform="translate(277.865625 15.789375) scale(0.12 -0.12)">
     <defs>
      <path id="ArialMT-75" d="M 2597 0 
L 2597 488 
Q 2209 -75 1544 -75 
Q 1250 -75 995 37 
Q 741 150 617 320 
Q 494 491 444 738 
Q 409 903 409 1263 
L 409 3319 
L 972 3319 
L 972 1478 
Q 972 1038 1006 884 
Q 1059 663 1231 536 
Q 1403 409 1656 409 
Q 1909 409 2131 539 
Q 2353 669 2445 892 
Q 2538 1116 2538 1541 
L 2538 3319 
L 3100 3319 
L 3100 0 
L 2597 0 
z
" transform="scale(0.015625)"/>
     </defs>
     <use xlink:href="#ArialMT-6d"/>
     <use xlink:href="#ArialMT-75" x="83.300781"/>
    </g>
   </g>
  </g>
 </g>
 <defs>
  <clipPath id="pcb01628ca5">
   <rect x="7.2" y="21.789375" width="558" height="332.64"/>
  </clipPath>
 </defs>
</svg>