<?xml version="1.0" encoding="utf-8" standalone="no"?>
<!DOCTYPE svg PUBLIC "-//W3C//DTD SVG 1.1//EN"
  "http://www.w3.org/Graphics/SVG/1.1/DTD/svg11.dtd">
<svg xmlns:xlink="http://www.w3.org/1999/xlink" width="615.225469pt" height="366.599844pt" viewBox="0 0 615.225469 366.599844" xmlns="http://www.w3.org/2000/svg" version="1.1">
 <metadata>
  <rdf:RDF xmlns:dc="http://purl.org/dc/elements/1.1/" xmlns:cc="http://creativecommons.org/ns#" xmlns:rdf="http://www.w3.org/1999/02/22-rdf-syntax-ns#">
   <cc:Work>
    <dc:type rdf:resource="http://purl.org/dc/dcmitype/StillImage"/>
    <dc:date>2023-05-12T13:05:27.853222</dc:date>
    <dc:format>image/svg+xml</dc:format>
    <dc:creator>
     <cc:Agent>
      <dc:title>Matplotlib v3.7.1, https://matplotlib.org/</dc:title>
     </cc:Agent>
    </dc:creator>
   </cc:Work>
  </rdf:RDF>
 </metadata>
 <defs>
  <style type="text/css">*{stroke-linejoin: round; stroke-linecap: butt}</style>
 </defs>
 <g id="figure_1">
  <g id="patch_1">
   <path d="M 0 366.599844 
L 615.225469 366.599844 
L 615.225469 0 
L 0 0 
z
" style="fill: #ffffff"/>
  </g>
  <g id="axes_1">
   <g id="patch_2">
    <path d="M 50.025469 339.84 
L 608.025469 339.84 
L 608.025469 7.2 
L 50.025469 7.2 
z
" style="fill: #eaeaf2"/>
   </g>
   <g id="matplotlib.axis_1">
    <g id="xtick_1">
     <g id="line2d_1">
      <path d="M 75.067392 339.84 
L 75.067392 7.2 
" clip-path="url(#pdba011f556)" style="fill: none; stroke: #ffffff; stroke-linecap: round"/>
     </g>
     <g id="text_1">
      <!-- 0 -->
      <g style="fill: #262626" transform="translate(72.008876 357.213594) scale(0.11 -0.11)">
       <defs>
        <path id="ArialMT-30" d="M 266 2259 
Q 266 3072 433 3567 
Q 600 4063 929 4331 
Q 1259 4600 1759 4600 
Q 2128 4600 2406 4451 
Q 2684 4303 2865 4023 
Q 3047 3744 3150 3342 
Q 3253 2941 3253 2259 
Q 3253 1453 3087 958 
Q 2922 463 2592 192 
Q 2263 -78 1759 -78 
Q 1097 -78 719 397 
Q 266 969 266 2259 
z
M 844 2259 
Q 844 1131 1108 757 
Q 1372 384 1759 384 
Q 2147 384 2411 759 
Q 2675 1134 2675 2259 
Q 2675 3391 2411 3762 
Q 2147 4134 1753 4134 
Q 1366 4134 1134 3806 
Q 844 3388 844 2259 
z
" transform="scale(0.015625)"/>
       </defs>
       <use xlink:href="#ArialMT-30"/>
      </g>
     </g>
    </g>
    <g id="xtick_2">
     <g id="line2d_2">
      <path d="M 147.175858 339.84 
L 147.175858 7.2 
" clip-path="url(#pdba011f556)" style="fill: none; stroke: #ffffff; stroke-linecap: round"/>
     </g>
     <g id="text_2">
      <!-- 250 -->
      <g style="fill: #262626" transform="translate(138.000311 357.213594) scale(0.11 -0.11)">
       <defs>
        <path id="ArialMT-32" d="M 3222 541 
L 3222 0 
L 194 0 
Q 188 203 259 391 
Q 375 700 629 1000 
Q 884 1300 1366 1694 
Q 2113 2306 2375 2664 
Q 2638 3022 2638 3341 
Q 2638 3675 2398 3904 
Q 2159 4134 1775 4134 
Q 1369 4134 1125 3890 
Q 881 3647 878 3216 
L 300 3275 
Q 359 3922 746 4261 
Q 1134 4600 1788 4600 
Q 2447 4600 2831 4234 
Q 3216 3869 3216 3328 
Q 3216 3053 3103 2787 
Q 2991 2522 2730 2228 
Q 2469 1934 1863 1422 
Q 1356 997 1212 845 
Q 1069 694 975 541 
L 3222 541 
z
" transform="scale(0.015625)"/>
        <path id="ArialMT-35" d="M 266 1200 
L 856 1250 
Q 922 819 1161 601 
Q 1400 384 1738 384 
Q 2144 384 2425 690 
Q 2706 997 2706 1503 
Q 2706 1984 2436 2262 
Q 2166 2541 1728 2541 
Q 1456 2541 1237 2417 
Q 1019 2294 894 2097 
L 366 2166 
L 809 4519 
L 3088 4519 
L 3088 3981 
L 1259 3981 
L 1013 2750 
Q 1425 3038 1878 3038 
Q 2478 3038 2890 2622 
Q 3303 2206 3303 1553 
Q 3303 931 2941 478 
Q 2500 -78 1738 -78 
Q 1113 -78 717 272 
Q 322 622 266 1200 
z
" transform="scale(0.015625)"/>
       </defs>
       <use xlink:href="#ArialMT-32"/>
       <use xlink:href="#ArialMT-35" x="55.615234"/>
       <use xlink:href="#ArialMT-30" x="111.230469"/>
      </g>
     </g>
    </g>
    <g id="xtick_3">
     <g id="line2d_3">
      <path d="M 219.284324 339.84 
L 219.284324 7.2 
" clip-path="url(#pdba011f556)" style="fill: none; stroke: #ffffff; stroke-linecap: round"/>
     </g>
     <g id="text_3">
      <!-- 500 -->
      <g style="fill: #262626" transform="translate(210.108777 357.213594) scale(0.11 -0.11)">
       <use xlink:href="#ArialMT-35"/>
       <use xlink:href="#ArialMT-30" x="55.615234"/>
       <use xlink:href="#ArialMT-30" x="111.230469"/>
      </g>
     </g>
    </g>
    <g id="xtick_4">
     <g id="line2d_4">
      <path d="M 291.392791 339.84 
L 291.392791 7.2 
" clip-path="url(#pdba011f556)" style="fill: none; stroke: #ffffff; stroke-linecap: round"/>
     </g>
     <g id="text_4">
      <!-- 750 -->
      <g style="fill: #262626" transform="translate(282.217244 357.213594) scale(0.11 -0.11)">
       <defs>
        <path id="ArialMT-37" d="M 303 3981 
L 303 4522 
L 3269 4522 
L 3269 4084 
Q 2831 3619 2401 2847 
Q 1972 2075 1738 1259 
Q 1569 684 1522 0 
L 944 0 
Q 953 541 1156 1306 
Q 1359 2072 1739 2783 
Q 2119 3494 2547 3981 
L 303 3981 
z
" transform="scale(0.015625)"/>
       </defs>
       <use xlink:href="#ArialMT-37"/>
       <use xlink:href="#ArialMT-35" x="55.615234"/>
       <use xlink:href="#ArialMT-30" x="111.230469"/>
      </g>
     </g>
    </g>
    <g id="xtick_5">
     <g id="line2d_5">
      <path d="M 363.501257 339.84 
L 363.501257 7.2 
" clip-path="url(#pdba011f556)" style="fill: none; stroke: #ffffff; stroke-linecap: round"/>
     </g>
     <g id="text_5">
      <!-- 1000 -->
      <g style="fill: #262626" transform="translate(351.267194 357.213594) scale(0.11 -0.11)">
       <defs>
        <path id="ArialMT-31" d="M 2384 0 
L 1822 0 
L 1822 3584 
Q 1619 3391 1289 3197 
Q 959 3003 697 2906 
L 697 3450 
Q 1169 3672 1522 3987 
Q 1875 4303 2022 4600 
L 2384 4600 
L 2384 0 
z
" transform="scale(0.015625)"/>
       </defs>
       <use xlink:href="#ArialMT-31"/>
       <use xlink:href="#ArialMT-30" x="55.615234"/>
       <use xlink:href="#ArialMT-30" x="111.230469"/>
       <use xlink:href="#ArialMT-30" x="166.845703"/>
      </g>
     </g>
    </g>
    <g id="xtick_6">
     <g id="line2d_6">
      <path d="M 435.609723 339.84 
L 435.609723 7.2 
" clip-path="url(#pdba011f556)" style="fill: none; stroke: #ffffff; stroke-linecap: round"/>
     </g>
     <g id="text_6">
      <!-- 1250 -->
      <g style="fill: #262626" transform="translate(423.37566 357.213594) scale(0.11 -0.11)">
       <use xlink:href="#ArialMT-31"/>
       <use xlink:href="#ArialMT-32" x="55.615234"/>
       <use xlink:href="#ArialMT-35" x="111.230469"/>
       <use xlink:href="#ArialMT-30" x="166.845703"/>
      </g>
     </g>
    </g>
    <g id="xtick_7">
     <g id="line2d_7">
      <path d="M 507.718189 339.84 
L 507.718189 7.2 
" clip-path="url(#pdba011f556)" style="fill: none; stroke: #ffffff; stroke-linecap: round"/>
     </g>
     <g id="text_7">
      <!-- 1500 -->
      <g style="fill: #262626" transform="translate(495.484127 357.213594) scale(0.11 -0.11)">
       <use xlink:href="#ArialMT-31"/>
       <use xlink:href="#ArialMT-35" x="55.615234"/>
       <use xlink:href="#ArialMT-30" x="111.230469"/>
       <use xlink:href="#ArialMT-30" x="166.845703"/>
      </g>
     </g>
    </g>
    <g id="xtick_8">
     <g id="line2d_8">
      <path d="M 579.826655 339.84 
L 579.826655 7.2 
" clip-path="url(#pdba011f556)" style="fill: none; stroke: #ffffff; stroke-linecap: round"/>
     </g>
     <g id="text_8">
      <!-- 1750 -->
      <g style="fill: #262626" transform="translate(567.592593 357.213594) scale(0.11 -0.11)">
       <use xlink:href="#ArialMT-31"/>
       <use xlink:href="#ArialMT-37" x="55.615234"/>
       <use xlink:href="#ArialMT-35" x="111.230469"/>
       <use xlink:href="#ArialMT-30" x="166.845703"/>
      </g>
     </g>
    </g>
   </g>
   <g id="matplotlib.axis_2">
    <g id="ytick_1">
     <g id="line2d_9">
      <path d="M 50.025469 339.84 
L 608.025469 339.84 
" clip-path="url(#pdba011f556)" style="fill: none; stroke: #ffffff; stroke-linecap: round"/>
     </g>
     <g id="text_9">
      <!-- 0 -->
      <g style="fill: #262626" transform="translate(34.408438 343.776797) scale(0.11 -0.11)">
       <use xlink:href="#ArialMT-30"/>
      </g>
     </g>
    </g>
    <g id="ytick_2">
     <g id="line2d_10">
      <path d="M 50.025469 287.990573 
L 608.025469 287.990573 
" clip-path="url(#pdba011f556)" style="fill: none; stroke: #ffffff; stroke-linecap: round"/>
     </g>
     <g id="text_10">
      <!-- 100 -->
      <g style="fill: #262626" transform="translate(22.174375 291.92737) scale(0.11 -0.11)">
       <use xlink:href="#ArialMT-31"/>
       <use xlink:href="#ArialMT-30" x="55.615234"/>
       <use xlink:href="#ArialMT-30" x="111.230469"/>
      </g>
     </g>
    </g>
    <g id="ytick_3">
     <g id="line2d_11">
      <path d="M 50.025469 236.141146 
L 608.025469 236.141146 
" clip-path="url(#pdba011f556)" style="fill: none; stroke: #ffffff; stroke-linecap: round"/>
     </g>
     <g id="text_11">
      <!-- 200 -->
      <g style="fill: #262626" transform="translate(22.174375 240.077943) scale(0.11 -0.11)">
       <use xlink:href="#ArialMT-32"/>
       <use xlink:href="#ArialMT-30" x="55.615234"/>
       <use xlink:href="#ArialMT-30" x="111.230469"/>
      </g>
     </g>
    </g>
    <g id="ytick_4">
     <g id="line2d_12">
      <path d="M 50.025469 184.291718 
L 608.025469 184.291718 
" clip-path="url(#pdba011f556)" style="fill: none; stroke: #ffffff; stroke-linecap: round"/>
     </g>
     <g id="text_12">
      <!-- 300 -->
      <g style="fill: #262626" transform="translate(22.174375 188.228515) scale(0.11 -0.11)">
       <defs>
        <path id="ArialMT-33" d="M 269 1209 
L 831 1284 
Q 928 806 1161 595 
Q 1394 384 1728 384 
Q 2125 384 2398 659 
Q 2672 934 2672 1341 
Q 2672 1728 2419 1979 
Q 2166 2231 1775 2231 
Q 1616 2231 1378 2169 
L 1441 2663 
Q 1497 2656 1531 2656 
Q 1891 2656 2178 2843 
Q 2466 3031 2466 3422 
Q 2466 3731 2256 3934 
Q 2047 4138 1716 4138 
Q 1388 4138 1169 3931 
Q 950 3725 888 3313 
L 325 3413 
Q 428 3978 793 4289 
Q 1159 4600 1703 4600 
Q 2078 4600 2393 4439 
Q 2709 4278 2876 4000 
Q 3044 3722 3044 3409 
Q 3044 3113 2884 2869 
Q 2725 2625 2413 2481 
Q 2819 2388 3044 2092 
Q 3269 1797 3269 1353 
Q 3269 753 2831 336 
Q 2394 -81 1725 -81 
Q 1122 -81 723 278 
Q 325 638 269 1209 
z
" transform="scale(0.015625)"/>
       </defs>
       <use xlink:href="#ArialMT-33"/>
       <use xlink:href="#ArialMT-30" x="55.615234"/>
       <use xlink:href="#ArialMT-30" x="111.230469"/>
      </g>
     </g>
    </g>
    <g id="ytick_5">
     <g id="line2d_13">
      <path d="M 50.025469 132.442291 
L 608.025469 132.442291 
" clip-path="url(#pdba011f556)" style="fill: none; stroke: #ffffff; stroke-linecap: round"/>
     </g>
     <g id="text_13">
      <!-- 400 -->
      <g style="fill: #262626" transform="translate(22.174375 136.379088) scale(0.11 -0.11)">
       <defs>
        <path id="ArialMT-34" d="M 2069 0 
L 2069 1097 
L 81 1097 
L 81 1613 
L 2172 4581 
L 2631 4581 
L 2631 1613 
L 3250 1613 
L 3250 1097 
L 2631 1097 
L 2631 0 
L 2069 0 
z
M 2069 1613 
L 2069 3678 
L 634 1613 
L 2069 1613 
z
" transform="scale(0.015625)"/>
       </defs>
       <use xlink:href="#ArialMT-34"/>
       <use xlink:href="#ArialMT-30" x="55.615234"/>
       <use xlink:href="#ArialMT-30" x="111.230469"/>
      </g>
     </g>
    </g>
    <g id="ytick_6">
     <g id="line2d_14">
      <path d="M 50.025469 80.592864 
L 608.025469 80.592864 
" clip-path="url(#pdba011f556)" style="fill: none; stroke: #ffffff; stroke-linecap: round"/>
     </g>
     <g id="text_14">
      <!-- 500 -->
      <g style="fill: #262626" transform="translate(22.174375 84.529661) scale(0.11 -0.11)">
       <use xlink:href="#ArialMT-35"/>
       <use xlink:href="#ArialMT-30" x="55.615234"/>
       <use xlink:href="#ArialMT-30" x="111.230469"/>
      </g>
     </g>
    </g>
    <g id="ytick_7">
     <g id="line2d_15">
      <path d="M 50.025469 28.743437 
L 608.025469 28.743437 
" clip-path="url(#pdba011f556)" style="fill: none; stroke: #ffffff; stroke-linecap: round"/>
     </g>
     <g id="text_15">
      <!-- 600 -->
      <g style="fill: #262626" transform="translate(22.174375 32.680234) scale(0.11 -0.11)">
       <defs>
        <path id="ArialMT-36" d="M 3184 3459 
L 2625 3416 
Q 2550 3747 2413 3897 
Q 2184 4138 1850 4138 
Q 1581 4138 1378 3988 
Q 1113 3794 959 3422 
Q 806 3050 800 2363 
Q 1003 2672 1297 2822 
Q 1591 2972 1913 2972 
Q 2475 2972 2870 2558 
Q 3266 2144 3266 1488 
Q 3266 1056 3080 686 
Q 2894 316 2569 119 
Q 2244 -78 1831 -78 
Q 1128 -78 684 439 
Q 241 956 241 2144 
Q 241 3472 731 4075 
Q 1159 4600 1884 4600 
Q 2425 4600 2770 4297 
Q 3116 3994 3184 3459 
z
M 888 1484 
Q 888 1194 1011 928 
Q 1134 663 1356 523 
Q 1578 384 1822 384 
Q 2178 384 2434 671 
Q 2691 959 2691 1453 
Q 2691 1928 2437 2201 
Q 2184 2475 1800 2475 
Q 1419 2475 1153 2201 
Q 888 1928 888 1484 
z
" transform="scale(0.015625)"/>
       </defs>
       <use xlink:href="#ArialMT-36"/>
       <use xlink:href="#ArialMT-30" x="55.615234"/>
       <use xlink:href="#ArialMT-30" x="111.230469"/>
      </g>
     </g>
    </g>
    <g id="text_16">
     <!-- Count -->
     <g style="fill: #262626" transform="translate(15.789375 189.529687) rotate(-90) scale(0.12 -0.12)">
      <defs>
       <path id="ArialMT-43" d="M 3763 1606 
L 4369 1453 
Q 4178 706 3683 314 
Q 3188 -78 2472 -78 
Q 1731 -78 1267 223 
Q 803 525 561 1097 
Q 319 1669 319 2325 
Q 319 3041 592 3573 
Q 866 4106 1370 4382 
Q 1875 4659 2481 4659 
Q 3169 4659 3637 4309 
Q 4106 3959 4291 3325 
L 3694 3184 
Q 3534 3684 3231 3912 
Q 2928 4141 2469 4141 
Q 1941 4141 1586 3887 
Q 1231 3634 1087 3207 
Q 944 2781 944 2328 
Q 944 1744 1114 1308 
Q 1284 872 1643 656 
Q 2003 441 2422 441 
Q 2931 441 3284 734 
Q 3638 1028 3763 1606 
z
" transform="scale(0.015625)"/>
       <path id="ArialMT-6f" d="M 213 1659 
Q 213 2581 725 3025 
Q 1153 3394 1769 3394 
Q 2453 3394 2887 2945 
Q 3322 2497 3322 1706 
Q 3322 1066 3130 698 
Q 2938 331 2570 128 
Q 2203 -75 1769 -75 
Q 1072 -75 642 372 
Q 213 819 213 1659 
z
M 791 1659 
Q 791 1022 1069 705 
Q 1347 388 1769 388 
Q 2188 388 2466 706 
Q 2744 1025 2744 1678 
Q 2744 2294 2464 2611 
Q 2184 2928 1769 2928 
Q 1347 2928 1069 2612 
Q 791 2297 791 1659 
z
" transform="scale(0.015625)"/>
       <path id="ArialMT-75" d="M 2597 0 
L 2597 488 
Q 2209 -75 1544 -75 
Q 1250 -75 995 37 
Q 741 150 617 320 
Q 494 491 444 738 
Q 409 903 409 1263 
L 409 3319 
L 972 3319 
L 972 1478 
Q 972 1038 1006 884 
Q 1059 663 1231 536 
Q 1403 409 1656 409 
Q 1909 409 2131 539 
Q 2353 669 2445 892 
Q 2538 1116 2538 1541 
L 2538 3319 
L 3100 3319 
L 3100 0 
L 2597 0 
z
" transform="scale(0.015625)"/>
       <path id="ArialMT-6e" d="M 422 0 
L 422 3319 
L 928 3319 
L 928 2847 
Q 1294 3394 1984 3394 
Q 2284 3394 2536 3286 
Q 2788 3178 2913 3003 
Q 3038 2828 3088 2588 
Q 3119 2431 3119 2041 
L 3119 0 
L 2556 0 
L 2556 2019 
Q 2556 2363 2490 2533 
Q 2425 2703 2258 2804 
Q 2091 2906 1866 2906 
Q 1506 2906 1245 2678 
Q 984 2450 984 1813 
L 984 0 
L 422 0 
z
" transform="scale(0.015625)"/>
       <path id="ArialMT-74" d="M 1650 503 
L 1731 6 
Q 1494 -44 1306 -44 
Q 1000 -44 831 53 
Q 663 150 594 308 
Q 525 466 525 972 
L 525 2881 
L 113 2881 
L 113 3319 
L 525 3319 
L 525 4141 
L 1084 4478 
L 1084 3319 
L 1650 3319 
L 1650 2881 
L 1084 2881 
L 1084 941 
Q 1084 700 1114 631 
Q 1144 563 1211 522 
Q 1278 481 1403 481 
Q 1497 481 1650 503 
z
" transform="scale(0.015625)"/>
      </defs>
      <use xlink:href="#ArialMT-43"/>
      <use xlink:href="#ArialMT-6f" x="72.216797"/>
      <use xlink:href="#ArialMT-75" x="127.832031"/>
      <use xlink:href="#ArialMT-6e" x="183.447266"/>
      <use xlink:href="#ArialMT-74" x="239.0625"/>
     </g>
    </g>
   </g>
   <g id="patch_3">
    <path d="M 75.389105 339.84 
L 80.513072 339.84 
L 80.513072 272.435745 
L 75.389105 272.435745 
z
" clip-path="url(#pdba011f556)" style="fill: #0173b2; fill-opacity: 0.75; stroke: #ffffff; stroke-width: 0.512397; stroke-linejoin: miter"/>
   </g>
   <g id="patch_4">
    <path d="M 80.513072 339.84 
L 85.637039 339.84 
L 85.637039 179.106776 
L 80.513072 179.106776 
z
" clip-path="url(#pdba011f556)" style="fill: #0173b2; fill-opacity: 0.75; stroke: #ffffff; stroke-width: 0.512397; stroke-linejoin: miter"/>
   </g>
   <g id="patch_5">
    <path d="M 85.637039 339.84 
L 90.761006 339.84 
L 90.761006 116.368969 
L 85.637039 116.368969 
z
" clip-path="url(#pdba011f556)" style="fill: #0173b2; fill-opacity: 0.75; stroke: #ffffff; stroke-width: 0.512397; stroke-linejoin: miter"/>
   </g>
   <g id="patch_6">
    <path d="M 90.761006 339.84 
L 95.884973 339.84 
L 95.884973 84.222324 
L 90.761006 84.222324 
z
" clip-path="url(#pdba011f556)" style="fill: #0173b2; fill-opacity: 0.75; stroke: #ffffff; stroke-width: 0.512397; stroke-linejoin: miter"/>
   </g>
   <g id="patch_7">
    <path d="M 95.884973 339.84 
L 101.00894 339.84 
L 101.00894 67.630507 
L 95.884973 67.630507 
z
" clip-path="url(#pdba011f556)" style="fill: #0173b2; fill-opacity: 0.75; stroke: #ffffff; stroke-width: 0.512397; stroke-linejoin: miter"/>
   </g>
   <g id="patch_8">
    <path d="M 101.00894 339.84 
L 106.132907 339.84 
L 106.132907 42.742782 
L 101.00894 42.742782 
z
" clip-path="url(#pdba011f556)" style="fill: #0173b2; fill-opacity: 0.75; stroke: #ffffff; stroke-width: 0.512397; stroke-linejoin: miter"/>
   </g>
   <g id="patch_9">
    <path d="M 106.132907 339.84 
L 111.256874 339.84 
L 111.256874 23.04 
L 106.132907 23.04 
z
" clip-path="url(#pdba011f556)" style="fill: #0173b2; fill-opacity: 0.75; stroke: #ffffff; stroke-width: 0.512397; stroke-linejoin: miter"/>
   </g>
   <g id="patch_10">
    <path d="M 111.256874 339.84 
L 116.380841 339.84 
L 116.380841 49.483208 
L 111.256874 49.483208 
z
" clip-path="url(#pdba011f556)" style="fill: #0173b2; fill-opacity: 0.75; stroke: #ffffff; stroke-width: 0.512397; stroke-linejoin: miter"/>
   </g>
   <g id="patch_11">
    <path d="M 116.380841 339.84 
L 121.504808 339.84 
L 121.504808 50.520196 
L 116.380841 50.520196 
z
" clip-path="url(#pdba011f556)" style="fill: #0173b2; fill-opacity: 0.75; stroke: #ffffff; stroke-width: 0.512397; stroke-linejoin: miter"/>
   </g>
   <g id="patch_12">
    <path d="M 121.504808 339.84 
L 126.628775 339.84 
L 126.628775 64.519542 
L 121.504808 64.519542 
z
" clip-path="url(#pdba011f556)" style="fill: #0173b2; fill-opacity: 0.75; stroke: #ffffff; stroke-width: 0.512397; stroke-linejoin: miter"/>
   </g>
   <g id="patch_13">
    <path d="M 126.628775 339.84 
L 131.752741 339.84 
L 131.752741 64.519542 
L 126.628775 64.519542 
z
" clip-path="url(#pdba011f556)" style="fill: #0173b2; fill-opacity: 0.75; stroke: #ffffff; stroke-width: 0.512397; stroke-linejoin: miter"/>
   </g>
   <g id="patch_14">
    <path d="M 131.752741 339.84 
L 136.876708 339.84 
L 136.876708 115.850475 
L 131.752741 115.850475 
z
" clip-path="url(#pdba011f556)" style="fill: #0173b2; fill-opacity: 0.75; stroke: #ffffff; stroke-width: 0.512397; stroke-linejoin: miter"/>
   </g>
   <g id="patch_15">
    <path d="M 136.876708 339.84 
L 142.000675 339.84 
L 142.000675 127.257349 
L 136.876708 127.257349 
z
" clip-path="url(#pdba011f556)" style="fill: #0173b2; fill-opacity: 0.75; stroke: #ffffff; stroke-width: 0.512397; stroke-linejoin: miter"/>
   </g>
   <g id="patch_16">
    <path d="M 142.000675 339.84 
L 147.124642 339.84 
L 147.124642 126.22036 
L 142.000675 126.22036 
z
" clip-path="url(#pdba011f556)" style="fill: #0173b2; fill-opacity: 0.75; stroke: #ffffff; stroke-width: 0.512397; stroke-linejoin: miter"/>
   </g>
   <g id="patch_17">
    <path d="M 147.124642 339.84 
L 152.248609 339.84 
L 152.248609 147.997119 
L 147.124642 147.997119 
z
" clip-path="url(#pdba011f556)" style="fill: #0173b2; fill-opacity: 0.75; stroke: #ffffff; stroke-width: 0.512397; stroke-linejoin: miter"/>
   </g>
   <g id="patch_18">
    <path d="M 152.248609 339.84 
L 157.372576 339.84 
L 157.372576 171.847856 
L 152.248609 171.847856 
z
" clip-path="url(#pdba011f556)" style="fill: #0173b2; fill-opacity: 0.75; stroke: #ffffff; stroke-width: 0.512397; stroke-linejoin: miter"/>
   </g>
   <g id="patch_19">
    <path d="M 157.372576 339.84 
L 162.496543 339.84 
L 162.496543 170.292373 
L 157.372576 170.292373 
z
" clip-path="url(#pdba011f556)" style="fill: #0173b2; fill-opacity: 0.75; stroke: #ffffff; stroke-width: 0.512397; stroke-linejoin: miter"/>
   </g>
   <g id="patch_20">
    <path d="M 162.496543 339.84 
L 167.62051 339.84 
L 167.62051 181.180753 
L 162.496543 181.180753 
z
" clip-path="url(#pdba011f556)" style="fill: #0173b2; fill-opacity: 0.75; stroke: #ffffff; stroke-width: 0.512397; stroke-linejoin: miter"/>
   </g>
   <g id="patch_21">
    <path d="M 167.62051 339.84 
L 172.744477 339.84 
L 172.744477 231.993191 
L 167.62051 231.993191 
z
" clip-path="url(#pdba011f556)" style="fill: #0173b2; fill-opacity: 0.75; stroke: #ffffff; stroke-width: 0.512397; stroke-linejoin: miter"/>
   </g>
   <g id="patch_22">
    <path d="M 172.744477 339.84 
L 177.868444 339.84 
L 177.868444 220.586318 
L 172.744477 220.586318 
z
" clip-path="url(#pdba011f556)" style="fill: #0173b2; fill-opacity: 0.75; stroke: #ffffff; stroke-width: 0.512397; stroke-linejoin: miter"/>
   </g>
   <g id="patch_23">
    <path d="M 177.868444 339.84 
L 182.992411 339.84 
L 182.992411 232.511686 
L 177.868444 232.511686 
z
" clip-path="url(#pdba011f556)" style="fill: #0173b2; fill-opacity: 0.75; stroke: #ffffff; stroke-width: 0.512397; stroke-linejoin: miter"/>
   </g>
   <g id="patch_24">
    <path d="M 182.992411 339.84 
L 188.116378 339.84 
L 188.116378 256.880917 
L 182.992411 256.880917 
z
" clip-path="url(#pdba011f556)" style="fill: #0173b2; fill-opacity: 0.75; stroke: #ffffff; stroke-width: 0.512397; stroke-linejoin: miter"/>
   </g>
   <g id="patch_25">
    <path d="M 188.116378 339.84 
L 193.240345 339.84 
L 193.240345 253.769951 
L 188.116378 253.769951 
z
" clip-path="url(#pdba011f556)" style="fill: #0173b2; fill-opacity: 0.75; stroke: #ffffff; stroke-width: 0.512397; stroke-linejoin: miter"/>
   </g>
   <g id="patch_26">
    <path d="M 193.240345 339.84 
L 198.364312 339.84 
L 198.364312 270.361768 
L 193.240345 270.361768 
z
" clip-path="url(#pdba011f556)" style="fill: #0173b2; fill-opacity: 0.75; stroke: #ffffff; stroke-width: 0.512397; stroke-linejoin: miter"/>
   </g>
   <g id="patch_27">
    <path d="M 198.364312 339.84 
L 203.488279 339.84 
L 203.488279 271.91725 
L 198.364312 271.91725 
z
" clip-path="url(#pdba011f556)" style="fill: #0173b2; fill-opacity: 0.75; stroke: #ffffff; stroke-width: 0.512397; stroke-linejoin: miter"/>
   </g>
   <g id="patch_28">
    <path d="M 203.488279 339.84 
L 208.612246 339.84 
L 208.612246 275.028216 
L 203.488279 275.028216 
z
" clip-path="url(#pdba011f556)" style="fill: #0173b2; fill-opacity: 0.75; stroke: #ffffff; stroke-width: 0.512397; stroke-linejoin: miter"/>
   </g>
   <g id="patch_29">
    <path d="M 208.612246 339.84 
L 213.736213 339.84 
L 213.736213 291.620033 
L 208.612246 291.620033 
z
" clip-path="url(#pdba011f556)" style="fill: #0173b2; fill-opacity: 0.75; stroke: #ffffff; stroke-width: 0.512397; stroke-linejoin: miter"/>
   </g>
   <g id="patch_30">
    <path d="M 213.736213 339.84 
L 218.860179 339.84 
L 218.860179 291.101538 
L 213.736213 291.101538 
z
" clip-path="url(#pdba011f556)" style="fill: #0173b2; fill-opacity: 0.75; stroke: #ffffff; stroke-width: 0.512397; stroke-linejoin: miter"/>
   </g>
   <g id="patch_31">
    <path d="M 218.860179 339.84 
L 223.984146 339.84 
L 223.984146 296.804975 
L 218.860179 296.804975 
z
" clip-path="url(#pdba011f556)" style="fill: #0173b2; fill-opacity: 0.75; stroke: #ffffff; stroke-width: 0.512397; stroke-linejoin: miter"/>
   </g>
   <g id="patch_32">
    <path d="M 223.984146 339.84 
L 229.108113 339.84 
L 229.108113 311.841309 
L 223.984146 311.841309 
z
" clip-path="url(#pdba011f556)" style="fill: #0173b2; fill-opacity: 0.75; stroke: #ffffff; stroke-width: 0.512397; stroke-linejoin: miter"/>
   </g>
   <g id="patch_33">
    <path d="M 229.108113 339.84 
L 234.23208 339.84 
L 234.23208 303.026907 
L 229.108113 303.026907 
z
" clip-path="url(#pdba011f556)" style="fill: #0173b2; fill-opacity: 0.75; stroke: #ffffff; stroke-width: 0.512397; stroke-linejoin: miter"/>
   </g>
   <g id="patch_34">
    <path d="M 234.23208 339.84 
L 239.356047 339.84 
L 239.356047 318.063241 
L 234.23208 318.063241 
z
" clip-path="url(#pdba011f556)" style="fill: #0173b2; fill-opacity: 0.75; stroke: #ffffff; stroke-width: 0.512397; stroke-linejoin: miter"/>
   </g>
   <g id="patch_35">
    <path d="M 239.356047 339.84 
L 244.480014 339.84 
L 244.480014 316.507758 
L 239.356047 316.507758 
z
" clip-path="url(#pdba011f556)" style="fill: #0173b2; fill-opacity: 0.75; stroke: #ffffff; stroke-width: 0.512397; stroke-linejoin: miter"/>
   </g>
   <g id="patch_36">
    <path d="M 244.480014 339.84 
L 249.603981 339.84 
L 249.603981 319.618723 
L 244.480014 319.618723 
z
" clip-path="url(#pdba011f556)" style="fill: #0173b2; fill-opacity: 0.75; stroke: #ffffff; stroke-width: 0.512397; stroke-linejoin: miter"/>
   </g>
   <g id="patch_37">
    <path d="M 249.603981 339.84 
L 254.727948 339.84 
L 254.727948 318.581735 
L 249.603981 318.581735 
z
" clip-path="url(#pdba011f556)" style="fill: #0173b2; fill-opacity: 0.75; stroke: #ffffff; stroke-width: 0.512397; stroke-linejoin: miter"/>
   </g>
   <g id="patch_38">
    <path d="M 254.727948 339.84 
L 259.851915 339.84 
L 259.851915 324.803666 
L 254.727948 324.803666 
z
" clip-path="url(#pdba011f556)" style="fill: #0173b2; fill-opacity: 0.75; stroke: #ffffff; stroke-width: 0.512397; stroke-linejoin: miter"/>
   </g>
   <g id="patch_39">
    <path d="M 259.851915 339.84 
L 264.975882 339.84 
L 264.975882 324.285172 
L 259.851915 324.285172 
z
" clip-path="url(#pdba011f556)" style="fill: #0173b2; fill-opacity: 0.75; stroke: #ffffff; stroke-width: 0.512397; stroke-linejoin: miter"/>
   </g>
   <g id="patch_40">
    <path d="M 264.975882 339.84 
L 270.099849 339.84 
L 270.099849 329.988609 
L 264.975882 329.988609 
z
" clip-path="url(#pdba011f556)" style="fill: #0173b2; fill-opacity: 0.75; stroke: #ffffff; stroke-width: 0.512397; stroke-linejoin: miter"/>
   </g>
   <g id="patch_41">
    <path d="M 270.099849 339.84 
L 275.223816 339.84 
L 275.223816 328.95162 
L 270.099849 328.95162 
z
" clip-path="url(#pdba011f556)" style="fill: #0173b2; fill-opacity: 0.75; stroke: #ffffff; stroke-width: 0.512397; stroke-linejoin: miter"/>
   </g>
   <g id="patch_42">
    <path d="M 275.223816 339.84 
L 280.347783 339.84 
L 280.347783 331.025597 
L 275.223816 331.025597 
z
" clip-path="url(#pdba011f556)" style="fill: #0173b2; fill-opacity: 0.75; stroke: #ffffff; stroke-width: 0.512397; stroke-linejoin: miter"/>
   </g>
   <g id="patch_43">
    <path d="M 280.347783 339.84 
L 285.47175 339.84 
L 285.47175 334.655057 
L 280.347783 334.655057 
z
" clip-path="url(#pdba011f556)" style="fill: #0173b2; fill-opacity: 0.75; stroke: #ffffff; stroke-width: 0.512397; stroke-linejoin: miter"/>
   </g>
   <g id="patch_44">
    <path d="M 285.47175 339.84 
L 290.595717 339.84 
L 290.595717 335.173552 
L 285.47175 335.173552 
z
" clip-path="url(#pdba011f556)" style="fill: #0173b2; fill-opacity: 0.75; stroke: #ffffff; stroke-width: 0.512397; stroke-linejoin: miter"/>
   </g>
   <g id="patch_45">
    <path d="M 290.595717 339.84 
L 295.719684 339.84 
L 295.719684 332.58108 
L 290.595717 332.58108 
z
" clip-path="url(#pdba011f556)" style="fill: #0173b2; fill-opacity: 0.75; stroke: #ffffff; stroke-width: 0.512397; stroke-linejoin: miter"/>
   </g>
   <g id="patch_46">
    <path d="M 295.719684 339.84 
L 300.843651 339.84 
L 300.843651 329.988609 
L 295.719684 329.988609 
z
" clip-path="url(#pdba011f556)" style="fill: #0173b2; fill-opacity: 0.75; stroke: #ffffff; stroke-width: 0.512397; stroke-linejoin: miter"/>
   </g>
   <g id="patch_47">
    <path d="M 300.843651 339.84 
L 305.967618 339.84 
L 305.967618 335.173552 
L 300.843651 335.173552 
z
" clip-path="url(#pdba011f556)" style="fill: #0173b2; fill-opacity: 0.75; stroke: #ffffff; stroke-width: 0.512397; stroke-linejoin: miter"/>
   </g>
   <g id="patch_48">
    <path d="M 305.967618 339.84 
L 311.091584 339.84 
L 311.091584 332.062586 
L 305.967618 332.062586 
z
" clip-path="url(#pdba011f556)" style="fill: #0173b2; fill-opacity: 0.75; stroke: #ffffff; stroke-width: 0.512397; stroke-linejoin: miter"/>
   </g>
   <g id="patch_49">
    <path d="M 311.091584 339.84 
L 316.215551 339.84 
L 316.215551 337.766023 
L 311.091584 337.766023 
z
" clip-path="url(#pdba011f556)" style="fill: #0173b2; fill-opacity: 0.75; stroke: #ffffff; stroke-width: 0.512397; stroke-linejoin: miter"/>
   </g>
   <g id="patch_50">
    <path d="M 316.215551 339.84 
L 321.339518 339.84 
L 321.339518 336.729034 
L 316.215551 336.729034 
z
" clip-path="url(#pdba011f556)" style="fill: #0173b2; fill-opacity: 0.75; stroke: #ffffff; stroke-width: 0.512397; stroke-linejoin: miter"/>
   </g>
   <g id="patch_51">
    <path d="M 321.339518 339.84 
L 326.463485 339.84 
L 326.463485 335.692046 
L 321.339518 335.692046 
z
" clip-path="url(#pdba011f556)" style="fill: #0173b2; fill-opacity: 0.75; stroke: #ffffff; stroke-width: 0.512397; stroke-linejoin: miter"/>
   </g>
   <g id="patch_52">
    <path d="M 326.463485 339.84 
L 331.587452 339.84 
L 331.587452 337.247529 
L 326.463485 337.247529 
z
" clip-path="url(#pdba011f556)" style="fill: #0173b2; fill-opacity: 0.75; stroke: #ffffff; stroke-width: 0.512397; stroke-linejoin: miter"/>
   </g>
   <g id="patch_53">
    <path d="M 331.587452 339.84 
L 336.711419 339.84 
L 336.711419 338.284517 
L 331.587452 338.284517 
z
" clip-path="url(#pdba011f556)" style="fill: #0173b2; fill-opacity: 0.75; stroke: #ffffff; stroke-width: 0.512397; stroke-linejoin: miter"/>
   </g>
   <g id="patch_54">
    <path d="M 336.711419 339.84 
L 341.835386 339.84 
L 341.835386 338.803011 
L 336.711419 338.803011 
z
" clip-path="url(#pdba011f556)" style="fill: #0173b2; fill-opacity: 0.75; stroke: #ffffff; stroke-width: 0.512397; stroke-linejoin: miter"/>
   </g>
   <g id="patch_55">
    <path d="M 341.835386 339.84 
L 346.959353 339.84 
L 346.959353 338.803011 
L 341.835386 338.803011 
z
" clip-path="url(#pdba011f556)" style="fill: #0173b2; fill-opacity: 0.75; stroke: #ffffff; stroke-width: 0.512397; stroke-linejoin: miter"/>
   </g>
   <g id="patch_56">
    <path d="M 346.959353 339.84 
L 352.08332 339.84 
L 352.08332 339.84 
L 346.959353 339.84 
z
" clip-path="url(#pdba011f556)" style="fill: #0173b2; fill-opacity: 0.75; stroke: #ffffff; stroke-width: 0.512397; stroke-linejoin: miter"/>
   </g>
   <g id="patch_57">
    <path d="M 352.08332 339.84 
L 357.207287 339.84 
L 357.207287 338.284517 
L 352.08332 338.284517 
z
" clip-path="url(#pdba011f556)" style="fill: #0173b2; fill-opacity: 0.75; stroke: #ffffff; stroke-width: 0.512397; stroke-linejoin: miter"/>
   </g>
   <g id="patch_58">
    <path d="M 357.207287 339.84 
L 362.331254 339.84 
L 362.331254 338.803011 
L 357.207287 338.803011 
z
" clip-path="url(#pdba011f556)" style="fill: #0173b2; fill-opacity: 0.75; stroke: #ffffff; stroke-width: 0.512397; stroke-linejoin: miter"/>
   </g>
   <g id="patch_59">
    <path d="M 362.331254 339.84 
L 367.455221 339.84 
L 367.455221 339.321506 
L 362.331254 339.321506 
z
" clip-path="url(#pdba011f556)" style="fill: #0173b2; fill-opacity: 0.75; stroke: #ffffff; stroke-width: 0.512397; stroke-linejoin: miter"/>
   </g>
   <g id="patch_60">
    <path d="M 367.455221 339.84 
L 372.579188 339.84 
L 372.579188 339.321506 
L 367.455221 339.321506 
z
" clip-path="url(#pdba011f556)" style="fill: #0173b2; fill-opacity: 0.75; stroke: #ffffff; stroke-width: 0.512397; stroke-linejoin: miter"/>
   </g>
   <g id="patch_61">
    <path d="M 372.579188 339.84 
L 377.703155 339.84 
L 377.703155 339.321506 
L 372.579188 339.321506 
z
" clip-path="url(#pdba011f556)" style="fill: #0173b2; fill-opacity: 0.75; stroke: #ffffff; stroke-width: 0.512397; stroke-linejoin: miter"/>
   </g>
   <g id="patch_62">
    <path d="M 377.703155 339.84 
L 382.827122 339.84 
L 382.827122 339.84 
L 377.703155 339.84 
z
" clip-path="url(#pdba011f556)" style="fill: #0173b2; fill-opacity: 0.75; stroke: #ffffff; stroke-width: 0.512397; stroke-linejoin: miter"/>
   </g>
   <g id="patch_63">
    <path d="M 382.827122 339.84 
L 387.951089 339.84 
L 387.951089 339.84 
L 382.827122 339.84 
z
" clip-path="url(#pdba011f556)" style="fill: #0173b2; fill-opacity: 0.75; stroke: #ffffff; stroke-width: 0.512397; stroke-linejoin: miter"/>
   </g>
   <g id="patch_64">
    <path d="M 387.951089 339.84 
L 393.075056 339.84 
L 393.075056 338.803011 
L 387.951089 338.803011 
z
" clip-path="url(#pdba011f556)" style="fill: #0173b2; fill-opacity: 0.75; stroke: #ffffff; stroke-width: 0.512397; stroke-linejoin: miter"/>
   </g>
   <g id="patch_65">
    <path d="M 393.075056 339.84 
L 398.199022 339.84 
L 398.199022 339.321506 
L 393.075056 339.321506 
z
" clip-path="url(#pdba011f556)" style="fill: #0173b2; fill-opacity: 0.75; stroke: #ffffff; stroke-width: 0.512397; stroke-linejoin: miter"/>
   </g>
   <g id="patch_66">
    <path d="M 398.199022 339.84 
L 403.322989 339.84 
L 403.322989 338.803011 
L 398.199022 338.803011 
z
" clip-path="url(#pdba011f556)" style="fill: #0173b2; fill-opacity: 0.75; stroke: #ffffff; stroke-width: 0.512397; stroke-linejoin: miter"/>
   </g>
   <g id="patch_67">
    <path d="M 403.322989 339.84 
L 408.446956 339.84 
L 408.446956 339.321506 
L 403.322989 339.321506 
z
" clip-path="url(#pdba011f556)" style="fill: #0173b2; fill-opacity: 0.75; stroke: #ffffff; stroke-width: 0.512397; stroke-linejoin: miter"/>
   </g>
   <g id="patch_68">
    <path d="M 408.446956 339.84 
L 413.570923 339.84 
L 413.570923 339.321506 
L 408.446956 339.321506 
z
" clip-path="url(#pdba011f556)" style="fill: #0173b2; fill-opacity: 0.75; stroke: #ffffff; stroke-width: 0.512397; stroke-linejoin: miter"/>
   </g>
   <g id="patch_69">
    <path d="M 413.570923 339.84 
L 418.69489 339.84 
L 418.69489 339.321506 
L 413.570923 339.321506 
z
" clip-path="url(#pdba011f556)" style="fill: #0173b2; fill-opacity: 0.75; stroke: #ffffff; stroke-width: 0.512397; stroke-linejoin: miter"/>
   </g>
   <g id="patch_70">
    <path d="M 418.69489 339.84 
L 423.818857 339.84 
L 423.818857 339.84 
L 418.69489 339.84 
z
" clip-path="url(#pdba011f556)" style="fill: #0173b2; fill-opacity: 0.75; stroke: #ffffff; stroke-width: 0.512397; stroke-linejoin: miter"/>
   </g>
   <g id="patch_71">
    <path d="M 423.818857 339.84 
L 428.942824 339.84 
L 428.942824 339.84 
L 423.818857 339.84 
z
" clip-path="url(#pdba011f556)" style="fill: #0173b2; fill-opacity: 0.75; stroke: #ffffff; stroke-width: 0.512397; stroke-linejoin: miter"/>
   </g>
   <g id="patch_72">
    <path d="M 428.942824 339.84 
L 434.066791 339.84 
L 434.066791 339.84 
L 428.942824 339.84 
z
" clip-path="url(#pdba011f556)" style="fill: #0173b2; fill-opacity: 0.75; stroke: #ffffff; stroke-width: 0.512397; stroke-linejoin: miter"/>
   </g>
   <g id="patch_73">
    <path d="M 434.066791 339.84 
L 439.190758 339.84 
L 439.190758 339.84 
L 434.066791 339.84 
z
" clip-path="url(#pdba011f556)" style="fill: #0173b2; fill-opacity: 0.75; stroke: #ffffff; stroke-width: 0.512397; stroke-linejoin: miter"/>
   </g>
   <g id="patch_74">
    <path d="M 439.190758 339.84 
L 444.314725 339.84 
L 444.314725 339.84 
L 439.190758 339.84 
z
" clip-path="url(#pdba011f556)" style="fill: #0173b2; fill-opacity: 0.75; stroke: #ffffff; stroke-width: 0.512397; stroke-linejoin: miter"/>
   </g>
   <g id="patch_75">
    <path d="M 444.314725 339.84 
L 449.438692 339.84 
L 449.438692 339.84 
L 444.314725 339.84 
z
" clip-path="url(#pdba011f556)" style="fill: #0173b2; fill-opacity: 0.75; stroke: #ffffff; stroke-width: 0.512397; stroke-linejoin: miter"/>
   </g>
   <g id="patch_76">
    <path d="M 449.438692 339.84 
L 454.562659 339.84 
L 454.562659 338.803011 
L 449.438692 338.803011 
z
" clip-path="url(#pdba011f556)" style="fill: #0173b2; fill-opacity: 0.75; stroke: #ffffff; stroke-width: 0.512397; stroke-linejoin: miter"/>
   </g>
   <g id="patch_77">
    <path d="M 454.562659 339.84 
L 459.686626 339.84 
L 459.686626 339.84 
L 454.562659 339.84 
z
" clip-path="url(#pdba011f556)" style="fill: #0173b2; fill-opacity: 0.75; stroke: #ffffff; stroke-width: 0.512397; stroke-linejoin: miter"/>
   </g>
   <g id="patch_78">
    <path d="M 459.686626 339.84 
L 464.810593 339.84 
L 464.810593 339.84 
L 459.686626 339.84 
z
" clip-path="url(#pdba011f556)" style="fill: #0173b2; fill-opacity: 0.75; stroke: #ffffff; stroke-width: 0.512397; stroke-linejoin: miter"/>
   </g>
   <g id="patch_79">
    <path d="M 464.810593 339.84 
L 469.93456 339.84 
L 469.93456 339.84 
L 464.810593 339.84 
z
" clip-path="url(#pdba011f556)" style="fill: #0173b2; fill-opacity: 0.75; stroke: #ffffff; stroke-width: 0.512397; stroke-linejoin: miter"/>
   </g>
   <g id="patch_80">
    <path d="M 469.93456 339.84 
L 475.058527 339.84 
L 475.058527 339.84 
L 469.93456 339.84 
z
" clip-path="url(#pdba011f556)" style="fill: #0173b2; fill-opacity: 0.75; stroke: #ffffff; stroke-width: 0.512397; stroke-linejoin: miter"/>
   </g>
   <g id="patch_81">
    <path d="M 475.058527 339.84 
L 480.182494 339.84 
L 480.182494 339.321506 
L 475.058527 339.321506 
z
" clip-path="url(#pdba011f556)" style="fill: #0173b2; fill-opacity: 0.75; stroke: #ffffff; stroke-width: 0.512397; stroke-linejoin: miter"/>
   </g>
   <g id="patch_82">
    <path d="M 480.182494 339.84 
L 485.30646 339.84 
L 485.30646 339.84 
L 480.182494 339.84 
z
" clip-path="url(#pdba011f556)" style="fill: #0173b2; fill-opacity: 0.75; stroke: #ffffff; stroke-width: 0.512397; stroke-linejoin: miter"/>
   </g>
   <g id="patch_83">
    <path d="M 485.30646 339.84 
L 490.430427 339.84 
L 490.430427 339.84 
L 485.30646 339.84 
z
" clip-path="url(#pdba011f556)" style="fill: #0173b2; fill-opacity: 0.75; stroke: #ffffff; stroke-width: 0.512397; stroke-linejoin: miter"/>
   </g>
   <g id="patch_84">
    <path d="M 490.430427 339.84 
L 495.554394 339.84 
L 495.554394 339.84 
L 490.430427 339.84 
z
" clip-path="url(#pdba011f556)" style="fill: #0173b2; fill-opacity: 0.75; stroke: #ffffff; stroke-width: 0.512397; stroke-linejoin: miter"/>
   </g>
   <g id="patch_85">
    <path d="M 495.554394 339.84 
L 500.678361 339.84 
L 500.678361 339.84 
L 495.554394 339.84 
z
" clip-path="url(#pdba011f556)" style="fill: #0173b2; fill-opacity: 0.75; stroke: #ffffff; stroke-width: 0.512397; stroke-linejoin: miter"/>
   </g>
   <g id="patch_86">
    <path d="M 500.678361 339.84 
L 505.802328 339.84 
L 505.802328 339.84 
L 500.678361 339.84 
z
" clip-path="url(#pdba011f556)" style="fill: #0173b2; fill-opacity: 0.75; stroke: #ffffff; stroke-width: 0.512397; stroke-linejoin: miter"/>
   </g>
   <g id="patch_87">
    <path d="M 505.802328 339.84 
L 510.926295 339.84 
L 510.926295 339.84 
L 505.802328 339.84 
z
" clip-path="url(#pdba011f556)" style="fill: #0173b2; fill-opacity: 0.75; stroke: #ffffff; stroke-width: 0.512397; stroke-linejoin: miter"/>
   </g>
   <g id="patch_88">
    <path d="M 510.926295 339.84 
L 516.050262 339.84 
L 516.050262 339.84 
L 510.926295 339.84 
z
" clip-path="url(#pdba011f556)" style="fill: #0173b2; fill-opacity: 0.75; stroke: #ffffff; stroke-width: 0.512397; stroke-linejoin: miter"/>
   </g>
   <g id="patch_89">
    <path d="M 516.050262 339.84 
L 521.174229 339.84 
L 521.174229 339.84 
L 516.050262 339.84 
z
" clip-path="url(#pdba011f556)" style="fill: #0173b2; fill-opacity: 0.75; stroke: #ffffff; stroke-width: 0.512397; stroke-linejoin: miter"/>
   </g>
   <g id="patch_90">
    <path d="M 521.174229 339.84 
L 526.298196 339.84 
L 526.298196 339.84 
L 521.174229 339.84 
z
" clip-path="url(#pdba011f556)" style="fill: #0173b2; fill-opacity: 0.75; stroke: #ffffff; stroke-width: 0.512397; stroke-linejoin: miter"/>
   </g>
   <g id="patch_91">
    <path d="M 526.298196 339.84 
L 531.422163 339.84 
L 531.422163 339.84 
L 526.298196 339.84 
z
" clip-path="url(#pdba011f556)" style="fill: #0173b2; fill-opacity: 0.75; stroke: #ffffff; stroke-width: 0.512397; stroke-linejoin: miter"/>
   </g>
   <g id="patch_92">
    <path d="M 531.422163 339.84 
L 536.54613 339.84 
L 536.54613 339.84 
L 531.422163 339.84 
z
" clip-path="url(#pdba011f556)" style="fill: #0173b2; fill-opacity: 0.75; stroke: #ffffff; stroke-width: 0.512397; stroke-linejoin: miter"/>
   </g>
   <g id="patch_93">
    <path d="M 536.54613 339.84 
L 541.670097 339.84 
L 541.670097 339.84 
L 536.54613 339.84 
z
" clip-path="url(#pdba011f556)" style="fill: #0173b2; fill-opacity: 0.75; stroke: #ffffff; stroke-width: 0.512397; stroke-linejoin: miter"/>
   </g>
   <g id="patch_94">
    <path d="M 541.670097 339.84 
L 546.794064 339.84 
L 546.794064 339.84 
L 541.670097 339.84 
z
" clip-path="url(#pdba011f556)" style="fill: #0173b2; fill-opacity: 0.75; stroke: #ffffff; stroke-width: 0.512397; stroke-linejoin: miter"/>
   </g>
   <g id="patch_95">
    <path d="M 546.794064 339.84 
L 551.918031 339.84 
L 551.918031 339.84 
L 546.794064 339.84 
z
" clip-path="url(#pdba011f556)" style="fill: #0173b2; fill-opacity: 0.75; stroke: #ffffff; stroke-width: 0.512397; stroke-linejoin: miter"/>
   </g>
   <g id="patch_96">
    <path d="M 551.918031 339.84 
L 557.041998 339.84 
L 557.041998 339.84 
L 551.918031 339.84 
z
" clip-path="url(#pdba011f556)" style="fill: #0173b2; fill-opacity: 0.75; stroke: #ffffff; stroke-width: 0.512397; stroke-linejoin: miter"/>
   </g>
   <g id="patch_97">
    <path d="M 557.041998 339.84 
L 562.165965 339.84 
L 562.165965 339.84 
L 557.041998 339.84 
z
" clip-path="url(#pdba011f556)" style="fill: #0173b2; fill-opacity: 0.75; stroke: #ffffff; stroke-width: 0.512397; stroke-linejoin: miter"/>
   </g>
   <g id="patch_98">
    <path d="M 562.165965 339.84 
L 567.289932 339.84 
L 567.289932 339.84 
L 562.165965 339.84 
z
" clip-path="url(#pdba011f556)" style="fill: #0173b2; fill-opacity: 0.75; stroke: #ffffff; stroke-width: 0.512397; stroke-linejoin: miter"/>
   </g>
   <g id="patch_99">
    <path d="M 567.289932 339.84 
L 572.413899 339.84 
L 572.413899 339.84 
L 567.289932 339.84 
z
" clip-path="url(#pdba011f556)" style="fill: #0173b2; fill-opacity: 0.75; stroke: #ffffff; stroke-width: 0.512397; stroke-linejoin: miter"/>
   </g>
   <g id="patch_100">
    <path d="M 572.413899 339.84 
L 577.537865 339.84 
L 577.537865 339.84 
L 572.413899 339.84 
z
" clip-path="url(#pdba011f556)" style="fill: #0173b2; fill-opacity: 0.75; stroke: #ffffff; stroke-width: 0.512397; stroke-linejoin: miter"/>
   </g>
   <g id="patch_101">
    <path d="M 577.537865 339.84 
L 582.661832 339.84 
L 582.661832 339.321506 
L 577.537865 339.321506 
z
" clip-path="url(#pdba011f556)" style="fill: #0173b2; fill-opacity: 0.75; stroke: #ffffff; stroke-width: 0.512397; stroke-linejoin: miter"/>
   </g>
   <g id="patch_102">
    <path d="M 50.025469 339.84 
L 50.025469 7.2 
" style="fill: none; stroke: #ffffff; stroke-width: 1.25; stroke-linejoin: miter; stroke-linecap: square"/>
   </g>
   <g id="patch_103">
    <path d="M 608.025469 339.84 
L 608.025469 7.2 
" style="fill: none; stroke: #ffffff; stroke-width: 1.25; stroke-linejoin: miter; stroke-linecap: square"/>
   </g>
   <g id="patch_104">
    <path d="M 50.025469 339.84 
L 608.025469 339.84 
" style="fill: none; stroke: #ffffff; stroke-width: 1.25; stroke-linejoin: miter; stroke-linecap: square"/>
   </g>
   <g id="patch_105">
    <path d="M 50.025469 7.2 
L 608.025469 7.2 
" style="fill: none; stroke: #ffffff; stroke-width: 1.25; stroke-linejoin: miter; stroke-linecap: square"/>
   </g>
  </g>
 </g>
 <defs>
  <clipPath id="pdba011f556">
   <rect x="50.025469" y="7.2" width="558" height="332.64"/>
  </clipPath>
 </defs>
</svg>