<?xml version="1.0" encoding="utf-8" standalone="no"?>
<!DOCTYPE svg PUBLIC "-//W3C//DTD SVG 1.1//EN"
  "http://www.w3.org/Graphics/SVG/1.1/DTD/svg11.dtd">
<svg xmlns:xlink="http://www.w3.org/1999/xlink" width="603.132031pt" height="381.574219pt" viewBox="0 0 603.132031 381.574219" xmlns="http://www.w3.org/2000/svg" version="1.1">
 <metadata>
  <rdf:RDF xmlns:dc="http://purl.org/dc/elements/1.1/" xmlns:cc="http://creativecommons.org/ns#" xmlns:rdf="http://www.w3.org/1999/02/22-rdf-syntax-ns#">
   <cc:Work>
    <dc:type rdf:resource="http://purl.org/dc/dcmitype/StillImage"/>
    <dc:date>2023-06-17T10:47:19.477246</dc:date>
    <dc:format>image/svg+xml</dc:format>
    <dc:creator>
     <cc:Agent>
      <dc:title>Matplotlib v3.7.1, https://matplotlib.org/</dc:title>
     </cc:Agent>
    </dc:creator>
   </cc:Work>
  </rdf:RDF>
 </metadata>
 <defs>
  <style type="text/css">*{stroke-linejoin: round; stroke-linecap: butt}</style>
 </defs>
 <g id="figure_1">
  <g id="patch_1">
   <path d="M 0 381.574219 
L 603.132031 381.574219 
L 603.132031 0 
L 0 0 
z
" style="fill: #ffffff"/>
  </g>
  <g id="axes_1">
   <g id="patch_2">
    <path d="M 37.932031 339.84 
L 595.932031 339.84 
L 595.932031 7.2 
L 37.932031 7.2 
z
" style="fill: #eaeaf2"/>
   </g>
   <g id="matplotlib.axis_1">
    <g id="xtick_1">
     <g id="line2d_1">
      <path d="M 63.295668 339.84 
L 63.295668 7.2 
" clip-path="url(#pf0f0322f08)" style="fill: none; stroke: #ffffff; stroke-linecap: round"/>
     </g>
     <g id="text_1">
      <!-- 0.0 -->
      <g style="fill: #262626" transform="translate(55.650668 357.213594) scale(0.11 -0.11)">
       <defs>
        <path id="ArialMT-30" d="M 266 2259 
Q 266 3072 433 3567 
Q 600 4063 929 4331 
Q 1259 4600 1759 4600 
Q 2128 4600 2406 4451 
Q 2684 4303 2865 4023 
Q 3047 3744 3150 3342 
Q 3253 2941 3253 2259 
Q 3253 1453 3087 958 
Q 2922 463 2592 192 
Q 2263 -78 1759 -78 
Q 1097 -78 719 397 
Q 266 969 266 2259 
z
M 844 2259 
Q 844 1131 1108 757 
Q 1372 384 1759 384 
Q 2147 384 2411 759 
Q 2675 1134 2675 2259 
Q 2675 3391 2411 3762 
Q 2147 4134 1753 4134 
Q 1366 4134 1134 3806 
Q 844 3388 844 2259 
z
" transform="scale(0.015625)"/>
        <path id="ArialMT-2e" d="M 581 0 
L 581 641 
L 1222 641 
L 1222 0 
L 581 0 
z
" transform="scale(0.015625)"/>
       </defs>
       <use xlink:href="#ArialMT-30"/>
       <use xlink:href="#ArialMT-2e" x="55.615234"/>
       <use xlink:href="#ArialMT-30" x="83.398438"/>
      </g>
     </g>
    </g>
    <g id="xtick_2">
     <g id="line2d_2">
      <path d="M 164.750213 339.84 
L 164.750213 7.2 
" clip-path="url(#pf0f0322f08)" style="fill: none; stroke: #ffffff; stroke-linecap: round"/>
     </g>
     <g id="text_2">
      <!-- 0.2 -->
      <g style="fill: #262626" transform="translate(157.105213 357.213594) scale(0.11 -0.11)">
       <defs>
        <path id="ArialMT-32" d="M 3222 541 
L 3222 0 
L 194 0 
Q 188 203 259 391 
Q 375 700 629 1000 
Q 884 1300 1366 1694 
Q 2113 2306 2375 2664 
Q 2638 3022 2638 3341 
Q 2638 3675 2398 3904 
Q 2159 4134 1775 4134 
Q 1369 4134 1125 3890 
Q 881 3647 878 3216 
L 300 3275 
Q 359 3922 746 4261 
Q 1134 4600 1788 4600 
Q 2447 4600 2831 4234 
Q 3216 3869 3216 3328 
Q 3216 3053 3103 2787 
Q 2991 2522 2730 2228 
Q 2469 1934 1863 1422 
Q 1356 997 1212 845 
Q 1069 694 975 541 
L 3222 541 
z
" transform="scale(0.015625)"/>
       </defs>
       <use xlink:href="#ArialMT-30"/>
       <use xlink:href="#ArialMT-2e" x="55.615234"/>
       <use xlink:href="#ArialMT-32" x="83.398438"/>
      </g>
     </g>
    </g>
    <g id="xtick_3">
     <g id="line2d_3">
      <path d="M 266.204759 339.84 
L 266.204759 7.2 
" clip-path="url(#pf0f0322f08)" style="fill: none; stroke: #ffffff; stroke-linecap: round"/>
     </g>
     <g id="text_3">
      <!-- 0.4 -->
      <g style="fill: #262626" transform="translate(258.559759 357.213594) scale(0.11 -0.11)">
       <defs>
        <path id="ArialMT-34" d="M 2069 0 
L 2069 1097 
L 81 1097 
L 81 1613 
L 2172 4581 
L 2631 4581 
L 2631 1613 
L 3250 1613 
L 3250 1097 
L 2631 1097 
L 2631 0 
L 2069 0 
z
M 2069 1613 
L 2069 3678 
L 634 1613 
L 2069 1613 
z
" transform="scale(0.015625)"/>
       </defs>
       <use xlink:href="#ArialMT-30"/>
       <use xlink:href="#ArialMT-2e" x="55.615234"/>
       <use xlink:href="#ArialMT-34" x="83.398438"/>
      </g>
     </g>
    </g>
    <g id="xtick_4">
     <g id="line2d_4">
      <path d="M 367.659304 339.84 
L 367.659304 7.2 
" clip-path="url(#pf0f0322f08)" style="fill: none; stroke: #ffffff; stroke-linecap: round"/>
     </g>
     <g id="text_4">
      <!-- 0.6 -->
      <g style="fill: #262626" transform="translate(360.014304 357.213594) scale(0.11 -0.11)">
       <defs>
        <path id="ArialMT-36" d="M 3184 3459 
L 2625 3416 
Q 2550 3747 2413 3897 
Q 2184 4138 1850 4138 
Q 1581 4138 1378 3988 
Q 1113 3794 959 3422 
Q 806 3050 800 2363 
Q 1003 2672 1297 2822 
Q 1591 2972 1913 2972 
Q 2475 2972 2870 2558 
Q 3266 2144 3266 1488 
Q 3266 1056 3080 686 
Q 2894 316 2569 119 
Q 2244 -78 1831 -78 
Q 1128 -78 684 439 
Q 241 956 241 2144 
Q 241 3472 731 4075 
Q 1159 4600 1884 4600 
Q 2425 4600 2770 4297 
Q 3116 3994 3184 3459 
z
M 888 1484 
Q 888 1194 1011 928 
Q 1134 663 1356 523 
Q 1578 384 1822 384 
Q 2178 384 2434 671 
Q 2691 959 2691 1453 
Q 2691 1928 2437 2201 
Q 2184 2475 1800 2475 
Q 1419 2475 1153 2201 
Q 888 1928 888 1484 
z
" transform="scale(0.015625)"/>
       </defs>
       <use xlink:href="#ArialMT-30"/>
       <use xlink:href="#ArialMT-2e" x="55.615234"/>
       <use xlink:href="#ArialMT-36" x="83.398438"/>
      </g>
     </g>
    </g>
    <g id="xtick_5">
     <g id="line2d_5">
      <path d="M 469.113849 339.84 
L 469.113849 7.2 
" clip-path="url(#pf0f0322f08)" style="fill: none; stroke: #ffffff; stroke-linecap: round"/>
     </g>
     <g id="text_5">
      <!-- 0.8 -->
      <g style="fill: #262626" transform="translate(461.468849 357.213594) scale(0.11 -0.11)">
       <defs>
        <path id="ArialMT-38" d="M 1131 2484 
Q 781 2613 612 2850 
Q 444 3088 444 3419 
Q 444 3919 803 4259 
Q 1163 4600 1759 4600 
Q 2359 4600 2725 4251 
Q 3091 3903 3091 3403 
Q 3091 3084 2923 2848 
Q 2756 2613 2416 2484 
Q 2838 2347 3058 2040 
Q 3278 1734 3278 1309 
Q 3278 722 2862 322 
Q 2447 -78 1769 -78 
Q 1091 -78 675 323 
Q 259 725 259 1325 
Q 259 1772 486 2073 
Q 713 2375 1131 2484 
z
M 1019 3438 
Q 1019 3113 1228 2906 
Q 1438 2700 1772 2700 
Q 2097 2700 2305 2904 
Q 2513 3109 2513 3406 
Q 2513 3716 2298 3927 
Q 2084 4138 1766 4138 
Q 1444 4138 1231 3931 
Q 1019 3725 1019 3438 
z
M 838 1322 
Q 838 1081 952 856 
Q 1066 631 1291 507 
Q 1516 384 1775 384 
Q 2178 384 2440 643 
Q 2703 903 2703 1303 
Q 2703 1709 2433 1975 
Q 2163 2241 1756 2241 
Q 1359 2241 1098 1978 
Q 838 1716 838 1322 
z
" transform="scale(0.015625)"/>
       </defs>
       <use xlink:href="#ArialMT-30"/>
       <use xlink:href="#ArialMT-2e" x="55.615234"/>
       <use xlink:href="#ArialMT-38" x="83.398438"/>
      </g>
     </g>
    </g>
    <g id="xtick_6">
     <g id="line2d_6">
      <path d="M 570.568395 339.84 
L 570.568395 7.2 
" clip-path="url(#pf0f0322f08)" style="fill: none; stroke: #ffffff; stroke-linecap: round"/>
     </g>
     <g id="text_6">
      <!-- 1.0 -->
      <g style="fill: #262626" transform="translate(562.923395 357.213594) scale(0.11 -0.11)">
       <defs>
        <path id="ArialMT-31" d="M 2384 0 
L 1822 0 
L 1822 3584 
Q 1619 3391 1289 3197 
Q 959 3003 697 2906 
L 697 3450 
Q 1169 3672 1522 3987 
Q 1875 4303 2022 4600 
L 2384 4600 
L 2384 0 
z
" transform="scale(0.015625)"/>
       </defs>
       <use xlink:href="#ArialMT-31"/>
       <use xlink:href="#ArialMT-2e" x="55.615234"/>
       <use xlink:href="#ArialMT-30" x="83.398438"/>
      </g>
     </g>
    </g>
    <g id="text_7">
     <!-- $\theta$ -->
     <g style="fill: #262626" transform="translate(314.112031 371.989219) scale(0.12 -0.12)">
      <defs>
       <path id="Cmmi10-b5" d="M 1031 -72 
Q 741 -72 566 140 
Q 391 353 323 653 
Q 256 953 256 1247 
L 256 1253 
Q 256 1572 317 1915 
Q 378 2259 493 2601 
Q 609 2944 744 3213 
Q 838 3400 986 3631 
Q 1134 3863 1317 4064 
Q 1500 4266 1711 4389 
Q 1922 4513 2138 4513 
L 2144 4513 
Q 2375 4513 2529 4384 
Q 2684 4256 2770 4056 
Q 2856 3856 2890 3628 
Q 2925 3400 2925 3194 
Q 2925 2709 2794 2204 
Q 2663 1700 2431 1228 
Q 2344 1050 2189 809 
Q 2034 569 1861 378 
Q 1688 188 1472 58 
Q 1256 -72 1038 -72 
L 1031 -72 
z
M 1044 97 
Q 1256 97 1451 323 
Q 1647 550 1794 873 
Q 1941 1197 2052 1536 
Q 2163 1875 2216 2113 
L 909 2113 
Q 809 1709 753 1417 
Q 697 1125 697 844 
Q 697 97 1044 97 
z
M 959 2338 
L 2272 2338 
Q 2341 2619 2381 2808 
Q 2422 2997 2450 3206 
Q 2478 3416 2478 3597 
Q 2478 4347 2138 4347 
Q 1731 4347 1436 3692 
Q 1141 3038 959 2338 
z
" transform="scale(0.015625)"/>
      </defs>
      <use xlink:href="#Cmmi10-b5" transform="translate(0 0.484375)"/>
     </g>
    </g>
   </g>
   <g id="matplotlib.axis_2">
    <g id="ytick_1">
     <g id="line2d_7">
      <path d="M 37.932031 324.72 
L 595.932031 324.72 
" clip-path="url(#pf0f0322f08)" style="fill: none; stroke: #ffffff; stroke-linecap: round"/>
     </g>
     <g id="text_8">
      <!-- 0 -->
      <g style="fill: #262626" transform="translate(22.315 328.656797) scale(0.11 -0.11)">
       <use xlink:href="#ArialMT-30"/>
      </g>
     </g>
    </g>
    <g id="ytick_2">
     <g id="line2d_8">
      <path d="M 37.932031 267.343593 
L 595.932031 267.343593 
" clip-path="url(#pf0f0322f08)" style="fill: none; stroke: #ffffff; stroke-linecap: round"/>
     </g>
     <g id="text_9">
      <!-- 1 -->
      <g style="fill: #262626" transform="translate(22.315 271.28039) scale(0.11 -0.11)">
       <use xlink:href="#ArialMT-31"/>
      </g>
     </g>
    </g>
    <g id="ytick_3">
     <g id="line2d_9">
      <path d="M 37.932031 209.967187 
L 595.932031 209.967187 
" clip-path="url(#pf0f0322f08)" style="fill: none; stroke: #ffffff; stroke-linecap: round"/>
     </g>
     <g id="text_10">
      <!-- 2 -->
      <g style="fill: #262626" transform="translate(22.315 213.903983) scale(0.11 -0.11)">
       <use xlink:href="#ArialMT-32"/>
      </g>
     </g>
    </g>
    <g id="ytick_4">
     <g id="line2d_10">
      <path d="M 37.932031 152.59078 
L 595.932031 152.59078 
" clip-path="url(#pf0f0322f08)" style="fill: none; stroke: #ffffff; stroke-linecap: round"/>
     </g>
     <g id="text_11">
      <!-- 3 -->
      <g style="fill: #262626" transform="translate(22.315 156.527577) scale(0.11 -0.11)">
       <defs>
        <path id="ArialMT-33" d="M 269 1209 
L 831 1284 
Q 928 806 1161 595 
Q 1394 384 1728 384 
Q 2125 384 2398 659 
Q 2672 934 2672 1341 
Q 2672 1728 2419 1979 
Q 2166 2231 1775 2231 
Q 1616 2231 1378 2169 
L 1441 2663 
Q 1497 2656 1531 2656 
Q 1891 2656 2178 2843 
Q 2466 3031 2466 3422 
Q 2466 3731 2256 3934 
Q 2047 4138 1716 4138 
Q 1388 4138 1169 3931 
Q 950 3725 888 3313 
L 325 3413 
Q 428 3978 793 4289 
Q 1159 4600 1703 4600 
Q 2078 4600 2393 4439 
Q 2709 4278 2876 4000 
Q 3044 3722 3044 3409 
Q 3044 3113 2884 2869 
Q 2725 2625 2413 2481 
Q 2819 2388 3044 2092 
Q 3269 1797 3269 1353 
Q 3269 753 2831 336 
Q 2394 -81 1725 -81 
Q 1122 -81 723 278 
Q 325 638 269 1209 
z
" transform="scale(0.015625)"/>
       </defs>
       <use xlink:href="#ArialMT-33"/>
      </g>
     </g>
    </g>
    <g id="ytick_5">
     <g id="line2d_11">
      <path d="M 37.932031 95.214373 
L 595.932031 95.214373 
" clip-path="url(#pf0f0322f08)" style="fill: none; stroke: #ffffff; stroke-linecap: round"/>
     </g>
     <g id="text_12">
      <!-- 4 -->
      <g style="fill: #262626" transform="translate(22.315 99.15117) scale(0.11 -0.11)">
       <use xlink:href="#ArialMT-34"/>
      </g>
     </g>
    </g>
    <g id="ytick_6">
     <g id="line2d_12">
      <path d="M 37.932031 37.837966 
L 595.932031 37.837966 
" clip-path="url(#pf0f0322f08)" style="fill: none; stroke: #ffffff; stroke-linecap: round"/>
     </g>
     <g id="text_13">
      <!-- 5 -->
      <g style="fill: #262626" transform="translate(22.315 41.774763) scale(0.11 -0.11)">
       <defs>
        <path id="ArialMT-35" d="M 266 1200 
L 856 1250 
Q 922 819 1161 601 
Q 1400 384 1738 384 
Q 2144 384 2425 690 
Q 2706 997 2706 1503 
Q 2706 1984 2436 2262 
Q 2166 2541 1728 2541 
Q 1456 2541 1237 2417 
Q 1019 2294 894 2097 
L 366 2166 
L 809 4519 
L 3088 4519 
L 3088 3981 
L 1259 3981 
L 1013 2750 
Q 1425 3038 1878 3038 
Q 2478 3038 2890 2622 
Q 3303 2206 3303 1553 
Q 3303 931 2941 478 
Q 2500 -78 1738 -78 
Q 1113 -78 717 272 
Q 322 622 266 1200 
z
" transform="scale(0.015625)"/>
       </defs>
       <use xlink:href="#ArialMT-35"/>
      </g>
     </g>
    </g>
    <g id="text_14">
     <!-- density -->
     <g style="fill: #262626" transform="translate(15.789375 192.529688) rotate(-90) scale(0.12 -0.12)">
      <defs>
       <path id="ArialMT-64" d="M 2575 0 
L 2575 419 
Q 2259 -75 1647 -75 
Q 1250 -75 917 144 
Q 584 363 401 755 
Q 219 1147 219 1656 
Q 219 2153 384 2558 
Q 550 2963 881 3178 
Q 1213 3394 1622 3394 
Q 1922 3394 2156 3267 
Q 2391 3141 2538 2938 
L 2538 4581 
L 3097 4581 
L 3097 0 
L 2575 0 
z
M 797 1656 
Q 797 1019 1065 703 
Q 1334 388 1700 388 
Q 2069 388 2326 689 
Q 2584 991 2584 1609 
Q 2584 2291 2321 2609 
Q 2059 2928 1675 2928 
Q 1300 2928 1048 2622 
Q 797 2316 797 1656 
z
" transform="scale(0.015625)"/>
       <path id="ArialMT-65" d="M 2694 1069 
L 3275 997 
Q 3138 488 2766 206 
Q 2394 -75 1816 -75 
Q 1088 -75 661 373 
Q 234 822 234 1631 
Q 234 2469 665 2931 
Q 1097 3394 1784 3394 
Q 2450 3394 2872 2941 
Q 3294 2488 3294 1666 
Q 3294 1616 3291 1516 
L 816 1516 
Q 847 969 1125 678 
Q 1403 388 1819 388 
Q 2128 388 2347 550 
Q 2566 713 2694 1069 
z
M 847 1978 
L 2700 1978 
Q 2663 2397 2488 2606 
Q 2219 2931 1791 2931 
Q 1403 2931 1139 2672 
Q 875 2413 847 1978 
z
" transform="scale(0.015625)"/>
       <path id="ArialMT-6e" d="M 422 0 
L 422 3319 
L 928 3319 
L 928 2847 
Q 1294 3394 1984 3394 
Q 2284 3394 2536 3286 
Q 2788 3178 2913 3003 
Q 3038 2828 3088 2588 
Q 3119 2431 3119 2041 
L 3119 0 
L 2556 0 
L 2556 2019 
Q 2556 2363 2490 2533 
Q 2425 2703 2258 2804 
Q 2091 2906 1866 2906 
Q 1506 2906 1245 2678 
Q 984 2450 984 1813 
L 984 0 
L 422 0 
z
" transform="scale(0.015625)"/>
       <path id="ArialMT-73" d="M 197 991 
L 753 1078 
Q 800 744 1014 566 
Q 1228 388 1613 388 
Q 2000 388 2187 545 
Q 2375 703 2375 916 
Q 2375 1106 2209 1216 
Q 2094 1291 1634 1406 
Q 1016 1563 777 1677 
Q 538 1791 414 1992 
Q 291 2194 291 2438 
Q 291 2659 392 2848 
Q 494 3038 669 3163 
Q 800 3259 1026 3326 
Q 1253 3394 1513 3394 
Q 1903 3394 2198 3281 
Q 2494 3169 2634 2976 
Q 2775 2784 2828 2463 
L 2278 2388 
Q 2241 2644 2061 2787 
Q 1881 2931 1553 2931 
Q 1166 2931 1000 2803 
Q 834 2675 834 2503 
Q 834 2394 903 2306 
Q 972 2216 1119 2156 
Q 1203 2125 1616 2013 
Q 2213 1853 2448 1751 
Q 2684 1650 2818 1456 
Q 2953 1263 2953 975 
Q 2953 694 2789 445 
Q 2625 197 2315 61 
Q 2006 -75 1616 -75 
Q 969 -75 630 194 
Q 291 463 197 991 
z
" transform="scale(0.015625)"/>
       <path id="ArialMT-69" d="M 425 3934 
L 425 4581 
L 988 4581 
L 988 3934 
L 425 3934 
z
M 425 0 
L 425 3319 
L 988 3319 
L 988 0 
L 425 0 
z
" transform="scale(0.015625)"/>
       <path id="ArialMT-74" d="M 1650 503 
L 1731 6 
Q 1494 -44 1306 -44 
Q 1000 -44 831 53 
Q 663 150 594 308 
Q 525 466 525 972 
L 525 2881 
L 113 2881 
L 113 3319 
L 525 3319 
L 525 4141 
L 1084 4478 
L 1084 3319 
L 1650 3319 
L 1650 2881 
L 1084 2881 
L 1084 941 
Q 1084 700 1114 631 
Q 1144 563 1211 522 
Q 1278 481 1403 481 
Q 1497 481 1650 503 
z
" transform="scale(0.015625)"/>
       <path id="ArialMT-79" d="M 397 -1278 
L 334 -750 
Q 519 -800 656 -800 
Q 844 -800 956 -737 
Q 1069 -675 1141 -563 
Q 1194 -478 1313 -144 
Q 1328 -97 1363 -6 
L 103 3319 
L 709 3319 
L 1400 1397 
Q 1534 1031 1641 628 
Q 1738 1016 1872 1384 
L 2581 3319 
L 3144 3319 
L 1881 -56 
Q 1678 -603 1566 -809 
Q 1416 -1088 1222 -1217 
Q 1028 -1347 759 -1347 
Q 597 -1347 397 -1278 
z
" transform="scale(0.015625)"/>
      </defs>
      <use xlink:href="#ArialMT-64"/>
      <use xlink:href="#ArialMT-65" x="55.615234"/>
      <use xlink:href="#ArialMT-6e" x="111.230469"/>
      <use xlink:href="#ArialMT-73" x="166.845703"/>
      <use xlink:href="#ArialMT-69" x="216.845703"/>
      <use xlink:href="#ArialMT-74" x="239.0625"/>
      <use xlink:href="#ArialMT-79" x="266.845703"/>
     </g>
    </g>
   </g>
   <g id="PolyCollection_1">
    <defs>
     <path id="me6c1e8f81e" d="M 63.295668 -56.854219 
L 63.295668 -56.854219 
L 68.419635 -115.038914 
L 73.543601 -162.9626 
L 78.667568 -201.843681 
L 83.791535 -232.786901 
L 88.915502 -256.791956 
L 94.039469 -274.761566 
L 99.163436 -287.509059 
L 104.287403 -295.76547 
L 109.41137 -300.186193 
L 114.535337 -301.357192 
L 119.659304 -299.800816 
L 124.783271 -295.981213 
L 129.907238 -290.30939 
L 135.031205 -283.147913 
L 140.155172 -274.815283 
L 145.279139 -265.589999 
L 150.403106 -255.71433 
L 155.527073 -245.397804 
L 160.65104 -234.820436 
L 165.775006 -224.135714 
L 170.898973 -213.473348 
L 176.02294 -202.941798 
L 181.146907 -192.630607 
L 186.270874 -182.61253 
L 191.394841 -172.945491 
L 196.518808 -163.674367 
L 201.642775 -154.832613 
L 206.766742 -146.443748 
L 211.890709 -138.522693 
L 217.014676 -131.076989 
L 222.138643 -124.10789 
L 227.26261 -117.611354 
L 232.386577 -111.578926 
L 237.510544 -105.998525 
L 242.634511 -100.855153 
L 247.758478 -96.13151 
L 252.882444 -91.808551 
L 258.006411 -87.865963 
L 263.130378 -84.282585 
L 268.254345 -81.036774 
L 273.378312 -78.106712 
L 278.502279 -75.470678 
L 283.626246 -73.107265 
L 288.750213 -70.995572 
L 293.87418 -69.115347 
L 298.998147 -67.447116 
L 304.122114 -65.97227 
L 309.246081 -64.673141 
L 314.370048 -63.533046 
L 319.494015 -62.536318 
L 324.617982 -61.668322 
L 329.741949 -60.915454 
L 334.865916 -60.26513 
L 339.989882 -59.705765 
L 345.113849 -59.226744 
L 350.237816 -58.818385 
L 355.361783 -58.471899 
L 360.48575 -58.179344 
L 365.609717 -57.933578 
L 370.733684 -57.728209 
L 375.857651 -57.557544 
L 380.981618 -57.416536 
L 386.105585 -57.300735 
L 391.229552 -57.206238 
L 396.353519 -57.12964 
L 401.477486 -57.067987 
L 406.601453 -57.018731 
L 411.72542 -56.979688 
L 416.849387 -56.948998 
L 421.973354 -56.925087 
L 427.097321 -56.906634 
L 432.221287 -56.892535 
L 437.345254 -56.881879 
L 442.469221 -56.873919 
L 447.593188 -56.868046 
L 452.717155 -56.863772 
L 457.841122 -56.860706 
L 462.965089 -56.858542 
L 468.089056 -56.857041 
L 473.213023 -56.85602 
L 478.33699 -56.85534 
L 483.460957 -56.854897 
L 488.584924 -56.854617 
L 493.708891 -56.854444 
L 498.832858 -56.854341 
L 503.956825 -56.854282 
L 509.080792 -56.85425 
L 514.204759 -56.854233 
L 519.328725 -56.854225 
L 524.452692 -56.854221 
L 529.576659 -56.85422 
L 534.700626 -56.854219 
L 539.824593 -56.854219 
L 544.94856 -56.854219 
L 550.072527 -56.854219 
L 555.196494 -56.854219 
L 560.320461 -56.854219 
L 565.444428 -56.854219 
L 570.568395 -56.854219 
L 570.568395 -56.854219 
L 570.568395 -56.854219 
L 565.444428 -56.854219 
L 560.320461 -56.854219 
L 555.196494 -56.854219 
L 550.072527 -56.854219 
L 544.94856 -56.854219 
L 539.824593 -56.854219 
L 534.700626 -56.854219 
L 529.576659 -56.854219 
L 524.452692 -56.854219 
L 519.328725 -56.854219 
L 514.204759 -56.854219 
L 509.080792 -56.854219 
L 503.956825 -56.854219 
L 498.832858 -56.854219 
L 493.708891 -56.854219 
L 488.584924 -56.854219 
L 483.460957 -56.854219 
L 478.33699 -56.854219 
L 473.213023 -56.854219 
L 468.089056 -56.854219 
L 462.965089 -56.854219 
L 457.841122 -56.854219 
L 452.717155 -56.854219 
L 447.593188 -56.854219 
L 442.469221 -56.854219 
L 437.345254 -56.854219 
L 432.221287 -56.854219 
L 427.097321 -56.854219 
L 421.973354 -56.854219 
L 416.849387 -56.854219 
L 411.72542 -56.854219 
L 406.601453 -56.854219 
L 401.477486 -56.854219 
L 396.353519 -56.854219 
L 391.229552 -56.854219 
L 386.105585 -56.854219 
L 380.981618 -56.854219 
L 375.857651 -56.854219 
L 370.733684 -56.854219 
L 365.609717 -56.854219 
L 360.48575 -56.854219 
L 355.361783 -56.854219 
L 350.237816 -56.854219 
L 345.113849 -56.854219 
L 339.989882 -56.854219 
L 334.865916 -56.854219 
L 329.741949 -56.854219 
L 324.617982 -56.854219 
L 319.494015 -56.854219 
L 314.370048 -56.854219 
L 309.246081 -56.854219 
L 304.122114 -56.854219 
L 298.998147 -56.854219 
L 293.87418 -56.854219 
L 288.750213 -56.854219 
L 283.626246 -56.854219 
L 278.502279 -56.854219 
L 273.378312 -56.854219 
L 268.254345 -56.854219 
L 263.130378 -56.854219 
L 258.006411 -56.854219 
L 252.882444 -56.854219 
L 247.758478 -56.854219 
L 242.634511 -56.854219 
L 237.510544 -56.854219 
L 232.386577 -56.854219 
L 227.26261 -56.854219 
L 222.138643 -56.854219 
L 217.014676 -56.854219 
L 211.890709 -56.854219 
L 206.766742 -56.854219 
L 201.642775 -56.854219 
L 196.518808 -56.854219 
L 191.394841 -56.854219 
L 186.270874 -56.854219 
L 181.146907 -56.854219 
L 176.02294 -56.854219 
L 170.898973 -56.854219 
L 165.775006 -56.854219 
L 160.65104 -56.854219 
L 155.527073 -56.854219 
L 150.403106 -56.854219 
L 145.279139 -56.854219 
L 140.155172 -56.854219 
L 135.031205 -56.854219 
L 129.907238 -56.854219 
L 124.783271 -56.854219 
L 119.659304 -56.854219 
L 114.535337 -56.854219 
L 109.41137 -56.854219 
L 104.287403 -56.854219 
L 99.163436 -56.854219 
L 94.039469 -56.854219 
L 88.915502 -56.854219 
L 83.791535 -56.854219 
L 78.667568 -56.854219 
L 73.543601 -56.854219 
L 68.419635 -56.854219 
L 63.295668 -56.854219 
z
" style="stroke: #1a1a1a; stroke-opacity: 0.2; stroke-width: 4"/>
    </defs>
    <g clip-path="url(#pf0f0322f08)">
     <use xlink:href="#me6c1e8f81e" x="0" y="381.574219" style="fill: #1a1a1a; fill-opacity: 0.2; stroke: #1a1a1a; stroke-opacity: 0.2; stroke-width: 4"/>
    </g>
   </g>
   <g id="PolyCollection_2">
    <defs>
     <path id="me35d22e7fe" d="M 63.295668 -56.854219 
L 63.295668 -56.854219 
L 68.419635 -56.854219 
L 73.543601 -56.854219 
L 78.667568 -56.854219 
L 83.791535 -56.854219 
L 88.915502 -56.854219 
L 94.039469 -56.854219 
L 99.163436 -56.854219 
L 104.287403 -56.854219 
L 109.41137 -56.854219 
L 114.535337 -56.854219 
L 119.659304 -56.854219 
L 124.783271 -56.854219 
L 129.907238 -56.854219 
L 135.031205 -56.854219 
L 140.155172 -56.854219 
L 145.279139 -56.85422 
L 150.403106 -56.854222 
L 155.527073 -56.854229 
L 160.65104 -56.854249 
L 165.775006 -56.854304 
L 170.898973 -56.854443 
L 176.02294 -56.854776 
L 181.146907 -56.855534 
L 186.270874 -56.857173 
L 191.394841 -56.860568 
L 196.518808 -56.867309 
L 201.642775 -56.880189 
L 206.766742 -56.903919 
L 211.890709 -56.946168 
L 217.014676 -57.019006 
L 222.138643 -57.140803 
L 227.26261 -57.338643 
L 232.386577 -57.651234 
L 237.510544 -58.132237 
L 242.634511 -58.853813 
L 247.758478 -59.910111 
L 252.882444 -61.420237 
L 258.006411 -63.530166 
L 263.130378 -66.41294 
L 268.254345 -70.266455 
L 273.378312 -75.308183 
L 278.502279 -81.766293 
L 283.626246 -89.866884 
L 288.750213 -99.817406 
L 293.87418 -111.786763 
L 298.998147 -125.883142 
L 304.122114 -142.131101 
L 309.246081 -160.449921 
L 314.370048 -180.635568 
L 319.494015 -202.348729 
L 324.617982 -225.11126 
L 329.741949 -248.312959 
L 334.865916 -271.229842 
L 339.989882 -293.054103 
L 345.113849 -312.93477 
L 350.237816 -330.026834 
L 355.361783 -343.545448 
L 360.48575 -352.820869 
L 365.609717 -357.349298 
L 370.733684 -356.834664 
L 375.857651 -351.21694 
L 380.981618 -340.683604 
L 386.105585 -325.662363 
L 391.229552 -306.795107 
L 396.353519 -284.894966 
L 401.477486 -260.890178 
L 406.601453 -235.759904 
L 411.72542 -210.468018 
L 416.849387 -185.901089 
L 421.973354 -162.81622 
L 427.097321 -141.803184 
L 432.221287 -123.263589 
L 437.345254 -107.407743 
L 442.469221 -94.267917 
L 447.593188 -83.724945 
L 452.717155 -75.543854 
L 457.841122 -69.413637 
L 462.965089 -64.986425 
L 468.089056 -61.911992 
L 473.213023 -59.864773 
L 478.33699 -58.56199 
L 483.460957 -57.772857 
L 488.584924 -57.320044 
L 493.708891 -57.075321 
L 498.832858 -56.951613 
L 503.956825 -56.893618 
L 509.080792 -56.868666 
L 514.204759 -56.858943 
L 519.328725 -56.855567 
L 524.452692 -56.854545 
L 529.576659 -56.854283 
L 534.700626 -56.854229 
L 539.824593 -56.85422 
L 544.94856 -56.854219 
L 550.072527 -56.854219 
L 555.196494 -56.854219 
L 560.320461 -56.854219 
L 565.444428 -56.854219 
L 570.568395 -56.854219 
L 570.568395 -56.854219 
L 570.568395 -56.854219 
L 565.444428 -56.854219 
L 560.320461 -56.854219 
L 555.196494 -56.854219 
L 550.072527 -56.854219 
L 544.94856 -56.854219 
L 539.824593 -56.854219 
L 534.700626 -56.854219 
L 529.576659 -56.854219 
L 524.452692 -56.854219 
L 519.328725 -56.854219 
L 514.204759 -56.854219 
L 509.080792 -56.854219 
L 503.956825 -56.854219 
L 498.832858 -56.854219 
L 493.708891 -56.854219 
L 488.584924 -56.854219 
L 483.460957 -56.854219 
L 478.33699 -56.854219 
L 473.213023 -56.854219 
L 468.089056 -56.854219 
L 462.965089 -56.854219 
L 457.841122 -56.854219 
L 452.717155 -56.854219 
L 447.593188 -56.854219 
L 442.469221 -56.854219 
L 437.345254 -56.854219 
L 432.221287 -56.854219 
L 427.097321 -56.854219 
L 421.973354 -56.854219 
L 416.849387 -56.854219 
L 411.72542 -56.854219 
L 406.601453 -56.854219 
L 401.477486 -56.854219 
L 396.353519 -56.854219 
L 391.229552 -56.854219 
L 386.105585 -56.854219 
L 380.981618 -56.854219 
L 375.857651 -56.854219 
L 370.733684 -56.854219 
L 365.609717 -56.854219 
L 360.48575 -56.854219 
L 355.361783 -56.854219 
L 350.237816 -56.854219 
L 345.113849 -56.854219 
L 339.989882 -56.854219 
L 334.865916 -56.854219 
L 329.741949 -56.854219 
L 324.617982 -56.854219 
L 319.494015 -56.854219 
L 314.370048 -56.854219 
L 309.246081 -56.854219 
L 304.122114 -56.854219 
L 298.998147 -56.854219 
L 293.87418 -56.854219 
L 288.750213 -56.854219 
L 283.626246 -56.854219 
L 278.502279 -56.854219 
L 273.378312 -56.854219 
L 268.254345 -56.854219 
L 263.130378 -56.854219 
L 258.006411 -56.854219 
L 252.882444 -56.854219 
L 247.758478 -56.854219 
L 242.634511 -56.854219 
L 237.510544 -56.854219 
L 232.386577 -56.854219 
L 227.26261 -56.854219 
L 222.138643 -56.854219 
L 217.014676 -56.854219 
L 211.890709 -56.854219 
L 206.766742 -56.854219 
L 201.642775 -56.854219 
L 196.518808 -56.854219 
L 191.394841 -56.854219 
L 186.270874 -56.854219 
L 181.146907 -56.854219 
L 176.02294 -56.854219 
L 170.898973 -56.854219 
L 165.775006 -56.854219 
L 160.65104 -56.854219 
L 155.527073 -56.854219 
L 150.403106 -56.854219 
L 145.279139 -56.854219 
L 140.155172 -56.854219 
L 135.031205 -56.854219 
L 129.907238 -56.854219 
L 124.783271 -56.854219 
L 119.659304 -56.854219 
L 114.535337 -56.854219 
L 109.41137 -56.854219 
L 104.287403 -56.854219 
L 99.163436 -56.854219 
L 94.039469 -56.854219 
L 88.915502 -56.854219 
L 83.791535 -56.854219 
L 78.667568 -56.854219 
L 73.543601 -56.854219 
L 68.419635 -56.854219 
L 63.295668 -56.854219 
z
" style="stroke: #d55e00; stroke-opacity: 0.2; stroke-width: 4"/>
    </defs>
    <g clip-path="url(#pf0f0322f08)">
     <use xlink:href="#me35d22e7fe" x="0" y="381.574219" style="fill: #d55e00; fill-opacity: 0.2; stroke: #d55e00; stroke-opacity: 0.2; stroke-width: 4"/>
    </g>
   </g>
   <g id="PolyCollection_3">
    <defs>
     <path id="m17951ac32e" d="M 63.295668 -56.854219 
L 63.295668 -56.854219 
L 68.419635 -56.854219 
L 73.543601 -56.854219 
L 78.667568 -56.854219 
L 83.791535 -56.854219 
L 88.915502 -56.854219 
L 94.039469 -56.854219 
L 99.163436 -56.854219 
L 104.287403 -56.854219 
L 109.41137 -56.854219 
L 114.535337 -56.854219 
L 119.659304 -56.854219 
L 124.783271 -56.854219 
L 129.907238 -56.854219 
L 135.031205 -56.854219 
L 140.155172 -56.854219 
L 145.279139 -56.854219 
L 150.403106 -56.854219 
L 155.527073 -56.854219 
L 160.65104 -56.854219 
L 165.775006 -56.854219 
L 170.898973 -56.854219 
L 176.02294 -56.854219 
L 181.146907 -56.85422 
L 186.270874 -56.854222 
L 191.394841 -56.854227 
L 196.518808 -56.854238 
L 201.642775 -56.85426 
L 206.766742 -56.854304 
L 211.890709 -56.854393 
L 217.014676 -56.854562 
L 222.138643 -56.854877 
L 227.26261 -56.855451 
L 232.386577 -56.85647 
L 237.510544 -56.858238 
L 242.634511 -56.861243 
L 247.758478 -56.866245 
L 252.882444 -56.87441 
L 258.006411 -56.887493 
L 263.130378 -56.908085 
L 268.254345 -56.939946 
L 273.378312 -56.988433 
L 278.502279 -57.061058 
L 283.626246 -57.168172 
L 288.750213 -57.323815 
L 293.87418 -57.546717 
L 298.998147 -57.861465 
L 304.122114 -58.29982 
L 309.246081 -58.902144 
L 314.370048 -59.718886 
L 319.494015 -60.812047 
L 324.617982 -62.256498 
L 329.741949 -64.141008 
L 334.865916 -66.568801 
L 339.989882 -69.657414 
L 345.113849 -73.537632 
L 350.237816 -78.351232 
L 355.361783 -84.247309 
L 360.48575 -91.376951 
L 365.609717 -99.886118 
L 370.733684 -109.906654 
L 375.857651 -121.545491 
L 380.981618 -134.872295 
L 386.105585 -149.905949 
L 391.229552 -166.600553 
L 396.353519 -184.831811 
L 401.477486 -204.384921 
L 406.601453 -224.945281 
L 411.72542 -246.093444 
L 416.849387 -267.305795 
L 421.973354 -287.962346 
L 427.097321 -307.362768 
L 432.221287 -324.75136 
L 437.345254 -339.351018 
L 442.469221 -350.405464 
L 447.593188 -357.228028 
L 452.717155 -359.254219 
L 457.841122 -356.094295 
L 462.965089 -347.581132 
L 468.089056 -333.808053 
L 473.213023 -315.151134 
L 478.33699 -292.270927 
L 483.460957 -266.089717 
L 488.584924 -237.742451 
L 493.708891 -208.502225 
L 498.832858 -179.684615 
L 503.956825 -152.538843 
L 509.080792 -128.137198 
L 514.204759 -107.276741 
L 519.328725 -90.408231 
L 524.452692 -77.605724 
L 529.576659 -68.585792 
L 534.700626 -62.777749 
L 539.824593 -59.436127 
L 544.94856 -57.775739 
L 550.072527 -57.10073 
L 555.196494 -56.896085 
L 560.320461 -56.857329 
L 565.444428 -56.85425 
L 570.568395 -56.854219 
L 570.568395 -56.854219 
L 570.568395 -56.854219 
L 565.444428 -56.854219 
L 560.320461 -56.854219 
L 555.196494 -56.854219 
L 550.072527 -56.854219 
L 544.94856 -56.854219 
L 539.824593 -56.854219 
L 534.700626 -56.854219 
L 529.576659 -56.854219 
L 524.452692 -56.854219 
L 519.328725 -56.854219 
L 514.204759 -56.854219 
L 509.080792 -56.854219 
L 503.956825 -56.854219 
L 498.832858 -56.854219 
L 493.708891 -56.854219 
L 488.584924 -56.854219 
L 483.460957 -56.854219 
L 478.33699 -56.854219 
L 473.213023 -56.854219 
L 468.089056 -56.854219 
L 462.965089 -56.854219 
L 457.841122 -56.854219 
L 452.717155 -56.854219 
L 447.593188 -56.854219 
L 442.469221 -56.854219 
L 437.345254 -56.854219 
L 432.221287 -56.854219 
L 427.097321 -56.854219 
L 421.973354 -56.854219 
L 416.849387 -56.854219 
L 411.72542 -56.854219 
L 406.601453 -56.854219 
L 401.477486 -56.854219 
L 396.353519 -56.854219 
L 391.229552 -56.854219 
L 386.105585 -56.854219 
L 380.981618 -56.854219 
L 375.857651 -56.854219 
L 370.733684 -56.854219 
L 365.609717 -56.854219 
L 360.48575 -56.854219 
L 355.361783 -56.854219 
L 350.237816 -56.854219 
L 345.113849 -56.854219 
L 339.989882 -56.854219 
L 334.865916 -56.854219 
L 329.741949 -56.854219 
L 324.617982 -56.854219 
L 319.494015 -56.854219 
L 314.370048 -56.854219 
L 309.246081 -56.854219 
L 304.122114 -56.854219 
L 298.998147 -56.854219 
L 293.87418 -56.854219 
L 288.750213 -56.854219 
L 283.626246 -56.854219 
L 278.502279 -56.854219 
L 273.378312 -56.854219 
L 268.254345 -56.854219 
L 263.130378 -56.854219 
L 258.006411 -56.854219 
L 252.882444 -56.854219 
L 247.758478 -56.854219 
L 242.634511 -56.854219 
L 237.510544 -56.854219 
L 232.386577 -56.854219 
L 227.26261 -56.854219 
L 222.138643 -56.854219 
L 217.014676 -56.854219 
L 211.890709 -56.854219 
L 206.766742 -56.854219 
L 201.642775 -56.854219 
L 196.518808 -56.854219 
L 191.394841 -56.854219 
L 186.270874 -56.854219 
L 181.146907 -56.854219 
L 176.02294 -56.854219 
L 170.898973 -56.854219 
L 165.775006 -56.854219 
L 160.65104 -56.854219 
L 155.527073 -56.854219 
L 150.403106 -56.854219 
L 145.279139 -56.854219 
L 140.155172 -56.854219 
L 135.031205 -56.854219 
L 129.907238 -56.854219 
L 124.783271 -56.854219 
L 119.659304 -56.854219 
L 114.535337 -56.854219 
L 109.41137 -56.854219 
L 104.287403 -56.854219 
L 99.163436 -56.854219 
L 94.039469 -56.854219 
L 88.915502 -56.854219 
L 83.791535 -56.854219 
L 78.667568 -56.854219 
L 73.543601 -56.854219 
L 68.419635 -56.854219 
L 63.295668 -56.854219 
z
" style="stroke: #0173b2; stroke-opacity: 0.2; stroke-width: 4"/>
    </defs>
    <g clip-path="url(#pf0f0322f08)">
     <use xlink:href="#m17951ac32e" x="0" y="381.574219" style="fill: #0173b2; fill-opacity: 0.2; stroke: #0173b2; stroke-opacity: 0.2; stroke-width: 4"/>
    </g>
   </g>
   <g id="patch_3">
    <path d="M 37.932031 339.84 
L 37.932031 7.2 
" style="fill: none; stroke: #ffffff; stroke-width: 1.25; stroke-linejoin: miter; stroke-linecap: square"/>
   </g>
   <g id="patch_4">
    <path d="M 595.932031 339.84 
L 595.932031 7.2 
" style="fill: none; stroke: #ffffff; stroke-width: 1.25; stroke-linejoin: miter; stroke-linecap: square"/>
   </g>
   <g id="patch_5">
    <path d="M 37.932031 339.84 
L 595.932031 339.84 
" style="fill: none; stroke: #ffffff; stroke-width: 1.25; stroke-linejoin: miter; stroke-linecap: square"/>
   </g>
   <g id="patch_6">
    <path d="M 37.932031 7.2 
L 595.932031 7.2 
" style="fill: none; stroke: #ffffff; stroke-width: 1.25; stroke-linejoin: miter; stroke-linecap: square"/>
   </g>
   <g id="legend_1">
    <g id="patch_7">
     <path d="M 472.319531 62.679531 
L 588.232031 62.679531 
Q 590.432031 62.679531 590.432031 60.479531 
L 590.432031 14.9 
Q 590.432031 12.7 588.232031 12.7 
L 472.319531 12.7 
Q 470.119531 12.7 470.119531 14.9 
L 470.119531 60.479531 
Q 470.119531 62.679531 472.319531 62.679531 
z
" style="fill: #eaeaf2; opacity: 0.8; stroke: #cccccc; stroke-linejoin: miter"/>
    </g>
    <g id="patch_8">
     <path d="M 474.519531 24.973594 
L 496.519531 24.973594 
L 496.519531 17.273594 
L 474.519531 17.273594 
z
" style="fill: #1a1a1a; fill-opacity: 0.2; stroke: #1a1a1a; stroke-opacity: 0.2; stroke-width: 4; stroke-linejoin: miter"/>
    </g>
    <g id="text_15">
     <!-- prior -->
     <g style="fill: #262626" transform="translate(505.319531 24.973594) scale(0.11 -0.11)">
      <defs>
       <path id="ArialMT-70" d="M 422 -1272 
L 422 3319 
L 934 3319 
L 934 2888 
Q 1116 3141 1344 3267 
Q 1572 3394 1897 3394 
Q 2322 3394 2647 3175 
Q 2972 2956 3137 2557 
Q 3303 2159 3303 1684 
Q 3303 1175 3120 767 
Q 2938 359 2589 142 
Q 2241 -75 1856 -75 
Q 1575 -75 1351 44 
Q 1128 163 984 344 
L 984 -1272 
L 422 -1272 
z
M 931 1641 
Q 931 1000 1190 694 
Q 1450 388 1819 388 
Q 2194 388 2461 705 
Q 2728 1022 2728 1688 
Q 2728 2322 2467 2637 
Q 2206 2953 1844 2953 
Q 1484 2953 1207 2617 
Q 931 2281 931 1641 
z
" transform="scale(0.015625)"/>
       <path id="ArialMT-72" d="M 416 0 
L 416 3319 
L 922 3319 
L 922 2816 
Q 1116 3169 1280 3281 
Q 1444 3394 1641 3394 
Q 1925 3394 2219 3213 
L 2025 2691 
Q 1819 2813 1613 2813 
Q 1428 2813 1281 2702 
Q 1134 2591 1072 2394 
Q 978 2094 978 1738 
L 978 0 
L 416 0 
z
" transform="scale(0.015625)"/>
       <path id="ArialMT-6f" d="M 213 1659 
Q 213 2581 725 3025 
Q 1153 3394 1769 3394 
Q 2453 3394 2887 2945 
Q 3322 2497 3322 1706 
Q 3322 1066 3130 698 
Q 2938 331 2570 128 
Q 2203 -75 1769 -75 
Q 1072 -75 642 372 
Q 213 819 213 1659 
z
M 791 1659 
Q 791 1022 1069 705 
Q 1347 388 1769 388 
Q 2188 388 2466 706 
Q 2744 1025 2744 1678 
Q 2744 2294 2464 2611 
Q 2184 2928 1769 2928 
Q 1347 2928 1069 2612 
Q 791 2297 791 1659 
z
" transform="scale(0.015625)"/>
      </defs>
      <use xlink:href="#ArialMT-70"/>
      <use xlink:href="#ArialMT-72" x="55.615234"/>
      <use xlink:href="#ArialMT-69" x="88.916016"/>
      <use xlink:href="#ArialMT-6f" x="111.132812"/>
      <use xlink:href="#ArialMT-72" x="166.748047"/>
     </g>
    </g>
    <g id="patch_9">
     <path d="M 474.519531 40.533437 
L 496.519531 40.533437 
L 496.519531 32.833437 
L 474.519531 32.833437 
z
" style="fill: #d55e00; fill-opacity: 0.2; stroke: #d55e00; stroke-opacity: 0.2; stroke-width: 4; stroke-linejoin: miter"/>
    </g>
    <g id="text_16">
     <!-- posterior -->
     <g style="fill: #262626" transform="translate(505.319531 40.533437) scale(0.11 -0.11)">
      <use xlink:href="#ArialMT-70"/>
      <use xlink:href="#ArialMT-6f" x="55.615234"/>
      <use xlink:href="#ArialMT-73" x="111.230469"/>
      <use xlink:href="#ArialMT-74" x="161.230469"/>
      <use xlink:href="#ArialMT-65" x="189.013672"/>
      <use xlink:href="#ArialMT-72" x="244.628906"/>
      <use xlink:href="#ArialMT-69" x="277.929688"/>
      <use xlink:href="#ArialMT-6f" x="300.146484"/>
      <use xlink:href="#ArialMT-72" x="355.761719"/>
     </g>
    </g>
    <g id="patch_10">
     <path d="M 474.519531 56.093281 
L 496.519531 56.093281 
L 496.519531 48.393281 
L 474.519531 48.393281 
z
" style="fill: #0173b2; fill-opacity: 0.2; stroke: #0173b2; stroke-opacity: 0.2; stroke-width: 4; stroke-linejoin: miter"/>
    </g>
    <g id="text_17">
     <!-- likelihood scaled -->
     <g style="fill: #262626" transform="translate(505.319531 56.093281) scale(0.11 -0.11)">
      <defs>
       <path id="ArialMT-6c" d="M 409 0 
L 409 4581 
L 972 4581 
L 972 0 
L 409 0 
z
" transform="scale(0.015625)"/>
       <path id="ArialMT-6b" d="M 425 0 
L 425 4581 
L 988 4581 
L 988 1969 
L 2319 3319 
L 3047 3319 
L 1778 2088 
L 3175 0 
L 2481 0 
L 1384 1697 
L 988 1316 
L 988 0 
L 425 0 
z
" transform="scale(0.015625)"/>
       <path id="ArialMT-68" d="M 422 0 
L 422 4581 
L 984 4581 
L 984 2938 
Q 1378 3394 1978 3394 
Q 2347 3394 2619 3248 
Q 2891 3103 3008 2847 
Q 3125 2591 3125 2103 
L 3125 0 
L 2563 0 
L 2563 2103 
Q 2563 2525 2380 2717 
Q 2197 2909 1863 2909 
Q 1613 2909 1392 2779 
Q 1172 2650 1078 2428 
Q 984 2206 984 1816 
L 984 0 
L 422 0 
z
" transform="scale(0.015625)"/>
       <path id="ArialMT-20" transform="scale(0.015625)"/>
       <path id="ArialMT-63" d="M 2588 1216 
L 3141 1144 
Q 3050 572 2676 248 
Q 2303 -75 1759 -75 
Q 1078 -75 664 370 
Q 250 816 250 1647 
Q 250 2184 428 2587 
Q 606 2991 970 3192 
Q 1334 3394 1763 3394 
Q 2303 3394 2647 3120 
Q 2991 2847 3088 2344 
L 2541 2259 
Q 2463 2594 2264 2762 
Q 2066 2931 1784 2931 
Q 1359 2931 1093 2626 
Q 828 2322 828 1663 
Q 828 994 1084 691 
Q 1341 388 1753 388 
Q 2084 388 2306 591 
Q 2528 794 2588 1216 
z
" transform="scale(0.015625)"/>
       <path id="ArialMT-61" d="M 2588 409 
Q 2275 144 1986 34 
Q 1697 -75 1366 -75 
Q 819 -75 525 192 
Q 231 459 231 875 
Q 231 1119 342 1320 
Q 453 1522 633 1644 
Q 813 1766 1038 1828 
Q 1203 1872 1538 1913 
Q 2219 1994 2541 2106 
Q 2544 2222 2544 2253 
Q 2544 2597 2384 2738 
Q 2169 2928 1744 2928 
Q 1347 2928 1158 2789 
Q 969 2650 878 2297 
L 328 2372 
Q 403 2725 575 2942 
Q 747 3159 1072 3276 
Q 1397 3394 1825 3394 
Q 2250 3394 2515 3294 
Q 2781 3194 2906 3042 
Q 3031 2891 3081 2659 
Q 3109 2516 3109 2141 
L 3109 1391 
Q 3109 606 3145 398 
Q 3181 191 3288 0 
L 2700 0 
Q 2613 175 2588 409 
z
M 2541 1666 
Q 2234 1541 1622 1453 
Q 1275 1403 1131 1340 
Q 988 1278 909 1158 
Q 831 1038 831 891 
Q 831 666 1001 516 
Q 1172 366 1500 366 
Q 1825 366 2078 508 
Q 2331 650 2450 897 
Q 2541 1088 2541 1459 
L 2541 1666 
z
" transform="scale(0.015625)"/>
      </defs>
      <use xlink:href="#ArialMT-6c"/>
      <use xlink:href="#ArialMT-69" x="22.216797"/>
      <use xlink:href="#ArialMT-6b" x="44.433594"/>
      <use xlink:href="#ArialMT-65" x="94.433594"/>
      <use xlink:href="#ArialMT-6c" x="150.048828"/>
      <use xlink:href="#ArialMT-69" x="172.265625"/>
      <use xlink:href="#ArialMT-68" x="194.482422"/>
      <use xlink:href="#ArialMT-6f" x="250.097656"/>
      <use xlink:href="#ArialMT-6f" x="305.712891"/>
      <use xlink:href="#ArialMT-64" x="361.328125"/>
      <use xlink:href="#ArialMT-20" x="416.943359"/>
      <use xlink:href="#ArialMT-73" x="444.726562"/>
      <use xlink:href="#ArialMT-63" x="494.726562"/>
      <use xlink:href="#ArialMT-61" x="544.726562"/>
      <use xlink:href="#ArialMT-6c" x="600.341797"/>
      <use xlink:href="#ArialMT-65" x="622.558594"/>
      <use xlink:href="#ArialMT-64" x="678.173828"/>
     </g>
    </g>
   </g>
  </g>
 </g>
 <defs>
  <clipPath id="pf0f0322f08">
   <rect x="37.932031" y="7.2" width="558" height="332.64"/>
  </clipPath>
 </defs>
</svg>