<?xml version="1.0" encoding="utf-8" standalone="no"?>
<!DOCTYPE svg PUBLIC "-//W3C//DTD SVG 1.1//EN"
  "http://www.w3.org/Graphics/SVG/1.1/DTD/svg11.dtd">
<svg xmlns:xlink="http://www.w3.org/1999/xlink" width="418.448105pt" height="353.211875pt" viewBox="0 0 418.448105 353.211875" xmlns="http://www.w3.org/2000/svg" version="1.1">
 <metadata>
  <rdf:RDF xmlns:dc="http://purl.org/dc/elements/1.1/" xmlns:cc="http://creativecommons.org/ns#" xmlns:rdf="http://www.w3.org/1999/02/22-rdf-syntax-ns#">
   <cc:Work>
    <dc:type rdf:resource="http://purl.org/dc/dcmitype/StillImage"/>
    <dc:date>2023-05-08T00:11:12.146016</dc:date>
    <dc:format>image/svg+xml</dc:format>
    <dc:creator>
     <cc:Agent>
      <dc:title>Matplotlib v3.7.1, https://matplotlib.org/</dc:title>
     </cc:Agent>
    </dc:creator>
   </cc:Work>
  </rdf:RDF>
 </metadata>
 <defs>
  <style type="text/css">*{stroke-linejoin: round; stroke-linecap: butt}</style>
 </defs>
 <g id="figure_1">
  <g id="patch_1">
   <path d="M 0 353.211875 
L 418.448105 353.211875 
L 418.448105 0 
L 0 0 
z
" style="fill: #ffffff"/>
  </g>
  <g id="axes_1">
   <g id="patch_2">
    <path d="M 52.0975 317.22 
L 341.382505 317.22 
L 341.382505 7.2 
L 52.0975 7.2 
z
" style="fill: #eeeeee"/>
   </g>
   <g id="patch_3">
    <path d="M 100.311667 467.06515 
L 100.311667 467.06515 
L 100.311667 467.06515 
L 100.311667 467.06515 
z
" clip-path="url(#p06c776d86b)" style="fill: #4586ac; stroke: #343434; stroke-linejoin: miter"/>
   </g>
   <g id="PolyCollection_1">
    <defs>
     <path id="m4a9577f758" d="M 81.134574 -91.630188 
L 80.917427 -91.630188 
L 80.8776 -93.025923 
L 80.826143 -94.421658 
L 80.760687 -95.817393 
L 80.678669 -97.213128 
L 80.577401 -98.608863 
L 80.454148 -100.004598 
L 80.306227 -101.400333 
L 80.131135 -102.796068 
L 79.926683 -104.191803 
L 79.691155 -105.587538 
L 79.423462 -106.983273 
L 79.123294 -108.379008 
L 78.791247 -109.774743 
L 78.428902 -111.170478 
L 78.038843 -112.566213 
L 77.624582 -113.961948 
L 77.190395 -115.357683 
L 76.741051 -116.753418 
L 76.281456 -118.149153 
L 75.816243 -119.544888 
L 75.349341 -120.940623 
L 74.883583 -122.336358 
L 74.42041 -123.732093 
L 73.959718 -125.127828 
L 73.499874 -126.523563 
L 73.03794 -127.919298 
L 72.57006 -129.315033 
L 72.092009 -130.710768 
L 71.599827 -132.106503 
L 71.090486 -133.502238 
L 70.56251 -134.897973 
L 70.016502 -136.293708 
L 69.455502 -137.689443 
L 68.88516 -139.085178 
L 68.313686 -140.480913 
L 67.751575 -141.876648 
L 67.211119 -143.272383 
L 66.705714 -144.668118 
L 66.249027 -146.063853 
L 65.854036 -147.459588 
L 65.532062 -148.855323 
L 65.291831 -150.251058 
L 65.138701 -151.646793 
L 65.074108 -153.042528 
L 65.095338 -154.438263 
L 65.195658 -155.833998 
L 65.364822 -157.229733 
L 65.589922 -158.625468 
L 65.856498 -160.021203 
L 66.149797 -161.416938 
L 66.456048 -162.812673 
L 66.763592 -164.208408 
L 67.063764 -165.604143 
L 67.35141 -166.999878 
L 67.625011 -168.395613 
L 67.886408 -169.791348 
L 68.140183 -171.187083 
L 68.392787 -172.582818 
L 68.651535 -173.978553 
L 68.923592 -175.374288 
L 69.215063 -176.770023 
L 69.530274 -178.165758 
L 69.871315 -179.561493 
L 70.237861 -180.957228 
L 70.627266 -182.352963 
L 71.034905 -183.748698 
L 71.454687 -185.144433 
L 71.879702 -186.540168 
L 72.302913 -187.935903 
L 72.717832 -189.331638 
L 73.119115 -190.727373 
L 73.503033 -192.123108 
L 73.867759 -193.518843 
L 74.213462 -194.914578 
L 74.542195 -196.310313 
L 74.857582 -197.706048 
L 75.164345 -199.101783 
L 75.467715 -200.497518 
L 75.772797 -201.893253 
L 76.083953 -203.288988 
L 76.404284 -204.684723 
L 76.735258 -206.080458 
L 77.076527 -207.476193 
L 77.425954 -208.871928 
L 77.779824 -210.267663 
L 78.133218 -211.663398 
L 78.480494 -213.059133 
L 78.815803 -214.454868 
L 79.1336 -215.850603 
L 79.42907 -217.246338 
L 79.698458 -218.642073 
L 79.939255 -220.037808 
L 80.15026 -221.433543 
L 80.331516 -222.829278 
L 80.484154 -224.225013 
L 80.610167 -225.620748 
L 80.712163 -227.016483 
L 80.793109 -228.412218 
L 80.856099 -229.807953 
L 81.195902 -229.807953 
L 81.195902 -229.807953 
L 81.258892 -228.412218 
L 81.339838 -227.016483 
L 81.441834 -225.620748 
L 81.567847 -224.225013 
L 81.720485 -222.829278 
L 81.901741 -221.433543 
L 82.112746 -220.037808 
L 82.353543 -218.642073 
L 82.622931 -217.246338 
L 82.918401 -215.850603 
L 83.236198 -214.454868 
L 83.571507 -213.059133 
L 83.918783 -211.663398 
L 84.272177 -210.267663 
L 84.626047 -208.871928 
L 84.975474 -207.476193 
L 85.316743 -206.080458 
L 85.647717 -204.684723 
L 85.968048 -203.288988 
L 86.279204 -201.893253 
L 86.584286 -200.497518 
L 86.887656 -199.101783 
L 87.194419 -197.706048 
L 87.509806 -196.310313 
L 87.838539 -194.914578 
L 88.184242 -193.518843 
L 88.548968 -192.123108 
L 88.932886 -190.727373 
L 89.334169 -189.331638 
L 89.749088 -187.935903 
L 90.172299 -186.540168 
L 90.597314 -185.144433 
L 91.017096 -183.748698 
L 91.424735 -182.352963 
L 91.81414 -180.957228 
L 92.180686 -179.561493 
L 92.521727 -178.165758 
L 92.836938 -176.770023 
L 93.128409 -175.374288 
L 93.400466 -173.978553 
L 93.659214 -172.582818 
L 93.911818 -171.187083 
L 94.165593 -169.791348 
L 94.42699 -168.395613 
L 94.700591 -166.999878 
L 94.988237 -165.604143 
L 95.288409 -164.208408 
L 95.595953 -162.812673 
L 95.902204 -161.416938 
L 96.195503 -160.021203 
L 96.462079 -158.625468 
L 96.687179 -157.229733 
L 96.856343 -155.833998 
L 96.956663 -154.438263 
L 96.977893 -153.042528 
L 96.9133 -151.646793 
L 96.76017 -150.251058 
L 96.519939 -148.855323 
L 96.197965 -147.459588 
L 95.802974 -146.063853 
L 95.346287 -144.668118 
L 94.840882 -143.272383 
L 94.300426 -141.876648 
L 93.738315 -140.480913 
L 93.166841 -139.085178 
L 92.596499 -137.689443 
L 92.035499 -136.293708 
L 91.489491 -134.897973 
L 90.961515 -133.502238 
L 90.452174 -132.106503 
L 89.959992 -130.710768 
L 89.481941 -129.315033 
L 89.014061 -127.919298 
L 88.552127 -126.523563 
L 88.092283 -125.127828 
L 87.631591 -123.732093 
L 87.168418 -122.336358 
L 86.70266 -120.940623 
L 86.235758 -119.544888 
L 85.770545 -118.149153 
L 85.31095 -116.753418 
L 84.861606 -115.357683 
L 84.427419 -113.961948 
L 84.013158 -112.566213 
L 83.623099 -111.170478 
L 83.260754 -109.774743 
L 82.928707 -108.379008 
L 82.628539 -106.983273 
L 82.360846 -105.587538 
L 82.125318 -104.191803 
L 81.920866 -102.796068 
L 81.745774 -101.400333 
L 81.597853 -100.004598 
L 81.4746 -98.608863 
L 81.373332 -97.213128 
L 81.291314 -95.817393 
L 81.225858 -94.421658 
L 81.174401 -93.025923 
L 81.134574 -91.630188 
z
" style="stroke: #343434; stroke-width: 2"/>
    </defs>
    <g clip-path="url(#p06c776d86b)">
     <use xlink:href="#m4a9577f758" x="0" y="353.211875" style="fill: #4586ac; stroke: #343434; stroke-width: 2"/>
    </g>
   </g>
   <g id="patch_4">
    <path d="M 100.311667 467.06515 
L 100.311667 467.06515 
L 100.311667 467.06515 
L 100.311667 467.06515 
z
" clip-path="url(#p06c776d86b)" style="fill: #921a33; stroke: #343434; stroke-linejoin: miter"/>
   </g>
   <g id="PolyCollection_2">
    <defs>
     <path id="m4089f76104" d="M 119.935814 -63.878535 
L 119.258855 -63.878535 
L 119.145623 -64.910424 
L 119.003977 -65.942312 
L 118.830013 -66.9742 
L 118.620249 -68.006089 
L 118.371908 -69.037977 
L 118.083213 -70.069866 
L 117.753633 -71.101754 
L 117.384058 -72.133643 
L 116.97687 -73.165531 
L 116.535891 -74.197419 
L 116.066187 -75.229308 
L 115.573745 -76.261196 
L 115.065047 -77.293085 
L 114.546577 -78.324973 
L 114.02433 -79.356862 
L 113.503355 -80.38875 
L 112.987423 -81.420639 
L 112.478824 -82.452527 
L 111.978351 -83.484415 
L 111.485444 -84.516304 
L 110.99849 -85.548192 
L 110.515234 -86.580081 
L 110.033235 -87.611969 
L 109.550323 -88.643858 
L 109.064997 -89.675746 
L 108.576704 -90.707635 
L 108.085998 -91.739523 
L 107.594536 -92.771411 
L 107.104946 -93.8033 
L 106.620568 -94.835188 
L 106.145116 -95.867077 
L 105.682302 -96.898965 
L 105.23546 -97.930854 
L 104.80722 -98.962742 
L 104.399275 -99.994631 
L 104.012258 -101.026519 
L 103.645754 -102.058407 
L 103.298449 -103.090296 
L 102.968397 -104.122184 
L 102.653382 -105.154073 
L 102.351335 -106.185961 
L 102.060765 -107.21785 
L 101.781141 -108.249738 
L 101.513199 -109.281627 
L 101.259132 -110.313515 
L 101.022628 -111.345403 
L 100.808762 -112.377292 
L 100.623742 -113.40918 
L 100.474517 -114.441069 
L 100.368293 -115.472957 
L 100.311988 -116.504846 
L 100.311667 -117.536734 
L 100.372012 -118.568622 
L 100.495861 -119.600511 
L 100.683875 -120.632399 
L 100.934343 -121.664288 
L 101.24317 -122.696176 
L 101.604043 -123.728065 
L 102.008782 -124.759953 
L 102.447851 -125.791842 
L 102.910987 -126.82373 
L 103.387924 -127.855618 
L 103.869121 -128.887507 
L 104.346462 -129.919395 
L 104.813839 -130.951284 
L 105.26758 -131.983172 
L 105.706671 -133.015061 
L 106.132744 -134.046949 
L 106.549828 -135.078838 
L 106.963887 -136.110726 
L 107.382177 -137.142614 
L 107.812492 -138.174503 
L 108.262361 -139.206391 
L 108.738279 -140.23828 
L 109.245033 -141.270168 
L 109.785205 -142.302057 
L 110.358862 -143.333945 
L 110.963481 -144.365834 
L 111.594094 -145.397722 
L 112.243628 -146.42961 
L 112.903403 -147.461499 
L 113.563725 -148.493387 
L 114.214533 -149.525276 
L 114.846016 -150.557164 
L 115.44918 -151.589053 
L 116.016291 -152.620941 
L 116.541209 -153.65283 
L 117.01956 -154.684718 
L 117.448788 -155.716606 
L 117.828077 -156.748495 
L 118.158176 -157.780383 
L 118.441156 -158.812272 
L 118.680127 -159.84416 
L 118.878936 -160.876049 
L 119.041886 -161.907937 
L 119.173468 -162.939825 
L 119.278149 -163.971714 
L 119.360193 -165.003602 
L 119.423539 -166.035491 
L 119.77113 -166.035491 
L 119.77113 -166.035491 
L 119.834476 -165.003602 
L 119.91652 -163.971714 
L 120.021201 -162.939825 
L 120.152783 -161.907937 
L 120.315733 -160.876049 
L 120.514542 -159.84416 
L 120.753513 -158.812272 
L 121.036493 -157.780383 
L 121.366592 -156.748495 
L 121.745881 -155.716606 
L 122.175109 -154.684718 
L 122.65346 -153.65283 
L 123.178378 -152.620941 
L 123.745489 -151.589053 
L 124.348653 -150.557164 
L 124.980136 -149.525276 
L 125.630944 -148.493387 
L 126.291266 -147.461499 
L 126.951041 -146.42961 
L 127.600575 -145.397722 
L 128.231188 -144.365834 
L 128.835807 -143.333945 
L 129.409464 -142.302057 
L 129.949636 -141.270168 
L 130.45639 -140.23828 
L 130.932308 -139.206391 
L 131.382177 -138.174503 
L 131.812492 -137.142614 
L 132.230782 -136.110726 
L 132.644841 -135.078838 
L 133.061925 -134.046949 
L 133.487998 -133.015061 
L 133.927089 -131.983172 
L 134.38083 -130.951284 
L 134.848207 -129.919395 
L 135.325548 -128.887507 
L 135.806745 -127.855618 
L 136.283682 -126.82373 
L 136.746818 -125.791842 
L 137.185887 -124.759953 
L 137.590626 -123.728065 
L 137.951499 -122.696176 
L 138.260326 -121.664288 
L 138.510794 -120.632399 
L 138.698808 -119.600511 
L 138.822657 -118.568622 
L 138.883002 -117.536734 
L 138.882681 -116.504846 
L 138.826376 -115.472957 
L 138.720152 -114.441069 
L 138.570927 -113.40918 
L 138.385907 -112.377292 
L 138.172041 -111.345403 
L 137.935537 -110.313515 
L 137.68147 -109.281627 
L 137.413528 -108.249738 
L 137.133904 -107.21785 
L 136.843334 -106.185961 
L 136.541287 -105.154073 
L 136.226272 -104.122184 
L 135.89622 -103.090296 
L 135.548915 -102.058407 
L 135.182411 -101.026519 
L 134.795394 -99.994631 
L 134.387449 -98.962742 
L 133.959209 -97.930854 
L 133.512367 -96.898965 
L 133.049553 -95.867077 
L 132.574101 -94.835188 
L 132.089723 -93.8033 
L 131.600133 -92.771411 
L 131.108671 -91.739523 
L 130.617965 -90.707635 
L 130.129672 -89.675746 
L 129.644346 -88.643858 
L 129.161434 -87.611969 
L 128.679435 -86.580081 
L 128.196179 -85.548192 
L 127.709225 -84.516304 
L 127.216318 -83.484415 
L 126.715845 -82.452527 
L 126.207246 -81.420639 
L 125.691314 -80.38875 
L 125.170339 -79.356862 
L 124.648092 -78.324973 
L 124.129622 -77.293085 
L 123.620924 -76.261196 
L 123.128482 -75.229308 
L 122.658778 -74.197419 
L 122.217799 -73.165531 
L 121.810611 -72.133643 
L 121.441036 -71.101754 
L 121.111456 -70.069866 
L 120.822761 -69.037977 
L 120.57442 -68.006089 
L 120.364656 -66.9742 
L 120.190692 -65.942312 
L 120.049046 -64.910424 
L 119.935814 -63.878535 
z
" style="stroke: #343434; stroke-width: 2"/>
    </defs>
    <g clip-path="url(#p06c776d86b)">
     <use xlink:href="#m4089f76104" x="0" y="353.211875" style="fill: #921a33; stroke: #343434; stroke-width: 2"/>
    </g>
   </g>
   <g id="PolyCollection_3">
    <defs>
     <path id="me810a92c40" d="M 177.553189 -189.515224 
L 177.355482 -189.515224 
L 177.319638 -190.953657 
L 177.274514 -192.39209 
L 177.218946 -193.830522 
L 177.151896 -195.268955 
L 177.072463 -196.707388 
L 176.979822 -198.14582 
L 176.873113 -199.584253 
L 176.751267 -201.022685 
L 176.61281 -202.461118 
L 176.455676 -203.899551 
L 176.277093 -205.337983 
L 176.073583 -206.776416 
L 175.841128 -208.214849 
L 175.575526 -209.653281 
L 175.272894 -211.091714 
L 174.930287 -212.530147 
L 174.546315 -213.968579 
L 174.121659 -215.407012 
L 173.659348 -216.845445 
L 173.164733 -218.283877 
L 172.645095 -219.72231 
L 172.108916 -221.160743 
L 171.564912 -222.599175 
L 171.020963 -224.037608 
L 170.483125 -225.476041 
L 169.9549 -226.914473 
L 169.436908 -228.352906 
L 168.927024 -229.791339 
L 168.420978 -231.229771 
L 167.91332 -232.668204 
L 167.398573 -234.106636 
L 166.872394 -235.545069 
L 166.332523 -236.983502 
L 165.77938 -238.421934 
L 165.216222 -239.860367 
L 164.648858 -241.2988 
L 164.085025 -242.737232 
L 163.533547 -244.175665 
L 163.003485 -245.614098 
L 162.503404 -247.05253 
L 162.040914 -248.490963 
L 161.62249 -249.929396 
L 161.253584 -251.367828 
L 160.938911 -252.806261 
L 160.682799 -254.244694 
L 160.489464 -255.683126 
L 160.363124 -257.121559 
L 160.307889 -258.559992 
L 160.327448 -259.998424 
L 160.424613 -261.436857 
L 160.600813 -262.87529 
L 160.855649 -264.313722 
L 161.186582 -265.752155 
L 161.588829 -267.190587 
L 162.055466 -268.62902 
L 162.577731 -270.067453 
L 163.145485 -271.505885 
L 163.747774 -272.944318 
L 164.373452 -274.382751 
L 165.011801 -275.821183 
L 165.65312 -277.259616 
L 166.289229 -278.698049 
L 166.913861 -280.136481 
L 167.522901 -281.574914 
L 168.114424 -283.013347 
L 168.688532 -284.451779 
L 169.246963 -285.890212 
L 169.792519 -287.328645 
L 170.328353 -288.767077 
L 170.857204 -290.20551 
L 171.380695 -291.643943 
L 171.898787 -293.082375 
L 172.409488 -294.520808 
L 172.908873 -295.959241 
L 173.39143 -297.397673 
L 173.850674 -298.836106 
L 174.279949 -300.274538 
L 174.673291 -301.712971 
L 175.026207 -303.151404 
L 175.336256 -304.589836 
L 175.603347 -306.028269 
L 175.829702 -307.466702 
L 176.019526 -308.905134 
L 176.178433 -310.343567 
L 176.312738 -311.782 
L 176.428734 -313.220432 
L 176.532053 -314.658865 
L 176.627204 -316.097298 
L 176.717322 -317.53573 
L 176.804143 -318.974163 
L 176.888163 -320.412596 
L 176.968938 -321.851028 
L 177.045439 -323.289461 
L 177.116414 -324.727894 
L 177.18069 -326.166326 
L 177.237395 -327.604759 
L 177.286075 -329.043192 
L 177.326722 -330.481624 
L 177.359727 -331.920057 
L 177.548944 -331.920057 
L 177.548944 -331.920057 
L 177.581949 -330.481624 
L 177.622596 -329.043192 
L 177.671276 -327.604759 
L 177.727981 -326.166326 
L 177.792257 -324.727894 
L 177.863232 -323.289461 
L 177.939733 -321.851028 
L 178.020508 -320.412596 
L 178.104528 -318.974163 
L 178.191349 -317.53573 
L 178.281467 -316.097298 
L 178.376618 -314.658865 
L 178.479937 -313.220432 
L 178.595933 -311.782 
L 178.730238 -310.343567 
L 178.889145 -308.905134 
L 179.078969 -307.466702 
L 179.305324 -306.028269 
L 179.572415 -304.589836 
L 179.882464 -303.151404 
L 180.23538 -301.712971 
L 180.628722 -300.274538 
L 181.057997 -298.836106 
L 181.517241 -297.397673 
L 181.999798 -295.959241 
L 182.499183 -294.520808 
L 183.009884 -293.082375 
L 183.527976 -291.643943 
L 184.051467 -290.20551 
L 184.580318 -288.767077 
L 185.116152 -287.328645 
L 185.661708 -285.890212 
L 186.220139 -284.451779 
L 186.794247 -283.013347 
L 187.38577 -281.574914 
L 187.99481 -280.136481 
L 188.619442 -278.698049 
L 189.255551 -277.259616 
L 189.89687 -275.821183 
L 190.535219 -274.382751 
L 191.160897 -272.944318 
L 191.763186 -271.505885 
L 192.33094 -270.067453 
L 192.853205 -268.62902 
L 193.319842 -267.190587 
L 193.722089 -265.752155 
L 194.053022 -264.313722 
L 194.307858 -262.87529 
L 194.484058 -261.436857 
L 194.581223 -259.998424 
L 194.600782 -258.559992 
L 194.545547 -257.121559 
L 194.419207 -255.683126 
L 194.225872 -254.244694 
L 193.96976 -252.806261 
L 193.655087 -251.367828 
L 193.286181 -249.929396 
L 192.867757 -248.490963 
L 192.405267 -247.05253 
L 191.905186 -245.614098 
L 191.375124 -244.175665 
L 190.823646 -242.737232 
L 190.259813 -241.2988 
L 189.692449 -239.860367 
L 189.129291 -238.421934 
L 188.576148 -236.983502 
L 188.036277 -235.545069 
L 187.510098 -234.106636 
L 186.995351 -232.668204 
L 186.487693 -231.229771 
L 185.981647 -229.791339 
L 185.471763 -228.352906 
L 184.953771 -226.914473 
L 184.425546 -225.476041 
L 183.887708 -224.037608 
L 183.343759 -222.599175 
L 182.799755 -221.160743 
L 182.263576 -219.72231 
L 181.743938 -218.283877 
L 181.249323 -216.845445 
L 180.787012 -215.407012 
L 180.362356 -213.968579 
L 179.978384 -212.530147 
L 179.635777 -211.091714 
L 179.333145 -209.653281 
L 179.067543 -208.214849 
L 178.835088 -206.776416 
L 178.631578 -205.337983 
L 178.452995 -203.899551 
L 178.295861 -202.461118 
L 178.157404 -201.022685 
L 178.035558 -199.584253 
L 177.928849 -198.14582 
L 177.836208 -196.707388 
L 177.756775 -195.268955 
L 177.689725 -193.830522 
L 177.634157 -192.39209 
L 177.589033 -190.953657 
L 177.553189 -189.515224 
z
" style="stroke: #343434; stroke-width: 2"/>
    </defs>
    <g clip-path="url(#p06c776d86b)">
     <use xlink:href="#me810a92c40" x="0" y="353.211875" style="fill: #4586ac; stroke: #343434; stroke-width: 2"/>
    </g>
   </g>
   <g id="PolyCollection_4">
    <defs>
     <path id="m4df856aaab" d="M 216.136413 -136.990457 
L 215.914926 -136.990457 
L 215.879419 -138.188868 
L 215.836069 -139.387278 
L 215.784275 -140.585689 
L 215.723682 -141.7841 
L 215.654207 -142.98251 
L 215.576029 -144.180921 
L 215.489522 -145.379331 
L 215.395135 -146.577742 
L 215.293216 -147.776153 
L 215.183816 -148.974563 
L 215.066475 -150.172974 
L 214.940052 -151.371384 
L 214.80262 -152.569795 
L 214.651463 -153.768206 
L 214.483195 -154.966616 
L 214.294008 -156.165027 
L 214.080012 -157.363437 
L 213.837653 -158.561848 
L 213.56412 -159.760259 
L 213.257711 -160.958669 
L 212.918071 -162.15708 
L 212.546294 -163.35549 
L 212.144847 -164.553901 
L 211.717354 -165.752312 
L 211.268278 -166.950722 
L 210.802557 -168.149133 
L 210.325266 -169.347543 
L 209.841357 -170.545954 
L 209.355505 -171.744365 
L 208.872062 -172.942775 
L 208.395071 -174.141186 
L 207.9283 -175.339596 
L 207.475208 -176.538007 
L 207.038809 -177.736418 
L 206.621392 -178.934828 
L 206.224126 -180.133239 
L 205.846602 -181.331649 
L 205.486419 -182.53006 
L 205.138923 -183.728471 
L 204.79721 -184.926881 
L 204.452473 -186.125292 
L 204.094709 -187.323702 
L 203.713744 -188.522113 
L 203.300469 -189.720524 
L 202.848127 -190.918934 
L 202.353461 -192.117345 
L 201.817558 -193.315755 
L 201.246233 -194.514166 
L 200.649889 -195.712577 
L 200.042843 -196.910987 
L 199.442204 -198.109398 
L 198.866436 -199.307808 
L 198.33381 -200.506219 
L 197.860928 -201.70463 
L 197.461511 -202.90304 
L 197.145593 -204.101451 
L 196.919177 -205.299861 
L 196.784385 -206.498272 
L 196.740003 -207.696683 
L 196.782323 -208.895093 
L 196.906131 -210.093504 
L 197.105656 -211.291914 
L 197.375369 -212.490325 
L 197.710507 -213.688736 
L 198.107278 -214.887146 
L 198.562757 -216.085557 
L 199.074518 -217.283967 
L 199.640114 -218.482378 
L 200.2565 -219.680789 
L 200.919538 -220.879199 
L 201.623661 -222.07761 
L 202.361776 -223.27602 
L 203.12542 -224.474431 
L 203.905144 -225.672841 
L 204.691082 -226.871252 
L 205.473596 -228.069663 
L 206.243912 -229.268073 
L 206.994659 -230.466484 
L 207.720209 -231.664894 
L 208.416809 -232.863305 
L 209.082471 -234.061716 
L 209.716667 -235.260126 
L 210.319875 -236.458537 
L 210.893074 -237.656947 
L 211.437253 -238.855358 
L 211.953025 -240.053769 
L 212.440385 -241.252179 
L 212.898637 -242.45059 
L 213.326494 -243.649 
L 213.722303 -244.847411 
L 214.084345 -246.045822 
L 214.411165 -247.244232 
L 214.701856 -248.442643 
L 214.956269 -249.641053 
L 215.175127 -250.839464 
L 215.36002 -252.037875 
L 215.513311 -253.236285 
L 215.63797 -254.434696 
L 215.737367 -255.633106 
L 216.313972 -255.633106 
L 216.313972 -255.633106 
L 216.413369 -254.434696 
L 216.538028 -253.236285 
L 216.691319 -252.037875 
L 216.876212 -250.839464 
L 217.09507 -249.641053 
L 217.349483 -248.442643 
L 217.640174 -247.244232 
L 217.966994 -246.045822 
L 218.329036 -244.847411 
L 218.724845 -243.649 
L 219.152702 -242.45059 
L 219.610954 -241.252179 
L 220.098314 -240.053769 
L 220.614086 -238.855358 
L 221.158265 -237.656947 
L 221.731464 -236.458537 
L 222.334672 -235.260126 
L 222.968868 -234.061716 
L 223.63453 -232.863305 
L 224.33113 -231.664894 
L 225.05668 -230.466484 
L 225.807427 -229.268073 
L 226.577743 -228.069663 
L 227.360257 -226.871252 
L 228.146195 -225.672841 
L 228.925919 -224.474431 
L 229.689563 -223.27602 
L 230.427678 -222.07761 
L 231.131801 -220.879199 
L 231.794839 -219.680789 
L 232.411225 -218.482378 
L 232.976821 -217.283967 
L 233.488582 -216.085557 
L 233.944061 -214.887146 
L 234.340832 -213.688736 
L 234.67597 -212.490325 
L 234.945683 -211.291914 
L 235.145208 -210.093504 
L 235.269016 -208.895093 
L 235.311336 -207.696683 
L 235.266954 -206.498272 
L 235.132162 -205.299861 
L 234.905746 -204.101451 
L 234.589828 -202.90304 
L 234.190411 -201.70463 
L 233.717529 -200.506219 
L 233.184903 -199.307808 
L 232.609135 -198.109398 
L 232.008496 -196.910987 
L 231.40145 -195.712577 
L 230.805106 -194.514166 
L 230.233781 -193.315755 
L 229.697878 -192.117345 
L 229.203212 -190.918934 
L 228.75087 -189.720524 
L 228.337595 -188.522113 
L 227.95663 -187.323702 
L 227.598866 -186.125292 
L 227.254129 -184.926881 
L 226.912416 -183.728471 
L 226.56492 -182.53006 
L 226.204737 -181.331649 
L 225.827213 -180.133239 
L 225.429947 -178.934828 
L 225.01253 -177.736418 
L 224.576131 -176.538007 
L 224.123039 -175.339596 
L 223.656268 -174.141186 
L 223.179277 -172.942775 
L 222.695834 -171.744365 
L 222.209982 -170.545954 
L 221.726073 -169.347543 
L 221.248782 -168.149133 
L 220.783061 -166.950722 
L 220.333985 -165.752312 
L 219.906492 -164.553901 
L 219.505045 -163.35549 
L 219.133268 -162.15708 
L 218.793628 -160.958669 
L 218.487219 -159.760259 
L 218.213686 -158.561848 
L 217.971327 -157.363437 
L 217.757331 -156.165027 
L 217.568144 -154.966616 
L 217.399876 -153.768206 
L 217.248719 -152.569795 
L 217.111287 -151.371384 
L 216.984864 -150.172974 
L 216.867523 -148.974563 
L 216.758123 -147.776153 
L 216.656204 -146.577742 
L 216.561817 -145.379331 
L 216.47531 -144.180921 
L 216.397132 -142.98251 
L 216.327657 -141.7841 
L 216.267064 -140.585689 
L 216.21527 -139.387278 
L 216.17192 -138.188868 
L 216.136413 -136.990457 
z
" style="stroke: #343434; stroke-width: 2"/>
    </defs>
    <g clip-path="url(#p06c776d86b)">
     <use xlink:href="#m4df856aaab" x="0" y="353.211875" style="fill: #921a33; stroke: #343434; stroke-width: 2"/>
    </g>
   </g>
   <g id="PolyCollection_5">
    <defs>
     <path id="m1f1d64a3a0" d="M 274.096943 -82.227096 
L 273.668398 -82.227096 
L 273.600789 -83.778553 
L 273.517189 -85.330009 
L 273.41553 -86.881465 
L 273.293961 -88.432921 
L 273.150973 -89.984378 
L 272.985541 -91.535834 
L 272.797236 -93.08729 
L 272.586307 -94.638746 
L 272.353715 -96.190202 
L 272.101114 -97.741659 
L 271.830756 -99.293115 
L 271.545341 -100.844571 
L 271.247804 -102.396027 
L 270.941057 -103.947484 
L 270.627718 -105.49894 
L 270.309833 -107.050396 
L 269.988643 -108.601852 
L 269.664407 -110.153308 
L 269.336312 -111.704765 
L 269.002488 -113.256221 
L 268.660132 -114.807677 
L 268.305753 -116.359133 
L 267.935495 -117.91059 
L 267.545551 -119.462046 
L 267.132601 -121.013502 
L 266.694253 -122.564958 
L 266.229437 -124.116414 
L 265.738709 -125.667871 
L 265.224436 -127.219327 
L 264.690824 -128.770783 
L 264.143808 -130.322239 
L 263.590777 -131.873696 
L 263.040189 -133.425152 
L 262.50111 -134.976608 
L 261.982714 -136.528064 
L 261.493827 -138.07952 
L 261.042537 -139.630977 
L 260.635931 -141.182433 
L 260.279962 -142.733889 
L 259.979451 -144.285345 
L 259.738195 -145.836802 
L 259.559142 -147.388258 
L 259.444565 -148.939714 
L 259.396203 -150.49117 
L 259.4153 -152.042626 
L 259.50254 -153.594083 
L 259.657861 -155.145539 
L 259.880192 -156.696995 
L 260.16714 -158.248451 
L 260.514718 -159.799908 
L 260.917152 -161.351364 
L 261.366852 -162.90282 
L 261.854554 -164.454276 
L 262.369679 -166.005732 
L 262.900852 -167.557189 
L 263.436564 -169.108645 
L 263.965888 -170.660101 
L 264.479177 -172.211557 
L 264.968672 -173.763014 
L 265.428932 -175.31447 
L 265.85706 -176.865926 
L 266.252695 -178.417382 
L 266.617771 -179.968838 
L 266.956094 -181.520295 
L 267.272766 -183.071751 
L 267.57355 -184.623207 
L 267.864216 -186.174663 
L 268.149961 -187.72612 
L 268.434944 -189.277576 
L 268.721972 -190.829032 
L 269.012368 -192.380488 
L 269.306 -193.931944 
L 269.601473 -195.483401 
L 269.896428 -197.034857 
L 270.187909 -198.586313 
L 270.47276 -200.137769 
L 270.747987 -201.689226 
L 271.011055 -203.240682 
L 271.260094 -204.792138 
L 271.493998 -206.343594 
L 271.712419 -207.89505 
L 271.915669 -209.446507 
L 272.104563 -210.997963 
L 272.280224 -212.549419 
L 272.44388 -214.100875 
L 272.596692 -215.652332 
L 272.739621 -217.203788 
L 272.873354 -218.755244 
L 272.998277 -220.3067 
L 273.114511 -221.858156 
L 273.221975 -223.409613 
L 273.320477 -224.961069 
L 273.409806 -226.512525 
L 273.489819 -228.063981 
L 273.560506 -229.615438 
L 273.622031 -231.166894 
L 273.674743 -232.71835 
L 273.719171 -234.269806 
L 273.75599 -235.821262 
L 274.009351 -235.821262 
L 274.009351 -235.821262 
L 274.04617 -234.269806 
L 274.090598 -232.71835 
L 274.14331 -231.166894 
L 274.204835 -229.615438 
L 274.275522 -228.063981 
L 274.355535 -226.512525 
L 274.444864 -224.961069 
L 274.543366 -223.409613 
L 274.65083 -221.858156 
L 274.767064 -220.3067 
L 274.891987 -218.755244 
L 275.02572 -217.203788 
L 275.168649 -215.652332 
L 275.321461 -214.100875 
L 275.485117 -212.549419 
L 275.660778 -210.997963 
L 275.849672 -209.446507 
L 276.052922 -207.89505 
L 276.271343 -206.343594 
L 276.505247 -204.792138 
L 276.754286 -203.240682 
L 277.017354 -201.689226 
L 277.292581 -200.137769 
L 277.577432 -198.586313 
L 277.868913 -197.034857 
L 278.163868 -195.483401 
L 278.459341 -193.931944 
L 278.752973 -192.380488 
L 279.043369 -190.829032 
L 279.330397 -189.277576 
L 279.61538 -187.72612 
L 279.901125 -186.174663 
L 280.191791 -184.623207 
L 280.492575 -183.071751 
L 280.809247 -181.520295 
L 281.14757 -179.968838 
L 281.512646 -178.417382 
L 281.908281 -176.865926 
L 282.336409 -175.31447 
L 282.796669 -173.763014 
L 283.286164 -172.211557 
L 283.799453 -170.660101 
L 284.328777 -169.108645 
L 284.864489 -167.557189 
L 285.395662 -166.005732 
L 285.910787 -164.454276 
L 286.398489 -162.90282 
L 286.848189 -161.351364 
L 287.250623 -159.799908 
L 287.598201 -158.248451 
L 287.885149 -156.696995 
L 288.10748 -155.145539 
L 288.262801 -153.594083 
L 288.350041 -152.042626 
L 288.369138 -150.49117 
L 288.320776 -148.939714 
L 288.206199 -147.388258 
L 288.027146 -145.836802 
L 287.78589 -144.285345 
L 287.485379 -142.733889 
L 287.12941 -141.182433 
L 286.722804 -139.630977 
L 286.271514 -138.07952 
L 285.782627 -136.528064 
L 285.264231 -134.976608 
L 284.725152 -133.425152 
L 284.174564 -131.873696 
L 283.621533 -130.322239 
L 283.074517 -128.770783 
L 282.540905 -127.219327 
L 282.026632 -125.667871 
L 281.535904 -124.116414 
L 281.071088 -122.564958 
L 280.63274 -121.013502 
L 280.21979 -119.462046 
L 279.829846 -117.91059 
L 279.459588 -116.359133 
L 279.105209 -114.807677 
L 278.762853 -113.256221 
L 278.429029 -111.704765 
L 278.100934 -110.153308 
L 277.776698 -108.601852 
L 277.455508 -107.050396 
L 277.137623 -105.49894 
L 276.824284 -103.947484 
L 276.517537 -102.396027 
L 276.22 -100.844571 
L 275.934585 -99.293115 
L 275.664227 -97.741659 
L 275.411626 -96.190202 
L 275.179034 -94.638746 
L 274.968105 -93.08729 
L 274.7798 -91.535834 
L 274.614368 -89.984378 
L 274.47138 -88.432921 
L 274.349811 -86.881465 
L 274.248152 -85.330009 
L 274.164552 -83.778553 
L 274.096943 -82.227096 
z
" style="stroke: #343434; stroke-width: 2"/>
    </defs>
    <g clip-path="url(#p06c776d86b)">
     <use xlink:href="#m1f1d64a3a0" x="0" y="353.211875" style="fill: #4586ac; stroke: #343434; stroke-width: 2"/>
    </g>
   </g>
   <g id="PolyCollection_6">
    <defs>
     <path id="m01886dd667" d="M 312.612576 -50.083693 
L 312.295433 -50.083693 
L 312.243569 -51.462746 
L 312.180211 -52.841798 
L 312.104675 -54.220851 
L 312.016814 -55.599903 
L 311.917135 -56.978956 
L 311.806873 -58.358009 
L 311.687993 -59.737061 
L 311.563124 -61.116114 
L 311.43541 -62.495166 
L 311.308298 -63.874219 
L 311.1853 -65.253271 
L 311.069729 -66.632324 
L 310.964481 -68.011376 
L 310.871853 -69.390429 
L 310.793436 -70.769482 
L 310.730064 -72.148534 
L 310.681815 -73.527587 
L 310.648019 -74.906639 
L 310.627253 -76.285692 
L 310.617285 -77.664744 
L 310.61496 -79.043797 
L 310.616034 -80.42285 
L 310.614989 -81.801902 
L 310.604873 -83.180955 
L 310.577227 -84.560007 
L 310.522154 -85.93906 
L 310.428575 -87.318112 
L 310.284689 -88.697165 
L 310.078634 -90.076217 
L 309.799297 -91.45527 
L 309.437208 -92.834323 
L 308.985441 -94.213375 
L 308.440399 -95.592428 
L 307.802422 -96.97148 
L 307.076114 -98.350533 
L 306.270346 -99.729585 
L 305.397916 -101.108638 
L 304.47487 -102.487691 
L 303.519538 -103.866743 
L 302.551367 -105.245796 
L 301.589646 -106.624848 
L 300.652252 -108.003901 
L 299.754527 -109.382953 
L 298.908426 -110.762006 
L 298.121996 -112.141058 
L 297.399286 -113.520111 
L 296.74068 -114.899164 
L 296.143645 -116.278216 
L 295.603816 -117.657269 
L 295.116289 -119.036321 
L 294.676979 -120.415374 
L 294.283869 -121.794426 
L 293.937974 -123.173479 
L 293.643881 -124.552532 
L 293.409764 -125.931584 
L 293.246843 -127.310637 
L 293.168338 -128.689689 
L 293.188014 -130.068742 
L 293.318531 -131.447794 
L 293.569778 -132.826847 
L 293.947448 -134.205899 
L 294.452018 -135.584952 
L 295.078292 -136.964005 
L 295.815547 -138.343057 
L 296.648247 -139.72211 
L 297.557204 -141.101162 
L 298.521022 -142.480215 
L 299.517615 -143.859267 
L 300.525601 -145.23832 
L 301.52545 -146.617372 
L 302.500264 -147.996425 
L 303.436197 -149.375478 
L 304.322549 -150.75453 
L 305.151609 -152.133583 
L 305.918361 -153.512635 
L 306.620135 -154.891688 
L 307.256285 -156.27074 
L 307.827908 -157.649793 
L 308.337616 -159.028846 
L 308.78933 -160.407898 
L 309.188057 -161.786951 
L 309.539624 -163.166003 
L 309.850348 -164.545056 
L 310.126661 -165.924108 
L 310.374711 -167.303161 
L 310.599989 -168.682213 
L 310.807034 -170.061266 
L 310.999249 -171.440319 
L 311.17885 -172.819371 
L 311.346952 -174.198424 
L 311.503773 -175.577476 
L 311.6489 -176.956529 
L 311.781601 -178.335581 
L 311.901104 -179.714634 
L 312.006837 -181.093687 
L 312.098583 -182.472739 
L 312.176563 -183.851792 
L 312.241426 -185.230844 
L 312.294199 -186.609897 
L 312.61381 -186.609897 
L 312.61381 -186.609897 
L 312.666583 -185.230844 
L 312.731446 -183.851792 
L 312.809426 -182.472739 
L 312.901172 -181.093687 
L 313.006905 -179.714634 
L 313.126408 -178.335581 
L 313.259109 -176.956529 
L 313.404236 -175.577476 
L 313.561057 -174.198424 
L 313.729159 -172.819371 
L 313.90876 -171.440319 
L 314.100975 -170.061266 
L 314.30802 -168.682213 
L 314.533298 -167.303161 
L 314.781348 -165.924108 
L 315.057661 -164.545056 
L 315.368385 -163.166003 
L 315.719952 -161.786951 
L 316.118679 -160.407898 
L 316.570393 -159.028846 
L 317.080101 -157.649793 
L 317.651724 -156.27074 
L 318.287874 -154.891688 
L 318.989648 -153.512635 
L 319.7564 -152.133583 
L 320.58546 -150.75453 
L 321.471812 -149.375478 
L 322.407745 -147.996425 
L 323.382559 -146.617372 
L 324.382408 -145.23832 
L 325.390394 -143.859267 
L 326.386987 -142.480215 
L 327.350805 -141.101162 
L 328.259762 -139.72211 
L 329.092462 -138.343057 
L 329.829717 -136.964005 
L 330.455991 -135.584952 
L 330.960561 -134.205899 
L 331.338231 -132.826847 
L 331.589478 -131.447794 
L 331.719995 -130.068742 
L 331.739672 -128.689689 
L 331.661166 -127.310637 
L 331.498245 -125.931584 
L 331.264128 -124.552532 
L 330.970035 -123.173479 
L 330.62414 -121.794426 
L 330.23103 -120.415374 
L 329.79172 -119.036321 
L 329.304193 -117.657269 
L 328.764364 -116.278216 
L 328.167329 -114.899164 
L 327.508723 -113.520111 
L 326.786013 -112.141058 
L 325.999583 -110.762006 
L 325.153482 -109.382953 
L 324.255757 -108.003901 
L 323.318363 -106.624848 
L 322.356642 -105.245796 
L 321.388471 -103.866743 
L 320.433139 -102.487691 
L 319.510093 -101.108638 
L 318.637663 -99.729585 
L 317.831895 -98.350533 
L 317.105587 -96.97148 
L 316.46761 -95.592428 
L 315.922568 -94.213375 
L 315.470801 -92.834323 
L 315.108712 -91.45527 
L 314.829375 -90.076217 
L 314.62332 -88.697165 
L 314.479434 -87.318112 
L 314.385855 -85.93906 
L 314.330782 -84.560007 
L 314.303136 -83.180955 
L 314.29302 -81.801902 
L 314.291975 -80.42285 
L 314.293049 -79.043797 
L 314.290724 -77.664744 
L 314.280756 -76.285692 
L 314.25999 -74.906639 
L 314.226194 -73.527587 
L 314.177945 -72.148534 
L 314.114573 -70.769482 
L 314.036156 -69.390429 
L 313.943528 -68.011376 
L 313.83828 -66.632324 
L 313.722709 -65.253271 
L 313.599711 -63.874219 
L 313.472599 -62.495166 
L 313.344885 -61.116114 
L 313.220016 -59.737061 
L 313.101136 -58.358009 
L 312.990874 -56.978956 
L 312.891195 -55.599903 
L 312.803334 -54.220851 
L 312.727798 -52.841798 
L 312.66444 -51.462746 
L 312.612576 -50.083693 
z
" style="stroke: #343434; stroke-width: 2"/>
    </defs>
    <g clip-path="url(#p06c776d86b)">
     <use xlink:href="#m01886dd667" x="0" y="353.211875" style="fill: #921a33; stroke: #343434; stroke-width: 2"/>
    </g>
   </g>
   <g id="matplotlib.axis_1">
    <g id="xtick_1">
     <g id="line2d_1">
      <defs>
       <path id="m298d024ae8" d="M 0 0 
L 0 -3.5 
" style="stroke: #000000; stroke-width: 0.8"/>
      </defs>
      <g>
       <use xlink:href="#m298d024ae8" x="100.311667" y="317.22" style="stroke: #000000; stroke-width: 0.8"/>
      </g>
     </g>
     <g id="text_1">
      <!-- Adelie -->
      <g transform="translate(84.873386 328.318437) scale(0.1 -0.1)">
       <defs>
        <path id="DejaVuSans-41" d="M 2188 4044 
L 1331 1722 
L 3047 1722 
L 2188 4044 
z
M 1831 4666 
L 2547 4666 
L 4325 0 
L 3669 0 
L 3244 1197 
L 1141 1197 
L 716 0 
L 50 0 
L 1831 4666 
z
" transform="scale(0.015625)"/>
        <path id="DejaVuSans-64" d="M 2906 2969 
L 2906 4863 
L 3481 4863 
L 3481 0 
L 2906 0 
L 2906 525 
Q 2725 213 2448 61 
Q 2172 -91 1784 -91 
Q 1150 -91 751 415 
Q 353 922 353 1747 
Q 353 2572 751 3078 
Q 1150 3584 1784 3584 
Q 2172 3584 2448 3432 
Q 2725 3281 2906 2969 
z
M 947 1747 
Q 947 1113 1208 752 
Q 1469 391 1925 391 
Q 2381 391 2643 752 
Q 2906 1113 2906 1747 
Q 2906 2381 2643 2742 
Q 2381 3103 1925 3103 
Q 1469 3103 1208 2742 
Q 947 2381 947 1747 
z
" transform="scale(0.015625)"/>
        <path id="DejaVuSans-65" d="M 3597 1894 
L 3597 1613 
L 953 1613 
Q 991 1019 1311 708 
Q 1631 397 2203 397 
Q 2534 397 2845 478 
Q 3156 559 3463 722 
L 3463 178 
Q 3153 47 2828 -22 
Q 2503 -91 2169 -91 
Q 1331 -91 842 396 
Q 353 884 353 1716 
Q 353 2575 817 3079 
Q 1281 3584 2069 3584 
Q 2775 3584 3186 3129 
Q 3597 2675 3597 1894 
z
M 3022 2063 
Q 3016 2534 2758 2815 
Q 2500 3097 2075 3097 
Q 1594 3097 1305 2825 
Q 1016 2553 972 2059 
L 3022 2063 
z
" transform="scale(0.015625)"/>
        <path id="DejaVuSans-6c" d="M 603 4863 
L 1178 4863 
L 1178 0 
L 603 0 
L 603 4863 
z
" transform="scale(0.015625)"/>
        <path id="DejaVuSans-69" d="M 603 3500 
L 1178 3500 
L 1178 0 
L 603 0 
L 603 3500 
z
M 603 4863 
L 1178 4863 
L 1178 4134 
L 603 4134 
L 603 4863 
z
" transform="scale(0.015625)"/>
       </defs>
       <use xlink:href="#DejaVuSans-41"/>
       <use xlink:href="#DejaVuSans-64" x="66.658203"/>
       <use xlink:href="#DejaVuSans-65" x="130.134766"/>
       <use xlink:href="#DejaVuSans-6c" x="191.658203"/>
       <use xlink:href="#DejaVuSans-69" x="219.441406"/>
       <use xlink:href="#DejaVuSans-65" x="247.224609"/>
      </g>
     </g>
    </g>
    <g id="xtick_2">
     <g id="line2d_2">
      <g>
       <use xlink:href="#m298d024ae8" x="196.740003" y="317.22" style="stroke: #000000; stroke-width: 0.8"/>
      </g>
     </g>
     <g id="text_2">
      <!-- Gentoo -->
      <g transform="translate(178.541565 328.318437) scale(0.1 -0.1)">
       <defs>
        <path id="DejaVuSans-47" d="M 3809 666 
L 3809 1919 
L 2778 1919 
L 2778 2438 
L 4434 2438 
L 4434 434 
Q 4069 175 3628 42 
Q 3188 -91 2688 -91 
Q 1594 -91 976 548 
Q 359 1188 359 2328 
Q 359 3472 976 4111 
Q 1594 4750 2688 4750 
Q 3144 4750 3555 4637 
Q 3966 4525 4313 4306 
L 4313 3634 
Q 3963 3931 3569 4081 
Q 3175 4231 2741 4231 
Q 1884 4231 1454 3753 
Q 1025 3275 1025 2328 
Q 1025 1384 1454 906 
Q 1884 428 2741 428 
Q 3075 428 3337 486 
Q 3600 544 3809 666 
z
" transform="scale(0.015625)"/>
        <path id="DejaVuSans-6e" d="M 3513 2113 
L 3513 0 
L 2938 0 
L 2938 2094 
Q 2938 2591 2744 2837 
Q 2550 3084 2163 3084 
Q 1697 3084 1428 2787 
Q 1159 2491 1159 1978 
L 1159 0 
L 581 0 
L 581 3500 
L 1159 3500 
L 1159 2956 
Q 1366 3272 1645 3428 
Q 1925 3584 2291 3584 
Q 2894 3584 3203 3211 
Q 3513 2838 3513 2113 
z
" transform="scale(0.015625)"/>
        <path id="DejaVuSans-74" d="M 1172 4494 
L 1172 3500 
L 2356 3500 
L 2356 3053 
L 1172 3053 
L 1172 1153 
Q 1172 725 1289 603 
Q 1406 481 1766 481 
L 2356 481 
L 2356 0 
L 1766 0 
Q 1100 0 847 248 
Q 594 497 594 1153 
L 594 3053 
L 172 3053 
L 172 3500 
L 594 3500 
L 594 4494 
L 1172 4494 
z
" transform="scale(0.015625)"/>
        <path id="DejaVuSans-6f" d="M 1959 3097 
Q 1497 3097 1228 2736 
Q 959 2375 959 1747 
Q 959 1119 1226 758 
Q 1494 397 1959 397 
Q 2419 397 2687 759 
Q 2956 1122 2956 1747 
Q 2956 2369 2687 2733 
Q 2419 3097 1959 3097 
z
M 1959 3584 
Q 2709 3584 3137 3096 
Q 3566 2609 3566 1747 
Q 3566 888 3137 398 
Q 2709 -91 1959 -91 
Q 1206 -91 779 398 
Q 353 888 353 1747 
Q 353 2609 779 3096 
Q 1206 3584 1959 3584 
z
" transform="scale(0.015625)"/>
       </defs>
       <use xlink:href="#DejaVuSans-47"/>
       <use xlink:href="#DejaVuSans-65" x="77.490234"/>
       <use xlink:href="#DejaVuSans-6e" x="139.013672"/>
       <use xlink:href="#DejaVuSans-74" x="202.392578"/>
       <use xlink:href="#DejaVuSans-6f" x="241.601562"/>
       <use xlink:href="#DejaVuSans-6f" x="302.783203"/>
      </g>
     </g>
    </g>
    <g id="xtick_3">
     <g id="line2d_3">
      <g>
       <use xlink:href="#m298d024ae8" x="293.168338" y="317.22" style="stroke: #000000; stroke-width: 0.8"/>
      </g>
     </g>
     <g id="text_3">
      <!-- Chinstrap -->
      <g transform="translate(269.091775 328.318437) scale(0.1 -0.1)">
       <defs>
        <path id="DejaVuSans-43" d="M 4122 4306 
L 4122 3641 
Q 3803 3938 3442 4084 
Q 3081 4231 2675 4231 
Q 1875 4231 1450 3742 
Q 1025 3253 1025 2328 
Q 1025 1406 1450 917 
Q 1875 428 2675 428 
Q 3081 428 3442 575 
Q 3803 722 4122 1019 
L 4122 359 
Q 3791 134 3420 21 
Q 3050 -91 2638 -91 
Q 1578 -91 968 557 
Q 359 1206 359 2328 
Q 359 3453 968 4101 
Q 1578 4750 2638 4750 
Q 3056 4750 3426 4639 
Q 3797 4528 4122 4306 
z
" transform="scale(0.015625)"/>
        <path id="DejaVuSans-68" d="M 3513 2113 
L 3513 0 
L 2938 0 
L 2938 2094 
Q 2938 2591 2744 2837 
Q 2550 3084 2163 3084 
Q 1697 3084 1428 2787 
Q 1159 2491 1159 1978 
L 1159 0 
L 581 0 
L 581 4863 
L 1159 4863 
L 1159 2956 
Q 1366 3272 1645 3428 
Q 1925 3584 2291 3584 
Q 2894 3584 3203 3211 
Q 3513 2838 3513 2113 
z
" transform="scale(0.015625)"/>
        <path id="DejaVuSans-73" d="M 2834 3397 
L 2834 2853 
Q 2591 2978 2328 3040 
Q 2066 3103 1784 3103 
Q 1356 3103 1142 2972 
Q 928 2841 928 2578 
Q 928 2378 1081 2264 
Q 1234 2150 1697 2047 
L 1894 2003 
Q 2506 1872 2764 1633 
Q 3022 1394 3022 966 
Q 3022 478 2636 193 
Q 2250 -91 1575 -91 
Q 1294 -91 989 -36 
Q 684 19 347 128 
L 347 722 
Q 666 556 975 473 
Q 1284 391 1588 391 
Q 1994 391 2212 530 
Q 2431 669 2431 922 
Q 2431 1156 2273 1281 
Q 2116 1406 1581 1522 
L 1381 1569 
Q 847 1681 609 1914 
Q 372 2147 372 2553 
Q 372 3047 722 3315 
Q 1072 3584 1716 3584 
Q 2034 3584 2315 3537 
Q 2597 3491 2834 3397 
z
" transform="scale(0.015625)"/>
        <path id="DejaVuSans-72" d="M 2631 2963 
Q 2534 3019 2420 3045 
Q 2306 3072 2169 3072 
Q 1681 3072 1420 2755 
Q 1159 2438 1159 1844 
L 1159 0 
L 581 0 
L 581 3500 
L 1159 3500 
L 1159 2956 
Q 1341 3275 1631 3429 
Q 1922 3584 2338 3584 
Q 2397 3584 2469 3576 
Q 2541 3569 2628 3553 
L 2631 2963 
z
" transform="scale(0.015625)"/>
        <path id="DejaVuSans-61" d="M 2194 1759 
Q 1497 1759 1228 1600 
Q 959 1441 959 1056 
Q 959 750 1161 570 
Q 1363 391 1709 391 
Q 2188 391 2477 730 
Q 2766 1069 2766 1631 
L 2766 1759 
L 2194 1759 
z
M 3341 1997 
L 3341 0 
L 2766 0 
L 2766 531 
Q 2569 213 2275 61 
Q 1981 -91 1556 -91 
Q 1019 -91 701 211 
Q 384 513 384 1019 
Q 384 1609 779 1909 
Q 1175 2209 1959 2209 
L 2766 2209 
L 2766 2266 
Q 2766 2663 2505 2880 
Q 2244 3097 1772 3097 
Q 1472 3097 1187 3025 
Q 903 2953 641 2809 
L 641 3341 
Q 956 3463 1253 3523 
Q 1550 3584 1831 3584 
Q 2591 3584 2966 3190 
Q 3341 2797 3341 1997 
z
" transform="scale(0.015625)"/>
        <path id="DejaVuSans-70" d="M 1159 525 
L 1159 -1331 
L 581 -1331 
L 581 3500 
L 1159 3500 
L 1159 2969 
Q 1341 3281 1617 3432 
Q 1894 3584 2278 3584 
Q 2916 3584 3314 3078 
Q 3713 2572 3713 1747 
Q 3713 922 3314 415 
Q 2916 -91 2278 -91 
Q 1894 -91 1617 61 
Q 1341 213 1159 525 
z
M 3116 1747 
Q 3116 2381 2855 2742 
Q 2594 3103 2138 3103 
Q 1681 3103 1420 2742 
Q 1159 2381 1159 1747 
Q 1159 1113 1420 752 
Q 1681 391 2138 391 
Q 2594 391 2855 752 
Q 3116 1113 3116 1747 
z
" transform="scale(0.015625)"/>
       </defs>
       <use xlink:href="#DejaVuSans-43"/>
       <use xlink:href="#DejaVuSans-68" x="69.824219"/>
       <use xlink:href="#DejaVuSans-69" x="133.203125"/>
       <use xlink:href="#DejaVuSans-6e" x="160.986328"/>
       <use xlink:href="#DejaVuSans-73" x="224.365234"/>
       <use xlink:href="#DejaVuSans-74" x="276.464844"/>
       <use xlink:href="#DejaVuSans-72" x="315.673828"/>
       <use xlink:href="#DejaVuSans-61" x="356.787109"/>
       <use xlink:href="#DejaVuSans-70" x="418.066406"/>
      </g>
     </g>
    </g>
    <g id="text_4">
     <!-- species -->
     <g transform="translate(174.330003 343.51625) scale(0.12 -0.12)">
      <defs>
       <path id="DejaVuSans-63" d="M 3122 3366 
L 3122 2828 
Q 2878 2963 2633 3030 
Q 2388 3097 2138 3097 
Q 1578 3097 1268 2742 
Q 959 2388 959 1747 
Q 959 1106 1268 751 
Q 1578 397 2138 397 
Q 2388 397 2633 464 
Q 2878 531 3122 666 
L 3122 134 
Q 2881 22 2623 -34 
Q 2366 -91 2075 -91 
Q 1284 -91 818 406 
Q 353 903 353 1747 
Q 353 2603 823 3093 
Q 1294 3584 2113 3584 
Q 2378 3584 2631 3529 
Q 2884 3475 3122 3366 
z
" transform="scale(0.015625)"/>
      </defs>
      <use xlink:href="#DejaVuSans-73"/>
      <use xlink:href="#DejaVuSans-70" x="52.099609"/>
      <use xlink:href="#DejaVuSans-65" x="115.576172"/>
      <use xlink:href="#DejaVuSans-63" x="177.099609"/>
      <use xlink:href="#DejaVuSans-69" x="232.080078"/>
      <use xlink:href="#DejaVuSans-65" x="259.863281"/>
      <use xlink:href="#DejaVuSans-73" x="321.386719"/>
     </g>
    </g>
   </g>
   <g id="matplotlib.axis_2">
    <g id="ytick_1">
     <g id="line2d_4">
      <path d="M 52.0975 263.678227 
L 341.382505 263.678227 
" clip-path="url(#p06c776d86b)" style="fill: none; stroke-dasharray: 1.85,0.8; stroke-dashoffset: 0; stroke: #b2b2b2; stroke-width: 0.5"/>
     </g>
     <g id="line2d_5">
      <defs>
       <path id="m5902b6ce7f" d="M 0 0 
L 3.5 0 
" style="stroke: #000000; stroke-width: 0.8"/>
      </defs>
      <g>
       <use xlink:href="#m5902b6ce7f" x="52.0975" y="263.678227" style="stroke: #000000; stroke-width: 0.8"/>
      </g>
     </g>
     <g id="text_5">
      <!-- 3000 -->
      <g transform="translate(23.1475 267.477446) scale(0.1 -0.1)">
       <defs>
        <path id="DejaVuSans-33" d="M 2597 2516 
Q 3050 2419 3304 2112 
Q 3559 1806 3559 1356 
Q 3559 666 3084 287 
Q 2609 -91 1734 -91 
Q 1441 -91 1130 -33 
Q 819 25 488 141 
L 488 750 
Q 750 597 1062 519 
Q 1375 441 1716 441 
Q 2309 441 2620 675 
Q 2931 909 2931 1356 
Q 2931 1769 2642 2001 
Q 2353 2234 1838 2234 
L 1294 2234 
L 1294 2753 
L 1863 2753 
Q 2328 2753 2575 2939 
Q 2822 3125 2822 3475 
Q 2822 3834 2567 4026 
Q 2313 4219 1838 4219 
Q 1578 4219 1281 4162 
Q 984 4106 628 3988 
L 628 4550 
Q 988 4650 1302 4700 
Q 1616 4750 1894 4750 
Q 2613 4750 3031 4423 
Q 3450 4097 3450 3541 
Q 3450 3153 3228 2886 
Q 3006 2619 2597 2516 
z
" transform="scale(0.015625)"/>
        <path id="DejaVuSans-30" d="M 2034 4250 
Q 1547 4250 1301 3770 
Q 1056 3291 1056 2328 
Q 1056 1369 1301 889 
Q 1547 409 2034 409 
Q 2525 409 2770 889 
Q 3016 1369 3016 2328 
Q 3016 3291 2770 3770 
Q 2525 4250 2034 4250 
z
M 2034 4750 
Q 2819 4750 3233 4129 
Q 3647 3509 3647 2328 
Q 3647 1150 3233 529 
Q 2819 -91 2034 -91 
Q 1250 -91 836 529 
Q 422 1150 422 2328 
Q 422 3509 836 4129 
Q 1250 4750 2034 4750 
z
" transform="scale(0.015625)"/>
       </defs>
       <use xlink:href="#DejaVuSans-33"/>
       <use xlink:href="#DejaVuSans-30" x="63.623047"/>
       <use xlink:href="#DejaVuSans-30" x="127.246094"/>
       <use xlink:href="#DejaVuSans-30" x="190.869141"/>
      </g>
     </g>
    </g>
    <g id="ytick_2">
     <g id="line2d_6">
      <path d="M 52.0975 195.882587 
L 341.382505 195.882587 
" clip-path="url(#p06c776d86b)" style="fill: none; stroke-dasharray: 1.85,0.8; stroke-dashoffset: 0; stroke: #b2b2b2; stroke-width: 0.5"/>
     </g>
     <g id="line2d_7">
      <g>
       <use xlink:href="#m5902b6ce7f" x="52.0975" y="195.882587" style="stroke: #000000; stroke-width: 0.8"/>
      </g>
     </g>
     <g id="text_6">
      <!-- 4000 -->
      <g transform="translate(23.1475 199.681805) scale(0.1 -0.1)">
       <defs>
        <path id="DejaVuSans-34" d="M 2419 4116 
L 825 1625 
L 2419 1625 
L 2419 4116 
z
M 2253 4666 
L 3047 4666 
L 3047 1625 
L 3713 1625 
L 3713 1100 
L 3047 1100 
L 3047 0 
L 2419 0 
L 2419 1100 
L 313 1100 
L 313 1709 
L 2253 4666 
z
" transform="scale(0.015625)"/>
       </defs>
       <use xlink:href="#DejaVuSans-34"/>
       <use xlink:href="#DejaVuSans-30" x="63.623047"/>
       <use xlink:href="#DejaVuSans-30" x="127.246094"/>
       <use xlink:href="#DejaVuSans-30" x="190.869141"/>
      </g>
     </g>
    </g>
    <g id="ytick_3">
     <g id="line2d_8">
      <path d="M 52.0975 128.086946 
L 341.382505 128.086946 
" clip-path="url(#p06c776d86b)" style="fill: none; stroke-dasharray: 1.85,0.8; stroke-dashoffset: 0; stroke: #b2b2b2; stroke-width: 0.5"/>
     </g>
     <g id="line2d_9">
      <g>
       <use xlink:href="#m5902b6ce7f" x="52.0975" y="128.086946" style="stroke: #000000; stroke-width: 0.8"/>
      </g>
     </g>
     <g id="text_7">
      <!-- 5000 -->
      <g transform="translate(23.1475 131.886165) scale(0.1 -0.1)">
       <defs>
        <path id="DejaVuSans-35" d="M 691 4666 
L 3169 4666 
L 3169 4134 
L 1269 4134 
L 1269 2991 
Q 1406 3038 1543 3061 
Q 1681 3084 1819 3084 
Q 2600 3084 3056 2656 
Q 3513 2228 3513 1497 
Q 3513 744 3044 326 
Q 2575 -91 1722 -91 
Q 1428 -91 1123 -41 
Q 819 9 494 109 
L 494 744 
Q 775 591 1075 516 
Q 1375 441 1709 441 
Q 2250 441 2565 725 
Q 2881 1009 2881 1497 
Q 2881 1984 2565 2268 
Q 2250 2553 1709 2553 
Q 1456 2553 1204 2497 
Q 953 2441 691 2322 
L 691 4666 
z
" transform="scale(0.015625)"/>
       </defs>
       <use xlink:href="#DejaVuSans-35"/>
       <use xlink:href="#DejaVuSans-30" x="63.623047"/>
       <use xlink:href="#DejaVuSans-30" x="127.246094"/>
       <use xlink:href="#DejaVuSans-30" x="190.869141"/>
      </g>
     </g>
    </g>
    <g id="ytick_4">
     <g id="line2d_10">
      <path d="M 52.0975 60.291305 
L 341.382505 60.291305 
" clip-path="url(#p06c776d86b)" style="fill: none; stroke-dasharray: 1.85,0.8; stroke-dashoffset: 0; stroke: #b2b2b2; stroke-width: 0.5"/>
     </g>
     <g id="line2d_11">
      <g>
       <use xlink:href="#m5902b6ce7f" x="52.0975" y="60.291305" style="stroke: #000000; stroke-width: 0.8"/>
      </g>
     </g>
     <g id="text_8">
      <!-- 6000 -->
      <g transform="translate(23.1475 64.090524) scale(0.1 -0.1)">
       <defs>
        <path id="DejaVuSans-36" d="M 2113 2584 
Q 1688 2584 1439 2293 
Q 1191 2003 1191 1497 
Q 1191 994 1439 701 
Q 1688 409 2113 409 
Q 2538 409 2786 701 
Q 3034 994 3034 1497 
Q 3034 2003 2786 2293 
Q 2538 2584 2113 2584 
z
M 3366 4563 
L 3366 3988 
Q 3128 4100 2886 4159 
Q 2644 4219 2406 4219 
Q 1781 4219 1451 3797 
Q 1122 3375 1075 2522 
Q 1259 2794 1537 2939 
Q 1816 3084 2150 3084 
Q 2853 3084 3261 2657 
Q 3669 2231 3669 1497 
Q 3669 778 3244 343 
Q 2819 -91 2113 -91 
Q 1303 -91 875 529 
Q 447 1150 447 2328 
Q 447 3434 972 4092 
Q 1497 4750 2381 4750 
Q 2619 4750 2861 4703 
Q 3103 4656 3366 4563 
z
" transform="scale(0.015625)"/>
       </defs>
       <use xlink:href="#DejaVuSans-36"/>
       <use xlink:href="#DejaVuSans-30" x="63.623047"/>
       <use xlink:href="#DejaVuSans-30" x="127.246094"/>
       <use xlink:href="#DejaVuSans-30" x="190.869141"/>
      </g>
     </g>
    </g>
    <g id="text_9">
     <!-- body_mass_g -->
     <g transform="translate(16.318125 202.632187) rotate(-90) scale(0.12 -0.12)">
      <defs>
       <path id="DejaVuSans-62" d="M 3116 1747 
Q 3116 2381 2855 2742 
Q 2594 3103 2138 3103 
Q 1681 3103 1420 2742 
Q 1159 2381 1159 1747 
Q 1159 1113 1420 752 
Q 1681 391 2138 391 
Q 2594 391 2855 752 
Q 3116 1113 3116 1747 
z
M 1159 2969 
Q 1341 3281 1617 3432 
Q 1894 3584 2278 3584 
Q 2916 3584 3314 3078 
Q 3713 2572 3713 1747 
Q 3713 922 3314 415 
Q 2916 -91 2278 -91 
Q 1894 -91 1617 61 
Q 1341 213 1159 525 
L 1159 0 
L 581 0 
L 581 4863 
L 1159 4863 
L 1159 2969 
z
" transform="scale(0.015625)"/>
       <path id="DejaVuSans-79" d="M 2059 -325 
Q 1816 -950 1584 -1140 
Q 1353 -1331 966 -1331 
L 506 -1331 
L 506 -850 
L 844 -850 
Q 1081 -850 1212 -737 
Q 1344 -625 1503 -206 
L 1606 56 
L 191 3500 
L 800 3500 
L 1894 763 
L 2988 3500 
L 3597 3500 
L 2059 -325 
z
" transform="scale(0.015625)"/>
       <path id="DejaVuSans-5f" d="M 3263 -1063 
L 3263 -1509 
L -63 -1509 
L -63 -1063 
L 3263 -1063 
z
" transform="scale(0.015625)"/>
       <path id="DejaVuSans-6d" d="M 3328 2828 
Q 3544 3216 3844 3400 
Q 4144 3584 4550 3584 
Q 5097 3584 5394 3201 
Q 5691 2819 5691 2113 
L 5691 0 
L 5113 0 
L 5113 2094 
Q 5113 2597 4934 2840 
Q 4756 3084 4391 3084 
Q 3944 3084 3684 2787 
Q 3425 2491 3425 1978 
L 3425 0 
L 2847 0 
L 2847 2094 
Q 2847 2600 2669 2842 
Q 2491 3084 2119 3084 
Q 1678 3084 1418 2786 
Q 1159 2488 1159 1978 
L 1159 0 
L 581 0 
L 581 3500 
L 1159 3500 
L 1159 2956 
Q 1356 3278 1631 3431 
Q 1906 3584 2284 3584 
Q 2666 3584 2933 3390 
Q 3200 3197 3328 2828 
z
" transform="scale(0.015625)"/>
       <path id="DejaVuSans-67" d="M 2906 1791 
Q 2906 2416 2648 2759 
Q 2391 3103 1925 3103 
Q 1463 3103 1205 2759 
Q 947 2416 947 1791 
Q 947 1169 1205 825 
Q 1463 481 1925 481 
Q 2391 481 2648 825 
Q 2906 1169 2906 1791 
z
M 3481 434 
Q 3481 -459 3084 -895 
Q 2688 -1331 1869 -1331 
Q 1566 -1331 1297 -1286 
Q 1028 -1241 775 -1147 
L 775 -588 
Q 1028 -725 1275 -790 
Q 1522 -856 1778 -856 
Q 2344 -856 2625 -561 
Q 2906 -266 2906 331 
L 2906 616 
Q 2728 306 2450 153 
Q 2172 0 1784 0 
Q 1141 0 747 490 
Q 353 981 353 1791 
Q 353 2603 747 3093 
Q 1141 3584 1784 3584 
Q 2172 3584 2450 3431 
Q 2728 3278 2906 2969 
L 2906 3500 
L 3481 3500 
L 3481 434 
z
" transform="scale(0.015625)"/>
      </defs>
      <use xlink:href="#DejaVuSans-62"/>
      <use xlink:href="#DejaVuSans-6f" x="63.476562"/>
      <use xlink:href="#DejaVuSans-64" x="124.658203"/>
      <use xlink:href="#DejaVuSans-79" x="188.134766"/>
      <use xlink:href="#DejaVuSans-5f" x="247.314453"/>
      <use xlink:href="#DejaVuSans-6d" x="297.314453"/>
      <use xlink:href="#DejaVuSans-61" x="394.726562"/>
      <use xlink:href="#DejaVuSans-73" x="456.005859"/>
      <use xlink:href="#DejaVuSans-73" x="508.105469"/>
      <use xlink:href="#DejaVuSans-5f" x="560.205078"/>
      <use xlink:href="#DejaVuSans-67" x="610.205078"/>
     </g>
    </g>
   </g>
   <g id="line2d_12">
    <path d="M 81.026 241.644644 
L 81.026 143.340965 
" clip-path="url(#p06c776d86b)" style="fill: none; stroke: #343434; stroke-width: 2; stroke-linecap: square"/>
   </g>
   <g id="line2d_13">
    <path d="M 81.026 209.441715 
L 81.026 175.543894 
" clip-path="url(#p06c776d86b)" style="fill: none; stroke: #343434; stroke-width: 6; stroke-linecap: square"/>
   </g>
   <g id="line2d_14">
    <path d="M 119.597335 273.847573 
L 119.597335 202.662151 
" clip-path="url(#p06c776d86b)" style="fill: none; stroke: #343434; stroke-width: 2; stroke-linecap: square"/>
   </g>
   <g id="line2d_15">
    <path d="M 119.597335 251.81399 
L 119.597335 226.390625 
" clip-path="url(#p06c776d86b)" style="fill: none; stroke: #343434; stroke-width: 6; stroke-linecap: square"/>
   </g>
   <g id="line2d_16">
    <path d="M 177.454336 145.035856 
L 177.454336 39.952613 
" clip-path="url(#p06c776d86b)" style="fill: none; stroke: #343434; stroke-width: 2; stroke-linecap: square"/>
   </g>
   <g id="line2d_17">
    <path d="M 177.454336 107.748254 
L 177.454336 80.629997 
" clip-path="url(#p06c776d86b)" style="fill: none; stroke: #343434; stroke-width: 6; stroke-linecap: square"/>
   </g>
   <g id="line2d_18">
    <path d="M 216.025669 199.272369 
L 216.025669 114.527818 
" clip-path="url(#p06c776d86b)" style="fill: none; stroke: #343434; stroke-width: 2; stroke-linecap: square"/>
   </g>
   <g id="line2d_19">
    <path d="M 216.025669 164.527103 
L 216.025669 136.561401 
" clip-path="url(#p06c776d86b)" style="fill: none; stroke: #343434; stroke-width: 6; stroke-linecap: square"/>
   </g>
   <g id="line2d_20">
    <path d="M 273.882671 246.729317 
L 273.882671 158.594984 
" clip-path="url(#p06c776d86b)" style="fill: none; stroke: #343434; stroke-width: 2; stroke-linecap: square"/>
   </g>
   <g id="line2d_21">
    <path d="M 273.882671 214.102665 
L 273.882671 189.103023 
" clip-path="url(#p06c776d86b)" style="fill: none; stroke: #343434; stroke-width: 6; stroke-linecap: square"/>
   </g>
   <g id="line2d_22">
    <path d="M 312.454004 270.457791 
L 312.454004 185.71324 
" clip-path="url(#p06c776d86b)" style="fill: none; stroke: #343434; stroke-width: 2; stroke-linecap: square"/>
   </g>
   <g id="line2d_23">
    <path d="M 312.454004 239.102308 
L 312.454004 216.645002 
" clip-path="url(#p06c776d86b)" style="fill: none; stroke: #343434; stroke-width: 6; stroke-linecap: square"/>
   </g>
   <g id="patch_5">
    <path d="M 52.0975 317.22 
L 52.0975 7.2 
" style="fill: none; stroke: #bcbcbc; stroke-width: 0.8; stroke-linejoin: miter; stroke-linecap: square"/>
   </g>
   <g id="patch_6">
    <path d="M 52.0975 317.22 
L 341.382505 317.22 
" style="fill: none; stroke: #bcbcbc; stroke-width: 0.8; stroke-linejoin: miter; stroke-linecap: square"/>
   </g>
   <g id="PathCollection_1">
    <defs>
     <path id="m019edef261" d="M 0 2 
C 0.530406 2 1.03916 1.789267 1.414214 1.414214 
C 1.789267 1.03916 2 0.530406 2 0 
C 2 -0.530406 1.789267 -1.03916 1.414214 -1.414214 
C 1.03916 -1.789267 0.530406 -2 0 -2 
C -0.530406 -2 -1.03916 -1.789267 -1.414214 -1.414214 
C -1.789267 -1.03916 -2 -0.530406 -2 0 
C -2 0.530406 -1.789267 1.03916 -1.414214 1.414214 
C -1.03916 1.789267 -0.530406 2 0 2 
z
" style="stroke: #343434; stroke-width: 0.5"/>
    </defs>
    <g clip-path="url(#p06c776d86b)">
     <use xlink:href="#m019edef261" x="81.026" y="195.882587" style="fill: #ffffff; stroke: #343434; stroke-width: 0.5"/>
    </g>
   </g>
   <g id="PathCollection_2">
    <g clip-path="url(#p06c776d86b)">
     <use xlink:href="#m019edef261" x="119.597335" y="236.559971" style="fill: #ffffff; stroke: #343434; stroke-width: 0.5"/>
    </g>
   </g>
   <g id="PathCollection_3">
    <g clip-path="url(#p06c776d86b)">
     <use xlink:href="#m019edef261" x="177.454336" y="94.189125" style="fill: #ffffff; stroke: #343434; stroke-width: 0.5"/>
    </g>
   </g>
   <g id="PathCollection_4">
    <g clip-path="url(#p06c776d86b)">
     <use xlink:href="#m019edef261" x="216.025669" y="148.425638" style="fill: #ffffff; stroke: #343434; stroke-width: 0.5"/>
    </g>
   </g>
   <g id="PathCollection_5">
    <g clip-path="url(#p06c776d86b)">
     <use xlink:href="#m019edef261" x="273.882671" y="199.272369" style="fill: #ffffff; stroke: #343434; stroke-width: 0.5"/>
    </g>
   </g>
   <g id="PathCollection_6">
    <g clip-path="url(#p06c776d86b)">
     <use xlink:href="#m019edef261" x="312.454004" y="226.390625" style="fill: #ffffff; stroke: #343434; stroke-width: 0.5"/>
    </g>
   </g>
  </g>
  <g id="legend_1">
   <g id="text_10">
    <!-- sex -->
    <g transform="translate(369.658261 164.687187) scale(0.1 -0.1)">
     <defs>
      <path id="DejaVuSans-78" d="M 3513 3500 
L 2247 1797 
L 3578 0 
L 2900 0 
L 1881 1375 
L 863 0 
L 184 0 
L 1544 1831 
L 300 3500 
L 978 3500 
L 1906 2253 
L 2834 3500 
L 3513 3500 
z
" transform="scale(0.015625)"/>
     </defs>
     <use xlink:href="#DejaVuSans-73"/>
     <use xlink:href="#DejaVuSans-65" x="52.099609"/>
     <use xlink:href="#DejaVuSans-78" x="111.873047"/>
    </g>
   </g>
   <g id="patch_7">
    <path d="M 346.974667 179.365312 
L 366.974667 179.365312 
L 366.974667 172.365312 
L 346.974667 172.365312 
z
" style="fill: #4586ac; stroke: #343434; stroke-linejoin: miter"/>
   </g>
   <g id="text_11">
    <!-- male -->
    <g transform="translate(374.974667 179.365312) scale(0.1 -0.1)">
     <use xlink:href="#DejaVuSans-6d"/>
     <use xlink:href="#DejaVuSans-61" x="97.412109"/>
     <use xlink:href="#DejaVuSans-6c" x="158.691406"/>
     <use xlink:href="#DejaVuSans-65" x="186.474609"/>
    </g>
   </g>
   <g id="patch_8">
    <path d="M 346.974667 194.043437 
L 366.974667 194.043437 
L 366.974667 187.043437 
L 346.974667 187.043437 
z
" style="fill: #921a33; stroke: #343434; stroke-linejoin: miter"/>
   </g>
   <g id="text_12">
    <!-- female -->
    <g transform="translate(374.974667 194.043437) scale(0.1 -0.1)">
     <defs>
      <path id="DejaVuSans-66" d="M 2375 4863 
L 2375 4384 
L 1825 4384 
Q 1516 4384 1395 4259 
Q 1275 4134 1275 3809 
L 1275 3500 
L 2222 3500 
L 2222 3053 
L 1275 3053 
L 1275 0 
L 697 0 
L 697 3053 
L 147 3053 
L 147 3500 
L 697 3500 
L 697 3744 
Q 697 4328 969 4595 
Q 1241 4863 1831 4863 
L 2375 4863 
z
" transform="scale(0.015625)"/>
     </defs>
     <use xlink:href="#DejaVuSans-66"/>
     <use xlink:href="#DejaVuSans-65" x="35.205078"/>
     <use xlink:href="#DejaVuSans-6d" x="96.728516"/>
     <use xlink:href="#DejaVuSans-61" x="194.140625"/>
     <use xlink:href="#DejaVuSans-6c" x="255.419922"/>
     <use xlink:href="#DejaVuSans-65" x="283.203125"/>
    </g>
   </g>
  </g>
 </g>
 <defs>
  <clipPath id="p06c776d86b">
   <rect x="52.0975" y="7.2" width="289.285005" height="310.02"/>
  </clipPath>
 </defs>
</svg>