<?xml version="1.0" encoding="utf-8" standalone="no"?>
<!DOCTYPE svg PUBLIC "-//W3C//DTD SVG 1.1//EN"
  "http://www.w3.org/Graphics/SVG/1.1/DTD/svg11.dtd">
<svg xmlns:xlink="http://www.w3.org/1999/xlink" width="713.72325pt" height="426.799875pt" viewBox="0 0 713.72325 426.799875" xmlns="http://www.w3.org/2000/svg" version="1.1">
 <metadata>
  <rdf:RDF xmlns:dc="http://purl.org/dc/elements/1.1/" xmlns:cc="http://creativecommons.org/ns#" xmlns:rdf="http://www.w3.org/1999/02/22-rdf-syntax-ns#">
   <cc:Work>
    <dc:type rdf:resource="http://purl.org/dc/dcmitype/StillImage"/>
    <dc:date>2023-05-08T00:37:52.186365</dc:date>
    <dc:format>image/svg+xml</dc:format>
    <dc:creator>
     <cc:Agent>
      <dc:title>Matplotlib v3.7.1, https://matplotlib.org/</dc:title>
     </cc:Agent>
    </dc:creator>
   </cc:Work>
  </rdf:RDF>
 </metadata>
 <defs>
  <style type="text/css">*{stroke-linejoin: round; stroke-linecap: butt}</style>
 </defs>
 <g id="figure_1">
  <g id="patch_1">
   <path d="M 0 426.799875 
L 713.72325 426.799875 
L 713.72325 0 
L 0 0 
z
" style="fill: #ffffff"/>
  </g>
  <g id="axes_1">
   <g id="patch_2">
    <path d="M 37.51925 403.252 
L 356.56725 403.252 
L 356.56725 46.4685 
L 37.51925 46.4685 
z
" style="fill: #eaeaf2"/>
   </g>
   <g id="matplotlib.axis_1">
    <g id="xtick_1">
     <g id="line2d_1">
      <path d="M 71.898986 403.252 
L 71.898986 46.4685 
" clip-path="url(#p9bea29bca0)" style="fill: none; stroke: #ffffff; stroke-width: 0.8; stroke-linecap: round"/>
     </g>
     <g id="text_1">
      <!-- 60 -->
      <g style="fill: #262626" transform="translate(67.005361 417.850875) scale(0.088 -0.088)">
       <defs>
        <path id="ArialMT-36" d="M 3184 3459 
L 2625 3416 
Q 2550 3747 2413 3897 
Q 2184 4138 1850 4138 
Q 1581 4138 1378 3988 
Q 1113 3794 959 3422 
Q 806 3050 800 2363 
Q 1003 2672 1297 2822 
Q 1591 2972 1913 2972 
Q 2475 2972 2870 2558 
Q 3266 2144 3266 1488 
Q 3266 1056 3080 686 
Q 2894 316 2569 119 
Q 2244 -78 1831 -78 
Q 1128 -78 684 439 
Q 241 956 241 2144 
Q 241 3472 731 4075 
Q 1159 4600 1884 4600 
Q 2425 4600 2770 4297 
Q 3116 3994 3184 3459 
z
M 888 1484 
Q 888 1194 1011 928 
Q 1134 663 1356 523 
Q 1578 384 1822 384 
Q 2178 384 2434 671 
Q 2691 959 2691 1453 
Q 2691 1928 2437 2201 
Q 2184 2475 1800 2475 
Q 1419 2475 1153 2201 
Q 888 1928 888 1484 
z
" transform="scale(0.015625)"/>
        <path id="ArialMT-30" d="M 266 2259 
Q 266 3072 433 3567 
Q 600 4063 929 4331 
Q 1259 4600 1759 4600 
Q 2128 4600 2406 4451 
Q 2684 4303 2865 4023 
Q 3047 3744 3150 3342 
Q 3253 2941 3253 2259 
Q 3253 1453 3087 958 
Q 2922 463 2592 192 
Q 2263 -78 1759 -78 
Q 1097 -78 719 397 
Q 266 969 266 2259 
z
M 844 2259 
Q 844 1131 1108 757 
Q 1372 384 1759 384 
Q 2147 384 2411 759 
Q 2675 1134 2675 2259 
Q 2675 3391 2411 3762 
Q 2147 4134 1753 4134 
Q 1366 4134 1134 3806 
Q 844 3388 844 2259 
z
" transform="scale(0.015625)"/>
       </defs>
       <use xlink:href="#ArialMT-36"/>
       <use xlink:href="#ArialMT-30" x="55.615234"/>
      </g>
     </g>
    </g>
    <g id="xtick_2">
     <g id="line2d_2">
      <path d="M 134.471118 403.252 
L 134.471118 46.4685 
" clip-path="url(#p9bea29bca0)" style="fill: none; stroke: #ffffff; stroke-width: 0.8; stroke-linecap: round"/>
     </g>
     <g id="text_2">
      <!-- 80 -->
      <g style="fill: #262626" transform="translate(129.577493 417.850875) scale(0.088 -0.088)">
       <defs>
        <path id="ArialMT-38" d="M 1131 2484 
Q 781 2613 612 2850 
Q 444 3088 444 3419 
Q 444 3919 803 4259 
Q 1163 4600 1759 4600 
Q 2359 4600 2725 4251 
Q 3091 3903 3091 3403 
Q 3091 3084 2923 2848 
Q 2756 2613 2416 2484 
Q 2838 2347 3058 2040 
Q 3278 1734 3278 1309 
Q 3278 722 2862 322 
Q 2447 -78 1769 -78 
Q 1091 -78 675 323 
Q 259 725 259 1325 
Q 259 1772 486 2073 
Q 713 2375 1131 2484 
z
M 1019 3438 
Q 1019 3113 1228 2906 
Q 1438 2700 1772 2700 
Q 2097 2700 2305 2904 
Q 2513 3109 2513 3406 
Q 2513 3716 2298 3927 
Q 2084 4138 1766 4138 
Q 1444 4138 1231 3931 
Q 1019 3725 1019 3438 
z
M 838 1322 
Q 838 1081 952 856 
Q 1066 631 1291 507 
Q 1516 384 1775 384 
Q 2178 384 2440 643 
Q 2703 903 2703 1303 
Q 2703 1709 2433 1975 
Q 2163 2241 1756 2241 
Q 1359 2241 1098 1978 
Q 838 1716 838 1322 
z
" transform="scale(0.015625)"/>
       </defs>
       <use xlink:href="#ArialMT-38"/>
       <use xlink:href="#ArialMT-30" x="55.615234"/>
      </g>
     </g>
    </g>
    <g id="xtick_3">
     <g id="line2d_3">
      <path d="M 197.04325 403.252 
L 197.04325 46.4685 
" clip-path="url(#p9bea29bca0)" style="fill: none; stroke: #ffffff; stroke-width: 0.8; stroke-linecap: round"/>
     </g>
     <g id="text_3">
      <!-- 100 -->
      <g style="fill: #262626" transform="translate(189.702812 417.850875) scale(0.088 -0.088)">
       <defs>
        <path id="ArialMT-31" d="M 2384 0 
L 1822 0 
L 1822 3584 
Q 1619 3391 1289 3197 
Q 959 3003 697 2906 
L 697 3450 
Q 1169 3672 1522 3987 
Q 1875 4303 2022 4600 
L 2384 4600 
L 2384 0 
z
" transform="scale(0.015625)"/>
       </defs>
       <use xlink:href="#ArialMT-31"/>
       <use xlink:href="#ArialMT-30" x="55.615234"/>
       <use xlink:href="#ArialMT-30" x="111.230469"/>
      </g>
     </g>
    </g>
    <g id="xtick_4">
     <g id="line2d_4">
      <path d="M 259.615382 403.252 
L 259.615382 46.4685 
" clip-path="url(#p9bea29bca0)" style="fill: none; stroke: #ffffff; stroke-width: 0.8; stroke-linecap: round"/>
     </g>
     <g id="text_4">
      <!-- 120 -->
      <g style="fill: #262626" transform="translate(252.274945 417.850875) scale(0.088 -0.088)">
       <defs>
        <path id="ArialMT-32" d="M 3222 541 
L 3222 0 
L 194 0 
Q 188 203 259 391 
Q 375 700 629 1000 
Q 884 1300 1366 1694 
Q 2113 2306 2375 2664 
Q 2638 3022 2638 3341 
Q 2638 3675 2398 3904 
Q 2159 4134 1775 4134 
Q 1369 4134 1125 3890 
Q 881 3647 878 3216 
L 300 3275 
Q 359 3922 746 4261 
Q 1134 4600 1788 4600 
Q 2447 4600 2831 4234 
Q 3216 3869 3216 3328 
Q 3216 3053 3103 2787 
Q 2991 2522 2730 2228 
Q 2469 1934 1863 1422 
Q 1356 997 1212 845 
Q 1069 694 975 541 
L 3222 541 
z
" transform="scale(0.015625)"/>
       </defs>
       <use xlink:href="#ArialMT-31"/>
       <use xlink:href="#ArialMT-32" x="55.615234"/>
       <use xlink:href="#ArialMT-30" x="111.230469"/>
      </g>
     </g>
    </g>
    <g id="xtick_5">
     <g id="line2d_5">
      <path d="M 322.187514 403.252 
L 322.187514 46.4685 
" clip-path="url(#p9bea29bca0)" style="fill: none; stroke: #ffffff; stroke-width: 0.8; stroke-linecap: round"/>
     </g>
     <g id="text_5">
      <!-- 140 -->
      <g style="fill: #262626" transform="translate(314.847077 417.850875) scale(0.088 -0.088)">
       <defs>
        <path id="ArialMT-34" d="M 2069 0 
L 2069 1097 
L 81 1097 
L 81 1613 
L 2172 4581 
L 2631 4581 
L 2631 1613 
L 3250 1613 
L 3250 1097 
L 2631 1097 
L 2631 0 
L 2069 0 
z
M 2069 1613 
L 2069 3678 
L 634 1613 
L 2069 1613 
z
" transform="scale(0.015625)"/>
       </defs>
       <use xlink:href="#ArialMT-31"/>
       <use xlink:href="#ArialMT-34" x="55.615234"/>
       <use xlink:href="#ArialMT-30" x="111.230469"/>
      </g>
     </g>
    </g>
   </g>
   <g id="matplotlib.axis_2">
    <g id="ytick_1">
     <g id="line2d_6">
      <path d="M 37.51925 387.034568 
L 356.56725 387.034568 
" clip-path="url(#p9bea29bca0)" style="fill: none; stroke: #ffffff; stroke-width: 0.8; stroke-linecap: round"/>
     </g>
     <g id="text_6">
      <!-- 0.000 -->
      <g style="fill: #262626" transform="translate(7.2 390.184006) scale(0.088 -0.088)">
       <defs>
        <path id="ArialMT-2e" d="M 581 0 
L 581 641 
L 1222 641 
L 1222 0 
L 581 0 
z
" transform="scale(0.015625)"/>
       </defs>
       <use xlink:href="#ArialMT-30"/>
       <use xlink:href="#ArialMT-2e" x="55.615234"/>
       <use xlink:href="#ArialMT-30" x="83.398438"/>
       <use xlink:href="#ArialMT-30" x="139.013672"/>
       <use xlink:href="#ArialMT-30" x="194.628906"/>
      </g>
     </g>
    </g>
    <g id="ytick_2">
     <g id="line2d_7">
      <path d="M 37.51925 326.057667 
L 356.56725 326.057667 
" clip-path="url(#p9bea29bca0)" style="fill: none; stroke: #ffffff; stroke-width: 0.8; stroke-linecap: round"/>
     </g>
     <g id="text_7">
      <!-- 0.005 -->
      <g style="fill: #262626" transform="translate(7.2 329.207104) scale(0.088 -0.088)">
       <defs>
        <path id="ArialMT-35" d="M 266 1200 
L 856 1250 
Q 922 819 1161 601 
Q 1400 384 1738 384 
Q 2144 384 2425 690 
Q 2706 997 2706 1503 
Q 2706 1984 2436 2262 
Q 2166 2541 1728 2541 
Q 1456 2541 1237 2417 
Q 1019 2294 894 2097 
L 366 2166 
L 809 4519 
L 3088 4519 
L 3088 3981 
L 1259 3981 
L 1013 2750 
Q 1425 3038 1878 3038 
Q 2478 3038 2890 2622 
Q 3303 2206 3303 1553 
Q 3303 931 2941 478 
Q 2500 -78 1738 -78 
Q 1113 -78 717 272 
Q 322 622 266 1200 
z
" transform="scale(0.015625)"/>
       </defs>
       <use xlink:href="#ArialMT-30"/>
       <use xlink:href="#ArialMT-2e" x="55.615234"/>
       <use xlink:href="#ArialMT-30" x="83.398438"/>
       <use xlink:href="#ArialMT-30" x="139.013672"/>
       <use xlink:href="#ArialMT-35" x="194.628906"/>
      </g>
     </g>
    </g>
    <g id="ytick_3">
     <g id="line2d_8">
      <path d="M 37.51925 265.080765 
L 356.56725 265.080765 
" clip-path="url(#p9bea29bca0)" style="fill: none; stroke: #ffffff; stroke-width: 0.8; stroke-linecap: round"/>
     </g>
     <g id="text_8">
      <!-- 0.010 -->
      <g style="fill: #262626" transform="translate(7.2 268.230203) scale(0.088 -0.088)">
       <use xlink:href="#ArialMT-30"/>
       <use xlink:href="#ArialMT-2e" x="55.615234"/>
       <use xlink:href="#ArialMT-30" x="83.398438"/>
       <use xlink:href="#ArialMT-31" x="139.013672"/>
       <use xlink:href="#ArialMT-30" x="194.628906"/>
      </g>
     </g>
    </g>
    <g id="ytick_4">
     <g id="line2d_9">
      <path d="M 37.51925 204.103864 
L 356.56725 204.103864 
" clip-path="url(#p9bea29bca0)" style="fill: none; stroke: #ffffff; stroke-width: 0.8; stroke-linecap: round"/>
     </g>
     <g id="text_9">
      <!-- 0.015 -->
      <g style="fill: #262626" transform="translate(7.2 207.253301) scale(0.088 -0.088)">
       <use xlink:href="#ArialMT-30"/>
       <use xlink:href="#ArialMT-2e" x="55.615234"/>
       <use xlink:href="#ArialMT-30" x="83.398438"/>
       <use xlink:href="#ArialMT-31" x="139.013672"/>
       <use xlink:href="#ArialMT-35" x="194.628906"/>
      </g>
     </g>
    </g>
    <g id="ytick_5">
     <g id="line2d_10">
      <path d="M 37.51925 143.126962 
L 356.56725 143.126962 
" clip-path="url(#p9bea29bca0)" style="fill: none; stroke: #ffffff; stroke-width: 0.8; stroke-linecap: round"/>
     </g>
     <g id="text_10">
      <!-- 0.020 -->
      <g style="fill: #262626" transform="translate(7.2 146.2764) scale(0.088 -0.088)">
       <use xlink:href="#ArialMT-30"/>
       <use xlink:href="#ArialMT-2e" x="55.615234"/>
       <use xlink:href="#ArialMT-30" x="83.398438"/>
       <use xlink:href="#ArialMT-32" x="139.013672"/>
       <use xlink:href="#ArialMT-30" x="194.628906"/>
      </g>
     </g>
    </g>
    <g id="ytick_6">
     <g id="line2d_11">
      <path d="M 37.51925 82.150061 
L 356.56725 82.150061 
" clip-path="url(#p9bea29bca0)" style="fill: none; stroke: #ffffff; stroke-width: 0.8; stroke-linecap: round"/>
     </g>
     <g id="text_11">
      <!-- 0.025 -->
      <g style="fill: #262626" transform="translate(7.2 85.299498) scale(0.088 -0.088)">
       <use xlink:href="#ArialMT-30"/>
       <use xlink:href="#ArialMT-2e" x="55.615234"/>
       <use xlink:href="#ArialMT-30" x="83.398438"/>
       <use xlink:href="#ArialMT-32" x="139.013672"/>
       <use xlink:href="#ArialMT-35" x="194.628906"/>
      </g>
     </g>
    </g>
   </g>
   <g id="PolyCollection_1"/>
   <g id="PolyCollection_2">
    <defs>
     <path id="mafa3bc8649" d="M 52.021432 -39.765307 
L 52.021432 -42.502836 
L 52.311766 -42.555623 
L 52.6021 -42.609319 
L 52.892434 -42.663937 
L 53.182768 -42.719491 
L 53.473102 -42.775994 
L 53.763436 -42.833461 
L 54.05377 -42.891905 
L 54.344104 -42.95134 
L 54.634438 -43.011781 
L 54.924772 -43.073242 
L 55.215105 -43.135737 
L 55.505439 -43.199282 
L 55.795773 -43.26389 
L 56.086107 -43.329578 
L 56.376441 -43.39636 
L 56.666775 -43.464252 
L 56.957109 -43.533269 
L 57.247443 -43.603427 
L 57.537777 -43.674742 
L 57.828111 -43.747229 
L 58.118445 -43.820906 
L 58.408779 -43.895787 
L 58.699113 -43.97189 
L 58.989447 -44.049231 
L 59.279781 -44.127827 
L 59.570115 -44.207695 
L 59.860449 -44.288852 
L 60.150783 -44.371315 
L 60.441117 -44.455102 
L 60.731451 -44.540231 
L 61.021785 -44.626718 
L 61.312119 -44.714583 
L 61.602453 -44.803843 
L 61.892787 -44.894517 
L 62.183121 -44.986622 
L 62.473455 -45.080178 
L 62.763789 -45.175203 
L 63.054123 -45.271717 
L 63.344457 -45.369737 
L 63.634791 -45.469284 
L 63.925125 -45.570378 
L 64.215459 -45.673037 
L 64.505793 -45.777281 
L 64.796127 -45.88313 
L 65.08646 -45.990605 
L 65.376794 -46.099725 
L 65.667128 -46.210512 
L 65.957462 -46.322985 
L 66.247796 -46.437165 
L 66.53813 -46.553074 
L 66.828464 -46.670732 
L 67.118798 -46.790161 
L 67.409132 -46.911381 
L 67.699466 -47.034416 
L 67.9898 -47.159285 
L 68.280134 -47.286012 
L 68.570468 -47.414618 
L 68.860802 -47.545125 
L 69.151136 -47.677556 
L 69.44147 -47.811933 
L 69.731804 -47.948279 
L 70.022138 -48.086618 
L 70.312472 -48.22697 
L 70.602806 -48.369361 
L 70.89314 -48.513814 
L 71.183474 -48.66035 
L 71.473808 -48.808996 
L 71.764142 -48.959773 
L 72.054476 -49.112706 
L 72.34481 -49.26782 
L 72.635144 -49.425137 
L 72.925478 -49.584684 
L 73.215812 -49.746483 
L 73.506146 -49.91056 
L 73.79648 -50.07694 
L 74.086814 -50.245647 
L 74.377148 -50.416706 
L 74.667482 -50.590144 
L 74.957815 -50.765984 
L 75.248149 -50.944253 
L 75.538483 -51.124976 
L 75.828817 -51.308178 
L 76.119151 -51.493887 
L 76.409485 -51.682127 
L 76.699819 -51.872925 
L 76.990153 -52.066307 
L 77.280487 -52.262299 
L 77.570821 -52.460928 
L 77.861155 -52.66222 
L 78.151489 -52.866203 
L 78.441823 -53.072902 
L 78.732157 -53.282346 
L 79.022491 -53.49456 
L 79.312825 -53.709572 
L 79.603159 -53.927409 
L 79.893493 -54.148099 
L 80.183827 -54.371669 
L 80.474161 -54.598146 
L 80.764495 -54.827559 
L 81.054829 -55.059934 
L 81.345163 -55.2953 
L 81.635497 -55.533684 
L 81.925831 -55.775115 
L 82.216165 -56.01962 
L 82.506499 -56.267228 
L 82.796833 -56.517966 
L 83.087167 -56.771863 
L 83.377501 -57.028948 
L 83.667835 -57.289248 
L 83.958169 -57.552792 
L 84.248503 -57.819608 
L 84.538836 -58.089725 
L 84.82917 -58.363172 
L 85.119504 -58.639977 
L 85.409838 -58.920169 
L 85.700172 -59.203776 
L 85.990506 -59.490827 
L 86.28084 -59.781351 
L 86.571174 -60.075376 
L 86.861508 -60.372932 
L 87.151842 -60.674047 
L 87.442176 -60.978749 
L 87.73251 -61.287069 
L 88.022844 -61.599034 
L 88.313178 -61.914673 
L 88.603512 -62.234015 
L 88.893846 -62.557089 
L 89.18418 -62.883924 
L 89.474514 -63.214547 
L 89.764848 -63.548989 
L 90.055182 -63.887278 
L 90.345516 -64.229441 
L 90.63585 -64.575509 
L 90.926184 -64.925509 
L 91.216518 -65.27947 
L 91.506852 -65.63742 
L 91.797186 -65.999389 
L 92.08752 -66.365403 
L 92.377854 -66.735491 
L 92.668188 -67.109682 
L 92.958522 -67.488003 
L 93.248856 -67.870483 
L 93.53919 -68.257149 
L 93.829524 -68.64803 
L 94.119858 -69.043152 
L 94.410191 -69.442544 
L 94.700525 -69.846233 
L 94.990859 -70.254246 
L 95.281193 -70.66661 
L 95.571527 -71.083353 
L 95.861861 -71.504502 
L 96.152195 -71.930082 
L 96.442529 -72.360122 
L 96.732863 -72.794647 
L 97.023197 -73.233684 
L 97.313531 -73.677258 
L 97.603865 -74.125396 
L 97.894199 -74.578124 
L 98.184533 -75.035467 
L 98.474867 -75.497451 
L 98.765201 -75.9641 
L 99.055535 -76.43544 
L 99.345869 -76.911495 
L 99.636203 -77.392291 
L 99.926537 -77.877851 
L 100.216871 -78.368199 
L 100.507205 -78.863359 
L 100.797539 -79.363356 
L 101.087873 -79.868211 
L 101.378207 -80.377949 
L 101.668541 -80.892591 
L 101.958875 -81.412161 
L 102.249209 -81.936681 
L 102.539543 -82.466172 
L 102.829877 -83.000657 
L 103.120211 -83.540156 
L 103.410545 -84.084691 
L 103.700879 -84.634282 
L 103.991213 -85.18895 
L 104.281546 -85.748715 
L 104.57188 -86.313596 
L 104.862214 -86.883613 
L 105.152548 -87.458785 
L 105.442882 -88.03913 
L 105.733216 -88.624667 
L 106.02355 -89.215413 
L 106.313884 -89.811387 
L 106.604218 -90.412604 
L 106.894552 -91.019082 
L 107.184886 -91.630838 
L 107.47522 -92.247886 
L 107.765554 -92.870243 
L 108.055888 -93.497924 
L 108.346222 -94.130942 
L 108.636556 -94.769313 
L 108.92689 -95.41305 
L 109.217224 -96.062165 
L 109.507558 -96.716673 
L 109.797892 -97.376585 
L 110.088226 -98.041913 
L 110.37856 -98.712669 
L 110.668894 -99.388862 
L 110.959228 -100.070504 
L 111.249562 -100.757604 
L 111.539896 -101.450172 
L 111.83023 -102.148217 
L 112.120564 -102.851746 
L 112.410898 -103.560767 
L 112.701232 -104.275288 
L 112.991566 -104.995315 
L 113.2819 -105.720854 
L 113.572234 -106.45191 
L 113.862567 -107.188489 
L 114.152901 -107.930595 
L 114.443235 -108.678231 
L 114.733569 -109.4314 
L 115.023903 -110.190106 
L 115.314237 -110.95435 
L 115.604571 -111.724133 
L 115.894905 -112.499456 
L 116.185239 -113.280318 
L 116.475573 -114.06672 
L 116.765907 -114.858661 
L 117.056241 -115.656137 
L 117.346575 -116.459147 
L 117.636909 -117.267687 
L 117.927243 -118.081753 
L 118.217577 -118.901342 
L 118.507911 -119.726447 
L 118.798245 -120.557062 
L 119.088579 -121.393181 
L 119.378913 -122.234797 
L 119.669247 -123.081901 
L 119.959581 -123.934485 
L 120.249915 -124.792539 
L 120.540249 -125.656053 
L 120.830583 -126.525015 
L 121.120917 -127.399415 
L 121.411251 -128.279239 
L 121.701585 -129.164475 
L 121.991919 -130.055108 
L 122.282253 -130.951124 
L 122.572587 -131.852508 
L 122.862921 -132.759242 
L 123.153255 -133.671309 
L 123.443589 -134.588693 
L 123.733922 -135.511375 
L 124.024256 -136.439334 
L 124.31459 -137.372551 
L 124.604924 -138.311004 
L 124.895258 -139.254673 
L 125.185592 -140.203533 
L 125.475926 -141.157563 
L 125.76626 -142.116737 
L 126.056594 -143.08103 
L 126.346928 -144.050416 
L 126.637262 -145.02487 
L 126.927596 -146.004362 
L 127.21793 -146.988865 
L 127.508264 -147.97835 
L 127.798598 -148.972785 
L 128.088932 -149.972141 
L 128.379266 -150.976386 
L 128.6696 -151.985486 
L 128.959934 -152.999408 
L 129.250268 -154.018118 
L 129.540602 -155.041581 
L 129.830936 -156.06976 
L 130.12127 -157.102619 
L 130.411604 -158.140119 
L 130.701938 -159.182222 
L 130.992272 -160.228889 
L 131.282606 -161.280078 
L 131.57294 -162.335749 
L 131.863274 -163.395859 
L 132.153608 -164.460365 
L 132.443942 -165.529223 
L 132.734276 -166.602389 
L 133.02461 -167.679816 
L 133.314944 -168.761457 
L 133.605277 -169.847267 
L 133.895611 -170.937195 
L 134.185945 -172.031193 
L 134.476279 -173.129211 
L 134.766613 -174.231197 
L 135.056947 -175.3371 
L 135.347281 -176.446867 
L 135.637615 -177.560444 
L 135.927949 -178.677776 
L 136.218283 -179.798809 
L 136.508617 -180.923486 
L 136.798951 -182.051749 
L 137.089285 -183.183542 
L 137.379619 -184.318804 
L 137.669953 -185.457476 
L 137.960287 -186.599497 
L 138.250621 -187.744806 
L 138.540955 -188.893341 
L 138.831289 -190.045038 
L 139.121623 -191.199833 
L 139.411957 -192.357662 
L 139.702291 -193.518458 
L 139.992625 -194.682155 
L 140.282959 -195.848685 
L 140.573293 -197.01798 
L 140.863627 -198.189972 
L 141.153961 -199.364589 
L 141.444295 -200.541762 
L 141.734629 -201.721418 
L 142.024963 -202.903486 
L 142.315297 -204.087891 
L 142.605631 -205.274561 
L 142.895965 -206.46342 
L 143.186299 -207.654392 
L 143.476632 -208.847402 
L 143.766966 -210.042372 
L 144.0573 -211.239223 
L 144.347634 -212.437878 
L 144.637968 -213.638258 
L 144.928302 -214.84028 
L 145.218636 -216.043866 
L 145.50897 -217.248932 
L 145.799304 -218.455397 
L 146.089638 -219.663178 
L 146.379972 -220.87219 
L 146.670306 -222.082349 
L 146.96064 -223.293569 
L 147.250974 -224.505766 
L 147.541308 -225.718851 
L 147.831642 -226.932738 
L 148.121976 -228.147339 
L 148.41231 -229.362565 
L 148.702644 -230.578327 
L 148.992978 -231.794535 
L 149.283312 -233.011098 
L 149.573646 -234.227925 
L 149.86398 -235.444925 
L 150.154314 -236.662005 
L 150.444648 -237.879071 
L 150.734982 -239.096032 
L 151.025316 -240.312791 
L 151.31565 -241.529256 
L 151.605984 -242.74533 
L 151.896318 -243.960917 
L 152.186652 -245.175923 
L 152.476986 -246.390249 
L 152.76732 -247.603799 
L 153.057653 -248.816475 
L 153.347987 -250.028179 
L 153.638321 -251.238812 
L 153.928655 -252.448274 
L 154.218989 -253.656468 
L 154.509323 -254.863291 
L 154.799657 -256.068645 
L 155.089991 -257.272428 
L 155.380325 -258.474539 
L 155.670659 -259.674876 
L 155.960993 -260.873339 
L 156.251327 -262.069824 
L 156.541661 -263.264229 
L 156.831995 -264.456452 
L 157.122329 -265.646388 
L 157.412663 -266.833935 
L 157.702997 -268.018989 
L 157.993331 -269.201446 
L 158.283665 -270.381202 
L 158.573999 -271.558152 
L 158.864333 -272.732192 
L 159.154667 -273.903216 
L 159.445001 -275.07112 
L 159.735335 -276.235799 
L 160.025669 -277.397148 
L 160.316003 -278.55506 
L 160.606337 -279.70943 
L 160.896671 -280.860153 
L 161.187005 -282.007122 
L 161.477339 -283.150233 
L 161.767673 -284.289378 
L 162.058007 -285.424452 
L 162.348341 -286.55535 
L 162.638675 -287.681964 
L 162.929008 -288.80419 
L 163.219342 -289.92192 
L 163.509676 -291.03505 
L 163.80001 -292.143472 
L 164.090344 -293.247083 
L 164.380678 -294.345775 
L 164.671012 -295.439443 
L 164.961346 -296.527982 
L 165.25168 -297.611286 
L 165.542014 -298.68925 
L 165.832348 -299.761769 
L 166.122682 -300.828739 
L 166.413016 -301.890055 
L 166.70335 -302.945611 
L 166.993684 -303.995305 
L 167.284018 -305.039032 
L 167.574352 -306.076689 
L 167.864686 -307.108172 
L 168.15502 -308.133378 
L 168.445354 -309.152205 
L 168.735688 -310.16455 
L 169.026022 -311.170311 
L 169.316356 -312.169387 
L 169.60669 -313.161677 
L 169.897024 -314.147078 
L 170.187358 -315.125492 
L 170.477692 -316.096819 
L 170.768026 -317.060957 
L 171.05836 -318.01781 
L 171.348694 -318.967278 
L 171.639028 -319.909263 
L 171.929362 -320.843668 
L 172.219696 -321.770395 
L 172.51003 -322.689349 
L 172.800363 -323.600434 
L 173.090697 -324.503554 
L 173.381031 -325.398615 
L 173.671365 -326.285523 
L 173.961699 -327.164185 
L 174.252033 -328.034507 
L 174.542367 -328.896399 
L 174.832701 -329.749768 
L 175.123035 -330.594524 
L 175.413369 -331.430577 
L 175.703703 -332.257839 
L 175.994037 -333.07622 
L 176.284371 -333.885634 
L 176.574705 -334.685993 
L 176.865039 -335.477212 
L 177.155373 -336.259205 
L 177.445707 -337.031887 
L 177.736041 -337.795177 
L 178.026375 -338.54899 
L 178.316709 -339.293245 
L 178.607043 -340.027861 
L 178.897377 -340.752759 
L 179.187711 -341.467859 
L 179.478045 -342.173083 
L 179.768379 -342.868354 
L 180.058713 -343.553596 
L 180.349047 -344.228734 
L 180.639381 -344.893693 
L 180.929715 -345.548401 
L 181.220049 -346.192785 
L 181.510383 -346.826774 
L 181.800717 -347.450298 
L 182.091051 -348.063287 
L 182.381384 -348.665675 
L 182.671718 -349.257394 
L 182.962052 -349.838378 
L 183.252386 -350.408562 
L 183.54272 -350.967884 
L 183.833054 -351.516281 
L 184.123388 -352.053691 
L 184.413722 -352.580054 
L 184.704056 -353.095311 
L 184.99439 -353.599406 
L 185.284724 -354.09228 
L 185.575058 -354.573879 
L 185.865392 -355.044148 
L 186.155726 -355.503035 
L 186.44606 -355.950487 
L 186.736394 -356.386455 
L 187.026728 -356.810889 
L 187.317062 -357.223741 
L 187.607396 -357.624965 
L 187.89773 -358.014514 
L 188.188064 -358.392346 
L 188.478398 -358.758416 
L 188.768732 -359.112684 
L 189.059066 -359.455109 
L 189.3494 -359.785652 
L 189.639734 -360.104276 
L 189.930068 -360.410944 
L 190.220402 -360.705622 
L 190.510736 -360.988275 
L 190.80107 -361.258873 
L 191.091404 -361.517383 
L 191.381738 -361.763776 
L 191.672072 -361.998024 
L 191.962406 -362.220101 
L 192.252739 -362.429981 
L 192.543073 -362.627639 
L 192.833407 -362.813054 
L 193.123741 -362.986204 
L 193.414075 -363.147069 
L 193.704409 -363.295631 
L 193.994743 -363.431873 
L 194.285077 -363.555779 
L 194.575411 -363.667335 
L 194.865745 -363.766528 
L 195.156079 -363.853347 
L 195.446413 -363.927782 
L 195.736747 -363.989824 
L 196.027081 -364.039466 
L 196.317415 -364.076702 
L 196.607749 -364.101529 
L 196.898083 -364.113943 
L 197.188417 -364.113943 
L 197.478751 -364.101529 
L 197.769085 -364.076702 
L 198.059419 -364.039466 
L 198.349753 -363.989824 
L 198.640087 -363.927782 
L 198.930421 -363.853347 
L 199.220755 -363.766528 
L 199.511089 -363.667335 
L 199.801423 -363.555779 
L 200.091757 -363.431873 
L 200.382091 -363.295631 
L 200.672425 -363.147069 
L 200.962759 -362.986204 
L 201.253093 -362.813054 
L 201.543427 -362.627639 
L 201.833761 -362.429981 
L 202.124094 -362.220101 
L 202.414428 -361.998024 
L 202.704762 -361.763776 
L 202.995096 -361.517383 
L 203.28543 -361.258873 
L 203.575764 -360.988275 
L 203.866098 -360.705622 
L 204.156432 -360.410944 
L 204.446766 -360.104276 
L 204.7371 -359.785652 
L 205.027434 -359.455109 
L 205.317768 -359.112684 
L 205.608102 -358.758416 
L 205.898436 -358.392346 
L 206.18877 -358.014514 
L 206.479104 -357.624965 
L 206.769438 -357.223741 
L 207.059772 -356.810889 
L 207.350106 -356.386455 
L 207.64044 -355.950487 
L 207.930774 -355.503035 
L 208.221108 -355.044148 
L 208.511442 -354.573879 
L 208.801776 -354.09228 
L 209.09211 -353.599406 
L 209.382444 -353.095311 
L 209.672778 -352.580054 
L 209.963112 -352.053691 
L 210.253446 -351.516281 
L 210.54378 -350.967884 
L 210.834114 -350.408562 
L 211.124448 -349.838378 
L 211.414782 -349.257394 
L 211.705116 -348.665675 
L 211.995449 -348.063287 
L 212.285783 -347.450298 
L 212.576117 -346.826774 
L 212.866451 -346.192785 
L 213.156785 -345.548401 
L 213.447119 -344.893693 
L 213.737453 -344.228734 
L 214.027787 -343.553596 
L 214.318121 -342.868354 
L 214.608455 -342.173083 
L 214.898789 -341.467859 
L 215.189123 -340.752759 
L 215.479457 -340.027861 
L 215.769791 -339.293245 
L 216.060125 -338.54899 
L 216.350459 -337.795177 
L 216.640793 -337.031887 
L 216.931127 -336.259205 
L 217.221461 -335.477212 
L 217.511795 -334.685993 
L 217.802129 -333.885634 
L 218.092463 -333.07622 
L 218.382797 -332.257839 
L 218.673131 -331.430577 
L 218.963465 -330.594524 
L 219.253799 -329.749768 
L 219.544133 -328.896399 
L 219.834467 -328.034507 
L 220.124801 -327.164185 
L 220.415135 -326.285523 
L 220.705469 -325.398615 
L 220.995803 -324.503554 
L 221.286137 -323.600434 
L 221.57647 -322.689349 
L 221.866804 -321.770395 
L 222.157138 -320.843668 
L 222.447472 -319.909263 
L 222.737806 -318.967278 
L 223.02814 -318.01781 
L 223.318474 -317.060957 
L 223.608808 -316.096819 
L 223.899142 -315.125492 
L 224.189476 -314.147078 
L 224.47981 -313.161677 
L 224.770144 -312.169387 
L 225.060478 -311.170311 
L 225.350812 -310.16455 
L 225.641146 -309.152205 
L 225.93148 -308.133378 
L 226.221814 -307.108172 
L 226.512148 -306.076689 
L 226.802482 -305.039032 
L 227.092816 -303.995305 
L 227.38315 -302.945611 
L 227.673484 -301.890055 
L 227.963818 -300.828739 
L 228.254152 -299.761769 
L 228.544486 -298.68925 
L 228.83482 -297.611286 
L 229.125154 -296.527982 
L 229.415488 -295.439443 
L 229.705822 -294.345775 
L 229.996156 -293.247083 
L 230.28649 -292.143472 
L 230.576824 -291.03505 
L 230.867158 -289.92192 
L 231.157492 -288.80419 
L 231.447825 -287.681964 
L 231.738159 -286.55535 
L 232.028493 -285.424452 
L 232.318827 -284.289378 
L 232.609161 -283.150233 
L 232.899495 -282.007122 
L 233.189829 -280.860153 
L 233.480163 -279.70943 
L 233.770497 -278.55506 
L 234.060831 -277.397148 
L 234.351165 -276.235799 
L 234.641499 -275.07112 
L 234.931833 -273.903216 
L 235.222167 -272.732192 
L 235.512501 -271.558152 
L 235.802835 -270.381202 
L 236.093169 -269.201446 
L 236.383503 -268.018989 
L 236.673837 -266.833935 
L 236.964171 -265.646388 
L 237.254505 -264.456452 
L 237.544839 -263.264229 
L 237.835173 -262.069824 
L 238.125507 -260.873339 
L 238.415841 -259.674876 
L 238.706175 -258.474539 
L 238.996509 -257.272428 
L 239.286843 -256.068645 
L 239.577177 -254.863291 
L 239.867511 -253.656468 
L 240.157845 -252.448274 
L 240.448179 -251.238812 
L 240.738513 -250.028179 
L 241.028847 -248.816475 
L 241.31918 -247.603799 
L 241.609514 -246.390249 
L 241.899848 -245.175923 
L 242.190182 -243.960917 
L 242.480516 -242.74533 
L 242.77085 -241.529256 
L 243.061184 -240.312791 
L 243.351518 -239.096032 
L 243.641852 -237.879071 
L 243.932186 -236.662005 
L 243.932186 -39.765307 
L 243.932186 -39.765307 
L 243.641852 -39.765307 
L 243.351518 -39.765307 
L 243.061184 -39.765307 
L 242.77085 -39.765307 
L 242.480516 -39.765307 
L 242.190182 -39.765307 
L 241.899848 -39.765307 
L 241.609514 -39.765307 
L 241.31918 -39.765307 
L 241.028847 -39.765307 
L 240.738513 -39.765307 
L 240.448179 -39.765307 
L 240.157845 -39.765307 
L 239.867511 -39.765307 
L 239.577177 -39.765307 
L 239.286843 -39.765307 
L 238.996509 -39.765307 
L 238.706175 -39.765307 
L 238.415841 -39.765307 
L 238.125507 -39.765307 
L 237.835173 -39.765307 
L 237.544839 -39.765307 
L 237.254505 -39.765307 
L 236.964171 -39.765307 
L 236.673837 -39.765307 
L 236.383503 -39.765307 
L 236.093169 -39.765307 
L 235.802835 -39.765307 
L 235.512501 -39.765307 
L 235.222167 -39.765307 
L 234.931833 -39.765307 
L 234.641499 -39.765307 
L 234.351165 -39.765307 
L 234.060831 -39.765307 
L 233.770497 -39.765307 
L 233.480163 -39.765307 
L 233.189829 -39.765307 
L 232.899495 -39.765307 
L 232.609161 -39.765307 
L 232.318827 -39.765307 
L 232.028493 -39.765307 
L 231.738159 -39.765307 
L 231.447825 -39.765307 
L 231.157492 -39.765307 
L 230.867158 -39.765307 
L 230.576824 -39.765307 
L 230.28649 -39.765307 
L 229.996156 -39.765307 
L 229.705822 -39.765307 
L 229.415488 -39.765307 
L 229.125154 -39.765307 
L 228.83482 -39.765307 
L 228.544486 -39.765307 
L 228.254152 -39.765307 
L 227.963818 -39.765307 
L 227.673484 -39.765307 
L 227.38315 -39.765307 
L 227.092816 -39.765307 
L 226.802482 -39.765307 
L 226.512148 -39.765307 
L 226.221814 -39.765307 
L 225.93148 -39.765307 
L 225.641146 -39.765307 
L 225.350812 -39.765307 
L 225.060478 -39.765307 
L 224.770144 -39.765307 
L 224.47981 -39.765307 
L 224.189476 -39.765307 
L 223.899142 -39.765307 
L 223.608808 -39.765307 
L 223.318474 -39.765307 
L 223.02814 -39.765307 
L 222.737806 -39.765307 
L 222.447472 -39.765307 
L 222.157138 -39.765307 
L 221.866804 -39.765307 
L 221.57647 -39.765307 
L 221.286137 -39.765307 
L 220.995803 -39.765307 
L 220.705469 -39.765307 
L 220.415135 -39.765307 
L 220.124801 -39.765307 
L 219.834467 -39.765307 
L 219.544133 -39.765307 
L 219.253799 -39.765307 
L 218.963465 -39.765307 
L 218.673131 -39.765307 
L 218.382797 -39.765307 
L 218.092463 -39.765307 
L 217.802129 -39.765307 
L 217.511795 -39.765307 
L 217.221461 -39.765307 
L 216.931127 -39.765307 
L 216.640793 -39.765307 
L 216.350459 -39.765307 
L 216.060125 -39.765307 
L 215.769791 -39.765307 
L 215.479457 -39.765307 
L 215.189123 -39.765307 
L 214.898789 -39.765307 
L 214.608455 -39.765307 
L 214.318121 -39.765307 
L 214.027787 -39.765307 
L 213.737453 -39.765307 
L 213.447119 -39.765307 
L 213.156785 -39.765307 
L 212.866451 -39.765307 
L 212.576117 -39.765307 
L 212.285783 -39.765307 
L 211.995449 -39.765307 
L 211.705116 -39.765307 
L 211.414782 -39.765307 
L 211.124448 -39.765307 
L 210.834114 -39.765307 
L 210.54378 -39.765307 
L 210.253446 -39.765307 
L 209.963112 -39.765307 
L 209.672778 -39.765307 
L 209.382444 -39.765307 
L 209.09211 -39.765307 
L 208.801776 -39.765307 
L 208.511442 -39.765307 
L 208.221108 -39.765307 
L 207.930774 -39.765307 
L 207.64044 -39.765307 
L 207.350106 -39.765307 
L 207.059772 -39.765307 
L 206.769438 -39.765307 
L 206.479104 -39.765307 
L 206.18877 -39.765307 
L 205.898436 -39.765307 
L 205.608102 -39.765307 
L 205.317768 -39.765307 
L 205.027434 -39.765307 
L 204.7371 -39.765307 
L 204.446766 -39.765307 
L 204.156432 -39.765307 
L 203.866098 -39.765307 
L 203.575764 -39.765307 
L 203.28543 -39.765307 
L 202.995096 -39.765307 
L 202.704762 -39.765307 
L 202.414428 -39.765307 
L 202.124094 -39.765307 
L 201.833761 -39.765307 
L 201.543427 -39.765307 
L 201.253093 -39.765307 
L 200.962759 -39.765307 
L 200.672425 -39.765307 
L 200.382091 -39.765307 
L 200.091757 -39.765307 
L 199.801423 -39.765307 
L 199.511089 -39.765307 
L 199.220755 -39.765307 
L 198.930421 -39.765307 
L 198.640087 -39.765307 
L 198.349753 -39.765307 
L 198.059419 -39.765307 
L 197.769085 -39.765307 
L 197.478751 -39.765307 
L 197.188417 -39.765307 
L 196.898083 -39.765307 
L 196.607749 -39.765307 
L 196.317415 -39.765307 
L 196.027081 -39.765307 
L 195.736747 -39.765307 
L 195.446413 -39.765307 
L 195.156079 -39.765307 
L 194.865745 -39.765307 
L 194.575411 -39.765307 
L 194.285077 -39.765307 
L 193.994743 -39.765307 
L 193.704409 -39.765307 
L 193.414075 -39.765307 
L 193.123741 -39.765307 
L 192.833407 -39.765307 
L 192.543073 -39.765307 
L 192.252739 -39.765307 
L 191.962406 -39.765307 
L 191.672072 -39.765307 
L 191.381738 -39.765307 
L 191.091404 -39.765307 
L 190.80107 -39.765307 
L 190.510736 -39.765307 
L 190.220402 -39.765307 
L 189.930068 -39.765307 
L 189.639734 -39.765307 
L 189.3494 -39.765307 
L 189.059066 -39.765307 
L 188.768732 -39.765307 
L 188.478398 -39.765307 
L 188.188064 -39.765307 
L 187.89773 -39.765307 
L 187.607396 -39.765307 
L 187.317062 -39.765307 
L 187.026728 -39.765307 
L 186.736394 -39.765307 
L 186.44606 -39.765307 
L 186.155726 -39.765307 
L 185.865392 -39.765307 
L 185.575058 -39.765307 
L 185.284724 -39.765307 
L 184.99439 -39.765307 
L 184.704056 -39.765307 
L 184.413722 -39.765307 
L 184.123388 -39.765307 
L 183.833054 -39.765307 
L 183.54272 -39.765307 
L 183.252386 -39.765307 
L 182.962052 -39.765307 
L 182.671718 -39.765307 
L 182.381384 -39.765307 
L 182.091051 -39.765307 
L 181.800717 -39.765307 
L 181.510383 -39.765307 
L 181.220049 -39.765307 
L 180.929715 -39.765307 
L 180.639381 -39.765307 
L 180.349047 -39.765307 
L 180.058713 -39.765307 
L 179.768379 -39.765307 
L 179.478045 -39.765307 
L 179.187711 -39.765307 
L 178.897377 -39.765307 
L 178.607043 -39.765307 
L 178.316709 -39.765307 
L 178.026375 -39.765307 
L 177.736041 -39.765307 
L 177.445707 -39.765307 
L 177.155373 -39.765307 
L 176.865039 -39.765307 
L 176.574705 -39.765307 
L 176.284371 -39.765307 
L 175.994037 -39.765307 
L 175.703703 -39.765307 
L 175.413369 -39.765307 
L 175.123035 -39.765307 
L 174.832701 -39.765307 
L 174.542367 -39.765307 
L 174.252033 -39.765307 
L 173.961699 -39.765307 
L 173.671365 -39.765307 
L 173.381031 -39.765307 
L 173.090697 -39.765307 
L 172.800363 -39.765307 
L 172.51003 -39.765307 
L 172.219696 -39.765307 
L 171.929362 -39.765307 
L 171.639028 -39.765307 
L 171.348694 -39.765307 
L 171.05836 -39.765307 
L 170.768026 -39.765307 
L 170.477692 -39.765307 
L 170.187358 -39.765307 
L 169.897024 -39.765307 
L 169.60669 -39.765307 
L 169.316356 -39.765307 
L 169.026022 -39.765307 
L 168.735688 -39.765307 
L 168.445354 -39.765307 
L 168.15502 -39.765307 
L 167.864686 -39.765307 
L 167.574352 -39.765307 
L 167.284018 -39.765307 
L 166.993684 -39.765307 
L 166.70335 -39.765307 
L 166.413016 -39.765307 
L 166.122682 -39.765307 
L 165.832348 -39.765307 
L 165.542014 -39.765307 
L 165.25168 -39.765307 
L 164.961346 -39.765307 
L 164.671012 -39.765307 
L 164.380678 -39.765307 
L 164.090344 -39.765307 
L 163.80001 -39.765307 
L 163.509676 -39.765307 
L 163.219342 -39.765307 
L 162.929008 -39.765307 
L 162.638675 -39.765307 
L 162.348341 -39.765307 
L 162.058007 -39.765307 
L 161.767673 -39.765307 
L 161.477339 -39.765307 
L 161.187005 -39.765307 
L 160.896671 -39.765307 
L 160.606337 -39.765307 
L 160.316003 -39.765307 
L 160.025669 -39.765307 
L 159.735335 -39.765307 
L 159.445001 -39.765307 
L 159.154667 -39.765307 
L 158.864333 -39.765307 
L 158.573999 -39.765307 
L 158.283665 -39.765307 
L 157.993331 -39.765307 
L 157.702997 -39.765307 
L 157.412663 -39.765307 
L 157.122329 -39.765307 
L 156.831995 -39.765307 
L 156.541661 -39.765307 
L 156.251327 -39.765307 
L 155.960993 -39.765307 
L 155.670659 -39.765307 
L 155.380325 -39.765307 
L 155.089991 -39.765307 
L 154.799657 -39.765307 
L 154.509323 -39.765307 
L 154.218989 -39.765307 
L 153.928655 -39.765307 
L 153.638321 -39.765307 
L 153.347987 -39.765307 
L 153.057653 -39.765307 
L 152.76732 -39.765307 
L 152.476986 -39.765307 
L 152.186652 -39.765307 
L 151.896318 -39.765307 
L 151.605984 -39.765307 
L 151.31565 -39.765307 
L 151.025316 -39.765307 
L 150.734982 -39.765307 
L 150.444648 -39.765307 
L 150.154314 -39.765307 
L 149.86398 -39.765307 
L 149.573646 -39.765307 
L 149.283312 -39.765307 
L 148.992978 -39.765307 
L 148.702644 -39.765307 
L 148.41231 -39.765307 
L 148.121976 -39.765307 
L 147.831642 -39.765307 
L 147.541308 -39.765307 
L 147.250974 -39.765307 
L 146.96064 -39.765307 
L 146.670306 -39.765307 
L 146.379972 -39.765307 
L 146.089638 -39.765307 
L 145.799304 -39.765307 
L 145.50897 -39.765307 
L 145.218636 -39.765307 
L 144.928302 -39.765307 
L 144.637968 -39.765307 
L 144.347634 -39.765307 
L 144.0573 -39.765307 
L 143.766966 -39.765307 
L 143.476632 -39.765307 
L 143.186299 -39.765307 
L 142.895965 -39.765307 
L 142.605631 -39.765307 
L 142.315297 -39.765307 
L 142.024963 -39.765307 
L 141.734629 -39.765307 
L 141.444295 -39.765307 
L 141.153961 -39.765307 
L 140.863627 -39.765307 
L 140.573293 -39.765307 
L 140.282959 -39.765307 
L 139.992625 -39.765307 
L 139.702291 -39.765307 
L 139.411957 -39.765307 
L 139.121623 -39.765307 
L 138.831289 -39.765307 
L 138.540955 -39.765307 
L 138.250621 -39.765307 
L 137.960287 -39.765307 
L 137.669953 -39.765307 
L 137.379619 -39.765307 
L 137.089285 -39.765307 
L 136.798951 -39.765307 
L 136.508617 -39.765307 
L 136.218283 -39.765307 
L 135.927949 -39.765307 
L 135.637615 -39.765307 
L 135.347281 -39.765307 
L 135.056947 -39.765307 
L 134.766613 -39.765307 
L 134.476279 -39.765307 
L 134.185945 -39.765307 
L 133.895611 -39.765307 
L 133.605277 -39.765307 
L 133.314944 -39.765307 
L 133.02461 -39.765307 
L 132.734276 -39.765307 
L 132.443942 -39.765307 
L 132.153608 -39.765307 
L 131.863274 -39.765307 
L 131.57294 -39.765307 
L 131.282606 -39.765307 
L 130.992272 -39.765307 
L 130.701938 -39.765307 
L 130.411604 -39.765307 
L 130.12127 -39.765307 
L 129.830936 -39.765307 
L 129.540602 -39.765307 
L 129.250268 -39.765307 
L 128.959934 -39.765307 
L 128.6696 -39.765307 
L 128.379266 -39.765307 
L 128.088932 -39.765307 
L 127.798598 -39.765307 
L 127.508264 -39.765307 
L 127.21793 -39.765307 
L 126.927596 -39.765307 
L 126.637262 -39.765307 
L 126.346928 -39.765307 
L 126.056594 -39.765307 
L 125.76626 -39.765307 
L 125.475926 -39.765307 
L 125.185592 -39.765307 
L 124.895258 -39.765307 
L 124.604924 -39.765307 
L 124.31459 -39.765307 
L 124.024256 -39.765307 
L 123.733922 -39.765307 
L 123.443589 -39.765307 
L 123.153255 -39.765307 
L 122.862921 -39.765307 
L 122.572587 -39.765307 
L 122.282253 -39.765307 
L 121.991919 -39.765307 
L 121.701585 -39.765307 
L 121.411251 -39.765307 
L 121.120917 -39.765307 
L 120.830583 -39.765307 
L 120.540249 -39.765307 
L 120.249915 -39.765307 
L 119.959581 -39.765307 
L 119.669247 -39.765307 
L 119.378913 -39.765307 
L 119.088579 -39.765307 
L 118.798245 -39.765307 
L 118.507911 -39.765307 
L 118.217577 -39.765307 
L 117.927243 -39.765307 
L 117.636909 -39.765307 
L 117.346575 -39.765307 
L 117.056241 -39.765307 
L 116.765907 -39.765307 
L 116.475573 -39.765307 
L 116.185239 -39.765307 
L 115.894905 -39.765307 
L 115.604571 -39.765307 
L 115.314237 -39.765307 
L 115.023903 -39.765307 
L 114.733569 -39.765307 
L 114.443235 -39.765307 
L 114.152901 -39.765307 
L 113.862567 -39.765307 
L 113.572234 -39.765307 
L 113.2819 -39.765307 
L 112.991566 -39.765307 
L 112.701232 -39.765307 
L 112.410898 -39.765307 
L 112.120564 -39.765307 
L 111.83023 -39.765307 
L 111.539896 -39.765307 
L 111.249562 -39.765307 
L 110.959228 -39.765307 
L 110.668894 -39.765307 
L 110.37856 -39.765307 
L 110.088226 -39.765307 
L 109.797892 -39.765307 
L 109.507558 -39.765307 
L 109.217224 -39.765307 
L 108.92689 -39.765307 
L 108.636556 -39.765307 
L 108.346222 -39.765307 
L 108.055888 -39.765307 
L 107.765554 -39.765307 
L 107.47522 -39.765307 
L 107.184886 -39.765307 
L 106.894552 -39.765307 
L 106.604218 -39.765307 
L 106.313884 -39.765307 
L 106.02355 -39.765307 
L 105.733216 -39.765307 
L 105.442882 -39.765307 
L 105.152548 -39.765307 
L 104.862214 -39.765307 
L 104.57188 -39.765307 
L 104.281546 -39.765307 
L 103.991213 -39.765307 
L 103.700879 -39.765307 
L 103.410545 -39.765307 
L 103.120211 -39.765307 
L 102.829877 -39.765307 
L 102.539543 -39.765307 
L 102.249209 -39.765307 
L 101.958875 -39.765307 
L 101.668541 -39.765307 
L 101.378207 -39.765307 
L 101.087873 -39.765307 
L 100.797539 -39.765307 
L 100.507205 -39.765307 
L 100.216871 -39.765307 
L 99.926537 -39.765307 
L 99.636203 -39.765307 
L 99.345869 -39.765307 
L 99.055535 -39.765307 
L 98.765201 -39.765307 
L 98.474867 -39.765307 
L 98.184533 -39.765307 
L 97.894199 -39.765307 
L 97.603865 -39.765307 
L 97.313531 -39.765307 
L 97.023197 -39.765307 
L 96.732863 -39.765307 
L 96.442529 -39.765307 
L 96.152195 -39.765307 
L 95.861861 -39.765307 
L 95.571527 -39.765307 
L 95.281193 -39.765307 
L 94.990859 -39.765307 
L 94.700525 -39.765307 
L 94.410191 -39.765307 
L 94.119858 -39.765307 
L 93.829524 -39.765307 
L 93.53919 -39.765307 
L 93.248856 -39.765307 
L 92.958522 -39.765307 
L 92.668188 -39.765307 
L 92.377854 -39.765307 
L 92.08752 -39.765307 
L 91.797186 -39.765307 
L 91.506852 -39.765307 
L 91.216518 -39.765307 
L 90.926184 -39.765307 
L 90.63585 -39.765307 
L 90.345516 -39.765307 
L 90.055182 -39.765307 
L 89.764848 -39.765307 
L 89.474514 -39.765307 
L 89.18418 -39.765307 
L 88.893846 -39.765307 
L 88.603512 -39.765307 
L 88.313178 -39.765307 
L 88.022844 -39.765307 
L 87.73251 -39.765307 
L 87.442176 -39.765307 
L 87.151842 -39.765307 
L 86.861508 -39.765307 
L 86.571174 -39.765307 
L 86.28084 -39.765307 
L 85.990506 -39.765307 
L 85.700172 -39.765307 
L 85.409838 -39.765307 
L 85.119504 -39.765307 
L 84.82917 -39.765307 
L 84.538836 -39.765307 
L 84.248503 -39.765307 
L 83.958169 -39.765307 
L 83.667835 -39.765307 
L 83.377501 -39.765307 
L 83.087167 -39.765307 
L 82.796833 -39.765307 
L 82.506499 -39.765307 
L 82.216165 -39.765307 
L 81.925831 -39.765307 
L 81.635497 -39.765307 
L 81.345163 -39.765307 
L 81.054829 -39.765307 
L 80.764495 -39.765307 
L 80.474161 -39.765307 
L 80.183827 -39.765307 
L 79.893493 -39.765307 
L 79.603159 -39.765307 
L 79.312825 -39.765307 
L 79.022491 -39.765307 
L 78.732157 -39.765307 
L 78.441823 -39.765307 
L 78.151489 -39.765307 
L 77.861155 -39.765307 
L 77.570821 -39.765307 
L 77.280487 -39.765307 
L 76.990153 -39.765307 
L 76.699819 -39.765307 
L 76.409485 -39.765307 
L 76.119151 -39.765307 
L 75.828817 -39.765307 
L 75.538483 -39.765307 
L 75.248149 -39.765307 
L 74.957815 -39.765307 
L 74.667482 -39.765307 
L 74.377148 -39.765307 
L 74.086814 -39.765307 
L 73.79648 -39.765307 
L 73.506146 -39.765307 
L 73.215812 -39.765307 
L 72.925478 -39.765307 
L 72.635144 -39.765307 
L 72.34481 -39.765307 
L 72.054476 -39.765307 
L 71.764142 -39.765307 
L 71.473808 -39.765307 
L 71.183474 -39.765307 
L 70.89314 -39.765307 
L 70.602806 -39.765307 
L 70.312472 -39.765307 
L 70.022138 -39.765307 
L 69.731804 -39.765307 
L 69.44147 -39.765307 
L 69.151136 -39.765307 
L 68.860802 -39.765307 
L 68.570468 -39.765307 
L 68.280134 -39.765307 
L 67.9898 -39.765307 
L 67.699466 -39.765307 
L 67.409132 -39.765307 
L 67.118798 -39.765307 
L 66.828464 -39.765307 
L 66.53813 -39.765307 
L 66.247796 -39.765307 
L 65.957462 -39.765307 
L 65.667128 -39.765307 
L 65.376794 -39.765307 
L 65.08646 -39.765307 
L 64.796127 -39.765307 
L 64.505793 -39.765307 
L 64.215459 -39.765307 
L 63.925125 -39.765307 
L 63.634791 -39.765307 
L 63.344457 -39.765307 
L 63.054123 -39.765307 
L 62.763789 -39.765307 
L 62.473455 -39.765307 
L 62.183121 -39.765307 
L 61.892787 -39.765307 
L 61.602453 -39.765307 
L 61.312119 -39.765307 
L 61.021785 -39.765307 
L 60.731451 -39.765307 
L 60.441117 -39.765307 
L 60.150783 -39.765307 
L 59.860449 -39.765307 
L 59.570115 -39.765307 
L 59.279781 -39.765307 
L 58.989447 -39.765307 
L 58.699113 -39.765307 
L 58.408779 -39.765307 
L 58.118445 -39.765307 
L 57.828111 -39.765307 
L 57.537777 -39.765307 
L 57.247443 -39.765307 
L 56.957109 -39.765307 
L 56.666775 -39.765307 
L 56.376441 -39.765307 
L 56.086107 -39.765307 
L 55.795773 -39.765307 
L 55.505439 -39.765307 
L 55.215105 -39.765307 
L 54.924772 -39.765307 
L 54.634438 -39.765307 
L 54.344104 -39.765307 
L 54.05377 -39.765307 
L 53.763436 -39.765307 
L 53.473102 -39.765307 
L 53.182768 -39.765307 
L 52.892434 -39.765307 
L 52.6021 -39.765307 
L 52.311766 -39.765307 
L 52.021432 -39.765307 
z
" style="stroke: #ffffff; stroke-opacity: 0.2; stroke-width: 0.8"/>
    </defs>
    <g clip-path="url(#p9bea29bca0)">
     <use xlink:href="#mafa3bc8649" x="0" y="426.799875" style="fill: #0000ff; fill-opacity: 0.2; stroke: #ffffff; stroke-opacity: 0.2; stroke-width: 0.8"/>
    </g>
   </g>
   <g id="line2d_12">
    <path d="M 52.021432 384.297039 
L 56.376441 383.403515 
L 60.441117 382.344773 
L 64.215459 381.126838 
L 67.699466 379.765459 
L 70.89314 378.286061 
L 74.086814 376.554228 
L 76.990153 374.733568 
L 79.893493 372.651776 
L 82.796833 370.281909 
L 85.700172 367.596099 
L 88.313178 364.885202 
L 90.926184 361.874366 
L 93.53919 358.542726 
L 96.152195 354.869793 
L 98.765201 350.835775 
L 101.378207 346.421926 
L 104.281546 341.05116 
L 107.184886 335.169037 
L 110.088226 328.757962 
L 112.991566 321.80456 
L 115.894905 314.300419 
L 119.088579 305.406694 
L 122.282253 295.848751 
L 125.76626 284.683138 
L 129.250268 272.781757 
L 133.02461 259.120059 
L 137.379619 242.481071 
L 142.315297 222.711984 
L 149.283312 193.788777 
L 158.864333 154.067683 
L 163.509676 135.764825 
L 167.284018 121.760843 
L 170.477692 110.703056 
L 173.381031 101.40126 
L 175.994037 93.723655 
L 178.316709 87.50663 
L 180.639381 81.906182 
L 182.671718 77.542481 
L 184.704056 73.704564 
L 186.44606 70.849388 
L 188.188064 68.407529 
L 189.930068 66.388931 
L 191.381738 65.036099 
L 192.833407 63.986821 
L 194.285077 63.244096 
L 195.446413 62.872093 
L 196.607749 62.698346 
L 197.769085 62.723173 
L 198.930421 62.946528 
L 200.091757 63.368002 
L 201.253093 63.986821 
L 202.704762 65.036099 
L 204.156432 66.388931 
L 205.608102 68.041459 
L 207.350106 70.41342 
L 209.09211 73.200469 
L 210.834114 76.391313 
L 212.866451 80.60709 
L 214.898789 85.332016 
L 217.221461 91.322663 
L 219.834467 98.765368 
L 222.447472 106.890612 
L 225.350812 116.635325 
L 228.544486 128.110625 
L 232.318827 142.510497 
L 236.964171 161.153487 
L 244.22252 191.35495 
L 253.222873 228.609903 
L 258.158551 248.122099 
L 262.51356 264.464126 
L 266.287902 277.82709 
L 270.062244 290.360541 
L 273.546251 301.143822 
L 276.739925 310.340728 
L 279.933599 318.86928 
L 283.127272 326.729371 
L 286.030612 333.301951 
L 288.933952 339.34109 
L 291.837291 344.863194 
L 294.740631 349.88838 
L 297.643971 354.439753 
L 300.54731 358.542726 
L 303.45065 362.224366 
L 306.35399 365.512806 
L 309.25733 368.436703 
L 312.160669 371.02476 
L 315.064009 373.305315 
L 317.967349 375.305988 
L 320.870688 377.053392 
L 324.064362 378.713257 
L 327.258036 380.129143 
L 330.742043 381.430138 
L 334.516385 382.59218 
L 338.581061 383.600593 
L 342.065068 384.297039 
L 342.065068 384.297039 
" clip-path="url(#p9bea29bca0)" style="fill: none; stroke: #0173b2; stroke-width: 1.2; stroke-linecap: round"/>
   </g>
   <g id="LineCollection_1">
    <path d="M 243.972349 387.034568 
L 243.972349 190.306235 
" clip-path="url(#p9bea29bca0)" style="fill: none; stroke: #0000ff; stroke-opacity: 0.5; stroke-width: 1.2"/>
   </g>
   <g id="patch_3">
    <path d="M 37.51925 403.252 
L 37.51925 46.4685 
" style="fill: none; stroke: #ffffff; stroke-linejoin: miter; stroke-linecap: square"/>
   </g>
   <g id="patch_4">
    <path d="M 356.56725 403.252 
L 356.56725 46.4685 
" style="fill: none; stroke: #ffffff; stroke-linejoin: miter; stroke-linecap: square"/>
   </g>
   <g id="patch_5">
    <path d="M 37.51925 403.252 
L 356.56725 403.252 
" style="fill: none; stroke: #ffffff; stroke-linejoin: miter; stroke-linecap: square"/>
   </g>
   <g id="patch_6">
    <path d="M 37.51925 46.4685 
L 356.56725 46.4685 
" style="fill: none; stroke: #ffffff; stroke-linejoin: miter; stroke-linecap: square"/>
   </g>
   <g id="text_12">
    <!-- $b$ -->
    <g style="fill: #262626" transform="translate(241.908349 393.906068) scale(0.096 -0.096)">
     <defs>
      <path id="Cmmi10-62" d="M 1106 -72 
Q 719 -72 503 231 
Q 288 534 288 941 
Q 288 1000 317 1173 
Q 347 1347 347 1388 
L 966 3872 
Q 991 3981 997 4044 
Q 997 4147 581 4147 
Q 519 4147 519 4231 
Q 522 4247 533 4287 
Q 544 4328 561 4350 
Q 578 4372 609 4372 
L 1472 4441 
Q 1550 4441 1550 4359 
L 1075 2472 
Q 1438 2828 1806 2828 
Q 2078 2828 2273 2684 
Q 2469 2541 2566 2306 
Q 2663 2072 2663 1806 
Q 2663 1497 2542 1167 
Q 2422 838 2209 555 
Q 1997 272 1712 100 
Q 1428 -72 1106 -72 
z
M 1119 97 
Q 1338 97 1528 280 
Q 1719 463 1838 691 
Q 1966 947 2077 1386 
Q 2188 1825 2188 2088 
Q 2188 2316 2092 2489 
Q 1997 2663 1791 2663 
Q 1559 2663 1348 2492 
Q 1138 2322 978 2088 
L 800 1363 
Q 697 959 691 716 
Q 691 475 795 286 
Q 900 97 1119 97 
z
" transform="scale(0.015625)"/>
     </defs>
     <use xlink:href="#Cmmi10-62" transform="translate(0 0.609375)"/>
    </g>
   </g>
   <g id="text_13">
    <!-- Pr$(\{N \leq b \})$     -->
    <g style="fill: #262626" transform="translate(182.340349 311.847235) scale(0.096 -0.096)">
     <defs>
      <path id="ArialMT-50" d="M 494 0 
L 494 4581 
L 2222 4581 
Q 2678 4581 2919 4538 
Q 3256 4481 3484 4323 
Q 3713 4166 3852 3881 
Q 3991 3597 3991 3256 
Q 3991 2672 3619 2267 
Q 3247 1863 2275 1863 
L 1100 1863 
L 1100 0 
L 494 0 
z
M 1100 2403 
L 2284 2403 
Q 2872 2403 3119 2622 
Q 3366 2841 3366 3238 
Q 3366 3525 3220 3729 
Q 3075 3934 2838 4000 
Q 2684 4041 2272 4041 
L 1100 4041 
L 1100 2403 
z
" transform="scale(0.015625)"/>
      <path id="ArialMT-72" d="M 416 0 
L 416 3319 
L 922 3319 
L 922 2816 
Q 1116 3169 1280 3281 
Q 1444 3394 1641 3394 
Q 1925 3394 2219 3213 
L 2025 2691 
Q 1819 2813 1613 2813 
Q 1428 2813 1281 2702 
Q 1134 2591 1072 2394 
Q 978 2094 978 1738 
L 978 0 
L 416 0 
z
" transform="scale(0.015625)"/>
      <path id="Cmr10-28" d="M 1984 -1588 
Q 1628 -1306 1370 -942 
Q 1113 -578 948 -165 
Q 784 247 703 697 
Q 622 1147 622 1600 
Q 622 2059 703 2509 
Q 784 2959 951 3375 
Q 1119 3791 1378 4153 
Q 1638 4516 1984 4788 
Q 1984 4800 2016 4800 
L 2075 4800 
Q 2094 4800 2109 4783 
Q 2125 4766 2125 4744 
Q 2125 4716 2113 4703 
Q 1800 4397 1592 4047 
Q 1384 3697 1257 3301 
Q 1131 2906 1075 2482 
Q 1019 2059 1019 1600 
Q 1019 -434 2106 -1491 
Q 2125 -1509 2125 -1544 
Q 2125 -1559 2108 -1579 
Q 2091 -1600 2075 -1600 
L 2016 -1600 
Q 1984 -1600 1984 -1588 
z
" transform="scale(0.015625)"/>
      <path id="Cmex10-a9" d="M 1631 -6425 
L 1631 -4556 
Q 1631 -4338 1503 -4159 
Q 1375 -3981 1184 -3867 
Q 994 -3753 756 -3675 
Q 709 -3650 709 -3622 
L 709 -3547 
Q 709 -3503 756 -3494 
Q 1128 -3366 1379 -3150 
Q 1631 -2934 1631 -2606 
L 1631 -738 
Q 1631 -325 2004 -95 
Q 2378 134 2888 256 
L 2963 256 
Q 2981 256 2998 242 
Q 3016 228 3016 206 
L 3016 128 
Q 3016 91 2975 78 
Q 2619 -31 2359 -232 
Q 2100 -434 2100 -750 
L 2100 -2619 
Q 2100 -2994 1804 -3214 
Q 1509 -3434 1056 -3584 
Q 1497 -3716 1798 -3939 
Q 2100 -4163 2100 -4544 
L 2100 -6413 
Q 2100 -6628 2231 -6790 
Q 2363 -6953 2556 -7059 
Q 2750 -7166 2975 -7238 
Q 3016 -7250 3016 -7291 
L 3016 -7366 
Q 3016 -7384 2998 -7401 
Q 2981 -7419 2963 -7419 
L 2888 -7419 
Q 2559 -7338 2292 -7227 
Q 2025 -7116 1828 -6914 
Q 1631 -6713 1631 -6425 
z
" transform="scale(0.015625)"/>
      <path id="Cmmi10-4e" d="M 300 0 
Q 238 0 238 84 
Q 241 100 250 139 
Q 259 178 276 201 
Q 294 225 319 225 
Q 931 225 1031 616 
L 1900 4116 
Q 1722 4147 1338 4147 
Q 1275 4147 1275 4231 
Q 1278 4247 1287 4286 
Q 1297 4325 1314 4348 
Q 1331 4372 1356 4372 
L 2463 4372 
Q 2509 4372 2522 4331 
L 3944 947 
L 4653 3781 
Q 4666 3850 4666 3878 
Q 4666 4147 4172 4147 
Q 4109 4147 4109 4231 
Q 4131 4313 4143 4342 
Q 4156 4372 4219 4372 
L 5588 4372 
Q 5650 4372 5650 4288 
Q 5647 4272 5637 4233 
Q 5628 4194 5611 4170 
Q 5594 4147 5569 4147 
Q 4956 4147 4856 3756 
L 3938 56 
Q 3916 0 3872 0 
L 3794 0 
Q 3750 0 3738 44 
L 2106 3916 
L 2094 3956 
Q 2081 3969 2081 3975 
L 1234 588 
Q 1228 572 1225 548 
Q 1222 525 1216 494 
Q 1216 328 1359 276 
Q 1503 225 1716 225 
Q 1778 225 1778 141 
Q 1756 53 1740 26 
Q 1725 0 1672 0 
L 300 0 
z
" transform="scale(0.015625)"/>
      <path id="Cmsy10-2219" d="M 653 -878 
Q 600 -878 565 -837 
Q 531 -797 531 -750 
Q 531 -697 565 -659 
Q 600 -622 653 -622 
L 4325 -622 
Q 4375 -622 4408 -659 
Q 4441 -697 4441 -750 
Q 4441 -797 4408 -837 
Q 4375 -878 4325 -878 
L 653 -878 
z
M 594 2113 
Q 531 2131 531 2222 
Q 531 2303 616 2338 
L 4269 4063 
Q 4281 4072 4313 4072 
Q 4366 4072 4403 4034 
Q 4441 3997 4441 3944 
Q 4441 3859 4366 3828 
L 959 2222 
L 4384 603 
Q 4441 572 4441 494 
Q 4441 438 4403 402 
Q 4366 366 4313 366 
Q 4281 366 4269 378 
L 594 2113 
z
" transform="scale(0.015625)"/>
      <path id="Cmex10-aa" d="M 709 -7366 
L 709 -7291 
Q 709 -7247 756 -7238 
Q 1631 -6953 1631 -6413 
L 1631 -4544 
Q 1631 -3909 2669 -3584 
Q 2219 -3431 1925 -3209 
Q 1631 -2988 1631 -2619 
L 1631 -750 
Q 1631 -206 756 78 
Q 709 88 709 128 
L 709 206 
Q 709 256 769 256 
L 844 256 
Q 1359 131 1729 -97 
Q 2100 -325 2100 -738 
L 2100 -2606 
Q 2100 -2925 2354 -3142 
Q 2609 -3359 2975 -3494 
Q 3016 -3506 3016 -3547 
L 3016 -3622 
Q 3016 -3641 2975 -3675 
Q 2769 -3744 2566 -3864 
Q 2363 -3984 2231 -4161 
Q 2100 -4338 2100 -4556 
L 2100 -6425 
Q 2100 -6713 1901 -6914 
Q 1703 -7116 1437 -7227 
Q 1172 -7338 844 -7419 
L 769 -7419 
Q 744 -7419 726 -7401 
Q 709 -7384 709 -7366 
z
" transform="scale(0.015625)"/>
      <path id="Cmr10-29" d="M 416 -1600 
Q 359 -1600 359 -1544 
Q 359 -1516 372 -1503 
Q 1466 -434 1466 1600 
Q 1466 3634 384 4691 
Q 359 4706 359 4744 
Q 359 4766 376 4783 
Q 394 4800 416 4800 
L 475 4800 
Q 494 4800 506 4788 
Q 966 4425 1272 3906 
Q 1578 3388 1720 2800 
Q 1863 2213 1863 1600 
Q 1863 1147 1786 708 
Q 1709 269 1542 -157 
Q 1375 -584 1119 -945 
Q 863 -1306 506 -1588 
Q 494 -1600 475 -1600 
L 416 -1600 
z
" transform="scale(0.015625)"/>
      <path id="ArialMT-20" transform="scale(0.015625)"/>
     </defs>
     <use xlink:href="#ArialMT-50" transform="translate(0 0.705729)"/>
     <use xlink:href="#ArialMT-72" transform="translate(66.699219 0.705729)"/>
     <use xlink:href="#Cmr10-28" transform="translate(100 0.705729)"/>
     <use xlink:href="#Cmex10-a9" transform="translate(138.818359 94)"/>
     <use xlink:href="#Cmmi10-4e" transform="translate(197.119141 0.705729)"/>
     <use xlink:href="#Cmsy10-2219" transform="translate(295 0.705729)"/>
     <use xlink:href="#Cmmi10-62" transform="translate(390.244141 0.705729)"/>
     <use xlink:href="#Cmex10-aa" transform="translate(433.164062 94)"/>
     <use xlink:href="#Cmr10-29" transform="translate(491.464844 0.705729)"/>
     <use xlink:href="#ArialMT-20" transform="translate(530.283203 0.705729)"/>
     <use xlink:href="#ArialMT-20" transform="translate(558.066406 0.705729)"/>
     <use xlink:href="#ArialMT-20" transform="translate(585.849609 0.705729)"/>
     <use xlink:href="#ArialMT-20" transform="translate(613.632812 0.705729)"/>
    </g>
   </g>
   <g id="text_14">
    <!-- Funzione di densit di probabilit -->
    <g style="fill: #262626" transform="translate(126.8695 40.4685) scale(0.096 -0.096)">
     <defs>
      <path id="ArialMT-46" d="M 525 0 
L 525 4581 
L 3616 4581 
L 3616 4041 
L 1131 4041 
L 1131 2622 
L 3281 2622 
L 3281 2081 
L 1131 2081 
L 1131 0 
L 525 0 
z
" transform="scale(0.015625)"/>
      <path id="ArialMT-75" d="M 2597 0 
L 2597 488 
Q 2209 -75 1544 -75 
Q 1250 -75 995 37 
Q 741 150 617 320 
Q 494 491 444 738 
Q 409 903 409 1263 
L 409 3319 
L 972 3319 
L 972 1478 
Q 972 1038 1006 884 
Q 1059 663 1231 536 
Q 1403 409 1656 409 
Q 1909 409 2131 539 
Q 2353 669 2445 892 
Q 2538 1116 2538 1541 
L 2538 3319 
L 3100 3319 
L 3100 0 
L 2597 0 
z
" transform="scale(0.015625)"/>
      <path id="ArialMT-6e" d="M 422 0 
L 422 3319 
L 928 3319 
L 928 2847 
Q 1294 3394 1984 3394 
Q 2284 3394 2536 3286 
Q 2788 3178 2913 3003 
Q 3038 2828 3088 2588 
Q 3119 2431 3119 2041 
L 3119 0 
L 2556 0 
L 2556 2019 
Q 2556 2363 2490 2533 
Q 2425 2703 2258 2804 
Q 2091 2906 1866 2906 
Q 1506 2906 1245 2678 
Q 984 2450 984 1813 
L 984 0 
L 422 0 
z
" transform="scale(0.015625)"/>
      <path id="ArialMT-7a" d="M 125 0 
L 125 456 
L 2238 2881 
Q 1878 2863 1603 2863 
L 250 2863 
L 250 3319 
L 2963 3319 
L 2963 2947 
L 1166 841 
L 819 456 
Q 1197 484 1528 484 
L 3063 484 
L 3063 0 
L 125 0 
z
" transform="scale(0.015625)"/>
      <path id="ArialMT-69" d="M 425 3934 
L 425 4581 
L 988 4581 
L 988 3934 
L 425 3934 
z
M 425 0 
L 425 3319 
L 988 3319 
L 988 0 
L 425 0 
z
" transform="scale(0.015625)"/>
      <path id="ArialMT-6f" d="M 213 1659 
Q 213 2581 725 3025 
Q 1153 3394 1769 3394 
Q 2453 3394 2887 2945 
Q 3322 2497 3322 1706 
Q 3322 1066 3130 698 
Q 2938 331 2570 128 
Q 2203 -75 1769 -75 
Q 1072 -75 642 372 
Q 213 819 213 1659 
z
M 791 1659 
Q 791 1022 1069 705 
Q 1347 388 1769 388 
Q 2188 388 2466 706 
Q 2744 1025 2744 1678 
Q 2744 2294 2464 2611 
Q 2184 2928 1769 2928 
Q 1347 2928 1069 2612 
Q 791 2297 791 1659 
z
" transform="scale(0.015625)"/>
      <path id="ArialMT-65" d="M 2694 1069 
L 3275 997 
Q 3138 488 2766 206 
Q 2394 -75 1816 -75 
Q 1088 -75 661 373 
Q 234 822 234 1631 
Q 234 2469 665 2931 
Q 1097 3394 1784 3394 
Q 2450 3394 2872 2941 
Q 3294 2488 3294 1666 
Q 3294 1616 3291 1516 
L 816 1516 
Q 847 969 1125 678 
Q 1403 388 1819 388 
Q 2128 388 2347 550 
Q 2566 713 2694 1069 
z
M 847 1978 
L 2700 1978 
Q 2663 2397 2488 2606 
Q 2219 2931 1791 2931 
Q 1403 2931 1139 2672 
Q 875 2413 847 1978 
z
" transform="scale(0.015625)"/>
      <path id="ArialMT-64" d="M 2575 0 
L 2575 419 
Q 2259 -75 1647 -75 
Q 1250 -75 917 144 
Q 584 363 401 755 
Q 219 1147 219 1656 
Q 219 2153 384 2558 
Q 550 2963 881 3178 
Q 1213 3394 1622 3394 
Q 1922 3394 2156 3267 
Q 2391 3141 2538 2938 
L 2538 4581 
L 3097 4581 
L 3097 0 
L 2575 0 
z
M 797 1656 
Q 797 1019 1065 703 
Q 1334 388 1700 388 
Q 2069 388 2326 689 
Q 2584 991 2584 1609 
Q 2584 2291 2321 2609 
Q 2059 2928 1675 2928 
Q 1300 2928 1048 2622 
Q 797 2316 797 1656 
z
" transform="scale(0.015625)"/>
      <path id="ArialMT-73" d="M 197 991 
L 753 1078 
Q 800 744 1014 566 
Q 1228 388 1613 388 
Q 2000 388 2187 545 
Q 2375 703 2375 916 
Q 2375 1106 2209 1216 
Q 2094 1291 1634 1406 
Q 1016 1563 777 1677 
Q 538 1791 414 1992 
Q 291 2194 291 2438 
Q 291 2659 392 2848 
Q 494 3038 669 3163 
Q 800 3259 1026 3326 
Q 1253 3394 1513 3394 
Q 1903 3394 2198 3281 
Q 2494 3169 2634 2976 
Q 2775 2784 2828 2463 
L 2278 2388 
Q 2241 2644 2061 2787 
Q 1881 2931 1553 2931 
Q 1166 2931 1000 2803 
Q 834 2675 834 2503 
Q 834 2394 903 2306 
Q 972 2216 1119 2156 
Q 1203 2125 1616 2013 
Q 2213 1853 2448 1751 
Q 2684 1650 2818 1456 
Q 2953 1263 2953 975 
Q 2953 694 2789 445 
Q 2625 197 2315 61 
Q 2006 -75 1616 -75 
Q 969 -75 630 194 
Q 291 463 197 991 
z
" transform="scale(0.015625)"/>
      <path id="ArialMT-74" d="M 1650 503 
L 1731 6 
Q 1494 -44 1306 -44 
Q 1000 -44 831 53 
Q 663 150 594 308 
Q 525 466 525 972 
L 525 2881 
L 113 2881 
L 113 3319 
L 525 3319 
L 525 4141 
L 1084 4478 
L 1084 3319 
L 1650 3319 
L 1650 2881 
L 1084 2881 
L 1084 941 
Q 1084 700 1114 631 
Q 1144 563 1211 522 
Q 1278 481 1403 481 
Q 1497 481 1650 503 
z
" transform="scale(0.015625)"/>
      <path id="ArialMT-e0" d="M 2588 409 
Q 2275 144 1986 34 
Q 1697 -75 1366 -75 
Q 819 -75 525 192 
Q 231 459 231 875 
Q 231 1119 342 1320 
Q 453 1522 633 1644 
Q 813 1766 1038 1828 
Q 1203 1872 1538 1913 
Q 2219 1994 2541 2106 
Q 2544 2222 2544 2253 
Q 2544 2597 2384 2738 
Q 2169 2928 1744 2928 
Q 1347 2928 1158 2789 
Q 969 2650 878 2297 
L 328 2372 
Q 403 2725 575 2942 
Q 747 3159 1072 3276 
Q 1397 3394 1825 3394 
Q 2250 3394 2515 3294 
Q 2781 3194 2906 3042 
Q 3031 2891 3081 2659 
Q 3109 2516 3109 2141 
L 3109 1391 
Q 3109 606 3145 398 
Q 3181 191 3288 0 
L 2700 0 
Q 2613 175 2588 409 
z
M 2541 1666 
Q 2234 1541 1622 1453 
Q 1275 1403 1131 1340 
Q 988 1278 909 1158 
Q 831 1038 831 891 
Q 831 666 1001 516 
Q 1172 366 1500 366 
Q 1825 366 2078 508 
Q 2331 650 2450 897 
Q 2541 1088 2541 1459 
L 2541 1666 
z
M 2234 3731 
L 1781 3731 
L 1059 4606 
L 1813 4606 
L 2234 3731 
z
" transform="scale(0.015625)"/>
      <path id="ArialMT-70" d="M 422 -1272 
L 422 3319 
L 934 3319 
L 934 2888 
Q 1116 3141 1344 3267 
Q 1572 3394 1897 3394 
Q 2322 3394 2647 3175 
Q 2972 2956 3137 2557 
Q 3303 2159 3303 1684 
Q 3303 1175 3120 767 
Q 2938 359 2589 142 
Q 2241 -75 1856 -75 
Q 1575 -75 1351 44 
Q 1128 163 984 344 
L 984 -1272 
L 422 -1272 
z
M 931 1641 
Q 931 1000 1190 694 
Q 1450 388 1819 388 
Q 2194 388 2461 705 
Q 2728 1022 2728 1688 
Q 2728 2322 2467 2637 
Q 2206 2953 1844 2953 
Q 1484 2953 1207 2617 
Q 931 2281 931 1641 
z
" transform="scale(0.015625)"/>
      <path id="ArialMT-62" d="M 941 0 
L 419 0 
L 419 4581 
L 981 4581 
L 981 2947 
Q 1338 3394 1891 3394 
Q 2197 3394 2470 3270 
Q 2744 3147 2920 2923 
Q 3097 2700 3197 2384 
Q 3297 2069 3297 1709 
Q 3297 856 2875 390 
Q 2453 -75 1863 -75 
Q 1275 -75 941 416 
L 941 0 
z
M 934 1684 
Q 934 1088 1097 822 
Q 1363 388 1816 388 
Q 2184 388 2453 708 
Q 2722 1028 2722 1663 
Q 2722 2313 2464 2622 
Q 2206 2931 1841 2931 
Q 1472 2931 1203 2611 
Q 934 2291 934 1684 
z
" transform="scale(0.015625)"/>
      <path id="ArialMT-61" d="M 2588 409 
Q 2275 144 1986 34 
Q 1697 -75 1366 -75 
Q 819 -75 525 192 
Q 231 459 231 875 
Q 231 1119 342 1320 
Q 453 1522 633 1644 
Q 813 1766 1038 1828 
Q 1203 1872 1538 1913 
Q 2219 1994 2541 2106 
Q 2544 2222 2544 2253 
Q 2544 2597 2384 2738 
Q 2169 2928 1744 2928 
Q 1347 2928 1158 2789 
Q 969 2650 878 2297 
L 328 2372 
Q 403 2725 575 2942 
Q 747 3159 1072 3276 
Q 1397 3394 1825 3394 
Q 2250 3394 2515 3294 
Q 2781 3194 2906 3042 
Q 3031 2891 3081 2659 
Q 3109 2516 3109 2141 
L 3109 1391 
Q 3109 606 3145 398 
Q 3181 191 3288 0 
L 2700 0 
Q 2613 175 2588 409 
z
M 2541 1666 
Q 2234 1541 1622 1453 
Q 1275 1403 1131 1340 
Q 988 1278 909 1158 
Q 831 1038 831 891 
Q 831 666 1001 516 
Q 1172 366 1500 366 
Q 1825 366 2078 508 
Q 2331 650 2450 897 
Q 2541 1088 2541 1459 
L 2541 1666 
z
" transform="scale(0.015625)"/>
      <path id="ArialMT-6c" d="M 409 0 
L 409 4581 
L 972 4581 
L 972 0 
L 409 0 
z
" transform="scale(0.015625)"/>
     </defs>
     <use xlink:href="#ArialMT-46"/>
     <use xlink:href="#ArialMT-75" x="61.083984"/>
     <use xlink:href="#ArialMT-6e" x="116.699219"/>
     <use xlink:href="#ArialMT-7a" x="172.314453"/>
     <use xlink:href="#ArialMT-69" x="222.314453"/>
     <use xlink:href="#ArialMT-6f" x="244.53125"/>
     <use xlink:href="#ArialMT-6e" x="300.146484"/>
     <use xlink:href="#ArialMT-65" x="355.761719"/>
     <use xlink:href="#ArialMT-20" x="411.376953"/>
     <use xlink:href="#ArialMT-64" x="439.160156"/>
     <use xlink:href="#ArialMT-69" x="494.775391"/>
     <use xlink:href="#ArialMT-20" x="516.992188"/>
     <use xlink:href="#ArialMT-64" x="544.775391"/>
     <use xlink:href="#ArialMT-65" x="600.390625"/>
     <use xlink:href="#ArialMT-6e" x="656.005859"/>
     <use xlink:href="#ArialMT-73" x="711.621094"/>
     <use xlink:href="#ArialMT-69" x="761.621094"/>
     <use xlink:href="#ArialMT-74" x="783.837891"/>
     <use xlink:href="#ArialMT-e0" x="811.621094"/>
     <use xlink:href="#ArialMT-20" x="867.236328"/>
     <use xlink:href="#ArialMT-64" x="895.019531"/>
     <use xlink:href="#ArialMT-69" x="950.634766"/>
     <use xlink:href="#ArialMT-20" x="972.851562"/>
     <use xlink:href="#ArialMT-70" x="1000.634766"/>
     <use xlink:href="#ArialMT-72" x="1056.25"/>
     <use xlink:href="#ArialMT-6f" x="1089.550781"/>
     <use xlink:href="#ArialMT-62" x="1145.166016"/>
     <use xlink:href="#ArialMT-61" x="1200.78125"/>
     <use xlink:href="#ArialMT-62" x="1256.396484"/>
     <use xlink:href="#ArialMT-69" x="1312.011719"/>
     <use xlink:href="#ArialMT-6c" x="1334.228516"/>
     <use xlink:href="#ArialMT-69" x="1356.445312"/>
     <use xlink:href="#ArialMT-74" x="1378.662109"/>
     <use xlink:href="#ArialMT-e0" x="1406.445312"/>
    </g>
   </g>
  </g>
  <g id="axes_2">
   <g id="patch_7">
    <path d="M 387.47525 403.252 
L 706.52325 403.252 
L 706.52325 46.4685 
L 387.47525 46.4685 
z
" style="fill: #eaeaf2"/>
   </g>
   <g id="matplotlib.axis_3">
    <g id="xtick_6">
     <g id="line2d_13">
      <path d="M 421.854986 403.252 
L 421.854986 46.4685 
" clip-path="url(#pbf30ad6977)" style="fill: none; stroke: #ffffff; stroke-width: 0.8; stroke-linecap: round"/>
     </g>
     <g id="text_15">
      <!-- 60 -->
      <g style="fill: #262626" transform="translate(416.961361 417.850875) scale(0.088 -0.088)">
       <use xlink:href="#ArialMT-36"/>
       <use xlink:href="#ArialMT-30" x="55.615234"/>
      </g>
     </g>
    </g>
    <g id="xtick_7">
     <g id="line2d_14">
      <path d="M 484.427118 403.252 
L 484.427118 46.4685 
" clip-path="url(#pbf30ad6977)" style="fill: none; stroke: #ffffff; stroke-width: 0.8; stroke-linecap: round"/>
     </g>
     <g id="text_16">
      <!-- 80 -->
      <g style="fill: #262626" transform="translate(479.533493 417.850875) scale(0.088 -0.088)">
       <use xlink:href="#ArialMT-38"/>
       <use xlink:href="#ArialMT-30" x="55.615234"/>
      </g>
     </g>
    </g>
    <g id="xtick_8">
     <g id="line2d_15">
      <path d="M 546.99925 403.252 
L 546.99925 46.4685 
" clip-path="url(#pbf30ad6977)" style="fill: none; stroke: #ffffff; stroke-width: 0.8; stroke-linecap: round"/>
     </g>
     <g id="text_17">
      <!-- 100 -->
      <g style="fill: #262626" transform="translate(539.658812 417.850875) scale(0.088 -0.088)">
       <use xlink:href="#ArialMT-31"/>
       <use xlink:href="#ArialMT-30" x="55.615234"/>
       <use xlink:href="#ArialMT-30" x="111.230469"/>
      </g>
     </g>
    </g>
    <g id="xtick_9">
     <g id="line2d_16">
      <path d="M 609.571382 403.252 
L 609.571382 46.4685 
" clip-path="url(#pbf30ad6977)" style="fill: none; stroke: #ffffff; stroke-width: 0.8; stroke-linecap: round"/>
     </g>
     <g id="text_18">
      <!-- 120 -->
      <g style="fill: #262626" transform="translate(602.230945 417.850875) scale(0.088 -0.088)">
       <use xlink:href="#ArialMT-31"/>
       <use xlink:href="#ArialMT-32" x="55.615234"/>
       <use xlink:href="#ArialMT-30" x="111.230469"/>
      </g>
     </g>
    </g>
    <g id="xtick_10">
     <g id="line2d_17">
      <path d="M 672.143514 403.252 
L 672.143514 46.4685 
" clip-path="url(#pbf30ad6977)" style="fill: none; stroke: #ffffff; stroke-width: 0.8; stroke-linecap: round"/>
     </g>
     <g id="text_19">
      <!-- 140 -->
      <g style="fill: #262626" transform="translate(664.803077 417.850875) scale(0.088 -0.088)">
       <use xlink:href="#ArialMT-31"/>
       <use xlink:href="#ArialMT-34" x="55.615234"/>
       <use xlink:href="#ArialMT-30" x="111.230469"/>
      </g>
     </g>
    </g>
   </g>
   <g id="matplotlib.axis_4">
    <g id="ytick_7">
     <g id="line2d_18">
      <path d="M 387.47525 387.034568 
L 706.52325 387.034568 
" clip-path="url(#pbf30ad6977)" style="fill: none; stroke: #ffffff; stroke-width: 0.8; stroke-linecap: round"/>
     </g>
     <g id="text_20">
      <!-- 0.0 -->
      <g style="fill: #262626" transform="translate(366.94325 390.184006) scale(0.088 -0.088)">
       <use xlink:href="#ArialMT-30"/>
       <use xlink:href="#ArialMT-2e" x="55.615234"/>
       <use xlink:href="#ArialMT-30" x="83.398438"/>
      </g>
     </g>
    </g>
    <g id="ytick_8">
     <g id="line2d_19">
      <path d="M 387.47525 322.099906 
L 706.52325 322.099906 
" clip-path="url(#pbf30ad6977)" style="fill: none; stroke: #ffffff; stroke-width: 0.8; stroke-linecap: round"/>
     </g>
     <g id="text_21">
      <!-- 0.2 -->
      <g style="fill: #262626" transform="translate(366.94325 325.249344) scale(0.088 -0.088)">
       <use xlink:href="#ArialMT-30"/>
       <use xlink:href="#ArialMT-2e" x="55.615234"/>
       <use xlink:href="#ArialMT-32" x="83.398438"/>
      </g>
     </g>
    </g>
    <g id="ytick_9">
     <g id="line2d_20">
      <path d="M 387.47525 257.165244 
L 706.52325 257.165244 
" clip-path="url(#pbf30ad6977)" style="fill: none; stroke: #ffffff; stroke-width: 0.8; stroke-linecap: round"/>
     </g>
     <g id="text_22">
      <!-- 0.4 -->
      <g style="fill: #262626" transform="translate(366.94325 260.314682) scale(0.088 -0.088)">
       <use xlink:href="#ArialMT-30"/>
       <use xlink:href="#ArialMT-2e" x="55.615234"/>
       <use xlink:href="#ArialMT-34" x="83.398438"/>
      </g>
     </g>
    </g>
    <g id="ytick_10">
     <g id="line2d_21">
      <path d="M 387.47525 192.230582 
L 706.52325 192.230582 
" clip-path="url(#pbf30ad6977)" style="fill: none; stroke: #ffffff; stroke-width: 0.8; stroke-linecap: round"/>
     </g>
     <g id="text_23">
      <!-- 0.6 -->
      <g style="fill: #262626" transform="translate(366.94325 195.38002) scale(0.088 -0.088)">
       <use xlink:href="#ArialMT-30"/>
       <use xlink:href="#ArialMT-2e" x="55.615234"/>
       <use xlink:href="#ArialMT-36" x="83.398438"/>
      </g>
     </g>
    </g>
    <g id="ytick_11">
     <g id="line2d_22">
      <path d="M 387.47525 127.29592 
L 706.52325 127.29592 
" clip-path="url(#pbf30ad6977)" style="fill: none; stroke: #ffffff; stroke-width: 0.8; stroke-linecap: round"/>
     </g>
     <g id="text_24">
      <!-- 0.8 -->
      <g style="fill: #262626" transform="translate(366.94325 130.445358) scale(0.088 -0.088)">
       <use xlink:href="#ArialMT-30"/>
       <use xlink:href="#ArialMT-2e" x="55.615234"/>
       <use xlink:href="#ArialMT-38" x="83.398438"/>
      </g>
     </g>
    </g>
    <g id="ytick_12">
     <g id="line2d_23">
      <path d="M 387.47525 62.361259 
L 706.52325 62.361259 
" clip-path="url(#pbf30ad6977)" style="fill: none; stroke: #ffffff; stroke-width: 0.8; stroke-linecap: round"/>
     </g>
     <g id="text_25">
      <!-- 1.0 -->
      <g style="fill: #262626" transform="translate(366.94325 65.510696) scale(0.088 -0.088)">
       <use xlink:href="#ArialMT-31"/>
       <use xlink:href="#ArialMT-2e" x="55.615234"/>
       <use xlink:href="#ArialMT-30" x="83.398438"/>
      </g>
     </g>
    </g>
   </g>
   <g id="PolyCollection_3"/>
   <g id="line2d_24">
    <path d="M 401.977432 386.709895 
L 412.719789 386.349714 
L 420.84914 385.868019 
L 427.526821 385.264685 
L 433.333501 384.529355 
L 438.559512 383.650069 
L 443.204856 382.653836 
L 447.559865 381.499449 
L 451.624541 380.196659 
L 455.398882 378.763281 
L 459.173224 377.086404 
L 462.657232 375.297571 
L 466.141239 373.253532 
L 469.334913 371.135502 
L 472.528587 368.765084 
L 475.72226 366.124457 
L 478.915934 363.196405 
L 482.109608 359.96464 
L 485.303281 356.414132 
L 488.496955 352.531463 
L 491.690629 348.305166 
L 494.884302 343.726079 
L 498.36831 338.320754 
L 501.852318 332.483379 
L 505.336325 326.214052 
L 509.110667 318.940792 
L 512.885008 311.17986 
L 516.949684 302.300416 
L 521.304694 292.226314 
L 525.950037 280.903873 
L 531.176049 267.556922 
L 537.273062 251.351576 
L 545.983081 227.502355 
L 558.467442 193.35755 
L 564.564455 177.325932 
L 569.790467 164.181054 
L 574.43581 153.073485 
L 578.79082 143.225675 
L 582.855495 134.574543 
L 586.629837 127.036573 
L 590.404179 119.993313 
L 593.888186 113.939648 
L 597.372194 108.318581 
L 600.856201 103.127872 
L 604.340209 98.360906 
L 607.533883 94.354494 
L 610.727556 90.684657 
L 613.92123 87.338647 
L 617.114904 84.30198 
L 620.308578 81.558785 
L 623.502251 79.092146 
L 626.986259 76.695942 
L 630.470266 74.584422 
L 633.954274 72.733986 
L 637.438282 71.121261 
L 641.212623 69.615951 
L 645.277299 68.244959 
L 649.632309 67.027446 
L 654.277652 65.974248 
L 659.21333 65.087883 
L 664.729675 64.328467 
L 671.117022 63.688211 
L 678.375372 63.192231 
L 687.375725 62.812297 
L 692.021068 62.685932 
L 692.021068 62.685932 
" clip-path="url(#pbf30ad6977)" style="fill: none; stroke: #0173b2; stroke-width: 1.2; stroke-linecap: round"/>
   </g>
   <g id="LineCollection_2">
    <path d="M 593.928349 387.034568 
L 593.928349 113.872385 
" clip-path="url(#pbf30ad6977)" style="fill: none; stroke: #0000ff; stroke-width: 1.2"/>
   </g>
   <g id="patch_8">
    <path d="M 387.47525 403.252 
L 387.47525 46.4685 
" style="fill: none; stroke: #ffffff; stroke-linejoin: miter; stroke-linecap: square"/>
   </g>
   <g id="patch_9">
    <path d="M 706.52325 403.252 
L 706.52325 46.4685 
" style="fill: none; stroke: #ffffff; stroke-linejoin: miter; stroke-linecap: square"/>
   </g>
   <g id="patch_10">
    <path d="M 387.47525 403.252 
L 706.52325 403.252 
" style="fill: none; stroke: #ffffff; stroke-linejoin: miter; stroke-linecap: square"/>
   </g>
   <g id="patch_11">
    <path d="M 387.47525 46.4685 
L 706.52325 46.4685 
" style="fill: none; stroke: #ffffff; stroke-linejoin: miter; stroke-linecap: square"/>
   </g>
   <g id="text_26">
    <!-- $b$ -->
    <g style="fill: #262626" transform="translate(591.864349 393.906068) scale(0.096 -0.096)">
     <use xlink:href="#Cmmi10-62" transform="translate(0 0.609375)"/>
    </g>
   </g>
   <g id="text_27">
    <!-- $(b, F_{N}(b))$ -->
    <g style="fill: #262626" transform="translate(554.184349 111.472385) scale(0.096 -0.096)">
     <defs>
      <path id="Cmmi10-3b" d="M 634 -1153 
Q 634 -1125 659 -1100 
Q 891 -878 1019 -587 
Q 1147 -297 1147 25 
L 1147 103 
Q 1044 0 891 0 
Q 744 0 641 103 
Q 538 206 538 353 
Q 538 503 641 603 
Q 744 703 891 703 
Q 1119 703 1216 492 
Q 1313 281 1313 25 
Q 1313 -331 1170 -651 
Q 1028 -972 769 -1228 
Q 744 -1241 728 -1241 
Q 697 -1241 665 -1212 
Q 634 -1184 634 -1153 
z
" transform="scale(0.015625)"/>
      <path id="Cmmi10-46" d="M 300 0 
Q 238 0 238 84 
Q 241 100 250 139 
Q 259 178 276 201 
Q 294 225 319 225 
Q 709 225 863 269 
Q 947 297 984 441 
L 1863 3956 
Q 1875 4019 1875 4044 
Q 1875 4113 1797 4122 
Q 1678 4147 1338 4147 
Q 1275 4147 1275 4231 
Q 1278 4247 1287 4286 
Q 1297 4325 1314 4348 
Q 1331 4372 1356 4372 
L 4738 4372 
Q 4800 4372 4800 4288 
L 4647 2963 
Q 4647 2944 4625 2925 
Q 4603 2906 4581 2906 
L 4525 2906 
Q 4459 2906 4459 2988 
Q 4500 3278 4500 3463 
Q 4500 3781 4362 3931 
Q 4225 4081 4015 4114 
Q 3806 4147 3438 4147 
L 2753 4147 
Q 2578 4147 2522 4117 
Q 2466 4088 2419 3928 
L 2009 2297 
L 2491 2297 
Q 2728 2297 2875 2322 
Q 3022 2347 3119 2419 
Q 3216 2491 3280 2627 
Q 3344 2763 3397 2988 
Q 3416 3047 3463 3047 
L 3519 3047 
Q 3584 3047 3584 2963 
L 3194 1381 
Q 3166 1325 3128 1325 
L 3072 1325 
Q 3009 1325 3009 1409 
Q 3025 1475 3034 1519 
Q 3044 1563 3058 1645 
Q 3072 1728 3072 1791 
Q 3072 1975 2909 2025 
Q 2747 2075 2484 2075 
L 1959 2075 
L 1544 416 
Q 1528 353 1528 353 
Q 1528 278 1575 269 
Q 1741 225 2228 225 
Q 2291 225 2291 141 
Q 2269 50 2256 25 
Q 2244 0 2181 0 
L 300 0 
z
" transform="scale(0.015625)"/>
     </defs>
     <use xlink:href="#Cmr10-28"/>
     <use xlink:href="#Cmmi10-62" transform="translate(38.818359 0)"/>
     <use xlink:href="#Cmmi10-3b" transform="translate(81.738281 0)"/>
     <use xlink:href="#Cmmi10-46" transform="translate(126.982422 0)"/>
     <use xlink:href="#Cmmi10-4e" transform="translate(191.289062 -17.00625) scale(0.7)"/>
     <use xlink:href="#Cmr10-28" transform="translate(253.891992 0)"/>
     <use xlink:href="#Cmmi10-62" transform="translate(292.710352 0)"/>
     <use xlink:href="#Cmr10-29" transform="translate(335.630273 0)"/>
     <use xlink:href="#Cmr10-29" transform="translate(374.448633 0)"/>
    </g>
   </g>
   <g id="text_28">
    <!-- Funzione di ripartizione -->
    <g style="fill: #262626" transform="translate(497.37625 40.4685) scale(0.096 -0.096)">
     <use xlink:href="#ArialMT-46"/>
     <use xlink:href="#ArialMT-75" x="61.083984"/>
     <use xlink:href="#ArialMT-6e" x="116.699219"/>
     <use xlink:href="#ArialMT-7a" x="172.314453"/>
     <use xlink:href="#ArialMT-69" x="222.314453"/>
     <use xlink:href="#ArialMT-6f" x="244.53125"/>
     <use xlink:href="#ArialMT-6e" x="300.146484"/>
     <use xlink:href="#ArialMT-65" x="355.761719"/>
     <use xlink:href="#ArialMT-20" x="411.376953"/>
     <use xlink:href="#ArialMT-64" x="439.160156"/>
     <use xlink:href="#ArialMT-69" x="494.775391"/>
     <use xlink:href="#ArialMT-20" x="516.992188"/>
     <use xlink:href="#ArialMT-72" x="544.775391"/>
     <use xlink:href="#ArialMT-69" x="578.076172"/>
     <use xlink:href="#ArialMT-70" x="600.292969"/>
     <use xlink:href="#ArialMT-61" x="655.908203"/>
     <use xlink:href="#ArialMT-72" x="711.523438"/>
     <use xlink:href="#ArialMT-74" x="744.824219"/>
     <use xlink:href="#ArialMT-69" x="772.607422"/>
     <use xlink:href="#ArialMT-7a" x="794.824219"/>
     <use xlink:href="#ArialMT-69" x="844.824219"/>
     <use xlink:href="#ArialMT-6f" x="867.041016"/>
     <use xlink:href="#ArialMT-6e" x="922.65625"/>
     <use xlink:href="#ArialMT-65" x="978.271484"/>
    </g>
   </g>
  </g>
  <g id="text_29">
   <!-- Distribuzioni di probabilit della variabile casuale $N$ ~ norm(100,15) -->
   <g style="fill: #262626" transform="translate(185.58885 15.6096) scale(0.1152 -0.1152)">
    <defs>
     <path id="ArialMT-44" d="M 494 0 
L 494 4581 
L 2072 4581 
Q 2606 4581 2888 4516 
Q 3281 4425 3559 4188 
Q 3922 3881 4101 3404 
Q 4281 2928 4281 2316 
Q 4281 1794 4159 1391 
Q 4038 988 3847 723 
Q 3656 459 3429 307 
Q 3203 156 2883 78 
Q 2563 0 2147 0 
L 494 0 
z
M 1100 541 
L 2078 541 
Q 2531 541 2789 625 
Q 3047 709 3200 863 
Q 3416 1078 3536 1442 
Q 3656 1806 3656 2325 
Q 3656 3044 3420 3430 
Q 3184 3816 2847 3947 
Q 2603 4041 2063 4041 
L 1100 4041 
L 1100 541 
z
" transform="scale(0.015625)"/>
     <path id="ArialMT-76" d="M 1344 0 
L 81 3319 
L 675 3319 
L 1388 1331 
Q 1503 1009 1600 663 
Q 1675 925 1809 1294 
L 2547 3319 
L 3125 3319 
L 1869 0 
L 1344 0 
z
" transform="scale(0.015625)"/>
     <path id="ArialMT-63" d="M 2588 1216 
L 3141 1144 
Q 3050 572 2676 248 
Q 2303 -75 1759 -75 
Q 1078 -75 664 370 
Q 250 816 250 1647 
Q 250 2184 428 2587 
Q 606 2991 970 3192 
Q 1334 3394 1763 3394 
Q 2303 3394 2647 3120 
Q 2991 2847 3088 2344 
L 2541 2259 
Q 2463 2594 2264 2762 
Q 2066 2931 1784 2931 
Q 1359 2931 1093 2626 
Q 828 2322 828 1663 
Q 828 994 1084 691 
Q 1341 388 1753 388 
Q 2084 388 2306 591 
Q 2528 794 2588 1216 
z
" transform="scale(0.015625)"/>
     <path id="ArialMT-7e" d="M 272 1741 
L 272 2381 
Q 603 2756 1141 2756 
Q 1328 2756 1534 2701 
Q 1741 2647 2122 2484 
Q 2338 2394 2445 2366 
Q 2553 2338 2663 2338 
Q 2866 2338 3083 2459 
Q 3300 2581 3469 2766 
L 3469 2103 
Q 3269 1916 3064 1831 
Q 2859 1747 2603 1747 
Q 2416 1747 2245 1790 
Q 2075 1834 1704 2000 
Q 1334 2166 1088 2166 
Q 888 2166 711 2080 
Q 534 1994 272 1741 
z
" transform="scale(0.015625)"/>
     <path id="ArialMT-6d" d="M 422 0 
L 422 3319 
L 925 3319 
L 925 2853 
Q 1081 3097 1340 3245 
Q 1600 3394 1931 3394 
Q 2300 3394 2536 3241 
Q 2772 3088 2869 2813 
Q 3263 3394 3894 3394 
Q 4388 3394 4653 3120 
Q 4919 2847 4919 2278 
L 4919 0 
L 4359 0 
L 4359 2091 
Q 4359 2428 4304 2576 
Q 4250 2725 4106 2815 
Q 3963 2906 3769 2906 
Q 3419 2906 3187 2673 
Q 2956 2441 2956 1928 
L 2956 0 
L 2394 0 
L 2394 2156 
Q 2394 2531 2256 2718 
Q 2119 2906 1806 2906 
Q 1569 2906 1367 2781 
Q 1166 2656 1075 2415 
Q 984 2175 984 1722 
L 984 0 
L 422 0 
z
" transform="scale(0.015625)"/>
     <path id="ArialMT-28" d="M 1497 -1347 
Q 1031 -759 709 28 
Q 388 816 388 1659 
Q 388 2403 628 3084 
Q 909 3875 1497 4659 
L 1900 4659 
Q 1522 4009 1400 3731 
Q 1209 3300 1100 2831 
Q 966 2247 966 1656 
Q 966 153 1900 -1347 
L 1497 -1347 
z
" transform="scale(0.015625)"/>
     <path id="ArialMT-2c" d="M 569 0 
L 569 641 
L 1209 641 
L 1209 0 
Q 1209 -353 1084 -570 
Q 959 -788 688 -906 
L 531 -666 
Q 709 -588 793 -436 
Q 878 -284 888 0 
L 569 0 
z
" transform="scale(0.015625)"/>
     <path id="ArialMT-29" d="M 791 -1347 
L 388 -1347 
Q 1322 153 1322 1656 
Q 1322 2244 1188 2822 
Q 1081 3291 891 3722 
Q 769 4003 388 4659 
L 791 4659 
Q 1378 3875 1659 3084 
Q 1900 2403 1900 1659 
Q 1900 816 1576 28 
Q 1253 -759 791 -1347 
z
" transform="scale(0.015625)"/>
    </defs>
    <use xlink:href="#ArialMT-44" transform="translate(0 0.203125)"/>
    <use xlink:href="#ArialMT-69" transform="translate(72.216797 0.203125)"/>
    <use xlink:href="#ArialMT-73" transform="translate(94.433594 0.203125)"/>
    <use xlink:href="#ArialMT-74" transform="translate(144.433594 0.203125)"/>
    <use xlink:href="#ArialMT-72" transform="translate(172.216797 0.203125)"/>
    <use xlink:href="#ArialMT-69" transform="translate(205.517578 0.203125)"/>
    <use xlink:href="#ArialMT-62" transform="translate(227.734375 0.203125)"/>
    <use xlink:href="#ArialMT-75" transform="translate(283.349609 0.203125)"/>
    <use xlink:href="#ArialMT-7a" transform="translate(338.964844 0.203125)"/>
    <use xlink:href="#ArialMT-69" transform="translate(388.964844 0.203125)"/>
    <use xlink:href="#ArialMT-6f" transform="translate(411.181641 0.203125)"/>
    <use xlink:href="#ArialMT-6e" transform="translate(466.796875 0.203125)"/>
    <use xlink:href="#ArialMT-69" transform="translate(522.412109 0.203125)"/>
    <use xlink:href="#ArialMT-20" transform="translate(544.628906 0.203125)"/>
    <use xlink:href="#ArialMT-64" transform="translate(572.412109 0.203125)"/>
    <use xlink:href="#ArialMT-69" transform="translate(628.027344 0.203125)"/>
    <use xlink:href="#ArialMT-20" transform="translate(650.244141 0.203125)"/>
    <use xlink:href="#ArialMT-70" transform="translate(678.027344 0.203125)"/>
    <use xlink:href="#ArialMT-72" transform="translate(733.642578 0.203125)"/>
    <use xlink:href="#ArialMT-6f" transform="translate(766.943359 0.203125)"/>
    <use xlink:href="#ArialMT-62" transform="translate(822.558594 0.203125)"/>
    <use xlink:href="#ArialMT-61" transform="translate(878.173828 0.203125)"/>
    <use xlink:href="#ArialMT-62" transform="translate(933.789062 0.203125)"/>
    <use xlink:href="#ArialMT-69" transform="translate(989.404297 0.203125)"/>
    <use xlink:href="#ArialMT-6c" transform="translate(1011.621094 0.203125)"/>
    <use xlink:href="#ArialMT-69" transform="translate(1033.837891 0.203125)"/>
    <use xlink:href="#ArialMT-74" transform="translate(1056.054688 0.203125)"/>
    <use xlink:href="#ArialMT-e0" transform="translate(1083.837891 0.203125)"/>
    <use xlink:href="#ArialMT-20" transform="translate(1139.453125 0.203125)"/>
    <use xlink:href="#ArialMT-64" transform="translate(1167.236328 0.203125)"/>
    <use xlink:href="#ArialMT-65" transform="translate(1222.851562 0.203125)"/>
    <use xlink:href="#ArialMT-6c" transform="translate(1278.466797 0.203125)"/>
    <use xlink:href="#ArialMT-6c" transform="translate(1300.683594 0.203125)"/>
    <use xlink:href="#ArialMT-61" transform="translate(1322.900391 0.203125)"/>
    <use xlink:href="#ArialMT-20" transform="translate(1378.515625 0.203125)"/>
    <use xlink:href="#ArialMT-76" transform="translate(1406.298828 0.203125)"/>
    <use xlink:href="#ArialMT-61" transform="translate(1456.298828 0.203125)"/>
    <use xlink:href="#ArialMT-72" transform="translate(1511.914062 0.203125)"/>
    <use xlink:href="#ArialMT-69" transform="translate(1545.214844 0.203125)"/>
    <use xlink:href="#ArialMT-61" transform="translate(1567.431641 0.203125)"/>
    <use xlink:href="#ArialMT-62" transform="translate(1623.046875 0.203125)"/>
    <use xlink:href="#ArialMT-69" transform="translate(1678.662109 0.203125)"/>
    <use xlink:href="#ArialMT-6c" transform="translate(1700.878906 0.203125)"/>
    <use xlink:href="#ArialMT-65" transform="translate(1723.095703 0.203125)"/>
    <use xlink:href="#ArialMT-20" transform="translate(1778.710938 0.203125)"/>
    <use xlink:href="#ArialMT-63" transform="translate(1806.494141 0.203125)"/>
    <use xlink:href="#ArialMT-61" transform="translate(1856.494141 0.203125)"/>
    <use xlink:href="#ArialMT-73" transform="translate(1912.109375 0.203125)"/>
    <use xlink:href="#ArialMT-75" transform="translate(1962.109375 0.203125)"/>
    <use xlink:href="#ArialMT-61" transform="translate(2017.724609 0.203125)"/>
    <use xlink:href="#ArialMT-6c" transform="translate(2073.339844 0.203125)"/>
    <use xlink:href="#ArialMT-65" transform="translate(2095.556641 0.203125)"/>
    <use xlink:href="#ArialMT-20" transform="translate(2151.171875 0.203125)"/>
    <use xlink:href="#Cmmi10-4e" transform="translate(2178.955078 0.203125)"/>
    <use xlink:href="#ArialMT-20" transform="translate(2259.277344 0.203125)"/>
    <use xlink:href="#ArialMT-7e" transform="translate(2287.060547 0.203125)"/>
    <use xlink:href="#ArialMT-20" transform="translate(2345.458984 0.203125)"/>
    <use xlink:href="#ArialMT-6e" transform="translate(2373.242188 0.203125)"/>
    <use xlink:href="#ArialMT-6f" transform="translate(2428.857422 0.203125)"/>
    <use xlink:href="#ArialMT-72" transform="translate(2484.472656 0.203125)"/>
    <use xlink:href="#ArialMT-6d" transform="translate(2517.773438 0.203125)"/>
    <use xlink:href="#ArialMT-28" transform="translate(2601.074219 0.203125)"/>
    <use xlink:href="#ArialMT-31" transform="translate(2634.375 0.203125)"/>
    <use xlink:href="#ArialMT-30" transform="translate(2689.990234 0.203125)"/>
    <use xlink:href="#ArialMT-30" transform="translate(2745.605469 0.203125)"/>
    <use xlink:href="#ArialMT-2c" transform="translate(2801.220703 0.203125)"/>
    <use xlink:href="#ArialMT-31" transform="translate(2829.003906 0.203125)"/>
    <use xlink:href="#ArialMT-35" transform="translate(2884.619141 0.203125)"/>
    <use xlink:href="#ArialMT-29" transform="translate(2940.234375 0.203125)"/>
   </g>
  </g>
 </g>
 <defs>
  <clipPath id="p9bea29bca0">
   <rect x="37.51925" y="46.4685" width="319.048" height="356.7835"/>
  </clipPath>
  <clipPath id="pbf30ad6977">
   <rect x="387.47525" y="46.4685" width="319.048" height="356.7835"/>
  </clipPath>
 </defs>
</svg>