<?xml version="1.0" encoding="utf-8" standalone="no"?>
<!DOCTYPE svg PUBLIC "-//W3C//DTD SVG 1.1//EN"
  "http://www.w3.org/Graphics/SVG/1.1/DTD/svg11.dtd">
<svg xmlns:xlink="http://www.w3.org/1999/xlink" width="613.419066pt" height="381.861094pt" viewBox="0 0 613.419066 381.861094" xmlns="http://www.w3.org/2000/svg" version="1.1">
 <metadata>
  <rdf:RDF xmlns:dc="http://purl.org/dc/elements/1.1/" xmlns:cc="http://creativecommons.org/ns#" xmlns:rdf="http://www.w3.org/1999/02/22-rdf-syntax-ns#">
   <cc:Work>
    <dc:type rdf:resource="http://purl.org/dc/dcmitype/StillImage"/>
    <dc:date>2023-05-09T08:31:04.134949</dc:date>
    <dc:format>image/svg+xml</dc:format>
    <dc:creator>
     <cc:Agent>
      <dc:title>Matplotlib v3.7.1, https://matplotlib.org/</dc:title>
     </cc:Agent>
    </dc:creator>
   </cc:Work>
  </rdf:RDF>
 </metadata>
 <defs>
  <style type="text/css">*{stroke-linejoin: round; stroke-linecap: butt}</style>
 </defs>
 <g id="figure_1">
  <g id="patch_1">
   <path d="M 0 381.861094 
L 613.419066 381.861094 
L 613.419066 0 
L 0 0 
z
" style="fill: #ffffff"/>
  </g>
  <g id="axes_1">
   <g id="patch_2">
    <path d="M 44.510469 339.84 
L 602.510469 339.84 
L 602.510469 7.2 
L 44.510469 7.2 
z
" style="fill: #eaeaf2"/>
   </g>
   <g id="matplotlib.axis_1">
    <g id="xtick_1">
     <g id="line2d_1">
      <path d="M 99.133234 339.84 
L 99.133234 7.2 
" clip-path="url(#p684228867b)" style="fill: none; stroke: #ffffff; stroke-linecap: round"/>
     </g>
     <g id="text_1">
      <!-- −1.5 -->
      <g style="fill: #262626" transform="translate(88.27589 357.213594) scale(0.11 -0.11)">
       <defs>
        <path id="ArialMT-2212" d="M 3381 1997 
L 356 1997 
L 356 2522 
L 3381 2522 
L 3381 1997 
z
" transform="scale(0.015625)"/>
        <path id="ArialMT-31" d="M 2384 0 
L 1822 0 
L 1822 3584 
Q 1619 3391 1289 3197 
Q 959 3003 697 2906 
L 697 3450 
Q 1169 3672 1522 3987 
Q 1875 4303 2022 4600 
L 2384 4600 
L 2384 0 
z
" transform="scale(0.015625)"/>
        <path id="ArialMT-2e" d="M 581 0 
L 581 641 
L 1222 641 
L 1222 0 
L 581 0 
z
" transform="scale(0.015625)"/>
        <path id="ArialMT-35" d="M 266 1200 
L 856 1250 
Q 922 819 1161 601 
Q 1400 384 1738 384 
Q 2144 384 2425 690 
Q 2706 997 2706 1503 
Q 2706 1984 2436 2262 
Q 2166 2541 1728 2541 
Q 1456 2541 1237 2417 
Q 1019 2294 894 2097 
L 366 2166 
L 809 4519 
L 3088 4519 
L 3088 3981 
L 1259 3981 
L 1013 2750 
Q 1425 3038 1878 3038 
Q 2478 3038 2890 2622 
Q 3303 2206 3303 1553 
Q 3303 931 2941 478 
Q 2500 -78 1738 -78 
Q 1113 -78 717 272 
Q 322 622 266 1200 
z
" transform="scale(0.015625)"/>
       </defs>
       <use xlink:href="#ArialMT-2212"/>
       <use xlink:href="#ArialMT-31" x="58.398438"/>
       <use xlink:href="#ArialMT-2e" x="114.013672"/>
       <use xlink:href="#ArialMT-35" x="141.796875"/>
      </g>
     </g>
    </g>
    <g id="xtick_2">
     <g id="line2d_2">
      <path d="M 170.481924 339.84 
L 170.481924 7.2 
" clip-path="url(#p684228867b)" style="fill: none; stroke: #ffffff; stroke-linecap: round"/>
     </g>
     <g id="text_2">
      <!-- −1.0 -->
      <g style="fill: #262626" transform="translate(159.62458 357.213594) scale(0.11 -0.11)">
       <defs>
        <path id="ArialMT-30" d="M 266 2259 
Q 266 3072 433 3567 
Q 600 4063 929 4331 
Q 1259 4600 1759 4600 
Q 2128 4600 2406 4451 
Q 2684 4303 2865 4023 
Q 3047 3744 3150 3342 
Q 3253 2941 3253 2259 
Q 3253 1453 3087 958 
Q 2922 463 2592 192 
Q 2263 -78 1759 -78 
Q 1097 -78 719 397 
Q 266 969 266 2259 
z
M 844 2259 
Q 844 1131 1108 757 
Q 1372 384 1759 384 
Q 2147 384 2411 759 
Q 2675 1134 2675 2259 
Q 2675 3391 2411 3762 
Q 2147 4134 1753 4134 
Q 1366 4134 1134 3806 
Q 844 3388 844 2259 
z
" transform="scale(0.015625)"/>
       </defs>
       <use xlink:href="#ArialMT-2212"/>
       <use xlink:href="#ArialMT-31" x="58.398438"/>
       <use xlink:href="#ArialMT-2e" x="114.013672"/>
       <use xlink:href="#ArialMT-30" x="141.796875"/>
      </g>
     </g>
    </g>
    <g id="xtick_3">
     <g id="line2d_3">
      <path d="M 241.830614 339.84 
L 241.830614 7.2 
" clip-path="url(#p684228867b)" style="fill: none; stroke: #ffffff; stroke-linecap: round"/>
     </g>
     <g id="text_3">
      <!-- −0.5 -->
      <g style="fill: #262626" transform="translate(230.97327 357.213594) scale(0.11 -0.11)">
       <use xlink:href="#ArialMT-2212"/>
       <use xlink:href="#ArialMT-30" x="58.398438"/>
       <use xlink:href="#ArialMT-2e" x="114.013672"/>
       <use xlink:href="#ArialMT-35" x="141.796875"/>
      </g>
     </g>
    </g>
    <g id="xtick_4">
     <g id="line2d_4">
      <path d="M 313.179304 339.84 
L 313.179304 7.2 
" clip-path="url(#p684228867b)" style="fill: none; stroke: #ffffff; stroke-linecap: round"/>
     </g>
     <g id="text_4">
      <!-- 0.0 -->
      <g style="fill: #262626" transform="translate(305.534304 357.213594) scale(0.11 -0.11)">
       <use xlink:href="#ArialMT-30"/>
       <use xlink:href="#ArialMT-2e" x="55.615234"/>
       <use xlink:href="#ArialMT-30" x="83.398438"/>
      </g>
     </g>
    </g>
    <g id="xtick_5">
     <g id="line2d_5">
      <path d="M 384.527995 339.84 
L 384.527995 7.2 
" clip-path="url(#p684228867b)" style="fill: none; stroke: #ffffff; stroke-linecap: round"/>
     </g>
     <g id="text_5">
      <!-- 0.5 -->
      <g style="fill: #262626" transform="translate(376.882995 357.213594) scale(0.11 -0.11)">
       <use xlink:href="#ArialMT-30"/>
       <use xlink:href="#ArialMT-2e" x="55.615234"/>
       <use xlink:href="#ArialMT-35" x="83.398438"/>
      </g>
     </g>
    </g>
    <g id="xtick_6">
     <g id="line2d_6">
      <path d="M 455.876685 339.84 
L 455.876685 7.2 
" clip-path="url(#p684228867b)" style="fill: none; stroke: #ffffff; stroke-linecap: round"/>
     </g>
     <g id="text_6">
      <!-- 1.0 -->
      <g style="fill: #262626" transform="translate(448.231685 357.213594) scale(0.11 -0.11)">
       <use xlink:href="#ArialMT-31"/>
       <use xlink:href="#ArialMT-2e" x="55.615234"/>
       <use xlink:href="#ArialMT-30" x="83.398438"/>
      </g>
     </g>
    </g>
    <g id="xtick_7">
     <g id="line2d_7">
      <path d="M 527.225375 339.84 
L 527.225375 7.2 
" clip-path="url(#p684228867b)" style="fill: none; stroke: #ffffff; stroke-linecap: round"/>
     </g>
     <g id="text_7">
      <!-- 1.5 -->
      <g style="fill: #262626" transform="translate(519.580375 357.213594) scale(0.11 -0.11)">
       <use xlink:href="#ArialMT-31"/>
       <use xlink:href="#ArialMT-2e" x="55.615234"/>
       <use xlink:href="#ArialMT-35" x="83.398438"/>
      </g>
     </g>
    </g>
    <g id="xtick_8">
     <g id="line2d_8">
      <path d="M 598.574066 339.84 
L 598.574066 7.2 
" clip-path="url(#p684228867b)" style="fill: none; stroke: #ffffff; stroke-linecap: round"/>
     </g>
     <g id="text_8">
      <!-- 2.0 -->
      <g style="fill: #262626" transform="translate(590.929066 357.213594) scale(0.11 -0.11)">
       <defs>
        <path id="ArialMT-32" d="M 3222 541 
L 3222 0 
L 194 0 
Q 188 203 259 391 
Q 375 700 629 1000 
Q 884 1300 1366 1694 
Q 2113 2306 2375 2664 
Q 2638 3022 2638 3341 
Q 2638 3675 2398 3904 
Q 2159 4134 1775 4134 
Q 1369 4134 1125 3890 
Q 881 3647 878 3216 
L 300 3275 
Q 359 3922 746 4261 
Q 1134 4600 1788 4600 
Q 2447 4600 2831 4234 
Q 3216 3869 3216 3328 
Q 3216 3053 3103 2787 
Q 2991 2522 2730 2228 
Q 2469 1934 1863 1422 
Q 1356 997 1212 845 
Q 1069 694 975 541 
L 3222 541 
z
" transform="scale(0.015625)"/>
       </defs>
       <use xlink:href="#ArialMT-32"/>
       <use xlink:href="#ArialMT-2e" x="55.615234"/>
       <use xlink:href="#ArialMT-30" x="83.398438"/>
      </g>
     </g>
    </g>
    <g id="text_9">
     <!-- Predictor (stdz) -->
     <g style="fill: #262626" transform="translate(282.837031 372.135469) scale(0.12 -0.12)">
      <defs>
       <path id="ArialMT-50" d="M 494 0 
L 494 4581 
L 2222 4581 
Q 2678 4581 2919 4538 
Q 3256 4481 3484 4323 
Q 3713 4166 3852 3881 
Q 3991 3597 3991 3256 
Q 3991 2672 3619 2267 
Q 3247 1863 2275 1863 
L 1100 1863 
L 1100 0 
L 494 0 
z
M 1100 2403 
L 2284 2403 
Q 2872 2403 3119 2622 
Q 3366 2841 3366 3238 
Q 3366 3525 3220 3729 
Q 3075 3934 2838 4000 
Q 2684 4041 2272 4041 
L 1100 4041 
L 1100 2403 
z
" transform="scale(0.015625)"/>
       <path id="ArialMT-72" d="M 416 0 
L 416 3319 
L 922 3319 
L 922 2816 
Q 1116 3169 1280 3281 
Q 1444 3394 1641 3394 
Q 1925 3394 2219 3213 
L 2025 2691 
Q 1819 2813 1613 2813 
Q 1428 2813 1281 2702 
Q 1134 2591 1072 2394 
Q 978 2094 978 1738 
L 978 0 
L 416 0 
z
" transform="scale(0.015625)"/>
       <path id="ArialMT-65" d="M 2694 1069 
L 3275 997 
Q 3138 488 2766 206 
Q 2394 -75 1816 -75 
Q 1088 -75 661 373 
Q 234 822 234 1631 
Q 234 2469 665 2931 
Q 1097 3394 1784 3394 
Q 2450 3394 2872 2941 
Q 3294 2488 3294 1666 
Q 3294 1616 3291 1516 
L 816 1516 
Q 847 969 1125 678 
Q 1403 388 1819 388 
Q 2128 388 2347 550 
Q 2566 713 2694 1069 
z
M 847 1978 
L 2700 1978 
Q 2663 2397 2488 2606 
Q 2219 2931 1791 2931 
Q 1403 2931 1139 2672 
Q 875 2413 847 1978 
z
" transform="scale(0.015625)"/>
       <path id="ArialMT-64" d="M 2575 0 
L 2575 419 
Q 2259 -75 1647 -75 
Q 1250 -75 917 144 
Q 584 363 401 755 
Q 219 1147 219 1656 
Q 219 2153 384 2558 
Q 550 2963 881 3178 
Q 1213 3394 1622 3394 
Q 1922 3394 2156 3267 
Q 2391 3141 2538 2938 
L 2538 4581 
L 3097 4581 
L 3097 0 
L 2575 0 
z
M 797 1656 
Q 797 1019 1065 703 
Q 1334 388 1700 388 
Q 2069 388 2326 689 
Q 2584 991 2584 1609 
Q 2584 2291 2321 2609 
Q 2059 2928 1675 2928 
Q 1300 2928 1048 2622 
Q 797 2316 797 1656 
z
" transform="scale(0.015625)"/>
       <path id="ArialMT-69" d="M 425 3934 
L 425 4581 
L 988 4581 
L 988 3934 
L 425 3934 
z
M 425 0 
L 425 3319 
L 988 3319 
L 988 0 
L 425 0 
z
" transform="scale(0.015625)"/>
       <path id="ArialMT-63" d="M 2588 1216 
L 3141 1144 
Q 3050 572 2676 248 
Q 2303 -75 1759 -75 
Q 1078 -75 664 370 
Q 250 816 250 1647 
Q 250 2184 428 2587 
Q 606 2991 970 3192 
Q 1334 3394 1763 3394 
Q 2303 3394 2647 3120 
Q 2991 2847 3088 2344 
L 2541 2259 
Q 2463 2594 2264 2762 
Q 2066 2931 1784 2931 
Q 1359 2931 1093 2626 
Q 828 2322 828 1663 
Q 828 994 1084 691 
Q 1341 388 1753 388 
Q 2084 388 2306 591 
Q 2528 794 2588 1216 
z
" transform="scale(0.015625)"/>
       <path id="ArialMT-74" d="M 1650 503 
L 1731 6 
Q 1494 -44 1306 -44 
Q 1000 -44 831 53 
Q 663 150 594 308 
Q 525 466 525 972 
L 525 2881 
L 113 2881 
L 113 3319 
L 525 3319 
L 525 4141 
L 1084 4478 
L 1084 3319 
L 1650 3319 
L 1650 2881 
L 1084 2881 
L 1084 941 
Q 1084 700 1114 631 
Q 1144 563 1211 522 
Q 1278 481 1403 481 
Q 1497 481 1650 503 
z
" transform="scale(0.015625)"/>
       <path id="ArialMT-6f" d="M 213 1659 
Q 213 2581 725 3025 
Q 1153 3394 1769 3394 
Q 2453 3394 2887 2945 
Q 3322 2497 3322 1706 
Q 3322 1066 3130 698 
Q 2938 331 2570 128 
Q 2203 -75 1769 -75 
Q 1072 -75 642 372 
Q 213 819 213 1659 
z
M 791 1659 
Q 791 1022 1069 705 
Q 1347 388 1769 388 
Q 2188 388 2466 706 
Q 2744 1025 2744 1678 
Q 2744 2294 2464 2611 
Q 2184 2928 1769 2928 
Q 1347 2928 1069 2612 
Q 791 2297 791 1659 
z
" transform="scale(0.015625)"/>
       <path id="ArialMT-20" transform="scale(0.015625)"/>
       <path id="ArialMT-28" d="M 1497 -1347 
Q 1031 -759 709 28 
Q 388 816 388 1659 
Q 388 2403 628 3084 
Q 909 3875 1497 4659 
L 1900 4659 
Q 1522 4009 1400 3731 
Q 1209 3300 1100 2831 
Q 966 2247 966 1656 
Q 966 153 1900 -1347 
L 1497 -1347 
z
" transform="scale(0.015625)"/>
       <path id="ArialMT-73" d="M 197 991 
L 753 1078 
Q 800 744 1014 566 
Q 1228 388 1613 388 
Q 2000 388 2187 545 
Q 2375 703 2375 916 
Q 2375 1106 2209 1216 
Q 2094 1291 1634 1406 
Q 1016 1563 777 1677 
Q 538 1791 414 1992 
Q 291 2194 291 2438 
Q 291 2659 392 2848 
Q 494 3038 669 3163 
Q 800 3259 1026 3326 
Q 1253 3394 1513 3394 
Q 1903 3394 2198 3281 
Q 2494 3169 2634 2976 
Q 2775 2784 2828 2463 
L 2278 2388 
Q 2241 2644 2061 2787 
Q 1881 2931 1553 2931 
Q 1166 2931 1000 2803 
Q 834 2675 834 2503 
Q 834 2394 903 2306 
Q 972 2216 1119 2156 
Q 1203 2125 1616 2013 
Q 2213 1853 2448 1751 
Q 2684 1650 2818 1456 
Q 2953 1263 2953 975 
Q 2953 694 2789 445 
Q 2625 197 2315 61 
Q 2006 -75 1616 -75 
Q 969 -75 630 194 
Q 291 463 197 991 
z
" transform="scale(0.015625)"/>
       <path id="ArialMT-7a" d="M 125 0 
L 125 456 
L 2238 2881 
Q 1878 2863 1603 2863 
L 250 2863 
L 250 3319 
L 2963 3319 
L 2963 2947 
L 1166 841 
L 819 456 
Q 1197 484 1528 484 
L 3063 484 
L 3063 0 
L 125 0 
z
" transform="scale(0.015625)"/>
       <path id="ArialMT-29" d="M 791 -1347 
L 388 -1347 
Q 1322 153 1322 1656 
Q 1322 2244 1188 2822 
Q 1081 3291 891 3722 
Q 769 4003 388 4659 
L 791 4659 
Q 1378 3875 1659 3084 
Q 1900 2403 1900 1659 
Q 1900 816 1576 28 
Q 1253 -759 791 -1347 
z
" transform="scale(0.015625)"/>
      </defs>
      <use xlink:href="#ArialMT-50"/>
      <use xlink:href="#ArialMT-72" x="66.699219"/>
      <use xlink:href="#ArialMT-65" x="100"/>
      <use xlink:href="#ArialMT-64" x="155.615234"/>
      <use xlink:href="#ArialMT-69" x="211.230469"/>
      <use xlink:href="#ArialMT-63" x="233.447266"/>
      <use xlink:href="#ArialMT-74" x="283.447266"/>
      <use xlink:href="#ArialMT-6f" x="311.230469"/>
      <use xlink:href="#ArialMT-72" x="366.845703"/>
      <use xlink:href="#ArialMT-20" x="400.146484"/>
      <use xlink:href="#ArialMT-28" x="427.929688"/>
      <use xlink:href="#ArialMT-73" x="461.230469"/>
      <use xlink:href="#ArialMT-74" x="511.230469"/>
      <use xlink:href="#ArialMT-64" x="539.013672"/>
      <use xlink:href="#ArialMT-7a" x="594.628906"/>
      <use xlink:href="#ArialMT-29" x="644.628906"/>
     </g>
    </g>
   </g>
   <g id="matplotlib.axis_2">
    <g id="ytick_1">
     <g id="line2d_9">
      <path d="M 44.510469 300.891857 
L 602.510469 300.891857 
" clip-path="url(#p684228867b)" style="fill: none; stroke: #ffffff; stroke-linecap: round"/>
     </g>
     <g id="text_10">
      <!-- −3 -->
      <g style="fill: #262626" transform="translate(22.46875 304.828653) scale(0.11 -0.11)">
       <defs>
        <path id="ArialMT-33" d="M 269 1209 
L 831 1284 
Q 928 806 1161 595 
Q 1394 384 1728 384 
Q 2125 384 2398 659 
Q 2672 934 2672 1341 
Q 2672 1728 2419 1979 
Q 2166 2231 1775 2231 
Q 1616 2231 1378 2169 
L 1441 2663 
Q 1497 2656 1531 2656 
Q 1891 2656 2178 2843 
Q 2466 3031 2466 3422 
Q 2466 3731 2256 3934 
Q 2047 4138 1716 4138 
Q 1388 4138 1169 3931 
Q 950 3725 888 3313 
L 325 3413 
Q 428 3978 793 4289 
Q 1159 4600 1703 4600 
Q 2078 4600 2393 4439 
Q 2709 4278 2876 4000 
Q 3044 3722 3044 3409 
Q 3044 3113 2884 2869 
Q 2725 2625 2413 2481 
Q 2819 2388 3044 2092 
Q 3269 1797 3269 1353 
Q 3269 753 2831 336 
Q 2394 -81 1725 -81 
Q 1122 -81 723 278 
Q 325 638 269 1209 
z
" transform="scale(0.015625)"/>
       </defs>
       <use xlink:href="#ArialMT-2212"/>
       <use xlink:href="#ArialMT-33" x="58.398438"/>
      </g>
     </g>
    </g>
    <g id="ytick_2">
     <g id="line2d_10">
      <path d="M 44.510469 238.325356 
L 602.510469 238.325356 
" clip-path="url(#p684228867b)" style="fill: none; stroke: #ffffff; stroke-linecap: round"/>
     </g>
     <g id="text_11">
      <!-- −2 -->
      <g style="fill: #262626" transform="translate(22.46875 242.262153) scale(0.11 -0.11)">
       <use xlink:href="#ArialMT-2212"/>
       <use xlink:href="#ArialMT-32" x="58.398438"/>
      </g>
     </g>
    </g>
    <g id="ytick_3">
     <g id="line2d_11">
      <path d="M 44.510469 175.758856 
L 602.510469 175.758856 
" clip-path="url(#p684228867b)" style="fill: none; stroke: #ffffff; stroke-linecap: round"/>
     </g>
     <g id="text_12">
      <!-- −1 -->
      <g style="fill: #262626" transform="translate(22.46875 179.695653) scale(0.11 -0.11)">
       <use xlink:href="#ArialMT-2212"/>
       <use xlink:href="#ArialMT-31" x="58.398438"/>
      </g>
     </g>
    </g>
    <g id="ytick_4">
     <g id="line2d_12">
      <path d="M 44.510469 113.192356 
L 602.510469 113.192356 
" clip-path="url(#p684228867b)" style="fill: none; stroke: #ffffff; stroke-linecap: round"/>
     </g>
     <g id="text_13">
      <!-- 0 -->
      <g style="fill: #262626" transform="translate(28.893438 117.129153) scale(0.11 -0.11)">
       <use xlink:href="#ArialMT-30"/>
      </g>
     </g>
    </g>
    <g id="ytick_5">
     <g id="line2d_13">
      <path d="M 44.510469 50.625855 
L 602.510469 50.625855 
" clip-path="url(#p684228867b)" style="fill: none; stroke: #ffffff; stroke-linecap: round"/>
     </g>
     <g id="text_14">
      <!-- 1 -->
      <g style="fill: #262626" transform="translate(28.893438 54.562652) scale(0.11 -0.11)">
       <use xlink:href="#ArialMT-31"/>
      </g>
     </g>
    </g>
    <g id="text_15">
     <!-- Outcome (stdz) -->
     <g style="fill: #262626" transform="translate(15.943125 214.527187) rotate(-90) scale(0.12 -0.12)">
      <defs>
       <path id="ArialMT-4f" d="M 309 2231 
Q 309 3372 921 4017 
Q 1534 4663 2503 4663 
Q 3138 4663 3647 4359 
Q 4156 4056 4423 3514 
Q 4691 2972 4691 2284 
Q 4691 1588 4409 1038 
Q 4128 488 3612 205 
Q 3097 -78 2500 -78 
Q 1853 -78 1343 234 
Q 834 547 571 1087 
Q 309 1628 309 2231 
z
M 934 2222 
Q 934 1394 1379 917 
Q 1825 441 2497 441 
Q 3181 441 3623 922 
Q 4066 1403 4066 2288 
Q 4066 2847 3877 3264 
Q 3688 3681 3323 3911 
Q 2959 4141 2506 4141 
Q 1863 4141 1398 3698 
Q 934 3256 934 2222 
z
" transform="scale(0.015625)"/>
       <path id="ArialMT-75" d="M 2597 0 
L 2597 488 
Q 2209 -75 1544 -75 
Q 1250 -75 995 37 
Q 741 150 617 320 
Q 494 491 444 738 
Q 409 903 409 1263 
L 409 3319 
L 972 3319 
L 972 1478 
Q 972 1038 1006 884 
Q 1059 663 1231 536 
Q 1403 409 1656 409 
Q 1909 409 2131 539 
Q 2353 669 2445 892 
Q 2538 1116 2538 1541 
L 2538 3319 
L 3100 3319 
L 3100 0 
L 2597 0 
z
" transform="scale(0.015625)"/>
       <path id="ArialMT-6d" d="M 422 0 
L 422 3319 
L 925 3319 
L 925 2853 
Q 1081 3097 1340 3245 
Q 1600 3394 1931 3394 
Q 2300 3394 2536 3241 
Q 2772 3088 2869 2813 
Q 3263 3394 3894 3394 
Q 4388 3394 4653 3120 
Q 4919 2847 4919 2278 
L 4919 0 
L 4359 0 
L 4359 2091 
Q 4359 2428 4304 2576 
Q 4250 2725 4106 2815 
Q 3963 2906 3769 2906 
Q 3419 2906 3187 2673 
Q 2956 2441 2956 1928 
L 2956 0 
L 2394 0 
L 2394 2156 
Q 2394 2531 2256 2718 
Q 2119 2906 1806 2906 
Q 1569 2906 1367 2781 
Q 1166 2656 1075 2415 
Q 984 2175 984 1722 
L 984 0 
L 422 0 
z
" transform="scale(0.015625)"/>
      </defs>
      <use xlink:href="#ArialMT-4f"/>
      <use xlink:href="#ArialMT-75" x="77.783203"/>
      <use xlink:href="#ArialMT-74" x="133.398438"/>
      <use xlink:href="#ArialMT-63" x="161.181641"/>
      <use xlink:href="#ArialMT-6f" x="211.181641"/>
      <use xlink:href="#ArialMT-6d" x="266.796875"/>
      <use xlink:href="#ArialMT-65" x="350.097656"/>
      <use xlink:href="#ArialMT-20" x="405.712891"/>
      <use xlink:href="#ArialMT-28" x="433.496094"/>
      <use xlink:href="#ArialMT-73" x="466.796875"/>
      <use xlink:href="#ArialMT-74" x="516.796875"/>
      <use xlink:href="#ArialMT-64" x="544.580078"/>
      <use xlink:href="#ArialMT-7a" x="600.195312"/>
      <use xlink:href="#ArialMT-29" x="650.195312"/>
     </g>
    </g>
   </g>
   <g id="PathCollection_1">
    <defs>
     <path id="madc55de28d" d="M 0 3 
C 0.795609 3 1.55874 2.683901 2.12132 2.12132 
C 2.683901 1.55874 3 0.795609 3 0 
C 3 -0.795609 2.683901 -1.55874 2.12132 -2.12132 
C 1.55874 -2.683901 0.795609 -3 0 -3 
C -0.795609 -3 -1.55874 -2.683901 -2.12132 -2.12132 
C -2.683901 -1.55874 -3 -0.795609 -3 0 
C -3 0.795609 -2.683901 1.55874 -2.12132 2.12132 
C -1.55874 2.683901 -0.795609 3 0 3 
z
" style="stroke: #0173b2"/>
    </defs>
    <g clip-path="url(#p684228867b)">
     <use xlink:href="#madc55de28d" x="369.152529" y="55.727145" style="fill: #0173b2; stroke: #0173b2"/>
     <use xlink:href="#madc55de28d" x="99.476818" y="216.013575" style="fill: #0173b2; stroke: #0173b2"/>
     <use xlink:href="#madc55de28d" x="313.975126" y="60.67725" style="fill: #0173b2; stroke: #0173b2"/>
     <use xlink:href="#madc55de28d" x="102.862641" y="203.266418" style="fill: #0173b2; stroke: #0173b2"/>
     <use xlink:href="#madc55de28d" x="238.284452" y="60.155381" style="fill: #0173b2; stroke: #0173b2"/>
     <use xlink:href="#madc55de28d" x="278.675509" y="36.816573" style="fill: #0173b2; stroke: #0173b2"/>
     <use xlink:href="#madc55de28d" x="222.670548" y="44.278217" style="fill: #0173b2; stroke: #0173b2"/>
     <use xlink:href="#madc55de28d" x="491.587736" y="140.488476" style="fill: #0173b2; stroke: #0173b2"/>
     <use xlink:href="#madc55de28d" x="80.841559" y="278.659269" style="fill: #0173b2; stroke: #0173b2"/>
     <use xlink:href="#madc55de28d" x="86.775879" y="252.61005" style="fill: #0173b2; stroke: #0173b2"/>
     <use xlink:href="#madc55de28d" x="376.711723" y="59.532694" style="fill: #0173b2; stroke: #0173b2"/>
     <use xlink:href="#madc55de28d" x="559.304181" y="205.618221" style="fill: #0173b2; stroke: #0173b2"/>
     <use xlink:href="#madc55de28d" x="499.444492" y="159.18024" style="fill: #0173b2; stroke: #0173b2"/>
     <use xlink:href="#madc55de28d" x="188.408801" y="78.997489" style="fill: #0173b2; stroke: #0173b2"/>
     <use xlink:href="#madc55de28d" x="323.456823" y="41.862794" style="fill: #0173b2; stroke: #0173b2"/>
     <use xlink:href="#madc55de28d" x="479.154318" y="131.667324" style="fill: #0173b2; stroke: #0173b2"/>
     <use xlink:href="#madc55de28d" x="432.946517" y="128.096335" style="fill: #0173b2; stroke: #0173b2"/>
     <use xlink:href="#madc55de28d" x="363.669916" y="89.981231" style="fill: #0173b2; stroke: #0173b2"/>
     <use xlink:href="#madc55de28d" x="405.49358" y="90.33043" style="fill: #0173b2; stroke: #0173b2"/>
     <use xlink:href="#madc55de28d" x="483.01221" y="150.328909" style="fill: #0173b2; stroke: #0173b2"/>
     <use xlink:href="#madc55de28d" x="248.14121" y="51.719212" style="fill: #0173b2; stroke: #0173b2"/>
     <use xlink:href="#madc55de28d" x="178.874891" y="73.947821" style="fill: #0173b2; stroke: #0173b2"/>
     <use xlink:href="#madc55de28d" x="363.525105" y="69.220128" style="fill: #0173b2; stroke: #0173b2"/>
     <use xlink:href="#madc55de28d" x="500.658315" y="158.472527" style="fill: #0173b2; stroke: #0173b2"/>
     <use xlink:href="#madc55de28d" x="295.312319" y="81.586228" style="fill: #0173b2; stroke: #0173b2"/>
     <use xlink:href="#madc55de28d" x="417.598868" y="125.11072" style="fill: #0173b2; stroke: #0173b2"/>
     <use xlink:href="#madc55de28d" x="322.034405" y="75.444524" style="fill: #0173b2; stroke: #0173b2"/>
     <use xlink:href="#madc55de28d" x="234.919521" y="52.861902" style="fill: #0173b2; stroke: #0173b2"/>
     <use xlink:href="#madc55de28d" x="349.69172" y="60.29391" style="fill: #0173b2; stroke: #0173b2"/>
     <use xlink:href="#madc55de28d" x="142.467733" y="144.130975" style="fill: #0173b2; stroke: #0173b2"/>
     <use xlink:href="#madc55de28d" x="90.490638" y="230.906271" style="fill: #0173b2; stroke: #0173b2"/>
     <use xlink:href="#madc55de28d" x="164.185194" y="103.062895" style="fill: #0173b2; stroke: #0173b2"/>
     <use xlink:href="#madc55de28d" x="424.716342" y="112.440517" style="fill: #0173b2; stroke: #0173b2"/>
     <use xlink:href="#madc55de28d" x="181.859953" y="71.755237" style="fill: #0173b2; stroke: #0173b2"/>
     <use xlink:href="#madc55de28d" x="449.657239" y="120.07869" style="fill: #0173b2; stroke: #0173b2"/>
     <use xlink:href="#madc55de28d" x="156.346226" y="115.567436" style="fill: #0173b2; stroke: #0173b2"/>
     <use xlink:href="#madc55de28d" x="87.632441" y="252.035131" style="fill: #0173b2; stroke: #0173b2"/>
     <use xlink:href="#madc55de28d" x="288.889556" y="45.227744" style="fill: #0173b2; stroke: #0173b2"/>
     <use xlink:href="#madc55de28d" x="355.606411" y="75.401329" style="fill: #0173b2; stroke: #0173b2"/>
     <use xlink:href="#madc55de28d" x="577.146832" y="199.735929" style="fill: #0173b2; stroke: #0173b2"/>
     <use xlink:href="#madc55de28d" x="371.323739" y="64.742599" style="fill: #0173b2; stroke: #0173b2"/>
     <use xlink:href="#madc55de28d" x="231.443883" y="46.277771" style="fill: #0173b2; stroke: #0173b2"/>
     <use xlink:href="#madc55de28d" x="348.718231" y="50.39929" style="fill: #0173b2; stroke: #0173b2"/>
     <use xlink:href="#madc55de28d" x="293.33231" y="58.315355" style="fill: #0173b2; stroke: #0173b2"/>
     <use xlink:href="#madc55de28d" x="296.375599" y="36.485267" style="fill: #0173b2; stroke: #0173b2"/>
     <use xlink:href="#madc55de28d" x="429.715883" y="115.535939" style="fill: #0173b2; stroke: #0173b2"/>
     <use xlink:href="#madc55de28d" x="298.368473" y="51.872198" style="fill: #0173b2; stroke: #0173b2"/>
     <use xlink:href="#madc55de28d" x="459.615523" y="135.244472" style="fill: #0173b2; stroke: #0173b2"/>
     <use xlink:href="#madc55de28d" x="520.301097" y="157.891139" style="fill: #0173b2; stroke: #0173b2"/>
     <use xlink:href="#madc55de28d" x="321.676444" y="43.71944" style="fill: #0173b2; stroke: #0173b2"/>
     <use xlink:href="#madc55de28d" x="339.903373" y="95.620734" style="fill: #0173b2; stroke: #0173b2"/>
     <use xlink:href="#madc55de28d" x="422.223384" y="119.442193" style="fill: #0173b2; stroke: #0173b2"/>
     <use xlink:href="#madc55de28d" x="106.175297" y="220.832323" style="fill: #0173b2; stroke: #0173b2"/>
     <use xlink:href="#madc55de28d" x="290.094886" y="51.076616" style="fill: #0173b2; stroke: #0173b2"/>
     <use xlink:href="#madc55de28d" x="71.524589" y="310.214749" style="fill: #0173b2; stroke: #0173b2"/>
     <use xlink:href="#madc55de28d" x="69.874105" y="288.19542" style="fill: #0173b2; stroke: #0173b2"/>
     <use xlink:href="#madc55de28d" x="165.902323" y="94.392419" style="fill: #0173b2; stroke: #0173b2"/>
     <use xlink:href="#madc55de28d" x="474.45067" y="124.373609" style="fill: #0173b2; stroke: #0173b2"/>
     <use xlink:href="#madc55de28d" x="310.407441" y="49.621047" style="fill: #0173b2; stroke: #0173b2"/>
     <use xlink:href="#madc55de28d" x="230.027329" y="47.734288" style="fill: #0173b2; stroke: #0173b2"/>
     <use xlink:href="#madc55de28d" x="495.533241" y="125.817977" style="fill: #0173b2; stroke: #0173b2"/>
     <use xlink:href="#madc55de28d" x="235.25287" y="50.835713" style="fill: #0173b2; stroke: #0173b2"/>
     <use xlink:href="#madc55de28d" x="158.654909" y="105.770083" style="fill: #0173b2; stroke: #0173b2"/>
     <use xlink:href="#madc55de28d" x="157.700945" y="120.476388" style="fill: #0173b2; stroke: #0173b2"/>
     <use xlink:href="#madc55de28d" x="138.977782" y="130.709975" style="fill: #0173b2; stroke: #0173b2"/>
     <use xlink:href="#madc55de28d" x="110.976667" y="183.338377" style="fill: #0173b2; stroke: #0173b2"/>
     <use xlink:href="#madc55de28d" x="409.375034" y="101.826724" style="fill: #0173b2; stroke: #0173b2"/>
     <use xlink:href="#madc55de28d" x="558.47651" y="168.073181" style="fill: #0173b2; stroke: #0173b2"/>
     <use xlink:href="#madc55de28d" x="123.422699" y="158.775825" style="fill: #0173b2; stroke: #0173b2"/>
     <use xlink:href="#madc55de28d" x="145.325292" y="145.541729" style="fill: #0173b2; stroke: #0173b2"/>
     <use xlink:href="#madc55de28d" x="440.577333" y="128.278214" style="fill: #0173b2; stroke: #0173b2"/>
     <use xlink:href="#madc55de28d" x="532.060964" y="133.623488" style="fill: #0173b2; stroke: #0173b2"/>
     <use xlink:href="#madc55de28d" x="525.918264" y="168.960963" style="fill: #0173b2; stroke: #0173b2"/>
     <use xlink:href="#madc55de28d" x="325.983982" y="63.772487" style="fill: #0173b2; stroke: #0173b2"/>
     <use xlink:href="#madc55de28d" x="330.441847" y="57.429982" style="fill: #0173b2; stroke: #0173b2"/>
     <use xlink:href="#madc55de28d" x="493.215659" y="171.73233" style="fill: #0173b2; stroke: #0173b2"/>
     <use xlink:href="#madc55de28d" x="416.516135" y="82.726539" style="fill: #0173b2; stroke: #0173b2"/>
     <use xlink:href="#madc55de28d" x="461.763725" y="109.400023" style="fill: #0173b2; stroke: #0173b2"/>
     <use xlink:href="#madc55de28d" x="290.980043" y="41.742851" style="fill: #0173b2; stroke: #0173b2"/>
     <use xlink:href="#madc55de28d" x="210.05215" y="64.460517" style="fill: #0173b2; stroke: #0173b2"/>
     <use xlink:href="#madc55de28d" x="490.724209" y="147.588942" style="fill: #0173b2; stroke: #0173b2"/>
     <use xlink:href="#madc55de28d" x="246.993354" y="57.193528" style="fill: #0173b2; stroke: #0173b2"/>
     <use xlink:href="#madc55de28d" x="498.301674" y="158.408057" style="fill: #0173b2; stroke: #0173b2"/>
     <use xlink:href="#madc55de28d" x="441.218257" y="118.494172" style="fill: #0173b2; stroke: #0173b2"/>
     <use xlink:href="#madc55de28d" x="189.927085" y="82.486355" style="fill: #0173b2; stroke: #0173b2"/>
     <use xlink:href="#madc55de28d" x="226.332206" y="52.273755" style="fill: #0173b2; stroke: #0173b2"/>
     <use xlink:href="#madc55de28d" x="277.819345" y="38.938013" style="fill: #0173b2; stroke: #0173b2"/>
     <use xlink:href="#madc55de28d" x="378.637467" y="55.633337" style="fill: #0173b2; stroke: #0173b2"/>
     <use xlink:href="#madc55de28d" x="510.793077" y="168.066218" style="fill: #0173b2; stroke: #0173b2"/>
     <use xlink:href="#madc55de28d" x="205.373586" y="64.335251" style="fill: #0173b2; stroke: #0173b2"/>
     <use xlink:href="#madc55de28d" x="138.218704" y="119.282653" style="fill: #0173b2; stroke: #0173b2"/>
     <use xlink:href="#madc55de28d" x="524.396393" y="164.132499" style="fill: #0173b2; stroke: #0173b2"/>
     <use xlink:href="#madc55de28d" x="404.590977" y="96.047151" style="fill: #0173b2; stroke: #0173b2"/>
     <use xlink:href="#madc55de28d" x="534.155469" y="170.761495" style="fill: #0173b2; stroke: #0173b2"/>
     <use xlink:href="#madc55de28d" x="186.378212" y="92.28655" style="fill: #0173b2; stroke: #0173b2"/>
     <use xlink:href="#madc55de28d" x="179.978123" y="85.00839" style="fill: #0173b2; stroke: #0173b2"/>
     <use xlink:href="#madc55de28d" x="478.299455" y="143.263442" style="fill: #0173b2; stroke: #0173b2"/>
     <use xlink:href="#madc55de28d" x="96.068535" y="223.034989" style="fill: #0173b2; stroke: #0173b2"/>
     <use xlink:href="#madc55de28d" x="280.09068" y="39.633924" style="fill: #0173b2; stroke: #0173b2"/>
     <use xlink:href="#madc55de28d" x="191.312725" y="63.799464" style="fill: #0173b2; stroke: #0173b2"/>
    </g>
   </g>
   <g id="PolyCollection_1">
    <defs>
     <path id="m2b8e61b665" d="M 71.14866 -108.201488 
L 71.14866 -57.141094 
L 72.423214 -64.728346 
L 74.972323 -72.194475 
L 77.521433 -79.539481 
L 80.070542 -86.763363 
L 82.619651 -93.866122 
L 85.16876 -100.847757 
L 87.717869 -107.708269 
L 90.266979 -114.447658 
L 92.816088 -121.065923 
L 95.365197 -127.563065 
L 97.914306 -133.939083 
L 100.463415 -140.193978 
L 103.012524 -146.32775 
L 105.561634 -152.340398 
L 108.110743 -158.231923 
L 110.659852 -164.002325 
L 113.208961 -169.651603 
L 115.75807 -175.179757 
L 118.30718 -180.586789 
L 120.856289 -185.872697 
L 123.405398 -191.037481 
L 125.954507 -196.081142 
L 128.503616 -201.00368 
L 131.052725 -205.805095 
L 133.601835 -210.485386 
L 136.150944 -215.044553 
L 138.700053 -219.482597 
L 141.249162 -223.71804 
L 143.798271 -227.755655 
L 146.347381 -231.688553 
L 148.89649 -235.518333 
L 151.445599 -239.247893 
L 153.994708 -242.860056 
L 156.543817 -246.328253 
L 159.092926 -249.731725 
L 161.642036 -253.0419 
L 164.191145 -256.226548 
L 166.740254 -259.281486 
L 169.289363 -262.256063 
L 171.838472 -265.132071 
L 174.387582 -267.867588 
L 176.936691 -270.498662 
L 179.4858 -273.055926 
L 182.034909 -275.537592 
L 184.584018 -277.924916 
L 187.133127 -280.218053 
L 189.682237 -282.421183 
L 192.231346 -284.539448 
L 194.780455 -286.578952 
L 197.329564 -288.513816 
L 199.878673 -290.346161 
L 202.427783 -292.079059 
L 204.976892 -293.716341 
L 207.526001 -295.262599 
L 210.07511 -296.766565 
L 212.624219 -298.18265 
L 215.173329 -299.500383 
L 217.722438 -300.72872 
L 220.271547 -301.874852 
L 222.820656 -302.969093 
L 225.369765 -303.997461 
L 227.918874 -304.967562 
L 230.467984 -305.827658 
L 233.017093 -306.63989 
L 235.566202 -307.411164 
L 238.115311 -308.091524 
L 240.66442 -308.698812 
L 243.21353 -309.216725 
L 245.762639 -309.649416 
L 248.311748 -310.029703 
L 250.860857 -310.353001 
L 253.409966 -310.629834 
L 255.959075 -310.880961 
L 258.508185 -311.06859 
L 261.057294 -311.127968 
L 263.606403 -311.206136 
L 266.155512 -311.234332 
L 268.704621 -311.215211 
L 271.253731 -311.152538 
L 273.80284 -311.058196 
L 276.351949 -310.9346 
L 278.901058 -310.784812 
L 281.450167 -310.599867 
L 283.999276 -310.357654 
L 286.548386 -310.058868 
L 289.097495 -309.716392 
L 291.646604 -309.330429 
L 294.195713 -308.901663 
L 296.744822 -308.462638 
L 299.293932 -307.979783 
L 301.843041 -307.471314 
L 304.39215 -306.923393 
L 306.941259 -306.333946 
L 309.490368 -305.742405 
L 312.039477 -305.116796 
L 314.588587 -304.449392 
L 317.137696 -303.743174 
L 319.686805 -302.980828 
L 322.235914 -302.172548 
L 324.785023 -301.320342 
L 327.334133 -300.426471 
L 329.883242 -299.493455 
L 332.432351 -298.524066 
L 334.98146 -297.521336 
L 337.530569 -296.522312 
L 340.079678 -295.512463 
L 342.628788 -294.452954 
L 345.177897 -293.34269 
L 347.727006 -292.193262 
L 350.276115 -291.057289 
L 352.825224 -289.900359 
L 355.374334 -288.723097 
L 357.923443 -287.539828 
L 360.472552 -286.351964 
L 363.021661 -285.118125 
L 365.57077 -283.876686 
L 368.119879 -282.632055 
L 370.668989 -281.376688 
L 373.218098 -280.085755 
L 375.767207 -278.771061 
L 378.316316 -277.432732 
L 380.865425 -276.070918 
L 383.414535 -274.697021 
L 385.963644 -273.32122 
L 388.512753 -271.921348 
L 391.061862 -270.498952 
L 393.610971 -269.043441 
L 396.16008 -267.55639 
L 398.70919 -266.07256 
L 401.258299 -264.606348 
L 403.807408 -263.143117 
L 406.356517 -261.673745 
L 408.905626 -260.18704 
L 411.454736 -258.690284 
L 414.003845 -257.200862 
L 416.552954 -255.681891 
L 419.102063 -254.134558 
L 421.651172 -252.577778 
L 424.200281 -251.064921 
L 426.749391 -249.556869 
L 429.2985 -248.035807 
L 431.847609 -246.557578 
L 434.396718 -245.056339 
L 436.945827 -243.524422 
L 439.494937 -241.988114 
L 442.044046 -240.43327 
L 444.593155 -238.892144 
L 447.142264 -237.376542 
L 449.691373 -235.826394 
L 452.240482 -234.269797 
L 454.789592 -232.713059 
L 457.338701 -231.138553 
L 459.88781 -229.585291 
L 462.436919 -228.051958 
L 464.986028 -226.526318 
L 467.535138 -225.008619 
L 470.084247 -223.500812 
L 472.633356 -222.004117 
L 475.182465 -220.519809 
L 477.731574 -219.008712 
L 480.280683 -217.479119 
L 482.829793 -215.973946 
L 485.378902 -214.508127 
L 487.928011 -213.085527 
L 490.47712 -211.620585 
L 493.026229 -210.152072 
L 495.575339 -208.69554 
L 498.124448 -207.243407 
L 500.673557 -205.792594 
L 503.222666 -204.3608 
L 505.771775 -202.928446 
L 508.320884 -201.474985 
L 510.869994 -199.992155 
L 513.419103 -198.507526 
L 515.968212 -197.021099 
L 518.517321 -195.532874 
L 521.06643 -194.042849 
L 523.61554 -192.551027 
L 526.164649 -191.057405 
L 528.713758 -189.561985 
L 531.262867 -188.064767 
L 533.811976 -186.56575 
L 536.361085 -185.064934 
L 538.910195 -183.56232 
L 541.459304 -182.057907 
L 544.008413 -180.551695 
L 546.557522 -179.043685 
L 549.106631 -177.533877 
L 551.655741 -176.02227 
L 554.20485 -174.508864 
L 556.753959 -172.993659 
L 559.303068 -171.476657 
L 561.852177 -169.957855 
L 564.401286 -168.437255 
L 566.950396 -166.914856 
L 569.499505 -165.390659 
L 572.048614 -163.864663 
L 574.597723 -162.336869 
L 577.146832 -160.807276 
L 577.146832 -215.204713 
L 577.146832 -215.204713 
L 574.597723 -216.34913 
L 572.048614 -217.50316 
L 569.499505 -218.666802 
L 566.950396 -219.840057 
L 564.401286 -221.022924 
L 561.852177 -222.215404 
L 559.303068 -223.417496 
L 556.753959 -224.629201 
L 554.20485 -225.850519 
L 551.655741 -227.081448 
L 549.106631 -228.321991 
L 546.557522 -229.572145 
L 544.008413 -230.831913 
L 541.459304 -232.101292 
L 538.910195 -233.380285 
L 536.361085 -234.668889 
L 533.811976 -235.967107 
L 531.262867 -237.274936 
L 528.713758 -238.592379 
L 526.164649 -239.919433 
L 523.61554 -241.2561 
L 521.06643 -242.60238 
L 518.517321 -243.958272 
L 515.968212 -245.323777 
L 513.419103 -246.698894 
L 510.869994 -248.083624 
L 508.320884 -249.477966 
L 505.771775 -250.929783 
L 503.222666 -252.381686 
L 500.673557 -253.850351 
L 498.124448 -255.347488 
L 495.575339 -256.834389 
L 493.026229 -258.323671 
L 490.47712 -259.847675 
L 487.928011 -261.371365 
L 485.378902 -262.817458 
L 482.829793 -264.313257 
L 480.280683 -265.853383 
L 477.731574 -267.420304 
L 475.182465 -268.96672 
L 472.633356 -270.464859 
L 470.084247 -271.973484 
L 467.535138 -273.489608 
L 464.986028 -275.010254 
L 462.436919 -276.532236 
L 459.88781 -278.057312 
L 457.338701 -279.596753 
L 454.789592 -281.150739 
L 452.240482 -282.725875 
L 449.691373 -284.280813 
L 447.142264 -285.819701 
L 444.593155 -287.317236 
L 442.044046 -288.828058 
L 439.494937 -290.340711 
L 436.945827 -291.843466 
L 434.396718 -293.360422 
L 431.847609 -294.862694 
L 429.2985 -296.348266 
L 426.749391 -297.819744 
L 424.200281 -299.293118 
L 421.651172 -300.781046 
L 419.102063 -302.312776 
L 416.552954 -303.817839 
L 414.003845 -305.314175 
L 411.454736 -306.796408 
L 408.905626 -308.282029 
L 406.356517 -309.760258 
L 403.807408 -311.232638 
L 401.258299 -312.696787 
L 398.70919 -314.154135 
L 396.16008 -315.613143 
L 393.610971 -317.073735 
L 391.061862 -318.510903 
L 388.512753 -319.943596 
L 385.963644 -321.34286 
L 383.414535 -322.711964 
L 380.865425 -324.077808 
L 378.316316 -325.437173 
L 375.767207 -326.778206 
L 373.218098 -328.100551 
L 370.668989 -329.403962 
L 368.119879 -330.667885 
L 365.57077 -331.91279 
L 363.021661 -333.133765 
L 360.472552 -334.343588 
L 357.923443 -335.492549 
L 355.374334 -336.662388 
L 352.825224 -337.851262 
L 350.276115 -339.016117 
L 347.727006 -340.177413 
L 345.177897 -341.367001 
L 342.628788 -342.510475 
L 340.079678 -343.595077 
L 337.530569 -344.621782 
L 334.98146 -345.631615 
L 332.432351 -346.660399 
L 329.883242 -347.65329 
L 327.334133 -348.607167 
L 324.785023 -349.519151 
L 322.235914 -350.386603 
L 319.686805 -351.207124 
L 317.137696 -351.978559 
L 314.588587 -352.687432 
L 312.039477 -353.350658 
L 309.490368 -353.965793 
L 306.941259 -354.541978 
L 304.39215 -355.129384 
L 301.843041 -355.703814 
L 299.293932 -356.215755 
L 296.744822 -356.682516 
L 294.195713 -357.08637 
L 291.646604 -357.473338 
L 289.097495 -357.837507 
L 286.548386 -358.178218 
L 283.999276 -358.493635 
L 281.450167 -358.762644 
L 278.901058 -358.98249 
L 276.351949 -359.189036 
L 273.80284 -359.354299 
L 271.253731 -359.469452 
L 268.704621 -359.529383 
L 266.155512 -359.541094 
L 263.606403 -359.50325 
L 261.057294 -359.414318 
L 258.508185 -359.311609 
L 255.959075 -359.114253 
L 253.409966 -358.854681 
L 250.860857 -358.562946 
L 248.311748 -358.175822 
L 245.762639 -357.722831 
L 243.21353 -357.232962 
L 240.66442 -356.673718 
L 238.115311 -356.038118 
L 235.566202 -355.336316 
L 233.017093 -354.573004 
L 230.467984 -353.77335 
L 227.918874 -352.929751 
L 225.369765 -351.981931 
L 222.820656 -350.986186 
L 220.271547 -349.916247 
L 217.722438 -348.805558 
L 215.173329 -347.609588 
L 212.624219 -346.348025 
L 210.07511 -344.993049 
L 207.526001 -343.497648 
L 204.976892 -341.94116 
L 202.427783 -340.300409 
L 199.878673 -338.570102 
L 197.329564 -336.745727 
L 194.780455 -334.823556 
L 192.231346 -332.800881 
L 189.682237 -330.710252 
L 187.133127 -328.543563 
L 184.584018 -326.293747 
L 182.034909 -323.954771 
L 179.4858 -321.520266 
L 176.936691 -318.976831 
L 174.387582 -316.341261 
L 171.838472 -313.60751 
L 169.289363 -310.73991 
L 166.740254 -307.778587 
L 164.191145 -304.724584 
L 161.642036 -301.516989 
L 159.092926 -298.206896 
L 156.543817 -294.781614 
L 153.994708 -291.345986 
L 151.445599 -287.771373 
L 148.89649 -284.069858 
L 146.347381 -280.255974 
L 143.798271 -276.326947 
L 141.249162 -272.281129 
L 138.700053 -268.030673 
L 136.150944 -263.647347 
L 133.601835 -259.145845 
L 131.052725 -254.526169 
L 128.503616 -249.788318 
L 125.954507 -244.932293 
L 123.405398 -239.958092 
L 120.856289 -234.865716 
L 118.30718 -229.655166 
L 115.75807 -224.326441 
L 113.208961 -218.879541 
L 110.659852 -213.314466 
L 108.110743 -207.631216 
L 105.561634 -201.829792 
L 103.012524 -195.910192 
L 100.463415 -189.872418 
L 97.914306 -183.716469 
L 95.365197 -177.442345 
L 92.816088 -171.050046 
L 90.266979 -164.539572 
L 87.717869 -157.910924 
L 85.16876 -151.1641 
L 82.619651 -144.299102 
L 80.070542 -137.315929 
L 77.521433 -130.214581 
L 74.972323 -122.995058 
L 72.423214 -115.65736 
L 71.14866 -108.201488 
z
" style="stroke: #de8f05; stroke-opacity: 0.5"/>
    </defs>
    <g clip-path="url(#p684228867b)">
     <use xlink:href="#m2b8e61b665" x="0" y="381.861094" style="fill: #de8f05; fill-opacity: 0.5; stroke: #de8f05; stroke-opacity: 0.5"/>
    </g>
   </g>
   <g id="line2d_14">
    <defs>
     <path id="mf2fdb762af" d="M 0 1.5 
C 0.397805 1.5 0.77937 1.341951 1.06066 1.06066 
C 1.341951 0.77937 1.5 0.397805 1.5 0 
C 1.5 -0.397805 1.341951 -0.77937 1.06066 -1.06066 
C 0.77937 -1.341951 0.397805 -1.5 0 -1.5 
C -0.397805 -1.5 -0.77937 -1.341951 -1.06066 -1.06066 
C -1.341951 -0.77937 -1.5 -0.397805 -1.5 0 
C -1.5 0.397805 -1.341951 0.77937 -1.06066 1.06066 
C -0.77937 1.341951 -0.397805 1.5 0 1.5 
z
" style="stroke: #de8f05; stroke-opacity: 0.6"/>
    </defs>
    <g clip-path="url(#p684228867b)">
     <use xlink:href="#mf2fdb762af" x="369.152529" y="76.176472" style="fill: #de8f05; fill-opacity: 0.6; stroke: #de8f05; stroke-opacity: 0.6"/>
     <use xlink:href="#mf2fdb762af" x="99.476818" y="218.308816" style="fill: #de8f05; fill-opacity: 0.6; stroke: #de8f05; stroke-opacity: 0.6"/>
     <use xlink:href="#mf2fdb762af" x="313.975126" y="53.356671" style="fill: #de8f05; fill-opacity: 0.6; stroke: #de8f05; stroke-opacity: 0.6"/>
     <use xlink:href="#mf2fdb762af" x="102.862641" y="210.104035" style="fill: #de8f05; fill-opacity: 0.6; stroke: #de8f05; stroke-opacity: 0.6"/>
     <use xlink:href="#mf2fdb762af" x="238.284452" y="49.630863" style="fill: #de8f05; fill-opacity: 0.6; stroke: #de8f05; stroke-opacity: 0.6"/>
     <use xlink:href="#mf2fdb762af" x="278.675509" y="46.404562" style="fill: #de8f05; fill-opacity: 0.6; stroke: #de8f05; stroke-opacity: 0.6"/>
     <use xlink:href="#mf2fdb762af" x="222.670548" y="54.969692" style="fill: #de8f05; fill-opacity: 0.6; stroke: #de8f05; stroke-opacity: 0.6"/>
     <use xlink:href="#mf2fdb762af" x="491.587736" y="146.522003" style="fill: #de8f05; fill-opacity: 0.6; stroke: #de8f05; stroke-opacity: 0.6"/>
     <use xlink:href="#mf2fdb762af" x="80.841559" y="268.212499" style="fill: #de8f05; fill-opacity: 0.6; stroke: #de8f05; stroke-opacity: 0.6"/>
     <use xlink:href="#mf2fdb762af" x="86.775879" y="251.427035" style="fill: #de8f05; fill-opacity: 0.6; stroke: #de8f05; stroke-opacity: 0.6"/>
     <use xlink:href="#mf2fdb762af" x="376.711723" y="80.057141" style="fill: #de8f05; fill-opacity: 0.6; stroke: #de8f05; stroke-opacity: 0.6"/>
     <use xlink:href="#mf2fdb762af" x="559.304181" y="184.342645" style="fill: #de8f05; fill-opacity: 0.6; stroke: #de8f05; stroke-opacity: 0.6"/>
     <use xlink:href="#mf2fdb762af" x="499.444492" y="151.077767" style="fill: #de8f05; fill-opacity: 0.6; stroke: #de8f05; stroke-opacity: 0.6"/>
     <use xlink:href="#mf2fdb762af" x="188.408801" y="76.610276" style="fill: #de8f05; fill-opacity: 0.6; stroke: #de8f05; stroke-opacity: 0.6"/>
     <use xlink:href="#mf2fdb762af" x="323.456823" y="56.410545" style="fill: #de8f05; fill-opacity: 0.6; stroke: #de8f05; stroke-opacity: 0.6"/>
     <use xlink:href="#mf2fdb762af" x="479.154318" y="139.241368" style="fill: #de8f05; fill-opacity: 0.6; stroke: #de8f05; stroke-opacity: 0.6"/>
     <use xlink:href="#mf2fdb762af" x="432.946517" y="111.82733" style="fill: #de8f05; fill-opacity: 0.6; stroke: #de8f05; stroke-opacity: 0.6"/>
     <use xlink:href="#mf2fdb762af" x="363.669916" y="73.449657" style="fill: #de8f05; fill-opacity: 0.6; stroke: #de8f05; stroke-opacity: 0.6"/>
     <use xlink:href="#mf2fdb762af" x="405.49358" y="95.839845" style="fill: #de8f05; fill-opacity: 0.6; stroke: #de8f05; stroke-opacity: 0.6"/>
     <use xlink:href="#mf2fdb762af" x="483.01221" y="141.508812" style="fill: #de8f05; fill-opacity: 0.6; stroke: #de8f05; stroke-opacity: 0.6"/>
     <use xlink:href="#mf2fdb762af" x="248.14121" y="47.526376" style="fill: #de8f05; fill-opacity: 0.6; stroke: #de8f05; stroke-opacity: 0.6"/>
     <use xlink:href="#mf2fdb762af" x="178.874891" y="85.393766" style="fill: #de8f05; fill-opacity: 0.6; stroke: #de8f05; stroke-opacity: 0.6"/>
     <use xlink:href="#mf2fdb762af" x="363.525105" y="73.378707" style="fill: #de8f05; fill-opacity: 0.6; stroke: #de8f05; stroke-opacity: 0.6"/>
     <use xlink:href="#mf2fdb762af" x="500.658315" y="151.778137" style="fill: #de8f05; fill-opacity: 0.6; stroke: #de8f05; stroke-opacity: 0.6"/>
     <use xlink:href="#mf2fdb762af" x="295.312319" y="48.730194" style="fill: #de8f05; fill-opacity: 0.6; stroke: #de8f05; stroke-opacity: 0.6"/>
     <use xlink:href="#mf2fdb762af" x="417.598868" y="102.815899" style="fill: #de8f05; fill-opacity: 0.6; stroke: #de8f05; stroke-opacity: 0.6"/>
     <use xlink:href="#mf2fdb762af" x="322.034405" y="55.924976" style="fill: #de8f05; fill-opacity: 0.6; stroke: #de8f05; stroke-opacity: 0.6"/>
     <use xlink:href="#mf2fdb762af" x="234.919521" y="50.566888" style="fill: #de8f05; fill-opacity: 0.6; stroke: #de8f05; stroke-opacity: 0.6"/>
     <use xlink:href="#mf2fdb762af" x="349.69172" y="66.882431" style="fill: #de8f05; fill-opacity: 0.6; stroke: #de8f05; stroke-opacity: 0.6"/>
     <use xlink:href="#mf2fdb762af" x="142.467733" y="131.951896" style="fill: #de8f05; fill-opacity: 0.6; stroke: #de8f05; stroke-opacity: 0.6"/>
     <use xlink:href="#mf2fdb762af" x="90.490638" y="241.350734" style="fill: #de8f05; fill-opacity: 0.6; stroke: #de8f05; stroke-opacity: 0.6"/>
     <use xlink:href="#mf2fdb762af" x="164.185194" y="101.579148" style="fill: #de8f05; fill-opacity: 0.6; stroke: #de8f05; stroke-opacity: 0.6"/>
     <use xlink:href="#mf2fdb762af" x="424.716342" y="106.97693" style="fill: #de8f05; fill-opacity: 0.6; stroke: #de8f05; stroke-opacity: 0.6"/>
     <use xlink:href="#mf2fdb762af" x="181.859953" y="82.503074" style="fill: #de8f05; fill-opacity: 0.6; stroke: #de8f05; stroke-opacity: 0.6"/>
     <use xlink:href="#mf2fdb762af" x="449.657239" y="121.748669" style="fill: #de8f05; fill-opacity: 0.6; stroke: #de8f05; stroke-opacity: 0.6"/>
     <use xlink:href="#mf2fdb762af" x="156.346226" y="111.61755" style="fill: #de8f05; fill-opacity: 0.6; stroke: #de8f05; stroke-opacity: 0.6"/>
     <use xlink:href="#mf2fdb762af" x="87.632441" y="249.074477" style="fill: #de8f05; fill-opacity: 0.6; stroke: #de8f05; stroke-opacity: 0.6"/>
     <use xlink:href="#mf2fdb762af" x="288.889556" y="47.615166" style="fill: #de8f05; fill-opacity: 0.6; stroke: #de8f05; stroke-opacity: 0.6"/>
     <use xlink:href="#mf2fdb762af" x="355.606411" y="69.58916" style="fill: #de8f05; fill-opacity: 0.6; stroke: #de8f05; stroke-opacity: 0.6"/>
     <use xlink:href="#mf2fdb762af" x="577.146832" y="193.775456" style="fill: #de8f05; fill-opacity: 0.6; stroke: #de8f05; stroke-opacity: 0.6"/>
     <use xlink:href="#mf2fdb762af" x="371.323739" y="77.277344" style="fill: #de8f05; fill-opacity: 0.6; stroke: #de8f05; stroke-opacity: 0.6"/>
     <use xlink:href="#mf2fdb762af" x="231.443883" y="51.654851" style="fill: #de8f05; fill-opacity: 0.6; stroke: #de8f05; stroke-opacity: 0.6"/>
     <use xlink:href="#mf2fdb762af" x="348.718231" y="66.447811" style="fill: #de8f05; fill-opacity: 0.6; stroke: #de8f05; stroke-opacity: 0.6"/>
     <use xlink:href="#mf2fdb762af" x="293.33231" y="48.358632" style="fill: #de8f05; fill-opacity: 0.6; stroke: #de8f05; stroke-opacity: 0.6"/>
     <use xlink:href="#mf2fdb762af" x="296.375599" y="48.939719" style="fill: #de8f05; fill-opacity: 0.6; stroke: #de8f05; stroke-opacity: 0.6"/>
     <use xlink:href="#mf2fdb762af" x="429.715883" y="109.919258" style="fill: #de8f05; fill-opacity: 0.6; stroke: #de8f05; stroke-opacity: 0.6"/>
     <use xlink:href="#mf2fdb762af" x="298.368473" y="49.350934" style="fill: #de8f05; fill-opacity: 0.6; stroke: #de8f05; stroke-opacity: 0.6"/>
     <use xlink:href="#mf2fdb762af" x="459.615523" y="127.673296" style="fill: #de8f05; fill-opacity: 0.6; stroke: #de8f05; stroke-opacity: 0.6"/>
     <use xlink:href="#mf2fdb762af" x="520.301097" y="162.969728" style="fill: #de8f05; fill-opacity: 0.6; stroke: #de8f05; stroke-opacity: 0.6"/>
     <use xlink:href="#mf2fdb762af" x="321.676444" y="55.804261" style="fill: #de8f05; fill-opacity: 0.6; stroke: #de8f05; stroke-opacity: 0.6"/>
     <use xlink:href="#mf2fdb762af" x="339.903373" y="62.662632" style="fill: #de8f05; fill-opacity: 0.6; stroke: #de8f05; stroke-opacity: 0.6"/>
     <use xlink:href="#mf2fdb762af" x="422.223384" y="105.515399" style="fill: #de8f05; fill-opacity: 0.6; stroke: #de8f05; stroke-opacity: 0.6"/>
     <use xlink:href="#mf2fdb762af" x="106.175297" y="202.322936" style="fill: #de8f05; fill-opacity: 0.6; stroke: #de8f05; stroke-opacity: 0.6"/>
     <use xlink:href="#mf2fdb762af" x="290.094886" y="47.804325" style="fill: #de8f05; fill-opacity: 0.6; stroke: #de8f05; stroke-opacity: 0.6"/>
     <use xlink:href="#mf2fdb762af" x="71.524589" y="296.325367" style="fill: #de8f05; fill-opacity: 0.6; stroke: #de8f05; stroke-opacity: 0.6"/>
     <use xlink:href="#mf2fdb762af" x="69.874105" y="301.535466" style="fill: #de8f05; fill-opacity: 0.6; stroke: #de8f05; stroke-opacity: 0.6"/>
     <use xlink:href="#mf2fdb762af" x="165.902323" y="99.513683" style="fill: #de8f05; fill-opacity: 0.6; stroke: #de8f05; stroke-opacity: 0.6"/>
     <use xlink:href="#mf2fdb762af" x="474.45067" y="136.468018" style="fill: #de8f05; fill-opacity: 0.6; stroke: #de8f05; stroke-opacity: 0.6"/>
     <use xlink:href="#mf2fdb762af" x="310.407441" y="52.323835" style="fill: #de8f05; fill-opacity: 0.6; stroke: #de8f05; stroke-opacity: 0.6"/>
     <use xlink:href="#mf2fdb762af" x="230.027329" y="52.13429" style="fill: #de8f05; fill-opacity: 0.6; stroke: #de8f05; stroke-opacity: 0.6"/>
     <use xlink:href="#mf2fdb762af" x="495.533241" y="148.814569" style="fill: #de8f05; fill-opacity: 0.6; stroke: #de8f05; stroke-opacity: 0.6"/>
     <use xlink:href="#mf2fdb762af" x="235.25287" y="50.469059" style="fill: #de8f05; fill-opacity: 0.6; stroke: #de8f05; stroke-opacity: 0.6"/>
     <use xlink:href="#mf2fdb762af" x="158.654909" y="108.555833" style="fill: #de8f05; fill-opacity: 0.6; stroke: #de8f05; stroke-opacity: 0.6"/>
     <use xlink:href="#mf2fdb762af" x="157.700945" y="109.810171" style="fill: #de8f05; fill-opacity: 0.6; stroke: #de8f05; stroke-opacity: 0.6"/>
     <use xlink:href="#mf2fdb762af" x="138.977782" y="137.60483" style="fill: #de8f05; fill-opacity: 0.6; stroke: #de8f05; stroke-opacity: 0.6"/>
     <use xlink:href="#mf2fdb762af" x="110.976667" y="191.469555" style="fill: #de8f05; fill-opacity: 0.6; stroke: #de8f05; stroke-opacity: 0.6"/>
     <use xlink:href="#mf2fdb762af" x="409.375034" y="98.060433" style="fill: #de8f05; fill-opacity: 0.6; stroke: #de8f05; stroke-opacity: 0.6"/>
     <use xlink:href="#mf2fdb762af" x="558.47651" y="183.900434" style="fill: #de8f05; fill-opacity: 0.6; stroke: #de8f05; stroke-opacity: 0.6"/>
     <use xlink:href="#mf2fdb762af" x="123.422699" y="165.59724" style="fill: #de8f05; fill-opacity: 0.6; stroke: #de8f05; stroke-opacity: 0.6"/>
     <use xlink:href="#mf2fdb762af" x="145.325292" y="127.487979" style="fill: #de8f05; fill-opacity: 0.6; stroke: #de8f05; stroke-opacity: 0.6"/>
     <use xlink:href="#mf2fdb762af" x="440.577333" y="116.349974" style="fill: #de8f05; fill-opacity: 0.6; stroke: #de8f05; stroke-opacity: 0.6"/>
     <use xlink:href="#mf2fdb762af" x="532.060964" y="169.533478" style="fill: #de8f05; fill-opacity: 0.6; stroke: #de8f05; stroke-opacity: 0.6"/>
     <use xlink:href="#mf2fdb762af" x="525.918264" y="166.118054" style="fill: #de8f05; fill-opacity: 0.6; stroke: #de8f05; stroke-opacity: 0.6"/>
     <use xlink:href="#mf2fdb762af" x="325.983982" y="57.296077" style="fill: #de8f05; fill-opacity: 0.6; stroke: #de8f05; stroke-opacity: 0.6"/>
     <use xlink:href="#mf2fdb762af" x="330.441847" y="58.927141" style="fill: #de8f05; fill-opacity: 0.6; stroke: #de8f05; stroke-opacity: 0.6"/>
     <use xlink:href="#mf2fdb762af" x="493.215659" y="147.469048" style="fill: #de8f05; fill-opacity: 0.6; stroke: #de8f05; stroke-opacity: 0.6"/>
     <use xlink:href="#mf2fdb762af" x="416.516135" y="102.186295" style="fill: #de8f05; fill-opacity: 0.6; stroke: #de8f05; stroke-opacity: 0.6"/>
     <use xlink:href="#mf2fdb762af" x="461.763725" y="128.950085" style="fill: #de8f05; fill-opacity: 0.6; stroke: #de8f05; stroke-opacity: 0.6"/>
     <use xlink:href="#mf2fdb762af" x="290.980043" y="47.949231" style="fill: #de8f05; fill-opacity: 0.6; stroke: #de8f05; stroke-opacity: 0.6"/>
     <use xlink:href="#mf2fdb762af" x="210.05215" y="61.251466" style="fill: #de8f05; fill-opacity: 0.6; stroke: #de8f05; stroke-opacity: 0.6"/>
     <use xlink:href="#mf2fdb762af" x="490.724209" y="146.019019" style="fill: #de8f05; fill-opacity: 0.6; stroke: #de8f05; stroke-opacity: 0.6"/>
     <use xlink:href="#mf2fdb762af" x="246.993354" y="47.72402" style="fill: #de8f05; fill-opacity: 0.6; stroke: #de8f05; stroke-opacity: 0.6"/>
     <use xlink:href="#mf2fdb762af" x="498.301674" y="150.417494" style="fill: #de8f05; fill-opacity: 0.6; stroke: #de8f05; stroke-opacity: 0.6"/>
     <use xlink:href="#mf2fdb762af" x="441.218257" y="116.730605" style="fill: #de8f05; fill-opacity: 0.6; stroke: #de8f05; stroke-opacity: 0.6"/>
     <use xlink:href="#mf2fdb762af" x="189.927085" y="75.330212" style="fill: #de8f05; fill-opacity: 0.6; stroke: #de8f05; stroke-opacity: 0.6"/>
     <use xlink:href="#mf2fdb762af" x="226.332206" y="53.485142" style="fill: #de8f05; fill-opacity: 0.6; stroke: #de8f05; stroke-opacity: 0.6"/>
     <use xlink:href="#mf2fdb762af" x="277.819345" y="46.33617" style="fill: #de8f05; fill-opacity: 0.6; stroke: #de8f05; stroke-opacity: 0.6"/>
     <use xlink:href="#mf2fdb762af" x="378.637467" y="81.066379" style="fill: #de8f05; fill-opacity: 0.6; stroke: #de8f05; stroke-opacity: 0.6"/>
     <use xlink:href="#mf2fdb762af" x="510.793077" y="157.586925" style="fill: #de8f05; fill-opacity: 0.6; stroke: #de8f05; stroke-opacity: 0.6"/>
     <use xlink:href="#mf2fdb762af" x="205.373586" y="64.062215" style="fill: #de8f05; fill-opacity: 0.6; stroke: #de8f05; stroke-opacity: 0.6"/>
     <use xlink:href="#mf2fdb762af" x="138.218704" y="138.864024" style="fill: #de8f05; fill-opacity: 0.6; stroke: #de8f05; stroke-opacity: 0.6"/>
     <use xlink:href="#mf2fdb762af" x="524.396393" y="165.267432" style="fill: #de8f05; fill-opacity: 0.6; stroke: #de8f05; stroke-opacity: 0.6"/>
     <use xlink:href="#mf2fdb762af" x="404.590977" y="95.325943" style="fill: #de8f05; fill-opacity: 0.6; stroke: #de8f05; stroke-opacity: 0.6"/>
     <use xlink:href="#mf2fdb762af" x="534.155469" y="170.69148" style="fill: #de8f05; fill-opacity: 0.6; stroke: #de8f05; stroke-opacity: 0.6"/>
     <use xlink:href="#mf2fdb762af" x="186.378212" y="78.372464" style="fill: #de8f05; fill-opacity: 0.6; stroke: #de8f05; stroke-opacity: 0.6"/>
     <use xlink:href="#mf2fdb762af" x="179.978123" y="84.310226" style="fill: #de8f05; fill-opacity: 0.6; stroke: #de8f05; stroke-opacity: 0.6"/>
     <use xlink:href="#mf2fdb762af" x="478.299455" y="138.738014" style="fill: #de8f05; fill-opacity: 0.6; stroke: #de8f05; stroke-opacity: 0.6"/>
     <use xlink:href="#mf2fdb762af" x="96.068535" y="226.829348" style="fill: #de8f05; fill-opacity: 0.6; stroke: #de8f05; stroke-opacity: 0.6"/>
     <use xlink:href="#mf2fdb762af" x="280.09068" y="46.529123" style="fill: #de8f05; fill-opacity: 0.6; stroke: #de8f05; stroke-opacity: 0.6"/>
     <use xlink:href="#mf2fdb762af" x="191.312725" y="74.189727" style="fill: #de8f05; fill-opacity: 0.6; stroke: #de8f05; stroke-opacity: 0.6"/>
    </g>
   </g>
   <g id="line2d_15">
    <path d="M 71.14866 324.72 
L 72.423214 317.132748 
L 77.521433 302.321613 
L 82.619651 287.994972 
L 87.717869 274.152825 
L 92.816088 260.795171 
L 97.914306 247.922011 
L 103.012524 235.533344 
L 108.110743 223.629171 
L 113.208961 212.209491 
L 118.30718 201.274305 
L 123.405398 190.823612 
L 128.503616 180.857413 
L 133.601835 171.375708 
L 138.700053 162.378496 
L 143.798271 154.105438 
L 148.89649 146.34276 
L 153.994708 139.001038 
L 159.092926 132.129369 
L 164.191145 125.634546 
L 169.289363 119.605031 
L 174.387582 113.993505 
L 179.4858 108.805168 
L 184.584018 103.936178 
L 189.682237 99.439911 
L 194.780455 95.282142 
L 199.878673 91.514932 
L 204.976892 88.144753 
L 210.07511 85.094528 
L 215.173329 82.36071 
L 220.271547 79.986241 
L 225.369765 77.863633 
L 230.467984 76.033435 
L 235.566202 74.44993 
L 240.66442 73.162282 
L 245.762639 72.211678 
L 250.860857 71.508093 
L 255.959075 70.980133 
L 258.508185 70.792504 
L 268.704621 70.645883 
L 276.351949 70.926494 
L 281.450167 71.261226 
L 286.548386 71.802226 
L 291.646604 72.530665 
L 299.293932 73.881311 
L 304.39215 74.937701 
L 312.039477 76.744297 
L 317.137696 78.11792 
L 322.235914 79.688545 
L 327.334133 81.434622 
L 334.98146 84.339758 
L 342.628788 87.40814 
L 352.825224 91.960735 
L 363.021661 96.742968 
L 373.218098 101.775339 
L 380.865425 105.790176 
L 391.061862 111.362142 
L 408.905626 121.674054 
L 421.651172 129.283315 
L 449.691373 146.0347 
L 470.084247 158.360282 
L 493.026229 171.709021 
L 523.61554 189.310067 
L 554.20485 207.35223 
L 577.146832 221.053818 
L 577.146832 221.053818 
" clip-path="url(#p684228867b)" style="fill: none; stroke: #de8f05; stroke-opacity: 0; stroke-width: 1.5; stroke-linecap: round"/>
   </g>
   <g id="line2d_16">
    <path d="M 71.14866 273.659606 
L 72.423214 266.203734 
L 77.521433 251.646513 
L 82.619651 237.561992 
L 87.717869 223.95017 
L 92.816088 210.811048 
L 97.914306 198.144625 
L 103.012524 185.950902 
L 108.110743 174.229878 
L 113.208961 162.981553 
L 118.30718 152.205928 
L 123.405398 141.903002 
L 128.503616 132.072775 
L 133.601835 122.715248 
L 138.700053 113.830421 
L 143.798271 105.534147 
L 148.89649 97.791236 
L 153.994708 90.515108 
L 161.642036 80.344105 
L 166.740254 74.082507 
L 171.838472 68.253584 
L 176.936691 62.884262 
L 182.034909 57.906322 
L 187.133127 53.317531 
L 192.231346 49.060213 
L 197.329564 45.115367 
L 202.427783 41.560684 
L 207.526001 38.363446 
L 210.07511 36.868045 
L 215.173329 34.251506 
L 220.271547 31.944847 
L 225.369765 29.879163 
L 230.467984 28.087744 
L 235.566202 26.524778 
L 240.66442 25.187375 
L 245.762639 24.138263 
L 250.860857 23.298148 
L 255.959075 22.746841 
L 261.057294 22.446775 
L 266.155512 22.32 
L 271.253731 22.391641 
L 276.351949 22.672057 
L 283.999276 23.367458 
L 291.646604 24.387756 
L 299.293932 25.645339 
L 304.39215 26.73171 
L 314.588587 29.173662 
L 319.686805 30.65397 
L 324.785023 32.341943 
L 329.883242 34.207804 
L 340.079678 38.266017 
L 345.177897 40.494093 
L 370.668989 52.457131 
L 380.865425 57.783286 
L 391.061862 63.350191 
L 403.807408 70.628456 
L 419.102063 79.548317 
L 426.749391 84.041349 
L 439.494937 91.520383 
L 454.789592 100.710355 
L 467.535138 108.371485 
L 503.222666 129.479408 
L 513.419103 135.1622 
L 526.164649 141.941661 
L 538.910195 148.480809 
L 551.655741 154.779645 
L 564.401286 160.838169 
L 577.146832 166.656381 
L 577.146832 166.656381 
" clip-path="url(#p684228867b)" style="fill: none; stroke: #de8f05; stroke-opacity: 0; stroke-width: 1.5; stroke-linecap: round"/>
   </g>
   <g id="patch_3">
    <path d="M 44.510469 339.84 
L 44.510469 7.2 
" style="fill: none; stroke: #ffffff; stroke-width: 1.25; stroke-linejoin: miter; stroke-linecap: square"/>
   </g>
   <g id="patch_4">
    <path d="M 602.510469 339.84 
L 602.510469 7.2 
" style="fill: none; stroke: #ffffff; stroke-width: 1.25; stroke-linejoin: miter; stroke-linecap: square"/>
   </g>
   <g id="patch_5">
    <path d="M 44.510469 339.84 
L 602.510469 339.84 
" style="fill: none; stroke: #ffffff; stroke-width: 1.25; stroke-linejoin: miter; stroke-linecap: square"/>
   </g>
   <g id="patch_6">
    <path d="M 44.510469 7.2 
L 602.510469 7.2 
" style="fill: none; stroke: #ffffff; stroke-width: 1.25; stroke-linejoin: miter; stroke-linecap: square"/>
   </g>
  </g>
 </g>
 <defs>
  <clipPath id="p684228867b">
   <rect x="44.510469" y="7.2" width="558" height="332.64"/>
  </clipPath>
 </defs>
</svg>