<?xml version="1.0" encoding="utf-8" standalone="no"?>
<!DOCTYPE svg PUBLIC "-//W3C//DTD SVG 1.1//EN"
  "http://www.w3.org/Graphics/SVG/1.1/DTD/svg11.dtd">
<svg xmlns:xlink="http://www.w3.org/1999/xlink" width="603.307031pt" height="366.599844pt" viewBox="0 0 603.307031 366.599844" xmlns="http://www.w3.org/2000/svg" version="1.1">
 <metadata>
  <rdf:RDF xmlns:dc="http://purl.org/dc/elements/1.1/" xmlns:cc="http://creativecommons.org/ns#" xmlns:rdf="http://www.w3.org/1999/02/22-rdf-syntax-ns#">
   <cc:Work>
    <dc:type rdf:resource="http://purl.org/dc/dcmitype/StillImage"/>
    <dc:date>2023-05-08T00:42:24.780850</dc:date>
    <dc:format>image/svg+xml</dc:format>
    <dc:creator>
     <cc:Agent>
      <dc:title>Matplotlib v3.7.1, https://matplotlib.org/</dc:title>
     </cc:Agent>
    </dc:creator>
   </cc:Work>
  </rdf:RDF>
 </metadata>
 <defs>
  <style type="text/css">*{stroke-linejoin: round; stroke-linecap: butt}</style>
 </defs>
 <g id="figure_1">
  <g id="patch_1">
   <path d="M 0 366.599844 
L 603.307031 366.599844 
L 603.307031 0 
L 0 0 
z
" style="fill: #ffffff"/>
  </g>
  <g id="axes_1">
   <g id="patch_2">
    <path d="M 38.107031 339.84 
L 596.107031 339.84 
L 596.107031 7.2 
L 38.107031 7.2 
z
" style="fill: #eaeaf2"/>
   </g>
   <g id="matplotlib.axis_1">
    <g id="xtick_1">
     <g id="line2d_1">
      <path d="M 63.470668 339.84 
L 63.470668 7.2 
" clip-path="url(#p51a66f9038)" style="fill: none; stroke: #ffffff; stroke-linecap: round"/>
     </g>
     <g id="text_1">
      <!-- 0.0 -->
      <g style="fill: #262626" transform="translate(55.825668 357.213594) scale(0.11 -0.11)">
       <defs>
        <path id="ArialMT-30" d="M 266 2259 
Q 266 3072 433 3567 
Q 600 4063 929 4331 
Q 1259 4600 1759 4600 
Q 2128 4600 2406 4451 
Q 2684 4303 2865 4023 
Q 3047 3744 3150 3342 
Q 3253 2941 3253 2259 
Q 3253 1453 3087 958 
Q 2922 463 2592 192 
Q 2263 -78 1759 -78 
Q 1097 -78 719 397 
Q 266 969 266 2259 
z
M 844 2259 
Q 844 1131 1108 757 
Q 1372 384 1759 384 
Q 2147 384 2411 759 
Q 2675 1134 2675 2259 
Q 2675 3391 2411 3762 
Q 2147 4134 1753 4134 
Q 1366 4134 1134 3806 
Q 844 3388 844 2259 
z
" transform="scale(0.015625)"/>
        <path id="ArialMT-2e" d="M 581 0 
L 581 641 
L 1222 641 
L 1222 0 
L 581 0 
z
" transform="scale(0.015625)"/>
       </defs>
       <use xlink:href="#ArialMT-30"/>
       <use xlink:href="#ArialMT-2e" x="55.615234"/>
       <use xlink:href="#ArialMT-30" x="83.398438"/>
      </g>
     </g>
    </g>
    <g id="xtick_2">
     <g id="line2d_2">
      <path d="M 126.911479 339.84 
L 126.911479 7.2 
" clip-path="url(#p51a66f9038)" style="fill: none; stroke: #ffffff; stroke-linecap: round"/>
     </g>
     <g id="text_2">
      <!-- 2.5 -->
      <g style="fill: #262626" transform="translate(119.266479 357.213594) scale(0.11 -0.11)">
       <defs>
        <path id="ArialMT-32" d="M 3222 541 
L 3222 0 
L 194 0 
Q 188 203 259 391 
Q 375 700 629 1000 
Q 884 1300 1366 1694 
Q 2113 2306 2375 2664 
Q 2638 3022 2638 3341 
Q 2638 3675 2398 3904 
Q 2159 4134 1775 4134 
Q 1369 4134 1125 3890 
Q 881 3647 878 3216 
L 300 3275 
Q 359 3922 746 4261 
Q 1134 4600 1788 4600 
Q 2447 4600 2831 4234 
Q 3216 3869 3216 3328 
Q 3216 3053 3103 2787 
Q 2991 2522 2730 2228 
Q 2469 1934 1863 1422 
Q 1356 997 1212 845 
Q 1069 694 975 541 
L 3222 541 
z
" transform="scale(0.015625)"/>
        <path id="ArialMT-35" d="M 266 1200 
L 856 1250 
Q 922 819 1161 601 
Q 1400 384 1738 384 
Q 2144 384 2425 690 
Q 2706 997 2706 1503 
Q 2706 1984 2436 2262 
Q 2166 2541 1728 2541 
Q 1456 2541 1237 2417 
Q 1019 2294 894 2097 
L 366 2166 
L 809 4519 
L 3088 4519 
L 3088 3981 
L 1259 3981 
L 1013 2750 
Q 1425 3038 1878 3038 
Q 2478 3038 2890 2622 
Q 3303 2206 3303 1553 
Q 3303 931 2941 478 
Q 2500 -78 1738 -78 
Q 1113 -78 717 272 
Q 322 622 266 1200 
z
" transform="scale(0.015625)"/>
       </defs>
       <use xlink:href="#ArialMT-32"/>
       <use xlink:href="#ArialMT-2e" x="55.615234"/>
       <use xlink:href="#ArialMT-35" x="83.398438"/>
      </g>
     </g>
    </g>
    <g id="xtick_3">
     <g id="line2d_3">
      <path d="M 190.35229 339.84 
L 190.35229 7.2 
" clip-path="url(#p51a66f9038)" style="fill: none; stroke: #ffffff; stroke-linecap: round"/>
     </g>
     <g id="text_3">
      <!-- 5.0 -->
      <g style="fill: #262626" transform="translate(182.70729 357.213594) scale(0.11 -0.11)">
       <use xlink:href="#ArialMT-35"/>
       <use xlink:href="#ArialMT-2e" x="55.615234"/>
       <use xlink:href="#ArialMT-30" x="83.398438"/>
      </g>
     </g>
    </g>
    <g id="xtick_4">
     <g id="line2d_4">
      <path d="M 253.793102 339.84 
L 253.793102 7.2 
" clip-path="url(#p51a66f9038)" style="fill: none; stroke: #ffffff; stroke-linecap: round"/>
     </g>
     <g id="text_4">
      <!-- 7.5 -->
      <g style="fill: #262626" transform="translate(246.148102 357.213594) scale(0.11 -0.11)">
       <defs>
        <path id="ArialMT-37" d="M 303 3981 
L 303 4522 
L 3269 4522 
L 3269 4084 
Q 2831 3619 2401 2847 
Q 1972 2075 1738 1259 
Q 1569 684 1522 0 
L 944 0 
Q 953 541 1156 1306 
Q 1359 2072 1739 2783 
Q 2119 3494 2547 3981 
L 303 3981 
z
" transform="scale(0.015625)"/>
       </defs>
       <use xlink:href="#ArialMT-37"/>
       <use xlink:href="#ArialMT-2e" x="55.615234"/>
       <use xlink:href="#ArialMT-35" x="83.398438"/>
      </g>
     </g>
    </g>
    <g id="xtick_5">
     <g id="line2d_5">
      <path d="M 317.233913 339.84 
L 317.233913 7.2 
" clip-path="url(#p51a66f9038)" style="fill: none; stroke: #ffffff; stroke-linecap: round"/>
     </g>
     <g id="text_5">
      <!-- 10.0 -->
      <g style="fill: #262626" transform="translate(306.530397 357.213594) scale(0.11 -0.11)">
       <defs>
        <path id="ArialMT-31" d="M 2384 0 
L 1822 0 
L 1822 3584 
Q 1619 3391 1289 3197 
Q 959 3003 697 2906 
L 697 3450 
Q 1169 3672 1522 3987 
Q 1875 4303 2022 4600 
L 2384 4600 
L 2384 0 
z
" transform="scale(0.015625)"/>
       </defs>
       <use xlink:href="#ArialMT-31"/>
       <use xlink:href="#ArialMT-30" x="55.615234"/>
       <use xlink:href="#ArialMT-2e" x="111.230469"/>
       <use xlink:href="#ArialMT-30" x="139.013672"/>
      </g>
     </g>
    </g>
    <g id="xtick_6">
     <g id="line2d_6">
      <path d="M 380.674724 339.84 
L 380.674724 7.2 
" clip-path="url(#p51a66f9038)" style="fill: none; stroke: #ffffff; stroke-linecap: round"/>
     </g>
     <g id="text_6">
      <!-- 12.5 -->
      <g style="fill: #262626" transform="translate(369.971209 357.213594) scale(0.11 -0.11)">
       <use xlink:href="#ArialMT-31"/>
       <use xlink:href="#ArialMT-32" x="55.615234"/>
       <use xlink:href="#ArialMT-2e" x="111.230469"/>
       <use xlink:href="#ArialMT-35" x="139.013672"/>
      </g>
     </g>
    </g>
    <g id="xtick_7">
     <g id="line2d_7">
      <path d="M 444.115536 339.84 
L 444.115536 7.2 
" clip-path="url(#p51a66f9038)" style="fill: none; stroke: #ffffff; stroke-linecap: round"/>
     </g>
     <g id="text_7">
      <!-- 15.0 -->
      <g style="fill: #262626" transform="translate(433.41202 357.213594) scale(0.11 -0.11)">
       <use xlink:href="#ArialMT-31"/>
       <use xlink:href="#ArialMT-35" x="55.615234"/>
       <use xlink:href="#ArialMT-2e" x="111.230469"/>
       <use xlink:href="#ArialMT-30" x="139.013672"/>
      </g>
     </g>
    </g>
    <g id="xtick_8">
     <g id="line2d_8">
      <path d="M 507.556347 339.84 
L 507.556347 7.2 
" clip-path="url(#p51a66f9038)" style="fill: none; stroke: #ffffff; stroke-linecap: round"/>
     </g>
     <g id="text_8">
      <!-- 17.5 -->
      <g style="fill: #262626" transform="translate(496.852831 357.213594) scale(0.11 -0.11)">
       <use xlink:href="#ArialMT-31"/>
       <use xlink:href="#ArialMT-37" x="55.615234"/>
       <use xlink:href="#ArialMT-2e" x="111.230469"/>
       <use xlink:href="#ArialMT-35" x="139.013672"/>
      </g>
     </g>
    </g>
    <g id="xtick_9">
     <g id="line2d_9">
      <path d="M 570.997158 339.84 
L 570.997158 7.2 
" clip-path="url(#p51a66f9038)" style="fill: none; stroke: #ffffff; stroke-linecap: round"/>
     </g>
     <g id="text_9">
      <!-- 20.0 -->
      <g style="fill: #262626" transform="translate(560.293643 357.213594) scale(0.11 -0.11)">
       <use xlink:href="#ArialMT-32"/>
       <use xlink:href="#ArialMT-30" x="55.615234"/>
       <use xlink:href="#ArialMT-2e" x="111.230469"/>
       <use xlink:href="#ArialMT-30" x="139.013672"/>
      </g>
     </g>
    </g>
   </g>
   <g id="matplotlib.axis_2">
    <g id="ytick_1">
     <g id="line2d_10">
      <path d="M 38.107031 324.72 
L 596.107031 324.72 
" clip-path="url(#p51a66f9038)" style="fill: none; stroke: #ffffff; stroke-linecap: round"/>
     </g>
     <g id="text_10">
      <!-- 0.00 -->
      <g style="fill: #262626" transform="translate(7.2 328.656797) scale(0.11 -0.11)">
       <use xlink:href="#ArialMT-30"/>
       <use xlink:href="#ArialMT-2e" x="55.615234"/>
       <use xlink:href="#ArialMT-30" x="83.398438"/>
       <use xlink:href="#ArialMT-30" x="139.013672"/>
      </g>
     </g>
    </g>
    <g id="ytick_2">
     <g id="line2d_11">
      <path d="M 38.107031 264.24 
L 596.107031 264.24 
" clip-path="url(#p51a66f9038)" style="fill: none; stroke: #ffffff; stroke-linecap: round"/>
     </g>
     <g id="text_11">
      <!-- 0.05 -->
      <g style="fill: #262626" transform="translate(7.2 268.176797) scale(0.11 -0.11)">
       <use xlink:href="#ArialMT-30"/>
       <use xlink:href="#ArialMT-2e" x="55.615234"/>
       <use xlink:href="#ArialMT-30" x="83.398438"/>
       <use xlink:href="#ArialMT-35" x="139.013672"/>
      </g>
     </g>
    </g>
    <g id="ytick_3">
     <g id="line2d_12">
      <path d="M 38.107031 203.76 
L 596.107031 203.76 
" clip-path="url(#p51a66f9038)" style="fill: none; stroke: #ffffff; stroke-linecap: round"/>
     </g>
     <g id="text_12">
      <!-- 0.10 -->
      <g style="fill: #262626" transform="translate(7.2 207.696797) scale(0.11 -0.11)">
       <use xlink:href="#ArialMT-30"/>
       <use xlink:href="#ArialMT-2e" x="55.615234"/>
       <use xlink:href="#ArialMT-31" x="83.398438"/>
       <use xlink:href="#ArialMT-30" x="139.013672"/>
      </g>
     </g>
    </g>
    <g id="ytick_4">
     <g id="line2d_13">
      <path d="M 38.107031 143.28 
L 596.107031 143.28 
" clip-path="url(#p51a66f9038)" style="fill: none; stroke: #ffffff; stroke-linecap: round"/>
     </g>
     <g id="text_13">
      <!-- 0.15 -->
      <g style="fill: #262626" transform="translate(7.2 147.216797) scale(0.11 -0.11)">
       <use xlink:href="#ArialMT-30"/>
       <use xlink:href="#ArialMT-2e" x="55.615234"/>
       <use xlink:href="#ArialMT-31" x="83.398438"/>
       <use xlink:href="#ArialMT-35" x="139.013672"/>
      </g>
     </g>
    </g>
    <g id="ytick_5">
     <g id="line2d_14">
      <path d="M 38.107031 82.8 
L 596.107031 82.8 
" clip-path="url(#p51a66f9038)" style="fill: none; stroke: #ffffff; stroke-linecap: round"/>
     </g>
     <g id="text_14">
      <!-- 0.20 -->
      <g style="fill: #262626" transform="translate(7.2 86.736797) scale(0.11 -0.11)">
       <use xlink:href="#ArialMT-30"/>
       <use xlink:href="#ArialMT-2e" x="55.615234"/>
       <use xlink:href="#ArialMT-32" x="83.398438"/>
       <use xlink:href="#ArialMT-30" x="139.013672"/>
      </g>
     </g>
    </g>
    <g id="ytick_6">
     <g id="line2d_15">
      <path d="M 38.107031 22.32 
L 596.107031 22.32 
" clip-path="url(#p51a66f9038)" style="fill: none; stroke: #ffffff; stroke-linecap: round"/>
     </g>
     <g id="text_15">
      <!-- 0.25 -->
      <g style="fill: #262626" transform="translate(7.2 26.256797) scale(0.11 -0.11)">
       <use xlink:href="#ArialMT-30"/>
       <use xlink:href="#ArialMT-2e" x="55.615234"/>
       <use xlink:href="#ArialMT-32" x="83.398438"/>
       <use xlink:href="#ArialMT-35" x="139.013672"/>
      </g>
     </g>
    </g>
   </g>
   <g id="PolyCollection_1">
    <defs>
     <path id="mc7f617c39c" d="M 203.040453 -41.879844 
L 203.040453 -118.338538 
L 203.294216 -118.14763 
L 203.547979 -117.957198 
L 203.801742 -117.767242 
L 204.055505 -117.577761 
L 204.309269 -117.388752 
L 204.563032 -117.200216 
L 204.816795 -117.01215 
L 205.070558 -116.824554 
L 205.324322 -116.637426 
L 205.578085 -116.450766 
L 205.831848 -116.264571 
L 206.085611 -116.078842 
L 206.339375 -115.893576 
L 206.593138 -115.708773 
L 206.846901 -115.524431 
L 207.100664 -115.340549 
L 207.354428 -115.157127 
L 207.608191 -114.974162 
L 207.861954 -114.791655 
L 208.115717 -114.609603 
L 208.369481 -114.428006 
L 208.623244 -114.246862 
L 208.877007 -114.06617 
L 209.13077 -113.88593 
L 209.384534 -113.706139 
L 209.638297 -113.526798 
L 209.89206 -113.347904 
L 210.145823 -113.169457 
L 210.399587 -112.991456 
L 210.65335 -112.813899 
L 210.907113 -112.636785 
L 211.160876 -112.460114 
L 211.41464 -112.283883 
L 211.668403 -112.108093 
L 211.922166 -111.932742 
L 212.175929 -111.757828 
L 212.429693 -111.583352 
L 212.683456 -111.40931 
L 212.937219 -111.235704 
L 213.190982 -111.062531 
L 213.444746 -110.88979 
L 213.698509 -110.717481 
L 213.952272 -110.545602 
L 214.206035 -110.374152 
L 214.459799 -110.20313 
L 214.713562 -110.032535 
L 214.967325 -109.862366 
L 215.221088 -109.692622 
L 215.474852 -109.523302 
L 215.728615 -109.354404 
L 215.982378 -109.185928 
L 216.236141 -109.017873 
L 216.489905 -108.850238 
L 216.743668 -108.683021 
L 216.997431 -108.516222 
L 217.251194 -108.349839 
L 217.504957 -108.183871 
L 217.758721 -108.018318 
L 218.012484 -107.853179 
L 218.266247 -107.688451 
L 218.52001 -107.524135 
L 218.773774 -107.36023 
L 219.027537 -107.196733 
L 219.2813 -107.033645 
L 219.535063 -106.870964 
L 219.788827 -106.708689 
L 220.04259 -106.546819 
L 220.296353 -106.385354 
L 220.550116 -106.224291 
L 220.80388 -106.063631 
L 221.057643 -105.903372 
L 221.311406 -105.743513 
L 221.565169 -105.584053 
L 221.818933 -105.424992 
L 222.072696 -105.266327 
L 222.326459 -105.108059 
L 222.580222 -104.950186 
L 222.833986 -104.792707 
L 223.087749 -104.635621 
L 223.341512 -104.478928 
L 223.595275 -104.322625 
L 223.849039 -104.166713 
L 224.102802 -104.011191 
L 224.356565 -103.856056 
L 224.610328 -103.701309 
L 224.864092 -103.546949 
L 225.117855 -103.392974 
L 225.371618 -103.239383 
L 225.625381 -103.086176 
L 225.879145 -102.933351 
L 226.132908 -102.780908 
L 226.386671 -102.628845 
L 226.640434 -102.477162 
L 226.894198 -102.325858 
L 227.147961 -102.174932 
L 227.401724 -102.024382 
L 227.655487 -101.874209 
L 227.909251 -101.72441 
L 228.163014 -101.574986 
L 228.416777 -101.425934 
L 228.67054 -101.277255 
L 228.924304 -101.128947 
L 229.178067 -100.981009 
L 229.43183 -100.833441 
L 229.685593 -100.686241 
L 229.939357 -100.539409 
L 230.19312 -100.392943 
L 230.446883 -100.246843 
L 230.700646 -100.101107 
L 230.954409 -99.955736 
L 231.208173 -99.810728 
L 231.461936 -99.666081 
L 231.715699 -99.521796 
L 231.969462 -99.377871 
L 232.223226 -99.234306 
L 232.476989 -99.091099 
L 232.730752 -98.948249 
L 232.984515 -98.805756 
L 233.238279 -98.663619 
L 233.492042 -98.521837 
L 233.745805 -98.380409 
L 233.999568 -98.239334 
L 234.253332 -98.098611 
L 234.507095 -97.95824 
L 234.760858 -97.818219 
L 235.014621 -97.678548 
L 235.268385 -97.539225 
L 235.522148 -97.400251 
L 235.775911 -97.261623 
L 236.029674 -97.123341 
L 236.283438 -96.985405 
L 236.537201 -96.847813 
L 236.790964 -96.710565 
L 237.044727 -96.573659 
L 237.298491 -96.437096 
L 237.552254 -96.300873 
L 237.806017 -96.16499 
L 238.05978 -96.029447 
L 238.313544 -95.894242 
L 238.567307 -95.759375 
L 238.82107 -95.624844 
L 239.074833 -95.490649 
L 239.328597 -95.35679 
L 239.58236 -95.223264 
L 239.836123 -95.090072 
L 240.089886 -94.957213 
L 240.34365 -94.824685 
L 240.597413 -94.692488 
L 240.851176 -94.560622 
L 241.104939 -94.429084 
L 241.358703 -94.297875 
L 241.612466 -94.166994 
L 241.866229 -94.036439 
L 242.119992 -93.906211 
L 242.373756 -93.776307 
L 242.627519 -93.646728 
L 242.881282 -93.517472 
L 243.135045 -93.38854 
L 243.388809 -93.259929 
L 243.642572 -93.131639 
L 243.896335 -93.003669 
L 244.150098 -92.876019 
L 244.403861 -92.748688 
L 244.657625 -92.621675 
L 244.911388 -92.494979 
L 245.165151 -92.368599 
L 245.418914 -92.242535 
L 245.672678 -92.116785 
L 245.926441 -91.99135 
L 246.180204 -91.866228 
L 246.433967 -91.741418 
L 246.687731 -91.616919 
L 246.941494 -91.492732 
L 247.195257 -91.368855 
L 247.44902 -91.245287 
L 247.702784 -91.122027 
L 247.956547 -90.999076 
L 248.21031 -90.876431 
L 248.464073 -90.754092 
L 248.717837 -90.632059 
L 248.9716 -90.510331 
L 249.225363 -90.388907 
L 249.479126 -90.267785 
L 249.73289 -90.146967 
L 249.986653 -90.02645 
L 250.240416 -89.906233 
L 250.494179 -89.786317 
L 250.747943 -89.666701 
L 251.001706 -89.547383 
L 251.255469 -89.428363 
L 251.509232 -89.30964 
L 251.762996 -89.191214 
L 252.016759 -89.073083 
L 252.270522 -88.955247 
L 252.524285 -88.837706 
L 252.778049 -88.720458 
L 253.031812 -88.603502 
L 253.285575 -88.486839 
L 253.539338 -88.370467 
L 253.793102 -88.254386 
L 254.046865 -88.138594 
L 254.300628 -88.023092 
L 254.554391 -87.907878 
L 254.808155 -87.792951 
L 255.061918 -87.678312 
L 255.315681 -87.563959 
L 255.569444 -87.449891 
L 255.823208 -87.336108 
L 256.076971 -87.22261 
L 256.330734 -87.109394 
L 256.584497 -86.996462 
L 256.838261 -86.883811 
L 257.092024 -86.771441 
L 257.345787 -86.659353 
L 257.59955 -86.547544 
L 257.853313 -86.436014 
L 258.107077 -86.324763 
L 258.36084 -86.213789 
L 258.614603 -86.103093 
L 258.868366 -85.992673 
L 259.12213 -85.882528 
L 259.375893 -85.772659 
L 259.629656 -85.663064 
L 259.883419 -85.553743 
L 260.137183 -85.444694 
L 260.390946 -85.335918 
L 260.644709 -85.227414 
L 260.898472 -85.11918 
L 261.152236 -85.011217 
L 261.405999 -84.903523 
L 261.659762 -84.796098 
L 261.913525 -84.688942 
L 262.167289 -84.582052 
L 262.421052 -84.47543 
L 262.674815 -84.369074 
L 262.928578 -84.262984 
L 263.182342 -84.157158 
L 263.436105 -84.051597 
L 263.689868 -83.946299 
L 263.943631 -83.841265 
L 264.197395 -83.736492 
L 264.451158 -83.631981 
L 264.704921 -83.527731 
L 264.958684 -83.423741 
L 265.212448 -83.320011 
L 265.466211 -83.21654 
L 265.719974 -83.113328 
L 265.973737 -83.010373 
L 266.227501 -82.907675 
L 266.481264 -82.805233 
L 266.735027 -82.703048 
L 266.98879 -82.601117 
L 267.242554 -82.499441 
L 267.496317 -82.398019 
L 267.75008 -82.29685 
L 268.003843 -82.195934 
L 268.257607 -82.095269 
L 268.51137 -81.994856 
L 268.765133 -81.894694 
L 269.018896 -81.794782 
L 269.27266 -81.695119 
L 269.526423 -81.595705 
L 269.780186 -81.49654 
L 270.033949 -81.397622 
L 270.287712 -81.298951 
L 270.541476 -81.200526 
L 270.795239 -81.102347 
L 271.049002 -81.004413 
L 271.302765 -80.906724 
L 271.556529 -80.809279 
L 271.810292 -80.712077 
L 272.064055 -80.615117 
L 272.317818 -80.5184 
L 272.571582 -80.421924 
L 272.825345 -80.325689 
L 273.079108 -80.229695 
L 273.332871 -80.13394 
L 273.586635 -80.038424 
L 273.840398 -79.943147 
L 274.094161 -79.848107 
L 274.347924 -79.753305 
L 274.601688 -79.65874 
L 274.855451 -79.564411 
L 275.109214 -79.470317 
L 275.362977 -79.376458 
L 275.616741 -79.282834 
L 275.870504 -79.189443 
L 276.124267 -79.096285 
L 276.37803 -79.003361 
L 276.631794 -78.910668 
L 276.885557 -78.818206 
L 277.13932 -78.725976 
L 277.393083 -78.633975 
L 277.646847 -78.542205 
L 277.90061 -78.450663 
L 278.154373 -78.359351 
L 278.408136 -78.268266 
L 278.6619 -78.177408 
L 278.915663 -78.086778 
L 279.169426 -77.996373 
L 279.423189 -77.906195 
L 279.676953 -77.816241 
L 279.930716 -77.726513 
L 280.184479 -77.637008 
L 280.438242 -77.547727 
L 280.692006 -77.458668 
L 280.945769 -77.369832 
L 281.199532 -77.281218 
L 281.453295 -77.192825 
L 281.707059 -77.104653 
L 281.960822 -77.016701 
L 282.214585 -76.928969 
L 282.468348 -76.841455 
L 282.722112 -76.75416 
L 282.975875 -76.667083 
L 283.229638 -76.580224 
L 283.483401 -76.493581 
L 283.737164 -76.407155 
L 283.990928 -76.320945 
L 284.244691 -76.234949 
L 284.498454 -76.149169 
L 284.752217 -76.063603 
L 285.005981 -75.97825 
L 285.259744 -75.89311 
L 285.513507 -75.808183 
L 285.76727 -75.723469 
L 286.021034 -75.638965 
L 286.274797 -75.554673 
L 286.52856 -75.470591 
L 286.782323 -75.386719 
L 287.036087 -75.303056 
L 287.28985 -75.219603 
L 287.543613 -75.136357 
L 287.797376 -75.05332 
L 288.05114 -74.97049 
L 288.304903 -74.887866 
L 288.558666 -74.805449 
L 288.812429 -74.723238 
L 289.066193 -74.641232 
L 289.319956 -74.559431 
L 289.573719 -74.477834 
L 289.827482 -74.396441 
L 290.081246 -74.315251 
L 290.335009 -74.234264 
L 290.588772 -74.153479 
L 290.842535 -74.072895 
L 291.096299 -73.992513 
L 291.350062 -73.912332 
L 291.603825 -73.832351 
L 291.857588 -73.752569 
L 292.111352 -73.672987 
L 292.365115 -73.593603 
L 292.618878 -73.514418 
L 292.872641 -73.43543 
L 293.126405 -73.35664 
L 293.380168 -73.278046 
L 293.633931 -73.199649 
L 293.887694 -73.121447 
L 294.141458 -73.043441 
L 294.395221 -72.965629 
L 294.648984 -72.888011 
L 294.902747 -72.810588 
L 295.156511 -72.733358 
L 295.410274 -72.65632 
L 295.664037 -72.579475 
L 295.9178 -72.502822 
L 296.171564 -72.42636 
L 296.425327 -72.350089 
L 296.67909 -72.274009 
L 296.932853 -72.198118 
L 297.186616 -72.122417 
L 297.44038 -72.046905 
L 297.694143 -71.971582 
L 297.947906 -71.896446 
L 298.201669 -71.821498 
L 298.455433 -71.746738 
L 298.709196 -71.672164 
L 298.962959 -71.597776 
L 299.216722 -71.523574 
L 299.470486 -71.449557 
L 299.724249 -71.375725 
L 299.978012 -71.302078 
L 300.231775 -71.228614 
L 300.485539 -71.155334 
L 300.739302 -71.082236 
L 300.993065 -71.009322 
L 301.246828 -70.936589 
L 301.500592 -70.864038 
L 301.754355 -70.791668 
L 302.008118 -70.719478 
L 302.261881 -70.647469 
L 302.515645 -70.57564 
L 302.769408 -70.50399 
L 303.023171 -70.432519 
L 303.276934 -70.361227 
L 303.530698 -70.290112 
L 303.784461 -70.219175 
L 304.038224 -70.148415 
L 304.291987 -70.077832 
L 304.545751 -70.007425 
L 304.799514 -69.937194 
L 305.053277 -69.867138 
L 305.30704 -69.797258 
L 305.560804 -69.727551 
L 305.814567 -69.658019 
L 306.06833 -69.58866 
L 306.322093 -69.519475 
L 306.575857 -69.450462 
L 306.82962 -69.381621 
L 307.083383 -69.312953 
L 307.337146 -69.244456 
L 307.59091 -69.17613 
L 307.844673 -69.107974 
L 308.098436 -69.039989 
L 308.352199 -68.972173 
L 308.605963 -68.904527 
L 308.859726 -68.83705 
L 309.113489 -68.769741 
L 309.367252 -68.7026 
L 309.621016 -68.635627 
L 309.874779 -68.568821 
L 310.128542 -68.502182 
L 310.382305 -68.435709 
L 310.636068 -68.369402 
L 310.889832 -68.303261 
L 311.143595 -68.237285 
L 311.397358 -68.171474 
L 311.651121 -68.105827 
L 311.904885 -68.040344 
L 312.158648 -67.975024 
L 312.412411 -67.909868 
L 312.666174 -67.844874 
L 312.919938 -67.780043 
L 313.173701 -67.715373 
L 313.427464 -67.650865 
L 313.681227 -67.586518 
L 313.934991 -67.522331 
L 314.188754 -67.458305 
L 314.442517 -67.394439 
L 314.69628 -67.330732 
L 314.950044 -67.267184 
L 315.203807 -67.203795 
L 315.45757 -67.140564 
L 315.711333 -67.077491 
L 315.965097 -67.014576 
L 316.21886 -66.951818 
L 316.472623 -66.889216 
L 316.726386 -66.826771 
L 316.98015 -66.764481 
L 317.233913 -66.702347 
L 317.487676 -66.640369 
L 317.741439 -66.578545 
L 317.995203 -66.516875 
L 318.248966 -66.455359 
L 318.502729 -66.393997 
L 318.756492 -66.332788 
L 319.010256 -66.271732 
L 319.264019 -66.210829 
L 319.517782 -66.150077 
L 319.771545 -66.089478 
L 320.025309 -66.029029 
L 320.279072 -65.968731 
L 320.532835 -65.908584 
L 320.786598 -65.848588 
L 321.040362 -65.788741 
L 321.294125 -65.729043 
L 321.547888 -65.669495 
L 321.801651 -65.610095 
L 322.055415 -65.550843 
L 322.309178 -65.49174 
L 322.562941 -65.432784 
L 322.816704 -65.373975 
L 323.070468 -65.315313 
L 323.324231 -65.256797 
L 323.577994 -65.198428 
L 323.831757 -65.140204 
L 324.08552 -65.082126 
L 324.339284 -65.024193 
L 324.593047 -64.966404 
L 324.84681 -64.90876 
L 325.100573 -64.851259 
L 325.354337 -64.793903 
L 325.6081 -64.736689 
L 325.861863 -64.679618 
L 326.115626 -64.62269 
L 326.36939 -64.565904 
L 326.623153 -64.50926 
L 326.876916 -64.452757 
L 327.130679 -64.396395 
L 327.384443 -64.340174 
L 327.638206 -64.284093 
L 327.891969 -64.228152 
L 328.145732 -64.172351 
L 328.399496 -64.11669 
L 328.653259 -64.061167 
L 328.907022 -64.005783 
L 329.160785 -63.950537 
L 329.414549 -63.895429 
L 329.668312 -63.840459 
L 329.922075 -63.785626 
L 330.175838 -63.73093 
L 330.429602 -63.676371 
L 330.683365 -63.621947 
L 330.937128 -63.56766 
L 331.190891 -63.513508 
L 331.444655 -63.459492 
L 331.698418 -63.40561 
L 331.952181 -63.351863 
L 332.205944 -63.29825 
L 332.459708 -63.244771 
L 332.713471 -63.191425 
L 332.967234 -63.138213 
L 333.220997 -63.085133 
L 333.474761 -63.032186 
L 333.728524 -62.979371 
L 333.982287 -62.926688 
L 334.23605 -62.874137 
L 334.489814 -62.821717 
L 334.743577 -62.769427 
L 334.99734 -62.717269 
L 335.251103 -62.66524 
L 335.504867 -62.613342 
L 335.75863 -62.561573 
L 336.012393 -62.509933 
L 336.266156 -62.458422 
L 336.51992 -62.40704 
L 336.773683 -62.355786 
L 337.027446 -62.30466 
L 337.281209 -62.253662 
L 337.534972 -62.202791 
L 337.788736 -62.152047 
L 338.042499 -62.10143 
L 338.296262 -62.050939 
L 338.550025 -62.000574 
L 338.803789 -61.950335 
L 339.057552 -61.900222 
L 339.311315 -61.850233 
L 339.565078 -61.800369 
L 339.818842 -61.75063 
L 340.072605 -61.701015 
L 340.326368 -61.651524 
L 340.580131 -61.602157 
L 340.833895 -61.552913 
L 341.087658 -61.503791 
L 341.341421 -61.454793 
L 341.595184 -61.405917 
L 341.848948 -61.357162 
L 342.102711 -61.30853 
L 342.356474 -61.260019 
L 342.610237 -61.211629 
L 342.864001 -61.16336 
L 343.117764 -61.115211 
L 343.371527 -61.067183 
L 343.62529 -61.019275 
L 343.879054 -60.971486 
L 344.132817 -60.923816 
L 344.38658 -60.876266 
L 344.640343 -60.828834 
L 344.894107 -60.781521 
L 345.14787 -60.734326 
L 345.401633 -60.687248 
L 345.655396 -60.640288 
L 345.90916 -60.593446 
L 346.162923 -60.54672 
L 346.416686 -60.500111 
L 346.670449 -60.453619 
L 346.924213 -60.407242 
L 347.177976 -60.360982 
L 347.431739 -60.314837 
L 347.685502 -60.268807 
L 347.939266 -60.222892 
L 348.193029 -60.177091 
L 348.446792 -60.131405 
L 348.700555 -60.085833 
L 348.954319 -60.040375 
L 349.208082 -59.995031 
L 349.461845 -59.949799 
L 349.715608 -59.904681 
L 349.969372 -59.859675 
L 350.223135 -59.814782 
L 350.476898 -59.77 
L 350.730661 -59.725331 
L 350.984424 -59.680773 
L 351.238188 -59.636326 
L 351.491951 -59.59199 
L 351.745714 -59.547765 
L 351.999477 -59.503651 
L 352.253241 -59.459646 
L 352.507004 -59.415751 
L 352.760767 -59.371966 
L 353.01453 -59.328291 
L 353.268294 -59.284724 
L 353.522057 -59.241266 
L 353.77582 -59.197917 
L 354.029583 -59.154676 
L 354.283347 -59.111543 
L 354.53711 -59.068517 
L 354.790873 -59.025599 
L 355.044636 -58.982788 
L 355.2984 -58.940084 
L 355.552163 -58.897487 
L 355.805926 -58.854996 
L 356.059689 -58.812611 
L 356.313453 -58.770332 
L 356.567216 -58.728159 
L 356.820979 -58.68609 
L 357.074742 -58.644127 
L 357.328506 -58.602269 
L 357.582269 -58.560515 
L 357.836032 -58.518865 
L 358.089795 -58.47732 
L 358.343559 -58.435878 
L 358.597322 -58.39454 
L 358.851085 -58.353304 
L 359.104848 -58.312172 
L 359.358612 -58.271143 
L 359.612375 -58.230216 
L 359.866138 -58.189391 
L 360.119901 -58.148668 
L 360.373665 -58.108047 
L 360.627428 -58.067527 
L 360.881191 -58.027108 
L 361.134954 -57.98679 
L 361.388718 -57.946573 
L 361.642481 -57.906457 
L 361.896244 -57.86644 
L 362.150007 -57.826524 
L 362.403771 -57.786707 
L 362.657534 -57.746989 
L 362.911297 -57.707371 
L 363.16506 -57.667851 
L 363.418824 -57.628431 
L 363.672587 -57.589108 
L 363.92635 -57.549884 
L 364.180113 -57.510758 
L 364.433876 -57.47173 
L 364.68764 -57.432799 
L 364.941403 -57.393965 
L 365.195166 -57.355228 
L 365.448929 -57.316588 
L 365.702693 -57.278044 
L 365.956456 -57.239597 
L 366.210219 -57.201245 
L 366.463982 -57.16299 
L 366.717746 -57.124829 
L 366.971509 -57.086765 
L 367.225272 -57.048795 
L 367.479035 -57.01092 
L 367.732799 -56.973139 
L 367.986562 -56.935453 
L 368.240325 -56.897861 
L 368.494088 -56.860363 
L 368.747852 -56.822959 
L 369.001615 -56.785647 
L 369.255378 -56.748429 
L 369.509141 -56.711304 
L 369.762905 -56.674272 
L 370.016668 -56.637332 
L 370.270431 -56.600485 
L 370.524194 -56.563729 
L 370.777958 -56.527065 
L 371.031721 -56.490493 
L 371.285484 -56.454012 
L 371.539247 -56.417622 
L 371.793011 -56.381323 
L 372.046774 -56.345114 
L 372.300537 -56.308996 
L 372.5543 -56.272968 
L 372.808064 -56.237031 
L 373.061827 -56.201182 
L 373.31559 -56.165424 
L 373.569353 -56.129755 
L 373.823117 -56.094174 
L 374.07688 -56.058683 
L 374.330643 -56.02328 
L 374.584406 -55.987966 
L 374.83817 -55.952739 
L 375.091933 -55.917601 
L 375.345696 -55.88255 
L 375.599459 -55.847587 
L 375.853223 -55.812712 
L 376.106986 -55.777923 
L 376.360749 -55.743221 
L 376.614512 -55.708606 
L 376.868276 -55.674077 
L 377.122039 -55.639635 
L 377.375802 -55.605278 
L 377.629565 -55.571008 
L 377.883328 -55.536822 
L 378.137092 -55.502723 
L 378.390855 -55.468708 
L 378.644618 -55.434778 
L 378.898381 -55.400933 
L 379.152145 -55.367173 
L 379.405908 -55.333496 
L 379.659671 -55.299904 
L 379.913434 -55.266396 
L 380.167198 -55.232971 
L 380.420961 -55.19963 
L 380.674724 -55.166372 
L 380.928487 -55.133198 
L 381.182251 -55.100106 
L 381.436014 -55.067096 
L 381.689777 -55.034169 
L 381.94354 -55.001325 
L 382.197304 -54.968562 
L 382.451067 -54.935881 
L 382.70483 -54.903282 
L 382.958593 -54.870764 
L 383.212357 -54.838327 
L 383.46612 -54.805971 
L 383.719883 -54.773696 
L 383.973646 -54.741502 
L 384.22741 -54.709388 
L 384.481173 -54.677354 
L 384.734936 -54.6454 
L 384.988699 -54.613526 
L 385.242463 -54.581732 
L 385.496226 -54.550017 
L 385.749989 -54.518381 
L 386.003752 -54.486824 
L 386.257516 -54.455346 
L 386.511279 -54.423946 
L 386.765042 -54.392625 
L 387.018805 -54.361382 
L 387.272569 -54.330218 
L 387.526332 -54.29913 
L 387.780095 -54.268121 
L 388.033858 -54.237189 
L 388.287622 -54.206334 
L 388.541385 -54.175556 
L 388.795148 -54.144856 
L 389.048911 -54.114231 
L 389.302675 -54.083684 
L 389.556438 -54.053212 
L 389.810201 -54.022817 
L 390.063964 -53.992497 
L 390.317728 -53.962253 
L 390.571491 -53.932085 
L 390.825254 -53.901992 
L 391.079017 -53.871974 
L 391.33278 -53.842031 
L 391.586544 -53.812163 
L 391.840307 -53.78237 
L 392.09407 -53.752651 
L 392.347833 -53.723006 
L 392.601597 -53.693435 
L 392.85536 -53.663938 
L 393.109123 -53.634514 
L 393.362886 -53.605164 
L 393.61665 -53.575888 
L 393.870413 -53.546684 
L 394.124176 -53.517553 
L 394.377939 -53.488495 
L 394.631703 -53.45951 
L 394.885466 -53.430597 
L 395.139229 -53.401756 
L 395.392992 -53.372987 
L 395.646756 -53.34429 
L 395.900519 -53.315665 
L 396.154282 -53.287111 
L 396.408045 -53.258629 
L 396.661809 -53.230217 
L 396.915572 -53.201877 
L 397.169335 -53.173607 
L 397.423098 -53.145408 
L 397.676862 -53.117279 
L 397.930625 -53.089221 
L 398.184388 -53.061232 
L 398.438151 -53.033314 
L 398.691915 -53.005465 
L 398.945678 -52.977685 
L 399.199441 -52.949975 
L 399.453204 -52.922335 
L 399.706968 -52.894763 
L 399.960731 -52.86726 
L 400.214494 -52.839826 
L 400.468257 -52.81246 
L 400.722021 -52.785163 
L 400.975784 -52.757933 
L 401.229547 -52.730772 
L 401.48331 -52.703679 
L 401.737074 -52.676653 
L 401.990837 -52.649695 
L 402.2446 -52.622804 
L 402.498363 -52.59598 
L 402.752127 -52.569223 
L 403.00589 -52.542533 
L 403.259653 -52.515909 
L 403.513416 -52.489352 
L 403.76718 -52.462862 
L 404.020943 -52.436437 
L 404.274706 -52.410079 
L 404.528469 -52.383786 
L 404.782232 -52.357559 
L 405.035996 -52.331397 
L 405.289759 -52.305301 
L 405.543522 -52.27927 
L 405.797285 -52.253304 
L 406.051049 -52.227403 
L 406.304812 -52.201566 
L 406.558575 -52.175794 
L 406.812338 -52.150086 
L 407.066102 -52.124443 
L 407.319865 -52.098863 
L 407.573628 -52.073348 
L 407.827391 -52.047896 
L 408.081155 -52.022507 
L 408.334918 -51.997182 
L 408.588681 -51.971921 
L 408.842444 -51.946722 
L 409.096208 -51.921586 
L 409.349971 -51.896513 
L 409.603734 -51.871503 
L 409.857497 -51.846555 
L 410.111261 -51.821669 
L 410.365024 -51.796846 
L 410.618787 -51.772084 
L 410.87255 -51.747384 
L 411.126314 -51.722746 
L 411.380077 -51.69817 
L 411.63384 -51.673655 
L 411.887603 -51.649201 
L 412.141367 -51.624808 
L 412.39513 -51.600476 
L 412.648893 -51.576205 
L 412.902656 -51.551994 
L 413.15642 -51.527844 
L 413.410183 -51.503754 
L 413.663946 -51.479724 
L 413.917709 -51.455754 
L 414.171473 -51.431845 
L 414.425236 -51.407994 
L 414.678999 -51.384204 
L 414.932762 -51.360473 
L 415.186526 -51.336801 
L 415.440289 -51.313188 
L 415.694052 -51.289634 
L 415.947815 -51.266139 
L 416.201579 -51.242702 
L 416.455342 -51.219324 
L 416.709105 -51.196005 
L 416.962868 -51.172744 
L 417.216632 -51.14954 
L 417.470395 -51.126395 
L 417.724158 -51.103307 
L 417.977921 -51.080278 
L 418.231684 -51.057305 
L 418.485448 -51.03439 
L 418.739211 -51.011532 
L 418.992974 -50.988732 
L 419.246737 -50.965988 
L 419.500501 -50.943301 
L 419.754264 -50.920671 
L 420.008027 -50.898097 
L 420.26179 -50.875579 
L 420.515554 -50.853118 
L 420.769317 -50.830713 
L 421.02308 -50.808364 
L 421.276843 -50.78607 
L 421.530607 -50.763833 
L 421.78437 -50.74165 
L 422.038133 -50.719523 
L 422.291896 -50.697452 
L 422.54566 -50.675435 
L 422.799423 -50.653474 
L 423.053186 -50.631567 
L 423.306949 -50.609715 
L 423.560713 -50.587918 
L 423.814476 -50.566175 
L 424.068239 -50.544486 
L 424.322002 -50.522852 
L 424.575766 -50.501271 
L 424.829529 -50.479744 
L 425.083292 -50.458271 
L 425.337055 -50.436852 
L 425.590819 -50.415486 
L 425.844582 -50.394174 
L 426.098345 -50.372915 
L 426.352108 -50.351709 
L 426.605872 -50.330555 
L 426.859635 -50.309455 
L 427.113398 -50.288407 
L 427.367161 -50.267412 
L 427.620925 -50.246469 
L 427.874688 -50.225579 
L 428.128451 -50.204741 
L 428.382214 -50.183954 
L 428.635978 -50.16322 
L 428.889741 -50.142537 
L 429.143504 -50.121906 
L 429.397267 -50.101327 
L 429.651031 -50.080799 
L 429.904794 -50.060322 
L 430.158557 -50.039897 
L 430.41232 -50.019522 
L 430.666084 -49.999198 
L 430.919847 -49.978925 
L 431.17361 -49.958703 
L 431.427373 -49.938531 
L 431.681136 -49.918409 
L 431.9349 -49.898338 
L 432.188663 -49.878317 
L 432.442426 -49.858346 
L 432.696189 -49.838424 
L 432.949953 -49.818553 
L 433.203716 -49.798731 
L 433.457479 -49.778958 
L 433.711242 -49.759235 
L 433.965006 -49.739561 
L 434.218769 -49.719936 
L 434.472532 -49.700361 
L 434.726295 -49.680834 
L 434.980059 -49.661356 
L 435.233822 -49.641926 
L 435.487585 -49.622545 
L 435.741348 -49.603213 
L 435.995112 -49.583928 
L 436.248875 -49.564692 
L 436.502638 -49.545504 
L 436.756401 -49.526364 
L 437.010165 -49.507271 
L 437.263928 -49.488227 
L 437.517691 -49.469229 
L 437.771454 -49.45028 
L 438.025218 -49.431377 
L 438.278981 -49.412522 
L 438.532744 -49.393714 
L 438.786507 -49.374953 
L 439.040271 -49.356238 
L 439.294034 -49.337571 
L 439.547797 -49.318949 
L 439.80156 -49.300375 
L 440.055324 -49.281847 
L 440.309087 -49.263365 
L 440.56285 -49.244929 
L 440.816613 -49.226539 
L 441.070377 -49.208196 
L 441.32414 -49.189898 
L 441.577903 -49.171645 
L 441.831666 -49.153439 
L 442.08543 -49.135277 
L 442.339193 -49.117161 
L 442.592956 -49.099091 
L 442.846719 -49.081065 
L 443.100483 -49.063085 
L 443.354246 -49.045149 
L 443.608009 -49.027258 
L 443.861772 -49.009412 
L 444.115536 -48.99161 
L 444.369299 -48.973853 
L 444.623062 -48.95614 
L 444.876825 -48.938471 
L 445.130588 -48.920847 
L 445.384352 -48.903266 
L 445.638115 -48.88573 
L 445.891878 -48.868237 
L 446.145641 -48.850788 
L 446.399405 -48.833382 
L 446.653168 -48.81602 
L 446.906931 -48.798701 
L 447.160694 -48.781426 
L 447.414458 -48.764193 
L 447.668221 -48.747004 
L 447.921984 -48.729857 
L 448.175747 -48.712754 
L 448.429511 -48.695693 
L 448.683274 -48.678674 
L 448.937037 -48.661699 
L 449.1908 -48.644765 
L 449.444564 -48.627874 
L 449.698327 -48.611025 
L 449.95209 -48.594218 
L 450.205853 -48.577453 
L 450.459617 -48.56073 
L 450.71338 -48.544049 
L 450.967143 -48.527409 
L 451.220906 -48.510811 
L 451.47467 -48.494254 
L 451.728433 -48.477739 
L 451.982196 -48.461265 
L 452.235959 -48.444832 
L 452.489723 -48.42844 
L 452.743486 -48.412089 
L 452.997249 -48.395778 
L 453.251012 -48.379509 
L 453.504776 -48.36328 
L 453.758539 -48.347092 
L 454.012302 -48.330944 
L 454.266065 -48.314836 
L 454.519829 -48.298769 
L 454.773592 -48.282741 
L 455.027355 -48.266754 
L 455.281118 -48.250807 
L 455.534882 -48.234899 
L 455.788645 -48.219031 
L 456.042408 -48.203203 
L 456.296171 -48.187415 
L 456.549935 -48.171665 
L 456.803698 -48.155956 
L 457.057461 -48.140285 
L 457.311224 -48.124653 
L 457.564988 -48.109061 
L 457.818751 -48.093507 
L 458.072514 -48.077992 
L 458.326277 -48.062516 
L 458.58004 -48.047079 
L 458.833804 -48.03168 
L 459.087567 -48.01632 
L 459.34133 -48.000998 
L 459.595093 -47.985714 
L 459.848857 -47.970468 
L 460.10262 -47.955261 
L 460.356383 -47.940091 
L 460.610146 -47.92496 
L 460.86391 -47.909866 
L 461.117673 -47.894809 
L 461.371436 -47.879791 
L 461.625199 -47.86481 
L 461.878963 -47.849866 
L 462.132726 -47.83496 
L 462.386489 -47.82009 
L 462.640252 -47.805258 
L 462.894016 -47.790463 
L 463.147779 -47.775705 
L 463.401542 -47.760984 
L 463.655305 -47.746299 
L 463.909069 -47.731652 
L 464.162832 -47.71704 
L 464.416595 -47.702466 
L 464.670358 -47.687927 
L 464.924122 -47.673425 
L 465.177885 -47.658959 
L 465.431648 -47.64453 
L 465.685411 -47.630136 
L 465.939175 -47.615778 
L 466.192938 -47.601456 
L 466.446701 -47.58717 
L 466.700464 -47.572919 
L 466.954228 -47.558705 
L 467.207991 -47.544525 
L 467.461754 -47.530381 
L 467.715517 -47.516272 
L 467.969281 -47.502199 
L 468.223044 -47.488161 
L 468.476807 -47.474157 
L 468.73057 -47.460189 
L 468.984334 -47.446256 
L 469.238097 -47.432357 
L 469.49186 -47.418493 
L 469.745623 -47.404664 
L 469.999387 -47.390869 
L 470.25315 -47.377108 
L 470.506913 -47.363382 
L 470.760676 -47.349691 
L 471.014439 -47.336033 
L 471.268203 -47.32241 
L 471.521966 -47.30882 
L 471.775729 -47.295265 
L 472.029492 -47.281743 
L 472.283256 -47.268255 
L 472.537019 -47.254801 
L 472.790782 -47.241381 
L 473.044545 -47.227993 
L 473.298309 -47.21464 
L 473.552072 -47.201319 
L 473.805835 -47.188032 
L 474.059598 -47.174778 
L 474.313362 -47.161558 
L 474.567125 -47.14837 
L 474.820888 -47.135215 
L 475.074651 -47.122093 
L 475.328415 -47.109004 
L 475.582178 -47.095947 
L 475.835941 -47.082923 
L 476.089704 -47.069932 
L 476.343468 -47.056973 
L 476.597231 -47.044046 
L 476.850994 -47.031152 
L 477.104757 -47.018289 
L 477.358521 -47.005459 
L 477.612284 -46.992661 
L 477.866047 -46.979895 
L 478.11981 -46.967161 
L 478.373574 -46.954459 
L 478.627337 -46.941788 
L 478.8811 -46.929149 
L 479.134863 -46.916541 
L 479.388627 -46.903965 
L 479.64239 -46.891421 
L 479.896153 -46.878907 
L 480.149916 -46.866425 
L 480.40368 -46.853975 
L 480.657443 -46.841555 
L 480.911206 -46.829166 
L 481.164969 -46.816808 
L 481.418733 -46.804481 
L 481.672496 -46.792185 
L 481.926259 -46.779919 
L 482.180022 -46.767685 
L 482.433786 -46.75548 
L 482.687549 -46.743306 
L 482.941312 -46.731163 
L 483.195075 -46.71905 
L 483.448839 -46.706967 
L 483.702602 -46.694914 
L 483.956365 -46.682891 
L 484.210128 -46.670899 
L 484.463891 -46.658936 
L 484.717655 -46.647003 
L 484.971418 -46.6351 
L 485.225181 -46.623227 
L 485.478944 -46.611383 
L 485.732708 -46.599569 
L 485.986471 -46.587785 
L 486.240234 -46.57603 
L 486.493997 -46.564304 
L 486.747761 -46.552607 
L 487.001524 -46.54094 
L 487.255287 -46.529302 
L 487.50905 -46.517693 
L 487.762814 -46.506112 
L 488.016577 -46.494561 
L 488.27034 -46.483039 
L 488.524103 -46.471545 
L 488.777867 -46.46008 
L 489.03163 -46.448644 
L 489.285393 -46.437236 
L 489.539156 -46.425857 
L 489.79292 -46.414506 
L 490.046683 -46.403184 
L 490.300446 -46.391889 
L 490.554209 -46.380623 
L 490.807973 -46.369386 
L 491.061736 -46.358176 
L 491.315499 -46.346994 
L 491.569262 -46.33584 
L 491.823026 -46.324714 
L 492.076789 -46.313616 
L 492.330552 -46.302545 
L 492.584315 -46.291502 
L 492.838079 -46.280487 
L 493.091842 -46.269499 
L 493.345605 -46.258538 
L 493.599368 -46.247605 
L 493.853132 -46.2367 
L 494.106895 -46.225821 
L 494.360658 -46.21497 
L 494.614421 -46.204145 
L 494.868185 -46.193348 
L 495.121948 -46.182578 
L 495.375711 -46.171834 
L 495.629474 -46.161118 
L 495.883238 -46.150428 
L 496.137001 -46.139765 
L 496.390764 -46.129128 
L 496.644527 -46.118518 
L 496.898291 -46.107935 
L 497.152054 -46.097378 
L 497.405817 -46.086847 
L 497.65958 -46.076343 
L 497.913343 -46.065865 
L 498.167107 -46.055413 
L 498.42087 -46.044987 
L 498.674633 -46.034587 
L 498.928396 -46.024213 
L 499.18216 -46.013865 
L 499.435923 -46.003543 
L 499.689686 -45.993247 
L 499.943449 -45.982976 
L 500.197213 -45.972731 
L 500.450976 -45.962512 
L 500.704739 -45.952318 
L 500.958502 -45.942149 
L 501.212266 -45.932006 
L 501.466029 -45.921888 
L 501.719792 -45.911796 
L 501.973555 -45.901729 
L 502.227319 -45.891686 
L 502.481082 -45.881669 
L 502.734845 -45.871677 
L 502.988608 -45.86171 
L 503.242372 -45.851768 
L 503.496135 -45.84185 
L 503.749898 -45.831958 
L 504.003661 -45.82209 
L 504.257425 -45.812247 
L 504.511188 -45.802428 
L 504.764951 -45.792634 
L 505.018714 -45.782864 
L 505.272478 -45.773119 
L 505.526241 -45.763397 
L 505.780004 -45.753701 
L 506.033767 -45.744028 
L 506.287531 -45.73438 
L 506.541294 -45.724755 
L 506.795057 -45.715155 
L 507.04882 -45.705579 
L 507.302584 -45.696027 
L 507.556347 -45.686498 
L 507.81011 -45.676993 
L 508.063873 -45.667512 
L 508.317637 -45.658055 
L 508.5714 -45.648621 
L 508.825163 -45.639211 
L 509.078926 -45.629824 
L 509.33269 -45.620461 
L 509.586453 -45.611121 
L 509.840216 -45.601805 
L 510.093979 -45.592511 
L 510.347743 -45.583241 
L 510.601506 -45.573994 
L 510.855269 -45.56477 
L 511.109032 -45.55557 
L 511.362795 -45.546392 
L 511.616559 -45.537237 
L 511.870322 -45.528105 
L 512.124085 -45.518996 
L 512.377848 -45.509909 
L 512.631612 -45.500845 
L 512.885375 -45.491804 
L 513.139138 -45.482785 
L 513.392901 -45.473789 
L 513.646665 -45.464816 
L 513.900428 -45.455864 
L 514.154191 -45.446936 
L 514.407954 -45.438029 
L 514.661718 -45.429145 
L 514.915481 -45.420282 
L 515.169244 -45.411442 
L 515.423007 -45.402624 
L 515.676771 -45.393828 
L 515.930534 -45.385054 
L 516.184297 -45.376302 
L 516.43806 -45.367572 
L 516.691824 -45.358864 
L 516.945587 -45.350177 
L 517.19935 -45.341512 
L 517.453113 -45.332869 
L 517.706877 -45.324247 
L 517.96064 -45.315647 
L 518.214403 -45.307068 
L 518.468166 -45.298511 
L 518.72193 -45.289975 
L 518.975693 -45.28146 
L 519.229456 -45.272966 
L 519.483219 -45.264494 
L 519.736983 -45.256043 
L 519.990746 -45.247613 
L 520.244509 -45.239204 
L 520.498272 -45.230816 
L 520.752036 -45.222449 
L 521.005799 -45.214103 
L 521.259562 -45.205778 
L 521.513325 -45.197474 
L 521.767089 -45.18919 
L 522.020852 -45.180927 
L 522.274615 -45.172685 
L 522.528378 -45.164463 
L 522.782142 -45.156261 
L 523.035905 -45.148081 
L 523.289668 -45.13992 
L 523.543431 -45.13178 
L 523.797195 -45.12366 
L 524.050958 -45.115561 
L 524.304721 -45.107482 
L 524.558484 -45.099423 
L 524.812247 -45.091384 
L 525.066011 -45.083365 
L 525.319774 -45.075366 
L 525.573537 -45.067388 
L 525.8273 -45.059429 
L 526.081064 -45.05149 
L 526.334827 -45.04357 
L 526.58859 -45.035671 
L 526.842353 -45.027791 
L 527.096117 -45.019931 
L 527.34988 -45.012091 
L 527.603643 -45.00427 
L 527.857406 -44.996469 
L 528.11117 -44.988687 
L 528.364933 -44.980924 
L 528.618696 -44.973181 
L 528.872459 -44.965458 
L 529.126223 -44.957753 
L 529.379986 -44.950068 
L 529.633749 -44.942402 
L 529.887512 -44.934755 
L 530.141276 -44.927128 
L 530.395039 -44.919519 
L 530.648802 -44.911929 
L 530.902565 -44.904358 
L 531.156329 -44.896807 
L 531.410092 -44.889274 
L 531.663855 -44.881759 
L 531.917618 -44.874264 
L 532.171382 -44.866787 
L 532.425145 -44.859329 
L 532.678908 -44.85189 
L 532.932671 -44.844469 
L 533.186435 -44.837067 
L 533.440198 -44.829683 
L 533.693961 -44.822318 
L 533.947724 -44.814971 
L 534.201488 -44.807642 
L 534.455251 -44.800332 
L 534.709014 -44.793039 
L 534.962777 -44.785766 
L 535.216541 -44.77851 
L 535.470304 -44.771272 
L 535.724067 -44.764053 
L 535.97783 -44.756851 
L 536.231594 -44.749668 
L 536.485357 -44.742502 
L 536.73912 -44.735354 
L 536.992883 -44.728224 
L 537.246647 -44.721112 
L 537.50041 -44.714018 
L 537.754173 -44.706941 
L 538.007936 -44.699883 
L 538.261699 -44.692841 
L 538.515463 -44.685818 
L 538.769226 -44.678811 
L 539.022989 -44.671823 
L 539.276752 -44.664851 
L 539.530516 -44.657898 
L 539.784279 -44.650961 
L 540.038042 -44.644042 
L 540.291805 -44.63714 
L 540.545569 -44.630256 
L 540.799332 -44.623388 
L 541.053095 -44.616538 
L 541.306858 -44.609705 
L 541.560622 -44.602888 
L 541.814385 -44.596089 
L 542.068148 -44.589307 
L 542.321911 -44.582542 
L 542.575675 -44.575794 
L 542.829438 -44.569062 
L 543.083201 -44.562348 
L 543.336964 -44.55565 
L 543.590728 -44.548969 
L 543.844491 -44.542304 
L 544.098254 -44.535656 
L 544.352017 -44.529025 
L 544.605781 -44.52241 
L 544.859544 -44.515812 
L 545.113307 -44.509231 
L 545.36707 -44.502665 
L 545.620834 -44.496116 
L 545.874597 -44.489584 
L 546.12836 -44.483068 
L 546.382123 -44.476568 
L 546.635887 -44.470084 
L 546.88965 -44.463617 
L 547.143413 -44.457165 
L 547.397176 -44.45073 
L 547.65094 -44.444311 
L 547.904703 -44.437908 
L 548.158466 -44.43152 
L 548.412229 -44.425149 
L 548.665993 -44.418794 
L 548.919756 -44.412454 
L 549.173519 -44.406131 
L 549.427282 -44.399823 
L 549.681046 -44.393531 
L 549.934809 -44.387254 
L 550.188572 -44.380994 
L 550.442335 -44.374749 
L 550.696099 -44.368519 
L 550.949862 -44.362305 
L 551.203625 -44.356107 
L 551.457388 -44.349924 
L 551.711151 -44.343757 
L 551.964915 -44.337604 
L 552.218678 -44.331468 
L 552.472441 -44.325346 
L 552.726204 -44.31924 
L 552.979968 -44.313149 
L 553.233731 -44.307074 
L 553.487494 -44.301013 
L 553.741257 -44.294968 
L 553.995021 -44.288938 
L 554.248784 -44.282922 
L 554.502547 -44.276922 
L 554.75631 -44.270937 
L 555.010074 -44.264967 
L 555.263837 -44.259011 
L 555.5176 -44.253071 
L 555.771363 -44.247145 
L 556.025127 -44.241234 
L 556.27889 -44.235338 
L 556.532653 -44.229457 
L 556.786416 -44.22359 
L 557.04018 -44.217738 
L 557.293943 -44.211901 
L 557.547706 -44.206078 
L 557.801469 -44.200269 
L 558.055233 -44.194476 
L 558.308996 -44.188696 
L 558.562759 -44.182931 
L 558.816522 -44.177181 
L 559.070286 -44.171445 
L 559.324049 -44.165723 
L 559.577812 -44.160015 
L 559.831575 -44.154322 
L 560.085339 -44.148643 
L 560.339102 -44.142978 
L 560.592865 -44.137327 
L 560.846628 -44.13169 
L 561.100392 -44.126068 
L 561.354155 -44.120459 
L 561.607918 -44.114865 
L 561.861681 -44.109284 
L 562.115445 -44.103718 
L 562.369208 -44.098165 
L 562.622971 -44.092626 
L 562.876734 -44.087101 
L 563.130498 -44.08159 
L 563.384261 -44.076092 
L 563.638024 -44.070608 
L 563.891787 -44.065138 
L 564.145551 -44.059682 
L 564.399314 -44.054239 
L 564.653077 -44.04881 
L 564.90684 -44.043394 
L 565.160603 -44.037992 
L 565.414367 -44.032604 
L 565.66813 -44.027228 
L 565.921893 -44.021867 
L 566.175656 -44.016518 
L 566.42942 -44.011183 
L 566.683183 -44.005862 
L 566.936946 -44.000553 
L 567.190709 -43.995258 
L 567.444473 -43.989976 
L 567.698236 -43.984707 
L 567.951999 -43.979452 
L 568.205762 -43.974209 
L 568.459526 -43.96898 
L 568.713289 -43.963764 
L 568.967052 -43.95856 
L 569.220815 -43.95337 
L 569.474579 -43.948193 
L 569.728342 -43.943028 
L 569.982105 -43.937877 
L 570.235868 -43.932738 
L 570.489632 -43.927612 
L 570.743395 -43.922499 
L 570.743395 -41.879844 
L 570.743395 -41.879844 
L 570.489632 -41.879844 
L 570.235868 -41.879844 
L 569.982105 -41.879844 
L 569.728342 -41.879844 
L 569.474579 -41.879844 
L 569.220815 -41.879844 
L 568.967052 -41.879844 
L 568.713289 -41.879844 
L 568.459526 -41.879844 
L 568.205762 -41.879844 
L 567.951999 -41.879844 
L 567.698236 -41.879844 
L 567.444473 -41.879844 
L 567.190709 -41.879844 
L 566.936946 -41.879844 
L 566.683183 -41.879844 
L 566.42942 -41.879844 
L 566.175656 -41.879844 
L 565.921893 -41.879844 
L 565.66813 -41.879844 
L 565.414367 -41.879844 
L 565.160603 -41.879844 
L 564.90684 -41.879844 
L 564.653077 -41.879844 
L 564.399314 -41.879844 
L 564.145551 -41.879844 
L 563.891787 -41.879844 
L 563.638024 -41.879844 
L 563.384261 -41.879844 
L 563.130498 -41.879844 
L 562.876734 -41.879844 
L 562.622971 -41.879844 
L 562.369208 -41.879844 
L 562.115445 -41.879844 
L 561.861681 -41.879844 
L 561.607918 -41.879844 
L 561.354155 -41.879844 
L 561.100392 -41.879844 
L 560.846628 -41.879844 
L 560.592865 -41.879844 
L 560.339102 -41.879844 
L 560.085339 -41.879844 
L 559.831575 -41.879844 
L 559.577812 -41.879844 
L 559.324049 -41.879844 
L 559.070286 -41.879844 
L 558.816522 -41.879844 
L 558.562759 -41.879844 
L 558.308996 -41.879844 
L 558.055233 -41.879844 
L 557.801469 -41.879844 
L 557.547706 -41.879844 
L 557.293943 -41.879844 
L 557.04018 -41.879844 
L 556.786416 -41.879844 
L 556.532653 -41.879844 
L 556.27889 -41.879844 
L 556.025127 -41.879844 
L 555.771363 -41.879844 
L 555.5176 -41.879844 
L 555.263837 -41.879844 
L 555.010074 -41.879844 
L 554.75631 -41.879844 
L 554.502547 -41.879844 
L 554.248784 -41.879844 
L 553.995021 -41.879844 
L 553.741257 -41.879844 
L 553.487494 -41.879844 
L 553.233731 -41.879844 
L 552.979968 -41.879844 
L 552.726204 -41.879844 
L 552.472441 -41.879844 
L 552.218678 -41.879844 
L 551.964915 -41.879844 
L 551.711151 -41.879844 
L 551.457388 -41.879844 
L 551.203625 -41.879844 
L 550.949862 -41.879844 
L 550.696099 -41.879844 
L 550.442335 -41.879844 
L 550.188572 -41.879844 
L 549.934809 -41.879844 
L 549.681046 -41.879844 
L 549.427282 -41.879844 
L 549.173519 -41.879844 
L 548.919756 -41.879844 
L 548.665993 -41.879844 
L 548.412229 -41.879844 
L 548.158466 -41.879844 
L 547.904703 -41.879844 
L 547.65094 -41.879844 
L 547.397176 -41.879844 
L 547.143413 -41.879844 
L 546.88965 -41.879844 
L 546.635887 -41.879844 
L 546.382123 -41.879844 
L 546.12836 -41.879844 
L 545.874597 -41.879844 
L 545.620834 -41.879844 
L 545.36707 -41.879844 
L 545.113307 -41.879844 
L 544.859544 -41.879844 
L 544.605781 -41.879844 
L 544.352017 -41.879844 
L 544.098254 -41.879844 
L 543.844491 -41.879844 
L 543.590728 -41.879844 
L 543.336964 -41.879844 
L 543.083201 -41.879844 
L 542.829438 -41.879844 
L 542.575675 -41.879844 
L 542.321911 -41.879844 
L 542.068148 -41.879844 
L 541.814385 -41.879844 
L 541.560622 -41.879844 
L 541.306858 -41.879844 
L 541.053095 -41.879844 
L 540.799332 -41.879844 
L 540.545569 -41.879844 
L 540.291805 -41.879844 
L 540.038042 -41.879844 
L 539.784279 -41.879844 
L 539.530516 -41.879844 
L 539.276752 -41.879844 
L 539.022989 -41.879844 
L 538.769226 -41.879844 
L 538.515463 -41.879844 
L 538.261699 -41.879844 
L 538.007936 -41.879844 
L 537.754173 -41.879844 
L 537.50041 -41.879844 
L 537.246647 -41.879844 
L 536.992883 -41.879844 
L 536.73912 -41.879844 
L 536.485357 -41.879844 
L 536.231594 -41.879844 
L 535.97783 -41.879844 
L 535.724067 -41.879844 
L 535.470304 -41.879844 
L 535.216541 -41.879844 
L 534.962777 -41.879844 
L 534.709014 -41.879844 
L 534.455251 -41.879844 
L 534.201488 -41.879844 
L 533.947724 -41.879844 
L 533.693961 -41.879844 
L 533.440198 -41.879844 
L 533.186435 -41.879844 
L 532.932671 -41.879844 
L 532.678908 -41.879844 
L 532.425145 -41.879844 
L 532.171382 -41.879844 
L 531.917618 -41.879844 
L 531.663855 -41.879844 
L 531.410092 -41.879844 
L 531.156329 -41.879844 
L 530.902565 -41.879844 
L 530.648802 -41.879844 
L 530.395039 -41.879844 
L 530.141276 -41.879844 
L 529.887512 -41.879844 
L 529.633749 -41.879844 
L 529.379986 -41.879844 
L 529.126223 -41.879844 
L 528.872459 -41.879844 
L 528.618696 -41.879844 
L 528.364933 -41.879844 
L 528.11117 -41.879844 
L 527.857406 -41.879844 
L 527.603643 -41.879844 
L 527.34988 -41.879844 
L 527.096117 -41.879844 
L 526.842353 -41.879844 
L 526.58859 -41.879844 
L 526.334827 -41.879844 
L 526.081064 -41.879844 
L 525.8273 -41.879844 
L 525.573537 -41.879844 
L 525.319774 -41.879844 
L 525.066011 -41.879844 
L 524.812247 -41.879844 
L 524.558484 -41.879844 
L 524.304721 -41.879844 
L 524.050958 -41.879844 
L 523.797195 -41.879844 
L 523.543431 -41.879844 
L 523.289668 -41.879844 
L 523.035905 -41.879844 
L 522.782142 -41.879844 
L 522.528378 -41.879844 
L 522.274615 -41.879844 
L 522.020852 -41.879844 
L 521.767089 -41.879844 
L 521.513325 -41.879844 
L 521.259562 -41.879844 
L 521.005799 -41.879844 
L 520.752036 -41.879844 
L 520.498272 -41.879844 
L 520.244509 -41.879844 
L 519.990746 -41.879844 
L 519.736983 -41.879844 
L 519.483219 -41.879844 
L 519.229456 -41.879844 
L 518.975693 -41.879844 
L 518.72193 -41.879844 
L 518.468166 -41.879844 
L 518.214403 -41.879844 
L 517.96064 -41.879844 
L 517.706877 -41.879844 
L 517.453113 -41.879844 
L 517.19935 -41.879844 
L 516.945587 -41.879844 
L 516.691824 -41.879844 
L 516.43806 -41.879844 
L 516.184297 -41.879844 
L 515.930534 -41.879844 
L 515.676771 -41.879844 
L 515.423007 -41.879844 
L 515.169244 -41.879844 
L 514.915481 -41.879844 
L 514.661718 -41.879844 
L 514.407954 -41.879844 
L 514.154191 -41.879844 
L 513.900428 -41.879844 
L 513.646665 -41.879844 
L 513.392901 -41.879844 
L 513.139138 -41.879844 
L 512.885375 -41.879844 
L 512.631612 -41.879844 
L 512.377848 -41.879844 
L 512.124085 -41.879844 
L 511.870322 -41.879844 
L 511.616559 -41.879844 
L 511.362795 -41.879844 
L 511.109032 -41.879844 
L 510.855269 -41.879844 
L 510.601506 -41.879844 
L 510.347743 -41.879844 
L 510.093979 -41.879844 
L 509.840216 -41.879844 
L 509.586453 -41.879844 
L 509.33269 -41.879844 
L 509.078926 -41.879844 
L 508.825163 -41.879844 
L 508.5714 -41.879844 
L 508.317637 -41.879844 
L 508.063873 -41.879844 
L 507.81011 -41.879844 
L 507.556347 -41.879844 
L 507.302584 -41.879844 
L 507.04882 -41.879844 
L 506.795057 -41.879844 
L 506.541294 -41.879844 
L 506.287531 -41.879844 
L 506.033767 -41.879844 
L 505.780004 -41.879844 
L 505.526241 -41.879844 
L 505.272478 -41.879844 
L 505.018714 -41.879844 
L 504.764951 -41.879844 
L 504.511188 -41.879844 
L 504.257425 -41.879844 
L 504.003661 -41.879844 
L 503.749898 -41.879844 
L 503.496135 -41.879844 
L 503.242372 -41.879844 
L 502.988608 -41.879844 
L 502.734845 -41.879844 
L 502.481082 -41.879844 
L 502.227319 -41.879844 
L 501.973555 -41.879844 
L 501.719792 -41.879844 
L 501.466029 -41.879844 
L 501.212266 -41.879844 
L 500.958502 -41.879844 
L 500.704739 -41.879844 
L 500.450976 -41.879844 
L 500.197213 -41.879844 
L 499.943449 -41.879844 
L 499.689686 -41.879844 
L 499.435923 -41.879844 
L 499.18216 -41.879844 
L 498.928396 -41.879844 
L 498.674633 -41.879844 
L 498.42087 -41.879844 
L 498.167107 -41.879844 
L 497.913343 -41.879844 
L 497.65958 -41.879844 
L 497.405817 -41.879844 
L 497.152054 -41.879844 
L 496.898291 -41.879844 
L 496.644527 -41.879844 
L 496.390764 -41.879844 
L 496.137001 -41.879844 
L 495.883238 -41.879844 
L 495.629474 -41.879844 
L 495.375711 -41.879844 
L 495.121948 -41.879844 
L 494.868185 -41.879844 
L 494.614421 -41.879844 
L 494.360658 -41.879844 
L 494.106895 -41.879844 
L 493.853132 -41.879844 
L 493.599368 -41.879844 
L 493.345605 -41.879844 
L 493.091842 -41.879844 
L 492.838079 -41.879844 
L 492.584315 -41.879844 
L 492.330552 -41.879844 
L 492.076789 -41.879844 
L 491.823026 -41.879844 
L 491.569262 -41.879844 
L 491.315499 -41.879844 
L 491.061736 -41.879844 
L 490.807973 -41.879844 
L 490.554209 -41.879844 
L 490.300446 -41.879844 
L 490.046683 -41.879844 
L 489.79292 -41.879844 
L 489.539156 -41.879844 
L 489.285393 -41.879844 
L 489.03163 -41.879844 
L 488.777867 -41.879844 
L 488.524103 -41.879844 
L 488.27034 -41.879844 
L 488.016577 -41.879844 
L 487.762814 -41.879844 
L 487.50905 -41.879844 
L 487.255287 -41.879844 
L 487.001524 -41.879844 
L 486.747761 -41.879844 
L 486.493997 -41.879844 
L 486.240234 -41.879844 
L 485.986471 -41.879844 
L 485.732708 -41.879844 
L 485.478944 -41.879844 
L 485.225181 -41.879844 
L 484.971418 -41.879844 
L 484.717655 -41.879844 
L 484.463891 -41.879844 
L 484.210128 -41.879844 
L 483.956365 -41.879844 
L 483.702602 -41.879844 
L 483.448839 -41.879844 
L 483.195075 -41.879844 
L 482.941312 -41.879844 
L 482.687549 -41.879844 
L 482.433786 -41.879844 
L 482.180022 -41.879844 
L 481.926259 -41.879844 
L 481.672496 -41.879844 
L 481.418733 -41.879844 
L 481.164969 -41.879844 
L 480.911206 -41.879844 
L 480.657443 -41.879844 
L 480.40368 -41.879844 
L 480.149916 -41.879844 
L 479.896153 -41.879844 
L 479.64239 -41.879844 
L 479.388627 -41.879844 
L 479.134863 -41.879844 
L 478.8811 -41.879844 
L 478.627337 -41.879844 
L 478.373574 -41.879844 
L 478.11981 -41.879844 
L 477.866047 -41.879844 
L 477.612284 -41.879844 
L 477.358521 -41.879844 
L 477.104757 -41.879844 
L 476.850994 -41.879844 
L 476.597231 -41.879844 
L 476.343468 -41.879844 
L 476.089704 -41.879844 
L 475.835941 -41.879844 
L 475.582178 -41.879844 
L 475.328415 -41.879844 
L 475.074651 -41.879844 
L 474.820888 -41.879844 
L 474.567125 -41.879844 
L 474.313362 -41.879844 
L 474.059598 -41.879844 
L 473.805835 -41.879844 
L 473.552072 -41.879844 
L 473.298309 -41.879844 
L 473.044545 -41.879844 
L 472.790782 -41.879844 
L 472.537019 -41.879844 
L 472.283256 -41.879844 
L 472.029492 -41.879844 
L 471.775729 -41.879844 
L 471.521966 -41.879844 
L 471.268203 -41.879844 
L 471.014439 -41.879844 
L 470.760676 -41.879844 
L 470.506913 -41.879844 
L 470.25315 -41.879844 
L 469.999387 -41.879844 
L 469.745623 -41.879844 
L 469.49186 -41.879844 
L 469.238097 -41.879844 
L 468.984334 -41.879844 
L 468.73057 -41.879844 
L 468.476807 -41.879844 
L 468.223044 -41.879844 
L 467.969281 -41.879844 
L 467.715517 -41.879844 
L 467.461754 -41.879844 
L 467.207991 -41.879844 
L 466.954228 -41.879844 
L 466.700464 -41.879844 
L 466.446701 -41.879844 
L 466.192938 -41.879844 
L 465.939175 -41.879844 
L 465.685411 -41.879844 
L 465.431648 -41.879844 
L 465.177885 -41.879844 
L 464.924122 -41.879844 
L 464.670358 -41.879844 
L 464.416595 -41.879844 
L 464.162832 -41.879844 
L 463.909069 -41.879844 
L 463.655305 -41.879844 
L 463.401542 -41.879844 
L 463.147779 -41.879844 
L 462.894016 -41.879844 
L 462.640252 -41.879844 
L 462.386489 -41.879844 
L 462.132726 -41.879844 
L 461.878963 -41.879844 
L 461.625199 -41.879844 
L 461.371436 -41.879844 
L 461.117673 -41.879844 
L 460.86391 -41.879844 
L 460.610146 -41.879844 
L 460.356383 -41.879844 
L 460.10262 -41.879844 
L 459.848857 -41.879844 
L 459.595093 -41.879844 
L 459.34133 -41.879844 
L 459.087567 -41.879844 
L 458.833804 -41.879844 
L 458.58004 -41.879844 
L 458.326277 -41.879844 
L 458.072514 -41.879844 
L 457.818751 -41.879844 
L 457.564988 -41.879844 
L 457.311224 -41.879844 
L 457.057461 -41.879844 
L 456.803698 -41.879844 
L 456.549935 -41.879844 
L 456.296171 -41.879844 
L 456.042408 -41.879844 
L 455.788645 -41.879844 
L 455.534882 -41.879844 
L 455.281118 -41.879844 
L 455.027355 -41.879844 
L 454.773592 -41.879844 
L 454.519829 -41.879844 
L 454.266065 -41.879844 
L 454.012302 -41.879844 
L 453.758539 -41.879844 
L 453.504776 -41.879844 
L 453.251012 -41.879844 
L 452.997249 -41.879844 
L 452.743486 -41.879844 
L 452.489723 -41.879844 
L 452.235959 -41.879844 
L 451.982196 -41.879844 
L 451.728433 -41.879844 
L 451.47467 -41.879844 
L 451.220906 -41.879844 
L 450.967143 -41.879844 
L 450.71338 -41.879844 
L 450.459617 -41.879844 
L 450.205853 -41.879844 
L 449.95209 -41.879844 
L 449.698327 -41.879844 
L 449.444564 -41.879844 
L 449.1908 -41.879844 
L 448.937037 -41.879844 
L 448.683274 -41.879844 
L 448.429511 -41.879844 
L 448.175747 -41.879844 
L 447.921984 -41.879844 
L 447.668221 -41.879844 
L 447.414458 -41.879844 
L 447.160694 -41.879844 
L 446.906931 -41.879844 
L 446.653168 -41.879844 
L 446.399405 -41.879844 
L 446.145641 -41.879844 
L 445.891878 -41.879844 
L 445.638115 -41.879844 
L 445.384352 -41.879844 
L 445.130588 -41.879844 
L 444.876825 -41.879844 
L 444.623062 -41.879844 
L 444.369299 -41.879844 
L 444.115536 -41.879844 
L 443.861772 -41.879844 
L 443.608009 -41.879844 
L 443.354246 -41.879844 
L 443.100483 -41.879844 
L 442.846719 -41.879844 
L 442.592956 -41.879844 
L 442.339193 -41.879844 
L 442.08543 -41.879844 
L 441.831666 -41.879844 
L 441.577903 -41.879844 
L 441.32414 -41.879844 
L 441.070377 -41.879844 
L 440.816613 -41.879844 
L 440.56285 -41.879844 
L 440.309087 -41.879844 
L 440.055324 -41.879844 
L 439.80156 -41.879844 
L 439.547797 -41.879844 
L 439.294034 -41.879844 
L 439.040271 -41.879844 
L 438.786507 -41.879844 
L 438.532744 -41.879844 
L 438.278981 -41.879844 
L 438.025218 -41.879844 
L 437.771454 -41.879844 
L 437.517691 -41.879844 
L 437.263928 -41.879844 
L 437.010165 -41.879844 
L 436.756401 -41.879844 
L 436.502638 -41.879844 
L 436.248875 -41.879844 
L 435.995112 -41.879844 
L 435.741348 -41.879844 
L 435.487585 -41.879844 
L 435.233822 -41.879844 
L 434.980059 -41.879844 
L 434.726295 -41.879844 
L 434.472532 -41.879844 
L 434.218769 -41.879844 
L 433.965006 -41.879844 
L 433.711242 -41.879844 
L 433.457479 -41.879844 
L 433.203716 -41.879844 
L 432.949953 -41.879844 
L 432.696189 -41.879844 
L 432.442426 -41.879844 
L 432.188663 -41.879844 
L 431.9349 -41.879844 
L 431.681136 -41.879844 
L 431.427373 -41.879844 
L 431.17361 -41.879844 
L 430.919847 -41.879844 
L 430.666084 -41.879844 
L 430.41232 -41.879844 
L 430.158557 -41.879844 
L 429.904794 -41.879844 
L 429.651031 -41.879844 
L 429.397267 -41.879844 
L 429.143504 -41.879844 
L 428.889741 -41.879844 
L 428.635978 -41.879844 
L 428.382214 -41.879844 
L 428.128451 -41.879844 
L 427.874688 -41.879844 
L 427.620925 -41.879844 
L 427.367161 -41.879844 
L 427.113398 -41.879844 
L 426.859635 -41.879844 
L 426.605872 -41.879844 
L 426.352108 -41.879844 
L 426.098345 -41.879844 
L 425.844582 -41.879844 
L 425.590819 -41.879844 
L 425.337055 -41.879844 
L 425.083292 -41.879844 
L 424.829529 -41.879844 
L 424.575766 -41.879844 
L 424.322002 -41.879844 
L 424.068239 -41.879844 
L 423.814476 -41.879844 
L 423.560713 -41.879844 
L 423.306949 -41.879844 
L 423.053186 -41.879844 
L 422.799423 -41.879844 
L 422.54566 -41.879844 
L 422.291896 -41.879844 
L 422.038133 -41.879844 
L 421.78437 -41.879844 
L 421.530607 -41.879844 
L 421.276843 -41.879844 
L 421.02308 -41.879844 
L 420.769317 -41.879844 
L 420.515554 -41.879844 
L 420.26179 -41.879844 
L 420.008027 -41.879844 
L 419.754264 -41.879844 
L 419.500501 -41.879844 
L 419.246737 -41.879844 
L 418.992974 -41.879844 
L 418.739211 -41.879844 
L 418.485448 -41.879844 
L 418.231684 -41.879844 
L 417.977921 -41.879844 
L 417.724158 -41.879844 
L 417.470395 -41.879844 
L 417.216632 -41.879844 
L 416.962868 -41.879844 
L 416.709105 -41.879844 
L 416.455342 -41.879844 
L 416.201579 -41.879844 
L 415.947815 -41.879844 
L 415.694052 -41.879844 
L 415.440289 -41.879844 
L 415.186526 -41.879844 
L 414.932762 -41.879844 
L 414.678999 -41.879844 
L 414.425236 -41.879844 
L 414.171473 -41.879844 
L 413.917709 -41.879844 
L 413.663946 -41.879844 
L 413.410183 -41.879844 
L 413.15642 -41.879844 
L 412.902656 -41.879844 
L 412.648893 -41.879844 
L 412.39513 -41.879844 
L 412.141367 -41.879844 
L 411.887603 -41.879844 
L 411.63384 -41.879844 
L 411.380077 -41.879844 
L 411.126314 -41.879844 
L 410.87255 -41.879844 
L 410.618787 -41.879844 
L 410.365024 -41.879844 
L 410.111261 -41.879844 
L 409.857497 -41.879844 
L 409.603734 -41.879844 
L 409.349971 -41.879844 
L 409.096208 -41.879844 
L 408.842444 -41.879844 
L 408.588681 -41.879844 
L 408.334918 -41.879844 
L 408.081155 -41.879844 
L 407.827391 -41.879844 
L 407.573628 -41.879844 
L 407.319865 -41.879844 
L 407.066102 -41.879844 
L 406.812338 -41.879844 
L 406.558575 -41.879844 
L 406.304812 -41.879844 
L 406.051049 -41.879844 
L 405.797285 -41.879844 
L 405.543522 -41.879844 
L 405.289759 -41.879844 
L 405.035996 -41.879844 
L 404.782232 -41.879844 
L 404.528469 -41.879844 
L 404.274706 -41.879844 
L 404.020943 -41.879844 
L 403.76718 -41.879844 
L 403.513416 -41.879844 
L 403.259653 -41.879844 
L 403.00589 -41.879844 
L 402.752127 -41.879844 
L 402.498363 -41.879844 
L 402.2446 -41.879844 
L 401.990837 -41.879844 
L 401.737074 -41.879844 
L 401.48331 -41.879844 
L 401.229547 -41.879844 
L 400.975784 -41.879844 
L 400.722021 -41.879844 
L 400.468257 -41.879844 
L 400.214494 -41.879844 
L 399.960731 -41.879844 
L 399.706968 -41.879844 
L 399.453204 -41.879844 
L 399.199441 -41.879844 
L 398.945678 -41.879844 
L 398.691915 -41.879844 
L 398.438151 -41.879844 
L 398.184388 -41.879844 
L 397.930625 -41.879844 
L 397.676862 -41.879844 
L 397.423098 -41.879844 
L 397.169335 -41.879844 
L 396.915572 -41.879844 
L 396.661809 -41.879844 
L 396.408045 -41.879844 
L 396.154282 -41.879844 
L 395.900519 -41.879844 
L 395.646756 -41.879844 
L 395.392992 -41.879844 
L 395.139229 -41.879844 
L 394.885466 -41.879844 
L 394.631703 -41.879844 
L 394.377939 -41.879844 
L 394.124176 -41.879844 
L 393.870413 -41.879844 
L 393.61665 -41.879844 
L 393.362886 -41.879844 
L 393.109123 -41.879844 
L 392.85536 -41.879844 
L 392.601597 -41.879844 
L 392.347833 -41.879844 
L 392.09407 -41.879844 
L 391.840307 -41.879844 
L 391.586544 -41.879844 
L 391.33278 -41.879844 
L 391.079017 -41.879844 
L 390.825254 -41.879844 
L 390.571491 -41.879844 
L 390.317728 -41.879844 
L 390.063964 -41.879844 
L 389.810201 -41.879844 
L 389.556438 -41.879844 
L 389.302675 -41.879844 
L 389.048911 -41.879844 
L 388.795148 -41.879844 
L 388.541385 -41.879844 
L 388.287622 -41.879844 
L 388.033858 -41.879844 
L 387.780095 -41.879844 
L 387.526332 -41.879844 
L 387.272569 -41.879844 
L 387.018805 -41.879844 
L 386.765042 -41.879844 
L 386.511279 -41.879844 
L 386.257516 -41.879844 
L 386.003752 -41.879844 
L 385.749989 -41.879844 
L 385.496226 -41.879844 
L 385.242463 -41.879844 
L 384.988699 -41.879844 
L 384.734936 -41.879844 
L 384.481173 -41.879844 
L 384.22741 -41.879844 
L 383.973646 -41.879844 
L 383.719883 -41.879844 
L 383.46612 -41.879844 
L 383.212357 -41.879844 
L 382.958593 -41.879844 
L 382.70483 -41.879844 
L 382.451067 -41.879844 
L 382.197304 -41.879844 
L 381.94354 -41.879844 
L 381.689777 -41.879844 
L 381.436014 -41.879844 
L 381.182251 -41.879844 
L 380.928487 -41.879844 
L 380.674724 -41.879844 
L 380.420961 -41.879844 
L 380.167198 -41.879844 
L 379.913434 -41.879844 
L 379.659671 -41.879844 
L 379.405908 -41.879844 
L 379.152145 -41.879844 
L 378.898381 -41.879844 
L 378.644618 -41.879844 
L 378.390855 -41.879844 
L 378.137092 -41.879844 
L 377.883328 -41.879844 
L 377.629565 -41.879844 
L 377.375802 -41.879844 
L 377.122039 -41.879844 
L 376.868276 -41.879844 
L 376.614512 -41.879844 
L 376.360749 -41.879844 
L 376.106986 -41.879844 
L 375.853223 -41.879844 
L 375.599459 -41.879844 
L 375.345696 -41.879844 
L 375.091933 -41.879844 
L 374.83817 -41.879844 
L 374.584406 -41.879844 
L 374.330643 -41.879844 
L 374.07688 -41.879844 
L 373.823117 -41.879844 
L 373.569353 -41.879844 
L 373.31559 -41.879844 
L 373.061827 -41.879844 
L 372.808064 -41.879844 
L 372.5543 -41.879844 
L 372.300537 -41.879844 
L 372.046774 -41.879844 
L 371.793011 -41.879844 
L 371.539247 -41.879844 
L 371.285484 -41.879844 
L 371.031721 -41.879844 
L 370.777958 -41.879844 
L 370.524194 -41.879844 
L 370.270431 -41.879844 
L 370.016668 -41.879844 
L 369.762905 -41.879844 
L 369.509141 -41.879844 
L 369.255378 -41.879844 
L 369.001615 -41.879844 
L 368.747852 -41.879844 
L 368.494088 -41.879844 
L 368.240325 -41.879844 
L 367.986562 -41.879844 
L 367.732799 -41.879844 
L 367.479035 -41.879844 
L 367.225272 -41.879844 
L 366.971509 -41.879844 
L 366.717746 -41.879844 
L 366.463982 -41.879844 
L 366.210219 -41.879844 
L 365.956456 -41.879844 
L 365.702693 -41.879844 
L 365.448929 -41.879844 
L 365.195166 -41.879844 
L 364.941403 -41.879844 
L 364.68764 -41.879844 
L 364.433876 -41.879844 
L 364.180113 -41.879844 
L 363.92635 -41.879844 
L 363.672587 -41.879844 
L 363.418824 -41.879844 
L 363.16506 -41.879844 
L 362.911297 -41.879844 
L 362.657534 -41.879844 
L 362.403771 -41.879844 
L 362.150007 -41.879844 
L 361.896244 -41.879844 
L 361.642481 -41.879844 
L 361.388718 -41.879844 
L 361.134954 -41.879844 
L 360.881191 -41.879844 
L 360.627428 -41.879844 
L 360.373665 -41.879844 
L 360.119901 -41.879844 
L 359.866138 -41.879844 
L 359.612375 -41.879844 
L 359.358612 -41.879844 
L 359.104848 -41.879844 
L 358.851085 -41.879844 
L 358.597322 -41.879844 
L 358.343559 -41.879844 
L 358.089795 -41.879844 
L 357.836032 -41.879844 
L 357.582269 -41.879844 
L 357.328506 -41.879844 
L 357.074742 -41.879844 
L 356.820979 -41.879844 
L 356.567216 -41.879844 
L 356.313453 -41.879844 
L 356.059689 -41.879844 
L 355.805926 -41.879844 
L 355.552163 -41.879844 
L 355.2984 -41.879844 
L 355.044636 -41.879844 
L 354.790873 -41.879844 
L 354.53711 -41.879844 
L 354.283347 -41.879844 
L 354.029583 -41.879844 
L 353.77582 -41.879844 
L 353.522057 -41.879844 
L 353.268294 -41.879844 
L 353.01453 -41.879844 
L 352.760767 -41.879844 
L 352.507004 -41.879844 
L 352.253241 -41.879844 
L 351.999477 -41.879844 
L 351.745714 -41.879844 
L 351.491951 -41.879844 
L 351.238188 -41.879844 
L 350.984424 -41.879844 
L 350.730661 -41.879844 
L 350.476898 -41.879844 
L 350.223135 -41.879844 
L 349.969372 -41.879844 
L 349.715608 -41.879844 
L 349.461845 -41.879844 
L 349.208082 -41.879844 
L 348.954319 -41.879844 
L 348.700555 -41.879844 
L 348.446792 -41.879844 
L 348.193029 -41.879844 
L 347.939266 -41.879844 
L 347.685502 -41.879844 
L 347.431739 -41.879844 
L 347.177976 -41.879844 
L 346.924213 -41.879844 
L 346.670449 -41.879844 
L 346.416686 -41.879844 
L 346.162923 -41.879844 
L 345.90916 -41.879844 
L 345.655396 -41.879844 
L 345.401633 -41.879844 
L 345.14787 -41.879844 
L 344.894107 -41.879844 
L 344.640343 -41.879844 
L 344.38658 -41.879844 
L 344.132817 -41.879844 
L 343.879054 -41.879844 
L 343.62529 -41.879844 
L 343.371527 -41.879844 
L 343.117764 -41.879844 
L 342.864001 -41.879844 
L 342.610237 -41.879844 
L 342.356474 -41.879844 
L 342.102711 -41.879844 
L 341.848948 -41.879844 
L 341.595184 -41.879844 
L 341.341421 -41.879844 
L 341.087658 -41.879844 
L 340.833895 -41.879844 
L 340.580131 -41.879844 
L 340.326368 -41.879844 
L 340.072605 -41.879844 
L 339.818842 -41.879844 
L 339.565078 -41.879844 
L 339.311315 -41.879844 
L 339.057552 -41.879844 
L 338.803789 -41.879844 
L 338.550025 -41.879844 
L 338.296262 -41.879844 
L 338.042499 -41.879844 
L 337.788736 -41.879844 
L 337.534972 -41.879844 
L 337.281209 -41.879844 
L 337.027446 -41.879844 
L 336.773683 -41.879844 
L 336.51992 -41.879844 
L 336.266156 -41.879844 
L 336.012393 -41.879844 
L 335.75863 -41.879844 
L 335.504867 -41.879844 
L 335.251103 -41.879844 
L 334.99734 -41.879844 
L 334.743577 -41.879844 
L 334.489814 -41.879844 
L 334.23605 -41.879844 
L 333.982287 -41.879844 
L 333.728524 -41.879844 
L 333.474761 -41.879844 
L 333.220997 -41.879844 
L 332.967234 -41.879844 
L 332.713471 -41.879844 
L 332.459708 -41.879844 
L 332.205944 -41.879844 
L 331.952181 -41.879844 
L 331.698418 -41.879844 
L 331.444655 -41.879844 
L 331.190891 -41.879844 
L 330.937128 -41.879844 
L 330.683365 -41.879844 
L 330.429602 -41.879844 
L 330.175838 -41.879844 
L 329.922075 -41.879844 
L 329.668312 -41.879844 
L 329.414549 -41.879844 
L 329.160785 -41.879844 
L 328.907022 -41.879844 
L 328.653259 -41.879844 
L 328.399496 -41.879844 
L 328.145732 -41.879844 
L 327.891969 -41.879844 
L 327.638206 -41.879844 
L 327.384443 -41.879844 
L 327.130679 -41.879844 
L 326.876916 -41.879844 
L 326.623153 -41.879844 
L 326.36939 -41.879844 
L 326.115626 -41.879844 
L 325.861863 -41.879844 
L 325.6081 -41.879844 
L 325.354337 -41.879844 
L 325.100573 -41.879844 
L 324.84681 -41.879844 
L 324.593047 -41.879844 
L 324.339284 -41.879844 
L 324.08552 -41.879844 
L 323.831757 -41.879844 
L 323.577994 -41.879844 
L 323.324231 -41.879844 
L 323.070468 -41.879844 
L 322.816704 -41.879844 
L 322.562941 -41.879844 
L 322.309178 -41.879844 
L 322.055415 -41.879844 
L 321.801651 -41.879844 
L 321.547888 -41.879844 
L 321.294125 -41.879844 
L 321.040362 -41.879844 
L 320.786598 -41.879844 
L 320.532835 -41.879844 
L 320.279072 -41.879844 
L 320.025309 -41.879844 
L 319.771545 -41.879844 
L 319.517782 -41.879844 
L 319.264019 -41.879844 
L 319.010256 -41.879844 
L 318.756492 -41.879844 
L 318.502729 -41.879844 
L 318.248966 -41.879844 
L 317.995203 -41.879844 
L 317.741439 -41.879844 
L 317.487676 -41.879844 
L 317.233913 -41.879844 
L 316.98015 -41.879844 
L 316.726386 -41.879844 
L 316.472623 -41.879844 
L 316.21886 -41.879844 
L 315.965097 -41.879844 
L 315.711333 -41.879844 
L 315.45757 -41.879844 
L 315.203807 -41.879844 
L 314.950044 -41.879844 
L 314.69628 -41.879844 
L 314.442517 -41.879844 
L 314.188754 -41.879844 
L 313.934991 -41.879844 
L 313.681227 -41.879844 
L 313.427464 -41.879844 
L 313.173701 -41.879844 
L 312.919938 -41.879844 
L 312.666174 -41.879844 
L 312.412411 -41.879844 
L 312.158648 -41.879844 
L 311.904885 -41.879844 
L 311.651121 -41.879844 
L 311.397358 -41.879844 
L 311.143595 -41.879844 
L 310.889832 -41.879844 
L 310.636068 -41.879844 
L 310.382305 -41.879844 
L 310.128542 -41.879844 
L 309.874779 -41.879844 
L 309.621016 -41.879844 
L 309.367252 -41.879844 
L 309.113489 -41.879844 
L 308.859726 -41.879844 
L 308.605963 -41.879844 
L 308.352199 -41.879844 
L 308.098436 -41.879844 
L 307.844673 -41.879844 
L 307.59091 -41.879844 
L 307.337146 -41.879844 
L 307.083383 -41.879844 
L 306.82962 -41.879844 
L 306.575857 -41.879844 
L 306.322093 -41.879844 
L 306.06833 -41.879844 
L 305.814567 -41.879844 
L 305.560804 -41.879844 
L 305.30704 -41.879844 
L 305.053277 -41.879844 
L 304.799514 -41.879844 
L 304.545751 -41.879844 
L 304.291987 -41.879844 
L 304.038224 -41.879844 
L 303.784461 -41.879844 
L 303.530698 -41.879844 
L 303.276934 -41.879844 
L 303.023171 -41.879844 
L 302.769408 -41.879844 
L 302.515645 -41.879844 
L 302.261881 -41.879844 
L 302.008118 -41.879844 
L 301.754355 -41.879844 
L 301.500592 -41.879844 
L 301.246828 -41.879844 
L 300.993065 -41.879844 
L 300.739302 -41.879844 
L 300.485539 -41.879844 
L 300.231775 -41.879844 
L 299.978012 -41.879844 
L 299.724249 -41.879844 
L 299.470486 -41.879844 
L 299.216722 -41.879844 
L 298.962959 -41.879844 
L 298.709196 -41.879844 
L 298.455433 -41.879844 
L 298.201669 -41.879844 
L 297.947906 -41.879844 
L 297.694143 -41.879844 
L 297.44038 -41.879844 
L 297.186616 -41.879844 
L 296.932853 -41.879844 
L 296.67909 -41.879844 
L 296.425327 -41.879844 
L 296.171564 -41.879844 
L 295.9178 -41.879844 
L 295.664037 -41.879844 
L 295.410274 -41.879844 
L 295.156511 -41.879844 
L 294.902747 -41.879844 
L 294.648984 -41.879844 
L 294.395221 -41.879844 
L 294.141458 -41.879844 
L 293.887694 -41.879844 
L 293.633931 -41.879844 
L 293.380168 -41.879844 
L 293.126405 -41.879844 
L 292.872641 -41.879844 
L 292.618878 -41.879844 
L 292.365115 -41.879844 
L 292.111352 -41.879844 
L 291.857588 -41.879844 
L 291.603825 -41.879844 
L 291.350062 -41.879844 
L 291.096299 -41.879844 
L 290.842535 -41.879844 
L 290.588772 -41.879844 
L 290.335009 -41.879844 
L 290.081246 -41.879844 
L 289.827482 -41.879844 
L 289.573719 -41.879844 
L 289.319956 -41.879844 
L 289.066193 -41.879844 
L 288.812429 -41.879844 
L 288.558666 -41.879844 
L 288.304903 -41.879844 
L 288.05114 -41.879844 
L 287.797376 -41.879844 
L 287.543613 -41.879844 
L 287.28985 -41.879844 
L 287.036087 -41.879844 
L 286.782323 -41.879844 
L 286.52856 -41.879844 
L 286.274797 -41.879844 
L 286.021034 -41.879844 
L 285.76727 -41.879844 
L 285.513507 -41.879844 
L 285.259744 -41.879844 
L 285.005981 -41.879844 
L 284.752217 -41.879844 
L 284.498454 -41.879844 
L 284.244691 -41.879844 
L 283.990928 -41.879844 
L 283.737164 -41.879844 
L 283.483401 -41.879844 
L 283.229638 -41.879844 
L 282.975875 -41.879844 
L 282.722112 -41.879844 
L 282.468348 -41.879844 
L 282.214585 -41.879844 
L 281.960822 -41.879844 
L 281.707059 -41.879844 
L 281.453295 -41.879844 
L 281.199532 -41.879844 
L 280.945769 -41.879844 
L 280.692006 -41.879844 
L 280.438242 -41.879844 
L 280.184479 -41.879844 
L 279.930716 -41.879844 
L 279.676953 -41.879844 
L 279.423189 -41.879844 
L 279.169426 -41.879844 
L 278.915663 -41.879844 
L 278.6619 -41.879844 
L 278.408136 -41.879844 
L 278.154373 -41.879844 
L 277.90061 -41.879844 
L 277.646847 -41.879844 
L 277.393083 -41.879844 
L 277.13932 -41.879844 
L 276.885557 -41.879844 
L 276.631794 -41.879844 
L 276.37803 -41.879844 
L 276.124267 -41.879844 
L 275.870504 -41.879844 
L 275.616741 -41.879844 
L 275.362977 -41.879844 
L 275.109214 -41.879844 
L 274.855451 -41.879844 
L 274.601688 -41.879844 
L 274.347924 -41.879844 
L 274.094161 -41.879844 
L 273.840398 -41.879844 
L 273.586635 -41.879844 
L 273.332871 -41.879844 
L 273.079108 -41.879844 
L 272.825345 -41.879844 
L 272.571582 -41.879844 
L 272.317818 -41.879844 
L 272.064055 -41.879844 
L 271.810292 -41.879844 
L 271.556529 -41.879844 
L 271.302765 -41.879844 
L 271.049002 -41.879844 
L 270.795239 -41.879844 
L 270.541476 -41.879844 
L 270.287712 -41.879844 
L 270.033949 -41.879844 
L 269.780186 -41.879844 
L 269.526423 -41.879844 
L 269.27266 -41.879844 
L 269.018896 -41.879844 
L 268.765133 -41.879844 
L 268.51137 -41.879844 
L 268.257607 -41.879844 
L 268.003843 -41.879844 
L 267.75008 -41.879844 
L 267.496317 -41.879844 
L 267.242554 -41.879844 
L 266.98879 -41.879844 
L 266.735027 -41.879844 
L 266.481264 -41.879844 
L 266.227501 -41.879844 
L 265.973737 -41.879844 
L 265.719974 -41.879844 
L 265.466211 -41.879844 
L 265.212448 -41.879844 
L 264.958684 -41.879844 
L 264.704921 -41.879844 
L 264.451158 -41.879844 
L 264.197395 -41.879844 
L 263.943631 -41.879844 
L 263.689868 -41.879844 
L 263.436105 -41.879844 
L 263.182342 -41.879844 
L 262.928578 -41.879844 
L 262.674815 -41.879844 
L 262.421052 -41.879844 
L 262.167289 -41.879844 
L 261.913525 -41.879844 
L 261.659762 -41.879844 
L 261.405999 -41.879844 
L 261.152236 -41.879844 
L 260.898472 -41.879844 
L 260.644709 -41.879844 
L 260.390946 -41.879844 
L 260.137183 -41.879844 
L 259.883419 -41.879844 
L 259.629656 -41.879844 
L 259.375893 -41.879844 
L 259.12213 -41.879844 
L 258.868366 -41.879844 
L 258.614603 -41.879844 
L 258.36084 -41.879844 
L 258.107077 -41.879844 
L 257.853313 -41.879844 
L 257.59955 -41.879844 
L 257.345787 -41.879844 
L 257.092024 -41.879844 
L 256.838261 -41.879844 
L 256.584497 -41.879844 
L 256.330734 -41.879844 
L 256.076971 -41.879844 
L 255.823208 -41.879844 
L 255.569444 -41.879844 
L 255.315681 -41.879844 
L 255.061918 -41.879844 
L 254.808155 -41.879844 
L 254.554391 -41.879844 
L 254.300628 -41.879844 
L 254.046865 -41.879844 
L 253.793102 -41.879844 
L 253.539338 -41.879844 
L 253.285575 -41.879844 
L 253.031812 -41.879844 
L 252.778049 -41.879844 
L 252.524285 -41.879844 
L 252.270522 -41.879844 
L 252.016759 -41.879844 
L 251.762996 -41.879844 
L 251.509232 -41.879844 
L 251.255469 -41.879844 
L 251.001706 -41.879844 
L 250.747943 -41.879844 
L 250.494179 -41.879844 
L 250.240416 -41.879844 
L 249.986653 -41.879844 
L 249.73289 -41.879844 
L 249.479126 -41.879844 
L 249.225363 -41.879844 
L 248.9716 -41.879844 
L 248.717837 -41.879844 
L 248.464073 -41.879844 
L 248.21031 -41.879844 
L 247.956547 -41.879844 
L 247.702784 -41.879844 
L 247.44902 -41.879844 
L 247.195257 -41.879844 
L 246.941494 -41.879844 
L 246.687731 -41.879844 
L 246.433967 -41.879844 
L 246.180204 -41.879844 
L 245.926441 -41.879844 
L 245.672678 -41.879844 
L 245.418914 -41.879844 
L 245.165151 -41.879844 
L 244.911388 -41.879844 
L 244.657625 -41.879844 
L 244.403861 -41.879844 
L 244.150098 -41.879844 
L 243.896335 -41.879844 
L 243.642572 -41.879844 
L 243.388809 -41.879844 
L 243.135045 -41.879844 
L 242.881282 -41.879844 
L 242.627519 -41.879844 
L 242.373756 -41.879844 
L 242.119992 -41.879844 
L 241.866229 -41.879844 
L 241.612466 -41.879844 
L 241.358703 -41.879844 
L 241.104939 -41.879844 
L 240.851176 -41.879844 
L 240.597413 -41.879844 
L 240.34365 -41.879844 
L 240.089886 -41.879844 
L 239.836123 -41.879844 
L 239.58236 -41.879844 
L 239.328597 -41.879844 
L 239.074833 -41.879844 
L 238.82107 -41.879844 
L 238.567307 -41.879844 
L 238.313544 -41.879844 
L 238.05978 -41.879844 
L 237.806017 -41.879844 
L 237.552254 -41.879844 
L 237.298491 -41.879844 
L 237.044727 -41.879844 
L 236.790964 -41.879844 
L 236.537201 -41.879844 
L 236.283438 -41.879844 
L 236.029674 -41.879844 
L 235.775911 -41.879844 
L 235.522148 -41.879844 
L 235.268385 -41.879844 
L 235.014621 -41.879844 
L 234.760858 -41.879844 
L 234.507095 -41.879844 
L 234.253332 -41.879844 
L 233.999568 -41.879844 
L 233.745805 -41.879844 
L 233.492042 -41.879844 
L 233.238279 -41.879844 
L 232.984515 -41.879844 
L 232.730752 -41.879844 
L 232.476989 -41.879844 
L 232.223226 -41.879844 
L 231.969462 -41.879844 
L 231.715699 -41.879844 
L 231.461936 -41.879844 
L 231.208173 -41.879844 
L 230.954409 -41.879844 
L 230.700646 -41.879844 
L 230.446883 -41.879844 
L 230.19312 -41.879844 
L 229.939357 -41.879844 
L 229.685593 -41.879844 
L 229.43183 -41.879844 
L 229.178067 -41.879844 
L 228.924304 -41.879844 
L 228.67054 -41.879844 
L 228.416777 -41.879844 
L 228.163014 -41.879844 
L 227.909251 -41.879844 
L 227.655487 -41.879844 
L 227.401724 -41.879844 
L 227.147961 -41.879844 
L 226.894198 -41.879844 
L 226.640434 -41.879844 
L 226.386671 -41.879844 
L 226.132908 -41.879844 
L 225.879145 -41.879844 
L 225.625381 -41.879844 
L 225.371618 -41.879844 
L 225.117855 -41.879844 
L 224.864092 -41.879844 
L 224.610328 -41.879844 
L 224.356565 -41.879844 
L 224.102802 -41.879844 
L 223.849039 -41.879844 
L 223.595275 -41.879844 
L 223.341512 -41.879844 
L 223.087749 -41.879844 
L 222.833986 -41.879844 
L 222.580222 -41.879844 
L 222.326459 -41.879844 
L 222.072696 -41.879844 
L 221.818933 -41.879844 
L 221.565169 -41.879844 
L 221.311406 -41.879844 
L 221.057643 -41.879844 
L 220.80388 -41.879844 
L 220.550116 -41.879844 
L 220.296353 -41.879844 
L 220.04259 -41.879844 
L 219.788827 -41.879844 
L 219.535063 -41.879844 
L 219.2813 -41.879844 
L 219.027537 -41.879844 
L 218.773774 -41.879844 
L 218.52001 -41.879844 
L 218.266247 -41.879844 
L 218.012484 -41.879844 
L 217.758721 -41.879844 
L 217.504957 -41.879844 
L 217.251194 -41.879844 
L 216.997431 -41.879844 
L 216.743668 -41.879844 
L 216.489905 -41.879844 
L 216.236141 -41.879844 
L 215.982378 -41.879844 
L 215.728615 -41.879844 
L 215.474852 -41.879844 
L 215.221088 -41.879844 
L 214.967325 -41.879844 
L 214.713562 -41.879844 
L 214.459799 -41.879844 
L 214.206035 -41.879844 
L 213.952272 -41.879844 
L 213.698509 -41.879844 
L 213.444746 -41.879844 
L 213.190982 -41.879844 
L 212.937219 -41.879844 
L 212.683456 -41.879844 
L 212.429693 -41.879844 
L 212.175929 -41.879844 
L 211.922166 -41.879844 
L 211.668403 -41.879844 
L 211.41464 -41.879844 
L 211.160876 -41.879844 
L 210.907113 -41.879844 
L 210.65335 -41.879844 
L 210.399587 -41.879844 
L 210.145823 -41.879844 
L 209.89206 -41.879844 
L 209.638297 -41.879844 
L 209.384534 -41.879844 
L 209.13077 -41.879844 
L 208.877007 -41.879844 
L 208.623244 -41.879844 
L 208.369481 -41.879844 
L 208.115717 -41.879844 
L 207.861954 -41.879844 
L 207.608191 -41.879844 
L 207.354428 -41.879844 
L 207.100664 -41.879844 
L 206.846901 -41.879844 
L 206.593138 -41.879844 
L 206.339375 -41.879844 
L 206.085611 -41.879844 
L 205.831848 -41.879844 
L 205.578085 -41.879844 
L 205.324322 -41.879844 
L 205.070558 -41.879844 
L 204.816795 -41.879844 
L 204.563032 -41.879844 
L 204.309269 -41.879844 
L 204.055505 -41.879844 
L 203.801742 -41.879844 
L 203.547979 -41.879844 
L 203.294216 -41.879844 
L 203.040453 -41.879844 
z
" style="stroke: #bfbfbf"/>
    </defs>
    <g clip-path="url(#p51a66f9038)">
     <use xlink:href="#mc7f617c39c" x="0" y="366.599844" style="fill: #bfbfbf; stroke: #bfbfbf"/>
    </g>
   </g>
   <g id="line2d_16">
    <path d="M 63.470668 22.32 
L 68.292169 36.348193 
L 73.113671 49.725625 
L 77.935173 62.482484 
L 83.010437 75.271958 
L 88.085702 87.437683 
L 93.160967 99.010078 
L 98.236232 110.018081 
L 103.311497 120.489217 
L 108.386762 130.44967 
L 113.462027 139.924346 
L 118.537292 148.936936 
L 123.612557 157.509977 
L 128.687822 165.664906 
L 134.01685 173.799887 
L 139.345878 181.518799 
L 144.674906 188.842921 
L 150.003934 195.792447 
L 155.332962 202.386534 
L 160.915754 208.933191 
L 166.498545 215.129505 
L 172.081337 220.994224 
L 177.664128 226.545094 
L 183.500683 232.030922 
L 189.337237 237.210212 
L 195.173792 242.100094 
L 201.26411 246.911503 
L 207.354428 251.442717 
L 213.698509 255.882363 
L 220.04259 260.053025 
L 226.640434 264.122681 
L 233.238279 267.936224 
L 240.089886 271.642631 
L 247.195257 275.230989 
L 254.554391 278.691966 
L 262.167289 282.017791 
L 269.780186 285.103304 
L 277.646847 288.057639 
L 286.021034 290.960879 
L 294.648984 293.711832 
L 303.530698 296.309732 
L 312.919938 298.819801 
L 322.562941 301.16706 
L 332.713471 303.408419 
L 343.371527 305.532661 
L 354.53711 307.531327 
L 366.463982 309.436854 
L 379.152145 311.232671 
L 392.601597 312.906409 
L 406.812338 314.449757 
L 422.291896 315.902392 
L 438.786507 317.224891 
L 456.803698 318.443888 
L 476.597231 319.555798 
L 498.42087 320.554857 
L 522.782142 321.443582 
L 550.442335 322.225095 
L 570.743395 322.677345 
L 570.743395 322.677345 
" clip-path="url(#p51a66f9038)" style="fill: none; stroke: #0173b2; stroke-width: 1.5; stroke-linecap: round"/>
   </g>
   <g id="patch_3">
    <path d="M 38.107031 339.84 
L 38.107031 7.2 
" style="fill: none; stroke: #ffffff; stroke-width: 1.25; stroke-linejoin: miter; stroke-linecap: square"/>
   </g>
   <g id="patch_4">
    <path d="M 596.107031 339.84 
L 596.107031 7.2 
" style="fill: none; stroke: #ffffff; stroke-width: 1.25; stroke-linejoin: miter; stroke-linecap: square"/>
   </g>
   <g id="patch_5">
    <path d="M 38.107031 339.84 
L 596.107031 339.84 
" style="fill: none; stroke: #ffffff; stroke-width: 1.25; stroke-linejoin: miter; stroke-linecap: square"/>
   </g>
   <g id="patch_6">
    <path d="M 38.107031 7.2 
L 596.107031 7.2 
" style="fill: none; stroke: #ffffff; stroke-width: 1.25; stroke-linejoin: miter; stroke-linecap: square"/>
   </g>
  </g>
 </g>
 <defs>
  <clipPath id="p51a66f9038">
   <rect x="38.107031" y="7.2" width="558" height="332.64"/>
  </clipPath>
 </defs>
</svg>