<?xml version="1.0" encoding="utf-8" standalone="no"?>
<!DOCTYPE svg PUBLIC "-//W3C//DTD SVG 1.1//EN"
  "http://www.w3.org/Graphics/SVG/1.1/DTD/svg11.dtd">
<svg xmlns:xlink="http://www.w3.org/1999/xlink" width="615.796562pt" height="375.831875pt" viewBox="0 0 615.796562 375.831875" xmlns="http://www.w3.org/2000/svg" version="1.1">
 <metadata>
  <rdf:RDF xmlns:dc="http://purl.org/dc/elements/1.1/" xmlns:cc="http://creativecommons.org/ns#" xmlns:rdf="http://www.w3.org/1999/02/22-rdf-syntax-ns#">
   <cc:Work>
    <dc:type rdf:resource="http://purl.org/dc/dcmitype/StillImage"/>
    <dc:date>2023-05-07T23:37:57.472395</dc:date>
    <dc:format>image/svg+xml</dc:format>
    <dc:creator>
     <cc:Agent>
      <dc:title>Matplotlib v3.7.1, https://matplotlib.org/</dc:title>
     </cc:Agent>
    </dc:creator>
   </cc:Work>
  </rdf:RDF>
 </metadata>
 <defs>
  <style type="text/css">*{stroke-linejoin: round; stroke-linecap: butt}</style>
 </defs>
 <g id="figure_1">
  <g id="patch_1">
   <path d="M 0 375.831875 
L 615.796562 375.831875 
L 615.796562 0 
L 0 0 
z
" style="fill: #ffffff"/>
  </g>
  <g id="axes_1">
   <g id="patch_2">
    <path d="M 50.596563 339.84 
L 608.596563 339.84 
L 608.596563 7.2 
L 50.596563 7.2 
z
" style="fill: #eeeeee"/>
   </g>
   <g id="PathCollection_1">
    <defs>
     <path id="m383004821c" d="M 0 3 
C 0.795609 3 1.55874 2.683901 2.12132 2.12132 
C 2.683901 1.55874 3 0.795609 3 0 
C 3 -0.795609 2.683901 -1.55874 2.12132 -2.12132 
C 1.55874 -2.683901 0.795609 -3 0 -3 
C -0.795609 -3 -1.55874 -2.683901 -2.12132 -2.12132 
C -2.683901 -1.55874 -3 -0.795609 -3 0 
C -3 0.795609 -2.683901 1.55874 -2.12132 2.12132 
C -1.55874 2.683901 -0.795609 3 0 3 
z
" style="stroke: #348abd; stroke-opacity: 0.8"/>
    </defs>
    <g clip-path="url(#pde4855dc28)">
     <use xlink:href="#m383004821c" x="104.518628" y="291.092921" style="fill: #348abd; fill-opacity: 0.8; stroke: #348abd; stroke-opacity: 0.8"/>
     <use xlink:href="#m383004821c" x="350.42627" y="143.163822" style="fill: #348abd; fill-opacity: 0.8; stroke: #348abd; stroke-opacity: 0.8"/>
     <use xlink:href="#m383004821c" x="344.680574" y="175.048729" style="fill: #348abd; fill-opacity: 0.8; stroke: #348abd; stroke-opacity: 0.8"/>
     <use xlink:href="#m383004821c" x="277.178578" y="190.225331" style="fill: #348abd; fill-opacity: 0.8; stroke: #348abd; stroke-opacity: 0.8"/>
     <use xlink:href="#m383004821c" x="320.70607" y="160.937763" style="fill: #348abd; fill-opacity: 0.8; stroke: #348abd; stroke-opacity: 0.8"/>
     <use xlink:href="#m383004821c" x="358.480634" y="150.375281" style="fill: #348abd; fill-opacity: 0.8; stroke: #348abd; stroke-opacity: 0.8"/>
     <use xlink:href="#m383004821c" x="178.834103" y="250.921309" style="fill: #348abd; fill-opacity: 0.8; stroke: #348abd; stroke-opacity: 0.8"/>
     <use xlink:href="#m383004821c" x="467.760033" y="132.318491" style="fill: #348abd; fill-opacity: 0.8; stroke: #348abd; stroke-opacity: 0.8"/>
     <use xlink:href="#m383004821c" x="338.271212" y="174.257518" style="fill: #348abd; fill-opacity: 0.8; stroke: #348abd; stroke-opacity: 0.8"/>
     <use xlink:href="#m383004821c" x="209.434474" y="234.850922" style="fill: #348abd; fill-opacity: 0.8; stroke: #348abd; stroke-opacity: 0.8"/>
     <use xlink:href="#m383004821c" x="425.046623" y="116.00098" style="fill: #348abd; fill-opacity: 0.8; stroke: #348abd; stroke-opacity: 0.8"/>
     <use xlink:href="#m383004821c" x="264.160354" y="205.284169" style="fill: #348abd; fill-opacity: 0.8; stroke: #348abd; stroke-opacity: 0.8"/>
     <use xlink:href="#m383004821c" x="299.050888" y="167.703394" style="fill: #348abd; fill-opacity: 0.8; stroke: #348abd; stroke-opacity: 0.8"/>
     <use xlink:href="#m383004821c" x="354.30041" y="149.247226" style="fill: #348abd; fill-opacity: 0.8; stroke: #348abd; stroke-opacity: 0.8"/>
     <use xlink:href="#m383004821c" x="396.8331" y="146.502176" style="fill: #348abd; fill-opacity: 0.8; stroke: #348abd; stroke-opacity: 0.8"/>
     <use xlink:href="#m383004821c" x="583.232926" y="22.32" style="fill: #348abd; fill-opacity: 0.8; stroke: #348abd; stroke-opacity: 0.8"/>
     <use xlink:href="#m383004821c" x="324.419093" y="210.598275" style="fill: #348abd; fill-opacity: 0.8; stroke: #348abd; stroke-opacity: 0.8"/>
     <use xlink:href="#m383004821c" x="340.88042" y="163.92906" style="fill: #348abd; fill-opacity: 0.8; stroke: #348abd; stroke-opacity: 0.8"/>
     <use xlink:href="#m383004821c" x="303.634241" y="204.204758" style="fill: #348abd; fill-opacity: 0.8; stroke: #348abd; stroke-opacity: 0.8"/>
     <use xlink:href="#m383004821c" x="455.81814" y="90.282412" style="fill: #348abd; fill-opacity: 0.8; stroke: #348abd; stroke-opacity: 0.8"/>
     <use xlink:href="#m383004821c" x="172.497242" y="245.502688" style="fill: #348abd; fill-opacity: 0.8; stroke: #348abd; stroke-opacity: 0.8"/>
     <use xlink:href="#m383004821c" x="248.615308" y="231.098735" style="fill: #348abd; fill-opacity: 0.8; stroke: #348abd; stroke-opacity: 0.8"/>
     <use xlink:href="#m383004821c" x="340.663042" y="169.855262" style="fill: #348abd; fill-opacity: 0.8; stroke: #348abd; stroke-opacity: 0.8"/>
     <use xlink:href="#m383004821c" x="407.957204" y="128.399434" style="fill: #348abd; fill-opacity: 0.8; stroke: #348abd; stroke-opacity: 0.8"/>
     <use xlink:href="#m383004821c" x="357.654403" y="189.646373" style="fill: #348abd; fill-opacity: 0.8; stroke: #348abd; stroke-opacity: 0.8"/>
     <use xlink:href="#m383004821c" x="180.042292" y="244.369723" style="fill: #348abd; fill-opacity: 0.8; stroke: #348abd; stroke-opacity: 0.8"/>
     <use xlink:href="#m383004821c" x="355.29707" y="153.663667" style="fill: #348abd; fill-opacity: 0.8; stroke: #348abd; stroke-opacity: 0.8"/>
     <use xlink:href="#m383004821c" x="172.710435" y="270.088362" style="fill: #348abd; fill-opacity: 0.8; stroke: #348abd; stroke-opacity: 0.8"/>
     <use xlink:href="#m383004821c" x="321.528841" y="185.64445" style="fill: #348abd; fill-opacity: 0.8; stroke: #348abd; stroke-opacity: 0.8"/>
     <use xlink:href="#m383004821c" x="247.499767" y="201.44104" style="fill: #348abd; fill-opacity: 0.8; stroke: #348abd; stroke-opacity: 0.8"/>
     <use xlink:href="#m383004821c" x="271.169724" y="213.134136" style="fill: #348abd; fill-opacity: 0.8; stroke: #348abd; stroke-opacity: 0.8"/>
     <use xlink:href="#m383004821c" x="257.111379" y="202.579177" style="fill: #348abd; fill-opacity: 0.8; stroke: #348abd; stroke-opacity: 0.8"/>
     <use xlink:href="#m383004821c" x="192.805393" y="237.227124" style="fill: #348abd; fill-opacity: 0.8; stroke: #348abd; stroke-opacity: 0.8"/>
     <use xlink:href="#m383004821c" x="256.497573" y="208.1651" style="fill: #348abd; fill-opacity: 0.8; stroke: #348abd; stroke-opacity: 0.8"/>
     <use xlink:href="#m383004821c" x="224.135305" y="238.79132" style="fill: #348abd; fill-opacity: 0.8; stroke: #348abd; stroke-opacity: 0.8"/>
     <use xlink:href="#m383004821c" x="253.694038" y="224.981329" style="fill: #348abd; fill-opacity: 0.8; stroke: #348abd; stroke-opacity: 0.8"/>
     <use xlink:href="#m383004821c" x="362.766909" y="148.841507" style="fill: #348abd; fill-opacity: 0.8; stroke: #348abd; stroke-opacity: 0.8"/>
     <use xlink:href="#m383004821c" x="410.225259" y="113.470526" style="fill: #348abd; fill-opacity: 0.8; stroke: #348abd; stroke-opacity: 0.8"/>
     <use xlink:href="#m383004821c" x="320.204246" y="171.101772" style="fill: #348abd; fill-opacity: 0.8; stroke: #348abd; stroke-opacity: 0.8"/>
     <use xlink:href="#m383004821c" x="131.242364" y="293.083782" style="fill: #348abd; fill-opacity: 0.8; stroke: #348abd; stroke-opacity: 0.8"/>
     <use xlink:href="#m383004821c" x="185.440198" y="262.516949" style="fill: #348abd; fill-opacity: 0.8; stroke: #348abd; stroke-opacity: 0.8"/>
     <use xlink:href="#m383004821c" x="282.54077" y="203.65339" style="fill: #348abd; fill-opacity: 0.8; stroke: #348abd; stroke-opacity: 0.8"/>
     <use xlink:href="#m383004821c" x="343.383121" y="169.497202" style="fill: #348abd; fill-opacity: 0.8; stroke: #348abd; stroke-opacity: 0.8"/>
     <use xlink:href="#m383004821c" x="275.653839" y="200.780042" style="fill: #348abd; fill-opacity: 0.8; stroke: #348abd; stroke-opacity: 0.8"/>
     <use xlink:href="#m383004821c" x="312.569168" y="159.752164" style="fill: #348abd; fill-opacity: 0.8; stroke: #348abd; stroke-opacity: 0.8"/>
     <use xlink:href="#m383004821c" x="235.266998" y="235.259089" style="fill: #348abd; fill-opacity: 0.8; stroke: #348abd; stroke-opacity: 0.8"/>
     <use xlink:href="#m383004821c" x="371.684261" y="158.850501" style="fill: #348abd; fill-opacity: 0.8; stroke: #348abd; stroke-opacity: 0.8"/>
     <use xlink:href="#m383004821c" x="283.668589" y="191.494846" style="fill: #348abd; fill-opacity: 0.8; stroke: #348abd; stroke-opacity: 0.8"/>
     <use xlink:href="#m383004821c" x="335.523466" y="168.167372" style="fill: #348abd; fill-opacity: 0.8; stroke: #348abd; stroke-opacity: 0.8"/>
     <use xlink:href="#m383004821c" x="366.511707" y="134.574676" style="fill: #348abd; fill-opacity: 0.8; stroke: #348abd; stroke-opacity: 0.8"/>
     <use xlink:href="#m383004821c" x="354.307921" y="160.449979" style="fill: #348abd; fill-opacity: 0.8; stroke: #348abd; stroke-opacity: 0.8"/>
     <use xlink:href="#m383004821c" x="332.504578" y="190.016673" style="fill: #348abd; fill-opacity: 0.8; stroke: #348abd; stroke-opacity: 0.8"/>
     <use xlink:href="#m383004821c" x="349.136582" y="145.639226" style="fill: #348abd; fill-opacity: 0.8; stroke: #348abd; stroke-opacity: 0.8"/>
     <use xlink:href="#m383004821c" x="278.4376" y="195.311028" style="fill: #348abd; fill-opacity: 0.8; stroke: #348abd; stroke-opacity: 0.8"/>
     <use xlink:href="#m383004821c" x="446.305444" y="118.727828" style="fill: #348abd; fill-opacity: 0.8; stroke: #348abd; stroke-opacity: 0.8"/>
     <use xlink:href="#m383004821c" x="346.622724" y="152.165518" style="fill: #348abd; fill-opacity: 0.8; stroke: #348abd; stroke-opacity: 0.8"/>
     <use xlink:href="#m383004821c" x="267.423207" y="191.03485" style="fill: #348abd; fill-opacity: 0.8; stroke: #348abd; stroke-opacity: 0.8"/>
     <use xlink:href="#m383004821c" x="229.935881" y="223.59797" style="fill: #348abd; fill-opacity: 0.8; stroke: #348abd; stroke-opacity: 0.8"/>
     <use xlink:href="#m383004821c" x="382.357628" y="165.441909" style="fill: #348abd; fill-opacity: 0.8; stroke: #348abd; stroke-opacity: 0.8"/>
     <use xlink:href="#m383004821c" x="215.898599" y="254.719886" style="fill: #348abd; fill-opacity: 0.8; stroke: #348abd; stroke-opacity: 0.8"/>
     <use xlink:href="#m383004821c" x="263.196778" y="187.052914" style="fill: #348abd; fill-opacity: 0.8; stroke: #348abd; stroke-opacity: 0.8"/>
     <use xlink:href="#m383004821c" x="259.903612" y="203.113089" style="fill: #348abd; fill-opacity: 0.8; stroke: #348abd; stroke-opacity: 0.8"/>
     <use xlink:href="#m383004821c" x="280.320987" y="194.729218" style="fill: #348abd; fill-opacity: 0.8; stroke: #348abd; stroke-opacity: 0.8"/>
     <use xlink:href="#m383004821c" x="333.595852" y="175.930741" style="fill: #348abd; fill-opacity: 0.8; stroke: #348abd; stroke-opacity: 0.8"/>
     <use xlink:href="#m383004821c" x="191.248416" y="235.484579" style="fill: #348abd; fill-opacity: 0.8; stroke: #348abd; stroke-opacity: 0.8"/>
     <use xlink:href="#m383004821c" x="314.236149" y="166.938533" style="fill: #348abd; fill-opacity: 0.8; stroke: #348abd; stroke-opacity: 0.8"/>
     <use xlink:href="#m383004821c" x="215.522605" y="224.843131" style="fill: #348abd; fill-opacity: 0.8; stroke: #348abd; stroke-opacity: 0.8"/>
     <use xlink:href="#m383004821c" x="244.624481" y="204.855011" style="fill: #348abd; fill-opacity: 0.8; stroke: #348abd; stroke-opacity: 0.8"/>
     <use xlink:href="#m383004821c" x="271.707491" y="203.027836" style="fill: #348abd; fill-opacity: 0.8; stroke: #348abd; stroke-opacity: 0.8"/>
     <use xlink:href="#m383004821c" x="367.985707" y="118.374391" style="fill: #348abd; fill-opacity: 0.8; stroke: #348abd; stroke-opacity: 0.8"/>
     <use xlink:href="#m383004821c" x="290.255036" y="191.972299" style="fill: #348abd; fill-opacity: 0.8; stroke: #348abd; stroke-opacity: 0.8"/>
     <use xlink:href="#m383004821c" x="242.836462" y="219.662268" style="fill: #348abd; fill-opacity: 0.8; stroke: #348abd; stroke-opacity: 0.8"/>
     <use xlink:href="#m383004821c" x="255.548609" y="201.99169" style="fill: #348abd; fill-opacity: 0.8; stroke: #348abd; stroke-opacity: 0.8"/>
     <use xlink:href="#m383004821c" x="438.566039" y="102.832284" style="fill: #348abd; fill-opacity: 0.8; stroke: #348abd; stroke-opacity: 0.8"/>
     <use xlink:href="#m383004821c" x="185.746306" y="249.983931" style="fill: #348abd; fill-opacity: 0.8; stroke: #348abd; stroke-opacity: 0.8"/>
     <use xlink:href="#m383004821c" x="335.286628" y="180.425129" style="fill: #348abd; fill-opacity: 0.8; stroke: #348abd; stroke-opacity: 0.8"/>
     <use xlink:href="#m383004821c" x="184.062501" y="212.961978" style="fill: #348abd; fill-opacity: 0.8; stroke: #348abd; stroke-opacity: 0.8"/>
     <use xlink:href="#m383004821c" x="404.277096" y="121.303716" style="fill: #348abd; fill-opacity: 0.8; stroke: #348abd; stroke-opacity: 0.8"/>
     <use xlink:href="#m383004821c" x="376.540752" y="148.225581" style="fill: #348abd; fill-opacity: 0.8; stroke: #348abd; stroke-opacity: 0.8"/>
     <use xlink:href="#m383004821c" x="344.436515" y="174.496061" style="fill: #348abd; fill-opacity: 0.8; stroke: #348abd; stroke-opacity: 0.8"/>
     <use xlink:href="#m383004821c" x="352.587564" y="156.6385" style="fill: #348abd; fill-opacity: 0.8; stroke: #348abd; stroke-opacity: 0.8"/>
     <use xlink:href="#m383004821c" x="165.183063" y="229.478249" style="fill: #348abd; fill-opacity: 0.8; stroke: #348abd; stroke-opacity: 0.8"/>
     <use xlink:href="#m383004821c" x="281.119091" y="208.908969" style="fill: #348abd; fill-opacity: 0.8; stroke: #348abd; stroke-opacity: 0.8"/>
     <use xlink:href="#m383004821c" x="276.490244" y="227.800904" style="fill: #348abd; fill-opacity: 0.8; stroke: #348abd; stroke-opacity: 0.8"/>
     <use xlink:href="#m383004821c" x="391.515842" y="106.321661" style="fill: #348abd; fill-opacity: 0.8; stroke: #348abd; stroke-opacity: 0.8"/>
     <use xlink:href="#m383004821c" x="458.184956" y="99.095512" style="fill: #348abd; fill-opacity: 0.8; stroke: #348abd; stroke-opacity: 0.8"/>
     <use xlink:href="#m383004821c" x="492.577791" y="101.226099" style="fill: #348abd; fill-opacity: 0.8; stroke: #348abd; stroke-opacity: 0.8"/>
     <use xlink:href="#m383004821c" x="236.152719" y="225.515827" style="fill: #348abd; fill-opacity: 0.8; stroke: #348abd; stroke-opacity: 0.8"/>
     <use xlink:href="#m383004821c" x="322.557001" y="167.579358" style="fill: #348abd; fill-opacity: 0.8; stroke: #348abd; stroke-opacity: 0.8"/>
     <use xlink:href="#m383004821c" x="236.638275" y="226.852126" style="fill: #348abd; fill-opacity: 0.8; stroke: #348abd; stroke-opacity: 0.8"/>
     <use xlink:href="#m383004821c" x="297.257614" y="187.885847" style="fill: #348abd; fill-opacity: 0.8; stroke: #348abd; stroke-opacity: 0.8"/>
     <use xlink:href="#m383004821c" x="230.661262" y="254.379656" style="fill: #348abd; fill-opacity: 0.8; stroke: #348abd; stroke-opacity: 0.8"/>
     <use xlink:href="#m383004821c" x="140.542328" y="285.567856" style="fill: #348abd; fill-opacity: 0.8; stroke: #348abd; stroke-opacity: 0.8"/>
     <use xlink:href="#m383004821c" x="192.234121" y="208.566263" style="fill: #348abd; fill-opacity: 0.8; stroke: #348abd; stroke-opacity: 0.8"/>
     <use xlink:href="#m383004821c" x="266.306442" y="197.150819" style="fill: #348abd; fill-opacity: 0.8; stroke: #348abd; stroke-opacity: 0.8"/>
     <use xlink:href="#m383004821c" x="75.960199" y="324.72" style="fill: #348abd; fill-opacity: 0.8; stroke: #348abd; stroke-opacity: 0.8"/>
     <use xlink:href="#m383004821c" x="360.404736" y="130.184756" style="fill: #348abd; fill-opacity: 0.8; stroke: #348abd; stroke-opacity: 0.8"/>
     <use xlink:href="#m383004821c" x="330.049234" y="152.763135" style="fill: #348abd; fill-opacity: 0.8; stroke: #348abd; stroke-opacity: 0.8"/>
     <use xlink:href="#m383004821c" x="306.025022" y="181.632308" style="fill: #348abd; fill-opacity: 0.8; stroke: #348abd; stroke-opacity: 0.8"/>
     <use xlink:href="#m383004821c" x="258.389612" y="202.728904" style="fill: #348abd; fill-opacity: 0.8; stroke: #348abd; stroke-opacity: 0.8"/>
    </g>
   </g>
   <g id="matplotlib.axis_1">
    <g id="xtick_1">
     <g id="line2d_1">
      <path d="M 125.738795 339.84 
L 125.738795 7.2 
" clip-path="url(#pde4855dc28)" style="fill: none; stroke-dasharray: 1.85,0.8; stroke-dashoffset: 0; stroke: #b2b2b2; stroke-width: 0.5"/>
     </g>
     <g id="line2d_2">
      <defs>
       <path id="m0ca3316196" d="M 0 0 
L 0 -3.5 
" style="stroke: #000000; stroke-width: 0.8"/>
      </defs>
      <g>
       <use xlink:href="#m0ca3316196" x="125.738795" y="339.84" style="stroke: #000000; stroke-width: 0.8"/>
      </g>
     </g>
     <g id="text_1">
      <!-- −2 -->
      <g transform="translate(118.367701 350.938438) scale(0.1 -0.1)">
       <defs>
        <path id="DejaVuSans-2212" d="M 678 2272 
L 4684 2272 
L 4684 1741 
L 678 1741 
L 678 2272 
z
" transform="scale(0.015625)"/>
        <path id="DejaVuSans-32" d="M 1228 531 
L 3431 531 
L 3431 0 
L 469 0 
L 469 531 
Q 828 903 1448 1529 
Q 2069 2156 2228 2338 
Q 2531 2678 2651 2914 
Q 2772 3150 2772 3378 
Q 2772 3750 2511 3984 
Q 2250 4219 1831 4219 
Q 1534 4219 1204 4116 
Q 875 4013 500 3803 
L 500 4441 
Q 881 4594 1212 4672 
Q 1544 4750 1819 4750 
Q 2544 4750 2975 4387 
Q 3406 4025 3406 3419 
Q 3406 3131 3298 2873 
Q 3191 2616 2906 2266 
Q 2828 2175 2409 1742 
Q 1991 1309 1228 531 
z
" transform="scale(0.015625)"/>
       </defs>
       <use xlink:href="#DejaVuSans-2212"/>
       <use xlink:href="#DejaVuSans-32" x="83.789062"/>
      </g>
     </g>
    </g>
    <g id="xtick_2">
     <g id="line2d_3">
      <path d="M 201.331487 339.84 
L 201.331487 7.2 
" clip-path="url(#pde4855dc28)" style="fill: none; stroke-dasharray: 1.85,0.8; stroke-dashoffset: 0; stroke: #b2b2b2; stroke-width: 0.5"/>
     </g>
     <g id="line2d_4">
      <g>
       <use xlink:href="#m0ca3316196" x="201.331487" y="339.84" style="stroke: #000000; stroke-width: 0.8"/>
      </g>
     </g>
     <g id="text_2">
      <!-- −1 -->
      <g transform="translate(193.960394 350.938438) scale(0.1 -0.1)">
       <defs>
        <path id="DejaVuSans-31" d="M 794 531 
L 1825 531 
L 1825 4091 
L 703 3866 
L 703 4441 
L 1819 4666 
L 2450 4666 
L 2450 531 
L 3481 531 
L 3481 0 
L 794 0 
L 794 531 
z
" transform="scale(0.015625)"/>
       </defs>
       <use xlink:href="#DejaVuSans-2212"/>
       <use xlink:href="#DejaVuSans-31" x="83.789062"/>
      </g>
     </g>
    </g>
    <g id="xtick_3">
     <g id="line2d_5">
      <path d="M 276.92418 339.84 
L 276.92418 7.2 
" clip-path="url(#pde4855dc28)" style="fill: none; stroke-dasharray: 1.85,0.8; stroke-dashoffset: 0; stroke: #b2b2b2; stroke-width: 0.5"/>
     </g>
     <g id="line2d_6">
      <g>
       <use xlink:href="#m0ca3316196" x="276.92418" y="339.84" style="stroke: #000000; stroke-width: 0.8"/>
      </g>
     </g>
     <g id="text_3">
      <!-- 0 -->
      <g transform="translate(273.74293 350.938438) scale(0.1 -0.1)">
       <defs>
        <path id="DejaVuSans-30" d="M 2034 4250 
Q 1547 4250 1301 3770 
Q 1056 3291 1056 2328 
Q 1056 1369 1301 889 
Q 1547 409 2034 409 
Q 2525 409 2770 889 
Q 3016 1369 3016 2328 
Q 3016 3291 2770 3770 
Q 2525 4250 2034 4250 
z
M 2034 4750 
Q 2819 4750 3233 4129 
Q 3647 3509 3647 2328 
Q 3647 1150 3233 529 
Q 2819 -91 2034 -91 
Q 1250 -91 836 529 
Q 422 1150 422 2328 
Q 422 3509 836 4129 
Q 1250 4750 2034 4750 
z
" transform="scale(0.015625)"/>
       </defs>
       <use xlink:href="#DejaVuSans-30"/>
      </g>
     </g>
    </g>
    <g id="xtick_4">
     <g id="line2d_7">
      <path d="M 352.516872 339.84 
L 352.516872 7.2 
" clip-path="url(#pde4855dc28)" style="fill: none; stroke-dasharray: 1.85,0.8; stroke-dashoffset: 0; stroke: #b2b2b2; stroke-width: 0.5"/>
     </g>
     <g id="line2d_8">
      <g>
       <use xlink:href="#m0ca3316196" x="352.516872" y="339.84" style="stroke: #000000; stroke-width: 0.8"/>
      </g>
     </g>
     <g id="text_4">
      <!-- 1 -->
      <g transform="translate(349.335622 350.938438) scale(0.1 -0.1)">
       <use xlink:href="#DejaVuSans-31"/>
      </g>
     </g>
    </g>
    <g id="xtick_5">
     <g id="line2d_9">
      <path d="M 428.109565 339.84 
L 428.109565 7.2 
" clip-path="url(#pde4855dc28)" style="fill: none; stroke-dasharray: 1.85,0.8; stroke-dashoffset: 0; stroke: #b2b2b2; stroke-width: 0.5"/>
     </g>
     <g id="line2d_10">
      <g>
       <use xlink:href="#m0ca3316196" x="428.109565" y="339.84" style="stroke: #000000; stroke-width: 0.8"/>
      </g>
     </g>
     <g id="text_5">
      <!-- 2 -->
      <g transform="translate(424.928315 350.938438) scale(0.1 -0.1)">
       <use xlink:href="#DejaVuSans-32"/>
      </g>
     </g>
    </g>
    <g id="xtick_6">
     <g id="line2d_11">
      <path d="M 503.702257 339.84 
L 503.702257 7.2 
" clip-path="url(#pde4855dc28)" style="fill: none; stroke-dasharray: 1.85,0.8; stroke-dashoffset: 0; stroke: #b2b2b2; stroke-width: 0.5"/>
     </g>
     <g id="line2d_12">
      <g>
       <use xlink:href="#m0ca3316196" x="503.702257" y="339.84" style="stroke: #000000; stroke-width: 0.8"/>
      </g>
     </g>
     <g id="text_6">
      <!-- 3 -->
      <g transform="translate(500.521007 350.938438) scale(0.1 -0.1)">
       <defs>
        <path id="DejaVuSans-33" d="M 2597 2516 
Q 3050 2419 3304 2112 
Q 3559 1806 3559 1356 
Q 3559 666 3084 287 
Q 2609 -91 1734 -91 
Q 1441 -91 1130 -33 
Q 819 25 488 141 
L 488 750 
Q 750 597 1062 519 
Q 1375 441 1716 441 
Q 2309 441 2620 675 
Q 2931 909 2931 1356 
Q 2931 1769 2642 2001 
Q 2353 2234 1838 2234 
L 1294 2234 
L 1294 2753 
L 1863 2753 
Q 2328 2753 2575 2939 
Q 2822 3125 2822 3475 
Q 2822 3834 2567 4026 
Q 2313 4219 1838 4219 
Q 1578 4219 1281 4162 
Q 984 4106 628 3988 
L 628 4550 
Q 988 4650 1302 4700 
Q 1616 4750 1894 4750 
Q 2613 4750 3031 4423 
Q 3450 4097 3450 3541 
Q 3450 3153 3228 2886 
Q 3006 2619 2597 2516 
z
" transform="scale(0.015625)"/>
       </defs>
       <use xlink:href="#DejaVuSans-33"/>
      </g>
     </g>
    </g>
    <g id="xtick_7">
     <g id="line2d_13">
      <path d="M 579.29495 339.84 
L 579.29495 7.2 
" clip-path="url(#pde4855dc28)" style="fill: none; stroke-dasharray: 1.85,0.8; stroke-dashoffset: 0; stroke: #b2b2b2; stroke-width: 0.5"/>
     </g>
     <g id="line2d_14">
      <g>
       <use xlink:href="#m0ca3316196" x="579.29495" y="339.84" style="stroke: #000000; stroke-width: 0.8"/>
      </g>
     </g>
     <g id="text_7">
      <!-- 4 -->
      <g transform="translate(576.1137 350.938438) scale(0.1 -0.1)">
       <defs>
        <path id="DejaVuSans-34" d="M 2419 4116 
L 825 1625 
L 2419 1625 
L 2419 4116 
z
M 2253 4666 
L 3047 4666 
L 3047 1625 
L 3713 1625 
L 3713 1100 
L 3047 1100 
L 3047 0 
L 2419 0 
L 2419 1100 
L 313 1100 
L 313 1709 
L 2253 4666 
z
" transform="scale(0.015625)"/>
       </defs>
       <use xlink:href="#DejaVuSans-34"/>
      </g>
     </g>
    </g>
    <g id="text_8">
     <!-- x -->
     <g transform="translate(326.045313 366.13625) scale(0.12 -0.12)">
      <defs>
       <path id="DejaVuSans-78" d="M 3513 3500 
L 2247 1797 
L 3578 0 
L 2900 0 
L 1881 1375 
L 863 0 
L 184 0 
L 1544 1831 
L 300 3500 
L 978 3500 
L 1906 2253 
L 2834 3500 
L 3513 3500 
z
" transform="scale(0.015625)"/>
      </defs>
      <use xlink:href="#DejaVuSans-78"/>
     </g>
    </g>
   </g>
   <g id="matplotlib.axis_2">
    <g id="ytick_1">
     <g id="line2d_15">
      <path d="M 50.596563 330.44865 
L 608.596563 330.44865 
" clip-path="url(#pde4855dc28)" style="fill: none; stroke-dasharray: 1.85,0.8; stroke-dashoffset: 0; stroke: #b2b2b2; stroke-width: 0.5"/>
     </g>
     <g id="line2d_16">
      <defs>
       <path id="m6836e3b0a3" d="M 0 0 
L 3.5 0 
" style="stroke: #000000; stroke-width: 0.8"/>
      </defs>
      <g>
       <use xlink:href="#m6836e3b0a3" x="50.596563" y="330.44865" style="stroke: #000000; stroke-width: 0.8"/>
      </g>
     </g>
     <g id="text_9">
      <!-- −7.5 -->
      <g transform="translate(22.81375 334.247869) scale(0.1 -0.1)">
       <defs>
        <path id="DejaVuSans-37" d="M 525 4666 
L 3525 4666 
L 3525 4397 
L 1831 0 
L 1172 0 
L 2766 4134 
L 525 4134 
L 525 4666 
z
" transform="scale(0.015625)"/>
        <path id="DejaVuSans-2e" d="M 684 794 
L 1344 794 
L 1344 0 
L 684 0 
L 684 794 
z
" transform="scale(0.015625)"/>
        <path id="DejaVuSans-35" d="M 691 4666 
L 3169 4666 
L 3169 4134 
L 1269 4134 
L 1269 2991 
Q 1406 3038 1543 3061 
Q 1681 3084 1819 3084 
Q 2600 3084 3056 2656 
Q 3513 2228 3513 1497 
Q 3513 744 3044 326 
Q 2575 -91 1722 -91 
Q 1428 -91 1123 -41 
Q 819 9 494 109 
L 494 744 
Q 775 591 1075 516 
Q 1375 441 1709 441 
Q 2250 441 2565 725 
Q 2881 1009 2881 1497 
Q 2881 1984 2565 2268 
Q 2250 2553 1709 2553 
Q 1456 2553 1204 2497 
Q 953 2441 691 2322 
L 691 4666 
z
" transform="scale(0.015625)"/>
       </defs>
       <use xlink:href="#DejaVuSans-2212"/>
       <use xlink:href="#DejaVuSans-37" x="83.789062"/>
       <use xlink:href="#DejaVuSans-2e" x="147.412109"/>
       <use xlink:href="#DejaVuSans-35" x="179.199219"/>
      </g>
     </g>
    </g>
    <g id="ytick_2">
     <g id="line2d_17">
      <path d="M 50.596563 292.247584 
L 608.596563 292.247584 
" clip-path="url(#pde4855dc28)" style="fill: none; stroke-dasharray: 1.85,0.8; stroke-dashoffset: 0; stroke: #b2b2b2; stroke-width: 0.5"/>
     </g>
     <g id="line2d_18">
      <g>
       <use xlink:href="#m6836e3b0a3" x="50.596563" y="292.247584" style="stroke: #000000; stroke-width: 0.8"/>
      </g>
     </g>
     <g id="text_10">
      <!-- −5.0 -->
      <g transform="translate(22.81375 296.046803) scale(0.1 -0.1)">
       <use xlink:href="#DejaVuSans-2212"/>
       <use xlink:href="#DejaVuSans-35" x="83.789062"/>
       <use xlink:href="#DejaVuSans-2e" x="147.412109"/>
       <use xlink:href="#DejaVuSans-30" x="179.199219"/>
      </g>
     </g>
    </g>
    <g id="ytick_3">
     <g id="line2d_19">
      <path d="M 50.596563 254.046518 
L 608.596563 254.046518 
" clip-path="url(#pde4855dc28)" style="fill: none; stroke-dasharray: 1.85,0.8; stroke-dashoffset: 0; stroke: #b2b2b2; stroke-width: 0.5"/>
     </g>
     <g id="line2d_20">
      <g>
       <use xlink:href="#m6836e3b0a3" x="50.596563" y="254.046518" style="stroke: #000000; stroke-width: 0.8"/>
      </g>
     </g>
     <g id="text_11">
      <!-- −2.5 -->
      <g transform="translate(22.81375 257.845737) scale(0.1 -0.1)">
       <use xlink:href="#DejaVuSans-2212"/>
       <use xlink:href="#DejaVuSans-32" x="83.789062"/>
       <use xlink:href="#DejaVuSans-2e" x="147.412109"/>
       <use xlink:href="#DejaVuSans-35" x="179.199219"/>
      </g>
     </g>
    </g>
    <g id="ytick_4">
     <g id="line2d_21">
      <path d="M 50.596563 215.845452 
L 608.596563 215.845452 
" clip-path="url(#pde4855dc28)" style="fill: none; stroke-dasharray: 1.85,0.8; stroke-dashoffset: 0; stroke: #b2b2b2; stroke-width: 0.5"/>
     </g>
     <g id="line2d_22">
      <g>
       <use xlink:href="#m6836e3b0a3" x="50.596563" y="215.845452" style="stroke: #000000; stroke-width: 0.8"/>
      </g>
     </g>
     <g id="text_12">
      <!-- 0.0 -->
      <g transform="translate(31.193438 219.644671) scale(0.1 -0.1)">
       <use xlink:href="#DejaVuSans-30"/>
       <use xlink:href="#DejaVuSans-2e" x="63.623047"/>
       <use xlink:href="#DejaVuSans-30" x="95.410156"/>
      </g>
     </g>
    </g>
    <g id="ytick_5">
     <g id="line2d_23">
      <path d="M 50.596563 177.644386 
L 608.596563 177.644386 
" clip-path="url(#pde4855dc28)" style="fill: none; stroke-dasharray: 1.85,0.8; stroke-dashoffset: 0; stroke: #b2b2b2; stroke-width: 0.5"/>
     </g>
     <g id="line2d_24">
      <g>
       <use xlink:href="#m6836e3b0a3" x="50.596563" y="177.644386" style="stroke: #000000; stroke-width: 0.8"/>
      </g>
     </g>
     <g id="text_13">
      <!-- 2.5 -->
      <g transform="translate(31.193438 181.443604) scale(0.1 -0.1)">
       <use xlink:href="#DejaVuSans-32"/>
       <use xlink:href="#DejaVuSans-2e" x="63.623047"/>
       <use xlink:href="#DejaVuSans-35" x="95.410156"/>
      </g>
     </g>
    </g>
    <g id="ytick_6">
     <g id="line2d_25">
      <path d="M 50.596563 139.443319 
L 608.596563 139.443319 
" clip-path="url(#pde4855dc28)" style="fill: none; stroke-dasharray: 1.85,0.8; stroke-dashoffset: 0; stroke: #b2b2b2; stroke-width: 0.5"/>
     </g>
     <g id="line2d_26">
      <g>
       <use xlink:href="#m6836e3b0a3" x="50.596563" y="139.443319" style="stroke: #000000; stroke-width: 0.8"/>
      </g>
     </g>
     <g id="text_14">
      <!-- 5.0 -->
      <g transform="translate(31.193438 143.242538) scale(0.1 -0.1)">
       <use xlink:href="#DejaVuSans-35"/>
       <use xlink:href="#DejaVuSans-2e" x="63.623047"/>
       <use xlink:href="#DejaVuSans-30" x="95.410156"/>
      </g>
     </g>
    </g>
    <g id="ytick_7">
     <g id="line2d_27">
      <path d="M 50.596563 101.242253 
L 608.596563 101.242253 
" clip-path="url(#pde4855dc28)" style="fill: none; stroke-dasharray: 1.85,0.8; stroke-dashoffset: 0; stroke: #b2b2b2; stroke-width: 0.5"/>
     </g>
     <g id="line2d_28">
      <g>
       <use xlink:href="#m6836e3b0a3" x="50.596563" y="101.242253" style="stroke: #000000; stroke-width: 0.8"/>
      </g>
     </g>
     <g id="text_15">
      <!-- 7.5 -->
      <g transform="translate(31.193438 105.041472) scale(0.1 -0.1)">
       <use xlink:href="#DejaVuSans-37"/>
       <use xlink:href="#DejaVuSans-2e" x="63.623047"/>
       <use xlink:href="#DejaVuSans-35" x="95.410156"/>
      </g>
     </g>
    </g>
    <g id="ytick_8">
     <g id="line2d_29">
      <path d="M 50.596563 63.041187 
L 608.596563 63.041187 
" clip-path="url(#pde4855dc28)" style="fill: none; stroke-dasharray: 1.85,0.8; stroke-dashoffset: 0; stroke: #b2b2b2; stroke-width: 0.5"/>
     </g>
     <g id="line2d_30">
      <g>
       <use xlink:href="#m6836e3b0a3" x="50.596563" y="63.041187" style="stroke: #000000; stroke-width: 0.8"/>
      </g>
     </g>
     <g id="text_16">
      <!-- 10.0 -->
      <g transform="translate(24.830938 66.840406) scale(0.1 -0.1)">
       <use xlink:href="#DejaVuSans-31"/>
       <use xlink:href="#DejaVuSans-30" x="63.623047"/>
       <use xlink:href="#DejaVuSans-2e" x="127.246094"/>
       <use xlink:href="#DejaVuSans-30" x="159.033203"/>
      </g>
     </g>
    </g>
    <g id="ytick_9">
     <g id="line2d_31">
      <path d="M 50.596563 24.840121 
L 608.596563 24.840121 
" clip-path="url(#pde4855dc28)" style="fill: none; stroke-dasharray: 1.85,0.8; stroke-dashoffset: 0; stroke: #b2b2b2; stroke-width: 0.5"/>
     </g>
     <g id="line2d_32">
      <g>
       <use xlink:href="#m6836e3b0a3" x="50.596563" y="24.840121" style="stroke: #000000; stroke-width: 0.8"/>
      </g>
     </g>
     <g id="text_17">
      <!-- 12.5 -->
      <g transform="translate(24.830938 28.63934) scale(0.1 -0.1)">
       <use xlink:href="#DejaVuSans-31"/>
       <use xlink:href="#DejaVuSans-32" x="63.623047"/>
       <use xlink:href="#DejaVuSans-2e" x="127.246094"/>
       <use xlink:href="#DejaVuSans-35" x="159.033203"/>
      </g>
     </g>
    </g>
    <g id="text_18">
     <!-- y -->
     <g transform="translate(16.318125 177.07125) rotate(-90) scale(0.12 -0.12)">
      <defs>
       <path id="DejaVuSans-79" d="M 2059 -325 
Q 1816 -950 1584 -1140 
Q 1353 -1331 966 -1331 
L 506 -1331 
L 506 -850 
L 844 -850 
Q 1081 -850 1212 -737 
Q 1344 -625 1503 -206 
L 1606 56 
L 191 3500 
L 800 3500 
L 1894 763 
L 2988 3500 
L 3597 3500 
L 2059 -325 
z
" transform="scale(0.015625)"/>
      </defs>
      <use xlink:href="#DejaVuSans-79"/>
     </g>
    </g>
   </g>
   <g id="line2d_33">
    <path d="M 75.960199 307.294241 
L 81.084166 304.530013 
L 86.208133 301.765786 
L 91.3321 299.001558 
L 96.456067 296.237331 
L 101.580034 293.473103 
L 106.704001 290.708876 
L 111.827967 287.944649 
L 116.951934 285.180421 
L 122.075901 282.416194 
L 127.199868 279.651966 
L 132.323835 276.887739 
L 137.447802 274.123511 
L 142.571769 271.359284 
L 147.695736 268.595056 
L 152.819703 265.830829 
L 157.94367 263.066601 
L 163.067637 260.302374 
L 168.191604 257.538147 
L 173.315571 254.773919 
L 178.439538 252.009692 
L 183.563505 249.245464 
L 188.687472 246.481237 
L 193.811439 243.717009 
L 198.935405 240.952782 
L 204.059372 238.188554 
L 209.183339 235.424327 
L 214.307306 232.6601 
L 219.431273 229.895872 
L 224.55524 227.131645 
L 229.679207 224.367417 
L 234.803174 221.60319 
L 239.927141 218.838962 
L 245.051108 216.074735 
L 250.175075 213.310507 
L 255.299042 210.54628 
L 260.423009 207.782053 
L 265.546976 205.017825 
L 270.670943 202.253598 
L 275.79491 199.48937 
L 280.918877 196.725143 
L 286.042843 193.960915 
L 291.16681 191.196688 
L 296.290777 188.43246 
L 301.414744 185.668233 
L 306.538711 182.904005 
L 311.662678 180.139778 
L 316.786645 177.375551 
L 321.910612 174.611323 
L 327.034579 171.847096 
L 332.158546 169.082868 
L 337.282513 166.318641 
L 342.40648 163.554413 
L 347.530447 160.790186 
L 352.654414 158.025958 
L 357.778381 155.261731 
L 362.902348 152.497504 
L 368.026315 149.733276 
L 373.150282 146.969049 
L 378.274248 144.204821 
L 383.398215 141.440594 
L 388.522182 138.676366 
L 393.646149 135.912139 
L 398.770116 133.147911 
L 403.894083 130.383684 
L 409.01805 127.619457 
L 414.142017 124.855229 
L 419.265984 122.091002 
L 424.389951 119.326774 
L 429.513918 116.562547 
L 434.637885 113.798319 
L 439.761852 111.034092 
L 444.885819 108.269864 
L 450.009786 105.505637 
L 455.133753 102.741409 
L 460.25772 99.977182 
L 465.381686 97.212955 
L 470.505653 94.448727 
L 475.62962 91.6845 
L 480.753587 88.920272 
L 485.877554 86.156045 
L 491.001521 83.391817 
L 496.125488 80.62759 
L 501.249455 77.863362 
L 506.373422 75.099135 
L 511.497389 72.334908 
L 516.621356 69.57068 
L 521.745323 66.806453 
L 526.86929 64.042225 
L 531.993257 61.277998 
L 537.117224 58.51377 
L 542.241191 55.749543 
L 547.365158 52.985315 
L 552.489124 50.221088 
L 557.613091 47.456861 
L 562.737058 44.692633 
L 567.861025 41.928406 
L 572.984992 39.164178 
L 578.108959 36.399951 
L 583.232926 33.635723 
" clip-path="url(#pde4855dc28)" style="fill: none; stroke: #348abd; stroke-width: 3; stroke-linecap: square"/>
   </g>
   <g id="patch_3">
    <path d="M 50.596563 339.84 
L 50.596563 7.2 
" style="fill: none; stroke: #bcbcbc; stroke-width: 0.8; stroke-linejoin: miter; stroke-linecap: square"/>
   </g>
   <g id="patch_4">
    <path d="M 608.596563 339.84 
L 608.596563 7.2 
" style="fill: none; stroke: #bcbcbc; stroke-width: 0.8; stroke-linejoin: miter; stroke-linecap: square"/>
   </g>
   <g id="patch_5">
    <path d="M 50.596563 339.84 
L 608.596563 339.84 
" style="fill: none; stroke: #bcbcbc; stroke-width: 0.8; stroke-linejoin: miter; stroke-linecap: square"/>
   </g>
   <g id="patch_6">
    <path d="M 50.596563 7.2 
L 608.596563 7.2 
" style="fill: none; stroke: #bcbcbc; stroke-width: 0.8; stroke-linejoin: miter; stroke-linecap: square"/>
   </g>
  </g>
 </g>
 <defs>
  <clipPath id="pde4855dc28">
   <rect x="50.596563" y="7.2" width="558" height="332.64"/>
  </clipPath>
 </defs>
</svg>