<?xml version="1.0" encoding="utf-8" standalone="no"?>
<!DOCTYPE svg PUBLIC "-//W3C//DTD SVG 1.1//EN"
  "http://www.w3.org/Graphics/SVG/1.1/DTD/svg11.dtd">
<svg xmlns:xlink="http://www.w3.org/1999/xlink" width="603.307031pt" height="366.599844pt" viewBox="0 0 603.307031 366.599844" xmlns="http://www.w3.org/2000/svg" version="1.1">
 <metadata>
  <rdf:RDF xmlns:dc="http://purl.org/dc/elements/1.1/" xmlns:cc="http://creativecommons.org/ns#" xmlns:rdf="http://www.w3.org/1999/02/22-rdf-syntax-ns#">
   <cc:Work>
    <dc:type rdf:resource="http://purl.org/dc/dcmitype/StillImage"/>
    <dc:date>2023-06-17T10:51:19.014983</dc:date>
    <dc:format>image/svg+xml</dc:format>
    <dc:creator>
     <cc:Agent>
      <dc:title>Matplotlib v3.7.1, https://matplotlib.org/</dc:title>
     </cc:Agent>
    </dc:creator>
   </cc:Work>
  </rdf:RDF>
 </metadata>
 <defs>
  <style type="text/css">*{stroke-linejoin: round; stroke-linecap: butt}</style>
 </defs>
 <g id="figure_1">
  <g id="patch_1">
   <path d="M 0 366.599844 
L 603.307031 366.599844 
L 603.307031 0 
L 0 0 
z
" style="fill: #ffffff"/>
  </g>
  <g id="axes_1">
   <g id="patch_2">
    <path d="M 38.107031 339.84 
L 596.107031 339.84 
L 596.107031 7.2 
L 38.107031 7.2 
z
" style="fill: #eaeaf2"/>
   </g>
   <g id="matplotlib.axis_1">
    <g id="xtick_1">
     <g id="line2d_1">
      <path d="M 50.782505 339.84 
L 50.782505 7.2 
" clip-path="url(#p2a10c542ae)" style="fill: none; stroke: #ffffff; stroke-linecap: round"/>
     </g>
     <g id="text_1">
      <!-- 17.5 -->
      <g style="fill: #262626" transform="translate(40.07899 357.213594) scale(0.11 -0.11)">
       <defs>
        <path id="ArialMT-31" d="M 2384 0 
L 1822 0 
L 1822 3584 
Q 1619 3391 1289 3197 
Q 959 3003 697 2906 
L 697 3450 
Q 1169 3672 1522 3987 
Q 1875 4303 2022 4600 
L 2384 4600 
L 2384 0 
z
" transform="scale(0.015625)"/>
        <path id="ArialMT-37" d="M 303 3981 
L 303 4522 
L 3269 4522 
L 3269 4084 
Q 2831 3619 2401 2847 
Q 1972 2075 1738 1259 
Q 1569 684 1522 0 
L 944 0 
Q 953 541 1156 1306 
Q 1359 2072 1739 2783 
Q 2119 3494 2547 3981 
L 303 3981 
z
" transform="scale(0.015625)"/>
        <path id="ArialMT-2e" d="M 581 0 
L 581 641 
L 1222 641 
L 1222 0 
L 581 0 
z
" transform="scale(0.015625)"/>
        <path id="ArialMT-35" d="M 266 1200 
L 856 1250 
Q 922 819 1161 601 
Q 1400 384 1738 384 
Q 2144 384 2425 690 
Q 2706 997 2706 1503 
Q 2706 1984 2436 2262 
Q 2166 2541 1728 2541 
Q 1456 2541 1237 2417 
Q 1019 2294 894 2097 
L 366 2166 
L 809 4519 
L 3088 4519 
L 3088 3981 
L 1259 3981 
L 1013 2750 
Q 1425 3038 1878 3038 
Q 2478 3038 2890 2622 
Q 3303 2206 3303 1553 
Q 3303 931 2941 478 
Q 2500 -78 1738 -78 
Q 1113 -78 717 272 
Q 322 622 266 1200 
z
" transform="scale(0.015625)"/>
       </defs>
       <use xlink:href="#ArialMT-31"/>
       <use xlink:href="#ArialMT-37" x="55.615234"/>
       <use xlink:href="#ArialMT-2e" x="111.230469"/>
       <use xlink:href="#ArialMT-35" x="139.013672"/>
      </g>
     </g>
    </g>
    <g id="xtick_2">
     <g id="line2d_2">
      <path d="M 114.223317 339.84 
L 114.223317 7.2 
" clip-path="url(#p2a10c542ae)" style="fill: none; stroke: #ffffff; stroke-linecap: round"/>
     </g>
     <g id="text_2">
      <!-- 20.0 -->
      <g style="fill: #262626" transform="translate(103.519801 357.213594) scale(0.11 -0.11)">
       <defs>
        <path id="ArialMT-32" d="M 3222 541 
L 3222 0 
L 194 0 
Q 188 203 259 391 
Q 375 700 629 1000 
Q 884 1300 1366 1694 
Q 2113 2306 2375 2664 
Q 2638 3022 2638 3341 
Q 2638 3675 2398 3904 
Q 2159 4134 1775 4134 
Q 1369 4134 1125 3890 
Q 881 3647 878 3216 
L 300 3275 
Q 359 3922 746 4261 
Q 1134 4600 1788 4600 
Q 2447 4600 2831 4234 
Q 3216 3869 3216 3328 
Q 3216 3053 3103 2787 
Q 2991 2522 2730 2228 
Q 2469 1934 1863 1422 
Q 1356 997 1212 845 
Q 1069 694 975 541 
L 3222 541 
z
" transform="scale(0.015625)"/>
        <path id="ArialMT-30" d="M 266 2259 
Q 266 3072 433 3567 
Q 600 4063 929 4331 
Q 1259 4600 1759 4600 
Q 2128 4600 2406 4451 
Q 2684 4303 2865 4023 
Q 3047 3744 3150 3342 
Q 3253 2941 3253 2259 
Q 3253 1453 3087 958 
Q 2922 463 2592 192 
Q 2263 -78 1759 -78 
Q 1097 -78 719 397 
Q 266 969 266 2259 
z
M 844 2259 
Q 844 1131 1108 757 
Q 1372 384 1759 384 
Q 2147 384 2411 759 
Q 2675 1134 2675 2259 
Q 2675 3391 2411 3762 
Q 2147 4134 1753 4134 
Q 1366 4134 1134 3806 
Q 844 3388 844 2259 
z
" transform="scale(0.015625)"/>
       </defs>
       <use xlink:href="#ArialMT-32"/>
       <use xlink:href="#ArialMT-30" x="55.615234"/>
       <use xlink:href="#ArialMT-2e" x="111.230469"/>
       <use xlink:href="#ArialMT-30" x="139.013672"/>
      </g>
     </g>
    </g>
    <g id="xtick_3">
     <g id="line2d_3">
      <path d="M 177.664128 339.84 
L 177.664128 7.2 
" clip-path="url(#p2a10c542ae)" style="fill: none; stroke: #ffffff; stroke-linecap: round"/>
     </g>
     <g id="text_3">
      <!-- 22.5 -->
      <g style="fill: #262626" transform="translate(166.960612 357.213594) scale(0.11 -0.11)">
       <use xlink:href="#ArialMT-32"/>
       <use xlink:href="#ArialMT-32" x="55.615234"/>
       <use xlink:href="#ArialMT-2e" x="111.230469"/>
       <use xlink:href="#ArialMT-35" x="139.013672"/>
      </g>
     </g>
    </g>
    <g id="xtick_4">
     <g id="line2d_4">
      <path d="M 241.104939 339.84 
L 241.104939 7.2 
" clip-path="url(#p2a10c542ae)" style="fill: none; stroke: #ffffff; stroke-linecap: round"/>
     </g>
     <g id="text_4">
      <!-- 25.0 -->
      <g style="fill: #262626" transform="translate(230.401424 357.213594) scale(0.11 -0.11)">
       <use xlink:href="#ArialMT-32"/>
       <use xlink:href="#ArialMT-35" x="55.615234"/>
       <use xlink:href="#ArialMT-2e" x="111.230469"/>
       <use xlink:href="#ArialMT-30" x="139.013672"/>
      </g>
     </g>
    </g>
    <g id="xtick_5">
     <g id="line2d_5">
      <path d="M 304.545751 339.84 
L 304.545751 7.2 
" clip-path="url(#p2a10c542ae)" style="fill: none; stroke: #ffffff; stroke-linecap: round"/>
     </g>
     <g id="text_5">
      <!-- 27.5 -->
      <g style="fill: #262626" transform="translate(293.842235 357.213594) scale(0.11 -0.11)">
       <use xlink:href="#ArialMT-32"/>
       <use xlink:href="#ArialMT-37" x="55.615234"/>
       <use xlink:href="#ArialMT-2e" x="111.230469"/>
       <use xlink:href="#ArialMT-35" x="139.013672"/>
      </g>
     </g>
    </g>
    <g id="xtick_6">
     <g id="line2d_6">
      <path d="M 367.986562 339.84 
L 367.986562 7.2 
" clip-path="url(#p2a10c542ae)" style="fill: none; stroke: #ffffff; stroke-linecap: round"/>
     </g>
     <g id="text_6">
      <!-- 30.0 -->
      <g style="fill: #262626" transform="translate(357.283046 357.213594) scale(0.11 -0.11)">
       <defs>
        <path id="ArialMT-33" d="M 269 1209 
L 831 1284 
Q 928 806 1161 595 
Q 1394 384 1728 384 
Q 2125 384 2398 659 
Q 2672 934 2672 1341 
Q 2672 1728 2419 1979 
Q 2166 2231 1775 2231 
Q 1616 2231 1378 2169 
L 1441 2663 
Q 1497 2656 1531 2656 
Q 1891 2656 2178 2843 
Q 2466 3031 2466 3422 
Q 2466 3731 2256 3934 
Q 2047 4138 1716 4138 
Q 1388 4138 1169 3931 
Q 950 3725 888 3313 
L 325 3413 
Q 428 3978 793 4289 
Q 1159 4600 1703 4600 
Q 2078 4600 2393 4439 
Q 2709 4278 2876 4000 
Q 3044 3722 3044 3409 
Q 3044 3113 2884 2869 
Q 2725 2625 2413 2481 
Q 2819 2388 3044 2092 
Q 3269 1797 3269 1353 
Q 3269 753 2831 336 
Q 2394 -81 1725 -81 
Q 1122 -81 723 278 
Q 325 638 269 1209 
z
" transform="scale(0.015625)"/>
       </defs>
       <use xlink:href="#ArialMT-33"/>
       <use xlink:href="#ArialMT-30" x="55.615234"/>
       <use xlink:href="#ArialMT-2e" x="111.230469"/>
       <use xlink:href="#ArialMT-30" x="139.013672"/>
      </g>
     </g>
    </g>
    <g id="xtick_7">
     <g id="line2d_7">
      <path d="M 431.427373 339.84 
L 431.427373 7.2 
" clip-path="url(#p2a10c542ae)" style="fill: none; stroke: #ffffff; stroke-linecap: round"/>
     </g>
     <g id="text_7">
      <!-- 32.5 -->
      <g style="fill: #262626" transform="translate(420.723858 357.213594) scale(0.11 -0.11)">
       <use xlink:href="#ArialMT-33"/>
       <use xlink:href="#ArialMT-32" x="55.615234"/>
       <use xlink:href="#ArialMT-2e" x="111.230469"/>
       <use xlink:href="#ArialMT-35" x="139.013672"/>
      </g>
     </g>
    </g>
    <g id="xtick_8">
     <g id="line2d_8">
      <path d="M 494.868185 339.84 
L 494.868185 7.2 
" clip-path="url(#p2a10c542ae)" style="fill: none; stroke: #ffffff; stroke-linecap: round"/>
     </g>
     <g id="text_8">
      <!-- 35.0 -->
      <g style="fill: #262626" transform="translate(484.164669 357.213594) scale(0.11 -0.11)">
       <use xlink:href="#ArialMT-33"/>
       <use xlink:href="#ArialMT-35" x="55.615234"/>
       <use xlink:href="#ArialMT-2e" x="111.230469"/>
       <use xlink:href="#ArialMT-30" x="139.013672"/>
      </g>
     </g>
    </g>
    <g id="xtick_9">
     <g id="line2d_9">
      <path d="M 558.308996 339.84 
L 558.308996 7.2 
" clip-path="url(#p2a10c542ae)" style="fill: none; stroke: #ffffff; stroke-linecap: round"/>
     </g>
     <g id="text_9">
      <!-- 37.5 -->
      <g style="fill: #262626" transform="translate(547.60548 357.213594) scale(0.11 -0.11)">
       <use xlink:href="#ArialMT-33"/>
       <use xlink:href="#ArialMT-37" x="55.615234"/>
       <use xlink:href="#ArialMT-2e" x="111.230469"/>
       <use xlink:href="#ArialMT-35" x="139.013672"/>
      </g>
     </g>
    </g>
   </g>
   <g id="matplotlib.axis_2">
    <g id="ytick_1">
     <g id="line2d_10">
      <path d="M 38.107031 324.72 
L 596.107031 324.72 
" clip-path="url(#p2a10c542ae)" style="fill: none; stroke: #ffffff; stroke-linecap: round"/>
     </g>
     <g id="text_10">
      <!-- 0.00 -->
      <g style="fill: #262626" transform="translate(7.2 328.656797) scale(0.11 -0.11)">
       <use xlink:href="#ArialMT-30"/>
       <use xlink:href="#ArialMT-2e" x="55.615234"/>
       <use xlink:href="#ArialMT-30" x="83.398438"/>
       <use xlink:href="#ArialMT-30" x="139.013672"/>
      </g>
     </g>
    </g>
    <g id="ytick_2">
     <g id="line2d_11">
      <path d="M 38.107031 285.572133 
L 596.107031 285.572133 
" clip-path="url(#p2a10c542ae)" style="fill: none; stroke: #ffffff; stroke-linecap: round"/>
     </g>
     <g id="text_11">
      <!-- 0.05 -->
      <g style="fill: #262626" transform="translate(7.2 289.50893) scale(0.11 -0.11)">
       <use xlink:href="#ArialMT-30"/>
       <use xlink:href="#ArialMT-2e" x="55.615234"/>
       <use xlink:href="#ArialMT-30" x="83.398438"/>
       <use xlink:href="#ArialMT-35" x="139.013672"/>
      </g>
     </g>
    </g>
    <g id="ytick_3">
     <g id="line2d_12">
      <path d="M 38.107031 246.424267 
L 596.107031 246.424267 
" clip-path="url(#p2a10c542ae)" style="fill: none; stroke: #ffffff; stroke-linecap: round"/>
     </g>
     <g id="text_12">
      <!-- 0.10 -->
      <g style="fill: #262626" transform="translate(7.2 250.361064) scale(0.11 -0.11)">
       <use xlink:href="#ArialMT-30"/>
       <use xlink:href="#ArialMT-2e" x="55.615234"/>
       <use xlink:href="#ArialMT-31" x="83.398438"/>
       <use xlink:href="#ArialMT-30" x="139.013672"/>
      </g>
     </g>
    </g>
    <g id="ytick_4">
     <g id="line2d_13">
      <path d="M 38.107031 207.2764 
L 596.107031 207.2764 
" clip-path="url(#p2a10c542ae)" style="fill: none; stroke: #ffffff; stroke-linecap: round"/>
     </g>
     <g id="text_13">
      <!-- 0.15 -->
      <g style="fill: #262626" transform="translate(7.2 211.213197) scale(0.11 -0.11)">
       <use xlink:href="#ArialMT-30"/>
       <use xlink:href="#ArialMT-2e" x="55.615234"/>
       <use xlink:href="#ArialMT-31" x="83.398438"/>
       <use xlink:href="#ArialMT-35" x="139.013672"/>
      </g>
     </g>
    </g>
    <g id="ytick_5">
     <g id="line2d_14">
      <path d="M 38.107031 168.128534 
L 596.107031 168.128534 
" clip-path="url(#p2a10c542ae)" style="fill: none; stroke: #ffffff; stroke-linecap: round"/>
     </g>
     <g id="text_14">
      <!-- 0.20 -->
      <g style="fill: #262626" transform="translate(7.2 172.06533) scale(0.11 -0.11)">
       <use xlink:href="#ArialMT-30"/>
       <use xlink:href="#ArialMT-2e" x="55.615234"/>
       <use xlink:href="#ArialMT-32" x="83.398438"/>
       <use xlink:href="#ArialMT-30" x="139.013672"/>
      </g>
     </g>
    </g>
    <g id="ytick_6">
     <g id="line2d_15">
      <path d="M 38.107031 128.980667 
L 596.107031 128.980667 
" clip-path="url(#p2a10c542ae)" style="fill: none; stroke: #ffffff; stroke-linecap: round"/>
     </g>
     <g id="text_15">
      <!-- 0.25 -->
      <g style="fill: #262626" transform="translate(7.2 132.917464) scale(0.11 -0.11)">
       <use xlink:href="#ArialMT-30"/>
       <use xlink:href="#ArialMT-2e" x="55.615234"/>
       <use xlink:href="#ArialMT-32" x="83.398438"/>
       <use xlink:href="#ArialMT-35" x="139.013672"/>
      </g>
     </g>
    </g>
    <g id="ytick_7">
     <g id="line2d_16">
      <path d="M 38.107031 89.8328 
L 596.107031 89.8328 
" clip-path="url(#p2a10c542ae)" style="fill: none; stroke: #ffffff; stroke-linecap: round"/>
     </g>
     <g id="text_16">
      <!-- 0.30 -->
      <g style="fill: #262626" transform="translate(7.2 93.769597) scale(0.11 -0.11)">
       <use xlink:href="#ArialMT-30"/>
       <use xlink:href="#ArialMT-2e" x="55.615234"/>
       <use xlink:href="#ArialMT-33" x="83.398438"/>
       <use xlink:href="#ArialMT-30" x="139.013672"/>
      </g>
     </g>
    </g>
    <g id="ytick_8">
     <g id="line2d_17">
      <path d="M 38.107031 50.684934 
L 596.107031 50.684934 
" clip-path="url(#p2a10c542ae)" style="fill: none; stroke: #ffffff; stroke-linecap: round"/>
     </g>
     <g id="text_17">
      <!-- 0.35 -->
      <g style="fill: #262626" transform="translate(7.2 54.621731) scale(0.11 -0.11)">
       <use xlink:href="#ArialMT-30"/>
       <use xlink:href="#ArialMT-2e" x="55.615234"/>
       <use xlink:href="#ArialMT-33" x="83.398438"/>
       <use xlink:href="#ArialMT-35" x="139.013672"/>
      </g>
     </g>
    </g>
    <g id="ytick_9">
     <g id="line2d_18">
      <path d="M 38.107031 11.537067 
L 596.107031 11.537067 
" clip-path="url(#p2a10c542ae)" style="fill: none; stroke: #ffffff; stroke-linecap: round"/>
     </g>
     <g id="text_18">
      <!-- 0.40 -->
      <g style="fill: #262626" transform="translate(7.2 15.473864) scale(0.11 -0.11)">
       <defs>
        <path id="ArialMT-34" d="M 2069 0 
L 2069 1097 
L 81 1097 
L 81 1613 
L 2172 4581 
L 2631 4581 
L 2631 1613 
L 3250 1613 
L 3250 1097 
L 2631 1097 
L 2631 0 
L 2069 0 
z
M 2069 1613 
L 2069 3678 
L 634 1613 
L 2069 1613 
z
" transform="scale(0.015625)"/>
       </defs>
       <use xlink:href="#ArialMT-30"/>
       <use xlink:href="#ArialMT-2e" x="55.615234"/>
       <use xlink:href="#ArialMT-34" x="83.398438"/>
       <use xlink:href="#ArialMT-30" x="139.013672"/>
      </g>
     </g>
    </g>
   </g>
   <g id="line2d_19">
    <path d="M 63.470668 324.378363 
L 74.382487 324.01151 
L 82.756674 323.518234 
L 89.608282 322.905373 
L 95.6986 322.142345 
L 101.027628 321.256802 
L 105.84913 320.238849 
L 110.416868 319.047216 
L 114.730843 317.684685 
L 118.791055 316.16135 
L 122.597504 314.494547 
L 126.150189 312.708314 
L 129.702875 310.679023 
L 133.25556 308.387124 
L 136.808245 305.813988 
L 140.107168 303.157785 
L 143.40609 300.232079 
L 146.705012 297.026645 
L 150.257697 293.252902 
L 153.810383 289.139687 
L 157.363068 284.685464 
L 161.169517 279.538849 
L 164.975966 274.016624 
L 169.036178 267.734749 
L 173.350153 260.656166 
L 178.171654 252.321 
L 184.008209 241.774813 
L 204.309269 204.637382 
L 208.623244 197.465058 
L 212.175929 191.960066 
L 215.474852 187.239789 
L 218.52001 183.265234 
L 221.311406 179.979499 
L 223.849039 177.313734 
L 226.386671 174.973706 
L 228.67054 173.160242 
L 230.954409 171.635128 
L 232.984515 170.528939 
L 235.014621 169.663047 
L 237.044727 169.041577 
L 239.074833 168.6675 
L 241.104939 168.542608 
L 243.135045 168.6675 
L 245.165151 169.041577 
L 247.195257 169.663047 
L 249.225363 170.528939 
L 251.255469 171.635128 
L 253.285575 172.976365 
L 255.569444 174.758291 
L 257.853313 176.819095 
L 260.390946 179.421174 
L 262.928578 182.333885 
L 265.719974 185.871975 
L 268.765133 190.09677 
L 272.064055 195.056519 
L 275.870504 201.202853 
L 280.184479 208.609481 
L 285.513507 218.216272 
L 296.425327 238.496524 
L 303.530698 251.421328 
L 308.859726 260.656166 
L 313.427464 268.138618 
L 317.741439 274.773997 
L 321.801651 280.598708 
L 325.6081 285.668551 
L 329.160785 290.049819 
L 332.713471 294.089998 
L 336.266156 297.79164 
L 339.818842 301.161658 
L 343.371527 304.210668 
L 346.924213 306.952339 
L 350.476898 309.402745 
L 354.029583 311.579751 
L 357.582269 313.502445 
L 361.388718 315.302756 
L 365.195166 316.85848 
L 369.255378 318.275803 
L 373.569353 319.539288 
L 378.137092 320.640426 
L 382.958593 321.577622 
L 388.287622 322.389711 
L 394.377939 323.08639 
L 401.229547 323.643215 
L 409.603734 324.088847 
L 420.008027 324.407084 
L 434.472532 324.609976 
L 459.595093 324.705235 
L 561.100392 324.72 
L 570.743395 324.72 
L 570.743395 324.72 
" clip-path="url(#p2a10c542ae)" style="fill: none; stroke: #0173b2; stroke-width: 1.5; stroke-linecap: round"/>
   </g>
   <g id="line2d_20">
    <path d="M 63.470668 324.72 
L 272.825345 324.611776 
L 282.214585 324.36662 
L 288.304903 323.997246 
L 293.126405 323.482952 
L 296.932853 322.863166 
L 300.231775 322.113717 
L 303.276934 321.193762 
L 306.06833 320.109426 
L 308.605963 318.88057 
L 310.889832 317.540663 
L 313.173701 315.943989 
L 315.45757 314.053819 
L 317.487676 312.09566 
L 319.517782 309.845847 
L 321.547888 307.274651 
L 323.577994 304.351881 
L 325.6081 301.047395 
L 327.638206 297.331702 
L 329.668312 293.176646 
L 331.698418 288.556157 
L 333.982287 282.773089 
L 336.266156 276.344625 
L 338.550025 269.251343 
L 341.087658 260.57834 
L 343.62529 251.074703 
L 346.416686 239.687686 
L 349.461845 226.219556 
L 352.760767 210.538432 
L 356.567216 191.324854 
L 362.657534 159.234518 
L 368.240325 130.204497 
L 371.539247 114.144372 
L 374.330643 101.62718 
L 376.614512 92.326176 
L 378.644618 84.895847 
L 380.420961 79.118136 
L 382.197304 74.075944 
L 383.719883 70.377973 
L 385.242463 67.285195 
L 386.511279 65.187101 
L 387.780095 63.536558 
L 388.795148 62.544305 
L 389.810201 61.847486 
L 390.825254 61.448472 
L 391.840307 61.348624 
L 392.601597 61.470309 
L 393.61665 61.894205 
L 394.631703 62.615749 
L 395.646756 63.632483 
L 396.661809 64.940956 
L 397.930625 66.979965 
L 399.199441 69.457087 
L 400.722021 72.989535 
L 402.2446 77.107679 
L 404.020943 82.611583 
L 406.051049 89.756574 
L 408.081155 97.725936 
L 410.365024 107.553216 
L 413.15642 120.591123 
L 416.709105 138.391786 
L 422.291896 167.762502 
L 428.635978 200.844192 
L 432.442426 219.512675 
L 435.741348 234.574401 
L 438.532744 246.360694 
L 441.32414 257.189419 
L 443.861772 266.16822 
L 446.399405 274.312868 
L 448.683274 280.93668 
L 450.967143 286.908464 
L 453.251012 292.253244 
L 455.534882 297.002604 
L 457.818751 301.193091 
L 459.848857 304.481076 
L 461.878963 307.388594 
L 463.909069 309.945798 
L 465.939175 312.18287 
L 468.223044 314.353864 
L 470.506913 316.198136 
L 472.790782 317.754517 
L 475.074651 319.059344 
L 477.612284 320.254813 
L 480.40368 321.308515 
L 483.448839 322.2014 
L 486.747761 322.927845 
L 490.554209 323.527738 
L 495.121948 324.004192 
L 500.704739 324.348126 
L 508.317637 324.575957 
L 520.752036 324.693334 
L 557.547706 324.719933 
L 570.743395 324.719995 
L 570.743395 324.719995 
" clip-path="url(#p2a10c542ae)" style="fill: none; stroke: #de8f05; stroke-width: 1.5; stroke-linecap: round"/>
   </g>
   <g id="line2d_21">
    <path d="M 63.470668 324.72 
L 247.195257 324.610007 
L 255.061918 324.372844 
L 260.390946 324.001478 
L 264.451158 323.503564 
L 267.75008 322.886869 
L 270.541476 322.158325 
L 273.079108 321.281504 
L 275.362977 320.274216 
L 277.646847 319.015323 
L 279.676953 317.645196 
L 281.707059 315.998472 
L 283.737164 314.032759 
L 285.513507 312.015211 
L 287.28985 309.685992 
L 289.066193 307.011266 
L 290.842535 303.956255 
L 292.618878 300.485766 
L 294.395221 296.564817 
L 296.171564 292.159367 
L 298.201669 286.490007 
L 300.231775 280.101964 
L 302.261881 272.957942 
L 304.291987 265.029189 
L 306.575857 255.149286 
L 308.859726 244.247351 
L 311.397358 230.957802 
L 313.934991 216.492726 
L 316.98015 197.740288 
L 320.532835 174.305449 
L 325.861863 137.365602 
L 331.190891 100.803106 
L 334.23605 81.348962 
L 336.773683 66.527872 
L 338.803789 55.844339 
L 340.580131 47.501703 
L 342.356474 40.209873 
L 343.879054 34.86872 
L 345.14787 31.09903 
L 346.416686 27.976454 
L 347.431739 25.958965 
L 348.446792 24.378503 
L 349.461845 23.242127 
L 350.223135 22.684416 
L 350.984424 22.380818 
L 351.745714 22.332102 
L 352.507004 22.538391 
L 353.268294 22.999162 
L 354.029583 23.713251 
L 355.044636 25.056215 
L 356.059689 26.840235 
L 357.074742 29.057355 
L 358.343559 32.42263 
L 359.612375 36.425922 
L 361.134954 42.03327 
L 362.657534 48.465267 
L 364.433876 56.928992 
L 366.463982 67.73404 
L 368.747852 81.122393 
L 371.539247 98.882839 
L 375.345696 124.722415 
L 384.988699 190.953063 
L 388.287622 211.715073 
L 391.079017 227.949649 
L 393.61665 241.49834 
L 396.154282 253.81777 
L 398.438151 263.827928 
L 400.722021 272.820344 
L 402.752127 279.97846 
L 404.782232 286.379988 
L 406.812338 292.062088 
L 408.842444 297.068453 
L 410.87255 301.447378 
L 412.902656 305.249996 
L 414.932762 308.528703 
L 416.962868 311.33581 
L 418.992974 313.722414 
L 421.02308 315.737493 
L 423.053186 317.427229 
L 425.083292 318.834513 
L 427.367161 320.12887 
L 429.651031 321.165655 
L 432.188663 322.069173 
L 434.980059 322.820829 
L 438.278981 323.45798 
L 442.08543 323.94783 
L 446.653168 324.303515 
L 452.743486 324.545579 
L 462.386489 324.680632 
L 486.240234 324.719446 
L 570.743395 324.72 
L 570.743395 324.72 
" clip-path="url(#p2a10c542ae)" style="fill: none; stroke: #029e73; stroke-width: 1.5; stroke-linecap: round"/>
   </g>
   <g id="patch_3">
    <path d="M 38.107031 339.84 
L 38.107031 7.2 
" style="fill: none; stroke: #ffffff; stroke-width: 1.25; stroke-linejoin: miter; stroke-linecap: square"/>
   </g>
   <g id="patch_4">
    <path d="M 596.107031 339.84 
L 596.107031 7.2 
" style="fill: none; stroke: #ffffff; stroke-width: 1.25; stroke-linejoin: miter; stroke-linecap: square"/>
   </g>
   <g id="patch_5">
    <path d="M 38.107031 339.84 
L 596.107031 339.84 
" style="fill: none; stroke: #ffffff; stroke-width: 1.25; stroke-linejoin: miter; stroke-linecap: square"/>
   </g>
   <g id="patch_6">
    <path d="M 38.107031 7.2 
L 596.107031 7.2 
" style="fill: none; stroke: #ffffff; stroke-width: 1.25; stroke-linejoin: miter; stroke-linecap: square"/>
   </g>
  </g>
 </g>
 <defs>
  <clipPath id="p2a10c542ae">
   <rect x="38.107031" y="7.2" width="558" height="332.64"/>
  </clipPath>
 </defs>
</svg>