<?xml version="1.0" encoding="utf-8" standalone="no"?>
<!DOCTYPE svg PUBLIC "-//W3C//DTD SVG 1.1//EN"
  "http://www.w3.org/Graphics/SVG/1.1/DTD/svg11.dtd">
<svg xmlns:xlink="http://www.w3.org/1999/xlink" width="410.040011pt" height="353.037375pt" viewBox="0 0 410.040011 353.037375" xmlns="http://www.w3.org/2000/svg" version="1.1">
 <metadata>
  <rdf:RDF xmlns:dc="http://purl.org/dc/elements/1.1/" xmlns:cc="http://creativecommons.org/ns#" xmlns:rdf="http://www.w3.org/1999/02/22-rdf-syntax-ns#">
   <cc:Work>
    <dc:type rdf:resource="http://purl.org/dc/dcmitype/StillImage"/>
    <dc:date>2023-05-29T06:59:23.916972</dc:date>
    <dc:format>image/svg+xml</dc:format>
    <dc:creator>
     <cc:Agent>
      <dc:title>Matplotlib v3.7.1, https://matplotlib.org/</dc:title>
     </cc:Agent>
    </dc:creator>
   </cc:Work>
  </rdf:RDF>
 </metadata>
 <defs>
  <style type="text/css">*{stroke-linejoin: round; stroke-linecap: butt}</style>
 </defs>
 <g id="figure_1">
  <g id="patch_1">
   <path d="M 0 353.037375 
L 410.040011 353.037375 
L 410.040011 0 
L 0 0 
z
" style="fill: #ffffff"/>
  </g>
  <g id="axes_1">
   <g id="patch_2">
    <path d="M 47.9665 316.60275 
L 344.827711 316.60275 
L 344.827711 7.2 
L 47.9665 7.2 
z
" style="fill: #eaeaf2"/>
   </g>
   <g id="matplotlib.axis_1">
    <g id="xtick_1">
     <g id="text_1">
      <!-- Adelie -->
      <g style="fill: #262626" transform="translate(85.212744 331.201625) scale(0.088 -0.088)">
       <defs>
        <path id="ArialMT-41" d="M -9 0 
L 1750 4581 
L 2403 4581 
L 4278 0 
L 3588 0 
L 3053 1388 
L 1138 1388 
L 634 0 
L -9 0 
z
M 1313 1881 
L 2866 1881 
L 2388 3150 
Q 2169 3728 2063 4100 
Q 1975 3659 1816 3225 
L 1313 1881 
z
" transform="scale(0.015625)"/>
        <path id="ArialMT-64" d="M 2575 0 
L 2575 419 
Q 2259 -75 1647 -75 
Q 1250 -75 917 144 
Q 584 363 401 755 
Q 219 1147 219 1656 
Q 219 2153 384 2558 
Q 550 2963 881 3178 
Q 1213 3394 1622 3394 
Q 1922 3394 2156 3267 
Q 2391 3141 2538 2938 
L 2538 4581 
L 3097 4581 
L 3097 0 
L 2575 0 
z
M 797 1656 
Q 797 1019 1065 703 
Q 1334 388 1700 388 
Q 2069 388 2326 689 
Q 2584 991 2584 1609 
Q 2584 2291 2321 2609 
Q 2059 2928 1675 2928 
Q 1300 2928 1048 2622 
Q 797 2316 797 1656 
z
" transform="scale(0.015625)"/>
        <path id="ArialMT-65" d="M 2694 1069 
L 3275 997 
Q 3138 488 2766 206 
Q 2394 -75 1816 -75 
Q 1088 -75 661 373 
Q 234 822 234 1631 
Q 234 2469 665 2931 
Q 1097 3394 1784 3394 
Q 2450 3394 2872 2941 
Q 3294 2488 3294 1666 
Q 3294 1616 3291 1516 
L 816 1516 
Q 847 969 1125 678 
Q 1403 388 1819 388 
Q 2128 388 2347 550 
Q 2566 713 2694 1069 
z
M 847 1978 
L 2700 1978 
Q 2663 2397 2488 2606 
Q 2219 2931 1791 2931 
Q 1403 2931 1139 2672 
Q 875 2413 847 1978 
z
" transform="scale(0.015625)"/>
        <path id="ArialMT-6c" d="M 409 0 
L 409 4581 
L 972 4581 
L 972 0 
L 409 0 
z
" transform="scale(0.015625)"/>
        <path id="ArialMT-69" d="M 425 3934 
L 425 4581 
L 988 4581 
L 988 3934 
L 425 3934 
z
M 425 0 
L 425 3319 
L 988 3319 
L 988 0 
L 425 0 
z
" transform="scale(0.015625)"/>
       </defs>
       <use xlink:href="#ArialMT-41"/>
       <use xlink:href="#ArialMT-64" x="66.699219"/>
       <use xlink:href="#ArialMT-65" x="122.314453"/>
       <use xlink:href="#ArialMT-6c" x="177.929688"/>
       <use xlink:href="#ArialMT-69" x="200.146484"/>
       <use xlink:href="#ArialMT-65" x="222.363281"/>
      </g>
     </g>
    </g>
    <g id="xtick_2">
     <g id="text_2">
      <!-- Gentoo -->
      <g style="fill: #262626" transform="translate(181.965105 331.201625) scale(0.088 -0.088)">
       <defs>
        <path id="ArialMT-47" d="M 2638 1797 
L 2638 2334 
L 4578 2338 
L 4578 638 
Q 4131 281 3656 101 
Q 3181 -78 2681 -78 
Q 2006 -78 1454 211 
Q 903 500 622 1047 
Q 341 1594 341 2269 
Q 341 2938 620 3517 
Q 900 4097 1425 4378 
Q 1950 4659 2634 4659 
Q 3131 4659 3532 4498 
Q 3934 4338 4162 4050 
Q 4391 3763 4509 3300 
L 3963 3150 
Q 3859 3500 3706 3700 
Q 3553 3900 3268 4020 
Q 2984 4141 2638 4141 
Q 2222 4141 1919 4014 
Q 1616 3888 1430 3681 
Q 1244 3475 1141 3228 
Q 966 2803 966 2306 
Q 966 1694 1177 1281 
Q 1388 869 1791 669 
Q 2194 469 2647 469 
Q 3041 469 3416 620 
Q 3791 772 3984 944 
L 3984 1797 
L 2638 1797 
z
" transform="scale(0.015625)"/>
        <path id="ArialMT-6e" d="M 422 0 
L 422 3319 
L 928 3319 
L 928 2847 
Q 1294 3394 1984 3394 
Q 2284 3394 2536 3286 
Q 2788 3178 2913 3003 
Q 3038 2828 3088 2588 
Q 3119 2431 3119 2041 
L 3119 0 
L 2556 0 
L 2556 2019 
Q 2556 2363 2490 2533 
Q 2425 2703 2258 2804 
Q 2091 2906 1866 2906 
Q 1506 2906 1245 2678 
Q 984 2450 984 1813 
L 984 0 
L 422 0 
z
" transform="scale(0.015625)"/>
        <path id="ArialMT-74" d="M 1650 503 
L 1731 6 
Q 1494 -44 1306 -44 
Q 1000 -44 831 53 
Q 663 150 594 308 
Q 525 466 525 972 
L 525 2881 
L 113 2881 
L 113 3319 
L 525 3319 
L 525 4141 
L 1084 4478 
L 1084 3319 
L 1650 3319 
L 1650 2881 
L 1084 2881 
L 1084 941 
Q 1084 700 1114 631 
Q 1144 563 1211 522 
Q 1278 481 1403 481 
Q 1497 481 1650 503 
z
" transform="scale(0.015625)"/>
        <path id="ArialMT-6f" d="M 213 1659 
Q 213 2581 725 3025 
Q 1153 3394 1769 3394 
Q 2453 3394 2887 2945 
Q 3322 2497 3322 1706 
Q 3322 1066 3130 698 
Q 2938 331 2570 128 
Q 2203 -75 1769 -75 
Q 1072 -75 642 372 
Q 213 819 213 1659 
z
M 791 1659 
Q 791 1022 1069 705 
Q 1347 388 1769 388 
Q 2188 388 2466 706 
Q 2744 1025 2744 1678 
Q 2744 2294 2464 2611 
Q 2184 2928 1769 2928 
Q 1347 2928 1069 2612 
Q 791 2297 791 1659 
z
" transform="scale(0.015625)"/>
       </defs>
       <use xlink:href="#ArialMT-47"/>
       <use xlink:href="#ArialMT-65" x="77.783203"/>
       <use xlink:href="#ArialMT-6e" x="133.398438"/>
       <use xlink:href="#ArialMT-74" x="189.013672"/>
       <use xlink:href="#ArialMT-6f" x="216.796875"/>
       <use xlink:href="#ArialMT-6f" x="272.412109"/>
      </g>
     </g>
    </g>
    <g id="xtick_3">
     <g id="text_3">
      <!-- Chinstrap -->
      <g style="fill: #262626" transform="translate(276.520905 331.308875) scale(0.088 -0.088)">
       <defs>
        <path id="ArialMT-43" d="M 3763 1606 
L 4369 1453 
Q 4178 706 3683 314 
Q 3188 -78 2472 -78 
Q 1731 -78 1267 223 
Q 803 525 561 1097 
Q 319 1669 319 2325 
Q 319 3041 592 3573 
Q 866 4106 1370 4382 
Q 1875 4659 2481 4659 
Q 3169 4659 3637 4309 
Q 4106 3959 4291 3325 
L 3694 3184 
Q 3534 3684 3231 3912 
Q 2928 4141 2469 4141 
Q 1941 4141 1586 3887 
Q 1231 3634 1087 3207 
Q 944 2781 944 2328 
Q 944 1744 1114 1308 
Q 1284 872 1643 656 
Q 2003 441 2422 441 
Q 2931 441 3284 734 
Q 3638 1028 3763 1606 
z
" transform="scale(0.015625)"/>
        <path id="ArialMT-68" d="M 422 0 
L 422 4581 
L 984 4581 
L 984 2938 
Q 1378 3394 1978 3394 
Q 2347 3394 2619 3248 
Q 2891 3103 3008 2847 
Q 3125 2591 3125 2103 
L 3125 0 
L 2563 0 
L 2563 2103 
Q 2563 2525 2380 2717 
Q 2197 2909 1863 2909 
Q 1613 2909 1392 2779 
Q 1172 2650 1078 2428 
Q 984 2206 984 1816 
L 984 0 
L 422 0 
z
" transform="scale(0.015625)"/>
        <path id="ArialMT-73" d="M 197 991 
L 753 1078 
Q 800 744 1014 566 
Q 1228 388 1613 388 
Q 2000 388 2187 545 
Q 2375 703 2375 916 
Q 2375 1106 2209 1216 
Q 2094 1291 1634 1406 
Q 1016 1563 777 1677 
Q 538 1791 414 1992 
Q 291 2194 291 2438 
Q 291 2659 392 2848 
Q 494 3038 669 3163 
Q 800 3259 1026 3326 
Q 1253 3394 1513 3394 
Q 1903 3394 2198 3281 
Q 2494 3169 2634 2976 
Q 2775 2784 2828 2463 
L 2278 2388 
Q 2241 2644 2061 2787 
Q 1881 2931 1553 2931 
Q 1166 2931 1000 2803 
Q 834 2675 834 2503 
Q 834 2394 903 2306 
Q 972 2216 1119 2156 
Q 1203 2125 1616 2013 
Q 2213 1853 2448 1751 
Q 2684 1650 2818 1456 
Q 2953 1263 2953 975 
Q 2953 694 2789 445 
Q 2625 197 2315 61 
Q 2006 -75 1616 -75 
Q 969 -75 630 194 
Q 291 463 197 991 
z
" transform="scale(0.015625)"/>
        <path id="ArialMT-72" d="M 416 0 
L 416 3319 
L 922 3319 
L 922 2816 
Q 1116 3169 1280 3281 
Q 1444 3394 1641 3394 
Q 1925 3394 2219 3213 
L 2025 2691 
Q 1819 2813 1613 2813 
Q 1428 2813 1281 2702 
Q 1134 2591 1072 2394 
Q 978 2094 978 1738 
L 978 0 
L 416 0 
z
" transform="scale(0.015625)"/>
        <path id="ArialMT-61" d="M 2588 409 
Q 2275 144 1986 34 
Q 1697 -75 1366 -75 
Q 819 -75 525 192 
Q 231 459 231 875 
Q 231 1119 342 1320 
Q 453 1522 633 1644 
Q 813 1766 1038 1828 
Q 1203 1872 1538 1913 
Q 2219 1994 2541 2106 
Q 2544 2222 2544 2253 
Q 2544 2597 2384 2738 
Q 2169 2928 1744 2928 
Q 1347 2928 1158 2789 
Q 969 2650 878 2297 
L 328 2372 
Q 403 2725 575 2942 
Q 747 3159 1072 3276 
Q 1397 3394 1825 3394 
Q 2250 3394 2515 3294 
Q 2781 3194 2906 3042 
Q 3031 2891 3081 2659 
Q 3109 2516 3109 2141 
L 3109 1391 
Q 3109 606 3145 398 
Q 3181 191 3288 0 
L 2700 0 
Q 2613 175 2588 409 
z
M 2541 1666 
Q 2234 1541 1622 1453 
Q 1275 1403 1131 1340 
Q 988 1278 909 1158 
Q 831 1038 831 891 
Q 831 666 1001 516 
Q 1172 366 1500 366 
Q 1825 366 2078 508 
Q 2331 650 2450 897 
Q 2541 1088 2541 1459 
L 2541 1666 
z
" transform="scale(0.015625)"/>
        <path id="ArialMT-70" d="M 422 -1272 
L 422 3319 
L 934 3319 
L 934 2888 
Q 1116 3141 1344 3267 
Q 1572 3394 1897 3394 
Q 2322 3394 2647 3175 
Q 2972 2956 3137 2557 
Q 3303 2159 3303 1684 
Q 3303 1175 3120 767 
Q 2938 359 2589 142 
Q 2241 -75 1856 -75 
Q 1575 -75 1351 44 
Q 1128 163 984 344 
L 984 -1272 
L 422 -1272 
z
M 931 1641 
Q 931 1000 1190 694 
Q 1450 388 1819 388 
Q 2194 388 2461 705 
Q 2728 1022 2728 1688 
Q 2728 2322 2467 2637 
Q 2206 2953 1844 2953 
Q 1484 2953 1207 2617 
Q 931 2281 931 1641 
z
" transform="scale(0.015625)"/>
       </defs>
       <use xlink:href="#ArialMT-43"/>
       <use xlink:href="#ArialMT-68" x="72.216797"/>
       <use xlink:href="#ArialMT-69" x="127.832031"/>
       <use xlink:href="#ArialMT-6e" x="150.048828"/>
       <use xlink:href="#ArialMT-73" x="205.664062"/>
       <use xlink:href="#ArialMT-74" x="255.664062"/>
       <use xlink:href="#ArialMT-72" x="283.447266"/>
       <use xlink:href="#ArialMT-61" x="316.748047"/>
       <use xlink:href="#ArialMT-70" x="372.363281"/>
      </g>
     </g>
    </g>
    <g id="text_4">
     <!-- species -->
     <g style="fill: #262626" transform="translate(180.122856 343.929375) scale(0.096 -0.096)">
      <defs>
       <path id="ArialMT-63" d="M 2588 1216 
L 3141 1144 
Q 3050 572 2676 248 
Q 2303 -75 1759 -75 
Q 1078 -75 664 370 
Q 250 816 250 1647 
Q 250 2184 428 2587 
Q 606 2991 970 3192 
Q 1334 3394 1763 3394 
Q 2303 3394 2647 3120 
Q 2991 2847 3088 2344 
L 2541 2259 
Q 2463 2594 2264 2762 
Q 2066 2931 1784 2931 
Q 1359 2931 1093 2626 
Q 828 2322 828 1663 
Q 828 994 1084 691 
Q 1341 388 1753 388 
Q 2084 388 2306 591 
Q 2528 794 2588 1216 
z
" transform="scale(0.015625)"/>
      </defs>
      <use xlink:href="#ArialMT-73"/>
      <use xlink:href="#ArialMT-70" x="50"/>
      <use xlink:href="#ArialMT-65" x="105.615234"/>
      <use xlink:href="#ArialMT-63" x="161.230469"/>
      <use xlink:href="#ArialMT-69" x="211.230469"/>
      <use xlink:href="#ArialMT-65" x="233.447266"/>
      <use xlink:href="#ArialMT-73" x="289.0625"/>
     </g>
    </g>
   </g>
   <g id="matplotlib.axis_2">
    <g id="ytick_1">
     <g id="line2d_1">
      <path d="M 47.9665 263.167579 
L 344.827711 263.167579 
" clip-path="url(#p00f6e5f520)" style="fill: none; stroke: #ffffff; stroke-width: 0.8; stroke-linecap: round"/>
     </g>
     <g id="text_5">
      <!-- 3000 -->
      <g style="fill: #262626" transform="translate(20.092 266.317017) scale(0.088 -0.088)">
       <defs>
        <path id="ArialMT-33" d="M 269 1209 
L 831 1284 
Q 928 806 1161 595 
Q 1394 384 1728 384 
Q 2125 384 2398 659 
Q 2672 934 2672 1341 
Q 2672 1728 2419 1979 
Q 2166 2231 1775 2231 
Q 1616 2231 1378 2169 
L 1441 2663 
Q 1497 2656 1531 2656 
Q 1891 2656 2178 2843 
Q 2466 3031 2466 3422 
Q 2466 3731 2256 3934 
Q 2047 4138 1716 4138 
Q 1388 4138 1169 3931 
Q 950 3725 888 3313 
L 325 3413 
Q 428 3978 793 4289 
Q 1159 4600 1703 4600 
Q 2078 4600 2393 4439 
Q 2709 4278 2876 4000 
Q 3044 3722 3044 3409 
Q 3044 3113 2884 2869 
Q 2725 2625 2413 2481 
Q 2819 2388 3044 2092 
Q 3269 1797 3269 1353 
Q 3269 753 2831 336 
Q 2394 -81 1725 -81 
Q 1122 -81 723 278 
Q 325 638 269 1209 
z
" transform="scale(0.015625)"/>
        <path id="ArialMT-30" d="M 266 2259 
Q 266 3072 433 3567 
Q 600 4063 929 4331 
Q 1259 4600 1759 4600 
Q 2128 4600 2406 4451 
Q 2684 4303 2865 4023 
Q 3047 3744 3150 3342 
Q 3253 2941 3253 2259 
Q 3253 1453 3087 958 
Q 2922 463 2592 192 
Q 2263 -78 1759 -78 
Q 1097 -78 719 397 
Q 266 969 266 2259 
z
M 844 2259 
Q 844 1131 1108 757 
Q 1372 384 1759 384 
Q 2147 384 2411 759 
Q 2675 1134 2675 2259 
Q 2675 3391 2411 3762 
Q 2147 4134 1753 4134 
Q 1366 4134 1134 3806 
Q 844 3388 844 2259 
z
" transform="scale(0.015625)"/>
       </defs>
       <use xlink:href="#ArialMT-33"/>
       <use xlink:href="#ArialMT-30" x="55.615234"/>
       <use xlink:href="#ArialMT-30" x="111.230469"/>
       <use xlink:href="#ArialMT-30" x="166.845703"/>
      </g>
     </g>
    </g>
    <g id="ytick_2">
     <g id="line2d_2">
      <path d="M 47.9665 195.506919 
L 344.827711 195.506919 
" clip-path="url(#p00f6e5f520)" style="fill: none; stroke: #ffffff; stroke-width: 0.8; stroke-linecap: round"/>
     </g>
     <g id="text_6">
      <!-- 4000 -->
      <g style="fill: #262626" transform="translate(20.092 198.656357) scale(0.088 -0.088)">
       <defs>
        <path id="ArialMT-34" d="M 2069 0 
L 2069 1097 
L 81 1097 
L 81 1613 
L 2172 4581 
L 2631 4581 
L 2631 1613 
L 3250 1613 
L 3250 1097 
L 2631 1097 
L 2631 0 
L 2069 0 
z
M 2069 1613 
L 2069 3678 
L 634 1613 
L 2069 1613 
z
" transform="scale(0.015625)"/>
       </defs>
       <use xlink:href="#ArialMT-34"/>
       <use xlink:href="#ArialMT-30" x="55.615234"/>
       <use xlink:href="#ArialMT-30" x="111.230469"/>
       <use xlink:href="#ArialMT-30" x="166.845703"/>
      </g>
     </g>
    </g>
    <g id="ytick_3">
     <g id="line2d_3">
      <path d="M 47.9665 127.84626 
L 344.827711 127.84626 
" clip-path="url(#p00f6e5f520)" style="fill: none; stroke: #ffffff; stroke-width: 0.8; stroke-linecap: round"/>
     </g>
     <g id="text_7">
      <!-- 5000 -->
      <g style="fill: #262626" transform="translate(20.092 130.995697) scale(0.088 -0.088)">
       <defs>
        <path id="ArialMT-35" d="M 266 1200 
L 856 1250 
Q 922 819 1161 601 
Q 1400 384 1738 384 
Q 2144 384 2425 690 
Q 2706 997 2706 1503 
Q 2706 1984 2436 2262 
Q 2166 2541 1728 2541 
Q 1456 2541 1237 2417 
Q 1019 2294 894 2097 
L 366 2166 
L 809 4519 
L 3088 4519 
L 3088 3981 
L 1259 3981 
L 1013 2750 
Q 1425 3038 1878 3038 
Q 2478 3038 2890 2622 
Q 3303 2206 3303 1553 
Q 3303 931 2941 478 
Q 2500 -78 1738 -78 
Q 1113 -78 717 272 
Q 322 622 266 1200 
z
" transform="scale(0.015625)"/>
       </defs>
       <use xlink:href="#ArialMT-35"/>
       <use xlink:href="#ArialMT-30" x="55.615234"/>
       <use xlink:href="#ArialMT-30" x="111.230469"/>
       <use xlink:href="#ArialMT-30" x="166.845703"/>
      </g>
     </g>
    </g>
    <g id="ytick_4">
     <g id="line2d_4">
      <path d="M 47.9665 60.1856 
L 344.827711 60.1856 
" clip-path="url(#p00f6e5f520)" style="fill: none; stroke: #ffffff; stroke-width: 0.8; stroke-linecap: round"/>
     </g>
     <g id="text_8">
      <!-- 6000 -->
      <g style="fill: #262626" transform="translate(20.092 63.335038) scale(0.088 -0.088)">
       <defs>
        <path id="ArialMT-36" d="M 3184 3459 
L 2625 3416 
Q 2550 3747 2413 3897 
Q 2184 4138 1850 4138 
Q 1581 4138 1378 3988 
Q 1113 3794 959 3422 
Q 806 3050 800 2363 
Q 1003 2672 1297 2822 
Q 1591 2972 1913 2972 
Q 2475 2972 2870 2558 
Q 3266 2144 3266 1488 
Q 3266 1056 3080 686 
Q 2894 316 2569 119 
Q 2244 -78 1831 -78 
Q 1128 -78 684 439 
Q 241 956 241 2144 
Q 241 3472 731 4075 
Q 1159 4600 1884 4600 
Q 2425 4600 2770 4297 
Q 3116 3994 3184 3459 
z
M 888 1484 
Q 888 1194 1011 928 
Q 1134 663 1356 523 
Q 1578 384 1822 384 
Q 2178 384 2434 671 
Q 2691 959 2691 1453 
Q 2691 1928 2437 2201 
Q 2184 2475 1800 2475 
Q 1419 2475 1153 2201 
Q 888 1928 888 1484 
z
" transform="scale(0.015625)"/>
       </defs>
       <use xlink:href="#ArialMT-36"/>
       <use xlink:href="#ArialMT-30" x="55.615234"/>
       <use xlink:href="#ArialMT-30" x="111.230469"/>
       <use xlink:href="#ArialMT-30" x="166.845703"/>
      </g>
     </g>
    </g>
    <g id="text_9">
     <!-- body_mass_g -->
     <g style="fill: #262626" transform="translate(14.0715 191.784375) rotate(-90) scale(0.096 -0.096)">
      <defs>
       <path id="ArialMT-62" d="M 941 0 
L 419 0 
L 419 4581 
L 981 4581 
L 981 2947 
Q 1338 3394 1891 3394 
Q 2197 3394 2470 3270 
Q 2744 3147 2920 2923 
Q 3097 2700 3197 2384 
Q 3297 2069 3297 1709 
Q 3297 856 2875 390 
Q 2453 -75 1863 -75 
Q 1275 -75 941 416 
L 941 0 
z
M 934 1684 
Q 934 1088 1097 822 
Q 1363 388 1816 388 
Q 2184 388 2453 708 
Q 2722 1028 2722 1663 
Q 2722 2313 2464 2622 
Q 2206 2931 1841 2931 
Q 1472 2931 1203 2611 
Q 934 2291 934 1684 
z
" transform="scale(0.015625)"/>
       <path id="ArialMT-79" d="M 397 -1278 
L 334 -750 
Q 519 -800 656 -800 
Q 844 -800 956 -737 
Q 1069 -675 1141 -563 
Q 1194 -478 1313 -144 
Q 1328 -97 1363 -6 
L 103 3319 
L 709 3319 
L 1400 1397 
Q 1534 1031 1641 628 
Q 1738 1016 1872 1384 
L 2581 3319 
L 3144 3319 
L 1881 -56 
Q 1678 -603 1566 -809 
Q 1416 -1088 1222 -1217 
Q 1028 -1347 759 -1347 
Q 597 -1347 397 -1278 
z
" transform="scale(0.015625)"/>
       <path id="ArialMT-5f" d="M -97 -1272 
L -97 -866 
L 3631 -866 
L 3631 -1272 
L -97 -1272 
z
" transform="scale(0.015625)"/>
       <path id="ArialMT-6d" d="M 422 0 
L 422 3319 
L 925 3319 
L 925 2853 
Q 1081 3097 1340 3245 
Q 1600 3394 1931 3394 
Q 2300 3394 2536 3241 
Q 2772 3088 2869 2813 
Q 3263 3394 3894 3394 
Q 4388 3394 4653 3120 
Q 4919 2847 4919 2278 
L 4919 0 
L 4359 0 
L 4359 2091 
Q 4359 2428 4304 2576 
Q 4250 2725 4106 2815 
Q 3963 2906 3769 2906 
Q 3419 2906 3187 2673 
Q 2956 2441 2956 1928 
L 2956 0 
L 2394 0 
L 2394 2156 
Q 2394 2531 2256 2718 
Q 2119 2906 1806 2906 
Q 1569 2906 1367 2781 
Q 1166 2656 1075 2415 
Q 984 2175 984 1722 
L 984 0 
L 422 0 
z
" transform="scale(0.015625)"/>
       <path id="ArialMT-67" d="M 319 -275 
L 866 -356 
Q 900 -609 1056 -725 
Q 1266 -881 1628 -881 
Q 2019 -881 2231 -725 
Q 2444 -569 2519 -288 
Q 2563 -116 2559 434 
Q 2191 0 1641 0 
Q 956 0 581 494 
Q 206 988 206 1678 
Q 206 2153 378 2554 
Q 550 2956 876 3175 
Q 1203 3394 1644 3394 
Q 2231 3394 2613 2919 
L 2613 3319 
L 3131 3319 
L 3131 450 
Q 3131 -325 2973 -648 
Q 2816 -972 2473 -1159 
Q 2131 -1347 1631 -1347 
Q 1038 -1347 672 -1080 
Q 306 -813 319 -275 
z
M 784 1719 
Q 784 1066 1043 766 
Q 1303 466 1694 466 
Q 2081 466 2343 764 
Q 2606 1063 2606 1700 
Q 2606 2309 2336 2618 
Q 2066 2928 1684 2928 
Q 1309 2928 1046 2623 
Q 784 2319 784 1719 
z
" transform="scale(0.015625)"/>
      </defs>
      <use xlink:href="#ArialMT-62"/>
      <use xlink:href="#ArialMT-6f" x="55.615234"/>
      <use xlink:href="#ArialMT-64" x="111.230469"/>
      <use xlink:href="#ArialMT-79" x="166.845703"/>
      <use xlink:href="#ArialMT-5f" x="216.845703"/>
      <use xlink:href="#ArialMT-6d" x="272.460938"/>
      <use xlink:href="#ArialMT-61" x="355.761719"/>
      <use xlink:href="#ArialMT-73" x="411.376953"/>
      <use xlink:href="#ArialMT-73" x="461.376953"/>
      <use xlink:href="#ArialMT-5f" x="511.376953"/>
      <use xlink:href="#ArialMT-67" x="566.992188"/>
     </g>
    </g>
   </g>
   <g id="patch_3">
    <path d="M 97.443369 466.149558 
L 97.443369 466.149558 
L 97.443369 466.149558 
L 97.443369 466.149558 
z
" clip-path="url(#p00f6e5f520)" style="fill: #176d9c; stroke: #363636; stroke-width: 0.6; stroke-linejoin: miter"/>
   </g>
   <g id="PolyCollection_1">
    <defs>
     <path id="m2824148924" d="M 97.443369 -91.962162 
L 97.220534 -91.962162 
L 97.138794 -93.355118 
L 97.033186 -94.748074 
L 96.898844 -96.14103 
L 96.730512 -97.533986 
L 96.522673 -98.926942 
L 96.26971 -100.319898 
L 95.966121 -101.712854 
L 95.606765 -103.105811 
L 95.187153 -104.498767 
L 94.70376 -105.891723 
L 94.154352 -107.284679 
L 93.538294 -108.677635 
L 92.856807 -110.070591 
L 92.113139 -111.463547 
L 91.312589 -112.856503 
L 90.46237 -114.249459 
L 89.571254 -115.642415 
L 88.649029 -117.035372 
L 87.705766 -118.428328 
L 86.750973 -119.821284 
L 85.792712 -121.21424 
L 84.8368 -122.607196 
L 83.886194 -124.000152 
L 82.940679 -125.393108 
L 81.996906 -126.786064 
L 81.048842 -128.17902 
L 80.088575 -129.571976 
L 79.107433 -130.964932 
L 78.09729 -132.357889 
L 77.051928 -133.750845 
L 75.968322 -135.143801 
L 74.847706 -136.536757 
L 73.696322 -137.929713 
L 72.525765 -139.322669 
L 71.352884 -140.715625 
L 70.199219 -142.108581 
L 69.089997 -143.501537 
L 68.052716 -144.894493 
L 67.11542 -146.28745 
L 66.30475 -147.680406 
L 65.643936 -149.073362 
L 65.150893 -150.466318 
L 64.836611 -151.859274 
L 64.704041 -153.25223 
L 64.747613 -154.645186 
L 64.953508 -156.038142 
L 65.300698 -157.431098 
L 65.762688 -158.824054 
L 66.309802 -160.21701 
L 66.911763 -161.609967 
L 67.540306 -163.002923 
L 68.171504 -164.395879 
L 68.78757 -165.788835 
L 69.377928 -167.181791 
L 69.939461 -168.574747 
L 70.475948 -169.967703 
L 70.99679 -171.360659 
L 71.515228 -172.753615 
L 72.046277 -174.146571 
L 72.604642 -175.539528 
L 73.202851 -176.932484 
L 73.849783 -178.32544 
L 74.549728 -179.718396 
L 75.302018 -181.111352 
L 76.101227 -182.504308 
L 76.937856 -183.897264 
L 77.799407 -185.29022 
L 78.6717 -186.683176 
L 79.540289 -188.076132 
L 80.391859 -189.469088 
L 81.215445 -190.862045 
L 82.00339 -192.255001 
L 82.751945 -193.647957 
L 83.461458 -195.040913 
L 84.136142 -196.433869 
L 84.783436 -197.826825 
L 85.413031 -199.219781 
L 86.035662 -200.612737 
L 86.661805 -202.005693 
L 87.300415 -203.398649 
L 87.957856 -204.791606 
L 88.637139 -206.184562 
L 89.337553 -207.577518 
L 90.05471 -208.970474 
L 90.780984 -210.36343 
L 91.506284 -211.756386 
L 92.219025 -213.149342 
L 92.907207 -214.542298 
L 93.559445 -215.935254 
L 94.165863 -217.32821 
L 94.718749 -218.721166 
L 95.212956 -220.114123 
L 95.646018 -221.507079 
L 96.018024 -222.900035 
L 96.331294 -224.292991 
L 96.58992 -225.685947 
L 96.799255 -227.078903 
L 96.965386 -228.471859 
L 97.094666 -229.864815 
L 97.443369 -229.864815 
L 97.443369 -229.864815 
L 97.443369 -228.471859 
L 97.443369 -227.078903 
L 97.443369 -225.685947 
L 97.443369 -224.292991 
L 97.443369 -222.900035 
L 97.443369 -221.507079 
L 97.443369 -220.114123 
L 97.443369 -218.721166 
L 97.443369 -217.32821 
L 97.443369 -215.935254 
L 97.443369 -214.542298 
L 97.443369 -213.149342 
L 97.443369 -211.756386 
L 97.443369 -210.36343 
L 97.443369 -208.970474 
L 97.443369 -207.577518 
L 97.443369 -206.184562 
L 97.443369 -204.791606 
L 97.443369 -203.398649 
L 97.443369 -202.005693 
L 97.443369 -200.612737 
L 97.443369 -199.219781 
L 97.443369 -197.826825 
L 97.443369 -196.433869 
L 97.443369 -195.040913 
L 97.443369 -193.647957 
L 97.443369 -192.255001 
L 97.443369 -190.862045 
L 97.443369 -189.469088 
L 97.443369 -188.076132 
L 97.443369 -186.683176 
L 97.443369 -185.29022 
L 97.443369 -183.897264 
L 97.443369 -182.504308 
L 97.443369 -181.111352 
L 97.443369 -179.718396 
L 97.443369 -178.32544 
L 97.443369 -176.932484 
L 97.443369 -175.539528 
L 97.443369 -174.146571 
L 97.443369 -172.753615 
L 97.443369 -171.360659 
L 97.443369 -169.967703 
L 97.443369 -168.574747 
L 97.443369 -167.181791 
L 97.443369 -165.788835 
L 97.443369 -164.395879 
L 97.443369 -163.002923 
L 97.443369 -161.609967 
L 97.443369 -160.21701 
L 97.443369 -158.824054 
L 97.443369 -157.431098 
L 97.443369 -156.038142 
L 97.443369 -154.645186 
L 97.443369 -153.25223 
L 97.443369 -151.859274 
L 97.443369 -150.466318 
L 97.443369 -149.073362 
L 97.443369 -147.680406 
L 97.443369 -146.28745 
L 97.443369 -144.894493 
L 97.443369 -143.501537 
L 97.443369 -142.108581 
L 97.443369 -140.715625 
L 97.443369 -139.322669 
L 97.443369 -137.929713 
L 97.443369 -136.536757 
L 97.443369 -135.143801 
L 97.443369 -133.750845 
L 97.443369 -132.357889 
L 97.443369 -130.964932 
L 97.443369 -129.571976 
L 97.443369 -128.17902 
L 97.443369 -126.786064 
L 97.443369 -125.393108 
L 97.443369 -124.000152 
L 97.443369 -122.607196 
L 97.443369 -121.21424 
L 97.443369 -119.821284 
L 97.443369 -118.428328 
L 97.443369 -117.035372 
L 97.443369 -115.642415 
L 97.443369 -114.249459 
L 97.443369 -112.856503 
L 97.443369 -111.463547 
L 97.443369 -110.070591 
L 97.443369 -108.677635 
L 97.443369 -107.284679 
L 97.443369 -105.891723 
L 97.443369 -104.498767 
L 97.443369 -103.105811 
L 97.443369 -101.712854 
L 97.443369 -100.319898 
L 97.443369 -98.926942 
L 97.443369 -97.533986 
L 97.443369 -96.14103 
L 97.443369 -94.748074 
L 97.443369 -93.355118 
L 97.443369 -91.962162 
z
" style="stroke: #363636; stroke-width: 1.2"/>
    </defs>
    <g clip-path="url(#p00f6e5f520)">
     <use xlink:href="#m2824148924" x="0" y="353.037375" style="fill: #176d9c; stroke: #363636; stroke-width: 1.2"/>
    </g>
   </g>
   <g id="patch_4">
    <path d="M 97.443369 466.149558 
L 97.443369 466.149558 
L 97.443369 466.149558 
L 97.443369 466.149558 
z
" clip-path="url(#p00f6e5f520)" style="fill: #c38820; stroke: #363636; stroke-width: 0.6; stroke-linejoin: miter"/>
   </g>
   <g id="PolyCollection_2">
    <defs>
     <path id="m7027c68e4e" d="M 98.138056 -64.265763 
L 97.443369 -64.265763 
L 97.443369 -65.295597 
L 97.443369 -66.325431 
L 97.443369 -67.355265 
L 97.443369 -68.385099 
L 97.443369 -69.414932 
L 97.443369 -70.444766 
L 97.443369 -71.4746 
L 97.443369 -72.504434 
L 97.443369 -73.534268 
L 97.443369 -74.564102 
L 97.443369 -75.593936 
L 97.443369 -76.62377 
L 97.443369 -77.653604 
L 97.443369 -78.683438 
L 97.443369 -79.713272 
L 97.443369 -80.743106 
L 97.443369 -81.77294 
L 97.443369 -82.802774 
L 97.443369 -83.832608 
L 97.443369 -84.862442 
L 97.443369 -85.892276 
L 97.443369 -86.92211 
L 97.443369 -87.951944 
L 97.443369 -88.981778 
L 97.443369 -90.011611 
L 97.443369 -91.041445 
L 97.443369 -92.071279 
L 97.443369 -93.101113 
L 97.443369 -94.130947 
L 97.443369 -95.160781 
L 97.443369 -96.190615 
L 97.443369 -97.220449 
L 97.443369 -98.250283 
L 97.443369 -99.280117 
L 97.443369 -100.309951 
L 97.443369 -101.339785 
L 97.443369 -102.369619 
L 97.443369 -103.399453 
L 97.443369 -104.429287 
L 97.443369 -105.459121 
L 97.443369 -106.488955 
L 97.443369 -107.518789 
L 97.443369 -108.548623 
L 97.443369 -109.578457 
L 97.443369 -110.608291 
L 97.443369 -111.638124 
L 97.443369 -112.667958 
L 97.443369 -113.697792 
L 97.443369 -114.727626 
L 97.443369 -115.75746 
L 97.443369 -116.787294 
L 97.443369 -117.817128 
L 97.443369 -118.846962 
L 97.443369 -119.876796 
L 97.443369 -120.90663 
L 97.443369 -121.936464 
L 97.443369 -122.966298 
L 97.443369 -123.996132 
L 97.443369 -125.025966 
L 97.443369 -126.0558 
L 97.443369 -127.085634 
L 97.443369 -128.115468 
L 97.443369 -129.145302 
L 97.443369 -130.175136 
L 97.443369 -131.20497 
L 97.443369 -132.234804 
L 97.443369 -133.264637 
L 97.443369 -134.294471 
L 97.443369 -135.324305 
L 97.443369 -136.354139 
L 97.443369 -137.383973 
L 97.443369 -138.413807 
L 97.443369 -139.443641 
L 97.443369 -140.473475 
L 97.443369 -141.503309 
L 97.443369 -142.533143 
L 97.443369 -143.562977 
L 97.443369 -144.592811 
L 97.443369 -145.622645 
L 97.443369 -146.652479 
L 97.443369 -147.682313 
L 97.443369 -148.712147 
L 97.443369 -149.741981 
L 97.443369 -150.771815 
L 97.443369 -151.801649 
L 97.443369 -152.831483 
L 97.443369 -153.861316 
L 97.443369 -154.89115 
L 97.443369 -155.920984 
L 97.443369 -156.950818 
L 97.443369 -157.980652 
L 97.443369 -159.010486 
L 97.443369 -160.04032 
L 97.443369 -161.070154 
L 97.443369 -162.099988 
L 97.443369 -163.129822 
L 97.443369 -164.159656 
L 97.443369 -165.18949 
L 97.443369 -166.219324 
L 97.800062 -166.219324 
L 97.800062 -166.219324 
L 97.930072 -165.18949 
L 98.098458 -164.159656 
L 98.313304 -163.129822 
L 98.58336 -162.099988 
L 98.917794 -161.070154 
L 99.325826 -160.04032 
L 99.816285 -159.010486 
L 100.397068 -157.980652 
L 101.074556 -156.950818 
L 101.853 -155.920984 
L 102.733939 -154.89115 
L 103.715696 -153.861316 
L 104.793026 -152.831483 
L 105.956954 -151.801649 
L 107.194873 -150.771815 
L 108.490917 -149.741981 
L 109.826621 -148.712147 
L 111.181853 -147.682313 
L 112.53596 -146.652479 
L 113.869051 -145.622645 
L 115.163307 -144.592811 
L 116.404214 -143.562977 
L 117.581575 -142.533143 
L 118.690212 -141.503309 
L 119.730265 -140.473475 
L 120.707028 -139.443641 
L 121.63033 -138.413807 
L 122.513499 -137.383973 
L 123.371989 -136.354139 
L 124.221794 -135.324305 
L 125.077809 -134.294471 
L 125.952272 -133.264637 
L 126.853453 -132.234804 
L 127.784702 -131.20497 
L 128.743936 -130.175136 
L 129.72362 -129.145302 
L 130.71122 -128.115468 
L 131.690075 -127.085634 
L 132.640606 -126.0558 
L 133.54174 -125.025966 
L 134.37242 -123.996132 
L 135.113068 -122.966298 
L 135.746897 -121.936464 
L 136.260952 -120.90663 
L 136.646828 -119.876796 
L 136.901014 -118.846962 
L 137.024863 -117.817128 
L 137.024205 -116.787294 
L 136.908646 -115.75746 
L 136.690635 -114.727626 
L 136.384368 -113.697792 
L 136.004637 -112.667958 
L 135.565704 -111.638124 
L 135.080307 -110.608291 
L 134.558865 -109.578457 
L 134.008947 -108.548623 
L 133.435052 -107.518789 
L 132.838692 -106.488955 
L 132.218779 -105.459121 
L 131.572248 -104.429287 
L 130.894856 -103.399453 
L 130.182054 -102.369619 
L 129.429849 -101.339785 
L 128.635544 -100.309951 
L 127.798286 -99.280117 
L 126.919376 -98.250283 
L 126.002286 -97.220449 
L 125.052417 -96.190615 
L 124.07661 -95.160781 
L 123.082482 -94.130947 
L 122.077657 -93.101113 
L 121.068992 -92.071279 
L 120.061877 -91.041445 
L 119.059716 -90.011611 
L 118.063642 -88.981778 
L 117.072525 -87.951944 
L 116.083279 -86.92211 
L 115.091455 -85.892276 
L 114.092042 -84.862442 
L 113.080409 -83.832608 
L 112.053249 -82.802774 
L 111.009412 -81.77294 
L 109.950523 -80.743106 
L 108.881286 -79.713272 
L 107.809436 -78.683438 
L 106.74534 -77.653604 
L 105.701298 -76.62377 
L 104.690621 -75.593936 
L 103.726611 -74.564102 
L 102.821555 -73.534268 
L 101.985851 -72.504434 
L 101.227342 -71.4746 
L 100.550919 -70.444766 
L 99.958408 -69.414932 
L 99.448719 -68.385099 
L 99.018202 -67.355265 
L 98.661163 -66.325431 
L 98.370451 -65.295597 
L 98.138056 -64.265763 
z
" style="stroke: #363636; stroke-width: 1.2"/>
    </defs>
    <g clip-path="url(#p00f6e5f520)">
     <use xlink:href="#m7027c68e4e" x="0" y="353.037375" style="fill: #c38820; stroke: #363636; stroke-width: 1.2"/>
    </g>
   </g>
   <g id="PolyCollection_3">
    <defs>
     <path id="m975beae52c" d="M 196.397106 -189.652309 
L 196.194222 -189.652309 
L 196.120655 -191.087878 
L 196.028045 -192.523447 
L 195.913996 -193.959015 
L 195.776385 -195.394584 
L 195.613358 -196.830153 
L 195.423225 -198.265722 
L 195.204218 -199.70129 
L 194.954143 -201.136859 
L 194.669976 -202.572428 
L 194.347478 -204.007996 
L 193.980958 -205.443565 
L 193.563278 -206.879134 
L 193.086193 -208.314703 
L 192.541077 -209.750271 
L 191.919961 -211.18584 
L 191.216801 -212.621409 
L 190.428747 -214.056978 
L 189.557191 -215.492546 
L 188.608353 -216.928115 
L 187.593216 -218.363684 
L 186.526721 -219.799253 
L 185.426279 -221.234821 
L 184.309777 -222.67039 
L 183.193388 -224.105959 
L 182.089541 -225.541527 
L 181.005423 -226.977096 
L 179.942307 -228.412665 
L 178.895831 -229.848234 
L 177.857234 -231.283802 
L 176.815327 -232.719371 
L 175.758872 -234.15494 
L 174.678953 -235.590509 
L 173.570933 -237.026077 
L 172.435674 -238.461646 
L 171.27986 -239.897215 
L 170.115415 -241.332784 
L 168.958215 -242.768352 
L 167.826374 -244.203921 
L 166.738485 -245.63949 
L 165.712131 -247.075058 
L 164.762925 -248.510627 
L 163.90416 -249.946196 
L 163.147025 -251.381765 
L 162.501198 -252.817333 
L 161.975559 -254.252902 
L 161.578762 -255.688471 
L 161.319465 -257.12404 
L 161.206101 -258.559608 
L 161.246244 -259.995177 
L 161.445663 -261.430746 
L 161.807293 -262.866315 
L 162.330313 -264.301883 
L 163.009513 -265.737452 
L 163.835076 -267.173021 
L 164.792792 -268.608589 
L 165.864678 -270.044158 
L 167.029923 -271.479727 
L 168.266048 -272.915296 
L 169.550177 -274.350864 
L 170.860312 -275.786433 
L 172.176541 -277.222002 
L 173.482077 -278.657571 
L 174.76406 -280.093139 
L 176.01404 -281.528708 
L 177.22807 -282.964277 
L 178.406356 -284.399845 
L 179.552468 -285.835414 
L 180.672156 -287.270983 
L 181.771889 -288.706552 
L 182.857291 -290.14212 
L 183.931694 -291.577689 
L 184.995015 -293.013258 
L 186.043166 -294.448827 
L 187.068095 -295.884395 
L 188.058485 -297.319964 
L 189.001027 -298.755533 
L 189.882062 -300.191102 
L 190.689349 -301.62667 
L 191.413665 -303.062239 
L 192.050005 -304.497808 
L 192.598176 -305.933376 
L 193.062743 -307.368945 
L 193.452334 -308.804514 
L 193.77847 -310.240083 
L 194.054115 -311.675651 
L 194.292182 -313.11122 
L 194.504232 -314.546789 
L 194.699518 -315.982358 
L 194.884475 -317.417926 
L 195.062664 -318.853495 
L 195.235105 -320.289064 
L 195.400886 -321.724633 
L 195.557895 -323.160201 
L 195.703562 -324.59577 
L 195.835481 -326.031339 
L 195.951862 -327.466907 
L 196.051772 -328.902476 
L 196.135194 -330.338045 
L 196.202933 -331.773614 
L 196.397106 -331.773614 
L 196.397106 -331.773614 
L 196.397106 -330.338045 
L 196.397106 -328.902476 
L 196.397106 -327.466907 
L 196.397106 -326.031339 
L 196.397106 -324.59577 
L 196.397106 -323.160201 
L 196.397106 -321.724633 
L 196.397106 -320.289064 
L 196.397106 -318.853495 
L 196.397106 -317.417926 
L 196.397106 -315.982358 
L 196.397106 -314.546789 
L 196.397106 -313.11122 
L 196.397106 -311.675651 
L 196.397106 -310.240083 
L 196.397106 -308.804514 
L 196.397106 -307.368945 
L 196.397106 -305.933376 
L 196.397106 -304.497808 
L 196.397106 -303.062239 
L 196.397106 -301.62667 
L 196.397106 -300.191102 
L 196.397106 -298.755533 
L 196.397106 -297.319964 
L 196.397106 -295.884395 
L 196.397106 -294.448827 
L 196.397106 -293.013258 
L 196.397106 -291.577689 
L 196.397106 -290.14212 
L 196.397106 -288.706552 
L 196.397106 -287.270983 
L 196.397106 -285.835414 
L 196.397106 -284.399845 
L 196.397106 -282.964277 
L 196.397106 -281.528708 
L 196.397106 -280.093139 
L 196.397106 -278.657571 
L 196.397106 -277.222002 
L 196.397106 -275.786433 
L 196.397106 -274.350864 
L 196.397106 -272.915296 
L 196.397106 -271.479727 
L 196.397106 -270.044158 
L 196.397106 -268.608589 
L 196.397106 -267.173021 
L 196.397106 -265.737452 
L 196.397106 -264.301883 
L 196.397106 -262.866315 
L 196.397106 -261.430746 
L 196.397106 -259.995177 
L 196.397106 -258.559608 
L 196.397106 -257.12404 
L 196.397106 -255.688471 
L 196.397106 -254.252902 
L 196.397106 -252.817333 
L 196.397106 -251.381765 
L 196.397106 -249.946196 
L 196.397106 -248.510627 
L 196.397106 -247.075058 
L 196.397106 -245.63949 
L 196.397106 -244.203921 
L 196.397106 -242.768352 
L 196.397106 -241.332784 
L 196.397106 -239.897215 
L 196.397106 -238.461646 
L 196.397106 -237.026077 
L 196.397106 -235.590509 
L 196.397106 -234.15494 
L 196.397106 -232.719371 
L 196.397106 -231.283802 
L 196.397106 -229.848234 
L 196.397106 -228.412665 
L 196.397106 -226.977096 
L 196.397106 -225.541527 
L 196.397106 -224.105959 
L 196.397106 -222.67039 
L 196.397106 -221.234821 
L 196.397106 -219.799253 
L 196.397106 -218.363684 
L 196.397106 -216.928115 
L 196.397106 -215.492546 
L 196.397106 -214.056978 
L 196.397106 -212.621409 
L 196.397106 -211.18584 
L 196.397106 -209.750271 
L 196.397106 -208.314703 
L 196.397106 -206.879134 
L 196.397106 -205.443565 
L 196.397106 -204.007996 
L 196.397106 -202.572428 
L 196.397106 -201.136859 
L 196.397106 -199.70129 
L 196.397106 -198.265722 
L 196.397106 -196.830153 
L 196.397106 -195.394584 
L 196.397106 -193.959015 
L 196.397106 -192.523447 
L 196.397106 -191.087878 
L 196.397106 -189.652309 
z
" style="stroke: #363636; stroke-width: 1.2"/>
    </defs>
    <g clip-path="url(#p00f6e5f520)">
     <use xlink:href="#m975beae52c" x="0" y="353.037375" style="fill: #176d9c; stroke: #363636; stroke-width: 1.2"/>
    </g>
   </g>
   <g id="PolyCollection_4">
    <defs>
     <path id="mdd8ac5e6ff" d="M 196.624393 -137.232119 
L 196.397106 -137.232119 
L 196.397106 -138.428144 
L 196.397106 -139.624168 
L 196.397106 -140.820193 
L 196.397106 -142.016217 
L 196.397106 -143.212242 
L 196.397106 -144.408266 
L 196.397106 -145.604291 
L 196.397106 -146.800315 
L 196.397106 -147.99634 
L 196.397106 -149.192365 
L 196.397106 -150.388389 
L 196.397106 -151.584414 
L 196.397106 -152.780438 
L 196.397106 -153.976463 
L 196.397106 -155.172487 
L 196.397106 -156.368512 
L 196.397106 -157.564537 
L 196.397106 -158.760561 
L 196.397106 -159.956586 
L 196.397106 -161.15261 
L 196.397106 -162.348635 
L 196.397106 -163.544659 
L 196.397106 -164.740684 
L 196.397106 -165.936708 
L 196.397106 -167.132733 
L 196.397106 -168.328758 
L 196.397106 -169.524782 
L 196.397106 -170.720807 
L 196.397106 -171.916831 
L 196.397106 -173.112856 
L 196.397106 -174.30888 
L 196.397106 -175.504905 
L 196.397106 -176.70093 
L 196.397106 -177.896954 
L 196.397106 -179.092979 
L 196.397106 -180.289003 
L 196.397106 -181.485028 
L 196.397106 -182.681052 
L 196.397106 -183.877077 
L 196.397106 -185.073101 
L 196.397106 -186.269126 
L 196.397106 -187.465151 
L 196.397106 -188.661175 
L 196.397106 -189.8572 
L 196.397106 -191.053224 
L 196.397106 -192.249249 
L 196.397106 -193.445273 
L 196.397106 -194.641298 
L 196.397106 -195.837323 
L 196.397106 -197.033347 
L 196.397106 -198.229372 
L 196.397106 -199.425396 
L 196.397106 -200.621421 
L 196.397106 -201.817445 
L 196.397106 -203.01347 
L 196.397106 -204.209494 
L 196.397106 -205.405519 
L 196.397106 -206.601544 
L 196.397106 -207.797568 
L 196.397106 -208.993593 
L 196.397106 -210.189617 
L 196.397106 -211.385642 
L 196.397106 -212.581666 
L 196.397106 -213.777691 
L 196.397106 -214.973716 
L 196.397106 -216.16974 
L 196.397106 -217.365765 
L 196.397106 -218.561789 
L 196.397106 -219.757814 
L 196.397106 -220.953838 
L 196.397106 -222.149863 
L 196.397106 -223.345887 
L 196.397106 -224.541912 
L 196.397106 -225.737937 
L 196.397106 -226.933961 
L 196.397106 -228.129986 
L 196.397106 -229.32601 
L 196.397106 -230.522035 
L 196.397106 -231.718059 
L 196.397106 -232.914084 
L 196.397106 -234.110109 
L 196.397106 -235.306133 
L 196.397106 -236.502158 
L 196.397106 -237.698182 
L 196.397106 -238.894207 
L 196.397106 -240.090231 
L 196.397106 -241.286256 
L 196.397106 -242.48228 
L 196.397106 -243.678305 
L 196.397106 -244.87433 
L 196.397106 -246.070354 
L 196.397106 -247.266379 
L 196.397106 -248.462403 
L 196.397106 -249.658428 
L 196.397106 -250.854452 
L 196.397106 -252.050477 
L 196.397106 -253.246502 
L 196.397106 -254.442526 
L 196.397106 -255.638551 
L 196.988812 -255.638551 
L 196.988812 -255.638551 
L 197.192812 -254.442526 
L 197.44866 -253.246502 
L 197.763271 -252.050477 
L 198.14274 -250.854452 
L 198.59192 -249.658428 
L 199.114073 -248.462403 
L 199.71068 -247.266379 
L 200.381438 -246.070354 
L 201.124487 -244.87433 
L 201.936836 -243.678305 
L 202.814961 -242.48228 
L 203.755468 -241.286256 
L 204.755714 -240.090231 
L 205.814275 -238.894207 
L 206.931137 -237.698182 
L 208.107557 -236.502158 
L 209.345568 -235.306133 
L 210.647179 -234.110109 
L 212.013371 -232.914084 
L 213.443058 -231.718059 
L 214.932161 -230.522035 
L 216.472977 -229.32601 
L 218.053959 -228.129986 
L 219.659973 -226.933961 
L 221.273015 -225.737937 
L 222.873305 -224.541912 
L 224.440591 -223.345887 
L 225.955483 -222.149863 
L 227.40061 -220.953838 
L 228.761415 -219.757814 
L 230.026473 -218.561789 
L 231.18729 -217.365765 
L 232.237618 -216.16974 
L 233.172433 -214.973716 
L 233.986758 -213.777691 
L 234.674587 -212.581666 
L 235.228141 -211.385642 
L 235.637642 -210.189617 
L 235.891742 -208.993593 
L 235.9786 -207.797568 
L 235.88751 -206.601544 
L 235.610866 -205.405519 
L 235.146176 -204.209494 
L 234.497791 -203.01347 
L 233.678037 -201.817445 
L 232.707504 -200.621421 
L 231.614353 -199.425396 
L 230.43266 -198.229372 
L 229.19992 -197.033347 
L 227.954033 -195.837323 
L 226.730109 -194.641298 
L 225.557534 -193.445273 
L 224.457657 -192.249249 
L 223.442415 -191.053224 
L 222.514037 -189.8572 
L 221.665841 -188.661175 
L 220.883957 -187.465151 
L 220.149689 -186.269126 
L 219.442159 -185.073101 
L 218.740834 -183.877077 
L 218.02764 -182.681052 
L 217.288408 -181.485028 
L 216.513585 -180.289003 
L 215.698245 -179.092979 
L 214.841548 -177.896954 
L 213.945892 -176.70093 
L 213.015976 -175.504905 
L 212.057984 -174.30888 
L 211.079018 -173.112856 
L 210.086809 -171.916831 
L 209.089658 -170.720807 
L 208.096492 -169.524782 
L 207.11691 -168.328758 
L 206.161075 -167.132733 
L 205.239401 -165.936708 
L 204.362024 -164.740684 
L 203.538102 -163.544659 
L 202.775074 -162.348635 
L 202.078005 -161.15261 
L 201.449137 -159.956586 
L 200.887745 -158.760561 
L 200.390332 -157.564537 
L 199.951132 -156.368512 
L 199.562847 -155.172487 
L 199.217498 -153.976463 
L 198.907266 -152.780438 
L 198.625204 -151.584414 
L 198.365737 -150.388389 
L 198.124908 -149.192365 
L 197.900377 -147.99634 
L 197.691201 -146.800315 
L 197.497483 -145.604291 
L 197.319939 -144.408266 
L 197.159488 -143.212242 
L 197.016899 -142.016217 
L 196.892539 -140.820193 
L 196.786238 -139.624168 
L 196.697267 -138.428144 
L 196.624393 -137.232119 
z
" style="stroke: #363636; stroke-width: 1.2"/>
    </defs>
    <g clip-path="url(#p00f6e5f520)">
     <use xlink:href="#mdd8ac5e6ff" x="0" y="353.037375" style="fill: #c38820; stroke: #363636; stroke-width: 1.2"/>
    </g>
   </g>
   <g id="PolyCollection_5">
    <defs>
     <path id="ma64d096203" d="M 295.350842 -82.577792 
L 294.911075 -82.577792 
L 294.772316 -84.126159 
L 294.600735 -85.674527 
L 294.392094 -87.222894 
L 294.142587 -88.771261 
L 293.849122 -90.319628 
L 293.509594 -91.867996 
L 293.12312 -93.416363 
L 292.690213 -94.96473 
L 292.212847 -96.513098 
L 291.694413 -98.061465 
L 291.139537 -99.609832 
L 290.553758 -101.158199 
L 289.943098 -102.706567 
L 289.313538 -104.254934 
L 288.670446 -105.803301 
L 288.018026 -107.351668 
L 287.358823 -108.900036 
L 286.693368 -110.448403 
L 286.019993 -111.99677 
L 285.334858 -113.545138 
L 284.632216 -115.093505 
L 283.904895 -116.641872 
L 283.144985 -118.190239 
L 282.344672 -119.738607 
L 281.497142 -121.286974 
L 280.597486 -122.835341 
L 279.643508 -124.383708 
L 278.636349 -125.932076 
L 277.580864 -127.480443 
L 276.485692 -129.02881 
L 275.363007 -130.577177 
L 274.227977 -132.125545 
L 273.097963 -133.673912 
L 271.991568 -135.222279 
L 270.927623 -136.770647 
L 269.924242 -138.319014 
L 268.998025 -139.867381 
L 268.163516 -141.415748 
L 267.432932 -142.964116 
L 266.816169 -144.512483 
L 266.321021 -146.06085 
L 265.953536 -147.609217 
L 265.718381 -149.157585 
L 265.619124 -150.705952 
L 265.658318 -152.254319 
L 265.837367 -153.802687 
L 266.156145 -155.351054 
L 266.612452 -156.899421 
L 267.201379 -158.447788 
L 267.91474 -159.996156 
L 268.740688 -161.544523 
L 269.663641 -163.09289 
L 270.664591 -164.641257 
L 271.721823 -166.189625 
L 272.811992 -167.737992 
L 273.911475 -169.286359 
L 274.997847 -170.834727 
L 276.051312 -172.383094 
L 277.055941 -173.931461 
L 278.000568 -175.479828 
L 278.87925 -177.028196 
L 279.691242 -178.576563 
L 280.440517 -180.12493 
L 281.134883 -181.673297 
L 281.784815 -183.221665 
L 282.402137 -184.770032 
L 282.998693 -186.318399 
L 283.585151 -187.866767 
L 284.170043 -189.415134 
L 284.759134 -190.963501 
L 285.355136 -192.511868 
L 285.957781 -194.060236 
L 286.564204 -195.608603 
L 287.169562 -197.15697 
L 287.767791 -198.705337 
L 288.352414 -200.253705 
L 288.917284 -201.802072 
L 289.457199 -203.350439 
L 289.968322 -204.898807 
L 290.448382 -206.447174 
L 290.896663 -207.995541 
L 291.31381 -209.543908 
L 291.701493 -211.092276 
L 292.062015 -212.640643 
L 292.397899 -214.18901 
L 292.711527 -215.737377 
L 293.004873 -217.285745 
L 293.279343 -218.834112 
L 293.535732 -220.382479 
L 293.774289 -221.930847 
L 293.994846 -223.479214 
L 294.197008 -225.027581 
L 294.380345 -226.575948 
L 294.544563 -228.124316 
L 294.689639 -229.672683 
L 294.815911 -231.22105 
L 294.924096 -232.769417 
L 295.015279 -234.317785 
L 295.090846 -235.866152 
L 295.350842 -235.866152 
L 295.350842 -235.866152 
L 295.350842 -234.317785 
L 295.350842 -232.769417 
L 295.350842 -231.22105 
L 295.350842 -229.672683 
L 295.350842 -228.124316 
L 295.350842 -226.575948 
L 295.350842 -225.027581 
L 295.350842 -223.479214 
L 295.350842 -221.930847 
L 295.350842 -220.382479 
L 295.350842 -218.834112 
L 295.350842 -217.285745 
L 295.350842 -215.737377 
L 295.350842 -214.18901 
L 295.350842 -212.640643 
L 295.350842 -211.092276 
L 295.350842 -209.543908 
L 295.350842 -207.995541 
L 295.350842 -206.447174 
L 295.350842 -204.898807 
L 295.350842 -203.350439 
L 295.350842 -201.802072 
L 295.350842 -200.253705 
L 295.350842 -198.705337 
L 295.350842 -197.15697 
L 295.350842 -195.608603 
L 295.350842 -194.060236 
L 295.350842 -192.511868 
L 295.350842 -190.963501 
L 295.350842 -189.415134 
L 295.350842 -187.866767 
L 295.350842 -186.318399 
L 295.350842 -184.770032 
L 295.350842 -183.221665 
L 295.350842 -181.673297 
L 295.350842 -180.12493 
L 295.350842 -178.576563 
L 295.350842 -177.028196 
L 295.350842 -175.479828 
L 295.350842 -173.931461 
L 295.350842 -172.383094 
L 295.350842 -170.834727 
L 295.350842 -169.286359 
L 295.350842 -167.737992 
L 295.350842 -166.189625 
L 295.350842 -164.641257 
L 295.350842 -163.09289 
L 295.350842 -161.544523 
L 295.350842 -159.996156 
L 295.350842 -158.447788 
L 295.350842 -156.899421 
L 295.350842 -155.351054 
L 295.350842 -153.802687 
L 295.350842 -152.254319 
L 295.350842 -150.705952 
L 295.350842 -149.157585 
L 295.350842 -147.609217 
L 295.350842 -146.06085 
L 295.350842 -144.512483 
L 295.350842 -142.964116 
L 295.350842 -141.415748 
L 295.350842 -139.867381 
L 295.350842 -138.319014 
L 295.350842 -136.770647 
L 295.350842 -135.222279 
L 295.350842 -133.673912 
L 295.350842 -132.125545 
L 295.350842 -130.577177 
L 295.350842 -129.02881 
L 295.350842 -127.480443 
L 295.350842 -125.932076 
L 295.350842 -124.383708 
L 295.350842 -122.835341 
L 295.350842 -121.286974 
L 295.350842 -119.738607 
L 295.350842 -118.190239 
L 295.350842 -116.641872 
L 295.350842 -115.093505 
L 295.350842 -113.545138 
L 295.350842 -111.99677 
L 295.350842 -110.448403 
L 295.350842 -108.900036 
L 295.350842 -107.351668 
L 295.350842 -105.803301 
L 295.350842 -104.254934 
L 295.350842 -102.706567 
L 295.350842 -101.158199 
L 295.350842 -99.609832 
L 295.350842 -98.061465 
L 295.350842 -96.513098 
L 295.350842 -94.96473 
L 295.350842 -93.416363 
L 295.350842 -91.867996 
L 295.350842 -90.319628 
L 295.350842 -88.771261 
L 295.350842 -87.222894 
L 295.350842 -85.674527 
L 295.350842 -84.126159 
L 295.350842 -82.577792 
z
" style="stroke: #363636; stroke-width: 1.2"/>
    </defs>
    <g clip-path="url(#p00f6e5f520)">
     <use xlink:href="#ma64d096203" x="0" y="353.037375" style="fill: #176d9c; stroke: #363636; stroke-width: 1.2"/>
    </g>
   </g>
   <g id="PolyCollection_6">
    <defs>
     <path id="ma30fe200f2" d="M 295.676292 -50.498386 
L 295.350842 -50.498386 
L 295.350842 -51.874693 
L 295.350842 -53.251 
L 295.350842 -54.627307 
L 295.350842 -56.003614 
L 295.350842 -57.379921 
L 295.350842 -58.756228 
L 295.350842 -60.132534 
L 295.350842 -61.508841 
L 295.350842 -62.885148 
L 295.350842 -64.261455 
L 295.350842 -65.637762 
L 295.350842 -67.014069 
L 295.350842 -68.390376 
L 295.350842 -69.766683 
L 295.350842 -71.142989 
L 295.350842 -72.519296 
L 295.350842 -73.895603 
L 295.350842 -75.27191 
L 295.350842 -76.648217 
L 295.350842 -78.024524 
L 295.350842 -79.400831 
L 295.350842 -80.777137 
L 295.350842 -82.153444 
L 295.350842 -83.529751 
L 295.350842 -84.906058 
L 295.350842 -86.282365 
L 295.350842 -87.658672 
L 295.350842 -89.034979 
L 295.350842 -90.411286 
L 295.350842 -91.787592 
L 295.350842 -93.163899 
L 295.350842 -94.540206 
L 295.350842 -95.916513 
L 295.350842 -97.29282 
L 295.350842 -98.669127 
L 295.350842 -100.045434 
L 295.350842 -101.42174 
L 295.350842 -102.798047 
L 295.350842 -104.174354 
L 295.350842 -105.550661 
L 295.350842 -106.926968 
L 295.350842 -108.303275 
L 295.350842 -109.679582 
L 295.350842 -111.055889 
L 295.350842 -112.432195 
L 295.350842 -113.808502 
L 295.350842 -115.184809 
L 295.350842 -116.561116 
L 295.350842 -117.937423 
L 295.350842 -119.31373 
L 295.350842 -120.690037 
L 295.350842 -122.066343 
L 295.350842 -123.44265 
L 295.350842 -124.818957 
L 295.350842 -126.195264 
L 295.350842 -127.571571 
L 295.350842 -128.947878 
L 295.350842 -130.324185 
L 295.350842 -131.700492 
L 295.350842 -133.076798 
L 295.350842 -134.453105 
L 295.350842 -135.829412 
L 295.350842 -137.205719 
L 295.350842 -138.582026 
L 295.350842 -139.958333 
L 295.350842 -141.33464 
L 295.350842 -142.710946 
L 295.350842 -144.087253 
L 295.350842 -145.46356 
L 295.350842 -146.839867 
L 295.350842 -148.216174 
L 295.350842 -149.592481 
L 295.350842 -150.968788 
L 295.350842 -152.345095 
L 295.350842 -153.721401 
L 295.350842 -155.097708 
L 295.350842 -156.474015 
L 295.350842 -157.850322 
L 295.350842 -159.226629 
L 295.350842 -160.602936 
L 295.350842 -161.979243 
L 295.350842 -163.355549 
L 295.350842 -164.731856 
L 295.350842 -166.108163 
L 295.350842 -167.48447 
L 295.350842 -168.860777 
L 295.350842 -170.237084 
L 295.350842 -171.613391 
L 295.350842 -172.989698 
L 295.350842 -174.366004 
L 295.350842 -175.742311 
L 295.350842 -177.118618 
L 295.350842 -178.494925 
L 295.350842 -179.871232 
L 295.350842 -181.247539 
L 295.350842 -182.623846 
L 295.350842 -184.000152 
L 295.350842 -185.376459 
L 295.350842 -186.752766 
L 295.678824 -186.752766 
L 295.678824 -186.752766 
L 295.787134 -185.376459 
L 295.920258 -184.000152 
L 296.080301 -182.623846 
L 296.2686 -181.247539 
L 296.485604 -179.871232 
L 296.730869 -178.494925 
L 297.003221 -177.118618 
L 297.301078 -175.742311 
L 297.622933 -174.366004 
L 297.967944 -172.989698 
L 298.336552 -171.613391 
L 298.73105 -170.237084 
L 299.155985 -168.860777 
L 299.618341 -167.48447 
L 300.127432 -166.108163 
L 300.694532 -164.731856 
L 301.332256 -163.355549 
L 302.053804 -161.979243 
L 302.872143 -160.602936 
L 303.799231 -159.226629 
L 304.845345 -157.850322 
L 306.018532 -156.474015 
L 307.324153 -155.097708 
L 308.76446 -153.721401 
L 310.338124 -152.345095 
L 312.039669 -150.968788 
L 313.8588 -149.592481 
L 315.77969 -148.216174 
L 317.780376 -146.839867 
L 319.832445 -145.46356 
L 321.901215 -144.087253 
L 323.9466 -142.710946 
L 325.924721 -141.33464 
L 327.790246 -139.958333 
L 329.49926 -138.582026 
L 331.012388 -137.205719 
L 332.297739 -135.829412 
L 333.333307 -134.453105 
L 334.108429 -133.076798 
L 334.624084 -131.700492 
L 334.891954 -130.324185 
L 334.932337 -128.947878 
L 334.771213 -127.571571 
L 334.436839 -126.195264 
L 333.956341 -124.818957 
L 333.352751 -123.44265 
L 332.642844 -122.066343 
L 331.836034 -120.690037 
L 330.934403 -119.31373 
L 329.933812 -117.937423 
L 328.825879 -116.561116 
L 327.600538 -115.184809 
L 326.248828 -113.808502 
L 324.765553 -112.432195 
L 323.151501 -111.055889 
L 321.414981 -109.679582 
L 319.572511 -108.303275 
L 317.648621 -106.926968 
L 315.674806 -105.550661 
L 313.687753 -104.174354 
L 311.727049 -102.798047 
L 309.832608 -101.42174 
L 308.042052 -100.045434 
L 306.388312 -98.669127 
L 304.897652 -97.29282 
L 303.588282 -95.916513 
L 302.469649 -94.540206 
L 301.542451 -93.163899 
L 300.799309 -91.787592 
L 300.226003 -90.411286 
L 299.803101 -89.034979 
L 299.507792 -87.658672 
L 299.315731 -86.282365 
L 299.2027 -84.906058 
L 299.145961 -83.529751 
L 299.1252 -82.153444 
L 299.123055 -80.777137 
L 299.125259 -79.400831 
L 299.120486 -78.024524 
L 299.100028 -76.648217 
L 299.057409 -75.27191 
L 298.988047 -73.895603 
L 298.889022 -72.519296 
L 298.758959 -71.142989 
L 298.598016 -69.766683 
L 298.407909 -68.390376 
L 298.1919 -67.014069 
L 297.954705 -65.637762 
L 297.702265 -64.261455 
L 297.441385 -62.885148 
L 297.179266 -61.508841 
L 296.922988 -60.132534 
L 296.679003 -58.756228 
L 296.452702 -57.379921 
L 296.248123 -56.003614 
L 296.067799 -54.627307 
L 295.912771 -53.251 
L 295.782737 -51.874693 
L 295.676292 -50.498386 
z
" style="stroke: #363636; stroke-width: 1.2"/>
    </defs>
    <g clip-path="url(#p00f6e5f520)">
     <use xlink:href="#ma30fe200f2" x="0" y="353.037375" style="fill: #c38820; stroke: #363636; stroke-width: 1.2"/>
    </g>
   </g>
   <g id="line2d_5">
    <path d="M 97.443369 273.316678 
L 97.443369 143.069908 
" clip-path="url(#p00f6e5f520)" style="fill: none; stroke: #363636; stroke-width: 1.2; stroke-linecap: round"/>
   </g>
   <g id="line2d_6">
    <path d="M 97.443369 239.486348 
L 97.443369 195.506919 
" clip-path="url(#p00f6e5f520)" style="fill: none; stroke: #363636; stroke-width: 3.6; stroke-linecap: round"/>
   </g>
   <g id="line2d_7">
    <path d="M 196.397106 198.889952 
L 196.397106 39.887402 
" clip-path="url(#p00f6e5f520)" style="fill: none; stroke: #363636; stroke-width: 1.2; stroke-linecap: round"/>
   </g>
   <g id="line2d_8">
    <path d="M 196.397106 148.144458 
L 196.397106 94.01593 
" clip-path="url(#p00f6e5f520)" style="fill: none; stroke: #363636; stroke-width: 3.6; stroke-linecap: round"/>
   </g>
   <g id="line2d_9">
    <path d="M 295.350842 269.933645 
L 295.350842 158.293557 
" clip-path="url(#p00f6e5f520)" style="fill: none; stroke: #363636; stroke-width: 1.2; stroke-linecap: round"/>
   </g>
   <g id="line2d_10">
    <path d="M 295.350842 230.183007 
L 295.350842 198.889952 
" clip-path="url(#p00f6e5f520)" style="fill: none; stroke: #363636; stroke-width: 3.6; stroke-linecap: round"/>
   </g>
   <g id="patch_5">
    <path d="M 47.9665 316.60275 
L 47.9665 7.2 
" style="fill: none; stroke: #ffffff; stroke-linejoin: miter; stroke-linecap: square"/>
   </g>
   <g id="patch_6">
    <path d="M 47.9665 316.60275 
L 344.827711 316.60275 
" style="fill: none; stroke: #ffffff; stroke-linejoin: miter; stroke-linecap: square"/>
   </g>
   <g id="PathCollection_1">
    <defs>
     <path id="m866b29cfc2" d="M 0 1.2 
C 0.318244 1.2 0.623496 1.07356 0.848528 0.848528 
C 1.07356 0.623496 1.2 0.318244 1.2 0 
C 1.2 -0.318244 1.07356 -0.623496 0.848528 -0.848528 
C 0.623496 -1.07356 0.318244 -1.2 0 -1.2 
C -0.318244 -1.2 -0.623496 -1.07356 -0.848528 -0.848528 
C -1.07356 -0.623496 -1.2 -0.318244 -1.2 0 
C -1.2 0.318244 -1.07356 0.623496 -0.848528 0.848528 
C -0.623496 1.07356 -0.318244 1.2 0 1.2 
z
" style="stroke: #363636; stroke-width: 0.8"/>
    </defs>
    <g clip-path="url(#p00f6e5f520)">
     <use xlink:href="#m866b29cfc2" x="97.443369" y="215.805117" style="fill: #ffffff; stroke: #363636; stroke-width: 0.8"/>
    </g>
   </g>
   <g id="PathCollection_2">
    <g clip-path="url(#p00f6e5f520)">
     <use xlink:href="#m866b29cfc2" x="196.397106" y="127.84626" style="fill: #ffffff; stroke: #363636; stroke-width: 0.8"/>
    </g>
   </g>
   <g id="PathCollection_3">
    <g clip-path="url(#p00f6e5f520)">
     <use xlink:href="#m866b29cfc2" x="295.350842" y="215.805117" style="fill: #ffffff; stroke: #363636; stroke-width: 0.8"/>
    </g>
   </g>
  </g>
  <g id="legend_1">
   <g id="text_10">
    <!-- sex -->
    <g style="fill: #262626" transform="translate(369.125261 166.552562) scale(0.096 -0.096)">
     <defs>
      <path id="ArialMT-78" d="M 47 0 
L 1259 1725 
L 138 3319 
L 841 3319 
L 1350 2541 
Q 1494 2319 1581 2169 
Q 1719 2375 1834 2534 
L 2394 3319 
L 3066 3319 
L 1919 1756 
L 3153 0 
L 2463 0 
L 1781 1031 
L 1600 1309 
L 728 0 
L 47 0 
z
" transform="scale(0.015625)"/>
     </defs>
     <use xlink:href="#ArialMT-73"/>
     <use xlink:href="#ArialMT-65" x="50"/>
     <use xlink:href="#ArialMT-78" x="105.615234"/>
    </g>
   </g>
   <g id="patch_7">
    <path d="M 351.069011 179.159437 
L 368.669011 179.159437 
L 368.669011 172.999437 
L 351.069011 172.999437 
z
" style="fill: #176d9c; stroke: #363636; stroke-width: 0.6; stroke-linejoin: miter"/>
   </g>
   <g id="text_11">
    <!-- male -->
    <g style="fill: #262626" transform="translate(375.709011 179.159437) scale(0.088 -0.088)">
     <use xlink:href="#ArialMT-6d"/>
     <use xlink:href="#ArialMT-61" x="83.300781"/>
     <use xlink:href="#ArialMT-6c" x="138.916016"/>
     <use xlink:href="#ArialMT-65" x="161.132812"/>
    </g>
   </g>
   <g id="patch_8">
    <path d="M 351.069011 191.607312 
L 368.669011 191.607312 
L 368.669011 185.447312 
L 351.069011 185.447312 
z
" style="fill: #c38820; stroke: #363636; stroke-width: 0.6; stroke-linejoin: miter"/>
   </g>
   <g id="text_12">
    <!-- female -->
    <g style="fill: #262626" transform="translate(375.709011 191.607312) scale(0.088 -0.088)">
     <defs>
      <path id="ArialMT-66" d="M 556 0 
L 556 2881 
L 59 2881 
L 59 3319 
L 556 3319 
L 556 3672 
Q 556 4006 616 4169 
Q 697 4388 901 4523 
Q 1106 4659 1475 4659 
Q 1713 4659 2000 4603 
L 1916 4113 
Q 1741 4144 1584 4144 
Q 1328 4144 1222 4034 
Q 1116 3925 1116 3625 
L 1116 3319 
L 1763 3319 
L 1763 2881 
L 1116 2881 
L 1116 0 
L 556 0 
z
" transform="scale(0.015625)"/>
     </defs>
     <use xlink:href="#ArialMT-66"/>
     <use xlink:href="#ArialMT-65" x="27.783203"/>
     <use xlink:href="#ArialMT-6d" x="83.398438"/>
     <use xlink:href="#ArialMT-61" x="166.699219"/>
     <use xlink:href="#ArialMT-6c" x="222.314453"/>
     <use xlink:href="#ArialMT-65" x="244.53125"/>
    </g>
   </g>
  </g>
 </g>
 <defs>
  <clipPath id="p00f6e5f520">
   <rect x="47.9665" y="7.2" width="296.861211" height="309.40275"/>
  </clipPath>
 </defs>
</svg>