<?xml version="1.0" encoding="utf-8" standalone="no"?>
<!DOCTYPE svg PUBLIC "-//W3C//DTD SVG 1.1//EN"
  "http://www.w3.org/Graphics/SVG/1.1/DTD/svg11.dtd">
<svg xmlns:xlink="http://www.w3.org/1999/xlink" width="708.464062pt" height="424.779844pt" viewBox="0 0 708.464062 424.779844" xmlns="http://www.w3.org/2000/svg" version="1.1">
 <metadata>
  <rdf:RDF xmlns:dc="http://purl.org/dc/elements/1.1/" xmlns:cc="http://creativecommons.org/ns#" xmlns:rdf="http://www.w3.org/1999/02/22-rdf-syntax-ns#">
   <cc:Work>
    <dc:type rdf:resource="http://purl.org/dc/dcmitype/StillImage"/>
    <dc:date>2023-05-08T00:42:32.449510</dc:date>
    <dc:format>image/svg+xml</dc:format>
    <dc:creator>
     <cc:Agent>
      <dc:title>Matplotlib v3.7.1, https://matplotlib.org/</dc:title>
     </cc:Agent>
    </dc:creator>
   </cc:Work>
  </rdf:RDF>
 </metadata>
 <defs>
  <style type="text/css">*{stroke-linejoin: round; stroke-linecap: butt}</style>
 </defs>
 <g id="figure_1">
  <g id="patch_1">
   <path d="M 0 424.779844 
L 708.464062 424.779844 
L 708.464062 0 
L 0 0 
z
" style="fill: #ffffff"/>
  </g>
  <g id="axes_1">
   <g id="patch_2">
    <path d="M 44.224063 398.02 
L 353.864063 398.02 
L 353.864063 55.73625 
L 44.224063 55.73625 
z
" style="fill: #eaeaf2"/>
   </g>
   <g id="matplotlib.axis_1">
    <g id="xtick_1">
     <g id="line2d_1">
      <path d="M 77.590018 398.02 
L 77.590018 55.73625 
" clip-path="url(#p83c7291ae1)" style="fill: none; stroke: #ffffff; stroke-linecap: round"/>
     </g>
     <g id="text_1">
      <!-- 60 -->
      <g style="fill: #262626" transform="translate(71.472987 415.393594) scale(0.11 -0.11)">
       <defs>
        <path id="ArialMT-36" d="M 3184 3459 
L 2625 3416 
Q 2550 3747 2413 3897 
Q 2184 4138 1850 4138 
Q 1581 4138 1378 3988 
Q 1113 3794 959 3422 
Q 806 3050 800 2363 
Q 1003 2672 1297 2822 
Q 1591 2972 1913 2972 
Q 2475 2972 2870 2558 
Q 3266 2144 3266 1488 
Q 3266 1056 3080 686 
Q 2894 316 2569 119 
Q 2244 -78 1831 -78 
Q 1128 -78 684 439 
Q 241 956 241 2144 
Q 241 3472 731 4075 
Q 1159 4600 1884 4600 
Q 2425 4600 2770 4297 
Q 3116 3994 3184 3459 
z
M 888 1484 
Q 888 1194 1011 928 
Q 1134 663 1356 523 
Q 1578 384 1822 384 
Q 2178 384 2434 671 
Q 2691 959 2691 1453 
Q 2691 1928 2437 2201 
Q 2184 2475 1800 2475 
Q 1419 2475 1153 2201 
Q 888 1928 888 1484 
z
" transform="scale(0.015625)"/>
        <path id="ArialMT-30" d="M 266 2259 
Q 266 3072 433 3567 
Q 600 4063 929 4331 
Q 1259 4600 1759 4600 
Q 2128 4600 2406 4451 
Q 2684 4303 2865 4023 
Q 3047 3744 3150 3342 
Q 3253 2941 3253 2259 
Q 3253 1453 3087 958 
Q 2922 463 2592 192 
Q 2263 -78 1759 -78 
Q 1097 -78 719 397 
Q 266 969 266 2259 
z
M 844 2259 
Q 844 1131 1108 757 
Q 1372 384 1759 384 
Q 2147 384 2411 759 
Q 2675 1134 2675 2259 
Q 2675 3391 2411 3762 
Q 2147 4134 1753 4134 
Q 1366 4134 1134 3806 
Q 844 3388 844 2259 
z
" transform="scale(0.015625)"/>
       </defs>
       <use xlink:href="#ArialMT-36"/>
       <use xlink:href="#ArialMT-30" x="55.615234"/>
      </g>
     </g>
    </g>
    <g id="xtick_2">
     <g id="line2d_2">
      <path d="M 138.31704 398.02 
L 138.31704 55.73625 
" clip-path="url(#p83c7291ae1)" style="fill: none; stroke: #ffffff; stroke-linecap: round"/>
     </g>
     <g id="text_2">
      <!-- 80 -->
      <g style="fill: #262626" transform="translate(132.200009 415.393594) scale(0.11 -0.11)">
       <defs>
        <path id="ArialMT-38" d="M 1131 2484 
Q 781 2613 612 2850 
Q 444 3088 444 3419 
Q 444 3919 803 4259 
Q 1163 4600 1759 4600 
Q 2359 4600 2725 4251 
Q 3091 3903 3091 3403 
Q 3091 3084 2923 2848 
Q 2756 2613 2416 2484 
Q 2838 2347 3058 2040 
Q 3278 1734 3278 1309 
Q 3278 722 2862 322 
Q 2447 -78 1769 -78 
Q 1091 -78 675 323 
Q 259 725 259 1325 
Q 259 1772 486 2073 
Q 713 2375 1131 2484 
z
M 1019 3438 
Q 1019 3113 1228 2906 
Q 1438 2700 1772 2700 
Q 2097 2700 2305 2904 
Q 2513 3109 2513 3406 
Q 2513 3716 2298 3927 
Q 2084 4138 1766 4138 
Q 1444 4138 1231 3931 
Q 1019 3725 1019 3438 
z
M 838 1322 
Q 838 1081 952 856 
Q 1066 631 1291 507 
Q 1516 384 1775 384 
Q 2178 384 2440 643 
Q 2703 903 2703 1303 
Q 2703 1709 2433 1975 
Q 2163 2241 1756 2241 
Q 1359 2241 1098 1978 
Q 838 1716 838 1322 
z
" transform="scale(0.015625)"/>
       </defs>
       <use xlink:href="#ArialMT-38"/>
       <use xlink:href="#ArialMT-30" x="55.615234"/>
      </g>
     </g>
    </g>
    <g id="xtick_3">
     <g id="line2d_3">
      <path d="M 199.044062 398.02 
L 199.044062 55.73625 
" clip-path="url(#p83c7291ae1)" style="fill: none; stroke: #ffffff; stroke-linecap: round"/>
     </g>
     <g id="text_3">
      <!-- 100 -->
      <g style="fill: #262626" transform="translate(189.868516 415.393594) scale(0.11 -0.11)">
       <defs>
        <path id="ArialMT-31" d="M 2384 0 
L 1822 0 
L 1822 3584 
Q 1619 3391 1289 3197 
Q 959 3003 697 2906 
L 697 3450 
Q 1169 3672 1522 3987 
Q 1875 4303 2022 4600 
L 2384 4600 
L 2384 0 
z
" transform="scale(0.015625)"/>
       </defs>
       <use xlink:href="#ArialMT-31"/>
       <use xlink:href="#ArialMT-30" x="55.615234"/>
       <use xlink:href="#ArialMT-30" x="111.230469"/>
      </g>
     </g>
    </g>
    <g id="xtick_4">
     <g id="line2d_4">
      <path d="M 259.771085 398.02 
L 259.771085 55.73625 
" clip-path="url(#p83c7291ae1)" style="fill: none; stroke: #ffffff; stroke-linecap: round"/>
     </g>
     <g id="text_4">
      <!-- 120 -->
      <g style="fill: #262626" transform="translate(250.595538 415.393594) scale(0.11 -0.11)">
       <defs>
        <path id="ArialMT-32" d="M 3222 541 
L 3222 0 
L 194 0 
Q 188 203 259 391 
Q 375 700 629 1000 
Q 884 1300 1366 1694 
Q 2113 2306 2375 2664 
Q 2638 3022 2638 3341 
Q 2638 3675 2398 3904 
Q 2159 4134 1775 4134 
Q 1369 4134 1125 3890 
Q 881 3647 878 3216 
L 300 3275 
Q 359 3922 746 4261 
Q 1134 4600 1788 4600 
Q 2447 4600 2831 4234 
Q 3216 3869 3216 3328 
Q 3216 3053 3103 2787 
Q 2991 2522 2730 2228 
Q 2469 1934 1863 1422 
Q 1356 997 1212 845 
Q 1069 694 975 541 
L 3222 541 
z
" transform="scale(0.015625)"/>
       </defs>
       <use xlink:href="#ArialMT-31"/>
       <use xlink:href="#ArialMT-32" x="55.615234"/>
       <use xlink:href="#ArialMT-30" x="111.230469"/>
      </g>
     </g>
    </g>
    <g id="xtick_5">
     <g id="line2d_5">
      <path d="M 320.498107 398.02 
L 320.498107 55.73625 
" clip-path="url(#p83c7291ae1)" style="fill: none; stroke: #ffffff; stroke-linecap: round"/>
     </g>
     <g id="text_5">
      <!-- 140 -->
      <g style="fill: #262626" transform="translate(311.32256 415.393594) scale(0.11 -0.11)">
       <defs>
        <path id="ArialMT-34" d="M 2069 0 
L 2069 1097 
L 81 1097 
L 81 1613 
L 2172 4581 
L 2631 4581 
L 2631 1613 
L 3250 1613 
L 3250 1097 
L 2631 1097 
L 2631 0 
L 2069 0 
z
M 2069 1613 
L 2069 3678 
L 634 1613 
L 2069 1613 
z
" transform="scale(0.015625)"/>
       </defs>
       <use xlink:href="#ArialMT-31"/>
       <use xlink:href="#ArialMT-34" x="55.615234"/>
       <use xlink:href="#ArialMT-30" x="111.230469"/>
      </g>
     </g>
    </g>
   </g>
   <g id="matplotlib.axis_2">
    <g id="ytick_1">
     <g id="line2d_6">
      <path d="M 44.224063 382.461648 
L 353.864063 382.461648 
" clip-path="url(#p83c7291ae1)" style="fill: none; stroke: #ffffff; stroke-linecap: round"/>
     </g>
     <g id="text_6">
      <!-- 0.000 -->
      <g style="fill: #262626" transform="translate(7.2 386.398445) scale(0.11 -0.11)">
       <defs>
        <path id="ArialMT-2e" d="M 581 0 
L 581 641 
L 1222 641 
L 1222 0 
L 581 0 
z
" transform="scale(0.015625)"/>
       </defs>
       <use xlink:href="#ArialMT-30"/>
       <use xlink:href="#ArialMT-2e" x="55.615234"/>
       <use xlink:href="#ArialMT-30" x="83.398438"/>
       <use xlink:href="#ArialMT-30" x="139.013672"/>
       <use xlink:href="#ArialMT-30" x="194.628906"/>
      </g>
     </g>
    </g>
    <g id="ytick_2">
     <g id="line2d_7">
      <path d="M 44.224063 323.962859 
L 353.864063 323.962859 
" clip-path="url(#p83c7291ae1)" style="fill: none; stroke: #ffffff; stroke-linecap: round"/>
     </g>
     <g id="text_7">
      <!-- 0.005 -->
      <g style="fill: #262626" transform="translate(7.2 327.899656) scale(0.11 -0.11)">
       <defs>
        <path id="ArialMT-35" d="M 266 1200 
L 856 1250 
Q 922 819 1161 601 
Q 1400 384 1738 384 
Q 2144 384 2425 690 
Q 2706 997 2706 1503 
Q 2706 1984 2436 2262 
Q 2166 2541 1728 2541 
Q 1456 2541 1237 2417 
Q 1019 2294 894 2097 
L 366 2166 
L 809 4519 
L 3088 4519 
L 3088 3981 
L 1259 3981 
L 1013 2750 
Q 1425 3038 1878 3038 
Q 2478 3038 2890 2622 
Q 3303 2206 3303 1553 
Q 3303 931 2941 478 
Q 2500 -78 1738 -78 
Q 1113 -78 717 272 
Q 322 622 266 1200 
z
" transform="scale(0.015625)"/>
       </defs>
       <use xlink:href="#ArialMT-30"/>
       <use xlink:href="#ArialMT-2e" x="55.615234"/>
       <use xlink:href="#ArialMT-30" x="83.398438"/>
       <use xlink:href="#ArialMT-30" x="139.013672"/>
       <use xlink:href="#ArialMT-35" x="194.628906"/>
      </g>
     </g>
    </g>
    <g id="ytick_3">
     <g id="line2d_8">
      <path d="M 44.224063 265.464071 
L 353.864063 265.464071 
" clip-path="url(#p83c7291ae1)" style="fill: none; stroke: #ffffff; stroke-linecap: round"/>
     </g>
     <g id="text_8">
      <!-- 0.010 -->
      <g style="fill: #262626" transform="translate(7.2 269.400868) scale(0.11 -0.11)">
       <use xlink:href="#ArialMT-30"/>
       <use xlink:href="#ArialMT-2e" x="55.615234"/>
       <use xlink:href="#ArialMT-30" x="83.398438"/>
       <use xlink:href="#ArialMT-31" x="139.013672"/>
       <use xlink:href="#ArialMT-30" x="194.628906"/>
      </g>
     </g>
    </g>
    <g id="ytick_4">
     <g id="line2d_9">
      <path d="M 44.224063 206.965282 
L 353.864063 206.965282 
" clip-path="url(#p83c7291ae1)" style="fill: none; stroke: #ffffff; stroke-linecap: round"/>
     </g>
     <g id="text_9">
      <!-- 0.015 -->
      <g style="fill: #262626" transform="translate(7.2 210.902079) scale(0.11 -0.11)">
       <use xlink:href="#ArialMT-30"/>
       <use xlink:href="#ArialMT-2e" x="55.615234"/>
       <use xlink:href="#ArialMT-30" x="83.398438"/>
       <use xlink:href="#ArialMT-31" x="139.013672"/>
       <use xlink:href="#ArialMT-35" x="194.628906"/>
      </g>
     </g>
    </g>
    <g id="ytick_5">
     <g id="line2d_10">
      <path d="M 44.224063 148.466494 
L 353.864063 148.466494 
" clip-path="url(#p83c7291ae1)" style="fill: none; stroke: #ffffff; stroke-linecap: round"/>
     </g>
     <g id="text_10">
      <!-- 0.020 -->
      <g style="fill: #262626" transform="translate(7.2 152.403291) scale(0.11 -0.11)">
       <use xlink:href="#ArialMT-30"/>
       <use xlink:href="#ArialMT-2e" x="55.615234"/>
       <use xlink:href="#ArialMT-30" x="83.398438"/>
       <use xlink:href="#ArialMT-32" x="139.013672"/>
       <use xlink:href="#ArialMT-30" x="194.628906"/>
      </g>
     </g>
    </g>
    <g id="ytick_6">
     <g id="line2d_11">
      <path d="M 44.224063 89.967705 
L 353.864063 89.967705 
" clip-path="url(#p83c7291ae1)" style="fill: none; stroke: #ffffff; stroke-linecap: round"/>
     </g>
     <g id="text_11">
      <!-- 0.025 -->
      <g style="fill: #262626" transform="translate(7.2 93.904502) scale(0.11 -0.11)">
       <use xlink:href="#ArialMT-30"/>
       <use xlink:href="#ArialMT-2e" x="55.615234"/>
       <use xlink:href="#ArialMT-30" x="83.398438"/>
       <use xlink:href="#ArialMT-32" x="139.013672"/>
       <use xlink:href="#ArialMT-35" x="194.628906"/>
      </g>
     </g>
    </g>
   </g>
   <g id="PolyCollection_1"/>
   <g id="PolyCollection_2">
    <defs>
     <path id="m5b24b0a60b" d="M 58.298608 -42.318196 
L 58.298608 -44.944472 
L 58.580381 -44.995113 
L 58.862153 -45.046627 
L 59.143926 -45.099025 
L 59.425699 -45.152321 
L 59.707471 -45.206528 
L 59.989244 -45.26166 
L 60.271017 -45.317728 
L 60.552789 -45.374748 
L 60.834562 -45.432733 
L 61.116335 -45.491696 
L 61.398107 -45.551651 
L 61.67988 -45.612613 
L 61.961653 -45.674596 
L 62.243425 -45.737615 
L 62.525198 -45.801683 
L 62.806971 -45.866816 
L 63.088744 -45.933028 
L 63.370516 -46.000335 
L 63.652289 -46.068751 
L 63.934062 -46.138293 
L 64.215834 -46.208974 
L 64.497607 -46.280812 
L 64.77938 -46.353822 
L 65.061152 -46.42802 
L 65.342925 -46.503422 
L 65.624698 -46.580044 
L 65.90647 -46.657903 
L 66.188243 -46.737015 
L 66.470016 -46.817397 
L 66.751788 -46.899066 
L 67.033561 -46.982039 
L 67.315334 -47.066333 
L 67.597106 -47.151965 
L 67.878879 -47.238954 
L 68.160652 -47.327316 
L 68.442424 -47.41707 
L 68.724197 -47.508233 
L 69.00597 -47.600824 
L 69.287743 -47.694861 
L 69.569515 -47.790363 
L 69.851288 -47.887348 
L 70.133061 -47.985835 
L 70.414833 -48.085842 
L 70.696606 -48.18739 
L 70.978379 -48.290497 
L 71.260151 -48.395183 
L 71.541924 -48.501467 
L 71.823697 -48.609369 
L 72.105469 -48.718909 
L 72.387242 -48.830107 
L 72.669015 -48.942984 
L 72.950787 -49.057559 
L 73.23256 -49.173853 
L 73.514333 -49.291887 
L 73.796105 -49.411682 
L 74.077878 -49.533258 
L 74.359651 -49.656637 
L 74.641423 -49.781841 
L 74.923196 -49.90889 
L 75.204969 -50.037806 
L 75.486742 -50.168611 
L 75.768514 -50.301327 
L 76.050287 -50.435976 
L 76.33206 -50.57258 
L 76.613832 -50.711162 
L 76.895605 -50.851743 
L 77.177378 -50.994348 
L 77.45915 -51.138997 
L 77.740923 -51.285715 
L 78.022696 -51.434525 
L 78.304468 -51.585449 
L 78.586241 -51.738511 
L 78.868014 -51.893735 
L 79.149786 -52.051144 
L 79.431559 -52.210762 
L 79.713332 -52.372613 
L 79.995104 -52.536721 
L 80.276877 -52.703109 
L 80.55865 -52.871804 
L 80.840422 -53.042827 
L 81.122195 -53.216206 
L 81.403968 -53.391963 
L 81.685741 -53.570124 
L 81.967513 -53.750714 
L 82.249286 -53.933758 
L 82.531059 -54.119281 
L 82.812831 -54.307308 
L 83.094604 -54.497865 
L 83.376377 -54.690976 
L 83.658149 -54.886669 
L 83.939922 -55.084968 
L 84.221695 -55.2859 
L 84.503467 -55.489489 
L 84.78524 -55.695763 
L 85.067013 -55.904748 
L 85.348785 -56.116469 
L 85.630558 -56.330953 
L 85.912331 -56.548226 
L 86.194103 -56.768315 
L 86.475876 -56.991247 
L 86.757649 -57.217047 
L 87.039421 -57.445743 
L 87.321194 -57.677362 
L 87.602967 -57.911931 
L 87.88474 -58.149476 
L 88.166512 -58.390024 
L 88.448285 -58.633603 
L 88.730058 -58.880239 
L 89.01183 -59.129961 
L 89.293603 -59.382794 
L 89.575376 -59.638767 
L 89.857148 -59.897907 
L 90.138921 -60.16024 
L 90.420694 -60.425796 
L 90.702466 -60.694601 
L 90.984239 -60.966682 
L 91.266012 -61.242067 
L 91.547784 -61.520784 
L 91.829557 -61.80286 
L 92.11133 -62.088323 
L 92.393102 -62.377201 
L 92.674875 -62.66952 
L 92.956648 -62.965309 
L 93.23842 -63.264596 
L 93.520193 -63.567408 
L 93.801966 -63.873772 
L 94.083739 -64.183716 
L 94.365511 -64.497268 
L 94.647284 -64.814455 
L 94.929057 -65.135305 
L 95.210829 -65.459845 
L 95.492602 -65.788103 
L 95.774375 -66.120107 
L 96.056147 -66.455883 
L 96.33792 -66.795459 
L 96.619693 -67.138862 
L 96.901465 -67.48612 
L 97.183238 -67.837259 
L 97.465011 -68.192307 
L 97.746783 -68.55129 
L 98.028556 -68.914237 
L 98.310329 -69.281173 
L 98.592101 -69.652125 
L 98.873874 -70.02712 
L 99.155647 -70.406184 
L 99.437419 -70.789345 
L 99.719192 -71.176627 
L 100.000965 -71.568059 
L 100.282738 -71.963664 
L 100.56451 -72.363471 
L 100.846283 -72.767504 
L 101.128056 -73.175789 
L 101.409828 -73.588352 
L 101.691601 -74.005217 
L 101.973374 -74.426412 
L 102.255146 -74.851959 
L 102.536919 -75.281885 
L 102.818692 -75.716214 
L 103.100464 -76.15497 
L 103.382237 -76.598179 
L 103.66401 -77.045863 
L 103.945782 -77.498048 
L 104.227555 -77.954756 
L 104.509328 -78.416012 
L 104.7911 -78.881839 
L 105.072873 -79.352259 
L 105.354646 -79.827296 
L 105.636418 -80.306973 
L 105.918191 -80.79131 
L 106.199964 -81.280332 
L 106.481737 -81.77406 
L 106.763509 -82.272514 
L 107.045282 -82.775717 
L 107.327055 -83.28369 
L 107.608827 -83.796453 
L 107.8906 -84.314027 
L 108.172373 -84.836432 
L 108.454145 -85.363688 
L 108.735918 -85.895814 
L 109.017691 -86.43283 
L 109.299463 -86.974754 
L 109.581236 -87.521605 
L 109.863009 -88.073402 
L 110.144781 -88.630162 
L 110.426554 -89.191902 
L 110.708327 -89.758641 
L 110.990099 -90.330394 
L 111.271872 -90.907177 
L 111.553645 -91.489008 
L 111.835417 -92.075902 
L 112.11719 -92.667873 
L 112.398963 -93.264938 
L 112.680736 -93.867109 
L 112.962508 -94.474402 
L 113.244281 -95.086829 
L 113.526054 -95.704404 
L 113.807826 -96.32714 
L 114.089599 -96.955048 
L 114.371372 -97.588141 
L 114.653144 -98.22643 
L 114.934917 -98.869926 
L 115.21669 -99.518639 
L 115.498462 -100.172579 
L 115.780235 -100.831755 
L 116.062008 -101.496177 
L 116.34378 -102.165853 
L 116.625553 -102.84079 
L 116.907326 -103.520996 
L 117.189098 -104.206479 
L 117.470871 -104.897244 
L 117.752644 -105.593297 
L 118.034416 -106.294643 
L 118.316189 -107.001287 
L 118.597962 -107.713233 
L 118.879735 -108.430485 
L 119.161507 -109.153046 
L 119.44328 -109.880918 
L 119.725053 -110.614103 
L 120.006825 -111.352601 
L 120.288598 -112.096415 
L 120.570371 -112.845543 
L 120.852143 -113.599986 
L 121.133916 -114.359742 
L 121.415689 -115.124808 
L 121.697461 -115.895184 
L 121.979234 -116.670864 
L 122.261007 -117.451847 
L 122.542779 -118.238127 
L 122.824552 -119.0297 
L 123.106325 -119.826559 
L 123.388097 -120.628698 
L 123.66987 -121.43611 
L 123.951643 -122.248788 
L 124.233415 -123.066723 
L 124.515188 -123.889905 
L 124.796961 -124.718326 
L 125.078734 -125.551973 
L 125.360506 -126.390837 
L 125.642279 -127.234905 
L 125.924052 -128.084165 
L 126.205824 -128.938603 
L 126.487597 -129.798204 
L 126.76937 -130.662955 
L 127.051142 -131.532839 
L 127.332915 -132.407841 
L 127.614688 -133.287942 
L 127.89646 -134.173125 
L 128.178233 -135.063372 
L 128.460006 -135.958663 
L 128.741778 -136.858977 
L 129.023551 -137.764295 
L 129.305324 -138.674594 
L 129.587096 -139.589851 
L 129.868869 -140.510044 
L 130.150642 -141.435148 
L 130.432414 -142.365139 
L 130.714187 -143.29999 
L 130.99596 -144.239676 
L 131.277733 -145.184168 
L 131.559505 -146.13344 
L 131.841278 -147.087462 
L 132.123051 -148.046203 
L 132.404823 -149.009635 
L 132.686596 -149.977725 
L 132.968369 -150.950442 
L 133.250141 -151.927751 
L 133.531914 -152.90962 
L 133.813687 -153.896014 
L 134.095459 -154.886897 
L 134.377232 -155.882233 
L 134.659005 -156.881985 
L 134.940777 -157.886115 
L 135.22255 -158.894584 
L 135.504323 -159.907352 
L 135.786095 -160.924379 
L 136.067868 -161.945623 
L 136.349641 -162.971043 
L 136.631413 -164.000594 
L 136.913186 -165.034235 
L 137.194959 -166.071918 
L 137.476732 -167.1136 
L 137.758504 -168.159234 
L 138.040277 -169.208771 
L 138.32205 -170.262165 
L 138.603822 -171.319367 
L 138.885595 -172.380326 
L 139.167368 -173.444991 
L 139.44914 -174.513312 
L 139.730913 -175.585236 
L 140.012686 -176.66071 
L 140.294458 -177.73968 
L 140.576231 -178.82209 
L 140.858004 -179.907886 
L 141.139776 -180.997011 
L 141.421549 -182.089407 
L 141.703322 -183.185017 
L 141.985094 -184.28378 
L 142.266867 -185.385638 
L 142.54864 -186.49053 
L 142.830412 -187.598394 
L 143.112185 -188.709168 
L 143.393958 -189.822789 
L 143.675731 -190.939193 
L 143.957503 -192.058316 
L 144.239276 -193.180091 
L 144.521049 -194.304452 
L 144.802821 -195.431333 
L 145.084594 -196.560665 
L 145.366367 -197.69238 
L 145.648139 -198.826408 
L 145.929912 -199.962679 
L 146.211685 -201.101122 
L 146.493457 -202.241666 
L 146.77523 -203.384237 
L 147.057003 -204.528762 
L 147.338775 -205.675168 
L 147.620548 -206.82338 
L 147.902321 -207.973321 
L 148.184093 -209.124917 
L 148.465866 -210.278089 
L 148.747639 -211.43276 
L 149.029411 -212.588853 
L 149.311184 -213.746287 
L 149.592957 -214.904983 
L 149.87473 -216.06486 
L 150.156502 -217.225838 
L 150.438275 -218.387835 
L 150.720048 -219.550767 
L 151.00182 -220.714553 
L 151.283593 -221.879107 
L 151.565366 -223.044347 
L 151.847138 -224.210186 
L 152.128911 -225.376539 
L 152.410684 -226.54332 
L 152.692456 -227.710441 
L 152.974229 -228.877816 
L 153.256002 -230.045357 
L 153.537774 -231.212974 
L 153.819547 -232.380579 
L 154.10132 -233.548082 
L 154.383092 -234.715392 
L 154.664865 -235.882419 
L 154.946638 -237.049072 
L 155.22841 -238.215258 
L 155.510183 -239.380885 
L 155.791956 -240.545861 
L 156.073729 -241.710092 
L 156.355501 -242.873485 
L 156.637274 -244.035945 
L 156.919047 -245.197377 
L 157.200819 -246.357687 
L 157.482592 -247.516779 
L 157.764365 -248.674557 
L 158.046137 -249.830925 
L 158.32791 -250.985786 
L 158.609683 -252.139043 
L 158.891455 -253.290599 
L 159.173228 -254.440355 
L 159.455001 -255.588215 
L 159.736773 -256.734079 
L 160.018546 -257.87785 
L 160.300319 -259.019427 
L 160.582091 -260.158712 
L 160.863864 -261.295605 
L 161.145637 -262.430007 
L 161.427409 -263.561817 
L 161.709182 -264.690935 
L 161.990955 -265.817262 
L 162.272728 -266.940696 
L 162.5545 -268.061136 
L 162.836273 -269.178482 
L 163.118046 -270.292633 
L 163.399818 -271.403488 
L 163.681591 -272.510944 
L 163.963364 -273.614901 
L 164.245136 -274.715258 
L 164.526909 -275.811912 
L 164.808682 -276.904762 
L 165.090454 -277.993707 
L 165.372227 -279.078644 
L 165.654 -280.159473 
L 165.935772 -281.236091 
L 166.217545 -282.308396 
L 166.499318 -283.376288 
L 166.78109 -284.439664 
L 167.062863 -285.498424 
L 167.344636 -286.552465 
L 167.626408 -287.601686 
L 167.908181 -288.645986 
L 168.189954 -289.685265 
L 168.471727 -290.71942 
L 168.753499 -291.748352 
L 169.035272 -292.77196 
L 169.317045 -293.790144 
L 169.598817 -294.802802 
L 169.88059 -295.809836 
L 170.162363 -296.811146 
L 170.444135 -297.806632 
L 170.725908 -298.796196 
L 171.007681 -299.779737 
L 171.289453 -300.757159 
L 171.571226 -301.728362 
L 171.852999 -302.693249 
L 172.134771 -303.651722 
L 172.416544 -304.603685 
L 172.698317 -305.54904 
L 172.980089 -306.487691 
L 173.261862 -307.419542 
L 173.543635 -308.344498 
L 173.825407 -309.262464 
L 174.10718 -310.173345 
L 174.388953 -311.077048 
L 174.670726 -311.973478 
L 174.952498 -312.862544 
L 175.234271 -313.744151 
L 175.516044 -314.618209 
L 175.797816 -315.484626 
L 176.079589 -316.343312 
L 176.361362 -317.194176 
L 176.643134 -318.037128 
L 176.924907 -318.872081 
L 177.20668 -319.698945 
L 177.488452 -320.517633 
L 177.770225 -321.328058 
L 178.051998 -322.130134 
L 178.33377 -322.923775 
L 178.615543 -323.708898 
L 178.897316 -324.485417 
L 179.179088 -325.253249 
L 179.460861 -326.012312 
L 179.742634 -326.762525 
L 180.024406 -327.503806 
L 180.306179 -328.236075 
L 180.587952 -328.959253 
L 180.869725 -329.673261 
L 181.151497 -330.378023 
L 181.43327 -331.07346 
L 181.715043 -331.759498 
L 181.996815 -332.436062 
L 182.278588 -333.103077 
L 182.560361 -333.760471 
L 182.842133 -334.408171 
L 183.123906 -335.046106 
L 183.405679 -335.674207 
L 183.687451 -336.292403 
L 183.969224 -336.900626 
L 184.250997 -337.49881 
L 184.532769 -338.086887 
L 184.814542 -338.664794 
L 185.096315 -339.232465 
L 185.378087 -339.789838 
L 185.65986 -340.33685 
L 185.941633 -340.873441 
L 186.223405 -341.39955 
L 186.505178 -341.91512 
L 186.786951 -342.420092 
L 187.068724 -342.914409 
L 187.350496 -343.398017 
L 187.632269 -343.87086 
L 187.914042 -344.332887 
L 188.195814 -344.784044 
L 188.477587 -345.224282 
L 188.75936 -345.65355 
L 189.041132 -346.0718 
L 189.322905 -346.478985 
L 189.604678 -346.875059 
L 189.88645 -347.259976 
L 190.168223 -347.633695 
L 190.449996 -347.996171 
L 190.731768 -348.347364 
L 191.013541 -348.687234 
L 191.295314 -349.015743 
L 191.577086 -349.332853 
L 191.858859 -349.638528 
L 192.140632 -349.932733 
L 192.422404 -350.215435 
L 192.704177 -350.486601 
L 192.98595 -350.746202 
L 193.267723 -350.994206 
L 193.549495 -351.230585 
L 193.831268 -351.455314 
L 194.113041 -351.668365 
L 194.394813 -351.869716 
L 194.676586 -352.059341 
L 194.958359 -352.237221 
L 195.240131 -352.403334 
L 195.521904 -352.557662 
L 195.803677 -352.700186 
L 196.085449 -352.830891 
L 196.367222 -352.949761 
L 196.648995 -353.056784 
L 196.930767 -353.151945 
L 197.21254 -353.235236 
L 197.494313 -353.306646 
L 197.776085 -353.366166 
L 198.057858 -353.413791 
L 198.339631 -353.449514 
L 198.621403 -353.473332 
L 198.903176 -353.485241 
L 199.184949 -353.485241 
L 199.466722 -353.473332 
L 199.748494 -353.449514 
L 200.030267 -353.413791 
L 200.31204 -353.366166 
L 200.593812 -353.306646 
L 200.875585 -353.235236 
L 201.157358 -353.151945 
L 201.43913 -353.056784 
L 201.720903 -352.949761 
L 202.002676 -352.830891 
L 202.284448 -352.700186 
L 202.566221 -352.557662 
L 202.847994 -352.403334 
L 203.129766 -352.237221 
L 203.411539 -352.059341 
L 203.693312 -351.869716 
L 203.975084 -351.668365 
L 204.256857 -351.455314 
L 204.53863 -351.230585 
L 204.820402 -350.994206 
L 205.102175 -350.746202 
L 205.383948 -350.486601 
L 205.665721 -350.215435 
L 205.947493 -349.932733 
L 206.229266 -349.638528 
L 206.511039 -349.332853 
L 206.792811 -349.015743 
L 207.074584 -348.687234 
L 207.356357 -348.347364 
L 207.638129 -347.996171 
L 207.919902 -347.633695 
L 208.201675 -347.259976 
L 208.483447 -346.875059 
L 208.76522 -346.478985 
L 209.046993 -346.0718 
L 209.328765 -345.65355 
L 209.610538 -345.224282 
L 209.892311 -344.784044 
L 210.174083 -344.332887 
L 210.455856 -343.87086 
L 210.737629 -343.398017 
L 211.019401 -342.914409 
L 211.301174 -342.420092 
L 211.582947 -341.91512 
L 211.86472 -341.39955 
L 212.146492 -340.873441 
L 212.428265 -340.33685 
L 212.710038 -339.789838 
L 212.99181 -339.232465 
L 213.273583 -338.664794 
L 213.555356 -338.086887 
L 213.837128 -337.49881 
L 214.118901 -336.900626 
L 214.400674 -336.292403 
L 214.682446 -335.674207 
L 214.964219 -335.046106 
L 215.245992 -334.408171 
L 215.527764 -333.760471 
L 215.809537 -333.103077 
L 216.09131 -332.436062 
L 216.373082 -331.759498 
L 216.654855 -331.07346 
L 216.936628 -330.378023 
L 217.2184 -329.673261 
L 217.500173 -328.959253 
L 217.781946 -328.236075 
L 218.063719 -327.503806 
L 218.345491 -326.762525 
L 218.627264 -326.012312 
L 218.909037 -325.253249 
L 219.190809 -324.485417 
L 219.472582 -323.708898 
L 219.754355 -322.923775 
L 220.036127 -322.130134 
L 220.3179 -321.328058 
L 220.599673 -320.517633 
L 220.881445 -319.698945 
L 221.163218 -318.872081 
L 221.444991 -318.037128 
L 221.726763 -317.194176 
L 222.008536 -316.343312 
L 222.290309 -315.484626 
L 222.572081 -314.618209 
L 222.853854 -313.744151 
L 223.135627 -312.862544 
L 223.417399 -311.973478 
L 223.699172 -311.077048 
L 223.980945 -310.173345 
L 224.262718 -309.262464 
L 224.54449 -308.344498 
L 224.826263 -307.419542 
L 225.108036 -306.487691 
L 225.389808 -305.54904 
L 225.671581 -304.603685 
L 225.953354 -303.651722 
L 226.235126 -302.693249 
L 226.516899 -301.728362 
L 226.798672 -300.757159 
L 227.080444 -299.779737 
L 227.362217 -298.796196 
L 227.64399 -297.806632 
L 227.925762 -296.811146 
L 228.207535 -295.809836 
L 228.489308 -294.802802 
L 228.77108 -293.790144 
L 229.052853 -292.77196 
L 229.334626 -291.748352 
L 229.616398 -290.71942 
L 229.898171 -289.685265 
L 230.179944 -288.645986 
L 230.461717 -287.601686 
L 230.743489 -286.552465 
L 231.025262 -285.498424 
L 231.307035 -284.439664 
L 231.588807 -283.376288 
L 231.87058 -282.308396 
L 232.152353 -281.236091 
L 232.434125 -280.159473 
L 232.715898 -279.078644 
L 232.997671 -277.993707 
L 233.279443 -276.904762 
L 233.561216 -275.811912 
L 233.842989 -274.715258 
L 234.124761 -273.614901 
L 234.406534 -272.510944 
L 234.688307 -271.403488 
L 234.970079 -270.292633 
L 235.251852 -269.178482 
L 235.533625 -268.061136 
L 235.815397 -266.940696 
L 236.09717 -265.817262 
L 236.378943 -264.690935 
L 236.660716 -263.561817 
L 236.942488 -262.430007 
L 237.224261 -261.295605 
L 237.506034 -260.158712 
L 237.787806 -259.019427 
L 238.069579 -257.87785 
L 238.351352 -256.734079 
L 238.633124 -255.588215 
L 238.914897 -254.440355 
L 239.19667 -253.290599 
L 239.478442 -252.139043 
L 239.760215 -250.985786 
L 240.041988 -249.830925 
L 240.32376 -248.674557 
L 240.605533 -247.516779 
L 240.887306 -246.357687 
L 241.169078 -245.197377 
L 241.450851 -244.035945 
L 241.732624 -242.873485 
L 242.014396 -241.710092 
L 242.296169 -240.545861 
L 242.577942 -239.380885 
L 242.859715 -238.215258 
L 243.141487 -237.049072 
L 243.42326 -235.882419 
L 243.705033 -234.715392 
L 243.986805 -233.548082 
L 244.268578 -232.380579 
L 244.550351 -231.212974 
L 244.550351 -42.318196 
L 244.550351 -42.318196 
L 244.268578 -42.318196 
L 243.986805 -42.318196 
L 243.705033 -42.318196 
L 243.42326 -42.318196 
L 243.141487 -42.318196 
L 242.859715 -42.318196 
L 242.577942 -42.318196 
L 242.296169 -42.318196 
L 242.014396 -42.318196 
L 241.732624 -42.318196 
L 241.450851 -42.318196 
L 241.169078 -42.318196 
L 240.887306 -42.318196 
L 240.605533 -42.318196 
L 240.32376 -42.318196 
L 240.041988 -42.318196 
L 239.760215 -42.318196 
L 239.478442 -42.318196 
L 239.19667 -42.318196 
L 238.914897 -42.318196 
L 238.633124 -42.318196 
L 238.351352 -42.318196 
L 238.069579 -42.318196 
L 237.787806 -42.318196 
L 237.506034 -42.318196 
L 237.224261 -42.318196 
L 236.942488 -42.318196 
L 236.660716 -42.318196 
L 236.378943 -42.318196 
L 236.09717 -42.318196 
L 235.815397 -42.318196 
L 235.533625 -42.318196 
L 235.251852 -42.318196 
L 234.970079 -42.318196 
L 234.688307 -42.318196 
L 234.406534 -42.318196 
L 234.124761 -42.318196 
L 233.842989 -42.318196 
L 233.561216 -42.318196 
L 233.279443 -42.318196 
L 232.997671 -42.318196 
L 232.715898 -42.318196 
L 232.434125 -42.318196 
L 232.152353 -42.318196 
L 231.87058 -42.318196 
L 231.588807 -42.318196 
L 231.307035 -42.318196 
L 231.025262 -42.318196 
L 230.743489 -42.318196 
L 230.461717 -42.318196 
L 230.179944 -42.318196 
L 229.898171 -42.318196 
L 229.616398 -42.318196 
L 229.334626 -42.318196 
L 229.052853 -42.318196 
L 228.77108 -42.318196 
L 228.489308 -42.318196 
L 228.207535 -42.318196 
L 227.925762 -42.318196 
L 227.64399 -42.318196 
L 227.362217 -42.318196 
L 227.080444 -42.318196 
L 226.798672 -42.318196 
L 226.516899 -42.318196 
L 226.235126 -42.318196 
L 225.953354 -42.318196 
L 225.671581 -42.318196 
L 225.389808 -42.318196 
L 225.108036 -42.318196 
L 224.826263 -42.318196 
L 224.54449 -42.318196 
L 224.262718 -42.318196 
L 223.980945 -42.318196 
L 223.699172 -42.318196 
L 223.417399 -42.318196 
L 223.135627 -42.318196 
L 222.853854 -42.318196 
L 222.572081 -42.318196 
L 222.290309 -42.318196 
L 222.008536 -42.318196 
L 221.726763 -42.318196 
L 221.444991 -42.318196 
L 221.163218 -42.318196 
L 220.881445 -42.318196 
L 220.599673 -42.318196 
L 220.3179 -42.318196 
L 220.036127 -42.318196 
L 219.754355 -42.318196 
L 219.472582 -42.318196 
L 219.190809 -42.318196 
L 218.909037 -42.318196 
L 218.627264 -42.318196 
L 218.345491 -42.318196 
L 218.063719 -42.318196 
L 217.781946 -42.318196 
L 217.500173 -42.318196 
L 217.2184 -42.318196 
L 216.936628 -42.318196 
L 216.654855 -42.318196 
L 216.373082 -42.318196 
L 216.09131 -42.318196 
L 215.809537 -42.318196 
L 215.527764 -42.318196 
L 215.245992 -42.318196 
L 214.964219 -42.318196 
L 214.682446 -42.318196 
L 214.400674 -42.318196 
L 214.118901 -42.318196 
L 213.837128 -42.318196 
L 213.555356 -42.318196 
L 213.273583 -42.318196 
L 212.99181 -42.318196 
L 212.710038 -42.318196 
L 212.428265 -42.318196 
L 212.146492 -42.318196 
L 211.86472 -42.318196 
L 211.582947 -42.318196 
L 211.301174 -42.318196 
L 211.019401 -42.318196 
L 210.737629 -42.318196 
L 210.455856 -42.318196 
L 210.174083 -42.318196 
L 209.892311 -42.318196 
L 209.610538 -42.318196 
L 209.328765 -42.318196 
L 209.046993 -42.318196 
L 208.76522 -42.318196 
L 208.483447 -42.318196 
L 208.201675 -42.318196 
L 207.919902 -42.318196 
L 207.638129 -42.318196 
L 207.356357 -42.318196 
L 207.074584 -42.318196 
L 206.792811 -42.318196 
L 206.511039 -42.318196 
L 206.229266 -42.318196 
L 205.947493 -42.318196 
L 205.665721 -42.318196 
L 205.383948 -42.318196 
L 205.102175 -42.318196 
L 204.820402 -42.318196 
L 204.53863 -42.318196 
L 204.256857 -42.318196 
L 203.975084 -42.318196 
L 203.693312 -42.318196 
L 203.411539 -42.318196 
L 203.129766 -42.318196 
L 202.847994 -42.318196 
L 202.566221 -42.318196 
L 202.284448 -42.318196 
L 202.002676 -42.318196 
L 201.720903 -42.318196 
L 201.43913 -42.318196 
L 201.157358 -42.318196 
L 200.875585 -42.318196 
L 200.593812 -42.318196 
L 200.31204 -42.318196 
L 200.030267 -42.318196 
L 199.748494 -42.318196 
L 199.466722 -42.318196 
L 199.184949 -42.318196 
L 198.903176 -42.318196 
L 198.621403 -42.318196 
L 198.339631 -42.318196 
L 198.057858 -42.318196 
L 197.776085 -42.318196 
L 197.494313 -42.318196 
L 197.21254 -42.318196 
L 196.930767 -42.318196 
L 196.648995 -42.318196 
L 196.367222 -42.318196 
L 196.085449 -42.318196 
L 195.803677 -42.318196 
L 195.521904 -42.318196 
L 195.240131 -42.318196 
L 194.958359 -42.318196 
L 194.676586 -42.318196 
L 194.394813 -42.318196 
L 194.113041 -42.318196 
L 193.831268 -42.318196 
L 193.549495 -42.318196 
L 193.267723 -42.318196 
L 192.98595 -42.318196 
L 192.704177 -42.318196 
L 192.422404 -42.318196 
L 192.140632 -42.318196 
L 191.858859 -42.318196 
L 191.577086 -42.318196 
L 191.295314 -42.318196 
L 191.013541 -42.318196 
L 190.731768 -42.318196 
L 190.449996 -42.318196 
L 190.168223 -42.318196 
L 189.88645 -42.318196 
L 189.604678 -42.318196 
L 189.322905 -42.318196 
L 189.041132 -42.318196 
L 188.75936 -42.318196 
L 188.477587 -42.318196 
L 188.195814 -42.318196 
L 187.914042 -42.318196 
L 187.632269 -42.318196 
L 187.350496 -42.318196 
L 187.068724 -42.318196 
L 186.786951 -42.318196 
L 186.505178 -42.318196 
L 186.223405 -42.318196 
L 185.941633 -42.318196 
L 185.65986 -42.318196 
L 185.378087 -42.318196 
L 185.096315 -42.318196 
L 184.814542 -42.318196 
L 184.532769 -42.318196 
L 184.250997 -42.318196 
L 183.969224 -42.318196 
L 183.687451 -42.318196 
L 183.405679 -42.318196 
L 183.123906 -42.318196 
L 182.842133 -42.318196 
L 182.560361 -42.318196 
L 182.278588 -42.318196 
L 181.996815 -42.318196 
L 181.715043 -42.318196 
L 181.43327 -42.318196 
L 181.151497 -42.318196 
L 180.869725 -42.318196 
L 180.587952 -42.318196 
L 180.306179 -42.318196 
L 180.024406 -42.318196 
L 179.742634 -42.318196 
L 179.460861 -42.318196 
L 179.179088 -42.318196 
L 178.897316 -42.318196 
L 178.615543 -42.318196 
L 178.33377 -42.318196 
L 178.051998 -42.318196 
L 177.770225 -42.318196 
L 177.488452 -42.318196 
L 177.20668 -42.318196 
L 176.924907 -42.318196 
L 176.643134 -42.318196 
L 176.361362 -42.318196 
L 176.079589 -42.318196 
L 175.797816 -42.318196 
L 175.516044 -42.318196 
L 175.234271 -42.318196 
L 174.952498 -42.318196 
L 174.670726 -42.318196 
L 174.388953 -42.318196 
L 174.10718 -42.318196 
L 173.825407 -42.318196 
L 173.543635 -42.318196 
L 173.261862 -42.318196 
L 172.980089 -42.318196 
L 172.698317 -42.318196 
L 172.416544 -42.318196 
L 172.134771 -42.318196 
L 171.852999 -42.318196 
L 171.571226 -42.318196 
L 171.289453 -42.318196 
L 171.007681 -42.318196 
L 170.725908 -42.318196 
L 170.444135 -42.318196 
L 170.162363 -42.318196 
L 169.88059 -42.318196 
L 169.598817 -42.318196 
L 169.317045 -42.318196 
L 169.035272 -42.318196 
L 168.753499 -42.318196 
L 168.471727 -42.318196 
L 168.189954 -42.318196 
L 167.908181 -42.318196 
L 167.626408 -42.318196 
L 167.344636 -42.318196 
L 167.062863 -42.318196 
L 166.78109 -42.318196 
L 166.499318 -42.318196 
L 166.217545 -42.318196 
L 165.935772 -42.318196 
L 165.654 -42.318196 
L 165.372227 -42.318196 
L 165.090454 -42.318196 
L 164.808682 -42.318196 
L 164.526909 -42.318196 
L 164.245136 -42.318196 
L 163.963364 -42.318196 
L 163.681591 -42.318196 
L 163.399818 -42.318196 
L 163.118046 -42.318196 
L 162.836273 -42.318196 
L 162.5545 -42.318196 
L 162.272728 -42.318196 
L 161.990955 -42.318196 
L 161.709182 -42.318196 
L 161.427409 -42.318196 
L 161.145637 -42.318196 
L 160.863864 -42.318196 
L 160.582091 -42.318196 
L 160.300319 -42.318196 
L 160.018546 -42.318196 
L 159.736773 -42.318196 
L 159.455001 -42.318196 
L 159.173228 -42.318196 
L 158.891455 -42.318196 
L 158.609683 -42.318196 
L 158.32791 -42.318196 
L 158.046137 -42.318196 
L 157.764365 -42.318196 
L 157.482592 -42.318196 
L 157.200819 -42.318196 
L 156.919047 -42.318196 
L 156.637274 -42.318196 
L 156.355501 -42.318196 
L 156.073729 -42.318196 
L 155.791956 -42.318196 
L 155.510183 -42.318196 
L 155.22841 -42.318196 
L 154.946638 -42.318196 
L 154.664865 -42.318196 
L 154.383092 -42.318196 
L 154.10132 -42.318196 
L 153.819547 -42.318196 
L 153.537774 -42.318196 
L 153.256002 -42.318196 
L 152.974229 -42.318196 
L 152.692456 -42.318196 
L 152.410684 -42.318196 
L 152.128911 -42.318196 
L 151.847138 -42.318196 
L 151.565366 -42.318196 
L 151.283593 -42.318196 
L 151.00182 -42.318196 
L 150.720048 -42.318196 
L 150.438275 -42.318196 
L 150.156502 -42.318196 
L 149.87473 -42.318196 
L 149.592957 -42.318196 
L 149.311184 -42.318196 
L 149.029411 -42.318196 
L 148.747639 -42.318196 
L 148.465866 -42.318196 
L 148.184093 -42.318196 
L 147.902321 -42.318196 
L 147.620548 -42.318196 
L 147.338775 -42.318196 
L 147.057003 -42.318196 
L 146.77523 -42.318196 
L 146.493457 -42.318196 
L 146.211685 -42.318196 
L 145.929912 -42.318196 
L 145.648139 -42.318196 
L 145.366367 -42.318196 
L 145.084594 -42.318196 
L 144.802821 -42.318196 
L 144.521049 -42.318196 
L 144.239276 -42.318196 
L 143.957503 -42.318196 
L 143.675731 -42.318196 
L 143.393958 -42.318196 
L 143.112185 -42.318196 
L 142.830412 -42.318196 
L 142.54864 -42.318196 
L 142.266867 -42.318196 
L 141.985094 -42.318196 
L 141.703322 -42.318196 
L 141.421549 -42.318196 
L 141.139776 -42.318196 
L 140.858004 -42.318196 
L 140.576231 -42.318196 
L 140.294458 -42.318196 
L 140.012686 -42.318196 
L 139.730913 -42.318196 
L 139.44914 -42.318196 
L 139.167368 -42.318196 
L 138.885595 -42.318196 
L 138.603822 -42.318196 
L 138.32205 -42.318196 
L 138.040277 -42.318196 
L 137.758504 -42.318196 
L 137.476732 -42.318196 
L 137.194959 -42.318196 
L 136.913186 -42.318196 
L 136.631413 -42.318196 
L 136.349641 -42.318196 
L 136.067868 -42.318196 
L 135.786095 -42.318196 
L 135.504323 -42.318196 
L 135.22255 -42.318196 
L 134.940777 -42.318196 
L 134.659005 -42.318196 
L 134.377232 -42.318196 
L 134.095459 -42.318196 
L 133.813687 -42.318196 
L 133.531914 -42.318196 
L 133.250141 -42.318196 
L 132.968369 -42.318196 
L 132.686596 -42.318196 
L 132.404823 -42.318196 
L 132.123051 -42.318196 
L 131.841278 -42.318196 
L 131.559505 -42.318196 
L 131.277733 -42.318196 
L 130.99596 -42.318196 
L 130.714187 -42.318196 
L 130.432414 -42.318196 
L 130.150642 -42.318196 
L 129.868869 -42.318196 
L 129.587096 -42.318196 
L 129.305324 -42.318196 
L 129.023551 -42.318196 
L 128.741778 -42.318196 
L 128.460006 -42.318196 
L 128.178233 -42.318196 
L 127.89646 -42.318196 
L 127.614688 -42.318196 
L 127.332915 -42.318196 
L 127.051142 -42.318196 
L 126.76937 -42.318196 
L 126.487597 -42.318196 
L 126.205824 -42.318196 
L 125.924052 -42.318196 
L 125.642279 -42.318196 
L 125.360506 -42.318196 
L 125.078734 -42.318196 
L 124.796961 -42.318196 
L 124.515188 -42.318196 
L 124.233415 -42.318196 
L 123.951643 -42.318196 
L 123.66987 -42.318196 
L 123.388097 -42.318196 
L 123.106325 -42.318196 
L 122.824552 -42.318196 
L 122.542779 -42.318196 
L 122.261007 -42.318196 
L 121.979234 -42.318196 
L 121.697461 -42.318196 
L 121.415689 -42.318196 
L 121.133916 -42.318196 
L 120.852143 -42.318196 
L 120.570371 -42.318196 
L 120.288598 -42.318196 
L 120.006825 -42.318196 
L 119.725053 -42.318196 
L 119.44328 -42.318196 
L 119.161507 -42.318196 
L 118.879735 -42.318196 
L 118.597962 -42.318196 
L 118.316189 -42.318196 
L 118.034416 -42.318196 
L 117.752644 -42.318196 
L 117.470871 -42.318196 
L 117.189098 -42.318196 
L 116.907326 -42.318196 
L 116.625553 -42.318196 
L 116.34378 -42.318196 
L 116.062008 -42.318196 
L 115.780235 -42.318196 
L 115.498462 -42.318196 
L 115.21669 -42.318196 
L 114.934917 -42.318196 
L 114.653144 -42.318196 
L 114.371372 -42.318196 
L 114.089599 -42.318196 
L 113.807826 -42.318196 
L 113.526054 -42.318196 
L 113.244281 -42.318196 
L 112.962508 -42.318196 
L 112.680736 -42.318196 
L 112.398963 -42.318196 
L 112.11719 -42.318196 
L 111.835417 -42.318196 
L 111.553645 -42.318196 
L 111.271872 -42.318196 
L 110.990099 -42.318196 
L 110.708327 -42.318196 
L 110.426554 -42.318196 
L 110.144781 -42.318196 
L 109.863009 -42.318196 
L 109.581236 -42.318196 
L 109.299463 -42.318196 
L 109.017691 -42.318196 
L 108.735918 -42.318196 
L 108.454145 -42.318196 
L 108.172373 -42.318196 
L 107.8906 -42.318196 
L 107.608827 -42.318196 
L 107.327055 -42.318196 
L 107.045282 -42.318196 
L 106.763509 -42.318196 
L 106.481737 -42.318196 
L 106.199964 -42.318196 
L 105.918191 -42.318196 
L 105.636418 -42.318196 
L 105.354646 -42.318196 
L 105.072873 -42.318196 
L 104.7911 -42.318196 
L 104.509328 -42.318196 
L 104.227555 -42.318196 
L 103.945782 -42.318196 
L 103.66401 -42.318196 
L 103.382237 -42.318196 
L 103.100464 -42.318196 
L 102.818692 -42.318196 
L 102.536919 -42.318196 
L 102.255146 -42.318196 
L 101.973374 -42.318196 
L 101.691601 -42.318196 
L 101.409828 -42.318196 
L 101.128056 -42.318196 
L 100.846283 -42.318196 
L 100.56451 -42.318196 
L 100.282738 -42.318196 
L 100.000965 -42.318196 
L 99.719192 -42.318196 
L 99.437419 -42.318196 
L 99.155647 -42.318196 
L 98.873874 -42.318196 
L 98.592101 -42.318196 
L 98.310329 -42.318196 
L 98.028556 -42.318196 
L 97.746783 -42.318196 
L 97.465011 -42.318196 
L 97.183238 -42.318196 
L 96.901465 -42.318196 
L 96.619693 -42.318196 
L 96.33792 -42.318196 
L 96.056147 -42.318196 
L 95.774375 -42.318196 
L 95.492602 -42.318196 
L 95.210829 -42.318196 
L 94.929057 -42.318196 
L 94.647284 -42.318196 
L 94.365511 -42.318196 
L 94.083739 -42.318196 
L 93.801966 -42.318196 
L 93.520193 -42.318196 
L 93.23842 -42.318196 
L 92.956648 -42.318196 
L 92.674875 -42.318196 
L 92.393102 -42.318196 
L 92.11133 -42.318196 
L 91.829557 -42.318196 
L 91.547784 -42.318196 
L 91.266012 -42.318196 
L 90.984239 -42.318196 
L 90.702466 -42.318196 
L 90.420694 -42.318196 
L 90.138921 -42.318196 
L 89.857148 -42.318196 
L 89.575376 -42.318196 
L 89.293603 -42.318196 
L 89.01183 -42.318196 
L 88.730058 -42.318196 
L 88.448285 -42.318196 
L 88.166512 -42.318196 
L 87.88474 -42.318196 
L 87.602967 -42.318196 
L 87.321194 -42.318196 
L 87.039421 -42.318196 
L 86.757649 -42.318196 
L 86.475876 -42.318196 
L 86.194103 -42.318196 
L 85.912331 -42.318196 
L 85.630558 -42.318196 
L 85.348785 -42.318196 
L 85.067013 -42.318196 
L 84.78524 -42.318196 
L 84.503467 -42.318196 
L 84.221695 -42.318196 
L 83.939922 -42.318196 
L 83.658149 -42.318196 
L 83.376377 -42.318196 
L 83.094604 -42.318196 
L 82.812831 -42.318196 
L 82.531059 -42.318196 
L 82.249286 -42.318196 
L 81.967513 -42.318196 
L 81.685741 -42.318196 
L 81.403968 -42.318196 
L 81.122195 -42.318196 
L 80.840422 -42.318196 
L 80.55865 -42.318196 
L 80.276877 -42.318196 
L 79.995104 -42.318196 
L 79.713332 -42.318196 
L 79.431559 -42.318196 
L 79.149786 -42.318196 
L 78.868014 -42.318196 
L 78.586241 -42.318196 
L 78.304468 -42.318196 
L 78.022696 -42.318196 
L 77.740923 -42.318196 
L 77.45915 -42.318196 
L 77.177378 -42.318196 
L 76.895605 -42.318196 
L 76.613832 -42.318196 
L 76.33206 -42.318196 
L 76.050287 -42.318196 
L 75.768514 -42.318196 
L 75.486742 -42.318196 
L 75.204969 -42.318196 
L 74.923196 -42.318196 
L 74.641423 -42.318196 
L 74.359651 -42.318196 
L 74.077878 -42.318196 
L 73.796105 -42.318196 
L 73.514333 -42.318196 
L 73.23256 -42.318196 
L 72.950787 -42.318196 
L 72.669015 -42.318196 
L 72.387242 -42.318196 
L 72.105469 -42.318196 
L 71.823697 -42.318196 
L 71.541924 -42.318196 
L 71.260151 -42.318196 
L 70.978379 -42.318196 
L 70.696606 -42.318196 
L 70.414833 -42.318196 
L 70.133061 -42.318196 
L 69.851288 -42.318196 
L 69.569515 -42.318196 
L 69.287743 -42.318196 
L 69.00597 -42.318196 
L 68.724197 -42.318196 
L 68.442424 -42.318196 
L 68.160652 -42.318196 
L 67.878879 -42.318196 
L 67.597106 -42.318196 
L 67.315334 -42.318196 
L 67.033561 -42.318196 
L 66.751788 -42.318196 
L 66.470016 -42.318196 
L 66.188243 -42.318196 
L 65.90647 -42.318196 
L 65.624698 -42.318196 
L 65.342925 -42.318196 
L 65.061152 -42.318196 
L 64.77938 -42.318196 
L 64.497607 -42.318196 
L 64.215834 -42.318196 
L 63.934062 -42.318196 
L 63.652289 -42.318196 
L 63.370516 -42.318196 
L 63.088744 -42.318196 
L 62.806971 -42.318196 
L 62.525198 -42.318196 
L 62.243425 -42.318196 
L 61.961653 -42.318196 
L 61.67988 -42.318196 
L 61.398107 -42.318196 
L 61.116335 -42.318196 
L 60.834562 -42.318196 
L 60.552789 -42.318196 
L 60.271017 -42.318196 
L 59.989244 -42.318196 
L 59.707471 -42.318196 
L 59.425699 -42.318196 
L 59.143926 -42.318196 
L 58.862153 -42.318196 
L 58.580381 -42.318196 
L 58.298608 -42.318196 
z
" style="stroke: #ffffff; stroke-opacity: 0.2"/>
    </defs>
    <g clip-path="url(#p83c7291ae1)">
     <use xlink:href="#m5b24b0a60b" x="0" y="424.779844" style="fill: #0000ff; fill-opacity: 0.2; stroke: #ffffff; stroke-opacity: 0.2"/>
    </g>
   </g>
   <g id="line2d_12">
    <path d="M 58.298608 379.835372 
L 62.806971 378.913028 
L 66.751788 377.880778 
L 70.414833 376.694002 
L 73.796105 375.368162 
L 76.895605 373.9281 
L 79.995104 372.243123 
L 82.812831 370.472536 
L 85.630558 368.448891 
L 88.448285 366.146241 
L 91.266012 363.537777 
L 94.083739 360.596128 
L 96.619693 357.640982 
L 99.155647 354.37366 
L 101.691601 350.774626 
L 104.509328 346.363831 
L 107.327055 341.496154 
L 110.144781 336.149682 
L 112.962508 330.305442 
L 115.780235 323.948089 
L 118.597962 317.06661 
L 121.697461 308.88466 
L 124.796961 300.061518 
L 128.178233 289.716472 
L 131.559505 278.646404 
L 135.22255 265.88526 
L 139.167368 251.334853 
L 143.675731 233.84065 
L 149.311184 211.033557 
L 164.245136 150.064586 
L 168.471727 134.060423 
L 171.852999 122.086595 
L 174.952498 111.9173 
L 177.770225 103.451786 
L 180.306179 96.543769 
L 182.560361 91.019373 
L 184.814542 86.11505 
L 186.786951 82.359752 
L 188.477587 79.555562 
L 190.168223 77.146149 
L 191.858859 75.141316 
L 193.267723 73.785638 
L 194.676586 72.720503 
L 196.085449 71.948953 
L 197.494313 71.473198 
L 198.621403 71.306512 
L 199.748494 71.33033 
L 200.875585 71.544608 
L 202.002676 71.948953 
L 203.411539 72.720503 
L 204.820402 73.785638 
L 206.229266 75.141316 
L 207.638129 76.783673 
L 209.328765 79.126294 
L 211.019401 81.865435 
L 212.99181 85.547379 
L 214.964219 89.733737 
L 217.2184 95.106583 
L 219.472582 101.070946 
L 222.008536 108.436532 
L 224.826263 117.360302 
L 227.925762 127.968698 
L 231.307035 140.340179 
L 235.533625 156.718708 
L 241.169078 179.582467 
L 254.97594 236.070675 
L 259.766075 254.517678 
L 263.992666 269.892947 
L 267.655711 282.414705 
L 271.036983 293.247004 
L 274.418255 303.343733 
L 277.517754 311.9343 
L 280.617254 319.8826 
L 283.716753 327.191703 
L 286.53448 333.290835 
L 289.352207 338.88403 
L 292.169934 343.988533 
L 294.987661 348.624873 
L 297.805387 352.816179 
L 300.623114 356.587537 
L 303.440841 359.965389 
L 306.258568 362.976984 
L 309.076295 365.649883 
L 311.894022 368.011529 
L 314.711748 370.088867 
L 317.529475 371.90804 
L 320.628975 373.640846 
L 323.728474 375.123206 
L 327.109746 376.489347 
L 330.772791 377.713511 
L 334.717609 378.779509 
L 338.944199 379.680819 
L 339.789517 379.835372 
L 339.789517 379.835372 
" clip-path="url(#p83c7291ae1)" style="fill: none; stroke: #0173b2; stroke-width: 1.5; stroke-linecap: round"/>
   </g>
   <g id="LineCollection_1">
    <path d="M 244.589329 382.461648 
L 244.589329 193.728391 
" clip-path="url(#p83c7291ae1)" style="fill: none; stroke: #0000ff; stroke-opacity: 0.5; stroke-width: 1.5"/>
   </g>
   <g id="patch_3">
    <path d="M 44.224063 398.02 
L 44.224063 55.73625 
" style="fill: none; stroke: #ffffff; stroke-width: 1.25; stroke-linejoin: miter; stroke-linecap: square"/>
   </g>
   <g id="patch_4">
    <path d="M 353.864063 398.02 
L 353.864063 55.73625 
" style="fill: none; stroke: #ffffff; stroke-width: 1.25; stroke-linejoin: miter; stroke-linecap: square"/>
   </g>
   <g id="patch_5">
    <path d="M 44.224063 398.02 
L 353.864063 398.02 
" style="fill: none; stroke: #ffffff; stroke-width: 1.25; stroke-linejoin: miter; stroke-linecap: square"/>
   </g>
   <g id="patch_6">
    <path d="M 44.224063 55.73625 
L 353.864063 55.73625 
" style="fill: none; stroke: #ffffff; stroke-width: 1.25; stroke-linejoin: miter; stroke-linecap: square"/>
   </g>
   <g id="text_12">
    <!-- $b$ -->
    <g style="fill: #262626" transform="translate(242.009329 391.051023) scale(0.12 -0.12)">
     <defs>
      <path id="Cmmi10-62" d="M 1106 -72 
Q 719 -72 503 231 
Q 288 534 288 941 
Q 288 1000 317 1173 
Q 347 1347 347 1388 
L 966 3872 
Q 991 3981 997 4044 
Q 997 4147 581 4147 
Q 519 4147 519 4231 
Q 522 4247 533 4287 
Q 544 4328 561 4350 
Q 578 4372 609 4372 
L 1472 4441 
Q 1550 4441 1550 4359 
L 1075 2472 
Q 1438 2828 1806 2828 
Q 2078 2828 2273 2684 
Q 2469 2541 2566 2306 
Q 2663 2072 2663 1806 
Q 2663 1497 2542 1167 
Q 2422 838 2209 555 
Q 1997 272 1712 100 
Q 1428 -72 1106 -72 
z
M 1119 97 
Q 1338 97 1528 280 
Q 1719 463 1838 691 
Q 1966 947 2077 1386 
Q 2188 1825 2188 2088 
Q 2188 2316 2092 2489 
Q 1997 2663 1791 2663 
Q 1559 2663 1348 2492 
Q 1138 2322 978 2088 
L 800 1363 
Q 697 959 691 716 
Q 691 475 795 286 
Q 900 97 1119 97 
z
" transform="scale(0.015625)"/>
     </defs>
     <use xlink:href="#Cmmi10-62" transform="translate(0 0.609375)"/>
    </g>
   </g>
   <g id="text_13">
    <!-- Pr$(\{N \leq b \})$     -->
    <g style="fill: #262626" transform="translate(167.549329 311.348345) scale(0.12 -0.12)">
     <defs>
      <path id="ArialMT-50" d="M 494 0 
L 494 4581 
L 2222 4581 
Q 2678 4581 2919 4538 
Q 3256 4481 3484 4323 
Q 3713 4166 3852 3881 
Q 3991 3597 3991 3256 
Q 3991 2672 3619 2267 
Q 3247 1863 2275 1863 
L 1100 1863 
L 1100 0 
L 494 0 
z
M 1100 2403 
L 2284 2403 
Q 2872 2403 3119 2622 
Q 3366 2841 3366 3238 
Q 3366 3525 3220 3729 
Q 3075 3934 2838 4000 
Q 2684 4041 2272 4041 
L 1100 4041 
L 1100 2403 
z
" transform="scale(0.015625)"/>
      <path id="ArialMT-72" d="M 416 0 
L 416 3319 
L 922 3319 
L 922 2816 
Q 1116 3169 1280 3281 
Q 1444 3394 1641 3394 
Q 1925 3394 2219 3213 
L 2025 2691 
Q 1819 2813 1613 2813 
Q 1428 2813 1281 2702 
Q 1134 2591 1072 2394 
Q 978 2094 978 1738 
L 978 0 
L 416 0 
z
" transform="scale(0.015625)"/>
      <path id="Cmr10-28" d="M 1984 -1588 
Q 1628 -1306 1370 -942 
Q 1113 -578 948 -165 
Q 784 247 703 697 
Q 622 1147 622 1600 
Q 622 2059 703 2509 
Q 784 2959 951 3375 
Q 1119 3791 1378 4153 
Q 1638 4516 1984 4788 
Q 1984 4800 2016 4800 
L 2075 4800 
Q 2094 4800 2109 4783 
Q 2125 4766 2125 4744 
Q 2125 4716 2113 4703 
Q 1800 4397 1592 4047 
Q 1384 3697 1257 3301 
Q 1131 2906 1075 2482 
Q 1019 2059 1019 1600 
Q 1019 -434 2106 -1491 
Q 2125 -1509 2125 -1544 
Q 2125 -1559 2108 -1579 
Q 2091 -1600 2075 -1600 
L 2016 -1600 
Q 1984 -1600 1984 -1588 
z
" transform="scale(0.015625)"/>
      <path id="Cmex10-a9" d="M 1631 -6425 
L 1631 -4556 
Q 1631 -4338 1503 -4159 
Q 1375 -3981 1184 -3867 
Q 994 -3753 756 -3675 
Q 709 -3650 709 -3622 
L 709 -3547 
Q 709 -3503 756 -3494 
Q 1128 -3366 1379 -3150 
Q 1631 -2934 1631 -2606 
L 1631 -738 
Q 1631 -325 2004 -95 
Q 2378 134 2888 256 
L 2963 256 
Q 2981 256 2998 242 
Q 3016 228 3016 206 
L 3016 128 
Q 3016 91 2975 78 
Q 2619 -31 2359 -232 
Q 2100 -434 2100 -750 
L 2100 -2619 
Q 2100 -2994 1804 -3214 
Q 1509 -3434 1056 -3584 
Q 1497 -3716 1798 -3939 
Q 2100 -4163 2100 -4544 
L 2100 -6413 
Q 2100 -6628 2231 -6790 
Q 2363 -6953 2556 -7059 
Q 2750 -7166 2975 -7238 
Q 3016 -7250 3016 -7291 
L 3016 -7366 
Q 3016 -7384 2998 -7401 
Q 2981 -7419 2963 -7419 
L 2888 -7419 
Q 2559 -7338 2292 -7227 
Q 2025 -7116 1828 -6914 
Q 1631 -6713 1631 -6425 
z
" transform="scale(0.015625)"/>
      <path id="Cmmi10-4e" d="M 300 0 
Q 238 0 238 84 
Q 241 100 250 139 
Q 259 178 276 201 
Q 294 225 319 225 
Q 931 225 1031 616 
L 1900 4116 
Q 1722 4147 1338 4147 
Q 1275 4147 1275 4231 
Q 1278 4247 1287 4286 
Q 1297 4325 1314 4348 
Q 1331 4372 1356 4372 
L 2463 4372 
Q 2509 4372 2522 4331 
L 3944 947 
L 4653 3781 
Q 4666 3850 4666 3878 
Q 4666 4147 4172 4147 
Q 4109 4147 4109 4231 
Q 4131 4313 4143 4342 
Q 4156 4372 4219 4372 
L 5588 4372 
Q 5650 4372 5650 4288 
Q 5647 4272 5637 4233 
Q 5628 4194 5611 4170 
Q 5594 4147 5569 4147 
Q 4956 4147 4856 3756 
L 3938 56 
Q 3916 0 3872 0 
L 3794 0 
Q 3750 0 3738 44 
L 2106 3916 
L 2094 3956 
Q 2081 3969 2081 3975 
L 1234 588 
Q 1228 572 1225 548 
Q 1222 525 1216 494 
Q 1216 328 1359 276 
Q 1503 225 1716 225 
Q 1778 225 1778 141 
Q 1756 53 1740 26 
Q 1725 0 1672 0 
L 300 0 
z
" transform="scale(0.015625)"/>
      <path id="Cmsy10-2219" d="M 653 -878 
Q 600 -878 565 -837 
Q 531 -797 531 -750 
Q 531 -697 565 -659 
Q 600 -622 653 -622 
L 4325 -622 
Q 4375 -622 4408 -659 
Q 4441 -697 4441 -750 
Q 4441 -797 4408 -837 
Q 4375 -878 4325 -878 
L 653 -878 
z
M 594 2113 
Q 531 2131 531 2222 
Q 531 2303 616 2338 
L 4269 4063 
Q 4281 4072 4313 4072 
Q 4366 4072 4403 4034 
Q 4441 3997 4441 3944 
Q 4441 3859 4366 3828 
L 959 2222 
L 4384 603 
Q 4441 572 4441 494 
Q 4441 438 4403 402 
Q 4366 366 4313 366 
Q 4281 366 4269 378 
L 594 2113 
z
" transform="scale(0.015625)"/>
      <path id="Cmex10-aa" d="M 709 -7366 
L 709 -7291 
Q 709 -7247 756 -7238 
Q 1631 -6953 1631 -6413 
L 1631 -4544 
Q 1631 -3909 2669 -3584 
Q 2219 -3431 1925 -3209 
Q 1631 -2988 1631 -2619 
L 1631 -750 
Q 1631 -206 756 78 
Q 709 88 709 128 
L 709 206 
Q 709 256 769 256 
L 844 256 
Q 1359 131 1729 -97 
Q 2100 -325 2100 -738 
L 2100 -2606 
Q 2100 -2925 2354 -3142 
Q 2609 -3359 2975 -3494 
Q 3016 -3506 3016 -3547 
L 3016 -3622 
Q 3016 -3641 2975 -3675 
Q 2769 -3744 2566 -3864 
Q 2363 -3984 2231 -4161 
Q 2100 -4338 2100 -4556 
L 2100 -6425 
Q 2100 -6713 1901 -6914 
Q 1703 -7116 1437 -7227 
Q 1172 -7338 844 -7419 
L 769 -7419 
Q 744 -7419 726 -7401 
Q 709 -7384 709 -7366 
z
" transform="scale(0.015625)"/>
      <path id="Cmr10-29" d="M 416 -1600 
Q 359 -1600 359 -1544 
Q 359 -1516 372 -1503 
Q 1466 -434 1466 1600 
Q 1466 3634 384 4691 
Q 359 4706 359 4744 
Q 359 4766 376 4783 
Q 394 4800 416 4800 
L 475 4800 
Q 494 4800 506 4788 
Q 966 4425 1272 3906 
Q 1578 3388 1720 2800 
Q 1863 2213 1863 1600 
Q 1863 1147 1786 708 
Q 1709 269 1542 -157 
Q 1375 -584 1119 -945 
Q 863 -1306 506 -1588 
Q 494 -1600 475 -1600 
L 416 -1600 
z
" transform="scale(0.015625)"/>
      <path id="ArialMT-20" transform="scale(0.015625)"/>
     </defs>
     <use xlink:href="#ArialMT-50" transform="translate(0 0.705729)"/>
     <use xlink:href="#ArialMT-72" transform="translate(66.699219 0.705729)"/>
     <use xlink:href="#Cmr10-28" transform="translate(100 0.705729)"/>
     <use xlink:href="#Cmex10-a9" transform="translate(138.818359 94)"/>
     <use xlink:href="#Cmmi10-4e" transform="translate(197.119141 0.705729)"/>
     <use xlink:href="#Cmsy10-2219" transform="translate(295 0.705729)"/>
     <use xlink:href="#Cmmi10-62" transform="translate(390.244141 0.705729)"/>
     <use xlink:href="#Cmex10-aa" transform="translate(433.164062 94)"/>
     <use xlink:href="#Cmr10-29" transform="translate(491.464844 0.705729)"/>
     <use xlink:href="#ArialMT-20" transform="translate(530.283203 0.705729)"/>
     <use xlink:href="#ArialMT-20" transform="translate(558.066406 0.705729)"/>
     <use xlink:href="#ArialMT-20" transform="translate(585.849609 0.705729)"/>
     <use xlink:href="#ArialMT-20" transform="translate(613.632812 0.705729)"/>
    </g>
   </g>
   <g id="text_14">
    <!-- Funzione di densit di probabilit -->
    <g style="fill: #262626" transform="translate(111.326875 49.73625) scale(0.12 -0.12)">
     <defs>
      <path id="ArialMT-46" d="M 525 0 
L 525 4581 
L 3616 4581 
L 3616 4041 
L 1131 4041 
L 1131 2622 
L 3281 2622 
L 3281 2081 
L 1131 2081 
L 1131 0 
L 525 0 
z
" transform="scale(0.015625)"/>
      <path id="ArialMT-75" d="M 2597 0 
L 2597 488 
Q 2209 -75 1544 -75 
Q 1250 -75 995 37 
Q 741 150 617 320 
Q 494 491 444 738 
Q 409 903 409 1263 
L 409 3319 
L 972 3319 
L 972 1478 
Q 972 1038 1006 884 
Q 1059 663 1231 536 
Q 1403 409 1656 409 
Q 1909 409 2131 539 
Q 2353 669 2445 892 
Q 2538 1116 2538 1541 
L 2538 3319 
L 3100 3319 
L 3100 0 
L 2597 0 
z
" transform="scale(0.015625)"/>
      <path id="ArialMT-6e" d="M 422 0 
L 422 3319 
L 928 3319 
L 928 2847 
Q 1294 3394 1984 3394 
Q 2284 3394 2536 3286 
Q 2788 3178 2913 3003 
Q 3038 2828 3088 2588 
Q 3119 2431 3119 2041 
L 3119 0 
L 2556 0 
L 2556 2019 
Q 2556 2363 2490 2533 
Q 2425 2703 2258 2804 
Q 2091 2906 1866 2906 
Q 1506 2906 1245 2678 
Q 984 2450 984 1813 
L 984 0 
L 422 0 
z
" transform="scale(0.015625)"/>
      <path id="ArialMT-7a" d="M 125 0 
L 125 456 
L 2238 2881 
Q 1878 2863 1603 2863 
L 250 2863 
L 250 3319 
L 2963 3319 
L 2963 2947 
L 1166 841 
L 819 456 
Q 1197 484 1528 484 
L 3063 484 
L 3063 0 
L 125 0 
z
" transform="scale(0.015625)"/>
      <path id="ArialMT-69" d="M 425 3934 
L 425 4581 
L 988 4581 
L 988 3934 
L 425 3934 
z
M 425 0 
L 425 3319 
L 988 3319 
L 988 0 
L 425 0 
z
" transform="scale(0.015625)"/>
      <path id="ArialMT-6f" d="M 213 1659 
Q 213 2581 725 3025 
Q 1153 3394 1769 3394 
Q 2453 3394 2887 2945 
Q 3322 2497 3322 1706 
Q 3322 1066 3130 698 
Q 2938 331 2570 128 
Q 2203 -75 1769 -75 
Q 1072 -75 642 372 
Q 213 819 213 1659 
z
M 791 1659 
Q 791 1022 1069 705 
Q 1347 388 1769 388 
Q 2188 388 2466 706 
Q 2744 1025 2744 1678 
Q 2744 2294 2464 2611 
Q 2184 2928 1769 2928 
Q 1347 2928 1069 2612 
Q 791 2297 791 1659 
z
" transform="scale(0.015625)"/>
      <path id="ArialMT-65" d="M 2694 1069 
L 3275 997 
Q 3138 488 2766 206 
Q 2394 -75 1816 -75 
Q 1088 -75 661 373 
Q 234 822 234 1631 
Q 234 2469 665 2931 
Q 1097 3394 1784 3394 
Q 2450 3394 2872 2941 
Q 3294 2488 3294 1666 
Q 3294 1616 3291 1516 
L 816 1516 
Q 847 969 1125 678 
Q 1403 388 1819 388 
Q 2128 388 2347 550 
Q 2566 713 2694 1069 
z
M 847 1978 
L 2700 1978 
Q 2663 2397 2488 2606 
Q 2219 2931 1791 2931 
Q 1403 2931 1139 2672 
Q 875 2413 847 1978 
z
" transform="scale(0.015625)"/>
      <path id="ArialMT-64" d="M 2575 0 
L 2575 419 
Q 2259 -75 1647 -75 
Q 1250 -75 917 144 
Q 584 363 401 755 
Q 219 1147 219 1656 
Q 219 2153 384 2558 
Q 550 2963 881 3178 
Q 1213 3394 1622 3394 
Q 1922 3394 2156 3267 
Q 2391 3141 2538 2938 
L 2538 4581 
L 3097 4581 
L 3097 0 
L 2575 0 
z
M 797 1656 
Q 797 1019 1065 703 
Q 1334 388 1700 388 
Q 2069 388 2326 689 
Q 2584 991 2584 1609 
Q 2584 2291 2321 2609 
Q 2059 2928 1675 2928 
Q 1300 2928 1048 2622 
Q 797 2316 797 1656 
z
" transform="scale(0.015625)"/>
      <path id="ArialMT-73" d="M 197 991 
L 753 1078 
Q 800 744 1014 566 
Q 1228 388 1613 388 
Q 2000 388 2187 545 
Q 2375 703 2375 916 
Q 2375 1106 2209 1216 
Q 2094 1291 1634 1406 
Q 1016 1563 777 1677 
Q 538 1791 414 1992 
Q 291 2194 291 2438 
Q 291 2659 392 2848 
Q 494 3038 669 3163 
Q 800 3259 1026 3326 
Q 1253 3394 1513 3394 
Q 1903 3394 2198 3281 
Q 2494 3169 2634 2976 
Q 2775 2784 2828 2463 
L 2278 2388 
Q 2241 2644 2061 2787 
Q 1881 2931 1553 2931 
Q 1166 2931 1000 2803 
Q 834 2675 834 2503 
Q 834 2394 903 2306 
Q 972 2216 1119 2156 
Q 1203 2125 1616 2013 
Q 2213 1853 2448 1751 
Q 2684 1650 2818 1456 
Q 2953 1263 2953 975 
Q 2953 694 2789 445 
Q 2625 197 2315 61 
Q 2006 -75 1616 -75 
Q 969 -75 630 194 
Q 291 463 197 991 
z
" transform="scale(0.015625)"/>
      <path id="ArialMT-74" d="M 1650 503 
L 1731 6 
Q 1494 -44 1306 -44 
Q 1000 -44 831 53 
Q 663 150 594 308 
Q 525 466 525 972 
L 525 2881 
L 113 2881 
L 113 3319 
L 525 3319 
L 525 4141 
L 1084 4478 
L 1084 3319 
L 1650 3319 
L 1650 2881 
L 1084 2881 
L 1084 941 
Q 1084 700 1114 631 
Q 1144 563 1211 522 
Q 1278 481 1403 481 
Q 1497 481 1650 503 
z
" transform="scale(0.015625)"/>
      <path id="ArialMT-e0" d="M 2588 409 
Q 2275 144 1986 34 
Q 1697 -75 1366 -75 
Q 819 -75 525 192 
Q 231 459 231 875 
Q 231 1119 342 1320 
Q 453 1522 633 1644 
Q 813 1766 1038 1828 
Q 1203 1872 1538 1913 
Q 2219 1994 2541 2106 
Q 2544 2222 2544 2253 
Q 2544 2597 2384 2738 
Q 2169 2928 1744 2928 
Q 1347 2928 1158 2789 
Q 969 2650 878 2297 
L 328 2372 
Q 403 2725 575 2942 
Q 747 3159 1072 3276 
Q 1397 3394 1825 3394 
Q 2250 3394 2515 3294 
Q 2781 3194 2906 3042 
Q 3031 2891 3081 2659 
Q 3109 2516 3109 2141 
L 3109 1391 
Q 3109 606 3145 398 
Q 3181 191 3288 0 
L 2700 0 
Q 2613 175 2588 409 
z
M 2541 1666 
Q 2234 1541 1622 1453 
Q 1275 1403 1131 1340 
Q 988 1278 909 1158 
Q 831 1038 831 891 
Q 831 666 1001 516 
Q 1172 366 1500 366 
Q 1825 366 2078 508 
Q 2331 650 2450 897 
Q 2541 1088 2541 1459 
L 2541 1666 
z
M 2234 3731 
L 1781 3731 
L 1059 4606 
L 1813 4606 
L 2234 3731 
z
" transform="scale(0.015625)"/>
      <path id="ArialMT-70" d="M 422 -1272 
L 422 3319 
L 934 3319 
L 934 2888 
Q 1116 3141 1344 3267 
Q 1572 3394 1897 3394 
Q 2322 3394 2647 3175 
Q 2972 2956 3137 2557 
Q 3303 2159 3303 1684 
Q 3303 1175 3120 767 
Q 2938 359 2589 142 
Q 2241 -75 1856 -75 
Q 1575 -75 1351 44 
Q 1128 163 984 344 
L 984 -1272 
L 422 -1272 
z
M 931 1641 
Q 931 1000 1190 694 
Q 1450 388 1819 388 
Q 2194 388 2461 705 
Q 2728 1022 2728 1688 
Q 2728 2322 2467 2637 
Q 2206 2953 1844 2953 
Q 1484 2953 1207 2617 
Q 931 2281 931 1641 
z
" transform="scale(0.015625)"/>
      <path id="ArialMT-62" d="M 941 0 
L 419 0 
L 419 4581 
L 981 4581 
L 981 2947 
Q 1338 3394 1891 3394 
Q 2197 3394 2470 3270 
Q 2744 3147 2920 2923 
Q 3097 2700 3197 2384 
Q 3297 2069 3297 1709 
Q 3297 856 2875 390 
Q 2453 -75 1863 -75 
Q 1275 -75 941 416 
L 941 0 
z
M 934 1684 
Q 934 1088 1097 822 
Q 1363 388 1816 388 
Q 2184 388 2453 708 
Q 2722 1028 2722 1663 
Q 2722 2313 2464 2622 
Q 2206 2931 1841 2931 
Q 1472 2931 1203 2611 
Q 934 2291 934 1684 
z
" transform="scale(0.015625)"/>
      <path id="ArialMT-61" d="M 2588 409 
Q 2275 144 1986 34 
Q 1697 -75 1366 -75 
Q 819 -75 525 192 
Q 231 459 231 875 
Q 231 1119 342 1320 
Q 453 1522 633 1644 
Q 813 1766 1038 1828 
Q 1203 1872 1538 1913 
Q 2219 1994 2541 2106 
Q 2544 2222 2544 2253 
Q 2544 2597 2384 2738 
Q 2169 2928 1744 2928 
Q 1347 2928 1158 2789 
Q 969 2650 878 2297 
L 328 2372 
Q 403 2725 575 2942 
Q 747 3159 1072 3276 
Q 1397 3394 1825 3394 
Q 2250 3394 2515 3294 
Q 2781 3194 2906 3042 
Q 3031 2891 3081 2659 
Q 3109 2516 3109 2141 
L 3109 1391 
Q 3109 606 3145 398 
Q 3181 191 3288 0 
L 2700 0 
Q 2613 175 2588 409 
z
M 2541 1666 
Q 2234 1541 1622 1453 
Q 1275 1403 1131 1340 
Q 988 1278 909 1158 
Q 831 1038 831 891 
Q 831 666 1001 516 
Q 1172 366 1500 366 
Q 1825 366 2078 508 
Q 2331 650 2450 897 
Q 2541 1088 2541 1459 
L 2541 1666 
z
" transform="scale(0.015625)"/>
      <path id="ArialMT-6c" d="M 409 0 
L 409 4581 
L 972 4581 
L 972 0 
L 409 0 
z
" transform="scale(0.015625)"/>
     </defs>
     <use xlink:href="#ArialMT-46"/>
     <use xlink:href="#ArialMT-75" x="61.083984"/>
     <use xlink:href="#ArialMT-6e" x="116.699219"/>
     <use xlink:href="#ArialMT-7a" x="172.314453"/>
     <use xlink:href="#ArialMT-69" x="222.314453"/>
     <use xlink:href="#ArialMT-6f" x="244.53125"/>
     <use xlink:href="#ArialMT-6e" x="300.146484"/>
     <use xlink:href="#ArialMT-65" x="355.761719"/>
     <use xlink:href="#ArialMT-20" x="411.376953"/>
     <use xlink:href="#ArialMT-64" x="439.160156"/>
     <use xlink:href="#ArialMT-69" x="494.775391"/>
     <use xlink:href="#ArialMT-20" x="516.992188"/>
     <use xlink:href="#ArialMT-64" x="544.775391"/>
     <use xlink:href="#ArialMT-65" x="600.390625"/>
     <use xlink:href="#ArialMT-6e" x="656.005859"/>
     <use xlink:href="#ArialMT-73" x="711.621094"/>
     <use xlink:href="#ArialMT-69" x="761.621094"/>
     <use xlink:href="#ArialMT-74" x="783.837891"/>
     <use xlink:href="#ArialMT-e0" x="811.621094"/>
     <use xlink:href="#ArialMT-20" x="867.236328"/>
     <use xlink:href="#ArialMT-64" x="895.019531"/>
     <use xlink:href="#ArialMT-69" x="950.634766"/>
     <use xlink:href="#ArialMT-20" x="972.851562"/>
     <use xlink:href="#ArialMT-70" x="1000.634766"/>
     <use xlink:href="#ArialMT-72" x="1056.25"/>
     <use xlink:href="#ArialMT-6f" x="1089.550781"/>
     <use xlink:href="#ArialMT-62" x="1145.166016"/>
     <use xlink:href="#ArialMT-61" x="1200.78125"/>
     <use xlink:href="#ArialMT-62" x="1256.396484"/>
     <use xlink:href="#ArialMT-69" x="1312.011719"/>
     <use xlink:href="#ArialMT-6c" x="1334.228516"/>
     <use xlink:href="#ArialMT-69" x="1356.445312"/>
     <use xlink:href="#ArialMT-74" x="1378.662109"/>
     <use xlink:href="#ArialMT-e0" x="1406.445312"/>
    </g>
   </g>
  </g>
  <g id="axes_2">
   <g id="patch_7">
    <path d="M 391.624063 398.02 
L 701.264062 398.02 
L 701.264062 55.73625 
L 391.624063 55.73625 
z
" style="fill: #eaeaf2"/>
   </g>
   <g id="matplotlib.axis_3">
    <g id="xtick_6">
     <g id="line2d_13">
      <path d="M 424.990018 398.02 
L 424.990018 55.73625 
" clip-path="url(#p65798bbc64)" style="fill: none; stroke: #ffffff; stroke-linecap: round"/>
     </g>
     <g id="text_15">
      <!-- 60 -->
      <g style="fill: #262626" transform="translate(418.872987 415.393594) scale(0.11 -0.11)">
       <use xlink:href="#ArialMT-36"/>
       <use xlink:href="#ArialMT-30" x="55.615234"/>
      </g>
     </g>
    </g>
    <g id="xtick_7">
     <g id="line2d_14">
      <path d="M 485.71704 398.02 
L 485.71704 55.73625 
" clip-path="url(#p65798bbc64)" style="fill: none; stroke: #ffffff; stroke-linecap: round"/>
     </g>
     <g id="text_16">
      <!-- 80 -->
      <g style="fill: #262626" transform="translate(479.600009 415.393594) scale(0.11 -0.11)">
       <use xlink:href="#ArialMT-38"/>
       <use xlink:href="#ArialMT-30" x="55.615234"/>
      </g>
     </g>
    </g>
    <g id="xtick_8">
     <g id="line2d_15">
      <path d="M 546.444062 398.02 
L 546.444062 55.73625 
" clip-path="url(#p65798bbc64)" style="fill: none; stroke: #ffffff; stroke-linecap: round"/>
     </g>
     <g id="text_17">
      <!-- 100 -->
      <g style="fill: #262626" transform="translate(537.268516 415.393594) scale(0.11 -0.11)">
       <use xlink:href="#ArialMT-31"/>
       <use xlink:href="#ArialMT-30" x="55.615234"/>
       <use xlink:href="#ArialMT-30" x="111.230469"/>
      </g>
     </g>
    </g>
    <g id="xtick_9">
     <g id="line2d_16">
      <path d="M 607.171085 398.02 
L 607.171085 55.73625 
" clip-path="url(#p65798bbc64)" style="fill: none; stroke: #ffffff; stroke-linecap: round"/>
     </g>
     <g id="text_18">
      <!-- 120 -->
      <g style="fill: #262626" transform="translate(597.995538 415.393594) scale(0.11 -0.11)">
       <use xlink:href="#ArialMT-31"/>
       <use xlink:href="#ArialMT-32" x="55.615234"/>
       <use xlink:href="#ArialMT-30" x="111.230469"/>
      </g>
     </g>
    </g>
    <g id="xtick_10">
     <g id="line2d_17">
      <path d="M 667.898107 398.02 
L 667.898107 55.73625 
" clip-path="url(#p65798bbc64)" style="fill: none; stroke: #ffffff; stroke-linecap: round"/>
     </g>
     <g id="text_19">
      <!-- 140 -->
      <g style="fill: #262626" transform="translate(658.72256 415.393594) scale(0.11 -0.11)">
       <use xlink:href="#ArialMT-31"/>
       <use xlink:href="#ArialMT-34" x="55.615234"/>
       <use xlink:href="#ArialMT-30" x="111.230469"/>
      </g>
     </g>
    </g>
   </g>
   <g id="matplotlib.axis_4">
    <g id="ytick_7">
     <g id="line2d_18">
      <path d="M 391.624063 382.461648 
L 701.264062 382.461648 
" clip-path="url(#p65798bbc64)" style="fill: none; stroke: #ffffff; stroke-linecap: round"/>
     </g>
     <g id="text_20">
      <!-- 0.0 -->
      <g style="fill: #262626" transform="translate(366.834063 386.398445) scale(0.11 -0.11)">
       <use xlink:href="#ArialMT-30"/>
       <use xlink:href="#ArialMT-2e" x="55.615234"/>
       <use xlink:href="#ArialMT-30" x="83.398438"/>
      </g>
     </g>
    </g>
    <g id="ytick_8">
     <g id="line2d_19">
      <path d="M 391.624063 320.165943 
L 701.264062 320.165943 
" clip-path="url(#p65798bbc64)" style="fill: none; stroke: #ffffff; stroke-linecap: round"/>
     </g>
     <g id="text_21">
      <!-- 0.2 -->
      <g style="fill: #262626" transform="translate(366.834063 324.10274) scale(0.11 -0.11)">
       <use xlink:href="#ArialMT-30"/>
       <use xlink:href="#ArialMT-2e" x="55.615234"/>
       <use xlink:href="#ArialMT-32" x="83.398438"/>
      </g>
     </g>
    </g>
    <g id="ytick_9">
     <g id="line2d_20">
      <path d="M 391.624063 257.870238 
L 701.264062 257.870238 
" clip-path="url(#p65798bbc64)" style="fill: none; stroke: #ffffff; stroke-linecap: round"/>
     </g>
     <g id="text_22">
      <!-- 0.4 -->
      <g style="fill: #262626" transform="translate(366.834063 261.807035) scale(0.11 -0.11)">
       <use xlink:href="#ArialMT-30"/>
       <use xlink:href="#ArialMT-2e" x="55.615234"/>
       <use xlink:href="#ArialMT-34" x="83.398438"/>
      </g>
     </g>
    </g>
    <g id="ytick_10">
     <g id="line2d_21">
      <path d="M 391.624063 195.574533 
L 701.264062 195.574533 
" clip-path="url(#p65798bbc64)" style="fill: none; stroke: #ffffff; stroke-linecap: round"/>
     </g>
     <g id="text_23">
      <!-- 0.6 -->
      <g style="fill: #262626" transform="translate(366.834063 199.51133) scale(0.11 -0.11)">
       <use xlink:href="#ArialMT-30"/>
       <use xlink:href="#ArialMT-2e" x="55.615234"/>
       <use xlink:href="#ArialMT-36" x="83.398438"/>
      </g>
     </g>
    </g>
    <g id="ytick_11">
     <g id="line2d_22">
      <path d="M 391.624063 133.278829 
L 701.264062 133.278829 
" clip-path="url(#p65798bbc64)" style="fill: none; stroke: #ffffff; stroke-linecap: round"/>
     </g>
     <g id="text_24">
      <!-- 0.8 -->
      <g style="fill: #262626" transform="translate(366.834063 137.215625) scale(0.11 -0.11)">
       <use xlink:href="#ArialMT-30"/>
       <use xlink:href="#ArialMT-2e" x="55.615234"/>
       <use xlink:href="#ArialMT-38" x="83.398438"/>
      </g>
     </g>
    </g>
    <g id="ytick_12">
     <g id="line2d_23">
      <path d="M 391.624063 70.983124 
L 701.264062 70.983124 
" clip-path="url(#p65798bbc64)" style="fill: none; stroke: #ffffff; stroke-linecap: round"/>
     </g>
     <g id="text_25">
      <!-- 1.0 -->
      <g style="fill: #262626" transform="translate(366.834063 74.919921) scale(0.11 -0.11)">
       <use xlink:href="#ArialMT-31"/>
       <use xlink:href="#ArialMT-2e" x="55.615234"/>
       <use xlink:href="#ArialMT-30" x="83.398438"/>
      </g>
     </g>
    </g>
   </g>
   <g id="PolyCollection_3"/>
   <g id="line2d_24">
    <path d="M 405.698608 382.150169 
L 416.40597 381.79169 
L 424.577378 381.30034 
L 431.339922 380.67126 
L 436.975376 379.9327 
L 442.047284 379.051465 
L 446.555647 378.054961 
L 450.782237 376.902305 
L 454.727055 375.603628 
L 458.390099 374.176982 
L 462.053144 372.51047 
L 465.434416 370.735236 
L 468.815689 368.709529 
L 472.196961 366.410706 
L 475.29646 364.044312 
L 478.39596 361.412601 
L 481.495459 358.499345 
L 484.594959 355.289317 
L 487.694458 351.768624 
L 490.793958 347.925033 
L 493.893457 343.748311 
L 497.27473 338.802728 
L 500.656002 333.44465 
L 504.037274 327.671565 
L 507.700319 320.951535 
L 511.363364 313.755921 
L 515.308181 305.493433 
L 519.534771 296.082805 
L 524.043134 285.462046 
L 528.83327 273.599326 
L 534.468724 259.022324 
L 541.794813 239.385019 
L 559.828265 190.724867 
L 565.463719 176.300298 
L 570.253854 164.603119 
L 574.762217 154.163574 
L 578.988807 144.940907 
L 582.933625 136.865887 
L 586.59667 129.851684 
L 590.259715 123.317342 
L 593.640987 117.717199 
L 597.022259 112.531547 
L 600.403531 107.75609 
L 603.784803 103.38254 
L 606.884303 99.716479 
L 609.983802 96.36687 
L 613.083302 93.320533 
L 616.182801 90.562806 
L 619.282301 88.077876 
L 622.663573 85.658596 
L 626.044845 83.521842 
L 629.426117 81.64499 
L 633.089162 79.878872 
L 636.752207 78.363194 
L 640.697025 76.979911 
L 644.923615 75.74876 
L 649.431978 74.681242 
L 654.222113 73.780561 
L 659.575794 73.006761 
L 665.493021 72.37739 
L 672.537338 71.860098 
L 680.990518 71.471454 
L 687.189517 71.294602 
L 687.189517 71.294602 
" clip-path="url(#p65798bbc64)" style="fill: none; stroke: #0173b2; stroke-width: 1.5; stroke-linecap: round"/>
   </g>
   <g id="LineCollection_2">
    <path d="M 591.989329 382.461648 
L 591.989329 120.400828 
" clip-path="url(#p65798bbc64)" style="fill: none; stroke: #0000ff; stroke-width: 1.5"/>
   </g>
   <g id="patch_8">
    <path d="M 391.624063 398.02 
L 391.624063 55.73625 
" style="fill: none; stroke: #ffffff; stroke-width: 1.25; stroke-linejoin: miter; stroke-linecap: square"/>
   </g>
   <g id="patch_9">
    <path d="M 701.264062 398.02 
L 701.264062 55.73625 
" style="fill: none; stroke: #ffffff; stroke-width: 1.25; stroke-linejoin: miter; stroke-linecap: square"/>
   </g>
   <g id="patch_10">
    <path d="M 391.624063 398.02 
L 701.264062 398.02 
" style="fill: none; stroke: #ffffff; stroke-width: 1.25; stroke-linejoin: miter; stroke-linecap: square"/>
   </g>
   <g id="patch_11">
    <path d="M 391.624063 55.73625 
L 701.264062 55.73625 
" style="fill: none; stroke: #ffffff; stroke-width: 1.25; stroke-linejoin: miter; stroke-linecap: square"/>
   </g>
   <g id="text_26">
    <!-- $b$ -->
    <g style="fill: #262626" transform="translate(589.409329 391.051023) scale(0.12 -0.12)">
     <use xlink:href="#Cmmi10-62" transform="translate(0 0.609375)"/>
    </g>
   </g>
   <g id="text_27">
    <!-- $(b, F_{N}(b))$ -->
    <g style="fill: #262626" transform="translate(542.309329 117.400828) scale(0.12 -0.12)">
     <defs>
      <path id="Cmmi10-3b" d="M 634 -1153 
Q 634 -1125 659 -1100 
Q 891 -878 1019 -587 
Q 1147 -297 1147 25 
L 1147 103 
Q 1044 0 891 0 
Q 744 0 641 103 
Q 538 206 538 353 
Q 538 503 641 603 
Q 744 703 891 703 
Q 1119 703 1216 492 
Q 1313 281 1313 25 
Q 1313 -331 1170 -651 
Q 1028 -972 769 -1228 
Q 744 -1241 728 -1241 
Q 697 -1241 665 -1212 
Q 634 -1184 634 -1153 
z
" transform="scale(0.015625)"/>
      <path id="Cmmi10-46" d="M 300 0 
Q 238 0 238 84 
Q 241 100 250 139 
Q 259 178 276 201 
Q 294 225 319 225 
Q 709 225 863 269 
Q 947 297 984 441 
L 1863 3956 
Q 1875 4019 1875 4044 
Q 1875 4113 1797 4122 
Q 1678 4147 1338 4147 
Q 1275 4147 1275 4231 
Q 1278 4247 1287 4286 
Q 1297 4325 1314 4348 
Q 1331 4372 1356 4372 
L 4738 4372 
Q 4800 4372 4800 4288 
L 4647 2963 
Q 4647 2944 4625 2925 
Q 4603 2906 4581 2906 
L 4525 2906 
Q 4459 2906 4459 2988 
Q 4500 3278 4500 3463 
Q 4500 3781 4362 3931 
Q 4225 4081 4015 4114 
Q 3806 4147 3438 4147 
L 2753 4147 
Q 2578 4147 2522 4117 
Q 2466 4088 2419 3928 
L 2009 2297 
L 2491 2297 
Q 2728 2297 2875 2322 
Q 3022 2347 3119 2419 
Q 3216 2491 3280 2627 
Q 3344 2763 3397 2988 
Q 3416 3047 3463 3047 
L 3519 3047 
Q 3584 3047 3584 2963 
L 3194 1381 
Q 3166 1325 3128 1325 
L 3072 1325 
Q 3009 1325 3009 1409 
Q 3025 1475 3034 1519 
Q 3044 1563 3058 1645 
Q 3072 1728 3072 1791 
Q 3072 1975 2909 2025 
Q 2747 2075 2484 2075 
L 1959 2075 
L 1544 416 
Q 1528 353 1528 353 
Q 1528 278 1575 269 
Q 1741 225 2228 225 
Q 2291 225 2291 141 
Q 2269 50 2256 25 
Q 2244 0 2181 0 
L 300 0 
z
" transform="scale(0.015625)"/>
     </defs>
     <use xlink:href="#Cmr10-28"/>
     <use xlink:href="#Cmmi10-62" transform="translate(38.818359 0)"/>
     <use xlink:href="#Cmmi10-3b" transform="translate(81.738281 0)"/>
     <use xlink:href="#Cmmi10-46" transform="translate(126.982422 0)"/>
     <use xlink:href="#Cmmi10-4e" transform="translate(191.289062 -17.00625) scale(0.7)"/>
     <use xlink:href="#Cmr10-28" transform="translate(253.891992 0)"/>
     <use xlink:href="#Cmmi10-62" transform="translate(292.710352 0)"/>
     <use xlink:href="#Cmr10-29" transform="translate(335.630273 0)"/>
     <use xlink:href="#Cmr10-29" transform="translate(374.448633 0)"/>
    </g>
   </g>
   <g id="text_28">
    <!-- Funzione di ripartizione -->
    <g style="fill: #262626" transform="translate(484.415312 49.73625) scale(0.12 -0.12)">
     <use xlink:href="#ArialMT-46"/>
     <use xlink:href="#ArialMT-75" x="61.083984"/>
     <use xlink:href="#ArialMT-6e" x="116.699219"/>
     <use xlink:href="#ArialMT-7a" x="172.314453"/>
     <use xlink:href="#ArialMT-69" x="222.314453"/>
     <use xlink:href="#ArialMT-6f" x="244.53125"/>
     <use xlink:href="#ArialMT-6e" x="300.146484"/>
     <use xlink:href="#ArialMT-65" x="355.761719"/>
     <use xlink:href="#ArialMT-20" x="411.376953"/>
     <use xlink:href="#ArialMT-64" x="439.160156"/>
     <use xlink:href="#ArialMT-69" x="494.775391"/>
     <use xlink:href="#ArialMT-20" x="516.992188"/>
     <use xlink:href="#ArialMT-72" x="544.775391"/>
     <use xlink:href="#ArialMT-69" x="578.076172"/>
     <use xlink:href="#ArialMT-70" x="600.292969"/>
     <use xlink:href="#ArialMT-61" x="655.908203"/>
     <use xlink:href="#ArialMT-72" x="711.523438"/>
     <use xlink:href="#ArialMT-74" x="744.824219"/>
     <use xlink:href="#ArialMT-69" x="772.607422"/>
     <use xlink:href="#ArialMT-7a" x="794.824219"/>
     <use xlink:href="#ArialMT-69" x="844.824219"/>
     <use xlink:href="#ArialMT-6f" x="867.041016"/>
     <use xlink:href="#ArialMT-6e" x="922.65625"/>
     <use xlink:href="#ArialMT-65" x="978.271484"/>
    </g>
   </g>
  </g>
  <g id="text_29">
   <!-- Distribuzioni di probabilit della variabile casuale $N$ ~ norm(100,15) -->
   <g style="fill: #262626" transform="translate(140.096063 17.712) scale(0.144 -0.144)">
    <defs>
     <path id="ArialMT-44" d="M 494 0 
L 494 4581 
L 2072 4581 
Q 2606 4581 2888 4516 
Q 3281 4425 3559 4188 
Q 3922 3881 4101 3404 
Q 4281 2928 4281 2316 
Q 4281 1794 4159 1391 
Q 4038 988 3847 723 
Q 3656 459 3429 307 
Q 3203 156 2883 78 
Q 2563 0 2147 0 
L 494 0 
z
M 1100 541 
L 2078 541 
Q 2531 541 2789 625 
Q 3047 709 3200 863 
Q 3416 1078 3536 1442 
Q 3656 1806 3656 2325 
Q 3656 3044 3420 3430 
Q 3184 3816 2847 3947 
Q 2603 4041 2063 4041 
L 1100 4041 
L 1100 541 
z
" transform="scale(0.015625)"/>
     <path id="ArialMT-76" d="M 1344 0 
L 81 3319 
L 675 3319 
L 1388 1331 
Q 1503 1009 1600 663 
Q 1675 925 1809 1294 
L 2547 3319 
L 3125 3319 
L 1869 0 
L 1344 0 
z
" transform="scale(0.015625)"/>
     <path id="ArialMT-63" d="M 2588 1216 
L 3141 1144 
Q 3050 572 2676 248 
Q 2303 -75 1759 -75 
Q 1078 -75 664 370 
Q 250 816 250 1647 
Q 250 2184 428 2587 
Q 606 2991 970 3192 
Q 1334 3394 1763 3394 
Q 2303 3394 2647 3120 
Q 2991 2847 3088 2344 
L 2541 2259 
Q 2463 2594 2264 2762 
Q 2066 2931 1784 2931 
Q 1359 2931 1093 2626 
Q 828 2322 828 1663 
Q 828 994 1084 691 
Q 1341 388 1753 388 
Q 2084 388 2306 591 
Q 2528 794 2588 1216 
z
" transform="scale(0.015625)"/>
     <path id="ArialMT-7e" d="M 272 1741 
L 272 2381 
Q 603 2756 1141 2756 
Q 1328 2756 1534 2701 
Q 1741 2647 2122 2484 
Q 2338 2394 2445 2366 
Q 2553 2338 2663 2338 
Q 2866 2338 3083 2459 
Q 3300 2581 3469 2766 
L 3469 2103 
Q 3269 1916 3064 1831 
Q 2859 1747 2603 1747 
Q 2416 1747 2245 1790 
Q 2075 1834 1704 2000 
Q 1334 2166 1088 2166 
Q 888 2166 711 2080 
Q 534 1994 272 1741 
z
" transform="scale(0.015625)"/>
     <path id="ArialMT-6d" d="M 422 0 
L 422 3319 
L 925 3319 
L 925 2853 
Q 1081 3097 1340 3245 
Q 1600 3394 1931 3394 
Q 2300 3394 2536 3241 
Q 2772 3088 2869 2813 
Q 3263 3394 3894 3394 
Q 4388 3394 4653 3120 
Q 4919 2847 4919 2278 
L 4919 0 
L 4359 0 
L 4359 2091 
Q 4359 2428 4304 2576 
Q 4250 2725 4106 2815 
Q 3963 2906 3769 2906 
Q 3419 2906 3187 2673 
Q 2956 2441 2956 1928 
L 2956 0 
L 2394 0 
L 2394 2156 
Q 2394 2531 2256 2718 
Q 2119 2906 1806 2906 
Q 1569 2906 1367 2781 
Q 1166 2656 1075 2415 
Q 984 2175 984 1722 
L 984 0 
L 422 0 
z
" transform="scale(0.015625)"/>
     <path id="ArialMT-28" d="M 1497 -1347 
Q 1031 -759 709 28 
Q 388 816 388 1659 
Q 388 2403 628 3084 
Q 909 3875 1497 4659 
L 1900 4659 
Q 1522 4009 1400 3731 
Q 1209 3300 1100 2831 
Q 966 2247 966 1656 
Q 966 153 1900 -1347 
L 1497 -1347 
z
" transform="scale(0.015625)"/>
     <path id="ArialMT-2c" d="M 569 0 
L 569 641 
L 1209 641 
L 1209 0 
Q 1209 -353 1084 -570 
Q 959 -788 688 -906 
L 531 -666 
Q 709 -588 793 -436 
Q 878 -284 888 0 
L 569 0 
z
" transform="scale(0.015625)"/>
     <path id="ArialMT-29" d="M 791 -1347 
L 388 -1347 
Q 1322 153 1322 1656 
Q 1322 2244 1188 2822 
Q 1081 3291 891 3722 
Q 769 4003 388 4659 
L 791 4659 
Q 1378 3875 1659 3084 
Q 1900 2403 1900 1659 
Q 1900 816 1576 28 
Q 1253 -759 791 -1347 
z
" transform="scale(0.015625)"/>
    </defs>
    <use xlink:href="#ArialMT-44" transform="translate(0 0.203125)"/>
    <use xlink:href="#ArialMT-69" transform="translate(72.216797 0.203125)"/>
    <use xlink:href="#ArialMT-73" transform="translate(94.433594 0.203125)"/>
    <use xlink:href="#ArialMT-74" transform="translate(144.433594 0.203125)"/>
    <use xlink:href="#ArialMT-72" transform="translate(172.216797 0.203125)"/>
    <use xlink:href="#ArialMT-69" transform="translate(205.517578 0.203125)"/>
    <use xlink:href="#ArialMT-62" transform="translate(227.734375 0.203125)"/>
    <use xlink:href="#ArialMT-75" transform="translate(283.349609 0.203125)"/>
    <use xlink:href="#ArialMT-7a" transform="translate(338.964844 0.203125)"/>
    <use xlink:href="#ArialMT-69" transform="translate(388.964844 0.203125)"/>
    <use xlink:href="#ArialMT-6f" transform="translate(411.181641 0.203125)"/>
    <use xlink:href="#ArialMT-6e" transform="translate(466.796875 0.203125)"/>
    <use xlink:href="#ArialMT-69" transform="translate(522.412109 0.203125)"/>
    <use xlink:href="#ArialMT-20" transform="translate(544.628906 0.203125)"/>
    <use xlink:href="#ArialMT-64" transform="translate(572.412109 0.203125)"/>
    <use xlink:href="#ArialMT-69" transform="translate(628.027344 0.203125)"/>
    <use xlink:href="#ArialMT-20" transform="translate(650.244141 0.203125)"/>
    <use xlink:href="#ArialMT-70" transform="translate(678.027344 0.203125)"/>
    <use xlink:href="#ArialMT-72" transform="translate(733.642578 0.203125)"/>
    <use xlink:href="#ArialMT-6f" transform="translate(766.943359 0.203125)"/>
    <use xlink:href="#ArialMT-62" transform="translate(822.558594 0.203125)"/>
    <use xlink:href="#ArialMT-61" transform="translate(878.173828 0.203125)"/>
    <use xlink:href="#ArialMT-62" transform="translate(933.789062 0.203125)"/>
    <use xlink:href="#ArialMT-69" transform="translate(989.404297 0.203125)"/>
    <use xlink:href="#ArialMT-6c" transform="translate(1011.621094 0.203125)"/>
    <use xlink:href="#ArialMT-69" transform="translate(1033.837891 0.203125)"/>
    <use xlink:href="#ArialMT-74" transform="translate(1056.054688 0.203125)"/>
    <use xlink:href="#ArialMT-e0" transform="translate(1083.837891 0.203125)"/>
    <use xlink:href="#ArialMT-20" transform="translate(1139.453125 0.203125)"/>
    <use xlink:href="#ArialMT-64" transform="translate(1167.236328 0.203125)"/>
    <use xlink:href="#ArialMT-65" transform="translate(1222.851562 0.203125)"/>
    <use xlink:href="#ArialMT-6c" transform="translate(1278.466797 0.203125)"/>
    <use xlink:href="#ArialMT-6c" transform="translate(1300.683594 0.203125)"/>
    <use xlink:href="#ArialMT-61" transform="translate(1322.900391 0.203125)"/>
    <use xlink:href="#ArialMT-20" transform="translate(1378.515625 0.203125)"/>
    <use xlink:href="#ArialMT-76" transform="translate(1406.298828 0.203125)"/>
    <use xlink:href="#ArialMT-61" transform="translate(1456.298828 0.203125)"/>
    <use xlink:href="#ArialMT-72" transform="translate(1511.914062 0.203125)"/>
    <use xlink:href="#ArialMT-69" transform="translate(1545.214844 0.203125)"/>
    <use xlink:href="#ArialMT-61" transform="translate(1567.431641 0.203125)"/>
    <use xlink:href="#ArialMT-62" transform="translate(1623.046875 0.203125)"/>
    <use xlink:href="#ArialMT-69" transform="translate(1678.662109 0.203125)"/>
    <use xlink:href="#ArialMT-6c" transform="translate(1700.878906 0.203125)"/>
    <use xlink:href="#ArialMT-65" transform="translate(1723.095703 0.203125)"/>
    <use xlink:href="#ArialMT-20" transform="translate(1778.710938 0.203125)"/>
    <use xlink:href="#ArialMT-63" transform="translate(1806.494141 0.203125)"/>
    <use xlink:href="#ArialMT-61" transform="translate(1856.494141 0.203125)"/>
    <use xlink:href="#ArialMT-73" transform="translate(1912.109375 0.203125)"/>
    <use xlink:href="#ArialMT-75" transform="translate(1962.109375 0.203125)"/>
    <use xlink:href="#ArialMT-61" transform="translate(2017.724609 0.203125)"/>
    <use xlink:href="#ArialMT-6c" transform="translate(2073.339844 0.203125)"/>
    <use xlink:href="#ArialMT-65" transform="translate(2095.556641 0.203125)"/>
    <use xlink:href="#ArialMT-20" transform="translate(2151.171875 0.203125)"/>
    <use xlink:href="#Cmmi10-4e" transform="translate(2178.955078 0.203125)"/>
    <use xlink:href="#ArialMT-20" transform="translate(2259.277344 0.203125)"/>
    <use xlink:href="#ArialMT-7e" transform="translate(2287.060547 0.203125)"/>
    <use xlink:href="#ArialMT-20" transform="translate(2345.458984 0.203125)"/>
    <use xlink:href="#ArialMT-6e" transform="translate(2373.242188 0.203125)"/>
    <use xlink:href="#ArialMT-6f" transform="translate(2428.857422 0.203125)"/>
    <use xlink:href="#ArialMT-72" transform="translate(2484.472656 0.203125)"/>
    <use xlink:href="#ArialMT-6d" transform="translate(2517.773438 0.203125)"/>
    <use xlink:href="#ArialMT-28" transform="translate(2601.074219 0.203125)"/>
    <use xlink:href="#ArialMT-31" transform="translate(2634.375 0.203125)"/>
    <use xlink:href="#ArialMT-30" transform="translate(2689.990234 0.203125)"/>
    <use xlink:href="#ArialMT-30" transform="translate(2745.605469 0.203125)"/>
    <use xlink:href="#ArialMT-2c" transform="translate(2801.220703 0.203125)"/>
    <use xlink:href="#ArialMT-31" transform="translate(2829.003906 0.203125)"/>
    <use xlink:href="#ArialMT-35" transform="translate(2884.619141 0.203125)"/>
    <use xlink:href="#ArialMT-29" transform="translate(2940.234375 0.203125)"/>
   </g>
  </g>
 </g>
 <defs>
  <clipPath id="p83c7291ae1">
   <rect x="44.224063" y="55.73625" width="309.64" height="342.28375"/>
  </clipPath>
  <clipPath id="p65798bbc64">
   <rect x="391.624063" y="55.73625" width="309.64" height="342.28375"/>
  </clipPath>
 </defs>
</svg>