<?xml version="1.0" encoding="utf-8" standalone="no"?>
<!DOCTYPE svg PUBLIC "-//W3C//DTD SVG 1.1//EN"
  "http://www.w3.org/Graphics/SVG/1.1/DTD/svg11.dtd">
<svg xmlns:xlink="http://www.w3.org/1999/xlink" width="506.822031pt" height="396.309844pt" viewBox="0 0 506.822031 396.309844" xmlns="http://www.w3.org/2000/svg" version="1.1">
 <metadata>
  <rdf:RDF xmlns:dc="http://purl.org/dc/elements/1.1/" xmlns:cc="http://creativecommons.org/ns#" xmlns:rdf="http://www.w3.org/1999/02/22-rdf-syntax-ns#">
   <cc:Work>
    <dc:type rdf:resource="http://purl.org/dc/dcmitype/StillImage"/>
    <dc:date>2023-05-10T05:56:53.398060</dc:date>
    <dc:format>image/svg+xml</dc:format>
    <dc:creator>
     <cc:Agent>
      <dc:title>Matplotlib v3.7.1, https://matplotlib.org/</dc:title>
     </cc:Agent>
    </dc:creator>
   </cc:Work>
  </rdf:RDF>
 </metadata>
 <defs>
  <style type="text/css">*{stroke-linejoin: round; stroke-linecap: butt}</style>
 </defs>
 <g id="figure_1">
  <g id="patch_1">
   <path d="M 0 396.309844 
L 506.822031 396.309844 
L 506.822031 0 
L 0 0 
z
" style="fill: #ffffff"/>
  </g>
  <g id="axes_1">
   <g id="patch_2">
    <path d="M 53.222031 354.575625 
L 499.622031 354.575625 
L 499.622031 21.935625 
L 53.222031 21.935625 
z
" style="fill: #eaeaf2"/>
   </g>
   <g id="matplotlib.axis_1">
    <g id="xtick_1">
     <g id="line2d_1">
      <path d="M 73.51294 354.575625 
L 73.51294 21.935625 
" clip-path="url(#p2912ee7542)" style="fill: none; stroke: #ffffff; stroke-linecap: round"/>
     </g>
     <g id="text_1">
      <!-- −6 -->
      <g style="fill: #262626" transform="translate(67.242081 371.949219) scale(0.11 -0.11)">
       <defs>
        <path id="ArialMT-2212" d="M 3381 1997 
L 356 1997 
L 356 2522 
L 3381 2522 
L 3381 1997 
z
" transform="scale(0.015625)"/>
        <path id="ArialMT-36" d="M 3184 3459 
L 2625 3416 
Q 2550 3747 2413 3897 
Q 2184 4138 1850 4138 
Q 1581 4138 1378 3988 
Q 1113 3794 959 3422 
Q 806 3050 800 2363 
Q 1003 2672 1297 2822 
Q 1591 2972 1913 2972 
Q 2475 2972 2870 2558 
Q 3266 2144 3266 1488 
Q 3266 1056 3080 686 
Q 2894 316 2569 119 
Q 2244 -78 1831 -78 
Q 1128 -78 684 439 
Q 241 956 241 2144 
Q 241 3472 731 4075 
Q 1159 4600 1884 4600 
Q 2425 4600 2770 4297 
Q 3116 3994 3184 3459 
z
M 888 1484 
Q 888 1194 1011 928 
Q 1134 663 1356 523 
Q 1578 384 1822 384 
Q 2178 384 2434 671 
Q 2691 959 2691 1453 
Q 2691 1928 2437 2201 
Q 2184 2475 1800 2475 
Q 1419 2475 1153 2201 
Q 888 1928 888 1484 
z
" transform="scale(0.015625)"/>
       </defs>
       <use xlink:href="#ArialMT-2212"/>
       <use xlink:href="#ArialMT-36" x="58.398438"/>
      </g>
     </g>
    </g>
    <g id="xtick_2">
     <g id="line2d_2">
      <path d="M 141.149304 354.575625 
L 141.149304 21.935625 
" clip-path="url(#p2912ee7542)" style="fill: none; stroke: #ffffff; stroke-linecap: round"/>
     </g>
     <g id="text_2">
      <!-- −4 -->
      <g style="fill: #262626" transform="translate(134.878445 371.949219) scale(0.11 -0.11)">
       <defs>
        <path id="ArialMT-34" d="M 2069 0 
L 2069 1097 
L 81 1097 
L 81 1613 
L 2172 4581 
L 2631 4581 
L 2631 1613 
L 3250 1613 
L 3250 1097 
L 2631 1097 
L 2631 0 
L 2069 0 
z
M 2069 1613 
L 2069 3678 
L 634 1613 
L 2069 1613 
z
" transform="scale(0.015625)"/>
       </defs>
       <use xlink:href="#ArialMT-2212"/>
       <use xlink:href="#ArialMT-34" x="58.398438"/>
      </g>
     </g>
    </g>
    <g id="xtick_3">
     <g id="line2d_3">
      <path d="M 208.785668 354.575625 
L 208.785668 21.935625 
" clip-path="url(#p2912ee7542)" style="fill: none; stroke: #ffffff; stroke-linecap: round"/>
     </g>
     <g id="text_3">
      <!-- −2 -->
      <g style="fill: #262626" transform="translate(202.514808 371.949219) scale(0.11 -0.11)">
       <defs>
        <path id="ArialMT-32" d="M 3222 541 
L 3222 0 
L 194 0 
Q 188 203 259 391 
Q 375 700 629 1000 
Q 884 1300 1366 1694 
Q 2113 2306 2375 2664 
Q 2638 3022 2638 3341 
Q 2638 3675 2398 3904 
Q 2159 4134 1775 4134 
Q 1369 4134 1125 3890 
Q 881 3647 878 3216 
L 300 3275 
Q 359 3922 746 4261 
Q 1134 4600 1788 4600 
Q 2447 4600 2831 4234 
Q 3216 3869 3216 3328 
Q 3216 3053 3103 2787 
Q 2991 2522 2730 2228 
Q 2469 1934 1863 1422 
Q 1356 997 1212 845 
Q 1069 694 975 541 
L 3222 541 
z
" transform="scale(0.015625)"/>
       </defs>
       <use xlink:href="#ArialMT-2212"/>
       <use xlink:href="#ArialMT-32" x="58.398438"/>
      </g>
     </g>
    </g>
    <g id="xtick_4">
     <g id="line2d_4">
      <path d="M 276.422031 354.575625 
L 276.422031 21.935625 
" clip-path="url(#p2912ee7542)" style="fill: none; stroke: #ffffff; stroke-linecap: round"/>
     </g>
     <g id="text_4">
      <!-- 0 -->
      <g style="fill: #262626" transform="translate(273.363516 371.949219) scale(0.11 -0.11)">
       <defs>
        <path id="ArialMT-30" d="M 266 2259 
Q 266 3072 433 3567 
Q 600 4063 929 4331 
Q 1259 4600 1759 4600 
Q 2128 4600 2406 4451 
Q 2684 4303 2865 4023 
Q 3047 3744 3150 3342 
Q 3253 2941 3253 2259 
Q 3253 1453 3087 958 
Q 2922 463 2592 192 
Q 2263 -78 1759 -78 
Q 1097 -78 719 397 
Q 266 969 266 2259 
z
M 844 2259 
Q 844 1131 1108 757 
Q 1372 384 1759 384 
Q 2147 384 2411 759 
Q 2675 1134 2675 2259 
Q 2675 3391 2411 3762 
Q 2147 4134 1753 4134 
Q 1366 4134 1134 3806 
Q 844 3388 844 2259 
z
" transform="scale(0.015625)"/>
       </defs>
       <use xlink:href="#ArialMT-30"/>
      </g>
     </g>
    </g>
    <g id="xtick_5">
     <g id="line2d_5">
      <path d="M 344.058395 354.575625 
L 344.058395 21.935625 
" clip-path="url(#p2912ee7542)" style="fill: none; stroke: #ffffff; stroke-linecap: round"/>
     </g>
     <g id="text_5">
      <!-- 2 -->
      <g style="fill: #262626" transform="translate(340.999879 371.949219) scale(0.11 -0.11)">
       <use xlink:href="#ArialMT-32"/>
      </g>
     </g>
    </g>
    <g id="xtick_6">
     <g id="line2d_6">
      <path d="M 411.694759 354.575625 
L 411.694759 21.935625 
" clip-path="url(#p2912ee7542)" style="fill: none; stroke: #ffffff; stroke-linecap: round"/>
     </g>
     <g id="text_6">
      <!-- 4 -->
      <g style="fill: #262626" transform="translate(408.636243 371.949219) scale(0.11 -0.11)">
       <use xlink:href="#ArialMT-34"/>
      </g>
     </g>
    </g>
    <g id="xtick_7">
     <g id="line2d_7">
      <path d="M 479.331122 354.575625 
L 479.331122 21.935625 
" clip-path="url(#p2912ee7542)" style="fill: none; stroke: #ffffff; stroke-linecap: round"/>
     </g>
     <g id="text_7">
      <!-- 6 -->
      <g style="fill: #262626" transform="translate(476.272607 371.949219) scale(0.11 -0.11)">
       <use xlink:href="#ArialMT-36"/>
      </g>
     </g>
    </g>
    <g id="text_8">
     <!-- t-value -->
     <g style="fill: #262626" transform="translate(258.414531 386.724844) scale(0.12 -0.12)">
      <defs>
       <path id="ArialMT-74" d="M 1650 503 
L 1731 6 
Q 1494 -44 1306 -44 
Q 1000 -44 831 53 
Q 663 150 594 308 
Q 525 466 525 972 
L 525 2881 
L 113 2881 
L 113 3319 
L 525 3319 
L 525 4141 
L 1084 4478 
L 1084 3319 
L 1650 3319 
L 1650 2881 
L 1084 2881 
L 1084 941 
Q 1084 700 1114 631 
Q 1144 563 1211 522 
Q 1278 481 1403 481 
Q 1497 481 1650 503 
z
" transform="scale(0.015625)"/>
       <path id="ArialMT-2d" d="M 203 1375 
L 203 1941 
L 1931 1941 
L 1931 1375 
L 203 1375 
z
" transform="scale(0.015625)"/>
       <path id="ArialMT-76" d="M 1344 0 
L 81 3319 
L 675 3319 
L 1388 1331 
Q 1503 1009 1600 663 
Q 1675 925 1809 1294 
L 2547 3319 
L 3125 3319 
L 1869 0 
L 1344 0 
z
" transform="scale(0.015625)"/>
       <path id="ArialMT-61" d="M 2588 409 
Q 2275 144 1986 34 
Q 1697 -75 1366 -75 
Q 819 -75 525 192 
Q 231 459 231 875 
Q 231 1119 342 1320 
Q 453 1522 633 1644 
Q 813 1766 1038 1828 
Q 1203 1872 1538 1913 
Q 2219 1994 2541 2106 
Q 2544 2222 2544 2253 
Q 2544 2597 2384 2738 
Q 2169 2928 1744 2928 
Q 1347 2928 1158 2789 
Q 969 2650 878 2297 
L 328 2372 
Q 403 2725 575 2942 
Q 747 3159 1072 3276 
Q 1397 3394 1825 3394 
Q 2250 3394 2515 3294 
Q 2781 3194 2906 3042 
Q 3031 2891 3081 2659 
Q 3109 2516 3109 2141 
L 3109 1391 
Q 3109 606 3145 398 
Q 3181 191 3288 0 
L 2700 0 
Q 2613 175 2588 409 
z
M 2541 1666 
Q 2234 1541 1622 1453 
Q 1275 1403 1131 1340 
Q 988 1278 909 1158 
Q 831 1038 831 891 
Q 831 666 1001 516 
Q 1172 366 1500 366 
Q 1825 366 2078 508 
Q 2331 650 2450 897 
Q 2541 1088 2541 1459 
L 2541 1666 
z
" transform="scale(0.015625)"/>
       <path id="ArialMT-6c" d="M 409 0 
L 409 4581 
L 972 4581 
L 972 0 
L 409 0 
z
" transform="scale(0.015625)"/>
       <path id="ArialMT-75" d="M 2597 0 
L 2597 488 
Q 2209 -75 1544 -75 
Q 1250 -75 995 37 
Q 741 150 617 320 
Q 494 491 444 738 
Q 409 903 409 1263 
L 409 3319 
L 972 3319 
L 972 1478 
Q 972 1038 1006 884 
Q 1059 663 1231 536 
Q 1403 409 1656 409 
Q 1909 409 2131 539 
Q 2353 669 2445 892 
Q 2538 1116 2538 1541 
L 2538 3319 
L 3100 3319 
L 3100 0 
L 2597 0 
z
" transform="scale(0.015625)"/>
       <path id="ArialMT-65" d="M 2694 1069 
L 3275 997 
Q 3138 488 2766 206 
Q 2394 -75 1816 -75 
Q 1088 -75 661 373 
Q 234 822 234 1631 
Q 234 2469 665 2931 
Q 1097 3394 1784 3394 
Q 2450 3394 2872 2941 
Q 3294 2488 3294 1666 
Q 3294 1616 3291 1516 
L 816 1516 
Q 847 969 1125 678 
Q 1403 388 1819 388 
Q 2128 388 2347 550 
Q 2566 713 2694 1069 
z
M 847 1978 
L 2700 1978 
Q 2663 2397 2488 2606 
Q 2219 2931 1791 2931 
Q 1403 2931 1139 2672 
Q 875 2413 847 1978 
z
" transform="scale(0.015625)"/>
      </defs>
      <use xlink:href="#ArialMT-74"/>
      <use xlink:href="#ArialMT-2d" x="27.783203"/>
      <use xlink:href="#ArialMT-76" x="61.083984"/>
      <use xlink:href="#ArialMT-61" x="111.083984"/>
      <use xlink:href="#ArialMT-6c" x="166.699219"/>
      <use xlink:href="#ArialMT-75" x="188.916016"/>
      <use xlink:href="#ArialMT-65" x="244.53125"/>
     </g>
    </g>
   </g>
   <g id="matplotlib.axis_2">
    <g id="ytick_1">
     <g id="line2d_8">
      <path d="M 53.222031 339.455625 
L 499.622031 339.455625 
" clip-path="url(#p2912ee7542)" style="fill: none; stroke: #ffffff; stroke-linecap: round"/>
     </g>
     <g id="text_9">
      <!-- 0.00 -->
      <g style="fill: #262626" transform="translate(22.315 343.392422) scale(0.11 -0.11)">
       <defs>
        <path id="ArialMT-2e" d="M 581 0 
L 581 641 
L 1222 641 
L 1222 0 
L 581 0 
z
" transform="scale(0.015625)"/>
       </defs>
       <use xlink:href="#ArialMT-30"/>
       <use xlink:href="#ArialMT-2e" x="55.615234"/>
       <use xlink:href="#ArialMT-30" x="83.398438"/>
       <use xlink:href="#ArialMT-30" x="139.013672"/>
      </g>
     </g>
    </g>
    <g id="ytick_2">
     <g id="line2d_9">
      <path d="M 53.222031 300.486929 
L 499.622031 300.486929 
" clip-path="url(#p2912ee7542)" style="fill: none; stroke: #ffffff; stroke-linecap: round"/>
     </g>
     <g id="text_10">
      <!-- 0.05 -->
      <g style="fill: #262626" transform="translate(22.315 304.423726) scale(0.11 -0.11)">
       <defs>
        <path id="ArialMT-35" d="M 266 1200 
L 856 1250 
Q 922 819 1161 601 
Q 1400 384 1738 384 
Q 2144 384 2425 690 
Q 2706 997 2706 1503 
Q 2706 1984 2436 2262 
Q 2166 2541 1728 2541 
Q 1456 2541 1237 2417 
Q 1019 2294 894 2097 
L 366 2166 
L 809 4519 
L 3088 4519 
L 3088 3981 
L 1259 3981 
L 1013 2750 
Q 1425 3038 1878 3038 
Q 2478 3038 2890 2622 
Q 3303 2206 3303 1553 
Q 3303 931 2941 478 
Q 2500 -78 1738 -78 
Q 1113 -78 717 272 
Q 322 622 266 1200 
z
" transform="scale(0.015625)"/>
       </defs>
       <use xlink:href="#ArialMT-30"/>
       <use xlink:href="#ArialMT-2e" x="55.615234"/>
       <use xlink:href="#ArialMT-30" x="83.398438"/>
       <use xlink:href="#ArialMT-35" x="139.013672"/>
      </g>
     </g>
    </g>
    <g id="ytick_3">
     <g id="line2d_10">
      <path d="M 53.222031 261.518233 
L 499.622031 261.518233 
" clip-path="url(#p2912ee7542)" style="fill: none; stroke: #ffffff; stroke-linecap: round"/>
     </g>
     <g id="text_11">
      <!-- 0.10 -->
      <g style="fill: #262626" transform="translate(22.315 265.455029) scale(0.11 -0.11)">
       <defs>
        <path id="ArialMT-31" d="M 2384 0 
L 1822 0 
L 1822 3584 
Q 1619 3391 1289 3197 
Q 959 3003 697 2906 
L 697 3450 
Q 1169 3672 1522 3987 
Q 1875 4303 2022 4600 
L 2384 4600 
L 2384 0 
z
" transform="scale(0.015625)"/>
       </defs>
       <use xlink:href="#ArialMT-30"/>
       <use xlink:href="#ArialMT-2e" x="55.615234"/>
       <use xlink:href="#ArialMT-31" x="83.398438"/>
       <use xlink:href="#ArialMT-30" x="139.013672"/>
      </g>
     </g>
    </g>
    <g id="ytick_4">
     <g id="line2d_11">
      <path d="M 53.222031 222.549536 
L 499.622031 222.549536 
" clip-path="url(#p2912ee7542)" style="fill: none; stroke: #ffffff; stroke-linecap: round"/>
     </g>
     <g id="text_12">
      <!-- 0.15 -->
      <g style="fill: #262626" transform="translate(22.315 226.486333) scale(0.11 -0.11)">
       <use xlink:href="#ArialMT-30"/>
       <use xlink:href="#ArialMT-2e" x="55.615234"/>
       <use xlink:href="#ArialMT-31" x="83.398438"/>
       <use xlink:href="#ArialMT-35" x="139.013672"/>
      </g>
     </g>
    </g>
    <g id="ytick_5">
     <g id="line2d_12">
      <path d="M 53.222031 183.58084 
L 499.622031 183.58084 
" clip-path="url(#p2912ee7542)" style="fill: none; stroke: #ffffff; stroke-linecap: round"/>
     </g>
     <g id="text_13">
      <!-- 0.20 -->
      <g style="fill: #262626" transform="translate(22.315 187.517637) scale(0.11 -0.11)">
       <use xlink:href="#ArialMT-30"/>
       <use xlink:href="#ArialMT-2e" x="55.615234"/>
       <use xlink:href="#ArialMT-32" x="83.398438"/>
       <use xlink:href="#ArialMT-30" x="139.013672"/>
      </g>
     </g>
    </g>
    <g id="ytick_6">
     <g id="line2d_13">
      <path d="M 53.222031 144.612144 
L 499.622031 144.612144 
" clip-path="url(#p2912ee7542)" style="fill: none; stroke: #ffffff; stroke-linecap: round"/>
     </g>
     <g id="text_14">
      <!-- 0.25 -->
      <g style="fill: #262626" transform="translate(22.315 148.548941) scale(0.11 -0.11)">
       <use xlink:href="#ArialMT-30"/>
       <use xlink:href="#ArialMT-2e" x="55.615234"/>
       <use xlink:href="#ArialMT-32" x="83.398438"/>
       <use xlink:href="#ArialMT-35" x="139.013672"/>
      </g>
     </g>
    </g>
    <g id="ytick_7">
     <g id="line2d_14">
      <path d="M 53.222031 105.643448 
L 499.622031 105.643448 
" clip-path="url(#p2912ee7542)" style="fill: none; stroke: #ffffff; stroke-linecap: round"/>
     </g>
     <g id="text_15">
      <!-- 0.30 -->
      <g style="fill: #262626" transform="translate(22.315 109.580244) scale(0.11 -0.11)">
       <defs>
        <path id="ArialMT-33" d="M 269 1209 
L 831 1284 
Q 928 806 1161 595 
Q 1394 384 1728 384 
Q 2125 384 2398 659 
Q 2672 934 2672 1341 
Q 2672 1728 2419 1979 
Q 2166 2231 1775 2231 
Q 1616 2231 1378 2169 
L 1441 2663 
Q 1497 2656 1531 2656 
Q 1891 2656 2178 2843 
Q 2466 3031 2466 3422 
Q 2466 3731 2256 3934 
Q 2047 4138 1716 4138 
Q 1388 4138 1169 3931 
Q 950 3725 888 3313 
L 325 3413 
Q 428 3978 793 4289 
Q 1159 4600 1703 4600 
Q 2078 4600 2393 4439 
Q 2709 4278 2876 4000 
Q 3044 3722 3044 3409 
Q 3044 3113 2884 2869 
Q 2725 2625 2413 2481 
Q 2819 2388 3044 2092 
Q 3269 1797 3269 1353 
Q 3269 753 2831 336 
Q 2394 -81 1725 -81 
Q 1122 -81 723 278 
Q 325 638 269 1209 
z
" transform="scale(0.015625)"/>
       </defs>
       <use xlink:href="#ArialMT-30"/>
       <use xlink:href="#ArialMT-2e" x="55.615234"/>
       <use xlink:href="#ArialMT-33" x="83.398438"/>
       <use xlink:href="#ArialMT-30" x="139.013672"/>
      </g>
     </g>
    </g>
    <g id="ytick_8">
     <g id="line2d_15">
      <path d="M 53.222031 66.674751 
L 499.622031 66.674751 
" clip-path="url(#p2912ee7542)" style="fill: none; stroke: #ffffff; stroke-linecap: round"/>
     </g>
     <g id="text_16">
      <!-- 0.35 -->
      <g style="fill: #262626" transform="translate(22.315 70.611548) scale(0.11 -0.11)">
       <use xlink:href="#ArialMT-30"/>
       <use xlink:href="#ArialMT-2e" x="55.615234"/>
       <use xlink:href="#ArialMT-33" x="83.398438"/>
       <use xlink:href="#ArialMT-35" x="139.013672"/>
      </g>
     </g>
    </g>
    <g id="ytick_9">
     <g id="line2d_16">
      <path d="M 53.222031 27.706055 
L 499.622031 27.706055 
" clip-path="url(#p2912ee7542)" style="fill: none; stroke: #ffffff; stroke-linecap: round"/>
     </g>
     <g id="text_17">
      <!-- 0.40 -->
      <g style="fill: #262626" transform="translate(22.315 31.642852) scale(0.11 -0.11)">
       <use xlink:href="#ArialMT-30"/>
       <use xlink:href="#ArialMT-2e" x="55.615234"/>
       <use xlink:href="#ArialMT-34" x="83.398438"/>
       <use xlink:href="#ArialMT-30" x="139.013672"/>
      </g>
     </g>
    </g>
    <g id="text_18">
     <!-- Probability Density -->
     <g style="fill: #262626" transform="translate(15.789375 237.94125) rotate(-90) scale(0.12 -0.12)">
      <defs>
       <path id="ArialMT-50" d="M 494 0 
L 494 4581 
L 2222 4581 
Q 2678 4581 2919 4538 
Q 3256 4481 3484 4323 
Q 3713 4166 3852 3881 
Q 3991 3597 3991 3256 
Q 3991 2672 3619 2267 
Q 3247 1863 2275 1863 
L 1100 1863 
L 1100 0 
L 494 0 
z
M 1100 2403 
L 2284 2403 
Q 2872 2403 3119 2622 
Q 3366 2841 3366 3238 
Q 3366 3525 3220 3729 
Q 3075 3934 2838 4000 
Q 2684 4041 2272 4041 
L 1100 4041 
L 1100 2403 
z
" transform="scale(0.015625)"/>
       <path id="ArialMT-72" d="M 416 0 
L 416 3319 
L 922 3319 
L 922 2816 
Q 1116 3169 1280 3281 
Q 1444 3394 1641 3394 
Q 1925 3394 2219 3213 
L 2025 2691 
Q 1819 2813 1613 2813 
Q 1428 2813 1281 2702 
Q 1134 2591 1072 2394 
Q 978 2094 978 1738 
L 978 0 
L 416 0 
z
" transform="scale(0.015625)"/>
       <path id="ArialMT-6f" d="M 213 1659 
Q 213 2581 725 3025 
Q 1153 3394 1769 3394 
Q 2453 3394 2887 2945 
Q 3322 2497 3322 1706 
Q 3322 1066 3130 698 
Q 2938 331 2570 128 
Q 2203 -75 1769 -75 
Q 1072 -75 642 372 
Q 213 819 213 1659 
z
M 791 1659 
Q 791 1022 1069 705 
Q 1347 388 1769 388 
Q 2188 388 2466 706 
Q 2744 1025 2744 1678 
Q 2744 2294 2464 2611 
Q 2184 2928 1769 2928 
Q 1347 2928 1069 2612 
Q 791 2297 791 1659 
z
" transform="scale(0.015625)"/>
       <path id="ArialMT-62" d="M 941 0 
L 419 0 
L 419 4581 
L 981 4581 
L 981 2947 
Q 1338 3394 1891 3394 
Q 2197 3394 2470 3270 
Q 2744 3147 2920 2923 
Q 3097 2700 3197 2384 
Q 3297 2069 3297 1709 
Q 3297 856 2875 390 
Q 2453 -75 1863 -75 
Q 1275 -75 941 416 
L 941 0 
z
M 934 1684 
Q 934 1088 1097 822 
Q 1363 388 1816 388 
Q 2184 388 2453 708 
Q 2722 1028 2722 1663 
Q 2722 2313 2464 2622 
Q 2206 2931 1841 2931 
Q 1472 2931 1203 2611 
Q 934 2291 934 1684 
z
" transform="scale(0.015625)"/>
       <path id="ArialMT-69" d="M 425 3934 
L 425 4581 
L 988 4581 
L 988 3934 
L 425 3934 
z
M 425 0 
L 425 3319 
L 988 3319 
L 988 0 
L 425 0 
z
" transform="scale(0.015625)"/>
       <path id="ArialMT-79" d="M 397 -1278 
L 334 -750 
Q 519 -800 656 -800 
Q 844 -800 956 -737 
Q 1069 -675 1141 -563 
Q 1194 -478 1313 -144 
Q 1328 -97 1363 -6 
L 103 3319 
L 709 3319 
L 1400 1397 
Q 1534 1031 1641 628 
Q 1738 1016 1872 1384 
L 2581 3319 
L 3144 3319 
L 1881 -56 
Q 1678 -603 1566 -809 
Q 1416 -1088 1222 -1217 
Q 1028 -1347 759 -1347 
Q 597 -1347 397 -1278 
z
" transform="scale(0.015625)"/>
       <path id="ArialMT-20" transform="scale(0.015625)"/>
       <path id="ArialMT-44" d="M 494 0 
L 494 4581 
L 2072 4581 
Q 2606 4581 2888 4516 
Q 3281 4425 3559 4188 
Q 3922 3881 4101 3404 
Q 4281 2928 4281 2316 
Q 4281 1794 4159 1391 
Q 4038 988 3847 723 
Q 3656 459 3429 307 
Q 3203 156 2883 78 
Q 2563 0 2147 0 
L 494 0 
z
M 1100 541 
L 2078 541 
Q 2531 541 2789 625 
Q 3047 709 3200 863 
Q 3416 1078 3536 1442 
Q 3656 1806 3656 2325 
Q 3656 3044 3420 3430 
Q 3184 3816 2847 3947 
Q 2603 4041 2063 4041 
L 1100 4041 
L 1100 541 
z
" transform="scale(0.015625)"/>
       <path id="ArialMT-6e" d="M 422 0 
L 422 3319 
L 928 3319 
L 928 2847 
Q 1294 3394 1984 3394 
Q 2284 3394 2536 3286 
Q 2788 3178 2913 3003 
Q 3038 2828 3088 2588 
Q 3119 2431 3119 2041 
L 3119 0 
L 2556 0 
L 2556 2019 
Q 2556 2363 2490 2533 
Q 2425 2703 2258 2804 
Q 2091 2906 1866 2906 
Q 1506 2906 1245 2678 
Q 984 2450 984 1813 
L 984 0 
L 422 0 
z
" transform="scale(0.015625)"/>
       <path id="ArialMT-73" d="M 197 991 
L 753 1078 
Q 800 744 1014 566 
Q 1228 388 1613 388 
Q 2000 388 2187 545 
Q 2375 703 2375 916 
Q 2375 1106 2209 1216 
Q 2094 1291 1634 1406 
Q 1016 1563 777 1677 
Q 538 1791 414 1992 
Q 291 2194 291 2438 
Q 291 2659 392 2848 
Q 494 3038 669 3163 
Q 800 3259 1026 3326 
Q 1253 3394 1513 3394 
Q 1903 3394 2198 3281 
Q 2494 3169 2634 2976 
Q 2775 2784 2828 2463 
L 2278 2388 
Q 2241 2644 2061 2787 
Q 1881 2931 1553 2931 
Q 1166 2931 1000 2803 
Q 834 2675 834 2503 
Q 834 2394 903 2306 
Q 972 2216 1119 2156 
Q 1203 2125 1616 2013 
Q 2213 1853 2448 1751 
Q 2684 1650 2818 1456 
Q 2953 1263 2953 975 
Q 2953 694 2789 445 
Q 2625 197 2315 61 
Q 2006 -75 1616 -75 
Q 969 -75 630 194 
Q 291 463 197 991 
z
" transform="scale(0.015625)"/>
      </defs>
      <use xlink:href="#ArialMT-50"/>
      <use xlink:href="#ArialMT-72" x="66.699219"/>
      <use xlink:href="#ArialMT-6f" x="100"/>
      <use xlink:href="#ArialMT-62" x="155.615234"/>
      <use xlink:href="#ArialMT-61" x="211.230469"/>
      <use xlink:href="#ArialMT-62" x="266.845703"/>
      <use xlink:href="#ArialMT-69" x="322.460938"/>
      <use xlink:href="#ArialMT-6c" x="344.677734"/>
      <use xlink:href="#ArialMT-69" x="366.894531"/>
      <use xlink:href="#ArialMT-74" x="389.111328"/>
      <use xlink:href="#ArialMT-79" x="416.894531"/>
      <use xlink:href="#ArialMT-20" x="466.894531"/>
      <use xlink:href="#ArialMT-44" x="494.677734"/>
      <use xlink:href="#ArialMT-65" x="566.894531"/>
      <use xlink:href="#ArialMT-6e" x="622.509766"/>
      <use xlink:href="#ArialMT-73" x="678.125"/>
      <use xlink:href="#ArialMT-69" x="728.125"/>
      <use xlink:href="#ArialMT-74" x="750.341797"/>
      <use xlink:href="#ArialMT-79" x="778.125"/>
     </g>
    </g>
   </g>
   <g id="PolyCollection_1">
    <defs>
     <path id="me234809063" d="M 73.51294 -56.854219 
L 73.51294 -56.950995 
L 74.326203 -56.954152 
L 75.139466 -56.95742 
L 75.952729 -56.960803 
L 76.765992 -56.964306 
L 77.579255 -56.967933 
L 78.392518 -56.971688 
L 79.205781 -56.975577 
L 80.019043 -56.979604 
L 80.832306 -56.983775 
L 81.645569 -56.988096 
L 82.458832 -56.992571 
L 83.272095 -56.997207 
L 84.085358 -57.00201 
L 84.898621 -57.006987 
L 85.711884 -57.012144 
L 86.525147 -57.017487 
L 87.338409 -57.023025 
L 88.151672 -57.028765 
L 88.964935 -57.034714 
L 89.778198 -57.040881 
L 90.591461 -57.047274 
L 91.404724 -57.053901 
L 92.217987 -57.060773 
L 93.03125 -57.067898 
L 93.844513 -57.075287 
L 94.657775 -57.08295 
L 95.471038 -57.090897 
L 96.284301 -57.09914 
L 97.097564 -57.10769 
L 97.910827 -57.11656 
L 98.72409 -57.125762 
L 99.537353 -57.135309 
L 100.350616 -57.145216 
L 101.163879 -57.155495 
L 101.977141 -57.166163 
L 102.790404 -57.177235 
L 103.603667 -57.188726 
L 104.41693 -57.200654 
L 105.230193 -57.213036 
L 106.043456 -57.225891 
L 106.856719 -57.239237 
L 107.669982 -57.253094 
L 108.483245 -57.267483 
L 109.296507 -57.282425 
L 110.10977 -57.297943 
L 110.923033 -57.31406 
L 111.736296 -57.3308 
L 112.549559 -57.348189 
L 113.362822 -57.366253 
L 114.176085 -57.385019 
L 114.989348 -57.404517 
L 115.802611 -57.424777 
L 116.615873 -57.445828 
L 117.429136 -57.467705 
L 118.242399 -57.49044 
L 119.055662 -57.514069 
L 119.868925 -57.53863 
L 120.682188 -57.564159 
L 121.495451 -57.590698 
L 122.308714 -57.618288 
L 123.121977 -57.646972 
L 123.935239 -57.676796 
L 124.748502 -57.707807 
L 125.561765 -57.740055 
L 126.375028 -57.77359 
L 127.188291 -57.808466 
L 128.001554 -57.844739 
L 128.814817 -57.882467 
L 129.62808 -57.921711 
L 130.441343 -57.962535 
L 131.254605 -58.005004 
L 132.067868 -58.049186 
L 132.881131 -58.095154 
L 133.694394 -58.142983 
L 134.507657 -58.192749 
L 135.32092 -58.244536 
L 136.134183 -58.298426 
L 136.947446 -58.354509 
L 137.760709 -58.412877 
L 138.573971 -58.473625 
L 139.387234 -58.536854 
L 140.200497 -58.602668 
L 141.01376 -58.671175 
L 141.827023 -58.742489 
L 142.640286 -58.816728 
L 143.453549 -58.894015 
L 144.266812 -58.974477 
L 145.080075 -59.05825 
L 145.893337 -59.145471 
L 146.7066 -59.236286 
L 147.519863 -59.330846 
L 148.333126 -59.429308 
L 149.146389 -59.531837 
L 149.959652 -59.638603 
L 150.772915 -59.749785 
L 151.586178 -59.865566 
L 152.399441 -59.986141 
L 153.212704 -60.11171 
L 154.025966 -60.242482 
L 154.839229 -60.378676 
L 155.652492 -60.520516 
L 156.465755 -60.66824 
L 157.279018 -60.822093 
L 158.092281 -60.982329 
L 158.905544 -61.149215 
L 159.718807 -61.323026 
L 160.53207 -61.50405 
L 161.345332 -61.692586 
L 162.158595 -61.888943 
L 162.971858 -62.093445 
L 163.785121 -62.306426 
L 164.598384 -62.528235 
L 165.411647 -62.759235 
L 166.22491 -62.9998 
L 167.038173 -63.250321 
L 167.851436 -63.511203 
L 168.664698 -63.782866 
L 169.477961 -64.065746 
L 170.291224 -64.360296 
L 171.104487 -64.666984 
L 171.91775 -64.986298 
L 172.731013 -65.31874 
L 173.544276 -65.664832 
L 174.357539 -66.025116 
L 175.170802 -66.400151 
L 175.984064 -66.790516 
L 176.797327 -67.19681 
L 177.61059 -67.619654 
L 178.423853 -68.059687 
L 179.237116 -68.517573 
L 180.050379 -68.993994 
L 180.863642 -69.489656 
L 181.676905 -70.005288 
L 182.490168 -70.541642 
L 183.30343 -71.099491 
L 184.116693 -71.679633 
L 184.929956 -72.282891 
L 185.743219 -72.910109 
L 186.556482 -73.562159 
L 187.369745 -74.239933 
L 188.183008 -74.94435 
L 188.996271 -75.676353 
L 189.809534 -76.436909 
L 190.622796 -77.22701 
L 191.436059 -78.04767 
L 192.249322 -78.899928 
L 192.249322 -56.854219 
L 192.249322 -56.854219 
L 191.436059 -56.854219 
L 190.622796 -56.854219 
L 189.809534 -56.854219 
L 188.996271 -56.854219 
L 188.183008 -56.854219 
L 187.369745 -56.854219 
L 186.556482 -56.854219 
L 185.743219 -56.854219 
L 184.929956 -56.854219 
L 184.116693 -56.854219 
L 183.30343 -56.854219 
L 182.490168 -56.854219 
L 181.676905 -56.854219 
L 180.863642 -56.854219 
L 180.050379 -56.854219 
L 179.237116 -56.854219 
L 178.423853 -56.854219 
L 177.61059 -56.854219 
L 176.797327 -56.854219 
L 175.984064 -56.854219 
L 175.170802 -56.854219 
L 174.357539 -56.854219 
L 173.544276 -56.854219 
L 172.731013 -56.854219 
L 171.91775 -56.854219 
L 171.104487 -56.854219 
L 170.291224 -56.854219 
L 169.477961 -56.854219 
L 168.664698 -56.854219 
L 167.851436 -56.854219 
L 167.038173 -56.854219 
L 166.22491 -56.854219 
L 165.411647 -56.854219 
L 164.598384 -56.854219 
L 163.785121 -56.854219 
L 162.971858 -56.854219 
L 162.158595 -56.854219 
L 161.345332 -56.854219 
L 160.53207 -56.854219 
L 159.718807 -56.854219 
L 158.905544 -56.854219 
L 158.092281 -56.854219 
L 157.279018 -56.854219 
L 156.465755 -56.854219 
L 155.652492 -56.854219 
L 154.839229 -56.854219 
L 154.025966 -56.854219 
L 153.212704 -56.854219 
L 152.399441 -56.854219 
L 151.586178 -56.854219 
L 150.772915 -56.854219 
L 149.959652 -56.854219 
L 149.146389 -56.854219 
L 148.333126 -56.854219 
L 147.519863 -56.854219 
L 146.7066 -56.854219 
L 145.893337 -56.854219 
L 145.080075 -56.854219 
L 144.266812 -56.854219 
L 143.453549 -56.854219 
L 142.640286 -56.854219 
L 141.827023 -56.854219 
L 141.01376 -56.854219 
L 140.200497 -56.854219 
L 139.387234 -56.854219 
L 138.573971 -56.854219 
L 137.760709 -56.854219 
L 136.947446 -56.854219 
L 136.134183 -56.854219 
L 135.32092 -56.854219 
L 134.507657 -56.854219 
L 133.694394 -56.854219 
L 132.881131 -56.854219 
L 132.067868 -56.854219 
L 131.254605 -56.854219 
L 130.441343 -56.854219 
L 129.62808 -56.854219 
L 128.814817 -56.854219 
L 128.001554 -56.854219 
L 127.188291 -56.854219 
L 126.375028 -56.854219 
L 125.561765 -56.854219 
L 124.748502 -56.854219 
L 123.935239 -56.854219 
L 123.121977 -56.854219 
L 122.308714 -56.854219 
L 121.495451 -56.854219 
L 120.682188 -56.854219 
L 119.868925 -56.854219 
L 119.055662 -56.854219 
L 118.242399 -56.854219 
L 117.429136 -56.854219 
L 116.615873 -56.854219 
L 115.802611 -56.854219 
L 114.989348 -56.854219 
L 114.176085 -56.854219 
L 113.362822 -56.854219 
L 112.549559 -56.854219 
L 111.736296 -56.854219 
L 110.923033 -56.854219 
L 110.10977 -56.854219 
L 109.296507 -56.854219 
L 108.483245 -56.854219 
L 107.669982 -56.854219 
L 106.856719 -56.854219 
L 106.043456 -56.854219 
L 105.230193 -56.854219 
L 104.41693 -56.854219 
L 103.603667 -56.854219 
L 102.790404 -56.854219 
L 101.977141 -56.854219 
L 101.163879 -56.854219 
L 100.350616 -56.854219 
L 99.537353 -56.854219 
L 98.72409 -56.854219 
L 97.910827 -56.854219 
L 97.097564 -56.854219 
L 96.284301 -56.854219 
L 95.471038 -56.854219 
L 94.657775 -56.854219 
L 93.844513 -56.854219 
L 93.03125 -56.854219 
L 92.217987 -56.854219 
L 91.404724 -56.854219 
L 90.591461 -56.854219 
L 89.778198 -56.854219 
L 88.964935 -56.854219 
L 88.151672 -56.854219 
L 87.338409 -56.854219 
L 86.525147 -56.854219 
L 85.711884 -56.854219 
L 84.898621 -56.854219 
L 84.085358 -56.854219 
L 83.272095 -56.854219 
L 82.458832 -56.854219 
L 81.645569 -56.854219 
L 80.832306 -56.854219 
L 80.019043 -56.854219 
L 79.205781 -56.854219 
L 78.392518 -56.854219 
L 77.579255 -56.854219 
L 76.765992 -56.854219 
L 75.952729 -56.854219 
L 75.139466 -56.854219 
L 74.326203 -56.854219 
L 73.51294 -56.854219 
z
" style="stroke: #0000ff; stroke-opacity: 0.3"/>
    </defs>
    <g clip-path="url(#p2912ee7542)">
     <use xlink:href="#me234809063" x="0" y="396.309844" style="fill: #0000ff; fill-opacity: 0.3; stroke: #0000ff; stroke-opacity: 0.3"/>
    </g>
   </g>
   <g id="PolyCollection_2">
    <defs>
     <path id="m034c0cc2d2" d="M 360.59474 -56.854219 
L 360.59474 -78.899928 
L 361.408003 -78.04767 
L 362.221266 -77.22701 
L 363.034529 -76.436909 
L 363.847792 -75.676353 
L 364.661055 -74.94435 
L 365.474318 -74.239933 
L 366.287581 -73.562159 
L 367.100843 -72.910109 
L 367.914106 -72.282891 
L 368.727369 -71.679633 
L 369.540632 -71.099491 
L 370.353895 -70.541642 
L 371.167158 -70.005288 
L 371.980421 -69.489656 
L 372.793684 -68.993994 
L 373.606947 -68.517573 
L 374.420209 -68.059687 
L 375.233472 -67.619654 
L 376.046735 -67.19681 
L 376.859998 -66.790516 
L 377.673261 -66.400151 
L 378.486524 -66.025116 
L 379.299787 -65.664832 
L 380.11305 -65.31874 
L 380.926313 -64.986298 
L 381.739575 -64.666984 
L 382.552838 -64.360296 
L 383.366101 -64.065746 
L 384.179364 -63.782866 
L 384.992627 -63.511203 
L 385.80589 -63.250321 
L 386.619153 -62.9998 
L 387.432416 -62.759235 
L 388.245679 -62.528235 
L 389.058941 -62.306426 
L 389.872204 -62.093445 
L 390.685467 -61.888943 
L 391.49873 -61.692586 
L 392.311993 -61.50405 
L 393.125256 -61.323026 
L 393.938519 -61.149215 
L 394.751782 -60.982329 
L 395.565045 -60.822093 
L 396.378307 -60.66824 
L 397.19157 -60.520516 
L 398.004833 -60.378676 
L 398.818096 -60.242482 
L 399.631359 -60.11171 
L 400.444622 -59.986141 
L 401.257885 -59.865566 
L 402.071148 -59.749785 
L 402.884411 -59.638603 
L 403.697673 -59.531837 
L 404.510936 -59.429308 
L 405.324199 -59.330846 
L 406.137462 -59.236286 
L 406.950725 -59.145471 
L 407.763988 -59.05825 
L 408.577251 -58.974477 
L 409.390514 -58.894015 
L 410.203777 -58.816728 
L 411.017039 -58.742489 
L 411.830302 -58.671175 
L 412.643565 -58.602668 
L 413.456828 -58.536854 
L 414.270091 -58.473625 
L 415.083354 -58.412877 
L 415.896617 -58.354509 
L 416.70988 -58.298426 
L 417.523143 -58.244536 
L 418.336405 -58.192749 
L 419.149668 -58.142983 
L 419.962931 -58.095154 
L 420.776194 -58.049186 
L 421.589457 -58.005004 
L 422.40272 -57.962535 
L 423.215983 -57.921711 
L 424.029246 -57.882467 
L 424.842509 -57.844739 
L 425.655771 -57.808466 
L 426.469034 -57.77359 
L 427.282297 -57.740055 
L 428.09556 -57.707807 
L 428.908823 -57.676796 
L 429.722086 -57.646972 
L 430.535349 -57.618288 
L 431.348612 -57.590698 
L 432.161875 -57.564159 
L 432.975137 -57.53863 
L 433.7884 -57.514069 
L 434.601663 -57.49044 
L 435.414926 -57.467705 
L 436.228189 -57.445828 
L 437.041452 -57.424777 
L 437.854715 -57.404517 
L 438.667978 -57.385019 
L 439.481241 -57.366253 
L 440.294503 -57.348189 
L 441.107766 -57.3308 
L 441.921029 -57.31406 
L 442.734292 -57.297943 
L 443.547555 -57.282425 
L 444.360818 -57.267483 
L 445.174081 -57.253094 
L 445.987344 -57.239237 
L 446.800607 -57.225891 
L 447.613869 -57.213036 
L 448.427132 -57.200654 
L 449.240395 -57.188726 
L 450.053658 -57.177235 
L 450.866921 -57.166163 
L 451.680184 -57.155495 
L 452.493447 -57.145216 
L 453.30671 -57.135309 
L 454.119973 -57.125762 
L 454.933235 -57.11656 
L 455.746498 -57.10769 
L 456.559761 -57.09914 
L 457.373024 -57.090897 
L 458.186287 -57.08295 
L 458.99955 -57.075287 
L 459.812813 -57.067898 
L 460.626076 -57.060773 
L 461.439339 -57.053901 
L 462.252601 -57.047274 
L 463.065864 -57.040881 
L 463.879127 -57.034714 
L 464.69239 -57.028765 
L 465.505653 -57.023025 
L 466.318916 -57.017487 
L 467.132179 -57.012144 
L 467.945442 -57.006987 
L 468.758705 -57.00201 
L 469.571967 -56.997207 
L 470.38523 -56.992571 
L 471.198493 -56.988096 
L 472.011756 -56.983775 
L 472.825019 -56.979604 
L 473.638282 -56.975577 
L 474.451545 -56.971688 
L 475.264808 -56.967933 
L 476.078071 -56.964306 
L 476.891333 -56.960803 
L 477.704596 -56.95742 
L 478.517859 -56.954152 
L 479.331122 -56.950995 
L 479.331122 -56.854219 
L 479.331122 -56.854219 
L 478.517859 -56.854219 
L 477.704596 -56.854219 
L 476.891333 -56.854219 
L 476.078071 -56.854219 
L 475.264808 -56.854219 
L 474.451545 -56.854219 
L 473.638282 -56.854219 
L 472.825019 -56.854219 
L 472.011756 -56.854219 
L 471.198493 -56.854219 
L 470.38523 -56.854219 
L 469.571967 -56.854219 
L 468.758705 -56.854219 
L 467.945442 -56.854219 
L 467.132179 -56.854219 
L 466.318916 -56.854219 
L 465.505653 -56.854219 
L 464.69239 -56.854219 
L 463.879127 -56.854219 
L 463.065864 -56.854219 
L 462.252601 -56.854219 
L 461.439339 -56.854219 
L 460.626076 -56.854219 
L 459.812813 -56.854219 
L 458.99955 -56.854219 
L 458.186287 -56.854219 
L 457.373024 -56.854219 
L 456.559761 -56.854219 
L 455.746498 -56.854219 
L 454.933235 -56.854219 
L 454.119973 -56.854219 
L 453.30671 -56.854219 
L 452.493447 -56.854219 
L 451.680184 -56.854219 
L 450.866921 -56.854219 
L 450.053658 -56.854219 
L 449.240395 -56.854219 
L 448.427132 -56.854219 
L 447.613869 -56.854219 
L 446.800607 -56.854219 
L 445.987344 -56.854219 
L 445.174081 -56.854219 
L 444.360818 -56.854219 
L 443.547555 -56.854219 
L 442.734292 -56.854219 
L 441.921029 -56.854219 
L 441.107766 -56.854219 
L 440.294503 -56.854219 
L 439.481241 -56.854219 
L 438.667978 -56.854219 
L 437.854715 -56.854219 
L 437.041452 -56.854219 
L 436.228189 -56.854219 
L 435.414926 -56.854219 
L 434.601663 -56.854219 
L 433.7884 -56.854219 
L 432.975137 -56.854219 
L 432.161875 -56.854219 
L 431.348612 -56.854219 
L 430.535349 -56.854219 
L 429.722086 -56.854219 
L 428.908823 -56.854219 
L 428.09556 -56.854219 
L 427.282297 -56.854219 
L 426.469034 -56.854219 
L 425.655771 -56.854219 
L 424.842509 -56.854219 
L 424.029246 -56.854219 
L 423.215983 -56.854219 
L 422.40272 -56.854219 
L 421.589457 -56.854219 
L 420.776194 -56.854219 
L 419.962931 -56.854219 
L 419.149668 -56.854219 
L 418.336405 -56.854219 
L 417.523143 -56.854219 
L 416.70988 -56.854219 
L 415.896617 -56.854219 
L 415.083354 -56.854219 
L 414.270091 -56.854219 
L 413.456828 -56.854219 
L 412.643565 -56.854219 
L 411.830302 -56.854219 
L 411.017039 -56.854219 
L 410.203777 -56.854219 
L 409.390514 -56.854219 
L 408.577251 -56.854219 
L 407.763988 -56.854219 
L 406.950725 -56.854219 
L 406.137462 -56.854219 
L 405.324199 -56.854219 
L 404.510936 -56.854219 
L 403.697673 -56.854219 
L 402.884411 -56.854219 
L 402.071148 -56.854219 
L 401.257885 -56.854219 
L 400.444622 -56.854219 
L 399.631359 -56.854219 
L 398.818096 -56.854219 
L 398.004833 -56.854219 
L 397.19157 -56.854219 
L 396.378307 -56.854219 
L 395.565045 -56.854219 
L 394.751782 -56.854219 
L 393.938519 -56.854219 
L 393.125256 -56.854219 
L 392.311993 -56.854219 
L 391.49873 -56.854219 
L 390.685467 -56.854219 
L 389.872204 -56.854219 
L 389.058941 -56.854219 
L 388.245679 -56.854219 
L 387.432416 -56.854219 
L 386.619153 -56.854219 
L 385.80589 -56.854219 
L 384.992627 -56.854219 
L 384.179364 -56.854219 
L 383.366101 -56.854219 
L 382.552838 -56.854219 
L 381.739575 -56.854219 
L 380.926313 -56.854219 
L 380.11305 -56.854219 
L 379.299787 -56.854219 
L 378.486524 -56.854219 
L 377.673261 -56.854219 
L 376.859998 -56.854219 
L 376.046735 -56.854219 
L 375.233472 -56.854219 
L 374.420209 -56.854219 
L 373.606947 -56.854219 
L 372.793684 -56.854219 
L 371.980421 -56.854219 
L 371.167158 -56.854219 
L 370.353895 -56.854219 
L 369.540632 -56.854219 
L 368.727369 -56.854219 
L 367.914106 -56.854219 
L 367.100843 -56.854219 
L 366.287581 -56.854219 
L 365.474318 -56.854219 
L 364.661055 -56.854219 
L 363.847792 -56.854219 
L 363.034529 -56.854219 
L 362.221266 -56.854219 
L 361.408003 -56.854219 
L 360.59474 -56.854219 
z
" style="stroke: #0000ff; stroke-opacity: 0.3"/>
    </defs>
    <g clip-path="url(#p2912ee7542)">
     <use xlink:href="#m034c0cc2d2" x="0" y="396.309844" style="fill: #0000ff; fill-opacity: 0.3; stroke: #0000ff; stroke-opacity: 0.3"/>
    </g>
   </g>
   <g id="PolyCollection_3">
    <defs>
     <path id="m2e7152ea6f" d="M 193.062585 -56.854219 
L 193.062585 -79.784848 
L 193.875848 -80.703513 
L 194.689111 -81.657033 
L 195.502374 -82.646535 
L 196.315637 -83.673171 
L 197.1289 -84.738111 
L 197.942162 -85.842545 
L 198.755425 -86.987678 
L 199.568688 -88.174736 
L 200.381951 -89.404957 
L 201.195214 -90.679593 
L 202.008477 -91.999908 
L 202.82174 -93.367176 
L 203.635003 -94.782678 
L 204.448266 -96.247701 
L 205.261528 -97.763532 
L 206.074791 -99.331461 
L 206.888054 -100.952774 
L 207.701317 -102.628749 
L 208.51458 -104.360657 
L 209.327843 -106.149752 
L 210.141106 -107.997273 
L 210.954369 -109.904438 
L 211.767632 -111.872436 
L 212.580894 -113.90243 
L 213.394157 -115.995542 
L 214.20742 -118.152858 
L 215.020683 -120.375415 
L 215.833946 -122.664199 
L 216.647209 -125.020139 
L 217.460472 -127.444099 
L 218.273735 -129.936873 
L 219.086998 -132.49918 
L 219.90026 -135.131653 
L 220.713523 -137.834835 
L 221.526786 -140.609171 
L 222.340049 -143.455002 
L 223.153312 -146.372556 
L 223.966575 -149.36194 
L 224.779838 -152.423133 
L 225.593101 -155.555979 
L 226.406364 -158.76018 
L 227.219626 -162.035284 
L 228.032889 -165.380681 
L 228.846152 -168.795597 
L 229.659415 -172.279082 
L 230.472678 -175.830004 
L 231.285941 -179.447044 
L 232.099204 -183.128688 
L 232.912467 -186.873221 
L 233.72573 -190.678717 
L 234.538992 -194.543042 
L 235.352255 -198.463838 
L 236.165518 -202.438528 
L 236.978781 -206.464306 
L 237.792044 -210.538136 
L 238.605307 -214.656749 
L 239.41857 -218.816642 
L 240.231833 -223.014074 
L 241.045096 -227.24507 
L 241.858358 -231.50542 
L 242.671621 -235.790682 
L 243.484884 -240.096181 
L 244.298147 -244.417019 
L 245.11141 -248.748076 
L 245.924673 -253.084017 
L 246.737936 -257.419303 
L 247.551199 -261.748195 
L 248.364462 -266.064765 
L 249.177724 -270.362911 
L 249.990987 -274.636365 
L 250.80425 -278.878709 
L 251.617513 -283.08339 
L 252.430776 -287.243735 
L 253.244039 -291.35297 
L 254.057302 -295.404235 
L 254.870565 -299.390608 
L 255.683828 -303.305121 
L 256.49709 -307.140784 
L 257.310353 -310.890607 
L 258.123616 -314.547619 
L 258.936879 -318.104898 
L 259.750142 -321.555589 
L 260.563405 -324.892929 
L 261.376668 -328.110276 
L 262.189931 -331.201126 
L 263.003194 -334.159146 
L 263.816456 -336.978191 
L 264.629719 -339.652333 
L 265.442982 -342.175882 
L 266.256245 -344.54341 
L 267.069508 -346.749772 
L 267.882771 -348.790131 
L 268.696034 -350.659973 
L 269.509297 -352.355131 
L 270.32256 -353.871799 
L 271.135822 -355.206552 
L 271.949085 -356.356358 
L 272.762348 -357.318594 
L 273.575611 -358.091055 
L 274.388874 -358.671964 
L 275.202137 -359.059984 
L 276.0154 -359.254219 
L 276.828663 -359.254219 
L 277.641926 -359.059984 
L 278.455188 -358.671964 
L 279.268451 -358.091055 
L 280.081714 -357.318594 
L 280.894977 -356.356358 
L 281.70824 -355.206552 
L 282.521503 -353.871799 
L 283.334766 -352.355131 
L 284.148029 -350.659973 
L 284.961292 -348.790131 
L 285.774554 -346.749772 
L 286.587817 -344.54341 
L 287.40108 -342.175882 
L 288.214343 -339.652333 
L 289.027606 -336.978191 
L 289.840869 -334.159146 
L 290.654132 -331.201126 
L 291.467395 -328.110276 
L 292.280658 -324.892929 
L 293.09392 -321.555589 
L 293.907183 -318.104898 
L 294.720446 -314.547619 
L 295.533709 -310.890607 
L 296.346972 -307.140784 
L 297.160235 -303.305121 
L 297.973498 -299.390608 
L 298.786761 -295.404235 
L 299.600024 -291.35297 
L 300.413286 -287.243735 
L 301.226549 -283.08339 
L 302.039812 -278.878709 
L 302.853075 -274.636365 
L 303.666338 -270.362911 
L 304.479601 -266.064765 
L 305.292864 -261.748195 
L 306.106127 -257.419303 
L 306.91939 -253.084017 
L 307.732652 -248.748076 
L 308.545915 -244.417019 
L 309.359178 -240.096181 
L 310.172441 -235.790682 
L 310.985704 -231.50542 
L 311.798967 -227.24507 
L 312.61223 -223.014074 
L 313.425493 -218.816642 
L 314.238756 -214.656749 
L 315.052018 -210.538136 
L 315.865281 -206.464306 
L 316.678544 -202.438528 
L 317.491807 -198.463838 
L 318.30507 -194.543042 
L 319.118333 -190.678717 
L 319.931596 -186.873221 
L 320.744859 -183.128688 
L 321.558122 -179.447044 
L 322.371385 -175.830004 
L 323.184647 -172.279082 
L 323.99791 -168.795597 
L 324.811173 -165.380681 
L 325.624436 -162.035284 
L 326.437699 -158.76018 
L 327.250962 -155.555979 
L 328.064225 -152.423133 
L 328.877488 -149.36194 
L 329.690751 -146.372556 
L 330.504013 -143.455002 
L 331.317276 -140.609171 
L 332.130539 -137.834835 
L 332.943802 -135.131653 
L 333.757065 -132.49918 
L 334.570328 -129.936873 
L 335.383591 -127.444099 
L 336.196854 -125.020139 
L 337.010117 -122.664199 
L 337.823379 -120.375415 
L 338.636642 -118.152858 
L 339.449905 -115.995542 
L 340.263168 -113.90243 
L 341.076431 -111.872436 
L 341.889694 -109.904438 
L 342.702957 -107.997273 
L 343.51622 -106.149752 
L 344.329483 -104.360657 
L 345.142745 -102.628749 
L 345.956008 -100.952774 
L 346.769271 -99.331461 
L 347.582534 -97.763532 
L 348.395797 -96.247701 
L 349.20906 -94.782678 
L 350.022323 -93.367176 
L 350.835586 -91.999908 
L 351.648849 -90.679593 
L 352.462111 -89.404957 
L 353.275374 -88.174736 
L 354.088637 -86.987678 
L 354.9019 -85.842545 
L 355.715163 -84.738111 
L 356.528426 -83.673171 
L 357.341689 -82.646535 
L 358.154952 -81.657033 
L 358.968215 -80.703513 
L 359.781477 -79.784848 
L 359.781477 -56.854219 
L 359.781477 -56.854219 
L 358.968215 -56.854219 
L 358.154952 -56.854219 
L 357.341689 -56.854219 
L 356.528426 -56.854219 
L 355.715163 -56.854219 
L 354.9019 -56.854219 
L 354.088637 -56.854219 
L 353.275374 -56.854219 
L 352.462111 -56.854219 
L 351.648849 -56.854219 
L 350.835586 -56.854219 
L 350.022323 -56.854219 
L 349.20906 -56.854219 
L 348.395797 -56.854219 
L 347.582534 -56.854219 
L 346.769271 -56.854219 
L 345.956008 -56.854219 
L 345.142745 -56.854219 
L 344.329483 -56.854219 
L 343.51622 -56.854219 
L 342.702957 -56.854219 
L 341.889694 -56.854219 
L 341.076431 -56.854219 
L 340.263168 -56.854219 
L 339.449905 -56.854219 
L 338.636642 -56.854219 
L 337.823379 -56.854219 
L 337.010117 -56.854219 
L 336.196854 -56.854219 
L 335.383591 -56.854219 
L 334.570328 -56.854219 
L 333.757065 -56.854219 
L 332.943802 -56.854219 
L 332.130539 -56.854219 
L 331.317276 -56.854219 
L 330.504013 -56.854219 
L 329.690751 -56.854219 
L 328.877488 -56.854219 
L 328.064225 -56.854219 
L 327.250962 -56.854219 
L 326.437699 -56.854219 
L 325.624436 -56.854219 
L 324.811173 -56.854219 
L 323.99791 -56.854219 
L 323.184647 -56.854219 
L 322.371385 -56.854219 
L 321.558122 -56.854219 
L 320.744859 -56.854219 
L 319.931596 -56.854219 
L 319.118333 -56.854219 
L 318.30507 -56.854219 
L 317.491807 -56.854219 
L 316.678544 -56.854219 
L 315.865281 -56.854219 
L 315.052018 -56.854219 
L 314.238756 -56.854219 
L 313.425493 -56.854219 
L 312.61223 -56.854219 
L 311.798967 -56.854219 
L 310.985704 -56.854219 
L 310.172441 -56.854219 
L 309.359178 -56.854219 
L 308.545915 -56.854219 
L 307.732652 -56.854219 
L 306.91939 -56.854219 
L 306.106127 -56.854219 
L 305.292864 -56.854219 
L 304.479601 -56.854219 
L 303.666338 -56.854219 
L 302.853075 -56.854219 
L 302.039812 -56.854219 
L 301.226549 -56.854219 
L 300.413286 -56.854219 
L 299.600024 -56.854219 
L 298.786761 -56.854219 
L 297.973498 -56.854219 
L 297.160235 -56.854219 
L 296.346972 -56.854219 
L 295.533709 -56.854219 
L 294.720446 -56.854219 
L 293.907183 -56.854219 
L 293.09392 -56.854219 
L 292.280658 -56.854219 
L 291.467395 -56.854219 
L 290.654132 -56.854219 
L 289.840869 -56.854219 
L 289.027606 -56.854219 
L 288.214343 -56.854219 
L 287.40108 -56.854219 
L 286.587817 -56.854219 
L 285.774554 -56.854219 
L 284.961292 -56.854219 
L 284.148029 -56.854219 
L 283.334766 -56.854219 
L 282.521503 -56.854219 
L 281.70824 -56.854219 
L 280.894977 -56.854219 
L 280.081714 -56.854219 
L 279.268451 -56.854219 
L 278.455188 -56.854219 
L 277.641926 -56.854219 
L 276.828663 -56.854219 
L 276.0154 -56.854219 
L 275.202137 -56.854219 
L 274.388874 -56.854219 
L 273.575611 -56.854219 
L 272.762348 -56.854219 
L 271.949085 -56.854219 
L 271.135822 -56.854219 
L 270.32256 -56.854219 
L 269.509297 -56.854219 
L 268.696034 -56.854219 
L 267.882771 -56.854219 
L 267.069508 -56.854219 
L 266.256245 -56.854219 
L 265.442982 -56.854219 
L 264.629719 -56.854219 
L 263.816456 -56.854219 
L 263.003194 -56.854219 
L 262.189931 -56.854219 
L 261.376668 -56.854219 
L 260.563405 -56.854219 
L 259.750142 -56.854219 
L 258.936879 -56.854219 
L 258.123616 -56.854219 
L 257.310353 -56.854219 
L 256.49709 -56.854219 
L 255.683828 -56.854219 
L 254.870565 -56.854219 
L 254.057302 -56.854219 
L 253.244039 -56.854219 
L 252.430776 -56.854219 
L 251.617513 -56.854219 
L 250.80425 -56.854219 
L 249.990987 -56.854219 
L 249.177724 -56.854219 
L 248.364462 -56.854219 
L 247.551199 -56.854219 
L 246.737936 -56.854219 
L 245.924673 -56.854219 
L 245.11141 -56.854219 
L 244.298147 -56.854219 
L 243.484884 -56.854219 
L 242.671621 -56.854219 
L 241.858358 -56.854219 
L 241.045096 -56.854219 
L 240.231833 -56.854219 
L 239.41857 -56.854219 
L 238.605307 -56.854219 
L 237.792044 -56.854219 
L 236.978781 -56.854219 
L 236.165518 -56.854219 
L 235.352255 -56.854219 
L 234.538992 -56.854219 
L 233.72573 -56.854219 
L 232.912467 -56.854219 
L 232.099204 -56.854219 
L 231.285941 -56.854219 
L 230.472678 -56.854219 
L 229.659415 -56.854219 
L 228.846152 -56.854219 
L 228.032889 -56.854219 
L 227.219626 -56.854219 
L 226.406364 -56.854219 
L 225.593101 -56.854219 
L 224.779838 -56.854219 
L 223.966575 -56.854219 
L 223.153312 -56.854219 
L 222.340049 -56.854219 
L 221.526786 -56.854219 
L 220.713523 -56.854219 
L 219.90026 -56.854219 
L 219.086998 -56.854219 
L 218.273735 -56.854219 
L 217.460472 -56.854219 
L 216.647209 -56.854219 
L 215.833946 -56.854219 
L 215.020683 -56.854219 
L 214.20742 -56.854219 
L 213.394157 -56.854219 
L 212.580894 -56.854219 
L 211.767632 -56.854219 
L 210.954369 -56.854219 
L 210.141106 -56.854219 
L 209.327843 -56.854219 
L 208.51458 -56.854219 
L 207.701317 -56.854219 
L 206.888054 -56.854219 
L 206.074791 -56.854219 
L 205.261528 -56.854219 
L 204.448266 -56.854219 
L 203.635003 -56.854219 
L 202.82174 -56.854219 
L 202.008477 -56.854219 
L 201.195214 -56.854219 
L 200.381951 -56.854219 
L 199.568688 -56.854219 
L 198.755425 -56.854219 
L 197.942162 -56.854219 
L 197.1289 -56.854219 
L 196.315637 -56.854219 
L 195.502374 -56.854219 
L 194.689111 -56.854219 
L 193.875848 -56.854219 
L 193.062585 -56.854219 
z
" style="stroke: #ffffff; stroke-opacity: 0"/>
    </defs>
    <g clip-path="url(#p2912ee7542)">
     <use xlink:href="#m2e7152ea6f" x="0" y="396.309844" style="fill: #0173b2; fill-opacity: 0; stroke: #ffffff; stroke-opacity: 0"/>
    </g>
   </g>
   <g id="line2d_17">
    <path d="M 73.51294 339.358849 
L 101.977141 339.143681 
L 118.242399 338.819404 
L 129.62808 338.388132 
L 138.573971 337.836218 
L 145.893337 337.164373 
L 151.586178 336.444278 
L 156.465755 335.641604 
L 161.345332 334.617258 
L 165.411647 333.550609 
L 169.477961 332.244098 
L 172.731013 330.991104 
L 175.984064 329.519328 
L 179.237116 327.792271 
L 182.490168 325.768202 
L 184.929956 324.026953 
L 187.369745 322.069911 
L 189.809534 319.872934 
L 192.249322 317.409915 
L 194.689111 314.652811 
L 197.1289 311.571732 
L 199.568688 308.135108 
L 202.008477 304.309936 
L 204.448266 300.062143 
L 206.888054 295.35707 
L 209.327843 290.160092 
L 211.767632 284.437407 
L 214.20742 278.156986 
L 216.647209 271.289705 
L 219.086998 263.810664 
L 221.526786 255.700673 
L 223.966575 246.947904 
L 227.219626 234.27456 
L 230.472678 220.47984 
L 233.72573 205.631126 
L 237.792044 185.771707 
L 242.671621 160.519162 
L 253.244039 104.956874 
L 256.49709 89.16906 
L 258.936879 78.204945 
L 261.376668 68.199568 
L 263.816456 59.331653 
L 265.442982 54.133962 
L 267.069508 49.560072 
L 268.696034 45.649871 
L 270.32256 42.438045 
L 271.949085 39.953485 
L 272.762348 38.99125 
L 273.575611 38.218789 
L 274.388874 37.637879 
L 275.202137 37.249859 
L 276.0154 37.055625 
L 276.828663 37.055625 
L 277.641926 37.249859 
L 278.455188 37.637879 
L 279.268451 38.218789 
L 280.081714 38.99125 
L 280.894977 39.953485 
L 282.521503 42.438045 
L 284.148029 45.649871 
L 285.774554 49.560072 
L 287.40108 54.133962 
L 289.027606 59.331653 
L 290.654132 65.108718 
L 293.09392 74.754255 
L 295.533709 85.419237 
L 298.786761 100.905609 
L 302.853075 121.673479 
L 316.678544 193.871316 
L 319.931596 209.436623 
L 323.184647 224.030762 
L 326.437699 237.549664 
L 329.690751 249.937288 
L 332.130539 258.475009 
L 334.570328 266.37297 
L 337.010117 273.645645 
L 339.449905 280.314302 
L 341.889694 286.405406 
L 344.329483 291.949187 
L 346.769271 296.978382 
L 349.20906 301.527166 
L 351.648849 305.630251 
L 354.088637 309.322166 
L 356.528426 312.636672 
L 358.968215 315.60633 
L 361.408003 318.262174 
L 363.847792 320.633491 
L 366.287581 322.747685 
L 368.727369 324.630211 
L 371.980421 326.820188 
L 375.233472 328.69019 
L 378.486524 330.284728 
L 381.739575 331.642859 
L 385.80589 333.059523 
L 389.872204 334.216399 
L 393.938519 335.160629 
L 398.818096 336.067361 
L 404.510936 336.880535 
L 411.017039 337.567355 
L 418.336405 338.117094 
L 427.282297 338.569789 
L 439.481241 338.943591 
L 455.746498 339.202154 
L 479.331122 339.358849 
L 479.331122 339.358849 
" clip-path="url(#p2912ee7542)" style="fill: none; stroke: #0173b2; stroke-width: 1.5; stroke-linecap: round"/>
   </g>
   <g id="patch_3">
    <path d="M 53.222031 354.575625 
L 53.222031 21.935625 
" style="fill: none; stroke: #ffffff; stroke-width: 1.25; stroke-linejoin: miter; stroke-linecap: square"/>
   </g>
   <g id="patch_4">
    <path d="M 499.622031 354.575625 
L 499.622031 21.935625 
" style="fill: none; stroke: #ffffff; stroke-width: 1.25; stroke-linejoin: miter; stroke-linecap: square"/>
   </g>
   <g id="patch_5">
    <path d="M 53.222031 354.575625 
L 499.622031 354.575625 
" style="fill: none; stroke: #ffffff; stroke-width: 1.25; stroke-linejoin: miter; stroke-linecap: square"/>
   </g>
   <g id="patch_6">
    <path d="M 53.222031 21.935625 
L 499.622031 21.935625 
" style="fill: none; stroke: #ffffff; stroke-width: 1.25; stroke-linejoin: miter; stroke-linecap: square"/>
   </g>
   <g id="text_19">
    <!-- -T -->
    <g style="fill: #262626" transform="translate(185.789304 308.280668) scale(0.12 -0.12)">
     <defs>
      <path id="ArialMT-54" d="M 1659 0 
L 1659 4041 
L 150 4041 
L 150 4581 
L 3781 4581 
L 3781 4041 
L 2266 4041 
L 2266 0 
L 1659 0 
z
" transform="scale(0.015625)"/>
     </defs>
     <use xlink:href="#ArialMT-2d"/>
     <use xlink:href="#ArialMT-54" x="33.300781"/>
    </g>
   </g>
   <g id="text_20">
    <!-- +T -->
    <g style="fill: #262626" transform="translate(353.527486 308.280668) scale(0.12 -0.12)">
     <defs>
      <path id="ArialMT-2b" d="M 1603 741 
L 1603 1997 
L 356 1997 
L 356 2522 
L 1603 2522 
L 1603 3769 
L 2134 3769 
L 2134 2522 
L 3381 2522 
L 3381 1997 
L 2134 1997 
L 2134 741 
L 1603 741 
z
" transform="scale(0.015625)"/>
     </defs>
     <use xlink:href="#ArialMT-2b"/>
     <use xlink:href="#ArialMT-54" x="58.398438"/>
    </g>
   </g>
   <g id="text_21">
    <!-- t-Distribution with 9 Degrees of Freedom -->
    <g style="fill: #262626" transform="translate(168.719219 15.935625) scale(0.12 -0.12)">
     <defs>
      <path id="ArialMT-77" d="M 1034 0 
L 19 3319 
L 600 3319 
L 1128 1403 
L 1325 691 
Q 1338 744 1497 1375 
L 2025 3319 
L 2603 3319 
L 3100 1394 
L 3266 759 
L 3456 1400 
L 4025 3319 
L 4572 3319 
L 3534 0 
L 2950 0 
L 2422 1988 
L 2294 2553 
L 1622 0 
L 1034 0 
z
" transform="scale(0.015625)"/>
      <path id="ArialMT-68" d="M 422 0 
L 422 4581 
L 984 4581 
L 984 2938 
Q 1378 3394 1978 3394 
Q 2347 3394 2619 3248 
Q 2891 3103 3008 2847 
Q 3125 2591 3125 2103 
L 3125 0 
L 2563 0 
L 2563 2103 
Q 2563 2525 2380 2717 
Q 2197 2909 1863 2909 
Q 1613 2909 1392 2779 
Q 1172 2650 1078 2428 
Q 984 2206 984 1816 
L 984 0 
L 422 0 
z
" transform="scale(0.015625)"/>
      <path id="ArialMT-39" d="M 350 1059 
L 891 1109 
Q 959 728 1153 556 
Q 1347 384 1650 384 
Q 1909 384 2104 503 
Q 2300 622 2425 820 
Q 2550 1019 2634 1356 
Q 2719 1694 2719 2044 
Q 2719 2081 2716 2156 
Q 2547 1888 2255 1720 
Q 1963 1553 1622 1553 
Q 1053 1553 659 1965 
Q 266 2378 266 3053 
Q 266 3750 677 4175 
Q 1088 4600 1706 4600 
Q 2153 4600 2523 4359 
Q 2894 4119 3086 3673 
Q 3278 3228 3278 2384 
Q 3278 1506 3087 986 
Q 2897 466 2520 194 
Q 2144 -78 1638 -78 
Q 1100 -78 759 220 
Q 419 519 350 1059 
z
M 2653 3081 
Q 2653 3566 2395 3850 
Q 2138 4134 1775 4134 
Q 1400 4134 1122 3828 
Q 844 3522 844 3034 
Q 844 2597 1108 2323 
Q 1372 2050 1759 2050 
Q 2150 2050 2401 2323 
Q 2653 2597 2653 3081 
z
" transform="scale(0.015625)"/>
      <path id="ArialMT-67" d="M 319 -275 
L 866 -356 
Q 900 -609 1056 -725 
Q 1266 -881 1628 -881 
Q 2019 -881 2231 -725 
Q 2444 -569 2519 -288 
Q 2563 -116 2559 434 
Q 2191 0 1641 0 
Q 956 0 581 494 
Q 206 988 206 1678 
Q 206 2153 378 2554 
Q 550 2956 876 3175 
Q 1203 3394 1644 3394 
Q 2231 3394 2613 2919 
L 2613 3319 
L 3131 3319 
L 3131 450 
Q 3131 -325 2973 -648 
Q 2816 -972 2473 -1159 
Q 2131 -1347 1631 -1347 
Q 1038 -1347 672 -1080 
Q 306 -813 319 -275 
z
M 784 1719 
Q 784 1066 1043 766 
Q 1303 466 1694 466 
Q 2081 466 2343 764 
Q 2606 1063 2606 1700 
Q 2606 2309 2336 2618 
Q 2066 2928 1684 2928 
Q 1309 2928 1046 2623 
Q 784 2319 784 1719 
z
" transform="scale(0.015625)"/>
      <path id="ArialMT-66" d="M 556 0 
L 556 2881 
L 59 2881 
L 59 3319 
L 556 3319 
L 556 3672 
Q 556 4006 616 4169 
Q 697 4388 901 4523 
Q 1106 4659 1475 4659 
Q 1713 4659 2000 4603 
L 1916 4113 
Q 1741 4144 1584 4144 
Q 1328 4144 1222 4034 
Q 1116 3925 1116 3625 
L 1116 3319 
L 1763 3319 
L 1763 2881 
L 1116 2881 
L 1116 0 
L 556 0 
z
" transform="scale(0.015625)"/>
      <path id="ArialMT-46" d="M 525 0 
L 525 4581 
L 3616 4581 
L 3616 4041 
L 1131 4041 
L 1131 2622 
L 3281 2622 
L 3281 2081 
L 1131 2081 
L 1131 0 
L 525 0 
z
" transform="scale(0.015625)"/>
      <path id="ArialMT-64" d="M 2575 0 
L 2575 419 
Q 2259 -75 1647 -75 
Q 1250 -75 917 144 
Q 584 363 401 755 
Q 219 1147 219 1656 
Q 219 2153 384 2558 
Q 550 2963 881 3178 
Q 1213 3394 1622 3394 
Q 1922 3394 2156 3267 
Q 2391 3141 2538 2938 
L 2538 4581 
L 3097 4581 
L 3097 0 
L 2575 0 
z
M 797 1656 
Q 797 1019 1065 703 
Q 1334 388 1700 388 
Q 2069 388 2326 689 
Q 2584 991 2584 1609 
Q 2584 2291 2321 2609 
Q 2059 2928 1675 2928 
Q 1300 2928 1048 2622 
Q 797 2316 797 1656 
z
" transform="scale(0.015625)"/>
      <path id="ArialMT-6d" d="M 422 0 
L 422 3319 
L 925 3319 
L 925 2853 
Q 1081 3097 1340 3245 
Q 1600 3394 1931 3394 
Q 2300 3394 2536 3241 
Q 2772 3088 2869 2813 
Q 3263 3394 3894 3394 
Q 4388 3394 4653 3120 
Q 4919 2847 4919 2278 
L 4919 0 
L 4359 0 
L 4359 2091 
Q 4359 2428 4304 2576 
Q 4250 2725 4106 2815 
Q 3963 2906 3769 2906 
Q 3419 2906 3187 2673 
Q 2956 2441 2956 1928 
L 2956 0 
L 2394 0 
L 2394 2156 
Q 2394 2531 2256 2718 
Q 2119 2906 1806 2906 
Q 1569 2906 1367 2781 
Q 1166 2656 1075 2415 
Q 984 2175 984 1722 
L 984 0 
L 422 0 
z
" transform="scale(0.015625)"/>
     </defs>
     <use xlink:href="#ArialMT-74"/>
     <use xlink:href="#ArialMT-2d" x="27.783203"/>
     <use xlink:href="#ArialMT-44" x="61.083984"/>
     <use xlink:href="#ArialMT-69" x="133.300781"/>
     <use xlink:href="#ArialMT-73" x="155.517578"/>
     <use xlink:href="#ArialMT-74" x="205.517578"/>
     <use xlink:href="#ArialMT-72" x="233.300781"/>
     <use xlink:href="#ArialMT-69" x="266.601562"/>
     <use xlink:href="#ArialMT-62" x="288.818359"/>
     <use xlink:href="#ArialMT-75" x="344.433594"/>
     <use xlink:href="#ArialMT-74" x="400.048828"/>
     <use xlink:href="#ArialMT-69" x="427.832031"/>
     <use xlink:href="#ArialMT-6f" x="450.048828"/>
     <use xlink:href="#ArialMT-6e" x="505.664062"/>
     <use xlink:href="#ArialMT-20" x="561.279297"/>
     <use xlink:href="#ArialMT-77" x="589.0625"/>
     <use xlink:href="#ArialMT-69" x="661.279297"/>
     <use xlink:href="#ArialMT-74" x="683.496094"/>
     <use xlink:href="#ArialMT-68" x="711.279297"/>
     <use xlink:href="#ArialMT-20" x="766.894531"/>
     <use xlink:href="#ArialMT-39" x="794.677734"/>
     <use xlink:href="#ArialMT-20" x="850.292969"/>
     <use xlink:href="#ArialMT-44" x="878.076172"/>
     <use xlink:href="#ArialMT-65" x="950.292969"/>
     <use xlink:href="#ArialMT-67" x="1005.908203"/>
     <use xlink:href="#ArialMT-72" x="1061.523438"/>
     <use xlink:href="#ArialMT-65" x="1094.824219"/>
     <use xlink:href="#ArialMT-65" x="1150.439453"/>
     <use xlink:href="#ArialMT-73" x="1206.054688"/>
     <use xlink:href="#ArialMT-20" x="1256.054688"/>
     <use xlink:href="#ArialMT-6f" x="1283.837891"/>
     <use xlink:href="#ArialMT-66" x="1339.453125"/>
     <use xlink:href="#ArialMT-20" x="1367.236328"/>
     <use xlink:href="#ArialMT-46" x="1395.019531"/>
     <use xlink:href="#ArialMT-72" x="1456.103516"/>
     <use xlink:href="#ArialMT-65" x="1489.404297"/>
     <use xlink:href="#ArialMT-65" x="1545.019531"/>
     <use xlink:href="#ArialMT-64" x="1600.634766"/>
     <use xlink:href="#ArialMT-6f" x="1656.25"/>
     <use xlink:href="#ArialMT-6d" x="1711.865234"/>
    </g>
   </g>
  </g>
 </g>
 <defs>
  <clipPath id="p2912ee7542">
   <rect x="53.222031" y="21.935625" width="446.4" height="332.64"/>
  </clipPath>
 </defs>
</svg>