<?xml version="1.0" encoding="utf-8" standalone="no"?>
<!DOCTYPE svg PUBLIC "-//W3C//DTD SVG 1.1//EN"
  "http://www.w3.org/Graphics/SVG/1.1/DTD/svg11.dtd">
<svg xmlns:xlink="http://www.w3.org/1999/xlink" width="652.249531pt" height="366.599844pt" viewBox="0 0 652.249531 366.599844" xmlns="http://www.w3.org/2000/svg" version="1.1">
 <metadata>
  <rdf:RDF xmlns:dc="http://purl.org/dc/elements/1.1/" xmlns:cc="http://creativecommons.org/ns#" xmlns:rdf="http://www.w3.org/1999/02/22-rdf-syntax-ns#">
   <cc:Work>
    <dc:type rdf:resource="http://purl.org/dc/dcmitype/StillImage"/>
    <dc:date>2023-06-17T10:54:33.103247</dc:date>
    <dc:format>image/svg+xml</dc:format>
    <dc:creator>
     <cc:Agent>
      <dc:title>Matplotlib v3.7.1, https://matplotlib.org/</dc:title>
     </cc:Agent>
    </dc:creator>
   </cc:Work>
  </rdf:RDF>
 </metadata>
 <defs>
  <style type="text/css">*{stroke-linejoin: round; stroke-linecap: butt}</style>
 </defs>
 <g id="figure_1">
  <g id="patch_1">
   <path d="M 0 366.599844 
L 652.249531 366.599844 
L 652.249531 0 
L 0 0 
z
" style="fill: #ffffff"/>
  </g>
  <g id="axes_1">
   <g id="patch_2">
    <path d="M 50.025469 339.84 
L 608.025469 339.84 
L 608.025469 7.2 
L 50.025469 7.2 
z
" style="fill: #eaeaf2"/>
   </g>
   <g id="matplotlib.axis_1">
    <g id="xtick_1">
     <g id="line2d_1">
      <path d="M 98.035209 339.84 
L 98.035209 7.2 
" clip-path="url(#pe0f8798012)" style="fill: none; stroke: #ffffff; stroke-linecap: round"/>
     </g>
     <g id="text_1">
      <!-- 60 -->
      <g style="fill: #262626" transform="translate(91.918178 357.213594) scale(0.11 -0.11)">
       <defs>
        <path id="ArialMT-36" d="M 3184 3459 
L 2625 3416 
Q 2550 3747 2413 3897 
Q 2184 4138 1850 4138 
Q 1581 4138 1378 3988 
Q 1113 3794 959 3422 
Q 806 3050 800 2363 
Q 1003 2672 1297 2822 
Q 1591 2972 1913 2972 
Q 2475 2972 2870 2558 
Q 3266 2144 3266 1488 
Q 3266 1056 3080 686 
Q 2894 316 2569 119 
Q 2244 -78 1831 -78 
Q 1128 -78 684 439 
Q 241 956 241 2144 
Q 241 3472 731 4075 
Q 1159 4600 1884 4600 
Q 2425 4600 2770 4297 
Q 3116 3994 3184 3459 
z
M 888 1484 
Q 888 1194 1011 928 
Q 1134 663 1356 523 
Q 1578 384 1822 384 
Q 2178 384 2434 671 
Q 2691 959 2691 1453 
Q 2691 1928 2437 2201 
Q 2184 2475 1800 2475 
Q 1419 2475 1153 2201 
Q 888 1928 888 1484 
z
" transform="scale(0.015625)"/>
        <path id="ArialMT-30" d="M 266 2259 
Q 266 3072 433 3567 
Q 600 4063 929 4331 
Q 1259 4600 1759 4600 
Q 2128 4600 2406 4451 
Q 2684 4303 2865 4023 
Q 3047 3744 3150 3342 
Q 3253 2941 3253 2259 
Q 3253 1453 3087 958 
Q 2922 463 2592 192 
Q 2263 -78 1759 -78 
Q 1097 -78 719 397 
Q 266 969 266 2259 
z
M 844 2259 
Q 844 1131 1108 757 
Q 1372 384 1759 384 
Q 2147 384 2411 759 
Q 2675 1134 2675 2259 
Q 2675 3391 2411 3762 
Q 2147 4134 1753 4134 
Q 1366 4134 1134 3806 
Q 844 3388 844 2259 
z
" transform="scale(0.015625)"/>
       </defs>
       <use xlink:href="#ArialMT-36"/>
       <use xlink:href="#ArialMT-30" x="55.615234"/>
      </g>
     </g>
    </g>
    <g id="xtick_2">
     <g id="line2d_2">
      <path d="M 188.619625 339.84 
L 188.619625 7.2 
" clip-path="url(#pe0f8798012)" style="fill: none; stroke: #ffffff; stroke-linecap: round"/>
     </g>
     <g id="text_2">
      <!-- 80 -->
      <g style="fill: #262626" transform="translate(182.502593 357.213594) scale(0.11 -0.11)">
       <defs>
        <path id="ArialMT-38" d="M 1131 2484 
Q 781 2613 612 2850 
Q 444 3088 444 3419 
Q 444 3919 803 4259 
Q 1163 4600 1759 4600 
Q 2359 4600 2725 4251 
Q 3091 3903 3091 3403 
Q 3091 3084 2923 2848 
Q 2756 2613 2416 2484 
Q 2838 2347 3058 2040 
Q 3278 1734 3278 1309 
Q 3278 722 2862 322 
Q 2447 -78 1769 -78 
Q 1091 -78 675 323 
Q 259 725 259 1325 
Q 259 1772 486 2073 
Q 713 2375 1131 2484 
z
M 1019 3438 
Q 1019 3113 1228 2906 
Q 1438 2700 1772 2700 
Q 2097 2700 2305 2904 
Q 2513 3109 2513 3406 
Q 2513 3716 2298 3927 
Q 2084 4138 1766 4138 
Q 1444 4138 1231 3931 
Q 1019 3725 1019 3438 
z
M 838 1322 
Q 838 1081 952 856 
Q 1066 631 1291 507 
Q 1516 384 1775 384 
Q 2178 384 2440 643 
Q 2703 903 2703 1303 
Q 2703 1709 2433 1975 
Q 2163 2241 1756 2241 
Q 1359 2241 1098 1978 
Q 838 1716 838 1322 
z
" transform="scale(0.015625)"/>
       </defs>
       <use xlink:href="#ArialMT-38"/>
       <use xlink:href="#ArialMT-30" x="55.615234"/>
      </g>
     </g>
    </g>
    <g id="xtick_3">
     <g id="line2d_3">
      <path d="M 279.20404 339.84 
L 279.20404 7.2 
" clip-path="url(#pe0f8798012)" style="fill: none; stroke: #ffffff; stroke-linecap: round"/>
     </g>
     <g id="text_3">
      <!-- 100 -->
      <g style="fill: #262626" transform="translate(270.028493 357.213594) scale(0.11 -0.11)">
       <defs>
        <path id="ArialMT-31" d="M 2384 0 
L 1822 0 
L 1822 3584 
Q 1619 3391 1289 3197 
Q 959 3003 697 2906 
L 697 3450 
Q 1169 3672 1522 3987 
Q 1875 4303 2022 4600 
L 2384 4600 
L 2384 0 
z
" transform="scale(0.015625)"/>
       </defs>
       <use xlink:href="#ArialMT-31"/>
       <use xlink:href="#ArialMT-30" x="55.615234"/>
       <use xlink:href="#ArialMT-30" x="111.230469"/>
      </g>
     </g>
    </g>
    <g id="xtick_4">
     <g id="line2d_4">
      <path d="M 369.788456 339.84 
L 369.788456 7.2 
" clip-path="url(#pe0f8798012)" style="fill: none; stroke: #ffffff; stroke-linecap: round"/>
     </g>
     <g id="text_4">
      <!-- 120 -->
      <g style="fill: #262626" transform="translate(360.612909 357.213594) scale(0.11 -0.11)">
       <defs>
        <path id="ArialMT-32" d="M 3222 541 
L 3222 0 
L 194 0 
Q 188 203 259 391 
Q 375 700 629 1000 
Q 884 1300 1366 1694 
Q 2113 2306 2375 2664 
Q 2638 3022 2638 3341 
Q 2638 3675 2398 3904 
Q 2159 4134 1775 4134 
Q 1369 4134 1125 3890 
Q 881 3647 878 3216 
L 300 3275 
Q 359 3922 746 4261 
Q 1134 4600 1788 4600 
Q 2447 4600 2831 4234 
Q 3216 3869 3216 3328 
Q 3216 3053 3103 2787 
Q 2991 2522 2730 2228 
Q 2469 1934 1863 1422 
Q 1356 997 1212 845 
Q 1069 694 975 541 
L 3222 541 
z
" transform="scale(0.015625)"/>
       </defs>
       <use xlink:href="#ArialMT-31"/>
       <use xlink:href="#ArialMT-32" x="55.615234"/>
       <use xlink:href="#ArialMT-30" x="111.230469"/>
      </g>
     </g>
    </g>
    <g id="xtick_5">
     <g id="line2d_5">
      <path d="M 460.372871 339.84 
L 460.372871 7.2 
" clip-path="url(#pe0f8798012)" style="fill: none; stroke: #ffffff; stroke-linecap: round"/>
     </g>
     <g id="text_5">
      <!-- 140 -->
      <g style="fill: #262626" transform="translate(451.197324 357.213594) scale(0.11 -0.11)">
       <defs>
        <path id="ArialMT-34" d="M 2069 0 
L 2069 1097 
L 81 1097 
L 81 1613 
L 2172 4581 
L 2631 4581 
L 2631 1613 
L 3250 1613 
L 3250 1097 
L 2631 1097 
L 2631 0 
L 2069 0 
z
M 2069 1613 
L 2069 3678 
L 634 1613 
L 2069 1613 
z
" transform="scale(0.015625)"/>
       </defs>
       <use xlink:href="#ArialMT-31"/>
       <use xlink:href="#ArialMT-34" x="55.615234"/>
       <use xlink:href="#ArialMT-30" x="111.230469"/>
      </g>
     </g>
    </g>
    <g id="xtick_6">
     <g id="line2d_6">
      <path d="M 550.957287 339.84 
L 550.957287 7.2 
" clip-path="url(#pe0f8798012)" style="fill: none; stroke: #ffffff; stroke-linecap: round"/>
     </g>
     <g id="text_6">
      <!-- 160 -->
      <g style="fill: #262626" transform="translate(541.78174 357.213594) scale(0.11 -0.11)">
       <use xlink:href="#ArialMT-31"/>
       <use xlink:href="#ArialMT-36" x="55.615234"/>
       <use xlink:href="#ArialMT-30" x="111.230469"/>
      </g>
     </g>
    </g>
   </g>
   <g id="matplotlib.axis_2">
    <g id="ytick_1">
     <g id="line2d_7">
      <path d="M 50.025469 339.84 
L 608.025469 339.84 
" clip-path="url(#pe0f8798012)" style="fill: none; stroke: #ffffff; stroke-linecap: round"/>
     </g>
     <g id="line2d_8">
      <defs>
       <path id="mfa85923f12" d="M 0 0 
L -6 0 
" style="stroke: #262626; stroke-width: 1.25"/>
      </defs>
      <g>
       <use xlink:href="#mfa85923f12" x="50.025469" y="339.84" style="fill: #262626; stroke: #262626; stroke-width: 1.25"/>
      </g>
     </g>
     <g id="text_7">
      <!-- 0 -->
      <g style="fill: #262626" transform="translate(34.408438 343.776797) scale(0.11 -0.11)">
       <use xlink:href="#ArialMT-30"/>
      </g>
     </g>
    </g>
    <g id="ytick_2">
     <g id="line2d_9">
      <path d="M 50.025469 300.680544 
L 608.025469 300.680544 
" clip-path="url(#pe0f8798012)" style="fill: none; stroke: #ffffff; stroke-linecap: round"/>
     </g>
     <g id="line2d_10">
      <g>
       <use xlink:href="#mfa85923f12" x="50.025469" y="300.680544" style="fill: #262626; stroke: #262626; stroke-width: 1.25"/>
      </g>
     </g>
     <g id="text_8">
      <!-- 100 -->
      <g style="fill: #262626" transform="translate(22.174375 304.617341) scale(0.11 -0.11)">
       <use xlink:href="#ArialMT-31"/>
       <use xlink:href="#ArialMT-30" x="55.615234"/>
       <use xlink:href="#ArialMT-30" x="111.230469"/>
      </g>
     </g>
    </g>
    <g id="ytick_3">
     <g id="line2d_11">
      <path d="M 50.025469 261.521088 
L 608.025469 261.521088 
" clip-path="url(#pe0f8798012)" style="fill: none; stroke: #ffffff; stroke-linecap: round"/>
     </g>
     <g id="line2d_12">
      <g>
       <use xlink:href="#mfa85923f12" x="50.025469" y="261.521088" style="fill: #262626; stroke: #262626; stroke-width: 1.25"/>
      </g>
     </g>
     <g id="text_9">
      <!-- 200 -->
      <g style="fill: #262626" transform="translate(22.174375 265.457885) scale(0.11 -0.11)">
       <use xlink:href="#ArialMT-32"/>
       <use xlink:href="#ArialMT-30" x="55.615234"/>
       <use xlink:href="#ArialMT-30" x="111.230469"/>
      </g>
     </g>
    </g>
    <g id="ytick_4">
     <g id="line2d_13">
      <path d="M 50.025469 222.361632 
L 608.025469 222.361632 
" clip-path="url(#pe0f8798012)" style="fill: none; stroke: #ffffff; stroke-linecap: round"/>
     </g>
     <g id="line2d_14">
      <g>
       <use xlink:href="#mfa85923f12" x="50.025469" y="222.361632" style="fill: #262626; stroke: #262626; stroke-width: 1.25"/>
      </g>
     </g>
     <g id="text_10">
      <!-- 300 -->
      <g style="fill: #262626" transform="translate(22.174375 226.298429) scale(0.11 -0.11)">
       <defs>
        <path id="ArialMT-33" d="M 269 1209 
L 831 1284 
Q 928 806 1161 595 
Q 1394 384 1728 384 
Q 2125 384 2398 659 
Q 2672 934 2672 1341 
Q 2672 1728 2419 1979 
Q 2166 2231 1775 2231 
Q 1616 2231 1378 2169 
L 1441 2663 
Q 1497 2656 1531 2656 
Q 1891 2656 2178 2843 
Q 2466 3031 2466 3422 
Q 2466 3731 2256 3934 
Q 2047 4138 1716 4138 
Q 1388 4138 1169 3931 
Q 950 3725 888 3313 
L 325 3413 
Q 428 3978 793 4289 
Q 1159 4600 1703 4600 
Q 2078 4600 2393 4439 
Q 2709 4278 2876 4000 
Q 3044 3722 3044 3409 
Q 3044 3113 2884 2869 
Q 2725 2625 2413 2481 
Q 2819 2388 3044 2092 
Q 3269 1797 3269 1353 
Q 3269 753 2831 336 
Q 2394 -81 1725 -81 
Q 1122 -81 723 278 
Q 325 638 269 1209 
z
" transform="scale(0.015625)"/>
       </defs>
       <use xlink:href="#ArialMT-33"/>
       <use xlink:href="#ArialMT-30" x="55.615234"/>
       <use xlink:href="#ArialMT-30" x="111.230469"/>
      </g>
     </g>
    </g>
    <g id="ytick_5">
     <g id="line2d_15">
      <path d="M 50.025469 183.202176 
L 608.025469 183.202176 
" clip-path="url(#pe0f8798012)" style="fill: none; stroke: #ffffff; stroke-linecap: round"/>
     </g>
     <g id="line2d_16">
      <g>
       <use xlink:href="#mfa85923f12" x="50.025469" y="183.202176" style="fill: #262626; stroke: #262626; stroke-width: 1.25"/>
      </g>
     </g>
     <g id="text_11">
      <!-- 400 -->
      <g style="fill: #262626" transform="translate(22.174375 187.138972) scale(0.11 -0.11)">
       <use xlink:href="#ArialMT-34"/>
       <use xlink:href="#ArialMT-30" x="55.615234"/>
       <use xlink:href="#ArialMT-30" x="111.230469"/>
      </g>
     </g>
    </g>
    <g id="ytick_6">
     <g id="line2d_17">
      <path d="M 50.025469 144.042719 
L 608.025469 144.042719 
" clip-path="url(#pe0f8798012)" style="fill: none; stroke: #ffffff; stroke-linecap: round"/>
     </g>
     <g id="line2d_18">
      <g>
       <use xlink:href="#mfa85923f12" x="50.025469" y="144.042719" style="fill: #262626; stroke: #262626; stroke-width: 1.25"/>
      </g>
     </g>
     <g id="text_12">
      <!-- 500 -->
      <g style="fill: #262626" transform="translate(22.174375 147.979516) scale(0.11 -0.11)">
       <defs>
        <path id="ArialMT-35" d="M 266 1200 
L 856 1250 
Q 922 819 1161 601 
Q 1400 384 1738 384 
Q 2144 384 2425 690 
Q 2706 997 2706 1503 
Q 2706 1984 2436 2262 
Q 2166 2541 1728 2541 
Q 1456 2541 1237 2417 
Q 1019 2294 894 2097 
L 366 2166 
L 809 4519 
L 3088 4519 
L 3088 3981 
L 1259 3981 
L 1013 2750 
Q 1425 3038 1878 3038 
Q 2478 3038 2890 2622 
Q 3303 2206 3303 1553 
Q 3303 931 2941 478 
Q 2500 -78 1738 -78 
Q 1113 -78 717 272 
Q 322 622 266 1200 
z
" transform="scale(0.015625)"/>
       </defs>
       <use xlink:href="#ArialMT-35"/>
       <use xlink:href="#ArialMT-30" x="55.615234"/>
       <use xlink:href="#ArialMT-30" x="111.230469"/>
      </g>
     </g>
    </g>
    <g id="ytick_7">
     <g id="line2d_19">
      <path d="M 50.025469 104.883263 
L 608.025469 104.883263 
" clip-path="url(#pe0f8798012)" style="fill: none; stroke: #ffffff; stroke-linecap: round"/>
     </g>
     <g id="line2d_20">
      <g>
       <use xlink:href="#mfa85923f12" x="50.025469" y="104.883263" style="fill: #262626; stroke: #262626; stroke-width: 1.25"/>
      </g>
     </g>
     <g id="text_13">
      <!-- 600 -->
      <g style="fill: #262626" transform="translate(22.174375 108.82006) scale(0.11 -0.11)">
       <use xlink:href="#ArialMT-36"/>
       <use xlink:href="#ArialMT-30" x="55.615234"/>
       <use xlink:href="#ArialMT-30" x="111.230469"/>
      </g>
     </g>
    </g>
    <g id="ytick_8">
     <g id="line2d_21">
      <path d="M 50.025469 65.723807 
L 608.025469 65.723807 
" clip-path="url(#pe0f8798012)" style="fill: none; stroke: #ffffff; stroke-linecap: round"/>
     </g>
     <g id="line2d_22">
      <g>
       <use xlink:href="#mfa85923f12" x="50.025469" y="65.723807" style="fill: #262626; stroke: #262626; stroke-width: 1.25"/>
      </g>
     </g>
     <g id="text_14">
      <!-- 700 -->
      <g style="fill: #262626" transform="translate(22.174375 69.660604) scale(0.11 -0.11)">
       <defs>
        <path id="ArialMT-37" d="M 303 3981 
L 303 4522 
L 3269 4522 
L 3269 4084 
Q 2831 3619 2401 2847 
Q 1972 2075 1738 1259 
Q 1569 684 1522 0 
L 944 0 
Q 953 541 1156 1306 
Q 1359 2072 1739 2783 
Q 2119 3494 2547 3981 
L 303 3981 
z
" transform="scale(0.015625)"/>
       </defs>
       <use xlink:href="#ArialMT-37"/>
       <use xlink:href="#ArialMT-30" x="55.615234"/>
       <use xlink:href="#ArialMT-30" x="111.230469"/>
      </g>
     </g>
    </g>
    <g id="ytick_9">
     <g id="line2d_23">
      <path d="M 50.025469 26.564351 
L 608.025469 26.564351 
" clip-path="url(#pe0f8798012)" style="fill: none; stroke: #ffffff; stroke-linecap: round"/>
     </g>
     <g id="line2d_24">
      <g>
       <use xlink:href="#mfa85923f12" x="50.025469" y="26.564351" style="fill: #262626; stroke: #262626; stroke-width: 1.25"/>
      </g>
     </g>
     <g id="text_15">
      <!-- 800 -->
      <g style="fill: #262626" transform="translate(22.174375 30.501148) scale(0.11 -0.11)">
       <use xlink:href="#ArialMT-38"/>
       <use xlink:href="#ArialMT-30" x="55.615234"/>
       <use xlink:href="#ArialMT-30" x="111.230469"/>
      </g>
     </g>
    </g>
    <g id="text_16">
     <!-- Count -->
     <g style="fill: #262626" transform="translate(15.789375 189.529688) rotate(-90) scale(0.12 -0.12)">
      <defs>
       <path id="ArialMT-43" d="M 3763 1606 
L 4369 1453 
Q 4178 706 3683 314 
Q 3188 -78 2472 -78 
Q 1731 -78 1267 223 
Q 803 525 561 1097 
Q 319 1669 319 2325 
Q 319 3041 592 3573 
Q 866 4106 1370 4382 
Q 1875 4659 2481 4659 
Q 3169 4659 3637 4309 
Q 4106 3959 4291 3325 
L 3694 3184 
Q 3534 3684 3231 3912 
Q 2928 4141 2469 4141 
Q 1941 4141 1586 3887 
Q 1231 3634 1087 3207 
Q 944 2781 944 2328 
Q 944 1744 1114 1308 
Q 1284 872 1643 656 
Q 2003 441 2422 441 
Q 2931 441 3284 734 
Q 3638 1028 3763 1606 
z
" transform="scale(0.015625)"/>
       <path id="ArialMT-6f" d="M 213 1659 
Q 213 2581 725 3025 
Q 1153 3394 1769 3394 
Q 2453 3394 2887 2945 
Q 3322 2497 3322 1706 
Q 3322 1066 3130 698 
Q 2938 331 2570 128 
Q 2203 -75 1769 -75 
Q 1072 -75 642 372 
Q 213 819 213 1659 
z
M 791 1659 
Q 791 1022 1069 705 
Q 1347 388 1769 388 
Q 2188 388 2466 706 
Q 2744 1025 2744 1678 
Q 2744 2294 2464 2611 
Q 2184 2928 1769 2928 
Q 1347 2928 1069 2612 
Q 791 2297 791 1659 
z
" transform="scale(0.015625)"/>
       <path id="ArialMT-75" d="M 2597 0 
L 2597 488 
Q 2209 -75 1544 -75 
Q 1250 -75 995 37 
Q 741 150 617 320 
Q 494 491 444 738 
Q 409 903 409 1263 
L 409 3319 
L 972 3319 
L 972 1478 
Q 972 1038 1006 884 
Q 1059 663 1231 536 
Q 1403 409 1656 409 
Q 1909 409 2131 539 
Q 2353 669 2445 892 
Q 2538 1116 2538 1541 
L 2538 3319 
L 3100 3319 
L 3100 0 
L 2597 0 
z
" transform="scale(0.015625)"/>
       <path id="ArialMT-6e" d="M 422 0 
L 422 3319 
L 928 3319 
L 928 2847 
Q 1294 3394 1984 3394 
Q 2284 3394 2536 3286 
Q 2788 3178 2913 3003 
Q 3038 2828 3088 2588 
Q 3119 2431 3119 2041 
L 3119 0 
L 2556 0 
L 2556 2019 
Q 2556 2363 2490 2533 
Q 2425 2703 2258 2804 
Q 2091 2906 1866 2906 
Q 1506 2906 1245 2678 
Q 984 2450 984 1813 
L 984 0 
L 422 0 
z
" transform="scale(0.015625)"/>
       <path id="ArialMT-74" d="M 1650 503 
L 1731 6 
Q 1494 -44 1306 -44 
Q 1000 -44 831 53 
Q 663 150 594 308 
Q 525 466 525 972 
L 525 2881 
L 113 2881 
L 113 3319 
L 525 3319 
L 525 4141 
L 1084 4478 
L 1084 3319 
L 1650 3319 
L 1650 2881 
L 1084 2881 
L 1084 941 
Q 1084 700 1114 631 
Q 1144 563 1211 522 
Q 1278 481 1403 481 
Q 1497 481 1650 503 
z
" transform="scale(0.015625)"/>
      </defs>
      <use xlink:href="#ArialMT-43"/>
      <use xlink:href="#ArialMT-6f" x="72.216797"/>
      <use xlink:href="#ArialMT-75" x="127.832031"/>
      <use xlink:href="#ArialMT-6e" x="183.447266"/>
      <use xlink:href="#ArialMT-74" x="239.0625"/>
     </g>
    </g>
   </g>
   <g id="patch_3">
    <path d="M 215.794949 339.84 
L 221.19005 339.84 
L 221.19005 339.448405 
L 215.794949 339.448405 
z
" clip-path="url(#pe0f8798012)" style="fill: #0173b2; fill-opacity: 0.75; stroke: #ffffff; stroke-width: 0.745989; stroke-linejoin: miter"/>
   </g>
   <g id="patch_4">
    <path d="M 221.19005 339.84 
L 226.585152 339.84 
L 226.585152 337.490433 
L 221.19005 337.490433 
z
" clip-path="url(#pe0f8798012)" style="fill: #0173b2; fill-opacity: 0.75; stroke: #ffffff; stroke-width: 0.745989; stroke-linejoin: miter"/>
   </g>
   <g id="patch_5">
    <path d="M 226.585152 339.84 
L 231.980253 339.84 
L 231.980253 339.448405 
L 226.585152 339.448405 
z
" clip-path="url(#pe0f8798012)" style="fill: #0173b2; fill-opacity: 0.75; stroke: #ffffff; stroke-width: 0.745989; stroke-linejoin: miter"/>
   </g>
   <g id="patch_6">
    <path d="M 231.980253 339.84 
L 237.375354 339.84 
L 237.375354 335.924054 
L 231.980253 335.924054 
z
" clip-path="url(#pe0f8798012)" style="fill: #0173b2; fill-opacity: 0.75; stroke: #ffffff; stroke-width: 0.745989; stroke-linejoin: miter"/>
   </g>
   <g id="patch_7">
    <path d="M 237.375354 339.84 
L 242.770455 339.84 
L 242.770455 337.098838 
L 237.375354 337.098838 
z
" clip-path="url(#pe0f8798012)" style="fill: #0173b2; fill-opacity: 0.75; stroke: #ffffff; stroke-width: 0.745989; stroke-linejoin: miter"/>
   </g>
   <g id="patch_8">
    <path d="M 242.770455 339.84 
L 248.165557 339.84 
L 248.165557 332.399703 
L 242.770455 332.399703 
z
" clip-path="url(#pe0f8798012)" style="fill: #0173b2; fill-opacity: 0.75; stroke: #ffffff; stroke-width: 0.745989; stroke-linejoin: miter"/>
   </g>
   <g id="patch_9">
    <path d="M 248.165557 339.84 
L 253.560658 339.84 
L 253.560658 333.574487 
L 248.165557 333.574487 
z
" clip-path="url(#pe0f8798012)" style="fill: #0173b2; fill-opacity: 0.75; stroke: #ffffff; stroke-width: 0.745989; stroke-linejoin: miter"/>
   </g>
   <g id="patch_10">
    <path d="M 253.560658 339.84 
L 258.955759 339.84 
L 258.955759 332.008109 
L 253.560658 332.008109 
z
" clip-path="url(#pe0f8798012)" style="fill: #0173b2; fill-opacity: 0.75; stroke: #ffffff; stroke-width: 0.745989; stroke-linejoin: miter"/>
   </g>
   <g id="patch_11">
    <path d="M 258.955759 339.84 
L 264.35086 339.84 
L 264.35086 325.742596 
L 258.955759 325.742596 
z
" clip-path="url(#pe0f8798012)" style="fill: #0173b2; fill-opacity: 0.75; stroke: #ffffff; stroke-width: 0.745989; stroke-linejoin: miter"/>
   </g>
   <g id="patch_12">
    <path d="M 264.35086 339.84 
L 269.745961 339.84 
L 269.745961 320.651867 
L 264.35086 320.651867 
z
" clip-path="url(#pe0f8798012)" style="fill: #0173b2; fill-opacity: 0.75; stroke: #ffffff; stroke-width: 0.745989; stroke-linejoin: miter"/>
   </g>
   <g id="patch_13">
    <path d="M 269.745961 339.84 
L 275.141063 339.84 
L 275.141063 285.799951 
L 269.745961 285.799951 
z
" clip-path="url(#pe0f8798012)" style="fill: #0173b2; fill-opacity: 0.75; stroke: #ffffff; stroke-width: 0.745989; stroke-linejoin: miter"/>
   </g>
   <g id="patch_14">
    <path d="M 275.141063 339.84 
L 280.536164 339.84 
L 280.536164 299.897355 
L 275.141063 299.897355 
z
" clip-path="url(#pe0f8798012)" style="fill: #0173b2; fill-opacity: 0.75; stroke: #ffffff; stroke-width: 0.745989; stroke-linejoin: miter"/>
   </g>
   <g id="patch_15">
    <path d="M 280.536164 339.84 
L 285.931265 339.84 
L 285.931265 293.240247 
L 280.536164 293.240247 
z
" clip-path="url(#pe0f8798012)" style="fill: #0173b2; fill-opacity: 0.75; stroke: #ffffff; stroke-width: 0.745989; stroke-linejoin: miter"/>
   </g>
   <g id="patch_16">
    <path d="M 285.931265 339.84 
L 291.326366 339.84 
L 291.326366 285.799951 
L 285.931265 285.799951 
z
" clip-path="url(#pe0f8798012)" style="fill: #0173b2; fill-opacity: 0.75; stroke: #ffffff; stroke-width: 0.745989; stroke-linejoin: miter"/>
   </g>
   <g id="patch_17">
    <path d="M 291.326366 339.84 
L 296.721468 339.84 
L 296.721468 281.100816 
L 291.326366 281.100816 
z
" clip-path="url(#pe0f8798012)" style="fill: #0173b2; fill-opacity: 0.75; stroke: #ffffff; stroke-width: 0.745989; stroke-linejoin: miter"/>
   </g>
   <g id="patch_18">
    <path d="M 296.721468 339.84 
L 302.116569 339.84 
L 302.116569 176.545068 
L 296.721468 176.545068 
z
" clip-path="url(#pe0f8798012)" style="fill: #0173b2; fill-opacity: 0.75; stroke: #ffffff; stroke-width: 0.745989; stroke-linejoin: miter"/>
   </g>
   <g id="patch_19">
    <path d="M 302.116569 339.84 
L 307.51167 339.84 
L 307.51167 240.374981 
L 302.116569 240.374981 
z
" clip-path="url(#pe0f8798012)" style="fill: #0173b2; fill-opacity: 0.75; stroke: #ffffff; stroke-width: 0.745989; stroke-linejoin: miter"/>
   </g>
   <g id="patch_20">
    <path d="M 307.51167 339.84 
L 312.906771 339.84 
L 312.906771 243.116143 
L 307.51167 243.116143 
z
" clip-path="url(#pe0f8798012)" style="fill: #0173b2; fill-opacity: 0.75; stroke: #ffffff; stroke-width: 0.745989; stroke-linejoin: miter"/>
   </g>
   <g id="patch_21">
    <path d="M 312.906771 339.84 
L 318.301872 339.84 
L 318.301872 228.627145 
L 312.906771 228.627145 
z
" clip-path="url(#pe0f8798012)" style="fill: #0173b2; fill-opacity: 0.75; stroke: #ffffff; stroke-width: 0.745989; stroke-linejoin: miter"/>
   </g>
   <g id="patch_22">
    <path d="M 318.301872 339.84 
L 323.696974 339.84 
L 323.696974 203.956687 
L 318.301872 203.956687 
z
" clip-path="url(#pe0f8798012)" style="fill: #0173b2; fill-opacity: 0.75; stroke: #ffffff; stroke-width: 0.745989; stroke-linejoin: miter"/>
   </g>
   <g id="patch_23">
    <path d="M 323.696974 339.84 
L 329.092075 339.84 
L 329.092075 70.031347 
L 323.696974 70.031347 
z
" clip-path="url(#pe0f8798012)" style="fill: #0173b2; fill-opacity: 0.75; stroke: #ffffff; stroke-width: 0.745989; stroke-linejoin: miter"/>
   </g>
   <g id="patch_24">
    <path d="M 329.092075 339.84 
L 334.487176 339.84 
L 334.487176 192.600445 
L 329.092075 192.600445 
z
" clip-path="url(#pe0f8798012)" style="fill: #0173b2; fill-opacity: 0.75; stroke: #ffffff; stroke-width: 0.745989; stroke-linejoin: miter"/>
   </g>
   <g id="patch_25">
    <path d="M 334.487176 339.84 
L 339.882277 339.84 
L 339.882277 184.768554 
L 334.487176 184.768554 
z
" clip-path="url(#pe0f8798012)" style="fill: #0173b2; fill-opacity: 0.75; stroke: #ffffff; stroke-width: 0.745989; stroke-linejoin: miter"/>
   </g>
   <g id="patch_26">
    <path d="M 339.882277 339.84 
L 345.277379 339.84 
L 345.277379 184.768554 
L 339.882277 184.768554 
z
" clip-path="url(#pe0f8798012)" style="fill: #0173b2; fill-opacity: 0.75; stroke: #ffffff; stroke-width: 0.745989; stroke-linejoin: miter"/>
   </g>
   <g id="patch_27">
    <path d="M 345.277379 339.84 
L 350.67248 339.84 
L 350.67248 190.642472 
L 345.277379 190.642472 
z
" clip-path="url(#pe0f8798012)" style="fill: #0173b2; fill-opacity: 0.75; stroke: #ffffff; stroke-width: 0.745989; stroke-linejoin: miter"/>
   </g>
   <g id="patch_28">
    <path d="M 350.67248 339.84 
L 356.067581 339.84 
L 356.067581 183.985365 
L 350.67248 183.985365 
z
" clip-path="url(#pe0f8798012)" style="fill: #0173b2; fill-opacity: 0.75; stroke: #ffffff; stroke-width: 0.745989; stroke-linejoin: miter"/>
   </g>
   <g id="patch_29">
    <path d="M 356.067581 339.84 
L 361.462682 339.84 
L 361.462682 23.04 
L 356.067581 23.04 
z
" clip-path="url(#pe0f8798012)" style="fill: #0173b2; fill-opacity: 0.75; stroke: #ffffff; stroke-width: 0.745989; stroke-linejoin: miter"/>
   </g>
   <g id="patch_30">
    <path d="M 361.462682 339.84 
L 366.857783 339.84 
L 366.857783 186.726527 
L 361.462682 186.726527 
z
" clip-path="url(#pe0f8798012)" style="fill: #0173b2; fill-opacity: 0.75; stroke: #ffffff; stroke-width: 0.745989; stroke-linejoin: miter"/>
   </g>
   <g id="patch_31">
    <path d="M 366.857783 339.84 
L 372.252885 339.84 
L 372.252885 202.390309 
L 366.857783 202.390309 
z
" clip-path="url(#pe0f8798012)" style="fill: #0173b2; fill-opacity: 0.75; stroke: #ffffff; stroke-width: 0.745989; stroke-linejoin: miter"/>
   </g>
   <g id="patch_32">
    <path d="M 372.252885 339.84 
L 377.647986 339.84 
L 377.647986 201.998714 
L 372.252885 201.998714 
z
" clip-path="url(#pe0f8798012)" style="fill: #0173b2; fill-opacity: 0.75; stroke: #ffffff; stroke-width: 0.745989; stroke-linejoin: miter"/>
   </g>
   <g id="patch_33">
    <path d="M 377.647986 339.84 
L 383.043087 339.84 
L 383.043087 217.662497 
L 377.647986 217.662497 
z
" clip-path="url(#pe0f8798012)" style="fill: #0173b2; fill-opacity: 0.75; stroke: #ffffff; stroke-width: 0.745989; stroke-linejoin: miter"/>
   </g>
   <g id="patch_34">
    <path d="M 383.043087 339.84 
L 388.438188 339.84 
L 388.438188 109.973993 
L 383.043087 109.973993 
z
" clip-path="url(#pe0f8798012)" style="fill: #0173b2; fill-opacity: 0.75; stroke: #ffffff; stroke-width: 0.745989; stroke-linejoin: miter"/>
   </g>
   <g id="patch_35">
    <path d="M 388.438188 339.84 
L 393.83329 339.84 
L 393.83329 241.94136 
L 388.438188 241.94136 
z
" clip-path="url(#pe0f8798012)" style="fill: #0173b2; fill-opacity: 0.75; stroke: #ffffff; stroke-width: 0.745989; stroke-linejoin: miter"/>
   </g>
   <g id="patch_36">
    <path d="M 393.83329 339.84 
L 399.228391 339.84 
L 399.228391 245.465711 
L 393.83329 245.465711 
z
" clip-path="url(#pe0f8798012)" style="fill: #0173b2; fill-opacity: 0.75; stroke: #ffffff; stroke-width: 0.745989; stroke-linejoin: miter"/>
   </g>
   <g id="patch_37">
    <path d="M 399.228391 339.84 
L 404.623492 339.84 
L 404.623492 248.206873 
L 399.228391 248.206873 
z
" clip-path="url(#pe0f8798012)" style="fill: #0173b2; fill-opacity: 0.75; stroke: #ffffff; stroke-width: 0.745989; stroke-linejoin: miter"/>
   </g>
   <g id="patch_38">
    <path d="M 404.623492 339.84 
L 410.018593 339.84 
L 410.018593 269.352979 
L 404.623492 269.352979 
z
" clip-path="url(#pe0f8798012)" style="fill: #0173b2; fill-opacity: 0.75; stroke: #ffffff; stroke-width: 0.745989; stroke-linejoin: miter"/>
   </g>
   <g id="patch_39">
    <path d="M 410.018593 339.84 
L 415.413694 339.84 
L 415.413694 209.047417 
L 410.018593 209.047417 
z
" clip-path="url(#pe0f8798012)" style="fill: #0173b2; fill-opacity: 0.75; stroke: #ffffff; stroke-width: 0.745989; stroke-linejoin: miter"/>
   </g>
   <g id="patch_40">
    <path d="M 415.413694 339.84 
L 420.808796 339.84 
L 420.808796 283.058789 
L 415.413694 283.058789 
z
" clip-path="url(#pe0f8798012)" style="fill: #0173b2; fill-opacity: 0.75; stroke: #ffffff; stroke-width: 0.745989; stroke-linejoin: miter"/>
   </g>
   <g id="patch_41">
    <path d="M 420.808796 339.84 
L 426.203897 339.84 
L 426.203897 281.49241 
L 420.808796 281.49241 
z
" clip-path="url(#pe0f8798012)" style="fill: #0173b2; fill-opacity: 0.75; stroke: #ffffff; stroke-width: 0.745989; stroke-linejoin: miter"/>
   </g>
   <g id="patch_42">
    <path d="M 426.203897 339.84 
L 431.598998 339.84 
L 431.598998 305.771273 
L 426.203897 305.771273 
z
" clip-path="url(#pe0f8798012)" style="fill: #0173b2; fill-opacity: 0.75; stroke: #ffffff; stroke-width: 0.745989; stroke-linejoin: miter"/>
   </g>
   <g id="patch_43">
    <path d="M 431.598998 339.84 
L 436.994099 339.84 
L 436.994099 303.8133 
L 431.598998 303.8133 
z
" clip-path="url(#pe0f8798012)" style="fill: #0173b2; fill-opacity: 0.75; stroke: #ffffff; stroke-width: 0.745989; stroke-linejoin: miter"/>
   </g>
   <g id="patch_44">
    <path d="M 436.994099 339.84 
L 442.389201 339.84 
L 442.389201 284.233572 
L 436.994099 284.233572 
z
" clip-path="url(#pe0f8798012)" style="fill: #0173b2; fill-opacity: 0.75; stroke: #ffffff; stroke-width: 0.745989; stroke-linejoin: miter"/>
   </g>
   <g id="patch_45">
    <path d="M 442.389201 339.84 
L 447.784302 339.84 
L 447.784302 319.477083 
L 442.389201 319.477083 
z
" clip-path="url(#pe0f8798012)" style="fill: #0173b2; fill-opacity: 0.75; stroke: #ffffff; stroke-width: 0.745989; stroke-linejoin: miter"/>
   </g>
   <g id="patch_46">
    <path d="M 447.784302 339.84 
L 453.179403 339.84 
L 453.179403 318.693894 
L 447.784302 318.693894 
z
" clip-path="url(#pe0f8798012)" style="fill: #0173b2; fill-opacity: 0.75; stroke: #ffffff; stroke-width: 0.745989; stroke-linejoin: miter"/>
   </g>
   <g id="patch_47">
    <path d="M 453.179403 339.84 
L 458.574504 339.84 
L 458.574504 323.784623 
L 453.179403 323.784623 
z
" clip-path="url(#pe0f8798012)" style="fill: #0173b2; fill-opacity: 0.75; stroke: #ffffff; stroke-width: 0.745989; stroke-linejoin: miter"/>
   </g>
   <g id="patch_48">
    <path d="M 458.574504 339.84 
L 463.969605 339.84 
L 463.969605 326.13419 
L 458.574504 326.13419 
z
" clip-path="url(#pe0f8798012)" style="fill: #0173b2; fill-opacity: 0.75; stroke: #ffffff; stroke-width: 0.745989; stroke-linejoin: miter"/>
   </g>
   <g id="patch_49">
    <path d="M 463.969605 339.84 
L 469.364707 339.84 
L 469.364707 327.308974 
L 463.969605 327.308974 
z
" clip-path="url(#pe0f8798012)" style="fill: #0173b2; fill-opacity: 0.75; stroke: #ffffff; stroke-width: 0.745989; stroke-linejoin: miter"/>
   </g>
   <g id="patch_50">
    <path d="M 469.364707 339.84 
L 474.759808 339.84 
L 474.759808 322.609839 
L 469.364707 322.609839 
z
" clip-path="url(#pe0f8798012)" style="fill: #0173b2; fill-opacity: 0.75; stroke: #ffffff; stroke-width: 0.745989; stroke-linejoin: miter"/>
   </g>
   <g id="patch_51">
    <path d="M 474.759808 339.84 
L 480.154909 339.84 
L 480.154909 333.182892 
L 474.759808 333.182892 
z
" clip-path="url(#pe0f8798012)" style="fill: #0173b2; fill-opacity: 0.75; stroke: #ffffff; stroke-width: 0.745989; stroke-linejoin: miter"/>
   </g>
   <g id="patch_52">
    <path d="M 480.154909 339.84 
L 485.55001 339.84 
L 485.55001 334.357676 
L 480.154909 334.357676 
z
" clip-path="url(#pe0f8798012)" style="fill: #0173b2; fill-opacity: 0.75; stroke: #ffffff; stroke-width: 0.745989; stroke-linejoin: miter"/>
   </g>
   <g id="patch_53">
    <path d="M 485.55001 339.84 
L 490.945112 339.84 
L 490.945112 336.315649 
L 485.55001 336.315649 
z
" clip-path="url(#pe0f8798012)" style="fill: #0173b2; fill-opacity: 0.75; stroke: #ffffff; stroke-width: 0.745989; stroke-linejoin: miter"/>
   </g>
   <g id="patch_54">
    <path d="M 490.945112 339.84 
L 496.340213 339.84 
L 496.340213 335.53246 
L 490.945112 335.53246 
z
" clip-path="url(#pe0f8798012)" style="fill: #0173b2; fill-opacity: 0.75; stroke: #ffffff; stroke-width: 0.745989; stroke-linejoin: miter"/>
   </g>
   <g id="patch_55">
    <path d="M 496.340213 339.84 
L 501.735314 339.84 
L 501.735314 331.616514 
L 496.340213 331.616514 
z
" clip-path="url(#pe0f8798012)" style="fill: #0173b2; fill-opacity: 0.75; stroke: #ffffff; stroke-width: 0.745989; stroke-linejoin: miter"/>
   </g>
   <g id="patch_56">
    <path d="M 501.735314 339.84 
L 507.130415 339.84 
L 507.130415 339.056811 
L 501.735314 339.056811 
z
" clip-path="url(#pe0f8798012)" style="fill: #0173b2; fill-opacity: 0.75; stroke: #ffffff; stroke-width: 0.745989; stroke-linejoin: miter"/>
   </g>
   <g id="patch_57">
    <path d="M 507.130415 339.84 
L 512.525516 339.84 
L 512.525516 339.056811 
L 507.130415 339.056811 
z
" clip-path="url(#pe0f8798012)" style="fill: #0173b2; fill-opacity: 0.75; stroke: #ffffff; stroke-width: 0.745989; stroke-linejoin: miter"/>
   </g>
   <g id="patch_58">
    <path d="M 512.525516 339.84 
L 517.920618 339.84 
L 517.920618 339.448405 
L 512.525516 339.448405 
z
" clip-path="url(#pe0f8798012)" style="fill: #0173b2; fill-opacity: 0.75; stroke: #ffffff; stroke-width: 0.745989; stroke-linejoin: miter"/>
   </g>
   <g id="patch_59">
    <path d="M 517.920618 339.84 
L 523.315719 339.84 
L 523.315719 338.273622 
L 517.920618 338.273622 
z
" clip-path="url(#pe0f8798012)" style="fill: #0173b2; fill-opacity: 0.75; stroke: #ffffff; stroke-width: 0.745989; stroke-linejoin: miter"/>
   </g>
   <g id="patch_60">
    <path d="M 523.315719 339.84 
L 528.71082 339.84 
L 528.71082 339.056811 
L 523.315719 339.056811 
z
" clip-path="url(#pe0f8798012)" style="fill: #0173b2; fill-opacity: 0.75; stroke: #ffffff; stroke-width: 0.745989; stroke-linejoin: miter"/>
   </g>
   <g id="patch_61">
    <path d="M 528.71082 339.84 
L 534.105921 339.84 
L 534.105921 339.056811 
L 528.71082 339.056811 
z
" clip-path="url(#pe0f8798012)" style="fill: #0173b2; fill-opacity: 0.75; stroke: #ffffff; stroke-width: 0.745989; stroke-linejoin: miter"/>
   </g>
   <g id="patch_62">
    <path d="M 534.105921 339.84 
L 539.501023 339.84 
L 539.501023 339.84 
L 534.105921 339.84 
z
" clip-path="url(#pe0f8798012)" style="fill: #0173b2; fill-opacity: 0.75; stroke: #ffffff; stroke-width: 0.745989; stroke-linejoin: miter"/>
   </g>
   <g id="patch_63">
    <path d="M 539.501023 339.84 
L 544.896124 339.84 
L 544.896124 339.056811 
L 539.501023 339.056811 
z
" clip-path="url(#pe0f8798012)" style="fill: #0173b2; fill-opacity: 0.75; stroke: #ffffff; stroke-width: 0.745989; stroke-linejoin: miter"/>
   </g>
   <g id="patch_64">
    <path d="M 544.896124 339.84 
L 550.291225 339.84 
L 550.291225 339.84 
L 544.896124 339.84 
z
" clip-path="url(#pe0f8798012)" style="fill: #0173b2; fill-opacity: 0.75; stroke: #ffffff; stroke-width: 0.745989; stroke-linejoin: miter"/>
   </g>
   <g id="patch_65">
    <path d="M 550.291225 339.84 
L 555.686326 339.84 
L 555.686326 339.84 
L 550.291225 339.84 
z
" clip-path="url(#pe0f8798012)" style="fill: #0173b2; fill-opacity: 0.75; stroke: #ffffff; stroke-width: 0.745989; stroke-linejoin: miter"/>
   </g>
   <g id="patch_66">
    <path d="M 555.686326 339.84 
L 561.081427 339.84 
L 561.081427 339.84 
L 555.686326 339.84 
z
" clip-path="url(#pe0f8798012)" style="fill: #0173b2; fill-opacity: 0.75; stroke: #ffffff; stroke-width: 0.745989; stroke-linejoin: miter"/>
   </g>
   <g id="patch_67">
    <path d="M 561.081427 339.84 
L 566.476529 339.84 
L 566.476529 339.84 
L 561.081427 339.84 
z
" clip-path="url(#pe0f8798012)" style="fill: #0173b2; fill-opacity: 0.75; stroke: #ffffff; stroke-width: 0.745989; stroke-linejoin: miter"/>
   </g>
   <g id="patch_68">
    <path d="M 566.476529 339.84 
L 571.87163 339.84 
L 571.87163 339.84 
L 566.476529 339.84 
z
" clip-path="url(#pe0f8798012)" style="fill: #0173b2; fill-opacity: 0.75; stroke: #ffffff; stroke-width: 0.745989; stroke-linejoin: miter"/>
   </g>
   <g id="patch_69">
    <path d="M 571.87163 339.84 
L 577.266731 339.84 
L 577.266731 339.84 
L 571.87163 339.84 
z
" clip-path="url(#pe0f8798012)" style="fill: #0173b2; fill-opacity: 0.75; stroke: #ffffff; stroke-width: 0.745989; stroke-linejoin: miter"/>
   </g>
   <g id="patch_70">
    <path d="M 577.266731 339.84 
L 582.661832 339.84 
L 582.661832 339.448405 
L 577.266731 339.448405 
z
" clip-path="url(#pe0f8798012)" style="fill: #0173b2; fill-opacity: 0.75; stroke: #ffffff; stroke-width: 0.745989; stroke-linejoin: miter"/>
   </g>
   <g id="patch_71">
    <path d="M 50.025469 339.84 
L 50.025469 7.2 
" style="fill: none; stroke: #ffffff; stroke-width: 1.25; stroke-linejoin: miter; stroke-linecap: square"/>
   </g>
   <g id="patch_72">
    <path d="M 608.025469 339.84 
L 608.025469 7.2 
" style="fill: none; stroke: #ffffff; stroke-width: 1.25; stroke-linejoin: miter; stroke-linecap: square"/>
   </g>
   <g id="patch_73">
    <path d="M 50.025469 339.84 
L 608.025469 339.84 
" style="fill: none; stroke: #ffffff; stroke-width: 1.25; stroke-linejoin: miter; stroke-linecap: square"/>
   </g>
   <g id="patch_74">
    <path d="M 50.025469 7.2 
L 608.025469 7.2 
" style="fill: none; stroke: #ffffff; stroke-width: 1.25; stroke-linejoin: miter; stroke-linecap: square"/>
   </g>
  </g>
  <g id="axes_2">
   <g id="matplotlib.axis_3">
    <g id="ytick_10">
     <g id="line2d_25">
      <path d="M 50.025469 328.118677 
L 608.025469 328.118677 
" clip-path="url(#pe0f8798012)" style="fill: none; stroke: #ffffff; stroke-linecap: round"/>
     </g>
     <g id="line2d_26">
      <defs>
       <path id="m1763153227" d="M 0 0 
L 6 0 
" style="stroke: #262626; stroke-width: 1.25"/>
      </defs>
      <g>
       <use xlink:href="#m1763153227" x="608.025469" y="328.118677" style="fill: #262626; stroke: #262626; stroke-width: 1.25"/>
      </g>
     </g>
     <g id="text_17">
      <!-- 0.000 -->
      <g style="fill: #262626" transform="translate(617.525469 332.055473) scale(0.11 -0.11)">
       <defs>
        <path id="ArialMT-2e" d="M 581 0 
L 581 641 
L 1222 641 
L 1222 0 
L 581 0 
z
" transform="scale(0.015625)"/>
       </defs>
       <use xlink:href="#ArialMT-30"/>
       <use xlink:href="#ArialMT-2e" x="55.615234"/>
       <use xlink:href="#ArialMT-30" x="83.398438"/>
       <use xlink:href="#ArialMT-30" x="139.013672"/>
       <use xlink:href="#ArialMT-30" x="194.628906"/>
      </g>
     </g>
    </g>
    <g id="ytick_11">
     <g id="line2d_27">
      <path d="M 50.025469 270.603004 
L 608.025469 270.603004 
" clip-path="url(#pe0f8798012)" style="fill: none; stroke: #ffffff; stroke-linecap: round"/>
     </g>
     <g id="line2d_28">
      <g>
       <use xlink:href="#m1763153227" x="608.025469" y="270.603004" style="fill: #262626; stroke: #262626; stroke-width: 1.25"/>
      </g>
     </g>
     <g id="text_18">
      <!-- 0.005 -->
      <g style="fill: #262626" transform="translate(617.525469 274.539801) scale(0.11 -0.11)">
       <use xlink:href="#ArialMT-30"/>
       <use xlink:href="#ArialMT-2e" x="55.615234"/>
       <use xlink:href="#ArialMT-30" x="83.398438"/>
       <use xlink:href="#ArialMT-30" x="139.013672"/>
       <use xlink:href="#ArialMT-35" x="194.628906"/>
      </g>
     </g>
    </g>
    <g id="ytick_12">
     <g id="line2d_29">
      <path d="M 50.025469 213.087332 
L 608.025469 213.087332 
" clip-path="url(#pe0f8798012)" style="fill: none; stroke: #ffffff; stroke-linecap: round"/>
     </g>
     <g id="line2d_30">
      <g>
       <use xlink:href="#m1763153227" x="608.025469" y="213.087332" style="fill: #262626; stroke: #262626; stroke-width: 1.25"/>
      </g>
     </g>
     <g id="text_19">
      <!-- 0.010 -->
      <g style="fill: #262626" transform="translate(617.525469 217.024129) scale(0.11 -0.11)">
       <use xlink:href="#ArialMT-30"/>
       <use xlink:href="#ArialMT-2e" x="55.615234"/>
       <use xlink:href="#ArialMT-30" x="83.398438"/>
       <use xlink:href="#ArialMT-31" x="139.013672"/>
       <use xlink:href="#ArialMT-30" x="194.628906"/>
      </g>
     </g>
    </g>
    <g id="ytick_13">
     <g id="line2d_31">
      <path d="M 50.025469 155.57166 
L 608.025469 155.57166 
" clip-path="url(#pe0f8798012)" style="fill: none; stroke: #ffffff; stroke-linecap: round"/>
     </g>
     <g id="line2d_32">
      <g>
       <use xlink:href="#m1763153227" x="608.025469" y="155.57166" style="fill: #262626; stroke: #262626; stroke-width: 1.25"/>
      </g>
     </g>
     <g id="text_20">
      <!-- 0.015 -->
      <g style="fill: #262626" transform="translate(617.525469 159.508457) scale(0.11 -0.11)">
       <use xlink:href="#ArialMT-30"/>
       <use xlink:href="#ArialMT-2e" x="55.615234"/>
       <use xlink:href="#ArialMT-30" x="83.398438"/>
       <use xlink:href="#ArialMT-31" x="139.013672"/>
       <use xlink:href="#ArialMT-35" x="194.628906"/>
      </g>
     </g>
    </g>
    <g id="ytick_14">
     <g id="line2d_33">
      <path d="M 50.025469 98.055988 
L 608.025469 98.055988 
" clip-path="url(#pe0f8798012)" style="fill: none; stroke: #ffffff; stroke-linecap: round"/>
     </g>
     <g id="line2d_34">
      <g>
       <use xlink:href="#m1763153227" x="608.025469" y="98.055988" style="fill: #262626; stroke: #262626; stroke-width: 1.25"/>
      </g>
     </g>
     <g id="text_21">
      <!-- 0.020 -->
      <g style="fill: #262626" transform="translate(617.525469 101.992785) scale(0.11 -0.11)">
       <use xlink:href="#ArialMT-30"/>
       <use xlink:href="#ArialMT-2e" x="55.615234"/>
       <use xlink:href="#ArialMT-30" x="83.398438"/>
       <use xlink:href="#ArialMT-32" x="139.013672"/>
       <use xlink:href="#ArialMT-30" x="194.628906"/>
      </g>
     </g>
    </g>
    <g id="ytick_15">
     <g id="line2d_35">
      <path d="M 50.025469 40.540316 
L 608.025469 40.540316 
" clip-path="url(#pe0f8798012)" style="fill: none; stroke: #ffffff; stroke-linecap: round"/>
     </g>
     <g id="line2d_36">
      <g>
       <use xlink:href="#m1763153227" x="608.025469" y="40.540316" style="fill: #262626; stroke: #262626; stroke-width: 1.25"/>
      </g>
     </g>
     <g id="text_22">
      <!-- 0.025 -->
      <g style="fill: #262626" transform="translate(617.525469 44.477113) scale(0.11 -0.11)">
       <use xlink:href="#ArialMT-30"/>
       <use xlink:href="#ArialMT-2e" x="55.615234"/>
       <use xlink:href="#ArialMT-30" x="83.398438"/>
       <use xlink:href="#ArialMT-32" x="139.013672"/>
       <use xlink:href="#ArialMT-35" x="194.628906"/>
      </g>
     </g>
    </g>
   </g>
   <g id="PolyCollection_1"/>
   <g id="line2d_37">
    <path d="M 75.389105 324.72 
L 79.506579 324.049797 
L 83.624052 323.265292 
L 87.741525 322.350755 
L 91.858999 321.289022 
L 95.976472 320.061499 
L 100.093946 318.648197 
L 104.211419 317.027803 
L 108.328893 315.177781 
L 112.446366 313.074524 
L 116.563839 310.69355 
L 120.681313 308.009749 
L 124.798786 304.997672 
L 128.91626 301.63189 
L 133.033733 297.88739 
L 137.151207 293.740028 
L 141.26868 289.167035 
L 145.386154 284.147558 
L 149.503627 278.663237 
L 153.6211 272.698818 
L 157.738574 266.242773 
L 161.856047 259.287928 
L 165.973521 251.832083 
L 170.090994 243.878601 
L 174.208468 235.436959 
L 178.325941 226.523243 
L 182.443414 217.160553 
L 186.560888 207.379333 
L 190.678361 197.217571 
L 194.795835 186.720889 
L 198.913308 175.942486 
L 203.030782 164.942934 
L 207.148255 153.78982 
L 211.265728 142.557225 
L 215.383202 131.325047 
L 219.500675 120.178165 
L 223.618149 109.205465 
L 227.735622 98.498718 
L 231.853096 88.151362 
L 235.970569 78.257177 
L 240.088043 68.908893 
L 244.205516 60.196766 
L 248.322989 52.207134 
L 252.440463 45.021002 
L 256.557936 38.712676 
L 260.67541 33.348491 
L 264.792883 28.985644 
L 268.910357 25.671185 
L 273.02783 23.441167 
L 277.145303 22.32 
L 281.262777 22.32 
L 285.38025 23.441167 
L 289.497724 25.671185 
L 293.615197 28.985644 
L 297.732671 33.348491 
L 301.850144 38.712676 
L 305.967618 45.021002 
L 310.085091 52.207134 
L 314.202564 60.196766 
L 318.320038 68.908893 
L 322.437511 78.257177 
L 326.554985 88.151362 
L 330.672458 98.498718 
L 334.789932 109.205465 
L 338.907405 120.178165 
L 343.024878 131.325047 
L 347.142352 142.557225 
L 351.259825 153.78982 
L 355.377299 164.942934 
L 359.494772 175.942486 
L 363.612246 186.720889 
L 367.729719 197.217571 
L 371.847192 207.379333 
L 375.964666 217.160553 
L 380.082139 226.523243 
L 384.199613 235.436959 
L 388.317086 243.878601 
L 392.43456 251.832083 
L 396.552033 259.287928 
L 400.669507 266.242773 
L 404.78698 272.698818 
L 408.904453 278.663237 
L 413.021927 284.147558 
L 417.1394 289.167035 
L 421.256874 293.740028 
L 425.374347 297.88739 
L 429.491821 301.63189 
L 433.609294 304.997672 
L 437.726767 308.009749 
L 441.844241 310.69355 
L 445.961714 313.074524 
L 450.079188 315.177781 
L 454.196661 317.027803 
L 458.314135 318.648197 
L 462.431608 320.061499 
L 466.549082 321.289022 
L 470.666555 322.350755 
L 474.784028 323.265292 
L 478.901502 324.049797 
L 483.018975 324.72 
" clip-path="url(#pe0f8798012)" style="fill: none; stroke: #000000; stroke-width: 1.5; stroke-linecap: round"/>
   </g>
   <g id="patch_75">
    <path d="M 50.025469 339.84 
L 50.025469 7.2 
" style="fill: none; stroke: #ffffff; stroke-width: 1.25; stroke-linejoin: miter; stroke-linecap: square"/>
   </g>
   <g id="patch_76">
    <path d="M 608.025469 339.84 
L 608.025469 7.2 
" style="fill: none; stroke: #ffffff; stroke-width: 1.25; stroke-linejoin: miter; stroke-linecap: square"/>
   </g>
   <g id="patch_77">
    <path d="M 50.025469 339.84 
L 608.025469 339.84 
" style="fill: none; stroke: #ffffff; stroke-width: 1.25; stroke-linejoin: miter; stroke-linecap: square"/>
   </g>
   <g id="patch_78">
    <path d="M 50.025469 7.2 
L 608.025469 7.2 
" style="fill: none; stroke: #ffffff; stroke-width: 1.25; stroke-linejoin: miter; stroke-linecap: square"/>
   </g>
  </g>
 </g>
 <defs>
  <clipPath id="pe0f8798012">
   <rect x="50.025469" y="7.2" width="558" height="332.64"/>
  </clipPath>
 </defs>
</svg>