<?xml version="1.0" encoding="utf-8" standalone="no"?>
<!DOCTYPE svg PUBLIC "-//W3C//DTD SVG 1.1//EN"
  "http://www.w3.org/Graphics/SVG/1.1/DTD/svg11.dtd">
<svg xmlns:xlink="http://www.w3.org/1999/xlink" width="615.541094pt" height="366.599844pt" viewBox="0 0 615.541094 366.599844" xmlns="http://www.w3.org/2000/svg" version="1.1">
 <metadata>
  <rdf:RDF xmlns:dc="http://purl.org/dc/elements/1.1/" xmlns:cc="http://creativecommons.org/ns#" xmlns:rdf="http://www.w3.org/1999/02/22-rdf-syntax-ns#">
   <cc:Work>
    <dc:type rdf:resource="http://purl.org/dc/dcmitype/StillImage"/>
    <dc:date>2023-06-17T10:46:33.854630</dc:date>
    <dc:format>image/svg+xml</dc:format>
    <dc:creator>
     <cc:Agent>
      <dc:title>Matplotlib v3.7.1, https://matplotlib.org/</dc:title>
     </cc:Agent>
    </dc:creator>
   </cc:Work>
  </rdf:RDF>
 </metadata>
 <defs>
  <style type="text/css">*{stroke-linejoin: round; stroke-linecap: butt}</style>
 </defs>
 <g id="figure_1">
  <g id="patch_1">
   <path d="M 0 366.599844 
L 615.541094 366.599844 
L 615.541094 0 
L 0 0 
z
" style="fill: #ffffff"/>
  </g>
  <g id="axes_1">
   <g id="patch_2">
    <path d="M 50.341094 339.84 
L 608.341094 339.84 
L 608.341094 7.2 
L 50.341094 7.2 
z
" style="fill: #eaeaf2"/>
   </g>
   <g id="matplotlib.axis_1">
    <g id="xtick_1">
     <g id="line2d_1">
      <path d="M 75.70473 339.84 
L 75.70473 7.2 
" clip-path="url(#p85968ccfba)" style="fill: none; stroke: #ffffff; stroke-linecap: round"/>
     </g>
     <g id="text_1">
      <!-- 0 -->
      <g style="fill: #262626" transform="translate(72.646214 357.213594) scale(0.11 -0.11)">
       <defs>
        <path id="ArialMT-30" d="M 266 2259 
Q 266 3072 433 3567 
Q 600 4063 929 4331 
Q 1259 4600 1759 4600 
Q 2128 4600 2406 4451 
Q 2684 4303 2865 4023 
Q 3047 3744 3150 3342 
Q 3253 2941 3253 2259 
Q 3253 1453 3087 958 
Q 2922 463 2592 192 
Q 2263 -78 1759 -78 
Q 1097 -78 719 397 
Q 266 969 266 2259 
z
M 844 2259 
Q 844 1131 1108 757 
Q 1372 384 1759 384 
Q 2147 384 2411 759 
Q 2675 1134 2675 2259 
Q 2675 3391 2411 3762 
Q 2147 4134 1753 4134 
Q 1366 4134 1134 3806 
Q 844 3388 844 2259 
z
" transform="scale(0.015625)"/>
       </defs>
       <use xlink:href="#ArialMT-30"/>
      </g>
     </g>
    </g>
    <g id="xtick_2">
     <g id="line2d_2">
      <path d="M 146.159276 339.84 
L 146.159276 7.2 
" clip-path="url(#p85968ccfba)" style="fill: none; stroke: #ffffff; stroke-linecap: round"/>
     </g>
     <g id="text_2">
      <!-- 50 -->
      <g style="fill: #262626" transform="translate(140.042244 357.213594) scale(0.11 -0.11)">
       <defs>
        <path id="ArialMT-35" d="M 266 1200 
L 856 1250 
Q 922 819 1161 601 
Q 1400 384 1738 384 
Q 2144 384 2425 690 
Q 2706 997 2706 1503 
Q 2706 1984 2436 2262 
Q 2166 2541 1728 2541 
Q 1456 2541 1237 2417 
Q 1019 2294 894 2097 
L 366 2166 
L 809 4519 
L 3088 4519 
L 3088 3981 
L 1259 3981 
L 1013 2750 
Q 1425 3038 1878 3038 
Q 2478 3038 2890 2622 
Q 3303 2206 3303 1553 
Q 3303 931 2941 478 
Q 2500 -78 1738 -78 
Q 1113 -78 717 272 
Q 322 622 266 1200 
z
" transform="scale(0.015625)"/>
       </defs>
       <use xlink:href="#ArialMT-35"/>
       <use xlink:href="#ArialMT-30" x="55.615234"/>
      </g>
     </g>
    </g>
    <g id="xtick_3">
     <g id="line2d_3">
      <path d="M 216.613821 339.84 
L 216.613821 7.2 
" clip-path="url(#p85968ccfba)" style="fill: none; stroke: #ffffff; stroke-linecap: round"/>
     </g>
     <g id="text_3">
      <!-- 100 -->
      <g style="fill: #262626" transform="translate(207.438274 357.213594) scale(0.11 -0.11)">
       <defs>
        <path id="ArialMT-31" d="M 2384 0 
L 1822 0 
L 1822 3584 
Q 1619 3391 1289 3197 
Q 959 3003 697 2906 
L 697 3450 
Q 1169 3672 1522 3987 
Q 1875 4303 2022 4600 
L 2384 4600 
L 2384 0 
z
" transform="scale(0.015625)"/>
       </defs>
       <use xlink:href="#ArialMT-31"/>
       <use xlink:href="#ArialMT-30" x="55.615234"/>
       <use xlink:href="#ArialMT-30" x="111.230469"/>
      </g>
     </g>
    </g>
    <g id="xtick_4">
     <g id="line2d_4">
      <path d="M 287.068366 339.84 
L 287.068366 7.2 
" clip-path="url(#p85968ccfba)" style="fill: none; stroke: #ffffff; stroke-linecap: round"/>
     </g>
     <g id="text_4">
      <!-- 150 -->
      <g style="fill: #262626" transform="translate(277.89282 357.213594) scale(0.11 -0.11)">
       <use xlink:href="#ArialMT-31"/>
       <use xlink:href="#ArialMT-35" x="55.615234"/>
       <use xlink:href="#ArialMT-30" x="111.230469"/>
      </g>
     </g>
    </g>
    <g id="xtick_5">
     <g id="line2d_5">
      <path d="M 357.522912 339.84 
L 357.522912 7.2 
" clip-path="url(#p85968ccfba)" style="fill: none; stroke: #ffffff; stroke-linecap: round"/>
     </g>
     <g id="text_5">
      <!-- 200 -->
      <g style="fill: #262626" transform="translate(348.347365 357.213594) scale(0.11 -0.11)">
       <defs>
        <path id="ArialMT-32" d="M 3222 541 
L 3222 0 
L 194 0 
Q 188 203 259 391 
Q 375 700 629 1000 
Q 884 1300 1366 1694 
Q 2113 2306 2375 2664 
Q 2638 3022 2638 3341 
Q 2638 3675 2398 3904 
Q 2159 4134 1775 4134 
Q 1369 4134 1125 3890 
Q 881 3647 878 3216 
L 300 3275 
Q 359 3922 746 4261 
Q 1134 4600 1788 4600 
Q 2447 4600 2831 4234 
Q 3216 3869 3216 3328 
Q 3216 3053 3103 2787 
Q 2991 2522 2730 2228 
Q 2469 1934 1863 1422 
Q 1356 997 1212 845 
Q 1069 694 975 541 
L 3222 541 
z
" transform="scale(0.015625)"/>
       </defs>
       <use xlink:href="#ArialMT-32"/>
       <use xlink:href="#ArialMT-30" x="55.615234"/>
       <use xlink:href="#ArialMT-30" x="111.230469"/>
      </g>
     </g>
    </g>
    <g id="xtick_6">
     <g id="line2d_6">
      <path d="M 427.977457 339.84 
L 427.977457 7.2 
" clip-path="url(#p85968ccfba)" style="fill: none; stroke: #ffffff; stroke-linecap: round"/>
     </g>
     <g id="text_6">
      <!-- 250 -->
      <g style="fill: #262626" transform="translate(418.801911 357.213594) scale(0.11 -0.11)">
       <use xlink:href="#ArialMT-32"/>
       <use xlink:href="#ArialMT-35" x="55.615234"/>
       <use xlink:href="#ArialMT-30" x="111.230469"/>
      </g>
     </g>
    </g>
    <g id="xtick_7">
     <g id="line2d_7">
      <path d="M 498.432003 339.84 
L 498.432003 7.2 
" clip-path="url(#p85968ccfba)" style="fill: none; stroke: #ffffff; stroke-linecap: round"/>
     </g>
     <g id="text_7">
      <!-- 300 -->
      <g style="fill: #262626" transform="translate(489.256456 357.213594) scale(0.11 -0.11)">
       <defs>
        <path id="ArialMT-33" d="M 269 1209 
L 831 1284 
Q 928 806 1161 595 
Q 1394 384 1728 384 
Q 2125 384 2398 659 
Q 2672 934 2672 1341 
Q 2672 1728 2419 1979 
Q 2166 2231 1775 2231 
Q 1616 2231 1378 2169 
L 1441 2663 
Q 1497 2656 1531 2656 
Q 1891 2656 2178 2843 
Q 2466 3031 2466 3422 
Q 2466 3731 2256 3934 
Q 2047 4138 1716 4138 
Q 1388 4138 1169 3931 
Q 950 3725 888 3313 
L 325 3413 
Q 428 3978 793 4289 
Q 1159 4600 1703 4600 
Q 2078 4600 2393 4439 
Q 2709 4278 2876 4000 
Q 3044 3722 3044 3409 
Q 3044 3113 2884 2869 
Q 2725 2625 2413 2481 
Q 2819 2388 3044 2092 
Q 3269 1797 3269 1353 
Q 3269 753 2831 336 
Q 2394 -81 1725 -81 
Q 1122 -81 723 278 
Q 325 638 269 1209 
z
" transform="scale(0.015625)"/>
       </defs>
       <use xlink:href="#ArialMT-33"/>
       <use xlink:href="#ArialMT-30" x="55.615234"/>
       <use xlink:href="#ArialMT-30" x="111.230469"/>
      </g>
     </g>
    </g>
    <g id="xtick_8">
     <g id="line2d_8">
      <path d="M 568.886548 339.84 
L 568.886548 7.2 
" clip-path="url(#p85968ccfba)" style="fill: none; stroke: #ffffff; stroke-linecap: round"/>
     </g>
     <g id="text_8">
      <!-- 350 -->
      <g style="fill: #262626" transform="translate(559.711001 357.213594) scale(0.11 -0.11)">
       <use xlink:href="#ArialMT-33"/>
       <use xlink:href="#ArialMT-35" x="55.615234"/>
       <use xlink:href="#ArialMT-30" x="111.230469"/>
      </g>
     </g>
    </g>
   </g>
   <g id="matplotlib.axis_2">
    <g id="ytick_1">
     <g id="line2d_9">
      <path d="M 50.341094 324.72 
L 608.341094 324.72 
" clip-path="url(#p85968ccfba)" style="fill: none; stroke: #ffffff; stroke-linecap: round"/>
     </g>
     <g id="text_9">
      <!-- 0.0000 -->
      <g style="fill: #262626" transform="translate(7.2 328.656797) scale(0.11 -0.11)">
       <defs>
        <path id="ArialMT-2e" d="M 581 0 
L 581 641 
L 1222 641 
L 1222 0 
L 581 0 
z
" transform="scale(0.015625)"/>
       </defs>
       <use xlink:href="#ArialMT-30"/>
       <use xlink:href="#ArialMT-2e" x="55.615234"/>
       <use xlink:href="#ArialMT-30" x="83.398438"/>
       <use xlink:href="#ArialMT-30" x="139.013672"/>
       <use xlink:href="#ArialMT-30" x="194.628906"/>
       <use xlink:href="#ArialMT-30" x="250.244141"/>
      </g>
     </g>
    </g>
    <g id="ytick_2">
     <g id="line2d_10">
      <path d="M 50.341094 270.288 
L 608.341094 270.288 
" clip-path="url(#p85968ccfba)" style="fill: none; stroke: #ffffff; stroke-linecap: round"/>
     </g>
     <g id="text_10">
      <!-- 0.0005 -->
      <g style="fill: #262626" transform="translate(7.2 274.224797) scale(0.11 -0.11)">
       <use xlink:href="#ArialMT-30"/>
       <use xlink:href="#ArialMT-2e" x="55.615234"/>
       <use xlink:href="#ArialMT-30" x="83.398438"/>
       <use xlink:href="#ArialMT-30" x="139.013672"/>
       <use xlink:href="#ArialMT-30" x="194.628906"/>
       <use xlink:href="#ArialMT-35" x="250.244141"/>
      </g>
     </g>
    </g>
    <g id="ytick_3">
     <g id="line2d_11">
      <path d="M 50.341094 215.856 
L 608.341094 215.856 
" clip-path="url(#p85968ccfba)" style="fill: none; stroke: #ffffff; stroke-linecap: round"/>
     </g>
     <g id="text_11">
      <!-- 0.0010 -->
      <g style="fill: #262626" transform="translate(7.2 219.792797) scale(0.11 -0.11)">
       <use xlink:href="#ArialMT-30"/>
       <use xlink:href="#ArialMT-2e" x="55.615234"/>
       <use xlink:href="#ArialMT-30" x="83.398438"/>
       <use xlink:href="#ArialMT-30" x="139.013672"/>
       <use xlink:href="#ArialMT-31" x="194.628906"/>
       <use xlink:href="#ArialMT-30" x="250.244141"/>
      </g>
     </g>
    </g>
    <g id="ytick_4">
     <g id="line2d_12">
      <path d="M 50.341094 161.424 
L 608.341094 161.424 
" clip-path="url(#p85968ccfba)" style="fill: none; stroke: #ffffff; stroke-linecap: round"/>
     </g>
     <g id="text_12">
      <!-- 0.0015 -->
      <g style="fill: #262626" transform="translate(7.2 165.360797) scale(0.11 -0.11)">
       <use xlink:href="#ArialMT-30"/>
       <use xlink:href="#ArialMT-2e" x="55.615234"/>
       <use xlink:href="#ArialMT-30" x="83.398438"/>
       <use xlink:href="#ArialMT-30" x="139.013672"/>
       <use xlink:href="#ArialMT-31" x="194.628906"/>
       <use xlink:href="#ArialMT-35" x="250.244141"/>
      </g>
     </g>
    </g>
    <g id="ytick_5">
     <g id="line2d_13">
      <path d="M 50.341094 106.992 
L 608.341094 106.992 
" clip-path="url(#p85968ccfba)" style="fill: none; stroke: #ffffff; stroke-linecap: round"/>
     </g>
     <g id="text_13">
      <!-- 0.0020 -->
      <g style="fill: #262626" transform="translate(7.2 110.928797) scale(0.11 -0.11)">
       <use xlink:href="#ArialMT-30"/>
       <use xlink:href="#ArialMT-2e" x="55.615234"/>
       <use xlink:href="#ArialMT-30" x="83.398438"/>
       <use xlink:href="#ArialMT-30" x="139.013672"/>
       <use xlink:href="#ArialMT-32" x="194.628906"/>
       <use xlink:href="#ArialMT-30" x="250.244141"/>
      </g>
     </g>
    </g>
    <g id="ytick_6">
     <g id="line2d_14">
      <path d="M 50.341094 52.56 
L 608.341094 52.56 
" clip-path="url(#p85968ccfba)" style="fill: none; stroke: #ffffff; stroke-linecap: round"/>
     </g>
     <g id="text_14">
      <!-- 0.0025 -->
      <g style="fill: #262626" transform="translate(7.2 56.496797) scale(0.11 -0.11)">
       <use xlink:href="#ArialMT-30"/>
       <use xlink:href="#ArialMT-2e" x="55.615234"/>
       <use xlink:href="#ArialMT-30" x="83.398438"/>
       <use xlink:href="#ArialMT-30" x="139.013672"/>
       <use xlink:href="#ArialMT-32" x="194.628906"/>
       <use xlink:href="#ArialMT-35" x="250.244141"/>
      </g>
     </g>
    </g>
   </g>
   <g id="PolyCollection_1">
    <defs>
     <path id="m3108054a21" d="M 287.449202 -41.879844 
L 287.449202 -344.279844 
L 287.956982 -344.279844 
L 288.464763 -344.279844 
L 288.972543 -344.279844 
L 289.480324 -344.279844 
L 289.988104 -344.279844 
L 290.495885 -344.279844 
L 291.003665 -344.279844 
L 291.511446 -344.279844 
L 292.019226 -344.279844 
L 292.527007 -344.279844 
L 293.034787 -344.279844 
L 293.542568 -344.279844 
L 294.050348 -344.279844 
L 294.558129 -344.279844 
L 295.065909 -344.279844 
L 295.57369 -344.279844 
L 296.08147 -344.279844 
L 296.589251 -344.279844 
L 297.097032 -344.279844 
L 297.604812 -344.279844 
L 298.112593 -344.279844 
L 298.620373 -344.279844 
L 299.128154 -344.279844 
L 299.635934 -344.279844 
L 300.143715 -344.279844 
L 300.651495 -344.279844 
L 301.159276 -344.279844 
L 301.667056 -344.279844 
L 302.174837 -344.279844 
L 302.682617 -344.279844 
L 303.190398 -344.279844 
L 303.698178 -344.279844 
L 304.205959 -344.279844 
L 304.713739 -344.279844 
L 305.22152 -344.279844 
L 305.7293 -344.279844 
L 306.237081 -344.279844 
L 306.744861 -344.279844 
L 307.252642 -344.279844 
L 307.760422 -344.279844 
L 308.268203 -344.279844 
L 308.775983 -344.279844 
L 309.283764 -344.279844 
L 309.791544 -344.279844 
L 310.299325 -344.279844 
L 310.807105 -344.279844 
L 311.314886 -344.279844 
L 311.822666 -344.279844 
L 312.330447 -344.279844 
L 312.838227 -344.279844 
L 313.346008 -344.279844 
L 313.853788 -344.279844 
L 314.361569 -344.279844 
L 314.869349 -344.279844 
L 315.37713 -344.279844 
L 315.88491 -344.279844 
L 316.392691 -344.279844 
L 316.900471 -344.279844 
L 317.408252 -344.279844 
L 317.916032 -344.279844 
L 318.423813 -344.279844 
L 318.931593 -344.279844 
L 319.439374 -344.279844 
L 319.947154 -344.279844 
L 320.454935 -344.279844 
L 320.962715 -344.279844 
L 321.470496 -344.279844 
L 321.978276 -344.279844 
L 322.486057 -344.279844 
L 322.993837 -344.279844 
L 323.501618 -344.279844 
L 324.009398 -344.279844 
L 324.517179 -344.279844 
L 325.024959 -344.279844 
L 325.53274 -344.279844 
L 326.04052 -344.279844 
L 326.548301 -344.279844 
L 327.056081 -344.279844 
L 327.563862 -344.279844 
L 328.071642 -344.279844 
L 328.579423 -344.279844 
L 329.087203 -344.279844 
L 329.594984 -344.279844 
L 330.102765 -344.279844 
L 330.610545 -344.279844 
L 331.118326 -344.279844 
L 331.626106 -344.279844 
L 332.133887 -344.279844 
L 332.641667 -344.279844 
L 333.149448 -344.279844 
L 333.657228 -344.279844 
L 334.165009 -344.279844 
L 334.672789 -344.279844 
L 335.18057 -344.279844 
L 335.68835 -344.279844 
L 336.196131 -344.279844 
L 336.703911 -344.279844 
L 337.211692 -344.279844 
L 337.719472 -344.279844 
L 338.227253 -344.279844 
L 338.735033 -344.279844 
L 339.242814 -344.279844 
L 339.750594 -344.279844 
L 340.258375 -344.279844 
L 340.766155 -344.279844 
L 341.273936 -344.279844 
L 341.781716 -344.279844 
L 342.289497 -344.279844 
L 342.797277 -344.279844 
L 343.305058 -344.279844 
L 343.812838 -344.279844 
L 344.320619 -344.279844 
L 344.828399 -344.279844 
L 345.33618 -344.279844 
L 345.84396 -344.279844 
L 346.351741 -344.279844 
L 346.859521 -344.279844 
L 347.367302 -344.279844 
L 347.875082 -344.279844 
L 348.382863 -344.279844 
L 348.890643 -344.279844 
L 349.398424 -344.279844 
L 349.906204 -344.279844 
L 350.413985 -344.279844 
L 350.921765 -344.279844 
L 351.429546 -344.279844 
L 351.937326 -344.279844 
L 352.445107 -344.279844 
L 352.952887 -344.279844 
L 353.460668 -344.279844 
L 353.968448 -344.279844 
L 354.476229 -344.279844 
L 354.984009 -344.279844 
L 355.49179 -344.279844 
L 355.99957 -344.279844 
L 356.507351 -344.279844 
L 357.015131 -344.279844 
L 357.522912 -344.279844 
L 358.030692 -344.279844 
L 358.538473 -344.279844 
L 359.046253 -344.279844 
L 359.554034 -344.279844 
L 360.061814 -344.279844 
L 360.569595 -344.279844 
L 361.077375 -344.279844 
L 361.585156 -344.279844 
L 362.092937 -344.279844 
L 362.600717 -344.279844 
L 363.108498 -344.279844 
L 363.616278 -344.279844 
L 364.124059 -344.279844 
L 364.631839 -344.279844 
L 365.13962 -344.279844 
L 365.6474 -344.279844 
L 366.155181 -344.279844 
L 366.662961 -344.279844 
L 367.170742 -344.279844 
L 367.678522 -344.279844 
L 368.186303 -344.279844 
L 368.694083 -344.279844 
L 369.201864 -344.279844 
L 369.709644 -344.279844 
L 370.217425 -344.279844 
L 370.725205 -344.279844 
L 371.232986 -344.279844 
L 371.740766 -344.279844 
L 372.248547 -344.279844 
L 372.756327 -344.279844 
L 373.264108 -344.279844 
L 373.771888 -344.279844 
L 374.279669 -344.279844 
L 374.787449 -344.279844 
L 375.29523 -344.279844 
L 375.80301 -344.279844 
L 376.310791 -344.279844 
L 376.818571 -344.279844 
L 377.326352 -344.279844 
L 377.834132 -344.279844 
L 378.341913 -344.279844 
L 378.849693 -344.279844 
L 379.357474 -344.279844 
L 379.865254 -344.279844 
L 380.373035 -344.279844 
L 380.880815 -344.279844 
L 381.388596 -344.279844 
L 381.896376 -344.279844 
L 382.404157 -344.279844 
L 382.911937 -344.279844 
L 383.419718 -344.279844 
L 383.927498 -344.279844 
L 384.435279 -344.279844 
L 384.943059 -344.279844 
L 385.45084 -344.279844 
L 385.95862 -344.279844 
L 386.466401 -344.279844 
L 386.974181 -344.279844 
L 387.481962 -344.279844 
L 387.989742 -344.279844 
L 388.497523 -344.279844 
L 389.005303 -344.279844 
L 389.513084 -344.279844 
L 390.020864 -344.279844 
L 390.528645 -344.279844 
L 391.036425 -344.279844 
L 391.544206 -344.279844 
L 392.051986 -344.279844 
L 392.559767 -344.279844 
L 393.067547 -344.279844 
L 393.575328 -344.279844 
L 394.083108 -344.279844 
L 394.590889 -344.279844 
L 395.09867 -344.279844 
L 395.60645 -344.279844 
L 396.114231 -344.279844 
L 396.622011 -344.279844 
L 397.129792 -344.279844 
L 397.637572 -344.279844 
L 398.145353 -344.279844 
L 398.653133 -344.279844 
L 399.160914 -344.279844 
L 399.668694 -344.279844 
L 400.176475 -344.279844 
L 400.684255 -344.279844 
L 401.192036 -344.279844 
L 401.699816 -344.279844 
L 402.207597 -344.279844 
L 402.715377 -344.279844 
L 403.223158 -344.279844 
L 403.730938 -344.279844 
L 404.238719 -344.279844 
L 404.746499 -344.279844 
L 405.25428 -344.279844 
L 405.76206 -344.279844 
L 406.269841 -344.279844 
L 406.777621 -344.279844 
L 407.285402 -344.279844 
L 407.793182 -344.279844 
L 408.300963 -344.279844 
L 408.808743 -344.279844 
L 409.316524 -344.279844 
L 409.824304 -344.279844 
L 410.332085 -344.279844 
L 410.839865 -344.279844 
L 411.347646 -344.279844 
L 411.855426 -344.279844 
L 412.363207 -344.279844 
L 412.870987 -344.279844 
L 413.378768 -344.279844 
L 413.886548 -344.279844 
L 414.394329 -344.279844 
L 414.902109 -344.279844 
L 415.40989 -344.279844 
L 415.91767 -344.279844 
L 416.425451 -344.279844 
L 416.933231 -344.279844 
L 417.441012 -344.279844 
L 417.948792 -344.279844 
L 418.456573 -344.279844 
L 418.964353 -344.279844 
L 419.472134 -344.279844 
L 419.979914 -344.279844 
L 420.487695 -344.279844 
L 420.995475 -344.279844 
L 421.503256 -344.279844 
L 422.011036 -344.279844 
L 422.518817 -344.279844 
L 423.026597 -344.279844 
L 423.534378 -344.279844 
L 424.042158 -344.279844 
L 424.549939 -344.279844 
L 425.057719 -344.279844 
L 425.5655 -344.279844 
L 426.07328 -344.279844 
L 426.581061 -344.279844 
L 427.088841 -344.279844 
L 427.596622 -344.279844 
L 427.596622 -41.879844 
L 427.596622 -41.879844 
L 427.088841 -41.879844 
L 426.581061 -41.879844 
L 426.07328 -41.879844 
L 425.5655 -41.879844 
L 425.057719 -41.879844 
L 424.549939 -41.879844 
L 424.042158 -41.879844 
L 423.534378 -41.879844 
L 423.026597 -41.879844 
L 422.518817 -41.879844 
L 422.011036 -41.879844 
L 421.503256 -41.879844 
L 420.995475 -41.879844 
L 420.487695 -41.879844 
L 419.979914 -41.879844 
L 419.472134 -41.879844 
L 418.964353 -41.879844 
L 418.456573 -41.879844 
L 417.948792 -41.879844 
L 417.441012 -41.879844 
L 416.933231 -41.879844 
L 416.425451 -41.879844 
L 415.91767 -41.879844 
L 415.40989 -41.879844 
L 414.902109 -41.879844 
L 414.394329 -41.879844 
L 413.886548 -41.879844 
L 413.378768 -41.879844 
L 412.870987 -41.879844 
L 412.363207 -41.879844 
L 411.855426 -41.879844 
L 411.347646 -41.879844 
L 410.839865 -41.879844 
L 410.332085 -41.879844 
L 409.824304 -41.879844 
L 409.316524 -41.879844 
L 408.808743 -41.879844 
L 408.300963 -41.879844 
L 407.793182 -41.879844 
L 407.285402 -41.879844 
L 406.777621 -41.879844 
L 406.269841 -41.879844 
L 405.76206 -41.879844 
L 405.25428 -41.879844 
L 404.746499 -41.879844 
L 404.238719 -41.879844 
L 403.730938 -41.879844 
L 403.223158 -41.879844 
L 402.715377 -41.879844 
L 402.207597 -41.879844 
L 401.699816 -41.879844 
L 401.192036 -41.879844 
L 400.684255 -41.879844 
L 400.176475 -41.879844 
L 399.668694 -41.879844 
L 399.160914 -41.879844 
L 398.653133 -41.879844 
L 398.145353 -41.879844 
L 397.637572 -41.879844 
L 397.129792 -41.879844 
L 396.622011 -41.879844 
L 396.114231 -41.879844 
L 395.60645 -41.879844 
L 395.09867 -41.879844 
L 394.590889 -41.879844 
L 394.083108 -41.879844 
L 393.575328 -41.879844 
L 393.067547 -41.879844 
L 392.559767 -41.879844 
L 392.051986 -41.879844 
L 391.544206 -41.879844 
L 391.036425 -41.879844 
L 390.528645 -41.879844 
L 390.020864 -41.879844 
L 389.513084 -41.879844 
L 389.005303 -41.879844 
L 388.497523 -41.879844 
L 387.989742 -41.879844 
L 387.481962 -41.879844 
L 386.974181 -41.879844 
L 386.466401 -41.879844 
L 385.95862 -41.879844 
L 385.45084 -41.879844 
L 384.943059 -41.879844 
L 384.435279 -41.879844 
L 383.927498 -41.879844 
L 383.419718 -41.879844 
L 382.911937 -41.879844 
L 382.404157 -41.879844 
L 381.896376 -41.879844 
L 381.388596 -41.879844 
L 380.880815 -41.879844 
L 380.373035 -41.879844 
L 379.865254 -41.879844 
L 379.357474 -41.879844 
L 378.849693 -41.879844 
L 378.341913 -41.879844 
L 377.834132 -41.879844 
L 377.326352 -41.879844 
L 376.818571 -41.879844 
L 376.310791 -41.879844 
L 375.80301 -41.879844 
L 375.29523 -41.879844 
L 374.787449 -41.879844 
L 374.279669 -41.879844 
L 373.771888 -41.879844 
L 373.264108 -41.879844 
L 372.756327 -41.879844 
L 372.248547 -41.879844 
L 371.740766 -41.879844 
L 371.232986 -41.879844 
L 370.725205 -41.879844 
L 370.217425 -41.879844 
L 369.709644 -41.879844 
L 369.201864 -41.879844 
L 368.694083 -41.879844 
L 368.186303 -41.879844 
L 367.678522 -41.879844 
L 367.170742 -41.879844 
L 366.662961 -41.879844 
L 366.155181 -41.879844 
L 365.6474 -41.879844 
L 365.13962 -41.879844 
L 364.631839 -41.879844 
L 364.124059 -41.879844 
L 363.616278 -41.879844 
L 363.108498 -41.879844 
L 362.600717 -41.879844 
L 362.092937 -41.879844 
L 361.585156 -41.879844 
L 361.077375 -41.879844 
L 360.569595 -41.879844 
L 360.061814 -41.879844 
L 359.554034 -41.879844 
L 359.046253 -41.879844 
L 358.538473 -41.879844 
L 358.030692 -41.879844 
L 357.522912 -41.879844 
L 357.015131 -41.879844 
L 356.507351 -41.879844 
L 355.99957 -41.879844 
L 355.49179 -41.879844 
L 354.984009 -41.879844 
L 354.476229 -41.879844 
L 353.968448 -41.879844 
L 353.460668 -41.879844 
L 352.952887 -41.879844 
L 352.445107 -41.879844 
L 351.937326 -41.879844 
L 351.429546 -41.879844 
L 350.921765 -41.879844 
L 350.413985 -41.879844 
L 349.906204 -41.879844 
L 349.398424 -41.879844 
L 348.890643 -41.879844 
L 348.382863 -41.879844 
L 347.875082 -41.879844 
L 347.367302 -41.879844 
L 346.859521 -41.879844 
L 346.351741 -41.879844 
L 345.84396 -41.879844 
L 345.33618 -41.879844 
L 344.828399 -41.879844 
L 344.320619 -41.879844 
L 343.812838 -41.879844 
L 343.305058 -41.879844 
L 342.797277 -41.879844 
L 342.289497 -41.879844 
L 341.781716 -41.879844 
L 341.273936 -41.879844 
L 340.766155 -41.879844 
L 340.258375 -41.879844 
L 339.750594 -41.879844 
L 339.242814 -41.879844 
L 338.735033 -41.879844 
L 338.227253 -41.879844 
L 337.719472 -41.879844 
L 337.211692 -41.879844 
L 336.703911 -41.879844 
L 336.196131 -41.879844 
L 335.68835 -41.879844 
L 335.18057 -41.879844 
L 334.672789 -41.879844 
L 334.165009 -41.879844 
L 333.657228 -41.879844 
L 333.149448 -41.879844 
L 332.641667 -41.879844 
L 332.133887 -41.879844 
L 331.626106 -41.879844 
L 331.118326 -41.879844 
L 330.610545 -41.879844 
L 330.102765 -41.879844 
L 329.594984 -41.879844 
L 329.087203 -41.879844 
L 328.579423 -41.879844 
L 328.071642 -41.879844 
L 327.563862 -41.879844 
L 327.056081 -41.879844 
L 326.548301 -41.879844 
L 326.04052 -41.879844 
L 325.53274 -41.879844 
L 325.024959 -41.879844 
L 324.517179 -41.879844 
L 324.009398 -41.879844 
L 323.501618 -41.879844 
L 322.993837 -41.879844 
L 322.486057 -41.879844 
L 321.978276 -41.879844 
L 321.470496 -41.879844 
L 320.962715 -41.879844 
L 320.454935 -41.879844 
L 319.947154 -41.879844 
L 319.439374 -41.879844 
L 318.931593 -41.879844 
L 318.423813 -41.879844 
L 317.916032 -41.879844 
L 317.408252 -41.879844 
L 316.900471 -41.879844 
L 316.392691 -41.879844 
L 315.88491 -41.879844 
L 315.37713 -41.879844 
L 314.869349 -41.879844 
L 314.361569 -41.879844 
L 313.853788 -41.879844 
L 313.346008 -41.879844 
L 312.838227 -41.879844 
L 312.330447 -41.879844 
L 311.822666 -41.879844 
L 311.314886 -41.879844 
L 310.807105 -41.879844 
L 310.299325 -41.879844 
L 309.791544 -41.879844 
L 309.283764 -41.879844 
L 308.775983 -41.879844 
L 308.268203 -41.879844 
L 307.760422 -41.879844 
L 307.252642 -41.879844 
L 306.744861 -41.879844 
L 306.237081 -41.879844 
L 305.7293 -41.879844 
L 305.22152 -41.879844 
L 304.713739 -41.879844 
L 304.205959 -41.879844 
L 303.698178 -41.879844 
L 303.190398 -41.879844 
L 302.682617 -41.879844 
L 302.174837 -41.879844 
L 301.667056 -41.879844 
L 301.159276 -41.879844 
L 300.651495 -41.879844 
L 300.143715 -41.879844 
L 299.635934 -41.879844 
L 299.128154 -41.879844 
L 298.620373 -41.879844 
L 298.112593 -41.879844 
L 297.604812 -41.879844 
L 297.097032 -41.879844 
L 296.589251 -41.879844 
L 296.08147 -41.879844 
L 295.57369 -41.879844 
L 295.065909 -41.879844 
L 294.558129 -41.879844 
L 294.050348 -41.879844 
L 293.542568 -41.879844 
L 293.034787 -41.879844 
L 292.527007 -41.879844 
L 292.019226 -41.879844 
L 291.511446 -41.879844 
L 291.003665 -41.879844 
L 290.495885 -41.879844 
L 289.988104 -41.879844 
L 289.480324 -41.879844 
L 288.972543 -41.879844 
L 288.464763 -41.879844 
L 287.956982 -41.879844 
L 287.449202 -41.879844 
z
" style="stroke: #bfbfbf"/>
    </defs>
    <g clip-path="url(#p85968ccfba)">
     <use xlink:href="#m3108054a21" x="0" y="366.599844" style="fill: #bfbfbf; stroke: #bfbfbf"/>
    </g>
   </g>
   <g id="line2d_15">
    <path d="M 75.70473 22.32 
L 582.977457 22.32 
L 582.977457 22.32 
" clip-path="url(#p85968ccfba)" style="fill: none; stroke: #0173b2; stroke-width: 1.5; stroke-linecap: round"/>
   </g>
   <g id="patch_3">
    <path d="M 50.341094 339.84 
L 50.341094 7.2 
" style="fill: none; stroke: #ffffff; stroke-width: 1.25; stroke-linejoin: miter; stroke-linecap: square"/>
   </g>
   <g id="patch_4">
    <path d="M 608.341094 339.84 
L 608.341094 7.2 
" style="fill: none; stroke: #ffffff; stroke-width: 1.25; stroke-linejoin: miter; stroke-linecap: square"/>
   </g>
   <g id="patch_5">
    <path d="M 50.341094 339.84 
L 608.341094 339.84 
" style="fill: none; stroke: #ffffff; stroke-width: 1.25; stroke-linejoin: miter; stroke-linecap: square"/>
   </g>
   <g id="patch_6">
    <path d="M 50.341094 7.2 
L 608.341094 7.2 
" style="fill: none; stroke: #ffffff; stroke-width: 1.25; stroke-linejoin: miter; stroke-linecap: square"/>
   </g>
  </g>
 </g>
 <defs>
  <clipPath id="p85968ccfba">
   <rect x="50.341094" y="7.2" width="558" height="332.64"/>
  </clipPath>
 </defs>
</svg>