<?xml version="1.0" encoding="utf-8" standalone="no"?>
<!DOCTYPE svg PUBLIC "-//W3C//DTD SVG 1.1//EN"
  "http://www.w3.org/Graphics/SVG/1.1/DTD/svg11.dtd">
<svg xmlns:xlink="http://www.w3.org/1999/xlink" width="602.991406pt" height="381.639844pt" viewBox="0 0 602.991406 381.639844" xmlns="http://www.w3.org/2000/svg" version="1.1">
 <metadata>
  <rdf:RDF xmlns:dc="http://purl.org/dc/elements/1.1/" xmlns:cc="http://creativecommons.org/ns#" xmlns:rdf="http://www.w3.org/1999/02/22-rdf-syntax-ns#">
   <cc:Work>
    <dc:type rdf:resource="http://purl.org/dc/dcmitype/StillImage"/>
    <dc:date>2023-07-04T07:07:47.678000</dc:date>
    <dc:format>image/svg+xml</dc:format>
    <dc:creator>
     <cc:Agent>
      <dc:title>Matplotlib v3.7.1, https://matplotlib.org/</dc:title>
     </cc:Agent>
    </dc:creator>
   </cc:Work>
  </rdf:RDF>
 </metadata>
 <defs>
  <style type="text/css">*{stroke-linejoin: round; stroke-linecap: butt}</style>
 </defs>
 <g id="figure_1">
  <g id="patch_1">
   <path d="M 0 381.639844 
L 602.991406 381.639844 
L 602.991406 0 
L 0 0 
z
" style="fill: #ffffff"/>
  </g>
  <g id="axes_1">
   <g id="patch_2">
    <path d="M 37.791406 339.84 
L 595.791406 339.84 
L 595.791406 7.2 
L 37.791406 7.2 
z
" style="fill: #eaeaf2"/>
   </g>
   <g id="matplotlib.axis_1">
    <g id="xtick_1">
     <g id="line2d_1">
      <path d="M 63.155043 339.84 
L 63.155043 7.2 
" clip-path="url(#p4183b7b807)" style="fill: none; stroke: #ffffff; stroke-linecap: round"/>
     </g>
     <g id="text_1">
      <!-- 0.0 -->
      <g style="fill: #262626" transform="translate(55.510043 357.213594) scale(0.11 -0.11)">
       <defs>
        <path id="ArialMT-30" d="M 266 2259 
Q 266 3072 433 3567 
Q 600 4063 929 4331 
Q 1259 4600 1759 4600 
Q 2128 4600 2406 4451 
Q 2684 4303 2865 4023 
Q 3047 3744 3150 3342 
Q 3253 2941 3253 2259 
Q 3253 1453 3087 958 
Q 2922 463 2592 192 
Q 2263 -78 1759 -78 
Q 1097 -78 719 397 
Q 266 969 266 2259 
z
M 844 2259 
Q 844 1131 1108 757 
Q 1372 384 1759 384 
Q 2147 384 2411 759 
Q 2675 1134 2675 2259 
Q 2675 3391 2411 3762 
Q 2147 4134 1753 4134 
Q 1366 4134 1134 3806 
Q 844 3388 844 2259 
z
" transform="scale(0.015625)"/>
        <path id="ArialMT-2e" d="M 581 0 
L 581 641 
L 1222 641 
L 1222 0 
L 581 0 
z
" transform="scale(0.015625)"/>
       </defs>
       <use xlink:href="#ArialMT-30"/>
       <use xlink:href="#ArialMT-2e" x="55.615234"/>
       <use xlink:href="#ArialMT-30" x="83.398438"/>
      </g>
     </g>
    </g>
    <g id="xtick_2">
     <g id="line2d_2">
      <path d="M 164.609588 339.84 
L 164.609588 7.2 
" clip-path="url(#p4183b7b807)" style="fill: none; stroke: #ffffff; stroke-linecap: round"/>
     </g>
     <g id="text_2">
      <!-- 0.2 -->
      <g style="fill: #262626" transform="translate(156.964588 357.213594) scale(0.11 -0.11)">
       <defs>
        <path id="ArialMT-32" d="M 3222 541 
L 3222 0 
L 194 0 
Q 188 203 259 391 
Q 375 700 629 1000 
Q 884 1300 1366 1694 
Q 2113 2306 2375 2664 
Q 2638 3022 2638 3341 
Q 2638 3675 2398 3904 
Q 2159 4134 1775 4134 
Q 1369 4134 1125 3890 
Q 881 3647 878 3216 
L 300 3275 
Q 359 3922 746 4261 
Q 1134 4600 1788 4600 
Q 2447 4600 2831 4234 
Q 3216 3869 3216 3328 
Q 3216 3053 3103 2787 
Q 2991 2522 2730 2228 
Q 2469 1934 1863 1422 
Q 1356 997 1212 845 
Q 1069 694 975 541 
L 3222 541 
z
" transform="scale(0.015625)"/>
       </defs>
       <use xlink:href="#ArialMT-30"/>
       <use xlink:href="#ArialMT-2e" x="55.615234"/>
       <use xlink:href="#ArialMT-32" x="83.398438"/>
      </g>
     </g>
    </g>
    <g id="xtick_3">
     <g id="line2d_3">
      <path d="M 266.064134 339.84 
L 266.064134 7.2 
" clip-path="url(#p4183b7b807)" style="fill: none; stroke: #ffffff; stroke-linecap: round"/>
     </g>
     <g id="text_3">
      <!-- 0.4 -->
      <g style="fill: #262626" transform="translate(258.419134 357.213594) scale(0.11 -0.11)">
       <defs>
        <path id="ArialMT-34" d="M 2069 0 
L 2069 1097 
L 81 1097 
L 81 1613 
L 2172 4581 
L 2631 4581 
L 2631 1613 
L 3250 1613 
L 3250 1097 
L 2631 1097 
L 2631 0 
L 2069 0 
z
M 2069 1613 
L 2069 3678 
L 634 1613 
L 2069 1613 
z
" transform="scale(0.015625)"/>
       </defs>
       <use xlink:href="#ArialMT-30"/>
       <use xlink:href="#ArialMT-2e" x="55.615234"/>
       <use xlink:href="#ArialMT-34" x="83.398438"/>
      </g>
     </g>
    </g>
    <g id="xtick_4">
     <g id="line2d_4">
      <path d="M 367.518679 339.84 
L 367.518679 7.2 
" clip-path="url(#p4183b7b807)" style="fill: none; stroke: #ffffff; stroke-linecap: round"/>
     </g>
     <g id="text_4">
      <!-- 0.6 -->
      <g style="fill: #262626" transform="translate(359.873679 357.213594) scale(0.11 -0.11)">
       <defs>
        <path id="ArialMT-36" d="M 3184 3459 
L 2625 3416 
Q 2550 3747 2413 3897 
Q 2184 4138 1850 4138 
Q 1581 4138 1378 3988 
Q 1113 3794 959 3422 
Q 806 3050 800 2363 
Q 1003 2672 1297 2822 
Q 1591 2972 1913 2972 
Q 2475 2972 2870 2558 
Q 3266 2144 3266 1488 
Q 3266 1056 3080 686 
Q 2894 316 2569 119 
Q 2244 -78 1831 -78 
Q 1128 -78 684 439 
Q 241 956 241 2144 
Q 241 3472 731 4075 
Q 1159 4600 1884 4600 
Q 2425 4600 2770 4297 
Q 3116 3994 3184 3459 
z
M 888 1484 
Q 888 1194 1011 928 
Q 1134 663 1356 523 
Q 1578 384 1822 384 
Q 2178 384 2434 671 
Q 2691 959 2691 1453 
Q 2691 1928 2437 2201 
Q 2184 2475 1800 2475 
Q 1419 2475 1153 2201 
Q 888 1928 888 1484 
z
" transform="scale(0.015625)"/>
       </defs>
       <use xlink:href="#ArialMT-30"/>
       <use xlink:href="#ArialMT-2e" x="55.615234"/>
       <use xlink:href="#ArialMT-36" x="83.398438"/>
      </g>
     </g>
    </g>
    <g id="xtick_5">
     <g id="line2d_5">
      <path d="M 468.973224 339.84 
L 468.973224 7.2 
" clip-path="url(#p4183b7b807)" style="fill: none; stroke: #ffffff; stroke-linecap: round"/>
     </g>
     <g id="text_5">
      <!-- 0.8 -->
      <g style="fill: #262626" transform="translate(461.328224 357.213594) scale(0.11 -0.11)">
       <defs>
        <path id="ArialMT-38" d="M 1131 2484 
Q 781 2613 612 2850 
Q 444 3088 444 3419 
Q 444 3919 803 4259 
Q 1163 4600 1759 4600 
Q 2359 4600 2725 4251 
Q 3091 3903 3091 3403 
Q 3091 3084 2923 2848 
Q 2756 2613 2416 2484 
Q 2838 2347 3058 2040 
Q 3278 1734 3278 1309 
Q 3278 722 2862 322 
Q 2447 -78 1769 -78 
Q 1091 -78 675 323 
Q 259 725 259 1325 
Q 259 1772 486 2073 
Q 713 2375 1131 2484 
z
M 1019 3438 
Q 1019 3113 1228 2906 
Q 1438 2700 1772 2700 
Q 2097 2700 2305 2904 
Q 2513 3109 2513 3406 
Q 2513 3716 2298 3927 
Q 2084 4138 1766 4138 
Q 1444 4138 1231 3931 
Q 1019 3725 1019 3438 
z
M 838 1322 
Q 838 1081 952 856 
Q 1066 631 1291 507 
Q 1516 384 1775 384 
Q 2178 384 2440 643 
Q 2703 903 2703 1303 
Q 2703 1709 2433 1975 
Q 2163 2241 1756 2241 
Q 1359 2241 1098 1978 
Q 838 1716 838 1322 
z
" transform="scale(0.015625)"/>
       </defs>
       <use xlink:href="#ArialMT-30"/>
       <use xlink:href="#ArialMT-2e" x="55.615234"/>
       <use xlink:href="#ArialMT-38" x="83.398438"/>
      </g>
     </g>
    </g>
    <g id="xtick_6">
     <g id="line2d_6">
      <path d="M 570.42777 339.84 
L 570.42777 7.2 
" clip-path="url(#p4183b7b807)" style="fill: none; stroke: #ffffff; stroke-linecap: round"/>
     </g>
     <g id="text_6">
      <!-- 1.0 -->
      <g style="fill: #262626" transform="translate(562.78277 357.213594) scale(0.11 -0.11)">
       <defs>
        <path id="ArialMT-31" d="M 2384 0 
L 1822 0 
L 1822 3584 
Q 1619 3391 1289 3197 
Q 959 3003 697 2906 
L 697 3450 
Q 1169 3672 1522 3987 
Q 1875 4303 2022 4600 
L 2384 4600 
L 2384 0 
z
" transform="scale(0.015625)"/>
       </defs>
       <use xlink:href="#ArialMT-31"/>
       <use xlink:href="#ArialMT-2e" x="55.615234"/>
       <use xlink:href="#ArialMT-30" x="83.398438"/>
      </g>
     </g>
    </g>
    <g id="text_7">
     <!-- $\theta$, Proporzione di successi -->
     <g style="fill: #262626" transform="translate(247.251406 372.039844) scale(0.12 -0.12)">
      <defs>
       <path id="Cmmi10-b5" d="M 1031 -72 
Q 741 -72 566 140 
Q 391 353 323 653 
Q 256 953 256 1247 
L 256 1253 
Q 256 1572 317 1915 
Q 378 2259 493 2601 
Q 609 2944 744 3213 
Q 838 3400 986 3631 
Q 1134 3863 1317 4064 
Q 1500 4266 1711 4389 
Q 1922 4513 2138 4513 
L 2144 4513 
Q 2375 4513 2529 4384 
Q 2684 4256 2770 4056 
Q 2856 3856 2890 3628 
Q 2925 3400 2925 3194 
Q 2925 2709 2794 2204 
Q 2663 1700 2431 1228 
Q 2344 1050 2189 809 
Q 2034 569 1861 378 
Q 1688 188 1472 58 
Q 1256 -72 1038 -72 
L 1031 -72 
z
M 1044 97 
Q 1256 97 1451 323 
Q 1647 550 1794 873 
Q 1941 1197 2052 1536 
Q 2163 1875 2216 2113 
L 909 2113 
Q 809 1709 753 1417 
Q 697 1125 697 844 
Q 697 97 1044 97 
z
M 959 2338 
L 2272 2338 
Q 2341 2619 2381 2808 
Q 2422 2997 2450 3206 
Q 2478 3416 2478 3597 
Q 2478 4347 2138 4347 
Q 1731 4347 1436 3692 
Q 1141 3038 959 2338 
z
" transform="scale(0.015625)"/>
       <path id="ArialMT-2c" d="M 569 0 
L 569 641 
L 1209 641 
L 1209 0 
Q 1209 -353 1084 -570 
Q 959 -788 688 -906 
L 531 -666 
Q 709 -588 793 -436 
Q 878 -284 888 0 
L 569 0 
z
" transform="scale(0.015625)"/>
       <path id="ArialMT-20" transform="scale(0.015625)"/>
       <path id="ArialMT-50" d="M 494 0 
L 494 4581 
L 2222 4581 
Q 2678 4581 2919 4538 
Q 3256 4481 3484 4323 
Q 3713 4166 3852 3881 
Q 3991 3597 3991 3256 
Q 3991 2672 3619 2267 
Q 3247 1863 2275 1863 
L 1100 1863 
L 1100 0 
L 494 0 
z
M 1100 2403 
L 2284 2403 
Q 2872 2403 3119 2622 
Q 3366 2841 3366 3238 
Q 3366 3525 3220 3729 
Q 3075 3934 2838 4000 
Q 2684 4041 2272 4041 
L 1100 4041 
L 1100 2403 
z
" transform="scale(0.015625)"/>
       <path id="ArialMT-72" d="M 416 0 
L 416 3319 
L 922 3319 
L 922 2816 
Q 1116 3169 1280 3281 
Q 1444 3394 1641 3394 
Q 1925 3394 2219 3213 
L 2025 2691 
Q 1819 2813 1613 2813 
Q 1428 2813 1281 2702 
Q 1134 2591 1072 2394 
Q 978 2094 978 1738 
L 978 0 
L 416 0 
z
" transform="scale(0.015625)"/>
       <path id="ArialMT-6f" d="M 213 1659 
Q 213 2581 725 3025 
Q 1153 3394 1769 3394 
Q 2453 3394 2887 2945 
Q 3322 2497 3322 1706 
Q 3322 1066 3130 698 
Q 2938 331 2570 128 
Q 2203 -75 1769 -75 
Q 1072 -75 642 372 
Q 213 819 213 1659 
z
M 791 1659 
Q 791 1022 1069 705 
Q 1347 388 1769 388 
Q 2188 388 2466 706 
Q 2744 1025 2744 1678 
Q 2744 2294 2464 2611 
Q 2184 2928 1769 2928 
Q 1347 2928 1069 2612 
Q 791 2297 791 1659 
z
" transform="scale(0.015625)"/>
       <path id="ArialMT-70" d="M 422 -1272 
L 422 3319 
L 934 3319 
L 934 2888 
Q 1116 3141 1344 3267 
Q 1572 3394 1897 3394 
Q 2322 3394 2647 3175 
Q 2972 2956 3137 2557 
Q 3303 2159 3303 1684 
Q 3303 1175 3120 767 
Q 2938 359 2589 142 
Q 2241 -75 1856 -75 
Q 1575 -75 1351 44 
Q 1128 163 984 344 
L 984 -1272 
L 422 -1272 
z
M 931 1641 
Q 931 1000 1190 694 
Q 1450 388 1819 388 
Q 2194 388 2461 705 
Q 2728 1022 2728 1688 
Q 2728 2322 2467 2637 
Q 2206 2953 1844 2953 
Q 1484 2953 1207 2617 
Q 931 2281 931 1641 
z
" transform="scale(0.015625)"/>
       <path id="ArialMT-7a" d="M 125 0 
L 125 456 
L 2238 2881 
Q 1878 2863 1603 2863 
L 250 2863 
L 250 3319 
L 2963 3319 
L 2963 2947 
L 1166 841 
L 819 456 
Q 1197 484 1528 484 
L 3063 484 
L 3063 0 
L 125 0 
z
" transform="scale(0.015625)"/>
       <path id="ArialMT-69" d="M 425 3934 
L 425 4581 
L 988 4581 
L 988 3934 
L 425 3934 
z
M 425 0 
L 425 3319 
L 988 3319 
L 988 0 
L 425 0 
z
" transform="scale(0.015625)"/>
       <path id="ArialMT-6e" d="M 422 0 
L 422 3319 
L 928 3319 
L 928 2847 
Q 1294 3394 1984 3394 
Q 2284 3394 2536 3286 
Q 2788 3178 2913 3003 
Q 3038 2828 3088 2588 
Q 3119 2431 3119 2041 
L 3119 0 
L 2556 0 
L 2556 2019 
Q 2556 2363 2490 2533 
Q 2425 2703 2258 2804 
Q 2091 2906 1866 2906 
Q 1506 2906 1245 2678 
Q 984 2450 984 1813 
L 984 0 
L 422 0 
z
" transform="scale(0.015625)"/>
       <path id="ArialMT-65" d="M 2694 1069 
L 3275 997 
Q 3138 488 2766 206 
Q 2394 -75 1816 -75 
Q 1088 -75 661 373 
Q 234 822 234 1631 
Q 234 2469 665 2931 
Q 1097 3394 1784 3394 
Q 2450 3394 2872 2941 
Q 3294 2488 3294 1666 
Q 3294 1616 3291 1516 
L 816 1516 
Q 847 969 1125 678 
Q 1403 388 1819 388 
Q 2128 388 2347 550 
Q 2566 713 2694 1069 
z
M 847 1978 
L 2700 1978 
Q 2663 2397 2488 2606 
Q 2219 2931 1791 2931 
Q 1403 2931 1139 2672 
Q 875 2413 847 1978 
z
" transform="scale(0.015625)"/>
       <path id="ArialMT-64" d="M 2575 0 
L 2575 419 
Q 2259 -75 1647 -75 
Q 1250 -75 917 144 
Q 584 363 401 755 
Q 219 1147 219 1656 
Q 219 2153 384 2558 
Q 550 2963 881 3178 
Q 1213 3394 1622 3394 
Q 1922 3394 2156 3267 
Q 2391 3141 2538 2938 
L 2538 4581 
L 3097 4581 
L 3097 0 
L 2575 0 
z
M 797 1656 
Q 797 1019 1065 703 
Q 1334 388 1700 388 
Q 2069 388 2326 689 
Q 2584 991 2584 1609 
Q 2584 2291 2321 2609 
Q 2059 2928 1675 2928 
Q 1300 2928 1048 2622 
Q 797 2316 797 1656 
z
" transform="scale(0.015625)"/>
       <path id="ArialMT-73" d="M 197 991 
L 753 1078 
Q 800 744 1014 566 
Q 1228 388 1613 388 
Q 2000 388 2187 545 
Q 2375 703 2375 916 
Q 2375 1106 2209 1216 
Q 2094 1291 1634 1406 
Q 1016 1563 777 1677 
Q 538 1791 414 1992 
Q 291 2194 291 2438 
Q 291 2659 392 2848 
Q 494 3038 669 3163 
Q 800 3259 1026 3326 
Q 1253 3394 1513 3394 
Q 1903 3394 2198 3281 
Q 2494 3169 2634 2976 
Q 2775 2784 2828 2463 
L 2278 2388 
Q 2241 2644 2061 2787 
Q 1881 2931 1553 2931 
Q 1166 2931 1000 2803 
Q 834 2675 834 2503 
Q 834 2394 903 2306 
Q 972 2216 1119 2156 
Q 1203 2125 1616 2013 
Q 2213 1853 2448 1751 
Q 2684 1650 2818 1456 
Q 2953 1263 2953 975 
Q 2953 694 2789 445 
Q 2625 197 2315 61 
Q 2006 -75 1616 -75 
Q 969 -75 630 194 
Q 291 463 197 991 
z
" transform="scale(0.015625)"/>
       <path id="ArialMT-75" d="M 2597 0 
L 2597 488 
Q 2209 -75 1544 -75 
Q 1250 -75 995 37 
Q 741 150 617 320 
Q 494 491 444 738 
Q 409 903 409 1263 
L 409 3319 
L 972 3319 
L 972 1478 
Q 972 1038 1006 884 
Q 1059 663 1231 536 
Q 1403 409 1656 409 
Q 1909 409 2131 539 
Q 2353 669 2445 892 
Q 2538 1116 2538 1541 
L 2538 3319 
L 3100 3319 
L 3100 0 
L 2597 0 
z
" transform="scale(0.015625)"/>
       <path id="ArialMT-63" d="M 2588 1216 
L 3141 1144 
Q 3050 572 2676 248 
Q 2303 -75 1759 -75 
Q 1078 -75 664 370 
Q 250 816 250 1647 
Q 250 2184 428 2587 
Q 606 2991 970 3192 
Q 1334 3394 1763 3394 
Q 2303 3394 2647 3120 
Q 2991 2847 3088 2344 
L 2541 2259 
Q 2463 2594 2264 2762 
Q 2066 2931 1784 2931 
Q 1359 2931 1093 2626 
Q 828 2322 828 1663 
Q 828 994 1084 691 
Q 1341 388 1753 388 
Q 2084 388 2306 591 
Q 2528 794 2588 1216 
z
" transform="scale(0.015625)"/>
      </defs>
      <use xlink:href="#Cmmi10-b5" transform="translate(0 0.421875)"/>
      <use xlink:href="#ArialMT-2c" transform="translate(46.923828 0.421875)"/>
      <use xlink:href="#ArialMT-20" transform="translate(74.707031 0.421875)"/>
      <use xlink:href="#ArialMT-50" transform="translate(102.490234 0.421875)"/>
      <use xlink:href="#ArialMT-72" transform="translate(169.189453 0.421875)"/>
      <use xlink:href="#ArialMT-6f" transform="translate(202.490234 0.421875)"/>
      <use xlink:href="#ArialMT-70" transform="translate(258.105469 0.421875)"/>
      <use xlink:href="#ArialMT-6f" transform="translate(313.720703 0.421875)"/>
      <use xlink:href="#ArialMT-72" transform="translate(369.335938 0.421875)"/>
      <use xlink:href="#ArialMT-7a" transform="translate(402.636719 0.421875)"/>
      <use xlink:href="#ArialMT-69" transform="translate(452.636719 0.421875)"/>
      <use xlink:href="#ArialMT-6f" transform="translate(474.853516 0.421875)"/>
      <use xlink:href="#ArialMT-6e" transform="translate(530.46875 0.421875)"/>
      <use xlink:href="#ArialMT-65" transform="translate(586.083984 0.421875)"/>
      <use xlink:href="#ArialMT-20" transform="translate(641.699219 0.421875)"/>
      <use xlink:href="#ArialMT-64" transform="translate(669.482422 0.421875)"/>
      <use xlink:href="#ArialMT-69" transform="translate(725.097656 0.421875)"/>
      <use xlink:href="#ArialMT-20" transform="translate(747.314453 0.421875)"/>
      <use xlink:href="#ArialMT-73" transform="translate(775.097656 0.421875)"/>
      <use xlink:href="#ArialMT-75" transform="translate(825.097656 0.421875)"/>
      <use xlink:href="#ArialMT-63" transform="translate(880.712891 0.421875)"/>
      <use xlink:href="#ArialMT-63" transform="translate(930.712891 0.421875)"/>
      <use xlink:href="#ArialMT-65" transform="translate(980.712891 0.421875)"/>
      <use xlink:href="#ArialMT-73" transform="translate(1036.328125 0.421875)"/>
      <use xlink:href="#ArialMT-73" transform="translate(1086.328125 0.421875)"/>
      <use xlink:href="#ArialMT-69" transform="translate(1136.328125 0.421875)"/>
     </g>
    </g>
   </g>
   <g id="matplotlib.axis_2">
    <g id="ytick_1">
     <g id="line2d_7">
      <path d="M 37.791406 339.84 
L 595.791406 339.84 
" clip-path="url(#p4183b7b807)" style="fill: none; stroke: #ffffff; stroke-linecap: round"/>
     </g>
     <g id="text_8">
      <!-- 0 -->
      <g style="fill: #262626" transform="translate(22.174375 343.776797) scale(0.11 -0.11)">
       <use xlink:href="#ArialMT-30"/>
      </g>
     </g>
    </g>
    <g id="ytick_2">
     <g id="line2d_8">
      <path d="M 37.791406 275.043167 
L 595.791406 275.043167 
" clip-path="url(#p4183b7b807)" style="fill: none; stroke: #ffffff; stroke-linecap: round"/>
     </g>
     <g id="text_9">
      <!-- 1 -->
      <g style="fill: #262626" transform="translate(22.174375 278.979964) scale(0.11 -0.11)">
       <use xlink:href="#ArialMT-31"/>
      </g>
     </g>
    </g>
    <g id="ytick_3">
     <g id="line2d_9">
      <path d="M 37.791406 210.246334 
L 595.791406 210.246334 
" clip-path="url(#p4183b7b807)" style="fill: none; stroke: #ffffff; stroke-linecap: round"/>
     </g>
     <g id="text_10">
      <!-- 2 -->
      <g style="fill: #262626" transform="translate(22.174375 214.183131) scale(0.11 -0.11)">
       <use xlink:href="#ArialMT-32"/>
      </g>
     </g>
    </g>
    <g id="ytick_4">
     <g id="line2d_10">
      <path d="M 37.791406 145.449501 
L 595.791406 145.449501 
" clip-path="url(#p4183b7b807)" style="fill: none; stroke: #ffffff; stroke-linecap: round"/>
     </g>
     <g id="text_11">
      <!-- 3 -->
      <g style="fill: #262626" transform="translate(22.174375 149.386298) scale(0.11 -0.11)">
       <defs>
        <path id="ArialMT-33" d="M 269 1209 
L 831 1284 
Q 928 806 1161 595 
Q 1394 384 1728 384 
Q 2125 384 2398 659 
Q 2672 934 2672 1341 
Q 2672 1728 2419 1979 
Q 2166 2231 1775 2231 
Q 1616 2231 1378 2169 
L 1441 2663 
Q 1497 2656 1531 2656 
Q 1891 2656 2178 2843 
Q 2466 3031 2466 3422 
Q 2466 3731 2256 3934 
Q 2047 4138 1716 4138 
Q 1388 4138 1169 3931 
Q 950 3725 888 3313 
L 325 3413 
Q 428 3978 793 4289 
Q 1159 4600 1703 4600 
Q 2078 4600 2393 4439 
Q 2709 4278 2876 4000 
Q 3044 3722 3044 3409 
Q 3044 3113 2884 2869 
Q 2725 2625 2413 2481 
Q 2819 2388 3044 2092 
Q 3269 1797 3269 1353 
Q 3269 753 2831 336 
Q 2394 -81 1725 -81 
Q 1122 -81 723 278 
Q 325 638 269 1209 
z
" transform="scale(0.015625)"/>
       </defs>
       <use xlink:href="#ArialMT-33"/>
      </g>
     </g>
    </g>
    <g id="ytick_5">
     <g id="line2d_11">
      <path d="M 37.791406 80.652668 
L 595.791406 80.652668 
" clip-path="url(#p4183b7b807)" style="fill: none; stroke: #ffffff; stroke-linecap: round"/>
     </g>
     <g id="text_12">
      <!-- 4 -->
      <g style="fill: #262626" transform="translate(22.174375 84.589465) scale(0.11 -0.11)">
       <use xlink:href="#ArialMT-34"/>
      </g>
     </g>
    </g>
    <g id="ytick_6">
     <g id="line2d_12">
      <path d="M 37.791406 15.855835 
L 595.791406 15.855835 
" clip-path="url(#p4183b7b807)" style="fill: none; stroke: #ffffff; stroke-linecap: round"/>
     </g>
     <g id="text_13">
      <!-- 5 -->
      <g style="fill: #262626" transform="translate(22.174375 19.792632) scale(0.11 -0.11)">
       <defs>
        <path id="ArialMT-35" d="M 266 1200 
L 856 1250 
Q 922 819 1161 601 
Q 1400 384 1738 384 
Q 2144 384 2425 690 
Q 2706 997 2706 1503 
Q 2706 1984 2436 2262 
Q 2166 2541 1728 2541 
Q 1456 2541 1237 2417 
Q 1019 2294 894 2097 
L 366 2166 
L 809 4519 
L 3088 4519 
L 3088 3981 
L 1259 3981 
L 1013 2750 
Q 1425 3038 1878 3038 
Q 2478 3038 2890 2622 
Q 3303 2206 3303 1553 
Q 3303 931 2941 478 
Q 2500 -78 1738 -78 
Q 1113 -78 717 272 
Q 322 622 266 1200 
z
" transform="scale(0.015625)"/>
       </defs>
       <use xlink:href="#ArialMT-35"/>
      </g>
     </g>
    </g>
    <g id="text_14">
     <!-- Densità -->
     <g style="fill: #262626" transform="translate(15.789375 193.862813) rotate(-90) scale(0.12 -0.12)">
      <defs>
       <path id="ArialMT-44" d="M 494 0 
L 494 4581 
L 2072 4581 
Q 2606 4581 2888 4516 
Q 3281 4425 3559 4188 
Q 3922 3881 4101 3404 
Q 4281 2928 4281 2316 
Q 4281 1794 4159 1391 
Q 4038 988 3847 723 
Q 3656 459 3429 307 
Q 3203 156 2883 78 
Q 2563 0 2147 0 
L 494 0 
z
M 1100 541 
L 2078 541 
Q 2531 541 2789 625 
Q 3047 709 3200 863 
Q 3416 1078 3536 1442 
Q 3656 1806 3656 2325 
Q 3656 3044 3420 3430 
Q 3184 3816 2847 3947 
Q 2603 4041 2063 4041 
L 1100 4041 
L 1100 541 
z
" transform="scale(0.015625)"/>
       <path id="ArialMT-74" d="M 1650 503 
L 1731 6 
Q 1494 -44 1306 -44 
Q 1000 -44 831 53 
Q 663 150 594 308 
Q 525 466 525 972 
L 525 2881 
L 113 2881 
L 113 3319 
L 525 3319 
L 525 4141 
L 1084 4478 
L 1084 3319 
L 1650 3319 
L 1650 2881 
L 1084 2881 
L 1084 941 
Q 1084 700 1114 631 
Q 1144 563 1211 522 
Q 1278 481 1403 481 
Q 1497 481 1650 503 
z
" transform="scale(0.015625)"/>
       <path id="ArialMT-e0" d="M 2588 409 
Q 2275 144 1986 34 
Q 1697 -75 1366 -75 
Q 819 -75 525 192 
Q 231 459 231 875 
Q 231 1119 342 1320 
Q 453 1522 633 1644 
Q 813 1766 1038 1828 
Q 1203 1872 1538 1913 
Q 2219 1994 2541 2106 
Q 2544 2222 2544 2253 
Q 2544 2597 2384 2738 
Q 2169 2928 1744 2928 
Q 1347 2928 1158 2789 
Q 969 2650 878 2297 
L 328 2372 
Q 403 2725 575 2942 
Q 747 3159 1072 3276 
Q 1397 3394 1825 3394 
Q 2250 3394 2515 3294 
Q 2781 3194 2906 3042 
Q 3031 2891 3081 2659 
Q 3109 2516 3109 2141 
L 3109 1391 
Q 3109 606 3145 398 
Q 3181 191 3288 0 
L 2700 0 
Q 2613 175 2588 409 
z
M 2541 1666 
Q 2234 1541 1622 1453 
Q 1275 1403 1131 1340 
Q 988 1278 909 1158 
Q 831 1038 831 891 
Q 831 666 1001 516 
Q 1172 366 1500 366 
Q 1825 366 2078 508 
Q 2331 650 2450 897 
Q 2541 1088 2541 1459 
L 2541 1666 
z
M 2234 3731 
L 1781 3731 
L 1059 4606 
L 1813 4606 
L 2234 3731 
z
" transform="scale(0.015625)"/>
      </defs>
      <use xlink:href="#ArialMT-44"/>
      <use xlink:href="#ArialMT-65" x="72.216797"/>
      <use xlink:href="#ArialMT-6e" x="127.832031"/>
      <use xlink:href="#ArialMT-73" x="183.447266"/>
      <use xlink:href="#ArialMT-69" x="233.447266"/>
      <use xlink:href="#ArialMT-74" x="255.664062"/>
      <use xlink:href="#ArialMT-e0" x="283.447266"/>
     </g>
    </g>
   </g>
   <g id="patch_3">
    <path d="M 242.853012 339.84 
L 242.853012 339.20513 
L 249.324747 339.20513 
L 249.324747 339.84 
L 255.796481 339.84 
L 255.796481 339.84 
L 262.268215 339.84 
L 262.268215 338.570261 
L 268.73995 338.570261 
L 268.73995 339.84 
L 275.211684 339.84 
L 275.211684 337.935391 
L 281.683418 337.935391 
L 281.683418 338.570261 
L 288.155153 338.570261 
L 288.155153 339.20513 
L 294.626887 339.20513 
L 294.626887 338.570261 
L 301.098621 338.570261 
L 301.098621 337.935391 
L 307.570356 337.935391 
L 307.570356 335.395912 
L 314.04209 335.395912 
L 314.04209 334.126172 
L 320.513824 334.126172 
L 320.513824 335.395912 
L 326.985558 335.395912 
L 326.985558 333.491303 
L 333.457293 333.491303 
L 333.457293 330.316954 
L 339.929027 330.316954 
L 339.929027 324.603126 
L 346.400761 324.603126 
L 346.400761 318.254429 
L 352.872496 318.254429 
L 352.872496 319.524168 
L 359.34423 319.524168 
L 359.34423 320.159038 
L 365.815964 320.159038 
L 365.815964 318.889299 
L 372.287699 318.889299 
L 372.287699 298.573467 
L 378.759433 298.573467 
L 378.759433 274.448417 
L 385.231167 274.448417 
L 385.231167 273.178677 
L 391.702902 273.178677 
L 391.702902 269.369459 
L 398.174636 269.369459 
L 398.174636 249.053627 
L 404.64637 249.053627 
L 404.64637 240.165451 
L 411.118105 240.165451 
L 411.118105 226.198317 
L 417.589839 226.198317 
L 417.589839 218.57988 
L 424.061573 218.57988 
L 424.061573 176.678477 
L 430.533307 176.678477 
L 430.533307 162.076473 
L 437.005042 162.076473 
L 437.005042 146.839599 
L 443.476776 146.839599 
L 443.476776 87.796713 
L 449.94851 87.796713 
L 449.94851 127.158637 
L 456.420245 127.158637 
L 456.420245 90.336192 
L 462.891979 90.336192 
L 462.891979 64.306533 
L 469.363713 64.306533 
L 469.363713 51.609138 
L 475.835448 51.609138 
L 475.835448 23.04 
L 482.307182 23.04 
L 482.307182 35.102525 
L 488.778916 35.102525 
L 488.778916 61.767054 
L 495.250651 61.767054 
L 495.250651 42.086092 
L 501.722385 42.086092 
L 501.722385 66.846012 
L 508.194119 66.846012 
L 508.194119 90.971062 
L 514.665854 90.971062 
L 514.665854 137.316553 
L 521.137588 137.316553 
L 521.137588 172.234389 
L 527.609322 172.234389 
L 527.609322 200.803527 
L 534.081056 200.803527 
L 534.081056 233.181884 
L 540.552791 233.181884 
L 540.552791 270.004329 
L 547.024525 270.004329 
L 547.024525 303.017555 
L 553.496259 303.017555 
L 553.496259 325.237996 
L 559.967994 325.237996 
L 559.967994 335.395912 
L 566.439728 335.395912 
L 566.439728 339.84 
" clip-path="url(#p4183b7b807)" style="fill: none; stroke: #ff0000; stroke-linejoin: miter"/>
   </g>
   <g id="line2d_13">
    <path d="M 63.155043 339.84 
L 68.27901 335.952587 
L 73.402976 332.144508 
L 78.526943 328.415765 
L 83.65091 324.766357 
L 88.774877 321.196283 
L 93.898844 317.705545 
L 99.022811 314.294141 
L 104.146778 310.962073 
L 109.270745 307.709339 
L 114.394712 304.53594 
L 119.518679 301.441877 
L 124.642646 298.427148 
L 129.766613 295.491754 
L 134.89058 292.635696 
L 140.014547 289.858972 
L 145.138514 287.161583 
L 150.262481 284.543529 
L 155.386448 282.00481 
L 160.510415 279.545426 
L 165.634381 277.165377 
L 170.758348 274.864663 
L 175.882315 272.643284 
L 181.006282 270.50124 
L 186.130249 268.438531 
L 191.254216 266.455157 
L 196.378183 264.551118 
L 201.50215 262.726414 
L 206.626117 260.981044 
L 211.750084 259.31501 
L 216.874051 257.728311 
L 221.998018 256.220946 
L 227.121985 254.792917 
L 232.245952 253.444223 
L 237.369919 252.174863 
L 242.493886 250.984839 
L 247.617853 249.874149 
L 252.741819 248.842795 
L 257.865786 247.890775 
L 262.989753 247.01809 
L 268.11372 246.224741 
L 273.237687 245.510726 
L 278.361654 244.876046 
L 283.485621 244.320702 
L 288.609588 243.844692 
L 293.733555 243.448017 
L 298.857522 243.130677 
L 303.981489 242.892672 
L 309.105456 242.734002 
L 314.229423 242.654667 
L 319.35339 242.654667 
L 324.477357 242.734002 
L 329.601324 242.892672 
L 334.725291 243.130677 
L 339.849257 243.448017 
L 344.973224 243.844692 
L 350.097191 244.320702 
L 355.221158 244.876046 
L 360.345125 245.510726 
L 365.469092 246.224741 
L 370.593059 247.01809 
L 375.717026 247.890775 
L 380.840993 248.842795 
L 385.96496 249.874149 
L 391.088927 250.984839 
L 396.212894 252.174863 
L 401.336861 253.444223 
L 406.460828 254.792917 
L 411.584795 256.220946 
L 416.708762 257.728311 
L 421.832729 259.31501 
L 426.956696 260.981044 
L 432.080662 262.726414 
L 437.204629 264.551118 
L 442.328596 266.455157 
L 447.452563 268.438531 
L 452.57653 270.50124 
L 457.700497 272.643284 
L 462.824464 274.864663 
L 467.948431 277.165377 
L 473.072398 279.545426 
L 478.196365 282.00481 
L 483.320332 284.543529 
L 488.444299 287.161583 
L 493.568266 289.858972 
L 498.692233 292.635696 
L 503.8162 295.491754 
L 508.940167 298.427148 
L 514.064134 301.441877 
L 519.1881 304.53594 
L 524.312067 307.709339 
L 529.436034 310.962073 
L 534.560001 314.294141 
L 539.683968 317.705545 
L 544.807935 321.196283 
L 549.931902 324.766357 
L 555.055869 328.415765 
L 560.179836 332.144508 
L 565.303803 335.952587 
L 570.42777 339.84 
" clip-path="url(#p4183b7b807)" style="fill: none; stroke-dasharray: 5.55,2.4; stroke-dashoffset: 0; stroke: #0000ff; stroke-width: 1.5"/>
   </g>
   <g id="line2d_14">
    <path d="M 63.155043 339.84 
L 68.27901 339.84 
L 73.402976 339.84 
L 78.526943 339.84 
L 83.65091 339.84 
L 88.774877 339.84 
L 93.898844 339.84 
L 99.022811 339.84 
L 104.146778 339.84 
L 109.270745 339.84 
L 114.394712 339.84 
L 119.518679 339.84 
L 124.642646 339.84 
L 129.766613 339.84 
L 134.89058 339.84 
L 140.014547 339.84 
L 145.138514 339.839999 
L 150.262481 339.839998 
L 155.386448 339.839996 
L 160.510415 339.839991 
L 165.634381 339.839981 
L 170.758348 339.839961 
L 175.882315 339.839925 
L 181.006282 339.839859 
L 186.130249 339.839744 
L 191.254216 339.839546 
L 196.378183 339.839215 
L 201.50215 339.838673 
L 206.626117 339.837804 
L 211.750084 339.836437 
L 216.874051 339.834325 
L 221.998018 339.831118 
L 227.121985 339.826322 
L 232.245952 339.819255 
L 237.369919 339.808991 
L 242.493886 339.794278 
L 247.617853 339.773454 
L 252.741819 339.744332 
L 257.865786 339.704072 
L 262.989753 339.64902 
L 268.11372 339.574527 
L 273.237687 339.474737 
L 278.361654 339.342345 
L 283.485621 339.168332 
L 288.609588 338.941657 
L 293.733555 338.648942 
L 298.857522 338.274118 
L 303.981489 337.798065 
L 309.105456 337.198241 
L 314.229423 336.448317 
L 319.35339 335.517825 
L 324.477357 334.37185 
L 329.601324 332.970775 
L 334.725291 331.270104 
L 339.849257 329.220404 
L 344.973224 326.767387 
L 350.097191 323.852159 
L 355.221158 320.411703 
L 360.345125 316.379595 
L 365.469092 311.687032 
L 370.593059 306.264181 
L 375.717026 300.041899 
L 380.840993 292.953852 
L 385.96496 284.93906 
L 391.088927 275.944867 
L 396.212894 265.930351 
L 401.336861 254.870142 
L 406.460828 242.758604 
L 411.584795 229.614314 
L 416.708762 215.484739 
L 421.832729 200.450959 
L 426.956696 184.632265 
L 432.080662 168.190408 
L 437.204629 151.333217 
L 442.328596 134.31727 
L 447.452563 117.449253 
L 452.57653 101.085575 
L 457.700497 85.629809 
L 462.824464 71.527465 
L 467.948431 59.257621 
L 473.072398 49.32093 
L 478.196365 42.223616 
L 483.320332 38.457114 
L 488.444299 38.473225 
L 493.568266 42.654849 
L 498.692233 51.282724 
L 503.8162 64.499014 
L 508.940167 82.269237 
L 514.064134 104.344737 
L 519.1881 130.228968 
L 524.312067 159.152043 
L 529.436034 190.059636 
L 534.560001 221.624189 
L 539.683968 252.288817 
L 544.807935 280.357138 
L 549.931902 304.145764 
L 555.055869 322.22039 
L 560.179836 333.741402 
L 565.303803 338.950891 
L 570.42777 339.84 
" clip-path="url(#p4183b7b807)" style="fill: none; stroke: #008000; stroke-width: 1.5; stroke-linecap: round"/>
   </g>
   <g id="patch_4">
    <path d="M 37.791406 339.84 
L 37.791406 7.2 
" style="fill: none; stroke: #ffffff; stroke-width: 1.25; stroke-linejoin: miter; stroke-linecap: square"/>
   </g>
   <g id="patch_5">
    <path d="M 595.791406 339.84 
L 595.791406 7.2 
" style="fill: none; stroke: #ffffff; stroke-width: 1.25; stroke-linejoin: miter; stroke-linecap: square"/>
   </g>
   <g id="patch_6">
    <path d="M 37.791406 339.84 
L 595.791406 339.84 
" style="fill: none; stroke: #ffffff; stroke-width: 1.25; stroke-linejoin: miter; stroke-linecap: square"/>
   </g>
   <g id="patch_7">
    <path d="M 37.791406 7.2 
L 595.791406 7.2 
" style="fill: none; stroke: #ffffff; stroke-width: 1.25; stroke-linejoin: miter; stroke-linecap: square"/>
   </g>
   <g id="legend_1">
    <g id="patch_8">
     <path d="M 45.491406 79.679844 
L 186.454688 79.679844 
Q 188.654687 79.679844 188.654687 77.479844 
L 188.654687 14.9 
Q 188.654687 12.7 186.454688 12.7 
L 45.491406 12.7 
Q 43.291406 12.7 43.291406 14.9 
L 43.291406 77.479844 
Q 43.291406 79.679844 45.491406 79.679844 
z
" style="fill: #eaeaf2; opacity: 0.8; stroke: #cccccc; stroke-linejoin: miter"/>
    </g>
    <g id="text_15">
     <!--   -->
     <g style="fill: #262626" transform="translate(114.306172 25.689375) scale(0.12 -0.12)">
      <use xlink:href="#ArialMT-20"/>
     </g>
    </g>
    <g id="patch_9">
     <path d="M 47.691406 41.582031 
L 69.691406 41.582031 
L 69.691406 33.882031 
L 47.691406 33.882031 
L 47.691406 41.582031 
z
" style="fill: none; stroke: #ff0000; stroke-linejoin: miter"/>
    </g>
    <g id="text_16">
     <!-- A posteriori (MCMC) -->
     <g style="fill: #262626" transform="translate(78.491406 41.582031) scale(0.11 -0.11)">
      <defs>
       <path id="ArialMT-41" d="M -9 0 
L 1750 4581 
L 2403 4581 
L 4278 0 
L 3588 0 
L 3053 1388 
L 1138 1388 
L 634 0 
L -9 0 
z
M 1313 1881 
L 2866 1881 
L 2388 3150 
Q 2169 3728 2063 4100 
Q 1975 3659 1816 3225 
L 1313 1881 
z
" transform="scale(0.015625)"/>
       <path id="ArialMT-28" d="M 1497 -1347 
Q 1031 -759 709 28 
Q 388 816 388 1659 
Q 388 2403 628 3084 
Q 909 3875 1497 4659 
L 1900 4659 
Q 1522 4009 1400 3731 
Q 1209 3300 1100 2831 
Q 966 2247 966 1656 
Q 966 153 1900 -1347 
L 1497 -1347 
z
" transform="scale(0.015625)"/>
       <path id="ArialMT-4d" d="M 475 0 
L 475 4581 
L 1388 4581 
L 2472 1338 
Q 2622 884 2691 659 
Q 2769 909 2934 1394 
L 4031 4581 
L 4847 4581 
L 4847 0 
L 4263 0 
L 4263 3834 
L 2931 0 
L 2384 0 
L 1059 3900 
L 1059 0 
L 475 0 
z
" transform="scale(0.015625)"/>
       <path id="ArialMT-43" d="M 3763 1606 
L 4369 1453 
Q 4178 706 3683 314 
Q 3188 -78 2472 -78 
Q 1731 -78 1267 223 
Q 803 525 561 1097 
Q 319 1669 319 2325 
Q 319 3041 592 3573 
Q 866 4106 1370 4382 
Q 1875 4659 2481 4659 
Q 3169 4659 3637 4309 
Q 4106 3959 4291 3325 
L 3694 3184 
Q 3534 3684 3231 3912 
Q 2928 4141 2469 4141 
Q 1941 4141 1586 3887 
Q 1231 3634 1087 3207 
Q 944 2781 944 2328 
Q 944 1744 1114 1308 
Q 1284 872 1643 656 
Q 2003 441 2422 441 
Q 2931 441 3284 734 
Q 3638 1028 3763 1606 
z
" transform="scale(0.015625)"/>
       <path id="ArialMT-29" d="M 791 -1347 
L 388 -1347 
Q 1322 153 1322 1656 
Q 1322 2244 1188 2822 
Q 1081 3291 891 3722 
Q 769 4003 388 4659 
L 791 4659 
Q 1378 3875 1659 3084 
Q 1900 2403 1900 1659 
Q 1900 816 1576 28 
Q 1253 -759 791 -1347 
z
" transform="scale(0.015625)"/>
      </defs>
      <use xlink:href="#ArialMT-41"/>
      <use xlink:href="#ArialMT-20" x="61.199219"/>
      <use xlink:href="#ArialMT-70" x="88.982422"/>
      <use xlink:href="#ArialMT-6f" x="144.597656"/>
      <use xlink:href="#ArialMT-73" x="200.212891"/>
      <use xlink:href="#ArialMT-74" x="250.212891"/>
      <use xlink:href="#ArialMT-65" x="277.996094"/>
      <use xlink:href="#ArialMT-72" x="333.611328"/>
      <use xlink:href="#ArialMT-69" x="366.912109"/>
      <use xlink:href="#ArialMT-6f" x="389.128906"/>
      <use xlink:href="#ArialMT-72" x="444.744141"/>
      <use xlink:href="#ArialMT-69" x="478.044922"/>
      <use xlink:href="#ArialMT-20" x="500.261719"/>
      <use xlink:href="#ArialMT-28" x="528.044922"/>
      <use xlink:href="#ArialMT-4d" x="561.345703"/>
      <use xlink:href="#ArialMT-43" x="644.646484"/>
      <use xlink:href="#ArialMT-4d" x="716.863281"/>
      <use xlink:href="#ArialMT-43" x="800.164062"/>
      <use xlink:href="#ArialMT-29" x="872.380859"/>
     </g>
    </g>
    <g id="line2d_15">
     <path d="M 47.691406 53.420781 
L 58.691406 53.420781 
L 69.691406 53.420781 
" style="fill: none; stroke-dasharray: 5.55,2.4; stroke-dashoffset: 0; stroke: #0000ff; stroke-width: 1.5"/>
    </g>
    <g id="text_17">
     <!-- A priori -->
     <g style="fill: #262626" transform="translate(78.491406 57.270781) scale(0.11 -0.11)">
      <use xlink:href="#ArialMT-41"/>
      <use xlink:href="#ArialMT-20" x="61.199219"/>
      <use xlink:href="#ArialMT-70" x="88.982422"/>
      <use xlink:href="#ArialMT-72" x="144.597656"/>
      <use xlink:href="#ArialMT-69" x="177.898438"/>
      <use xlink:href="#ArialMT-6f" x="200.115234"/>
      <use xlink:href="#ArialMT-72" x="255.730469"/>
      <use xlink:href="#ArialMT-69" x="289.03125"/>
     </g>
    </g>
    <g id="line2d_16">
     <path d="M 47.691406 69.114688 
L 58.691406 69.114688 
L 69.691406 69.114688 
" style="fill: none; stroke: #008000; stroke-width: 1.5; stroke-linecap: round"/>
    </g>
    <g id="text_18">
     <!-- A posteriori (analitico) -->
     <g style="fill: #262626" transform="translate(78.491406 72.964688) scale(0.11 -0.11)">
      <defs>
       <path id="ArialMT-61" d="M 2588 409 
Q 2275 144 1986 34 
Q 1697 -75 1366 -75 
Q 819 -75 525 192 
Q 231 459 231 875 
Q 231 1119 342 1320 
Q 453 1522 633 1644 
Q 813 1766 1038 1828 
Q 1203 1872 1538 1913 
Q 2219 1994 2541 2106 
Q 2544 2222 2544 2253 
Q 2544 2597 2384 2738 
Q 2169 2928 1744 2928 
Q 1347 2928 1158 2789 
Q 969 2650 878 2297 
L 328 2372 
Q 403 2725 575 2942 
Q 747 3159 1072 3276 
Q 1397 3394 1825 3394 
Q 2250 3394 2515 3294 
Q 2781 3194 2906 3042 
Q 3031 2891 3081 2659 
Q 3109 2516 3109 2141 
L 3109 1391 
Q 3109 606 3145 398 
Q 3181 191 3288 0 
L 2700 0 
Q 2613 175 2588 409 
z
M 2541 1666 
Q 2234 1541 1622 1453 
Q 1275 1403 1131 1340 
Q 988 1278 909 1158 
Q 831 1038 831 891 
Q 831 666 1001 516 
Q 1172 366 1500 366 
Q 1825 366 2078 508 
Q 2331 650 2450 897 
Q 2541 1088 2541 1459 
L 2541 1666 
z
" transform="scale(0.015625)"/>
       <path id="ArialMT-6c" d="M 409 0 
L 409 4581 
L 972 4581 
L 972 0 
L 409 0 
z
" transform="scale(0.015625)"/>
      </defs>
      <use xlink:href="#ArialMT-41"/>
      <use xlink:href="#ArialMT-20" x="61.199219"/>
      <use xlink:href="#ArialMT-70" x="88.982422"/>
      <use xlink:href="#ArialMT-6f" x="144.597656"/>
      <use xlink:href="#ArialMT-73" x="200.212891"/>
      <use xlink:href="#ArialMT-74" x="250.212891"/>
      <use xlink:href="#ArialMT-65" x="277.996094"/>
      <use xlink:href="#ArialMT-72" x="333.611328"/>
      <use xlink:href="#ArialMT-69" x="366.912109"/>
      <use xlink:href="#ArialMT-6f" x="389.128906"/>
      <use xlink:href="#ArialMT-72" x="444.744141"/>
      <use xlink:href="#ArialMT-69" x="478.044922"/>
      <use xlink:href="#ArialMT-20" x="500.261719"/>
      <use xlink:href="#ArialMT-28" x="528.044922"/>
      <use xlink:href="#ArialMT-61" x="561.345703"/>
      <use xlink:href="#ArialMT-6e" x="616.960938"/>
      <use xlink:href="#ArialMT-61" x="672.576172"/>
      <use xlink:href="#ArialMT-6c" x="728.191406"/>
      <use xlink:href="#ArialMT-69" x="750.408203"/>
      <use xlink:href="#ArialMT-74" x="772.625"/>
      <use xlink:href="#ArialMT-69" x="800.408203"/>
      <use xlink:href="#ArialMT-63" x="822.625"/>
      <use xlink:href="#ArialMT-6f" x="872.625"/>
      <use xlink:href="#ArialMT-29" x="928.240234"/>
     </g>
    </g>
   </g>
  </g>
 </g>
 <defs>
  <clipPath id="p4183b7b807">
   <rect x="37.791406" y="7.2" width="558" height="332.64"/>
  </clipPath>
 </defs>
</svg>