<?xml version="1.0" encoding="utf-8" standalone="no"?>
<!DOCTYPE svg PUBLIC "-//W3C//DTD SVG 1.1//EN"
  "http://www.w3.org/Graphics/SVG/1.1/DTD/svg11.dtd">
<svg xmlns:xlink="http://www.w3.org/1999/xlink" width="612.45125pt" height="381.574219pt" viewBox="0 0 612.45125 381.574219" xmlns="http://www.w3.org/2000/svg" version="1.1">
 <metadata>
  <rdf:RDF xmlns:dc="http://purl.org/dc/elements/1.1/" xmlns:cc="http://creativecommons.org/ns#" xmlns:rdf="http://www.w3.org/1999/02/22-rdf-syntax-ns#">
   <cc:Work>
    <dc:type rdf:resource="http://purl.org/dc/dcmitype/StillImage"/>
    <dc:date>2023-05-08T00:42:31.067208</dc:date>
    <dc:format>image/svg+xml</dc:format>
    <dc:creator>
     <cc:Agent>
      <dc:title>Matplotlib v3.7.1, https://matplotlib.org/</dc:title>
     </cc:Agent>
    </dc:creator>
   </cc:Work>
  </rdf:RDF>
 </metadata>
 <defs>
  <style type="text/css">*{stroke-linejoin: round; stroke-linecap: butt}</style>
 </defs>
 <g id="figure_1">
  <g id="patch_1">
   <path d="M 0 381.574219 
L 612.45125 381.574219 
L 612.45125 0 
L 0 0 
z
" style="fill: #ffffff"/>
  </g>
  <g id="axes_1">
   <g id="patch_2">
    <path d="M 47.25125 339.84 
L 605.25125 339.84 
L 605.25125 7.2 
L 47.25125 7.2 
z
" style="fill: #eaeaf2"/>
   </g>
   <g id="matplotlib.axis_1">
    <g id="xtick_1">
     <g id="line2d_1">
      <path d="M 118.734782 339.84 
L 118.734782 7.2 
" clip-path="url(#pd8840e13b4)" style="fill: none; stroke: #ffffff; stroke-linecap: round"/>
     </g>
     <g id="text_1">
      <!-- −4 -->
      <g style="fill: #262626" transform="translate(112.463922 357.213594) scale(0.11 -0.11)">
       <defs>
        <path id="ArialMT-2212" d="M 3381 1997 
L 356 1997 
L 356 2522 
L 3381 2522 
L 3381 1997 
z
" transform="scale(0.015625)"/>
        <path id="ArialMT-34" d="M 2069 0 
L 2069 1097 
L 81 1097 
L 81 1613 
L 2172 4581 
L 2631 4581 
L 2631 1613 
L 3250 1613 
L 3250 1097 
L 2631 1097 
L 2631 0 
L 2069 0 
z
M 2069 1613 
L 2069 3678 
L 634 1613 
L 2069 1613 
z
" transform="scale(0.015625)"/>
       </defs>
       <use xlink:href="#ArialMT-2212"/>
       <use xlink:href="#ArialMT-34" x="58.398438"/>
      </g>
     </g>
    </g>
    <g id="xtick_2">
     <g id="line2d_2">
      <path d="M 210.974572 339.84 
L 210.974572 7.2 
" clip-path="url(#pd8840e13b4)" style="fill: none; stroke: #ffffff; stroke-linecap: round"/>
     </g>
     <g id="text_2">
      <!-- −2 -->
      <g style="fill: #262626" transform="translate(204.703713 357.213594) scale(0.11 -0.11)">
       <defs>
        <path id="ArialMT-32" d="M 3222 541 
L 3222 0 
L 194 0 
Q 188 203 259 391 
Q 375 700 629 1000 
Q 884 1300 1366 1694 
Q 2113 2306 2375 2664 
Q 2638 3022 2638 3341 
Q 2638 3675 2398 3904 
Q 2159 4134 1775 4134 
Q 1369 4134 1125 3890 
Q 881 3647 878 3216 
L 300 3275 
Q 359 3922 746 4261 
Q 1134 4600 1788 4600 
Q 2447 4600 2831 4234 
Q 3216 3869 3216 3328 
Q 3216 3053 3103 2787 
Q 2991 2522 2730 2228 
Q 2469 1934 1863 1422 
Q 1356 997 1212 845 
Q 1069 694 975 541 
L 3222 541 
z
" transform="scale(0.015625)"/>
       </defs>
       <use xlink:href="#ArialMT-2212"/>
       <use xlink:href="#ArialMT-32" x="58.398438"/>
      </g>
     </g>
    </g>
    <g id="xtick_3">
     <g id="line2d_3">
      <path d="M 303.214362 339.84 
L 303.214362 7.2 
" clip-path="url(#pd8840e13b4)" style="fill: none; stroke: #ffffff; stroke-linecap: round"/>
     </g>
     <g id="text_3">
      <!-- 0 -->
      <g style="fill: #262626" transform="translate(300.155847 357.213594) scale(0.11 -0.11)">
       <defs>
        <path id="ArialMT-30" d="M 266 2259 
Q 266 3072 433 3567 
Q 600 4063 929 4331 
Q 1259 4600 1759 4600 
Q 2128 4600 2406 4451 
Q 2684 4303 2865 4023 
Q 3047 3744 3150 3342 
Q 3253 2941 3253 2259 
Q 3253 1453 3087 958 
Q 2922 463 2592 192 
Q 2263 -78 1759 -78 
Q 1097 -78 719 397 
Q 266 969 266 2259 
z
M 844 2259 
Q 844 1131 1108 757 
Q 1372 384 1759 384 
Q 2147 384 2411 759 
Q 2675 1134 2675 2259 
Q 2675 3391 2411 3762 
Q 2147 4134 1753 4134 
Q 1366 4134 1134 3806 
Q 844 3388 844 2259 
z
" transform="scale(0.015625)"/>
       </defs>
       <use xlink:href="#ArialMT-30"/>
      </g>
     </g>
    </g>
    <g id="xtick_4">
     <g id="line2d_4">
      <path d="M 395.454153 339.84 
L 395.454153 7.2 
" clip-path="url(#pd8840e13b4)" style="fill: none; stroke: #ffffff; stroke-linecap: round"/>
     </g>
     <g id="text_4">
      <!-- 2 -->
      <g style="fill: #262626" transform="translate(392.395637 357.213594) scale(0.11 -0.11)">
       <use xlink:href="#ArialMT-32"/>
      </g>
     </g>
    </g>
    <g id="xtick_5">
     <g id="line2d_5">
      <path d="M 487.693943 339.84 
L 487.693943 7.2 
" clip-path="url(#pd8840e13b4)" style="fill: none; stroke: #ffffff; stroke-linecap: round"/>
     </g>
     <g id="text_5">
      <!-- 4 -->
      <g style="fill: #262626" transform="translate(484.635428 357.213594) scale(0.11 -0.11)">
       <use xlink:href="#ArialMT-34"/>
      </g>
     </g>
    </g>
    <g id="xtick_6">
     <g id="line2d_6">
      <path d="M 579.933734 339.84 
L 579.933734 7.2 
" clip-path="url(#pd8840e13b4)" style="fill: none; stroke: #ffffff; stroke-linecap: round"/>
     </g>
     <g id="text_6">
      <!-- 6 -->
      <g style="fill: #262626" transform="translate(576.875218 357.213594) scale(0.11 -0.11)">
       <defs>
        <path id="ArialMT-36" d="M 3184 3459 
L 2625 3416 
Q 2550 3747 2413 3897 
Q 2184 4138 1850 4138 
Q 1581 4138 1378 3988 
Q 1113 3794 959 3422 
Q 806 3050 800 2363 
Q 1003 2672 1297 2822 
Q 1591 2972 1913 2972 
Q 2475 2972 2870 2558 
Q 3266 2144 3266 1488 
Q 3266 1056 3080 686 
Q 2894 316 2569 119 
Q 2244 -78 1831 -78 
Q 1128 -78 684 439 
Q 241 956 241 2144 
Q 241 3472 731 4075 
Q 1159 4600 1884 4600 
Q 2425 4600 2770 4297 
Q 3116 3994 3184 3459 
z
M 888 1484 
Q 888 1194 1011 928 
Q 1134 663 1356 523 
Q 1578 384 1822 384 
Q 2178 384 2434 671 
Q 2691 959 2691 1453 
Q 2691 1928 2437 2201 
Q 2184 2475 1800 2475 
Q 1419 2475 1153 2201 
Q 888 1928 888 1484 
z
" transform="scale(0.015625)"/>
       </defs>
       <use xlink:href="#ArialMT-36"/>
      </g>
     </g>
    </g>
    <g id="text_7">
     <!-- x -->
     <g style="fill: #262626" transform="translate(323.25125 371.989219) scale(0.12 -0.12)">
      <defs>
       <path id="ArialMT-78" d="M 47 0 
L 1259 1725 
L 138 3319 
L 841 3319 
L 1350 2541 
Q 1494 2319 1581 2169 
Q 1719 2375 1834 2534 
L 2394 3319 
L 3066 3319 
L 1919 1756 
L 3153 0 
L 2463 0 
L 1781 1031 
L 1600 1309 
L 728 0 
L 47 0 
z
" transform="scale(0.015625)"/>
      </defs>
      <use xlink:href="#ArialMT-78"/>
     </g>
    </g>
   </g>
   <g id="matplotlib.axis_2">
    <g id="ytick_1">
     <g id="line2d_7">
      <path d="M 47.25125 324.72 
L 605.25125 324.72 
" clip-path="url(#pd8840e13b4)" style="fill: none; stroke: #ffffff; stroke-linecap: round"/>
     </g>
     <g id="text_8">
      <!-- 0.0 -->
      <g style="fill: #262626" transform="translate(22.46125 328.656797) scale(0.11 -0.11)">
       <defs>
        <path id="ArialMT-2e" d="M 581 0 
L 581 641 
L 1222 641 
L 1222 0 
L 581 0 
z
" transform="scale(0.015625)"/>
       </defs>
       <use xlink:href="#ArialMT-30"/>
       <use xlink:href="#ArialMT-2e" x="55.615234"/>
       <use xlink:href="#ArialMT-30" x="83.398438"/>
      </g>
     </g>
    </g>
    <g id="ytick_2">
     <g id="line2d_8">
      <path d="M 47.25125 286.81978 
L 605.25125 286.81978 
" clip-path="url(#pd8840e13b4)" style="fill: none; stroke: #ffffff; stroke-linecap: round"/>
     </g>
     <g id="text_9">
      <!-- 0.2 -->
      <g style="fill: #262626" transform="translate(22.46125 290.756577) scale(0.11 -0.11)">
       <use xlink:href="#ArialMT-30"/>
       <use xlink:href="#ArialMT-2e" x="55.615234"/>
       <use xlink:href="#ArialMT-32" x="83.398438"/>
      </g>
     </g>
    </g>
    <g id="ytick_3">
     <g id="line2d_9">
      <path d="M 47.25125 248.919561 
L 605.25125 248.919561 
" clip-path="url(#pd8840e13b4)" style="fill: none; stroke: #ffffff; stroke-linecap: round"/>
     </g>
     <g id="text_10">
      <!-- 0.4 -->
      <g style="fill: #262626" transform="translate(22.46125 252.856358) scale(0.11 -0.11)">
       <use xlink:href="#ArialMT-30"/>
       <use xlink:href="#ArialMT-2e" x="55.615234"/>
       <use xlink:href="#ArialMT-34" x="83.398438"/>
      </g>
     </g>
    </g>
    <g id="ytick_4">
     <g id="line2d_10">
      <path d="M 47.25125 211.019341 
L 605.25125 211.019341 
" clip-path="url(#pd8840e13b4)" style="fill: none; stroke: #ffffff; stroke-linecap: round"/>
     </g>
     <g id="text_11">
      <!-- 0.6 -->
      <g style="fill: #262626" transform="translate(22.46125 214.956138) scale(0.11 -0.11)">
       <use xlink:href="#ArialMT-30"/>
       <use xlink:href="#ArialMT-2e" x="55.615234"/>
       <use xlink:href="#ArialMT-36" x="83.398438"/>
      </g>
     </g>
    </g>
    <g id="ytick_5">
     <g id="line2d_11">
      <path d="M 47.25125 173.119122 
L 605.25125 173.119122 
" clip-path="url(#pd8840e13b4)" style="fill: none; stroke: #ffffff; stroke-linecap: round"/>
     </g>
     <g id="text_12">
      <!-- 0.8 -->
      <g style="fill: #262626" transform="translate(22.46125 177.055919) scale(0.11 -0.11)">
       <defs>
        <path id="ArialMT-38" d="M 1131 2484 
Q 781 2613 612 2850 
Q 444 3088 444 3419 
Q 444 3919 803 4259 
Q 1163 4600 1759 4600 
Q 2359 4600 2725 4251 
Q 3091 3903 3091 3403 
Q 3091 3084 2923 2848 
Q 2756 2613 2416 2484 
Q 2838 2347 3058 2040 
Q 3278 1734 3278 1309 
Q 3278 722 2862 322 
Q 2447 -78 1769 -78 
Q 1091 -78 675 323 
Q 259 725 259 1325 
Q 259 1772 486 2073 
Q 713 2375 1131 2484 
z
M 1019 3438 
Q 1019 3113 1228 2906 
Q 1438 2700 1772 2700 
Q 2097 2700 2305 2904 
Q 2513 3109 2513 3406 
Q 2513 3716 2298 3927 
Q 2084 4138 1766 4138 
Q 1444 4138 1231 3931 
Q 1019 3725 1019 3438 
z
M 838 1322 
Q 838 1081 952 856 
Q 1066 631 1291 507 
Q 1516 384 1775 384 
Q 2178 384 2440 643 
Q 2703 903 2703 1303 
Q 2703 1709 2433 1975 
Q 2163 2241 1756 2241 
Q 1359 2241 1098 1978 
Q 838 1716 838 1322 
z
" transform="scale(0.015625)"/>
       </defs>
       <use xlink:href="#ArialMT-30"/>
       <use xlink:href="#ArialMT-2e" x="55.615234"/>
       <use xlink:href="#ArialMT-38" x="83.398438"/>
      </g>
     </g>
    </g>
    <g id="ytick_6">
     <g id="line2d_12">
      <path d="M 47.25125 135.218902 
L 605.25125 135.218902 
" clip-path="url(#pd8840e13b4)" style="fill: none; stroke: #ffffff; stroke-linecap: round"/>
     </g>
     <g id="text_13">
      <!-- 1.0 -->
      <g style="fill: #262626" transform="translate(22.46125 139.155699) scale(0.11 -0.11)">
       <defs>
        <path id="ArialMT-31" d="M 2384 0 
L 1822 0 
L 1822 3584 
Q 1619 3391 1289 3197 
Q 959 3003 697 2906 
L 697 3450 
Q 1169 3672 1522 3987 
Q 1875 4303 2022 4600 
L 2384 4600 
L 2384 0 
z
" transform="scale(0.015625)"/>
       </defs>
       <use xlink:href="#ArialMT-31"/>
       <use xlink:href="#ArialMT-2e" x="55.615234"/>
       <use xlink:href="#ArialMT-30" x="83.398438"/>
      </g>
     </g>
    </g>
    <g id="ytick_7">
     <g id="line2d_13">
      <path d="M 47.25125 97.318683 
L 605.25125 97.318683 
" clip-path="url(#pd8840e13b4)" style="fill: none; stroke: #ffffff; stroke-linecap: round"/>
     </g>
     <g id="text_14">
      <!-- 1.2 -->
      <g style="fill: #262626" transform="translate(22.46125 101.25548) scale(0.11 -0.11)">
       <use xlink:href="#ArialMT-31"/>
       <use xlink:href="#ArialMT-2e" x="55.615234"/>
       <use xlink:href="#ArialMT-32" x="83.398438"/>
      </g>
     </g>
    </g>
    <g id="ytick_8">
     <g id="line2d_14">
      <path d="M 47.25125 59.418463 
L 605.25125 59.418463 
" clip-path="url(#pd8840e13b4)" style="fill: none; stroke: #ffffff; stroke-linecap: round"/>
     </g>
     <g id="text_15">
      <!-- 1.4 -->
      <g style="fill: #262626" transform="translate(22.46125 63.35526) scale(0.11 -0.11)">
       <use xlink:href="#ArialMT-31"/>
       <use xlink:href="#ArialMT-2e" x="55.615234"/>
       <use xlink:href="#ArialMT-34" x="83.398438"/>
      </g>
     </g>
    </g>
    <g id="ytick_9">
     <g id="line2d_15">
      <path d="M 47.25125 21.518244 
L 605.25125 21.518244 
" clip-path="url(#pd8840e13b4)" style="fill: none; stroke: #ffffff; stroke-linecap: round"/>
     </g>
     <g id="text_16">
      <!-- 1.6 -->
      <g style="fill: #262626" transform="translate(22.46125 25.455041) scale(0.11 -0.11)">
       <use xlink:href="#ArialMT-31"/>
       <use xlink:href="#ArialMT-2e" x="55.615234"/>
       <use xlink:href="#ArialMT-36" x="83.398438"/>
      </g>
     </g>
    </g>
    <g id="text_17">
     <!-- f(x) -->
     <g style="fill: #262626" transform="translate(15.935625 182.1825) rotate(-90) scale(0.12 -0.12)">
      <defs>
       <path id="ArialMT-66" d="M 556 0 
L 556 2881 
L 59 2881 
L 59 3319 
L 556 3319 
L 556 3672 
Q 556 4006 616 4169 
Q 697 4388 901 4523 
Q 1106 4659 1475 4659 
Q 1713 4659 2000 4603 
L 1916 4113 
Q 1741 4144 1584 4144 
Q 1328 4144 1222 4034 
Q 1116 3925 1116 3625 
L 1116 3319 
L 1763 3319 
L 1763 2881 
L 1116 2881 
L 1116 0 
L 556 0 
z
" transform="scale(0.015625)"/>
       <path id="ArialMT-28" d="M 1497 -1347 
Q 1031 -759 709 28 
Q 388 816 388 1659 
Q 388 2403 628 3084 
Q 909 3875 1497 4659 
L 1900 4659 
Q 1522 4009 1400 3731 
Q 1209 3300 1100 2831 
Q 966 2247 966 1656 
Q 966 153 1900 -1347 
L 1497 -1347 
z
" transform="scale(0.015625)"/>
       <path id="ArialMT-29" d="M 791 -1347 
L 388 -1347 
Q 1322 153 1322 1656 
Q 1322 2244 1188 2822 
Q 1081 3291 891 3722 
Q 769 4003 388 4659 
L 791 4659 
Q 1378 3875 1659 3084 
Q 1900 2403 1900 1659 
Q 1900 816 1576 28 
Q 1253 -759 791 -1347 
z
" transform="scale(0.015625)"/>
      </defs>
      <use xlink:href="#ArialMT-66"/>
      <use xlink:href="#ArialMT-28" x="27.783203"/>
      <use xlink:href="#ArialMT-78" x="61.083984"/>
      <use xlink:href="#ArialMT-29" x="111.083984"/>
     </g>
    </g>
   </g>
   <g id="line2d_16">
    <path d="M 72.614886 324.72 
L 211.205171 324.610129 
L 214.710283 324.368216 
L 217.016278 324.000744 
L 218.814954 323.497924 
L 220.336911 322.842242 
L 221.674388 322.020251 
L 222.873505 321.024046 
L 224.026502 319.771727 
L 225.13338 318.233269 
L 226.240257 316.294501 
L 227.347135 313.876665 
L 228.454012 310.893008 
L 229.56089 307.250113 
L 230.713887 302.648688 
L 231.866884 297.112744 
L 233.066002 290.245406 
L 234.311239 281.794646 
L 235.602596 271.496361 
L 236.986193 258.6323 
L 238.462029 242.777102 
L 240.076226 222.975716 
L 241.921022 197.512114 
L 244.319256 161.039126 
L 249.484684 81.503828 
L 251.098881 60.561145 
L 252.390238 46.470374 
L 253.497115 36.685967 
L 254.419513 30.349657 
L 255.203551 26.359453 
L 255.84923 24.078464 
L 256.402669 22.86383 
L 256.817748 22.407079 
L 257.140587 22.322419 
L 257.463426 22.474789 
L 257.832385 22.938681 
L 258.293584 23.950965 
L 258.847023 25.793225 
L 259.492702 28.791271 
L 260.27674 33.621224 
L 261.153018 40.485772 
L 262.213776 50.705056 
L 263.459013 65.053363 
L 264.980969 85.394956 
L 267.010245 115.800159 
L 273.23643 211.225924 
L 275.081226 235.156252 
L 276.741543 253.914078 
L 278.263499 268.666721 
L 279.693216 280.421508 
L 281.030693 289.666949 
L 282.32205 297.112744 
L 283.567287 303.0497 
L 284.766404 307.744848 
L 285.965522 311.56578 
L 287.118519 314.530654 
L 288.271516 316.9058 
L 289.424514 318.786925 
L 290.577511 320.260027 
L 291.776628 321.440409 
L 293.021866 322.363865 
L 294.405462 323.110534 
L 295.973539 323.693086 
L 297.818335 324.128895 
L 300.124329 324.434114 
L 303.398842 324.624857 
L 309.348308 324.709514 
L 339.095641 324.72 
L 579.887614 324.72 
L 579.887614 324.72 
" clip-path="url(#pd8840e13b4)" style="fill: none; stroke: #0173b2; stroke-width: 1.5; stroke-linecap: round"/>
   </g>
   <g id="line2d_17">
    <path d="M 72.614886 324.72 
L 192.526614 324.609351 
L 199.951917 324.362864 
L 204.886746 323.985264 
L 208.668577 323.481868 
L 211.85085 322.838853 
L 214.618044 322.05522 
L 217.108518 321.11895 
L 219.368393 320.035049 
L 221.489908 318.774495 
L 223.519183 317.311445 
L 225.502339 315.602885 
L 227.439375 313.633752 
L 229.33029 311.392955 
L 231.221206 308.806601 
L 233.158242 305.768531 
L 235.095277 302.309144 
L 237.078433 298.306072 
L 239.107708 293.707093 
L 241.229223 288.343191 
L 243.489098 282.004858 
L 245.887333 274.595723 
L 248.516167 265.727432 
L 251.51396 254.802116 
L 255.434151 239.604304 
L 263.182293 209.394858 
L 265.903367 199.804006 
L 268.117122 192.778128 
L 270.054158 187.349526 
L 271.760594 183.212112 
L 273.28255 180.086716 
L 274.666147 177.742213 
L 275.911384 176.057972 
L 277.018262 174.911852 
L 278.0329 174.158526 
L 279.001417 173.708882 
L 279.923815 173.52756 
L 280.800093 173.579259 
L 281.676371 173.848955 
L 282.598769 174.36706 
L 283.567287 175.166907 
L 284.628045 176.338677 
L 285.781042 177.95459 
L 287.072399 180.173181 
L 288.455996 183.00706 
L 290.024072 186.753423 
L 291.776628 191.554134 
L 293.759784 197.673462 
L 296.065779 205.549712 
L 298.925212 216.159734 
L 303.398842 233.746208 
L 309.025469 255.668579 
L 312.253862 267.335659 
L 314.974936 276.365782 
L 317.46541 283.880838 
L 319.771405 290.155005 
L 321.98516 295.545196 
L 324.106675 300.133796 
L 326.13595 304.010646 
L 328.119106 307.338551 
L 330.102261 310.239174 
L 332.039297 312.690602 
L 334.022452 314.843527 
L 336.005608 316.670891 
L 338.034883 318.241082 
L 340.156398 319.598735 
L 342.370153 320.749065 
L 344.722268 321.720026 
L 347.304982 322.541293 
L 350.164416 323.213249 
L 353.438928 323.750756 
L 357.405239 324.167138 
L 362.432308 324.459905 
L 369.673131 324.639247 
L 383.32462 324.713193 
L 472.981697 324.72 
L 579.887614 324.72 
L 579.887614 324.72 
" clip-path="url(#pd8840e13b4)" style="fill: none; stroke: #de8f05; stroke-width: 1.5; stroke-linecap: round"/>
   </g>
   <g id="line2d_18">
    <path d="M 72.614886 324.719718 
L 136.8599 324.606932 
L 152.494545 324.3574 
L 163.009881 323.975724 
L 171.219222 323.461483 
L 178.091087 322.813495 
L 184.086673 322.030079 
L 189.482701 321.105772 
L 194.463649 320.030273 
L 199.121759 318.799436 
L 203.549269 317.400838 
L 207.792299 315.828678 
L 211.94309 314.052137 
L 216.001641 312.071789 
L 220.014071 309.866311 
L 224.026502 307.407794 
L 228.131173 304.629154 
L 232.328083 301.517227 
L 236.755593 297.951769 
L 241.505943 293.833034 
L 246.85585 288.88897 
L 253.635475 282.298989 
L 268.255482 267.997311 
L 273.098071 263.635889 
L 277.156622 260.272961 
L 280.753973 257.573837 
L 284.028486 255.386494 
L 287.118519 253.586686 
L 290.024072 252.149516 
L 292.791266 251.026229 
L 295.46622 250.179375 
L 298.048934 249.592679 
L 300.585528 249.242712 
L 303.076003 249.12034 
L 305.566477 249.218254 
L 308.103071 249.54353 
L 310.639665 250.093492 
L 313.2685 250.895232 
L 315.943453 251.945306 
L 318.756767 253.293298 
L 321.70844 254.960349 
L 324.844593 256.993619 
L 328.211346 259.447274 
L 331.900937 262.416707 
L 336.097848 266.088518 
L 341.171036 270.838253 
L 348.596339 278.132685 
L 359.618994 288.932746 
L 365.291741 294.162863 
L 370.18045 298.374321 
L 374.7002 301.978163 
L 378.98935 305.116036 
L 383.140141 307.879078 
L 387.198692 310.317011 
L 391.257242 312.497044 
L 395.315793 314.427126 
L 399.466584 316.155106 
L 403.709614 317.681213 
L 408.137124 319.036065 
L 412.795233 320.225887 
L 417.730062 321.254656 
L 423.07997 322.139313 
L 428.983317 322.88473 
L 435.624581 323.493535 
L 443.372724 323.973459 
L 452.873422 324.329199 
L 465.510274 324.565293 
L 485.434068 324.689185 
L 539.209866 324.719844 
L 579.887614 324.719999 
L 579.887614 324.719999 
" clip-path="url(#pd8840e13b4)" style="fill: none; stroke: #029e73; stroke-width: 1.5; stroke-linecap: round"/>
   </g>
   <g id="line2d_19">
    <path d="M 72.614886 324.30008 
L 94.337357 323.892148 
L 111.770677 323.348769 
L 126.759643 322.663461 
L 140.134413 321.832483 
L 152.402305 320.850224 
L 163.932279 319.705874 
L 174.954934 318.389913 
L 185.700869 316.883666 
L 196.354565 315.165636 
L 207.146621 313.198694 
L 218.353755 310.927719 
L 230.529408 308.228632 
L 245.011055 304.779983 
L 286.6112 294.722648 
L 296.988176 292.542065 
L 306.073796 290.856809 
L 314.375377 289.539618 
L 322.215759 288.518842 
L 329.733302 287.763891 
L 337.020246 287.255344 
L 344.168829 286.979224 
L 351.271293 286.928334 
L 358.373757 287.10108 
L 365.522341 287.497665 
L 372.809284 288.124548 
L 380.372947 289.000635 
L 388.259449 290.14029 
L 396.65327 291.580544 
L 405.831129 293.385147 
L 416.300345 295.677186 
L 429.444516 298.796161 
L 473.857975 309.523592 
L 485.849147 312.076932 
L 496.964042 314.218596 
L 507.709978 316.063897 
L 518.363673 317.668214 
L 529.155729 319.067861 
L 540.270624 320.28353 
L 551.892837 321.329081 
L 564.299089 322.218992 
L 577.812218 322.961353 
L 579.887614 323.057107 
L 579.887614 323.057107 
" clip-path="url(#pd8840e13b4)" style="fill: none; stroke: #d55e00; stroke-width: 1.5; stroke-linecap: round"/>
   </g>
   <g id="patch_3">
    <path d="M 47.25125 339.84 
L 47.25125 7.2 
" style="fill: none; stroke: #ffffff; stroke-width: 1.25; stroke-linejoin: miter; stroke-linecap: square"/>
   </g>
   <g id="patch_4">
    <path d="M 605.25125 339.84 
L 605.25125 7.2 
" style="fill: none; stroke: #ffffff; stroke-width: 1.25; stroke-linejoin: miter; stroke-linecap: square"/>
   </g>
   <g id="patch_5">
    <path d="M 47.25125 339.84 
L 605.25125 339.84 
" style="fill: none; stroke: #ffffff; stroke-width: 1.25; stroke-linejoin: miter; stroke-linecap: square"/>
   </g>
   <g id="patch_6">
    <path d="M 47.25125 7.2 
L 605.25125 7.2 
" style="fill: none; stroke: #ffffff; stroke-width: 1.25; stroke-linejoin: miter; stroke-linecap: square"/>
   </g>
   <g id="legend_1">
    <g id="patch_7">
     <path d="M 477.87125 79.36 
L 597.55125 79.36 
Q 599.75125 79.36 599.75125 77.16 
L 599.75125 14.9 
Q 599.75125 12.7 597.55125 12.7 
L 477.87125 12.7 
Q 475.67125 12.7 475.67125 14.9 
L 475.67125 77.16 
Q 475.67125 79.36 477.87125 79.36 
z
" style="fill: #eaeaf2; opacity: 0.8; stroke: #cccccc; stroke-linejoin: miter"/>
    </g>
    <g id="line2d_20">
     <path d="M 480.07125 21.17 
L 491.07125 21.17 
L 502.07125 21.17 
" style="fill: none; stroke: #0173b2; stroke-width: 1.5; stroke-linecap: round"/>
    </g>
    <g id="text_18">
     <!-- $\mu$ = -1.0, $\sigma$ = 0.25 -->
     <g style="fill: #262626" transform="translate(510.87125 25.02) scale(0.11 -0.11)">
      <defs>
       <path id="Cmmi10-b9" d="M 178 -1203 
Q 178 -1166 184 -1153 
L 1125 2625 
Q 1153 2716 1226 2772 
Q 1300 2828 1394 2828 
Q 1475 2828 1531 2779 
Q 1588 2731 1588 2650 
Q 1588 2631 1586 2620 
Q 1584 2609 1581 2597 
L 1203 1100 
Q 1141 834 1141 641 
Q 1141 403 1253 250 
Q 1366 97 1594 97 
Q 2059 97 2413 678 
Q 2416 684 2417 687 
Q 2419 691 2419 697 
L 2881 2553 
Q 2903 2638 2981 2698 
Q 3059 2759 3150 2759 
Q 3225 2759 3283 2709 
Q 3341 2659 3341 2578 
Q 3341 2541 3334 2528 
L 2875 684 
Q 2828 503 2828 372 
Q 2828 97 3016 97 
Q 3216 97 3317 344 
Q 3419 591 3494 941 
Q 3506 978 3547 978 
L 3622 978 
Q 3647 978 3664 958 
Q 3681 938 3681 916 
Q 3569 469 3436 198 
Q 3303 -72 3003 -72 
Q 2791 -72 2627 50 
Q 2463 172 2413 378 
Q 2253 178 2039 53 
Q 1825 -72 1588 -72 
Q 1188 -72 959 116 
L 634 -1178 
Q 616 -1269 541 -1325 
Q 466 -1381 372 -1381 
Q 294 -1381 236 -1332 
Q 178 -1284 178 -1203 
z
" transform="scale(0.015625)"/>
       <path id="ArialMT-20" transform="scale(0.015625)"/>
       <path id="ArialMT-3d" d="M 3381 2694 
L 356 2694 
L 356 3219 
L 3381 3219 
L 3381 2694 
z
M 3381 1303 
L 356 1303 
L 356 1828 
L 3381 1828 
L 3381 1303 
z
" transform="scale(0.015625)"/>
       <path id="ArialMT-2d" d="M 203 1375 
L 203 1941 
L 1931 1941 
L 1931 1375 
L 203 1375 
z
" transform="scale(0.015625)"/>
       <path id="ArialMT-2c" d="M 569 0 
L 569 641 
L 1209 641 
L 1209 0 
Q 1209 -353 1084 -570 
Q 959 -788 688 -906 
L 531 -666 
Q 709 -588 793 -436 
Q 878 -284 888 0 
L 569 0 
z
" transform="scale(0.015625)"/>
       <path id="Cmmi10-be" d="M 1197 -72 
Q 913 -72 692 64 
Q 472 200 351 431 
Q 231 663 231 941 
Q 231 1238 365 1566 
Q 500 1894 733 2166 
Q 966 2438 1259 2598 
Q 1553 2759 1863 2759 
L 3475 2759 
Q 3541 2759 3587 2715 
Q 3634 2672 3634 2597 
Q 3634 2503 3567 2433 
Q 3500 2363 3406 2363 
L 2625 2363 
Q 2809 2088 2809 1697 
Q 2809 1375 2684 1062 
Q 2559 750 2337 492 
Q 2116 234 1820 81 
Q 1525 -72 1197 -72 
z
M 1203 97 
Q 1553 97 1823 370 
Q 2094 644 2237 1039 
Q 2381 1434 2381 1772 
Q 2381 2047 2229 2205 
Q 2078 2363 1806 2363 
Q 1434 2363 1173 2113 
Q 913 1863 783 1484 
Q 653 1106 653 756 
Q 653 481 798 289 
Q 944 97 1203 97 
z
" transform="scale(0.015625)"/>
       <path id="ArialMT-35" d="M 266 1200 
L 856 1250 
Q 922 819 1161 601 
Q 1400 384 1738 384 
Q 2144 384 2425 690 
Q 2706 997 2706 1503 
Q 2706 1984 2436 2262 
Q 2166 2541 1728 2541 
Q 1456 2541 1237 2417 
Q 1019 2294 894 2097 
L 366 2166 
L 809 4519 
L 3088 4519 
L 3088 3981 
L 1259 3981 
L 1013 2750 
Q 1425 3038 1878 3038 
Q 2478 3038 2890 2622 
Q 3303 2206 3303 1553 
Q 3303 931 2941 478 
Q 2500 -78 1738 -78 
Q 1113 -78 717 272 
Q 322 622 266 1200 
z
" transform="scale(0.015625)"/>
      </defs>
      <use xlink:href="#Cmmi10-b9" transform="translate(0 0.125)"/>
      <use xlink:href="#ArialMT-20" transform="translate(60.205078 0.125)"/>
      <use xlink:href="#ArialMT-3d" transform="translate(87.988281 0.125)"/>
      <use xlink:href="#ArialMT-20" transform="translate(146.386719 0.125)"/>
      <use xlink:href="#ArialMT-2d" transform="translate(174.169922 0.125)"/>
      <use xlink:href="#ArialMT-31" transform="translate(207.470703 0.125)"/>
      <use xlink:href="#ArialMT-2e" transform="translate(263.085938 0.125)"/>
      <use xlink:href="#ArialMT-30" transform="translate(290.869141 0.125)"/>
      <use xlink:href="#ArialMT-2c" transform="translate(346.484375 0.125)"/>
      <use xlink:href="#ArialMT-20" transform="translate(374.267578 0.125)"/>
      <use xlink:href="#Cmmi10-be" transform="translate(402.050781 0.125)"/>
      <use xlink:href="#ArialMT-20" transform="translate(459.130859 0.125)"/>
      <use xlink:href="#ArialMT-3d" transform="translate(486.914062 0.125)"/>
      <use xlink:href="#ArialMT-20" transform="translate(545.3125 0.125)"/>
      <use xlink:href="#ArialMT-30" transform="translate(573.095703 0.125)"/>
      <use xlink:href="#ArialMT-2e" transform="translate(628.710938 0.125)"/>
      <use xlink:href="#ArialMT-32" transform="translate(656.494141 0.125)"/>
      <use xlink:href="#ArialMT-35" transform="translate(712.109375 0.125)"/>
     </g>
    </g>
    <g id="line2d_21">
     <path d="M 480.07125 37.01 
L 491.07125 37.01 
L 502.07125 37.01 
" style="fill: none; stroke: #de8f05; stroke-width: 1.5; stroke-linecap: round"/>
    </g>
    <g id="text_19">
     <!-- $\mu$ = -0.5, $\sigma$ = 0.5 -->
     <g style="fill: #262626" transform="translate(510.87125 40.86) scale(0.11 -0.11)">
      <use xlink:href="#Cmmi10-b9" transform="translate(0 0.125)"/>
      <use xlink:href="#ArialMT-20" transform="translate(60.205078 0.125)"/>
      <use xlink:href="#ArialMT-3d" transform="translate(87.988281 0.125)"/>
      <use xlink:href="#ArialMT-20" transform="translate(146.386719 0.125)"/>
      <use xlink:href="#ArialMT-2d" transform="translate(174.169922 0.125)"/>
      <use xlink:href="#ArialMT-30" transform="translate(207.470703 0.125)"/>
      <use xlink:href="#ArialMT-2e" transform="translate(263.085938 0.125)"/>
      <use xlink:href="#ArialMT-35" transform="translate(290.869141 0.125)"/>
      <use xlink:href="#ArialMT-2c" transform="translate(346.484375 0.125)"/>
      <use xlink:href="#ArialMT-20" transform="translate(374.267578 0.125)"/>
      <use xlink:href="#Cmmi10-be" transform="translate(402.050781 0.125)"/>
      <use xlink:href="#ArialMT-20" transform="translate(459.130859 0.125)"/>
      <use xlink:href="#ArialMT-3d" transform="translate(486.914062 0.125)"/>
      <use xlink:href="#ArialMT-20" transform="translate(545.3125 0.125)"/>
      <use xlink:href="#ArialMT-30" transform="translate(573.095703 0.125)"/>
      <use xlink:href="#ArialMT-2e" transform="translate(628.710938 0.125)"/>
      <use xlink:href="#ArialMT-35" transform="translate(656.494141 0.125)"/>
     </g>
    </g>
    <g id="line2d_22">
     <path d="M 480.07125 52.85 
L 491.07125 52.85 
L 502.07125 52.85 
" style="fill: none; stroke: #029e73; stroke-width: 1.5; stroke-linecap: round"/>
    </g>
    <g id="text_20">
     <!-- $\mu$ = 0.0, $\sigma$ = 1 -->
     <g style="fill: #262626" transform="translate(510.87125 56.7) scale(0.11 -0.11)">
      <use xlink:href="#Cmmi10-b9" transform="translate(0 0.125)"/>
      <use xlink:href="#ArialMT-20" transform="translate(60.205078 0.125)"/>
      <use xlink:href="#ArialMT-3d" transform="translate(87.988281 0.125)"/>
      <use xlink:href="#ArialMT-20" transform="translate(146.386719 0.125)"/>
      <use xlink:href="#ArialMT-30" transform="translate(174.169922 0.125)"/>
      <use xlink:href="#ArialMT-2e" transform="translate(229.785156 0.125)"/>
      <use xlink:href="#ArialMT-30" transform="translate(257.568359 0.125)"/>
      <use xlink:href="#ArialMT-2c" transform="translate(313.183594 0.125)"/>
      <use xlink:href="#ArialMT-20" transform="translate(340.966797 0.125)"/>
      <use xlink:href="#Cmmi10-be" transform="translate(368.75 0.125)"/>
      <use xlink:href="#ArialMT-20" transform="translate(425.830078 0.125)"/>
      <use xlink:href="#ArialMT-3d" transform="translate(453.613281 0.125)"/>
      <use xlink:href="#ArialMT-20" transform="translate(512.011719 0.125)"/>
      <use xlink:href="#ArialMT-31" transform="translate(539.794922 0.125)"/>
     </g>
    </g>
    <g id="line2d_23">
     <path d="M 480.07125 68.69 
L 491.07125 68.69 
L 502.07125 68.69 
" style="fill: none; stroke: #d55e00; stroke-width: 1.5; stroke-linecap: round"/>
    </g>
    <g id="text_21">
     <!-- $\mu$ = 1.0, $\sigma$ = 2 -->
     <g style="fill: #262626" transform="translate(510.87125 72.54) scale(0.11 -0.11)">
      <use xlink:href="#Cmmi10-b9" transform="translate(0 0.125)"/>
      <use xlink:href="#ArialMT-20" transform="translate(60.205078 0.125)"/>
      <use xlink:href="#ArialMT-3d" transform="translate(87.988281 0.125)"/>
      <use xlink:href="#ArialMT-20" transform="translate(146.386719 0.125)"/>
      <use xlink:href="#ArialMT-31" transform="translate(174.169922 0.125)"/>
      <use xlink:href="#ArialMT-2e" transform="translate(229.785156 0.125)"/>
      <use xlink:href="#ArialMT-30" transform="translate(257.568359 0.125)"/>
      <use xlink:href="#ArialMT-2c" transform="translate(313.183594 0.125)"/>
      <use xlink:href="#ArialMT-20" transform="translate(340.966797 0.125)"/>
      <use xlink:href="#Cmmi10-be" transform="translate(368.75 0.125)"/>
      <use xlink:href="#ArialMT-20" transform="translate(425.830078 0.125)"/>
      <use xlink:href="#ArialMT-3d" transform="translate(453.613281 0.125)"/>
      <use xlink:href="#ArialMT-20" transform="translate(512.011719 0.125)"/>
      <use xlink:href="#ArialMT-32" transform="translate(539.794922 0.125)"/>
     </g>
    </g>
   </g>
  </g>
 </g>
 <defs>
  <clipPath id="pd8840e13b4">
   <rect x="47.25125" y="7.2" width="558" height="332.64"/>
  </clipPath>
 </defs>
</svg>