<?xml version="1.0" encoding="utf-8" standalone="no"?>
<!DOCTYPE svg PUBLIC "-//W3C//DTD SVG 1.1//EN"
  "http://www.w3.org/Graphics/SVG/1.1/DTD/svg11.dtd">
<svg xmlns:xlink="http://www.w3.org/1999/xlink" width="594.441719pt" height="366.599844pt" viewBox="0 0 594.441719 366.599844" xmlns="http://www.w3.org/2000/svg" version="1.1">
 <metadata>
  <rdf:RDF xmlns:dc="http://purl.org/dc/elements/1.1/" xmlns:cc="http://creativecommons.org/ns#" xmlns:rdf="http://www.w3.org/1999/02/22-rdf-syntax-ns#">
   <cc:Work>
    <dc:type rdf:resource="http://purl.org/dc/dcmitype/StillImage"/>
    <dc:date>2023-05-10T05:45:55.934570</dc:date>
    <dc:format>image/svg+xml</dc:format>
    <dc:creator>
     <cc:Agent>
      <dc:title>Matplotlib v3.7.1, https://matplotlib.org/</dc:title>
     </cc:Agent>
    </dc:creator>
   </cc:Work>
  </rdf:RDF>
 </metadata>
 <defs>
  <style type="text/css">*{stroke-linejoin: round; stroke-linecap: butt}</style>
 </defs>
 <g id="figure_1">
  <g id="patch_1">
   <path d="M 0 366.599844 
L 594.441719 366.599844 
L 594.441719 0 
L 0 0 
z
" style="fill: #ffffff"/>
  </g>
  <g id="axes_1">
   <g id="patch_2">
    <path d="M 29.241719 339.84 
L 587.241719 339.84 
L 587.241719 7.2 
L 29.241719 7.2 
z
" style="fill: #eaeaf2"/>
   </g>
   <g id="matplotlib.axis_1">
    <g id="xtick_1">
     <g id="line2d_1">
      <path d="M 94.302854 339.84 
L 94.302854 7.2 
" clip-path="url(#p51cc9ab5e4)" style="fill: none; stroke: #ffffff; stroke-linecap: round"/>
     </g>
     <g id="text_1">
      <!-- −1.5 -->
      <g style="fill: #262626" transform="translate(83.44551 357.213594) scale(0.11 -0.11)">
       <defs>
        <path id="ArialMT-2212" d="M 3381 1997 
L 356 1997 
L 356 2522 
L 3381 2522 
L 3381 1997 
z
" transform="scale(0.015625)"/>
        <path id="ArialMT-31" d="M 2384 0 
L 1822 0 
L 1822 3584 
Q 1619 3391 1289 3197 
Q 959 3003 697 2906 
L 697 3450 
Q 1169 3672 1522 3987 
Q 1875 4303 2022 4600 
L 2384 4600 
L 2384 0 
z
" transform="scale(0.015625)"/>
        <path id="ArialMT-2e" d="M 581 0 
L 581 641 
L 1222 641 
L 1222 0 
L 581 0 
z
" transform="scale(0.015625)"/>
        <path id="ArialMT-35" d="M 266 1200 
L 856 1250 
Q 922 819 1161 601 
Q 1400 384 1738 384 
Q 2144 384 2425 690 
Q 2706 997 2706 1503 
Q 2706 1984 2436 2262 
Q 2166 2541 1728 2541 
Q 1456 2541 1237 2417 
Q 1019 2294 894 2097 
L 366 2166 
L 809 4519 
L 3088 4519 
L 3088 3981 
L 1259 3981 
L 1013 2750 
Q 1425 3038 1878 3038 
Q 2478 3038 2890 2622 
Q 3303 2206 3303 1553 
Q 3303 931 2941 478 
Q 2500 -78 1738 -78 
Q 1113 -78 717 272 
Q 322 622 266 1200 
z
" transform="scale(0.015625)"/>
       </defs>
       <use xlink:href="#ArialMT-2212"/>
       <use xlink:href="#ArialMT-31" x="58.398438"/>
       <use xlink:href="#ArialMT-2e" x="114.013672"/>
       <use xlink:href="#ArialMT-35" x="141.796875"/>
      </g>
     </g>
    </g>
    <g id="xtick_2">
     <g id="line2d_2">
      <path d="M 168.979675 339.84 
L 168.979675 7.2 
" clip-path="url(#p51cc9ab5e4)" style="fill: none; stroke: #ffffff; stroke-linecap: round"/>
     </g>
     <g id="text_2">
      <!-- −1.0 -->
      <g style="fill: #262626" transform="translate(158.122332 357.213594) scale(0.11 -0.11)">
       <defs>
        <path id="ArialMT-30" d="M 266 2259 
Q 266 3072 433 3567 
Q 600 4063 929 4331 
Q 1259 4600 1759 4600 
Q 2128 4600 2406 4451 
Q 2684 4303 2865 4023 
Q 3047 3744 3150 3342 
Q 3253 2941 3253 2259 
Q 3253 1453 3087 958 
Q 2922 463 2592 192 
Q 2263 -78 1759 -78 
Q 1097 -78 719 397 
Q 266 969 266 2259 
z
M 844 2259 
Q 844 1131 1108 757 
Q 1372 384 1759 384 
Q 2147 384 2411 759 
Q 2675 1134 2675 2259 
Q 2675 3391 2411 3762 
Q 2147 4134 1753 4134 
Q 1366 4134 1134 3806 
Q 844 3388 844 2259 
z
" transform="scale(0.015625)"/>
       </defs>
       <use xlink:href="#ArialMT-2212"/>
       <use xlink:href="#ArialMT-31" x="58.398438"/>
       <use xlink:href="#ArialMT-2e" x="114.013672"/>
       <use xlink:href="#ArialMT-30" x="141.796875"/>
      </g>
     </g>
    </g>
    <g id="xtick_3">
     <g id="line2d_3">
      <path d="M 243.656497 339.84 
L 243.656497 7.2 
" clip-path="url(#p51cc9ab5e4)" style="fill: none; stroke: #ffffff; stroke-linecap: round"/>
     </g>
     <g id="text_3">
      <!-- −0.5 -->
      <g style="fill: #262626" transform="translate(232.799153 357.213594) scale(0.11 -0.11)">
       <use xlink:href="#ArialMT-2212"/>
       <use xlink:href="#ArialMT-30" x="58.398438"/>
       <use xlink:href="#ArialMT-2e" x="114.013672"/>
       <use xlink:href="#ArialMT-35" x="141.796875"/>
      </g>
     </g>
    </g>
    <g id="xtick_4">
     <g id="line2d_4">
      <path d="M 318.333318 339.84 
L 318.333318 7.2 
" clip-path="url(#p51cc9ab5e4)" style="fill: none; stroke: #ffffff; stroke-linecap: round"/>
     </g>
     <g id="text_4">
      <!-- 0.0 -->
      <g style="fill: #262626" transform="translate(310.688318 357.213594) scale(0.11 -0.11)">
       <use xlink:href="#ArialMT-30"/>
       <use xlink:href="#ArialMT-2e" x="55.615234"/>
       <use xlink:href="#ArialMT-30" x="83.398438"/>
      </g>
     </g>
    </g>
    <g id="xtick_5">
     <g id="line2d_5">
      <path d="M 393.010139 339.84 
L 393.010139 7.2 
" clip-path="url(#p51cc9ab5e4)" style="fill: none; stroke: #ffffff; stroke-linecap: round"/>
     </g>
     <g id="text_5">
      <!-- 0.5 -->
      <g style="fill: #262626" transform="translate(385.365139 357.213594) scale(0.11 -0.11)">
       <use xlink:href="#ArialMT-30"/>
       <use xlink:href="#ArialMT-2e" x="55.615234"/>
       <use xlink:href="#ArialMT-35" x="83.398438"/>
      </g>
     </g>
    </g>
    <g id="xtick_6">
     <g id="line2d_6">
      <path d="M 467.68696 339.84 
L 467.68696 7.2 
" clip-path="url(#p51cc9ab5e4)" style="fill: none; stroke: #ffffff; stroke-linecap: round"/>
     </g>
     <g id="text_6">
      <!-- 1.0 -->
      <g style="fill: #262626" transform="translate(460.04196 357.213594) scale(0.11 -0.11)">
       <use xlink:href="#ArialMT-31"/>
       <use xlink:href="#ArialMT-2e" x="55.615234"/>
       <use xlink:href="#ArialMT-30" x="83.398438"/>
      </g>
     </g>
    </g>
    <g id="xtick_7">
     <g id="line2d_7">
      <path d="M 542.363782 339.84 
L 542.363782 7.2 
" clip-path="url(#p51cc9ab5e4)" style="fill: none; stroke: #ffffff; stroke-linecap: round"/>
     </g>
     <g id="text_7">
      <!-- 1.5 -->
      <g style="fill: #262626" transform="translate(534.718782 357.213594) scale(0.11 -0.11)">
       <use xlink:href="#ArialMT-31"/>
       <use xlink:href="#ArialMT-2e" x="55.615234"/>
       <use xlink:href="#ArialMT-35" x="83.398438"/>
      </g>
     </g>
    </g>
   </g>
   <g id="matplotlib.axis_2">
    <g id="ytick_1">
     <g id="line2d_8">
      <path d="M 29.241719 301.934975 
L 587.241719 301.934975 
" clip-path="url(#p51cc9ab5e4)" style="fill: none; stroke: #ffffff; stroke-linecap: round"/>
     </g>
     <g id="text_8">
      <!-- −3 -->
      <g style="fill: #262626" transform="translate(7.2 305.871772) scale(0.11 -0.11)">
       <defs>
        <path id="ArialMT-33" d="M 269 1209 
L 831 1284 
Q 928 806 1161 595 
Q 1394 384 1728 384 
Q 2125 384 2398 659 
Q 2672 934 2672 1341 
Q 2672 1728 2419 1979 
Q 2166 2231 1775 2231 
Q 1616 2231 1378 2169 
L 1441 2663 
Q 1497 2656 1531 2656 
Q 1891 2656 2178 2843 
Q 2466 3031 2466 3422 
Q 2466 3731 2256 3934 
Q 2047 4138 1716 4138 
Q 1388 4138 1169 3931 
Q 950 3725 888 3313 
L 325 3413 
Q 428 3978 793 4289 
Q 1159 4600 1703 4600 
Q 2078 4600 2393 4439 
Q 2709 4278 2876 4000 
Q 3044 3722 3044 3409 
Q 3044 3113 2884 2869 
Q 2725 2625 2413 2481 
Q 2819 2388 3044 2092 
Q 3269 1797 3269 1353 
Q 3269 753 2831 336 
Q 2394 -81 1725 -81 
Q 1122 -81 723 278 
Q 325 638 269 1209 
z
" transform="scale(0.015625)"/>
       </defs>
       <use xlink:href="#ArialMT-2212"/>
       <use xlink:href="#ArialMT-33" x="58.398438"/>
      </g>
     </g>
    </g>
    <g id="ytick_2">
     <g id="line2d_9">
      <path d="M 29.241719 238.183645 
L 587.241719 238.183645 
" clip-path="url(#p51cc9ab5e4)" style="fill: none; stroke: #ffffff; stroke-linecap: round"/>
     </g>
     <g id="text_9">
      <!-- −2 -->
      <g style="fill: #262626" transform="translate(7.2 242.120442) scale(0.11 -0.11)">
       <defs>
        <path id="ArialMT-32" d="M 3222 541 
L 3222 0 
L 194 0 
Q 188 203 259 391 
Q 375 700 629 1000 
Q 884 1300 1366 1694 
Q 2113 2306 2375 2664 
Q 2638 3022 2638 3341 
Q 2638 3675 2398 3904 
Q 2159 4134 1775 4134 
Q 1369 4134 1125 3890 
Q 881 3647 878 3216 
L 300 3275 
Q 359 3922 746 4261 
Q 1134 4600 1788 4600 
Q 2447 4600 2831 4234 
Q 3216 3869 3216 3328 
Q 3216 3053 3103 2787 
Q 2991 2522 2730 2228 
Q 2469 1934 1863 1422 
Q 1356 997 1212 845 
Q 1069 694 975 541 
L 3222 541 
z
" transform="scale(0.015625)"/>
       </defs>
       <use xlink:href="#ArialMT-2212"/>
       <use xlink:href="#ArialMT-32" x="58.398438"/>
      </g>
     </g>
    </g>
    <g id="ytick_3">
     <g id="line2d_10">
      <path d="M 29.241719 174.432316 
L 587.241719 174.432316 
" clip-path="url(#p51cc9ab5e4)" style="fill: none; stroke: #ffffff; stroke-linecap: round"/>
     </g>
     <g id="text_10">
      <!-- −1 -->
      <g style="fill: #262626" transform="translate(7.2 178.369113) scale(0.11 -0.11)">
       <use xlink:href="#ArialMT-2212"/>
       <use xlink:href="#ArialMT-31" x="58.398438"/>
      </g>
     </g>
    </g>
    <g id="ytick_4">
     <g id="line2d_11">
      <path d="M 29.241719 110.680987 
L 587.241719 110.680987 
" clip-path="url(#p51cc9ab5e4)" style="fill: none; stroke: #ffffff; stroke-linecap: round"/>
     </g>
     <g id="text_11">
      <!-- 0 -->
      <g style="fill: #262626" transform="translate(13.624688 114.617784) scale(0.11 -0.11)">
       <use xlink:href="#ArialMT-30"/>
      </g>
     </g>
    </g>
    <g id="ytick_5">
     <g id="line2d_12">
      <path d="M 29.241719 46.929657 
L 587.241719 46.929657 
" clip-path="url(#p51cc9ab5e4)" style="fill: none; stroke: #ffffff; stroke-linecap: round"/>
     </g>
     <g id="text_12">
      <!-- 1 -->
      <g style="fill: #262626" transform="translate(13.624688 50.866454) scale(0.11 -0.11)">
       <use xlink:href="#ArialMT-31"/>
      </g>
     </g>
    </g>
   </g>
   <g id="line2d_13">
    <path d="M 54.605355 292.151596 
L 60.510506 279.368917 
L 63.474561 272.949043 
L 69.372731 260.153314 
L 73.513548 251.147997 
L 99.107021 195.18086 
L 105.384427 181.720303 
L 107.578921 177.198227 
L 114.383388 163.16322 
L 117.206303 157.00585 
L 120.126158 150.808847 
L 133.07503 128.63379 
L 138.268614 120.452303 
L 138.463845 120.123117 
L 139.406849 118.533539 
L 141.907225 114.326242 
L 144.279139 110.368951 
L 160.96007 90.644873 
L 162.708031 89.186571 
L 163.963899 88.163523 
L 166.38254 86.13492 
L 166.833849 85.749207 
L 173.101338 80.657809 
L 190.45547 66.361536 
L 197.976865 59.142178 
L 200.532694 56.946352 
L 204.921817 53.943979 
L 205.141397 53.788777 
L 207.07826 52.629613 
L 207.874646 52.207763 
L 217.147166 48.48471 
L 219.740461 47.936644 
L 221.347507 47.626913 
L 221.488973 47.600307 
L 233.112973 44.987802 
L 236.727778 44.558237 
L 236.979369 44.53109 
L 240.982204 44.318885 
L 247.032944 42.988844 
L 247.807359 42.734347 
L 253.325419 41.44753 
L 256.214841 41.065224 
L 277.727759 44.140335 
L 280.060465 44.017163 
L 292.063206 43.837616 
L 297.597918 43.660658 
L 301.697472 44.561854 
L 302.488276 44.74607 
L 314.121158 48.962727 
L 317.324408 50.369041 
L 321.563174 52.134038 
L 321.929316 52.27822 
L 324.61875 53.269201 
L 330.512962 55.653687 
L 332.371319 56.588874 
L 341.360551 60.935595 
L 346.556382 64.221697 
L 348.70486 65.230071 
L 353.042961 67.557472 
L 354.646672 68.215368 
L 358.361034 70.422943 
L 377.246444 81.795706 
L 388.956896 88.077644 
L 390.707873 88.917478 
L 394.487835 90.741064 
L 400.0808 93.582351 
L 402.849792 95.086172 
L 408.100334 98.071363 
L 420.127317 104.499317 
L 423.173872 106.12123 
L 430.588001 109.976551 
L 431.379897 110.360338 
L 432.214446 110.726265 
L 440.451069 114.110963 
L 442.182576 115.032785 
L 446.361835 117.121841 
L 457.364915 124.916958 
L 461.104681 127.780785 
L 479.752415 139.686646 
L 484.583083 143.375532 
L 485.573089 144.053046 
L 486.205782 144.497978 
L 496.650952 153.60852 
L 498.367592 155.002273 
L 500.812902 156.941344 
L 506.211073 161.587999 
L 510.323523 164.805767 
L 525.423092 174.799521 
L 525.646551 174.936486 
L 526.875526 175.675647 
L 533.535478 179.598081 
L 535.931791 180.998459 
L 537.103892 181.676824 
L 538.270539 182.346837 
L 538.938033 182.727801 
L 557.27269 192.667103 
L 557.715398 192.898033 
L 560.277496 194.228635 
L 561.354089 194.784779 
L 561.878082 195.054843 
" clip-path="url(#p51cc9ab5e4)" style="fill: none; stroke: #ff6347; stroke-width: 1.5; stroke-linecap: round"/>
   </g>
   <g id="line2d_14">
    <defs>
     <path id="m372550c537" d="M 0 1.5 
C 0.397805 1.5 0.77937 1.341951 1.06066 1.06066 
C 1.341951 0.77937 1.5 0.397805 1.5 0 
C 1.5 -0.397805 1.341951 -0.77937 1.06066 -1.06066 
C 0.77937 -1.341951 0.397805 -1.5 0 -1.5 
C -0.397805 -1.5 -0.77937 -1.341951 -1.06066 -1.06066 
C -1.341951 -0.77937 -1.5 -0.397805 -1.5 0 
C -1.5 0.397805 -1.341951 0.77937 -1.06066 1.06066 
C -0.77937 1.341951 -0.397805 1.5 0 1.5 
z
" style="stroke: #1a1a1a"/>
    </defs>
    <g clip-path="url(#p51cc9ab5e4)">
     <use xlink:href="#m372550c537" x="423.173872" y="105.622979" style="fill: #1a1a1a; stroke: #1a1a1a"/>
     <use xlink:href="#m372550c537" x="219.740461" y="52.757771" style="fill: #1a1a1a; stroke: #1a1a1a"/>
     <use xlink:href="#m372550c537" x="207.07826" y="29.571415" style="fill: #1a1a1a; stroke: #1a1a1a"/>
     <use xlink:href="#m372550c537" x="353.042961" y="71.134971" style="fill: #1a1a1a; stroke: #1a1a1a"/>
     <use xlink:href="#m372550c537" x="400.0808" y="95.225482" style="fill: #1a1a1a; stroke: #1a1a1a"/>
     <use xlink:href="#m372550c537" x="141.907225" y="107.966472" style="fill: #1a1a1a; stroke: #1a1a1a"/>
     <use xlink:href="#m372550c537" x="277.727759" y="22.32" style="fill: #1a1a1a; stroke: #1a1a1a"/>
     <use xlink:href="#m372550c537" x="221.488973" y="45.382215" style="fill: #1a1a1a; stroke: #1a1a1a"/>
     <use xlink:href="#m372550c537" x="163.963899" y="104.834433" style="fill: #1a1a1a; stroke: #1a1a1a"/>
     <use xlink:href="#m372550c537" x="561.878082" y="186.793791" style="fill: #1a1a1a; stroke: #1a1a1a"/>
     <use xlink:href="#m372550c537" x="388.956896" y="81.399587" style="fill: #1a1a1a; stroke: #1a1a1a"/>
     <use xlink:href="#m372550c537" x="166.833849" y="104.038922" style="fill: #1a1a1a; stroke: #1a1a1a"/>
     <use xlink:href="#m372550c537" x="420.127317" y="96.014308" style="fill: #1a1a1a; stroke: #1a1a1a"/>
     <use xlink:href="#m372550c537" x="207.874646" y="36.43982" style="fill: #1a1a1a; stroke: #1a1a1a"/>
     <use xlink:href="#m372550c537" x="162.708031" y="80.034058" style="fill: #1a1a1a; stroke: #1a1a1a"/>
     <use xlink:href="#m372550c537" x="73.513548" y="246.19529" style="fill: #1a1a1a; stroke: #1a1a1a"/>
     <use xlink:href="#m372550c537" x="432.214446" y="122.567699" style="fill: #1a1a1a; stroke: #1a1a1a"/>
     <use xlink:href="#m372550c537" x="408.100334" y="111.005254" style="fill: #1a1a1a; stroke: #1a1a1a"/>
     <use xlink:href="#m372550c537" x="535.931791" y="176.242854" style="fill: #1a1a1a; stroke: #1a1a1a"/>
     <use xlink:href="#m372550c537" x="205.141397" y="65.733616" style="fill: #1a1a1a; stroke: #1a1a1a"/>
     <use xlink:href="#m372550c537" x="557.715398" y="186.445376" style="fill: #1a1a1a; stroke: #1a1a1a"/>
     <use xlink:href="#m372550c537" x="324.61875" y="44.090257" style="fill: #1a1a1a; stroke: #1a1a1a"/>
     <use xlink:href="#m372550c537" x="479.752415" y="114.919363" style="fill: #1a1a1a; stroke: #1a1a1a"/>
     <use xlink:href="#m372550c537" x="200.532694" y="63.802171" style="fill: #1a1a1a; stroke: #1a1a1a"/>
     <use xlink:href="#m372550c537" x="256.214841" y="63.733147" style="fill: #1a1a1a; stroke: #1a1a1a"/>
     <use xlink:href="#m372550c537" x="390.707873" y="86.965414" style="fill: #1a1a1a; stroke: #1a1a1a"/>
     <use xlink:href="#m372550c537" x="533.535478" y="202.120499" style="fill: #1a1a1a; stroke: #1a1a1a"/>
     <use xlink:href="#m372550c537" x="107.578921" y="189.755763" style="fill: #1a1a1a; stroke: #1a1a1a"/>
     <use xlink:href="#m372550c537" x="114.383388" y="165.389715" style="fill: #1a1a1a; stroke: #1a1a1a"/>
     <use xlink:href="#m372550c537" x="485.573089" y="116.310707" style="fill: #1a1a1a; stroke: #1a1a1a"/>
     <use xlink:href="#m372550c537" x="525.646551" y="175.006713" style="fill: #1a1a1a; stroke: #1a1a1a"/>
     <use xlink:href="#m372550c537" x="190.45547" y="64.742817" style="fill: #1a1a1a; stroke: #1a1a1a"/>
     <use xlink:href="#m372550c537" x="560.277496" y="190.361021" style="fill: #1a1a1a; stroke: #1a1a1a"/>
     <use xlink:href="#m372550c537" x="500.812902" y="162.897938" style="fill: #1a1a1a; stroke: #1a1a1a"/>
     <use xlink:href="#m372550c537" x="498.367592" y="168.157616" style="fill: #1a1a1a; stroke: #1a1a1a"/>
     <use xlink:href="#m372550c537" x="525.423092" y="191.361741" style="fill: #1a1a1a; stroke: #1a1a1a"/>
     <use xlink:href="#m372550c537" x="526.875526" y="183.955326" style="fill: #1a1a1a; stroke: #1a1a1a"/>
     <use xlink:href="#m372550c537" x="440.451069" y="114.616927" style="fill: #1a1a1a; stroke: #1a1a1a"/>
     <use xlink:href="#m372550c537" x="280.060465" y="34.738344" style="fill: #1a1a1a; stroke: #1a1a1a"/>
     <use xlink:href="#m372550c537" x="160.96007" y="75.644271" style="fill: #1a1a1a; stroke: #1a1a1a"/>
     <use xlink:href="#m372550c537" x="221.347507" y="38.874811" style="fill: #1a1a1a; stroke: #1a1a1a"/>
     <use xlink:href="#m372550c537" x="204.921817" y="61.195065" style="fill: #1a1a1a; stroke: #1a1a1a"/>
     <use xlink:href="#m372550c537" x="486.205782" y="155.894386" style="fill: #1a1a1a; stroke: #1a1a1a"/>
     <use xlink:href="#m372550c537" x="117.206303" y="146.975409" style="fill: #1a1a1a; stroke: #1a1a1a"/>
     <use xlink:href="#m372550c537" x="484.583083" y="159.057056" style="fill: #1a1a1a; stroke: #1a1a1a"/>
     <use xlink:href="#m372550c537" x="139.406849" y="107.688698" style="fill: #1a1a1a; stroke: #1a1a1a"/>
     <use xlink:href="#m372550c537" x="301.697472" y="73.107533" style="fill: #1a1a1a; stroke: #1a1a1a"/>
     <use xlink:href="#m372550c537" x="99.107021" y="200.351449" style="fill: #1a1a1a; stroke: #1a1a1a"/>
     <use xlink:href="#m372550c537" x="120.126158" y="146.643119" style="fill: #1a1a1a; stroke: #1a1a1a"/>
     <use xlink:href="#m372550c537" x="431.379897" y="105.411009" style="fill: #1a1a1a; stroke: #1a1a1a"/>
     <use xlink:href="#m372550c537" x="236.727778" y="46.905828" style="fill: #1a1a1a; stroke: #1a1a1a"/>
     <use xlink:href="#m372550c537" x="457.364915" y="108.519015" style="fill: #1a1a1a; stroke: #1a1a1a"/>
     <use xlink:href="#m372550c537" x="54.605355" y="324.72" style="fill: #1a1a1a; stroke: #1a1a1a"/>
     <use xlink:href="#m372550c537" x="430.588001" y="103.040355" style="fill: #1a1a1a; stroke: #1a1a1a"/>
     <use xlink:href="#m372550c537" x="105.384427" y="182.732125" style="fill: #1a1a1a; stroke: #1a1a1a"/>
     <use xlink:href="#m372550c537" x="442.182576" y="132.85068" style="fill: #1a1a1a; stroke: #1a1a1a"/>
     <use xlink:href="#m372550c537" x="346.556382" y="57.529144" style="fill: #1a1a1a; stroke: #1a1a1a"/>
     <use xlink:href="#m372550c537" x="557.27269" y="207.831043" style="fill: #1a1a1a; stroke: #1a1a1a"/>
     <use xlink:href="#m372550c537" x="233.112973" y="29.231023" style="fill: #1a1a1a; stroke: #1a1a1a"/>
     <use xlink:href="#m372550c537" x="144.279139" y="97.406094" style="fill: #1a1a1a; stroke: #1a1a1a"/>
     <use xlink:href="#m372550c537" x="561.354089" y="200.302329" style="fill: #1a1a1a; stroke: #1a1a1a"/>
     <use xlink:href="#m372550c537" x="173.101338" y="68.149879" style="fill: #1a1a1a; stroke: #1a1a1a"/>
     <use xlink:href="#m372550c537" x="538.938033" y="190.205761" style="fill: #1a1a1a; stroke: #1a1a1a"/>
     <use xlink:href="#m372550c537" x="394.487835" y="83.105329" style="fill: #1a1a1a; stroke: #1a1a1a"/>
     <use xlink:href="#m372550c537" x="236.979369" y="34.422462" style="fill: #1a1a1a; stroke: #1a1a1a"/>
     <use xlink:href="#m372550c537" x="332.371319" y="61.367527" style="fill: #1a1a1a; stroke: #1a1a1a"/>
     <use xlink:href="#m372550c537" x="317.324408" y="30.169585" style="fill: #1a1a1a; stroke: #1a1a1a"/>
     <use xlink:href="#m372550c537" x="377.246444" y="80.270513" style="fill: #1a1a1a; stroke: #1a1a1a"/>
     <use xlink:href="#m372550c537" x="138.463845" y="108.074917" style="fill: #1a1a1a; stroke: #1a1a1a"/>
     <use xlink:href="#m372550c537" x="330.512962" y="48.433724" style="fill: #1a1a1a; stroke: #1a1a1a"/>
     <use xlink:href="#m372550c537" x="63.474561" y="264.347445" style="fill: #1a1a1a; stroke: #1a1a1a"/>
     <use xlink:href="#m372550c537" x="510.323523" y="151.631021" style="fill: #1a1a1a; stroke: #1a1a1a"/>
     <use xlink:href="#m372550c537" x="506.211073" y="137.694161" style="fill: #1a1a1a; stroke: #1a1a1a"/>
     <use xlink:href="#m372550c537" x="240.982204" y="52.408758" style="fill: #1a1a1a; stroke: #1a1a1a"/>
     <use xlink:href="#m372550c537" x="341.360551" y="58.70309" style="fill: #1a1a1a; stroke: #1a1a1a"/>
     <use xlink:href="#m372550c537" x="537.103892" y="172.849929" style="fill: #1a1a1a; stroke: #1a1a1a"/>
     <use xlink:href="#m372550c537" x="402.849792" y="105.880331" style="fill: #1a1a1a; stroke: #1a1a1a"/>
     <use xlink:href="#m372550c537" x="292.063206" y="36.631051" style="fill: #1a1a1a; stroke: #1a1a1a"/>
     <use xlink:href="#m372550c537" x="348.70486" y="105.506003" style="fill: #1a1a1a; stroke: #1a1a1a"/>
     <use xlink:href="#m372550c537" x="297.597918" y="47.870964" style="fill: #1a1a1a; stroke: #1a1a1a"/>
     <use xlink:href="#m372550c537" x="358.361034" y="72.843619" style="fill: #1a1a1a; stroke: #1a1a1a"/>
     <use xlink:href="#m372550c537" x="496.650952" y="162.777543" style="fill: #1a1a1a; stroke: #1a1a1a"/>
     <use xlink:href="#m372550c537" x="138.268614" y="112.071812" style="fill: #1a1a1a; stroke: #1a1a1a"/>
     <use xlink:href="#m372550c537" x="253.325419" y="32.085705" style="fill: #1a1a1a; stroke: #1a1a1a"/>
     <use xlink:href="#m372550c537" x="446.361835" y="115.708768" style="fill: #1a1a1a; stroke: #1a1a1a"/>
     <use xlink:href="#m372550c537" x="354.646672" y="74.780578" style="fill: #1a1a1a; stroke: #1a1a1a"/>
     <use xlink:href="#m372550c537" x="321.929316" y="47.142708" style="fill: #1a1a1a; stroke: #1a1a1a"/>
     <use xlink:href="#m372550c537" x="302.488276" y="67.250764" style="fill: #1a1a1a; stroke: #1a1a1a"/>
     <use xlink:href="#m372550c537" x="197.976865" y="54.031354" style="fill: #1a1a1a; stroke: #1a1a1a"/>
     <use xlink:href="#m372550c537" x="69.372731" y="257.656586" style="fill: #1a1a1a; stroke: #1a1a1a"/>
     <use xlink:href="#m372550c537" x="133.07503" y="110.452788" style="fill: #1a1a1a; stroke: #1a1a1a"/>
     <use xlink:href="#m372550c537" x="314.121158" y="48.598515" style="fill: #1a1a1a; stroke: #1a1a1a"/>
     <use xlink:href="#m372550c537" x="166.38254" y="95.597521" style="fill: #1a1a1a; stroke: #1a1a1a"/>
     <use xlink:href="#m372550c537" x="461.104681" y="124.5554" style="fill: #1a1a1a; stroke: #1a1a1a"/>
     <use xlink:href="#m372550c537" x="217.147166" y="46.891611" style="fill: #1a1a1a; stroke: #1a1a1a"/>
     <use xlink:href="#m372550c537" x="247.032944" y="52.145881" style="fill: #1a1a1a; stroke: #1a1a1a"/>
     <use xlink:href="#m372550c537" x="321.563174" y="47.81352" style="fill: #1a1a1a; stroke: #1a1a1a"/>
     <use xlink:href="#m372550c537" x="538.270539" y="164.764173" style="fill: #1a1a1a; stroke: #1a1a1a"/>
     <use xlink:href="#m372550c537" x="60.510506" y="277.352569" style="fill: #1a1a1a; stroke: #1a1a1a"/>
     <use xlink:href="#m372550c537" x="247.807359" y="43.292579" style="fill: #1a1a1a; stroke: #1a1a1a"/>
    </g>
   </g>
   <g id="patch_3">
    <path d="M 29.241719 339.84 
L 29.241719 7.2 
" style="fill: none; stroke: #ffffff; stroke-width: 1.25; stroke-linejoin: miter; stroke-linecap: square"/>
   </g>
   <g id="patch_4">
    <path d="M 587.241719 339.84 
L 587.241719 7.2 
" style="fill: none; stroke: #ffffff; stroke-width: 1.25; stroke-linejoin: miter; stroke-linecap: square"/>
   </g>
   <g id="patch_5">
    <path d="M 29.241719 339.84 
L 587.241719 339.84 
" style="fill: none; stroke: #ffffff; stroke-width: 1.25; stroke-linejoin: miter; stroke-linecap: square"/>
   </g>
   <g id="patch_6">
    <path d="M 29.241719 7.2 
L 587.241719 7.2 
" style="fill: none; stroke: #ffffff; stroke-width: 1.25; stroke-linejoin: miter; stroke-linecap: square"/>
   </g>
  </g>
 </g>
 <defs>
  <clipPath id="p51cc9ab5e4">
   <rect x="29.241719" y="7.2" width="558" height="332.64"/>
  </clipPath>
 </defs>
</svg>