<?xml version="1.0" encoding="utf-8" standalone="no"?>
<!DOCTYPE svg PUBLIC "-//W3C//DTD SVG 1.1//EN"
  "http://www.w3.org/Graphics/SVG/1.1/DTD/svg11.dtd">
<svg xmlns:xlink="http://www.w3.org/1999/xlink" width="417.546915pt" height="351.99625pt" viewBox="0 0 417.546915 351.99625" xmlns="http://www.w3.org/2000/svg" version="1.1">
 <metadata>
  <rdf:RDF xmlns:dc="http://purl.org/dc/elements/1.1/" xmlns:cc="http://creativecommons.org/ns#" xmlns:rdf="http://www.w3.org/1999/02/22-rdf-syntax-ns#">
   <cc:Work>
    <dc:type rdf:resource="http://purl.org/dc/dcmitype/StillImage"/>
    <dc:date>2023-05-08T00:15:54.649276</dc:date>
    <dc:format>image/svg+xml</dc:format>
    <dc:creator>
     <cc:Agent>
      <dc:title>Matplotlib v3.7.1, https://matplotlib.org/</dc:title>
     </cc:Agent>
    </dc:creator>
   </cc:Work>
  </rdf:RDF>
 </metadata>
 <defs>
  <style type="text/css">*{stroke-linejoin: round; stroke-linecap: butt}</style>
 </defs>
 <g id="figure_1">
  <g id="patch_1">
   <path d="M 0 351.99625 
L 417.546915 351.99625 
L 417.546915 0 
L 0 0 
z
" style="fill: #ffffff"/>
  </g>
  <g id="axes_1">
   <g id="patch_2">
    <path d="M 53.60625 314.44 
L 340.481315 314.44 
L 340.481315 7.2 
L 53.60625 7.2 
z
" style="fill: #ffffff"/>
   </g>
   <g id="patch_3">
    <path d="M 101.418761 462.941464 
L 101.418761 462.941464 
L 101.418761 462.941464 
L 101.418761 462.941464 
z
" clip-path="url(#p5ca1804ec5)" style="fill: #156590; stroke: #313131; stroke-width: 0.75; stroke-linejoin: miter"/>
   </g>
   <g id="PolyCollection_1">
    <defs>
     <path id="mf4e790d182" d="M 82.401426 -92.695645 
L 82.186087 -92.695645 
L 82.146592 -94.078864 
L 82.095564 -95.462083 
L 82.030653 -96.845303 
L 81.949318 -98.228522 
L 81.848894 -99.611741 
L 81.726668 -100.99496 
L 81.579979 -102.378179 
L 81.406346 -103.761399 
L 81.203597 -105.144618 
L 80.970031 -106.527837 
L 80.704568 -107.911056 
L 80.406901 -109.294276 
L 80.07762 -110.677495 
L 79.718294 -112.060714 
L 79.331484 -113.443933 
L 78.920674 -114.827152 
L 78.490105 -116.210372 
L 78.044503 -117.593591 
L 77.588738 -118.97681 
L 77.1274 -120.360029 
L 76.664387 -121.743249 
L 76.202509 -123.126468 
L 75.743195 -124.509687 
L 75.28634 -125.892906 
L 74.830328 -127.276125 
L 74.372242 -128.659345 
L 73.90826 -130.042564 
L 73.434191 -131.425783 
L 72.94611 -132.809002 
L 72.441011 -134.192221 
L 71.917434 -135.575441 
L 71.375974 -136.95866 
L 70.819648 -138.341879 
L 70.254058 -139.725098 
L 69.687344 -141.108318 
L 69.129916 -142.491537 
L 68.593962 -143.874756 
L 68.092768 -145.257975 
L 67.639885 -146.641194 
L 67.248185 -148.024414 
L 66.928893 -149.407633 
L 66.690664 -150.790852 
L 66.538809 -152.174071 
L 66.474754 -153.557291 
L 66.495807 -154.94051 
L 66.595291 -156.323729 
L 66.763046 -157.706948 
L 66.986271 -159.090167 
L 67.250626 -160.473387 
L 67.541482 -161.856606 
L 67.845181 -163.239825 
L 68.150164 -164.623044 
L 68.447835 -166.006264 
L 68.733084 -167.389483 
L 69.004406 -168.772702 
L 69.263626 -170.155921 
L 69.515287 -171.53914 
L 69.765786 -172.92236 
L 70.022378 -174.305579 
L 70.292169 -175.688798 
L 70.581212 -177.072017 
L 70.893798 -178.455237 
L 71.231997 -179.838456 
L 71.595489 -181.221675 
L 71.981651 -182.604894 
L 72.385894 -183.988113 
L 72.802179 -185.371333 
L 73.223653 -186.754552 
L 73.643339 -188.137771 
L 74.054801 -189.52099 
L 74.452741 -190.90421 
L 74.833461 -192.287429 
L 75.195148 -193.670648 
L 75.537971 -195.053867 
L 75.863965 -196.437086 
L 76.176725 -197.820306 
L 76.480932 -199.203525 
L 76.781776 -200.586744 
L 77.084316 -201.969963 
L 77.39288 -203.353183 
L 77.710542 -204.736402 
L 78.038759 -206.119621 
L 78.377185 -207.50284 
L 78.723701 -208.886059 
L 79.074623 -210.269279 
L 79.425073 -211.652498 
L 79.769456 -213.035717 
L 80.101972 -214.418936 
L 80.417121 -215.802156 
L 80.71013 -217.185375 
L 80.977273 -218.568594 
L 81.216065 -219.951813 
L 81.425312 -221.335032 
L 81.605058 -222.718252 
L 81.756424 -224.101471 
L 81.881387 -225.48469 
L 81.982533 -226.867909 
L 82.062805 -228.251129 
L 82.12527 -229.634348 
L 82.462243 -229.634348 
L 82.462243 -229.634348 
L 82.524708 -228.251129 
L 82.60498 -226.867909 
L 82.706126 -225.48469 
L 82.831089 -224.101471 
L 82.982455 -222.718252 
L 83.162201 -221.335032 
L 83.371448 -219.951813 
L 83.61024 -218.568594 
L 83.877383 -217.185375 
L 84.170392 -215.802156 
L 84.485541 -214.418936 
L 84.818057 -213.035717 
L 85.16244 -211.652498 
L 85.51289 -210.269279 
L 85.863812 -208.886059 
L 86.210328 -207.50284 
L 86.548754 -206.119621 
L 86.876971 -204.736402 
L 87.194633 -203.353183 
L 87.503197 -201.969963 
L 87.805737 -200.586744 
L 88.106581 -199.203525 
L 88.410788 -197.820306 
L 88.723548 -196.437086 
L 89.049542 -195.053867 
L 89.392365 -193.670648 
L 89.754052 -192.287429 
L 90.134772 -190.90421 
L 90.532712 -189.52099 
L 90.944174 -188.137771 
L 91.36386 -186.754552 
L 91.785334 -185.371333 
L 92.201619 -183.988113 
L 92.605862 -182.604894 
L 92.992024 -181.221675 
L 93.355516 -179.838456 
L 93.693715 -178.455237 
L 94.006301 -177.072017 
L 94.295344 -175.688798 
L 94.565135 -174.305579 
L 94.821727 -172.92236 
L 95.072226 -171.53914 
L 95.323887 -170.155921 
L 95.583107 -168.772702 
L 95.854429 -167.389483 
L 96.139678 -166.006264 
L 96.437349 -164.623044 
L 96.742332 -163.239825 
L 97.046031 -161.856606 
L 97.336887 -160.473387 
L 97.601242 -159.090167 
L 97.824467 -157.706948 
L 97.992222 -156.323729 
L 98.091706 -154.94051 
L 98.112759 -153.557291 
L 98.048704 -152.174071 
L 97.896849 -150.790852 
L 97.65862 -149.407633 
L 97.339328 -148.024414 
L 96.947628 -146.641194 
L 96.494745 -145.257975 
L 95.993551 -143.874756 
L 95.457597 -142.491537 
L 94.900169 -141.108318 
L 94.333455 -139.725098 
L 93.767865 -138.341879 
L 93.211539 -136.95866 
L 92.670079 -135.575441 
L 92.146502 -134.192221 
L 91.641403 -132.809002 
L 91.153322 -131.425783 
L 90.679253 -130.042564 
L 90.215271 -128.659345 
L 89.757185 -127.276125 
L 89.301173 -125.892906 
L 88.844318 -124.509687 
L 88.385004 -123.126468 
L 87.923126 -121.743249 
L 87.460113 -120.360029 
L 86.998775 -118.97681 
L 86.54301 -117.593591 
L 86.097408 -116.210372 
L 85.666839 -114.827152 
L 85.256029 -113.443933 
L 84.869219 -112.060714 
L 84.509893 -110.677495 
L 84.180612 -109.294276 
L 83.882945 -107.911056 
L 83.617482 -106.527837 
L 83.383916 -105.144618 
L 83.181167 -103.761399 
L 83.007534 -102.378179 
L 82.860845 -100.99496 
L 82.738619 -99.611741 
L 82.638195 -98.228522 
L 82.55686 -96.845303 
L 82.491949 -95.462083 
L 82.440921 -94.078864 
L 82.401426 -92.695645 
z
" style="stroke: #313131; stroke-width: 1.5"/>
    </defs>
    <g clip-path="url(#p5ca1804ec5)">
     <use xlink:href="#mf4e790d182" x="0" y="351.99625" style="fill: #156590; stroke: #313131; stroke-width: 1.5"/>
    </g>
   </g>
   <g id="patch_4">
    <path d="M 101.418761 462.941464 
L 101.418761 462.941464 
L 101.418761 462.941464 
L 101.418761 462.941464 
z
" clip-path="url(#p5ca1804ec5)" style="fill: #e1822c; stroke: #313131; stroke-width: 0.75; stroke-linejoin: miter"/>
   </g>
   <g id="PolyCollection_2">
    <defs>
     <path id="mfdb2495322" d="M 120.879425 -65.192846 
L 120.208106 -65.192846 
L 120.095817 -66.215481 
L 119.95535 -67.238116 
L 119.782836 -68.260752 
L 119.574819 -69.283387 
L 119.328547 -70.306022 
L 119.042258 -71.328658 
L 118.715423 -72.351293 
L 118.348926 -73.373928 
L 117.945131 -74.396564 
L 117.507825 -75.419199 
L 117.042034 -76.441834 
L 116.553695 -77.46447 
L 116.049234 -78.487105 
L 115.535084 -79.50974 
L 115.017187 -80.532376 
L 114.500553 -81.555011 
L 113.988918 -82.577646 
L 113.484557 -83.600282 
L 112.988253 -84.622917 
L 112.499452 -85.645552 
L 112.016555 -86.668188 
L 111.537325 -87.690823 
L 111.059341 -88.713458 
L 110.580452 -89.736094 
L 110.099169 -90.758729 
L 109.614944 -91.781364 
L 109.128326 -92.804 
L 108.640958 -93.826635 
L 108.155447 -94.84927 
L 107.675104 -95.871906 
L 107.203613 -96.894541 
L 106.744655 -97.917176 
L 106.301535 -98.939812 
L 105.876862 -99.962447 
L 105.472316 -100.985082 
L 105.088523 -102.007718 
L 104.725072 -103.030353 
L 104.380661 -104.052988 
L 104.053358 -105.075624 
L 103.740967 -106.098259 
L 103.441437 -107.120894 
L 103.153288 -108.14353 
L 102.875992 -109.166165 
L 102.610283 -110.1888 
L 102.358332 -111.211436 
L 102.123798 -112.234071 
L 101.911714 -113.256706 
L 101.728236 -114.279342 
L 101.580254 -115.301977 
L 101.474915 -116.324612 
L 101.419079 -117.347248 
L 101.418761 -118.369883 
L 101.478602 -119.392518 
L 101.60142 -120.415154 
L 101.787868 -121.437789 
L 102.036249 -122.460424 
L 102.342503 -123.48306 
L 102.70037 -124.505695 
L 103.101738 -125.52833 
L 103.537148 -126.550966 
L 103.996426 -127.573601 
L 104.46939 -128.596236 
L 104.946579 -129.618872 
L 105.419943 -130.641507 
L 105.883426 -131.664142 
L 106.333387 -132.686778 
L 106.768821 -133.709413 
L 107.191344 -134.732048 
L 107.604954 -135.754684 
L 108.015563 -136.777319 
L 108.430368 -137.799954 
L 108.857098 -138.82259 
L 109.30322 -139.845225 
L 109.775172 -140.86786 
L 110.277706 -141.890496 
L 110.813378 -142.913131 
L 111.382255 -143.935766 
L 111.981837 -144.958402 
L 112.607197 -145.981037 
L 113.25132 -147.003672 
L 113.905598 -148.026308 
L 114.56042 -149.048943 
L 115.205806 -150.071578 
L 115.832029 -151.094214 
L 116.430167 -152.116849 
L 116.992554 -153.139484 
L 117.513099 -154.16212 
L 117.987465 -155.184755 
L 118.413117 -156.20739 
L 118.789247 -157.230025 
L 119.116596 -158.252661 
L 119.397218 -159.275296 
L 119.634198 -160.297931 
L 119.831352 -161.320567 
L 119.992943 -162.343202 
L 120.12343 -163.365837 
L 120.227239 -164.388473 
L 120.3086 -165.411108 
L 120.371418 -166.433743 
L 120.716113 -166.433743 
L 120.716113 -166.433743 
L 120.778931 -165.411108 
L 120.860292 -164.388473 
L 120.964101 -163.365837 
L 121.094587 -162.343202 
L 121.256179 -161.320567 
L 121.453332 -160.297931 
L 121.690312 -159.275296 
L 121.970935 -158.252661 
L 122.298284 -157.230025 
L 122.674413 -156.20739 
L 123.100065 -155.184755 
L 123.574431 -154.16212 
L 124.094976 -153.139484 
L 124.657363 -152.116849 
L 125.255502 -151.094214 
L 125.881725 -150.071578 
L 126.527111 -149.048943 
L 127.181932 -148.026308 
L 127.83621 -147.003672 
L 128.480334 -145.981037 
L 129.105693 -144.958402 
L 129.705275 -143.935766 
L 130.274153 -142.913131 
L 130.809825 -141.890496 
L 131.312358 -140.86786 
L 131.78431 -139.845225 
L 132.230432 -138.82259 
L 132.657162 -137.799954 
L 133.071967 -136.777319 
L 133.482577 -135.754684 
L 133.896186 -134.732048 
L 134.31871 -133.709413 
L 134.754143 -132.686778 
L 135.204104 -131.664142 
L 135.667587 -130.641507 
L 136.140952 -129.618872 
L 136.618141 -128.596236 
L 137.091104 -127.573601 
L 137.550382 -126.550966 
L 137.985793 -125.52833 
L 138.387161 -124.505695 
L 138.745027 -123.48306 
L 139.051281 -122.460424 
L 139.299663 -121.437789 
L 139.48611 -120.415154 
L 139.608928 -119.392518 
L 139.66877 -118.369883 
L 139.668451 -117.347248 
L 139.612616 -116.324612 
L 139.507277 -115.301977 
L 139.359295 -114.279342 
L 139.175816 -113.256706 
L 138.963732 -112.234071 
L 138.729198 -111.211436 
L 138.477247 -110.1888 
L 138.211538 -109.166165 
L 137.934243 -108.14353 
L 137.646093 -107.120894 
L 137.346563 -106.098259 
L 137.034172 -105.075624 
L 136.70687 -104.052988 
L 136.362458 -103.030353 
L 135.999007 -102.007718 
L 135.615214 -100.985082 
L 135.210668 -99.962447 
L 134.785996 -98.939812 
L 134.342876 -97.917176 
L 133.883917 -96.894541 
L 133.412427 -95.871906 
L 132.932083 -94.84927 
L 132.446572 -93.826635 
L 131.959204 -92.804 
L 131.472586 -91.781364 
L 130.988361 -90.758729 
L 130.507078 -89.736094 
L 130.02819 -88.713458 
L 129.550206 -87.690823 
L 129.070975 -86.668188 
L 128.588079 -85.645552 
L 128.099277 -84.622917 
L 127.602974 -83.600282 
L 127.098612 -82.577646 
L 126.586978 -81.555011 
L 126.070343 -80.532376 
L 125.552446 -79.50974 
L 125.038296 -78.487105 
L 124.533835 -77.46447 
L 124.045496 -76.441834 
L 123.579705 -75.419199 
L 123.1424 -74.396564 
L 122.738604 -73.373928 
L 122.372107 -72.351293 
L 122.045273 -71.328658 
L 121.758983 -70.306022 
L 121.512711 -69.283387 
L 121.304694 -68.260752 
L 121.13218 -67.238116 
L 120.991713 -66.215481 
L 120.879425 -65.192846 
z
" style="stroke: #313131; stroke-width: 1.5"/>
    </defs>
    <g clip-path="url(#p5ca1804ec5)">
     <use xlink:href="#mfdb2495322" x="0" y="351.99625" style="fill: #e1822c; stroke: #313131; stroke-width: 1.5"/>
    </g>
   </g>
   <g id="PolyCollection_3">
    <defs>
     <path id="m0535f8059b" d="M 178.016808 -189.70293 
L 177.820749 -189.70293 
L 177.785202 -191.128464 
L 177.740455 -192.553998 
L 177.685349 -193.979532 
L 177.618858 -195.405066 
L 177.540087 -196.8306 
L 177.448218 -198.256134 
L 177.342398 -199.681668 
L 177.221567 -201.107202 
L 177.084263 -202.532736 
L 176.928438 -203.95827 
L 176.751343 -205.383804 
L 176.549528 -206.809338 
L 176.31901 -208.234872 
L 176.05562 -209.660406 
L 175.755509 -211.08594 
L 175.415756 -212.511474 
L 175.034984 -213.937008 
L 174.613865 -215.362542 
L 174.155405 -216.788076 
L 173.664911 -218.21361 
L 173.149601 -219.639144 
L 172.617889 -221.064678 
L 172.078418 -222.490212 
L 171.539 -223.915746 
L 171.005643 -225.34128 
L 170.481818 -226.766814 
L 169.968141 -228.192348 
L 169.462505 -229.617882 
L 168.960675 -231.043416 
L 168.457246 -232.46895 
L 167.946787 -233.894484 
L 167.424992 -235.320018 
L 166.889618 -236.745552 
L 166.341083 -238.171086 
L 165.782616 -239.59662 
L 165.219979 -241.022154 
L 164.660843 -242.447688 
L 164.113959 -243.873222 
L 163.588313 -245.298756 
L 163.092398 -246.72429 
L 162.633761 -248.149824 
L 162.218822 -249.575358 
L 161.85299 -251.000892 
L 161.540939 -252.426426 
L 161.28696 -253.85196 
L 161.095236 -255.277494 
L 160.969948 -256.703028 
L 160.915173 -258.128562 
L 160.934569 -259.554096 
L 161.030924 -260.97963 
L 161.205657 -262.405164 
L 161.45837 -263.830698 
L 161.786546 -265.256232 
L 162.185442 -266.681766 
L 162.648192 -268.1073 
L 163.166106 -269.532834 
L 163.72913 -270.958368 
L 164.326401 -272.383902 
L 164.946867 -273.809436 
L 165.579899 -275.23497 
L 166.215875 -276.660504 
L 166.846684 -278.086038 
L 167.466113 -279.511572 
L 168.070079 -280.937106 
L 168.656675 -282.36264 
L 169.226 -283.788174 
L 169.779779 -285.213708 
L 170.32079 -286.639242 
L 170.85216 -288.064776 
L 171.376605 -289.49031 
L 171.895735 -290.915844 
L 172.409511 -292.341378 
L 172.915957 -293.766912 
L 173.411183 -295.192446 
L 173.88972 -296.61798 
L 174.345137 -298.043514 
L 174.770837 -299.469048 
L 175.160902 -300.894582 
L 175.510877 -302.320116 
L 175.818344 -303.74565 
L 176.08321 -305.171184 
L 176.307679 -306.596718 
L 176.495922 -308.022252 
L 176.653505 -309.447786 
L 176.786691 -310.87332 
L 176.90172 -312.298854 
L 177.004179 -313.724388 
L 177.098537 -315.149922 
L 177.187905 -316.575456 
L 177.274002 -318.00099 
L 177.357322 -319.426524 
L 177.437424 -320.852058 
L 177.513288 -322.277592 
L 177.583671 -323.703125 
L 177.647412 -325.128659 
L 177.703645 -326.554193 
L 177.75192 -327.979727 
L 177.792228 -329.405261 
L 177.824958 -330.830795 
L 178.012598 -330.830795 
L 178.012598 -330.830795 
L 178.045329 -329.405261 
L 178.085637 -327.979727 
L 178.133911 -326.554193 
L 178.190144 -325.128659 
L 178.253885 -323.703125 
L 178.324268 -322.277592 
L 178.400132 -320.852058 
L 178.480234 -319.426524 
L 178.563554 -318.00099 
L 178.649652 -316.575456 
L 178.739019 -315.149922 
L 178.833378 -313.724388 
L 178.935836 -312.298854 
L 179.050866 -310.87332 
L 179.184052 -309.447786 
L 179.341634 -308.022252 
L 179.529877 -306.596718 
L 179.754346 -305.171184 
L 180.019212 -303.74565 
L 180.326679 -302.320116 
L 180.676655 -300.894582 
L 181.06672 -299.469048 
L 181.492419 -298.043514 
L 181.947837 -296.61798 
L 182.426374 -295.192446 
L 182.921599 -293.766912 
L 183.428045 -292.341378 
L 183.941821 -290.915844 
L 184.460952 -289.49031 
L 184.985397 -288.064776 
L 185.516766 -286.639242 
L 186.057778 -285.213708 
L 186.611557 -283.788174 
L 187.180881 -282.36264 
L 187.767477 -280.937106 
L 188.371443 -279.511572 
L 188.990872 -278.086038 
L 189.621681 -276.660504 
L 190.257657 -275.23497 
L 190.890689 -273.809436 
L 191.511155 -272.383902 
L 192.108427 -270.958368 
L 192.67145 -269.532834 
L 193.189364 -268.1073 
L 193.652114 -266.681766 
L 194.05101 -265.256232 
L 194.379186 -263.830698 
L 194.631899 -262.405164 
L 194.806632 -260.97963 
L 194.902987 -259.554096 
L 194.922383 -258.128562 
L 194.867608 -256.703028 
L 194.742321 -255.277494 
L 194.550597 -253.85196 
L 194.296618 -252.426426 
L 193.984567 -251.000892 
L 193.618734 -249.575358 
L 193.203796 -248.149824 
L 192.745158 -246.72429 
L 192.249244 -245.298756 
L 191.723597 -243.873222 
L 191.176714 -242.447688 
L 190.617577 -241.022154 
L 190.05494 -239.59662 
L 189.496473 -238.171086 
L 188.947938 -236.745552 
L 188.412565 -235.320018 
L 187.890769 -233.894484 
L 187.380311 -232.46895 
L 186.876882 -231.043416 
L 186.375052 -229.617882 
L 185.869415 -228.192348 
L 185.355738 -226.766814 
L 184.831914 -225.34128 
L 184.298556 -223.915746 
L 183.759139 -222.490212 
L 183.219667 -221.064678 
L 182.687955 -219.639144 
L 182.172645 -218.21361 
L 181.682151 -216.788076 
L 181.223691 -215.362542 
L 180.802572 -213.937008 
L 180.4218 -212.511474 
L 180.082047 -211.08594 
L 179.781936 -209.660406 
L 179.518546 -208.234872 
L 179.288028 -206.809338 
L 179.086213 -205.383804 
L 178.909118 -203.95827 
L 178.753294 -202.532736 
L 178.615989 -201.107202 
L 178.495158 -199.681668 
L 178.389338 -198.256134 
L 178.29747 -196.8306 
L 178.218698 -195.405066 
L 178.152207 -193.979532 
L 178.097101 -192.553998 
L 178.052354 -191.128464 
L 178.016808 -189.70293 
z
" style="stroke: #313131; stroke-width: 1.5"/>
    </defs>
    <g clip-path="url(#p5ca1804ec5)">
     <use xlink:href="#m0535f8059b" x="0" y="351.99625" style="fill: #156590; stroke: #313131; stroke-width: 1.5"/>
    </g>
   </g>
   <g id="PolyCollection_4">
    <defs>
     <path id="mc83b4b505d" d="M 216.278608 -137.649161 
L 216.058966 -137.649161 
L 216.023755 -138.836826 
L 215.980766 -140.02449 
L 215.929403 -141.212154 
L 215.869315 -142.399818 
L 215.800418 -143.587483 
L 215.722892 -144.775147 
L 215.637106 -145.962811 
L 215.543505 -147.150475 
L 215.442436 -148.33814 
L 215.333946 -149.525804 
L 215.217583 -150.713468 
L 215.092213 -151.901132 
L 214.955926 -153.088797 
L 214.806028 -154.276461 
L 214.639163 -155.464125 
L 214.451551 -156.651789 
L 214.239338 -157.839454 
L 213.998998 -159.027118 
L 213.727744 -160.214782 
L 213.423887 -161.402447 
L 213.087077 -162.590111 
L 212.718397 -163.777775 
L 212.320294 -164.965439 
L 211.896362 -166.153104 
L 211.451028 -167.340768 
L 210.989187 -168.528432 
L 210.515872 -169.716096 
L 210.035994 -170.903761 
L 209.55419 -172.091425 
L 209.074774 -173.279089 
L 208.601757 -174.466753 
L 208.138874 -175.654418 
L 207.689556 -176.842082 
L 207.256793 -178.029746 
L 206.842854 -179.21741 
L 206.448897 -180.405075 
L 206.074518 -181.592739 
L 205.717336 -182.780403 
L 205.372734 -183.968067 
L 205.033868 -185.155732 
L 204.692003 -186.343396 
L 204.337219 -187.53106 
L 203.959428 -188.718724 
L 203.549596 -189.906389 
L 203.101022 -191.094053 
L 202.610477 -192.281717 
L 202.079038 -193.469381 
L 201.512473 -194.657046 
L 200.921097 -195.84471 
L 200.319108 -197.032374 
L 199.723473 -198.220038 
L 199.152501 -199.407703 
L 198.624312 -200.595367 
L 198.15537 -201.783031 
L 197.759281 -202.970695 
L 197.445994 -204.15836 
L 197.221465 -205.346024 
L 197.087796 -206.533688 
L 197.043783 -207.721352 
L 197.085751 -208.909017 
L 197.208527 -210.096681 
L 197.40639 -211.284345 
L 197.673856 -212.472009 
L 198.006202 -213.659674 
L 198.399668 -214.847338 
L 198.851352 -216.035002 
L 199.35885 -217.222666 
L 199.919734 -218.410331 
L 200.530985 -219.597995 
L 201.1885 -220.785659 
L 201.886757 -221.973324 
L 202.618723 -223.160988 
L 203.376005 -224.348652 
L 204.149234 -225.536316 
L 204.928624 -226.723981 
L 205.704619 -227.911645 
L 206.468518 -229.099309 
L 207.213011 -230.286973 
L 207.932516 -231.474638 
L 208.623313 -232.662302 
L 209.28343 -233.849966 
L 209.912343 -235.03763 
L 210.510526 -236.225295 
L 211.078949 -237.412959 
L 211.618595 -238.600623 
L 212.13007 -239.788287 
L 212.61337 -240.975952 
L 213.067804 -242.163616 
L 213.492097 -243.35128 
L 213.884609 -244.538944 
L 214.243635 -245.726609 
L 214.567733 -246.914273 
L 214.856001 -248.101937 
L 215.108296 -249.289601 
L 215.32533 -250.477266 
L 215.508683 -251.66493 
L 215.660696 -252.852594 
L 215.784317 -254.040258 
L 215.882886 -255.227923 
L 216.454688 -255.227923 
L 216.454688 -255.227923 
L 216.553257 -254.040258 
L 216.676878 -252.852594 
L 216.828891 -251.66493 
L 217.012243 -250.477266 
L 217.229278 -249.289601 
L 217.481572 -248.101937 
L 217.769841 -246.914273 
L 218.093938 -245.726609 
L 218.452965 -244.538944 
L 218.845476 -243.35128 
L 219.269769 -242.163616 
L 219.724204 -240.975952 
L 220.207503 -239.788287 
L 220.718979 -238.600623 
L 221.258625 -237.412959 
L 221.827048 -236.225295 
L 222.425231 -235.03763 
L 223.054143 -233.849966 
L 223.714261 -232.662302 
L 224.405058 -231.474638 
L 225.124563 -230.286973 
L 225.869055 -229.099309 
L 226.632955 -227.911645 
L 227.408949 -226.723981 
L 228.18834 -225.536316 
L 228.961569 -224.348652 
L 229.718851 -223.160988 
L 230.450817 -221.973324 
L 231.149074 -220.785659 
L 231.806588 -219.597995 
L 232.41784 -218.410331 
L 232.978724 -217.222666 
L 233.486222 -216.035002 
L 233.937906 -214.847338 
L 234.331372 -213.659674 
L 234.663718 -212.472009 
L 234.931184 -211.284345 
L 235.129047 -210.096681 
L 235.251823 -208.909017 
L 235.293791 -207.721352 
L 235.249778 -206.533688 
L 235.116109 -205.346024 
L 234.89158 -204.15836 
L 234.578293 -202.970695 
L 234.182204 -201.783031 
L 233.713261 -200.595367 
L 233.185072 -199.407703 
L 232.614101 -198.220038 
L 232.018465 -197.032374 
L 231.416477 -195.84471 
L 230.825101 -194.657046 
L 230.258536 -193.469381 
L 229.727097 -192.281717 
L 229.236551 -191.094053 
L 228.787977 -189.906389 
L 228.378146 -188.718724 
L 228.000355 -187.53106 
L 227.645571 -186.343396 
L 227.303706 -185.155732 
L 226.96484 -183.968067 
L 226.620238 -182.780403 
L 226.263055 -181.592739 
L 225.888677 -180.405075 
L 225.49472 -179.21741 
L 225.080781 -178.029746 
L 224.648017 -176.842082 
L 224.1987 -175.654418 
L 223.735817 -174.466753 
L 223.2628 -173.279089 
L 222.783384 -172.091425 
L 222.30158 -170.903761 
L 221.821702 -169.716096 
L 221.348387 -168.528432 
L 220.886546 -167.340768 
L 220.441211 -166.153104 
L 220.01728 -164.965439 
L 219.619177 -163.777775 
L 219.250497 -162.590111 
L 218.913687 -161.402447 
L 218.60983 -160.214782 
L 218.338576 -159.027118 
L 218.098236 -157.839454 
L 217.886023 -156.651789 
L 217.698411 -155.464125 
L 217.531545 -154.276461 
L 217.381648 -153.088797 
L 217.245361 -151.901132 
L 217.119991 -150.713468 
L 217.003627 -149.525804 
L 216.895138 -148.33814 
L 216.794069 -147.150475 
L 216.700467 -145.962811 
L 216.614682 -144.775147 
L 216.537155 -143.587483 
L 216.468259 -142.399818 
L 216.40817 -141.212154 
L 216.356808 -140.02449 
L 216.313819 -138.836826 
L 216.278608 -137.649161 
z
" style="stroke: #313131; stroke-width: 1.5"/>
    </defs>
    <g clip-path="url(#p5ca1804ec5)">
     <use xlink:href="#mc83b4b505d" x="0" y="351.99625" style="fill: #e1822c; stroke: #313131; stroke-width: 1.5"/>
    </g>
   </g>
   <g id="PolyCollection_5">
    <defs>
     <path id="m609a51e66b" d="M 273.756287 -83.376873 
L 273.331313 -83.376873 
L 273.264267 -84.914417 
L 273.181363 -86.451961 
L 273.080551 -87.989505 
L 272.959995 -89.527049 
L 272.818198 -91.064593 
L 272.654144 -92.602137 
L 272.467408 -94.139681 
L 272.258236 -95.677225 
L 272.027582 -97.214769 
L 271.777085 -98.752313 
L 271.508979 -100.289857 
L 271.225942 -101.827401 
L 270.930884 -103.364945 
L 270.626692 -104.902489 
L 270.315963 -106.440034 
L 270.000726 -107.977578 
L 269.682212 -109.515122 
L 269.360677 -111.052666 
L 269.035316 -112.59021 
L 268.704272 -114.127754 
L 268.364769 -115.665298 
L 268.013342 -117.202842 
L 267.646168 -118.740386 
L 267.259473 -120.27793 
L 266.849963 -121.815474 
L 266.415266 -123.353018 
L 265.954323 -124.890562 
L 265.467683 -126.428106 
L 264.957694 -127.96565 
L 264.428528 -129.503194 
L 263.886069 -131.040739 
L 263.337644 -132.578283 
L 262.791644 -134.115827 
L 262.257055 -135.653371 
L 261.742978 -137.190915 
L 261.258164 -138.728459 
L 260.810634 -140.266003 
L 260.407415 -141.803547 
L 260.054411 -143.341091 
L 259.756403 -144.878635 
L 259.517158 -146.416179 
L 259.339596 -147.953723 
L 259.225974 -149.491267 
L 259.178015 -151.028811 
L 259.196953 -152.566355 
L 259.283465 -154.103899 
L 259.437493 -155.641443 
L 259.657971 -157.178988 
L 259.942529 -158.716532 
L 260.287211 -160.254076 
L 260.686293 -161.79162 
L 261.132246 -163.329164 
L 261.615886 -164.866708 
L 262.126719 -166.404252 
L 262.653468 -167.941796 
L 263.184717 -169.47934 
L 263.70963 -171.016884 
L 264.218644 -172.554428 
L 264.704061 -174.091972 
L 265.160487 -175.629516 
L 265.585048 -177.16706 
L 265.977387 -178.704604 
L 266.339422 -180.242148 
L 266.674926 -181.779693 
L 266.988961 -183.317237 
L 267.287239 -184.854781 
L 267.575483 -186.392325 
L 267.858848 -187.929869 
L 268.141456 -189.467413 
L 268.426093 -191.004957 
L 268.71407 -192.542501 
L 269.005256 -194.080045 
L 269.298268 -195.617589 
L 269.590765 -197.155133 
L 269.879818 -198.692677 
L 270.162296 -200.230221 
L 270.43523 -201.767765 
L 270.696107 -203.305309 
L 270.943071 -204.842853 
L 271.175027 -206.380398 
L 271.391628 -207.917942 
L 271.593184 -209.455486 
L 271.780506 -210.99303 
L 271.954703 -212.530574 
L 272.116995 -214.068118 
L 272.268534 -215.605662 
L 272.410273 -217.143206 
L 272.542892 -218.68075 
L 272.666774 -220.218294 
L 272.78204 -221.755838 
L 272.888609 -223.293382 
L 272.98629 -224.830926 
L 273.074875 -226.36847 
L 273.154221 -227.906014 
L 273.224319 -229.443558 
L 273.285331 -230.981102 
L 273.337604 -232.518647 
L 273.381662 -234.056191 
L 273.418175 -235.593735 
L 273.669425 -235.593735 
L 273.669425 -235.593735 
L 273.705938 -234.056191 
L 273.749995 -232.518647 
L 273.802268 -230.981102 
L 273.86328 -229.443558 
L 273.933378 -227.906014 
L 274.012725 -226.36847 
L 274.10131 -224.830926 
L 274.198991 -223.293382 
L 274.30556 -221.755838 
L 274.420826 -220.218294 
L 274.544708 -218.68075 
L 274.677327 -217.143206 
L 274.819066 -215.605662 
L 274.970605 -214.068118 
L 275.132897 -212.530574 
L 275.307094 -210.99303 
L 275.494415 -209.455486 
L 275.695972 -207.917942 
L 275.912573 -206.380398 
L 276.144529 -204.842853 
L 276.391493 -203.305309 
L 276.652369 -201.767765 
L 276.925304 -200.230221 
L 277.207782 -198.692677 
L 277.496835 -197.155133 
L 277.789332 -195.617589 
L 278.082344 -194.080045 
L 278.37353 -192.542501 
L 278.661506 -191.004957 
L 278.946143 -189.467413 
L 279.228752 -187.929869 
L 279.512117 -186.392325 
L 279.800361 -184.854781 
L 280.098639 -183.317237 
L 280.412674 -181.779693 
L 280.748178 -180.242148 
L 281.110213 -178.704604 
L 281.502551 -177.16706 
L 281.927113 -175.629516 
L 282.383539 -174.091972 
L 282.868956 -172.554428 
L 283.377969 -171.016884 
L 283.902883 -169.47934 
L 284.434132 -167.941796 
L 284.96088 -166.404252 
L 285.471714 -164.866708 
L 285.955353 -163.329164 
L 286.401306 -161.79162 
L 286.800388 -160.254076 
L 287.14507 -158.716532 
L 287.429628 -157.178988 
L 287.650107 -155.641443 
L 287.804134 -154.103899 
L 287.890647 -152.566355 
L 287.909585 -151.028811 
L 287.861626 -149.491267 
L 287.748004 -147.953723 
L 287.570442 -146.416179 
L 287.331196 -144.878635 
L 287.033188 -143.341091 
L 286.680185 -141.803547 
L 286.276966 -140.266003 
L 285.829436 -138.728459 
L 285.344622 -137.190915 
L 284.830545 -135.653371 
L 284.295956 -134.115827 
L 283.749955 -132.578283 
L 283.201531 -131.040739 
L 282.659072 -129.503194 
L 282.129906 -127.96565 
L 281.619916 -126.428106 
L 281.133277 -124.890562 
L 280.672333 -123.353018 
L 280.237637 -121.815474 
L 279.828127 -120.27793 
L 279.441431 -118.740386 
L 279.074258 -117.202842 
L 278.722831 -115.665298 
L 278.383328 -114.127754 
L 278.052284 -112.59021 
L 277.726922 -111.052666 
L 277.405388 -109.515122 
L 277.086874 -107.977578 
L 276.771637 -106.440034 
L 276.460907 -104.902489 
L 276.156716 -103.364945 
L 275.861657 -101.827401 
L 275.578621 -100.289857 
L 275.310515 -98.752313 
L 275.060018 -97.214769 
L 274.829364 -95.677225 
L 274.620192 -94.139681 
L 274.433455 -92.602137 
L 274.269402 -91.064593 
L 274.127605 -89.527049 
L 274.007048 -87.989505 
L 273.906237 -86.451961 
L 273.823333 -84.914417 
L 273.756287 -83.376873 
z
" style="stroke: #313131; stroke-width: 1.5"/>
    </defs>
    <g clip-path="url(#p5ca1804ec5)">
     <use xlink:href="#m609a51e66b" x="0" y="351.99625" style="fill: #156590; stroke: #313131; stroke-width: 1.5"/>
    </g>
   </g>
   <g id="PolyCollection_6">
    <defs>
     <path id="ma27c4f3d56" d="M 311.951059 -51.521705 
L 311.636558 -51.521705 
L 311.585126 -52.888391 
L 311.522296 -54.255077 
L 311.447389 -55.621764 
L 311.36026 -56.98845 
L 311.261412 -58.355136 
L 311.152068 -59.721823 
L 311.034178 -61.088509 
L 310.91035 -62.455196 
L 310.783699 -63.821882 
L 310.657647 -65.188568 
L 310.535673 -66.555255 
L 310.421065 -67.921941 
L 310.316694 -69.288627 
L 310.224838 -70.655314 
L 310.147073 -72.022 
L 310.084229 -73.388686 
L 310.036382 -74.755373 
L 310.002868 -76.122059 
L 309.982276 -77.488746 
L 309.97239 -78.855432 
L 309.970084 -80.222118 
L 309.971149 -81.588805 
L 309.970113 -82.955491 
L 309.960082 -84.322177 
L 309.932666 -85.688864 
L 309.878052 -87.05555 
L 309.785252 -88.422237 
L 309.642564 -89.788923 
L 309.438226 -91.155609 
L 309.161216 -92.522296 
L 308.802144 -93.888982 
L 308.35414 -95.255668 
L 307.813639 -96.622355 
L 307.180977 -97.989041 
L 306.460719 -99.355728 
L 305.661664 -100.722414 
L 304.796502 -102.0891 
L 303.881146 -103.455787 
L 302.933772 -104.822473 
L 301.973667 -106.189159 
L 301.019958 -107.555846 
L 300.090372 -108.922532 
L 299.200127 -110.289219 
L 298.361074 -111.655905 
L 297.581196 -113.022591 
L 296.864506 -114.389278 
L 296.211386 -115.755964 
L 295.619326 -117.12265 
L 295.083994 -118.489337 
L 294.600528 -119.856023 
L 294.164878 -121.22271 
L 293.775042 -122.589396 
L 293.432029 -123.956082 
L 293.140386 -125.322769 
L 292.908219 -126.689455 
L 292.746656 -128.056141 
L 292.668804 -129.422828 
L 292.688317 -130.789514 
L 292.817746 -132.1562 
L 293.066901 -133.522887 
L 293.441424 -134.889573 
L 293.94179 -136.25626 
L 294.562847 -137.622946 
L 295.293961 -138.989632 
L 296.119723 -140.356319 
L 297.021108 -141.723005 
L 297.976898 -143.089691 
L 298.965188 -144.456378 
L 299.964777 -145.823064 
L 300.956296 -147.189751 
L 301.922989 -148.556437 
L 302.851125 -149.923123 
L 303.730094 -151.28981 
L 304.552247 -152.656496 
L 305.312611 -154.023182 
L 306.008539 -155.389869 
L 306.63939 -156.756555 
L 307.206251 -158.123242 
L 307.711712 -159.489928 
L 308.159663 -160.856614 
L 308.555068 -162.223301 
L 308.903707 -163.589987 
L 309.211842 -164.956673 
L 309.485854 -166.32336 
L 309.731837 -167.690046 
L 309.955238 -169.056733 
L 310.160558 -170.423419 
L 310.351172 -171.790105 
L 310.529276 -173.156792 
L 310.695979 -174.523478 
L 310.851493 -175.890164 
L 310.995412 -177.256851 
L 311.127007 -178.623537 
L 311.245514 -179.990223 
L 311.350366 -181.35691 
L 311.441348 -182.723596 
L 311.518678 -184.090283 
L 311.583001 -185.456969 
L 311.635334 -186.823655 
L 311.952283 -186.823655 
L 311.952283 -186.823655 
L 312.004616 -185.456969 
L 312.068939 -184.090283 
L 312.146269 -182.723596 
L 312.237251 -181.35691 
L 312.342103 -179.990223 
L 312.46061 -178.623537 
L 312.592205 -177.256851 
L 312.736124 -175.890164 
L 312.891638 -174.523478 
L 313.058341 -173.156792 
L 313.236445 -171.790105 
L 313.427059 -170.423419 
L 313.632379 -169.056733 
L 313.85578 -167.690046 
L 314.101763 -166.32336 
L 314.375775 -164.956673 
L 314.68391 -163.589987 
L 315.032549 -162.223301 
L 315.427954 -160.856614 
L 315.875905 -159.489928 
L 316.381366 -158.123242 
L 316.948227 -156.756555 
L 317.579078 -155.389869 
L 318.275006 -154.023182 
L 319.03537 -152.656496 
L 319.857523 -151.28981 
L 320.736492 -149.923123 
L 321.664628 -148.556437 
L 322.631321 -147.189751 
L 323.62284 -145.823064 
L 324.622429 -144.456378 
L 325.610719 -143.089691 
L 326.566509 -141.723005 
L 327.467894 -140.356319 
L 328.293656 -138.989632 
L 329.02477 -137.622946 
L 329.645827 -136.25626 
L 330.146193 -134.889573 
L 330.520716 -133.522887 
L 330.769871 -132.1562 
L 330.8993 -130.789514 
L 330.918813 -129.422828 
L 330.840961 -128.056141 
L 330.679398 -126.689455 
L 330.447231 -125.322769 
L 330.155588 -123.956082 
L 329.812575 -122.589396 
L 329.422739 -121.22271 
L 328.987089 -119.856023 
L 328.503623 -118.489337 
L 327.968291 -117.12265 
L 327.376231 -115.755964 
L 326.723111 -114.389278 
L 326.006421 -113.022591 
L 325.226543 -111.655905 
L 324.38749 -110.289219 
L 323.497245 -108.922532 
L 322.567659 -107.555846 
L 321.61395 -106.189159 
L 320.653845 -104.822473 
L 319.706471 -103.455787 
L 318.791115 -102.0891 
L 317.925953 -100.722414 
L 317.126898 -99.355728 
L 316.40664 -97.989041 
L 315.773978 -96.622355 
L 315.233477 -95.255668 
L 314.785473 -93.888982 
L 314.426401 -92.522296 
L 314.149391 -91.155609 
L 313.945053 -89.788923 
L 313.802365 -88.422237 
L 313.709565 -87.05555 
L 313.654951 -85.688864 
L 313.627535 -84.322177 
L 313.617504 -82.955491 
L 313.616468 -81.588805 
L 313.617533 -80.222118 
L 313.615227 -78.855432 
L 313.605341 -77.488746 
L 313.584749 -76.122059 
L 313.551235 -74.755373 
L 313.503388 -73.388686 
L 313.440544 -72.022 
L 313.362779 -70.655314 
L 313.270923 -69.288627 
L 313.166552 -67.921941 
L 313.051944 -66.555255 
L 312.92997 -65.188568 
L 312.803918 -63.821882 
L 312.677267 -62.455196 
L 312.553439 -61.088509 
L 312.435549 -59.721823 
L 312.326205 -58.355136 
L 312.227357 -56.98845 
L 312.140228 -55.621764 
L 312.065321 -54.255077 
L 312.002491 -52.888391 
L 311.951059 -51.521705 
z
" style="stroke: #313131; stroke-width: 1.5"/>
    </defs>
    <g clip-path="url(#p5ca1804ec5)">
     <use xlink:href="#ma27c4f3d56" x="0" y="351.99625" style="fill: #e1822c; stroke: #313131; stroke-width: 1.5"/>
    </g>
   </g>
   <g id="matplotlib.axis_1">
    <g id="xtick_1">
     <g id="line2d_1">
      <defs>
       <path id="m8f2311b588" d="M 0 0 
L 0 3.5 
" style="stroke: #000000; stroke-width: 0.8"/>
      </defs>
      <g>
       <use xlink:href="#m8f2311b588" x="101.418761" y="314.44" style="stroke: #000000; stroke-width: 0.8"/>
      </g>
     </g>
     <g id="text_1">
      <!-- Adelie -->
      <g transform="translate(85.98048 329.038437) scale(0.1 -0.1)">
       <defs>
        <path id="DejaVuSans-41" d="M 2188 4044 
L 1331 1722 
L 3047 1722 
L 2188 4044 
z
M 1831 4666 
L 2547 4666 
L 4325 0 
L 3669 0 
L 3244 1197 
L 1141 1197 
L 716 0 
L 50 0 
L 1831 4666 
z
" transform="scale(0.015625)"/>
        <path id="DejaVuSans-64" d="M 2906 2969 
L 2906 4863 
L 3481 4863 
L 3481 0 
L 2906 0 
L 2906 525 
Q 2725 213 2448 61 
Q 2172 -91 1784 -91 
Q 1150 -91 751 415 
Q 353 922 353 1747 
Q 353 2572 751 3078 
Q 1150 3584 1784 3584 
Q 2172 3584 2448 3432 
Q 2725 3281 2906 2969 
z
M 947 1747 
Q 947 1113 1208 752 
Q 1469 391 1925 391 
Q 2381 391 2643 752 
Q 2906 1113 2906 1747 
Q 2906 2381 2643 2742 
Q 2381 3103 1925 3103 
Q 1469 3103 1208 2742 
Q 947 2381 947 1747 
z
" transform="scale(0.015625)"/>
        <path id="DejaVuSans-65" d="M 3597 1894 
L 3597 1613 
L 953 1613 
Q 991 1019 1311 708 
Q 1631 397 2203 397 
Q 2534 397 2845 478 
Q 3156 559 3463 722 
L 3463 178 
Q 3153 47 2828 -22 
Q 2503 -91 2169 -91 
Q 1331 -91 842 396 
Q 353 884 353 1716 
Q 353 2575 817 3079 
Q 1281 3584 2069 3584 
Q 2775 3584 3186 3129 
Q 3597 2675 3597 1894 
z
M 3022 2063 
Q 3016 2534 2758 2815 
Q 2500 3097 2075 3097 
Q 1594 3097 1305 2825 
Q 1016 2553 972 2059 
L 3022 2063 
z
" transform="scale(0.015625)"/>
        <path id="DejaVuSans-6c" d="M 603 4863 
L 1178 4863 
L 1178 0 
L 603 0 
L 603 4863 
z
" transform="scale(0.015625)"/>
        <path id="DejaVuSans-69" d="M 603 3500 
L 1178 3500 
L 1178 0 
L 603 0 
L 603 3500 
z
M 603 4863 
L 1178 4863 
L 1178 4134 
L 603 4134 
L 603 4863 
z
" transform="scale(0.015625)"/>
       </defs>
       <use xlink:href="#DejaVuSans-41"/>
       <use xlink:href="#DejaVuSans-64" x="66.658203"/>
       <use xlink:href="#DejaVuSans-65" x="130.134766"/>
       <use xlink:href="#DejaVuSans-6c" x="191.658203"/>
       <use xlink:href="#DejaVuSans-69" x="219.441406"/>
       <use xlink:href="#DejaVuSans-65" x="247.224609"/>
      </g>
     </g>
    </g>
    <g id="xtick_2">
     <g id="line2d_2">
      <g>
       <use xlink:href="#m8f2311b588" x="197.043783" y="314.44" style="stroke: #000000; stroke-width: 0.8"/>
      </g>
     </g>
     <g id="text_2">
      <!-- Gentoo -->
      <g transform="translate(178.845345 329.038437) scale(0.1 -0.1)">
       <defs>
        <path id="DejaVuSans-47" d="M 3809 666 
L 3809 1919 
L 2778 1919 
L 2778 2438 
L 4434 2438 
L 4434 434 
Q 4069 175 3628 42 
Q 3188 -91 2688 -91 
Q 1594 -91 976 548 
Q 359 1188 359 2328 
Q 359 3472 976 4111 
Q 1594 4750 2688 4750 
Q 3144 4750 3555 4637 
Q 3966 4525 4313 4306 
L 4313 3634 
Q 3963 3931 3569 4081 
Q 3175 4231 2741 4231 
Q 1884 4231 1454 3753 
Q 1025 3275 1025 2328 
Q 1025 1384 1454 906 
Q 1884 428 2741 428 
Q 3075 428 3337 486 
Q 3600 544 3809 666 
z
" transform="scale(0.015625)"/>
        <path id="DejaVuSans-6e" d="M 3513 2113 
L 3513 0 
L 2938 0 
L 2938 2094 
Q 2938 2591 2744 2837 
Q 2550 3084 2163 3084 
Q 1697 3084 1428 2787 
Q 1159 2491 1159 1978 
L 1159 0 
L 581 0 
L 581 3500 
L 1159 3500 
L 1159 2956 
Q 1366 3272 1645 3428 
Q 1925 3584 2291 3584 
Q 2894 3584 3203 3211 
Q 3513 2838 3513 2113 
z
" transform="scale(0.015625)"/>
        <path id="DejaVuSans-74" d="M 1172 4494 
L 1172 3500 
L 2356 3500 
L 2356 3053 
L 1172 3053 
L 1172 1153 
Q 1172 725 1289 603 
Q 1406 481 1766 481 
L 2356 481 
L 2356 0 
L 1766 0 
Q 1100 0 847 248 
Q 594 497 594 1153 
L 594 3053 
L 172 3053 
L 172 3500 
L 594 3500 
L 594 4494 
L 1172 4494 
z
" transform="scale(0.015625)"/>
        <path id="DejaVuSans-6f" d="M 1959 3097 
Q 1497 3097 1228 2736 
Q 959 2375 959 1747 
Q 959 1119 1226 758 
Q 1494 397 1959 397 
Q 2419 397 2687 759 
Q 2956 1122 2956 1747 
Q 2956 2369 2687 2733 
Q 2419 3097 1959 3097 
z
M 1959 3584 
Q 2709 3584 3137 3096 
Q 3566 2609 3566 1747 
Q 3566 888 3137 398 
Q 2709 -91 1959 -91 
Q 1206 -91 779 398 
Q 353 888 353 1747 
Q 353 2609 779 3096 
Q 1206 3584 1959 3584 
z
" transform="scale(0.015625)"/>
       </defs>
       <use xlink:href="#DejaVuSans-47"/>
       <use xlink:href="#DejaVuSans-65" x="77.490234"/>
       <use xlink:href="#DejaVuSans-6e" x="139.013672"/>
       <use xlink:href="#DejaVuSans-74" x="202.392578"/>
       <use xlink:href="#DejaVuSans-6f" x="241.601562"/>
       <use xlink:href="#DejaVuSans-6f" x="302.783203"/>
      </g>
     </g>
    </g>
    <g id="xtick_3">
     <g id="line2d_3">
      <g>
       <use xlink:href="#m8f2311b588" x="292.668804" y="314.44" style="stroke: #000000; stroke-width: 0.8"/>
      </g>
     </g>
     <g id="text_3">
      <!-- Chinstrap -->
      <g transform="translate(268.592242 329.038437) scale(0.1 -0.1)">
       <defs>
        <path id="DejaVuSans-43" d="M 4122 4306 
L 4122 3641 
Q 3803 3938 3442 4084 
Q 3081 4231 2675 4231 
Q 1875 4231 1450 3742 
Q 1025 3253 1025 2328 
Q 1025 1406 1450 917 
Q 1875 428 2675 428 
Q 3081 428 3442 575 
Q 3803 722 4122 1019 
L 4122 359 
Q 3791 134 3420 21 
Q 3050 -91 2638 -91 
Q 1578 -91 968 557 
Q 359 1206 359 2328 
Q 359 3453 968 4101 
Q 1578 4750 2638 4750 
Q 3056 4750 3426 4639 
Q 3797 4528 4122 4306 
z
" transform="scale(0.015625)"/>
        <path id="DejaVuSans-68" d="M 3513 2113 
L 3513 0 
L 2938 0 
L 2938 2094 
Q 2938 2591 2744 2837 
Q 2550 3084 2163 3084 
Q 1697 3084 1428 2787 
Q 1159 2491 1159 1978 
L 1159 0 
L 581 0 
L 581 4863 
L 1159 4863 
L 1159 2956 
Q 1366 3272 1645 3428 
Q 1925 3584 2291 3584 
Q 2894 3584 3203 3211 
Q 3513 2838 3513 2113 
z
" transform="scale(0.015625)"/>
        <path id="DejaVuSans-73" d="M 2834 3397 
L 2834 2853 
Q 2591 2978 2328 3040 
Q 2066 3103 1784 3103 
Q 1356 3103 1142 2972 
Q 928 2841 928 2578 
Q 928 2378 1081 2264 
Q 1234 2150 1697 2047 
L 1894 2003 
Q 2506 1872 2764 1633 
Q 3022 1394 3022 966 
Q 3022 478 2636 193 
Q 2250 -91 1575 -91 
Q 1294 -91 989 -36 
Q 684 19 347 128 
L 347 722 
Q 666 556 975 473 
Q 1284 391 1588 391 
Q 1994 391 2212 530 
Q 2431 669 2431 922 
Q 2431 1156 2273 1281 
Q 2116 1406 1581 1522 
L 1381 1569 
Q 847 1681 609 1914 
Q 372 2147 372 2553 
Q 372 3047 722 3315 
Q 1072 3584 1716 3584 
Q 2034 3584 2315 3537 
Q 2597 3491 2834 3397 
z
" transform="scale(0.015625)"/>
        <path id="DejaVuSans-72" d="M 2631 2963 
Q 2534 3019 2420 3045 
Q 2306 3072 2169 3072 
Q 1681 3072 1420 2755 
Q 1159 2438 1159 1844 
L 1159 0 
L 581 0 
L 581 3500 
L 1159 3500 
L 1159 2956 
Q 1341 3275 1631 3429 
Q 1922 3584 2338 3584 
Q 2397 3584 2469 3576 
Q 2541 3569 2628 3553 
L 2631 2963 
z
" transform="scale(0.015625)"/>
        <path id="DejaVuSans-61" d="M 2194 1759 
Q 1497 1759 1228 1600 
Q 959 1441 959 1056 
Q 959 750 1161 570 
Q 1363 391 1709 391 
Q 2188 391 2477 730 
Q 2766 1069 2766 1631 
L 2766 1759 
L 2194 1759 
z
M 3341 1997 
L 3341 0 
L 2766 0 
L 2766 531 
Q 2569 213 2275 61 
Q 1981 -91 1556 -91 
Q 1019 -91 701 211 
Q 384 513 384 1019 
Q 384 1609 779 1909 
Q 1175 2209 1959 2209 
L 2766 2209 
L 2766 2266 
Q 2766 2663 2505 2880 
Q 2244 3097 1772 3097 
Q 1472 3097 1187 3025 
Q 903 2953 641 2809 
L 641 3341 
Q 956 3463 1253 3523 
Q 1550 3584 1831 3584 
Q 2591 3584 2966 3190 
Q 3341 2797 3341 1997 
z
" transform="scale(0.015625)"/>
        <path id="DejaVuSans-70" d="M 1159 525 
L 1159 -1331 
L 581 -1331 
L 581 3500 
L 1159 3500 
L 1159 2969 
Q 1341 3281 1617 3432 
Q 1894 3584 2278 3584 
Q 2916 3584 3314 3078 
Q 3713 2572 3713 1747 
Q 3713 922 3314 415 
Q 2916 -91 2278 -91 
Q 1894 -91 1617 61 
Q 1341 213 1159 525 
z
M 3116 1747 
Q 3116 2381 2855 2742 
Q 2594 3103 2138 3103 
Q 1681 3103 1420 2742 
Q 1159 2381 1159 1747 
Q 1159 1113 1420 752 
Q 1681 391 2138 391 
Q 2594 391 2855 752 
Q 3116 1113 3116 1747 
z
" transform="scale(0.015625)"/>
       </defs>
       <use xlink:href="#DejaVuSans-43"/>
       <use xlink:href="#DejaVuSans-68" x="69.824219"/>
       <use xlink:href="#DejaVuSans-69" x="133.203125"/>
       <use xlink:href="#DejaVuSans-6e" x="160.986328"/>
       <use xlink:href="#DejaVuSans-73" x="224.365234"/>
       <use xlink:href="#DejaVuSans-74" x="276.464844"/>
       <use xlink:href="#DejaVuSans-72" x="315.673828"/>
       <use xlink:href="#DejaVuSans-61" x="356.787109"/>
       <use xlink:href="#DejaVuSans-70" x="418.066406"/>
      </g>
     </g>
    </g>
    <g id="text_4">
     <!-- species -->
     <g transform="translate(178.368783 342.716562) scale(0.1 -0.1)">
      <defs>
       <path id="DejaVuSans-63" d="M 3122 3366 
L 3122 2828 
Q 2878 2963 2633 3030 
Q 2388 3097 2138 3097 
Q 1578 3097 1268 2742 
Q 959 2388 959 1747 
Q 959 1106 1268 751 
Q 1578 397 2138 397 
Q 2388 397 2633 464 
Q 2878 531 3122 666 
L 3122 134 
Q 2881 22 2623 -34 
Q 2366 -91 2075 -91 
Q 1284 -91 818 406 
Q 353 903 353 1747 
Q 353 2603 823 3093 
Q 1294 3584 2113 3584 
Q 2378 3584 2631 3529 
Q 2884 3475 3122 3366 
z
" transform="scale(0.015625)"/>
      </defs>
      <use xlink:href="#DejaVuSans-73"/>
      <use xlink:href="#DejaVuSans-70" x="52.099609"/>
      <use xlink:href="#DejaVuSans-65" x="115.576172"/>
      <use xlink:href="#DejaVuSans-63" x="177.099609"/>
      <use xlink:href="#DejaVuSans-69" x="232.080078"/>
      <use xlink:href="#DejaVuSans-65" x="259.863281"/>
      <use xlink:href="#DejaVuSans-73" x="321.386719"/>
     </g>
    </g>
   </g>
   <g id="matplotlib.axis_2">
    <g id="ytick_1">
     <g id="line2d_4">
      <defs>
       <path id="mfea40e1a48" d="M 0 0 
L -3.5 0 
" style="stroke: #000000; stroke-width: 0.8"/>
      </defs>
      <g>
       <use xlink:href="#mfea40e1a48" x="53.60625" y="261.378345" style="stroke: #000000; stroke-width: 0.8"/>
      </g>
     </g>
     <g id="text_5">
      <!-- 3000 -->
      <g transform="translate(21.15625 265.177564) scale(0.1 -0.1)">
       <defs>
        <path id="DejaVuSans-33" d="M 2597 2516 
Q 3050 2419 3304 2112 
Q 3559 1806 3559 1356 
Q 3559 666 3084 287 
Q 2609 -91 1734 -91 
Q 1441 -91 1130 -33 
Q 819 25 488 141 
L 488 750 
Q 750 597 1062 519 
Q 1375 441 1716 441 
Q 2309 441 2620 675 
Q 2931 909 2931 1356 
Q 2931 1769 2642 2001 
Q 2353 2234 1838 2234 
L 1294 2234 
L 1294 2753 
L 1863 2753 
Q 2328 2753 2575 2939 
Q 2822 3125 2822 3475 
Q 2822 3834 2567 4026 
Q 2313 4219 1838 4219 
Q 1578 4219 1281 4162 
Q 984 4106 628 3988 
L 628 4550 
Q 988 4650 1302 4700 
Q 1616 4750 1894 4750 
Q 2613 4750 3031 4423 
Q 3450 4097 3450 3541 
Q 3450 3153 3228 2886 
Q 3006 2619 2597 2516 
z
" transform="scale(0.015625)"/>
        <path id="DejaVuSans-30" d="M 2034 4250 
Q 1547 4250 1301 3770 
Q 1056 3291 1056 2328 
Q 1056 1369 1301 889 
Q 1547 409 2034 409 
Q 2525 409 2770 889 
Q 3016 1369 3016 2328 
Q 3016 3291 2770 3770 
Q 2525 4250 2034 4250 
z
M 2034 4750 
Q 2819 4750 3233 4129 
Q 3647 3509 3647 2328 
Q 3647 1150 3233 529 
Q 2819 -91 2034 -91 
Q 1250 -91 836 529 
Q 422 1150 422 2328 
Q 422 3509 836 4129 
Q 1250 4750 2034 4750 
z
" transform="scale(0.015625)"/>
       </defs>
       <use xlink:href="#DejaVuSans-33"/>
       <use xlink:href="#DejaVuSans-30" x="63.623047"/>
       <use xlink:href="#DejaVuSans-30" x="127.246094"/>
       <use xlink:href="#DejaVuSans-30" x="190.869141"/>
      </g>
     </g>
    </g>
    <g id="ytick_2">
     <g id="line2d_5">
      <g>
       <use xlink:href="#mfea40e1a48" x="53.60625" y="194.190639" style="stroke: #000000; stroke-width: 0.8"/>
      </g>
     </g>
     <g id="text_6">
      <!-- 4000 -->
      <g transform="translate(21.15625 197.989858) scale(0.1 -0.1)">
       <defs>
        <path id="DejaVuSans-34" d="M 2419 4116 
L 825 1625 
L 2419 1625 
L 2419 4116 
z
M 2253 4666 
L 3047 4666 
L 3047 1625 
L 3713 1625 
L 3713 1100 
L 3047 1100 
L 3047 0 
L 2419 0 
L 2419 1100 
L 313 1100 
L 313 1709 
L 2253 4666 
z
" transform="scale(0.015625)"/>
       </defs>
       <use xlink:href="#DejaVuSans-34"/>
       <use xlink:href="#DejaVuSans-30" x="63.623047"/>
       <use xlink:href="#DejaVuSans-30" x="127.246094"/>
       <use xlink:href="#DejaVuSans-30" x="190.869141"/>
      </g>
     </g>
    </g>
    <g id="ytick_3">
     <g id="line2d_6">
      <g>
       <use xlink:href="#mfea40e1a48" x="53.60625" y="127.002933" style="stroke: #000000; stroke-width: 0.8"/>
      </g>
     </g>
     <g id="text_7">
      <!-- 5000 -->
      <g transform="translate(21.15625 130.802152) scale(0.1 -0.1)">
       <defs>
        <path id="DejaVuSans-35" d="M 691 4666 
L 3169 4666 
L 3169 4134 
L 1269 4134 
L 1269 2991 
Q 1406 3038 1543 3061 
Q 1681 3084 1819 3084 
Q 2600 3084 3056 2656 
Q 3513 2228 3513 1497 
Q 3513 744 3044 326 
Q 2575 -91 1722 -91 
Q 1428 -91 1123 -41 
Q 819 9 494 109 
L 494 744 
Q 775 591 1075 516 
Q 1375 441 1709 441 
Q 2250 441 2565 725 
Q 2881 1009 2881 1497 
Q 2881 1984 2565 2268 
Q 2250 2553 1709 2553 
Q 1456 2553 1204 2497 
Q 953 2441 691 2322 
L 691 4666 
z
" transform="scale(0.015625)"/>
       </defs>
       <use xlink:href="#DejaVuSans-35"/>
       <use xlink:href="#DejaVuSans-30" x="63.623047"/>
       <use xlink:href="#DejaVuSans-30" x="127.246094"/>
       <use xlink:href="#DejaVuSans-30" x="190.869141"/>
      </g>
     </g>
    </g>
    <g id="ytick_4">
     <g id="line2d_7">
      <g>
       <use xlink:href="#mfea40e1a48" x="53.60625" y="59.815227" style="stroke: #000000; stroke-width: 0.8"/>
      </g>
     </g>
     <g id="text_8">
      <!-- 6000 -->
      <g transform="translate(21.15625 63.614445) scale(0.1 -0.1)">
       <defs>
        <path id="DejaVuSans-36" d="M 2113 2584 
Q 1688 2584 1439 2293 
Q 1191 2003 1191 1497 
Q 1191 994 1439 701 
Q 1688 409 2113 409 
Q 2538 409 2786 701 
Q 3034 994 3034 1497 
Q 3034 2003 2786 2293 
Q 2538 2584 2113 2584 
z
M 3366 4563 
L 3366 3988 
Q 3128 4100 2886 4159 
Q 2644 4219 2406 4219 
Q 1781 4219 1451 3797 
Q 1122 3375 1075 2522 
Q 1259 2794 1537 2939 
Q 1816 3084 2150 3084 
Q 2853 3084 3261 2657 
Q 3669 2231 3669 1497 
Q 3669 778 3244 343 
Q 2819 -91 2113 -91 
Q 1303 -91 875 529 
Q 447 1150 447 2328 
Q 447 3434 972 4092 
Q 1497 4750 2381 4750 
Q 2619 4750 2861 4703 
Q 3103 4656 3366 4563 
z
" transform="scale(0.015625)"/>
       </defs>
       <use xlink:href="#DejaVuSans-36"/>
       <use xlink:href="#DejaVuSans-30" x="63.623047"/>
       <use xlink:href="#DejaVuSans-30" x="127.246094"/>
       <use xlink:href="#DejaVuSans-30" x="190.869141"/>
      </g>
     </g>
    </g>
    <g id="text_9">
     <!-- body_mass_g -->
     <g transform="translate(14.798438 194.505156) rotate(-90) scale(0.1 -0.1)">
      <defs>
       <path id="DejaVuSans-62" d="M 3116 1747 
Q 3116 2381 2855 2742 
Q 2594 3103 2138 3103 
Q 1681 3103 1420 2742 
Q 1159 2381 1159 1747 
Q 1159 1113 1420 752 
Q 1681 391 2138 391 
Q 2594 391 2855 752 
Q 3116 1113 3116 1747 
z
M 1159 2969 
Q 1341 3281 1617 3432 
Q 1894 3584 2278 3584 
Q 2916 3584 3314 3078 
Q 3713 2572 3713 1747 
Q 3713 922 3314 415 
Q 2916 -91 2278 -91 
Q 1894 -91 1617 61 
Q 1341 213 1159 525 
L 1159 0 
L 581 0 
L 581 4863 
L 1159 4863 
L 1159 2969 
z
" transform="scale(0.015625)"/>
       <path id="DejaVuSans-79" d="M 2059 -325 
Q 1816 -950 1584 -1140 
Q 1353 -1331 966 -1331 
L 506 -1331 
L 506 -850 
L 844 -850 
Q 1081 -850 1212 -737 
Q 1344 -625 1503 -206 
L 1606 56 
L 191 3500 
L 800 3500 
L 1894 763 
L 2988 3500 
L 3597 3500 
L 2059 -325 
z
" transform="scale(0.015625)"/>
       <path id="DejaVuSans-5f" d="M 3263 -1063 
L 3263 -1509 
L -63 -1509 
L -63 -1063 
L 3263 -1063 
z
" transform="scale(0.015625)"/>
       <path id="DejaVuSans-6d" d="M 3328 2828 
Q 3544 3216 3844 3400 
Q 4144 3584 4550 3584 
Q 5097 3584 5394 3201 
Q 5691 2819 5691 2113 
L 5691 0 
L 5113 0 
L 5113 2094 
Q 5113 2597 4934 2840 
Q 4756 3084 4391 3084 
Q 3944 3084 3684 2787 
Q 3425 2491 3425 1978 
L 3425 0 
L 2847 0 
L 2847 2094 
Q 2847 2600 2669 2842 
Q 2491 3084 2119 3084 
Q 1678 3084 1418 2786 
Q 1159 2488 1159 1978 
L 1159 0 
L 581 0 
L 581 3500 
L 1159 3500 
L 1159 2956 
Q 1356 3278 1631 3431 
Q 1906 3584 2284 3584 
Q 2666 3584 2933 3390 
Q 3200 3197 3328 2828 
z
" transform="scale(0.015625)"/>
       <path id="DejaVuSans-67" d="M 2906 1791 
Q 2906 2416 2648 2759 
Q 2391 3103 1925 3103 
Q 1463 3103 1205 2759 
Q 947 2416 947 1791 
Q 947 1169 1205 825 
Q 1463 481 1925 481 
Q 2391 481 2648 825 
Q 2906 1169 2906 1791 
z
M 3481 434 
Q 3481 -459 3084 -895 
Q 2688 -1331 1869 -1331 
Q 1566 -1331 1297 -1286 
Q 1028 -1241 775 -1147 
L 775 -588 
Q 1028 -725 1275 -790 
Q 1522 -856 1778 -856 
Q 2344 -856 2625 -561 
Q 2906 -266 2906 331 
L 2906 616 
Q 2728 306 2450 153 
Q 2172 0 1784 0 
Q 1141 0 747 490 
Q 353 981 353 1791 
Q 353 2603 747 3093 
Q 1141 3584 1784 3584 
Q 2172 3584 2450 3431 
Q 2728 3278 2906 2969 
L 2906 3500 
L 3481 3500 
L 3481 434 
z
" transform="scale(0.015625)"/>
      </defs>
      <use xlink:href="#DejaVuSans-62"/>
      <use xlink:href="#DejaVuSans-6f" x="63.476562"/>
      <use xlink:href="#DejaVuSans-64" x="124.658203"/>
      <use xlink:href="#DejaVuSans-79" x="188.134766"/>
      <use xlink:href="#DejaVuSans-5f" x="247.314453"/>
      <use xlink:href="#DejaVuSans-6d" x="297.314453"/>
      <use xlink:href="#DejaVuSans-61" x="394.726562"/>
      <use xlink:href="#DejaVuSans-73" x="456.005859"/>
      <use xlink:href="#DejaVuSans-73" x="508.105469"/>
      <use xlink:href="#DejaVuSans-5f" x="560.205078"/>
      <use xlink:href="#DejaVuSans-67" x="610.205078"/>
     </g>
    </g>
   </g>
   <g id="line2d_8">
    <path d="M 82.293757 239.542341 
L 82.293757 142.120167 
" clip-path="url(#p5ca1804ec5)" style="fill: none; stroke: #313131; stroke-width: 1.5; stroke-linecap: square"/>
   </g>
   <g id="line2d_9">
    <path d="M 82.293757 207.62818 
L 82.293757 174.034327 
" clip-path="url(#p5ca1804ec5)" style="fill: none; stroke: #313131; stroke-width: 4.5; stroke-linecap: square"/>
   </g>
   <g id="line2d_10">
    <path d="M 120.543765 271.456501 
L 120.543765 200.90941 
" clip-path="url(#p5ca1804ec5)" style="fill: none; stroke: #313131; stroke-width: 1.5; stroke-linecap: square"/>
   </g>
   <g id="line2d_11">
    <path d="M 120.543765 249.620497 
L 120.543765 224.425107 
" clip-path="url(#p5ca1804ec5)" style="fill: none; stroke: #313131; stroke-width: 4.5; stroke-linecap: square"/>
   </g>
   <g id="line2d_12">
    <path d="M 177.918778 143.799859 
L 177.918778 39.658915 
" clip-path="url(#p5ca1804ec5)" style="fill: none; stroke: #313131; stroke-width: 1.5; stroke-linecap: square"/>
   </g>
   <g id="line2d_13">
    <path d="M 177.918778 106.846621 
L 177.918778 79.971539 
" clip-path="url(#p5ca1804ec5)" style="fill: none; stroke: #313131; stroke-width: 4.5; stroke-linecap: square"/>
   </g>
   <g id="line2d_14">
    <path d="M 216.168787 197.550024 
L 216.168787 113.565392 
" clip-path="url(#p5ca1804ec5)" style="fill: none; stroke: #313131; stroke-width: 1.5; stroke-linecap: square"/>
   </g>
   <g id="line2d_15">
    <path d="M 216.168787 163.116325 
L 216.168787 135.401396 
" clip-path="url(#p5ca1804ec5)" style="fill: none; stroke: #313131; stroke-width: 4.5; stroke-linecap: square"/>
   </g>
   <g id="line2d_16">
    <path d="M 273.5438 244.581419 
L 273.5438 157.237401 
" clip-path="url(#p5ca1804ec5)" style="fill: none; stroke: #313131; stroke-width: 1.5; stroke-linecap: square"/>
   </g>
   <g id="line2d_17">
    <path d="M 273.5438 212.247335 
L 273.5438 187.471868 
" clip-path="url(#p5ca1804ec5)" style="fill: none; stroke: #313131; stroke-width: 4.5; stroke-linecap: square"/>
   </g>
   <g id="line2d_18">
    <path d="M 311.793809 268.097116 
L 311.793809 184.112483 
" clip-path="url(#p5ca1804ec5)" style="fill: none; stroke: #313131; stroke-width: 1.5; stroke-linecap: square"/>
   </g>
   <g id="line2d_19">
    <path d="M 311.793809 237.022802 
L 311.793809 214.766874 
" clip-path="url(#p5ca1804ec5)" style="fill: none; stroke: #313131; stroke-width: 4.5; stroke-linecap: square"/>
   </g>
   <g id="patch_5">
    <path d="M 53.60625 314.44 
L 53.60625 7.2 
" style="fill: none; stroke: #000000; stroke-width: 0.8; stroke-linejoin: miter; stroke-linecap: square"/>
   </g>
   <g id="patch_6">
    <path d="M 53.60625 314.44 
L 340.481315 314.44 
" style="fill: none; stroke: #000000; stroke-width: 0.8; stroke-linejoin: miter; stroke-linecap: square"/>
   </g>
   <g id="PathCollection_1">
    <defs>
     <path id="mfb73d198d8" d="M 0 1.5 
C 0.397805 1.5 0.77937 1.341951 1.06066 1.06066 
C 1.341951 0.77937 1.5 0.397805 1.5 0 
C 1.5 -0.397805 1.341951 -0.77937 1.06066 -1.06066 
C 0.77937 -1.341951 0.397805 -1.5 0 -1.5 
C -0.397805 -1.5 -0.77937 -1.341951 -1.06066 -1.06066 
C -1.341951 -0.77937 -1.5 -0.397805 -1.5 0 
C -1.5 0.397805 -1.341951 0.77937 -1.06066 1.06066 
C -0.77937 1.341951 -0.397805 1.5 0 1.5 
z
" style="stroke: #313131"/>
    </defs>
    <g clip-path="url(#p5ca1804ec5)">
     <use xlink:href="#mfb73d198d8" x="82.293757" y="194.190639" style="fill: #ffffff; stroke: #313131"/>
    </g>
   </g>
   <g id="PathCollection_2">
    <g clip-path="url(#p5ca1804ec5)">
     <use xlink:href="#mfb73d198d8" x="120.543765" y="234.503263" style="fill: #ffffff; stroke: #313131"/>
    </g>
   </g>
   <g id="PathCollection_3">
    <g clip-path="url(#p5ca1804ec5)">
     <use xlink:href="#mfb73d198d8" x="177.918778" y="93.40908" style="fill: #ffffff; stroke: #313131"/>
    </g>
   </g>
   <g id="PathCollection_4">
    <g clip-path="url(#p5ca1804ec5)">
     <use xlink:href="#mfb73d198d8" x="216.168787" y="147.159245" style="fill: #ffffff; stroke: #313131"/>
    </g>
   </g>
   <g id="PathCollection_5">
    <g clip-path="url(#p5ca1804ec5)">
     <use xlink:href="#mfb73d198d8" x="273.5438" y="197.550024" style="fill: #ffffff; stroke: #313131"/>
    </g>
   </g>
   <g id="PathCollection_6">
    <g clip-path="url(#p5ca1804ec5)">
     <use xlink:href="#mfb73d198d8" x="311.793809" y="224.425107" style="fill: #ffffff; stroke: #313131"/>
    </g>
   </g>
  </g>
  <g id="legend_1">
   <g id="text_10">
    <!-- sex -->
    <g transform="translate(368.757071 164.079375) scale(0.1 -0.1)">
     <defs>
      <path id="DejaVuSans-78" d="M 3513 3500 
L 2247 1797 
L 3578 0 
L 2900 0 
L 1881 1375 
L 863 0 
L 184 0 
L 1544 1831 
L 300 3500 
L 978 3500 
L 1906 2253 
L 2834 3500 
L 3513 3500 
z
" transform="scale(0.015625)"/>
     </defs>
     <use xlink:href="#DejaVuSans-73"/>
     <use xlink:href="#DejaVuSans-65" x="52.099609"/>
     <use xlink:href="#DejaVuSans-78" x="111.873047"/>
    </g>
   </g>
   <g id="patch_7">
    <path d="M 346.073477 178.7575 
L 366.073477 178.7575 
L 366.073477 171.7575 
L 346.073477 171.7575 
z
" style="fill: #156590; stroke: #313131; stroke-width: 0.75; stroke-linejoin: miter"/>
   </g>
   <g id="text_11">
    <!-- male -->
    <g transform="translate(374.073477 178.7575) scale(0.1 -0.1)">
     <use xlink:href="#DejaVuSans-6d"/>
     <use xlink:href="#DejaVuSans-61" x="97.412109"/>
     <use xlink:href="#DejaVuSans-6c" x="158.691406"/>
     <use xlink:href="#DejaVuSans-65" x="186.474609"/>
    </g>
   </g>
   <g id="patch_8">
    <path d="M 346.073477 193.435625 
L 366.073477 193.435625 
L 366.073477 186.435625 
L 346.073477 186.435625 
z
" style="fill: #e1822c; stroke: #313131; stroke-width: 0.75; stroke-linejoin: miter"/>
   </g>
   <g id="text_12">
    <!-- female -->
    <g transform="translate(374.073477 193.435625) scale(0.1 -0.1)">
     <defs>
      <path id="DejaVuSans-66" d="M 2375 4863 
L 2375 4384 
L 1825 4384 
Q 1516 4384 1395 4259 
Q 1275 4134 1275 3809 
L 1275 3500 
L 2222 3500 
L 2222 3053 
L 1275 3053 
L 1275 0 
L 697 0 
L 697 3053 
L 147 3053 
L 147 3500 
L 697 3500 
L 697 3744 
Q 697 4328 969 4595 
Q 1241 4863 1831 4863 
L 2375 4863 
z
" transform="scale(0.015625)"/>
     </defs>
     <use xlink:href="#DejaVuSans-66"/>
     <use xlink:href="#DejaVuSans-65" x="35.205078"/>
     <use xlink:href="#DejaVuSans-6d" x="96.728516"/>
     <use xlink:href="#DejaVuSans-61" x="194.140625"/>
     <use xlink:href="#DejaVuSans-6c" x="255.419922"/>
     <use xlink:href="#DejaVuSans-65" x="283.203125"/>
    </g>
   </g>
  </g>
 </g>
 <defs>
  <clipPath id="p5ca1804ec5">
   <rect x="53.60625" y="7.2" width="286.875065" height="307.24"/>
  </clipPath>
 </defs>
</svg>