<?xml version="1.0" encoding="utf-8" standalone="no"?>
<!DOCTYPE svg PUBLIC "-//W3C//DTD SVG 1.1//EN"
  "http://www.w3.org/Graphics/SVG/1.1/DTD/svg11.dtd">
<svg xmlns:xlink="http://www.w3.org/1999/xlink" width="572.4pt" height="378.189219pt" viewBox="0 0 572.4 378.189219" xmlns="http://www.w3.org/2000/svg" version="1.1">
 <metadata>
  <rdf:RDF xmlns:dc="http://purl.org/dc/elements/1.1/" xmlns:cc="http://creativecommons.org/ns#" xmlns:rdf="http://www.w3.org/1999/02/22-rdf-syntax-ns#">
   <cc:Work>
    <dc:type rdf:resource="http://purl.org/dc/dcmitype/StillImage"/>
    <dc:date>2023-05-29T12:01:09.534880</dc:date>
    <dc:format>image/svg+xml</dc:format>
    <dc:creator>
     <cc:Agent>
      <dc:title>Matplotlib v3.7.1, https://matplotlib.org/</dc:title>
     </cc:Agent>
    </dc:creator>
   </cc:Work>
  </rdf:RDF>
 </metadata>
 <defs>
  <style type="text/css">*{stroke-linejoin: round; stroke-linecap: butt}</style>
 </defs>
 <g id="figure_1">
  <g id="patch_1">
   <path d="M 0 378.189219 
L 572.4 378.189219 
L 572.4 0 
L 0 0 
z
" style="fill: #ffffff"/>
  </g>
  <g id="axes_1">
   <g id="patch_2">
    <path d="M 7.2 354.429375 
L 565.2 354.429375 
L 565.2 21.789375 
L 7.2 21.789375 
z
" style="fill: #eaeaf2"/>
   </g>
   <g id="matplotlib.axis_1">
    <g id="xtick_1">
     <g id="line2d_1">
      <path d="M 73.869991 354.429375 
L 73.869991 21.789375 
" clip-path="url(#p72fc9bb396)" style="fill: none; stroke: #ffffff; stroke-linecap: round"/>
     </g>
     <g id="line2d_2">
      <defs>
       <path id="me11d4a1f2b" d="M 0 0 
L 0 3 
" style="stroke: #808080"/>
      </defs>
      <g>
       <use xlink:href="#me11d4a1f2b" x="73.869991" y="354.429375" style="fill: #808080; stroke: #808080"/>
      </g>
     </g>
     <g id="text_1">
      <!-- 5 -->
      <g style="fill: #262626" transform="translate(70.811476 368.802969) scale(0.11 -0.11)">
       <defs>
        <path id="ArialMT-35" d="M 266 1200 
L 856 1250 
Q 922 819 1161 601 
Q 1400 384 1738 384 
Q 2144 384 2425 690 
Q 2706 997 2706 1503 
Q 2706 1984 2436 2262 
Q 2166 2541 1728 2541 
Q 1456 2541 1237 2417 
Q 1019 2294 894 2097 
L 366 2166 
L 809 4519 
L 3088 4519 
L 3088 3981 
L 1259 3981 
L 1013 2750 
Q 1425 3038 1878 3038 
Q 2478 3038 2890 2622 
Q 3303 2206 3303 1553 
Q 3303 931 2941 478 
Q 2500 -78 1738 -78 
Q 1113 -78 717 272 
Q 322 622 266 1200 
z
" transform="scale(0.015625)"/>
       </defs>
       <use xlink:href="#ArialMT-35"/>
      </g>
     </g>
    </g>
    <g id="xtick_2">
     <g id="line2d_3">
      <path d="M 185.332619 354.429375 
L 185.332619 21.789375 
" clip-path="url(#p72fc9bb396)" style="fill: none; stroke: #ffffff; stroke-linecap: round"/>
     </g>
     <g id="line2d_4">
      <g>
       <use xlink:href="#me11d4a1f2b" x="185.332619" y="354.429375" style="fill: #808080; stroke: #808080"/>
      </g>
     </g>
     <g id="text_2">
      <!-- 10 -->
      <g style="fill: #262626" transform="translate(179.215588 368.802969) scale(0.11 -0.11)">
       <defs>
        <path id="ArialMT-31" d="M 2384 0 
L 1822 0 
L 1822 3584 
Q 1619 3391 1289 3197 
Q 959 3003 697 2906 
L 697 3450 
Q 1169 3672 1522 3987 
Q 1875 4303 2022 4600 
L 2384 4600 
L 2384 0 
z
" transform="scale(0.015625)"/>
        <path id="ArialMT-30" d="M 266 2259 
Q 266 3072 433 3567 
Q 600 4063 929 4331 
Q 1259 4600 1759 4600 
Q 2128 4600 2406 4451 
Q 2684 4303 2865 4023 
Q 3047 3744 3150 3342 
Q 3253 2941 3253 2259 
Q 3253 1453 3087 958 
Q 2922 463 2592 192 
Q 2263 -78 1759 -78 
Q 1097 -78 719 397 
Q 266 969 266 2259 
z
M 844 2259 
Q 844 1131 1108 757 
Q 1372 384 1759 384 
Q 2147 384 2411 759 
Q 2675 1134 2675 2259 
Q 2675 3391 2411 3762 
Q 2147 4134 1753 4134 
Q 1366 4134 1134 3806 
Q 844 3388 844 2259 
z
" transform="scale(0.015625)"/>
       </defs>
       <use xlink:href="#ArialMT-31"/>
       <use xlink:href="#ArialMT-30" x="55.615234"/>
      </g>
     </g>
    </g>
    <g id="xtick_3">
     <g id="line2d_5">
      <path d="M 296.795248 354.429375 
L 296.795248 21.789375 
" clip-path="url(#p72fc9bb396)" style="fill: none; stroke: #ffffff; stroke-linecap: round"/>
     </g>
     <g id="line2d_6">
      <g>
       <use xlink:href="#me11d4a1f2b" x="296.795248" y="354.429375" style="fill: #808080; stroke: #808080"/>
      </g>
     </g>
     <g id="text_3">
      <!-- 15 -->
      <g style="fill: #262626" transform="translate(290.678216 368.802969) scale(0.11 -0.11)">
       <use xlink:href="#ArialMT-31"/>
       <use xlink:href="#ArialMT-35" x="55.615234"/>
      </g>
     </g>
    </g>
    <g id="xtick_4">
     <g id="line2d_7">
      <path d="M 408.257876 354.429375 
L 408.257876 21.789375 
" clip-path="url(#p72fc9bb396)" style="fill: none; stroke: #ffffff; stroke-linecap: round"/>
     </g>
     <g id="line2d_8">
      <g>
       <use xlink:href="#me11d4a1f2b" x="408.257876" y="354.429375" style="fill: #808080; stroke: #808080"/>
      </g>
     </g>
     <g id="text_4">
      <!-- 20 -->
      <g style="fill: #262626" transform="translate(402.140844 368.802969) scale(0.11 -0.11)">
       <defs>
        <path id="ArialMT-32" d="M 3222 541 
L 3222 0 
L 194 0 
Q 188 203 259 391 
Q 375 700 629 1000 
Q 884 1300 1366 1694 
Q 2113 2306 2375 2664 
Q 2638 3022 2638 3341 
Q 2638 3675 2398 3904 
Q 2159 4134 1775 4134 
Q 1369 4134 1125 3890 
Q 881 3647 878 3216 
L 300 3275 
Q 359 3922 746 4261 
Q 1134 4600 1788 4600 
Q 2447 4600 2831 4234 
Q 3216 3869 3216 3328 
Q 3216 3053 3103 2787 
Q 2991 2522 2730 2228 
Q 2469 1934 1863 1422 
Q 1356 997 1212 845 
Q 1069 694 975 541 
L 3222 541 
z
" transform="scale(0.015625)"/>
       </defs>
       <use xlink:href="#ArialMT-32"/>
       <use xlink:href="#ArialMT-30" x="55.615234"/>
      </g>
     </g>
    </g>
    <g id="xtick_5">
     <g id="line2d_9">
      <path d="M 519.720504 354.429375 
L 519.720504 21.789375 
" clip-path="url(#p72fc9bb396)" style="fill: none; stroke: #ffffff; stroke-linecap: round"/>
     </g>
     <g id="line2d_10">
      <g>
       <use xlink:href="#me11d4a1f2b" x="519.720504" y="354.429375" style="fill: #808080; stroke: #808080"/>
      </g>
     </g>
     <g id="text_5">
      <!-- 25 -->
      <g style="fill: #262626" transform="translate(513.603473 368.802969) scale(0.11 -0.11)">
       <use xlink:href="#ArialMT-32"/>
       <use xlink:href="#ArialMT-35" x="55.615234"/>
      </g>
     </g>
    </g>
   </g>
   <g id="matplotlib.axis_2"/>
   <g id="PolyCollection_1">
    <defs>
     <path id="mb84bf2318a" d="M 32.563636 -38.879844 
L 32.563636 -40.523622 
L 33.556342 -40.537598 
L 34.549048 -40.566508 
L 35.541754 -40.610051 
L 36.53446 -40.66946 
L 37.527166 -40.741856 
L 38.519872 -40.845761 
L 39.512578 -40.951756 
L 40.505284 -41.086157 
L 41.49799 -41.230241 
L 42.490696 -41.39709 
L 43.483402 -41.586067 
L 44.476107 -41.785236 
L 45.468813 -41.994497 
L 46.461519 -42.234186 
L 47.454225 -42.492112 
L 48.446931 -42.760178 
L 49.439637 -43.053226 
L 50.432343 -43.363781 
L 51.425049 -43.701053 
L 52.417755 -44.039956 
L 53.410461 -44.402333 
L 54.403167 -44.778614 
L 55.395873 -45.174581 
L 56.388579 -45.599875 
L 57.381284 -46.038679 
L 58.37399 -46.504844 
L 59.366696 -46.99141 
L 60.359402 -47.500712 
L 61.352108 -48.031078 
L 62.344814 -48.591052 
L 63.33752 -49.180392 
L 64.330226 -49.800623 
L 65.322932 -50.442344 
L 66.315638 -51.106279 
L 67.308344 -51.806436 
L 68.30105 -52.521671 
L 69.293756 -53.272802 
L 70.286461 -54.046078 
L 71.279167 -54.845874 
L 72.271873 -55.669866 
L 73.264579 -56.510792 
L 74.257285 -57.372711 
L 75.249991 -58.278895 
L 76.242697 -59.202467 
L 77.235403 -60.152743 
L 78.228109 -61.142069 
L 79.220815 -62.140207 
L 80.213521 -63.181149 
L 81.206227 -64.25103 
L 82.198933 -65.359668 
L 83.191638 -66.513449 
L 84.184344 -67.700147 
L 85.17705 -68.927844 
L 86.169756 -70.198916 
L 87.162462 -71.532596 
L 88.155168 -72.935737 
L 89.147874 -74.385991 
L 90.14058 -75.916104 
L 91.133286 -77.502174 
L 92.125992 -79.179076 
L 93.118698 -80.932273 
L 94.111404 -82.753092 
L 95.10411 -84.675351 
L 96.096816 -86.664615 
L 97.089521 -88.736742 
L 98.082227 -90.876233 
L 99.074933 -93.139511 
L 100.067639 -95.478532 
L 101.060345 -97.89795 
L 102.053051 -100.395509 
L 103.045757 -102.979587 
L 104.038463 -105.623025 
L 105.031169 -108.333825 
L 106.023875 -111.123348 
L 107.016581 -113.962296 
L 108.009287 -116.875685 
L 109.001993 -119.854967 
L 109.994698 -122.839159 
L 110.987404 -125.891877 
L 111.98011 -128.972288 
L 112.972816 -132.097501 
L 113.965522 -135.225806 
L 114.958228 -138.352264 
L 115.950934 -141.488256 
L 116.94364 -144.648593 
L 117.936346 -147.786707 
L 118.929052 -150.921034 
L 119.921758 -154.045828 
L 120.914464 -157.143923 
L 121.90717 -160.207696 
L 122.899875 -163.234374 
L 123.892581 -166.261769 
L 124.885287 -169.247589 
L 125.877993 -172.214839 
L 126.870699 -175.123432 
L 127.863405 -178.000949 
L 128.856111 -180.841592 
L 129.848817 -183.638911 
L 130.841523 -186.392861 
L 131.834229 -189.151122 
L 132.826935 -191.85883 
L 133.819641 -194.538529 
L 134.812347 -197.207139 
L 135.805052 -199.851579 
L 136.797758 -202.490454 
L 137.790464 -205.162563 
L 138.78317 -207.786897 
L 139.775876 -210.443987 
L 140.768582 -213.119895 
L 141.761288 -215.868076 
L 142.753994 -218.625263 
L 143.7467 -221.405479 
L 144.739406 -224.264455 
L 145.732112 -227.124827 
L 146.724818 -230.061157 
L 147.717524 -233.0701 
L 148.710229 -236.101871 
L 149.702935 -239.197597 
L 150.695641 -242.374734 
L 151.688347 -245.568717 
L 152.681053 -248.811793 
L 153.673759 -252.098485 
L 154.666465 -255.405862 
L 155.659171 -258.758479 
L 156.651877 -262.111008 
L 157.644583 -265.470086 
L 158.637289 -268.80007 
L 159.629995 -272.143089 
L 160.622701 -275.449761 
L 161.615407 -278.725202 
L 162.608112 -281.996595 
L 163.600818 -285.1987 
L 164.593524 -288.32855 
L 165.58623 -291.430389 
L 166.578936 -294.445684 
L 167.571642 -297.376028 
L 168.564348 -300.20774 
L 169.557054 -302.976414 
L 170.54976 -305.618712 
L 171.542466 -308.163671 
L 172.535172 -310.581812 
L 173.527878 -312.903452 
L 174.520584 -315.103425 
L 175.513289 -317.190337 
L 176.505995 -319.145395 
L 177.498701 -320.936836 
L 178.491407 -322.622446 
L 179.484113 -324.155563 
L 180.476819 -325.576825 
L 181.469525 -326.896973 
L 182.462231 -328.094025 
L 183.454937 -329.139237 
L 184.447643 -330.059778 
L 185.440349 -330.913259 
L 186.433055 -331.6828 
L 187.425761 -332.380296 
L 188.418466 -332.955598 
L 189.411172 -333.485022 
L 190.403878 -333.941792 
L 191.396584 -334.333897 
L 192.38929 -334.675317 
L 193.381996 -335.003818 
L 194.374702 -335.323176 
L 195.367408 -335.598686 
L 196.360114 -335.885817 
L 197.35282 -336.112718 
L 198.345526 -336.368419 
L 199.338232 -336.602799 
L 200.330938 -336.851756 
L 201.323643 -337.108709 
L 202.316349 -337.384056 
L 203.309055 -337.613118 
L 204.301761 -337.898614 
L 205.294467 -338.190043 
L 206.287173 -338.483222 
L 207.279879 -338.790196 
L 208.272585 -339.113776 
L 209.265291 -339.395684 
L 210.257997 -339.737205 
L 211.250703 -340.031802 
L 212.243409 -340.301461 
L 213.236115 -340.535279 
L 214.22882 -340.768751 
L 215.221526 -340.978424 
L 216.214232 -341.138743 
L 217.206938 -341.267584 
L 218.199644 -341.279844 
L 219.19235 -341.202095 
L 220.185056 -341.112081 
L 221.177762 -340.887059 
L 222.170468 -340.565091 
L 223.163174 -340.147481 
L 224.15588 -339.62927 
L 225.148586 -338.997719 
L 226.141292 -338.258371 
L 227.133998 -337.39187 
L 228.126703 -336.46187 
L 229.119409 -335.409945 
L 230.112115 -334.248994 
L 231.104821 -333.003749 
L 232.097527 -331.689423 
L 233.090233 -330.306064 
L 234.082939 -328.803647 
L 235.075645 -327.263973 
L 236.068351 -325.688183 
L 237.061057 -324.020604 
L 238.053763 -322.34576 
L 239.046469 -320.628519 
L 240.039175 -318.89826 
L 241.03188 -317.104566 
L 242.024586 -315.269882 
L 243.017292 -313.416558 
L 244.009998 -311.526987 
L 245.002704 -309.604631 
L 245.99541 -307.658534 
L 246.988116 -305.689 
L 247.980822 -303.681785 
L 248.973528 -301.654954 
L 249.966234 -299.619176 
L 250.95894 -297.554001 
L 251.951646 -295.443275 
L 252.944352 -293.35949 
L 253.937057 -291.251166 
L 254.929763 -289.217799 
L 255.922469 -287.182926 
L 256.915175 -285.123769 
L 257.907881 -283.098896 
L 258.900587 -281.073799 
L 259.893293 -279.110474 
L 260.885999 -277.153113 
L 261.878705 -275.252051 
L 262.871411 -273.390924 
L 263.864117 -271.541515 
L 264.856823 -269.703326 
L 265.849529 -267.846862 
L 266.842234 -266.013084 
L 267.83494 -264.158336 
L 268.827646 -262.328736 
L 269.820352 -260.453788 
L 270.813058 -258.547159 
L 271.805764 -256.601876 
L 272.79847 -254.626591 
L 273.791176 -252.601936 
L 274.783882 -250.552862 
L 275.776588 -248.411749 
L 276.769294 -246.207865 
L 277.762 -243.972265 
L 278.754706 -241.688089 
L 279.747411 -239.357731 
L 280.740117 -237.002551 
L 281.732823 -234.575785 
L 282.725529 -232.166717 
L 283.718235 -229.711728 
L 284.710941 -227.247282 
L 285.703647 -224.764397 
L 286.696353 -222.28999 
L 287.689059 -219.798271 
L 288.681765 -217.354386 
L 289.674471 -214.912465 
L 290.667177 -212.50509 
L 291.659883 -210.092563 
L 292.652589 -207.733528 
L 293.645294 -205.369816 
L 294.638 -203.062761 
L 295.630706 -200.755936 
L 296.623412 -198.45891 
L 297.616118 -196.212579 
L 298.608824 -193.978874 
L 299.60153 -191.766021 
L 300.594236 -189.575718 
L 301.586942 -187.428217 
L 302.579648 -185.255099 
L 303.572354 -183.115193 
L 304.56506 -180.973625 
L 305.557766 -178.882652 
L 306.550471 -176.787943 
L 307.543177 -174.738871 
L 308.535883 -172.698877 
L 309.528589 -170.672508 
L 310.521295 -168.669853 
L 311.514001 -166.666667 
L 312.506707 -164.709716 
L 313.499413 -162.779611 
L 314.492119 -160.879894 
L 315.484825 -159.050445 
L 316.477531 -157.229429 
L 317.470237 -155.444759 
L 318.462943 -153.699874 
L 319.455648 -152.010359 
L 320.448354 -150.386563 
L 321.44106 -148.775995 
L 322.433766 -147.233205 
L 323.426472 -145.744676 
L 324.419178 -144.282385 
L 325.411884 -142.887247 
L 326.40459 -141.513533 
L 327.397296 -140.209314 
L 328.390002 -138.973693 
L 329.382708 -137.756819 
L 330.375414 -136.598483 
L 331.36812 -135.45564 
L 332.360825 -134.346871 
L 333.353531 -133.251495 
L 334.346237 -132.178269 
L 335.338943 -131.12185 
L 336.331649 -130.068433 
L 337.324355 -129.034975 
L 338.317061 -127.983759 
L 339.309767 -126.932012 
L 340.302473 -125.876722 
L 341.295179 -124.790072 
L 342.287885 -123.687399 
L 343.280591 -122.558664 
L 344.273297 -121.372348 
L 345.266002 -120.161035 
L 346.258708 -118.912776 
L 347.251414 -117.649806 
L 348.24412 -116.365896 
L 349.236826 -115.028806 
L 350.229532 -113.660943 
L 351.222238 -112.274911 
L 352.214944 -110.861237 
L 353.20765 -109.449559 
L 354.200356 -108.000978 
L 355.193062 -106.557598 
L 356.185768 -105.085026 
L 357.178474 -103.64138 
L 358.17118 -102.195966 
L 359.163885 -100.766903 
L 360.156591 -99.349915 
L 361.149297 -97.972846 
L 362.142003 -96.62007 
L 363.134709 -95.299068 
L 364.127415 -94.023577 
L 365.120121 -92.804487 
L 366.112827 -91.617798 
L 367.105533 -90.498692 
L 368.098239 -89.434024 
L 369.090945 -88.39297 
L 370.083651 -87.419466 
L 371.076357 -86.479152 
L 372.069062 -85.606684 
L 373.061768 -84.762502 
L 374.054474 -83.960484 
L 375.04718 -83.198819 
L 376.039886 -82.481226 
L 377.032592 -81.789297 
L 378.025298 -81.116396 
L 379.018004 -80.437244 
L 380.01071 -79.797712 
L 381.003416 -79.148266 
L 381.996122 -78.533171 
L 382.988828 -77.922968 
L 383.981534 -77.304464 
L 384.974239 -76.699849 
L 385.966945 -76.095404 
L 386.959651 -75.489786 
L 387.952357 -74.893564 
L 388.945063 -74.305186 
L 389.937769 -73.732383 
L 390.930475 -73.173997 
L 391.923181 -72.610056 
L 392.915887 -72.070605 
L 393.908593 -71.545471 
L 394.901299 -71.039642 
L 395.894005 -70.550195 
L 396.886711 -70.075764 
L 397.879416 -69.610964 
L 398.872122 -69.155694 
L 399.864828 -68.714472 
L 400.857534 -68.29042 
L 401.85024 -67.868448 
L 402.842946 -67.4573 
L 403.835652 -67.043823 
L 404.828358 -66.621292 
L 405.821064 -66.193203 
L 406.81377 -65.769548 
L 407.806476 -65.323596 
L 408.799182 -64.85834 
L 409.791888 -64.38649 
L 410.784593 -63.895077 
L 411.777299 -63.383012 
L 412.770005 -62.872449 
L 413.762711 -62.338729 
L 414.755417 -61.789722 
L 415.748123 -61.241589 
L 416.740829 -60.675475 
L 417.733535 -60.104246 
L 418.726241 -59.533193 
L 419.718947 -58.950098 
L 420.711653 -58.370945 
L 421.704359 -57.80513 
L 422.697065 -57.236774 
L 423.689771 -56.683237 
L 424.682476 -56.135439 
L 425.675182 -55.601963 
L 426.667888 -55.083142 
L 427.660594 -54.581551 
L 428.6533 -54.089546 
L 429.646006 -53.610691 
L 430.638712 -53.148408 
L 431.631418 -52.70153 
L 432.624124 -52.27878 
L 433.61683 -51.868799 
L 434.609536 -51.469937 
L 435.602242 -51.086757 
L 436.594948 -50.729918 
L 437.587653 -50.380498 
L 438.580359 -50.049901 
L 439.573065 -49.742376 
L 440.565771 -49.453044 
L 441.558477 -49.17913 
L 442.551183 -48.919636 
L 443.543889 -48.678255 
L 444.536595 -48.456988 
L 445.529301 -48.252299 
L 446.522007 -48.061044 
L 447.514713 -47.873593 
L 448.507419 -47.700694 
L 449.500125 -47.543248 
L 450.49283 -47.396289 
L 451.485536 -47.254293 
L 452.478242 -47.115529 
L 453.470948 -46.977707 
L 454.463654 -46.842429 
L 455.45636 -46.700401 
L 456.449066 -46.552692 
L 457.441772 -46.40211 
L 458.434478 -46.241832 
L 459.427184 -46.077933 
L 460.41989 -45.903641 
L 461.412596 -45.724027 
L 462.405302 -45.529618 
L 463.398007 -45.33371 
L 464.390713 -45.124766 
L 465.383419 -44.908351 
L 466.376125 -44.685857 
L 467.368831 -44.459561 
L 468.361537 -44.22527 
L 469.354243 -43.992063 
L 470.346949 -43.760541 
L 471.339655 -43.523128 
L 472.332361 -43.287467 
L 473.325067 -43.058982 
L 474.317773 -42.829928 
L 475.310479 -42.611094 
L 476.303184 -42.399533 
L 477.29589 -42.196575 
L 478.288596 -42.000016 
L 479.281302 -41.818957 
L 480.274008 -41.651576 
L 481.266714 -41.496 
L 482.25942 -41.352864 
L 483.252126 -41.222592 
L 484.244832 -41.105911 
L 485.237538 -41.001166 
L 486.230244 -40.908623 
L 487.22295 -40.831674 
L 488.215656 -40.768784 
L 489.208362 -40.71552 
L 490.201067 -40.669906 
L 491.193773 -40.640282 
L 492.186479 -40.617476 
L 493.179185 -40.600929 
L 494.171891 -40.589909 
L 495.164597 -40.588624 
L 496.157303 -40.591529 
L 497.150009 -40.594115 
L 498.142715 -40.604523 
L 499.135421 -40.615214 
L 500.128127 -40.621918 
L 501.120833 -40.631367 
L 502.113539 -40.640626 
L 503.106244 -40.643598 
L 504.09895 -40.642363 
L 505.091656 -40.642415 
L 506.084362 -40.64084 
L 507.077068 -40.635499 
L 508.069774 -40.624381 
L 509.06248 -40.611569 
L 510.055186 -40.591898 
L 511.047892 -40.567864 
L 512.040598 -40.545337 
L 513.033304 -40.520522 
L 514.02601 -40.492398 
L 515.018716 -40.465453 
L 516.011421 -40.438225 
L 517.004127 -40.411459 
L 517.996833 -40.385884 
L 518.989539 -40.362192 
L 519.982245 -40.341026 
L 520.974951 -40.322954 
L 521.967657 -40.308455 
L 522.960363 -40.296211 
L 523.953069 -40.290253 
L 524.945775 -40.290713 
L 525.938481 -40.29381 
L 526.931187 -40.303289 
L 527.923893 -40.315085 
L 528.916598 -40.328768 
L 529.909304 -40.347552 
L 530.90201 -40.368558 
L 531.894716 -40.393213 
L 532.887422 -40.416894 
L 533.880128 -40.440403 
L 534.872834 -40.462837 
L 535.86554 -40.483309 
L 536.858246 -40.499292 
L 537.850952 -40.514336 
L 538.843658 -40.525638 
L 539.836364 -40.53055 
L 539.836364 -38.879844 
L 539.836364 -38.879844 
L 538.843658 -38.879844 
L 537.850952 -38.879844 
L 536.858246 -38.879844 
L 535.86554 -38.879844 
L 534.872834 -38.879844 
L 533.880128 -38.879844 
L 532.887422 -38.879844 
L 531.894716 -38.879844 
L 530.90201 -38.879844 
L 529.909304 -38.879844 
L 528.916598 -38.879844 
L 527.923893 -38.879844 
L 526.931187 -38.879844 
L 525.938481 -38.879844 
L 524.945775 -38.879844 
L 523.953069 -38.879844 
L 522.960363 -38.879844 
L 521.967657 -38.879844 
L 520.974951 -38.879844 
L 519.982245 -38.879844 
L 518.989539 -38.879844 
L 517.996833 -38.879844 
L 517.004127 -38.879844 
L 516.011421 -38.879844 
L 515.018716 -38.879844 
L 514.02601 -38.879844 
L 513.033304 -38.879844 
L 512.040598 -38.879844 
L 511.047892 -38.879844 
L 510.055186 -38.879844 
L 509.06248 -38.879844 
L 508.069774 -38.879844 
L 507.077068 -38.879844 
L 506.084362 -38.879844 
L 505.091656 -38.879844 
L 504.09895 -38.879844 
L 503.106244 -38.879844 
L 502.113539 -38.879844 
L 501.120833 -38.879844 
L 500.128127 -38.879844 
L 499.135421 -38.879844 
L 498.142715 -38.879844 
L 497.150009 -38.879844 
L 496.157303 -38.879844 
L 495.164597 -38.879844 
L 494.171891 -38.879844 
L 493.179185 -38.879844 
L 492.186479 -38.879844 
L 491.193773 -38.879844 
L 490.201067 -38.879844 
L 489.208362 -38.879844 
L 488.215656 -38.879844 
L 487.22295 -38.879844 
L 486.230244 -38.879844 
L 485.237538 -38.879844 
L 484.244832 -38.879844 
L 483.252126 -38.879844 
L 482.25942 -38.879844 
L 481.266714 -38.879844 
L 480.274008 -38.879844 
L 479.281302 -38.879844 
L 478.288596 -38.879844 
L 477.29589 -38.879844 
L 476.303184 -38.879844 
L 475.310479 -38.879844 
L 474.317773 -38.879844 
L 473.325067 -38.879844 
L 472.332361 -38.879844 
L 471.339655 -38.879844 
L 470.346949 -38.879844 
L 469.354243 -38.879844 
L 468.361537 -38.879844 
L 467.368831 -38.879844 
L 466.376125 -38.879844 
L 465.383419 -38.879844 
L 464.390713 -38.879844 
L 463.398007 -38.879844 
L 462.405302 -38.879844 
L 461.412596 -38.879844 
L 460.41989 -38.879844 
L 459.427184 -38.879844 
L 458.434478 -38.879844 
L 457.441772 -38.879844 
L 456.449066 -38.879844 
L 455.45636 -38.879844 
L 454.463654 -38.879844 
L 453.470948 -38.879844 
L 452.478242 -38.879844 
L 451.485536 -38.879844 
L 450.49283 -38.879844 
L 449.500125 -38.879844 
L 448.507419 -38.879844 
L 447.514713 -38.879844 
L 446.522007 -38.879844 
L 445.529301 -38.879844 
L 444.536595 -38.879844 
L 443.543889 -38.879844 
L 442.551183 -38.879844 
L 441.558477 -38.879844 
L 440.565771 -38.879844 
L 439.573065 -38.879844 
L 438.580359 -38.879844 
L 437.587653 -38.879844 
L 436.594948 -38.879844 
L 435.602242 -38.879844 
L 434.609536 -38.879844 
L 433.61683 -38.879844 
L 432.624124 -38.879844 
L 431.631418 -38.879844 
L 430.638712 -38.879844 
L 429.646006 -38.879844 
L 428.6533 -38.879844 
L 427.660594 -38.879844 
L 426.667888 -38.879844 
L 425.675182 -38.879844 
L 424.682476 -38.879844 
L 423.689771 -38.879844 
L 422.697065 -38.879844 
L 421.704359 -38.879844 
L 420.711653 -38.879844 
L 419.718947 -38.879844 
L 418.726241 -38.879844 
L 417.733535 -38.879844 
L 416.740829 -38.879844 
L 415.748123 -38.879844 
L 414.755417 -38.879844 
L 413.762711 -38.879844 
L 412.770005 -38.879844 
L 411.777299 -38.879844 
L 410.784593 -38.879844 
L 409.791888 -38.879844 
L 408.799182 -38.879844 
L 407.806476 -38.879844 
L 406.81377 -38.879844 
L 405.821064 -38.879844 
L 404.828358 -38.879844 
L 403.835652 -38.879844 
L 402.842946 -38.879844 
L 401.85024 -38.879844 
L 400.857534 -38.879844 
L 399.864828 -38.879844 
L 398.872122 -38.879844 
L 397.879416 -38.879844 
L 396.886711 -38.879844 
L 395.894005 -38.879844 
L 394.901299 -38.879844 
L 393.908593 -38.879844 
L 392.915887 -38.879844 
L 391.923181 -38.879844 
L 390.930475 -38.879844 
L 389.937769 -38.879844 
L 388.945063 -38.879844 
L 387.952357 -38.879844 
L 386.959651 -38.879844 
L 385.966945 -38.879844 
L 384.974239 -38.879844 
L 383.981534 -38.879844 
L 382.988828 -38.879844 
L 381.996122 -38.879844 
L 381.003416 -38.879844 
L 380.01071 -38.879844 
L 379.018004 -38.879844 
L 378.025298 -38.879844 
L 377.032592 -38.879844 
L 376.039886 -38.879844 
L 375.04718 -38.879844 
L 374.054474 -38.879844 
L 373.061768 -38.879844 
L 372.069062 -38.879844 
L 371.076357 -38.879844 
L 370.083651 -38.879844 
L 369.090945 -38.879844 
L 368.098239 -38.879844 
L 367.105533 -38.879844 
L 366.112827 -38.879844 
L 365.120121 -38.879844 
L 364.127415 -38.879844 
L 363.134709 -38.879844 
L 362.142003 -38.879844 
L 361.149297 -38.879844 
L 360.156591 -38.879844 
L 359.163885 -38.879844 
L 358.17118 -38.879844 
L 357.178474 -38.879844 
L 356.185768 -38.879844 
L 355.193062 -38.879844 
L 354.200356 -38.879844 
L 353.20765 -38.879844 
L 352.214944 -38.879844 
L 351.222238 -38.879844 
L 350.229532 -38.879844 
L 349.236826 -38.879844 
L 348.24412 -38.879844 
L 347.251414 -38.879844 
L 346.258708 -38.879844 
L 345.266002 -38.879844 
L 344.273297 -38.879844 
L 343.280591 -38.879844 
L 342.287885 -38.879844 
L 341.295179 -38.879844 
L 340.302473 -38.879844 
L 339.309767 -38.879844 
L 338.317061 -38.879844 
L 337.324355 -38.879844 
L 336.331649 -38.879844 
L 335.338943 -38.879844 
L 334.346237 -38.879844 
L 333.353531 -38.879844 
L 332.360825 -38.879844 
L 331.36812 -38.879844 
L 330.375414 -38.879844 
L 329.382708 -38.879844 
L 328.390002 -38.879844 
L 327.397296 -38.879844 
L 326.40459 -38.879844 
L 325.411884 -38.879844 
L 324.419178 -38.879844 
L 323.426472 -38.879844 
L 322.433766 -38.879844 
L 321.44106 -38.879844 
L 320.448354 -38.879844 
L 319.455648 -38.879844 
L 318.462943 -38.879844 
L 317.470237 -38.879844 
L 316.477531 -38.879844 
L 315.484825 -38.879844 
L 314.492119 -38.879844 
L 313.499413 -38.879844 
L 312.506707 -38.879844 
L 311.514001 -38.879844 
L 310.521295 -38.879844 
L 309.528589 -38.879844 
L 308.535883 -38.879844 
L 307.543177 -38.879844 
L 306.550471 -38.879844 
L 305.557766 -38.879844 
L 304.56506 -38.879844 
L 303.572354 -38.879844 
L 302.579648 -38.879844 
L 301.586942 -38.879844 
L 300.594236 -38.879844 
L 299.60153 -38.879844 
L 298.608824 -38.879844 
L 297.616118 -38.879844 
L 296.623412 -38.879844 
L 295.630706 -38.879844 
L 294.638 -38.879844 
L 293.645294 -38.879844 
L 292.652589 -38.879844 
L 291.659883 -38.879844 
L 290.667177 -38.879844 
L 289.674471 -38.879844 
L 288.681765 -38.879844 
L 287.689059 -38.879844 
L 286.696353 -38.879844 
L 285.703647 -38.879844 
L 284.710941 -38.879844 
L 283.718235 -38.879844 
L 282.725529 -38.879844 
L 281.732823 -38.879844 
L 280.740117 -38.879844 
L 279.747411 -38.879844 
L 278.754706 -38.879844 
L 277.762 -38.879844 
L 276.769294 -38.879844 
L 275.776588 -38.879844 
L 274.783882 -38.879844 
L 273.791176 -38.879844 
L 272.79847 -38.879844 
L 271.805764 -38.879844 
L 270.813058 -38.879844 
L 269.820352 -38.879844 
L 268.827646 -38.879844 
L 267.83494 -38.879844 
L 266.842234 -38.879844 
L 265.849529 -38.879844 
L 264.856823 -38.879844 
L 263.864117 -38.879844 
L 262.871411 -38.879844 
L 261.878705 -38.879844 
L 260.885999 -38.879844 
L 259.893293 -38.879844 
L 258.900587 -38.879844 
L 257.907881 -38.879844 
L 256.915175 -38.879844 
L 255.922469 -38.879844 
L 254.929763 -38.879844 
L 253.937057 -38.879844 
L 252.944352 -38.879844 
L 251.951646 -38.879844 
L 250.95894 -38.879844 
L 249.966234 -38.879844 
L 248.973528 -38.879844 
L 247.980822 -38.879844 
L 246.988116 -38.879844 
L 245.99541 -38.879844 
L 245.002704 -38.879844 
L 244.009998 -38.879844 
L 243.017292 -38.879844 
L 242.024586 -38.879844 
L 241.03188 -38.879844 
L 240.039175 -38.879844 
L 239.046469 -38.879844 
L 238.053763 -38.879844 
L 237.061057 -38.879844 
L 236.068351 -38.879844 
L 235.075645 -38.879844 
L 234.082939 -38.879844 
L 233.090233 -38.879844 
L 232.097527 -38.879844 
L 231.104821 -38.879844 
L 230.112115 -38.879844 
L 229.119409 -38.879844 
L 228.126703 -38.879844 
L 227.133998 -38.879844 
L 226.141292 -38.879844 
L 225.148586 -38.879844 
L 224.15588 -38.879844 
L 223.163174 -38.879844 
L 222.170468 -38.879844 
L 221.177762 -38.879844 
L 220.185056 -38.879844 
L 219.19235 -38.879844 
L 218.199644 -38.879844 
L 217.206938 -38.879844 
L 216.214232 -38.879844 
L 215.221526 -38.879844 
L 214.22882 -38.879844 
L 213.236115 -38.879844 
L 212.243409 -38.879844 
L 211.250703 -38.879844 
L 210.257997 -38.879844 
L 209.265291 -38.879844 
L 208.272585 -38.879844 
L 207.279879 -38.879844 
L 206.287173 -38.879844 
L 205.294467 -38.879844 
L 204.301761 -38.879844 
L 203.309055 -38.879844 
L 202.316349 -38.879844 
L 201.323643 -38.879844 
L 200.330938 -38.879844 
L 199.338232 -38.879844 
L 198.345526 -38.879844 
L 197.35282 -38.879844 
L 196.360114 -38.879844 
L 195.367408 -38.879844 
L 194.374702 -38.879844 
L 193.381996 -38.879844 
L 192.38929 -38.879844 
L 191.396584 -38.879844 
L 190.403878 -38.879844 
L 189.411172 -38.879844 
L 188.418466 -38.879844 
L 187.425761 -38.879844 
L 186.433055 -38.879844 
L 185.440349 -38.879844 
L 184.447643 -38.879844 
L 183.454937 -38.879844 
L 182.462231 -38.879844 
L 181.469525 -38.879844 
L 180.476819 -38.879844 
L 179.484113 -38.879844 
L 178.491407 -38.879844 
L 177.498701 -38.879844 
L 176.505995 -38.879844 
L 175.513289 -38.879844 
L 174.520584 -38.879844 
L 173.527878 -38.879844 
L 172.535172 -38.879844 
L 171.542466 -38.879844 
L 170.54976 -38.879844 
L 169.557054 -38.879844 
L 168.564348 -38.879844 
L 167.571642 -38.879844 
L 166.578936 -38.879844 
L 165.58623 -38.879844 
L 164.593524 -38.879844 
L 163.600818 -38.879844 
L 162.608112 -38.879844 
L 161.615407 -38.879844 
L 160.622701 -38.879844 
L 159.629995 -38.879844 
L 158.637289 -38.879844 
L 157.644583 -38.879844 
L 156.651877 -38.879844 
L 155.659171 -38.879844 
L 154.666465 -38.879844 
L 153.673759 -38.879844 
L 152.681053 -38.879844 
L 151.688347 -38.879844 
L 150.695641 -38.879844 
L 149.702935 -38.879844 
L 148.710229 -38.879844 
L 147.717524 -38.879844 
L 146.724818 -38.879844 
L 145.732112 -38.879844 
L 144.739406 -38.879844 
L 143.7467 -38.879844 
L 142.753994 -38.879844 
L 141.761288 -38.879844 
L 140.768582 -38.879844 
L 139.775876 -38.879844 
L 138.78317 -38.879844 
L 137.790464 -38.879844 
L 136.797758 -38.879844 
L 135.805052 -38.879844 
L 134.812347 -38.879844 
L 133.819641 -38.879844 
L 132.826935 -38.879844 
L 131.834229 -38.879844 
L 130.841523 -38.879844 
L 129.848817 -38.879844 
L 128.856111 -38.879844 
L 127.863405 -38.879844 
L 126.870699 -38.879844 
L 125.877993 -38.879844 
L 124.885287 -38.879844 
L 123.892581 -38.879844 
L 122.899875 -38.879844 
L 121.90717 -38.879844 
L 120.914464 -38.879844 
L 119.921758 -38.879844 
L 118.929052 -38.879844 
L 117.936346 -38.879844 
L 116.94364 -38.879844 
L 115.950934 -38.879844 
L 114.958228 -38.879844 
L 113.965522 -38.879844 
L 112.972816 -38.879844 
L 111.98011 -38.879844 
L 110.987404 -38.879844 
L 109.994698 -38.879844 
L 109.001993 -38.879844 
L 108.009287 -38.879844 
L 107.016581 -38.879844 
L 106.023875 -38.879844 
L 105.031169 -38.879844 
L 104.038463 -38.879844 
L 103.045757 -38.879844 
L 102.053051 -38.879844 
L 101.060345 -38.879844 
L 100.067639 -38.879844 
L 99.074933 -38.879844 
L 98.082227 -38.879844 
L 97.089521 -38.879844 
L 96.096816 -38.879844 
L 95.10411 -38.879844 
L 94.111404 -38.879844 
L 93.118698 -38.879844 
L 92.125992 -38.879844 
L 91.133286 -38.879844 
L 90.14058 -38.879844 
L 89.147874 -38.879844 
L 88.155168 -38.879844 
L 87.162462 -38.879844 
L 86.169756 -38.879844 
L 85.17705 -38.879844 
L 84.184344 -38.879844 
L 83.191638 -38.879844 
L 82.198933 -38.879844 
L 81.206227 -38.879844 
L 80.213521 -38.879844 
L 79.220815 -38.879844 
L 78.228109 -38.879844 
L 77.235403 -38.879844 
L 76.242697 -38.879844 
L 75.249991 -38.879844 
L 74.257285 -38.879844 
L 73.264579 -38.879844 
L 72.271873 -38.879844 
L 71.279167 -38.879844 
L 70.286461 -38.879844 
L 69.293756 -38.879844 
L 68.30105 -38.879844 
L 67.308344 -38.879844 
L 66.315638 -38.879844 
L 65.322932 -38.879844 
L 64.330226 -38.879844 
L 63.33752 -38.879844 
L 62.344814 -38.879844 
L 61.352108 -38.879844 
L 60.359402 -38.879844 
L 59.366696 -38.879844 
L 58.37399 -38.879844 
L 57.381284 -38.879844 
L 56.388579 -38.879844 
L 55.395873 -38.879844 
L 54.403167 -38.879844 
L 53.410461 -38.879844 
L 52.417755 -38.879844 
L 51.425049 -38.879844 
L 50.432343 -38.879844 
L 49.439637 -38.879844 
L 48.446931 -38.879844 
L 47.454225 -38.879844 
L 46.461519 -38.879844 
L 45.468813 -38.879844 
L 44.476107 -38.879844 
L 43.483402 -38.879844 
L 42.490696 -38.879844 
L 41.49799 -38.879844 
L 40.505284 -38.879844 
L 39.512578 -38.879844 
L 38.519872 -38.879844 
L 37.527166 -38.879844 
L 36.53446 -38.879844 
L 35.541754 -38.879844 
L 34.549048 -38.879844 
L 33.556342 -38.879844 
L 32.563636 -38.879844 
z
" style="stroke: #0173b2; stroke-opacity: 0"/>
    </defs>
    <g clip-path="url(#p72fc9bb396)">
     <use xlink:href="#mb84bf2318a" x="0" y="378.189219" style="fill: #0173b2; fill-opacity: 0; stroke: #0173b2; stroke-opacity: 0"/>
    </g>
   </g>
   <g id="line2d_11">
    <path d="M 32.563636 337.665597 
L 36.53446 337.519758 
L 39.512578 337.237462 
L 43.483402 336.603151 
L 47.454225 335.697106 
L 50.432343 334.825438 
L 54.403167 333.410604 
L 57.381284 332.15054 
L 60.359402 330.688506 
L 63.33752 329.008827 
L 66.315638 327.082939 
L 69.293756 324.916416 
L 72.271873 322.519353 
L 75.249991 319.910324 
L 78.228109 317.04715 
L 81.206227 313.938189 
L 84.184344 310.489072 
L 87.162462 306.656623 
L 90.14058 302.273115 
L 92.125992 299.010143 
L 94.111404 295.436127 
L 97.089521 289.452477 
L 99.074933 285.049708 
L 102.053051 277.79371 
L 105.031169 269.855394 
L 108.009287 261.313534 
L 112.972816 246.091718 
L 123.892581 211.92745 
L 128.856111 197.347627 
L 133.819641 183.65069 
L 143.7467 156.78374 
L 147.717524 145.119119 
L 150.695641 135.814484 
L 154.666465 122.783357 
L 163.600818 92.990518 
L 167.571642 80.813191 
L 170.54976 72.570507 
L 172.535172 67.607406 
L 174.520584 63.085794 
L 176.505995 59.043824 
L 178.491407 55.566773 
L 180.476819 52.612394 
L 182.462231 50.095193 
L 184.447643 48.12944 
L 186.433055 46.506419 
L 188.418466 45.233621 
L 190.403878 44.247427 
L 193.381996 43.185401 
L 196.360114 42.303402 
L 201.323643 41.08051 
L 209.265291 38.793535 
L 211.250703 38.157417 
L 214.22882 37.420468 
L 216.214232 37.050475 
L 217.206938 36.921635 
L 219.19235 36.987124 
L 220.185056 37.077138 
L 222.170468 37.624128 
L 224.15588 38.559948 
L 226.141292 39.930847 
L 228.126703 41.727349 
L 230.112115 43.940225 
L 232.097527 46.499795 
L 234.082939 49.385571 
L 237.061057 54.168614 
L 241.03188 61.084653 
L 245.002704 68.584587 
L 248.973528 76.534265 
L 262.871411 104.798294 
L 271.805764 121.587343 
L 274.783882 127.636357 
L 277.762 134.216953 
L 281.732823 143.613434 
L 286.696353 155.899229 
L 291.659883 168.096656 
L 297.616118 181.97664 
L 302.579648 192.93412 
L 307.543177 203.450348 
L 312.506707 213.479503 
L 316.477531 220.959789 
L 319.455648 226.17886 
L 322.433766 230.956013 
L 325.411884 235.301972 
L 327.397296 237.979904 
L 330.375414 241.590736 
L 334.346237 246.01095 
L 343.280591 255.630555 
L 347.251414 260.539412 
L 350.229532 264.528275 
L 355.193062 271.631621 
L 360.156591 278.839304 
L 364.127415 284.165641 
L 367.105533 287.690527 
L 370.083651 290.769753 
L 372.069062 292.582535 
L 375.04718 294.9904 
L 379.018004 297.751975 
L 384.974239 301.48937 
L 390.930475 305.015221 
L 394.901299 307.149576 
L 399.864828 309.474747 
L 409.791888 313.802729 
L 413.762711 315.850489 
L 420.711653 319.818274 
L 426.667888 323.106077 
L 430.638712 325.040811 
L 434.609536 326.719281 
L 438.580359 328.139317 
L 442.551183 329.269583 
L 446.522007 330.128175 
L 450.49283 330.79293 
L 461.412596 332.465192 
L 467.368831 333.729658 
L 477.29589 335.992644 
L 481.266714 336.693219 
L 485.237538 337.188053 
L 489.208362 337.473699 
L 494.171891 337.59931 
L 515.018716 337.723766 
L 524.945775 337.898506 
L 532.887422 337.772325 
L 539.836364 337.658668 
L 539.836364 337.658668 
" clip-path="url(#p72fc9bb396)" style="fill: none; stroke: #0173b2; stroke-width: 1.5; stroke-linecap: round"/>
   </g>
   <g id="line2d_12">
    <path d="M 97.486386 332.958975 
L 365.975905 332.958975 
" clip-path="url(#p72fc9bb396)" style="fill: none; stroke: #1a1a1a; stroke-width: 3"/>
   </g>
   <g id="patch_3">
    <path d="M 7.2 354.429375 
L 565.2 354.429375 
" style="fill: none; stroke: #808080; stroke-width: 1.25; stroke-linejoin: miter; stroke-linecap: square"/>
   </g>
   <g id="text_6">
    <!-- 6.1  -->
    <g style="fill: #262626" transform="translate(77.472636 317.082975) scale(0.12 -0.12)">
     <defs>
      <path id="ArialMT-36" d="M 3184 3459 
L 2625 3416 
Q 2550 3747 2413 3897 
Q 2184 4138 1850 4138 
Q 1581 4138 1378 3988 
Q 1113 3794 959 3422 
Q 806 3050 800 2363 
Q 1003 2672 1297 2822 
Q 1591 2972 1913 2972 
Q 2475 2972 2870 2558 
Q 3266 2144 3266 1488 
Q 3266 1056 3080 686 
Q 2894 316 2569 119 
Q 2244 -78 1831 -78 
Q 1128 -78 684 439 
Q 241 956 241 2144 
Q 241 3472 731 4075 
Q 1159 4600 1884 4600 
Q 2425 4600 2770 4297 
Q 3116 3994 3184 3459 
z
M 888 1484 
Q 888 1194 1011 928 
Q 1134 663 1356 523 
Q 1578 384 1822 384 
Q 2178 384 2434 671 
Q 2691 959 2691 1453 
Q 2691 1928 2437 2201 
Q 2184 2475 1800 2475 
Q 1419 2475 1153 2201 
Q 888 1928 888 1484 
z
" transform="scale(0.015625)"/>
      <path id="ArialMT-2e" d="M 581 0 
L 581 641 
L 1222 641 
L 1222 0 
L 581 0 
z
" transform="scale(0.015625)"/>
      <path id="ArialMT-20" transform="scale(0.015625)"/>
     </defs>
     <use xlink:href="#ArialMT-36"/>
     <use xlink:href="#ArialMT-2e" x="55.615234"/>
     <use xlink:href="#ArialMT-31" x="83.398438"/>
     <use xlink:href="#ArialMT-20" x="139.013672"/>
    </g>
   </g>
   <g id="text_7">
    <!--  18 -->
    <g style="fill: #262626" transform="translate(365.975905 317.082975) scale(0.12 -0.12)">
     <defs>
      <path id="ArialMT-38" d="M 1131 2484 
Q 781 2613 612 2850 
Q 444 3088 444 3419 
Q 444 3919 803 4259 
Q 1163 4600 1759 4600 
Q 2359 4600 2725 4251 
Q 3091 3903 3091 3403 
Q 3091 3084 2923 2848 
Q 2756 2613 2416 2484 
Q 2838 2347 3058 2040 
Q 3278 1734 3278 1309 
Q 3278 722 2862 322 
Q 2447 -78 1769 -78 
Q 1091 -78 675 323 
Q 259 725 259 1325 
Q 259 1772 486 2073 
Q 713 2375 1131 2484 
z
M 1019 3438 
Q 1019 3113 1228 2906 
Q 1438 2700 1772 2700 
Q 2097 2700 2305 2904 
Q 2513 3109 2513 3406 
Q 2513 3716 2298 3927 
Q 2084 4138 1766 4138 
Q 1444 4138 1231 3931 
Q 1019 3725 1019 3438 
z
M 838 1322 
Q 838 1081 952 856 
Q 1066 631 1291 507 
Q 1516 384 1775 384 
Q 2178 384 2440 643 
Q 2703 903 2703 1303 
Q 2703 1709 2433 1975 
Q 2163 2241 1756 2241 
Q 1359 2241 1098 1978 
Q 838 1716 838 1322 
z
" transform="scale(0.015625)"/>
     </defs>
     <use xlink:href="#ArialMT-20"/>
     <use xlink:href="#ArialMT-31" x="27.783203"/>
     <use xlink:href="#ArialMT-38" x="83.398438"/>
    </g>
   </g>
   <g id="text_8">
    <!-- 94% HDI -->
    <g style="fill: #262626" transform="translate(207.722708 244.053375) scale(0.12 -0.12)">
     <defs>
      <path id="ArialMT-39" d="M 350 1059 
L 891 1109 
Q 959 728 1153 556 
Q 1347 384 1650 384 
Q 1909 384 2104 503 
Q 2300 622 2425 820 
Q 2550 1019 2634 1356 
Q 2719 1694 2719 2044 
Q 2719 2081 2716 2156 
Q 2547 1888 2255 1720 
Q 1963 1553 1622 1553 
Q 1053 1553 659 1965 
Q 266 2378 266 3053 
Q 266 3750 677 4175 
Q 1088 4600 1706 4600 
Q 2153 4600 2523 4359 
Q 2894 4119 3086 3673 
Q 3278 3228 3278 2384 
Q 3278 1506 3087 986 
Q 2897 466 2520 194 
Q 2144 -78 1638 -78 
Q 1100 -78 759 220 
Q 419 519 350 1059 
z
M 2653 3081 
Q 2653 3566 2395 3850 
Q 2138 4134 1775 4134 
Q 1400 4134 1122 3828 
Q 844 3522 844 3034 
Q 844 2597 1108 2323 
Q 1372 2050 1759 2050 
Q 2150 2050 2401 2323 
Q 2653 2597 2653 3081 
z
" transform="scale(0.015625)"/>
      <path id="ArialMT-34" d="M 2069 0 
L 2069 1097 
L 81 1097 
L 81 1613 
L 2172 4581 
L 2631 4581 
L 2631 1613 
L 3250 1613 
L 3250 1097 
L 2631 1097 
L 2631 0 
L 2069 0 
z
M 2069 1613 
L 2069 3678 
L 634 1613 
L 2069 1613 
z
" transform="scale(0.015625)"/>
      <path id="ArialMT-25" d="M 372 3481 
Q 372 3972 619 4315 
Q 866 4659 1334 4659 
Q 1766 4659 2048 4351 
Q 2331 4044 2331 3447 
Q 2331 2866 2045 2552 
Q 1759 2238 1341 2238 
Q 925 2238 648 2547 
Q 372 2856 372 3481 
z
M 1350 4272 
Q 1141 4272 1002 4090 
Q 863 3909 863 3425 
Q 863 2984 1003 2804 
Q 1144 2625 1350 2625 
Q 1563 2625 1702 2806 
Q 1841 2988 1841 3469 
Q 1841 3913 1700 4092 
Q 1559 4272 1350 4272 
z
M 1353 -169 
L 3859 4659 
L 4316 4659 
L 1819 -169 
L 1353 -169 
z
M 3334 1075 
Q 3334 1569 3581 1911 
Q 3828 2253 4300 2253 
Q 4731 2253 5014 1945 
Q 5297 1638 5297 1041 
Q 5297 459 5011 145 
Q 4725 -169 4303 -169 
Q 3888 -169 3611 142 
Q 3334 453 3334 1075 
z
M 4316 1866 
Q 4103 1866 3964 1684 
Q 3825 1503 3825 1019 
Q 3825 581 3965 400 
Q 4106 219 4313 219 
Q 4528 219 4667 400 
Q 4806 581 4806 1063 
Q 4806 1506 4665 1686 
Q 4525 1866 4316 1866 
z
" transform="scale(0.015625)"/>
      <path id="ArialMT-48" d="M 513 0 
L 513 4581 
L 1119 4581 
L 1119 2700 
L 3500 2700 
L 3500 4581 
L 4106 4581 
L 4106 0 
L 3500 0 
L 3500 2159 
L 1119 2159 
L 1119 0 
L 513 0 
z
" transform="scale(0.015625)"/>
      <path id="ArialMT-44" d="M 494 0 
L 494 4581 
L 2072 4581 
Q 2606 4581 2888 4516 
Q 3281 4425 3559 4188 
Q 3922 3881 4101 3404 
Q 4281 2928 4281 2316 
Q 4281 1794 4159 1391 
Q 4038 988 3847 723 
Q 3656 459 3429 307 
Q 3203 156 2883 78 
Q 2563 0 2147 0 
L 494 0 
z
M 1100 541 
L 2078 541 
Q 2531 541 2789 625 
Q 3047 709 3200 863 
Q 3416 1078 3536 1442 
Q 3656 1806 3656 2325 
Q 3656 3044 3420 3430 
Q 3184 3816 2847 3947 
Q 2603 4041 2063 4041 
L 1100 4041 
L 1100 541 
z
" transform="scale(0.015625)"/>
      <path id="ArialMT-49" d="M 597 0 
L 597 4581 
L 1203 4581 
L 1203 0 
L 597 0 
z
" transform="scale(0.015625)"/>
     </defs>
     <use xlink:href="#ArialMT-39"/>
     <use xlink:href="#ArialMT-34" x="55.615234"/>
     <use xlink:href="#ArialMT-25" x="111.230469"/>
     <use xlink:href="#ArialMT-20" x="200.146484"/>
     <use xlink:href="#ArialMT-48" x="227.929688"/>
     <use xlink:href="#ArialMT-44" x="300.146484"/>
     <use xlink:href="#ArialMT-49" x="372.363281"/>
    </g>
   </g>
   <g id="text_9">
    <!-- mean=12 -->
    <g style="fill: #262626" transform="translate(202.636397 85.293375) scale(0.12 -0.12)">
     <defs>
      <path id="ArialMT-6d" d="M 422 0 
L 422 3319 
L 925 3319 
L 925 2853 
Q 1081 3097 1340 3245 
Q 1600 3394 1931 3394 
Q 2300 3394 2536 3241 
Q 2772 3088 2869 2813 
Q 3263 3394 3894 3394 
Q 4388 3394 4653 3120 
Q 4919 2847 4919 2278 
L 4919 0 
L 4359 0 
L 4359 2091 
Q 4359 2428 4304 2576 
Q 4250 2725 4106 2815 
Q 3963 2906 3769 2906 
Q 3419 2906 3187 2673 
Q 2956 2441 2956 1928 
L 2956 0 
L 2394 0 
L 2394 2156 
Q 2394 2531 2256 2718 
Q 2119 2906 1806 2906 
Q 1569 2906 1367 2781 
Q 1166 2656 1075 2415 
Q 984 2175 984 1722 
L 984 0 
L 422 0 
z
" transform="scale(0.015625)"/>
      <path id="ArialMT-65" d="M 2694 1069 
L 3275 997 
Q 3138 488 2766 206 
Q 2394 -75 1816 -75 
Q 1088 -75 661 373 
Q 234 822 234 1631 
Q 234 2469 665 2931 
Q 1097 3394 1784 3394 
Q 2450 3394 2872 2941 
Q 3294 2488 3294 1666 
Q 3294 1616 3291 1516 
L 816 1516 
Q 847 969 1125 678 
Q 1403 388 1819 388 
Q 2128 388 2347 550 
Q 2566 713 2694 1069 
z
M 847 1978 
L 2700 1978 
Q 2663 2397 2488 2606 
Q 2219 2931 1791 2931 
Q 1403 2931 1139 2672 
Q 875 2413 847 1978 
z
" transform="scale(0.015625)"/>
      <path id="ArialMT-61" d="M 2588 409 
Q 2275 144 1986 34 
Q 1697 -75 1366 -75 
Q 819 -75 525 192 
Q 231 459 231 875 
Q 231 1119 342 1320 
Q 453 1522 633 1644 
Q 813 1766 1038 1828 
Q 1203 1872 1538 1913 
Q 2219 1994 2541 2106 
Q 2544 2222 2544 2253 
Q 2544 2597 2384 2738 
Q 2169 2928 1744 2928 
Q 1347 2928 1158 2789 
Q 969 2650 878 2297 
L 328 2372 
Q 403 2725 575 2942 
Q 747 3159 1072 3276 
Q 1397 3394 1825 3394 
Q 2250 3394 2515 3294 
Q 2781 3194 2906 3042 
Q 3031 2891 3081 2659 
Q 3109 2516 3109 2141 
L 3109 1391 
Q 3109 606 3145 398 
Q 3181 191 3288 0 
L 2700 0 
Q 2613 175 2588 409 
z
M 2541 1666 
Q 2234 1541 1622 1453 
Q 1275 1403 1131 1340 
Q 988 1278 909 1158 
Q 831 1038 831 891 
Q 831 666 1001 516 
Q 1172 366 1500 366 
Q 1825 366 2078 508 
Q 2331 650 2450 897 
Q 2541 1088 2541 1459 
L 2541 1666 
z
" transform="scale(0.015625)"/>
      <path id="ArialMT-6e" d="M 422 0 
L 422 3319 
L 928 3319 
L 928 2847 
Q 1294 3394 1984 3394 
Q 2284 3394 2536 3286 
Q 2788 3178 2913 3003 
Q 3038 2828 3088 2588 
Q 3119 2431 3119 2041 
L 3119 0 
L 2556 0 
L 2556 2019 
Q 2556 2363 2490 2533 
Q 2425 2703 2258 2804 
Q 2091 2906 1866 2906 
Q 1506 2906 1245 2678 
Q 984 2450 984 1813 
L 984 0 
L 422 0 
z
" transform="scale(0.015625)"/>
      <path id="ArialMT-3d" d="M 3381 2694 
L 356 2694 
L 356 3219 
L 3381 3219 
L 3381 2694 
z
M 3381 1303 
L 356 1303 
L 356 1828 
L 3381 1828 
L 3381 1303 
z
" transform="scale(0.015625)"/>
     </defs>
     <use xlink:href="#ArialMT-6d"/>
     <use xlink:href="#ArialMT-65" x="83.300781"/>
     <use xlink:href="#ArialMT-61" x="138.916016"/>
     <use xlink:href="#ArialMT-6e" x="194.53125"/>
     <use xlink:href="#ArialMT-3d" x="250.146484"/>
     <use xlink:href="#ArialMT-31" x="308.544922"/>
     <use xlink:href="#ArialMT-32" x="364.160156"/>
    </g>
   </g>
   <g id="text_10">
    <!-- mu_B -->
    <g style="fill: #262626" transform="translate(270.526875 15.789375) scale(0.12 -0.12)">
     <defs>
      <path id="ArialMT-75" d="M 2597 0 
L 2597 488 
Q 2209 -75 1544 -75 
Q 1250 -75 995 37 
Q 741 150 617 320 
Q 494 491 444 738 
Q 409 903 409 1263 
L 409 3319 
L 972 3319 
L 972 1478 
Q 972 1038 1006 884 
Q 1059 663 1231 536 
Q 1403 409 1656 409 
Q 1909 409 2131 539 
Q 2353 669 2445 892 
Q 2538 1116 2538 1541 
L 2538 3319 
L 3100 3319 
L 3100 0 
L 2597 0 
z
" transform="scale(0.015625)"/>
      <path id="ArialMT-5f" d="M -97 -1272 
L -97 -866 
L 3631 -866 
L 3631 -1272 
L -97 -1272 
z
" transform="scale(0.015625)"/>
      <path id="ArialMT-42" d="M 469 0 
L 469 4581 
L 2188 4581 
Q 2713 4581 3030 4442 
Q 3347 4303 3526 4014 
Q 3706 3725 3706 3409 
Q 3706 3116 3547 2856 
Q 3388 2597 3066 2438 
Q 3481 2316 3704 2022 
Q 3928 1728 3928 1328 
Q 3928 1006 3792 729 
Q 3656 453 3456 303 
Q 3256 153 2954 76 
Q 2653 0 2216 0 
L 469 0 
z
M 1075 2656 
L 2066 2656 
Q 2469 2656 2644 2709 
Q 2875 2778 2992 2937 
Q 3109 3097 3109 3338 
Q 3109 3566 3000 3739 
Q 2891 3913 2687 3977 
Q 2484 4041 1991 4041 
L 1075 4041 
L 1075 2656 
z
M 1075 541 
L 2216 541 
Q 2509 541 2628 563 
Q 2838 600 2978 687 
Q 3119 775 3209 942 
Q 3300 1109 3300 1328 
Q 3300 1584 3169 1773 
Q 3038 1963 2805 2039 
Q 2572 2116 2134 2116 
L 1075 2116 
L 1075 541 
z
" transform="scale(0.015625)"/>
     </defs>
     <use xlink:href="#ArialMT-6d"/>
     <use xlink:href="#ArialMT-75" x="83.300781"/>
     <use xlink:href="#ArialMT-5f" x="138.916016"/>
     <use xlink:href="#ArialMT-42" x="194.53125"/>
    </g>
   </g>
  </g>
 </g>
 <defs>
  <clipPath id="p72fc9bb396">
   <rect x="7.2" y="21.789375" width="558" height="332.64"/>
  </clipPath>
 </defs>
</svg>