<?xml version="1.0" encoding="utf-8" standalone="no"?>
<!DOCTYPE svg PUBLIC "-//W3C//DTD SVG 1.1//EN"
  "http://www.w3.org/Graphics/SVG/1.1/DTD/svg11.dtd">
<svg xmlns:xlink="http://www.w3.org/1999/xlink" width="572.4pt" height="381.224844pt" viewBox="0 0 572.4 381.224844" xmlns="http://www.w3.org/2000/svg" version="1.1">
 <metadata>
  <rdf:RDF xmlns:dc="http://purl.org/dc/elements/1.1/" xmlns:cc="http://creativecommons.org/ns#" xmlns:rdf="http://www.w3.org/1999/02/22-rdf-syntax-ns#">
   <cc:Work>
    <dc:type rdf:resource="http://purl.org/dc/dcmitype/StillImage"/>
    <dc:date>2023-05-12T20:19:12.035733</dc:date>
    <dc:format>image/svg+xml</dc:format>
    <dc:creator>
     <cc:Agent>
      <dc:title>Matplotlib v3.7.1, https://matplotlib.org/</dc:title>
     </cc:Agent>
    </dc:creator>
   </cc:Work>
  </rdf:RDF>
 </metadata>
 <defs>
  <style type="text/css">*{stroke-linejoin: round; stroke-linecap: butt}</style>
 </defs>
 <g id="figure_1">
  <g id="patch_1">
   <path d="M 0 381.224844 
L 572.4 381.224844 
L 572.4 0 
L 0 0 
z
" style="fill: #ffffff"/>
  </g>
  <g id="axes_1">
   <g id="patch_2">
    <path d="M 7.2 354.465 
L 565.2 354.465 
L 565.2 21.825 
L 7.2 21.825 
z
" style="fill: #eaeaf2"/>
   </g>
   <g id="matplotlib.axis_1">
    <g id="xtick_1">
     <g id="line2d_1">
      <path d="M 47.069343 354.465 
L 47.069343 21.825 
" clip-path="url(#p105f8a0134)" style="fill: none; stroke: #ffffff; stroke-linecap: round"/>
     </g>
     <g id="text_1">
      <!-- 0.0 -->
      <g style="fill: #262626" transform="translate(39.424343 371.838594) scale(0.11 -0.11)">
       <defs>
        <path id="ArialMT-30" d="M 266 2259 
Q 266 3072 433 3567 
Q 600 4063 929 4331 
Q 1259 4600 1759 4600 
Q 2128 4600 2406 4451 
Q 2684 4303 2865 4023 
Q 3047 3744 3150 3342 
Q 3253 2941 3253 2259 
Q 3253 1453 3087 958 
Q 2922 463 2592 192 
Q 2263 -78 1759 -78 
Q 1097 -78 719 397 
Q 266 969 266 2259 
z
M 844 2259 
Q 844 1131 1108 757 
Q 1372 384 1759 384 
Q 2147 384 2411 759 
Q 2675 1134 2675 2259 
Q 2675 3391 2411 3762 
Q 2147 4134 1753 4134 
Q 1366 4134 1134 3806 
Q 844 3388 844 2259 
z
" transform="scale(0.015625)"/>
        <path id="ArialMT-2e" d="M 581 0 
L 581 641 
L 1222 641 
L 1222 0 
L 581 0 
z
" transform="scale(0.015625)"/>
       </defs>
       <use xlink:href="#ArialMT-30"/>
       <use xlink:href="#ArialMT-2e" x="55.615234"/>
       <use xlink:href="#ArialMT-30" x="83.398438"/>
      </g>
     </g>
    </g>
    <g id="xtick_2">
     <g id="line2d_2">
      <path d="M 118.80854 354.465 
L 118.80854 21.825 
" clip-path="url(#p105f8a0134)" style="fill: none; stroke: #ffffff; stroke-linecap: round"/>
     </g>
     <g id="text_2">
      <!-- 0.2 -->
      <g style="fill: #262626" transform="translate(111.16354 371.838594) scale(0.11 -0.11)">
       <defs>
        <path id="ArialMT-32" d="M 3222 541 
L 3222 0 
L 194 0 
Q 188 203 259 391 
Q 375 700 629 1000 
Q 884 1300 1366 1694 
Q 2113 2306 2375 2664 
Q 2638 3022 2638 3341 
Q 2638 3675 2398 3904 
Q 2159 4134 1775 4134 
Q 1369 4134 1125 3890 
Q 881 3647 878 3216 
L 300 3275 
Q 359 3922 746 4261 
Q 1134 4600 1788 4600 
Q 2447 4600 2831 4234 
Q 3216 3869 3216 3328 
Q 3216 3053 3103 2787 
Q 2991 2522 2730 2228 
Q 2469 1934 1863 1422 
Q 1356 997 1212 845 
Q 1069 694 975 541 
L 3222 541 
z
" transform="scale(0.015625)"/>
       </defs>
       <use xlink:href="#ArialMT-30"/>
       <use xlink:href="#ArialMT-2e" x="55.615234"/>
       <use xlink:href="#ArialMT-32" x="83.398438"/>
      </g>
     </g>
    </g>
    <g id="xtick_3">
     <g id="line2d_3">
      <path d="M 190.547737 354.465 
L 190.547737 21.825 
" clip-path="url(#p105f8a0134)" style="fill: none; stroke: #ffffff; stroke-linecap: round"/>
     </g>
     <g id="text_3">
      <!-- 0.4 -->
      <g style="fill: #262626" transform="translate(182.902737 371.838594) scale(0.11 -0.11)">
       <defs>
        <path id="ArialMT-34" d="M 2069 0 
L 2069 1097 
L 81 1097 
L 81 1613 
L 2172 4581 
L 2631 4581 
L 2631 1613 
L 3250 1613 
L 3250 1097 
L 2631 1097 
L 2631 0 
L 2069 0 
z
M 2069 1613 
L 2069 3678 
L 634 1613 
L 2069 1613 
z
" transform="scale(0.015625)"/>
       </defs>
       <use xlink:href="#ArialMT-30"/>
       <use xlink:href="#ArialMT-2e" x="55.615234"/>
       <use xlink:href="#ArialMT-34" x="83.398438"/>
      </g>
     </g>
    </g>
    <g id="xtick_4">
     <g id="line2d_4">
      <path d="M 262.286934 354.465 
L 262.286934 21.825 
" clip-path="url(#p105f8a0134)" style="fill: none; stroke: #ffffff; stroke-linecap: round"/>
     </g>
     <g id="text_4">
      <!-- 0.6 -->
      <g style="fill: #262626" transform="translate(254.641934 371.838594) scale(0.11 -0.11)">
       <defs>
        <path id="ArialMT-36" d="M 3184 3459 
L 2625 3416 
Q 2550 3747 2413 3897 
Q 2184 4138 1850 4138 
Q 1581 4138 1378 3988 
Q 1113 3794 959 3422 
Q 806 3050 800 2363 
Q 1003 2672 1297 2822 
Q 1591 2972 1913 2972 
Q 2475 2972 2870 2558 
Q 3266 2144 3266 1488 
Q 3266 1056 3080 686 
Q 2894 316 2569 119 
Q 2244 -78 1831 -78 
Q 1128 -78 684 439 
Q 241 956 241 2144 
Q 241 3472 731 4075 
Q 1159 4600 1884 4600 
Q 2425 4600 2770 4297 
Q 3116 3994 3184 3459 
z
M 888 1484 
Q 888 1194 1011 928 
Q 1134 663 1356 523 
Q 1578 384 1822 384 
Q 2178 384 2434 671 
Q 2691 959 2691 1453 
Q 2691 1928 2437 2201 
Q 2184 2475 1800 2475 
Q 1419 2475 1153 2201 
Q 888 1928 888 1484 
z
" transform="scale(0.015625)"/>
       </defs>
       <use xlink:href="#ArialMT-30"/>
       <use xlink:href="#ArialMT-2e" x="55.615234"/>
       <use xlink:href="#ArialMT-36" x="83.398438"/>
      </g>
     </g>
    </g>
    <g id="xtick_5">
     <g id="line2d_5">
      <path d="M 334.026131 354.465 
L 334.026131 21.825 
" clip-path="url(#p105f8a0134)" style="fill: none; stroke: #ffffff; stroke-linecap: round"/>
     </g>
     <g id="text_5">
      <!-- 0.8 -->
      <g style="fill: #262626" transform="translate(326.381131 371.838594) scale(0.11 -0.11)">
       <defs>
        <path id="ArialMT-38" d="M 1131 2484 
Q 781 2613 612 2850 
Q 444 3088 444 3419 
Q 444 3919 803 4259 
Q 1163 4600 1759 4600 
Q 2359 4600 2725 4251 
Q 3091 3903 3091 3403 
Q 3091 3084 2923 2848 
Q 2756 2613 2416 2484 
Q 2838 2347 3058 2040 
Q 3278 1734 3278 1309 
Q 3278 722 2862 322 
Q 2447 -78 1769 -78 
Q 1091 -78 675 323 
Q 259 725 259 1325 
Q 259 1772 486 2073 
Q 713 2375 1131 2484 
z
M 1019 3438 
Q 1019 3113 1228 2906 
Q 1438 2700 1772 2700 
Q 2097 2700 2305 2904 
Q 2513 3109 2513 3406 
Q 2513 3716 2298 3927 
Q 2084 4138 1766 4138 
Q 1444 4138 1231 3931 
Q 1019 3725 1019 3438 
z
M 838 1322 
Q 838 1081 952 856 
Q 1066 631 1291 507 
Q 1516 384 1775 384 
Q 2178 384 2440 643 
Q 2703 903 2703 1303 
Q 2703 1709 2433 1975 
Q 2163 2241 1756 2241 
Q 1359 2241 1098 1978 
Q 838 1716 838 1322 
z
" transform="scale(0.015625)"/>
       </defs>
       <use xlink:href="#ArialMT-30"/>
       <use xlink:href="#ArialMT-2e" x="55.615234"/>
       <use xlink:href="#ArialMT-38" x="83.398438"/>
      </g>
     </g>
    </g>
    <g id="xtick_6">
     <g id="line2d_6">
      <path d="M 405.765328 354.465 
L 405.765328 21.825 
" clip-path="url(#p105f8a0134)" style="fill: none; stroke: #ffffff; stroke-linecap: round"/>
     </g>
     <g id="text_6">
      <!-- 1.0 -->
      <g style="fill: #262626" transform="translate(398.120328 371.838594) scale(0.11 -0.11)">
       <defs>
        <path id="ArialMT-31" d="M 2384 0 
L 1822 0 
L 1822 3584 
Q 1619 3391 1289 3197 
Q 959 3003 697 2906 
L 697 3450 
Q 1169 3672 1522 3987 
Q 1875 4303 2022 4600 
L 2384 4600 
L 2384 0 
z
" transform="scale(0.015625)"/>
       </defs>
       <use xlink:href="#ArialMT-31"/>
       <use xlink:href="#ArialMT-2e" x="55.615234"/>
       <use xlink:href="#ArialMT-30" x="83.398438"/>
      </g>
     </g>
    </g>
    <g id="xtick_7">
     <g id="line2d_7">
      <path d="M 477.504526 354.465 
L 477.504526 21.825 
" clip-path="url(#p105f8a0134)" style="fill: none; stroke: #ffffff; stroke-linecap: round"/>
     </g>
     <g id="text_7">
      <!-- 1.2 -->
      <g style="fill: #262626" transform="translate(469.859526 371.838594) scale(0.11 -0.11)">
       <use xlink:href="#ArialMT-31"/>
       <use xlink:href="#ArialMT-2e" x="55.615234"/>
       <use xlink:href="#ArialMT-32" x="83.398438"/>
      </g>
     </g>
    </g>
    <g id="xtick_8">
     <g id="line2d_8">
      <path d="M 549.243723 354.465 
L 549.243723 21.825 
" clip-path="url(#p105f8a0134)" style="fill: none; stroke: #ffffff; stroke-linecap: round"/>
     </g>
     <g id="text_8">
      <!-- 1.4 -->
      <g style="fill: #262626" transform="translate(541.598723 371.838594) scale(0.11 -0.11)">
       <use xlink:href="#ArialMT-31"/>
       <use xlink:href="#ArialMT-2e" x="55.615234"/>
       <use xlink:href="#ArialMT-34" x="83.398438"/>
      </g>
     </g>
    </g>
   </g>
   <g id="matplotlib.axis_2">
    <g id="ytick_1">
     <g id="line2d_9">
      <path d="M 7.2 354.465 
L 565.2 354.465 
" clip-path="url(#p105f8a0134)" style="fill: none; stroke: #ffffff; stroke-linecap: round"/>
     </g>
    </g>
    <g id="ytick_2">
     <g id="line2d_10">
      <path d="M 7.2 311.798333 
L 565.2 311.798333 
" clip-path="url(#p105f8a0134)" style="fill: none; stroke: #ffffff; stroke-linecap: round"/>
     </g>
    </g>
    <g id="ytick_3">
     <g id="line2d_11">
      <path d="M 7.2 269.131667 
L 565.2 269.131667 
" clip-path="url(#p105f8a0134)" style="fill: none; stroke: #ffffff; stroke-linecap: round"/>
     </g>
    </g>
    <g id="ytick_4">
     <g id="line2d_12">
      <path d="M 7.2 226.465 
L 565.2 226.465 
" clip-path="url(#p105f8a0134)" style="fill: none; stroke: #ffffff; stroke-linecap: round"/>
     </g>
    </g>
    <g id="ytick_5">
     <g id="line2d_13">
      <path d="M 7.2 183.798333 
L 565.2 183.798333 
" clip-path="url(#p105f8a0134)" style="fill: none; stroke: #ffffff; stroke-linecap: round"/>
     </g>
    </g>
    <g id="ytick_6">
     <g id="line2d_14">
      <path d="M 7.2 141.131667 
L 565.2 141.131667 
" clip-path="url(#p105f8a0134)" style="fill: none; stroke: #ffffff; stroke-linecap: round"/>
     </g>
    </g>
    <g id="ytick_7">
     <g id="line2d_15">
      <path d="M 7.2 98.465 
L 565.2 98.465 
" clip-path="url(#p105f8a0134)" style="fill: none; stroke: #ffffff; stroke-linecap: round"/>
     </g>
    </g>
    <g id="ytick_8">
     <g id="line2d_16">
      <path d="M 7.2 55.798333 
L 565.2 55.798333 
" clip-path="url(#p105f8a0134)" style="fill: none; stroke: #ffffff; stroke-linecap: round"/>
     </g>
    </g>
   </g>
   <g id="patch_3">
    <path d="M 71.495027 354.465 
L 76.130134 354.465 
L 76.130134 353.398333 
L 71.495027 353.398333 
z
" clip-path="url(#p105f8a0134)" style="fill: #0173b2; fill-opacity: 0.75; stroke: #ffffff; stroke-width: 0.704545; stroke-linejoin: miter"/>
   </g>
   <g id="patch_4">
    <path d="M 76.130134 354.465 
L 80.76524 354.465 
L 80.76524 353.825 
L 76.130134 353.825 
z
" clip-path="url(#p105f8a0134)" style="fill: #0173b2; fill-opacity: 0.75; stroke: #ffffff; stroke-width: 0.704545; stroke-linejoin: miter"/>
   </g>
   <g id="patch_5">
    <path d="M 80.76524 354.465 
L 85.400347 354.465 
L 85.400347 351.905 
L 80.76524 351.905 
z
" clip-path="url(#p105f8a0134)" style="fill: #0173b2; fill-opacity: 0.75; stroke: #ffffff; stroke-width: 0.704545; stroke-linejoin: miter"/>
   </g>
   <g id="patch_6">
    <path d="M 85.400347 354.465 
L 90.035453 354.465 
L 90.035453 352.118333 
L 85.400347 352.118333 
z
" clip-path="url(#p105f8a0134)" style="fill: #0173b2; fill-opacity: 0.75; stroke: #ffffff; stroke-width: 0.704545; stroke-linejoin: miter"/>
   </g>
   <g id="patch_7">
    <path d="M 90.035453 354.465 
L 94.67056 354.465 
L 94.67056 351.478333 
L 90.035453 351.478333 
z
" clip-path="url(#p105f8a0134)" style="fill: #0173b2; fill-opacity: 0.75; stroke: #ffffff; stroke-width: 0.704545; stroke-linejoin: miter"/>
   </g>
   <g id="patch_8">
    <path d="M 94.67056 354.465 
L 99.305666 354.465 
L 99.305666 352.118333 
L 94.67056 352.118333 
z
" clip-path="url(#p105f8a0134)" style="fill: #0173b2; fill-opacity: 0.75; stroke: #ffffff; stroke-width: 0.704545; stroke-linejoin: miter"/>
   </g>
   <g id="patch_9">
    <path d="M 99.305666 354.465 
L 103.940773 354.465 
L 103.940773 349.558333 
L 99.305666 349.558333 
z
" clip-path="url(#p105f8a0134)" style="fill: #0173b2; fill-opacity: 0.75; stroke: #ffffff; stroke-width: 0.704545; stroke-linejoin: miter"/>
   </g>
   <g id="patch_10">
    <path d="M 103.940773 354.465 
L 108.575879 354.465 
L 108.575879 348.705 
L 103.940773 348.705 
z
" clip-path="url(#p105f8a0134)" style="fill: #0173b2; fill-opacity: 0.75; stroke: #ffffff; stroke-width: 0.704545; stroke-linejoin: miter"/>
   </g>
   <g id="patch_11">
    <path d="M 108.575879 354.465 
L 113.210986 354.465 
L 113.210986 348.918333 
L 108.575879 348.918333 
z
" clip-path="url(#p105f8a0134)" style="fill: #0173b2; fill-opacity: 0.75; stroke: #ffffff; stroke-width: 0.704545; stroke-linejoin: miter"/>
   </g>
   <g id="patch_12">
    <path d="M 113.210986 354.465 
L 117.846092 354.465 
L 117.846092 343.585 
L 113.210986 343.585 
z
" clip-path="url(#p105f8a0134)" style="fill: #0173b2; fill-opacity: 0.75; stroke: #ffffff; stroke-width: 0.704545; stroke-linejoin: miter"/>
   </g>
   <g id="patch_13">
    <path d="M 117.846092 354.465 
L 122.481199 354.465 
L 122.481199 343.585 
L 117.846092 343.585 
z
" clip-path="url(#p105f8a0134)" style="fill: #0173b2; fill-opacity: 0.75; stroke: #ffffff; stroke-width: 0.704545; stroke-linejoin: miter"/>
   </g>
   <g id="patch_14">
    <path d="M 122.481199 354.465 
L 127.116305 354.465 
L 127.116305 338.465 
L 122.481199 338.465 
z
" clip-path="url(#p105f8a0134)" style="fill: #0173b2; fill-opacity: 0.75; stroke: #ffffff; stroke-width: 0.704545; stroke-linejoin: miter"/>
   </g>
   <g id="patch_15">
    <path d="M 127.116305 354.465 
L 131.751412 354.465 
L 131.751412 340.385 
L 127.116305 340.385 
z
" clip-path="url(#p105f8a0134)" style="fill: #0173b2; fill-opacity: 0.75; stroke: #ffffff; stroke-width: 0.704545; stroke-linejoin: miter"/>
   </g>
   <g id="patch_16">
    <path d="M 131.751412 354.465 
L 136.386518 354.465 
L 136.386518 330.145 
L 131.751412 330.145 
z
" clip-path="url(#p105f8a0134)" style="fill: #0173b2; fill-opacity: 0.75; stroke: #ffffff; stroke-width: 0.704545; stroke-linejoin: miter"/>
   </g>
   <g id="patch_17">
    <path d="M 136.386518 354.465 
L 141.021625 354.465 
L 141.021625 334.411667 
L 136.386518 334.411667 
z
" clip-path="url(#p105f8a0134)" style="fill: #0173b2; fill-opacity: 0.75; stroke: #ffffff; stroke-width: 0.704545; stroke-linejoin: miter"/>
   </g>
   <g id="patch_18">
    <path d="M 141.021625 354.465 
L 145.656731 354.465 
L 145.656731 321.398333 
L 141.021625 321.398333 
z
" clip-path="url(#p105f8a0134)" style="fill: #0173b2; fill-opacity: 0.75; stroke: #ffffff; stroke-width: 0.704545; stroke-linejoin: miter"/>
   </g>
   <g id="patch_19">
    <path d="M 145.656731 354.465 
L 150.291838 354.465 
L 150.291838 321.398333 
L 145.656731 321.398333 
z
" clip-path="url(#p105f8a0134)" style="fill: #0173b2; fill-opacity: 0.75; stroke: #ffffff; stroke-width: 0.704545; stroke-linejoin: miter"/>
   </g>
   <g id="patch_20">
    <path d="M 150.291838 354.465 
L 154.926944 354.465 
L 154.926944 313.078333 
L 150.291838 313.078333 
z
" clip-path="url(#p105f8a0134)" style="fill: #0173b2; fill-opacity: 0.75; stroke: #ffffff; stroke-width: 0.704545; stroke-linejoin: miter"/>
   </g>
   <g id="patch_21">
    <path d="M 154.926944 354.465 
L 159.562051 354.465 
L 159.562051 314.358333 
L 154.926944 314.358333 
z
" clip-path="url(#p105f8a0134)" style="fill: #0173b2; fill-opacity: 0.75; stroke: #ffffff; stroke-width: 0.704545; stroke-linejoin: miter"/>
   </g>
   <g id="patch_22">
    <path d="M 159.562051 354.465 
L 164.197157 354.465 
L 164.197157 301.985 
L 159.562051 301.985 
z
" clip-path="url(#p105f8a0134)" style="fill: #0173b2; fill-opacity: 0.75; stroke: #ffffff; stroke-width: 0.704545; stroke-linejoin: miter"/>
   </g>
   <g id="patch_23">
    <path d="M 164.197157 354.465 
L 168.832264 354.465 
L 168.832264 295.158333 
L 164.197157 295.158333 
z
" clip-path="url(#p105f8a0134)" style="fill: #0173b2; fill-opacity: 0.75; stroke: #ffffff; stroke-width: 0.704545; stroke-linejoin: miter"/>
   </g>
   <g id="patch_24">
    <path d="M 168.832264 354.465 
L 173.46737 354.465 
L 173.46737 294.091667 
L 168.832264 294.091667 
z
" clip-path="url(#p105f8a0134)" style="fill: #0173b2; fill-opacity: 0.75; stroke: #ffffff; stroke-width: 0.704545; stroke-linejoin: miter"/>
   </g>
   <g id="patch_25">
    <path d="M 173.46737 354.465 
L 178.102477 354.465 
L 178.102477 283.425 
L 173.46737 283.425 
z
" clip-path="url(#p105f8a0134)" style="fill: #0173b2; fill-opacity: 0.75; stroke: #ffffff; stroke-width: 0.704545; stroke-linejoin: miter"/>
   </g>
   <g id="patch_26">
    <path d="M 178.102477 354.465 
L 182.737583 354.465 
L 182.737583 286.198333 
L 178.102477 286.198333 
z
" clip-path="url(#p105f8a0134)" style="fill: #0173b2; fill-opacity: 0.75; stroke: #ffffff; stroke-width: 0.704545; stroke-linejoin: miter"/>
   </g>
   <g id="patch_27">
    <path d="M 182.737583 354.465 
L 187.37269 354.465 
L 187.37269 274.251667 
L 182.737583 274.251667 
z
" clip-path="url(#p105f8a0134)" style="fill: #0173b2; fill-opacity: 0.75; stroke: #ffffff; stroke-width: 0.704545; stroke-linejoin: miter"/>
   </g>
   <g id="patch_28">
    <path d="M 187.37269 354.465 
L 192.007796 354.465 
L 192.007796 253.985 
L 187.37269 253.985 
z
" clip-path="url(#p105f8a0134)" style="fill: #0173b2; fill-opacity: 0.75; stroke: #ffffff; stroke-width: 0.704545; stroke-linejoin: miter"/>
   </g>
   <g id="patch_29">
    <path d="M 192.007796 354.465 
L 196.642903 354.465 
L 196.642903 248.651667 
L 192.007796 248.651667 
z
" clip-path="url(#p105f8a0134)" style="fill: #0173b2; fill-opacity: 0.75; stroke: #ffffff; stroke-width: 0.704545; stroke-linejoin: miter"/>
   </g>
   <g id="patch_30">
    <path d="M 196.642903 354.465 
L 201.278009 354.465 
L 201.278009 240.331667 
L 196.642903 240.331667 
z
" clip-path="url(#p105f8a0134)" style="fill: #0173b2; fill-opacity: 0.75; stroke: #ffffff; stroke-width: 0.704545; stroke-linejoin: miter"/>
   </g>
   <g id="patch_31">
    <path d="M 201.278009 354.465 
L 205.913116 354.465 
L 205.913116 235.638333 
L 201.278009 235.638333 
z
" clip-path="url(#p105f8a0134)" style="fill: #0173b2; fill-opacity: 0.75; stroke: #ffffff; stroke-width: 0.704545; stroke-linejoin: miter"/>
   </g>
   <g id="patch_32">
    <path d="M 205.913116 354.465 
L 210.548222 354.465 
L 210.548222 206.625 
L 205.913116 206.625 
z
" clip-path="url(#p105f8a0134)" style="fill: #0173b2; fill-opacity: 0.75; stroke: #ffffff; stroke-width: 0.704545; stroke-linejoin: miter"/>
   </g>
   <g id="patch_33">
    <path d="M 210.548222 354.465 
L 215.183329 354.465 
L 215.183329 205.558333 
L 210.548222 205.558333 
z
" clip-path="url(#p105f8a0134)" style="fill: #0173b2; fill-opacity: 0.75; stroke: #ffffff; stroke-width: 0.704545; stroke-linejoin: miter"/>
   </g>
   <g id="patch_34">
    <path d="M 215.183329 354.465 
L 219.818435 354.465 
L 219.818435 204.491667 
L 215.183329 204.491667 
z
" clip-path="url(#p105f8a0134)" style="fill: #0173b2; fill-opacity: 0.75; stroke: #ffffff; stroke-width: 0.704545; stroke-linejoin: miter"/>
   </g>
   <g id="patch_35">
    <path d="M 219.818435 354.465 
L 224.453542 354.465 
L 224.453542 184.865 
L 219.818435 184.865 
z
" clip-path="url(#p105f8a0134)" style="fill: #0173b2; fill-opacity: 0.75; stroke: #ffffff; stroke-width: 0.704545; stroke-linejoin: miter"/>
   </g>
   <g id="patch_36">
    <path d="M 224.453542 354.465 
L 229.088648 354.465 
L 229.088648 171.851667 
L 224.453542 171.851667 
z
" clip-path="url(#p105f8a0134)" style="fill: #0173b2; fill-opacity: 0.75; stroke: #ffffff; stroke-width: 0.704545; stroke-linejoin: miter"/>
   </g>
   <g id="patch_37">
    <path d="M 229.088648 354.465 
L 233.723755 354.465 
L 233.723755 169.505 
L 229.088648 169.505 
z
" clip-path="url(#p105f8a0134)" style="fill: #0173b2; fill-opacity: 0.75; stroke: #ffffff; stroke-width: 0.704545; stroke-linejoin: miter"/>
   </g>
   <g id="patch_38">
    <path d="M 233.723755 354.465 
L 238.358861 354.465 
L 238.358861 139.638333 
L 233.723755 139.638333 
z
" clip-path="url(#p105f8a0134)" style="fill: #0173b2; fill-opacity: 0.75; stroke: #ffffff; stroke-width: 0.704545; stroke-linejoin: miter"/>
   </g>
   <g id="patch_39">
    <path d="M 238.358861 354.465 
L 242.993968 354.465 
L 242.993968 133.025 
L 238.358861 133.025 
z
" clip-path="url(#p105f8a0134)" style="fill: #0173b2; fill-opacity: 0.75; stroke: #ffffff; stroke-width: 0.704545; stroke-linejoin: miter"/>
   </g>
   <g id="patch_40">
    <path d="M 242.993968 354.465 
L 247.629074 354.465 
L 247.629074 110.838333 
L 242.993968 110.838333 
z
" clip-path="url(#p105f8a0134)" style="fill: #0173b2; fill-opacity: 0.75; stroke: #ffffff; stroke-width: 0.704545; stroke-linejoin: miter"/>
   </g>
   <g id="patch_41">
    <path d="M 247.629074 354.465 
L 252.264181 354.465 
L 252.264181 115.318333 
L 247.629074 115.318333 
z
" clip-path="url(#p105f8a0134)" style="fill: #0173b2; fill-opacity: 0.75; stroke: #ffffff; stroke-width: 0.704545; stroke-linejoin: miter"/>
   </g>
   <g id="patch_42">
    <path d="M 252.264181 354.465 
L 256.899287 354.465 
L 256.899287 96.545 
L 252.264181 96.545 
z
" clip-path="url(#p105f8a0134)" style="fill: #0173b2; fill-opacity: 0.75; stroke: #ffffff; stroke-width: 0.704545; stroke-linejoin: miter"/>
   </g>
   <g id="patch_43">
    <path d="M 256.899287 354.465 
L 261.534394 354.465 
L 261.534394 97.611667 
L 256.899287 97.611667 
z
" clip-path="url(#p105f8a0134)" style="fill: #0173b2; fill-opacity: 0.75; stroke: #ffffff; stroke-width: 0.704545; stroke-linejoin: miter"/>
   </g>
   <g id="patch_44">
    <path d="M 261.534394 354.465 
L 266.1695 354.465 
L 266.1695 77.771667 
L 261.534394 77.771667 
z
" clip-path="url(#p105f8a0134)" style="fill: #0173b2; fill-opacity: 0.75; stroke: #ffffff; stroke-width: 0.704545; stroke-linejoin: miter"/>
   </g>
   <g id="patch_45">
    <path d="M 266.1695 354.465 
L 270.804607 354.465 
L 270.804607 87.798333 
L 266.1695 87.798333 
z
" clip-path="url(#p105f8a0134)" style="fill: #0173b2; fill-opacity: 0.75; stroke: #ffffff; stroke-width: 0.704545; stroke-linejoin: miter"/>
   </g>
   <g id="patch_46">
    <path d="M 270.804607 354.465 
L 275.439713 354.465 
L 275.439713 64.758333 
L 270.804607 64.758333 
z
" clip-path="url(#p105f8a0134)" style="fill: #0173b2; fill-opacity: 0.75; stroke: #ffffff; stroke-width: 0.704545; stroke-linejoin: miter"/>
   </g>
   <g id="patch_47">
    <path d="M 275.439713 354.465 
L 280.07482 354.465 
L 280.07482 56.225 
L 275.439713 56.225 
z
" clip-path="url(#p105f8a0134)" style="fill: #0173b2; fill-opacity: 0.75; stroke: #ffffff; stroke-width: 0.704545; stroke-linejoin: miter"/>
   </g>
   <g id="patch_48">
    <path d="M 280.07482 354.465 
L 284.709926 354.465 
L 284.709926 60.065 
L 280.07482 60.065 
z
" clip-path="url(#p105f8a0134)" style="fill: #0173b2; fill-opacity: 0.75; stroke: #ffffff; stroke-width: 0.704545; stroke-linejoin: miter"/>
   </g>
   <g id="patch_49">
    <path d="M 284.709926 354.465 
L 289.345033 354.465 
L 289.345033 61.985 
L 284.709926 61.985 
z
" clip-path="url(#p105f8a0134)" style="fill: #0173b2; fill-opacity: 0.75; stroke: #ffffff; stroke-width: 0.704545; stroke-linejoin: miter"/>
   </g>
   <g id="patch_50">
    <path d="M 289.345033 354.465 
L 293.980139 354.465 
L 293.980139 53.665 
L 289.345033 53.665 
z
" clip-path="url(#p105f8a0134)" style="fill: #0173b2; fill-opacity: 0.75; stroke: #ffffff; stroke-width: 0.704545; stroke-linejoin: miter"/>
   </g>
   <g id="patch_51">
    <path d="M 293.980139 354.465 
L 298.615246 354.465 
L 298.615246 47.478333 
L 293.980139 47.478333 
z
" clip-path="url(#p105f8a0134)" style="fill: #0173b2; fill-opacity: 0.75; stroke: #ffffff; stroke-width: 0.704545; stroke-linejoin: miter"/>
   </g>
   <g id="patch_52">
    <path d="M 298.615246 354.465 
L 303.250352 354.465 
L 303.250352 37.665 
L 298.615246 37.665 
z
" clip-path="url(#p105f8a0134)" style="fill: #0173b2; fill-opacity: 0.75; stroke: #ffffff; stroke-width: 0.704545; stroke-linejoin: miter"/>
   </g>
   <g id="patch_53">
    <path d="M 303.250352 354.465 
L 307.885459 354.465 
L 307.885459 52.598333 
L 303.250352 52.598333 
z
" clip-path="url(#p105f8a0134)" style="fill: #0173b2; fill-opacity: 0.75; stroke: #ffffff; stroke-width: 0.704545; stroke-linejoin: miter"/>
   </g>
   <g id="patch_54">
    <path d="M 307.885459 354.465 
L 312.520565 354.465 
L 312.520565 38.305 
L 307.885459 38.305 
z
" clip-path="url(#p105f8a0134)" style="fill: #0173b2; fill-opacity: 0.75; stroke: #ffffff; stroke-width: 0.704545; stroke-linejoin: miter"/>
   </g>
   <g id="patch_55">
    <path d="M 312.520565 354.465 
L 317.155672 354.465 
L 317.155672 58.785 
L 312.520565 58.785 
z
" clip-path="url(#p105f8a0134)" style="fill: #0173b2; fill-opacity: 0.75; stroke: #ffffff; stroke-width: 0.704545; stroke-linejoin: miter"/>
   </g>
   <g id="patch_56">
    <path d="M 317.155672 354.465 
L 321.790778 354.465 
L 321.790778 59.638333 
L 317.155672 59.638333 
z
" clip-path="url(#p105f8a0134)" style="fill: #0173b2; fill-opacity: 0.75; stroke: #ffffff; stroke-width: 0.704545; stroke-linejoin: miter"/>
   </g>
   <g id="patch_57">
    <path d="M 321.790778 354.465 
L 326.425885 354.465 
L 326.425885 59.638333 
L 321.790778 59.638333 
z
" clip-path="url(#p105f8a0134)" style="fill: #0173b2; fill-opacity: 0.75; stroke: #ffffff; stroke-width: 0.704545; stroke-linejoin: miter"/>
   </g>
   <g id="patch_58">
    <path d="M 326.425885 354.465 
L 331.060991 354.465 
L 331.060991 62.411667 
L 326.425885 62.411667 
z
" clip-path="url(#p105f8a0134)" style="fill: #0173b2; fill-opacity: 0.75; stroke: #ffffff; stroke-width: 0.704545; stroke-linejoin: miter"/>
   </g>
   <g id="patch_59">
    <path d="M 331.060991 354.465 
L 335.696098 354.465 
L 335.696098 72.011667 
L 331.060991 72.011667 
z
" clip-path="url(#p105f8a0134)" style="fill: #0173b2; fill-opacity: 0.75; stroke: #ffffff; stroke-width: 0.704545; stroke-linejoin: miter"/>
   </g>
   <g id="patch_60">
    <path d="M 335.696098 354.465 
L 340.331205 354.465 
L 340.331205 80.545 
L 335.696098 80.545 
z
" clip-path="url(#p105f8a0134)" style="fill: #0173b2; fill-opacity: 0.75; stroke: #ffffff; stroke-width: 0.704545; stroke-linejoin: miter"/>
   </g>
   <g id="patch_61">
    <path d="M 340.331205 354.465 
L 344.966311 354.465 
L 344.966311 103.798333 
L 340.331205 103.798333 
z
" clip-path="url(#p105f8a0134)" style="fill: #0173b2; fill-opacity: 0.75; stroke: #ffffff; stroke-width: 0.704545; stroke-linejoin: miter"/>
   </g>
   <g id="patch_62">
    <path d="M 344.966311 354.465 
L 349.601418 354.465 
L 349.601418 111.691667 
L 344.966311 111.691667 
z
" clip-path="url(#p105f8a0134)" style="fill: #0173b2; fill-opacity: 0.75; stroke: #ffffff; stroke-width: 0.704545; stroke-linejoin: miter"/>
   </g>
   <g id="patch_63">
    <path d="M 349.601418 354.465 
L 354.236524 354.465 
L 354.236524 124.065 
L 349.601418 124.065 
z
" clip-path="url(#p105f8a0134)" style="fill: #0173b2; fill-opacity: 0.75; stroke: #ffffff; stroke-width: 0.704545; stroke-linejoin: miter"/>
   </g>
   <g id="patch_64">
    <path d="M 354.236524 354.465 
L 358.871631 354.465 
L 358.871631 132.598333 
L 354.236524 132.598333 
z
" clip-path="url(#p105f8a0134)" style="fill: #0173b2; fill-opacity: 0.75; stroke: #ffffff; stroke-width: 0.704545; stroke-linejoin: miter"/>
   </g>
   <g id="patch_65">
    <path d="M 358.871631 354.465 
L 363.506737 354.465 
L 363.506737 147.531667 
L 358.871631 147.531667 
z
" clip-path="url(#p105f8a0134)" style="fill: #0173b2; fill-opacity: 0.75; stroke: #ffffff; stroke-width: 0.704545; stroke-linejoin: miter"/>
   </g>
   <g id="patch_66">
    <path d="M 363.506737 354.465 
L 368.141844 354.465 
L 368.141844 171.211667 
L 363.506737 171.211667 
z
" clip-path="url(#p105f8a0134)" style="fill: #0173b2; fill-opacity: 0.75; stroke: #ffffff; stroke-width: 0.704545; stroke-linejoin: miter"/>
   </g>
   <g id="patch_67">
    <path d="M 368.141844 354.465 
L 372.77695 354.465 
L 372.77695 175.265 
L 368.141844 175.265 
z
" clip-path="url(#p105f8a0134)" style="fill: #0173b2; fill-opacity: 0.75; stroke: #ffffff; stroke-width: 0.704545; stroke-linejoin: miter"/>
   </g>
   <g id="patch_68">
    <path d="M 372.77695 354.465 
L 377.412057 354.465 
L 377.412057 189.131667 
L 372.77695 189.131667 
z
" clip-path="url(#p105f8a0134)" style="fill: #0173b2; fill-opacity: 0.75; stroke: #ffffff; stroke-width: 0.704545; stroke-linejoin: miter"/>
   </g>
   <g id="patch_69">
    <path d="M 377.412057 354.465 
L 382.047163 354.465 
L 382.047163 211.745 
L 377.412057 211.745 
z
" clip-path="url(#p105f8a0134)" style="fill: #0173b2; fill-opacity: 0.75; stroke: #ffffff; stroke-width: 0.704545; stroke-linejoin: miter"/>
   </g>
   <g id="patch_70">
    <path d="M 382.047163 354.465 
L 386.68227 354.465 
L 386.68227 239.478333 
L 382.047163 239.478333 
z
" clip-path="url(#p105f8a0134)" style="fill: #0173b2; fill-opacity: 0.75; stroke: #ffffff; stroke-width: 0.704545; stroke-linejoin: miter"/>
   </g>
   <g id="patch_71">
    <path d="M 386.68227 354.465 
L 391.317376 354.465 
L 391.317376 260.385 
L 386.68227 260.385 
z
" clip-path="url(#p105f8a0134)" style="fill: #0173b2; fill-opacity: 0.75; stroke: #ffffff; stroke-width: 0.704545; stroke-linejoin: miter"/>
   </g>
   <g id="patch_72">
    <path d="M 391.317376 354.465 
L 395.952483 354.465 
L 395.952483 290.251667 
L 391.317376 290.251667 
z
" clip-path="url(#p105f8a0134)" style="fill: #0173b2; fill-opacity: 0.75; stroke: #ffffff; stroke-width: 0.704545; stroke-linejoin: miter"/>
   </g>
   <g id="patch_73">
    <path d="M 395.952483 354.465 
L 400.587589 354.465 
L 400.587589 312.651667 
L 395.952483 312.651667 
z
" clip-path="url(#p105f8a0134)" style="fill: #0173b2; fill-opacity: 0.75; stroke: #ffffff; stroke-width: 0.704545; stroke-linejoin: miter"/>
   </g>
   <g id="patch_74">
    <path d="M 400.587589 354.465 
L 405.222696 354.465 
L 405.222696 341.238333 
L 400.587589 341.238333 
z
" clip-path="url(#p105f8a0134)" style="fill: #0173b2; fill-opacity: 0.75; stroke: #ffffff; stroke-width: 0.704545; stroke-linejoin: miter"/>
   </g>
   <g id="patch_75">
    <path d="M 7.2 354.465 
L 7.2 21.825 
" style="fill: none; stroke: #ffffff; stroke-width: 1.25; stroke-linejoin: miter; stroke-linecap: square"/>
   </g>
   <g id="patch_76">
    <path d="M 7.2 354.465 
L 565.2 354.465 
" style="fill: none; stroke: #ffffff; stroke-width: 1.25; stroke-linejoin: miter; stroke-linecap: square"/>
   </g>
   <g id="text_9">
    <!-- Ampiezza campionaria = 2 -->
    <g style="fill: #262626" transform="translate(215.334375 15.825) scale(0.12 -0.12)">
     <defs>
      <path id="ArialMT-41" d="M -9 0 
L 1750 4581 
L 2403 4581 
L 4278 0 
L 3588 0 
L 3053 1388 
L 1138 1388 
L 634 0 
L -9 0 
z
M 1313 1881 
L 2866 1881 
L 2388 3150 
Q 2169 3728 2063 4100 
Q 1975 3659 1816 3225 
L 1313 1881 
z
" transform="scale(0.015625)"/>
      <path id="ArialMT-6d" d="M 422 0 
L 422 3319 
L 925 3319 
L 925 2853 
Q 1081 3097 1340 3245 
Q 1600 3394 1931 3394 
Q 2300 3394 2536 3241 
Q 2772 3088 2869 2813 
Q 3263 3394 3894 3394 
Q 4388 3394 4653 3120 
Q 4919 2847 4919 2278 
L 4919 0 
L 4359 0 
L 4359 2091 
Q 4359 2428 4304 2576 
Q 4250 2725 4106 2815 
Q 3963 2906 3769 2906 
Q 3419 2906 3187 2673 
Q 2956 2441 2956 1928 
L 2956 0 
L 2394 0 
L 2394 2156 
Q 2394 2531 2256 2718 
Q 2119 2906 1806 2906 
Q 1569 2906 1367 2781 
Q 1166 2656 1075 2415 
Q 984 2175 984 1722 
L 984 0 
L 422 0 
z
" transform="scale(0.015625)"/>
      <path id="ArialMT-70" d="M 422 -1272 
L 422 3319 
L 934 3319 
L 934 2888 
Q 1116 3141 1344 3267 
Q 1572 3394 1897 3394 
Q 2322 3394 2647 3175 
Q 2972 2956 3137 2557 
Q 3303 2159 3303 1684 
Q 3303 1175 3120 767 
Q 2938 359 2589 142 
Q 2241 -75 1856 -75 
Q 1575 -75 1351 44 
Q 1128 163 984 344 
L 984 -1272 
L 422 -1272 
z
M 931 1641 
Q 931 1000 1190 694 
Q 1450 388 1819 388 
Q 2194 388 2461 705 
Q 2728 1022 2728 1688 
Q 2728 2322 2467 2637 
Q 2206 2953 1844 2953 
Q 1484 2953 1207 2617 
Q 931 2281 931 1641 
z
" transform="scale(0.015625)"/>
      <path id="ArialMT-69" d="M 425 3934 
L 425 4581 
L 988 4581 
L 988 3934 
L 425 3934 
z
M 425 0 
L 425 3319 
L 988 3319 
L 988 0 
L 425 0 
z
" transform="scale(0.015625)"/>
      <path id="ArialMT-65" d="M 2694 1069 
L 3275 997 
Q 3138 488 2766 206 
Q 2394 -75 1816 -75 
Q 1088 -75 661 373 
Q 234 822 234 1631 
Q 234 2469 665 2931 
Q 1097 3394 1784 3394 
Q 2450 3394 2872 2941 
Q 3294 2488 3294 1666 
Q 3294 1616 3291 1516 
L 816 1516 
Q 847 969 1125 678 
Q 1403 388 1819 388 
Q 2128 388 2347 550 
Q 2566 713 2694 1069 
z
M 847 1978 
L 2700 1978 
Q 2663 2397 2488 2606 
Q 2219 2931 1791 2931 
Q 1403 2931 1139 2672 
Q 875 2413 847 1978 
z
" transform="scale(0.015625)"/>
      <path id="ArialMT-7a" d="M 125 0 
L 125 456 
L 2238 2881 
Q 1878 2863 1603 2863 
L 250 2863 
L 250 3319 
L 2963 3319 
L 2963 2947 
L 1166 841 
L 819 456 
Q 1197 484 1528 484 
L 3063 484 
L 3063 0 
L 125 0 
z
" transform="scale(0.015625)"/>
      <path id="ArialMT-61" d="M 2588 409 
Q 2275 144 1986 34 
Q 1697 -75 1366 -75 
Q 819 -75 525 192 
Q 231 459 231 875 
Q 231 1119 342 1320 
Q 453 1522 633 1644 
Q 813 1766 1038 1828 
Q 1203 1872 1538 1913 
Q 2219 1994 2541 2106 
Q 2544 2222 2544 2253 
Q 2544 2597 2384 2738 
Q 2169 2928 1744 2928 
Q 1347 2928 1158 2789 
Q 969 2650 878 2297 
L 328 2372 
Q 403 2725 575 2942 
Q 747 3159 1072 3276 
Q 1397 3394 1825 3394 
Q 2250 3394 2515 3294 
Q 2781 3194 2906 3042 
Q 3031 2891 3081 2659 
Q 3109 2516 3109 2141 
L 3109 1391 
Q 3109 606 3145 398 
Q 3181 191 3288 0 
L 2700 0 
Q 2613 175 2588 409 
z
M 2541 1666 
Q 2234 1541 1622 1453 
Q 1275 1403 1131 1340 
Q 988 1278 909 1158 
Q 831 1038 831 891 
Q 831 666 1001 516 
Q 1172 366 1500 366 
Q 1825 366 2078 508 
Q 2331 650 2450 897 
Q 2541 1088 2541 1459 
L 2541 1666 
z
" transform="scale(0.015625)"/>
      <path id="ArialMT-20" transform="scale(0.015625)"/>
      <path id="ArialMT-63" d="M 2588 1216 
L 3141 1144 
Q 3050 572 2676 248 
Q 2303 -75 1759 -75 
Q 1078 -75 664 370 
Q 250 816 250 1647 
Q 250 2184 428 2587 
Q 606 2991 970 3192 
Q 1334 3394 1763 3394 
Q 2303 3394 2647 3120 
Q 2991 2847 3088 2344 
L 2541 2259 
Q 2463 2594 2264 2762 
Q 2066 2931 1784 2931 
Q 1359 2931 1093 2626 
Q 828 2322 828 1663 
Q 828 994 1084 691 
Q 1341 388 1753 388 
Q 2084 388 2306 591 
Q 2528 794 2588 1216 
z
" transform="scale(0.015625)"/>
      <path id="ArialMT-6f" d="M 213 1659 
Q 213 2581 725 3025 
Q 1153 3394 1769 3394 
Q 2453 3394 2887 2945 
Q 3322 2497 3322 1706 
Q 3322 1066 3130 698 
Q 2938 331 2570 128 
Q 2203 -75 1769 -75 
Q 1072 -75 642 372 
Q 213 819 213 1659 
z
M 791 1659 
Q 791 1022 1069 705 
Q 1347 388 1769 388 
Q 2188 388 2466 706 
Q 2744 1025 2744 1678 
Q 2744 2294 2464 2611 
Q 2184 2928 1769 2928 
Q 1347 2928 1069 2612 
Q 791 2297 791 1659 
z
" transform="scale(0.015625)"/>
      <path id="ArialMT-6e" d="M 422 0 
L 422 3319 
L 928 3319 
L 928 2847 
Q 1294 3394 1984 3394 
Q 2284 3394 2536 3286 
Q 2788 3178 2913 3003 
Q 3038 2828 3088 2588 
Q 3119 2431 3119 2041 
L 3119 0 
L 2556 0 
L 2556 2019 
Q 2556 2363 2490 2533 
Q 2425 2703 2258 2804 
Q 2091 2906 1866 2906 
Q 1506 2906 1245 2678 
Q 984 2450 984 1813 
L 984 0 
L 422 0 
z
" transform="scale(0.015625)"/>
      <path id="ArialMT-72" d="M 416 0 
L 416 3319 
L 922 3319 
L 922 2816 
Q 1116 3169 1280 3281 
Q 1444 3394 1641 3394 
Q 1925 3394 2219 3213 
L 2025 2691 
Q 1819 2813 1613 2813 
Q 1428 2813 1281 2702 
Q 1134 2591 1072 2394 
Q 978 2094 978 1738 
L 978 0 
L 416 0 
z
" transform="scale(0.015625)"/>
      <path id="ArialMT-3d" d="M 3381 2694 
L 356 2694 
L 356 3219 
L 3381 3219 
L 3381 2694 
z
M 3381 1303 
L 356 1303 
L 356 1828 
L 3381 1828 
L 3381 1303 
z
" transform="scale(0.015625)"/>
     </defs>
     <use xlink:href="#ArialMT-41"/>
     <use xlink:href="#ArialMT-6d" x="66.699219"/>
     <use xlink:href="#ArialMT-70" x="150"/>
     <use xlink:href="#ArialMT-69" x="205.615234"/>
     <use xlink:href="#ArialMT-65" x="227.832031"/>
     <use xlink:href="#ArialMT-7a" x="283.447266"/>
     <use xlink:href="#ArialMT-7a" x="333.447266"/>
     <use xlink:href="#ArialMT-61" x="383.447266"/>
     <use xlink:href="#ArialMT-20" x="439.0625"/>
     <use xlink:href="#ArialMT-63" x="466.845703"/>
     <use xlink:href="#ArialMT-61" x="516.845703"/>
     <use xlink:href="#ArialMT-6d" x="572.460938"/>
     <use xlink:href="#ArialMT-70" x="655.761719"/>
     <use xlink:href="#ArialMT-69" x="711.376953"/>
     <use xlink:href="#ArialMT-6f" x="733.59375"/>
     <use xlink:href="#ArialMT-6e" x="789.208984"/>
     <use xlink:href="#ArialMT-61" x="844.824219"/>
     <use xlink:href="#ArialMT-72" x="900.439453"/>
     <use xlink:href="#ArialMT-69" x="933.740234"/>
     <use xlink:href="#ArialMT-61" x="955.957031"/>
     <use xlink:href="#ArialMT-20" x="1011.572266"/>
     <use xlink:href="#ArialMT-3d" x="1039.355469"/>
     <use xlink:href="#ArialMT-20" x="1097.753906"/>
     <use xlink:href="#ArialMT-32" x="1125.537109"/>
    </g>
   </g>
  </g>
  <g id="axes_2">
   <g id="matplotlib.axis_3">
    <g id="ytick_9">
     <g id="line2d_17">
      <path d="M 7.2 339.382358 
L 565.2 339.382358 
" clip-path="url(#p105f8a0134)" style="fill: none; stroke: #ffffff; stroke-linecap: round"/>
     </g>
    </g>
    <g id="ytick_10">
     <g id="line2d_18">
      <path d="M 7.2 276.149484 
L 565.2 276.149484 
" clip-path="url(#p105f8a0134)" style="fill: none; stroke: #ffffff; stroke-linecap: round"/>
     </g>
    </g>
    <g id="ytick_11">
     <g id="line2d_19">
      <path d="M 7.2 212.916609 
L 565.2 212.916609 
" clip-path="url(#p105f8a0134)" style="fill: none; stroke: #ffffff; stroke-linecap: round"/>
     </g>
    </g>
    <g id="ytick_12">
     <g id="line2d_20">
      <path d="M 7.2 149.683735 
L 565.2 149.683735 
" clip-path="url(#p105f8a0134)" style="fill: none; stroke: #ffffff; stroke-linecap: round"/>
     </g>
    </g>
    <g id="ytick_13">
     <g id="line2d_21">
      <path d="M 7.2 86.45086 
L 565.2 86.45086 
" clip-path="url(#p105f8a0134)" style="fill: none; stroke: #ffffff; stroke-linecap: round"/>
     </g>
    </g>
    <g id="ytick_14">
     <g id="line2d_22">
      <path d="M 7.2 23.217985 
L 565.2 23.217985 
" clip-path="url(#p105f8a0134)" style="fill: none; stroke: #ffffff; stroke-linecap: round"/>
     </g>
    </g>
   </g>
   <g id="PolyCollection_1"/>
   <g id="line2d_23">
    <path d="M 32.563636 339.345 
L 37.687603 339.328814 
L 42.81157 339.306176 
L 47.935537 339.27476 
L 53.059504 339.231502 
L 58.183471 339.172401 
L 63.307438 339.092284 
L 68.431405 338.98453 
L 73.555372 338.84074 
L 78.679339 338.650377 
L 83.803306 338.400348 
L 88.927273 338.074556 
L 94.05124 337.653427 
L 99.175207 337.113419 
L 104.299174 336.426541 
L 109.42314 335.559908 
L 114.547107 334.475361 
L 119.671074 333.129202 
L 124.795041 331.472069 
L 129.919008 329.449024 
L 135.042975 326.999886 
L 140.166942 324.059873 
L 145.290909 320.560579 
L 150.414876 316.431352 
L 155.538843 311.60107 
L 160.66281 306.000338 
L 165.786777 299.564084 
L 170.910744 292.234512 
L 176.034711 283.964357 
L 181.158678 274.72031 
L 186.282645 264.486527 
L 191.406612 253.268028 
L 196.530579 241.093838 
L 201.654545 228.019657 
L 206.778512 214.129886 
L 211.902479 199.538806 
L 217.026446 184.390752 
L 222.150413 168.859147 
L 227.27438 153.144309 
L 232.398347 137.469992 
L 237.522314 122.078713 
L 242.646281 107.225939 
L 247.770248 93.173331 
L 252.894215 80.181259 
L 258.018182 68.50089 
L 263.142149 58.366168 
L 268.266116 49.986055 
L 273.390083 43.537376 
L 278.51405 39.158621 
L 283.638017 36.945 
L 288.761983 36.945 
L 293.88595 39.158621 
L 299.009917 43.537376 
L 304.133884 49.986055 
L 309.257851 58.366168 
L 314.381818 68.50089 
L 319.505785 80.181259 
L 324.629752 93.173331 
L 329.753719 107.225939 
L 334.877686 122.078713 
L 340.001653 137.469992 
L 345.12562 153.144309 
L 350.249587 168.859147 
L 355.373554 184.390752 
L 360.497521 199.538806 
L 365.621488 214.129886 
L 370.745455 228.019657 
L 375.869421 241.093838 
L 380.993388 253.268028 
L 386.117355 264.486527 
L 391.241322 274.72031 
L 396.365289 283.964357 
L 401.489256 292.234512 
L 406.613223 299.564084 
L 411.73719 306.000338 
L 416.861157 311.60107 
L 421.985124 316.431352 
L 427.109091 320.560579 
L 432.233058 324.059873 
L 437.357025 326.999886 
L 442.480992 329.449024 
L 447.604959 331.472069 
L 452.728926 333.129202 
L 457.852893 334.475361 
L 462.97686 335.559908 
L 468.100826 336.426541 
L 473.224793 337.113419 
L 478.34876 337.653427 
L 483.472727 338.074556 
L 488.596694 338.400348 
L 493.720661 338.650377 
L 498.844628 338.84074 
L 503.968595 338.98453 
L 509.092562 339.092284 
L 514.216529 339.172401 
L 519.340496 339.231502 
L 524.464463 339.27476 
L 529.58843 339.306176 
L 534.712397 339.328814 
L 539.836364 339.345 
" clip-path="url(#p105f8a0134)" style="fill: none; stroke: #000000; stroke-width: 1.5; stroke-linecap: round"/>
   </g>
   <g id="patch_77">
    <path d="M 7.2 354.465 
L 7.2 21.825 
" style="fill: none; stroke: #ffffff; stroke-width: 1.25; stroke-linejoin: miter; stroke-linecap: square"/>
   </g>
   <g id="patch_78">
    <path d="M 7.2 354.465 
L 565.2 354.465 
" style="fill: none; stroke: #ffffff; stroke-width: 1.25; stroke-linejoin: miter; stroke-linecap: square"/>
   </g>
  </g>
 </g>
 <defs>
  <clipPath id="p105f8a0134">
   <rect x="7.2" y="21.825" width="558" height="332.64"/>
  </clipPath>
 </defs>
</svg>