<?xml version="1.0" encoding="utf-8" standalone="no"?>
<!DOCTYPE svg PUBLIC "-//W3C//DTD SVG 1.1//EN"
  "http://www.w3.org/Graphics/SVG/1.1/DTD/svg11.dtd">
<svg xmlns:xlink="http://www.w3.org/1999/xlink" width="597.825625pt" height="363.387875pt" viewBox="0 0 597.825625 363.387875" xmlns="http://www.w3.org/2000/svg" version="1.1">
 <metadata>
  <rdf:RDF xmlns:dc="http://purl.org/dc/elements/1.1/" xmlns:cc="http://creativecommons.org/ns#" xmlns:rdf="http://www.w3.org/1999/02/22-rdf-syntax-ns#">
   <cc:Work>
    <dc:type rdf:resource="http://purl.org/dc/dcmitype/StillImage"/>
    <dc:date>2023-05-08T00:37:44.435775</dc:date>
    <dc:format>image/svg+xml</dc:format>
    <dc:creator>
     <cc:Agent>
      <dc:title>Matplotlib v3.7.1, https://matplotlib.org/</dc:title>
     </cc:Agent>
    </dc:creator>
   </cc:Work>
  </rdf:RDF>
 </metadata>
 <defs>
  <style type="text/css">*{stroke-linejoin: round; stroke-linecap: butt}</style>
 </defs>
 <g id="figure_1">
  <g id="patch_1">
   <path d="M 0 363.387875 
L 597.825625 363.387875 
L 597.825625 0 
L 0 0 
z
" style="fill: #ffffff"/>
  </g>
  <g id="axes_1">
   <g id="patch_2">
    <path d="M 32.625625 339.84 
L 590.625625 339.84 
L 590.625625 7.2 
L 32.625625 7.2 
z
" style="fill: #eaeaf2"/>
   </g>
   <g id="matplotlib.axis_1">
    <g id="xtick_1">
     <g id="line2d_1">
      <path d="M 57.989261 339.84 
L 57.989261 7.2 
" clip-path="url(#p49508258b5)" style="fill: none; stroke: #ffffff; stroke-width: 0.8; stroke-linecap: round"/>
     </g>
     <g id="text_1">
      <!-- 0.0 -->
      <g style="fill: #262626" transform="translate(51.873261 354.438875) scale(0.088 -0.088)">
       <defs>
        <path id="ArialMT-30" d="M 266 2259 
Q 266 3072 433 3567 
Q 600 4063 929 4331 
Q 1259 4600 1759 4600 
Q 2128 4600 2406 4451 
Q 2684 4303 2865 4023 
Q 3047 3744 3150 3342 
Q 3253 2941 3253 2259 
Q 3253 1453 3087 958 
Q 2922 463 2592 192 
Q 2263 -78 1759 -78 
Q 1097 -78 719 397 
Q 266 969 266 2259 
z
M 844 2259 
Q 844 1131 1108 757 
Q 1372 384 1759 384 
Q 2147 384 2411 759 
Q 2675 1134 2675 2259 
Q 2675 3391 2411 3762 
Q 2147 4134 1753 4134 
Q 1366 4134 1134 3806 
Q 844 3388 844 2259 
z
" transform="scale(0.015625)"/>
        <path id="ArialMT-2e" d="M 581 0 
L 581 641 
L 1222 641 
L 1222 0 
L 581 0 
z
" transform="scale(0.015625)"/>
       </defs>
       <use xlink:href="#ArialMT-30"/>
       <use xlink:href="#ArialMT-2e" x="55.615234"/>
       <use xlink:href="#ArialMT-30" x="83.398438"/>
      </g>
     </g>
    </g>
    <g id="xtick_2">
     <g id="line2d_2">
      <path d="M 121.430073 339.84 
L 121.430073 7.2 
" clip-path="url(#p49508258b5)" style="fill: none; stroke: #ffffff; stroke-width: 0.8; stroke-linecap: round"/>
     </g>
     <g id="text_2">
      <!-- 2.5 -->
      <g style="fill: #262626" transform="translate(115.314073 354.438875) scale(0.088 -0.088)">
       <defs>
        <path id="ArialMT-32" d="M 3222 541 
L 3222 0 
L 194 0 
Q 188 203 259 391 
Q 375 700 629 1000 
Q 884 1300 1366 1694 
Q 2113 2306 2375 2664 
Q 2638 3022 2638 3341 
Q 2638 3675 2398 3904 
Q 2159 4134 1775 4134 
Q 1369 4134 1125 3890 
Q 881 3647 878 3216 
L 300 3275 
Q 359 3922 746 4261 
Q 1134 4600 1788 4600 
Q 2447 4600 2831 4234 
Q 3216 3869 3216 3328 
Q 3216 3053 3103 2787 
Q 2991 2522 2730 2228 
Q 2469 1934 1863 1422 
Q 1356 997 1212 845 
Q 1069 694 975 541 
L 3222 541 
z
" transform="scale(0.015625)"/>
        <path id="ArialMT-35" d="M 266 1200 
L 856 1250 
Q 922 819 1161 601 
Q 1400 384 1738 384 
Q 2144 384 2425 690 
Q 2706 997 2706 1503 
Q 2706 1984 2436 2262 
Q 2166 2541 1728 2541 
Q 1456 2541 1237 2417 
Q 1019 2294 894 2097 
L 366 2166 
L 809 4519 
L 3088 4519 
L 3088 3981 
L 1259 3981 
L 1013 2750 
Q 1425 3038 1878 3038 
Q 2478 3038 2890 2622 
Q 3303 2206 3303 1553 
Q 3303 931 2941 478 
Q 2500 -78 1738 -78 
Q 1113 -78 717 272 
Q 322 622 266 1200 
z
" transform="scale(0.015625)"/>
       </defs>
       <use xlink:href="#ArialMT-32"/>
       <use xlink:href="#ArialMT-2e" x="55.615234"/>
       <use xlink:href="#ArialMT-35" x="83.398438"/>
      </g>
     </g>
    </g>
    <g id="xtick_3">
     <g id="line2d_3">
      <path d="M 184.870884 339.84 
L 184.870884 7.2 
" clip-path="url(#p49508258b5)" style="fill: none; stroke: #ffffff; stroke-width: 0.8; stroke-linecap: round"/>
     </g>
     <g id="text_3">
      <!-- 5.0 -->
      <g style="fill: #262626" transform="translate(178.754884 354.438875) scale(0.088 -0.088)">
       <use xlink:href="#ArialMT-35"/>
       <use xlink:href="#ArialMT-2e" x="55.615234"/>
       <use xlink:href="#ArialMT-30" x="83.398438"/>
      </g>
     </g>
    </g>
    <g id="xtick_4">
     <g id="line2d_4">
      <path d="M 248.311695 339.84 
L 248.311695 7.2 
" clip-path="url(#p49508258b5)" style="fill: none; stroke: #ffffff; stroke-width: 0.8; stroke-linecap: round"/>
     </g>
     <g id="text_4">
      <!-- 7.5 -->
      <g style="fill: #262626" transform="translate(242.195695 354.438875) scale(0.088 -0.088)">
       <defs>
        <path id="ArialMT-37" d="M 303 3981 
L 303 4522 
L 3269 4522 
L 3269 4084 
Q 2831 3619 2401 2847 
Q 1972 2075 1738 1259 
Q 1569 684 1522 0 
L 944 0 
Q 953 541 1156 1306 
Q 1359 2072 1739 2783 
Q 2119 3494 2547 3981 
L 303 3981 
z
" transform="scale(0.015625)"/>
       </defs>
       <use xlink:href="#ArialMT-37"/>
       <use xlink:href="#ArialMT-2e" x="55.615234"/>
       <use xlink:href="#ArialMT-35" x="83.398438"/>
      </g>
     </g>
    </g>
    <g id="xtick_5">
     <g id="line2d_5">
      <path d="M 311.752507 339.84 
L 311.752507 7.2 
" clip-path="url(#p49508258b5)" style="fill: none; stroke: #ffffff; stroke-width: 0.8; stroke-linecap: round"/>
     </g>
     <g id="text_5">
      <!-- 10.0 -->
      <g style="fill: #262626" transform="translate(303.189694 354.438875) scale(0.088 -0.088)">
       <defs>
        <path id="ArialMT-31" d="M 2384 0 
L 1822 0 
L 1822 3584 
Q 1619 3391 1289 3197 
Q 959 3003 697 2906 
L 697 3450 
Q 1169 3672 1522 3987 
Q 1875 4303 2022 4600 
L 2384 4600 
L 2384 0 
z
" transform="scale(0.015625)"/>
       </defs>
       <use xlink:href="#ArialMT-31"/>
       <use xlink:href="#ArialMT-30" x="55.615234"/>
       <use xlink:href="#ArialMT-2e" x="111.230469"/>
       <use xlink:href="#ArialMT-30" x="139.013672"/>
      </g>
     </g>
    </g>
    <g id="xtick_6">
     <g id="line2d_6">
      <path d="M 375.193318 339.84 
L 375.193318 7.2 
" clip-path="url(#p49508258b5)" style="fill: none; stroke: #ffffff; stroke-width: 0.8; stroke-linecap: round"/>
     </g>
     <g id="text_6">
      <!-- 12.5 -->
      <g style="fill: #262626" transform="translate(366.630505 354.438875) scale(0.088 -0.088)">
       <use xlink:href="#ArialMT-31"/>
       <use xlink:href="#ArialMT-32" x="55.615234"/>
       <use xlink:href="#ArialMT-2e" x="111.230469"/>
       <use xlink:href="#ArialMT-35" x="139.013672"/>
      </g>
     </g>
    </g>
    <g id="xtick_7">
     <g id="line2d_7">
      <path d="M 438.634129 339.84 
L 438.634129 7.2 
" clip-path="url(#p49508258b5)" style="fill: none; stroke: #ffffff; stroke-width: 0.8; stroke-linecap: round"/>
     </g>
     <g id="text_7">
      <!-- 15.0 -->
      <g style="fill: #262626" transform="translate(430.071317 354.438875) scale(0.088 -0.088)">
       <use xlink:href="#ArialMT-31"/>
       <use xlink:href="#ArialMT-35" x="55.615234"/>
       <use xlink:href="#ArialMT-2e" x="111.230469"/>
       <use xlink:href="#ArialMT-30" x="139.013672"/>
      </g>
     </g>
    </g>
    <g id="xtick_8">
     <g id="line2d_8">
      <path d="M 502.074941 339.84 
L 502.074941 7.2 
" clip-path="url(#p49508258b5)" style="fill: none; stroke: #ffffff; stroke-width: 0.8; stroke-linecap: round"/>
     </g>
     <g id="text_8">
      <!-- 17.5 -->
      <g style="fill: #262626" transform="translate(493.512128 354.438875) scale(0.088 -0.088)">
       <use xlink:href="#ArialMT-31"/>
       <use xlink:href="#ArialMT-37" x="55.615234"/>
       <use xlink:href="#ArialMT-2e" x="111.230469"/>
       <use xlink:href="#ArialMT-35" x="139.013672"/>
      </g>
     </g>
    </g>
    <g id="xtick_9">
     <g id="line2d_9">
      <path d="M 565.515752 339.84 
L 565.515752 7.2 
" clip-path="url(#p49508258b5)" style="fill: none; stroke: #ffffff; stroke-width: 0.8; stroke-linecap: round"/>
     </g>
     <g id="text_9">
      <!-- 20.0 -->
      <g style="fill: #262626" transform="translate(556.952939 354.438875) scale(0.088 -0.088)">
       <use xlink:href="#ArialMT-32"/>
       <use xlink:href="#ArialMT-30" x="55.615234"/>
       <use xlink:href="#ArialMT-2e" x="111.230469"/>
       <use xlink:href="#ArialMT-30" x="139.013672"/>
      </g>
     </g>
    </g>
   </g>
   <g id="matplotlib.axis_2">
    <g id="ytick_1">
     <g id="line2d_10">
      <path d="M 32.625625 324.72 
L 590.625625 324.72 
" clip-path="url(#p49508258b5)" style="fill: none; stroke: #ffffff; stroke-width: 0.8; stroke-linecap: round"/>
     </g>
     <g id="text_10">
      <!-- 0.00 -->
      <g style="fill: #262626" transform="translate(7.2 327.869438) scale(0.088 -0.088)">
       <use xlink:href="#ArialMT-30"/>
       <use xlink:href="#ArialMT-2e" x="55.615234"/>
       <use xlink:href="#ArialMT-30" x="83.398438"/>
       <use xlink:href="#ArialMT-30" x="139.013672"/>
      </g>
     </g>
    </g>
    <g id="ytick_2">
     <g id="line2d_11">
      <path d="M 32.625625 264.24 
L 590.625625 264.24 
" clip-path="url(#p49508258b5)" style="fill: none; stroke: #ffffff; stroke-width: 0.8; stroke-linecap: round"/>
     </g>
     <g id="text_11">
      <!-- 0.05 -->
      <g style="fill: #262626" transform="translate(7.2 267.389437) scale(0.088 -0.088)">
       <use xlink:href="#ArialMT-30"/>
       <use xlink:href="#ArialMT-2e" x="55.615234"/>
       <use xlink:href="#ArialMT-30" x="83.398438"/>
       <use xlink:href="#ArialMT-35" x="139.013672"/>
      </g>
     </g>
    </g>
    <g id="ytick_3">
     <g id="line2d_12">
      <path d="M 32.625625 203.76 
L 590.625625 203.76 
" clip-path="url(#p49508258b5)" style="fill: none; stroke: #ffffff; stroke-width: 0.8; stroke-linecap: round"/>
     </g>
     <g id="text_12">
      <!-- 0.10 -->
      <g style="fill: #262626" transform="translate(7.2 206.909437) scale(0.088 -0.088)">
       <use xlink:href="#ArialMT-30"/>
       <use xlink:href="#ArialMT-2e" x="55.615234"/>
       <use xlink:href="#ArialMT-31" x="83.398438"/>
       <use xlink:href="#ArialMT-30" x="139.013672"/>
      </g>
     </g>
    </g>
    <g id="ytick_4">
     <g id="line2d_13">
      <path d="M 32.625625 143.28 
L 590.625625 143.28 
" clip-path="url(#p49508258b5)" style="fill: none; stroke: #ffffff; stroke-width: 0.8; stroke-linecap: round"/>
     </g>
     <g id="text_13">
      <!-- 0.15 -->
      <g style="fill: #262626" transform="translate(7.2 146.429437) scale(0.088 -0.088)">
       <use xlink:href="#ArialMT-30"/>
       <use xlink:href="#ArialMT-2e" x="55.615234"/>
       <use xlink:href="#ArialMT-31" x="83.398438"/>
       <use xlink:href="#ArialMT-35" x="139.013672"/>
      </g>
     </g>
    </g>
    <g id="ytick_5">
     <g id="line2d_14">
      <path d="M 32.625625 82.8 
L 590.625625 82.8 
" clip-path="url(#p49508258b5)" style="fill: none; stroke: #ffffff; stroke-width: 0.8; stroke-linecap: round"/>
     </g>
     <g id="text_14">
      <!-- 0.20 -->
      <g style="fill: #262626" transform="translate(7.2 85.949437) scale(0.088 -0.088)">
       <use xlink:href="#ArialMT-30"/>
       <use xlink:href="#ArialMT-2e" x="55.615234"/>
       <use xlink:href="#ArialMT-32" x="83.398438"/>
       <use xlink:href="#ArialMT-30" x="139.013672"/>
      </g>
     </g>
    </g>
    <g id="ytick_6">
     <g id="line2d_15">
      <path d="M 32.625625 22.32 
L 590.625625 22.32 
" clip-path="url(#p49508258b5)" style="fill: none; stroke: #ffffff; stroke-width: 0.8; stroke-linecap: round"/>
     </g>
     <g id="text_15">
      <!-- 0.25 -->
      <g style="fill: #262626" transform="translate(7.2 25.469437) scale(0.088 -0.088)">
       <use xlink:href="#ArialMT-30"/>
       <use xlink:href="#ArialMT-2e" x="55.615234"/>
       <use xlink:href="#ArialMT-32" x="83.398438"/>
       <use xlink:href="#ArialMT-35" x="139.013672"/>
      </g>
     </g>
    </g>
   </g>
   <g id="PolyCollection_1">
    <defs>
     <path id="m19e818fc2e" d="M 197.559046 -38.667875 
L 197.559046 -115.126569 
L 197.81281 -114.935661 
L 198.066573 -114.745229 
L 198.320336 -114.555274 
L 198.574099 -114.365792 
L 198.827862 -114.176784 
L 199.081626 -113.988247 
L 199.335389 -113.800181 
L 199.589152 -113.612585 
L 199.842915 -113.425457 
L 200.096679 -113.238797 
L 200.350442 -113.052602 
L 200.604205 -112.866873 
L 200.857968 -112.681607 
L 201.111732 -112.496804 
L 201.365495 -112.312462 
L 201.619258 -112.128581 
L 201.873021 -111.945158 
L 202.126785 -111.762194 
L 202.380548 -111.579686 
L 202.634311 -111.397634 
L 202.888074 -111.216037 
L 203.141838 -111.034893 
L 203.395601 -110.854201 
L 203.649364 -110.673961 
L 203.903127 -110.494171 
L 204.156891 -110.314829 
L 204.410654 -110.135936 
L 204.664417 -109.957489 
L 204.91818 -109.779487 
L 205.171944 -109.60193 
L 205.425707 -109.424816 
L 205.67947 -109.248145 
L 205.933233 -109.071915 
L 206.186997 -108.896124 
L 206.44076 -108.720773 
L 206.694523 -108.54586 
L 206.948286 -108.371383 
L 207.20205 -108.197342 
L 207.455813 -108.023735 
L 207.709576 -107.850562 
L 207.963339 -107.677821 
L 208.217103 -107.505512 
L 208.470866 -107.333633 
L 208.724629 -107.162183 
L 208.978392 -106.991161 
L 209.232156 -106.820566 
L 209.485919 -106.650397 
L 209.739682 -106.480653 
L 209.993445 -106.311333 
L 210.247209 -106.142435 
L 210.500972 -105.97396 
L 210.754735 -105.805905 
L 211.008498 -105.638269 
L 211.262262 -105.471052 
L 211.516025 -105.304253 
L 211.769788 -105.13787 
L 212.023551 -104.971903 
L 212.277314 -104.80635 
L 212.531078 -104.64121 
L 212.784841 -104.476483 
L 213.038604 -104.312167 
L 213.292367 -104.148261 
L 213.546131 -103.984764 
L 213.799894 -103.821676 
L 214.053657 -103.658995 
L 214.30742 -103.49672 
L 214.561184 -103.33485 
L 214.814947 -103.173385 
L 215.06871 -103.012322 
L 215.322473 -102.851662 
L 215.576237 -102.691403 
L 215.83 -102.531544 
L 216.083763 -102.372085 
L 216.337526 -102.213023 
L 216.59129 -102.054358 
L 216.845053 -101.89609 
L 217.098816 -101.738217 
L 217.352579 -101.580738 
L 217.606343 -101.423652 
L 217.860106 -101.266959 
L 218.113869 -101.110657 
L 218.367632 -100.954745 
L 218.621396 -100.799222 
L 218.875159 -100.644088 
L 219.128922 -100.489341 
L 219.382685 -100.33498 
L 219.636449 -100.181005 
L 219.890212 -100.027414 
L 220.143975 -99.874207 
L 220.397738 -99.721382 
L 220.651502 -99.568939 
L 220.905265 -99.416876 
L 221.159028 -99.265194 
L 221.412791 -99.113889 
L 221.666555 -98.962963 
L 221.920318 -98.812414 
L 222.174081 -98.66224 
L 222.427844 -98.512442 
L 222.681608 -98.363017 
L 222.935371 -98.213966 
L 223.189134 -98.065286 
L 223.442897 -97.916978 
L 223.696661 -97.76904 
L 223.950424 -97.621472 
L 224.204187 -97.474272 
L 224.45795 -97.32744 
L 224.711713 -97.180974 
L 224.965477 -97.034874 
L 225.21924 -96.889139 
L 225.473003 -96.743767 
L 225.726766 -96.598759 
L 225.98053 -96.454113 
L 226.234293 -96.309827 
L 226.488056 -96.165903 
L 226.741819 -96.022337 
L 226.995583 -95.87913 
L 227.249346 -95.73628 
L 227.503109 -95.593788 
L 227.756872 -95.451651 
L 228.010636 -95.309868 
L 228.264399 -95.16844 
L 228.518162 -95.027365 
L 228.771925 -94.886643 
L 229.025689 -94.746271 
L 229.279452 -94.60625 
L 229.533215 -94.466579 
L 229.786978 -94.327257 
L 230.040742 -94.188282 
L 230.294505 -94.049654 
L 230.548268 -93.911373 
L 230.802031 -93.773436 
L 231.055795 -93.635845 
L 231.309558 -93.498596 
L 231.563321 -93.361691 
L 231.817084 -93.225127 
L 232.070848 -93.088904 
L 232.324611 -92.953021 
L 232.578374 -92.817478 
L 232.832137 -92.682273 
L 233.085901 -92.547406 
L 233.339664 -92.412875 
L 233.593427 -92.278681 
L 233.84719 -92.144821 
L 234.100954 -92.011296 
L 234.354717 -91.878104 
L 234.60848 -91.745244 
L 234.862243 -91.612716 
L 235.116007 -91.48052 
L 235.36977 -91.348653 
L 235.623533 -91.217115 
L 235.877296 -91.085906 
L 236.13106 -90.955025 
L 236.384823 -90.82447 
L 236.638586 -90.694242 
L 236.892349 -90.564338 
L 237.146113 -90.434759 
L 237.399876 -90.305504 
L 237.653639 -90.176571 
L 237.907402 -90.04796 
L 238.161165 -89.91967 
L 238.414929 -89.791701 
L 238.668692 -89.664051 
L 238.922455 -89.53672 
L 239.176218 -89.409706 
L 239.429982 -89.28301 
L 239.683745 -89.15663 
L 239.937508 -89.030566 
L 240.191271 -88.904817 
L 240.445035 -88.779381 
L 240.698798 -88.654259 
L 240.952561 -88.529449 
L 241.206324 -88.404951 
L 241.460088 -88.280763 
L 241.713851 -88.156886 
L 241.967614 -88.033318 
L 242.221377 -87.910058 
L 242.475141 -87.787107 
L 242.728904 -87.664462 
L 242.982667 -87.542124 
L 243.23643 -87.420091 
L 243.490194 -87.298362 
L 243.743957 -87.176938 
L 243.99772 -87.055817 
L 244.251483 -86.934998 
L 244.505247 -86.814481 
L 244.75901 -86.694265 
L 245.012773 -86.574349 
L 245.266536 -86.454732 
L 245.5203 -86.335414 
L 245.774063 -86.216394 
L 246.027826 -86.097671 
L 246.281589 -85.979245 
L 246.535353 -85.861114 
L 246.789116 -85.743278 
L 247.042879 -85.625737 
L 247.296642 -85.508489 
L 247.550406 -85.391534 
L 247.804169 -85.27487 
L 248.057932 -85.158498 
L 248.311695 -85.042417 
L 248.565459 -84.926625 
L 248.819222 -84.811123 
L 249.072985 -84.695909 
L 249.326748 -84.580983 
L 249.580512 -84.466343 
L 249.834275 -84.35199 
L 250.088038 -84.237922 
L 250.341801 -84.12414 
L 250.595565 -84.010641 
L 250.849328 -83.897425 
L 251.103091 -83.784493 
L 251.356854 -83.671842 
L 251.610617 -83.559473 
L 251.864381 -83.447384 
L 252.118144 -83.335575 
L 252.371907 -83.224045 
L 252.62567 -83.112794 
L 252.879434 -83.00182 
L 253.133197 -82.891124 
L 253.38696 -82.780704 
L 253.640723 -82.67056 
L 253.894487 -82.56069 
L 254.14825 -82.451095 
L 254.402013 -82.341774 
L 254.655776 -82.232726 
L 254.90954 -82.123949 
L 255.163303 -82.015445 
L 255.417066 -81.907211 
L 255.670829 -81.799248 
L 255.924593 -81.691554 
L 256.178356 -81.584129 
L 256.432119 -81.476973 
L 256.685882 -81.370084 
L 256.939646 -81.263461 
L 257.193409 -81.157106 
L 257.447172 -81.051015 
L 257.700935 -80.94519 
L 257.954699 -80.839628 
L 258.208462 -80.734331 
L 258.462225 -80.629296 
L 258.715988 -80.524523 
L 258.969752 -80.420012 
L 259.223515 -80.315762 
L 259.477278 -80.211773 
L 259.731041 -80.108043 
L 259.984805 -80.004572 
L 260.238568 -79.901359 
L 260.492331 -79.798404 
L 260.746094 -79.695706 
L 260.999858 -79.593265 
L 261.253621 -79.491079 
L 261.507384 -79.389148 
L 261.761147 -79.287472 
L 262.014911 -79.18605 
L 262.268674 -79.084881 
L 262.522437 -78.983965 
L 262.7762 -78.883301 
L 263.029964 -78.782888 
L 263.283727 -78.682725 
L 263.53749 -78.582813 
L 263.791253 -78.48315 
L 264.045017 -78.383737 
L 264.29878 -78.284571 
L 264.552543 -78.185653 
L 264.806306 -78.086982 
L 265.060069 -77.988557 
L 265.313833 -77.890378 
L 265.567596 -77.792444 
L 265.821359 -77.694755 
L 266.075122 -77.59731 
L 266.328886 -77.500108 
L 266.582649 -77.403148 
L 266.836412 -77.306431 
L 267.090175 -77.209955 
L 267.343939 -77.113721 
L 267.597702 -77.017726 
L 267.851465 -76.921971 
L 268.105228 -76.826455 
L 268.358992 -76.731178 
L 268.612755 -76.636139 
L 268.866518 -76.541337 
L 269.120281 -76.446771 
L 269.374045 -76.352442 
L 269.627808 -76.258348 
L 269.881571 -76.164489 
L 270.135334 -76.070865 
L 270.389098 -75.977474 
L 270.642861 -75.884317 
L 270.896624 -75.791392 
L 271.150387 -75.698699 
L 271.404151 -75.606237 
L 271.657914 -75.514007 
L 271.911677 -75.422007 
L 272.16544 -75.330236 
L 272.419204 -75.238695 
L 272.672967 -75.147382 
L 272.92673 -75.056297 
L 273.180493 -74.965439 
L 273.434257 -74.874809 
L 273.68802 -74.784405 
L 273.941783 -74.694226 
L 274.195546 -74.604273 
L 274.44931 -74.514544 
L 274.703073 -74.425039 
L 274.956836 -74.335758 
L 275.210599 -74.2467 
L 275.464363 -74.157864 
L 275.718126 -74.069249 
L 275.971889 -73.980857 
L 276.225652 -73.892684 
L 276.479416 -73.804732 
L 276.733179 -73.717 
L 276.986942 -73.629486 
L 277.240705 -73.542192 
L 277.494469 -73.455115 
L 277.748232 -73.368255 
L 278.001995 -73.281613 
L 278.255758 -73.195186 
L 278.509521 -73.108976 
L 278.763285 -73.022981 
L 279.017048 -72.9372 
L 279.270811 -72.851634 
L 279.524574 -72.766281 
L 279.778338 -72.681142 
L 280.032101 -72.596215 
L 280.285864 -72.5115 
L 280.539627 -72.426996 
L 280.793391 -72.342704 
L 281.047154 -72.258622 
L 281.300917 -72.17475 
L 281.55468 -72.091088 
L 281.808444 -72.007634 
L 282.062207 -71.924389 
L 282.31597 -71.841351 
L 282.569733 -71.758521 
L 282.823497 -71.675898 
L 283.07726 -71.593481 
L 283.331023 -71.51127 
L 283.584786 -71.429264 
L 283.83855 -71.347462 
L 284.092313 -71.265865 
L 284.346076 -71.184472 
L 284.599839 -71.103282 
L 284.853603 -71.022295 
L 285.107366 -70.94151 
L 285.361129 -70.860927 
L 285.614892 -70.780545 
L 285.868656 -70.700363 
L 286.122419 -70.620382 
L 286.376182 -70.540601 
L 286.629945 -70.461018 
L 286.883709 -70.381635 
L 287.137472 -70.302449 
L 287.391235 -70.223462 
L 287.644998 -70.144671 
L 287.898762 -70.066077 
L 288.152525 -69.98768 
L 288.406288 -69.909478 
L 288.660051 -69.831472 
L 288.913815 -69.75366 
L 289.167578 -69.676043 
L 289.421341 -69.598619 
L 289.675104 -69.521389 
L 289.928868 -69.444351 
L 290.182631 -69.367506 
L 290.436394 -69.290853 
L 290.690157 -69.214391 
L 290.943921 -69.13812 
L 291.197684 -69.06204 
L 291.451447 -68.986149 
L 291.70521 -68.910448 
L 291.958973 -68.834936 
L 292.212737 -68.759613 
L 292.4665 -68.684477 
L 292.720263 -68.60953 
L 292.974026 -68.534769 
L 293.22779 -68.460195 
L 293.481553 -68.385807 
L 293.735316 -68.311605 
L 293.989079 -68.237588 
L 294.242843 -68.163757 
L 294.496606 -68.090109 
L 294.750369 -68.016645 
L 295.004132 -67.943365 
L 295.257896 -67.870268 
L 295.511659 -67.797353 
L 295.765422 -67.72462 
L 296.019185 -67.652069 
L 296.272949 -67.579699 
L 296.526712 -67.50751 
L 296.780475 -67.435501 
L 297.034238 -67.363671 
L 297.288002 -67.292021 
L 297.541765 -67.22055 
L 297.795528 -67.149258 
L 298.049291 -67.078143 
L 298.303055 -67.007206 
L 298.556818 -66.936447 
L 298.810581 -66.865863 
L 299.064344 -66.795457 
L 299.318108 -66.725225 
L 299.571871 -66.65517 
L 299.825634 -66.585289 
L 300.079397 -66.515582 
L 300.333161 -66.44605 
L 300.586924 -66.376691 
L 300.840687 -66.307506 
L 301.09445 -66.238493 
L 301.348214 -66.169653 
L 301.601977 -66.100984 
L 301.85574 -66.032487 
L 302.109503 -65.964161 
L 302.363267 -65.896005 
L 302.61703 -65.82802 
L 302.870793 -65.760205 
L 303.124556 -65.692558 
L 303.37832 -65.625081 
L 303.632083 -65.557772 
L 303.885846 -65.490631 
L 304.139609 -65.423658 
L 304.393373 -65.356852 
L 304.647136 -65.290213 
L 304.900899 -65.22374 
L 305.154662 -65.157434 
L 305.408425 -65.091293 
L 305.662189 -65.025316 
L 305.915952 -64.959505 
L 306.169715 -64.893858 
L 306.423478 -64.828375 
L 306.677242 -64.763056 
L 306.931005 -64.697899 
L 307.184768 -64.632905 
L 307.438531 -64.568074 
L 307.692295 -64.503404 
L 307.946058 -64.438896 
L 308.199821 -64.374549 
L 308.453584 -64.310363 
L 308.707348 -64.246336 
L 308.961111 -64.18247 
L 309.214874 -64.118763 
L 309.468637 -64.055216 
L 309.722401 -63.991826 
L 309.976164 -63.928596 
L 310.229927 -63.865523 
L 310.48369 -63.802607 
L 310.737454 -63.739849 
L 310.991217 -63.677247 
L 311.24498 -63.614802 
L 311.498743 -63.552512 
L 311.752507 -63.490379 
L 312.00627 -63.4284 
L 312.260033 -63.366576 
L 312.513796 -63.304906 
L 312.76756 -63.243391 
L 313.021323 -63.182028 
L 313.275086 -63.12082 
L 313.528849 -63.059764 
L 313.782613 -62.99886 
L 314.036376 -62.938109 
L 314.290139 -62.877509 
L 314.543902 -62.81706 
L 314.797666 -62.756763 
L 315.051429 -62.696616 
L 315.305192 -62.636619 
L 315.558955 -62.576772 
L 315.812719 -62.517074 
L 316.066482 -62.457526 
L 316.320245 -62.398126 
L 316.574008 -62.338874 
L 316.827772 -62.279771 
L 317.081535 -62.220815 
L 317.335298 -62.162006 
L 317.589061 -62.103344 
L 317.842825 -62.044829 
L 318.096588 -61.986459 
L 318.350351 -61.928235 
L 318.604114 -61.870157 
L 318.857877 -61.812224 
L 319.111641 -61.754435 
L 319.365404 -61.696791 
L 319.619167 -61.639291 
L 319.87293 -61.581934 
L 320.126694 -61.52472 
L 320.380457 -61.467649 
L 320.63422 -61.410721 
L 320.887983 -61.353935 
L 321.141747 -61.297291 
L 321.39551 -61.240788 
L 321.649273 -61.184426 
L 321.903036 -61.128205 
L 322.1568 -61.072124 
L 322.410563 -61.016184 
L 322.664326 -60.960383 
L 322.918089 -60.904721 
L 323.171853 -60.849198 
L 323.425616 -60.793814 
L 323.679379 -60.738569 
L 323.933142 -60.683461 
L 324.186906 -60.62849 
L 324.440669 -60.573658 
L 324.694432 -60.518961 
L 324.948195 -60.464402 
L 325.201959 -60.409979 
L 325.455722 -60.355691 
L 325.709485 -60.30154 
L 325.963248 -60.247523 
L 326.217012 -60.193641 
L 326.470775 -60.139894 
L 326.724538 -60.086281 
L 326.978301 -60.032802 
L 327.232065 -59.979456 
L 327.485828 -59.926244 
L 327.739591 -59.873164 
L 327.993354 -59.820217 
L 328.247118 -59.767402 
L 328.500881 -59.71472 
L 328.754644 -59.662168 
L 329.008407 -59.609748 
L 329.262171 -59.557459 
L 329.515934 -59.5053 
L 329.769697 -59.453271 
L 330.02346 -59.401373 
L 330.277224 -59.349604 
L 330.530987 -59.297964 
L 330.78475 -59.246453 
L 331.038513 -59.195071 
L 331.292277 -59.143817 
L 331.54604 -59.092691 
L 331.799803 -59.041693 
L 332.053566 -58.990822 
L 332.307329 -58.940078 
L 332.561093 -58.889461 
L 332.814856 -58.83897 
L 333.068619 -58.788605 
L 333.322382 -58.738366 
L 333.576146 -58.688253 
L 333.829909 -58.638264 
L 334.083672 -58.588401 
L 334.337435 -58.538662 
L 334.591199 -58.489047 
L 334.844962 -58.439556 
L 335.098725 -58.390188 
L 335.352488 -58.340944 
L 335.606252 -58.291823 
L 335.860015 -58.242824 
L 336.113778 -58.193948 
L 336.367541 -58.145194 
L 336.621305 -58.096561 
L 336.875068 -58.04805 
L 337.128831 -57.99966 
L 337.382594 -57.951391 
L 337.636358 -57.903243 
L 337.890121 -57.855214 
L 338.143884 -57.807306 
L 338.397647 -57.759517 
L 338.651411 -57.711847 
L 338.905174 -57.664297 
L 339.158937 -57.616865 
L 339.4127 -57.569552 
L 339.666464 -57.522357 
L 339.920227 -57.475279 
L 340.17399 -57.42832 
L 340.427753 -57.381477 
L 340.681517 -57.334752 
L 340.93528 -57.288143 
L 341.189043 -57.24165 
L 341.442806 -57.195274 
L 341.69657 -57.149013 
L 341.950333 -57.102868 
L 342.204096 -57.056838 
L 342.457859 -57.010923 
L 342.711623 -56.965123 
L 342.965386 -56.919437 
L 343.219149 -56.873865 
L 343.472912 -56.828407 
L 343.726676 -56.783062 
L 343.980439 -56.737831 
L 344.234202 -56.692712 
L 344.487965 -56.647706 
L 344.741729 -56.602813 
L 344.995492 -56.558031 
L 345.249255 -56.513362 
L 345.503018 -56.468804 
L 345.756781 -56.424357 
L 346.010545 -56.380021 
L 346.264308 -56.335796 
L 346.518071 -56.291682 
L 346.771834 -56.247677 
L 347.025598 -56.203783 
L 347.279361 -56.159998 
L 347.533124 -56.116322 
L 347.786887 -56.072755 
L 348.040651 -56.029297 
L 348.294414 -55.985948 
L 348.548177 -55.942707 
L 348.80194 -55.899574 
L 349.055704 -55.856548 
L 349.309467 -55.81363 
L 349.56323 -55.77082 
L 349.816993 -55.728116 
L 350.070757 -55.685518 
L 350.32452 -55.643027 
L 350.578283 -55.600642 
L 350.832046 -55.558363 
L 351.08581 -55.51619 
L 351.339573 -55.474122 
L 351.593336 -55.432159 
L 351.847099 -55.3903 
L 352.100863 -55.348546 
L 352.354626 -55.306897 
L 352.608389 -55.265351 
L 352.862152 -55.223909 
L 353.115916 -55.182571 
L 353.369679 -55.141336 
L 353.623442 -55.100203 
L 353.877205 -55.059174 
L 354.130969 -55.018247 
L 354.384732 -54.977422 
L 354.638495 -54.936699 
L 354.892258 -54.896078 
L 355.146022 -54.855558 
L 355.399785 -54.815139 
L 355.653548 -54.774822 
L 355.907311 -54.734605 
L 356.161075 -54.694488 
L 356.414838 -54.654471 
L 356.668601 -54.614555 
L 356.922364 -54.574738 
L 357.176128 -54.53502 
L 357.429891 -54.495402 
L 357.683654 -54.455883 
L 357.937417 -54.416462 
L 358.191181 -54.37714 
L 358.444944 -54.337916 
L 358.698707 -54.298789 
L 358.95247 -54.259761 
L 359.206233 -54.22083 
L 359.459997 -54.181996 
L 359.71376 -54.143259 
L 359.967523 -54.104619 
L 360.221286 -54.066075 
L 360.47505 -54.027628 
L 360.728813 -53.989277 
L 360.982576 -53.951021 
L 361.236339 -53.912861 
L 361.490103 -53.874796 
L 361.743866 -53.836826 
L 361.997629 -53.798951 
L 362.251392 -53.761171 
L 362.505156 -53.723484 
L 362.758919 -53.685892 
L 363.012682 -53.648394 
L 363.266445 -53.61099 
L 363.520209 -53.573679 
L 363.773972 -53.536461 
L 364.027735 -53.499336 
L 364.281498 -53.462303 
L 364.535262 -53.425363 
L 364.789025 -53.388516 
L 365.042788 -53.35176 
L 365.296551 -53.315096 
L 365.550315 -53.278524 
L 365.804078 -53.242043 
L 366.057841 -53.205653 
L 366.311604 -53.169354 
L 366.565368 -53.133146 
L 366.819131 -53.097028 
L 367.072894 -53.061 
L 367.326657 -53.025062 
L 367.580421 -52.989214 
L 367.834184 -52.953455 
L 368.087947 -52.917786 
L 368.34171 -52.882205 
L 368.595474 -52.846714 
L 368.849237 -52.811311 
L 369.103 -52.775997 
L 369.356763 -52.740771 
L 369.610527 -52.705632 
L 369.86429 -52.670582 
L 370.118053 -52.635619 
L 370.371816 -52.600743 
L 370.62558 -52.565954 
L 370.879343 -52.531252 
L 371.133106 -52.496637 
L 371.386869 -52.462109 
L 371.640633 -52.427666 
L 371.894396 -52.393309 
L 372.148159 -52.359039 
L 372.401922 -52.324854 
L 372.655685 -52.290754 
L 372.909449 -52.256739 
L 373.163212 -52.222809 
L 373.416975 -52.188964 
L 373.670738 -52.155204 
L 373.924502 -52.121528 
L 374.178265 -52.087936 
L 374.432028 -52.054427 
L 374.685791 -52.021003 
L 374.939555 -51.987662 
L 375.193318 -51.954404 
L 375.447081 -51.921229 
L 375.700844 -51.888137 
L 375.954608 -51.855128 
L 376.208371 -51.822201 
L 376.462134 -51.789356 
L 376.715897 -51.756593 
L 376.969661 -51.723912 
L 377.223424 -51.691313 
L 377.477187 -51.658795 
L 377.73095 -51.626358 
L 377.984714 -51.594002 
L 378.238477 -51.561727 
L 378.49224 -51.529533 
L 378.746003 -51.497419 
L 378.999767 -51.465385 
L 379.25353 -51.433431 
L 379.507293 -51.401557 
L 379.761056 -51.369763 
L 380.01482 -51.338048 
L 380.268583 -51.306412 
L 380.522346 -51.274855 
L 380.776109 -51.243377 
L 381.029873 -51.211978 
L 381.283636 -51.180657 
L 381.537399 -51.149414 
L 381.791162 -51.118249 
L 382.044926 -51.087162 
L 382.298689 -51.056152 
L 382.552452 -51.02522 
L 382.806215 -50.994365 
L 383.059979 -50.963588 
L 383.313742 -50.932887 
L 383.567505 -50.902263 
L 383.821268 -50.871715 
L 384.075032 -50.841243 
L 384.328795 -50.810848 
L 384.582558 -50.780528 
L 384.836321 -50.750285 
L 385.090085 -50.720116 
L 385.343848 -50.690023 
L 385.597611 -50.660006 
L 385.851374 -50.630063 
L 386.105137 -50.600195 
L 386.358901 -50.570401 
L 386.612664 -50.540682 
L 386.866427 -50.511037 
L 387.12019 -50.481466 
L 387.373954 -50.451969 
L 387.627717 -50.422545 
L 387.88148 -50.393195 
L 388.135243 -50.363919 
L 388.389007 -50.334715 
L 388.64277 -50.305584 
L 388.896533 -50.276527 
L 389.150296 -50.247541 
L 389.40406 -50.218628 
L 389.657823 -50.189787 
L 389.911586 -50.161019 
L 390.165349 -50.132322 
L 390.419113 -50.103696 
L 390.672876 -50.075142 
L 390.926639 -50.04666 
L 391.180402 -50.018248 
L 391.434166 -49.989908 
L 391.687929 -49.961638 
L 391.941692 -49.933439 
L 392.195455 -49.90531 
L 392.449219 -49.877252 
L 392.702982 -49.849263 
L 392.956745 -49.821345 
L 393.210508 -49.793496 
L 393.464272 -49.765717 
L 393.718035 -49.738007 
L 393.971798 -49.710366 
L 394.225561 -49.682794 
L 394.479325 -49.655291 
L 394.733088 -49.627857 
L 394.986851 -49.600491 
L 395.240614 -49.573194 
L 395.494378 -49.545965 
L 395.748141 -49.518803 
L 396.001904 -49.49171 
L 396.255667 -49.464684 
L 396.509431 -49.437726 
L 396.763194 -49.410835 
L 397.016957 -49.384011 
L 397.27072 -49.357254 
L 397.524484 -49.330564 
L 397.778247 -49.303941 
L 398.03201 -49.277384 
L 398.285773 -49.250893 
L 398.539537 -49.224469 
L 398.7933 -49.19811 
L 399.047063 -49.171817 
L 399.300826 -49.14559 
L 399.554589 -49.119429 
L 399.808353 -49.093332 
L 400.062116 -49.067301 
L 400.315879 -49.041335 
L 400.569642 -49.015434 
L 400.823406 -48.989597 
L 401.077169 -48.963825 
L 401.330932 -48.938118 
L 401.584695 -48.912474 
L 401.838459 -48.886895 
L 402.092222 -48.861379 
L 402.345985 -48.835927 
L 402.599748 -48.810539 
L 402.853512 -48.785214 
L 403.107275 -48.759952 
L 403.361038 -48.734753 
L 403.614801 -48.709617 
L 403.868565 -48.684544 
L 404.122328 -48.659534 
L 404.376091 -48.634586 
L 404.629854 -48.6097 
L 404.883618 -48.584877 
L 405.137381 -48.560115 
L 405.391144 -48.535416 
L 405.644907 -48.510778 
L 405.898671 -48.486201 
L 406.152434 -48.461686 
L 406.406197 -48.437232 
L 406.65996 -48.412839 
L 406.913724 -48.388507 
L 407.167487 -48.364236 
L 407.42125 -48.340025 
L 407.675013 -48.315875 
L 407.928777 -48.291785 
L 408.18254 -48.267755 
L 408.436303 -48.243786 
L 408.690066 -48.219876 
L 408.94383 -48.196026 
L 409.197593 -48.172235 
L 409.451356 -48.148504 
L 409.705119 -48.124832 
L 409.958883 -48.101219 
L 410.212646 -48.077665 
L 410.466409 -48.05417 
L 410.720172 -48.030734 
L 410.973936 -48.007356 
L 411.227699 -47.984036 
L 411.481462 -47.960775 
L 411.735225 -47.937572 
L 411.988988 -47.914426 
L 412.242752 -47.891339 
L 412.496515 -47.868309 
L 412.750278 -47.845337 
L 413.004041 -47.822422 
L 413.257805 -47.799564 
L 413.511568 -47.776763 
L 413.765331 -47.754019 
L 414.019094 -47.731332 
L 414.272858 -47.708702 
L 414.526621 -47.686128 
L 414.780384 -47.663611 
L 415.034147 -47.641149 
L 415.287911 -47.618744 
L 415.541674 -47.596395 
L 415.795437 -47.574102 
L 416.0492 -47.551864 
L 416.302964 -47.529682 
L 416.556727 -47.507555 
L 416.81049 -47.485483 
L 417.064253 -47.463467 
L 417.318017 -47.441505 
L 417.57178 -47.419598 
L 417.825543 -47.397746 
L 418.079306 -47.375949 
L 418.33307 -47.354206 
L 418.586833 -47.332517 
L 418.840596 -47.310883 
L 419.094359 -47.289302 
L 419.348123 -47.267776 
L 419.601886 -47.246303 
L 419.855649 -47.224883 
L 420.109412 -47.203518 
L 420.363176 -47.182205 
L 420.616939 -47.160946 
L 420.870702 -47.13974 
L 421.124465 -47.118587 
L 421.378229 -47.097486 
L 421.631992 -47.076438 
L 421.885755 -47.055443 
L 422.139518 -47.034501 
L 422.393282 -47.01361 
L 422.647045 -46.992772 
L 422.900808 -46.971986 
L 423.154571 -46.951251 
L 423.408335 -46.930569 
L 423.662098 -46.909938 
L 423.915861 -46.889358 
L 424.169624 -46.86883 
L 424.423388 -46.848353 
L 424.677151 -46.827928 
L 424.930914 -46.807553 
L 425.184677 -46.787229 
L 425.43844 -46.766956 
L 425.692204 -46.746734 
L 425.945967 -46.726562 
L 426.19973 -46.70644 
L 426.453493 -46.686369 
L 426.707257 -46.666348 
L 426.96102 -46.646377 
L 427.214783 -46.626455 
L 427.468546 -46.606584 
L 427.72231 -46.586762 
L 427.976073 -46.566989 
L 428.229836 -46.547266 
L 428.483599 -46.527592 
L 428.737363 -46.507968 
L 428.991126 -46.488392 
L 429.244889 -46.468865 
L 429.498652 -46.449387 
L 429.752416 -46.429957 
L 430.006179 -46.410576 
L 430.259942 -46.391244 
L 430.513705 -46.37196 
L 430.767469 -46.352723 
L 431.021232 -46.333535 
L 431.274995 -46.314395 
L 431.528758 -46.295303 
L 431.782522 -46.276258 
L 432.036285 -46.257261 
L 432.290048 -46.238311 
L 432.543811 -46.219408 
L 432.797575 -46.200553 
L 433.051338 -46.181745 
L 433.305101 -46.162984 
L 433.558864 -46.144269 
L 433.812628 -46.125602 
L 434.066391 -46.106981 
L 434.320154 -46.088406 
L 434.573917 -46.069878 
L 434.827681 -46.051396 
L 435.081444 -46.03296 
L 435.335207 -46.014571 
L 435.58897 -45.996227 
L 435.842734 -45.977929 
L 436.096497 -45.959677 
L 436.35026 -45.94147 
L 436.604023 -45.923309 
L 436.857787 -45.905193 
L 437.11155 -45.887122 
L 437.365313 -45.869096 
L 437.619076 -45.851116 
L 437.87284 -45.83318 
L 438.126603 -45.815289 
L 438.380366 -45.797443 
L 438.634129 -45.779641 
L 438.887892 -45.761884 
L 439.141656 -45.744171 
L 439.395419 -45.726503 
L 439.649182 -45.708878 
L 439.902945 -45.691298 
L 440.156709 -45.673761 
L 440.410472 -45.656268 
L 440.664235 -45.638819 
L 440.917998 -45.621413 
L 441.171762 -45.604051 
L 441.425525 -45.586732 
L 441.679288 -45.569457 
L 441.933051 -45.552224 
L 442.186815 -45.535035 
L 442.440578 -45.517889 
L 442.694341 -45.500785 
L 442.948104 -45.483724 
L 443.201868 -45.466706 
L 443.455631 -45.44973 
L 443.709394 -45.432796 
L 443.963157 -45.415905 
L 444.216921 -45.399056 
L 444.470684 -45.382249 
L 444.724447 -45.365484 
L 444.97821 -45.348761 
L 445.231974 -45.33208 
L 445.485737 -45.31544 
L 445.7395 -45.298842 
L 445.993263 -45.282285 
L 446.247027 -45.26577 
L 446.50079 -45.249296 
L 446.754553 -45.232863 
L 447.008316 -45.216471 
L 447.26208 -45.20012 
L 447.515843 -45.18381 
L 447.769606 -45.16754 
L 448.023369 -45.151311 
L 448.277133 -45.135123 
L 448.530896 -45.118975 
L 448.784659 -45.102867 
L 449.038422 -45.0868 
L 449.292186 -45.070773 
L 449.545949 -45.054785 
L 449.799712 -45.038838 
L 450.053475 -45.022931 
L 450.307239 -45.007063 
L 450.561002 -44.991235 
L 450.814765 -44.975446 
L 451.068528 -44.959697 
L 451.322292 -44.943987 
L 451.576055 -44.928316 
L 451.829818 -44.912685 
L 452.083581 -44.897092 
L 452.337344 -44.881538 
L 452.591108 -44.866024 
L 452.844871 -44.850548 
L 453.098634 -44.83511 
L 453.352397 -44.819711 
L 453.606161 -44.804351 
L 453.859924 -44.789029 
L 454.113687 -44.773745 
L 454.36745 -44.7585 
L 454.621214 -44.743292 
L 454.874977 -44.728123 
L 455.12874 -44.712991 
L 455.382503 -44.697897 
L 455.636267 -44.682841 
L 455.89003 -44.667822 
L 456.143793 -44.652841 
L 456.397556 -44.637897 
L 456.65132 -44.622991 
L 456.905083 -44.608122 
L 457.158846 -44.59329 
L 457.412609 -44.578494 
L 457.666373 -44.563736 
L 457.920136 -44.549015 
L 458.173899 -44.534331 
L 458.427662 -44.519683 
L 458.681426 -44.505072 
L 458.935189 -44.490497 
L 459.188952 -44.475958 
L 459.442715 -44.461456 
L 459.696479 -44.446991 
L 459.950242 -44.432561 
L 460.204005 -44.418167 
L 460.457768 -44.403809 
L 460.711532 -44.389487 
L 460.965295 -44.375201 
L 461.219058 -44.360951 
L 461.472821 -44.346736 
L 461.726585 -44.332556 
L 461.980348 -44.318412 
L 462.234111 -44.304304 
L 462.487874 -44.29023 
L 462.741638 -44.276192 
L 462.995401 -44.262189 
L 463.249164 -44.24822 
L 463.502927 -44.234287 
L 463.756691 -44.220388 
L 464.010454 -44.206524 
L 464.264217 -44.192695 
L 464.51798 -44.1789 
L 464.771744 -44.16514 
L 465.025507 -44.151414 
L 465.27927 -44.137722 
L 465.533033 -44.124064 
L 465.786796 -44.110441 
L 466.04056 -44.096852 
L 466.294323 -44.083296 
L 466.548086 -44.069774 
L 466.801849 -44.056287 
L 467.055613 -44.042832 
L 467.309376 -44.029412 
L 467.563139 -44.016025 
L 467.816902 -44.002671 
L 468.070666 -43.989351 
L 468.324429 -43.976064 
L 468.578192 -43.96281 
L 468.831955 -43.949589 
L 469.085719 -43.936401 
L 469.339482 -43.923246 
L 469.593245 -43.910124 
L 469.847008 -43.897035 
L 470.100772 -43.883978 
L 470.354535 -43.870954 
L 470.608298 -43.857963 
L 470.862061 -43.845004 
L 471.115825 -43.832077 
L 471.369588 -43.819183 
L 471.623351 -43.806321 
L 471.877114 -43.793491 
L 472.130878 -43.780693 
L 472.384641 -43.767927 
L 472.638404 -43.755192 
L 472.892167 -43.74249 
L 473.145931 -43.729819 
L 473.399694 -43.71718 
L 473.653457 -43.704573 
L 473.90722 -43.691997 
L 474.160984 -43.679452 
L 474.414747 -43.666939 
L 474.66851 -43.654457 
L 474.922273 -43.642006 
L 475.176037 -43.629586 
L 475.4298 -43.617197 
L 475.683563 -43.604839 
L 475.937326 -43.592512 
L 476.19109 -43.580216 
L 476.444853 -43.567951 
L 476.698616 -43.555716 
L 476.952379 -43.543511 
L 477.206143 -43.531338 
L 477.459906 -43.519194 
L 477.713669 -43.507081 
L 477.967432 -43.494998 
L 478.221196 -43.482945 
L 478.474959 -43.470923 
L 478.728722 -43.45893 
L 478.982485 -43.446967 
L 479.236248 -43.435035 
L 479.490012 -43.423132 
L 479.743775 -43.411258 
L 479.997538 -43.399415 
L 480.251301 -43.387601 
L 480.505065 -43.375816 
L 480.758828 -43.364061 
L 481.012591 -43.352335 
L 481.266354 -43.340638 
L 481.520118 -43.328971 
L 481.773881 -43.317333 
L 482.027644 -43.305724 
L 482.281407 -43.294144 
L 482.535171 -43.282592 
L 482.788934 -43.27107 
L 483.042697 -43.259576 
L 483.29646 -43.248112 
L 483.550224 -43.236675 
L 483.803987 -43.225268 
L 484.05775 -43.213888 
L 484.311513 -43.202537 
L 484.565277 -43.191215 
L 484.81904 -43.179921 
L 485.072803 -43.168655 
L 485.326566 -43.157417 
L 485.58033 -43.146207 
L 485.834093 -43.135025 
L 486.087856 -43.123871 
L 486.341619 -43.112745 
L 486.595383 -43.101647 
L 486.849146 -43.090576 
L 487.102909 -43.079533 
L 487.356672 -43.068518 
L 487.610436 -43.05753 
L 487.864199 -43.04657 
L 488.117962 -43.035637 
L 488.371725 -43.024731 
L 488.625489 -43.013852 
L 488.879252 -43.003001 
L 489.133015 -42.992177 
L 489.386778 -42.981379 
L 489.640542 -42.970609 
L 489.894305 -42.959866 
L 490.148068 -42.949149 
L 490.401831 -42.938459 
L 490.655595 -42.927796 
L 490.909358 -42.91716 
L 491.163121 -42.90655 
L 491.416884 -42.895966 
L 491.670648 -42.885409 
L 491.924411 -42.874879 
L 492.178174 -42.864374 
L 492.431937 -42.853896 
L 492.6857 -42.843444 
L 492.939464 -42.833018 
L 493.193227 -42.822618 
L 493.44699 -42.812244 
L 493.700753 -42.801896 
L 493.954517 -42.791574 
L 494.20828 -42.781278 
L 494.462043 -42.771007 
L 494.715806 -42.760762 
L 494.96957 -42.750543 
L 495.223333 -42.740349 
L 495.477096 -42.73018 
L 495.730859 -42.720037 
L 495.984623 -42.70992 
L 496.238386 -42.699827 
L 496.492149 -42.68976 
L 496.745912 -42.679718 
L 496.999676 -42.669701 
L 497.253439 -42.659708 
L 497.507202 -42.649741 
L 497.760965 -42.639799 
L 498.014729 -42.629882 
L 498.268492 -42.619989 
L 498.522255 -42.610121 
L 498.776018 -42.600278 
L 499.029782 -42.590459 
L 499.283545 -42.580665 
L 499.537308 -42.570895 
L 499.791071 -42.56115 
L 500.044835 -42.551429 
L 500.298598 -42.541732 
L 500.552361 -42.532059 
L 500.806124 -42.522411 
L 501.059888 -42.512787 
L 501.313651 -42.503186 
L 501.567414 -42.49361 
L 501.821177 -42.484058 
L 502.074941 -42.474529 
L 502.328704 -42.465024 
L 502.582467 -42.455543 
L 502.83623 -42.446086 
L 503.089994 -42.436652 
L 503.343757 -42.427242 
L 503.59752 -42.417856 
L 503.851283 -42.408492 
L 504.105047 -42.399152 
L 504.35881 -42.389836 
L 504.612573 -42.380543 
L 504.866336 -42.371273 
L 505.1201 -42.362026 
L 505.373863 -42.352802 
L 505.627626 -42.343601 
L 505.881389 -42.334423 
L 506.135152 -42.325268 
L 506.388916 -42.316136 
L 506.642679 -42.307027 
L 506.896442 -42.29794 
L 507.150205 -42.288876 
L 507.403969 -42.279835 
L 507.657732 -42.270817 
L 507.911495 -42.261821 
L 508.165258 -42.252847 
L 508.419022 -42.243896 
L 508.672785 -42.234967 
L 508.926548 -42.22606 
L 509.180311 -42.217176 
L 509.434075 -42.208314 
L 509.687838 -42.199474 
L 509.941601 -42.190656 
L 510.195364 -42.18186 
L 510.449128 -42.173086 
L 510.702891 -42.164334 
L 510.956654 -42.155603 
L 511.210417 -42.146895 
L 511.464181 -42.138208 
L 511.717944 -42.129543 
L 511.971707 -42.1209 
L 512.22547 -42.112278 
L 512.479234 -42.103678 
L 512.732997 -42.095099 
L 512.98676 -42.086542 
L 513.240523 -42.078006 
L 513.494287 -42.069491 
L 513.74805 -42.060998 
L 514.001813 -42.052525 
L 514.255576 -42.044074 
L 514.50934 -42.035644 
L 514.763103 -42.027236 
L 515.016866 -42.018848 
L 515.270629 -42.010481 
L 515.524393 -42.002135 
L 515.778156 -41.993809 
L 516.031919 -41.985505 
L 516.285682 -41.977221 
L 516.539446 -41.968958 
L 516.793209 -41.960716 
L 517.046972 -41.952494 
L 517.300735 -41.944293 
L 517.554499 -41.936112 
L 517.808262 -41.927951 
L 518.062025 -41.919811 
L 518.315788 -41.911692 
L 518.569552 -41.903592 
L 518.823315 -41.895513 
L 519.077078 -41.887454 
L 519.330841 -41.879415 
L 519.584604 -41.871396 
L 519.838368 -41.863398 
L 520.092131 -41.855419 
L 520.345894 -41.84746 
L 520.599657 -41.839521 
L 520.853421 -41.831602 
L 521.107184 -41.823702 
L 521.360947 -41.815822 
L 521.61471 -41.807962 
L 521.868474 -41.800122 
L 522.122237 -41.792301 
L 522.376 -41.7845 
L 522.629763 -41.776718 
L 522.883527 -41.768956 
L 523.13729 -41.761213 
L 523.391053 -41.753489 
L 523.644816 -41.745785 
L 523.89858 -41.738099 
L 524.152343 -41.730433 
L 524.406106 -41.722787 
L 524.659869 -41.715159 
L 524.913633 -41.70755 
L 525.167396 -41.69996 
L 525.421159 -41.69239 
L 525.674922 -41.684838 
L 525.928686 -41.677305 
L 526.182449 -41.669791 
L 526.436212 -41.662295 
L 526.689975 -41.654819 
L 526.943739 -41.647361 
L 527.197502 -41.639921 
L 527.451265 -41.6325 
L 527.705028 -41.625098 
L 527.958792 -41.617714 
L 528.212555 -41.610349 
L 528.466318 -41.603002 
L 528.720081 -41.595673 
L 528.973845 -41.588363 
L 529.227608 -41.581071 
L 529.481371 -41.573797 
L 529.735134 -41.566541 
L 529.988898 -41.559303 
L 530.242661 -41.552084 
L 530.496424 -41.544882 
L 530.750187 -41.537699 
L 531.003951 -41.530533 
L 531.257714 -41.523386 
L 531.511477 -41.516256 
L 531.76524 -41.509144 
L 532.019004 -41.502049 
L 532.272767 -41.494973 
L 532.52653 -41.487914 
L 532.780293 -41.480873 
L 533.034056 -41.473849 
L 533.28782 -41.466843 
L 533.541583 -41.459854 
L 533.795346 -41.452883 
L 534.049109 -41.445929 
L 534.302873 -41.438992 
L 534.556636 -41.432073 
L 534.810399 -41.425171 
L 535.064162 -41.418287 
L 535.317926 -41.411419 
L 535.571689 -41.404569 
L 535.825452 -41.397736 
L 536.079215 -41.39092 
L 536.332979 -41.384121 
L 536.586742 -41.377338 
L 536.840505 -41.370573 
L 537.094268 -41.363825 
L 537.348032 -41.357094 
L 537.601795 -41.350379 
L 537.855558 -41.343681 
L 538.109321 -41.337 
L 538.363085 -41.330335 
L 538.616848 -41.323688 
L 538.870611 -41.317056 
L 539.124374 -41.310442 
L 539.378138 -41.303843 
L 539.631901 -41.297262 
L 539.885664 -41.290696 
L 540.139427 -41.284148 
L 540.393191 -41.277615 
L 540.646954 -41.271099 
L 540.900717 -41.264599 
L 541.15448 -41.258115 
L 541.408244 -41.251648 
L 541.662007 -41.245196 
L 541.91577 -41.238761 
L 542.169533 -41.232342 
L 542.423297 -41.225939 
L 542.67706 -41.219552 
L 542.930823 -41.21318 
L 543.184586 -41.206825 
L 543.43835 -41.200486 
L 543.692113 -41.194162 
L 543.945876 -41.187854 
L 544.199639 -41.181562 
L 544.453403 -41.175286 
L 544.707166 -41.169025 
L 544.960929 -41.16278 
L 545.214692 -41.156551 
L 545.468456 -41.150337 
L 545.722219 -41.144138 
L 545.975982 -41.137955 
L 546.229745 -41.131788 
L 546.483508 -41.125636 
L 546.737272 -41.119499 
L 546.991035 -41.113378 
L 547.244798 -41.107271 
L 547.498561 -41.101181 
L 547.752325 -41.095105 
L 548.006088 -41.089044 
L 548.259851 -41.082999 
L 548.513614 -41.076969 
L 548.767378 -41.070954 
L 549.021141 -41.064953 
L 549.274904 -41.058968 
L 549.528667 -41.052998 
L 549.782431 -41.047043 
L 550.036194 -41.041102 
L 550.289957 -41.035176 
L 550.54372 -41.029266 
L 550.797484 -41.023369 
L 551.051247 -41.017488 
L 551.30501 -41.011621 
L 551.558773 -41.005769 
L 551.812537 -40.999932 
L 552.0663 -40.994109 
L 552.320063 -40.988301 
L 552.573826 -40.982507 
L 552.82759 -40.976727 
L 553.081353 -40.970963 
L 553.335116 -40.965212 
L 553.588879 -40.959476 
L 553.842643 -40.953754 
L 554.096406 -40.948046 
L 554.350169 -40.942353 
L 554.603932 -40.936674 
L 554.857696 -40.931009 
L 555.111459 -40.925358 
L 555.365222 -40.919722 
L 555.618985 -40.914099 
L 555.872749 -40.908491 
L 556.126512 -40.902896 
L 556.380275 -40.897315 
L 556.634038 -40.891749 
L 556.887802 -40.886196 
L 557.141565 -40.880657 
L 557.395328 -40.875132 
L 557.649091 -40.869621 
L 557.902855 -40.864123 
L 558.156618 -40.85864 
L 558.410381 -40.85317 
L 558.664144 -40.847713 
L 558.917908 -40.84227 
L 559.171671 -40.836841 
L 559.425434 -40.831426 
L 559.679197 -40.826023 
L 559.93296 -40.820635 
L 560.186724 -40.81526 
L 560.440487 -40.809898 
L 560.69425 -40.804549 
L 560.948013 -40.799214 
L 561.201777 -40.793893 
L 561.45554 -40.788584 
L 561.709303 -40.783289 
L 561.963066 -40.778007 
L 562.21683 -40.772739 
L 562.470593 -40.767483 
L 562.724356 -40.762241 
L 562.978119 -40.757011 
L 563.231883 -40.751795 
L 563.485646 -40.746592 
L 563.739409 -40.741401 
L 563.993172 -40.736224 
L 564.246936 -40.731059 
L 564.500699 -40.725908 
L 564.754462 -40.720769 
L 565.008225 -40.715643 
L 565.261989 -40.71053 
L 565.261989 -38.667875 
L 565.261989 -38.667875 
L 565.008225 -38.667875 
L 564.754462 -38.667875 
L 564.500699 -38.667875 
L 564.246936 -38.667875 
L 563.993172 -38.667875 
L 563.739409 -38.667875 
L 563.485646 -38.667875 
L 563.231883 -38.667875 
L 562.978119 -38.667875 
L 562.724356 -38.667875 
L 562.470593 -38.667875 
L 562.21683 -38.667875 
L 561.963066 -38.667875 
L 561.709303 -38.667875 
L 561.45554 -38.667875 
L 561.201777 -38.667875 
L 560.948013 -38.667875 
L 560.69425 -38.667875 
L 560.440487 -38.667875 
L 560.186724 -38.667875 
L 559.93296 -38.667875 
L 559.679197 -38.667875 
L 559.425434 -38.667875 
L 559.171671 -38.667875 
L 558.917908 -38.667875 
L 558.664144 -38.667875 
L 558.410381 -38.667875 
L 558.156618 -38.667875 
L 557.902855 -38.667875 
L 557.649091 -38.667875 
L 557.395328 -38.667875 
L 557.141565 -38.667875 
L 556.887802 -38.667875 
L 556.634038 -38.667875 
L 556.380275 -38.667875 
L 556.126512 -38.667875 
L 555.872749 -38.667875 
L 555.618985 -38.667875 
L 555.365222 -38.667875 
L 555.111459 -38.667875 
L 554.857696 -38.667875 
L 554.603932 -38.667875 
L 554.350169 -38.667875 
L 554.096406 -38.667875 
L 553.842643 -38.667875 
L 553.588879 -38.667875 
L 553.335116 -38.667875 
L 553.081353 -38.667875 
L 552.82759 -38.667875 
L 552.573826 -38.667875 
L 552.320063 -38.667875 
L 552.0663 -38.667875 
L 551.812537 -38.667875 
L 551.558773 -38.667875 
L 551.30501 -38.667875 
L 551.051247 -38.667875 
L 550.797484 -38.667875 
L 550.54372 -38.667875 
L 550.289957 -38.667875 
L 550.036194 -38.667875 
L 549.782431 -38.667875 
L 549.528667 -38.667875 
L 549.274904 -38.667875 
L 549.021141 -38.667875 
L 548.767378 -38.667875 
L 548.513614 -38.667875 
L 548.259851 -38.667875 
L 548.006088 -38.667875 
L 547.752325 -38.667875 
L 547.498561 -38.667875 
L 547.244798 -38.667875 
L 546.991035 -38.667875 
L 546.737272 -38.667875 
L 546.483508 -38.667875 
L 546.229745 -38.667875 
L 545.975982 -38.667875 
L 545.722219 -38.667875 
L 545.468456 -38.667875 
L 545.214692 -38.667875 
L 544.960929 -38.667875 
L 544.707166 -38.667875 
L 544.453403 -38.667875 
L 544.199639 -38.667875 
L 543.945876 -38.667875 
L 543.692113 -38.667875 
L 543.43835 -38.667875 
L 543.184586 -38.667875 
L 542.930823 -38.667875 
L 542.67706 -38.667875 
L 542.423297 -38.667875 
L 542.169533 -38.667875 
L 541.91577 -38.667875 
L 541.662007 -38.667875 
L 541.408244 -38.667875 
L 541.15448 -38.667875 
L 540.900717 -38.667875 
L 540.646954 -38.667875 
L 540.393191 -38.667875 
L 540.139427 -38.667875 
L 539.885664 -38.667875 
L 539.631901 -38.667875 
L 539.378138 -38.667875 
L 539.124374 -38.667875 
L 538.870611 -38.667875 
L 538.616848 -38.667875 
L 538.363085 -38.667875 
L 538.109321 -38.667875 
L 537.855558 -38.667875 
L 537.601795 -38.667875 
L 537.348032 -38.667875 
L 537.094268 -38.667875 
L 536.840505 -38.667875 
L 536.586742 -38.667875 
L 536.332979 -38.667875 
L 536.079215 -38.667875 
L 535.825452 -38.667875 
L 535.571689 -38.667875 
L 535.317926 -38.667875 
L 535.064162 -38.667875 
L 534.810399 -38.667875 
L 534.556636 -38.667875 
L 534.302873 -38.667875 
L 534.049109 -38.667875 
L 533.795346 -38.667875 
L 533.541583 -38.667875 
L 533.28782 -38.667875 
L 533.034056 -38.667875 
L 532.780293 -38.667875 
L 532.52653 -38.667875 
L 532.272767 -38.667875 
L 532.019004 -38.667875 
L 531.76524 -38.667875 
L 531.511477 -38.667875 
L 531.257714 -38.667875 
L 531.003951 -38.667875 
L 530.750187 -38.667875 
L 530.496424 -38.667875 
L 530.242661 -38.667875 
L 529.988898 -38.667875 
L 529.735134 -38.667875 
L 529.481371 -38.667875 
L 529.227608 -38.667875 
L 528.973845 -38.667875 
L 528.720081 -38.667875 
L 528.466318 -38.667875 
L 528.212555 -38.667875 
L 527.958792 -38.667875 
L 527.705028 -38.667875 
L 527.451265 -38.667875 
L 527.197502 -38.667875 
L 526.943739 -38.667875 
L 526.689975 -38.667875 
L 526.436212 -38.667875 
L 526.182449 -38.667875 
L 525.928686 -38.667875 
L 525.674922 -38.667875 
L 525.421159 -38.667875 
L 525.167396 -38.667875 
L 524.913633 -38.667875 
L 524.659869 -38.667875 
L 524.406106 -38.667875 
L 524.152343 -38.667875 
L 523.89858 -38.667875 
L 523.644816 -38.667875 
L 523.391053 -38.667875 
L 523.13729 -38.667875 
L 522.883527 -38.667875 
L 522.629763 -38.667875 
L 522.376 -38.667875 
L 522.122237 -38.667875 
L 521.868474 -38.667875 
L 521.61471 -38.667875 
L 521.360947 -38.667875 
L 521.107184 -38.667875 
L 520.853421 -38.667875 
L 520.599657 -38.667875 
L 520.345894 -38.667875 
L 520.092131 -38.667875 
L 519.838368 -38.667875 
L 519.584604 -38.667875 
L 519.330841 -38.667875 
L 519.077078 -38.667875 
L 518.823315 -38.667875 
L 518.569552 -38.667875 
L 518.315788 -38.667875 
L 518.062025 -38.667875 
L 517.808262 -38.667875 
L 517.554499 -38.667875 
L 517.300735 -38.667875 
L 517.046972 -38.667875 
L 516.793209 -38.667875 
L 516.539446 -38.667875 
L 516.285682 -38.667875 
L 516.031919 -38.667875 
L 515.778156 -38.667875 
L 515.524393 -38.667875 
L 515.270629 -38.667875 
L 515.016866 -38.667875 
L 514.763103 -38.667875 
L 514.50934 -38.667875 
L 514.255576 -38.667875 
L 514.001813 -38.667875 
L 513.74805 -38.667875 
L 513.494287 -38.667875 
L 513.240523 -38.667875 
L 512.98676 -38.667875 
L 512.732997 -38.667875 
L 512.479234 -38.667875 
L 512.22547 -38.667875 
L 511.971707 -38.667875 
L 511.717944 -38.667875 
L 511.464181 -38.667875 
L 511.210417 -38.667875 
L 510.956654 -38.667875 
L 510.702891 -38.667875 
L 510.449128 -38.667875 
L 510.195364 -38.667875 
L 509.941601 -38.667875 
L 509.687838 -38.667875 
L 509.434075 -38.667875 
L 509.180311 -38.667875 
L 508.926548 -38.667875 
L 508.672785 -38.667875 
L 508.419022 -38.667875 
L 508.165258 -38.667875 
L 507.911495 -38.667875 
L 507.657732 -38.667875 
L 507.403969 -38.667875 
L 507.150205 -38.667875 
L 506.896442 -38.667875 
L 506.642679 -38.667875 
L 506.388916 -38.667875 
L 506.135152 -38.667875 
L 505.881389 -38.667875 
L 505.627626 -38.667875 
L 505.373863 -38.667875 
L 505.1201 -38.667875 
L 504.866336 -38.667875 
L 504.612573 -38.667875 
L 504.35881 -38.667875 
L 504.105047 -38.667875 
L 503.851283 -38.667875 
L 503.59752 -38.667875 
L 503.343757 -38.667875 
L 503.089994 -38.667875 
L 502.83623 -38.667875 
L 502.582467 -38.667875 
L 502.328704 -38.667875 
L 502.074941 -38.667875 
L 501.821177 -38.667875 
L 501.567414 -38.667875 
L 501.313651 -38.667875 
L 501.059888 -38.667875 
L 500.806124 -38.667875 
L 500.552361 -38.667875 
L 500.298598 -38.667875 
L 500.044835 -38.667875 
L 499.791071 -38.667875 
L 499.537308 -38.667875 
L 499.283545 -38.667875 
L 499.029782 -38.667875 
L 498.776018 -38.667875 
L 498.522255 -38.667875 
L 498.268492 -38.667875 
L 498.014729 -38.667875 
L 497.760965 -38.667875 
L 497.507202 -38.667875 
L 497.253439 -38.667875 
L 496.999676 -38.667875 
L 496.745912 -38.667875 
L 496.492149 -38.667875 
L 496.238386 -38.667875 
L 495.984623 -38.667875 
L 495.730859 -38.667875 
L 495.477096 -38.667875 
L 495.223333 -38.667875 
L 494.96957 -38.667875 
L 494.715806 -38.667875 
L 494.462043 -38.667875 
L 494.20828 -38.667875 
L 493.954517 -38.667875 
L 493.700753 -38.667875 
L 493.44699 -38.667875 
L 493.193227 -38.667875 
L 492.939464 -38.667875 
L 492.6857 -38.667875 
L 492.431937 -38.667875 
L 492.178174 -38.667875 
L 491.924411 -38.667875 
L 491.670648 -38.667875 
L 491.416884 -38.667875 
L 491.163121 -38.667875 
L 490.909358 -38.667875 
L 490.655595 -38.667875 
L 490.401831 -38.667875 
L 490.148068 -38.667875 
L 489.894305 -38.667875 
L 489.640542 -38.667875 
L 489.386778 -38.667875 
L 489.133015 -38.667875 
L 488.879252 -38.667875 
L 488.625489 -38.667875 
L 488.371725 -38.667875 
L 488.117962 -38.667875 
L 487.864199 -38.667875 
L 487.610436 -38.667875 
L 487.356672 -38.667875 
L 487.102909 -38.667875 
L 486.849146 -38.667875 
L 486.595383 -38.667875 
L 486.341619 -38.667875 
L 486.087856 -38.667875 
L 485.834093 -38.667875 
L 485.58033 -38.667875 
L 485.326566 -38.667875 
L 485.072803 -38.667875 
L 484.81904 -38.667875 
L 484.565277 -38.667875 
L 484.311513 -38.667875 
L 484.05775 -38.667875 
L 483.803987 -38.667875 
L 483.550224 -38.667875 
L 483.29646 -38.667875 
L 483.042697 -38.667875 
L 482.788934 -38.667875 
L 482.535171 -38.667875 
L 482.281407 -38.667875 
L 482.027644 -38.667875 
L 481.773881 -38.667875 
L 481.520118 -38.667875 
L 481.266354 -38.667875 
L 481.012591 -38.667875 
L 480.758828 -38.667875 
L 480.505065 -38.667875 
L 480.251301 -38.667875 
L 479.997538 -38.667875 
L 479.743775 -38.667875 
L 479.490012 -38.667875 
L 479.236248 -38.667875 
L 478.982485 -38.667875 
L 478.728722 -38.667875 
L 478.474959 -38.667875 
L 478.221196 -38.667875 
L 477.967432 -38.667875 
L 477.713669 -38.667875 
L 477.459906 -38.667875 
L 477.206143 -38.667875 
L 476.952379 -38.667875 
L 476.698616 -38.667875 
L 476.444853 -38.667875 
L 476.19109 -38.667875 
L 475.937326 -38.667875 
L 475.683563 -38.667875 
L 475.4298 -38.667875 
L 475.176037 -38.667875 
L 474.922273 -38.667875 
L 474.66851 -38.667875 
L 474.414747 -38.667875 
L 474.160984 -38.667875 
L 473.90722 -38.667875 
L 473.653457 -38.667875 
L 473.399694 -38.667875 
L 473.145931 -38.667875 
L 472.892167 -38.667875 
L 472.638404 -38.667875 
L 472.384641 -38.667875 
L 472.130878 -38.667875 
L 471.877114 -38.667875 
L 471.623351 -38.667875 
L 471.369588 -38.667875 
L 471.115825 -38.667875 
L 470.862061 -38.667875 
L 470.608298 -38.667875 
L 470.354535 -38.667875 
L 470.100772 -38.667875 
L 469.847008 -38.667875 
L 469.593245 -38.667875 
L 469.339482 -38.667875 
L 469.085719 -38.667875 
L 468.831955 -38.667875 
L 468.578192 -38.667875 
L 468.324429 -38.667875 
L 468.070666 -38.667875 
L 467.816902 -38.667875 
L 467.563139 -38.667875 
L 467.309376 -38.667875 
L 467.055613 -38.667875 
L 466.801849 -38.667875 
L 466.548086 -38.667875 
L 466.294323 -38.667875 
L 466.04056 -38.667875 
L 465.786796 -38.667875 
L 465.533033 -38.667875 
L 465.27927 -38.667875 
L 465.025507 -38.667875 
L 464.771744 -38.667875 
L 464.51798 -38.667875 
L 464.264217 -38.667875 
L 464.010454 -38.667875 
L 463.756691 -38.667875 
L 463.502927 -38.667875 
L 463.249164 -38.667875 
L 462.995401 -38.667875 
L 462.741638 -38.667875 
L 462.487874 -38.667875 
L 462.234111 -38.667875 
L 461.980348 -38.667875 
L 461.726585 -38.667875 
L 461.472821 -38.667875 
L 461.219058 -38.667875 
L 460.965295 -38.667875 
L 460.711532 -38.667875 
L 460.457768 -38.667875 
L 460.204005 -38.667875 
L 459.950242 -38.667875 
L 459.696479 -38.667875 
L 459.442715 -38.667875 
L 459.188952 -38.667875 
L 458.935189 -38.667875 
L 458.681426 -38.667875 
L 458.427662 -38.667875 
L 458.173899 -38.667875 
L 457.920136 -38.667875 
L 457.666373 -38.667875 
L 457.412609 -38.667875 
L 457.158846 -38.667875 
L 456.905083 -38.667875 
L 456.65132 -38.667875 
L 456.397556 -38.667875 
L 456.143793 -38.667875 
L 455.89003 -38.667875 
L 455.636267 -38.667875 
L 455.382503 -38.667875 
L 455.12874 -38.667875 
L 454.874977 -38.667875 
L 454.621214 -38.667875 
L 454.36745 -38.667875 
L 454.113687 -38.667875 
L 453.859924 -38.667875 
L 453.606161 -38.667875 
L 453.352397 -38.667875 
L 453.098634 -38.667875 
L 452.844871 -38.667875 
L 452.591108 -38.667875 
L 452.337344 -38.667875 
L 452.083581 -38.667875 
L 451.829818 -38.667875 
L 451.576055 -38.667875 
L 451.322292 -38.667875 
L 451.068528 -38.667875 
L 450.814765 -38.667875 
L 450.561002 -38.667875 
L 450.307239 -38.667875 
L 450.053475 -38.667875 
L 449.799712 -38.667875 
L 449.545949 -38.667875 
L 449.292186 -38.667875 
L 449.038422 -38.667875 
L 448.784659 -38.667875 
L 448.530896 -38.667875 
L 448.277133 -38.667875 
L 448.023369 -38.667875 
L 447.769606 -38.667875 
L 447.515843 -38.667875 
L 447.26208 -38.667875 
L 447.008316 -38.667875 
L 446.754553 -38.667875 
L 446.50079 -38.667875 
L 446.247027 -38.667875 
L 445.993263 -38.667875 
L 445.7395 -38.667875 
L 445.485737 -38.667875 
L 445.231974 -38.667875 
L 444.97821 -38.667875 
L 444.724447 -38.667875 
L 444.470684 -38.667875 
L 444.216921 -38.667875 
L 443.963157 -38.667875 
L 443.709394 -38.667875 
L 443.455631 -38.667875 
L 443.201868 -38.667875 
L 442.948104 -38.667875 
L 442.694341 -38.667875 
L 442.440578 -38.667875 
L 442.186815 -38.667875 
L 441.933051 -38.667875 
L 441.679288 -38.667875 
L 441.425525 -38.667875 
L 441.171762 -38.667875 
L 440.917998 -38.667875 
L 440.664235 -38.667875 
L 440.410472 -38.667875 
L 440.156709 -38.667875 
L 439.902945 -38.667875 
L 439.649182 -38.667875 
L 439.395419 -38.667875 
L 439.141656 -38.667875 
L 438.887892 -38.667875 
L 438.634129 -38.667875 
L 438.380366 -38.667875 
L 438.126603 -38.667875 
L 437.87284 -38.667875 
L 437.619076 -38.667875 
L 437.365313 -38.667875 
L 437.11155 -38.667875 
L 436.857787 -38.667875 
L 436.604023 -38.667875 
L 436.35026 -38.667875 
L 436.096497 -38.667875 
L 435.842734 -38.667875 
L 435.58897 -38.667875 
L 435.335207 -38.667875 
L 435.081444 -38.667875 
L 434.827681 -38.667875 
L 434.573917 -38.667875 
L 434.320154 -38.667875 
L 434.066391 -38.667875 
L 433.812628 -38.667875 
L 433.558864 -38.667875 
L 433.305101 -38.667875 
L 433.051338 -38.667875 
L 432.797575 -38.667875 
L 432.543811 -38.667875 
L 432.290048 -38.667875 
L 432.036285 -38.667875 
L 431.782522 -38.667875 
L 431.528758 -38.667875 
L 431.274995 -38.667875 
L 431.021232 -38.667875 
L 430.767469 -38.667875 
L 430.513705 -38.667875 
L 430.259942 -38.667875 
L 430.006179 -38.667875 
L 429.752416 -38.667875 
L 429.498652 -38.667875 
L 429.244889 -38.667875 
L 428.991126 -38.667875 
L 428.737363 -38.667875 
L 428.483599 -38.667875 
L 428.229836 -38.667875 
L 427.976073 -38.667875 
L 427.72231 -38.667875 
L 427.468546 -38.667875 
L 427.214783 -38.667875 
L 426.96102 -38.667875 
L 426.707257 -38.667875 
L 426.453493 -38.667875 
L 426.19973 -38.667875 
L 425.945967 -38.667875 
L 425.692204 -38.667875 
L 425.43844 -38.667875 
L 425.184677 -38.667875 
L 424.930914 -38.667875 
L 424.677151 -38.667875 
L 424.423388 -38.667875 
L 424.169624 -38.667875 
L 423.915861 -38.667875 
L 423.662098 -38.667875 
L 423.408335 -38.667875 
L 423.154571 -38.667875 
L 422.900808 -38.667875 
L 422.647045 -38.667875 
L 422.393282 -38.667875 
L 422.139518 -38.667875 
L 421.885755 -38.667875 
L 421.631992 -38.667875 
L 421.378229 -38.667875 
L 421.124465 -38.667875 
L 420.870702 -38.667875 
L 420.616939 -38.667875 
L 420.363176 -38.667875 
L 420.109412 -38.667875 
L 419.855649 -38.667875 
L 419.601886 -38.667875 
L 419.348123 -38.667875 
L 419.094359 -38.667875 
L 418.840596 -38.667875 
L 418.586833 -38.667875 
L 418.33307 -38.667875 
L 418.079306 -38.667875 
L 417.825543 -38.667875 
L 417.57178 -38.667875 
L 417.318017 -38.667875 
L 417.064253 -38.667875 
L 416.81049 -38.667875 
L 416.556727 -38.667875 
L 416.302964 -38.667875 
L 416.0492 -38.667875 
L 415.795437 -38.667875 
L 415.541674 -38.667875 
L 415.287911 -38.667875 
L 415.034147 -38.667875 
L 414.780384 -38.667875 
L 414.526621 -38.667875 
L 414.272858 -38.667875 
L 414.019094 -38.667875 
L 413.765331 -38.667875 
L 413.511568 -38.667875 
L 413.257805 -38.667875 
L 413.004041 -38.667875 
L 412.750278 -38.667875 
L 412.496515 -38.667875 
L 412.242752 -38.667875 
L 411.988988 -38.667875 
L 411.735225 -38.667875 
L 411.481462 -38.667875 
L 411.227699 -38.667875 
L 410.973936 -38.667875 
L 410.720172 -38.667875 
L 410.466409 -38.667875 
L 410.212646 -38.667875 
L 409.958883 -38.667875 
L 409.705119 -38.667875 
L 409.451356 -38.667875 
L 409.197593 -38.667875 
L 408.94383 -38.667875 
L 408.690066 -38.667875 
L 408.436303 -38.667875 
L 408.18254 -38.667875 
L 407.928777 -38.667875 
L 407.675013 -38.667875 
L 407.42125 -38.667875 
L 407.167487 -38.667875 
L 406.913724 -38.667875 
L 406.65996 -38.667875 
L 406.406197 -38.667875 
L 406.152434 -38.667875 
L 405.898671 -38.667875 
L 405.644907 -38.667875 
L 405.391144 -38.667875 
L 405.137381 -38.667875 
L 404.883618 -38.667875 
L 404.629854 -38.667875 
L 404.376091 -38.667875 
L 404.122328 -38.667875 
L 403.868565 -38.667875 
L 403.614801 -38.667875 
L 403.361038 -38.667875 
L 403.107275 -38.667875 
L 402.853512 -38.667875 
L 402.599748 -38.667875 
L 402.345985 -38.667875 
L 402.092222 -38.667875 
L 401.838459 -38.667875 
L 401.584695 -38.667875 
L 401.330932 -38.667875 
L 401.077169 -38.667875 
L 400.823406 -38.667875 
L 400.569642 -38.667875 
L 400.315879 -38.667875 
L 400.062116 -38.667875 
L 399.808353 -38.667875 
L 399.554589 -38.667875 
L 399.300826 -38.667875 
L 399.047063 -38.667875 
L 398.7933 -38.667875 
L 398.539537 -38.667875 
L 398.285773 -38.667875 
L 398.03201 -38.667875 
L 397.778247 -38.667875 
L 397.524484 -38.667875 
L 397.27072 -38.667875 
L 397.016957 -38.667875 
L 396.763194 -38.667875 
L 396.509431 -38.667875 
L 396.255667 -38.667875 
L 396.001904 -38.667875 
L 395.748141 -38.667875 
L 395.494378 -38.667875 
L 395.240614 -38.667875 
L 394.986851 -38.667875 
L 394.733088 -38.667875 
L 394.479325 -38.667875 
L 394.225561 -38.667875 
L 393.971798 -38.667875 
L 393.718035 -38.667875 
L 393.464272 -38.667875 
L 393.210508 -38.667875 
L 392.956745 -38.667875 
L 392.702982 -38.667875 
L 392.449219 -38.667875 
L 392.195455 -38.667875 
L 391.941692 -38.667875 
L 391.687929 -38.667875 
L 391.434166 -38.667875 
L 391.180402 -38.667875 
L 390.926639 -38.667875 
L 390.672876 -38.667875 
L 390.419113 -38.667875 
L 390.165349 -38.667875 
L 389.911586 -38.667875 
L 389.657823 -38.667875 
L 389.40406 -38.667875 
L 389.150296 -38.667875 
L 388.896533 -38.667875 
L 388.64277 -38.667875 
L 388.389007 -38.667875 
L 388.135243 -38.667875 
L 387.88148 -38.667875 
L 387.627717 -38.667875 
L 387.373954 -38.667875 
L 387.12019 -38.667875 
L 386.866427 -38.667875 
L 386.612664 -38.667875 
L 386.358901 -38.667875 
L 386.105137 -38.667875 
L 385.851374 -38.667875 
L 385.597611 -38.667875 
L 385.343848 -38.667875 
L 385.090085 -38.667875 
L 384.836321 -38.667875 
L 384.582558 -38.667875 
L 384.328795 -38.667875 
L 384.075032 -38.667875 
L 383.821268 -38.667875 
L 383.567505 -38.667875 
L 383.313742 -38.667875 
L 383.059979 -38.667875 
L 382.806215 -38.667875 
L 382.552452 -38.667875 
L 382.298689 -38.667875 
L 382.044926 -38.667875 
L 381.791162 -38.667875 
L 381.537399 -38.667875 
L 381.283636 -38.667875 
L 381.029873 -38.667875 
L 380.776109 -38.667875 
L 380.522346 -38.667875 
L 380.268583 -38.667875 
L 380.01482 -38.667875 
L 379.761056 -38.667875 
L 379.507293 -38.667875 
L 379.25353 -38.667875 
L 378.999767 -38.667875 
L 378.746003 -38.667875 
L 378.49224 -38.667875 
L 378.238477 -38.667875 
L 377.984714 -38.667875 
L 377.73095 -38.667875 
L 377.477187 -38.667875 
L 377.223424 -38.667875 
L 376.969661 -38.667875 
L 376.715897 -38.667875 
L 376.462134 -38.667875 
L 376.208371 -38.667875 
L 375.954608 -38.667875 
L 375.700844 -38.667875 
L 375.447081 -38.667875 
L 375.193318 -38.667875 
L 374.939555 -38.667875 
L 374.685791 -38.667875 
L 374.432028 -38.667875 
L 374.178265 -38.667875 
L 373.924502 -38.667875 
L 373.670738 -38.667875 
L 373.416975 -38.667875 
L 373.163212 -38.667875 
L 372.909449 -38.667875 
L 372.655685 -38.667875 
L 372.401922 -38.667875 
L 372.148159 -38.667875 
L 371.894396 -38.667875 
L 371.640633 -38.667875 
L 371.386869 -38.667875 
L 371.133106 -38.667875 
L 370.879343 -38.667875 
L 370.62558 -38.667875 
L 370.371816 -38.667875 
L 370.118053 -38.667875 
L 369.86429 -38.667875 
L 369.610527 -38.667875 
L 369.356763 -38.667875 
L 369.103 -38.667875 
L 368.849237 -38.667875 
L 368.595474 -38.667875 
L 368.34171 -38.667875 
L 368.087947 -38.667875 
L 367.834184 -38.667875 
L 367.580421 -38.667875 
L 367.326657 -38.667875 
L 367.072894 -38.667875 
L 366.819131 -38.667875 
L 366.565368 -38.667875 
L 366.311604 -38.667875 
L 366.057841 -38.667875 
L 365.804078 -38.667875 
L 365.550315 -38.667875 
L 365.296551 -38.667875 
L 365.042788 -38.667875 
L 364.789025 -38.667875 
L 364.535262 -38.667875 
L 364.281498 -38.667875 
L 364.027735 -38.667875 
L 363.773972 -38.667875 
L 363.520209 -38.667875 
L 363.266445 -38.667875 
L 363.012682 -38.667875 
L 362.758919 -38.667875 
L 362.505156 -38.667875 
L 362.251392 -38.667875 
L 361.997629 -38.667875 
L 361.743866 -38.667875 
L 361.490103 -38.667875 
L 361.236339 -38.667875 
L 360.982576 -38.667875 
L 360.728813 -38.667875 
L 360.47505 -38.667875 
L 360.221286 -38.667875 
L 359.967523 -38.667875 
L 359.71376 -38.667875 
L 359.459997 -38.667875 
L 359.206233 -38.667875 
L 358.95247 -38.667875 
L 358.698707 -38.667875 
L 358.444944 -38.667875 
L 358.191181 -38.667875 
L 357.937417 -38.667875 
L 357.683654 -38.667875 
L 357.429891 -38.667875 
L 357.176128 -38.667875 
L 356.922364 -38.667875 
L 356.668601 -38.667875 
L 356.414838 -38.667875 
L 356.161075 -38.667875 
L 355.907311 -38.667875 
L 355.653548 -38.667875 
L 355.399785 -38.667875 
L 355.146022 -38.667875 
L 354.892258 -38.667875 
L 354.638495 -38.667875 
L 354.384732 -38.667875 
L 354.130969 -38.667875 
L 353.877205 -38.667875 
L 353.623442 -38.667875 
L 353.369679 -38.667875 
L 353.115916 -38.667875 
L 352.862152 -38.667875 
L 352.608389 -38.667875 
L 352.354626 -38.667875 
L 352.100863 -38.667875 
L 351.847099 -38.667875 
L 351.593336 -38.667875 
L 351.339573 -38.667875 
L 351.08581 -38.667875 
L 350.832046 -38.667875 
L 350.578283 -38.667875 
L 350.32452 -38.667875 
L 350.070757 -38.667875 
L 349.816993 -38.667875 
L 349.56323 -38.667875 
L 349.309467 -38.667875 
L 349.055704 -38.667875 
L 348.80194 -38.667875 
L 348.548177 -38.667875 
L 348.294414 -38.667875 
L 348.040651 -38.667875 
L 347.786887 -38.667875 
L 347.533124 -38.667875 
L 347.279361 -38.667875 
L 347.025598 -38.667875 
L 346.771834 -38.667875 
L 346.518071 -38.667875 
L 346.264308 -38.667875 
L 346.010545 -38.667875 
L 345.756781 -38.667875 
L 345.503018 -38.667875 
L 345.249255 -38.667875 
L 344.995492 -38.667875 
L 344.741729 -38.667875 
L 344.487965 -38.667875 
L 344.234202 -38.667875 
L 343.980439 -38.667875 
L 343.726676 -38.667875 
L 343.472912 -38.667875 
L 343.219149 -38.667875 
L 342.965386 -38.667875 
L 342.711623 -38.667875 
L 342.457859 -38.667875 
L 342.204096 -38.667875 
L 341.950333 -38.667875 
L 341.69657 -38.667875 
L 341.442806 -38.667875 
L 341.189043 -38.667875 
L 340.93528 -38.667875 
L 340.681517 -38.667875 
L 340.427753 -38.667875 
L 340.17399 -38.667875 
L 339.920227 -38.667875 
L 339.666464 -38.667875 
L 339.4127 -38.667875 
L 339.158937 -38.667875 
L 338.905174 -38.667875 
L 338.651411 -38.667875 
L 338.397647 -38.667875 
L 338.143884 -38.667875 
L 337.890121 -38.667875 
L 337.636358 -38.667875 
L 337.382594 -38.667875 
L 337.128831 -38.667875 
L 336.875068 -38.667875 
L 336.621305 -38.667875 
L 336.367541 -38.667875 
L 336.113778 -38.667875 
L 335.860015 -38.667875 
L 335.606252 -38.667875 
L 335.352488 -38.667875 
L 335.098725 -38.667875 
L 334.844962 -38.667875 
L 334.591199 -38.667875 
L 334.337435 -38.667875 
L 334.083672 -38.667875 
L 333.829909 -38.667875 
L 333.576146 -38.667875 
L 333.322382 -38.667875 
L 333.068619 -38.667875 
L 332.814856 -38.667875 
L 332.561093 -38.667875 
L 332.307329 -38.667875 
L 332.053566 -38.667875 
L 331.799803 -38.667875 
L 331.54604 -38.667875 
L 331.292277 -38.667875 
L 331.038513 -38.667875 
L 330.78475 -38.667875 
L 330.530987 -38.667875 
L 330.277224 -38.667875 
L 330.02346 -38.667875 
L 329.769697 -38.667875 
L 329.515934 -38.667875 
L 329.262171 -38.667875 
L 329.008407 -38.667875 
L 328.754644 -38.667875 
L 328.500881 -38.667875 
L 328.247118 -38.667875 
L 327.993354 -38.667875 
L 327.739591 -38.667875 
L 327.485828 -38.667875 
L 327.232065 -38.667875 
L 326.978301 -38.667875 
L 326.724538 -38.667875 
L 326.470775 -38.667875 
L 326.217012 -38.667875 
L 325.963248 -38.667875 
L 325.709485 -38.667875 
L 325.455722 -38.667875 
L 325.201959 -38.667875 
L 324.948195 -38.667875 
L 324.694432 -38.667875 
L 324.440669 -38.667875 
L 324.186906 -38.667875 
L 323.933142 -38.667875 
L 323.679379 -38.667875 
L 323.425616 -38.667875 
L 323.171853 -38.667875 
L 322.918089 -38.667875 
L 322.664326 -38.667875 
L 322.410563 -38.667875 
L 322.1568 -38.667875 
L 321.903036 -38.667875 
L 321.649273 -38.667875 
L 321.39551 -38.667875 
L 321.141747 -38.667875 
L 320.887983 -38.667875 
L 320.63422 -38.667875 
L 320.380457 -38.667875 
L 320.126694 -38.667875 
L 319.87293 -38.667875 
L 319.619167 -38.667875 
L 319.365404 -38.667875 
L 319.111641 -38.667875 
L 318.857877 -38.667875 
L 318.604114 -38.667875 
L 318.350351 -38.667875 
L 318.096588 -38.667875 
L 317.842825 -38.667875 
L 317.589061 -38.667875 
L 317.335298 -38.667875 
L 317.081535 -38.667875 
L 316.827772 -38.667875 
L 316.574008 -38.667875 
L 316.320245 -38.667875 
L 316.066482 -38.667875 
L 315.812719 -38.667875 
L 315.558955 -38.667875 
L 315.305192 -38.667875 
L 315.051429 -38.667875 
L 314.797666 -38.667875 
L 314.543902 -38.667875 
L 314.290139 -38.667875 
L 314.036376 -38.667875 
L 313.782613 -38.667875 
L 313.528849 -38.667875 
L 313.275086 -38.667875 
L 313.021323 -38.667875 
L 312.76756 -38.667875 
L 312.513796 -38.667875 
L 312.260033 -38.667875 
L 312.00627 -38.667875 
L 311.752507 -38.667875 
L 311.498743 -38.667875 
L 311.24498 -38.667875 
L 310.991217 -38.667875 
L 310.737454 -38.667875 
L 310.48369 -38.667875 
L 310.229927 -38.667875 
L 309.976164 -38.667875 
L 309.722401 -38.667875 
L 309.468637 -38.667875 
L 309.214874 -38.667875 
L 308.961111 -38.667875 
L 308.707348 -38.667875 
L 308.453584 -38.667875 
L 308.199821 -38.667875 
L 307.946058 -38.667875 
L 307.692295 -38.667875 
L 307.438531 -38.667875 
L 307.184768 -38.667875 
L 306.931005 -38.667875 
L 306.677242 -38.667875 
L 306.423478 -38.667875 
L 306.169715 -38.667875 
L 305.915952 -38.667875 
L 305.662189 -38.667875 
L 305.408425 -38.667875 
L 305.154662 -38.667875 
L 304.900899 -38.667875 
L 304.647136 -38.667875 
L 304.393373 -38.667875 
L 304.139609 -38.667875 
L 303.885846 -38.667875 
L 303.632083 -38.667875 
L 303.37832 -38.667875 
L 303.124556 -38.667875 
L 302.870793 -38.667875 
L 302.61703 -38.667875 
L 302.363267 -38.667875 
L 302.109503 -38.667875 
L 301.85574 -38.667875 
L 301.601977 -38.667875 
L 301.348214 -38.667875 
L 301.09445 -38.667875 
L 300.840687 -38.667875 
L 300.586924 -38.667875 
L 300.333161 -38.667875 
L 300.079397 -38.667875 
L 299.825634 -38.667875 
L 299.571871 -38.667875 
L 299.318108 -38.667875 
L 299.064344 -38.667875 
L 298.810581 -38.667875 
L 298.556818 -38.667875 
L 298.303055 -38.667875 
L 298.049291 -38.667875 
L 297.795528 -38.667875 
L 297.541765 -38.667875 
L 297.288002 -38.667875 
L 297.034238 -38.667875 
L 296.780475 -38.667875 
L 296.526712 -38.667875 
L 296.272949 -38.667875 
L 296.019185 -38.667875 
L 295.765422 -38.667875 
L 295.511659 -38.667875 
L 295.257896 -38.667875 
L 295.004132 -38.667875 
L 294.750369 -38.667875 
L 294.496606 -38.667875 
L 294.242843 -38.667875 
L 293.989079 -38.667875 
L 293.735316 -38.667875 
L 293.481553 -38.667875 
L 293.22779 -38.667875 
L 292.974026 -38.667875 
L 292.720263 -38.667875 
L 292.4665 -38.667875 
L 292.212737 -38.667875 
L 291.958973 -38.667875 
L 291.70521 -38.667875 
L 291.451447 -38.667875 
L 291.197684 -38.667875 
L 290.943921 -38.667875 
L 290.690157 -38.667875 
L 290.436394 -38.667875 
L 290.182631 -38.667875 
L 289.928868 -38.667875 
L 289.675104 -38.667875 
L 289.421341 -38.667875 
L 289.167578 -38.667875 
L 288.913815 -38.667875 
L 288.660051 -38.667875 
L 288.406288 -38.667875 
L 288.152525 -38.667875 
L 287.898762 -38.667875 
L 287.644998 -38.667875 
L 287.391235 -38.667875 
L 287.137472 -38.667875 
L 286.883709 -38.667875 
L 286.629945 -38.667875 
L 286.376182 -38.667875 
L 286.122419 -38.667875 
L 285.868656 -38.667875 
L 285.614892 -38.667875 
L 285.361129 -38.667875 
L 285.107366 -38.667875 
L 284.853603 -38.667875 
L 284.599839 -38.667875 
L 284.346076 -38.667875 
L 284.092313 -38.667875 
L 283.83855 -38.667875 
L 283.584786 -38.667875 
L 283.331023 -38.667875 
L 283.07726 -38.667875 
L 282.823497 -38.667875 
L 282.569733 -38.667875 
L 282.31597 -38.667875 
L 282.062207 -38.667875 
L 281.808444 -38.667875 
L 281.55468 -38.667875 
L 281.300917 -38.667875 
L 281.047154 -38.667875 
L 280.793391 -38.667875 
L 280.539627 -38.667875 
L 280.285864 -38.667875 
L 280.032101 -38.667875 
L 279.778338 -38.667875 
L 279.524574 -38.667875 
L 279.270811 -38.667875 
L 279.017048 -38.667875 
L 278.763285 -38.667875 
L 278.509521 -38.667875 
L 278.255758 -38.667875 
L 278.001995 -38.667875 
L 277.748232 -38.667875 
L 277.494469 -38.667875 
L 277.240705 -38.667875 
L 276.986942 -38.667875 
L 276.733179 -38.667875 
L 276.479416 -38.667875 
L 276.225652 -38.667875 
L 275.971889 -38.667875 
L 275.718126 -38.667875 
L 275.464363 -38.667875 
L 275.210599 -38.667875 
L 274.956836 -38.667875 
L 274.703073 -38.667875 
L 274.44931 -38.667875 
L 274.195546 -38.667875 
L 273.941783 -38.667875 
L 273.68802 -38.667875 
L 273.434257 -38.667875 
L 273.180493 -38.667875 
L 272.92673 -38.667875 
L 272.672967 -38.667875 
L 272.419204 -38.667875 
L 272.16544 -38.667875 
L 271.911677 -38.667875 
L 271.657914 -38.667875 
L 271.404151 -38.667875 
L 271.150387 -38.667875 
L 270.896624 -38.667875 
L 270.642861 -38.667875 
L 270.389098 -38.667875 
L 270.135334 -38.667875 
L 269.881571 -38.667875 
L 269.627808 -38.667875 
L 269.374045 -38.667875 
L 269.120281 -38.667875 
L 268.866518 -38.667875 
L 268.612755 -38.667875 
L 268.358992 -38.667875 
L 268.105228 -38.667875 
L 267.851465 -38.667875 
L 267.597702 -38.667875 
L 267.343939 -38.667875 
L 267.090175 -38.667875 
L 266.836412 -38.667875 
L 266.582649 -38.667875 
L 266.328886 -38.667875 
L 266.075122 -38.667875 
L 265.821359 -38.667875 
L 265.567596 -38.667875 
L 265.313833 -38.667875 
L 265.060069 -38.667875 
L 264.806306 -38.667875 
L 264.552543 -38.667875 
L 264.29878 -38.667875 
L 264.045017 -38.667875 
L 263.791253 -38.667875 
L 263.53749 -38.667875 
L 263.283727 -38.667875 
L 263.029964 -38.667875 
L 262.7762 -38.667875 
L 262.522437 -38.667875 
L 262.268674 -38.667875 
L 262.014911 -38.667875 
L 261.761147 -38.667875 
L 261.507384 -38.667875 
L 261.253621 -38.667875 
L 260.999858 -38.667875 
L 260.746094 -38.667875 
L 260.492331 -38.667875 
L 260.238568 -38.667875 
L 259.984805 -38.667875 
L 259.731041 -38.667875 
L 259.477278 -38.667875 
L 259.223515 -38.667875 
L 258.969752 -38.667875 
L 258.715988 -38.667875 
L 258.462225 -38.667875 
L 258.208462 -38.667875 
L 257.954699 -38.667875 
L 257.700935 -38.667875 
L 257.447172 -38.667875 
L 257.193409 -38.667875 
L 256.939646 -38.667875 
L 256.685882 -38.667875 
L 256.432119 -38.667875 
L 256.178356 -38.667875 
L 255.924593 -38.667875 
L 255.670829 -38.667875 
L 255.417066 -38.667875 
L 255.163303 -38.667875 
L 254.90954 -38.667875 
L 254.655776 -38.667875 
L 254.402013 -38.667875 
L 254.14825 -38.667875 
L 253.894487 -38.667875 
L 253.640723 -38.667875 
L 253.38696 -38.667875 
L 253.133197 -38.667875 
L 252.879434 -38.667875 
L 252.62567 -38.667875 
L 252.371907 -38.667875 
L 252.118144 -38.667875 
L 251.864381 -38.667875 
L 251.610617 -38.667875 
L 251.356854 -38.667875 
L 251.103091 -38.667875 
L 250.849328 -38.667875 
L 250.595565 -38.667875 
L 250.341801 -38.667875 
L 250.088038 -38.667875 
L 249.834275 -38.667875 
L 249.580512 -38.667875 
L 249.326748 -38.667875 
L 249.072985 -38.667875 
L 248.819222 -38.667875 
L 248.565459 -38.667875 
L 248.311695 -38.667875 
L 248.057932 -38.667875 
L 247.804169 -38.667875 
L 247.550406 -38.667875 
L 247.296642 -38.667875 
L 247.042879 -38.667875 
L 246.789116 -38.667875 
L 246.535353 -38.667875 
L 246.281589 -38.667875 
L 246.027826 -38.667875 
L 245.774063 -38.667875 
L 245.5203 -38.667875 
L 245.266536 -38.667875 
L 245.012773 -38.667875 
L 244.75901 -38.667875 
L 244.505247 -38.667875 
L 244.251483 -38.667875 
L 243.99772 -38.667875 
L 243.743957 -38.667875 
L 243.490194 -38.667875 
L 243.23643 -38.667875 
L 242.982667 -38.667875 
L 242.728904 -38.667875 
L 242.475141 -38.667875 
L 242.221377 -38.667875 
L 241.967614 -38.667875 
L 241.713851 -38.667875 
L 241.460088 -38.667875 
L 241.206324 -38.667875 
L 240.952561 -38.667875 
L 240.698798 -38.667875 
L 240.445035 -38.667875 
L 240.191271 -38.667875 
L 239.937508 -38.667875 
L 239.683745 -38.667875 
L 239.429982 -38.667875 
L 239.176218 -38.667875 
L 238.922455 -38.667875 
L 238.668692 -38.667875 
L 238.414929 -38.667875 
L 238.161165 -38.667875 
L 237.907402 -38.667875 
L 237.653639 -38.667875 
L 237.399876 -38.667875 
L 237.146113 -38.667875 
L 236.892349 -38.667875 
L 236.638586 -38.667875 
L 236.384823 -38.667875 
L 236.13106 -38.667875 
L 235.877296 -38.667875 
L 235.623533 -38.667875 
L 235.36977 -38.667875 
L 235.116007 -38.667875 
L 234.862243 -38.667875 
L 234.60848 -38.667875 
L 234.354717 -38.667875 
L 234.100954 -38.667875 
L 233.84719 -38.667875 
L 233.593427 -38.667875 
L 233.339664 -38.667875 
L 233.085901 -38.667875 
L 232.832137 -38.667875 
L 232.578374 -38.667875 
L 232.324611 -38.667875 
L 232.070848 -38.667875 
L 231.817084 -38.667875 
L 231.563321 -38.667875 
L 231.309558 -38.667875 
L 231.055795 -38.667875 
L 230.802031 -38.667875 
L 230.548268 -38.667875 
L 230.294505 -38.667875 
L 230.040742 -38.667875 
L 229.786978 -38.667875 
L 229.533215 -38.667875 
L 229.279452 -38.667875 
L 229.025689 -38.667875 
L 228.771925 -38.667875 
L 228.518162 -38.667875 
L 228.264399 -38.667875 
L 228.010636 -38.667875 
L 227.756872 -38.667875 
L 227.503109 -38.667875 
L 227.249346 -38.667875 
L 226.995583 -38.667875 
L 226.741819 -38.667875 
L 226.488056 -38.667875 
L 226.234293 -38.667875 
L 225.98053 -38.667875 
L 225.726766 -38.667875 
L 225.473003 -38.667875 
L 225.21924 -38.667875 
L 224.965477 -38.667875 
L 224.711713 -38.667875 
L 224.45795 -38.667875 
L 224.204187 -38.667875 
L 223.950424 -38.667875 
L 223.696661 -38.667875 
L 223.442897 -38.667875 
L 223.189134 -38.667875 
L 222.935371 -38.667875 
L 222.681608 -38.667875 
L 222.427844 -38.667875 
L 222.174081 -38.667875 
L 221.920318 -38.667875 
L 221.666555 -38.667875 
L 221.412791 -38.667875 
L 221.159028 -38.667875 
L 220.905265 -38.667875 
L 220.651502 -38.667875 
L 220.397738 -38.667875 
L 220.143975 -38.667875 
L 219.890212 -38.667875 
L 219.636449 -38.667875 
L 219.382685 -38.667875 
L 219.128922 -38.667875 
L 218.875159 -38.667875 
L 218.621396 -38.667875 
L 218.367632 -38.667875 
L 218.113869 -38.667875 
L 217.860106 -38.667875 
L 217.606343 -38.667875 
L 217.352579 -38.667875 
L 217.098816 -38.667875 
L 216.845053 -38.667875 
L 216.59129 -38.667875 
L 216.337526 -38.667875 
L 216.083763 -38.667875 
L 215.83 -38.667875 
L 215.576237 -38.667875 
L 215.322473 -38.667875 
L 215.06871 -38.667875 
L 214.814947 -38.667875 
L 214.561184 -38.667875 
L 214.30742 -38.667875 
L 214.053657 -38.667875 
L 213.799894 -38.667875 
L 213.546131 -38.667875 
L 213.292367 -38.667875 
L 213.038604 -38.667875 
L 212.784841 -38.667875 
L 212.531078 -38.667875 
L 212.277314 -38.667875 
L 212.023551 -38.667875 
L 211.769788 -38.667875 
L 211.516025 -38.667875 
L 211.262262 -38.667875 
L 211.008498 -38.667875 
L 210.754735 -38.667875 
L 210.500972 -38.667875 
L 210.247209 -38.667875 
L 209.993445 -38.667875 
L 209.739682 -38.667875 
L 209.485919 -38.667875 
L 209.232156 -38.667875 
L 208.978392 -38.667875 
L 208.724629 -38.667875 
L 208.470866 -38.667875 
L 208.217103 -38.667875 
L 207.963339 -38.667875 
L 207.709576 -38.667875 
L 207.455813 -38.667875 
L 207.20205 -38.667875 
L 206.948286 -38.667875 
L 206.694523 -38.667875 
L 206.44076 -38.667875 
L 206.186997 -38.667875 
L 205.933233 -38.667875 
L 205.67947 -38.667875 
L 205.425707 -38.667875 
L 205.171944 -38.667875 
L 204.91818 -38.667875 
L 204.664417 -38.667875 
L 204.410654 -38.667875 
L 204.156891 -38.667875 
L 203.903127 -38.667875 
L 203.649364 -38.667875 
L 203.395601 -38.667875 
L 203.141838 -38.667875 
L 202.888074 -38.667875 
L 202.634311 -38.667875 
L 202.380548 -38.667875 
L 202.126785 -38.667875 
L 201.873021 -38.667875 
L 201.619258 -38.667875 
L 201.365495 -38.667875 
L 201.111732 -38.667875 
L 200.857968 -38.667875 
L 200.604205 -38.667875 
L 200.350442 -38.667875 
L 200.096679 -38.667875 
L 199.842915 -38.667875 
L 199.589152 -38.667875 
L 199.335389 -38.667875 
L 199.081626 -38.667875 
L 198.827862 -38.667875 
L 198.574099 -38.667875 
L 198.320336 -38.667875 
L 198.066573 -38.667875 
L 197.81281 -38.667875 
L 197.559046 -38.667875 
z
" style="stroke: #bfbfbf; stroke-width: 0.8"/>
    </defs>
    <g clip-path="url(#p49508258b5)">
     <use xlink:href="#m19e818fc2e" x="0" y="363.387875" style="fill: #bfbfbf; stroke: #bfbfbf; stroke-width: 0.8"/>
    </g>
   </g>
   <g id="line2d_16">
    <path d="M 57.989261 22.32 
L 62.810763 36.348193 
L 67.632265 49.725625 
L 72.453766 62.482484 
L 77.529031 75.271958 
L 82.604296 87.437683 
L 87.679561 99.010078 
L 92.754826 110.018081 
L 97.830091 120.489217 
L 102.905356 130.44967 
L 107.980621 139.924346 
L 113.055886 148.936936 
L 118.13115 157.509977 
L 123.206415 165.664906 
L 128.535444 173.799887 
L 133.864472 181.518799 
L 139.1935 188.842921 
L 144.522528 195.792447 
L 149.851556 202.386534 
L 155.434348 208.933191 
L 161.017139 215.129505 
L 166.59993 220.994224 
L 172.182722 226.545094 
L 178.019276 232.030922 
L 183.855831 237.210212 
L 189.692386 242.100094 
L 195.782704 246.911503 
L 201.873021 251.442717 
L 208.217103 255.882363 
L 214.561184 260.053025 
L 221.159028 264.122681 
L 227.756872 267.936224 
L 234.60848 271.642631 
L 241.713851 275.230989 
L 249.072985 278.691966 
L 256.685882 282.017791 
L 264.29878 285.103304 
L 272.16544 288.057639 
L 280.539627 290.960879 
L 289.167578 293.711832 
L 298.049291 296.309732 
L 307.438531 298.819801 
L 317.081535 301.16706 
L 327.232065 303.408419 
L 337.890121 305.532661 
L 349.055704 307.531327 
L 360.982576 309.436854 
L 373.670738 311.232671 
L 387.12019 312.906409 
L 401.330932 314.449757 
L 416.81049 315.902392 
L 433.305101 317.224891 
L 451.322292 318.443888 
L 471.115825 319.555798 
L 492.939464 320.554857 
L 517.300735 321.443582 
L 544.960929 322.225095 
L 565.261989 322.677345 
L 565.261989 322.677345 
" clip-path="url(#p49508258b5)" style="fill: none; stroke: #0173b2; stroke-width: 1.2; stroke-linecap: round"/>
   </g>
   <g id="patch_3">
    <path d="M 32.625625 339.84 
L 32.625625 7.2 
" style="fill: none; stroke: #ffffff; stroke-linejoin: miter; stroke-linecap: square"/>
   </g>
   <g id="patch_4">
    <path d="M 590.625625 339.84 
L 590.625625 7.2 
" style="fill: none; stroke: #ffffff; stroke-linejoin: miter; stroke-linecap: square"/>
   </g>
   <g id="patch_5">
    <path d="M 32.625625 339.84 
L 590.625625 339.84 
" style="fill: none; stroke: #ffffff; stroke-linejoin: miter; stroke-linecap: square"/>
   </g>
   <g id="patch_6">
    <path d="M 32.625625 7.2 
L 590.625625 7.2 
" style="fill: none; stroke: #ffffff; stroke-linejoin: miter; stroke-linecap: square"/>
   </g>
  </g>
 </g>
 <defs>
  <clipPath id="p49508258b5">
   <rect x="32.625625" y="7.2" width="558" height="332.64"/>
  </clipPath>
 </defs>
</svg>