<?xml version="1.0" encoding="utf-8" standalone="no"?>
<!DOCTYPE svg PUBLIC "-//W3C//DTD SVG 1.1//EN"
  "http://www.w3.org/Graphics/SVG/1.1/DTD/svg11.dtd">
<svg xmlns:xlink="http://www.w3.org/1999/xlink" width="1999.289687pt" height="446.095219pt" viewBox="0 0 1999.289687 446.095219" xmlns="http://www.w3.org/2000/svg" version="1.1">
 <metadata>
  <rdf:RDF xmlns:dc="http://purl.org/dc/elements/1.1/" xmlns:cc="http://creativecommons.org/ns#" xmlns:rdf="http://www.w3.org/1999/02/22-rdf-syntax-ns#">
   <cc:Work>
    <dc:type rdf:resource="http://purl.org/dc/dcmitype/StillImage"/>
    <dc:date>2023-05-08T06:59:07.625327</dc:date>
    <dc:format>image/svg+xml</dc:format>
    <dc:creator>
     <cc:Agent>
      <dc:title>Matplotlib v3.7.1, https://matplotlib.org/</dc:title>
     </cc:Agent>
    </dc:creator>
   </cc:Work>
  </rdf:RDF>
 </metadata>
 <defs>
  <style type="text/css">*{stroke-linejoin: round; stroke-linecap: butt}</style>
 </defs>
 <g id="figure_1">
  <g id="patch_1">
   <path d="M 0 446.095219 
L 1999.289687 446.095219 
L 1999.289687 0 
L 0 0 
z
" style="fill: #ffffff"/>
  </g>
  <g id="axes_1">
   <g id="patch_2">
    <path d="M 59.344688 404.361 
L 625.55057 404.361 
L 625.55057 21.825 
L 59.344688 21.825 
z
" style="fill: #eaeaf2"/>
   </g>
   <g id="matplotlib.axis_1">
    <g id="xtick_1">
     <g id="line2d_1">
      <path d="M 59.344688 404.361 
L 59.344688 21.825 
" clip-path="url(#p3db2432963)" style="fill: none; stroke: #ffffff; stroke-linecap: round"/>
     </g>
     <g id="text_1">
      <!-- 0.0 -->
      <g style="fill: #262626" transform="translate(51.699688 421.734594) scale(0.11 -0.11)">
       <defs>
        <path id="ArialMT-30" d="M 266 2259 
Q 266 3072 433 3567 
Q 600 4063 929 4331 
Q 1259 4600 1759 4600 
Q 2128 4600 2406 4451 
Q 2684 4303 2865 4023 
Q 3047 3744 3150 3342 
Q 3253 2941 3253 2259 
Q 3253 1453 3087 958 
Q 2922 463 2592 192 
Q 2263 -78 1759 -78 
Q 1097 -78 719 397 
Q 266 969 266 2259 
z
M 844 2259 
Q 844 1131 1108 757 
Q 1372 384 1759 384 
Q 2147 384 2411 759 
Q 2675 1134 2675 2259 
Q 2675 3391 2411 3762 
Q 2147 4134 1753 4134 
Q 1366 4134 1134 3806 
Q 844 3388 844 2259 
z
" transform="scale(0.015625)"/>
        <path id="ArialMT-2e" d="M 581 0 
L 581 641 
L 1222 641 
L 1222 0 
L 581 0 
z
" transform="scale(0.015625)"/>
       </defs>
       <use xlink:href="#ArialMT-30"/>
       <use xlink:href="#ArialMT-2e" x="55.615234"/>
       <use xlink:href="#ArialMT-30" x="83.398438"/>
      </g>
     </g>
    </g>
    <g id="xtick_2">
     <g id="line2d_2">
      <path d="M 172.585864 404.361 
L 172.585864 21.825 
" clip-path="url(#p3db2432963)" style="fill: none; stroke: #ffffff; stroke-linecap: round"/>
     </g>
     <g id="text_2">
      <!-- 0.2 -->
      <g style="fill: #262626" transform="translate(164.940864 421.734594) scale(0.11 -0.11)">
       <defs>
        <path id="ArialMT-32" d="M 3222 541 
L 3222 0 
L 194 0 
Q 188 203 259 391 
Q 375 700 629 1000 
Q 884 1300 1366 1694 
Q 2113 2306 2375 2664 
Q 2638 3022 2638 3341 
Q 2638 3675 2398 3904 
Q 2159 4134 1775 4134 
Q 1369 4134 1125 3890 
Q 881 3647 878 3216 
L 300 3275 
Q 359 3922 746 4261 
Q 1134 4600 1788 4600 
Q 2447 4600 2831 4234 
Q 3216 3869 3216 3328 
Q 3216 3053 3103 2787 
Q 2991 2522 2730 2228 
Q 2469 1934 1863 1422 
Q 1356 997 1212 845 
Q 1069 694 975 541 
L 3222 541 
z
" transform="scale(0.015625)"/>
       </defs>
       <use xlink:href="#ArialMT-30"/>
       <use xlink:href="#ArialMT-2e" x="55.615234"/>
       <use xlink:href="#ArialMT-32" x="83.398438"/>
      </g>
     </g>
    </g>
    <g id="xtick_3">
     <g id="line2d_3">
      <path d="M 285.82704 404.361 
L 285.82704 21.825 
" clip-path="url(#p3db2432963)" style="fill: none; stroke: #ffffff; stroke-linecap: round"/>
     </g>
     <g id="text_3">
      <!-- 0.4 -->
      <g style="fill: #262626" transform="translate(278.18204 421.734594) scale(0.11 -0.11)">
       <defs>
        <path id="ArialMT-34" d="M 2069 0 
L 2069 1097 
L 81 1097 
L 81 1613 
L 2172 4581 
L 2631 4581 
L 2631 1613 
L 3250 1613 
L 3250 1097 
L 2631 1097 
L 2631 0 
L 2069 0 
z
M 2069 1613 
L 2069 3678 
L 634 1613 
L 2069 1613 
z
" transform="scale(0.015625)"/>
       </defs>
       <use xlink:href="#ArialMT-30"/>
       <use xlink:href="#ArialMT-2e" x="55.615234"/>
       <use xlink:href="#ArialMT-34" x="83.398438"/>
      </g>
     </g>
    </g>
    <g id="xtick_4">
     <g id="line2d_4">
      <path d="M 399.068217 404.361 
L 399.068217 21.825 
" clip-path="url(#p3db2432963)" style="fill: none; stroke: #ffffff; stroke-linecap: round"/>
     </g>
     <g id="text_4">
      <!-- 0.6 -->
      <g style="fill: #262626" transform="translate(391.423217 421.734594) scale(0.11 -0.11)">
       <defs>
        <path id="ArialMT-36" d="M 3184 3459 
L 2625 3416 
Q 2550 3747 2413 3897 
Q 2184 4138 1850 4138 
Q 1581 4138 1378 3988 
Q 1113 3794 959 3422 
Q 806 3050 800 2363 
Q 1003 2672 1297 2822 
Q 1591 2972 1913 2972 
Q 2475 2972 2870 2558 
Q 3266 2144 3266 1488 
Q 3266 1056 3080 686 
Q 2894 316 2569 119 
Q 2244 -78 1831 -78 
Q 1128 -78 684 439 
Q 241 956 241 2144 
Q 241 3472 731 4075 
Q 1159 4600 1884 4600 
Q 2425 4600 2770 4297 
Q 3116 3994 3184 3459 
z
M 888 1484 
Q 888 1194 1011 928 
Q 1134 663 1356 523 
Q 1578 384 1822 384 
Q 2178 384 2434 671 
Q 2691 959 2691 1453 
Q 2691 1928 2437 2201 
Q 2184 2475 1800 2475 
Q 1419 2475 1153 2201 
Q 888 1928 888 1484 
z
" transform="scale(0.015625)"/>
       </defs>
       <use xlink:href="#ArialMT-30"/>
       <use xlink:href="#ArialMT-2e" x="55.615234"/>
       <use xlink:href="#ArialMT-36" x="83.398438"/>
      </g>
     </g>
    </g>
    <g id="xtick_5">
     <g id="line2d_5">
      <path d="M 512.309393 404.361 
L 512.309393 21.825 
" clip-path="url(#p3db2432963)" style="fill: none; stroke: #ffffff; stroke-linecap: round"/>
     </g>
     <g id="text_5">
      <!-- 0.8 -->
      <g style="fill: #262626" transform="translate(504.664393 421.734594) scale(0.11 -0.11)">
       <defs>
        <path id="ArialMT-38" d="M 1131 2484 
Q 781 2613 612 2850 
Q 444 3088 444 3419 
Q 444 3919 803 4259 
Q 1163 4600 1759 4600 
Q 2359 4600 2725 4251 
Q 3091 3903 3091 3403 
Q 3091 3084 2923 2848 
Q 2756 2613 2416 2484 
Q 2838 2347 3058 2040 
Q 3278 1734 3278 1309 
Q 3278 722 2862 322 
Q 2447 -78 1769 -78 
Q 1091 -78 675 323 
Q 259 725 259 1325 
Q 259 1772 486 2073 
Q 713 2375 1131 2484 
z
M 1019 3438 
Q 1019 3113 1228 2906 
Q 1438 2700 1772 2700 
Q 2097 2700 2305 2904 
Q 2513 3109 2513 3406 
Q 2513 3716 2298 3927 
Q 2084 4138 1766 4138 
Q 1444 4138 1231 3931 
Q 1019 3725 1019 3438 
z
M 838 1322 
Q 838 1081 952 856 
Q 1066 631 1291 507 
Q 1516 384 1775 384 
Q 2178 384 2440 643 
Q 2703 903 2703 1303 
Q 2703 1709 2433 1975 
Q 2163 2241 1756 2241 
Q 1359 2241 1098 1978 
Q 838 1716 838 1322 
z
" transform="scale(0.015625)"/>
       </defs>
       <use xlink:href="#ArialMT-30"/>
       <use xlink:href="#ArialMT-2e" x="55.615234"/>
       <use xlink:href="#ArialMT-38" x="83.398438"/>
      </g>
     </g>
    </g>
    <g id="xtick_6">
     <g id="line2d_6">
      <path d="M 625.55057 404.361 
L 625.55057 21.825 
" clip-path="url(#p3db2432963)" style="fill: none; stroke: #ffffff; stroke-linecap: round"/>
     </g>
     <g id="text_6">
      <!-- 1.0 -->
      <g style="fill: #262626" transform="translate(617.90557 421.734594) scale(0.11 -0.11)">
       <defs>
        <path id="ArialMT-31" d="M 2384 0 
L 1822 0 
L 1822 3584 
Q 1619 3391 1289 3197 
Q 959 3003 697 2906 
L 697 3450 
Q 1169 3672 1522 3987 
Q 1875 4303 2022 4600 
L 2384 4600 
L 2384 0 
z
" transform="scale(0.015625)"/>
       </defs>
       <use xlink:href="#ArialMT-31"/>
       <use xlink:href="#ArialMT-2e" x="55.615234"/>
       <use xlink:href="#ArialMT-30" x="83.398438"/>
      </g>
     </g>
    </g>
    <g id="text_7">
     <!-- Quantile -->
     <g style="fill: #262626" transform="translate(320.101379 436.510219) scale(0.12 -0.12)">
      <defs>
       <path id="ArialMT-51" d="M 3966 491 
Q 4388 200 4744 66 
L 4566 -356 
Q 4072 -178 3581 206 
Q 3072 -78 2456 -78 
Q 1834 -78 1328 222 
Q 822 522 548 1065 
Q 275 1609 275 2291 
Q 275 2969 550 3525 
Q 825 4081 1333 4372 
Q 1841 4663 2469 4663 
Q 3103 4663 3612 4361 
Q 4122 4059 4389 3517 
Q 4656 2975 4656 2294 
Q 4656 1728 4484 1276 
Q 4313 825 3966 491 
z
M 2631 1266 
Q 3156 1119 3497 828 
Q 4031 1316 4031 2294 
Q 4031 2850 3842 3265 
Q 3653 3681 3289 3911 
Q 2925 4141 2472 4141 
Q 1794 4141 1347 3677 
Q 900 3213 900 2291 
Q 900 1397 1342 919 
Q 1784 441 2472 441 
Q 2797 441 3084 563 
Q 2800 747 2484 825 
L 2631 1266 
z
" transform="scale(0.015625)"/>
       <path id="ArialMT-75" d="M 2597 0 
L 2597 488 
Q 2209 -75 1544 -75 
Q 1250 -75 995 37 
Q 741 150 617 320 
Q 494 491 444 738 
Q 409 903 409 1263 
L 409 3319 
L 972 3319 
L 972 1478 
Q 972 1038 1006 884 
Q 1059 663 1231 536 
Q 1403 409 1656 409 
Q 1909 409 2131 539 
Q 2353 669 2445 892 
Q 2538 1116 2538 1541 
L 2538 3319 
L 3100 3319 
L 3100 0 
L 2597 0 
z
" transform="scale(0.015625)"/>
       <path id="ArialMT-61" d="M 2588 409 
Q 2275 144 1986 34 
Q 1697 -75 1366 -75 
Q 819 -75 525 192 
Q 231 459 231 875 
Q 231 1119 342 1320 
Q 453 1522 633 1644 
Q 813 1766 1038 1828 
Q 1203 1872 1538 1913 
Q 2219 1994 2541 2106 
Q 2544 2222 2544 2253 
Q 2544 2597 2384 2738 
Q 2169 2928 1744 2928 
Q 1347 2928 1158 2789 
Q 969 2650 878 2297 
L 328 2372 
Q 403 2725 575 2942 
Q 747 3159 1072 3276 
Q 1397 3394 1825 3394 
Q 2250 3394 2515 3294 
Q 2781 3194 2906 3042 
Q 3031 2891 3081 2659 
Q 3109 2516 3109 2141 
L 3109 1391 
Q 3109 606 3145 398 
Q 3181 191 3288 0 
L 2700 0 
Q 2613 175 2588 409 
z
M 2541 1666 
Q 2234 1541 1622 1453 
Q 1275 1403 1131 1340 
Q 988 1278 909 1158 
Q 831 1038 831 891 
Q 831 666 1001 516 
Q 1172 366 1500 366 
Q 1825 366 2078 508 
Q 2331 650 2450 897 
Q 2541 1088 2541 1459 
L 2541 1666 
z
" transform="scale(0.015625)"/>
       <path id="ArialMT-6e" d="M 422 0 
L 422 3319 
L 928 3319 
L 928 2847 
Q 1294 3394 1984 3394 
Q 2284 3394 2536 3286 
Q 2788 3178 2913 3003 
Q 3038 2828 3088 2588 
Q 3119 2431 3119 2041 
L 3119 0 
L 2556 0 
L 2556 2019 
Q 2556 2363 2490 2533 
Q 2425 2703 2258 2804 
Q 2091 2906 1866 2906 
Q 1506 2906 1245 2678 
Q 984 2450 984 1813 
L 984 0 
L 422 0 
z
" transform="scale(0.015625)"/>
       <path id="ArialMT-74" d="M 1650 503 
L 1731 6 
Q 1494 -44 1306 -44 
Q 1000 -44 831 53 
Q 663 150 594 308 
Q 525 466 525 972 
L 525 2881 
L 113 2881 
L 113 3319 
L 525 3319 
L 525 4141 
L 1084 4478 
L 1084 3319 
L 1650 3319 
L 1650 2881 
L 1084 2881 
L 1084 941 
Q 1084 700 1114 631 
Q 1144 563 1211 522 
Q 1278 481 1403 481 
Q 1497 481 1650 503 
z
" transform="scale(0.015625)"/>
       <path id="ArialMT-69" d="M 425 3934 
L 425 4581 
L 988 4581 
L 988 3934 
L 425 3934 
z
M 425 0 
L 425 3319 
L 988 3319 
L 988 0 
L 425 0 
z
" transform="scale(0.015625)"/>
       <path id="ArialMT-6c" d="M 409 0 
L 409 4581 
L 972 4581 
L 972 0 
L 409 0 
z
" transform="scale(0.015625)"/>
       <path id="ArialMT-65" d="M 2694 1069 
L 3275 997 
Q 3138 488 2766 206 
Q 2394 -75 1816 -75 
Q 1088 -75 661 373 
Q 234 822 234 1631 
Q 234 2469 665 2931 
Q 1097 3394 1784 3394 
Q 2450 3394 2872 2941 
Q 3294 2488 3294 1666 
Q 3294 1616 3291 1516 
L 816 1516 
Q 847 969 1125 678 
Q 1403 388 1819 388 
Q 2128 388 2347 550 
Q 2566 713 2694 1069 
z
M 847 1978 
L 2700 1978 
Q 2663 2397 2488 2606 
Q 2219 2931 1791 2931 
Q 1403 2931 1139 2672 
Q 875 2413 847 1978 
z
" transform="scale(0.015625)"/>
      </defs>
      <use xlink:href="#ArialMT-51"/>
      <use xlink:href="#ArialMT-75" x="77.783203"/>
      <use xlink:href="#ArialMT-61" x="133.398438"/>
      <use xlink:href="#ArialMT-6e" x="189.013672"/>
      <use xlink:href="#ArialMT-74" x="244.628906"/>
      <use xlink:href="#ArialMT-69" x="272.412109"/>
      <use xlink:href="#ArialMT-6c" x="294.628906"/>
      <use xlink:href="#ArialMT-65" x="316.845703"/>
     </g>
    </g>
   </g>
   <g id="matplotlib.axis_2">
    <g id="ytick_1">
     <g id="line2d_7">
      <path d="M 59.344688 404.361 
L 625.55057 404.361 
" clip-path="url(#p3db2432963)" style="fill: none; stroke: #ffffff; stroke-linecap: round"/>
     </g>
     <g id="text_8">
      <!-- 0.000 -->
      <g style="fill: #262626" transform="translate(22.320625 408.297797) scale(0.11 -0.11)">
       <use xlink:href="#ArialMT-30"/>
       <use xlink:href="#ArialMT-2e" x="55.615234"/>
       <use xlink:href="#ArialMT-30" x="83.398438"/>
       <use xlink:href="#ArialMT-30" x="139.013672"/>
       <use xlink:href="#ArialMT-30" x="194.628906"/>
      </g>
     </g>
    </g>
    <g id="ytick_2">
     <g id="line2d_8">
      <path d="M 59.344688 340.837928 
L 625.55057 340.837928 
" clip-path="url(#p3db2432963)" style="fill: none; stroke: #ffffff; stroke-linecap: round"/>
     </g>
     <g id="text_9">
      <!-- 0.001 -->
      <g style="fill: #262626" transform="translate(22.320625 344.774724) scale(0.11 -0.11)">
       <use xlink:href="#ArialMT-30"/>
       <use xlink:href="#ArialMT-2e" x="55.615234"/>
       <use xlink:href="#ArialMT-30" x="83.398438"/>
       <use xlink:href="#ArialMT-30" x="139.013672"/>
       <use xlink:href="#ArialMT-31" x="194.628906"/>
      </g>
     </g>
    </g>
    <g id="ytick_3">
     <g id="line2d_9">
      <path d="M 59.344688 277.314855 
L 625.55057 277.314855 
" clip-path="url(#p3db2432963)" style="fill: none; stroke: #ffffff; stroke-linecap: round"/>
     </g>
     <g id="text_10">
      <!-- 0.002 -->
      <g style="fill: #262626" transform="translate(22.320625 281.251652) scale(0.11 -0.11)">
       <use xlink:href="#ArialMT-30"/>
       <use xlink:href="#ArialMT-2e" x="55.615234"/>
       <use xlink:href="#ArialMT-30" x="83.398438"/>
       <use xlink:href="#ArialMT-30" x="139.013672"/>
       <use xlink:href="#ArialMT-32" x="194.628906"/>
      </g>
     </g>
    </g>
    <g id="ytick_4">
     <g id="line2d_10">
      <path d="M 59.344688 213.791783 
L 625.55057 213.791783 
" clip-path="url(#p3db2432963)" style="fill: none; stroke: #ffffff; stroke-linecap: round"/>
     </g>
     <g id="text_11">
      <!-- 0.003 -->
      <g style="fill: #262626" transform="translate(22.320625 217.72858) scale(0.11 -0.11)">
       <defs>
        <path id="ArialMT-33" d="M 269 1209 
L 831 1284 
Q 928 806 1161 595 
Q 1394 384 1728 384 
Q 2125 384 2398 659 
Q 2672 934 2672 1341 
Q 2672 1728 2419 1979 
Q 2166 2231 1775 2231 
Q 1616 2231 1378 2169 
L 1441 2663 
Q 1497 2656 1531 2656 
Q 1891 2656 2178 2843 
Q 2466 3031 2466 3422 
Q 2466 3731 2256 3934 
Q 2047 4138 1716 4138 
Q 1388 4138 1169 3931 
Q 950 3725 888 3313 
L 325 3413 
Q 428 3978 793 4289 
Q 1159 4600 1703 4600 
Q 2078 4600 2393 4439 
Q 2709 4278 2876 4000 
Q 3044 3722 3044 3409 
Q 3044 3113 2884 2869 
Q 2725 2625 2413 2481 
Q 2819 2388 3044 2092 
Q 3269 1797 3269 1353 
Q 3269 753 2831 336 
Q 2394 -81 1725 -81 
Q 1122 -81 723 278 
Q 325 638 269 1209 
z
" transform="scale(0.015625)"/>
       </defs>
       <use xlink:href="#ArialMT-30"/>
       <use xlink:href="#ArialMT-2e" x="55.615234"/>
       <use xlink:href="#ArialMT-30" x="83.398438"/>
       <use xlink:href="#ArialMT-30" x="139.013672"/>
       <use xlink:href="#ArialMT-33" x="194.628906"/>
      </g>
     </g>
    </g>
    <g id="ytick_5">
     <g id="line2d_11">
      <path d="M 59.344688 150.26871 
L 625.55057 150.26871 
" clip-path="url(#p3db2432963)" style="fill: none; stroke: #ffffff; stroke-linecap: round"/>
     </g>
     <g id="text_12">
      <!-- 0.004 -->
      <g style="fill: #262626" transform="translate(22.320625 154.205507) scale(0.11 -0.11)">
       <use xlink:href="#ArialMT-30"/>
       <use xlink:href="#ArialMT-2e" x="55.615234"/>
       <use xlink:href="#ArialMT-30" x="83.398438"/>
       <use xlink:href="#ArialMT-30" x="139.013672"/>
       <use xlink:href="#ArialMT-34" x="194.628906"/>
      </g>
     </g>
    </g>
    <g id="ytick_6">
     <g id="line2d_12">
      <path d="M 59.344688 86.745638 
L 625.55057 86.745638 
" clip-path="url(#p3db2432963)" style="fill: none; stroke: #ffffff; stroke-linecap: round"/>
     </g>
     <g id="text_13">
      <!-- 0.005 -->
      <g style="fill: #262626" transform="translate(22.320625 90.682435) scale(0.11 -0.11)">
       <defs>
        <path id="ArialMT-35" d="M 266 1200 
L 856 1250 
Q 922 819 1161 601 
Q 1400 384 1738 384 
Q 2144 384 2425 690 
Q 2706 997 2706 1503 
Q 2706 1984 2436 2262 
Q 2166 2541 1728 2541 
Q 1456 2541 1237 2417 
Q 1019 2294 894 2097 
L 366 2166 
L 809 4519 
L 3088 4519 
L 3088 3981 
L 1259 3981 
L 1013 2750 
Q 1425 3038 1878 3038 
Q 2478 3038 2890 2622 
Q 3303 2206 3303 1553 
Q 3303 931 2941 478 
Q 2500 -78 1738 -78 
Q 1113 -78 717 272 
Q 322 622 266 1200 
z
" transform="scale(0.015625)"/>
       </defs>
       <use xlink:href="#ArialMT-30"/>
       <use xlink:href="#ArialMT-2e" x="55.615234"/>
       <use xlink:href="#ArialMT-30" x="83.398438"/>
       <use xlink:href="#ArialMT-30" x="139.013672"/>
       <use xlink:href="#ArialMT-35" x="194.628906"/>
      </g>
     </g>
    </g>
    <g id="ytick_7">
     <g id="line2d_13">
      <path d="M 59.344688 23.222566 
L 625.55057 23.222566 
" clip-path="url(#p3db2432963)" style="fill: none; stroke: #ffffff; stroke-linecap: round"/>
     </g>
     <g id="text_14">
      <!-- 0.006 -->
      <g style="fill: #262626" transform="translate(22.320625 27.159363) scale(0.11 -0.11)">
       <use xlink:href="#ArialMT-30"/>
       <use xlink:href="#ArialMT-2e" x="55.615234"/>
       <use xlink:href="#ArialMT-30" x="83.398438"/>
       <use xlink:href="#ArialMT-30" x="139.013672"/>
       <use xlink:href="#ArialMT-36" x="194.628906"/>
      </g>
     </g>
    </g>
    <g id="text_15">
     <!-- MCSE for quantiles -->
     <g style="fill: #262626" transform="translate(15.935625 264.77925) rotate(-90) scale(0.12 -0.12)">
      <defs>
       <path id="ArialMT-4d" d="M 475 0 
L 475 4581 
L 1388 4581 
L 2472 1338 
Q 2622 884 2691 659 
Q 2769 909 2934 1394 
L 4031 4581 
L 4847 4581 
L 4847 0 
L 4263 0 
L 4263 3834 
L 2931 0 
L 2384 0 
L 1059 3900 
L 1059 0 
L 475 0 
z
" transform="scale(0.015625)"/>
       <path id="ArialMT-43" d="M 3763 1606 
L 4369 1453 
Q 4178 706 3683 314 
Q 3188 -78 2472 -78 
Q 1731 -78 1267 223 
Q 803 525 561 1097 
Q 319 1669 319 2325 
Q 319 3041 592 3573 
Q 866 4106 1370 4382 
Q 1875 4659 2481 4659 
Q 3169 4659 3637 4309 
Q 4106 3959 4291 3325 
L 3694 3184 
Q 3534 3684 3231 3912 
Q 2928 4141 2469 4141 
Q 1941 4141 1586 3887 
Q 1231 3634 1087 3207 
Q 944 2781 944 2328 
Q 944 1744 1114 1308 
Q 1284 872 1643 656 
Q 2003 441 2422 441 
Q 2931 441 3284 734 
Q 3638 1028 3763 1606 
z
" transform="scale(0.015625)"/>
       <path id="ArialMT-53" d="M 288 1472 
L 859 1522 
Q 900 1178 1048 958 
Q 1197 738 1509 602 
Q 1822 466 2213 466 
Q 2559 466 2825 569 
Q 3091 672 3220 851 
Q 3350 1031 3350 1244 
Q 3350 1459 3225 1620 
Q 3100 1781 2813 1891 
Q 2628 1963 1997 2114 
Q 1366 2266 1113 2400 
Q 784 2572 623 2826 
Q 463 3081 463 3397 
Q 463 3744 659 4045 
Q 856 4347 1234 4503 
Q 1613 4659 2075 4659 
Q 2584 4659 2973 4495 
Q 3363 4331 3572 4012 
Q 3781 3694 3797 3291 
L 3216 3247 
Q 3169 3681 2898 3903 
Q 2628 4125 2100 4125 
Q 1550 4125 1298 3923 
Q 1047 3722 1047 3438 
Q 1047 3191 1225 3031 
Q 1400 2872 2139 2705 
Q 2878 2538 3153 2413 
Q 3553 2228 3743 1945 
Q 3934 1663 3934 1294 
Q 3934 928 3725 604 
Q 3516 281 3123 101 
Q 2731 -78 2241 -78 
Q 1619 -78 1198 103 
Q 778 284 539 648 
Q 300 1013 288 1472 
z
" transform="scale(0.015625)"/>
       <path id="ArialMT-45" d="M 506 0 
L 506 4581 
L 3819 4581 
L 3819 4041 
L 1113 4041 
L 1113 2638 
L 3647 2638 
L 3647 2100 
L 1113 2100 
L 1113 541 
L 3925 541 
L 3925 0 
L 506 0 
z
" transform="scale(0.015625)"/>
       <path id="ArialMT-20" transform="scale(0.015625)"/>
       <path id="ArialMT-66" d="M 556 0 
L 556 2881 
L 59 2881 
L 59 3319 
L 556 3319 
L 556 3672 
Q 556 4006 616 4169 
Q 697 4388 901 4523 
Q 1106 4659 1475 4659 
Q 1713 4659 2000 4603 
L 1916 4113 
Q 1741 4144 1584 4144 
Q 1328 4144 1222 4034 
Q 1116 3925 1116 3625 
L 1116 3319 
L 1763 3319 
L 1763 2881 
L 1116 2881 
L 1116 0 
L 556 0 
z
" transform="scale(0.015625)"/>
       <path id="ArialMT-6f" d="M 213 1659 
Q 213 2581 725 3025 
Q 1153 3394 1769 3394 
Q 2453 3394 2887 2945 
Q 3322 2497 3322 1706 
Q 3322 1066 3130 698 
Q 2938 331 2570 128 
Q 2203 -75 1769 -75 
Q 1072 -75 642 372 
Q 213 819 213 1659 
z
M 791 1659 
Q 791 1022 1069 705 
Q 1347 388 1769 388 
Q 2188 388 2466 706 
Q 2744 1025 2744 1678 
Q 2744 2294 2464 2611 
Q 2184 2928 1769 2928 
Q 1347 2928 1069 2612 
Q 791 2297 791 1659 
z
" transform="scale(0.015625)"/>
       <path id="ArialMT-72" d="M 416 0 
L 416 3319 
L 922 3319 
L 922 2816 
Q 1116 3169 1280 3281 
Q 1444 3394 1641 3394 
Q 1925 3394 2219 3213 
L 2025 2691 
Q 1819 2813 1613 2813 
Q 1428 2813 1281 2702 
Q 1134 2591 1072 2394 
Q 978 2094 978 1738 
L 978 0 
L 416 0 
z
" transform="scale(0.015625)"/>
       <path id="ArialMT-71" d="M 2538 -1272 
L 2538 353 
Q 2406 169 2170 47 
Q 1934 -75 1669 -75 
Q 1078 -75 651 397 
Q 225 869 225 1691 
Q 225 2191 398 2587 
Q 572 2984 901 3189 
Q 1231 3394 1625 3394 
Q 2241 3394 2594 2875 
L 2594 3319 
L 3100 3319 
L 3100 -1272 
L 2538 -1272 
z
M 803 1669 
Q 803 1028 1072 708 
Q 1341 388 1716 388 
Q 2075 388 2334 692 
Q 2594 997 2594 1619 
Q 2594 2281 2320 2615 
Q 2047 2950 1678 2950 
Q 1313 2950 1058 2639 
Q 803 2328 803 1669 
z
" transform="scale(0.015625)"/>
       <path id="ArialMT-73" d="M 197 991 
L 753 1078 
Q 800 744 1014 566 
Q 1228 388 1613 388 
Q 2000 388 2187 545 
Q 2375 703 2375 916 
Q 2375 1106 2209 1216 
Q 2094 1291 1634 1406 
Q 1016 1563 777 1677 
Q 538 1791 414 1992 
Q 291 2194 291 2438 
Q 291 2659 392 2848 
Q 494 3038 669 3163 
Q 800 3259 1026 3326 
Q 1253 3394 1513 3394 
Q 1903 3394 2198 3281 
Q 2494 3169 2634 2976 
Q 2775 2784 2828 2463 
L 2278 2388 
Q 2241 2644 2061 2787 
Q 1881 2931 1553 2931 
Q 1166 2931 1000 2803 
Q 834 2675 834 2503 
Q 834 2394 903 2306 
Q 972 2216 1119 2156 
Q 1203 2125 1616 2013 
Q 2213 1853 2448 1751 
Q 2684 1650 2818 1456 
Q 2953 1263 2953 975 
Q 2953 694 2789 445 
Q 2625 197 2315 61 
Q 2006 -75 1616 -75 
Q 969 -75 630 194 
Q 291 463 197 991 
z
" transform="scale(0.015625)"/>
      </defs>
      <use xlink:href="#ArialMT-4d"/>
      <use xlink:href="#ArialMT-43" x="83.300781"/>
      <use xlink:href="#ArialMT-53" x="155.517578"/>
      <use xlink:href="#ArialMT-45" x="222.216797"/>
      <use xlink:href="#ArialMT-20" x="288.916016"/>
      <use xlink:href="#ArialMT-66" x="316.699219"/>
      <use xlink:href="#ArialMT-6f" x="344.482422"/>
      <use xlink:href="#ArialMT-72" x="400.097656"/>
      <use xlink:href="#ArialMT-20" x="433.398438"/>
      <use xlink:href="#ArialMT-71" x="461.181641"/>
      <use xlink:href="#ArialMT-75" x="516.796875"/>
      <use xlink:href="#ArialMT-61" x="572.412109"/>
      <use xlink:href="#ArialMT-6e" x="628.027344"/>
      <use xlink:href="#ArialMT-74" x="683.642578"/>
      <use xlink:href="#ArialMT-69" x="711.425781"/>
      <use xlink:href="#ArialMT-6c" x="733.642578"/>
      <use xlink:href="#ArialMT-65" x="755.859375"/>
      <use xlink:href="#ArialMT-73" x="811.474609"/>
     </g>
    </g>
   </g>
   <g id="patch_3">
    <path d="M 59.344688 404.361 
L 59.344688 21.825 
" style="fill: none; stroke: #ffffff; stroke-width: 1.25; stroke-linejoin: miter; stroke-linecap: square"/>
   </g>
   <g id="patch_4">
    <path d="M 625.55057 404.361 
L 625.55057 21.825 
" style="fill: none; stroke: #ffffff; stroke-width: 1.25; stroke-linejoin: miter; stroke-linecap: square"/>
   </g>
   <g id="patch_5">
    <path d="M 59.344688 404.361 
L 625.55057 404.361 
" style="fill: none; stroke: #ffffff; stroke-width: 1.25; stroke-linejoin: miter; stroke-linecap: square"/>
   </g>
   <g id="patch_6">
    <path d="M 59.344688 21.825 
L 625.55057 21.825 
" style="fill: none; stroke: #ffffff; stroke-width: 1.25; stroke-linejoin: miter; stroke-linecap: square"/>
   </g>
   <g id="line2d_14">
    <defs>
     <path id="mcf3a9f292e" d="M 0 3 
C 0.795609 3 1.55874 2.683901 2.12132 2.12132 
C 2.683901 1.55874 3 0.795609 3 0 
C 3 -0.795609 2.683901 -1.55874 2.12132 -2.12132 
C 1.55874 -2.683901 0.795609 -3 0 -3 
C -0.795609 -3 -1.55874 -2.683901 -2.12132 -2.12132 
C -2.683901 -1.55874 -3 -0.795609 -3 0 
C -3 0.795609 -2.683901 1.55874 -2.12132 2.12132 
C -1.55874 2.683901 -0.795609 3 0 3 
z
" style="stroke: #0173b2"/>
    </defs>
    <g clip-path="url(#p3db2432963)">
     <use xlink:href="#mcf3a9f292e" x="87.654982" y="236.920195" style="fill: #0173b2; stroke: #0173b2"/>
     <use xlink:href="#mcf3a9f292e" x="114.47526" y="199.251079" style="fill: #0173b2; stroke: #0173b2"/>
     <use xlink:href="#mcf3a9f292e" x="141.295539" y="229.817156" style="fill: #0173b2; stroke: #0173b2"/>
     <use xlink:href="#mcf3a9f292e" x="168.115818" y="259.433117" style="fill: #0173b2; stroke: #0173b2"/>
     <use xlink:href="#mcf3a9f292e" x="194.936096" y="254.602517" style="fill: #0173b2; stroke: #0173b2"/>
     <use xlink:href="#mcf3a9f292e" x="221.756375" y="170.104047" style="fill: #0173b2; stroke: #0173b2"/>
     <use xlink:href="#mcf3a9f292e" x="248.576653" y="204.194599" style="fill: #0173b2; stroke: #0173b2"/>
     <use xlink:href="#mcf3a9f292e" x="275.396932" y="119.749222" style="fill: #0173b2; stroke: #0173b2"/>
     <use xlink:href="#mcf3a9f292e" x="302.217211" y="241.762891" style="fill: #0173b2; stroke: #0173b2"/>
     <use xlink:href="#mcf3a9f292e" x="329.037489" y="141.806137" style="fill: #0173b2; stroke: #0173b2"/>
     <use xlink:href="#mcf3a9f292e" x="355.857768" y="184.364862" style="fill: #0173b2; stroke: #0173b2"/>
     <use xlink:href="#mcf3a9f292e" x="382.678047" y="191.655066" style="fill: #0173b2; stroke: #0173b2"/>
     <use xlink:href="#mcf3a9f292e" x="409.498325" y="158.322392" style="fill: #0173b2; stroke: #0173b2"/>
     <use xlink:href="#mcf3a9f292e" x="436.318604" y="149.835176" style="fill: #0173b2; stroke: #0173b2"/>
     <use xlink:href="#mcf3a9f292e" x="463.138883" y="153.516277" style="fill: #0173b2; stroke: #0173b2"/>
     <use xlink:href="#mcf3a9f292e" x="489.959161" y="165.342693" style="fill: #0173b2; stroke: #0173b2"/>
     <use xlink:href="#mcf3a9f292e" x="516.77944" y="46.84109" style="fill: #0173b2; stroke: #0173b2"/>
     <use xlink:href="#mcf3a9f292e" x="543.599718" y="51.946269" style="fill: #0173b2; stroke: #0173b2"/>
     <use xlink:href="#mcf3a9f292e" x="570.419997" y="84.182085" style="fill: #0173b2; stroke: #0173b2"/>
     <use xlink:href="#mcf3a9f292e" x="597.240276" y="33.139672" style="fill: #0173b2; stroke: #0173b2"/>
    </g>
   </g>
   <g id="text_16">
    <!-- good_chains -->
    <g style="fill: #262626" transform="translate(308.422004 15.825) scale(0.12 -0.12)">
     <defs>
      <path id="ArialMT-67" d="M 319 -275 
L 866 -356 
Q 900 -609 1056 -725 
Q 1266 -881 1628 -881 
Q 2019 -881 2231 -725 
Q 2444 -569 2519 -288 
Q 2563 -116 2559 434 
Q 2191 0 1641 0 
Q 956 0 581 494 
Q 206 988 206 1678 
Q 206 2153 378 2554 
Q 550 2956 876 3175 
Q 1203 3394 1644 3394 
Q 2231 3394 2613 2919 
L 2613 3319 
L 3131 3319 
L 3131 450 
Q 3131 -325 2973 -648 
Q 2816 -972 2473 -1159 
Q 2131 -1347 1631 -1347 
Q 1038 -1347 672 -1080 
Q 306 -813 319 -275 
z
M 784 1719 
Q 784 1066 1043 766 
Q 1303 466 1694 466 
Q 2081 466 2343 764 
Q 2606 1063 2606 1700 
Q 2606 2309 2336 2618 
Q 2066 2928 1684 2928 
Q 1309 2928 1046 2623 
Q 784 2319 784 1719 
z
" transform="scale(0.015625)"/>
      <path id="ArialMT-64" d="M 2575 0 
L 2575 419 
Q 2259 -75 1647 -75 
Q 1250 -75 917 144 
Q 584 363 401 755 
Q 219 1147 219 1656 
Q 219 2153 384 2558 
Q 550 2963 881 3178 
Q 1213 3394 1622 3394 
Q 1922 3394 2156 3267 
Q 2391 3141 2538 2938 
L 2538 4581 
L 3097 4581 
L 3097 0 
L 2575 0 
z
M 797 1656 
Q 797 1019 1065 703 
Q 1334 388 1700 388 
Q 2069 388 2326 689 
Q 2584 991 2584 1609 
Q 2584 2291 2321 2609 
Q 2059 2928 1675 2928 
Q 1300 2928 1048 2622 
Q 797 2316 797 1656 
z
" transform="scale(0.015625)"/>
      <path id="ArialMT-5f" d="M -97 -1272 
L -97 -866 
L 3631 -866 
L 3631 -1272 
L -97 -1272 
z
" transform="scale(0.015625)"/>
      <path id="ArialMT-63" d="M 2588 1216 
L 3141 1144 
Q 3050 572 2676 248 
Q 2303 -75 1759 -75 
Q 1078 -75 664 370 
Q 250 816 250 1647 
Q 250 2184 428 2587 
Q 606 2991 970 3192 
Q 1334 3394 1763 3394 
Q 2303 3394 2647 3120 
Q 2991 2847 3088 2344 
L 2541 2259 
Q 2463 2594 2264 2762 
Q 2066 2931 1784 2931 
Q 1359 2931 1093 2626 
Q 828 2322 828 1663 
Q 828 994 1084 691 
Q 1341 388 1753 388 
Q 2084 388 2306 591 
Q 2528 794 2588 1216 
z
" transform="scale(0.015625)"/>
      <path id="ArialMT-68" d="M 422 0 
L 422 4581 
L 984 4581 
L 984 2938 
Q 1378 3394 1978 3394 
Q 2347 3394 2619 3248 
Q 2891 3103 3008 2847 
Q 3125 2591 3125 2103 
L 3125 0 
L 2563 0 
L 2563 2103 
Q 2563 2525 2380 2717 
Q 2197 2909 1863 2909 
Q 1613 2909 1392 2779 
Q 1172 2650 1078 2428 
Q 984 2206 984 1816 
L 984 0 
L 422 0 
z
" transform="scale(0.015625)"/>
     </defs>
     <use xlink:href="#ArialMT-67"/>
     <use xlink:href="#ArialMT-6f" x="55.615234"/>
     <use xlink:href="#ArialMT-6f" x="111.230469"/>
     <use xlink:href="#ArialMT-64" x="166.845703"/>
     <use xlink:href="#ArialMT-5f" x="222.460938"/>
     <use xlink:href="#ArialMT-63" x="278.076172"/>
     <use xlink:href="#ArialMT-68" x="328.076172"/>
     <use xlink:href="#ArialMT-61" x="383.691406"/>
     <use xlink:href="#ArialMT-69" x="439.306641"/>
     <use xlink:href="#ArialMT-6e" x="461.523438"/>
     <use xlink:href="#ArialMT-73" x="517.138672"/>
    </g>
   </g>
  </g>
  <g id="axes_2">
   <g id="patch_7">
    <path d="M 738.791746 404.361 
L 1304.997629 404.361 
L 1304.997629 21.825 
L 738.791746 21.825 
z
" style="fill: #eaeaf2"/>
   </g>
   <g id="matplotlib.axis_3">
    <g id="xtick_7">
     <g id="line2d_15">
      <path d="M 738.791746 404.361 
L 738.791746 21.825 
" clip-path="url(#paf04fe356f)" style="fill: none; stroke: #ffffff; stroke-linecap: round"/>
     </g>
     <g id="text_17">
      <!-- 0.0 -->
      <g style="fill: #262626" transform="translate(731.146746 421.734594) scale(0.11 -0.11)">
       <use xlink:href="#ArialMT-30"/>
       <use xlink:href="#ArialMT-2e" x="55.615234"/>
       <use xlink:href="#ArialMT-30" x="83.398438"/>
      </g>
     </g>
    </g>
    <g id="xtick_8">
     <g id="line2d_16">
      <path d="M 852.032923 404.361 
L 852.032923 21.825 
" clip-path="url(#paf04fe356f)" style="fill: none; stroke: #ffffff; stroke-linecap: round"/>
     </g>
     <g id="text_18">
      <!-- 0.2 -->
      <g style="fill: #262626" transform="translate(844.387923 421.734594) scale(0.11 -0.11)">
       <use xlink:href="#ArialMT-30"/>
       <use xlink:href="#ArialMT-2e" x="55.615234"/>
       <use xlink:href="#ArialMT-32" x="83.398438"/>
      </g>
     </g>
    </g>
    <g id="xtick_9">
     <g id="line2d_17">
      <path d="M 965.274099 404.361 
L 965.274099 21.825 
" clip-path="url(#paf04fe356f)" style="fill: none; stroke: #ffffff; stroke-linecap: round"/>
     </g>
     <g id="text_19">
      <!-- 0.4 -->
      <g style="fill: #262626" transform="translate(957.629099 421.734594) scale(0.11 -0.11)">
       <use xlink:href="#ArialMT-30"/>
       <use xlink:href="#ArialMT-2e" x="55.615234"/>
       <use xlink:href="#ArialMT-34" x="83.398438"/>
      </g>
     </g>
    </g>
    <g id="xtick_10">
     <g id="line2d_18">
      <path d="M 1078.515276 404.361 
L 1078.515276 21.825 
" clip-path="url(#paf04fe356f)" style="fill: none; stroke: #ffffff; stroke-linecap: round"/>
     </g>
     <g id="text_20">
      <!-- 0.6 -->
      <g style="fill: #262626" transform="translate(1070.870276 421.734594) scale(0.11 -0.11)">
       <use xlink:href="#ArialMT-30"/>
       <use xlink:href="#ArialMT-2e" x="55.615234"/>
       <use xlink:href="#ArialMT-36" x="83.398438"/>
      </g>
     </g>
    </g>
    <g id="xtick_11">
     <g id="line2d_19">
      <path d="M 1191.756452 404.361 
L 1191.756452 21.825 
" clip-path="url(#paf04fe356f)" style="fill: none; stroke: #ffffff; stroke-linecap: round"/>
     </g>
     <g id="text_21">
      <!-- 0.8 -->
      <g style="fill: #262626" transform="translate(1184.111452 421.734594) scale(0.11 -0.11)">
       <use xlink:href="#ArialMT-30"/>
       <use xlink:href="#ArialMT-2e" x="55.615234"/>
       <use xlink:href="#ArialMT-38" x="83.398438"/>
      </g>
     </g>
    </g>
    <g id="xtick_12">
     <g id="line2d_20">
      <path d="M 1304.997629 404.361 
L 1304.997629 21.825 
" clip-path="url(#paf04fe356f)" style="fill: none; stroke: #ffffff; stroke-linecap: round"/>
     </g>
     <g id="text_22">
      <!-- 1.0 -->
      <g style="fill: #262626" transform="translate(1297.352629 421.734594) scale(0.11 -0.11)">
       <use xlink:href="#ArialMT-31"/>
       <use xlink:href="#ArialMT-2e" x="55.615234"/>
       <use xlink:href="#ArialMT-30" x="83.398438"/>
      </g>
     </g>
    </g>
    <g id="text_23">
     <!-- Quantile -->
     <g style="fill: #262626" transform="translate(999.548438 436.510219) scale(0.12 -0.12)">
      <use xlink:href="#ArialMT-51"/>
      <use xlink:href="#ArialMT-75" x="77.783203"/>
      <use xlink:href="#ArialMT-61" x="133.398438"/>
      <use xlink:href="#ArialMT-6e" x="189.013672"/>
      <use xlink:href="#ArialMT-74" x="244.628906"/>
      <use xlink:href="#ArialMT-69" x="272.412109"/>
      <use xlink:href="#ArialMT-6c" x="294.628906"/>
      <use xlink:href="#ArialMT-65" x="316.845703"/>
     </g>
    </g>
   </g>
   <g id="matplotlib.axis_4">
    <g id="ytick_8">
     <g id="line2d_21">
      <path d="M 738.791746 404.361 
L 1304.997629 404.361 
" clip-path="url(#paf04fe356f)" style="fill: none; stroke: #ffffff; stroke-linecap: round"/>
     </g>
     <g id="text_24">
      <!-- 0.00 -->
      <g style="fill: #262626" transform="translate(707.884715 408.297797) scale(0.11 -0.11)">
       <use xlink:href="#ArialMT-30"/>
       <use xlink:href="#ArialMT-2e" x="55.615234"/>
       <use xlink:href="#ArialMT-30" x="83.398438"/>
       <use xlink:href="#ArialMT-30" x="139.013672"/>
      </g>
     </g>
    </g>
    <g id="ytick_9">
     <g id="line2d_22">
      <path d="M 738.791746 343.430625 
L 1304.997629 343.430625 
" clip-path="url(#paf04fe356f)" style="fill: none; stroke: #ffffff; stroke-linecap: round"/>
     </g>
     <g id="text_25">
      <!-- 0.02 -->
      <g style="fill: #262626" transform="translate(707.884715 347.367422) scale(0.11 -0.11)">
       <use xlink:href="#ArialMT-30"/>
       <use xlink:href="#ArialMT-2e" x="55.615234"/>
       <use xlink:href="#ArialMT-30" x="83.398438"/>
       <use xlink:href="#ArialMT-32" x="139.013672"/>
      </g>
     </g>
    </g>
    <g id="ytick_10">
     <g id="line2d_23">
      <path d="M 738.791746 282.500251 
L 1304.997629 282.500251 
" clip-path="url(#paf04fe356f)" style="fill: none; stroke: #ffffff; stroke-linecap: round"/>
     </g>
     <g id="text_26">
      <!-- 0.04 -->
      <g style="fill: #262626" transform="translate(707.884715 286.437047) scale(0.11 -0.11)">
       <use xlink:href="#ArialMT-30"/>
       <use xlink:href="#ArialMT-2e" x="55.615234"/>
       <use xlink:href="#ArialMT-30" x="83.398438"/>
       <use xlink:href="#ArialMT-34" x="139.013672"/>
      </g>
     </g>
    </g>
    <g id="ytick_11">
     <g id="line2d_24">
      <path d="M 738.791746 221.569876 
L 1304.997629 221.569876 
" clip-path="url(#paf04fe356f)" style="fill: none; stroke: #ffffff; stroke-linecap: round"/>
     </g>
     <g id="text_27">
      <!-- 0.06 -->
      <g style="fill: #262626" transform="translate(707.884715 225.506673) scale(0.11 -0.11)">
       <use xlink:href="#ArialMT-30"/>
       <use xlink:href="#ArialMT-2e" x="55.615234"/>
       <use xlink:href="#ArialMT-30" x="83.398438"/>
       <use xlink:href="#ArialMT-36" x="139.013672"/>
      </g>
     </g>
    </g>
    <g id="ytick_12">
     <g id="line2d_25">
      <path d="M 738.791746 160.639501 
L 1304.997629 160.639501 
" clip-path="url(#paf04fe356f)" style="fill: none; stroke: #ffffff; stroke-linecap: round"/>
     </g>
     <g id="text_28">
      <!-- 0.08 -->
      <g style="fill: #262626" transform="translate(707.884715 164.576298) scale(0.11 -0.11)">
       <use xlink:href="#ArialMT-30"/>
       <use xlink:href="#ArialMT-2e" x="55.615234"/>
       <use xlink:href="#ArialMT-30" x="83.398438"/>
       <use xlink:href="#ArialMT-38" x="139.013672"/>
      </g>
     </g>
    </g>
    <g id="ytick_13">
     <g id="line2d_26">
      <path d="M 738.791746 99.709126 
L 1304.997629 99.709126 
" clip-path="url(#paf04fe356f)" style="fill: none; stroke: #ffffff; stroke-linecap: round"/>
     </g>
     <g id="text_29">
      <!-- 0.10 -->
      <g style="fill: #262626" transform="translate(707.884715 103.645923) scale(0.11 -0.11)">
       <use xlink:href="#ArialMT-30"/>
       <use xlink:href="#ArialMT-2e" x="55.615234"/>
       <use xlink:href="#ArialMT-31" x="83.398438"/>
       <use xlink:href="#ArialMT-30" x="139.013672"/>
      </g>
     </g>
    </g>
    <g id="ytick_14">
     <g id="line2d_27">
      <path d="M 738.791746 38.778752 
L 1304.997629 38.778752 
" clip-path="url(#paf04fe356f)" style="fill: none; stroke: #ffffff; stroke-linecap: round"/>
     </g>
     <g id="text_30">
      <!-- 0.12 -->
      <g style="fill: #262626" transform="translate(707.884715 42.715548) scale(0.11 -0.11)">
       <use xlink:href="#ArialMT-30"/>
       <use xlink:href="#ArialMT-2e" x="55.615234"/>
       <use xlink:href="#ArialMT-31" x="83.398438"/>
       <use xlink:href="#ArialMT-32" x="139.013672"/>
      </g>
     </g>
    </g>
    <g id="text_31">
     <!-- MCSE for quantiles -->
     <g style="fill: #262626" transform="translate(701.499715 264.77925) rotate(-90) scale(0.12 -0.12)">
      <use xlink:href="#ArialMT-4d"/>
      <use xlink:href="#ArialMT-43" x="83.300781"/>
      <use xlink:href="#ArialMT-53" x="155.517578"/>
      <use xlink:href="#ArialMT-45" x="222.216797"/>
      <use xlink:href="#ArialMT-20" x="288.916016"/>
      <use xlink:href="#ArialMT-66" x="316.699219"/>
      <use xlink:href="#ArialMT-6f" x="344.482422"/>
      <use xlink:href="#ArialMT-72" x="400.097656"/>
      <use xlink:href="#ArialMT-20" x="433.398438"/>
      <use xlink:href="#ArialMT-71" x="461.181641"/>
      <use xlink:href="#ArialMT-75" x="516.796875"/>
      <use xlink:href="#ArialMT-61" x="572.412109"/>
      <use xlink:href="#ArialMT-6e" x="628.027344"/>
      <use xlink:href="#ArialMT-74" x="683.642578"/>
      <use xlink:href="#ArialMT-69" x="711.425781"/>
      <use xlink:href="#ArialMT-6c" x="733.642578"/>
      <use xlink:href="#ArialMT-65" x="755.859375"/>
      <use xlink:href="#ArialMT-73" x="811.474609"/>
     </g>
    </g>
   </g>
   <g id="patch_8">
    <path d="M 738.791746 404.361 
L 738.791746 21.825 
" style="fill: none; stroke: #ffffff; stroke-width: 1.25; stroke-linejoin: miter; stroke-linecap: square"/>
   </g>
   <g id="patch_9">
    <path d="M 1304.997629 404.361 
L 1304.997629 21.825 
" style="fill: none; stroke: #ffffff; stroke-width: 1.25; stroke-linejoin: miter; stroke-linecap: square"/>
   </g>
   <g id="patch_10">
    <path d="M 738.791746 404.361 
L 1304.997629 404.361 
" style="fill: none; stroke: #ffffff; stroke-width: 1.25; stroke-linejoin: miter; stroke-linecap: square"/>
   </g>
   <g id="patch_11">
    <path d="M 738.791746 21.825 
L 1304.997629 21.825 
" style="fill: none; stroke: #ffffff; stroke-width: 1.25; stroke-linejoin: miter; stroke-linecap: square"/>
   </g>
   <g id="line2d_28">
    <g clip-path="url(#paf04fe356f)">
     <use xlink:href="#mcf3a9f292e" x="767.10204" y="242.663905" style="fill: #0173b2; stroke: #0173b2"/>
     <use xlink:href="#mcf3a9f292e" x="793.922319" y="197.235534" style="fill: #0173b2; stroke: #0173b2"/>
     <use xlink:href="#mcf3a9f292e" x="820.742598" y="164.140181" style="fill: #0173b2; stroke: #0173b2"/>
     <use xlink:href="#mcf3a9f292e" x="847.562876" y="136.349375" style="fill: #0173b2; stroke: #0173b2"/>
     <use xlink:href="#mcf3a9f292e" x="874.383155" y="125.830571" style="fill: #0173b2; stroke: #0173b2"/>
     <use xlink:href="#mcf3a9f292e" x="901.203434" y="113.606243" style="fill: #0173b2; stroke: #0173b2"/>
     <use xlink:href="#mcf3a9f292e" x="928.023712" y="108.030657" style="fill: #0173b2; stroke: #0173b2"/>
     <use xlink:href="#mcf3a9f292e" x="954.843991" y="101.280951" style="fill: #0173b2; stroke: #0173b2"/>
     <use xlink:href="#mcf3a9f292e" x="981.66427" y="91.791318" style="fill: #0173b2; stroke: #0173b2"/>
     <use xlink:href="#mcf3a9f292e" x="1008.484548" y="86.208858" style="fill: #0173b2; stroke: #0173b2"/>
     <use xlink:href="#mcf3a9f292e" x="1035.304827" y="74.858281" style="fill: #0173b2; stroke: #0173b2"/>
     <use xlink:href="#mcf3a9f292e" x="1062.125105" y="73.276747" style="fill: #0173b2; stroke: #0173b2"/>
     <use xlink:href="#mcf3a9f292e" x="1088.945384" y="67.234932" style="fill: #0173b2; stroke: #0173b2"/>
     <use xlink:href="#mcf3a9f292e" x="1115.765663" y="56.996858" style="fill: #0173b2; stroke: #0173b2"/>
     <use xlink:href="#mcf3a9f292e" x="1142.585941" y="47.425086" style="fill: #0173b2; stroke: #0173b2"/>
     <use xlink:href="#mcf3a9f292e" x="1169.40622" y="32.341138" style="fill: #0173b2; stroke: #0173b2"/>
     <use xlink:href="#mcf3a9f292e" x="1196.226499" y="34.368587" style="fill: #0173b2; stroke: #0173b2"/>
     <use xlink:href="#mcf3a9f292e" x="1223.046777" y="47.846392" style="fill: #0173b2; stroke: #0173b2"/>
     <use xlink:href="#mcf3a9f292e" x="1249.867056" y="70.941174" style="fill: #0173b2; stroke: #0173b2"/>
     <use xlink:href="#mcf3a9f292e" x="1276.687335" y="104.71073" style="fill: #0173b2; stroke: #0173b2"/>
    </g>
   </g>
   <g id="text_32">
    <!-- bad_chains0 -->
    <g style="fill: #262626" transform="translate(987.869063 15.825) scale(0.12 -0.12)">
     <defs>
      <path id="ArialMT-62" d="M 941 0 
L 419 0 
L 419 4581 
L 981 4581 
L 981 2947 
Q 1338 3394 1891 3394 
Q 2197 3394 2470 3270 
Q 2744 3147 2920 2923 
Q 3097 2700 3197 2384 
Q 3297 2069 3297 1709 
Q 3297 856 2875 390 
Q 2453 -75 1863 -75 
Q 1275 -75 941 416 
L 941 0 
z
M 934 1684 
Q 934 1088 1097 822 
Q 1363 388 1816 388 
Q 2184 388 2453 708 
Q 2722 1028 2722 1663 
Q 2722 2313 2464 2622 
Q 2206 2931 1841 2931 
Q 1472 2931 1203 2611 
Q 934 2291 934 1684 
z
" transform="scale(0.015625)"/>
     </defs>
     <use xlink:href="#ArialMT-62"/>
     <use xlink:href="#ArialMT-61" x="55.615234"/>
     <use xlink:href="#ArialMT-64" x="111.230469"/>
     <use xlink:href="#ArialMT-5f" x="166.845703"/>
     <use xlink:href="#ArialMT-63" x="222.460938"/>
     <use xlink:href="#ArialMT-68" x="272.460938"/>
     <use xlink:href="#ArialMT-61" x="328.076172"/>
     <use xlink:href="#ArialMT-69" x="383.691406"/>
     <use xlink:href="#ArialMT-6e" x="405.908203"/>
     <use xlink:href="#ArialMT-73" x="461.523438"/>
     <use xlink:href="#ArialMT-30" x="511.523438"/>
    </g>
   </g>
  </g>
  <g id="axes_3">
   <g id="patch_12">
    <path d="M 1418.238805 404.361 
L 1984.444687 404.361 
L 1984.444687 21.825 
L 1418.238805 21.825 
z
" style="fill: #eaeaf2"/>
   </g>
   <g id="matplotlib.axis_5">
    <g id="xtick_13">
     <g id="line2d_29">
      <path d="M 1418.238805 404.361 
L 1418.238805 21.825 
" clip-path="url(#p5dc82b4dd1)" style="fill: none; stroke: #ffffff; stroke-linecap: round"/>
     </g>
     <g id="text_33">
      <!-- 0.0 -->
      <g style="fill: #262626" transform="translate(1410.593805 421.734594) scale(0.11 -0.11)">
       <use xlink:href="#ArialMT-30"/>
       <use xlink:href="#ArialMT-2e" x="55.615234"/>
       <use xlink:href="#ArialMT-30" x="83.398438"/>
      </g>
     </g>
    </g>
    <g id="xtick_14">
     <g id="line2d_30">
      <path d="M 1531.479982 404.361 
L 1531.479982 21.825 
" clip-path="url(#p5dc82b4dd1)" style="fill: none; stroke: #ffffff; stroke-linecap: round"/>
     </g>
     <g id="text_34">
      <!-- 0.2 -->
      <g style="fill: #262626" transform="translate(1523.834982 421.734594) scale(0.11 -0.11)">
       <use xlink:href="#ArialMT-30"/>
       <use xlink:href="#ArialMT-2e" x="55.615234"/>
       <use xlink:href="#ArialMT-32" x="83.398438"/>
      </g>
     </g>
    </g>
    <g id="xtick_15">
     <g id="line2d_31">
      <path d="M 1644.721158 404.361 
L 1644.721158 21.825 
" clip-path="url(#p5dc82b4dd1)" style="fill: none; stroke: #ffffff; stroke-linecap: round"/>
     </g>
     <g id="text_35">
      <!-- 0.4 -->
      <g style="fill: #262626" transform="translate(1637.076158 421.734594) scale(0.11 -0.11)">
       <use xlink:href="#ArialMT-30"/>
       <use xlink:href="#ArialMT-2e" x="55.615234"/>
       <use xlink:href="#ArialMT-34" x="83.398438"/>
      </g>
     </g>
    </g>
    <g id="xtick_16">
     <g id="line2d_32">
      <path d="M 1757.962335 404.361 
L 1757.962335 21.825 
" clip-path="url(#p5dc82b4dd1)" style="fill: none; stroke: #ffffff; stroke-linecap: round"/>
     </g>
     <g id="text_36">
      <!-- 0.6 -->
      <g style="fill: #262626" transform="translate(1750.317335 421.734594) scale(0.11 -0.11)">
       <use xlink:href="#ArialMT-30"/>
       <use xlink:href="#ArialMT-2e" x="55.615234"/>
       <use xlink:href="#ArialMT-36" x="83.398438"/>
      </g>
     </g>
    </g>
    <g id="xtick_17">
     <g id="line2d_33">
      <path d="M 1871.203511 404.361 
L 1871.203511 21.825 
" clip-path="url(#p5dc82b4dd1)" style="fill: none; stroke: #ffffff; stroke-linecap: round"/>
     </g>
     <g id="text_37">
      <!-- 0.8 -->
      <g style="fill: #262626" transform="translate(1863.558511 421.734594) scale(0.11 -0.11)">
       <use xlink:href="#ArialMT-30"/>
       <use xlink:href="#ArialMT-2e" x="55.615234"/>
       <use xlink:href="#ArialMT-38" x="83.398438"/>
      </g>
     </g>
    </g>
    <g id="xtick_18">
     <g id="line2d_34">
      <path d="M 1984.444687 404.361 
L 1984.444687 21.825 
" clip-path="url(#p5dc82b4dd1)" style="fill: none; stroke: #ffffff; stroke-linecap: round"/>
     </g>
     <g id="text_38">
      <!-- 1.0 -->
      <g style="fill: #262626" transform="translate(1976.799687 421.734594) scale(0.11 -0.11)">
       <use xlink:href="#ArialMT-31"/>
       <use xlink:href="#ArialMT-2e" x="55.615234"/>
       <use xlink:href="#ArialMT-30" x="83.398438"/>
      </g>
     </g>
    </g>
    <g id="text_39">
     <!-- Quantile -->
     <g style="fill: #262626" transform="translate(1678.995496 436.510219) scale(0.12 -0.12)">
      <use xlink:href="#ArialMT-51"/>
      <use xlink:href="#ArialMT-75" x="77.783203"/>
      <use xlink:href="#ArialMT-61" x="133.398438"/>
      <use xlink:href="#ArialMT-6e" x="189.013672"/>
      <use xlink:href="#ArialMT-74" x="244.628906"/>
      <use xlink:href="#ArialMT-69" x="272.412109"/>
      <use xlink:href="#ArialMT-6c" x="294.628906"/>
      <use xlink:href="#ArialMT-65" x="316.845703"/>
     </g>
    </g>
   </g>
   <g id="matplotlib.axis_6">
    <g id="ytick_15">
     <g id="line2d_35">
      <path d="M 1418.238805 404.361 
L 1984.444687 404.361 
" clip-path="url(#p5dc82b4dd1)" style="fill: none; stroke: #ffffff; stroke-linecap: round"/>
     </g>
     <g id="text_40">
      <!-- 0.00 -->
      <g style="fill: #262626" transform="translate(1387.331774 408.297797) scale(0.11 -0.11)">
       <use xlink:href="#ArialMT-30"/>
       <use xlink:href="#ArialMT-2e" x="55.615234"/>
       <use xlink:href="#ArialMT-30" x="83.398438"/>
       <use xlink:href="#ArialMT-30" x="139.013672"/>
      </g>
     </g>
    </g>
    <g id="ytick_16">
     <g id="line2d_36">
      <path d="M 1418.238805 341.426546 
L 1984.444687 341.426546 
" clip-path="url(#p5dc82b4dd1)" style="fill: none; stroke: #ffffff; stroke-linecap: round"/>
     </g>
     <g id="text_41">
      <!-- 0.01 -->
      <g style="fill: #262626" transform="translate(1387.331774 345.363343) scale(0.11 -0.11)">
       <use xlink:href="#ArialMT-30"/>
       <use xlink:href="#ArialMT-2e" x="55.615234"/>
       <use xlink:href="#ArialMT-30" x="83.398438"/>
       <use xlink:href="#ArialMT-31" x="139.013672"/>
      </g>
     </g>
    </g>
    <g id="ytick_17">
     <g id="line2d_37">
      <path d="M 1418.238805 278.492092 
L 1984.444687 278.492092 
" clip-path="url(#p5dc82b4dd1)" style="fill: none; stroke: #ffffff; stroke-linecap: round"/>
     </g>
     <g id="text_42">
      <!-- 0.02 -->
      <g style="fill: #262626" transform="translate(1387.331774 282.428889) scale(0.11 -0.11)">
       <use xlink:href="#ArialMT-30"/>
       <use xlink:href="#ArialMT-2e" x="55.615234"/>
       <use xlink:href="#ArialMT-30" x="83.398438"/>
       <use xlink:href="#ArialMT-32" x="139.013672"/>
      </g>
     </g>
    </g>
    <g id="ytick_18">
     <g id="line2d_38">
      <path d="M 1418.238805 215.557638 
L 1984.444687 215.557638 
" clip-path="url(#p5dc82b4dd1)" style="fill: none; stroke: #ffffff; stroke-linecap: round"/>
     </g>
     <g id="text_43">
      <!-- 0.03 -->
      <g style="fill: #262626" transform="translate(1387.331774 219.494435) scale(0.11 -0.11)">
       <use xlink:href="#ArialMT-30"/>
       <use xlink:href="#ArialMT-2e" x="55.615234"/>
       <use xlink:href="#ArialMT-30" x="83.398438"/>
       <use xlink:href="#ArialMT-33" x="139.013672"/>
      </g>
     </g>
    </g>
    <g id="ytick_19">
     <g id="line2d_39">
      <path d="M 1418.238805 152.623184 
L 1984.444687 152.623184 
" clip-path="url(#p5dc82b4dd1)" style="fill: none; stroke: #ffffff; stroke-linecap: round"/>
     </g>
     <g id="text_44">
      <!-- 0.04 -->
      <g style="fill: #262626" transform="translate(1387.331774 156.559981) scale(0.11 -0.11)">
       <use xlink:href="#ArialMT-30"/>
       <use xlink:href="#ArialMT-2e" x="55.615234"/>
       <use xlink:href="#ArialMT-30" x="83.398438"/>
       <use xlink:href="#ArialMT-34" x="139.013672"/>
      </g>
     </g>
    </g>
    <g id="ytick_20">
     <g id="line2d_40">
      <path d="M 1418.238805 89.68873 
L 1984.444687 89.68873 
" clip-path="url(#p5dc82b4dd1)" style="fill: none; stroke: #ffffff; stroke-linecap: round"/>
     </g>
     <g id="text_45">
      <!-- 0.05 -->
      <g style="fill: #262626" transform="translate(1387.331774 93.625527) scale(0.11 -0.11)">
       <use xlink:href="#ArialMT-30"/>
       <use xlink:href="#ArialMT-2e" x="55.615234"/>
       <use xlink:href="#ArialMT-30" x="83.398438"/>
       <use xlink:href="#ArialMT-35" x="139.013672"/>
      </g>
     </g>
    </g>
    <g id="ytick_21">
     <g id="line2d_41">
      <path d="M 1418.238805 26.754276 
L 1984.444687 26.754276 
" clip-path="url(#p5dc82b4dd1)" style="fill: none; stroke: #ffffff; stroke-linecap: round"/>
     </g>
     <g id="text_46">
      <!-- 0.06 -->
      <g style="fill: #262626" transform="translate(1387.331774 30.691073) scale(0.11 -0.11)">
       <use xlink:href="#ArialMT-30"/>
       <use xlink:href="#ArialMT-2e" x="55.615234"/>
       <use xlink:href="#ArialMT-30" x="83.398438"/>
       <use xlink:href="#ArialMT-36" x="139.013672"/>
      </g>
     </g>
    </g>
    <g id="text_47">
     <!-- MCSE for quantiles -->
     <g style="fill: #262626" transform="translate(1380.946774 264.77925) rotate(-90) scale(0.12 -0.12)">
      <use xlink:href="#ArialMT-4d"/>
      <use xlink:href="#ArialMT-43" x="83.300781"/>
      <use xlink:href="#ArialMT-53" x="155.517578"/>
      <use xlink:href="#ArialMT-45" x="222.216797"/>
      <use xlink:href="#ArialMT-20" x="288.916016"/>
      <use xlink:href="#ArialMT-66" x="316.699219"/>
      <use xlink:href="#ArialMT-6f" x="344.482422"/>
      <use xlink:href="#ArialMT-72" x="400.097656"/>
      <use xlink:href="#ArialMT-20" x="433.398438"/>
      <use xlink:href="#ArialMT-71" x="461.181641"/>
      <use xlink:href="#ArialMT-75" x="516.796875"/>
      <use xlink:href="#ArialMT-61" x="572.412109"/>
      <use xlink:href="#ArialMT-6e" x="628.027344"/>
      <use xlink:href="#ArialMT-74" x="683.642578"/>
      <use xlink:href="#ArialMT-69" x="711.425781"/>
      <use xlink:href="#ArialMT-6c" x="733.642578"/>
      <use xlink:href="#ArialMT-65" x="755.859375"/>
      <use xlink:href="#ArialMT-73" x="811.474609"/>
     </g>
    </g>
   </g>
   <g id="patch_13">
    <path d="M 1418.238805 404.361 
L 1418.238805 21.825 
" style="fill: none; stroke: #ffffff; stroke-width: 1.25; stroke-linejoin: miter; stroke-linecap: square"/>
   </g>
   <g id="patch_14">
    <path d="M 1984.444687 404.361 
L 1984.444687 21.825 
" style="fill: none; stroke: #ffffff; stroke-width: 1.25; stroke-linejoin: miter; stroke-linecap: square"/>
   </g>
   <g id="patch_15">
    <path d="M 1418.238805 404.361 
L 1984.444687 404.361 
" style="fill: none; stroke: #ffffff; stroke-width: 1.25; stroke-linejoin: miter; stroke-linecap: square"/>
   </g>
   <g id="patch_16">
    <path d="M 1418.238805 21.825 
L 1984.444687 21.825 
" style="fill: none; stroke: #ffffff; stroke-width: 1.25; stroke-linejoin: miter; stroke-linecap: square"/>
   </g>
   <g id="line2d_42">
    <g clip-path="url(#p5dc82b4dd1)">
     <use xlink:href="#mcf3a9f292e" x="1446.549099" y="382.081945" style="fill: #0173b2; stroke: #0173b2"/>
     <use xlink:href="#mcf3a9f292e" x="1473.369378" y="383.460509" style="fill: #0173b2; stroke: #0173b2"/>
     <use xlink:href="#mcf3a9f292e" x="1500.189657" y="372.157434" style="fill: #0173b2; stroke: #0173b2"/>
     <use xlink:href="#mcf3a9f292e" x="1527.009935" y="368.524854" style="fill: #0173b2; stroke: #0173b2"/>
     <use xlink:href="#mcf3a9f292e" x="1553.830214" y="364.35852" style="fill: #0173b2; stroke: #0173b2"/>
     <use xlink:href="#mcf3a9f292e" x="1580.650492" y="356.313005" style="fill: #0173b2; stroke: #0173b2"/>
     <use xlink:href="#mcf3a9f292e" x="1607.470771" y="343.303275" style="fill: #0173b2; stroke: #0173b2"/>
     <use xlink:href="#mcf3a9f292e" x="1634.29105" y="345.146419" style="fill: #0173b2; stroke: #0173b2"/>
     <use xlink:href="#mcf3a9f292e" x="1661.111328" y="325.029142" style="fill: #0173b2; stroke: #0173b2"/>
     <use xlink:href="#mcf3a9f292e" x="1687.931607" y="325.789907" style="fill: #0173b2; stroke: #0173b2"/>
     <use xlink:href="#mcf3a9f292e" x="1714.751886" y="308.160454" style="fill: #0173b2; stroke: #0173b2"/>
     <use xlink:href="#mcf3a9f292e" x="1741.572164" y="280.057" style="fill: #0173b2; stroke: #0173b2"/>
     <use xlink:href="#mcf3a9f292e" x="1768.392443" y="260.644337" style="fill: #0173b2; stroke: #0173b2"/>
     <use xlink:href="#mcf3a9f292e" x="1795.212722" y="201.089115" style="fill: #0173b2; stroke: #0173b2"/>
     <use xlink:href="#mcf3a9f292e" x="1822.033" y="200.645988" style="fill: #0173b2; stroke: #0173b2"/>
     <use xlink:href="#mcf3a9f292e" x="1848.853279" y="266.597595" style="fill: #0173b2; stroke: #0173b2"/>
     <use xlink:href="#mcf3a9f292e" x="1875.673557" y="242.02549" style="fill: #0173b2; stroke: #0173b2"/>
     <use xlink:href="#mcf3a9f292e" x="1902.493836" y="183.231061" style="fill: #0173b2; stroke: #0173b2"/>
     <use xlink:href="#mcf3a9f292e" x="1929.314115" y="39.045739" style="fill: #0173b2; stroke: #0173b2"/>
     <use xlink:href="#mcf3a9f292e" x="1956.134393" y="255.952102" style="fill: #0173b2; stroke: #0173b2"/>
    </g>
   </g>
   <g id="text_48">
    <!-- bad_chains1 -->
    <g style="fill: #262626" transform="translate(1667.316121 15.825) scale(0.12 -0.12)">
     <use xlink:href="#ArialMT-62"/>
     <use xlink:href="#ArialMT-61" x="55.615234"/>
     <use xlink:href="#ArialMT-64" x="111.230469"/>
     <use xlink:href="#ArialMT-5f" x="166.845703"/>
     <use xlink:href="#ArialMT-63" x="222.460938"/>
     <use xlink:href="#ArialMT-68" x="272.460938"/>
     <use xlink:href="#ArialMT-61" x="328.076172"/>
     <use xlink:href="#ArialMT-69" x="383.691406"/>
     <use xlink:href="#ArialMT-6e" x="405.908203"/>
     <use xlink:href="#ArialMT-73" x="461.523438"/>
     <use xlink:href="#ArialMT-31" x="511.523438"/>
    </g>
   </g>
  </g>
 </g>
 <defs>
  <clipPath id="p3db2432963">
   <rect x="59.344688" y="21.825" width="566.205882" height="382.536"/>
  </clipPath>
  <clipPath id="paf04fe356f">
   <rect x="738.791746" y="21.825" width="566.205882" height="382.536"/>
  </clipPath>
  <clipPath id="p5dc82b4dd1">
   <rect x="1418.238805" y="21.825" width="566.205882" height="382.536"/>
  </clipPath>
 </defs>
</svg>