<?xml version="1.0" encoding="utf-8" standalone="no"?>
<!DOCTYPE svg PUBLIC "-//W3C//DTD SVG 1.1//EN"
  "http://www.w3.org/Graphics/SVG/1.1/DTD/svg11.dtd">
<svg xmlns:xlink="http://www.w3.org/1999/xlink" width="602.71925pt" height="363.387875pt" viewBox="0 0 602.71925 363.387875" xmlns="http://www.w3.org/2000/svg" version="1.1">
 <metadata>
  <rdf:RDF xmlns:dc="http://purl.org/dc/elements/1.1/" xmlns:cc="http://creativecommons.org/ns#" xmlns:rdf="http://www.w3.org/1999/02/22-rdf-syntax-ns#">
   <cc:Work>
    <dc:type rdf:resource="http://purl.org/dc/dcmitype/StillImage"/>
    <dc:date>2023-05-08T00:37:52.759471</dc:date>
    <dc:format>image/svg+xml</dc:format>
    <dc:creator>
     <cc:Agent>
      <dc:title>Matplotlib v3.7.1, https://matplotlib.org/</dc:title>
     </cc:Agent>
    </dc:creator>
   </cc:Work>
  </rdf:RDF>
 </metadata>
 <defs>
  <style type="text/css">*{stroke-linejoin: round; stroke-linecap: butt}</style>
 </defs>
 <g id="figure_1">
  <g id="patch_1">
   <path d="M 0 363.387875 
L 602.71925 363.387875 
L 602.71925 0 
L 0 0 
z
" style="fill: #ffffff"/>
  </g>
  <g id="axes_1">
   <g id="patch_2">
    <path d="M 37.51925 339.84 
L 595.51925 339.84 
L 595.51925 7.2 
L 37.51925 7.2 
z
" style="fill: #eaeaf2"/>
   </g>
   <g id="matplotlib.axis_1">
    <g id="xtick_1">
     <g id="line2d_1">
      <path d="M 91.064705 339.84 
L 91.064705 7.2 
" clip-path="url(#p6adb22a783)" style="fill: none; stroke: #ffffff; stroke-width: 0.8; stroke-linecap: round"/>
     </g>
     <g id="text_1">
      <!-- 60 -->
      <g style="fill: #262626" transform="translate(86.17108 354.438875) scale(0.088 -0.088)">
       <defs>
        <path id="ArialMT-36" d="M 3184 3459 
L 2625 3416 
Q 2550 3747 2413 3897 
Q 2184 4138 1850 4138 
Q 1581 4138 1378 3988 
Q 1113 3794 959 3422 
Q 806 3050 800 2363 
Q 1003 2672 1297 2822 
Q 1591 2972 1913 2972 
Q 2475 2972 2870 2558 
Q 3266 2144 3266 1488 
Q 3266 1056 3080 686 
Q 2894 316 2569 119 
Q 2244 -78 1831 -78 
Q 1128 -78 684 439 
Q 241 956 241 2144 
Q 241 3472 731 4075 
Q 1159 4600 1884 4600 
Q 2425 4600 2770 4297 
Q 3116 3994 3184 3459 
z
M 888 1484 
Q 888 1194 1011 928 
Q 1134 663 1356 523 
Q 1578 384 1822 384 
Q 2178 384 2434 671 
Q 2691 959 2691 1453 
Q 2691 1928 2437 2201 
Q 2184 2475 1800 2475 
Q 1419 2475 1153 2201 
Q 888 1928 888 1484 
z
" transform="scale(0.015625)"/>
        <path id="ArialMT-30" d="M 266 2259 
Q 266 3072 433 3567 
Q 600 4063 929 4331 
Q 1259 4600 1759 4600 
Q 2128 4600 2406 4451 
Q 2684 4303 2865 4023 
Q 3047 3744 3150 3342 
Q 3253 2941 3253 2259 
Q 3253 1453 3087 958 
Q 2922 463 2592 192 
Q 2263 -78 1759 -78 
Q 1097 -78 719 397 
Q 266 969 266 2259 
z
M 844 2259 
Q 844 1131 1108 757 
Q 1372 384 1759 384 
Q 2147 384 2411 759 
Q 2675 1134 2675 2259 
Q 2675 3391 2411 3762 
Q 2147 4134 1753 4134 
Q 1366 4134 1134 3806 
Q 844 3388 844 2259 
z
" transform="scale(0.015625)"/>
       </defs>
       <use xlink:href="#ArialMT-36"/>
       <use xlink:href="#ArialMT-30" x="55.615234"/>
      </g>
     </g>
    </g>
    <g id="xtick_2">
     <g id="line2d_2">
      <path d="M 203.791977 339.84 
L 203.791977 7.2 
" clip-path="url(#p6adb22a783)" style="fill: none; stroke: #ffffff; stroke-width: 0.8; stroke-linecap: round"/>
     </g>
     <g id="text_2">
      <!-- 80 -->
      <g style="fill: #262626" transform="translate(198.898352 354.438875) scale(0.088 -0.088)">
       <defs>
        <path id="ArialMT-38" d="M 1131 2484 
Q 781 2613 612 2850 
Q 444 3088 444 3419 
Q 444 3919 803 4259 
Q 1163 4600 1759 4600 
Q 2359 4600 2725 4251 
Q 3091 3903 3091 3403 
Q 3091 3084 2923 2848 
Q 2756 2613 2416 2484 
Q 2838 2347 3058 2040 
Q 3278 1734 3278 1309 
Q 3278 722 2862 322 
Q 2447 -78 1769 -78 
Q 1091 -78 675 323 
Q 259 725 259 1325 
Q 259 1772 486 2073 
Q 713 2375 1131 2484 
z
M 1019 3438 
Q 1019 3113 1228 2906 
Q 1438 2700 1772 2700 
Q 2097 2700 2305 2904 
Q 2513 3109 2513 3406 
Q 2513 3716 2298 3927 
Q 2084 4138 1766 4138 
Q 1444 4138 1231 3931 
Q 1019 3725 1019 3438 
z
M 838 1322 
Q 838 1081 952 856 
Q 1066 631 1291 507 
Q 1516 384 1775 384 
Q 2178 384 2440 643 
Q 2703 903 2703 1303 
Q 2703 1709 2433 1975 
Q 2163 2241 1756 2241 
Q 1359 2241 1098 1978 
Q 838 1716 838 1322 
z
" transform="scale(0.015625)"/>
       </defs>
       <use xlink:href="#ArialMT-38"/>
       <use xlink:href="#ArialMT-30" x="55.615234"/>
      </g>
     </g>
    </g>
    <g id="xtick_3">
     <g id="line2d_3">
      <path d="M 316.51925 339.84 
L 316.51925 7.2 
" clip-path="url(#p6adb22a783)" style="fill: none; stroke: #ffffff; stroke-width: 0.8; stroke-linecap: round"/>
     </g>
     <g id="text_3">
      <!-- 100 -->
      <g style="fill: #262626" transform="translate(309.178812 354.438875) scale(0.088 -0.088)">
       <defs>
        <path id="ArialMT-31" d="M 2384 0 
L 1822 0 
L 1822 3584 
Q 1619 3391 1289 3197 
Q 959 3003 697 2906 
L 697 3450 
Q 1169 3672 1522 3987 
Q 1875 4303 2022 4600 
L 2384 4600 
L 2384 0 
z
" transform="scale(0.015625)"/>
       </defs>
       <use xlink:href="#ArialMT-31"/>
       <use xlink:href="#ArialMT-30" x="55.615234"/>
       <use xlink:href="#ArialMT-30" x="111.230469"/>
      </g>
     </g>
    </g>
    <g id="xtick_4">
     <g id="line2d_4">
      <path d="M 429.246523 339.84 
L 429.246523 7.2 
" clip-path="url(#p6adb22a783)" style="fill: none; stroke: #ffffff; stroke-width: 0.8; stroke-linecap: round"/>
     </g>
     <g id="text_4">
      <!-- 120 -->
      <g style="fill: #262626" transform="translate(421.906085 354.438875) scale(0.088 -0.088)">
       <defs>
        <path id="ArialMT-32" d="M 3222 541 
L 3222 0 
L 194 0 
Q 188 203 259 391 
Q 375 700 629 1000 
Q 884 1300 1366 1694 
Q 2113 2306 2375 2664 
Q 2638 3022 2638 3341 
Q 2638 3675 2398 3904 
Q 2159 4134 1775 4134 
Q 1369 4134 1125 3890 
Q 881 3647 878 3216 
L 300 3275 
Q 359 3922 746 4261 
Q 1134 4600 1788 4600 
Q 2447 4600 2831 4234 
Q 3216 3869 3216 3328 
Q 3216 3053 3103 2787 
Q 2991 2522 2730 2228 
Q 2469 1934 1863 1422 
Q 1356 997 1212 845 
Q 1069 694 975 541 
L 3222 541 
z
" transform="scale(0.015625)"/>
       </defs>
       <use xlink:href="#ArialMT-31"/>
       <use xlink:href="#ArialMT-32" x="55.615234"/>
       <use xlink:href="#ArialMT-30" x="111.230469"/>
      </g>
     </g>
    </g>
    <g id="xtick_5">
     <g id="line2d_5">
      <path d="M 541.973795 339.84 
L 541.973795 7.2 
" clip-path="url(#p6adb22a783)" style="fill: none; stroke: #ffffff; stroke-width: 0.8; stroke-linecap: round"/>
     </g>
     <g id="text_5">
      <!-- 140 -->
      <g style="fill: #262626" transform="translate(534.633358 354.438875) scale(0.088 -0.088)">
       <defs>
        <path id="ArialMT-34" d="M 2069 0 
L 2069 1097 
L 81 1097 
L 81 1613 
L 2172 4581 
L 2631 4581 
L 2631 1613 
L 3250 1613 
L 3250 1097 
L 2631 1097 
L 2631 0 
L 2069 0 
z
M 2069 1613 
L 2069 3678 
L 634 1613 
L 2069 1613 
z
" transform="scale(0.015625)"/>
       </defs>
       <use xlink:href="#ArialMT-31"/>
       <use xlink:href="#ArialMT-34" x="55.615234"/>
       <use xlink:href="#ArialMT-30" x="111.230469"/>
      </g>
     </g>
    </g>
   </g>
   <g id="matplotlib.axis_2">
    <g id="ytick_1">
     <g id="line2d_6">
      <path d="M 37.51925 324.72 
L 595.51925 324.72 
" clip-path="url(#p6adb22a783)" style="fill: none; stroke: #ffffff; stroke-width: 0.8; stroke-linecap: round"/>
     </g>
     <g id="text_6">
      <!-- 0.000 -->
      <g style="fill: #262626" transform="translate(7.2 327.869438) scale(0.088 -0.088)">
       <defs>
        <path id="ArialMT-2e" d="M 581 0 
L 581 641 
L 1222 641 
L 1222 0 
L 581 0 
z
" transform="scale(0.015625)"/>
       </defs>
       <use xlink:href="#ArialMT-30"/>
       <use xlink:href="#ArialMT-2e" x="55.615234"/>
       <use xlink:href="#ArialMT-30" x="83.398438"/>
       <use xlink:href="#ArialMT-30" x="139.013672"/>
       <use xlink:href="#ArialMT-30" x="194.628906"/>
      </g>
     </g>
    </g>
    <g id="ytick_2">
     <g id="line2d_7">
      <path d="M 37.51925 267.869668 
L 595.51925 267.869668 
" clip-path="url(#p6adb22a783)" style="fill: none; stroke: #ffffff; stroke-width: 0.8; stroke-linecap: round"/>
     </g>
     <g id="text_7">
      <!-- 0.005 -->
      <g style="fill: #262626" transform="translate(7.2 271.019106) scale(0.088 -0.088)">
       <defs>
        <path id="ArialMT-35" d="M 266 1200 
L 856 1250 
Q 922 819 1161 601 
Q 1400 384 1738 384 
Q 2144 384 2425 690 
Q 2706 997 2706 1503 
Q 2706 1984 2436 2262 
Q 2166 2541 1728 2541 
Q 1456 2541 1237 2417 
Q 1019 2294 894 2097 
L 366 2166 
L 809 4519 
L 3088 4519 
L 3088 3981 
L 1259 3981 
L 1013 2750 
Q 1425 3038 1878 3038 
Q 2478 3038 2890 2622 
Q 3303 2206 3303 1553 
Q 3303 931 2941 478 
Q 2500 -78 1738 -78 
Q 1113 -78 717 272 
Q 322 622 266 1200 
z
" transform="scale(0.015625)"/>
       </defs>
       <use xlink:href="#ArialMT-30"/>
       <use xlink:href="#ArialMT-2e" x="55.615234"/>
       <use xlink:href="#ArialMT-30" x="83.398438"/>
       <use xlink:href="#ArialMT-30" x="139.013672"/>
       <use xlink:href="#ArialMT-35" x="194.628906"/>
      </g>
     </g>
    </g>
    <g id="ytick_3">
     <g id="line2d_8">
      <path d="M 37.51925 211.019336 
L 595.51925 211.019336 
" clip-path="url(#p6adb22a783)" style="fill: none; stroke: #ffffff; stroke-width: 0.8; stroke-linecap: round"/>
     </g>
     <g id="text_8">
      <!-- 0.010 -->
      <g style="fill: #262626" transform="translate(7.2 214.168774) scale(0.088 -0.088)">
       <use xlink:href="#ArialMT-30"/>
       <use xlink:href="#ArialMT-2e" x="55.615234"/>
       <use xlink:href="#ArialMT-30" x="83.398438"/>
       <use xlink:href="#ArialMT-31" x="139.013672"/>
       <use xlink:href="#ArialMT-30" x="194.628906"/>
      </g>
     </g>
    </g>
    <g id="ytick_4">
     <g id="line2d_9">
      <path d="M 37.51925 154.169005 
L 595.51925 154.169005 
" clip-path="url(#p6adb22a783)" style="fill: none; stroke: #ffffff; stroke-width: 0.8; stroke-linecap: round"/>
     </g>
     <g id="text_9">
      <!-- 0.015 -->
      <g style="fill: #262626" transform="translate(7.2 157.318442) scale(0.088 -0.088)">
       <use xlink:href="#ArialMT-30"/>
       <use xlink:href="#ArialMT-2e" x="55.615234"/>
       <use xlink:href="#ArialMT-30" x="83.398438"/>
       <use xlink:href="#ArialMT-31" x="139.013672"/>
       <use xlink:href="#ArialMT-35" x="194.628906"/>
      </g>
     </g>
    </g>
    <g id="ytick_5">
     <g id="line2d_10">
      <path d="M 37.51925 97.318673 
L 595.51925 97.318673 
" clip-path="url(#p6adb22a783)" style="fill: none; stroke: #ffffff; stroke-width: 0.8; stroke-linecap: round"/>
     </g>
     <g id="text_10">
      <!-- 0.020 -->
      <g style="fill: #262626" transform="translate(7.2 100.46811) scale(0.088 -0.088)">
       <use xlink:href="#ArialMT-30"/>
       <use xlink:href="#ArialMT-2e" x="55.615234"/>
       <use xlink:href="#ArialMT-30" x="83.398438"/>
       <use xlink:href="#ArialMT-32" x="139.013672"/>
       <use xlink:href="#ArialMT-30" x="194.628906"/>
      </g>
     </g>
    </g>
    <g id="ytick_6">
     <g id="line2d_11">
      <path d="M 37.51925 40.468341 
L 595.51925 40.468341 
" clip-path="url(#p6adb22a783)" style="fill: none; stroke: #ffffff; stroke-width: 0.8; stroke-linecap: round"/>
     </g>
     <g id="text_11">
      <!-- 0.025 -->
      <g style="fill: #262626" transform="translate(7.2 43.617778) scale(0.088 -0.088)">
       <use xlink:href="#ArialMT-30"/>
       <use xlink:href="#ArialMT-2e" x="55.615234"/>
       <use xlink:href="#ArialMT-30" x="83.398438"/>
       <use xlink:href="#ArialMT-32" x="139.013672"/>
       <use xlink:href="#ArialMT-35" x="194.628906"/>
      </g>
     </g>
    </g>
   </g>
   <g id="PolyCollection_1">
    <defs>
     <path id="mf5f4fc84f8" d="M 485.635525 -38.667875 
L 485.635525 -79.568714 
L 485.686258 -79.519643 
L 485.73699 -79.470616 
L 485.787722 -79.421633 
L 485.838455 -79.372695 
L 485.889187 -79.3238 
L 485.939919 -79.27495 
L 485.990652 -79.226143 
L 486.041384 -79.177381 
L 486.092116 -79.128663 
L 486.142849 -79.079989 
L 486.193581 -79.031358 
L 486.244313 -78.982772 
L 486.295046 -78.93423 
L 486.345778 -78.885732 
L 486.39651 -78.837278 
L 486.447243 -78.788867 
L 486.497975 -78.740501 
L 486.548707 -78.692178 
L 486.59944 -78.6439 
L 486.650172 -78.595665 
L 486.700905 -78.547474 
L 486.751637 -78.499327 
L 486.802369 -78.451223 
L 486.853102 -78.403164 
L 486.903834 -78.355148 
L 486.954566 -78.307176 
L 487.005299 -78.259248 
L 487.056031 -78.211363 
L 487.106763 -78.163522 
L 487.157496 -78.115725 
L 487.208228 -78.067972 
L 487.25896 -78.020262 
L 487.309693 -77.972595 
L 487.360425 -77.924973 
L 487.411157 -77.877394 
L 487.46189 -77.829858 
L 487.512622 -77.782366 
L 487.563354 -77.734918 
L 487.614087 -77.687513 
L 487.664819 -77.640151 
L 487.715551 -77.592833 
L 487.766284 -77.545559 
L 487.817016 -77.498327 
L 487.867748 -77.45114 
L 487.918481 -77.403995 
L 487.969213 -77.356894 
L 488.019946 -77.309837 
L 488.070678 -77.262823 
L 488.12141 -77.215852 
L 488.172143 -77.168924 
L 488.222875 -77.12204 
L 488.273607 -77.075199 
L 488.32434 -77.028401 
L 488.375072 -76.981646 
L 488.425804 -76.934935 
L 488.476537 -76.888267 
L 488.527269 -76.841642 
L 488.578001 -76.79506 
L 488.628734 -76.748521 
L 488.679466 -76.702025 
L 488.730198 -76.655573 
L 488.780931 -76.609163 
L 488.831663 -76.562797 
L 488.882395 -76.516474 
L 488.933128 -76.470193 
L 488.98386 -76.423956 
L 489.034592 -76.377761 
L 489.085325 -76.33161 
L 489.136057 -76.285501 
L 489.186789 -76.239436 
L 489.237522 -76.193413 
L 489.288254 -76.147433 
L 489.338987 -76.101496 
L 489.389719 -76.055602 
L 489.440451 -76.009751 
L 489.491184 -75.963943 
L 489.541916 -75.918177 
L 489.592648 -75.872454 
L 489.643381 -75.826774 
L 489.694113 -75.781136 
L 489.744845 -75.735541 
L 489.795578 -75.689989 
L 489.84631 -75.64448 
L 489.897042 -75.599013 
L 489.947775 -75.553589 
L 489.998507 -75.508207 
L 490.049239 -75.462868 
L 490.099972 -75.417572 
L 490.150704 -75.372318 
L 490.201436 -75.327107 
L 490.252169 -75.281938 
L 490.302901 -75.236812 
L 490.353633 -75.191728 
L 490.404366 -75.146686 
L 490.455098 -75.101687 
L 490.50583 -75.056731 
L 490.556563 -75.011817 
L 490.607295 -74.966945 
L 490.658028 -74.922115 
L 490.70876 -74.877328 
L 490.759492 -74.832583 
L 490.810225 -74.787881 
L 490.860957 -74.74322 
L 490.911689 -74.698602 
L 490.962422 -74.654026 
L 491.013154 -74.609493 
L 491.063886 -74.565001 
L 491.114619 -74.520552 
L 491.165351 -74.476145 
L 491.216083 -74.43178 
L 491.266816 -74.387457 
L 491.317548 -74.343176 
L 491.36828 -74.298937 
L 491.419013 -74.254741 
L 491.469745 -74.210586 
L 491.520477 -74.166473 
L 491.57121 -74.122403 
L 491.621942 -74.078374 
L 491.672674 -74.034387 
L 491.723407 -73.990442 
L 491.774139 -73.946539 
L 491.824871 -73.902678 
L 491.875604 -73.858859 
L 491.926336 -73.815082 
L 491.977069 -73.771346 
L 492.027801 -73.727652 
L 492.078533 -73.684 
L 492.129266 -73.64039 
L 492.179998 -73.596822 
L 492.23073 -73.553295 
L 492.281463 -73.50981 
L 492.332195 -73.466366 
L 492.382927 -73.422964 
L 492.43366 -73.379604 
L 492.484392 -73.336286 
L 492.535124 -73.293009 
L 492.585857 -73.249774 
L 492.636589 -73.20658 
L 492.687321 -73.163427 
L 492.738054 -73.120317 
L 492.788786 -73.077247 
L 492.839518 -73.03422 
L 492.890251 -72.991233 
L 492.940983 -72.948288 
L 492.991715 -72.905385 
L 493.042448 -72.862523 
L 493.09318 -72.819702 
L 493.143912 -72.776922 
L 493.194645 -72.734184 
L 493.245377 -72.691487 
L 493.29611 -72.648832 
L 493.346842 -72.606218 
L 493.397574 -72.563645 
L 493.448307 -72.521113 
L 493.499039 -72.478622 
L 493.549771 -72.436173 
L 493.600504 -72.393764 
L 493.651236 -72.351397 
L 493.701968 -72.309071 
L 493.752701 -72.266786 
L 493.803433 -72.224542 
L 493.854165 -72.182339 
L 493.904898 -72.140177 
L 493.95563 -72.098056 
L 494.006362 -72.055977 
L 494.057095 -72.013938 
L 494.107827 -71.97194 
L 494.158559 -71.929983 
L 494.209292 -71.888066 
L 494.260024 -71.846191 
L 494.310756 -71.804357 
L 494.361489 -71.762563 
L 494.412221 -71.72081 
L 494.462953 -71.679098 
L 494.513686 -71.637427 
L 494.564418 -71.595797 
L 494.61515 -71.554207 
L 494.665883 -71.512658 
L 494.716615 -71.471149 
L 494.767348 -71.429682 
L 494.81808 -71.388255 
L 494.868812 -71.346868 
L 494.919545 -71.305522 
L 494.970277 -71.264217 
L 495.021009 -71.222952 
L 495.071742 -71.181728 
L 495.122474 -71.140544 
L 495.173206 -71.099401 
L 495.223939 -71.058299 
L 495.274671 -71.017236 
L 495.325403 -70.976214 
L 495.376136 -70.935233 
L 495.426868 -70.894292 
L 495.4776 -70.853391 
L 495.528333 -70.812531 
L 495.579065 -70.771711 
L 495.629797 -70.730931 
L 495.68053 -70.690191 
L 495.731262 -70.649492 
L 495.781994 -70.608833 
L 495.832727 -70.568214 
L 495.883459 -70.527635 
L 495.934191 -70.487097 
L 495.984924 -70.446599 
L 496.035656 -70.40614 
L 496.086389 -70.365722 
L 496.137121 -70.325344 
L 496.187853 -70.285006 
L 496.238586 -70.244708 
L 496.289318 -70.20445 
L 496.34005 -70.164232 
L 496.390783 -70.124054 
L 496.441515 -70.083916 
L 496.492247 -70.043818 
L 496.54298 -70.003759 
L 496.593712 -69.963741 
L 496.644444 -69.923762 
L 496.695177 -69.883824 
L 496.745909 -69.843925 
L 496.796641 -69.804066 
L 496.847374 -69.764246 
L 496.898106 -69.724467 
L 496.948838 -69.684727 
L 496.999571 -69.645027 
L 497.050303 -69.605366 
L 497.101035 -69.565745 
L 497.151768 -69.526164 
L 497.2025 -69.486622 
L 497.253232 -69.44712 
L 497.303965 -69.407658 
L 497.354697 -69.368235 
L 497.40543 -69.328851 
L 497.456162 -69.289507 
L 497.506894 -69.250203 
L 497.557627 -69.210938 
L 497.608359 -69.171712 
L 497.659091 -69.132526 
L 497.709824 -69.093379 
L 497.760556 -69.054272 
L 497.811288 -69.015204 
L 497.862021 -68.976175 
L 497.912753 -68.937185 
L 497.963485 -68.898235 
L 498.014218 -68.859324 
L 498.06495 -68.820453 
L 498.115682 -68.78162 
L 498.166415 -68.742827 
L 498.217147 -68.704073 
L 498.267879 -68.665357 
L 498.318612 -68.626682 
L 498.369344 -68.588045 
L 498.420076 -68.549447 
L 498.470809 -68.510888 
L 498.521541 -68.472368 
L 498.572273 -68.433888 
L 498.623006 -68.395446 
L 498.673738 -68.357043 
L 498.724471 -68.318679 
L 498.775203 -68.280354 
L 498.825935 -68.242068 
L 498.876668 -68.203821 
L 498.9274 -68.165613 
L 498.978132 -68.127443 
L 499.028865 -68.089313 
L 499.079597 -68.051221 
L 499.130329 -68.013168 
L 499.181062 -67.975153 
L 499.231794 -67.937177 
L 499.282526 -67.89924 
L 499.333259 -67.861342 
L 499.383991 -67.823482 
L 499.434723 -67.785661 
L 499.485456 -67.747878 
L 499.536188 -67.710134 
L 499.58692 -67.672429 
L 499.637653 -67.634762 
L 499.688385 -67.597134 
L 499.739117 -67.559544 
L 499.78985 -67.521992 
L 499.840582 -67.484479 
L 499.891314 -67.447004 
L 499.942047 -67.409568 
L 499.992779 -67.37217 
L 500.043512 -67.334811 
L 500.094244 -67.297489 
L 500.144976 -67.260206 
L 500.195709 -67.222962 
L 500.246441 -67.185755 
L 500.297173 -67.148587 
L 500.347906 -67.111457 
L 500.398638 -67.074365 
L 500.44937 -67.037311 
L 500.500103 -67.000296 
L 500.550835 -66.963318 
L 500.601567 -66.926379 
L 500.6523 -66.889478 
L 500.703032 -66.852614 
L 500.753764 -66.815789 
L 500.804497 -66.779002 
L 500.855229 -66.742253 
L 500.905961 -66.705541 
L 500.956694 -66.668868 
L 501.007426 -66.632232 
L 501.058158 -66.595635 
L 501.108891 -66.559075 
L 501.159623 -66.522553 
L 501.210355 -66.486069 
L 501.261088 -66.449622 
L 501.31182 -66.413214 
L 501.362553 -66.376843 
L 501.413285 -66.34051 
L 501.464017 -66.304214 
L 501.51475 -66.267956 
L 501.565482 -66.231736 
L 501.616214 -66.195554 
L 501.666947 -66.159409 
L 501.717679 -66.123301 
L 501.768411 -66.087232 
L 501.819144 -66.051199 
L 501.869876 -66.015204 
L 501.920608 -65.979247 
L 501.971341 -65.943327 
L 502.022073 -65.907445 
L 502.072805 -65.8716 
L 502.123538 -65.835792 
L 502.17427 -65.800022 
L 502.225002 -65.764289 
L 502.275735 -65.728594 
L 502.326467 -65.692935 
L 502.377199 -65.657314 
L 502.427932 -65.62173 
L 502.478664 -65.586184 
L 502.529396 -65.550674 
L 502.580129 -65.515202 
L 502.630861 -65.479767 
L 502.681594 -65.444369 
L 502.732326 -65.409008 
L 502.783058 -65.373685 
L 502.833791 -65.338398 
L 502.884523 -65.303148 
L 502.935255 -65.267936 
L 502.985988 -65.23276 
L 503.03672 -65.197621 
L 503.087452 -65.16252 
L 503.138185 -65.127455 
L 503.188917 -65.092427 
L 503.239649 -65.057436 
L 503.290382 -65.022482 
L 503.341114 -64.987564 
L 503.391846 -64.952684 
L 503.442579 -64.91784 
L 503.493311 -64.883033 
L 503.544043 -64.848262 
L 503.594776 -64.813529 
L 503.645508 -64.778832 
L 503.69624 -64.744172 
L 503.746973 -64.709548 
L 503.797705 -64.674961 
L 503.848437 -64.64041 
L 503.89917 -64.605896 
L 503.949902 -64.571419 
L 504.000635 -64.536978 
L 504.051367 -64.502574 
L 504.102099 -64.468206 
L 504.152832 -64.433874 
L 504.203564 -64.399579 
L 504.254296 -64.365321 
L 504.305029 -64.331098 
L 504.355761 -64.296912 
L 504.406493 -64.262763 
L 504.457226 -64.22865 
L 504.507958 -64.194572 
L 504.55869 -64.160532 
L 504.609423 -64.126527 
L 504.660155 -64.092559 
L 504.710887 -64.058627 
L 504.76162 -64.024731 
L 504.812352 -63.990871 
L 504.863084 -63.957047 
L 504.913817 -63.923259 
L 504.964549 -63.889508 
L 505.015281 -63.855792 
L 505.066014 -63.822112 
L 505.116746 -63.788469 
L 505.167478 -63.754861 
L 505.218211 -63.721289 
L 505.268943 -63.687754 
L 505.319675 -63.654254 
L 505.370408 -63.62079 
L 505.42114 -63.587362 
L 505.471873 -63.553969 
L 505.522605 -63.520613 
L 505.573337 -63.487292 
L 505.62407 -63.454007 
L 505.674802 -63.420758 
L 505.725534 -63.387544 
L 505.776267 -63.354366 
L 505.826999 -63.321224 
L 505.877731 -63.288117 
L 505.928464 -63.255046 
L 505.979196 -63.222011 
L 506.029928 -63.189011 
L 506.080661 -63.156046 
L 506.131393 -63.123117 
L 506.182125 -63.090224 
L 506.232858 -63.057366 
L 506.28359 -63.024544 
L 506.334322 -62.991757 
L 506.385055 -62.959005 
L 506.435787 -62.926289 
L 506.486519 -62.893608 
L 506.537252 -62.860962 
L 506.587984 -62.828352 
L 506.638716 -62.795777 
L 506.689449 -62.763237 
L 506.740181 -62.730732 
L 506.790914 -62.698263 
L 506.841646 -62.665828 
L 506.892378 -62.633429 
L 506.943111 -62.601065 
L 506.993843 -62.568736 
L 507.044575 -62.536443 
L 507.095308 -62.504184 
L 507.14604 -62.47196 
L 507.196772 -62.439771 
L 507.247505 -62.407618 
L 507.298237 -62.375499 
L 507.348969 -62.343415 
L 507.399702 -62.311366 
L 507.450434 -62.279352 
L 507.501166 -62.247373 
L 507.551899 -62.215428 
L 507.602631 -62.183519 
L 507.653363 -62.151644 
L 507.704096 -62.119804 
L 507.754828 -62.087999 
L 507.80556 -62.056228 
L 507.856293 -62.024492 
L 507.907025 -61.992791 
L 507.957757 -61.961124 
L 508.00849 -61.929492 
L 508.059222 -61.897895 
L 508.109955 -61.866332 
L 508.160687 -61.834804 
L 508.211419 -61.80331 
L 508.262152 -61.771851 
L 508.312884 -61.740426 
L 508.363616 -61.709036 
L 508.414349 -61.67768 
L 508.465081 -61.646358 
L 508.515813 -61.615071 
L 508.566546 -61.583818 
L 508.617278 -61.5526 
L 508.66801 -61.521416 
L 508.718743 -61.490266 
L 508.769475 -61.45915 
L 508.820207 -61.428069 
L 508.87094 -61.397022 
L 508.921672 -61.366009 
L 508.972404 -61.33503 
L 509.023137 -61.304085 
L 509.073869 -61.273174 
L 509.124601 -61.242298 
L 509.175334 -61.211455 
L 509.226066 -61.180647 
L 509.276798 -61.149872 
L 509.327531 -61.119132 
L 509.378263 -61.088425 
L 509.428996 -61.057753 
L 509.479728 -61.027114 
L 509.53046 -60.996509 
L 509.581193 -60.965938 
L 509.631925 -60.935401 
L 509.682657 -60.904898 
L 509.73339 -60.874428 
L 509.784122 -60.843993 
L 509.834854 -60.813591 
L 509.885587 -60.783222 
L 509.936319 -60.752888 
L 509.987051 -60.722587 
L 510.037784 -60.69232 
L 510.088516 -60.662086 
L 510.139248 -60.631886 
L 510.189981 -60.601719 
L 510.240713 -60.571586 
L 510.291445 -60.541487 
L 510.342178 -60.511421 
L 510.39291 -60.481389 
L 510.443642 -60.45139 
L 510.494375 -60.421424 
L 510.545107 -60.391492 
L 510.595839 -60.361593 
L 510.646572 -60.331728 
L 510.697304 -60.301895 
L 510.748037 -60.272097 
L 510.798769 -60.242331 
L 510.849501 -60.212599 
L 510.900234 -60.1829 
L 510.950966 -60.153234 
L 511.001698 -60.123601 
L 511.052431 -60.094002 
L 511.103163 -60.064435 
L 511.153895 -60.034902 
L 511.204628 -60.005402 
L 511.25536 -59.975934 
L 511.306092 -59.9465 
L 511.356825 -59.917099 
L 511.407557 -59.887731 
L 511.458289 -59.858396 
L 511.509022 -59.829094 
L 511.559754 -59.799824 
L 511.610486 -59.770588 
L 511.661219 -59.741384 
L 511.711951 -59.712213 
L 511.762683 -59.683076 
L 511.813416 -59.65397 
L 511.864148 -59.624898 
L 511.91488 -59.595858 
L 511.965613 -59.566851 
L 512.016345 -59.537877 
L 512.067078 -59.508936 
L 512.11781 -59.480027 
L 512.168542 -59.45115 
L 512.219275 -59.422307 
L 512.270007 -59.393495 
L 512.320739 -59.364717 
L 512.371472 -59.335971 
L 512.422204 -59.307257 
L 512.472936 -59.278576 
L 512.523669 -59.249927 
L 512.574401 -59.221311 
L 512.625133 -59.192727 
L 512.675866 -59.164176 
L 512.726598 -59.135656 
L 512.77733 -59.10717 
L 512.828063 -59.078715 
L 512.878795 -59.050293 
L 512.929527 -59.021903 
L 512.98026 -58.993545 
L 513.030992 -58.965219 
L 513.081724 -58.936926 
L 513.132457 -58.908665 
L 513.183189 -58.880436 
L 513.233921 -58.852239 
L 513.284654 -58.824074 
L 513.335386 -58.795941 
L 513.386119 -58.76784 
L 513.436851 -58.739771 
L 513.487583 -58.711734 
L 513.538316 -58.683729 
L 513.589048 -58.655756 
L 513.63978 -58.627815 
L 513.690513 -58.599906 
L 513.741245 -58.572028 
L 513.791977 -58.544183 
L 513.84271 -58.516369 
L 513.893442 -58.488587 
L 513.944174 -58.460837 
L 513.994907 -58.433119 
L 514.045639 -58.405432 
L 514.096371 -58.377777 
L 514.147104 -58.350154 
L 514.197836 -58.322562 
L 514.248568 -58.295002 
L 514.299301 -58.267473 
L 514.350033 -58.239976 
L 514.400765 -58.212511 
L 514.451498 -58.185077 
L 514.50223 -58.157674 
L 514.552962 -58.130303 
L 514.603695 -58.102964 
L 514.654427 -58.075656 
L 514.70516 -58.048379 
L 514.755892 -58.021134 
L 514.806624 -57.99392 
L 514.857357 -57.966737 
L 514.908089 -57.939586 
L 514.958821 -57.912465 
L 515.009554 -57.885377 
L 515.060286 -57.858319 
L 515.111018 -57.831292 
L 515.161751 -57.804297 
L 515.212483 -57.777333 
L 515.263215 -57.7504 
L 515.313948 -57.723498 
L 515.36468 -57.696627 
L 515.415412 -57.669787 
L 515.466145 -57.642979 
L 515.516877 -57.616201 
L 515.567609 -57.589454 
L 515.618342 -57.562738 
L 515.669074 -57.536053 
L 515.719806 -57.509399 
L 515.770539 -57.482776 
L 515.821271 -57.456184 
L 515.872003 -57.429622 
L 515.922736 -57.403092 
L 515.973468 -57.376592 
L 516.0242 -57.350123 
L 516.074933 -57.323684 
L 516.125665 -57.297277 
L 516.176398 -57.2709 
L 516.22713 -57.244553 
L 516.277862 -57.218238 
L 516.328595 -57.191953 
L 516.379327 -57.165698 
L 516.430059 -57.139474 
L 516.480792 -57.113281 
L 516.531524 -57.087118 
L 516.582256 -57.060985 
L 516.632989 -57.034883 
L 516.683721 -57.008812 
L 516.734453 -56.982771 
L 516.785186 -56.95676 
L 516.835918 -56.93078 
L 516.88665 -56.90483 
L 516.937383 -56.87891 
L 516.988115 -56.853021 
L 517.038847 -56.827161 
L 517.08958 -56.801333 
L 517.140312 -56.775534 
L 517.191044 -56.749765 
L 517.241777 -56.724027 
L 517.292509 -56.698319 
L 517.343241 -56.672641 
L 517.393974 -56.646993 
L 517.444706 -56.621375 
L 517.495439 -56.595787 
L 517.546171 -56.570229 
L 517.596903 -56.544701 
L 517.647636 -56.519204 
L 517.698368 -56.493736 
L 517.7491 -56.468298 
L 517.799833 -56.44289 
L 517.850565 -56.417511 
L 517.901297 -56.392163 
L 517.95203 -56.366845 
L 518.002762 -56.341556 
L 518.053494 -56.316297 
L 518.104227 -56.291068 
L 518.154959 -56.265868 
L 518.205691 -56.240699 
L 518.256424 -56.215559 
L 518.307156 -56.190448 
L 518.357888 -56.165367 
L 518.408621 -56.140316 
L 518.459353 -56.115295 
L 518.510085 -56.090303 
L 518.560818 -56.06534 
L 518.61155 -56.040407 
L 518.662282 -56.015504 
L 518.713015 -55.99063 
L 518.763747 -55.965785 
L 518.81448 -55.94097 
L 518.865212 -55.916184 
L 518.915944 -55.891427 
L 518.966677 -55.8667 
L 519.017409 -55.842003 
L 519.068141 -55.817334 
L 519.118874 -55.792695 
L 519.169606 -55.768085 
L 519.220338 -55.743504 
L 519.271071 -55.718953 
L 519.321803 -55.69443 
L 519.372535 -55.669937 
L 519.423268 -55.645473 
L 519.474 -55.621038 
L 519.524732 -55.596632 
L 519.575465 -55.572255 
L 519.626197 -55.547907 
L 519.676929 -55.523588 
L 519.727662 -55.499298 
L 519.778394 -55.475037 
L 519.829126 -55.450805 
L 519.879859 -55.426602 
L 519.930591 -55.402428 
L 519.981323 -55.378283 
L 520.032056 -55.354166 
L 520.082788 -55.330078 
L 520.133521 -55.306019 
L 520.184253 -55.281989 
L 520.234985 -55.257987 
L 520.285718 -55.234015 
L 520.33645 -55.210071 
L 520.387182 -55.186155 
L 520.437915 -55.162268 
L 520.488647 -55.13841 
L 520.539379 -55.114581 
L 520.590112 -55.09078 
L 520.640844 -55.067007 
L 520.691576 -55.043263 
L 520.742309 -55.019548 
L 520.793041 -54.995861 
L 520.843773 -54.972202 
L 520.894506 -54.948572 
L 520.945238 -54.92497 
L 520.99597 -54.901397 
L 521.046703 -54.877852 
L 521.097435 -54.854335 
L 521.148167 -54.830846 
L 521.1989 -54.807386 
L 521.249632 -54.783954 
L 521.300364 -54.760551 
L 521.351097 -54.737175 
L 521.401829 -54.713828 
L 521.452562 -54.690509 
L 521.503294 -54.667218 
L 521.554026 -54.643955 
L 521.604759 -54.62072 
L 521.655491 -54.597513 
L 521.706223 -54.574334 
L 521.756956 -54.551183 
L 521.807688 -54.528061 
L 521.85842 -54.504966 
L 521.909153 -54.481899 
L 521.959885 -54.45886 
L 522.010617 -54.435849 
L 522.06135 -54.412866 
L 522.112082 -54.38991 
L 522.162814 -54.366983 
L 522.213547 -54.344083 
L 522.264279 -54.321211 
L 522.315011 -54.298367 
L 522.365744 -54.27555 
L 522.416476 -54.252761 
L 522.467208 -54.23 
L 522.517941 -54.207267 
L 522.568673 -54.184561 
L 522.619405 -54.161882 
L 522.670138 -54.139232 
L 522.72087 -54.116609 
L 522.771603 -54.094013 
L 522.822335 -54.071445 
L 522.873067 -54.048904 
L 522.9238 -54.026391 
L 522.974532 -54.003905 
L 523.025264 -53.981447 
L 523.075997 -53.959016 
L 523.126729 -53.936612 
L 523.177461 -53.914236 
L 523.228194 -53.891887 
L 523.278926 -53.869565 
L 523.329658 -53.847271 
L 523.380391 -53.825003 
L 523.431123 -53.802763 
L 523.481855 -53.780551 
L 523.532588 -53.758365 
L 523.58332 -53.736206 
L 523.634052 -53.714075 
L 523.684785 -53.691971 
L 523.735517 -53.669894 
L 523.786249 -53.647843 
L 523.836982 -53.62582 
L 523.887714 -53.603824 
L 523.938446 -53.581855 
L 523.989179 -53.559913 
L 524.039911 -53.537997 
L 524.090644 -53.516109 
L 524.141376 -53.494248 
L 524.192108 -53.472413 
L 524.242841 -53.450605 
L 524.293573 -53.428824 
L 524.344305 -53.40707 
L 524.395038 -53.385342 
L 524.44577 -53.363642 
L 524.496502 -53.341968 
L 524.547235 -53.32032 
L 524.597967 -53.2987 
L 524.648699 -53.277106 
L 524.699432 -53.255538 
L 524.750164 -53.233998 
L 524.800896 -53.212483 
L 524.851629 -53.190996 
L 524.902361 -53.169535 
L 524.953093 -53.1481 
L 525.003826 -53.126692 
L 525.054558 -53.10531 
L 525.10529 -53.083955 
L 525.156023 -53.062626 
L 525.206755 -53.041323 
L 525.257487 -53.020047 
L 525.30822 -52.998797 
L 525.358952 -52.977574 
L 525.409684 -52.956377 
L 525.460417 -52.935206 
L 525.511149 -52.914061 
L 525.561882 -52.892943 
L 525.612614 -52.87185 
L 525.663346 -52.850784 
L 525.714079 -52.829744 
L 525.764811 -52.80873 
L 525.815543 -52.787742 
L 525.866276 -52.766781 
L 525.917008 -52.745845 
L 525.96774 -52.724935 
L 526.018473 -52.704052 
L 526.069205 -52.683194 
L 526.119937 -52.662362 
L 526.17067 -52.641557 
L 526.221402 -52.620777 
L 526.272134 -52.600023 
L 526.322867 -52.579295 
L 526.373599 -52.558592 
L 526.424331 -52.537916 
L 526.475064 -52.517265 
L 526.525796 -52.49664 
L 526.576528 -52.476041 
L 526.627261 -52.455468 
L 526.677993 -52.43492 
L 526.728725 -52.414398 
L 526.779458 -52.393902 
L 526.83019 -52.373431 
L 526.880923 -52.352986 
L 526.931655 -52.332566 
L 526.982387 -52.312172 
L 527.03312 -52.291803 
L 527.083852 -52.27146 
L 527.134584 -52.251143 
L 527.185317 -52.230851 
L 527.236049 -52.210584 
L 527.286781 -52.190343 
L 527.337514 -52.170127 
L 527.388246 -52.149937 
L 527.438978 -52.129772 
L 527.489711 -52.109632 
L 527.540443 -52.089517 
L 527.591175 -52.069428 
L 527.641908 -52.049364 
L 527.69264 -52.029325 
L 527.743372 -52.009312 
L 527.794105 -51.989323 
L 527.844837 -51.96936 
L 527.895569 -51.949422 
L 527.946302 -51.929509 
L 527.997034 -51.909621 
L 528.047766 -51.889759 
L 528.098499 -51.869921 
L 528.149231 -51.850108 
L 528.199964 -51.83032 
L 528.250696 -51.810557 
L 528.301428 -51.79082 
L 528.352161 -51.771107 
L 528.402893 -51.751419 
L 528.453625 -51.731756 
L 528.504358 -51.712117 
L 528.55509 -51.692504 
L 528.605822 -51.672915 
L 528.656555 -51.653351 
L 528.707287 -51.633812 
L 528.758019 -51.614298 
L 528.808752 -51.594808 
L 528.859484 -51.575343 
L 528.910216 -51.555903 
L 528.960949 -51.536487 
L 529.011681 -51.517096 
L 529.062413 -51.49773 
L 529.113146 -51.478388 
L 529.163878 -51.459071 
L 529.21461 -51.439778 
L 529.265343 -51.42051 
L 529.316075 -51.401266 
L 529.366807 -51.382047 
L 529.41754 -51.362852 
L 529.468272 -51.343682 
L 529.519005 -51.324536 
L 529.569737 -51.305414 
L 529.620469 -51.286317 
L 529.671202 -51.267244 
L 529.721934 -51.248195 
L 529.772666 -51.22917 
L 529.823399 -51.21017 
L 529.874131 -51.191194 
L 529.924863 -51.172242 
L 529.975596 -51.153315 
L 530.026328 -51.134412 
L 530.07706 -51.115532 
L 530.127793 -51.096677 
L 530.178525 -51.077846 
L 530.229257 -51.059039 
L 530.27999 -51.040256 
L 530.330722 -51.021497 
L 530.381454 -51.002762 
L 530.432187 -50.984051 
L 530.482919 -50.965364 
L 530.533651 -50.946701 
L 530.584384 -50.928062 
L 530.635116 -50.909447 
L 530.685848 -50.890856 
L 530.736581 -50.872288 
L 530.787313 -50.853744 
L 530.838046 -50.835224 
L 530.888778 -50.816728 
L 530.93951 -50.798256 
L 530.990243 -50.779807 
L 531.040975 -50.761382 
L 531.091707 -50.742981 
L 531.14244 -50.724603 
L 531.193172 -50.706249 
L 531.243904 -50.687919 
L 531.294637 -50.669612 
L 531.345369 -50.651329 
L 531.396101 -50.633069 
L 531.446834 -50.614833 
L 531.497566 -50.59662 
L 531.548298 -50.578431 
L 531.599031 -50.560265 
L 531.649763 -50.542123 
L 531.700495 -50.524004 
L 531.751228 -50.505908 
L 531.80196 -50.487836 
L 531.852692 -50.469787 
L 531.903425 -50.451762 
L 531.954157 -50.43376 
L 532.004889 -50.415781 
L 532.055622 -50.397825 
L 532.106354 -50.379892 
L 532.157087 -50.361983 
L 532.207819 -50.344097 
L 532.258551 -50.326234 
L 532.309284 -50.308394 
L 532.360016 -50.290578 
L 532.410748 -50.272784 
L 532.461481 -50.255014 
L 532.512213 -50.237266 
L 532.562945 -50.219542 
L 532.613678 -50.20184 
L 532.66441 -50.184162 
L 532.715142 -50.166506 
L 532.765875 -50.148874 
L 532.816607 -50.131264 
L 532.867339 -50.113677 
L 532.918072 -50.096113 
L 532.968804 -50.078572 
L 533.019536 -50.061054 
L 533.070269 -50.043559 
L 533.121001 -50.026086 
L 533.171733 -50.008636 
L 533.222466 -49.991209 
L 533.273198 -49.973804 
L 533.32393 -49.956423 
L 533.374663 -49.939063 
L 533.425395 -49.921727 
L 533.476128 -49.904413 
L 533.52686 -49.887122 
L 533.577592 -49.869853 
L 533.628325 -49.852607 
L 533.679057 -49.835383 
L 533.729789 -49.818182 
L 533.780522 -49.801004 
L 533.831254 -49.783848 
L 533.881986 -49.766714 
L 533.932719 -49.749603 
L 533.983451 -49.732514 
L 534.034183 -49.715447 
L 534.084916 -49.698403 
L 534.135648 -49.681381 
L 534.18638 -49.664382 
L 534.237113 -49.647404 
L 534.287845 -49.630449 
L 534.338577 -49.613517 
L 534.38931 -49.596606 
L 534.440042 -49.579718 
L 534.490774 -49.562852 
L 534.541507 -49.546008 
L 534.592239 -49.529186 
L 534.642971 -49.512386 
L 534.693704 -49.495608 
L 534.744436 -49.478853 
L 534.795169 -49.462119 
L 534.845901 -49.445408 
L 534.896633 -49.428718 
L 534.947366 -49.412051 
L 534.998098 -49.395405 
L 535.04883 -49.378781 
L 535.099563 -49.362179 
L 535.150295 -49.3456 
L 535.201027 -49.329042 
L 535.25176 -49.312505 
L 535.302492 -49.295991 
L 535.353224 -49.279499 
L 535.403957 -49.263028 
L 535.454689 -49.246579 
L 535.505421 -49.230151 
L 535.556154 -49.213746 
L 535.606886 -49.197362 
L 535.657618 -49.181 
L 535.708351 -49.164659 
L 535.759083 -49.14834 
L 535.809815 -49.132043 
L 535.860548 -49.115767 
L 535.91128 -49.099513 
L 535.962012 -49.08328 
L 536.012745 -49.067069 
L 536.063477 -49.050879 
L 536.114209 -49.034711 
L 536.164942 -49.018565 
L 536.215674 -49.002439 
L 536.266407 -48.986335 
L 536.317139 -48.970253 
L 536.367871 -48.954192 
L 536.418604 -48.938152 
L 536.469336 -48.922133 
L 536.520068 -48.906136 
L 536.570801 -48.89016 
L 536.621533 -48.874206 
L 536.672265 -48.858272 
L 536.722998 -48.84236 
L 536.77373 -48.826469 
L 536.824462 -48.810599 
L 536.875195 -48.79475 
L 536.925927 -48.778923 
L 536.976659 -48.763116 
L 537.027392 -48.747331 
L 537.078124 -48.731566 
L 537.128856 -48.715823 
L 537.179589 -48.700101 
L 537.230321 -48.684399 
L 537.281053 -48.668719 
L 537.331786 -48.65306 
L 537.382518 -48.637421 
L 537.43325 -48.621804 
L 537.483983 -48.606207 
L 537.534715 -48.590631 
L 537.585448 -48.575076 
L 537.63618 -48.559542 
L 537.686912 -48.544029 
L 537.737645 -48.528536 
L 537.788377 -48.513065 
L 537.839109 -48.497613 
L 537.889842 -48.482183 
L 537.940574 -48.466774 
L 537.991306 -48.451385 
L 538.042039 -48.436016 
L 538.092771 -48.420669 
L 538.143503 -48.405341 
L 538.194236 -48.390035 
L 538.244968 -48.374749 
L 538.2957 -48.359484 
L 538.346433 -48.344239 
L 538.397165 -48.329014 
L 538.447897 -48.313811 
L 538.49863 -48.298627 
L 538.549362 -48.283464 
L 538.600094 -48.268322 
L 538.650827 -48.253199 
L 538.701559 -48.238098 
L 538.752291 -48.223016 
L 538.803024 -48.207955 
L 538.853756 -48.192914 
L 538.904489 -48.177894 
L 538.955221 -48.162893 
L 539.005953 -48.147913 
L 539.056686 -48.132954 
L 539.107418 -48.118014 
L 539.15815 -48.103095 
L 539.208883 -48.088195 
L 539.259615 -48.073316 
L 539.310347 -48.058457 
L 539.36108 -48.043618 
L 539.411812 -48.0288 
L 539.462544 -48.014001 
L 539.513277 -47.999222 
L 539.564009 -47.984464 
L 539.614741 -47.969725 
L 539.665474 -47.955006 
L 539.716206 -47.940307 
L 539.766938 -47.925629 
L 539.817671 -47.91097 
L 539.868403 -47.896331 
L 539.919135 -47.881711 
L 539.969868 -47.867112 
L 540.0206 -47.852533 
L 540.071332 -47.837973 
L 540.122065 -47.823433 
L 540.172797 -47.808913 
L 540.22353 -47.794412 
L 540.274262 -47.779932 
L 540.324994 -47.765471 
L 540.375727 -47.751029 
L 540.426459 -47.736608 
L 540.477191 -47.722206 
L 540.527924 -47.707823 
L 540.578656 -47.693461 
L 540.629388 -47.679117 
L 540.680121 -47.664794 
L 540.730853 -47.65049 
L 540.781585 -47.636205 
L 540.832318 -47.62194 
L 540.88305 -47.607694 
L 540.933782 -47.593468 
L 540.984515 -47.579261 
L 541.035247 -47.565074 
L 541.085979 -47.550906 
L 541.136712 -47.536757 
L 541.187444 -47.522628 
L 541.238176 -47.508518 
L 541.288909 -47.494427 
L 541.339641 -47.480356 
L 541.390373 -47.466304 
L 541.441106 -47.452271 
L 541.491838 -47.438257 
L 541.542571 -47.424263 
L 541.593303 -47.410288 
L 541.644035 -47.396332 
L 541.694768 -47.382395 
L 541.7455 -47.368477 
L 541.796232 -47.354578 
L 541.846965 -47.340699 
L 541.897697 -47.326838 
L 541.948429 -47.312996 
L 541.999162 -47.299174 
L 542.049894 -47.28537 
L 542.100626 -47.271586 
L 542.151359 -47.25782 
L 542.202091 -47.244074 
L 542.252823 -47.230346 
L 542.303556 -47.216637 
L 542.354288 -47.202947 
L 542.40502 -47.189276 
L 542.455753 -47.175624 
L 542.506485 -47.16199 
L 542.557217 -47.148376 
L 542.60795 -47.13478 
L 542.658682 -47.121203 
L 542.709414 -47.107644 
L 542.760147 -47.094104 
L 542.810879 -47.080583 
L 542.861612 -47.067081 
L 542.912344 -47.053597 
L 542.963076 -47.040132 
L 543.013809 -47.026686 
L 543.064541 -47.013258 
L 543.115273 -46.999849 
L 543.166006 -46.986458 
L 543.216738 -46.973086 
L 543.26747 -46.959732 
L 543.318203 -46.946397 
L 543.368935 -46.93308 
L 543.419667 -46.919782 
L 543.4704 -46.906502 
L 543.521132 -46.893241 
L 543.571864 -46.879998 
L 543.622597 -46.866773 
L 543.673329 -46.853567 
L 543.724061 -46.840379 
L 543.774794 -46.827209 
L 543.825526 -46.814058 
L 543.876258 -46.800925 
L 543.926991 -46.78781 
L 543.977723 -46.774713 
L 544.028455 -46.761635 
L 544.079188 -46.748574 
L 544.12992 -46.735532 
L 544.180653 -46.722508 
L 544.231385 -46.709503 
L 544.282117 -46.696515 
L 544.33285 -46.683545 
L 544.383582 -46.670594 
L 544.434314 -46.65766 
L 544.485047 -46.644745 
L 544.535779 -46.631847 
L 544.586511 -46.618968 
L 544.637244 -46.606106 
L 544.687976 -46.593263 
L 544.738708 -46.580437 
L 544.789441 -46.56763 
L 544.840173 -46.55484 
L 544.890905 -46.542068 
L 544.941638 -46.529314 
L 544.99237 -46.516578 
L 545.043102 -46.503859 
L 545.093835 -46.491159 
L 545.144567 -46.478476 
L 545.195299 -46.465811 
L 545.246032 -46.453163 
L 545.296764 -46.440533 
L 545.347496 -46.427922 
L 545.398229 -46.415327 
L 545.448961 -46.402751 
L 545.499693 -46.390192 
L 545.550426 -46.37765 
L 545.601158 -46.365126 
L 545.651891 -46.35262 
L 545.702623 -46.340132 
L 545.753355 -46.32766 
L 545.804088 -46.315207 
L 545.85482 -46.302771 
L 545.905552 -46.290352 
L 545.956285 -46.277951 
L 546.007017 -46.265567 
L 546.057749 -46.253201 
L 546.108482 -46.240852 
L 546.159214 -46.22852 
L 546.209946 -46.216206 
L 546.260679 -46.203909 
L 546.311411 -46.19163 
L 546.362143 -46.179368 
L 546.412876 -46.167123 
L 546.463608 -46.154895 
L 546.51434 -46.142685 
L 546.565073 -46.130492 
L 546.615805 -46.118316 
L 546.666537 -46.106157 
L 546.71727 -46.094015 
L 546.768002 -46.081891 
L 546.818734 -46.069784 
L 546.869467 -46.057693 
L 546.920199 -46.04562 
L 546.970932 -46.033564 
L 547.021664 -46.021525 
L 547.072396 -46.009503 
L 547.123129 -45.997498 
L 547.173861 -45.98551 
L 547.224593 -45.973539 
L 547.275326 -45.961585 
L 547.326058 -45.949648 
L 547.37679 -45.937728 
L 547.427523 -45.925825 
L 547.478255 -45.913938 
L 547.528987 -45.902069 
L 547.57972 -45.890216 
L 547.630452 -45.87838 
L 547.681184 -45.866561 
L 547.731917 -45.854759 
L 547.782649 -45.842974 
L 547.833381 -45.831205 
L 547.884114 -45.819453 
L 547.934846 -45.807717 
L 547.985578 -45.795999 
L 548.036311 -45.784297 
L 548.087043 -45.772612 
L 548.137775 -45.760943 
L 548.188508 -45.749291 
L 548.23924 -45.737655 
L 548.289973 -45.726037 
L 548.340705 -45.714434 
L 548.391437 -45.702848 
L 548.44217 -45.691279 
L 548.492902 -45.679726 
L 548.543634 -45.66819 
L 548.594367 -45.65667 
L 548.645099 -45.645167 
L 548.695831 -45.63368 
L 548.746564 -45.622209 
L 548.797296 -45.610755 
L 548.848028 -45.599318 
L 548.898761 -45.587896 
L 548.949493 -45.576491 
L 549.000225 -45.565102 
L 549.050958 -45.55373 
L 549.10169 -45.542374 
L 549.152422 -45.531034 
L 549.203155 -45.51971 
L 549.253887 -45.508402 
L 549.304619 -45.497111 
L 549.355352 -45.485836 
L 549.406084 -45.474577 
L 549.456816 -45.463334 
L 549.507549 -45.452108 
L 549.558281 -45.440897 
L 549.609014 -45.429702 
L 549.659746 -45.418524 
L 549.710478 -45.407362 
L 549.761211 -45.396215 
L 549.811943 -45.385085 
L 549.862675 -45.373971 
L 549.913408 -45.362872 
L 549.96414 -45.35179 
L 550.014872 -45.340724 
L 550.065605 -45.329673 
L 550.116337 -45.318639 
L 550.167069 -45.30762 
L 550.217802 -45.296617 
L 550.268534 -45.28563 
L 550.319266 -45.274659 
L 550.369999 -45.263704 
L 550.420731 -45.252764 
L 550.471463 -45.24184 
L 550.522196 -45.230932 
L 550.572928 -45.22004 
L 550.62366 -45.209163 
L 550.674393 -45.198303 
L 550.725125 -45.187457 
L 550.775857 -45.176628 
L 550.82659 -45.165814 
L 550.877322 -45.155016 
L 550.928055 -45.144233 
L 550.978787 -45.133466 
L 551.029519 -45.122715 
L 551.080252 -45.111979 
L 551.130984 -45.101259 
L 551.181716 -45.090554 
L 551.232449 -45.079865 
L 551.283181 -45.069191 
L 551.333913 -45.058532 
L 551.384646 -45.047889 
L 551.435378 -45.037262 
L 551.48611 -45.02665 
L 551.536843 -45.016053 
L 551.587575 -45.005472 
L 551.638307 -44.994906 
L 551.68904 -44.984355 
L 551.739772 -44.97382 
L 551.790504 -44.9633 
L 551.841237 -44.952796 
L 551.891969 -44.942306 
L 551.942701 -44.931832 
L 551.993434 -44.921373 
L 552.044166 -44.910929 
L 552.094898 -44.900501 
L 552.145631 -44.890088 
L 552.196363 -44.879689 
L 552.247096 -44.869306 
L 552.297828 -44.858938 
L 552.34856 -44.848586 
L 552.399293 -44.838248 
L 552.450025 -44.827925 
L 552.500757 -44.817618 
L 552.55149 -44.807325 
L 552.602222 -44.797048 
L 552.652954 -44.786785 
L 552.703687 -44.776538 
L 552.754419 -44.766305 
L 552.805151 -44.756087 
L 552.855884 -44.745885 
L 552.906616 -44.735697 
L 552.957348 -44.725524 
L 553.008081 -44.715366 
L 553.058813 -44.705223 
L 553.109545 -44.695095 
L 553.160278 -44.684981 
L 553.21101 -44.674883 
L 553.261742 -44.664799 
L 553.312475 -44.65473 
L 553.363207 -44.644675 
L 553.413939 -44.634636 
L 553.464672 -44.624611 
L 553.515404 -44.614601 
L 553.566137 -44.604605 
L 553.616869 -44.594624 
L 553.667601 -44.584658 
L 553.718334 -44.574706 
L 553.769066 -44.56477 
L 553.819798 -44.554847 
L 553.870531 -44.544939 
L 553.921263 -44.535046 
L 553.971995 -44.525168 
L 554.022728 -44.515303 
L 554.07346 -44.505454 
L 554.124192 -44.495619 
L 554.174925 -44.485798 
L 554.225657 -44.475992 
L 554.276389 -44.4662 
L 554.327122 -44.456423 
L 554.377854 -44.44666 
L 554.428586 -44.436911 
L 554.479319 -44.427177 
L 554.530051 -44.417457 
L 554.580783 -44.407752 
L 554.631516 -44.398061 
L 554.682248 -44.388384 
L 554.73298 -44.378721 
L 554.783713 -44.369073 
L 554.834445 -44.359439 
L 554.885178 -44.349819 
L 554.93591 -44.340213 
L 554.986642 -44.330622 
L 555.037375 -44.321045 
L 555.088107 -44.311482 
L 555.138839 -44.301933 
L 555.189572 -44.292398 
L 555.240304 -44.282877 
L 555.291036 -44.273371 
L 555.341769 -44.263878 
L 555.392501 -44.2544 
L 555.443233 -44.244936 
L 555.493966 -44.235485 
L 555.544698 -44.226049 
L 555.59543 -44.216627 
L 555.646163 -44.207218 
L 555.696895 -44.197824 
L 555.747627 -44.188443 
L 555.79836 -44.179077 
L 555.849092 -44.169724 
L 555.899824 -44.160386 
L 555.950557 -44.151061 
L 556.001289 -44.14175 
L 556.052021 -44.132453 
L 556.102754 -44.123169 
L 556.153486 -44.1139 
L 556.204218 -44.104644 
L 556.254951 -44.095402 
L 556.305683 -44.086174 
L 556.356416 -44.07696 
L 556.407148 -44.067759 
L 556.45788 -44.058572 
L 556.508613 -44.049399 
L 556.559345 -44.040239 
L 556.610077 -44.031093 
L 556.66081 -44.021961 
L 556.711542 -44.012842 
L 556.762274 -44.003737 
L 556.813007 -43.994645 
L 556.863739 -43.985567 
L 556.914471 -43.976503 
L 556.965204 -43.967452 
L 557.015936 -43.958415 
L 557.066668 -43.949391 
L 557.117401 -43.940381 
L 557.168133 -43.931384 
L 557.218865 -43.922401 
L 557.269598 -43.913431 
L 557.32033 -43.904474 
L 557.371062 -43.895531 
L 557.421795 -43.886602 
L 557.472527 -43.877685 
L 557.523259 -43.868782 
L 557.573992 -43.859893 
L 557.624724 -43.851016 
L 557.675457 -43.842154 
L 557.726189 -43.833304 
L 557.776921 -43.824467 
L 557.827654 -43.815644 
L 557.878386 -43.806834 
L 557.929118 -43.798038 
L 557.979851 -43.789254 
L 558.030583 -43.780484 
L 558.081315 -43.771727 
L 558.132048 -43.762983 
L 558.18278 -43.754253 
L 558.233512 -43.745535 
L 558.284245 -43.73683 
L 558.334977 -43.728139 
L 558.385709 -43.719461 
L 558.436442 -43.710795 
L 558.487174 -43.702143 
L 558.537906 -43.693504 
L 558.588639 -43.684878 
L 558.639371 -43.676265 
L 558.690103 -43.667665 
L 558.740836 -43.659078 
L 558.791568 -43.650503 
L 558.8423 -43.641942 
L 558.893033 -43.633394 
L 558.943765 -43.624858 
L 558.994498 -43.616336 
L 559.04523 -43.607826 
L 559.095962 -43.599329 
L 559.146695 -43.590845 
L 559.197427 -43.582374 
L 559.248159 -43.573916 
L 559.298892 -43.56547 
L 559.349624 -43.557037 
L 559.400356 -43.548617 
L 559.451089 -43.54021 
L 559.501821 -43.531815 
L 559.552553 -43.523434 
L 559.603286 -43.515065 
L 559.654018 -43.506708 
L 559.70475 -43.498364 
L 559.755483 -43.490033 
L 559.806215 -43.481715 
L 559.856947 -43.473409 
L 559.90768 -43.465116 
L 559.958412 -43.456835 
L 560.009144 -43.448567 
L 560.059877 -43.440311 
L 560.110609 -43.432068 
L 560.161341 -43.423838 
L 560.212074 -43.41562 
L 560.262806 -43.407414 
L 560.313539 -43.399221 
L 560.364271 -43.391041 
L 560.415003 -43.382873 
L 560.465736 -43.374717 
L 560.516468 -43.366574 
L 560.5672 -43.358443 
L 560.617933 -43.350324 
L 560.668665 -43.342218 
L 560.719397 -43.334125 
L 560.77013 -43.326043 
L 560.820862 -43.317974 
L 560.871594 -43.309917 
L 560.922327 -43.301873 
L 560.973059 -43.293841 
L 561.023791 -43.285821 
L 561.074524 -43.277813 
L 561.125256 -43.269817 
L 561.175988 -43.261834 
L 561.226721 -43.253863 
L 561.277453 -43.245904 
L 561.328185 -43.237957 
L 561.378918 -43.230023 
L 561.42965 -43.2221 
L 561.480382 -43.21419 
L 561.531115 -43.206292 
L 561.581847 -43.198406 
L 561.63258 -43.190532 
L 561.683312 -43.18267 
L 561.734044 -43.17482 
L 561.784777 -43.166982 
L 561.835509 -43.159156 
L 561.886241 -43.151342 
L 561.936974 -43.14354 
L 561.987706 -43.13575 
L 562.038438 -43.127972 
L 562.089171 -43.120206 
L 562.139903 -43.112452 
L 562.190635 -43.10471 
L 562.241368 -43.096979 
L 562.2921 -43.089261 
L 562.342832 -43.081554 
L 562.393565 -43.07386 
L 562.444297 -43.066177 
L 562.495029 -43.058506 
L 562.545762 -43.050846 
L 562.596494 -43.043199 
L 562.647226 -43.035563 
L 562.697959 -43.027939 
L 562.748691 -43.020327 
L 562.799423 -43.012726 
L 562.850156 -43.005137 
L 562.900888 -42.99756 
L 562.951621 -42.989995 
L 563.002353 -42.982441 
L 563.053085 -42.974899 
L 563.103818 -42.967369 
L 563.15455 -42.95985 
L 563.205282 -42.952342 
L 563.256015 -42.944847 
L 563.306747 -42.937363 
L 563.357479 -42.92989 
L 563.408212 -42.922429 
L 563.458944 -42.91498 
L 563.509676 -42.907542 
L 563.560409 -42.900115 
L 563.611141 -42.8927 
L 563.661873 -42.885297 
L 563.712606 -42.877905 
L 563.763338 -42.870524 
L 563.81407 -42.863155 
L 563.864803 -42.855797 
L 563.915535 -42.848451 
L 563.966267 -42.841116 
L 564.017 -42.833793 
L 564.067732 -42.82648 
L 564.118464 -42.819179 
L 564.169197 -42.81189 
L 564.219929 -42.804612 
L 564.270662 -42.797345 
L 564.321394 -42.790089 
L 564.372126 -42.782845 
L 564.422859 -42.775612 
L 564.473591 -42.76839 
L 564.524323 -42.761179 
L 564.575056 -42.753979 
L 564.625788 -42.746791 
L 564.67652 -42.739614 
L 564.727253 -42.732448 
L 564.777985 -42.725293 
L 564.828717 -42.71815 
L 564.87945 -42.711017 
L 564.930182 -42.703896 
L 564.980914 -42.696785 
L 565.031647 -42.689686 
L 565.082379 -42.682598 
L 565.133111 -42.675521 
L 565.183844 -42.668455 
L 565.234576 -42.6614 
L 565.285308 -42.654355 
L 565.336041 -42.647322 
L 565.386773 -42.6403 
L 565.437505 -42.633289 
L 565.488238 -42.626289 
L 565.53897 -42.6193 
L 565.589702 -42.612321 
L 565.640435 -42.605354 
L 565.691167 -42.598397 
L 565.7419 -42.591452 
L 565.792632 -42.584517 
L 565.843364 -42.577593 
L 565.894097 -42.57068 
L 565.944829 -42.563778 
L 565.995561 -42.556886 
L 566.046294 -42.550005 
L 566.097026 -42.543135 
L 566.147758 -42.536276 
L 566.198491 -42.529428 
L 566.249223 -42.52259 
L 566.299955 -42.515763 
L 566.350688 -42.508947 
L 566.40142 -42.502141 
L 566.452152 -42.495347 
L 566.502885 -42.488562 
L 566.553617 -42.481789 
L 566.604349 -42.475026 
L 566.655082 -42.468274 
L 566.705814 -42.461532 
L 566.756546 -42.454801 
L 566.807279 -42.44808 
L 566.858011 -42.44137 
L 566.908743 -42.434671 
L 566.959476 -42.427982 
L 567.010208 -42.421304 
L 567.060941 -42.414636 
L 567.111673 -42.407979 
L 567.162405 -42.401332 
L 567.213138 -42.394696 
L 567.26387 -42.38807 
L 567.314602 -42.381454 
L 567.365335 -42.374849 
L 567.416067 -42.368255 
L 567.466799 -42.36167 
L 567.517532 -42.355097 
L 567.568264 -42.348533 
L 567.618996 -42.34198 
L 567.669729 -42.335437 
L 567.720461 -42.328905 
L 567.771193 -42.322383 
L 567.821926 -42.315871 
L 567.872658 -42.30937 
L 567.92339 -42.302878 
L 567.974123 -42.296398 
L 568.024855 -42.289927 
L 568.075587 -42.283466 
L 568.12632 -42.277016 
L 568.177052 -42.270576 
L 568.227784 -42.264146 
L 568.278517 -42.257727 
L 568.329249 -42.251317 
L 568.379982 -42.244918 
L 568.430714 -42.238529 
L 568.481446 -42.23215 
L 568.532179 -42.225781 
L 568.582911 -42.219422 
L 568.633643 -42.213073 
L 568.684376 -42.206734 
L 568.735108 -42.200406 
L 568.78584 -42.194087 
L 568.836573 -42.187779 
L 568.887305 -42.18148 
L 568.938037 -42.175192 
L 568.98877 -42.168913 
L 569.039502 -42.162645 
L 569.090234 -42.156386 
L 569.140967 -42.150138 
L 569.191699 -42.143899 
L 569.242431 -42.13767 
L 569.293164 -42.131451 
L 569.343896 -42.125243 
L 569.394628 -42.119044 
L 569.445361 -42.112854 
L 569.496093 -42.106675 
L 569.546825 -42.100506 
L 569.597558 -42.094346 
L 569.64829 -42.088196 
L 569.699023 -42.082056 
L 569.749755 -42.075926 
L 569.800487 -42.069806 
L 569.85122 -42.063695 
L 569.901952 -42.057594 
L 569.952684 -42.051503 
L 570.003417 -42.045422 
L 570.054149 -42.03935 
L 570.104881 -42.033288 
L 570.155614 -42.027236 
L 570.155614 -38.667875 
L 570.155614 -38.667875 
L 570.104881 -38.667875 
L 570.054149 -38.667875 
L 570.003417 -38.667875 
L 569.952684 -38.667875 
L 569.901952 -38.667875 
L 569.85122 -38.667875 
L 569.800487 -38.667875 
L 569.749755 -38.667875 
L 569.699023 -38.667875 
L 569.64829 -38.667875 
L 569.597558 -38.667875 
L 569.546825 -38.667875 
L 569.496093 -38.667875 
L 569.445361 -38.667875 
L 569.394628 -38.667875 
L 569.343896 -38.667875 
L 569.293164 -38.667875 
L 569.242431 -38.667875 
L 569.191699 -38.667875 
L 569.140967 -38.667875 
L 569.090234 -38.667875 
L 569.039502 -38.667875 
L 568.98877 -38.667875 
L 568.938037 -38.667875 
L 568.887305 -38.667875 
L 568.836573 -38.667875 
L 568.78584 -38.667875 
L 568.735108 -38.667875 
L 568.684376 -38.667875 
L 568.633643 -38.667875 
L 568.582911 -38.667875 
L 568.532179 -38.667875 
L 568.481446 -38.667875 
L 568.430714 -38.667875 
L 568.379982 -38.667875 
L 568.329249 -38.667875 
L 568.278517 -38.667875 
L 568.227784 -38.667875 
L 568.177052 -38.667875 
L 568.12632 -38.667875 
L 568.075587 -38.667875 
L 568.024855 -38.667875 
L 567.974123 -38.667875 
L 567.92339 -38.667875 
L 567.872658 -38.667875 
L 567.821926 -38.667875 
L 567.771193 -38.667875 
L 567.720461 -38.667875 
L 567.669729 -38.667875 
L 567.618996 -38.667875 
L 567.568264 -38.667875 
L 567.517532 -38.667875 
L 567.466799 -38.667875 
L 567.416067 -38.667875 
L 567.365335 -38.667875 
L 567.314602 -38.667875 
L 567.26387 -38.667875 
L 567.213138 -38.667875 
L 567.162405 -38.667875 
L 567.111673 -38.667875 
L 567.060941 -38.667875 
L 567.010208 -38.667875 
L 566.959476 -38.667875 
L 566.908743 -38.667875 
L 566.858011 -38.667875 
L 566.807279 -38.667875 
L 566.756546 -38.667875 
L 566.705814 -38.667875 
L 566.655082 -38.667875 
L 566.604349 -38.667875 
L 566.553617 -38.667875 
L 566.502885 -38.667875 
L 566.452152 -38.667875 
L 566.40142 -38.667875 
L 566.350688 -38.667875 
L 566.299955 -38.667875 
L 566.249223 -38.667875 
L 566.198491 -38.667875 
L 566.147758 -38.667875 
L 566.097026 -38.667875 
L 566.046294 -38.667875 
L 565.995561 -38.667875 
L 565.944829 -38.667875 
L 565.894097 -38.667875 
L 565.843364 -38.667875 
L 565.792632 -38.667875 
L 565.7419 -38.667875 
L 565.691167 -38.667875 
L 565.640435 -38.667875 
L 565.589702 -38.667875 
L 565.53897 -38.667875 
L 565.488238 -38.667875 
L 565.437505 -38.667875 
L 565.386773 -38.667875 
L 565.336041 -38.667875 
L 565.285308 -38.667875 
L 565.234576 -38.667875 
L 565.183844 -38.667875 
L 565.133111 -38.667875 
L 565.082379 -38.667875 
L 565.031647 -38.667875 
L 564.980914 -38.667875 
L 564.930182 -38.667875 
L 564.87945 -38.667875 
L 564.828717 -38.667875 
L 564.777985 -38.667875 
L 564.727253 -38.667875 
L 564.67652 -38.667875 
L 564.625788 -38.667875 
L 564.575056 -38.667875 
L 564.524323 -38.667875 
L 564.473591 -38.667875 
L 564.422859 -38.667875 
L 564.372126 -38.667875 
L 564.321394 -38.667875 
L 564.270662 -38.667875 
L 564.219929 -38.667875 
L 564.169197 -38.667875 
L 564.118464 -38.667875 
L 564.067732 -38.667875 
L 564.017 -38.667875 
L 563.966267 -38.667875 
L 563.915535 -38.667875 
L 563.864803 -38.667875 
L 563.81407 -38.667875 
L 563.763338 -38.667875 
L 563.712606 -38.667875 
L 563.661873 -38.667875 
L 563.611141 -38.667875 
L 563.560409 -38.667875 
L 563.509676 -38.667875 
L 563.458944 -38.667875 
L 563.408212 -38.667875 
L 563.357479 -38.667875 
L 563.306747 -38.667875 
L 563.256015 -38.667875 
L 563.205282 -38.667875 
L 563.15455 -38.667875 
L 563.103818 -38.667875 
L 563.053085 -38.667875 
L 563.002353 -38.667875 
L 562.951621 -38.667875 
L 562.900888 -38.667875 
L 562.850156 -38.667875 
L 562.799423 -38.667875 
L 562.748691 -38.667875 
L 562.697959 -38.667875 
L 562.647226 -38.667875 
L 562.596494 -38.667875 
L 562.545762 -38.667875 
L 562.495029 -38.667875 
L 562.444297 -38.667875 
L 562.393565 -38.667875 
L 562.342832 -38.667875 
L 562.2921 -38.667875 
L 562.241368 -38.667875 
L 562.190635 -38.667875 
L 562.139903 -38.667875 
L 562.089171 -38.667875 
L 562.038438 -38.667875 
L 561.987706 -38.667875 
L 561.936974 -38.667875 
L 561.886241 -38.667875 
L 561.835509 -38.667875 
L 561.784777 -38.667875 
L 561.734044 -38.667875 
L 561.683312 -38.667875 
L 561.63258 -38.667875 
L 561.581847 -38.667875 
L 561.531115 -38.667875 
L 561.480382 -38.667875 
L 561.42965 -38.667875 
L 561.378918 -38.667875 
L 561.328185 -38.667875 
L 561.277453 -38.667875 
L 561.226721 -38.667875 
L 561.175988 -38.667875 
L 561.125256 -38.667875 
L 561.074524 -38.667875 
L 561.023791 -38.667875 
L 560.973059 -38.667875 
L 560.922327 -38.667875 
L 560.871594 -38.667875 
L 560.820862 -38.667875 
L 560.77013 -38.667875 
L 560.719397 -38.667875 
L 560.668665 -38.667875 
L 560.617933 -38.667875 
L 560.5672 -38.667875 
L 560.516468 -38.667875 
L 560.465736 -38.667875 
L 560.415003 -38.667875 
L 560.364271 -38.667875 
L 560.313539 -38.667875 
L 560.262806 -38.667875 
L 560.212074 -38.667875 
L 560.161341 -38.667875 
L 560.110609 -38.667875 
L 560.059877 -38.667875 
L 560.009144 -38.667875 
L 559.958412 -38.667875 
L 559.90768 -38.667875 
L 559.856947 -38.667875 
L 559.806215 -38.667875 
L 559.755483 -38.667875 
L 559.70475 -38.667875 
L 559.654018 -38.667875 
L 559.603286 -38.667875 
L 559.552553 -38.667875 
L 559.501821 -38.667875 
L 559.451089 -38.667875 
L 559.400356 -38.667875 
L 559.349624 -38.667875 
L 559.298892 -38.667875 
L 559.248159 -38.667875 
L 559.197427 -38.667875 
L 559.146695 -38.667875 
L 559.095962 -38.667875 
L 559.04523 -38.667875 
L 558.994498 -38.667875 
L 558.943765 -38.667875 
L 558.893033 -38.667875 
L 558.8423 -38.667875 
L 558.791568 -38.667875 
L 558.740836 -38.667875 
L 558.690103 -38.667875 
L 558.639371 -38.667875 
L 558.588639 -38.667875 
L 558.537906 -38.667875 
L 558.487174 -38.667875 
L 558.436442 -38.667875 
L 558.385709 -38.667875 
L 558.334977 -38.667875 
L 558.284245 -38.667875 
L 558.233512 -38.667875 
L 558.18278 -38.667875 
L 558.132048 -38.667875 
L 558.081315 -38.667875 
L 558.030583 -38.667875 
L 557.979851 -38.667875 
L 557.929118 -38.667875 
L 557.878386 -38.667875 
L 557.827654 -38.667875 
L 557.776921 -38.667875 
L 557.726189 -38.667875 
L 557.675457 -38.667875 
L 557.624724 -38.667875 
L 557.573992 -38.667875 
L 557.523259 -38.667875 
L 557.472527 -38.667875 
L 557.421795 -38.667875 
L 557.371062 -38.667875 
L 557.32033 -38.667875 
L 557.269598 -38.667875 
L 557.218865 -38.667875 
L 557.168133 -38.667875 
L 557.117401 -38.667875 
L 557.066668 -38.667875 
L 557.015936 -38.667875 
L 556.965204 -38.667875 
L 556.914471 -38.667875 
L 556.863739 -38.667875 
L 556.813007 -38.667875 
L 556.762274 -38.667875 
L 556.711542 -38.667875 
L 556.66081 -38.667875 
L 556.610077 -38.667875 
L 556.559345 -38.667875 
L 556.508613 -38.667875 
L 556.45788 -38.667875 
L 556.407148 -38.667875 
L 556.356416 -38.667875 
L 556.305683 -38.667875 
L 556.254951 -38.667875 
L 556.204218 -38.667875 
L 556.153486 -38.667875 
L 556.102754 -38.667875 
L 556.052021 -38.667875 
L 556.001289 -38.667875 
L 555.950557 -38.667875 
L 555.899824 -38.667875 
L 555.849092 -38.667875 
L 555.79836 -38.667875 
L 555.747627 -38.667875 
L 555.696895 -38.667875 
L 555.646163 -38.667875 
L 555.59543 -38.667875 
L 555.544698 -38.667875 
L 555.493966 -38.667875 
L 555.443233 -38.667875 
L 555.392501 -38.667875 
L 555.341769 -38.667875 
L 555.291036 -38.667875 
L 555.240304 -38.667875 
L 555.189572 -38.667875 
L 555.138839 -38.667875 
L 555.088107 -38.667875 
L 555.037375 -38.667875 
L 554.986642 -38.667875 
L 554.93591 -38.667875 
L 554.885178 -38.667875 
L 554.834445 -38.667875 
L 554.783713 -38.667875 
L 554.73298 -38.667875 
L 554.682248 -38.667875 
L 554.631516 -38.667875 
L 554.580783 -38.667875 
L 554.530051 -38.667875 
L 554.479319 -38.667875 
L 554.428586 -38.667875 
L 554.377854 -38.667875 
L 554.327122 -38.667875 
L 554.276389 -38.667875 
L 554.225657 -38.667875 
L 554.174925 -38.667875 
L 554.124192 -38.667875 
L 554.07346 -38.667875 
L 554.022728 -38.667875 
L 553.971995 -38.667875 
L 553.921263 -38.667875 
L 553.870531 -38.667875 
L 553.819798 -38.667875 
L 553.769066 -38.667875 
L 553.718334 -38.667875 
L 553.667601 -38.667875 
L 553.616869 -38.667875 
L 553.566137 -38.667875 
L 553.515404 -38.667875 
L 553.464672 -38.667875 
L 553.413939 -38.667875 
L 553.363207 -38.667875 
L 553.312475 -38.667875 
L 553.261742 -38.667875 
L 553.21101 -38.667875 
L 553.160278 -38.667875 
L 553.109545 -38.667875 
L 553.058813 -38.667875 
L 553.008081 -38.667875 
L 552.957348 -38.667875 
L 552.906616 -38.667875 
L 552.855884 -38.667875 
L 552.805151 -38.667875 
L 552.754419 -38.667875 
L 552.703687 -38.667875 
L 552.652954 -38.667875 
L 552.602222 -38.667875 
L 552.55149 -38.667875 
L 552.500757 -38.667875 
L 552.450025 -38.667875 
L 552.399293 -38.667875 
L 552.34856 -38.667875 
L 552.297828 -38.667875 
L 552.247096 -38.667875 
L 552.196363 -38.667875 
L 552.145631 -38.667875 
L 552.094898 -38.667875 
L 552.044166 -38.667875 
L 551.993434 -38.667875 
L 551.942701 -38.667875 
L 551.891969 -38.667875 
L 551.841237 -38.667875 
L 551.790504 -38.667875 
L 551.739772 -38.667875 
L 551.68904 -38.667875 
L 551.638307 -38.667875 
L 551.587575 -38.667875 
L 551.536843 -38.667875 
L 551.48611 -38.667875 
L 551.435378 -38.667875 
L 551.384646 -38.667875 
L 551.333913 -38.667875 
L 551.283181 -38.667875 
L 551.232449 -38.667875 
L 551.181716 -38.667875 
L 551.130984 -38.667875 
L 551.080252 -38.667875 
L 551.029519 -38.667875 
L 550.978787 -38.667875 
L 550.928055 -38.667875 
L 550.877322 -38.667875 
L 550.82659 -38.667875 
L 550.775857 -38.667875 
L 550.725125 -38.667875 
L 550.674393 -38.667875 
L 550.62366 -38.667875 
L 550.572928 -38.667875 
L 550.522196 -38.667875 
L 550.471463 -38.667875 
L 550.420731 -38.667875 
L 550.369999 -38.667875 
L 550.319266 -38.667875 
L 550.268534 -38.667875 
L 550.217802 -38.667875 
L 550.167069 -38.667875 
L 550.116337 -38.667875 
L 550.065605 -38.667875 
L 550.014872 -38.667875 
L 549.96414 -38.667875 
L 549.913408 -38.667875 
L 549.862675 -38.667875 
L 549.811943 -38.667875 
L 549.761211 -38.667875 
L 549.710478 -38.667875 
L 549.659746 -38.667875 
L 549.609014 -38.667875 
L 549.558281 -38.667875 
L 549.507549 -38.667875 
L 549.456816 -38.667875 
L 549.406084 -38.667875 
L 549.355352 -38.667875 
L 549.304619 -38.667875 
L 549.253887 -38.667875 
L 549.203155 -38.667875 
L 549.152422 -38.667875 
L 549.10169 -38.667875 
L 549.050958 -38.667875 
L 549.000225 -38.667875 
L 548.949493 -38.667875 
L 548.898761 -38.667875 
L 548.848028 -38.667875 
L 548.797296 -38.667875 
L 548.746564 -38.667875 
L 548.695831 -38.667875 
L 548.645099 -38.667875 
L 548.594367 -38.667875 
L 548.543634 -38.667875 
L 548.492902 -38.667875 
L 548.44217 -38.667875 
L 548.391437 -38.667875 
L 548.340705 -38.667875 
L 548.289973 -38.667875 
L 548.23924 -38.667875 
L 548.188508 -38.667875 
L 548.137775 -38.667875 
L 548.087043 -38.667875 
L 548.036311 -38.667875 
L 547.985578 -38.667875 
L 547.934846 -38.667875 
L 547.884114 -38.667875 
L 547.833381 -38.667875 
L 547.782649 -38.667875 
L 547.731917 -38.667875 
L 547.681184 -38.667875 
L 547.630452 -38.667875 
L 547.57972 -38.667875 
L 547.528987 -38.667875 
L 547.478255 -38.667875 
L 547.427523 -38.667875 
L 547.37679 -38.667875 
L 547.326058 -38.667875 
L 547.275326 -38.667875 
L 547.224593 -38.667875 
L 547.173861 -38.667875 
L 547.123129 -38.667875 
L 547.072396 -38.667875 
L 547.021664 -38.667875 
L 546.970932 -38.667875 
L 546.920199 -38.667875 
L 546.869467 -38.667875 
L 546.818734 -38.667875 
L 546.768002 -38.667875 
L 546.71727 -38.667875 
L 546.666537 -38.667875 
L 546.615805 -38.667875 
L 546.565073 -38.667875 
L 546.51434 -38.667875 
L 546.463608 -38.667875 
L 546.412876 -38.667875 
L 546.362143 -38.667875 
L 546.311411 -38.667875 
L 546.260679 -38.667875 
L 546.209946 -38.667875 
L 546.159214 -38.667875 
L 546.108482 -38.667875 
L 546.057749 -38.667875 
L 546.007017 -38.667875 
L 545.956285 -38.667875 
L 545.905552 -38.667875 
L 545.85482 -38.667875 
L 545.804088 -38.667875 
L 545.753355 -38.667875 
L 545.702623 -38.667875 
L 545.651891 -38.667875 
L 545.601158 -38.667875 
L 545.550426 -38.667875 
L 545.499693 -38.667875 
L 545.448961 -38.667875 
L 545.398229 -38.667875 
L 545.347496 -38.667875 
L 545.296764 -38.667875 
L 545.246032 -38.667875 
L 545.195299 -38.667875 
L 545.144567 -38.667875 
L 545.093835 -38.667875 
L 545.043102 -38.667875 
L 544.99237 -38.667875 
L 544.941638 -38.667875 
L 544.890905 -38.667875 
L 544.840173 -38.667875 
L 544.789441 -38.667875 
L 544.738708 -38.667875 
L 544.687976 -38.667875 
L 544.637244 -38.667875 
L 544.586511 -38.667875 
L 544.535779 -38.667875 
L 544.485047 -38.667875 
L 544.434314 -38.667875 
L 544.383582 -38.667875 
L 544.33285 -38.667875 
L 544.282117 -38.667875 
L 544.231385 -38.667875 
L 544.180653 -38.667875 
L 544.12992 -38.667875 
L 544.079188 -38.667875 
L 544.028455 -38.667875 
L 543.977723 -38.667875 
L 543.926991 -38.667875 
L 543.876258 -38.667875 
L 543.825526 -38.667875 
L 543.774794 -38.667875 
L 543.724061 -38.667875 
L 543.673329 -38.667875 
L 543.622597 -38.667875 
L 543.571864 -38.667875 
L 543.521132 -38.667875 
L 543.4704 -38.667875 
L 543.419667 -38.667875 
L 543.368935 -38.667875 
L 543.318203 -38.667875 
L 543.26747 -38.667875 
L 543.216738 -38.667875 
L 543.166006 -38.667875 
L 543.115273 -38.667875 
L 543.064541 -38.667875 
L 543.013809 -38.667875 
L 542.963076 -38.667875 
L 542.912344 -38.667875 
L 542.861612 -38.667875 
L 542.810879 -38.667875 
L 542.760147 -38.667875 
L 542.709414 -38.667875 
L 542.658682 -38.667875 
L 542.60795 -38.667875 
L 542.557217 -38.667875 
L 542.506485 -38.667875 
L 542.455753 -38.667875 
L 542.40502 -38.667875 
L 542.354288 -38.667875 
L 542.303556 -38.667875 
L 542.252823 -38.667875 
L 542.202091 -38.667875 
L 542.151359 -38.667875 
L 542.100626 -38.667875 
L 542.049894 -38.667875 
L 541.999162 -38.667875 
L 541.948429 -38.667875 
L 541.897697 -38.667875 
L 541.846965 -38.667875 
L 541.796232 -38.667875 
L 541.7455 -38.667875 
L 541.694768 -38.667875 
L 541.644035 -38.667875 
L 541.593303 -38.667875 
L 541.542571 -38.667875 
L 541.491838 -38.667875 
L 541.441106 -38.667875 
L 541.390373 -38.667875 
L 541.339641 -38.667875 
L 541.288909 -38.667875 
L 541.238176 -38.667875 
L 541.187444 -38.667875 
L 541.136712 -38.667875 
L 541.085979 -38.667875 
L 541.035247 -38.667875 
L 540.984515 -38.667875 
L 540.933782 -38.667875 
L 540.88305 -38.667875 
L 540.832318 -38.667875 
L 540.781585 -38.667875 
L 540.730853 -38.667875 
L 540.680121 -38.667875 
L 540.629388 -38.667875 
L 540.578656 -38.667875 
L 540.527924 -38.667875 
L 540.477191 -38.667875 
L 540.426459 -38.667875 
L 540.375727 -38.667875 
L 540.324994 -38.667875 
L 540.274262 -38.667875 
L 540.22353 -38.667875 
L 540.172797 -38.667875 
L 540.122065 -38.667875 
L 540.071332 -38.667875 
L 540.0206 -38.667875 
L 539.969868 -38.667875 
L 539.919135 -38.667875 
L 539.868403 -38.667875 
L 539.817671 -38.667875 
L 539.766938 -38.667875 
L 539.716206 -38.667875 
L 539.665474 -38.667875 
L 539.614741 -38.667875 
L 539.564009 -38.667875 
L 539.513277 -38.667875 
L 539.462544 -38.667875 
L 539.411812 -38.667875 
L 539.36108 -38.667875 
L 539.310347 -38.667875 
L 539.259615 -38.667875 
L 539.208883 -38.667875 
L 539.15815 -38.667875 
L 539.107418 -38.667875 
L 539.056686 -38.667875 
L 539.005953 -38.667875 
L 538.955221 -38.667875 
L 538.904489 -38.667875 
L 538.853756 -38.667875 
L 538.803024 -38.667875 
L 538.752291 -38.667875 
L 538.701559 -38.667875 
L 538.650827 -38.667875 
L 538.600094 -38.667875 
L 538.549362 -38.667875 
L 538.49863 -38.667875 
L 538.447897 -38.667875 
L 538.397165 -38.667875 
L 538.346433 -38.667875 
L 538.2957 -38.667875 
L 538.244968 -38.667875 
L 538.194236 -38.667875 
L 538.143503 -38.667875 
L 538.092771 -38.667875 
L 538.042039 -38.667875 
L 537.991306 -38.667875 
L 537.940574 -38.667875 
L 537.889842 -38.667875 
L 537.839109 -38.667875 
L 537.788377 -38.667875 
L 537.737645 -38.667875 
L 537.686912 -38.667875 
L 537.63618 -38.667875 
L 537.585448 -38.667875 
L 537.534715 -38.667875 
L 537.483983 -38.667875 
L 537.43325 -38.667875 
L 537.382518 -38.667875 
L 537.331786 -38.667875 
L 537.281053 -38.667875 
L 537.230321 -38.667875 
L 537.179589 -38.667875 
L 537.128856 -38.667875 
L 537.078124 -38.667875 
L 537.027392 -38.667875 
L 536.976659 -38.667875 
L 536.925927 -38.667875 
L 536.875195 -38.667875 
L 536.824462 -38.667875 
L 536.77373 -38.667875 
L 536.722998 -38.667875 
L 536.672265 -38.667875 
L 536.621533 -38.667875 
L 536.570801 -38.667875 
L 536.520068 -38.667875 
L 536.469336 -38.667875 
L 536.418604 -38.667875 
L 536.367871 -38.667875 
L 536.317139 -38.667875 
L 536.266407 -38.667875 
L 536.215674 -38.667875 
L 536.164942 -38.667875 
L 536.114209 -38.667875 
L 536.063477 -38.667875 
L 536.012745 -38.667875 
L 535.962012 -38.667875 
L 535.91128 -38.667875 
L 535.860548 -38.667875 
L 535.809815 -38.667875 
L 535.759083 -38.667875 
L 535.708351 -38.667875 
L 535.657618 -38.667875 
L 535.606886 -38.667875 
L 535.556154 -38.667875 
L 535.505421 -38.667875 
L 535.454689 -38.667875 
L 535.403957 -38.667875 
L 535.353224 -38.667875 
L 535.302492 -38.667875 
L 535.25176 -38.667875 
L 535.201027 -38.667875 
L 535.150295 -38.667875 
L 535.099563 -38.667875 
L 535.04883 -38.667875 
L 534.998098 -38.667875 
L 534.947366 -38.667875 
L 534.896633 -38.667875 
L 534.845901 -38.667875 
L 534.795169 -38.667875 
L 534.744436 -38.667875 
L 534.693704 -38.667875 
L 534.642971 -38.667875 
L 534.592239 -38.667875 
L 534.541507 -38.667875 
L 534.490774 -38.667875 
L 534.440042 -38.667875 
L 534.38931 -38.667875 
L 534.338577 -38.667875 
L 534.287845 -38.667875 
L 534.237113 -38.667875 
L 534.18638 -38.667875 
L 534.135648 -38.667875 
L 534.084916 -38.667875 
L 534.034183 -38.667875 
L 533.983451 -38.667875 
L 533.932719 -38.667875 
L 533.881986 -38.667875 
L 533.831254 -38.667875 
L 533.780522 -38.667875 
L 533.729789 -38.667875 
L 533.679057 -38.667875 
L 533.628325 -38.667875 
L 533.577592 -38.667875 
L 533.52686 -38.667875 
L 533.476128 -38.667875 
L 533.425395 -38.667875 
L 533.374663 -38.667875 
L 533.32393 -38.667875 
L 533.273198 -38.667875 
L 533.222466 -38.667875 
L 533.171733 -38.667875 
L 533.121001 -38.667875 
L 533.070269 -38.667875 
L 533.019536 -38.667875 
L 532.968804 -38.667875 
L 532.918072 -38.667875 
L 532.867339 -38.667875 
L 532.816607 -38.667875 
L 532.765875 -38.667875 
L 532.715142 -38.667875 
L 532.66441 -38.667875 
L 532.613678 -38.667875 
L 532.562945 -38.667875 
L 532.512213 -38.667875 
L 532.461481 -38.667875 
L 532.410748 -38.667875 
L 532.360016 -38.667875 
L 532.309284 -38.667875 
L 532.258551 -38.667875 
L 532.207819 -38.667875 
L 532.157087 -38.667875 
L 532.106354 -38.667875 
L 532.055622 -38.667875 
L 532.004889 -38.667875 
L 531.954157 -38.667875 
L 531.903425 -38.667875 
L 531.852692 -38.667875 
L 531.80196 -38.667875 
L 531.751228 -38.667875 
L 531.700495 -38.667875 
L 531.649763 -38.667875 
L 531.599031 -38.667875 
L 531.548298 -38.667875 
L 531.497566 -38.667875 
L 531.446834 -38.667875 
L 531.396101 -38.667875 
L 531.345369 -38.667875 
L 531.294637 -38.667875 
L 531.243904 -38.667875 
L 531.193172 -38.667875 
L 531.14244 -38.667875 
L 531.091707 -38.667875 
L 531.040975 -38.667875 
L 530.990243 -38.667875 
L 530.93951 -38.667875 
L 530.888778 -38.667875 
L 530.838046 -38.667875 
L 530.787313 -38.667875 
L 530.736581 -38.667875 
L 530.685848 -38.667875 
L 530.635116 -38.667875 
L 530.584384 -38.667875 
L 530.533651 -38.667875 
L 530.482919 -38.667875 
L 530.432187 -38.667875 
L 530.381454 -38.667875 
L 530.330722 -38.667875 
L 530.27999 -38.667875 
L 530.229257 -38.667875 
L 530.178525 -38.667875 
L 530.127793 -38.667875 
L 530.07706 -38.667875 
L 530.026328 -38.667875 
L 529.975596 -38.667875 
L 529.924863 -38.667875 
L 529.874131 -38.667875 
L 529.823399 -38.667875 
L 529.772666 -38.667875 
L 529.721934 -38.667875 
L 529.671202 -38.667875 
L 529.620469 -38.667875 
L 529.569737 -38.667875 
L 529.519005 -38.667875 
L 529.468272 -38.667875 
L 529.41754 -38.667875 
L 529.366807 -38.667875 
L 529.316075 -38.667875 
L 529.265343 -38.667875 
L 529.21461 -38.667875 
L 529.163878 -38.667875 
L 529.113146 -38.667875 
L 529.062413 -38.667875 
L 529.011681 -38.667875 
L 528.960949 -38.667875 
L 528.910216 -38.667875 
L 528.859484 -38.667875 
L 528.808752 -38.667875 
L 528.758019 -38.667875 
L 528.707287 -38.667875 
L 528.656555 -38.667875 
L 528.605822 -38.667875 
L 528.55509 -38.667875 
L 528.504358 -38.667875 
L 528.453625 -38.667875 
L 528.402893 -38.667875 
L 528.352161 -38.667875 
L 528.301428 -38.667875 
L 528.250696 -38.667875 
L 528.199964 -38.667875 
L 528.149231 -38.667875 
L 528.098499 -38.667875 
L 528.047766 -38.667875 
L 527.997034 -38.667875 
L 527.946302 -38.667875 
L 527.895569 -38.667875 
L 527.844837 -38.667875 
L 527.794105 -38.667875 
L 527.743372 -38.667875 
L 527.69264 -38.667875 
L 527.641908 -38.667875 
L 527.591175 -38.667875 
L 527.540443 -38.667875 
L 527.489711 -38.667875 
L 527.438978 -38.667875 
L 527.388246 -38.667875 
L 527.337514 -38.667875 
L 527.286781 -38.667875 
L 527.236049 -38.667875 
L 527.185317 -38.667875 
L 527.134584 -38.667875 
L 527.083852 -38.667875 
L 527.03312 -38.667875 
L 526.982387 -38.667875 
L 526.931655 -38.667875 
L 526.880923 -38.667875 
L 526.83019 -38.667875 
L 526.779458 -38.667875 
L 526.728725 -38.667875 
L 526.677993 -38.667875 
L 526.627261 -38.667875 
L 526.576528 -38.667875 
L 526.525796 -38.667875 
L 526.475064 -38.667875 
L 526.424331 -38.667875 
L 526.373599 -38.667875 
L 526.322867 -38.667875 
L 526.272134 -38.667875 
L 526.221402 -38.667875 
L 526.17067 -38.667875 
L 526.119937 -38.667875 
L 526.069205 -38.667875 
L 526.018473 -38.667875 
L 525.96774 -38.667875 
L 525.917008 -38.667875 
L 525.866276 -38.667875 
L 525.815543 -38.667875 
L 525.764811 -38.667875 
L 525.714079 -38.667875 
L 525.663346 -38.667875 
L 525.612614 -38.667875 
L 525.561882 -38.667875 
L 525.511149 -38.667875 
L 525.460417 -38.667875 
L 525.409684 -38.667875 
L 525.358952 -38.667875 
L 525.30822 -38.667875 
L 525.257487 -38.667875 
L 525.206755 -38.667875 
L 525.156023 -38.667875 
L 525.10529 -38.667875 
L 525.054558 -38.667875 
L 525.003826 -38.667875 
L 524.953093 -38.667875 
L 524.902361 -38.667875 
L 524.851629 -38.667875 
L 524.800896 -38.667875 
L 524.750164 -38.667875 
L 524.699432 -38.667875 
L 524.648699 -38.667875 
L 524.597967 -38.667875 
L 524.547235 -38.667875 
L 524.496502 -38.667875 
L 524.44577 -38.667875 
L 524.395038 -38.667875 
L 524.344305 -38.667875 
L 524.293573 -38.667875 
L 524.242841 -38.667875 
L 524.192108 -38.667875 
L 524.141376 -38.667875 
L 524.090644 -38.667875 
L 524.039911 -38.667875 
L 523.989179 -38.667875 
L 523.938446 -38.667875 
L 523.887714 -38.667875 
L 523.836982 -38.667875 
L 523.786249 -38.667875 
L 523.735517 -38.667875 
L 523.684785 -38.667875 
L 523.634052 -38.667875 
L 523.58332 -38.667875 
L 523.532588 -38.667875 
L 523.481855 -38.667875 
L 523.431123 -38.667875 
L 523.380391 -38.667875 
L 523.329658 -38.667875 
L 523.278926 -38.667875 
L 523.228194 -38.667875 
L 523.177461 -38.667875 
L 523.126729 -38.667875 
L 523.075997 -38.667875 
L 523.025264 -38.667875 
L 522.974532 -38.667875 
L 522.9238 -38.667875 
L 522.873067 -38.667875 
L 522.822335 -38.667875 
L 522.771603 -38.667875 
L 522.72087 -38.667875 
L 522.670138 -38.667875 
L 522.619405 -38.667875 
L 522.568673 -38.667875 
L 522.517941 -38.667875 
L 522.467208 -38.667875 
L 522.416476 -38.667875 
L 522.365744 -38.667875 
L 522.315011 -38.667875 
L 522.264279 -38.667875 
L 522.213547 -38.667875 
L 522.162814 -38.667875 
L 522.112082 -38.667875 
L 522.06135 -38.667875 
L 522.010617 -38.667875 
L 521.959885 -38.667875 
L 521.909153 -38.667875 
L 521.85842 -38.667875 
L 521.807688 -38.667875 
L 521.756956 -38.667875 
L 521.706223 -38.667875 
L 521.655491 -38.667875 
L 521.604759 -38.667875 
L 521.554026 -38.667875 
L 521.503294 -38.667875 
L 521.452562 -38.667875 
L 521.401829 -38.667875 
L 521.351097 -38.667875 
L 521.300364 -38.667875 
L 521.249632 -38.667875 
L 521.1989 -38.667875 
L 521.148167 -38.667875 
L 521.097435 -38.667875 
L 521.046703 -38.667875 
L 520.99597 -38.667875 
L 520.945238 -38.667875 
L 520.894506 -38.667875 
L 520.843773 -38.667875 
L 520.793041 -38.667875 
L 520.742309 -38.667875 
L 520.691576 -38.667875 
L 520.640844 -38.667875 
L 520.590112 -38.667875 
L 520.539379 -38.667875 
L 520.488647 -38.667875 
L 520.437915 -38.667875 
L 520.387182 -38.667875 
L 520.33645 -38.667875 
L 520.285718 -38.667875 
L 520.234985 -38.667875 
L 520.184253 -38.667875 
L 520.133521 -38.667875 
L 520.082788 -38.667875 
L 520.032056 -38.667875 
L 519.981323 -38.667875 
L 519.930591 -38.667875 
L 519.879859 -38.667875 
L 519.829126 -38.667875 
L 519.778394 -38.667875 
L 519.727662 -38.667875 
L 519.676929 -38.667875 
L 519.626197 -38.667875 
L 519.575465 -38.667875 
L 519.524732 -38.667875 
L 519.474 -38.667875 
L 519.423268 -38.667875 
L 519.372535 -38.667875 
L 519.321803 -38.667875 
L 519.271071 -38.667875 
L 519.220338 -38.667875 
L 519.169606 -38.667875 
L 519.118874 -38.667875 
L 519.068141 -38.667875 
L 519.017409 -38.667875 
L 518.966677 -38.667875 
L 518.915944 -38.667875 
L 518.865212 -38.667875 
L 518.81448 -38.667875 
L 518.763747 -38.667875 
L 518.713015 -38.667875 
L 518.662282 -38.667875 
L 518.61155 -38.667875 
L 518.560818 -38.667875 
L 518.510085 -38.667875 
L 518.459353 -38.667875 
L 518.408621 -38.667875 
L 518.357888 -38.667875 
L 518.307156 -38.667875 
L 518.256424 -38.667875 
L 518.205691 -38.667875 
L 518.154959 -38.667875 
L 518.104227 -38.667875 
L 518.053494 -38.667875 
L 518.002762 -38.667875 
L 517.95203 -38.667875 
L 517.901297 -38.667875 
L 517.850565 -38.667875 
L 517.799833 -38.667875 
L 517.7491 -38.667875 
L 517.698368 -38.667875 
L 517.647636 -38.667875 
L 517.596903 -38.667875 
L 517.546171 -38.667875 
L 517.495439 -38.667875 
L 517.444706 -38.667875 
L 517.393974 -38.667875 
L 517.343241 -38.667875 
L 517.292509 -38.667875 
L 517.241777 -38.667875 
L 517.191044 -38.667875 
L 517.140312 -38.667875 
L 517.08958 -38.667875 
L 517.038847 -38.667875 
L 516.988115 -38.667875 
L 516.937383 -38.667875 
L 516.88665 -38.667875 
L 516.835918 -38.667875 
L 516.785186 -38.667875 
L 516.734453 -38.667875 
L 516.683721 -38.667875 
L 516.632989 -38.667875 
L 516.582256 -38.667875 
L 516.531524 -38.667875 
L 516.480792 -38.667875 
L 516.430059 -38.667875 
L 516.379327 -38.667875 
L 516.328595 -38.667875 
L 516.277862 -38.667875 
L 516.22713 -38.667875 
L 516.176398 -38.667875 
L 516.125665 -38.667875 
L 516.074933 -38.667875 
L 516.0242 -38.667875 
L 515.973468 -38.667875 
L 515.922736 -38.667875 
L 515.872003 -38.667875 
L 515.821271 -38.667875 
L 515.770539 -38.667875 
L 515.719806 -38.667875 
L 515.669074 -38.667875 
L 515.618342 -38.667875 
L 515.567609 -38.667875 
L 515.516877 -38.667875 
L 515.466145 -38.667875 
L 515.415412 -38.667875 
L 515.36468 -38.667875 
L 515.313948 -38.667875 
L 515.263215 -38.667875 
L 515.212483 -38.667875 
L 515.161751 -38.667875 
L 515.111018 -38.667875 
L 515.060286 -38.667875 
L 515.009554 -38.667875 
L 514.958821 -38.667875 
L 514.908089 -38.667875 
L 514.857357 -38.667875 
L 514.806624 -38.667875 
L 514.755892 -38.667875 
L 514.70516 -38.667875 
L 514.654427 -38.667875 
L 514.603695 -38.667875 
L 514.552962 -38.667875 
L 514.50223 -38.667875 
L 514.451498 -38.667875 
L 514.400765 -38.667875 
L 514.350033 -38.667875 
L 514.299301 -38.667875 
L 514.248568 -38.667875 
L 514.197836 -38.667875 
L 514.147104 -38.667875 
L 514.096371 -38.667875 
L 514.045639 -38.667875 
L 513.994907 -38.667875 
L 513.944174 -38.667875 
L 513.893442 -38.667875 
L 513.84271 -38.667875 
L 513.791977 -38.667875 
L 513.741245 -38.667875 
L 513.690513 -38.667875 
L 513.63978 -38.667875 
L 513.589048 -38.667875 
L 513.538316 -38.667875 
L 513.487583 -38.667875 
L 513.436851 -38.667875 
L 513.386119 -38.667875 
L 513.335386 -38.667875 
L 513.284654 -38.667875 
L 513.233921 -38.667875 
L 513.183189 -38.667875 
L 513.132457 -38.667875 
L 513.081724 -38.667875 
L 513.030992 -38.667875 
L 512.98026 -38.667875 
L 512.929527 -38.667875 
L 512.878795 -38.667875 
L 512.828063 -38.667875 
L 512.77733 -38.667875 
L 512.726598 -38.667875 
L 512.675866 -38.667875 
L 512.625133 -38.667875 
L 512.574401 -38.667875 
L 512.523669 -38.667875 
L 512.472936 -38.667875 
L 512.422204 -38.667875 
L 512.371472 -38.667875 
L 512.320739 -38.667875 
L 512.270007 -38.667875 
L 512.219275 -38.667875 
L 512.168542 -38.667875 
L 512.11781 -38.667875 
L 512.067078 -38.667875 
L 512.016345 -38.667875 
L 511.965613 -38.667875 
L 511.91488 -38.667875 
L 511.864148 -38.667875 
L 511.813416 -38.667875 
L 511.762683 -38.667875 
L 511.711951 -38.667875 
L 511.661219 -38.667875 
L 511.610486 -38.667875 
L 511.559754 -38.667875 
L 511.509022 -38.667875 
L 511.458289 -38.667875 
L 511.407557 -38.667875 
L 511.356825 -38.667875 
L 511.306092 -38.667875 
L 511.25536 -38.667875 
L 511.204628 -38.667875 
L 511.153895 -38.667875 
L 511.103163 -38.667875 
L 511.052431 -38.667875 
L 511.001698 -38.667875 
L 510.950966 -38.667875 
L 510.900234 -38.667875 
L 510.849501 -38.667875 
L 510.798769 -38.667875 
L 510.748037 -38.667875 
L 510.697304 -38.667875 
L 510.646572 -38.667875 
L 510.595839 -38.667875 
L 510.545107 -38.667875 
L 510.494375 -38.667875 
L 510.443642 -38.667875 
L 510.39291 -38.667875 
L 510.342178 -38.667875 
L 510.291445 -38.667875 
L 510.240713 -38.667875 
L 510.189981 -38.667875 
L 510.139248 -38.667875 
L 510.088516 -38.667875 
L 510.037784 -38.667875 
L 509.987051 -38.667875 
L 509.936319 -38.667875 
L 509.885587 -38.667875 
L 509.834854 -38.667875 
L 509.784122 -38.667875 
L 509.73339 -38.667875 
L 509.682657 -38.667875 
L 509.631925 -38.667875 
L 509.581193 -38.667875 
L 509.53046 -38.667875 
L 509.479728 -38.667875 
L 509.428996 -38.667875 
L 509.378263 -38.667875 
L 509.327531 -38.667875 
L 509.276798 -38.667875 
L 509.226066 -38.667875 
L 509.175334 -38.667875 
L 509.124601 -38.667875 
L 509.073869 -38.667875 
L 509.023137 -38.667875 
L 508.972404 -38.667875 
L 508.921672 -38.667875 
L 508.87094 -38.667875 
L 508.820207 -38.667875 
L 508.769475 -38.667875 
L 508.718743 -38.667875 
L 508.66801 -38.667875 
L 508.617278 -38.667875 
L 508.566546 -38.667875 
L 508.515813 -38.667875 
L 508.465081 -38.667875 
L 508.414349 -38.667875 
L 508.363616 -38.667875 
L 508.312884 -38.667875 
L 508.262152 -38.667875 
L 508.211419 -38.667875 
L 508.160687 -38.667875 
L 508.109955 -38.667875 
L 508.059222 -38.667875 
L 508.00849 -38.667875 
L 507.957757 -38.667875 
L 507.907025 -38.667875 
L 507.856293 -38.667875 
L 507.80556 -38.667875 
L 507.754828 -38.667875 
L 507.704096 -38.667875 
L 507.653363 -38.667875 
L 507.602631 -38.667875 
L 507.551899 -38.667875 
L 507.501166 -38.667875 
L 507.450434 -38.667875 
L 507.399702 -38.667875 
L 507.348969 -38.667875 
L 507.298237 -38.667875 
L 507.247505 -38.667875 
L 507.196772 -38.667875 
L 507.14604 -38.667875 
L 507.095308 -38.667875 
L 507.044575 -38.667875 
L 506.993843 -38.667875 
L 506.943111 -38.667875 
L 506.892378 -38.667875 
L 506.841646 -38.667875 
L 506.790914 -38.667875 
L 506.740181 -38.667875 
L 506.689449 -38.667875 
L 506.638716 -38.667875 
L 506.587984 -38.667875 
L 506.537252 -38.667875 
L 506.486519 -38.667875 
L 506.435787 -38.667875 
L 506.385055 -38.667875 
L 506.334322 -38.667875 
L 506.28359 -38.667875 
L 506.232858 -38.667875 
L 506.182125 -38.667875 
L 506.131393 -38.667875 
L 506.080661 -38.667875 
L 506.029928 -38.667875 
L 505.979196 -38.667875 
L 505.928464 -38.667875 
L 505.877731 -38.667875 
L 505.826999 -38.667875 
L 505.776267 -38.667875 
L 505.725534 -38.667875 
L 505.674802 -38.667875 
L 505.62407 -38.667875 
L 505.573337 -38.667875 
L 505.522605 -38.667875 
L 505.471873 -38.667875 
L 505.42114 -38.667875 
L 505.370408 -38.667875 
L 505.319675 -38.667875 
L 505.268943 -38.667875 
L 505.218211 -38.667875 
L 505.167478 -38.667875 
L 505.116746 -38.667875 
L 505.066014 -38.667875 
L 505.015281 -38.667875 
L 504.964549 -38.667875 
L 504.913817 -38.667875 
L 504.863084 -38.667875 
L 504.812352 -38.667875 
L 504.76162 -38.667875 
L 504.710887 -38.667875 
L 504.660155 -38.667875 
L 504.609423 -38.667875 
L 504.55869 -38.667875 
L 504.507958 -38.667875 
L 504.457226 -38.667875 
L 504.406493 -38.667875 
L 504.355761 -38.667875 
L 504.305029 -38.667875 
L 504.254296 -38.667875 
L 504.203564 -38.667875 
L 504.152832 -38.667875 
L 504.102099 -38.667875 
L 504.051367 -38.667875 
L 504.000635 -38.667875 
L 503.949902 -38.667875 
L 503.89917 -38.667875 
L 503.848437 -38.667875 
L 503.797705 -38.667875 
L 503.746973 -38.667875 
L 503.69624 -38.667875 
L 503.645508 -38.667875 
L 503.594776 -38.667875 
L 503.544043 -38.667875 
L 503.493311 -38.667875 
L 503.442579 -38.667875 
L 503.391846 -38.667875 
L 503.341114 -38.667875 
L 503.290382 -38.667875 
L 503.239649 -38.667875 
L 503.188917 -38.667875 
L 503.138185 -38.667875 
L 503.087452 -38.667875 
L 503.03672 -38.667875 
L 502.985988 -38.667875 
L 502.935255 -38.667875 
L 502.884523 -38.667875 
L 502.833791 -38.667875 
L 502.783058 -38.667875 
L 502.732326 -38.667875 
L 502.681594 -38.667875 
L 502.630861 -38.667875 
L 502.580129 -38.667875 
L 502.529396 -38.667875 
L 502.478664 -38.667875 
L 502.427932 -38.667875 
L 502.377199 -38.667875 
L 502.326467 -38.667875 
L 502.275735 -38.667875 
L 502.225002 -38.667875 
L 502.17427 -38.667875 
L 502.123538 -38.667875 
L 502.072805 -38.667875 
L 502.022073 -38.667875 
L 501.971341 -38.667875 
L 501.920608 -38.667875 
L 501.869876 -38.667875 
L 501.819144 -38.667875 
L 501.768411 -38.667875 
L 501.717679 -38.667875 
L 501.666947 -38.667875 
L 501.616214 -38.667875 
L 501.565482 -38.667875 
L 501.51475 -38.667875 
L 501.464017 -38.667875 
L 501.413285 -38.667875 
L 501.362553 -38.667875 
L 501.31182 -38.667875 
L 501.261088 -38.667875 
L 501.210355 -38.667875 
L 501.159623 -38.667875 
L 501.108891 -38.667875 
L 501.058158 -38.667875 
L 501.007426 -38.667875 
L 500.956694 -38.667875 
L 500.905961 -38.667875 
L 500.855229 -38.667875 
L 500.804497 -38.667875 
L 500.753764 -38.667875 
L 500.703032 -38.667875 
L 500.6523 -38.667875 
L 500.601567 -38.667875 
L 500.550835 -38.667875 
L 500.500103 -38.667875 
L 500.44937 -38.667875 
L 500.398638 -38.667875 
L 500.347906 -38.667875 
L 500.297173 -38.667875 
L 500.246441 -38.667875 
L 500.195709 -38.667875 
L 500.144976 -38.667875 
L 500.094244 -38.667875 
L 500.043512 -38.667875 
L 499.992779 -38.667875 
L 499.942047 -38.667875 
L 499.891314 -38.667875 
L 499.840582 -38.667875 
L 499.78985 -38.667875 
L 499.739117 -38.667875 
L 499.688385 -38.667875 
L 499.637653 -38.667875 
L 499.58692 -38.667875 
L 499.536188 -38.667875 
L 499.485456 -38.667875 
L 499.434723 -38.667875 
L 499.383991 -38.667875 
L 499.333259 -38.667875 
L 499.282526 -38.667875 
L 499.231794 -38.667875 
L 499.181062 -38.667875 
L 499.130329 -38.667875 
L 499.079597 -38.667875 
L 499.028865 -38.667875 
L 498.978132 -38.667875 
L 498.9274 -38.667875 
L 498.876668 -38.667875 
L 498.825935 -38.667875 
L 498.775203 -38.667875 
L 498.724471 -38.667875 
L 498.673738 -38.667875 
L 498.623006 -38.667875 
L 498.572273 -38.667875 
L 498.521541 -38.667875 
L 498.470809 -38.667875 
L 498.420076 -38.667875 
L 498.369344 -38.667875 
L 498.318612 -38.667875 
L 498.267879 -38.667875 
L 498.217147 -38.667875 
L 498.166415 -38.667875 
L 498.115682 -38.667875 
L 498.06495 -38.667875 
L 498.014218 -38.667875 
L 497.963485 -38.667875 
L 497.912753 -38.667875 
L 497.862021 -38.667875 
L 497.811288 -38.667875 
L 497.760556 -38.667875 
L 497.709824 -38.667875 
L 497.659091 -38.667875 
L 497.608359 -38.667875 
L 497.557627 -38.667875 
L 497.506894 -38.667875 
L 497.456162 -38.667875 
L 497.40543 -38.667875 
L 497.354697 -38.667875 
L 497.303965 -38.667875 
L 497.253232 -38.667875 
L 497.2025 -38.667875 
L 497.151768 -38.667875 
L 497.101035 -38.667875 
L 497.050303 -38.667875 
L 496.999571 -38.667875 
L 496.948838 -38.667875 
L 496.898106 -38.667875 
L 496.847374 -38.667875 
L 496.796641 -38.667875 
L 496.745909 -38.667875 
L 496.695177 -38.667875 
L 496.644444 -38.667875 
L 496.593712 -38.667875 
L 496.54298 -38.667875 
L 496.492247 -38.667875 
L 496.441515 -38.667875 
L 496.390783 -38.667875 
L 496.34005 -38.667875 
L 496.289318 -38.667875 
L 496.238586 -38.667875 
L 496.187853 -38.667875 
L 496.137121 -38.667875 
L 496.086389 -38.667875 
L 496.035656 -38.667875 
L 495.984924 -38.667875 
L 495.934191 -38.667875 
L 495.883459 -38.667875 
L 495.832727 -38.667875 
L 495.781994 -38.667875 
L 495.731262 -38.667875 
L 495.68053 -38.667875 
L 495.629797 -38.667875 
L 495.579065 -38.667875 
L 495.528333 -38.667875 
L 495.4776 -38.667875 
L 495.426868 -38.667875 
L 495.376136 -38.667875 
L 495.325403 -38.667875 
L 495.274671 -38.667875 
L 495.223939 -38.667875 
L 495.173206 -38.667875 
L 495.122474 -38.667875 
L 495.071742 -38.667875 
L 495.021009 -38.667875 
L 494.970277 -38.667875 
L 494.919545 -38.667875 
L 494.868812 -38.667875 
L 494.81808 -38.667875 
L 494.767348 -38.667875 
L 494.716615 -38.667875 
L 494.665883 -38.667875 
L 494.61515 -38.667875 
L 494.564418 -38.667875 
L 494.513686 -38.667875 
L 494.462953 -38.667875 
L 494.412221 -38.667875 
L 494.361489 -38.667875 
L 494.310756 -38.667875 
L 494.260024 -38.667875 
L 494.209292 -38.667875 
L 494.158559 -38.667875 
L 494.107827 -38.667875 
L 494.057095 -38.667875 
L 494.006362 -38.667875 
L 493.95563 -38.667875 
L 493.904898 -38.667875 
L 493.854165 -38.667875 
L 493.803433 -38.667875 
L 493.752701 -38.667875 
L 493.701968 -38.667875 
L 493.651236 -38.667875 
L 493.600504 -38.667875 
L 493.549771 -38.667875 
L 493.499039 -38.667875 
L 493.448307 -38.667875 
L 493.397574 -38.667875 
L 493.346842 -38.667875 
L 493.29611 -38.667875 
L 493.245377 -38.667875 
L 493.194645 -38.667875 
L 493.143912 -38.667875 
L 493.09318 -38.667875 
L 493.042448 -38.667875 
L 492.991715 -38.667875 
L 492.940983 -38.667875 
L 492.890251 -38.667875 
L 492.839518 -38.667875 
L 492.788786 -38.667875 
L 492.738054 -38.667875 
L 492.687321 -38.667875 
L 492.636589 -38.667875 
L 492.585857 -38.667875 
L 492.535124 -38.667875 
L 492.484392 -38.667875 
L 492.43366 -38.667875 
L 492.382927 -38.667875 
L 492.332195 -38.667875 
L 492.281463 -38.667875 
L 492.23073 -38.667875 
L 492.179998 -38.667875 
L 492.129266 -38.667875 
L 492.078533 -38.667875 
L 492.027801 -38.667875 
L 491.977069 -38.667875 
L 491.926336 -38.667875 
L 491.875604 -38.667875 
L 491.824871 -38.667875 
L 491.774139 -38.667875 
L 491.723407 -38.667875 
L 491.672674 -38.667875 
L 491.621942 -38.667875 
L 491.57121 -38.667875 
L 491.520477 -38.667875 
L 491.469745 -38.667875 
L 491.419013 -38.667875 
L 491.36828 -38.667875 
L 491.317548 -38.667875 
L 491.266816 -38.667875 
L 491.216083 -38.667875 
L 491.165351 -38.667875 
L 491.114619 -38.667875 
L 491.063886 -38.667875 
L 491.013154 -38.667875 
L 490.962422 -38.667875 
L 490.911689 -38.667875 
L 490.860957 -38.667875 
L 490.810225 -38.667875 
L 490.759492 -38.667875 
L 490.70876 -38.667875 
L 490.658028 -38.667875 
L 490.607295 -38.667875 
L 490.556563 -38.667875 
L 490.50583 -38.667875 
L 490.455098 -38.667875 
L 490.404366 -38.667875 
L 490.353633 -38.667875 
L 490.302901 -38.667875 
L 490.252169 -38.667875 
L 490.201436 -38.667875 
L 490.150704 -38.667875 
L 490.099972 -38.667875 
L 490.049239 -38.667875 
L 489.998507 -38.667875 
L 489.947775 -38.667875 
L 489.897042 -38.667875 
L 489.84631 -38.667875 
L 489.795578 -38.667875 
L 489.744845 -38.667875 
L 489.694113 -38.667875 
L 489.643381 -38.667875 
L 489.592648 -38.667875 
L 489.541916 -38.667875 
L 489.491184 -38.667875 
L 489.440451 -38.667875 
L 489.389719 -38.667875 
L 489.338987 -38.667875 
L 489.288254 -38.667875 
L 489.237522 -38.667875 
L 489.186789 -38.667875 
L 489.136057 -38.667875 
L 489.085325 -38.667875 
L 489.034592 -38.667875 
L 488.98386 -38.667875 
L 488.933128 -38.667875 
L 488.882395 -38.667875 
L 488.831663 -38.667875 
L 488.780931 -38.667875 
L 488.730198 -38.667875 
L 488.679466 -38.667875 
L 488.628734 -38.667875 
L 488.578001 -38.667875 
L 488.527269 -38.667875 
L 488.476537 -38.667875 
L 488.425804 -38.667875 
L 488.375072 -38.667875 
L 488.32434 -38.667875 
L 488.273607 -38.667875 
L 488.222875 -38.667875 
L 488.172143 -38.667875 
L 488.12141 -38.667875 
L 488.070678 -38.667875 
L 488.019946 -38.667875 
L 487.969213 -38.667875 
L 487.918481 -38.667875 
L 487.867748 -38.667875 
L 487.817016 -38.667875 
L 487.766284 -38.667875 
L 487.715551 -38.667875 
L 487.664819 -38.667875 
L 487.614087 -38.667875 
L 487.563354 -38.667875 
L 487.512622 -38.667875 
L 487.46189 -38.667875 
L 487.411157 -38.667875 
L 487.360425 -38.667875 
L 487.309693 -38.667875 
L 487.25896 -38.667875 
L 487.208228 -38.667875 
L 487.157496 -38.667875 
L 487.106763 -38.667875 
L 487.056031 -38.667875 
L 487.005299 -38.667875 
L 486.954566 -38.667875 
L 486.903834 -38.667875 
L 486.853102 -38.667875 
L 486.802369 -38.667875 
L 486.751637 -38.667875 
L 486.700905 -38.667875 
L 486.650172 -38.667875 
L 486.59944 -38.667875 
L 486.548707 -38.667875 
L 486.497975 -38.667875 
L 486.447243 -38.667875 
L 486.39651 -38.667875 
L 486.345778 -38.667875 
L 486.295046 -38.667875 
L 486.244313 -38.667875 
L 486.193581 -38.667875 
L 486.142849 -38.667875 
L 486.092116 -38.667875 
L 486.041384 -38.667875 
L 485.990652 -38.667875 
L 485.939919 -38.667875 
L 485.889187 -38.667875 
L 485.838455 -38.667875 
L 485.787722 -38.667875 
L 485.73699 -38.667875 
L 485.686258 -38.667875 
L 485.635525 -38.667875 
z
" style="stroke: #bfbfbf; stroke-width: 0.8"/>
    </defs>
    <g clip-path="url(#p6adb22a783)">
     <use xlink:href="#mf5f4fc84f8" x="0" y="363.387875" style="fill: #bfbfbf; stroke: #bfbfbf; stroke-width: 0.8"/>
    </g>
   </g>
   <g id="line2d_12">
    <path d="M 62.882886 321.360639 
L 70.340541 320.359936 
L 77.138676 319.227489 
L 83.429486 317.958173 
L 89.314439 316.547496 
L 94.894997 314.982534 
L 100.171161 313.274198 
L 105.244395 311.398552 
L 110.1147 309.361484 
L 114.832809 307.147176 
L 119.39872 304.76006 
L 123.863166 302.17642 
L 128.27688 299.363144 
L 132.58913 296.350564 
L 136.850647 293.102869 
L 141.112164 289.572793 
L 145.322949 285.795042 
L 149.533733 281.718044 
L 153.744518 277.331716 
L 158.006035 272.568698 
L 162.318284 267.409881 
L 166.681266 261.837532 
L 171.09498 255.8358 
L 175.610159 249.315889 
L 180.226803 242.2545 
L 184.995643 234.548035 
L 189.916681 226.169134 
L 195.09138 216.911898 
L 200.570473 206.64373 
L 206.455425 195.130757 
L 212.949166 181.924916 
L 220.559018 165.923602 
L 231.41574 142.515762 
L 245.620797 111.96543 
L 252.672593 97.343858 
L 258.45608 85.84866 
L 263.529315 76.246807 
L 268.095226 68.066933 
L 272.30601 60.967507 
L 276.212401 54.805156 
L 279.86513 49.444953 
L 283.31493 44.765071 
L 286.612532 40.659759 
L 289.757938 37.095864 
L 292.751146 34.036751 
L 295.592157 31.443328 
L 298.331704 29.236778 
L 300.969786 27.391466 
L 303.506403 25.880776 
L 305.992288 24.655031 
L 308.427441 23.70186 
L 310.811861 23.008245 
L 313.145549 22.560651 
L 315.428505 22.345152 
L 317.71146 22.350051 
L 319.994416 22.575338 
L 322.328104 23.032905 
L 324.661792 23.719202 
L 327.046212 24.655031 
L 329.481364 25.853228 
L 331.967249 27.326046 
L 334.554599 29.122807 
L 337.192681 31.226766 
L 339.932228 33.695861 
L 342.823971 36.607968 
L 345.81718 39.942676 
L 348.962585 43.785058 
L 352.260188 48.169022 
L 355.76072 53.200288 
L 359.464181 58.920123 
L 363.421304 65.448994 
L 367.682821 72.918504 
L 372.299464 81.466255 
L 377.423431 91.429898 
L 383.308383 103.376171 
L 390.461644 118.426672 
L 401.369099 141.965477 
L 415.066832 171.416486 
L 422.727416 187.347079 
L 429.221157 200.3499 
L 435.106109 211.645054 
L 440.585202 221.686857 
L 445.759901 230.713785 
L 450.731671 238.944102 
L 455.500512 246.415456 
L 460.167888 253.317605 
L 464.683066 259.604283 
L 469.147513 265.442382 
L 473.510495 270.78722 
L 477.822744 275.724569 
L 482.134993 280.325564 
L 486.39651 284.550597 
L 490.658028 288.46576 
L 494.919545 292.082353 
L 499.231794 295.450698 
L 503.544043 298.539613 
L 507.907025 301.395084 
L 512.371472 304.051904 
L 516.937383 306.508965 
L 521.604759 308.767155 
L 526.424331 310.849959 
L 531.396101 312.754806 
L 536.570801 314.497715 
L 541.999162 316.088701 
L 547.681184 317.521314 
L 553.718334 318.813169 
L 560.212074 319.972255 
L 567.213138 320.993179 
L 570.155614 321.360639 
L 570.155614 321.360639 
" clip-path="url(#p6adb22a783)" style="fill: none; stroke: #0173b2; stroke-width: 1.2; stroke-linecap: round"/>
   </g>
   <g id="patch_3">
    <path d="M 37.51925 339.84 
L 37.51925 7.2 
" style="fill: none; stroke: #ffffff; stroke-linejoin: miter; stroke-linecap: square"/>
   </g>
   <g id="patch_4">
    <path d="M 595.51925 339.84 
L 595.51925 7.2 
" style="fill: none; stroke: #ffffff; stroke-linejoin: miter; stroke-linecap: square"/>
   </g>
   <g id="patch_5">
    <path d="M 37.51925 339.84 
L 595.51925 339.84 
" style="fill: none; stroke: #ffffff; stroke-linejoin: miter; stroke-linecap: square"/>
   </g>
   <g id="patch_6">
    <path d="M 37.51925 7.2 
L 595.51925 7.2 
" style="fill: none; stroke: #ffffff; stroke-linejoin: miter; stroke-linecap: square"/>
   </g>
  </g>
 </g>
 <defs>
  <clipPath id="p6adb22a783">
   <rect x="37.51925" y="7.2" width="558" height="332.64"/>
  </clipPath>
 </defs>
</svg>