<?xml version="1.0" encoding="utf-8" standalone="no"?>
<!DOCTYPE svg PUBLIC "-//W3C//DTD SVG 1.1//EN"
  "http://www.w3.org/Graphics/SVG/1.1/DTD/svg11.dtd">
<svg xmlns:xlink="http://www.w3.org/1999/xlink" width="611.598124pt" height="366.599844pt" viewBox="0 0 611.598124 366.599844" xmlns="http://www.w3.org/2000/svg" version="1.1">
 <metadata>
  <rdf:RDF xmlns:dc="http://purl.org/dc/elements/1.1/" xmlns:cc="http://creativecommons.org/ns#" xmlns:rdf="http://www.w3.org/1999/02/22-rdf-syntax-ns#">
   <cc:Work>
    <dc:type rdf:resource="http://purl.org/dc/dcmitype/StillImage"/>
    <dc:date>2023-05-29T08:42:14.591098</dc:date>
    <dc:format>image/svg+xml</dc:format>
    <dc:creator>
     <cc:Agent>
      <dc:title>Matplotlib v3.7.1, https://matplotlib.org/</dc:title>
     </cc:Agent>
    </dc:creator>
   </cc:Work>
  </rdf:RDF>
 </metadata>
 <defs>
  <style type="text/css">*{stroke-linejoin: round; stroke-linecap: butt}</style>
 </defs>
 <g id="figure_1">
  <g id="patch_1">
   <path d="M 0 366.599844 
L 611.598124 366.599844 
L 611.598124 0 
L 0 0 
z
" style="fill: #ffffff"/>
  </g>
  <g id="axes_1">
   <g id="patch_2">
    <path d="M 44.224063 339.84 
L 602.224062 339.84 
L 602.224062 7.2 
L 44.224063 7.2 
z
" style="fill: #eaeaf2"/>
   </g>
   <g id="matplotlib.axis_1">
    <g id="xtick_1">
     <g id="line2d_1">
      <path d="M 58.435847 339.84 
L 58.435847 7.2 
" clip-path="url(#pcb2a424eb7)" style="fill: none; stroke: #ffffff; stroke-linecap: round"/>
     </g>
     <g id="text_1">
      <!-- −400 -->
      <g style="fill: #262626" transform="translate(46.047957 357.213594) scale(0.11 -0.11)">
       <defs>
        <path id="ArialMT-2212" d="M 3381 1997 
L 356 1997 
L 356 2522 
L 3381 2522 
L 3381 1997 
z
" transform="scale(0.015625)"/>
        <path id="ArialMT-34" d="M 2069 0 
L 2069 1097 
L 81 1097 
L 81 1613 
L 2172 4581 
L 2631 4581 
L 2631 1613 
L 3250 1613 
L 3250 1097 
L 2631 1097 
L 2631 0 
L 2069 0 
z
M 2069 1613 
L 2069 3678 
L 634 1613 
L 2069 1613 
z
" transform="scale(0.015625)"/>
        <path id="ArialMT-30" d="M 266 2259 
Q 266 3072 433 3567 
Q 600 4063 929 4331 
Q 1259 4600 1759 4600 
Q 2128 4600 2406 4451 
Q 2684 4303 2865 4023 
Q 3047 3744 3150 3342 
Q 3253 2941 3253 2259 
Q 3253 1453 3087 958 
Q 2922 463 2592 192 
Q 2263 -78 1759 -78 
Q 1097 -78 719 397 
Q 266 969 266 2259 
z
M 844 2259 
Q 844 1131 1108 757 
Q 1372 384 1759 384 
Q 2147 384 2411 759 
Q 2675 1134 2675 2259 
Q 2675 3391 2411 3762 
Q 2147 4134 1753 4134 
Q 1366 4134 1134 3806 
Q 844 3388 844 2259 
z
" transform="scale(0.015625)"/>
       </defs>
       <use xlink:href="#ArialMT-2212"/>
       <use xlink:href="#ArialMT-34" x="58.398438"/>
       <use xlink:href="#ArialMT-30" x="114.013672"/>
       <use xlink:href="#ArialMT-30" x="169.628906"/>
      </g>
     </g>
    </g>
    <g id="xtick_2">
     <g id="line2d_2">
      <path d="M 147.900302 339.84 
L 147.900302 7.2 
" clip-path="url(#pcb2a424eb7)" style="fill: none; stroke: #ffffff; stroke-linecap: round"/>
     </g>
     <g id="text_2">
      <!-- −200 -->
      <g style="fill: #262626" transform="translate(135.512412 357.213594) scale(0.11 -0.11)">
       <defs>
        <path id="ArialMT-32" d="M 3222 541 
L 3222 0 
L 194 0 
Q 188 203 259 391 
Q 375 700 629 1000 
Q 884 1300 1366 1694 
Q 2113 2306 2375 2664 
Q 2638 3022 2638 3341 
Q 2638 3675 2398 3904 
Q 2159 4134 1775 4134 
Q 1369 4134 1125 3890 
Q 881 3647 878 3216 
L 300 3275 
Q 359 3922 746 4261 
Q 1134 4600 1788 4600 
Q 2447 4600 2831 4234 
Q 3216 3869 3216 3328 
Q 3216 3053 3103 2787 
Q 2991 2522 2730 2228 
Q 2469 1934 1863 1422 
Q 1356 997 1212 845 
Q 1069 694 975 541 
L 3222 541 
z
" transform="scale(0.015625)"/>
       </defs>
       <use xlink:href="#ArialMT-2212"/>
       <use xlink:href="#ArialMT-32" x="58.398438"/>
       <use xlink:href="#ArialMT-30" x="114.013672"/>
       <use xlink:href="#ArialMT-30" x="169.628906"/>
      </g>
     </g>
    </g>
    <g id="xtick_3">
     <g id="line2d_3">
      <path d="M 237.364757 339.84 
L 237.364757 7.2 
" clip-path="url(#pcb2a424eb7)" style="fill: none; stroke: #ffffff; stroke-linecap: round"/>
     </g>
     <g id="text_3">
      <!-- 0 -->
      <g style="fill: #262626" transform="translate(234.306242 357.213594) scale(0.11 -0.11)">
       <use xlink:href="#ArialMT-30"/>
      </g>
     </g>
    </g>
    <g id="xtick_4">
     <g id="line2d_4">
      <path d="M 326.829212 339.84 
L 326.829212 7.2 
" clip-path="url(#pcb2a424eb7)" style="fill: none; stroke: #ffffff; stroke-linecap: round"/>
     </g>
     <g id="text_4">
      <!-- 200 -->
      <g style="fill: #262626" transform="translate(317.653665 357.213594) scale(0.11 -0.11)">
       <use xlink:href="#ArialMT-32"/>
       <use xlink:href="#ArialMT-30" x="55.615234"/>
       <use xlink:href="#ArialMT-30" x="111.230469"/>
      </g>
     </g>
    </g>
    <g id="xtick_5">
     <g id="line2d_5">
      <path d="M 416.293667 339.84 
L 416.293667 7.2 
" clip-path="url(#pcb2a424eb7)" style="fill: none; stroke: #ffffff; stroke-linecap: round"/>
     </g>
     <g id="text_5">
      <!-- 400 -->
      <g style="fill: #262626" transform="translate(407.11812 357.213594) scale(0.11 -0.11)">
       <use xlink:href="#ArialMT-34"/>
       <use xlink:href="#ArialMT-30" x="55.615234"/>
       <use xlink:href="#ArialMT-30" x="111.230469"/>
      </g>
     </g>
    </g>
    <g id="xtick_6">
     <g id="line2d_6">
      <path d="M 505.758122 339.84 
L 505.758122 7.2 
" clip-path="url(#pcb2a424eb7)" style="fill: none; stroke: #ffffff; stroke-linecap: round"/>
     </g>
     <g id="text_6">
      <!-- 600 -->
      <g style="fill: #262626" transform="translate(496.582575 357.213594) scale(0.11 -0.11)">
       <defs>
        <path id="ArialMT-36" d="M 3184 3459 
L 2625 3416 
Q 2550 3747 2413 3897 
Q 2184 4138 1850 4138 
Q 1581 4138 1378 3988 
Q 1113 3794 959 3422 
Q 806 3050 800 2363 
Q 1003 2672 1297 2822 
Q 1591 2972 1913 2972 
Q 2475 2972 2870 2558 
Q 3266 2144 3266 1488 
Q 3266 1056 3080 686 
Q 2894 316 2569 119 
Q 2244 -78 1831 -78 
Q 1128 -78 684 439 
Q 241 956 241 2144 
Q 241 3472 731 4075 
Q 1159 4600 1884 4600 
Q 2425 4600 2770 4297 
Q 3116 3994 3184 3459 
z
M 888 1484 
Q 888 1194 1011 928 
Q 1134 663 1356 523 
Q 1578 384 1822 384 
Q 2178 384 2434 671 
Q 2691 959 2691 1453 
Q 2691 1928 2437 2201 
Q 2184 2475 1800 2475 
Q 1419 2475 1153 2201 
Q 888 1928 888 1484 
z
" transform="scale(0.015625)"/>
       </defs>
       <use xlink:href="#ArialMT-36"/>
       <use xlink:href="#ArialMT-30" x="55.615234"/>
       <use xlink:href="#ArialMT-30" x="111.230469"/>
      </g>
     </g>
    </g>
    <g id="xtick_7">
     <g id="line2d_7">
      <path d="M 595.222577 339.84 
L 595.222577 7.2 
" clip-path="url(#pcb2a424eb7)" style="fill: none; stroke: #ffffff; stroke-linecap: round"/>
     </g>
     <g id="text_7">
      <!-- 800 -->
      <g style="fill: #262626" transform="translate(586.04703 357.213594) scale(0.11 -0.11)">
       <defs>
        <path id="ArialMT-38" d="M 1131 2484 
Q 781 2613 612 2850 
Q 444 3088 444 3419 
Q 444 3919 803 4259 
Q 1163 4600 1759 4600 
Q 2359 4600 2725 4251 
Q 3091 3903 3091 3403 
Q 3091 3084 2923 2848 
Q 2756 2613 2416 2484 
Q 2838 2347 3058 2040 
Q 3278 1734 3278 1309 
Q 3278 722 2862 322 
Q 2447 -78 1769 -78 
Q 1091 -78 675 323 
Q 259 725 259 1325 
Q 259 1772 486 2073 
Q 713 2375 1131 2484 
z
M 1019 3438 
Q 1019 3113 1228 2906 
Q 1438 2700 1772 2700 
Q 2097 2700 2305 2904 
Q 2513 3109 2513 3406 
Q 2513 3716 2298 3927 
Q 2084 4138 1766 4138 
Q 1444 4138 1231 3931 
Q 1019 3725 1019 3438 
z
M 838 1322 
Q 838 1081 952 856 
Q 1066 631 1291 507 
Q 1516 384 1775 384 
Q 2178 384 2440 643 
Q 2703 903 2703 1303 
Q 2703 1709 2433 1975 
Q 2163 2241 1756 2241 
Q 1359 2241 1098 1978 
Q 838 1716 838 1322 
z
" transform="scale(0.015625)"/>
       </defs>
       <use xlink:href="#ArialMT-38"/>
       <use xlink:href="#ArialMT-30" x="55.615234"/>
       <use xlink:href="#ArialMT-30" x="111.230469"/>
      </g>
     </g>
    </g>
   </g>
   <g id="matplotlib.axis_2">
    <g id="ytick_1">
     <g id="line2d_8">
      <path d="M 44.224063 324.72 
L 602.224062 324.72 
" clip-path="url(#pcb2a424eb7)" style="fill: none; stroke: #ffffff; stroke-linecap: round"/>
     </g>
     <g id="text_8">
      <!-- 0.000 -->
      <g style="fill: #262626" transform="translate(7.2 328.656797) scale(0.11 -0.11)">
       <defs>
        <path id="ArialMT-2e" d="M 581 0 
L 581 641 
L 1222 641 
L 1222 0 
L 581 0 
z
" transform="scale(0.015625)"/>
       </defs>
       <use xlink:href="#ArialMT-30"/>
       <use xlink:href="#ArialMT-2e" x="55.615234"/>
       <use xlink:href="#ArialMT-30" x="83.398438"/>
       <use xlink:href="#ArialMT-30" x="139.013672"/>
       <use xlink:href="#ArialMT-30" x="194.628906"/>
      </g>
     </g>
    </g>
    <g id="ytick_2">
     <g id="line2d_9">
      <path d="M 44.224063 256.615396 
L 602.224062 256.615396 
" clip-path="url(#pcb2a424eb7)" style="fill: none; stroke: #ffffff; stroke-linecap: round"/>
     </g>
     <g id="text_9">
      <!-- 0.001 -->
      <g style="fill: #262626" transform="translate(7.2 260.552193) scale(0.11 -0.11)">
       <defs>
        <path id="ArialMT-31" d="M 2384 0 
L 1822 0 
L 1822 3584 
Q 1619 3391 1289 3197 
Q 959 3003 697 2906 
L 697 3450 
Q 1169 3672 1522 3987 
Q 1875 4303 2022 4600 
L 2384 4600 
L 2384 0 
z
" transform="scale(0.015625)"/>
       </defs>
       <use xlink:href="#ArialMT-30"/>
       <use xlink:href="#ArialMT-2e" x="55.615234"/>
       <use xlink:href="#ArialMT-30" x="83.398438"/>
       <use xlink:href="#ArialMT-30" x="139.013672"/>
       <use xlink:href="#ArialMT-31" x="194.628906"/>
      </g>
     </g>
    </g>
    <g id="ytick_3">
     <g id="line2d_10">
      <path d="M 44.224063 188.510792 
L 602.224062 188.510792 
" clip-path="url(#pcb2a424eb7)" style="fill: none; stroke: #ffffff; stroke-linecap: round"/>
     </g>
     <g id="text_10">
      <!-- 0.002 -->
      <g style="fill: #262626" transform="translate(7.2 192.447588) scale(0.11 -0.11)">
       <use xlink:href="#ArialMT-30"/>
       <use xlink:href="#ArialMT-2e" x="55.615234"/>
       <use xlink:href="#ArialMT-30" x="83.398438"/>
       <use xlink:href="#ArialMT-30" x="139.013672"/>
       <use xlink:href="#ArialMT-32" x="194.628906"/>
      </g>
     </g>
    </g>
    <g id="ytick_4">
     <g id="line2d_11">
      <path d="M 44.224063 120.406187 
L 602.224062 120.406187 
" clip-path="url(#pcb2a424eb7)" style="fill: none; stroke: #ffffff; stroke-linecap: round"/>
     </g>
     <g id="text_11">
      <!-- 0.003 -->
      <g style="fill: #262626" transform="translate(7.2 124.342984) scale(0.11 -0.11)">
       <defs>
        <path id="ArialMT-33" d="M 269 1209 
L 831 1284 
Q 928 806 1161 595 
Q 1394 384 1728 384 
Q 2125 384 2398 659 
Q 2672 934 2672 1341 
Q 2672 1728 2419 1979 
Q 2166 2231 1775 2231 
Q 1616 2231 1378 2169 
L 1441 2663 
Q 1497 2656 1531 2656 
Q 1891 2656 2178 2843 
Q 2466 3031 2466 3422 
Q 2466 3731 2256 3934 
Q 2047 4138 1716 4138 
Q 1388 4138 1169 3931 
Q 950 3725 888 3313 
L 325 3413 
Q 428 3978 793 4289 
Q 1159 4600 1703 4600 
Q 2078 4600 2393 4439 
Q 2709 4278 2876 4000 
Q 3044 3722 3044 3409 
Q 3044 3113 2884 2869 
Q 2725 2625 2413 2481 
Q 2819 2388 3044 2092 
Q 3269 1797 3269 1353 
Q 3269 753 2831 336 
Q 2394 -81 1725 -81 
Q 1122 -81 723 278 
Q 325 638 269 1209 
z
" transform="scale(0.015625)"/>
       </defs>
       <use xlink:href="#ArialMT-30"/>
       <use xlink:href="#ArialMT-2e" x="55.615234"/>
       <use xlink:href="#ArialMT-30" x="83.398438"/>
       <use xlink:href="#ArialMT-30" x="139.013672"/>
       <use xlink:href="#ArialMT-33" x="194.628906"/>
      </g>
     </g>
    </g>
    <g id="ytick_5">
     <g id="line2d_12">
      <path d="M 44.224063 52.301583 
L 602.224062 52.301583 
" clip-path="url(#pcb2a424eb7)" style="fill: none; stroke: #ffffff; stroke-linecap: round"/>
     </g>
     <g id="text_12">
      <!-- 0.004 -->
      <g style="fill: #262626" transform="translate(7.2 56.23838) scale(0.11 -0.11)">
       <use xlink:href="#ArialMT-30"/>
       <use xlink:href="#ArialMT-2e" x="55.615234"/>
       <use xlink:href="#ArialMT-30" x="83.398438"/>
       <use xlink:href="#ArialMT-30" x="139.013672"/>
       <use xlink:href="#ArialMT-34" x="194.628906"/>
      </g>
     </g>
    </g>
   </g>
   <g id="PolyCollection_1">
    <defs>
     <path id="m678c362382" d="M 69.587699 -41.879844 
L 69.587699 -42.064439 
L 70.580405 -42.054822 
L 71.573111 -42.028872 
L 72.565817 -41.993885 
L 73.558523 -41.95825 
L 74.551228 -41.928272 
L 75.543934 -41.906714 
L 76.53664 -41.893236 
L 77.529346 -41.885839 
L 78.522052 -41.881601 
L 79.514758 -41.879844 
L 80.507464 -41.879844 
L 81.50017 -41.879844 
L 82.492876 -41.879844 
L 83.485582 -41.879844 
L 84.478288 -41.879844 
L 85.470994 -41.879844 
L 86.4637 -41.879844 
L 87.456405 -41.879844 
L 88.449111 -41.879844 
L 89.441817 -41.879844 
L 90.434523 -41.879844 
L 91.427229 -41.879844 
L 92.419935 -41.879844 
L 93.412641 -41.879844 
L 94.405347 -41.879844 
L 95.398053 -41.879844 
L 96.390759 -41.879844 
L 97.383465 -41.879844 
L 98.376171 -41.879844 
L 99.368877 -41.881601 
L 100.361583 -41.884081 
L 101.354288 -41.888998 
L 102.346994 -41.89756 
L 103.3397 -41.910556 
L 104.332406 -41.932809 
L 105.325112 -41.960662 
L 106.317818 -41.999497 
L 107.310524 -42.047157 
L 108.30323 -42.109458 
L 109.295936 -42.194738 
L 110.288642 -42.301292 
L 111.281348 -42.424462 
L 112.274054 -42.549106 
L 113.26676 -42.66067 
L 114.259465 -42.751441 
L 115.252171 -42.818296 
L 116.244877 -42.859611 
L 117.237583 -42.890463 
L 118.230289 -42.917101 
L 119.222995 -42.954202 
L 120.215701 -43.011069 
L 121.208407 -43.102935 
L 122.201113 -43.230244 
L 123.193819 -43.401033 
L 124.186525 -43.607386 
L 125.179231 -43.841381 
L 126.171937 -44.083504 
L 127.164642 -44.326888 
L 128.157348 -44.567988 
L 129.150054 -44.802895 
L 130.14276 -45.048602 
L 131.135466 -45.332045 
L 132.128172 -45.695341 
L 133.120878 -46.169576 
L 134.113584 -46.782213 
L 135.10629 -47.505509 
L 136.098996 -48.335373 
L 137.091702 -49.240334 
L 138.084408 -50.224146 
L 139.077114 -51.289302 
L 140.069819 -52.462019 
L 141.062525 -53.718378 
L 142.055231 -55.047544 
L 143.047937 -56.399806 
L 144.040643 -57.793295 
L 145.033349 -59.224521 
L 146.026055 -60.73811 
L 147.018761 -62.375063 
L 148.011467 -64.124576 
L 149.004173 -65.940133 
L 149.996879 -67.78202 
L 150.989585 -69.596568 
L 151.982291 -71.354655 
L 152.974996 -73.009619 
L 153.967702 -74.53623 
L 154.960408 -75.84754 
L 155.953114 -76.905616 
L 156.94582 -77.715268 
L 157.938526 -78.321352 
L 158.931232 -78.805718 
L 159.923938 -79.225183 
L 160.916644 -79.642169 
L 161.90935 -80.012428 
L 162.902056 -80.360404 
L 163.894762 -80.692839 
L 164.887468 -81.123817 
L 165.880174 -81.693163 
L 166.872879 -82.46775 
L 167.865585 -83.472296 
L 168.858291 -84.643849 
L 169.850997 -85.872665 
L 170.843703 -87.089746 
L 171.836409 -88.16734 
L 172.829115 -89.114241 
L 173.821821 -89.948248 
L 174.814527 -90.872043 
L 175.807233 -92.167019 
L 176.799939 -94.163052 
L 177.792645 -97.17211 
L 178.785351 -101.341325 
L 179.778056 -106.654951 
L 180.770762 -112.62164 
L 181.763468 -118.627881 
L 182.756174 -123.994744 
L 183.74888 -127.711132 
L 184.741586 -129.672467 
L 185.734292 -130.225753 
L 186.726998 -130.162112 
L 187.719704 -130.11787 
L 188.71241 -130.216603 
L 189.705116 -129.915114 
L 190.697822 -128.378838 
L 191.690528 -125.077464 
L 192.683233 -120.2062 
L 193.675939 -114.729116 
L 194.668645 -109.869252 
L 195.661351 -106.505708 
L 196.654057 -104.974336 
L 197.646763 -105.041912 
L 198.639469 -106.259513 
L 199.632175 -108.04916 
L 200.624881 -110.098223 
L 201.617587 -112.578801 
L 202.610293 -115.082338 
L 203.602999 -117.648651 
L 204.595705 -120.244691 
L 205.58841 -122.758054 
L 206.581116 -125.037506 
L 207.573822 -126.997992 
L 208.566528 -128.622861 
L 209.559234 -129.976299 
L 210.55194 -131.404327 
L 211.544646 -133.296555 
L 212.537352 -136.007483 
L 213.530058 -139.647434 
L 214.522764 -143.840127 
L 215.51547 -147.972463 
L 216.508176 -151.370635 
L 217.500882 -153.52919 
L 218.493587 -154.315748 
L 219.486293 -153.997129 
L 220.478999 -152.975755 
L 221.471705 -151.593652 
L 222.464411 -150.112478 
L 223.457117 -148.705823 
L 224.449823 -147.525696 
L 225.442529 -146.79176 
L 226.435235 -146.714365 
L 227.427941 -147.420744 
L 228.420647 -148.761019 
L 229.413353 -150.504138 
L 230.406059 -152.228551 
L 231.398765 -153.713093 
L 232.39147 -154.812828 
L 233.384176 -155.533672 
L 234.376882 -156.05988 
L 235.369588 -156.586725 
L 236.362294 -157.3469 
L 237.355 -158.523128 
L 238.347706 -160.296856 
L 239.340412 -162.779955 
L 240.333118 -165.95405 
L 241.325824 -169.738779 
L 242.31853 -173.853848 
L 243.311236 -178.091132 
L 244.303942 -182.206099 
L 245.296647 -186.037 
L 246.289353 -190.161106 
L 247.282059 -195.108557 
L 248.274765 -201.282307 
L 249.267471 -208.967535 
L 250.260177 -217.930385 
L 251.252883 -227.375747 
L 252.245589 -236.221217 
L 253.238295 -243.367955 
L 254.231001 -248.106277 
L 255.223707 -250.440293 
L 256.216413 -250.975939 
L 257.209119 -250.627659 
L 258.201824 -250.311309 
L 259.19453 -250.446964 
L 260.187236 -251.076814 
L 261.179942 -251.686649 
L 262.172648 -252.01587 
L 263.165354 -251.990934 
L 264.15806 -251.57441 
L 265.150766 -251.305511 
L 266.143472 -251.781216 
L 267.136178 -253.015317 
L 268.128884 -255.163823 
L 269.12159 -257.973268 
L 270.114296 -261.150296 
L 271.107001 -264.439469 
L 272.099707 -267.934405 
L 273.092413 -271.551655 
L 274.085119 -275.839976 
L 275.077825 -281.629866 
L 276.070531 -289.484539 
L 277.063237 -299.582874 
L 278.055943 -311.278539 
L 279.048649 -323.269878 
L 280.041355 -333.655683 
L 281.034061 -340.973549 
L 282.026767 -344.279844 
L 283.019473 -343.633622 
L 284.012178 -339.682811 
L 285.004884 -333.3036 
L 285.99759 -325.025815 
L 286.990296 -315.244104 
L 287.983002 -304.134702 
L 288.975708 -292.123689 
L 289.968414 -279.778898 
L 290.96112 -268.495209 
L 291.953826 -259.269913 
L 292.946532 -253.00968 
L 293.939238 -250.262514 
L 294.931944 -250.851617 
L 295.92465 -254.364368 
L 296.917356 -260.015528 
L 297.910061 -267.070036 
L 298.902767 -274.57598 
L 299.895473 -281.744152 
L 300.888179 -287.588377 
L 301.880885 -291.019037 
L 302.873591 -291.362906 
L 303.866297 -288.283267 
L 304.859003 -281.948088 
L 305.851709 -273.058063 
L 306.844415 -262.682493 
L 307.837121 -251.942326 
L 308.829827 -241.816392 
L 309.822533 -233.078733 
L 310.815238 -226.100402 
L 311.807944 -220.848605 
L 312.80065 -216.889962 
L 313.793356 -213.470165 
L 314.786062 -210.033592 
L 315.778768 -206.04446 
L 316.771474 -201.592507 
L 317.76418 -196.995732 
L 318.756886 -192.873545 
L 319.749592 -189.745391 
L 320.742298 -187.573693 
L 321.735004 -185.898687 
L 322.72771 -183.955474 
L 323.720415 -181.003762 
L 324.713121 -176.637258 
L 325.705827 -171.124656 
L 326.698533 -165.098001 
L 327.691239 -159.430955 
L 328.683945 -154.842498 
L 329.676651 -151.756405 
L 330.669357 -150.165453 
L 331.662063 -149.783159 
L 332.654769 -150.207781 
L 333.647475 -151.145904 
L 334.640181 -152.311397 
L 335.632887 -153.630942 
L 336.625592 -154.961045 
L 337.618298 -156.387283 
L 338.611004 -157.937811 
L 339.60371 -159.595828 
L 340.596416 -161.270923 
L 341.589122 -162.691922 
L 342.581828 -163.548318 
L 343.574534 -163.412029 
L 344.56724 -162.024412 
L 345.559946 -159.298191 
L 346.552652 -155.332213 
L 347.545358 -150.368112 
L 348.538064 -144.719352 
L 349.530769 -138.577812 
L 350.523475 -132.149964 
L 351.516181 -125.615155 
L 352.508887 -119.201042 
L 353.501593 -113.221812 
L 354.494299 -108.004767 
L 355.487005 -103.68314 
L 356.479711 -100.4451 
L 357.472417 -98.233725 
L 358.465123 -96.780492 
L 359.457829 -95.830026 
L 360.450535 -95.006689 
L 361.443241 -94.122339 
L 362.435947 -93.058173 
L 363.428652 -91.901256 
L 364.421358 -90.839062 
L 365.414064 -90.031936 
L 366.40677 -89.588796 
L 367.399476 -89.54097 
L 368.392182 -89.788467 
L 369.384888 -90.22882 
L 370.377594 -90.749898 
L 371.3703 -91.317014 
L 372.363006 -91.997664 
L 373.355712 -92.845419 
L 374.348418 -93.819186 
L 375.341124 -94.866887 
L 376.333829 -95.840543 
L 377.326535 -96.563615 
L 378.319241 -96.94184 
L 379.311947 -96.915806 
L 380.304653 -96.47295 
L 381.297359 -95.648833 
L 382.290065 -94.454633 
L 383.282771 -92.910871 
L 384.275477 -91.053512 
L 385.268183 -88.905897 
L 386.260889 -86.509429 
L 387.253595 -83.881639 
L 388.246301 -81.021345 
L 389.239006 -77.945777 
L 390.231712 -74.719162 
L 391.224418 -71.469092 
L 392.217124 -68.339517 
L 393.20983 -65.442575 
L 394.202536 -62.8538 
L 395.195242 -60.592093 
L 396.187948 -58.650223 
L 397.180654 -57.014626 
L 398.17336 -55.665604 
L 399.166066 -54.591294 
L 400.158772 -53.766059 
L 401.151478 -53.16313 
L 402.144183 -52.738514 
L 403.136889 -52.465142 
L 404.129595 -52.28027 
L 405.122301 -52.130846 
L 406.115007 -51.961653 
L 407.107713 -51.706498 
L 408.100419 -51.344445 
L 409.093125 -50.899711 
L 410.085831 -50.402096 
L 411.078537 -49.907204 
L 412.071243 -49.462314 
L 413.063949 -49.088357 
L 414.056655 -48.801595 
L 415.04936 -48.562717 
L 416.042066 -48.356839 
L 417.034772 -48.139728 
L 418.027478 -47.917753 
L 419.020184 -47.710834 
L 420.01289 -47.542092 
L 421.005596 -47.438179 
L 421.998302 -47.409537 
L 422.991008 -47.434928 
L 423.983714 -47.479574 
L 424.97642 -47.499749 
L 425.969126 -47.457805 
L 426.961832 -47.338204 
L 427.954538 -47.151149 
L 428.947243 -46.91461 
L 429.939949 -46.669896 
L 430.932655 -46.428366 
L 431.925361 -46.196169 
L 432.918067 -45.983488 
L 433.910773 -45.776103 
L 434.903479 -45.563497 
L 435.896185 -45.350131 
L 436.888891 -45.127247 
L 437.881597 -44.903578 
L 438.874303 -44.672899 
L 439.867009 -44.454905 
L 440.859715 -44.265591 
L 441.85242 -44.129593 
L 442.845126 -44.071038 
L 443.837832 -44.083414 
L 444.830538 -44.151047 
L 445.823244 -44.234003 
L 446.81595 -44.300438 
L 447.808656 -44.301886 
L 448.801362 -44.241367 
L 449.794068 -44.117484 
L 450.786774 -43.943475 
L 451.77948 -43.749778 
L 452.772186 -43.557957 
L 453.764892 -43.378246 
L 454.757597 -43.222343 
L 455.750303 -43.090402 
L 456.743009 -42.988996 
L 457.735715 -42.906846 
L 458.728421 -42.849487 
L 459.721127 -42.807895 
L 460.713833 -42.775858 
L 461.706539 -42.754466 
L 462.699245 -42.747831 
L 463.691951 -42.762367 
L 464.684657 -42.796344 
L 465.677363 -42.849962 
L 466.670069 -42.901022 
L 467.662774 -42.938102 
L 468.65548 -42.949418 
L 469.648186 -42.930696 
L 470.640892 -42.889934 
L 471.633598 -42.836979 
L 472.626304 -42.779581 
L 473.61901 -42.718312 
L 474.611716 -42.650183 
L 475.604422 -42.581109 
L 476.597128 -42.512811 
L 477.589834 -42.455822 
L 478.58254 -42.416252 
L 479.575246 -42.394257 
L 480.567951 -42.385748 
L 481.560657 -42.390322 
L 482.553363 -42.405855 
L 483.546069 -42.425112 
L 484.538775 -42.446709 
L 485.531481 -42.460063 
L 486.524187 -42.453306 
L 487.516893 -42.425045 
L 488.509599 -42.377583 
L 489.502305 -42.32408 
L 490.495011 -42.279246 
L 491.487717 -42.256997 
L 492.480423 -42.257148 
L 493.473129 -42.26867 
L 494.465834 -42.27674 
L 495.45854 -42.266643 
L 496.451246 -42.231777 
L 497.443952 -42.1812 
L 498.436658 -42.123415 
L 499.429364 -42.071353 
L 500.42207 -42.036244 
L 501.414776 -42.015586 
L 502.407482 -42.0056 
L 503.400188 -42.00009 
L 504.392894 -41.996751 
L 505.3856 -41.993885 
L 506.378306 -41.993885 
L 507.371011 -41.994994 
L 508.363717 -41.994095 
L 509.356423 -41.990451 
L 510.349129 -41.987992 
L 511.341835 -41.987136 
L 512.334541 -41.993541 
L 513.327247 -42.012336 
L 514.319953 -42.041665 
L 515.312659 -42.076684 
L 516.305365 -42.109075 
L 517.298071 -42.129643 
L 518.290777 -42.130787 
L 519.283483 -42.112133 
L 520.276188 -42.075917 
L 521.268894 -42.030256 
L 522.2616 -41.984386 
L 523.254306 -41.947263 
L 524.247012 -41.921271 
L 525.239718 -41.907308 
L 526.232424 -41.906035 
L 527.22513 -41.91407 
L 528.217836 -41.927538 
L 529.210542 -41.946192 
L 530.203248 -41.962524 
L 531.195954 -41.972142 
L 532.18866 -41.972142 
L 533.181365 -41.962524 
L 534.174071 -41.946192 
L 535.166777 -41.927538 
L 536.159483 -41.910556 
L 537.152189 -41.89756 
L 538.144895 -41.888998 
L 539.137601 -41.884081 
L 540.130307 -41.881601 
L 541.123013 -41.879844 
L 542.115719 -41.879844 
L 543.108425 -41.879844 
L 544.101131 -41.879844 
L 545.093837 -41.879844 
L 546.086542 -41.879844 
L 547.079248 -41.879844 
L 548.071954 -41.879844 
L 549.06466 -41.879844 
L 550.057366 -41.881601 
L 551.050072 -41.884081 
L 552.042778 -41.888998 
L 553.035484 -41.89756 
L 554.02819 -41.910556 
L 555.020896 -41.927538 
L 556.013602 -41.946192 
L 557.006308 -41.962524 
L 557.999014 -41.972142 
L 558.99172 -41.972142 
L 559.984425 -41.962524 
L 560.977131 -41.946192 
L 561.969837 -41.927538 
L 562.962543 -41.910556 
L 563.955249 -41.89756 
L 564.947955 -41.888998 
L 565.940661 -41.884081 
L 566.933367 -41.881601 
L 567.926073 -41.879844 
L 568.918779 -41.881601 
L 569.911485 -41.885839 
L 570.904191 -41.893236 
L 571.896897 -41.906714 
L 572.889602 -41.928272 
L 573.882308 -41.95825 
L 574.875014 -41.993885 
L 575.86772 -42.028872 
L 576.860426 -42.054822 
L 576.860426 -41.879844 
L 576.860426 -41.879844 
L 575.86772 -41.879844 
L 574.875014 -41.879844 
L 573.882308 -41.879844 
L 572.889602 -41.879844 
L 571.896897 -41.879844 
L 570.904191 -41.879844 
L 569.911485 -41.879844 
L 568.918779 -41.879844 
L 567.926073 -41.879844 
L 566.933367 -41.879844 
L 565.940661 -41.879844 
L 564.947955 -41.879844 
L 563.955249 -41.879844 
L 562.962543 -41.879844 
L 561.969837 -41.879844 
L 560.977131 -41.879844 
L 559.984425 -41.879844 
L 558.99172 -41.879844 
L 557.999014 -41.879844 
L 557.006308 -41.879844 
L 556.013602 -41.879844 
L 555.020896 -41.879844 
L 554.02819 -41.879844 
L 553.035484 -41.879844 
L 552.042778 -41.879844 
L 551.050072 -41.879844 
L 550.057366 -41.879844 
L 549.06466 -41.879844 
L 548.071954 -41.879844 
L 547.079248 -41.879844 
L 546.086542 -41.879844 
L 545.093837 -41.879844 
L 544.101131 -41.879844 
L 543.108425 -41.879844 
L 542.115719 -41.879844 
L 541.123013 -41.879844 
L 540.130307 -41.879844 
L 539.137601 -41.879844 
L 538.144895 -41.879844 
L 537.152189 -41.879844 
L 536.159483 -41.879844 
L 535.166777 -41.879844 
L 534.174071 -41.879844 
L 533.181365 -41.879844 
L 532.18866 -41.879844 
L 531.195954 -41.879844 
L 530.203248 -41.879844 
L 529.210542 -41.879844 
L 528.217836 -41.879844 
L 527.22513 -41.879844 
L 526.232424 -41.879844 
L 525.239718 -41.879844 
L 524.247012 -41.879844 
L 523.254306 -41.879844 
L 522.2616 -41.879844 
L 521.268894 -41.879844 
L 520.276188 -41.879844 
L 519.283483 -41.879844 
L 518.290777 -41.879844 
L 517.298071 -41.879844 
L 516.305365 -41.879844 
L 515.312659 -41.879844 
L 514.319953 -41.879844 
L 513.327247 -41.879844 
L 512.334541 -41.879844 
L 511.341835 -41.879844 
L 510.349129 -41.879844 
L 509.356423 -41.879844 
L 508.363717 -41.879844 
L 507.371011 -41.879844 
L 506.378306 -41.879844 
L 505.3856 -41.879844 
L 504.392894 -41.879844 
L 503.400188 -41.879844 
L 502.407482 -41.879844 
L 501.414776 -41.879844 
L 500.42207 -41.879844 
L 499.429364 -41.879844 
L 498.436658 -41.879844 
L 497.443952 -41.879844 
L 496.451246 -41.879844 
L 495.45854 -41.879844 
L 494.465834 -41.879844 
L 493.473129 -41.879844 
L 492.480423 -41.879844 
L 491.487717 -41.879844 
L 490.495011 -41.879844 
L 489.502305 -41.879844 
L 488.509599 -41.879844 
L 487.516893 -41.879844 
L 486.524187 -41.879844 
L 485.531481 -41.879844 
L 484.538775 -41.879844 
L 483.546069 -41.879844 
L 482.553363 -41.879844 
L 481.560657 -41.879844 
L 480.567951 -41.879844 
L 479.575246 -41.879844 
L 478.58254 -41.879844 
L 477.589834 -41.879844 
L 476.597128 -41.879844 
L 475.604422 -41.879844 
L 474.611716 -41.879844 
L 473.61901 -41.879844 
L 472.626304 -41.879844 
L 471.633598 -41.879844 
L 470.640892 -41.879844 
L 469.648186 -41.879844 
L 468.65548 -41.879844 
L 467.662774 -41.879844 
L 466.670069 -41.879844 
L 465.677363 -41.879844 
L 464.684657 -41.879844 
L 463.691951 -41.879844 
L 462.699245 -41.879844 
L 461.706539 -41.879844 
L 460.713833 -41.879844 
L 459.721127 -41.879844 
L 458.728421 -41.879844 
L 457.735715 -41.879844 
L 456.743009 -41.879844 
L 455.750303 -41.879844 
L 454.757597 -41.879844 
L 453.764892 -41.879844 
L 452.772186 -41.879844 
L 451.77948 -41.879844 
L 450.786774 -41.879844 
L 449.794068 -41.879844 
L 448.801362 -41.879844 
L 447.808656 -41.879844 
L 446.81595 -41.879844 
L 445.823244 -41.879844 
L 444.830538 -41.879844 
L 443.837832 -41.879844 
L 442.845126 -41.879844 
L 441.85242 -41.879844 
L 440.859715 -41.879844 
L 439.867009 -41.879844 
L 438.874303 -41.879844 
L 437.881597 -41.879844 
L 436.888891 -41.879844 
L 435.896185 -41.879844 
L 434.903479 -41.879844 
L 433.910773 -41.879844 
L 432.918067 -41.879844 
L 431.925361 -41.879844 
L 430.932655 -41.879844 
L 429.939949 -41.879844 
L 428.947243 -41.879844 
L 427.954538 -41.879844 
L 426.961832 -41.879844 
L 425.969126 -41.879844 
L 424.97642 -41.879844 
L 423.983714 -41.879844 
L 422.991008 -41.879844 
L 421.998302 -41.879844 
L 421.005596 -41.879844 
L 420.01289 -41.879844 
L 419.020184 -41.879844 
L 418.027478 -41.879844 
L 417.034772 -41.879844 
L 416.042066 -41.879844 
L 415.04936 -41.879844 
L 414.056655 -41.879844 
L 413.063949 -41.879844 
L 412.071243 -41.879844 
L 411.078537 -41.879844 
L 410.085831 -41.879844 
L 409.093125 -41.879844 
L 408.100419 -41.879844 
L 407.107713 -41.879844 
L 406.115007 -41.879844 
L 405.122301 -41.879844 
L 404.129595 -41.879844 
L 403.136889 -41.879844 
L 402.144183 -41.879844 
L 401.151478 -41.879844 
L 400.158772 -41.879844 
L 399.166066 -41.879844 
L 398.17336 -41.879844 
L 397.180654 -41.879844 
L 396.187948 -41.879844 
L 395.195242 -41.879844 
L 394.202536 -41.879844 
L 393.20983 -41.879844 
L 392.217124 -41.879844 
L 391.224418 -41.879844 
L 390.231712 -41.879844 
L 389.239006 -41.879844 
L 388.246301 -41.879844 
L 387.253595 -41.879844 
L 386.260889 -41.879844 
L 385.268183 -41.879844 
L 384.275477 -41.879844 
L 383.282771 -41.879844 
L 382.290065 -41.879844 
L 381.297359 -41.879844 
L 380.304653 -41.879844 
L 379.311947 -41.879844 
L 378.319241 -41.879844 
L 377.326535 -41.879844 
L 376.333829 -41.879844 
L 375.341124 -41.879844 
L 374.348418 -41.879844 
L 373.355712 -41.879844 
L 372.363006 -41.879844 
L 371.3703 -41.879844 
L 370.377594 -41.879844 
L 369.384888 -41.879844 
L 368.392182 -41.879844 
L 367.399476 -41.879844 
L 366.40677 -41.879844 
L 365.414064 -41.879844 
L 364.421358 -41.879844 
L 363.428652 -41.879844 
L 362.435947 -41.879844 
L 361.443241 -41.879844 
L 360.450535 -41.879844 
L 359.457829 -41.879844 
L 358.465123 -41.879844 
L 357.472417 -41.879844 
L 356.479711 -41.879844 
L 355.487005 -41.879844 
L 354.494299 -41.879844 
L 353.501593 -41.879844 
L 352.508887 -41.879844 
L 351.516181 -41.879844 
L 350.523475 -41.879844 
L 349.530769 -41.879844 
L 348.538064 -41.879844 
L 347.545358 -41.879844 
L 346.552652 -41.879844 
L 345.559946 -41.879844 
L 344.56724 -41.879844 
L 343.574534 -41.879844 
L 342.581828 -41.879844 
L 341.589122 -41.879844 
L 340.596416 -41.879844 
L 339.60371 -41.879844 
L 338.611004 -41.879844 
L 337.618298 -41.879844 
L 336.625592 -41.879844 
L 335.632887 -41.879844 
L 334.640181 -41.879844 
L 333.647475 -41.879844 
L 332.654769 -41.879844 
L 331.662063 -41.879844 
L 330.669357 -41.879844 
L 329.676651 -41.879844 
L 328.683945 -41.879844 
L 327.691239 -41.879844 
L 326.698533 -41.879844 
L 325.705827 -41.879844 
L 324.713121 -41.879844 
L 323.720415 -41.879844 
L 322.72771 -41.879844 
L 321.735004 -41.879844 
L 320.742298 -41.879844 
L 319.749592 -41.879844 
L 318.756886 -41.879844 
L 317.76418 -41.879844 
L 316.771474 -41.879844 
L 315.778768 -41.879844 
L 314.786062 -41.879844 
L 313.793356 -41.879844 
L 312.80065 -41.879844 
L 311.807944 -41.879844 
L 310.815238 -41.879844 
L 309.822533 -41.879844 
L 308.829827 -41.879844 
L 307.837121 -41.879844 
L 306.844415 -41.879844 
L 305.851709 -41.879844 
L 304.859003 -41.879844 
L 303.866297 -41.879844 
L 302.873591 -41.879844 
L 301.880885 -41.879844 
L 300.888179 -41.879844 
L 299.895473 -41.879844 
L 298.902767 -41.879844 
L 297.910061 -41.879844 
L 296.917356 -41.879844 
L 295.92465 -41.879844 
L 294.931944 -41.879844 
L 293.939238 -41.879844 
L 292.946532 -41.879844 
L 291.953826 -41.879844 
L 290.96112 -41.879844 
L 289.968414 -41.879844 
L 288.975708 -41.879844 
L 287.983002 -41.879844 
L 286.990296 -41.879844 
L 285.99759 -41.879844 
L 285.004884 -41.879844 
L 284.012178 -41.879844 
L 283.019473 -41.879844 
L 282.026767 -41.879844 
L 281.034061 -41.879844 
L 280.041355 -41.879844 
L 279.048649 -41.879844 
L 278.055943 -41.879844 
L 277.063237 -41.879844 
L 276.070531 -41.879844 
L 275.077825 -41.879844 
L 274.085119 -41.879844 
L 273.092413 -41.879844 
L 272.099707 -41.879844 
L 271.107001 -41.879844 
L 270.114296 -41.879844 
L 269.12159 -41.879844 
L 268.128884 -41.879844 
L 267.136178 -41.879844 
L 266.143472 -41.879844 
L 265.150766 -41.879844 
L 264.15806 -41.879844 
L 263.165354 -41.879844 
L 262.172648 -41.879844 
L 261.179942 -41.879844 
L 260.187236 -41.879844 
L 259.19453 -41.879844 
L 258.201824 -41.879844 
L 257.209119 -41.879844 
L 256.216413 -41.879844 
L 255.223707 -41.879844 
L 254.231001 -41.879844 
L 253.238295 -41.879844 
L 252.245589 -41.879844 
L 251.252883 -41.879844 
L 250.260177 -41.879844 
L 249.267471 -41.879844 
L 248.274765 -41.879844 
L 247.282059 -41.879844 
L 246.289353 -41.879844 
L 245.296647 -41.879844 
L 244.303942 -41.879844 
L 243.311236 -41.879844 
L 242.31853 -41.879844 
L 241.325824 -41.879844 
L 240.333118 -41.879844 
L 239.340412 -41.879844 
L 238.347706 -41.879844 
L 237.355 -41.879844 
L 236.362294 -41.879844 
L 235.369588 -41.879844 
L 234.376882 -41.879844 
L 233.384176 -41.879844 
L 232.39147 -41.879844 
L 231.398765 -41.879844 
L 230.406059 -41.879844 
L 229.413353 -41.879844 
L 228.420647 -41.879844 
L 227.427941 -41.879844 
L 226.435235 -41.879844 
L 225.442529 -41.879844 
L 224.449823 -41.879844 
L 223.457117 -41.879844 
L 222.464411 -41.879844 
L 221.471705 -41.879844 
L 220.478999 -41.879844 
L 219.486293 -41.879844 
L 218.493587 -41.879844 
L 217.500882 -41.879844 
L 216.508176 -41.879844 
L 215.51547 -41.879844 
L 214.522764 -41.879844 
L 213.530058 -41.879844 
L 212.537352 -41.879844 
L 211.544646 -41.879844 
L 210.55194 -41.879844 
L 209.559234 -41.879844 
L 208.566528 -41.879844 
L 207.573822 -41.879844 
L 206.581116 -41.879844 
L 205.58841 -41.879844 
L 204.595705 -41.879844 
L 203.602999 -41.879844 
L 202.610293 -41.879844 
L 201.617587 -41.879844 
L 200.624881 -41.879844 
L 199.632175 -41.879844 
L 198.639469 -41.879844 
L 197.646763 -41.879844 
L 196.654057 -41.879844 
L 195.661351 -41.879844 
L 194.668645 -41.879844 
L 193.675939 -41.879844 
L 192.683233 -41.879844 
L 191.690528 -41.879844 
L 190.697822 -41.879844 
L 189.705116 -41.879844 
L 188.71241 -41.879844 
L 187.719704 -41.879844 
L 186.726998 -41.879844 
L 185.734292 -41.879844 
L 184.741586 -41.879844 
L 183.74888 -41.879844 
L 182.756174 -41.879844 
L 181.763468 -41.879844 
L 180.770762 -41.879844 
L 179.778056 -41.879844 
L 178.785351 -41.879844 
L 177.792645 -41.879844 
L 176.799939 -41.879844 
L 175.807233 -41.879844 
L 174.814527 -41.879844 
L 173.821821 -41.879844 
L 172.829115 -41.879844 
L 171.836409 -41.879844 
L 170.843703 -41.879844 
L 169.850997 -41.879844 
L 168.858291 -41.879844 
L 167.865585 -41.879844 
L 166.872879 -41.879844 
L 165.880174 -41.879844 
L 164.887468 -41.879844 
L 163.894762 -41.879844 
L 162.902056 -41.879844 
L 161.90935 -41.879844 
L 160.916644 -41.879844 
L 159.923938 -41.879844 
L 158.931232 -41.879844 
L 157.938526 -41.879844 
L 156.94582 -41.879844 
L 155.953114 -41.879844 
L 154.960408 -41.879844 
L 153.967702 -41.879844 
L 152.974996 -41.879844 
L 151.982291 -41.879844 
L 150.989585 -41.879844 
L 149.996879 -41.879844 
L 149.004173 -41.879844 
L 148.011467 -41.879844 
L 147.018761 -41.879844 
L 146.026055 -41.879844 
L 145.033349 -41.879844 
L 144.040643 -41.879844 
L 143.047937 -41.879844 
L 142.055231 -41.879844 
L 141.062525 -41.879844 
L 140.069819 -41.879844 
L 139.077114 -41.879844 
L 138.084408 -41.879844 
L 137.091702 -41.879844 
L 136.098996 -41.879844 
L 135.10629 -41.879844 
L 134.113584 -41.879844 
L 133.120878 -41.879844 
L 132.128172 -41.879844 
L 131.135466 -41.879844 
L 130.14276 -41.879844 
L 129.150054 -41.879844 
L 128.157348 -41.879844 
L 127.164642 -41.879844 
L 126.171937 -41.879844 
L 125.179231 -41.879844 
L 124.186525 -41.879844 
L 123.193819 -41.879844 
L 122.201113 -41.879844 
L 121.208407 -41.879844 
L 120.215701 -41.879844 
L 119.222995 -41.879844 
L 118.230289 -41.879844 
L 117.237583 -41.879844 
L 116.244877 -41.879844 
L 115.252171 -41.879844 
L 114.259465 -41.879844 
L 113.26676 -41.879844 
L 112.274054 -41.879844 
L 111.281348 -41.879844 
L 110.288642 -41.879844 
L 109.295936 -41.879844 
L 108.30323 -41.879844 
L 107.310524 -41.879844 
L 106.317818 -41.879844 
L 105.325112 -41.879844 
L 104.332406 -41.879844 
L 103.3397 -41.879844 
L 102.346994 -41.879844 
L 101.354288 -41.879844 
L 100.361583 -41.879844 
L 99.368877 -41.879844 
L 98.376171 -41.879844 
L 97.383465 -41.879844 
L 96.390759 -41.879844 
L 95.398053 -41.879844 
L 94.405347 -41.879844 
L 93.412641 -41.879844 
L 92.419935 -41.879844 
L 91.427229 -41.879844 
L 90.434523 -41.879844 
L 89.441817 -41.879844 
L 88.449111 -41.879844 
L 87.456405 -41.879844 
L 86.4637 -41.879844 
L 85.470994 -41.879844 
L 84.478288 -41.879844 
L 83.485582 -41.879844 
L 82.492876 -41.879844 
L 81.50017 -41.879844 
L 80.507464 -41.879844 
L 79.514758 -41.879844 
L 78.522052 -41.879844 
L 77.529346 -41.879844 
L 76.53664 -41.879844 
L 75.543934 -41.879844 
L 74.551228 -41.879844 
L 73.558523 -41.879844 
L 72.565817 -41.879844 
L 71.573111 -41.879844 
L 70.580405 -41.879844 
L 69.587699 -41.879844 
z
" style="stroke: #0173b2; stroke-opacity: 0"/>
    </defs>
    <g clip-path="url(#pcb2a424eb7)">
     <use xlink:href="#m678c362382" x="0" y="366.599844" style="fill: #0173b2; fill-opacity: 0; stroke: #0173b2; stroke-opacity: 0"/>
    </g>
   </g>
   <g id="line2d_13">
    <path d="M 69.587699 324.535404 
L 99.368877 324.718243 
L 106.317818 324.600347 
L 110.288642 324.298551 
L 115.252171 323.781548 
L 121.208407 323.496909 
L 123.193819 323.198811 
L 127.164642 322.272956 
L 131.135466 321.267799 
L 133.120878 320.430268 
L 135.10629 319.094335 
L 137.091702 317.35951 
L 139.077114 315.310542 
L 141.062525 312.881466 
L 144.040643 308.806548 
L 146.026055 305.861734 
L 148.011467 302.475268 
L 152.974996 293.590225 
L 153.967702 292.063614 
L 154.960408 290.752304 
L 155.953114 289.694228 
L 156.94582 288.884575 
L 158.931232 287.794126 
L 161.90935 286.587415 
L 164.887468 285.476026 
L 165.880174 284.90668 
L 166.872879 284.132094 
L 167.865585 283.127548 
L 171.836409 278.432504 
L 174.814527 275.727801 
L 175.807233 274.432824 
L 176.799939 272.436792 
L 177.792645 269.427733 
L 178.785351 265.258518 
L 179.778056 259.944892 
L 182.756174 242.6051 
L 183.74888 238.888712 
L 184.741586 236.927376 
L 185.734292 236.374091 
L 187.719704 236.481974 
L 188.71241 236.383241 
L 189.705116 236.68473 
L 190.697822 238.221006 
L 191.690528 241.52238 
L 192.683233 246.393644 
L 194.668645 256.730591 
L 195.661351 260.094136 
L 196.654057 261.625507 
L 197.646763 261.557932 
L 198.639469 260.34033 
L 199.632175 258.550684 
L 200.624881 256.501621 
L 206.581116 241.562337 
L 207.573822 239.601851 
L 208.566528 237.976983 
L 210.55194 235.195517 
L 211.544646 233.303289 
L 212.537352 230.592361 
L 213.530058 226.95241 
L 215.51547 218.627381 
L 216.508176 215.229209 
L 217.500882 213.070654 
L 218.493587 212.284096 
L 219.486293 212.602715 
L 220.478999 213.624089 
L 224.449823 219.074147 
L 225.442529 219.808083 
L 226.435235 219.885478 
L 227.427941 219.179099 
L 228.420647 217.838825 
L 230.406059 214.371293 
L 231.398765 212.886751 
L 232.39147 211.787015 
L 233.384176 211.066172 
L 235.369588 210.013118 
L 236.362294 209.252944 
L 237.355 208.076715 
L 238.347706 206.302988 
L 239.340412 203.819888 
L 240.333118 200.645794 
L 242.31853 192.745996 
L 244.303942 184.393745 
L 246.289353 176.438738 
L 247.282059 171.491287 
L 248.274765 165.317537 
L 249.267471 157.632309 
L 252.245589 130.378627 
L 253.238295 123.231888 
L 254.231001 118.493567 
L 255.223707 116.159551 
L 256.216413 115.623905 
L 258.201824 116.288535 
L 259.19453 116.15288 
L 261.179942 114.913195 
L 262.172648 114.583974 
L 263.165354 114.60891 
L 264.15806 115.025434 
L 265.150766 115.294332 
L 266.143472 114.818628 
L 267.136178 113.584526 
L 268.128884 111.436021 
L 269.12159 108.626576 
L 271.107001 102.160375 
L 273.092413 95.048188 
L 274.085119 90.759868 
L 275.077825 84.969978 
L 276.070531 77.115305 
L 277.063237 67.01697 
L 280.041355 32.944161 
L 281.034061 25.626295 
L 282.026767 22.32 
L 283.019473 22.966222 
L 284.012178 26.917033 
L 285.004884 33.296244 
L 285.99759 41.574028 
L 286.990296 51.35574 
L 288.975708 74.476155 
L 290.96112 98.104635 
L 291.953826 107.329931 
L 292.946532 113.590164 
L 293.939238 116.33733 
L 294.931944 115.748227 
L 295.92465 112.235476 
L 296.917356 106.584315 
L 300.888179 79.011467 
L 301.880885 75.580807 
L 302.873591 75.236937 
L 303.866297 78.316577 
L 304.859003 84.651756 
L 305.851709 93.541781 
L 308.829827 124.783452 
L 309.822533 133.521111 
L 310.815238 140.499442 
L 311.807944 145.751238 
L 312.80065 149.709881 
L 314.786062 156.566252 
L 315.778768 160.555384 
L 318.756886 173.726299 
L 319.749592 176.854453 
L 320.742298 179.026151 
L 321.735004 180.701156 
L 322.72771 182.64437 
L 323.720415 185.596082 
L 324.713121 189.962586 
L 326.698533 201.501843 
L 327.691239 207.168889 
L 328.683945 211.757346 
L 329.676651 214.843439 
L 330.669357 216.434391 
L 331.662063 216.816684 
L 332.654769 216.392063 
L 333.647475 215.45394 
L 335.632887 212.968902 
L 337.618298 210.21256 
L 339.60371 207.004016 
L 340.596416 205.328921 
L 341.589122 203.907921 
L 342.581828 203.051526 
L 343.574534 203.187815 
L 344.56724 204.575432 
L 345.559946 207.301653 
L 346.552652 211.267631 
L 347.545358 216.231732 
L 349.530769 228.022032 
L 353.501593 253.378032 
L 354.494299 258.595076 
L 355.487005 262.916704 
L 356.479711 266.154744 
L 357.472417 268.366118 
L 358.465123 269.819351 
L 360.450535 271.593155 
L 361.443241 272.477505 
L 364.421358 275.760782 
L 365.414064 276.567908 
L 366.40677 277.011047 
L 367.399476 277.058873 
L 368.392182 276.811377 
L 370.377594 275.849946 
L 372.363006 274.60218 
L 374.348418 272.780658 
L 376.333829 270.7593 
L 377.326535 270.036229 
L 378.319241 269.658004 
L 379.311947 269.684038 
L 380.304653 270.126893 
L 381.297359 270.95101 
L 382.290065 272.145211 
L 383.282771 273.688972 
L 384.275477 275.546332 
L 386.260889 280.090414 
L 388.246301 285.578498 
L 391.224418 295.130752 
L 393.20983 301.157269 
L 394.202536 303.746043 
L 395.195242 306.007751 
L 396.187948 307.949621 
L 397.180654 309.585218 
L 398.17336 310.934239 
L 399.166066 312.008549 
L 400.158772 312.833784 
L 401.151478 313.436713 
L 402.144183 313.86133 
L 404.129595 314.319573 
L 406.115007 314.63819 
L 408.100419 315.255398 
L 413.063949 317.511487 
L 415.04936 318.037127 
L 421.005596 319.161665 
L 422.991008 319.164916 
L 425.969126 319.142039 
L 427.954538 319.448695 
L 436.888891 321.472597 
L 440.859715 322.334253 
L 442.845126 322.528806 
L 444.830538 322.448797 
L 447.808656 322.297958 
L 449.794068 322.48236 
L 456.743009 323.610848 
L 459.721127 323.791949 
L 463.691951 323.837477 
L 470.640892 323.70991 
L 481.560657 324.209522 
L 487.516893 324.174798 
L 492.480423 324.342696 
L 496.451246 324.368067 
L 502.407482 324.594244 
L 514.319953 324.558179 
L 519.283483 324.487711 
L 527.22513 324.685774 
L 535.166777 324.672306 
L 544.101131 324.72 
L 573.882308 324.641594 
L 576.860426 324.545022 
L 576.860426 324.545022 
" clip-path="url(#pcb2a424eb7)" style="fill: none; stroke: #0173b2; stroke-width: 1.5; stroke-linecap: round"/>
   </g>
   <g id="patch_3">
    <path d="M 44.224063 339.84 
L 44.224063 7.2 
" style="fill: none; stroke: #ffffff; stroke-width: 1.25; stroke-linejoin: miter; stroke-linecap: square"/>
   </g>
   <g id="patch_4">
    <path d="M 602.224062 339.84 
L 602.224062 7.2 
" style="fill: none; stroke: #ffffff; stroke-width: 1.25; stroke-linejoin: miter; stroke-linecap: square"/>
   </g>
   <g id="patch_5">
    <path d="M 44.224063 339.84 
L 602.224063 339.84 
" style="fill: none; stroke: #ffffff; stroke-width: 1.25; stroke-linejoin: miter; stroke-linecap: square"/>
   </g>
   <g id="patch_6">
    <path d="M 44.224063 7.2 
L 602.224063 7.2 
" style="fill: none; stroke: #ffffff; stroke-width: 1.25; stroke-linejoin: miter; stroke-linecap: square"/>
   </g>
  </g>
 </g>
 <defs>
  <clipPath id="pcb2a424eb7">
   <rect x="44.224063" y="7.2" width="558" height="332.64"/>
  </clipPath>
 </defs>
</svg>