<?xml version="1.0" encoding="utf-8" standalone="no"?>
<!DOCTYPE svg PUBLIC "-//W3C//DTD SVG 1.1//EN"
  "http://www.w3.org/Graphics/SVG/1.1/DTD/svg11.dtd">
<svg xmlns:xlink="http://www.w3.org/1999/xlink" width="594.441719pt" height="366.599844pt" viewBox="0 0 594.441719 366.599844" xmlns="http://www.w3.org/2000/svg" version="1.1">
 <metadata>
  <rdf:RDF xmlns:dc="http://purl.org/dc/elements/1.1/" xmlns:cc="http://creativecommons.org/ns#" xmlns:rdf="http://www.w3.org/1999/02/22-rdf-syntax-ns#">
   <cc:Work>
    <dc:type rdf:resource="http://purl.org/dc/dcmitype/StillImage"/>
    <dc:date>2023-05-28T12:23:55.200562</dc:date>
    <dc:format>image/svg+xml</dc:format>
    <dc:creator>
     <cc:Agent>
      <dc:title>Matplotlib v3.7.1, https://matplotlib.org/</dc:title>
     </cc:Agent>
    </dc:creator>
   </cc:Work>
  </rdf:RDF>
 </metadata>
 <defs>
  <style type="text/css">*{stroke-linejoin: round; stroke-linecap: butt}</style>
 </defs>
 <g id="figure_1">
  <g id="patch_1">
   <path d="M 0 366.599844 
L 594.441719 366.599844 
L 594.441719 0 
L 0 0 
z
" style="fill: #ffffff"/>
  </g>
  <g id="axes_1">
   <g id="patch_2">
    <path d="M 29.241719 339.84 
L 587.241719 339.84 
L 587.241719 7.2 
L 29.241719 7.2 
z
" style="fill: #eaeaf2"/>
   </g>
   <g id="matplotlib.axis_1">
    <g id="xtick_1">
     <g id="line2d_1">
      <path d="M 81.593909 339.84 
L 81.593909 7.2 
" clip-path="url(#p0df0c13bdb)" style="fill: none; stroke: #ffffff; stroke-linecap: round"/>
     </g>
     <g id="text_1">
      <!-- −1.5 -->
      <g style="fill: #262626" transform="translate(70.736565 357.213594) scale(0.11 -0.11)">
       <defs>
        <path id="ArialMT-2212" d="M 3381 1997 
L 356 1997 
L 356 2522 
L 3381 2522 
L 3381 1997 
z
" transform="scale(0.015625)"/>
        <path id="ArialMT-31" d="M 2384 0 
L 1822 0 
L 1822 3584 
Q 1619 3391 1289 3197 
Q 959 3003 697 2906 
L 697 3450 
Q 1169 3672 1522 3987 
Q 1875 4303 2022 4600 
L 2384 4600 
L 2384 0 
z
" transform="scale(0.015625)"/>
        <path id="ArialMT-2e" d="M 581 0 
L 581 641 
L 1222 641 
L 1222 0 
L 581 0 
z
" transform="scale(0.015625)"/>
        <path id="ArialMT-35" d="M 266 1200 
L 856 1250 
Q 922 819 1161 601 
Q 1400 384 1738 384 
Q 2144 384 2425 690 
Q 2706 997 2706 1503 
Q 2706 1984 2436 2262 
Q 2166 2541 1728 2541 
Q 1456 2541 1237 2417 
Q 1019 2294 894 2097 
L 366 2166 
L 809 4519 
L 3088 4519 
L 3088 3981 
L 1259 3981 
L 1013 2750 
Q 1425 3038 1878 3038 
Q 2478 3038 2890 2622 
Q 3303 2206 3303 1553 
Q 3303 931 2941 478 
Q 2500 -78 1738 -78 
Q 1113 -78 717 272 
Q 322 622 266 1200 
z
" transform="scale(0.015625)"/>
       </defs>
       <use xlink:href="#ArialMT-2212"/>
       <use xlink:href="#ArialMT-31" x="58.398438"/>
       <use xlink:href="#ArialMT-2e" x="114.013672"/>
       <use xlink:href="#ArialMT-35" x="141.796875"/>
      </g>
     </g>
    </g>
    <g id="xtick_2">
     <g id="line2d_2">
      <path d="M 155.962961 339.84 
L 155.962961 7.2 
" clip-path="url(#p0df0c13bdb)" style="fill: none; stroke: #ffffff; stroke-linecap: round"/>
     </g>
     <g id="text_2">
      <!-- −1.0 -->
      <g style="fill: #262626" transform="translate(145.105617 357.213594) scale(0.11 -0.11)">
       <defs>
        <path id="ArialMT-30" d="M 266 2259 
Q 266 3072 433 3567 
Q 600 4063 929 4331 
Q 1259 4600 1759 4600 
Q 2128 4600 2406 4451 
Q 2684 4303 2865 4023 
Q 3047 3744 3150 3342 
Q 3253 2941 3253 2259 
Q 3253 1453 3087 958 
Q 2922 463 2592 192 
Q 2263 -78 1759 -78 
Q 1097 -78 719 397 
Q 266 969 266 2259 
z
M 844 2259 
Q 844 1131 1108 757 
Q 1372 384 1759 384 
Q 2147 384 2411 759 
Q 2675 1134 2675 2259 
Q 2675 3391 2411 3762 
Q 2147 4134 1753 4134 
Q 1366 4134 1134 3806 
Q 844 3388 844 2259 
z
" transform="scale(0.015625)"/>
       </defs>
       <use xlink:href="#ArialMT-2212"/>
       <use xlink:href="#ArialMT-31" x="58.398438"/>
       <use xlink:href="#ArialMT-2e" x="114.013672"/>
       <use xlink:href="#ArialMT-30" x="141.796875"/>
      </g>
     </g>
    </g>
    <g id="xtick_3">
     <g id="line2d_3">
      <path d="M 230.332013 339.84 
L 230.332013 7.2 
" clip-path="url(#p0df0c13bdb)" style="fill: none; stroke: #ffffff; stroke-linecap: round"/>
     </g>
     <g id="text_3">
      <!-- −0.5 -->
      <g style="fill: #262626" transform="translate(219.474669 357.213594) scale(0.11 -0.11)">
       <use xlink:href="#ArialMT-2212"/>
       <use xlink:href="#ArialMT-30" x="58.398438"/>
       <use xlink:href="#ArialMT-2e" x="114.013672"/>
       <use xlink:href="#ArialMT-35" x="141.796875"/>
      </g>
     </g>
    </g>
    <g id="xtick_4">
     <g id="line2d_4">
      <path d="M 304.701065 339.84 
L 304.701065 7.2 
" clip-path="url(#p0df0c13bdb)" style="fill: none; stroke: #ffffff; stroke-linecap: round"/>
     </g>
     <g id="text_4">
      <!-- 0.0 -->
      <g style="fill: #262626" transform="translate(297.056065 357.213594) scale(0.11 -0.11)">
       <use xlink:href="#ArialMT-30"/>
       <use xlink:href="#ArialMT-2e" x="55.615234"/>
       <use xlink:href="#ArialMT-30" x="83.398438"/>
      </g>
     </g>
    </g>
    <g id="xtick_5">
     <g id="line2d_5">
      <path d="M 379.070117 339.84 
L 379.070117 7.2 
" clip-path="url(#p0df0c13bdb)" style="fill: none; stroke: #ffffff; stroke-linecap: round"/>
     </g>
     <g id="text_5">
      <!-- 0.5 -->
      <g style="fill: #262626" transform="translate(371.425117 357.213594) scale(0.11 -0.11)">
       <use xlink:href="#ArialMT-30"/>
       <use xlink:href="#ArialMT-2e" x="55.615234"/>
       <use xlink:href="#ArialMT-35" x="83.398438"/>
      </g>
     </g>
    </g>
    <g id="xtick_6">
     <g id="line2d_6">
      <path d="M 453.43917 339.84 
L 453.43917 7.2 
" clip-path="url(#p0df0c13bdb)" style="fill: none; stroke: #ffffff; stroke-linecap: round"/>
     </g>
     <g id="text_6">
      <!-- 1.0 -->
      <g style="fill: #262626" transform="translate(445.79417 357.213594) scale(0.11 -0.11)">
       <use xlink:href="#ArialMT-31"/>
       <use xlink:href="#ArialMT-2e" x="55.615234"/>
       <use xlink:href="#ArialMT-30" x="83.398438"/>
      </g>
     </g>
    </g>
    <g id="xtick_7">
     <g id="line2d_7">
      <path d="M 527.808222 339.84 
L 527.808222 7.2 
" clip-path="url(#p0df0c13bdb)" style="fill: none; stroke: #ffffff; stroke-linecap: round"/>
     </g>
     <g id="text_7">
      <!-- 1.5 -->
      <g style="fill: #262626" transform="translate(520.163222 357.213594) scale(0.11 -0.11)">
       <use xlink:href="#ArialMT-31"/>
       <use xlink:href="#ArialMT-2e" x="55.615234"/>
       <use xlink:href="#ArialMT-35" x="83.398438"/>
      </g>
     </g>
    </g>
   </g>
   <g id="matplotlib.axis_2">
    <g id="ytick_1">
     <g id="line2d_8">
      <path d="M 29.241719 320.43799 
L 587.241719 320.43799 
" clip-path="url(#p0df0c13bdb)" style="fill: none; stroke: #ffffff; stroke-linecap: round"/>
     </g>
     <g id="text_8">
      <!-- −3 -->
      <g style="fill: #262626" transform="translate(7.2 324.374787) scale(0.11 -0.11)">
       <defs>
        <path id="ArialMT-33" d="M 269 1209 
L 831 1284 
Q 928 806 1161 595 
Q 1394 384 1728 384 
Q 2125 384 2398 659 
Q 2672 934 2672 1341 
Q 2672 1728 2419 1979 
Q 2166 2231 1775 2231 
Q 1616 2231 1378 2169 
L 1441 2663 
Q 1497 2656 1531 2656 
Q 1891 2656 2178 2843 
Q 2466 3031 2466 3422 
Q 2466 3731 2256 3934 
Q 2047 4138 1716 4138 
Q 1388 4138 1169 3931 
Q 950 3725 888 3313 
L 325 3413 
Q 428 3978 793 4289 
Q 1159 4600 1703 4600 
Q 2078 4600 2393 4439 
Q 2709 4278 2876 4000 
Q 3044 3722 3044 3409 
Q 3044 3113 2884 2869 
Q 2725 2625 2413 2481 
Q 2819 2388 3044 2092 
Q 3269 1797 3269 1353 
Q 3269 753 2831 336 
Q 2394 -81 1725 -81 
Q 1122 -81 723 278 
Q 325 638 269 1209 
z
" transform="scale(0.015625)"/>
       </defs>
       <use xlink:href="#ArialMT-2212"/>
       <use xlink:href="#ArialMT-33" x="58.398438"/>
      </g>
     </g>
    </g>
    <g id="ytick_2">
     <g id="line2d_9">
      <path d="M 29.241719 256.81578 
L 587.241719 256.81578 
" clip-path="url(#p0df0c13bdb)" style="fill: none; stroke: #ffffff; stroke-linecap: round"/>
     </g>
     <g id="text_9">
      <!-- −2 -->
      <g style="fill: #262626" transform="translate(7.2 260.752577) scale(0.11 -0.11)">
       <defs>
        <path id="ArialMT-32" d="M 3222 541 
L 3222 0 
L 194 0 
Q 188 203 259 391 
Q 375 700 629 1000 
Q 884 1300 1366 1694 
Q 2113 2306 2375 2664 
Q 2638 3022 2638 3341 
Q 2638 3675 2398 3904 
Q 2159 4134 1775 4134 
Q 1369 4134 1125 3890 
Q 881 3647 878 3216 
L 300 3275 
Q 359 3922 746 4261 
Q 1134 4600 1788 4600 
Q 2447 4600 2831 4234 
Q 3216 3869 3216 3328 
Q 3216 3053 3103 2787 
Q 2991 2522 2730 2228 
Q 2469 1934 1863 1422 
Q 1356 997 1212 845 
Q 1069 694 975 541 
L 3222 541 
z
" transform="scale(0.015625)"/>
       </defs>
       <use xlink:href="#ArialMT-2212"/>
       <use xlink:href="#ArialMT-32" x="58.398438"/>
      </g>
     </g>
    </g>
    <g id="ytick_3">
     <g id="line2d_10">
      <path d="M 29.241719 193.19357 
L 587.241719 193.19357 
" clip-path="url(#p0df0c13bdb)" style="fill: none; stroke: #ffffff; stroke-linecap: round"/>
     </g>
     <g id="text_10">
      <!-- −1 -->
      <g style="fill: #262626" transform="translate(7.2 197.130367) scale(0.11 -0.11)">
       <use xlink:href="#ArialMT-2212"/>
       <use xlink:href="#ArialMT-31" x="58.398438"/>
      </g>
     </g>
    </g>
    <g id="ytick_4">
     <g id="line2d_11">
      <path d="M 29.241719 129.57136 
L 587.241719 129.57136 
" clip-path="url(#p0df0c13bdb)" style="fill: none; stroke: #ffffff; stroke-linecap: round"/>
     </g>
     <g id="text_11">
      <!-- 0 -->
      <g style="fill: #262626" transform="translate(13.624688 133.508156) scale(0.11 -0.11)">
       <use xlink:href="#ArialMT-30"/>
      </g>
     </g>
    </g>
    <g id="ytick_5">
     <g id="line2d_12">
      <path d="M 29.241719 65.949149 
L 587.241719 65.949149 
" clip-path="url(#p0df0c13bdb)" style="fill: none; stroke: #ffffff; stroke-linecap: round"/>
     </g>
     <g id="text_12">
      <!-- 1 -->
      <g style="fill: #262626" transform="translate(13.624688 69.885946) scale(0.11 -0.11)">
       <use xlink:href="#ArialMT-31"/>
      </g>
     </g>
    </g>
   </g>
   <g id="line2d_13">
    <path d="M 54.605355 302.862136 
L 60.49785 289.389804 
L 67.034044 274.449852 
L 71.113744 265.104056 
L 74.814123 256.607056 
L 82.802465 238.218409 
L 88.458837 225.23797 
L 90.202672 221.265597 
L 100.536507 198.946873 
L 104.894524 189.807199 
L 106.688995 185.916932 
L 106.704476 185.882917 
L 115.179487 168.025596 
L 118.037545 162.126149 
L 120.107231 158.0246 
L 126.663683 145.94787 
L 130.050389 140.093802 
L 131.073845 138.397701 
L 134.926431 131.346533 
L 138.786901 124.547131 
L 146.322027 113.247057 
L 148.789641 110.186726 
L 148.917304 109.99267 
L 155.548555 101.434557 
L 156.799972 100.545441 
L 157.821575 99.900969 
L 159.040444 99.175905 
L 163.025545 96.809303 
L 168.898919 93.031172 
L 177.260339 87.878554 
L 182.625219 84.067223 
L 189.713375 78.794899 
L 191.646291 77.556889 
L 207.979612 67.064997 
L 220.412498 59.680763 
L 226.67249 57.068439 
L 232.144845 55.05089 
L 235.685421 54.388304 
L 246.130293 50.778813 
L 256.953161 50.695259 
L 269.255357 50.068837 
L 279.999693 50.807268 
L 285.056819 52.367508 
L 293.484112 55.929674 
L 296.017634 57.118017 
L 302.087091 60.207899 
L 302.707862 60.548956 
L 310.164222 64.650494 
L 312.923644 66.131002 
L 326.692846 74.936841 
L 331.124746 76.439403 
L 331.771757 76.666516 
L 331.845371 76.708398 
L 335.366967 78.087701 
L 336.622571 78.530725 
L 340.12093 79.576079 
L 340.706443 79.795738 
L 344.185691 81.131217 
L 344.583293 81.25499 
L 351.578481 84.010126 
L 354.176025 85.058911 
L 358.307627 86.800057 
L 360.996329 88.054933 
L 369.941333 92.448244 
L 374.247564 94.778434 
L 383.616793 100.437461 
L 385.381457 101.367817 
L 399.376472 107.869263 
L 399.41182 107.882566 
L 402.705918 109.235446 
L 414.540328 115.62468 
L 426.283467 123.105338 
L 441.7547 130.967929 
L 442.097483 131.097963 
L 443.201856 131.885198 
L 444.863327 133.647939 
L 448.441222 136.975466 
L 455.664672 144.401261 
L 459.061763 147.671769 
L 468.195798 157.134913 
L 472.567122 162.2699 
L 474.000889 163.462696 
L 474.100152 163.488031 
L 477.407072 164.564535 
L 479.82963 165.850243 
L 484.824895 168.968404 
L 486.138529 169.775314 
L 486.46691 169.957274 
L 490.266844 172.325789 
L 494.6582 175.031265 
L 504.970373 181.344148 
L 506.099044 182.070648 
L 507.13425 182.840316 
L 517.786135 191.719119 
L 519.551705 193.292307 
L 526.052638 199.455247 
L 530.095917 203.358639 
L 538.671063 211.582423 
L 543.478964 216.198057 
L 561.878082 234.210151 
" clip-path="url(#p0df0c13bdb)" style="fill: none; stroke: #ff6347; stroke-width: 1.5; stroke-linecap: round"/>
   </g>
   <g id="line2d_14">
    <defs>
     <path id="mfd1225624b" d="M 0 1.5 
C 0.397805 1.5 0.77937 1.341951 1.06066 1.06066 
C 1.341951 0.77937 1.5 0.397805 1.5 0 
C 1.5 -0.397805 1.341951 -0.77937 1.06066 -1.06066 
C 0.77937 -1.341951 0.397805 -1.5 0 -1.5 
C -0.397805 -1.5 -0.77937 -1.341951 -1.06066 -1.06066 
C -1.341951 -0.77937 -1.5 -0.397805 -1.5 0 
C -1.5 0.397805 -1.341951 0.77937 -1.06066 1.06066 
C -0.77937 1.341951 -0.397805 1.5 0 1.5 
z
" style="stroke: #1a1a1a"/>
    </defs>
    <g clip-path="url(#p0df0c13bdb)">
     <use xlink:href="#mfd1225624b" x="506.099044" y="201.337908" style="fill: #1a1a1a; stroke: #1a1a1a"/>
     <use xlink:href="#mfd1225624b" x="131.073845" y="144.088587" style="fill: #1a1a1a; stroke: #1a1a1a"/>
     <use xlink:href="#mfd1225624b" x="474.000889" y="175.341746" style="fill: #1a1a1a; stroke: #1a1a1a"/>
     <use xlink:href="#mfd1225624b" x="490.266844" y="165.066853" style="fill: #1a1a1a; stroke: #1a1a1a"/>
     <use xlink:href="#mfd1225624b" x="126.663683" y="152.496608" style="fill: #1a1a1a; stroke: #1a1a1a"/>
     <use xlink:href="#mfd1225624b" x="256.953161" y="39.351699" style="fill: #1a1a1a; stroke: #1a1a1a"/>
     <use xlink:href="#mfd1225624b" x="220.412498" y="45.859042" style="fill: #1a1a1a; stroke: #1a1a1a"/>
     <use xlink:href="#mfd1225624b" x="232.144845" y="65.245494" style="fill: #1a1a1a; stroke: #1a1a1a"/>
     <use xlink:href="#mfd1225624b" x="285.056819" y="66.013501" style="fill: #1a1a1a; stroke: #1a1a1a"/>
     <use xlink:href="#mfd1225624b" x="443.201856" y="115.659446" style="fill: #1a1a1a; stroke: #1a1a1a"/>
     <use xlink:href="#mfd1225624b" x="374.247564" y="100.231772" style="fill: #1a1a1a; stroke: #1a1a1a"/>
     <use xlink:href="#mfd1225624b" x="504.970373" y="181.184738" style="fill: #1a1a1a; stroke: #1a1a1a"/>
     <use xlink:href="#mfd1225624b" x="486.46691" y="154.826" style="fill: #1a1a1a; stroke: #1a1a1a"/>
     <use xlink:href="#mfd1225624b" x="526.052638" y="199.087514" style="fill: #1a1a1a; stroke: #1a1a1a"/>
     <use xlink:href="#mfd1225624b" x="148.789641" y="102.913901" style="fill: #1a1a1a; stroke: #1a1a1a"/>
     <use xlink:href="#mfd1225624b" x="448.441222" y="119.285778" style="fill: #1a1a1a; stroke: #1a1a1a"/>
     <use xlink:href="#mfd1225624b" x="402.705918" y="113.963271" style="fill: #1a1a1a; stroke: #1a1a1a"/>
     <use xlink:href="#mfd1225624b" x="326.692846" y="80.12314" style="fill: #1a1a1a; stroke: #1a1a1a"/>
     <use xlink:href="#mfd1225624b" x="477.407072" y="169.096748" style="fill: #1a1a1a; stroke: #1a1a1a"/>
     <use xlink:href="#mfd1225624b" x="54.605355" y="305.603268" style="fill: #1a1a1a; stroke: #1a1a1a"/>
     <use xlink:href="#mfd1225624b" x="106.704476" y="179.385317" style="fill: #1a1a1a; stroke: #1a1a1a"/>
     <use xlink:href="#mfd1225624b" x="426.283467" y="102.501244" style="fill: #1a1a1a; stroke: #1a1a1a"/>
     <use xlink:href="#mfd1225624b" x="226.67249" y="49.559572" style="fill: #1a1a1a; stroke: #1a1a1a"/>
     <use xlink:href="#mfd1225624b" x="296.017634" y="54.69829" style="fill: #1a1a1a; stroke: #1a1a1a"/>
     <use xlink:href="#mfd1225624b" x="340.706443" y="75.232048" style="fill: #1a1a1a; stroke: #1a1a1a"/>
     <use xlink:href="#mfd1225624b" x="130.050389" y="132.166916" style="fill: #1a1a1a; stroke: #1a1a1a"/>
     <use xlink:href="#mfd1225624b" x="310.164222" y="71.878305" style="fill: #1a1a1a; stroke: #1a1a1a"/>
     <use xlink:href="#mfd1225624b" x="331.845371" y="91.03158" style="fill: #1a1a1a; stroke: #1a1a1a"/>
     <use xlink:href="#mfd1225624b" x="519.551705" y="184.007704" style="fill: #1a1a1a; stroke: #1a1a1a"/>
     <use xlink:href="#mfd1225624b" x="455.664672" y="160.347692" style="fill: #1a1a1a; stroke: #1a1a1a"/>
     <use xlink:href="#mfd1225624b" x="60.49785" y="324.72" style="fill: #1a1a1a; stroke: #1a1a1a"/>
     <use xlink:href="#mfd1225624b" x="88.458837" y="216.434936" style="fill: #1a1a1a; stroke: #1a1a1a"/>
     <use xlink:href="#mfd1225624b" x="444.863327" y="179.512991" style="fill: #1a1a1a; stroke: #1a1a1a"/>
     <use xlink:href="#mfd1225624b" x="484.824895" y="176.269553" style="fill: #1a1a1a; stroke: #1a1a1a"/>
     <use xlink:href="#mfd1225624b" x="118.037545" y="170.528827" style="fill: #1a1a1a; stroke: #1a1a1a"/>
     <use xlink:href="#mfd1225624b" x="138.786901" y="138.720664" style="fill: #1a1a1a; stroke: #1a1a1a"/>
     <use xlink:href="#mfd1225624b" x="442.097483" y="125.3728" style="fill: #1a1a1a; stroke: #1a1a1a"/>
     <use xlink:href="#mfd1225624b" x="90.202672" y="236.569087" style="fill: #1a1a1a; stroke: #1a1a1a"/>
     <use xlink:href="#mfd1225624b" x="561.878082" y="238.508327" style="fill: #1a1a1a; stroke: #1a1a1a"/>
     <use xlink:href="#mfd1225624b" x="269.255357" y="53.488719" style="fill: #1a1a1a; stroke: #1a1a1a"/>
     <use xlink:href="#mfd1225624b" x="507.13425" y="189.875666" style="fill: #1a1a1a; stroke: #1a1a1a"/>
     <use xlink:href="#mfd1225624b" x="385.381457" y="101.768445" style="fill: #1a1a1a; stroke: #1a1a1a"/>
     <use xlink:href="#mfd1225624b" x="472.567122" y="158.054263" style="fill: #1a1a1a; stroke: #1a1a1a"/>
     <use xlink:href="#mfd1225624b" x="351.578481" y="85.750245" style="fill: #1a1a1a; stroke: #1a1a1a"/>
     <use xlink:href="#mfd1225624b" x="399.41182" y="103.971635" style="fill: #1a1a1a; stroke: #1a1a1a"/>
     <use xlink:href="#mfd1225624b" x="302.087091" y="54.037363" style="fill: #1a1a1a; stroke: #1a1a1a"/>
     <use xlink:href="#mfd1225624b" x="479.82963" y="172.188139" style="fill: #1a1a1a; stroke: #1a1a1a"/>
     <use xlink:href="#mfd1225624b" x="82.802465" y="252.092241" style="fill: #1a1a1a; stroke: #1a1a1a"/>
     <use xlink:href="#mfd1225624b" x="67.034044" y="260.943597" style="fill: #1a1a1a; stroke: #1a1a1a"/>
     <use xlink:href="#mfd1225624b" x="120.107231" y="157.724747" style="fill: #1a1a1a; stroke: #1a1a1a"/>
     <use xlink:href="#mfd1225624b" x="530.095917" y="194.425611" style="fill: #1a1a1a; stroke: #1a1a1a"/>
     <use xlink:href="#mfd1225624b" x="344.185691" y="78.473743" style="fill: #1a1a1a; stroke: #1a1a1a"/>
     <use xlink:href="#mfd1225624b" x="354.176025" y="85.627712" style="fill: #1a1a1a; stroke: #1a1a1a"/>
     <use xlink:href="#mfd1225624b" x="191.646291" y="85.17648" style="fill: #1a1a1a; stroke: #1a1a1a"/>
     <use xlink:href="#mfd1225624b" x="538.671063" y="213.167087" style="fill: #1a1a1a; stroke: #1a1a1a"/>
     <use xlink:href="#mfd1225624b" x="360.996329" y="92.986836" style="fill: #1a1a1a; stroke: #1a1a1a"/>
     <use xlink:href="#mfd1225624b" x="336.622571" y="60.479842" style="fill: #1a1a1a; stroke: #1a1a1a"/>
     <use xlink:href="#mfd1225624b" x="369.941333" y="85.84391" style="fill: #1a1a1a; stroke: #1a1a1a"/>
     <use xlink:href="#mfd1225624b" x="189.713375" y="90.629781" style="fill: #1a1a1a; stroke: #1a1a1a"/>
     <use xlink:href="#mfd1225624b" x="441.7547" y="144.071408" style="fill: #1a1a1a; stroke: #1a1a1a"/>
     <use xlink:href="#mfd1225624b" x="331.124746" y="77.014975" style="fill: #1a1a1a; stroke: #1a1a1a"/>
     <use xlink:href="#mfd1225624b" x="157.821575" y="92.139842" style="fill: #1a1a1a; stroke: #1a1a1a"/>
     <use xlink:href="#mfd1225624b" x="71.113744" y="264.511741" style="fill: #1a1a1a; stroke: #1a1a1a"/>
     <use xlink:href="#mfd1225624b" x="182.625219" y="75.581172" style="fill: #1a1a1a; stroke: #1a1a1a"/>
     <use xlink:href="#mfd1225624b" x="468.195798" y="159.222149" style="fill: #1a1a1a; stroke: #1a1a1a"/>
     <use xlink:href="#mfd1225624b" x="293.484112" y="47.580586" style="fill: #1a1a1a; stroke: #1a1a1a"/>
     <use xlink:href="#mfd1225624b" x="159.040444" y="94.996064" style="fill: #1a1a1a; stroke: #1a1a1a"/>
     <use xlink:href="#mfd1225624b" x="331.771757" y="84.872474" style="fill: #1a1a1a; stroke: #1a1a1a"/>
     <use xlink:href="#mfd1225624b" x="383.616793" y="88.136488" style="fill: #1a1a1a; stroke: #1a1a1a"/>
     <use xlink:href="#mfd1225624b" x="474.100152" y="158.372464" style="fill: #1a1a1a; stroke: #1a1a1a"/>
     <use xlink:href="#mfd1225624b" x="312.923644" y="81.139052" style="fill: #1a1a1a; stroke: #1a1a1a"/>
     <use xlink:href="#mfd1225624b" x="146.322027" y="115.88032" style="fill: #1a1a1a; stroke: #1a1a1a"/>
     <use xlink:href="#mfd1225624b" x="104.894524" y="174.841993" style="fill: #1a1a1a; stroke: #1a1a1a"/>
     <use xlink:href="#mfd1225624b" x="235.685421" y="22.32" style="fill: #1a1a1a; stroke: #1a1a1a"/>
     <use xlink:href="#mfd1225624b" x="399.376472" y="110.280141" style="fill: #1a1a1a; stroke: #1a1a1a"/>
     <use xlink:href="#mfd1225624b" x="155.548555" y="75.743699" style="fill: #1a1a1a; stroke: #1a1a1a"/>
     <use xlink:href="#mfd1225624b" x="156.799972" y="78.547879" style="fill: #1a1a1a; stroke: #1a1a1a"/>
     <use xlink:href="#mfd1225624b" x="486.138529" y="162.897469" style="fill: #1a1a1a; stroke: #1a1a1a"/>
     <use xlink:href="#mfd1225624b" x="302.707862" y="48.11618" style="fill: #1a1a1a; stroke: #1a1a1a"/>
     <use xlink:href="#mfd1225624b" x="459.061763" y="160.835553" style="fill: #1a1a1a; stroke: #1a1a1a"/>
     <use xlink:href="#mfd1225624b" x="134.926431" y="123.457875" style="fill: #1a1a1a; stroke: #1a1a1a"/>
     <use xlink:href="#mfd1225624b" x="106.688995" y="176.223379" style="fill: #1a1a1a; stroke: #1a1a1a"/>
     <use xlink:href="#mfd1225624b" x="100.536507" y="207.942857" style="fill: #1a1a1a; stroke: #1a1a1a"/>
     <use xlink:href="#mfd1225624b" x="543.478964" y="216.888257" style="fill: #1a1a1a; stroke: #1a1a1a"/>
     <use xlink:href="#mfd1225624b" x="414.540328" y="140.972078" style="fill: #1a1a1a; stroke: #1a1a1a"/>
     <use xlink:href="#mfd1225624b" x="358.307627" y="94.216212" style="fill: #1a1a1a; stroke: #1a1a1a"/>
     <use xlink:href="#mfd1225624b" x="168.898919" y="114.310222" style="fill: #1a1a1a; stroke: #1a1a1a"/>
     <use xlink:href="#mfd1225624b" x="517.786135" y="189.700036" style="fill: #1a1a1a; stroke: #1a1a1a"/>
     <use xlink:href="#mfd1225624b" x="279.999693" y="26.852672" style="fill: #1a1a1a; stroke: #1a1a1a"/>
     <use xlink:href="#mfd1225624b" x="246.130293" y="43.021082" style="fill: #1a1a1a; stroke: #1a1a1a"/>
     <use xlink:href="#mfd1225624b" x="340.12093" y="85.276562" style="fill: #1a1a1a; stroke: #1a1a1a"/>
     <use xlink:href="#mfd1225624b" x="163.025545" y="93.62541" style="fill: #1a1a1a; stroke: #1a1a1a"/>
     <use xlink:href="#mfd1225624b" x="177.260339" y="92.307344" style="fill: #1a1a1a; stroke: #1a1a1a"/>
     <use xlink:href="#mfd1225624b" x="148.917304" y="97.997811" style="fill: #1a1a1a; stroke: #1a1a1a"/>
     <use xlink:href="#mfd1225624b" x="74.814123" y="248.686511" style="fill: #1a1a1a; stroke: #1a1a1a"/>
     <use xlink:href="#mfd1225624b" x="115.179487" y="154.930397" style="fill: #1a1a1a; stroke: #1a1a1a"/>
     <use xlink:href="#mfd1225624b" x="344.583293" y="65.241724" style="fill: #1a1a1a; stroke: #1a1a1a"/>
     <use xlink:href="#mfd1225624b" x="207.979612" y="63.136777" style="fill: #1a1a1a; stroke: #1a1a1a"/>
     <use xlink:href="#mfd1225624b" x="335.366967" y="62.924892" style="fill: #1a1a1a; stroke: #1a1a1a"/>
     <use xlink:href="#mfd1225624b" x="494.6582" y="161.393286" style="fill: #1a1a1a; stroke: #1a1a1a"/>
    </g>
   </g>
   <g id="patch_3">
    <path d="M 29.241719 339.84 
L 29.241719 7.2 
" style="fill: none; stroke: #ffffff; stroke-width: 1.25; stroke-linejoin: miter; stroke-linecap: square"/>
   </g>
   <g id="patch_4">
    <path d="M 587.241719 339.84 
L 587.241719 7.2 
" style="fill: none; stroke: #ffffff; stroke-width: 1.25; stroke-linejoin: miter; stroke-linecap: square"/>
   </g>
   <g id="patch_5">
    <path d="M 29.241719 339.84 
L 587.241719 339.84 
" style="fill: none; stroke: #ffffff; stroke-width: 1.25; stroke-linejoin: miter; stroke-linecap: square"/>
   </g>
   <g id="patch_6">
    <path d="M 29.241719 7.2 
L 587.241719 7.2 
" style="fill: none; stroke: #ffffff; stroke-width: 1.25; stroke-linejoin: miter; stroke-linecap: square"/>
   </g>
  </g>
 </g>
 <defs>
  <clipPath id="p0df0c13bdb">
   <rect x="29.241719" y="7.2" width="558" height="332.64"/>
  </clipPath>
 </defs>
</svg>