<?xml version="1.0" encoding="utf-8" standalone="no"?>
<!DOCTYPE svg PUBLIC "-//W3C//DTD SVG 1.1//EN"
  "http://www.w3.org/Graphics/SVG/1.1/DTD/svg11.dtd">
<svg xmlns:xlink="http://www.w3.org/1999/xlink" width="572.4pt" height="378.189219pt" viewBox="0 0 572.4 378.189219" xmlns="http://www.w3.org/2000/svg" version="1.1">
 <metadata>
  <rdf:RDF xmlns:dc="http://purl.org/dc/elements/1.1/" xmlns:cc="http://creativecommons.org/ns#" xmlns:rdf="http://www.w3.org/1999/02/22-rdf-syntax-ns#">
   <cc:Work>
    <dc:type rdf:resource="http://purl.org/dc/dcmitype/StillImage"/>
    <dc:date>2023-05-29T11:57:31.003598</dc:date>
    <dc:format>image/svg+xml</dc:format>
    <dc:creator>
     <cc:Agent>
      <dc:title>Matplotlib v3.7.1, https://matplotlib.org/</dc:title>
     </cc:Agent>
    </dc:creator>
   </cc:Work>
  </rdf:RDF>
 </metadata>
 <defs>
  <style type="text/css">*{stroke-linejoin: round; stroke-linecap: butt}</style>
 </defs>
 <g id="figure_1">
  <g id="patch_1">
   <path d="M 0 378.189219 
L 572.4 378.189219 
L 572.4 0 
L 0 0 
z
" style="fill: #ffffff"/>
  </g>
  <g id="axes_1">
   <g id="patch_2">
    <path d="M 7.2 354.429375 
L 565.2 354.429375 
L 565.2 21.789375 
L 7.2 21.789375 
z
" style="fill: #eaeaf2"/>
   </g>
   <g id="matplotlib.axis_1">
    <g id="xtick_1">
     <g id="line2d_1">
      <path d="M 47.868389 354.429375 
L 47.868389 21.789375 
" clip-path="url(#p7ffa20e433)" style="fill: none; stroke: #ffffff; stroke-linecap: round"/>
     </g>
     <g id="line2d_2">
      <defs>
       <path id="m44341ee384" d="M 0 0 
L 0 3 
" style="stroke: #808080"/>
      </defs>
      <g>
       <use xlink:href="#m44341ee384" x="47.868389" y="354.429375" style="fill: #808080; stroke: #808080"/>
      </g>
     </g>
     <g id="text_1">
      <!-- 2.5 -->
      <g style="fill: #262626" transform="translate(40.223389 368.802969) scale(0.11 -0.11)">
       <defs>
        <path id="ArialMT-32" d="M 3222 541 
L 3222 0 
L 194 0 
Q 188 203 259 391 
Q 375 700 629 1000 
Q 884 1300 1366 1694 
Q 2113 2306 2375 2664 
Q 2638 3022 2638 3341 
Q 2638 3675 2398 3904 
Q 2159 4134 1775 4134 
Q 1369 4134 1125 3890 
Q 881 3647 878 3216 
L 300 3275 
Q 359 3922 746 4261 
Q 1134 4600 1788 4600 
Q 2447 4600 2831 4234 
Q 3216 3869 3216 3328 
Q 3216 3053 3103 2787 
Q 2991 2522 2730 2228 
Q 2469 1934 1863 1422 
Q 1356 997 1212 845 
Q 1069 694 975 541 
L 3222 541 
z
" transform="scale(0.015625)"/>
        <path id="ArialMT-2e" d="M 581 0 
L 581 641 
L 1222 641 
L 1222 0 
L 581 0 
z
" transform="scale(0.015625)"/>
        <path id="ArialMT-35" d="M 266 1200 
L 856 1250 
Q 922 819 1161 601 
Q 1400 384 1738 384 
Q 2144 384 2425 690 
Q 2706 997 2706 1503 
Q 2706 1984 2436 2262 
Q 2166 2541 1728 2541 
Q 1456 2541 1237 2417 
Q 1019 2294 894 2097 
L 366 2166 
L 809 4519 
L 3088 4519 
L 3088 3981 
L 1259 3981 
L 1013 2750 
Q 1425 3038 1878 3038 
Q 2478 3038 2890 2622 
Q 3303 2206 3303 1553 
Q 3303 931 2941 478 
Q 2500 -78 1738 -78 
Q 1113 -78 717 272 
Q 322 622 266 1200 
z
" transform="scale(0.015625)"/>
       </defs>
       <use xlink:href="#ArialMT-32"/>
       <use xlink:href="#ArialMT-2e" x="55.615234"/>
       <use xlink:href="#ArialMT-35" x="83.398438"/>
      </g>
     </g>
    </g>
    <g id="xtick_2">
     <g id="line2d_3">
      <path d="M 114.893992 354.429375 
L 114.893992 21.789375 
" clip-path="url(#p7ffa20e433)" style="fill: none; stroke: #ffffff; stroke-linecap: round"/>
     </g>
     <g id="line2d_4">
      <g>
       <use xlink:href="#m44341ee384" x="114.893992" y="354.429375" style="fill: #808080; stroke: #808080"/>
      </g>
     </g>
     <g id="text_2">
      <!-- 5.0 -->
      <g style="fill: #262626" transform="translate(107.248992 368.802969) scale(0.11 -0.11)">
       <defs>
        <path id="ArialMT-30" d="M 266 2259 
Q 266 3072 433 3567 
Q 600 4063 929 4331 
Q 1259 4600 1759 4600 
Q 2128 4600 2406 4451 
Q 2684 4303 2865 4023 
Q 3047 3744 3150 3342 
Q 3253 2941 3253 2259 
Q 3253 1453 3087 958 
Q 2922 463 2592 192 
Q 2263 -78 1759 -78 
Q 1097 -78 719 397 
Q 266 969 266 2259 
z
M 844 2259 
Q 844 1131 1108 757 
Q 1372 384 1759 384 
Q 2147 384 2411 759 
Q 2675 1134 2675 2259 
Q 2675 3391 2411 3762 
Q 2147 4134 1753 4134 
Q 1366 4134 1134 3806 
Q 844 3388 844 2259 
z
" transform="scale(0.015625)"/>
       </defs>
       <use xlink:href="#ArialMT-35"/>
       <use xlink:href="#ArialMT-2e" x="55.615234"/>
       <use xlink:href="#ArialMT-30" x="83.398438"/>
      </g>
     </g>
    </g>
    <g id="xtick_3">
     <g id="line2d_5">
      <path d="M 181.919596 354.429375 
L 181.919596 21.789375 
" clip-path="url(#p7ffa20e433)" style="fill: none; stroke: #ffffff; stroke-linecap: round"/>
     </g>
     <g id="line2d_6">
      <g>
       <use xlink:href="#m44341ee384" x="181.919596" y="354.429375" style="fill: #808080; stroke: #808080"/>
      </g>
     </g>
     <g id="text_3">
      <!-- 7.5 -->
      <g style="fill: #262626" transform="translate(174.274596 368.802969) scale(0.11 -0.11)">
       <defs>
        <path id="ArialMT-37" d="M 303 3981 
L 303 4522 
L 3269 4522 
L 3269 4084 
Q 2831 3619 2401 2847 
Q 1972 2075 1738 1259 
Q 1569 684 1522 0 
L 944 0 
Q 953 541 1156 1306 
Q 1359 2072 1739 2783 
Q 2119 3494 2547 3981 
L 303 3981 
z
" transform="scale(0.015625)"/>
       </defs>
       <use xlink:href="#ArialMT-37"/>
       <use xlink:href="#ArialMT-2e" x="55.615234"/>
       <use xlink:href="#ArialMT-35" x="83.398438"/>
      </g>
     </g>
    </g>
    <g id="xtick_4">
     <g id="line2d_7">
      <path d="M 248.9452 354.429375 
L 248.9452 21.789375 
" clip-path="url(#p7ffa20e433)" style="fill: none; stroke: #ffffff; stroke-linecap: round"/>
     </g>
     <g id="line2d_8">
      <g>
       <use xlink:href="#m44341ee384" x="248.9452" y="354.429375" style="fill: #808080; stroke: #808080"/>
      </g>
     </g>
     <g id="text_4">
      <!-- 10.0 -->
      <g style="fill: #262626" transform="translate(238.241684 368.802969) scale(0.11 -0.11)">
       <defs>
        <path id="ArialMT-31" d="M 2384 0 
L 1822 0 
L 1822 3584 
Q 1619 3391 1289 3197 
Q 959 3003 697 2906 
L 697 3450 
Q 1169 3672 1522 3987 
Q 1875 4303 2022 4600 
L 2384 4600 
L 2384 0 
z
" transform="scale(0.015625)"/>
       </defs>
       <use xlink:href="#ArialMT-31"/>
       <use xlink:href="#ArialMT-30" x="55.615234"/>
       <use xlink:href="#ArialMT-2e" x="111.230469"/>
       <use xlink:href="#ArialMT-30" x="139.013672"/>
      </g>
     </g>
    </g>
    <g id="xtick_5">
     <g id="line2d_9">
      <path d="M 315.970804 354.429375 
L 315.970804 21.789375 
" clip-path="url(#p7ffa20e433)" style="fill: none; stroke: #ffffff; stroke-linecap: round"/>
     </g>
     <g id="line2d_10">
      <g>
       <use xlink:href="#m44341ee384" x="315.970804" y="354.429375" style="fill: #808080; stroke: #808080"/>
      </g>
     </g>
     <g id="text_5">
      <!-- 12.5 -->
      <g style="fill: #262626" transform="translate(305.267288 368.802969) scale(0.11 -0.11)">
       <use xlink:href="#ArialMT-31"/>
       <use xlink:href="#ArialMT-32" x="55.615234"/>
       <use xlink:href="#ArialMT-2e" x="111.230469"/>
       <use xlink:href="#ArialMT-35" x="139.013672"/>
      </g>
     </g>
    </g>
    <g id="xtick_6">
     <g id="line2d_11">
      <path d="M 382.996407 354.429375 
L 382.996407 21.789375 
" clip-path="url(#p7ffa20e433)" style="fill: none; stroke: #ffffff; stroke-linecap: round"/>
     </g>
     <g id="line2d_12">
      <g>
       <use xlink:href="#m44341ee384" x="382.996407" y="354.429375" style="fill: #808080; stroke: #808080"/>
      </g>
     </g>
     <g id="text_6">
      <!-- 15.0 -->
      <g style="fill: #262626" transform="translate(372.292892 368.802969) scale(0.11 -0.11)">
       <use xlink:href="#ArialMT-31"/>
       <use xlink:href="#ArialMT-35" x="55.615234"/>
       <use xlink:href="#ArialMT-2e" x="111.230469"/>
       <use xlink:href="#ArialMT-30" x="139.013672"/>
      </g>
     </g>
    </g>
    <g id="xtick_7">
     <g id="line2d_13">
      <path d="M 450.022011 354.429375 
L 450.022011 21.789375 
" clip-path="url(#p7ffa20e433)" style="fill: none; stroke: #ffffff; stroke-linecap: round"/>
     </g>
     <g id="line2d_14">
      <g>
       <use xlink:href="#m44341ee384" x="450.022011" y="354.429375" style="fill: #808080; stroke: #808080"/>
      </g>
     </g>
     <g id="text_7">
      <!-- 17.5 -->
      <g style="fill: #262626" transform="translate(439.318495 368.802969) scale(0.11 -0.11)">
       <use xlink:href="#ArialMT-31"/>
       <use xlink:href="#ArialMT-37" x="55.615234"/>
       <use xlink:href="#ArialMT-2e" x="111.230469"/>
       <use xlink:href="#ArialMT-35" x="139.013672"/>
      </g>
     </g>
    </g>
    <g id="xtick_8">
     <g id="line2d_15">
      <path d="M 517.047615 354.429375 
L 517.047615 21.789375 
" clip-path="url(#p7ffa20e433)" style="fill: none; stroke: #ffffff; stroke-linecap: round"/>
     </g>
     <g id="line2d_16">
      <g>
       <use xlink:href="#m44341ee384" x="517.047615" y="354.429375" style="fill: #808080; stroke: #808080"/>
      </g>
     </g>
     <g id="text_8">
      <!-- 20.0 -->
      <g style="fill: #262626" transform="translate(506.344099 368.802969) scale(0.11 -0.11)">
       <use xlink:href="#ArialMT-32"/>
       <use xlink:href="#ArialMT-30" x="55.615234"/>
       <use xlink:href="#ArialMT-2e" x="111.230469"/>
       <use xlink:href="#ArialMT-30" x="139.013672"/>
      </g>
     </g>
    </g>
   </g>
   <g id="matplotlib.axis_2"/>
   <g id="PolyCollection_1">
    <defs>
     <path id="m20e8c22516" d="M 32.563636 -38.879844 
L 32.563636 -45.538451 
L 33.556342 -45.572554 
L 34.549048 -45.65362 
L 35.541754 -45.772098 
L 36.53446 -45.929649 
L 37.527166 -46.137077 
L 38.519872 -46.375564 
L 39.512578 -46.660578 
L 40.505284 -46.986801 
L 41.49799 -47.363075 
L 42.490696 -47.79738 
L 43.483402 -48.300945 
L 44.476107 -48.84123 
L 45.468813 -49.43824 
L 46.461519 -50.099415 
L 47.454225 -50.827901 
L 48.446931 -51.612705 
L 49.439637 -52.467051 
L 50.432343 -53.392259 
L 51.425049 -54.391223 
L 52.417755 -55.471167 
L 53.410461 -56.630238 
L 54.403167 -57.852329 
L 55.395873 -59.151181 
L 56.388579 -60.534591 
L 57.381284 -61.992933 
L 58.37399 -63.50355 
L 59.366696 -65.125328 
L 60.359402 -66.812652 
L 61.352108 -68.579113 
L 62.344814 -70.416604 
L 63.33752 -72.322286 
L 64.330226 -74.31709 
L 65.322932 -76.378571 
L 66.315638 -78.484772 
L 67.308344 -80.667908 
L 68.30105 -82.9102 
L 69.293756 -85.230679 
L 70.286461 -87.610453 
L 71.279167 -90.035548 
L 72.271873 -92.530733 
L 73.264579 -95.091866 
L 74.257285 -97.698288 
L 75.249991 -100.366326 
L 76.242697 -103.056747 
L 77.235403 -105.7965 
L 78.228109 -108.602676 
L 79.220815 -111.439334 
L 80.213521 -114.285459 
L 81.206227 -117.189913 
L 82.198933 -120.113679 
L 83.191638 -123.059904 
L 84.184344 -126.02495 
L 85.17705 -128.988303 
L 86.169756 -131.966902 
L 87.162462 -134.969383 
L 88.155168 -137.929395 
L 89.147874 -140.893412 
L 90.14058 -143.861192 
L 91.133286 -146.837525 
L 92.125992 -149.78417 
L 93.118698 -152.707215 
L 94.111404 -155.601823 
L 95.10411 -158.509515 
L 96.096816 -161.413916 
L 97.089521 -164.308362 
L 98.082227 -167.190065 
L 99.074933 -170.066443 
L 100.067639 -172.98104 
L 101.060345 -175.905302 
L 102.053051 -178.855835 
L 103.045757 -181.807342 
L 104.038463 -184.812257 
L 105.031169 -187.845926 
L 106.023875 -190.938441 
L 107.016581 -194.069668 
L 108.009287 -197.222818 
L 109.001993 -200.431142 
L 109.994698 -203.672294 
L 110.987404 -206.965829 
L 111.98011 -210.253458 
L 112.972816 -213.607039 
L 113.965522 -216.984458 
L 114.958228 -220.434953 
L 115.950934 -223.836945 
L 116.94364 -227.291922 
L 117.936346 -230.720269 
L 118.929052 -234.18511 
L 119.921758 -237.626516 
L 120.914464 -241.018347 
L 121.90717 -244.338779 
L 122.899875 -247.650814 
L 123.892581 -250.922534 
L 124.885287 -254.144353 
L 125.877993 -257.324107 
L 126.870699 -260.439571 
L 127.863405 -263.530585 
L 128.856111 -266.573312 
L 129.848817 -269.519419 
L 130.841523 -272.42155 
L 131.834229 -275.235888 
L 132.826935 -277.992975 
L 133.819641 -280.68828 
L 134.812347 -283.335952 
L 135.805052 -285.885566 
L 136.797758 -288.386072 
L 137.790464 -290.792887 
L 138.78317 -293.140762 
L 139.775876 -295.379077 
L 140.768582 -297.579206 
L 141.761288 -299.694119 
L 142.753994 -301.689423 
L 143.7467 -303.626527 
L 144.739406 -305.45487 
L 145.732112 -307.214466 
L 146.724818 -308.865167 
L 147.717524 -310.433858 
L 148.710229 -311.908346 
L 149.702935 -313.295307 
L 150.695641 -314.628233 
L 151.688347 -315.865241 
L 152.681053 -317.042589 
L 153.673759 -318.159561 
L 154.666465 -319.242176 
L 155.659171 -320.292296 
L 156.651877 -321.299927 
L 157.644583 -322.295438 
L 158.637289 -323.303272 
L 159.629995 -324.288733 
L 160.622701 -325.273302 
L 161.615407 -326.253318 
L 162.608112 -327.272188 
L 163.600818 -328.319578 
L 164.593524 -329.389319 
L 165.58623 -330.397232 
L 166.578936 -331.416358 
L 167.571642 -332.454134 
L 168.564348 -333.488545 
L 169.557054 -334.493946 
L 170.54976 -335.440997 
L 171.542466 -336.355424 
L 172.535172 -337.206524 
L 173.527878 -338.035894 
L 174.520584 -338.771787 
L 175.513289 -339.427801 
L 176.505995 -339.98138 
L 177.498701 -340.449987 
L 178.491407 -340.813424 
L 179.484113 -341.097495 
L 180.476819 -341.260693 
L 181.469525 -341.279844 
L 182.462231 -341.245686 
L 183.454937 -341.033151 
L 184.447643 -340.721757 
L 185.440349 -340.294485 
L 186.433055 -339.806143 
L 187.425761 -339.174512 
L 188.418466 -338.429574 
L 189.411172 -337.565849 
L 190.403878 -336.602554 
L 191.396584 -335.553626 
L 192.38929 -334.42828 
L 193.381996 -333.152193 
L 194.374702 -331.80343 
L 195.367408 -330.374696 
L 196.360114 -328.822416 
L 197.35282 -327.199229 
L 198.345526 -325.462425 
L 199.338232 -323.662365 
L 200.330938 -321.802135 
L 201.323643 -319.881346 
L 202.316349 -317.928385 
L 203.309055 -315.939053 
L 204.301761 -313.929149 
L 205.294467 -311.870299 
L 206.287173 -309.845184 
L 207.279879 -307.807845 
L 208.272585 -305.806511 
L 209.265291 -303.816012 
L 210.257997 -301.860174 
L 211.250703 -299.887967 
L 212.243409 -297.998606 
L 213.236115 -296.157286 
L 214.22882 -294.330746 
L 215.221526 -292.562649 
L 216.214232 -290.809 
L 217.206938 -289.144969 
L 218.199644 -287.480994 
L 219.19235 -285.83758 
L 220.185056 -284.227942 
L 221.177762 -282.622729 
L 222.170468 -281.041995 
L 223.163174 -279.469228 
L 224.15588 -277.908485 
L 225.148586 -276.316217 
L 226.141292 -274.739716 
L 227.133998 -273.159493 
L 228.126703 -271.543034 
L 229.119409 -269.952598 
L 230.112115 -268.352057 
L 231.104821 -266.731714 
L 232.097527 -265.116286 
L 233.090233 -263.486529 
L 234.082939 -261.853058 
L 235.075645 -260.209756 
L 236.068351 -258.627726 
L 237.061057 -257.019759 
L 238.053763 -255.387676 
L 239.046469 -253.758932 
L 240.039175 -252.153836 
L 241.03188 -250.548189 
L 242.024586 -248.959399 
L 243.017292 -247.356841 
L 244.009998 -245.739777 
L 245.002704 -244.122904 
L 245.99541 -242.515617 
L 246.988116 -240.903306 
L 247.980822 -239.278798 
L 248.973528 -237.668822 
L 249.966234 -236.009507 
L 250.95894 -234.353318 
L 251.951646 -232.704318 
L 252.944352 -231.028615 
L 253.937057 -229.363127 
L 254.929763 -227.660461 
L 255.922469 -225.943742 
L 256.915175 -224.236436 
L 257.907881 -222.525244 
L 258.900587 -220.822206 
L 259.893293 -219.092457 
L 260.885999 -217.360186 
L 261.878705 -215.641743 
L 262.871411 -213.905642 
L 263.864117 -212.161585 
L 264.856823 -210.381468 
L 265.849529 -208.603107 
L 266.842234 -206.834526 
L 267.83494 -205.054881 
L 268.827646 -203.267774 
L 269.820352 -201.472947 
L 270.813058 -199.635862 
L 271.805764 -197.793777 
L 272.79847 -195.931846 
L 273.791176 -194.02694 
L 274.783882 -192.086673 
L 275.776588 -190.134493 
L 276.769294 -188.163659 
L 277.762 -186.180687 
L 278.754706 -184.133496 
L 279.747411 -182.071489 
L 280.740117 -180.019433 
L 281.732823 -177.961245 
L 282.725529 -175.869891 
L 283.718235 -173.779231 
L 284.710941 -171.686651 
L 285.703647 -169.60792 
L 286.696353 -167.537839 
L 287.689059 -165.469115 
L 288.681765 -163.423601 
L 289.674471 -161.381282 
L 290.667177 -159.371054 
L 291.659883 -157.378293 
L 292.652589 -155.404534 
L 293.645294 -153.448288 
L 294.638 -151.506214 
L 295.630706 -149.599564 
L 296.623412 -147.709005 
L 297.616118 -145.826766 
L 298.608824 -143.976614 
L 299.60153 -142.133664 
L 300.594236 -140.324235 
L 301.586942 -138.515975 
L 302.579648 -136.724726 
L 303.572354 -134.951852 
L 304.56506 -133.187936 
L 305.557766 -131.439831 
L 306.550471 -129.691967 
L 307.543177 -127.975714 
L 308.535883 -126.287698 
L 309.528589 -124.617474 
L 310.521295 -122.956327 
L 311.514001 -121.333252 
L 312.506707 -119.734501 
L 313.499413 -118.170366 
L 314.492119 -116.637283 
L 315.484825 -115.134299 
L 316.477531 -113.650466 
L 317.470237 -112.196877 
L 318.462943 -110.77536 
L 319.455648 -109.373723 
L 320.448354 -108.013864 
L 321.44106 -106.66824 
L 322.433766 -105.343133 
L 323.426472 -104.02193 
L 324.419178 -102.726236 
L 325.411884 -101.446091 
L 326.40459 -100.175365 
L 327.397296 -98.901069 
L 328.390002 -97.637496 
L 329.382708 -96.388751 
L 330.375414 -95.15842 
L 331.36812 -93.922929 
L 332.360825 -92.683229 
L 333.353531 -91.469749 
L 334.346237 -90.276728 
L 335.338943 -89.093743 
L 336.331649 -87.923451 
L 337.324355 -86.774234 
L 338.317061 -85.655515 
L 339.309767 -84.562205 
L 340.302473 -83.503348 
L 341.295179 -82.497397 
L 342.287885 -81.520361 
L 343.280591 -80.581508 
L 344.273297 -79.688668 
L 345.266002 -78.843308 
L 346.258708 -78.042995 
L 347.251414 -77.284682 
L 348.24412 -76.574501 
L 349.236826 -75.9288 
L 350.229532 -75.314732 
L 351.222238 -74.739297 
L 352.214944 -74.204296 
L 353.20765 -73.701808 
L 354.200356 -73.23922 
L 355.193062 -72.803899 
L 356.185768 -72.399939 
L 357.178474 -72.023134 
L 358.17118 -71.673699 
L 359.163885 -71.329817 
L 360.156591 -71.017864 
L 361.149297 -70.708747 
L 362.142003 -70.416887 
L 363.134709 -70.114774 
L 364.127415 -69.830101 
L 365.120121 -69.556735 
L 366.112827 -69.281087 
L 367.105533 -68.997871 
L 368.098239 -68.73027 
L 369.090945 -68.447316 
L 370.083651 -68.151062 
L 371.076357 -67.853427 
L 372.069062 -67.563363 
L 373.061768 -67.261253 
L 374.054474 -66.949082 
L 375.04718 -66.639185 
L 376.039886 -66.324562 
L 377.032592 -65.997899 
L 378.025298 -65.657134 
L 379.018004 -65.304322 
L 380.01071 -64.946468 
L 381.003416 -64.571594 
L 381.996122 -64.181269 
L 382.988828 -63.780163 
L 383.981534 -63.37996 
L 384.974239 -62.96343 
L 385.966945 -62.531386 
L 386.959651 -62.087406 
L 387.952357 -61.634076 
L 388.945063 -61.164836 
L 389.937769 -60.685248 
L 390.930475 -60.179843 
L 391.923181 -59.676144 
L 392.915887 -59.161007 
L 393.908593 -58.631785 
L 394.901299 -58.096738 
L 395.894005 -57.554447 
L 396.886711 -57.009726 
L 397.879416 -56.465075 
L 398.872122 -55.904606 
L 399.864828 -55.352838 
L 400.857534 -54.790776 
L 401.85024 -54.239446 
L 402.842946 -53.690718 
L 403.835652 -53.1381 
L 404.828358 -52.598383 
L 405.821064 -52.077183 
L 406.81377 -51.561888 
L 407.806476 -51.060407 
L 408.799182 -50.570948 
L 409.791888 -50.112455 
L 410.784593 -49.66847 
L 411.777299 -49.248967 
L 412.770005 -48.848237 
L 413.762711 -48.477663 
L 414.755417 -48.137088 
L 415.748123 -47.820722 
L 416.740829 -47.522184 
L 417.733535 -47.25695 
L 418.726241 -47.01679 
L 419.718947 -46.802554 
L 420.711653 -46.619373 
L 421.704359 -46.449182 
L 422.697065 -46.306321 
L 423.689771 -46.186022 
L 424.682476 -46.089006 
L 425.675182 -46.00068 
L 426.667888 -45.928105 
L 427.660594 -45.85883 
L 428.6533 -45.798533 
L 429.646006 -45.764621 
L 430.638712 -45.726882 
L 431.631418 -45.695393 
L 432.624124 -45.666027 
L 433.61683 -45.641949 
L 434.609536 -45.613406 
L 435.602242 -45.576528 
L 436.594948 -45.541174 
L 437.587653 -45.497278 
L 438.580359 -45.439072 
L 439.573065 -45.378868 
L 440.565771 -45.316896 
L 441.558477 -45.23961 
L 442.551183 -45.156101 
L 443.543889 -45.062098 
L 444.536595 -44.96184 
L 445.529301 -44.844509 
L 446.522007 -44.718434 
L 447.514713 -44.589953 
L 448.507419 -44.450436 
L 449.500125 -44.308886 
L 450.49283 -44.157472 
L 451.485536 -44.006988 
L 452.478242 -43.854688 
L 453.470948 -43.698869 
L 454.463654 -43.547012 
L 455.45636 -43.400593 
L 456.449066 -43.257252 
L 457.441772 -43.121633 
L 458.434478 -42.98773 
L 459.427184 -42.866193 
L 460.41989 -42.753363 
L 461.412596 -42.653631 
L 462.405302 -42.55974 
L 463.398007 -42.4739 
L 464.390713 -42.403523 
L 465.383419 -42.338432 
L 466.376125 -42.283507 
L 467.368831 -42.232409 
L 468.361537 -42.190027 
L 469.354243 -42.154634 
L 470.346949 -42.121152 
L 471.339655 -42.090385 
L 472.332361 -42.060915 
L 473.325067 -42.029664 
L 474.317773 -42.000752 
L 475.310479 -41.963638 
L 476.303184 -41.925288 
L 477.29589 -41.885866 
L 478.288596 -41.8404 
L 479.281302 -41.785138 
L 480.274008 -41.725729 
L 481.266714 -41.659877 
L 482.25942 -41.587688 
L 483.252126 -41.509444 
L 484.244832 -41.423908 
L 485.237538 -41.335425 
L 486.230244 -41.242492 
L 487.22295 -41.147559 
L 488.215656 -41.047663 
L 489.208362 -40.945804 
L 490.201067 -40.844445 
L 491.193773 -40.742247 
L 492.186479 -40.640002 
L 493.179185 -40.538416 
L 494.171891 -40.43811 
L 495.164597 -40.334573 
L 496.157303 -40.239563 
L 497.150009 -40.146906 
L 498.142715 -40.056955 
L 499.135421 -39.968311 
L 500.128127 -39.883286 
L 501.120833 -39.803639 
L 502.113539 -39.729543 
L 503.106244 -39.657387 
L 504.09895 -39.588983 
L 505.091656 -39.526644 
L 506.084362 -39.467241 
L 507.077068 -39.412586 
L 508.069774 -39.362306 
L 509.06248 -39.318742 
L 510.055186 -39.278278 
L 511.047892 -39.239378 
L 512.040598 -39.208036 
L 513.033304 -39.182099 
L 514.02601 -39.161616 
L 515.018716 -39.144945 
L 516.011421 -39.13756 
L 517.004127 -39.13519 
L 517.996833 -39.136234 
L 518.989539 -39.144479 
L 519.982245 -39.156016 
L 520.974951 -39.174519 
L 521.967657 -39.197635 
L 522.960363 -39.22513 
L 523.953069 -39.256684 
L 524.945775 -39.291891 
L 525.938481 -39.328579 
L 526.931187 -39.369944 
L 527.923893 -39.413151 
L 528.916598 -39.4575 
L 529.909304 -39.502227 
L 530.90201 -39.546523 
L 531.894716 -39.58787 
L 532.887422 -39.629194 
L 533.880128 -39.667481 
L 534.872834 -39.700277 
L 535.86554 -39.730629 
L 536.858246 -39.755717 
L 537.850952 -39.775017 
L 538.843658 -39.788119 
L 539.836364 -39.794741 
L 539.836364 -38.879844 
L 539.836364 -38.879844 
L 538.843658 -38.879844 
L 537.850952 -38.879844 
L 536.858246 -38.879844 
L 535.86554 -38.879844 
L 534.872834 -38.879844 
L 533.880128 -38.879844 
L 532.887422 -38.879844 
L 531.894716 -38.879844 
L 530.90201 -38.879844 
L 529.909304 -38.879844 
L 528.916598 -38.879844 
L 527.923893 -38.879844 
L 526.931187 -38.879844 
L 525.938481 -38.879844 
L 524.945775 -38.879844 
L 523.953069 -38.879844 
L 522.960363 -38.879844 
L 521.967657 -38.879844 
L 520.974951 -38.879844 
L 519.982245 -38.879844 
L 518.989539 -38.879844 
L 517.996833 -38.879844 
L 517.004127 -38.879844 
L 516.011421 -38.879844 
L 515.018716 -38.879844 
L 514.02601 -38.879844 
L 513.033304 -38.879844 
L 512.040598 -38.879844 
L 511.047892 -38.879844 
L 510.055186 -38.879844 
L 509.06248 -38.879844 
L 508.069774 -38.879844 
L 507.077068 -38.879844 
L 506.084362 -38.879844 
L 505.091656 -38.879844 
L 504.09895 -38.879844 
L 503.106244 -38.879844 
L 502.113539 -38.879844 
L 501.120833 -38.879844 
L 500.128127 -38.879844 
L 499.135421 -38.879844 
L 498.142715 -38.879844 
L 497.150009 -38.879844 
L 496.157303 -38.879844 
L 495.164597 -38.879844 
L 494.171891 -38.879844 
L 493.179185 -38.879844 
L 492.186479 -38.879844 
L 491.193773 -38.879844 
L 490.201067 -38.879844 
L 489.208362 -38.879844 
L 488.215656 -38.879844 
L 487.22295 -38.879844 
L 486.230244 -38.879844 
L 485.237538 -38.879844 
L 484.244832 -38.879844 
L 483.252126 -38.879844 
L 482.25942 -38.879844 
L 481.266714 -38.879844 
L 480.274008 -38.879844 
L 479.281302 -38.879844 
L 478.288596 -38.879844 
L 477.29589 -38.879844 
L 476.303184 -38.879844 
L 475.310479 -38.879844 
L 474.317773 -38.879844 
L 473.325067 -38.879844 
L 472.332361 -38.879844 
L 471.339655 -38.879844 
L 470.346949 -38.879844 
L 469.354243 -38.879844 
L 468.361537 -38.879844 
L 467.368831 -38.879844 
L 466.376125 -38.879844 
L 465.383419 -38.879844 
L 464.390713 -38.879844 
L 463.398007 -38.879844 
L 462.405302 -38.879844 
L 461.412596 -38.879844 
L 460.41989 -38.879844 
L 459.427184 -38.879844 
L 458.434478 -38.879844 
L 457.441772 -38.879844 
L 456.449066 -38.879844 
L 455.45636 -38.879844 
L 454.463654 -38.879844 
L 453.470948 -38.879844 
L 452.478242 -38.879844 
L 451.485536 -38.879844 
L 450.49283 -38.879844 
L 449.500125 -38.879844 
L 448.507419 -38.879844 
L 447.514713 -38.879844 
L 446.522007 -38.879844 
L 445.529301 -38.879844 
L 444.536595 -38.879844 
L 443.543889 -38.879844 
L 442.551183 -38.879844 
L 441.558477 -38.879844 
L 440.565771 -38.879844 
L 439.573065 -38.879844 
L 438.580359 -38.879844 
L 437.587653 -38.879844 
L 436.594948 -38.879844 
L 435.602242 -38.879844 
L 434.609536 -38.879844 
L 433.61683 -38.879844 
L 432.624124 -38.879844 
L 431.631418 -38.879844 
L 430.638712 -38.879844 
L 429.646006 -38.879844 
L 428.6533 -38.879844 
L 427.660594 -38.879844 
L 426.667888 -38.879844 
L 425.675182 -38.879844 
L 424.682476 -38.879844 
L 423.689771 -38.879844 
L 422.697065 -38.879844 
L 421.704359 -38.879844 
L 420.711653 -38.879844 
L 419.718947 -38.879844 
L 418.726241 -38.879844 
L 417.733535 -38.879844 
L 416.740829 -38.879844 
L 415.748123 -38.879844 
L 414.755417 -38.879844 
L 413.762711 -38.879844 
L 412.770005 -38.879844 
L 411.777299 -38.879844 
L 410.784593 -38.879844 
L 409.791888 -38.879844 
L 408.799182 -38.879844 
L 407.806476 -38.879844 
L 406.81377 -38.879844 
L 405.821064 -38.879844 
L 404.828358 -38.879844 
L 403.835652 -38.879844 
L 402.842946 -38.879844 
L 401.85024 -38.879844 
L 400.857534 -38.879844 
L 399.864828 -38.879844 
L 398.872122 -38.879844 
L 397.879416 -38.879844 
L 396.886711 -38.879844 
L 395.894005 -38.879844 
L 394.901299 -38.879844 
L 393.908593 -38.879844 
L 392.915887 -38.879844 
L 391.923181 -38.879844 
L 390.930475 -38.879844 
L 389.937769 -38.879844 
L 388.945063 -38.879844 
L 387.952357 -38.879844 
L 386.959651 -38.879844 
L 385.966945 -38.879844 
L 384.974239 -38.879844 
L 383.981534 -38.879844 
L 382.988828 -38.879844 
L 381.996122 -38.879844 
L 381.003416 -38.879844 
L 380.01071 -38.879844 
L 379.018004 -38.879844 
L 378.025298 -38.879844 
L 377.032592 -38.879844 
L 376.039886 -38.879844 
L 375.04718 -38.879844 
L 374.054474 -38.879844 
L 373.061768 -38.879844 
L 372.069062 -38.879844 
L 371.076357 -38.879844 
L 370.083651 -38.879844 
L 369.090945 -38.879844 
L 368.098239 -38.879844 
L 367.105533 -38.879844 
L 366.112827 -38.879844 
L 365.120121 -38.879844 
L 364.127415 -38.879844 
L 363.134709 -38.879844 
L 362.142003 -38.879844 
L 361.149297 -38.879844 
L 360.156591 -38.879844 
L 359.163885 -38.879844 
L 358.17118 -38.879844 
L 357.178474 -38.879844 
L 356.185768 -38.879844 
L 355.193062 -38.879844 
L 354.200356 -38.879844 
L 353.20765 -38.879844 
L 352.214944 -38.879844 
L 351.222238 -38.879844 
L 350.229532 -38.879844 
L 349.236826 -38.879844 
L 348.24412 -38.879844 
L 347.251414 -38.879844 
L 346.258708 -38.879844 
L 345.266002 -38.879844 
L 344.273297 -38.879844 
L 343.280591 -38.879844 
L 342.287885 -38.879844 
L 341.295179 -38.879844 
L 340.302473 -38.879844 
L 339.309767 -38.879844 
L 338.317061 -38.879844 
L 337.324355 -38.879844 
L 336.331649 -38.879844 
L 335.338943 -38.879844 
L 334.346237 -38.879844 
L 333.353531 -38.879844 
L 332.360825 -38.879844 
L 331.36812 -38.879844 
L 330.375414 -38.879844 
L 329.382708 -38.879844 
L 328.390002 -38.879844 
L 327.397296 -38.879844 
L 326.40459 -38.879844 
L 325.411884 -38.879844 
L 324.419178 -38.879844 
L 323.426472 -38.879844 
L 322.433766 -38.879844 
L 321.44106 -38.879844 
L 320.448354 -38.879844 
L 319.455648 -38.879844 
L 318.462943 -38.879844 
L 317.470237 -38.879844 
L 316.477531 -38.879844 
L 315.484825 -38.879844 
L 314.492119 -38.879844 
L 313.499413 -38.879844 
L 312.506707 -38.879844 
L 311.514001 -38.879844 
L 310.521295 -38.879844 
L 309.528589 -38.879844 
L 308.535883 -38.879844 
L 307.543177 -38.879844 
L 306.550471 -38.879844 
L 305.557766 -38.879844 
L 304.56506 -38.879844 
L 303.572354 -38.879844 
L 302.579648 -38.879844 
L 301.586942 -38.879844 
L 300.594236 -38.879844 
L 299.60153 -38.879844 
L 298.608824 -38.879844 
L 297.616118 -38.879844 
L 296.623412 -38.879844 
L 295.630706 -38.879844 
L 294.638 -38.879844 
L 293.645294 -38.879844 
L 292.652589 -38.879844 
L 291.659883 -38.879844 
L 290.667177 -38.879844 
L 289.674471 -38.879844 
L 288.681765 -38.879844 
L 287.689059 -38.879844 
L 286.696353 -38.879844 
L 285.703647 -38.879844 
L 284.710941 -38.879844 
L 283.718235 -38.879844 
L 282.725529 -38.879844 
L 281.732823 -38.879844 
L 280.740117 -38.879844 
L 279.747411 -38.879844 
L 278.754706 -38.879844 
L 277.762 -38.879844 
L 276.769294 -38.879844 
L 275.776588 -38.879844 
L 274.783882 -38.879844 
L 273.791176 -38.879844 
L 272.79847 -38.879844 
L 271.805764 -38.879844 
L 270.813058 -38.879844 
L 269.820352 -38.879844 
L 268.827646 -38.879844 
L 267.83494 -38.879844 
L 266.842234 -38.879844 
L 265.849529 -38.879844 
L 264.856823 -38.879844 
L 263.864117 -38.879844 
L 262.871411 -38.879844 
L 261.878705 -38.879844 
L 260.885999 -38.879844 
L 259.893293 -38.879844 
L 258.900587 -38.879844 
L 257.907881 -38.879844 
L 256.915175 -38.879844 
L 255.922469 -38.879844 
L 254.929763 -38.879844 
L 253.937057 -38.879844 
L 252.944352 -38.879844 
L 251.951646 -38.879844 
L 250.95894 -38.879844 
L 249.966234 -38.879844 
L 248.973528 -38.879844 
L 247.980822 -38.879844 
L 246.988116 -38.879844 
L 245.99541 -38.879844 
L 245.002704 -38.879844 
L 244.009998 -38.879844 
L 243.017292 -38.879844 
L 242.024586 -38.879844 
L 241.03188 -38.879844 
L 240.039175 -38.879844 
L 239.046469 -38.879844 
L 238.053763 -38.879844 
L 237.061057 -38.879844 
L 236.068351 -38.879844 
L 235.075645 -38.879844 
L 234.082939 -38.879844 
L 233.090233 -38.879844 
L 232.097527 -38.879844 
L 231.104821 -38.879844 
L 230.112115 -38.879844 
L 229.119409 -38.879844 
L 228.126703 -38.879844 
L 227.133998 -38.879844 
L 226.141292 -38.879844 
L 225.148586 -38.879844 
L 224.15588 -38.879844 
L 223.163174 -38.879844 
L 222.170468 -38.879844 
L 221.177762 -38.879844 
L 220.185056 -38.879844 
L 219.19235 -38.879844 
L 218.199644 -38.879844 
L 217.206938 -38.879844 
L 216.214232 -38.879844 
L 215.221526 -38.879844 
L 214.22882 -38.879844 
L 213.236115 -38.879844 
L 212.243409 -38.879844 
L 211.250703 -38.879844 
L 210.257997 -38.879844 
L 209.265291 -38.879844 
L 208.272585 -38.879844 
L 207.279879 -38.879844 
L 206.287173 -38.879844 
L 205.294467 -38.879844 
L 204.301761 -38.879844 
L 203.309055 -38.879844 
L 202.316349 -38.879844 
L 201.323643 -38.879844 
L 200.330938 -38.879844 
L 199.338232 -38.879844 
L 198.345526 -38.879844 
L 197.35282 -38.879844 
L 196.360114 -38.879844 
L 195.367408 -38.879844 
L 194.374702 -38.879844 
L 193.381996 -38.879844 
L 192.38929 -38.879844 
L 191.396584 -38.879844 
L 190.403878 -38.879844 
L 189.411172 -38.879844 
L 188.418466 -38.879844 
L 187.425761 -38.879844 
L 186.433055 -38.879844 
L 185.440349 -38.879844 
L 184.447643 -38.879844 
L 183.454937 -38.879844 
L 182.462231 -38.879844 
L 181.469525 -38.879844 
L 180.476819 -38.879844 
L 179.484113 -38.879844 
L 178.491407 -38.879844 
L 177.498701 -38.879844 
L 176.505995 -38.879844 
L 175.513289 -38.879844 
L 174.520584 -38.879844 
L 173.527878 -38.879844 
L 172.535172 -38.879844 
L 171.542466 -38.879844 
L 170.54976 -38.879844 
L 169.557054 -38.879844 
L 168.564348 -38.879844 
L 167.571642 -38.879844 
L 166.578936 -38.879844 
L 165.58623 -38.879844 
L 164.593524 -38.879844 
L 163.600818 -38.879844 
L 162.608112 -38.879844 
L 161.615407 -38.879844 
L 160.622701 -38.879844 
L 159.629995 -38.879844 
L 158.637289 -38.879844 
L 157.644583 -38.879844 
L 156.651877 -38.879844 
L 155.659171 -38.879844 
L 154.666465 -38.879844 
L 153.673759 -38.879844 
L 152.681053 -38.879844 
L 151.688347 -38.879844 
L 150.695641 -38.879844 
L 149.702935 -38.879844 
L 148.710229 -38.879844 
L 147.717524 -38.879844 
L 146.724818 -38.879844 
L 145.732112 -38.879844 
L 144.739406 -38.879844 
L 143.7467 -38.879844 
L 142.753994 -38.879844 
L 141.761288 -38.879844 
L 140.768582 -38.879844 
L 139.775876 -38.879844 
L 138.78317 -38.879844 
L 137.790464 -38.879844 
L 136.797758 -38.879844 
L 135.805052 -38.879844 
L 134.812347 -38.879844 
L 133.819641 -38.879844 
L 132.826935 -38.879844 
L 131.834229 -38.879844 
L 130.841523 -38.879844 
L 129.848817 -38.879844 
L 128.856111 -38.879844 
L 127.863405 -38.879844 
L 126.870699 -38.879844 
L 125.877993 -38.879844 
L 124.885287 -38.879844 
L 123.892581 -38.879844 
L 122.899875 -38.879844 
L 121.90717 -38.879844 
L 120.914464 -38.879844 
L 119.921758 -38.879844 
L 118.929052 -38.879844 
L 117.936346 -38.879844 
L 116.94364 -38.879844 
L 115.950934 -38.879844 
L 114.958228 -38.879844 
L 113.965522 -38.879844 
L 112.972816 -38.879844 
L 111.98011 -38.879844 
L 110.987404 -38.879844 
L 109.994698 -38.879844 
L 109.001993 -38.879844 
L 108.009287 -38.879844 
L 107.016581 -38.879844 
L 106.023875 -38.879844 
L 105.031169 -38.879844 
L 104.038463 -38.879844 
L 103.045757 -38.879844 
L 102.053051 -38.879844 
L 101.060345 -38.879844 
L 100.067639 -38.879844 
L 99.074933 -38.879844 
L 98.082227 -38.879844 
L 97.089521 -38.879844 
L 96.096816 -38.879844 
L 95.10411 -38.879844 
L 94.111404 -38.879844 
L 93.118698 -38.879844 
L 92.125992 -38.879844 
L 91.133286 -38.879844 
L 90.14058 -38.879844 
L 89.147874 -38.879844 
L 88.155168 -38.879844 
L 87.162462 -38.879844 
L 86.169756 -38.879844 
L 85.17705 -38.879844 
L 84.184344 -38.879844 
L 83.191638 -38.879844 
L 82.198933 -38.879844 
L 81.206227 -38.879844 
L 80.213521 -38.879844 
L 79.220815 -38.879844 
L 78.228109 -38.879844 
L 77.235403 -38.879844 
L 76.242697 -38.879844 
L 75.249991 -38.879844 
L 74.257285 -38.879844 
L 73.264579 -38.879844 
L 72.271873 -38.879844 
L 71.279167 -38.879844 
L 70.286461 -38.879844 
L 69.293756 -38.879844 
L 68.30105 -38.879844 
L 67.308344 -38.879844 
L 66.315638 -38.879844 
L 65.322932 -38.879844 
L 64.330226 -38.879844 
L 63.33752 -38.879844 
L 62.344814 -38.879844 
L 61.352108 -38.879844 
L 60.359402 -38.879844 
L 59.366696 -38.879844 
L 58.37399 -38.879844 
L 57.381284 -38.879844 
L 56.388579 -38.879844 
L 55.395873 -38.879844 
L 54.403167 -38.879844 
L 53.410461 -38.879844 
L 52.417755 -38.879844 
L 51.425049 -38.879844 
L 50.432343 -38.879844 
L 49.439637 -38.879844 
L 48.446931 -38.879844 
L 47.454225 -38.879844 
L 46.461519 -38.879844 
L 45.468813 -38.879844 
L 44.476107 -38.879844 
L 43.483402 -38.879844 
L 42.490696 -38.879844 
L 41.49799 -38.879844 
L 40.505284 -38.879844 
L 39.512578 -38.879844 
L 38.519872 -38.879844 
L 37.527166 -38.879844 
L 36.53446 -38.879844 
L 35.541754 -38.879844 
L 34.549048 -38.879844 
L 33.556342 -38.879844 
L 32.563636 -38.879844 
z
" style="stroke: #0173b2; stroke-opacity: 0"/>
    </defs>
    <g clip-path="url(#p7ffa20e433)">
     <use xlink:href="#m20e8c22516" x="0" y="378.189219" style="fill: #0173b2; fill-opacity: 0; stroke: #0173b2; stroke-opacity: 0"/>
    </g>
   </g>
   <g id="line2d_17">
    <path d="M 32.563636 332.650767 
L 34.549048 332.535598 
L 36.53446 332.25957 
L 39.512578 331.52864 
L 41.49799 330.826144 
L 43.483402 329.888274 
L 45.468813 328.750979 
L 47.454225 327.361318 
L 49.439637 325.722168 
L 51.425049 323.797996 
L 53.410461 321.558981 
L 55.395873 319.038038 
L 57.381284 316.196286 
L 59.366696 313.06389 
L 61.352108 309.610106 
L 64.330226 303.872128 
L 67.308344 297.521311 
L 70.286461 290.578766 
L 73.264579 283.097353 
L 77.235403 272.392719 
L 82.198933 258.07554 
L 107.016581 184.119551 
L 110.987404 171.223389 
L 114.958228 157.754265 
L 124.885287 124.044866 
L 128.856111 111.615906 
L 131.834229 102.953331 
L 134.812347 94.853267 
L 137.790464 87.396332 
L 140.768582 80.610012 
L 142.753994 76.499796 
L 144.739406 72.734349 
L 146.724818 69.324052 
L 148.710229 66.280873 
L 150.695641 63.560986 
L 152.681053 61.14663 
L 155.659171 57.896923 
L 171.542466 41.833795 
L 174.520584 39.417431 
L 176.505995 38.207839 
L 178.491407 37.375794 
L 179.484113 37.091724 
L 180.476819 36.928526 
L 182.462231 36.943533 
L 184.447643 37.467461 
L 186.433055 38.383076 
L 188.418466 39.759645 
L 190.403878 41.586665 
L 192.38929 43.760938 
L 194.374702 46.385789 
L 196.360114 49.366802 
L 198.345526 52.726794 
L 201.323643 58.307873 
L 205.294467 66.31892 
L 211.250703 78.301252 
L 215.221526 85.62657 
L 218.199644 90.708224 
L 223.163174 98.71999 
L 230.112115 109.837161 
L 254.929763 150.528758 
L 265.849529 169.586112 
L 271.805764 180.395442 
L 275.776588 188.054726 
L 279.747411 196.11773 
L 294.638 226.683004 
L 299.60153 236.055554 
L 306.550471 248.497251 
L 310.521295 255.232891 
L 314.492119 261.551935 
L 318.462943 267.413859 
L 322.433766 272.846086 
L 327.397296 279.28815 
L 333.353531 286.71947 
L 338.317061 292.533704 
L 341.295179 295.691822 
L 344.273297 298.500551 
L 347.251414 300.904537 
L 349.236826 302.260418 
L 352.214944 303.984923 
L 355.193062 305.38532 
L 358.17118 306.515519 
L 361.149297 307.480472 
L 378.025298 312.532085 
L 382.988828 314.409055 
L 386.959651 316.101812 
L 390.930475 318.009376 
L 395.894005 320.634772 
L 408.799182 327.618271 
L 412.770005 329.340982 
L 415.748123 330.368497 
L 418.726241 331.172428 
L 421.704359 331.740036 
L 424.682476 332.100213 
L 428.6533 332.390686 
L 440.565771 332.872322 
L 445.529301 333.344709 
L 452.478242 334.334531 
L 459.427184 335.323026 
L 464.390713 335.785696 
L 470.346949 336.068067 
L 480.274008 336.46349 
L 486.230244 336.946726 
L 505.091656 338.662574 
L 512.040598 338.981183 
L 517.996833 339.052985 
L 524.945775 338.897328 
L 539.836364 338.394478 
L 539.836364 338.394478 
" clip-path="url(#p7ffa20e433)" style="fill: none; stroke: #0173b2; stroke-width: 1.5; stroke-linecap: round"/>
   </g>
   <g id="line2d_18">
    <path d="M 76.194609 332.958975 
L 338.548573 332.958975 
" clip-path="url(#p7ffa20e433)" style="fill: none; stroke: #1a1a1a; stroke-width: 3"/>
   </g>
   <g id="patch_3">
    <path d="M 7.2 354.429375 
L 565.2 354.429375 
" style="fill: none; stroke: #808080; stroke-width: 1.25; stroke-linejoin: miter; stroke-linecap: square"/>
   </g>
   <g id="text_9">
    <!-- 3.6  -->
    <g style="fill: #262626" transform="translate(56.180859 317.082975) scale(0.12 -0.12)">
     <defs>
      <path id="ArialMT-33" d="M 269 1209 
L 831 1284 
Q 928 806 1161 595 
Q 1394 384 1728 384 
Q 2125 384 2398 659 
Q 2672 934 2672 1341 
Q 2672 1728 2419 1979 
Q 2166 2231 1775 2231 
Q 1616 2231 1378 2169 
L 1441 2663 
Q 1497 2656 1531 2656 
Q 1891 2656 2178 2843 
Q 2466 3031 2466 3422 
Q 2466 3731 2256 3934 
Q 2047 4138 1716 4138 
Q 1388 4138 1169 3931 
Q 950 3725 888 3313 
L 325 3413 
Q 428 3978 793 4289 
Q 1159 4600 1703 4600 
Q 2078 4600 2393 4439 
Q 2709 4278 2876 4000 
Q 3044 3722 3044 3409 
Q 3044 3113 2884 2869 
Q 2725 2625 2413 2481 
Q 2819 2388 3044 2092 
Q 3269 1797 3269 1353 
Q 3269 753 2831 336 
Q 2394 -81 1725 -81 
Q 1122 -81 723 278 
Q 325 638 269 1209 
z
" transform="scale(0.015625)"/>
      <path id="ArialMT-36" d="M 3184 3459 
L 2625 3416 
Q 2550 3747 2413 3897 
Q 2184 4138 1850 4138 
Q 1581 4138 1378 3988 
Q 1113 3794 959 3422 
Q 806 3050 800 2363 
Q 1003 2672 1297 2822 
Q 1591 2972 1913 2972 
Q 2475 2972 2870 2558 
Q 3266 2144 3266 1488 
Q 3266 1056 3080 686 
Q 2894 316 2569 119 
Q 2244 -78 1831 -78 
Q 1128 -78 684 439 
Q 241 956 241 2144 
Q 241 3472 731 4075 
Q 1159 4600 1884 4600 
Q 2425 4600 2770 4297 
Q 3116 3994 3184 3459 
z
M 888 1484 
Q 888 1194 1011 928 
Q 1134 663 1356 523 
Q 1578 384 1822 384 
Q 2178 384 2434 671 
Q 2691 959 2691 1453 
Q 2691 1928 2437 2201 
Q 2184 2475 1800 2475 
Q 1419 2475 1153 2201 
Q 888 1928 888 1484 
z
" transform="scale(0.015625)"/>
      <path id="ArialMT-20" transform="scale(0.015625)"/>
     </defs>
     <use xlink:href="#ArialMT-33"/>
     <use xlink:href="#ArialMT-2e" x="55.615234"/>
     <use xlink:href="#ArialMT-36" x="83.398438"/>
     <use xlink:href="#ArialMT-20" x="139.013672"/>
    </g>
   </g>
   <g id="text_10">
    <!--  13 -->
    <g style="fill: #262626" transform="translate(338.548573 317.082975) scale(0.12 -0.12)">
     <use xlink:href="#ArialMT-20"/>
     <use xlink:href="#ArialMT-31" x="27.783203"/>
     <use xlink:href="#ArialMT-33" x="83.398438"/>
    </g>
   </g>
   <g id="text_11">
    <!-- 94% HDI -->
    <g style="fill: #262626" transform="translate(183.363154 244.053375) scale(0.12 -0.12)">
     <defs>
      <path id="ArialMT-39" d="M 350 1059 
L 891 1109 
Q 959 728 1153 556 
Q 1347 384 1650 384 
Q 1909 384 2104 503 
Q 2300 622 2425 820 
Q 2550 1019 2634 1356 
Q 2719 1694 2719 2044 
Q 2719 2081 2716 2156 
Q 2547 1888 2255 1720 
Q 1963 1553 1622 1553 
Q 1053 1553 659 1965 
Q 266 2378 266 3053 
Q 266 3750 677 4175 
Q 1088 4600 1706 4600 
Q 2153 4600 2523 4359 
Q 2894 4119 3086 3673 
Q 3278 3228 3278 2384 
Q 3278 1506 3087 986 
Q 2897 466 2520 194 
Q 2144 -78 1638 -78 
Q 1100 -78 759 220 
Q 419 519 350 1059 
z
M 2653 3081 
Q 2653 3566 2395 3850 
Q 2138 4134 1775 4134 
Q 1400 4134 1122 3828 
Q 844 3522 844 3034 
Q 844 2597 1108 2323 
Q 1372 2050 1759 2050 
Q 2150 2050 2401 2323 
Q 2653 2597 2653 3081 
z
" transform="scale(0.015625)"/>
      <path id="ArialMT-34" d="M 2069 0 
L 2069 1097 
L 81 1097 
L 81 1613 
L 2172 4581 
L 2631 4581 
L 2631 1613 
L 3250 1613 
L 3250 1097 
L 2631 1097 
L 2631 0 
L 2069 0 
z
M 2069 1613 
L 2069 3678 
L 634 1613 
L 2069 1613 
z
" transform="scale(0.015625)"/>
      <path id="ArialMT-25" d="M 372 3481 
Q 372 3972 619 4315 
Q 866 4659 1334 4659 
Q 1766 4659 2048 4351 
Q 2331 4044 2331 3447 
Q 2331 2866 2045 2552 
Q 1759 2238 1341 2238 
Q 925 2238 648 2547 
Q 372 2856 372 3481 
z
M 1350 4272 
Q 1141 4272 1002 4090 
Q 863 3909 863 3425 
Q 863 2984 1003 2804 
Q 1144 2625 1350 2625 
Q 1563 2625 1702 2806 
Q 1841 2988 1841 3469 
Q 1841 3913 1700 4092 
Q 1559 4272 1350 4272 
z
M 1353 -169 
L 3859 4659 
L 4316 4659 
L 1819 -169 
L 1353 -169 
z
M 3334 1075 
Q 3334 1569 3581 1911 
Q 3828 2253 4300 2253 
Q 4731 2253 5014 1945 
Q 5297 1638 5297 1041 
Q 5297 459 5011 145 
Q 4725 -169 4303 -169 
Q 3888 -169 3611 142 
Q 3334 453 3334 1075 
z
M 4316 1866 
Q 4103 1866 3964 1684 
Q 3825 1503 3825 1019 
Q 3825 581 3965 400 
Q 4106 219 4313 219 
Q 4528 219 4667 400 
Q 4806 581 4806 1063 
Q 4806 1506 4665 1686 
Q 4525 1866 4316 1866 
z
" transform="scale(0.015625)"/>
      <path id="ArialMT-48" d="M 513 0 
L 513 4581 
L 1119 4581 
L 1119 2700 
L 3500 2700 
L 3500 4581 
L 4106 4581 
L 4106 0 
L 3500 0 
L 3500 2159 
L 1119 2159 
L 1119 0 
L 513 0 
z
" transform="scale(0.015625)"/>
      <path id="ArialMT-44" d="M 494 0 
L 494 4581 
L 2072 4581 
Q 2606 4581 2888 4516 
Q 3281 4425 3559 4188 
Q 3922 3881 4101 3404 
Q 4281 2928 4281 2316 
Q 4281 1794 4159 1391 
Q 4038 988 3847 723 
Q 3656 459 3429 307 
Q 3203 156 2883 78 
Q 2563 0 2147 0 
L 494 0 
z
M 1100 541 
L 2078 541 
Q 2531 541 2789 625 
Q 3047 709 3200 863 
Q 3416 1078 3536 1442 
Q 3656 1806 3656 2325 
Q 3656 3044 3420 3430 
Q 3184 3816 2847 3947 
Q 2603 4041 2063 4041 
L 1100 4041 
L 1100 541 
z
" transform="scale(0.015625)"/>
      <path id="ArialMT-49" d="M 597 0 
L 597 4581 
L 1203 4581 
L 1203 0 
L 597 0 
z
" transform="scale(0.015625)"/>
     </defs>
     <use xlink:href="#ArialMT-39"/>
     <use xlink:href="#ArialMT-34" x="55.615234"/>
     <use xlink:href="#ArialMT-25" x="111.230469"/>
     <use xlink:href="#ArialMT-20" x="200.146484"/>
     <use xlink:href="#ArialMT-48" x="227.929688"/>
     <use xlink:href="#ArialMT-44" x="300.146484"/>
     <use xlink:href="#ArialMT-49" x="372.363281"/>
    </g>
   </g>
   <g id="text_12">
    <!-- mean=8.2 -->
    <g style="fill: #262626" transform="translate(174.334193 85.293375) scale(0.12 -0.12)">
     <defs>
      <path id="ArialMT-6d" d="M 422 0 
L 422 3319 
L 925 3319 
L 925 2853 
Q 1081 3097 1340 3245 
Q 1600 3394 1931 3394 
Q 2300 3394 2536 3241 
Q 2772 3088 2869 2813 
Q 3263 3394 3894 3394 
Q 4388 3394 4653 3120 
Q 4919 2847 4919 2278 
L 4919 0 
L 4359 0 
L 4359 2091 
Q 4359 2428 4304 2576 
Q 4250 2725 4106 2815 
Q 3963 2906 3769 2906 
Q 3419 2906 3187 2673 
Q 2956 2441 2956 1928 
L 2956 0 
L 2394 0 
L 2394 2156 
Q 2394 2531 2256 2718 
Q 2119 2906 1806 2906 
Q 1569 2906 1367 2781 
Q 1166 2656 1075 2415 
Q 984 2175 984 1722 
L 984 0 
L 422 0 
z
" transform="scale(0.015625)"/>
      <path id="ArialMT-65" d="M 2694 1069 
L 3275 997 
Q 3138 488 2766 206 
Q 2394 -75 1816 -75 
Q 1088 -75 661 373 
Q 234 822 234 1631 
Q 234 2469 665 2931 
Q 1097 3394 1784 3394 
Q 2450 3394 2872 2941 
Q 3294 2488 3294 1666 
Q 3294 1616 3291 1516 
L 816 1516 
Q 847 969 1125 678 
Q 1403 388 1819 388 
Q 2128 388 2347 550 
Q 2566 713 2694 1069 
z
M 847 1978 
L 2700 1978 
Q 2663 2397 2488 2606 
Q 2219 2931 1791 2931 
Q 1403 2931 1139 2672 
Q 875 2413 847 1978 
z
" transform="scale(0.015625)"/>
      <path id="ArialMT-61" d="M 2588 409 
Q 2275 144 1986 34 
Q 1697 -75 1366 -75 
Q 819 -75 525 192 
Q 231 459 231 875 
Q 231 1119 342 1320 
Q 453 1522 633 1644 
Q 813 1766 1038 1828 
Q 1203 1872 1538 1913 
Q 2219 1994 2541 2106 
Q 2544 2222 2544 2253 
Q 2544 2597 2384 2738 
Q 2169 2928 1744 2928 
Q 1347 2928 1158 2789 
Q 969 2650 878 2297 
L 328 2372 
Q 403 2725 575 2942 
Q 747 3159 1072 3276 
Q 1397 3394 1825 3394 
Q 2250 3394 2515 3294 
Q 2781 3194 2906 3042 
Q 3031 2891 3081 2659 
Q 3109 2516 3109 2141 
L 3109 1391 
Q 3109 606 3145 398 
Q 3181 191 3288 0 
L 2700 0 
Q 2613 175 2588 409 
z
M 2541 1666 
Q 2234 1541 1622 1453 
Q 1275 1403 1131 1340 
Q 988 1278 909 1158 
Q 831 1038 831 891 
Q 831 666 1001 516 
Q 1172 366 1500 366 
Q 1825 366 2078 508 
Q 2331 650 2450 897 
Q 2541 1088 2541 1459 
L 2541 1666 
z
" transform="scale(0.015625)"/>
      <path id="ArialMT-6e" d="M 422 0 
L 422 3319 
L 928 3319 
L 928 2847 
Q 1294 3394 1984 3394 
Q 2284 3394 2536 3286 
Q 2788 3178 2913 3003 
Q 3038 2828 3088 2588 
Q 3119 2431 3119 2041 
L 3119 0 
L 2556 0 
L 2556 2019 
Q 2556 2363 2490 2533 
Q 2425 2703 2258 2804 
Q 2091 2906 1866 2906 
Q 1506 2906 1245 2678 
Q 984 2450 984 1813 
L 984 0 
L 422 0 
z
" transform="scale(0.015625)"/>
      <path id="ArialMT-3d" d="M 3381 2694 
L 356 2694 
L 356 3219 
L 3381 3219 
L 3381 2694 
z
M 3381 1303 
L 356 1303 
L 356 1828 
L 3381 1828 
L 3381 1303 
z
" transform="scale(0.015625)"/>
      <path id="ArialMT-38" d="M 1131 2484 
Q 781 2613 612 2850 
Q 444 3088 444 3419 
Q 444 3919 803 4259 
Q 1163 4600 1759 4600 
Q 2359 4600 2725 4251 
Q 3091 3903 3091 3403 
Q 3091 3084 2923 2848 
Q 2756 2613 2416 2484 
Q 2838 2347 3058 2040 
Q 3278 1734 3278 1309 
Q 3278 722 2862 322 
Q 2447 -78 1769 -78 
Q 1091 -78 675 323 
Q 259 725 259 1325 
Q 259 1772 486 2073 
Q 713 2375 1131 2484 
z
M 1019 3438 
Q 1019 3113 1228 2906 
Q 1438 2700 1772 2700 
Q 2097 2700 2305 2904 
Q 2513 3109 2513 3406 
Q 2513 3716 2298 3927 
Q 2084 4138 1766 4138 
Q 1444 4138 1231 3931 
Q 1019 3725 1019 3438 
z
M 838 1322 
Q 838 1081 952 856 
Q 1066 631 1291 507 
Q 1516 384 1775 384 
Q 2178 384 2440 643 
Q 2703 903 2703 1303 
Q 2703 1709 2433 1975 
Q 2163 2241 1756 2241 
Q 1359 2241 1098 1978 
Q 838 1716 838 1322 
z
" transform="scale(0.015625)"/>
     </defs>
     <use xlink:href="#ArialMT-6d"/>
     <use xlink:href="#ArialMT-65" x="83.300781"/>
     <use xlink:href="#ArialMT-61" x="138.916016"/>
     <use xlink:href="#ArialMT-6e" x="194.53125"/>
     <use xlink:href="#ArialMT-3d" x="250.146484"/>
     <use xlink:href="#ArialMT-38" x="308.544922"/>
     <use xlink:href="#ArialMT-2e" x="364.160156"/>
     <use xlink:href="#ArialMT-32" x="391.943359"/>
    </g>
   </g>
   <g id="text_13">
    <!-- mu_A -->
    <g style="fill: #262626" transform="translate(270.526875 15.789375) scale(0.12 -0.12)">
     <defs>
      <path id="ArialMT-75" d="M 2597 0 
L 2597 488 
Q 2209 -75 1544 -75 
Q 1250 -75 995 37 
Q 741 150 617 320 
Q 494 491 444 738 
Q 409 903 409 1263 
L 409 3319 
L 972 3319 
L 972 1478 
Q 972 1038 1006 884 
Q 1059 663 1231 536 
Q 1403 409 1656 409 
Q 1909 409 2131 539 
Q 2353 669 2445 892 
Q 2538 1116 2538 1541 
L 2538 3319 
L 3100 3319 
L 3100 0 
L 2597 0 
z
" transform="scale(0.015625)"/>
      <path id="ArialMT-5f" d="M -97 -1272 
L -97 -866 
L 3631 -866 
L 3631 -1272 
L -97 -1272 
z
" transform="scale(0.015625)"/>
      <path id="ArialMT-41" d="M -9 0 
L 1750 4581 
L 2403 4581 
L 4278 0 
L 3588 0 
L 3053 1388 
L 1138 1388 
L 634 0 
L -9 0 
z
M 1313 1881 
L 2866 1881 
L 2388 3150 
Q 2169 3728 2063 4100 
Q 1975 3659 1816 3225 
L 1313 1881 
z
" transform="scale(0.015625)"/>
     </defs>
     <use xlink:href="#ArialMT-6d"/>
     <use xlink:href="#ArialMT-75" x="83.300781"/>
     <use xlink:href="#ArialMT-5f" x="138.916016"/>
     <use xlink:href="#ArialMT-41" x="194.53125"/>
    </g>
   </g>
  </g>
 </g>
 <defs>
  <clipPath id="p7ffa20e433">
   <rect x="7.2" y="21.789375" width="558" height="332.64"/>
  </clipPath>
 </defs>
</svg>