<?xml version="1.0" encoding="utf-8" standalone="no"?>
<!DOCTYPE svg PUBLIC "-//W3C//DTD SVG 1.1//EN"
  "http://www.w3.org/Graphics/SVG/1.1/DTD/svg11.dtd">
<svg xmlns:xlink="http://www.w3.org/1999/xlink" width="580.396364pt" height="378.189219pt" viewBox="0 0 580.396364 378.189219" xmlns="http://www.w3.org/2000/svg" version="1.1">
 <metadata>
  <rdf:RDF xmlns:dc="http://purl.org/dc/elements/1.1/" xmlns:cc="http://creativecommons.org/ns#" xmlns:rdf="http://www.w3.org/1999/02/22-rdf-syntax-ns#">
   <cc:Work>
    <dc:type rdf:resource="http://purl.org/dc/dcmitype/StillImage"/>
    <dc:date>2023-05-30T05:39:35.533611</dc:date>
    <dc:format>image/svg+xml</dc:format>
    <dc:creator>
     <cc:Agent>
      <dc:title>Matplotlib v3.7.1, https://matplotlib.org/</dc:title>
     </cc:Agent>
    </dc:creator>
   </cc:Work>
  </rdf:RDF>
 </metadata>
 <defs>
  <style type="text/css">*{stroke-linejoin: round; stroke-linecap: butt}</style>
 </defs>
 <g id="figure_1">
  <g id="patch_1">
   <path d="M 0 378.189219 
L 580.396364 378.189219 
L 580.396364 0 
L 0 0 
z
" style="fill: #ffffff"/>
  </g>
  <g id="axes_1">
   <g id="patch_2">
    <path d="M 15.196364 354.429375 
L 573.196364 354.429375 
L 573.196364 21.789375 
L 15.196364 21.789375 
z
" style="fill: #eaeaf2"/>
   </g>
   <g id="matplotlib.axis_1">
    <g id="xtick_1">
     <g id="line2d_1">
      <path d="M 40.551188 354.429375 
L 40.551188 21.789375 
" clip-path="url(#pe17a86bd31)" style="fill: none; stroke: #ffffff; stroke-linecap: round"/>
     </g>
     <g id="line2d_2">
      <defs>
       <path id="mfcf018bac5" d="M 0 0 
L 0 3 
" style="stroke: #808080"/>
      </defs>
      <g>
       <use xlink:href="#mfcf018bac5" x="40.551188" y="354.429375" style="fill: #808080; stroke: #808080"/>
      </g>
     </g>
     <g id="text_1">
      <!-- 0 -->
      <g style="fill: #262626" transform="translate(37.492673 368.802969) scale(0.11 -0.11)">
       <defs>
        <path id="ArialMT-30" d="M 266 2259 
Q 266 3072 433 3567 
Q 600 4063 929 4331 
Q 1259 4600 1759 4600 
Q 2128 4600 2406 4451 
Q 2684 4303 2865 4023 
Q 3047 3744 3150 3342 
Q 3253 2941 3253 2259 
Q 3253 1453 3087 958 
Q 2922 463 2592 192 
Q 2263 -78 1759 -78 
Q 1097 -78 719 397 
Q 266 969 266 2259 
z
M 844 2259 
Q 844 1131 1108 757 
Q 1372 384 1759 384 
Q 2147 384 2411 759 
Q 2675 1134 2675 2259 
Q 2675 3391 2411 3762 
Q 2147 4134 1753 4134 
Q 1366 4134 1134 3806 
Q 844 3388 844 2259 
z
" transform="scale(0.015625)"/>
       </defs>
       <use xlink:href="#ArialMT-30"/>
      </g>
     </g>
    </g>
    <g id="xtick_2">
     <g id="line2d_3">
      <path d="M 127.195058 354.429375 
L 127.195058 21.789375 
" clip-path="url(#pe17a86bd31)" style="fill: none; stroke: #ffffff; stroke-linecap: round"/>
     </g>
     <g id="line2d_4">
      <g>
       <use xlink:href="#mfcf018bac5" x="127.195058" y="354.429375" style="fill: #808080; stroke: #808080"/>
      </g>
     </g>
     <g id="text_2">
      <!-- 20 -->
      <g style="fill: #262626" transform="translate(121.078026 368.802969) scale(0.11 -0.11)">
       <defs>
        <path id="ArialMT-32" d="M 3222 541 
L 3222 0 
L 194 0 
Q 188 203 259 391 
Q 375 700 629 1000 
Q 884 1300 1366 1694 
Q 2113 2306 2375 2664 
Q 2638 3022 2638 3341 
Q 2638 3675 2398 3904 
Q 2159 4134 1775 4134 
Q 1369 4134 1125 3890 
Q 881 3647 878 3216 
L 300 3275 
Q 359 3922 746 4261 
Q 1134 4600 1788 4600 
Q 2447 4600 2831 4234 
Q 3216 3869 3216 3328 
Q 3216 3053 3103 2787 
Q 2991 2522 2730 2228 
Q 2469 1934 1863 1422 
Q 1356 997 1212 845 
Q 1069 694 975 541 
L 3222 541 
z
" transform="scale(0.015625)"/>
       </defs>
       <use xlink:href="#ArialMT-32"/>
       <use xlink:href="#ArialMT-30" x="55.615234"/>
      </g>
     </g>
    </g>
    <g id="xtick_3">
     <g id="line2d_5">
      <path d="M 213.838927 354.429375 
L 213.838927 21.789375 
" clip-path="url(#pe17a86bd31)" style="fill: none; stroke: #ffffff; stroke-linecap: round"/>
     </g>
     <g id="line2d_6">
      <g>
       <use xlink:href="#mfcf018bac5" x="213.838927" y="354.429375" style="fill: #808080; stroke: #808080"/>
      </g>
     </g>
     <g id="text_3">
      <!-- 40 -->
      <g style="fill: #262626" transform="translate(207.721896 368.802969) scale(0.11 -0.11)">
       <defs>
        <path id="ArialMT-34" d="M 2069 0 
L 2069 1097 
L 81 1097 
L 81 1613 
L 2172 4581 
L 2631 4581 
L 2631 1613 
L 3250 1613 
L 3250 1097 
L 2631 1097 
L 2631 0 
L 2069 0 
z
M 2069 1613 
L 2069 3678 
L 634 1613 
L 2069 1613 
z
" transform="scale(0.015625)"/>
       </defs>
       <use xlink:href="#ArialMT-34"/>
       <use xlink:href="#ArialMT-30" x="55.615234"/>
      </g>
     </g>
    </g>
    <g id="xtick_4">
     <g id="line2d_7">
      <path d="M 300.482796 354.429375 
L 300.482796 21.789375 
" clip-path="url(#pe17a86bd31)" style="fill: none; stroke: #ffffff; stroke-linecap: round"/>
     </g>
     <g id="line2d_8">
      <g>
       <use xlink:href="#mfcf018bac5" x="300.482796" y="354.429375" style="fill: #808080; stroke: #808080"/>
      </g>
     </g>
     <g id="text_4">
      <!-- 60 -->
      <g style="fill: #262626" transform="translate(294.365765 368.802969) scale(0.11 -0.11)">
       <defs>
        <path id="ArialMT-36" d="M 3184 3459 
L 2625 3416 
Q 2550 3747 2413 3897 
Q 2184 4138 1850 4138 
Q 1581 4138 1378 3988 
Q 1113 3794 959 3422 
Q 806 3050 800 2363 
Q 1003 2672 1297 2822 
Q 1591 2972 1913 2972 
Q 2475 2972 2870 2558 
Q 3266 2144 3266 1488 
Q 3266 1056 3080 686 
Q 2894 316 2569 119 
Q 2244 -78 1831 -78 
Q 1128 -78 684 439 
Q 241 956 241 2144 
Q 241 3472 731 4075 
Q 1159 4600 1884 4600 
Q 2425 4600 2770 4297 
Q 3116 3994 3184 3459 
z
M 888 1484 
Q 888 1194 1011 928 
Q 1134 663 1356 523 
Q 1578 384 1822 384 
Q 2178 384 2434 671 
Q 2691 959 2691 1453 
Q 2691 1928 2437 2201 
Q 2184 2475 1800 2475 
Q 1419 2475 1153 2201 
Q 888 1928 888 1484 
z
" transform="scale(0.015625)"/>
       </defs>
       <use xlink:href="#ArialMT-36"/>
       <use xlink:href="#ArialMT-30" x="55.615234"/>
      </g>
     </g>
    </g>
    <g id="xtick_5">
     <g id="line2d_9">
      <path d="M 387.126665 354.429375 
L 387.126665 21.789375 
" clip-path="url(#pe17a86bd31)" style="fill: none; stroke: #ffffff; stroke-linecap: round"/>
     </g>
     <g id="line2d_10">
      <g>
       <use xlink:href="#mfcf018bac5" x="387.126665" y="354.429375" style="fill: #808080; stroke: #808080"/>
      </g>
     </g>
     <g id="text_5">
      <!-- 80 -->
      <g style="fill: #262626" transform="translate(381.009634 368.802969) scale(0.11 -0.11)">
       <defs>
        <path id="ArialMT-38" d="M 1131 2484 
Q 781 2613 612 2850 
Q 444 3088 444 3419 
Q 444 3919 803 4259 
Q 1163 4600 1759 4600 
Q 2359 4600 2725 4251 
Q 3091 3903 3091 3403 
Q 3091 3084 2923 2848 
Q 2756 2613 2416 2484 
Q 2838 2347 3058 2040 
Q 3278 1734 3278 1309 
Q 3278 722 2862 322 
Q 2447 -78 1769 -78 
Q 1091 -78 675 323 
Q 259 725 259 1325 
Q 259 1772 486 2073 
Q 713 2375 1131 2484 
z
M 1019 3438 
Q 1019 3113 1228 2906 
Q 1438 2700 1772 2700 
Q 2097 2700 2305 2904 
Q 2513 3109 2513 3406 
Q 2513 3716 2298 3927 
Q 2084 4138 1766 4138 
Q 1444 4138 1231 3931 
Q 1019 3725 1019 3438 
z
M 838 1322 
Q 838 1081 952 856 
Q 1066 631 1291 507 
Q 1516 384 1775 384 
Q 2178 384 2440 643 
Q 2703 903 2703 1303 
Q 2703 1709 2433 1975 
Q 2163 2241 1756 2241 
Q 1359 2241 1098 1978 
Q 838 1716 838 1322 
z
" transform="scale(0.015625)"/>
       </defs>
       <use xlink:href="#ArialMT-38"/>
       <use xlink:href="#ArialMT-30" x="55.615234"/>
      </g>
     </g>
    </g>
    <g id="xtick_6">
     <g id="line2d_11">
      <path d="M 473.770535 354.429375 
L 473.770535 21.789375 
" clip-path="url(#pe17a86bd31)" style="fill: none; stroke: #ffffff; stroke-linecap: round"/>
     </g>
     <g id="line2d_12">
      <g>
       <use xlink:href="#mfcf018bac5" x="473.770535" y="354.429375" style="fill: #808080; stroke: #808080"/>
      </g>
     </g>
     <g id="text_6">
      <!-- 100 -->
      <g style="fill: #262626" transform="translate(464.594988 368.802969) scale(0.11 -0.11)">
       <defs>
        <path id="ArialMT-31" d="M 2384 0 
L 1822 0 
L 1822 3584 
Q 1619 3391 1289 3197 
Q 959 3003 697 2906 
L 697 3450 
Q 1169 3672 1522 3987 
Q 1875 4303 2022 4600 
L 2384 4600 
L 2384 0 
z
" transform="scale(0.015625)"/>
       </defs>
       <use xlink:href="#ArialMT-31"/>
       <use xlink:href="#ArialMT-30" x="55.615234"/>
       <use xlink:href="#ArialMT-30" x="111.230469"/>
      </g>
     </g>
    </g>
    <g id="xtick_7">
     <g id="line2d_13">
      <path d="M 560.414404 354.429375 
L 560.414404 21.789375 
" clip-path="url(#pe17a86bd31)" style="fill: none; stroke: #ffffff; stroke-linecap: round"/>
     </g>
     <g id="line2d_14">
      <g>
       <use xlink:href="#mfcf018bac5" x="560.414404" y="354.429375" style="fill: #808080; stroke: #808080"/>
      </g>
     </g>
     <g id="text_7">
      <!-- 120 -->
      <g style="fill: #262626" transform="translate(551.238857 368.802969) scale(0.11 -0.11)">
       <use xlink:href="#ArialMT-31"/>
       <use xlink:href="#ArialMT-32" x="55.615234"/>
       <use xlink:href="#ArialMT-30" x="111.230469"/>
      </g>
     </g>
    </g>
   </g>
   <g id="matplotlib.axis_2"/>
   <g id="PolyCollection_1">
    <defs>
     <path id="m3f64b5a11d" d="M 41.055868 -38.879844 
L 41.055868 -341.279844 
L 42.047603 -340.88818 
L 43.039339 -339.807352 
L 44.031074 -338.045284 
L 45.02281 -335.619298 
L 46.014545 -332.542582 
L 47.006281 -328.865246 
L 47.998017 -324.647214 
L 48.989752 -319.887184 
L 49.981488 -314.649729 
L 50.973223 -308.995599 
L 51.964959 -302.93889 
L 52.956694 -296.580624 
L 53.94843 -290.063187 
L 54.940165 -283.422747 
L 55.931901 -276.819922 
L 56.923636 -270.304667 
L 57.915372 -264.017306 
L 58.907107 -258.008413 
L 59.898843 -252.30827 
L 60.890579 -246.922729 
L 61.882314 -241.850259 
L 62.87405 -237.125843 
L 63.865785 -232.746421 
L 64.857521 -228.66079 
L 65.849256 -224.889381 
L 66.840992 -221.453873 
L 67.832727 -218.317943 
L 68.824463 -215.459535 
L 69.816198 -212.853501 
L 70.807934 -210.452671 
L 71.799669 -208.171975 
L 72.791405 -206.017439 
L 73.78314 -203.957253 
L 74.774876 -201.91643 
L 75.766612 -199.902629 
L 76.758347 -197.872839 
L 77.750083 -195.831206 
L 78.741818 -193.759022 
L 79.733554 -191.583824 
L 80.725289 -189.319403 
L 81.717025 -186.899125 
L 82.70876 -184.288977 
L 83.700496 -181.502353 
L 84.692231 -178.517567 
L 85.683967 -175.357815 
L 86.675702 -172.116805 
L 87.667438 -168.831909 
L 88.659174 -165.619311 
L 89.650909 -162.517783 
L 90.642645 -159.601308 
L 91.63438 -156.909598 
L 92.626116 -154.410393 
L 93.617851 -152.045585 
L 94.609587 -149.829617 
L 95.601322 -147.693518 
L 96.593058 -145.60518 
L 97.584793 -143.508789 
L 98.576529 -141.405844 
L 99.568264 -139.304312 
L 100.56 -137.19778 
L 101.551736 -135.121479 
L 102.543471 -133.099739 
L 103.535207 -131.155248 
L 104.526942 -129.287974 
L 105.518678 -127.507483 
L 106.510413 -125.808733 
L 107.502149 -124.211102 
L 108.493884 -122.673345 
L 109.48562 -121.173725 
L 110.477355 -119.7016 
L 111.469091 -118.231222 
L 112.460826 -116.747998 
L 113.452562 -115.262454 
L 114.444298 -113.757486 
L 115.436033 -112.239353 
L 116.427769 -110.702387 
L 117.419504 -109.184908 
L 118.41124 -107.685118 
L 119.402975 -106.231685 
L 120.394711 -104.846836 
L 121.386446 -103.504401 
L 122.378182 -102.245558 
L 123.369917 -101.066018 
L 124.361653 -99.974681 
L 125.353388 -98.9734 
L 126.345124 -98.004908 
L 127.33686 -97.091208 
L 128.328595 -96.252057 
L 129.320331 -95.46435 
L 130.312066 -94.70727 
L 131.303802 -93.985705 
L 132.295537 -93.279196 
L 133.287273 -92.553 
L 134.279008 -91.774835 
L 135.270744 -90.948413 
L 136.262479 -90.021642 
L 137.254215 -89.012482 
L 138.24595 -87.904438 
L 139.237686 -86.686535 
L 140.229421 -85.416366 
L 141.221157 -84.112173 
L 142.212893 -82.810648 
L 143.204628 -81.559109 
L 144.196364 -80.386547 
L 145.188099 -79.301242 
L 146.179835 -78.322417 
L 147.17157 -77.434584 
L 148.163306 -76.637152 
L 149.155041 -75.860855 
L 150.146777 -75.074659 
L 151.138512 -74.249159 
L 152.130248 -73.374278 
L 153.121983 -72.441368 
L 154.113719 -71.4373 
L 155.105455 -70.403516 
L 156.09719 -69.362145 
L 157.088926 -68.353214 
L 158.080661 -67.428711 
L 159.072397 -66.601567 
L 160.064132 -65.889512 
L 161.055868 -65.296468 
L 162.047603 -64.807523 
L 163.039339 -64.406805 
L 164.031074 -64.063122 
L 165.02281 -63.747528 
L 166.014545 -63.421752 
L 167.006281 -63.056851 
L 167.998017 -62.657977 
L 168.989752 -62.204869 
L 169.981488 -61.706283 
L 170.973223 -61.191937 
L 171.964959 -60.660258 
L 172.956694 -60.145113 
L 173.94843 -59.646141 
L 174.940165 -59.199726 
L 175.931901 -58.806462 
L 176.923636 -58.485408 
L 177.915372 -58.231476 
L 178.907107 -58.037055 
L 179.898843 -57.887511 
L 180.890579 -57.779206 
L 181.882314 -57.66719 
L 182.87405 -57.532259 
L 183.865785 -57.346131 
L 184.857521 -57.081641 
L 185.849256 -56.737672 
L 186.840992 -56.312941 
L 187.832727 -55.817676 
L 188.824463 -55.268229 
L 189.816198 -54.694609 
L 190.807934 -54.132405 
L 191.799669 -53.600024 
L 192.791405 -53.148826 
L 193.78314 -52.768093 
L 194.774876 -52.479082 
L 195.766612 -52.283462 
L 196.758347 -52.166903 
L 197.750083 -52.11441 
L 198.741818 -52.109215 
L 199.733554 -52.137996 
L 200.725289 -52.180291 
L 201.717025 -52.213654 
L 202.70876 -52.21499 
L 203.700496 -52.185617 
L 204.692231 -52.101031 
L 205.683967 -51.958688 
L 206.675702 -51.749662 
L 207.667438 -51.490797 
L 208.659174 -51.189942 
L 209.650909 -50.856235 
L 210.642645 -50.509272 
L 211.63438 -50.175959 
L 212.626116 -49.856612 
L 213.617851 -49.573222 
L 214.609587 -49.320481 
L 215.601322 -49.097887 
L 216.593058 -48.90308 
L 217.584793 -48.724681 
L 218.576529 -48.553699 
L 219.568264 -48.388496 
L 220.56 -48.218187 
L 221.551736 -48.042736 
L 222.543471 -47.855201 
L 223.535207 -47.659599 
L 224.526942 -47.451273 
L 225.518678 -47.24526 
L 226.510413 -47.02988 
L 227.502149 -46.815861 
L 228.493884 -46.609791 
L 229.48562 -46.409888 
L 230.477355 -46.219577 
L 231.469091 -46.037403 
L 232.460826 -45.872447 
L 233.452562 -45.720822 
L 234.444298 -45.578162 
L 235.436033 -45.439904 
L 236.427769 -45.302703 
L 237.419504 -45.172173 
L 238.41124 -45.036681 
L 239.402975 -44.897221 
L 240.394711 -44.754463 
L 241.386446 -44.618937 
L 242.378182 -44.486466 
L 243.369917 -44.353798 
L 244.361653 -44.232005 
L 245.353388 -44.113537 
L 246.345124 -44.00228 
L 247.33686 -43.888782 
L 248.328595 -43.764619 
L 249.320331 -43.628077 
L 250.312066 -43.474021 
L 251.303802 -43.299997 
L 252.295537 -43.113112 
L 253.287273 -42.912206 
L 254.279008 -42.699865 
L 255.270744 -42.492725 
L 256.262479 -42.29789 
L 257.254215 -42.130388 
L 258.24595 -41.992578 
L 259.237686 -41.891289 
L 260.229421 -41.831636 
L 261.221157 -41.815028 
L 262.212893 -41.828679 
L 263.204628 -41.870636 
L 264.196364 -41.918441 
L 265.188099 -41.975672 
L 266.179835 -42.028495 
L 267.17157 -42.063108 
L 268.163306 -42.082979 
L 269.155041 -42.083488 
L 270.146777 -42.068669 
L 271.138512 -42.035764 
L 272.130248 -41.992616 
L 273.121983 -41.943166 
L 274.113719 -41.888518 
L 275.105455 -41.835161 
L 276.09719 -41.788468 
L 277.088926 -41.747805 
L 278.080661 -41.715122 
L 279.072397 -41.690693 
L 280.064132 -41.676486 
L 281.055868 -41.664865 
L 282.047603 -41.656891 
L 283.039339 -41.650074 
L 284.031074 -41.640466 
L 285.02281 -41.634989 
L 286.014545 -41.635007 
L 287.006281 -41.628914 
L 287.998017 -41.624422 
L 288.989752 -41.619492 
L 289.981488 -41.618578 
L 290.973223 -41.615007 
L 291.964959 -41.608969 
L 292.956694 -41.604333 
L 293.94843 -41.597477 
L 294.940165 -41.588832 
L 295.931901 -41.577299 
L 296.923636 -41.55932 
L 297.915372 -41.530344 
L 298.907107 -41.494555 
L 299.898843 -41.443695 
L 300.890579 -41.38067 
L 301.882314 -41.299565 
L 302.87405 -41.203836 
L 303.865785 -41.100106 
L 304.857521 -40.987114 
L 305.849256 -40.875699 
L 306.840992 -40.769747 
L 307.832727 -40.672198 
L 308.824463 -40.588188 
L 309.816198 -40.516896 
L 310.807934 -40.462625 
L 311.799669 -40.418553 
L 312.791405 -40.380437 
L 313.78314 -40.345018 
L 314.774876 -40.308553 
L 315.766612 -40.273348 
L 316.758347 -40.23167 
L 317.750083 -40.184772 
L 318.741818 -40.139462 
L 319.733554 -40.094357 
L 320.725289 -40.054873 
L 321.717025 -40.02585 
L 322.70876 -40.011702 
L 323.700496 -40.011435 
L 324.692231 -40.026739 
L 325.683967 -40.058395 
L 326.675702 -40.096042 
L 327.667438 -40.138555 
L 328.659174 -40.176755 
L 329.650909 -40.208187 
L 330.642645 -40.224464 
L 331.63438 -40.222259 
L 332.626116 -40.199784 
L 333.617851 -40.164739 
L 334.609587 -40.117243 
L 335.601322 -40.060947 
L 336.593058 -40.004867 
L 337.584793 -39.949412 
L 338.576529 -39.898163 
L 339.568264 -39.852284 
L 340.56 -39.809398 
L 341.551736 -39.767426 
L 342.543471 -39.723797 
L 343.535207 -39.675943 
L 344.526942 -39.625733 
L 345.518678 -39.569552 
L 346.510413 -39.50935 
L 347.502149 -39.443626 
L 348.493884 -39.38422 
L 349.48562 -39.327907 
L 350.477355 -39.282184 
L 351.469091 -39.247796 
L 352.460826 -39.228624 
L 353.452562 -39.225132 
L 354.444298 -39.23627 
L 355.436033 -39.260925 
L 356.427769 -39.29461 
L 357.419504 -39.333879 
L 358.41124 -39.378759 
L 359.402975 -39.422452 
L 360.394711 -39.461225 
L 361.386446 -39.493463 
L 362.378182 -39.521144 
L 363.369917 -39.542331 
L 364.361653 -39.562144 
L 365.353388 -39.576446 
L 366.345124 -39.587975 
L 367.33686 -39.59752 
L 368.328595 -39.606953 
L 369.320331 -39.614506 
L 370.312066 -39.620998 
L 371.303802 -39.626268 
L 372.295537 -39.629988 
L 373.287273 -39.63162 
L 374.279008 -39.630376 
L 375.270744 -39.6244 
L 376.262479 -39.61364 
L 377.254215 -39.596653 
L 378.24595 -39.575973 
L 379.237686 -39.545994 
L 380.229421 -39.509459 
L 381.221157 -39.469223 
L 382.212893 -39.425117 
L 383.204628 -39.381096 
L 384.196364 -39.339867 
L 385.188099 -39.306066 
L 386.179835 -39.282427 
L 387.17157 -39.271527 
L 388.163306 -39.274038 
L 389.155041 -39.287086 
L 390.146777 -39.3082 
L 391.138512 -39.336279 
L 392.130248 -39.365635 
L 393.121983 -39.391443 
L 394.113719 -39.409326 
L 395.105455 -39.418883 
L 396.09719 -39.417703 
L 397.088926 -39.408599 
L 398.080661 -39.391707 
L 399.072397 -39.369914 
L 400.064132 -39.345355 
L 401.055868 -39.322484 
L 402.047603 -39.301568 
L 403.039339 -39.283308 
L 404.031074 -39.268928 
L 405.02281 -39.255679 
L 406.014545 -39.243318 
L 407.006281 -39.230826 
L 407.998017 -39.217463 
L 408.989752 -39.202889 
L 409.981488 -39.185563 
L 410.973223 -39.16987 
L 411.964959 -39.152878 
L 412.956694 -39.136498 
L 413.94843 -39.121901 
L 414.940165 -39.108033 
L 415.931901 -39.094913 
L 416.923636 -39.082225 
L 417.915372 -39.069446 
L 418.907107 -39.057467 
L 419.898843 -39.043191 
L 420.890579 -39.029434 
L 421.882314 -39.01523 
L 422.87405 -39.000575 
L 423.865785 -38.988478 
L 424.857521 -38.978637 
L 425.849256 -38.973474 
L 426.840992 -38.971741 
L 427.832727 -38.97374 
L 428.824463 -38.981275 
L 429.816198 -38.99234 
L 430.807934 -39.005986 
L 431.799669 -39.021015 
L 432.791405 -39.036148 
L 433.78314 -39.050181 
L 434.774876 -39.06209 
L 435.766612 -39.071746 
L 436.758347 -39.078765 
L 437.750083 -39.082493 
L 438.741818 -39.08313 
L 439.733554 -39.081057 
L 440.725289 -39.076812 
L 441.717025 -39.071065 
L 442.70876 -39.064564 
L 443.700496 -39.058052 
L 444.692231 -39.052154 
L 445.683967 -39.047252 
L 446.675702 -39.04485 
L 447.667438 -39.042787 
L 448.659174 -39.041439 
L 449.650909 -39.040247 
L 450.642645 -39.037889 
L 451.63438 -39.036054 
L 452.626116 -39.033391 
L 453.617851 -39.030273 
L 454.609587 -39.02725 
L 455.601322 -39.02487 
L 456.593058 -39.023493 
L 457.584793 -39.022326 
L 458.576529 -39.022979 
L 459.568264 -39.023364 
L 460.56 -39.022619 
L 461.551736 -39.019872 
L 462.543471 -39.014462 
L 463.535207 -39.006101 
L 464.526942 -38.994949 
L 465.518678 -38.981577 
L 466.510413 -38.966847 
L 467.502149 -38.950938 
L 468.493884 -38.938244 
L 469.48562 -38.926334 
L 470.477355 -38.916801 
L 471.469091 -38.910181 
L 472.460826 -38.906797 
L 473.452562 -38.906797 
L 474.444298 -38.910181 
L 475.436033 -38.916801 
L 476.427769 -38.926334 
L 477.419504 -38.938244 
L 478.41124 -38.950938 
L 479.402975 -38.965387 
L 480.394711 -38.979033 
L 481.386446 -38.990678 
L 482.378182 -38.999191 
L 483.369917 -39.00369 
L 484.361653 -39.00369 
L 485.353388 -38.999191 
L 486.345124 -38.990678 
L 487.33686 -38.979033 
L 488.328595 -38.965387 
L 489.320331 -38.950938 
L 490.312066 -38.936783 
L 491.303802 -38.92379 
L 492.295537 -38.91253 
L 493.287273 -38.903272 
L 494.279008 -38.896026 
L 495.270744 -38.890615 
L 496.262479 -38.886753 
L 497.254215 -38.884115 
L 498.24595 -38.882388 
L 499.237686 -38.881304 
L 500.229421 -38.879844 
L 501.221157 -38.879844 
L 502.212893 -38.879844 
L 503.204628 -38.879844 
L 504.196364 -38.879844 
L 505.188099 -38.879844 
L 506.179835 -38.879844 
L 507.17157 -38.879844 
L 508.163306 -38.879844 
L 509.155041 -38.879844 
L 510.146777 -38.879844 
L 511.138512 -38.879844 
L 512.130248 -38.879844 
L 513.121983 -38.879844 
L 514.113719 -38.879844 
L 515.105455 -38.879844 
L 516.09719 -38.879844 
L 517.088926 -38.879844 
L 518.080661 -38.879844 
L 519.072397 -38.879844 
L 520.064132 -38.879844 
L 521.055868 -38.879844 
L 522.047603 -38.879844 
L 523.039339 -38.879844 
L 524.031074 -38.879844 
L 525.02281 -38.879844 
L 526.014545 -38.879844 
L 527.006281 -38.879844 
L 527.998017 -38.879844 
L 528.989752 -38.879844 
L 529.981488 -38.879844 
L 530.973223 -38.879844 
L 531.964959 -38.879844 
L 532.956694 -38.881304 
L 533.94843 -38.883848 
L 534.940165 -38.886659 
L 535.931901 -38.891024 
L 536.923636 -38.897524 
L 537.915372 -38.906797 
L 538.907107 -38.919454 
L 539.898843 -38.935958 
L 540.890579 -38.956476 
L 541.882314 -38.98073 
L 542.87405 -39.007877 
L 543.865785 -39.036481 
L 544.857521 -39.064576 
L 545.849256 -39.089867 
L 546.840992 -39.110026 
L 547.832727 -39.123038 
L 547.832727 -38.879844 
L 547.832727 -38.879844 
L 546.840992 -38.879844 
L 545.849256 -38.879844 
L 544.857521 -38.879844 
L 543.865785 -38.879844 
L 542.87405 -38.879844 
L 541.882314 -38.879844 
L 540.890579 -38.879844 
L 539.898843 -38.879844 
L 538.907107 -38.879844 
L 537.915372 -38.879844 
L 536.923636 -38.879844 
L 535.931901 -38.879844 
L 534.940165 -38.879844 
L 533.94843 -38.879844 
L 532.956694 -38.879844 
L 531.964959 -38.879844 
L 530.973223 -38.879844 
L 529.981488 -38.879844 
L 528.989752 -38.879844 
L 527.998017 -38.879844 
L 527.006281 -38.879844 
L 526.014545 -38.879844 
L 525.02281 -38.879844 
L 524.031074 -38.879844 
L 523.039339 -38.879844 
L 522.047603 -38.879844 
L 521.055868 -38.879844 
L 520.064132 -38.879844 
L 519.072397 -38.879844 
L 518.080661 -38.879844 
L 517.088926 -38.879844 
L 516.09719 -38.879844 
L 515.105455 -38.879844 
L 514.113719 -38.879844 
L 513.121983 -38.879844 
L 512.130248 -38.879844 
L 511.138512 -38.879844 
L 510.146777 -38.879844 
L 509.155041 -38.879844 
L 508.163306 -38.879844 
L 507.17157 -38.879844 
L 506.179835 -38.879844 
L 505.188099 -38.879844 
L 504.196364 -38.879844 
L 503.204628 -38.879844 
L 502.212893 -38.879844 
L 501.221157 -38.879844 
L 500.229421 -38.879844 
L 499.237686 -38.879844 
L 498.24595 -38.879844 
L 497.254215 -38.879844 
L 496.262479 -38.879844 
L 495.270744 -38.879844 
L 494.279008 -38.879844 
L 493.287273 -38.879844 
L 492.295537 -38.879844 
L 491.303802 -38.879844 
L 490.312066 -38.879844 
L 489.320331 -38.879844 
L 488.328595 -38.879844 
L 487.33686 -38.879844 
L 486.345124 -38.879844 
L 485.353388 -38.879844 
L 484.361653 -38.879844 
L 483.369917 -38.879844 
L 482.378182 -38.879844 
L 481.386446 -38.879844 
L 480.394711 -38.879844 
L 479.402975 -38.879844 
L 478.41124 -38.879844 
L 477.419504 -38.879844 
L 476.427769 -38.879844 
L 475.436033 -38.879844 
L 474.444298 -38.879844 
L 473.452562 -38.879844 
L 472.460826 -38.879844 
L 471.469091 -38.879844 
L 470.477355 -38.879844 
L 469.48562 -38.879844 
L 468.493884 -38.879844 
L 467.502149 -38.879844 
L 466.510413 -38.879844 
L 465.518678 -38.879844 
L 464.526942 -38.879844 
L 463.535207 -38.879844 
L 462.543471 -38.879844 
L 461.551736 -38.879844 
L 460.56 -38.879844 
L 459.568264 -38.879844 
L 458.576529 -38.879844 
L 457.584793 -38.879844 
L 456.593058 -38.879844 
L 455.601322 -38.879844 
L 454.609587 -38.879844 
L 453.617851 -38.879844 
L 452.626116 -38.879844 
L 451.63438 -38.879844 
L 450.642645 -38.879844 
L 449.650909 -38.879844 
L 448.659174 -38.879844 
L 447.667438 -38.879844 
L 446.675702 -38.879844 
L 445.683967 -38.879844 
L 444.692231 -38.879844 
L 443.700496 -38.879844 
L 442.70876 -38.879844 
L 441.717025 -38.879844 
L 440.725289 -38.879844 
L 439.733554 -38.879844 
L 438.741818 -38.879844 
L 437.750083 -38.879844 
L 436.758347 -38.879844 
L 435.766612 -38.879844 
L 434.774876 -38.879844 
L 433.78314 -38.879844 
L 432.791405 -38.879844 
L 431.799669 -38.879844 
L 430.807934 -38.879844 
L 429.816198 -38.879844 
L 428.824463 -38.879844 
L 427.832727 -38.879844 
L 426.840992 -38.879844 
L 425.849256 -38.879844 
L 424.857521 -38.879844 
L 423.865785 -38.879844 
L 422.87405 -38.879844 
L 421.882314 -38.879844 
L 420.890579 -38.879844 
L 419.898843 -38.879844 
L 418.907107 -38.879844 
L 417.915372 -38.879844 
L 416.923636 -38.879844 
L 415.931901 -38.879844 
L 414.940165 -38.879844 
L 413.94843 -38.879844 
L 412.956694 -38.879844 
L 411.964959 -38.879844 
L 410.973223 -38.879844 
L 409.981488 -38.879844 
L 408.989752 -38.879844 
L 407.998017 -38.879844 
L 407.006281 -38.879844 
L 406.014545 -38.879844 
L 405.02281 -38.879844 
L 404.031074 -38.879844 
L 403.039339 -38.879844 
L 402.047603 -38.879844 
L 401.055868 -38.879844 
L 400.064132 -38.879844 
L 399.072397 -38.879844 
L 398.080661 -38.879844 
L 397.088926 -38.879844 
L 396.09719 -38.879844 
L 395.105455 -38.879844 
L 394.113719 -38.879844 
L 393.121983 -38.879844 
L 392.130248 -38.879844 
L 391.138512 -38.879844 
L 390.146777 -38.879844 
L 389.155041 -38.879844 
L 388.163306 -38.879844 
L 387.17157 -38.879844 
L 386.179835 -38.879844 
L 385.188099 -38.879844 
L 384.196364 -38.879844 
L 383.204628 -38.879844 
L 382.212893 -38.879844 
L 381.221157 -38.879844 
L 380.229421 -38.879844 
L 379.237686 -38.879844 
L 378.24595 -38.879844 
L 377.254215 -38.879844 
L 376.262479 -38.879844 
L 375.270744 -38.879844 
L 374.279008 -38.879844 
L 373.287273 -38.879844 
L 372.295537 -38.879844 
L 371.303802 -38.879844 
L 370.312066 -38.879844 
L 369.320331 -38.879844 
L 368.328595 -38.879844 
L 367.33686 -38.879844 
L 366.345124 -38.879844 
L 365.353388 -38.879844 
L 364.361653 -38.879844 
L 363.369917 -38.879844 
L 362.378182 -38.879844 
L 361.386446 -38.879844 
L 360.394711 -38.879844 
L 359.402975 -38.879844 
L 358.41124 -38.879844 
L 357.419504 -38.879844 
L 356.427769 -38.879844 
L 355.436033 -38.879844 
L 354.444298 -38.879844 
L 353.452562 -38.879844 
L 352.460826 -38.879844 
L 351.469091 -38.879844 
L 350.477355 -38.879844 
L 349.48562 -38.879844 
L 348.493884 -38.879844 
L 347.502149 -38.879844 
L 346.510413 -38.879844 
L 345.518678 -38.879844 
L 344.526942 -38.879844 
L 343.535207 -38.879844 
L 342.543471 -38.879844 
L 341.551736 -38.879844 
L 340.56 -38.879844 
L 339.568264 -38.879844 
L 338.576529 -38.879844 
L 337.584793 -38.879844 
L 336.593058 -38.879844 
L 335.601322 -38.879844 
L 334.609587 -38.879844 
L 333.617851 -38.879844 
L 332.626116 -38.879844 
L 331.63438 -38.879844 
L 330.642645 -38.879844 
L 329.650909 -38.879844 
L 328.659174 -38.879844 
L 327.667438 -38.879844 
L 326.675702 -38.879844 
L 325.683967 -38.879844 
L 324.692231 -38.879844 
L 323.700496 -38.879844 
L 322.70876 -38.879844 
L 321.717025 -38.879844 
L 320.725289 -38.879844 
L 319.733554 -38.879844 
L 318.741818 -38.879844 
L 317.750083 -38.879844 
L 316.758347 -38.879844 
L 315.766612 -38.879844 
L 314.774876 -38.879844 
L 313.78314 -38.879844 
L 312.791405 -38.879844 
L 311.799669 -38.879844 
L 310.807934 -38.879844 
L 309.816198 -38.879844 
L 308.824463 -38.879844 
L 307.832727 -38.879844 
L 306.840992 -38.879844 
L 305.849256 -38.879844 
L 304.857521 -38.879844 
L 303.865785 -38.879844 
L 302.87405 -38.879844 
L 301.882314 -38.879844 
L 300.890579 -38.879844 
L 299.898843 -38.879844 
L 298.907107 -38.879844 
L 297.915372 -38.879844 
L 296.923636 -38.879844 
L 295.931901 -38.879844 
L 294.940165 -38.879844 
L 293.94843 -38.879844 
L 292.956694 -38.879844 
L 291.964959 -38.879844 
L 290.973223 -38.879844 
L 289.981488 -38.879844 
L 288.989752 -38.879844 
L 287.998017 -38.879844 
L 287.006281 -38.879844 
L 286.014545 -38.879844 
L 285.02281 -38.879844 
L 284.031074 -38.879844 
L 283.039339 -38.879844 
L 282.047603 -38.879844 
L 281.055868 -38.879844 
L 280.064132 -38.879844 
L 279.072397 -38.879844 
L 278.080661 -38.879844 
L 277.088926 -38.879844 
L 276.09719 -38.879844 
L 275.105455 -38.879844 
L 274.113719 -38.879844 
L 273.121983 -38.879844 
L 272.130248 -38.879844 
L 271.138512 -38.879844 
L 270.146777 -38.879844 
L 269.155041 -38.879844 
L 268.163306 -38.879844 
L 267.17157 -38.879844 
L 266.179835 -38.879844 
L 265.188099 -38.879844 
L 264.196364 -38.879844 
L 263.204628 -38.879844 
L 262.212893 -38.879844 
L 261.221157 -38.879844 
L 260.229421 -38.879844 
L 259.237686 -38.879844 
L 258.24595 -38.879844 
L 257.254215 -38.879844 
L 256.262479 -38.879844 
L 255.270744 -38.879844 
L 254.279008 -38.879844 
L 253.287273 -38.879844 
L 252.295537 -38.879844 
L 251.303802 -38.879844 
L 250.312066 -38.879844 
L 249.320331 -38.879844 
L 248.328595 -38.879844 
L 247.33686 -38.879844 
L 246.345124 -38.879844 
L 245.353388 -38.879844 
L 244.361653 -38.879844 
L 243.369917 -38.879844 
L 242.378182 -38.879844 
L 241.386446 -38.879844 
L 240.394711 -38.879844 
L 239.402975 -38.879844 
L 238.41124 -38.879844 
L 237.419504 -38.879844 
L 236.427769 -38.879844 
L 235.436033 -38.879844 
L 234.444298 -38.879844 
L 233.452562 -38.879844 
L 232.460826 -38.879844 
L 231.469091 -38.879844 
L 230.477355 -38.879844 
L 229.48562 -38.879844 
L 228.493884 -38.879844 
L 227.502149 -38.879844 
L 226.510413 -38.879844 
L 225.518678 -38.879844 
L 224.526942 -38.879844 
L 223.535207 -38.879844 
L 222.543471 -38.879844 
L 221.551736 -38.879844 
L 220.56 -38.879844 
L 219.568264 -38.879844 
L 218.576529 -38.879844 
L 217.584793 -38.879844 
L 216.593058 -38.879844 
L 215.601322 -38.879844 
L 214.609587 -38.879844 
L 213.617851 -38.879844 
L 212.626116 -38.879844 
L 211.63438 -38.879844 
L 210.642645 -38.879844 
L 209.650909 -38.879844 
L 208.659174 -38.879844 
L 207.667438 -38.879844 
L 206.675702 -38.879844 
L 205.683967 -38.879844 
L 204.692231 -38.879844 
L 203.700496 -38.879844 
L 202.70876 -38.879844 
L 201.717025 -38.879844 
L 200.725289 -38.879844 
L 199.733554 -38.879844 
L 198.741818 -38.879844 
L 197.750083 -38.879844 
L 196.758347 -38.879844 
L 195.766612 -38.879844 
L 194.774876 -38.879844 
L 193.78314 -38.879844 
L 192.791405 -38.879844 
L 191.799669 -38.879844 
L 190.807934 -38.879844 
L 189.816198 -38.879844 
L 188.824463 -38.879844 
L 187.832727 -38.879844 
L 186.840992 -38.879844 
L 185.849256 -38.879844 
L 184.857521 -38.879844 
L 183.865785 -38.879844 
L 182.87405 -38.879844 
L 181.882314 -38.879844 
L 180.890579 -38.879844 
L 179.898843 -38.879844 
L 178.907107 -38.879844 
L 177.915372 -38.879844 
L 176.923636 -38.879844 
L 175.931901 -38.879844 
L 174.940165 -38.879844 
L 173.94843 -38.879844 
L 172.956694 -38.879844 
L 171.964959 -38.879844 
L 170.973223 -38.879844 
L 169.981488 -38.879844 
L 168.989752 -38.879844 
L 167.998017 -38.879844 
L 167.006281 -38.879844 
L 166.014545 -38.879844 
L 165.02281 -38.879844 
L 164.031074 -38.879844 
L 163.039339 -38.879844 
L 162.047603 -38.879844 
L 161.055868 -38.879844 
L 160.064132 -38.879844 
L 159.072397 -38.879844 
L 158.080661 -38.879844 
L 157.088926 -38.879844 
L 156.09719 -38.879844 
L 155.105455 -38.879844 
L 154.113719 -38.879844 
L 153.121983 -38.879844 
L 152.130248 -38.879844 
L 151.138512 -38.879844 
L 150.146777 -38.879844 
L 149.155041 -38.879844 
L 148.163306 -38.879844 
L 147.17157 -38.879844 
L 146.179835 -38.879844 
L 145.188099 -38.879844 
L 144.196364 -38.879844 
L 143.204628 -38.879844 
L 142.212893 -38.879844 
L 141.221157 -38.879844 
L 140.229421 -38.879844 
L 139.237686 -38.879844 
L 138.24595 -38.879844 
L 137.254215 -38.879844 
L 136.262479 -38.879844 
L 135.270744 -38.879844 
L 134.279008 -38.879844 
L 133.287273 -38.879844 
L 132.295537 -38.879844 
L 131.303802 -38.879844 
L 130.312066 -38.879844 
L 129.320331 -38.879844 
L 128.328595 -38.879844 
L 127.33686 -38.879844 
L 126.345124 -38.879844 
L 125.353388 -38.879844 
L 124.361653 -38.879844 
L 123.369917 -38.879844 
L 122.378182 -38.879844 
L 121.386446 -38.879844 
L 120.394711 -38.879844 
L 119.402975 -38.879844 
L 118.41124 -38.879844 
L 117.419504 -38.879844 
L 116.427769 -38.879844 
L 115.436033 -38.879844 
L 114.444298 -38.879844 
L 113.452562 -38.879844 
L 112.460826 -38.879844 
L 111.469091 -38.879844 
L 110.477355 -38.879844 
L 109.48562 -38.879844 
L 108.493884 -38.879844 
L 107.502149 -38.879844 
L 106.510413 -38.879844 
L 105.518678 -38.879844 
L 104.526942 -38.879844 
L 103.535207 -38.879844 
L 102.543471 -38.879844 
L 101.551736 -38.879844 
L 100.56 -38.879844 
L 99.568264 -38.879844 
L 98.576529 -38.879844 
L 97.584793 -38.879844 
L 96.593058 -38.879844 
L 95.601322 -38.879844 
L 94.609587 -38.879844 
L 93.617851 -38.879844 
L 92.626116 -38.879844 
L 91.63438 -38.879844 
L 90.642645 -38.879844 
L 89.650909 -38.879844 
L 88.659174 -38.879844 
L 87.667438 -38.879844 
L 86.675702 -38.879844 
L 85.683967 -38.879844 
L 84.692231 -38.879844 
L 83.700496 -38.879844 
L 82.70876 -38.879844 
L 81.717025 -38.879844 
L 80.725289 -38.879844 
L 79.733554 -38.879844 
L 78.741818 -38.879844 
L 77.750083 -38.879844 
L 76.758347 -38.879844 
L 75.766612 -38.879844 
L 74.774876 -38.879844 
L 73.78314 -38.879844 
L 72.791405 -38.879844 
L 71.799669 -38.879844 
L 70.807934 -38.879844 
L 69.816198 -38.879844 
L 68.824463 -38.879844 
L 67.832727 -38.879844 
L 66.840992 -38.879844 
L 65.849256 -38.879844 
L 64.857521 -38.879844 
L 63.865785 -38.879844 
L 62.87405 -38.879844 
L 61.882314 -38.879844 
L 60.890579 -38.879844 
L 59.898843 -38.879844 
L 58.907107 -38.879844 
L 57.915372 -38.879844 
L 56.923636 -38.879844 
L 55.931901 -38.879844 
L 54.940165 -38.879844 
L 53.94843 -38.879844 
L 52.956694 -38.879844 
L 51.964959 -38.879844 
L 50.973223 -38.879844 
L 49.981488 -38.879844 
L 48.989752 -38.879844 
L 47.998017 -38.879844 
L 47.006281 -38.879844 
L 46.014545 -38.879844 
L 45.02281 -38.879844 
L 44.031074 -38.879844 
L 43.039339 -38.879844 
L 42.047603 -38.879844 
L 41.055868 -38.879844 
z
" style="stroke: #0173b2; stroke-opacity: 0"/>
    </defs>
    <g clip-path="url(#pe17a86bd31)">
     <use xlink:href="#m3f64b5a11d" x="0" y="378.189219" style="fill: #0173b2; fill-opacity: 0; stroke: #0173b2; stroke-opacity: 0"/>
    </g>
   </g>
   <g id="line2d_15">
    <path d="M 41.055868 36.909375 
L 42.047603 37.301038 
L 43.039339 38.381866 
L 44.031074 40.143935 
L 45.02281 42.569921 
L 46.014545 45.646636 
L 47.006281 49.323972 
L 47.998017 53.542005 
L 49.981488 63.539489 
L 51.964959 75.250328 
L 55.931901 101.369297 
L 58.907107 120.180806 
L 60.890579 131.266489 
L 62.87405 141.063376 
L 64.857521 149.528428 
L 66.840992 156.735346 
L 68.824463 162.729684 
L 70.807934 167.736548 
L 72.791405 172.17178 
L 80.725289 188.869816 
L 82.70876 193.900242 
L 84.692231 199.671651 
L 90.642645 218.587911 
L 92.626116 223.778826 
L 94.609587 228.359602 
L 101.551736 243.06774 
L 104.526942 248.901244 
L 106.510413 252.380486 
L 109.48562 257.015494 
L 116.427769 267.486832 
L 119.402975 271.957533 
L 122.378182 275.94366 
L 124.361653 278.214538 
L 127.33686 281.098011 
L 130.312066 283.481948 
L 134.279008 286.414384 
L 136.262479 288.167576 
L 138.24595 290.284781 
L 141.221157 294.077046 
L 144.196364 297.802671 
L 146.179835 299.866802 
L 148.163306 301.552066 
L 151.138512 303.94006 
L 153.121983 305.747851 
L 158.080661 310.760507 
L 160.064132 312.299707 
L 162.047603 313.381695 
L 164.031074 314.126097 
L 167.006281 315.132368 
L 168.989752 315.98435 
L 175.931901 319.382757 
L 177.915372 319.957743 
L 179.898843 320.301708 
L 183.865785 320.843088 
L 185.849256 321.451547 
L 187.832727 322.371543 
L 192.791405 325.040393 
L 194.774876 325.710136 
L 196.758347 326.022316 
L 198.741818 326.080004 
L 203.700496 326.003602 
L 205.683967 326.230531 
L 207.667438 326.698421 
L 211.63438 328.01326 
L 214.609587 328.868738 
L 217.584793 329.464538 
L 225.518678 330.943959 
L 231.469091 332.151816 
L 236.427769 332.886516 
L 252.295537 335.076107 
L 258.24595 336.196641 
L 260.229421 336.357583 
L 263.204628 336.318583 
L 269.155041 336.105731 
L 273.121983 336.246053 
L 279.072397 336.498526 
L 291.964959 336.58025 
L 298.907107 336.694664 
L 302.87405 336.985382 
L 310.807934 337.726593 
L 322.70876 338.177517 
L 326.675702 338.093176 
L 331.63438 337.96696 
L 336.593058 338.184351 
L 352.460826 338.960595 
L 356.427769 338.894609 
L 366.345124 338.601244 
L 377.254215 338.592566 
L 383.204628 338.808122 
L 388.163306 338.915181 
L 400.064132 338.843864 
L 414.940165 339.081186 
L 430.807934 339.183233 
L 441.717025 339.118154 
L 477.419504 339.250975 
L 487.33686 339.210186 
L 502.212893 339.309375 
L 541.882314 339.208489 
L 547.832727 339.066181 
L 547.832727 339.066181 
" clip-path="url(#pe17a86bd31)" style="fill: none; stroke: #0173b2; stroke-width: 1.5; stroke-linecap: round"/>
   </g>
   <g id="line2d_16">
    <path d="M 40.56 332.958975 
L 182.609123 332.958975 
" clip-path="url(#pe17a86bd31)" style="fill: none; stroke: #1a1a1a; stroke-width: 3"/>
   </g>
   <g id="patch_3">
    <path d="M 15.196364 354.429375 
L 573.196364 354.429375 
" style="fill: none; stroke: #808080; stroke-width: 1.25; stroke-linejoin: miter; stroke-linecap: square"/>
   </g>
   <g id="text_8">
    <!-- 0.002  -->
    <g style="fill: #262626" transform="translate(7.2 317.082975) scale(0.12 -0.12)">
     <defs>
      <path id="ArialMT-2e" d="M 581 0 
L 581 641 
L 1222 641 
L 1222 0 
L 581 0 
z
" transform="scale(0.015625)"/>
      <path id="ArialMT-20" transform="scale(0.015625)"/>
     </defs>
     <use xlink:href="#ArialMT-30"/>
     <use xlink:href="#ArialMT-2e" x="55.615234"/>
     <use xlink:href="#ArialMT-30" x="83.398438"/>
     <use xlink:href="#ArialMT-30" x="139.013672"/>
     <use xlink:href="#ArialMT-32" x="194.628906"/>
     <use xlink:href="#ArialMT-20" x="250.244141"/>
    </g>
   </g>
   <g id="text_9">
    <!--  33 -->
    <g style="fill: #262626" transform="translate(182.609123 317.082975) scale(0.12 -0.12)">
     <defs>
      <path id="ArialMT-33" d="M 269 1209 
L 831 1284 
Q 928 806 1161 595 
Q 1394 384 1728 384 
Q 2125 384 2398 659 
Q 2672 934 2672 1341 
Q 2672 1728 2419 1979 
Q 2166 2231 1775 2231 
Q 1616 2231 1378 2169 
L 1441 2663 
Q 1497 2656 1531 2656 
Q 1891 2656 2178 2843 
Q 2466 3031 2466 3422 
Q 2466 3731 2256 3934 
Q 2047 4138 1716 4138 
Q 1388 4138 1169 3931 
Q 950 3725 888 3313 
L 325 3413 
Q 428 3978 793 4289 
Q 1159 4600 1703 4600 
Q 2078 4600 2393 4439 
Q 2709 4278 2876 4000 
Q 3044 3722 3044 3409 
Q 3044 3113 2884 2869 
Q 2725 2625 2413 2481 
Q 2819 2388 3044 2092 
Q 3269 1797 3269 1353 
Q 3269 753 2831 336 
Q 2394 -81 1725 -81 
Q 1122 -81 723 278 
Q 325 638 269 1209 
z
" transform="scale(0.015625)"/>
     </defs>
     <use xlink:href="#ArialMT-20"/>
     <use xlink:href="#ArialMT-33" x="27.783203"/>
     <use xlink:href="#ArialMT-33" x="83.398438"/>
    </g>
   </g>
   <g id="text_10">
    <!-- 94% HDI -->
    <g style="fill: #262626" transform="translate(87.576124 244.053375) scale(0.12 -0.12)">
     <defs>
      <path id="ArialMT-39" d="M 350 1059 
L 891 1109 
Q 959 728 1153 556 
Q 1347 384 1650 384 
Q 1909 384 2104 503 
Q 2300 622 2425 820 
Q 2550 1019 2634 1356 
Q 2719 1694 2719 2044 
Q 2719 2081 2716 2156 
Q 2547 1888 2255 1720 
Q 1963 1553 1622 1553 
Q 1053 1553 659 1965 
Q 266 2378 266 3053 
Q 266 3750 677 4175 
Q 1088 4600 1706 4600 
Q 2153 4600 2523 4359 
Q 2894 4119 3086 3673 
Q 3278 3228 3278 2384 
Q 3278 1506 3087 986 
Q 2897 466 2520 194 
Q 2144 -78 1638 -78 
Q 1100 -78 759 220 
Q 419 519 350 1059 
z
M 2653 3081 
Q 2653 3566 2395 3850 
Q 2138 4134 1775 4134 
Q 1400 4134 1122 3828 
Q 844 3522 844 3034 
Q 844 2597 1108 2323 
Q 1372 2050 1759 2050 
Q 2150 2050 2401 2323 
Q 2653 2597 2653 3081 
z
" transform="scale(0.015625)"/>
      <path id="ArialMT-25" d="M 372 3481 
Q 372 3972 619 4315 
Q 866 4659 1334 4659 
Q 1766 4659 2048 4351 
Q 2331 4044 2331 3447 
Q 2331 2866 2045 2552 
Q 1759 2238 1341 2238 
Q 925 2238 648 2547 
Q 372 2856 372 3481 
z
M 1350 4272 
Q 1141 4272 1002 4090 
Q 863 3909 863 3425 
Q 863 2984 1003 2804 
Q 1144 2625 1350 2625 
Q 1563 2625 1702 2806 
Q 1841 2988 1841 3469 
Q 1841 3913 1700 4092 
Q 1559 4272 1350 4272 
z
M 1353 -169 
L 3859 4659 
L 4316 4659 
L 1819 -169 
L 1353 -169 
z
M 3334 1075 
Q 3334 1569 3581 1911 
Q 3828 2253 4300 2253 
Q 4731 2253 5014 1945 
Q 5297 1638 5297 1041 
Q 5297 459 5011 145 
Q 4725 -169 4303 -169 
Q 3888 -169 3611 142 
Q 3334 453 3334 1075 
z
M 4316 1866 
Q 4103 1866 3964 1684 
Q 3825 1503 3825 1019 
Q 3825 581 3965 400 
Q 4106 219 4313 219 
Q 4528 219 4667 400 
Q 4806 581 4806 1063 
Q 4806 1506 4665 1686 
Q 4525 1866 4316 1866 
z
" transform="scale(0.015625)"/>
      <path id="ArialMT-48" d="M 513 0 
L 513 4581 
L 1119 4581 
L 1119 2700 
L 3500 2700 
L 3500 4581 
L 4106 4581 
L 4106 0 
L 3500 0 
L 3500 2159 
L 1119 2159 
L 1119 0 
L 513 0 
z
" transform="scale(0.015625)"/>
      <path id="ArialMT-44" d="M 494 0 
L 494 4581 
L 2072 4581 
Q 2606 4581 2888 4516 
Q 3281 4425 3559 4188 
Q 3922 3881 4101 3404 
Q 4281 2928 4281 2316 
Q 4281 1794 4159 1391 
Q 4038 988 3847 723 
Q 3656 459 3429 307 
Q 3203 156 2883 78 
Q 2563 0 2147 0 
L 494 0 
z
M 1100 541 
L 2078 541 
Q 2531 541 2789 625 
Q 3047 709 3200 863 
Q 3416 1078 3536 1442 
Q 3656 1806 3656 2325 
Q 3656 3044 3420 3430 
Q 3184 3816 2847 3947 
Q 2603 4041 2063 4041 
L 1100 4041 
L 1100 541 
z
" transform="scale(0.015625)"/>
      <path id="ArialMT-49" d="M 597 0 
L 597 4581 
L 1203 4581 
L 1203 0 
L 597 0 
z
" transform="scale(0.015625)"/>
     </defs>
     <use xlink:href="#ArialMT-39"/>
     <use xlink:href="#ArialMT-34" x="55.615234"/>
     <use xlink:href="#ArialMT-25" x="111.230469"/>
     <use xlink:href="#ArialMT-20" x="200.146484"/>
     <use xlink:href="#ArialMT-48" x="227.929688"/>
     <use xlink:href="#ArialMT-44" x="300.146484"/>
     <use xlink:href="#ArialMT-49" x="372.363281"/>
    </g>
   </g>
   <g id="text_11">
    <!-- mean=12 -->
    <g style="fill: #262626" transform="translate(65.534327 85.293375) scale(0.12 -0.12)">
     <defs>
      <path id="ArialMT-6d" d="M 422 0 
L 422 3319 
L 925 3319 
L 925 2853 
Q 1081 3097 1340 3245 
Q 1600 3394 1931 3394 
Q 2300 3394 2536 3241 
Q 2772 3088 2869 2813 
Q 3263 3394 3894 3394 
Q 4388 3394 4653 3120 
Q 4919 2847 4919 2278 
L 4919 0 
L 4359 0 
L 4359 2091 
Q 4359 2428 4304 2576 
Q 4250 2725 4106 2815 
Q 3963 2906 3769 2906 
Q 3419 2906 3187 2673 
Q 2956 2441 2956 1928 
L 2956 0 
L 2394 0 
L 2394 2156 
Q 2394 2531 2256 2718 
Q 2119 2906 1806 2906 
Q 1569 2906 1367 2781 
Q 1166 2656 1075 2415 
Q 984 2175 984 1722 
L 984 0 
L 422 0 
z
" transform="scale(0.015625)"/>
      <path id="ArialMT-65" d="M 2694 1069 
L 3275 997 
Q 3138 488 2766 206 
Q 2394 -75 1816 -75 
Q 1088 -75 661 373 
Q 234 822 234 1631 
Q 234 2469 665 2931 
Q 1097 3394 1784 3394 
Q 2450 3394 2872 2941 
Q 3294 2488 3294 1666 
Q 3294 1616 3291 1516 
L 816 1516 
Q 847 969 1125 678 
Q 1403 388 1819 388 
Q 2128 388 2347 550 
Q 2566 713 2694 1069 
z
M 847 1978 
L 2700 1978 
Q 2663 2397 2488 2606 
Q 2219 2931 1791 2931 
Q 1403 2931 1139 2672 
Q 875 2413 847 1978 
z
" transform="scale(0.015625)"/>
      <path id="ArialMT-61" d="M 2588 409 
Q 2275 144 1986 34 
Q 1697 -75 1366 -75 
Q 819 -75 525 192 
Q 231 459 231 875 
Q 231 1119 342 1320 
Q 453 1522 633 1644 
Q 813 1766 1038 1828 
Q 1203 1872 1538 1913 
Q 2219 1994 2541 2106 
Q 2544 2222 2544 2253 
Q 2544 2597 2384 2738 
Q 2169 2928 1744 2928 
Q 1347 2928 1158 2789 
Q 969 2650 878 2297 
L 328 2372 
Q 403 2725 575 2942 
Q 747 3159 1072 3276 
Q 1397 3394 1825 3394 
Q 2250 3394 2515 3294 
Q 2781 3194 2906 3042 
Q 3031 2891 3081 2659 
Q 3109 2516 3109 2141 
L 3109 1391 
Q 3109 606 3145 398 
Q 3181 191 3288 0 
L 2700 0 
Q 2613 175 2588 409 
z
M 2541 1666 
Q 2234 1541 1622 1453 
Q 1275 1403 1131 1340 
Q 988 1278 909 1158 
Q 831 1038 831 891 
Q 831 666 1001 516 
Q 1172 366 1500 366 
Q 1825 366 2078 508 
Q 2331 650 2450 897 
Q 2541 1088 2541 1459 
L 2541 1666 
z
" transform="scale(0.015625)"/>
      <path id="ArialMT-6e" d="M 422 0 
L 422 3319 
L 928 3319 
L 928 2847 
Q 1294 3394 1984 3394 
Q 2284 3394 2536 3286 
Q 2788 3178 2913 3003 
Q 3038 2828 3088 2588 
Q 3119 2431 3119 2041 
L 3119 0 
L 2556 0 
L 2556 2019 
Q 2556 2363 2490 2533 
Q 2425 2703 2258 2804 
Q 2091 2906 1866 2906 
Q 1506 2906 1245 2678 
Q 984 2450 984 1813 
L 984 0 
L 422 0 
z
" transform="scale(0.015625)"/>
      <path id="ArialMT-3d" d="M 3381 2694 
L 356 2694 
L 356 3219 
L 3381 3219 
L 3381 2694 
z
M 3381 1303 
L 356 1303 
L 356 1828 
L 3381 1828 
L 3381 1303 
z
" transform="scale(0.015625)"/>
     </defs>
     <use xlink:href="#ArialMT-6d"/>
     <use xlink:href="#ArialMT-65" x="83.300781"/>
     <use xlink:href="#ArialMT-61" x="138.916016"/>
     <use xlink:href="#ArialMT-6e" x="194.53125"/>
     <use xlink:href="#ArialMT-3d" x="250.146484"/>
     <use xlink:href="#ArialMT-31" x="308.544922"/>
     <use xlink:href="#ArialMT-32" x="364.160156"/>
    </g>
   </g>
   <g id="text_12">
    <!-- mu -->
    <g style="fill: #262626" transform="translate(285.861989 15.789375) scale(0.12 -0.12)">
     <defs>
      <path id="ArialMT-75" d="M 2597 0 
L 2597 488 
Q 2209 -75 1544 -75 
Q 1250 -75 995 37 
Q 741 150 617 320 
Q 494 491 444 738 
Q 409 903 409 1263 
L 409 3319 
L 972 3319 
L 972 1478 
Q 972 1038 1006 884 
Q 1059 663 1231 536 
Q 1403 409 1656 409 
Q 1909 409 2131 539 
Q 2353 669 2445 892 
Q 2538 1116 2538 1541 
L 2538 3319 
L 3100 3319 
L 3100 0 
L 2597 0 
z
" transform="scale(0.015625)"/>
     </defs>
     <use xlink:href="#ArialMT-6d"/>
     <use xlink:href="#ArialMT-75" x="83.300781"/>
    </g>
   </g>
  </g>
 </g>
 <defs>
  <clipPath id="pe17a86bd31">
   <rect x="15.196364" y="21.789375" width="558" height="332.64"/>
  </clipPath>
 </defs>
</svg>