<?xml version="1.0" encoding="utf-8" standalone="no"?>
<!DOCTYPE svg PUBLIC "-//W3C//DTD SVG 1.1//EN"
  "http://www.w3.org/Graphics/SVG/1.1/DTD/svg11.dtd">
<svg xmlns:xlink="http://www.w3.org/1999/xlink" width="624.539062pt" height="381.574219pt" viewBox="0 0 624.539062 381.574219" xmlns="http://www.w3.org/2000/svg" version="1.1">
 <metadata>
  <rdf:RDF xmlns:dc="http://purl.org/dc/elements/1.1/" xmlns:cc="http://creativecommons.org/ns#" xmlns:rdf="http://www.w3.org/1999/02/22-rdf-syntax-ns#">
   <cc:Work>
    <dc:type rdf:resource="http://purl.org/dc/dcmitype/StillImage"/>
    <dc:date>2023-05-13T09:27:54.103765</dc:date>
    <dc:format>image/svg+xml</dc:format>
    <dc:creator>
     <cc:Agent>
      <dc:title>Matplotlib v3.7.1, https://matplotlib.org/</dc:title>
     </cc:Agent>
    </dc:creator>
   </cc:Work>
  </rdf:RDF>
 </metadata>
 <defs>
  <style type="text/css">*{stroke-linejoin: round; stroke-linecap: butt}</style>
 </defs>
 <g id="figure_1">
  <g id="patch_1">
   <path d="M 0 381.574219 
L 624.539062 381.574219 
L 624.539062 0 
L 0 0 
z
" style="fill: #ffffff"/>
  </g>
  <g id="axes_1">
   <g id="patch_2">
    <path d="M 59.339063 339.84 
L 617.339062 339.84 
L 617.339062 7.2 
L 59.339063 7.2 
z
" style="fill: #eaeaf2"/>
   </g>
   <g id="matplotlib.axis_1">
    <g id="xtick_1">
     <g id="line2d_1">
      <path d="M 137.227887 339.84 
L 137.227887 7.2 
" clip-path="url(#p964a2b5d65)" style="fill: none; stroke: #ffffff; stroke-linecap: round"/>
     </g>
     <g id="text_1">
      <!-- 20 -->
      <g style="fill: #262626" transform="translate(131.110856 357.213594) scale(0.11 -0.11)">
       <defs>
        <path id="ArialMT-32" d="M 3222 541 
L 3222 0 
L 194 0 
Q 188 203 259 391 
Q 375 700 629 1000 
Q 884 1300 1366 1694 
Q 2113 2306 2375 2664 
Q 2638 3022 2638 3341 
Q 2638 3675 2398 3904 
Q 2159 4134 1775 4134 
Q 1369 4134 1125 3890 
Q 881 3647 878 3216 
L 300 3275 
Q 359 3922 746 4261 
Q 1134 4600 1788 4600 
Q 2447 4600 2831 4234 
Q 3216 3869 3216 3328 
Q 3216 3053 3103 2787 
Q 2991 2522 2730 2228 
Q 2469 1934 1863 1422 
Q 1356 997 1212 845 
Q 1069 694 975 541 
L 3222 541 
z
" transform="scale(0.015625)"/>
        <path id="ArialMT-30" d="M 266 2259 
Q 266 3072 433 3567 
Q 600 4063 929 4331 
Q 1259 4600 1759 4600 
Q 2128 4600 2406 4451 
Q 2684 4303 2865 4023 
Q 3047 3744 3150 3342 
Q 3253 2941 3253 2259 
Q 3253 1453 3087 958 
Q 2922 463 2592 192 
Q 2263 -78 1759 -78 
Q 1097 -78 719 397 
Q 266 969 266 2259 
z
M 844 2259 
Q 844 1131 1108 757 
Q 1372 384 1759 384 
Q 2147 384 2411 759 
Q 2675 1134 2675 2259 
Q 2675 3391 2411 3762 
Q 2147 4134 1753 4134 
Q 1366 4134 1134 3806 
Q 844 3388 844 2259 
z
" transform="scale(0.015625)"/>
       </defs>
       <use xlink:href="#ArialMT-32"/>
       <use xlink:href="#ArialMT-30" x="55.615234"/>
      </g>
     </g>
    </g>
    <g id="xtick_2">
     <g id="line2d_2">
      <path d="M 245.965987 339.84 
L 245.965987 7.2 
" clip-path="url(#p964a2b5d65)" style="fill: none; stroke: #ffffff; stroke-linecap: round"/>
     </g>
     <g id="text_2">
      <!-- 40 -->
      <g style="fill: #262626" transform="translate(239.848956 357.213594) scale(0.11 -0.11)">
       <defs>
        <path id="ArialMT-34" d="M 2069 0 
L 2069 1097 
L 81 1097 
L 81 1613 
L 2172 4581 
L 2631 4581 
L 2631 1613 
L 3250 1613 
L 3250 1097 
L 2631 1097 
L 2631 0 
L 2069 0 
z
M 2069 1613 
L 2069 3678 
L 634 1613 
L 2069 1613 
z
" transform="scale(0.015625)"/>
       </defs>
       <use xlink:href="#ArialMT-34"/>
       <use xlink:href="#ArialMT-30" x="55.615234"/>
      </g>
     </g>
    </g>
    <g id="xtick_3">
     <g id="line2d_3">
      <path d="M 354.704087 339.84 
L 354.704087 7.2 
" clip-path="url(#p964a2b5d65)" style="fill: none; stroke: #ffffff; stroke-linecap: round"/>
     </g>
     <g id="text_3">
      <!-- 60 -->
      <g style="fill: #262626" transform="translate(348.587056 357.213594) scale(0.11 -0.11)">
       <defs>
        <path id="ArialMT-36" d="M 3184 3459 
L 2625 3416 
Q 2550 3747 2413 3897 
Q 2184 4138 1850 4138 
Q 1581 4138 1378 3988 
Q 1113 3794 959 3422 
Q 806 3050 800 2363 
Q 1003 2672 1297 2822 
Q 1591 2972 1913 2972 
Q 2475 2972 2870 2558 
Q 3266 2144 3266 1488 
Q 3266 1056 3080 686 
Q 2894 316 2569 119 
Q 2244 -78 1831 -78 
Q 1128 -78 684 439 
Q 241 956 241 2144 
Q 241 3472 731 4075 
Q 1159 4600 1884 4600 
Q 2425 4600 2770 4297 
Q 3116 3994 3184 3459 
z
M 888 1484 
Q 888 1194 1011 928 
Q 1134 663 1356 523 
Q 1578 384 1822 384 
Q 2178 384 2434 671 
Q 2691 959 2691 1453 
Q 2691 1928 2437 2201 
Q 2184 2475 1800 2475 
Q 1419 2475 1153 2201 
Q 888 1928 888 1484 
z
" transform="scale(0.015625)"/>
       </defs>
       <use xlink:href="#ArialMT-36"/>
       <use xlink:href="#ArialMT-30" x="55.615234"/>
      </g>
     </g>
    </g>
    <g id="xtick_4">
     <g id="line2d_4">
      <path d="M 463.442188 339.84 
L 463.442188 7.2 
" clip-path="url(#p964a2b5d65)" style="fill: none; stroke: #ffffff; stroke-linecap: round"/>
     </g>
     <g id="text_4">
      <!-- 80 -->
      <g style="fill: #262626" transform="translate(457.325156 357.213594) scale(0.11 -0.11)">
       <defs>
        <path id="ArialMT-38" d="M 1131 2484 
Q 781 2613 612 2850 
Q 444 3088 444 3419 
Q 444 3919 803 4259 
Q 1163 4600 1759 4600 
Q 2359 4600 2725 4251 
Q 3091 3903 3091 3403 
Q 3091 3084 2923 2848 
Q 2756 2613 2416 2484 
Q 2838 2347 3058 2040 
Q 3278 1734 3278 1309 
Q 3278 722 2862 322 
Q 2447 -78 1769 -78 
Q 1091 -78 675 323 
Q 259 725 259 1325 
Q 259 1772 486 2073 
Q 713 2375 1131 2484 
z
M 1019 3438 
Q 1019 3113 1228 2906 
Q 1438 2700 1772 2700 
Q 2097 2700 2305 2904 
Q 2513 3109 2513 3406 
Q 2513 3716 2298 3927 
Q 2084 4138 1766 4138 
Q 1444 4138 1231 3931 
Q 1019 3725 1019 3438 
z
M 838 1322 
Q 838 1081 952 856 
Q 1066 631 1291 507 
Q 1516 384 1775 384 
Q 2178 384 2440 643 
Q 2703 903 2703 1303 
Q 2703 1709 2433 1975 
Q 2163 2241 1756 2241 
Q 1359 2241 1098 1978 
Q 838 1716 838 1322 
z
" transform="scale(0.015625)"/>
       </defs>
       <use xlink:href="#ArialMT-38"/>
       <use xlink:href="#ArialMT-30" x="55.615234"/>
      </g>
     </g>
    </g>
    <g id="xtick_5">
     <g id="line2d_5">
      <path d="M 572.180288 339.84 
L 572.180288 7.2 
" clip-path="url(#p964a2b5d65)" style="fill: none; stroke: #ffffff; stroke-linecap: round"/>
     </g>
     <g id="text_5">
      <!-- 100 -->
      <g style="fill: #262626" transform="translate(563.004741 357.213594) scale(0.11 -0.11)">
       <defs>
        <path id="ArialMT-31" d="M 2384 0 
L 1822 0 
L 1822 3584 
Q 1619 3391 1289 3197 
Q 959 3003 697 2906 
L 697 3450 
Q 1169 3672 1522 3987 
Q 1875 4303 2022 4600 
L 2384 4600 
L 2384 0 
z
" transform="scale(0.015625)"/>
       </defs>
       <use xlink:href="#ArialMT-31"/>
       <use xlink:href="#ArialMT-30" x="55.615234"/>
       <use xlink:href="#ArialMT-30" x="111.230469"/>
      </g>
     </g>
    </g>
    <g id="text_6">
     <!-- age -->
     <g style="fill: #262626" transform="translate(328.329375 371.848594) scale(0.12 -0.12)">
      <defs>
       <path id="ArialMT-61" d="M 2588 409 
Q 2275 144 1986 34 
Q 1697 -75 1366 -75 
Q 819 -75 525 192 
Q 231 459 231 875 
Q 231 1119 342 1320 
Q 453 1522 633 1644 
Q 813 1766 1038 1828 
Q 1203 1872 1538 1913 
Q 2219 1994 2541 2106 
Q 2544 2222 2544 2253 
Q 2544 2597 2384 2738 
Q 2169 2928 1744 2928 
Q 1347 2928 1158 2789 
Q 969 2650 878 2297 
L 328 2372 
Q 403 2725 575 2942 
Q 747 3159 1072 3276 
Q 1397 3394 1825 3394 
Q 2250 3394 2515 3294 
Q 2781 3194 2906 3042 
Q 3031 2891 3081 2659 
Q 3109 2516 3109 2141 
L 3109 1391 
Q 3109 606 3145 398 
Q 3181 191 3288 0 
L 2700 0 
Q 2613 175 2588 409 
z
M 2541 1666 
Q 2234 1541 1622 1453 
Q 1275 1403 1131 1340 
Q 988 1278 909 1158 
Q 831 1038 831 891 
Q 831 666 1001 516 
Q 1172 366 1500 366 
Q 1825 366 2078 508 
Q 2331 650 2450 897 
Q 2541 1088 2541 1459 
L 2541 1666 
z
" transform="scale(0.015625)"/>
       <path id="ArialMT-67" d="M 319 -275 
L 866 -356 
Q 900 -609 1056 -725 
Q 1266 -881 1628 -881 
Q 2019 -881 2231 -725 
Q 2444 -569 2519 -288 
Q 2563 -116 2559 434 
Q 2191 0 1641 0 
Q 956 0 581 494 
Q 206 988 206 1678 
Q 206 2153 378 2554 
Q 550 2956 876 3175 
Q 1203 3394 1644 3394 
Q 2231 3394 2613 2919 
L 2613 3319 
L 3131 3319 
L 3131 450 
Q 3131 -325 2973 -648 
Q 2816 -972 2473 -1159 
Q 2131 -1347 1631 -1347 
Q 1038 -1347 672 -1080 
Q 306 -813 319 -275 
z
M 784 1719 
Q 784 1066 1043 766 
Q 1303 466 1694 466 
Q 2081 466 2343 764 
Q 2606 1063 2606 1700 
Q 2606 2309 2336 2618 
Q 2066 2928 1684 2928 
Q 1309 2928 1046 2623 
Q 784 2319 784 1719 
z
" transform="scale(0.015625)"/>
       <path id="ArialMT-65" d="M 2694 1069 
L 3275 997 
Q 3138 488 2766 206 
Q 2394 -75 1816 -75 
Q 1088 -75 661 373 
Q 234 822 234 1631 
Q 234 2469 665 2931 
Q 1097 3394 1784 3394 
Q 2450 3394 2872 2941 
Q 3294 2488 3294 1666 
Q 3294 1616 3291 1516 
L 816 1516 
Q 847 969 1125 678 
Q 1403 388 1819 388 
Q 2128 388 2347 550 
Q 2566 713 2694 1069 
z
M 847 1978 
L 2700 1978 
Q 2663 2397 2488 2606 
Q 2219 2931 1791 2931 
Q 1403 2931 1139 2672 
Q 875 2413 847 1978 
z
" transform="scale(0.015625)"/>
      </defs>
      <use xlink:href="#ArialMT-61"/>
      <use xlink:href="#ArialMT-67" x="55.615234"/>
      <use xlink:href="#ArialMT-65" x="111.230469"/>
     </g>
    </g>
   </g>
   <g id="matplotlib.axis_2">
    <g id="ytick_1">
     <g id="line2d_6">
      <path d="M 59.339063 339.84 
L 617.339062 339.84 
" clip-path="url(#p964a2b5d65)" style="fill: none; stroke: #ffffff; stroke-linecap: round"/>
     </g>
     <g id="text_7">
      <!-- 0.000 -->
      <g style="fill: #262626" transform="translate(22.315 343.776797) scale(0.11 -0.11)">
       <defs>
        <path id="ArialMT-2e" d="M 581 0 
L 581 641 
L 1222 641 
L 1222 0 
L 581 0 
z
" transform="scale(0.015625)"/>
       </defs>
       <use xlink:href="#ArialMT-30"/>
       <use xlink:href="#ArialMT-2e" x="55.615234"/>
       <use xlink:href="#ArialMT-30" x="83.398438"/>
       <use xlink:href="#ArialMT-30" x="139.013672"/>
       <use xlink:href="#ArialMT-30" x="194.628906"/>
      </g>
     </g>
    </g>
    <g id="ytick_2">
     <g id="line2d_7">
      <path d="M 59.339063 297.433202 
L 617.339062 297.433202 
" clip-path="url(#p964a2b5d65)" style="fill: none; stroke: #ffffff; stroke-linecap: round"/>
     </g>
     <g id="text_8">
      <!-- 0.002 -->
      <g style="fill: #262626" transform="translate(22.315 301.369998) scale(0.11 -0.11)">
       <use xlink:href="#ArialMT-30"/>
       <use xlink:href="#ArialMT-2e" x="55.615234"/>
       <use xlink:href="#ArialMT-30" x="83.398438"/>
       <use xlink:href="#ArialMT-30" x="139.013672"/>
       <use xlink:href="#ArialMT-32" x="194.628906"/>
      </g>
     </g>
    </g>
    <g id="ytick_3">
     <g id="line2d_8">
      <path d="M 59.339063 255.026403 
L 617.339062 255.026403 
" clip-path="url(#p964a2b5d65)" style="fill: none; stroke: #ffffff; stroke-linecap: round"/>
     </g>
     <g id="text_9">
      <!-- 0.004 -->
      <g style="fill: #262626" transform="translate(22.315 258.9632) scale(0.11 -0.11)">
       <use xlink:href="#ArialMT-30"/>
       <use xlink:href="#ArialMT-2e" x="55.615234"/>
       <use xlink:href="#ArialMT-30" x="83.398438"/>
       <use xlink:href="#ArialMT-30" x="139.013672"/>
       <use xlink:href="#ArialMT-34" x="194.628906"/>
      </g>
     </g>
    </g>
    <g id="ytick_4">
     <g id="line2d_9">
      <path d="M 59.339063 212.619605 
L 617.339062 212.619605 
" clip-path="url(#p964a2b5d65)" style="fill: none; stroke: #ffffff; stroke-linecap: round"/>
     </g>
     <g id="text_10">
      <!-- 0.006 -->
      <g style="fill: #262626" transform="translate(22.315 216.556402) scale(0.11 -0.11)">
       <use xlink:href="#ArialMT-30"/>
       <use xlink:href="#ArialMT-2e" x="55.615234"/>
       <use xlink:href="#ArialMT-30" x="83.398438"/>
       <use xlink:href="#ArialMT-30" x="139.013672"/>
       <use xlink:href="#ArialMT-36" x="194.628906"/>
      </g>
     </g>
    </g>
    <g id="ytick_5">
     <g id="line2d_10">
      <path d="M 59.339063 170.212806 
L 617.339062 170.212806 
" clip-path="url(#p964a2b5d65)" style="fill: none; stroke: #ffffff; stroke-linecap: round"/>
     </g>
     <g id="text_11">
      <!-- 0.008 -->
      <g style="fill: #262626" transform="translate(22.315 174.149603) scale(0.11 -0.11)">
       <use xlink:href="#ArialMT-30"/>
       <use xlink:href="#ArialMT-2e" x="55.615234"/>
       <use xlink:href="#ArialMT-30" x="83.398438"/>
       <use xlink:href="#ArialMT-30" x="139.013672"/>
       <use xlink:href="#ArialMT-38" x="194.628906"/>
      </g>
     </g>
    </g>
    <g id="ytick_6">
     <g id="line2d_11">
      <path d="M 59.339063 127.806008 
L 617.339062 127.806008 
" clip-path="url(#p964a2b5d65)" style="fill: none; stroke: #ffffff; stroke-linecap: round"/>
     </g>
     <g id="text_12">
      <!-- 0.010 -->
      <g style="fill: #262626" transform="translate(22.315 131.742805) scale(0.11 -0.11)">
       <use xlink:href="#ArialMT-30"/>
       <use xlink:href="#ArialMT-2e" x="55.615234"/>
       <use xlink:href="#ArialMT-30" x="83.398438"/>
       <use xlink:href="#ArialMT-31" x="139.013672"/>
       <use xlink:href="#ArialMT-30" x="194.628906"/>
      </g>
     </g>
    </g>
    <g id="ytick_7">
     <g id="line2d_12">
      <path d="M 59.339063 85.399209 
L 617.339062 85.399209 
" clip-path="url(#p964a2b5d65)" style="fill: none; stroke: #ffffff; stroke-linecap: round"/>
     </g>
     <g id="text_13">
      <!-- 0.012 -->
      <g style="fill: #262626" transform="translate(22.315 89.336006) scale(0.11 -0.11)">
       <use xlink:href="#ArialMT-30"/>
       <use xlink:href="#ArialMT-2e" x="55.615234"/>
       <use xlink:href="#ArialMT-30" x="83.398438"/>
       <use xlink:href="#ArialMT-31" x="139.013672"/>
       <use xlink:href="#ArialMT-32" x="194.628906"/>
      </g>
     </g>
    </g>
    <g id="ytick_8">
     <g id="line2d_13">
      <path d="M 59.339063 42.992411 
L 617.339062 42.992411 
" clip-path="url(#p964a2b5d65)" style="fill: none; stroke: #ffffff; stroke-linecap: round"/>
     </g>
     <g id="text_14">
      <!-- 0.014 -->
      <g style="fill: #262626" transform="translate(22.315 46.929208) scale(0.11 -0.11)">
       <use xlink:href="#ArialMT-30"/>
       <use xlink:href="#ArialMT-2e" x="55.615234"/>
       <use xlink:href="#ArialMT-30" x="83.398438"/>
       <use xlink:href="#ArialMT-31" x="139.013672"/>
       <use xlink:href="#ArialMT-34" x="194.628906"/>
      </g>
     </g>
    </g>
    <g id="text_15">
     <!-- Density -->
     <g style="fill: #262626" transform="translate(15.789375 193.52625) rotate(-90) scale(0.12 -0.12)">
      <defs>
       <path id="ArialMT-44" d="M 494 0 
L 494 4581 
L 2072 4581 
Q 2606 4581 2888 4516 
Q 3281 4425 3559 4188 
Q 3922 3881 4101 3404 
Q 4281 2928 4281 2316 
Q 4281 1794 4159 1391 
Q 4038 988 3847 723 
Q 3656 459 3429 307 
Q 3203 156 2883 78 
Q 2563 0 2147 0 
L 494 0 
z
M 1100 541 
L 2078 541 
Q 2531 541 2789 625 
Q 3047 709 3200 863 
Q 3416 1078 3536 1442 
Q 3656 1806 3656 2325 
Q 3656 3044 3420 3430 
Q 3184 3816 2847 3947 
Q 2603 4041 2063 4041 
L 1100 4041 
L 1100 541 
z
" transform="scale(0.015625)"/>
       <path id="ArialMT-6e" d="M 422 0 
L 422 3319 
L 928 3319 
L 928 2847 
Q 1294 3394 1984 3394 
Q 2284 3394 2536 3286 
Q 2788 3178 2913 3003 
Q 3038 2828 3088 2588 
Q 3119 2431 3119 2041 
L 3119 0 
L 2556 0 
L 2556 2019 
Q 2556 2363 2490 2533 
Q 2425 2703 2258 2804 
Q 2091 2906 1866 2906 
Q 1506 2906 1245 2678 
Q 984 2450 984 1813 
L 984 0 
L 422 0 
z
" transform="scale(0.015625)"/>
       <path id="ArialMT-73" d="M 197 991 
L 753 1078 
Q 800 744 1014 566 
Q 1228 388 1613 388 
Q 2000 388 2187 545 
Q 2375 703 2375 916 
Q 2375 1106 2209 1216 
Q 2094 1291 1634 1406 
Q 1016 1563 777 1677 
Q 538 1791 414 1992 
Q 291 2194 291 2438 
Q 291 2659 392 2848 
Q 494 3038 669 3163 
Q 800 3259 1026 3326 
Q 1253 3394 1513 3394 
Q 1903 3394 2198 3281 
Q 2494 3169 2634 2976 
Q 2775 2784 2828 2463 
L 2278 2388 
Q 2241 2644 2061 2787 
Q 1881 2931 1553 2931 
Q 1166 2931 1000 2803 
Q 834 2675 834 2503 
Q 834 2394 903 2306 
Q 972 2216 1119 2156 
Q 1203 2125 1616 2013 
Q 2213 1853 2448 1751 
Q 2684 1650 2818 1456 
Q 2953 1263 2953 975 
Q 2953 694 2789 445 
Q 2625 197 2315 61 
Q 2006 -75 1616 -75 
Q 969 -75 630 194 
Q 291 463 197 991 
z
" transform="scale(0.015625)"/>
       <path id="ArialMT-69" d="M 425 3934 
L 425 4581 
L 988 4581 
L 988 3934 
L 425 3934 
z
M 425 0 
L 425 3319 
L 988 3319 
L 988 0 
L 425 0 
z
" transform="scale(0.015625)"/>
       <path id="ArialMT-74" d="M 1650 503 
L 1731 6 
Q 1494 -44 1306 -44 
Q 1000 -44 831 53 
Q 663 150 594 308 
Q 525 466 525 972 
L 525 2881 
L 113 2881 
L 113 3319 
L 525 3319 
L 525 4141 
L 1084 4478 
L 1084 3319 
L 1650 3319 
L 1650 2881 
L 1084 2881 
L 1084 941 
Q 1084 700 1114 631 
Q 1144 563 1211 522 
Q 1278 481 1403 481 
Q 1497 481 1650 503 
z
" transform="scale(0.015625)"/>
       <path id="ArialMT-79" d="M 397 -1278 
L 334 -750 
Q 519 -800 656 -800 
Q 844 -800 956 -737 
Q 1069 -675 1141 -563 
Q 1194 -478 1313 -144 
Q 1328 -97 1363 -6 
L 103 3319 
L 709 3319 
L 1400 1397 
Q 1534 1031 1641 628 
Q 1738 1016 1872 1384 
L 2581 3319 
L 3144 3319 
L 1881 -56 
Q 1678 -603 1566 -809 
Q 1416 -1088 1222 -1217 
Q 1028 -1347 759 -1347 
Q 597 -1347 397 -1278 
z
" transform="scale(0.015625)"/>
      </defs>
      <use xlink:href="#ArialMT-44"/>
      <use xlink:href="#ArialMT-65" x="72.216797"/>
      <use xlink:href="#ArialMT-6e" x="127.832031"/>
      <use xlink:href="#ArialMT-73" x="183.447266"/>
      <use xlink:href="#ArialMT-69" x="233.447266"/>
      <use xlink:href="#ArialMT-74" x="255.664062"/>
      <use xlink:href="#ArialMT-79" x="283.447266"/>
     </g>
    </g>
   </g>
   <g id="line2d_14">
    <path d="M 90.248224 339.702987 
L 95.290708 339.369896 
L 97.81195 339.020185 
L 100.333193 338.465803 
L 102.854435 337.624666 
L 105.375677 336.40307 
L 107.896919 334.704614 
L 110.418161 332.443443 
L 112.939404 329.560164 
L 115.460646 326.037388 
L 117.981888 321.910971 
L 120.50313 317.273347 
L 125.545615 307.067176 
L 130.588099 296.822773 
L 133.109341 292.09385 
L 135.630584 287.774385 
L 138.151826 283.922773 
L 140.673068 280.565128 
L 143.19431 277.709131 
L 145.715553 275.357175 
L 148.236795 273.514366 
L 150.758037 272.189106 
L 153.279279 271.386716 
L 155.800521 271.098782 
L 158.321764 271.292078 
L 160.843006 271.900676 
L 163.364248 272.823668 
L 170.927975 276.068154 
L 173.449217 276.787887 
L 175.970459 277.093698 
L 178.491701 276.892113 
L 181.012944 276.135283 
L 183.534186 274.824612 
L 186.055428 273.00742 
L 188.57667 270.766338 
L 191.097913 268.202674 
L 196.140397 262.489949 
L 201.182881 256.381894 
L 206.225366 249.951689 
L 216.310335 236.65033 
L 218.831577 233.738831 
L 221.352819 231.248244 
L 223.874062 229.269544 
L 226.395304 227.834045 
L 228.916546 226.904288 
L 231.437788 226.379699 
L 236.480273 225.942837 
L 239.001515 225.701932 
L 241.522757 225.251192 
L 244.043999 224.480736 
L 246.565242 223.312197 
L 249.086484 221.694329 
L 251.607726 219.597751 
L 254.128968 217.012118 
L 256.65021 213.946835 
L 259.171453 210.434088 
L 261.692695 206.531355 
L 266.735179 197.901403 
L 274.298906 184.416488 
L 279.34139 175.934007 
L 284.383875 167.986633 
L 291.947602 156.657305 
L 299.511328 145.790827 
L 307.075055 134.942545 
L 309.596297 131.078184 
L 312.117539 126.986733 
L 314.638782 122.638361 
L 319.681266 113.223634 
L 334.808719 83.589532 
L 337.329962 79.124915 
L 339.851204 74.964174 
L 342.372446 71.173402 
L 344.893688 67.804776 
L 347.41493 64.880855 
L 349.936173 62.381602 
L 352.457415 60.239258 
L 357.499899 56.557456 
L 360.021142 54.736755 
L 362.542384 52.752967 
L 365.063626 50.509944 
L 367.584868 47.954266 
L 370.10611 45.078411 
L 372.627353 41.919032 
L 382.712322 28.557991 
L 385.233564 25.89128 
L 387.754806 23.959198 
L 390.276048 23.039925 
L 392.79729 23.414671 
L 395.318533 25.343738 
L 397.839775 29.038673 
L 400.361017 34.634483 
L 402.882259 42.166844 
L 405.403502 51.559265 
L 407.924744 62.623876 
L 410.445986 75.076971 
L 412.967228 88.567328 
L 425.573439 159.05244 
L 428.094682 171.914204 
L 430.615924 184.071649 
L 433.137166 195.521127 
L 435.658408 206.293583 
L 438.179651 216.438157 
L 440.700893 226.008681 
L 443.222135 235.054184 
L 445.743377 243.613553 
L 448.264619 251.713796 
L 450.785862 259.370962 
L 453.307104 266.592708 
L 455.828346 273.381578 
L 458.349588 279.738245 
L 460.870831 285.66418 
L 463.392073 291.163382 
L 465.913315 296.243051 
L 468.434557 300.91337 
L 470.955799 305.186792 
L 473.477042 309.077332 
L 475.998284 312.600325 
L 478.519526 315.772809 
L 481.040768 318.614395 
L 483.562011 321.148165 
L 486.083253 323.401092 
L 488.604495 325.403549 
L 491.125737 327.187808 
L 493.646979 328.785738 
L 496.168222 330.226221 
L 501.210706 332.722866 
L 506.253191 334.788218 
L 511.295675 336.448112 
L 516.338159 337.701444 
L 521.380644 338.571054 
L 526.423128 339.115573 
L 531.465613 339.413293 
L 539.029339 339.570156 
L 591.975426 339.838419 
L 591.975426 339.838419 
" clip-path="url(#p964a2b5d65)" style="fill: none; stroke: #2d1e3e; stroke-width: 1.5; stroke-linecap: round"/>
   </g>
   <g id="line2d_15">
    <path d="M 84.702699 339.412246 
L 87.115748 339.10972 
L 89.528798 338.62725 
L 91.941847 337.880477 
L 94.354896 336.758589 
L 96.767946 335.122565 
L 99.180995 332.806498 
L 101.594044 329.62318 
L 104.007094 325.374735 
L 106.420143 319.868421 
L 108.833192 312.93671 
L 111.246242 304.459683 
L 113.659291 294.386826 
L 116.072341 282.754774 
L 118.48539 269.697689 
L 120.898439 255.447825 
L 125.724538 224.718147 
L 130.550637 193.773951 
L 132.963686 179.294723 
L 135.376735 165.992402 
L 137.789785 154.181084 
L 140.202834 144.10454 
L 142.615883 135.934111 
L 145.028933 129.771445 
L 147.441982 125.653422 
L 149.855031 123.556975 
L 152.268081 123.402522 
L 154.68113 125.055975 
L 157.09418 128.330391 
L 159.507229 132.988988 
L 161.920278 138.751184 
L 164.333328 145.302753 
L 171.572476 166.36718 
L 173.985525 172.814132 
L 176.398574 178.543737 
L 178.811624 183.380116 
L 181.224673 187.210855 
L 183.637722 189.986031 
L 186.050772 191.712713 
L 188.463821 192.446208 
L 190.876871 192.279532 
L 193.28992 191.332476 
L 195.702969 189.74138 
L 198.116019 187.650361 
L 200.529068 185.204405 
L 210.181265 174.564209 
L 212.594315 172.279257 
L 215.007364 170.337941 
L 217.420413 168.811119 
L 219.833463 167.750756 
L 222.246512 167.186858 
L 224.659562 167.124787 
L 227.072611 167.543694 
L 229.48566 168.396763 
L 231.89871 169.613708 
L 234.311759 171.105629 
L 243.963956 177.805521 
L 246.377006 179.211551 
L 248.790055 180.386934 
L 251.203104 181.308533 
L 253.616154 181.974227 
L 256.029203 182.398683 
L 258.442253 182.607577 
L 260.855302 182.631266 
L 263.268351 182.498891 
L 265.681401 182.233816 
L 270.507499 181.356443 
L 272.920549 180.748718 
L 275.333598 180.021587 
L 277.746647 179.167282 
L 280.159697 178.17934 
L 282.572746 177.054381 
L 284.985795 175.79249 
L 287.398845 174.396268 
L 292.224944 171.2128 
L 297.051042 167.50783 
L 301.877141 163.247751 
L 306.70324 158.407776 
L 311.529338 153.050352 
L 328.420684 133.439673 
L 333.246783 128.606936 
L 335.659832 126.452025 
L 338.072881 124.512243 
L 340.485931 122.822402 
L 342.89898 121.417716 
L 345.312029 120.329082 
L 347.725079 119.577141 
L 350.138128 119.166233 
L 352.551177 119.079536 
L 354.964227 119.276613 
L 357.377276 119.69419 
L 367.029474 121.829948 
L 369.442523 122.056745 
L 371.855572 122.052641 
L 374.268622 121.817473 
L 376.681671 121.388934 
L 383.920819 119.862649 
L 386.333868 119.727183 
L 388.746918 120.051174 
L 391.159967 121.004502 
L 393.573017 122.744669 
L 395.986066 125.40459 
L 398.399115 129.081405 
L 400.812165 133.82758 
L 403.225214 139.645524 
L 405.638263 146.486587 
L 408.051313 154.254714 
L 410.464362 162.814285 
L 412.877411 172.001009 
L 417.70351 191.529526 
L 424.942658 221.085545 
L 429.768757 239.318535 
L 432.181806 247.707514 
L 434.594856 255.539274 
L 437.007905 262.786752 
L 439.420954 269.442301 
L 441.834004 275.51539 
L 444.247053 281.0299 
L 446.660102 286.021078 
L 449.073152 290.532296 
L 451.486201 294.61181 
L 453.89925 298.309783 
L 456.3123 301.675736 
L 458.725349 304.756509 
L 461.138399 307.594755 
L 463.551448 310.227864 
L 468.377547 314.998072 
L 473.203645 319.242713 
L 478.029744 323.043306 
L 482.855843 326.414071 
L 487.681941 329.341983 
L 492.50804 331.82048 
L 497.334139 333.862242 
L 502.160238 335.494906 
L 506.986336 336.755116 
L 511.812435 337.689501 
L 516.638534 338.357176 
L 521.464632 338.824737 
L 528.703781 339.281188 
L 538.355978 339.623623 
L 550.421225 339.798059 
L 564.899521 339.837529 
L 564.899521 339.837529 
" clip-path="url(#p964a2b5d65)" style="fill: none; stroke: #edd1cb; stroke-width: 1.5; stroke-linecap: round"/>
   </g>
   <g id="patch_3">
    <path d="M 59.339063 339.84 
L 59.339063 7.2 
" style="fill: none; stroke: #ffffff; stroke-width: 1.25; stroke-linejoin: miter; stroke-linecap: square"/>
   </g>
   <g id="patch_4">
    <path d="M 617.339062 339.84 
L 617.339062 7.2 
" style="fill: none; stroke: #ffffff; stroke-width: 1.25; stroke-linejoin: miter; stroke-linecap: square"/>
   </g>
   <g id="patch_5">
    <path d="M 59.339062 339.84 
L 617.339062 339.84 
" style="fill: none; stroke: #ffffff; stroke-width: 1.25; stroke-linejoin: miter; stroke-linecap: square"/>
   </g>
   <g id="patch_6">
    <path d="M 59.339062 7.2 
L 617.339062 7.2 
" style="fill: none; stroke: #ffffff; stroke-width: 1.25; stroke-linejoin: miter; stroke-linecap: square"/>
   </g>
   <g id="legend_1">
    <g id="patch_7">
     <path d="M 559.149063 63.594063 
L 609.639063 63.594063 
Q 611.839063 63.594063 611.839063 61.394063 
L 611.839063 14.9 
Q 611.839063 12.7 609.639063 12.7 
L 559.149063 12.7 
Q 556.949063 12.7 556.949063 14.9 
L 556.949063 61.394063 
Q 556.949063 63.594063 559.149063 63.594063 
z
" style="fill: #eaeaf2; opacity: 0.8; stroke: #cccccc; stroke-linejoin: miter"/>
    </g>
    <g id="text_16">
     <!-- leave -->
     <g style="fill: #262626" transform="translate(570.05125 25.689375) scale(0.12 -0.12)">
      <defs>
       <path id="ArialMT-6c" d="M 409 0 
L 409 4581 
L 972 4581 
L 972 0 
L 409 0 
z
" transform="scale(0.015625)"/>
       <path id="ArialMT-76" d="M 1344 0 
L 81 3319 
L 675 3319 
L 1388 1331 
Q 1503 1009 1600 663 
Q 1675 925 1809 1294 
L 2547 3319 
L 3125 3319 
L 1869 0 
L 1344 0 
z
" transform="scale(0.015625)"/>
      </defs>
      <use xlink:href="#ArialMT-6c"/>
      <use xlink:href="#ArialMT-65" x="22.216797"/>
      <use xlink:href="#ArialMT-61" x="77.832031"/>
      <use xlink:href="#ArialMT-76" x="133.447266"/>
      <use xlink:href="#ArialMT-65" x="183.447266"/>
     </g>
    </g>
    <g id="line2d_16">
     <path d="M 561.349063 37.597969 
L 572.349063 37.597969 
L 583.349063 37.597969 
" style="fill: none; stroke: #edd1cb; stroke-width: 1.5; stroke-linecap: round"/>
    </g>
    <g id="text_17">
     <!-- 0.0 -->
     <g style="fill: #262626" transform="translate(592.149063 41.447969) scale(0.11 -0.11)">
      <use xlink:href="#ArialMT-30"/>
      <use xlink:href="#ArialMT-2e" x="55.615234"/>
      <use xlink:href="#ArialMT-30" x="83.398438"/>
     </g>
    </g>
    <g id="line2d_17">
     <path d="M 561.349063 53.157813 
L 572.349063 53.157813 
L 583.349063 53.157813 
" style="fill: none; stroke: #2d1e3e; stroke-width: 1.5; stroke-linecap: round"/>
    </g>
    <g id="text_18">
     <!-- 1.0 -->
     <g style="fill: #262626" transform="translate(592.149063 57.007813) scale(0.11 -0.11)">
      <use xlink:href="#ArialMT-31"/>
      <use xlink:href="#ArialMT-2e" x="55.615234"/>
      <use xlink:href="#ArialMT-30" x="83.398438"/>
     </g>
    </g>
   </g>
  </g>
 </g>
 <defs>
  <clipPath id="p964a2b5d65">
   <rect x="59.339063" y="7.2" width="558" height="332.64"/>
  </clipPath>
 </defs>
</svg>