<?xml version="1.0" encoding="utf-8" standalone="no"?>
<!DOCTYPE svg PUBLIC "-//W3C//DTD SVG 1.1//EN"
  "http://www.w3.org/Graphics/SVG/1.1/DTD/svg11.dtd">
<svg xmlns:xlink="http://www.w3.org/1999/xlink" width="603.307031pt" height="366.599844pt" viewBox="0 0 603.307031 366.599844" xmlns="http://www.w3.org/2000/svg" version="1.1">
 <metadata>
  <rdf:RDF xmlns:dc="http://purl.org/dc/elements/1.1/" xmlns:cc="http://creativecommons.org/ns#" xmlns:rdf="http://www.w3.org/1999/02/22-rdf-syntax-ns#">
   <cc:Work>
    <dc:type rdf:resource="http://purl.org/dc/dcmitype/StillImage"/>
    <dc:date>2023-05-28T20:02:09.755196</dc:date>
    <dc:format>image/svg+xml</dc:format>
    <dc:creator>
     <cc:Agent>
      <dc:title>Matplotlib v3.7.1, https://matplotlib.org/</dc:title>
     </cc:Agent>
    </dc:creator>
   </cc:Work>
  </rdf:RDF>
 </metadata>
 <defs>
  <style type="text/css">*{stroke-linejoin: round; stroke-linecap: butt}</style>
 </defs>
 <g id="figure_1">
  <g id="patch_1">
   <path d="M 0 366.599844 
L 603.307031 366.599844 
L 603.307031 0 
L 0 0 
z
" style="fill: #ffffff"/>
  </g>
  <g id="axes_1">
   <g id="patch_2">
    <path d="M 38.107031 339.84 
L 596.107031 339.84 
L 596.107031 7.2 
L 38.107031 7.2 
z
" style="fill: #eaeaf2"/>
   </g>
   <g id="matplotlib.axis_1">
    <g id="xtick_1">
     <g id="line2d_1">
      <path d="M 63.470668 339.84 
L 63.470668 7.2 
" clip-path="url(#pb41237b1c2)" style="fill: none; stroke: #ffffff; stroke-linecap: round"/>
     </g>
     <g id="text_1">
      <!-- 1.0 -->
      <g style="fill: #262626" transform="translate(55.825668 357.213594) scale(0.11 -0.11)">
       <defs>
        <path id="ArialMT-31" d="M 2384 0 
L 1822 0 
L 1822 3584 
Q 1619 3391 1289 3197 
Q 959 3003 697 2906 
L 697 3450 
Q 1169 3672 1522 3987 
Q 1875 4303 2022 4600 
L 2384 4600 
L 2384 0 
z
" transform="scale(0.015625)"/>
        <path id="ArialMT-2e" d="M 581 0 
L 581 641 
L 1222 641 
L 1222 0 
L 581 0 
z
" transform="scale(0.015625)"/>
        <path id="ArialMT-30" d="M 266 2259 
Q 266 3072 433 3567 
Q 600 4063 929 4331 
Q 1259 4600 1759 4600 
Q 2128 4600 2406 4451 
Q 2684 4303 2865 4023 
Q 3047 3744 3150 3342 
Q 3253 2941 3253 2259 
Q 3253 1453 3087 958 
Q 2922 463 2592 192 
Q 2263 -78 1759 -78 
Q 1097 -78 719 397 
Q 266 969 266 2259 
z
M 844 2259 
Q 844 1131 1108 757 
Q 1372 384 1759 384 
Q 2147 384 2411 759 
Q 2675 1134 2675 2259 
Q 2675 3391 2411 3762 
Q 2147 4134 1753 4134 
Q 1366 4134 1134 3806 
Q 844 3388 844 2259 
z
" transform="scale(0.015625)"/>
       </defs>
       <use xlink:href="#ArialMT-31"/>
       <use xlink:href="#ArialMT-2e" x="55.615234"/>
       <use xlink:href="#ArialMT-30" x="83.398438"/>
      </g>
     </g>
    </g>
    <g id="xtick_2">
     <g id="line2d_2">
      <path d="M 141.512626 339.84 
L 141.512626 7.2 
" clip-path="url(#pb41237b1c2)" style="fill: none; stroke: #ffffff; stroke-linecap: round"/>
     </g>
     <g id="text_2">
      <!-- 1.2 -->
      <g style="fill: #262626" transform="translate(133.867626 357.213594) scale(0.11 -0.11)">
       <defs>
        <path id="ArialMT-32" d="M 3222 541 
L 3222 0 
L 194 0 
Q 188 203 259 391 
Q 375 700 629 1000 
Q 884 1300 1366 1694 
Q 2113 2306 2375 2664 
Q 2638 3022 2638 3341 
Q 2638 3675 2398 3904 
Q 2159 4134 1775 4134 
Q 1369 4134 1125 3890 
Q 881 3647 878 3216 
L 300 3275 
Q 359 3922 746 4261 
Q 1134 4600 1788 4600 
Q 2447 4600 2831 4234 
Q 3216 3869 3216 3328 
Q 3216 3053 3103 2787 
Q 2991 2522 2730 2228 
Q 2469 1934 1863 1422 
Q 1356 997 1212 845 
Q 1069 694 975 541 
L 3222 541 
z
" transform="scale(0.015625)"/>
       </defs>
       <use xlink:href="#ArialMT-31"/>
       <use xlink:href="#ArialMT-2e" x="55.615234"/>
       <use xlink:href="#ArialMT-32" x="83.398438"/>
      </g>
     </g>
    </g>
    <g id="xtick_3">
     <g id="line2d_3">
      <path d="M 219.554584 339.84 
L 219.554584 7.2 
" clip-path="url(#pb41237b1c2)" style="fill: none; stroke: #ffffff; stroke-linecap: round"/>
     </g>
     <g id="text_3">
      <!-- 1.4 -->
      <g style="fill: #262626" transform="translate(211.909584 357.213594) scale(0.11 -0.11)">
       <defs>
        <path id="ArialMT-34" d="M 2069 0 
L 2069 1097 
L 81 1097 
L 81 1613 
L 2172 4581 
L 2631 4581 
L 2631 1613 
L 3250 1613 
L 3250 1097 
L 2631 1097 
L 2631 0 
L 2069 0 
z
M 2069 1613 
L 2069 3678 
L 634 1613 
L 2069 1613 
z
" transform="scale(0.015625)"/>
       </defs>
       <use xlink:href="#ArialMT-31"/>
       <use xlink:href="#ArialMT-2e" x="55.615234"/>
       <use xlink:href="#ArialMT-34" x="83.398438"/>
      </g>
     </g>
    </g>
    <g id="xtick_4">
     <g id="line2d_4">
      <path d="M 297.596542 339.84 
L 297.596542 7.2 
" clip-path="url(#pb41237b1c2)" style="fill: none; stroke: #ffffff; stroke-linecap: round"/>
     </g>
     <g id="text_4">
      <!-- 1.6 -->
      <g style="fill: #262626" transform="translate(289.951542 357.213594) scale(0.11 -0.11)">
       <defs>
        <path id="ArialMT-36" d="M 3184 3459 
L 2625 3416 
Q 2550 3747 2413 3897 
Q 2184 4138 1850 4138 
Q 1581 4138 1378 3988 
Q 1113 3794 959 3422 
Q 806 3050 800 2363 
Q 1003 2672 1297 2822 
Q 1591 2972 1913 2972 
Q 2475 2972 2870 2558 
Q 3266 2144 3266 1488 
Q 3266 1056 3080 686 
Q 2894 316 2569 119 
Q 2244 -78 1831 -78 
Q 1128 -78 684 439 
Q 241 956 241 2144 
Q 241 3472 731 4075 
Q 1159 4600 1884 4600 
Q 2425 4600 2770 4297 
Q 3116 3994 3184 3459 
z
M 888 1484 
Q 888 1194 1011 928 
Q 1134 663 1356 523 
Q 1578 384 1822 384 
Q 2178 384 2434 671 
Q 2691 959 2691 1453 
Q 2691 1928 2437 2201 
Q 2184 2475 1800 2475 
Q 1419 2475 1153 2201 
Q 888 1928 888 1484 
z
" transform="scale(0.015625)"/>
       </defs>
       <use xlink:href="#ArialMT-31"/>
       <use xlink:href="#ArialMT-2e" x="55.615234"/>
       <use xlink:href="#ArialMT-36" x="83.398438"/>
      </g>
     </g>
    </g>
    <g id="xtick_5">
     <g id="line2d_5">
      <path d="M 375.6385 339.84 
L 375.6385 7.2 
" clip-path="url(#pb41237b1c2)" style="fill: none; stroke: #ffffff; stroke-linecap: round"/>
     </g>
     <g id="text_5">
      <!-- 1.8 -->
      <g style="fill: #262626" transform="translate(367.9935 357.213594) scale(0.11 -0.11)">
       <defs>
        <path id="ArialMT-38" d="M 1131 2484 
Q 781 2613 612 2850 
Q 444 3088 444 3419 
Q 444 3919 803 4259 
Q 1163 4600 1759 4600 
Q 2359 4600 2725 4251 
Q 3091 3903 3091 3403 
Q 3091 3084 2923 2848 
Q 2756 2613 2416 2484 
Q 2838 2347 3058 2040 
Q 3278 1734 3278 1309 
Q 3278 722 2862 322 
Q 2447 -78 1769 -78 
Q 1091 -78 675 323 
Q 259 725 259 1325 
Q 259 1772 486 2073 
Q 713 2375 1131 2484 
z
M 1019 3438 
Q 1019 3113 1228 2906 
Q 1438 2700 1772 2700 
Q 2097 2700 2305 2904 
Q 2513 3109 2513 3406 
Q 2513 3716 2298 3927 
Q 2084 4138 1766 4138 
Q 1444 4138 1231 3931 
Q 1019 3725 1019 3438 
z
M 838 1322 
Q 838 1081 952 856 
Q 1066 631 1291 507 
Q 1516 384 1775 384 
Q 2178 384 2440 643 
Q 2703 903 2703 1303 
Q 2703 1709 2433 1975 
Q 2163 2241 1756 2241 
Q 1359 2241 1098 1978 
Q 838 1716 838 1322 
z
" transform="scale(0.015625)"/>
       </defs>
       <use xlink:href="#ArialMT-31"/>
       <use xlink:href="#ArialMT-2e" x="55.615234"/>
       <use xlink:href="#ArialMT-38" x="83.398438"/>
      </g>
     </g>
    </g>
    <g id="xtick_6">
     <g id="line2d_6">
      <path d="M 453.680458 339.84 
L 453.680458 7.2 
" clip-path="url(#pb41237b1c2)" style="fill: none; stroke: #ffffff; stroke-linecap: round"/>
     </g>
     <g id="text_6">
      <!-- 2.0 -->
      <g style="fill: #262626" transform="translate(446.035458 357.213594) scale(0.11 -0.11)">
       <use xlink:href="#ArialMT-32"/>
       <use xlink:href="#ArialMT-2e" x="55.615234"/>
       <use xlink:href="#ArialMT-30" x="83.398438"/>
      </g>
     </g>
    </g>
    <g id="xtick_7">
     <g id="line2d_7">
      <path d="M 531.722416 339.84 
L 531.722416 7.2 
" clip-path="url(#pb41237b1c2)" style="fill: none; stroke: #ffffff; stroke-linecap: round"/>
     </g>
     <g id="text_7">
      <!-- 2.2 -->
      <g style="fill: #262626" transform="translate(524.077416 357.213594) scale(0.11 -0.11)">
       <use xlink:href="#ArialMT-32"/>
       <use xlink:href="#ArialMT-2e" x="55.615234"/>
       <use xlink:href="#ArialMT-32" x="83.398438"/>
      </g>
     </g>
    </g>
   </g>
   <g id="matplotlib.axis_2">
    <g id="ytick_1">
     <g id="line2d_8">
      <path d="M 38.107031 331.44 
L 596.107031 331.44 
" clip-path="url(#pb41237b1c2)" style="fill: none; stroke: #ffffff; stroke-linecap: round"/>
     </g>
     <g id="text_8">
      <!-- 1.25 -->
      <g style="fill: #262626" transform="translate(7.2 335.376797) scale(0.11 -0.11)">
       <defs>
        <path id="ArialMT-35" d="M 266 1200 
L 856 1250 
Q 922 819 1161 601 
Q 1400 384 1738 384 
Q 2144 384 2425 690 
Q 2706 997 2706 1503 
Q 2706 1984 2436 2262 
Q 2166 2541 1728 2541 
Q 1456 2541 1237 2417 
Q 1019 2294 894 2097 
L 366 2166 
L 809 4519 
L 3088 4519 
L 3088 3981 
L 1259 3981 
L 1013 2750 
Q 1425 3038 1878 3038 
Q 2478 3038 2890 2622 
Q 3303 2206 3303 1553 
Q 3303 931 2941 478 
Q 2500 -78 1738 -78 
Q 1113 -78 717 272 
Q 322 622 266 1200 
z
" transform="scale(0.015625)"/>
       </defs>
       <use xlink:href="#ArialMT-31"/>
       <use xlink:href="#ArialMT-2e" x="55.615234"/>
       <use xlink:href="#ArialMT-32" x="83.398438"/>
       <use xlink:href="#ArialMT-35" x="139.013672"/>
      </g>
     </g>
    </g>
    <g id="ytick_2">
     <g id="line2d_9">
      <path d="M 38.107031 289.44 
L 596.107031 289.44 
" clip-path="url(#pb41237b1c2)" style="fill: none; stroke: #ffffff; stroke-linecap: round"/>
     </g>
     <g id="text_9">
      <!-- 1.50 -->
      <g style="fill: #262626" transform="translate(7.2 293.376797) scale(0.11 -0.11)">
       <use xlink:href="#ArialMT-31"/>
       <use xlink:href="#ArialMT-2e" x="55.615234"/>
       <use xlink:href="#ArialMT-35" x="83.398438"/>
       <use xlink:href="#ArialMT-30" x="139.013672"/>
      </g>
     </g>
    </g>
    <g id="ytick_3">
     <g id="line2d_10">
      <path d="M 38.107031 247.44 
L 596.107031 247.44 
" clip-path="url(#pb41237b1c2)" style="fill: none; stroke: #ffffff; stroke-linecap: round"/>
     </g>
     <g id="text_10">
      <!-- 1.75 -->
      <g style="fill: #262626" transform="translate(7.2 251.376797) scale(0.11 -0.11)">
       <defs>
        <path id="ArialMT-37" d="M 303 3981 
L 303 4522 
L 3269 4522 
L 3269 4084 
Q 2831 3619 2401 2847 
Q 1972 2075 1738 1259 
Q 1569 684 1522 0 
L 944 0 
Q 953 541 1156 1306 
Q 1359 2072 1739 2783 
Q 2119 3494 2547 3981 
L 303 3981 
z
" transform="scale(0.015625)"/>
       </defs>
       <use xlink:href="#ArialMT-31"/>
       <use xlink:href="#ArialMT-2e" x="55.615234"/>
       <use xlink:href="#ArialMT-37" x="83.398438"/>
       <use xlink:href="#ArialMT-35" x="139.013672"/>
      </g>
     </g>
    </g>
    <g id="ytick_4">
     <g id="line2d_11">
      <path d="M 38.107031 205.44 
L 596.107031 205.44 
" clip-path="url(#pb41237b1c2)" style="fill: none; stroke: #ffffff; stroke-linecap: round"/>
     </g>
     <g id="text_11">
      <!-- 2.00 -->
      <g style="fill: #262626" transform="translate(7.2 209.376797) scale(0.11 -0.11)">
       <use xlink:href="#ArialMT-32"/>
       <use xlink:href="#ArialMT-2e" x="55.615234"/>
       <use xlink:href="#ArialMT-30" x="83.398438"/>
       <use xlink:href="#ArialMT-30" x="139.013672"/>
      </g>
     </g>
    </g>
    <g id="ytick_5">
     <g id="line2d_12">
      <path d="M 38.107031 163.44 
L 596.107031 163.44 
" clip-path="url(#pb41237b1c2)" style="fill: none; stroke: #ffffff; stroke-linecap: round"/>
     </g>
     <g id="text_12">
      <!-- 2.25 -->
      <g style="fill: #262626" transform="translate(7.2 167.376797) scale(0.11 -0.11)">
       <use xlink:href="#ArialMT-32"/>
       <use xlink:href="#ArialMT-2e" x="55.615234"/>
       <use xlink:href="#ArialMT-32" x="83.398438"/>
       <use xlink:href="#ArialMT-35" x="139.013672"/>
      </g>
     </g>
    </g>
    <g id="ytick_6">
     <g id="line2d_13">
      <path d="M 38.107031 121.44 
L 596.107031 121.44 
" clip-path="url(#pb41237b1c2)" style="fill: none; stroke: #ffffff; stroke-linecap: round"/>
     </g>
     <g id="text_13">
      <!-- 2.50 -->
      <g style="fill: #262626" transform="translate(7.2 125.376797) scale(0.11 -0.11)">
       <use xlink:href="#ArialMT-32"/>
       <use xlink:href="#ArialMT-2e" x="55.615234"/>
       <use xlink:href="#ArialMT-35" x="83.398438"/>
       <use xlink:href="#ArialMT-30" x="139.013672"/>
      </g>
     </g>
    </g>
    <g id="ytick_7">
     <g id="line2d_14">
      <path d="M 38.107031 79.44 
L 596.107031 79.44 
" clip-path="url(#pb41237b1c2)" style="fill: none; stroke: #ffffff; stroke-linecap: round"/>
     </g>
     <g id="text_14">
      <!-- 2.75 -->
      <g style="fill: #262626" transform="translate(7.2 83.376797) scale(0.11 -0.11)">
       <use xlink:href="#ArialMT-32"/>
       <use xlink:href="#ArialMT-2e" x="55.615234"/>
       <use xlink:href="#ArialMT-37" x="83.398438"/>
       <use xlink:href="#ArialMT-35" x="139.013672"/>
      </g>
     </g>
    </g>
    <g id="ytick_8">
     <g id="line2d_15">
      <path d="M 38.107031 37.44 
L 596.107031 37.44 
" clip-path="url(#pb41237b1c2)" style="fill: none; stroke: #ffffff; stroke-linecap: round"/>
     </g>
     <g id="text_15">
      <!-- 3.00 -->
      <g style="fill: #262626" transform="translate(7.2 41.376797) scale(0.11 -0.11)">
       <defs>
        <path id="ArialMT-33" d="M 269 1209 
L 831 1284 
Q 928 806 1161 595 
Q 1394 384 1728 384 
Q 2125 384 2398 659 
Q 2672 934 2672 1341 
Q 2672 1728 2419 1979 
Q 2166 2231 1775 2231 
Q 1616 2231 1378 2169 
L 1441 2663 
Q 1497 2656 1531 2656 
Q 1891 2656 2178 2843 
Q 2466 3031 2466 3422 
Q 2466 3731 2256 3934 
Q 2047 4138 1716 4138 
Q 1388 4138 1169 3931 
Q 950 3725 888 3313 
L 325 3413 
Q 428 3978 793 4289 
Q 1159 4600 1703 4600 
Q 2078 4600 2393 4439 
Q 2709 4278 2876 4000 
Q 3044 3722 3044 3409 
Q 3044 3113 2884 2869 
Q 2725 2625 2413 2481 
Q 2819 2388 3044 2092 
Q 3269 1797 3269 1353 
Q 3269 753 2831 336 
Q 2394 -81 1725 -81 
Q 1122 -81 723 278 
Q 325 638 269 1209 
z
" transform="scale(0.015625)"/>
       </defs>
       <use xlink:href="#ArialMT-33"/>
       <use xlink:href="#ArialMT-2e" x="55.615234"/>
       <use xlink:href="#ArialMT-30" x="83.398438"/>
       <use xlink:href="#ArialMT-30" x="139.013672"/>
      </g>
     </g>
    </g>
   </g>
   <g id="line2d_16">
    <defs>
     <path id="m2e6f67b012" d="M 0 3 
C 0.795609 3 1.55874 2.683901 2.12132 2.12132 
C 2.683901 1.55874 3 0.795609 3 0 
C 3 -0.795609 2.683901 -1.55874 2.12132 -2.12132 
C 1.55874 -2.683901 0.795609 -3 0 -3 
C -0.795609 -3 -1.55874 -2.683901 -2.12132 -2.12132 
C -2.683901 -1.55874 -3 -0.795609 -3 0 
C -3 0.795609 -2.683901 1.55874 -2.12132 2.12132 
C -1.55874 2.683901 -0.795609 3 0 3 
z
" style="stroke: #0173b2"/>
    </defs>
    <g clip-path="url(#pb41237b1c2)">
     <use xlink:href="#m2e6f67b012" x="63.470668" y="254.16" style="fill: #0173b2; stroke: #0173b2"/>
     <use xlink:href="#m2e6f67b012" x="94.687451" y="286.08" style="fill: #0173b2; stroke: #0173b2"/>
     <use xlink:href="#m2e6f67b012" x="122.002136" y="324.72" style="fill: #0173b2; stroke: #0173b2"/>
     <use xlink:href="#m2e6f67b012" x="122.002136" y="22.32" style="fill: #0173b2; stroke: #0173b2"/>
     <use xlink:href="#m2e6f67b012" x="141.512626" y="170.16" style="fill: #0173b2; stroke: #0173b2"/>
     <use xlink:href="#m2e6f67b012" x="180.533605" y="161.76" style="fill: #0173b2; stroke: #0173b2"/>
     <use xlink:href="#m2e6f67b012" x="207.84829" y="138.24" style="fill: #0173b2; stroke: #0173b2"/>
     <use xlink:href="#m2e6f67b012" x="207.84829" y="188.64" style="fill: #0173b2; stroke: #0173b2"/>
     <use xlink:href="#m2e6f67b012" x="231.260877" y="212.16" style="fill: #0173b2; stroke: #0173b2"/>
     <use xlink:href="#m2e6f67b012" x="242.967171" y="190.32" style="fill: #0173b2; stroke: #0173b2"/>
     <use xlink:href="#m2e6f67b012" x="266.379759" y="202.08" style="fill: #0173b2; stroke: #0173b2"/>
     <use xlink:href="#m2e6f67b012" x="285.890248" y="321.36" style="fill: #0173b2; stroke: #0173b2"/>
     <use xlink:href="#m2e6f67b012" x="317.107031" y="176.88" style="fill: #0173b2; stroke: #0173b2"/>
     <use xlink:href="#m2e6f67b012" x="317.107031" y="158.4" style="fill: #0173b2; stroke: #0173b2"/>
     <use xlink:href="#m2e6f67b012" x="317.107031" y="136.56" style="fill: #0173b2; stroke: #0173b2"/>
     <use xlink:href="#m2e6f67b012" x="321.009129" y="166.8" style="fill: #0173b2; stroke: #0173b2"/>
     <use xlink:href="#m2e6f67b012" x="402.953185" y="30.72" style="fill: #0173b2; stroke: #0173b2"/>
     <use xlink:href="#m2e6f67b012" x="465.386752" y="195.36" style="fill: #0173b2; stroke: #0173b2"/>
     <use xlink:href="#m2e6f67b012" x="473.190947" y="82.8" style="fill: #0173b2; stroke: #0173b2"/>
     <use xlink:href="#m2e6f67b012" x="570.743395" y="144.96" style="fill: #0173b2; stroke: #0173b2"/>
    </g>
   </g>
   <g id="line2d_17">
    <path d="M 63.470668 223.589946 
L 94.687451 216.650604 
L 122.002136 210.57868 
L 122.002136 210.57868 
L 141.512626 206.241592 
L 180.533605 197.567415 
L 207.84829 191.495491 
L 207.84829 191.495491 
L 231.260877 186.290985 
L 242.967171 183.688732 
L 266.379759 178.484225 
L 285.890248 174.147137 
L 317.107031 167.207795 
L 317.107031 167.207795 
L 317.107031 167.207795 
L 321.009129 166.340377 
L 402.953185 148.124606 
L 465.386752 134.245923 
L 473.190947 132.511087 
L 570.743395 110.825645 
" clip-path="url(#pb41237b1c2)" style="fill: none; stroke: #de8f05; stroke-width: 1.5; stroke-linecap: round"/>
   </g>
   <g id="line2d_18">
    <defs>
     <path id="mdafc754e94" d="M -3 3 
L 3 3 
L 3 -3 
L -3 -3 
z
" style="stroke: #ff0000; stroke-linejoin: miter"/>
    </defs>
    <g clip-path="url(#pb41237b1c2)">
     <use xlink:href="#mdafc754e94" x="63.470668" y="223.589946" style="fill: #ff0000; stroke: #ff0000; stroke-linejoin: miter"/>
     <use xlink:href="#mdafc754e94" x="94.687451" y="216.650604" style="fill: #ff0000; stroke: #ff0000; stroke-linejoin: miter"/>
     <use xlink:href="#mdafc754e94" x="122.002136" y="210.57868" style="fill: #ff0000; stroke: #ff0000; stroke-linejoin: miter"/>
     <use xlink:href="#mdafc754e94" x="122.002136" y="210.57868" style="fill: #ff0000; stroke: #ff0000; stroke-linejoin: miter"/>
     <use xlink:href="#mdafc754e94" x="141.512626" y="206.241592" style="fill: #ff0000; stroke: #ff0000; stroke-linejoin: miter"/>
     <use xlink:href="#mdafc754e94" x="180.533605" y="197.567415" style="fill: #ff0000; stroke: #ff0000; stroke-linejoin: miter"/>
     <use xlink:href="#mdafc754e94" x="207.84829" y="191.495491" style="fill: #ff0000; stroke: #ff0000; stroke-linejoin: miter"/>
     <use xlink:href="#mdafc754e94" x="207.84829" y="191.495491" style="fill: #ff0000; stroke: #ff0000; stroke-linejoin: miter"/>
     <use xlink:href="#mdafc754e94" x="231.260877" y="186.290985" style="fill: #ff0000; stroke: #ff0000; stroke-linejoin: miter"/>
     <use xlink:href="#mdafc754e94" x="242.967171" y="183.688732" style="fill: #ff0000; stroke: #ff0000; stroke-linejoin: miter"/>
     <use xlink:href="#mdafc754e94" x="266.379759" y="178.484225" style="fill: #ff0000; stroke: #ff0000; stroke-linejoin: miter"/>
     <use xlink:href="#mdafc754e94" x="285.890248" y="174.147137" style="fill: #ff0000; stroke: #ff0000; stroke-linejoin: miter"/>
     <use xlink:href="#mdafc754e94" x="317.107031" y="167.207795" style="fill: #ff0000; stroke: #ff0000; stroke-linejoin: miter"/>
     <use xlink:href="#mdafc754e94" x="317.107031" y="167.207795" style="fill: #ff0000; stroke: #ff0000; stroke-linejoin: miter"/>
     <use xlink:href="#mdafc754e94" x="317.107031" y="167.207795" style="fill: #ff0000; stroke: #ff0000; stroke-linejoin: miter"/>
     <use xlink:href="#mdafc754e94" x="321.009129" y="166.340377" style="fill: #ff0000; stroke: #ff0000; stroke-linejoin: miter"/>
     <use xlink:href="#mdafc754e94" x="402.953185" y="148.124606" style="fill: #ff0000; stroke: #ff0000; stroke-linejoin: miter"/>
     <use xlink:href="#mdafc754e94" x="465.386752" y="134.245923" style="fill: #ff0000; stroke: #ff0000; stroke-linejoin: miter"/>
     <use xlink:href="#mdafc754e94" x="473.190947" y="132.511087" style="fill: #ff0000; stroke: #ff0000; stroke-linejoin: miter"/>
     <use xlink:href="#mdafc754e94" x="570.743395" y="110.825645" style="fill: #ff0000; stroke: #ff0000; stroke-linejoin: miter"/>
    </g>
   </g>
   <g id="LineCollection_1">
    <path d="M 63.470668 254.16 
L 63.470668 223.589946 
" clip-path="url(#pb41237b1c2)" style="fill: none; stroke: #0173b2; stroke-width: 1.5"/>
    <path d="M 94.687451 286.08 
L 94.687451 216.650604 
" clip-path="url(#pb41237b1c2)" style="fill: none; stroke: #0173b2; stroke-width: 1.5"/>
    <path d="M 122.002136 324.72 
L 122.002136 210.57868 
" clip-path="url(#pb41237b1c2)" style="fill: none; stroke: #0173b2; stroke-width: 1.5"/>
    <path d="M 122.002136 22.32 
L 122.002136 210.57868 
" clip-path="url(#pb41237b1c2)" style="fill: none; stroke: #0173b2; stroke-width: 1.5"/>
    <path d="M 141.512626 170.16 
L 141.512626 206.241592 
" clip-path="url(#pb41237b1c2)" style="fill: none; stroke: #0173b2; stroke-width: 1.5"/>
    <path d="M 180.533605 161.76 
L 180.533605 197.567415 
" clip-path="url(#pb41237b1c2)" style="fill: none; stroke: #0173b2; stroke-width: 1.5"/>
    <path d="M 207.84829 138.24 
L 207.84829 191.495491 
" clip-path="url(#pb41237b1c2)" style="fill: none; stroke: #0173b2; stroke-width: 1.5"/>
    <path d="M 207.84829 188.64 
L 207.84829 191.495491 
" clip-path="url(#pb41237b1c2)" style="fill: none; stroke: #0173b2; stroke-width: 1.5"/>
    <path d="M 231.260877 212.16 
L 231.260877 186.290985 
" clip-path="url(#pb41237b1c2)" style="fill: none; stroke: #0173b2; stroke-width: 1.5"/>
    <path d="M 242.967171 190.32 
L 242.967171 183.688732 
" clip-path="url(#pb41237b1c2)" style="fill: none; stroke: #0173b2; stroke-width: 1.5"/>
    <path d="M 266.379759 202.08 
L 266.379759 178.484225 
" clip-path="url(#pb41237b1c2)" style="fill: none; stroke: #0173b2; stroke-width: 1.5"/>
    <path d="M 285.890248 321.36 
L 285.890248 174.147137 
" clip-path="url(#pb41237b1c2)" style="fill: none; stroke: #0173b2; stroke-width: 1.5"/>
    <path d="M 317.107031 176.88 
L 317.107031 167.207795 
" clip-path="url(#pb41237b1c2)" style="fill: none; stroke: #0173b2; stroke-width: 1.5"/>
    <path d="M 317.107031 158.4 
L 317.107031 167.207795 
" clip-path="url(#pb41237b1c2)" style="fill: none; stroke: #0173b2; stroke-width: 1.5"/>
    <path d="M 317.107031 136.56 
L 317.107031 167.207795 
" clip-path="url(#pb41237b1c2)" style="fill: none; stroke: #0173b2; stroke-width: 1.5"/>
    <path d="M 321.009129 166.8 
L 321.009129 166.340377 
" clip-path="url(#pb41237b1c2)" style="fill: none; stroke: #0173b2; stroke-width: 1.5"/>
    <path d="M 402.953185 30.72 
L 402.953185 148.124606 
" clip-path="url(#pb41237b1c2)" style="fill: none; stroke: #0173b2; stroke-width: 1.5"/>
    <path d="M 465.386752 195.36 
L 465.386752 134.245923 
" clip-path="url(#pb41237b1c2)" style="fill: none; stroke: #0173b2; stroke-width: 1.5"/>
    <path d="M 473.190947 82.8 
L 473.190947 132.511087 
" clip-path="url(#pb41237b1c2)" style="fill: none; stroke: #0173b2; stroke-width: 1.5"/>
    <path d="M 570.743395 144.96 
L 570.743395 110.825645 
" clip-path="url(#pb41237b1c2)" style="fill: none; stroke: #0173b2; stroke-width: 1.5"/>
   </g>
   <g id="patch_3">
    <path d="M 38.107031 339.84 
L 38.107031 7.2 
" style="fill: none; stroke: #ffffff; stroke-width: 1.25; stroke-linejoin: miter; stroke-linecap: square"/>
   </g>
   <g id="patch_4">
    <path d="M 596.107031 339.84 
L 596.107031 7.2 
" style="fill: none; stroke: #ffffff; stroke-width: 1.25; stroke-linejoin: miter; stroke-linecap: square"/>
   </g>
   <g id="patch_5">
    <path d="M 38.107031 339.84 
L 596.107031 339.84 
" style="fill: none; stroke: #ffffff; stroke-width: 1.25; stroke-linejoin: miter; stroke-linecap: square"/>
   </g>
   <g id="patch_6">
    <path d="M 38.107031 7.2 
L 596.107031 7.2 
" style="fill: none; stroke: #ffffff; stroke-width: 1.25; stroke-linejoin: miter; stroke-linecap: square"/>
   </g>
  </g>
 </g>
 <defs>
  <clipPath id="pb41237b1c2">
   <rect x="38.107031" y="7.2" width="558" height="332.64"/>
  </clipPath>
 </defs>
</svg>