<?xml version="1.0" encoding="utf-8" standalone="no"?>
<!DOCTYPE svg PUBLIC "-//W3C//DTD SVG 1.1//EN"
  "http://www.w3.org/Graphics/SVG/1.1/DTD/svg11.dtd">
<svg xmlns:xlink="http://www.w3.org/1999/xlink" width="609.249062pt" height="381.574219pt" viewBox="0 0 609.249062 381.574219" xmlns="http://www.w3.org/2000/svg" version="1.1">
 <metadata>
  <rdf:RDF xmlns:dc="http://purl.org/dc/elements/1.1/" xmlns:cc="http://creativecommons.org/ns#" xmlns:rdf="http://www.w3.org/1999/02/22-rdf-syntax-ns#">
   <cc:Work>
    <dc:type rdf:resource="http://purl.org/dc/dcmitype/StillImage"/>
    <dc:date>2023-05-30T23:15:13.807868</dc:date>
    <dc:format>image/svg+xml</dc:format>
    <dc:creator>
     <cc:Agent>
      <dc:title>Matplotlib v3.7.1, https://matplotlib.org/</dc:title>
     </cc:Agent>
    </dc:creator>
   </cc:Work>
  </rdf:RDF>
 </metadata>
 <defs>
  <style type="text/css">*{stroke-linejoin: round; stroke-linecap: butt}</style>
 </defs>
 <g id="figure_1">
  <g id="patch_1">
   <path d="M 0 381.574219 
L 609.249062 381.574219 
L 609.249062 0 
L 0 0 
z
" style="fill: #ffffff"/>
  </g>
  <g id="axes_1">
   <g id="patch_2">
    <path d="M 44.049062 339.84 
L 602.049062 339.84 
L 602.049062 7.2 
L 44.049062 7.2 
z
" style="fill: #eaeaf2"/>
   </g>
   <g id="matplotlib.axis_1">
    <g id="xtick_1">
     <g id="line2d_1">
      <path d="M 69.412699 339.84 
L 69.412699 7.2 
" clip-path="url(#paef1638a7a)" style="fill: none; stroke: #ffffff; stroke-linecap: round"/>
     </g>
     <g id="text_1">
      <!-- 0.0 -->
      <g style="fill: #262626" transform="translate(61.767699 357.213594) scale(0.11 -0.11)">
       <defs>
        <path id="ArialMT-30" d="M 266 2259 
Q 266 3072 433 3567 
Q 600 4063 929 4331 
Q 1259 4600 1759 4600 
Q 2128 4600 2406 4451 
Q 2684 4303 2865 4023 
Q 3047 3744 3150 3342 
Q 3253 2941 3253 2259 
Q 3253 1453 3087 958 
Q 2922 463 2592 192 
Q 2263 -78 1759 -78 
Q 1097 -78 719 397 
Q 266 969 266 2259 
z
M 844 2259 
Q 844 1131 1108 757 
Q 1372 384 1759 384 
Q 2147 384 2411 759 
Q 2675 1134 2675 2259 
Q 2675 3391 2411 3762 
Q 2147 4134 1753 4134 
Q 1366 4134 1134 3806 
Q 844 3388 844 2259 
z
" transform="scale(0.015625)"/>
        <path id="ArialMT-2e" d="M 581 0 
L 581 641 
L 1222 641 
L 1222 0 
L 581 0 
z
" transform="scale(0.015625)"/>
       </defs>
       <use xlink:href="#ArialMT-30"/>
       <use xlink:href="#ArialMT-2e" x="55.615234"/>
       <use xlink:href="#ArialMT-30" x="83.398438"/>
      </g>
     </g>
    </g>
    <g id="xtick_2">
     <g id="line2d_2">
      <path d="M 170.867244 339.84 
L 170.867244 7.2 
" clip-path="url(#paef1638a7a)" style="fill: none; stroke: #ffffff; stroke-linecap: round"/>
     </g>
     <g id="text_2">
      <!-- 0.2 -->
      <g style="fill: #262626" transform="translate(163.222244 357.213594) scale(0.11 -0.11)">
       <defs>
        <path id="ArialMT-32" d="M 3222 541 
L 3222 0 
L 194 0 
Q 188 203 259 391 
Q 375 700 629 1000 
Q 884 1300 1366 1694 
Q 2113 2306 2375 2664 
Q 2638 3022 2638 3341 
Q 2638 3675 2398 3904 
Q 2159 4134 1775 4134 
Q 1369 4134 1125 3890 
Q 881 3647 878 3216 
L 300 3275 
Q 359 3922 746 4261 
Q 1134 4600 1788 4600 
Q 2447 4600 2831 4234 
Q 3216 3869 3216 3328 
Q 3216 3053 3103 2787 
Q 2991 2522 2730 2228 
Q 2469 1934 1863 1422 
Q 1356 997 1212 845 
Q 1069 694 975 541 
L 3222 541 
z
" transform="scale(0.015625)"/>
       </defs>
       <use xlink:href="#ArialMT-30"/>
       <use xlink:href="#ArialMT-2e" x="55.615234"/>
       <use xlink:href="#ArialMT-32" x="83.398438"/>
      </g>
     </g>
    </g>
    <g id="xtick_3">
     <g id="line2d_3">
      <path d="M 272.32179 339.84 
L 272.32179 7.2 
" clip-path="url(#paef1638a7a)" style="fill: none; stroke: #ffffff; stroke-linecap: round"/>
     </g>
     <g id="text_3">
      <!-- 0.4 -->
      <g style="fill: #262626" transform="translate(264.67679 357.213594) scale(0.11 -0.11)">
       <defs>
        <path id="ArialMT-34" d="M 2069 0 
L 2069 1097 
L 81 1097 
L 81 1613 
L 2172 4581 
L 2631 4581 
L 2631 1613 
L 3250 1613 
L 3250 1097 
L 2631 1097 
L 2631 0 
L 2069 0 
z
M 2069 1613 
L 2069 3678 
L 634 1613 
L 2069 1613 
z
" transform="scale(0.015625)"/>
       </defs>
       <use xlink:href="#ArialMT-30"/>
       <use xlink:href="#ArialMT-2e" x="55.615234"/>
       <use xlink:href="#ArialMT-34" x="83.398438"/>
      </g>
     </g>
    </g>
    <g id="xtick_4">
     <g id="line2d_4">
      <path d="M 373.776335 339.84 
L 373.776335 7.2 
" clip-path="url(#paef1638a7a)" style="fill: none; stroke: #ffffff; stroke-linecap: round"/>
     </g>
     <g id="text_4">
      <!-- 0.6 -->
      <g style="fill: #262626" transform="translate(366.131335 357.213594) scale(0.11 -0.11)">
       <defs>
        <path id="ArialMT-36" d="M 3184 3459 
L 2625 3416 
Q 2550 3747 2413 3897 
Q 2184 4138 1850 4138 
Q 1581 4138 1378 3988 
Q 1113 3794 959 3422 
Q 806 3050 800 2363 
Q 1003 2672 1297 2822 
Q 1591 2972 1913 2972 
Q 2475 2972 2870 2558 
Q 3266 2144 3266 1488 
Q 3266 1056 3080 686 
Q 2894 316 2569 119 
Q 2244 -78 1831 -78 
Q 1128 -78 684 439 
Q 241 956 241 2144 
Q 241 3472 731 4075 
Q 1159 4600 1884 4600 
Q 2425 4600 2770 4297 
Q 3116 3994 3184 3459 
z
M 888 1484 
Q 888 1194 1011 928 
Q 1134 663 1356 523 
Q 1578 384 1822 384 
Q 2178 384 2434 671 
Q 2691 959 2691 1453 
Q 2691 1928 2437 2201 
Q 2184 2475 1800 2475 
Q 1419 2475 1153 2201 
Q 888 1928 888 1484 
z
" transform="scale(0.015625)"/>
       </defs>
       <use xlink:href="#ArialMT-30"/>
       <use xlink:href="#ArialMT-2e" x="55.615234"/>
       <use xlink:href="#ArialMT-36" x="83.398438"/>
      </g>
     </g>
    </g>
    <g id="xtick_5">
     <g id="line2d_5">
      <path d="M 475.230881 339.84 
L 475.230881 7.2 
" clip-path="url(#paef1638a7a)" style="fill: none; stroke: #ffffff; stroke-linecap: round"/>
     </g>
     <g id="text_5">
      <!-- 0.8 -->
      <g style="fill: #262626" transform="translate(467.585881 357.213594) scale(0.11 -0.11)">
       <defs>
        <path id="ArialMT-38" d="M 1131 2484 
Q 781 2613 612 2850 
Q 444 3088 444 3419 
Q 444 3919 803 4259 
Q 1163 4600 1759 4600 
Q 2359 4600 2725 4251 
Q 3091 3903 3091 3403 
Q 3091 3084 2923 2848 
Q 2756 2613 2416 2484 
Q 2838 2347 3058 2040 
Q 3278 1734 3278 1309 
Q 3278 722 2862 322 
Q 2447 -78 1769 -78 
Q 1091 -78 675 323 
Q 259 725 259 1325 
Q 259 1772 486 2073 
Q 713 2375 1131 2484 
z
M 1019 3438 
Q 1019 3113 1228 2906 
Q 1438 2700 1772 2700 
Q 2097 2700 2305 2904 
Q 2513 3109 2513 3406 
Q 2513 3716 2298 3927 
Q 2084 4138 1766 4138 
Q 1444 4138 1231 3931 
Q 1019 3725 1019 3438 
z
M 838 1322 
Q 838 1081 952 856 
Q 1066 631 1291 507 
Q 1516 384 1775 384 
Q 2178 384 2440 643 
Q 2703 903 2703 1303 
Q 2703 1709 2433 1975 
Q 2163 2241 1756 2241 
Q 1359 2241 1098 1978 
Q 838 1716 838 1322 
z
" transform="scale(0.015625)"/>
       </defs>
       <use xlink:href="#ArialMT-30"/>
       <use xlink:href="#ArialMT-2e" x="55.615234"/>
       <use xlink:href="#ArialMT-38" x="83.398438"/>
      </g>
     </g>
    </g>
    <g id="xtick_6">
     <g id="line2d_6">
      <path d="M 576.685426 339.84 
L 576.685426 7.2 
" clip-path="url(#paef1638a7a)" style="fill: none; stroke: #ffffff; stroke-linecap: round"/>
     </g>
     <g id="text_6">
      <!-- 1.0 -->
      <g style="fill: #262626" transform="translate(569.040426 357.213594) scale(0.11 -0.11)">
       <defs>
        <path id="ArialMT-31" d="M 2384 0 
L 1822 0 
L 1822 3584 
Q 1619 3391 1289 3197 
Q 959 3003 697 2906 
L 697 3450 
Q 1169 3672 1522 3987 
Q 1875 4303 2022 4600 
L 2384 4600 
L 2384 0 
z
" transform="scale(0.015625)"/>
       </defs>
       <use xlink:href="#ArialMT-31"/>
       <use xlink:href="#ArialMT-2e" x="55.615234"/>
       <use xlink:href="#ArialMT-30" x="83.398438"/>
      </g>
     </g>
    </g>
    <g id="text_7">
     <!-- $\pi$ -->
     <g style="fill: #262626" transform="translate(319.629062 371.989219) scale(0.12 -0.12)">
      <defs>
       <path id="Cmmi10-bc" d="M 647 109 
Q 647 144 672 213 
Q 850 584 1004 942 
Q 1159 1300 1282 1639 
Q 1406 1978 1509 2363 
L 1100 2363 
Q 866 2363 662 2216 
Q 459 2069 325 1844 
Q 313 1819 288 1819 
L 213 1819 
Q 153 1819 153 1881 
Q 153 1894 166 1919 
Q 375 2275 614 2517 
Q 853 2759 1153 2759 
L 3475 2759 
Q 3541 2759 3587 2715 
Q 3634 2672 3634 2597 
Q 3634 2503 3567 2433 
Q 3500 2363 3406 2363 
L 2591 2363 
Q 2488 1859 2478 1381 
Q 2478 766 2694 269 
Q 2713 231 2713 191 
Q 2713 122 2672 62 
Q 2631 3 2567 -34 
Q 2503 -72 2431 -72 
Q 2263 -72 2200 203 
Q 2138 478 2138 738 
Q 2138 1103 2200 1442 
Q 2263 1781 2400 2363 
L 1703 2363 
Q 1197 313 1094 103 
Q 1003 -72 844 -72 
Q 766 -72 706 -20 
Q 647 31 647 109 
z
" transform="scale(0.015625)"/>
      </defs>
      <use xlink:href="#Cmmi10-bc" transform="translate(0 0.890625)"/>
     </g>
    </g>
   </g>
   <g id="matplotlib.axis_2">
    <g id="ytick_1">
     <g id="line2d_7">
      <path d="M 44.049062 324.72 
L 602.049062 324.72 
" clip-path="url(#paef1638a7a)" style="fill: none; stroke: #ffffff; stroke-linecap: round"/>
     </g>
     <g id="text_8">
      <!-- 0 -->
      <g style="fill: #262626" transform="translate(28.432031 328.656797) scale(0.11 -0.11)">
       <use xlink:href="#ArialMT-30"/>
      </g>
     </g>
    </g>
    <g id="ytick_2">
     <g id="line2d_8">
      <path d="M 44.049062 278.292436 
L 602.049062 278.292436 
" clip-path="url(#paef1638a7a)" style="fill: none; stroke: #ffffff; stroke-linecap: round"/>
     </g>
     <g id="text_9">
      <!-- 2 -->
      <g style="fill: #262626" transform="translate(28.432031 282.229233) scale(0.11 -0.11)">
       <use xlink:href="#ArialMT-32"/>
      </g>
     </g>
    </g>
    <g id="ytick_3">
     <g id="line2d_9">
      <path d="M 44.049062 231.864873 
L 602.049062 231.864873 
" clip-path="url(#paef1638a7a)" style="fill: none; stroke: #ffffff; stroke-linecap: round"/>
     </g>
     <g id="text_10">
      <!-- 4 -->
      <g style="fill: #262626" transform="translate(28.432031 235.801669) scale(0.11 -0.11)">
       <use xlink:href="#ArialMT-34"/>
      </g>
     </g>
    </g>
    <g id="ytick_4">
     <g id="line2d_10">
      <path d="M 44.049062 185.437309 
L 602.049062 185.437309 
" clip-path="url(#paef1638a7a)" style="fill: none; stroke: #ffffff; stroke-linecap: round"/>
     </g>
     <g id="text_11">
      <!-- 6 -->
      <g style="fill: #262626" transform="translate(28.432031 189.374106) scale(0.11 -0.11)">
       <use xlink:href="#ArialMT-36"/>
      </g>
     </g>
    </g>
    <g id="ytick_5">
     <g id="line2d_11">
      <path d="M 44.049062 139.009745 
L 602.049062 139.009745 
" clip-path="url(#paef1638a7a)" style="fill: none; stroke: #ffffff; stroke-linecap: round"/>
     </g>
     <g id="text_12">
      <!-- 8 -->
      <g style="fill: #262626" transform="translate(28.432031 142.946542) scale(0.11 -0.11)">
       <use xlink:href="#ArialMT-38"/>
      </g>
     </g>
    </g>
    <g id="ytick_6">
     <g id="line2d_12">
      <path d="M 44.049062 92.582181 
L 602.049062 92.582181 
" clip-path="url(#paef1638a7a)" style="fill: none; stroke: #ffffff; stroke-linecap: round"/>
     </g>
     <g id="text_13">
      <!-- 10 -->
      <g style="fill: #262626" transform="translate(22.315 96.518978) scale(0.11 -0.11)">
       <use xlink:href="#ArialMT-31"/>
       <use xlink:href="#ArialMT-30" x="55.615234"/>
      </g>
     </g>
    </g>
    <g id="ytick_7">
     <g id="line2d_13">
      <path d="M 44.049062 46.154618 
L 602.049062 46.154618 
" clip-path="url(#paef1638a7a)" style="fill: none; stroke: #ffffff; stroke-linecap: round"/>
     </g>
     <g id="text_14">
      <!-- 12 -->
      <g style="fill: #262626" transform="translate(22.315 50.091415) scale(0.11 -0.11)">
       <use xlink:href="#ArialMT-31"/>
       <use xlink:href="#ArialMT-32" x="55.615234"/>
      </g>
     </g>
    </g>
    <g id="text_15">
     <!-- density -->
     <g style="fill: #262626" transform="translate(15.789375 192.529688) rotate(-90) scale(0.12 -0.12)">
      <defs>
       <path id="ArialMT-64" d="M 2575 0 
L 2575 419 
Q 2259 -75 1647 -75 
Q 1250 -75 917 144 
Q 584 363 401 755 
Q 219 1147 219 1656 
Q 219 2153 384 2558 
Q 550 2963 881 3178 
Q 1213 3394 1622 3394 
Q 1922 3394 2156 3267 
Q 2391 3141 2538 2938 
L 2538 4581 
L 3097 4581 
L 3097 0 
L 2575 0 
z
M 797 1656 
Q 797 1019 1065 703 
Q 1334 388 1700 388 
Q 2069 388 2326 689 
Q 2584 991 2584 1609 
Q 2584 2291 2321 2609 
Q 2059 2928 1675 2928 
Q 1300 2928 1048 2622 
Q 797 2316 797 1656 
z
" transform="scale(0.015625)"/>
       <path id="ArialMT-65" d="M 2694 1069 
L 3275 997 
Q 3138 488 2766 206 
Q 2394 -75 1816 -75 
Q 1088 -75 661 373 
Q 234 822 234 1631 
Q 234 2469 665 2931 
Q 1097 3394 1784 3394 
Q 2450 3394 2872 2941 
Q 3294 2488 3294 1666 
Q 3294 1616 3291 1516 
L 816 1516 
Q 847 969 1125 678 
Q 1403 388 1819 388 
Q 2128 388 2347 550 
Q 2566 713 2694 1069 
z
M 847 1978 
L 2700 1978 
Q 2663 2397 2488 2606 
Q 2219 2931 1791 2931 
Q 1403 2931 1139 2672 
Q 875 2413 847 1978 
z
" transform="scale(0.015625)"/>
       <path id="ArialMT-6e" d="M 422 0 
L 422 3319 
L 928 3319 
L 928 2847 
Q 1294 3394 1984 3394 
Q 2284 3394 2536 3286 
Q 2788 3178 2913 3003 
Q 3038 2828 3088 2588 
Q 3119 2431 3119 2041 
L 3119 0 
L 2556 0 
L 2556 2019 
Q 2556 2363 2490 2533 
Q 2425 2703 2258 2804 
Q 2091 2906 1866 2906 
Q 1506 2906 1245 2678 
Q 984 2450 984 1813 
L 984 0 
L 422 0 
z
" transform="scale(0.015625)"/>
       <path id="ArialMT-73" d="M 197 991 
L 753 1078 
Q 800 744 1014 566 
Q 1228 388 1613 388 
Q 2000 388 2187 545 
Q 2375 703 2375 916 
Q 2375 1106 2209 1216 
Q 2094 1291 1634 1406 
Q 1016 1563 777 1677 
Q 538 1791 414 1992 
Q 291 2194 291 2438 
Q 291 2659 392 2848 
Q 494 3038 669 3163 
Q 800 3259 1026 3326 
Q 1253 3394 1513 3394 
Q 1903 3394 2198 3281 
Q 2494 3169 2634 2976 
Q 2775 2784 2828 2463 
L 2278 2388 
Q 2241 2644 2061 2787 
Q 1881 2931 1553 2931 
Q 1166 2931 1000 2803 
Q 834 2675 834 2503 
Q 834 2394 903 2306 
Q 972 2216 1119 2156 
Q 1203 2125 1616 2013 
Q 2213 1853 2448 1751 
Q 2684 1650 2818 1456 
Q 2953 1263 2953 975 
Q 2953 694 2789 445 
Q 2625 197 2315 61 
Q 2006 -75 1616 -75 
Q 969 -75 630 194 
Q 291 463 197 991 
z
" transform="scale(0.015625)"/>
       <path id="ArialMT-69" d="M 425 3934 
L 425 4581 
L 988 4581 
L 988 3934 
L 425 3934 
z
M 425 0 
L 425 3319 
L 988 3319 
L 988 0 
L 425 0 
z
" transform="scale(0.015625)"/>
       <path id="ArialMT-74" d="M 1650 503 
L 1731 6 
Q 1494 -44 1306 -44 
Q 1000 -44 831 53 
Q 663 150 594 308 
Q 525 466 525 972 
L 525 2881 
L 113 2881 
L 113 3319 
L 525 3319 
L 525 4141 
L 1084 4478 
L 1084 3319 
L 1650 3319 
L 1650 2881 
L 1084 2881 
L 1084 941 
Q 1084 700 1114 631 
Q 1144 563 1211 522 
Q 1278 481 1403 481 
Q 1497 481 1650 503 
z
" transform="scale(0.015625)"/>
       <path id="ArialMT-79" d="M 397 -1278 
L 334 -750 
Q 519 -800 656 -800 
Q 844 -800 956 -737 
Q 1069 -675 1141 -563 
Q 1194 -478 1313 -144 
Q 1328 -97 1363 -6 
L 103 3319 
L 709 3319 
L 1400 1397 
Q 1534 1031 1641 628 
Q 1738 1016 1872 1384 
L 2581 3319 
L 3144 3319 
L 1881 -56 
Q 1678 -603 1566 -809 
Q 1416 -1088 1222 -1217 
Q 1028 -1347 759 -1347 
Q 597 -1347 397 -1278 
z
" transform="scale(0.015625)"/>
      </defs>
      <use xlink:href="#ArialMT-64"/>
      <use xlink:href="#ArialMT-65" x="55.615234"/>
      <use xlink:href="#ArialMT-6e" x="111.230469"/>
      <use xlink:href="#ArialMT-73" x="166.845703"/>
      <use xlink:href="#ArialMT-69" x="216.845703"/>
      <use xlink:href="#ArialMT-74" x="239.0625"/>
      <use xlink:href="#ArialMT-79" x="266.845703"/>
     </g>
    </g>
   </g>
   <g id="PolyCollection_1">
    <defs>
     <path id="me92505b5e4" d="M 69.412699 -56.854219 
L 69.412699 -56.854219 
L 74.536666 -63.608754 
L 79.660633 -69.820281 
L 84.7846 -75.513606 
L 89.908567 -80.712854 
L 95.032534 -85.441483 
L 100.156501 -89.72229 
L 105.280467 -93.57742 
L 110.404434 -97.028372 
L 115.528401 -100.096015 
L 120.652368 -102.800589 
L 125.776335 -105.161718 
L 130.900302 -107.198418 
L 136.024269 -108.929106 
L 141.148236 -110.371608 
L 146.272203 -111.543169 
L 151.39617 -112.460459 
L 156.520137 -113.139587 
L 161.644104 -113.596104 
L 166.768071 -113.845016 
L 171.892038 -113.900789 
L 177.016005 -113.777364 
L 182.139972 -113.488157 
L 187.263939 -113.046076 
L 192.387905 -112.463525 
L 197.511872 -111.752414 
L 202.635839 -110.924169 
L 207.759806 -109.989738 
L 212.883773 -108.959603 
L 218.00774 -107.843787 
L 223.131707 -106.651863 
L 228.255674 -105.392962 
L 233.379641 -104.075783 
L 238.503608 -102.708603 
L 243.627575 -101.299282 
L 248.751542 -99.855275 
L 253.875509 -98.38364 
L 258.999476 -96.891047 
L 264.123443 -95.383785 
L 269.24741 -93.867773 
L 274.371377 -92.348568 
L 279.495343 -90.831374 
L 284.61931 -89.321049 
L 289.743277 -87.822118 
L 294.867244 -86.338776 
L 299.991211 -84.874903 
L 305.115178 -83.434067 
L 310.239145 -82.019536 
L 315.363112 -80.634288 
L 320.487079 -79.281017 
L 325.611046 -77.962142 
L 330.735013 -76.679817 
L 335.85898 -75.435941 
L 340.982947 -74.232162 
L 346.106914 -73.069892 
L 351.230881 -71.950312 
L 356.354848 -70.874381 
L 361.478815 -69.842844 
L 366.602782 -68.856246 
L 371.726748 -67.914933 
L 376.850715 -67.019066 
L 381.974682 -66.16863 
L 387.098649 -65.363439 
L 392.222616 -64.603149 
L 397.346583 -63.887263 
L 402.47055 -63.215143 
L 407.594517 -62.586017 
L 412.718484 -61.998988 
L 417.842451 -61.453044 
L 422.966418 -60.947064 
L 428.090385 -60.47983 
L 433.214352 -60.050034 
L 438.338319 -59.656287 
L 443.462286 -59.297129 
L 448.586253 -58.971034 
L 453.71022 -58.676424 
L 458.834186 -58.411676 
L 463.958153 -58.175127 
L 469.08212 -57.965088 
L 474.206087 -57.779851 
L 479.330054 -57.617695 
L 484.454021 -57.476901 
L 489.577988 -57.355753 
L 494.701955 -57.252554 
L 499.825922 -57.165631 
L 504.949889 -57.093342 
L 510.073856 -57.034091 
L 515.197823 -56.986329 
L 520.32179 -56.948569 
L 525.445757 -56.919394 
L 530.569724 -56.897461 
L 535.693691 -56.881514 
L 540.817658 -56.870395 
L 545.941624 -56.863045 
L 551.065591 -56.858521 
L 556.189558 -56.856 
L 561.313525 -56.854788 
L 566.437492 -56.854332 
L 571.561459 -56.854226 
L 576.685426 -56.854219 
L 576.685426 -56.854219 
L 576.685426 -56.854219 
L 571.561459 -56.854219 
L 566.437492 -56.854219 
L 561.313525 -56.854219 
L 556.189558 -56.854219 
L 551.065591 -56.854219 
L 545.941624 -56.854219 
L 540.817658 -56.854219 
L 535.693691 -56.854219 
L 530.569724 -56.854219 
L 525.445757 -56.854219 
L 520.32179 -56.854219 
L 515.197823 -56.854219 
L 510.073856 -56.854219 
L 504.949889 -56.854219 
L 499.825922 -56.854219 
L 494.701955 -56.854219 
L 489.577988 -56.854219 
L 484.454021 -56.854219 
L 479.330054 -56.854219 
L 474.206087 -56.854219 
L 469.08212 -56.854219 
L 463.958153 -56.854219 
L 458.834186 -56.854219 
L 453.71022 -56.854219 
L 448.586253 -56.854219 
L 443.462286 -56.854219 
L 438.338319 -56.854219 
L 433.214352 -56.854219 
L 428.090385 -56.854219 
L 422.966418 -56.854219 
L 417.842451 -56.854219 
L 412.718484 -56.854219 
L 407.594517 -56.854219 
L 402.47055 -56.854219 
L 397.346583 -56.854219 
L 392.222616 -56.854219 
L 387.098649 -56.854219 
L 381.974682 -56.854219 
L 376.850715 -56.854219 
L 371.726748 -56.854219 
L 366.602782 -56.854219 
L 361.478815 -56.854219 
L 356.354848 -56.854219 
L 351.230881 -56.854219 
L 346.106914 -56.854219 
L 340.982947 -56.854219 
L 335.85898 -56.854219 
L 330.735013 -56.854219 
L 325.611046 -56.854219 
L 320.487079 -56.854219 
L 315.363112 -56.854219 
L 310.239145 -56.854219 
L 305.115178 -56.854219 
L 299.991211 -56.854219 
L 294.867244 -56.854219 
L 289.743277 -56.854219 
L 284.61931 -56.854219 
L 279.495343 -56.854219 
L 274.371377 -56.854219 
L 269.24741 -56.854219 
L 264.123443 -56.854219 
L 258.999476 -56.854219 
L 253.875509 -56.854219 
L 248.751542 -56.854219 
L 243.627575 -56.854219 
L 238.503608 -56.854219 
L 233.379641 -56.854219 
L 228.255674 -56.854219 
L 223.131707 -56.854219 
L 218.00774 -56.854219 
L 212.883773 -56.854219 
L 207.759806 -56.854219 
L 202.635839 -56.854219 
L 197.511872 -56.854219 
L 192.387905 -56.854219 
L 187.263939 -56.854219 
L 182.139972 -56.854219 
L 177.016005 -56.854219 
L 171.892038 -56.854219 
L 166.768071 -56.854219 
L 161.644104 -56.854219 
L 156.520137 -56.854219 
L 151.39617 -56.854219 
L 146.272203 -56.854219 
L 141.148236 -56.854219 
L 136.024269 -56.854219 
L 130.900302 -56.854219 
L 125.776335 -56.854219 
L 120.652368 -56.854219 
L 115.528401 -56.854219 
L 110.404434 -56.854219 
L 105.280467 -56.854219 
L 100.156501 -56.854219 
L 95.032534 -56.854219 
L 89.908567 -56.854219 
L 84.7846 -56.854219 
L 79.660633 -56.854219 
L 74.536666 -56.854219 
L 69.412699 -56.854219 
z
" style="stroke: #1a1a1a; stroke-opacity: 0.2; stroke-width: 4"/>
    </defs>
    <g clip-path="url(#paef1638a7a)">
     <use xlink:href="#me92505b5e4" x="0" y="381.574219" style="fill: #1a1a1a; fill-opacity: 0.2; stroke: #1a1a1a; stroke-opacity: 0.2; stroke-width: 4"/>
    </g>
   </g>
   <g id="PolyCollection_2">
    <defs>
     <path id="ma441890228" d="M 69.412699 -56.854219 
L 69.412699 -56.854219 
L 74.536666 -56.854219 
L 79.660633 -56.854219 
L 84.7846 -56.854219 
L 89.908567 -56.854219 
L 95.032534 -56.854219 
L 100.156501 -56.854219 
L 105.280467 -56.854219 
L 110.404434 -56.854219 
L 115.528401 -56.854219 
L 120.652368 -56.854219 
L 125.776335 -56.854219 
L 130.900302 -56.854219 
L 136.024269 -56.854219 
L 141.148236 -56.854219 
L 146.272203 -56.854219 
L 151.39617 -56.854219 
L 156.520137 -56.854219 
L 161.644104 -56.854219 
L 166.768071 -56.854219 
L 171.892038 -56.854219 
L 177.016005 -56.854219 
L 182.139972 -56.854219 
L 187.263939 -56.854219 
L 192.387905 -56.854219 
L 197.511872 -56.854219 
L 202.635839 -56.854219 
L 207.759806 -56.854219 
L 212.883773 -56.854219 
L 218.00774 -56.854219 
L 223.131707 -56.854219 
L 228.255674 -56.854219 
L 233.379641 -56.854219 
L 238.503608 -56.854219 
L 243.627575 -56.854219 
L 248.751542 -56.854219 
L 253.875509 -56.854219 
L 258.999476 -56.854219 
L 264.123443 -56.854219 
L 269.24741 -56.854219 
L 274.371377 -56.854219 
L 279.495343 -56.854219 
L 284.61931 -56.854219 
L 289.743277 -56.854219 
L 294.867244 -56.854219 
L 299.991211 -56.854219 
L 305.115178 -56.854219 
L 310.239145 -56.854219 
L 315.363112 -56.854219 
L 320.487079 -56.854219 
L 325.611046 -56.854219 
L 330.735013 -56.854219 
L 335.85898 -56.85422 
L 340.982947 -56.854226 
L 346.106914 -56.854256 
L 351.230881 -56.854397 
L 356.354848 -56.855001 
L 361.478815 -56.857396 
L 366.602782 -56.866172 
L 371.726748 -56.89585 
L 376.850715 -56.98845 
L 381.974682 -57.254758 
L 387.098649 -57.959733 
L 392.222616 -59.674445 
L 397.346583 -63.497405 
L 402.47055 -71.285482 
L 407.594517 -85.721973 
L 412.718484 -109.932887 
L 417.842451 -146.370754 
L 422.966418 -194.983718 
L 428.090385 -251.31047 
L 433.214352 -305.780258 
L 438.338319 -345.507306 
L 443.462286 -358.737213 
L 448.586253 -340.173498 
L 453.71022 -294.091973 
L 458.834186 -232.922676 
L 463.958153 -171.788675 
L 469.08212 -122.265537 
L 474.206087 -88.97873 
L 479.330054 -70.306888 
L 484.454021 -61.590954 
L 489.577988 -58.233521 
L 494.701955 -57.179903 
L 499.825922 -56.91512 
L 504.949889 -56.862983 
L 510.073856 -56.855156 
L 515.197823 -56.85429 
L 520.32179 -56.854222 
L 525.445757 -56.854219 
L 530.569724 -56.854219 
L 535.693691 -56.854219 
L 540.817658 -56.854219 
L 545.941624 -56.854219 
L 551.065591 -56.854219 
L 556.189558 -56.854219 
L 561.313525 -56.854219 
L 566.437492 -56.854219 
L 571.561459 -56.854219 
L 576.685426 -56.854219 
L 576.685426 -56.854219 
L 576.685426 -56.854219 
L 571.561459 -56.854219 
L 566.437492 -56.854219 
L 561.313525 -56.854219 
L 556.189558 -56.854219 
L 551.065591 -56.854219 
L 545.941624 -56.854219 
L 540.817658 -56.854219 
L 535.693691 -56.854219 
L 530.569724 -56.854219 
L 525.445757 -56.854219 
L 520.32179 -56.854219 
L 515.197823 -56.854219 
L 510.073856 -56.854219 
L 504.949889 -56.854219 
L 499.825922 -56.854219 
L 494.701955 -56.854219 
L 489.577988 -56.854219 
L 484.454021 -56.854219 
L 479.330054 -56.854219 
L 474.206087 -56.854219 
L 469.08212 -56.854219 
L 463.958153 -56.854219 
L 458.834186 -56.854219 
L 453.71022 -56.854219 
L 448.586253 -56.854219 
L 443.462286 -56.854219 
L 438.338319 -56.854219 
L 433.214352 -56.854219 
L 428.090385 -56.854219 
L 422.966418 -56.854219 
L 417.842451 -56.854219 
L 412.718484 -56.854219 
L 407.594517 -56.854219 
L 402.47055 -56.854219 
L 397.346583 -56.854219 
L 392.222616 -56.854219 
L 387.098649 -56.854219 
L 381.974682 -56.854219 
L 376.850715 -56.854219 
L 371.726748 -56.854219 
L 366.602782 -56.854219 
L 361.478815 -56.854219 
L 356.354848 -56.854219 
L 351.230881 -56.854219 
L 346.106914 -56.854219 
L 340.982947 -56.854219 
L 335.85898 -56.854219 
L 330.735013 -56.854219 
L 325.611046 -56.854219 
L 320.487079 -56.854219 
L 315.363112 -56.854219 
L 310.239145 -56.854219 
L 305.115178 -56.854219 
L 299.991211 -56.854219 
L 294.867244 -56.854219 
L 289.743277 -56.854219 
L 284.61931 -56.854219 
L 279.495343 -56.854219 
L 274.371377 -56.854219 
L 269.24741 -56.854219 
L 264.123443 -56.854219 
L 258.999476 -56.854219 
L 253.875509 -56.854219 
L 248.751542 -56.854219 
L 243.627575 -56.854219 
L 238.503608 -56.854219 
L 233.379641 -56.854219 
L 228.255674 -56.854219 
L 223.131707 -56.854219 
L 218.00774 -56.854219 
L 212.883773 -56.854219 
L 207.759806 -56.854219 
L 202.635839 -56.854219 
L 197.511872 -56.854219 
L 192.387905 -56.854219 
L 187.263939 -56.854219 
L 182.139972 -56.854219 
L 177.016005 -56.854219 
L 171.892038 -56.854219 
L 166.768071 -56.854219 
L 161.644104 -56.854219 
L 156.520137 -56.854219 
L 151.39617 -56.854219 
L 146.272203 -56.854219 
L 141.148236 -56.854219 
L 136.024269 -56.854219 
L 130.900302 -56.854219 
L 125.776335 -56.854219 
L 120.652368 -56.854219 
L 115.528401 -56.854219 
L 110.404434 -56.854219 
L 105.280467 -56.854219 
L 100.156501 -56.854219 
L 95.032534 -56.854219 
L 89.908567 -56.854219 
L 84.7846 -56.854219 
L 79.660633 -56.854219 
L 74.536666 -56.854219 
L 69.412699 -56.854219 
z
" style="stroke: #d55e00; stroke-opacity: 0.2; stroke-width: 4"/>
    </defs>
    <g clip-path="url(#paef1638a7a)">
     <use xlink:href="#ma441890228" x="0" y="381.574219" style="fill: #d55e00; fill-opacity: 0.2; stroke: #d55e00; stroke-opacity: 0.2; stroke-width: 4"/>
    </g>
   </g>
   <g id="PolyCollection_3">
    <defs>
     <path id="mac9e0fa7ba" d="M 69.412699 -56.854219 
L 69.412699 -56.854219 
L 74.536666 -56.854219 
L 79.660633 -56.854219 
L 84.7846 -56.854219 
L 89.908567 -56.854219 
L 95.032534 -56.854219 
L 100.156501 -56.854219 
L 105.280467 -56.854219 
L 110.404434 -56.854219 
L 115.528401 -56.854219 
L 120.652368 -56.854219 
L 125.776335 -56.854219 
L 130.900302 -56.854219 
L 136.024269 -56.854219 
L 141.148236 -56.854219 
L 146.272203 -56.854219 
L 151.39617 -56.854219 
L 156.520137 -56.854219 
L 161.644104 -56.854219 
L 166.768071 -56.854219 
L 171.892038 -56.854219 
L 177.016005 -56.854219 
L 182.139972 -56.854219 
L 187.263939 -56.854219 
L 192.387905 -56.854219 
L 197.511872 -56.854219 
L 202.635839 -56.854219 
L 207.759806 -56.854219 
L 212.883773 -56.854219 
L 218.00774 -56.854219 
L 223.131707 -56.854219 
L 228.255674 -56.854219 
L 233.379641 -56.854219 
L 238.503608 -56.854219 
L 243.627575 -56.854219 
L 248.751542 -56.854219 
L 253.875509 -56.854219 
L 258.999476 -56.854219 
L 264.123443 -56.854219 
L 269.24741 -56.854219 
L 274.371377 -56.854219 
L 279.495343 -56.854219 
L 284.61931 -56.854219 
L 289.743277 -56.854219 
L 294.867244 -56.854219 
L 299.991211 -56.854219 
L 305.115178 -56.854219 
L 310.239145 -56.854219 
L 315.363112 -56.854219 
L 320.487079 -56.854219 
L 325.611046 -56.854219 
L 330.735013 -56.854219 
L 335.85898 -56.854219 
L 340.982947 -56.85422 
L 346.106914 -56.854224 
L 351.230881 -56.854245 
L 356.354848 -56.854345 
L 361.478815 -56.854771 
L 366.602782 -56.856469 
L 371.726748 -56.862723 
L 376.850715 -56.884055 
L 381.974682 -56.951377 
L 387.098649 -57.147756 
L 392.222616 -57.67652 
L 397.346583 -58.988353 
L 402.47055 -61.98015 
L 407.594517 -68.233392 
L 412.718484 -80.164242 
L 417.842451 -100.833182 
L 422.966418 -133.105956 
L 428.090385 -178.033756 
L 433.214352 -232.839874 
L 438.338319 -289.602277 
L 443.462286 -336.057045 
L 448.586253 -359.254219 
L 453.71022 -351.008374 
L 458.834186 -312.273711 
L 463.958153 -253.446386 
L 469.08212 -189.893085 
L 474.206087 -135.267002 
L 479.330054 -96.665072 
L 484.454021 -74.041274 
L 489.577988 -63.067876 
L 494.701955 -58.701514 
L 499.825922 -57.296073 
L 504.949889 -56.937025 
L 510.073856 -56.865988 
L 515.197823 -56.855437 
L 520.32179 -56.854306 
L 525.445757 -56.854223 
L 530.569724 -56.854219 
L 535.693691 -56.854219 
L 540.817658 -56.854219 
L 545.941624 -56.854219 
L 551.065591 -56.854219 
L 556.189558 -56.854219 
L 561.313525 -56.854219 
L 566.437492 -56.854219 
L 571.561459 -56.854219 
L 576.685426 -56.854219 
L 576.685426 -56.854219 
L 576.685426 -56.854219 
L 571.561459 -56.854219 
L 566.437492 -56.854219 
L 561.313525 -56.854219 
L 556.189558 -56.854219 
L 551.065591 -56.854219 
L 545.941624 -56.854219 
L 540.817658 -56.854219 
L 535.693691 -56.854219 
L 530.569724 -56.854219 
L 525.445757 -56.854219 
L 520.32179 -56.854219 
L 515.197823 -56.854219 
L 510.073856 -56.854219 
L 504.949889 -56.854219 
L 499.825922 -56.854219 
L 494.701955 -56.854219 
L 489.577988 -56.854219 
L 484.454021 -56.854219 
L 479.330054 -56.854219 
L 474.206087 -56.854219 
L 469.08212 -56.854219 
L 463.958153 -56.854219 
L 458.834186 -56.854219 
L 453.71022 -56.854219 
L 448.586253 -56.854219 
L 443.462286 -56.854219 
L 438.338319 -56.854219 
L 433.214352 -56.854219 
L 428.090385 -56.854219 
L 422.966418 -56.854219 
L 417.842451 -56.854219 
L 412.718484 -56.854219 
L 407.594517 -56.854219 
L 402.47055 -56.854219 
L 397.346583 -56.854219 
L 392.222616 -56.854219 
L 387.098649 -56.854219 
L 381.974682 -56.854219 
L 376.850715 -56.854219 
L 371.726748 -56.854219 
L 366.602782 -56.854219 
L 361.478815 -56.854219 
L 356.354848 -56.854219 
L 351.230881 -56.854219 
L 346.106914 -56.854219 
L 340.982947 -56.854219 
L 335.85898 -56.854219 
L 330.735013 -56.854219 
L 325.611046 -56.854219 
L 320.487079 -56.854219 
L 315.363112 -56.854219 
L 310.239145 -56.854219 
L 305.115178 -56.854219 
L 299.991211 -56.854219 
L 294.867244 -56.854219 
L 289.743277 -56.854219 
L 284.61931 -56.854219 
L 279.495343 -56.854219 
L 274.371377 -56.854219 
L 269.24741 -56.854219 
L 264.123443 -56.854219 
L 258.999476 -56.854219 
L 253.875509 -56.854219 
L 248.751542 -56.854219 
L 243.627575 -56.854219 
L 238.503608 -56.854219 
L 233.379641 -56.854219 
L 228.255674 -56.854219 
L 223.131707 -56.854219 
L 218.00774 -56.854219 
L 212.883773 -56.854219 
L 207.759806 -56.854219 
L 202.635839 -56.854219 
L 197.511872 -56.854219 
L 192.387905 -56.854219 
L 187.263939 -56.854219 
L 182.139972 -56.854219 
L 177.016005 -56.854219 
L 171.892038 -56.854219 
L 166.768071 -56.854219 
L 161.644104 -56.854219 
L 156.520137 -56.854219 
L 151.39617 -56.854219 
L 146.272203 -56.854219 
L 141.148236 -56.854219 
L 136.024269 -56.854219 
L 130.900302 -56.854219 
L 125.776335 -56.854219 
L 120.652368 -56.854219 
L 115.528401 -56.854219 
L 110.404434 -56.854219 
L 105.280467 -56.854219 
L 100.156501 -56.854219 
L 95.032534 -56.854219 
L 89.908567 -56.854219 
L 84.7846 -56.854219 
L 79.660633 -56.854219 
L 74.536666 -56.854219 
L 69.412699 -56.854219 
z
" style="stroke: #0173b2; stroke-opacity: 0.2; stroke-width: 4"/>
    </defs>
    <g clip-path="url(#paef1638a7a)">
     <use xlink:href="#mac9e0fa7ba" x="0" y="381.574219" style="fill: #0173b2; fill-opacity: 0.2; stroke: #0173b2; stroke-opacity: 0.2; stroke-width: 4"/>
    </g>
   </g>
   <g id="patch_3">
    <path d="M 44.049062 339.84 
L 44.049062 7.2 
" style="fill: none; stroke: #ffffff; stroke-width: 1.25; stroke-linejoin: miter; stroke-linecap: square"/>
   </g>
   <g id="patch_4">
    <path d="M 602.049062 339.84 
L 602.049062 7.2 
" style="fill: none; stroke: #ffffff; stroke-width: 1.25; stroke-linejoin: miter; stroke-linecap: square"/>
   </g>
   <g id="patch_5">
    <path d="M 44.049063 339.84 
L 602.049062 339.84 
" style="fill: none; stroke: #ffffff; stroke-width: 1.25; stroke-linejoin: miter; stroke-linecap: square"/>
   </g>
   <g id="patch_6">
    <path d="M 44.049063 7.2 
L 602.049062 7.2 
" style="fill: none; stroke: #ffffff; stroke-width: 1.25; stroke-linejoin: miter; stroke-linecap: square"/>
   </g>
   <g id="legend_1">
    <g id="patch_7">
     <path d="M 478.436562 62.679531 
L 594.349062 62.679531 
Q 596.549062 62.679531 596.549062 60.479531 
L 596.549062 14.9 
Q 596.549062 12.7 594.349062 12.7 
L 478.436562 12.7 
Q 476.236562 12.7 476.236562 14.9 
L 476.236562 60.479531 
Q 476.236562 62.679531 478.436562 62.679531 
z
" style="fill: #eaeaf2; opacity: 0.8; stroke: #cccccc; stroke-linejoin: miter"/>
    </g>
    <g id="patch_8">
     <path d="M 480.636562 24.973594 
L 502.636562 24.973594 
L 502.636562 17.273594 
L 480.636562 17.273594 
z
" style="fill: #1a1a1a; fill-opacity: 0.2; stroke: #1a1a1a; stroke-opacity: 0.2; stroke-width: 4; stroke-linejoin: miter"/>
    </g>
    <g id="text_16">
     <!-- prior -->
     <g style="fill: #262626" transform="translate(511.436562 24.973594) scale(0.11 -0.11)">
      <defs>
       <path id="ArialMT-70" d="M 422 -1272 
L 422 3319 
L 934 3319 
L 934 2888 
Q 1116 3141 1344 3267 
Q 1572 3394 1897 3394 
Q 2322 3394 2647 3175 
Q 2972 2956 3137 2557 
Q 3303 2159 3303 1684 
Q 3303 1175 3120 767 
Q 2938 359 2589 142 
Q 2241 -75 1856 -75 
Q 1575 -75 1351 44 
Q 1128 163 984 344 
L 984 -1272 
L 422 -1272 
z
M 931 1641 
Q 931 1000 1190 694 
Q 1450 388 1819 388 
Q 2194 388 2461 705 
Q 2728 1022 2728 1688 
Q 2728 2322 2467 2637 
Q 2206 2953 1844 2953 
Q 1484 2953 1207 2617 
Q 931 2281 931 1641 
z
" transform="scale(0.015625)"/>
       <path id="ArialMT-72" d="M 416 0 
L 416 3319 
L 922 3319 
L 922 2816 
Q 1116 3169 1280 3281 
Q 1444 3394 1641 3394 
Q 1925 3394 2219 3213 
L 2025 2691 
Q 1819 2813 1613 2813 
Q 1428 2813 1281 2702 
Q 1134 2591 1072 2394 
Q 978 2094 978 1738 
L 978 0 
L 416 0 
z
" transform="scale(0.015625)"/>
       <path id="ArialMT-6f" d="M 213 1659 
Q 213 2581 725 3025 
Q 1153 3394 1769 3394 
Q 2453 3394 2887 2945 
Q 3322 2497 3322 1706 
Q 3322 1066 3130 698 
Q 2938 331 2570 128 
Q 2203 -75 1769 -75 
Q 1072 -75 642 372 
Q 213 819 213 1659 
z
M 791 1659 
Q 791 1022 1069 705 
Q 1347 388 1769 388 
Q 2188 388 2466 706 
Q 2744 1025 2744 1678 
Q 2744 2294 2464 2611 
Q 2184 2928 1769 2928 
Q 1347 2928 1069 2612 
Q 791 2297 791 1659 
z
" transform="scale(0.015625)"/>
      </defs>
      <use xlink:href="#ArialMT-70"/>
      <use xlink:href="#ArialMT-72" x="55.615234"/>
      <use xlink:href="#ArialMT-69" x="88.916016"/>
      <use xlink:href="#ArialMT-6f" x="111.132812"/>
      <use xlink:href="#ArialMT-72" x="166.748047"/>
     </g>
    </g>
    <g id="patch_9">
     <path d="M 480.636562 40.533437 
L 502.636562 40.533437 
L 502.636562 32.833437 
L 480.636562 32.833437 
z
" style="fill: #d55e00; fill-opacity: 0.2; stroke: #d55e00; stroke-opacity: 0.2; stroke-width: 4; stroke-linejoin: miter"/>
    </g>
    <g id="text_17">
     <!-- posterior -->
     <g style="fill: #262626" transform="translate(511.436562 40.533437) scale(0.11 -0.11)">
      <use xlink:href="#ArialMT-70"/>
      <use xlink:href="#ArialMT-6f" x="55.615234"/>
      <use xlink:href="#ArialMT-73" x="111.230469"/>
      <use xlink:href="#ArialMT-74" x="161.230469"/>
      <use xlink:href="#ArialMT-65" x="189.013672"/>
      <use xlink:href="#ArialMT-72" x="244.628906"/>
      <use xlink:href="#ArialMT-69" x="277.929688"/>
      <use xlink:href="#ArialMT-6f" x="300.146484"/>
      <use xlink:href="#ArialMT-72" x="355.761719"/>
     </g>
    </g>
    <g id="patch_10">
     <path d="M 480.636562 56.093281 
L 502.636562 56.093281 
L 502.636562 48.393281 
L 480.636562 48.393281 
z
" style="fill: #0173b2; fill-opacity: 0.2; stroke: #0173b2; stroke-opacity: 0.2; stroke-width: 4; stroke-linejoin: miter"/>
    </g>
    <g id="text_18">
     <!-- likelihood scaled -->
     <g style="fill: #262626" transform="translate(511.436562 56.093281) scale(0.11 -0.11)">
      <defs>
       <path id="ArialMT-6c" d="M 409 0 
L 409 4581 
L 972 4581 
L 972 0 
L 409 0 
z
" transform="scale(0.015625)"/>
       <path id="ArialMT-6b" d="M 425 0 
L 425 4581 
L 988 4581 
L 988 1969 
L 2319 3319 
L 3047 3319 
L 1778 2088 
L 3175 0 
L 2481 0 
L 1384 1697 
L 988 1316 
L 988 0 
L 425 0 
z
" transform="scale(0.015625)"/>
       <path id="ArialMT-68" d="M 422 0 
L 422 4581 
L 984 4581 
L 984 2938 
Q 1378 3394 1978 3394 
Q 2347 3394 2619 3248 
Q 2891 3103 3008 2847 
Q 3125 2591 3125 2103 
L 3125 0 
L 2563 0 
L 2563 2103 
Q 2563 2525 2380 2717 
Q 2197 2909 1863 2909 
Q 1613 2909 1392 2779 
Q 1172 2650 1078 2428 
Q 984 2206 984 1816 
L 984 0 
L 422 0 
z
" transform="scale(0.015625)"/>
       <path id="ArialMT-20" transform="scale(0.015625)"/>
       <path id="ArialMT-63" d="M 2588 1216 
L 3141 1144 
Q 3050 572 2676 248 
Q 2303 -75 1759 -75 
Q 1078 -75 664 370 
Q 250 816 250 1647 
Q 250 2184 428 2587 
Q 606 2991 970 3192 
Q 1334 3394 1763 3394 
Q 2303 3394 2647 3120 
Q 2991 2847 3088 2344 
L 2541 2259 
Q 2463 2594 2264 2762 
Q 2066 2931 1784 2931 
Q 1359 2931 1093 2626 
Q 828 2322 828 1663 
Q 828 994 1084 691 
Q 1341 388 1753 388 
Q 2084 388 2306 591 
Q 2528 794 2588 1216 
z
" transform="scale(0.015625)"/>
       <path id="ArialMT-61" d="M 2588 409 
Q 2275 144 1986 34 
Q 1697 -75 1366 -75 
Q 819 -75 525 192 
Q 231 459 231 875 
Q 231 1119 342 1320 
Q 453 1522 633 1644 
Q 813 1766 1038 1828 
Q 1203 1872 1538 1913 
Q 2219 1994 2541 2106 
Q 2544 2222 2544 2253 
Q 2544 2597 2384 2738 
Q 2169 2928 1744 2928 
Q 1347 2928 1158 2789 
Q 969 2650 878 2297 
L 328 2372 
Q 403 2725 575 2942 
Q 747 3159 1072 3276 
Q 1397 3394 1825 3394 
Q 2250 3394 2515 3294 
Q 2781 3194 2906 3042 
Q 3031 2891 3081 2659 
Q 3109 2516 3109 2141 
L 3109 1391 
Q 3109 606 3145 398 
Q 3181 191 3288 0 
L 2700 0 
Q 2613 175 2588 409 
z
M 2541 1666 
Q 2234 1541 1622 1453 
Q 1275 1403 1131 1340 
Q 988 1278 909 1158 
Q 831 1038 831 891 
Q 831 666 1001 516 
Q 1172 366 1500 366 
Q 1825 366 2078 508 
Q 2331 650 2450 897 
Q 2541 1088 2541 1459 
L 2541 1666 
z
" transform="scale(0.015625)"/>
      </defs>
      <use xlink:href="#ArialMT-6c"/>
      <use xlink:href="#ArialMT-69" x="22.216797"/>
      <use xlink:href="#ArialMT-6b" x="44.433594"/>
      <use xlink:href="#ArialMT-65" x="94.433594"/>
      <use xlink:href="#ArialMT-6c" x="150.048828"/>
      <use xlink:href="#ArialMT-69" x="172.265625"/>
      <use xlink:href="#ArialMT-68" x="194.482422"/>
      <use xlink:href="#ArialMT-6f" x="250.097656"/>
      <use xlink:href="#ArialMT-6f" x="305.712891"/>
      <use xlink:href="#ArialMT-64" x="361.328125"/>
      <use xlink:href="#ArialMT-20" x="416.943359"/>
      <use xlink:href="#ArialMT-73" x="444.726562"/>
      <use xlink:href="#ArialMT-63" x="494.726562"/>
      <use xlink:href="#ArialMT-61" x="544.726562"/>
      <use xlink:href="#ArialMT-6c" x="600.341797"/>
      <use xlink:href="#ArialMT-65" x="622.558594"/>
      <use xlink:href="#ArialMT-64" x="678.173828"/>
     </g>
    </g>
   </g>
  </g>
 </g>
 <defs>
  <clipPath id="paef1638a7a">
   <rect x="44.049062" y="7.2" width="558" height="332.64"/>
  </clipPath>
 </defs>
</svg>