<?xml version="1.0" encoding="utf-8" standalone="no"?>
<!DOCTYPE svg PUBLIC "-//W3C//DTD SVG 1.1//EN"
  "http://www.w3.org/Graphics/SVG/1.1/DTD/svg11.dtd">
<svg xmlns:xlink="http://www.w3.org/1999/xlink" width="615.225469pt" height="366.599844pt" viewBox="0 0 615.225469 366.599844" xmlns="http://www.w3.org/2000/svg" version="1.1">
 <metadata>
  <rdf:RDF xmlns:dc="http://purl.org/dc/elements/1.1/" xmlns:cc="http://creativecommons.org/ns#" xmlns:rdf="http://www.w3.org/1999/02/22-rdf-syntax-ns#">
   <cc:Work>
    <dc:type rdf:resource="http://purl.org/dc/dcmitype/StillImage"/>
    <dc:date>2023-05-12T20:11:06.606672</dc:date>
    <dc:format>image/svg+xml</dc:format>
    <dc:creator>
     <cc:Agent>
      <dc:title>Matplotlib v3.7.1, https://matplotlib.org/</dc:title>
     </cc:Agent>
    </dc:creator>
   </cc:Work>
  </rdf:RDF>
 </metadata>
 <defs>
  <style type="text/css">*{stroke-linejoin: round; stroke-linecap: butt}</style>
 </defs>
 <g id="figure_1">
  <g id="patch_1">
   <path d="M 0 366.599844 
L 615.225469 366.599844 
L 615.225469 0 
L 0 0 
z
" style="fill: #ffffff"/>
  </g>
  <g id="axes_1">
   <g id="patch_2">
    <path d="M 50.025469 339.84 
L 608.025469 339.84 
L 608.025469 7.2 
L 50.025469 7.2 
z
" style="fill: #eaeaf2"/>
   </g>
   <g id="matplotlib.axis_1">
    <g id="xtick_1">
     <g id="line2d_1">
      <path d="M 75.17055 339.84 
L 75.17055 7.2 
" clip-path="url(#pc3a51fd011)" style="fill: none; stroke: #ffffff; stroke-linecap: round"/>
     </g>
     <g id="text_1">
      <!-- 0 -->
      <g style="fill: #262626" transform="translate(72.112034 357.213594) scale(0.11 -0.11)">
       <defs>
        <path id="ArialMT-30" d="M 266 2259 
Q 266 3072 433 3567 
Q 600 4063 929 4331 
Q 1259 4600 1759 4600 
Q 2128 4600 2406 4451 
Q 2684 4303 2865 4023 
Q 3047 3744 3150 3342 
Q 3253 2941 3253 2259 
Q 3253 1453 3087 958 
Q 2922 463 2592 192 
Q 2263 -78 1759 -78 
Q 1097 -78 719 397 
Q 266 969 266 2259 
z
M 844 2259 
Q 844 1131 1108 757 
Q 1372 384 1759 384 
Q 2147 384 2411 759 
Q 2675 1134 2675 2259 
Q 2675 3391 2411 3762 
Q 2147 4134 1753 4134 
Q 1366 4134 1134 3806 
Q 844 3388 844 2259 
z
" transform="scale(0.015625)"/>
       </defs>
       <use xlink:href="#ArialMT-30"/>
      </g>
     </g>
    </g>
    <g id="xtick_2">
     <g id="line2d_2">
      <path d="M 159.803229 339.84 
L 159.803229 7.2 
" clip-path="url(#pc3a51fd011)" style="fill: none; stroke: #ffffff; stroke-linecap: round"/>
     </g>
     <g id="text_2">
      <!-- 200 -->
      <g style="fill: #262626" transform="translate(150.627682 357.213594) scale(0.11 -0.11)">
       <defs>
        <path id="ArialMT-32" d="M 3222 541 
L 3222 0 
L 194 0 
Q 188 203 259 391 
Q 375 700 629 1000 
Q 884 1300 1366 1694 
Q 2113 2306 2375 2664 
Q 2638 3022 2638 3341 
Q 2638 3675 2398 3904 
Q 2159 4134 1775 4134 
Q 1369 4134 1125 3890 
Q 881 3647 878 3216 
L 300 3275 
Q 359 3922 746 4261 
Q 1134 4600 1788 4600 
Q 2447 4600 2831 4234 
Q 3216 3869 3216 3328 
Q 3216 3053 3103 2787 
Q 2991 2522 2730 2228 
Q 2469 1934 1863 1422 
Q 1356 997 1212 845 
Q 1069 694 975 541 
L 3222 541 
z
" transform="scale(0.015625)"/>
       </defs>
       <use xlink:href="#ArialMT-32"/>
       <use xlink:href="#ArialMT-30" x="55.615234"/>
       <use xlink:href="#ArialMT-30" x="111.230469"/>
      </g>
     </g>
    </g>
    <g id="xtick_3">
     <g id="line2d_3">
      <path d="M 244.435908 339.84 
L 244.435908 7.2 
" clip-path="url(#pc3a51fd011)" style="fill: none; stroke: #ffffff; stroke-linecap: round"/>
     </g>
     <g id="text_3">
      <!-- 400 -->
      <g style="fill: #262626" transform="translate(235.260362 357.213594) scale(0.11 -0.11)">
       <defs>
        <path id="ArialMT-34" d="M 2069 0 
L 2069 1097 
L 81 1097 
L 81 1613 
L 2172 4581 
L 2631 4581 
L 2631 1613 
L 3250 1613 
L 3250 1097 
L 2631 1097 
L 2631 0 
L 2069 0 
z
M 2069 1613 
L 2069 3678 
L 634 1613 
L 2069 1613 
z
" transform="scale(0.015625)"/>
       </defs>
       <use xlink:href="#ArialMT-34"/>
       <use xlink:href="#ArialMT-30" x="55.615234"/>
       <use xlink:href="#ArialMT-30" x="111.230469"/>
      </g>
     </g>
    </g>
    <g id="xtick_4">
     <g id="line2d_4">
      <path d="M 329.068588 339.84 
L 329.068588 7.2 
" clip-path="url(#pc3a51fd011)" style="fill: none; stroke: #ffffff; stroke-linecap: round"/>
     </g>
     <g id="text_4">
      <!-- 600 -->
      <g style="fill: #262626" transform="translate(319.893041 357.213594) scale(0.11 -0.11)">
       <defs>
        <path id="ArialMT-36" d="M 3184 3459 
L 2625 3416 
Q 2550 3747 2413 3897 
Q 2184 4138 1850 4138 
Q 1581 4138 1378 3988 
Q 1113 3794 959 3422 
Q 806 3050 800 2363 
Q 1003 2672 1297 2822 
Q 1591 2972 1913 2972 
Q 2475 2972 2870 2558 
Q 3266 2144 3266 1488 
Q 3266 1056 3080 686 
Q 2894 316 2569 119 
Q 2244 -78 1831 -78 
Q 1128 -78 684 439 
Q 241 956 241 2144 
Q 241 3472 731 4075 
Q 1159 4600 1884 4600 
Q 2425 4600 2770 4297 
Q 3116 3994 3184 3459 
z
M 888 1484 
Q 888 1194 1011 928 
Q 1134 663 1356 523 
Q 1578 384 1822 384 
Q 2178 384 2434 671 
Q 2691 959 2691 1453 
Q 2691 1928 2437 2201 
Q 2184 2475 1800 2475 
Q 1419 2475 1153 2201 
Q 888 1928 888 1484 
z
" transform="scale(0.015625)"/>
       </defs>
       <use xlink:href="#ArialMT-36"/>
       <use xlink:href="#ArialMT-30" x="55.615234"/>
       <use xlink:href="#ArialMT-30" x="111.230469"/>
      </g>
     </g>
    </g>
    <g id="xtick_5">
     <g id="line2d_5">
      <path d="M 413.701267 339.84 
L 413.701267 7.2 
" clip-path="url(#pc3a51fd011)" style="fill: none; stroke: #ffffff; stroke-linecap: round"/>
     </g>
     <g id="text_5">
      <!-- 800 -->
      <g style="fill: #262626" transform="translate(404.52572 357.213594) scale(0.11 -0.11)">
       <defs>
        <path id="ArialMT-38" d="M 1131 2484 
Q 781 2613 612 2850 
Q 444 3088 444 3419 
Q 444 3919 803 4259 
Q 1163 4600 1759 4600 
Q 2359 4600 2725 4251 
Q 3091 3903 3091 3403 
Q 3091 3084 2923 2848 
Q 2756 2613 2416 2484 
Q 2838 2347 3058 2040 
Q 3278 1734 3278 1309 
Q 3278 722 2862 322 
Q 2447 -78 1769 -78 
Q 1091 -78 675 323 
Q 259 725 259 1325 
Q 259 1772 486 2073 
Q 713 2375 1131 2484 
z
M 1019 3438 
Q 1019 3113 1228 2906 
Q 1438 2700 1772 2700 
Q 2097 2700 2305 2904 
Q 2513 3109 2513 3406 
Q 2513 3716 2298 3927 
Q 2084 4138 1766 4138 
Q 1444 4138 1231 3931 
Q 1019 3725 1019 3438 
z
M 838 1322 
Q 838 1081 952 856 
Q 1066 631 1291 507 
Q 1516 384 1775 384 
Q 2178 384 2440 643 
Q 2703 903 2703 1303 
Q 2703 1709 2433 1975 
Q 2163 2241 1756 2241 
Q 1359 2241 1098 1978 
Q 838 1716 838 1322 
z
" transform="scale(0.015625)"/>
       </defs>
       <use xlink:href="#ArialMT-38"/>
       <use xlink:href="#ArialMT-30" x="55.615234"/>
       <use xlink:href="#ArialMT-30" x="111.230469"/>
      </g>
     </g>
    </g>
    <g id="xtick_6">
     <g id="line2d_6">
      <path d="M 498.333947 339.84 
L 498.333947 7.2 
" clip-path="url(#pc3a51fd011)" style="fill: none; stroke: #ffffff; stroke-linecap: round"/>
     </g>
     <g id="text_6">
      <!-- 1000 -->
      <g style="fill: #262626" transform="translate(486.099884 357.213594) scale(0.11 -0.11)">
       <defs>
        <path id="ArialMT-31" d="M 2384 0 
L 1822 0 
L 1822 3584 
Q 1619 3391 1289 3197 
Q 959 3003 697 2906 
L 697 3450 
Q 1169 3672 1522 3987 
Q 1875 4303 2022 4600 
L 2384 4600 
L 2384 0 
z
" transform="scale(0.015625)"/>
       </defs>
       <use xlink:href="#ArialMT-31"/>
       <use xlink:href="#ArialMT-30" x="55.615234"/>
       <use xlink:href="#ArialMT-30" x="111.230469"/>
       <use xlink:href="#ArialMT-30" x="166.845703"/>
      </g>
     </g>
    </g>
    <g id="xtick_7">
     <g id="line2d_7">
      <path d="M 582.966626 339.84 
L 582.966626 7.2 
" clip-path="url(#pc3a51fd011)" style="fill: none; stroke: #ffffff; stroke-linecap: round"/>
     </g>
     <g id="text_7">
      <!-- 1200 -->
      <g style="fill: #262626" transform="translate(570.732563 357.213594) scale(0.11 -0.11)">
       <use xlink:href="#ArialMT-31"/>
       <use xlink:href="#ArialMT-32" x="55.615234"/>
       <use xlink:href="#ArialMT-30" x="111.230469"/>
       <use xlink:href="#ArialMT-30" x="166.845703"/>
      </g>
     </g>
    </g>
   </g>
   <g id="matplotlib.axis_2">
    <g id="ytick_1">
     <g id="line2d_8">
      <path d="M 50.025469 339.84 
L 608.025469 339.84 
" clip-path="url(#pc3a51fd011)" style="fill: none; stroke: #ffffff; stroke-linecap: round"/>
     </g>
     <g id="text_8">
      <!-- 0 -->
      <g style="fill: #262626" transform="translate(34.408438 343.776797) scale(0.11 -0.11)">
       <use xlink:href="#ArialMT-30"/>
      </g>
     </g>
    </g>
    <g id="ytick_2">
     <g id="line2d_9">
      <path d="M 50.025469 287.302687 
L 608.025469 287.302687 
" clip-path="url(#pc3a51fd011)" style="fill: none; stroke: #ffffff; stroke-linecap: round"/>
     </g>
     <g id="text_9">
      <!-- 100 -->
      <g style="fill: #262626" transform="translate(22.174375 291.239483) scale(0.11 -0.11)">
       <use xlink:href="#ArialMT-31"/>
       <use xlink:href="#ArialMT-30" x="55.615234"/>
       <use xlink:href="#ArialMT-30" x="111.230469"/>
      </g>
     </g>
    </g>
    <g id="ytick_3">
     <g id="line2d_10">
      <path d="M 50.025469 234.765373 
L 608.025469 234.765373 
" clip-path="url(#pc3a51fd011)" style="fill: none; stroke: #ffffff; stroke-linecap: round"/>
     </g>
     <g id="text_10">
      <!-- 200 -->
      <g style="fill: #262626" transform="translate(22.174375 238.70217) scale(0.11 -0.11)">
       <use xlink:href="#ArialMT-32"/>
       <use xlink:href="#ArialMT-30" x="55.615234"/>
       <use xlink:href="#ArialMT-30" x="111.230469"/>
      </g>
     </g>
    </g>
    <g id="ytick_4">
     <g id="line2d_11">
      <path d="M 50.025469 182.22806 
L 608.025469 182.22806 
" clip-path="url(#pc3a51fd011)" style="fill: none; stroke: #ffffff; stroke-linecap: round"/>
     </g>
     <g id="text_11">
      <!-- 300 -->
      <g style="fill: #262626" transform="translate(22.174375 186.164857) scale(0.11 -0.11)">
       <defs>
        <path id="ArialMT-33" d="M 269 1209 
L 831 1284 
Q 928 806 1161 595 
Q 1394 384 1728 384 
Q 2125 384 2398 659 
Q 2672 934 2672 1341 
Q 2672 1728 2419 1979 
Q 2166 2231 1775 2231 
Q 1616 2231 1378 2169 
L 1441 2663 
Q 1497 2656 1531 2656 
Q 1891 2656 2178 2843 
Q 2466 3031 2466 3422 
Q 2466 3731 2256 3934 
Q 2047 4138 1716 4138 
Q 1388 4138 1169 3931 
Q 950 3725 888 3313 
L 325 3413 
Q 428 3978 793 4289 
Q 1159 4600 1703 4600 
Q 2078 4600 2393 4439 
Q 2709 4278 2876 4000 
Q 3044 3722 3044 3409 
Q 3044 3113 2884 2869 
Q 2725 2625 2413 2481 
Q 2819 2388 3044 2092 
Q 3269 1797 3269 1353 
Q 3269 753 2831 336 
Q 2394 -81 1725 -81 
Q 1122 -81 723 278 
Q 325 638 269 1209 
z
" transform="scale(0.015625)"/>
       </defs>
       <use xlink:href="#ArialMT-33"/>
       <use xlink:href="#ArialMT-30" x="55.615234"/>
       <use xlink:href="#ArialMT-30" x="111.230469"/>
      </g>
     </g>
    </g>
    <g id="ytick_5">
     <g id="line2d_12">
      <path d="M 50.025469 129.690746 
L 608.025469 129.690746 
" clip-path="url(#pc3a51fd011)" style="fill: none; stroke: #ffffff; stroke-linecap: round"/>
     </g>
     <g id="text_12">
      <!-- 400 -->
      <g style="fill: #262626" transform="translate(22.174375 133.627543) scale(0.11 -0.11)">
       <use xlink:href="#ArialMT-34"/>
       <use xlink:href="#ArialMT-30" x="55.615234"/>
       <use xlink:href="#ArialMT-30" x="111.230469"/>
      </g>
     </g>
    </g>
    <g id="ytick_6">
     <g id="line2d_13">
      <path d="M 50.025469 77.153433 
L 608.025469 77.153433 
" clip-path="url(#pc3a51fd011)" style="fill: none; stroke: #ffffff; stroke-linecap: round"/>
     </g>
     <g id="text_13">
      <!-- 500 -->
      <g style="fill: #262626" transform="translate(22.174375 81.09023) scale(0.11 -0.11)">
       <defs>
        <path id="ArialMT-35" d="M 266 1200 
L 856 1250 
Q 922 819 1161 601 
Q 1400 384 1738 384 
Q 2144 384 2425 690 
Q 2706 997 2706 1503 
Q 2706 1984 2436 2262 
Q 2166 2541 1728 2541 
Q 1456 2541 1237 2417 
Q 1019 2294 894 2097 
L 366 2166 
L 809 4519 
L 3088 4519 
L 3088 3981 
L 1259 3981 
L 1013 2750 
Q 1425 3038 1878 3038 
Q 2478 3038 2890 2622 
Q 3303 2206 3303 1553 
Q 3303 931 2941 478 
Q 2500 -78 1738 -78 
Q 1113 -78 717 272 
Q 322 622 266 1200 
z
" transform="scale(0.015625)"/>
       </defs>
       <use xlink:href="#ArialMT-35"/>
       <use xlink:href="#ArialMT-30" x="55.615234"/>
       <use xlink:href="#ArialMT-30" x="111.230469"/>
      </g>
     </g>
    </g>
    <g id="ytick_7">
     <g id="line2d_14">
      <path d="M 50.025469 24.616119 
L 608.025469 24.616119 
" clip-path="url(#pc3a51fd011)" style="fill: none; stroke: #ffffff; stroke-linecap: round"/>
     </g>
     <g id="text_14">
      <!-- 600 -->
      <g style="fill: #262626" transform="translate(22.174375 28.552916) scale(0.11 -0.11)">
       <use xlink:href="#ArialMT-36"/>
       <use xlink:href="#ArialMT-30" x="55.615234"/>
       <use xlink:href="#ArialMT-30" x="111.230469"/>
      </g>
     </g>
    </g>
    <g id="text_15">
     <!-- Count -->
     <g style="fill: #262626" transform="translate(15.789375 189.529687) rotate(-90) scale(0.12 -0.12)">
      <defs>
       <path id="ArialMT-43" d="M 3763 1606 
L 4369 1453 
Q 4178 706 3683 314 
Q 3188 -78 2472 -78 
Q 1731 -78 1267 223 
Q 803 525 561 1097 
Q 319 1669 319 2325 
Q 319 3041 592 3573 
Q 866 4106 1370 4382 
Q 1875 4659 2481 4659 
Q 3169 4659 3637 4309 
Q 4106 3959 4291 3325 
L 3694 3184 
Q 3534 3684 3231 3912 
Q 2928 4141 2469 4141 
Q 1941 4141 1586 3887 
Q 1231 3634 1087 3207 
Q 944 2781 944 2328 
Q 944 1744 1114 1308 
Q 1284 872 1643 656 
Q 2003 441 2422 441 
Q 2931 441 3284 734 
Q 3638 1028 3763 1606 
z
" transform="scale(0.015625)"/>
       <path id="ArialMT-6f" d="M 213 1659 
Q 213 2581 725 3025 
Q 1153 3394 1769 3394 
Q 2453 3394 2887 2945 
Q 3322 2497 3322 1706 
Q 3322 1066 3130 698 
Q 2938 331 2570 128 
Q 2203 -75 1769 -75 
Q 1072 -75 642 372 
Q 213 819 213 1659 
z
M 791 1659 
Q 791 1022 1069 705 
Q 1347 388 1769 388 
Q 2188 388 2466 706 
Q 2744 1025 2744 1678 
Q 2744 2294 2464 2611 
Q 2184 2928 1769 2928 
Q 1347 2928 1069 2612 
Q 791 2297 791 1659 
z
" transform="scale(0.015625)"/>
       <path id="ArialMT-75" d="M 2597 0 
L 2597 488 
Q 2209 -75 1544 -75 
Q 1250 -75 995 37 
Q 741 150 617 320 
Q 494 491 444 738 
Q 409 903 409 1263 
L 409 3319 
L 972 3319 
L 972 1478 
Q 972 1038 1006 884 
Q 1059 663 1231 536 
Q 1403 409 1656 409 
Q 1909 409 2131 539 
Q 2353 669 2445 892 
Q 2538 1116 2538 1541 
L 2538 3319 
L 3100 3319 
L 3100 0 
L 2597 0 
z
" transform="scale(0.015625)"/>
       <path id="ArialMT-6e" d="M 422 0 
L 422 3319 
L 928 3319 
L 928 2847 
Q 1294 3394 1984 3394 
Q 2284 3394 2536 3286 
Q 2788 3178 2913 3003 
Q 3038 2828 3088 2588 
Q 3119 2431 3119 2041 
L 3119 0 
L 2556 0 
L 2556 2019 
Q 2556 2363 2490 2533 
Q 2425 2703 2258 2804 
Q 2091 2906 1866 2906 
Q 1506 2906 1245 2678 
Q 984 2450 984 1813 
L 984 0 
L 422 0 
z
" transform="scale(0.015625)"/>
       <path id="ArialMT-74" d="M 1650 503 
L 1731 6 
Q 1494 -44 1306 -44 
Q 1000 -44 831 53 
Q 663 150 594 308 
Q 525 466 525 972 
L 525 2881 
L 113 2881 
L 113 3319 
L 525 3319 
L 525 4141 
L 1084 4478 
L 1084 3319 
L 1650 3319 
L 1650 2881 
L 1084 2881 
L 1084 941 
Q 1084 700 1114 631 
Q 1144 563 1211 522 
Q 1278 481 1403 481 
Q 1497 481 1650 503 
z
" transform="scale(0.015625)"/>
      </defs>
      <use xlink:href="#ArialMT-43"/>
      <use xlink:href="#ArialMT-6f" x="72.216797"/>
      <use xlink:href="#ArialMT-75" x="127.832031"/>
      <use xlink:href="#ArialMT-6e" x="183.447266"/>
      <use xlink:href="#ArialMT-74" x="239.0625"/>
     </g>
    </g>
   </g>
   <g id="patch_3">
    <path d="M 75.389105 339.84 
L 81.500825 339.84 
L 81.500825 276.795224 
L 75.389105 276.795224 
z
" clip-path="url(#pc3a51fd011)" style="fill: #0173b2; fill-opacity: 0.75; stroke: #ffffff; stroke-width: 0.611172; stroke-linejoin: miter"/>
   </g>
   <g id="patch_4">
    <path d="M 81.500825 339.84 
L 87.612544 339.84 
L 87.612544 175.398209 
L 81.500825 175.398209 
z
" clip-path="url(#pc3a51fd011)" style="fill: #0173b2; fill-opacity: 0.75; stroke: #ffffff; stroke-width: 0.611172; stroke-linejoin: miter"/>
   </g>
   <g id="patch_5">
    <path d="M 87.612544 339.84 
L 93.724264 339.84 
L 93.724264 99.219104 
L 87.612544 99.219104 
z
" clip-path="url(#pc3a51fd011)" style="fill: #0173b2; fill-opacity: 0.75; stroke: #ffffff; stroke-width: 0.611172; stroke-linejoin: miter"/>
   </g>
   <g id="patch_6">
    <path d="M 93.724264 339.84 
L 99.835984 339.84 
L 99.835984 64.544478 
L 93.724264 64.544478 
z
" clip-path="url(#pc3a51fd011)" style="fill: #0173b2; fill-opacity: 0.75; stroke: #ffffff; stroke-width: 0.611172; stroke-linejoin: miter"/>
   </g>
   <g id="patch_7">
    <path d="M 99.835984 339.84 
L 105.947703 339.84 
L 105.947703 23.04 
L 99.835984 23.04 
z
" clip-path="url(#pc3a51fd011)" style="fill: #0173b2; fill-opacity: 0.75; stroke: #ffffff; stroke-width: 0.611172; stroke-linejoin: miter"/>
   </g>
   <g id="patch_8">
    <path d="M 105.947703 339.84 
L 112.059423 339.84 
L 112.059423 25.666866 
L 105.947703 25.666866 
z
" clip-path="url(#pc3a51fd011)" style="fill: #0173b2; fill-opacity: 0.75; stroke: #ffffff; stroke-width: 0.611172; stroke-linejoin: miter"/>
   </g>
   <g id="patch_9">
    <path d="M 112.059423 339.84 
L 118.171142 339.84 
L 118.171142 37.225075 
L 112.059423 37.225075 
z
" clip-path="url(#pc3a51fd011)" style="fill: #0173b2; fill-opacity: 0.75; stroke: #ffffff; stroke-width: 0.611172; stroke-linejoin: miter"/>
   </g>
   <g id="patch_10">
    <path d="M 118.171142 339.84 
L 124.282862 339.84 
L 124.282862 51.935522 
L 118.171142 51.935522 
z
" clip-path="url(#pc3a51fd011)" style="fill: #0173b2; fill-opacity: 0.75; stroke: #ffffff; stroke-width: 0.611172; stroke-linejoin: miter"/>
   </g>
   <g id="patch_11">
    <path d="M 124.282862 339.84 
L 130.394582 339.84 
L 130.394582 41.953433 
L 124.282862 41.953433 
z
" clip-path="url(#pc3a51fd011)" style="fill: #0173b2; fill-opacity: 0.75; stroke: #ffffff; stroke-width: 0.611172; stroke-linejoin: miter"/>
   </g>
   <g id="patch_12">
    <path d="M 130.394582 339.84 
L 136.506301 339.84 
L 136.506301 61.392239 
L 130.394582 61.392239 
z
" clip-path="url(#pc3a51fd011)" style="fill: #0173b2; fill-opacity: 0.75; stroke: #ffffff; stroke-width: 0.611172; stroke-linejoin: miter"/>
   </g>
   <g id="patch_13">
    <path d="M 136.506301 339.84 
L 142.618021 339.84 
L 142.618021 82.407164 
L 136.506301 82.407164 
z
" clip-path="url(#pc3a51fd011)" style="fill: #0173b2; fill-opacity: 0.75; stroke: #ffffff; stroke-width: 0.611172; stroke-linejoin: miter"/>
   </g>
   <g id="patch_14">
    <path d="M 142.618021 339.84 
L 148.72974 339.84 
L 148.72974 96.592239 
L 142.618021 96.592239 
z
" clip-path="url(#pc3a51fd011)" style="fill: #0173b2; fill-opacity: 0.75; stroke: #ffffff; stroke-width: 0.611172; stroke-linejoin: miter"/>
   </g>
   <g id="patch_15">
    <path d="M 148.72974 339.84 
L 154.84146 339.84 
L 154.84146 129.690746 
L 148.72974 129.690746 
z
" clip-path="url(#pc3a51fd011)" style="fill: #0173b2; fill-opacity: 0.75; stroke: #ffffff; stroke-width: 0.611172; stroke-linejoin: miter"/>
   </g>
   <g id="patch_16">
    <path d="M 154.84146 339.84 
L 160.95318 339.84 
L 160.95318 114.980299 
L 154.84146 114.980299 
z
" clip-path="url(#pc3a51fd011)" style="fill: #0173b2; fill-opacity: 0.75; stroke: #ffffff; stroke-width: 0.611172; stroke-linejoin: miter"/>
   </g>
   <g id="patch_17">
    <path d="M 160.95318 339.84 
L 167.064899 339.84 
L 167.064899 153.332537 
L 160.95318 153.332537 
z
" clip-path="url(#pc3a51fd011)" style="fill: #0173b2; fill-opacity: 0.75; stroke: #ffffff; stroke-width: 0.611172; stroke-linejoin: miter"/>
   </g>
   <g id="patch_18">
    <path d="M 167.064899 339.84 
L 173.176619 339.84 
L 173.176619 151.756418 
L 167.064899 151.756418 
z
" clip-path="url(#pc3a51fd011)" style="fill: #0173b2; fill-opacity: 0.75; stroke: #ffffff; stroke-width: 0.611172; stroke-linejoin: miter"/>
   </g>
   <g id="patch_19">
    <path d="M 173.176619 339.84 
L 179.288338 339.84 
L 179.288338 180.65194 
L 173.176619 180.65194 
z
" clip-path="url(#pc3a51fd011)" style="fill: #0173b2; fill-opacity: 0.75; stroke: #ffffff; stroke-width: 0.611172; stroke-linejoin: miter"/>
   </g>
   <g id="patch_20">
    <path d="M 179.288338 339.84 
L 185.400058 339.84 
L 185.400058 209.547463 
L 179.288338 209.547463 
z
" clip-path="url(#pc3a51fd011)" style="fill: #0173b2; fill-opacity: 0.75; stroke: #ffffff; stroke-width: 0.611172; stroke-linejoin: miter"/>
   </g>
   <g id="patch_21">
    <path d="M 185.400058 339.84 
L 191.511778 339.84 
L 191.511778 212.174328 
L 185.400058 212.174328 
z
" clip-path="url(#pc3a51fd011)" style="fill: #0173b2; fill-opacity: 0.75; stroke: #ffffff; stroke-width: 0.611172; stroke-linejoin: miter"/>
   </g>
   <g id="patch_22">
    <path d="M 191.511778 339.84 
L 197.623497 339.84 
L 197.623497 224.783284 
L 191.511778 224.783284 
z
" clip-path="url(#pc3a51fd011)" style="fill: #0173b2; fill-opacity: 0.75; stroke: #ffffff; stroke-width: 0.611172; stroke-linejoin: miter"/>
   </g>
   <g id="patch_23">
    <path d="M 197.623497 339.84 
L 203.735217 339.84 
L 203.735217 239.493731 
L 197.623497 239.493731 
z
" clip-path="url(#pc3a51fd011)" style="fill: #0173b2; fill-opacity: 0.75; stroke: #ffffff; stroke-width: 0.611172; stroke-linejoin: miter"/>
   </g>
   <g id="patch_24">
    <path d="M 203.735217 339.84 
L 209.846936 339.84 
L 209.846936 254.729552 
L 203.735217 254.729552 
z
" clip-path="url(#pc3a51fd011)" style="fill: #0173b2; fill-opacity: 0.75; stroke: #ffffff; stroke-width: 0.611172; stroke-linejoin: miter"/>
   </g>
   <g id="patch_25">
    <path d="M 209.846936 339.84 
L 215.958656 339.84 
L 215.958656 265.762388 
L 209.846936 265.762388 
z
" clip-path="url(#pc3a51fd011)" style="fill: #0173b2; fill-opacity: 0.75; stroke: #ffffff; stroke-width: 0.611172; stroke-linejoin: miter"/>
   </g>
   <g id="patch_26">
    <path d="M 215.958656 339.84 
L 222.070376 339.84 
L 222.070376 266.287761 
L 215.958656 266.287761 
z
" clip-path="url(#pc3a51fd011)" style="fill: #0173b2; fill-opacity: 0.75; stroke: #ffffff; stroke-width: 0.611172; stroke-linejoin: miter"/>
   </g>
   <g id="patch_27">
    <path d="M 222.070376 339.84 
L 228.182095 339.84 
L 228.182095 269.44 
L 222.070376 269.44 
z
" clip-path="url(#pc3a51fd011)" style="fill: #0173b2; fill-opacity: 0.75; stroke: #ffffff; stroke-width: 0.611172; stroke-linejoin: miter"/>
   </g>
   <g id="patch_28">
    <path d="M 228.182095 339.84 
L 234.293815 339.84 
L 234.293815 287.302687 
L 228.182095 287.302687 
z
" clip-path="url(#pc3a51fd011)" style="fill: #0173b2; fill-opacity: 0.75; stroke: #ffffff; stroke-width: 0.611172; stroke-linejoin: miter"/>
   </g>
   <g id="patch_29">
    <path d="M 234.293815 339.84 
L 240.405534 339.84 
L 240.405534 291.505672 
L 234.293815 291.505672 
z
" clip-path="url(#pc3a51fd011)" style="fill: #0173b2; fill-opacity: 0.75; stroke: #ffffff; stroke-width: 0.611172; stroke-linejoin: miter"/>
   </g>
   <g id="patch_30">
    <path d="M 240.405534 339.84 
L 246.517254 339.84 
L 246.517254 294.132537 
L 240.405534 294.132537 
z
" clip-path="url(#pc3a51fd011)" style="fill: #0173b2; fill-opacity: 0.75; stroke: #ffffff; stroke-width: 0.611172; stroke-linejoin: miter"/>
   </g>
   <g id="patch_31">
    <path d="M 246.517254 339.84 
L 252.628974 339.84 
L 252.628974 296.759403 
L 246.517254 296.759403 
z
" clip-path="url(#pc3a51fd011)" style="fill: #0173b2; fill-opacity: 0.75; stroke: #ffffff; stroke-width: 0.611172; stroke-linejoin: miter"/>
   </g>
   <g id="patch_32">
    <path d="M 252.628974 339.84 
L 258.740693 339.84 
L 258.740693 306.741493 
L 252.628974 306.741493 
z
" clip-path="url(#pc3a51fd011)" style="fill: #0173b2; fill-opacity: 0.75; stroke: #ffffff; stroke-width: 0.611172; stroke-linejoin: miter"/>
   </g>
   <g id="patch_33">
    <path d="M 258.740693 339.84 
L 264.852413 339.84 
L 264.852413 304.64 
L 258.740693 304.64 
z
" clip-path="url(#pc3a51fd011)" style="fill: #0173b2; fill-opacity: 0.75; stroke: #ffffff; stroke-width: 0.611172; stroke-linejoin: miter"/>
   </g>
   <g id="patch_34">
    <path d="M 264.852413 339.84 
L 270.964132 339.84 
L 270.964132 309.368358 
L 264.852413 309.368358 
z
" clip-path="url(#pc3a51fd011)" style="fill: #0173b2; fill-opacity: 0.75; stroke: #ffffff; stroke-width: 0.611172; stroke-linejoin: miter"/>
   </g>
   <g id="patch_35">
    <path d="M 270.964132 339.84 
L 277.075852 339.84 
L 277.075852 321.977313 
L 270.964132 321.977313 
z
" clip-path="url(#pc3a51fd011)" style="fill: #0173b2; fill-opacity: 0.75; stroke: #ffffff; stroke-width: 0.611172; stroke-linejoin: miter"/>
   </g>
   <g id="patch_36">
    <path d="M 277.075852 339.84 
L 283.187572 339.84 
L 283.187572 319.875821 
L 277.075852 319.875821 
z
" clip-path="url(#pc3a51fd011)" style="fill: #0173b2; fill-opacity: 0.75; stroke: #ffffff; stroke-width: 0.611172; stroke-linejoin: miter"/>
   </g>
   <g id="patch_37">
    <path d="M 283.187572 339.84 
L 289.299291 339.84 
L 289.299291 326.705672 
L 283.187572 326.705672 
z
" clip-path="url(#pc3a51fd011)" style="fill: #0173b2; fill-opacity: 0.75; stroke: #ffffff; stroke-width: 0.611172; stroke-linejoin: miter"/>
   </g>
   <g id="patch_38">
    <path d="M 289.299291 339.84 
L 295.411011 339.84 
L 295.411011 324.604179 
L 289.299291 324.604179 
z
" clip-path="url(#pc3a51fd011)" style="fill: #0173b2; fill-opacity: 0.75; stroke: #ffffff; stroke-width: 0.611172; stroke-linejoin: miter"/>
   </g>
   <g id="patch_39">
    <path d="M 295.411011 339.84 
L 301.522731 339.84 
L 301.522731 329.332537 
L 295.411011 329.332537 
z
" clip-path="url(#pc3a51fd011)" style="fill: #0173b2; fill-opacity: 0.75; stroke: #ffffff; stroke-width: 0.611172; stroke-linejoin: miter"/>
   </g>
   <g id="patch_40">
    <path d="M 301.522731 339.84 
L 307.63445 339.84 
L 307.63445 330.383284 
L 301.522731 330.383284 
z
" clip-path="url(#pc3a51fd011)" style="fill: #0173b2; fill-opacity: 0.75; stroke: #ffffff; stroke-width: 0.611172; stroke-linejoin: miter"/>
   </g>
   <g id="patch_41">
    <path d="M 307.63445 339.84 
L 313.74617 339.84 
L 313.74617 326.180299 
L 307.63445 326.180299 
z
" clip-path="url(#pc3a51fd011)" style="fill: #0173b2; fill-opacity: 0.75; stroke: #ffffff; stroke-width: 0.611172; stroke-linejoin: miter"/>
   </g>
   <g id="patch_42">
    <path d="M 313.74617 339.84 
L 319.857889 339.84 
L 319.857889 330.383284 
L 313.74617 330.383284 
z
" clip-path="url(#pc3a51fd011)" style="fill: #0173b2; fill-opacity: 0.75; stroke: #ffffff; stroke-width: 0.611172; stroke-linejoin: miter"/>
   </g>
   <g id="patch_43">
    <path d="M 319.857889 339.84 
L 325.969609 339.84 
L 325.969609 331.959403 
L 319.857889 331.959403 
z
" clip-path="url(#pc3a51fd011)" style="fill: #0173b2; fill-opacity: 0.75; stroke: #ffffff; stroke-width: 0.611172; stroke-linejoin: miter"/>
   </g>
   <g id="patch_44">
    <path d="M 325.969609 339.84 
L 332.081329 339.84 
L 332.081329 329.332537 
L 325.969609 329.332537 
z
" clip-path="url(#pc3a51fd011)" style="fill: #0173b2; fill-opacity: 0.75; stroke: #ffffff; stroke-width: 0.611172; stroke-linejoin: miter"/>
   </g>
   <g id="patch_45">
    <path d="M 332.081329 339.84 
L 338.193048 339.84 
L 338.193048 334.060896 
L 332.081329 334.060896 
z
" clip-path="url(#pc3a51fd011)" style="fill: #0173b2; fill-opacity: 0.75; stroke: #ffffff; stroke-width: 0.611172; stroke-linejoin: miter"/>
   </g>
   <g id="patch_46">
    <path d="M 338.193048 339.84 
L 344.304768 339.84 
L 344.304768 331.959403 
L 338.193048 331.959403 
z
" clip-path="url(#pc3a51fd011)" style="fill: #0173b2; fill-opacity: 0.75; stroke: #ffffff; stroke-width: 0.611172; stroke-linejoin: miter"/>
   </g>
   <g id="patch_47">
    <path d="M 344.304768 339.84 
L 350.416487 339.84 
L 350.416487 334.060896 
L 344.304768 334.060896 
z
" clip-path="url(#pc3a51fd011)" style="fill: #0173b2; fill-opacity: 0.75; stroke: #ffffff; stroke-width: 0.611172; stroke-linejoin: miter"/>
   </g>
   <g id="patch_48">
    <path d="M 350.416487 339.84 
L 356.528207 339.84 
L 356.528207 334.586269 
L 350.416487 334.586269 
z
" clip-path="url(#pc3a51fd011)" style="fill: #0173b2; fill-opacity: 0.75; stroke: #ffffff; stroke-width: 0.611172; stroke-linejoin: miter"/>
   </g>
   <g id="patch_49">
    <path d="M 356.528207 339.84 
L 362.639927 339.84 
L 362.639927 335.637015 
L 356.528207 335.637015 
z
" clip-path="url(#pc3a51fd011)" style="fill: #0173b2; fill-opacity: 0.75; stroke: #ffffff; stroke-width: 0.611172; stroke-linejoin: miter"/>
   </g>
   <g id="patch_50">
    <path d="M 362.639927 339.84 
L 368.751646 339.84 
L 368.751646 335.111642 
L 362.639927 335.111642 
z
" clip-path="url(#pc3a51fd011)" style="fill: #0173b2; fill-opacity: 0.75; stroke: #ffffff; stroke-width: 0.611172; stroke-linejoin: miter"/>
   </g>
   <g id="patch_51">
    <path d="M 368.751646 339.84 
L 374.863366 339.84 
L 374.863366 337.738507 
L 368.751646 337.738507 
z
" clip-path="url(#pc3a51fd011)" style="fill: #0173b2; fill-opacity: 0.75; stroke: #ffffff; stroke-width: 0.611172; stroke-linejoin: miter"/>
   </g>
   <g id="patch_52">
    <path d="M 374.863366 339.84 
L 380.975085 339.84 
L 380.975085 338.263881 
L 374.863366 338.263881 
z
" clip-path="url(#pc3a51fd011)" style="fill: #0173b2; fill-opacity: 0.75; stroke: #ffffff; stroke-width: 0.611172; stroke-linejoin: miter"/>
   </g>
   <g id="patch_53">
    <path d="M 380.975085 339.84 
L 387.086805 339.84 
L 387.086805 337.738507 
L 380.975085 337.738507 
z
" clip-path="url(#pc3a51fd011)" style="fill: #0173b2; fill-opacity: 0.75; stroke: #ffffff; stroke-width: 0.611172; stroke-linejoin: miter"/>
   </g>
   <g id="patch_54">
    <path d="M 387.086805 339.84 
L 393.198525 339.84 
L 393.198525 338.263881 
L 387.086805 338.263881 
z
" clip-path="url(#pc3a51fd011)" style="fill: #0173b2; fill-opacity: 0.75; stroke: #ffffff; stroke-width: 0.611172; stroke-linejoin: miter"/>
   </g>
   <g id="patch_55">
    <path d="M 393.198525 339.84 
L 399.310244 339.84 
L 399.310244 339.314627 
L 393.198525 339.314627 
z
" clip-path="url(#pc3a51fd011)" style="fill: #0173b2; fill-opacity: 0.75; stroke: #ffffff; stroke-width: 0.611172; stroke-linejoin: miter"/>
   </g>
   <g id="patch_56">
    <path d="M 399.310244 339.84 
L 405.421964 339.84 
L 405.421964 339.314627 
L 399.310244 339.314627 
z
" clip-path="url(#pc3a51fd011)" style="fill: #0173b2; fill-opacity: 0.75; stroke: #ffffff; stroke-width: 0.611172; stroke-linejoin: miter"/>
   </g>
   <g id="patch_57">
    <path d="M 405.421964 339.84 
L 411.533683 339.84 
L 411.533683 338.263881 
L 405.421964 338.263881 
z
" clip-path="url(#pc3a51fd011)" style="fill: #0173b2; fill-opacity: 0.75; stroke: #ffffff; stroke-width: 0.611172; stroke-linejoin: miter"/>
   </g>
   <g id="patch_58">
    <path d="M 411.533683 339.84 
L 417.645403 339.84 
L 417.645403 339.314627 
L 411.533683 339.314627 
z
" clip-path="url(#pc3a51fd011)" style="fill: #0173b2; fill-opacity: 0.75; stroke: #ffffff; stroke-width: 0.611172; stroke-linejoin: miter"/>
   </g>
   <g id="patch_59">
    <path d="M 417.645403 339.84 
L 423.757123 339.84 
L 423.757123 339.314627 
L 417.645403 339.314627 
z
" clip-path="url(#pc3a51fd011)" style="fill: #0173b2; fill-opacity: 0.75; stroke: #ffffff; stroke-width: 0.611172; stroke-linejoin: miter"/>
   </g>
   <g id="patch_60">
    <path d="M 423.757123 339.84 
L 429.868842 339.84 
L 429.868842 339.84 
L 423.757123 339.84 
z
" clip-path="url(#pc3a51fd011)" style="fill: #0173b2; fill-opacity: 0.75; stroke: #ffffff; stroke-width: 0.611172; stroke-linejoin: miter"/>
   </g>
   <g id="patch_61">
    <path d="M 429.868842 339.84 
L 435.980562 339.84 
L 435.980562 338.263881 
L 429.868842 338.263881 
z
" clip-path="url(#pc3a51fd011)" style="fill: #0173b2; fill-opacity: 0.75; stroke: #ffffff; stroke-width: 0.611172; stroke-linejoin: miter"/>
   </g>
   <g id="patch_62">
    <path d="M 435.980562 339.84 
L 442.092281 339.84 
L 442.092281 338.263881 
L 435.980562 338.263881 
z
" clip-path="url(#pc3a51fd011)" style="fill: #0173b2; fill-opacity: 0.75; stroke: #ffffff; stroke-width: 0.611172; stroke-linejoin: miter"/>
   </g>
   <g id="patch_63">
    <path d="M 442.092281 339.84 
L 448.204001 339.84 
L 448.204001 339.84 
L 442.092281 339.84 
z
" clip-path="url(#pc3a51fd011)" style="fill: #0173b2; fill-opacity: 0.75; stroke: #ffffff; stroke-width: 0.611172; stroke-linejoin: miter"/>
   </g>
   <g id="patch_64">
    <path d="M 448.204001 339.84 
L 454.315721 339.84 
L 454.315721 339.84 
L 448.204001 339.84 
z
" clip-path="url(#pc3a51fd011)" style="fill: #0173b2; fill-opacity: 0.75; stroke: #ffffff; stroke-width: 0.611172; stroke-linejoin: miter"/>
   </g>
   <g id="patch_65">
    <path d="M 454.315721 339.84 
L 460.42744 339.84 
L 460.42744 339.84 
L 454.315721 339.84 
z
" clip-path="url(#pc3a51fd011)" style="fill: #0173b2; fill-opacity: 0.75; stroke: #ffffff; stroke-width: 0.611172; stroke-linejoin: miter"/>
   </g>
   <g id="patch_66">
    <path d="M 460.42744 339.84 
L 466.53916 339.84 
L 466.53916 339.314627 
L 460.42744 339.314627 
z
" clip-path="url(#pc3a51fd011)" style="fill: #0173b2; fill-opacity: 0.75; stroke: #ffffff; stroke-width: 0.611172; stroke-linejoin: miter"/>
   </g>
   <g id="patch_67">
    <path d="M 466.53916 339.84 
L 472.650879 339.84 
L 472.650879 339.84 
L 466.53916 339.84 
z
" clip-path="url(#pc3a51fd011)" style="fill: #0173b2; fill-opacity: 0.75; stroke: #ffffff; stroke-width: 0.611172; stroke-linejoin: miter"/>
   </g>
   <g id="patch_68">
    <path d="M 472.650879 339.84 
L 478.762599 339.84 
L 478.762599 339.314627 
L 472.650879 339.314627 
z
" clip-path="url(#pc3a51fd011)" style="fill: #0173b2; fill-opacity: 0.75; stroke: #ffffff; stroke-width: 0.611172; stroke-linejoin: miter"/>
   </g>
   <g id="patch_69">
    <path d="M 478.762599 339.84 
L 484.874319 339.84 
L 484.874319 339.84 
L 478.762599 339.84 
z
" clip-path="url(#pc3a51fd011)" style="fill: #0173b2; fill-opacity: 0.75; stroke: #ffffff; stroke-width: 0.611172; stroke-linejoin: miter"/>
   </g>
   <g id="patch_70">
    <path d="M 484.874319 339.84 
L 490.986038 339.84 
L 490.986038 339.314627 
L 484.874319 339.314627 
z
" clip-path="url(#pc3a51fd011)" style="fill: #0173b2; fill-opacity: 0.75; stroke: #ffffff; stroke-width: 0.611172; stroke-linejoin: miter"/>
   </g>
   <g id="patch_71">
    <path d="M 490.986038 339.84 
L 497.097758 339.84 
L 497.097758 339.84 
L 490.986038 339.84 
z
" clip-path="url(#pc3a51fd011)" style="fill: #0173b2; fill-opacity: 0.75; stroke: #ffffff; stroke-width: 0.611172; stroke-linejoin: miter"/>
   </g>
   <g id="patch_72">
    <path d="M 497.097758 339.84 
L 503.209478 339.84 
L 503.209478 339.84 
L 497.097758 339.84 
z
" clip-path="url(#pc3a51fd011)" style="fill: #0173b2; fill-opacity: 0.75; stroke: #ffffff; stroke-width: 0.611172; stroke-linejoin: miter"/>
   </g>
   <g id="patch_73">
    <path d="M 503.209478 339.84 
L 509.321197 339.84 
L 509.321197 339.84 
L 503.209478 339.84 
z
" clip-path="url(#pc3a51fd011)" style="fill: #0173b2; fill-opacity: 0.75; stroke: #ffffff; stroke-width: 0.611172; stroke-linejoin: miter"/>
   </g>
   <g id="patch_74">
    <path d="M 509.321197 339.84 
L 515.432917 339.84 
L 515.432917 339.84 
L 509.321197 339.84 
z
" clip-path="url(#pc3a51fd011)" style="fill: #0173b2; fill-opacity: 0.75; stroke: #ffffff; stroke-width: 0.611172; stroke-linejoin: miter"/>
   </g>
   <g id="patch_75">
    <path d="M 515.432917 339.84 
L 521.544636 339.84 
L 521.544636 339.84 
L 515.432917 339.84 
z
" clip-path="url(#pc3a51fd011)" style="fill: #0173b2; fill-opacity: 0.75; stroke: #ffffff; stroke-width: 0.611172; stroke-linejoin: miter"/>
   </g>
   <g id="patch_76">
    <path d="M 521.544636 339.84 
L 527.656356 339.84 
L 527.656356 339.84 
L 521.544636 339.84 
z
" clip-path="url(#pc3a51fd011)" style="fill: #0173b2; fill-opacity: 0.75; stroke: #ffffff; stroke-width: 0.611172; stroke-linejoin: miter"/>
   </g>
   <g id="patch_77">
    <path d="M 527.656356 339.84 
L 533.768076 339.84 
L 533.768076 339.84 
L 527.656356 339.84 
z
" clip-path="url(#pc3a51fd011)" style="fill: #0173b2; fill-opacity: 0.75; stroke: #ffffff; stroke-width: 0.611172; stroke-linejoin: miter"/>
   </g>
   <g id="patch_78">
    <path d="M 533.768076 339.84 
L 539.879795 339.84 
L 539.879795 339.84 
L 533.768076 339.84 
z
" clip-path="url(#pc3a51fd011)" style="fill: #0173b2; fill-opacity: 0.75; stroke: #ffffff; stroke-width: 0.611172; stroke-linejoin: miter"/>
   </g>
   <g id="patch_79">
    <path d="M 539.879795 339.84 
L 545.991515 339.84 
L 545.991515 339.84 
L 539.879795 339.84 
z
" clip-path="url(#pc3a51fd011)" style="fill: #0173b2; fill-opacity: 0.75; stroke: #ffffff; stroke-width: 0.611172; stroke-linejoin: miter"/>
   </g>
   <g id="patch_80">
    <path d="M 545.991515 339.84 
L 552.103234 339.84 
L 552.103234 339.84 
L 545.991515 339.84 
z
" clip-path="url(#pc3a51fd011)" style="fill: #0173b2; fill-opacity: 0.75; stroke: #ffffff; stroke-width: 0.611172; stroke-linejoin: miter"/>
   </g>
   <g id="patch_81">
    <path d="M 552.103234 339.84 
L 558.214954 339.84 
L 558.214954 339.84 
L 552.103234 339.84 
z
" clip-path="url(#pc3a51fd011)" style="fill: #0173b2; fill-opacity: 0.75; stroke: #ffffff; stroke-width: 0.611172; stroke-linejoin: miter"/>
   </g>
   <g id="patch_82">
    <path d="M 558.214954 339.84 
L 564.326674 339.84 
L 564.326674 339.84 
L 558.214954 339.84 
z
" clip-path="url(#pc3a51fd011)" style="fill: #0173b2; fill-opacity: 0.75; stroke: #ffffff; stroke-width: 0.611172; stroke-linejoin: miter"/>
   </g>
   <g id="patch_83">
    <path d="M 564.326674 339.84 
L 570.438393 339.84 
L 570.438393 339.84 
L 564.326674 339.84 
z
" clip-path="url(#pc3a51fd011)" style="fill: #0173b2; fill-opacity: 0.75; stroke: #ffffff; stroke-width: 0.611172; stroke-linejoin: miter"/>
   </g>
   <g id="patch_84">
    <path d="M 570.438393 339.84 
L 576.550113 339.84 
L 576.550113 339.84 
L 570.438393 339.84 
z
" clip-path="url(#pc3a51fd011)" style="fill: #0173b2; fill-opacity: 0.75; stroke: #ffffff; stroke-width: 0.611172; stroke-linejoin: miter"/>
   </g>
   <g id="patch_85">
    <path d="M 576.550113 339.84 
L 582.661832 339.84 
L 582.661832 339.314627 
L 576.550113 339.314627 
z
" clip-path="url(#pc3a51fd011)" style="fill: #0173b2; fill-opacity: 0.75; stroke: #ffffff; stroke-width: 0.611172; stroke-linejoin: miter"/>
   </g>
   <g id="patch_86">
    <path d="M 50.025469 339.84 
L 50.025469 7.2 
" style="fill: none; stroke: #ffffff; stroke-width: 1.25; stroke-linejoin: miter; stroke-linecap: square"/>
   </g>
   <g id="patch_87">
    <path d="M 608.025469 339.84 
L 608.025469 7.2 
" style="fill: none; stroke: #ffffff; stroke-width: 1.25; stroke-linejoin: miter; stroke-linecap: square"/>
   </g>
   <g id="patch_88">
    <path d="M 50.025469 339.84 
L 608.025469 339.84 
" style="fill: none; stroke: #ffffff; stroke-width: 1.25; stroke-linejoin: miter; stroke-linecap: square"/>
   </g>
   <g id="patch_89">
    <path d="M 50.025469 7.2 
L 608.025469 7.2 
" style="fill: none; stroke: #ffffff; stroke-width: 1.25; stroke-linejoin: miter; stroke-linecap: square"/>
   </g>
  </g>
 </g>
 <defs>
  <clipPath id="pc3a51fd011">
   <rect x="50.025469" y="7.2" width="558" height="332.64"/>
  </clipPath>
 </defs>
</svg>