<?xml version="1.0" encoding="utf-8" standalone="no"?>
<!DOCTYPE svg PUBLIC "-//W3C//DTD SVG 1.1//EN"
  "http://www.w3.org/Graphics/SVG/1.1/DTD/svg11.dtd">
<svg xmlns:xlink="http://www.w3.org/1999/xlink" width="624.886875pt" height="364.089375pt" viewBox="0 0 624.886875 364.089375" xmlns="http://www.w3.org/2000/svg" version="1.1">
 <metadata>
  <rdf:RDF xmlns:dc="http://purl.org/dc/elements/1.1/" xmlns:cc="http://creativecommons.org/ns#" xmlns:rdf="http://www.w3.org/1999/02/22-rdf-syntax-ns#">
   <cc:Work>
    <dc:type rdf:resource="http://purl.org/dc/dcmitype/StillImage"/>
    <dc:date>2023-05-07T23:59:01.780893</dc:date>
    <dc:format>image/svg+xml</dc:format>
    <dc:creator>
     <cc:Agent>
      <dc:title>Matplotlib v3.7.1, https://matplotlib.org/</dc:title>
     </cc:Agent>
    </dc:creator>
   </cc:Work>
  </rdf:RDF>
 </metadata>
 <defs>
  <style type="text/css">*{stroke-linejoin: round; stroke-linecap: butt}</style>
 </defs>
 <g id="figure_1">
  <g id="patch_1">
   <path d="M 0 364.089375 
L 624.886875 364.089375 
L 624.886875 0 
L 0 0 
z
" style="fill: #ffffff"/>
  </g>
  <g id="axes_1">
   <g id="patch_2">
    <path d="M 59.686875 339.84 
L 617.686875 339.84 
L 617.686875 7.2 
L 59.686875 7.2 
z
" style="fill: #eeeeee"/>
   </g>
   <g id="PolyCollection_1">
    <defs>
     <path id="mb5dbdbfeb6" d="M 85.050511 -39.369375 
L 85.050511 -39.547941 
L 86.043217 -39.541423 
L 87.035923 -39.525216 
L 88.028629 -39.502898 
L 89.021335 -39.480268 
L 90.014041 -39.462417 
L 91.006747 -39.452279 
L 91.999453 -39.449999 
L 92.992159 -39.453244 
L 93.984865 -39.458232 
L 94.977571 -39.462192 
L 95.970277 -39.461095 
L 96.962982 -39.455795 
L 97.955688 -39.448249 
L 98.948394 -39.440545 
L 99.9411 -39.435758 
L 100.933806 -39.435758 
L 101.926512 -39.440545 
L 102.919218 -39.448249 
L 103.911924 -39.455795 
L 104.90463 -39.459997 
L 105.897336 -39.458658 
L 106.890042 -39.450801 
L 107.882748 -39.438796 
L 108.875454 -39.424024 
L 109.868159 -39.410195 
L 110.860865 -39.398471 
L 111.853571 -39.390891 
L 112.846277 -39.389379 
L 113.838983 -39.393327 
L 114.831689 -39.403466 
L 115.824395 -39.420746 
L 116.817101 -39.445177 
L 117.809807 -39.475323 
L 118.802513 -39.512161 
L 119.795219 -39.554706 
L 120.787925 -39.602644 
L 121.780631 -39.657699 
L 122.773336 -39.723749 
L 123.766042 -39.799048 
L 124.758748 -39.88671 
L 125.751454 -39.984943 
L 126.74416 -40.086487 
L 127.736866 -40.189576 
L 128.729572 -40.287767 
L 129.722278 -40.376732 
L 130.714984 -40.454783 
L 131.70769 -40.528217 
L 132.700396 -40.599203 
L 133.693102 -40.677269 
L 134.685808 -40.770528 
L 135.678513 -40.891314 
L 136.671219 -41.042893 
L 137.663925 -41.239823 
L 138.656631 -41.489648 
L 139.649337 -41.797539 
L 140.642043 -42.15406 
L 141.634749 -42.542617 
L 142.627455 -42.949343 
L 143.620161 -43.348133 
L 144.612867 -43.726862 
L 145.605573 -44.085807 
L 146.598279 -44.424241 
L 147.590985 -44.769058 
L 148.583691 -45.137568 
L 149.576396 -45.52753 
L 150.569102 -45.944524 
L 151.561808 -46.389359 
L 152.554514 -46.851082 
L 153.54722 -47.338651 
L 154.539926 -47.864373 
L 155.532632 -48.435007 
L 156.525338 -49.066468 
L 157.518044 -49.752346 
L 158.51075 -50.46809 
L 159.503456 -51.160848 
L 160.496162 -51.792346 
L 161.488868 -52.306597 
L 162.481573 -52.687034 
L 163.474279 -52.955653 
L 164.466985 -53.140261 
L 165.459691 -53.328704 
L 166.452397 -53.578529 
L 167.445103 -53.945746 
L 168.437809 -54.470653 
L 169.430515 -55.137184 
L 170.423221 -55.949808 
L 171.415927 -56.911268 
L 172.408633 -58.045067 
L 173.401339 -59.395538 
L 174.394045 -61.069716 
L 175.38675 -63.189361 
L 176.379456 -65.955998 
L 177.372162 -69.529874 
L 178.364868 -73.966297 
L 179.357574 -79.141612 
L 180.35028 -84.673626 
L 181.342986 -89.966709 
L 182.335692 -94.337578 
L 183.328398 -97.226264 
L 184.321104 -98.344 
L 185.31381 -97.811758 
L 186.306516 -96.129139 
L 187.299222 -93.982721 
L 188.291927 -92.123939 
L 189.284633 -91.086737 
L 190.277339 -91.212319 
L 191.270045 -92.512265 
L 192.262751 -94.852493 
L 193.255457 -97.961278 
L 194.248163 -101.639528 
L 195.240869 -105.73768 
L 196.233575 -110.162772 
L 197.226281 -115.018302 
L 198.218987 -120.387955 
L 199.211693 -126.394883 
L 200.204399 -133.069139 
L 201.197104 -140.289578 
L 202.18981 -147.717229 
L 203.182516 -154.800718 
L 204.175222 -160.977017 
L 205.167928 -165.710116 
L 206.160634 -168.63205 
L 207.15334 -169.738616 
L 208.146046 -169.245432 
L 209.138752 -167.632341 
L 210.131458 -165.476861 
L 211.124164 -163.380532 
L 212.11687 -161.759325 
L 213.109576 -160.966943 
L 214.102282 -161.045784 
L 215.094987 -161.936782 
L 216.087693 -163.366916 
L 217.080399 -165.041032 
L 218.073105 -166.688757 
L 219.065811 -167.99965 
L 220.058517 -168.885747 
L 221.051223 -169.334617 
L 222.043929 -169.466443 
L 223.036635 -169.427822 
L 224.029341 -169.409765 
L 225.022047 -169.560155 
L 226.014753 -169.918244 
L 227.007459 -170.498056 
L 228.000164 -171.309669 
L 228.99287 -172.228744 
L 229.985576 -173.274605 
L 230.978282 -174.36641 
L 231.970988 -175.431297 
L 232.963694 -176.368162 
L 233.9564 -177.085788 
L 234.949106 -177.402898 
L 235.941812 -177.240853 
L 236.934518 -176.533555 
L 237.927224 -175.328639 
L 238.91993 -173.753407 
L 239.912636 -172.01464 
L 240.905341 -170.358176 
L 241.898047 -168.954893 
L 242.890753 -167.929284 
L 243.883459 -167.275613 
L 244.876165 -167.017104 
L 245.868871 -167.153889 
L 246.861577 -167.625375 
L 247.854283 -168.496449 
L 248.846989 -170.163887 
L 249.839695 -172.970817 
L 250.832401 -177.279137 
L 251.825107 -183.131575 
L 252.817813 -190.21959 
L 253.810518 -197.722314 
L 254.803224 -204.472811 
L 255.79593 -209.314412 
L 256.788636 -211.410632 
L 257.781342 -210.513803 
L 258.774048 -207.08363 
L 259.766754 -202.031494 
L 260.75946 -196.555868 
L 261.752166 -191.626807 
L 262.744872 -187.91109 
L 263.737578 -185.620438 
L 264.730284 -184.705787 
L 265.72299 -184.924816 
L 266.715695 -185.959254 
L 267.708401 -187.626267 
L 268.701107 -189.880668 
L 269.693813 -192.661479 
L 270.686519 -195.786942 
L 271.679225 -199.142302 
L 272.671931 -202.499459 
L 273.664637 -205.61823 
L 274.657343 -208.254072 
L 275.650049 -210.224896 
L 276.642755 -211.497065 
L 277.635461 -212.090127 
L 278.628167 -212.212585 
L 279.620873 -212.08966 
L 280.613578 -212.003072 
L 281.606284 -212.193347 
L 282.59899 -212.869558 
L 283.591696 -214.214867 
L 284.584402 -216.308487 
L 285.577108 -219.227276 
L 286.569814 -222.827148 
L 287.56252 -227.002026 
L 288.555226 -231.627637 
L 289.547932 -236.51995 
L 290.540638 -241.550375 
L 291.533344 -246.599045 
L 292.52605 -251.629176 
L 293.518755 -256.651244 
L 294.511461 -261.548342 
L 295.504167 -266.263252 
L 296.496873 -270.680594 
L 297.489579 -274.666454 
L 298.482285 -278.05963 
L 299.474991 -280.789117 
L 300.467697 -282.776241 
L 301.460403 -284.031671 
L 302.453109 -284.539372 
L 303.445815 -284.434925 
L 304.438521 -283.785162 
L 305.431227 -282.838953 
L 306.423932 -281.832673 
L 307.416638 -281.088446 
L 308.409344 -280.980449 
L 309.40205 -281.850629 
L 310.394756 -283.79836 
L 311.387462 -286.896118 
L 312.380168 -291.060115 
L 313.372874 -296.209198 
L 314.36558 -302.111361 
L 315.358286 -308.532352 
L 316.350992 -315.368315 
L 317.343698 -322.298529 
L 318.336404 -329.001189 
L 319.329109 -334.956313 
L 320.321815 -339.460893 
L 321.314521 -341.769375 
L 322.307227 -341.21671 
L 323.299933 -337.354249 
L 324.292639 -330.14574 
L 325.285345 -319.910985 
L 326.278051 -307.489458 
L 327.270757 -293.886889 
L 328.263463 -280.201868 
L 329.256169 -267.30909 
L 330.248875 -255.868623 
L 331.241581 -246.10017 
L 332.234286 -238.121545 
L 333.226992 -231.714251 
L 334.219698 -226.691545 
L 335.212404 -222.829543 
L 336.20511 -220.10707 
L 337.197816 -218.565171 
L 338.190522 -218.131986 
L 339.183228 -218.796272 
L 340.175934 -220.574029 
L 341.16864 -223.443008 
L 342.161346 -227.322803 
L 343.154052 -231.818647 
L 344.146758 -236.377851 
L 345.139464 -240.176845 
L 346.132169 -242.183244 
L 347.124875 -241.451305 
L 348.117581 -237.317472 
L 349.110287 -229.774801 
L 350.102993 -219.455702 
L 351.095699 -207.465208 
L 352.088405 -195.275818 
L 353.081111 -184.314386 
L 354.073817 -175.539336 
L 355.066523 -169.470374 
L 356.059229 -166.122328 
L 357.051935 -165.123136 
L 358.044641 -165.783792 
L 359.037346 -167.26067 
L 360.030052 -168.684462 
L 361.022758 -169.23774 
L 362.015464 -168.177701 
L 363.00817 -165.082788 
L 364.000876 -159.903851 
L 364.993582 -153.022087 
L 365.986288 -145.032331 
L 366.978994 -136.717492 
L 367.9717 -128.836888 
L 368.964406 -121.890962 
L 369.957112 -116.173939 
L 370.949818 -111.671402 
L 371.942523 -108.250873 
L 372.935229 -105.735706 
L 373.927935 -103.822179 
L 374.920641 -102.365478 
L 375.913347 -101.279437 
L 376.906053 -100.447944 
L 377.898759 -99.740347 
L 378.891465 -99.105082 
L 379.884171 -98.509985 
L 380.876877 -97.921244 
L 381.869583 -97.428183 
L 382.862289 -97.069565 
L 383.854995 -96.931974 
L 384.8477 -97.068117 
L 385.840406 -97.455138 
L 386.833112 -98.076451 
L 387.825818 -98.830157 
L 388.818524 -99.569072 
L 389.81123 -100.165587 
L 390.803936 -100.500657 
L 391.796642 -100.435701 
L 392.789348 -99.898605 
L 393.782054 -98.826588 
L 394.77476 -97.196849 
L 395.767466 -95.076346 
L 396.760172 -92.543479 
L 397.752877 -89.736422 
L 398.745583 -86.811011 
L 399.738289 -83.905235 
L 400.730995 -81.112062 
L 401.723701 -78.516873 
L 402.716407 -76.167958 
L 403.709113 -74.051483 
L 404.701819 -72.183892 
L 405.694525 -70.540616 
L 406.687231 -69.112371 
L 407.679937 -67.859686 
L 408.672643 -66.720174 
L 409.665349 -65.640879 
L 410.658055 -64.579259 
L 411.65076 -63.493515 
L 412.643466 -62.389939 
L 413.636172 -61.297218 
L 414.628878 -60.259808 
L 415.621584 -59.30431 
L 416.61429 -58.465813 
L 417.606996 -57.725124 
L 418.599702 -57.070971 
L 419.592408 -56.481984 
L 420.585114 -55.944864 
L 421.57782 -55.445445 
L 422.570526 -54.99753 
L 423.563232 -54.596947 
L 424.555937 -54.245078 
L 425.548643 -53.911871 
L 426.541349 -53.571516 
L 427.534055 -53.176613 
L 428.526761 -52.697938 
L 429.519467 -52.121061 
L 430.512173 -51.454145 
L 431.504879 -50.737764 
L 432.497585 -50.028876 
L 433.490291 -49.377508 
L 434.482997 -48.833269 
L 435.475703 -48.416551 
L 436.468409 -48.128228 
L 437.461114 -47.940056 
L 438.45382 -47.804535 
L 439.446526 -47.679613 
L 440.439232 -47.522128 
L 441.431938 -47.303677 
L 442.424644 -47.015456 
L 443.41735 -46.665821 
L 444.410056 -46.265607 
L 445.402762 -45.856136 
L 446.395468 -45.471185 
L 447.388174 -45.154 
L 448.38088 -44.920007 
L 449.373586 -44.779402 
L 450.366291 -44.714084 
L 451.358997 -44.704644 
L 452.351703 -44.723027 
L 453.344409 -44.737544 
L 454.337115 -44.722688 
L 455.329821 -44.682883 
L 456.322527 -44.605623 
L 457.315233 -44.497634 
L 458.307939 -44.355245 
L 459.300645 -44.196122 
L 460.293351 -44.01881 
L 461.286057 -43.835716 
L 462.278763 -43.656062 
L 463.271468 -43.492804 
L 464.264174 -43.353633 
L 465.25688 -43.243501 
L 466.249586 -43.162583 
L 467.242292 -43.093412 
L 468.234998 -43.035392 
L 469.227704 -42.96486 
L 470.22041 -42.867014 
L 471.213116 -42.741311 
L 472.205822 -42.588399 
L 473.198528 -42.419673 
L 474.191234 -42.250691 
L 475.18394 -42.100063 
L 476.176646 -41.975504 
L 477.169351 -41.873922 
L 478.162057 -41.788878 
L 479.154763 -41.710655 
L 480.147469 -41.623878 
L 481.140175 -41.510772 
L 482.132881 -41.383382 
L 483.125587 -41.234868 
L 484.118293 -41.086106 
L 485.110999 -40.953554 
L 486.103705 -40.854035 
L 487.096411 -40.807189 
L 488.089117 -40.81557 
L 489.081823 -40.880018 
L 490.074528 -40.978365 
L 491.067234 -41.093784 
L 492.05994 -41.197847 
L 493.052646 -41.269011 
L 494.045352 -41.293974 
L 495.038058 -41.276234 
L 496.030764 -41.226781 
L 497.02347 -41.162136 
L 498.016176 -41.102288 
L 499.008882 -41.055702 
L 500.001588 -41.02423 
L 500.994294 -40.999283 
L 501.987 -40.969608 
L 502.979705 -40.923217 
L 503.972411 -40.848154 
L 504.965117 -40.748307 
L 505.957823 -40.623994 
L 506.950529 -40.487098 
L 507.943235 -40.34608 
L 508.935941 -40.210408 
L 509.928647 -40.087464 
L 510.921353 -39.980023 
L 511.914059 -39.890841 
L 512.906765 -39.818611 
L 513.899471 -39.763353 
L 514.892177 -39.720878 
L 515.884882 -39.691417 
L 516.877588 -39.672914 
L 517.870294 -39.665649 
L 518.863 -39.671271 
L 519.855706 -39.694587 
L 520.848412 -39.737315 
L 521.841118 -39.801304 
L 522.833824 -39.886213 
L 523.82653 -39.98411 
L 524.819236 -40.08761 
L 525.811942 -40.18261 
L 526.804648 -40.257328 
L 527.797354 -40.301923 
L 528.790059 -40.312527 
L 529.782765 -40.290189 
L 530.775471 -40.240024 
L 531.768177 -40.169898 
L 532.760883 -40.089782 
L 533.753589 -40.006203 
L 534.746295 -39.924335 
L 535.739001 -39.846379 
L 536.731707 -39.773859 
L 537.724413 -39.706017 
L 538.717119 -39.64333 
L 539.709825 -39.586314 
L 540.702531 -39.536022 
L 541.695237 -39.492942 
L 542.687942 -39.460964 
L 543.680648 -39.439091 
L 544.673354 -39.431636 
L 545.66606 -39.437485 
L 546.658766 -39.456298 
L 547.651472 -39.488746 
L 548.644178 -39.53136 
L 549.636884 -39.579634 
L 550.62959 -39.627885 
L 551.622296 -39.671565 
L 552.615002 -39.704488 
L 553.607708 -39.722796 
L 554.600414 -39.725563 
L 555.593119 -39.711975 
L 556.585825 -39.687224 
L 557.578531 -39.65391 
L 558.571237 -39.619344 
L 559.563943 -39.590261 
L 560.556649 -39.572312 
L 561.549355 -39.568569 
L 562.542061 -39.577968 
L 563.534767 -39.596748 
L 564.527473 -39.617797 
L 565.520179 -39.632061 
L 566.512885 -39.633264 
L 567.505591 -39.621138 
L 568.498296 -39.595404 
L 569.491002 -39.562387 
L 570.483708 -39.531308 
L 571.476414 -39.508523 
L 572.46912 -39.498531 
L 573.461826 -39.502881 
L 574.454532 -39.517225 
L 575.447238 -39.536303 
L 576.439944 -39.553313 
L 577.43265 -39.564463 
L 578.425356 -39.565646 
L 579.418062 -39.559944 
L 580.410768 -39.548094 
L 581.403473 -39.533167 
L 582.396179 -39.518281 
L 583.388885 -39.504276 
L 584.381591 -39.490967 
L 585.374297 -39.479697 
L 586.367003 -39.472202 
L 587.359709 -39.470739 
L 588.352415 -39.476578 
L 589.345121 -39.490406 
L 590.337827 -39.509966 
L 591.330533 -39.529675 
L 592.323239 -39.545079 
L 592.323239 -39.369375 
L 592.323239 -39.369375 
L 591.330533 -39.369375 
L 590.337827 -39.369375 
L 589.345121 -39.369375 
L 588.352415 -39.369375 
L 587.359709 -39.369375 
L 586.367003 -39.369375 
L 585.374297 -39.369375 
L 584.381591 -39.369375 
L 583.388885 -39.369375 
L 582.396179 -39.369375 
L 581.403473 -39.369375 
L 580.410768 -39.369375 
L 579.418062 -39.369375 
L 578.425356 -39.369375 
L 577.43265 -39.369375 
L 576.439944 -39.369375 
L 575.447238 -39.369375 
L 574.454532 -39.369375 
L 573.461826 -39.369375 
L 572.46912 -39.369375 
L 571.476414 -39.369375 
L 570.483708 -39.369375 
L 569.491002 -39.369375 
L 568.498296 -39.369375 
L 567.505591 -39.369375 
L 566.512885 -39.369375 
L 565.520179 -39.369375 
L 564.527473 -39.369375 
L 563.534767 -39.369375 
L 562.542061 -39.369375 
L 561.549355 -39.369375 
L 560.556649 -39.369375 
L 559.563943 -39.369375 
L 558.571237 -39.369375 
L 557.578531 -39.369375 
L 556.585825 -39.369375 
L 555.593119 -39.369375 
L 554.600414 -39.369375 
L 553.607708 -39.369375 
L 552.615002 -39.369375 
L 551.622296 -39.369375 
L 550.62959 -39.369375 
L 549.636884 -39.369375 
L 548.644178 -39.369375 
L 547.651472 -39.369375 
L 546.658766 -39.369375 
L 545.66606 -39.369375 
L 544.673354 -39.369375 
L 543.680648 -39.369375 
L 542.687942 -39.369375 
L 541.695237 -39.369375 
L 540.702531 -39.369375 
L 539.709825 -39.369375 
L 538.717119 -39.369375 
L 537.724413 -39.369375 
L 536.731707 -39.369375 
L 535.739001 -39.369375 
L 534.746295 -39.369375 
L 533.753589 -39.369375 
L 532.760883 -39.369375 
L 531.768177 -39.369375 
L 530.775471 -39.369375 
L 529.782765 -39.369375 
L 528.790059 -39.369375 
L 527.797354 -39.369375 
L 526.804648 -39.369375 
L 525.811942 -39.369375 
L 524.819236 -39.369375 
L 523.82653 -39.369375 
L 522.833824 -39.369375 
L 521.841118 -39.369375 
L 520.848412 -39.369375 
L 519.855706 -39.369375 
L 518.863 -39.369375 
L 517.870294 -39.369375 
L 516.877588 -39.369375 
L 515.884882 -39.369375 
L 514.892177 -39.369375 
L 513.899471 -39.369375 
L 512.906765 -39.369375 
L 511.914059 -39.369375 
L 510.921353 -39.369375 
L 509.928647 -39.369375 
L 508.935941 -39.369375 
L 507.943235 -39.369375 
L 506.950529 -39.369375 
L 505.957823 -39.369375 
L 504.965117 -39.369375 
L 503.972411 -39.369375 
L 502.979705 -39.369375 
L 501.987 -39.369375 
L 500.994294 -39.369375 
L 500.001588 -39.369375 
L 499.008882 -39.369375 
L 498.016176 -39.369375 
L 497.02347 -39.369375 
L 496.030764 -39.369375 
L 495.038058 -39.369375 
L 494.045352 -39.369375 
L 493.052646 -39.369375 
L 492.05994 -39.369375 
L 491.067234 -39.369375 
L 490.074528 -39.369375 
L 489.081823 -39.369375 
L 488.089117 -39.369375 
L 487.096411 -39.369375 
L 486.103705 -39.369375 
L 485.110999 -39.369375 
L 484.118293 -39.369375 
L 483.125587 -39.369375 
L 482.132881 -39.369375 
L 481.140175 -39.369375 
L 480.147469 -39.369375 
L 479.154763 -39.369375 
L 478.162057 -39.369375 
L 477.169351 -39.369375 
L 476.176646 -39.369375 
L 475.18394 -39.369375 
L 474.191234 -39.369375 
L 473.198528 -39.369375 
L 472.205822 -39.369375 
L 471.213116 -39.369375 
L 470.22041 -39.369375 
L 469.227704 -39.369375 
L 468.234998 -39.369375 
L 467.242292 -39.369375 
L 466.249586 -39.369375 
L 465.25688 -39.369375 
L 464.264174 -39.369375 
L 463.271468 -39.369375 
L 462.278763 -39.369375 
L 461.286057 -39.369375 
L 460.293351 -39.369375 
L 459.300645 -39.369375 
L 458.307939 -39.369375 
L 457.315233 -39.369375 
L 456.322527 -39.369375 
L 455.329821 -39.369375 
L 454.337115 -39.369375 
L 453.344409 -39.369375 
L 452.351703 -39.369375 
L 451.358997 -39.369375 
L 450.366291 -39.369375 
L 449.373586 -39.369375 
L 448.38088 -39.369375 
L 447.388174 -39.369375 
L 446.395468 -39.369375 
L 445.402762 -39.369375 
L 444.410056 -39.369375 
L 443.41735 -39.369375 
L 442.424644 -39.369375 
L 441.431938 -39.369375 
L 440.439232 -39.369375 
L 439.446526 -39.369375 
L 438.45382 -39.369375 
L 437.461114 -39.369375 
L 436.468409 -39.369375 
L 435.475703 -39.369375 
L 434.482997 -39.369375 
L 433.490291 -39.369375 
L 432.497585 -39.369375 
L 431.504879 -39.369375 
L 430.512173 -39.369375 
L 429.519467 -39.369375 
L 428.526761 -39.369375 
L 427.534055 -39.369375 
L 426.541349 -39.369375 
L 425.548643 -39.369375 
L 424.555937 -39.369375 
L 423.563232 -39.369375 
L 422.570526 -39.369375 
L 421.57782 -39.369375 
L 420.585114 -39.369375 
L 419.592408 -39.369375 
L 418.599702 -39.369375 
L 417.606996 -39.369375 
L 416.61429 -39.369375 
L 415.621584 -39.369375 
L 414.628878 -39.369375 
L 413.636172 -39.369375 
L 412.643466 -39.369375 
L 411.65076 -39.369375 
L 410.658055 -39.369375 
L 409.665349 -39.369375 
L 408.672643 -39.369375 
L 407.679937 -39.369375 
L 406.687231 -39.369375 
L 405.694525 -39.369375 
L 404.701819 -39.369375 
L 403.709113 -39.369375 
L 402.716407 -39.369375 
L 401.723701 -39.369375 
L 400.730995 -39.369375 
L 399.738289 -39.369375 
L 398.745583 -39.369375 
L 397.752877 -39.369375 
L 396.760172 -39.369375 
L 395.767466 -39.369375 
L 394.77476 -39.369375 
L 393.782054 -39.369375 
L 392.789348 -39.369375 
L 391.796642 -39.369375 
L 390.803936 -39.369375 
L 389.81123 -39.369375 
L 388.818524 -39.369375 
L 387.825818 -39.369375 
L 386.833112 -39.369375 
L 385.840406 -39.369375 
L 384.8477 -39.369375 
L 383.854995 -39.369375 
L 382.862289 -39.369375 
L 381.869583 -39.369375 
L 380.876877 -39.369375 
L 379.884171 -39.369375 
L 378.891465 -39.369375 
L 377.898759 -39.369375 
L 376.906053 -39.369375 
L 375.913347 -39.369375 
L 374.920641 -39.369375 
L 373.927935 -39.369375 
L 372.935229 -39.369375 
L 371.942523 -39.369375 
L 370.949818 -39.369375 
L 369.957112 -39.369375 
L 368.964406 -39.369375 
L 367.9717 -39.369375 
L 366.978994 -39.369375 
L 365.986288 -39.369375 
L 364.993582 -39.369375 
L 364.000876 -39.369375 
L 363.00817 -39.369375 
L 362.015464 -39.369375 
L 361.022758 -39.369375 
L 360.030052 -39.369375 
L 359.037346 -39.369375 
L 358.044641 -39.369375 
L 357.051935 -39.369375 
L 356.059229 -39.369375 
L 355.066523 -39.369375 
L 354.073817 -39.369375 
L 353.081111 -39.369375 
L 352.088405 -39.369375 
L 351.095699 -39.369375 
L 350.102993 -39.369375 
L 349.110287 -39.369375 
L 348.117581 -39.369375 
L 347.124875 -39.369375 
L 346.132169 -39.369375 
L 345.139464 -39.369375 
L 344.146758 -39.369375 
L 343.154052 -39.369375 
L 342.161346 -39.369375 
L 341.16864 -39.369375 
L 340.175934 -39.369375 
L 339.183228 -39.369375 
L 338.190522 -39.369375 
L 337.197816 -39.369375 
L 336.20511 -39.369375 
L 335.212404 -39.369375 
L 334.219698 -39.369375 
L 333.226992 -39.369375 
L 332.234286 -39.369375 
L 331.241581 -39.369375 
L 330.248875 -39.369375 
L 329.256169 -39.369375 
L 328.263463 -39.369375 
L 327.270757 -39.369375 
L 326.278051 -39.369375 
L 325.285345 -39.369375 
L 324.292639 -39.369375 
L 323.299933 -39.369375 
L 322.307227 -39.369375 
L 321.314521 -39.369375 
L 320.321815 -39.369375 
L 319.329109 -39.369375 
L 318.336404 -39.369375 
L 317.343698 -39.369375 
L 316.350992 -39.369375 
L 315.358286 -39.369375 
L 314.36558 -39.369375 
L 313.372874 -39.369375 
L 312.380168 -39.369375 
L 311.387462 -39.369375 
L 310.394756 -39.369375 
L 309.40205 -39.369375 
L 308.409344 -39.369375 
L 307.416638 -39.369375 
L 306.423932 -39.369375 
L 305.431227 -39.369375 
L 304.438521 -39.369375 
L 303.445815 -39.369375 
L 302.453109 -39.369375 
L 301.460403 -39.369375 
L 300.467697 -39.369375 
L 299.474991 -39.369375 
L 298.482285 -39.369375 
L 297.489579 -39.369375 
L 296.496873 -39.369375 
L 295.504167 -39.369375 
L 294.511461 -39.369375 
L 293.518755 -39.369375 
L 292.52605 -39.369375 
L 291.533344 -39.369375 
L 290.540638 -39.369375 
L 289.547932 -39.369375 
L 288.555226 -39.369375 
L 287.56252 -39.369375 
L 286.569814 -39.369375 
L 285.577108 -39.369375 
L 284.584402 -39.369375 
L 283.591696 -39.369375 
L 282.59899 -39.369375 
L 281.606284 -39.369375 
L 280.613578 -39.369375 
L 279.620873 -39.369375 
L 278.628167 -39.369375 
L 277.635461 -39.369375 
L 276.642755 -39.369375 
L 275.650049 -39.369375 
L 274.657343 -39.369375 
L 273.664637 -39.369375 
L 272.671931 -39.369375 
L 271.679225 -39.369375 
L 270.686519 -39.369375 
L 269.693813 -39.369375 
L 268.701107 -39.369375 
L 267.708401 -39.369375 
L 266.715695 -39.369375 
L 265.72299 -39.369375 
L 264.730284 -39.369375 
L 263.737578 -39.369375 
L 262.744872 -39.369375 
L 261.752166 -39.369375 
L 260.75946 -39.369375 
L 259.766754 -39.369375 
L 258.774048 -39.369375 
L 257.781342 -39.369375 
L 256.788636 -39.369375 
L 255.79593 -39.369375 
L 254.803224 -39.369375 
L 253.810518 -39.369375 
L 252.817813 -39.369375 
L 251.825107 -39.369375 
L 250.832401 -39.369375 
L 249.839695 -39.369375 
L 248.846989 -39.369375 
L 247.854283 -39.369375 
L 246.861577 -39.369375 
L 245.868871 -39.369375 
L 244.876165 -39.369375 
L 243.883459 -39.369375 
L 242.890753 -39.369375 
L 241.898047 -39.369375 
L 240.905341 -39.369375 
L 239.912636 -39.369375 
L 238.91993 -39.369375 
L 237.927224 -39.369375 
L 236.934518 -39.369375 
L 235.941812 -39.369375 
L 234.949106 -39.369375 
L 233.9564 -39.369375 
L 232.963694 -39.369375 
L 231.970988 -39.369375 
L 230.978282 -39.369375 
L 229.985576 -39.369375 
L 228.99287 -39.369375 
L 228.000164 -39.369375 
L 227.007459 -39.369375 
L 226.014753 -39.369375 
L 225.022047 -39.369375 
L 224.029341 -39.369375 
L 223.036635 -39.369375 
L 222.043929 -39.369375 
L 221.051223 -39.369375 
L 220.058517 -39.369375 
L 219.065811 -39.369375 
L 218.073105 -39.369375 
L 217.080399 -39.369375 
L 216.087693 -39.369375 
L 215.094987 -39.369375 
L 214.102282 -39.369375 
L 213.109576 -39.369375 
L 212.11687 -39.369375 
L 211.124164 -39.369375 
L 210.131458 -39.369375 
L 209.138752 -39.369375 
L 208.146046 -39.369375 
L 207.15334 -39.369375 
L 206.160634 -39.369375 
L 205.167928 -39.369375 
L 204.175222 -39.369375 
L 203.182516 -39.369375 
L 202.18981 -39.369375 
L 201.197104 -39.369375 
L 200.204399 -39.369375 
L 199.211693 -39.369375 
L 198.218987 -39.369375 
L 197.226281 -39.369375 
L 196.233575 -39.369375 
L 195.240869 -39.369375 
L 194.248163 -39.369375 
L 193.255457 -39.369375 
L 192.262751 -39.369375 
L 191.270045 -39.369375 
L 190.277339 -39.369375 
L 189.284633 -39.369375 
L 188.291927 -39.369375 
L 187.299222 -39.369375 
L 186.306516 -39.369375 
L 185.31381 -39.369375 
L 184.321104 -39.369375 
L 183.328398 -39.369375 
L 182.335692 -39.369375 
L 181.342986 -39.369375 
L 180.35028 -39.369375 
L 179.357574 -39.369375 
L 178.364868 -39.369375 
L 177.372162 -39.369375 
L 176.379456 -39.369375 
L 175.38675 -39.369375 
L 174.394045 -39.369375 
L 173.401339 -39.369375 
L 172.408633 -39.369375 
L 171.415927 -39.369375 
L 170.423221 -39.369375 
L 169.430515 -39.369375 
L 168.437809 -39.369375 
L 167.445103 -39.369375 
L 166.452397 -39.369375 
L 165.459691 -39.369375 
L 164.466985 -39.369375 
L 163.474279 -39.369375 
L 162.481573 -39.369375 
L 161.488868 -39.369375 
L 160.496162 -39.369375 
L 159.503456 -39.369375 
L 158.51075 -39.369375 
L 157.518044 -39.369375 
L 156.525338 -39.369375 
L 155.532632 -39.369375 
L 154.539926 -39.369375 
L 153.54722 -39.369375 
L 152.554514 -39.369375 
L 151.561808 -39.369375 
L 150.569102 -39.369375 
L 149.576396 -39.369375 
L 148.583691 -39.369375 
L 147.590985 -39.369375 
L 146.598279 -39.369375 
L 145.605573 -39.369375 
L 144.612867 -39.369375 
L 143.620161 -39.369375 
L 142.627455 -39.369375 
L 141.634749 -39.369375 
L 140.642043 -39.369375 
L 139.649337 -39.369375 
L 138.656631 -39.369375 
L 137.663925 -39.369375 
L 136.671219 -39.369375 
L 135.678513 -39.369375 
L 134.685808 -39.369375 
L 133.693102 -39.369375 
L 132.700396 -39.369375 
L 131.70769 -39.369375 
L 130.714984 -39.369375 
L 129.722278 -39.369375 
L 128.729572 -39.369375 
L 127.736866 -39.369375 
L 126.74416 -39.369375 
L 125.751454 -39.369375 
L 124.758748 -39.369375 
L 123.766042 -39.369375 
L 122.773336 -39.369375 
L 121.780631 -39.369375 
L 120.787925 -39.369375 
L 119.795219 -39.369375 
L 118.802513 -39.369375 
L 117.809807 -39.369375 
L 116.817101 -39.369375 
L 115.824395 -39.369375 
L 114.831689 -39.369375 
L 113.838983 -39.369375 
L 112.846277 -39.369375 
L 111.853571 -39.369375 
L 110.860865 -39.369375 
L 109.868159 -39.369375 
L 108.875454 -39.369375 
L 107.882748 -39.369375 
L 106.890042 -39.369375 
L 105.897336 -39.369375 
L 104.90463 -39.369375 
L 103.911924 -39.369375 
L 102.919218 -39.369375 
L 101.926512 -39.369375 
L 100.933806 -39.369375 
L 99.9411 -39.369375 
L 98.948394 -39.369375 
L 97.955688 -39.369375 
L 96.962982 -39.369375 
L 95.970277 -39.369375 
L 94.977571 -39.369375 
L 93.984865 -39.369375 
L 92.992159 -39.369375 
L 91.999453 -39.369375 
L 91.006747 -39.369375 
L 90.014041 -39.369375 
L 89.021335 -39.369375 
L 88.028629 -39.369375 
L 87.035923 -39.369375 
L 86.043217 -39.369375 
L 85.050511 -39.369375 
z
" style="stroke: #348abd; stroke-opacity: 0; stroke-width: 0.5"/>
    </defs>
    <g clip-path="url(#p7a97ffabcf)">
     <use xlink:href="#mb5dbdbfeb6" x="0" y="364.089375" style="fill: #348abd; fill-opacity: 0; stroke: #348abd; stroke-opacity: 0; stroke-width: 0.5"/>
    </g>
   </g>
   <g id="matplotlib.axis_1">
    <g id="xtick_1">
     <g id="line2d_1">
      <path d="M 85.665176 339.84 
L 85.665176 7.2 
" clip-path="url(#p7a97ffabcf)" style="fill: none; stroke-dasharray: 1.85,0.8; stroke-dashoffset: 0; stroke: #b2b2b2; stroke-width: 0.5"/>
     </g>
     <g id="line2d_2">
      <defs>
       <path id="md6de4b719f" d="M 0 0 
L 0 -3.5 
" style="stroke: #000000; stroke-width: 0.8"/>
      </defs>
      <g>
       <use xlink:href="#md6de4b719f" x="85.665176" y="339.84" style="stroke: #000000; stroke-width: 0.8"/>
      </g>
     </g>
     <g id="text_1">
      <!-- −400 -->
      <g transform="translate(66.438145 353.977813) scale(0.14 -0.14)">
       <defs>
        <path id="DejaVuSans-2212" d="M 678 2272 
L 4684 2272 
L 4684 1741 
L 678 1741 
L 678 2272 
z
" transform="scale(0.015625)"/>
        <path id="DejaVuSans-34" d="M 2419 4116 
L 825 1625 
L 2419 1625 
L 2419 4116 
z
M 2253 4666 
L 3047 4666 
L 3047 1625 
L 3713 1625 
L 3713 1100 
L 3047 1100 
L 3047 0 
L 2419 0 
L 2419 1100 
L 313 1100 
L 313 1709 
L 2253 4666 
z
" transform="scale(0.015625)"/>
        <path id="DejaVuSans-30" d="M 2034 4250 
Q 1547 4250 1301 3770 
Q 1056 3291 1056 2328 
Q 1056 1369 1301 889 
Q 1547 409 2034 409 
Q 2525 409 2770 889 
Q 3016 1369 3016 2328 
Q 3016 3291 2770 3770 
Q 2525 4250 2034 4250 
z
M 2034 4750 
Q 2819 4750 3233 4129 
Q 3647 3509 3647 2328 
Q 3647 1150 3233 529 
Q 2819 -91 2034 -91 
Q 1250 -91 836 529 
Q 422 1150 422 2328 
Q 422 3509 836 4129 
Q 1250 4750 2034 4750 
z
" transform="scale(0.015625)"/>
       </defs>
       <use xlink:href="#DejaVuSans-2212"/>
       <use xlink:href="#DejaVuSans-34" x="83.789062"/>
       <use xlink:href="#DejaVuSans-30" x="147.412109"/>
       <use xlink:href="#DejaVuSans-30" x="211.035156"/>
      </g>
     </g>
    </g>
    <g id="xtick_2">
     <g id="line2d_3">
      <path d="M 177.323085 339.84 
L 177.323085 7.2 
" clip-path="url(#p7a97ffabcf)" style="fill: none; stroke-dasharray: 1.85,0.8; stroke-dashoffset: 0; stroke: #b2b2b2; stroke-width: 0.5"/>
     </g>
     <g id="line2d_4">
      <g>
       <use xlink:href="#md6de4b719f" x="177.323085" y="339.84" style="stroke: #000000; stroke-width: 0.8"/>
      </g>
     </g>
     <g id="text_2">
      <!-- −200 -->
      <g transform="translate(158.096054 353.977813) scale(0.14 -0.14)">
       <defs>
        <path id="DejaVuSans-32" d="M 1228 531 
L 3431 531 
L 3431 0 
L 469 0 
L 469 531 
Q 828 903 1448 1529 
Q 2069 2156 2228 2338 
Q 2531 2678 2651 2914 
Q 2772 3150 2772 3378 
Q 2772 3750 2511 3984 
Q 2250 4219 1831 4219 
Q 1534 4219 1204 4116 
Q 875 4013 500 3803 
L 500 4441 
Q 881 4594 1212 4672 
Q 1544 4750 1819 4750 
Q 2544 4750 2975 4387 
Q 3406 4025 3406 3419 
Q 3406 3131 3298 2873 
Q 3191 2616 2906 2266 
Q 2828 2175 2409 1742 
Q 1991 1309 1228 531 
z
" transform="scale(0.015625)"/>
       </defs>
       <use xlink:href="#DejaVuSans-2212"/>
       <use xlink:href="#DejaVuSans-32" x="83.789062"/>
       <use xlink:href="#DejaVuSans-30" x="147.412109"/>
       <use xlink:href="#DejaVuSans-30" x="211.035156"/>
      </g>
     </g>
    </g>
    <g id="xtick_3">
     <g id="line2d_5">
      <path d="M 268.980994 339.84 
L 268.980994 7.2 
" clip-path="url(#p7a97ffabcf)" style="fill: none; stroke-dasharray: 1.85,0.8; stroke-dashoffset: 0; stroke: #b2b2b2; stroke-width: 0.5"/>
     </g>
     <g id="line2d_6">
      <g>
       <use xlink:href="#md6de4b719f" x="268.980994" y="339.84" style="stroke: #000000; stroke-width: 0.8"/>
      </g>
     </g>
     <g id="text_3">
      <!-- 0 -->
      <g transform="translate(264.527244 353.977813) scale(0.14 -0.14)">
       <use xlink:href="#DejaVuSans-30"/>
      </g>
     </g>
    </g>
    <g id="xtick_4">
     <g id="line2d_7">
      <path d="M 360.638903 339.84 
L 360.638903 7.2 
" clip-path="url(#p7a97ffabcf)" style="fill: none; stroke-dasharray: 1.85,0.8; stroke-dashoffset: 0; stroke: #b2b2b2; stroke-width: 0.5"/>
     </g>
     <g id="line2d_8">
      <g>
       <use xlink:href="#md6de4b719f" x="360.638903" y="339.84" style="stroke: #000000; stroke-width: 0.8"/>
      </g>
     </g>
     <g id="text_4">
      <!-- 200 -->
      <g transform="translate(347.277653 353.977813) scale(0.14 -0.14)">
       <use xlink:href="#DejaVuSans-32"/>
       <use xlink:href="#DejaVuSans-30" x="63.623047"/>
       <use xlink:href="#DejaVuSans-30" x="127.246094"/>
      </g>
     </g>
    </g>
    <g id="xtick_5">
     <g id="line2d_9">
      <path d="M 452.296812 339.84 
L 452.296812 7.2 
" clip-path="url(#p7a97ffabcf)" style="fill: none; stroke-dasharray: 1.85,0.8; stroke-dashoffset: 0; stroke: #b2b2b2; stroke-width: 0.5"/>
     </g>
     <g id="line2d_10">
      <g>
       <use xlink:href="#md6de4b719f" x="452.296812" y="339.84" style="stroke: #000000; stroke-width: 0.8"/>
      </g>
     </g>
     <g id="text_5">
      <!-- 400 -->
      <g transform="translate(438.935562 353.977813) scale(0.14 -0.14)">
       <use xlink:href="#DejaVuSans-34"/>
       <use xlink:href="#DejaVuSans-30" x="63.623047"/>
       <use xlink:href="#DejaVuSans-30" x="127.246094"/>
      </g>
     </g>
    </g>
    <g id="xtick_6">
     <g id="line2d_11">
      <path d="M 543.954721 339.84 
L 543.954721 7.2 
" clip-path="url(#p7a97ffabcf)" style="fill: none; stroke-dasharray: 1.85,0.8; stroke-dashoffset: 0; stroke: #b2b2b2; stroke-width: 0.5"/>
     </g>
     <g id="line2d_12">
      <g>
       <use xlink:href="#md6de4b719f" x="543.954721" y="339.84" style="stroke: #000000; stroke-width: 0.8"/>
      </g>
     </g>
     <g id="text_6">
      <!-- 600 -->
      <g transform="translate(530.593471 353.977813) scale(0.14 -0.14)">
       <defs>
        <path id="DejaVuSans-36" d="M 2113 2584 
Q 1688 2584 1439 2293 
Q 1191 2003 1191 1497 
Q 1191 994 1439 701 
Q 1688 409 2113 409 
Q 2538 409 2786 701 
Q 3034 994 3034 1497 
Q 3034 2003 2786 2293 
Q 2538 2584 2113 2584 
z
M 3366 4563 
L 3366 3988 
Q 3128 4100 2886 4159 
Q 2644 4219 2406 4219 
Q 1781 4219 1451 3797 
Q 1122 3375 1075 2522 
Q 1259 2794 1537 2939 
Q 1816 3084 2150 3084 
Q 2853 3084 3261 2657 
Q 3669 2231 3669 1497 
Q 3669 778 3244 343 
Q 2819 -91 2113 -91 
Q 1303 -91 875 529 
Q 447 1150 447 2328 
Q 447 3434 972 4092 
Q 1497 4750 2381 4750 
Q 2619 4750 2861 4703 
Q 3103 4656 3366 4563 
z
" transform="scale(0.015625)"/>
       </defs>
       <use xlink:href="#DejaVuSans-36"/>
       <use xlink:href="#DejaVuSans-30" x="63.623047"/>
       <use xlink:href="#DejaVuSans-30" x="127.246094"/>
      </g>
     </g>
    </g>
   </g>
   <g id="matplotlib.axis_2">
    <g id="ytick_1">
     <g id="line2d_13">
      <path d="M 59.686875 324.72 
L 617.686875 324.72 
" clip-path="url(#p7a97ffabcf)" style="fill: none; stroke-dasharray: 1.85,0.8; stroke-dashoffset: 0; stroke: #b2b2b2; stroke-width: 0.5"/>
     </g>
     <g id="line2d_14">
      <defs>
       <path id="m008a8483a0" d="M 0 0 
L 3.5 0 
" style="stroke: #000000; stroke-width: 0.8"/>
      </defs>
      <g>
       <use xlink:href="#m008a8483a0" x="59.686875" y="324.72" style="stroke: #000000; stroke-width: 0.8"/>
      </g>
     </g>
     <g id="text_7">
      <!-- 0.0000 -->
      <g transform="translate(7.2 330.038906) scale(0.14 -0.14)">
       <defs>
        <path id="DejaVuSans-2e" d="M 684 794 
L 1344 794 
L 1344 0 
L 684 0 
L 684 794 
z
" transform="scale(0.015625)"/>
       </defs>
       <use xlink:href="#DejaVuSans-30"/>
       <use xlink:href="#DejaVuSans-2e" x="63.623047"/>
       <use xlink:href="#DejaVuSans-30" x="95.410156"/>
       <use xlink:href="#DejaVuSans-30" x="159.033203"/>
       <use xlink:href="#DejaVuSans-30" x="222.65625"/>
       <use xlink:href="#DejaVuSans-30" x="286.279297"/>
      </g>
     </g>
    </g>
    <g id="ytick_2">
     <g id="line2d_15">
      <path d="M 59.686875 287.559113 
L 617.686875 287.559113 
" clip-path="url(#p7a97ffabcf)" style="fill: none; stroke-dasharray: 1.85,0.8; stroke-dashoffset: 0; stroke: #b2b2b2; stroke-width: 0.5"/>
     </g>
     <g id="line2d_16">
      <g>
       <use xlink:href="#m008a8483a0" x="59.686875" y="287.559113" style="stroke: #000000; stroke-width: 0.8"/>
      </g>
     </g>
     <g id="text_8">
      <!-- 0.0005 -->
      <g transform="translate(7.2 292.878019) scale(0.14 -0.14)">
       <defs>
        <path id="DejaVuSans-35" d="M 691 4666 
L 3169 4666 
L 3169 4134 
L 1269 4134 
L 1269 2991 
Q 1406 3038 1543 3061 
Q 1681 3084 1819 3084 
Q 2600 3084 3056 2656 
Q 3513 2228 3513 1497 
Q 3513 744 3044 326 
Q 2575 -91 1722 -91 
Q 1428 -91 1123 -41 
Q 819 9 494 109 
L 494 744 
Q 775 591 1075 516 
Q 1375 441 1709 441 
Q 2250 441 2565 725 
Q 2881 1009 2881 1497 
Q 2881 1984 2565 2268 
Q 2250 2553 1709 2553 
Q 1456 2553 1204 2497 
Q 953 2441 691 2322 
L 691 4666 
z
" transform="scale(0.015625)"/>
       </defs>
       <use xlink:href="#DejaVuSans-30"/>
       <use xlink:href="#DejaVuSans-2e" x="63.623047"/>
       <use xlink:href="#DejaVuSans-30" x="95.410156"/>
       <use xlink:href="#DejaVuSans-30" x="159.033203"/>
       <use xlink:href="#DejaVuSans-30" x="222.65625"/>
       <use xlink:href="#DejaVuSans-35" x="286.279297"/>
      </g>
     </g>
    </g>
    <g id="ytick_3">
     <g id="line2d_17">
      <path d="M 59.686875 250.398226 
L 617.686875 250.398226 
" clip-path="url(#p7a97ffabcf)" style="fill: none; stroke-dasharray: 1.85,0.8; stroke-dashoffset: 0; stroke: #b2b2b2; stroke-width: 0.5"/>
     </g>
     <g id="line2d_18">
      <g>
       <use xlink:href="#m008a8483a0" x="59.686875" y="250.398226" style="stroke: #000000; stroke-width: 0.8"/>
      </g>
     </g>
     <g id="text_9">
      <!-- 0.0010 -->
      <g transform="translate(7.2 255.717132) scale(0.14 -0.14)">
       <defs>
        <path id="DejaVuSans-31" d="M 794 531 
L 1825 531 
L 1825 4091 
L 703 3866 
L 703 4441 
L 1819 4666 
L 2450 4666 
L 2450 531 
L 3481 531 
L 3481 0 
L 794 0 
L 794 531 
z
" transform="scale(0.015625)"/>
       </defs>
       <use xlink:href="#DejaVuSans-30"/>
       <use xlink:href="#DejaVuSans-2e" x="63.623047"/>
       <use xlink:href="#DejaVuSans-30" x="95.410156"/>
       <use xlink:href="#DejaVuSans-30" x="159.033203"/>
       <use xlink:href="#DejaVuSans-31" x="222.65625"/>
       <use xlink:href="#DejaVuSans-30" x="286.279297"/>
      </g>
     </g>
    </g>
    <g id="ytick_4">
     <g id="line2d_19">
      <path d="M 59.686875 213.237339 
L 617.686875 213.237339 
" clip-path="url(#p7a97ffabcf)" style="fill: none; stroke-dasharray: 1.85,0.8; stroke-dashoffset: 0; stroke: #b2b2b2; stroke-width: 0.5"/>
     </g>
     <g id="line2d_20">
      <g>
       <use xlink:href="#m008a8483a0" x="59.686875" y="213.237339" style="stroke: #000000; stroke-width: 0.8"/>
      </g>
     </g>
     <g id="text_10">
      <!-- 0.0015 -->
      <g transform="translate(7.2 218.556245) scale(0.14 -0.14)">
       <use xlink:href="#DejaVuSans-30"/>
       <use xlink:href="#DejaVuSans-2e" x="63.623047"/>
       <use xlink:href="#DejaVuSans-30" x="95.410156"/>
       <use xlink:href="#DejaVuSans-30" x="159.033203"/>
       <use xlink:href="#DejaVuSans-31" x="222.65625"/>
       <use xlink:href="#DejaVuSans-35" x="286.279297"/>
      </g>
     </g>
    </g>
    <g id="ytick_5">
     <g id="line2d_21">
      <path d="M 59.686875 176.076452 
L 617.686875 176.076452 
" clip-path="url(#p7a97ffabcf)" style="fill: none; stroke-dasharray: 1.85,0.8; stroke-dashoffset: 0; stroke: #b2b2b2; stroke-width: 0.5"/>
     </g>
     <g id="line2d_22">
      <g>
       <use xlink:href="#m008a8483a0" x="59.686875" y="176.076452" style="stroke: #000000; stroke-width: 0.8"/>
      </g>
     </g>
     <g id="text_11">
      <!-- 0.0020 -->
      <g transform="translate(7.2 181.395358) scale(0.14 -0.14)">
       <use xlink:href="#DejaVuSans-30"/>
       <use xlink:href="#DejaVuSans-2e" x="63.623047"/>
       <use xlink:href="#DejaVuSans-30" x="95.410156"/>
       <use xlink:href="#DejaVuSans-30" x="159.033203"/>
       <use xlink:href="#DejaVuSans-32" x="222.65625"/>
       <use xlink:href="#DejaVuSans-30" x="286.279297"/>
      </g>
     </g>
    </g>
    <g id="ytick_6">
     <g id="line2d_23">
      <path d="M 59.686875 138.915565 
L 617.686875 138.915565 
" clip-path="url(#p7a97ffabcf)" style="fill: none; stroke-dasharray: 1.85,0.8; stroke-dashoffset: 0; stroke: #b2b2b2; stroke-width: 0.5"/>
     </g>
     <g id="line2d_24">
      <g>
       <use xlink:href="#m008a8483a0" x="59.686875" y="138.915565" style="stroke: #000000; stroke-width: 0.8"/>
      </g>
     </g>
     <g id="text_12">
      <!-- 0.0025 -->
      <g transform="translate(7.2 144.234471) scale(0.14 -0.14)">
       <use xlink:href="#DejaVuSans-30"/>
       <use xlink:href="#DejaVuSans-2e" x="63.623047"/>
       <use xlink:href="#DejaVuSans-30" x="95.410156"/>
       <use xlink:href="#DejaVuSans-30" x="159.033203"/>
       <use xlink:href="#DejaVuSans-32" x="222.65625"/>
       <use xlink:href="#DejaVuSans-35" x="286.279297"/>
      </g>
     </g>
    </g>
    <g id="ytick_7">
     <g id="line2d_25">
      <path d="M 59.686875 101.754677 
L 617.686875 101.754677 
" clip-path="url(#p7a97ffabcf)" style="fill: none; stroke-dasharray: 1.85,0.8; stroke-dashoffset: 0; stroke: #b2b2b2; stroke-width: 0.5"/>
     </g>
     <g id="line2d_26">
      <g>
       <use xlink:href="#m008a8483a0" x="59.686875" y="101.754677" style="stroke: #000000; stroke-width: 0.8"/>
      </g>
     </g>
     <g id="text_13">
      <!-- 0.0030 -->
      <g transform="translate(7.2 107.073584) scale(0.14 -0.14)">
       <defs>
        <path id="DejaVuSans-33" d="M 2597 2516 
Q 3050 2419 3304 2112 
Q 3559 1806 3559 1356 
Q 3559 666 3084 287 
Q 2609 -91 1734 -91 
Q 1441 -91 1130 -33 
Q 819 25 488 141 
L 488 750 
Q 750 597 1062 519 
Q 1375 441 1716 441 
Q 2309 441 2620 675 
Q 2931 909 2931 1356 
Q 2931 1769 2642 2001 
Q 2353 2234 1838 2234 
L 1294 2234 
L 1294 2753 
L 1863 2753 
Q 2328 2753 2575 2939 
Q 2822 3125 2822 3475 
Q 2822 3834 2567 4026 
Q 2313 4219 1838 4219 
Q 1578 4219 1281 4162 
Q 984 4106 628 3988 
L 628 4550 
Q 988 4650 1302 4700 
Q 1616 4750 1894 4750 
Q 2613 4750 3031 4423 
Q 3450 4097 3450 3541 
Q 3450 3153 3228 2886 
Q 3006 2619 2597 2516 
z
" transform="scale(0.015625)"/>
       </defs>
       <use xlink:href="#DejaVuSans-30"/>
       <use xlink:href="#DejaVuSans-2e" x="63.623047"/>
       <use xlink:href="#DejaVuSans-30" x="95.410156"/>
       <use xlink:href="#DejaVuSans-30" x="159.033203"/>
       <use xlink:href="#DejaVuSans-33" x="222.65625"/>
       <use xlink:href="#DejaVuSans-30" x="286.279297"/>
      </g>
     </g>
    </g>
    <g id="ytick_8">
     <g id="line2d_27">
      <path d="M 59.686875 64.59379 
L 617.686875 64.59379 
" clip-path="url(#p7a97ffabcf)" style="fill: none; stroke-dasharray: 1.85,0.8; stroke-dashoffset: 0; stroke: #b2b2b2; stroke-width: 0.5"/>
     </g>
     <g id="line2d_28">
      <g>
       <use xlink:href="#m008a8483a0" x="59.686875" y="64.59379" style="stroke: #000000; stroke-width: 0.8"/>
      </g>
     </g>
     <g id="text_14">
      <!-- 0.0035 -->
      <g transform="translate(7.2 69.912697) scale(0.14 -0.14)">
       <use xlink:href="#DejaVuSans-30"/>
       <use xlink:href="#DejaVuSans-2e" x="63.623047"/>
       <use xlink:href="#DejaVuSans-30" x="95.410156"/>
       <use xlink:href="#DejaVuSans-30" x="159.033203"/>
       <use xlink:href="#DejaVuSans-33" x="222.65625"/>
       <use xlink:href="#DejaVuSans-35" x="286.279297"/>
      </g>
     </g>
    </g>
    <g id="ytick_9">
     <g id="line2d_29">
      <path d="M 59.686875 27.432903 
L 617.686875 27.432903 
" clip-path="url(#p7a97ffabcf)" style="fill: none; stroke-dasharray: 1.85,0.8; stroke-dashoffset: 0; stroke: #b2b2b2; stroke-width: 0.5"/>
     </g>
     <g id="line2d_30">
      <g>
       <use xlink:href="#m008a8483a0" x="59.686875" y="27.432903" style="stroke: #000000; stroke-width: 0.8"/>
      </g>
     </g>
     <g id="text_15">
      <!-- 0.0040 -->
      <g transform="translate(7.2 32.751809) scale(0.14 -0.14)">
       <use xlink:href="#DejaVuSans-30"/>
       <use xlink:href="#DejaVuSans-2e" x="63.623047"/>
       <use xlink:href="#DejaVuSans-30" x="95.410156"/>
       <use xlink:href="#DejaVuSans-30" x="159.033203"/>
       <use xlink:href="#DejaVuSans-34" x="222.65625"/>
       <use xlink:href="#DejaVuSans-30" x="286.279297"/>
      </g>
     </g>
    </g>
   </g>
   <g id="line2d_31">
    <path d="M 85.050511 324.541434 
L 116.817101 324.644198 
L 122.773336 324.365626 
L 127.736866 323.899799 
L 137.663925 322.849552 
L 139.649337 322.291836 
L 142.627455 321.140032 
L 145.605573 320.003568 
L 149.576396 318.561845 
L 152.554514 317.238293 
L 155.532632 315.654368 
L 157.518044 314.337029 
L 160.496162 312.297029 
L 161.488868 311.782778 
L 163.474279 311.133722 
L 166.452397 310.510846 
L 167.445103 310.143629 
L 168.437809 309.618722 
L 169.430515 308.952191 
L 170.423221 308.139567 
L 171.415927 307.178107 
L 172.408633 306.044308 
L 173.401339 304.693837 
L 174.394045 303.019659 
L 175.38675 300.900014 
L 176.379456 298.133377 
L 177.372162 294.559501 
L 178.364868 290.123078 
L 182.335692 269.751797 
L 183.328398 266.863111 
L 184.321104 265.745375 
L 185.31381 266.277617 
L 186.306516 267.960236 
L 187.299222 270.106654 
L 188.291927 271.965436 
L 189.284633 273.002638 
L 190.277339 272.877056 
L 191.270045 271.57711 
L 192.262751 269.236882 
L 193.255457 266.128097 
L 195.240869 258.351695 
L 197.226281 249.071073 
L 198.218987 243.70142 
L 200.204399 231.020236 
L 203.182516 209.288657 
L 204.175222 203.112358 
L 205.167928 198.379259 
L 206.160634 195.457325 
L 207.15334 194.350759 
L 208.146046 194.843943 
L 209.138752 196.457034 
L 211.124164 200.708843 
L 212.11687 202.33005 
L 213.109576 203.122432 
L 214.102282 203.043591 
L 215.094987 202.152593 
L 216.087693 200.722459 
L 218.073105 197.400618 
L 219.065811 196.089725 
L 220.058517 195.203628 
L 221.051223 194.754758 
L 222.043929 194.622932 
L 224.029341 194.67961 
L 225.022047 194.52922 
L 226.014753 194.171131 
L 227.007459 193.591319 
L 228.99287 191.860631 
L 232.963694 187.721213 
L 233.9564 187.003587 
L 234.949106 186.686477 
L 235.941812 186.848522 
L 236.934518 187.55582 
L 237.927224 188.760736 
L 239.912636 192.074735 
L 240.905341 193.731199 
L 241.898047 195.134482 
L 242.890753 196.160091 
L 243.883459 196.813762 
L 244.876165 197.072271 
L 245.868871 196.935486 
L 246.861577 196.464 
L 247.854283 195.592926 
L 248.846989 193.925488 
L 249.839695 191.118558 
L 250.832401 186.810238 
L 251.825107 180.9578 
L 254.803224 159.616564 
L 255.79593 154.774963 
L 256.788636 152.678743 
L 257.781342 153.575572 
L 258.774048 157.005745 
L 261.752166 172.462568 
L 262.744872 176.178285 
L 263.737578 178.468937 
L 264.730284 179.383588 
L 265.72299 179.164559 
L 266.715695 178.130121 
L 267.708401 176.463108 
L 268.701107 174.208707 
L 269.693813 171.427896 
L 271.679225 164.947073 
L 273.664637 158.471145 
L 274.657343 155.835303 
L 275.650049 153.864479 
L 276.642755 152.59231 
L 277.635461 151.999248 
L 278.628167 151.87679 
L 280.613578 152.086303 
L 281.606284 151.896028 
L 282.59899 151.219817 
L 283.591696 149.874508 
L 284.584402 147.780888 
L 285.577108 144.862099 
L 286.569814 141.262227 
L 288.555226 132.461738 
L 292.52605 112.460199 
L 295.504167 97.826123 
L 297.489579 89.422921 
L 298.482285 86.029745 
L 299.474991 83.300258 
L 300.467697 81.313134 
L 301.460403 80.057704 
L 302.453109 79.550003 
L 303.445815 79.65445 
L 304.438521 80.304213 
L 307.416638 83.000929 
L 308.409344 83.108926 
L 309.40205 82.238746 
L 310.394756 80.291015 
L 311.387462 77.193257 
L 312.380168 73.02926 
L 313.372874 67.880177 
L 315.358286 55.557023 
L 318.336404 35.088186 
L 319.329109 29.133062 
L 320.321815 24.628482 
L 321.314521 22.32 
L 322.307227 22.872665 
L 323.299933 26.735126 
L 324.292639 33.943635 
L 325.285345 44.17839 
L 327.270757 70.202486 
L 329.256169 96.780285 
L 330.248875 108.220752 
L 331.241581 117.989205 
L 332.234286 125.96783 
L 333.226992 132.375124 
L 334.219698 137.39783 
L 335.212404 141.259832 
L 336.20511 143.982305 
L 337.197816 145.524204 
L 338.190522 145.957389 
L 339.183228 145.293103 
L 340.175934 143.515346 
L 341.16864 140.646367 
L 342.161346 136.766572 
L 344.146758 127.711524 
L 345.139464 123.91253 
L 346.132169 121.906131 
L 347.124875 122.63807 
L 348.117581 126.771903 
L 349.110287 134.314574 
L 350.102993 144.633673 
L 353.081111 179.774989 
L 354.073817 188.550039 
L 355.066523 194.619001 
L 356.059229 197.967047 
L 357.051935 198.966239 
L 358.044641 198.305583 
L 360.030052 195.404913 
L 361.022758 194.851635 
L 362.015464 195.911674 
L 363.00817 199.006587 
L 364.000876 204.185524 
L 364.993582 211.067288 
L 368.964406 242.198413 
L 369.957112 247.915436 
L 370.949818 252.417973 
L 371.942523 255.838502 
L 372.935229 258.353669 
L 373.927935 260.267196 
L 374.920641 261.723897 
L 375.913347 262.809938 
L 377.898759 264.349028 
L 380.876877 266.168131 
L 381.869583 266.661192 
L 382.862289 267.01981 
L 383.854995 267.157401 
L 384.8477 267.021258 
L 385.840406 266.634237 
L 386.833112 266.012924 
L 388.818524 264.520303 
L 389.81123 263.923788 
L 390.803936 263.588718 
L 391.796642 263.653674 
L 392.789348 264.19077 
L 393.782054 265.262787 
L 394.77476 266.892526 
L 395.767466 269.013029 
L 397.752877 274.352953 
L 400.730995 282.977313 
L 402.716407 287.921417 
L 404.701819 291.905483 
L 405.694525 293.548759 
L 407.679937 296.229689 
L 410.658055 299.510116 
L 415.621584 304.785065 
L 417.606996 306.364251 
L 419.592408 307.607391 
L 421.57782 308.64393 
L 423.563232 309.492428 
L 427.534055 310.912762 
L 429.519467 311.968314 
L 434.482997 315.256106 
L 435.475703 315.672824 
L 437.461114 316.149319 
L 441.431938 316.785698 
L 443.41735 317.423554 
L 447.388174 318.935375 
L 449.373586 319.309973 
L 451.358997 319.384731 
L 455.329821 319.406492 
L 458.307939 319.73413 
L 466.249586 320.926792 
L 471.213116 321.348064 
L 477.169351 322.215453 
L 482.132881 322.705993 
L 486.103705 323.23534 
L 488.089117 323.273805 
L 491.067234 322.995591 
L 493.052646 322.820364 
L 495.038058 322.813141 
L 505.957823 323.465381 
L 511.914059 324.198534 
L 515.884882 324.397958 
L 519.855706 324.394788 
L 522.833824 324.203162 
L 527.797354 323.787452 
L 530.775471 323.849351 
L 543.680648 324.650284 
L 547.651472 324.600629 
L 554.600414 324.363812 
L 575.447238 324.553072 
L 581.403473 324.556208 
L 590.337827 324.579409 
L 592.323239 324.544296 
L 592.323239 324.544296 
" clip-path="url(#p7a97ffabcf)" style="fill: none; stroke: #348abd; stroke-width: 2; stroke-linecap: square"/>
   </g>
   <g id="patch_3">
    <path d="M 59.686875 339.84 
L 59.686875 7.2 
" style="fill: none; stroke: #bcbcbc; stroke-width: 0.8; stroke-linejoin: miter; stroke-linecap: square"/>
   </g>
   <g id="patch_4">
    <path d="M 617.686875 339.84 
L 617.686875 7.2 
" style="fill: none; stroke: #bcbcbc; stroke-width: 0.8; stroke-linejoin: miter; stroke-linecap: square"/>
   </g>
   <g id="patch_5">
    <path d="M 59.686875 339.84 
L 617.686875 339.84 
" style="fill: none; stroke: #bcbcbc; stroke-width: 0.8; stroke-linejoin: miter; stroke-linecap: square"/>
   </g>
   <g id="patch_6">
    <path d="M 59.686875 7.2 
L 617.686875 7.2 
" style="fill: none; stroke: #bcbcbc; stroke-width: 0.8; stroke-linejoin: miter; stroke-linecap: square"/>
   </g>
  </g>
 </g>
 <defs>
  <clipPath id="p7a97ffabcf">
   <rect x="59.686875" y="7.2" width="558" height="332.64"/>
  </clipPath>
 </defs>
</svg>