<?xml version="1.0" encoding="utf-8" standalone="no"?>
<!DOCTYPE svg PUBLIC "-//W3C//DTD SVG 1.1//EN"
  "http://www.w3.org/Graphics/SVG/1.1/DTD/svg11.dtd">
<svg xmlns:xlink="http://www.w3.org/1999/xlink" width="621.650156pt" height="396.450469pt" viewBox="0 0 621.650156 396.450469" xmlns="http://www.w3.org/2000/svg" version="1.1">
 <metadata>
  <rdf:RDF xmlns:dc="http://purl.org/dc/elements/1.1/" xmlns:cc="http://creativecommons.org/ns#" xmlns:rdf="http://www.w3.org/1999/02/22-rdf-syntax-ns#">
   <cc:Work>
    <dc:type rdf:resource="http://purl.org/dc/dcmitype/StillImage"/>
    <dc:date>2023-05-17T06:29:06.292370</dc:date>
    <dc:format>image/svg+xml</dc:format>
    <dc:creator>
     <cc:Agent>
      <dc:title>Matplotlib v3.7.1, https://matplotlib.org/</dc:title>
     </cc:Agent>
    </dc:creator>
   </cc:Work>
  </rdf:RDF>
 </metadata>
 <defs>
  <style type="text/css">*{stroke-linejoin: round; stroke-linecap: butt}</style>
 </defs>
 <g id="figure_1">
  <g id="patch_1">
   <path d="M 0 396.450469 
L 621.650156 396.450469 
L 621.650156 0 
L 0 0 
z
" style="fill: #ffffff"/>
  </g>
  <g id="axes_1">
   <g id="patch_2">
    <path d="M 56.450156 354.429375 
L 614.450156 354.429375 
L 614.450156 21.789375 
L 56.450156 21.789375 
z
" style="fill: #eaeaf2"/>
   </g>
   <g id="matplotlib.axis_1">
    <g id="xtick_1">
     <g id="line2d_1">
      <path d="M 81.813793 354.429375 
L 81.813793 21.789375 
" clip-path="url(#p43d6c608af)" style="fill: none; stroke: #ffffff; stroke-linecap: round"/>
     </g>
     <g id="text_1">
      <!-- 0.0 -->
      <g style="fill: #262626" transform="translate(74.168793 371.802969) scale(0.11 -0.11)">
       <defs>
        <path id="ArialMT-30" d="M 266 2259 
Q 266 3072 433 3567 
Q 600 4063 929 4331 
Q 1259 4600 1759 4600 
Q 2128 4600 2406 4451 
Q 2684 4303 2865 4023 
Q 3047 3744 3150 3342 
Q 3253 2941 3253 2259 
Q 3253 1453 3087 958 
Q 2922 463 2592 192 
Q 2263 -78 1759 -78 
Q 1097 -78 719 397 
Q 266 969 266 2259 
z
M 844 2259 
Q 844 1131 1108 757 
Q 1372 384 1759 384 
Q 2147 384 2411 759 
Q 2675 1134 2675 2259 
Q 2675 3391 2411 3762 
Q 2147 4134 1753 4134 
Q 1366 4134 1134 3806 
Q 844 3388 844 2259 
z
" transform="scale(0.015625)"/>
        <path id="ArialMT-2e" d="M 581 0 
L 581 641 
L 1222 641 
L 1222 0 
L 581 0 
z
" transform="scale(0.015625)"/>
       </defs>
       <use xlink:href="#ArialMT-30"/>
       <use xlink:href="#ArialMT-2e" x="55.615234"/>
       <use xlink:href="#ArialMT-30" x="83.398438"/>
      </g>
     </g>
    </g>
    <g id="xtick_2">
     <g id="line2d_2">
      <path d="M 183.268338 354.429375 
L 183.268338 21.789375 
" clip-path="url(#p43d6c608af)" style="fill: none; stroke: #ffffff; stroke-linecap: round"/>
     </g>
     <g id="text_2">
      <!-- 0.2 -->
      <g style="fill: #262626" transform="translate(175.623338 371.802969) scale(0.11 -0.11)">
       <defs>
        <path id="ArialMT-32" d="M 3222 541 
L 3222 0 
L 194 0 
Q 188 203 259 391 
Q 375 700 629 1000 
Q 884 1300 1366 1694 
Q 2113 2306 2375 2664 
Q 2638 3022 2638 3341 
Q 2638 3675 2398 3904 
Q 2159 4134 1775 4134 
Q 1369 4134 1125 3890 
Q 881 3647 878 3216 
L 300 3275 
Q 359 3922 746 4261 
Q 1134 4600 1788 4600 
Q 2447 4600 2831 4234 
Q 3216 3869 3216 3328 
Q 3216 3053 3103 2787 
Q 2991 2522 2730 2228 
Q 2469 1934 1863 1422 
Q 1356 997 1212 845 
Q 1069 694 975 541 
L 3222 541 
z
" transform="scale(0.015625)"/>
       </defs>
       <use xlink:href="#ArialMT-30"/>
       <use xlink:href="#ArialMT-2e" x="55.615234"/>
       <use xlink:href="#ArialMT-32" x="83.398438"/>
      </g>
     </g>
    </g>
    <g id="xtick_3">
     <g id="line2d_3">
      <path d="M 284.722884 354.429375 
L 284.722884 21.789375 
" clip-path="url(#p43d6c608af)" style="fill: none; stroke: #ffffff; stroke-linecap: round"/>
     </g>
     <g id="text_3">
      <!-- 0.4 -->
      <g style="fill: #262626" transform="translate(277.077884 371.802969) scale(0.11 -0.11)">
       <defs>
        <path id="ArialMT-34" d="M 2069 0 
L 2069 1097 
L 81 1097 
L 81 1613 
L 2172 4581 
L 2631 4581 
L 2631 1613 
L 3250 1613 
L 3250 1097 
L 2631 1097 
L 2631 0 
L 2069 0 
z
M 2069 1613 
L 2069 3678 
L 634 1613 
L 2069 1613 
z
" transform="scale(0.015625)"/>
       </defs>
       <use xlink:href="#ArialMT-30"/>
       <use xlink:href="#ArialMT-2e" x="55.615234"/>
       <use xlink:href="#ArialMT-34" x="83.398438"/>
      </g>
     </g>
    </g>
    <g id="xtick_4">
     <g id="line2d_4">
      <path d="M 386.177429 354.429375 
L 386.177429 21.789375 
" clip-path="url(#p43d6c608af)" style="fill: none; stroke: #ffffff; stroke-linecap: round"/>
     </g>
     <g id="text_4">
      <!-- 0.6 -->
      <g style="fill: #262626" transform="translate(378.532429 371.802969) scale(0.11 -0.11)">
       <defs>
        <path id="ArialMT-36" d="M 3184 3459 
L 2625 3416 
Q 2550 3747 2413 3897 
Q 2184 4138 1850 4138 
Q 1581 4138 1378 3988 
Q 1113 3794 959 3422 
Q 806 3050 800 2363 
Q 1003 2672 1297 2822 
Q 1591 2972 1913 2972 
Q 2475 2972 2870 2558 
Q 3266 2144 3266 1488 
Q 3266 1056 3080 686 
Q 2894 316 2569 119 
Q 2244 -78 1831 -78 
Q 1128 -78 684 439 
Q 241 956 241 2144 
Q 241 3472 731 4075 
Q 1159 4600 1884 4600 
Q 2425 4600 2770 4297 
Q 3116 3994 3184 3459 
z
M 888 1484 
Q 888 1194 1011 928 
Q 1134 663 1356 523 
Q 1578 384 1822 384 
Q 2178 384 2434 671 
Q 2691 959 2691 1453 
Q 2691 1928 2437 2201 
Q 2184 2475 1800 2475 
Q 1419 2475 1153 2201 
Q 888 1928 888 1484 
z
" transform="scale(0.015625)"/>
       </defs>
       <use xlink:href="#ArialMT-30"/>
       <use xlink:href="#ArialMT-2e" x="55.615234"/>
       <use xlink:href="#ArialMT-36" x="83.398438"/>
      </g>
     </g>
    </g>
    <g id="xtick_5">
     <g id="line2d_5">
      <path d="M 487.631974 354.429375 
L 487.631974 21.789375 
" clip-path="url(#p43d6c608af)" style="fill: none; stroke: #ffffff; stroke-linecap: round"/>
     </g>
     <g id="text_5">
      <!-- 0.8 -->
      <g style="fill: #262626" transform="translate(479.986974 371.802969) scale(0.11 -0.11)">
       <defs>
        <path id="ArialMT-38" d="M 1131 2484 
Q 781 2613 612 2850 
Q 444 3088 444 3419 
Q 444 3919 803 4259 
Q 1163 4600 1759 4600 
Q 2359 4600 2725 4251 
Q 3091 3903 3091 3403 
Q 3091 3084 2923 2848 
Q 2756 2613 2416 2484 
Q 2838 2347 3058 2040 
Q 3278 1734 3278 1309 
Q 3278 722 2862 322 
Q 2447 -78 1769 -78 
Q 1091 -78 675 323 
Q 259 725 259 1325 
Q 259 1772 486 2073 
Q 713 2375 1131 2484 
z
M 1019 3438 
Q 1019 3113 1228 2906 
Q 1438 2700 1772 2700 
Q 2097 2700 2305 2904 
Q 2513 3109 2513 3406 
Q 2513 3716 2298 3927 
Q 2084 4138 1766 4138 
Q 1444 4138 1231 3931 
Q 1019 3725 1019 3438 
z
M 838 1322 
Q 838 1081 952 856 
Q 1066 631 1291 507 
Q 1516 384 1775 384 
Q 2178 384 2440 643 
Q 2703 903 2703 1303 
Q 2703 1709 2433 1975 
Q 2163 2241 1756 2241 
Q 1359 2241 1098 1978 
Q 838 1716 838 1322 
z
" transform="scale(0.015625)"/>
       </defs>
       <use xlink:href="#ArialMT-30"/>
       <use xlink:href="#ArialMT-2e" x="55.615234"/>
       <use xlink:href="#ArialMT-38" x="83.398438"/>
      </g>
     </g>
    </g>
    <g id="xtick_6">
     <g id="line2d_6">
      <path d="M 589.08652 354.429375 
L 589.08652 21.789375 
" clip-path="url(#p43d6c608af)" style="fill: none; stroke: #ffffff; stroke-linecap: round"/>
     </g>
     <g id="text_6">
      <!-- 1.0 -->
      <g style="fill: #262626" transform="translate(581.44152 371.802969) scale(0.11 -0.11)">
       <defs>
        <path id="ArialMT-31" d="M 2384 0 
L 1822 0 
L 1822 3584 
Q 1619 3391 1289 3197 
Q 959 3003 697 2906 
L 697 3450 
Q 1169 3672 1522 3987 
Q 1875 4303 2022 4600 
L 2384 4600 
L 2384 0 
z
" transform="scale(0.015625)"/>
       </defs>
       <use xlink:href="#ArialMT-31"/>
       <use xlink:href="#ArialMT-2e" x="55.615234"/>
       <use xlink:href="#ArialMT-30" x="83.398438"/>
      </g>
     </g>
    </g>
    <g id="text_7">
     <!-- Gruppo (codificato con 0 e 1) -->
     <g style="fill: #262626" transform="translate(258.080156 386.724844) scale(0.12 -0.12)">
      <defs>
       <path id="ArialMT-47" d="M 2638 1797 
L 2638 2334 
L 4578 2338 
L 4578 638 
Q 4131 281 3656 101 
Q 3181 -78 2681 -78 
Q 2006 -78 1454 211 
Q 903 500 622 1047 
Q 341 1594 341 2269 
Q 341 2938 620 3517 
Q 900 4097 1425 4378 
Q 1950 4659 2634 4659 
Q 3131 4659 3532 4498 
Q 3934 4338 4162 4050 
Q 4391 3763 4509 3300 
L 3963 3150 
Q 3859 3500 3706 3700 
Q 3553 3900 3268 4020 
Q 2984 4141 2638 4141 
Q 2222 4141 1919 4014 
Q 1616 3888 1430 3681 
Q 1244 3475 1141 3228 
Q 966 2803 966 2306 
Q 966 1694 1177 1281 
Q 1388 869 1791 669 
Q 2194 469 2647 469 
Q 3041 469 3416 620 
Q 3791 772 3984 944 
L 3984 1797 
L 2638 1797 
z
" transform="scale(0.015625)"/>
       <path id="ArialMT-72" d="M 416 0 
L 416 3319 
L 922 3319 
L 922 2816 
Q 1116 3169 1280 3281 
Q 1444 3394 1641 3394 
Q 1925 3394 2219 3213 
L 2025 2691 
Q 1819 2813 1613 2813 
Q 1428 2813 1281 2702 
Q 1134 2591 1072 2394 
Q 978 2094 978 1738 
L 978 0 
L 416 0 
z
" transform="scale(0.015625)"/>
       <path id="ArialMT-75" d="M 2597 0 
L 2597 488 
Q 2209 -75 1544 -75 
Q 1250 -75 995 37 
Q 741 150 617 320 
Q 494 491 444 738 
Q 409 903 409 1263 
L 409 3319 
L 972 3319 
L 972 1478 
Q 972 1038 1006 884 
Q 1059 663 1231 536 
Q 1403 409 1656 409 
Q 1909 409 2131 539 
Q 2353 669 2445 892 
Q 2538 1116 2538 1541 
L 2538 3319 
L 3100 3319 
L 3100 0 
L 2597 0 
z
" transform="scale(0.015625)"/>
       <path id="ArialMT-70" d="M 422 -1272 
L 422 3319 
L 934 3319 
L 934 2888 
Q 1116 3141 1344 3267 
Q 1572 3394 1897 3394 
Q 2322 3394 2647 3175 
Q 2972 2956 3137 2557 
Q 3303 2159 3303 1684 
Q 3303 1175 3120 767 
Q 2938 359 2589 142 
Q 2241 -75 1856 -75 
Q 1575 -75 1351 44 
Q 1128 163 984 344 
L 984 -1272 
L 422 -1272 
z
M 931 1641 
Q 931 1000 1190 694 
Q 1450 388 1819 388 
Q 2194 388 2461 705 
Q 2728 1022 2728 1688 
Q 2728 2322 2467 2637 
Q 2206 2953 1844 2953 
Q 1484 2953 1207 2617 
Q 931 2281 931 1641 
z
" transform="scale(0.015625)"/>
       <path id="ArialMT-6f" d="M 213 1659 
Q 213 2581 725 3025 
Q 1153 3394 1769 3394 
Q 2453 3394 2887 2945 
Q 3322 2497 3322 1706 
Q 3322 1066 3130 698 
Q 2938 331 2570 128 
Q 2203 -75 1769 -75 
Q 1072 -75 642 372 
Q 213 819 213 1659 
z
M 791 1659 
Q 791 1022 1069 705 
Q 1347 388 1769 388 
Q 2188 388 2466 706 
Q 2744 1025 2744 1678 
Q 2744 2294 2464 2611 
Q 2184 2928 1769 2928 
Q 1347 2928 1069 2612 
Q 791 2297 791 1659 
z
" transform="scale(0.015625)"/>
       <path id="ArialMT-20" transform="scale(0.015625)"/>
       <path id="ArialMT-28" d="M 1497 -1347 
Q 1031 -759 709 28 
Q 388 816 388 1659 
Q 388 2403 628 3084 
Q 909 3875 1497 4659 
L 1900 4659 
Q 1522 4009 1400 3731 
Q 1209 3300 1100 2831 
Q 966 2247 966 1656 
Q 966 153 1900 -1347 
L 1497 -1347 
z
" transform="scale(0.015625)"/>
       <path id="ArialMT-63" d="M 2588 1216 
L 3141 1144 
Q 3050 572 2676 248 
Q 2303 -75 1759 -75 
Q 1078 -75 664 370 
Q 250 816 250 1647 
Q 250 2184 428 2587 
Q 606 2991 970 3192 
Q 1334 3394 1763 3394 
Q 2303 3394 2647 3120 
Q 2991 2847 3088 2344 
L 2541 2259 
Q 2463 2594 2264 2762 
Q 2066 2931 1784 2931 
Q 1359 2931 1093 2626 
Q 828 2322 828 1663 
Q 828 994 1084 691 
Q 1341 388 1753 388 
Q 2084 388 2306 591 
Q 2528 794 2588 1216 
z
" transform="scale(0.015625)"/>
       <path id="ArialMT-64" d="M 2575 0 
L 2575 419 
Q 2259 -75 1647 -75 
Q 1250 -75 917 144 
Q 584 363 401 755 
Q 219 1147 219 1656 
Q 219 2153 384 2558 
Q 550 2963 881 3178 
Q 1213 3394 1622 3394 
Q 1922 3394 2156 3267 
Q 2391 3141 2538 2938 
L 2538 4581 
L 3097 4581 
L 3097 0 
L 2575 0 
z
M 797 1656 
Q 797 1019 1065 703 
Q 1334 388 1700 388 
Q 2069 388 2326 689 
Q 2584 991 2584 1609 
Q 2584 2291 2321 2609 
Q 2059 2928 1675 2928 
Q 1300 2928 1048 2622 
Q 797 2316 797 1656 
z
" transform="scale(0.015625)"/>
       <path id="ArialMT-69" d="M 425 3934 
L 425 4581 
L 988 4581 
L 988 3934 
L 425 3934 
z
M 425 0 
L 425 3319 
L 988 3319 
L 988 0 
L 425 0 
z
" transform="scale(0.015625)"/>
       <path id="ArialMT-66" d="M 556 0 
L 556 2881 
L 59 2881 
L 59 3319 
L 556 3319 
L 556 3672 
Q 556 4006 616 4169 
Q 697 4388 901 4523 
Q 1106 4659 1475 4659 
Q 1713 4659 2000 4603 
L 1916 4113 
Q 1741 4144 1584 4144 
Q 1328 4144 1222 4034 
Q 1116 3925 1116 3625 
L 1116 3319 
L 1763 3319 
L 1763 2881 
L 1116 2881 
L 1116 0 
L 556 0 
z
" transform="scale(0.015625)"/>
       <path id="ArialMT-61" d="M 2588 409 
Q 2275 144 1986 34 
Q 1697 -75 1366 -75 
Q 819 -75 525 192 
Q 231 459 231 875 
Q 231 1119 342 1320 
Q 453 1522 633 1644 
Q 813 1766 1038 1828 
Q 1203 1872 1538 1913 
Q 2219 1994 2541 2106 
Q 2544 2222 2544 2253 
Q 2544 2597 2384 2738 
Q 2169 2928 1744 2928 
Q 1347 2928 1158 2789 
Q 969 2650 878 2297 
L 328 2372 
Q 403 2725 575 2942 
Q 747 3159 1072 3276 
Q 1397 3394 1825 3394 
Q 2250 3394 2515 3294 
Q 2781 3194 2906 3042 
Q 3031 2891 3081 2659 
Q 3109 2516 3109 2141 
L 3109 1391 
Q 3109 606 3145 398 
Q 3181 191 3288 0 
L 2700 0 
Q 2613 175 2588 409 
z
M 2541 1666 
Q 2234 1541 1622 1453 
Q 1275 1403 1131 1340 
Q 988 1278 909 1158 
Q 831 1038 831 891 
Q 831 666 1001 516 
Q 1172 366 1500 366 
Q 1825 366 2078 508 
Q 2331 650 2450 897 
Q 2541 1088 2541 1459 
L 2541 1666 
z
" transform="scale(0.015625)"/>
       <path id="ArialMT-74" d="M 1650 503 
L 1731 6 
Q 1494 -44 1306 -44 
Q 1000 -44 831 53 
Q 663 150 594 308 
Q 525 466 525 972 
L 525 2881 
L 113 2881 
L 113 3319 
L 525 3319 
L 525 4141 
L 1084 4478 
L 1084 3319 
L 1650 3319 
L 1650 2881 
L 1084 2881 
L 1084 941 
Q 1084 700 1114 631 
Q 1144 563 1211 522 
Q 1278 481 1403 481 
Q 1497 481 1650 503 
z
" transform="scale(0.015625)"/>
       <path id="ArialMT-6e" d="M 422 0 
L 422 3319 
L 928 3319 
L 928 2847 
Q 1294 3394 1984 3394 
Q 2284 3394 2536 3286 
Q 2788 3178 2913 3003 
Q 3038 2828 3088 2588 
Q 3119 2431 3119 2041 
L 3119 0 
L 2556 0 
L 2556 2019 
Q 2556 2363 2490 2533 
Q 2425 2703 2258 2804 
Q 2091 2906 1866 2906 
Q 1506 2906 1245 2678 
Q 984 2450 984 1813 
L 984 0 
L 422 0 
z
" transform="scale(0.015625)"/>
       <path id="ArialMT-65" d="M 2694 1069 
L 3275 997 
Q 3138 488 2766 206 
Q 2394 -75 1816 -75 
Q 1088 -75 661 373 
Q 234 822 234 1631 
Q 234 2469 665 2931 
Q 1097 3394 1784 3394 
Q 2450 3394 2872 2941 
Q 3294 2488 3294 1666 
Q 3294 1616 3291 1516 
L 816 1516 
Q 847 969 1125 678 
Q 1403 388 1819 388 
Q 2128 388 2347 550 
Q 2566 713 2694 1069 
z
M 847 1978 
L 2700 1978 
Q 2663 2397 2488 2606 
Q 2219 2931 1791 2931 
Q 1403 2931 1139 2672 
Q 875 2413 847 1978 
z
" transform="scale(0.015625)"/>
       <path id="ArialMT-29" d="M 791 -1347 
L 388 -1347 
Q 1322 153 1322 1656 
Q 1322 2244 1188 2822 
Q 1081 3291 891 3722 
Q 769 4003 388 4659 
L 791 4659 
Q 1378 3875 1659 3084 
Q 1900 2403 1900 1659 
Q 1900 816 1576 28 
Q 1253 -759 791 -1347 
z
" transform="scale(0.015625)"/>
      </defs>
      <use xlink:href="#ArialMT-47"/>
      <use xlink:href="#ArialMT-72" x="77.783203"/>
      <use xlink:href="#ArialMT-75" x="111.083984"/>
      <use xlink:href="#ArialMT-70" x="166.699219"/>
      <use xlink:href="#ArialMT-70" x="222.314453"/>
      <use xlink:href="#ArialMT-6f" x="277.929688"/>
      <use xlink:href="#ArialMT-20" x="333.544922"/>
      <use xlink:href="#ArialMT-28" x="361.328125"/>
      <use xlink:href="#ArialMT-63" x="394.628906"/>
      <use xlink:href="#ArialMT-6f" x="444.628906"/>
      <use xlink:href="#ArialMT-64" x="500.244141"/>
      <use xlink:href="#ArialMT-69" x="555.859375"/>
      <use xlink:href="#ArialMT-66" x="578.076172"/>
      <use xlink:href="#ArialMT-69" x="605.859375"/>
      <use xlink:href="#ArialMT-63" x="628.076172"/>
      <use xlink:href="#ArialMT-61" x="678.076172"/>
      <use xlink:href="#ArialMT-74" x="733.691406"/>
      <use xlink:href="#ArialMT-6f" x="761.474609"/>
      <use xlink:href="#ArialMT-20" x="817.089844"/>
      <use xlink:href="#ArialMT-63" x="844.873047"/>
      <use xlink:href="#ArialMT-6f" x="894.873047"/>
      <use xlink:href="#ArialMT-6e" x="950.488281"/>
      <use xlink:href="#ArialMT-20" x="1006.103516"/>
      <use xlink:href="#ArialMT-30" x="1033.886719"/>
      <use xlink:href="#ArialMT-20" x="1089.501953"/>
      <use xlink:href="#ArialMT-65" x="1117.285156"/>
      <use xlink:href="#ArialMT-20" x="1172.900391"/>
      <use xlink:href="#ArialMT-31" x="1200.683594"/>
      <use xlink:href="#ArialMT-29" x="1256.298828"/>
     </g>
    </g>
   </g>
   <g id="matplotlib.axis_2">
    <g id="ytick_1">
     <g id="line2d_7">
      <path d="M 56.450156 350.611993 
L 614.450156 350.611993 
" clip-path="url(#p43d6c608af)" style="fill: none; stroke: #ffffff; stroke-linecap: round"/>
     </g>
     <g id="text_8">
      <!-- −300 -->
      <g style="fill: #262626" transform="translate(22.174375 354.54879) scale(0.11 -0.11)">
       <defs>
        <path id="ArialMT-2212" d="M 3381 1997 
L 356 1997 
L 356 2522 
L 3381 2522 
L 3381 1997 
z
" transform="scale(0.015625)"/>
        <path id="ArialMT-33" d="M 269 1209 
L 831 1284 
Q 928 806 1161 595 
Q 1394 384 1728 384 
Q 2125 384 2398 659 
Q 2672 934 2672 1341 
Q 2672 1728 2419 1979 
Q 2166 2231 1775 2231 
Q 1616 2231 1378 2169 
L 1441 2663 
Q 1497 2656 1531 2656 
Q 1891 2656 2178 2843 
Q 2466 3031 2466 3422 
Q 2466 3731 2256 3934 
Q 2047 4138 1716 4138 
Q 1388 4138 1169 3931 
Q 950 3725 888 3313 
L 325 3413 
Q 428 3978 793 4289 
Q 1159 4600 1703 4600 
Q 2078 4600 2393 4439 
Q 2709 4278 2876 4000 
Q 3044 3722 3044 3409 
Q 3044 3113 2884 2869 
Q 2725 2625 2413 2481 
Q 2819 2388 3044 2092 
Q 3269 1797 3269 1353 
Q 3269 753 2831 336 
Q 2394 -81 1725 -81 
Q 1122 -81 723 278 
Q 325 638 269 1209 
z
" transform="scale(0.015625)"/>
       </defs>
       <use xlink:href="#ArialMT-2212"/>
       <use xlink:href="#ArialMT-33" x="58.398438"/>
       <use xlink:href="#ArialMT-30" x="114.013672"/>
       <use xlink:href="#ArialMT-30" x="169.628906"/>
      </g>
     </g>
    </g>
    <g id="ytick_2">
     <g id="line2d_8">
      <path d="M 56.450156 290.17212 
L 614.450156 290.17212 
" clip-path="url(#p43d6c608af)" style="fill: none; stroke: #ffffff; stroke-linecap: round"/>
     </g>
     <g id="text_9">
      <!-- −200 -->
      <g style="fill: #262626" transform="translate(22.174375 294.108917) scale(0.11 -0.11)">
       <use xlink:href="#ArialMT-2212"/>
       <use xlink:href="#ArialMT-32" x="58.398438"/>
       <use xlink:href="#ArialMT-30" x="114.013672"/>
       <use xlink:href="#ArialMT-30" x="169.628906"/>
      </g>
     </g>
    </g>
    <g id="ytick_3">
     <g id="line2d_9">
      <path d="M 56.450156 229.732247 
L 614.450156 229.732247 
" clip-path="url(#p43d6c608af)" style="fill: none; stroke: #ffffff; stroke-linecap: round"/>
     </g>
     <g id="text_10">
      <!-- −100 -->
      <g style="fill: #262626" transform="translate(22.174375 233.669044) scale(0.11 -0.11)">
       <use xlink:href="#ArialMT-2212"/>
       <use xlink:href="#ArialMT-31" x="58.398438"/>
       <use xlink:href="#ArialMT-30" x="114.013672"/>
       <use xlink:href="#ArialMT-30" x="169.628906"/>
      </g>
     </g>
    </g>
    <g id="ytick_4">
     <g id="line2d_10">
      <path d="M 56.450156 169.292374 
L 614.450156 169.292374 
" clip-path="url(#p43d6c608af)" style="fill: none; stroke: #ffffff; stroke-linecap: round"/>
     </g>
     <g id="text_11">
      <!-- 0 -->
      <g style="fill: #262626" transform="translate(40.833125 173.229171) scale(0.11 -0.11)">
       <use xlink:href="#ArialMT-30"/>
      </g>
     </g>
    </g>
    <g id="ytick_5">
     <g id="line2d_11">
      <path d="M 56.450156 108.852501 
L 614.450156 108.852501 
" clip-path="url(#p43d6c608af)" style="fill: none; stroke: #ffffff; stroke-linecap: round"/>
     </g>
     <g id="text_12">
      <!-- 100 -->
      <g style="fill: #262626" transform="translate(28.599062 112.789298) scale(0.11 -0.11)">
       <use xlink:href="#ArialMT-31"/>
       <use xlink:href="#ArialMT-30" x="55.615234"/>
       <use xlink:href="#ArialMT-30" x="111.230469"/>
      </g>
     </g>
    </g>
    <g id="ytick_6">
     <g id="line2d_12">
      <path d="M 56.450156 48.412628 
L 614.450156 48.412628 
" clip-path="url(#p43d6c608af)" style="fill: none; stroke: #ffffff; stroke-linecap: round"/>
     </g>
     <g id="text_13">
      <!-- 200 -->
      <g style="fill: #262626" transform="translate(28.599062 52.349425) scale(0.11 -0.11)">
       <use xlink:href="#ArialMT-32"/>
       <use xlink:href="#ArialMT-30" x="55.615234"/>
       <use xlink:href="#ArialMT-30" x="111.230469"/>
      </g>
     </g>
    </g>
    <g id="text_14">
     <!-- Soddisfazione della vita -->
     <g style="fill: #262626" transform="translate(15.789375 251.146875) rotate(-90) scale(0.12 -0.12)">
      <defs>
       <path id="ArialMT-53" d="M 288 1472 
L 859 1522 
Q 900 1178 1048 958 
Q 1197 738 1509 602 
Q 1822 466 2213 466 
Q 2559 466 2825 569 
Q 3091 672 3220 851 
Q 3350 1031 3350 1244 
Q 3350 1459 3225 1620 
Q 3100 1781 2813 1891 
Q 2628 1963 1997 2114 
Q 1366 2266 1113 2400 
Q 784 2572 623 2826 
Q 463 3081 463 3397 
Q 463 3744 659 4045 
Q 856 4347 1234 4503 
Q 1613 4659 2075 4659 
Q 2584 4659 2973 4495 
Q 3363 4331 3572 4012 
Q 3781 3694 3797 3291 
L 3216 3247 
Q 3169 3681 2898 3903 
Q 2628 4125 2100 4125 
Q 1550 4125 1298 3923 
Q 1047 3722 1047 3438 
Q 1047 3191 1225 3031 
Q 1400 2872 2139 2705 
Q 2878 2538 3153 2413 
Q 3553 2228 3743 1945 
Q 3934 1663 3934 1294 
Q 3934 928 3725 604 
Q 3516 281 3123 101 
Q 2731 -78 2241 -78 
Q 1619 -78 1198 103 
Q 778 284 539 648 
Q 300 1013 288 1472 
z
" transform="scale(0.015625)"/>
       <path id="ArialMT-73" d="M 197 991 
L 753 1078 
Q 800 744 1014 566 
Q 1228 388 1613 388 
Q 2000 388 2187 545 
Q 2375 703 2375 916 
Q 2375 1106 2209 1216 
Q 2094 1291 1634 1406 
Q 1016 1563 777 1677 
Q 538 1791 414 1992 
Q 291 2194 291 2438 
Q 291 2659 392 2848 
Q 494 3038 669 3163 
Q 800 3259 1026 3326 
Q 1253 3394 1513 3394 
Q 1903 3394 2198 3281 
Q 2494 3169 2634 2976 
Q 2775 2784 2828 2463 
L 2278 2388 
Q 2241 2644 2061 2787 
Q 1881 2931 1553 2931 
Q 1166 2931 1000 2803 
Q 834 2675 834 2503 
Q 834 2394 903 2306 
Q 972 2216 1119 2156 
Q 1203 2125 1616 2013 
Q 2213 1853 2448 1751 
Q 2684 1650 2818 1456 
Q 2953 1263 2953 975 
Q 2953 694 2789 445 
Q 2625 197 2315 61 
Q 2006 -75 1616 -75 
Q 969 -75 630 194 
Q 291 463 197 991 
z
" transform="scale(0.015625)"/>
       <path id="ArialMT-7a" d="M 125 0 
L 125 456 
L 2238 2881 
Q 1878 2863 1603 2863 
L 250 2863 
L 250 3319 
L 2963 3319 
L 2963 2947 
L 1166 841 
L 819 456 
Q 1197 484 1528 484 
L 3063 484 
L 3063 0 
L 125 0 
z
" transform="scale(0.015625)"/>
       <path id="ArialMT-6c" d="M 409 0 
L 409 4581 
L 972 4581 
L 972 0 
L 409 0 
z
" transform="scale(0.015625)"/>
       <path id="ArialMT-76" d="M 1344 0 
L 81 3319 
L 675 3319 
L 1388 1331 
Q 1503 1009 1600 663 
Q 1675 925 1809 1294 
L 2547 3319 
L 3125 3319 
L 1869 0 
L 1344 0 
z
" transform="scale(0.015625)"/>
      </defs>
      <use xlink:href="#ArialMT-53"/>
      <use xlink:href="#ArialMT-6f" x="66.699219"/>
      <use xlink:href="#ArialMT-64" x="122.314453"/>
      <use xlink:href="#ArialMT-64" x="177.929688"/>
      <use xlink:href="#ArialMT-69" x="233.544922"/>
      <use xlink:href="#ArialMT-73" x="255.761719"/>
      <use xlink:href="#ArialMT-66" x="305.761719"/>
      <use xlink:href="#ArialMT-61" x="333.544922"/>
      <use xlink:href="#ArialMT-7a" x="389.160156"/>
      <use xlink:href="#ArialMT-69" x="439.160156"/>
      <use xlink:href="#ArialMT-6f" x="461.376953"/>
      <use xlink:href="#ArialMT-6e" x="516.992188"/>
      <use xlink:href="#ArialMT-65" x="572.607422"/>
      <use xlink:href="#ArialMT-20" x="628.222656"/>
      <use xlink:href="#ArialMT-64" x="656.005859"/>
      <use xlink:href="#ArialMT-65" x="711.621094"/>
      <use xlink:href="#ArialMT-6c" x="767.236328"/>
      <use xlink:href="#ArialMT-6c" x="789.453125"/>
      <use xlink:href="#ArialMT-61" x="811.669922"/>
      <use xlink:href="#ArialMT-20" x="867.285156"/>
      <use xlink:href="#ArialMT-76" x="895.068359"/>
      <use xlink:href="#ArialMT-69" x="945.068359"/>
      <use xlink:href="#ArialMT-74" x="967.285156"/>
      <use xlink:href="#ArialMT-61" x="995.068359"/>
     </g>
    </g>
   </g>
   <g id="line2d_13">
    <path d="M 81.813793 135.704262 
L 132.541065 133.717824 
L 183.268338 131.731386 
L 233.995611 129.744948 
L 284.722884 127.75851 
L 335.450156 125.772072 
L 386.177429 123.785634 
L 436.904702 121.799195 
L 487.631974 119.812757 
L 538.359247 117.826319 
L 589.08652 115.839881 
" clip-path="url(#p43d6c608af)" style="fill: none; stroke: #1a1a1a; stroke-opacity: 0.4; stroke-width: 1.5; stroke-linecap: round"/>
   </g>
   <g id="line2d_14">
    <path d="M 81.813793 199.435183 
L 132.541065 201.90243 
L 183.268338 204.369676 
L 233.995611 206.836923 
L 284.722884 209.304169 
L 335.450156 211.771416 
L 386.177429 214.238662 
L 436.904702 216.705909 
L 487.631974 219.173155 
L 538.359247 221.640402 
L 589.08652 224.107648 
" clip-path="url(#p43d6c608af)" style="fill: none; stroke: #1a1a1a; stroke-opacity: 0.4; stroke-width: 1.5; stroke-linecap: round"/>
   </g>
   <g id="line2d_15">
    <path d="M 81.813793 147.659295 
L 132.541065 142.158216 
L 183.268338 136.657137 
L 233.995611 131.156058 
L 284.722884 125.654979 
L 335.450156 120.153901 
L 386.177429 114.652822 
L 436.904702 109.151743 
L 487.631974 103.650664 
L 538.359247 98.149585 
L 589.08652 92.648506 
" clip-path="url(#p43d6c608af)" style="fill: none; stroke: #1a1a1a; stroke-opacity: 0.4; stroke-width: 1.5; stroke-linecap: round"/>
   </g>
   <g id="line2d_16">
    <path d="M 81.813793 136.036212 
L 132.541065 137.89138 
L 183.268338 139.746547 
L 233.995611 141.601715 
L 284.722884 143.456883 
L 335.450156 145.312051 
L 386.177429 147.167219 
L 436.904702 149.022386 
L 487.631974 150.877554 
L 538.359247 152.732722 
L 589.08652 154.58789 
" clip-path="url(#p43d6c608af)" style="fill: none; stroke: #1a1a1a; stroke-opacity: 0.4; stroke-width: 1.5; stroke-linecap: round"/>
   </g>
   <g id="line2d_17">
    <path d="M 81.813793 218.921774 
L 132.541065 225.959859 
L 183.268338 232.997944 
L 233.995611 240.03603 
L 284.722884 247.074115 
L 335.450156 254.1122 
L 386.177429 261.150285 
L 436.904702 268.18837 
L 487.631974 275.226455 
L 538.359247 282.26454 
L 589.08652 289.302625 
" clip-path="url(#p43d6c608af)" style="fill: none; stroke: #1a1a1a; stroke-opacity: 0.4; stroke-width: 1.5; stroke-linecap: round"/>
   </g>
   <g id="line2d_18">
    <path d="M 81.813793 216.659588 
L 132.541065 211.87237 
L 183.268338 207.085153 
L 233.995611 202.297935 
L 284.722884 197.510718 
L 335.450156 192.7235 
L 386.177429 187.936283 
L 436.904702 183.149065 
L 487.631974 178.361848 
L 538.359247 173.57463 
L 589.08652 168.787413 
" clip-path="url(#p43d6c608af)" style="fill: none; stroke: #1a1a1a; stroke-opacity: 0.4; stroke-width: 1.5; stroke-linecap: round"/>
   </g>
   <g id="line2d_19">
    <path d="M 81.813793 119.470368 
L 132.541065 123.210352 
L 183.268338 126.950336 
L 233.995611 130.69032 
L 284.722884 134.430304 
L 335.450156 138.170288 
L 386.177429 141.910272 
L 436.904702 145.650256 
L 487.631974 149.39024 
L 538.359247 153.130224 
L 589.08652 156.870208 
" clip-path="url(#p43d6c608af)" style="fill: none; stroke: #1a1a1a; stroke-opacity: 0.4; stroke-width: 1.5; stroke-linecap: round"/>
   </g>
   <g id="line2d_20">
    <path d="M 81.813793 157.209608 
L 132.541065 157.859445 
L 183.268338 158.509283 
L 233.995611 159.15912 
L 284.722884 159.808957 
L 335.450156 160.458795 
L 386.177429 161.108632 
L 436.904702 161.75847 
L 487.631974 162.408307 
L 538.359247 163.058145 
L 589.08652 163.707982 
" clip-path="url(#p43d6c608af)" style="fill: none; stroke: #1a1a1a; stroke-opacity: 0.4; stroke-width: 1.5; stroke-linecap: round"/>
   </g>
   <g id="line2d_21">
    <path d="M 81.813793 174.919226 
L 132.541065 179.471328 
L 183.268338 184.023429 
L 233.995611 188.575531 
L 284.722884 193.127632 
L 335.450156 197.679734 
L 386.177429 202.231835 
L 436.904702 206.783937 
L 487.631974 211.336039 
L 538.359247 215.88814 
L 589.08652 220.440242 
" clip-path="url(#p43d6c608af)" style="fill: none; stroke: #1a1a1a; stroke-opacity: 0.4; stroke-width: 1.5; stroke-linecap: round"/>
   </g>
   <g id="line2d_22">
    <path d="M 81.813793 204.922884 
L 132.541065 205.656826 
L 183.268338 206.390767 
L 233.995611 207.124709 
L 284.722884 207.858651 
L 335.450156 208.592593 
L 386.177429 209.326534 
L 436.904702 210.060476 
L 487.631974 210.794418 
L 538.359247 211.52836 
L 589.08652 212.262301 
" clip-path="url(#p43d6c608af)" style="fill: none; stroke: #1a1a1a; stroke-opacity: 0.4; stroke-width: 1.5; stroke-linecap: round"/>
   </g>
   <g id="line2d_23">
    <path d="M 81.813793 169.398183 
L 132.541065 162.112409 
L 183.268338 154.826635 
L 233.995611 147.540861 
L 284.722884 140.255087 
L 335.450156 132.969313 
L 386.177429 125.683539 
L 436.904702 118.397765 
L 487.631974 111.111991 
L 538.359247 103.826217 
L 589.08652 96.540443 
" clip-path="url(#p43d6c608af)" style="fill: none; stroke: #1a1a1a; stroke-opacity: 0.4; stroke-width: 1.5; stroke-linecap: round"/>
   </g>
   <g id="line2d_24">
    <path d="M 81.813793 157.316085 
L 132.541065 158.109444 
L 183.268338 158.902803 
L 233.995611 159.696162 
L 284.722884 160.489521 
L 335.450156 161.28288 
L 386.177429 162.076239 
L 436.904702 162.869598 
L 487.631974 163.662957 
L 538.359247 164.456316 
L 589.08652 165.249675 
" clip-path="url(#p43d6c608af)" style="fill: none; stroke: #1a1a1a; stroke-opacity: 0.4; stroke-width: 1.5; stroke-linecap: round"/>
   </g>
   <g id="line2d_25">
    <path d="M 81.813793 153.369727 
L 132.541065 161.689409 
L 183.268338 170.009091 
L 233.995611 178.328773 
L 284.722884 186.648455 
L 335.450156 194.968137 
L 386.177429 203.287819 
L 436.904702 211.607501 
L 487.631974 219.927183 
L 538.359247 228.246865 
L 589.08652 236.566547 
" clip-path="url(#p43d6c608af)" style="fill: none; stroke: #1a1a1a; stroke-opacity: 0.4; stroke-width: 1.5; stroke-linecap: round"/>
   </g>
   <g id="line2d_26">
    <path d="M 81.813793 172.547224 
L 132.541065 169.365292 
L 183.268338 166.183359 
L 233.995611 163.001427 
L 284.722884 159.819494 
L 335.450156 156.637562 
L 386.177429 153.45563 
L 436.904702 150.273697 
L 487.631974 147.091765 
L 538.359247 143.909832 
L 589.08652 140.7279 
" clip-path="url(#p43d6c608af)" style="fill: none; stroke: #1a1a1a; stroke-opacity: 0.4; stroke-width: 1.5; stroke-linecap: round"/>
   </g>
   <g id="line2d_27">
    <path d="M 81.813793 161.426582 
L 132.541065 173.69839 
L 183.268338 185.970198 
L 233.995611 198.242006 
L 284.722884 210.513814 
L 335.450156 222.785622 
L 386.177429 235.05743 
L 436.904702 247.329238 
L 487.631974 259.601046 
L 538.359247 271.872853 
L 589.08652 284.144661 
" clip-path="url(#p43d6c608af)" style="fill: none; stroke: #1a1a1a; stroke-opacity: 0.4; stroke-width: 1.5; stroke-linecap: round"/>
   </g>
   <g id="line2d_28">
    <path d="M 81.813793 172.260718 
L 132.541065 179.272987 
L 183.268338 186.285256 
L 233.995611 193.297525 
L 284.722884 200.309794 
L 335.450156 207.322063 
L 386.177429 214.334332 
L 436.904702 221.346601 
L 487.631974 228.35887 
L 538.359247 235.371139 
L 589.08652 242.383408 
" clip-path="url(#p43d6c608af)" style="fill: none; stroke: #1a1a1a; stroke-opacity: 0.4; stroke-width: 1.5; stroke-linecap: round"/>
   </g>
   <g id="line2d_29">
    <path d="M 81.813793 203.097576 
L 132.541065 208.283252 
L 183.268338 213.468927 
L 233.995611 218.654603 
L 284.722884 223.840279 
L 335.450156 229.025955 
L 386.177429 234.211631 
L 436.904702 239.397307 
L 487.631974 244.582983 
L 538.359247 249.768659 
L 589.08652 254.954334 
" clip-path="url(#p43d6c608af)" style="fill: none; stroke: #1a1a1a; stroke-opacity: 0.4; stroke-width: 1.5; stroke-linecap: round"/>
   </g>
   <g id="line2d_30">
    <path d="M 81.813793 155.799761 
L 132.541065 161.946117 
L 183.268338 168.092473 
L 233.995611 174.238828 
L 284.722884 180.385184 
L 335.450156 186.53154 
L 386.177429 192.677895 
L 436.904702 198.824251 
L 487.631974 204.970607 
L 538.359247 211.116963 
L 589.08652 217.263318 
" clip-path="url(#p43d6c608af)" style="fill: none; stroke: #1a1a1a; stroke-opacity: 0.4; stroke-width: 1.5; stroke-linecap: round"/>
   </g>
   <g id="line2d_31">
    <path d="M 81.813793 146.508494 
L 132.541065 142.875137 
L 183.268338 139.241781 
L 233.995611 135.608424 
L 284.722884 131.975068 
L 335.450156 128.341711 
L 386.177429 124.708355 
L 436.904702 121.074998 
L 487.631974 117.441641 
L 538.359247 113.808285 
L 589.08652 110.174928 
" clip-path="url(#p43d6c608af)" style="fill: none; stroke: #1a1a1a; stroke-opacity: 0.4; stroke-width: 1.5; stroke-linecap: round"/>
   </g>
   <g id="line2d_32">
    <path d="M 81.813793 215.964219 
L 132.541065 217.569575 
L 183.268338 219.174932 
L 233.995611 220.780288 
L 284.722884 222.385645 
L 335.450156 223.991001 
L 386.177429 225.596357 
L 436.904702 227.201714 
L 487.631974 228.80707 
L 538.359247 230.412426 
L 589.08652 232.017783 
" clip-path="url(#p43d6c608af)" style="fill: none; stroke: #1a1a1a; stroke-opacity: 0.4; stroke-width: 1.5; stroke-linecap: round"/>
   </g>
   <g id="line2d_33">
    <path d="M 81.813793 179.501291 
L 132.541065 174.484688 
L 183.268338 169.468086 
L 233.995611 164.451483 
L 284.722884 159.434881 
L 335.450156 154.418278 
L 386.177429 149.401675 
L 436.904702 144.385073 
L 487.631974 139.36847 
L 538.359247 134.351868 
L 589.08652 129.335265 
" clip-path="url(#p43d6c608af)" style="fill: none; stroke: #1a1a1a; stroke-opacity: 0.4; stroke-width: 1.5; stroke-linecap: round"/>
   </g>
   <g id="line2d_34">
    <path d="M 81.813793 167.605752 
L 132.541065 174.150183 
L 183.268338 180.694614 
L 233.995611 187.239045 
L 284.722884 193.783476 
L 335.450156 200.327907 
L 386.177429 206.872339 
L 436.904702 213.41677 
L 487.631974 219.961201 
L 538.359247 226.505632 
L 589.08652 233.050063 
" clip-path="url(#p43d6c608af)" style="fill: none; stroke: #1a1a1a; stroke-opacity: 0.4; stroke-width: 1.5; stroke-linecap: round"/>
   </g>
   <g id="line2d_35">
    <path d="M 81.813793 117.659968 
L 132.541065 109.584909 
L 183.268338 101.509849 
L 233.995611 93.43479 
L 284.722884 85.359731 
L 335.450156 77.284672 
L 386.177429 69.209612 
L 436.904702 61.134553 
L 487.631974 53.059494 
L 538.359247 44.984434 
L 589.08652 36.909375 
" clip-path="url(#p43d6c608af)" style="fill: none; stroke: #1a1a1a; stroke-opacity: 0.4; stroke-width: 1.5; stroke-linecap: round"/>
   </g>
   <g id="line2d_36">
    <path d="M 81.813793 153.545742 
L 132.541065 142.971217 
L 183.268338 132.396693 
L 233.995611 121.822168 
L 284.722884 111.247644 
L 335.450156 100.673119 
L 386.177429 90.098595 
L 436.904702 79.52407 
L 487.631974 68.949546 
L 538.359247 58.375021 
L 589.08652 47.800497 
" clip-path="url(#p43d6c608af)" style="fill: none; stroke: #1a1a1a; stroke-opacity: 0.4; stroke-width: 1.5; stroke-linecap: round"/>
   </g>
   <g id="line2d_37">
    <path d="M 81.813793 177.035465 
L 132.541065 172.479823 
L 183.268338 167.924181 
L 233.995611 163.368539 
L 284.722884 158.812896 
L 335.450156 154.257254 
L 386.177429 149.701612 
L 436.904702 145.14597 
L 487.631974 140.590328 
L 538.359247 136.034686 
L 589.08652 131.479043 
" clip-path="url(#p43d6c608af)" style="fill: none; stroke: #1a1a1a; stroke-opacity: 0.4; stroke-width: 1.5; stroke-linecap: round"/>
   </g>
   <g id="line2d_38">
    <path d="M 81.813793 169.639948 
L 132.541065 161.420467 
L 183.268338 153.200987 
L 233.995611 144.981506 
L 284.722884 136.762026 
L 335.450156 128.542546 
L 386.177429 120.323065 
L 436.904702 112.103585 
L 487.631974 103.884104 
L 538.359247 95.664624 
L 589.08652 87.445143 
" clip-path="url(#p43d6c608af)" style="fill: none; stroke: #1a1a1a; stroke-opacity: 0.4; stroke-width: 1.5; stroke-linecap: round"/>
   </g>
   <g id="line2d_39">
    <path d="M 81.813793 180.731159 
L 132.541065 192.55003 
L 183.268338 204.368901 
L 233.995611 216.187772 
L 284.722884 228.006643 
L 335.450156 239.825514 
L 386.177429 251.644385 
L 436.904702 263.463256 
L 487.631974 275.282127 
L 538.359247 287.100998 
L 589.08652 298.919869 
" clip-path="url(#p43d6c608af)" style="fill: none; stroke: #1a1a1a; stroke-opacity: 0.4; stroke-width: 1.5; stroke-linecap: round"/>
   </g>
   <g id="line2d_40">
    <path d="M 81.813793 178.348045 
L 132.541065 177.494641 
L 183.268338 176.641237 
L 233.995611 175.787833 
L 284.722884 174.934429 
L 335.450156 174.081024 
L 386.177429 173.22762 
L 436.904702 172.374216 
L 487.631974 171.520812 
L 538.359247 170.667408 
L 589.08652 169.814004 
" clip-path="url(#p43d6c608af)" style="fill: none; stroke: #1a1a1a; stroke-opacity: 0.4; stroke-width: 1.5; stroke-linecap: round"/>
   </g>
   <g id="line2d_41">
    <path d="M 81.813793 228.380081 
L 132.541065 230.017661 
L 183.268338 231.655241 
L 233.995611 233.292821 
L 284.722884 234.930401 
L 335.450156 236.56798 
L 386.177429 238.20556 
L 436.904702 239.84314 
L 487.631974 241.48072 
L 538.359247 243.1183 
L 589.08652 244.755879 
" clip-path="url(#p43d6c608af)" style="fill: none; stroke: #1a1a1a; stroke-opacity: 0.4; stroke-width: 1.5; stroke-linecap: round"/>
   </g>
   <g id="line2d_42">
    <path d="M 81.813793 139.839539 
L 132.541065 138.387979 
L 183.268338 136.936419 
L 233.995611 135.48486 
L 284.722884 134.0333 
L 335.450156 132.58174 
L 386.177429 131.130181 
L 436.904702 129.678621 
L 487.631974 128.227061 
L 538.359247 126.775502 
L 589.08652 125.323942 
" clip-path="url(#p43d6c608af)" style="fill: none; stroke: #1a1a1a; stroke-opacity: 0.4; stroke-width: 1.5; stroke-linecap: round"/>
   </g>
   <g id="line2d_43">
    <path d="M 81.813793 185.53812 
L 132.541065 175.710839 
L 183.268338 165.883557 
L 233.995611 156.056275 
L 284.722884 146.228993 
L 335.450156 136.401712 
L 386.177429 126.57443 
L 436.904702 116.747148 
L 487.631974 106.919867 
L 538.359247 97.092585 
L 589.08652 87.265303 
" clip-path="url(#p43d6c608af)" style="fill: none; stroke: #1a1a1a; stroke-opacity: 0.4; stroke-width: 1.5; stroke-linecap: round"/>
   </g>
   <g id="line2d_44">
    <path d="M 81.813793 181.514997 
L 132.541065 184.652634 
L 183.268338 187.79027 
L 233.995611 190.927906 
L 284.722884 194.065543 
L 335.450156 197.203179 
L 386.177429 200.340815 
L 436.904702 203.478451 
L 487.631974 206.616088 
L 538.359247 209.753724 
L 589.08652 212.89136 
" clip-path="url(#p43d6c608af)" style="fill: none; stroke: #1a1a1a; stroke-opacity: 0.4; stroke-width: 1.5; stroke-linecap: round"/>
   </g>
   <g id="line2d_45">
    <path d="M 81.813793 163.823683 
L 132.541065 160.175603 
L 183.268338 156.527524 
L 233.995611 152.879445 
L 284.722884 149.231366 
L 335.450156 145.583287 
L 386.177429 141.935208 
L 436.904702 138.287129 
L 487.631974 134.63905 
L 538.359247 130.990971 
L 589.08652 127.342892 
" clip-path="url(#p43d6c608af)" style="fill: none; stroke: #1a1a1a; stroke-opacity: 0.4; stroke-width: 1.5; stroke-linecap: round"/>
   </g>
   <g id="line2d_46">
    <path d="M 81.813793 205.642933 
L 132.541065 209.039032 
L 183.268338 212.435131 
L 233.995611 215.83123 
L 284.722884 219.227329 
L 335.450156 222.623429 
L 386.177429 226.019528 
L 436.904702 229.415627 
L 487.631974 232.811726 
L 538.359247 236.207825 
L 589.08652 239.603924 
" clip-path="url(#p43d6c608af)" style="fill: none; stroke: #1a1a1a; stroke-opacity: 0.4; stroke-width: 1.5; stroke-linecap: round"/>
   </g>
   <g id="line2d_47">
    <path d="M 81.813793 173.396065 
L 132.541065 176.18513 
L 183.268338 178.974195 
L 233.995611 181.76326 
L 284.722884 184.552325 
L 335.450156 187.34139 
L 386.177429 190.130455 
L 436.904702 192.91952 
L 487.631974 195.708585 
L 538.359247 198.49765 
L 589.08652 201.286715 
" clip-path="url(#p43d6c608af)" style="fill: none; stroke: #1a1a1a; stroke-opacity: 0.4; stroke-width: 1.5; stroke-linecap: round"/>
   </g>
   <g id="line2d_48">
    <path d="M 81.813793 178.283792 
L 132.541065 171.379501 
L 183.268338 164.475211 
L 233.995611 157.57092 
L 284.722884 150.66663 
L 335.450156 143.762339 
L 386.177429 136.858049 
L 436.904702 129.953759 
L 487.631974 123.049468 
L 538.359247 116.145178 
L 589.08652 109.240887 
" clip-path="url(#p43d6c608af)" style="fill: none; stroke: #1a1a1a; stroke-opacity: 0.4; stroke-width: 1.5; stroke-linecap: round"/>
   </g>
   <g id="line2d_49">
    <path d="M 81.813793 130.240535 
L 132.541065 123.534144 
L 183.268338 116.827754 
L 233.995611 110.121364 
L 284.722884 103.414974 
L 335.450156 96.708584 
L 386.177429 90.002193 
L 436.904702 83.295803 
L 487.631974 76.589413 
L 538.359247 69.883023 
L 589.08652 63.176633 
" clip-path="url(#p43d6c608af)" style="fill: none; stroke: #1a1a1a; stroke-opacity: 0.4; stroke-width: 1.5; stroke-linecap: round"/>
   </g>
   <g id="line2d_50">
    <path d="M 81.813793 172.472484 
L 132.541065 178.080509 
L 183.268338 183.688534 
L 233.995611 189.296559 
L 284.722884 194.904585 
L 335.450156 200.51261 
L 386.177429 206.120635 
L 436.904702 211.72866 
L 487.631974 217.336685 
L 538.359247 222.94471 
L 589.08652 228.552735 
" clip-path="url(#p43d6c608af)" style="fill: none; stroke: #1a1a1a; stroke-opacity: 0.4; stroke-width: 1.5; stroke-linecap: round"/>
   </g>
   <g id="line2d_51">
    <path d="M 81.813793 206.604651 
L 132.541065 213.291477 
L 183.268338 219.978303 
L 233.995611 226.665129 
L 284.722884 233.351955 
L 335.450156 240.038781 
L 386.177429 246.725607 
L 436.904702 253.412433 
L 487.631974 260.099259 
L 538.359247 266.786085 
L 589.08652 273.472911 
" clip-path="url(#p43d6c608af)" style="fill: none; stroke: #1a1a1a; stroke-opacity: 0.4; stroke-width: 1.5; stroke-linecap: round"/>
   </g>
   <g id="line2d_52">
    <path d="M 81.813793 205.384222 
L 132.541065 201.219239 
L 183.268338 197.054256 
L 233.995611 192.889274 
L 284.722884 188.724291 
L 335.450156 184.559308 
L 386.177429 180.394325 
L 436.904702 176.229343 
L 487.631974 172.06436 
L 538.359247 167.899377 
L 589.08652 163.734394 
" clip-path="url(#p43d6c608af)" style="fill: none; stroke: #1a1a1a; stroke-opacity: 0.4; stroke-width: 1.5; stroke-linecap: round"/>
   </g>
   <g id="line2d_53">
    <path d="M 81.813793 191.125051 
L 132.541065 187.587841 
L 183.268338 184.050631 
L 233.995611 180.513421 
L 284.722884 176.976211 
L 335.450156 173.439001 
L 386.177429 169.901791 
L 436.904702 166.364581 
L 487.631974 162.827371 
L 538.359247 159.290161 
L 589.08652 155.752951 
" clip-path="url(#p43d6c608af)" style="fill: none; stroke: #1a1a1a; stroke-opacity: 0.4; stroke-width: 1.5; stroke-linecap: round"/>
   </g>
   <g id="line2d_54">
    <path d="M 81.813793 207.605064 
L 132.541065 220.775495 
L 183.268338 233.945926 
L 233.995611 247.116358 
L 284.722884 260.286789 
L 335.450156 273.45722 
L 386.177429 286.627651 
L 436.904702 299.798082 
L 487.631974 312.968513 
L 538.359247 326.138944 
L 589.08652 339.309375 
" clip-path="url(#p43d6c608af)" style="fill: none; stroke: #1a1a1a; stroke-opacity: 0.4; stroke-width: 1.5; stroke-linecap: round"/>
   </g>
   <g id="line2d_55">
    <path d="M 81.813793 142.936939 
L 132.541065 145.313134 
L 183.268338 147.689329 
L 233.995611 150.065524 
L 284.722884 152.441719 
L 335.450156 154.817914 
L 386.177429 157.194109 
L 436.904702 159.570304 
L 487.631974 161.946499 
L 538.359247 164.322694 
L 589.08652 166.698889 
" clip-path="url(#p43d6c608af)" style="fill: none; stroke: #1a1a1a; stroke-opacity: 0.4; stroke-width: 1.5; stroke-linecap: round"/>
   </g>
   <g id="line2d_56">
    <path d="M 81.813793 205.114313 
L 132.541065 201.922122 
L 183.268338 198.729931 
L 233.995611 195.53774 
L 284.722884 192.345549 
L 335.450156 189.153358 
L 386.177429 185.961167 
L 436.904702 182.768976 
L 487.631974 179.576785 
L 538.359247 176.384594 
L 589.08652 173.192403 
" clip-path="url(#p43d6c608af)" style="fill: none; stroke: #1a1a1a; stroke-opacity: 0.4; stroke-width: 1.5; stroke-linecap: round"/>
   </g>
   <g id="line2d_57">
    <path d="M 81.813793 201.028587 
L 132.541065 197.333666 
L 183.268338 193.638745 
L 233.995611 189.943824 
L 284.722884 186.248902 
L 335.450156 182.553981 
L 386.177429 178.85906 
L 436.904702 175.164139 
L 487.631974 171.469218 
L 538.359247 167.774297 
L 589.08652 164.079376 
" clip-path="url(#p43d6c608af)" style="fill: none; stroke: #1a1a1a; stroke-opacity: 0.4; stroke-width: 1.5; stroke-linecap: round"/>
   </g>
   <g id="line2d_58">
    <path d="M 81.813793 198.96059 
L 132.541065 201.066569 
L 183.268338 203.172547 
L 233.995611 205.278526 
L 284.722884 207.384505 
L 335.450156 209.490484 
L 386.177429 211.596463 
L 436.904702 213.702442 
L 487.631974 215.808421 
L 538.359247 217.9144 
L 589.08652 220.020379 
" clip-path="url(#p43d6c608af)" style="fill: none; stroke: #1a1a1a; stroke-opacity: 0.4; stroke-width: 1.5; stroke-linecap: round"/>
   </g>
   <g id="line2d_59">
    <path d="M 81.813793 174.773504 
L 132.541065 179.085647 
L 183.268338 183.397789 
L 233.995611 187.709932 
L 284.722884 192.022074 
L 335.450156 196.334217 
L 386.177429 200.646359 
L 436.904702 204.958502 
L 487.631974 209.270644 
L 538.359247 213.582787 
L 589.08652 217.894929 
" clip-path="url(#p43d6c608af)" style="fill: none; stroke: #1a1a1a; stroke-opacity: 0.4; stroke-width: 1.5; stroke-linecap: round"/>
   </g>
   <g id="line2d_60">
    <path d="M 81.813793 205.870016 
L 132.541065 197.800261 
L 183.268338 189.730505 
L 233.995611 181.66075 
L 284.722884 173.590995 
L 335.450156 165.521239 
L 386.177429 157.451484 
L 436.904702 149.381729 
L 487.631974 141.311973 
L 538.359247 133.242218 
L 589.08652 125.172463 
" clip-path="url(#p43d6c608af)" style="fill: none; stroke: #1a1a1a; stroke-opacity: 0.4; stroke-width: 1.5; stroke-linecap: round"/>
   </g>
   <g id="line2d_61">
    <path d="M 81.813793 151.030655 
L 132.541065 159.470016 
L 183.268338 167.909377 
L 233.995611 176.348738 
L 284.722884 184.788099 
L 335.450156 193.227459 
L 386.177429 201.66682 
L 436.904702 210.106181 
L 487.631974 218.545542 
L 538.359247 226.984903 
L 589.08652 235.424263 
" clip-path="url(#p43d6c608af)" style="fill: none; stroke: #1a1a1a; stroke-opacity: 0.4; stroke-width: 1.5; stroke-linecap: round"/>
   </g>
   <g id="line2d_62">
    <path d="M 81.813793 178.07666 
L 132.541065 177.699382 
L 183.268338 177.322104 
L 233.995611 176.944826 
L 284.722884 176.567547 
L 335.450156 176.190269 
L 386.177429 175.812991 
L 436.904702 175.435713 
L 487.631974 175.058434 
L 538.359247 174.681156 
L 589.08652 174.303878 
" clip-path="url(#p43d6c608af)" style="fill: none; stroke: #1a1a1a; stroke-opacity: 0.4; stroke-width: 1.5; stroke-linecap: round"/>
   </g>
   <g id="patch_3">
    <path d="M 56.450156 354.429375 
L 56.450156 21.789375 
" style="fill: none; stroke: #ffffff; stroke-width: 1.25; stroke-linejoin: miter; stroke-linecap: square"/>
   </g>
   <g id="patch_4">
    <path d="M 614.450156 354.429375 
L 614.450156 21.789375 
" style="fill: none; stroke: #ffffff; stroke-width: 1.25; stroke-linejoin: miter; stroke-linecap: square"/>
   </g>
   <g id="patch_5">
    <path d="M 56.450156 354.429375 
L 614.450156 354.429375 
" style="fill: none; stroke: #ffffff; stroke-width: 1.25; stroke-linejoin: miter; stroke-linecap: square"/>
   </g>
   <g id="patch_6">
    <path d="M 56.450156 21.789375 
L 614.450156 21.789375 
" style="fill: none; stroke: #ffffff; stroke-width: 1.25; stroke-linejoin: miter; stroke-linecap: square"/>
   </g>
   <g id="text_15">
    <!-- Distribuzione predittiva a priori -->
    <g style="fill: #262626" transform="translate(254.753906 15.789375) scale(0.12 -0.12)">
     <defs>
      <path id="ArialMT-44" d="M 494 0 
L 494 4581 
L 2072 4581 
Q 2606 4581 2888 4516 
Q 3281 4425 3559 4188 
Q 3922 3881 4101 3404 
Q 4281 2928 4281 2316 
Q 4281 1794 4159 1391 
Q 4038 988 3847 723 
Q 3656 459 3429 307 
Q 3203 156 2883 78 
Q 2563 0 2147 0 
L 494 0 
z
M 1100 541 
L 2078 541 
Q 2531 541 2789 625 
Q 3047 709 3200 863 
Q 3416 1078 3536 1442 
Q 3656 1806 3656 2325 
Q 3656 3044 3420 3430 
Q 3184 3816 2847 3947 
Q 2603 4041 2063 4041 
L 1100 4041 
L 1100 541 
z
" transform="scale(0.015625)"/>
      <path id="ArialMT-62" d="M 941 0 
L 419 0 
L 419 4581 
L 981 4581 
L 981 2947 
Q 1338 3394 1891 3394 
Q 2197 3394 2470 3270 
Q 2744 3147 2920 2923 
Q 3097 2700 3197 2384 
Q 3297 2069 3297 1709 
Q 3297 856 2875 390 
Q 2453 -75 1863 -75 
Q 1275 -75 941 416 
L 941 0 
z
M 934 1684 
Q 934 1088 1097 822 
Q 1363 388 1816 388 
Q 2184 388 2453 708 
Q 2722 1028 2722 1663 
Q 2722 2313 2464 2622 
Q 2206 2931 1841 2931 
Q 1472 2931 1203 2611 
Q 934 2291 934 1684 
z
" transform="scale(0.015625)"/>
     </defs>
     <use xlink:href="#ArialMT-44"/>
     <use xlink:href="#ArialMT-69" x="72.216797"/>
     <use xlink:href="#ArialMT-73" x="94.433594"/>
     <use xlink:href="#ArialMT-74" x="144.433594"/>
     <use xlink:href="#ArialMT-72" x="172.216797"/>
     <use xlink:href="#ArialMT-69" x="205.517578"/>
     <use xlink:href="#ArialMT-62" x="227.734375"/>
     <use xlink:href="#ArialMT-75" x="283.349609"/>
     <use xlink:href="#ArialMT-7a" x="338.964844"/>
     <use xlink:href="#ArialMT-69" x="388.964844"/>
     <use xlink:href="#ArialMT-6f" x="411.181641"/>
     <use xlink:href="#ArialMT-6e" x="466.796875"/>
     <use xlink:href="#ArialMT-65" x="522.412109"/>
     <use xlink:href="#ArialMT-20" x="578.027344"/>
     <use xlink:href="#ArialMT-70" x="605.810547"/>
     <use xlink:href="#ArialMT-72" x="661.425781"/>
     <use xlink:href="#ArialMT-65" x="694.726562"/>
     <use xlink:href="#ArialMT-64" x="750.341797"/>
     <use xlink:href="#ArialMT-69" x="805.957031"/>
     <use xlink:href="#ArialMT-74" x="828.173828"/>
     <use xlink:href="#ArialMT-74" x="855.957031"/>
     <use xlink:href="#ArialMT-69" x="883.740234"/>
     <use xlink:href="#ArialMT-76" x="905.957031"/>
     <use xlink:href="#ArialMT-61" x="955.957031"/>
     <use xlink:href="#ArialMT-20" x="1011.572266"/>
     <use xlink:href="#ArialMT-61" x="1039.355469"/>
     <use xlink:href="#ArialMT-20" x="1094.970703"/>
     <use xlink:href="#ArialMT-70" x="1122.753906"/>
     <use xlink:href="#ArialMT-72" x="1178.369141"/>
     <use xlink:href="#ArialMT-69" x="1211.669922"/>
     <use xlink:href="#ArialMT-6f" x="1233.886719"/>
     <use xlink:href="#ArialMT-72" x="1289.501953"/>
     <use xlink:href="#ArialMT-69" x="1322.802734"/>
    </g>
   </g>
  </g>
 </g>
 <defs>
  <clipPath id="p43d6c608af">
   <rect x="56.450156" y="21.789375" width="558" height="332.64"/>
  </clipPath>
 </defs>
</svg>