<?xml version="1.0" encoding="utf-8" standalone="no"?>
<!DOCTYPE svg PUBLIC "-//W3C//DTD SVG 1.1//EN"
  "http://www.w3.org/Graphics/SVG/1.1/DTD/svg11.dtd">
<svg xmlns:xlink="http://www.w3.org/1999/xlink" width="613.419066pt" height="381.861094pt" viewBox="0 0 613.419066 381.861094" xmlns="http://www.w3.org/2000/svg" version="1.1">
 <metadata>
  <rdf:RDF xmlns:dc="http://purl.org/dc/elements/1.1/" xmlns:cc="http://creativecommons.org/ns#" xmlns:rdf="http://www.w3.org/1999/02/22-rdf-syntax-ns#">
   <cc:Work>
    <dc:type rdf:resource="http://purl.org/dc/dcmitype/StillImage"/>
    <dc:date>2023-05-09T08:31:20.097012</dc:date>
    <dc:format>image/svg+xml</dc:format>
    <dc:creator>
     <cc:Agent>
      <dc:title>Matplotlib v3.7.1, https://matplotlib.org/</dc:title>
     </cc:Agent>
    </dc:creator>
   </cc:Work>
  </rdf:RDF>
 </metadata>
 <defs>
  <style type="text/css">*{stroke-linejoin: round; stroke-linecap: butt}</style>
 </defs>
 <g id="figure_1">
  <g id="patch_1">
   <path d="M 0 381.861094 
L 613.419066 381.861094 
L 613.419066 0 
L 0 0 
z
" style="fill: #ffffff"/>
  </g>
  <g id="axes_1">
   <g id="patch_2">
    <path d="M 44.510469 339.84 
L 602.510469 339.84 
L 602.510469 7.2 
L 44.510469 7.2 
z
" style="fill: #eaeaf2"/>
   </g>
   <g id="matplotlib.axis_1">
    <g id="xtick_1">
     <g id="line2d_1">
      <path d="M 99.133234 339.84 
L 99.133234 7.2 
" clip-path="url(#pe051717cd3)" style="fill: none; stroke: #ffffff; stroke-linecap: round"/>
     </g>
     <g id="text_1">
      <!-- −1.5 -->
      <g style="fill: #262626" transform="translate(88.27589 357.213594) scale(0.11 -0.11)">
       <defs>
        <path id="ArialMT-2212" d="M 3381 1997 
L 356 1997 
L 356 2522 
L 3381 2522 
L 3381 1997 
z
" transform="scale(0.015625)"/>
        <path id="ArialMT-31" d="M 2384 0 
L 1822 0 
L 1822 3584 
Q 1619 3391 1289 3197 
Q 959 3003 697 2906 
L 697 3450 
Q 1169 3672 1522 3987 
Q 1875 4303 2022 4600 
L 2384 4600 
L 2384 0 
z
" transform="scale(0.015625)"/>
        <path id="ArialMT-2e" d="M 581 0 
L 581 641 
L 1222 641 
L 1222 0 
L 581 0 
z
" transform="scale(0.015625)"/>
        <path id="ArialMT-35" d="M 266 1200 
L 856 1250 
Q 922 819 1161 601 
Q 1400 384 1738 384 
Q 2144 384 2425 690 
Q 2706 997 2706 1503 
Q 2706 1984 2436 2262 
Q 2166 2541 1728 2541 
Q 1456 2541 1237 2417 
Q 1019 2294 894 2097 
L 366 2166 
L 809 4519 
L 3088 4519 
L 3088 3981 
L 1259 3981 
L 1013 2750 
Q 1425 3038 1878 3038 
Q 2478 3038 2890 2622 
Q 3303 2206 3303 1553 
Q 3303 931 2941 478 
Q 2500 -78 1738 -78 
Q 1113 -78 717 272 
Q 322 622 266 1200 
z
" transform="scale(0.015625)"/>
       </defs>
       <use xlink:href="#ArialMT-2212"/>
       <use xlink:href="#ArialMT-31" x="58.398438"/>
       <use xlink:href="#ArialMT-2e" x="114.013672"/>
       <use xlink:href="#ArialMT-35" x="141.796875"/>
      </g>
     </g>
    </g>
    <g id="xtick_2">
     <g id="line2d_2">
      <path d="M 170.481924 339.84 
L 170.481924 7.2 
" clip-path="url(#pe051717cd3)" style="fill: none; stroke: #ffffff; stroke-linecap: round"/>
     </g>
     <g id="text_2">
      <!-- −1.0 -->
      <g style="fill: #262626" transform="translate(159.62458 357.213594) scale(0.11 -0.11)">
       <defs>
        <path id="ArialMT-30" d="M 266 2259 
Q 266 3072 433 3567 
Q 600 4063 929 4331 
Q 1259 4600 1759 4600 
Q 2128 4600 2406 4451 
Q 2684 4303 2865 4023 
Q 3047 3744 3150 3342 
Q 3253 2941 3253 2259 
Q 3253 1453 3087 958 
Q 2922 463 2592 192 
Q 2263 -78 1759 -78 
Q 1097 -78 719 397 
Q 266 969 266 2259 
z
M 844 2259 
Q 844 1131 1108 757 
Q 1372 384 1759 384 
Q 2147 384 2411 759 
Q 2675 1134 2675 2259 
Q 2675 3391 2411 3762 
Q 2147 4134 1753 4134 
Q 1366 4134 1134 3806 
Q 844 3388 844 2259 
z
" transform="scale(0.015625)"/>
       </defs>
       <use xlink:href="#ArialMT-2212"/>
       <use xlink:href="#ArialMT-31" x="58.398438"/>
       <use xlink:href="#ArialMT-2e" x="114.013672"/>
       <use xlink:href="#ArialMT-30" x="141.796875"/>
      </g>
     </g>
    </g>
    <g id="xtick_3">
     <g id="line2d_3">
      <path d="M 241.830614 339.84 
L 241.830614 7.2 
" clip-path="url(#pe051717cd3)" style="fill: none; stroke: #ffffff; stroke-linecap: round"/>
     </g>
     <g id="text_3">
      <!-- −0.5 -->
      <g style="fill: #262626" transform="translate(230.97327 357.213594) scale(0.11 -0.11)">
       <use xlink:href="#ArialMT-2212"/>
       <use xlink:href="#ArialMT-30" x="58.398438"/>
       <use xlink:href="#ArialMT-2e" x="114.013672"/>
       <use xlink:href="#ArialMT-35" x="141.796875"/>
      </g>
     </g>
    </g>
    <g id="xtick_4">
     <g id="line2d_4">
      <path d="M 313.179304 339.84 
L 313.179304 7.2 
" clip-path="url(#pe051717cd3)" style="fill: none; stroke: #ffffff; stroke-linecap: round"/>
     </g>
     <g id="text_4">
      <!-- 0.0 -->
      <g style="fill: #262626" transform="translate(305.534304 357.213594) scale(0.11 -0.11)">
       <use xlink:href="#ArialMT-30"/>
       <use xlink:href="#ArialMT-2e" x="55.615234"/>
       <use xlink:href="#ArialMT-30" x="83.398438"/>
      </g>
     </g>
    </g>
    <g id="xtick_5">
     <g id="line2d_5">
      <path d="M 384.527995 339.84 
L 384.527995 7.2 
" clip-path="url(#pe051717cd3)" style="fill: none; stroke: #ffffff; stroke-linecap: round"/>
     </g>
     <g id="text_5">
      <!-- 0.5 -->
      <g style="fill: #262626" transform="translate(376.882995 357.213594) scale(0.11 -0.11)">
       <use xlink:href="#ArialMT-30"/>
       <use xlink:href="#ArialMT-2e" x="55.615234"/>
       <use xlink:href="#ArialMT-35" x="83.398438"/>
      </g>
     </g>
    </g>
    <g id="xtick_6">
     <g id="line2d_6">
      <path d="M 455.876685 339.84 
L 455.876685 7.2 
" clip-path="url(#pe051717cd3)" style="fill: none; stroke: #ffffff; stroke-linecap: round"/>
     </g>
     <g id="text_6">
      <!-- 1.0 -->
      <g style="fill: #262626" transform="translate(448.231685 357.213594) scale(0.11 -0.11)">
       <use xlink:href="#ArialMT-31"/>
       <use xlink:href="#ArialMT-2e" x="55.615234"/>
       <use xlink:href="#ArialMT-30" x="83.398438"/>
      </g>
     </g>
    </g>
    <g id="xtick_7">
     <g id="line2d_7">
      <path d="M 527.225375 339.84 
L 527.225375 7.2 
" clip-path="url(#pe051717cd3)" style="fill: none; stroke: #ffffff; stroke-linecap: round"/>
     </g>
     <g id="text_7">
      <!-- 1.5 -->
      <g style="fill: #262626" transform="translate(519.580375 357.213594) scale(0.11 -0.11)">
       <use xlink:href="#ArialMT-31"/>
       <use xlink:href="#ArialMT-2e" x="55.615234"/>
       <use xlink:href="#ArialMT-35" x="83.398438"/>
      </g>
     </g>
    </g>
    <g id="xtick_8">
     <g id="line2d_8">
      <path d="M 598.574066 339.84 
L 598.574066 7.2 
" clip-path="url(#pe051717cd3)" style="fill: none; stroke: #ffffff; stroke-linecap: round"/>
     </g>
     <g id="text_8">
      <!-- 2.0 -->
      <g style="fill: #262626" transform="translate(590.929066 357.213594) scale(0.11 -0.11)">
       <defs>
        <path id="ArialMT-32" d="M 3222 541 
L 3222 0 
L 194 0 
Q 188 203 259 391 
Q 375 700 629 1000 
Q 884 1300 1366 1694 
Q 2113 2306 2375 2664 
Q 2638 3022 2638 3341 
Q 2638 3675 2398 3904 
Q 2159 4134 1775 4134 
Q 1369 4134 1125 3890 
Q 881 3647 878 3216 
L 300 3275 
Q 359 3922 746 4261 
Q 1134 4600 1788 4600 
Q 2447 4600 2831 4234 
Q 3216 3869 3216 3328 
Q 3216 3053 3103 2787 
Q 2991 2522 2730 2228 
Q 2469 1934 1863 1422 
Q 1356 997 1212 845 
Q 1069 694 975 541 
L 3222 541 
z
" transform="scale(0.015625)"/>
       </defs>
       <use xlink:href="#ArialMT-32"/>
       <use xlink:href="#ArialMT-2e" x="55.615234"/>
       <use xlink:href="#ArialMT-30" x="83.398438"/>
      </g>
     </g>
    </g>
    <g id="text_9">
     <!-- Predictor (stdz) -->
     <g style="fill: #262626" transform="translate(282.837031 372.135469) scale(0.12 -0.12)">
      <defs>
       <path id="ArialMT-50" d="M 494 0 
L 494 4581 
L 2222 4581 
Q 2678 4581 2919 4538 
Q 3256 4481 3484 4323 
Q 3713 4166 3852 3881 
Q 3991 3597 3991 3256 
Q 3991 2672 3619 2267 
Q 3247 1863 2275 1863 
L 1100 1863 
L 1100 0 
L 494 0 
z
M 1100 2403 
L 2284 2403 
Q 2872 2403 3119 2622 
Q 3366 2841 3366 3238 
Q 3366 3525 3220 3729 
Q 3075 3934 2838 4000 
Q 2684 4041 2272 4041 
L 1100 4041 
L 1100 2403 
z
" transform="scale(0.015625)"/>
       <path id="ArialMT-72" d="M 416 0 
L 416 3319 
L 922 3319 
L 922 2816 
Q 1116 3169 1280 3281 
Q 1444 3394 1641 3394 
Q 1925 3394 2219 3213 
L 2025 2691 
Q 1819 2813 1613 2813 
Q 1428 2813 1281 2702 
Q 1134 2591 1072 2394 
Q 978 2094 978 1738 
L 978 0 
L 416 0 
z
" transform="scale(0.015625)"/>
       <path id="ArialMT-65" d="M 2694 1069 
L 3275 997 
Q 3138 488 2766 206 
Q 2394 -75 1816 -75 
Q 1088 -75 661 373 
Q 234 822 234 1631 
Q 234 2469 665 2931 
Q 1097 3394 1784 3394 
Q 2450 3394 2872 2941 
Q 3294 2488 3294 1666 
Q 3294 1616 3291 1516 
L 816 1516 
Q 847 969 1125 678 
Q 1403 388 1819 388 
Q 2128 388 2347 550 
Q 2566 713 2694 1069 
z
M 847 1978 
L 2700 1978 
Q 2663 2397 2488 2606 
Q 2219 2931 1791 2931 
Q 1403 2931 1139 2672 
Q 875 2413 847 1978 
z
" transform="scale(0.015625)"/>
       <path id="ArialMT-64" d="M 2575 0 
L 2575 419 
Q 2259 -75 1647 -75 
Q 1250 -75 917 144 
Q 584 363 401 755 
Q 219 1147 219 1656 
Q 219 2153 384 2558 
Q 550 2963 881 3178 
Q 1213 3394 1622 3394 
Q 1922 3394 2156 3267 
Q 2391 3141 2538 2938 
L 2538 4581 
L 3097 4581 
L 3097 0 
L 2575 0 
z
M 797 1656 
Q 797 1019 1065 703 
Q 1334 388 1700 388 
Q 2069 388 2326 689 
Q 2584 991 2584 1609 
Q 2584 2291 2321 2609 
Q 2059 2928 1675 2928 
Q 1300 2928 1048 2622 
Q 797 2316 797 1656 
z
" transform="scale(0.015625)"/>
       <path id="ArialMT-69" d="M 425 3934 
L 425 4581 
L 988 4581 
L 988 3934 
L 425 3934 
z
M 425 0 
L 425 3319 
L 988 3319 
L 988 0 
L 425 0 
z
" transform="scale(0.015625)"/>
       <path id="ArialMT-63" d="M 2588 1216 
L 3141 1144 
Q 3050 572 2676 248 
Q 2303 -75 1759 -75 
Q 1078 -75 664 370 
Q 250 816 250 1647 
Q 250 2184 428 2587 
Q 606 2991 970 3192 
Q 1334 3394 1763 3394 
Q 2303 3394 2647 3120 
Q 2991 2847 3088 2344 
L 2541 2259 
Q 2463 2594 2264 2762 
Q 2066 2931 1784 2931 
Q 1359 2931 1093 2626 
Q 828 2322 828 1663 
Q 828 994 1084 691 
Q 1341 388 1753 388 
Q 2084 388 2306 591 
Q 2528 794 2588 1216 
z
" transform="scale(0.015625)"/>
       <path id="ArialMT-74" d="M 1650 503 
L 1731 6 
Q 1494 -44 1306 -44 
Q 1000 -44 831 53 
Q 663 150 594 308 
Q 525 466 525 972 
L 525 2881 
L 113 2881 
L 113 3319 
L 525 3319 
L 525 4141 
L 1084 4478 
L 1084 3319 
L 1650 3319 
L 1650 2881 
L 1084 2881 
L 1084 941 
Q 1084 700 1114 631 
Q 1144 563 1211 522 
Q 1278 481 1403 481 
Q 1497 481 1650 503 
z
" transform="scale(0.015625)"/>
       <path id="ArialMT-6f" d="M 213 1659 
Q 213 2581 725 3025 
Q 1153 3394 1769 3394 
Q 2453 3394 2887 2945 
Q 3322 2497 3322 1706 
Q 3322 1066 3130 698 
Q 2938 331 2570 128 
Q 2203 -75 1769 -75 
Q 1072 -75 642 372 
Q 213 819 213 1659 
z
M 791 1659 
Q 791 1022 1069 705 
Q 1347 388 1769 388 
Q 2188 388 2466 706 
Q 2744 1025 2744 1678 
Q 2744 2294 2464 2611 
Q 2184 2928 1769 2928 
Q 1347 2928 1069 2612 
Q 791 2297 791 1659 
z
" transform="scale(0.015625)"/>
       <path id="ArialMT-20" transform="scale(0.015625)"/>
       <path id="ArialMT-28" d="M 1497 -1347 
Q 1031 -759 709 28 
Q 388 816 388 1659 
Q 388 2403 628 3084 
Q 909 3875 1497 4659 
L 1900 4659 
Q 1522 4009 1400 3731 
Q 1209 3300 1100 2831 
Q 966 2247 966 1656 
Q 966 153 1900 -1347 
L 1497 -1347 
z
" transform="scale(0.015625)"/>
       <path id="ArialMT-73" d="M 197 991 
L 753 1078 
Q 800 744 1014 566 
Q 1228 388 1613 388 
Q 2000 388 2187 545 
Q 2375 703 2375 916 
Q 2375 1106 2209 1216 
Q 2094 1291 1634 1406 
Q 1016 1563 777 1677 
Q 538 1791 414 1992 
Q 291 2194 291 2438 
Q 291 2659 392 2848 
Q 494 3038 669 3163 
Q 800 3259 1026 3326 
Q 1253 3394 1513 3394 
Q 1903 3394 2198 3281 
Q 2494 3169 2634 2976 
Q 2775 2784 2828 2463 
L 2278 2388 
Q 2241 2644 2061 2787 
Q 1881 2931 1553 2931 
Q 1166 2931 1000 2803 
Q 834 2675 834 2503 
Q 834 2394 903 2306 
Q 972 2216 1119 2156 
Q 1203 2125 1616 2013 
Q 2213 1853 2448 1751 
Q 2684 1650 2818 1456 
Q 2953 1263 2953 975 
Q 2953 694 2789 445 
Q 2625 197 2315 61 
Q 2006 -75 1616 -75 
Q 969 -75 630 194 
Q 291 463 197 991 
z
" transform="scale(0.015625)"/>
       <path id="ArialMT-7a" d="M 125 0 
L 125 456 
L 2238 2881 
Q 1878 2863 1603 2863 
L 250 2863 
L 250 3319 
L 2963 3319 
L 2963 2947 
L 1166 841 
L 819 456 
Q 1197 484 1528 484 
L 3063 484 
L 3063 0 
L 125 0 
z
" transform="scale(0.015625)"/>
       <path id="ArialMT-29" d="M 791 -1347 
L 388 -1347 
Q 1322 153 1322 1656 
Q 1322 2244 1188 2822 
Q 1081 3291 891 3722 
Q 769 4003 388 4659 
L 791 4659 
Q 1378 3875 1659 3084 
Q 1900 2403 1900 1659 
Q 1900 816 1576 28 
Q 1253 -759 791 -1347 
z
" transform="scale(0.015625)"/>
      </defs>
      <use xlink:href="#ArialMT-50"/>
      <use xlink:href="#ArialMT-72" x="66.699219"/>
      <use xlink:href="#ArialMT-65" x="100"/>
      <use xlink:href="#ArialMT-64" x="155.615234"/>
      <use xlink:href="#ArialMT-69" x="211.230469"/>
      <use xlink:href="#ArialMT-63" x="233.447266"/>
      <use xlink:href="#ArialMT-74" x="283.447266"/>
      <use xlink:href="#ArialMT-6f" x="311.230469"/>
      <use xlink:href="#ArialMT-72" x="366.845703"/>
      <use xlink:href="#ArialMT-20" x="400.146484"/>
      <use xlink:href="#ArialMT-28" x="427.929688"/>
      <use xlink:href="#ArialMT-73" x="461.230469"/>
      <use xlink:href="#ArialMT-74" x="511.230469"/>
      <use xlink:href="#ArialMT-64" x="539.013672"/>
      <use xlink:href="#ArialMT-7a" x="594.628906"/>
      <use xlink:href="#ArialMT-29" x="644.628906"/>
     </g>
    </g>
   </g>
   <g id="matplotlib.axis_2">
    <g id="ytick_1">
     <g id="line2d_9">
      <path d="M 44.510469 316.086249 
L 602.510469 316.086249 
" clip-path="url(#pe051717cd3)" style="fill: none; stroke: #ffffff; stroke-linecap: round"/>
     </g>
     <g id="text_10">
      <!-- −3 -->
      <g style="fill: #262626" transform="translate(22.46875 320.023045) scale(0.11 -0.11)">
       <defs>
        <path id="ArialMT-33" d="M 269 1209 
L 831 1284 
Q 928 806 1161 595 
Q 1394 384 1728 384 
Q 2125 384 2398 659 
Q 2672 934 2672 1341 
Q 2672 1728 2419 1979 
Q 2166 2231 1775 2231 
Q 1616 2231 1378 2169 
L 1441 2663 
Q 1497 2656 1531 2656 
Q 1891 2656 2178 2843 
Q 2466 3031 2466 3422 
Q 2466 3731 2256 3934 
Q 2047 4138 1716 4138 
Q 1388 4138 1169 3931 
Q 950 3725 888 3313 
L 325 3413 
Q 428 3978 793 4289 
Q 1159 4600 1703 4600 
Q 2078 4600 2393 4439 
Q 2709 4278 2876 4000 
Q 3044 3722 3044 3409 
Q 3044 3113 2884 2869 
Q 2725 2625 2413 2481 
Q 2819 2388 3044 2092 
Q 3269 1797 3269 1353 
Q 3269 753 2831 336 
Q 2394 -81 1725 -81 
Q 1122 -81 723 278 
Q 325 638 269 1209 
z
" transform="scale(0.015625)"/>
       </defs>
       <use xlink:href="#ArialMT-2212"/>
       <use xlink:href="#ArialMT-33" x="58.398438"/>
      </g>
     </g>
    </g>
    <g id="ytick_2">
     <g id="line2d_10">
      <path d="M 44.510469 258.144616 
L 602.510469 258.144616 
" clip-path="url(#pe051717cd3)" style="fill: none; stroke: #ffffff; stroke-linecap: round"/>
     </g>
     <g id="text_11">
      <!-- −2 -->
      <g style="fill: #262626" transform="translate(22.46875 262.081413) scale(0.11 -0.11)">
       <use xlink:href="#ArialMT-2212"/>
       <use xlink:href="#ArialMT-32" x="58.398438"/>
      </g>
     </g>
    </g>
    <g id="ytick_3">
     <g id="line2d_11">
      <path d="M 44.510469 200.202983 
L 602.510469 200.202983 
" clip-path="url(#pe051717cd3)" style="fill: none; stroke: #ffffff; stroke-linecap: round"/>
     </g>
     <g id="text_12">
      <!-- −1 -->
      <g style="fill: #262626" transform="translate(22.46875 204.13978) scale(0.11 -0.11)">
       <use xlink:href="#ArialMT-2212"/>
       <use xlink:href="#ArialMT-31" x="58.398438"/>
      </g>
     </g>
    </g>
    <g id="ytick_4">
     <g id="line2d_12">
      <path d="M 44.510469 142.26135 
L 602.510469 142.26135 
" clip-path="url(#pe051717cd3)" style="fill: none; stroke: #ffffff; stroke-linecap: round"/>
     </g>
     <g id="text_13">
      <!-- 0 -->
      <g style="fill: #262626" transform="translate(28.893438 146.198147) scale(0.11 -0.11)">
       <use xlink:href="#ArialMT-30"/>
      </g>
     </g>
    </g>
    <g id="ytick_5">
     <g id="line2d_13">
      <path d="M 44.510469 84.319717 
L 602.510469 84.319717 
" clip-path="url(#pe051717cd3)" style="fill: none; stroke: #ffffff; stroke-linecap: round"/>
     </g>
     <g id="text_14">
      <!-- 1 -->
      <g style="fill: #262626" transform="translate(28.893438 88.256514) scale(0.11 -0.11)">
       <use xlink:href="#ArialMT-31"/>
      </g>
     </g>
    </g>
    <g id="ytick_6">
     <g id="line2d_14">
      <path d="M 44.510469 26.378084 
L 602.510469 26.378084 
" clip-path="url(#pe051717cd3)" style="fill: none; stroke: #ffffff; stroke-linecap: round"/>
     </g>
     <g id="text_15">
      <!-- 2 -->
      <g style="fill: #262626" transform="translate(28.893438 30.314881) scale(0.11 -0.11)">
       <use xlink:href="#ArialMT-32"/>
      </g>
     </g>
    </g>
    <g id="text_16">
     <!-- Outcome (stdz) -->
     <g style="fill: #262626" transform="translate(15.943125 214.527187) rotate(-90) scale(0.12 -0.12)">
      <defs>
       <path id="ArialMT-4f" d="M 309 2231 
Q 309 3372 921 4017 
Q 1534 4663 2503 4663 
Q 3138 4663 3647 4359 
Q 4156 4056 4423 3514 
Q 4691 2972 4691 2284 
Q 4691 1588 4409 1038 
Q 4128 488 3612 205 
Q 3097 -78 2500 -78 
Q 1853 -78 1343 234 
Q 834 547 571 1087 
Q 309 1628 309 2231 
z
M 934 2222 
Q 934 1394 1379 917 
Q 1825 441 2497 441 
Q 3181 441 3623 922 
Q 4066 1403 4066 2288 
Q 4066 2847 3877 3264 
Q 3688 3681 3323 3911 
Q 2959 4141 2506 4141 
Q 1863 4141 1398 3698 
Q 934 3256 934 2222 
z
" transform="scale(0.015625)"/>
       <path id="ArialMT-75" d="M 2597 0 
L 2597 488 
Q 2209 -75 1544 -75 
Q 1250 -75 995 37 
Q 741 150 617 320 
Q 494 491 444 738 
Q 409 903 409 1263 
L 409 3319 
L 972 3319 
L 972 1478 
Q 972 1038 1006 884 
Q 1059 663 1231 536 
Q 1403 409 1656 409 
Q 1909 409 2131 539 
Q 2353 669 2445 892 
Q 2538 1116 2538 1541 
L 2538 3319 
L 3100 3319 
L 3100 0 
L 2597 0 
z
" transform="scale(0.015625)"/>
       <path id="ArialMT-6d" d="M 422 0 
L 422 3319 
L 925 3319 
L 925 2853 
Q 1081 3097 1340 3245 
Q 1600 3394 1931 3394 
Q 2300 3394 2536 3241 
Q 2772 3088 2869 2813 
Q 3263 3394 3894 3394 
Q 4388 3394 4653 3120 
Q 4919 2847 4919 2278 
L 4919 0 
L 4359 0 
L 4359 2091 
Q 4359 2428 4304 2576 
Q 4250 2725 4106 2815 
Q 3963 2906 3769 2906 
Q 3419 2906 3187 2673 
Q 2956 2441 2956 1928 
L 2956 0 
L 2394 0 
L 2394 2156 
Q 2394 2531 2256 2718 
Q 2119 2906 1806 2906 
Q 1569 2906 1367 2781 
Q 1166 2656 1075 2415 
Q 984 2175 984 1722 
L 984 0 
L 422 0 
z
" transform="scale(0.015625)"/>
      </defs>
      <use xlink:href="#ArialMT-4f"/>
      <use xlink:href="#ArialMT-75" x="77.783203"/>
      <use xlink:href="#ArialMT-74" x="133.398438"/>
      <use xlink:href="#ArialMT-63" x="161.181641"/>
      <use xlink:href="#ArialMT-6f" x="211.181641"/>
      <use xlink:href="#ArialMT-6d" x="266.796875"/>
      <use xlink:href="#ArialMT-65" x="350.097656"/>
      <use xlink:href="#ArialMT-20" x="405.712891"/>
      <use xlink:href="#ArialMT-28" x="433.496094"/>
      <use xlink:href="#ArialMT-73" x="466.796875"/>
      <use xlink:href="#ArialMT-74" x="516.796875"/>
      <use xlink:href="#ArialMT-64" x="544.580078"/>
      <use xlink:href="#ArialMT-7a" x="600.195312"/>
      <use xlink:href="#ArialMT-29" x="650.195312"/>
     </g>
    </g>
   </g>
   <g id="PathCollection_1">
    <defs>
     <path id="m6b10451892" d="M 0 3 
C 0.795609 3 1.55874 2.683901 2.12132 2.12132 
C 2.683901 1.55874 3 0.795609 3 0 
C 3 -0.795609 2.683901 -1.55874 2.12132 -2.12132 
C 1.55874 -2.683901 0.795609 -3 0 -3 
C -0.795609 -3 -1.55874 -2.683901 -2.12132 -2.12132 
C -2.683901 -1.55874 -3 -0.795609 -3 0 
C -3 0.795609 -2.683901 1.55874 -2.12132 2.12132 
C -1.55874 2.683901 -0.795609 3 0 3 
z
" style="stroke: #0173b2"/>
    </defs>
    <g clip-path="url(#pe051717cd3)">
     <use xlink:href="#m6b10451892" x="369.152529" y="89.043924" style="fill: #0173b2; stroke: #0173b2"/>
     <use xlink:href="#m6b10451892" x="99.476818" y="237.482104" style="fill: #0173b2; stroke: #0173b2"/>
     <use xlink:href="#m6b10451892" x="313.975126" y="93.628121" style="fill: #0173b2; stroke: #0173b2"/>
     <use xlink:href="#m6b10451892" x="102.862641" y="225.677207" style="fill: #0173b2; stroke: #0173b2"/>
     <use xlink:href="#m6b10451892" x="238.284452" y="93.144828" style="fill: #0173b2; stroke: #0173b2"/>
     <use xlink:href="#m6b10451892" x="278.675509" y="71.531207" style="fill: #0173b2; stroke: #0173b2"/>
     <use xlink:href="#m6b10451892" x="222.670548" y="78.441291" style="fill: #0173b2; stroke: #0173b2"/>
     <use xlink:href="#m6b10451892" x="491.587736" y="167.539762" style="fill: #0173b2; stroke: #0173b2"/>
     <use xlink:href="#m6b10451892" x="80.841559" y="295.497077" style="fill: #0173b2; stroke: #0173b2"/>
     <use xlink:href="#m6b10451892" x="86.775879" y="271.373396" style="fill: #0173b2; stroke: #0173b2"/>
     <use xlink:href="#m6b10451892" x="376.711723" y="92.568169" style="fill: #0173b2; stroke: #0173b2"/>
     <use xlink:href="#m6b10451892" x="559.304181" y="227.855166" style="fill: #0173b2; stroke: #0173b2"/>
     <use xlink:href="#m6b10451892" x="499.444492" y="184.849845" style="fill: #0173b2; stroke: #0173b2"/>
     <use xlink:href="#m6b10451892" x="188.408801" y="110.594141" style="fill: #0173b2; stroke: #0173b2"/>
     <use xlink:href="#m6b10451892" x="323.456823" y="76.204414" style="fill: #0173b2; stroke: #0173b2"/>
     <use xlink:href="#m6b10451892" x="479.154318" y="159.370663" style="fill: #0173b2; stroke: #0173b2"/>
     <use xlink:href="#m6b10451892" x="432.946517" y="156.063639" style="fill: #0173b2; stroke: #0173b2"/>
     <use xlink:href="#m6b10451892" x="363.669916" y="120.765974" style="fill: #0173b2; stroke: #0173b2"/>
     <use xlink:href="#m6b10451892" x="405.49358" y="121.08936" style="fill: #0173b2; stroke: #0173b2"/>
     <use xlink:href="#m6b10451892" x="483.01221" y="176.652798" style="fill: #0173b2; stroke: #0173b2"/>
     <use xlink:href="#m6b10451892" x="248.14121" y="85.332254" style="fill: #0173b2; stroke: #0173b2"/>
     <use xlink:href="#m6b10451892" x="178.874891" y="105.917741" style="fill: #0173b2; stroke: #0173b2"/>
     <use xlink:href="#m6b10451892" x="363.525105" y="101.539516" style="fill: #0173b2; stroke: #0173b2"/>
     <use xlink:href="#m6b10451892" x="500.658315" y="184.194446" style="fill: #0173b2; stroke: #0173b2"/>
     <use xlink:href="#m6b10451892" x="295.312319" y="112.991523" style="fill: #0173b2; stroke: #0173b2"/>
     <use xlink:href="#m6b10451892" x="417.598868" y="153.298718" style="fill: #0173b2; stroke: #0173b2"/>
     <use xlink:href="#m6b10451892" x="322.034405" y="107.303809" style="fill: #0173b2; stroke: #0173b2"/>
     <use xlink:href="#m6b10451892" x="234.919521" y="86.390477" style="fill: #0173b2; stroke: #0173b2"/>
     <use xlink:href="#m6b10451892" x="349.69172" y="93.273117" style="fill: #0173b2; stroke: #0173b2"/>
     <use xlink:href="#m6b10451892" x="142.467733" y="170.913011" style="fill: #0173b2; stroke: #0173b2"/>
     <use xlink:href="#m6b10451892" x="90.490638" y="251.273943" style="fill: #0173b2; stroke: #0173b2"/>
     <use xlink:href="#m6b10451892" x="164.185194" y="132.880651" style="fill: #0173b2; stroke: #0173b2"/>
     <use xlink:href="#m6b10451892" x="424.716342" y="141.565087" style="fill: #0173b2; stroke: #0173b2"/>
     <use xlink:href="#m6b10451892" x="181.859953" y="103.887231" style="fill: #0173b2; stroke: #0173b2"/>
     <use xlink:href="#m6b10451892" x="449.657239" y="148.638652" style="fill: #0173b2; stroke: #0173b2"/>
     <use xlink:href="#m6b10451892" x="156.346226" y="144.460866" style="fill: #0173b2; stroke: #0173b2"/>
     <use xlink:href="#m6b10451892" x="87.632441" y="270.840974" style="fill: #0173b2; stroke: #0173b2"/>
     <use xlink:href="#m6b10451892" x="288.889556" y="79.32063" style="fill: #0173b2; stroke: #0173b2"/>
     <use xlink:href="#m6b10451892" x="355.606411" y="107.263807" style="fill: #0173b2; stroke: #0173b2"/>
     <use xlink:href="#m6b10451892" x="577.146832" y="222.407689" style="fill: #0173b2; stroke: #0173b2"/>
     <use xlink:href="#m6b10451892" x="371.323739" y="97.392962" style="fill: #0173b2; stroke: #0173b2"/>
     <use xlink:href="#m6b10451892" x="231.443883" y="80.29304" style="fill: #0173b2; stroke: #0173b2"/>
     <use xlink:href="#m6b10451892" x="348.718231" y="84.109899" style="fill: #0173b2; stroke: #0173b2"/>
     <use xlink:href="#m6b10451892" x="293.33231" y="91.440815" style="fill: #0173b2; stroke: #0173b2"/>
     <use xlink:href="#m6b10451892" x="296.375599" y="71.224391" style="fill: #0173b2; stroke: #0173b2"/>
     <use xlink:href="#m6b10451892" x="429.715883" y="144.431698" style="fill: #0173b2; stroke: #0173b2"/>
     <use xlink:href="#m6b10451892" x="298.368473" y="85.473931" style="fill: #0173b2; stroke: #0173b2"/>
     <use xlink:href="#m6b10451892" x="459.615523" y="162.683391" style="fill: #0173b2; stroke: #0173b2"/>
     <use xlink:href="#m6b10451892" x="520.301097" y="183.656034" style="fill: #0173b2; stroke: #0173b2"/>
     <use xlink:href="#m6b10451892" x="321.676444" y="77.923818" style="fill: #0173b2; stroke: #0173b2"/>
     <use xlink:href="#m6b10451892" x="339.903373" y="125.988609" style="fill: #0173b2; stroke: #0173b2"/>
     <use xlink:href="#m6b10451892" x="422.223384" y="148.049204" style="fill: #0173b2; stroke: #0173b2"/>
     <use xlink:href="#m6b10451892" x="106.175297" y="241.944654" style="fill: #0173b2; stroke: #0173b2"/>
     <use xlink:href="#m6b10451892" x="290.094886" y="84.737158" style="fill: #0173b2; stroke: #0173b2"/>
     <use xlink:href="#m6b10451892" x="71.524589" y="324.72" style="fill: #0173b2; stroke: #0173b2"/>
     <use xlink:href="#m6b10451892" x="69.874105" y="304.328323" style="fill: #0173b2; stroke: #0173b2"/>
     <use xlink:href="#m6b10451892" x="165.902323" y="124.85109" style="fill: #0173b2; stroke: #0173b2"/>
     <use xlink:href="#m6b10451892" x="474.45067" y="152.616094" style="fill: #0173b2; stroke: #0173b2"/>
     <use xlink:href="#m6b10451892" x="310.407441" y="83.389184" style="fill: #0173b2; stroke: #0173b2"/>
     <use xlink:href="#m6b10451892" x="230.027329" y="81.641893" style="fill: #0173b2; stroke: #0173b2"/>
     <use xlink:href="#m6b10451892" x="495.533241" y="153.953696" style="fill: #0173b2; stroke: #0173b2"/>
     <use xlink:href="#m6b10451892" x="235.25287" y="84.514062" style="fill: #0173b2; stroke: #0173b2"/>
     <use xlink:href="#m6b10451892" x="158.654909" y="135.387726" style="fill: #0173b2; stroke: #0173b2"/>
     <use xlink:href="#m6b10451892" x="157.700945" y="149.006953" style="fill: #0173b2; stroke: #0173b2"/>
     <use xlink:href="#m6b10451892" x="138.977782" y="158.484081" style="fill: #0173b2; stroke: #0173b2"/>
     <use xlink:href="#m6b10451892" x="110.976667" y="207.222231" style="fill: #0173b2; stroke: #0173b2"/>
     <use xlink:href="#m6b10451892" x="409.375034" y="131.735857" style="fill: #0173b2; stroke: #0173b2"/>
     <use xlink:href="#m6b10451892" x="558.47651" y="193.085427" style="fill: #0173b2; stroke: #0173b2"/>
     <use xlink:href="#m6b10451892" x="123.422699" y="184.475324" style="fill: #0173b2; stroke: #0173b2"/>
     <use xlink:href="#m6b10451892" x="145.325292" y="172.219482" style="fill: #0173b2; stroke: #0173b2"/>
     <use xlink:href="#m6b10451892" x="440.577333" y="156.232073" style="fill: #0173b2; stroke: #0173b2"/>
     <use xlink:href="#m6b10451892" x="532.060964" y="161.182229" style="fill: #0173b2; stroke: #0173b2"/>
     <use xlink:href="#m6b10451892" x="525.918264" y="193.907585" style="fill: #0173b2; stroke: #0173b2"/>
     <use xlink:href="#m6b10451892" x="325.983982" y="96.49456" style="fill: #0173b2; stroke: #0173b2"/>
     <use xlink:href="#m6b10451892" x="330.441847" y="90.620888" style="fill: #0173b2; stroke: #0173b2"/>
     <use xlink:href="#m6b10451892" x="493.215659" y="196.474095" style="fill: #0173b2; stroke: #0173b2"/>
     <use xlink:href="#m6b10451892" x="416.516135" y="114.047543" style="fill: #0173b2; stroke: #0173b2"/>
     <use xlink:href="#m6b10451892" x="461.763725" y="138.749343" style="fill: #0173b2; stroke: #0173b2"/>
     <use xlink:href="#m6b10451892" x="290.980043" y="76.093338" style="fill: #0173b2; stroke: #0173b2"/>
     <use xlink:href="#m6b10451892" x="210.05215" y="97.131732" style="fill: #0173b2; stroke: #0173b2"/>
     <use xlink:href="#m6b10451892" x="490.724209" y="174.115367" style="fill: #0173b2; stroke: #0173b2"/>
     <use xlink:href="#m6b10451892" x="246.993354" y="90.401912" style="fill: #0173b2; stroke: #0173b2"/>
     <use xlink:href="#m6b10451892" x="498.301674" y="184.134741" style="fill: #0173b2; stroke: #0173b2"/>
     <use xlink:href="#m6b10451892" x="441.218257" y="147.17126" style="fill: #0173b2; stroke: #0173b2"/>
     <use xlink:href="#m6b10451892" x="189.927085" y="113.825113" style="fill: #0173b2; stroke: #0173b2"/>
     <use xlink:href="#m6b10451892" x="226.332206" y="85.845805" style="fill: #0173b2; stroke: #0173b2"/>
     <use xlink:href="#m6b10451892" x="277.819345" y="73.495831" style="fill: #0173b2; stroke: #0173b2"/>
     <use xlink:href="#m6b10451892" x="378.637467" y="88.95705" style="fill: #0173b2; stroke: #0173b2"/>
     <use xlink:href="#m6b10451892" x="510.793077" y="193.078979" style="fill: #0173b2; stroke: #0173b2"/>
     <use xlink:href="#m6b10451892" x="205.373586" y="97.015725" style="fill: #0173b2; stroke: #0173b2"/>
     <use xlink:href="#m6b10451892" x="138.218704" y="147.901457" style="fill: #0173b2; stroke: #0173b2"/>
     <use xlink:href="#m6b10451892" x="524.396393" y="189.436037" style="fill: #0173b2; stroke: #0173b2"/>
     <use xlink:href="#m6b10451892" x="404.590977" y="126.383506" style="fill: #0173b2; stroke: #0173b2"/>
     <use xlink:href="#m6b10451892" x="534.155469" y="195.575023" style="fill: #0173b2; stroke: #0173b2"/>
     <use xlink:href="#m6b10451892" x="186.378212" y="122.900885" style="fill: #0173b2; stroke: #0173b2"/>
     <use xlink:href="#m6b10451892" x="179.978123" y="116.160722" style="fill: #0173b2; stroke: #0173b2"/>
     <use xlink:href="#m6b10451892" x="478.299455" y="170.109605" style="fill: #0173b2; stroke: #0173b2"/>
     <use xlink:href="#m6b10451892" x="96.068535" y="243.9845" style="fill: #0173b2; stroke: #0173b2"/>
     <use xlink:href="#m6b10451892" x="280.09068" y="74.140301" style="fill: #0173b2; stroke: #0173b2"/>
     <use xlink:href="#m6b10451892" x="191.312725" y="96.519543" style="fill: #0173b2; stroke: #0173b2"/>
    </g>
   </g>
   <g id="PolyCollection_1">
    <defs>
     <path id="m7918a59327" d="M 71.14866 -348.418349 
L 71.14866 -120.375304 
L 72.423214 -120.431302 
L 74.972323 -120.484857 
L 77.521433 -120.53597 
L 80.070542 -120.584639 
L 82.619651 -120.630866 
L 85.16876 -120.67465 
L 87.717869 -120.715991 
L 90.266979 -120.754889 
L 92.816088 -120.791345 
L 95.365197 -120.825357 
L 97.914306 -120.856927 
L 100.463415 -120.886054 
L 103.012524 -120.912738 
L 105.561634 -120.93698 
L 108.110743 -120.958778 
L 110.659852 -120.978134 
L 113.208961 -120.995047 
L 115.75807 -121.009517 
L 118.30718 -121.021544 
L 120.856289 -121.031129 
L 123.405398 -121.03827 
L 125.954507 -121.042969 
L 128.503616 -121.045225 
L 131.052725 -121.045038 
L 133.601835 -121.042409 
L 136.150944 -121.037336 
L 138.700053 -121.029821 
L 141.249162 -120.830146 
L 143.798271 -120.637775 
L 146.347381 -120.489574 
L 148.89649 -120.400512 
L 151.445599 -120.385714 
L 153.994708 -120.339771 
L 156.543817 -120.348196 
L 159.092926 -120.384041 
L 161.642036 -120.607212 
L 164.191145 -120.912163 
L 166.740254 -120.774239 
L 169.289363 -120.811674 
L 171.838472 -120.994774 
L 174.387582 -121.408207 
L 176.936691 -121.687178 
L 179.4858 -121.718554 
L 182.034909 -121.69588 
L 184.584018 -121.73091 
L 187.133127 -121.841148 
L 189.682237 -122.028338 
L 192.231346 -122.29463 
L 194.780455 -122.642583 
L 197.329564 -122.973317 
L 199.878673 -123.271952 
L 202.427783 -123.523975 
L 204.976892 -123.714665 
L 207.526001 -123.829084 
L 210.07511 -123.889174 
L 212.624219 -124.112217 
L 215.173329 -124.278419 
L 217.722438 -124.418702 
L 220.271547 -124.508569 
L 222.820656 -124.736322 
L 225.369765 -124.974228 
L 227.918874 -125.151095 
L 230.467984 -125.432998 
L 233.017093 -125.75826 
L 235.566202 -126.150834 
L 238.115311 -126.516784 
L 240.66442 -126.841909 
L 243.21353 -127.184595 
L 245.762639 -127.538651 
L 248.311748 -127.804343 
L 250.860857 -127.906337 
L 253.409966 -128.150058 
L 255.959075 -128.307865 
L 258.508185 -128.614773 
L 261.057294 -128.639846 
L 263.606403 -128.587613 
L 266.155512 -128.515094 
L 268.704621 -128.42101 
L 271.253731 -128.303298 
L 273.80284 -128.149574 
L 276.351949 -127.961105 
L 278.901058 -127.825145 
L 281.450167 -127.704112 
L 283.999276 -127.662725 
L 286.548386 -127.699618 
L 289.097495 -127.824519 
L 291.646604 -128.03591 
L 294.195713 -128.320179 
L 296.744822 -128.393916 
L 299.293932 -128.572151 
L 301.843041 -128.761711 
L 304.39215 -128.73066 
L 306.941259 -128.987934 
L 309.490368 -129.092799 
L 312.039477 -129.169967 
L 314.588587 -129.230837 
L 317.137696 -129.278241 
L 319.686805 -129.482367 
L 322.235914 -129.671579 
L 324.785023 -129.843671 
L 327.334133 -129.996275 
L 329.883242 -130.126866 
L 332.432351 -130.232757 
L 334.98146 -130.311105 
L 337.530569 -130.355736 
L 340.079678 -130.240666 
L 342.628788 -130.181799 
L 345.177897 -130.205571 
L 347.727006 -130.270911 
L 350.276115 -130.13505 
L 352.825224 -130.023886 
L 355.374334 -130.145956 
L 357.923443 -130.32046 
L 360.472552 -130.516597 
L 363.021661 -130.600038 
L 365.57077 -130.583973 
L 368.119879 -130.475106 
L 370.668989 -130.123238 
L 373.218098 -129.958566 
L 375.767207 -129.79612 
L 378.316316 -129.64471 
L 380.865425 -129.513846 
L 383.414535 -129.39328 
L 385.963644 -129.265616 
L 388.512753 -129.223975 
L 391.061862 -129.291056 
L 393.610971 -129.360104 
L 396.16008 -129.547748 
L 398.70919 -129.69781 
L 401.258299 -129.80104 
L 403.807408 -129.871696 
L 406.356517 -129.924221 
L 408.905626 -129.978415 
L 411.454736 -130.025707 
L 414.003845 -130.220775 
L 416.552954 -130.350819 
L 419.102063 -130.418022 
L 421.651172 -130.524278 
L 424.200281 -130.929545 
L 426.749391 -131.234305 
L 429.2985 -131.28724 
L 431.847609 -131.584986 
L 434.396718 -131.785174 
L 436.945827 -132.00675 
L 439.494937 -132.097906 
L 442.044046 -132.157208 
L 444.593155 -132.226364 
L 447.142264 -132.28117 
L 449.691373 -132.327746 
L 452.240482 -132.419073 
L 454.789592 -132.644871 
L 457.338701 -132.750364 
L 459.88781 -132.833607 
L 462.436919 -132.898122 
L 464.986028 -133.026616 
L 467.535138 -133.174159 
L 470.084247 -133.324759 
L 472.633356 -133.47545 
L 475.182465 -133.62339 
L 477.731574 -133.769664 
L 480.280683 -134.060391 
L 482.829793 -134.285504 
L 485.378902 -134.376693 
L 487.928011 -134.327407 
L 490.47712 -134.475603 
L 493.026229 -134.582977 
L 495.575339 -134.531655 
L 498.124448 -134.472995 
L 500.673557 -134.455562 
L 503.222666 -134.404963 
L 505.771775 -134.400745 
L 508.320884 -134.527684 
L 510.869994 -134.523376 
L 513.419103 -134.515911 
L 515.968212 -134.50529 
L 518.517321 -134.491513 
L 521.06643 -134.47458 
L 523.61554 -134.45449 
L 526.164649 -134.431245 
L 528.713758 -134.404843 
L 531.262867 -134.375285 
L 533.811976 -134.34257 
L 536.361085 -134.3067 
L 538.910195 -134.267673 
L 541.459304 -134.22549 
L 544.008413 -134.180151 
L 546.557522 -134.131655 
L 549.106631 -134.080003 
L 551.655741 -134.025195 
L 554.20485 -133.967231 
L 556.753959 -133.906111 
L 559.303068 -133.841834 
L 561.852177 -133.774401 
L 564.401286 -133.703812 
L 566.950396 -133.630067 
L 569.499505 -133.553166 
L 572.048614 -133.473108 
L 574.597723 -133.389894 
L 577.146832 -133.303524 
L 577.146832 -359.541094 
L 577.146832 -359.541094 
L 574.597723 -359.486375 
L 572.048614 -359.432789 
L 569.499505 -359.380337 
L 566.950396 -359.329018 
L 564.401286 -359.278833 
L 561.852177 -359.229781 
L 559.303068 -359.181863 
L 556.753959 -359.135078 
L 554.20485 -359.089427 
L 551.655741 -359.044909 
L 549.106631 -359.001525 
L 546.557522 -358.959274 
L 544.008413 -358.918156 
L 541.459304 -358.878172 
L 538.910195 -358.839322 
L 536.361085 -358.801605 
L 533.811976 -358.765021 
L 531.262867 -358.729571 
L 528.713758 -358.695254 
L 526.164649 -358.662071 
L 523.61554 -358.630021 
L 521.06643 -358.599105 
L 518.517321 -358.569322 
L 515.968212 -358.540673 
L 513.419103 -358.513157 
L 510.869994 -358.486775 
L 508.320884 -358.461526 
L 505.771775 -358.554145 
L 503.222666 -358.698809 
L 500.673557 -358.852384 
L 498.124448 -358.977975 
L 495.575339 -359.127366 
L 493.026229 -359.280801 
L 490.47712 -359.34962 
L 487.928011 -359.205473 
L 485.378902 -359.15077 
L 482.829793 -359.10363 
L 480.280683 -359.048443 
L 477.731574 -358.968052 
L 475.182465 -358.796691 
L 472.633356 -358.440838 
L 470.084247 -358.131558 
L 467.535138 -357.864354 
L 464.986028 -357.635035 
L 462.436919 -357.435642 
L 459.88781 -357.246053 
L 457.338701 -357.08214 
L 454.789592 -356.941251 
L 452.240482 -356.827206 
L 449.691373 -356.916892 
L 447.142264 -357.029451 
L 444.593155 -357.008329 
L 442.044046 -356.908177 
L 439.494937 -356.709598 
L 436.945827 -356.447086 
L 434.396718 -356.104337 
L 431.847609 -355.877326 
L 429.2985 -355.646736 
L 426.749391 -355.493609 
L 424.200281 -355.238643 
L 421.651172 -354.834131 
L 419.102063 -354.734579 
L 416.552954 -354.597024 
L 414.003845 -354.316674 
L 411.454736 -353.89854 
L 408.905626 -353.639493 
L 406.356517 -353.380634 
L 403.807408 -353.184864 
L 401.258299 -353.004121 
L 398.70919 -352.856105 
L 396.16008 -352.870906 
L 393.610971 -352.874395 
L 391.061862 -352.982277 
L 388.512753 -352.934223 
L 385.963644 -352.947589 
L 383.414535 -353.020236 
L 380.865425 -353.085583 
L 378.316316 -353.158376 
L 375.767207 -353.212546 
L 373.218098 -353.238068 
L 370.668989 -353.225542 
L 368.119879 -353.339466 
L 365.57077 -353.489757 
L 363.021661 -353.456227 
L 360.472552 -353.456639 
L 357.923443 -353.18633 
L 355.374334 -352.966693 
L 352.825224 -352.807276 
L 350.276115 -352.786766 
L 347.727006 -352.998397 
L 345.177897 -353.150682 
L 342.628788 -353.2208 
L 340.079678 -353.21897 
L 337.530569 -353.162129 
L 334.98146 -353.132117 
L 332.432351 -353.273288 
L 329.883242 -353.387584 
L 327.334133 -353.473213 
L 324.785023 -353.528021 
L 322.235914 -353.54949 
L 319.686805 -353.534741 
L 317.137696 -353.480533 
L 314.588587 -353.542101 
L 312.039477 -353.590265 
L 309.490368 -353.609508 
L 306.941259 -353.599767 
L 304.39215 -353.597402 
L 301.843041 -353.494643 
L 299.293932 -353.325367 
L 296.744822 -353.234523 
L 294.195713 -353.239805 
L 291.646604 -353.038056 
L 289.097495 -352.842053 
L 286.548386 -352.665274 
L 283.999276 -352.512807 
L 281.450167 -352.368402 
L 278.901058 -352.235222 
L 276.351949 -352.214615 
L 273.80284 -352.33292 
L 271.253731 -352.45145 
L 268.704621 -352.573575 
L 266.155512 -352.706947 
L 263.606403 -352.856424 
L 261.057294 -353.026886 
L 258.508185 -353.085783 
L 255.959075 -352.677787 
L 253.409966 -352.358982 
L 250.860857 -351.974319 
L 248.311748 -351.773925 
L 245.762639 -351.540606 
L 243.21353 -351.241141 
L 240.66442 -350.950541 
L 238.115311 -350.675536 
L 235.566202 -350.37616 
L 233.017093 -349.851451 
L 230.467984 -349.441208 
L 227.918874 -349.126194 
L 225.369765 -348.742634 
L 222.820656 -348.456177 
L 220.271547 -348.116951 
L 217.722438 -348.106879 
L 215.173329 -348.089937 
L 212.624219 -347.979184 
L 210.07511 -347.780186 
L 207.526001 -347.660036 
L 204.976892 -347.430863 
L 202.427783 -347.179079 
L 199.878673 -346.912416 
L 197.329564 -346.638656 
L 194.780455 -346.365625 
L 192.231346 -346.101227 
L 189.682237 -345.858123 
L 187.133127 -345.643359 
L 184.584018 -345.464057 
L 182.034909 -345.327424 
L 179.4858 -345.230578 
L 176.936691 -345.111213 
L 174.387582 -344.819931 
L 171.838472 -344.51346 
L 169.289363 -344.283079 
L 166.740254 -344.076997 
L 164.191145 -343.881129 
L 161.642036 -343.704621 
L 159.092926 -343.559333 
L 156.543817 -343.455835 
L 153.994708 -343.409004 
L 151.445599 -343.366821 
L 148.89649 -343.315165 
L 146.347381 -343.360993 
L 143.798271 -343.502175 
L 141.249162 -343.736841 
L 138.700053 -344.064076 
L 136.150944 -344.132389 
L 133.601835 -344.207853 
L 131.052725 -344.290467 
L 128.503616 -344.380232 
L 125.954507 -344.477147 
L 123.405398 -344.581213 
L 120.856289 -344.692429 
L 118.30718 -344.810795 
L 115.75807 -344.936312 
L 113.208961 -345.06898 
L 110.659852 -345.208798 
L 108.110743 -345.355766 
L 105.561634 -345.509885 
L 103.012524 -345.671154 
L 100.463415 -345.839574 
L 97.914306 -346.015145 
L 95.365197 -346.197865 
L 92.816088 -346.387737 
L 90.266979 -346.584758 
L 87.717869 -346.788931 
L 85.16876 -347.000253 
L 82.619651 -347.218726 
L 80.070542 -347.44435 
L 77.521433 -347.677124 
L 74.972323 -347.917049 
L 72.423214 -348.164124 
L 71.14866 -348.418349 
z
" style="stroke: #de8f05; stroke-opacity: 0.5"/>
    </defs>
    <g clip-path="url(#pe051717cd3)">
     <use xlink:href="#m7918a59327" x="0" y="381.861094" style="fill: #de8f05; fill-opacity: 0.5; stroke: #de8f05; stroke-opacity: 0.5"/>
    </g>
   </g>
   <g id="line2d_15">
    <defs>
     <path id="m6a1622ed9d" d="M 0 1.5 
C 0.397805 1.5 0.77937 1.341951 1.06066 1.06066 
C 1.341951 0.77937 1.5 0.397805 1.5 0 
C 1.5 -0.397805 1.341951 -0.77937 1.06066 -1.06066 
C 0.77937 -1.341951 0.397805 -1.5 0 -1.5 
C -0.397805 -1.5 -0.77937 -1.341951 -1.06066 -1.06066 
C -1.341951 -0.77937 -1.5 -0.397805 -1.5 0 
C -1.5 0.397805 -1.341951 0.77937 -1.06066 1.06066 
C -0.77937 1.341951 -0.397805 1.5 0 1.5 
z
" style="stroke: #de8f05; stroke-opacity: 0.6"/>
    </defs>
    <g clip-path="url(#pe051717cd3)">
     <use xlink:href="#m6a1622ed9d" x="369.152529" y="140.193251" style="fill: #de8f05; fill-opacity: 0.6; stroke: #de8f05; stroke-opacity: 0.6"/>
     <use xlink:href="#m6a1622ed9d" x="99.476818" y="149.46565" style="fill: #de8f05; fill-opacity: 0.6; stroke: #de8f05; stroke-opacity: 0.6"/>
     <use xlink:href="#m6a1622ed9d" x="313.975126" y="142.090444" style="fill: #de8f05; fill-opacity: 0.6; stroke: #de8f05; stroke-opacity: 0.6"/>
     <use xlink:href="#m6a1622ed9d" x="102.862641" y="149.349234" style="fill: #de8f05; fill-opacity: 0.6; stroke: #de8f05; stroke-opacity: 0.6"/>
     <use xlink:href="#m6a1622ed9d" x="238.284452" y="144.692956" style="fill: #de8f05; fill-opacity: 0.6; stroke: #de8f05; stroke-opacity: 0.6"/>
     <use xlink:href="#m6a1622ed9d" x="278.675509" y="143.304169" style="fill: #de8f05; fill-opacity: 0.6; stroke: #de8f05; stroke-opacity: 0.6"/>
     <use xlink:href="#m6a1622ed9d" x="222.670548" y="145.229817" style="fill: #de8f05; fill-opacity: 0.6; stroke: #de8f05; stroke-opacity: 0.6"/>
     <use xlink:href="#m6a1622ed9d" x="491.587736" y="135.983499" style="fill: #de8f05; fill-opacity: 0.6; stroke: #de8f05; stroke-opacity: 0.6"/>
     <use xlink:href="#m6a1622ed9d" x="80.841559" y="150.106396" style="fill: #de8f05; fill-opacity: 0.6; stroke: #de8f05; stroke-opacity: 0.6"/>
     <use xlink:href="#m6a1622ed9d" x="86.775879" y="149.902353" style="fill: #de8f05; fill-opacity: 0.6; stroke: #de8f05; stroke-opacity: 0.6"/>
     <use xlink:href="#m6a1622ed9d" x="376.711723" y="139.93334" style="fill: #de8f05; fill-opacity: 0.6; stroke: #de8f05; stroke-opacity: 0.6"/>
     <use xlink:href="#m6a1622ed9d" x="559.304181" y="133.655169" style="fill: #de8f05; fill-opacity: 0.6; stroke: #de8f05; stroke-opacity: 0.6"/>
     <use xlink:href="#m6a1622ed9d" x="499.444492" y="135.713356" style="fill: #de8f05; fill-opacity: 0.6; stroke: #de8f05; stroke-opacity: 0.6"/>
     <use xlink:href="#m6a1622ed9d" x="188.408801" y="146.407856" style="fill: #de8f05; fill-opacity: 0.6; stroke: #de8f05; stroke-opacity: 0.6"/>
     <use xlink:href="#m6a1622ed9d" x="323.456823" y="141.76443" style="fill: #de8f05; fill-opacity: 0.6; stroke: #de8f05; stroke-opacity: 0.6"/>
     <use xlink:href="#m6a1622ed9d" x="479.154318" y="136.411003" style="fill: #de8f05; fill-opacity: 0.6; stroke: #de8f05; stroke-opacity: 0.6"/>
     <use xlink:href="#m6a1622ed9d" x="432.946517" y="137.99979" style="fill: #de8f05; fill-opacity: 0.6; stroke: #de8f05; stroke-opacity: 0.6"/>
     <use xlink:href="#m6a1622ed9d" x="363.669916" y="140.381763" style="fill: #de8f05; fill-opacity: 0.6; stroke: #de8f05; stroke-opacity: 0.6"/>
     <use xlink:href="#m6a1622ed9d" x="405.49358" y="138.943718" style="fill: #de8f05; fill-opacity: 0.6; stroke: #de8f05; stroke-opacity: 0.6"/>
     <use xlink:href="#m6a1622ed9d" x="483.01221" y="136.278356" style="fill: #de8f05; fill-opacity: 0.6; stroke: #de8f05; stroke-opacity: 0.6"/>
     <use xlink:href="#m6a1622ed9d" x="248.14121" y="144.354046" style="fill: #de8f05; fill-opacity: 0.6; stroke: #de8f05; stroke-opacity: 0.6"/>
     <use xlink:href="#m6a1622ed9d" x="178.874891" y="146.735665" style="fill: #de8f05; fill-opacity: 0.6; stroke: #de8f05; stroke-opacity: 0.6"/>
     <use xlink:href="#m6a1622ed9d" x="363.525105" y="140.386742" style="fill: #de8f05; fill-opacity: 0.6; stroke: #de8f05; stroke-opacity: 0.6"/>
     <use xlink:href="#m6a1622ed9d" x="500.658315" y="135.67162" style="fill: #de8f05; fill-opacity: 0.6; stroke: #de8f05; stroke-opacity: 0.6"/>
     <use xlink:href="#m6a1622ed9d" x="295.312319" y="142.732137" style="fill: #de8f05; fill-opacity: 0.6; stroke: #de8f05; stroke-opacity: 0.6"/>
     <use xlink:href="#m6a1622ed9d" x="417.598868" y="138.527496" style="fill: #de8f05; fill-opacity: 0.6; stroke: #de8f05; stroke-opacity: 0.6"/>
     <use xlink:href="#m6a1622ed9d" x="322.034405" y="141.813338" style="fill: #de8f05; fill-opacity: 0.6; stroke: #de8f05; stroke-opacity: 0.6"/>
     <use xlink:href="#m6a1622ed9d" x="234.919521" y="144.808654" style="fill: #de8f05; fill-opacity: 0.6; stroke: #de8f05; stroke-opacity: 0.6"/>
     <use xlink:href="#m6a1622ed9d" x="349.69172" y="140.862382" style="fill: #de8f05; fill-opacity: 0.6; stroke: #de8f05; stroke-opacity: 0.6"/>
     <use xlink:href="#m6a1622ed9d" x="142.467733" y="147.987471" style="fill: #de8f05; fill-opacity: 0.6; stroke: #de8f05; stroke-opacity: 0.6"/>
     <use xlink:href="#m6a1622ed9d" x="90.490638" y="149.774626" style="fill: #de8f05; fill-opacity: 0.6; stroke: #de8f05; stroke-opacity: 0.6"/>
     <use xlink:href="#m6a1622ed9d" x="164.185194" y="147.240749" style="fill: #de8f05; fill-opacity: 0.6; stroke: #de8f05; stroke-opacity: 0.6"/>
     <use xlink:href="#m6a1622ed9d" x="424.716342" y="138.282772" style="fill: #de8f05; fill-opacity: 0.6; stroke: #de8f05; stroke-opacity: 0.6"/>
     <use xlink:href="#m6a1622ed9d" x="181.859953" y="146.633028" style="fill: #de8f05; fill-opacity: 0.6; stroke: #de8f05; stroke-opacity: 0.6"/>
     <use xlink:href="#m6a1622ed9d" x="449.657239" y="137.425217" style="fill: #de8f05; fill-opacity: 0.6; stroke: #de8f05; stroke-opacity: 0.6"/>
     <use xlink:href="#m6a1622ed9d" x="156.346226" y="147.51028" style="fill: #de8f05; fill-opacity: 0.6; stroke: #de8f05; stroke-opacity: 0.6"/>
     <use xlink:href="#m6a1622ed9d" x="87.632441" y="149.872901" style="fill: #de8f05; fill-opacity: 0.6; stroke: #de8f05; stroke-opacity: 0.6"/>
     <use xlink:href="#m6a1622ed9d" x="288.889556" y="142.952975" style="fill: #de8f05; fill-opacity: 0.6; stroke: #de8f05; stroke-opacity: 0.6"/>
     <use xlink:href="#m6a1622ed9d" x="355.606411" y="140.659015" style="fill: #de8f05; fill-opacity: 0.6; stroke: #de8f05; stroke-opacity: 0.6"/>
     <use xlink:href="#m6a1622ed9d" x="577.146832" y="133.041676" style="fill: #de8f05; fill-opacity: 0.6; stroke: #de8f05; stroke-opacity: 0.6"/>
     <use xlink:href="#m6a1622ed9d" x="371.323739" y="140.118598" style="fill: #de8f05; fill-opacity: 0.6; stroke: #de8f05; stroke-opacity: 0.6"/>
     <use xlink:href="#m6a1622ed9d" x="231.443883" y="144.928159" style="fill: #de8f05; fill-opacity: 0.6; stroke: #de8f05; stroke-opacity: 0.6"/>
     <use xlink:href="#m6a1622ed9d" x="348.718231" y="140.895854" style="fill: #de8f05; fill-opacity: 0.6; stroke: #de8f05; stroke-opacity: 0.6"/>
     <use xlink:href="#m6a1622ed9d" x="293.33231" y="142.800217" style="fill: #de8f05; fill-opacity: 0.6; stroke: #de8f05; stroke-opacity: 0.6"/>
     <use xlink:href="#m6a1622ed9d" x="296.375599" y="142.695578" style="fill: #de8f05; fill-opacity: 0.6; stroke: #de8f05; stroke-opacity: 0.6"/>
     <use xlink:href="#m6a1622ed9d" x="429.715883" y="138.110871" style="fill: #de8f05; fill-opacity: 0.6; stroke: #de8f05; stroke-opacity: 0.6"/>
     <use xlink:href="#m6a1622ed9d" x="298.368473" y="142.627056" style="fill: #de8f05; fill-opacity: 0.6; stroke: #de8f05; stroke-opacity: 0.6"/>
     <use xlink:href="#m6a1622ed9d" x="459.615523" y="137.082816" style="fill: #de8f05; fill-opacity: 0.6; stroke: #de8f05; stroke-opacity: 0.6"/>
     <use xlink:href="#m6a1622ed9d" x="520.301097" y="134.996233" style="fill: #de8f05; fill-opacity: 0.6; stroke: #de8f05; stroke-opacity: 0.6"/>
     <use xlink:href="#m6a1622ed9d" x="321.676444" y="141.825646" style="fill: #de8f05; fill-opacity: 0.6; stroke: #de8f05; stroke-opacity: 0.6"/>
     <use xlink:href="#m6a1622ed9d" x="339.903373" y="141.19894" style="fill: #de8f05; fill-opacity: 0.6; stroke: #de8f05; stroke-opacity: 0.6"/>
     <use xlink:href="#m6a1622ed9d" x="422.223384" y="138.368489" style="fill: #de8f05; fill-opacity: 0.6; stroke: #de8f05; stroke-opacity: 0.6"/>
     <use xlink:href="#m6a1622ed9d" x="106.175297" y="149.235333" style="fill: #de8f05; fill-opacity: 0.6; stroke: #de8f05; stroke-opacity: 0.6"/>
     <use xlink:href="#m6a1622ed9d" x="290.094886" y="142.911531" style="fill: #de8f05; fill-opacity: 0.6; stroke: #de8f05; stroke-opacity: 0.6"/>
     <use xlink:href="#m6a1622ed9d" x="71.524589" y="150.426746" style="fill: #de8f05; fill-opacity: 0.6; stroke: #de8f05; stroke-opacity: 0.6"/>
     <use xlink:href="#m6a1622ed9d" x="69.874105" y="150.483495" style="fill: #de8f05; fill-opacity: 0.6; stroke: #de8f05; stroke-opacity: 0.6"/>
     <use xlink:href="#m6a1622ed9d" x="165.902323" y="147.181708" style="fill: #de8f05; fill-opacity: 0.6; stroke: #de8f05; stroke-opacity: 0.6"/>
     <use xlink:href="#m6a1622ed9d" x="474.45067" y="136.572731" style="fill: #de8f05; fill-opacity: 0.6; stroke: #de8f05; stroke-opacity: 0.6"/>
     <use xlink:href="#m6a1622ed9d" x="310.407441" y="142.213114" style="fill: #de8f05; fill-opacity: 0.6; stroke: #de8f05; stroke-opacity: 0.6"/>
     <use xlink:href="#m6a1622ed9d" x="230.027329" y="144.976865" style="fill: #de8f05; fill-opacity: 0.6; stroke: #de8f05; stroke-opacity: 0.6"/>
     <use xlink:href="#m6a1622ed9d" x="495.533241" y="135.847838" style="fill: #de8f05; fill-opacity: 0.6; stroke: #de8f05; stroke-opacity: 0.6"/>
     <use xlink:href="#m6a1622ed9d" x="235.25287" y="144.797192" style="fill: #de8f05; fill-opacity: 0.6; stroke: #de8f05; stroke-opacity: 0.6"/>
     <use xlink:href="#m6a1622ed9d" x="158.654909" y="147.430899" style="fill: #de8f05; fill-opacity: 0.6; stroke: #de8f05; stroke-opacity: 0.6"/>
     <use xlink:href="#m6a1622ed9d" x="157.700945" y="147.4637" style="fill: #de8f05; fill-opacity: 0.6; stroke: #de8f05; stroke-opacity: 0.6"/>
     <use xlink:href="#m6a1622ed9d" x="138.977782" y="148.107468" style="fill: #de8f05; fill-opacity: 0.6; stroke: #de8f05; stroke-opacity: 0.6"/>
     <use xlink:href="#m6a1622ed9d" x="110.976667" y="149.070245" style="fill: #de8f05; fill-opacity: 0.6; stroke: #de8f05; stroke-opacity: 0.6"/>
     <use xlink:href="#m6a1622ed9d" x="409.375034" y="138.81026" style="fill: #de8f05; fill-opacity: 0.6; stroke: #de8f05; stroke-opacity: 0.6"/>
     <use xlink:href="#m6a1622ed9d" x="558.47651" y="133.683628" style="fill: #de8f05; fill-opacity: 0.6; stroke: #de8f05; stroke-opacity: 0.6"/>
     <use xlink:href="#m6a1622ed9d" x="123.422699" y="148.642306" style="fill: #de8f05; fill-opacity: 0.6; stroke: #de8f05; stroke-opacity: 0.6"/>
     <use xlink:href="#m6a1622ed9d" x="145.325292" y="147.889218" style="fill: #de8f05; fill-opacity: 0.6; stroke: #de8f05; stroke-opacity: 0.6"/>
     <use xlink:href="#m6a1622ed9d" x="440.577333" y="137.737416" style="fill: #de8f05; fill-opacity: 0.6; stroke: #de8f05; stroke-opacity: 0.6"/>
     <use xlink:href="#m6a1622ed9d" x="532.060964" y="134.591887" style="fill: #de8f05; fill-opacity: 0.6; stroke: #de8f05; stroke-opacity: 0.6"/>
     <use xlink:href="#m6a1622ed9d" x="525.918264" y="134.803095" style="fill: #de8f05; fill-opacity: 0.6; stroke: #de8f05; stroke-opacity: 0.6"/>
     <use xlink:href="#m6a1622ed9d" x="325.983982" y="141.677538" style="fill: #de8f05; fill-opacity: 0.6; stroke: #de8f05; stroke-opacity: 0.6"/>
     <use xlink:href="#m6a1622ed9d" x="330.441847" y="141.524261" style="fill: #de8f05; fill-opacity: 0.6; stroke: #de8f05; stroke-opacity: 0.6"/>
     <use xlink:href="#m6a1622ed9d" x="493.215659" y="135.927525" style="fill: #de8f05; fill-opacity: 0.6; stroke: #de8f05; stroke-opacity: 0.6"/>
     <use xlink:href="#m6a1622ed9d" x="416.516135" y="138.564724" style="fill: #de8f05; fill-opacity: 0.6; stroke: #de8f05; stroke-opacity: 0.6"/>
     <use xlink:href="#m6a1622ed9d" x="461.763725" y="137.008953" style="fill: #de8f05; fill-opacity: 0.6; stroke: #de8f05; stroke-opacity: 0.6"/>
     <use xlink:href="#m6a1622ed9d" x="290.980043" y="142.881096" style="fill: #de8f05; fill-opacity: 0.6; stroke: #de8f05; stroke-opacity: 0.6"/>
     <use xlink:href="#m6a1622ed9d" x="210.05215" y="145.663682" style="fill: #de8f05; fill-opacity: 0.6; stroke: #de8f05; stroke-opacity: 0.6"/>
     <use xlink:href="#m6a1622ed9d" x="490.724209" y="136.01319" style="fill: #de8f05; fill-opacity: 0.6; stroke: #de8f05; stroke-opacity: 0.6"/>
     <use xlink:href="#m6a1622ed9d" x="246.993354" y="144.393513" style="fill: #de8f05; fill-opacity: 0.6; stroke: #de8f05; stroke-opacity: 0.6"/>
     <use xlink:href="#m6a1622ed9d" x="498.301674" y="135.75265" style="fill: #de8f05; fill-opacity: 0.6; stroke: #de8f05; stroke-opacity: 0.6"/>
     <use xlink:href="#m6a1622ed9d" x="441.218257" y="137.715378" style="fill: #de8f05; fill-opacity: 0.6; stroke: #de8f05; stroke-opacity: 0.6"/>
     <use xlink:href="#m6a1622ed9d" x="189.927085" y="146.355652" style="fill: #de8f05; fill-opacity: 0.6; stroke: #de8f05; stroke-opacity: 0.6"/>
     <use xlink:href="#m6a1622ed9d" x="226.332206" y="145.103916" style="fill: #de8f05; fill-opacity: 0.6; stroke: #de8f05; stroke-opacity: 0.6"/>
     <use xlink:href="#m6a1622ed9d" x="277.819345" y="143.333607" style="fill: #de8f05; fill-opacity: 0.6; stroke: #de8f05; stroke-opacity: 0.6"/>
     <use xlink:href="#m6a1622ed9d" x="378.637467" y="139.867126" style="fill: #de8f05; fill-opacity: 0.6; stroke: #de8f05; stroke-opacity: 0.6"/>
     <use xlink:href="#m6a1622ed9d" x="510.793077" y="135.323152" style="fill: #de8f05; fill-opacity: 0.6; stroke: #de8f05; stroke-opacity: 0.6"/>
     <use xlink:href="#m6a1622ed9d" x="205.373586" y="145.824547" style="fill: #de8f05; fill-opacity: 0.6; stroke: #de8f05; stroke-opacity: 0.6"/>
     <use xlink:href="#m6a1622ed9d" x="138.218704" y="148.133568" style="fill: #de8f05; fill-opacity: 0.6; stroke: #de8f05; stroke-opacity: 0.6"/>
     <use xlink:href="#m6a1622ed9d" x="524.396393" y="134.855422" style="fill: #de8f05; fill-opacity: 0.6; stroke: #de8f05; stroke-opacity: 0.6"/>
     <use xlink:href="#m6a1622ed9d" x="404.590977" y="138.974753" style="fill: #de8f05; fill-opacity: 0.6; stroke: #de8f05; stroke-opacity: 0.6"/>
     <use xlink:href="#m6a1622ed9d" x="534.155469" y="134.519871" style="fill: #de8f05; fill-opacity: 0.6; stroke: #de8f05; stroke-opacity: 0.6"/>
     <use xlink:href="#m6a1622ed9d" x="186.378212" y="146.477675" style="fill: #de8f05; fill-opacity: 0.6; stroke: #de8f05; stroke-opacity: 0.6"/>
     <use xlink:href="#m6a1622ed9d" x="179.978123" y="146.697732" style="fill: #de8f05; fill-opacity: 0.6; stroke: #de8f05; stroke-opacity: 0.6"/>
     <use xlink:href="#m6a1622ed9d" x="478.299455" y="136.440397" style="fill: #de8f05; fill-opacity: 0.6; stroke: #de8f05; stroke-opacity: 0.6"/>
     <use xlink:href="#m6a1622ed9d" x="96.068535" y="149.582839" style="fill: #de8f05; fill-opacity: 0.6; stroke: #de8f05; stroke-opacity: 0.6"/>
     <use xlink:href="#m6a1622ed9d" x="280.09068" y="143.255511" style="fill: #de8f05; fill-opacity: 0.6; stroke: #de8f05; stroke-opacity: 0.6"/>
     <use xlink:href="#m6a1622ed9d" x="191.312725" y="146.308009" style="fill: #de8f05; fill-opacity: 0.6; stroke: #de8f05; stroke-opacity: 0.6"/>
    </g>
   </g>
   <g id="line2d_16">
    <path d="M 71.14866 261.48579 
L 74.972323 261.376236 
L 100.463415 260.97504 
L 125.954507 260.818125 
L 138.700053 260.831273 
L 146.347381 261.37152 
L 151.445599 261.47538 
L 156.543817 261.512898 
L 159.092926 261.477052 
L 164.191145 260.948931 
L 166.740254 261.086855 
L 169.289363 261.04942 
L 171.838472 260.86632 
L 174.387582 260.452887 
L 176.936691 260.173916 
L 187.133127 260.019945 
L 192.231346 259.566464 
L 199.878673 258.589142 
L 204.976892 258.146429 
L 215.173329 257.582674 
L 222.820656 257.124772 
L 233.017093 256.102834 
L 240.66442 255.019185 
L 248.311748 254.056751 
L 250.860857 253.954756 
L 258.508185 253.246321 
L 263.606403 253.273481 
L 271.253731 253.557796 
L 281.450167 254.156982 
L 286.548386 254.161475 
L 291.646604 253.825183 
L 294.195713 253.540915 
L 299.293932 253.288943 
L 301.843041 253.099383 
L 304.39215 253.130433 
L 306.941259 252.873159 
L 314.588587 252.630257 
L 317.137696 252.582853 
L 327.334133 251.864819 
L 334.98146 251.549988 
L 337.530569 251.505358 
L 342.628788 251.679294 
L 347.727006 251.590183 
L 352.825224 251.837207 
L 357.923443 251.540633 
L 360.472552 251.344497 
L 365.57077 251.277121 
L 368.119879 251.385988 
L 370.668989 251.737856 
L 383.414535 252.467814 
L 388.512753 252.637119 
L 393.610971 252.50099 
L 398.70919 252.163283 
L 406.356517 251.936873 
L 411.454736 251.835387 
L 416.552954 251.510275 
L 421.651172 251.336816 
L 426.749391 250.626789 
L 429.2985 250.573853 
L 434.396718 250.07592 
L 436.945827 249.854344 
L 447.142264 249.579924 
L 452.240482 249.44202 
L 454.789592 249.216223 
L 472.633356 248.385644 
L 477.731574 248.09143 
L 482.829793 247.57559 
L 485.378902 247.484401 
L 487.928011 247.533687 
L 493.026229 247.278116 
L 505.771775 247.460349 
L 508.320884 247.33341 
L 528.713758 247.456251 
L 549.106631 247.78109 
L 569.499505 248.307928 
L 577.146832 248.55757 
L 577.146832 248.55757 
" clip-path="url(#pe051717cd3)" style="fill: none; stroke: #de8f05; stroke-opacity: 0; stroke-width: 1.5; stroke-linecap: round"/>
   </g>
   <g id="line2d_17">
    <path d="M 71.14866 33.442744 
L 72.423214 33.69697 
L 87.717869 35.072163 
L 103.012524 36.189939 
L 118.30718 37.050299 
L 133.601835 37.653241 
L 138.700053 37.797018 
L 143.798271 38.358919 
L 148.89649 38.545929 
L 159.092926 38.301761 
L 166.740254 37.784096 
L 171.838472 37.347634 
L 176.936691 36.749881 
L 187.133127 36.217735 
L 194.780455 35.495469 
L 207.526001 34.201058 
L 217.722438 33.754215 
L 220.271547 33.744143 
L 233.017093 32.009642 
L 235.566202 31.484934 
L 248.311748 30.087169 
L 250.860857 29.886774 
L 258.508185 28.775311 
L 261.057294 28.834208 
L 271.253731 29.409644 
L 276.351949 29.646478 
L 278.901058 29.625872 
L 289.097495 29.019041 
L 294.195713 28.621289 
L 299.293932 28.535727 
L 304.39215 28.263692 
L 314.588587 28.318993 
L 317.137696 28.380561 
L 322.235914 28.311604 
L 329.883242 28.47351 
L 334.98146 28.728976 
L 345.177897 28.710411 
L 350.276115 29.074327 
L 352.825224 29.053818 
L 357.923443 28.674764 
L 360.472552 28.404455 
L 365.57077 28.371337 
L 370.668989 28.635552 
L 378.316316 28.702718 
L 388.512753 28.926871 
L 391.061862 28.878817 
L 396.16008 28.990187 
L 398.70919 29.004989 
L 406.356517 28.48046 
L 411.454736 27.962554 
L 414.003845 27.54442 
L 416.552954 27.26407 
L 421.651172 27.026962 
L 424.200281 26.622451 
L 429.2985 26.214358 
L 436.945827 25.414007 
L 442.044046 24.952917 
L 447.142264 24.831643 
L 452.240482 25.033888 
L 459.88781 24.615041 
L 467.535138 23.99674 
L 472.633356 23.420256 
L 475.182465 23.064402 
L 480.280683 22.812651 
L 493.026229 22.580293 
L 508.320884 23.399568 
L 544.008413 22.942938 
L 577.146832 22.32 
L 577.146832 22.32 
" clip-path="url(#pe051717cd3)" style="fill: none; stroke: #de8f05; stroke-opacity: 0; stroke-width: 1.5; stroke-linecap: round"/>
   </g>
   <g id="patch_3">
    <path d="M 44.510469 339.84 
L 44.510469 7.2 
" style="fill: none; stroke: #ffffff; stroke-width: 1.25; stroke-linejoin: miter; stroke-linecap: square"/>
   </g>
   <g id="patch_4">
    <path d="M 602.510469 339.84 
L 602.510469 7.2 
" style="fill: none; stroke: #ffffff; stroke-width: 1.25; stroke-linejoin: miter; stroke-linecap: square"/>
   </g>
   <g id="patch_5">
    <path d="M 44.510469 339.84 
L 602.510469 339.84 
" style="fill: none; stroke: #ffffff; stroke-width: 1.25; stroke-linejoin: miter; stroke-linecap: square"/>
   </g>
   <g id="patch_6">
    <path d="M 44.510469 7.2 
L 602.510469 7.2 
" style="fill: none; stroke: #ffffff; stroke-width: 1.25; stroke-linejoin: miter; stroke-linecap: square"/>
   </g>
  </g>
 </g>
 <defs>
  <clipPath id="pe051717cd3">
   <rect x="44.510469" y="7.2" width="558" height="332.64"/>
  </clipPath>
 </defs>
</svg>