<?xml version="1.0" encoding="UTF-8" standalone="no"?>
<!DOCTYPE svg PUBLIC "-//W3C//DTD SVG 1.1//EN"
 "http://www.w3.org/Graphics/SVG/1.1/DTD/svg11.dtd">
<!-- Generated by graphviz version 8.0.4 (0)
 -->
<!-- Pages: 1 -->
<svg width="324pt" height="247pt"
 viewBox="0.00 0.00 323.99 247.13" xmlns="http://www.w3.org/2000/svg" xmlns:xlink="http://www.w3.org/1999/xlink">
<g id="graph0" class="graph" transform="scale(1 1) rotate(0) translate(4 243.13)">
<polygon fill="white" stroke="none" points="-4,4 -4,-243.13 319.99,-243.13 319.99,4 -4,4"/>
<g id="clust1" class="cluster">
<title>cluster434</title>
<path fill="none" stroke="black" d="M137.98,-8C137.98,-8 211.98,-8 211.98,-8 217.98,-8 223.98,-14 223.98,-20 223.98,-20 223.98,-117.82 223.98,-117.82 223.98,-123.82 217.98,-129.82 211.98,-129.82 211.98,-129.82 137.98,-129.82 137.98,-129.82 131.98,-129.82 125.98,-123.82 125.98,-117.82 125.98,-117.82 125.98,-20 125.98,-20 125.98,-14 131.98,-8 137.98,-8"/>
<text text-anchor="middle" x="205.86" y="-15.2" font-family="Times,serif" font-size="14.00">434</text>
</g>
<!-- beta -->
<g id="node1" class="node">
<title>beta</title>
<ellipse fill="none" stroke="black" cx="174.98" cy="-198.48" rx="41.01" ry="40.66"/>
<text text-anchor="middle" x="174.98" y="-209.93" font-family="Times,serif" font-size="14.00">beta</text>
<text text-anchor="middle" x="174.98" y="-193.43" font-family="Times,serif" font-size="14.00">~</text>
<text text-anchor="middle" x="174.98" y="-176.93" font-family="Times,serif" font-size="14.00">Normal</text>
</g>
<!-- effect_size -->
<g id="node2" class="node">
<title>effect_size</title>
<polygon fill="none" stroke="black" points="109.11,-109.91 18.86,-109.91 18.86,-52.41 109.11,-52.41 109.11,-109.91"/>
<text text-anchor="middle" x="63.98" y="-92.61" font-family="Times,serif" font-size="14.00">effect_size</text>
<text text-anchor="middle" x="63.98" y="-76.11" font-family="Times,serif" font-size="14.00">~</text>
<text text-anchor="middle" x="63.98" y="-59.61" font-family="Times,serif" font-size="14.00">Deterministic</text>
</g>
<!-- beta&#45;&gt;effect_size -->
<g id="edge4" class="edge">
<title>beta&#45;&gt;effect_size</title>
<path fill="none" stroke="black" d="M146.97,-168.38C132.18,-153.01 113.9,-134.02 98.27,-117.78"/>
<polygon fill="black" stroke="black" points="101.29,-115.83 91.84,-111.06 96.25,-120.69 101.29,-115.83"/>
</g>
<!-- Y_obs -->
<g id="node5" class="node">
<title>Y_obs</title>
<ellipse fill="lightgrey" stroke="black" cx="174.98" cy="-81.16" rx="41.01" ry="40.66"/>
<text text-anchor="middle" x="174.98" y="-92.61" font-family="Times,serif" font-size="14.00">Y_obs</text>
<text text-anchor="middle" x="174.98" y="-76.11" font-family="Times,serif" font-size="14.00">~</text>
<text text-anchor="middle" x="174.98" y="-59.61" font-family="Times,serif" font-size="14.00">Normal</text>
</g>
<!-- beta&#45;&gt;Y_obs -->
<g id="edge1" class="edge">
<title>beta&#45;&gt;Y_obs</title>
<path fill="none" stroke="black" d="M174.98,-157.47C174.98,-149.6 174.98,-141.24 174.98,-133.07"/>
<polygon fill="black" stroke="black" points="178.48,-133.1 174.98,-123.1 171.48,-133.1 178.48,-133.1"/>
</g>
<!-- alpha -->
<g id="node3" class="node">
<title>alpha</title>
<ellipse fill="none" stroke="black" cx="274.98" cy="-198.48" rx="41.01" ry="40.66"/>
<text text-anchor="middle" x="274.98" y="-209.93" font-family="Times,serif" font-size="14.00">alpha</text>
<text text-anchor="middle" x="274.98" y="-193.43" font-family="Times,serif" font-size="14.00">~</text>
<text text-anchor="middle" x="274.98" y="-176.93" font-family="Times,serif" font-size="14.00">Normal</text>
</g>
<!-- alpha&#45;&gt;Y_obs -->
<g id="edge2" class="edge">
<title>alpha&#45;&gt;Y_obs</title>
<path fill="none" stroke="black" d="M248.45,-166.88C236.14,-152.69 221.39,-135.67 208.34,-120.63"/>
<polygon fill="black" stroke="black" points="210.49,-118.76 201.3,-113.5 205.2,-123.35 210.49,-118.76"/>
</g>
<!-- sigma -->
<g id="node4" class="node">
<title>sigma</title>
<ellipse fill="none" stroke="black" cx="57.98" cy="-198.48" rx="57.98" ry="40.66"/>
<text text-anchor="middle" x="57.98" y="-209.93" font-family="Times,serif" font-size="14.00">sigma</text>
<text text-anchor="middle" x="57.98" y="-193.43" font-family="Times,serif" font-size="14.00">~</text>
<text text-anchor="middle" x="57.98" y="-176.93" font-family="Times,serif" font-size="14.00">HalfNormal</text>
</g>
<!-- sigma&#45;&gt;effect_size -->
<g id="edge5" class="edge">
<title>sigma&#45;&gt;effect_size</title>
<path fill="none" stroke="black" d="M60.06,-157.47C60.68,-145.64 61.35,-132.71 61.96,-120.95"/>
<polygon fill="black" stroke="black" points="65.5,-121.29 62.53,-111.12 58.51,-120.92 65.5,-121.29"/>
</g>
<!-- sigma&#45;&gt;Y_obs -->
<g id="edge3" class="edge">
<title>sigma&#45;&gt;Y_obs</title>
<path fill="none" stroke="black" d="M91.2,-164.74C105.93,-150.22 123.3,-133.1 138.4,-118.22"/>
<polygon fill="black" stroke="black" points="140.4,-121.18 145.06,-111.66 135.48,-116.19 140.4,-121.18"/>
</g>
</g>
</svg>