<?xml version="1.0" encoding="utf-8" standalone="no"?>
<!DOCTYPE svg PUBLIC "-//W3C//DTD SVG 1.1//EN"
  "http://www.w3.org/Graphics/SVG/1.1/DTD/svg11.dtd">
<svg xmlns:xlink="http://www.w3.org/1999/xlink" width="348.636875pt" height="348.768281pt" viewBox="0 0 348.636875 348.768281" xmlns="http://www.w3.org/2000/svg" version="1.1">
 <metadata>
  <rdf:RDF xmlns:dc="http://purl.org/dc/elements/1.1/" xmlns:cc="http://creativecommons.org/ns#" xmlns:rdf="http://www.w3.org/1999/02/22-rdf-syntax-ns#">
   <cc:Work>
    <dc:type rdf:resource="http://purl.org/dc/dcmitype/StillImage"/>
    <dc:date>2023-06-17T10:51:58.020191</dc:date>
    <dc:format>image/svg+xml</dc:format>
    <dc:creator>
     <cc:Agent>
      <dc:title>Matplotlib v3.7.1, https://matplotlib.org/</dc:title>
     </cc:Agent>
    </dc:creator>
   </cc:Work>
  </rdf:RDF>
 </metadata>
 <defs>
  <style type="text/css">*{stroke-linejoin: round; stroke-linecap: butt}</style>
 </defs>
 <g id="figure_1">
  <g id="patch_1">
   <path d="M 0 348.768281 
L 348.636875 348.768281 
L 348.636875 0 
L 0 0 
z
" style="fill: #ffffff"/>
  </g>
  <g id="axes_1">
   <g id="patch_2">
    <path d="M 56.283125 306.9 
L 341.436875 306.9 
L 341.436875 7.2 
L 56.283125 7.2 
z
" style="fill: #eaeaf2"/>
   </g>
   <g id="matplotlib.axis_1">
    <g id="xtick_1">
     <g id="text_1">
      <!-- Adelie -->
      <g style="fill: #262626" transform="translate(88.520469 324.273594) scale(0.11 -0.11)">
       <defs>
        <path id="ArialMT-41" d="M -9 0 
L 1750 4581 
L 2403 4581 
L 4278 0 
L 3588 0 
L 3053 1388 
L 1138 1388 
L 634 0 
L -9 0 
z
M 1313 1881 
L 2866 1881 
L 2388 3150 
Q 2169 3728 2063 4100 
Q 1975 3659 1816 3225 
L 1313 1881 
z
" transform="scale(0.015625)"/>
        <path id="ArialMT-64" d="M 2575 0 
L 2575 419 
Q 2259 -75 1647 -75 
Q 1250 -75 917 144 
Q 584 363 401 755 
Q 219 1147 219 1656 
Q 219 2153 384 2558 
Q 550 2963 881 3178 
Q 1213 3394 1622 3394 
Q 1922 3394 2156 3267 
Q 2391 3141 2538 2938 
L 2538 4581 
L 3097 4581 
L 3097 0 
L 2575 0 
z
M 797 1656 
Q 797 1019 1065 703 
Q 1334 388 1700 388 
Q 2069 388 2326 689 
Q 2584 991 2584 1609 
Q 2584 2291 2321 2609 
Q 2059 2928 1675 2928 
Q 1300 2928 1048 2622 
Q 797 2316 797 1656 
z
" transform="scale(0.015625)"/>
        <path id="ArialMT-65" d="M 2694 1069 
L 3275 997 
Q 3138 488 2766 206 
Q 2394 -75 1816 -75 
Q 1088 -75 661 373 
Q 234 822 234 1631 
Q 234 2469 665 2931 
Q 1097 3394 1784 3394 
Q 2450 3394 2872 2941 
Q 3294 2488 3294 1666 
Q 3294 1616 3291 1516 
L 816 1516 
Q 847 969 1125 678 
Q 1403 388 1819 388 
Q 2128 388 2347 550 
Q 2566 713 2694 1069 
z
M 847 1978 
L 2700 1978 
Q 2663 2397 2488 2606 
Q 2219 2931 1791 2931 
Q 1403 2931 1139 2672 
Q 875 2413 847 1978 
z
" transform="scale(0.015625)"/>
        <path id="ArialMT-6c" d="M 409 0 
L 409 4581 
L 972 4581 
L 972 0 
L 409 0 
z
" transform="scale(0.015625)"/>
        <path id="ArialMT-69" d="M 425 3934 
L 425 4581 
L 988 4581 
L 988 3934 
L 425 3934 
z
M 425 0 
L 425 3319 
L 988 3319 
L 988 0 
L 425 0 
z
" transform="scale(0.015625)"/>
       </defs>
       <use xlink:href="#ArialMT-41"/>
       <use xlink:href="#ArialMT-64" x="66.699219"/>
       <use xlink:href="#ArialMT-65" x="122.314453"/>
       <use xlink:href="#ArialMT-6c" x="177.929688"/>
       <use xlink:href="#ArialMT-69" x="200.146484"/>
       <use xlink:href="#ArialMT-65" x="222.363281"/>
      </g>
     </g>
    </g>
    <g id="xtick_2">
     <g id="text_2">
      <!-- Gentoo -->
      <g style="fill: #262626" transform="translate(180.82 324.273594) scale(0.11 -0.11)">
       <defs>
        <path id="ArialMT-47" d="M 2638 1797 
L 2638 2334 
L 4578 2338 
L 4578 638 
Q 4131 281 3656 101 
Q 3181 -78 2681 -78 
Q 2006 -78 1454 211 
Q 903 500 622 1047 
Q 341 1594 341 2269 
Q 341 2938 620 3517 
Q 900 4097 1425 4378 
Q 1950 4659 2634 4659 
Q 3131 4659 3532 4498 
Q 3934 4338 4162 4050 
Q 4391 3763 4509 3300 
L 3963 3150 
Q 3859 3500 3706 3700 
Q 3553 3900 3268 4020 
Q 2984 4141 2638 4141 
Q 2222 4141 1919 4014 
Q 1616 3888 1430 3681 
Q 1244 3475 1141 3228 
Q 966 2803 966 2306 
Q 966 1694 1177 1281 
Q 1388 869 1791 669 
Q 2194 469 2647 469 
Q 3041 469 3416 620 
Q 3791 772 3984 944 
L 3984 1797 
L 2638 1797 
z
" transform="scale(0.015625)"/>
        <path id="ArialMT-6e" d="M 422 0 
L 422 3319 
L 928 3319 
L 928 2847 
Q 1294 3394 1984 3394 
Q 2284 3394 2536 3286 
Q 2788 3178 2913 3003 
Q 3038 2828 3088 2588 
Q 3119 2431 3119 2041 
L 3119 0 
L 2556 0 
L 2556 2019 
Q 2556 2363 2490 2533 
Q 2425 2703 2258 2804 
Q 2091 2906 1866 2906 
Q 1506 2906 1245 2678 
Q 984 2450 984 1813 
L 984 0 
L 422 0 
z
" transform="scale(0.015625)"/>
        <path id="ArialMT-74" d="M 1650 503 
L 1731 6 
Q 1494 -44 1306 -44 
Q 1000 -44 831 53 
Q 663 150 594 308 
Q 525 466 525 972 
L 525 2881 
L 113 2881 
L 113 3319 
L 525 3319 
L 525 4141 
L 1084 4478 
L 1084 3319 
L 1650 3319 
L 1650 2881 
L 1084 2881 
L 1084 941 
Q 1084 700 1114 631 
Q 1144 563 1211 522 
Q 1278 481 1403 481 
Q 1497 481 1650 503 
z
" transform="scale(0.015625)"/>
        <path id="ArialMT-6f" d="M 213 1659 
Q 213 2581 725 3025 
Q 1153 3394 1769 3394 
Q 2453 3394 2887 2945 
Q 3322 2497 3322 1706 
Q 3322 1066 3130 698 
Q 2938 331 2570 128 
Q 2203 -75 1769 -75 
Q 1072 -75 642 372 
Q 213 819 213 1659 
z
M 791 1659 
Q 791 1022 1069 705 
Q 1347 388 1769 388 
Q 2188 388 2466 706 
Q 2744 1025 2744 1678 
Q 2744 2294 2464 2611 
Q 2184 2928 1769 2928 
Q 1347 2928 1069 2612 
Q 791 2297 791 1659 
z
" transform="scale(0.015625)"/>
       </defs>
       <use xlink:href="#ArialMT-47"/>
       <use xlink:href="#ArialMT-65" x="77.783203"/>
       <use xlink:href="#ArialMT-6e" x="133.398438"/>
       <use xlink:href="#ArialMT-74" x="189.013672"/>
       <use xlink:href="#ArialMT-6f" x="216.796875"/>
       <use xlink:href="#ArialMT-6f" x="272.412109"/>
      </g>
     </g>
    </g>
    <g id="xtick_3">
     <g id="text_3">
      <!-- Chinstrap -->
      <g style="fill: #262626" transform="translate(270.373828 324.407656) scale(0.11 -0.11)">
       <defs>
        <path id="ArialMT-43" d="M 3763 1606 
L 4369 1453 
Q 4178 706 3683 314 
Q 3188 -78 2472 -78 
Q 1731 -78 1267 223 
Q 803 525 561 1097 
Q 319 1669 319 2325 
Q 319 3041 592 3573 
Q 866 4106 1370 4382 
Q 1875 4659 2481 4659 
Q 3169 4659 3637 4309 
Q 4106 3959 4291 3325 
L 3694 3184 
Q 3534 3684 3231 3912 
Q 2928 4141 2469 4141 
Q 1941 4141 1586 3887 
Q 1231 3634 1087 3207 
Q 944 2781 944 2328 
Q 944 1744 1114 1308 
Q 1284 872 1643 656 
Q 2003 441 2422 441 
Q 2931 441 3284 734 
Q 3638 1028 3763 1606 
z
" transform="scale(0.015625)"/>
        <path id="ArialMT-68" d="M 422 0 
L 422 4581 
L 984 4581 
L 984 2938 
Q 1378 3394 1978 3394 
Q 2347 3394 2619 3248 
Q 2891 3103 3008 2847 
Q 3125 2591 3125 2103 
L 3125 0 
L 2563 0 
L 2563 2103 
Q 2563 2525 2380 2717 
Q 2197 2909 1863 2909 
Q 1613 2909 1392 2779 
Q 1172 2650 1078 2428 
Q 984 2206 984 1816 
L 984 0 
L 422 0 
z
" transform="scale(0.015625)"/>
        <path id="ArialMT-73" d="M 197 991 
L 753 1078 
Q 800 744 1014 566 
Q 1228 388 1613 388 
Q 2000 388 2187 545 
Q 2375 703 2375 916 
Q 2375 1106 2209 1216 
Q 2094 1291 1634 1406 
Q 1016 1563 777 1677 
Q 538 1791 414 1992 
Q 291 2194 291 2438 
Q 291 2659 392 2848 
Q 494 3038 669 3163 
Q 800 3259 1026 3326 
Q 1253 3394 1513 3394 
Q 1903 3394 2198 3281 
Q 2494 3169 2634 2976 
Q 2775 2784 2828 2463 
L 2278 2388 
Q 2241 2644 2061 2787 
Q 1881 2931 1553 2931 
Q 1166 2931 1000 2803 
Q 834 2675 834 2503 
Q 834 2394 903 2306 
Q 972 2216 1119 2156 
Q 1203 2125 1616 2013 
Q 2213 1853 2448 1751 
Q 2684 1650 2818 1456 
Q 2953 1263 2953 975 
Q 2953 694 2789 445 
Q 2625 197 2315 61 
Q 2006 -75 1616 -75 
Q 969 -75 630 194 
Q 291 463 197 991 
z
" transform="scale(0.015625)"/>
        <path id="ArialMT-72" d="M 416 0 
L 416 3319 
L 922 3319 
L 922 2816 
Q 1116 3169 1280 3281 
Q 1444 3394 1641 3394 
Q 1925 3394 2219 3213 
L 2025 2691 
Q 1819 2813 1613 2813 
Q 1428 2813 1281 2702 
Q 1134 2591 1072 2394 
Q 978 2094 978 1738 
L 978 0 
L 416 0 
z
" transform="scale(0.015625)"/>
        <path id="ArialMT-61" d="M 2588 409 
Q 2275 144 1986 34 
Q 1697 -75 1366 -75 
Q 819 -75 525 192 
Q 231 459 231 875 
Q 231 1119 342 1320 
Q 453 1522 633 1644 
Q 813 1766 1038 1828 
Q 1203 1872 1538 1913 
Q 2219 1994 2541 2106 
Q 2544 2222 2544 2253 
Q 2544 2597 2384 2738 
Q 2169 2928 1744 2928 
Q 1347 2928 1158 2789 
Q 969 2650 878 2297 
L 328 2372 
Q 403 2725 575 2942 
Q 747 3159 1072 3276 
Q 1397 3394 1825 3394 
Q 2250 3394 2515 3294 
Q 2781 3194 2906 3042 
Q 3031 2891 3081 2659 
Q 3109 2516 3109 2141 
L 3109 1391 
Q 3109 606 3145 398 
Q 3181 191 3288 0 
L 2700 0 
Q 2613 175 2588 409 
z
M 2541 1666 
Q 2234 1541 1622 1453 
Q 1275 1403 1131 1340 
Q 988 1278 909 1158 
Q 831 1038 831 891 
Q 831 666 1001 516 
Q 1172 366 1500 366 
Q 1825 366 2078 508 
Q 2331 650 2450 897 
Q 2541 1088 2541 1459 
L 2541 1666 
z
" transform="scale(0.015625)"/>
        <path id="ArialMT-70" d="M 422 -1272 
L 422 3319 
L 934 3319 
L 934 2888 
Q 1116 3141 1344 3267 
Q 1572 3394 1897 3394 
Q 2322 3394 2647 3175 
Q 2972 2956 3137 2557 
Q 3303 2159 3303 1684 
Q 3303 1175 3120 767 
Q 2938 359 2589 142 
Q 2241 -75 1856 -75 
Q 1575 -75 1351 44 
Q 1128 163 984 344 
L 984 -1272 
L 422 -1272 
z
M 931 1641 
Q 931 1000 1190 694 
Q 1450 388 1819 388 
Q 2194 388 2461 705 
Q 2728 1022 2728 1688 
Q 2728 2322 2467 2637 
Q 2206 2953 1844 2953 
Q 1484 2953 1207 2617 
Q 931 2281 931 1641 
z
" transform="scale(0.015625)"/>
       </defs>
       <use xlink:href="#ArialMT-43"/>
       <use xlink:href="#ArialMT-68" x="72.216797"/>
       <use xlink:href="#ArialMT-69" x="127.832031"/>
       <use xlink:href="#ArialMT-6e" x="150.048828"/>
       <use xlink:href="#ArialMT-73" x="205.664062"/>
       <use xlink:href="#ArialMT-74" x="255.664062"/>
       <use xlink:href="#ArialMT-72" x="283.447266"/>
       <use xlink:href="#ArialMT-61" x="316.748047"/>
       <use xlink:href="#ArialMT-70" x="372.363281"/>
      </g>
     </g>
    </g>
    <g id="text_4">
     <!-- species -->
     <g style="fill: #262626" transform="translate(178.517188 339.183281) scale(0.12 -0.12)">
      <defs>
       <path id="ArialMT-63" d="M 2588 1216 
L 3141 1144 
Q 3050 572 2676 248 
Q 2303 -75 1759 -75 
Q 1078 -75 664 370 
Q 250 816 250 1647 
Q 250 2184 428 2587 
Q 606 2991 970 3192 
Q 1334 3394 1763 3394 
Q 2303 3394 2647 3120 
Q 2991 2847 3088 2344 
L 2541 2259 
Q 2463 2594 2264 2762 
Q 2066 2931 1784 2931 
Q 1359 2931 1093 2626 
Q 828 2322 828 1663 
Q 828 994 1084 691 
Q 1341 388 1753 388 
Q 2084 388 2306 591 
Q 2528 794 2588 1216 
z
" transform="scale(0.015625)"/>
      </defs>
      <use xlink:href="#ArialMT-73"/>
      <use xlink:href="#ArialMT-70" x="50"/>
      <use xlink:href="#ArialMT-65" x="105.615234"/>
      <use xlink:href="#ArialMT-63" x="161.230469"/>
      <use xlink:href="#ArialMT-69" x="211.230469"/>
      <use xlink:href="#ArialMT-65" x="233.447266"/>
      <use xlink:href="#ArialMT-73" x="289.0625"/>
     </g>
    </g>
   </g>
   <g id="matplotlib.axis_2">
    <g id="ytick_1">
     <g id="line2d_1">
      <path d="M 56.283125 253.474391 
L 341.436875 253.474391 
" clip-path="url(#p719995404c)" style="fill: none; stroke: #ffffff; stroke-linecap: round"/>
     </g>
     <g id="text_5">
      <!-- 3000 -->
      <g style="fill: #262626" transform="translate(22.315 257.411188) scale(0.11 -0.11)">
       <defs>
        <path id="ArialMT-33" d="M 269 1209 
L 831 1284 
Q 928 806 1161 595 
Q 1394 384 1728 384 
Q 2125 384 2398 659 
Q 2672 934 2672 1341 
Q 2672 1728 2419 1979 
Q 2166 2231 1775 2231 
Q 1616 2231 1378 2169 
L 1441 2663 
Q 1497 2656 1531 2656 
Q 1891 2656 2178 2843 
Q 2466 3031 2466 3422 
Q 2466 3731 2256 3934 
Q 2047 4138 1716 4138 
Q 1388 4138 1169 3931 
Q 950 3725 888 3313 
L 325 3413 
Q 428 3978 793 4289 
Q 1159 4600 1703 4600 
Q 2078 4600 2393 4439 
Q 2709 4278 2876 4000 
Q 3044 3722 3044 3409 
Q 3044 3113 2884 2869 
Q 2725 2625 2413 2481 
Q 2819 2388 3044 2092 
Q 3269 1797 3269 1353 
Q 3269 753 2831 336 
Q 2394 -81 1725 -81 
Q 1122 -81 723 278 
Q 325 638 269 1209 
z
" transform="scale(0.015625)"/>
        <path id="ArialMT-30" d="M 266 2259 
Q 266 3072 433 3567 
Q 600 4063 929 4331 
Q 1259 4600 1759 4600 
Q 2128 4600 2406 4451 
Q 2684 4303 2865 4023 
Q 3047 3744 3150 3342 
Q 3253 2941 3253 2259 
Q 3253 1453 3087 958 
Q 2922 463 2592 192 
Q 2263 -78 1759 -78 
Q 1097 -78 719 397 
Q 266 969 266 2259 
z
M 844 2259 
Q 844 1131 1108 757 
Q 1372 384 1759 384 
Q 2147 384 2411 759 
Q 2675 1134 2675 2259 
Q 2675 3391 2411 3762 
Q 2147 4134 1753 4134 
Q 1366 4134 1134 3806 
Q 844 3388 844 2259 
z
" transform="scale(0.015625)"/>
       </defs>
       <use xlink:href="#ArialMT-33"/>
       <use xlink:href="#ArialMT-30" x="55.615234"/>
       <use xlink:href="#ArialMT-30" x="111.230469"/>
       <use xlink:href="#ArialMT-30" x="166.845703"/>
      </g>
     </g>
    </g>
    <g id="ytick_2">
     <g id="line2d_2">
      <path d="M 56.283125 190.350404 
L 341.436875 190.350404 
" clip-path="url(#p719995404c)" style="fill: none; stroke: #ffffff; stroke-linecap: round"/>
     </g>
     <g id="text_6">
      <!-- 4000 -->
      <g style="fill: #262626" transform="translate(22.315 194.287201) scale(0.11 -0.11)">
       <defs>
        <path id="ArialMT-34" d="M 2069 0 
L 2069 1097 
L 81 1097 
L 81 1613 
L 2172 4581 
L 2631 4581 
L 2631 1613 
L 3250 1613 
L 3250 1097 
L 2631 1097 
L 2631 0 
L 2069 0 
z
M 2069 1613 
L 2069 3678 
L 634 1613 
L 2069 1613 
z
" transform="scale(0.015625)"/>
       </defs>
       <use xlink:href="#ArialMT-34"/>
       <use xlink:href="#ArialMT-30" x="55.615234"/>
       <use xlink:href="#ArialMT-30" x="111.230469"/>
       <use xlink:href="#ArialMT-30" x="166.845703"/>
      </g>
     </g>
    </g>
    <g id="ytick_3">
     <g id="line2d_3">
      <path d="M 56.283125 127.226417 
L 341.436875 127.226417 
" clip-path="url(#p719995404c)" style="fill: none; stroke: #ffffff; stroke-linecap: round"/>
     </g>
     <g id="text_7">
      <!-- 5000 -->
      <g style="fill: #262626" transform="translate(22.315 131.163214) scale(0.11 -0.11)">
       <defs>
        <path id="ArialMT-35" d="M 266 1200 
L 856 1250 
Q 922 819 1161 601 
Q 1400 384 1738 384 
Q 2144 384 2425 690 
Q 2706 997 2706 1503 
Q 2706 1984 2436 2262 
Q 2166 2541 1728 2541 
Q 1456 2541 1237 2417 
Q 1019 2294 894 2097 
L 366 2166 
L 809 4519 
L 3088 4519 
L 3088 3981 
L 1259 3981 
L 1013 2750 
Q 1425 3038 1878 3038 
Q 2478 3038 2890 2622 
Q 3303 2206 3303 1553 
Q 3303 931 2941 478 
Q 2500 -78 1738 -78 
Q 1113 -78 717 272 
Q 322 622 266 1200 
z
" transform="scale(0.015625)"/>
       </defs>
       <use xlink:href="#ArialMT-35"/>
       <use xlink:href="#ArialMT-30" x="55.615234"/>
       <use xlink:href="#ArialMT-30" x="111.230469"/>
       <use xlink:href="#ArialMT-30" x="166.845703"/>
      </g>
     </g>
    </g>
    <g id="ytick_4">
     <g id="line2d_4">
      <path d="M 56.283125 64.102431 
L 341.436875 64.102431 
" clip-path="url(#p719995404c)" style="fill: none; stroke: #ffffff; stroke-linecap: round"/>
     </g>
     <g id="text_8">
      <!-- 6000 -->
      <g style="fill: #262626" transform="translate(22.315 68.039228) scale(0.11 -0.11)">
       <defs>
        <path id="ArialMT-36" d="M 3184 3459 
L 2625 3416 
Q 2550 3747 2413 3897 
Q 2184 4138 1850 4138 
Q 1581 4138 1378 3988 
Q 1113 3794 959 3422 
Q 806 3050 800 2363 
Q 1003 2672 1297 2822 
Q 1591 2972 1913 2972 
Q 2475 2972 2870 2558 
Q 3266 2144 3266 1488 
Q 3266 1056 3080 686 
Q 2894 316 2569 119 
Q 2244 -78 1831 -78 
Q 1128 -78 684 439 
Q 241 956 241 2144 
Q 241 3472 731 4075 
Q 1159 4600 1884 4600 
Q 2425 4600 2770 4297 
Q 3116 3994 3184 3459 
z
M 888 1484 
Q 888 1194 1011 928 
Q 1134 663 1356 523 
Q 1578 384 1822 384 
Q 2178 384 2434 671 
Q 2691 959 2691 1453 
Q 2691 1928 2437 2201 
Q 2184 2475 1800 2475 
Q 1419 2475 1153 2201 
Q 888 1928 888 1484 
z
" transform="scale(0.015625)"/>
       </defs>
       <use xlink:href="#ArialMT-36"/>
       <use xlink:href="#ArialMT-30" x="55.615234"/>
       <use xlink:href="#ArialMT-30" x="111.230469"/>
       <use xlink:href="#ArialMT-30" x="166.845703"/>
      </g>
     </g>
    </g>
    <g id="text_9">
     <!-- body_mass_g -->
     <g style="fill: #262626" transform="translate(15.789375 194.40375) rotate(-90) scale(0.12 -0.12)">
      <defs>
       <path id="ArialMT-62" d="M 941 0 
L 419 0 
L 419 4581 
L 981 4581 
L 981 2947 
Q 1338 3394 1891 3394 
Q 2197 3394 2470 3270 
Q 2744 3147 2920 2923 
Q 3097 2700 3197 2384 
Q 3297 2069 3297 1709 
Q 3297 856 2875 390 
Q 2453 -75 1863 -75 
Q 1275 -75 941 416 
L 941 0 
z
M 934 1684 
Q 934 1088 1097 822 
Q 1363 388 1816 388 
Q 2184 388 2453 708 
Q 2722 1028 2722 1663 
Q 2722 2313 2464 2622 
Q 2206 2931 1841 2931 
Q 1472 2931 1203 2611 
Q 934 2291 934 1684 
z
" transform="scale(0.015625)"/>
       <path id="ArialMT-79" d="M 397 -1278 
L 334 -750 
Q 519 -800 656 -800 
Q 844 -800 956 -737 
Q 1069 -675 1141 -563 
Q 1194 -478 1313 -144 
Q 1328 -97 1363 -6 
L 103 3319 
L 709 3319 
L 1400 1397 
Q 1534 1031 1641 628 
Q 1738 1016 1872 1384 
L 2581 3319 
L 3144 3319 
L 1881 -56 
Q 1678 -603 1566 -809 
Q 1416 -1088 1222 -1217 
Q 1028 -1347 759 -1347 
Q 597 -1347 397 -1278 
z
" transform="scale(0.015625)"/>
       <path id="ArialMT-5f" d="M -97 -1272 
L -97 -866 
L 3631 -866 
L 3631 -1272 
L -97 -1272 
z
" transform="scale(0.015625)"/>
       <path id="ArialMT-6d" d="M 422 0 
L 422 3319 
L 925 3319 
L 925 2853 
Q 1081 3097 1340 3245 
Q 1600 3394 1931 3394 
Q 2300 3394 2536 3241 
Q 2772 3088 2869 2813 
Q 3263 3394 3894 3394 
Q 4388 3394 4653 3120 
Q 4919 2847 4919 2278 
L 4919 0 
L 4359 0 
L 4359 2091 
Q 4359 2428 4304 2576 
Q 4250 2725 4106 2815 
Q 3963 2906 3769 2906 
Q 3419 2906 3187 2673 
Q 2956 2441 2956 1928 
L 2956 0 
L 2394 0 
L 2394 2156 
Q 2394 2531 2256 2718 
Q 2119 2906 1806 2906 
Q 1569 2906 1367 2781 
Q 1166 2656 1075 2415 
Q 984 2175 984 1722 
L 984 0 
L 422 0 
z
" transform="scale(0.015625)"/>
       <path id="ArialMT-67" d="M 319 -275 
L 866 -356 
Q 900 -609 1056 -725 
Q 1266 -881 1628 -881 
Q 2019 -881 2231 -725 
Q 2444 -569 2519 -288 
Q 2563 -116 2559 434 
Q 2191 0 1641 0 
Q 956 0 581 494 
Q 206 988 206 1678 
Q 206 2153 378 2554 
Q 550 2956 876 3175 
Q 1203 3394 1644 3394 
Q 2231 3394 2613 2919 
L 2613 3319 
L 3131 3319 
L 3131 450 
Q 3131 -325 2973 -648 
Q 2816 -972 2473 -1159 
Q 2131 -1347 1631 -1347 
Q 1038 -1347 672 -1080 
Q 306 -813 319 -275 
z
M 784 1719 
Q 784 1066 1043 766 
Q 1303 466 1694 466 
Q 2081 466 2343 764 
Q 2606 1063 2606 1700 
Q 2606 2309 2336 2618 
Q 2066 2928 1684 2928 
Q 1309 2928 1046 2623 
Q 784 2319 784 1719 
z
" transform="scale(0.015625)"/>
      </defs>
      <use xlink:href="#ArialMT-62"/>
      <use xlink:href="#ArialMT-6f" x="55.615234"/>
      <use xlink:href="#ArialMT-64" x="111.230469"/>
      <use xlink:href="#ArialMT-79" x="166.845703"/>
      <use xlink:href="#ArialMT-5f" x="216.845703"/>
      <use xlink:href="#ArialMT-6d" x="272.460938"/>
      <use xlink:href="#ArialMT-61" x="355.761719"/>
      <use xlink:href="#ArialMT-73" x="411.376953"/>
      <use xlink:href="#ArialMT-73" x="461.376953"/>
      <use xlink:href="#ArialMT-5f" x="511.376953"/>
      <use xlink:href="#ArialMT-67" x="566.992188"/>
     </g>
    </g>
   </g>
   <g id="PolyCollection_1">
    <defs>
     <path id="m92bc647b1e" d="M 104.164182 -64.455172 
L 103.453318 -64.455172 
L 103.308468 -66.114303 
L 103.118998 -67.773433 
L 102.876844 -69.432564 
L 102.574346 -71.091694 
L 102.204838 -72.750824 
L 101.763233 -74.409955 
L 101.246533 -76.069085 
L 100.654171 -77.728216 
L 99.988136 -79.387346 
L 99.252846 -81.046477 
L 98.45478 -82.705607 
L 97.601925 -84.364738 
L 96.703103 -86.023868 
L 95.767295 -87.682998 
L 94.803038 -89.342129 
L 93.817976 -91.001259 
L 92.818581 -92.66039 
L 91.810065 -94.31952 
L 90.796432 -95.978651 
L 89.780638 -97.637781 
L 88.764815 -99.296912 
L 87.75054 -100.956042 
L 86.739136 -102.615173 
L 85.732027 -104.274303 
L 84.731144 -105.933433 
L 83.739393 -107.592564 
L 82.761124 -109.251694 
L 81.802544 -110.910825 
L 80.871967 -112.569955 
L 79.979796 -114.229086 
L 79.138142 -115.888216 
L 78.360063 -117.547347 
L 77.658459 -119.206477 
L 77.044743 -120.865608 
L 76.527501 -122.524738 
L 76.111352 -124.183868 
L 75.796268 -125.842999 
L 75.577491 -127.502129 
L 75.446151 -129.16126 
L 75.390507 -130.82039 
L 75.397663 -132.479521 
L 75.455471 -134.138651 
L 75.55433 -135.797782 
L 75.688566 -137.456912 
L 75.857172 -139.116042 
L 76.063791 -140.775173 
L 76.315939 -142.434303 
L 76.623593 -144.093434 
L 76.997372 -145.752564 
L 77.446564 -147.411695 
L 77.977291 -149.070825 
L 78.591059 -150.729956 
L 79.283887 -152.389086 
L 80.046133 -154.048217 
L 80.863047 -155.707347 
L 81.71599 -157.366477 
L 82.584167 -159.025608 
L 83.446673 -160.684738 
L 84.284577 -162.343869 
L 85.082776 -164.002999 
L 85.831373 -165.66213 
L 86.526381 -167.32126 
L 87.169681 -168.980391 
L 87.768237 -170.639521 
L 88.332714 -172.298652 
L 88.875707 -173.957782 
L 89.409863 -175.616912 
L 89.946159 -177.276043 
L 90.492592 -178.935173 
L 91.053418 -180.594304 
L 91.629031 -182.253434 
L 92.216425 -183.912565 
L 92.810136 -185.571695 
L 93.403458 -187.230826 
L 93.989738 -188.889956 
L 94.563528 -190.549086 
L 95.121414 -192.208217 
L 95.66242 -193.867347 
L 96.187935 -195.526478 
L 96.701203 -197.185608 
L 97.206499 -198.844739 
L 97.708117 -200.503869 
L 98.209389 -202.163 
L 98.711868 -203.82213 
L 99.214835 -205.481261 
L 99.71518 -207.140391 
L 100.207675 -208.799521 
L 100.685561 -210.458652 
L 101.141352 -212.117782 
L 101.567698 -213.776913 
L 101.958194 -215.436043 
L 102.30801 -217.095174 
L 102.614273 -218.754304 
L 102.876188 -220.413435 
L 103.09491 -222.072565 
L 103.273234 -223.731695 
L 103.415161 -225.390826 
L 103.525425 -227.049956 
L 103.609046 -228.709087 
L 104.008454 -228.709087 
L 104.008454 -228.709087 
L 104.092075 -227.049956 
L 104.202339 -225.390826 
L 104.344266 -223.731695 
L 104.52259 -222.072565 
L 104.741312 -220.413435 
L 105.003227 -218.754304 
L 105.30949 -217.095174 
L 105.659306 -215.436043 
L 106.049802 -213.776913 
L 106.476148 -212.117782 
L 106.931939 -210.458652 
L 107.409825 -208.799521 
L 107.90232 -207.140391 
L 108.402665 -205.481261 
L 108.905632 -203.82213 
L 109.408111 -202.163 
L 109.909383 -200.503869 
L 110.411001 -198.844739 
L 110.916297 -197.185608 
L 111.429565 -195.526478 
L 111.95508 -193.867347 
L 112.496086 -192.208217 
L 113.053972 -190.549086 
L 113.627762 -188.889956 
L 114.214042 -187.230826 
L 114.807364 -185.571695 
L 115.401075 -183.912565 
L 115.988469 -182.253434 
L 116.564082 -180.594304 
L 117.124908 -178.935173 
L 117.671341 -177.276043 
L 118.207637 -175.616912 
L 118.741793 -173.957782 
L 119.284786 -172.298652 
L 119.849263 -170.639521 
L 120.447819 -168.980391 
L 121.091119 -167.32126 
L 121.786127 -165.66213 
L 122.534724 -164.002999 
L 123.332923 -162.343869 
L 124.170827 -160.684738 
L 125.033333 -159.025608 
L 125.90151 -157.366477 
L 126.754453 -155.707347 
L 127.571367 -154.048217 
L 128.333613 -152.389086 
L 129.026441 -150.729956 
L 129.640209 -149.070825 
L 130.170936 -147.411695 
L 130.620128 -145.752564 
L 130.993907 -144.093434 
L 131.301561 -142.434303 
L 131.553709 -140.775173 
L 131.760328 -139.116042 
L 131.928934 -137.456912 
L 132.06317 -135.797782 
L 132.162029 -134.138651 
L 132.219837 -132.479521 
L 132.226993 -130.82039 
L 132.171349 -129.16126 
L 132.040009 -127.502129 
L 131.821232 -125.842999 
L 131.506148 -124.183868 
L 131.089999 -122.524738 
L 130.572757 -120.865608 
L 129.959041 -119.206477 
L 129.257437 -117.547347 
L 128.479358 -115.888216 
L 127.637704 -114.229086 
L 126.745533 -112.569955 
L 125.814956 -110.910825 
L 124.856376 -109.251694 
L 123.878107 -107.592564 
L 122.886356 -105.933433 
L 121.885473 -104.274303 
L 120.878364 -102.615173 
L 119.86696 -100.956042 
L 118.852685 -99.296912 
L 117.836862 -97.637781 
L 116.821068 -95.978651 
L 115.807435 -94.31952 
L 114.798919 -92.66039 
L 113.799524 -91.001259 
L 112.814462 -89.342129 
L 111.850205 -87.682998 
L 110.914397 -86.023868 
L 110.015575 -84.364738 
L 109.16272 -82.705607 
L 108.364654 -81.046477 
L 107.629364 -79.387346 
L 106.963329 -77.728216 
L 106.370967 -76.069085 
L 105.854267 -74.409955 
L 105.412662 -72.750824 
L 105.043154 -71.091694 
L 104.740656 -69.432564 
L 104.498502 -67.773433 
L 104.309032 -66.114303 
L 104.164182 -64.455172 
z
" style="stroke: #303030; stroke-width: 1.5"/>
    </defs>
    <g clip-path="url(#p719995404c)">
     <use xlink:href="#m92bc647b1e" x="0" y="348.768281" style="fill: #176d9c; stroke: #303030; stroke-width: 1.5"/>
    </g>
   </g>
   <g id="PolyCollection_2">
    <defs>
     <path id="m45de0dbf2a" d="M 198.961629 -130.91917 
L 198.758371 -130.91917 
L 198.715938 -132.909336 
L 198.659804 -134.899501 
L 198.586963 -136.889667 
L 198.494088 -138.879832 
L 198.37753 -140.869998 
L 198.233298 -142.860163 
L 198.057045 -144.850329 
L 197.844072 -146.840494 
L 197.589384 -148.83066 
L 197.287833 -150.820825 
L 196.934366 -152.810991 
L 196.524383 -154.801156 
L 196.054187 -156.791322 
L 195.521465 -158.781487 
L 194.925722 -160.771653 
L 194.268572 -162.761818 
L 193.553803 -164.751984 
L 192.787161 -166.742149 
L 191.975831 -168.732315 
L 191.127683 -170.72248 
L 190.25037 -172.712646 
L 189.350451 -174.702811 
L 188.432706 -176.692977 
L 187.49981 -178.683142 
L 186.552492 -180.673308 
L 185.590203 -182.663473 
L 184.612221 -184.653639 
L 183.619033 -186.643804 
L 182.613719 -188.63397 
L 181.603054 -190.624135 
L 180.598085 -192.614301 
L 179.613994 -194.604466 
L 178.669254 -196.594632 
L 177.784166 -198.584797 
L 176.979056 -200.574963 
L 176.272402 -202.565128 
L 175.679217 -204.555294 
L 175.209866 -206.545459 
L 174.869434 -208.535624 
L 174.657604 -210.52579 
L 174.568938 -212.515955 
L 174.593398 -214.506121 
L 174.717007 -216.496286 
L 174.922561 -218.486452 
L 175.190412 -220.476617 
L 175.499356 -222.466783 
L 175.827667 -224.456948 
L 176.154308 -226.447114 
L 176.46024 -228.437279 
L 176.729741 -230.427445 
L 176.951574 -232.41761 
L 177.119853 -234.407776 
L 177.234502 -236.397941 
L 177.301251 -238.388107 
L 177.331176 -240.378272 
L 177.339844 -242.368438 
L 177.34617 -244.358603 
L 177.371072 -246.348769 
L 177.436025 -248.338934 
L 177.561599 -250.3291 
L 177.766067 -252.319265 
L 178.064157 -254.309431 
L 178.466064 -256.299596 
L 178.976788 -258.289762 
L 179.595894 -260.279927 
L 180.317734 -262.270093 
L 181.1321 -264.260258 
L 182.025258 -266.250424 
L 182.981204 -268.240589 
L 183.982977 -270.230755 
L 185.013856 -272.22092 
L 186.058277 -274.211086 
L 187.102385 -276.201251 
L 188.1342 -278.191417 
L 189.143468 -280.181582 
L 190.121305 -282.171748 
L 191.059807 -284.161913 
L 191.951758 -286.152079 
L 192.790535 -288.142244 
L 193.570256 -290.13241 
L 194.2861 -292.122575 
L 194.934736 -294.112741 
L 195.514697 -296.102906 
L 196.026602 -298.093072 
L 196.473137 -300.083237 
L 196.858781 -302.073403 
L 197.18932 -304.063568 
L 197.471244 -306.053734 
L 197.711135 -308.043899 
L 197.915152 -310.034065 
L 198.088679 -312.02423 
L 198.236179 -314.014396 
L 198.361205 -316.004561 
L 198.466551 -317.994727 
L 198.554467 -319.984892 
L 198.626864 -321.975058 
L 198.685491 -323.965223 
L 198.732046 -325.955388 
L 198.768208 -327.945554 
L 198.951792 -327.945554 
L 198.951792 -327.945554 
L 198.987954 -325.955388 
L 199.034509 -323.965223 
L 199.093136 -321.975058 
L 199.165533 -319.984892 
L 199.253449 -317.994727 
L 199.358795 -316.004561 
L 199.483821 -314.014396 
L 199.631321 -312.02423 
L 199.804848 -310.034065 
L 200.008865 -308.043899 
L 200.248756 -306.053734 
L 200.53068 -304.063568 
L 200.861219 -302.073403 
L 201.246863 -300.083237 
L 201.693398 -298.093072 
L 202.205303 -296.102906 
L 202.785264 -294.112741 
L 203.4339 -292.122575 
L 204.149744 -290.13241 
L 204.929465 -288.142244 
L 205.768242 -286.152079 
L 206.660193 -284.161913 
L 207.598695 -282.171748 
L 208.576532 -280.181582 
L 209.5858 -278.191417 
L 210.617615 -276.201251 
L 211.661723 -274.211086 
L 212.706144 -272.22092 
L 213.737023 -270.230755 
L 214.738796 -268.240589 
L 215.694742 -266.250424 
L 216.5879 -264.260258 
L 217.402266 -262.270093 
L 218.124106 -260.279927 
L 218.743212 -258.289762 
L 219.253936 -256.299596 
L 219.655843 -254.309431 
L 219.953933 -252.319265 
L 220.158401 -250.3291 
L 220.283975 -248.338934 
L 220.348928 -246.348769 
L 220.37383 -244.358603 
L 220.380156 -242.368438 
L 220.388824 -240.378272 
L 220.418749 -238.388107 
L 220.485498 -236.397941 
L 220.600147 -234.407776 
L 220.768426 -232.41761 
L 220.990259 -230.427445 
L 221.25976 -228.437279 
L 221.565692 -226.447114 
L 221.892333 -224.456948 
L 222.220644 -222.466783 
L 222.529588 -220.476617 
L 222.797439 -218.486452 
L 223.002993 -216.496286 
L 223.126602 -214.506121 
L 223.151062 -212.515955 
L 223.062396 -210.52579 
L 222.850566 -208.535624 
L 222.510134 -206.545459 
L 222.040783 -204.555294 
L 221.447598 -202.565128 
L 220.740944 -200.574963 
L 219.935834 -198.584797 
L 219.050746 -196.594632 
L 218.106006 -194.604466 
L 217.121915 -192.614301 
L 216.116946 -190.624135 
L 215.106281 -188.63397 
L 214.100967 -186.643804 
L 213.107779 -184.653639 
L 212.129797 -182.663473 
L 211.167508 -180.673308 
L 210.22019 -178.683142 
L 209.287294 -176.692977 
L 208.369549 -174.702811 
L 207.46963 -172.712646 
L 206.592317 -170.72248 
L 205.744169 -168.732315 
L 204.932839 -166.742149 
L 204.166197 -164.751984 
L 203.451428 -162.761818 
L 202.794278 -160.771653 
L 202.198535 -158.781487 
L 201.665813 -156.791322 
L 201.195617 -154.801156 
L 200.785634 -152.810991 
L 200.432167 -150.820825 
L 200.130616 -148.83066 
L 199.875928 -146.840494 
L 199.662955 -144.850329 
L 199.486702 -142.860163 
L 199.34247 -140.869998 
L 199.225912 -138.879832 
L 199.133037 -136.889667 
L 199.060196 -134.899501 
L 199.004062 -132.909336 
L 198.961629 -130.91917 
z
" style="stroke: #303030; stroke-width: 1.5"/>
    </defs>
    <g clip-path="url(#p719995404c)">
     <use xlink:href="#m45de0dbf2a" x="0" y="348.768281" style="fill: #c38820; stroke: #303030; stroke-width: 1.5"/>
    </g>
   </g>
   <g id="PolyCollection_3">
    <defs>
     <path id="m0e93f8cf50" d="M 294.093648 -55.491009 
L 293.728852 -55.491009 
L 293.656898 -57.251531 
L 293.565825 -59.012054 
L 293.454215 -60.772577 
L 293.321821 -62.533099 
L 293.169861 -64.293622 
L 293.001166 -66.054144 
L 292.820131 -67.814667 
L 292.632431 -69.57519 
L 292.444522 -71.335712 
L 292.26296 -73.096235 
L 292.09361 -74.856758 
L 291.940799 -76.61728 
L 291.806487 -78.377803 
L 291.689476 -80.138326 
L 291.584699 -81.898848 
L 291.482613 -83.659371 
L 291.368745 -85.419894 
L 291.223513 -87.180416 
L 291.022446 -88.940939 
L 290.736987 -90.701462 
L 290.335986 -92.461984 
L 289.787948 -94.222507 
L 289.063921 -95.98303 
L 288.14077 -97.743552 
L 287.004405 -99.504075 
L 285.652458 -101.264598 
L 284.095876 -103.02512 
L 282.359024 -104.785643 
L 280.478105 -106.546166 
L 278.497965 -108.306688 
L 276.467675 -110.067211 
L 274.435525 -111.827734 
L 272.444216 -113.588256 
L 270.527057 -115.348779 
L 268.705829 -117.109302 
L 266.99069 -118.869824 
L 265.382168 -120.630347 
L 263.874851 -122.39087 
L 262.462103 -124.151392 
L 261.14087 -125.911915 
L 259.915624 -127.672438 
L 258.800621 -129.43296 
L 257.819938 -131.193483 
L 257.005206 -132.954006 
L 256.391402 -134.714528 
L 256.011462 -136.475051 
L 255.89075 -138.235574 
L 256.042486 -139.996096 
L 256.465018 -141.756619 
L 257.141521 -143.517142 
L 258.04215 -145.277664 
L 259.128221 -147.038187 
L 260.357545 -148.79871 
L 261.689834 -150.559232 
L 263.091125 -152.319755 
L 264.536394 -154.080278 
L 266.009983 -155.8408 
L 267.503925 -157.601323 
L 269.014746 -159.361846 
L 270.539592 -161.122368 
L 272.072646 -162.882891 
L 273.60269 -164.643414 
L 275.112319 -166.403936 
L 276.578975 -168.164459 
L 277.977487 -169.924982 
L 279.283547 -171.685504 
L 280.477332 -173.446027 
L 281.546542 -175.20655 
L 282.488239 -176.967072 
L 283.309185 -178.727595 
L 284.024659 -180.488118 
L 284.656015 -182.24864 
L 285.227482 -184.009163 
L 285.762737 -185.769686 
L 286.281864 -187.530208 
L 286.799115 -189.290731 
L 287.3218 -191.051254 
L 287.850372 -192.811776 
L 288.379582 -194.572299 
L 288.900414 -196.332822 
L 289.40239 -198.093344 
L 289.875786 -199.853867 
L 290.31338 -201.61439 
L 290.711464 -203.374912 
L 291.070015 -205.135435 
L 291.392122 -206.895958 
L 291.682882 -208.65648 
L 291.94809 -210.417003 
L 292.193009 -212.177526 
L 292.421494 -213.938048 
L 292.635569 -215.698571 
L 292.835494 -217.459094 
L 293.020191 -219.219616 
L 293.187888 -220.980139 
L 293.336783 -222.740661 
L 293.465604 -224.501184 
L 293.573945 -226.261707 
L 293.662383 -228.022229 
L 293.732388 -229.782752 
L 294.090112 -229.782752 
L 294.090112 -229.782752 
L 294.160117 -228.022229 
L 294.248555 -226.261707 
L 294.356896 -224.501184 
L 294.485717 -222.740661 
L 294.634612 -220.980139 
L 294.802309 -219.219616 
L 294.987006 -217.459094 
L 295.186931 -215.698571 
L 295.401006 -213.938048 
L 295.629491 -212.177526 
L 295.87441 -210.417003 
L 296.139618 -208.65648 
L 296.430378 -206.895958 
L 296.752485 -205.135435 
L 297.111036 -203.374912 
L 297.50912 -201.61439 
L 297.946714 -199.853867 
L 298.42011 -198.093344 
L 298.922086 -196.332822 
L 299.442918 -194.572299 
L 299.972128 -192.811776 
L 300.5007 -191.051254 
L 301.023385 -189.290731 
L 301.540636 -187.530208 
L 302.059763 -185.769686 
L 302.595018 -184.009163 
L 303.166485 -182.24864 
L 303.797841 -180.488118 
L 304.513315 -178.727595 
L 305.334261 -176.967072 
L 306.275958 -175.20655 
L 307.345168 -173.446027 
L 308.538953 -171.685504 
L 309.845013 -169.924982 
L 311.243525 -168.164459 
L 312.710181 -166.403936 
L 314.21981 -164.643414 
L 315.749854 -162.882891 
L 317.282908 -161.122368 
L 318.807754 -159.361846 
L 320.318575 -157.601323 
L 321.812517 -155.8408 
L 323.286106 -154.080278 
L 324.731375 -152.319755 
L 326.132666 -150.559232 
L 327.464955 -148.79871 
L 328.694279 -147.038187 
L 329.78035 -145.277664 
L 330.680979 -143.517142 
L 331.357482 -141.756619 
L 331.780014 -139.996096 
L 331.93175 -138.235574 
L 331.811038 -136.475051 
L 331.431098 -134.714528 
L 330.817294 -132.954006 
L 330.002562 -131.193483 
L 329.021879 -129.43296 
L 327.906876 -127.672438 
L 326.68163 -125.911915 
L 325.360397 -124.151392 
L 323.947649 -122.39087 
L 322.440332 -120.630347 
L 320.83181 -118.869824 
L 319.116671 -117.109302 
L 317.295443 -115.348779 
L 315.378284 -113.588256 
L 313.386975 -111.827734 
L 311.354825 -110.067211 
L 309.324535 -108.306688 
L 307.344395 -106.546166 
L 305.463476 -104.785643 
L 303.726624 -103.02512 
L 302.170042 -101.264598 
L 300.818095 -99.504075 
L 299.68173 -97.743552 
L 298.758579 -95.98303 
L 298.034552 -94.222507 
L 297.486514 -92.461984 
L 297.085513 -90.701462 
L 296.800054 -88.940939 
L 296.598987 -87.180416 
L 296.453755 -85.419894 
L 296.339887 -83.659371 
L 296.237801 -81.898848 
L 296.133024 -80.138326 
L 296.016013 -78.377803 
L 295.881701 -76.61728 
L 295.72889 -74.856758 
L 295.55954 -73.096235 
L 295.377978 -71.335712 
L 295.190069 -69.57519 
L 295.002369 -67.814667 
L 294.821334 -66.054144 
L 294.652639 -64.293622 
L 294.500679 -62.533099 
L 294.368285 -60.772577 
L 294.256675 -59.012054 
L 294.165602 -57.251531 
L 294.093648 -55.491009 
z
" style="stroke: #303030; stroke-width: 1.5"/>
    </defs>
    <g clip-path="url(#p719995404c)">
     <use xlink:href="#m0e93f8cf50" x="0" y="348.768281" style="fill: #158b6a; stroke: #303030; stroke-width: 1.5"/>
    </g>
   </g>
   <g id="line2d_5">
    <path d="M 103.80875 262.942989 
L 103.80875 141.429314 
" clip-path="url(#p719995404c)" style="fill: none; stroke: #303030; stroke-width: 1.5; stroke-linecap: round"/>
   </g>
   <g id="line2d_6">
    <path d="M 103.80875 230.591946 
L 103.80875 190.350404 
" clip-path="url(#p719995404c)" style="fill: none; stroke: #303030; stroke-width: 4.5; stroke-linecap: round"/>
   </g>
   <g id="line2d_7">
    <path d="M 198.86 193.506604 
L 198.86 45.165235 
" clip-path="url(#p719995404c)" style="fill: none; stroke: #303030; stroke-width: 1.5; stroke-linecap: round"/>
   </g>
   <g id="line2d_8">
    <path d="M 198.86 146.163613 
L 198.86 95.664424 
" clip-path="url(#p719995404c)" style="fill: none; stroke: #303030; stroke-width: 4.5; stroke-linecap: round"/>
   </g>
   <g id="line2d_9">
    <path d="M 293.91125 259.78679 
L 293.91125 155.632211 
" clip-path="url(#p719995404c)" style="fill: none; stroke: #303030; stroke-width: 1.5; stroke-linecap: round"/>
   </g>
   <g id="line2d_10">
    <path d="M 293.91125 222.701447 
L 293.91125 193.506604 
" clip-path="url(#p719995404c)" style="fill: none; stroke: #303030; stroke-width: 4.5; stroke-linecap: round"/>
   </g>
   <g id="patch_3">
    <path d="M 56.283125 306.9 
L 56.283125 7.2 
" style="fill: none; stroke: #ffffff; stroke-width: 1.25; stroke-linejoin: miter; stroke-linecap: square"/>
   </g>
   <g id="patch_4">
    <path d="M 56.283125 306.9 
L 341.436875 306.9 
" style="fill: none; stroke: #ffffff; stroke-width: 1.25; stroke-linejoin: miter; stroke-linecap: square"/>
   </g>
   <g id="PathCollection_1">
    <defs>
     <path id="maff1221c7a" d="M 0 1.5 
C 0.397805 1.5 0.77937 1.341951 1.06066 1.06066 
C 1.341951 0.77937 1.5 0.397805 1.5 0 
C 1.5 -0.397805 1.341951 -0.77937 1.06066 -1.06066 
C 0.77937 -1.341951 0.397805 -1.5 0 -1.5 
C -0.397805 -1.5 -0.77937 -1.341951 -1.06066 -1.06066 
C -1.341951 -0.77937 -1.5 -0.397805 -1.5 0 
C -1.5 0.397805 -1.341951 0.77937 -1.06066 1.06066 
C -0.77937 1.341951 -0.397805 1.5 0 1.5 
z
" style="stroke: #303030"/>
    </defs>
    <g clip-path="url(#p719995404c)">
     <use xlink:href="#maff1221c7a" x="103.80875" y="209.2876" style="fill: #ffffff; stroke: #303030"/>
    </g>
   </g>
   <g id="PathCollection_2">
    <g clip-path="url(#p719995404c)">
     <use xlink:href="#maff1221c7a" x="198.86" y="124.070218" style="fill: #ffffff; stroke: #303030"/>
    </g>
   </g>
   <g id="PathCollection_3">
    <g clip-path="url(#p719995404c)">
     <use xlink:href="#maff1221c7a" x="293.91125" y="209.2876" style="fill: #ffffff; stroke: #303030"/>
    </g>
   </g>
  </g>
 </g>
 <defs>
  <clipPath id="p719995404c">
   <rect x="56.283125" y="7.2" width="285.15375" height="299.7"/>
  </clipPath>
 </defs>
</svg>