<?xml version="1.0" encoding="utf-8" standalone="no"?>
<!DOCTYPE svg PUBLIC "-//W3C//DTD SVG 1.1//EN"
  "http://www.w3.org/Graphics/SVG/1.1/DTD/svg11.dtd">
<svg xmlns:xlink="http://www.w3.org/1999/xlink" width="609.108437pt" height="381.574219pt" viewBox="0 0 609.108437 381.574219" xmlns="http://www.w3.org/2000/svg" version="1.1">
 <metadata>
  <rdf:RDF xmlns:dc="http://purl.org/dc/elements/1.1/" xmlns:cc="http://creativecommons.org/ns#" xmlns:rdf="http://www.w3.org/1999/02/22-rdf-syntax-ns#">
   <cc:Work>
    <dc:type rdf:resource="http://purl.org/dc/dcmitype/StillImage"/>
    <dc:date>2023-05-17T05:30:03.020804</dc:date>
    <dc:format>image/svg+xml</dc:format>
    <dc:creator>
     <cc:Agent>
      <dc:title>Matplotlib v3.7.1, https://matplotlib.org/</dc:title>
     </cc:Agent>
    </dc:creator>
   </cc:Work>
  </rdf:RDF>
 </metadata>
 <defs>
  <style type="text/css">*{stroke-linejoin: round; stroke-linecap: butt}</style>
 </defs>
 <g id="figure_1">
  <g id="patch_1">
   <path d="M 0 381.574219 
L 609.108437 381.574219 
L 609.108437 0 
L 0 0 
z
" style="fill: #ffffff"/>
  </g>
  <g id="axes_1">
   <g id="patch_2">
    <path d="M 43.908437 339.84 
L 601.908437 339.84 
L 601.908437 7.2 
L 43.908437 7.2 
z
" style="fill: #eaeaf2"/>
   </g>
   <g id="matplotlib.axis_1">
    <g id="xtick_1">
     <g id="line2d_1">
      <path d="M 69.272074 339.84 
L 69.272074 7.2 
" clip-path="url(#p6a0432bd19)" style="fill: none; stroke: #ffffff; stroke-linecap: round"/>
     </g>
     <g id="text_1">
      <!-- 0.0 -->
      <g style="fill: #262626" transform="translate(61.627074 357.213594) scale(0.11 -0.11)">
       <defs>
        <path id="ArialMT-30" d="M 266 2259 
Q 266 3072 433 3567 
Q 600 4063 929 4331 
Q 1259 4600 1759 4600 
Q 2128 4600 2406 4451 
Q 2684 4303 2865 4023 
Q 3047 3744 3150 3342 
Q 3253 2941 3253 2259 
Q 3253 1453 3087 958 
Q 2922 463 2592 192 
Q 2263 -78 1759 -78 
Q 1097 -78 719 397 
Q 266 969 266 2259 
z
M 844 2259 
Q 844 1131 1108 757 
Q 1372 384 1759 384 
Q 2147 384 2411 759 
Q 2675 1134 2675 2259 
Q 2675 3391 2411 3762 
Q 2147 4134 1753 4134 
Q 1366 4134 1134 3806 
Q 844 3388 844 2259 
z
" transform="scale(0.015625)"/>
        <path id="ArialMT-2e" d="M 581 0 
L 581 641 
L 1222 641 
L 1222 0 
L 581 0 
z
" transform="scale(0.015625)"/>
       </defs>
       <use xlink:href="#ArialMT-30"/>
       <use xlink:href="#ArialMT-2e" x="55.615234"/>
       <use xlink:href="#ArialMT-30" x="83.398438"/>
      </g>
     </g>
    </g>
    <g id="xtick_2">
     <g id="line2d_2">
      <path d="M 170.726619 339.84 
L 170.726619 7.2 
" clip-path="url(#p6a0432bd19)" style="fill: none; stroke: #ffffff; stroke-linecap: round"/>
     </g>
     <g id="text_2">
      <!-- 0.2 -->
      <g style="fill: #262626" transform="translate(163.081619 357.213594) scale(0.11 -0.11)">
       <defs>
        <path id="ArialMT-32" d="M 3222 541 
L 3222 0 
L 194 0 
Q 188 203 259 391 
Q 375 700 629 1000 
Q 884 1300 1366 1694 
Q 2113 2306 2375 2664 
Q 2638 3022 2638 3341 
Q 2638 3675 2398 3904 
Q 2159 4134 1775 4134 
Q 1369 4134 1125 3890 
Q 881 3647 878 3216 
L 300 3275 
Q 359 3922 746 4261 
Q 1134 4600 1788 4600 
Q 2447 4600 2831 4234 
Q 3216 3869 3216 3328 
Q 3216 3053 3103 2787 
Q 2991 2522 2730 2228 
Q 2469 1934 1863 1422 
Q 1356 997 1212 845 
Q 1069 694 975 541 
L 3222 541 
z
" transform="scale(0.015625)"/>
       </defs>
       <use xlink:href="#ArialMT-30"/>
       <use xlink:href="#ArialMT-2e" x="55.615234"/>
       <use xlink:href="#ArialMT-32" x="83.398438"/>
      </g>
     </g>
    </g>
    <g id="xtick_3">
     <g id="line2d_3">
      <path d="M 272.181165 339.84 
L 272.181165 7.2 
" clip-path="url(#p6a0432bd19)" style="fill: none; stroke: #ffffff; stroke-linecap: round"/>
     </g>
     <g id="text_3">
      <!-- 0.4 -->
      <g style="fill: #262626" transform="translate(264.536165 357.213594) scale(0.11 -0.11)">
       <defs>
        <path id="ArialMT-34" d="M 2069 0 
L 2069 1097 
L 81 1097 
L 81 1613 
L 2172 4581 
L 2631 4581 
L 2631 1613 
L 3250 1613 
L 3250 1097 
L 2631 1097 
L 2631 0 
L 2069 0 
z
M 2069 1613 
L 2069 3678 
L 634 1613 
L 2069 1613 
z
" transform="scale(0.015625)"/>
       </defs>
       <use xlink:href="#ArialMT-30"/>
       <use xlink:href="#ArialMT-2e" x="55.615234"/>
       <use xlink:href="#ArialMT-34" x="83.398438"/>
      </g>
     </g>
    </g>
    <g id="xtick_4">
     <g id="line2d_4">
      <path d="M 373.63571 339.84 
L 373.63571 7.2 
" clip-path="url(#p6a0432bd19)" style="fill: none; stroke: #ffffff; stroke-linecap: round"/>
     </g>
     <g id="text_4">
      <!-- 0.6 -->
      <g style="fill: #262626" transform="translate(365.99071 357.213594) scale(0.11 -0.11)">
       <defs>
        <path id="ArialMT-36" d="M 3184 3459 
L 2625 3416 
Q 2550 3747 2413 3897 
Q 2184 4138 1850 4138 
Q 1581 4138 1378 3988 
Q 1113 3794 959 3422 
Q 806 3050 800 2363 
Q 1003 2672 1297 2822 
Q 1591 2972 1913 2972 
Q 2475 2972 2870 2558 
Q 3266 2144 3266 1488 
Q 3266 1056 3080 686 
Q 2894 316 2569 119 
Q 2244 -78 1831 -78 
Q 1128 -78 684 439 
Q 241 956 241 2144 
Q 241 3472 731 4075 
Q 1159 4600 1884 4600 
Q 2425 4600 2770 4297 
Q 3116 3994 3184 3459 
z
M 888 1484 
Q 888 1194 1011 928 
Q 1134 663 1356 523 
Q 1578 384 1822 384 
Q 2178 384 2434 671 
Q 2691 959 2691 1453 
Q 2691 1928 2437 2201 
Q 2184 2475 1800 2475 
Q 1419 2475 1153 2201 
Q 888 1928 888 1484 
z
" transform="scale(0.015625)"/>
       </defs>
       <use xlink:href="#ArialMT-30"/>
       <use xlink:href="#ArialMT-2e" x="55.615234"/>
       <use xlink:href="#ArialMT-36" x="83.398438"/>
      </g>
     </g>
    </g>
    <g id="xtick_5">
     <g id="line2d_5">
      <path d="M 475.090256 339.84 
L 475.090256 7.2 
" clip-path="url(#p6a0432bd19)" style="fill: none; stroke: #ffffff; stroke-linecap: round"/>
     </g>
     <g id="text_5">
      <!-- 0.8 -->
      <g style="fill: #262626" transform="translate(467.445256 357.213594) scale(0.11 -0.11)">
       <defs>
        <path id="ArialMT-38" d="M 1131 2484 
Q 781 2613 612 2850 
Q 444 3088 444 3419 
Q 444 3919 803 4259 
Q 1163 4600 1759 4600 
Q 2359 4600 2725 4251 
Q 3091 3903 3091 3403 
Q 3091 3084 2923 2848 
Q 2756 2613 2416 2484 
Q 2838 2347 3058 2040 
Q 3278 1734 3278 1309 
Q 3278 722 2862 322 
Q 2447 -78 1769 -78 
Q 1091 -78 675 323 
Q 259 725 259 1325 
Q 259 1772 486 2073 
Q 713 2375 1131 2484 
z
M 1019 3438 
Q 1019 3113 1228 2906 
Q 1438 2700 1772 2700 
Q 2097 2700 2305 2904 
Q 2513 3109 2513 3406 
Q 2513 3716 2298 3927 
Q 2084 4138 1766 4138 
Q 1444 4138 1231 3931 
Q 1019 3725 1019 3438 
z
M 838 1322 
Q 838 1081 952 856 
Q 1066 631 1291 507 
Q 1516 384 1775 384 
Q 2178 384 2440 643 
Q 2703 903 2703 1303 
Q 2703 1709 2433 1975 
Q 2163 2241 1756 2241 
Q 1359 2241 1098 1978 
Q 838 1716 838 1322 
z
" transform="scale(0.015625)"/>
       </defs>
       <use xlink:href="#ArialMT-30"/>
       <use xlink:href="#ArialMT-2e" x="55.615234"/>
       <use xlink:href="#ArialMT-38" x="83.398438"/>
      </g>
     </g>
    </g>
    <g id="xtick_6">
     <g id="line2d_6">
      <path d="M 576.544801 339.84 
L 576.544801 7.2 
" clip-path="url(#p6a0432bd19)" style="fill: none; stroke: #ffffff; stroke-linecap: round"/>
     </g>
     <g id="text_6">
      <!-- 1.0 -->
      <g style="fill: #262626" transform="translate(568.899801 357.213594) scale(0.11 -0.11)">
       <defs>
        <path id="ArialMT-31" d="M 2384 0 
L 1822 0 
L 1822 3584 
Q 1619 3391 1289 3197 
Q 959 3003 697 2906 
L 697 3450 
Q 1169 3672 1522 3987 
Q 1875 4303 2022 4600 
L 2384 4600 
L 2384 0 
z
" transform="scale(0.015625)"/>
       </defs>
       <use xlink:href="#ArialMT-31"/>
       <use xlink:href="#ArialMT-2e" x="55.615234"/>
       <use xlink:href="#ArialMT-30" x="83.398438"/>
      </g>
     </g>
    </g>
    <g id="text_7">
     <!-- x -->
     <g style="fill: #262626" transform="translate(319.908437 371.989219) scale(0.12 -0.12)">
      <defs>
       <path id="ArialMT-78" d="M 47 0 
L 1259 1725 
L 138 3319 
L 841 3319 
L 1350 2541 
Q 1494 2319 1581 2169 
Q 1719 2375 1834 2534 
L 2394 3319 
L 3066 3319 
L 1919 1756 
L 3153 0 
L 2463 0 
L 1781 1031 
L 1600 1309 
L 728 0 
L 47 0 
z
" transform="scale(0.015625)"/>
      </defs>
      <use xlink:href="#ArialMT-78"/>
     </g>
    </g>
   </g>
   <g id="matplotlib.axis_2">
    <g id="ytick_1">
     <g id="line2d_7">
      <path d="M 43.908437 324.72 
L 601.908437 324.72 
" clip-path="url(#p6a0432bd19)" style="fill: none; stroke: #ffffff; stroke-linecap: round"/>
     </g>
     <g id="text_8">
      <!-- 25 -->
      <g style="fill: #262626" transform="translate(22.174375 328.656797) scale(0.11 -0.11)">
       <defs>
        <path id="ArialMT-35" d="M 266 1200 
L 856 1250 
Q 922 819 1161 601 
Q 1400 384 1738 384 
Q 2144 384 2425 690 
Q 2706 997 2706 1503 
Q 2706 1984 2436 2262 
Q 2166 2541 1728 2541 
Q 1456 2541 1237 2417 
Q 1019 2294 894 2097 
L 366 2166 
L 809 4519 
L 3088 4519 
L 3088 3981 
L 1259 3981 
L 1013 2750 
Q 1425 3038 1878 3038 
Q 2478 3038 2890 2622 
Q 3303 2206 3303 1553 
Q 3303 931 2941 478 
Q 2500 -78 1738 -78 
Q 1113 -78 717 272 
Q 322 622 266 1200 
z
" transform="scale(0.015625)"/>
       </defs>
       <use xlink:href="#ArialMT-32"/>
       <use xlink:href="#ArialMT-35" x="55.615234"/>
      </g>
     </g>
    </g>
    <g id="ytick_2">
     <g id="line2d_8">
      <path d="M 43.908437 274.32 
L 601.908437 274.32 
" clip-path="url(#p6a0432bd19)" style="fill: none; stroke: #ffffff; stroke-linecap: round"/>
     </g>
     <g id="text_9">
      <!-- 30 -->
      <g style="fill: #262626" transform="translate(22.174375 278.256797) scale(0.11 -0.11)">
       <defs>
        <path id="ArialMT-33" d="M 269 1209 
L 831 1284 
Q 928 806 1161 595 
Q 1394 384 1728 384 
Q 2125 384 2398 659 
Q 2672 934 2672 1341 
Q 2672 1728 2419 1979 
Q 2166 2231 1775 2231 
Q 1616 2231 1378 2169 
L 1441 2663 
Q 1497 2656 1531 2656 
Q 1891 2656 2178 2843 
Q 2466 3031 2466 3422 
Q 2466 3731 2256 3934 
Q 2047 4138 1716 4138 
Q 1388 4138 1169 3931 
Q 950 3725 888 3313 
L 325 3413 
Q 428 3978 793 4289 
Q 1159 4600 1703 4600 
Q 2078 4600 2393 4439 
Q 2709 4278 2876 4000 
Q 3044 3722 3044 3409 
Q 3044 3113 2884 2869 
Q 2725 2625 2413 2481 
Q 2819 2388 3044 2092 
Q 3269 1797 3269 1353 
Q 3269 753 2831 336 
Q 2394 -81 1725 -81 
Q 1122 -81 723 278 
Q 325 638 269 1209 
z
" transform="scale(0.015625)"/>
       </defs>
       <use xlink:href="#ArialMT-33"/>
       <use xlink:href="#ArialMT-30" x="55.615234"/>
      </g>
     </g>
    </g>
    <g id="ytick_3">
     <g id="line2d_9">
      <path d="M 43.908437 223.92 
L 601.908437 223.92 
" clip-path="url(#p6a0432bd19)" style="fill: none; stroke: #ffffff; stroke-linecap: round"/>
     </g>
     <g id="text_10">
      <!-- 35 -->
      <g style="fill: #262626" transform="translate(22.174375 227.856797) scale(0.11 -0.11)">
       <use xlink:href="#ArialMT-33"/>
       <use xlink:href="#ArialMT-35" x="55.615234"/>
      </g>
     </g>
    </g>
    <g id="ytick_4">
     <g id="line2d_10">
      <path d="M 43.908437 173.52 
L 601.908437 173.52 
" clip-path="url(#p6a0432bd19)" style="fill: none; stroke: #ffffff; stroke-linecap: round"/>
     </g>
     <g id="text_11">
      <!-- 40 -->
      <g style="fill: #262626" transform="translate(22.174375 177.456797) scale(0.11 -0.11)">
       <use xlink:href="#ArialMT-34"/>
       <use xlink:href="#ArialMT-30" x="55.615234"/>
      </g>
     </g>
    </g>
    <g id="ytick_5">
     <g id="line2d_11">
      <path d="M 43.908437 123.12 
L 601.908437 123.12 
" clip-path="url(#p6a0432bd19)" style="fill: none; stroke: #ffffff; stroke-linecap: round"/>
     </g>
     <g id="text_12">
      <!-- 45 -->
      <g style="fill: #262626" transform="translate(22.174375 127.056797) scale(0.11 -0.11)">
       <use xlink:href="#ArialMT-34"/>
       <use xlink:href="#ArialMT-35" x="55.615234"/>
      </g>
     </g>
    </g>
    <g id="ytick_6">
     <g id="line2d_12">
      <path d="M 43.908437 72.72 
L 601.908437 72.72 
" clip-path="url(#p6a0432bd19)" style="fill: none; stroke: #ffffff; stroke-linecap: round"/>
     </g>
     <g id="text_13">
      <!-- 50 -->
      <g style="fill: #262626" transform="translate(22.174375 76.656797) scale(0.11 -0.11)">
       <use xlink:href="#ArialMT-35"/>
       <use xlink:href="#ArialMT-30" x="55.615234"/>
      </g>
     </g>
    </g>
    <g id="ytick_7">
     <g id="line2d_13">
      <path d="M 43.908437 22.32 
L 601.908437 22.32 
" clip-path="url(#p6a0432bd19)" style="fill: none; stroke: #ffffff; stroke-linecap: round"/>
     </g>
     <g id="text_14">
      <!-- 55 -->
      <g style="fill: #262626" transform="translate(22.174375 26.256797) scale(0.11 -0.11)">
       <use xlink:href="#ArialMT-35"/>
       <use xlink:href="#ArialMT-35" x="55.615234"/>
      </g>
     </g>
    </g>
    <g id="text_15">
     <!-- y -->
     <g style="fill: #262626" transform="translate(15.64875 176.52) rotate(-90) scale(0.12 -0.12)">
      <defs>
       <path id="ArialMT-79" d="M 397 -1278 
L 334 -750 
Q 519 -800 656 -800 
Q 844 -800 956 -737 
Q 1069 -675 1141 -563 
Q 1194 -478 1313 -144 
Q 1328 -97 1363 -6 
L 103 3319 
L 709 3319 
L 1400 1397 
Q 1534 1031 1641 628 
Q 1738 1016 1872 1384 
L 2581 3319 
L 3144 3319 
L 1881 -56 
Q 1678 -603 1566 -809 
Q 1416 -1088 1222 -1217 
Q 1028 -1347 759 -1347 
Q 597 -1347 397 -1278 
z
" transform="scale(0.015625)"/>
      </defs>
      <use xlink:href="#ArialMT-79"/>
     </g>
    </g>
   </g>
   <g id="PathCollection_1">
    <defs>
     <path id="m0ff77d4623" d="M 0 3 
C 0.795609 3 1.55874 2.683901 2.12132 2.12132 
C 2.683901 1.55874 3 0.795609 3 0 
C 3 -0.795609 2.683901 -1.55874 2.12132 -2.12132 
C 1.55874 -2.683901 0.795609 -3 0 -3 
C -0.795609 -3 -1.55874 -2.683901 -2.12132 -2.12132 
C -2.683901 -1.55874 -3 -0.795609 -3 0 
C -3 0.795609 -2.683901 1.55874 -2.12132 2.12132 
C -1.55874 2.683901 -0.795609 3 0 3 
z
" style="stroke: #ffffff; stroke-width: 0.48"/>
    </defs>
    <g clip-path="url(#p6a0432bd19)">
     <use xlink:href="#m0ff77d4623" x="576.544801" y="123.12" style="fill: #0173b2; stroke: #ffffff; stroke-width: 0.48"/>
     <use xlink:href="#m0ff77d4623" x="576.544801" y="193.68" style="fill: #0173b2; stroke: #ffffff; stroke-width: 0.48"/>
     <use xlink:href="#m0ff77d4623" x="576.544801" y="52.56" style="fill: #0173b2; stroke: #ffffff; stroke-width: 0.48"/>
     <use xlink:href="#m0ff77d4623" x="576.544801" y="92.88" style="fill: #0173b2; stroke: #ffffff; stroke-width: 0.48"/>
     <use xlink:href="#m0ff77d4623" x="576.544801" y="324.72" style="fill: #0173b2; stroke: #ffffff; stroke-width: 0.48"/>
     <use xlink:href="#m0ff77d4623" x="576.544801" y="183.6" style="fill: #0173b2; stroke: #ffffff; stroke-width: 0.48"/>
     <use xlink:href="#m0ff77d4623" x="576.544801" y="62.64" style="fill: #0173b2; stroke: #ffffff; stroke-width: 0.48"/>
     <use xlink:href="#m0ff77d4623" x="576.544801" y="113.04" style="fill: #0173b2; stroke: #ffffff; stroke-width: 0.48"/>
     <use xlink:href="#m0ff77d4623" x="576.544801" y="22.32" style="fill: #0173b2; stroke: #ffffff; stroke-width: 0.48"/>
     <use xlink:href="#m0ff77d4623" x="576.544801" y="113.04" style="fill: #0173b2; stroke: #ffffff; stroke-width: 0.48"/>
     <use xlink:href="#m0ff77d4623" x="69.272074" y="234" style="fill: #0173b2; stroke: #ffffff; stroke-width: 0.48"/>
     <use xlink:href="#m0ff77d4623" x="69.272074" y="244.08" style="fill: #0173b2; stroke: #ffffff; stroke-width: 0.48"/>
     <use xlink:href="#m0ff77d4623" x="69.272074" y="213.84" style="fill: #0173b2; stroke: #ffffff; stroke-width: 0.48"/>
     <use xlink:href="#m0ff77d4623" x="69.272074" y="193.68" style="fill: #0173b2; stroke: #ffffff; stroke-width: 0.48"/>
     <use xlink:href="#m0ff77d4623" x="69.272074" y="203.76" style="fill: #0173b2; stroke: #ffffff; stroke-width: 0.48"/>
     <use xlink:href="#m0ff77d4623" x="69.272074" y="173.52" style="fill: #0173b2; stroke: #ffffff; stroke-width: 0.48"/>
     <use xlink:href="#m0ff77d4623" x="69.272074" y="153.36" style="fill: #0173b2; stroke: #ffffff; stroke-width: 0.48"/>
     <use xlink:href="#m0ff77d4623" x="69.272074" y="143.28" style="fill: #0173b2; stroke: #ffffff; stroke-width: 0.48"/>
     <use xlink:href="#m0ff77d4623" x="69.272074" y="254.16" style="fill: #0173b2; stroke: #ffffff; stroke-width: 0.48"/>
     <use xlink:href="#m0ff77d4623" x="69.272074" y="213.84" style="fill: #0173b2; stroke: #ffffff; stroke-width: 0.48"/>
    </g>
   </g>
   <g id="PathCollection_2">
    <defs>
     <path id="m6d410187ed" d="M 0 3 
C 0.795609 3 1.55874 2.683901 2.12132 2.12132 
C 2.683901 1.55874 3 0.795609 3 0 
C 3 -0.795609 2.683901 -1.55874 2.12132 -2.12132 
C 1.55874 -2.683901 0.795609 -3 0 -3 
C -0.795609 -3 -1.55874 -2.683901 -2.12132 -2.12132 
C -2.683901 -1.55874 -3 -0.795609 -3 0 
C -3 0.795609 -2.683901 1.55874 -2.12132 2.12132 
C -1.55874 2.683901 -0.795609 3 0 3 
z
" style="stroke: #0173b2; stroke-opacity: 0.8"/>
    </defs>
    <g clip-path="url(#p6a0432bd19)">
     <use xlink:href="#m6d410187ed" x="576.544801" y="123.12" style="fill: #0173b2; fill-opacity: 0.8; stroke: #0173b2; stroke-opacity: 0.8"/>
     <use xlink:href="#m6d410187ed" x="576.544801" y="193.68" style="fill: #0173b2; fill-opacity: 0.8; stroke: #0173b2; stroke-opacity: 0.8"/>
     <use xlink:href="#m6d410187ed" x="576.544801" y="52.56" style="fill: #0173b2; fill-opacity: 0.8; stroke: #0173b2; stroke-opacity: 0.8"/>
     <use xlink:href="#m6d410187ed" x="576.544801" y="92.88" style="fill: #0173b2; fill-opacity: 0.8; stroke: #0173b2; stroke-opacity: 0.8"/>
     <use xlink:href="#m6d410187ed" x="576.544801" y="324.72" style="fill: #0173b2; fill-opacity: 0.8; stroke: #0173b2; stroke-opacity: 0.8"/>
     <use xlink:href="#m6d410187ed" x="576.544801" y="183.6" style="fill: #0173b2; fill-opacity: 0.8; stroke: #0173b2; stroke-opacity: 0.8"/>
     <use xlink:href="#m6d410187ed" x="576.544801" y="62.64" style="fill: #0173b2; fill-opacity: 0.8; stroke: #0173b2; stroke-opacity: 0.8"/>
     <use xlink:href="#m6d410187ed" x="576.544801" y="113.04" style="fill: #0173b2; fill-opacity: 0.8; stroke: #0173b2; stroke-opacity: 0.8"/>
     <use xlink:href="#m6d410187ed" x="576.544801" y="22.32" style="fill: #0173b2; fill-opacity: 0.8; stroke: #0173b2; stroke-opacity: 0.8"/>
     <use xlink:href="#m6d410187ed" x="576.544801" y="113.04" style="fill: #0173b2; fill-opacity: 0.8; stroke: #0173b2; stroke-opacity: 0.8"/>
     <use xlink:href="#m6d410187ed" x="69.272074" y="234" style="fill: #0173b2; fill-opacity: 0.8; stroke: #0173b2; stroke-opacity: 0.8"/>
     <use xlink:href="#m6d410187ed" x="69.272074" y="244.08" style="fill: #0173b2; fill-opacity: 0.8; stroke: #0173b2; stroke-opacity: 0.8"/>
     <use xlink:href="#m6d410187ed" x="69.272074" y="213.84" style="fill: #0173b2; fill-opacity: 0.8; stroke: #0173b2; stroke-opacity: 0.8"/>
     <use xlink:href="#m6d410187ed" x="69.272074" y="193.68" style="fill: #0173b2; fill-opacity: 0.8; stroke: #0173b2; stroke-opacity: 0.8"/>
     <use xlink:href="#m6d410187ed" x="69.272074" y="203.76" style="fill: #0173b2; fill-opacity: 0.8; stroke: #0173b2; stroke-opacity: 0.8"/>
     <use xlink:href="#m6d410187ed" x="69.272074" y="173.52" style="fill: #0173b2; fill-opacity: 0.8; stroke: #0173b2; stroke-opacity: 0.8"/>
     <use xlink:href="#m6d410187ed" x="69.272074" y="153.36" style="fill: #0173b2; fill-opacity: 0.8; stroke: #0173b2; stroke-opacity: 0.8"/>
     <use xlink:href="#m6d410187ed" x="69.272074" y="143.28" style="fill: #0173b2; fill-opacity: 0.8; stroke: #0173b2; stroke-opacity: 0.8"/>
     <use xlink:href="#m6d410187ed" x="69.272074" y="254.16" style="fill: #0173b2; fill-opacity: 0.8; stroke: #0173b2; stroke-opacity: 0.8"/>
     <use xlink:href="#m6d410187ed" x="69.272074" y="213.84" style="fill: #0173b2; fill-opacity: 0.8; stroke: #0173b2; stroke-opacity: 0.8"/>
    </g>
   </g>
   <g id="PolyCollection_1">
    <defs>
     <path id="m09191f8fbf" d="M 69.272074 -177.814219 
L 69.272074 -177.814219 
L 74.396041 -179.00353 
L 79.520008 -179.985723 
L 84.643975 -180.764037 
L 89.767942 -181.65369 
L 94.891909 -182.560512 
L 100.015876 -183.190219 
L 105.139842 -183.792121 
L 110.263809 -184.653007 
L 115.387776 -185.324698 
L 120.511743 -185.983431 
L 125.63571 -186.774219 
L 130.759677 -187.544219 
L 135.883644 -188.316713 
L 141.007611 -189.080401 
L 146.131578 -189.834935 
L 151.255545 -190.501932 
L 156.379512 -191.264452 
L 161.503479 -192.063673 
L 166.627446 -192.825201 
L 171.751413 -193.419141 
L 176.87538 -194.308764 
L 181.999347 -194.950219 
L 187.123314 -195.666764 
L 192.24728 -196.40375 
L 197.371247 -197.210582 
L 202.495214 -197.809517 
L 207.619181 -198.664963 
L 212.743148 -199.323567 
L 217.867115 -200.083916 
L 222.991082 -200.796974 
L 228.115049 -201.537727 
L 233.239016 -202.331188 
L 238.362983 -203.126643 
L 243.48695 -203.911673 
L 248.610917 -204.599343 
L 253.734884 -205.440818 
L 258.858851 -206.209471 
L 263.982818 -207.204522 
L 269.106785 -208.092401 
L 274.230752 -208.88331 
L 279.354718 -209.645128 
L 284.478685 -210.408764 
L 289.602652 -211.168158 
L 294.726619 -211.878461 
L 299.850586 -212.739128 
L 304.974553 -213.44994 
L 310.09852 -214.199114 
L 315.222487 -214.921422 
L 320.346454 -215.732338 
L 325.470421 -216.4969 
L 330.594388 -217.217855 
L 335.718355 -217.949846 
L 340.842322 -218.7333 
L 345.966289 -219.595045 
L 351.090256 -220.452845 
L 356.214223 -221.113799 
L 361.33819 -221.833304 
L 366.462157 -222.494505 
L 371.586123 -223.235361 
L 376.71009 -224.049855 
L 381.834057 -224.842134 
L 386.958024 -225.6014 
L 392.081991 -226.484467 
L 397.205958 -227.232033 
L 402.329925 -227.944825 
L 407.453892 -228.664219 
L 412.577859 -229.427424 
L 417.701826 -230.164338 
L 422.825793 -230.970582 
L 427.94976 -231.813491 
L 433.073727 -232.446461 
L 438.197694 -233.288929 
L 443.321661 -233.979866 
L 448.445628 -234.653833 
L 453.569595 -235.343034 
L 458.693561 -236.001973 
L 463.817528 -236.682098 
L 468.941495 -237.426913 
L 474.065462 -238.160582 
L 479.189429 -238.905642 
L 484.313396 -239.800202 
L 489.437363 -240.665734 
L 494.56133 -241.515761 
L 499.685297 -242.329057 
L 504.809264 -243.111556 
L 509.933231 -243.859692 
L 515.057198 -244.584585 
L 520.181165 -245.354732 
L 525.305132 -246.137304 
L 530.429099 -246.898554 
L 535.553066 -247.597727 
L 540.677033 -248.398424 
L 545.800999 -249.148213 
L 550.924966 -249.957396 
L 556.048933 -250.766579 
L 561.1729 -251.511761 
L 566.296867 -252.200037 
L 571.420834 -252.842764 
L 576.544801 -253.414219 
L 576.544801 -253.414219 
L 576.544801 -253.414219 
L 571.420834 -252.842764 
L 566.296867 -252.200037 
L 561.1729 -251.511761 
L 556.048933 -250.766579 
L 550.924966 -249.957396 
L 545.800999 -249.148213 
L 540.677033 -248.398424 
L 535.553066 -247.597727 
L 530.429099 -246.898554 
L 525.305132 -246.137304 
L 520.181165 -245.354732 
L 515.057198 -244.584585 
L 509.933231 -243.859692 
L 504.809264 -243.111556 
L 499.685297 -242.329057 
L 494.56133 -241.515761 
L 489.437363 -240.665734 
L 484.313396 -239.800202 
L 479.189429 -238.905642 
L 474.065462 -238.160582 
L 468.941495 -237.426913 
L 463.817528 -236.682098 
L 458.693561 -236.001973 
L 453.569595 -235.343034 
L 448.445628 -234.653833 
L 443.321661 -233.979866 
L 438.197694 -233.288929 
L 433.073727 -232.446461 
L 427.94976 -231.813491 
L 422.825793 -230.970582 
L 417.701826 -230.164338 
L 412.577859 -229.427424 
L 407.453892 -228.664219 
L 402.329925 -227.944825 
L 397.205958 -227.232033 
L 392.081991 -226.484467 
L 386.958024 -225.6014 
L 381.834057 -224.842134 
L 376.71009 -224.049855 
L 371.586123 -223.235361 
L 366.462157 -222.494505 
L 361.33819 -221.833304 
L 356.214223 -221.113799 
L 351.090256 -220.452845 
L 345.966289 -219.595045 
L 340.842322 -218.7333 
L 335.718355 -217.949846 
L 330.594388 -217.217855 
L 325.470421 -216.4969 
L 320.346454 -215.732338 
L 315.222487 -214.921422 
L 310.09852 -214.199114 
L 304.974553 -213.44994 
L 299.850586 -212.739128 
L 294.726619 -211.878461 
L 289.602652 -211.168158 
L 284.478685 -210.408764 
L 279.354718 -209.645128 
L 274.230752 -208.88331 
L 269.106785 -208.092401 
L 263.982818 -207.204522 
L 258.858851 -206.209471 
L 253.734884 -205.440818 
L 248.610917 -204.599343 
L 243.48695 -203.911673 
L 238.362983 -203.126643 
L 233.239016 -202.331188 
L 228.115049 -201.537727 
L 222.991082 -200.796974 
L 217.867115 -200.083916 
L 212.743148 -199.323567 
L 207.619181 -198.664963 
L 202.495214 -197.809517 
L 197.371247 -197.210582 
L 192.24728 -196.40375 
L 187.123314 -195.666764 
L 181.999347 -194.950219 
L 176.87538 -194.308764 
L 171.751413 -193.419141 
L 166.627446 -192.825201 
L 161.503479 -192.063673 
L 156.379512 -191.264452 
L 151.255545 -190.501932 
L 146.131578 -189.834935 
L 141.007611 -189.080401 
L 135.883644 -188.316713 
L 130.759677 -187.544219 
L 125.63571 -186.774219 
L 120.511743 -185.983431 
L 115.387776 -185.324698 
L 110.263809 -184.653007 
L 105.139842 -183.792121 
L 100.015876 -183.190219 
L 94.891909 -182.560512 
L 89.767942 -181.65369 
L 84.643975 -180.764037 
L 79.520008 -179.985723 
L 74.396041 -179.00353 
L 69.272074 -177.814219 
z
" style="stroke: #ffffff; stroke-opacity: 0.15"/>
    </defs>
    <g clip-path="url(#p6a0432bd19)">
     <use xlink:href="#m09191f8fbf" x="0" y="381.574219" style="fill: #0173b2; fill-opacity: 0.15; stroke: #ffffff; stroke-opacity: 0.15"/>
    </g>
   </g>
   <g id="line2d_14">
    <path d="M 69.272074 202.752 
L 74.396041 201.998545 
L 79.520008 201.245091 
L 84.643975 200.491636 
L 89.767942 199.738182 
L 94.891909 198.984727 
L 100.015876 198.231273 
L 105.139842 197.477818 
L 110.263809 196.724364 
L 115.387776 195.970909 
L 120.511743 195.217455 
L 125.63571 194.464 
L 130.759677 193.710545 
L 135.883644 192.957091 
L 141.007611 192.203636 
L 146.131578 191.450182 
L 151.255545 190.696727 
L 156.379512 189.943273 
L 161.503479 189.189818 
L 166.627446 188.436364 
L 171.751413 187.682909 
L 176.87538 186.929455 
L 181.999347 186.176 
L 187.123314 185.422545 
L 192.24728 184.669091 
L 197.371247 183.915636 
L 202.495214 183.162182 
L 207.619181 182.408727 
L 212.743148 181.655273 
L 217.867115 180.901818 
L 222.991082 180.148364 
L 228.115049 179.394909 
L 233.239016 178.641455 
L 238.362983 177.888 
L 243.48695 177.134545 
L 248.610917 176.381091 
L 253.734884 175.627636 
L 258.858851 174.874182 
L 263.982818 174.120727 
L 269.106785 173.367273 
L 274.230752 172.613818 
L 279.354718 171.860364 
L 284.478685 171.106909 
L 289.602652 170.353455 
L 294.726619 169.6 
L 299.850586 168.846545 
L 304.974553 168.093091 
L 310.09852 167.339636 
L 315.222487 166.586182 
L 320.346454 165.832727 
L 325.470421 165.079273 
L 330.594388 164.325818 
L 335.718355 163.572364 
L 340.842322 162.818909 
L 345.966289 162.065455 
L 351.090256 161.312 
L 356.214223 160.558545 
L 361.33819 159.805091 
L 366.462157 159.051636 
L 371.586123 158.298182 
L 376.71009 157.544727 
L 381.834057 156.791273 
L 386.958024 156.037818 
L 392.081991 155.284364 
L 397.205958 154.530909 
L 402.329925 153.777455 
L 407.453892 153.024 
L 412.577859 152.270545 
L 417.701826 151.517091 
L 422.825793 150.763636 
L 427.94976 150.010182 
L 433.073727 149.256727 
L 438.197694 148.503273 
L 443.321661 147.749818 
L 448.445628 146.996364 
L 453.569595 146.242909 
L 458.693561 145.489455 
L 463.817528 144.736 
L 468.941495 143.982545 
L 474.065462 143.229091 
L 479.189429 142.475636 
L 484.313396 141.722182 
L 489.437363 140.968727 
L 494.56133 140.215273 
L 499.685297 139.461818 
L 504.809264 138.708364 
L 509.933231 137.954909 
L 515.057198 137.201455 
L 520.181165 136.448 
L 525.305132 135.694545 
L 530.429099 134.941091 
L 535.553066 134.187636 
L 540.677033 133.434182 
L 545.800999 132.680727 
L 550.924966 131.927273 
L 556.048933 131.173818 
L 561.1729 130.420364 
L 566.296867 129.666909 
L 571.420834 128.913455 
L 576.544801 128.16 
" clip-path="url(#p6a0432bd19)" style="fill: none; stroke: #0173b2; stroke-width: 2.25; stroke-linecap: round"/>
   </g>
   <g id="patch_3">
    <path d="M 43.908437 339.84 
L 43.908437 7.2 
" style="fill: none; stroke: #ffffff; stroke-width: 1.25; stroke-linejoin: miter; stroke-linecap: square"/>
   </g>
   <g id="patch_4">
    <path d="M 601.908437 339.84 
L 601.908437 7.2 
" style="fill: none; stroke: #ffffff; stroke-width: 1.25; stroke-linejoin: miter; stroke-linecap: square"/>
   </g>
   <g id="patch_5">
    <path d="M 43.908438 339.84 
L 601.908437 339.84 
" style="fill: none; stroke: #ffffff; stroke-width: 1.25; stroke-linejoin: miter; stroke-linecap: square"/>
   </g>
   <g id="patch_6">
    <path d="M 43.908438 7.2 
L 601.908437 7.2 
" style="fill: none; stroke: #ffffff; stroke-width: 1.25; stroke-linejoin: miter; stroke-linecap: square"/>
   </g>
  </g>
 </g>
 <defs>
  <clipPath id="p6a0432bd19">
   <rect x="43.908437" y="7.2" width="558" height="332.64"/>
  </clipPath>
 </defs>
</svg>