<?xml version="1.0" encoding="utf-8" standalone="no"?>
<!DOCTYPE svg PUBLIC "-//W3C//DTD SVG 1.1//EN"
  "http://www.w3.org/Graphics/SVG/1.1/DTD/svg11.dtd">
<svg xmlns:xlink="http://www.w3.org/1999/xlink" width="572.4pt" height="381.224844pt" viewBox="0 0 572.4 381.224844" xmlns="http://www.w3.org/2000/svg" version="1.1">
 <metadata>
  <rdf:RDF xmlns:dc="http://purl.org/dc/elements/1.1/" xmlns:cc="http://creativecommons.org/ns#" xmlns:rdf="http://www.w3.org/1999/02/22-rdf-syntax-ns#">
   <cc:Work>
    <dc:type rdf:resource="http://purl.org/dc/dcmitype/StillImage"/>
    <dc:date>2023-05-12T13:05:22.244887</dc:date>
    <dc:format>image/svg+xml</dc:format>
    <dc:creator>
     <cc:Agent>
      <dc:title>Matplotlib v3.7.1, https://matplotlib.org/</dc:title>
     </cc:Agent>
    </dc:creator>
   </cc:Work>
  </rdf:RDF>
 </metadata>
 <defs>
  <style type="text/css">*{stroke-linejoin: round; stroke-linecap: butt}</style>
 </defs>
 <g id="figure_1">
  <g id="patch_1">
   <path d="M 0 381.224844 
L 572.4 381.224844 
L 572.4 0 
L 0 0 
z
" style="fill: #ffffff"/>
  </g>
  <g id="axes_1">
   <g id="patch_2">
    <path d="M 7.2 354.465 
L 565.2 354.465 
L 565.2 21.825 
L 7.2 21.825 
z
" style="fill: #eaeaf2"/>
   </g>
   <g id="matplotlib.axis_1">
    <g id="xtick_1">
     <g id="line2d_1">
      <path d="M 47.069343 354.465 
L 47.069343 21.825 
" clip-path="url(#pfae301a964)" style="fill: none; stroke: #ffffff; stroke-linecap: round"/>
     </g>
     <g id="text_1">
      <!-- 0.0 -->
      <g style="fill: #262626" transform="translate(39.424343 371.838594) scale(0.11 -0.11)">
       <defs>
        <path id="ArialMT-30" d="M 266 2259 
Q 266 3072 433 3567 
Q 600 4063 929 4331 
Q 1259 4600 1759 4600 
Q 2128 4600 2406 4451 
Q 2684 4303 2865 4023 
Q 3047 3744 3150 3342 
Q 3253 2941 3253 2259 
Q 3253 1453 3087 958 
Q 2922 463 2592 192 
Q 2263 -78 1759 -78 
Q 1097 -78 719 397 
Q 266 969 266 2259 
z
M 844 2259 
Q 844 1131 1108 757 
Q 1372 384 1759 384 
Q 2147 384 2411 759 
Q 2675 1134 2675 2259 
Q 2675 3391 2411 3762 
Q 2147 4134 1753 4134 
Q 1366 4134 1134 3806 
Q 844 3388 844 2259 
z
" transform="scale(0.015625)"/>
        <path id="ArialMT-2e" d="M 581 0 
L 581 641 
L 1222 641 
L 1222 0 
L 581 0 
z
" transform="scale(0.015625)"/>
       </defs>
       <use xlink:href="#ArialMT-30"/>
       <use xlink:href="#ArialMT-2e" x="55.615234"/>
       <use xlink:href="#ArialMT-30" x="83.398438"/>
      </g>
     </g>
    </g>
    <g id="xtick_2">
     <g id="line2d_2">
      <path d="M 118.80854 354.465 
L 118.80854 21.825 
" clip-path="url(#pfae301a964)" style="fill: none; stroke: #ffffff; stroke-linecap: round"/>
     </g>
     <g id="text_2">
      <!-- 0.2 -->
      <g style="fill: #262626" transform="translate(111.16354 371.838594) scale(0.11 -0.11)">
       <defs>
        <path id="ArialMT-32" d="M 3222 541 
L 3222 0 
L 194 0 
Q 188 203 259 391 
Q 375 700 629 1000 
Q 884 1300 1366 1694 
Q 2113 2306 2375 2664 
Q 2638 3022 2638 3341 
Q 2638 3675 2398 3904 
Q 2159 4134 1775 4134 
Q 1369 4134 1125 3890 
Q 881 3647 878 3216 
L 300 3275 
Q 359 3922 746 4261 
Q 1134 4600 1788 4600 
Q 2447 4600 2831 4234 
Q 3216 3869 3216 3328 
Q 3216 3053 3103 2787 
Q 2991 2522 2730 2228 
Q 2469 1934 1863 1422 
Q 1356 997 1212 845 
Q 1069 694 975 541 
L 3222 541 
z
" transform="scale(0.015625)"/>
       </defs>
       <use xlink:href="#ArialMT-30"/>
       <use xlink:href="#ArialMT-2e" x="55.615234"/>
       <use xlink:href="#ArialMT-32" x="83.398438"/>
      </g>
     </g>
    </g>
    <g id="xtick_3">
     <g id="line2d_3">
      <path d="M 190.547737 354.465 
L 190.547737 21.825 
" clip-path="url(#pfae301a964)" style="fill: none; stroke: #ffffff; stroke-linecap: round"/>
     </g>
     <g id="text_3">
      <!-- 0.4 -->
      <g style="fill: #262626" transform="translate(182.902737 371.838594) scale(0.11 -0.11)">
       <defs>
        <path id="ArialMT-34" d="M 2069 0 
L 2069 1097 
L 81 1097 
L 81 1613 
L 2172 4581 
L 2631 4581 
L 2631 1613 
L 3250 1613 
L 3250 1097 
L 2631 1097 
L 2631 0 
L 2069 0 
z
M 2069 1613 
L 2069 3678 
L 634 1613 
L 2069 1613 
z
" transform="scale(0.015625)"/>
       </defs>
       <use xlink:href="#ArialMT-30"/>
       <use xlink:href="#ArialMT-2e" x="55.615234"/>
       <use xlink:href="#ArialMT-34" x="83.398438"/>
      </g>
     </g>
    </g>
    <g id="xtick_4">
     <g id="line2d_4">
      <path d="M 262.286934 354.465 
L 262.286934 21.825 
" clip-path="url(#pfae301a964)" style="fill: none; stroke: #ffffff; stroke-linecap: round"/>
     </g>
     <g id="text_4">
      <!-- 0.6 -->
      <g style="fill: #262626" transform="translate(254.641934 371.838594) scale(0.11 -0.11)">
       <defs>
        <path id="ArialMT-36" d="M 3184 3459 
L 2625 3416 
Q 2550 3747 2413 3897 
Q 2184 4138 1850 4138 
Q 1581 4138 1378 3988 
Q 1113 3794 959 3422 
Q 806 3050 800 2363 
Q 1003 2672 1297 2822 
Q 1591 2972 1913 2972 
Q 2475 2972 2870 2558 
Q 3266 2144 3266 1488 
Q 3266 1056 3080 686 
Q 2894 316 2569 119 
Q 2244 -78 1831 -78 
Q 1128 -78 684 439 
Q 241 956 241 2144 
Q 241 3472 731 4075 
Q 1159 4600 1884 4600 
Q 2425 4600 2770 4297 
Q 3116 3994 3184 3459 
z
M 888 1484 
Q 888 1194 1011 928 
Q 1134 663 1356 523 
Q 1578 384 1822 384 
Q 2178 384 2434 671 
Q 2691 959 2691 1453 
Q 2691 1928 2437 2201 
Q 2184 2475 1800 2475 
Q 1419 2475 1153 2201 
Q 888 1928 888 1484 
z
" transform="scale(0.015625)"/>
       </defs>
       <use xlink:href="#ArialMT-30"/>
       <use xlink:href="#ArialMT-2e" x="55.615234"/>
       <use xlink:href="#ArialMT-36" x="83.398438"/>
      </g>
     </g>
    </g>
    <g id="xtick_5">
     <g id="line2d_5">
      <path d="M 334.026131 354.465 
L 334.026131 21.825 
" clip-path="url(#pfae301a964)" style="fill: none; stroke: #ffffff; stroke-linecap: round"/>
     </g>
     <g id="text_5">
      <!-- 0.8 -->
      <g style="fill: #262626" transform="translate(326.381131 371.838594) scale(0.11 -0.11)">
       <defs>
        <path id="ArialMT-38" d="M 1131 2484 
Q 781 2613 612 2850 
Q 444 3088 444 3419 
Q 444 3919 803 4259 
Q 1163 4600 1759 4600 
Q 2359 4600 2725 4251 
Q 3091 3903 3091 3403 
Q 3091 3084 2923 2848 
Q 2756 2613 2416 2484 
Q 2838 2347 3058 2040 
Q 3278 1734 3278 1309 
Q 3278 722 2862 322 
Q 2447 -78 1769 -78 
Q 1091 -78 675 323 
Q 259 725 259 1325 
Q 259 1772 486 2073 
Q 713 2375 1131 2484 
z
M 1019 3438 
Q 1019 3113 1228 2906 
Q 1438 2700 1772 2700 
Q 2097 2700 2305 2904 
Q 2513 3109 2513 3406 
Q 2513 3716 2298 3927 
Q 2084 4138 1766 4138 
Q 1444 4138 1231 3931 
Q 1019 3725 1019 3438 
z
M 838 1322 
Q 838 1081 952 856 
Q 1066 631 1291 507 
Q 1516 384 1775 384 
Q 2178 384 2440 643 
Q 2703 903 2703 1303 
Q 2703 1709 2433 1975 
Q 2163 2241 1756 2241 
Q 1359 2241 1098 1978 
Q 838 1716 838 1322 
z
" transform="scale(0.015625)"/>
       </defs>
       <use xlink:href="#ArialMT-30"/>
       <use xlink:href="#ArialMT-2e" x="55.615234"/>
       <use xlink:href="#ArialMT-38" x="83.398438"/>
      </g>
     </g>
    </g>
    <g id="xtick_6">
     <g id="line2d_6">
      <path d="M 405.765328 354.465 
L 405.765328 21.825 
" clip-path="url(#pfae301a964)" style="fill: none; stroke: #ffffff; stroke-linecap: round"/>
     </g>
     <g id="text_6">
      <!-- 1.0 -->
      <g style="fill: #262626" transform="translate(398.120328 371.838594) scale(0.11 -0.11)">
       <defs>
        <path id="ArialMT-31" d="M 2384 0 
L 1822 0 
L 1822 3584 
Q 1619 3391 1289 3197 
Q 959 3003 697 2906 
L 697 3450 
Q 1169 3672 1522 3987 
Q 1875 4303 2022 4600 
L 2384 4600 
L 2384 0 
z
" transform="scale(0.015625)"/>
       </defs>
       <use xlink:href="#ArialMT-31"/>
       <use xlink:href="#ArialMT-2e" x="55.615234"/>
       <use xlink:href="#ArialMT-30" x="83.398438"/>
      </g>
     </g>
    </g>
    <g id="xtick_7">
     <g id="line2d_7">
      <path d="M 477.504526 354.465 
L 477.504526 21.825 
" clip-path="url(#pfae301a964)" style="fill: none; stroke: #ffffff; stroke-linecap: round"/>
     </g>
     <g id="text_7">
      <!-- 1.2 -->
      <g style="fill: #262626" transform="translate(469.859526 371.838594) scale(0.11 -0.11)">
       <use xlink:href="#ArialMT-31"/>
       <use xlink:href="#ArialMT-2e" x="55.615234"/>
       <use xlink:href="#ArialMT-32" x="83.398438"/>
      </g>
     </g>
    </g>
    <g id="xtick_8">
     <g id="line2d_8">
      <path d="M 549.243723 354.465 
L 549.243723 21.825 
" clip-path="url(#pfae301a964)" style="fill: none; stroke: #ffffff; stroke-linecap: round"/>
     </g>
     <g id="text_8">
      <!-- 1.4 -->
      <g style="fill: #262626" transform="translate(541.598723 371.838594) scale(0.11 -0.11)">
       <use xlink:href="#ArialMT-31"/>
       <use xlink:href="#ArialMT-2e" x="55.615234"/>
       <use xlink:href="#ArialMT-34" x="83.398438"/>
      </g>
     </g>
    </g>
   </g>
   <g id="matplotlib.axis_2">
    <g id="ytick_1">
     <g id="line2d_9">
      <path d="M 7.2 354.465 
L 565.2 354.465 
" clip-path="url(#pfae301a964)" style="fill: none; stroke: #ffffff; stroke-linecap: round"/>
     </g>
    </g>
    <g id="ytick_2">
     <g id="line2d_10">
      <path d="M 7.2 311.567234 
L 565.2 311.567234 
" clip-path="url(#pfae301a964)" style="fill: none; stroke: #ffffff; stroke-linecap: round"/>
     </g>
    </g>
    <g id="ytick_3">
     <g id="line2d_11">
      <path d="M 7.2 268.669469 
L 565.2 268.669469 
" clip-path="url(#pfae301a964)" style="fill: none; stroke: #ffffff; stroke-linecap: round"/>
     </g>
    </g>
    <g id="ytick_4">
     <g id="line2d_12">
      <path d="M 7.2 225.771703 
L 565.2 225.771703 
" clip-path="url(#pfae301a964)" style="fill: none; stroke: #ffffff; stroke-linecap: round"/>
     </g>
    </g>
    <g id="ytick_5">
     <g id="line2d_13">
      <path d="M 7.2 182.873937 
L 565.2 182.873937 
" clip-path="url(#pfae301a964)" style="fill: none; stroke: #ffffff; stroke-linecap: round"/>
     </g>
    </g>
    <g id="ytick_6">
     <g id="line2d_14">
      <path d="M 7.2 139.976171 
L 565.2 139.976171 
" clip-path="url(#pfae301a964)" style="fill: none; stroke: #ffffff; stroke-linecap: round"/>
     </g>
    </g>
    <g id="ytick_7">
     <g id="line2d_15">
      <path d="M 7.2 97.078406 
L 565.2 97.078406 
" clip-path="url(#pfae301a964)" style="fill: none; stroke: #ffffff; stroke-linecap: round"/>
     </g>
    </g>
    <g id="ytick_8">
     <g id="line2d_16">
      <path d="M 7.2 54.18064 
L 565.2 54.18064 
" clip-path="url(#pfae301a964)" style="fill: none; stroke: #ffffff; stroke-linecap: round"/>
     </g>
    </g>
   </g>
   <g id="patch_3">
    <path d="M 59.301884 354.465 
L 63.912115 354.465 
L 63.912115 354.036022 
L 59.301884 354.036022 
z
" clip-path="url(#pfae301a964)" style="fill: #0173b2; fill-opacity: 0.75; stroke: #ffffff; stroke-width: 0.676364; stroke-linejoin: miter"/>
   </g>
   <g id="patch_4">
    <path d="M 63.912115 354.465 
L 68.522347 354.465 
L 68.522347 354.250511 
L 63.912115 354.250511 
z
" clip-path="url(#pfae301a964)" style="fill: #0173b2; fill-opacity: 0.75; stroke: #ffffff; stroke-width: 0.676364; stroke-linejoin: miter"/>
   </g>
   <g id="patch_5">
    <path d="M 68.522347 354.465 
L 73.132578 354.465 
L 73.132578 354.036022 
L 68.522347 354.036022 
z
" clip-path="url(#pfae301a964)" style="fill: #0173b2; fill-opacity: 0.75; stroke: #ffffff; stroke-width: 0.676364; stroke-linejoin: miter"/>
   </g>
   <g id="patch_6">
    <path d="M 73.132578 354.465 
L 77.74281 354.465 
L 77.74281 353.821534 
L 73.132578 353.821534 
z
" clip-path="url(#pfae301a964)" style="fill: #0173b2; fill-opacity: 0.75; stroke: #ffffff; stroke-width: 0.676364; stroke-linejoin: miter"/>
   </g>
   <g id="patch_7">
    <path d="M 77.74281 354.465 
L 82.353041 354.465 
L 82.353041 352.963578 
L 77.74281 352.963578 
z
" clip-path="url(#pfae301a964)" style="fill: #0173b2; fill-opacity: 0.75; stroke: #ffffff; stroke-width: 0.676364; stroke-linejoin: miter"/>
   </g>
   <g id="patch_8">
    <path d="M 82.353041 354.465 
L 86.963273 354.465 
L 86.963273 352.749089 
L 82.353041 352.749089 
z
" clip-path="url(#pfae301a964)" style="fill: #0173b2; fill-opacity: 0.75; stroke: #ffffff; stroke-width: 0.676364; stroke-linejoin: miter"/>
   </g>
   <g id="patch_9">
    <path d="M 86.963273 354.465 
L 91.573504 354.465 
L 91.573504 351.033179 
L 86.963273 351.033179 
z
" clip-path="url(#pfae301a964)" style="fill: #0173b2; fill-opacity: 0.75; stroke: #ffffff; stroke-width: 0.676364; stroke-linejoin: miter"/>
   </g>
   <g id="patch_10">
    <path d="M 91.573504 354.465 
L 96.183735 354.465 
L 96.183735 351.247668 
L 91.573504 351.247668 
z
" clip-path="url(#pfae301a964)" style="fill: #0173b2; fill-opacity: 0.75; stroke: #ffffff; stroke-width: 0.676364; stroke-linejoin: miter"/>
   </g>
   <g id="patch_11">
    <path d="M 96.183735 354.465 
L 100.793967 354.465 
L 100.793967 350.81869 
L 96.183735 350.81869 
z
" clip-path="url(#pfae301a964)" style="fill: #0173b2; fill-opacity: 0.75; stroke: #ffffff; stroke-width: 0.676364; stroke-linejoin: miter"/>
   </g>
   <g id="patch_12">
    <path d="M 100.793967 354.465 
L 105.404198 354.465 
L 105.404198 348.244824 
L 100.793967 348.244824 
z
" clip-path="url(#pfae301a964)" style="fill: #0173b2; fill-opacity: 0.75; stroke: #ffffff; stroke-width: 0.676364; stroke-linejoin: miter"/>
   </g>
   <g id="patch_13">
    <path d="M 105.404198 354.465 
L 110.01443 354.465 
L 110.01443 348.244824 
L 105.404198 348.244824 
z
" clip-path="url(#pfae301a964)" style="fill: #0173b2; fill-opacity: 0.75; stroke: #ffffff; stroke-width: 0.676364; stroke-linejoin: miter"/>
   </g>
   <g id="patch_14">
    <path d="M 110.01443 354.465 
L 114.624661 354.465 
L 114.624661 344.384025 
L 110.01443 344.384025 
z
" clip-path="url(#pfae301a964)" style="fill: #0173b2; fill-opacity: 0.75; stroke: #ffffff; stroke-width: 0.676364; stroke-linejoin: miter"/>
   </g>
   <g id="patch_15">
    <path d="M 114.624661 354.465 
L 119.234893 354.465 
L 119.234893 344.384025 
L 114.624661 344.384025 
z
" clip-path="url(#pfae301a964)" style="fill: #0173b2; fill-opacity: 0.75; stroke: #ffffff; stroke-width: 0.676364; stroke-linejoin: miter"/>
   </g>
   <g id="patch_16">
    <path d="M 119.234893 354.465 
L 123.845124 354.465 
L 123.845124 341.59567 
L 119.234893 341.59567 
z
" clip-path="url(#pfae301a964)" style="fill: #0173b2; fill-opacity: 0.75; stroke: #ffffff; stroke-width: 0.676364; stroke-linejoin: miter"/>
   </g>
   <g id="patch_17">
    <path d="M 123.845124 354.465 
L 128.455356 354.465 
L 128.455356 339.236293 
L 123.845124 339.236293 
z
" clip-path="url(#pfae301a964)" style="fill: #0173b2; fill-opacity: 0.75; stroke: #ffffff; stroke-width: 0.676364; stroke-linejoin: miter"/>
   </g>
   <g id="patch_18">
    <path d="M 128.455356 354.465 
L 133.065587 354.465 
L 133.065587 337.734871 
L 128.455356 337.734871 
z
" clip-path="url(#pfae301a964)" style="fill: #0173b2; fill-opacity: 0.75; stroke: #ffffff; stroke-width: 0.676364; stroke-linejoin: miter"/>
   </g>
   <g id="patch_19">
    <path d="M 133.065587 354.465 
L 137.675818 354.465 
L 137.675818 328.082874 
L 133.065587 328.082874 
z
" clip-path="url(#pfae301a964)" style="fill: #0173b2; fill-opacity: 0.75; stroke: #ffffff; stroke-width: 0.676364; stroke-linejoin: miter"/>
   </g>
   <g id="patch_20">
    <path d="M 137.675818 354.465 
L 142.28605 354.465 
L 142.28605 324.222075 
L 137.675818 324.222075 
z
" clip-path="url(#pfae301a964)" style="fill: #0173b2; fill-opacity: 0.75; stroke: #ffffff; stroke-width: 0.676364; stroke-linejoin: miter"/>
   </g>
   <g id="patch_21">
    <path d="M 142.28605 354.465 
L 146.896281 354.465 
L 146.896281 326.366963 
L 142.28605 326.366963 
z
" clip-path="url(#pfae301a964)" style="fill: #0173b2; fill-opacity: 0.75; stroke: #ffffff; stroke-width: 0.676364; stroke-linejoin: miter"/>
   </g>
   <g id="patch_22">
    <path d="M 146.896281 354.465 
L 151.506513 354.465 
L 151.506513 317.78741 
L 146.896281 317.78741 
z
" clip-path="url(#pfae301a964)" style="fill: #0173b2; fill-opacity: 0.75; stroke: #ffffff; stroke-width: 0.676364; stroke-linejoin: miter"/>
   </g>
   <g id="patch_23">
    <path d="M 151.506513 354.465 
L 156.116744 354.465 
L 156.116744 313.068656 
L 151.506513 313.068656 
z
" clip-path="url(#pfae301a964)" style="fill: #0173b2; fill-opacity: 0.75; stroke: #ffffff; stroke-width: 0.676364; stroke-linejoin: miter"/>
   </g>
   <g id="patch_24">
    <path d="M 156.116744 354.465 
L 160.726976 354.465 
L 160.726976 308.135413 
L 156.116744 308.135413 
z
" clip-path="url(#pfae301a964)" style="fill: #0173b2; fill-opacity: 0.75; stroke: #ffffff; stroke-width: 0.676364; stroke-linejoin: miter"/>
   </g>
   <g id="patch_25">
    <path d="M 160.726976 354.465 
L 165.337207 354.465 
L 165.337207 302.558703 
L 160.726976 302.558703 
z
" clip-path="url(#pfae301a964)" style="fill: #0173b2; fill-opacity: 0.75; stroke: #ffffff; stroke-width: 0.676364; stroke-linejoin: miter"/>
   </g>
   <g id="patch_26">
    <path d="M 165.337207 354.465 
L 169.947439 354.465 
L 169.947439 294.837106 
L 165.337207 294.837106 
z
" clip-path="url(#pfae301a964)" style="fill: #0173b2; fill-opacity: 0.75; stroke: #ffffff; stroke-width: 0.676364; stroke-linejoin: miter"/>
   </g>
   <g id="patch_27">
    <path d="M 169.947439 354.465 
L 174.55767 354.465 
L 174.55767 294.193639 
L 169.947439 294.193639 
z
" clip-path="url(#pfae301a964)" style="fill: #0173b2; fill-opacity: 0.75; stroke: #ffffff; stroke-width: 0.676364; stroke-linejoin: miter"/>
   </g>
   <g id="patch_28">
    <path d="M 174.55767 354.465 
L 179.167901 354.465 
L 179.167901 293.550173 
L 174.55767 293.550173 
z
" clip-path="url(#pfae301a964)" style="fill: #0173b2; fill-opacity: 0.75; stroke: #ffffff; stroke-width: 0.676364; stroke-linejoin: miter"/>
   </g>
   <g id="patch_29">
    <path d="M 179.167901 354.465 
L 183.778133 354.465 
L 183.778133 277.892488 
L 179.167901 277.892488 
z
" clip-path="url(#pfae301a964)" style="fill: #0173b2; fill-opacity: 0.75; stroke: #ffffff; stroke-width: 0.676364; stroke-linejoin: miter"/>
   </g>
   <g id="patch_30">
    <path d="M 183.778133 354.465 
L 188.388364 354.465 
L 188.388364 274.031689 
L 183.778133 274.031689 
z
" clip-path="url(#pfae301a964)" style="fill: #0173b2; fill-opacity: 0.75; stroke: #ffffff; stroke-width: 0.676364; stroke-linejoin: miter"/>
   </g>
   <g id="patch_31">
    <path d="M 188.388364 354.465 
L 192.998596 354.465 
L 192.998596 264.379692 
L 188.388364 264.379692 
z
" clip-path="url(#pfae301a964)" style="fill: #0173b2; fill-opacity: 0.75; stroke: #ffffff; stroke-width: 0.676364; stroke-linejoin: miter"/>
   </g>
   <g id="patch_32">
    <path d="M 192.998596 354.465 
L 197.608827 354.465 
L 197.608827 243.359787 
L 192.998596 243.359787 
z
" clip-path="url(#pfae301a964)" style="fill: #0173b2; fill-opacity: 0.75; stroke: #ffffff; stroke-width: 0.676364; stroke-linejoin: miter"/>
   </g>
   <g id="patch_33">
    <path d="M 197.608827 354.465 
L 202.219059 354.465 
L 202.219059 243.788764 
L 197.608827 243.788764 
z
" clip-path="url(#pfae301a964)" style="fill: #0173b2; fill-opacity: 0.75; stroke: #ffffff; stroke-width: 0.676364; stroke-linejoin: miter"/>
   </g>
   <g id="patch_34">
    <path d="M 202.219059 354.465 
L 206.82929 354.465 
L 206.82929 221.910904 
L 202.219059 221.910904 
z
" clip-path="url(#pfae301a964)" style="fill: #0173b2; fill-opacity: 0.75; stroke: #ffffff; stroke-width: 0.676364; stroke-linejoin: miter"/>
   </g>
   <g id="patch_35">
    <path d="M 206.82929 354.465 
L 211.439522 354.465 
L 211.439522 214.618284 
L 206.82929 214.618284 
z
" clip-path="url(#pfae301a964)" style="fill: #0173b2; fill-opacity: 0.75; stroke: #ffffff; stroke-width: 0.676364; stroke-linejoin: miter"/>
   </g>
   <g id="patch_36">
    <path d="M 211.439522 354.465 
L 216.049753 354.465 
L 216.049753 204.537309 
L 211.439522 204.537309 
z
" clip-path="url(#pfae301a964)" style="fill: #0173b2; fill-opacity: 0.75; stroke: #ffffff; stroke-width: 0.676364; stroke-linejoin: miter"/>
   </g>
   <g id="patch_37">
    <path d="M 216.049753 354.465 
L 220.659985 354.465 
L 220.659985 191.667979 
L 216.049753 191.667979 
z
" clip-path="url(#pfae301a964)" style="fill: #0173b2; fill-opacity: 0.75; stroke: #ffffff; stroke-width: 0.676364; stroke-linejoin: miter"/>
   </g>
   <g id="patch_38">
    <path d="M 220.659985 354.465 
L 225.270216 354.465 
L 225.270216 187.80718 
L 220.659985 187.80718 
z
" clip-path="url(#pfae301a964)" style="fill: #0173b2; fill-opacity: 0.75; stroke: #ffffff; stroke-width: 0.676364; stroke-linejoin: miter"/>
   </g>
   <g id="patch_39">
    <path d="M 225.270216 354.465 
L 229.880447 354.465 
L 229.880447 176.010295 
L 225.270216 176.010295 
z
" clip-path="url(#pfae301a964)" style="fill: #0173b2; fill-opacity: 0.75; stroke: #ffffff; stroke-width: 0.676364; stroke-linejoin: miter"/>
   </g>
   <g id="patch_40">
    <path d="M 229.880447 354.465 
L 234.490679 354.465 
L 234.490679 159.709144 
L 229.880447 159.709144 
z
" clip-path="url(#pfae301a964)" style="fill: #0173b2; fill-opacity: 0.75; stroke: #ffffff; stroke-width: 0.676364; stroke-linejoin: miter"/>
   </g>
   <g id="patch_41">
    <path d="M 234.490679 354.465 
L 239.10091 354.465 
L 239.10091 137.187817 
L 234.490679 137.187817 
z
" clip-path="url(#pfae301a964)" style="fill: #0173b2; fill-opacity: 0.75; stroke: #ffffff; stroke-width: 0.676364; stroke-linejoin: miter"/>
   </g>
   <g id="patch_42">
    <path d="M 239.10091 354.465 
L 243.711142 354.465 
L 243.711142 124.532976 
L 239.10091 124.532976 
z
" clip-path="url(#pfae301a964)" style="fill: #0173b2; fill-opacity: 0.75; stroke: #ffffff; stroke-width: 0.676364; stroke-linejoin: miter"/>
   </g>
   <g id="patch_43">
    <path d="M 243.711142 354.465 
L 248.321373 354.465 
L 248.321373 121.530132 
L 243.711142 121.530132 
z
" clip-path="url(#pfae301a964)" style="fill: #0173b2; fill-opacity: 0.75; stroke: #ffffff; stroke-width: 0.676364; stroke-linejoin: miter"/>
   </g>
   <g id="patch_44">
    <path d="M 248.321373 354.465 
L 252.931605 354.465 
L 252.931605 105.228981 
L 248.321373 105.228981 
z
" clip-path="url(#pfae301a964)" style="fill: #0173b2; fill-opacity: 0.75; stroke: #ffffff; stroke-width: 0.676364; stroke-linejoin: miter"/>
   </g>
   <g id="patch_45">
    <path d="M 252.931605 354.465 
L 257.541836 354.465 
L 257.541836 109.518758 
L 252.931605 109.518758 
z
" clip-path="url(#pfae301a964)" style="fill: #0173b2; fill-opacity: 0.75; stroke: #ffffff; stroke-width: 0.676364; stroke-linejoin: miter"/>
   </g>
   <g id="patch_46">
    <path d="M 257.541836 354.465 
L 262.152068 354.465 
L 262.152068 96.005961 
L 257.541836 96.005961 
z
" clip-path="url(#pfae301a964)" style="fill: #0173b2; fill-opacity: 0.75; stroke: #ffffff; stroke-width: 0.676364; stroke-linejoin: miter"/>
   </g>
   <g id="patch_47">
    <path d="M 262.152068 354.465 
L 266.762299 354.465 
L 266.762299 88.069875 
L 262.152068 88.069875 
z
" clip-path="url(#pfae301a964)" style="fill: #0173b2; fill-opacity: 0.75; stroke: #ffffff; stroke-width: 0.676364; stroke-linejoin: miter"/>
   </g>
   <g id="patch_48">
    <path d="M 266.762299 354.465 
L 271.37253 354.465 
L 271.37253 72.41219 
L 266.762299 72.41219 
z
" clip-path="url(#pfae301a964)" style="fill: #0173b2; fill-opacity: 0.75; stroke: #ffffff; stroke-width: 0.676364; stroke-linejoin: miter"/>
   </g>
   <g id="patch_49">
    <path d="M 271.37253 354.465 
L 275.982762 354.465 
L 275.982762 75.415034 
L 271.37253 75.415034 
z
" clip-path="url(#pfae301a964)" style="fill: #0173b2; fill-opacity: 0.75; stroke: #ffffff; stroke-width: 0.676364; stroke-linejoin: miter"/>
   </g>
   <g id="patch_50">
    <path d="M 275.982762 354.465 
L 280.592993 354.465 
L 280.592993 50.105352 
L 275.982762 50.105352 
z
" clip-path="url(#pfae301a964)" style="fill: #0173b2; fill-opacity: 0.75; stroke: #ffffff; stroke-width: 0.676364; stroke-linejoin: miter"/>
   </g>
   <g id="patch_51">
    <path d="M 280.592993 354.465 
L 285.203225 354.465 
L 285.203225 50.319841 
L 280.592993 50.319841 
z
" clip-path="url(#pfae301a964)" style="fill: #0173b2; fill-opacity: 0.75; stroke: #ffffff; stroke-width: 0.676364; stroke-linejoin: miter"/>
   </g>
   <g id="patch_52">
    <path d="M 285.203225 354.465 
L 289.813456 354.465 
L 289.813456 58.899394 
L 285.203225 58.899394 
z
" clip-path="url(#pfae301a964)" style="fill: #0173b2; fill-opacity: 0.75; stroke: #ffffff; stroke-width: 0.676364; stroke-linejoin: miter"/>
   </g>
   <g id="patch_53">
    <path d="M 289.813456 354.465 
L 294.423688 354.465 
L 294.423688 42.169265 
L 289.813456 42.169265 
z
" clip-path="url(#pfae301a964)" style="fill: #0173b2; fill-opacity: 0.75; stroke: #ffffff; stroke-width: 0.676364; stroke-linejoin: miter"/>
   </g>
   <g id="patch_54">
    <path d="M 294.423688 354.465 
L 299.033919 354.465 
L 299.033919 47.531486 
L 294.423688 47.531486 
z
" clip-path="url(#pfae301a964)" style="fill: #0173b2; fill-opacity: 0.75; stroke: #ffffff; stroke-width: 0.676364; stroke-linejoin: miter"/>
   </g>
   <g id="patch_55">
    <path d="M 299.033919 354.465 
L 303.644151 354.465 
L 303.644151 37.665 
L 299.033919 37.665 
z
" clip-path="url(#pfae301a964)" style="fill: #0173b2; fill-opacity: 0.75; stroke: #ffffff; stroke-width: 0.676364; stroke-linejoin: miter"/>
   </g>
   <g id="patch_56">
    <path d="M 303.644151 354.465 
L 308.254382 354.465 
L 308.254382 43.885176 
L 303.644151 43.885176 
z
" clip-path="url(#pfae301a964)" style="fill: #0173b2; fill-opacity: 0.75; stroke: #ffffff; stroke-width: 0.676364; stroke-linejoin: miter"/>
   </g>
   <g id="patch_57">
    <path d="M 308.254382 354.465 
L 312.864613 354.465 
L 312.864613 53.966151 
L 308.254382 53.966151 
z
" clip-path="url(#pfae301a964)" style="fill: #0173b2; fill-opacity: 0.75; stroke: #ffffff; stroke-width: 0.676364; stroke-linejoin: miter"/>
   </g>
   <g id="patch_58">
    <path d="M 312.864613 354.465 
L 317.474845 354.465 
L 317.474845 54.18064 
L 312.864613 54.18064 
z
" clip-path="url(#pfae301a964)" style="fill: #0173b2; fill-opacity: 0.75; stroke: #ffffff; stroke-width: 0.676364; stroke-linejoin: miter"/>
   </g>
   <g id="patch_59">
    <path d="M 317.474845 354.465 
L 322.085076 354.465 
L 322.085076 74.128101 
L 317.474845 74.128101 
z
" clip-path="url(#pfae301a964)" style="fill: #0173b2; fill-opacity: 0.75; stroke: #ffffff; stroke-width: 0.676364; stroke-linejoin: miter"/>
   </g>
   <g id="patch_60">
    <path d="M 322.085076 354.465 
L 326.695308 354.465 
L 326.695308 57.612461 
L 322.085076 57.612461 
z
" clip-path="url(#pfae301a964)" style="fill: #0173b2; fill-opacity: 0.75; stroke: #ffffff; stroke-width: 0.676364; stroke-linejoin: miter"/>
   </g>
   <g id="patch_61">
    <path d="M 326.695308 354.465 
L 331.305539 354.465 
L 331.305539 68.336903 
L 326.695308 68.336903 
z
" clip-path="url(#pfae301a964)" style="fill: #0173b2; fill-opacity: 0.75; stroke: #ffffff; stroke-width: 0.676364; stroke-linejoin: miter"/>
   </g>
   <g id="patch_62">
    <path d="M 331.305539 354.465 
L 335.915771 354.465 
L 335.915771 78.846855 
L 331.305539 78.846855 
z
" clip-path="url(#pfae301a964)" style="fill: #0173b2; fill-opacity: 0.75; stroke: #ffffff; stroke-width: 0.676364; stroke-linejoin: miter"/>
   </g>
   <g id="patch_63">
    <path d="M 335.915771 354.465 
L 340.526002 354.465 
L 340.526002 90.429252 
L 335.915771 90.429252 
z
" clip-path="url(#pfae301a964)" style="fill: #0173b2; fill-opacity: 0.75; stroke: #ffffff; stroke-width: 0.676364; stroke-linejoin: miter"/>
   </g>
   <g id="patch_64">
    <path d="M 340.526002 354.465 
L 345.136234 354.465 
L 345.136234 102.226137 
L 340.526002 102.226137 
z
" clip-path="url(#pfae301a964)" style="fill: #0173b2; fill-opacity: 0.75; stroke: #ffffff; stroke-width: 0.676364; stroke-linejoin: miter"/>
   </g>
   <g id="patch_65">
    <path d="M 345.136234 354.465 
L 349.746465 354.465 
L 349.746465 112.092624 
L 345.136234 112.092624 
z
" clip-path="url(#pfae301a964)" style="fill: #0173b2; fill-opacity: 0.75; stroke: #ffffff; stroke-width: 0.676364; stroke-linejoin: miter"/>
   </g>
   <g id="patch_66">
    <path d="M 349.746465 354.465 
L 354.356696 354.465 
L 354.356696 109.733246 
L 349.746465 109.733246 
z
" clip-path="url(#pfae301a964)" style="fill: #0173b2; fill-opacity: 0.75; stroke: #ffffff; stroke-width: 0.676364; stroke-linejoin: miter"/>
   </g>
   <g id="patch_67">
    <path d="M 354.356696 354.465 
L 358.966928 354.465 
L 358.966928 128.393775 
L 354.356696 128.393775 
z
" clip-path="url(#pfae301a964)" style="fill: #0173b2; fill-opacity: 0.75; stroke: #ffffff; stroke-width: 0.676364; stroke-linejoin: miter"/>
   </g>
   <g id="patch_68">
    <path d="M 358.966928 354.465 
L 363.577159 354.465 
L 363.577159 151.558568 
L 358.966928 151.558568 
z
" clip-path="url(#pfae301a964)" style="fill: #0173b2; fill-opacity: 0.75; stroke: #ffffff; stroke-width: 0.676364; stroke-linejoin: miter"/>
   </g>
   <g id="patch_69">
    <path d="M 363.577159 354.465 
L 368.187391 354.465 
L 368.187391 167.430741 
L 363.577159 167.430741 
z
" clip-path="url(#pfae301a964)" style="fill: #0173b2; fill-opacity: 0.75; stroke: #ffffff; stroke-width: 0.676364; stroke-linejoin: miter"/>
   </g>
   <g id="patch_70">
    <path d="M 368.187391 354.465 
L 372.797622 354.465 
L 372.797622 168.717674 
L 368.187391 168.717674 
z
" clip-path="url(#pfae301a964)" style="fill: #0173b2; fill-opacity: 0.75; stroke: #ffffff; stroke-width: 0.676364; stroke-linejoin: miter"/>
   </g>
   <g id="patch_71">
    <path d="M 372.797622 354.465 
L 377.407854 354.465 
L 377.407854 211.829929 
L 372.797622 211.829929 
z
" clip-path="url(#pfae301a964)" style="fill: #0173b2; fill-opacity: 0.75; stroke: #ffffff; stroke-width: 0.676364; stroke-linejoin: miter"/>
   </g>
   <g id="patch_72">
    <path d="M 377.407854 354.465 
L 382.018085 354.465 
L 382.018085 204.966286 
L 377.407854 204.966286 
z
" clip-path="url(#pfae301a964)" style="fill: #0173b2; fill-opacity: 0.75; stroke: #ffffff; stroke-width: 0.676364; stroke-linejoin: miter"/>
   </g>
   <g id="patch_73">
    <path d="M 382.018085 354.465 
L 386.628317 354.465 
L 386.628317 236.710633 
L 382.018085 236.710633 
z
" clip-path="url(#pfae301a964)" style="fill: #0173b2; fill-opacity: 0.75; stroke: #ffffff; stroke-width: 0.676364; stroke-linejoin: miter"/>
   </g>
   <g id="patch_74">
    <path d="M 386.628317 354.465 
L 391.238548 354.465 
L 391.238548 255.156672 
L 386.628317 255.156672 
z
" clip-path="url(#pfae301a964)" style="fill: #0173b2; fill-opacity: 0.75; stroke: #ffffff; stroke-width: 0.676364; stroke-linejoin: miter"/>
   </g>
   <g id="patch_75">
    <path d="M 391.238548 354.465 
L 395.848779 354.465 
L 395.848779 284.327153 
L 391.238548 284.327153 
z
" clip-path="url(#pfae301a964)" style="fill: #0173b2; fill-opacity: 0.75; stroke: #ffffff; stroke-width: 0.676364; stroke-linejoin: miter"/>
   </g>
   <g id="patch_76">
    <path d="M 395.848779 354.465 
L 400.459011 354.465 
L 400.459011 310.923768 
L 395.848779 310.923768 
z
" clip-path="url(#pfae301a964)" style="fill: #0173b2; fill-opacity: 0.75; stroke: #ffffff; stroke-width: 0.676364; stroke-linejoin: miter"/>
   </g>
   <g id="patch_77">
    <path d="M 400.459011 354.465 
L 405.069242 354.465 
L 405.069242 337.091405 
L 400.459011 337.091405 
z
" clip-path="url(#pfae301a964)" style="fill: #0173b2; fill-opacity: 0.75; stroke: #ffffff; stroke-width: 0.676364; stroke-linejoin: miter"/>
   </g>
   <g id="patch_78">
    <path d="M 7.2 354.465 
L 7.2 21.825 
" style="fill: none; stroke: #ffffff; stroke-width: 1.25; stroke-linejoin: miter; stroke-linecap: square"/>
   </g>
   <g id="patch_79">
    <path d="M 7.2 354.465 
L 565.2 354.465 
" style="fill: none; stroke: #ffffff; stroke-width: 1.25; stroke-linejoin: miter; stroke-linecap: square"/>
   </g>
   <g id="text_9">
    <!-- Ampiezza campionaria = 2 -->
    <g style="fill: #262626" transform="translate(215.334375 15.825) scale(0.12 -0.12)">
     <defs>
      <path id="ArialMT-41" d="M -9 0 
L 1750 4581 
L 2403 4581 
L 4278 0 
L 3588 0 
L 3053 1388 
L 1138 1388 
L 634 0 
L -9 0 
z
M 1313 1881 
L 2866 1881 
L 2388 3150 
Q 2169 3728 2063 4100 
Q 1975 3659 1816 3225 
L 1313 1881 
z
" transform="scale(0.015625)"/>
      <path id="ArialMT-6d" d="M 422 0 
L 422 3319 
L 925 3319 
L 925 2853 
Q 1081 3097 1340 3245 
Q 1600 3394 1931 3394 
Q 2300 3394 2536 3241 
Q 2772 3088 2869 2813 
Q 3263 3394 3894 3394 
Q 4388 3394 4653 3120 
Q 4919 2847 4919 2278 
L 4919 0 
L 4359 0 
L 4359 2091 
Q 4359 2428 4304 2576 
Q 4250 2725 4106 2815 
Q 3963 2906 3769 2906 
Q 3419 2906 3187 2673 
Q 2956 2441 2956 1928 
L 2956 0 
L 2394 0 
L 2394 2156 
Q 2394 2531 2256 2718 
Q 2119 2906 1806 2906 
Q 1569 2906 1367 2781 
Q 1166 2656 1075 2415 
Q 984 2175 984 1722 
L 984 0 
L 422 0 
z
" transform="scale(0.015625)"/>
      <path id="ArialMT-70" d="M 422 -1272 
L 422 3319 
L 934 3319 
L 934 2888 
Q 1116 3141 1344 3267 
Q 1572 3394 1897 3394 
Q 2322 3394 2647 3175 
Q 2972 2956 3137 2557 
Q 3303 2159 3303 1684 
Q 3303 1175 3120 767 
Q 2938 359 2589 142 
Q 2241 -75 1856 -75 
Q 1575 -75 1351 44 
Q 1128 163 984 344 
L 984 -1272 
L 422 -1272 
z
M 931 1641 
Q 931 1000 1190 694 
Q 1450 388 1819 388 
Q 2194 388 2461 705 
Q 2728 1022 2728 1688 
Q 2728 2322 2467 2637 
Q 2206 2953 1844 2953 
Q 1484 2953 1207 2617 
Q 931 2281 931 1641 
z
" transform="scale(0.015625)"/>
      <path id="ArialMT-69" d="M 425 3934 
L 425 4581 
L 988 4581 
L 988 3934 
L 425 3934 
z
M 425 0 
L 425 3319 
L 988 3319 
L 988 0 
L 425 0 
z
" transform="scale(0.015625)"/>
      <path id="ArialMT-65" d="M 2694 1069 
L 3275 997 
Q 3138 488 2766 206 
Q 2394 -75 1816 -75 
Q 1088 -75 661 373 
Q 234 822 234 1631 
Q 234 2469 665 2931 
Q 1097 3394 1784 3394 
Q 2450 3394 2872 2941 
Q 3294 2488 3294 1666 
Q 3294 1616 3291 1516 
L 816 1516 
Q 847 969 1125 678 
Q 1403 388 1819 388 
Q 2128 388 2347 550 
Q 2566 713 2694 1069 
z
M 847 1978 
L 2700 1978 
Q 2663 2397 2488 2606 
Q 2219 2931 1791 2931 
Q 1403 2931 1139 2672 
Q 875 2413 847 1978 
z
" transform="scale(0.015625)"/>
      <path id="ArialMT-7a" d="M 125 0 
L 125 456 
L 2238 2881 
Q 1878 2863 1603 2863 
L 250 2863 
L 250 3319 
L 2963 3319 
L 2963 2947 
L 1166 841 
L 819 456 
Q 1197 484 1528 484 
L 3063 484 
L 3063 0 
L 125 0 
z
" transform="scale(0.015625)"/>
      <path id="ArialMT-61" d="M 2588 409 
Q 2275 144 1986 34 
Q 1697 -75 1366 -75 
Q 819 -75 525 192 
Q 231 459 231 875 
Q 231 1119 342 1320 
Q 453 1522 633 1644 
Q 813 1766 1038 1828 
Q 1203 1872 1538 1913 
Q 2219 1994 2541 2106 
Q 2544 2222 2544 2253 
Q 2544 2597 2384 2738 
Q 2169 2928 1744 2928 
Q 1347 2928 1158 2789 
Q 969 2650 878 2297 
L 328 2372 
Q 403 2725 575 2942 
Q 747 3159 1072 3276 
Q 1397 3394 1825 3394 
Q 2250 3394 2515 3294 
Q 2781 3194 2906 3042 
Q 3031 2891 3081 2659 
Q 3109 2516 3109 2141 
L 3109 1391 
Q 3109 606 3145 398 
Q 3181 191 3288 0 
L 2700 0 
Q 2613 175 2588 409 
z
M 2541 1666 
Q 2234 1541 1622 1453 
Q 1275 1403 1131 1340 
Q 988 1278 909 1158 
Q 831 1038 831 891 
Q 831 666 1001 516 
Q 1172 366 1500 366 
Q 1825 366 2078 508 
Q 2331 650 2450 897 
Q 2541 1088 2541 1459 
L 2541 1666 
z
" transform="scale(0.015625)"/>
      <path id="ArialMT-20" transform="scale(0.015625)"/>
      <path id="ArialMT-63" d="M 2588 1216 
L 3141 1144 
Q 3050 572 2676 248 
Q 2303 -75 1759 -75 
Q 1078 -75 664 370 
Q 250 816 250 1647 
Q 250 2184 428 2587 
Q 606 2991 970 3192 
Q 1334 3394 1763 3394 
Q 2303 3394 2647 3120 
Q 2991 2847 3088 2344 
L 2541 2259 
Q 2463 2594 2264 2762 
Q 2066 2931 1784 2931 
Q 1359 2931 1093 2626 
Q 828 2322 828 1663 
Q 828 994 1084 691 
Q 1341 388 1753 388 
Q 2084 388 2306 591 
Q 2528 794 2588 1216 
z
" transform="scale(0.015625)"/>
      <path id="ArialMT-6f" d="M 213 1659 
Q 213 2581 725 3025 
Q 1153 3394 1769 3394 
Q 2453 3394 2887 2945 
Q 3322 2497 3322 1706 
Q 3322 1066 3130 698 
Q 2938 331 2570 128 
Q 2203 -75 1769 -75 
Q 1072 -75 642 372 
Q 213 819 213 1659 
z
M 791 1659 
Q 791 1022 1069 705 
Q 1347 388 1769 388 
Q 2188 388 2466 706 
Q 2744 1025 2744 1678 
Q 2744 2294 2464 2611 
Q 2184 2928 1769 2928 
Q 1347 2928 1069 2612 
Q 791 2297 791 1659 
z
" transform="scale(0.015625)"/>
      <path id="ArialMT-6e" d="M 422 0 
L 422 3319 
L 928 3319 
L 928 2847 
Q 1294 3394 1984 3394 
Q 2284 3394 2536 3286 
Q 2788 3178 2913 3003 
Q 3038 2828 3088 2588 
Q 3119 2431 3119 2041 
L 3119 0 
L 2556 0 
L 2556 2019 
Q 2556 2363 2490 2533 
Q 2425 2703 2258 2804 
Q 2091 2906 1866 2906 
Q 1506 2906 1245 2678 
Q 984 2450 984 1813 
L 984 0 
L 422 0 
z
" transform="scale(0.015625)"/>
      <path id="ArialMT-72" d="M 416 0 
L 416 3319 
L 922 3319 
L 922 2816 
Q 1116 3169 1280 3281 
Q 1444 3394 1641 3394 
Q 1925 3394 2219 3213 
L 2025 2691 
Q 1819 2813 1613 2813 
Q 1428 2813 1281 2702 
Q 1134 2591 1072 2394 
Q 978 2094 978 1738 
L 978 0 
L 416 0 
z
" transform="scale(0.015625)"/>
      <path id="ArialMT-3d" d="M 3381 2694 
L 356 2694 
L 356 3219 
L 3381 3219 
L 3381 2694 
z
M 3381 1303 
L 356 1303 
L 356 1828 
L 3381 1828 
L 3381 1303 
z
" transform="scale(0.015625)"/>
     </defs>
     <use xlink:href="#ArialMT-41"/>
     <use xlink:href="#ArialMT-6d" x="66.699219"/>
     <use xlink:href="#ArialMT-70" x="150"/>
     <use xlink:href="#ArialMT-69" x="205.615234"/>
     <use xlink:href="#ArialMT-65" x="227.832031"/>
     <use xlink:href="#ArialMT-7a" x="283.447266"/>
     <use xlink:href="#ArialMT-7a" x="333.447266"/>
     <use xlink:href="#ArialMT-61" x="383.447266"/>
     <use xlink:href="#ArialMT-20" x="439.0625"/>
     <use xlink:href="#ArialMT-63" x="466.845703"/>
     <use xlink:href="#ArialMT-61" x="516.845703"/>
     <use xlink:href="#ArialMT-6d" x="572.460938"/>
     <use xlink:href="#ArialMT-70" x="655.761719"/>
     <use xlink:href="#ArialMT-69" x="711.376953"/>
     <use xlink:href="#ArialMT-6f" x="733.59375"/>
     <use xlink:href="#ArialMT-6e" x="789.208984"/>
     <use xlink:href="#ArialMT-61" x="844.824219"/>
     <use xlink:href="#ArialMT-72" x="900.439453"/>
     <use xlink:href="#ArialMT-69" x="933.740234"/>
     <use xlink:href="#ArialMT-61" x="955.957031"/>
     <use xlink:href="#ArialMT-20" x="1011.572266"/>
     <use xlink:href="#ArialMT-3d" x="1039.355469"/>
     <use xlink:href="#ArialMT-20" x="1097.753906"/>
     <use xlink:href="#ArialMT-32" x="1125.537109"/>
    </g>
   </g>
  </g>
  <g id="axes_2">
   <g id="matplotlib.axis_3">
    <g id="ytick_9">
     <g id="line2d_17">
      <path d="M 7.2 339.382358 
L 565.2 339.382358 
" clip-path="url(#pfae301a964)" style="fill: none; stroke: #ffffff; stroke-linecap: round"/>
     </g>
    </g>
    <g id="ytick_10">
     <g id="line2d_18">
      <path d="M 7.2 276.149484 
L 565.2 276.149484 
" clip-path="url(#pfae301a964)" style="fill: none; stroke: #ffffff; stroke-linecap: round"/>
     </g>
    </g>
    <g id="ytick_11">
     <g id="line2d_19">
      <path d="M 7.2 212.916609 
L 565.2 212.916609 
" clip-path="url(#pfae301a964)" style="fill: none; stroke: #ffffff; stroke-linecap: round"/>
     </g>
    </g>
    <g id="ytick_12">
     <g id="line2d_20">
      <path d="M 7.2 149.683735 
L 565.2 149.683735 
" clip-path="url(#pfae301a964)" style="fill: none; stroke: #ffffff; stroke-linecap: round"/>
     </g>
    </g>
    <g id="ytick_13">
     <g id="line2d_21">
      <path d="M 7.2 86.45086 
L 565.2 86.45086 
" clip-path="url(#pfae301a964)" style="fill: none; stroke: #ffffff; stroke-linecap: round"/>
     </g>
    </g>
    <g id="ytick_14">
     <g id="line2d_22">
      <path d="M 7.2 23.217985 
L 565.2 23.217985 
" clip-path="url(#pfae301a964)" style="fill: none; stroke: #ffffff; stroke-linecap: round"/>
     </g>
    </g>
   </g>
   <g id="PolyCollection_1"/>
   <g id="line2d_23">
    <path d="M 32.563636 339.345 
L 37.687603 339.328814 
L 42.81157 339.306176 
L 47.935537 339.27476 
L 53.059504 339.231502 
L 58.183471 339.172401 
L 63.307438 339.092284 
L 68.431405 338.98453 
L 73.555372 338.84074 
L 78.679339 338.650377 
L 83.803306 338.400348 
L 88.927273 338.074556 
L 94.05124 337.653427 
L 99.175207 337.113419 
L 104.299174 336.426541 
L 109.42314 335.559908 
L 114.547107 334.475361 
L 119.671074 333.129202 
L 124.795041 331.472069 
L 129.919008 329.449024 
L 135.042975 326.999886 
L 140.166942 324.059873 
L 145.290909 320.560579 
L 150.414876 316.431352 
L 155.538843 311.60107 
L 160.66281 306.000338 
L 165.786777 299.564084 
L 170.910744 292.234512 
L 176.034711 283.964357 
L 181.158678 274.72031 
L 186.282645 264.486527 
L 191.406612 253.268028 
L 196.530579 241.093838 
L 201.654545 228.019657 
L 206.778512 214.129886 
L 211.902479 199.538806 
L 217.026446 184.390752 
L 222.150413 168.859147 
L 227.27438 153.144309 
L 232.398347 137.469992 
L 237.522314 122.078713 
L 242.646281 107.225939 
L 247.770248 93.173331 
L 252.894215 80.181259 
L 258.018182 68.50089 
L 263.142149 58.366168 
L 268.266116 49.986055 
L 273.390083 43.537376 
L 278.51405 39.158621 
L 283.638017 36.945 
L 288.761983 36.945 
L 293.88595 39.158621 
L 299.009917 43.537376 
L 304.133884 49.986055 
L 309.257851 58.366168 
L 314.381818 68.50089 
L 319.505785 80.181259 
L 324.629752 93.173331 
L 329.753719 107.225939 
L 334.877686 122.078713 
L 340.001653 137.469992 
L 345.12562 153.144309 
L 350.249587 168.859147 
L 355.373554 184.390752 
L 360.497521 199.538806 
L 365.621488 214.129886 
L 370.745455 228.019657 
L 375.869421 241.093838 
L 380.993388 253.268028 
L 386.117355 264.486527 
L 391.241322 274.72031 
L 396.365289 283.964357 
L 401.489256 292.234512 
L 406.613223 299.564084 
L 411.73719 306.000338 
L 416.861157 311.60107 
L 421.985124 316.431352 
L 427.109091 320.560579 
L 432.233058 324.059873 
L 437.357025 326.999886 
L 442.480992 329.449024 
L 447.604959 331.472069 
L 452.728926 333.129202 
L 457.852893 334.475361 
L 462.97686 335.559908 
L 468.100826 336.426541 
L 473.224793 337.113419 
L 478.34876 337.653427 
L 483.472727 338.074556 
L 488.596694 338.400348 
L 493.720661 338.650377 
L 498.844628 338.84074 
L 503.968595 338.98453 
L 509.092562 339.092284 
L 514.216529 339.172401 
L 519.340496 339.231502 
L 524.464463 339.27476 
L 529.58843 339.306176 
L 534.712397 339.328814 
L 539.836364 339.345 
" clip-path="url(#pfae301a964)" style="fill: none; stroke: #000000; stroke-width: 1.5; stroke-linecap: round"/>
   </g>
   <g id="patch_80">
    <path d="M 7.2 354.465 
L 7.2 21.825 
" style="fill: none; stroke: #ffffff; stroke-width: 1.25; stroke-linejoin: miter; stroke-linecap: square"/>
   </g>
   <g id="patch_81">
    <path d="M 7.2 354.465 
L 565.2 354.465 
" style="fill: none; stroke: #ffffff; stroke-width: 1.25; stroke-linejoin: miter; stroke-linecap: square"/>
   </g>
  </g>
 </g>
 <defs>
  <clipPath id="pfae301a964">
   <rect x="7.2" y="21.825" width="558" height="332.64"/>
  </clipPath>
 </defs>
</svg>