<?xml version="1.0" encoding="utf-8" standalone="no"?>
<!DOCTYPE svg PUBLIC "-//W3C//DTD SVG 1.1//EN"
  "http://www.w3.org/Graphics/SVG/1.1/DTD/svg11.dtd">
<svg xmlns:xlink="http://www.w3.org/1999/xlink" width="591.075547pt" height="370.536641pt" viewBox="0 0 591.075547 370.536641" xmlns="http://www.w3.org/2000/svg" version="1.1">
 <metadata>
  <rdf:RDF xmlns:dc="http://purl.org/dc/elements/1.1/" xmlns:cc="http://creativecommons.org/ns#" xmlns:rdf="http://www.w3.org/1999/02/22-rdf-syntax-ns#">
   <cc:Work>
    <dc:type rdf:resource="http://purl.org/dc/dcmitype/StillImage"/>
    <dc:date>2023-06-17T10:55:56.644842</dc:date>
    <dc:format>image/svg+xml</dc:format>
    <dc:creator>
     <cc:Agent>
      <dc:title>Matplotlib v3.7.1, https://matplotlib.org/</dc:title>
     </cc:Agent>
    </dc:creator>
   </cc:Work>
  </rdf:RDF>
 </metadata>
 <defs>
  <style type="text/css">*{stroke-linejoin: round; stroke-linecap: butt}</style>
 </defs>
 <g id="figure_1">
  <g id="patch_1">
   <path d="M 0 370.536641 
L 591.075547 370.536641 
L 591.075547 0 
L 0 0 
z
" style="fill: #ffffff"/>
  </g>
  <g id="axes_1">
   <g id="patch_2">
    <path d="M 22.817031 343.776797 
L 580.817031 343.776797 
L 580.817031 11.136797 
L 22.817031 11.136797 
z
" style="fill: #eaeaf2"/>
   </g>
   <g id="matplotlib.axis_1">
    <g id="xtick_1">
     <g id="line2d_1">
      <path d="M 22.817031 343.776797 
L 22.817031 11.136797 
" clip-path="url(#p4501eee35d)" style="fill: none; stroke: #ffffff; stroke-linecap: round"/>
     </g>
     <g id="text_1">
      <!-- −4 -->
      <g style="fill: #262626" transform="translate(16.546172 361.150391) scale(0.11 -0.11)">
       <defs>
        <path id="ArialMT-2212" d="M 3381 1997 
L 356 1997 
L 356 2522 
L 3381 2522 
L 3381 1997 
z
" transform="scale(0.015625)"/>
        <path id="ArialMT-34" d="M 2069 0 
L 2069 1097 
L 81 1097 
L 81 1613 
L 2172 4581 
L 2631 4581 
L 2631 1613 
L 3250 1613 
L 3250 1097 
L 2631 1097 
L 2631 0 
L 2069 0 
z
M 2069 1613 
L 2069 3678 
L 634 1613 
L 2069 1613 
z
" transform="scale(0.015625)"/>
       </defs>
       <use xlink:href="#ArialMT-2212"/>
       <use xlink:href="#ArialMT-34" x="58.398438"/>
      </g>
     </g>
    </g>
    <g id="xtick_2">
     <g id="line2d_2">
      <path d="M 115.817031 343.776797 
L 115.817031 11.136797 
" clip-path="url(#p4501eee35d)" style="fill: none; stroke: #ffffff; stroke-linecap: round"/>
     </g>
     <g id="text_2">
      <!-- −2 -->
      <g style="fill: #262626" transform="translate(109.546172 361.150391) scale(0.11 -0.11)">
       <defs>
        <path id="ArialMT-32" d="M 3222 541 
L 3222 0 
L 194 0 
Q 188 203 259 391 
Q 375 700 629 1000 
Q 884 1300 1366 1694 
Q 2113 2306 2375 2664 
Q 2638 3022 2638 3341 
Q 2638 3675 2398 3904 
Q 2159 4134 1775 4134 
Q 1369 4134 1125 3890 
Q 881 3647 878 3216 
L 300 3275 
Q 359 3922 746 4261 
Q 1134 4600 1788 4600 
Q 2447 4600 2831 4234 
Q 3216 3869 3216 3328 
Q 3216 3053 3103 2787 
Q 2991 2522 2730 2228 
Q 2469 1934 1863 1422 
Q 1356 997 1212 845 
Q 1069 694 975 541 
L 3222 541 
z
" transform="scale(0.015625)"/>
       </defs>
       <use xlink:href="#ArialMT-2212"/>
       <use xlink:href="#ArialMT-32" x="58.398438"/>
      </g>
     </g>
    </g>
    <g id="xtick_3">
     <g id="line2d_3">
      <path d="M 208.817031 343.776797 
L 208.817031 11.136797 
" clip-path="url(#p4501eee35d)" style="fill: none; stroke: #ffffff; stroke-linecap: round"/>
     </g>
     <g id="text_3">
      <!-- 0 -->
      <g style="fill: #262626" transform="translate(205.758516 361.150391) scale(0.11 -0.11)">
       <defs>
        <path id="ArialMT-30" d="M 266 2259 
Q 266 3072 433 3567 
Q 600 4063 929 4331 
Q 1259 4600 1759 4600 
Q 2128 4600 2406 4451 
Q 2684 4303 2865 4023 
Q 3047 3744 3150 3342 
Q 3253 2941 3253 2259 
Q 3253 1453 3087 958 
Q 2922 463 2592 192 
Q 2263 -78 1759 -78 
Q 1097 -78 719 397 
Q 266 969 266 2259 
z
M 844 2259 
Q 844 1131 1108 757 
Q 1372 384 1759 384 
Q 2147 384 2411 759 
Q 2675 1134 2675 2259 
Q 2675 3391 2411 3762 
Q 2147 4134 1753 4134 
Q 1366 4134 1134 3806 
Q 844 3388 844 2259 
z
" transform="scale(0.015625)"/>
       </defs>
       <use xlink:href="#ArialMT-30"/>
      </g>
     </g>
    </g>
    <g id="xtick_4">
     <g id="line2d_4">
      <path d="M 301.817031 343.776797 
L 301.817031 11.136797 
" clip-path="url(#p4501eee35d)" style="fill: none; stroke: #ffffff; stroke-linecap: round"/>
     </g>
     <g id="text_4">
      <!-- 2 -->
      <g style="fill: #262626" transform="translate(298.758516 361.150391) scale(0.11 -0.11)">
       <use xlink:href="#ArialMT-32"/>
      </g>
     </g>
    </g>
    <g id="xtick_5">
     <g id="line2d_5">
      <path d="M 394.817031 343.776797 
L 394.817031 11.136797 
" clip-path="url(#p4501eee35d)" style="fill: none; stroke: #ffffff; stroke-linecap: round"/>
     </g>
     <g id="text_5">
      <!-- 4 -->
      <g style="fill: #262626" transform="translate(391.758516 361.150391) scale(0.11 -0.11)">
       <use xlink:href="#ArialMT-34"/>
      </g>
     </g>
    </g>
    <g id="xtick_6">
     <g id="line2d_6">
      <path d="M 487.817031 343.776797 
L 487.817031 11.136797 
" clip-path="url(#p4501eee35d)" style="fill: none; stroke: #ffffff; stroke-linecap: round"/>
     </g>
     <g id="text_6">
      <!-- 6 -->
      <g style="fill: #262626" transform="translate(484.758516 361.150391) scale(0.11 -0.11)">
       <defs>
        <path id="ArialMT-36" d="M 3184 3459 
L 2625 3416 
Q 2550 3747 2413 3897 
Q 2184 4138 1850 4138 
Q 1581 4138 1378 3988 
Q 1113 3794 959 3422 
Q 806 3050 800 2363 
Q 1003 2672 1297 2822 
Q 1591 2972 1913 2972 
Q 2475 2972 2870 2558 
Q 3266 2144 3266 1488 
Q 3266 1056 3080 686 
Q 2894 316 2569 119 
Q 2244 -78 1831 -78 
Q 1128 -78 684 439 
Q 241 956 241 2144 
Q 241 3472 731 4075 
Q 1159 4600 1884 4600 
Q 2425 4600 2770 4297 
Q 3116 3994 3184 3459 
z
M 888 1484 
Q 888 1194 1011 928 
Q 1134 663 1356 523 
Q 1578 384 1822 384 
Q 2178 384 2434 671 
Q 2691 959 2691 1453 
Q 2691 1928 2437 2201 
Q 2184 2475 1800 2475 
Q 1419 2475 1153 2201 
Q 888 1928 888 1484 
z
" transform="scale(0.015625)"/>
       </defs>
       <use xlink:href="#ArialMT-36"/>
      </g>
     </g>
    </g>
    <g id="xtick_7">
     <g id="line2d_7">
      <path d="M 580.817031 343.776797 
L 580.817031 11.136797 
" clip-path="url(#p4501eee35d)" style="fill: none; stroke: #ffffff; stroke-linecap: round"/>
     </g>
     <g id="text_7">
      <!-- 8 -->
      <g style="fill: #262626" transform="translate(577.758516 361.150391) scale(0.11 -0.11)">
       <defs>
        <path id="ArialMT-38" d="M 1131 2484 
Q 781 2613 612 2850 
Q 444 3088 444 3419 
Q 444 3919 803 4259 
Q 1163 4600 1759 4600 
Q 2359 4600 2725 4251 
Q 3091 3903 3091 3403 
Q 3091 3084 2923 2848 
Q 2756 2613 2416 2484 
Q 2838 2347 3058 2040 
Q 3278 1734 3278 1309 
Q 3278 722 2862 322 
Q 2447 -78 1769 -78 
Q 1091 -78 675 323 
Q 259 725 259 1325 
Q 259 1772 486 2073 
Q 713 2375 1131 2484 
z
M 1019 3438 
Q 1019 3113 1228 2906 
Q 1438 2700 1772 2700 
Q 2097 2700 2305 2904 
Q 2513 3109 2513 3406 
Q 2513 3716 2298 3927 
Q 2084 4138 1766 4138 
Q 1444 4138 1231 3931 
Q 1019 3725 1019 3438 
z
M 838 1322 
Q 838 1081 952 856 
Q 1066 631 1291 507 
Q 1516 384 1775 384 
Q 2178 384 2440 643 
Q 2703 903 2703 1303 
Q 2703 1709 2433 1975 
Q 2163 2241 1756 2241 
Q 1359 2241 1098 1978 
Q 838 1716 838 1322 
z
" transform="scale(0.015625)"/>
       </defs>
       <use xlink:href="#ArialMT-38"/>
      </g>
     </g>
    </g>
   </g>
   <g id="matplotlib.axis_2">
    <g id="ytick_1">
     <g id="line2d_8">
      <path d="M 22.817031 330.982951 
L 580.817031 330.982951 
" clip-path="url(#p4501eee35d)" style="fill: none; stroke: #ffffff; stroke-linecap: round"/>
     </g>
     <g id="text_8">
      <!-- 0 -->
      <g style="fill: #262626" transform="translate(7.2 334.919748) scale(0.11 -0.11)">
       <use xlink:href="#ArialMT-30"/>
      </g>
     </g>
    </g>
    <g id="ytick_2">
     <g id="line2d_9">
      <path d="M 22.817031 267.01372 
L 580.817031 267.01372 
" clip-path="url(#p4501eee35d)" style="fill: none; stroke: #ffffff; stroke-linecap: round"/>
     </g>
     <g id="text_9">
      <!-- 1 -->
      <g style="fill: #262626" transform="translate(7.2 270.950517) scale(0.11 -0.11)">
       <defs>
        <path id="ArialMT-31" d="M 2384 0 
L 1822 0 
L 1822 3584 
Q 1619 3391 1289 3197 
Q 959 3003 697 2906 
L 697 3450 
Q 1169 3672 1522 3987 
Q 1875 4303 2022 4600 
L 2384 4600 
L 2384 0 
z
" transform="scale(0.015625)"/>
       </defs>
       <use xlink:href="#ArialMT-31"/>
      </g>
     </g>
    </g>
    <g id="ytick_3">
     <g id="line2d_10">
      <path d="M 22.817031 203.044489 
L 580.817031 203.044489 
" clip-path="url(#p4501eee35d)" style="fill: none; stroke: #ffffff; stroke-linecap: round"/>
     </g>
     <g id="text_10">
      <!-- 2 -->
      <g style="fill: #262626" transform="translate(7.2 206.981286) scale(0.11 -0.11)">
       <use xlink:href="#ArialMT-32"/>
      </g>
     </g>
    </g>
    <g id="ytick_4">
     <g id="line2d_11">
      <path d="M 22.817031 139.075258 
L 580.817031 139.075258 
" clip-path="url(#p4501eee35d)" style="fill: none; stroke: #ffffff; stroke-linecap: round"/>
     </g>
     <g id="text_11">
      <!-- 3 -->
      <g style="fill: #262626" transform="translate(7.2 143.012055) scale(0.11 -0.11)">
       <defs>
        <path id="ArialMT-33" d="M 269 1209 
L 831 1284 
Q 928 806 1161 595 
Q 1394 384 1728 384 
Q 2125 384 2398 659 
Q 2672 934 2672 1341 
Q 2672 1728 2419 1979 
Q 2166 2231 1775 2231 
Q 1616 2231 1378 2169 
L 1441 2663 
Q 1497 2656 1531 2656 
Q 1891 2656 2178 2843 
Q 2466 3031 2466 3422 
Q 2466 3731 2256 3934 
Q 2047 4138 1716 4138 
Q 1388 4138 1169 3931 
Q 950 3725 888 3313 
L 325 3413 
Q 428 3978 793 4289 
Q 1159 4600 1703 4600 
Q 2078 4600 2393 4439 
Q 2709 4278 2876 4000 
Q 3044 3722 3044 3409 
Q 3044 3113 2884 2869 
Q 2725 2625 2413 2481 
Q 2819 2388 3044 2092 
Q 3269 1797 3269 1353 
Q 3269 753 2831 336 
Q 2394 -81 1725 -81 
Q 1122 -81 723 278 
Q 325 638 269 1209 
z
" transform="scale(0.015625)"/>
       </defs>
       <use xlink:href="#ArialMT-33"/>
      </g>
     </g>
    </g>
    <g id="ytick_5">
     <g id="line2d_12">
      <path d="M 22.817031 75.106028 
L 580.817031 75.106028 
" clip-path="url(#p4501eee35d)" style="fill: none; stroke: #ffffff; stroke-linecap: round"/>
     </g>
     <g id="text_12">
      <!-- 4 -->
      <g style="fill: #262626" transform="translate(7.2 79.042825) scale(0.11 -0.11)">
       <use xlink:href="#ArialMT-34"/>
      </g>
     </g>
    </g>
    <g id="ytick_6">
     <g id="line2d_13">
      <path d="M 22.817031 11.136797 
L 580.817031 11.136797 
" clip-path="url(#p4501eee35d)" style="fill: none; stroke: #ffffff; stroke-linecap: round"/>
     </g>
     <g id="text_13">
      <!-- 5 -->
      <g style="fill: #262626" transform="translate(7.2 15.073594) scale(0.11 -0.11)">
       <defs>
        <path id="ArialMT-35" d="M 266 1200 
L 856 1250 
Q 922 819 1161 601 
Q 1400 384 1738 384 
Q 2144 384 2425 690 
Q 2706 997 2706 1503 
Q 2706 1984 2436 2262 
Q 2166 2541 1728 2541 
Q 1456 2541 1237 2417 
Q 1019 2294 894 2097 
L 366 2166 
L 809 4519 
L 3088 4519 
L 3088 3981 
L 1259 3981 
L 1013 2750 
Q 1425 3038 1878 3038 
Q 2478 3038 2890 2622 
Q 3303 2206 3303 1553 
Q 3303 931 2941 478 
Q 2500 -78 1738 -78 
Q 1113 -78 717 272 
Q 322 622 266 1200 
z
" transform="scale(0.015625)"/>
       </defs>
       <use xlink:href="#ArialMT-35"/>
      </g>
     </g>
    </g>
   </g>
   <g id="PolyCollection_1">
    <defs>
     <path id="m926046c771" d="M 22.817031 -39.55369 
L 22.817031 -40.935993 
L 23.37559 -40.978658 
L 23.934148 -41.022444 
L 24.492707 -41.067373 
L 25.051265 -41.113467 
L 25.609824 -41.16075 
L 26.168383 -41.209244 
L 26.726941 -41.258975 
L 27.2855 -41.309964 
L 27.844058 -41.362238 
L 28.402617 -41.415819 
L 28.961175 -41.470733 
L 29.519734 -41.527003 
L 30.078293 -41.584655 
L 30.636851 -41.643715 
L 31.19541 -41.704207 
L 31.753968 -41.766156 
L 32.312527 -41.829589 
L 32.871085 -41.89453 
L 33.429644 -41.961007 
L 33.988202 -42.029046 
L 34.546761 -42.098671 
L 35.10532 -42.169911 
L 35.663878 -42.242791 
L 36.222437 -42.317337 
L 36.780995 -42.393578 
L 37.339554 -42.471539 
L 37.898112 -42.551247 
L 38.456671 -42.63273 
L 39.015229 -42.716015 
L 39.573788 -42.801128 
L 40.132347 -42.888097 
L 40.690905 -42.97695 
L 41.249464 -43.067712 
L 41.808022 -43.160412 
L 42.366581 -43.255077 
L 42.925139 -43.351734 
L 43.483698 -43.450411 
L 44.042256 -43.551133 
L 44.600815 -43.65393 
L 45.159374 -43.758827 
L 45.717932 -43.865853 
L 46.276491 -43.975033 
L 46.835049 -44.086394 
L 47.393608 -44.199964 
L 47.952166 -44.315769 
L 48.510725 -44.433836 
L 49.069284 -44.55419 
L 49.627842 -44.676858 
L 50.186401 -44.801866 
L 50.744959 -44.92924 
L 51.303518 -45.059005 
L 51.862076 -45.191187 
L 52.420635 -45.32581 
L 52.979193 -45.462901 
L 53.537752 -45.602482 
L 54.096311 -45.74458 
L 54.654869 -45.889217 
L 55.213428 -46.036417 
L 55.771986 -46.186204 
L 56.330545 -46.338601 
L 56.889103 -46.49363 
L 57.447662 -46.651315 
L 58.00622 -46.811676 
L 58.564779 -46.974735 
L 59.123338 -47.140514 
L 59.681896 -47.309033 
L 60.240455 -47.480313 
L 60.799013 -47.654373 
L 61.357572 -47.831232 
L 61.91613 -48.01091 
L 62.474689 -48.193424 
L 63.033247 -48.378794 
L 63.591806 -48.567034 
L 64.150365 -48.758164 
L 64.708923 -48.952198 
L 65.267482 -49.149152 
L 65.82604 -49.349042 
L 66.384599 -49.551882 
L 66.943157 -49.757685 
L 67.501716 -49.966465 
L 68.060274 -50.178234 
L 68.618833 -50.393004 
L 69.177392 -50.610787 
L 69.73595 -50.831592 
L 70.294509 -51.05543 
L 70.853067 -51.282311 
L 71.411626 -51.512241 
L 71.970184 -51.74523 
L 72.528743 -51.981285 
L 73.087302 -52.22041 
L 73.64586 -52.462613 
L 74.204419 -52.707897 
L 74.762977 -52.956267 
L 75.321536 -53.207727 
L 75.880094 -53.462277 
L 76.438653 -53.719921 
L 76.997211 -53.98066 
L 77.55577 -54.244492 
L 78.114329 -54.511418 
L 78.672887 -54.781435 
L 79.231446 -55.054543 
L 79.790004 -55.330736 
L 80.348563 -55.610013 
L 80.907121 -55.892366 
L 81.46568 -56.177792 
L 82.024238 -56.466284 
L 82.582797 -56.757833 
L 83.141356 -57.052433 
L 83.699914 -57.350074 
L 84.258473 -57.650746 
L 84.817031 -57.954439 
L 85.37559 -58.261141 
L 85.934148 -58.57084 
L 86.492707 -58.883522 
L 87.051265 -59.199175 
L 87.609824 -59.517782 
L 88.168383 -59.839329 
L 88.726941 -60.163799 
L 89.2855 -60.491175 
L 89.844058 -60.821439 
L 90.402617 -61.154571 
L 90.961175 -61.490553 
L 91.519734 -61.829363 
L 92.078293 -62.170982 
L 92.636851 -62.515386 
L 93.19541 -62.862553 
L 93.753968 -63.21246 
L 94.312527 -63.565082 
L 94.871085 -63.920395 
L 95.429644 -64.278373 
L 95.988202 -64.638989 
L 96.546761 -65.002217 
L 97.10532 -65.368028 
L 97.663878 -65.736395 
L 98.222437 -66.107289 
L 98.780995 -66.480679 
L 99.339554 -66.856535 
L 99.898112 -67.234828 
L 100.456671 -67.615524 
L 101.015229 -67.998592 
L 101.573788 -68.383999 
L 102.132347 -68.771713 
L 102.690905 -69.161699 
L 103.249464 -69.553923 
L 103.808022 -69.948351 
L 104.366581 -70.344947 
L 104.925139 -70.743676 
L 105.483698 -71.144501 
L 106.042256 -71.547386 
L 106.600815 -71.952295 
L 107.159374 -72.359189 
L 107.717932 -72.768032 
L 108.276491 -73.178785 
L 108.835049 -73.59141 
L 109.393608 -74.005868 
L 109.952166 -74.42212 
L 110.510725 -74.840128 
L 111.069284 -75.259852 
L 111.627842 -75.681252 
L 112.186401 -76.104289 
L 112.744959 -76.528922 
L 113.303518 -76.955112 
L 113.862076 -77.382818 
L 114.420635 -77.811999 
L 114.979193 -78.242615 
L 115.537752 -78.674627 
L 116.096311 -79.107992 
L 116.654869 -79.542671 
L 117.213428 -79.978622 
L 117.771986 -80.415805 
L 118.330545 -80.85418 
L 118.889103 -81.293705 
L 119.447662 -81.734341 
L 120.00622 -82.176046 
L 120.564779 -82.618781 
L 121.123338 -83.062504 
L 121.681896 -83.507177 
L 122.240455 -83.952759 
L 122.799013 -84.39921 
L 123.357572 -84.846491 
L 123.91613 -85.294561 
L 124.474689 -85.743383 
L 125.033247 -86.192917 
L 125.591806 -86.643124 
L 126.150365 -87.093967 
L 126.708923 -87.545405 
L 127.267482 -87.997403 
L 127.82604 -88.449922 
L 128.384599 -88.902925 
L 128.943157 -89.356374 
L 129.501716 -89.810234 
L 130.060274 -90.264468 
L 130.618833 -90.71904 
L 131.177392 -91.173915 
L 131.73595 -91.629057 
L 132.294509 -92.084431 
L 132.853067 -92.540004 
L 133.411626 -92.99574 
L 133.970184 -93.451607 
L 134.528743 -93.907571 
L 135.087302 -94.363599 
L 135.64586 -94.819659 
L 136.204419 -95.275718 
L 136.762977 -95.731746 
L 137.321536 -96.187711 
L 137.880094 -96.643581 
L 138.438653 -97.099327 
L 138.997211 -97.554919 
L 139.55577 -98.010327 
L 140.114329 -98.465521 
L 140.672887 -98.920474 
L 141.231446 -99.375156 
L 141.790004 -99.82954 
L 142.348563 -100.283597 
L 142.907121 -100.737302 
L 143.46568 -101.190626 
L 144.024238 -101.643543 
L 144.582797 -102.096027 
L 145.141356 -102.548053 
L 145.699914 -102.999594 
L 146.258473 -103.450625 
L 146.817031 -103.901122 
L 147.37559 -104.35106 
L 147.934148 -104.800414 
L 148.492707 -105.24916 
L 149.051265 -105.697275 
L 149.609824 -106.144735 
L 150.168383 -106.591516 
L 150.726941 -107.037596 
L 151.2855 -107.482951 
L 151.844058 -107.927558 
L 152.402617 -108.371394 
L 152.961175 -108.814438 
L 153.519734 -109.256666 
L 154.078293 -109.698057 
L 154.636851 -110.138587 
L 155.19541 -110.578234 
L 155.753968 -111.016977 
L 156.312527 -111.454792 
L 156.871085 -111.891658 
L 157.429644 -112.327552 
L 157.988202 -112.762452 
L 158.546761 -113.196334 
L 159.10532 -113.629178 
L 159.663878 -114.060959 
L 160.222437 -114.491655 
L 160.780995 -114.921242 
L 161.339554 -115.349698 
L 161.898112 -115.776998 
L 162.456671 -116.203119 
L 163.015229 -116.628037 
L 163.573788 -117.051728 
L 164.132347 -117.474166 
L 164.690905 -117.895326 
L 165.249464 -118.315183 
L 165.808022 -118.733711 
L 166.366581 -119.150884 
L 166.925139 -119.566674 
L 167.483698 -119.981055 
L 168.042256 -120.393999 
L 168.600815 -120.805477 
L 169.159374 -121.215461 
L 169.717932 -121.623921 
L 170.276491 -122.030828 
L 170.835049 -122.43615 
L 171.393608 -122.839857 
L 171.952166 -123.241916 
L 172.510725 -123.642295 
L 173.069284 -124.040962 
L 173.627842 -124.437881 
L 174.186401 -124.833018 
L 174.744959 -125.226338 
L 175.303518 -125.617804 
L 175.862076 -126.007381 
L 176.420635 -126.395029 
L 176.979193 -126.78071 
L 177.537752 -127.164386 
L 178.096311 -127.546016 
L 178.654869 -127.925558 
L 179.213428 -128.302972 
L 179.771986 -128.678214 
L 180.330545 -129.05124 
L 180.889103 -129.422007 
L 181.447662 -129.790469 
L 182.00622 -130.156579 
L 182.564779 -130.52029 
L 183.123338 -130.881555 
L 183.681896 -131.240325 
L 184.240455 -131.596549 
L 184.799013 -131.950177 
L 185.357572 -132.301157 
L 185.91613 -132.649436 
L 186.474689 -132.994962 
L 187.033247 -133.337679 
L 187.591806 -133.677533 
L 188.150365 -134.014468 
L 188.708923 -134.348426 
L 189.267482 -134.679349 
L 189.82604 -135.007179 
L 190.384599 -135.331857 
L 190.943157 -135.653321 
L 191.501716 -135.971511 
L 192.060274 -136.286365 
L 192.618833 -136.59782 
L 193.177392 -136.905812 
L 193.73595 -137.210277 
L 194.294509 -137.511151 
L 194.853067 -137.808366 
L 195.411626 -138.101858 
L 195.970184 -138.391558 
L 196.528743 -138.6774 
L 197.087302 -138.959315 
L 197.64586 -139.237234 
L 198.204419 -139.511087 
L 198.762977 -139.780806 
L 199.321536 -140.046318 
L 199.880094 -140.307554 
L 200.438653 -140.564443 
L 200.997211 -140.816912 
L 201.55577 -141.06489 
L 202.114329 -141.308304 
L 202.672887 -141.547082 
L 203.231446 -141.781151 
L 203.790004 -142.010437 
L 204.348563 -142.234869 
L 204.907121 -142.454373 
L 205.46568 -142.668875 
L 206.024238 -142.878302 
L 206.582797 -143.082581 
L 207.141356 -143.281638 
L 207.699914 -143.475401 
L 208.258473 -143.663797 
L 208.817031 -143.846753 
L 209.37559 -144.024196 
L 209.934148 -144.196055 
L 210.492707 -144.362258 
L 211.051265 -144.522733 
L 211.609824 -144.67741 
L 212.168383 -144.826219 
L 212.726941 -144.969089 
L 213.2855 -145.105952 
L 213.844058 -145.23674 
L 214.402617 -145.361384 
L 214.961175 -145.479818 
L 215.519734 -145.591976 
L 216.078293 -145.697792 
L 216.636851 -145.797204 
L 217.19541 -145.890147 
L 217.753968 -145.97656 
L 218.312527 -146.056382 
L 218.871085 -146.129553 
L 219.429644 -146.196015 
L 219.988202 -146.255711 
L 220.546761 -146.308584 
L 221.10532 -146.354581 
L 221.663878 -146.393649 
L 222.222437 -146.425736 
L 222.780995 -146.450792 
L 223.339554 -146.468771 
L 223.898112 -146.479624 
L 224.456671 -146.483308 
L 225.015229 -146.479779 
L 225.573788 -146.468996 
L 226.132347 -146.450921 
L 226.690905 -146.425517 
L 227.249464 -146.392747 
L 227.808022 -146.352579 
L 228.366581 -146.304983 
L 228.925139 -146.249928 
L 229.483698 -146.187389 
L 230.042256 -146.117342 
L 230.600815 -146.039764 
L 231.159374 -145.954635 
L 231.717932 -145.861938 
L 232.276491 -145.761659 
L 232.835049 -145.653785 
L 233.393608 -145.538306 
L 233.952166 -145.415215 
L 234.510725 -145.284507 
L 235.069284 -145.146181 
L 235.627842 -145.000236 
L 236.186401 -144.846676 
L 236.744959 -144.685508 
L 237.303518 -144.51674 
L 237.862076 -144.340384 
L 238.420635 -144.156455 
L 238.979193 -143.96497 
L 239.537752 -143.765948 
L 240.096311 -143.559415 
L 240.654869 -143.345395 
L 241.213428 -143.123919 
L 241.771986 -142.895017 
L 242.330545 -142.658726 
L 242.889103 -142.415084 
L 243.447662 -142.164132 
L 244.00622 -141.905915 
L 244.564779 -141.640479 
L 245.123338 -141.367876 
L 245.681896 -141.088159 
L 246.240455 -140.801386 
L 246.799013 -140.507615 
L 247.357572 -140.206911 
L 247.91613 -139.899338 
L 248.474689 -139.584967 
L 249.033247 -139.263871 
L 249.591806 -138.936124 
L 250.150365 -138.601805 
L 250.708923 -138.260996 
L 251.267482 -137.913783 
L 251.82604 -137.560253 
L 252.384599 -137.200498 
L 252.943157 -136.834611 
L 253.501716 -136.462691 
L 254.060274 -136.084837 
L 254.618833 -135.701153 
L 255.177392 -135.311746 
L 255.73595 -134.916725 
L 256.294509 -134.516202 
L 256.853067 -134.110294 
L 257.411626 -133.699117 
L 257.970184 -133.282795 
L 258.528743 -132.86145 
L 259.087302 -132.435211 
L 259.64586 -132.004206 
L 260.204419 -131.568568 
L 260.762977 -131.128433 
L 261.321536 -130.683939 
L 261.880094 -130.235227 
L 262.438653 -129.782441 
L 262.997211 -129.325725 
L 263.55577 -128.865229 
L 264.114329 -128.401104 
L 264.672887 -127.933504 
L 265.231446 -127.462584 
L 265.790004 -126.988503 
L 266.348563 -126.511421 
L 266.907121 -126.031503 
L 267.46568 -125.548912 
L 268.024238 -125.063816 
L 268.582797 -124.576386 
L 269.141356 -124.086791 
L 269.699914 -123.595207 
L 270.258473 -123.101809 
L 270.817031 -122.606773 
L 271.37559 -122.11028 
L 271.934148 -121.612511 
L 272.492707 -121.113647 
L 273.051265 -120.613875 
L 273.609824 -120.11338 
L 274.168383 -119.612349 
L 274.726941 -119.110971 
L 275.2855 -118.609438 
L 275.844058 -118.107941 
L 276.402617 -117.606672 
L 276.961175 -117.105828 
L 277.519734 -116.605601 
L 278.078293 -116.106191 
L 278.636851 -115.607793 
L 279.19541 -115.110606 
L 279.753968 -114.614831 
L 280.312527 -114.120666 
L 280.871085 -113.628313 
L 281.429644 -113.137973 
L 281.988202 -112.649849 
L 282.546761 -112.164143 
L 283.10532 -111.681058 
L 283.663878 -111.200797 
L 284.222437 -110.723565 
L 284.780995 -110.249565 
L 285.339554 -109.779002 
L 285.898112 -109.31208 
L 286.456671 -108.849003 
L 287.015229 -108.389975 
L 287.573788 -107.9352 
L 288.132347 -107.484883 
L 288.690905 -107.039227 
L 289.249464 -106.598435 
L 289.808022 -106.16271 
L 290.366581 -105.732254 
L 290.925139 -105.30727 
L 291.483698 -104.887959 
L 292.042256 -104.474521 
L 292.600815 -104.067156 
L 293.159374 -103.666063 
L 293.717932 -103.27144 
L 294.276491 -102.883485 
L 294.835049 -102.502392 
L 295.393608 -102.128358 
L 295.952166 -101.761576 
L 296.510725 -101.402239 
L 297.069284 -101.050538 
L 297.627842 -100.706663 
L 298.186401 -100.370803 
L 298.744959 -100.043144 
L 299.303518 -99.723873 
L 299.862076 -99.413173 
L 300.420635 -99.111226 
L 300.979193 -98.818213 
L 301.537752 -98.534312 
L 302.096311 -98.259701 
L 302.654869 -97.994555 
L 303.213428 -97.739046 
L 303.771986 -97.493346 
L 304.330545 -97.257623 
L 304.889103 -97.032045 
L 305.447662 -96.816776 
L 306.00622 -96.611978 
L 306.564779 -96.417812 
L 307.123338 -96.234435 
L 307.681896 -96.062004 
L 308.240455 -95.90067 
L 308.799013 -95.750585 
L 309.357572 -95.611896 
L 309.91613 -95.48475 
L 310.474689 -95.369289 
L 311.033247 -95.265653 
L 311.591806 -95.17398 
L 312.150365 -95.094405 
L 312.708923 -95.02706 
L 313.267482 -94.972074 
L 313.82604 -94.929573 
L 314.384599 -94.899682 
L 314.943157 -94.88252 
L 315.501716 -94.878206 
L 316.060274 -94.886855 
L 316.618833 -94.908578 
L 317.177392 -94.943483 
L 317.73595 -94.991677 
L 318.294509 -95.053262 
L 318.853067 -95.128338 
L 319.411626 -95.217001 
L 319.970184 -95.319344 
L 320.528743 -95.435458 
L 321.087302 -95.565428 
L 321.64586 -95.709338 
L 322.204419 -95.86727 
L 322.762977 -96.0393 
L 323.321536 -96.225501 
L 323.880094 -96.425945 
L 324.438653 -96.640698 
L 324.997211 -96.869824 
L 325.55577 -97.113384 
L 326.114329 -97.371436 
L 326.672887 -97.644032 
L 327.231446 -97.931224 
L 327.790004 -98.233059 
L 328.348563 -98.549579 
L 328.907121 -98.880827 
L 329.46568 -99.226838 
L 330.024238 -99.587647 
L 330.582797 -99.963283 
L 331.141356 -100.353774 
L 331.699914 -100.759143 
L 332.258473 -101.179409 
L 332.817031 -101.61459 
L 333.37559 -102.064699 
L 333.934148 -102.529746 
L 334.492707 -103.009737 
L 335.051265 -103.504675 
L 335.609824 -104.014561 
L 336.168383 -104.53939 
L 336.726941 -105.079156 
L 337.2855 -105.633848 
L 337.844058 -106.203453 
L 338.402617 -106.787954 
L 338.961175 -107.38733 
L 339.519734 -108.001558 
L 340.078293 -108.630612 
L 340.636851 -109.27446 
L 341.19541 -109.93307 
L 341.753968 -110.606404 
L 342.312527 -111.294424 
L 342.871085 -111.997086 
L 343.429644 -112.714342 
L 343.988202 -113.446145 
L 344.546761 -114.192441 
L 345.10532 -114.953175 
L 345.663878 -115.728286 
L 346.222437 -116.517714 
L 346.780995 -117.321392 
L 347.339554 -118.139253 
L 347.898112 -118.971225 
L 348.456671 -119.817233 
L 349.015229 -120.6772 
L 349.573788 -121.551045 
L 350.132347 -122.438685 
L 350.690905 -123.340033 
L 351.249464 -124.254999 
L 351.808022 -125.183491 
L 352.366581 -126.125414 
L 352.925139 -127.080669 
L 353.483698 -128.049156 
L 354.042256 -129.030768 
L 354.600815 -130.025401 
L 355.159374 -131.032944 
L 355.717932 -132.053284 
L 356.276491 -133.086306 
L 356.835049 -134.131891 
L 357.393608 -135.189919 
L 357.952166 -136.260266 
L 358.510725 -137.342806 
L 359.069284 -138.437409 
L 359.627842 -139.543943 
L 360.186401 -140.662274 
L 360.744959 -141.792265 
L 361.303518 -142.933775 
L 361.862076 -144.086662 
L 362.420635 -145.250782 
L 362.979193 -146.425986 
L 363.537752 -147.612124 
L 364.096311 -148.809043 
L 364.654869 -150.016588 
L 365.213428 -151.2346 
L 365.771986 -152.46292 
L 366.330545 -153.701385 
L 366.889103 -154.949828 
L 367.447662 -156.208082 
L 368.00622 -157.475977 
L 368.564779 -158.753339 
L 369.123338 -160.039993 
L 369.681896 -161.335762 
L 370.240455 -162.640465 
L 370.799013 -163.95392 
L 371.357572 -165.275941 
L 371.91613 -166.606342 
L 372.474689 -167.944931 
L 373.033247 -169.291519 
L 373.591806 -170.645909 
L 374.150365 -172.007905 
L 374.708923 -173.377308 
L 375.267482 -174.753916 
L 375.82604 -176.137526 
L 376.384599 -177.527931 
L 376.943157 -178.924924 
L 377.501716 -180.328293 
L 378.060274 -181.737825 
L 378.618833 -183.153306 
L 379.177392 -184.574517 
L 379.73595 -186.00124 
L 380.294509 -187.433252 
L 380.853067 -188.870329 
L 381.411626 -190.312245 
L 381.970184 -191.758772 
L 382.528743 -193.209678 
L 383.087302 -194.664731 
L 383.64586 -196.123696 
L 384.204419 -197.586335 
L 384.762977 -199.052411 
L 385.321536 -200.52168 
L 385.880094 -201.9939 
L 386.438653 -203.468825 
L 386.997211 -204.946207 
L 387.55577 -206.425798 
L 388.114329 -207.907344 
L 388.672887 -209.390594 
L 389.231446 -210.875291 
L 389.790004 -212.361177 
L 390.348563 -213.847993 
L 390.907121 -215.335478 
L 391.46568 -216.823368 
L 392.024238 -218.311398 
L 392.582797 -219.799302 
L 393.141356 -221.28681 
L 393.699914 -222.773651 
L 394.258473 -224.259555 
L 394.817031 -225.744246 
L 395.37559 -227.227448 
L 395.934148 -228.708885 
L 396.492707 -230.188278 
L 397.051265 -231.665346 
L 397.609824 -233.139808 
L 398.168383 -234.611378 
L 398.726941 -236.079774 
L 399.2855 -237.544708 
L 399.844058 -239.005893 
L 400.402617 -240.46304 
L 400.961175 -241.915858 
L 401.519734 -243.364057 
L 402.078293 -244.807344 
L 402.636851 -246.245425 
L 403.19541 -247.678005 
L 403.753968 -249.10479 
L 404.312527 -250.525482 
L 404.871085 -251.939784 
L 405.429644 -253.347398 
L 405.988202 -254.748026 
L 406.546761 -256.141368 
L 407.10532 -257.527124 
L 407.663878 -258.904994 
L 408.222437 -260.274676 
L 408.780995 -261.635869 
L 409.339554 -262.988273 
L 409.898112 -264.331585 
L 410.456671 -265.665503 
L 411.015229 -266.989727 
L 411.573788 -268.303954 
L 412.132347 -269.607882 
L 412.690905 -270.901211 
L 413.249464 -272.18364 
L 413.808022 -273.454867 
L 414.366581 -274.714595 
L 414.925139 -275.962522 
L 415.483698 -277.19835 
L 416.042256 -278.421783 
L 416.600815 -279.632523 
L 417.159374 -280.830274 
L 417.717932 -282.014742 
L 418.276491 -283.185633 
L 418.835049 -284.342657 
L 419.393608 -285.485521 
L 419.952166 -286.613938 
L 420.510725 -287.72762 
L 421.069284 -288.826281 
L 421.627842 -289.909639 
L 422.186401 -290.977412 
L 422.744959 -292.02932 
L 423.303518 -293.065086 
L 423.862076 -294.084437 
L 424.420635 -295.087099 
L 424.979193 -296.072803 
L 425.537752 -297.041282 
L 426.096311 -297.992273 
L 426.654869 -298.925513 
L 427.213428 -299.840746 
L 427.771986 -300.737717 
L 428.330545 -301.616173 
L 428.889103 -302.475868 
L 429.447662 -303.316556 
L 430.00622 -304.137997 
L 430.564779 -304.939954 
L 431.123338 -305.722194 
L 431.681896 -306.484487 
L 432.240455 -307.226609 
L 432.799013 -307.948339 
L 433.357572 -308.649461 
L 433.91613 -309.329763 
L 434.474689 -309.989038 
L 435.033247 -310.627082 
L 435.591806 -311.243699 
L 436.150365 -311.838695 
L 436.708923 -312.411883 
L 437.267482 -312.963079 
L 437.82604 -313.492107 
L 438.384599 -313.998794 
L 438.943157 -314.482972 
L 439.501716 -314.944482 
L 440.060274 -315.383167 
L 440.618833 -315.798877 
L 441.177392 -316.191468 
L 441.73595 -316.560801 
L 442.294509 -316.906745 
L 442.853067 -317.229173 
L 443.411626 -317.527964 
L 443.970184 -317.803005 
L 444.528743 -318.054187 
L 445.087302 -318.28141 
L 445.64586 -318.484578 
L 446.204419 -318.663602 
L 446.762977 -318.818401 
L 447.321536 -318.948899 
L 447.880094 -319.055027 
L 448.438653 -319.136723 
L 448.997211 -319.193931 
L 449.55577 -319.226603 
L 450.114329 -319.234696 
L 450.672887 -319.218177 
L 451.231446 -319.177016 
L 451.790004 -319.111193 
L 452.348563 -319.020694 
L 452.907121 -318.90551 
L 453.46568 -318.765642 
L 454.024238 -318.601097 
L 454.582797 -318.411887 
L 455.141356 -318.198035 
L 455.699914 -317.959567 
L 456.258473 -317.696518 
L 456.817031 -317.408931 
L 457.37559 -317.096854 
L 457.934148 -316.760342 
L 458.492707 -316.39946 
L 459.051265 -316.014275 
L 459.609824 -315.604866 
L 460.168383 -315.171316 
L 460.726941 -314.713715 
L 461.2855 -314.232161 
L 461.844058 -313.726757 
L 462.402617 -313.197616 
L 462.961175 -312.644854 
L 463.519734 -312.068595 
L 464.078293 -311.468972 
L 464.636851 -310.846121 
L 465.19541 -310.200187 
L 465.753968 -309.531319 
L 466.312527 -308.839676 
L 466.871085 -308.125419 
L 467.429644 -307.38872 
L 467.988202 -306.629752 
L 468.546761 -305.848698 
L 469.10532 -305.045746 
L 469.663878 -304.221088 
L 470.222437 -303.374926 
L 470.780995 -302.507463 
L 471.339554 -301.61891 
L 471.898112 -300.709484 
L 472.456671 -299.779407 
L 473.015229 -298.828905 
L 473.573788 -297.858211 
L 474.132347 -296.867563 
L 474.690905 -295.857202 
L 475.249464 -294.827377 
L 475.808022 -293.778339 
L 476.366581 -292.710345 
L 476.925139 -291.623657 
L 477.483698 -290.51854 
L 478.042256 -289.395265 
L 478.600815 -288.254105 
L 479.159374 -287.09534 
L 479.717932 -285.919251 
L 480.276491 -284.726124 
L 480.835049 -283.51625 
L 481.393608 -282.289922 
L 481.952166 -281.047435 
L 482.510725 -279.789092 
L 483.069284 -278.515194 
L 483.627842 -277.226047 
L 484.186401 -275.921961 
L 484.744959 -274.603248 
L 485.303518 -273.270222 
L 485.862076 -271.923199 
L 486.420635 -270.5625 
L 486.979193 -269.188444 
L 487.537752 -267.801357 
L 488.096311 -266.401562 
L 488.654869 -264.989388 
L 489.213428 -263.565162 
L 489.771986 -262.129215 
L 490.330545 -260.681879 
L 490.889103 -259.223487 
L 491.447662 -257.754372 
L 492.00622 -256.274869 
L 492.564779 -254.785314 
L 493.123338 -253.286043 
L 493.681896 -251.777394 
L 494.240455 -250.259702 
L 494.799013 -248.733307 
L 495.357572 -247.198546 
L 495.91613 -245.655756 
L 496.474689 -244.105275 
L 497.033247 -242.54744 
L 497.591806 -240.982589 
L 498.150365 -239.411058 
L 498.708923 -237.833183 
L 499.267482 -236.249299 
L 499.82604 -234.659741 
L 500.384599 -233.064841 
L 500.943157 -231.464932 
L 501.501716 -229.860346 
L 502.060274 -228.251411 
L 502.618833 -226.638456 
L 503.177392 -225.021809 
L 503.73595 -223.401792 
L 504.294509 -221.778731 
L 504.853067 -220.152947 
L 505.411626 -218.524758 
L 505.970184 -216.894483 
L 506.528743 -215.262437 
L 507.087302 -213.628932 
L 507.64586 -211.994279 
L 508.204419 -210.358786 
L 508.762977 -208.722759 
L 509.321536 -207.0865 
L 509.880094 -205.450311 
L 510.438653 -203.814488 
L 510.997211 -202.179325 
L 511.55577 -200.545115 
L 512.114329 -198.912146 
L 512.672887 -197.280703 
L 513.231446 -195.651068 
L 513.790004 -194.023521 
L 514.348563 -192.398336 
L 514.907121 -190.775787 
L 515.46568 -189.156142 
L 516.024238 -187.539666 
L 516.582797 -185.926621 
L 517.141356 -184.317265 
L 517.699914 -182.711852 
L 518.258473 -181.110633 
L 518.817031 -179.513855 
L 519.37559 -177.92176 
L 519.934148 -176.334589 
L 520.492707 -174.752575 
L 521.051265 -173.175951 
L 521.609824 -171.604944 
L 522.168383 -170.039776 
L 522.726941 -168.480668 
L 523.2855 -166.927833 
L 523.844058 -165.381484 
L 524.402617 -163.841827 
L 524.961175 -162.309063 
L 525.519734 -160.783393 
L 526.078293 -159.26501 
L 526.636851 -157.754104 
L 527.19541 -156.250861 
L 527.753968 -154.755462 
L 528.312527 -153.268084 
L 528.871085 -151.788901 
L 529.429644 -150.31808 
L 529.988202 -148.855787 
L 530.546761 -147.40218 
L 531.10532 -145.957417 
L 531.663878 -144.521647 
L 532.222437 -143.095019 
L 532.780995 -141.677675 
L 533.339554 -140.269753 
L 533.898112 -138.871388 
L 534.456671 -137.482709 
L 535.015229 -136.103842 
L 535.573788 -134.734908 
L 536.132347 -133.376025 
L 536.690905 -132.027305 
L 537.249464 -130.688857 
L 537.808022 -129.360786 
L 538.366581 -128.043191 
L 538.925139 -126.736168 
L 539.483698 -125.43981 
L 540.042256 -124.154205 
L 540.600815 -122.879435 
L 541.159374 -121.615582 
L 541.717932 -120.36272 
L 542.276491 -119.120921 
L 542.835049 -117.890253 
L 543.393608 -116.67078 
L 543.952166 -115.462561 
L 544.510725 -114.265653 
L 545.069284 -113.080107 
L 545.627842 -111.905972 
L 546.186401 -110.743292 
L 546.744959 -109.592108 
L 547.303518 -108.452458 
L 547.862076 -107.324374 
L 548.420635 -106.207887 
L 548.979193 -105.103023 
L 549.537752 -104.009804 
L 550.096311 -102.928251 
L 550.654869 -101.858378 
L 551.213428 -100.800199 
L 551.771986 -99.753722 
L 552.330545 -98.718954 
L 552.889103 -97.695896 
L 553.447662 -96.684549 
L 554.00622 -95.684908 
L 554.564779 -94.696967 
L 555.123338 -93.720716 
L 555.681896 -92.756141 
L 556.240455 -91.803227 
L 556.799013 -90.861955 
L 557.357572 -89.932304 
L 557.91613 -89.014248 
L 558.474689 -88.107762 
L 559.033247 -87.212814 
L 559.591806 -86.329373 
L 560.150365 -85.457403 
L 560.708923 -84.596867 
L 561.267482 -83.747724 
L 561.82604 -82.909932 
L 562.384599 -82.083446 
L 562.943157 -81.26822 
L 563.501716 -80.464202 
L 564.060274 -79.671342 
L 564.618833 -78.889586 
L 565.177392 -78.118877 
L 565.73595 -77.359159 
L 566.294509 -76.61037 
L 566.853067 -75.872449 
L 567.411626 -75.145332 
L 567.970184 -74.428953 
L 568.528743 -73.723246 
L 569.087302 -73.02814 
L 569.64586 -72.343565 
L 570.204419 -71.669449 
L 570.762977 -71.005718 
L 571.321536 -70.352296 
L 571.880094 -69.709106 
L 572.438653 -69.076071 
L 572.997211 -68.453109 
L 573.55577 -67.840141 
L 574.114329 -67.237085 
L 574.672887 -66.643856 
L 575.231446 -66.060371 
L 575.790004 -65.486544 
L 576.348563 -64.922287 
L 576.907121 -64.367515 
L 577.46568 -63.822137 
L 578.024238 -63.286065 
L 578.582797 -62.759209 
L 579.141356 -62.241477 
L 579.699914 -61.732778 
L 580.258473 -61.233018 
L 580.817031 -60.742106 
L 580.817031 -39.55369 
L 580.817031 -39.55369 
L 580.258473 -39.55369 
L 579.699914 -39.55369 
L 579.141356 -39.55369 
L 578.582797 -39.55369 
L 578.024238 -39.55369 
L 577.46568 -39.55369 
L 576.907121 -39.55369 
L 576.348563 -39.55369 
L 575.790004 -39.55369 
L 575.231446 -39.55369 
L 574.672887 -39.55369 
L 574.114329 -39.55369 
L 573.55577 -39.55369 
L 572.997211 -39.55369 
L 572.438653 -39.55369 
L 571.880094 -39.55369 
L 571.321536 -39.55369 
L 570.762977 -39.55369 
L 570.204419 -39.55369 
L 569.64586 -39.55369 
L 569.087302 -39.55369 
L 568.528743 -39.55369 
L 567.970184 -39.55369 
L 567.411626 -39.55369 
L 566.853067 -39.55369 
L 566.294509 -39.55369 
L 565.73595 -39.55369 
L 565.177392 -39.55369 
L 564.618833 -39.55369 
L 564.060274 -39.55369 
L 563.501716 -39.55369 
L 562.943157 -39.55369 
L 562.384599 -39.55369 
L 561.82604 -39.55369 
L 561.267482 -39.55369 
L 560.708923 -39.55369 
L 560.150365 -39.55369 
L 559.591806 -39.55369 
L 559.033247 -39.55369 
L 558.474689 -39.55369 
L 557.91613 -39.55369 
L 557.357572 -39.55369 
L 556.799013 -39.55369 
L 556.240455 -39.55369 
L 555.681896 -39.55369 
L 555.123338 -39.55369 
L 554.564779 -39.55369 
L 554.00622 -39.55369 
L 553.447662 -39.55369 
L 552.889103 -39.55369 
L 552.330545 -39.55369 
L 551.771986 -39.55369 
L 551.213428 -39.55369 
L 550.654869 -39.55369 
L 550.096311 -39.55369 
L 549.537752 -39.55369 
L 548.979193 -39.55369 
L 548.420635 -39.55369 
L 547.862076 -39.55369 
L 547.303518 -39.55369 
L 546.744959 -39.55369 
L 546.186401 -39.55369 
L 545.627842 -39.55369 
L 545.069284 -39.55369 
L 544.510725 -39.55369 
L 543.952166 -39.55369 
L 543.393608 -39.55369 
L 542.835049 -39.55369 
L 542.276491 -39.55369 
L 541.717932 -39.55369 
L 541.159374 -39.55369 
L 540.600815 -39.55369 
L 540.042256 -39.55369 
L 539.483698 -39.55369 
L 538.925139 -39.55369 
L 538.366581 -39.55369 
L 537.808022 -39.55369 
L 537.249464 -39.55369 
L 536.690905 -39.55369 
L 536.132347 -39.55369 
L 535.573788 -39.55369 
L 535.015229 -39.55369 
L 534.456671 -39.55369 
L 533.898112 -39.55369 
L 533.339554 -39.55369 
L 532.780995 -39.55369 
L 532.222437 -39.55369 
L 531.663878 -39.55369 
L 531.10532 -39.55369 
L 530.546761 -39.55369 
L 529.988202 -39.55369 
L 529.429644 -39.55369 
L 528.871085 -39.55369 
L 528.312527 -39.55369 
L 527.753968 -39.55369 
L 527.19541 -39.55369 
L 526.636851 -39.55369 
L 526.078293 -39.55369 
L 525.519734 -39.55369 
L 524.961175 -39.55369 
L 524.402617 -39.55369 
L 523.844058 -39.55369 
L 523.2855 -39.55369 
L 522.726941 -39.55369 
L 522.168383 -39.55369 
L 521.609824 -39.55369 
L 521.051265 -39.55369 
L 520.492707 -39.55369 
L 519.934148 -39.55369 
L 519.37559 -39.55369 
L 518.817031 -39.55369 
L 518.258473 -39.55369 
L 517.699914 -39.55369 
L 517.141356 -39.55369 
L 516.582797 -39.55369 
L 516.024238 -39.55369 
L 515.46568 -39.55369 
L 514.907121 -39.55369 
L 514.348563 -39.55369 
L 513.790004 -39.55369 
L 513.231446 -39.55369 
L 512.672887 -39.55369 
L 512.114329 -39.55369 
L 511.55577 -39.55369 
L 510.997211 -39.55369 
L 510.438653 -39.55369 
L 509.880094 -39.55369 
L 509.321536 -39.55369 
L 508.762977 -39.55369 
L 508.204419 -39.55369 
L 507.64586 -39.55369 
L 507.087302 -39.55369 
L 506.528743 -39.55369 
L 505.970184 -39.55369 
L 505.411626 -39.55369 
L 504.853067 -39.55369 
L 504.294509 -39.55369 
L 503.73595 -39.55369 
L 503.177392 -39.55369 
L 502.618833 -39.55369 
L 502.060274 -39.55369 
L 501.501716 -39.55369 
L 500.943157 -39.55369 
L 500.384599 -39.55369 
L 499.82604 -39.55369 
L 499.267482 -39.55369 
L 498.708923 -39.55369 
L 498.150365 -39.55369 
L 497.591806 -39.55369 
L 497.033247 -39.55369 
L 496.474689 -39.55369 
L 495.91613 -39.55369 
L 495.357572 -39.55369 
L 494.799013 -39.55369 
L 494.240455 -39.55369 
L 493.681896 -39.55369 
L 493.123338 -39.55369 
L 492.564779 -39.55369 
L 492.00622 -39.55369 
L 491.447662 -39.55369 
L 490.889103 -39.55369 
L 490.330545 -39.55369 
L 489.771986 -39.55369 
L 489.213428 -39.55369 
L 488.654869 -39.55369 
L 488.096311 -39.55369 
L 487.537752 -39.55369 
L 486.979193 -39.55369 
L 486.420635 -39.55369 
L 485.862076 -39.55369 
L 485.303518 -39.55369 
L 484.744959 -39.55369 
L 484.186401 -39.55369 
L 483.627842 -39.55369 
L 483.069284 -39.55369 
L 482.510725 -39.55369 
L 481.952166 -39.55369 
L 481.393608 -39.55369 
L 480.835049 -39.55369 
L 480.276491 -39.55369 
L 479.717932 -39.55369 
L 479.159374 -39.55369 
L 478.600815 -39.55369 
L 478.042256 -39.55369 
L 477.483698 -39.55369 
L 476.925139 -39.55369 
L 476.366581 -39.55369 
L 475.808022 -39.55369 
L 475.249464 -39.55369 
L 474.690905 -39.55369 
L 474.132347 -39.55369 
L 473.573788 -39.55369 
L 473.015229 -39.55369 
L 472.456671 -39.55369 
L 471.898112 -39.55369 
L 471.339554 -39.55369 
L 470.780995 -39.55369 
L 470.222437 -39.55369 
L 469.663878 -39.55369 
L 469.10532 -39.55369 
L 468.546761 -39.55369 
L 467.988202 -39.55369 
L 467.429644 -39.55369 
L 466.871085 -39.55369 
L 466.312527 -39.55369 
L 465.753968 -39.55369 
L 465.19541 -39.55369 
L 464.636851 -39.55369 
L 464.078293 -39.55369 
L 463.519734 -39.55369 
L 462.961175 -39.55369 
L 462.402617 -39.55369 
L 461.844058 -39.55369 
L 461.2855 -39.55369 
L 460.726941 -39.55369 
L 460.168383 -39.55369 
L 459.609824 -39.55369 
L 459.051265 -39.55369 
L 458.492707 -39.55369 
L 457.934148 -39.55369 
L 457.37559 -39.55369 
L 456.817031 -39.55369 
L 456.258473 -39.55369 
L 455.699914 -39.55369 
L 455.141356 -39.55369 
L 454.582797 -39.55369 
L 454.024238 -39.55369 
L 453.46568 -39.55369 
L 452.907121 -39.55369 
L 452.348563 -39.55369 
L 451.790004 -39.55369 
L 451.231446 -39.55369 
L 450.672887 -39.55369 
L 450.114329 -39.55369 
L 449.55577 -39.55369 
L 448.997211 -39.55369 
L 448.438653 -39.55369 
L 447.880094 -39.55369 
L 447.321536 -39.55369 
L 446.762977 -39.55369 
L 446.204419 -39.55369 
L 445.64586 -39.55369 
L 445.087302 -39.55369 
L 444.528743 -39.55369 
L 443.970184 -39.55369 
L 443.411626 -39.55369 
L 442.853067 -39.55369 
L 442.294509 -39.55369 
L 441.73595 -39.55369 
L 441.177392 -39.55369 
L 440.618833 -39.55369 
L 440.060274 -39.55369 
L 439.501716 -39.55369 
L 438.943157 -39.55369 
L 438.384599 -39.55369 
L 437.82604 -39.55369 
L 437.267482 -39.55369 
L 436.708923 -39.55369 
L 436.150365 -39.55369 
L 435.591806 -39.55369 
L 435.033247 -39.55369 
L 434.474689 -39.55369 
L 433.91613 -39.55369 
L 433.357572 -39.55369 
L 432.799013 -39.55369 
L 432.240455 -39.55369 
L 431.681896 -39.55369 
L 431.123338 -39.55369 
L 430.564779 -39.55369 
L 430.00622 -39.55369 
L 429.447662 -39.55369 
L 428.889103 -39.55369 
L 428.330545 -39.55369 
L 427.771986 -39.55369 
L 427.213428 -39.55369 
L 426.654869 -39.55369 
L 426.096311 -39.55369 
L 425.537752 -39.55369 
L 424.979193 -39.55369 
L 424.420635 -39.55369 
L 423.862076 -39.55369 
L 423.303518 -39.55369 
L 422.744959 -39.55369 
L 422.186401 -39.55369 
L 421.627842 -39.55369 
L 421.069284 -39.55369 
L 420.510725 -39.55369 
L 419.952166 -39.55369 
L 419.393608 -39.55369 
L 418.835049 -39.55369 
L 418.276491 -39.55369 
L 417.717932 -39.55369 
L 417.159374 -39.55369 
L 416.600815 -39.55369 
L 416.042256 -39.55369 
L 415.483698 -39.55369 
L 414.925139 -39.55369 
L 414.366581 -39.55369 
L 413.808022 -39.55369 
L 413.249464 -39.55369 
L 412.690905 -39.55369 
L 412.132347 -39.55369 
L 411.573788 -39.55369 
L 411.015229 -39.55369 
L 410.456671 -39.55369 
L 409.898112 -39.55369 
L 409.339554 -39.55369 
L 408.780995 -39.55369 
L 408.222437 -39.55369 
L 407.663878 -39.55369 
L 407.10532 -39.55369 
L 406.546761 -39.55369 
L 405.988202 -39.55369 
L 405.429644 -39.55369 
L 404.871085 -39.55369 
L 404.312527 -39.55369 
L 403.753968 -39.55369 
L 403.19541 -39.55369 
L 402.636851 -39.55369 
L 402.078293 -39.55369 
L 401.519734 -39.55369 
L 400.961175 -39.55369 
L 400.402617 -39.55369 
L 399.844058 -39.55369 
L 399.2855 -39.55369 
L 398.726941 -39.55369 
L 398.168383 -39.55369 
L 397.609824 -39.55369 
L 397.051265 -39.55369 
L 396.492707 -39.55369 
L 395.934148 -39.55369 
L 395.37559 -39.55369 
L 394.817031 -39.55369 
L 394.258473 -39.55369 
L 393.699914 -39.55369 
L 393.141356 -39.55369 
L 392.582797 -39.55369 
L 392.024238 -39.55369 
L 391.46568 -39.55369 
L 390.907121 -39.55369 
L 390.348563 -39.55369 
L 389.790004 -39.55369 
L 389.231446 -39.55369 
L 388.672887 -39.55369 
L 388.114329 -39.55369 
L 387.55577 -39.55369 
L 386.997211 -39.55369 
L 386.438653 -39.55369 
L 385.880094 -39.55369 
L 385.321536 -39.55369 
L 384.762977 -39.55369 
L 384.204419 -39.55369 
L 383.64586 -39.55369 
L 383.087302 -39.55369 
L 382.528743 -39.55369 
L 381.970184 -39.55369 
L 381.411626 -39.55369 
L 380.853067 -39.55369 
L 380.294509 -39.55369 
L 379.73595 -39.55369 
L 379.177392 -39.55369 
L 378.618833 -39.55369 
L 378.060274 -39.55369 
L 377.501716 -39.55369 
L 376.943157 -39.55369 
L 376.384599 -39.55369 
L 375.82604 -39.55369 
L 375.267482 -39.55369 
L 374.708923 -39.55369 
L 374.150365 -39.55369 
L 373.591806 -39.55369 
L 373.033247 -39.55369 
L 372.474689 -39.55369 
L 371.91613 -39.55369 
L 371.357572 -39.55369 
L 370.799013 -39.55369 
L 370.240455 -39.55369 
L 369.681896 -39.55369 
L 369.123338 -39.55369 
L 368.564779 -39.55369 
L 368.00622 -39.55369 
L 367.447662 -39.55369 
L 366.889103 -39.55369 
L 366.330545 -39.55369 
L 365.771986 -39.55369 
L 365.213428 -39.55369 
L 364.654869 -39.55369 
L 364.096311 -39.55369 
L 363.537752 -39.55369 
L 362.979193 -39.55369 
L 362.420635 -39.55369 
L 361.862076 -39.55369 
L 361.303518 -39.55369 
L 360.744959 -39.55369 
L 360.186401 -39.55369 
L 359.627842 -39.55369 
L 359.069284 -39.55369 
L 358.510725 -39.55369 
L 357.952166 -39.55369 
L 357.393608 -39.55369 
L 356.835049 -39.55369 
L 356.276491 -39.55369 
L 355.717932 -39.55369 
L 355.159374 -39.55369 
L 354.600815 -39.55369 
L 354.042256 -39.55369 
L 353.483698 -39.55369 
L 352.925139 -39.55369 
L 352.366581 -39.55369 
L 351.808022 -39.55369 
L 351.249464 -39.55369 
L 350.690905 -39.55369 
L 350.132347 -39.55369 
L 349.573788 -39.55369 
L 349.015229 -39.55369 
L 348.456671 -39.55369 
L 347.898112 -39.55369 
L 347.339554 -39.55369 
L 346.780995 -39.55369 
L 346.222437 -39.55369 
L 345.663878 -39.55369 
L 345.10532 -39.55369 
L 344.546761 -39.55369 
L 343.988202 -39.55369 
L 343.429644 -39.55369 
L 342.871085 -39.55369 
L 342.312527 -39.55369 
L 341.753968 -39.55369 
L 341.19541 -39.55369 
L 340.636851 -39.55369 
L 340.078293 -39.55369 
L 339.519734 -39.55369 
L 338.961175 -39.55369 
L 338.402617 -39.55369 
L 337.844058 -39.55369 
L 337.2855 -39.55369 
L 336.726941 -39.55369 
L 336.168383 -39.55369 
L 335.609824 -39.55369 
L 335.051265 -39.55369 
L 334.492707 -39.55369 
L 333.934148 -39.55369 
L 333.37559 -39.55369 
L 332.817031 -39.55369 
L 332.258473 -39.55369 
L 331.699914 -39.55369 
L 331.141356 -39.55369 
L 330.582797 -39.55369 
L 330.024238 -39.55369 
L 329.46568 -39.55369 
L 328.907121 -39.55369 
L 328.348563 -39.55369 
L 327.790004 -39.55369 
L 327.231446 -39.55369 
L 326.672887 -39.55369 
L 326.114329 -39.55369 
L 325.55577 -39.55369 
L 324.997211 -39.55369 
L 324.438653 -39.55369 
L 323.880094 -39.55369 
L 323.321536 -39.55369 
L 322.762977 -39.55369 
L 322.204419 -39.55369 
L 321.64586 -39.55369 
L 321.087302 -39.55369 
L 320.528743 -39.55369 
L 319.970184 -39.55369 
L 319.411626 -39.55369 
L 318.853067 -39.55369 
L 318.294509 -39.55369 
L 317.73595 -39.55369 
L 317.177392 -39.55369 
L 316.618833 -39.55369 
L 316.060274 -39.55369 
L 315.501716 -39.55369 
L 314.943157 -39.55369 
L 314.384599 -39.55369 
L 313.82604 -39.55369 
L 313.267482 -39.55369 
L 312.708923 -39.55369 
L 312.150365 -39.55369 
L 311.591806 -39.55369 
L 311.033247 -39.55369 
L 310.474689 -39.55369 
L 309.91613 -39.55369 
L 309.357572 -39.55369 
L 308.799013 -39.55369 
L 308.240455 -39.55369 
L 307.681896 -39.55369 
L 307.123338 -39.55369 
L 306.564779 -39.55369 
L 306.00622 -39.55369 
L 305.447662 -39.55369 
L 304.889103 -39.55369 
L 304.330545 -39.55369 
L 303.771986 -39.55369 
L 303.213428 -39.55369 
L 302.654869 -39.55369 
L 302.096311 -39.55369 
L 301.537752 -39.55369 
L 300.979193 -39.55369 
L 300.420635 -39.55369 
L 299.862076 -39.55369 
L 299.303518 -39.55369 
L 298.744959 -39.55369 
L 298.186401 -39.55369 
L 297.627842 -39.55369 
L 297.069284 -39.55369 
L 296.510725 -39.55369 
L 295.952166 -39.55369 
L 295.393608 -39.55369 
L 294.835049 -39.55369 
L 294.276491 -39.55369 
L 293.717932 -39.55369 
L 293.159374 -39.55369 
L 292.600815 -39.55369 
L 292.042256 -39.55369 
L 291.483698 -39.55369 
L 290.925139 -39.55369 
L 290.366581 -39.55369 
L 289.808022 -39.55369 
L 289.249464 -39.55369 
L 288.690905 -39.55369 
L 288.132347 -39.55369 
L 287.573788 -39.55369 
L 287.015229 -39.55369 
L 286.456671 -39.55369 
L 285.898112 -39.55369 
L 285.339554 -39.55369 
L 284.780995 -39.55369 
L 284.222437 -39.55369 
L 283.663878 -39.55369 
L 283.10532 -39.55369 
L 282.546761 -39.55369 
L 281.988202 -39.55369 
L 281.429644 -39.55369 
L 280.871085 -39.55369 
L 280.312527 -39.55369 
L 279.753968 -39.55369 
L 279.19541 -39.55369 
L 278.636851 -39.55369 
L 278.078293 -39.55369 
L 277.519734 -39.55369 
L 276.961175 -39.55369 
L 276.402617 -39.55369 
L 275.844058 -39.55369 
L 275.2855 -39.55369 
L 274.726941 -39.55369 
L 274.168383 -39.55369 
L 273.609824 -39.55369 
L 273.051265 -39.55369 
L 272.492707 -39.55369 
L 271.934148 -39.55369 
L 271.37559 -39.55369 
L 270.817031 -39.55369 
L 270.258473 -39.55369 
L 269.699914 -39.55369 
L 269.141356 -39.55369 
L 268.582797 -39.55369 
L 268.024238 -39.55369 
L 267.46568 -39.55369 
L 266.907121 -39.55369 
L 266.348563 -39.55369 
L 265.790004 -39.55369 
L 265.231446 -39.55369 
L 264.672887 -39.55369 
L 264.114329 -39.55369 
L 263.55577 -39.55369 
L 262.997211 -39.55369 
L 262.438653 -39.55369 
L 261.880094 -39.55369 
L 261.321536 -39.55369 
L 260.762977 -39.55369 
L 260.204419 -39.55369 
L 259.64586 -39.55369 
L 259.087302 -39.55369 
L 258.528743 -39.55369 
L 257.970184 -39.55369 
L 257.411626 -39.55369 
L 256.853067 -39.55369 
L 256.294509 -39.55369 
L 255.73595 -39.55369 
L 255.177392 -39.55369 
L 254.618833 -39.55369 
L 254.060274 -39.55369 
L 253.501716 -39.55369 
L 252.943157 -39.55369 
L 252.384599 -39.55369 
L 251.82604 -39.55369 
L 251.267482 -39.55369 
L 250.708923 -39.55369 
L 250.150365 -39.55369 
L 249.591806 -39.55369 
L 249.033247 -39.55369 
L 248.474689 -39.55369 
L 247.91613 -39.55369 
L 247.357572 -39.55369 
L 246.799013 -39.55369 
L 246.240455 -39.55369 
L 245.681896 -39.55369 
L 245.123338 -39.55369 
L 244.564779 -39.55369 
L 244.00622 -39.55369 
L 243.447662 -39.55369 
L 242.889103 -39.55369 
L 242.330545 -39.55369 
L 241.771986 -39.55369 
L 241.213428 -39.55369 
L 240.654869 -39.55369 
L 240.096311 -39.55369 
L 239.537752 -39.55369 
L 238.979193 -39.55369 
L 238.420635 -39.55369 
L 237.862076 -39.55369 
L 237.303518 -39.55369 
L 236.744959 -39.55369 
L 236.186401 -39.55369 
L 235.627842 -39.55369 
L 235.069284 -39.55369 
L 234.510725 -39.55369 
L 233.952166 -39.55369 
L 233.393608 -39.55369 
L 232.835049 -39.55369 
L 232.276491 -39.55369 
L 231.717932 -39.55369 
L 231.159374 -39.55369 
L 230.600815 -39.55369 
L 230.042256 -39.55369 
L 229.483698 -39.55369 
L 228.925139 -39.55369 
L 228.366581 -39.55369 
L 227.808022 -39.55369 
L 227.249464 -39.55369 
L 226.690905 -39.55369 
L 226.132347 -39.55369 
L 225.573788 -39.55369 
L 225.015229 -39.55369 
L 224.456671 -39.55369 
L 223.898112 -39.55369 
L 223.339554 -39.55369 
L 222.780995 -39.55369 
L 222.222437 -39.55369 
L 221.663878 -39.55369 
L 221.10532 -39.55369 
L 220.546761 -39.55369 
L 219.988202 -39.55369 
L 219.429644 -39.55369 
L 218.871085 -39.55369 
L 218.312527 -39.55369 
L 217.753968 -39.55369 
L 217.19541 -39.55369 
L 216.636851 -39.55369 
L 216.078293 -39.55369 
L 215.519734 -39.55369 
L 214.961175 -39.55369 
L 214.402617 -39.55369 
L 213.844058 -39.55369 
L 213.2855 -39.55369 
L 212.726941 -39.55369 
L 212.168383 -39.55369 
L 211.609824 -39.55369 
L 211.051265 -39.55369 
L 210.492707 -39.55369 
L 209.934148 -39.55369 
L 209.37559 -39.55369 
L 208.817031 -39.55369 
L 208.258473 -39.55369 
L 207.699914 -39.55369 
L 207.141356 -39.55369 
L 206.582797 -39.55369 
L 206.024238 -39.55369 
L 205.46568 -39.55369 
L 204.907121 -39.55369 
L 204.348563 -39.55369 
L 203.790004 -39.55369 
L 203.231446 -39.55369 
L 202.672887 -39.55369 
L 202.114329 -39.55369 
L 201.55577 -39.55369 
L 200.997211 -39.55369 
L 200.438653 -39.55369 
L 199.880094 -39.55369 
L 199.321536 -39.55369 
L 198.762977 -39.55369 
L 198.204419 -39.55369 
L 197.64586 -39.55369 
L 197.087302 -39.55369 
L 196.528743 -39.55369 
L 195.970184 -39.55369 
L 195.411626 -39.55369 
L 194.853067 -39.55369 
L 194.294509 -39.55369 
L 193.73595 -39.55369 
L 193.177392 -39.55369 
L 192.618833 -39.55369 
L 192.060274 -39.55369 
L 191.501716 -39.55369 
L 190.943157 -39.55369 
L 190.384599 -39.55369 
L 189.82604 -39.55369 
L 189.267482 -39.55369 
L 188.708923 -39.55369 
L 188.150365 -39.55369 
L 187.591806 -39.55369 
L 187.033247 -39.55369 
L 186.474689 -39.55369 
L 185.91613 -39.55369 
L 185.357572 -39.55369 
L 184.799013 -39.55369 
L 184.240455 -39.55369 
L 183.681896 -39.55369 
L 183.123338 -39.55369 
L 182.564779 -39.55369 
L 182.00622 -39.55369 
L 181.447662 -39.55369 
L 180.889103 -39.55369 
L 180.330545 -39.55369 
L 179.771986 -39.55369 
L 179.213428 -39.55369 
L 178.654869 -39.55369 
L 178.096311 -39.55369 
L 177.537752 -39.55369 
L 176.979193 -39.55369 
L 176.420635 -39.55369 
L 175.862076 -39.55369 
L 175.303518 -39.55369 
L 174.744959 -39.55369 
L 174.186401 -39.55369 
L 173.627842 -39.55369 
L 173.069284 -39.55369 
L 172.510725 -39.55369 
L 171.952166 -39.55369 
L 171.393608 -39.55369 
L 170.835049 -39.55369 
L 170.276491 -39.55369 
L 169.717932 -39.55369 
L 169.159374 -39.55369 
L 168.600815 -39.55369 
L 168.042256 -39.55369 
L 167.483698 -39.55369 
L 166.925139 -39.55369 
L 166.366581 -39.55369 
L 165.808022 -39.55369 
L 165.249464 -39.55369 
L 164.690905 -39.55369 
L 164.132347 -39.55369 
L 163.573788 -39.55369 
L 163.015229 -39.55369 
L 162.456671 -39.55369 
L 161.898112 -39.55369 
L 161.339554 -39.55369 
L 160.780995 -39.55369 
L 160.222437 -39.55369 
L 159.663878 -39.55369 
L 159.10532 -39.55369 
L 158.546761 -39.55369 
L 157.988202 -39.55369 
L 157.429644 -39.55369 
L 156.871085 -39.55369 
L 156.312527 -39.55369 
L 155.753968 -39.55369 
L 155.19541 -39.55369 
L 154.636851 -39.55369 
L 154.078293 -39.55369 
L 153.519734 -39.55369 
L 152.961175 -39.55369 
L 152.402617 -39.55369 
L 151.844058 -39.55369 
L 151.2855 -39.55369 
L 150.726941 -39.55369 
L 150.168383 -39.55369 
L 149.609824 -39.55369 
L 149.051265 -39.55369 
L 148.492707 -39.55369 
L 147.934148 -39.55369 
L 147.37559 -39.55369 
L 146.817031 -39.55369 
L 146.258473 -39.55369 
L 145.699914 -39.55369 
L 145.141356 -39.55369 
L 144.582797 -39.55369 
L 144.024238 -39.55369 
L 143.46568 -39.55369 
L 142.907121 -39.55369 
L 142.348563 -39.55369 
L 141.790004 -39.55369 
L 141.231446 -39.55369 
L 140.672887 -39.55369 
L 140.114329 -39.55369 
L 139.55577 -39.55369 
L 138.997211 -39.55369 
L 138.438653 -39.55369 
L 137.880094 -39.55369 
L 137.321536 -39.55369 
L 136.762977 -39.55369 
L 136.204419 -39.55369 
L 135.64586 -39.55369 
L 135.087302 -39.55369 
L 134.528743 -39.55369 
L 133.970184 -39.55369 
L 133.411626 -39.55369 
L 132.853067 -39.55369 
L 132.294509 -39.55369 
L 131.73595 -39.55369 
L 131.177392 -39.55369 
L 130.618833 -39.55369 
L 130.060274 -39.55369 
L 129.501716 -39.55369 
L 128.943157 -39.55369 
L 128.384599 -39.55369 
L 127.82604 -39.55369 
L 127.267482 -39.55369 
L 126.708923 -39.55369 
L 126.150365 -39.55369 
L 125.591806 -39.55369 
L 125.033247 -39.55369 
L 124.474689 -39.55369 
L 123.91613 -39.55369 
L 123.357572 -39.55369 
L 122.799013 -39.55369 
L 122.240455 -39.55369 
L 121.681896 -39.55369 
L 121.123338 -39.55369 
L 120.564779 -39.55369 
L 120.00622 -39.55369 
L 119.447662 -39.55369 
L 118.889103 -39.55369 
L 118.330545 -39.55369 
L 117.771986 -39.55369 
L 117.213428 -39.55369 
L 116.654869 -39.55369 
L 116.096311 -39.55369 
L 115.537752 -39.55369 
L 114.979193 -39.55369 
L 114.420635 -39.55369 
L 113.862076 -39.55369 
L 113.303518 -39.55369 
L 112.744959 -39.55369 
L 112.186401 -39.55369 
L 111.627842 -39.55369 
L 111.069284 -39.55369 
L 110.510725 -39.55369 
L 109.952166 -39.55369 
L 109.393608 -39.55369 
L 108.835049 -39.55369 
L 108.276491 -39.55369 
L 107.717932 -39.55369 
L 107.159374 -39.55369 
L 106.600815 -39.55369 
L 106.042256 -39.55369 
L 105.483698 -39.55369 
L 104.925139 -39.55369 
L 104.366581 -39.55369 
L 103.808022 -39.55369 
L 103.249464 -39.55369 
L 102.690905 -39.55369 
L 102.132347 -39.55369 
L 101.573788 -39.55369 
L 101.015229 -39.55369 
L 100.456671 -39.55369 
L 99.898112 -39.55369 
L 99.339554 -39.55369 
L 98.780995 -39.55369 
L 98.222437 -39.55369 
L 97.663878 -39.55369 
L 97.10532 -39.55369 
L 96.546761 -39.55369 
L 95.988202 -39.55369 
L 95.429644 -39.55369 
L 94.871085 -39.55369 
L 94.312527 -39.55369 
L 93.753968 -39.55369 
L 93.19541 -39.55369 
L 92.636851 -39.55369 
L 92.078293 -39.55369 
L 91.519734 -39.55369 
L 90.961175 -39.55369 
L 90.402617 -39.55369 
L 89.844058 -39.55369 
L 89.2855 -39.55369 
L 88.726941 -39.55369 
L 88.168383 -39.55369 
L 87.609824 -39.55369 
L 87.051265 -39.55369 
L 86.492707 -39.55369 
L 85.934148 -39.55369 
L 85.37559 -39.55369 
L 84.817031 -39.55369 
L 84.258473 -39.55369 
L 83.699914 -39.55369 
L 83.141356 -39.55369 
L 82.582797 -39.55369 
L 82.024238 -39.55369 
L 81.46568 -39.55369 
L 80.907121 -39.55369 
L 80.348563 -39.55369 
L 79.790004 -39.55369 
L 79.231446 -39.55369 
L 78.672887 -39.55369 
L 78.114329 -39.55369 
L 77.55577 -39.55369 
L 76.997211 -39.55369 
L 76.438653 -39.55369 
L 75.880094 -39.55369 
L 75.321536 -39.55369 
L 74.762977 -39.55369 
L 74.204419 -39.55369 
L 73.64586 -39.55369 
L 73.087302 -39.55369 
L 72.528743 -39.55369 
L 71.970184 -39.55369 
L 71.411626 -39.55369 
L 70.853067 -39.55369 
L 70.294509 -39.55369 
L 69.73595 -39.55369 
L 69.177392 -39.55369 
L 68.618833 -39.55369 
L 68.060274 -39.55369 
L 67.501716 -39.55369 
L 66.943157 -39.55369 
L 66.384599 -39.55369 
L 65.82604 -39.55369 
L 65.267482 -39.55369 
L 64.708923 -39.55369 
L 64.150365 -39.55369 
L 63.591806 -39.55369 
L 63.033247 -39.55369 
L 62.474689 -39.55369 
L 61.91613 -39.55369 
L 61.357572 -39.55369 
L 60.799013 -39.55369 
L 60.240455 -39.55369 
L 59.681896 -39.55369 
L 59.123338 -39.55369 
L 58.564779 -39.55369 
L 58.00622 -39.55369 
L 57.447662 -39.55369 
L 56.889103 -39.55369 
L 56.330545 -39.55369 
L 55.771986 -39.55369 
L 55.213428 -39.55369 
L 54.654869 -39.55369 
L 54.096311 -39.55369 
L 53.537752 -39.55369 
L 52.979193 -39.55369 
L 52.420635 -39.55369 
L 51.862076 -39.55369 
L 51.303518 -39.55369 
L 50.744959 -39.55369 
L 50.186401 -39.55369 
L 49.627842 -39.55369 
L 49.069284 -39.55369 
L 48.510725 -39.55369 
L 47.952166 -39.55369 
L 47.393608 -39.55369 
L 46.835049 -39.55369 
L 46.276491 -39.55369 
L 45.717932 -39.55369 
L 45.159374 -39.55369 
L 44.600815 -39.55369 
L 44.042256 -39.55369 
L 43.483698 -39.55369 
L 42.925139 -39.55369 
L 42.366581 -39.55369 
L 41.808022 -39.55369 
L 41.249464 -39.55369 
L 40.690905 -39.55369 
L 40.132347 -39.55369 
L 39.573788 -39.55369 
L 39.015229 -39.55369 
L 38.456671 -39.55369 
L 37.898112 -39.55369 
L 37.339554 -39.55369 
L 36.780995 -39.55369 
L 36.222437 -39.55369 
L 35.663878 -39.55369 
L 35.10532 -39.55369 
L 34.546761 -39.55369 
L 33.988202 -39.55369 
L 33.429644 -39.55369 
L 32.871085 -39.55369 
L 32.312527 -39.55369 
L 31.753968 -39.55369 
L 31.19541 -39.55369 
L 30.636851 -39.55369 
L 30.078293 -39.55369 
L 29.519734 -39.55369 
L 28.961175 -39.55369 
L 28.402617 -39.55369 
L 27.844058 -39.55369 
L 27.2855 -39.55369 
L 26.726941 -39.55369 
L 26.168383 -39.55369 
L 25.609824 -39.55369 
L 25.051265 -39.55369 
L 24.492707 -39.55369 
L 23.934148 -39.55369 
L 23.37559 -39.55369 
L 22.817031 -39.55369 
z
" style="stroke: #ffffff; stroke-opacity: 0.5"/>
    </defs>
    <g clip-path="url(#p4501eee35d)">
     <use xlink:href="#m926046c771" x="0" y="370.536641" style="fill: #0173b2; fill-opacity: 0.5; stroke: #ffffff; stroke-opacity: 0.5"/>
    </g>
   </g>
   <g id="line2d_14">
    <defs>
     <path id="m4aed724ce4" d="M 0 3 
L 0 -3 
" style="stroke: #1a1a1a"/>
    </defs>
    <g clip-path="url(#p4501eee35d)">
     <use xlink:href="#m4aed724ce4" x="270.735804" y="337.379874" style="fill: #1a1a1a; stroke: #1a1a1a"/>
     <use xlink:href="#m4aed724ce4" x="242.077504" y="337.379874" style="fill: #1a1a1a; stroke: #1a1a1a"/>
     <use xlink:href="#m4aed724ce4" x="136.955918" y="337.379874" style="fill: #1a1a1a; stroke: #1a1a1a"/>
     <use xlink:href="#m4aed724ce4" x="208.427182" y="337.379874" style="fill: #1a1a1a; stroke: #1a1a1a"/>
     <use xlink:href="#m4aed724ce4" x="237.709154" y="337.379874" style="fill: #1a1a1a; stroke: #1a1a1a"/>
     <use xlink:href="#m4aed724ce4" x="175.333053" y="337.379874" style="fill: #1a1a1a; stroke: #1a1a1a"/>
     <use xlink:href="#m4aed724ce4" x="453.66332" y="337.379874" style="fill: #1a1a1a; stroke: #1a1a1a"/>
     <use xlink:href="#m4aed724ce4" x="446.364538" y="337.379874" style="fill: #1a1a1a; stroke: #1a1a1a"/>
     <use xlink:href="#m4aed724ce4" x="441.516583" y="337.379874" style="fill: #1a1a1a; stroke: #1a1a1a"/>
     <use xlink:href="#m4aed724ce4" x="433.198121" y="337.379874" style="fill: #1a1a1a; stroke: #1a1a1a"/>
     <use xlink:href="#m4aed724ce4" x="461.452749" y="337.379874" style="fill: #1a1a1a; stroke: #1a1a1a"/>
     <use xlink:href="#m4aed724ce4" x="497.258269" y="337.379874" style="fill: #1a1a1a; stroke: #1a1a1a"/>
     <use xlink:href="#m4aed724ce4" x="396.441478" y="337.379874" style="fill: #1a1a1a; stroke: #1a1a1a"/>
     <use xlink:href="#m4aed724ce4" x="489.131776" y="337.379874" style="fill: #1a1a1a; stroke: #1a1a1a"/>
     <use xlink:href="#m4aed724ce4" x="451.948332" y="337.379874" style="fill: #1a1a1a; stroke: #1a1a1a"/>
     <use xlink:href="#m4aed724ce4" x="462.01593" y="337.379874" style="fill: #1a1a1a; stroke: #1a1a1a"/>
     <use xlink:href="#m4aed724ce4" x="388.465028" y="337.379874" style="fill: #1a1a1a; stroke: #1a1a1a"/>
     <use xlink:href="#m4aed724ce4" x="447.600896" y="337.379874" style="fill: #1a1a1a; stroke: #1a1a1a"/>
     <use xlink:href="#m4aed724ce4" x="510.348002" y="337.379874" style="fill: #1a1a1a; stroke: #1a1a1a"/>
     <use xlink:href="#m4aed724ce4" x="391.106104" y="337.379874" style="fill: #1a1a1a; stroke: #1a1a1a"/>
    </g>
   </g>
   <g id="patch_3">
    <path d="M 22.817031 343.776797 
L 22.817031 11.136797 
" style="fill: none; stroke: #ffffff; stroke-width: 1.25; stroke-linejoin: miter; stroke-linecap: square"/>
   </g>
   <g id="patch_4">
    <path d="M 580.817031 343.776797 
L 580.817031 11.136797 
" style="fill: none; stroke: #ffffff; stroke-width: 1.25; stroke-linejoin: miter; stroke-linecap: square"/>
   </g>
   <g id="patch_5">
    <path d="M 22.817031 343.776797 
L 580.817031 343.776797 
" style="fill: none; stroke: #ffffff; stroke-width: 1.25; stroke-linejoin: miter; stroke-linecap: square"/>
   </g>
   <g id="patch_6">
    <path d="M 22.817031 11.136797 
L 580.817031 11.136797 
" style="fill: none; stroke: #ffffff; stroke-width: 1.25; stroke-linejoin: miter; stroke-linecap: square"/>
   </g>
  </g>
 </g>
 <defs>
  <clipPath id="p4501eee35d">
   <rect x="22.817031" y="11.136797" width="558" height="332.64"/>
  </clipPath>
 </defs>
</svg>