<?xml version="1.0" encoding="utf-8" standalone="no"?>
<!DOCTYPE svg PUBLIC "-//W3C//DTD SVG 1.1//EN"
  "http://www.w3.org/Graphics/SVG/1.1/DTD/svg11.dtd">
<svg xmlns:xlink="http://www.w3.org/1999/xlink" width="615.979375pt" height="364.089375pt" viewBox="0 0 615.979375 364.089375" xmlns="http://www.w3.org/2000/svg" version="1.1">
 <metadata>
  <rdf:RDF xmlns:dc="http://purl.org/dc/elements/1.1/" xmlns:cc="http://creativecommons.org/ns#" xmlns:rdf="http://www.w3.org/1999/02/22-rdf-syntax-ns#">
   <cc:Work>
    <dc:type rdf:resource="http://purl.org/dc/dcmitype/StillImage"/>
    <dc:date>2023-05-08T00:03:35.496512</dc:date>
    <dc:format>image/svg+xml</dc:format>
    <dc:creator>
     <cc:Agent>
      <dc:title>Matplotlib v3.7.1, https://matplotlib.org/</dc:title>
     </cc:Agent>
    </dc:creator>
   </cc:Work>
  </rdf:RDF>
 </metadata>
 <defs>
  <style type="text/css">*{stroke-linejoin: round; stroke-linecap: butt}</style>
 </defs>
 <g id="figure_1">
  <g id="patch_1">
   <path d="M 0 364.089375 
L 615.979375 364.089375 
L 615.979375 0 
L 0 0 
z
" style="fill: #ffffff"/>
  </g>
  <g id="axes_1">
   <g id="patch_2">
    <path d="M 50.779375 339.84 
L 608.779375 339.84 
L 608.779375 7.2 
L 50.779375 7.2 
z
" style="fill: #eeeeee"/>
   </g>
   <g id="PolyCollection_1">
    <defs>
     <path id="m91061ae976" d="M 76.143011 -39.369375 
L 76.143011 -39.911424 
L 77.135717 -39.887024 
L 78.128423 -39.846147 
L 79.121129 -39.797302 
L 80.113835 -39.751879 
L 81.106541 -39.716483 
L 82.099247 -39.695201 
L 83.091953 -39.692422 
L 84.084659 -39.713383 
L 85.077365 -39.754719 
L 86.070071 -39.813411 
L 87.062777 -39.877373 
L 88.055482 -39.927256 
L 89.048188 -39.948698 
L 90.040894 -39.935156 
L 91.0336 -39.888718 
L 92.026306 -39.818069 
L 93.019012 -39.741565 
L 94.011718 -39.672058 
L 95.004424 -39.61969 
L 95.99713 -39.591039 
L 96.989836 -39.585398 
L 97.982542 -39.600891 
L 98.975248 -39.627326 
L 99.967954 -39.657274 
L 100.960659 -39.683667 
L 101.953365 -39.701502 
L 102.946071 -39.70807 
L 103.938777 -39.711167 
L 104.931483 -39.712405 
L 105.924189 -39.718655 
L 106.916895 -39.735332 
L 107.909601 -39.7615 
L 108.902307 -39.797197 
L 109.895013 -39.847744 
L 110.887719 -39.915423 
L 111.880425 -40.002268 
L 112.873131 -40.107335 
L 113.865836 -40.221591 
L 114.858542 -40.333703 
L 115.851248 -40.424897 
L 116.843954 -40.486653 
L 117.83666 -40.524371 
L 118.829366 -40.547875 
L 119.822072 -40.577814 
L 120.814778 -40.623789 
L 121.807484 -40.686759 
L 122.80019 -40.761675 
L 123.792896 -40.840955 
L 124.785602 -40.925416 
L 125.778308 -41.019356 
L 126.771013 -41.131344 
L 127.763719 -41.277968 
L 128.756425 -41.458567 
L 129.749131 -41.671433 
L 130.741837 -41.911614 
L 131.734543 -42.183096 
L 132.727249 -42.481099 
L 133.719955 -42.803287 
L 134.712661 -43.141106 
L 135.705367 -43.479796 
L 136.698073 -43.805074 
L 137.690779 -44.111682 
L 138.683485 -44.395747 
L 139.676191 -44.669955 
L 140.668896 -44.963037 
L 141.661602 -45.281128 
L 142.654308 -45.64549 
L 143.647014 -46.040143 
L 144.63972 -46.466908 
L 145.632426 -46.891946 
L 146.625132 -47.298749 
L 147.617838 -47.685678 
L 148.610544 -48.054433 
L 149.60325 -48.455243 
L 150.595956 -48.894607 
L 151.588662 -49.416125 
L 152.581368 -50.002733 
L 153.574073 -50.625236 
L 154.566779 -51.238951 
L 155.559485 -51.808598 
L 156.552191 -52.324737 
L 157.544897 -52.829396 
L 158.537603 -53.364947 
L 159.530309 -54.007136 
L 160.523015 -54.833125 
L 161.515721 -55.865087 
L 162.508427 -57.132942 
L 163.501133 -58.58369 
L 164.493839 -60.176331 
L 165.486545 -61.786587 
L 166.47925 -63.3142 
L 167.471956 -64.662519 
L 168.464662 -65.736984 
L 169.457368 -66.567224 
L 170.450074 -67.165592 
L 171.44278 -67.66063 
L 172.435486 -68.177225 
L 173.428192 -68.840655 
L 174.420898 -69.757164 
L 175.413604 -70.995623 
L 176.40631 -72.547723 
L 177.399016 -74.511262 
L 178.391722 -76.704748 
L 179.384427 -79.141886 
L 180.377133 -81.855197 
L 181.369839 -84.851415 
L 182.362545 -88.165687 
L 183.355251 -91.644433 
L 184.347957 -95.022415 
L 185.340663 -97.907453 
L 186.333369 -99.94468 
L 187.326075 -100.975112 
L 188.318781 -101.058503 
L 189.311487 -100.569526 
L 190.304193 -99.953214 
L 191.296899 -99.607715 
L 192.289604 -99.872889 
L 193.28231 -100.86068 
L 194.275016 -102.667384 
L 195.267722 -105.631 
L 196.260428 -109.659433 
L 197.253134 -114.971815 
L 198.24584 -121.718511 
L 199.238546 -130.108526 
L 200.231252 -140.09013 
L 201.223958 -151.173456 
L 202.216664 -162.379143 
L 203.20937 -172.281846 
L 204.202076 -179.380625 
L 205.194782 -182.672268 
L 206.187487 -182.036366 
L 207.180193 -178.22709 
L 208.172899 -172.579237 
L 209.165605 -166.477448 
L 210.158311 -161.077339 
L 211.151017 -156.916383 
L 212.143723 -154.208096 
L 213.136429 -152.77792 
L 214.129135 -152.269594 
L 215.121841 -152.701854 
L 216.114547 -153.810993 
L 217.107253 -155.367477 
L 218.099959 -157.235102 
L 219.092664 -159.374797 
L 220.08537 -161.773349 
L 221.078076 -164.404082 
L 222.070782 -167.192858 
L 223.063488 -170.179072 
L 224.056194 -173.279993 
L 225.0489 -176.50852 
L 226.041606 -179.82072 
L 227.034312 -183.28806 
L 228.027018 -187.039643 
L 229.019724 -191.078277 
L 230.01243 -195.601146 
L 231.005136 -200.762476 
L 231.997841 -206.551138 
L 232.990547 -213.005605 
L 233.983253 -220.014296 
L 234.975959 -227.464987 
L 235.968665 -235.995192 
L 236.961371 -244.94707 
L 237.954077 -254.799229 
L 238.946783 -265.779691 
L 239.939489 -277.952415 
L 240.932195 -290.885184 
L 241.924901 -303.829794 
L 242.917607 -315.657205 
L 243.910313 -324.825847 
L 244.903018 -330.939827 
L 245.895724 -334.197175 
L 246.88843 -335.747359 
L 247.881136 -337.086986 
L 248.873842 -338.750925 
L 249.866548 -340.575437 
L 250.859254 -341.769375 
L 251.85196 -341.268293 
L 252.844666 -338.720487 
L 253.837372 -334.443414 
L 254.830078 -329.06824 
L 255.822784 -324.40972 
L 256.81549 -320.326437 
L 257.808195 -316.897096 
L 258.800901 -313.851283 
L 259.793607 -310.926384 
L 260.786313 -307.747325 
L 261.779019 -304.711904 
L 262.771725 -302.611715 
L 263.764431 -301.806972 
L 264.757137 -303.255819 
L 265.749843 -306.480174 
L 266.742549 -310.991003 
L 267.735255 -316.031931 
L 268.727961 -320.449843 
L 269.720667 -323.492572 
L 270.713373 -324.653249 
L 271.706078 -323.536113 
L 272.698784 -319.979076 
L 273.69149 -314.084774 
L 274.684196 -306.445384 
L 275.676902 -298.33063 
L 276.669608 -291.123142 
L 277.662314 -286.015093 
L 278.65502 -283.737812 
L 279.647726 -284.241937 
L 280.640432 -287.094401 
L 281.633138 -291.642854 
L 282.625844 -297.133281 
L 283.61855 -303.25959 
L 284.611255 -310.447047 
L 285.603961 -318.147837 
L 286.596667 -325.840629 
L 287.589373 -332.55059 
L 288.582079 -337.030512 
L 289.574785 -338.23875 
L 290.567491 -335.714416 
L 291.560197 -329.968745 
L 292.552903 -322.099987 
L 293.545609 -313.608661 
L 294.538315 -305.839514 
L 295.531021 -299.350858 
L 296.523727 -294.340104 
L 297.516432 -290.520879 
L 298.509138 -287.69947 
L 299.501844 -285.387533 
L 300.49455 -283.350823 
L 301.487256 -281.416734 
L 302.479962 -278.769005 
L 303.472668 -275.084813 
L 304.465374 -270.202793 
L 305.45808 -264.1426 
L 306.450786 -257.282423 
L 307.443492 -249.951546 
L 308.436198 -242.508961 
L 309.428904 -235.195017 
L 310.421609 -228.056428 
L 311.414315 -221.229503 
L 312.407021 -214.781381 
L 313.399727 -208.806957 
L 314.392433 -203.77465 
L 315.385139 -199.849905 
L 316.377845 -197.139491 
L 317.370551 -195.726102 
L 318.363257 -195.539769 
L 319.355963 -196.584702 
L 320.348669 -198.461127 
L 321.341375 -200.966024 
L 322.334081 -203.988747 
L 323.326786 -207.692256 
L 324.319492 -212.077924 
L 325.312198 -216.945677 
L 326.304904 -221.629655 
L 327.29761 -225.044446 
L 328.290316 -225.934866 
L 329.283022 -223.494662 
L 330.275728 -218.114629 
L 331.268434 -210.736873 
L 332.26114 -203.043007 
L 333.253846 -197.06221 
L 334.246552 -194.318629 
L 335.239258 -195.416855 
L 336.231964 -199.777944 
L 337.224669 -205.903307 
L 338.217375 -211.537099 
L 339.210081 -214.689709 
L 340.202787 -214.015693 
L 341.195493 -209.104874 
L 342.188199 -200.787274 
L 343.180905 -190.656187 
L 344.173611 -180.113478 
L 345.166317 -170.248466 
L 346.159023 -161.426282 
L 347.151729 -153.608464 
L 348.144435 -146.66993 
L 349.137141 -140.311447 
L 350.129846 -134.921558 
L 351.122552 -130.569011 
L 352.115258 -127.158027 
L 353.107964 -124.829261 
L 354.10067 -123.537899 
L 355.093376 -123.143245 
L 356.086082 -123.481242 
L 357.078788 -124.388211 
L 358.071494 -125.756204 
L 359.0642 -127.346572 
L 360.056906 -129.227484 
L 361.049612 -131.418105 
L 362.042318 -133.968907 
L 363.035023 -136.897454 
L 364.027729 -140.044472 
L 365.020435 -143.116892 
L 366.013141 -145.783695 
L 367.005847 -147.683268 
L 367.998553 -148.789332 
L 368.991259 -149.123103 
L 369.983965 -149.088437 
L 370.976671 -149.1255 
L 371.969377 -149.641174 
L 372.962083 -151.038179 
L 373.954789 -153.481402 
L 374.947495 -156.916036 
L 375.9402 -160.922719 
L 376.932906 -164.691523 
L 377.925612 -167.219335 
L 378.918318 -167.313887 
L 379.911024 -164.194405 
L 380.90373 -157.649777 
L 381.896436 -148.124891 
L 382.889142 -136.689784 
L 383.881848 -124.668287 
L 384.874554 -113.268959 
L 385.86726 -103.344412 
L 386.859966 -95.254701 
L 387.852672 -88.971734 
L 388.845377 -84.153431 
L 389.838083 -80.441949 
L 390.830789 -77.54327 
L 391.823495 -75.226831 
L 392.816201 -73.380412 
L 393.808907 -71.882629 
L 394.801613 -70.65639 
L 395.794319 -69.579476 
L 396.787025 -68.509891 
L 397.779731 -67.342543 
L 398.772437 -66.019378 
L 399.765143 -64.57847 
L 400.757849 -63.143194 
L 401.750555 -61.782306 
L 402.74326 -60.591055 
L 403.735966 -59.610034 
L 404.728672 -58.802002 
L 405.721378 -58.107257 
L 406.714084 -57.473406 
L 407.70679 -56.848427 
L 408.699496 -56.229216 
L 409.692202 -55.580867 
L 410.684908 -54.927564 
L 411.677614 -54.255638 
L 412.67032 -53.573325 
L 413.663026 -52.919166 
L 414.655732 -52.334613 
L 415.648437 -51.829573 
L 416.641143 -51.426097 
L 417.633849 -51.081003 
L 418.626555 -50.756808 
L 419.619261 -50.41934 
L 420.611967 -50.06157 
L 421.604673 -49.709296 
L 422.597379 -49.363753 
L 423.590085 -49.069189 
L 424.582791 -48.801964 
L 425.575497 -48.542354 
L 426.568203 -48.261414 
L 427.560909 -47.913672 
L 428.553614 -47.512556 
L 429.54632 -47.062016 
L 430.539026 -46.596364 
L 431.531732 -46.156262 
L 432.524438 -45.737271 
L 433.517144 -45.376179 
L 434.50985 -45.0668 
L 435.502556 -44.79398 
L 436.495262 -44.563583 
L 437.487968 -44.35907 
L 438.480674 -44.177259 
L 439.47338 -44.018345 
L 440.466086 -43.872411 
L 441.458791 -43.766347 
L 442.451497 -43.685089 
L 443.444203 -43.651162 
L 444.436909 -43.668631 
L 445.429615 -43.723956 
L 446.422321 -43.79222 
L 447.415027 -43.842551 
L 448.407733 -43.829124 
L 449.400439 -43.733076 
L 450.393145 -43.540339 
L 451.385851 -43.289231 
L 452.378557 -43.00684 
L 453.371263 -42.751896 
L 454.363968 -42.550093 
L 455.356674 -42.421899 
L 456.34938 -42.355335 
L 457.342086 -42.326924 
L 458.334792 -42.311323 
L 459.327498 -42.284738 
L 460.320204 -42.217508 
L 461.31291 -42.112721 
L 462.305616 -41.96377 
L 463.298322 -41.785307 
L 464.291028 -41.602815 
L 465.283734 -41.434952 
L 466.27644 -41.292947 
L 467.269146 -41.18377 
L 468.261851 -41.099163 
L 469.254557 -41.033247 
L 470.247263 -40.97245 
L 471.239969 -40.928584 
L 472.232675 -40.904546 
L 473.225381 -40.911408 
L 474.218087 -40.946107 
L 475.210793 -40.994332 
L 476.203499 -41.038196 
L 477.196205 -41.054121 
L 478.188911 -41.027049 
L 479.181617 -40.961085 
L 480.174323 -40.868253 
L 481.167028 -40.764628 
L 482.159734 -40.67062 
L 483.15244 -40.587529 
L 484.145146 -40.518926 
L 485.137852 -40.458586 
L 486.130558 -40.39993 
L 487.123264 -40.341515 
L 488.11597 -40.296489 
L 489.108676 -40.270989 
L 490.101382 -40.279148 
L 491.094088 -40.323415 
L 492.086794 -40.401361 
L 493.0795 -40.4964 
L 494.072205 -40.596628 
L 495.064911 -40.679384 
L 496.057617 -40.731576 
L 497.050323 -40.746628 
L 498.043029 -40.718033 
L 499.035735 -40.651818 
L 500.028441 -40.553598 
L 501.021147 -40.435209 
L 502.013853 -40.312922 
L 503.006559 -40.194671 
L 503.999265 -40.095216 
L 504.991971 -40.017753 
L 505.984677 -39.960455 
L 506.977382 -39.919182 
L 507.970088 -39.889707 
L 508.962794 -39.857863 
L 509.9555 -39.823191 
L 510.948206 -39.778214 
L 511.940912 -39.725468 
L 512.933618 -39.663976 
L 513.926324 -39.603853 
L 514.91903 -39.548648 
L 515.911736 -39.504857 
L 516.904442 -39.480412 
L 517.897148 -39.475972 
L 518.889854 -39.493617 
L 519.882559 -39.526656 
L 520.875265 -39.566863 
L 521.867971 -39.605035 
L 522.860677 -39.632414 
L 523.853383 -39.648385 
L 524.846089 -39.653285 
L 525.838795 -39.651237 
L 526.831501 -39.645057 
L 527.824207 -39.634464 
L 528.816913 -39.616897 
L 529.809619 -39.592027 
L 530.802325 -39.560935 
L 531.795031 -39.529708 
L 532.787737 -39.505989 
L 533.780442 -39.501458 
L 534.773148 -39.519925 
L 535.765854 -39.564506 
L 536.75856 -39.628243 
L 537.751266 -39.700088 
L 538.743972 -39.767381 
L 539.736678 -39.813708 
L 540.729384 -39.831764 
L 541.72209 -39.817841 
L 542.714796 -39.77682 
L 543.707502 -39.717767 
L 544.700208 -39.650699 
L 545.692914 -39.584155 
L 546.685619 -39.524172 
L 547.678325 -39.474276 
L 548.671031 -39.4351 
L 549.663737 -39.407509 
L 550.656443 -39.391499 
L 551.649149 -39.383409 
L 552.641855 -39.383409 
L 553.634561 -39.391499 
L 554.627267 -39.405588 
L 555.619973 -39.42868 
L 556.612679 -39.458321 
L 557.605385 -39.491855 
L 558.598091 -39.524624 
L 559.590796 -39.550933 
L 560.583502 -39.56562 
L 561.576208 -39.56562 
L 562.568914 -39.550933 
L 563.56162 -39.524624 
L 564.554326 -39.491855 
L 565.547032 -39.458321 
L 566.539738 -39.42868 
L 567.532444 -39.405588 
L 568.52515 -39.389578 
L 569.517856 -39.37891 
L 570.510562 -39.373874 
L 571.503268 -39.371296 
L 572.495973 -39.369375 
L 573.488679 -39.369375 
L 574.481385 -39.371296 
L 575.474091 -39.375795 
L 576.466797 -39.383409 
L 577.459503 -39.397193 
L 578.452209 -39.419371 
L 579.444915 -39.450859 
L 580.437621 -39.489808 
L 581.430327 -39.530805 
L 582.423033 -39.56562 
L 583.415739 -39.585749 
L 583.415739 -39.369375 
L 583.415739 -39.369375 
L 582.423033 -39.369375 
L 581.430327 -39.369375 
L 580.437621 -39.369375 
L 579.444915 -39.369375 
L 578.452209 -39.369375 
L 577.459503 -39.369375 
L 576.466797 -39.369375 
L 575.474091 -39.369375 
L 574.481385 -39.369375 
L 573.488679 -39.369375 
L 572.495973 -39.369375 
L 571.503268 -39.369375 
L 570.510562 -39.369375 
L 569.517856 -39.369375 
L 568.52515 -39.369375 
L 567.532444 -39.369375 
L 566.539738 -39.369375 
L 565.547032 -39.369375 
L 564.554326 -39.369375 
L 563.56162 -39.369375 
L 562.568914 -39.369375 
L 561.576208 -39.369375 
L 560.583502 -39.369375 
L 559.590796 -39.369375 
L 558.598091 -39.369375 
L 557.605385 -39.369375 
L 556.612679 -39.369375 
L 555.619973 -39.369375 
L 554.627267 -39.369375 
L 553.634561 -39.369375 
L 552.641855 -39.369375 
L 551.649149 -39.369375 
L 550.656443 -39.369375 
L 549.663737 -39.369375 
L 548.671031 -39.369375 
L 547.678325 -39.369375 
L 546.685619 -39.369375 
L 545.692914 -39.369375 
L 544.700208 -39.369375 
L 543.707502 -39.369375 
L 542.714796 -39.369375 
L 541.72209 -39.369375 
L 540.729384 -39.369375 
L 539.736678 -39.369375 
L 538.743972 -39.369375 
L 537.751266 -39.369375 
L 536.75856 -39.369375 
L 535.765854 -39.369375 
L 534.773148 -39.369375 
L 533.780442 -39.369375 
L 532.787737 -39.369375 
L 531.795031 -39.369375 
L 530.802325 -39.369375 
L 529.809619 -39.369375 
L 528.816913 -39.369375 
L 527.824207 -39.369375 
L 526.831501 -39.369375 
L 525.838795 -39.369375 
L 524.846089 -39.369375 
L 523.853383 -39.369375 
L 522.860677 -39.369375 
L 521.867971 -39.369375 
L 520.875265 -39.369375 
L 519.882559 -39.369375 
L 518.889854 -39.369375 
L 517.897148 -39.369375 
L 516.904442 -39.369375 
L 515.911736 -39.369375 
L 514.91903 -39.369375 
L 513.926324 -39.369375 
L 512.933618 -39.369375 
L 511.940912 -39.369375 
L 510.948206 -39.369375 
L 509.9555 -39.369375 
L 508.962794 -39.369375 
L 507.970088 -39.369375 
L 506.977382 -39.369375 
L 505.984677 -39.369375 
L 504.991971 -39.369375 
L 503.999265 -39.369375 
L 503.006559 -39.369375 
L 502.013853 -39.369375 
L 501.021147 -39.369375 
L 500.028441 -39.369375 
L 499.035735 -39.369375 
L 498.043029 -39.369375 
L 497.050323 -39.369375 
L 496.057617 -39.369375 
L 495.064911 -39.369375 
L 494.072205 -39.369375 
L 493.0795 -39.369375 
L 492.086794 -39.369375 
L 491.094088 -39.369375 
L 490.101382 -39.369375 
L 489.108676 -39.369375 
L 488.11597 -39.369375 
L 487.123264 -39.369375 
L 486.130558 -39.369375 
L 485.137852 -39.369375 
L 484.145146 -39.369375 
L 483.15244 -39.369375 
L 482.159734 -39.369375 
L 481.167028 -39.369375 
L 480.174323 -39.369375 
L 479.181617 -39.369375 
L 478.188911 -39.369375 
L 477.196205 -39.369375 
L 476.203499 -39.369375 
L 475.210793 -39.369375 
L 474.218087 -39.369375 
L 473.225381 -39.369375 
L 472.232675 -39.369375 
L 471.239969 -39.369375 
L 470.247263 -39.369375 
L 469.254557 -39.369375 
L 468.261851 -39.369375 
L 467.269146 -39.369375 
L 466.27644 -39.369375 
L 465.283734 -39.369375 
L 464.291028 -39.369375 
L 463.298322 -39.369375 
L 462.305616 -39.369375 
L 461.31291 -39.369375 
L 460.320204 -39.369375 
L 459.327498 -39.369375 
L 458.334792 -39.369375 
L 457.342086 -39.369375 
L 456.34938 -39.369375 
L 455.356674 -39.369375 
L 454.363968 -39.369375 
L 453.371263 -39.369375 
L 452.378557 -39.369375 
L 451.385851 -39.369375 
L 450.393145 -39.369375 
L 449.400439 -39.369375 
L 448.407733 -39.369375 
L 447.415027 -39.369375 
L 446.422321 -39.369375 
L 445.429615 -39.369375 
L 444.436909 -39.369375 
L 443.444203 -39.369375 
L 442.451497 -39.369375 
L 441.458791 -39.369375 
L 440.466086 -39.369375 
L 439.47338 -39.369375 
L 438.480674 -39.369375 
L 437.487968 -39.369375 
L 436.495262 -39.369375 
L 435.502556 -39.369375 
L 434.50985 -39.369375 
L 433.517144 -39.369375 
L 432.524438 -39.369375 
L 431.531732 -39.369375 
L 430.539026 -39.369375 
L 429.54632 -39.369375 
L 428.553614 -39.369375 
L 427.560909 -39.369375 
L 426.568203 -39.369375 
L 425.575497 -39.369375 
L 424.582791 -39.369375 
L 423.590085 -39.369375 
L 422.597379 -39.369375 
L 421.604673 -39.369375 
L 420.611967 -39.369375 
L 419.619261 -39.369375 
L 418.626555 -39.369375 
L 417.633849 -39.369375 
L 416.641143 -39.369375 
L 415.648437 -39.369375 
L 414.655732 -39.369375 
L 413.663026 -39.369375 
L 412.67032 -39.369375 
L 411.677614 -39.369375 
L 410.684908 -39.369375 
L 409.692202 -39.369375 
L 408.699496 -39.369375 
L 407.70679 -39.369375 
L 406.714084 -39.369375 
L 405.721378 -39.369375 
L 404.728672 -39.369375 
L 403.735966 -39.369375 
L 402.74326 -39.369375 
L 401.750555 -39.369375 
L 400.757849 -39.369375 
L 399.765143 -39.369375 
L 398.772437 -39.369375 
L 397.779731 -39.369375 
L 396.787025 -39.369375 
L 395.794319 -39.369375 
L 394.801613 -39.369375 
L 393.808907 -39.369375 
L 392.816201 -39.369375 
L 391.823495 -39.369375 
L 390.830789 -39.369375 
L 389.838083 -39.369375 
L 388.845377 -39.369375 
L 387.852672 -39.369375 
L 386.859966 -39.369375 
L 385.86726 -39.369375 
L 384.874554 -39.369375 
L 383.881848 -39.369375 
L 382.889142 -39.369375 
L 381.896436 -39.369375 
L 380.90373 -39.369375 
L 379.911024 -39.369375 
L 378.918318 -39.369375 
L 377.925612 -39.369375 
L 376.932906 -39.369375 
L 375.9402 -39.369375 
L 374.947495 -39.369375 
L 373.954789 -39.369375 
L 372.962083 -39.369375 
L 371.969377 -39.369375 
L 370.976671 -39.369375 
L 369.983965 -39.369375 
L 368.991259 -39.369375 
L 367.998553 -39.369375 
L 367.005847 -39.369375 
L 366.013141 -39.369375 
L 365.020435 -39.369375 
L 364.027729 -39.369375 
L 363.035023 -39.369375 
L 362.042318 -39.369375 
L 361.049612 -39.369375 
L 360.056906 -39.369375 
L 359.0642 -39.369375 
L 358.071494 -39.369375 
L 357.078788 -39.369375 
L 356.086082 -39.369375 
L 355.093376 -39.369375 
L 354.10067 -39.369375 
L 353.107964 -39.369375 
L 352.115258 -39.369375 
L 351.122552 -39.369375 
L 350.129846 -39.369375 
L 349.137141 -39.369375 
L 348.144435 -39.369375 
L 347.151729 -39.369375 
L 346.159023 -39.369375 
L 345.166317 -39.369375 
L 344.173611 -39.369375 
L 343.180905 -39.369375 
L 342.188199 -39.369375 
L 341.195493 -39.369375 
L 340.202787 -39.369375 
L 339.210081 -39.369375 
L 338.217375 -39.369375 
L 337.224669 -39.369375 
L 336.231964 -39.369375 
L 335.239258 -39.369375 
L 334.246552 -39.369375 
L 333.253846 -39.369375 
L 332.26114 -39.369375 
L 331.268434 -39.369375 
L 330.275728 -39.369375 
L 329.283022 -39.369375 
L 328.290316 -39.369375 
L 327.29761 -39.369375 
L 326.304904 -39.369375 
L 325.312198 -39.369375 
L 324.319492 -39.369375 
L 323.326786 -39.369375 
L 322.334081 -39.369375 
L 321.341375 -39.369375 
L 320.348669 -39.369375 
L 319.355963 -39.369375 
L 318.363257 -39.369375 
L 317.370551 -39.369375 
L 316.377845 -39.369375 
L 315.385139 -39.369375 
L 314.392433 -39.369375 
L 313.399727 -39.369375 
L 312.407021 -39.369375 
L 311.414315 -39.369375 
L 310.421609 -39.369375 
L 309.428904 -39.369375 
L 308.436198 -39.369375 
L 307.443492 -39.369375 
L 306.450786 -39.369375 
L 305.45808 -39.369375 
L 304.465374 -39.369375 
L 303.472668 -39.369375 
L 302.479962 -39.369375 
L 301.487256 -39.369375 
L 300.49455 -39.369375 
L 299.501844 -39.369375 
L 298.509138 -39.369375 
L 297.516432 -39.369375 
L 296.523727 -39.369375 
L 295.531021 -39.369375 
L 294.538315 -39.369375 
L 293.545609 -39.369375 
L 292.552903 -39.369375 
L 291.560197 -39.369375 
L 290.567491 -39.369375 
L 289.574785 -39.369375 
L 288.582079 -39.369375 
L 287.589373 -39.369375 
L 286.596667 -39.369375 
L 285.603961 -39.369375 
L 284.611255 -39.369375 
L 283.61855 -39.369375 
L 282.625844 -39.369375 
L 281.633138 -39.369375 
L 280.640432 -39.369375 
L 279.647726 -39.369375 
L 278.65502 -39.369375 
L 277.662314 -39.369375 
L 276.669608 -39.369375 
L 275.676902 -39.369375 
L 274.684196 -39.369375 
L 273.69149 -39.369375 
L 272.698784 -39.369375 
L 271.706078 -39.369375 
L 270.713373 -39.369375 
L 269.720667 -39.369375 
L 268.727961 -39.369375 
L 267.735255 -39.369375 
L 266.742549 -39.369375 
L 265.749843 -39.369375 
L 264.757137 -39.369375 
L 263.764431 -39.369375 
L 262.771725 -39.369375 
L 261.779019 -39.369375 
L 260.786313 -39.369375 
L 259.793607 -39.369375 
L 258.800901 -39.369375 
L 257.808195 -39.369375 
L 256.81549 -39.369375 
L 255.822784 -39.369375 
L 254.830078 -39.369375 
L 253.837372 -39.369375 
L 252.844666 -39.369375 
L 251.85196 -39.369375 
L 250.859254 -39.369375 
L 249.866548 -39.369375 
L 248.873842 -39.369375 
L 247.881136 -39.369375 
L 246.88843 -39.369375 
L 245.895724 -39.369375 
L 244.903018 -39.369375 
L 243.910313 -39.369375 
L 242.917607 -39.369375 
L 241.924901 -39.369375 
L 240.932195 -39.369375 
L 239.939489 -39.369375 
L 238.946783 -39.369375 
L 237.954077 -39.369375 
L 236.961371 -39.369375 
L 235.968665 -39.369375 
L 234.975959 -39.369375 
L 233.983253 -39.369375 
L 232.990547 -39.369375 
L 231.997841 -39.369375 
L 231.005136 -39.369375 
L 230.01243 -39.369375 
L 229.019724 -39.369375 
L 228.027018 -39.369375 
L 227.034312 -39.369375 
L 226.041606 -39.369375 
L 225.0489 -39.369375 
L 224.056194 -39.369375 
L 223.063488 -39.369375 
L 222.070782 -39.369375 
L 221.078076 -39.369375 
L 220.08537 -39.369375 
L 219.092664 -39.369375 
L 218.099959 -39.369375 
L 217.107253 -39.369375 
L 216.114547 -39.369375 
L 215.121841 -39.369375 
L 214.129135 -39.369375 
L 213.136429 -39.369375 
L 212.143723 -39.369375 
L 211.151017 -39.369375 
L 210.158311 -39.369375 
L 209.165605 -39.369375 
L 208.172899 -39.369375 
L 207.180193 -39.369375 
L 206.187487 -39.369375 
L 205.194782 -39.369375 
L 204.202076 -39.369375 
L 203.20937 -39.369375 
L 202.216664 -39.369375 
L 201.223958 -39.369375 
L 200.231252 -39.369375 
L 199.238546 -39.369375 
L 198.24584 -39.369375 
L 197.253134 -39.369375 
L 196.260428 -39.369375 
L 195.267722 -39.369375 
L 194.275016 -39.369375 
L 193.28231 -39.369375 
L 192.289604 -39.369375 
L 191.296899 -39.369375 
L 190.304193 -39.369375 
L 189.311487 -39.369375 
L 188.318781 -39.369375 
L 187.326075 -39.369375 
L 186.333369 -39.369375 
L 185.340663 -39.369375 
L 184.347957 -39.369375 
L 183.355251 -39.369375 
L 182.362545 -39.369375 
L 181.369839 -39.369375 
L 180.377133 -39.369375 
L 179.384427 -39.369375 
L 178.391722 -39.369375 
L 177.399016 -39.369375 
L 176.40631 -39.369375 
L 175.413604 -39.369375 
L 174.420898 -39.369375 
L 173.428192 -39.369375 
L 172.435486 -39.369375 
L 171.44278 -39.369375 
L 170.450074 -39.369375 
L 169.457368 -39.369375 
L 168.464662 -39.369375 
L 167.471956 -39.369375 
L 166.47925 -39.369375 
L 165.486545 -39.369375 
L 164.493839 -39.369375 
L 163.501133 -39.369375 
L 162.508427 -39.369375 
L 161.515721 -39.369375 
L 160.523015 -39.369375 
L 159.530309 -39.369375 
L 158.537603 -39.369375 
L 157.544897 -39.369375 
L 156.552191 -39.369375 
L 155.559485 -39.369375 
L 154.566779 -39.369375 
L 153.574073 -39.369375 
L 152.581368 -39.369375 
L 151.588662 -39.369375 
L 150.595956 -39.369375 
L 149.60325 -39.369375 
L 148.610544 -39.369375 
L 147.617838 -39.369375 
L 146.625132 -39.369375 
L 145.632426 -39.369375 
L 144.63972 -39.369375 
L 143.647014 -39.369375 
L 142.654308 -39.369375 
L 141.661602 -39.369375 
L 140.668896 -39.369375 
L 139.676191 -39.369375 
L 138.683485 -39.369375 
L 137.690779 -39.369375 
L 136.698073 -39.369375 
L 135.705367 -39.369375 
L 134.712661 -39.369375 
L 133.719955 -39.369375 
L 132.727249 -39.369375 
L 131.734543 -39.369375 
L 130.741837 -39.369375 
L 129.749131 -39.369375 
L 128.756425 -39.369375 
L 127.763719 -39.369375 
L 126.771013 -39.369375 
L 125.778308 -39.369375 
L 124.785602 -39.369375 
L 123.792896 -39.369375 
L 122.80019 -39.369375 
L 121.807484 -39.369375 
L 120.814778 -39.369375 
L 119.822072 -39.369375 
L 118.829366 -39.369375 
L 117.83666 -39.369375 
L 116.843954 -39.369375 
L 115.851248 -39.369375 
L 114.858542 -39.369375 
L 113.865836 -39.369375 
L 112.873131 -39.369375 
L 111.880425 -39.369375 
L 110.887719 -39.369375 
L 109.895013 -39.369375 
L 108.902307 -39.369375 
L 107.909601 -39.369375 
L 106.916895 -39.369375 
L 105.924189 -39.369375 
L 104.931483 -39.369375 
L 103.938777 -39.369375 
L 102.946071 -39.369375 
L 101.953365 -39.369375 
L 100.960659 -39.369375 
L 99.967954 -39.369375 
L 98.975248 -39.369375 
L 97.982542 -39.369375 
L 96.989836 -39.369375 
L 95.99713 -39.369375 
L 95.004424 -39.369375 
L 94.011718 -39.369375 
L 93.019012 -39.369375 
L 92.026306 -39.369375 
L 91.0336 -39.369375 
L 90.040894 -39.369375 
L 89.048188 -39.369375 
L 88.055482 -39.369375 
L 87.062777 -39.369375 
L 86.070071 -39.369375 
L 85.077365 -39.369375 
L 84.084659 -39.369375 
L 83.091953 -39.369375 
L 82.099247 -39.369375 
L 81.106541 -39.369375 
L 80.113835 -39.369375 
L 79.121129 -39.369375 
L 78.128423 -39.369375 
L 77.135717 -39.369375 
L 76.143011 -39.369375 
z
" style="stroke: #348abd; stroke-opacity: 0; stroke-width: 0.5"/>
    </defs>
    <g clip-path="url(#pe3ed501238)">
     <use xlink:href="#m91061ae976" x="0" y="364.089375" style="fill: #348abd; fill-opacity: 0; stroke: #348abd; stroke-opacity: 0; stroke-width: 0.5"/>
    </g>
   </g>
   <g id="matplotlib.axis_1">
    <g id="xtick_1">
     <g id="line2d_1">
      <path d="M 131.973263 339.84 
L 131.973263 7.2 
" clip-path="url(#pe3ed501238)" style="fill: none; stroke-dasharray: 1.85,0.8; stroke-dashoffset: 0; stroke: #b2b2b2; stroke-width: 0.5"/>
     </g>
     <g id="line2d_2">
      <defs>
       <path id="m0ee499ab75" d="M 0 0 
L 0 -3.5 
" style="stroke: #000000; stroke-width: 0.8"/>
      </defs>
      <g>
       <use xlink:href="#m0ee499ab75" x="131.973263" y="339.84" style="stroke: #000000; stroke-width: 0.8"/>
      </g>
     </g>
     <g id="text_1">
      <!-- −200 -->
      <g transform="translate(112.746232 353.977813) scale(0.14 -0.14)">
       <defs>
        <path id="DejaVuSans-2212" d="M 678 2272 
L 4684 2272 
L 4684 1741 
L 678 1741 
L 678 2272 
z
" transform="scale(0.015625)"/>
        <path id="DejaVuSans-32" d="M 1228 531 
L 3431 531 
L 3431 0 
L 469 0 
L 469 531 
Q 828 903 1448 1529 
Q 2069 2156 2228 2338 
Q 2531 2678 2651 2914 
Q 2772 3150 2772 3378 
Q 2772 3750 2511 3984 
Q 2250 4219 1831 4219 
Q 1534 4219 1204 4116 
Q 875 4013 500 3803 
L 500 4441 
Q 881 4594 1212 4672 
Q 1544 4750 1819 4750 
Q 2544 4750 2975 4387 
Q 3406 4025 3406 3419 
Q 3406 3131 3298 2873 
Q 3191 2616 2906 2266 
Q 2828 2175 2409 1742 
Q 1991 1309 1228 531 
z
" transform="scale(0.015625)"/>
        <path id="DejaVuSans-30" d="M 2034 4250 
Q 1547 4250 1301 3770 
Q 1056 3291 1056 2328 
Q 1056 1369 1301 889 
Q 1547 409 2034 409 
Q 2525 409 2770 889 
Q 3016 1369 3016 2328 
Q 3016 3291 2770 3770 
Q 2525 4250 2034 4250 
z
M 2034 4750 
Q 2819 4750 3233 4129 
Q 3647 3509 3647 2328 
Q 3647 1150 3233 529 
Q 2819 -91 2034 -91 
Q 1250 -91 836 529 
Q 422 1150 422 2328 
Q 422 3509 836 4129 
Q 1250 4750 2034 4750 
z
" transform="scale(0.015625)"/>
       </defs>
       <use xlink:href="#DejaVuSans-2212"/>
       <use xlink:href="#DejaVuSans-32" x="83.789062"/>
       <use xlink:href="#DejaVuSans-30" x="147.412109"/>
       <use xlink:href="#DejaVuSans-30" x="211.035156"/>
      </g>
     </g>
    </g>
    <g id="xtick_2">
     <g id="line2d_3">
      <path d="M 234.427333 339.84 
L 234.427333 7.2 
" clip-path="url(#pe3ed501238)" style="fill: none; stroke-dasharray: 1.85,0.8; stroke-dashoffset: 0; stroke: #b2b2b2; stroke-width: 0.5"/>
     </g>
     <g id="line2d_4">
      <g>
       <use xlink:href="#m0ee499ab75" x="234.427333" y="339.84" style="stroke: #000000; stroke-width: 0.8"/>
      </g>
     </g>
     <g id="text_2">
      <!-- 0 -->
      <g transform="translate(229.973583 353.977813) scale(0.14 -0.14)">
       <use xlink:href="#DejaVuSans-30"/>
      </g>
     </g>
    </g>
    <g id="xtick_3">
     <g id="line2d_5">
      <path d="M 336.881403 339.84 
L 336.881403 7.2 
" clip-path="url(#pe3ed501238)" style="fill: none; stroke-dasharray: 1.85,0.8; stroke-dashoffset: 0; stroke: #b2b2b2; stroke-width: 0.5"/>
     </g>
     <g id="line2d_6">
      <g>
       <use xlink:href="#m0ee499ab75" x="336.881403" y="339.84" style="stroke: #000000; stroke-width: 0.8"/>
      </g>
     </g>
     <g id="text_3">
      <!-- 200 -->
      <g transform="translate(323.520153 353.977813) scale(0.14 -0.14)">
       <use xlink:href="#DejaVuSans-32"/>
       <use xlink:href="#DejaVuSans-30" x="63.623047"/>
       <use xlink:href="#DejaVuSans-30" x="127.246094"/>
      </g>
     </g>
    </g>
    <g id="xtick_4">
     <g id="line2d_7">
      <path d="M 439.335473 339.84 
L 439.335473 7.2 
" clip-path="url(#pe3ed501238)" style="fill: none; stroke-dasharray: 1.85,0.8; stroke-dashoffset: 0; stroke: #b2b2b2; stroke-width: 0.5"/>
     </g>
     <g id="line2d_8">
      <g>
       <use xlink:href="#m0ee499ab75" x="439.335473" y="339.84" style="stroke: #000000; stroke-width: 0.8"/>
      </g>
     </g>
     <g id="text_4">
      <!-- 400 -->
      <g transform="translate(425.974223 353.977813) scale(0.14 -0.14)">
       <defs>
        <path id="DejaVuSans-34" d="M 2419 4116 
L 825 1625 
L 2419 1625 
L 2419 4116 
z
M 2253 4666 
L 3047 4666 
L 3047 1625 
L 3713 1625 
L 3713 1100 
L 3047 1100 
L 3047 0 
L 2419 0 
L 2419 1100 
L 313 1100 
L 313 1709 
L 2253 4666 
z
" transform="scale(0.015625)"/>
       </defs>
       <use xlink:href="#DejaVuSans-34"/>
       <use xlink:href="#DejaVuSans-30" x="63.623047"/>
       <use xlink:href="#DejaVuSans-30" x="127.246094"/>
      </g>
     </g>
    </g>
    <g id="xtick_5">
     <g id="line2d_9">
      <path d="M 541.789543 339.84 
L 541.789543 7.2 
" clip-path="url(#pe3ed501238)" style="fill: none; stroke-dasharray: 1.85,0.8; stroke-dashoffset: 0; stroke: #b2b2b2; stroke-width: 0.5"/>
     </g>
     <g id="line2d_10">
      <g>
       <use xlink:href="#m0ee499ab75" x="541.789543" y="339.84" style="stroke: #000000; stroke-width: 0.8"/>
      </g>
     </g>
     <g id="text_5">
      <!-- 600 -->
      <g transform="translate(528.428293 353.977813) scale(0.14 -0.14)">
       <defs>
        <path id="DejaVuSans-36" d="M 2113 2584 
Q 1688 2584 1439 2293 
Q 1191 2003 1191 1497 
Q 1191 994 1439 701 
Q 1688 409 2113 409 
Q 2538 409 2786 701 
Q 3034 994 3034 1497 
Q 3034 2003 2786 2293 
Q 2538 2584 2113 2584 
z
M 3366 4563 
L 3366 3988 
Q 3128 4100 2886 4159 
Q 2644 4219 2406 4219 
Q 1781 4219 1451 3797 
Q 1122 3375 1075 2522 
Q 1259 2794 1537 2939 
Q 1816 3084 2150 3084 
Q 2853 3084 3261 2657 
Q 3669 2231 3669 1497 
Q 3669 778 3244 343 
Q 2819 -91 2113 -91 
Q 1303 -91 875 529 
Q 447 1150 447 2328 
Q 447 3434 972 4092 
Q 1497 4750 2381 4750 
Q 2619 4750 2861 4703 
Q 3103 4656 3366 4563 
z
" transform="scale(0.015625)"/>
       </defs>
       <use xlink:href="#DejaVuSans-36"/>
       <use xlink:href="#DejaVuSans-30" x="63.623047"/>
       <use xlink:href="#DejaVuSans-30" x="127.246094"/>
      </g>
     </g>
    </g>
   </g>
   <g id="matplotlib.axis_2">
    <g id="ytick_1">
     <g id="line2d_11">
      <path d="M 50.779375 324.72 
L 608.779375 324.72 
" clip-path="url(#pe3ed501238)" style="fill: none; stroke-dasharray: 1.85,0.8; stroke-dashoffset: 0; stroke: #b2b2b2; stroke-width: 0.5"/>
     </g>
     <g id="line2d_12">
      <defs>
       <path id="m5e88ce20a0" d="M 0 0 
L 3.5 0 
" style="stroke: #000000; stroke-width: 0.8"/>
      </defs>
      <g>
       <use xlink:href="#m5e88ce20a0" x="50.779375" y="324.72" style="stroke: #000000; stroke-width: 0.8"/>
      </g>
     </g>
     <g id="text_6">
      <!-- 0.000 -->
      <g transform="translate(7.2 330.038906) scale(0.14 -0.14)">
       <defs>
        <path id="DejaVuSans-2e" d="M 684 794 
L 1344 794 
L 1344 0 
L 684 0 
L 684 794 
z
" transform="scale(0.015625)"/>
       </defs>
       <use xlink:href="#DejaVuSans-30"/>
       <use xlink:href="#DejaVuSans-2e" x="63.623047"/>
       <use xlink:href="#DejaVuSans-30" x="95.410156"/>
       <use xlink:href="#DejaVuSans-30" x="159.033203"/>
       <use xlink:href="#DejaVuSans-30" x="222.65625"/>
      </g>
     </g>
    </g>
    <g id="ytick_2">
     <g id="line2d_13">
      <path d="M 50.779375 250.845518 
L 608.779375 250.845518 
" clip-path="url(#pe3ed501238)" style="fill: none; stroke-dasharray: 1.85,0.8; stroke-dashoffset: 0; stroke: #b2b2b2; stroke-width: 0.5"/>
     </g>
     <g id="line2d_14">
      <g>
       <use xlink:href="#m5e88ce20a0" x="50.779375" y="250.845518" style="stroke: #000000; stroke-width: 0.8"/>
      </g>
     </g>
     <g id="text_7">
      <!-- 0.001 -->
      <g transform="translate(7.2 256.164424) scale(0.14 -0.14)">
       <defs>
        <path id="DejaVuSans-31" d="M 794 531 
L 1825 531 
L 1825 4091 
L 703 3866 
L 703 4441 
L 1819 4666 
L 2450 4666 
L 2450 531 
L 3481 531 
L 3481 0 
L 794 0 
L 794 531 
z
" transform="scale(0.015625)"/>
       </defs>
       <use xlink:href="#DejaVuSans-30"/>
       <use xlink:href="#DejaVuSans-2e" x="63.623047"/>
       <use xlink:href="#DejaVuSans-30" x="95.410156"/>
       <use xlink:href="#DejaVuSans-30" x="159.033203"/>
       <use xlink:href="#DejaVuSans-31" x="222.65625"/>
      </g>
     </g>
    </g>
    <g id="ytick_3">
     <g id="line2d_15">
      <path d="M 50.779375 176.971036 
L 608.779375 176.971036 
" clip-path="url(#pe3ed501238)" style="fill: none; stroke-dasharray: 1.85,0.8; stroke-dashoffset: 0; stroke: #b2b2b2; stroke-width: 0.5"/>
     </g>
     <g id="line2d_16">
      <g>
       <use xlink:href="#m5e88ce20a0" x="50.779375" y="176.971036" style="stroke: #000000; stroke-width: 0.8"/>
      </g>
     </g>
     <g id="text_8">
      <!-- 0.002 -->
      <g transform="translate(7.2 182.289942) scale(0.14 -0.14)">
       <use xlink:href="#DejaVuSans-30"/>
       <use xlink:href="#DejaVuSans-2e" x="63.623047"/>
       <use xlink:href="#DejaVuSans-30" x="95.410156"/>
       <use xlink:href="#DejaVuSans-30" x="159.033203"/>
       <use xlink:href="#DejaVuSans-32" x="222.65625"/>
      </g>
     </g>
    </g>
    <g id="ytick_4">
     <g id="line2d_17">
      <path d="M 50.779375 103.096554 
L 608.779375 103.096554 
" clip-path="url(#pe3ed501238)" style="fill: none; stroke-dasharray: 1.85,0.8; stroke-dashoffset: 0; stroke: #b2b2b2; stroke-width: 0.5"/>
     </g>
     <g id="line2d_18">
      <g>
       <use xlink:href="#m5e88ce20a0" x="50.779375" y="103.096554" style="stroke: #000000; stroke-width: 0.8"/>
      </g>
     </g>
     <g id="text_9">
      <!-- 0.003 -->
      <g transform="translate(7.2 108.41546) scale(0.14 -0.14)">
       <defs>
        <path id="DejaVuSans-33" d="M 2597 2516 
Q 3050 2419 3304 2112 
Q 3559 1806 3559 1356 
Q 3559 666 3084 287 
Q 2609 -91 1734 -91 
Q 1441 -91 1130 -33 
Q 819 25 488 141 
L 488 750 
Q 750 597 1062 519 
Q 1375 441 1716 441 
Q 2309 441 2620 675 
Q 2931 909 2931 1356 
Q 2931 1769 2642 2001 
Q 2353 2234 1838 2234 
L 1294 2234 
L 1294 2753 
L 1863 2753 
Q 2328 2753 2575 2939 
Q 2822 3125 2822 3475 
Q 2822 3834 2567 4026 
Q 2313 4219 1838 4219 
Q 1578 4219 1281 4162 
Q 984 4106 628 3988 
L 628 4550 
Q 988 4650 1302 4700 
Q 1616 4750 1894 4750 
Q 2613 4750 3031 4423 
Q 3450 4097 3450 3541 
Q 3450 3153 3228 2886 
Q 3006 2619 2597 2516 
z
" transform="scale(0.015625)"/>
       </defs>
       <use xlink:href="#DejaVuSans-30"/>
       <use xlink:href="#DejaVuSans-2e" x="63.623047"/>
       <use xlink:href="#DejaVuSans-30" x="95.410156"/>
       <use xlink:href="#DejaVuSans-30" x="159.033203"/>
       <use xlink:href="#DejaVuSans-33" x="222.65625"/>
      </g>
     </g>
    </g>
    <g id="ytick_5">
     <g id="line2d_19">
      <path d="M 50.779375 29.222072 
L 608.779375 29.222072 
" clip-path="url(#pe3ed501238)" style="fill: none; stroke-dasharray: 1.85,0.8; stroke-dashoffset: 0; stroke: #b2b2b2; stroke-width: 0.5"/>
     </g>
     <g id="line2d_20">
      <g>
       <use xlink:href="#m5e88ce20a0" x="50.779375" y="29.222072" style="stroke: #000000; stroke-width: 0.8"/>
      </g>
     </g>
     <g id="text_10">
      <!-- 0.004 -->
      <g transform="translate(7.2 34.540978) scale(0.14 -0.14)">
       <use xlink:href="#DejaVuSans-30"/>
       <use xlink:href="#DejaVuSans-2e" x="63.623047"/>
       <use xlink:href="#DejaVuSans-30" x="95.410156"/>
       <use xlink:href="#DejaVuSans-30" x="159.033203"/>
       <use xlink:href="#DejaVuSans-34" x="222.65625"/>
      </g>
     </g>
    </g>
   </g>
   <g id="line2d_21">
    <path d="M 76.143011 324.177951 
L 85.077365 324.334656 
L 89.048188 324.140677 
L 92.026306 324.271306 
L 95.99713 324.498336 
L 99.967954 324.432101 
L 112.873131 323.98204 
L 116.843954 323.602722 
L 123.792896 323.24842 
L 127.763719 322.811407 
L 130.741837 322.177761 
L 133.719955 321.286088 
L 138.683485 319.693628 
L 141.661602 318.808247 
L 144.63972 317.622467 
L 148.610544 316.034942 
L 150.595956 315.194768 
L 152.581368 314.086642 
L 155.559485 312.280777 
L 158.537603 310.724428 
L 159.530309 310.082239 
L 160.523015 309.25625 
L 161.515721 308.224288 
L 162.508427 306.956433 
L 164.493839 303.913044 
L 166.47925 300.775175 
L 167.471956 299.426856 
L 168.464662 298.352391 
L 169.457368 297.522151 
L 171.44278 296.428745 
L 172.435486 295.91215 
L 173.428192 295.24872 
L 174.420898 294.332211 
L 175.413604 293.093752 
L 176.40631 291.541652 
L 178.391722 287.384627 
L 180.377133 282.234178 
L 182.362545 275.923688 
L 184.347957 269.06696 
L 185.340663 266.181922 
L 186.333369 264.144695 
L 187.326075 263.114263 
L 188.318781 263.030872 
L 189.311487 263.519849 
L 190.304193 264.136161 
L 191.296899 264.48166 
L 192.289604 264.216486 
L 193.28231 263.228695 
L 194.275016 261.421991 
L 195.267722 258.458375 
L 196.260428 254.429942 
L 197.253134 249.11756 
L 198.24584 242.370864 
L 199.238546 233.980849 
L 201.223958 212.915919 
L 202.216664 201.710232 
L 203.20937 191.807529 
L 204.202076 184.70875 
L 205.194782 181.417107 
L 206.187487 182.053009 
L 207.180193 185.862285 
L 210.158311 203.012036 
L 211.151017 207.172992 
L 212.143723 209.881279 
L 213.136429 211.311455 
L 214.129135 211.819781 
L 215.121841 211.387521 
L 216.114547 210.278382 
L 217.107253 208.721898 
L 218.099959 206.854273 
L 220.08537 202.316026 
L 222.070782 196.896517 
L 224.056194 190.809382 
L 227.034312 180.801315 
L 229.019724 173.011098 
L 230.01243 168.488229 
L 231.005136 163.326899 
L 231.997841 157.538237 
L 233.983253 144.075079 
L 234.975959 136.624388 
L 236.961371 119.142305 
L 237.954077 109.290146 
L 239.939489 86.13696 
L 242.917607 48.43217 
L 243.910313 39.263528 
L 244.903018 33.149548 
L 245.895724 29.8922 
L 246.88843 28.342016 
L 247.881136 27.002389 
L 249.866548 23.513938 
L 250.859254 22.32 
L 251.85196 22.821082 
L 252.844666 25.368888 
L 253.837372 29.645961 
L 254.830078 35.021135 
L 255.822784 39.679655 
L 256.81549 43.762938 
L 258.800901 50.238092 
L 260.786313 56.34205 
L 261.779019 59.377471 
L 262.771725 61.47766 
L 263.764431 62.282403 
L 264.757137 60.833556 
L 265.749843 57.609201 
L 266.742549 53.098372 
L 267.735255 48.057444 
L 268.727961 43.639532 
L 269.720667 40.596803 
L 270.713373 39.436126 
L 271.706078 40.553262 
L 272.698784 44.110299 
L 273.69149 50.004601 
L 276.669608 72.966233 
L 277.662314 78.074282 
L 278.65502 80.351563 
L 279.647726 79.847438 
L 280.640432 76.994974 
L 281.633138 72.446521 
L 282.625844 66.956094 
L 283.61855 60.829785 
L 285.603961 45.941538 
L 286.596667 38.248746 
L 287.589373 31.538785 
L 288.582079 27.058863 
L 289.574785 25.850625 
L 290.567491 28.374959 
L 291.560197 34.12063 
L 295.531021 64.738517 
L 296.523727 69.749271 
L 297.516432 73.568496 
L 298.509138 76.389905 
L 300.49455 80.738552 
L 301.487256 82.672641 
L 302.479962 85.32037 
L 303.472668 89.004562 
L 304.465374 93.886582 
L 305.45808 99.946775 
L 307.443492 114.137829 
L 310.421609 136.032947 
L 312.407021 149.307994 
L 313.399727 155.282418 
L 314.392433 160.314725 
L 315.385139 164.23947 
L 316.377845 166.949884 
L 317.370551 168.363273 
L 318.363257 168.549606 
L 319.355963 167.504673 
L 320.348669 165.628248 
L 321.341375 163.123351 
L 322.334081 160.100628 
L 323.326786 156.397119 
L 325.312198 147.143698 
L 326.304904 142.45972 
L 327.29761 139.044929 
L 328.290316 138.154509 
L 329.283022 140.594713 
L 330.275728 145.974746 
L 332.26114 161.046368 
L 333.253846 167.027165 
L 334.246552 169.770746 
L 335.239258 168.67252 
L 336.231964 164.311431 
L 338.217375 152.552276 
L 339.210081 149.399666 
L 340.202787 150.073682 
L 341.195493 154.984501 
L 342.188199 163.302101 
L 345.166317 193.840909 
L 346.159023 202.663093 
L 348.144435 217.419445 
L 349.137141 223.777928 
L 350.129846 229.167817 
L 351.122552 233.520364 
L 352.115258 236.931348 
L 353.107964 239.260114 
L 354.10067 240.551476 
L 355.093376 240.94613 
L 356.086082 240.608133 
L 357.078788 239.701164 
L 358.071494 238.333171 
L 359.0642 236.742803 
L 360.056906 234.861891 
L 361.049612 232.67127 
L 362.042318 230.120468 
L 364.027729 224.044903 
L 365.020435 220.972483 
L 366.013141 218.30568 
L 367.005847 216.406107 
L 367.998553 215.300043 
L 368.991259 214.966272 
L 370.976671 214.963875 
L 371.969377 214.448201 
L 372.962083 213.051196 
L 373.954789 210.607973 
L 374.947495 207.173339 
L 376.932906 199.397852 
L 377.925612 196.87004 
L 378.918318 196.775488 
L 379.911024 199.89497 
L 380.90373 206.439598 
L 381.896436 215.964484 
L 385.86726 260.744963 
L 386.859966 268.834674 
L 387.852672 275.117641 
L 388.845377 279.935944 
L 389.838083 283.647426 
L 390.830789 286.546105 
L 391.823495 288.862544 
L 392.816201 290.708963 
L 393.808907 292.206746 
L 395.794319 294.509899 
L 397.779731 296.746832 
L 399.765143 299.510905 
L 401.750555 302.307069 
L 402.74326 303.49832 
L 403.735966 304.479341 
L 405.721378 305.982118 
L 415.648437 312.259802 
L 417.633849 313.008372 
L 428.553614 316.576819 
L 433.517144 318.713196 
L 436.495262 319.525792 
L 439.47338 320.07103 
L 442.451497 320.404286 
L 444.436909 320.420744 
L 448.407733 320.260251 
L 450.393145 320.549036 
L 454.363968 321.539282 
L 456.34938 321.73404 
L 461.31291 321.976654 
L 469.254557 323.056128 
L 472.232675 323.184829 
L 476.203499 323.051179 
L 478.188911 323.062326 
L 483.15244 323.501846 
L 489.108676 323.818386 
L 492.086794 323.688014 
L 496.057617 323.357799 
L 498.043029 323.371342 
L 501.021147 323.654166 
L 504.991971 324.071622 
L 514.91903 324.540727 
L 517.897148 324.613403 
L 529.809619 324.497348 
L 534.773148 324.56945 
L 542.714796 324.312555 
L 550.656443 324.697876 
L 555.619973 324.660695 
L 562.568914 324.538442 
L 573.488679 324.72 
L 580.437621 324.599567 
L 583.415739 324.503626 
L 583.415739 324.503626 
" clip-path="url(#pe3ed501238)" style="fill: none; stroke: #348abd; stroke-width: 2; stroke-linecap: square"/>
   </g>
   <g id="patch_3">
    <path d="M 50.779375 339.84 
L 50.779375 7.2 
" style="fill: none; stroke: #bcbcbc; stroke-width: 0.8; stroke-linejoin: miter; stroke-linecap: square"/>
   </g>
   <g id="patch_4">
    <path d="M 608.779375 339.84 
L 608.779375 7.2 
" style="fill: none; stroke: #bcbcbc; stroke-width: 0.8; stroke-linejoin: miter; stroke-linecap: square"/>
   </g>
   <g id="patch_5">
    <path d="M 50.779375 339.84 
L 608.779375 339.84 
" style="fill: none; stroke: #bcbcbc; stroke-width: 0.8; stroke-linejoin: miter; stroke-linecap: square"/>
   </g>
   <g id="patch_6">
    <path d="M 50.779375 7.2 
L 608.779375 7.2 
" style="fill: none; stroke: #bcbcbc; stroke-width: 0.8; stroke-linejoin: miter; stroke-linecap: square"/>
   </g>
  </g>
 </g>
 <defs>
  <clipPath id="pe3ed501238">
   <rect x="50.779375" y="7.2" width="558" height="332.64"/>
  </clipPath>
 </defs>
</svg>