<?xml version="1.0" encoding="utf-8" standalone="no"?>
<!DOCTYPE svg PUBLIC "-//W3C//DTD SVG 1.1//EN"
  "http://www.w3.org/Graphics/SVG/1.1/DTD/svg11.dtd">
<svg xmlns:xlink="http://www.w3.org/1999/xlink" width="572.4pt" height="347.04pt" viewBox="0 0 572.4 347.04" xmlns="http://www.w3.org/2000/svg" version="1.1">
 <metadata>
  <rdf:RDF xmlns:dc="http://purl.org/dc/elements/1.1/" xmlns:cc="http://creativecommons.org/ns#" xmlns:rdf="http://www.w3.org/1999/02/22-rdf-syntax-ns#">
   <cc:Work>
    <dc:type rdf:resource="http://purl.org/dc/dcmitype/StillImage"/>
    <dc:date>2023-05-12T07:03:17.331811</dc:date>
    <dc:format>image/svg+xml</dc:format>
    <dc:creator>
     <cc:Agent>
      <dc:title>Matplotlib v3.7.1, https://matplotlib.org/</dc:title>
     </cc:Agent>
    </dc:creator>
   </cc:Work>
  </rdf:RDF>
 </metadata>
 <defs>
  <style type="text/css">*{stroke-linejoin: round; stroke-linecap: butt}</style>
 </defs>
 <g id="figure_1">
  <g id="patch_1">
   <path d="M 0 347.04 
L 572.4 347.04 
L 572.4 -0 
L 0 -0 
z
" style="fill: #ffffff"/>
  </g>
  <g id="axes_1">
   <g id="patch_2">
    <path d="M 7.2 339.84 
L 565.2 339.84 
L 565.2 7.2 
L 7.2 7.2 
z
" style="fill: #eaeaf2"/>
   </g>
   <g id="matplotlib.axis_1">
    <g id="xtick_1">
     <g id="line2d_1">
      <path d="M 83.290909 339.84 
L 83.290909 7.2 
" clip-path="url(#p8c4d0b6d90)" style="fill: none; stroke: #ffffff; stroke-linecap: round"/>
     </g>
    </g>
    <g id="xtick_2">
     <g id="line2d_2">
      <path d="M 184.745455 339.84 
L 184.745455 7.2 
" clip-path="url(#p8c4d0b6d90)" style="fill: none; stroke: #ffffff; stroke-linecap: round"/>
     </g>
    </g>
    <g id="xtick_3">
     <g id="line2d_3">
      <path d="M 286.2 339.84 
L 286.2 7.2 
" clip-path="url(#p8c4d0b6d90)" style="fill: none; stroke: #ffffff; stroke-linecap: round"/>
     </g>
    </g>
    <g id="xtick_4">
     <g id="line2d_4">
      <path d="M 387.654545 339.84 
L 387.654545 7.2 
" clip-path="url(#p8c4d0b6d90)" style="fill: none; stroke: #ffffff; stroke-linecap: round"/>
     </g>
    </g>
    <g id="xtick_5">
     <g id="line2d_5">
      <path d="M 489.109091 339.84 
L 489.109091 7.2 
" clip-path="url(#p8c4d0b6d90)" style="fill: none; stroke: #ffffff; stroke-linecap: round"/>
     </g>
    </g>
   </g>
   <g id="matplotlib.axis_2">
    <g id="ytick_1">
     <g id="line2d_6">
      <path d="M 7.2 324.721127 
L 565.2 324.721127 
" clip-path="url(#p8c4d0b6d90)" style="fill: none; stroke: #ffffff; stroke-linecap: round"/>
     </g>
    </g>
    <g id="ytick_2">
     <g id="line2d_7">
      <path d="M 7.2 286.820291 
L 565.2 286.820291 
" clip-path="url(#p8c4d0b6d90)" style="fill: none; stroke: #ffffff; stroke-linecap: round"/>
     </g>
    </g>
    <g id="ytick_3">
     <g id="line2d_8">
      <path d="M 7.2 248.919456 
L 565.2 248.919456 
" clip-path="url(#p8c4d0b6d90)" style="fill: none; stroke: #ffffff; stroke-linecap: round"/>
     </g>
    </g>
    <g id="ytick_4">
     <g id="line2d_9">
      <path d="M 7.2 211.018621 
L 565.2 211.018621 
" clip-path="url(#p8c4d0b6d90)" style="fill: none; stroke: #ffffff; stroke-linecap: round"/>
     </g>
    </g>
    <g id="ytick_5">
     <g id="line2d_10">
      <path d="M 7.2 173.117785 
L 565.2 173.117785 
" clip-path="url(#p8c4d0b6d90)" style="fill: none; stroke: #ffffff; stroke-linecap: round"/>
     </g>
    </g>
    <g id="ytick_6">
     <g id="line2d_11">
      <path d="M 7.2 135.21695 
L 565.2 135.21695 
" clip-path="url(#p8c4d0b6d90)" style="fill: none; stroke: #ffffff; stroke-linecap: round"/>
     </g>
    </g>
    <g id="ytick_7">
     <g id="line2d_12">
      <path d="M 7.2 97.316114 
L 565.2 97.316114 
" clip-path="url(#p8c4d0b6d90)" style="fill: none; stroke: #ffffff; stroke-linecap: round"/>
     </g>
    </g>
    <g id="ytick_8">
     <g id="line2d_13">
      <path d="M 7.2 59.415279 
L 565.2 59.415279 
" clip-path="url(#p8c4d0b6d90)" style="fill: none; stroke: #ffffff; stroke-linecap: round"/>
     </g>
    </g>
    <g id="ytick_9">
     <g id="line2d_14">
      <path d="M 7.2 21.514443 
L 565.2 21.514443 
" clip-path="url(#p8c4d0b6d90)" style="fill: none; stroke: #ffffff; stroke-linecap: round"/>
     </g>
    </g>
   </g>
   <g id="line2d_15">
    <path d="M 32.563636 324.72 
L 84.865029 324.60633 
L 100.098444 324.359737 
L 110.254054 323.982801 
L 117.870762 323.492191 
L 124.471908 322.844464 
L 130.057494 322.071326 
L 135.135299 321.133143 
L 139.705324 320.048046 
L 143.767568 318.85101 
L 147.322031 317.592184 
L 150.876495 316.105811 
L 154.430958 314.360526 
L 157.477641 312.633063 
L 160.524324 310.668356 
L 163.571007 308.443145 
L 166.61769 305.933471 
L 169.664373 303.114945 
L 172.711057 299.963053 
L 175.75774 296.453516 
L 178.804423 292.562703 
L 181.851106 288.268081 
L 184.897789 283.548716 
L 187.944472 278.385806 
L 190.991155 272.763242 
L 194.037838 266.668194 
L 197.084521 260.091706 
L 200.131204 253.029278 
L 203.685667 244.176629 
L 207.240131 234.674038 
L 210.794595 224.543402 
L 214.856839 212.240904 
L 218.919083 199.234884 
L 223.489107 183.880791 
L 229.074693 164.318533 
L 248.878133 94.022236 
L 252.940377 80.804926 
L 256.49484 69.963743 
L 259.541523 61.319924 
L 262.588206 53.363435 
L 265.127109 47.315189 
L 267.666011 41.841639 
L 269.697133 37.902914 
L 271.728256 34.375204 
L 273.759378 31.274938 
L 275.7905 28.616664 
L 277.313841 26.920649 
L 278.837183 25.484894 
L 280.360524 24.313247 
L 281.883866 23.40886 
L 283.407207 22.774169 
L 284.930549 22.410888 
L 286.45389 22.32 
L 287.977232 22.501749 
L 289.500573 22.955645 
L 291.023915 23.680461 
L 292.547256 24.674241 
L 294.070598 25.934309 
L 295.593939 27.45728 
L 297.117281 29.239074 
L 299.148403 32.009103 
L 301.179525 35.217669 
L 303.210647 38.849743 
L 305.241769 42.888447 
L 307.780672 48.480175 
L 310.319574 54.638367 
L 313.366257 62.715039 
L 316.41294 71.465379 
L 319.967404 82.412676 
L 324.029648 95.726501 
L 329.107453 113.260399 
L 336.21638 138.733023 
L 346.37199 175.078785 
L 351.957576 194.194812 
L 356.5276 209.052055 
L 360.589844 221.538041 
L 364.652088 233.264596 
L 368.206552 242.858525 
L 371.761016 251.804922 
L 375.315479 260.091706 
L 378.362162 266.668194 
L 381.408845 272.763242 
L 384.455528 278.385806 
L 387.502211 283.548716 
L 390.548894 288.268081 
L 393.595577 292.562703 
L 396.64226 296.453516 
L 399.688943 299.963053 
L 402.735627 303.114945 
L 405.78231 305.933471 
L 408.828993 308.443145 
L 411.875676 310.668356 
L 414.922359 312.633063 
L 417.969042 314.360526 
L 421.523505 316.105811 
L 425.077969 317.592184 
L 428.632432 318.85101 
L 432.694676 320.048046 
L 436.756921 321.024762 
L 441.326945 321.903465 
L 446.40475 322.656839 
L 452.498116 323.318688 
L 459.607043 323.843931 
L 468.239312 324.237875 
L 479.410483 324.50712 
L 496.16724 324.663541 
L 532.219656 324.718766 
L 539.836364 324.72 
L 539.836364 324.72 
" clip-path="url(#p8c4d0b6d90)" style="fill: none; stroke: #0173b2; stroke-width: 1.5; stroke-linecap: round"/>
   </g>
   <g id="line2d_16">
    <path d="M 285.94611 339.84 
L 285.94611 7.2 
" clip-path="url(#p8c4d0b6d90)" style="fill: none; stroke-dasharray: 5.55,2.4; stroke-dashoffset: 0; stroke: #d55e00; stroke-width: 1.5"/>
   </g>
   <g id="LineCollection_1">
    <path d="M 235.218837 286.820291 
L 336.673382 286.820291 
" clip-path="url(#p8c4d0b6d90)" style="fill: none; stroke: #0173b2; stroke-width: 1.5"/>
   </g>
   <g id="patch_3">
    <path d="M 7.2 339.84 
L 7.2 7.2 
" style="fill: none; stroke: #ffffff; stroke-width: 1.25; stroke-linejoin: miter; stroke-linecap: square"/>
   </g>
   <g id="patch_4">
    <path d="M 565.2 339.84 
L 565.2 7.2 
" style="fill: none; stroke: #ffffff; stroke-width: 1.25; stroke-linejoin: miter; stroke-linecap: square"/>
   </g>
   <g id="patch_5">
    <path d="M 7.2 339.84 
L 565.2 339.84 
" style="fill: none; stroke: #ffffff; stroke-width: 1.25; stroke-linejoin: miter; stroke-linecap: square"/>
   </g>
   <g id="patch_6">
    <path d="M 7.2 7.2 
L 565.2 7.2 
" style="fill: none; stroke: #ffffff; stroke-width: 1.25; stroke-linejoin: miter; stroke-linecap: square"/>
   </g>
   <g id="text_1">
    <!-- Valore vero del parametro -->
    <g style="fill: #262626" transform="translate(217.27875 22.32) scale(0.12 -0.12)">
     <defs>
      <path id="ArialMT-56" d="M 1803 0 
L 28 4581 
L 684 4581 
L 1875 1253 
Q 2019 853 2116 503 
Q 2222 878 2363 1253 
L 3600 4581 
L 4219 4581 
L 2425 0 
L 1803 0 
z
" transform="scale(0.015625)"/>
      <path id="ArialMT-61" d="M 2588 409 
Q 2275 144 1986 34 
Q 1697 -75 1366 -75 
Q 819 -75 525 192 
Q 231 459 231 875 
Q 231 1119 342 1320 
Q 453 1522 633 1644 
Q 813 1766 1038 1828 
Q 1203 1872 1538 1913 
Q 2219 1994 2541 2106 
Q 2544 2222 2544 2253 
Q 2544 2597 2384 2738 
Q 2169 2928 1744 2928 
Q 1347 2928 1158 2789 
Q 969 2650 878 2297 
L 328 2372 
Q 403 2725 575 2942 
Q 747 3159 1072 3276 
Q 1397 3394 1825 3394 
Q 2250 3394 2515 3294 
Q 2781 3194 2906 3042 
Q 3031 2891 3081 2659 
Q 3109 2516 3109 2141 
L 3109 1391 
Q 3109 606 3145 398 
Q 3181 191 3288 0 
L 2700 0 
Q 2613 175 2588 409 
z
M 2541 1666 
Q 2234 1541 1622 1453 
Q 1275 1403 1131 1340 
Q 988 1278 909 1158 
Q 831 1038 831 891 
Q 831 666 1001 516 
Q 1172 366 1500 366 
Q 1825 366 2078 508 
Q 2331 650 2450 897 
Q 2541 1088 2541 1459 
L 2541 1666 
z
" transform="scale(0.015625)"/>
      <path id="ArialMT-6c" d="M 409 0 
L 409 4581 
L 972 4581 
L 972 0 
L 409 0 
z
" transform="scale(0.015625)"/>
      <path id="ArialMT-6f" d="M 213 1659 
Q 213 2581 725 3025 
Q 1153 3394 1769 3394 
Q 2453 3394 2887 2945 
Q 3322 2497 3322 1706 
Q 3322 1066 3130 698 
Q 2938 331 2570 128 
Q 2203 -75 1769 -75 
Q 1072 -75 642 372 
Q 213 819 213 1659 
z
M 791 1659 
Q 791 1022 1069 705 
Q 1347 388 1769 388 
Q 2188 388 2466 706 
Q 2744 1025 2744 1678 
Q 2744 2294 2464 2611 
Q 2184 2928 1769 2928 
Q 1347 2928 1069 2612 
Q 791 2297 791 1659 
z
" transform="scale(0.015625)"/>
      <path id="ArialMT-72" d="M 416 0 
L 416 3319 
L 922 3319 
L 922 2816 
Q 1116 3169 1280 3281 
Q 1444 3394 1641 3394 
Q 1925 3394 2219 3213 
L 2025 2691 
Q 1819 2813 1613 2813 
Q 1428 2813 1281 2702 
Q 1134 2591 1072 2394 
Q 978 2094 978 1738 
L 978 0 
L 416 0 
z
" transform="scale(0.015625)"/>
      <path id="ArialMT-65" d="M 2694 1069 
L 3275 997 
Q 3138 488 2766 206 
Q 2394 -75 1816 -75 
Q 1088 -75 661 373 
Q 234 822 234 1631 
Q 234 2469 665 2931 
Q 1097 3394 1784 3394 
Q 2450 3394 2872 2941 
Q 3294 2488 3294 1666 
Q 3294 1616 3291 1516 
L 816 1516 
Q 847 969 1125 678 
Q 1403 388 1819 388 
Q 2128 388 2347 550 
Q 2566 713 2694 1069 
z
M 847 1978 
L 2700 1978 
Q 2663 2397 2488 2606 
Q 2219 2931 1791 2931 
Q 1403 2931 1139 2672 
Q 875 2413 847 1978 
z
" transform="scale(0.015625)"/>
      <path id="ArialMT-20" transform="scale(0.015625)"/>
      <path id="ArialMT-76" d="M 1344 0 
L 81 3319 
L 675 3319 
L 1388 1331 
Q 1503 1009 1600 663 
Q 1675 925 1809 1294 
L 2547 3319 
L 3125 3319 
L 1869 0 
L 1344 0 
z
" transform="scale(0.015625)"/>
      <path id="ArialMT-64" d="M 2575 0 
L 2575 419 
Q 2259 -75 1647 -75 
Q 1250 -75 917 144 
Q 584 363 401 755 
Q 219 1147 219 1656 
Q 219 2153 384 2558 
Q 550 2963 881 3178 
Q 1213 3394 1622 3394 
Q 1922 3394 2156 3267 
Q 2391 3141 2538 2938 
L 2538 4581 
L 3097 4581 
L 3097 0 
L 2575 0 
z
M 797 1656 
Q 797 1019 1065 703 
Q 1334 388 1700 388 
Q 2069 388 2326 689 
Q 2584 991 2584 1609 
Q 2584 2291 2321 2609 
Q 2059 2928 1675 2928 
Q 1300 2928 1048 2622 
Q 797 2316 797 1656 
z
" transform="scale(0.015625)"/>
      <path id="ArialMT-70" d="M 422 -1272 
L 422 3319 
L 934 3319 
L 934 2888 
Q 1116 3141 1344 3267 
Q 1572 3394 1897 3394 
Q 2322 3394 2647 3175 
Q 2972 2956 3137 2557 
Q 3303 2159 3303 1684 
Q 3303 1175 3120 767 
Q 2938 359 2589 142 
Q 2241 -75 1856 -75 
Q 1575 -75 1351 44 
Q 1128 163 984 344 
L 984 -1272 
L 422 -1272 
z
M 931 1641 
Q 931 1000 1190 694 
Q 1450 388 1819 388 
Q 2194 388 2461 705 
Q 2728 1022 2728 1688 
Q 2728 2322 2467 2637 
Q 2206 2953 1844 2953 
Q 1484 2953 1207 2617 
Q 931 2281 931 1641 
z
" transform="scale(0.015625)"/>
      <path id="ArialMT-6d" d="M 422 0 
L 422 3319 
L 925 3319 
L 925 2853 
Q 1081 3097 1340 3245 
Q 1600 3394 1931 3394 
Q 2300 3394 2536 3241 
Q 2772 3088 2869 2813 
Q 3263 3394 3894 3394 
Q 4388 3394 4653 3120 
Q 4919 2847 4919 2278 
L 4919 0 
L 4359 0 
L 4359 2091 
Q 4359 2428 4304 2576 
Q 4250 2725 4106 2815 
Q 3963 2906 3769 2906 
Q 3419 2906 3187 2673 
Q 2956 2441 2956 1928 
L 2956 0 
L 2394 0 
L 2394 2156 
Q 2394 2531 2256 2718 
Q 2119 2906 1806 2906 
Q 1569 2906 1367 2781 
Q 1166 2656 1075 2415 
Q 984 2175 984 1722 
L 984 0 
L 422 0 
z
" transform="scale(0.015625)"/>
      <path id="ArialMT-74" d="M 1650 503 
L 1731 6 
Q 1494 -44 1306 -44 
Q 1000 -44 831 53 
Q 663 150 594 308 
Q 525 466 525 972 
L 525 2881 
L 113 2881 
L 113 3319 
L 525 3319 
L 525 4141 
L 1084 4478 
L 1084 3319 
L 1650 3319 
L 1650 2881 
L 1084 2881 
L 1084 941 
Q 1084 700 1114 631 
Q 1144 563 1211 522 
Q 1278 481 1403 481 
Q 1497 481 1650 503 
z
" transform="scale(0.015625)"/>
     </defs>
     <use xlink:href="#ArialMT-56"/>
     <use xlink:href="#ArialMT-61" x="59.324219"/>
     <use xlink:href="#ArialMT-6c" x="114.939453"/>
     <use xlink:href="#ArialMT-6f" x="137.15625"/>
     <use xlink:href="#ArialMT-72" x="192.771484"/>
     <use xlink:href="#ArialMT-65" x="226.072266"/>
     <use xlink:href="#ArialMT-20" x="281.6875"/>
     <use xlink:href="#ArialMT-76" x="309.470703"/>
     <use xlink:href="#ArialMT-65" x="359.470703"/>
     <use xlink:href="#ArialMT-72" x="415.085938"/>
     <use xlink:href="#ArialMT-6f" x="448.386719"/>
     <use xlink:href="#ArialMT-20" x="504.001953"/>
     <use xlink:href="#ArialMT-64" x="531.785156"/>
     <use xlink:href="#ArialMT-65" x="587.400391"/>
     <use xlink:href="#ArialMT-6c" x="643.015625"/>
     <use xlink:href="#ArialMT-20" x="665.232422"/>
     <use xlink:href="#ArialMT-70" x="693.015625"/>
     <use xlink:href="#ArialMT-61" x="748.630859"/>
     <use xlink:href="#ArialMT-72" x="804.246094"/>
     <use xlink:href="#ArialMT-61" x="837.546875"/>
     <use xlink:href="#ArialMT-6d" x="893.162109"/>
     <use xlink:href="#ArialMT-65" x="976.462891"/>
     <use xlink:href="#ArialMT-74" x="1032.078125"/>
     <use xlink:href="#ArialMT-72" x="1059.861328"/>
     <use xlink:href="#ArialMT-6f" x="1093.162109"/>
    </g>
   </g>
   <g id="patch_7">
    <path d="M 287.94611 255.583257 
Q 287.94611 264.314178 287.94611 273.045099 
L 291.94611 273.045099 
Q 288.94611 279.046146 285.94611 285.047193 
Q 282.94611 279.046146 279.94611 273.045099 
L 283.94611 273.045099 
Q 283.94611 264.314178 283.94611 255.583257 
L 287.94611 255.583257 
z
" style="stroke: #ffffff; stroke-linecap: round"/>
   </g>
   <g id="text_2">
    <!-- Errore standard -->
    <g style="fill: #262626" transform="translate(244.262985 248.919456) scale(0.12 -0.12)">
     <defs>
      <path id="ArialMT-45" d="M 506 0 
L 506 4581 
L 3819 4581 
L 3819 4041 
L 1113 4041 
L 1113 2638 
L 3647 2638 
L 3647 2100 
L 1113 2100 
L 1113 541 
L 3925 541 
L 3925 0 
L 506 0 
z
" transform="scale(0.015625)"/>
      <path id="ArialMT-73" d="M 197 991 
L 753 1078 
Q 800 744 1014 566 
Q 1228 388 1613 388 
Q 2000 388 2187 545 
Q 2375 703 2375 916 
Q 2375 1106 2209 1216 
Q 2094 1291 1634 1406 
Q 1016 1563 777 1677 
Q 538 1791 414 1992 
Q 291 2194 291 2438 
Q 291 2659 392 2848 
Q 494 3038 669 3163 
Q 800 3259 1026 3326 
Q 1253 3394 1513 3394 
Q 1903 3394 2198 3281 
Q 2494 3169 2634 2976 
Q 2775 2784 2828 2463 
L 2278 2388 
Q 2241 2644 2061 2787 
Q 1881 2931 1553 2931 
Q 1166 2931 1000 2803 
Q 834 2675 834 2503 
Q 834 2394 903 2306 
Q 972 2216 1119 2156 
Q 1203 2125 1616 2013 
Q 2213 1853 2448 1751 
Q 2684 1650 2818 1456 
Q 2953 1263 2953 975 
Q 2953 694 2789 445 
Q 2625 197 2315 61 
Q 2006 -75 1616 -75 
Q 969 -75 630 194 
Q 291 463 197 991 
z
" transform="scale(0.015625)"/>
      <path id="ArialMT-6e" d="M 422 0 
L 422 3319 
L 928 3319 
L 928 2847 
Q 1294 3394 1984 3394 
Q 2284 3394 2536 3286 
Q 2788 3178 2913 3003 
Q 3038 2828 3088 2588 
Q 3119 2431 3119 2041 
L 3119 0 
L 2556 0 
L 2556 2019 
Q 2556 2363 2490 2533 
Q 2425 2703 2258 2804 
Q 2091 2906 1866 2906 
Q 1506 2906 1245 2678 
Q 984 2450 984 1813 
L 984 0 
L 422 0 
z
" transform="scale(0.015625)"/>
     </defs>
     <use xlink:href="#ArialMT-45"/>
     <use xlink:href="#ArialMT-72" x="66.699219"/>
     <use xlink:href="#ArialMT-72" x="100"/>
     <use xlink:href="#ArialMT-6f" x="133.300781"/>
     <use xlink:href="#ArialMT-72" x="188.916016"/>
     <use xlink:href="#ArialMT-65" x="222.216797"/>
     <use xlink:href="#ArialMT-20" x="277.832031"/>
     <use xlink:href="#ArialMT-73" x="305.615234"/>
     <use xlink:href="#ArialMT-74" x="355.615234"/>
     <use xlink:href="#ArialMT-61" x="383.398438"/>
     <use xlink:href="#ArialMT-6e" x="439.013672"/>
     <use xlink:href="#ArialMT-64" x="494.628906"/>
     <use xlink:href="#ArialMT-61" x="550.244141"/>
     <use xlink:href="#ArialMT-72" x="605.859375"/>
     <use xlink:href="#ArialMT-64" x="639.160156"/>
    </g>
   </g>
  </g>
 </g>
 <defs>
  <clipPath id="p8c4d0b6d90">
   <rect x="7.2" y="7.2" width="558" height="332.64"/>
  </clipPath>
 </defs>
</svg>