<?xml version="1.0" encoding="utf-8" standalone="no"?>
<!DOCTYPE svg PUBLIC "-//W3C//DTD SVG 1.1//EN"
  "http://www.w3.org/Graphics/SVG/1.1/DTD/svg11.dtd">
<svg xmlns:xlink="http://www.w3.org/1999/xlink" width="619.167937pt" height="376.167375pt" viewBox="0 0 619.167937 376.167375" xmlns="http://www.w3.org/2000/svg" version="1.1">
 <metadata>
  <rdf:RDF xmlns:dc="http://purl.org/dc/elements/1.1/" xmlns:cc="http://creativecommons.org/ns#" xmlns:rdf="http://www.w3.org/1999/02/22-rdf-syntax-ns#">
   <cc:Work>
    <dc:type rdf:resource="http://purl.org/dc/dcmitype/StillImage"/>
    <dc:date>2023-05-08T00:37:45.010728</dc:date>
    <dc:format>image/svg+xml</dc:format>
    <dc:creator>
     <cc:Agent>
      <dc:title>Matplotlib v3.7.1, https://matplotlib.org/</dc:title>
     </cc:Agent>
    </dc:creator>
   </cc:Work>
  </rdf:RDF>
 </metadata>
 <defs>
  <style type="text/css">*{stroke-linejoin: round; stroke-linecap: butt}</style>
 </defs>
 <g id="figure_1">
  <g id="patch_1">
   <path d="M 0 376.167375 
L 619.167937 376.167375 
L 619.167937 0 
L 0 0 
z
" style="fill: #ffffff"/>
  </g>
  <g id="axes_1">
   <g id="patch_2">
    <path d="M 45.405125 339.84 
L 603.405125 339.84 
L 603.405125 7.2 
L 45.405125 7.2 
z
" style="fill: #eaeaf2"/>
   </g>
   <g id="matplotlib.axis_1">
    <g id="xtick_1">
     <g id="line2d_1">
      <path d="M 45.405125 339.84 
L 45.405125 7.2 
" clip-path="url(#p8db634d638)" style="fill: none; stroke: #ffffff; stroke-width: 0.8; stroke-linecap: round"/>
     </g>
     <g id="text_1">
      <!-- 0.0 -->
      <g style="fill: #262626" transform="translate(39.289125 354.438875) scale(0.088 -0.088)">
       <defs>
        <path id="ArialMT-30" d="M 266 2259 
Q 266 3072 433 3567 
Q 600 4063 929 4331 
Q 1259 4600 1759 4600 
Q 2128 4600 2406 4451 
Q 2684 4303 2865 4023 
Q 3047 3744 3150 3342 
Q 3253 2941 3253 2259 
Q 3253 1453 3087 958 
Q 2922 463 2592 192 
Q 2263 -78 1759 -78 
Q 1097 -78 719 397 
Q 266 969 266 2259 
z
M 844 2259 
Q 844 1131 1108 757 
Q 1372 384 1759 384 
Q 2147 384 2411 759 
Q 2675 1134 2675 2259 
Q 2675 3391 2411 3762 
Q 2147 4134 1753 4134 
Q 1366 4134 1134 3806 
Q 844 3388 844 2259 
z
" transform="scale(0.015625)"/>
        <path id="ArialMT-2e" d="M 581 0 
L 581 641 
L 1222 641 
L 1222 0 
L 581 0 
z
" transform="scale(0.015625)"/>
       </defs>
       <use xlink:href="#ArialMT-30"/>
       <use xlink:href="#ArialMT-2e" x="55.615234"/>
       <use xlink:href="#ArialMT-30" x="83.398438"/>
      </g>
     </g>
    </g>
    <g id="xtick_2">
     <g id="line2d_2">
      <path d="M 115.155125 339.84 
L 115.155125 7.2 
" clip-path="url(#p8db634d638)" style="fill: none; stroke: #ffffff; stroke-width: 0.8; stroke-linecap: round"/>
     </g>
     <g id="text_2">
      <!-- 2.5 -->
      <g style="fill: #262626" transform="translate(109.039125 354.438875) scale(0.088 -0.088)">
       <defs>
        <path id="ArialMT-32" d="M 3222 541 
L 3222 0 
L 194 0 
Q 188 203 259 391 
Q 375 700 629 1000 
Q 884 1300 1366 1694 
Q 2113 2306 2375 2664 
Q 2638 3022 2638 3341 
Q 2638 3675 2398 3904 
Q 2159 4134 1775 4134 
Q 1369 4134 1125 3890 
Q 881 3647 878 3216 
L 300 3275 
Q 359 3922 746 4261 
Q 1134 4600 1788 4600 
Q 2447 4600 2831 4234 
Q 3216 3869 3216 3328 
Q 3216 3053 3103 2787 
Q 2991 2522 2730 2228 
Q 2469 1934 1863 1422 
Q 1356 997 1212 845 
Q 1069 694 975 541 
L 3222 541 
z
" transform="scale(0.015625)"/>
        <path id="ArialMT-35" d="M 266 1200 
L 856 1250 
Q 922 819 1161 601 
Q 1400 384 1738 384 
Q 2144 384 2425 690 
Q 2706 997 2706 1503 
Q 2706 1984 2436 2262 
Q 2166 2541 1728 2541 
Q 1456 2541 1237 2417 
Q 1019 2294 894 2097 
L 366 2166 
L 809 4519 
L 3088 4519 
L 3088 3981 
L 1259 3981 
L 1013 2750 
Q 1425 3038 1878 3038 
Q 2478 3038 2890 2622 
Q 3303 2206 3303 1553 
Q 3303 931 2941 478 
Q 2500 -78 1738 -78 
Q 1113 -78 717 272 
Q 322 622 266 1200 
z
" transform="scale(0.015625)"/>
       </defs>
       <use xlink:href="#ArialMT-32"/>
       <use xlink:href="#ArialMT-2e" x="55.615234"/>
       <use xlink:href="#ArialMT-35" x="83.398438"/>
      </g>
     </g>
    </g>
    <g id="xtick_3">
     <g id="line2d_3">
      <path d="M 184.905125 339.84 
L 184.905125 7.2 
" clip-path="url(#p8db634d638)" style="fill: none; stroke: #ffffff; stroke-width: 0.8; stroke-linecap: round"/>
     </g>
     <g id="text_3">
      <!-- 5.0 -->
      <g style="fill: #262626" transform="translate(178.789125 354.438875) scale(0.088 -0.088)">
       <use xlink:href="#ArialMT-35"/>
       <use xlink:href="#ArialMT-2e" x="55.615234"/>
       <use xlink:href="#ArialMT-30" x="83.398438"/>
      </g>
     </g>
    </g>
    <g id="xtick_4">
     <g id="line2d_4">
      <path d="M 254.655125 339.84 
L 254.655125 7.2 
" clip-path="url(#p8db634d638)" style="fill: none; stroke: #ffffff; stroke-width: 0.8; stroke-linecap: round"/>
     </g>
     <g id="text_4">
      <!-- 7.5 -->
      <g style="fill: #262626" transform="translate(248.539125 354.438875) scale(0.088 -0.088)">
       <defs>
        <path id="ArialMT-37" d="M 303 3981 
L 303 4522 
L 3269 4522 
L 3269 4084 
Q 2831 3619 2401 2847 
Q 1972 2075 1738 1259 
Q 1569 684 1522 0 
L 944 0 
Q 953 541 1156 1306 
Q 1359 2072 1739 2783 
Q 2119 3494 2547 3981 
L 303 3981 
z
" transform="scale(0.015625)"/>
       </defs>
       <use xlink:href="#ArialMT-37"/>
       <use xlink:href="#ArialMT-2e" x="55.615234"/>
       <use xlink:href="#ArialMT-35" x="83.398438"/>
      </g>
     </g>
    </g>
    <g id="xtick_5">
     <g id="line2d_5">
      <path d="M 324.405125 339.84 
L 324.405125 7.2 
" clip-path="url(#p8db634d638)" style="fill: none; stroke: #ffffff; stroke-width: 0.8; stroke-linecap: round"/>
     </g>
     <g id="text_5">
      <!-- 10.0 -->
      <g style="fill: #262626" transform="translate(315.842312 354.438875) scale(0.088 -0.088)">
       <defs>
        <path id="ArialMT-31" d="M 2384 0 
L 1822 0 
L 1822 3584 
Q 1619 3391 1289 3197 
Q 959 3003 697 2906 
L 697 3450 
Q 1169 3672 1522 3987 
Q 1875 4303 2022 4600 
L 2384 4600 
L 2384 0 
z
" transform="scale(0.015625)"/>
       </defs>
       <use xlink:href="#ArialMT-31"/>
       <use xlink:href="#ArialMT-30" x="55.615234"/>
       <use xlink:href="#ArialMT-2e" x="111.230469"/>
       <use xlink:href="#ArialMT-30" x="139.013672"/>
      </g>
     </g>
    </g>
    <g id="xtick_6">
     <g id="line2d_6">
      <path d="M 394.155125 339.84 
L 394.155125 7.2 
" clip-path="url(#p8db634d638)" style="fill: none; stroke: #ffffff; stroke-width: 0.8; stroke-linecap: round"/>
     </g>
     <g id="text_6">
      <!-- 12.5 -->
      <g style="fill: #262626" transform="translate(385.592312 354.438875) scale(0.088 -0.088)">
       <use xlink:href="#ArialMT-31"/>
       <use xlink:href="#ArialMT-32" x="55.615234"/>
       <use xlink:href="#ArialMT-2e" x="111.230469"/>
       <use xlink:href="#ArialMT-35" x="139.013672"/>
      </g>
     </g>
    </g>
    <g id="xtick_7">
     <g id="line2d_7">
      <path d="M 463.905125 339.84 
L 463.905125 7.2 
" clip-path="url(#p8db634d638)" style="fill: none; stroke: #ffffff; stroke-width: 0.8; stroke-linecap: round"/>
     </g>
     <g id="text_7">
      <!-- 15.0 -->
      <g style="fill: #262626" transform="translate(455.342313 354.438875) scale(0.088 -0.088)">
       <use xlink:href="#ArialMT-31"/>
       <use xlink:href="#ArialMT-35" x="55.615234"/>
       <use xlink:href="#ArialMT-2e" x="111.230469"/>
       <use xlink:href="#ArialMT-30" x="139.013672"/>
      </g>
     </g>
    </g>
    <g id="xtick_8">
     <g id="line2d_8">
      <path d="M 533.655125 339.84 
L 533.655125 7.2 
" clip-path="url(#p8db634d638)" style="fill: none; stroke: #ffffff; stroke-width: 0.8; stroke-linecap: round"/>
     </g>
     <g id="text_8">
      <!-- 17.5 -->
      <g style="fill: #262626" transform="translate(525.092313 354.438875) scale(0.088 -0.088)">
       <use xlink:href="#ArialMT-31"/>
       <use xlink:href="#ArialMT-37" x="55.615234"/>
       <use xlink:href="#ArialMT-2e" x="111.230469"/>
       <use xlink:href="#ArialMT-35" x="139.013672"/>
      </g>
     </g>
    </g>
    <g id="xtick_9">
     <g id="line2d_9">
      <path d="M 603.405125 339.84 
L 603.405125 7.2 
" clip-path="url(#p8db634d638)" style="fill: none; stroke: #ffffff; stroke-width: 0.8; stroke-linecap: round"/>
     </g>
     <g id="text_9">
      <!-- 20.0 -->
      <g style="fill: #262626" transform="translate(594.842313 354.438875) scale(0.088 -0.088)">
       <use xlink:href="#ArialMT-32"/>
       <use xlink:href="#ArialMT-30" x="55.615234"/>
       <use xlink:href="#ArialMT-2e" x="111.230469"/>
       <use xlink:href="#ArialMT-30" x="139.013672"/>
      </g>
     </g>
    </g>
    <g id="text_10">
     <!-- Tempo di attesa -->
     <g style="fill: #262626" transform="translate(290.523875 367.059375) scale(0.096 -0.096)">
      <defs>
       <path id="ArialMT-54" d="M 1659 0 
L 1659 4041 
L 150 4041 
L 150 4581 
L 3781 4581 
L 3781 4041 
L 2266 4041 
L 2266 0 
L 1659 0 
z
" transform="scale(0.015625)"/>
       <path id="ArialMT-65" d="M 2694 1069 
L 3275 997 
Q 3138 488 2766 206 
Q 2394 -75 1816 -75 
Q 1088 -75 661 373 
Q 234 822 234 1631 
Q 234 2469 665 2931 
Q 1097 3394 1784 3394 
Q 2450 3394 2872 2941 
Q 3294 2488 3294 1666 
Q 3294 1616 3291 1516 
L 816 1516 
Q 847 969 1125 678 
Q 1403 388 1819 388 
Q 2128 388 2347 550 
Q 2566 713 2694 1069 
z
M 847 1978 
L 2700 1978 
Q 2663 2397 2488 2606 
Q 2219 2931 1791 2931 
Q 1403 2931 1139 2672 
Q 875 2413 847 1978 
z
" transform="scale(0.015625)"/>
       <path id="ArialMT-6d" d="M 422 0 
L 422 3319 
L 925 3319 
L 925 2853 
Q 1081 3097 1340 3245 
Q 1600 3394 1931 3394 
Q 2300 3394 2536 3241 
Q 2772 3088 2869 2813 
Q 3263 3394 3894 3394 
Q 4388 3394 4653 3120 
Q 4919 2847 4919 2278 
L 4919 0 
L 4359 0 
L 4359 2091 
Q 4359 2428 4304 2576 
Q 4250 2725 4106 2815 
Q 3963 2906 3769 2906 
Q 3419 2906 3187 2673 
Q 2956 2441 2956 1928 
L 2956 0 
L 2394 0 
L 2394 2156 
Q 2394 2531 2256 2718 
Q 2119 2906 1806 2906 
Q 1569 2906 1367 2781 
Q 1166 2656 1075 2415 
Q 984 2175 984 1722 
L 984 0 
L 422 0 
z
" transform="scale(0.015625)"/>
       <path id="ArialMT-70" d="M 422 -1272 
L 422 3319 
L 934 3319 
L 934 2888 
Q 1116 3141 1344 3267 
Q 1572 3394 1897 3394 
Q 2322 3394 2647 3175 
Q 2972 2956 3137 2557 
Q 3303 2159 3303 1684 
Q 3303 1175 3120 767 
Q 2938 359 2589 142 
Q 2241 -75 1856 -75 
Q 1575 -75 1351 44 
Q 1128 163 984 344 
L 984 -1272 
L 422 -1272 
z
M 931 1641 
Q 931 1000 1190 694 
Q 1450 388 1819 388 
Q 2194 388 2461 705 
Q 2728 1022 2728 1688 
Q 2728 2322 2467 2637 
Q 2206 2953 1844 2953 
Q 1484 2953 1207 2617 
Q 931 2281 931 1641 
z
" transform="scale(0.015625)"/>
       <path id="ArialMT-6f" d="M 213 1659 
Q 213 2581 725 3025 
Q 1153 3394 1769 3394 
Q 2453 3394 2887 2945 
Q 3322 2497 3322 1706 
Q 3322 1066 3130 698 
Q 2938 331 2570 128 
Q 2203 -75 1769 -75 
Q 1072 -75 642 372 
Q 213 819 213 1659 
z
M 791 1659 
Q 791 1022 1069 705 
Q 1347 388 1769 388 
Q 2188 388 2466 706 
Q 2744 1025 2744 1678 
Q 2744 2294 2464 2611 
Q 2184 2928 1769 2928 
Q 1347 2928 1069 2612 
Q 791 2297 791 1659 
z
" transform="scale(0.015625)"/>
       <path id="ArialMT-20" transform="scale(0.015625)"/>
       <path id="ArialMT-64" d="M 2575 0 
L 2575 419 
Q 2259 -75 1647 -75 
Q 1250 -75 917 144 
Q 584 363 401 755 
Q 219 1147 219 1656 
Q 219 2153 384 2558 
Q 550 2963 881 3178 
Q 1213 3394 1622 3394 
Q 1922 3394 2156 3267 
Q 2391 3141 2538 2938 
L 2538 4581 
L 3097 4581 
L 3097 0 
L 2575 0 
z
M 797 1656 
Q 797 1019 1065 703 
Q 1334 388 1700 388 
Q 2069 388 2326 689 
Q 2584 991 2584 1609 
Q 2584 2291 2321 2609 
Q 2059 2928 1675 2928 
Q 1300 2928 1048 2622 
Q 797 2316 797 1656 
z
" transform="scale(0.015625)"/>
       <path id="ArialMT-69" d="M 425 3934 
L 425 4581 
L 988 4581 
L 988 3934 
L 425 3934 
z
M 425 0 
L 425 3319 
L 988 3319 
L 988 0 
L 425 0 
z
" transform="scale(0.015625)"/>
       <path id="ArialMT-61" d="M 2588 409 
Q 2275 144 1986 34 
Q 1697 -75 1366 -75 
Q 819 -75 525 192 
Q 231 459 231 875 
Q 231 1119 342 1320 
Q 453 1522 633 1644 
Q 813 1766 1038 1828 
Q 1203 1872 1538 1913 
Q 2219 1994 2541 2106 
Q 2544 2222 2544 2253 
Q 2544 2597 2384 2738 
Q 2169 2928 1744 2928 
Q 1347 2928 1158 2789 
Q 969 2650 878 2297 
L 328 2372 
Q 403 2725 575 2942 
Q 747 3159 1072 3276 
Q 1397 3394 1825 3394 
Q 2250 3394 2515 3294 
Q 2781 3194 2906 3042 
Q 3031 2891 3081 2659 
Q 3109 2516 3109 2141 
L 3109 1391 
Q 3109 606 3145 398 
Q 3181 191 3288 0 
L 2700 0 
Q 2613 175 2588 409 
z
M 2541 1666 
Q 2234 1541 1622 1453 
Q 1275 1403 1131 1340 
Q 988 1278 909 1158 
Q 831 1038 831 891 
Q 831 666 1001 516 
Q 1172 366 1500 366 
Q 1825 366 2078 508 
Q 2331 650 2450 897 
Q 2541 1088 2541 1459 
L 2541 1666 
z
" transform="scale(0.015625)"/>
       <path id="ArialMT-74" d="M 1650 503 
L 1731 6 
Q 1494 -44 1306 -44 
Q 1000 -44 831 53 
Q 663 150 594 308 
Q 525 466 525 972 
L 525 2881 
L 113 2881 
L 113 3319 
L 525 3319 
L 525 4141 
L 1084 4478 
L 1084 3319 
L 1650 3319 
L 1650 2881 
L 1084 2881 
L 1084 941 
Q 1084 700 1114 631 
Q 1144 563 1211 522 
Q 1278 481 1403 481 
Q 1497 481 1650 503 
z
" transform="scale(0.015625)"/>
       <path id="ArialMT-73" d="M 197 991 
L 753 1078 
Q 800 744 1014 566 
Q 1228 388 1613 388 
Q 2000 388 2187 545 
Q 2375 703 2375 916 
Q 2375 1106 2209 1216 
Q 2094 1291 1634 1406 
Q 1016 1563 777 1677 
Q 538 1791 414 1992 
Q 291 2194 291 2438 
Q 291 2659 392 2848 
Q 494 3038 669 3163 
Q 800 3259 1026 3326 
Q 1253 3394 1513 3394 
Q 1903 3394 2198 3281 
Q 2494 3169 2634 2976 
Q 2775 2784 2828 2463 
L 2278 2388 
Q 2241 2644 2061 2787 
Q 1881 2931 1553 2931 
Q 1166 2931 1000 2803 
Q 834 2675 834 2503 
Q 834 2394 903 2306 
Q 972 2216 1119 2156 
Q 1203 2125 1616 2013 
Q 2213 1853 2448 1751 
Q 2684 1650 2818 1456 
Q 2953 1263 2953 975 
Q 2953 694 2789 445 
Q 2625 197 2315 61 
Q 2006 -75 1616 -75 
Q 969 -75 630 194 
Q 291 463 197 991 
z
" transform="scale(0.015625)"/>
      </defs>
      <use xlink:href="#ArialMT-54"/>
      <use xlink:href="#ArialMT-65" x="49.958984"/>
      <use xlink:href="#ArialMT-6d" x="105.574219"/>
      <use xlink:href="#ArialMT-70" x="188.875"/>
      <use xlink:href="#ArialMT-6f" x="244.490234"/>
      <use xlink:href="#ArialMT-20" x="300.105469"/>
      <use xlink:href="#ArialMT-64" x="327.888672"/>
      <use xlink:href="#ArialMT-69" x="383.503906"/>
      <use xlink:href="#ArialMT-20" x="405.720703"/>
      <use xlink:href="#ArialMT-61" x="433.503906"/>
      <use xlink:href="#ArialMT-74" x="489.119141"/>
      <use xlink:href="#ArialMT-74" x="516.902344"/>
      <use xlink:href="#ArialMT-65" x="544.685547"/>
      <use xlink:href="#ArialMT-73" x="600.300781"/>
      <use xlink:href="#ArialMT-61" x="650.300781"/>
     </g>
    </g>
   </g>
   <g id="matplotlib.axis_2">
    <g id="ytick_1">
     <g id="line2d_10">
      <path d="M 45.405125 339.84 
L 603.405125 339.84 
" clip-path="url(#p8db634d638)" style="fill: none; stroke: #ffffff; stroke-width: 0.8; stroke-linecap: round"/>
     </g>
     <g id="text_11">
      <!-- 0.00 -->
      <g style="fill: #262626" transform="translate(19.9795 342.989438) scale(0.088 -0.088)">
       <use xlink:href="#ArialMT-30"/>
       <use xlink:href="#ArialMT-2e" x="55.615234"/>
       <use xlink:href="#ArialMT-30" x="83.398438"/>
       <use xlink:href="#ArialMT-30" x="139.013672"/>
      </g>
     </g>
    </g>
    <g id="ytick_2">
     <g id="line2d_11">
      <path d="M 45.405125 276.48 
L 603.405125 276.48 
" clip-path="url(#p8db634d638)" style="fill: none; stroke: #ffffff; stroke-width: 0.8; stroke-linecap: round"/>
     </g>
     <g id="text_12">
      <!-- 0.05 -->
      <g style="fill: #262626" transform="translate(19.9795 279.629437) scale(0.088 -0.088)">
       <use xlink:href="#ArialMT-30"/>
       <use xlink:href="#ArialMT-2e" x="55.615234"/>
       <use xlink:href="#ArialMT-30" x="83.398438"/>
       <use xlink:href="#ArialMT-35" x="139.013672"/>
      </g>
     </g>
    </g>
    <g id="ytick_3">
     <g id="line2d_12">
      <path d="M 45.405125 213.12 
L 603.405125 213.12 
" clip-path="url(#p8db634d638)" style="fill: none; stroke: #ffffff; stroke-width: 0.8; stroke-linecap: round"/>
     </g>
     <g id="text_13">
      <!-- 0.10 -->
      <g style="fill: #262626" transform="translate(19.9795 216.269438) scale(0.088 -0.088)">
       <use xlink:href="#ArialMT-30"/>
       <use xlink:href="#ArialMT-2e" x="55.615234"/>
       <use xlink:href="#ArialMT-31" x="83.398438"/>
       <use xlink:href="#ArialMT-30" x="139.013672"/>
      </g>
     </g>
    </g>
    <g id="ytick_4">
     <g id="line2d_13">
      <path d="M 45.405125 149.76 
L 603.405125 149.76 
" clip-path="url(#p8db634d638)" style="fill: none; stroke: #ffffff; stroke-width: 0.8; stroke-linecap: round"/>
     </g>
     <g id="text_14">
      <!-- 0.15 -->
      <g style="fill: #262626" transform="translate(19.9795 152.909437) scale(0.088 -0.088)">
       <use xlink:href="#ArialMT-30"/>
       <use xlink:href="#ArialMT-2e" x="55.615234"/>
       <use xlink:href="#ArialMT-31" x="83.398438"/>
       <use xlink:href="#ArialMT-35" x="139.013672"/>
      </g>
     </g>
    </g>
    <g id="ytick_5">
     <g id="line2d_14">
      <path d="M 45.405125 86.4 
L 603.405125 86.4 
" clip-path="url(#p8db634d638)" style="fill: none; stroke: #ffffff; stroke-width: 0.8; stroke-linecap: round"/>
     </g>
     <g id="text_15">
      <!-- 0.20 -->
      <g style="fill: #262626" transform="translate(19.9795 89.549438) scale(0.088 -0.088)">
       <use xlink:href="#ArialMT-30"/>
       <use xlink:href="#ArialMT-2e" x="55.615234"/>
       <use xlink:href="#ArialMT-32" x="83.398438"/>
       <use xlink:href="#ArialMT-30" x="139.013672"/>
      </g>
     </g>
    </g>
    <g id="ytick_6">
     <g id="line2d_15">
      <path d="M 45.405125 23.04 
L 603.405125 23.04 
" clip-path="url(#p8db634d638)" style="fill: none; stroke: #ffffff; stroke-width: 0.8; stroke-linecap: round"/>
     </g>
     <g id="text_16">
      <!-- 0.25 -->
      <g style="fill: #262626" transform="translate(19.9795 26.189437) scale(0.088 -0.088)">
       <use xlink:href="#ArialMT-30"/>
       <use xlink:href="#ArialMT-2e" x="55.615234"/>
       <use xlink:href="#ArialMT-32" x="83.398438"/>
       <use xlink:href="#ArialMT-35" x="139.013672"/>
      </g>
     </g>
    </g>
    <g id="text_17">
     <!-- Frequenza relativa -->
     <g style="fill: #262626" transform="translate(14.0715 213.2715) rotate(-90) scale(0.096 -0.096)">
      <defs>
       <path id="ArialMT-46" d="M 525 0 
L 525 4581 
L 3616 4581 
L 3616 4041 
L 1131 4041 
L 1131 2622 
L 3281 2622 
L 3281 2081 
L 1131 2081 
L 1131 0 
L 525 0 
z
" transform="scale(0.015625)"/>
       <path id="ArialMT-72" d="M 416 0 
L 416 3319 
L 922 3319 
L 922 2816 
Q 1116 3169 1280 3281 
Q 1444 3394 1641 3394 
Q 1925 3394 2219 3213 
L 2025 2691 
Q 1819 2813 1613 2813 
Q 1428 2813 1281 2702 
Q 1134 2591 1072 2394 
Q 978 2094 978 1738 
L 978 0 
L 416 0 
z
" transform="scale(0.015625)"/>
       <path id="ArialMT-71" d="M 2538 -1272 
L 2538 353 
Q 2406 169 2170 47 
Q 1934 -75 1669 -75 
Q 1078 -75 651 397 
Q 225 869 225 1691 
Q 225 2191 398 2587 
Q 572 2984 901 3189 
Q 1231 3394 1625 3394 
Q 2241 3394 2594 2875 
L 2594 3319 
L 3100 3319 
L 3100 -1272 
L 2538 -1272 
z
M 803 1669 
Q 803 1028 1072 708 
Q 1341 388 1716 388 
Q 2075 388 2334 692 
Q 2594 997 2594 1619 
Q 2594 2281 2320 2615 
Q 2047 2950 1678 2950 
Q 1313 2950 1058 2639 
Q 803 2328 803 1669 
z
" transform="scale(0.015625)"/>
       <path id="ArialMT-75" d="M 2597 0 
L 2597 488 
Q 2209 -75 1544 -75 
Q 1250 -75 995 37 
Q 741 150 617 320 
Q 494 491 444 738 
Q 409 903 409 1263 
L 409 3319 
L 972 3319 
L 972 1478 
Q 972 1038 1006 884 
Q 1059 663 1231 536 
Q 1403 409 1656 409 
Q 1909 409 2131 539 
Q 2353 669 2445 892 
Q 2538 1116 2538 1541 
L 2538 3319 
L 3100 3319 
L 3100 0 
L 2597 0 
z
" transform="scale(0.015625)"/>
       <path id="ArialMT-6e" d="M 422 0 
L 422 3319 
L 928 3319 
L 928 2847 
Q 1294 3394 1984 3394 
Q 2284 3394 2536 3286 
Q 2788 3178 2913 3003 
Q 3038 2828 3088 2588 
Q 3119 2431 3119 2041 
L 3119 0 
L 2556 0 
L 2556 2019 
Q 2556 2363 2490 2533 
Q 2425 2703 2258 2804 
Q 2091 2906 1866 2906 
Q 1506 2906 1245 2678 
Q 984 2450 984 1813 
L 984 0 
L 422 0 
z
" transform="scale(0.015625)"/>
       <path id="ArialMT-7a" d="M 125 0 
L 125 456 
L 2238 2881 
Q 1878 2863 1603 2863 
L 250 2863 
L 250 3319 
L 2963 3319 
L 2963 2947 
L 1166 841 
L 819 456 
Q 1197 484 1528 484 
L 3063 484 
L 3063 0 
L 125 0 
z
" transform="scale(0.015625)"/>
       <path id="ArialMT-6c" d="M 409 0 
L 409 4581 
L 972 4581 
L 972 0 
L 409 0 
z
" transform="scale(0.015625)"/>
       <path id="ArialMT-76" d="M 1344 0 
L 81 3319 
L 675 3319 
L 1388 1331 
Q 1503 1009 1600 663 
Q 1675 925 1809 1294 
L 2547 3319 
L 3125 3319 
L 1869 0 
L 1344 0 
z
" transform="scale(0.015625)"/>
      </defs>
      <use xlink:href="#ArialMT-46"/>
      <use xlink:href="#ArialMT-72" x="61.083984"/>
      <use xlink:href="#ArialMT-65" x="94.384766"/>
      <use xlink:href="#ArialMT-71" x="150"/>
      <use xlink:href="#ArialMT-75" x="205.615234"/>
      <use xlink:href="#ArialMT-65" x="261.230469"/>
      <use xlink:href="#ArialMT-6e" x="316.845703"/>
      <use xlink:href="#ArialMT-7a" x="372.460938"/>
      <use xlink:href="#ArialMT-61" x="422.460938"/>
      <use xlink:href="#ArialMT-20" x="478.076172"/>
      <use xlink:href="#ArialMT-72" x="505.859375"/>
      <use xlink:href="#ArialMT-65" x="539.160156"/>
      <use xlink:href="#ArialMT-6c" x="594.775391"/>
      <use xlink:href="#ArialMT-61" x="616.992188"/>
      <use xlink:href="#ArialMT-74" x="672.607422"/>
      <use xlink:href="#ArialMT-69" x="700.390625"/>
      <use xlink:href="#ArialMT-76" x="722.607422"/>
      <use xlink:href="#ArialMT-61" x="772.607422"/>
     </g>
    </g>
   </g>
   <g id="patch_3">
    <path d="M 45.405162 339.84 
L 65.726807 339.84 
L 65.726807 50.405791 
L 45.405162 50.405791 
z
" clip-path="url(#p8db634d638)" style="fill: #0173b2; stroke: #ffffff; stroke-width: 0.8; stroke-linejoin: miter"/>
   </g>
   <g id="patch_4">
    <path d="M 65.726807 339.84 
L 86.048452 339.84 
L 86.048452 98.275416 
L 65.726807 98.275416 
z
" clip-path="url(#p8db634d638)" style="fill: #0173b2; stroke: #ffffff; stroke-width: 0.8; stroke-linejoin: miter"/>
   </g>
   <g id="patch_5">
    <path d="M 86.048452 339.84 
L 106.370097 339.84 
L 106.370097 139.299067 
L 86.048452 139.299067 
z
" clip-path="url(#p8db634d638)" style="fill: #0173b2; stroke: #ffffff; stroke-width: 0.8; stroke-linejoin: miter"/>
   </g>
   <g id="patch_6">
    <path d="M 106.370097 339.84 
L 126.691742 339.84 
L 126.691742 172.234552 
L 106.370097 172.234552 
z
" clip-path="url(#p8db634d638)" style="fill: #0173b2; stroke: #ffffff; stroke-width: 0.8; stroke-linejoin: miter"/>
   </g>
   <g id="patch_7">
    <path d="M 126.691742 339.84 
L 147.013387 339.84 
L 147.013387 199.978579 
L 126.691742 199.978579 
z
" clip-path="url(#p8db634d638)" style="fill: #0173b2; stroke: #ffffff; stroke-width: 0.8; stroke-linejoin: miter"/>
   </g>
   <g id="patch_8">
    <path d="M 147.013387 339.84 
L 167.335032 339.84 
L 167.335032 222.465037 
L 147.013387 222.465037 
z
" clip-path="url(#p8db634d638)" style="fill: #0173b2; stroke: #ffffff; stroke-width: 0.8; stroke-linejoin: miter"/>
   </g>
   <g id="patch_9">
    <path d="M 167.335032 339.84 
L 187.656677 339.84 
L 187.656677 242.893354 
L 167.335032 242.893354 
z
" clip-path="url(#p8db634d638)" style="fill: #0173b2; stroke: #ffffff; stroke-width: 0.8; stroke-linejoin: miter"/>
   </g>
   <g id="patch_10">
    <path d="M 187.656677 339.84 
L 207.978322 339.84 
L 207.978322 259.231484 
L 187.656677 259.231484 
z
" clip-path="url(#p8db634d638)" style="fill: #0173b2; stroke: #ffffff; stroke-width: 0.8; stroke-linejoin: miter"/>
   </g>
   <g id="patch_11">
    <path d="M 207.978322 339.84 
L 228.299967 339.84 
L 228.299967 272.679865 
L 207.978322 272.679865 
z
" clip-path="url(#p8db634d638)" style="fill: #0173b2; stroke: #ffffff; stroke-width: 0.8; stroke-linejoin: miter"/>
   </g>
   <g id="patch_12">
    <path d="M 228.299967 339.84 
L 248.621612 339.84 
L 248.621612 283.368979 
L 228.299967 283.368979 
z
" clip-path="url(#p8db634d638)" style="fill: #0173b2; stroke: #ffffff; stroke-width: 0.8; stroke-linejoin: miter"/>
   </g>
   <g id="patch_13">
    <path d="M 248.621612 339.84 
L 268.943257 339.84 
L 268.943257 292.403577 
L 248.621612 292.403577 
z
" clip-path="url(#p8db634d638)" style="fill: #0173b2; stroke: #ffffff; stroke-width: 0.8; stroke-linejoin: miter"/>
   </g>
   <g id="patch_14">
    <path d="M 268.943257 339.84 
L 289.264902 339.84 
L 289.264902 300.630924 
L 268.943257 300.630924 
z
" clip-path="url(#p8db634d638)" style="fill: #0173b2; stroke: #ffffff; stroke-width: 0.8; stroke-linejoin: miter"/>
   </g>
   <g id="patch_15">
    <path d="M 289.264902 339.84 
L 309.586547 339.84 
L 309.586547 307.162 
L 289.264902 307.162 
z
" clip-path="url(#p8db634d638)" style="fill: #0173b2; stroke: #ffffff; stroke-width: 0.8; stroke-linejoin: miter"/>
   </g>
   <g id="patch_16">
    <path d="M 309.586547 339.84 
L 329.908192 339.84 
L 329.908192 313.021528 
L 309.586547 313.021528 
z
" clip-path="url(#p8db634d638)" style="fill: #0173b2; stroke: #ffffff; stroke-width: 0.8; stroke-linejoin: miter"/>
   </g>
   <g id="patch_17">
    <path d="M 329.908192 339.84 
L 350.229837 339.84 
L 350.229837 317.090837 
L 329.908192 317.090837 
z
" clip-path="url(#p8db634d638)" style="fill: #0173b2; stroke: #ffffff; stroke-width: 0.8; stroke-linejoin: miter"/>
   </g>
   <g id="patch_18">
    <path d="M 350.229837 339.84 
L 370.551482 339.84 
L 370.551482 321.088816 
L 350.229837 321.088816 
z
" clip-path="url(#p8db634d638)" style="fill: #0173b2; stroke: #ffffff; stroke-width: 0.8; stroke-linejoin: miter"/>
   </g>
   <g id="patch_19">
    <path d="M 370.551482 339.84 
L 390.873127 339.84 
L 390.873127 324.030758 
L 370.551482 324.030758 
z
" clip-path="url(#p8db634d638)" style="fill: #0173b2; stroke: #ffffff; stroke-width: 0.8; stroke-linejoin: miter"/>
   </g>
   <g id="patch_20">
    <path d="M 390.873127 339.84 
L 411.194772 339.84 
L 411.194772 326.779587 
L 390.873127 326.779587 
z
" clip-path="url(#p8db634d638)" style="fill: #0173b2; stroke: #ffffff; stroke-width: 0.8; stroke-linejoin: miter"/>
   </g>
   <g id="patch_21">
    <path d="M 411.194772 339.84 
L 431.516417 339.84 
L 431.516417 329.161324 
L 411.194772 329.161324 
z
" clip-path="url(#p8db634d638)" style="fill: #0173b2; stroke: #ffffff; stroke-width: 0.8; stroke-linejoin: miter"/>
   </g>
   <g id="patch_22">
    <path d="M 431.516417 339.84 
L 451.838062 339.84 
L 451.838062 330.654043 
L 431.516417 330.654043 
z
" clip-path="url(#p8db634d638)" style="fill: #0173b2; stroke: #ffffff; stroke-width: 0.8; stroke-linejoin: miter"/>
   </g>
   <g id="patch_23">
    <path d="M 451.838062 339.84 
L 472.159707 339.84 
L 472.159707 332.172857 
L 451.838062 332.172857 
z
" clip-path="url(#p8db634d638)" style="fill: #0173b2; stroke: #ffffff; stroke-width: 0.8; stroke-linejoin: miter"/>
   </g>
   <g id="patch_24">
    <path d="M 472.159707 339.84 
L 492.481352 339.84 
L 492.481352 333.364596 
L 472.159707 333.364596 
z
" clip-path="url(#p8db634d638)" style="fill: #0173b2; stroke: #ffffff; stroke-width: 0.8; stroke-linejoin: miter"/>
   </g>
   <g id="patch_25">
    <path d="M 492.481352 339.84 
L 512.802997 339.84 
L 512.802997 334.58765 
L 492.481352 334.58765 
z
" clip-path="url(#p8db634d638)" style="fill: #0173b2; stroke: #ffffff; stroke-width: 0.8; stroke-linejoin: miter"/>
   </g>
   <g id="patch_26">
    <path d="M 512.802997 339.84 
L 533.124643 339.84 
L 533.124643 335.40186 
L 512.802997 335.40186 
z
" clip-path="url(#p8db634d638)" style="fill: #0173b2; stroke: #ffffff; stroke-width: 0.8; stroke-linejoin: miter"/>
   </g>
   <g id="patch_27">
    <path d="M 533.124643 339.84 
L 553.446288 339.84 
L 553.446288 336.273482 
L 533.124643 336.273482 
z
" clip-path="url(#p8db634d638)" style="fill: #0173b2; stroke: #ffffff; stroke-width: 0.8; stroke-linejoin: miter"/>
   </g>
   <g id="patch_28">
    <path d="M 553.446288 339.84 
L 573.767933 339.84 
L 573.767933 336.873701 
L 553.446288 336.873701 
z
" clip-path="url(#p8db634d638)" style="fill: #0173b2; stroke: #ffffff; stroke-width: 0.8; stroke-linejoin: miter"/>
   </g>
   <g id="patch_29">
    <path d="M 573.767933 339.84 
L 594.089578 339.84 
L 594.089578 337.270368 
L 573.767933 337.270368 
z
" clip-path="url(#p8db634d638)" style="fill: #0173b2; stroke: #ffffff; stroke-width: 0.8; stroke-linejoin: miter"/>
   </g>
   <g id="patch_30">
    <path d="M 594.089578 339.84 
L 614.411223 339.84 
L 614.411223 337.590484 
L 594.089578 337.590484 
z
" clip-path="url(#p8db634d638)" style="fill: #0173b2; stroke: #ffffff; stroke-width: 0.8; stroke-linejoin: miter"/>
   </g>
   <g id="patch_31">
    <path d="M 614.411223 339.84 
L 634.732868 339.84 
L 634.732868 337.938437 
L 614.411223 337.938437 
z
" clip-path="url(#p8db634d638)" style="fill: #0173b2; stroke: #ffffff; stroke-width: 0.8; stroke-linejoin: miter"/>
   </g>
   <g id="patch_32">
    <path d="M 634.732868 339.84 
L 655.054513 339.84 
L 655.054513 338.390776 
L 634.732868 338.390776 
z
" clip-path="url(#p8db634d638)" style="fill: #0173b2; stroke: #ffffff; stroke-width: 0.8; stroke-linejoin: miter"/>
   </g>
   <g id="patch_33">
    <path d="M 655.054513 339.84 
L 675.376158 339.84 
L 675.376158 338.587369 
L 655.054513 338.587369 
z
" clip-path="url(#p8db634d638)" style="fill: #0173b2; stroke: #ffffff; stroke-width: 0.8; stroke-linejoin: miter"/>
   </g>
   <g id="patch_34">
    <path d="M 675.376158 339.84 
L 695.697803 339.84 
L 695.697803 338.853553 
L 675.376158 338.853553 
z
" clip-path="url(#p8db634d638)" style="fill: #0173b2; stroke: #ffffff; stroke-width: 0.8; stroke-linejoin: miter"/>
   </g>
   <g id="patch_35">
    <path d="M 695.697803 339.84 
L 716.019448 339.84 
L 716.019448 338.9562 
L 695.697803 338.9562 
z
" clip-path="url(#p8db634d638)" style="fill: #0173b2; stroke: #ffffff; stroke-width: 0.8; stroke-linejoin: miter"/>
   </g>
   <g id="patch_36">
    <path d="M 716.019448 339.84 
L 736.341093 339.84 
L 736.341093 339.112778 
L 716.019448 339.112778 
z
" clip-path="url(#p8db634d638)" style="fill: #0173b2; stroke: #ffffff; stroke-width: 0.8; stroke-linejoin: miter"/>
   </g>
   <g id="patch_37">
    <path d="M 736.341093 339.84 
L 756.662738 339.84 
L 756.662738 339.264138 
L 736.341093 339.264138 
z
" clip-path="url(#p8db634d638)" style="fill: #0173b2; stroke: #ffffff; stroke-width: 0.8; stroke-linejoin: miter"/>
   </g>
   <g id="patch_38">
    <path d="M 756.662738 339.84 
L 776.984383 339.84 
L 776.984383 339.377223 
L 756.662738 339.377223 
z
" clip-path="url(#p8db634d638)" style="fill: #0173b2; stroke: #ffffff; stroke-width: 0.8; stroke-linejoin: miter"/>
   </g>
   <g id="patch_39">
    <path d="M 776.984383 339.84 
L 797.306028 339.84 
L 797.306028 339.464211 
L 776.984383 339.464211 
z
" clip-path="url(#p8db634d638)" style="fill: #0173b2; stroke: #ffffff; stroke-width: 0.8; stroke-linejoin: miter"/>
   </g>
   <g id="patch_40">
    <path d="M 797.306028 339.84 
L 817.627673 339.84 
L 817.627673 339.488568 
L 797.306028 339.488568 
z
" clip-path="url(#p8db634d638)" style="fill: #0173b2; stroke: #ffffff; stroke-width: 0.8; stroke-linejoin: miter"/>
   </g>
   <g id="patch_41">
    <path d="M 817.627673 339.84 
L 837.949318 339.84 
L 837.949318 339.54424 
L 817.627673 339.54424 
z
" clip-path="url(#p8db634d638)" style="fill: #0173b2; stroke: #ffffff; stroke-width: 0.8; stroke-linejoin: miter"/>
   </g>
   <g id="patch_42">
    <path d="M 837.949318 339.84 
L 858.270963 339.84 
L 858.270963 339.605132 
L 837.949318 339.605132 
z
" clip-path="url(#p8db634d638)" style="fill: #0173b2; stroke: #ffffff; stroke-width: 0.8; stroke-linejoin: miter"/>
   </g>
   <g id="patch_43">
    <path d="M 858.270963 339.84 
L 878.592608 339.84 
L 878.592608 339.671243 
L 858.270963 339.671243 
z
" clip-path="url(#p8db634d638)" style="fill: #0173b2; stroke: #ffffff; stroke-width: 0.8; stroke-linejoin: miter"/>
   </g>
   <g id="patch_44">
    <path d="M 878.592608 339.84 
L 898.914253 339.84 
L 898.914253 339.704298 
L 878.592608 339.704298 
z
" clip-path="url(#p8db634d638)" style="fill: #0173b2; stroke: #ffffff; stroke-width: 0.8; stroke-linejoin: miter"/>
   </g>
   <g id="patch_45">
    <path d="M 898.914253 339.84 
L 919.235898 339.84 
L 919.235898 339.712997 
L 898.914253 339.712997 
z
" clip-path="url(#p8db634d638)" style="fill: #0173b2; stroke: #ffffff; stroke-width: 0.8; stroke-linejoin: miter"/>
   </g>
   <g id="patch_46">
    <path d="M 919.235898 339.84 
L 939.557543 339.84 
L 939.557543 339.712997 
L 919.235898 339.712997 
z
" clip-path="url(#p8db634d638)" style="fill: #0173b2; stroke: #ffffff; stroke-width: 0.8; stroke-linejoin: miter"/>
   </g>
   <g id="patch_47">
    <path d="M 939.557543 339.84 
L 959.879188 339.84 
L 959.879188 339.739094 
L 939.557543 339.739094 
z
" clip-path="url(#p8db634d638)" style="fill: #0173b2; stroke: #ffffff; stroke-width: 0.8; stroke-linejoin: miter"/>
   </g>
   <g id="patch_48">
    <path d="M 959.879188 339.84 
L 980.200833 339.84 
L 980.200833 339.76867 
L 959.879188 339.76867 
z
" clip-path="url(#p8db634d638)" style="fill: #0173b2; stroke: #ffffff; stroke-width: 0.8; stroke-linejoin: miter"/>
   </g>
   <g id="patch_49">
    <path d="M 980.200833 339.84 
L 1000.522479 339.84 
L 1000.522479 339.749532 
L 980.200833 339.749532 
z
" clip-path="url(#p8db634d638)" style="fill: #0173b2; stroke: #ffffff; stroke-width: 0.8; stroke-linejoin: miter"/>
   </g>
   <g id="patch_50">
    <path d="M 1000.522479 339.84 
L 1020.844124 339.84 
L 1020.844124 339.779108 
L 1000.522479 339.779108 
z
" clip-path="url(#p8db634d638)" style="fill: #0173b2; stroke: #ffffff; stroke-width: 0.8; stroke-linejoin: miter"/>
   </g>
   <g id="patch_51">
    <path d="M 1020.844124 339.84 
L 1041.165769 339.84 
L 1041.165769 339.803465 
L 1020.844124 339.803465 
z
" clip-path="url(#p8db634d638)" style="fill: #0173b2; stroke: #ffffff; stroke-width: 0.8; stroke-linejoin: miter"/>
   </g>
   <g id="patch_52">
    <path d="M 1041.165769 339.84 
L 1061.487414 339.84 
L 1061.487414 339.810424 
L 1041.165769 339.810424 
z
" clip-path="url(#p8db634d638)" style="fill: #0173b2; stroke: #ffffff; stroke-width: 0.8; stroke-linejoin: miter"/>
   </g>
   <g id="patch_53">
    <path d="M 1061.487414 339.84 
L 1081.809059 339.84 
L 1081.809059 339.805205 
L 1061.487414 339.805205 
z
" clip-path="url(#p8db634d638)" style="fill: #0173b2; stroke: #ffffff; stroke-width: 0.8; stroke-linejoin: miter"/>
   </g>
   <g id="patch_54">
    <path d="M 1081.809059 339.84 
L 1102.130704 339.84 
L 1102.130704 339.819123 
L 1081.809059 339.819123 
z
" clip-path="url(#p8db634d638)" style="fill: #0173b2; stroke: #ffffff; stroke-width: 0.8; stroke-linejoin: miter"/>
   </g>
   <g id="patch_55">
    <path d="M 1102.130704 339.84 
L 1122.452349 339.84 
L 1122.452349 339.805205 
L 1102.130704 339.805205 
z
" clip-path="url(#p8db634d638)" style="fill: #0173b2; stroke: #ffffff; stroke-width: 0.8; stroke-linejoin: miter"/>
   </g>
   <g id="patch_56">
    <path d="M 1122.452349 339.84 
L 1142.773994 339.84 
L 1142.773994 339.822602 
L 1122.452349 339.822602 
z
" clip-path="url(#p8db634d638)" style="fill: #0173b2; stroke: #ffffff; stroke-width: 0.8; stroke-linejoin: miter"/>
   </g>
   <g id="patch_57">
    <path d="M 1142.773994 339.84 
L 1163.095639 339.84 
L 1163.095639 339.824342 
L 1142.773994 339.824342 
z
" clip-path="url(#p8db634d638)" style="fill: #0173b2; stroke: #ffffff; stroke-width: 0.8; stroke-linejoin: miter"/>
   </g>
   <g id="patch_58">
    <path d="M 1163.095639 339.84 
L 1183.417284 339.84 
L 1183.417284 339.833041 
L 1163.095639 339.833041 
z
" clip-path="url(#p8db634d638)" style="fill: #0173b2; stroke: #ffffff; stroke-width: 0.8; stroke-linejoin: miter"/>
   </g>
   <g id="patch_59">
    <path d="M 1183.417284 339.84 
L 1203.738929 339.84 
L 1203.738929 339.831301 
L 1183.417284 339.831301 
z
" clip-path="url(#p8db634d638)" style="fill: #0173b2; stroke: #ffffff; stroke-width: 0.8; stroke-linejoin: miter"/>
   </g>
   <g id="patch_60">
    <path d="M 1203.738929 339.84 
L 1224.060574 339.84 
L 1224.060574 339.833041 
L 1203.738929 339.833041 
z
" clip-path="url(#p8db634d638)" style="fill: #0173b2; stroke: #ffffff; stroke-width: 0.8; stroke-linejoin: miter"/>
   </g>
   <g id="patch_61">
    <path d="M 1224.060574 339.84 
L 1244.382219 339.84 
L 1244.382219 339.833041 
L 1224.060574 339.833041 
z
" clip-path="url(#p8db634d638)" style="fill: #0173b2; stroke: #ffffff; stroke-width: 0.8; stroke-linejoin: miter"/>
   </g>
   <g id="patch_62">
    <path d="M 1244.382219 339.84 
L 1264.703864 339.84 
L 1264.703864 339.83652 
L 1244.382219 339.83652 
z
" clip-path="url(#p8db634d638)" style="fill: #0173b2; stroke: #ffffff; stroke-width: 0.8; stroke-linejoin: miter"/>
   </g>
   <g id="patch_63">
    <path d="M 1264.703864 339.84 
L 1285.025509 339.84 
L 1285.025509 339.831301 
L 1264.703864 339.831301 
z
" clip-path="url(#p8db634d638)" style="fill: #0173b2; stroke: #ffffff; stroke-width: 0.8; stroke-linejoin: miter"/>
   </g>
   <g id="patch_64">
    <path d="M 1285.025509 339.84 
L 1305.347154 339.84 
L 1305.347154 339.834781 
L 1285.025509 339.834781 
z
" clip-path="url(#p8db634d638)" style="fill: #0173b2; stroke: #ffffff; stroke-width: 0.8; stroke-linejoin: miter"/>
   </g>
   <g id="patch_65">
    <path d="M 1305.347154 339.84 
L 1325.668799 339.84 
L 1325.668799 339.83826 
L 1305.347154 339.83826 
z
" clip-path="url(#p8db634d638)" style="fill: #0173b2; stroke: #ffffff; stroke-width: 0.8; stroke-linejoin: miter"/>
   </g>
   <g id="patch_66">
    <path d="M 1325.668799 339.84 
L 1345.990444 339.84 
L 1345.990444 339.83826 
L 1325.668799 339.83826 
z
" clip-path="url(#p8db634d638)" style="fill: #0173b2; stroke: #ffffff; stroke-width: 0.8; stroke-linejoin: miter"/>
   </g>
   <g id="patch_67">
    <path d="M 1345.990444 339.84 
L 1366.312089 339.84 
L 1366.312089 339.84 
L 1345.990444 339.84 
z
" clip-path="url(#p8db634d638)" style="fill: #0173b2; stroke: #ffffff; stroke-width: 0.8; stroke-linejoin: miter"/>
   </g>
   <g id="patch_68">
    <path d="M 1366.312089 339.84 
L 1386.633734 339.84 
L 1386.633734 339.83826 
L 1366.312089 339.83826 
z
" clip-path="url(#p8db634d638)" style="fill: #0173b2; stroke: #ffffff; stroke-width: 0.8; stroke-linejoin: miter"/>
   </g>
   <g id="patch_69">
    <path d="M 1386.633734 339.84 
L 1406.955379 339.84 
L 1406.955379 339.83652 
L 1386.633734 339.83652 
z
" clip-path="url(#p8db634d638)" style="fill: #0173b2; stroke: #ffffff; stroke-width: 0.8; stroke-linejoin: miter"/>
   </g>
   <g id="patch_70">
    <path d="M 1406.955379 339.84 
L 1427.277024 339.84 
L 1427.277024 339.83826 
L 1406.955379 339.83826 
z
" clip-path="url(#p8db634d638)" style="fill: #0173b2; stroke: #ffffff; stroke-width: 0.8; stroke-linejoin: miter"/>
   </g>
   <g id="patch_71">
    <path d="M 1427.277024 339.84 
L 1447.598669 339.84 
L 1447.598669 339.83826 
L 1427.277024 339.83826 
z
" clip-path="url(#p8db634d638)" style="fill: #0173b2; stroke: #ffffff; stroke-width: 0.8; stroke-linejoin: miter"/>
   </g>
   <g id="patch_72">
    <path d="M 1447.598669 339.84 
L 1467.920314 339.84 
L 1467.920314 339.83826 
L 1447.598669 339.83826 
z
" clip-path="url(#p8db634d638)" style="fill: #0173b2; stroke: #ffffff; stroke-width: 0.8; stroke-linejoin: miter"/>
   </g>
   <g id="patch_73">
    <path d="M 1467.920314 339.84 
L 1488.24196 339.84 
L 1488.24196 339.84 
L 1467.920314 339.84 
z
" clip-path="url(#p8db634d638)" style="fill: #0173b2; stroke: #ffffff; stroke-width: 0.8; stroke-linejoin: miter"/>
   </g>
   <g id="patch_74">
    <path d="M 1488.24196 339.84 
L 1508.563605 339.84 
L 1508.563605 339.84 
L 1488.24196 339.84 
z
" clip-path="url(#p8db634d638)" style="fill: #0173b2; stroke: #ffffff; stroke-width: 0.8; stroke-linejoin: miter"/>
   </g>
   <g id="patch_75">
    <path d="M 1508.563605 339.84 
L 1528.88525 339.84 
L 1528.88525 339.84 
L 1508.563605 339.84 
z
" clip-path="url(#p8db634d638)" style="fill: #0173b2; stroke: #ffffff; stroke-width: 0.8; stroke-linejoin: miter"/>
   </g>
   <g id="patch_76">
    <path d="M 1528.88525 339.84 
L 1549.206895 339.84 
L 1549.206895 339.84 
L 1528.88525 339.84 
z
" clip-path="url(#p8db634d638)" style="fill: #0173b2; stroke: #ffffff; stroke-width: 0.8; stroke-linejoin: miter"/>
   </g>
   <g id="patch_77">
    <path d="M 1549.206895 339.84 
L 1569.52854 339.84 
L 1569.52854 339.83826 
L 1549.206895 339.83826 
z
" clip-path="url(#p8db634d638)" style="fill: #0173b2; stroke: #ffffff; stroke-width: 0.8; stroke-linejoin: miter"/>
   </g>
   <g id="patch_78">
    <path d="M 1569.52854 339.84 
L 1589.850185 339.84 
L 1589.850185 339.83826 
L 1569.52854 339.83826 
z
" clip-path="url(#p8db634d638)" style="fill: #0173b2; stroke: #ffffff; stroke-width: 0.8; stroke-linejoin: miter"/>
   </g>
   <g id="patch_79">
    <path d="M 1589.850185 339.84 
L 1610.17183 339.84 
L 1610.17183 339.84 
L 1589.850185 339.84 
z
" clip-path="url(#p8db634d638)" style="fill: #0173b2; stroke: #ffffff; stroke-width: 0.8; stroke-linejoin: miter"/>
   </g>
   <g id="patch_80">
    <path d="M 1610.17183 339.84 
L 1630.493475 339.84 
L 1630.493475 339.84 
L 1610.17183 339.84 
z
" clip-path="url(#p8db634d638)" style="fill: #0173b2; stroke: #ffffff; stroke-width: 0.8; stroke-linejoin: miter"/>
   </g>
   <g id="patch_81">
    <path d="M 1630.493475 339.84 
L 1650.81512 339.84 
L 1650.81512 339.84 
L 1630.493475 339.84 
z
" clip-path="url(#p8db634d638)" style="fill: #0173b2; stroke: #ffffff; stroke-width: 0.8; stroke-linejoin: miter"/>
   </g>
   <g id="patch_82">
    <path d="M 1650.81512 339.84 
L 1671.136765 339.84 
L 1671.136765 339.84 
L 1650.81512 339.84 
z
" clip-path="url(#p8db634d638)" style="fill: #0173b2; stroke: #ffffff; stroke-width: 0.8; stroke-linejoin: miter"/>
   </g>
   <g id="patch_83">
    <path d="M 1671.136765 339.84 
L 1691.45841 339.84 
L 1691.45841 339.84 
L 1671.136765 339.84 
z
" clip-path="url(#p8db634d638)" style="fill: #0173b2; stroke: #ffffff; stroke-width: 0.8; stroke-linejoin: miter"/>
   </g>
   <g id="patch_84">
    <path d="M 1691.45841 339.84 
L 1711.780055 339.84 
L 1711.780055 339.84 
L 1691.45841 339.84 
z
" clip-path="url(#p8db634d638)" style="fill: #0173b2; stroke: #ffffff; stroke-width: 0.8; stroke-linejoin: miter"/>
   </g>
   <g id="patch_85">
    <path d="M 1711.780055 339.84 
L 1732.1017 339.84 
L 1732.1017 339.84 
L 1711.780055 339.84 
z
" clip-path="url(#p8db634d638)" style="fill: #0173b2; stroke: #ffffff; stroke-width: 0.8; stroke-linejoin: miter"/>
   </g>
   <g id="patch_86">
    <path d="M 1732.1017 339.84 
L 1752.423345 339.84 
L 1752.423345 339.84 
L 1732.1017 339.84 
z
" clip-path="url(#p8db634d638)" style="fill: #0173b2; stroke: #ffffff; stroke-width: 0.8; stroke-linejoin: miter"/>
   </g>
   <g id="patch_87">
    <path d="M 1752.423345 339.84 
L 1772.74499 339.84 
L 1772.74499 339.84 
L 1752.423345 339.84 
z
" clip-path="url(#p8db634d638)" style="fill: #0173b2; stroke: #ffffff; stroke-width: 0.8; stroke-linejoin: miter"/>
   </g>
   <g id="patch_88">
    <path d="M 1772.74499 339.84 
L 1793.066635 339.84 
L 1793.066635 339.84 
L 1772.74499 339.84 
z
" clip-path="url(#p8db634d638)" style="fill: #0173b2; stroke: #ffffff; stroke-width: 0.8; stroke-linejoin: miter"/>
   </g>
   <g id="patch_89">
    <path d="M 1793.066635 339.84 
L 1813.38828 339.84 
L 1813.38828 339.84 
L 1793.066635 339.84 
z
" clip-path="url(#p8db634d638)" style="fill: #0173b2; stroke: #ffffff; stroke-width: 0.8; stroke-linejoin: miter"/>
   </g>
   <g id="patch_90">
    <path d="M 1813.38828 339.84 
L 1833.709925 339.84 
L 1833.709925 339.84 
L 1813.38828 339.84 
z
" clip-path="url(#p8db634d638)" style="fill: #0173b2; stroke: #ffffff; stroke-width: 0.8; stroke-linejoin: miter"/>
   </g>
   <g id="patch_91">
    <path d="M 1833.709925 339.84 
L 1854.03157 339.84 
L 1854.03157 339.84 
L 1833.709925 339.84 
z
" clip-path="url(#p8db634d638)" style="fill: #0173b2; stroke: #ffffff; stroke-width: 0.8; stroke-linejoin: miter"/>
   </g>
   <g id="patch_92">
    <path d="M 1854.03157 339.84 
L 1874.353215 339.84 
L 1874.353215 339.84 
L 1854.03157 339.84 
z
" clip-path="url(#p8db634d638)" style="fill: #0173b2; stroke: #ffffff; stroke-width: 0.8; stroke-linejoin: miter"/>
   </g>
   <g id="patch_93">
    <path d="M 1874.353215 339.84 
L 1894.67486 339.84 
L 1894.67486 339.84 
L 1874.353215 339.84 
z
" clip-path="url(#p8db634d638)" style="fill: #0173b2; stroke: #ffffff; stroke-width: 0.8; stroke-linejoin: miter"/>
   </g>
   <g id="patch_94">
    <path d="M 1894.67486 339.84 
L 1914.996505 339.84 
L 1914.996505 339.84 
L 1894.67486 339.84 
z
" clip-path="url(#p8db634d638)" style="fill: #0173b2; stroke: #ffffff; stroke-width: 0.8; stroke-linejoin: miter"/>
   </g>
   <g id="patch_95">
    <path d="M 1914.996505 339.84 
L 1935.31815 339.84 
L 1935.31815 339.84 
L 1914.996505 339.84 
z
" clip-path="url(#p8db634d638)" style="fill: #0173b2; stroke: #ffffff; stroke-width: 0.8; stroke-linejoin: miter"/>
   </g>
   <g id="patch_96">
    <path d="M 1935.31815 339.84 
L 1955.639795 339.84 
L 1955.639795 339.84 
L 1935.31815 339.84 
z
" clip-path="url(#p8db634d638)" style="fill: #0173b2; stroke: #ffffff; stroke-width: 0.8; stroke-linejoin: miter"/>
   </g>
   <g id="patch_97">
    <path d="M 1955.639795 339.84 
L 1975.961441 339.84 
L 1975.961441 339.84 
L 1955.639795 339.84 
z
" clip-path="url(#p8db634d638)" style="fill: #0173b2; stroke: #ffffff; stroke-width: 0.8; stroke-linejoin: miter"/>
   </g>
   <g id="patch_98">
    <path d="M 1975.961441 339.84 
L 1996.283086 339.84 
L 1996.283086 339.84 
L 1975.961441 339.84 
z
" clip-path="url(#p8db634d638)" style="fill: #0173b2; stroke: #ffffff; stroke-width: 0.8; stroke-linejoin: miter"/>
   </g>
   <g id="patch_99">
    <path d="M 1996.283086 339.84 
L 2016.604731 339.84 
L 2016.604731 339.84 
L 1996.283086 339.84 
z
" clip-path="url(#p8db634d638)" style="fill: #0173b2; stroke: #ffffff; stroke-width: 0.8; stroke-linejoin: miter"/>
   </g>
   <g id="patch_100">
    <path d="M 2016.604731 339.84 
L 2036.926376 339.84 
L 2036.926376 339.84 
L 2016.604731 339.84 
z
" clip-path="url(#p8db634d638)" style="fill: #0173b2; stroke: #ffffff; stroke-width: 0.8; stroke-linejoin: miter"/>
   </g>
   <g id="patch_101">
    <path d="M 2036.926376 339.84 
L 2057.248021 339.84 
L 2057.248021 339.84 
L 2036.926376 339.84 
z
" clip-path="url(#p8db634d638)" style="fill: #0173b2; stroke: #ffffff; stroke-width: 0.8; stroke-linejoin: miter"/>
   </g>
   <g id="patch_102">
    <path d="M 2057.248021 339.84 
L 2077.569666 339.84 
L 2077.569666 339.83826 
L 2057.248021 339.83826 
z
" clip-path="url(#p8db634d638)" style="fill: #0173b2; stroke: #ffffff; stroke-width: 0.8; stroke-linejoin: miter"/>
   </g>
   <g id="line2d_16">
    <path d="M 45.405125 23.04 
L 50.706125 37.736202 
L 56.007125 51.750654 
L 61.308125 65.114983 
L 66.609125 77.859346 
L 71.910125 90.012505 
L 77.211125 101.601884 
L 82.512125 112.653638 
L 87.813125 123.192706 
L 93.114125 133.242871 
L 98.415125 142.826814 
L 103.716125 151.966163 
L 109.017125 160.681541 
L 114.597125 169.419202 
L 120.177125 177.730723 
L 125.757125 185.636885 
L 131.337125 193.15746 
L 136.917125 200.311252 
L 142.497125 207.116149 
L 148.356125 213.904401 
L 154.215125 220.345462 
L 160.074125 226.457092 
L 165.933125 232.256137 
L 172.071125 238.013472 
L 178.209125 243.462704 
L 184.347125 248.62032 
L 190.764125 253.717504 
L 197.181125 258.529866 
L 203.877125 263.264999 
L 210.573125 267.72438 
L 217.269125 271.924067 
L 224.244125 276.038885 
L 231.498125 280.054051 
L 238.752125 283.816533 
L 246.285125 287.473312 
L 254.097125 291.013624 
L 262.188125 294.42826 
L 270.279125 297.604096 
L 278.649125 300.655915 
L 287.298125 303.577989 
L 296.505125 306.449526 
L 305.991125 309.170439 
L 315.756125 311.73997 
L 326.079125 314.222629 
L 336.681125 316.544257 
L 347.841125 318.76114 
L 359.559125 320.862185 
L 371.835125 322.839026 
L 384.948125 324.723745 
L 398.898125 326.499952 
L 413.685125 328.155413 
L 429.588125 329.707271 
L 446.607125 331.140456 
L 465.021125 332.463711 
L 485.109125 333.678806 
L 507.150125 334.783014 
L 531.423125 335.771515 
L 558.486125 336.647607 
L 589.176125 337.415148 
L 603.126125 337.700075 
L 603.126125 337.700075 
" clip-path="url(#p8db634d638)" style="fill: none; stroke: #de8f05; stroke-width: 1.2; stroke-linecap: round"/>
   </g>
   <g id="patch_103">
    <path d="M 45.405125 339.84 
L 45.405125 7.2 
" style="fill: none; stroke: #ffffff; stroke-linejoin: miter; stroke-linecap: square"/>
   </g>
   <g id="patch_104">
    <path d="M 603.405125 339.84 
L 603.405125 7.2 
" style="fill: none; stroke: #ffffff; stroke-linejoin: miter; stroke-linecap: square"/>
   </g>
   <g id="patch_105">
    <path d="M 45.405125 339.84 
L 603.405125 339.84 
" style="fill: none; stroke: #ffffff; stroke-linejoin: miter; stroke-linecap: square"/>
   </g>
   <g id="patch_106">
    <path d="M 45.405125 7.2 
L 603.405125 7.2 
" style="fill: none; stroke: #ffffff; stroke-linejoin: miter; stroke-linecap: square"/>
   </g>
  </g>
 </g>
 <defs>
  <clipPath id="p8db634d638">
   <rect x="45.405125" y="7.2" width="558" height="332.64"/>
  </clipPath>
 </defs>
</svg>