<?xml version="1.0" encoding="utf-8" standalone="no"?>
<!DOCTYPE svg PUBLIC "-//W3C//DTD SVG 1.1//EN"
  "http://www.w3.org/Graphics/SVG/1.1/DTD/svg11.dtd">
<svg xmlns:xlink="http://www.w3.org/1999/xlink" width="594.441719pt" height="366.599844pt" viewBox="0 0 594.441719 366.599844" xmlns="http://www.w3.org/2000/svg" version="1.1">
 <metadata>
  <rdf:RDF xmlns:dc="http://purl.org/dc/elements/1.1/" xmlns:cc="http://creativecommons.org/ns#" xmlns:rdf="http://www.w3.org/1999/02/22-rdf-syntax-ns#">
   <cc:Work>
    <dc:type rdf:resource="http://purl.org/dc/dcmitype/StillImage"/>
    <dc:date>2023-05-08T07:23:01.209955</dc:date>
    <dc:format>image/svg+xml</dc:format>
    <dc:creator>
     <cc:Agent>
      <dc:title>Matplotlib v3.7.1, https://matplotlib.org/</dc:title>
     </cc:Agent>
    </dc:creator>
   </cc:Work>
  </rdf:RDF>
 </metadata>
 <defs>
  <style type="text/css">*{stroke-linejoin: round; stroke-linecap: butt}</style>
 </defs>
 <g id="figure_1">
  <g id="patch_1">
   <path d="M 0 366.599844 
L 594.441719 366.599844 
L 594.441719 0 
L 0 0 
z
" style="fill: #ffffff"/>
  </g>
  <g id="axes_1">
   <g id="patch_2">
    <path d="M 29.241719 339.84 
L 587.241719 339.84 
L 587.241719 7.2 
L 29.241719 7.2 
z
" style="fill: #eaeaf2"/>
   </g>
   <g id="matplotlib.axis_1">
    <g id="xtick_1">
     <g id="line2d_1">
      <path d="M 86.38718 339.84 
L 86.38718 7.2 
" clip-path="url(#p89dc83f183)" style="fill: none; stroke: #ffffff; stroke-linecap: round"/>
     </g>
     <g id="text_1">
      <!-- −1.5 -->
      <g style="fill: #262626" transform="translate(75.529836 357.213594) scale(0.11 -0.11)">
       <defs>
        <path id="ArialMT-2212" d="M 3381 1997 
L 356 1997 
L 356 2522 
L 3381 2522 
L 3381 1997 
z
" transform="scale(0.015625)"/>
        <path id="ArialMT-31" d="M 2384 0 
L 1822 0 
L 1822 3584 
Q 1619 3391 1289 3197 
Q 959 3003 697 2906 
L 697 3450 
Q 1169 3672 1522 3987 
Q 1875 4303 2022 4600 
L 2384 4600 
L 2384 0 
z
" transform="scale(0.015625)"/>
        <path id="ArialMT-2e" d="M 581 0 
L 581 641 
L 1222 641 
L 1222 0 
L 581 0 
z
" transform="scale(0.015625)"/>
        <path id="ArialMT-35" d="M 266 1200 
L 856 1250 
Q 922 819 1161 601 
Q 1400 384 1738 384 
Q 2144 384 2425 690 
Q 2706 997 2706 1503 
Q 2706 1984 2436 2262 
Q 2166 2541 1728 2541 
Q 1456 2541 1237 2417 
Q 1019 2294 894 2097 
L 366 2166 
L 809 4519 
L 3088 4519 
L 3088 3981 
L 1259 3981 
L 1013 2750 
Q 1425 3038 1878 3038 
Q 2478 3038 2890 2622 
Q 3303 2206 3303 1553 
Q 3303 931 2941 478 
Q 2500 -78 1738 -78 
Q 1113 -78 717 272 
Q 322 622 266 1200 
z
" transform="scale(0.015625)"/>
       </defs>
       <use xlink:href="#ArialMT-2212"/>
       <use xlink:href="#ArialMT-31" x="58.398438"/>
       <use xlink:href="#ArialMT-2e" x="114.013672"/>
       <use xlink:href="#ArialMT-35" x="141.796875"/>
      </g>
     </g>
    </g>
    <g id="xtick_2">
     <g id="line2d_2">
      <path d="M 159.211329 339.84 
L 159.211329 7.2 
" clip-path="url(#p89dc83f183)" style="fill: none; stroke: #ffffff; stroke-linecap: round"/>
     </g>
     <g id="text_2">
      <!-- −1.0 -->
      <g style="fill: #262626" transform="translate(148.353985 357.213594) scale(0.11 -0.11)">
       <defs>
        <path id="ArialMT-30" d="M 266 2259 
Q 266 3072 433 3567 
Q 600 4063 929 4331 
Q 1259 4600 1759 4600 
Q 2128 4600 2406 4451 
Q 2684 4303 2865 4023 
Q 3047 3744 3150 3342 
Q 3253 2941 3253 2259 
Q 3253 1453 3087 958 
Q 2922 463 2592 192 
Q 2263 -78 1759 -78 
Q 1097 -78 719 397 
Q 266 969 266 2259 
z
M 844 2259 
Q 844 1131 1108 757 
Q 1372 384 1759 384 
Q 2147 384 2411 759 
Q 2675 1134 2675 2259 
Q 2675 3391 2411 3762 
Q 2147 4134 1753 4134 
Q 1366 4134 1134 3806 
Q 844 3388 844 2259 
z
" transform="scale(0.015625)"/>
       </defs>
       <use xlink:href="#ArialMT-2212"/>
       <use xlink:href="#ArialMT-31" x="58.398438"/>
       <use xlink:href="#ArialMT-2e" x="114.013672"/>
       <use xlink:href="#ArialMT-30" x="141.796875"/>
      </g>
     </g>
    </g>
    <g id="xtick_3">
     <g id="line2d_3">
      <path d="M 232.035478 339.84 
L 232.035478 7.2 
" clip-path="url(#p89dc83f183)" style="fill: none; stroke: #ffffff; stroke-linecap: round"/>
     </g>
     <g id="text_3">
      <!-- −0.5 -->
      <g style="fill: #262626" transform="translate(221.178134 357.213594) scale(0.11 -0.11)">
       <use xlink:href="#ArialMT-2212"/>
       <use xlink:href="#ArialMT-30" x="58.398438"/>
       <use xlink:href="#ArialMT-2e" x="114.013672"/>
       <use xlink:href="#ArialMT-35" x="141.796875"/>
      </g>
     </g>
    </g>
    <g id="xtick_4">
     <g id="line2d_4">
      <path d="M 304.859627 339.84 
L 304.859627 7.2 
" clip-path="url(#p89dc83f183)" style="fill: none; stroke: #ffffff; stroke-linecap: round"/>
     </g>
     <g id="text_4">
      <!-- 0.0 -->
      <g style="fill: #262626" transform="translate(297.214627 357.213594) scale(0.11 -0.11)">
       <use xlink:href="#ArialMT-30"/>
       <use xlink:href="#ArialMT-2e" x="55.615234"/>
       <use xlink:href="#ArialMT-30" x="83.398438"/>
      </g>
     </g>
    </g>
    <g id="xtick_5">
     <g id="line2d_5">
      <path d="M 377.683776 339.84 
L 377.683776 7.2 
" clip-path="url(#p89dc83f183)" style="fill: none; stroke: #ffffff; stroke-linecap: round"/>
     </g>
     <g id="text_5">
      <!-- 0.5 -->
      <g style="fill: #262626" transform="translate(370.038776 357.213594) scale(0.11 -0.11)">
       <use xlink:href="#ArialMT-30"/>
       <use xlink:href="#ArialMT-2e" x="55.615234"/>
       <use xlink:href="#ArialMT-35" x="83.398438"/>
      </g>
     </g>
    </g>
    <g id="xtick_6">
     <g id="line2d_6">
      <path d="M 450.507924 339.84 
L 450.507924 7.2 
" clip-path="url(#p89dc83f183)" style="fill: none; stroke: #ffffff; stroke-linecap: round"/>
     </g>
     <g id="text_6">
      <!-- 1.0 -->
      <g style="fill: #262626" transform="translate(442.862924 357.213594) scale(0.11 -0.11)">
       <use xlink:href="#ArialMT-31"/>
       <use xlink:href="#ArialMT-2e" x="55.615234"/>
       <use xlink:href="#ArialMT-30" x="83.398438"/>
      </g>
     </g>
    </g>
    <g id="xtick_7">
     <g id="line2d_7">
      <path d="M 523.332073 339.84 
L 523.332073 7.2 
" clip-path="url(#p89dc83f183)" style="fill: none; stroke: #ffffff; stroke-linecap: round"/>
     </g>
     <g id="text_7">
      <!-- 1.5 -->
      <g style="fill: #262626" transform="translate(515.687073 357.213594) scale(0.11 -0.11)">
       <use xlink:href="#ArialMT-31"/>
       <use xlink:href="#ArialMT-2e" x="55.615234"/>
       <use xlink:href="#ArialMT-35" x="83.398438"/>
      </g>
     </g>
    </g>
   </g>
   <g id="matplotlib.axis_2">
    <g id="ytick_1">
     <g id="line2d_8">
      <path d="M 29.241719 319.959681 
L 587.241719 319.959681 
" clip-path="url(#p89dc83f183)" style="fill: none; stroke: #ffffff; stroke-linecap: round"/>
     </g>
     <g id="text_8">
      <!-- −3 -->
      <g style="fill: #262626" transform="translate(7.2 323.896478) scale(0.11 -0.11)">
       <defs>
        <path id="ArialMT-33" d="M 269 1209 
L 831 1284 
Q 928 806 1161 595 
Q 1394 384 1728 384 
Q 2125 384 2398 659 
Q 2672 934 2672 1341 
Q 2672 1728 2419 1979 
Q 2166 2231 1775 2231 
Q 1616 2231 1378 2169 
L 1441 2663 
Q 1497 2656 1531 2656 
Q 1891 2656 2178 2843 
Q 2466 3031 2466 3422 
Q 2466 3731 2256 3934 
Q 2047 4138 1716 4138 
Q 1388 4138 1169 3931 
Q 950 3725 888 3313 
L 325 3413 
Q 428 3978 793 4289 
Q 1159 4600 1703 4600 
Q 2078 4600 2393 4439 
Q 2709 4278 2876 4000 
Q 3044 3722 3044 3409 
Q 3044 3113 2884 2869 
Q 2725 2625 2413 2481 
Q 2819 2388 3044 2092 
Q 3269 1797 3269 1353 
Q 3269 753 2831 336 
Q 2394 -81 1725 -81 
Q 1122 -81 723 278 
Q 325 638 269 1209 
z
" transform="scale(0.015625)"/>
       </defs>
       <use xlink:href="#ArialMT-2212"/>
       <use xlink:href="#ArialMT-33" x="58.398438"/>
      </g>
     </g>
    </g>
    <g id="ytick_2">
     <g id="line2d_9">
      <path d="M 29.241719 251.422249 
L 587.241719 251.422249 
" clip-path="url(#p89dc83f183)" style="fill: none; stroke: #ffffff; stroke-linecap: round"/>
     </g>
     <g id="text_9">
      <!-- −2 -->
      <g style="fill: #262626" transform="translate(7.2 255.359046) scale(0.11 -0.11)">
       <defs>
        <path id="ArialMT-32" d="M 3222 541 
L 3222 0 
L 194 0 
Q 188 203 259 391 
Q 375 700 629 1000 
Q 884 1300 1366 1694 
Q 2113 2306 2375 2664 
Q 2638 3022 2638 3341 
Q 2638 3675 2398 3904 
Q 2159 4134 1775 4134 
Q 1369 4134 1125 3890 
Q 881 3647 878 3216 
L 300 3275 
Q 359 3922 746 4261 
Q 1134 4600 1788 4600 
Q 2447 4600 2831 4234 
Q 3216 3869 3216 3328 
Q 3216 3053 3103 2787 
Q 2991 2522 2730 2228 
Q 2469 1934 1863 1422 
Q 1356 997 1212 845 
Q 1069 694 975 541 
L 3222 541 
z
" transform="scale(0.015625)"/>
       </defs>
       <use xlink:href="#ArialMT-2212"/>
       <use xlink:href="#ArialMT-32" x="58.398438"/>
      </g>
     </g>
    </g>
    <g id="ytick_3">
     <g id="line2d_10">
      <path d="M 29.241719 182.884817 
L 587.241719 182.884817 
" clip-path="url(#p89dc83f183)" style="fill: none; stroke: #ffffff; stroke-linecap: round"/>
     </g>
     <g id="text_10">
      <!-- −1 -->
      <g style="fill: #262626" transform="translate(7.2 186.821613) scale(0.11 -0.11)">
       <use xlink:href="#ArialMT-2212"/>
       <use xlink:href="#ArialMT-31" x="58.398438"/>
      </g>
     </g>
    </g>
    <g id="ytick_4">
     <g id="line2d_11">
      <path d="M 29.241719 114.347384 
L 587.241719 114.347384 
" clip-path="url(#p89dc83f183)" style="fill: none; stroke: #ffffff; stroke-linecap: round"/>
     </g>
     <g id="text_11">
      <!-- 0 -->
      <g style="fill: #262626" transform="translate(13.624688 118.284181) scale(0.11 -0.11)">
       <use xlink:href="#ArialMT-30"/>
      </g>
     </g>
    </g>
    <g id="ytick_5">
     <g id="line2d_12">
      <path d="M 29.241719 45.809952 
L 587.241719 45.809952 
" clip-path="url(#p89dc83f183)" style="fill: none; stroke: #ffffff; stroke-linecap: round"/>
     </g>
     <g id="text_12">
      <!-- 1 -->
      <g style="fill: #262626" transform="translate(13.624688 49.746749) scale(0.11 -0.11)">
       <use xlink:href="#ArialMT-31"/>
      </g>
     </g>
    </g>
   </g>
   <g id="line2d_13">
    <path d="M 54.605355 304.993876 
L 54.795279 304.486743 
L 66.269766 273.816278 
L 67.040046 271.752467 
L 86.375378 219.784722 
L 92.280145 204.074731 
L 93.500641 200.872344 
L 94.557857 198.119794 
L 99.252124 186.700071 
L 99.644786 185.949649 
L 105.156584 174.311622 
L 113.532268 157.525493 
L 114.615533 155.530656 
L 130.116642 122.926628 
L 132.868672 118.775345 
L 135.480538 115.467069 
L 136.608942 113.972434 
L 136.949914 113.515049 
L 139.792409 109.635154 
L 142.123452 106.400713 
L 144.71615 102.880693 
L 150.251198 95.856533 
L 152.033511 93.913881 
L 165.196296 79.984497 
L 168.956093 75.749494 
L 169.659965 74.946269 
L 190.222791 58.625977 
L 191.454994 57.961368 
L 202.51173 52.607773 
L 208.881209 49.984984 
L 211.50346 49.212464 
L 211.930965 49.116467 
L 215.728693 48.225913 
L 218.287902 47.728904 
L 225.416551 45.911295 
L 232.092056 44.613297 
L 246.516701 42.755479 
L 250.387658 42.569843 
L 266.919606 40.58439 
L 269.10508 40.1326 
L 269.809913 40.205101 
L 278.887359 41.184769 
L 285.821082 42.277128 
L 287.222062 42.744404 
L 288.737356 43.336072 
L 289.481829 43.618554 
L 295.103242 45.636055 
L 297.097404 46.568987 
L 300.506355 48.206712 
L 303.067308 49.16926 
L 306.23257 50.374915 
L 308.213548 51.188821 
L 310.510159 52.162042 
L 312.573144 53.029577 
L 316.623989 54.676307 
L 323.40776 56.556246 
L 325.176297 56.732372 
L 325.815327 56.824327 
L 327.519268 57.034947 
L 332.819562 59.351461 
L 350.490584 70.176716 
L 351.728946 70.653395 
L 363.763254 75.679629 
L 372.430498 80.324114 
L 378.781619 85.479517 
L 382.389233 88.528715 
L 382.673456 88.764845 
L 386.430933 91.810072 
L 388.139243 93.187118 
L 395.17388 98.80966 
L 403.076796 104.910718 
L 403.11719 104.947126 
L 405.734944 107.28094 
L 412.584576 113.372036 
L 413.085713 113.855268 
L 417.886542 118.29482 
L 422.538657 121.441309 
L 439.897205 132.00074 
L 452.985403 140.128619 
L 455.242791 141.488815 
L 464.903482 148.597868 
L 465.188956 148.830604 
L 466.994699 150.292631 
L 474.745393 156.425926 
L 478.332592 159.085102 
L 496.741545 172.908111 
L 498.144746 173.920819 
L 501.764208 176.666869 
L 509.305472 182.582994 
L 509.420451 182.669728 
L 509.43955 182.684111 
L 511.282914 184.029828 
L 511.458132 184.152469 
L 519.204279 190.191119 
L 536.327887 203.32846 
L 549.035582 212.888281 
L 549.862106 213.515162 
L 560.465897 221.634766 
L 561.350758 222.31887 
L 561.878082 222.726988 
" clip-path="url(#p89dc83f183)" style="fill: none; stroke: #ff6347; stroke-width: 1.5; stroke-linecap: round"/>
   </g>
   <g id="line2d_14">
    <defs>
     <path id="m66815b9178" d="M 0 1.5 
C 0.397805 1.5 0.77937 1.341951 1.06066 1.06066 
C 1.341951 0.77937 1.5 0.397805 1.5 0 
C 1.5 -0.397805 1.341951 -0.77937 1.06066 -1.06066 
C 0.77937 -1.341951 0.397805 -1.5 0 -1.5 
C -0.397805 -1.5 -0.77937 -1.341951 -1.06066 -1.06066 
C -1.341951 -0.77937 -1.5 -0.397805 -1.5 0 
C -1.5 0.397805 -1.341951 0.77937 -1.06066 1.06066 
C -0.77937 1.341951 -0.397805 1.5 0 1.5 
z
" style="stroke: #1a1a1a"/>
    </defs>
    <g clip-path="url(#p89dc83f183)">
     <use xlink:href="#m66815b9178" x="150.251198" y="120.873911" style="fill: #1a1a1a; stroke: #1a1a1a"/>
     <use xlink:href="#m66815b9178" x="363.763254" y="95.902068" style="fill: #1a1a1a; stroke: #1a1a1a"/>
     <use xlink:href="#m66815b9178" x="536.327887" y="195.103577" style="fill: #1a1a1a; stroke: #1a1a1a"/>
     <use xlink:href="#m66815b9178" x="285.821082" y="39.292604" style="fill: #1a1a1a; stroke: #1a1a1a"/>
     <use xlink:href="#m66815b9178" x="316.623989" y="64.980098" style="fill: #1a1a1a; stroke: #1a1a1a"/>
     <use xlink:href="#m66815b9178" x="308.213548" y="43.64939" style="fill: #1a1a1a; stroke: #1a1a1a"/>
     <use xlink:href="#m66815b9178" x="86.375378" y="225.162296" style="fill: #1a1a1a; stroke: #1a1a1a"/>
     <use xlink:href="#m66815b9178" x="306.23257" y="40.588763" style="fill: #1a1a1a; stroke: #1a1a1a"/>
     <use xlink:href="#m66815b9178" x="300.506355" y="60.646855" style="fill: #1a1a1a; stroke: #1a1a1a"/>
     <use xlink:href="#m66815b9178" x="93.500641" y="192.847997" style="fill: #1a1a1a; stroke: #1a1a1a"/>
     <use xlink:href="#m66815b9178" x="269.809913" y="44.893713" style="fill: #1a1a1a; stroke: #1a1a1a"/>
     <use xlink:href="#m66815b9178" x="287.222062" y="42.788307" style="fill: #1a1a1a; stroke: #1a1a1a"/>
     <use xlink:href="#m66815b9178" x="135.480538" y="117.376935" style="fill: #1a1a1a; stroke: #1a1a1a"/>
     <use xlink:href="#m66815b9178" x="215.728693" y="45.883455" style="fill: #1a1a1a; stroke: #1a1a1a"/>
     <use xlink:href="#m66815b9178" x="165.196296" y="63.989211" style="fill: #1a1a1a; stroke: #1a1a1a"/>
     <use xlink:href="#m66815b9178" x="501.764208" y="195.03529" style="fill: #1a1a1a; stroke: #1a1a1a"/>
     <use xlink:href="#m66815b9178" x="350.490584" y="41.405742" style="fill: #1a1a1a; stroke: #1a1a1a"/>
     <use xlink:href="#m66815b9178" x="232.092056" y="78.718542" style="fill: #1a1a1a; stroke: #1a1a1a"/>
     <use xlink:href="#m66815b9178" x="561.350758" y="217.007657" style="fill: #1a1a1a; stroke: #1a1a1a"/>
     <use xlink:href="#m66815b9178" x="225.416551" y="44.322964" style="fill: #1a1a1a; stroke: #1a1a1a"/>
     <use xlink:href="#m66815b9178" x="422.538657" y="103.646864" style="fill: #1a1a1a; stroke: #1a1a1a"/>
     <use xlink:href="#m66815b9178" x="403.11719" y="115.499843" style="fill: #1a1a1a; stroke: #1a1a1a"/>
     <use xlink:href="#m66815b9178" x="519.204279" y="172.764889" style="fill: #1a1a1a; stroke: #1a1a1a"/>
     <use xlink:href="#m66815b9178" x="478.332592" y="153.943966" style="fill: #1a1a1a; stroke: #1a1a1a"/>
     <use xlink:href="#m66815b9178" x="413.085713" y="123.198496" style="fill: #1a1a1a; stroke: #1a1a1a"/>
     <use xlink:href="#m66815b9178" x="378.781619" y="86.131228" style="fill: #1a1a1a; stroke: #1a1a1a"/>
     <use xlink:href="#m66815b9178" x="382.673456" y="63.396852" style="fill: #1a1a1a; stroke: #1a1a1a"/>
     <use xlink:href="#m66815b9178" x="139.792409" y="103.13731" style="fill: #1a1a1a; stroke: #1a1a1a"/>
     <use xlink:href="#m66815b9178" x="136.608942" y="116.25582" style="fill: #1a1a1a; stroke: #1a1a1a"/>
     <use xlink:href="#m66815b9178" x="382.389233" y="104.888922" style="fill: #1a1a1a; stroke: #1a1a1a"/>
     <use xlink:href="#m66815b9178" x="136.949914" y="105.804216" style="fill: #1a1a1a; stroke: #1a1a1a"/>
     <use xlink:href="#m66815b9178" x="466.994699" y="144.919597" style="fill: #1a1a1a; stroke: #1a1a1a"/>
     <use xlink:href="#m66815b9178" x="509.43955" y="196.145291" style="fill: #1a1a1a; stroke: #1a1a1a"/>
     <use xlink:href="#m66815b9178" x="250.387658" y="62.6372" style="fill: #1a1a1a; stroke: #1a1a1a"/>
     <use xlink:href="#m66815b9178" x="560.465897" y="245.183531" style="fill: #1a1a1a; stroke: #1a1a1a"/>
     <use xlink:href="#m66815b9178" x="465.188956" y="139.989196" style="fill: #1a1a1a; stroke: #1a1a1a"/>
     <use xlink:href="#m66815b9178" x="289.481829" y="46.364432" style="fill: #1a1a1a; stroke: #1a1a1a"/>
     <use xlink:href="#m66815b9178" x="388.139243" y="63.275305" style="fill: #1a1a1a; stroke: #1a1a1a"/>
     <use xlink:href="#m66815b9178" x="474.745393" y="159.247525" style="fill: #1a1a1a; stroke: #1a1a1a"/>
     <use xlink:href="#m66815b9178" x="496.741545" y="178.015806" style="fill: #1a1a1a; stroke: #1a1a1a"/>
     <use xlink:href="#m66815b9178" x="54.795279" y="324.72" style="fill: #1a1a1a; stroke: #1a1a1a"/>
     <use xlink:href="#m66815b9178" x="327.519268" y="61.879385" style="fill: #1a1a1a; stroke: #1a1a1a"/>
     <use xlink:href="#m66815b9178" x="509.305472" y="196.217" style="fill: #1a1a1a; stroke: #1a1a1a"/>
     <use xlink:href="#m66815b9178" x="297.097404" y="44.625276" style="fill: #1a1a1a; stroke: #1a1a1a"/>
     <use xlink:href="#m66815b9178" x="498.144746" y="169.779867" style="fill: #1a1a1a; stroke: #1a1a1a"/>
     <use xlink:href="#m66815b9178" x="303.067308" y="45.219186" style="fill: #1a1a1a; stroke: #1a1a1a"/>
     <use xlink:href="#m66815b9178" x="113.532268" y="130.49032" style="fill: #1a1a1a; stroke: #1a1a1a"/>
     <use xlink:href="#m66815b9178" x="99.644786" y="197.377249" style="fill: #1a1a1a; stroke: #1a1a1a"/>
     <use xlink:href="#m66815b9178" x="439.897205" y="146.177673" style="fill: #1a1a1a; stroke: #1a1a1a"/>
     <use xlink:href="#m66815b9178" x="218.287902" y="26.193162" style="fill: #1a1a1a; stroke: #1a1a1a"/>
     <use xlink:href="#m66815b9178" x="211.930965" y="62.451083" style="fill: #1a1a1a; stroke: #1a1a1a"/>
     <use xlink:href="#m66815b9178" x="395.17388" y="87.492872" style="fill: #1a1a1a; stroke: #1a1a1a"/>
     <use xlink:href="#m66815b9178" x="99.252124" y="175.93234" style="fill: #1a1a1a; stroke: #1a1a1a"/>
     <use xlink:href="#m66815b9178" x="312.573144" y="68.581948" style="fill: #1a1a1a; stroke: #1a1a1a"/>
     <use xlink:href="#m66815b9178" x="511.458132" y="172.318374" style="fill: #1a1a1a; stroke: #1a1a1a"/>
     <use xlink:href="#m66815b9178" x="509.420451" y="156.558245" style="fill: #1a1a1a; stroke: #1a1a1a"/>
     <use xlink:href="#m66815b9178" x="549.035582" y="216.516745" style="fill: #1a1a1a; stroke: #1a1a1a"/>
     <use xlink:href="#m66815b9178" x="191.454994" y="68.307137" style="fill: #1a1a1a; stroke: #1a1a1a"/>
     <use xlink:href="#m66815b9178" x="323.40776" y="55.473203" style="fill: #1a1a1a; stroke: #1a1a1a"/>
     <use xlink:href="#m66815b9178" x="455.242791" y="129.411054" style="fill: #1a1a1a; stroke: #1a1a1a"/>
     <use xlink:href="#m66815b9178" x="105.156584" y="162.125601" style="fill: #1a1a1a; stroke: #1a1a1a"/>
     <use xlink:href="#m66815b9178" x="561.878082" y="215.511964" style="fill: #1a1a1a; stroke: #1a1a1a"/>
     <use xlink:href="#m66815b9178" x="208.881209" y="46.458657" style="fill: #1a1a1a; stroke: #1a1a1a"/>
     <use xlink:href="#m66815b9178" x="144.71615" y="127.641943" style="fill: #1a1a1a; stroke: #1a1a1a"/>
     <use xlink:href="#m66815b9178" x="417.886542" y="111.720321" style="fill: #1a1a1a; stroke: #1a1a1a"/>
     <use xlink:href="#m66815b9178" x="169.659965" y="56.139526" style="fill: #1a1a1a; stroke: #1a1a1a"/>
     <use xlink:href="#m66815b9178" x="412.584576" y="123.061644" style="fill: #1a1a1a; stroke: #1a1a1a"/>
     <use xlink:href="#m66815b9178" x="266.919606" y="25.044247" style="fill: #1a1a1a; stroke: #1a1a1a"/>
     <use xlink:href="#m66815b9178" x="325.176297" y="32.772125" style="fill: #1a1a1a; stroke: #1a1a1a"/>
     <use xlink:href="#m66815b9178" x="168.956093" y="79.765009" style="fill: #1a1a1a; stroke: #1a1a1a"/>
     <use xlink:href="#m66815b9178" x="142.123452" y="86.595844" style="fill: #1a1a1a; stroke: #1a1a1a"/>
     <use xlink:href="#m66815b9178" x="325.815327" y="56.500796" style="fill: #1a1a1a; stroke: #1a1a1a"/>
     <use xlink:href="#m66815b9178" x="202.51173" y="43.21174" style="fill: #1a1a1a; stroke: #1a1a1a"/>
     <use xlink:href="#m66815b9178" x="386.430933" y="77.81617" style="fill: #1a1a1a; stroke: #1a1a1a"/>
     <use xlink:href="#m66815b9178" x="190.222791" y="51.201084" style="fill: #1a1a1a; stroke: #1a1a1a"/>
     <use xlink:href="#m66815b9178" x="67.040046" y="260.319867" style="fill: #1a1a1a; stroke: #1a1a1a"/>
     <use xlink:href="#m66815b9178" x="405.734944" y="123.57738" style="fill: #1a1a1a; stroke: #1a1a1a"/>
     <use xlink:href="#m66815b9178" x="295.103242" y="54.441247" style="fill: #1a1a1a; stroke: #1a1a1a"/>
     <use xlink:href="#m66815b9178" x="246.516701" y="22.32" style="fill: #1a1a1a; stroke: #1a1a1a"/>
     <use xlink:href="#m66815b9178" x="211.50346" y="40.019501" style="fill: #1a1a1a; stroke: #1a1a1a"/>
     <use xlink:href="#m66815b9178" x="452.985403" y="150.090569" style="fill: #1a1a1a; stroke: #1a1a1a"/>
     <use xlink:href="#m66815b9178" x="94.557857" y="204.744437" style="fill: #1a1a1a; stroke: #1a1a1a"/>
     <use xlink:href="#m66815b9178" x="66.269766" y="272.075453" style="fill: #1a1a1a; stroke: #1a1a1a"/>
     <use xlink:href="#m66815b9178" x="511.282914" y="197.276483" style="fill: #1a1a1a; stroke: #1a1a1a"/>
     <use xlink:href="#m66815b9178" x="152.033511" y="83.977456" style="fill: #1a1a1a; stroke: #1a1a1a"/>
     <use xlink:href="#m66815b9178" x="351.728946" y="63.830593" style="fill: #1a1a1a; stroke: #1a1a1a"/>
     <use xlink:href="#m66815b9178" x="132.868672" y="129.576629" style="fill: #1a1a1a; stroke: #1a1a1a"/>
     <use xlink:href="#m66815b9178" x="54.605355" y="293.909283" style="fill: #1a1a1a; stroke: #1a1a1a"/>
     <use xlink:href="#m66815b9178" x="92.280145" y="217.939695" style="fill: #1a1a1a; stroke: #1a1a1a"/>
     <use xlink:href="#m66815b9178" x="278.887359" y="36.432029" style="fill: #1a1a1a; stroke: #1a1a1a"/>
     <use xlink:href="#m66815b9178" x="269.10508" y="40.214797" style="fill: #1a1a1a; stroke: #1a1a1a"/>
     <use xlink:href="#m66815b9178" x="549.862106" y="213.667439" style="fill: #1a1a1a; stroke: #1a1a1a"/>
     <use xlink:href="#m66815b9178" x="403.076796" y="101.774121" style="fill: #1a1a1a; stroke: #1a1a1a"/>
     <use xlink:href="#m66815b9178" x="130.116642" y="127.021697" style="fill: #1a1a1a; stroke: #1a1a1a"/>
     <use xlink:href="#m66815b9178" x="310.510159" y="49.665647" style="fill: #1a1a1a; stroke: #1a1a1a"/>
     <use xlink:href="#m66815b9178" x="372.430498" y="91.810569" style="fill: #1a1a1a; stroke: #1a1a1a"/>
     <use xlink:href="#m66815b9178" x="114.615533" y="118.990239" style="fill: #1a1a1a; stroke: #1a1a1a"/>
     <use xlink:href="#m66815b9178" x="332.819562" y="72.529733" style="fill: #1a1a1a; stroke: #1a1a1a"/>
     <use xlink:href="#m66815b9178" x="288.737356" y="33.104746" style="fill: #1a1a1a; stroke: #1a1a1a"/>
     <use xlink:href="#m66815b9178" x="464.903482" y="149.224362" style="fill: #1a1a1a; stroke: #1a1a1a"/>
    </g>
   </g>
   <g id="patch_3">
    <path d="M 29.241719 339.84 
L 29.241719 7.2 
" style="fill: none; stroke: #ffffff; stroke-width: 1.25; stroke-linejoin: miter; stroke-linecap: square"/>
   </g>
   <g id="patch_4">
    <path d="M 587.241719 339.84 
L 587.241719 7.2 
" style="fill: none; stroke: #ffffff; stroke-width: 1.25; stroke-linejoin: miter; stroke-linecap: square"/>
   </g>
   <g id="patch_5">
    <path d="M 29.241719 339.84 
L 587.241719 339.84 
" style="fill: none; stroke: #ffffff; stroke-width: 1.25; stroke-linejoin: miter; stroke-linecap: square"/>
   </g>
   <g id="patch_6">
    <path d="M 29.241719 7.2 
L 587.241719 7.2 
" style="fill: none; stroke: #ffffff; stroke-width: 1.25; stroke-linejoin: miter; stroke-linecap: square"/>
   </g>
  </g>
 </g>
 <defs>
  <clipPath id="p89dc83f183">
   <rect x="29.241719" y="7.2" width="558" height="332.64"/>
  </clipPath>
 </defs>
</svg>