<?xml version="1.0" encoding="utf-8" standalone="no"?>
<!DOCTYPE svg PUBLIC "-//W3C//DTD SVG 1.1//EN"
  "http://www.w3.org/Graphics/SVG/1.1/DTD/svg11.dtd">
<svg xmlns:xlink="http://www.w3.org/1999/xlink" width="417.546915pt" height="351.99625pt" viewBox="0 0 417.546915 351.99625" xmlns="http://www.w3.org/2000/svg" version="1.1">
 <metadata>
  <rdf:RDF xmlns:dc="http://purl.org/dc/elements/1.1/" xmlns:cc="http://creativecommons.org/ns#" xmlns:rdf="http://www.w3.org/1999/02/22-rdf-syntax-ns#">
   <cc:Work>
    <dc:type rdf:resource="http://purl.org/dc/dcmitype/StillImage"/>
    <dc:date>2023-05-08T00:15:55.100545</dc:date>
    <dc:format>image/svg+xml</dc:format>
    <dc:creator>
     <cc:Agent>
      <dc:title>Matplotlib v3.7.1, https://matplotlib.org/</dc:title>
     </cc:Agent>
    </dc:creator>
   </cc:Work>
  </rdf:RDF>
 </metadata>
 <defs>
  <style type="text/css">*{stroke-linejoin: round; stroke-linecap: butt}</style>
 </defs>
 <g id="figure_1">
  <g id="patch_1">
   <path d="M 0 351.99625 
L 417.546915 351.99625 
L 417.546915 0 
L 0 0 
z
" style="fill: #ffffff"/>
  </g>
  <g id="axes_1">
   <g id="patch_2">
    <path d="M 53.60625 314.44 
L 340.481315 314.44 
L 340.481315 7.2 
L 53.60625 7.2 
z
" style="fill: #ffffff"/>
   </g>
   <g id="patch_3">
    <path d="M 101.418761 462.941464 
L 101.418761 462.941464 
L 101.418761 462.941464 
L 101.418761 462.941464 
z
" clip-path="url(#p080604cec4)" style="fill: #156590; stroke: #313131; stroke-width: 0.75; stroke-linejoin: miter"/>
   </g>
   <g id="PolyCollection_1">
    <defs>
     <path id="mbbdf5de731" d="M 101.418761 -92.695645 
L 101.203422 -92.695645 
L 101.124432 -94.078864 
L 101.022377 -95.462083 
L 100.892554 -96.845303 
L 100.729885 -98.228522 
L 100.529037 -99.611741 
L 100.284584 -100.99496 
L 99.991207 -102.378179 
L 99.643939 -103.761399 
L 99.238442 -105.144618 
L 98.77131 -106.527837 
L 98.240384 -107.911056 
L 97.645049 -109.294276 
L 96.986487 -110.677495 
L 96.267835 -112.060714 
L 95.494216 -113.443933 
L 94.672596 -114.827152 
L 93.811457 -116.210372 
L 92.920255 -117.593591 
L 92.008723 -118.97681 
L 91.086048 -120.360029 
L 90.160022 -121.743249 
L 89.236266 -123.126468 
L 88.317638 -124.509687 
L 87.403929 -125.892906 
L 86.491904 -127.276125 
L 85.575732 -128.659345 
L 84.647767 -130.042564 
L 83.69963 -131.425783 
L 82.723467 -132.809002 
L 81.71327 -134.192221 
L 80.666116 -135.575441 
L 79.583196 -136.95866 
L 78.470543 -138.341879 
L 77.339363 -139.725098 
L 76.205936 -141.108318 
L 75.091081 -142.491537 
L 74.019172 -143.874756 
L 73.016784 -145.257975 
L 72.111017 -146.641194 
L 71.327618 -148.024414 
L 70.689033 -149.407633 
L 70.212575 -150.790852 
L 69.908866 -152.174071 
L 69.780756 -153.557291 
L 69.822862 -154.94051 
L 70.02183 -156.323729 
L 70.357341 -157.706948 
L 70.80379 -159.090167 
L 71.3325 -160.473387 
L 71.914211 -161.856606 
L 72.52161 -163.239825 
L 73.131575 -164.623044 
L 73.726917 -166.006264 
L 74.297416 -167.389483 
L 74.84006 -168.772702 
L 75.3585 -170.155921 
L 75.861822 -171.53914 
L 76.36282 -172.92236 
L 76.876004 -174.305579 
L 77.415587 -175.688798 
L 77.993673 -177.072017 
L 78.618843 -178.455237 
L 79.295242 -179.838456 
L 80.022226 -181.221675 
L 80.79455 -182.604894 
L 81.603035 -183.988113 
L 82.435605 -185.371333 
L 83.278554 -186.754552 
L 84.117925 -188.137771 
L 84.940849 -189.52099 
L 85.73673 -190.90421 
L 86.49817 -192.287429 
L 87.221544 -193.670648 
L 87.907189 -195.053867 
L 88.559178 -196.437086 
L 89.184697 -197.820306 
L 89.793113 -199.203525 
L 90.394799 -200.586744 
L 90.99988 -201.969963 
L 91.617008 -203.353183 
L 92.252333 -204.736402 
L 92.908765 -206.119621 
L 93.585618 -207.50284 
L 94.27865 -208.886059 
L 94.980493 -210.269279 
L 95.681394 -211.652498 
L 96.370159 -213.035717 
L 97.035191 -214.418936 
L 97.665489 -215.802156 
L 98.251507 -217.185375 
L 98.785795 -218.568594 
L 99.263377 -219.951813 
L 99.681871 -221.335032 
L 100.041364 -222.718252 
L 100.344095 -224.101471 
L 100.594022 -225.48469 
L 100.796315 -226.867909 
L 100.956858 -228.251129 
L 101.081788 -229.634348 
L 101.418761 -229.634348 
L 101.418761 -229.634348 
L 101.418761 -228.251129 
L 101.418761 -226.867909 
L 101.418761 -225.48469 
L 101.418761 -224.101471 
L 101.418761 -222.718252 
L 101.418761 -221.335032 
L 101.418761 -219.951813 
L 101.418761 -218.568594 
L 101.418761 -217.185375 
L 101.418761 -215.802156 
L 101.418761 -214.418936 
L 101.418761 -213.035717 
L 101.418761 -211.652498 
L 101.418761 -210.269279 
L 101.418761 -208.886059 
L 101.418761 -207.50284 
L 101.418761 -206.119621 
L 101.418761 -204.736402 
L 101.418761 -203.353183 
L 101.418761 -201.969963 
L 101.418761 -200.586744 
L 101.418761 -199.203525 
L 101.418761 -197.820306 
L 101.418761 -196.437086 
L 101.418761 -195.053867 
L 101.418761 -193.670648 
L 101.418761 -192.287429 
L 101.418761 -190.90421 
L 101.418761 -189.52099 
L 101.418761 -188.137771 
L 101.418761 -186.754552 
L 101.418761 -185.371333 
L 101.418761 -183.988113 
L 101.418761 -182.604894 
L 101.418761 -181.221675 
L 101.418761 -179.838456 
L 101.418761 -178.455237 
L 101.418761 -177.072017 
L 101.418761 -175.688798 
L 101.418761 -174.305579 
L 101.418761 -172.92236 
L 101.418761 -171.53914 
L 101.418761 -170.155921 
L 101.418761 -168.772702 
L 101.418761 -167.389483 
L 101.418761 -166.006264 
L 101.418761 -164.623044 
L 101.418761 -163.239825 
L 101.418761 -161.856606 
L 101.418761 -160.473387 
L 101.418761 -159.090167 
L 101.418761 -157.706948 
L 101.418761 -156.323729 
L 101.418761 -154.94051 
L 101.418761 -153.557291 
L 101.418761 -152.174071 
L 101.418761 -150.790852 
L 101.418761 -149.407633 
L 101.418761 -148.024414 
L 101.418761 -146.641194 
L 101.418761 -145.257975 
L 101.418761 -143.874756 
L 101.418761 -142.491537 
L 101.418761 -141.108318 
L 101.418761 -139.725098 
L 101.418761 -138.341879 
L 101.418761 -136.95866 
L 101.418761 -135.575441 
L 101.418761 -134.192221 
L 101.418761 -132.809002 
L 101.418761 -131.425783 
L 101.418761 -130.042564 
L 101.418761 -128.659345 
L 101.418761 -127.276125 
L 101.418761 -125.892906 
L 101.418761 -124.509687 
L 101.418761 -123.126468 
L 101.418761 -121.743249 
L 101.418761 -120.360029 
L 101.418761 -118.97681 
L 101.418761 -117.593591 
L 101.418761 -116.210372 
L 101.418761 -114.827152 
L 101.418761 -113.443933 
L 101.418761 -112.060714 
L 101.418761 -110.677495 
L 101.418761 -109.294276 
L 101.418761 -107.911056 
L 101.418761 -106.527837 
L 101.418761 -105.144618 
L 101.418761 -103.761399 
L 101.418761 -102.378179 
L 101.418761 -100.99496 
L 101.418761 -99.611741 
L 101.418761 -98.228522 
L 101.418761 -96.845303 
L 101.418761 -95.462083 
L 101.418761 -94.078864 
L 101.418761 -92.695645 
z
" style="stroke: #313131; stroke-width: 1.5"/>
    </defs>
    <g clip-path="url(#p080604cec4)">
     <use xlink:href="#mbbdf5de731" x="0" y="351.99625" style="fill: #156590; stroke: #313131; stroke-width: 1.5"/>
    </g>
   </g>
   <g id="patch_4">
    <path d="M 101.418761 462.941464 
L 101.418761 462.941464 
L 101.418761 462.941464 
L 101.418761 462.941464 
z
" clip-path="url(#p080604cec4)" style="fill: #e1822c; stroke: #313131; stroke-width: 0.75; stroke-linejoin: miter"/>
   </g>
   <g id="PolyCollection_2">
    <defs>
     <path id="mdc6d81fb89" d="M 102.09008 -65.192846 
L 101.418761 -65.192846 
L 101.418761 -66.215481 
L 101.418761 -67.238116 
L 101.418761 -68.260752 
L 101.418761 -69.283387 
L 101.418761 -70.306022 
L 101.418761 -71.328658 
L 101.418761 -72.351293 
L 101.418761 -73.373928 
L 101.418761 -74.396564 
L 101.418761 -75.419199 
L 101.418761 -76.441834 
L 101.418761 -77.46447 
L 101.418761 -78.487105 
L 101.418761 -79.50974 
L 101.418761 -80.532376 
L 101.418761 -81.555011 
L 101.418761 -82.577646 
L 101.418761 -83.600282 
L 101.418761 -84.622917 
L 101.418761 -85.645552 
L 101.418761 -86.668188 
L 101.418761 -87.690823 
L 101.418761 -88.713458 
L 101.418761 -89.736094 
L 101.418761 -90.758729 
L 101.418761 -91.781364 
L 101.418761 -92.804 
L 101.418761 -93.826635 
L 101.418761 -94.84927 
L 101.418761 -95.871906 
L 101.418761 -96.894541 
L 101.418761 -97.917176 
L 101.418761 -98.939812 
L 101.418761 -99.962447 
L 101.418761 -100.985082 
L 101.418761 -102.007718 
L 101.418761 -103.030353 
L 101.418761 -104.052988 
L 101.418761 -105.075624 
L 101.418761 -106.098259 
L 101.418761 -107.120894 
L 101.418761 -108.14353 
L 101.418761 -109.166165 
L 101.418761 -110.1888 
L 101.418761 -111.211436 
L 101.418761 -112.234071 
L 101.418761 -113.256706 
L 101.418761 -114.279342 
L 101.418761 -115.301977 
L 101.418761 -116.324612 
L 101.418761 -117.347248 
L 101.418761 -118.369883 
L 101.418761 -119.392518 
L 101.418761 -120.415154 
L 101.418761 -121.437789 
L 101.418761 -122.460424 
L 101.418761 -123.48306 
L 101.418761 -124.505695 
L 101.418761 -125.52833 
L 101.418761 -126.550966 
L 101.418761 -127.573601 
L 101.418761 -128.596236 
L 101.418761 -129.618872 
L 101.418761 -130.641507 
L 101.418761 -131.664142 
L 101.418761 -132.686778 
L 101.418761 -133.709413 
L 101.418761 -134.732048 
L 101.418761 -135.754684 
L 101.418761 -136.777319 
L 101.418761 -137.799954 
L 101.418761 -138.82259 
L 101.418761 -139.845225 
L 101.418761 -140.86786 
L 101.418761 -141.890496 
L 101.418761 -142.913131 
L 101.418761 -143.935766 
L 101.418761 -144.958402 
L 101.418761 -145.981037 
L 101.418761 -147.003672 
L 101.418761 -148.026308 
L 101.418761 -149.048943 
L 101.418761 -150.071578 
L 101.418761 -151.094214 
L 101.418761 -152.116849 
L 101.418761 -153.139484 
L 101.418761 -154.16212 
L 101.418761 -155.184755 
L 101.418761 -156.20739 
L 101.418761 -157.230025 
L 101.418761 -158.252661 
L 101.418761 -159.275296 
L 101.418761 -160.297931 
L 101.418761 -161.320567 
L 101.418761 -162.343202 
L 101.418761 -163.365837 
L 101.418761 -164.388473 
L 101.418761 -165.411108 
L 101.418761 -166.433743 
L 101.763456 -166.433743 
L 101.763456 -166.433743 
L 101.889092 -165.411108 
L 102.051814 -164.388473 
L 102.259432 -163.365837 
L 102.520404 -162.343202 
L 102.843588 -161.320567 
L 103.237895 -160.297931 
L 103.711854 -159.275296 
L 104.2731 -158.252661 
L 104.927798 -157.230025 
L 105.680056 -156.20739 
L 106.531361 -155.184755 
L 107.480093 -154.16212 
L 108.521182 -153.139484 
L 109.645957 -152.116849 
L 110.842234 -151.094214 
L 112.09468 -150.071578 
L 113.385452 -149.048943 
L 114.695095 -148.026308 
L 116.003651 -147.003672 
L 117.291898 -145.981037 
L 118.542617 -144.958402 
L 119.741781 -143.935766 
L 120.879536 -142.913131 
L 121.95088 -141.890496 
L 122.955946 -140.86786 
L 123.899851 -139.845225 
L 124.792094 -138.82259 
L 125.645555 -137.799954 
L 126.475165 -136.777319 
L 127.296384 -135.754684 
L 128.123603 -134.732048 
L 128.96865 -133.709413 
L 129.839517 -132.686778 
L 130.739439 -131.664142 
L 131.666405 -130.641507 
L 132.613134 -129.618872 
L 133.567512 -128.596236 
L 134.513439 -127.573601 
L 135.431995 -126.550966 
L 136.302816 -125.52833 
L 137.105552 -124.505695 
L 137.821285 -123.48306 
L 138.433793 -122.460424 
L 138.930556 -121.437789 
L 139.303451 -120.415154 
L 139.549086 -119.392518 
L 139.66877 -118.369883 
L 139.668133 -117.347248 
L 139.556462 -116.324612 
L 139.345784 -115.301977 
L 139.04982 -114.279342 
L 138.682862 -113.256706 
L 138.258695 -112.234071 
L 137.789627 -111.211436 
L 137.285725 -110.1888 
L 136.754306 -109.166165 
L 136.199716 -108.14353 
L 135.623417 -107.120894 
L 135.024357 -106.098259 
L 134.399575 -105.075624 
L 133.74497 -104.052988 
L 133.056146 -103.030353 
L 132.329245 -102.007718 
L 131.561659 -100.985082 
L 130.752566 -99.962447 
L 129.903222 -98.939812 
L 129.016982 -97.917176 
L 128.099065 -96.894541 
L 127.156084 -95.871906 
L 126.195397 -94.84927 
L 125.224374 -93.826635 
L 124.249639 -92.804 
L 123.276403 -91.781364 
L 122.307953 -90.758729 
L 121.345387 -89.736094 
L 120.38761 -88.713458 
L 119.431642 -87.690823 
L 118.473181 -86.668188 
L 117.507388 -85.645552 
L 116.529785 -84.622917 
L 115.537178 -83.600282 
L 114.528455 -82.577646 
L 113.505186 -81.555011 
L 112.471917 -80.532376 
L 111.436123 -79.50974 
L 110.407823 -78.487105 
L 109.398901 -77.46447 
L 108.422222 -76.441834 
L 107.49064 -75.419199 
L 106.61603 -74.396564 
L 105.808438 -73.373928 
L 105.075445 -72.351293 
L 104.421776 -71.328658 
L 103.849197 -70.306022 
L 103.356653 -69.283387 
L 102.940618 -68.260752 
L 102.59559 -67.238116 
L 102.314657 -66.215481 
L 102.09008 -65.192846 
z
" style="stroke: #313131; stroke-width: 1.5"/>
    </defs>
    <g clip-path="url(#p080604cec4)">
     <use xlink:href="#mdc6d81fb89" x="0" y="351.99625" style="fill: #e1822c; stroke: #313131; stroke-width: 1.5"/>
    </g>
   </g>
   <g id="PolyCollection_3">
    <defs>
     <path id="m33552dafc5" d="M 197.043783 -189.70293 
L 196.847724 -189.70293 
L 196.776631 -191.128464 
L 196.687136 -192.553998 
L 196.576925 -193.979532 
L 196.443943 -195.405066 
L 196.2864 -196.8306 
L 196.102662 -198.256134 
L 195.891022 -199.681668 
L 195.64936 -201.107202 
L 195.374752 -202.532736 
L 195.063103 -203.95827 
L 194.708912 -205.383804 
L 194.305282 -206.809338 
L 193.844246 -208.234872 
L 193.317467 -209.660406 
L 192.717245 -211.08594 
L 192.037739 -212.511474 
L 191.276194 -213.937008 
L 190.433956 -215.362542 
L 189.517037 -216.788076 
L 188.536048 -218.21361 
L 187.505429 -219.639144 
L 186.442005 -221.064678 
L 185.363061 -222.490212 
L 184.284227 -223.915746 
L 183.217511 -225.34128 
L 182.169863 -226.766814 
L 181.142509 -228.192348 
L 180.131235 -229.617882 
L 179.127576 -231.043416 
L 178.120717 -232.46895 
L 177.099801 -233.894484 
L 176.05621 -235.320018 
L 174.985462 -236.745552 
L 173.888392 -238.171086 
L 172.771458 -239.59662 
L 171.646184 -241.022154 
L 170.527911 -242.447688 
L 169.434145 -243.873222 
L 168.382851 -245.298756 
L 167.391023 -246.72429 
L 166.473747 -248.149824 
L 165.643871 -249.575358 
L 164.912205 -251.000892 
L 164.288103 -252.426426 
L 163.780146 -253.85196 
L 163.396697 -255.277494 
L 163.146122 -256.703028 
L 163.036572 -258.128562 
L 163.075364 -259.554096 
L 163.268075 -260.97963 
L 163.61754 -262.405164 
L 164.122966 -263.830698 
L 164.779319 -265.256232 
L 165.577111 -266.681766 
L 166.50261 -268.1073 
L 167.538438 -269.532834 
L 168.664485 -270.958368 
L 169.859029 -272.383902 
L 171.09996 -273.809436 
L 172.366024 -275.23497 
L 173.637976 -276.660504 
L 174.899595 -278.086038 
L 176.138453 -279.511572 
L 177.346385 -280.937106 
L 178.519576 -282.36264 
L 179.658226 -283.788174 
L 180.765784 -285.213708 
L 181.847806 -286.639242 
L 182.910545 -288.064776 
L 183.959436 -289.49031 
L 184.997696 -290.915844 
L 186.025248 -292.341378 
L 187.038141 -293.766912 
L 188.028591 -295.192446 
L 188.985665 -296.61798 
L 189.896501 -298.043514 
L 190.747899 -299.469048 
L 191.528029 -300.894582 
L 192.227981 -302.320116 
L 192.842915 -303.74565 
L 193.372646 -305.171184 
L 193.821585 -306.596718 
L 194.19807 -308.022252 
L 194.513236 -309.447786 
L 194.779608 -310.87332 
L 195.009667 -312.298854 
L 195.214584 -313.724388 
L 195.403301 -315.149922 
L 195.582035 -316.575456 
L 195.75423 -318.00099 
L 195.920871 -319.426524 
L 196.081075 -320.852058 
L 196.232802 -322.277592 
L 196.373569 -323.703125 
L 196.501051 -325.128659 
L 196.613516 -326.554193 
L 196.710065 -327.979727 
L 196.790681 -329.405261 
L 196.856142 -330.830795 
L 197.043783 -330.830795 
L 197.043783 -330.830795 
L 197.043783 -329.405261 
L 197.043783 -327.979727 
L 197.043783 -326.554193 
L 197.043783 -325.128659 
L 197.043783 -323.703125 
L 197.043783 -322.277592 
L 197.043783 -320.852058 
L 197.043783 -319.426524 
L 197.043783 -318.00099 
L 197.043783 -316.575456 
L 197.043783 -315.149922 
L 197.043783 -313.724388 
L 197.043783 -312.298854 
L 197.043783 -310.87332 
L 197.043783 -309.447786 
L 197.043783 -308.022252 
L 197.043783 -306.596718 
L 197.043783 -305.171184 
L 197.043783 -303.74565 
L 197.043783 -302.320116 
L 197.043783 -300.894582 
L 197.043783 -299.469048 
L 197.043783 -298.043514 
L 197.043783 -296.61798 
L 197.043783 -295.192446 
L 197.043783 -293.766912 
L 197.043783 -292.341378 
L 197.043783 -290.915844 
L 197.043783 -289.49031 
L 197.043783 -288.064776 
L 197.043783 -286.639242 
L 197.043783 -285.213708 
L 197.043783 -283.788174 
L 197.043783 -282.36264 
L 197.043783 -280.937106 
L 197.043783 -279.511572 
L 197.043783 -278.086038 
L 197.043783 -276.660504 
L 197.043783 -275.23497 
L 197.043783 -273.809436 
L 197.043783 -272.383902 
L 197.043783 -270.958368 
L 197.043783 -269.532834 
L 197.043783 -268.1073 
L 197.043783 -266.681766 
L 197.043783 -265.256232 
L 197.043783 -263.830698 
L 197.043783 -262.405164 
L 197.043783 -260.97963 
L 197.043783 -259.554096 
L 197.043783 -258.128562 
L 197.043783 -256.703028 
L 197.043783 -255.277494 
L 197.043783 -253.85196 
L 197.043783 -252.426426 
L 197.043783 -251.000892 
L 197.043783 -249.575358 
L 197.043783 -248.149824 
L 197.043783 -246.72429 
L 197.043783 -245.298756 
L 197.043783 -243.873222 
L 197.043783 -242.447688 
L 197.043783 -241.022154 
L 197.043783 -239.59662 
L 197.043783 -238.171086 
L 197.043783 -236.745552 
L 197.043783 -235.320018 
L 197.043783 -233.894484 
L 197.043783 -232.46895 
L 197.043783 -231.043416 
L 197.043783 -229.617882 
L 197.043783 -228.192348 
L 197.043783 -226.766814 
L 197.043783 -225.34128 
L 197.043783 -223.915746 
L 197.043783 -222.490212 
L 197.043783 -221.064678 
L 197.043783 -219.639144 
L 197.043783 -218.21361 
L 197.043783 -216.788076 
L 197.043783 -215.362542 
L 197.043783 -213.937008 
L 197.043783 -212.511474 
L 197.043783 -211.08594 
L 197.043783 -209.660406 
L 197.043783 -208.234872 
L 197.043783 -206.809338 
L 197.043783 -205.383804 
L 197.043783 -203.95827 
L 197.043783 -202.532736 
L 197.043783 -201.107202 
L 197.043783 -199.681668 
L 197.043783 -198.256134 
L 197.043783 -196.8306 
L 197.043783 -195.405066 
L 197.043783 -193.979532 
L 197.043783 -192.553998 
L 197.043783 -191.128464 
L 197.043783 -189.70293 
z
" style="stroke: #313131; stroke-width: 1.5"/>
    </defs>
    <g clip-path="url(#p080604cec4)">
     <use xlink:href="#m33552dafc5" x="0" y="351.99625" style="fill: #156590; stroke: #313131; stroke-width: 1.5"/>
    </g>
   </g>
   <g id="PolyCollection_4">
    <defs>
     <path id="mf2bfad3cea" d="M 197.263424 -137.649161 
L 197.043783 -137.649161 
L 197.043783 -138.836826 
L 197.043783 -140.02449 
L 197.043783 -141.212154 
L 197.043783 -142.399818 
L 197.043783 -143.587483 
L 197.043783 -144.775147 
L 197.043783 -145.962811 
L 197.043783 -147.150475 
L 197.043783 -148.33814 
L 197.043783 -149.525804 
L 197.043783 -150.713468 
L 197.043783 -151.901132 
L 197.043783 -153.088797 
L 197.043783 -154.276461 
L 197.043783 -155.464125 
L 197.043783 -156.651789 
L 197.043783 -157.839454 
L 197.043783 -159.027118 
L 197.043783 -160.214782 
L 197.043783 -161.402447 
L 197.043783 -162.590111 
L 197.043783 -163.777775 
L 197.043783 -164.965439 
L 197.043783 -166.153104 
L 197.043783 -167.340768 
L 197.043783 -168.528432 
L 197.043783 -169.716096 
L 197.043783 -170.903761 
L 197.043783 -172.091425 
L 197.043783 -173.279089 
L 197.043783 -174.466753 
L 197.043783 -175.654418 
L 197.043783 -176.842082 
L 197.043783 -178.029746 
L 197.043783 -179.21741 
L 197.043783 -180.405075 
L 197.043783 -181.592739 
L 197.043783 -182.780403 
L 197.043783 -183.968067 
L 197.043783 -185.155732 
L 197.043783 -186.343396 
L 197.043783 -187.53106 
L 197.043783 -188.718724 
L 197.043783 -189.906389 
L 197.043783 -191.094053 
L 197.043783 -192.281717 
L 197.043783 -193.469381 
L 197.043783 -194.657046 
L 197.043783 -195.84471 
L 197.043783 -197.032374 
L 197.043783 -198.220038 
L 197.043783 -199.407703 
L 197.043783 -200.595367 
L 197.043783 -201.783031 
L 197.043783 -202.970695 
L 197.043783 -204.15836 
L 197.043783 -205.346024 
L 197.043783 -206.533688 
L 197.043783 -207.721352 
L 197.043783 -208.909017 
L 197.043783 -210.096681 
L 197.043783 -211.284345 
L 197.043783 -212.472009 
L 197.043783 -213.659674 
L 197.043783 -214.847338 
L 197.043783 -216.035002 
L 197.043783 -217.222666 
L 197.043783 -218.410331 
L 197.043783 -219.597995 
L 197.043783 -220.785659 
L 197.043783 -221.973324 
L 197.043783 -223.160988 
L 197.043783 -224.348652 
L 197.043783 -225.536316 
L 197.043783 -226.723981 
L 197.043783 -227.911645 
L 197.043783 -229.099309 
L 197.043783 -230.286973 
L 197.043783 -231.474638 
L 197.043783 -232.662302 
L 197.043783 -233.849966 
L 197.043783 -235.03763 
L 197.043783 -236.225295 
L 197.043783 -237.412959 
L 197.043783 -238.600623 
L 197.043783 -239.788287 
L 197.043783 -240.975952 
L 197.043783 -242.163616 
L 197.043783 -243.35128 
L 197.043783 -244.538944 
L 197.043783 -245.726609 
L 197.043783 -246.914273 
L 197.043783 -248.101937 
L 197.043783 -249.289601 
L 197.043783 -250.477266 
L 197.043783 -251.66493 
L 197.043783 -252.852594 
L 197.043783 -254.040258 
L 197.043783 -255.227923 
L 197.615584 -255.227923 
L 197.615584 -255.227923 
L 197.812722 -254.040258 
L 198.059964 -252.852594 
L 198.363991 -251.66493 
L 198.730695 -250.477266 
L 199.164765 -249.289601 
L 199.669354 -248.101937 
L 200.245891 -246.914273 
L 200.894086 -245.726609 
L 201.612139 -244.538944 
L 202.397161 -243.35128 
L 203.245748 -242.163616 
L 204.154616 -240.975952 
L 205.121215 -239.788287 
L 206.144167 -238.600623 
L 207.223458 -237.412959 
L 208.360305 -236.225295 
L 209.556671 -235.03763 
L 210.814496 -233.849966 
L 212.13473 -232.662302 
L 213.516324 -231.474638 
L 214.955335 -230.286973 
L 216.444319 -229.099309 
L 217.972118 -227.911645 
L 219.524107 -226.723981 
L 221.082889 -225.536316 
L 222.629347 -224.348652 
L 224.14391 -223.160988 
L 225.607843 -221.973324 
L 227.004357 -220.785659 
L 228.319385 -219.597995 
L 229.541888 -218.410331 
L 230.663656 -217.222666 
L 231.678652 -216.035002 
L 232.582021 -214.847338 
L 233.368953 -213.659674 
L 234.033644 -212.472009 
L 234.568577 -211.284345 
L 234.964302 -210.096681 
L 235.209855 -208.909017 
L 235.293791 -207.721352 
L 235.205765 -206.533688 
L 234.938427 -205.346024 
L 234.489369 -204.15836 
L 233.862795 -202.970695 
L 233.070617 -201.783031 
L 232.132731 -200.595367 
L 231.076354 -199.407703 
L 229.934411 -198.220038 
L 228.74314 -197.032374 
L 227.539163 -195.84471 
L 226.356411 -194.657046 
L 225.22328 -193.469381 
L 224.160402 -192.281717 
L 223.179312 -191.094053 
L 222.282164 -189.906389 
L 221.4625 -188.718724 
L 220.706918 -187.53106 
L 219.997351 -186.343396 
L 219.313621 -185.155732 
L 218.635888 -183.968067 
L 217.946685 -182.780403 
L 217.23232 -181.592739 
L 216.483562 -180.405075 
L 215.695649 -179.21741 
L 214.867771 -178.029746 
L 214.002244 -176.842082 
L 213.103609 -175.654418 
L 212.177843 -174.466753 
L 211.231809 -173.279089 
L 210.272977 -172.091425 
L 209.309368 -170.903761 
L 208.349612 -169.716096 
L 207.402982 -168.528432 
L 206.4793 -167.340768 
L 205.588631 -166.153104 
L 204.740768 -164.965439 
L 203.944562 -163.777775 
L 203.207202 -162.590111 
L 202.533582 -161.402447 
L 201.925868 -160.214782 
L 201.383361 -159.027118 
L 200.90268 -157.839454 
L 200.478254 -156.651789 
L 200.103031 -155.464125 
L 199.7693 -154.276461 
L 199.469504 -153.088797 
L 199.19693 -151.901132 
L 198.946191 -150.713468 
L 198.713463 -149.525804 
L 198.496485 -148.33814 
L 198.294346 -147.150475 
L 198.107144 -145.962811 
L 197.935572 -144.775147 
L 197.780519 -143.587483 
L 197.642727 -142.399818 
L 197.52255 -141.212154 
L 197.419825 -140.02449 
L 197.333847 -138.836826 
L 197.263424 -137.649161 
z
" style="stroke: #313131; stroke-width: 1.5"/>
    </defs>
    <g clip-path="url(#p080604cec4)">
     <use xlink:href="#mf2bfad3cea" x="0" y="351.99625" style="fill: #e1822c; stroke: #313131; stroke-width: 1.5"/>
    </g>
   </g>
   <g id="PolyCollection_5">
    <defs>
     <path id="mb97f5b355c" d="M 292.668804 -83.376873 
L 292.24383 -83.376873 
L 292.109738 -84.914417 
L 291.94393 -86.451961 
L 291.742307 -87.989505 
L 291.501194 -89.527049 
L 291.2176 -91.064593 
L 290.889493 -92.602137 
L 290.516021 -94.139681 
L 290.097676 -95.677225 
L 289.636368 -97.214769 
L 289.135374 -98.752313 
L 288.599163 -100.289857 
L 288.033089 -101.827401 
L 287.442972 -103.364945 
L 286.834589 -104.902489 
L 286.213131 -106.440034 
L 285.582657 -107.977578 
L 284.945629 -109.515122 
L 284.302559 -111.052666 
L 283.651836 -112.59021 
L 282.989749 -114.127754 
L 282.310742 -115.665298 
L 281.607888 -117.202842 
L 280.873541 -118.740386 
L 280.10015 -120.27793 
L 279.28113 -121.815474 
L 278.411737 -123.353018 
L 277.48985 -124.890562 
L 276.516571 -126.428106 
L 275.496592 -127.96565 
L 274.43826 -129.503194 
L 273.353342 -131.040739 
L 272.256493 -132.578283 
L 271.164492 -134.115827 
L 270.095315 -135.653371 
L 269.06716 -137.190915 
L 268.097532 -138.728459 
L 267.202472 -140.266003 
L 266.396035 -141.803547 
L 265.690027 -143.341091 
L 265.094011 -144.878635 
L 264.61552 -146.416179 
L 264.260396 -147.953723 
L 264.033152 -149.491267 
L 263.937234 -151.028811 
L 263.97511 -152.566355 
L 264.148135 -154.103899 
L 264.456191 -155.641443 
L 264.897147 -157.178988 
L 265.466263 -158.716532 
L 266.155627 -160.254076 
L 266.953791 -161.79162 
L 267.845697 -163.329164 
L 268.812976 -164.866708 
L 269.834643 -166.404252 
L 270.88814 -167.941796 
L 271.950638 -169.47934 
L 273.000465 -171.016884 
L 274.018492 -172.554428 
L 274.989327 -174.091972 
L 275.902178 -175.629516 
L 276.751301 -177.16706 
L 277.535979 -178.704604 
L 278.260048 -180.242148 
L 278.931056 -181.779693 
L 279.559126 -183.317237 
L 280.155682 -184.854781 
L 280.73217 -186.392325 
L 281.2989 -187.929869 
L 281.864117 -189.467413 
L 282.433391 -191.004957 
L 283.009344 -192.542501 
L 283.591717 -194.080045 
L 284.177741 -195.617589 
L 284.762735 -197.155133 
L 285.34084 -198.692677 
L 285.905797 -200.230221 
L 286.451665 -201.767765 
L 286.973418 -203.305309 
L 287.467347 -204.842853 
L 287.931258 -206.380398 
L 288.36446 -207.917942 
L 288.767573 -209.455486 
L 289.142216 -210.99303 
L 289.49061 -212.530574 
L 289.815195 -214.068118 
L 290.118273 -215.605662 
L 290.401751 -217.143206 
L 290.666988 -218.68075 
L 290.914753 -220.218294 
L 291.145284 -221.755838 
L 291.358422 -223.293382 
L 291.553784 -224.830926 
L 291.730954 -226.36847 
L 291.889647 -227.906014 
L 292.029843 -229.443558 
L 292.151867 -230.981102 
L 292.256413 -232.518647 
L 292.344529 -234.056191 
L 292.417554 -235.593735 
L 292.668804 -235.593735 
L 292.668804 -235.593735 
L 292.668804 -234.056191 
L 292.668804 -232.518647 
L 292.668804 -230.981102 
L 292.668804 -229.443558 
L 292.668804 -227.906014 
L 292.668804 -226.36847 
L 292.668804 -224.830926 
L 292.668804 -223.293382 
L 292.668804 -221.755838 
L 292.668804 -220.218294 
L 292.668804 -218.68075 
L 292.668804 -217.143206 
L 292.668804 -215.605662 
L 292.668804 -214.068118 
L 292.668804 -212.530574 
L 292.668804 -210.99303 
L 292.668804 -209.455486 
L 292.668804 -207.917942 
L 292.668804 -206.380398 
L 292.668804 -204.842853 
L 292.668804 -203.305309 
L 292.668804 -201.767765 
L 292.668804 -200.230221 
L 292.668804 -198.692677 
L 292.668804 -197.155133 
L 292.668804 -195.617589 
L 292.668804 -194.080045 
L 292.668804 -192.542501 
L 292.668804 -191.004957 
L 292.668804 -189.467413 
L 292.668804 -187.929869 
L 292.668804 -186.392325 
L 292.668804 -184.854781 
L 292.668804 -183.317237 
L 292.668804 -181.779693 
L 292.668804 -180.242148 
L 292.668804 -178.704604 
L 292.668804 -177.16706 
L 292.668804 -175.629516 
L 292.668804 -174.091972 
L 292.668804 -172.554428 
L 292.668804 -171.016884 
L 292.668804 -169.47934 
L 292.668804 -167.941796 
L 292.668804 -166.404252 
L 292.668804 -164.866708 
L 292.668804 -163.329164 
L 292.668804 -161.79162 
L 292.668804 -160.254076 
L 292.668804 -158.716532 
L 292.668804 -157.178988 
L 292.668804 -155.641443 
L 292.668804 -154.103899 
L 292.668804 -152.566355 
L 292.668804 -151.028811 
L 292.668804 -149.491267 
L 292.668804 -147.953723 
L 292.668804 -146.416179 
L 292.668804 -144.878635 
L 292.668804 -143.341091 
L 292.668804 -141.803547 
L 292.668804 -140.266003 
L 292.668804 -138.728459 
L 292.668804 -137.190915 
L 292.668804 -135.653371 
L 292.668804 -134.115827 
L 292.668804 -132.578283 
L 292.668804 -131.040739 
L 292.668804 -129.503194 
L 292.668804 -127.96565 
L 292.668804 -126.428106 
L 292.668804 -124.890562 
L 292.668804 -123.353018 
L 292.668804 -121.815474 
L 292.668804 -120.27793 
L 292.668804 -118.740386 
L 292.668804 -117.202842 
L 292.668804 -115.665298 
L 292.668804 -114.127754 
L 292.668804 -112.59021 
L 292.668804 -111.052666 
L 292.668804 -109.515122 
L 292.668804 -107.977578 
L 292.668804 -106.440034 
L 292.668804 -104.902489 
L 292.668804 -103.364945 
L 292.668804 -101.827401 
L 292.668804 -100.289857 
L 292.668804 -98.752313 
L 292.668804 -97.214769 
L 292.668804 -95.677225 
L 292.668804 -94.139681 
L 292.668804 -92.602137 
L 292.668804 -91.064593 
L 292.668804 -89.527049 
L 292.668804 -87.989505 
L 292.668804 -86.451961 
L 292.668804 -84.914417 
L 292.668804 -83.376873 
z
" style="stroke: #313131; stroke-width: 1.5"/>
    </defs>
    <g clip-path="url(#p080604cec4)">
     <use xlink:href="#mb97f5b355c" x="0" y="351.99625" style="fill: #156590; stroke: #313131; stroke-width: 1.5"/>
    </g>
   </g>
   <g id="PolyCollection_6">
    <defs>
     <path id="m7b25488bae" d="M 292.983306 -51.521705 
L 292.668804 -51.521705 
L 292.668804 -52.888391 
L 292.668804 -54.255077 
L 292.668804 -55.621764 
L 292.668804 -56.98845 
L 292.668804 -58.355136 
L 292.668804 -59.721823 
L 292.668804 -61.088509 
L 292.668804 -62.455196 
L 292.668804 -63.821882 
L 292.668804 -65.188568 
L 292.668804 -66.555255 
L 292.668804 -67.921941 
L 292.668804 -69.288627 
L 292.668804 -70.655314 
L 292.668804 -72.022 
L 292.668804 -73.388686 
L 292.668804 -74.755373 
L 292.668804 -76.122059 
L 292.668804 -77.488746 
L 292.668804 -78.855432 
L 292.668804 -80.222118 
L 292.668804 -81.588805 
L 292.668804 -82.955491 
L 292.668804 -84.322177 
L 292.668804 -85.688864 
L 292.668804 -87.05555 
L 292.668804 -88.422237 
L 292.668804 -89.788923 
L 292.668804 -91.155609 
L 292.668804 -92.522296 
L 292.668804 -93.888982 
L 292.668804 -95.255668 
L 292.668804 -96.622355 
L 292.668804 -97.989041 
L 292.668804 -99.355728 
L 292.668804 -100.722414 
L 292.668804 -102.0891 
L 292.668804 -103.455787 
L 292.668804 -104.822473 
L 292.668804 -106.189159 
L 292.668804 -107.555846 
L 292.668804 -108.922532 
L 292.668804 -110.289219 
L 292.668804 -111.655905 
L 292.668804 -113.022591 
L 292.668804 -114.389278 
L 292.668804 -115.755964 
L 292.668804 -117.12265 
L 292.668804 -118.489337 
L 292.668804 -119.856023 
L 292.668804 -121.22271 
L 292.668804 -122.589396 
L 292.668804 -123.956082 
L 292.668804 -125.322769 
L 292.668804 -126.689455 
L 292.668804 -128.056141 
L 292.668804 -129.422828 
L 292.668804 -130.789514 
L 292.668804 -132.1562 
L 292.668804 -133.522887 
L 292.668804 -134.889573 
L 292.668804 -136.25626 
L 292.668804 -137.622946 
L 292.668804 -138.989632 
L 292.668804 -140.356319 
L 292.668804 -141.723005 
L 292.668804 -143.089691 
L 292.668804 -144.456378 
L 292.668804 -145.823064 
L 292.668804 -147.189751 
L 292.668804 -148.556437 
L 292.668804 -149.923123 
L 292.668804 -151.28981 
L 292.668804 -152.656496 
L 292.668804 -154.023182 
L 292.668804 -155.389869 
L 292.668804 -156.756555 
L 292.668804 -158.123242 
L 292.668804 -159.489928 
L 292.668804 -160.856614 
L 292.668804 -162.223301 
L 292.668804 -163.589987 
L 292.668804 -164.956673 
L 292.668804 -166.32336 
L 292.668804 -167.690046 
L 292.668804 -169.056733 
L 292.668804 -170.423419 
L 292.668804 -171.790105 
L 292.668804 -173.156792 
L 292.668804 -174.523478 
L 292.668804 -175.890164 
L 292.668804 -177.256851 
L 292.668804 -178.623537 
L 292.668804 -179.990223 
L 292.668804 -181.35691 
L 292.668804 -182.723596 
L 292.668804 -184.090283 
L 292.668804 -185.456969 
L 292.668804 -186.823655 
L 292.985753 -186.823655 
L 292.985753 -186.823655 
L 293.090419 -185.456969 
L 293.219065 -184.090283 
L 293.373724 -182.723596 
L 293.555689 -181.35691 
L 293.765393 -179.990223 
L 294.002408 -178.623537 
L 294.265598 -177.256851 
L 294.553435 -175.890164 
L 294.864464 -174.523478 
L 295.197868 -173.156792 
L 295.554077 -171.790105 
L 295.935304 -170.423419 
L 296.345945 -169.056733 
L 296.792748 -167.690046 
L 297.284714 -166.32336 
L 297.832736 -164.956673 
L 298.449008 -163.589987 
L 299.146284 -162.223301 
L 299.937095 -160.856614 
L 300.832996 -159.489928 
L 301.84392 -158.123242 
L 302.977642 -156.756555 
L 304.239343 -155.389869 
L 305.631199 -154.023182 
L 307.151927 -152.656496 
L 308.796234 -151.28981 
L 310.55417 -149.923123 
L 312.410443 -148.556437 
L 314.343828 -147.189751 
L 316.326867 -145.823064 
L 318.326046 -144.456378 
L 320.302626 -143.089691 
L 322.214205 -141.723005 
L 324.016975 -140.356319 
L 325.6685 -138.989632 
L 327.130727 -137.622946 
L 328.37284 -136.25626 
L 329.373573 -134.889573 
L 330.12262 -133.522887 
L 330.620929 -132.1562 
L 330.879788 -130.789514 
L 330.918813 -129.422828 
L 330.763109 -128.056141 
L 330.439983 -126.689455 
L 329.975649 -125.322769 
L 329.392363 -123.956082 
L 328.706336 -122.589396 
L 327.926666 -121.22271 
L 327.055365 -119.856023 
L 326.088433 -118.489337 
L 325.01777 -117.12265 
L 323.833649 -115.755964 
L 322.527409 -114.389278 
L 321.09403 -113.022591 
L 319.534273 -111.655905 
L 317.856168 -110.289219 
L 316.075677 -108.922532 
L 314.216506 -107.555846 
L 312.309088 -106.189159 
L 310.388877 -104.822473 
L 308.49413 -103.455787 
L 306.663416 -102.0891 
L 304.933093 -100.722414 
L 303.334983 -99.355728 
L 301.894468 -97.989041 
L 300.629143 -96.622355 
L 299.54814 -95.255668 
L 298.652132 -93.888982 
L 297.933989 -92.522296 
L 297.379968 -91.155609 
L 296.971292 -89.788923 
L 296.685918 -88.422237 
L 296.500317 -87.05555 
L 296.391089 -85.688864 
L 296.336258 -84.322177 
L 296.316195 -82.955491 
L 296.314123 -81.588805 
L 296.316253 -80.222118 
L 296.31164 -78.855432 
L 296.29187 -77.488746 
L 296.250685 -76.122059 
L 296.183657 -74.755373 
L 296.087962 -73.388686 
L 295.962274 -72.022 
L 295.806746 -70.655314 
L 295.623033 -69.288627 
L 295.414291 -67.921941 
L 295.185075 -66.555255 
L 294.941127 -65.188568 
L 294.689023 -63.821882 
L 294.435721 -62.455196 
L 294.188064 -61.088509 
L 293.952286 -59.721823 
L 293.733598 -58.355136 
L 293.535901 -56.98845 
L 293.361643 -55.621764 
L 293.21183 -54.255077 
L 293.08617 -52.888391 
L 292.983306 -51.521705 
z
" style="stroke: #313131; stroke-width: 1.5"/>
    </defs>
    <g clip-path="url(#p080604cec4)">
     <use xlink:href="#m7b25488bae" x="0" y="351.99625" style="fill: #e1822c; stroke: #313131; stroke-width: 1.5"/>
    </g>
   </g>
   <g id="matplotlib.axis_1">
    <g id="xtick_1">
     <g id="line2d_1">
      <defs>
       <path id="md2a3743747" d="M 0 0 
L 0 3.5 
" style="stroke: #000000; stroke-width: 0.8"/>
      </defs>
      <g>
       <use xlink:href="#md2a3743747" x="101.418761" y="314.44" style="stroke: #000000; stroke-width: 0.8"/>
      </g>
     </g>
     <g id="text_1">
      <!-- Adelie -->
      <g transform="translate(85.98048 329.038437) scale(0.1 -0.1)">
       <defs>
        <path id="DejaVuSans-41" d="M 2188 4044 
L 1331 1722 
L 3047 1722 
L 2188 4044 
z
M 1831 4666 
L 2547 4666 
L 4325 0 
L 3669 0 
L 3244 1197 
L 1141 1197 
L 716 0 
L 50 0 
L 1831 4666 
z
" transform="scale(0.015625)"/>
        <path id="DejaVuSans-64" d="M 2906 2969 
L 2906 4863 
L 3481 4863 
L 3481 0 
L 2906 0 
L 2906 525 
Q 2725 213 2448 61 
Q 2172 -91 1784 -91 
Q 1150 -91 751 415 
Q 353 922 353 1747 
Q 353 2572 751 3078 
Q 1150 3584 1784 3584 
Q 2172 3584 2448 3432 
Q 2725 3281 2906 2969 
z
M 947 1747 
Q 947 1113 1208 752 
Q 1469 391 1925 391 
Q 2381 391 2643 752 
Q 2906 1113 2906 1747 
Q 2906 2381 2643 2742 
Q 2381 3103 1925 3103 
Q 1469 3103 1208 2742 
Q 947 2381 947 1747 
z
" transform="scale(0.015625)"/>
        <path id="DejaVuSans-65" d="M 3597 1894 
L 3597 1613 
L 953 1613 
Q 991 1019 1311 708 
Q 1631 397 2203 397 
Q 2534 397 2845 478 
Q 3156 559 3463 722 
L 3463 178 
Q 3153 47 2828 -22 
Q 2503 -91 2169 -91 
Q 1331 -91 842 396 
Q 353 884 353 1716 
Q 353 2575 817 3079 
Q 1281 3584 2069 3584 
Q 2775 3584 3186 3129 
Q 3597 2675 3597 1894 
z
M 3022 2063 
Q 3016 2534 2758 2815 
Q 2500 3097 2075 3097 
Q 1594 3097 1305 2825 
Q 1016 2553 972 2059 
L 3022 2063 
z
" transform="scale(0.015625)"/>
        <path id="DejaVuSans-6c" d="M 603 4863 
L 1178 4863 
L 1178 0 
L 603 0 
L 603 4863 
z
" transform="scale(0.015625)"/>
        <path id="DejaVuSans-69" d="M 603 3500 
L 1178 3500 
L 1178 0 
L 603 0 
L 603 3500 
z
M 603 4863 
L 1178 4863 
L 1178 4134 
L 603 4134 
L 603 4863 
z
" transform="scale(0.015625)"/>
       </defs>
       <use xlink:href="#DejaVuSans-41"/>
       <use xlink:href="#DejaVuSans-64" x="66.658203"/>
       <use xlink:href="#DejaVuSans-65" x="130.134766"/>
       <use xlink:href="#DejaVuSans-6c" x="191.658203"/>
       <use xlink:href="#DejaVuSans-69" x="219.441406"/>
       <use xlink:href="#DejaVuSans-65" x="247.224609"/>
      </g>
     </g>
    </g>
    <g id="xtick_2">
     <g id="line2d_2">
      <g>
       <use xlink:href="#md2a3743747" x="197.043783" y="314.44" style="stroke: #000000; stroke-width: 0.8"/>
      </g>
     </g>
     <g id="text_2">
      <!-- Gentoo -->
      <g transform="translate(178.845345 329.038437) scale(0.1 -0.1)">
       <defs>
        <path id="DejaVuSans-47" d="M 3809 666 
L 3809 1919 
L 2778 1919 
L 2778 2438 
L 4434 2438 
L 4434 434 
Q 4069 175 3628 42 
Q 3188 -91 2688 -91 
Q 1594 -91 976 548 
Q 359 1188 359 2328 
Q 359 3472 976 4111 
Q 1594 4750 2688 4750 
Q 3144 4750 3555 4637 
Q 3966 4525 4313 4306 
L 4313 3634 
Q 3963 3931 3569 4081 
Q 3175 4231 2741 4231 
Q 1884 4231 1454 3753 
Q 1025 3275 1025 2328 
Q 1025 1384 1454 906 
Q 1884 428 2741 428 
Q 3075 428 3337 486 
Q 3600 544 3809 666 
z
" transform="scale(0.015625)"/>
        <path id="DejaVuSans-6e" d="M 3513 2113 
L 3513 0 
L 2938 0 
L 2938 2094 
Q 2938 2591 2744 2837 
Q 2550 3084 2163 3084 
Q 1697 3084 1428 2787 
Q 1159 2491 1159 1978 
L 1159 0 
L 581 0 
L 581 3500 
L 1159 3500 
L 1159 2956 
Q 1366 3272 1645 3428 
Q 1925 3584 2291 3584 
Q 2894 3584 3203 3211 
Q 3513 2838 3513 2113 
z
" transform="scale(0.015625)"/>
        <path id="DejaVuSans-74" d="M 1172 4494 
L 1172 3500 
L 2356 3500 
L 2356 3053 
L 1172 3053 
L 1172 1153 
Q 1172 725 1289 603 
Q 1406 481 1766 481 
L 2356 481 
L 2356 0 
L 1766 0 
Q 1100 0 847 248 
Q 594 497 594 1153 
L 594 3053 
L 172 3053 
L 172 3500 
L 594 3500 
L 594 4494 
L 1172 4494 
z
" transform="scale(0.015625)"/>
        <path id="DejaVuSans-6f" d="M 1959 3097 
Q 1497 3097 1228 2736 
Q 959 2375 959 1747 
Q 959 1119 1226 758 
Q 1494 397 1959 397 
Q 2419 397 2687 759 
Q 2956 1122 2956 1747 
Q 2956 2369 2687 2733 
Q 2419 3097 1959 3097 
z
M 1959 3584 
Q 2709 3584 3137 3096 
Q 3566 2609 3566 1747 
Q 3566 888 3137 398 
Q 2709 -91 1959 -91 
Q 1206 -91 779 398 
Q 353 888 353 1747 
Q 353 2609 779 3096 
Q 1206 3584 1959 3584 
z
" transform="scale(0.015625)"/>
       </defs>
       <use xlink:href="#DejaVuSans-47"/>
       <use xlink:href="#DejaVuSans-65" x="77.490234"/>
       <use xlink:href="#DejaVuSans-6e" x="139.013672"/>
       <use xlink:href="#DejaVuSans-74" x="202.392578"/>
       <use xlink:href="#DejaVuSans-6f" x="241.601562"/>
       <use xlink:href="#DejaVuSans-6f" x="302.783203"/>
      </g>
     </g>
    </g>
    <g id="xtick_3">
     <g id="line2d_3">
      <g>
       <use xlink:href="#md2a3743747" x="292.668804" y="314.44" style="stroke: #000000; stroke-width: 0.8"/>
      </g>
     </g>
     <g id="text_3">
      <!-- Chinstrap -->
      <g transform="translate(268.592242 329.038437) scale(0.1 -0.1)">
       <defs>
        <path id="DejaVuSans-43" d="M 4122 4306 
L 4122 3641 
Q 3803 3938 3442 4084 
Q 3081 4231 2675 4231 
Q 1875 4231 1450 3742 
Q 1025 3253 1025 2328 
Q 1025 1406 1450 917 
Q 1875 428 2675 428 
Q 3081 428 3442 575 
Q 3803 722 4122 1019 
L 4122 359 
Q 3791 134 3420 21 
Q 3050 -91 2638 -91 
Q 1578 -91 968 557 
Q 359 1206 359 2328 
Q 359 3453 968 4101 
Q 1578 4750 2638 4750 
Q 3056 4750 3426 4639 
Q 3797 4528 4122 4306 
z
" transform="scale(0.015625)"/>
        <path id="DejaVuSans-68" d="M 3513 2113 
L 3513 0 
L 2938 0 
L 2938 2094 
Q 2938 2591 2744 2837 
Q 2550 3084 2163 3084 
Q 1697 3084 1428 2787 
Q 1159 2491 1159 1978 
L 1159 0 
L 581 0 
L 581 4863 
L 1159 4863 
L 1159 2956 
Q 1366 3272 1645 3428 
Q 1925 3584 2291 3584 
Q 2894 3584 3203 3211 
Q 3513 2838 3513 2113 
z
" transform="scale(0.015625)"/>
        <path id="DejaVuSans-73" d="M 2834 3397 
L 2834 2853 
Q 2591 2978 2328 3040 
Q 2066 3103 1784 3103 
Q 1356 3103 1142 2972 
Q 928 2841 928 2578 
Q 928 2378 1081 2264 
Q 1234 2150 1697 2047 
L 1894 2003 
Q 2506 1872 2764 1633 
Q 3022 1394 3022 966 
Q 3022 478 2636 193 
Q 2250 -91 1575 -91 
Q 1294 -91 989 -36 
Q 684 19 347 128 
L 347 722 
Q 666 556 975 473 
Q 1284 391 1588 391 
Q 1994 391 2212 530 
Q 2431 669 2431 922 
Q 2431 1156 2273 1281 
Q 2116 1406 1581 1522 
L 1381 1569 
Q 847 1681 609 1914 
Q 372 2147 372 2553 
Q 372 3047 722 3315 
Q 1072 3584 1716 3584 
Q 2034 3584 2315 3537 
Q 2597 3491 2834 3397 
z
" transform="scale(0.015625)"/>
        <path id="DejaVuSans-72" d="M 2631 2963 
Q 2534 3019 2420 3045 
Q 2306 3072 2169 3072 
Q 1681 3072 1420 2755 
Q 1159 2438 1159 1844 
L 1159 0 
L 581 0 
L 581 3500 
L 1159 3500 
L 1159 2956 
Q 1341 3275 1631 3429 
Q 1922 3584 2338 3584 
Q 2397 3584 2469 3576 
Q 2541 3569 2628 3553 
L 2631 2963 
z
" transform="scale(0.015625)"/>
        <path id="DejaVuSans-61" d="M 2194 1759 
Q 1497 1759 1228 1600 
Q 959 1441 959 1056 
Q 959 750 1161 570 
Q 1363 391 1709 391 
Q 2188 391 2477 730 
Q 2766 1069 2766 1631 
L 2766 1759 
L 2194 1759 
z
M 3341 1997 
L 3341 0 
L 2766 0 
L 2766 531 
Q 2569 213 2275 61 
Q 1981 -91 1556 -91 
Q 1019 -91 701 211 
Q 384 513 384 1019 
Q 384 1609 779 1909 
Q 1175 2209 1959 2209 
L 2766 2209 
L 2766 2266 
Q 2766 2663 2505 2880 
Q 2244 3097 1772 3097 
Q 1472 3097 1187 3025 
Q 903 2953 641 2809 
L 641 3341 
Q 956 3463 1253 3523 
Q 1550 3584 1831 3584 
Q 2591 3584 2966 3190 
Q 3341 2797 3341 1997 
z
" transform="scale(0.015625)"/>
        <path id="DejaVuSans-70" d="M 1159 525 
L 1159 -1331 
L 581 -1331 
L 581 3500 
L 1159 3500 
L 1159 2969 
Q 1341 3281 1617 3432 
Q 1894 3584 2278 3584 
Q 2916 3584 3314 3078 
Q 3713 2572 3713 1747 
Q 3713 922 3314 415 
Q 2916 -91 2278 -91 
Q 1894 -91 1617 61 
Q 1341 213 1159 525 
z
M 3116 1747 
Q 3116 2381 2855 2742 
Q 2594 3103 2138 3103 
Q 1681 3103 1420 2742 
Q 1159 2381 1159 1747 
Q 1159 1113 1420 752 
Q 1681 391 2138 391 
Q 2594 391 2855 752 
Q 3116 1113 3116 1747 
z
" transform="scale(0.015625)"/>
       </defs>
       <use xlink:href="#DejaVuSans-43"/>
       <use xlink:href="#DejaVuSans-68" x="69.824219"/>
       <use xlink:href="#DejaVuSans-69" x="133.203125"/>
       <use xlink:href="#DejaVuSans-6e" x="160.986328"/>
       <use xlink:href="#DejaVuSans-73" x="224.365234"/>
       <use xlink:href="#DejaVuSans-74" x="276.464844"/>
       <use xlink:href="#DejaVuSans-72" x="315.673828"/>
       <use xlink:href="#DejaVuSans-61" x="356.787109"/>
       <use xlink:href="#DejaVuSans-70" x="418.066406"/>
      </g>
     </g>
    </g>
    <g id="text_4">
     <!-- species -->
     <g transform="translate(178.368783 342.716562) scale(0.1 -0.1)">
      <defs>
       <path id="DejaVuSans-63" d="M 3122 3366 
L 3122 2828 
Q 2878 2963 2633 3030 
Q 2388 3097 2138 3097 
Q 1578 3097 1268 2742 
Q 959 2388 959 1747 
Q 959 1106 1268 751 
Q 1578 397 2138 397 
Q 2388 397 2633 464 
Q 2878 531 3122 666 
L 3122 134 
Q 2881 22 2623 -34 
Q 2366 -91 2075 -91 
Q 1284 -91 818 406 
Q 353 903 353 1747 
Q 353 2603 823 3093 
Q 1294 3584 2113 3584 
Q 2378 3584 2631 3529 
Q 2884 3475 3122 3366 
z
" transform="scale(0.015625)"/>
      </defs>
      <use xlink:href="#DejaVuSans-73"/>
      <use xlink:href="#DejaVuSans-70" x="52.099609"/>
      <use xlink:href="#DejaVuSans-65" x="115.576172"/>
      <use xlink:href="#DejaVuSans-63" x="177.099609"/>
      <use xlink:href="#DejaVuSans-69" x="232.080078"/>
      <use xlink:href="#DejaVuSans-65" x="259.863281"/>
      <use xlink:href="#DejaVuSans-73" x="321.386719"/>
     </g>
    </g>
   </g>
   <g id="matplotlib.axis_2">
    <g id="ytick_1">
     <g id="line2d_4">
      <defs>
       <path id="mb6471e7f46" d="M 0 0 
L -3.5 0 
" style="stroke: #000000; stroke-width: 0.8"/>
      </defs>
      <g>
       <use xlink:href="#mb6471e7f46" x="53.60625" y="261.378345" style="stroke: #000000; stroke-width: 0.8"/>
      </g>
     </g>
     <g id="text_5">
      <!-- 3000 -->
      <g transform="translate(21.15625 265.177564) scale(0.1 -0.1)">
       <defs>
        <path id="DejaVuSans-33" d="M 2597 2516 
Q 3050 2419 3304 2112 
Q 3559 1806 3559 1356 
Q 3559 666 3084 287 
Q 2609 -91 1734 -91 
Q 1441 -91 1130 -33 
Q 819 25 488 141 
L 488 750 
Q 750 597 1062 519 
Q 1375 441 1716 441 
Q 2309 441 2620 675 
Q 2931 909 2931 1356 
Q 2931 1769 2642 2001 
Q 2353 2234 1838 2234 
L 1294 2234 
L 1294 2753 
L 1863 2753 
Q 2328 2753 2575 2939 
Q 2822 3125 2822 3475 
Q 2822 3834 2567 4026 
Q 2313 4219 1838 4219 
Q 1578 4219 1281 4162 
Q 984 4106 628 3988 
L 628 4550 
Q 988 4650 1302 4700 
Q 1616 4750 1894 4750 
Q 2613 4750 3031 4423 
Q 3450 4097 3450 3541 
Q 3450 3153 3228 2886 
Q 3006 2619 2597 2516 
z
" transform="scale(0.015625)"/>
        <path id="DejaVuSans-30" d="M 2034 4250 
Q 1547 4250 1301 3770 
Q 1056 3291 1056 2328 
Q 1056 1369 1301 889 
Q 1547 409 2034 409 
Q 2525 409 2770 889 
Q 3016 1369 3016 2328 
Q 3016 3291 2770 3770 
Q 2525 4250 2034 4250 
z
M 2034 4750 
Q 2819 4750 3233 4129 
Q 3647 3509 3647 2328 
Q 3647 1150 3233 529 
Q 2819 -91 2034 -91 
Q 1250 -91 836 529 
Q 422 1150 422 2328 
Q 422 3509 836 4129 
Q 1250 4750 2034 4750 
z
" transform="scale(0.015625)"/>
       </defs>
       <use xlink:href="#DejaVuSans-33"/>
       <use xlink:href="#DejaVuSans-30" x="63.623047"/>
       <use xlink:href="#DejaVuSans-30" x="127.246094"/>
       <use xlink:href="#DejaVuSans-30" x="190.869141"/>
      </g>
     </g>
    </g>
    <g id="ytick_2">
     <g id="line2d_5">
      <g>
       <use xlink:href="#mb6471e7f46" x="53.60625" y="194.190639" style="stroke: #000000; stroke-width: 0.8"/>
      </g>
     </g>
     <g id="text_6">
      <!-- 4000 -->
      <g transform="translate(21.15625 197.989858) scale(0.1 -0.1)">
       <defs>
        <path id="DejaVuSans-34" d="M 2419 4116 
L 825 1625 
L 2419 1625 
L 2419 4116 
z
M 2253 4666 
L 3047 4666 
L 3047 1625 
L 3713 1625 
L 3713 1100 
L 3047 1100 
L 3047 0 
L 2419 0 
L 2419 1100 
L 313 1100 
L 313 1709 
L 2253 4666 
z
" transform="scale(0.015625)"/>
       </defs>
       <use xlink:href="#DejaVuSans-34"/>
       <use xlink:href="#DejaVuSans-30" x="63.623047"/>
       <use xlink:href="#DejaVuSans-30" x="127.246094"/>
       <use xlink:href="#DejaVuSans-30" x="190.869141"/>
      </g>
     </g>
    </g>
    <g id="ytick_3">
     <g id="line2d_6">
      <g>
       <use xlink:href="#mb6471e7f46" x="53.60625" y="127.002933" style="stroke: #000000; stroke-width: 0.8"/>
      </g>
     </g>
     <g id="text_7">
      <!-- 5000 -->
      <g transform="translate(21.15625 130.802152) scale(0.1 -0.1)">
       <defs>
        <path id="DejaVuSans-35" d="M 691 4666 
L 3169 4666 
L 3169 4134 
L 1269 4134 
L 1269 2991 
Q 1406 3038 1543 3061 
Q 1681 3084 1819 3084 
Q 2600 3084 3056 2656 
Q 3513 2228 3513 1497 
Q 3513 744 3044 326 
Q 2575 -91 1722 -91 
Q 1428 -91 1123 -41 
Q 819 9 494 109 
L 494 744 
Q 775 591 1075 516 
Q 1375 441 1709 441 
Q 2250 441 2565 725 
Q 2881 1009 2881 1497 
Q 2881 1984 2565 2268 
Q 2250 2553 1709 2553 
Q 1456 2553 1204 2497 
Q 953 2441 691 2322 
L 691 4666 
z
" transform="scale(0.015625)"/>
       </defs>
       <use xlink:href="#DejaVuSans-35"/>
       <use xlink:href="#DejaVuSans-30" x="63.623047"/>
       <use xlink:href="#DejaVuSans-30" x="127.246094"/>
       <use xlink:href="#DejaVuSans-30" x="190.869141"/>
      </g>
     </g>
    </g>
    <g id="ytick_4">
     <g id="line2d_7">
      <g>
       <use xlink:href="#mb6471e7f46" x="53.60625" y="59.815227" style="stroke: #000000; stroke-width: 0.8"/>
      </g>
     </g>
     <g id="text_8">
      <!-- 6000 -->
      <g transform="translate(21.15625 63.614445) scale(0.1 -0.1)">
       <defs>
        <path id="DejaVuSans-36" d="M 2113 2584 
Q 1688 2584 1439 2293 
Q 1191 2003 1191 1497 
Q 1191 994 1439 701 
Q 1688 409 2113 409 
Q 2538 409 2786 701 
Q 3034 994 3034 1497 
Q 3034 2003 2786 2293 
Q 2538 2584 2113 2584 
z
M 3366 4563 
L 3366 3988 
Q 3128 4100 2886 4159 
Q 2644 4219 2406 4219 
Q 1781 4219 1451 3797 
Q 1122 3375 1075 2522 
Q 1259 2794 1537 2939 
Q 1816 3084 2150 3084 
Q 2853 3084 3261 2657 
Q 3669 2231 3669 1497 
Q 3669 778 3244 343 
Q 2819 -91 2113 -91 
Q 1303 -91 875 529 
Q 447 1150 447 2328 
Q 447 3434 972 4092 
Q 1497 4750 2381 4750 
Q 2619 4750 2861 4703 
Q 3103 4656 3366 4563 
z
" transform="scale(0.015625)"/>
       </defs>
       <use xlink:href="#DejaVuSans-36"/>
       <use xlink:href="#DejaVuSans-30" x="63.623047"/>
       <use xlink:href="#DejaVuSans-30" x="127.246094"/>
       <use xlink:href="#DejaVuSans-30" x="190.869141"/>
      </g>
     </g>
    </g>
    <g id="text_9">
     <!-- body_mass_g -->
     <g transform="translate(14.798438 194.505156) rotate(-90) scale(0.1 -0.1)">
      <defs>
       <path id="DejaVuSans-62" d="M 3116 1747 
Q 3116 2381 2855 2742 
Q 2594 3103 2138 3103 
Q 1681 3103 1420 2742 
Q 1159 2381 1159 1747 
Q 1159 1113 1420 752 
Q 1681 391 2138 391 
Q 2594 391 2855 752 
Q 3116 1113 3116 1747 
z
M 1159 2969 
Q 1341 3281 1617 3432 
Q 1894 3584 2278 3584 
Q 2916 3584 3314 3078 
Q 3713 2572 3713 1747 
Q 3713 922 3314 415 
Q 2916 -91 2278 -91 
Q 1894 -91 1617 61 
Q 1341 213 1159 525 
L 1159 0 
L 581 0 
L 581 4863 
L 1159 4863 
L 1159 2969 
z
" transform="scale(0.015625)"/>
       <path id="DejaVuSans-79" d="M 2059 -325 
Q 1816 -950 1584 -1140 
Q 1353 -1331 966 -1331 
L 506 -1331 
L 506 -850 
L 844 -850 
Q 1081 -850 1212 -737 
Q 1344 -625 1503 -206 
L 1606 56 
L 191 3500 
L 800 3500 
L 1894 763 
L 2988 3500 
L 3597 3500 
L 2059 -325 
z
" transform="scale(0.015625)"/>
       <path id="DejaVuSans-5f" d="M 3263 -1063 
L 3263 -1509 
L -63 -1509 
L -63 -1063 
L 3263 -1063 
z
" transform="scale(0.015625)"/>
       <path id="DejaVuSans-6d" d="M 3328 2828 
Q 3544 3216 3844 3400 
Q 4144 3584 4550 3584 
Q 5097 3584 5394 3201 
Q 5691 2819 5691 2113 
L 5691 0 
L 5113 0 
L 5113 2094 
Q 5113 2597 4934 2840 
Q 4756 3084 4391 3084 
Q 3944 3084 3684 2787 
Q 3425 2491 3425 1978 
L 3425 0 
L 2847 0 
L 2847 2094 
Q 2847 2600 2669 2842 
Q 2491 3084 2119 3084 
Q 1678 3084 1418 2786 
Q 1159 2488 1159 1978 
L 1159 0 
L 581 0 
L 581 3500 
L 1159 3500 
L 1159 2956 
Q 1356 3278 1631 3431 
Q 1906 3584 2284 3584 
Q 2666 3584 2933 3390 
Q 3200 3197 3328 2828 
z
" transform="scale(0.015625)"/>
       <path id="DejaVuSans-67" d="M 2906 1791 
Q 2906 2416 2648 2759 
Q 2391 3103 1925 3103 
Q 1463 3103 1205 2759 
Q 947 2416 947 1791 
Q 947 1169 1205 825 
Q 1463 481 1925 481 
Q 2391 481 2648 825 
Q 2906 1169 2906 1791 
z
M 3481 434 
Q 3481 -459 3084 -895 
Q 2688 -1331 1869 -1331 
Q 1566 -1331 1297 -1286 
Q 1028 -1241 775 -1147 
L 775 -588 
Q 1028 -725 1275 -790 
Q 1522 -856 1778 -856 
Q 2344 -856 2625 -561 
Q 2906 -266 2906 331 
L 2906 616 
Q 2728 306 2450 153 
Q 2172 0 1784 0 
Q 1141 0 747 490 
Q 353 981 353 1791 
Q 353 2603 747 3093 
Q 1141 3584 1784 3584 
Q 2172 3584 2450 3431 
Q 2728 3278 2906 2969 
L 2906 3500 
L 3481 3500 
L 3481 434 
z
" transform="scale(0.015625)"/>
      </defs>
      <use xlink:href="#DejaVuSans-62"/>
      <use xlink:href="#DejaVuSans-6f" x="63.476562"/>
      <use xlink:href="#DejaVuSans-64" x="124.658203"/>
      <use xlink:href="#DejaVuSans-79" x="188.134766"/>
      <use xlink:href="#DejaVuSans-5f" x="247.314453"/>
      <use xlink:href="#DejaVuSans-6d" x="297.314453"/>
      <use xlink:href="#DejaVuSans-61" x="394.726562"/>
      <use xlink:href="#DejaVuSans-73" x="456.005859"/>
      <use xlink:href="#DejaVuSans-73" x="508.105469"/>
      <use xlink:href="#DejaVuSans-5f" x="560.205078"/>
      <use xlink:href="#DejaVuSans-67" x="610.205078"/>
     </g>
    </g>
   </g>
   <g id="line2d_8">
    <path d="M 101.418761 271.456501 
L 101.418761 142.120167 
" clip-path="url(#p080604cec4)" style="fill: none; stroke: #313131; stroke-width: 1.5; stroke-linecap: square"/>
   </g>
   <g id="line2d_9">
    <path d="M 101.418761 237.862648 
L 101.418761 194.190639 
" clip-path="url(#p080604cec4)" style="fill: none; stroke: #313131; stroke-width: 4.5; stroke-linecap: square"/>
   </g>
   <g id="line2d_10">
    <path d="M 197.043783 197.550024 
L 197.043783 39.658915 
" clip-path="url(#p080604cec4)" style="fill: none; stroke: #313131; stroke-width: 1.5; stroke-linecap: square"/>
   </g>
   <g id="line2d_11">
    <path d="M 197.043783 147.159245 
L 197.043783 93.40908 
" clip-path="url(#p080604cec4)" style="fill: none; stroke: #313131; stroke-width: 4.5; stroke-linecap: square"/>
   </g>
   <g id="line2d_12">
    <path d="M 292.668804 268.097116 
L 292.668804 157.237401 
" clip-path="url(#p080604cec4)" style="fill: none; stroke: #313131; stroke-width: 1.5; stroke-linecap: square"/>
   </g>
   <g id="line2d_13">
    <path d="M 292.668804 228.624338 
L 292.668804 197.550024 
" clip-path="url(#p080604cec4)" style="fill: none; stroke: #313131; stroke-width: 4.5; stroke-linecap: square"/>
   </g>
   <g id="patch_5">
    <path d="M 53.60625 314.44 
L 53.60625 7.2 
" style="fill: none; stroke: #000000; stroke-width: 0.8; stroke-linejoin: miter; stroke-linecap: square"/>
   </g>
   <g id="patch_6">
    <path d="M 53.60625 314.44 
L 340.481315 314.44 
" style="fill: none; stroke: #000000; stroke-width: 0.8; stroke-linejoin: miter; stroke-linecap: square"/>
   </g>
   <g id="PathCollection_1">
    <defs>
     <path id="mc7757aec45" d="M 0 1.5 
C 0.397805 1.5 0.77937 1.341951 1.06066 1.06066 
C 1.341951 0.77937 1.5 0.397805 1.5 0 
C 1.5 -0.397805 1.341951 -0.77937 1.06066 -1.06066 
C 0.77937 -1.341951 0.397805 -1.5 0 -1.5 
C -0.397805 -1.5 -0.77937 -1.341951 -1.06066 -1.06066 
C -1.341951 -0.77937 -1.5 -0.397805 -1.5 0 
C -1.5 0.397805 -1.341951 0.77937 -1.06066 1.06066 
C -0.77937 1.341951 -0.397805 1.5 0 1.5 
z
" style="stroke: #313131"/>
    </defs>
    <g clip-path="url(#p080604cec4)">
     <use xlink:href="#mc7757aec45" x="101.418761" y="214.346951" style="fill: #ffffff; stroke: #313131"/>
    </g>
   </g>
   <g id="PathCollection_2">
    <g clip-path="url(#p080604cec4)">
     <use xlink:href="#mc7757aec45" x="197.043783" y="127.002933" style="fill: #ffffff; stroke: #313131"/>
    </g>
   </g>
   <g id="PathCollection_3">
    <g clip-path="url(#p080604cec4)">
     <use xlink:href="#mc7757aec45" x="292.668804" y="214.346951" style="fill: #ffffff; stroke: #313131"/>
    </g>
   </g>
  </g>
  <g id="legend_1">
   <g id="text_10">
    <!-- sex -->
    <g transform="translate(368.757071 164.079375) scale(0.1 -0.1)">
     <defs>
      <path id="DejaVuSans-78" d="M 3513 3500 
L 2247 1797 
L 3578 0 
L 2900 0 
L 1881 1375 
L 863 0 
L 184 0 
L 1544 1831 
L 300 3500 
L 978 3500 
L 1906 2253 
L 2834 3500 
L 3513 3500 
z
" transform="scale(0.015625)"/>
     </defs>
     <use xlink:href="#DejaVuSans-73"/>
     <use xlink:href="#DejaVuSans-65" x="52.099609"/>
     <use xlink:href="#DejaVuSans-78" x="111.873047"/>
    </g>
   </g>
   <g id="patch_7">
    <path d="M 346.073477 178.7575 
L 366.073477 178.7575 
L 366.073477 171.7575 
L 346.073477 171.7575 
z
" style="fill: #156590; stroke: #313131; stroke-width: 0.75; stroke-linejoin: miter"/>
   </g>
   <g id="text_11">
    <!-- male -->
    <g transform="translate(374.073477 178.7575) scale(0.1 -0.1)">
     <use xlink:href="#DejaVuSans-6d"/>
     <use xlink:href="#DejaVuSans-61" x="97.412109"/>
     <use xlink:href="#DejaVuSans-6c" x="158.691406"/>
     <use xlink:href="#DejaVuSans-65" x="186.474609"/>
    </g>
   </g>
   <g id="patch_8">
    <path d="M 346.073477 193.435625 
L 366.073477 193.435625 
L 366.073477 186.435625 
L 346.073477 186.435625 
z
" style="fill: #e1822c; stroke: #313131; stroke-width: 0.75; stroke-linejoin: miter"/>
   </g>
   <g id="text_12">
    <!-- female -->
    <g transform="translate(374.073477 193.435625) scale(0.1 -0.1)">
     <defs>
      <path id="DejaVuSans-66" d="M 2375 4863 
L 2375 4384 
L 1825 4384 
Q 1516 4384 1395 4259 
Q 1275 4134 1275 3809 
L 1275 3500 
L 2222 3500 
L 2222 3053 
L 1275 3053 
L 1275 0 
L 697 0 
L 697 3053 
L 147 3053 
L 147 3500 
L 697 3500 
L 697 3744 
Q 697 4328 969 4595 
Q 1241 4863 1831 4863 
L 2375 4863 
z
" transform="scale(0.015625)"/>
     </defs>
     <use xlink:href="#DejaVuSans-66"/>
     <use xlink:href="#DejaVuSans-65" x="35.205078"/>
     <use xlink:href="#DejaVuSans-6d" x="96.728516"/>
     <use xlink:href="#DejaVuSans-61" x="194.140625"/>
     <use xlink:href="#DejaVuSans-6c" x="255.419922"/>
     <use xlink:href="#DejaVuSans-65" x="283.203125"/>
    </g>
   </g>
  </g>
 </g>
 <defs>
  <clipPath id="p080604cec4">
   <rect x="53.60625" y="7.2" width="286.875065" height="307.24"/>
  </clipPath>
 </defs>
</svg>