<?xml version="1.0" encoding="utf-8" standalone="no"?>
<!DOCTYPE svg PUBLIC "-//W3C//DTD SVG 1.1//EN"
  "http://www.w3.org/Graphics/SVG/1.1/DTD/svg11.dtd">
<svg xmlns:xlink="http://www.w3.org/1999/xlink" width="609.731719pt" height="366.599844pt" viewBox="0 0 609.731719 366.599844" xmlns="http://www.w3.org/2000/svg" version="1.1">
 <metadata>
  <rdf:RDF xmlns:dc="http://purl.org/dc/elements/1.1/" xmlns:cc="http://creativecommons.org/ns#" xmlns:rdf="http://www.w3.org/1999/02/22-rdf-syntax-ns#">
   <cc:Work>
    <dc:type rdf:resource="http://purl.org/dc/dcmitype/StillImage"/>
    <dc:date>2023-05-29T08:21:14.989732</dc:date>
    <dc:format>image/svg+xml</dc:format>
    <dc:creator>
     <cc:Agent>
      <dc:title>Matplotlib v3.7.1, https://matplotlib.org/</dc:title>
     </cc:Agent>
    </dc:creator>
   </cc:Work>
  </rdf:RDF>
 </metadata>
 <defs>
  <style type="text/css">*{stroke-linejoin: round; stroke-linecap: butt}</style>
 </defs>
 <g id="figure_1">
  <g id="patch_1">
   <path d="M 0 366.599844 
L 609.731719 366.599844 
L 609.731719 0 
L 0 0 
z
" style="fill: #ffffff"/>
  </g>
  <g id="axes_1">
   <g id="patch_2">
    <path d="M 44.531719 339.84 
L 602.531719 339.84 
L 602.531719 7.2 
L 44.531719 7.2 
z
" style="fill: #eaeaf2"/>
   </g>
   <g id="matplotlib.axis_1">
    <g id="xtick_1">
     <g id="line2d_1">
      <path d="M 69.895355 339.84 
L 69.895355 7.2 
" clip-path="url(#pecfc42dd46)" style="fill: none; stroke: #ffffff; stroke-linecap: round"/>
     </g>
     <g id="text_1">
      <!-- 0 -->
      <g style="fill: #262626" transform="translate(66.836839 357.213594) scale(0.11 -0.11)">
       <defs>
        <path id="ArialMT-30" d="M 266 2259 
Q 266 3072 433 3567 
Q 600 4063 929 4331 
Q 1259 4600 1759 4600 
Q 2128 4600 2406 4451 
Q 2684 4303 2865 4023 
Q 3047 3744 3150 3342 
Q 3253 2941 3253 2259 
Q 3253 1453 3087 958 
Q 2922 463 2592 192 
Q 2263 -78 1759 -78 
Q 1097 -78 719 397 
Q 266 969 266 2259 
z
M 844 2259 
Q 844 1131 1108 757 
Q 1372 384 1759 384 
Q 2147 384 2411 759 
Q 2675 1134 2675 2259 
Q 2675 3391 2411 3762 
Q 2147 4134 1753 4134 
Q 1366 4134 1134 3806 
Q 844 3388 844 2259 
z
" transform="scale(0.015625)"/>
       </defs>
       <use xlink:href="#ArialMT-30"/>
      </g>
     </g>
    </g>
    <g id="xtick_2">
     <g id="line2d_2">
      <path d="M 150.630317 339.84 
L 150.630317 7.2 
" clip-path="url(#pecfc42dd46)" style="fill: none; stroke: #ffffff; stroke-linecap: round"/>
     </g>
     <g id="text_2">
      <!-- 1 -->
      <g style="fill: #262626" transform="translate(147.571802 357.213594) scale(0.11 -0.11)">
       <defs>
        <path id="ArialMT-31" d="M 2384 0 
L 1822 0 
L 1822 3584 
Q 1619 3391 1289 3197 
Q 959 3003 697 2906 
L 697 3450 
Q 1169 3672 1522 3987 
Q 1875 4303 2022 4600 
L 2384 4600 
L 2384 0 
z
" transform="scale(0.015625)"/>
       </defs>
       <use xlink:href="#ArialMT-31"/>
      </g>
     </g>
    </g>
    <g id="xtick_3">
     <g id="line2d_3">
      <path d="M 231.365279 339.84 
L 231.365279 7.2 
" clip-path="url(#pecfc42dd46)" style="fill: none; stroke: #ffffff; stroke-linecap: round"/>
     </g>
     <g id="text_3">
      <!-- 2 -->
      <g style="fill: #262626" transform="translate(228.306764 357.213594) scale(0.11 -0.11)">
       <defs>
        <path id="ArialMT-32" d="M 3222 541 
L 3222 0 
L 194 0 
Q 188 203 259 391 
Q 375 700 629 1000 
Q 884 1300 1366 1694 
Q 2113 2306 2375 2664 
Q 2638 3022 2638 3341 
Q 2638 3675 2398 3904 
Q 2159 4134 1775 4134 
Q 1369 4134 1125 3890 
Q 881 3647 878 3216 
L 300 3275 
Q 359 3922 746 4261 
Q 1134 4600 1788 4600 
Q 2447 4600 2831 4234 
Q 3216 3869 3216 3328 
Q 3216 3053 3103 2787 
Q 2991 2522 2730 2228 
Q 2469 1934 1863 1422 
Q 1356 997 1212 845 
Q 1069 694 975 541 
L 3222 541 
z
" transform="scale(0.015625)"/>
       </defs>
       <use xlink:href="#ArialMT-32"/>
      </g>
     </g>
    </g>
    <g id="xtick_4">
     <g id="line2d_4">
      <path d="M 312.100241 339.84 
L 312.100241 7.2 
" clip-path="url(#pecfc42dd46)" style="fill: none; stroke: #ffffff; stroke-linecap: round"/>
     </g>
     <g id="text_4">
      <!-- 3 -->
      <g style="fill: #262626" transform="translate(309.041726 357.213594) scale(0.11 -0.11)">
       <defs>
        <path id="ArialMT-33" d="M 269 1209 
L 831 1284 
Q 928 806 1161 595 
Q 1394 384 1728 384 
Q 2125 384 2398 659 
Q 2672 934 2672 1341 
Q 2672 1728 2419 1979 
Q 2166 2231 1775 2231 
Q 1616 2231 1378 2169 
L 1441 2663 
Q 1497 2656 1531 2656 
Q 1891 2656 2178 2843 
Q 2466 3031 2466 3422 
Q 2466 3731 2256 3934 
Q 2047 4138 1716 4138 
Q 1388 4138 1169 3931 
Q 950 3725 888 3313 
L 325 3413 
Q 428 3978 793 4289 
Q 1159 4600 1703 4600 
Q 2078 4600 2393 4439 
Q 2709 4278 2876 4000 
Q 3044 3722 3044 3409 
Q 3044 3113 2884 2869 
Q 2725 2625 2413 2481 
Q 2819 2388 3044 2092 
Q 3269 1797 3269 1353 
Q 3269 753 2831 336 
Q 2394 -81 1725 -81 
Q 1122 -81 723 278 
Q 325 638 269 1209 
z
" transform="scale(0.015625)"/>
       </defs>
       <use xlink:href="#ArialMT-33"/>
      </g>
     </g>
    </g>
    <g id="xtick_5">
     <g id="line2d_5">
      <path d="M 392.835203 339.84 
L 392.835203 7.2 
" clip-path="url(#pecfc42dd46)" style="fill: none; stroke: #ffffff; stroke-linecap: round"/>
     </g>
     <g id="text_5">
      <!-- 4 -->
      <g style="fill: #262626" transform="translate(389.776688 357.213594) scale(0.11 -0.11)">
       <defs>
        <path id="ArialMT-34" d="M 2069 0 
L 2069 1097 
L 81 1097 
L 81 1613 
L 2172 4581 
L 2631 4581 
L 2631 1613 
L 3250 1613 
L 3250 1097 
L 2631 1097 
L 2631 0 
L 2069 0 
z
M 2069 1613 
L 2069 3678 
L 634 1613 
L 2069 1613 
z
" transform="scale(0.015625)"/>
       </defs>
       <use xlink:href="#ArialMT-34"/>
      </g>
     </g>
    </g>
    <g id="xtick_6">
     <g id="line2d_6">
      <path d="M 473.570165 339.84 
L 473.570165 7.2 
" clip-path="url(#pecfc42dd46)" style="fill: none; stroke: #ffffff; stroke-linecap: round"/>
     </g>
     <g id="text_6">
      <!-- 5 -->
      <g style="fill: #262626" transform="translate(470.51165 357.213594) scale(0.11 -0.11)">
       <defs>
        <path id="ArialMT-35" d="M 266 1200 
L 856 1250 
Q 922 819 1161 601 
Q 1400 384 1738 384 
Q 2144 384 2425 690 
Q 2706 997 2706 1503 
Q 2706 1984 2436 2262 
Q 2166 2541 1728 2541 
Q 1456 2541 1237 2417 
Q 1019 2294 894 2097 
L 366 2166 
L 809 4519 
L 3088 4519 
L 3088 3981 
L 1259 3981 
L 1013 2750 
Q 1425 3038 1878 3038 
Q 2478 3038 2890 2622 
Q 3303 2206 3303 1553 
Q 3303 931 2941 478 
Q 2500 -78 1738 -78 
Q 1113 -78 717 272 
Q 322 622 266 1200 
z
" transform="scale(0.015625)"/>
       </defs>
       <use xlink:href="#ArialMT-35"/>
      </g>
     </g>
    </g>
    <g id="xtick_7">
     <g id="line2d_7">
      <path d="M 554.305127 339.84 
L 554.305127 7.2 
" clip-path="url(#pecfc42dd46)" style="fill: none; stroke: #ffffff; stroke-linecap: round"/>
     </g>
     <g id="text_7">
      <!-- 6 -->
      <g style="fill: #262626" transform="translate(551.246612 357.213594) scale(0.11 -0.11)">
       <defs>
        <path id="ArialMT-36" d="M 3184 3459 
L 2625 3416 
Q 2550 3747 2413 3897 
Q 2184 4138 1850 4138 
Q 1581 4138 1378 3988 
Q 1113 3794 959 3422 
Q 806 3050 800 2363 
Q 1003 2672 1297 2822 
Q 1591 2972 1913 2972 
Q 2475 2972 2870 2558 
Q 3266 2144 3266 1488 
Q 3266 1056 3080 686 
Q 2894 316 2569 119 
Q 2244 -78 1831 -78 
Q 1128 -78 684 439 
Q 241 956 241 2144 
Q 241 3472 731 4075 
Q 1159 4600 1884 4600 
Q 2425 4600 2770 4297 
Q 3116 3994 3184 3459 
z
M 888 1484 
Q 888 1194 1011 928 
Q 1134 663 1356 523 
Q 1578 384 1822 384 
Q 2178 384 2434 671 
Q 2691 959 2691 1453 
Q 2691 1928 2437 2201 
Q 2184 2475 1800 2475 
Q 1419 2475 1153 2201 
Q 888 1928 888 1484 
z
" transform="scale(0.015625)"/>
       </defs>
       <use xlink:href="#ArialMT-36"/>
      </g>
     </g>
    </g>
   </g>
   <g id="matplotlib.axis_2">
    <g id="ytick_1">
     <g id="line2d_8">
      <path d="M 44.531719 324.72 
L 602.531719 324.72 
" clip-path="url(#pecfc42dd46)" style="fill: none; stroke: #ffffff; stroke-linecap: round"/>
     </g>
     <g id="text_8">
      <!-- −1.00 -->
      <g style="fill: #262626" transform="translate(7.2 328.656797) scale(0.11 -0.11)">
       <defs>
        <path id="ArialMT-2212" d="M 3381 1997 
L 356 1997 
L 356 2522 
L 3381 2522 
L 3381 1997 
z
" transform="scale(0.015625)"/>
        <path id="ArialMT-2e" d="M 581 0 
L 581 641 
L 1222 641 
L 1222 0 
L 581 0 
z
" transform="scale(0.015625)"/>
       </defs>
       <use xlink:href="#ArialMT-2212"/>
       <use xlink:href="#ArialMT-31" x="58.398438"/>
       <use xlink:href="#ArialMT-2e" x="114.013672"/>
       <use xlink:href="#ArialMT-30" x="141.796875"/>
       <use xlink:href="#ArialMT-30" x="197.412109"/>
      </g>
     </g>
    </g>
    <g id="ytick_2">
     <g id="line2d_9">
      <path d="M 44.531719 286.92 
L 602.531719 286.92 
" clip-path="url(#pecfc42dd46)" style="fill: none; stroke: #ffffff; stroke-linecap: round"/>
     </g>
     <g id="text_9">
      <!-- −0.75 -->
      <g style="fill: #262626" transform="translate(7.2 290.856797) scale(0.11 -0.11)">
       <defs>
        <path id="ArialMT-37" d="M 303 3981 
L 303 4522 
L 3269 4522 
L 3269 4084 
Q 2831 3619 2401 2847 
Q 1972 2075 1738 1259 
Q 1569 684 1522 0 
L 944 0 
Q 953 541 1156 1306 
Q 1359 2072 1739 2783 
Q 2119 3494 2547 3981 
L 303 3981 
z
" transform="scale(0.015625)"/>
       </defs>
       <use xlink:href="#ArialMT-2212"/>
       <use xlink:href="#ArialMT-30" x="58.398438"/>
       <use xlink:href="#ArialMT-2e" x="114.013672"/>
       <use xlink:href="#ArialMT-37" x="141.796875"/>
       <use xlink:href="#ArialMT-35" x="197.412109"/>
      </g>
     </g>
    </g>
    <g id="ytick_3">
     <g id="line2d_10">
      <path d="M 44.531719 249.12 
L 602.531719 249.12 
" clip-path="url(#pecfc42dd46)" style="fill: none; stroke: #ffffff; stroke-linecap: round"/>
     </g>
     <g id="text_10">
      <!-- −0.50 -->
      <g style="fill: #262626" transform="translate(7.2 253.056797) scale(0.11 -0.11)">
       <use xlink:href="#ArialMT-2212"/>
       <use xlink:href="#ArialMT-30" x="58.398438"/>
       <use xlink:href="#ArialMT-2e" x="114.013672"/>
       <use xlink:href="#ArialMT-35" x="141.796875"/>
       <use xlink:href="#ArialMT-30" x="197.412109"/>
      </g>
     </g>
    </g>
    <g id="ytick_4">
     <g id="line2d_11">
      <path d="M 44.531719 211.32 
L 602.531719 211.32 
" clip-path="url(#pecfc42dd46)" style="fill: none; stroke: #ffffff; stroke-linecap: round"/>
     </g>
     <g id="text_11">
      <!-- −0.25 -->
      <g style="fill: #262626" transform="translate(7.2 215.256797) scale(0.11 -0.11)">
       <use xlink:href="#ArialMT-2212"/>
       <use xlink:href="#ArialMT-30" x="58.398438"/>
       <use xlink:href="#ArialMT-2e" x="114.013672"/>
       <use xlink:href="#ArialMT-32" x="141.796875"/>
       <use xlink:href="#ArialMT-35" x="197.412109"/>
      </g>
     </g>
    </g>
    <g id="ytick_5">
     <g id="line2d_12">
      <path d="M 44.531719 173.52 
L 602.531719 173.52 
" clip-path="url(#pecfc42dd46)" style="fill: none; stroke: #ffffff; stroke-linecap: round"/>
     </g>
     <g id="text_12">
      <!-- 0.00 -->
      <g style="fill: #262626" transform="translate(13.624688 177.456797) scale(0.11 -0.11)">
       <use xlink:href="#ArialMT-30"/>
       <use xlink:href="#ArialMT-2e" x="55.615234"/>
       <use xlink:href="#ArialMT-30" x="83.398438"/>
       <use xlink:href="#ArialMT-30" x="139.013672"/>
      </g>
     </g>
    </g>
    <g id="ytick_6">
     <g id="line2d_13">
      <path d="M 44.531719 135.72 
L 602.531719 135.72 
" clip-path="url(#pecfc42dd46)" style="fill: none; stroke: #ffffff; stroke-linecap: round"/>
     </g>
     <g id="text_13">
      <!-- 0.25 -->
      <g style="fill: #262626" transform="translate(13.624688 139.656797) scale(0.11 -0.11)">
       <use xlink:href="#ArialMT-30"/>
       <use xlink:href="#ArialMT-2e" x="55.615234"/>
       <use xlink:href="#ArialMT-32" x="83.398438"/>
       <use xlink:href="#ArialMT-35" x="139.013672"/>
      </g>
     </g>
    </g>
    <g id="ytick_7">
     <g id="line2d_14">
      <path d="M 44.531719 97.92 
L 602.531719 97.92 
" clip-path="url(#pecfc42dd46)" style="fill: none; stroke: #ffffff; stroke-linecap: round"/>
     </g>
     <g id="text_14">
      <!-- 0.50 -->
      <g style="fill: #262626" transform="translate(13.624688 101.856797) scale(0.11 -0.11)">
       <use xlink:href="#ArialMT-30"/>
       <use xlink:href="#ArialMT-2e" x="55.615234"/>
       <use xlink:href="#ArialMT-35" x="83.398438"/>
       <use xlink:href="#ArialMT-30" x="139.013672"/>
      </g>
     </g>
    </g>
    <g id="ytick_8">
     <g id="line2d_15">
      <path d="M 44.531719 60.12 
L 602.531719 60.12 
" clip-path="url(#pecfc42dd46)" style="fill: none; stroke: #ffffff; stroke-linecap: round"/>
     </g>
     <g id="text_15">
      <!-- 0.75 -->
      <g style="fill: #262626" transform="translate(13.624688 64.056797) scale(0.11 -0.11)">
       <use xlink:href="#ArialMT-30"/>
       <use xlink:href="#ArialMT-2e" x="55.615234"/>
       <use xlink:href="#ArialMT-37" x="83.398438"/>
       <use xlink:href="#ArialMT-35" x="139.013672"/>
      </g>
     </g>
    </g>
    <g id="ytick_9">
     <g id="line2d_16">
      <path d="M 44.531719 22.32 
L 602.531719 22.32 
" clip-path="url(#pecfc42dd46)" style="fill: none; stroke: #ffffff; stroke-linecap: round"/>
     </g>
     <g id="text_16">
      <!-- 1.00 -->
      <g style="fill: #262626" transform="translate(13.624688 26.256797) scale(0.11 -0.11)">
       <use xlink:href="#ArialMT-31"/>
       <use xlink:href="#ArialMT-2e" x="55.615234"/>
       <use xlink:href="#ArialMT-30" x="83.398438"/>
       <use xlink:href="#ArialMT-30" x="139.013672"/>
      </g>
     </g>
    </g>
   </g>
   <g id="line2d_17">
    <path d="M 69.895355 173.52 
L 74.968082 164.026073 
L 80.04081 154.569615 
L 85.113537 145.187945 
L 90.186264 135.918089 
L 95.258991 126.79663 
L 100.331719 117.859568 
L 105.404446 109.142171 
L 110.477173 100.678844 
L 115.549901 92.502989 
L 120.622628 84.64687 
L 125.695355 77.141493 
L 130.768082 70.016478 
L 135.84081 63.299944 
L 140.913537 57.018398 
L 145.986264 51.19663 
L 151.058991 45.857618 
L 156.131719 41.02243 
L 161.204446 36.71015 
L 166.277173 32.937795 
L 171.349901 29.720255 
L 176.422628 27.070226 
L 181.495355 24.998168 
L 186.568082 23.512257 
L 191.64081 22.618359 
L 196.713537 22.32 
L 201.786264 22.618359 
L 206.858991 23.512257 
L 211.931719 24.998168 
L 217.004446 27.070226 
L 222.077173 29.720255 
L 227.149901 32.937795 
L 232.222628 36.71015 
L 237.295355 41.02243 
L 242.368082 45.857618 
L 247.44081 51.19663 
L 252.513537 57.018398 
L 257.586264 63.299944 
L 262.658991 70.016478 
L 267.731719 77.141493 
L 272.804446 84.64687 
L 277.877173 92.502989 
L 282.949901 100.678844 
L 288.022628 109.142171 
L 293.095355 117.859568 
L 298.168082 126.79663 
L 303.24081 135.918089 
L 308.313537 145.187945 
L 313.386264 154.569615 
L 318.458991 164.026073 
L 323.531719 173.52 
L 328.604446 183.013927 
L 333.677173 192.470385 
L 338.749901 201.852055 
L 343.822628 211.121911 
L 348.895355 220.24337 
L 353.968082 229.180432 
L 359.04081 237.897829 
L 364.113537 246.361156 
L 369.186264 254.537011 
L 374.258991 262.39313 
L 379.331719 269.898507 
L 384.404446 277.023522 
L 389.477173 283.740056 
L 394.549901 290.021602 
L 399.622628 295.84337 
L 404.695355 301.182382 
L 409.768082 306.01757 
L 414.84081 310.32985 
L 419.913537 314.102205 
L 424.986264 317.319745 
L 430.058991 319.969774 
L 435.131719 322.041832 
L 440.204446 323.527743 
L 445.277173 324.421641 
L 450.349901 324.72 
L 455.422628 324.421641 
L 460.495355 323.527743 
L 465.568082 322.041832 
L 470.64081 319.969774 
L 475.713537 317.319745 
L 480.786264 314.102205 
L 485.858991 310.32985 
L 490.931719 306.01757 
L 496.004446 301.182382 
L 501.077173 295.84337 
L 506.149901 290.021602 
L 511.222628 283.740056 
L 516.295355 277.023522 
L 521.368082 269.898507 
L 526.44081 262.39313 
L 531.513537 254.537011 
L 536.586264 246.361156 
L 541.658991 237.897829 
L 546.731719 229.180432 
L 551.804446 220.24337 
L 556.877173 211.121911 
L 561.949901 201.852055 
L 567.022628 192.470385 
L 572.095355 183.013927 
L 577.168082 173.52 
" clip-path="url(#pecfc42dd46)" style="fill: none; stroke: #0173b2; stroke-width: 1.5; stroke-linecap: round"/>
   </g>
   <g id="line2d_18">
    <path d="M 69.895355 22.32 
L 74.968082 22.618359 
L 80.04081 23.512257 
L 85.113537 24.998168 
L 90.186264 27.070226 
L 95.258991 29.720255 
L 100.331719 32.937795 
L 105.404446 36.71015 
L 110.477173 41.02243 
L 115.549901 45.857618 
L 120.622628 51.19663 
L 125.695355 57.018398 
L 130.768082 63.299944 
L 135.84081 70.016478 
L 140.913537 77.141493 
L 145.986264 84.64687 
L 151.058991 92.502989 
L 156.131719 100.678844 
L 161.204446 109.142171 
L 166.277173 117.859568 
L 171.349901 126.79663 
L 176.422628 135.918089 
L 181.495355 145.187945 
L 186.568082 154.569615 
L 191.64081 164.026073 
L 196.713537 173.52 
L 201.786264 183.013927 
L 206.858991 192.470385 
L 211.931719 201.852055 
L 217.004446 211.121911 
L 222.077173 220.24337 
L 227.149901 229.180432 
L 232.222628 237.897829 
L 237.295355 246.361156 
L 242.368082 254.537011 
L 247.44081 262.39313 
L 252.513537 269.898507 
L 257.586264 277.023522 
L 262.658991 283.740056 
L 267.731719 290.021602 
L 272.804446 295.84337 
L 277.877173 301.182382 
L 282.949901 306.01757 
L 288.022628 310.32985 
L 293.095355 314.102205 
L 298.168082 317.319745 
L 303.24081 319.969774 
L 308.313537 322.041832 
L 313.386264 323.527743 
L 318.458991 324.421641 
L 323.531719 324.72 
L 328.604446 324.421641 
L 333.677173 323.527743 
L 338.749901 322.041832 
L 343.822628 319.969774 
L 348.895355 317.319745 
L 353.968082 314.102205 
L 359.04081 310.32985 
L 364.113537 306.01757 
L 369.186264 301.182382 
L 374.258991 295.84337 
L 379.331719 290.021602 
L 384.404446 283.740056 
L 389.477173 277.023522 
L 394.549901 269.898507 
L 399.622628 262.39313 
L 404.695355 254.537011 
L 409.768082 246.361156 
L 414.84081 237.897829 
L 419.913537 229.180432 
L 424.986264 220.24337 
L 430.058991 211.121911 
L 435.131719 201.852055 
L 440.204446 192.470385 
L 445.277173 183.013927 
L 450.349901 173.52 
L 455.422628 164.026073 
L 460.495355 154.569615 
L 465.568082 145.187945 
L 470.64081 135.918089 
L 475.713537 126.79663 
L 480.786264 117.859568 
L 485.858991 109.142171 
L 490.931719 100.678844 
L 496.004446 92.502989 
L 501.077173 84.64687 
L 506.149901 77.141493 
L 511.222628 70.016478 
L 516.295355 63.299944 
L 521.368082 57.018398 
L 526.44081 51.19663 
L 531.513537 45.857618 
L 536.586264 41.02243 
L 541.658991 36.71015 
L 546.731719 32.937795 
L 551.804446 29.720255 
L 556.877173 27.070226 
L 561.949901 24.998168 
L 567.022628 23.512257 
L 572.095355 22.618359 
L 577.168082 22.32 
" clip-path="url(#pecfc42dd46)" style="fill: none; stroke: #d55e00; stroke-width: 1.5; stroke-linecap: round"/>
   </g>
   <g id="patch_3">
    <path d="M 44.531719 339.84 
L 44.531719 7.2 
" style="fill: none; stroke: #ffffff; stroke-width: 1.25; stroke-linejoin: miter; stroke-linecap: square"/>
   </g>
   <g id="patch_4">
    <path d="M 602.531719 339.84 
L 602.531719 7.2 
" style="fill: none; stroke: #ffffff; stroke-width: 1.25; stroke-linejoin: miter; stroke-linecap: square"/>
   </g>
   <g id="patch_5">
    <path d="M 44.531719 339.84 
L 602.531719 339.84 
" style="fill: none; stroke: #ffffff; stroke-width: 1.25; stroke-linejoin: miter; stroke-linecap: square"/>
   </g>
   <g id="patch_6">
    <path d="M 44.531719 7.2 
L 602.531719 7.2 
" style="fill: none; stroke: #ffffff; stroke-width: 1.25; stroke-linejoin: miter; stroke-linecap: square"/>
   </g>
  </g>
 </g>
 <defs>
  <clipPath id="pecfc42dd46">
   <rect x="44.531719" y="7.2" width="558" height="332.64"/>
  </clipPath>
 </defs>
</svg>