<?xml version="1.0" encoding="utf-8" standalone="no"?>
<!DOCTYPE svg PUBLIC "-//W3C//DTD SVG 1.1//EN"
  "http://www.w3.org/Graphics/SVG/1.1/DTD/svg11.dtd">
<svg xmlns:xlink="http://www.w3.org/1999/xlink" width="603.307031pt" height="366.599844pt" viewBox="0 0 603.307031 366.599844" xmlns="http://www.w3.org/2000/svg" version="1.1">
 <metadata>
  <rdf:RDF xmlns:dc="http://purl.org/dc/elements/1.1/" xmlns:cc="http://creativecommons.org/ns#" xmlns:rdf="http://www.w3.org/1999/02/22-rdf-syntax-ns#">
   <cc:Work>
    <dc:type rdf:resource="http://purl.org/dc/dcmitype/StillImage"/>
    <dc:date>2023-05-08T00:42:23.965203</dc:date>
    <dc:format>image/svg+xml</dc:format>
    <dc:creator>
     <cc:Agent>
      <dc:title>Matplotlib v3.7.1, https://matplotlib.org/</dc:title>
     </cc:Agent>
    </dc:creator>
   </cc:Work>
  </rdf:RDF>
 </metadata>
 <defs>
  <style type="text/css">*{stroke-linejoin: round; stroke-linecap: butt}</style>
 </defs>
 <g id="figure_1">
  <g id="patch_1">
   <path d="M 0 366.599844 
L 603.307031 366.599844 
L 603.307031 0 
L 0 0 
z
" style="fill: #ffffff"/>
  </g>
  <g id="axes_1">
   <g id="patch_2">
    <path d="M 38.107031 339.84 
L 596.107031 339.84 
L 596.107031 7.2 
L 38.107031 7.2 
z
" style="fill: #eaeaf2"/>
   </g>
   <g id="matplotlib.axis_1">
    <g id="xtick_1">
     <g id="line2d_1">
      <path d="M 63.470668 339.84 
L 63.470668 7.2 
" clip-path="url(#p1c148c3429)" style="fill: none; stroke: #ffffff; stroke-linecap: round"/>
     </g>
     <g id="text_1">
      <!-- 0.0 -->
      <g style="fill: #262626" transform="translate(55.825668 357.213594) scale(0.11 -0.11)">
       <defs>
        <path id="ArialMT-30" d="M 266 2259 
Q 266 3072 433 3567 
Q 600 4063 929 4331 
Q 1259 4600 1759 4600 
Q 2128 4600 2406 4451 
Q 2684 4303 2865 4023 
Q 3047 3744 3150 3342 
Q 3253 2941 3253 2259 
Q 3253 1453 3087 958 
Q 2922 463 2592 192 
Q 2263 -78 1759 -78 
Q 1097 -78 719 397 
Q 266 969 266 2259 
z
M 844 2259 
Q 844 1131 1108 757 
Q 1372 384 1759 384 
Q 2147 384 2411 759 
Q 2675 1134 2675 2259 
Q 2675 3391 2411 3762 
Q 2147 4134 1753 4134 
Q 1366 4134 1134 3806 
Q 844 3388 844 2259 
z
" transform="scale(0.015625)"/>
        <path id="ArialMT-2e" d="M 581 0 
L 581 641 
L 1222 641 
L 1222 0 
L 581 0 
z
" transform="scale(0.015625)"/>
       </defs>
       <use xlink:href="#ArialMT-30"/>
       <use xlink:href="#ArialMT-2e" x="55.615234"/>
       <use xlink:href="#ArialMT-30" x="83.398438"/>
      </g>
     </g>
    </g>
    <g id="xtick_2">
     <g id="line2d_2">
      <path d="M 126.911479 339.84 
L 126.911479 7.2 
" clip-path="url(#p1c148c3429)" style="fill: none; stroke: #ffffff; stroke-linecap: round"/>
     </g>
     <g id="text_2">
      <!-- 2.5 -->
      <g style="fill: #262626" transform="translate(119.266479 357.213594) scale(0.11 -0.11)">
       <defs>
        <path id="ArialMT-32" d="M 3222 541 
L 3222 0 
L 194 0 
Q 188 203 259 391 
Q 375 700 629 1000 
Q 884 1300 1366 1694 
Q 2113 2306 2375 2664 
Q 2638 3022 2638 3341 
Q 2638 3675 2398 3904 
Q 2159 4134 1775 4134 
Q 1369 4134 1125 3890 
Q 881 3647 878 3216 
L 300 3275 
Q 359 3922 746 4261 
Q 1134 4600 1788 4600 
Q 2447 4600 2831 4234 
Q 3216 3869 3216 3328 
Q 3216 3053 3103 2787 
Q 2991 2522 2730 2228 
Q 2469 1934 1863 1422 
Q 1356 997 1212 845 
Q 1069 694 975 541 
L 3222 541 
z
" transform="scale(0.015625)"/>
        <path id="ArialMT-35" d="M 266 1200 
L 856 1250 
Q 922 819 1161 601 
Q 1400 384 1738 384 
Q 2144 384 2425 690 
Q 2706 997 2706 1503 
Q 2706 1984 2436 2262 
Q 2166 2541 1728 2541 
Q 1456 2541 1237 2417 
Q 1019 2294 894 2097 
L 366 2166 
L 809 4519 
L 3088 4519 
L 3088 3981 
L 1259 3981 
L 1013 2750 
Q 1425 3038 1878 3038 
Q 2478 3038 2890 2622 
Q 3303 2206 3303 1553 
Q 3303 931 2941 478 
Q 2500 -78 1738 -78 
Q 1113 -78 717 272 
Q 322 622 266 1200 
z
" transform="scale(0.015625)"/>
       </defs>
       <use xlink:href="#ArialMT-32"/>
       <use xlink:href="#ArialMT-2e" x="55.615234"/>
       <use xlink:href="#ArialMT-35" x="83.398438"/>
      </g>
     </g>
    </g>
    <g id="xtick_3">
     <g id="line2d_3">
      <path d="M 190.35229 339.84 
L 190.35229 7.2 
" clip-path="url(#p1c148c3429)" style="fill: none; stroke: #ffffff; stroke-linecap: round"/>
     </g>
     <g id="text_3">
      <!-- 5.0 -->
      <g style="fill: #262626" transform="translate(182.70729 357.213594) scale(0.11 -0.11)">
       <use xlink:href="#ArialMT-35"/>
       <use xlink:href="#ArialMT-2e" x="55.615234"/>
       <use xlink:href="#ArialMT-30" x="83.398438"/>
      </g>
     </g>
    </g>
    <g id="xtick_4">
     <g id="line2d_4">
      <path d="M 253.793102 339.84 
L 253.793102 7.2 
" clip-path="url(#p1c148c3429)" style="fill: none; stroke: #ffffff; stroke-linecap: round"/>
     </g>
     <g id="text_4">
      <!-- 7.5 -->
      <g style="fill: #262626" transform="translate(246.148102 357.213594) scale(0.11 -0.11)">
       <defs>
        <path id="ArialMT-37" d="M 303 3981 
L 303 4522 
L 3269 4522 
L 3269 4084 
Q 2831 3619 2401 2847 
Q 1972 2075 1738 1259 
Q 1569 684 1522 0 
L 944 0 
Q 953 541 1156 1306 
Q 1359 2072 1739 2783 
Q 2119 3494 2547 3981 
L 303 3981 
z
" transform="scale(0.015625)"/>
       </defs>
       <use xlink:href="#ArialMT-37"/>
       <use xlink:href="#ArialMT-2e" x="55.615234"/>
       <use xlink:href="#ArialMT-35" x="83.398438"/>
      </g>
     </g>
    </g>
    <g id="xtick_5">
     <g id="line2d_5">
      <path d="M 317.233913 339.84 
L 317.233913 7.2 
" clip-path="url(#p1c148c3429)" style="fill: none; stroke: #ffffff; stroke-linecap: round"/>
     </g>
     <g id="text_5">
      <!-- 10.0 -->
      <g style="fill: #262626" transform="translate(306.530397 357.213594) scale(0.11 -0.11)">
       <defs>
        <path id="ArialMT-31" d="M 2384 0 
L 1822 0 
L 1822 3584 
Q 1619 3391 1289 3197 
Q 959 3003 697 2906 
L 697 3450 
Q 1169 3672 1522 3987 
Q 1875 4303 2022 4600 
L 2384 4600 
L 2384 0 
z
" transform="scale(0.015625)"/>
       </defs>
       <use xlink:href="#ArialMT-31"/>
       <use xlink:href="#ArialMT-30" x="55.615234"/>
       <use xlink:href="#ArialMT-2e" x="111.230469"/>
       <use xlink:href="#ArialMT-30" x="139.013672"/>
      </g>
     </g>
    </g>
    <g id="xtick_6">
     <g id="line2d_6">
      <path d="M 380.674724 339.84 
L 380.674724 7.2 
" clip-path="url(#p1c148c3429)" style="fill: none; stroke: #ffffff; stroke-linecap: round"/>
     </g>
     <g id="text_6">
      <!-- 12.5 -->
      <g style="fill: #262626" transform="translate(369.971209 357.213594) scale(0.11 -0.11)">
       <use xlink:href="#ArialMT-31"/>
       <use xlink:href="#ArialMT-32" x="55.615234"/>
       <use xlink:href="#ArialMT-2e" x="111.230469"/>
       <use xlink:href="#ArialMT-35" x="139.013672"/>
      </g>
     </g>
    </g>
    <g id="xtick_7">
     <g id="line2d_7">
      <path d="M 444.115536 339.84 
L 444.115536 7.2 
" clip-path="url(#p1c148c3429)" style="fill: none; stroke: #ffffff; stroke-linecap: round"/>
     </g>
     <g id="text_7">
      <!-- 15.0 -->
      <g style="fill: #262626" transform="translate(433.41202 357.213594) scale(0.11 -0.11)">
       <use xlink:href="#ArialMT-31"/>
       <use xlink:href="#ArialMT-35" x="55.615234"/>
       <use xlink:href="#ArialMT-2e" x="111.230469"/>
       <use xlink:href="#ArialMT-30" x="139.013672"/>
      </g>
     </g>
    </g>
    <g id="xtick_8">
     <g id="line2d_8">
      <path d="M 507.556347 339.84 
L 507.556347 7.2 
" clip-path="url(#p1c148c3429)" style="fill: none; stroke: #ffffff; stroke-linecap: round"/>
     </g>
     <g id="text_8">
      <!-- 17.5 -->
      <g style="fill: #262626" transform="translate(496.852831 357.213594) scale(0.11 -0.11)">
       <use xlink:href="#ArialMT-31"/>
       <use xlink:href="#ArialMT-37" x="55.615234"/>
       <use xlink:href="#ArialMT-2e" x="111.230469"/>
       <use xlink:href="#ArialMT-35" x="139.013672"/>
      </g>
     </g>
    </g>
    <g id="xtick_9">
     <g id="line2d_9">
      <path d="M 570.997158 339.84 
L 570.997158 7.2 
" clip-path="url(#p1c148c3429)" style="fill: none; stroke: #ffffff; stroke-linecap: round"/>
     </g>
     <g id="text_9">
      <!-- 20.0 -->
      <g style="fill: #262626" transform="translate(560.293643 357.213594) scale(0.11 -0.11)">
       <use xlink:href="#ArialMT-32"/>
       <use xlink:href="#ArialMT-30" x="55.615234"/>
       <use xlink:href="#ArialMT-2e" x="111.230469"/>
       <use xlink:href="#ArialMT-30" x="139.013672"/>
      </g>
     </g>
    </g>
   </g>
   <g id="matplotlib.axis_2">
    <g id="ytick_1">
     <g id="line2d_10">
      <path d="M 38.107031 324.72 
L 596.107031 324.72 
" clip-path="url(#p1c148c3429)" style="fill: none; stroke: #ffffff; stroke-linecap: round"/>
     </g>
     <g id="text_10">
      <!-- 0.00 -->
      <g style="fill: #262626" transform="translate(7.2 328.656797) scale(0.11 -0.11)">
       <use xlink:href="#ArialMT-30"/>
       <use xlink:href="#ArialMT-2e" x="55.615234"/>
       <use xlink:href="#ArialMT-30" x="83.398438"/>
       <use xlink:href="#ArialMT-30" x="139.013672"/>
      </g>
     </g>
    </g>
    <g id="ytick_2">
     <g id="line2d_11">
      <path d="M 38.107031 264.24 
L 596.107031 264.24 
" clip-path="url(#p1c148c3429)" style="fill: none; stroke: #ffffff; stroke-linecap: round"/>
     </g>
     <g id="text_11">
      <!-- 0.05 -->
      <g style="fill: #262626" transform="translate(7.2 268.176797) scale(0.11 -0.11)">
       <use xlink:href="#ArialMT-30"/>
       <use xlink:href="#ArialMT-2e" x="55.615234"/>
       <use xlink:href="#ArialMT-30" x="83.398438"/>
       <use xlink:href="#ArialMT-35" x="139.013672"/>
      </g>
     </g>
    </g>
    <g id="ytick_3">
     <g id="line2d_12">
      <path d="M 38.107031 203.76 
L 596.107031 203.76 
" clip-path="url(#p1c148c3429)" style="fill: none; stroke: #ffffff; stroke-linecap: round"/>
     </g>
     <g id="text_12">
      <!-- 0.10 -->
      <g style="fill: #262626" transform="translate(7.2 207.696797) scale(0.11 -0.11)">
       <use xlink:href="#ArialMT-30"/>
       <use xlink:href="#ArialMT-2e" x="55.615234"/>
       <use xlink:href="#ArialMT-31" x="83.398438"/>
       <use xlink:href="#ArialMT-30" x="139.013672"/>
      </g>
     </g>
    </g>
    <g id="ytick_4">
     <g id="line2d_13">
      <path d="M 38.107031 143.28 
L 596.107031 143.28 
" clip-path="url(#p1c148c3429)" style="fill: none; stroke: #ffffff; stroke-linecap: round"/>
     </g>
     <g id="text_13">
      <!-- 0.15 -->
      <g style="fill: #262626" transform="translate(7.2 147.216797) scale(0.11 -0.11)">
       <use xlink:href="#ArialMT-30"/>
       <use xlink:href="#ArialMT-2e" x="55.615234"/>
       <use xlink:href="#ArialMT-31" x="83.398438"/>
       <use xlink:href="#ArialMT-35" x="139.013672"/>
      </g>
     </g>
    </g>
    <g id="ytick_5">
     <g id="line2d_14">
      <path d="M 38.107031 82.8 
L 596.107031 82.8 
" clip-path="url(#p1c148c3429)" style="fill: none; stroke: #ffffff; stroke-linecap: round"/>
     </g>
     <g id="text_14">
      <!-- 0.20 -->
      <g style="fill: #262626" transform="translate(7.2 86.736797) scale(0.11 -0.11)">
       <use xlink:href="#ArialMT-30"/>
       <use xlink:href="#ArialMT-2e" x="55.615234"/>
       <use xlink:href="#ArialMT-32" x="83.398438"/>
       <use xlink:href="#ArialMT-30" x="139.013672"/>
      </g>
     </g>
    </g>
    <g id="ytick_6">
     <g id="line2d_15">
      <path d="M 38.107031 22.32 
L 596.107031 22.32 
" clip-path="url(#p1c148c3429)" style="fill: none; stroke: #ffffff; stroke-linecap: round"/>
     </g>
     <g id="text_15">
      <!-- 0.25 -->
      <g style="fill: #262626" transform="translate(7.2 26.256797) scale(0.11 -0.11)">
       <use xlink:href="#ArialMT-30"/>
       <use xlink:href="#ArialMT-2e" x="55.615234"/>
       <use xlink:href="#ArialMT-32" x="83.398438"/>
       <use xlink:href="#ArialMT-35" x="139.013672"/>
      </g>
     </g>
    </g>
   </g>
   <g id="PolyCollection_1">
    <defs>
     <path id="m566d714f48" d="M 63.470668 -41.879844 
L 63.470668 -344.279844 
L 63.724431 -343.524788 
L 63.978194 -342.771617 
L 64.231957 -342.020328 
L 64.485721 -341.270913 
L 64.739484 -340.523371 
L 64.993247 -339.777694 
L 65.24701 -339.03388 
L 65.500774 -338.291923 
L 65.754537 -337.551818 
L 66.0083 -336.813561 
L 66.262063 -336.077148 
L 66.515827 -335.342573 
L 66.76959 -334.609833 
L 67.023353 -333.878922 
L 67.277116 -333.149836 
L 67.53088 -332.42257 
L 67.784643 -331.697121 
L 68.038406 -330.973482 
L 68.292169 -330.251651 
L 68.545933 -329.531622 
L 68.799696 -328.81339 
L 69.053459 -328.096952 
L 69.307222 -327.382303 
L 69.560985 -326.669439 
L 69.814749 -325.958354 
L 70.068512 -325.249045 
L 70.322275 -324.541506 
L 70.576038 -323.835735 
L 70.829802 -323.131726 
L 71.083565 -322.429474 
L 71.337328 -321.728976 
L 71.591091 -321.030227 
L 71.844855 -320.333223 
L 72.098618 -319.637959 
L 72.352381 -318.944431 
L 72.606144 -318.252634 
L 72.859908 -317.562565 
L 73.113671 -316.874219 
L 73.367434 -316.187592 
L 73.621197 -315.502679 
L 73.874961 -314.819476 
L 74.128724 -314.137979 
L 74.382487 -313.458184 
L 74.63625 -312.780086 
L 74.890014 -312.103682 
L 75.143777 -311.428966 
L 75.39754 -310.755935 
L 75.651303 -310.084584 
L 75.905067 -309.414909 
L 76.15883 -308.746907 
L 76.412593 -308.080573 
L 76.666356 -307.415902 
L 76.92012 -306.752891 
L 77.173883 -306.091535 
L 77.427646 -305.431831 
L 77.681409 -304.773774 
L 77.935173 -304.11736 
L 78.188936 -303.462585 
L 78.442699 -302.809445 
L 78.696462 -302.157936 
L 78.950226 -301.508053 
L 79.203989 -300.859793 
L 79.457752 -300.213152 
L 79.711515 -299.568126 
L 79.965279 -298.924709 
L 80.219042 -298.2829 
L 80.472805 -297.642693 
L 80.726568 -297.004084 
L 80.980332 -296.36707 
L 81.234095 -295.731647 
L 81.487858 -295.09781 
L 81.741621 -294.465556 
L 81.995385 -293.83488 
L 82.249148 -293.205779 
L 82.502911 -292.578249 
L 82.756674 -291.952286 
L 83.010437 -291.327886 
L 83.264201 -290.705044 
L 83.517964 -290.083758 
L 83.771727 -289.464023 
L 84.02549 -288.845836 
L 84.279254 -288.229192 
L 84.533017 -287.614088 
L 84.78678 -287.00052 
L 85.040543 -286.388483 
L 85.294307 -285.777975 
L 85.54807 -285.168991 
L 85.801833 -284.561528 
L 86.055596 -283.955582 
L 86.30936 -283.351148 
L 86.563123 -282.748224 
L 86.816886 -282.146805 
L 87.070649 -281.546888 
L 87.324413 -280.948469 
L 87.578176 -280.351544 
L 87.831939 -279.756109 
L 88.085702 -279.162161 
L 88.339466 -278.569696 
L 88.593229 -277.978711 
L 88.846992 -277.389201 
L 89.100755 -276.801163 
L 89.354519 -276.214593 
L 89.608282 -275.629488 
L 89.862045 -275.045843 
L 90.115808 -274.463656 
L 90.369572 -273.882923 
L 90.623335 -273.30364 
L 90.877098 -272.725803 
L 91.130861 -272.149409 
L 91.384625 -271.574454 
L 91.638388 -271.000934 
L 91.892151 -270.428847 
L 92.145914 -269.858188 
L 92.399678 -269.288954 
L 92.653441 -268.721142 
L 92.907204 -268.154747 
L 93.160967 -267.589766 
L 93.414731 -267.026196 
L 93.668494 -266.464033 
L 93.922257 -265.903274 
L 94.17602 -265.343915 
L 94.429784 -264.785952 
L 94.683547 -264.229383 
L 94.93731 -263.674203 
L 95.191073 -263.12041 
L 95.444837 -262.567999 
L 95.6986 -262.016968 
L 95.952363 -261.467313 
L 96.206126 -260.91903 
L 96.459889 -260.372115 
L 96.713653 -259.826567 
L 96.967416 -259.282381 
L 97.221179 -258.739553 
L 97.474942 -258.198081 
L 97.728706 -257.657961 
L 97.982469 -257.119189 
L 98.236232 -256.581763 
L 98.489995 -256.045679 
L 98.743759 -255.510933 
L 98.997522 -254.977522 
L 99.251285 -254.445443 
L 99.505048 -253.914693 
L 99.758812 -253.385268 
L 100.012575 -252.857165 
L 100.266338 -252.33038 
L 100.520101 -251.804911 
L 100.773865 -251.280754 
L 101.027628 -250.757905 
L 101.281391 -250.236362 
L 101.535154 -249.716122 
L 101.535154 -41.879844 
L 101.535154 -41.879844 
L 101.281391 -41.879844 
L 101.027628 -41.879844 
L 100.773865 -41.879844 
L 100.520101 -41.879844 
L 100.266338 -41.879844 
L 100.012575 -41.879844 
L 99.758812 -41.879844 
L 99.505048 -41.879844 
L 99.251285 -41.879844 
L 98.997522 -41.879844 
L 98.743759 -41.879844 
L 98.489995 -41.879844 
L 98.236232 -41.879844 
L 97.982469 -41.879844 
L 97.728706 -41.879844 
L 97.474942 -41.879844 
L 97.221179 -41.879844 
L 96.967416 -41.879844 
L 96.713653 -41.879844 
L 96.459889 -41.879844 
L 96.206126 -41.879844 
L 95.952363 -41.879844 
L 95.6986 -41.879844 
L 95.444837 -41.879844 
L 95.191073 -41.879844 
L 94.93731 -41.879844 
L 94.683547 -41.879844 
L 94.429784 -41.879844 
L 94.17602 -41.879844 
L 93.922257 -41.879844 
L 93.668494 -41.879844 
L 93.414731 -41.879844 
L 93.160967 -41.879844 
L 92.907204 -41.879844 
L 92.653441 -41.879844 
L 92.399678 -41.879844 
L 92.145914 -41.879844 
L 91.892151 -41.879844 
L 91.638388 -41.879844 
L 91.384625 -41.879844 
L 91.130861 -41.879844 
L 90.877098 -41.879844 
L 90.623335 -41.879844 
L 90.369572 -41.879844 
L 90.115808 -41.879844 
L 89.862045 -41.879844 
L 89.608282 -41.879844 
L 89.354519 -41.879844 
L 89.100755 -41.879844 
L 88.846992 -41.879844 
L 88.593229 -41.879844 
L 88.339466 -41.879844 
L 88.085702 -41.879844 
L 87.831939 -41.879844 
L 87.578176 -41.879844 
L 87.324413 -41.879844 
L 87.070649 -41.879844 
L 86.816886 -41.879844 
L 86.563123 -41.879844 
L 86.30936 -41.879844 
L 86.055596 -41.879844 
L 85.801833 -41.879844 
L 85.54807 -41.879844 
L 85.294307 -41.879844 
L 85.040543 -41.879844 
L 84.78678 -41.879844 
L 84.533017 -41.879844 
L 84.279254 -41.879844 
L 84.02549 -41.879844 
L 83.771727 -41.879844 
L 83.517964 -41.879844 
L 83.264201 -41.879844 
L 83.010437 -41.879844 
L 82.756674 -41.879844 
L 82.502911 -41.879844 
L 82.249148 -41.879844 
L 81.995385 -41.879844 
L 81.741621 -41.879844 
L 81.487858 -41.879844 
L 81.234095 -41.879844 
L 80.980332 -41.879844 
L 80.726568 -41.879844 
L 80.472805 -41.879844 
L 80.219042 -41.879844 
L 79.965279 -41.879844 
L 79.711515 -41.879844 
L 79.457752 -41.879844 
L 79.203989 -41.879844 
L 78.950226 -41.879844 
L 78.696462 -41.879844 
L 78.442699 -41.879844 
L 78.188936 -41.879844 
L 77.935173 -41.879844 
L 77.681409 -41.879844 
L 77.427646 -41.879844 
L 77.173883 -41.879844 
L 76.92012 -41.879844 
L 76.666356 -41.879844 
L 76.412593 -41.879844 
L 76.15883 -41.879844 
L 75.905067 -41.879844 
L 75.651303 -41.879844 
L 75.39754 -41.879844 
L 75.143777 -41.879844 
L 74.890014 -41.879844 
L 74.63625 -41.879844 
L 74.382487 -41.879844 
L 74.128724 -41.879844 
L 73.874961 -41.879844 
L 73.621197 -41.879844 
L 73.367434 -41.879844 
L 73.113671 -41.879844 
L 72.859908 -41.879844 
L 72.606144 -41.879844 
L 72.352381 -41.879844 
L 72.098618 -41.879844 
L 71.844855 -41.879844 
L 71.591091 -41.879844 
L 71.337328 -41.879844 
L 71.083565 -41.879844 
L 70.829802 -41.879844 
L 70.576038 -41.879844 
L 70.322275 -41.879844 
L 70.068512 -41.879844 
L 69.814749 -41.879844 
L 69.560985 -41.879844 
L 69.307222 -41.879844 
L 69.053459 -41.879844 
L 68.799696 -41.879844 
L 68.545933 -41.879844 
L 68.292169 -41.879844 
L 68.038406 -41.879844 
L 67.784643 -41.879844 
L 67.53088 -41.879844 
L 67.277116 -41.879844 
L 67.023353 -41.879844 
L 66.76959 -41.879844 
L 66.515827 -41.879844 
L 66.262063 -41.879844 
L 66.0083 -41.879844 
L 65.754537 -41.879844 
L 65.500774 -41.879844 
L 65.24701 -41.879844 
L 64.993247 -41.879844 
L 64.739484 -41.879844 
L 64.485721 -41.879844 
L 64.231957 -41.879844 
L 63.978194 -41.879844 
L 63.724431 -41.879844 
L 63.470668 -41.879844 
z
" style="stroke: #bfbfbf"/>
    </defs>
    <g clip-path="url(#p1c148c3429)">
     <use xlink:href="#m566d714f48" x="0" y="366.599844" style="fill: #bfbfbf; stroke: #bfbfbf"/>
    </g>
   </g>
   <g id="line2d_16">
    <path d="M 63.470668 22.32 
L 68.292169 36.348193 
L 73.113671 49.725625 
L 77.935173 62.482484 
L 83.010437 75.271958 
L 88.085702 87.437683 
L 93.160967 99.010078 
L 98.236232 110.018081 
L 103.311497 120.489217 
L 108.386762 130.44967 
L 113.462027 139.924346 
L 118.537292 148.936936 
L 123.612557 157.509977 
L 128.687822 165.664906 
L 134.01685 173.799887 
L 139.345878 181.518799 
L 144.674906 188.842921 
L 150.003934 195.792447 
L 155.332962 202.386534 
L 160.915754 208.933191 
L 166.498545 215.129505 
L 172.081337 220.994224 
L 177.664128 226.545094 
L 183.500683 232.030922 
L 189.337237 237.210212 
L 195.173792 242.100094 
L 201.26411 246.911503 
L 207.354428 251.442717 
L 213.698509 255.882363 
L 220.04259 260.053025 
L 226.640434 264.122681 
L 233.238279 267.936224 
L 240.089886 271.642631 
L 247.195257 275.230989 
L 254.554391 278.691966 
L 262.167289 282.017791 
L 269.780186 285.103304 
L 277.646847 288.057639 
L 286.021034 290.960879 
L 294.648984 293.711832 
L 303.530698 296.309732 
L 312.919938 298.819801 
L 322.562941 301.16706 
L 332.713471 303.408419 
L 343.371527 305.532661 
L 354.53711 307.531327 
L 366.463982 309.436854 
L 379.152145 311.232671 
L 392.601597 312.906409 
L 406.812338 314.449757 
L 422.291896 315.902392 
L 438.786507 317.224891 
L 456.803698 318.443888 
L 476.597231 319.555798 
L 498.42087 320.554857 
L 522.782142 321.443582 
L 550.442335 322.225095 
L 570.743395 322.677345 
L 570.743395 322.677345 
" clip-path="url(#p1c148c3429)" style="fill: none; stroke: #0173b2; stroke-width: 1.5; stroke-linecap: round"/>
   </g>
   <g id="patch_3">
    <path d="M 38.107031 339.84 
L 38.107031 7.2 
" style="fill: none; stroke: #ffffff; stroke-width: 1.25; stroke-linejoin: miter; stroke-linecap: square"/>
   </g>
   <g id="patch_4">
    <path d="M 596.107031 339.84 
L 596.107031 7.2 
" style="fill: none; stroke: #ffffff; stroke-width: 1.25; stroke-linejoin: miter; stroke-linecap: square"/>
   </g>
   <g id="patch_5">
    <path d="M 38.107031 339.84 
L 596.107031 339.84 
" style="fill: none; stroke: #ffffff; stroke-width: 1.25; stroke-linejoin: miter; stroke-linecap: square"/>
   </g>
   <g id="patch_6">
    <path d="M 38.107031 7.2 
L 596.107031 7.2 
" style="fill: none; stroke: #ffffff; stroke-width: 1.25; stroke-linejoin: miter; stroke-linecap: square"/>
   </g>
  </g>
 </g>
 <defs>
  <clipPath id="p1c148c3429">
   <rect x="38.107031" y="7.2" width="558" height="332.64"/>
  </clipPath>
 </defs>
</svg>