<?xml version="1.0" encoding="utf-8" standalone="no"?>
<!DOCTYPE svg PUBLIC "-//W3C//DTD SVG 1.1//EN"
  "http://www.w3.org/Graphics/SVG/1.1/DTD/svg11.dtd">
<svg xmlns:xlink="http://www.w3.org/1999/xlink" width="572.4pt" height="378.189219pt" viewBox="0 0 572.4 378.189219" xmlns="http://www.w3.org/2000/svg" version="1.1">
 <metadata>
  <rdf:RDF xmlns:dc="http://purl.org/dc/elements/1.1/" xmlns:cc="http://creativecommons.org/ns#" xmlns:rdf="http://www.w3.org/1999/02/22-rdf-syntax-ns#">
   <cc:Work>
    <dc:type rdf:resource="http://purl.org/dc/dcmitype/StillImage"/>
    <dc:date>2023-05-29T12:00:42.675084</dc:date>
    <dc:format>image/svg+xml</dc:format>
    <dc:creator>
     <cc:Agent>
      <dc:title>Matplotlib v3.7.1, https://matplotlib.org/</dc:title>
     </cc:Agent>
    </dc:creator>
   </cc:Work>
  </rdf:RDF>
 </metadata>
 <defs>
  <style type="text/css">*{stroke-linejoin: round; stroke-linecap: butt}</style>
 </defs>
 <g id="figure_1">
  <g id="patch_1">
   <path d="M 0 378.189219 
L 572.4 378.189219 
L 572.4 0 
L 0 0 
z
" style="fill: #ffffff"/>
  </g>
  <g id="axes_1">
   <g id="patch_2">
    <path d="M 7.2 354.429375 
L 565.2 354.429375 
L 565.2 21.789375 
L 7.2 21.789375 
z
" style="fill: #eaeaf2"/>
   </g>
   <g id="matplotlib.axis_1">
    <g id="xtick_1">
     <g id="line2d_1">
      <path d="M 54.760475 354.429375 
L 54.760475 21.789375 
" clip-path="url(#p05a5982579)" style="fill: none; stroke: #ffffff; stroke-linecap: round"/>
     </g>
     <g id="line2d_2">
      <defs>
       <path id="md63dd297f8" d="M 0 0 
L 0 3 
" style="stroke: #808080"/>
      </defs>
      <g>
       <use xlink:href="#md63dd297f8" x="54.760475" y="354.429375" style="fill: #808080; stroke: #808080"/>
      </g>
     </g>
     <g id="text_1">
      <!-- 2.5 -->
      <g style="fill: #262626" transform="translate(47.115475 368.802969) scale(0.11 -0.11)">
       <defs>
        <path id="ArialMT-32" d="M 3222 541 
L 3222 0 
L 194 0 
Q 188 203 259 391 
Q 375 700 629 1000 
Q 884 1300 1366 1694 
Q 2113 2306 2375 2664 
Q 2638 3022 2638 3341 
Q 2638 3675 2398 3904 
Q 2159 4134 1775 4134 
Q 1369 4134 1125 3890 
Q 881 3647 878 3216 
L 300 3275 
Q 359 3922 746 4261 
Q 1134 4600 1788 4600 
Q 2447 4600 2831 4234 
Q 3216 3869 3216 3328 
Q 3216 3053 3103 2787 
Q 2991 2522 2730 2228 
Q 2469 1934 1863 1422 
Q 1356 997 1212 845 
Q 1069 694 975 541 
L 3222 541 
z
" transform="scale(0.015625)"/>
        <path id="ArialMT-2e" d="M 581 0 
L 581 641 
L 1222 641 
L 1222 0 
L 581 0 
z
" transform="scale(0.015625)"/>
        <path id="ArialMT-35" d="M 266 1200 
L 856 1250 
Q 922 819 1161 601 
Q 1400 384 1738 384 
Q 2144 384 2425 690 
Q 2706 997 2706 1503 
Q 2706 1984 2436 2262 
Q 2166 2541 1728 2541 
Q 1456 2541 1237 2417 
Q 1019 2294 894 2097 
L 366 2166 
L 809 4519 
L 3088 4519 
L 3088 3981 
L 1259 3981 
L 1013 2750 
Q 1425 3038 1878 3038 
Q 2478 3038 2890 2622 
Q 3303 2206 3303 1553 
Q 3303 931 2941 478 
Q 2500 -78 1738 -78 
Q 1113 -78 717 272 
Q 322 622 266 1200 
z
" transform="scale(0.015625)"/>
       </defs>
       <use xlink:href="#ArialMT-32"/>
       <use xlink:href="#ArialMT-2e" x="55.615234"/>
       <use xlink:href="#ArialMT-35" x="83.398438"/>
      </g>
     </g>
    </g>
    <g id="xtick_2">
     <g id="line2d_3">
      <path d="M 116.968747 354.429375 
L 116.968747 21.789375 
" clip-path="url(#p05a5982579)" style="fill: none; stroke: #ffffff; stroke-linecap: round"/>
     </g>
     <g id="line2d_4">
      <g>
       <use xlink:href="#md63dd297f8" x="116.968747" y="354.429375" style="fill: #808080; stroke: #808080"/>
      </g>
     </g>
     <g id="text_2">
      <!-- 5.0 -->
      <g style="fill: #262626" transform="translate(109.323747 368.802969) scale(0.11 -0.11)">
       <defs>
        <path id="ArialMT-30" d="M 266 2259 
Q 266 3072 433 3567 
Q 600 4063 929 4331 
Q 1259 4600 1759 4600 
Q 2128 4600 2406 4451 
Q 2684 4303 2865 4023 
Q 3047 3744 3150 3342 
Q 3253 2941 3253 2259 
Q 3253 1453 3087 958 
Q 2922 463 2592 192 
Q 2263 -78 1759 -78 
Q 1097 -78 719 397 
Q 266 969 266 2259 
z
M 844 2259 
Q 844 1131 1108 757 
Q 1372 384 1759 384 
Q 2147 384 2411 759 
Q 2675 1134 2675 2259 
Q 2675 3391 2411 3762 
Q 2147 4134 1753 4134 
Q 1366 4134 1134 3806 
Q 844 3388 844 2259 
z
" transform="scale(0.015625)"/>
       </defs>
       <use xlink:href="#ArialMT-35"/>
       <use xlink:href="#ArialMT-2e" x="55.615234"/>
       <use xlink:href="#ArialMT-30" x="83.398438"/>
      </g>
     </g>
    </g>
    <g id="xtick_3">
     <g id="line2d_5">
      <path d="M 179.17702 354.429375 
L 179.17702 21.789375 
" clip-path="url(#p05a5982579)" style="fill: none; stroke: #ffffff; stroke-linecap: round"/>
     </g>
     <g id="line2d_6">
      <g>
       <use xlink:href="#md63dd297f8" x="179.17702" y="354.429375" style="fill: #808080; stroke: #808080"/>
      </g>
     </g>
     <g id="text_3">
      <!-- 7.5 -->
      <g style="fill: #262626" transform="translate(171.53202 368.802969) scale(0.11 -0.11)">
       <defs>
        <path id="ArialMT-37" d="M 303 3981 
L 303 4522 
L 3269 4522 
L 3269 4084 
Q 2831 3619 2401 2847 
Q 1972 2075 1738 1259 
Q 1569 684 1522 0 
L 944 0 
Q 953 541 1156 1306 
Q 1359 2072 1739 2783 
Q 2119 3494 2547 3981 
L 303 3981 
z
" transform="scale(0.015625)"/>
       </defs>
       <use xlink:href="#ArialMT-37"/>
       <use xlink:href="#ArialMT-2e" x="55.615234"/>
       <use xlink:href="#ArialMT-35" x="83.398438"/>
      </g>
     </g>
    </g>
    <g id="xtick_4">
     <g id="line2d_7">
      <path d="M 241.385292 354.429375 
L 241.385292 21.789375 
" clip-path="url(#p05a5982579)" style="fill: none; stroke: #ffffff; stroke-linecap: round"/>
     </g>
     <g id="line2d_8">
      <g>
       <use xlink:href="#md63dd297f8" x="241.385292" y="354.429375" style="fill: #808080; stroke: #808080"/>
      </g>
     </g>
     <g id="text_4">
      <!-- 10.0 -->
      <g style="fill: #262626" transform="translate(230.681776 368.802969) scale(0.11 -0.11)">
       <defs>
        <path id="ArialMT-31" d="M 2384 0 
L 1822 0 
L 1822 3584 
Q 1619 3391 1289 3197 
Q 959 3003 697 2906 
L 697 3450 
Q 1169 3672 1522 3987 
Q 1875 4303 2022 4600 
L 2384 4600 
L 2384 0 
z
" transform="scale(0.015625)"/>
       </defs>
       <use xlink:href="#ArialMT-31"/>
       <use xlink:href="#ArialMT-30" x="55.615234"/>
       <use xlink:href="#ArialMT-2e" x="111.230469"/>
       <use xlink:href="#ArialMT-30" x="139.013672"/>
      </g>
     </g>
    </g>
    <g id="xtick_5">
     <g id="line2d_9">
      <path d="M 303.593564 354.429375 
L 303.593564 21.789375 
" clip-path="url(#p05a5982579)" style="fill: none; stroke: #ffffff; stroke-linecap: round"/>
     </g>
     <g id="line2d_10">
      <g>
       <use xlink:href="#md63dd297f8" x="303.593564" y="354.429375" style="fill: #808080; stroke: #808080"/>
      </g>
     </g>
     <g id="text_5">
      <!-- 12.5 -->
      <g style="fill: #262626" transform="translate(292.890049 368.802969) scale(0.11 -0.11)">
       <use xlink:href="#ArialMT-31"/>
       <use xlink:href="#ArialMT-32" x="55.615234"/>
       <use xlink:href="#ArialMT-2e" x="111.230469"/>
       <use xlink:href="#ArialMT-35" x="139.013672"/>
      </g>
     </g>
    </g>
    <g id="xtick_6">
     <g id="line2d_11">
      <path d="M 365.801837 354.429375 
L 365.801837 21.789375 
" clip-path="url(#p05a5982579)" style="fill: none; stroke: #ffffff; stroke-linecap: round"/>
     </g>
     <g id="line2d_12">
      <g>
       <use xlink:href="#md63dd297f8" x="365.801837" y="354.429375" style="fill: #808080; stroke: #808080"/>
      </g>
     </g>
     <g id="text_6">
      <!-- 15.0 -->
      <g style="fill: #262626" transform="translate(355.098321 368.802969) scale(0.11 -0.11)">
       <use xlink:href="#ArialMT-31"/>
       <use xlink:href="#ArialMT-35" x="55.615234"/>
       <use xlink:href="#ArialMT-2e" x="111.230469"/>
       <use xlink:href="#ArialMT-30" x="139.013672"/>
      </g>
     </g>
    </g>
    <g id="xtick_7">
     <g id="line2d_13">
      <path d="M 428.010109 354.429375 
L 428.010109 21.789375 
" clip-path="url(#p05a5982579)" style="fill: none; stroke: #ffffff; stroke-linecap: round"/>
     </g>
     <g id="line2d_14">
      <g>
       <use xlink:href="#md63dd297f8" x="428.010109" y="354.429375" style="fill: #808080; stroke: #808080"/>
      </g>
     </g>
     <g id="text_7">
      <!-- 17.5 -->
      <g style="fill: #262626" transform="translate(417.306594 368.802969) scale(0.11 -0.11)">
       <use xlink:href="#ArialMT-31"/>
       <use xlink:href="#ArialMT-37" x="55.615234"/>
       <use xlink:href="#ArialMT-2e" x="111.230469"/>
       <use xlink:href="#ArialMT-35" x="139.013672"/>
      </g>
     </g>
    </g>
    <g id="xtick_8">
     <g id="line2d_15">
      <path d="M 490.218381 354.429375 
L 490.218381 21.789375 
" clip-path="url(#p05a5982579)" style="fill: none; stroke: #ffffff; stroke-linecap: round"/>
     </g>
     <g id="line2d_16">
      <g>
       <use xlink:href="#md63dd297f8" x="490.218381" y="354.429375" style="fill: #808080; stroke: #808080"/>
      </g>
     </g>
     <g id="text_8">
      <!-- 20.0 -->
      <g style="fill: #262626" transform="translate(479.514866 368.802969) scale(0.11 -0.11)">
       <use xlink:href="#ArialMT-32"/>
       <use xlink:href="#ArialMT-30" x="55.615234"/>
       <use xlink:href="#ArialMT-2e" x="111.230469"/>
       <use xlink:href="#ArialMT-30" x="139.013672"/>
      </g>
     </g>
    </g>
    <g id="xtick_9">
     <g id="line2d_17">
      <path d="M 552.426654 354.429375 
L 552.426654 21.789375 
" clip-path="url(#p05a5982579)" style="fill: none; stroke: #ffffff; stroke-linecap: round"/>
     </g>
     <g id="line2d_18">
      <g>
       <use xlink:href="#md63dd297f8" x="552.426654" y="354.429375" style="fill: #808080; stroke: #808080"/>
      </g>
     </g>
     <g id="text_9">
      <!-- 22.5 -->
      <g style="fill: #262626" transform="translate(541.723138 368.802969) scale(0.11 -0.11)">
       <use xlink:href="#ArialMT-32"/>
       <use xlink:href="#ArialMT-32" x="55.615234"/>
       <use xlink:href="#ArialMT-2e" x="111.230469"/>
       <use xlink:href="#ArialMT-35" x="139.013672"/>
      </g>
     </g>
    </g>
   </g>
   <g id="matplotlib.axis_2"/>
   <g id="PolyCollection_1">
    <defs>
     <path id="mc1c97d1fff" d="M 32.563636 -38.879844 
L 32.563636 -40.518285 
L 33.556342 -40.530343 
L 34.549048 -40.573953 
L 35.541754 -40.6517 
L 36.53446 -40.761856 
L 37.527166 -40.913717 
L 38.519872 -41.096795 
L 39.512578 -41.31975 
L 40.505284 -41.579032 
L 41.49799 -41.884154 
L 42.490696 -42.229755 
L 43.483402 -42.624293 
L 44.476107 -43.065418 
L 45.468813 -43.553966 
L 46.461519 -44.102563 
L 47.454225 -44.701628 
L 48.446931 -45.346728 
L 49.439637 -46.033459 
L 50.432343 -46.777945 
L 51.425049 -47.56016 
L 52.417755 -48.387266 
L 53.410461 -49.253671 
L 54.403167 -50.151806 
L 55.395873 -51.093627 
L 56.388579 -52.067039 
L 57.381284 -53.082853 
L 58.37399 -54.109243 
L 59.366696 -55.171394 
L 60.359402 -56.25489 
L 61.352108 -57.377868 
L 62.344814 -58.522183 
L 63.33752 -59.694266 
L 64.330226 -60.917876 
L 65.322932 -62.169158 
L 66.315638 -63.479937 
L 67.308344 -64.856085 
L 68.30105 -66.266638 
L 69.293756 -67.743283 
L 70.286461 -69.309729 
L 71.279167 -70.952275 
L 72.271873 -72.647347 
L 73.264579 -74.460458 
L 74.257285 -76.351121 
L 75.249991 -78.319717 
L 76.242697 -80.384165 
L 77.235403 -82.534208 
L 78.228109 -84.799739 
L 79.220815 -87.137701 
L 80.213521 -89.550632 
L 81.206227 -92.064063 
L 82.198933 -94.676982 
L 83.191638 -97.357903 
L 84.184344 -100.109604 
L 85.17705 -102.948587 
L 86.169756 -105.833177 
L 87.162462 -108.791828 
L 88.155168 -111.81056 
L 89.147874 -114.902042 
L 90.14058 -118.046711 
L 91.133286 -121.240724 
L 92.125992 -124.501823 
L 93.118698 -127.781024 
L 94.111404 -131.130963 
L 95.10411 -134.523897 
L 96.096816 -137.943079 
L 97.089521 -141.353915 
L 98.082227 -144.824702 
L 99.074933 -148.305414 
L 100.067639 -151.799797 
L 101.060345 -155.326702 
L 102.053051 -158.855505 
L 103.045757 -162.405303 
L 104.038463 -165.94269 
L 105.031169 -169.494515 
L 106.023875 -173.030508 
L 107.016581 -176.555331 
L 108.009287 -180.068715 
L 109.001993 -183.557619 
L 109.994698 -187.065978 
L 110.987404 -190.55386 
L 111.98011 -194.002399 
L 112.972816 -197.446312 
L 113.965522 -200.809624 
L 114.958228 -204.125054 
L 115.950934 -207.423127 
L 116.94364 -210.659612 
L 117.936346 -213.877345 
L 118.929052 -217.011915 
L 119.921758 -220.124862 
L 120.914464 -223.198002 
L 121.90717 -226.22767 
L 122.899875 -229.187702 
L 123.892581 -232.145068 
L 124.885287 -235.071065 
L 125.877993 -237.964 
L 126.870699 -240.861824 
L 127.863405 -243.776729 
L 128.856111 -246.658345 
L 129.848817 -249.591195 
L 130.841523 -252.567142 
L 131.834229 -255.562548 
L 132.826935 -258.616222 
L 133.819641 -261.754397 
L 134.812347 -264.904097 
L 135.805052 -268.150717 
L 136.797758 -271.440599 
L 137.790464 -274.7784 
L 138.78317 -278.194838 
L 139.775876 -281.613377 
L 140.768582 -285.122582 
L 141.761288 -288.6194 
L 142.753994 -292.158077 
L 143.7467 -295.673078 
L 144.739406 -299.17599 
L 145.732112 -302.631383 
L 146.724818 -306.004562 
L 147.717524 -309.311729 
L 148.710229 -312.487181 
L 149.702935 -315.519463 
L 150.695641 -318.395606 
L 151.688347 -321.1021 
L 152.681053 -323.601922 
L 153.673759 -325.888095 
L 154.666465 -328.01057 
L 155.659171 -329.856238 
L 156.651877 -331.494577 
L 157.644583 -332.90726 
L 158.637289 -334.115446 
L 159.629995 -335.101613 
L 160.622701 -335.83637 
L 161.615407 -336.428962 
L 162.608112 -336.816144 
L 163.600818 -337.036614 
L 164.593524 -337.130029 
L 165.58623 -337.122284 
L 166.578936 -337.007284 
L 167.571642 -336.839139 
L 168.564348 -336.618666 
L 169.557054 -336.355711 
L 170.54976 -336.106515 
L 171.542466 -335.81246 
L 172.535172 -335.549281 
L 173.527878 -335.31915 
L 174.520584 -335.130233 
L 175.513289 -335.059553 
L 176.505995 -335.05603 
L 177.498701 -335.069613 
L 178.491407 -335.164895 
L 179.484113 -335.33128 
L 180.476819 -335.602485 
L 181.469525 -335.930693 
L 182.462231 -336.325719 
L 183.454937 -336.764304 
L 184.447643 -337.273738 
L 185.440349 -337.803355 
L 186.433055 -338.35931 
L 187.425761 -338.905577 
L 188.418466 -339.439552 
L 189.411172 -339.931005 
L 190.403878 -340.397502 
L 191.396584 -340.782928 
L 192.38929 -341.065748 
L 193.381996 -341.241059 
L 194.374702 -341.279844 
L 195.367408 -341.121127 
L 196.360114 -340.828432 
L 197.35282 -340.319158 
L 198.345526 -339.624503 
L 199.338232 -338.684862 
L 200.330938 -337.479581 
L 201.323643 -336.059481 
L 202.316349 -334.353682 
L 203.309055 -332.423093 
L 204.301761 -330.210294 
L 205.294467 -327.775141 
L 206.287173 -325.123461 
L 207.279879 -322.270161 
L 208.272585 -319.258817 
L 209.265291 -316.095344 
L 210.257997 -312.828939 
L 211.250703 -309.469944 
L 212.243409 -306.054174 
L 213.236115 -302.621754 
L 214.22882 -299.241243 
L 215.221526 -295.911667 
L 216.214232 -292.643451 
L 217.206938 -289.497382 
L 218.199644 -286.473996 
L 219.19235 -283.58792 
L 220.185056 -280.852701 
L 221.177762 -278.249698 
L 222.170468 -275.8517 
L 223.163174 -273.528293 
L 224.15588 -271.334385 
L 225.148586 -269.257288 
L 226.141292 -267.238329 
L 227.133998 -265.316621 
L 228.126703 -263.391471 
L 229.119409 -261.494622 
L 230.112115 -259.643159 
L 231.104821 -257.753236 
L 232.097527 -255.828655 
L 233.090233 -253.898751 
L 234.082939 -251.944933 
L 235.075645 -249.941474 
L 236.068351 -247.870735 
L 237.061057 -245.760745 
L 238.053763 -243.611342 
L 239.046469 -241.428951 
L 240.039175 -239.220774 
L 241.03188 -236.968591 
L 242.024586 -234.68425 
L 243.017292 -232.388831 
L 244.009998 -230.090766 
L 245.002704 -227.81231 
L 245.99541 -225.497858 
L 246.988116 -223.173394 
L 247.980822 -220.84979 
L 248.973528 -218.572345 
L 249.966234 -216.277242 
L 250.95894 -214.0028 
L 251.951646 -211.738546 
L 252.944352 -209.502896 
L 253.937057 -207.26402 
L 254.929763 -205.070967 
L 255.922469 -202.898427 
L 256.915175 -200.771629 
L 257.907881 -198.647443 
L 258.900587 -196.552372 
L 259.893293 -194.48738 
L 260.885999 -192.467024 
L 261.878705 -190.458475 
L 262.871411 -188.465052 
L 263.864117 -186.489704 
L 264.856823 -184.555321 
L 265.849529 -182.614923 
L 266.842234 -180.671309 
L 267.83494 -178.743596 
L 268.827646 -176.821007 
L 269.820352 -174.873574 
L 270.813058 -172.917565 
L 271.805764 -170.966955 
L 272.79847 -169.025553 
L 273.791176 -167.082425 
L 274.783882 -165.122096 
L 275.776588 -163.150264 
L 276.769294 -161.170531 
L 277.762 -159.207195 
L 278.754706 -157.25811 
L 279.747411 -155.302102 
L 280.740117 -153.369088 
L 281.732823 -151.433067 
L 282.725529 -149.4921 
L 283.718235 -147.576533 
L 284.710941 -145.688393 
L 285.703647 -143.817808 
L 286.696353 -141.984902 
L 287.689059 -140.163583 
L 288.681765 -138.343298 
L 289.674471 -136.597617 
L 290.667177 -134.864803 
L 291.659883 -133.128464 
L 292.652589 -131.458701 
L 293.645294 -129.806625 
L 294.638 -128.173405 
L 295.630706 -126.556938 
L 296.623412 -124.990377 
L 297.616118 -123.46203 
L 298.608824 -121.936579 
L 299.60153 -120.448283 
L 300.594236 -119.022096 
L 301.586942 -117.619823 
L 302.579648 -116.261458 
L 303.572354 -114.955553 
L 304.56506 -113.685335 
L 305.557766 -112.436427 
L 306.550471 -111.237243 
L 307.543177 -110.094178 
L 308.535883 -108.994518 
L 309.528589 -107.928042 
L 310.521295 -106.873872 
L 311.514001 -105.881993 
L 312.506707 -104.920391 
L 313.499413 -103.996717 
L 314.492119 -103.08367 
L 315.484825 -102.207255 
L 316.477531 -101.324947 
L 317.470237 -100.458943 
L 318.462943 -99.609837 
L 319.455648 -98.746832 
L 320.448354 -97.886799 
L 321.44106 -97.027838 
L 322.433766 -96.154009 
L 323.426472 -95.275488 
L 324.419178 -94.382184 
L 325.411884 -93.47751 
L 326.40459 -92.552332 
L 327.397296 -91.628479 
L 328.390002 -90.708287 
L 329.382708 -89.774144 
L 330.375414 -88.835622 
L 331.36812 -87.898339 
L 332.360825 -86.966298 
L 333.353531 -86.03181 
L 334.346237 -85.099758 
L 335.338943 -84.179977 
L 336.331649 -83.3025 
L 337.324355 -82.420522 
L 338.317061 -81.565129 
L 339.309767 -80.721106 
L 340.302473 -79.896789 
L 341.295179 -79.094038 
L 342.287885 -78.31012 
L 343.280591 -77.552701 
L 344.273297 -76.81492 
L 345.266002 -76.080261 
L 346.258708 -75.359462 
L 347.251414 -74.661553 
L 348.24412 -73.955517 
L 349.236826 -73.259872 
L 350.229532 -72.568841 
L 351.222238 -71.863355 
L 352.214944 -71.163526 
L 353.20765 -70.453089 
L 354.200356 -69.733977 
L 355.193062 -69.021757 
L 356.185768 -68.299062 
L 357.178474 -67.572117 
L 358.17118 -66.830974 
L 359.163885 -66.098574 
L 360.156591 -65.365241 
L 361.149297 -64.637064 
L 362.142003 -63.909912 
L 363.134709 -63.193136 
L 364.127415 -62.485053 
L 365.120121 -61.796551 
L 366.112827 -61.12942 
L 367.105533 -60.48695 
L 368.098239 -59.863342 
L 369.090945 -59.270323 
L 370.083651 -58.696349 
L 371.076357 -58.15749 
L 372.069062 -57.643427 
L 373.061768 -57.154217 
L 374.054474 -56.679844 
L 375.04718 -56.250872 
L 376.039886 -55.852191 
L 377.032592 -55.481574 
L 378.025298 -55.141165 
L 379.018004 -54.829199 
L 380.01071 -54.53733 
L 381.003416 -54.266598 
L 381.996122 -54.013634 
L 382.988828 -53.77118 
L 383.981534 -53.549687 
L 384.974239 -53.344026 
L 385.966945 -53.144941 
L 386.959651 -52.958266 
L 387.952357 -52.768135 
L 388.945063 -52.571992 
L 389.937769 -52.373658 
L 390.930475 -52.163715 
L 391.923181 -51.943325 
L 392.915887 -51.710574 
L 393.908593 -51.465827 
L 394.901299 -51.197019 
L 395.894005 -50.925043 
L 396.886711 -50.634748 
L 397.879416 -50.3262 
L 398.872122 -50.016629 
L 399.864828 -49.699596 
L 400.857534 -49.377548 
L 401.85024 -49.056167 
L 402.842946 -48.730714 
L 403.835652 -48.409989 
L 404.828358 -48.10119 
L 405.821064 -47.797236 
L 406.81377 -47.501202 
L 407.806476 -47.2189 
L 408.799182 -46.948204 
L 409.791888 -46.687254 
L 410.784593 -46.439954 
L 411.777299 -46.205218 
L 412.770005 -45.990119 
L 413.762711 -45.779093 
L 414.755417 -45.592467 
L 415.748123 -45.421086 
L 416.740829 -45.256557 
L 417.733535 -45.111657 
L 418.726241 -44.98076 
L 419.718947 -44.865631 
L 420.711653 -44.75839 
L 421.704359 -44.669295 
L 422.697065 -44.587964 
L 423.689771 -44.515335 
L 424.682476 -44.452571 
L 425.675182 -44.399526 
L 426.667888 -44.353335 
L 427.660594 -44.308565 
L 428.6533 -44.267054 
L 429.646006 -44.224883 
L 430.638712 -44.181975 
L 431.631418 -44.133246 
L 432.624124 -44.077464 
L 433.61683 -44.015741 
L 434.609536 -43.947427 
L 435.602242 -43.876054 
L 436.594948 -43.796222 
L 437.587653 -43.708666 
L 438.580359 -43.618025 
L 439.573065 -43.52557 
L 440.565771 -43.431278 
L 441.558477 -43.334578 
L 442.551183 -43.23841 
L 443.543889 -43.143931 
L 444.536595 -43.055779 
L 445.529301 -42.965738 
L 446.522007 -42.882956 
L 447.514713 -42.805289 
L 448.507419 -42.724085 
L 449.500125 -42.648003 
L 450.49283 -42.576046 
L 451.485536 -42.50515 
L 452.478242 -42.435424 
L 453.470948 -42.366183 
L 454.463654 -42.297612 
L 455.45636 -42.225942 
L 456.449066 -42.150686 
L 457.441772 -42.072052 
L 458.434478 -41.990937 
L 459.427184 -41.911517 
L 460.41989 -41.834013 
L 461.412596 -41.755763 
L 462.405302 -41.681513 
L 463.398007 -41.610817 
L 464.390713 -41.544754 
L 465.383419 -41.480524 
L 466.376125 -41.419763 
L 467.368831 -41.369966 
L 468.361537 -41.328495 
L 469.354243 -41.296957 
L 470.346949 -41.266315 
L 471.339655 -41.244986 
L 472.332361 -41.228029 
L 473.325067 -41.214607 
L 474.317773 -41.203688 
L 475.310479 -41.194099 
L 476.303184 -41.184585 
L 477.29589 -41.173861 
L 478.288596 -41.160671 
L 479.281302 -41.143841 
L 480.274008 -41.119151 
L 481.266714 -41.091356 
L 482.25942 -41.057512 
L 483.252126 -41.017092 
L 484.244832 -40.969811 
L 485.237538 -40.917213 
L 486.230244 -40.854291 
L 487.22295 -40.788774 
L 488.215656 -40.715459 
L 489.208362 -40.638798 
L 490.201067 -40.555986 
L 491.193773 -40.471626 
L 492.186479 -40.382996 
L 493.179185 -40.294713 
L 494.171891 -40.205592 
L 495.164597 -40.11654 
L 496.157303 -40.028372 
L 497.150009 -39.94022 
L 498.142715 -39.856303 
L 499.135421 -39.774993 
L 500.128127 -39.696732 
L 501.120833 -39.620289 
L 502.113539 -39.54796 
L 503.106244 -39.481414 
L 504.09895 -39.418678 
L 505.091656 -39.35989 
L 506.084362 -39.303547 
L 507.077068 -39.253293 
L 508.069774 -39.206979 
L 509.06248 -39.163002 
L 510.055186 -39.127084 
L 511.047892 -39.095592 
L 512.040598 -39.064901 
L 513.033304 -39.040172 
L 514.02601 -39.019218 
L 515.018716 -39.000428 
L 516.011421 -38.984206 
L 517.004127 -38.974009 
L 517.996833 -38.969154 
L 518.989539 -38.967536 
L 519.982245 -38.969201 
L 520.974951 -38.974172 
L 521.967657 -38.982447 
L 522.960363 -38.99399 
L 523.953069 -39.008727 
L 524.945775 -39.024951 
L 525.938481 -39.04609 
L 526.931187 -39.069753 
L 527.923893 -39.095643 
L 528.916598 -39.123375 
L 529.909304 -39.15248 
L 530.90201 -39.180822 
L 531.894716 -39.211388 
L 532.887422 -39.241358 
L 533.880128 -39.270045 
L 534.872834 -39.296741 
L 535.86554 -39.320752 
L 536.858246 -39.341423 
L 537.850952 -39.358168 
L 538.843658 -39.370499 
L 539.836364 -39.37805 
L 539.836364 -38.879844 
L 539.836364 -38.879844 
L 538.843658 -38.879844 
L 537.850952 -38.879844 
L 536.858246 -38.879844 
L 535.86554 -38.879844 
L 534.872834 -38.879844 
L 533.880128 -38.879844 
L 532.887422 -38.879844 
L 531.894716 -38.879844 
L 530.90201 -38.879844 
L 529.909304 -38.879844 
L 528.916598 -38.879844 
L 527.923893 -38.879844 
L 526.931187 -38.879844 
L 525.938481 -38.879844 
L 524.945775 -38.879844 
L 523.953069 -38.879844 
L 522.960363 -38.879844 
L 521.967657 -38.879844 
L 520.974951 -38.879844 
L 519.982245 -38.879844 
L 518.989539 -38.879844 
L 517.996833 -38.879844 
L 517.004127 -38.879844 
L 516.011421 -38.879844 
L 515.018716 -38.879844 
L 514.02601 -38.879844 
L 513.033304 -38.879844 
L 512.040598 -38.879844 
L 511.047892 -38.879844 
L 510.055186 -38.879844 
L 509.06248 -38.879844 
L 508.069774 -38.879844 
L 507.077068 -38.879844 
L 506.084362 -38.879844 
L 505.091656 -38.879844 
L 504.09895 -38.879844 
L 503.106244 -38.879844 
L 502.113539 -38.879844 
L 501.120833 -38.879844 
L 500.128127 -38.879844 
L 499.135421 -38.879844 
L 498.142715 -38.879844 
L 497.150009 -38.879844 
L 496.157303 -38.879844 
L 495.164597 -38.879844 
L 494.171891 -38.879844 
L 493.179185 -38.879844 
L 492.186479 -38.879844 
L 491.193773 -38.879844 
L 490.201067 -38.879844 
L 489.208362 -38.879844 
L 488.215656 -38.879844 
L 487.22295 -38.879844 
L 486.230244 -38.879844 
L 485.237538 -38.879844 
L 484.244832 -38.879844 
L 483.252126 -38.879844 
L 482.25942 -38.879844 
L 481.266714 -38.879844 
L 480.274008 -38.879844 
L 479.281302 -38.879844 
L 478.288596 -38.879844 
L 477.29589 -38.879844 
L 476.303184 -38.879844 
L 475.310479 -38.879844 
L 474.317773 -38.879844 
L 473.325067 -38.879844 
L 472.332361 -38.879844 
L 471.339655 -38.879844 
L 470.346949 -38.879844 
L 469.354243 -38.879844 
L 468.361537 -38.879844 
L 467.368831 -38.879844 
L 466.376125 -38.879844 
L 465.383419 -38.879844 
L 464.390713 -38.879844 
L 463.398007 -38.879844 
L 462.405302 -38.879844 
L 461.412596 -38.879844 
L 460.41989 -38.879844 
L 459.427184 -38.879844 
L 458.434478 -38.879844 
L 457.441772 -38.879844 
L 456.449066 -38.879844 
L 455.45636 -38.879844 
L 454.463654 -38.879844 
L 453.470948 -38.879844 
L 452.478242 -38.879844 
L 451.485536 -38.879844 
L 450.49283 -38.879844 
L 449.500125 -38.879844 
L 448.507419 -38.879844 
L 447.514713 -38.879844 
L 446.522007 -38.879844 
L 445.529301 -38.879844 
L 444.536595 -38.879844 
L 443.543889 -38.879844 
L 442.551183 -38.879844 
L 441.558477 -38.879844 
L 440.565771 -38.879844 
L 439.573065 -38.879844 
L 438.580359 -38.879844 
L 437.587653 -38.879844 
L 436.594948 -38.879844 
L 435.602242 -38.879844 
L 434.609536 -38.879844 
L 433.61683 -38.879844 
L 432.624124 -38.879844 
L 431.631418 -38.879844 
L 430.638712 -38.879844 
L 429.646006 -38.879844 
L 428.6533 -38.879844 
L 427.660594 -38.879844 
L 426.667888 -38.879844 
L 425.675182 -38.879844 
L 424.682476 -38.879844 
L 423.689771 -38.879844 
L 422.697065 -38.879844 
L 421.704359 -38.879844 
L 420.711653 -38.879844 
L 419.718947 -38.879844 
L 418.726241 -38.879844 
L 417.733535 -38.879844 
L 416.740829 -38.879844 
L 415.748123 -38.879844 
L 414.755417 -38.879844 
L 413.762711 -38.879844 
L 412.770005 -38.879844 
L 411.777299 -38.879844 
L 410.784593 -38.879844 
L 409.791888 -38.879844 
L 408.799182 -38.879844 
L 407.806476 -38.879844 
L 406.81377 -38.879844 
L 405.821064 -38.879844 
L 404.828358 -38.879844 
L 403.835652 -38.879844 
L 402.842946 -38.879844 
L 401.85024 -38.879844 
L 400.857534 -38.879844 
L 399.864828 -38.879844 
L 398.872122 -38.879844 
L 397.879416 -38.879844 
L 396.886711 -38.879844 
L 395.894005 -38.879844 
L 394.901299 -38.879844 
L 393.908593 -38.879844 
L 392.915887 -38.879844 
L 391.923181 -38.879844 
L 390.930475 -38.879844 
L 389.937769 -38.879844 
L 388.945063 -38.879844 
L 387.952357 -38.879844 
L 386.959651 -38.879844 
L 385.966945 -38.879844 
L 384.974239 -38.879844 
L 383.981534 -38.879844 
L 382.988828 -38.879844 
L 381.996122 -38.879844 
L 381.003416 -38.879844 
L 380.01071 -38.879844 
L 379.018004 -38.879844 
L 378.025298 -38.879844 
L 377.032592 -38.879844 
L 376.039886 -38.879844 
L 375.04718 -38.879844 
L 374.054474 -38.879844 
L 373.061768 -38.879844 
L 372.069062 -38.879844 
L 371.076357 -38.879844 
L 370.083651 -38.879844 
L 369.090945 -38.879844 
L 368.098239 -38.879844 
L 367.105533 -38.879844 
L 366.112827 -38.879844 
L 365.120121 -38.879844 
L 364.127415 -38.879844 
L 363.134709 -38.879844 
L 362.142003 -38.879844 
L 361.149297 -38.879844 
L 360.156591 -38.879844 
L 359.163885 -38.879844 
L 358.17118 -38.879844 
L 357.178474 -38.879844 
L 356.185768 -38.879844 
L 355.193062 -38.879844 
L 354.200356 -38.879844 
L 353.20765 -38.879844 
L 352.214944 -38.879844 
L 351.222238 -38.879844 
L 350.229532 -38.879844 
L 349.236826 -38.879844 
L 348.24412 -38.879844 
L 347.251414 -38.879844 
L 346.258708 -38.879844 
L 345.266002 -38.879844 
L 344.273297 -38.879844 
L 343.280591 -38.879844 
L 342.287885 -38.879844 
L 341.295179 -38.879844 
L 340.302473 -38.879844 
L 339.309767 -38.879844 
L 338.317061 -38.879844 
L 337.324355 -38.879844 
L 336.331649 -38.879844 
L 335.338943 -38.879844 
L 334.346237 -38.879844 
L 333.353531 -38.879844 
L 332.360825 -38.879844 
L 331.36812 -38.879844 
L 330.375414 -38.879844 
L 329.382708 -38.879844 
L 328.390002 -38.879844 
L 327.397296 -38.879844 
L 326.40459 -38.879844 
L 325.411884 -38.879844 
L 324.419178 -38.879844 
L 323.426472 -38.879844 
L 322.433766 -38.879844 
L 321.44106 -38.879844 
L 320.448354 -38.879844 
L 319.455648 -38.879844 
L 318.462943 -38.879844 
L 317.470237 -38.879844 
L 316.477531 -38.879844 
L 315.484825 -38.879844 
L 314.492119 -38.879844 
L 313.499413 -38.879844 
L 312.506707 -38.879844 
L 311.514001 -38.879844 
L 310.521295 -38.879844 
L 309.528589 -38.879844 
L 308.535883 -38.879844 
L 307.543177 -38.879844 
L 306.550471 -38.879844 
L 305.557766 -38.879844 
L 304.56506 -38.879844 
L 303.572354 -38.879844 
L 302.579648 -38.879844 
L 301.586942 -38.879844 
L 300.594236 -38.879844 
L 299.60153 -38.879844 
L 298.608824 -38.879844 
L 297.616118 -38.879844 
L 296.623412 -38.879844 
L 295.630706 -38.879844 
L 294.638 -38.879844 
L 293.645294 -38.879844 
L 292.652589 -38.879844 
L 291.659883 -38.879844 
L 290.667177 -38.879844 
L 289.674471 -38.879844 
L 288.681765 -38.879844 
L 287.689059 -38.879844 
L 286.696353 -38.879844 
L 285.703647 -38.879844 
L 284.710941 -38.879844 
L 283.718235 -38.879844 
L 282.725529 -38.879844 
L 281.732823 -38.879844 
L 280.740117 -38.879844 
L 279.747411 -38.879844 
L 278.754706 -38.879844 
L 277.762 -38.879844 
L 276.769294 -38.879844 
L 275.776588 -38.879844 
L 274.783882 -38.879844 
L 273.791176 -38.879844 
L 272.79847 -38.879844 
L 271.805764 -38.879844 
L 270.813058 -38.879844 
L 269.820352 -38.879844 
L 268.827646 -38.879844 
L 267.83494 -38.879844 
L 266.842234 -38.879844 
L 265.849529 -38.879844 
L 264.856823 -38.879844 
L 263.864117 -38.879844 
L 262.871411 -38.879844 
L 261.878705 -38.879844 
L 260.885999 -38.879844 
L 259.893293 -38.879844 
L 258.900587 -38.879844 
L 257.907881 -38.879844 
L 256.915175 -38.879844 
L 255.922469 -38.879844 
L 254.929763 -38.879844 
L 253.937057 -38.879844 
L 252.944352 -38.879844 
L 251.951646 -38.879844 
L 250.95894 -38.879844 
L 249.966234 -38.879844 
L 248.973528 -38.879844 
L 247.980822 -38.879844 
L 246.988116 -38.879844 
L 245.99541 -38.879844 
L 245.002704 -38.879844 
L 244.009998 -38.879844 
L 243.017292 -38.879844 
L 242.024586 -38.879844 
L 241.03188 -38.879844 
L 240.039175 -38.879844 
L 239.046469 -38.879844 
L 238.053763 -38.879844 
L 237.061057 -38.879844 
L 236.068351 -38.879844 
L 235.075645 -38.879844 
L 234.082939 -38.879844 
L 233.090233 -38.879844 
L 232.097527 -38.879844 
L 231.104821 -38.879844 
L 230.112115 -38.879844 
L 229.119409 -38.879844 
L 228.126703 -38.879844 
L 227.133998 -38.879844 
L 226.141292 -38.879844 
L 225.148586 -38.879844 
L 224.15588 -38.879844 
L 223.163174 -38.879844 
L 222.170468 -38.879844 
L 221.177762 -38.879844 
L 220.185056 -38.879844 
L 219.19235 -38.879844 
L 218.199644 -38.879844 
L 217.206938 -38.879844 
L 216.214232 -38.879844 
L 215.221526 -38.879844 
L 214.22882 -38.879844 
L 213.236115 -38.879844 
L 212.243409 -38.879844 
L 211.250703 -38.879844 
L 210.257997 -38.879844 
L 209.265291 -38.879844 
L 208.272585 -38.879844 
L 207.279879 -38.879844 
L 206.287173 -38.879844 
L 205.294467 -38.879844 
L 204.301761 -38.879844 
L 203.309055 -38.879844 
L 202.316349 -38.879844 
L 201.323643 -38.879844 
L 200.330938 -38.879844 
L 199.338232 -38.879844 
L 198.345526 -38.879844 
L 197.35282 -38.879844 
L 196.360114 -38.879844 
L 195.367408 -38.879844 
L 194.374702 -38.879844 
L 193.381996 -38.879844 
L 192.38929 -38.879844 
L 191.396584 -38.879844 
L 190.403878 -38.879844 
L 189.411172 -38.879844 
L 188.418466 -38.879844 
L 187.425761 -38.879844 
L 186.433055 -38.879844 
L 185.440349 -38.879844 
L 184.447643 -38.879844 
L 183.454937 -38.879844 
L 182.462231 -38.879844 
L 181.469525 -38.879844 
L 180.476819 -38.879844 
L 179.484113 -38.879844 
L 178.491407 -38.879844 
L 177.498701 -38.879844 
L 176.505995 -38.879844 
L 175.513289 -38.879844 
L 174.520584 -38.879844 
L 173.527878 -38.879844 
L 172.535172 -38.879844 
L 171.542466 -38.879844 
L 170.54976 -38.879844 
L 169.557054 -38.879844 
L 168.564348 -38.879844 
L 167.571642 -38.879844 
L 166.578936 -38.879844 
L 165.58623 -38.879844 
L 164.593524 -38.879844 
L 163.600818 -38.879844 
L 162.608112 -38.879844 
L 161.615407 -38.879844 
L 160.622701 -38.879844 
L 159.629995 -38.879844 
L 158.637289 -38.879844 
L 157.644583 -38.879844 
L 156.651877 -38.879844 
L 155.659171 -38.879844 
L 154.666465 -38.879844 
L 153.673759 -38.879844 
L 152.681053 -38.879844 
L 151.688347 -38.879844 
L 150.695641 -38.879844 
L 149.702935 -38.879844 
L 148.710229 -38.879844 
L 147.717524 -38.879844 
L 146.724818 -38.879844 
L 145.732112 -38.879844 
L 144.739406 -38.879844 
L 143.7467 -38.879844 
L 142.753994 -38.879844 
L 141.761288 -38.879844 
L 140.768582 -38.879844 
L 139.775876 -38.879844 
L 138.78317 -38.879844 
L 137.790464 -38.879844 
L 136.797758 -38.879844 
L 135.805052 -38.879844 
L 134.812347 -38.879844 
L 133.819641 -38.879844 
L 132.826935 -38.879844 
L 131.834229 -38.879844 
L 130.841523 -38.879844 
L 129.848817 -38.879844 
L 128.856111 -38.879844 
L 127.863405 -38.879844 
L 126.870699 -38.879844 
L 125.877993 -38.879844 
L 124.885287 -38.879844 
L 123.892581 -38.879844 
L 122.899875 -38.879844 
L 121.90717 -38.879844 
L 120.914464 -38.879844 
L 119.921758 -38.879844 
L 118.929052 -38.879844 
L 117.936346 -38.879844 
L 116.94364 -38.879844 
L 115.950934 -38.879844 
L 114.958228 -38.879844 
L 113.965522 -38.879844 
L 112.972816 -38.879844 
L 111.98011 -38.879844 
L 110.987404 -38.879844 
L 109.994698 -38.879844 
L 109.001993 -38.879844 
L 108.009287 -38.879844 
L 107.016581 -38.879844 
L 106.023875 -38.879844 
L 105.031169 -38.879844 
L 104.038463 -38.879844 
L 103.045757 -38.879844 
L 102.053051 -38.879844 
L 101.060345 -38.879844 
L 100.067639 -38.879844 
L 99.074933 -38.879844 
L 98.082227 -38.879844 
L 97.089521 -38.879844 
L 96.096816 -38.879844 
L 95.10411 -38.879844 
L 94.111404 -38.879844 
L 93.118698 -38.879844 
L 92.125992 -38.879844 
L 91.133286 -38.879844 
L 90.14058 -38.879844 
L 89.147874 -38.879844 
L 88.155168 -38.879844 
L 87.162462 -38.879844 
L 86.169756 -38.879844 
L 85.17705 -38.879844 
L 84.184344 -38.879844 
L 83.191638 -38.879844 
L 82.198933 -38.879844 
L 81.206227 -38.879844 
L 80.213521 -38.879844 
L 79.220815 -38.879844 
L 78.228109 -38.879844 
L 77.235403 -38.879844 
L 76.242697 -38.879844 
L 75.249991 -38.879844 
L 74.257285 -38.879844 
L 73.264579 -38.879844 
L 72.271873 -38.879844 
L 71.279167 -38.879844 
L 70.286461 -38.879844 
L 69.293756 -38.879844 
L 68.30105 -38.879844 
L 67.308344 -38.879844 
L 66.315638 -38.879844 
L 65.322932 -38.879844 
L 64.330226 -38.879844 
L 63.33752 -38.879844 
L 62.344814 -38.879844 
L 61.352108 -38.879844 
L 60.359402 -38.879844 
L 59.366696 -38.879844 
L 58.37399 -38.879844 
L 57.381284 -38.879844 
L 56.388579 -38.879844 
L 55.395873 -38.879844 
L 54.403167 -38.879844 
L 53.410461 -38.879844 
L 52.417755 -38.879844 
L 51.425049 -38.879844 
L 50.432343 -38.879844 
L 49.439637 -38.879844 
L 48.446931 -38.879844 
L 47.454225 -38.879844 
L 46.461519 -38.879844 
L 45.468813 -38.879844 
L 44.476107 -38.879844 
L 43.483402 -38.879844 
L 42.490696 -38.879844 
L 41.49799 -38.879844 
L 40.505284 -38.879844 
L 39.512578 -38.879844 
L 38.519872 -38.879844 
L 37.527166 -38.879844 
L 36.53446 -38.879844 
L 35.541754 -38.879844 
L 34.549048 -38.879844 
L 33.556342 -38.879844 
L 32.563636 -38.879844 
z
" style="stroke: #0173b2; stroke-opacity: 0"/>
    </defs>
    <g clip-path="url(#p05a5982579)">
     <use xlink:href="#mc1c97d1fff" x="0" y="378.189219" style="fill: #0173b2; fill-opacity: 0; stroke: #0173b2; stroke-opacity: 0"/>
    </g>
   </g>
   <g id="line2d_19">
    <path d="M 32.563636 337.670934 
L 35.541754 337.537519 
L 37.527166 337.275502 
L 39.512578 336.869469 
L 41.49799 336.305065 
L 43.483402 335.564925 
L 45.468813 334.635253 
L 47.454225 333.487591 
L 49.439637 332.155759 
L 52.417755 329.801953 
L 55.395873 327.095592 
L 58.37399 324.079976 
L 61.352108 320.81135 
L 64.330226 317.271343 
L 66.315638 314.709282 
L 69.293756 310.445936 
L 72.271873 305.541871 
L 74.257285 301.838098 
L 76.242697 297.805054 
L 78.228109 293.38948 
L 81.206227 286.125155 
L 84.184344 278.079615 
L 87.162462 269.397391 
L 90.14058 260.142508 
L 94.111404 247.058255 
L 100.067639 226.389422 
L 113.965522 177.379595 
L 118.929052 161.177304 
L 122.899875 149.001517 
L 134.812347 113.285122 
L 138.78317 99.994381 
L 143.7467 82.51614 
L 147.717524 68.87749 
L 149.702935 62.669755 
L 151.688347 57.087119 
L 153.673759 52.301124 
L 154.666465 50.178649 
L 156.651877 46.694642 
L 157.644583 45.281958 
L 158.637289 44.073773 
L 159.629995 43.087605 
L 160.622701 42.352849 
L 161.615407 41.760256 
L 162.608112 41.373075 
L 163.600818 41.152605 
L 165.58623 41.066935 
L 167.571642 41.35008 
L 170.54976 42.082704 
L 173.527878 42.870068 
L 174.520584 43.058986 
L 176.505995 43.133189 
L 178.491407 43.024324 
L 180.476819 42.586734 
L 182.462231 41.8635 
L 184.447643 40.91548 
L 190.403878 37.791716 
L 192.38929 37.123471 
L 193.381996 36.948159 
L 194.374702 36.909375 
L 195.367408 37.068092 
L 196.360114 37.360787 
L 197.35282 37.870061 
L 198.345526 38.564716 
L 199.338232 39.504356 
L 200.330938 40.709637 
L 201.323643 42.129738 
L 202.316349 43.835537 
L 203.309055 45.766125 
L 205.294467 50.414078 
L 207.279879 55.919058 
L 209.265291 62.093875 
L 212.243409 72.135044 
L 216.214232 85.545768 
L 218.199644 91.715223 
L 220.185056 97.336518 
L 222.170468 102.337518 
L 224.15588 106.854834 
L 227.133998 112.872597 
L 236.068351 130.318484 
L 240.039175 138.968445 
L 245.99541 152.691361 
L 252.944352 168.686322 
L 256.915175 177.41759 
L 260.885999 185.722195 
L 265.849529 195.574296 
L 286.696353 236.204317 
L 290.667177 243.324415 
L 293.645294 248.382593 
L 297.616118 254.727189 
L 300.594236 259.167123 
L 303.572354 263.233666 
L 306.550471 266.951975 
L 309.528589 270.261177 
L 312.506707 273.268828 
L 316.477531 276.864272 
L 326.40459 285.636886 
L 338.317061 296.62409 
L 342.287885 299.879099 
L 347.251414 303.527665 
L 360.156591 312.823978 
L 366.112827 317.059799 
L 369.090945 318.918896 
L 372.069062 320.545792 
L 375.04718 321.938347 
L 378.025298 323.048054 
L 381.003416 323.922621 
L 384.974239 324.845193 
L 393.908593 326.723392 
L 398.872122 328.17259 
L 408.799182 331.241014 
L 412.770005 332.199099 
L 416.740829 332.932662 
L 420.711653 333.430829 
L 425.675182 333.789692 
L 436.594948 334.392997 
L 456.449066 336.038532 
L 467.368831 336.819253 
L 473.325067 336.974612 
L 483.252126 337.172127 
L 489.208362 337.55042 
L 507.077068 338.935926 
L 514.02601 339.17 
L 520.974951 339.215047 
L 529.909304 339.036739 
L 539.836364 338.811169 
L 539.836364 338.811169 
" clip-path="url(#p05a5982579)" style="fill: none; stroke: #0173b2; stroke-width: 1.5; stroke-linecap: round"/>
   </g>
   <g id="line2d_20">
    <path d="M 79.809292 332.958975 
L 327.698373 332.958975 
" clip-path="url(#p05a5982579)" style="fill: none; stroke: #1a1a1a; stroke-width: 3"/>
   </g>
   <g id="patch_3">
    <path d="M 7.2 354.429375 
L 565.2 354.429375 
" style="fill: none; stroke: #808080; stroke-width: 1.25; stroke-linejoin: miter; stroke-linecap: square"/>
   </g>
   <g id="text_10">
    <!-- 3.5  -->
    <g style="fill: #262626" transform="translate(59.795542 317.082975) scale(0.12 -0.12)">
     <defs>
      <path id="ArialMT-33" d="M 269 1209 
L 831 1284 
Q 928 806 1161 595 
Q 1394 384 1728 384 
Q 2125 384 2398 659 
Q 2672 934 2672 1341 
Q 2672 1728 2419 1979 
Q 2166 2231 1775 2231 
Q 1616 2231 1378 2169 
L 1441 2663 
Q 1497 2656 1531 2656 
Q 1891 2656 2178 2843 
Q 2466 3031 2466 3422 
Q 2466 3731 2256 3934 
Q 2047 4138 1716 4138 
Q 1388 4138 1169 3931 
Q 950 3725 888 3313 
L 325 3413 
Q 428 3978 793 4289 
Q 1159 4600 1703 4600 
Q 2078 4600 2393 4439 
Q 2709 4278 2876 4000 
Q 3044 3722 3044 3409 
Q 3044 3113 2884 2869 
Q 2725 2625 2413 2481 
Q 2819 2388 3044 2092 
Q 3269 1797 3269 1353 
Q 3269 753 2831 336 
Q 2394 -81 1725 -81 
Q 1122 -81 723 278 
Q 325 638 269 1209 
z
" transform="scale(0.015625)"/>
      <path id="ArialMT-20" transform="scale(0.015625)"/>
     </defs>
     <use xlink:href="#ArialMT-33"/>
     <use xlink:href="#ArialMT-2e" x="55.615234"/>
     <use xlink:href="#ArialMT-35" x="83.398438"/>
     <use xlink:href="#ArialMT-20" x="139.013672"/>
    </g>
   </g>
   <g id="text_11">
    <!--  13 -->
    <g style="fill: #262626" transform="translate(327.698373 317.082975) scale(0.12 -0.12)">
     <use xlink:href="#ArialMT-20"/>
     <use xlink:href="#ArialMT-31" x="27.783203"/>
     <use xlink:href="#ArialMT-33" x="83.398438"/>
    </g>
   </g>
   <g id="text_12">
    <!-- 94% HDI -->
    <g style="fill: #262626" transform="translate(179.745395 244.053375) scale(0.12 -0.12)">
     <defs>
      <path id="ArialMT-39" d="M 350 1059 
L 891 1109 
Q 959 728 1153 556 
Q 1347 384 1650 384 
Q 1909 384 2104 503 
Q 2300 622 2425 820 
Q 2550 1019 2634 1356 
Q 2719 1694 2719 2044 
Q 2719 2081 2716 2156 
Q 2547 1888 2255 1720 
Q 1963 1553 1622 1553 
Q 1053 1553 659 1965 
Q 266 2378 266 3053 
Q 266 3750 677 4175 
Q 1088 4600 1706 4600 
Q 2153 4600 2523 4359 
Q 2894 4119 3086 3673 
Q 3278 3228 3278 2384 
Q 3278 1506 3087 986 
Q 2897 466 2520 194 
Q 2144 -78 1638 -78 
Q 1100 -78 759 220 
Q 419 519 350 1059 
z
M 2653 3081 
Q 2653 3566 2395 3850 
Q 2138 4134 1775 4134 
Q 1400 4134 1122 3828 
Q 844 3522 844 3034 
Q 844 2597 1108 2323 
Q 1372 2050 1759 2050 
Q 2150 2050 2401 2323 
Q 2653 2597 2653 3081 
z
" transform="scale(0.015625)"/>
      <path id="ArialMT-34" d="M 2069 0 
L 2069 1097 
L 81 1097 
L 81 1613 
L 2172 4581 
L 2631 4581 
L 2631 1613 
L 3250 1613 
L 3250 1097 
L 2631 1097 
L 2631 0 
L 2069 0 
z
M 2069 1613 
L 2069 3678 
L 634 1613 
L 2069 1613 
z
" transform="scale(0.015625)"/>
      <path id="ArialMT-25" d="M 372 3481 
Q 372 3972 619 4315 
Q 866 4659 1334 4659 
Q 1766 4659 2048 4351 
Q 2331 4044 2331 3447 
Q 2331 2866 2045 2552 
Q 1759 2238 1341 2238 
Q 925 2238 648 2547 
Q 372 2856 372 3481 
z
M 1350 4272 
Q 1141 4272 1002 4090 
Q 863 3909 863 3425 
Q 863 2984 1003 2804 
Q 1144 2625 1350 2625 
Q 1563 2625 1702 2806 
Q 1841 2988 1841 3469 
Q 1841 3913 1700 4092 
Q 1559 4272 1350 4272 
z
M 1353 -169 
L 3859 4659 
L 4316 4659 
L 1819 -169 
L 1353 -169 
z
M 3334 1075 
Q 3334 1569 3581 1911 
Q 3828 2253 4300 2253 
Q 4731 2253 5014 1945 
Q 5297 1638 5297 1041 
Q 5297 459 5011 145 
Q 4725 -169 4303 -169 
Q 3888 -169 3611 142 
Q 3334 453 3334 1075 
z
M 4316 1866 
Q 4103 1866 3964 1684 
Q 3825 1503 3825 1019 
Q 3825 581 3965 400 
Q 4106 219 4313 219 
Q 4528 219 4667 400 
Q 4806 581 4806 1063 
Q 4806 1506 4665 1686 
Q 4525 1866 4316 1866 
z
" transform="scale(0.015625)"/>
      <path id="ArialMT-48" d="M 513 0 
L 513 4581 
L 1119 4581 
L 1119 2700 
L 3500 2700 
L 3500 4581 
L 4106 4581 
L 4106 0 
L 3500 0 
L 3500 2159 
L 1119 2159 
L 1119 0 
L 513 0 
z
" transform="scale(0.015625)"/>
      <path id="ArialMT-44" d="M 494 0 
L 494 4581 
L 2072 4581 
Q 2606 4581 2888 4516 
Q 3281 4425 3559 4188 
Q 3922 3881 4101 3404 
Q 4281 2928 4281 2316 
Q 4281 1794 4159 1391 
Q 4038 988 3847 723 
Q 3656 459 3429 307 
Q 3203 156 2883 78 
Q 2563 0 2147 0 
L 494 0 
z
M 1100 541 
L 2078 541 
Q 2531 541 2789 625 
Q 3047 709 3200 863 
Q 3416 1078 3536 1442 
Q 3656 1806 3656 2325 
Q 3656 3044 3420 3430 
Q 3184 3816 2847 3947 
Q 2603 4041 2063 4041 
L 1100 4041 
L 1100 541 
z
" transform="scale(0.015625)"/>
      <path id="ArialMT-49" d="M 597 0 
L 597 4581 
L 1203 4581 
L 1203 0 
L 597 0 
z
" transform="scale(0.015625)"/>
     </defs>
     <use xlink:href="#ArialMT-39"/>
     <use xlink:href="#ArialMT-34" x="55.615234"/>
     <use xlink:href="#ArialMT-25" x="111.230469"/>
     <use xlink:href="#ArialMT-20" x="200.146484"/>
     <use xlink:href="#ArialMT-48" x="227.929688"/>
     <use xlink:href="#ArialMT-44" x="300.146484"/>
     <use xlink:href="#ArialMT-49" x="372.363281"/>
    </g>
   </g>
   <g id="text_13">
    <!-- mean=8.3 -->
    <g style="fill: #262626" transform="translate(172.221149 85.293375) scale(0.12 -0.12)">
     <defs>
      <path id="ArialMT-6d" d="M 422 0 
L 422 3319 
L 925 3319 
L 925 2853 
Q 1081 3097 1340 3245 
Q 1600 3394 1931 3394 
Q 2300 3394 2536 3241 
Q 2772 3088 2869 2813 
Q 3263 3394 3894 3394 
Q 4388 3394 4653 3120 
Q 4919 2847 4919 2278 
L 4919 0 
L 4359 0 
L 4359 2091 
Q 4359 2428 4304 2576 
Q 4250 2725 4106 2815 
Q 3963 2906 3769 2906 
Q 3419 2906 3187 2673 
Q 2956 2441 2956 1928 
L 2956 0 
L 2394 0 
L 2394 2156 
Q 2394 2531 2256 2718 
Q 2119 2906 1806 2906 
Q 1569 2906 1367 2781 
Q 1166 2656 1075 2415 
Q 984 2175 984 1722 
L 984 0 
L 422 0 
z
" transform="scale(0.015625)"/>
      <path id="ArialMT-65" d="M 2694 1069 
L 3275 997 
Q 3138 488 2766 206 
Q 2394 -75 1816 -75 
Q 1088 -75 661 373 
Q 234 822 234 1631 
Q 234 2469 665 2931 
Q 1097 3394 1784 3394 
Q 2450 3394 2872 2941 
Q 3294 2488 3294 1666 
Q 3294 1616 3291 1516 
L 816 1516 
Q 847 969 1125 678 
Q 1403 388 1819 388 
Q 2128 388 2347 550 
Q 2566 713 2694 1069 
z
M 847 1978 
L 2700 1978 
Q 2663 2397 2488 2606 
Q 2219 2931 1791 2931 
Q 1403 2931 1139 2672 
Q 875 2413 847 1978 
z
" transform="scale(0.015625)"/>
      <path id="ArialMT-61" d="M 2588 409 
Q 2275 144 1986 34 
Q 1697 -75 1366 -75 
Q 819 -75 525 192 
Q 231 459 231 875 
Q 231 1119 342 1320 
Q 453 1522 633 1644 
Q 813 1766 1038 1828 
Q 1203 1872 1538 1913 
Q 2219 1994 2541 2106 
Q 2544 2222 2544 2253 
Q 2544 2597 2384 2738 
Q 2169 2928 1744 2928 
Q 1347 2928 1158 2789 
Q 969 2650 878 2297 
L 328 2372 
Q 403 2725 575 2942 
Q 747 3159 1072 3276 
Q 1397 3394 1825 3394 
Q 2250 3394 2515 3294 
Q 2781 3194 2906 3042 
Q 3031 2891 3081 2659 
Q 3109 2516 3109 2141 
L 3109 1391 
Q 3109 606 3145 398 
Q 3181 191 3288 0 
L 2700 0 
Q 2613 175 2588 409 
z
M 2541 1666 
Q 2234 1541 1622 1453 
Q 1275 1403 1131 1340 
Q 988 1278 909 1158 
Q 831 1038 831 891 
Q 831 666 1001 516 
Q 1172 366 1500 366 
Q 1825 366 2078 508 
Q 2331 650 2450 897 
Q 2541 1088 2541 1459 
L 2541 1666 
z
" transform="scale(0.015625)"/>
      <path id="ArialMT-6e" d="M 422 0 
L 422 3319 
L 928 3319 
L 928 2847 
Q 1294 3394 1984 3394 
Q 2284 3394 2536 3286 
Q 2788 3178 2913 3003 
Q 3038 2828 3088 2588 
Q 3119 2431 3119 2041 
L 3119 0 
L 2556 0 
L 2556 2019 
Q 2556 2363 2490 2533 
Q 2425 2703 2258 2804 
Q 2091 2906 1866 2906 
Q 1506 2906 1245 2678 
Q 984 2450 984 1813 
L 984 0 
L 422 0 
z
" transform="scale(0.015625)"/>
      <path id="ArialMT-3d" d="M 3381 2694 
L 356 2694 
L 356 3219 
L 3381 3219 
L 3381 2694 
z
M 3381 1303 
L 356 1303 
L 356 1828 
L 3381 1828 
L 3381 1303 
z
" transform="scale(0.015625)"/>
      <path id="ArialMT-38" d="M 1131 2484 
Q 781 2613 612 2850 
Q 444 3088 444 3419 
Q 444 3919 803 4259 
Q 1163 4600 1759 4600 
Q 2359 4600 2725 4251 
Q 3091 3903 3091 3403 
Q 3091 3084 2923 2848 
Q 2756 2613 2416 2484 
Q 2838 2347 3058 2040 
Q 3278 1734 3278 1309 
Q 3278 722 2862 322 
Q 2447 -78 1769 -78 
Q 1091 -78 675 323 
Q 259 725 259 1325 
Q 259 1772 486 2073 
Q 713 2375 1131 2484 
z
M 1019 3438 
Q 1019 3113 1228 2906 
Q 1438 2700 1772 2700 
Q 2097 2700 2305 2904 
Q 2513 3109 2513 3406 
Q 2513 3716 2298 3927 
Q 2084 4138 1766 4138 
Q 1444 4138 1231 3931 
Q 1019 3725 1019 3438 
z
M 838 1322 
Q 838 1081 952 856 
Q 1066 631 1291 507 
Q 1516 384 1775 384 
Q 2178 384 2440 643 
Q 2703 903 2703 1303 
Q 2703 1709 2433 1975 
Q 2163 2241 1756 2241 
Q 1359 2241 1098 1978 
Q 838 1716 838 1322 
z
" transform="scale(0.015625)"/>
     </defs>
     <use xlink:href="#ArialMT-6d"/>
     <use xlink:href="#ArialMT-65" x="83.300781"/>
     <use xlink:href="#ArialMT-61" x="138.916016"/>
     <use xlink:href="#ArialMT-6e" x="194.53125"/>
     <use xlink:href="#ArialMT-3d" x="250.146484"/>
     <use xlink:href="#ArialMT-38" x="308.544922"/>
     <use xlink:href="#ArialMT-2e" x="364.160156"/>
     <use xlink:href="#ArialMT-33" x="391.943359"/>
    </g>
   </g>
   <g id="text_14">
    <!-- mu -->
    <g style="fill: #262626" transform="translate(277.865625 15.789375) scale(0.12 -0.12)">
     <defs>
      <path id="ArialMT-75" d="M 2597 0 
L 2597 488 
Q 2209 -75 1544 -75 
Q 1250 -75 995 37 
Q 741 150 617 320 
Q 494 491 444 738 
Q 409 903 409 1263 
L 409 3319 
L 972 3319 
L 972 1478 
Q 972 1038 1006 884 
Q 1059 663 1231 536 
Q 1403 409 1656 409 
Q 1909 409 2131 539 
Q 2353 669 2445 892 
Q 2538 1116 2538 1541 
L 2538 3319 
L 3100 3319 
L 3100 0 
L 2597 0 
z
" transform="scale(0.015625)"/>
     </defs>
     <use xlink:href="#ArialMT-6d"/>
     <use xlink:href="#ArialMT-75" x="83.300781"/>
    </g>
   </g>
  </g>
 </g>
 <defs>
  <clipPath id="p05a5982579">
   <rect x="7.2" y="21.789375" width="558" height="332.64"/>
  </clipPath>
 </defs>
</svg>