<?xml version="1.0" encoding="UTF-8" standalone="no"?>
<!DOCTYPE svg PUBLIC "-//W3C//DTD SVG 1.1//EN"
 "http://www.w3.org/Graphics/SVG/1.1/DTD/svg11.dtd">
<!-- Generated by graphviz version 7.1.0 (20230121.1956)
 -->
<!-- Pages: 1 -->
<svg width="327pt" height="233pt"
 viewBox="0.00 0.00 327.41 232.91" xmlns="http://www.w3.org/2000/svg" xmlns:xlink="http://www.w3.org/1999/xlink">
<g id="graph0" class="graph" transform="scale(1 1) rotate(0) translate(4 228.91)">
<polygon fill="white" stroke="none" points="-4,4 -4,-228.91 323.41,-228.91 323.41,4 -4,4"/>
<g id="clust1" class="cluster">
<title>cluster100</title>
<path fill="none" stroke="black" d="M104.72,-8C104.72,-8 180.72,-8 180.72,-8 186.72,-8 192.72,-14 192.72,-20 192.72,-20 192.72,-109.95 192.72,-109.95 192.72,-115.95 186.72,-121.95 180.72,-121.95 180.72,-121.95 104.72,-121.95 104.72,-121.95 98.72,-121.95 92.72,-115.95 92.72,-109.95 92.72,-109.95 92.72,-20 92.72,-20 92.72,-14 98.72,-8 104.72,-8"/>
<text text-anchor="middle" x="174.22" y="-15.8" font-family="Times,serif" font-size="14.00">100</text>
</g>
<!-- alpha -->
<g id="node1" class="node">
<title>alpha</title>
<ellipse fill="none" stroke="black" cx="41.72" cy="-187.43" rx="41.94" ry="37.45"/>
<text text-anchor="middle" x="41.72" y="-198.73" font-family="Times,serif" font-size="14.00">alpha</text>
<text text-anchor="middle" x="41.72" y="-183.73" font-family="Times,serif" font-size="14.00">~</text>
<text text-anchor="middle" x="41.72" y="-168.73" font-family="Times,serif" font-size="14.00">Normal</text>
</g>
<!-- Y_obs -->
<g id="node4" class="node">
<title>Y_obs</title>
<ellipse fill="lightgrey" stroke="black" cx="142.72" cy="-76.48" rx="41.94" ry="37.45"/>
<text text-anchor="middle" x="142.72" y="-87.78" font-family="Times,serif" font-size="14.00">Y_obs</text>
<text text-anchor="middle" x="142.72" y="-72.78" font-family="Times,serif" font-size="14.00">~</text>
<text text-anchor="middle" x="142.72" y="-57.78" font-family="Times,serif" font-size="14.00">Normal</text>
</g>
<!-- alpha&#45;&gt;Y_obs -->
<g id="edge1" class="edge">
<title>alpha&#45;&gt;Y_obs</title>
<path fill="none" stroke="black" d="M67.99,-158.09C80.4,-144.7 95.37,-128.55 108.64,-114.24"/>
<polygon fill="black" stroke="black" points="110.97,-116.88 115.2,-107.17 105.83,-112.12 110.97,-116.88"/>
</g>
<!-- beta -->
<g id="node2" class="node">
<title>beta</title>
<ellipse fill="none" stroke="black" cx="142.72" cy="-187.43" rx="41.94" ry="37.45"/>
<text text-anchor="middle" x="142.72" y="-198.73" font-family="Times,serif" font-size="14.00">beta</text>
<text text-anchor="middle" x="142.72" y="-183.73" font-family="Times,serif" font-size="14.00">~</text>
<text text-anchor="middle" x="142.72" y="-168.73" font-family="Times,serif" font-size="14.00">Normal</text>
</g>
<!-- beta&#45;&gt;Y_obs -->
<g id="edge2" class="edge">
<title>beta&#45;&gt;Y_obs</title>
<path fill="none" stroke="black" d="M142.72,-149.54C142.72,-141.91 142.72,-133.76 142.72,-125.79"/>
<polygon fill="black" stroke="black" points="146.22,-125.84 142.72,-115.84 139.22,-125.84 146.22,-125.84"/>
</g>
<!-- sigma -->
<g id="node3" class="node">
<title>sigma</title>
<ellipse fill="none" stroke="black" cx="260.72" cy="-187.43" rx="58.88" ry="37.45"/>
<text text-anchor="middle" x="260.72" y="-198.73" font-family="Times,serif" font-size="14.00">sigma</text>
<text text-anchor="middle" x="260.72" y="-183.73" font-family="Times,serif" font-size="14.00">~</text>
<text text-anchor="middle" x="260.72" y="-168.73" font-family="Times,serif" font-size="14.00">HalfNormal</text>
</g>
<!-- sigma&#45;&gt;Y_obs -->
<g id="edge3" class="edge">
<title>sigma&#45;&gt;Y_obs</title>
<path fill="none" stroke="black" d="M227.85,-156.08C212.89,-142.27 195.12,-125.86 179.7,-111.62"/>
<polygon fill="black" stroke="black" points="182.23,-109.2 172.51,-104.99 177.49,-114.34 182.23,-109.2"/>
</g>
</g>
</svg>